<svg id="det_fam_tree" width="1854.7223066398496" height="298.9681116581375" version="1.1" baseprofile="full" xmlns="http://www.w3.org/2000/svg" xmlns:xlink="http://www.w3.org/1999/xlink" xmlns:ev="http://www.w3.org/2001/xml-events"><g transform="translate(5,25) scale(1.19)"><path vector-effect="non-scaling-stroke" stroke-linecap="square" style="stroke:black;stroke-width:1;" d="M 400 0 140.8698198857812 0"></path><path vector-effect="non-scaling-stroke" stroke-linecap="square" style="stroke:black;stroke-width:1;" d="M 346.99077463757504 40 140.8698198857812 40"></path><path vector-effect="non-scaling-stroke" stroke-linecap="square" style="stroke:black;stroke-width:1;" d="M 140.8698198857812 20 12.593351881681064 20"></path><path vector-effect="non-scaling-stroke" stroke-linecap="square" style="stroke:black;stroke-width:1;" d="M 140.8698198857812 0 140.8698198857812 40"></path><path vector-effect="non-scaling-stroke" stroke-linecap="square" style="stroke:black;stroke-width:1;" d="M 201.14218772880363 80 12.593351881681064 80"></path><path vector-effect="non-scaling-stroke" stroke-linecap="square" style="stroke:black;stroke-width:1;" d="M 12.593351881681064 50 0 50"></path><path vector-effect="non-scaling-stroke" stroke-linecap="square" style="stroke:black;stroke-width:1;" d="M 12.593351881681064 20 12.593351881681064 80"></path><path vector-effect="non-scaling-stroke" stroke-linecap="square" style="stroke:black;stroke-width:1;" d="M 400 120 0 120"></path><path vector-effect="non-scaling-stroke" stroke-linecap="square" style="stroke:black;stroke-width:1;" d="M 0 50 0 120"></path><path vector-effect="non-scaling-stroke" stroke-linecap="square" style="stroke:black;stroke-width:1;" stroke-dasharray="1,10" d="M 400 0 500 0"></path><path vector-effect="non-scaling-stroke" stroke-linecap="square" style="stroke:black;stroke-width:1;" stroke-dasharray="1,3" d="M 510 0 518 0"></path><g id="SvgjsG2340" class="arrower-bgc" transform="translate(518,-10) scale(0.5)" idx="28"><line id="SvgjsLine2341" x1="0" y1="20" x2="841" y2="20" stroke="#000000" stroke-width="1" class="arrower-line"></line><text id="SvgjsText2342" font-family="Helvetica, Arial, sans-serif" class="arrower-label" font-size="20" size="20" y="-34.66666666666667"><tspan id="SvgjsTspan2343" dy="26" x="0">GCF_900499075.1_Roseibaca_ekhonensis_CECT_7235-NZ_UIHC01000012.1.region001: Roseibaca ekhonensis strain CECT7235</tspan></text><polygon id="SvgjsPolygon2348" points="21,6, 48,6, 48,-1, 57,20, 48,41, 48,33, 21,33" fill="white" stroke="#000000" stroke-width="1" class="arrower-orf" idx="0"></polygon><polygon id="SvgjsPolygon2349" points="22,6, 38,6, 38,6, 38,20, 38,20, 38,33, 38,33, 22,33" fill="#69d94d" stroke="#000000" stroke-width="1" class="arrower-domain" idx="0"></polygon><polygon id="SvgjsPolygon2350" points="39,6, 48,6, 48,-1, 56,17, 56,22, 48,41, 48,33, 39,33" fill="#69d94d" stroke="#000000" stroke-width="1" class="arrower-domain" idx="1"></polygon><polygon id="SvgjsPolygon2351" points="60,6, 83,6, 83,-1, 90,20, 83,41, 83,33, 60,33" fill="white" stroke="#000000" stroke-width="1" class="arrower-orf" idx="1"></polygon><polygon id="SvgjsPolygon2352" points="60,6, 83,6, 83,-1, 86,7, 86,32, 83,41, 83,33, 60,33" fill="#cba239" stroke="#000000" stroke-width="1" class="arrower-domain" idx="0"></polygon><polygon id="SvgjsPolygon2353" points="114,6, 98,6, 98,-1, 92,20, 98,41, 98,33, 114,33" fill="white" stroke="#000000" stroke-width="1" class="arrower-orf" idx="2"></polygon><polygon id="SvgjsPolygon2354" points="101,6, 98,6, 98,-1, 94,12, 94,27, 98,41, 98,33, 101,33" fill="#db5e52" stroke="#000000" stroke-width="1" class="arrower-domain" idx="0"></polygon><polygon id="SvgjsPolygon2355" points="121,6, 146,6, 146,-1, 154,20, 146,41, 146,33, 121,33" fill="white" stroke="#000000" stroke-width="1" class="arrower-orf" idx="3"></polygon><polygon id="SvgjsPolygon2356" points="143,6, 146,6, 146,-1, 152,14, 152,25, 146,41, 146,33, 143,33" fill="#31b878" stroke="#000000" stroke-width="1" class="arrower-domain" idx="0"></polygon><polygon id="SvgjsPolygon2357" points="192,6, 166,6, 166,-1, 158,20, 166,41, 166,33, 192,33" fill="white" stroke="#000000" stroke-width="1" class="arrower-orf" idx="4"></polygon><polygon id="SvgjsPolygon2358" points="189,6, 166,6, 166,-1, 160,14, 160,25, 166,41, 166,33, 189,33" fill="#56b497" stroke="#000000" stroke-width="1" class="arrower-domain" idx="0"></polygon><polygon id="SvgjsPolygon2359" points="261,6, 210,6, 210,-1, 193,20, 210,41, 210,33, 261,33" fill="white" stroke="#000000" stroke-width="1" class="arrower-orf" idx="5"></polygon><polygon id="SvgjsPolygon2360" points="214,6, 210,6, 210,-1, 202,8, 202,31, 210,41, 210,33, 214,33" fill="#3ad55d" stroke="#000000" stroke-width="1" class="arrower-domain" idx="0"></polygon><polygon id="SvgjsPolygon2361" points="238,6, 229,6, 229,6, 229,20, 229,20, 229,33, 229,33, 238,33" fill="gray" stroke="#000000" stroke-width="1" class="arrower-domain" idx="1"></polygon><polygon id="SvgjsPolygon2362" points="305,6, 275,6, 275,-1, 265,20, 275,41, 275,33, 305,33" fill="white" stroke="#000000" stroke-width="1" class="arrower-orf" idx="6"></polygon><polygon id="SvgjsPolygon2363" points="275,6, 275,6, 275,-1, 266,17, 266,22, 275,41, 275,33, 275,33" fill="gray" stroke="#000000" stroke-width="1" class="arrower-domain" idx="0"></polygon><polygon id="SvgjsPolygon2364" points="293,6, 283,6, 283,6, 283,20, 283,20, 283,33, 283,33, 293,33" fill="#c7dc67" stroke="#000000" stroke-width="1" class="arrower-domain" idx="1"></polygon><polygon id="SvgjsPolygon2365" points="332,6, 311,6, 311,-1, 304,20, 311,41, 311,33, 332,33" fill="white" stroke="#000000" stroke-width="1" class="arrower-orf" idx="7"></polygon><polygon id="SvgjsPolygon2366" points="338,6, 384,6, 384,-1, 399,20, 384,41, 384,33, 338,33" fill="white" stroke="#000000" stroke-width="1" class="arrower-orf" idx="8"></polygon><polygon id="SvgjsPolygon2367" points="340,6, 384,6, 384,-1, 396,15, 396,24, 384,41, 384,33, 340,33" fill="#b84a34" stroke="#000000" stroke-width="1" class="arrower-domain" idx="0"></polygon><polygon id="SvgjsPolygon2368" points="400,6, 431,6, 431,-1, 441,20, 431,41, 431,33, 400,33" fill="white" stroke="#000000" stroke-width="1" class="arrower-orf" idx="9"></polygon><polygon id="SvgjsPolygon2369" points="401,6, 431,6, 431,-1, 432,0, 432,39, 431,41, 431,33, 401,33" fill="#b25b31" stroke="#000000" stroke-width="1" class="arrower-domain" idx="0"></polygon><polygon id="SvgjsPolygon2370" points="446,6, 446,6, 446,-1, 464,20, 446,41, 446,33, 446,33" fill="white" stroke="#000000" stroke-width="1" class="arrower-orf" idx="10"></polygon><polygon id="SvgjsPolygon2371" points="446,6, 446,6, 446,-1, 463,18, 463,21, 446,41, 446,33, 446,33" fill="#bf5867" stroke="#000000" stroke-width="1" class="arrower-domain" idx="0"></polygon><polygon id="SvgjsPolygon2372" points="486,6, 470,6, 470,-1, 464,20, 470,41, 470,33, 486,33" fill="white" stroke="#000000" stroke-width="1" class="arrower-orf" idx="11"></polygon><polygon id="SvgjsPolygon2373" points="483,6, 470,6, 470,-1, 468,5, 468,34, 470,41, 470,33, 483,33" fill="#5c38bb" stroke="#000000" stroke-width="1" class="arrower-domain" idx="0"></polygon><polygon id="SvgjsPolygon2374" points="533,6, 498,6, 498,-1, 486,20, 498,41, 498,33, 533,33" fill="white" stroke="#000000" stroke-width="1" class="arrower-orf" idx="12"></polygon><polygon id="SvgjsPolygon2375" points="533,6, 511,6, 511,6, 511,20, 511,20, 511,33, 511,33, 533,33" fill="#53dfa7" stroke="#000000" stroke-width="1" class="arrower-domain" idx="0"></polygon><polygon id="SvgjsPolygon2376" points="584,6, 546,6, 546,-1, 534,20, 546,41, 546,33, 584,33" fill="white" stroke="#000000" stroke-width="1" class="arrower-orf" idx="13"></polygon><polygon id="SvgjsPolygon2377" points="581,6, 546,6, 546,-1, 535,18, 535,21, 546,41, 546,33, 581,33" fill="#ffffff" stroke="#000000" stroke-width="1" class="arrower-domain" idx="0" style="stroke-width: 1px; stroke: black;"></polygon><polygon id="SvgjsPolygon2378" points="619,6, 593,6, 593,-1, 584,20, 593,41, 593,33, 619,33" fill="white" stroke="#000000" stroke-width="1" class="arrower-orf" idx="14"></polygon><polygon id="SvgjsPolygon2379" points="616,6, 593,6, 593,-1, 584,20, 584,20, 593,41, 593,33, 616,33" fill="#bd3964" stroke="#000000" stroke-width="1" class="arrower-domain" idx="0" style="stroke-width: 1px; stroke: black;"></polygon><polygon id="SvgjsPolygon2380" points="621,6, 637,6, 637,-1, 643,20, 637,41, 637,33, 621,33" fill="white" stroke="#000000" stroke-width="1" class="arrower-orf" idx="15" style="stroke-width: 1px; stroke: black;"></polygon><polygon id="SvgjsPolygon2381" points="667,6, 649,6, 649,-1, 643,20, 649,41, 649,33, 667,33" fill="white" stroke="#000000" stroke-width="1" class="arrower-orf" idx="16" style="stroke-width: 1px; stroke: black;"></polygon><polygon id="SvgjsPolygon2382" points="651,6, 649,6, 649,-1, 644,16, 644,23, 649,41, 649,33, 651,33" fill="#ffffff" stroke="#000000" stroke-width="1" class="arrower-domain" idx="0" style="stroke-width: 1px; stroke: black;"></polygon><polygon id="SvgjsPolygon2383" points="735,6, 685,6, 685,-1, 668,20, 685,41, 685,33, 735,33" fill="white" stroke="#000000" stroke-width="1" class="arrower-orf" idx="17" style="stroke-width: 1px; stroke: black;"></polygon><polygon id="SvgjsPolygon2384" points="712,6, 692,6, 692,6, 692,20, 692,20, 692,33, 692,33, 712,33" fill="#9538de" stroke="#000000" stroke-width="1" class="arrower-domain" idx="0" style="stroke-width: 1px; stroke: black;"></polygon><polygon id="SvgjsPolygon2385" points="734,6, 720,6, 720,6, 720,20, 720,20, 720,33, 720,33, 734,33" fill="#91be3c" stroke="#000000" stroke-width="1" class="arrower-domain" idx="1"></polygon><polygon id="SvgjsPolygon2386" points="796,6, 754,6, 754,-1, 739,20, 754,41, 754,33, 796,33" fill="white" stroke="#000000" stroke-width="1" class="arrower-orf" idx="18" style="stroke-width: 1px; stroke: black;"></polygon><polygon id="SvgjsPolygon2387" points="745,11, 745,11, 745,11, 740,18, 740,21, 745,28, 745,28, 745,28" fill="#a83fc8" stroke="#000000" stroke-width="1" class="arrower-domain" idx="0"></polygon><polygon id="SvgjsPolygon2388" points="763,6, 754,6, 754,-1, 754,20, 754,20, 754,41, 754,33, 763,33" fill="#ceda49" stroke="#000000" stroke-width="1" class="arrower-domain" idx="1"></polygon><polygon id="SvgjsPolygon2389" points="777,6, 769,6, 769,6, 769,20, 769,20, 769,33, 769,33, 777,33" fill="#ceda49" stroke="#000000" stroke-width="1" class="arrower-domain" idx="2" style="stroke-width: 1px; stroke: black;"></polygon><polygon id="SvgjsPolygon2390" points="830,6, 807,6, 807,-1, 799,20, 807,41, 807,33, 830,33" fill="white" stroke="#000000" stroke-width="1" class="arrower-orf" idx="19" style="stroke-width: 1px; stroke: black;"></polygon></g><path vector-effect="non-scaling-stroke" stroke-linecap="square" style="stroke:black;stroke-width:1;" stroke-dasharray="1,10" d="M 346.99077463757504 40 500 40"></path><g id="SvgjsG2235" class="arrower-bgc" transform="translate(510,30) scale(-1,1) translate(-420,0) scale(0.5)" idx="26"><line id="SvgjsLine2236" x1="0" y1="20" x2="841" y2="20" stroke="#000000" stroke-width="1" class="arrower-line"></line><text id="SvgjsText2237" font-family="Helvetica, Arial, sans-serif" class="arrower-label" font-size="20" size="20" y="-34.66666666666667" transform="scale(-1,1) translate(-840,0)" font-style="italic"><tspan id="SvgjsTspan2238" dy="26" x="0">GCF_023336755.1_Roseibaca_sp.V10_V10-NZ_JALZWP010000001.1.region001: Roseibaca sp.v10 strain V10</tspan></text><polygon id="SvgjsPolygon2243" points="24,6, 49,6, 49,-1, 57,20, 49,41, 49,33, 24,33" fill="white" stroke="#000000" stroke-width="1" class="arrower-orf" idx="0"></polygon><polygon id="SvgjsPolygon2244" points="60,6, 102,6, 102,-1, 117,20, 102,41, 102,33, 60,33" fill="white" stroke="#000000" stroke-width="1" class="arrower-orf" idx="1"></polygon><polygon id="SvgjsPolygon2245" points="79,6, 87,6, 87,6, 87,20, 87,20, 87,33, 87,33, 79,33" fill="#ceda49" stroke="#000000" stroke-width="1" class="arrower-domain" idx="0"></polygon><polygon id="SvgjsPolygon2246" points="93,6, 102,6, 102,-1, 102,20, 102,20, 102,41, 102,33, 93,33" fill="#ceda49" stroke="#000000" stroke-width="1" class="arrower-domain" idx="1"></polygon><polygon id="SvgjsPolygon2247" points="111,11, 111,11, 111,11, 116,18, 116,21, 111,28, 111,28, 111,28" fill="#a83fc8" stroke="#000000" stroke-width="1" class="arrower-domain" idx="2"></polygon><polygon id="SvgjsPolygon2248" points="121,6, 171,6, 171,-1, 188,20, 171,41, 171,33, 121,33" fill="white" stroke="#000000" stroke-width="1" class="arrower-orf" idx="2"></polygon><polygon id="SvgjsPolygon2249" points="122,6, 136,6, 136,6, 136,20, 136,20, 136,33, 136,33, 122,33" fill="#91be3c" stroke="#000000" stroke-width="1" class="arrower-domain" idx="0"></polygon><polygon id="SvgjsPolygon2250" points="144,6, 164,6, 164,6, 164,20, 164,20, 164,33, 164,33, 144,33" fill="#9538de" stroke="#000000" stroke-width="1" class="arrower-domain" idx="1"></polygon><polygon id="SvgjsPolygon2251" points="189,6, 206,6, 206,-1, 212,20, 206,41, 206,33, 189,33" fill="white" stroke="#000000" stroke-width="1" class="arrower-orf" idx="3"></polygon><polygon id="SvgjsPolygon2252" points="205,6, 206,6, 206,-1, 212,20, 212,20, 206,41, 206,33, 205,33" fill="#ffffff" stroke="#000000" stroke-width="1" class="arrower-domain" idx="0"></polygon><polygon id="SvgjsPolygon2253" points="216,6, 242,6, 242,-1, 251,20, 242,41, 242,33, 216,33" fill="white" stroke="#000000" stroke-width="1" class="arrower-orf" idx="4"></polygon><polygon id="SvgjsPolygon2254" points="219,6, 242,6, 242,-1, 249,15, 249,24, 242,41, 242,33, 219,33" fill="#bd3964" stroke="#000000" stroke-width="1" class="arrower-domain" idx="0"></polygon><polygon id="SvgjsPolygon2255" points="252,6, 290,6, 290,-1, 302,20, 290,41, 290,33, 252,33" fill="white" stroke="#000000" stroke-width="1" class="arrower-orf" idx="5"></polygon><polygon id="SvgjsPolygon2256" points="255,6, 290,6, 290,-1, 301,18, 301,21, 290,41, 290,33, 255,33" fill="#ffffff" stroke="#000000" stroke-width="1" class="arrower-domain" idx="0"></polygon><polygon id="SvgjsPolygon2257" points="303,6, 338,6, 338,-1, 350,20, 338,41, 338,33, 303,33" fill="white" stroke="#000000" stroke-width="1" class="arrower-orf" idx="6"></polygon><polygon id="SvgjsPolygon2258" points="303,6, 338,6, 338,-1, 346,12, 346,27, 338,41, 338,33, 303,33" fill="#d450c8" stroke="#000000" stroke-width="1" class="arrower-domain" idx="0"></polygon><polygon id="SvgjsPolygon2259" points="350,6, 366,6, 366,-1, 372,20, 366,41, 366,33, 350,33" fill="white" stroke="#000000" stroke-width="1" class="arrower-orf" idx="7"></polygon><polygon id="SvgjsPolygon2260" points="353,6, 366,6, 366,-1, 368,5, 368,34, 366,41, 366,33, 353,33" fill="#5c38bb" stroke="#000000" stroke-width="1" class="arrower-domain" idx="0"></polygon><polygon id="SvgjsPolygon2261" points="394,6, 394,6, 394,-1, 376,20, 394,41, 394,33, 394,33" fill="white" stroke="#000000" stroke-width="1" class="arrower-orf" idx="8"></polygon><polygon id="SvgjsPolygon2262" points="394,6, 394,6, 394,-1, 377,18, 377,21, 394,41, 394,33, 394,33" fill="#bf5867" stroke="#000000" stroke-width="1" class="arrower-domain" idx="0"></polygon><polygon id="SvgjsPolygon2263" points="441,6, 410,6, 410,-1, 400,20, 410,41, 410,33, 441,33" fill="white" stroke="#000000" stroke-width="1" class="arrower-orf" idx="9"></polygon><polygon id="SvgjsPolygon2264" points="440,6, 410,6, 410,-1, 409,0, 409,39, 410,41, 410,33, 440,33" fill="#b25b31" stroke="#000000" stroke-width="1" class="arrower-domain" idx="0"></polygon><polygon id="SvgjsPolygon2265" points="502,6, 456,6, 456,-1, 441,20, 456,41, 456,33, 502,33" fill="white" stroke="#000000" stroke-width="1" class="arrower-orf" idx="10"></polygon><polygon id="SvgjsPolygon2266" points="500,6, 456,6, 456,-1, 444,15, 444,24, 456,41, 456,33, 500,33" fill="#b84a34" stroke="#000000" stroke-width="1" class="arrower-domain" idx="0"></polygon><polygon id="SvgjsPolygon2267" points="508,6, 529,6, 529,-1, 536,20, 529,41, 529,33, 508,33" fill="white" stroke="#000000" stroke-width="1" class="arrower-orf" idx="11"></polygon><polygon id="SvgjsPolygon2268" points="536,6, 566,6, 566,-1, 576,20, 566,41, 566,33, 536,33" fill="white" stroke="#000000" stroke-width="1" class="arrower-orf" idx="12"></polygon><polygon id="SvgjsPolygon2269" points="548,6, 558,6, 558,6, 558,20, 558,20, 558,33, 558,33, 548,33" fill="#c7dc67" stroke="#000000" stroke-width="1" class="arrower-domain" idx="0"></polygon><polygon id="SvgjsPolygon2270" points="566,6, 566,6, 566,-1, 575,17, 575,22, 566,41, 566,33, 566,33" fill="gray" stroke="#000000" stroke-width="1" class="arrower-domain" idx="1"></polygon><polygon id="SvgjsPolygon2271" points="579,6, 630,6, 630,-1, 647,20, 630,41, 630,33, 579,33" fill="white" stroke="#000000" stroke-width="1" class="arrower-orf" idx="13"></polygon><polygon id="SvgjsPolygon2272" points="602,6, 611,6, 611,6, 611,20, 611,20, 611,33, 611,33, 602,33" fill="gray" stroke="#000000" stroke-width="1" class="arrower-domain" idx="0"></polygon><polygon id="SvgjsPolygon2273" points="626,6, 630,6, 630,-1, 638,8, 638,31, 630,41, 630,33, 626,33" fill="#3ad55d" stroke="#000000" stroke-width="1" class="arrower-domain" idx="1"></polygon><polygon id="SvgjsPolygon2274" points="648,6, 674,6, 674,-1, 683,20, 674,41, 674,33, 648,33" fill="white" stroke="#000000" stroke-width="1" class="arrower-orf" idx="14"></polygon><polygon id="SvgjsPolygon2275" points="652,6, 674,6, 674,-1, 680,12, 680,27, 674,41, 674,33, 652,33" fill="#56b497" stroke="#000000" stroke-width="1" class="arrower-domain" idx="0"></polygon><polygon id="SvgjsPolygon2276" points="698,6, 698,6, 698,-1, 683,20, 698,41, 698,33, 698,33" fill="white" stroke="#000000" stroke-width="1" class="arrower-orf" idx="15"></polygon><polygon id="SvgjsPolygon2277" points="693,5, 693,5, 693,5, 683,20, 683,20, 693,34, 693,34, 693,34" fill="#82b83d" stroke="#000000" stroke-width="1" class="arrower-domain" idx="0"></polygon><polygon id="SvgjsPolygon2278" points="729,6, 706,6, 706,-1, 699,20, 706,41, 706,33, 729,33" fill="white" stroke="#000000" stroke-width="1" class="arrower-orf" idx="16"></polygon><polygon id="SvgjsPolygon2279" points="729,6, 706,6, 706,-1, 703,7, 703,32, 706,41, 706,33, 729,33" fill="#cba239" stroke="#000000" stroke-width="1" class="arrower-domain" idx="0"></polygon><polygon id="SvgjsPolygon2280" points="774,6, 749,6, 749,-1, 740,20, 749,41, 749,33, 774,33" fill="white" stroke="#000000" stroke-width="1" class="arrower-orf" idx="17"></polygon><polygon id="SvgjsPolygon2281" points="774,6, 749,6, 749,-1, 743,12, 743,27, 749,41, 749,33, 774,33" fill="#5fba56" stroke="#000000" stroke-width="1" class="arrower-domain" idx="0"></polygon><polygon id="SvgjsPolygon2282" points="799,6, 799,6, 799,-1, 779,20, 799,41, 799,33, 799,33" fill="white" stroke="#000000" stroke-width="1" class="arrower-orf" idx="18"></polygon></g><path vector-effect="non-scaling-stroke" stroke-linecap="square" style="stroke:black;stroke-width:1;" stroke-dasharray="1,10" d="M 201.14218772880363 80 500 80"></path><path vector-effect="non-scaling-stroke" stroke-linecap="square" style="stroke:black;stroke-width:1;" stroke-dasharray="1,3" d="M 510 80 518 80"></path><g id="SvgjsG1110" class="arrower-bgc" transform="translate(518,70) scale(0.5)" idx="2"><line id="SvgjsLine1111" x1="0" y1="20" x2="841" y2="20" stroke="#000000" stroke-width="1" class="arrower-line"></line><text id="SvgjsText1112" font-family="Helvetica, Arial, sans-serif" class="arrower-label" font-size="20" size="20" y="-34.66666666666667"><tspan id="SvgjsTspan1113" dy="26" x="0">GCF_001517585.1_Roseibaca_calidilacus_HL-91-NZ_FBYC01000004.1.region001: Roseibaca calidilacus strain HL-91</tspan></text><polygon id="SvgjsPolygon1118" points="58,6, 28,6, 28,-1, 18,20, 28,41, 28,33, 58,33" fill="white" stroke="#000000" stroke-width="1" class="arrower-orf" idx="0"></polygon><polygon id="SvgjsPolygon1119" points="36,6, 28,6, 28,-1, 21,13, 21,26, 28,41, 28,33, 36,33" fill="#9567e1" stroke="#000000" stroke-width="1" class="arrower-domain" idx="0"></polygon><polygon id="SvgjsPolygon1120" points="56,6, 37,6, 37,6, 37,20, 37,20, 37,33, 37,33, 56,33" fill="#9538de" stroke="#000000" stroke-width="1" class="arrower-domain" idx="1"></polygon><polygon id="SvgjsPolygon1121" points="63,6, 63,6, 63,-1, 79,20, 63,41, 63,33, 63,33" fill="white" stroke="#000000" stroke-width="1" class="arrower-orf" idx="1"></polygon><polygon id="SvgjsPolygon1122" points="84,6, 109,6, 109,-1, 118,20, 109,41, 109,33, 84,33" fill="white" stroke="#000000" stroke-width="1" class="arrower-orf" idx="2"></polygon><polygon id="SvgjsPolygon1123" points="84,6, 109,6, 109,-1, 115,12, 115,27, 109,41, 109,33, 84,33" fill="#5fba56" stroke="#000000" stroke-width="1" class="arrower-domain" idx="0"></polygon><polygon id="SvgjsPolygon1124" points="126,6, 149,6, 149,-1, 156,20, 149,41, 149,33, 126,33" fill="white" stroke="#000000" stroke-width="1" class="arrower-orf" idx="3"></polygon><polygon id="SvgjsPolygon1125" points="126,6, 149,6, 149,-1, 152,7, 152,32, 149,41, 149,33, 126,33" fill="#cba239" stroke="#000000" stroke-width="1" class="arrower-domain" idx="0"></polygon><polygon id="SvgjsPolygon1126" points="192,6, 166,6, 166,-1, 158,20, 166,41, 166,33, 192,33" fill="white" stroke="#000000" stroke-width="1" class="arrower-orf" idx="4"></polygon><polygon id="SvgjsPolygon1127" points="189,6, 166,6, 166,-1, 160,14, 160,25, 166,41, 166,33, 189,33" fill="#56b497" stroke="#000000" stroke-width="1" class="arrower-domain" idx="0"></polygon><polygon id="SvgjsPolygon1128" points="262,6, 211,6, 211,-1, 193,20, 211,41, 211,33, 262,33" fill="white" stroke="#000000" stroke-width="1" class="arrower-orf" idx="5"></polygon><polygon id="SvgjsPolygon1129" points="215,6, 211,6, 211,-1, 203,8, 203,31, 211,41, 211,33, 215,33" fill="#3ad55d" stroke="#000000" stroke-width="1" class="arrower-domain" idx="0"></polygon><polygon id="SvgjsPolygon1130" points="239,6, 230,6, 230,6, 230,20, 230,20, 230,33, 230,33, 239,33" fill="gray" stroke="#000000" stroke-width="1" class="arrower-domain" idx="1"></polygon><polygon id="SvgjsPolygon1131" points="305,6, 275,6, 275,-1, 265,20, 275,41, 275,33, 305,33" fill="white" stroke="#000000" stroke-width="1" class="arrower-orf" idx="6"></polygon><polygon id="SvgjsPolygon1132" points="275,6, 275,6, 275,-1, 266,17, 266,22, 275,41, 275,33, 275,33" fill="gray" stroke="#000000" stroke-width="1" class="arrower-domain" idx="0"></polygon><polygon id="SvgjsPolygon1133" points="293,6, 283,6, 283,6, 283,20, 283,20, 283,33, 283,33, 293,33" fill="#c7dc67" stroke="#000000" stroke-width="1" class="arrower-domain" idx="1"></polygon><polygon id="SvgjsPolygon1134" points="332,6, 311,6, 311,-1, 304,20, 311,41, 311,33, 332,33" fill="white" stroke="#000000" stroke-width="1" class="arrower-orf" idx="7"></polygon><polygon id="SvgjsPolygon1135" points="338,6, 384,6, 384,-1, 399,20, 384,41, 384,33, 338,33" fill="white" stroke="#000000" stroke-width="1" class="arrower-orf" idx="8"></polygon><polygon id="SvgjsPolygon1136" points="340,6, 384,6, 384,-1, 396,15, 396,24, 384,41, 384,33, 340,33" fill="#b84a34" stroke="#000000" stroke-width="1" class="arrower-domain" idx="0"></polygon><polygon id="SvgjsPolygon1137" points="400,6, 431,6, 431,-1, 441,20, 431,41, 431,33, 400,33" fill="white" stroke="#000000" stroke-width="1" class="arrower-orf" idx="9"></polygon><polygon id="SvgjsPolygon1138" points="401,6, 431,6, 431,-1, 432,0, 432,39, 431,41, 431,33, 401,33" fill="#b25b31" stroke="#000000" stroke-width="1" class="arrower-domain" idx="0"></polygon><polygon id="SvgjsPolygon1139" points="446,6, 446,6, 446,-1, 464,20, 446,41, 446,33, 446,33" fill="white" stroke="#000000" stroke-width="1" class="arrower-orf" idx="10"></polygon><polygon id="SvgjsPolygon1140" points="446,6, 446,6, 446,-1, 463,18, 463,21, 446,41, 446,33, 446,33" fill="#bf5867" stroke="#000000" stroke-width="1" class="arrower-domain" idx="0"></polygon><polygon id="SvgjsPolygon1141" points="488,6, 472,6, 472,-1, 466,20, 472,41, 472,33, 488,33" fill="white" stroke="#000000" stroke-width="1" class="arrower-orf" idx="11"></polygon><polygon id="SvgjsPolygon1142" points="485,6, 472,6, 472,-1, 470,5, 470,34, 472,41, 472,33, 485,33" fill="#5c38bb" stroke="#000000" stroke-width="1" class="arrower-domain" idx="0"></polygon><polygon id="SvgjsPolygon1143" points="535,6, 500,6, 500,-1, 488,20, 500,41, 500,33, 535,33" fill="white" stroke="#000000" stroke-width="1" class="arrower-orf" idx="12"></polygon><polygon id="SvgjsPolygon1144" points="535,6, 513,6, 513,6, 513,20, 513,20, 513,33, 513,33, 535,33" fill="#53dfa7" stroke="#000000" stroke-width="1" class="arrower-domain" idx="0"></polygon><polygon id="SvgjsPolygon1145" points="586,6, 548,6, 548,-1, 536,20, 548,41, 548,33, 586,33" fill="white" stroke="#000000" stroke-width="1" class="arrower-orf" idx="13"></polygon><polygon id="SvgjsPolygon1146" points="583,6, 548,6, 548,-1, 537,18, 537,21, 548,41, 548,33, 583,33" fill="#ffffff" stroke="#000000" stroke-width="1" class="arrower-domain" idx="0"></polygon><polygon id="SvgjsPolygon1147" points="622,6, 596,6, 596,-1, 587,20, 596,41, 596,33, 622,33" fill="white" stroke="#000000" stroke-width="1" class="arrower-orf" idx="14"></polygon><polygon id="SvgjsPolygon1148" points="619,6, 596,6, 596,-1, 589,15, 589,24, 596,41, 596,33, 619,33" fill="#bd3964" stroke="#000000" stroke-width="1" class="arrower-domain" idx="0"></polygon><polygon id="SvgjsPolygon1149" points="648,6, 631,6, 631,-1, 625,20, 631,41, 631,33, 648,33" fill="white" stroke="#000000" stroke-width="1" class="arrower-orf" idx="15"></polygon><polygon id="SvgjsPolygon1150" points="632,6, 631,6, 631,-1, 625,20, 625,20, 631,41, 631,33, 632,33" fill="#ffffff" stroke="#000000" stroke-width="1" class="arrower-domain" idx="0"></polygon><polygon id="SvgjsPolygon1151" points="716,6, 666,6, 666,-1, 649,20, 666,41, 666,33, 716,33" fill="white" stroke="#000000" stroke-width="1" class="arrower-orf" idx="16"></polygon><polygon id="SvgjsPolygon1152" points="693,6, 673,6, 673,6, 673,20, 673,20, 673,33, 673,33, 693,33" fill="#9538de" stroke="#000000" stroke-width="1" class="arrower-domain" idx="0"></polygon><polygon id="SvgjsPolygon1153" points="715,6, 701,6, 701,6, 701,20, 701,20, 701,33, 701,33, 715,33" fill="#91be3c" stroke="#000000" stroke-width="1" class="arrower-domain" idx="1"></polygon><polygon id="SvgjsPolygon1154" points="777,6, 735,6, 735,-1, 720,20, 735,41, 735,33, 777,33" fill="white" stroke="#000000" stroke-width="1" class="arrower-orf" idx="17"></polygon><polygon id="SvgjsPolygon1155" points="726,11, 726,11, 726,11, 721,18, 721,21, 726,28, 726,28, 726,28" fill="#a83fc8" stroke="#000000" stroke-width="1" class="arrower-domain" idx="0"></polygon><polygon id="SvgjsPolygon1156" points="744,6, 735,6, 735,-1, 735,20, 735,20, 735,41, 735,33, 744,33" fill="#ceda49" stroke="#000000" stroke-width="1" class="arrower-domain" idx="1"></polygon><polygon id="SvgjsPolygon1157" points="758,6, 750,6, 750,6, 750,20, 750,20, 750,33, 750,33, 758,33" fill="#ceda49" stroke="#000000" stroke-width="1" class="arrower-domain" idx="2"></polygon><polygon id="SvgjsPolygon1158" points="813,6, 788,6, 788,-1, 780,20, 788,41, 788,33, 813,33" fill="white" stroke="#000000" stroke-width="1" class="arrower-orf" idx="18"></polygon></g><path vector-effect="non-scaling-stroke" stroke-linecap="square" style="stroke:black;stroke-width:1;" stroke-dasharray="1,10" d="M 400 120 500 120"></path><path vector-effect="non-scaling-stroke" stroke-linecap="square" style="stroke:black;stroke-width:1;" stroke-dasharray="1,3" d="M 510 120 518 120"></path><g id="SvgjsG2475" class="arrower-bgc" transform="translate(518,110) scale(0.5)" idx="31"><line id="SvgjsLine2476" x1="0" y1="20" x2="841" y2="20" stroke="#000000" stroke-width="1" class="arrower-line"></line><text id="SvgjsText2477" font-family="Helvetica, Arial, sans-serif" class="arrower-label" font-size="20" size="20" y="-34.66666666666667" font-weight="bold" fill="red"><tspan id="SvgjsTspan2478" dy="26" x="0">NZ_JAFMPR010000008.1.region001: Roseibaca sp.y0-43 strain Y0-43</tspan></text><polygon id="SvgjsPolygon2483" points="45,6, 20,6, 20,-1, 11,20, 20,41, 20,33, 45,33" fill="white" stroke="#000000" stroke-width="1" class="arrower-orf" idx="0"></polygon><polygon id="SvgjsPolygon2484" points="50,6, 76,6, 76,-1, 85,20, 76,41, 76,33, 50,33" fill="white" stroke="#000000" stroke-width="1" class="arrower-orf" idx="1"></polygon><polygon id="SvgjsPolygon2485" points="52,6, 76,6, 76,-1, 82,12, 82,27, 76,41, 76,33, 52,33" fill="#5fba56" stroke="#000000" stroke-width="1" class="arrower-domain" idx="0"></polygon><polygon id="SvgjsPolygon2486" points="90,6, 113,6, 113,-1, 120,20, 113,41, 113,33, 90,33" fill="white" stroke="#000000" stroke-width="1" class="arrower-orf" idx="2"></polygon><polygon id="SvgjsPolygon2487" points="90,6, 113,6, 113,-1, 116,7, 116,32, 113,41, 113,33, 90,33" fill="#cba239" stroke="#000000" stroke-width="1" class="arrower-domain" idx="0"></polygon><polygon id="SvgjsPolygon2488" points="120,6, 120,6, 120,-1, 135,20, 120,41, 120,33, 120,33" fill="white" stroke="#000000" stroke-width="1" class="arrower-orf" idx="3"></polygon><polygon id="SvgjsPolygon2489" points="125,5, 125,5, 125,5, 135,20, 135,20, 125,34, 125,34, 125,34" fill="#82b83d" stroke="#000000" stroke-width="1" class="arrower-domain" idx="0"></polygon><polygon id="SvgjsPolygon2490" points="154,6, 154,6, 154,-1, 137,20, 154,41, 154,33, 154,33" fill="white" stroke="#000000" stroke-width="1" class="arrower-orf" idx="4"></polygon><polygon id="SvgjsPolygon2491" points="192,6, 166,6, 166,-1, 158,20, 166,41, 166,33, 192,33" fill="white" stroke="#000000" stroke-width="1" class="arrower-orf" idx="5"></polygon><polygon id="SvgjsPolygon2492" points="189,6, 166,6, 166,-1, 160,14, 160,25, 166,41, 166,33, 189,33" fill="#56b497" stroke="#000000" stroke-width="1" class="arrower-domain" idx="0"></polygon><polygon id="SvgjsPolygon2493" points="262,6, 211,6, 211,-1, 193,20, 211,41, 211,33, 262,33" fill="white" stroke="#000000" stroke-width="1" class="arrower-orf" idx="6"></polygon><polygon id="SvgjsPolygon2494" points="216,6, 211,6, 211,-1, 203,8, 203,31, 211,41, 211,33, 216,33" fill="#3ad55d" stroke="#000000" stroke-width="1" class="arrower-domain" idx="0"></polygon><polygon id="SvgjsPolygon2495" points="239,6, 230,6, 230,6, 230,20, 230,20, 230,33, 230,33, 239,33" fill="gray" stroke="#000000" stroke-width="1" class="arrower-domain" idx="1"></polygon><polygon id="SvgjsPolygon2496" points="305,6, 275,6, 275,-1, 265,20, 275,41, 275,33, 305,33" fill="white" stroke="#000000" stroke-width="1" class="arrower-orf" idx="7"></polygon><polygon id="SvgjsPolygon2497" points="275,6, 275,6, 275,-1, 266,17, 266,22, 275,41, 275,33, 275,33" fill="gray" stroke="#000000" stroke-width="1" class="arrower-domain" idx="0"></polygon><polygon id="SvgjsPolygon2498" points="293,6, 283,6, 283,6, 283,20, 283,20, 283,33, 283,33, 293,33" fill="#c7dc67" stroke="#000000" stroke-width="1" class="arrower-domain" idx="1"></polygon><polygon id="SvgjsPolygon2499" points="332,6, 311,6, 311,-1, 304,20, 311,41, 311,33, 332,33" fill="white" stroke="#000000" stroke-width="1" class="arrower-orf" idx="8"></polygon><polygon id="SvgjsPolygon2500" points="338,6, 384,6, 384,-1, 399,20, 384,41, 384,33, 338,33" fill="white" stroke="#000000" stroke-width="1" class="arrower-orf" idx="9"></polygon><polygon id="SvgjsPolygon2501" points="340,6, 384,6, 384,-1, 396,15, 396,24, 384,41, 384,33, 340,33" fill="#b84a34" stroke="#000000" stroke-width="1" class="arrower-domain" idx="0"></polygon><polygon id="SvgjsPolygon2502" points="400,6, 431,6, 431,-1, 441,20, 431,41, 431,33, 400,33" fill="white" stroke="#000000" stroke-width="1" class="arrower-orf" idx="10"></polygon><polygon id="SvgjsPolygon2503" points="402,6, 431,6, 431,-1, 432,0, 432,39, 431,41, 431,33, 402,33" fill="#b25b31" stroke="#000000" stroke-width="1" class="arrower-domain" idx="0"></polygon><polygon id="SvgjsPolygon2504" points="447,6, 447,6, 447,-1, 465,20, 447,41, 447,33, 447,33" fill="white" stroke="#000000" stroke-width="1" class="arrower-orf" idx="11"></polygon><polygon id="SvgjsPolygon2505" points="447,6, 447,6, 447,-1, 464,18, 464,21, 447,41, 447,33, 447,33" fill="#bf5867" stroke="#000000" stroke-width="1" class="arrower-domain" idx="0"></polygon><polygon id="SvgjsPolygon2506" points="488,6, 471,6, 471,-1, 465,20, 471,41, 471,33, 488,33" fill="white" stroke="#000000" stroke-width="1" class="arrower-orf" idx="12"></polygon><polygon id="SvgjsPolygon2507" points="485,6, 471,6, 471,-1, 470,2, 470,37, 471,41, 471,33, 485,33" fill="#5c38bb" stroke="#000000" stroke-width="1" class="arrower-domain" idx="0"></polygon><polygon id="SvgjsPolygon2508" points="535,6, 500,6, 500,-1, 488,20, 500,41, 500,33, 535,33" fill="white" stroke="#000000" stroke-width="1" class="arrower-orf" idx="13"></polygon><polygon id="SvgjsPolygon2509" points="535,6, 514,6, 514,6, 514,20, 514,20, 514,33, 514,33, 535,33" fill="#53dfa7" stroke="#000000" stroke-width="1" class="arrower-domain" idx="0"></polygon><polygon id="SvgjsPolygon2510" points="585,6, 547,6, 547,-1, 535,20, 547,41, 547,33, 585,33" fill="white" stroke="#000000" stroke-width="1" class="arrower-orf" idx="14"></polygon><polygon id="SvgjsPolygon2511" points="582,6, 547,6, 547,-1, 536,18, 536,21, 547,41, 547,33, 582,33" fill="#ffffff" stroke="#000000" stroke-width="1" class="arrower-domain" idx="0"></polygon><polygon id="SvgjsPolygon2512" points="621,6, 595,6, 595,-1, 586,20, 595,41, 595,33, 621,33" fill="white" stroke="#000000" stroke-width="1" class="arrower-orf" idx="15"></polygon><polygon id="SvgjsPolygon2513" points="618,6, 595,6, 595,-1, 586,20, 586,20, 595,41, 595,33, 618,33" fill="#bd3964" stroke="#000000" stroke-width="1" class="arrower-domain" idx="0"></polygon><polygon id="SvgjsPolygon2514" points="648,6, 631,6, 631,-1, 625,20, 631,41, 631,33, 648,33" fill="white" stroke="#000000" stroke-width="1" class="arrower-orf" idx="16"></polygon><polygon id="SvgjsPolygon2515" points="632,6, 631,6, 631,-1, 625,20, 625,20, 631,41, 631,33, 632,33" fill="#ffffff" stroke="#000000" stroke-width="1" class="arrower-domain" idx="0"></polygon><polygon id="SvgjsPolygon2516" points="716,6, 666,6, 666,-1, 649,20, 666,41, 666,33, 716,33" fill="white" stroke="#000000" stroke-width="1" class="arrower-orf" idx="17"></polygon><polygon id="SvgjsPolygon2517" points="693,6, 673,6, 673,6, 673,20, 673,20, 673,33, 673,33, 693,33" fill="#9538de" stroke="#000000" stroke-width="1" class="arrower-domain" idx="0"></polygon><polygon id="SvgjsPolygon2518" points="715,6, 701,6, 701,6, 701,20, 701,20, 701,33, 701,33, 715,33" fill="#91be3c" stroke="#000000" stroke-width="1" class="arrower-domain" idx="1"></polygon><polygon id="SvgjsPolygon2519" points="777,6, 735,6, 735,-1, 720,20, 735,41, 735,33, 777,33" fill="white" stroke="#000000" stroke-width="1" class="arrower-orf" idx="18"></polygon><polygon id="SvgjsPolygon2520" points="726,11, 726,11, 726,11, 721,18, 721,21, 726,28, 726,28, 726,28" fill="#a83fc8" stroke="#000000" stroke-width="1" class="arrower-domain" idx="0"></polygon><polygon id="SvgjsPolygon2521" points="744,6, 735,6, 735,-1, 735,20, 735,20, 735,41, 735,33, 744,33" fill="#ceda49" stroke="#000000" stroke-width="1" class="arrower-domain" idx="1"></polygon><polygon id="SvgjsPolygon2522" points="758,6, 750,6, 750,6, 750,20, 750,20, 750,33, 750,33, 758,33" fill="#ceda49" stroke="#000000" stroke-width="1" class="arrower-domain" idx="2"></polygon><polygon id="SvgjsPolygon2523" points="811,6, 788,6, 788,-1, 780,20, 788,41, 788,33, 811,33" fill="white" stroke="#000000" stroke-width="1" class="arrower-orf" idx="19"></polygon></g></g></svg>