<svg version="1.1" baseProfile="full" xmlns="http://www.w3.org/2000/svg" width="1747.1333333333334" height="80">
	<g>
		<line x1="10" y1="40.0" x2="1737.1333333333334" y2="40.0" style="stroke:rgb(70,70,70); stroke-width:3 "/>
		<g>
			<title>mutS (MMFACILD_04180)
DNA mismatch repair protein MutS</title>
			<polygon class="mutS (MMFACILD_04180)
DNA mismatch repair protein MutS" points="53,25 111,25 111,10 141,40 111,70 111,55 53,55" fill="rgb(255,255,255)" fill-opacity="1.0" stroke="rgb(0,0,0)" stroke-width="2"  />
			<g>
				<title>MutS_I (PF01624)
"MutS domain I"</title>
				<rect class="PF01624" x="53" y="28" stroke-linejoin="round" width="11" height="24" fill="rgb(208,180,91)" stroke="rgb(166,144,72)" stroke-width="1" opacity="0.75" />
			</g>
			<g>
				<title>MutS_II (PF05188)
"MutS domain II"</title>
				<rect class="PF05188" x="66" y="28" stroke-linejoin="round" width="12" height="24" fill="rgb(191,184,60)" stroke="rgb(152,147,48)" stroke-width="1" opacity="0.75" />
			</g>
			<g>
				<title>MutS_III (PF05192)
"MutS domain III"</title>
				<rect class="PF05192" x="80" y="28" stroke-linejoin="round" width="29" height="24" fill="rgb(87,171,208)" stroke="rgb(69,136,166)" stroke-width="1" opacity="0.75" />
			</g>
			<g>
				<title>MutS_V (PF00488)
"MutS domain V"</title>
				<polygon class="PF00488" points="115,28 125,28 133,36 133,44 125,52 115,52" stroke-linejoin="round" width="18" height="24" fill="rgb(106,217,199)" stroke="rgb(84,173,159)" stroke-width="1" opacity="0.75" />
			</g>
		</g>
		<g>
			<title>grpE (MMFACILD_04181)
Protein GrpE</title>
			<polygon class="grpE (MMFACILD_04181)
Protein GrpE" points="146,40 164,10 164,70" fill="rgb(255,255,255)" fill-opacity="1.0" stroke="rgb(0,0,0)" stroke-width="2"  />
			<g>
				<title>GrpE (PF01025)
"GrpE"</title>
				<polygon class="PF01025" points="150,40 157,28 163,28 163,52 157,52" stroke-linejoin="round" width="17" height="24" fill="rgb(75,190,103)" stroke="rgb(60,152,82)" stroke-width="1" opacity="0.75" />
			</g>
		</g>
		<g>
			<title>hrcA (MMFACILD_04182)
Heat-inducible transcription repressor HrcA</title>
			<polygon class="hrcA (MMFACILD_04182)
Heat-inducible transcription repressor HrcA" points="200,25 195,25 195,10 165,40 195,70 195,55 200,55" fill="rgb(255,255,255)" fill-opacity="1.0" stroke="rgb(0,0,0)" stroke-width="2"  />
			<g>
				<title>HrcA (PF01628)
"HrcA protein C terminal domain"</title>
				<polygon class="PF01628" points="169,40 181,28 189,28 189,52 181,52" stroke-linejoin="round" width="22" height="24" fill="rgb(216,106,202)" stroke="rgb(172,84,161)" stroke-width="1" opacity="0.75" />
			</g>
			<g>
				<title>HrcA_DNA-bdg (PF03444)
"Winged helix-turn-helix transcription repressor, HrcA DNA-binding"</title>
				<rect class="PF03444" x="192" y="28" stroke-linejoin="round" width="7" height="24" fill="rgb(215,86,156)" stroke="rgb(172,68,124)" stroke-width="1" opacity="0.75" />
			</g>
		</g>
		<g>
			<title>rph (MMFACILD_04183)
Ribonuclease PH</title>
			<polygon class="rph (MMFACILD_04183)
Ribonuclease PH" points="204,10 227,40 204,70" fill="rgb(255,255,255)" fill-opacity="1.0" stroke="rgb(0,0,0)" stroke-width="2"  />
			<g>
				<title>RNase_PH (PF01138)
"3' exoribonuclease family, domain 1"</title>
				<polygon class="PF01138" points="205,28 214,28 218,33 218,47 214,52 205,52" stroke-linejoin="round" width="13" height="24" fill="rgb(201,109,229)" stroke="rgb(160,87,183)" stroke-width="1" opacity="0.75" />
			</g>
			<g>
				<title>RNase_PH_C (PF03725)
"3' exoribonuclease family, domain 2"</title>
				<polygon class="PF03725" points="219,34 223,40 219,46" stroke-linejoin="round" width="6" height="24" fill="rgb(81,207,213)" stroke="rgb(64,165,170)" stroke-width="1" opacity="0.75" />
			</g>
		</g>
		<g>
			<title> (MMFACILD_04184)
dITP/XTP pyrophosphatase</title>
			<polygon class=" (MMFACILD_04184)
dITP/XTP pyrophosphatase" points="227,10 247,40 227,70" fill="rgb(255,255,255)" fill-opacity="1.0" stroke="rgb(0,0,0)" stroke-width="2"  />
			<g>
				<title>Ham1p_like (PF01725)
"Ham1 family"</title>
				<polygon class="PF01725" points="227,28 235,28 243,40 235,52 227,52" stroke-linejoin="round" width="18" height="24" fill="rgb(76,199,61)" stroke="rgb(60,159,48)" stroke-width="1" opacity="0.75" />
			</g>
		</g>
		<g>
			<title>hemW (MMFACILD_04185)
Heme chaperone HemW</title>
			<polygon class="hemW (MMFACILD_04185)
Heme chaperone HemW" points="247,25 255,25 255,10 285,40 255,70 255,55 247,55" fill="rgb(255,255,255)" fill-opacity="1.0" stroke="rgb(0,0,0)" stroke-width="2"  />
			<g>
				<title>Radical_SAM (PF04055)
"Radical SAM superfamily"</title>
				<rect class="PF04055" x="248" y="28" stroke-linejoin="round" width="17" height="24" fill="rgb(149,56,222)" stroke="rgb(119,44,177)" stroke-width="1" opacity="0.75" />
			</g>
			<g>
				<title>HemN_C (PF06969)
"HemN C-terminal domain"</title>
				<polygon class="PF06969" points="278,37 281,40 278,43" stroke-linejoin="round" width="6" height="24" fill="rgb(84,206,223)" stroke="rgb(67,164,178)" stroke-width="1" opacity="0.75" />
			</g>
		</g>
		<g>
			<title>parB (MMFACILD_04186)
Chromosome-partitioning protein ParB</title>
			<polygon class="parB (MMFACILD_04186)
Chromosome-partitioning protein ParB" points="316,25 316,25 316,10 286,40 316,70 316,55 316,55" fill="rgb(255,255,255)" fill-opacity="1.0" stroke="rgb(0,0,0)" stroke-width="2"  />
			<g>
				<title>HTH_ParB (PF17762)
"HTH domain found in ParB protein"</title>
				<polygon class="PF17762" points="292,38 296,34 296,46 292,42" stroke-linejoin="round" width="4" height="24" fill="rgb(190,83,224)" stroke="rgb(151,66,179)" stroke-width="1" opacity="0.75" />
			</g>
			<g>
				<title>ParBc (PF02195)
"ParB/Sulfiredoxin domain"</title>
				<polygon class="PF02195" points="302,28 302,28 311,28 311,52 302,52 302,52" stroke-linejoin="round" width="9" height="24" fill="rgb(55,214,209)" stroke="rgb(44,171,167)" stroke-width="1" opacity="0.75" />
			</g>
		</g>
		<g>
			<title>parA (MMFACILD_04187)
Chromosome partitioning protein ParA</title>
			<polygon class="parA (MMFACILD_04187)
Chromosome partitioning protein ParA" points="316,40 342,10 342,70" fill="rgb(255,255,255)" fill-opacity="1.0" stroke="rgb(0,0,0)" stroke-width="2"  />
			<g>
				<title>AAA_31 (PF13614)
"AAA domain"</title>
				<polygon class="PF13614" points="324,35 331,28 341,28 341,52 331,52 324,45" stroke-linejoin="round" width="17" height="24" fill="rgb(144,187,62)" stroke="rgb(115,149,49)" stroke-width="1" opacity="0.75" />
			</g>
		</g>
		<g>
			<title>rsmG (MMFACILD_04188)
Ribosomal RNA small subunit methyltransferase G</title>
			<polygon class="rsmG (MMFACILD_04188)
Ribosomal RNA small subunit methyltransferase G" points="342,40 363,10 363,70" fill="rgb(255,255,255)" fill-opacity="1.0" stroke="rgb(0,0,0)" stroke-width="2"  />
			<g>
				<title>GidB (PF02527)
"rRNA small subunit methyltransferase G"</title>
				<polygon class="PF02527" points="346,40 355,28 361,28 361,52 355,52" stroke-linejoin="round" width="17" height="24" fill="rgb(63,147,188)" stroke="rgb(50,117,150)" stroke-width="1" opacity="0.75" />
			</g>
		</g>
		<g>
			<title>mnmG (MMFACILD_04189)
tRNA uridine 5-carboxymethylaminomethyl modification enzyme MnmG</title>
			<polygon class="mnmG (MMFACILD_04189)
tRNA uridine 5-carboxymethylaminomethyl modification enzyme MnmG" points="425,25 393,25 393,10 363,40 393,70 393,55 425,55" fill="rgb(255,255,255)" fill-opacity="1.0" stroke="rgb(0,0,0)" stroke-width="2"  />
			<g>
				<title>GIDA_C (PF13932)
"tRNA modifying enzyme MnmG/GidA C-terminal domain"</title>
				<polygon class="PF13932" points="367,40 379,28 385,28 385,52 379,52" stroke-linejoin="round" width="21" height="24" fill="rgb(222,101,109)" stroke="rgb(177,80,87)" stroke-width="1" opacity="0.75" />
			</g>
			<g>
				<title>GIDA (PF01134)
"Glucose inhibited division protein A"</title>
				<rect class="PF01134" x="385" y="28" stroke-linejoin="round" width="39" height="24" fill="rgb(180,78,98)" stroke="rgb(144,62,78)" stroke-width="1" opacity="0.75" />
			</g>
		</g>
		<g>
			<title>mnmE (MMFACILD_04190)
tRNA modification GTPase MnmE</title>
			<polygon class="mnmE (MMFACILD_04190)
tRNA modification GTPase MnmE" points="468,25 456,25 456,10 426,40 456,70 456,55 468,55" fill="rgb(255,255,255)" fill-opacity="1.0" stroke="rgb(0,0,0)" stroke-width="2"  />
			<g>
				<title>MnmE_helical (PF12631)
"MnmE helical domain"</title>
				<polygon class="PF12631" points="430,40 442,28 456,28 456,52 442,52" stroke-linejoin="round" width="30" height="24" fill="rgb(93,158,187)" stroke="rgb(74,126,149)" stroke-width="1" opacity="0.75" />
			</g>
			<g>
				<title>TrmE_N (PF10396)
"GTP-binding protein TrmE N-terminus"</title>
				<rect class="PF10396" x="456" y="28" stroke-linejoin="round" width="11" height="24" fill="rgb(182,181,72)" stroke="rgb(145,144,57)" stroke-width="1" opacity="0.75" />
			</g>
		</g>
		<g>
			<title>rho (MMFACILD_04191)
Transcription termination factor Rho</title>
			<polygon class="rho (MMFACILD_04191)
Transcription termination factor Rho" points="511,25 499,25 499,10 469,40 499,70 499,55 511,55" fill="rgb(255,255,255)" fill-opacity="1.0" stroke="rgb(0,0,0)" stroke-width="2"  />
			<g>
				<title>ATP-synt_ab (PF00006)
"ATP synthase alpha/beta family, nucleotide-binding domain"</title>
				<polygon class="PF00006" points="474,39 485,28 494,28 494,52 485,52 474,41" stroke-linejoin="round" width="20" height="24" fill="rgb(187,135,93)" stroke="rgb(149,108,74)" stroke-width="1" opacity="0.75" />
			</g>
			<g>
				<title>Rho_RNA_bind (PF07497)
"Rho termination factor, RNA-binding domain"</title>
				<rect class="PF07497" x="498" y="28" stroke-linejoin="round" width="7" height="24" fill="rgb(72,224,90)" stroke="rgb(57,179,72)" stroke-width="1" opacity="0.75" />
			</g>
			<g>
				<title>Rho_N (PF07498)
"Rho termination factor, N-terminal domain"</title>
				<rect class="PF07498" x="506" y="28" stroke-linejoin="round" width="4" height="24" fill="rgb(124,198,58)" stroke="rgb(99,158,46)" stroke-width="1" opacity="0.75" />
			</g>
		</g>
		<g>
			<title>yceF (MMFACILD_04192)
7-methyl-GTP pyrophosphatase</title>
			<polygon class="yceF (MMFACILD_04192)
7-methyl-GTP pyrophosphatase" points="528,10 547,40 528,70" fill="rgb(255,255,255)" fill-opacity="1.0" stroke="rgb(0,0,0)" stroke-width="2"  />
			<g>
				<title>Maf (PF02545)
"Maf-like protein"</title>
				<polygon class="PF02545" points="528,28 536,28 544,40 536,52 528,52" stroke-linejoin="round" width="19" height="24" fill="rgb(116,184,91)" stroke="rgb(92,147,72)" stroke-width="1" opacity="0.75" />
			</g>
		</g>
		<g>
			<title>aroE_3 (MMFACILD_04193)
Shikimate dehydrogenase (NADP(+))</title>
			<polygon class="aroE_3 (MMFACILD_04193)
Shikimate dehydrogenase (NADP(+))" points="548,10 575,40 548,70" fill="rgb(255,255,255)" fill-opacity="1.0" stroke="rgb(0,0,0)" stroke-width="2"  />
			<g>
				<title>Shikimate_dh_N (PF08501)
"Shikimate dehydrogenase substrate binding domain"</title>
				<rect class="PF08501" x="549" y="28" stroke-linejoin="round" width="8" height="24" fill="rgb(145,207,53)" stroke="rgb(116,165,42)" stroke-width="1" opacity="0.75" />
			</g>
			<g>
				<title>Shikimate_DH (PF01488)
"Shikimate / quinate 5-dehydrogenase"</title>
				<polygon class="PF01488" points="559,28 559,28 567,36 567,44 559,52 559,52" stroke-linejoin="round" width="8" height="24" fill="rgb(94,182,59)" stroke="rgb(75,145,47)" stroke-width="1" opacity="0.75" />
			</g>
			<g>
				<title>SDH_C (PF18317)
"Shikimate 5'-dehydrogenase C-terminal domain"</title>
				<polygon class="PF18317" points="572,40 571,40 572,40" stroke-linejoin="round" width="3" height="24" fill="rgb(56,215,75)" stroke="rgb(44,172,60)" stroke-width="1" opacity="0.75" />
			</g>
		</g>
		<g>
			<title>coaE (MMFACILD_04194)
Dephospho-CoA kinase</title>
			<polygon class="coaE (MMFACILD_04194)
Dephospho-CoA kinase" points="575,10 594,40 575,70" fill="rgb(255,255,255)" fill-opacity="1.0" stroke="rgb(0,0,0)" stroke-width="2"  />
			<g>
				<title>CoaE (PF01121)
"Dephospho-CoA kinase"</title>
				<polygon class="PF01121" points="575,28 583,28 591,40 583,52 575,52" stroke-linejoin="round" width="17" height="24" fill="rgb(197,177,81)" stroke="rgb(157,141,64)" stroke-width="1" opacity="0.75" />
			</g>
		</g>
		<g>
			<title>dnaQ (MMFACILD_04195)
DNA polymerase III subunit epsilon</title>
			<polygon class="dnaQ (MMFACILD_04195)
DNA polymerase III subunit epsilon" points="595,10 618,40 595,70" fill="rgb(255,255,255)" fill-opacity="1.0" stroke="rgb(0,0,0)" stroke-width="2"  />
			<g>
				<title>RNase_T (PF00929)
"Exonuclease"</title>
				<polygon class="PF00929" points="595,28 605,28 610,35 610,45 605,52 595,52" stroke-linejoin="round" width="15" height="24" fill="rgb(201,87,120)" stroke="rgb(160,69,96)" stroke-width="1" opacity="0.75" />
			</g>
		</g>
		<g>
			<title>baiN (MMFACILD_04196)
3-dehydro-bile acid delta(4,6)-reductase</title>
			<polygon class="baiN (MMFACILD_04196)
3-dehydro-bile acid delta(4,6)-reductase" points="618,25 626,25 626,10 656,40 626,70 626,55 618,55" fill="rgb(255,255,255)" fill-opacity="1.0" stroke="rgb(0,0,0)" stroke-width="2"  />
			<g>
				<title>HI0933_like (PF03486)
"HI0933-like protein"</title>
				<polygon class="PF03486" points="618,28 640,28 652,40 640,52 618,52" stroke-linejoin="round" width="37" height="24" fill="rgb(168,217,93)" stroke="rgb(134,173,74)" stroke-width="1" opacity="0.75" />
			</g>
		</g>
		<g>
			<title>npt (MMFACILD_04197)
4'-phosphopantetheinyl transferase Npt</title>
			<polygon class="npt (MMFACILD_04197)
4'-phosphopantetheinyl transferase Npt" points="656,40 676,10 676,70" fill="rgb(255,255,255)" fill-opacity="1.0" stroke="rgb(0,0,0)" stroke-width="2"  />
			<g>
				<title>ACPS (PF01648)
"4'-phosphopantetheinyl transferase superfamily"</title>
				<polygon class="PF01648" points="660,40 665,33 665,47" stroke-linejoin="round" width="8" height="24" fill="rgb(85,184,135)" stroke="rgb(68,147,108)" stroke-width="1" opacity="0.75" />
			</g>
			<g>
				<title>4PPT_N (PF17837)
"4'-phosphopantetheinyl transferase N-terminal domain"</title>
				<polygon class="PF17837" points="666,31 668,28 672,28 672,52 668,52 666,49" stroke-linejoin="round" width="6" height="24" fill="rgb(198,68,92)" stroke="rgb(158,54,73)" stroke-width="1" opacity="0.75" />
			</g>
		</g>
		<g>
			<title>dltA (MMFACILD_04198)
D-alanine--D-alanyl carrier protein ligase</title>
			<polygon class="dltA (MMFACILD_04198)
D-alanine--D-alanyl carrier protein ligase" points="827,25 706,25 706,10 676,40 706,70 706,55 827,55" fill="rgb(255,255,255)" fill-opacity="1.0" stroke="rgb(0,0,0)" stroke-width="2"  />
			<g>
				<title>PP-binding (PF00550)
"Phosphopantetheine attachment site"</title>
				<polygon class="PF00550" points="681,39 687,33 687,47 681,41" stroke-linejoin="round" width="6" height="24" fill="rgb(103,191,88)" stroke="rgb(82,152,70)" stroke-width="1" opacity="0.75" />
			</g>
			<g>
				<title>AMP-binding_C (PF13193)
"AMP-binding enzyme C-terminal domain"</title>
				<polygon class="PF13193" points="690,30 692,28 697,28 697,52 692,52 690,50" stroke-linejoin="round" width="7" height="24" fill="rgb(182,50,118)" stroke="rgb(145,39,94)" stroke-width="1" opacity="0.75" />
			</g>
			<g>
				<title>AMP-binding (PF00501)
"AMP-binding enzyme"</title>
				<rect class="PF00501" x="698" y="28" stroke-linejoin="round" width="18" height="24" fill="rgb(60,217,223)" stroke="rgb(48,173,178)" stroke-width="1" opacity="0.75" />
			</g>
			<g>
				<title>Bac_luciferase (PF00296)
"Luciferase-like monooxygenase"</title>
				<rect class="PF00296" x="720" y="28" stroke-linejoin="round" width="32" height="24" fill="rgb(180,112,78)" stroke="rgb(144,89,62)" stroke-width="1" opacity="0.75" />
			</g>
			<g>
				<title>AMP-binding (PF00501)
"AMP-binding enzyme"</title>
				<rect class="PF00501" x="753" y="28" stroke-linejoin="round" width="22" height="24" fill="rgb(60,217,223)" stroke="rgb(48,173,178)" stroke-width="1" opacity="0.75" />
			</g>
			<g>
				<title>Formyl_trans_N (PF00551)
"Formyl transferase"</title>
				<rect class="PF00551" x="810" y="28" stroke-linejoin="round" width="10" height="24" fill="rgb(111,183,66)" stroke="rgb(88,146,52)" stroke-width="1" opacity="0.75" />
			</g>
		</g>
		<g>
			<title> (MMFACILD_04199)
hypothetical protein</title>
			<polygon class=" (MMFACILD_04199)
hypothetical protein" points="859,25 858,25 858,10 828,40 858,70 858,55 859,55" fill="rgb(255,255,255)" fill-opacity="1.0" stroke="rgb(0,0,0)" stroke-width="2"  />
			<g>
				<title>Glyco_tranf_2_3 (PF13641)
"Glycosyltransferase like family 2"</title>
				<polygon class="PF13641" points="834,38 844,28 859,28 859,52 844,52 834,42" stroke-linejoin="round" width="25" height="24" fill="rgb(140,74,190)" stroke="rgb(111,59,152)" stroke-width="1" opacity="0.75" />
			</g>
		</g>
		<g>
			<title> (MMFACILD_04200)
hypothetical protein</title>
			<polygon class=" (MMFACILD_04200)
hypothetical protein" points="1069,25 889,25 889,10 859,40 889,70 889,55 1069,55" fill="rgb(255,255,255)" fill-opacity="1.0" stroke="rgb(0,0,0)" stroke-width="2"  />
			<g>
				<title>Thioesterase (PF00975)
"Thioesterase domain"</title>
				<polygon class="PF00975" points="863,40 875,28 884,28 884,52 875,52" stroke-linejoin="round" width="24" height="24" fill="rgb(207,80,138)" stroke="rgb(165,63,110)" stroke-width="1" opacity="0.75" />
			</g>
			<g>
				<title>PP-binding (PF00550)
"Phosphopantetheine attachment site"</title>
				<rect class="PF00550" x="888" y="28" stroke-linejoin="round" width="6" height="24" fill="rgb(103,191,88)" stroke="rgb(82,152,70)" stroke-width="1" opacity="0.75" />
			</g>
			<g>
				<title>PS-DH (PF14765)
"Polyketide synthase dehydratase"</title>
				<rect class="PF14765" x="905" y="28" stroke-linejoin="round" width="27" height="24" fill="rgb(173,56,182)" stroke="rgb(138,44,145)" stroke-width="1" opacity="0.75" />
			</g>
			<g>
				<title>KR (PF08659)
"KR domain"</title>
				<rect class="PF08659" x="935" y="28" stroke-linejoin="round" width="19" height="24" fill="rgb(66,209,188)" stroke="rgb(52,167,150)" stroke-width="1" opacity="0.75" />
			</g>
			<g>
				<title>Acyl_transf_1 (PF00698)
"Acyl transferase domain"</title>
				<rect class="PF00698" x="988" y="28" stroke-linejoin="round" width="28" height="24" fill="rgb(59,176,209)" stroke="rgb(47,140,167)" stroke-width="1" opacity="0.75" />
			</g>
			<g>
				<title>KAsynt_C_assoc (PF16197)
"Ketoacyl-synthetase C-terminal extension"</title>
				<rect class="PF16197" x="1019" y="28" stroke-linejoin="round" width="11" height="24" fill="rgb(240,150,172)" stroke="rgb(192,120,137)" stroke-width="1" opacity="0.75" />
			</g>
			<g>
				<title>Ketoacyl-synt_C (PF02801)
"Beta-ketoacyl synthase, C-terminal domain"</title>
				<rect class="PF02801" x="1031" y="28" stroke-linejoin="round" width="11" height="24" fill="rgb(215,78,102)" stroke="rgb(172,62,81)" stroke-width="1" opacity="0.75" />
			</g>
			<g>
				<title>ketoacyl-synt (PF00109)
"Beta-ketoacyl synthase, N-terminal domain"</title>
				<rect class="PF00109" x="1043" y="28" stroke-linejoin="round" width="25" height="24" fill="rgb(112,116,228)" stroke="rgb(89,92,182)" stroke-width="1" opacity="0.75" />
			</g>
		</g>
		<g>
			<title> (MMFACILD_04201)
hypothetical protein</title>
			<polygon class=" (MMFACILD_04201)
hypothetical protein" points="1123,25 1103,25 1103,10 1073,40 1103,70 1103,55 1123,55" fill="rgb(255,255,255)" fill-opacity="1.0" stroke="rgb(0,0,0)" stroke-width="2"  />
			<g>
				<title>Wzy_C (PF04932)
"O-Antigen ligase"</title>
				<polygon class="PF04932" points="1082,35 1089,28 1097,28 1097,52 1089,52 1082,45" stroke-linejoin="round" width="15" height="24" fill="rgb(106,219,107)" stroke="rgb(84,175,85)" stroke-width="1" opacity="0.75" />
			</g>
		</g>
		<g>
			<title> (MMFACILD_04202)
N-acetylglucosaminyldiphosphoundecaprenol N-acetyl-beta-D-mannosaminyltransferase</title>
			<polygon class=" (MMFACILD_04202)
N-acetylglucosaminyldiphosphoundecaprenol N-acetyl-beta-D-mannosaminyltransferase" points="1129,10 1154,40 1129,70" fill="rgb(255,255,255)" fill-opacity="1.0" stroke="rgb(0,0,0)" stroke-width="2"  />
			<g>
				<title>Glyco_tran_WecG (PF03808)
"Glycosyl transferase WecG/TagA/CpsF family"</title>
				<polygon class="PF03808" points="1135,28 1141,28 1150,40 1141,52 1135,52" stroke-linejoin="round" width="17" height="24" fill="rgb(83,144,229)" stroke="rgb(66,115,183)" stroke-width="1" opacity="0.75" />
			</g>
		</g>
		<g>
			<title>flhA_2 (MMFACILD_04203)
S-(hydroxymethyl)glutathione dehydrogenase</title>
			<polygon class="flhA_2 (MMFACILD_04203)
S-(hydroxymethyl)glutathione dehydrogenase" points="1158,25 1165,25 1165,10 1195,40 1165,70 1165,55 1158,55" fill="rgb(255,255,255)" fill-opacity="1.0" stroke="rgb(0,0,0)" stroke-width="2"  />
			<g>
				<title>ADH_N (PF08240)
"Alcohol dehydrogenase GroES-like domain"</title>
				<rect class="PF08240" x="1160" y="28" stroke-linejoin="round" width="12" height="24" fill="rgb(211,65,138)" stroke="rgb(168,51,110)" stroke-width="1" opacity="0.75" />
			</g>
			<g>
				<title>ADH_zinc_N (PF00107)
"Zinc-binding dehydrogenase"</title>
				<polygon class="PF00107" points="1177,28 1178,28 1190,40 1190,40 1178,52 1177,52" stroke-linejoin="round" width="13" height="24" fill="rgb(81,108,215)" stroke="rgb(64,86,172)" stroke-width="1" opacity="0.75" />
			</g>
		</g>
		<g>
			<title> (MMFACILD_04204)
S-formylglutathione hydrolase</title>
			<polygon class=" (MMFACILD_04204)
S-formylglutathione hydrolase" points="1194,10 1221,40 1194,70" fill="rgb(255,255,255)" fill-opacity="1.0" stroke="rgb(0,0,0)" stroke-width="2"  />
			<g>
				<title>Esterase (PF00756)
"Putative esterase"</title>
				<polygon class="PF00756" points="1196,28 1206,28 1217,40 1206,52 1196,52" stroke-linejoin="round" width="25" height="24" fill="rgb(217,132,77)" stroke="rgb(173,105,61)" stroke-width="1" opacity="0.75" />
			</g>
		</g>
		<g>
			<title> (MMFACILD_04205)
hypothetical protein</title>
			<polygon class=" (MMFACILD_04205)
hypothetical protein" points="1259,25 1257,25 1257,10 1227,40 1257,70 1257,55 1259,55" fill="rgb(255,255,255)" fill-opacity="1.0" stroke="rgb(0,0,0)" stroke-width="2"  />
			<g>
				<title>Glycos_transf_2 (PF00535)
"Glycosyl transferase family 2"</title>
				<polygon class="PF00535" points="1242,29 1243,28 1257,28 1257,52 1243,52 1242,51" stroke-linejoin="round" width="15" height="24" fill="rgb(224,122,96)" stroke="rgb(179,97,76)" stroke-width="1" opacity="0.75" />
			</g>
		</g>
		<g>
			<title>fadA_6 (MMFACILD_04206)
3-ketoacyl-CoA thiolase</title>
			<polygon class="fadA_6 (MMFACILD_04206)
3-ketoacyl-CoA thiolase" points="1263,25 1272,25 1272,10 1302,40 1272,70 1272,55 1263,55" fill="rgb(255,255,255)" fill-opacity="1.0" stroke="rgb(0,0,0)" stroke-width="2"  />
			<g>
				<title>Thiolase_N (PF00108)
"Thiolase, N-terminal domain"</title>
				<rect class="PF00108" x="1263" y="28" stroke-linejoin="round" width="18" height="24" fill="rgb(82,90,195)" stroke="rgb(65,72,156)" stroke-width="1" opacity="0.75" />
			</g>
			<g>
				<title>Thiolase_C (PF02803)
"Thiolase, C-terminal domain"</title>
				<polygon class="PF02803" points="1287,30 1297,40 1287,50" stroke-linejoin="round" width="14" height="24" fill="rgb(218,187,56)" stroke="rgb(174,149,44)" stroke-width="1" opacity="0.75" />
			</g>
		</g>
		<g>
			<title> (MMFACILD_04207)
Long-chain-fatty-acid--CoA ligase FadD13</title>
			<polygon class=" (MMFACILD_04207)
Long-chain-fatty-acid--CoA ligase FadD13" points="1302,25 1325,25 1325,10 1355,40 1325,70 1325,55 1302,55" fill="rgb(255,255,255)" fill-opacity="1.0" stroke="rgb(0,0,0)" stroke-width="2"  />
			<g>
				<title>AMP-binding (PF00501)
"AMP-binding enzyme"</title>
				<polygon class="PF00501" points="1304,28 1339,28 1344,33 1344,47 1339,52 1304,52" stroke-linejoin="round" width="40" height="24" fill="rgb(60,217,223)" stroke="rgb(48,173,178)" stroke-width="1" opacity="0.75" />
			</g>
			<g>
				<title>AMP-binding_C (PF13193)
"AMP-binding enzyme C-terminal domain"</title>
				<polygon class="PF13193" points="1346,35 1351,40 1346,45" stroke-linejoin="round" width="7" height="24" fill="rgb(182,50,118)" stroke="rgb(145,39,94)" stroke-width="1" opacity="0.75" />
			</g>
		</g>
		<g>
			<title> (MMFACILD_04208)
hypothetical protein</title>
			<polygon class=" (MMFACILD_04208)
hypothetical protein" points="1355,10 1382,40 1355,70" fill="rgb(255,255,255)" fill-opacity="1.0" stroke="rgb(0,0,0)" stroke-width="2"  />
		</g>
		<g>
			<title>idi (MMFACILD_04209)
Isopentenyl-diphosphate Delta-isomerase</title>
			<polygon class="idi (MMFACILD_04209)
Isopentenyl-diphosphate Delta-isomerase" points="1388,40 1405,10 1405,70" fill="rgb(255,255,255)" fill-opacity="1.0" stroke="rgb(0,0,0)" stroke-width="2"  />
			<g>
				<title>NUDIX (PF00293)
"NUDIX domain"</title>
				<polygon class="PF00293" points="1391,40 1398,28 1402,28 1402,52 1398,52" stroke-linejoin="round" width="13" height="24" fill="rgb(92,56,187)" stroke="rgb(73,44,149)" stroke-width="1" opacity="0.75" />
			</g>
		</g>
		<g>
			<title> (MMFACILD_04210)
hypothetical protein</title>
			<polygon class=" (MMFACILD_04210)
hypothetical protein" points="1450,25 1437,25 1437,10 1407,40 1437,70 1437,55 1450,55" fill="rgb(255,255,255)" fill-opacity="1.0" stroke="rgb(0,0,0)" stroke-width="2"  />
			<g>
				<title>Wzz (PF02706)
"Chain length determinant protein"</title>
				<rect class="PF02706" x="1441" y="28" stroke-linejoin="round" width="9" height="24" fill="rgb(184,132,90)" stroke="rgb(147,105,72)" stroke-width="1" opacity="0.75" />
			</g>
		</g>
		<g>
			<title> (MMFACILD_04211)
hypothetical protein</title>
			<polygon class=" (MMFACILD_04211)
hypothetical protein" points="1451,40 1480,10 1480,70" fill="rgb(255,255,255)" fill-opacity="1.0" stroke="rgb(0,0,0)" stroke-width="2"  />
			<g>
				<title>ParA (PF10609)
"NUBPL iron-transfer P-loop NTPase"</title>
				<polygon class="PF10609" points="1455,40 1467,28 1469,28 1469,52 1467,52" stroke-linejoin="round" width="18" height="24" fill="rgb(107,194,90)" stroke="rgb(85,155,72)" stroke-width="1" opacity="0.75" />
			</g>
		</g>
		<g>
			<title> (MMFACILD_04212)
hypothetical protein</title>
			<polygon class=" (MMFACILD_04212)
hypothetical protein" points="1530,25 1515,25 1515,10 1485,40 1515,70 1515,55 1530,55" fill="rgb(255,255,255)" fill-opacity="1.0" stroke="rgb(0,0,0)" stroke-width="2"  />
			<g>
				<title>Polysacc_synt_3 (PF13440)
"Polysaccharide biosynthesis protein"</title>
				<polygon class="PF13440" points="1496,33 1501,28 1525,28 1525,52 1501,52 1496,47" stroke-linejoin="round" width="29" height="24" fill="rgb(90,196,165)" stroke="rgb(72,156,132)" stroke-width="1" opacity="0.75" />
			</g>
		</g>
		<g>
			<title>mshA_3 (MMFACILD_04213)
D-inositol-3-phosphate glycosyltransferase</title>
			<polygon class="mshA_3 (MMFACILD_04213)
D-inositol-3-phosphate glycosyltransferase" points="1538,25 1548,25 1548,10 1578,40 1548,70 1548,55 1538,55" fill="rgb(255,255,255)" fill-opacity="1.0" stroke="rgb(0,0,0)" stroke-width="2"  />
			<g>
				<title>Glyco_transf_4 (PF13439)
"Glycosyltransferase Family 4"</title>
				<rect class="PF13439" x="1539" y="28" stroke-linejoin="round" width="19" height="24" fill="rgb(162,57,186)" stroke="rgb(129,45,148)" stroke-width="1" opacity="0.75" />
			</g>
			<g>
				<title>Glycos_transf_1 (PF00534)
"Glycosyl transferases group 1"</title>
				<polygon class="PF00534" points="1559,28 1562,28 1574,40 1562,52 1559,52" stroke-linejoin="round" width="16" height="24" fill="rgb(228,92,150)" stroke="rgb(182,73,119)" stroke-width="1" opacity="0.75" />
			</g>
		</g>
		<g>
			<title> (MMFACILD_04214)
hypothetical protein</title>
			<polygon class=" (MMFACILD_04214)
hypothetical protein" points="1578,40 1605,10 1605,70" fill="rgb(255,255,255)" fill-opacity="1.0" stroke="rgb(0,0,0)" stroke-width="2"  />
			<g>
				<title>Glycos_transf_2 (PF00535)
"Glycosyl transferase family 2"</title>
				<polygon class="PF00535" points="1589,32 1593,28 1604,28 1604,52 1593,52 1589,48" stroke-linejoin="round" width="15" height="24" fill="rgb(224,122,96)" stroke="rgb(179,97,76)" stroke-width="1" opacity="0.75" />
			</g>
		</g>
		<g>
			<title> (MMFACILD_04215)
hypothetical protein</title>
			<polygon class=" (MMFACILD_04215)
hypothetical protein" points="1661,25 1635,25 1635,10 1605,40 1635,70 1635,55 1661,55" fill="rgb(255,255,255)" fill-opacity="1.0" stroke="rgb(0,0,0)" stroke-width="2"  />
		</g>
		<g>
			<title> (MMFACILD_04216)
hypothetical protein</title>
			<polygon class=" (MMFACILD_04216)
hypothetical protein" points="1666,25 1675,25 1675,10 1705,40 1675,70 1675,55 1666,55" fill="rgb(255,255,255)" fill-opacity="1.0" stroke="rgb(0,0,0)" stroke-width="2"  />
			<g>
				<title>Glyco_trans_1_4 (PF13692)
"Glycosyl transferases group 1"</title>
				<polygon class="PF13692" points="1686,28 1688,28 1700,40 1700,40 1688,52 1686,52" stroke-linejoin="round" width="14" height="24" fill="rgb(85,182,142)" stroke="rgb(68,145,113)" stroke-width="1" opacity="0.75" />
			</g>
		</g>
		<g>
			<title>cbbZP (MMFACILD_04217)
Phosphoglycolate phosphatase, plasmid</title>
			<polygon class="cbbZP (MMFACILD_04217)
Phosphoglycolate phosphatase, plasmid" points="1706,40 1727,10 1727,70" fill="rgb(255,255,255)" fill-opacity="1.0" stroke="rgb(0,0,0)" stroke-width="2"  />
			<g>
				<title>HAD_2 (PF13419)
"Haloacid dehalogenase-like hydrolase"</title>
				<polygon class="PF13419" points="1710,40 1719,28 1727,28 1727,52 1719,52" stroke-linejoin="round" width="18" height="24" fill="rgb(60,223,188)" stroke="rgb(48,178,150)" stroke-width="1" opacity="0.75" />
			</g>
		</g>
	</g>
</svg>
