<svg version="1.1" baseProfile="full" xmlns="http://www.w3.org/2000/svg" width="454.1333333333333" height="80">
	<g>
		<line x1="10" y1="40.0" x2="444.1333333333333" y2="40.0" style="stroke:rgb(70,70,70); stroke-width:3 "/>
		<g>
			<title>menA (EOMLKCNM_03034)
1,4-dihydroxy-2-naphthoate octaprenyltransferase</title>
			<polygon class="menA (EOMLKCNM_03034)
1,4-dihydroxy-2-naphthoate octaprenyltransferase" points="11,10 39,40 11,70" fill="rgb(255,255,255)" fill-opacity="1.0" stroke="rgb(0,0,0)" stroke-width="2"  />
			<g>
				<title>UbiA (PF01040)
"UbiA prenyltransferase family"</title>
				<polygon class="PF01040" points="12,28 23,28 35,40 23,52 12,52" stroke-linejoin="round" width="25" height="24" fill="rgb(189,57,100)" stroke="rgb(151,45,80)" stroke-width="1" opacity="0.75" />
			</g>
		</g>
		<g>
			<title>pucC_3 (EOMLKCNM_03035)
Protein PucC</title>
			<polygon class="pucC_3 (EOMLKCNM_03035)
Protein PucC" points="39,25 51,25 51,10 81,40 51,70 51,55 39,55" fill="rgb(255,255,255)" fill-opacity="1.0" stroke="rgb(0,0,0)" stroke-width="2"  />
			<g>
				<title>PUCC (PF03209)
"PUCC protein"</title>
				<polygon class="PF03209" points="41,28 65,28 77,40 65,52 41,52" stroke-linejoin="round" width="38" height="24" fill="rgb(153,224,80)" stroke="rgb(122,179,64)" stroke-width="1" opacity="0.75" />
			</g>
		</g>
		<g>
			<title> (EOMLKCNM_03036)
hypothetical protein</title>
			<polygon class=" (EOMLKCNM_03036)
hypothetical protein" points="82,25 92,25 92,10 122,40 92,70 92,55 82,55" fill="rgb(255,255,255)" fill-opacity="1.0" stroke="rgb(0,0,0)" stroke-width="2"  />
			<g>
				<title>FAD_binding_3 (PF01494)
"FAD binding domain"</title>
				<rect class="PF01494" x="88" y="28" stroke-linejoin="round" width="12" height="24" fill="rgb(182,175,59)" stroke="rgb(145,140,47)" stroke-width="1" opacity="0.75" />
			</g>
		</g>
		<g>
			<title>idi (EOMLKCNM_03037)
Isopentenyl-diphosphate Delta-isomerase</title>
			<polygon class="idi (EOMLKCNM_03037)
Isopentenyl-diphosphate Delta-isomerase" points="122,10 140,40 122,70" fill="rgb(255,255,255)" fill-opacity="1.0" stroke="rgb(0,0,0)" stroke-width="2"  />
			<g>
				<title>NUDIX (PF00293)
"NUDIX domain"</title>
				<polygon class="PF00293" points="124,28 129,28 136,40 129,52 124,52" stroke-linejoin="round" width="13" height="24" fill="rgb(92,56,187)" stroke="rgb(73,44,149)" stroke-width="1" opacity="0.75" />
			</g>
		</g>
		<g>
			<title>bpoC (EOMLKCNM_03038)
Putative non-heme bromoperoxidase BpoC</title>
			<polygon class="bpoC (EOMLKCNM_03038)
Putative non-heme bromoperoxidase BpoC" points="140,40 168,10 168,70" fill="rgb(255,255,255)" fill-opacity="1.0" stroke="rgb(0,0,0)" stroke-width="2"  />
			<g>
				<title>Abhydrolase_6 (PF12697)
"Alpha/beta hydrolase family"</title>
				<polygon class="PF12697" points="144,40 155,28 165,28 165,52 155,52" stroke-linejoin="round" width="24" height="24" fill="rgb(113,71,219)" stroke="rgb(90,56,175)" stroke-width="1" opacity="0.75" />
			</g>
		</g>
		<g>
			<title>bchD (EOMLKCNM_03039)
Magnesium-chelatase 60 kDa subunit</title>
			<polygon class="bchD (EOMLKCNM_03039)
Magnesium-chelatase 60 kDa subunit" points="223,25 198,25 198,10 168,40 198,70 198,55 223,55" fill="rgb(255,255,255)" fill-opacity="1.0" stroke="rgb(0,0,0)" stroke-width="2"  />
			<g>
				<title>VWA_2 (PF13519)
"von Willebrand factor type A domain"</title>
				<polygon class="PF13519" points="175,37 184,28 185,28 185,52 184,52 175,43" stroke-linejoin="round" width="10" height="24" fill="rgb(58,213,93)" stroke="rgb(46,170,74)" stroke-width="1" opacity="0.75" />
			</g>
			<g>
				<title>AAA_lid_2 (PF17863)
"AAA lid domain"</title>
				<rect class="PF17863" x="198" y="28" stroke-linejoin="round" width="7" height="24" fill="rgb(58,87,190)" stroke="rgb(46,69,152)" stroke-width="1" opacity="0.75" />
			</g>
		</g>
		<g>
			<title>bchI (EOMLKCNM_03040)
Magnesium-chelatase 38 kDa subunit</title>
			<polygon class="bchI (EOMLKCNM_03040)
Magnesium-chelatase 38 kDa subunit" points="258,25 255,25 255,10 225,40 255,70 255,55 258,55" fill="rgb(255,255,255)" fill-opacity="1.0" stroke="rgb(0,0,0)" stroke-width="2"  />
			<g>
				<title>AAA_lid_2 (PF17863)
"AAA lid domain"</title>
				<polygon class="PF17863" points="229,40 232,37 232,43" stroke-linejoin="round" width="7" height="24" fill="rgb(58,87,190)" stroke="rgb(46,69,152)" stroke-width="1" opacity="0.75" />
			</g>
			<g>
				<title>Mg_chelatase (PF01078)
"Magnesium chelatase, subunit ChlI"</title>
				<polygon class="PF01078" points="239,30 241,28 247,28 247,52 241,52 239,50" stroke-linejoin="round" width="8" height="24" fill="rgb(199,220,103)" stroke="rgb(159,176,82)" stroke-width="1" opacity="0.75" />
			</g>
			<g>
				<title>Mg_chelatase (PF01078)
"Magnesium chelatase, subunit ChlI"</title>
				<rect class="PF01078" x="250" y="28" stroke-linejoin="round" width="7" height="24" fill="rgb(199,220,103)" stroke="rgb(159,176,82)" stroke-width="1" opacity="0.75" />
			</g>
		</g>
		<g>
			<title>crtA (EOMLKCNM_03041)
Spheroidene monooxygenase</title>
			<polygon class="crtA (EOMLKCNM_03041)
Spheroidene monooxygenase" points="258,40 285,10 285,70" fill="rgb(255,255,255)" fill-opacity="1.0" stroke="rgb(0,0,0)" stroke-width="2"  />
		</g>
		<g>
			<title>crtI (EOMLKCNM_03042)
Phytoene desaturase (neurosporene-forming)</title>
			<polygon class="crtI (EOMLKCNM_03042)
Phytoene desaturase (neurosporene-forming)" points="294,25 312,25 312,10 342,40 312,70 312,55 294,55" fill="rgb(255,255,255)" fill-opacity="1.0" stroke="rgb(0,0,0)" stroke-width="2"  />
			<g>
				<title>Amino_oxidase (PF01593)
"Flavin containing amine oxidoreductase"</title>
				<polygon class="PF01593" points="294,28 326,28 338,40 326,52 294,52" stroke-linejoin="round" width="45" height="24" fill="rgb(184,74,52)" stroke="rgb(147,59,41)" stroke-width="1" opacity="0.75" />
			</g>
		</g>
		<g>
			<title> (EOMLKCNM_03043)
hypothetical protein</title>
			<polygon class=" (EOMLKCNM_03043)
hypothetical protein" points="343,25 348,25 348,10 378,40 348,70 348,55 343,55" fill="rgb(255,255,255)" fill-opacity="1.0" stroke="rgb(0,0,0)" stroke-width="2"  />
			<g>
				<title>SQS_PSY (PF00494)
"Squalene/phytoene synthase"</title>
				<polygon class="PF00494" points="344,28 362,28 370,36 370,44 362,52 344,52" stroke-linejoin="round" width="26" height="24" fill="rgb(178,91,49)" stroke="rgb(142,72,39)" stroke-width="1" opacity="0.75" />
			</g>
		</g>
		<g>
			<title>tspO (EOMLKCNM_03044)
Tryptophan-rich sensory protein</title>
			<polygon class="tspO (EOMLKCNM_03044)
Tryptophan-rich sensory protein" points="379,10 394,40 379,70" fill="rgb(255,255,255)" fill-opacity="1.0" stroke="rgb(0,0,0)" stroke-width="2"  />
			<g>
				<title>TspO_MBR (PF03073)
"TspO/MBR family"</title>
				<polygon class="PF03073" points="379,28 385,28 391,40 385,52 379,52" stroke-linejoin="round" width="14" height="24" fill="rgb(191,88,103)" stroke="rgb(152,70,82)" stroke-width="1" opacity="0.75" />
			</g>
		</g>
		<g>
			<title>crtC (EOMLKCNM_03045)
Acyclic carotenoid 1,2-hydratase</title>
			<polygon class="crtC (EOMLKCNM_03045)
Acyclic carotenoid 1,2-hydratase" points="399,40 425,10 425,70" fill="rgb(255,255,255)" fill-opacity="1.0" stroke="rgb(0,0,0)" stroke-width="2"  />
		</g>
		<g>
			<title>crtD (EOMLKCNM_03046)
Hydroxyneurosporene desaturase</title>
			<polygon class="crtD (EOMLKCNM_03046)
Hydroxyneurosporene desaturase" points="426,40 443,10 443,70" fill="rgb(255,255,255)" fill-opacity="1.0" stroke="rgb(0,0,0)" stroke-width="2"  />
			<g>
				<title>Amino_oxidase (PF01593)
"Flavin containing amine oxidoreductase"</title>
				<polygon class="PF01593" points="429,40 432,35 432,45" stroke-linejoin="round" width="6" height="24" fill="rgb(184,74,52)" stroke="rgb(147,59,41)" stroke-width="1" opacity="0.75" />
			</g>
		</g>
	</g>
</svg>
