<svg version="1.1" baseProfile="full" xmlns="http://www.w3.org/2000/svg" width="1643.9666666666667" height="80">
	<g>
		<line x1="10" y1="40.0" x2="1633.9666666666667" y2="40.0" style="stroke:rgb(70,70,70); stroke-width:3 "/>
		<g>
			<title>tyrC (FDFPEOFN_00234)
Cyclohexadienyl dehydrogenase</title>
			<polygon class="tyrC (FDFPEOFN_00234)
Cyclohexadienyl dehydrogenase" points="60,25 60,25 60,10 30,40 60,70 60,55 60,55" fill="rgb(255,255,255)" fill-opacity="1.0" stroke="rgb(0,0,0)" stroke-width="2"  />
			<g>
				<title>PDH_C (PF20463)
"Prephenate dehydrogenase, dimerization domain"</title>
				<polygon class="PF20463" points="34,40 42,32 42,48" stroke-linejoin="round" width="10" height="24" fill="rgb(99,50,183)" stroke="rgb(79,39,146)" stroke-width="1" opacity="0.75" />
			</g>
			<g>
				<title>PDH_N (PF02153)
"Prephenate dehydrogenase, nucleotide-binding domain"</title>
				<polygon class="PF02153" points="43,31 46,28 58,28 58,52 46,52 43,49" stroke-linejoin="round" width="15" height="24" fill="rgb(90,185,212)" stroke="rgb(72,148,169)" stroke-width="1" opacity="0.75" />
			</g>
		</g>
		<g>
			<title>hisC_1 (FDFPEOFN_00235)
Histidinol-phosphate aminotransferase</title>
			<polygon class="hisC_1 (FDFPEOFN_00235)
Histidinol-phosphate aminotransferase" points="96,25 90,25 90,10 60,40 90,70 90,55 96,55" fill="rgb(255,255,255)" fill-opacity="1.0" stroke="rgb(0,0,0)" stroke-width="2"  />
			<g>
				<title>Aminotran_1_2 (PF00155)
"Aminotransferase class I and II"</title>
				<polygon class="PF00155" points="64,40 76,28 92,28 92,52 76,52" stroke-linejoin="round" width="32" height="24" fill="rgb(89,113,198)" stroke="rgb(71,90,158)" stroke-width="1" opacity="0.75" />
			</g>
		</g>
		<g>
			<title>cntI_1 (FDFPEOFN_00236)
Pseudopaline exporter CntI</title>
			<polygon class="cntI_1 (FDFPEOFN_00236)
Pseudopaline exporter CntI" points="132,25 130,25 130,10 100,40 130,70 130,55 132,55" fill="rgb(255,255,255)" fill-opacity="1.0" stroke="rgb(0,0,0)" stroke-width="2"  />
			<g>
				<title>EamA (PF00892)
"EamA-like transporter family"</title>
				<polygon class="PF00892" points="104,40 116,28 117,28 117,52 116,52 104,40" stroke-linejoin="round" width="13" height="24" fill="rgb(105,217,77)" stroke="rgb(84,173,61)" stroke-width="1" opacity="0.75" />
			</g>
			<g>
				<title>EamA (PF00892)
"EamA-like transporter family"</title>
				<rect class="PF00892" x="118" y="28" stroke-linejoin="round" width="13" height="24" fill="rgb(105,217,77)" stroke="rgb(84,173,61)" stroke-width="1" opacity="0.75" />
			</g>
		</g>
		<g>
			<title>ygfZ (FDFPEOFN_00237)
tRNA-modifying protein YgfZ</title>
			<polygon class="ygfZ (FDFPEOFN_00237)
tRNA-modifying protein YgfZ" points="134,40 159,10 159,70" fill="rgb(255,255,255)" fill-opacity="1.0" stroke="rgb(0,0,0)" stroke-width="2"  />
			<g>
				<title>GCV_T (PF01571)
"Aminomethyltransferase folate-binding domain"</title>
				<rect class="PF01571" x="149" y="28" stroke-linejoin="round" width="9" height="24" fill="rgb(112,228,161)" stroke="rgb(89,182,128)" stroke-width="1" opacity="0.75" />
			</g>
		</g>
		<g>
			<title> (FDFPEOFN_00238)
hypothetical protein</title>
			<polygon class=" (FDFPEOFN_00238)
hypothetical protein" points="193,25 193,25 193,10 163,40 193,70 193,55 193,55" fill="rgb(255,255,255)" fill-opacity="1.0" stroke="rgb(0,0,0)" stroke-width="2"  />
			<g>
				<title>Pirin_C (PF05726)
"Pirin C-terminal cupin domain"</title>
				<polygon class="PF05726" points="167,40 175,32 175,48" stroke-linejoin="round" width="12" height="24" fill="rgb(68,194,205)" stroke="rgb(54,155,164)" stroke-width="1" opacity="0.75" />
			</g>
			<g>
				<title>Pirin (PF02678)
"Pirin"</title>
				<rect class="PF02678" x="181" y="28" stroke-linejoin="round" width="10" height="24" fill="rgb(139,213,61)" stroke="rgb(111,170,48)" stroke-width="1" opacity="0.75" />
			</g>
		</g>
		<g>
			<title> (FDFPEOFN_00239)
hypothetical protein</title>
			<polygon class=" (FDFPEOFN_00239)
hypothetical protein" points="203,40 216,10 216,70" fill="rgb(255,255,255)" fill-opacity="1.0" stroke="rgb(0,0,0)" stroke-width="2"  />
		</g>
		<g>
			<title> (FDFPEOFN_00240)
hypothetical protein</title>
			<polygon class=" (FDFPEOFN_00240)
hypothetical protein" points="218,40 228,10 228,70" fill="rgb(255,255,255)" fill-opacity="1.0" stroke="rgb(0,0,0)" stroke-width="2"  />
		</g>
		<g>
			<title> (FDFPEOFN_00241)
hypothetical protein</title>
			<polygon class=" (FDFPEOFN_00241)
hypothetical protein" points="231,10 243,40 231,70" fill="rgb(255,255,255)" fill-opacity="1.0" stroke="rgb(0,0,0)" stroke-width="2"  />
			<g>
				<title>CaMKII_AD (PF08332)
"Calcium/calmodulin dependent protein kinase II association domain"</title>
				<polygon class="PF08332" points="231,28 235,28 240,40 235,52 231,52" stroke-linejoin="round" width="12" height="24" fill="rgb(212,215,66)" stroke="rgb(169,172,52)" stroke-width="1" opacity="0.75" />
			</g>
		</g>
		<g>
			<title>dauA_1 (FDFPEOFN_00242)
C4-dicarboxylic acid transporter DauA</title>
			<polygon class="dauA_1 (FDFPEOFN_00242)
C4-dicarboxylic acid transporter DauA" points="299,25 274,25 274,10 244,40 274,70 274,55 299,55" fill="rgb(255,255,255)" fill-opacity="1.0" stroke="rgb(0,0,0)" stroke-width="2"  />
			<g>
				<title>STAS (PF01740)
"STAS domain"</title>
				<polygon class="PF01740" points="248,40 254,34 254,46" stroke-linejoin="round" width="10" height="24" fill="rgb(219,58,116)" stroke="rgb(175,46,92)" stroke-width="1" opacity="0.75" />
			</g>
			<g>
				<title>Sulfate_transp (PF00916)
"Sulfate permease family"</title>
				<polygon class="PF00916" points="259,29 260,28 295,28 295,52 260,52 259,51" stroke-linejoin="round" width="36" height="24" fill="rgb(189,61,212)" stroke="rgb(151,48,169)" stroke-width="1" opacity="0.75" />
			</g>
		</g>
		<g>
			<title> (FDFPEOFN_00243)
hypothetical protein</title>
			<polygon class=" (FDFPEOFN_00243)
hypothetical protein" points="307,10 320,40 307,70" fill="rgb(255,255,255)" fill-opacity="1.0" stroke="rgb(0,0,0)" stroke-width="2"  />
		</g>
		<g>
			<title>pepA_1 (FDFPEOFN_00244)
cytosol aminopeptidase</title>
			<polygon class="pepA_1 (FDFPEOFN_00244)
cytosol aminopeptidase" points="323,25 339,25 339,10 369,40 339,70 339,55 323,55" fill="rgb(255,255,255)" fill-opacity="1.0" stroke="rgb(0,0,0)" stroke-width="2"  />
			<g>
				<title>Peptidase_M17 (PF00883)
"Cytosol aminopeptidase family, catalytic domain"</title>
				<polygon class="PF00883" points="338,28 353,28 365,40 353,52 338,52" stroke-linejoin="round" width="30" height="24" fill="rgb(81,178,163)" stroke="rgb(64,142,130)" stroke-width="1" opacity="0.75" />
			</g>
		</g>
		<g>
			<title> (FDFPEOFN_00245)
hypothetical protein</title>
			<polygon class=" (FDFPEOFN_00245)
hypothetical protein" points="369,10 396,40 369,70" fill="rgb(255,255,255)" fill-opacity="1.0" stroke="rgb(0,0,0)" stroke-width="2"  />
			<g>
				<title>NLPC_P60 (PF00877)
"NlpC/P60 family"</title>
				<polygon class="PF00877" points="385,32 392,40 385,48" stroke-linejoin="round" width="9" height="24" fill="rgb(187,86,137)" stroke="rgb(149,68,109)" stroke-width="1" opacity="0.75" />
			</g>
		</g>
		<g>
			<title>hrpB (FDFPEOFN_00246)
ATP-dependent RNA helicase HrpB</title>
			<polygon class="hrpB (FDFPEOFN_00246)
ATP-dependent RNA helicase HrpB" points="479,25 428,25 428,10 398,40 428,70 428,55 479,55" fill="rgb(255,255,255)" fill-opacity="1.0" stroke="rgb(0,0,0)" stroke-width="2"  />
			<g>
				<title>HrpB_C (PF08482)
"ATP-dependent helicase C-terminal"</title>
				<polygon class="PF08482" points="402,40 412,30 412,50" stroke-linejoin="round" width="13" height="24" fill="rgb(214,71,97)" stroke="rgb(171,56,77)" stroke-width="1" opacity="0.75" />
			</g>
			<g>
				<title>HA2 (PF04408)
"Helicase associated domain (HA2)"</title>
				<rect class="PF04408" x="434" y="28" stroke-linejoin="round" width="6" height="24" fill="rgb(142,68,179)" stroke="rgb(113,54,143)" stroke-width="1" opacity="0.75" />
			</g>
			<g>
				<title>Helicase_C (PF00271)
"Helicase conserved C-terminal domain"</title>
				<rect class="PF00271" x="446" y="28" stroke-linejoin="round" width="13" height="24" fill="rgb(104,224,158)" stroke="rgb(83,179,126)" stroke-width="1" opacity="0.75" />
			</g>
			<g>
				<title>DEAD (PF00270)
"DEAD/DEAH box helicase"</title>
				<rect class="PF00270" x="462" y="28" stroke-linejoin="round" width="15" height="24" fill="rgb(195,100,62)" stroke="rgb(156,80,49)" stroke-width="1" opacity="0.75" />
			</g>
		</g>
		<g>
			<title>mhpA (FDFPEOFN_00247)
3-(3-hydroxy-phenyl)propionate/3-hydroxycinnamic acid hydroxylase</title>
			<polygon class="mhpA (FDFPEOFN_00247)
3-(3-hydroxy-phenyl)propionate/3-hydroxycinnamic acid hydroxylase" points="484,25 508,25 508,10 538,40 508,70 508,55 484,55" fill="rgb(255,255,255)" fill-opacity="1.0" stroke="rgb(0,0,0)" stroke-width="2"  />
			<g>
				<title>FAD_binding_3 (PF01494)
"FAD binding domain"</title>
				<rect class="PF01494" x="486" y="28" stroke-linejoin="round" width="34" height="24" fill="rgb(182,175,59)" stroke="rgb(145,140,47)" stroke-width="1" opacity="0.75" />
			</g>
		</g>
		<g>
			<title> (FDFPEOFN_00248)
hypothetical protein</title>
			<polygon class=" (FDFPEOFN_00248)
hypothetical protein" points="538,10 544,40 538,70" fill="rgb(255,255,255)" fill-opacity="1.0" stroke="rgb(0,0,0)" stroke-width="2"  />
			<g>
				<title>DUF2783 (PF10932)
"Protein of unknown function (DUF2783)"</title>
				<polygon class="PF10932" points="538,28 538,28 541,40 538,52 538,52" stroke-linejoin="round" width="5" height="24" fill="rgb(63,76,189)" stroke="rgb(50,60,151)" stroke-width="1" opacity="0.75" />
			</g>
		</g>
		<g>
			<title> (FDFPEOFN_00249)
hypothetical protein</title>
			<polygon class=" (FDFPEOFN_00249)
hypothetical protein" points="550,10 579,40 550,70" fill="rgb(255,255,255)" fill-opacity="1.0" stroke="rgb(0,0,0)" stroke-width="2"  />
		</g>
		<g>
			<title> (FDFPEOFN_00250)
hypothetical protein</title>
			<polygon class=" (FDFPEOFN_00250)
hypothetical protein" points="580,25 595,25 595,10 625,40 595,70 595,55 580,55" fill="rgb(255,255,255)" fill-opacity="1.0" stroke="rgb(0,0,0)" stroke-width="2"  />
			<g>
				<title>Wzz (PF02706)
"Chain length determinant protein"</title>
				<rect class="PF02706" x="580" y="28" stroke-linejoin="round" width="8" height="24" fill="rgb(184,132,90)" stroke="rgb(147,105,72)" stroke-width="1" opacity="0.75" />
			</g>
		</g>
		<g>
			<title> (FDFPEOFN_00251)
hypothetical protein</title>
			<polygon class=" (FDFPEOFN_00251)
hypothetical protein" points="626,25 646,25 646,10 676,40 646,70 646,55 626,55" fill="rgb(255,255,255)" fill-opacity="1.0" stroke="rgb(0,0,0)" stroke-width="2"  />
		</g>
		<g>
			<title> (FDFPEOFN_00252)
hypothetical protein</title>
			<polygon class=" (FDFPEOFN_00252)
hypothetical protein" points="676,25 857,25 857,10 887,40 857,70 857,55 676,55" fill="rgb(255,255,255)" fill-opacity="1.0" stroke="rgb(0,0,0)" stroke-width="2"  />
			<g>
				<title>ketoacyl-synt (PF00109)
"Beta-ketoacyl synthase, N-terminal domain"</title>
				<rect class="PF00109" x="676" y="28" stroke-linejoin="round" width="25" height="24" fill="rgb(112,116,228)" stroke="rgb(89,92,182)" stroke-width="1" opacity="0.75" />
			</g>
			<g>
				<title>Ketoacyl-synt_C (PF02801)
"Beta-ketoacyl synthase, C-terminal domain"</title>
				<rect class="PF02801" x="702" y="28" stroke-linejoin="round" width="11" height="24" fill="rgb(215,78,102)" stroke="rgb(172,62,81)" stroke-width="1" opacity="0.75" />
			</g>
			<g>
				<title>KAsynt_C_assoc (PF16197)
"Ketoacyl-synthetase C-terminal extension"</title>
				<rect class="PF16197" x="714" y="28" stroke-linejoin="round" width="11" height="24" fill="rgb(240,150,172)" stroke="rgb(192,120,137)" stroke-width="1" opacity="0.75" />
			</g>
			<g>
				<title>Acyl_transf_1 (PF00698)
"Acyl transferase domain"</title>
				<rect class="PF00698" x="729" y="28" stroke-linejoin="round" width="28" height="24" fill="rgb(59,176,209)" stroke="rgb(47,140,167)" stroke-width="1" opacity="0.75" />
			</g>
			<g>
				<title>KR (PF08659)
"KR domain"</title>
				<rect class="PF08659" x="790" y="28" stroke-linejoin="round" width="19" height="24" fill="rgb(66,209,188)" stroke="rgb(52,167,150)" stroke-width="1" opacity="0.75" />
			</g>
			<g>
				<title>PS-DH (PF14765)
"Polyketide synthase dehydratase"</title>
				<rect class="PF14765" x="813" y="28" stroke-linejoin="round" width="27" height="24" fill="rgb(173,56,182)" stroke="rgb(138,44,145)" stroke-width="1" opacity="0.75" />
			</g>
			<g>
				<title>PP-binding (PF00550)
"Phosphopantetheine attachment site"</title>
				<rect class="PF00550" x="850" y="28" stroke-linejoin="round" width="6" height="24" fill="rgb(103,191,88)" stroke="rgb(82,152,70)" stroke-width="1" opacity="0.75" />
			</g>
			<g>
				<title>Thioesterase (PF00975)
"Thioesterase domain"</title>
				<polygon class="PF00975" points="861,28 871,28 874,31 874,49 871,52 861,52" stroke-linejoin="round" width="13" height="24" fill="rgb(207,80,138)" stroke="rgb(165,63,110)" stroke-width="1" opacity="0.75" />
			</g>
		</g>
		<g>
			<title> (FDFPEOFN_00253)
hypothetical protein</title>
			<polygon class=" (FDFPEOFN_00253)
hypothetical protein" points="887,25 887,25 887,10 917,40 887,70 887,55 887,55" fill="rgb(255,255,255)" fill-opacity="1.0" stroke="rgb(0,0,0)" stroke-width="2"  />
			<g>
				<title>DUF4357 (PF14267)
"Domain of unknown function (DUF4357)"</title>
				<polygon class="PF14267" points="910,37 913,40 910,43" stroke-linejoin="round" width="5" height="24" fill="rgb(93,214,126)" stroke="rgb(74,171,100)" stroke-width="1" opacity="0.75" />
			</g>
		</g>
		<g>
			<title> (FDFPEOFN_00254)
hypothetical protein</title>
			<polygon class=" (FDFPEOFN_00254)
hypothetical protein" points="918,25 920,25 920,10 950,40 920,70 920,55 918,55" fill="rgb(255,255,255)" fill-opacity="1.0" stroke="rgb(0,0,0)" stroke-width="2"  />
			<g>
				<title>Glyco_tranf_2_3 (PF13641)
"Glycosyltransferase like family 2"</title>
				<polygon class="PF13641" points="918,28 934,28 943,37 943,43 934,52 918,52" stroke-linejoin="round" width="25" height="24" fill="rgb(140,74,190)" stroke="rgb(111,59,152)" stroke-width="1" opacity="0.75" />
			</g>
		</g>
		<g>
			<title>dltA (FDFPEOFN_00255)
D-alanine--D-alanyl carrier protein ligase</title>
			<polygon class="dltA (FDFPEOFN_00255)
D-alanine--D-alanyl carrier protein ligase" points="951,25 1072,25 1072,10 1102,40 1072,70 1072,55 951,55" fill="rgb(255,255,255)" fill-opacity="1.0" stroke="rgb(0,0,0)" stroke-width="2"  />
			<g>
				<title>Formyl_trans_N (PF00551)
"Formyl transferase"</title>
				<rect class="PF00551" x="956" y="28" stroke-linejoin="round" width="11" height="24" fill="rgb(111,183,66)" stroke="rgb(88,146,52)" stroke-width="1" opacity="0.75" />
			</g>
			<g>
				<title>Formyl_trans_C (PF02911)
"Formyl transferase, C-terminal domain"</title>
				<rect class="PF02911" x="970" y="28" stroke-linejoin="round" width="9" height="24" fill="rgb(74,115,225)" stroke="rgb(59,92,180)" stroke-width="1" opacity="0.75" />
			</g>
			<g>
				<title>AMP-binding (PF00501)
"AMP-binding enzyme"</title>
				<rect class="PF00501" x="1002" y="28" stroke-linejoin="round" width="22" height="24" fill="rgb(60,217,223)" stroke="rgb(48,173,178)" stroke-width="1" opacity="0.75" />
			</g>
			<g>
				<title>Bac_luciferase (PF00296)
"Luciferase-like monooxygenase"</title>
				<rect class="PF00296" x="1025" y="28" stroke-linejoin="round" width="32" height="24" fill="rgb(180,112,78)" stroke="rgb(144,89,62)" stroke-width="1" opacity="0.75" />
			</g>
			<g>
				<title>AMP-binding (PF00501)
"AMP-binding enzyme"</title>
				<rect class="PF00501" x="1056" y="28" stroke-linejoin="round" width="22" height="24" fill="rgb(60,217,223)" stroke="rgb(48,173,178)" stroke-width="1" opacity="0.75" />
			</g>
			<g>
				<title>AMP-binding_C (PF13193)
"AMP-binding enzyme C-terminal domain"</title>
				<polygon class="PF13193" points="1080,28 1085,28 1087,30 1087,50 1085,52 1080,52" stroke-linejoin="round" width="7" height="24" fill="rgb(182,50,118)" stroke="rgb(145,39,94)" stroke-width="1" opacity="0.75" />
			</g>
			<g>
				<title>PP-binding (PF00550)
"Phosphopantetheine attachment site"</title>
				<polygon class="PF00550" points="1090,33 1096,39 1096,41 1090,47" stroke-linejoin="round" width="6" height="24" fill="rgb(103,191,88)" stroke="rgb(82,152,70)" stroke-width="1" opacity="0.75" />
			</g>
		</g>
		<g>
			<title> (FDFPEOFN_00256)
hypothetical protein</title>
			<polygon class=" (FDFPEOFN_00256)
hypothetical protein" points="1102,10 1125,40 1102,70" fill="rgb(255,255,255)" fill-opacity="1.0" stroke="rgb(0,0,0)" stroke-width="2"  />
			<g>
				<title>4PPT_N (PF17837)
"4'-phosphopantetheinyl transferase N-terminal domain"</title>
				<rect class="PF17837" x="1105" y="28" stroke-linejoin="round" width="6" height="24" fill="rgb(198,68,92)" stroke="rgb(158,54,73)" stroke-width="1" opacity="0.75" />
			</g>
			<g>
				<title>ACPS (PF01648)
"4'-phosphopantetheinyl transferase superfamily"</title>
				<polygon class="PF01648" points="1113,29 1121,40 1113,51" stroke-linejoin="round" width="9" height="24" fill="rgb(85,184,135)" stroke="rgb(68,147,108)" stroke-width="1" opacity="0.75" />
			</g>
		</g>
		<g>
			<title> (FDFPEOFN_00257)
hypothetical protein</title>
			<polygon class=" (FDFPEOFN_00257)
hypothetical protein" points="1133,10 1143,40 1133,70" fill="rgb(255,255,255)" fill-opacity="1.0" stroke="rgb(0,0,0)" stroke-width="2"  />
		</g>
		<g>
			<title> (FDFPEOFN_00258)
hypothetical protein</title>
			<polygon class=" (FDFPEOFN_00258)
hypothetical protein" points="1194,25 1175,25 1175,10 1145,40 1175,70 1175,55 1194,55" fill="rgb(255,255,255)" fill-opacity="1.0" stroke="rgb(0,0,0)" stroke-width="2"  />
			<g>
				<title>Hydrolase_4 (PF12146)
"Serine aminopeptidase, S33"</title>
				<rect class="PF12146" x="1169" y="28" stroke-linejoin="round" width="20" height="24" fill="rgb(140,98,205)" stroke="rgb(112,78,164)" stroke-width="1" opacity="0.75" />
			</g>
		</g>
		<g>
			<title>tig (FDFPEOFN_00259)
Trigger factor</title>
			<polygon class="tig (FDFPEOFN_00259)
Trigger factor" points="1201,25 1215,25 1215,10 1245,40 1215,70 1215,55 1201,55" fill="rgb(255,255,255)" fill-opacity="1.0" stroke="rgb(0,0,0)" stroke-width="2"  />
			<g>
				<title>Trigger_N (PF05697)
"Bacterial trigger factor protein (TF)"</title>
				<rect class="PF05697" x="1201" y="28" stroke-linejoin="round" width="14" height="24" fill="rgb(181,113,81)" stroke="rgb(144,90,64)" stroke-width="1" opacity="0.75" />
			</g>
			<g>
				<title>FKBP_C (PF00254)
"FKBP-type peptidyl-prolyl cis-trans isomerase"</title>
				<rect class="PF00254" x="1216" y="28" stroke-linejoin="round" width="9" height="24" fill="rgb(137,65,200)" stroke="rgb(109,51,160)" stroke-width="1" opacity="0.75" />
			</g>
			<g>
				<title>Trigger_C (PF05698)
"Bacterial trigger factor protein (TF) C-terminus"</title>
				<polygon class="PF05698" points="1227,28 1229,28 1241,40 1229,52 1227,52" stroke-linejoin="round" width="15" height="24" fill="rgb(173,55,194)" stroke="rgb(138,44,155)" stroke-width="1" opacity="0.75" />
			</g>
		</g>
		<g>
			<title> (FDFPEOFN_00260)
hypothetical protein</title>
			<polygon class=" (FDFPEOFN_00260)
hypothetical protein" points="1281,25 1280,25 1280,10 1250,40 1280,70 1280,55 1281,55" fill="rgb(255,255,255)" fill-opacity="1.0" stroke="rgb(0,0,0)" stroke-width="2"  />
			<g>
				<title>HemolysinCabind (PF00353)
"RTX calcium-binding nonapeptide repeat (4 copies)"</title>
				<polygon class="PF00353" points="1257,37 1258,36 1258,44 1257,43" stroke-linejoin="round" width="1" height="24" fill="rgb(73,143,181)" stroke="rgb(58,114,144)" stroke-width="1" opacity="0.75" />
			</g>
			<g>
				<title>HemolysinCabind (PF00353)
"RTX calcium-binding nonapeptide repeat (4 copies)"</title>
				<polygon class="PF00353" points="1259,35 1262,32 1262,48 1259,45" stroke-linejoin="round" width="3" height="24" fill="rgb(73,143,181)" stroke="rgb(58,114,144)" stroke-width="1" opacity="0.75" />
			</g>
			<g>
				<title>HemolysinCabind (PF00353)
"RTX calcium-binding nonapeptide repeat (4 copies)"</title>
				<polygon class="PF00353" points="1262,32 1265,29 1265,51 1262,48" stroke-linejoin="round" width="3" height="24" fill="rgb(73,143,181)" stroke="rgb(58,114,144)" stroke-width="1" opacity="0.75" />
			</g>
			<g>
				<title>HemolysinCabind (PF00353)
"RTX calcium-binding nonapeptide repeat (4 copies)"</title>
				<polygon class="PF00353" points="1266,28 1266,28 1269,28 1269,52 1266,52 1266,52" stroke-linejoin="round" width="3" height="24" fill="rgb(73,143,181)" stroke="rgb(58,114,144)" stroke-width="1" opacity="0.75" />
			</g>
		</g>
		<g>
			<title>rpsO (FDFPEOFN_00261)
30S ribosomal protein S15</title>
			<polygon class="rpsO (FDFPEOFN_00261)
30S ribosomal protein S15" points="1290,10 1299,40 1290,70" fill="rgb(255,255,255)" fill-opacity="1.0" stroke="rgb(0,0,0)" stroke-width="2"  />
			<g>
				<title>Ribosomal_S15 (PF00312)
"Ribosomal protein S15"</title>
				<polygon class="PF00312" points="1290,28 1291,28 1295,40 1291,52 1290,52" stroke-linejoin="round" width="8" height="24" fill="rgb(176,72,186)" stroke="rgb(140,57,148)" stroke-width="1" opacity="0.75" />
			</g>
		</g>
		<g>
			<title> (FDFPEOFN_00262)
putative GTPase</title>
			<polygon class=" (FDFPEOFN_00262)
putative GTPase" points="1305,25 1309,25 1309,10 1339,40 1309,70 1309,55 1305,55" fill="rgb(255,255,255)" fill-opacity="1.0" stroke="rgb(0,0,0)" stroke-width="2"  />
			<g>
				<title>MeaB (PF03308)
"Methylmalonyl Co-A mutase-associated GTPase MeaB"</title>
				<polygon class="PF03308" points="1306,28 1322,28 1333,39 1333,41 1322,52 1306,52" stroke-linejoin="round" width="27" height="24" fill="rgb(200,208,71)" stroke="rgb(160,166,56)" stroke-width="1" opacity="0.75" />
			</g>
		</g>
		<g>
			<title>rpmB (FDFPEOFN_00263)
50S ribosomal protein L28</title>
			<polygon class="rpmB (FDFPEOFN_00263)
50S ribosomal protein L28" points="1342,10 1351,40 1342,70" fill="rgb(255,255,255)" fill-opacity="1.0" stroke="rgb(0,0,0)" stroke-width="2"  />
			<g>
				<title>Ribosomal_L28 (PF00830)
"Ribosomal L28 family"</title>
				<polygon class="PF00830" points="1342,28 1344,28 1347,36 1347,44 1344,52 1342,52" stroke-linejoin="round" width="5" height="24" fill="rgb(191,73,161)" stroke="rgb(152,58,128)" stroke-width="1" opacity="0.75" />
			</g>
		</g>
		<g>
			<title>cobQ (FDFPEOFN_00265)
Cobyric acid synthase</title>
			<polygon class="cobQ (FDFPEOFN_00265)
Cobyric acid synthase" points="1362,25 1380,25 1380,10 1410,40 1380,70 1380,55 1362,55" fill="rgb(255,255,255)" fill-opacity="1.0" stroke="rgb(0,0,0)" stroke-width="2"  />
			<g>
				<title>CbiA (PF01656)
"CobQ/CobB/MinD/ParA nucleotide binding domain"</title>
				<rect class="PF01656" x="1363" y="28" stroke-linejoin="round" width="23" height="24" fill="rgb(143,82,224)" stroke="rgb(114,65,179)" stroke-width="1" opacity="0.75" />
			</g>
			<g>
				<title>GATase_3 (PF07685)
"CobB/CobQ-like glutamine amidotransferase domain"</title>
				<polygon class="PF07685" points="1387,28 1394,28 1405,39 1405,41 1394,52 1387,52" stroke-linejoin="round" width="18" height="24" fill="rgb(206,104,226)" stroke="rgb(164,83,180)" stroke-width="1" opacity="0.75" />
			</g>
		</g>
		<g>
			<title>hisC_2 (FDFPEOFN_00266)
Histidinol-phosphate aminotransferase</title>
			<polygon class="hisC_2 (FDFPEOFN_00266)
Histidinol-phosphate aminotransferase" points="1443,25 1441,25 1441,10 1411,40 1441,70 1441,55 1443,55" fill="rgb(255,255,255)" fill-opacity="1.0" stroke="rgb(0,0,0)" stroke-width="2"  />
			<g>
				<title>Aminotran_1_2 (PF00155)
"Aminotransferase class I and II"</title>
				<polygon class="PF00155" points="1415,40 1427,28 1439,28 1439,52 1427,52" stroke-linejoin="round" width="28" height="24" fill="rgb(89,113,198)" stroke="rgb(71,90,158)" stroke-width="1" opacity="0.75" />
			</g>
		</g>
		<g>
			<title>cobD (FDFPEOFN_00267)
Cobalamin biosynthesis protein CobD</title>
			<polygon class="cobD (FDFPEOFN_00267)
Cobalamin biosynthesis protein CobD" points="1473,25 1473,25 1473,10 1443,40 1473,70 1473,55 1473,55" fill="rgb(255,255,255)" fill-opacity="1.0" stroke="rgb(0,0,0)" stroke-width="2"  />
			<g>
				<title>CobD_Cbib (PF03186)
"CobD/Cbib protein"</title>
				<polygon class="PF03186" points="1447,40 1459,28 1473,28 1473,52 1459,52" stroke-linejoin="round" width="28" height="24" fill="rgb(184,228,63)" stroke="rgb(147,182,50)" stroke-width="1" opacity="0.75" />
			</g>
		</g>
		<g>
			<title> (FDFPEOFN_00268)
hypothetical protein</title>
			<polygon class=" (FDFPEOFN_00268)
hypothetical protein" points="1475,40 1501,10 1501,70" fill="rgb(255,255,255)" fill-opacity="1.0" stroke="rgb(0,0,0)" stroke-width="2"  />
		</g>
		<g>
			<title> (FDFPEOFN_00269)
hypothetical protein</title>
			<polygon class=" (FDFPEOFN_00269)
hypothetical protein" points="1501,40 1521,10 1521,70" fill="rgb(255,255,255)" fill-opacity="1.0" stroke="rgb(0,0,0)" stroke-width="2"  />
			<g>
				<title>His_Phos_1 (PF00300)
"Histidine phosphatase superfamily (branch 1)"</title>
				<polygon class="PF00300" points="1505,40 1513,28 1519,28 1519,52 1513,52" stroke-linejoin="round" width="18" height="24" fill="rgb(135,184,63)" stroke="rgb(107,147,50)" stroke-width="1" opacity="0.75" />
			</g>
		</g>
		<g>
			<title>cobP (FDFPEOFN_00270)
Bifunctional adenosylcobalamin biosynthesis protein CobP</title>
			<polygon class="cobP (FDFPEOFN_00270)
Bifunctional adenosylcobalamin biosynthesis protein CobP" points="1522,10 1538,40 1522,70" fill="rgb(255,255,255)" fill-opacity="1.0" stroke="rgb(0,0,0)" stroke-width="2"  />
			<g>
				<title>CobU (PF02283)
"Cobinamide kinase / cobinamide phosphate guanyltransferase"</title>
				<polygon class="PF02283" points="1522,28 1528,28 1535,40 1528,52 1522,52" stroke-linejoin="round" width="16" height="24" fill="rgb(147,218,96)" stroke="rgb(117,174,76)" stroke-width="1" opacity="0.75" />
			</g>
		</g>
		<g>
			<title>cobU (FDFPEOFN_00271)
Nicotinate-nucleotide--dimethylbenzimidazole phosphoribosyltransferase</title>
			<polygon class="cobU (FDFPEOFN_00271)
Nicotinate-nucleotide--dimethylbenzimidazole phosphoribosyltransferase" points="1539,25 1543,25 1543,10 1573,40 1543,70 1543,55 1539,55" fill="rgb(255,255,255)" fill-opacity="1.0" stroke="rgb(0,0,0)" stroke-width="2"  />
			<g>
				<title>DBI_PRT (PF02277)
"Phosphoribosyltransferase"</title>
				<polygon class="PF02277" points="1541,28 1556,28 1568,40 1556,52 1541,52" stroke-linejoin="round" width="31" height="24" fill="rgb(116,80,221)" stroke="rgb(92,63,176)" stroke-width="1" opacity="0.75" />
			</g>
		</g>
		<g>
			<title>cobV (FDFPEOFN_00272)
Adenosylcobinamide-GDP ribazoletransferase</title>
			<polygon class="cobV (FDFPEOFN_00272)
Adenosylcobinamide-GDP ribazoletransferase" points="1573,10 1597,40 1573,70" fill="rgb(255,255,255)" fill-opacity="1.0" stroke="rgb(0,0,0)" stroke-width="2"  />
			<g>
				<title>CobS (PF02654)
"Cobalamin-5-phosphate synthase"</title>
				<polygon class="PF02654" points="1574,28 1584,28 1593,40 1584,52 1574,52" stroke-linejoin="round" width="22" height="24" fill="rgb(54,202,144)" stroke="rgb(43,161,115)" stroke-width="1" opacity="0.75" />
			</g>
		</g>
		<g>
			<title> (FDFPEOFN_00273)
hypothetical protein</title>
			<polygon class=" (FDFPEOFN_00273)
hypothetical protein" points="1600,40 1613,10 1613,70" fill="rgb(255,255,255)" fill-opacity="1.0" stroke="rgb(0,0,0)" stroke-width="2"  />
		</g>
	</g>
</svg>
