<svg xmlns="http://www.w3.org/2000/svg" xmlns:xlink="http://www.w3.org/1999/xlink" version="1.1" x="0" y="0" height="230" width="800" viewBox="0 0 800 230" preserveAspectRatio="none"  >
<g label="Query sequence" class="clusterblast-cluster"  >
<text x="5" y="20" class="clusterblast-acc"  >
Query sequence</text>
<line x1="10" y1="35" x2="778.0" y2="35" style="stroke-width:1; stroke:grey; "  />
<polygon points="0,40 10,40 15,35 10,30 0,30 0,40 " style="fill:#d81515; stroke-width:1; stroke:black; " description="&lt;b&gt;GJDDMNIP_02194&lt;/b&gt;&lt;br&gt;hypothetical protein&lt;br&gt;Location: 29755 - 30595" locus_tag="GJDDMNIP_02194" class="clusterblast-orf" id="dummy-1_q0_0_all"  />
<polygon points="15,40 29,40 34,35 29,30 15,30 15,40 " style="fill:#63d815; stroke-width:1; stroke:black; " description="&lt;b&gt;GJDDMNIP_02195&lt;/b&gt;&lt;br&gt;Ferrochelatase&lt;br&gt;Location: 30591 - 31623" locus_tag="GJDDMNIP_02195" class="clusterblast-orf" id="dummy-1_q1_0_all"  />
<polygon points="34,35 39,30 45,30 45,40 39,40 34,35 " style="fill:#15cbd8; stroke-width:1; stroke:black; " description="&lt;b&gt;GJDDMNIP_02196&lt;/b&gt;&lt;br&gt;hypothetical protein&lt;br&gt;Location: 31650 - 32262" locus_tag="GJDDMNIP_02196" class="clusterblast-orf" id="dummy-1_q2_0_all"  />
<polygon points="47,35 52,30 59,30 59,40 52,40 47,35 " style="fill:#7d15d8; stroke-width:1; stroke:black; " description="&lt;b&gt;GJDDMNIP_02197&lt;/b&gt;&lt;br&gt;hypothetical protein&lt;br&gt;Location: 32354 - 33008" locus_tag="GJDDMNIP_02197" class="clusterblast-orf" id="dummy-1_q3_0_all"  />
<polygon points="63,40 68,40 73,35 68,30 63,30 63,40 " style="fill:#d82f15; stroke-width:1; stroke:black; " description="&lt;b&gt;GJDDMNIP_02198&lt;/b&gt;&lt;br&gt;hypothetical protein&lt;br&gt;Location: 33239 - 33803" locus_tag="GJDDMNIP_02198" class="clusterblast-orf" id="dummy-1_q4_0_all"  />
<polygon points="76,40 83,40 88,35 83,30 76,30 76,40 " style="fill:#49d815; stroke-width:1; stroke:black; " description="&lt;b&gt;GJDDMNIP_02199&lt;/b&gt;&lt;br&gt;hypothetical protein&lt;br&gt;Location: 33946 - 34600" locus_tag="GJDDMNIP_02199" class="clusterblast-orf" id="dummy-1_q5_0_all"  />
<polygon points="90,35 95,30 99,30 99,40 95,40 90,35 " style="fill:#15b1d8; stroke-width:1; stroke:black; " description="&lt;b&gt;GJDDMNIP_02200&lt;/b&gt;&lt;br&gt;hypothetical protein&lt;br&gt;Location: 34700 - 35216" locus_tag="GJDDMNIP_02200" class="clusterblast-orf" id="dummy-1_q6_0_all"  />
<polygon points="100,35 105,30 123,30 123,40 105,40 100,35 " style="fill:#9715d8; stroke-width:1; stroke:black; " description="&lt;b&gt;GJDDMNIP_02201&lt;/b&gt;&lt;br&gt;23S rRNA (uracil(1939)-C(5))-methyltransferase RlmD&lt;br&gt;Location: 35281 - 36502" locus_tag="GJDDMNIP_02201" class="clusterblast-orf" id="dummy-1_q7_0_all"  />
<polygon points="122,35 127,30 156,30 156,40 127,40 122,35 " style="fill:#d84915; stroke-width:1; stroke:black; " description="&lt;b&gt;GJDDMNIP_02202&lt;/b&gt;&lt;br&gt;Vitamin B12 import ATP-binding protein BtuD&lt;br&gt;Location: 36498 - 38361" locus_tag="GJDDMNIP_02202" class="clusterblast-orf" id="dummy-1_q8_0_all"  />
<polygon points="156,35 161,30 178,30 178,40 161,40 156,35 " style="fill:#2fd815; stroke-width:1; stroke:black; " description="&lt;b&gt;GJDDMNIP_02203&lt;/b&gt;&lt;br&gt;CCA-adding enzyme&lt;br&gt;Location: 38360 - 39527" locus_tag="GJDDMNIP_02203" class="clusterblast-orf" id="dummy-1_q9_0_all"  />
<polygon points="178,35 183,30 188,30 188,40 183,40 178,35 " style="fill:#1597d8; stroke-width:1; stroke:black; " description="&lt;b&gt;GJDDMNIP_02204&lt;/b&gt;&lt;br&gt;putative Nudix hydrolase NudL&lt;br&gt;Location: 39523 - 40084" locus_tag="GJDDMNIP_02204" class="clusterblast-orf" id="dummy-1_q10_0_all"  />
<polygon points="188,35 193,30 207,30 207,40 193,40 188,35 " style="fill:#b115d8; stroke-width:1; stroke:black; " description="&lt;b&gt;GJDDMNIP_02205&lt;/b&gt;&lt;br&gt;33 kDa chaperonin&lt;br&gt;Location: 40107 - 41133" locus_tag="GJDDMNIP_02205" class="clusterblast-orf" id="dummy-1_q11_0_all"  />
<polygon points="211,40 219,40 224,35 219,30 211,30 211,40 " style="fill:#d86315; stroke-width:1; stroke:black; " description="&lt;b&gt;GJDDMNIP_02206&lt;/b&gt;&lt;br&gt;Ribulose-phosphate 3-epimerase&lt;br&gt;Location: 41355 - 42048" locus_tag="GJDDMNIP_02206" class="clusterblast-orf" id="dummy-1_q12_0_all"  />
<polygon points="223,40 240,40 245,35 240,30 223,30 223,40 " style="fill:#15d815; stroke-width:1; stroke:black; " description="&lt;b&gt;GJDDMNIP_02207&lt;/b&gt;&lt;br&gt;3-deoxy-D-manno-octulosonic acid transferase&lt;br&gt;Location: 42044 - 43244" locus_tag="GJDDMNIP_02207" class="clusterblast-orf" id="dummy-1_q13_0_all"  />
<polygon points="246,40 249,40 254,35 249,30 246,30 246,40 " style="fill:#157dd8; stroke-width:1; stroke:black; " description="&lt;b&gt;GJDDMNIP_02208&lt;/b&gt;&lt;br&gt;hypothetical protein&lt;br&gt;Location: 43284 - 43704" locus_tag="GJDDMNIP_02208" class="clusterblast-orf" id="dummy-1_q14_0_all"  />
<polygon points="254,35 259,30 268,30 268,40 259,40 254,35 " style="fill:#cb15d8; stroke-width:1; stroke:black; " description="&lt;b&gt;GJDDMNIP_02209&lt;/b&gt;&lt;br&gt;Fe(3+) dicitrate transport ATP-binding protein FecE&lt;br&gt;Location: 43734 - 44511" locus_tag="GJDDMNIP_02209" class="clusterblast-orf" id="dummy-1_q15_0_all"  />
<polygon points="268,35 273,30 287,30 287,40 273,40 268,35 " style="fill:#d87d15; stroke-width:1; stroke:black; " description="&lt;b&gt;GJDDMNIP_02210&lt;/b&gt;&lt;br&gt;Hemin transport system permease protein HmuU&lt;br&gt;Location: 44510 - 45545" locus_tag="GJDDMNIP_02210" class="clusterblast-orf" id="dummy-1_q16_0_all"  />
<polygon points="287,35 292,30 307,30 307,40 292,40 287,35 " style="fill:#15d82f; stroke-width:1; stroke:black; " description="&lt;b&gt;GJDDMNIP_02211&lt;/b&gt;&lt;br&gt;hypothetical protein&lt;br&gt;Location: 45541 - 46639" locus_tag="GJDDMNIP_02211" class="clusterblast-orf" id="dummy-1_q17_0_all"  />
<polygon points="308,35 313,30 334,30 334,40 313,40 308,35 " style="fill:#1563d8; stroke-width:1; stroke:black; " description="&lt;b&gt;GJDDMNIP_02212&lt;/b&gt;&lt;br&gt;hypothetical protein&lt;br&gt;Location: 46698 - 48105" locus_tag="GJDDMNIP_02212" class="clusterblast-orf" id="dummy-1_q18_0_all"  />
<polygon points="337,40 347,40 352,35 347,30 337,30 337,40 " style="fill:#d815cb; stroke-width:1; stroke:black; " description="&lt;b&gt;GJDDMNIP_02213&lt;/b&gt;&lt;br&gt;hypothetical protein&lt;br&gt;Location: 48256 - 49090" locus_tag="GJDDMNIP_02213" class="clusterblast-orf" id="dummy-1_q19_0_all"  />
<polygon points="353,40 356,35 353,30 353,40 " style="fill:white; stroke-width:1; stroke:black; " description="&lt;b&gt;GJDDMNIP_02214&lt;/b&gt;&lt;br&gt;hypothetical protein&lt;br&gt;Location: 49142 - 49301" locus_tag="GJDDMNIP_02214" class="clusterblast-orf" id="dummy-1_q20_0_all"  />
<polygon points="356,35 361,30 426,30 426,40 361,40 356,35 " style="fill:#d89715; stroke-width:1; stroke:black; " description="&lt;b&gt;GJDDMNIP_02215&lt;/b&gt;&lt;br&gt;Dimodular nonribosomal peptide synthase&lt;br&gt;Location: 49309 - 53167" locus_tag="GJDDMNIP_02215" class="clusterblast-orf" id="dummy-1_q21_0_all"  />
<polygon points="429,40 435,40 440,35 435,30 429,30 429,40 " style="fill:#15d849; stroke-width:1; stroke:black; " description="&lt;b&gt;GJDDMNIP_02216&lt;/b&gt;&lt;br&gt;Cytochrome b561&lt;br&gt;Location: 53337 - 53937" locus_tag="GJDDMNIP_02216" class="clusterblast-orf" id="dummy-1_q22_0_all"  />
<polygon points="441,40 442,40 447,35 442,30 441,30 441,40 " style="fill:#1549d8; stroke-width:1; stroke:black; " description="&lt;b&gt;GJDDMNIP_02217&lt;/b&gt;&lt;br&gt;hypothetical protein&lt;br&gt;Location: 53995 - 54331" locus_tag="GJDDMNIP_02217" class="clusterblast-orf" id="dummy-1_q23_0_all"  />
<polygon points="448,35 453,30 465,30 465,40 453,40 448,35 " style="fill:#d815b1; stroke-width:1; stroke:black; " description="&lt;b&gt;GJDDMNIP_02218&lt;/b&gt;&lt;br&gt;putative cystine transporter YijE&lt;br&gt;Location: 54370 - 55315" locus_tag="GJDDMNIP_02218" class="clusterblast-orf" id="dummy-1_q24_0_all"  />
<polygon points="467,35 472,30 482,30 482,40 472,40 467,35 " style="fill:#d8b115; stroke-width:1; stroke:black; " description="&lt;b&gt;GJDDMNIP_02219&lt;/b&gt;&lt;br&gt;Methylthioacryloyl-CoA hydratase&lt;br&gt;Location: 55420 - 56227" locus_tag="GJDDMNIP_02219" class="clusterblast-orf" id="dummy-1_q25_0_all"  />
<polygon points="482,35 487,30 499,30 499,40 487,40 482,35 " style="fill:#15d863; stroke-width:1; stroke:black; " description="&lt;b&gt;GJDDMNIP_02220&lt;/b&gt;&lt;br&gt;hypothetical protein&lt;br&gt;Location: 56230 - 57160" locus_tag="GJDDMNIP_02220" class="clusterblast-orf" id="dummy-1_q26_0_all"  />
<polygon points="499,35 504,30 504,30 504,40 504,40 499,35 " style="fill:#152fd8; stroke-width:1; stroke:black; " description="&lt;b&gt;GJDDMNIP_02221&lt;/b&gt;&lt;br&gt;Sulfur carrier protein TusA&lt;br&gt;Location: 57159 - 57438" locus_tag="GJDDMNIP_02221" class="clusterblast-orf" id="dummy-1_q27_0_all"  />
<polygon points="503,35 508,30 513,30 513,40 508,40 503,35 " style="fill:#d81597; stroke-width:1; stroke:black; " description="&lt;b&gt;GJDDMNIP_02222&lt;/b&gt;&lt;br&gt;hypothetical protein&lt;br&gt;Location: 57404 - 57920" locus_tag="GJDDMNIP_02222" class="clusterblast-orf" id="dummy-1_q28_0_all"  />
<polygon points="514,35 519,30 527,30 527,40 519,40 514,35 " style="fill:#d8cb15; stroke-width:1; stroke:black; " description="&lt;b&gt;GJDDMNIP_02223&lt;/b&gt;&lt;br&gt;Uroporphyrinogen-III C-methyltransferase&lt;br&gt;Location: 58003 - 58738" locus_tag="GJDDMNIP_02223" class="clusterblast-orf" id="dummy-1_q29_0_all"  />
<polygon points="529,40 542,40 547,35 542,30 529,30 529,40 " style="fill:#15d87d; stroke-width:1; stroke:black; " description="&lt;b&gt;GJDDMNIP_02224&lt;/b&gt;&lt;br&gt;Aspartate carbamoyltransferase&lt;br&gt;Location: 58840 - 59800" locus_tag="GJDDMNIP_02224" class="clusterblast-orf" id="dummy-1_q30_0_all"  />
<polygon points="547,40 565,40 570,35 565,30 547,30 547,40 " style="fill:#1515d8; stroke-width:1; stroke:black; " description="&lt;b&gt;GJDDMNIP_02225&lt;/b&gt;&lt;br&gt;Dihydroorotase&lt;br&gt;Location: 59796 - 61068" locus_tag="GJDDMNIP_02225" class="clusterblast-orf" id="dummy-1_q31_0_all"  />
<polygon points="570,40 575,40 580,35 575,30 570,30 570,40 " style="fill:#d8157d; stroke-width:1; stroke:black; " description="&lt;b&gt;GJDDMNIP_02226&lt;/b&gt;&lt;br&gt;putative glycerol-3-phosphate acyltransferase&lt;br&gt;Location: 61064 - 61649" locus_tag="GJDDMNIP_02226" class="clusterblast-orf" id="dummy-1_q32_0_all"  />
<polygon points="582,35 587,30 598,30 598,40 587,40 582,35 " style="fill:#cbd815; stroke-width:1; stroke:black; " description="&lt;b&gt;GJDDMNIP_02227&lt;/b&gt;&lt;br&gt;3-hydroxybutyryl-CoA dehydrogenase&lt;br&gt;Location: 61724 - 62600" locus_tag="GJDDMNIP_02227" class="clusterblast-orf" id="dummy-1_q33_0_all"  />
<polygon points="601,35 606,30 618,30 618,40 606,40 601,35 " style="fill:#15d897; stroke-width:1; stroke:black; " description="&lt;b&gt;GJDDMNIP_02228&lt;/b&gt;&lt;br&gt;Electron transfer flavoprotein subunit alpha&lt;br&gt;Location: 62798 - 63725" locus_tag="GJDDMNIP_02228" class="clusterblast-orf" id="dummy-1_q34_0_all"  />
<polygon points="618,35 623,30 632,30 632,40 623,40 618,35 " style="fill:#2f15d8; stroke-width:1; stroke:black; " description="&lt;b&gt;GJDDMNIP_02229&lt;/b&gt;&lt;br&gt;Electron transfer flavoprotein subunit beta&lt;br&gt;Location: 63724 - 64483" locus_tag="GJDDMNIP_02229" class="clusterblast-orf" id="dummy-1_q35_0_all"  />
<polygon points="634,35 639,30 645,30 645,40 639,40 634,35 " style="fill:#d81563; stroke-width:1; stroke:black; " description="&lt;b&gt;GJDDMNIP_02230&lt;/b&gt;&lt;br&gt;Corrinoid adenosyltransferase&lt;br&gt;Location: 64603 - 65176" locus_tag="GJDDMNIP_02230" class="clusterblast-orf" id="dummy-1_q36_0_all"  />
<polygon points="645,35 648,30 648,40 645,35 " style="fill:#b1d815; stroke-width:1; stroke:black; " description="&lt;b&gt;GJDDMNIP_02231&lt;/b&gt;&lt;br&gt;hypothetical protein&lt;br&gt;Location: 65175 - 65376" locus_tag="GJDDMNIP_02231" class="clusterblast-orf" id="dummy-1_q37_0_all"  />
<polygon points="649,35 654,30 664,30 664,40 654,40 649,35 " style="fill:#15d8b1; stroke-width:1; stroke:black; " description="&lt;b&gt;GJDDMNIP_02232&lt;/b&gt;&lt;br&gt;hypothetical protein&lt;br&gt;Location: 65400 - 66219" locus_tag="GJDDMNIP_02232" class="clusterblast-orf" id="dummy-1_q38_0_all"  />
<polygon points="665,40 701,40 706,35 701,30 665,30 665,40 " style="fill:#4915d8; stroke-width:1; stroke:black; " description="&lt;b&gt;GJDDMNIP_02233&lt;/b&gt;&lt;br&gt;DNA topoisomerase 4 subunit A&lt;br&gt;Location: 66321 - 68565" locus_tag="GJDDMNIP_02233" class="clusterblast-orf" id="dummy-1_q39_0_all"  />
<polygon points="707,35 710,30 710,40 707,35 " style="fill:#d81549; stroke-width:1; stroke:black; " description="&lt;b&gt;GJDDMNIP_02234&lt;/b&gt;&lt;br&gt;hypothetical protein&lt;br&gt;Location: 68597 - 68753" locus_tag="GJDDMNIP_02234" class="clusterblast-orf" id="dummy-1_q40_0_all"  />
<polygon points="712,35 717,30 722,30 722,40 717,40 712,35 " style="fill:#97d815; stroke-width:1; stroke:black; " description="&lt;b&gt;GJDDMNIP_02235&lt;/b&gt;&lt;br&gt;hypothetical protein&lt;br&gt;Location: 68854 - 69436" locus_tag="GJDDMNIP_02235" class="clusterblast-orf" id="dummy-1_q41_0_all"  />
<polygon points="722,35 727,30 731,30 731,40 727,40 722,35 " style="fill:#15d8cb; stroke-width:1; stroke:black; " description="&lt;b&gt;GJDDMNIP_02236&lt;/b&gt;&lt;br&gt;Cytochrome c-554&lt;br&gt;Location: 69435 - 69891" locus_tag="GJDDMNIP_02236" class="clusterblast-orf" id="dummy-1_q42_0_all"  />
<polygon points="737,35 742,30 743,30 743,40 742,40 737,35 " style="fill:#6315d8; stroke-width:1; stroke:black; " description="&lt;b&gt;GJDDMNIP_02237&lt;/b&gt;&lt;br&gt;hypothetical protein&lt;br&gt;Location: 70263 - 70572" locus_tag="GJDDMNIP_02237" class="clusterblast-orf" id="dummy-1_q43_0_all"  />
<polygon points="743,35 748,30 756,30 756,40 748,40 743,35 " style="fill:#d8152f; stroke-width:1; stroke:black; " description="&lt;b&gt;GJDDMNIP_02238&lt;/b&gt;&lt;br&gt;hypothetical protein&lt;br&gt;Location: 70556 - 71306" locus_tag="GJDDMNIP_02238" class="clusterblast-orf" id="dummy-1_q44_0_all"  />
<polygon points="756,35 761,30 780,30 780,40 761,40 756,35 " style="fill:#7dd815; stroke-width:1; stroke:black; " description="&lt;b&gt;GJDDMNIP_02239&lt;/b&gt;&lt;br&gt;Hydrogenobyrinate a,c-diamide synthase&lt;br&gt;Location: 71302 - 72592" locus_tag="GJDDMNIP_02239" class="clusterblast-orf" id="dummy-1_q45_0_all"  />
</g>
<g label="NZ_CP044081" description="NZ_CP044081 (440210-482181): Paracoccus yeei strain FDAARGOS 643 chromosome, ... (67% of genes show similarity), NRPS" class="clusterblast-cluster"  >
<text x="5" y="70" class="clusterblast-acc"  >
<a xlink:href="https://antismash-db.secondarymetabolites.org/area.html?record=NZ_CP044081&amp;start=440210&amp;end=482181" target="_blank">NZ_CP044081 (440210-482181)</a>: Paracoccus yeei strain FDAARGOS 643 chromosome, ... (67% of genes show similarity), NRPS</text>
<line x1="10" y1="85" x2="778.0" y2="85" style="stroke-width:1; stroke:grey; "  />
</g>
<g id="a1_000"  >
<polygon points="7,85 12,80 29,80 29,90 12,90 7,85 " style="fill:#2fd815; stroke-width:1; stroke:black; " description="&lt;b&gt;FOB51_RS05805&lt;/b&gt;&lt;br&gt;CCA tRNA nucleotidyltransferase&lt;br&gt;Location: 440211 - 441389&lt;br&gt;&lt;br&gt;&lt;b&gt;BlastP hit with GJDDMNIP_02203&lt;/b&gt;&lt;br&gt;Percentage identity: 74&lt;br&gt;Percentage coverage: 100&lt;br&gt;BLAST bit score: 546&lt;br&gt;E-value: 3.66e-194" locus_tag="FOB51_RS05805" class="clusterblast-orf" id="dummy-1_h1_9_0"  />
</g>
<g id="a1_001"  >
<polygon points="29,85 34,80 40,80 40,90 34,90 29,85 " style="fill:#1597d8; stroke-width:1; stroke:black; " description="&lt;b&gt;FOB51_RS05810&lt;/b&gt;&lt;br&gt;CoA pyrophosphatase&lt;br&gt;Location: 441386 - 441985&lt;br&gt;&lt;br&gt;&lt;b&gt;BlastP hit with GJDDMNIP_02204&lt;/b&gt;&lt;br&gt;Percentage identity: 76&lt;br&gt;Percentage coverage: 95&lt;br&gt;BLAST bit score: 271&lt;br&gt;E-value: 4.69e-92" locus_tag="FOB51_RS05810" class="clusterblast-orf" id="dummy-1_h1_9_1"  />
</g>
<g id="a1_002"  >
<polygon points="40,85 45,80 58,80 58,90 45,90 40,85 " style="fill:#b115d8; stroke-width:1; stroke:black; " description="&lt;b&gt;FOB51_RS05815&lt;/b&gt;&lt;br&gt;molecular chaperone Hsp33&lt;br&gt;Location: 441985 - 442998&lt;br&gt;&lt;br&gt;&lt;b&gt;BlastP hit with GJDDMNIP_02205&lt;/b&gt;&lt;br&gt;Percentage identity: 79&lt;br&gt;Percentage coverage: 98&lt;br&gt;BLAST bit score: 546&lt;br&gt;E-value: 1.12e-195" locus_tag="FOB51_RS05815" class="clusterblast-orf" id="dummy-1_h1_9_2"  />
</g>
<g id="a1_003"  >
<polygon points="60,85 65,80 77,80 77,90 65,90 60,85 " style="fill:white; stroke-width:1; stroke:black; " description="&lt;b&gt;FOB51_RS05820&lt;/b&gt;&lt;br&gt;LysR family transcriptional regulator&lt;br&gt;Location: 443100 - 444023" locus_tag="FOB51_RS05820" class="clusterblast-orf" id="dummy-1_h1_9_3"  />
</g>
<g id="a1_004"  >
<polygon points="79,90 91,90 96,85 91,80 79,80 79,90 " style="fill:white; stroke-width:1; stroke:black; " description="&lt;b&gt;FOB51_RS05825&lt;/b&gt;&lt;br&gt;class 1 fructose-bisphosphatase&lt;br&gt;Location: 444119 - 445102" locus_tag="FOB51_RS05825" class="clusterblast-orf" id="dummy-1_h1_9_4"  />
</g>
<g id="a1_005"  >
<polygon points="97,90 108,90 113,85 108,80 97,80 97,90 " style="fill:white; stroke-width:1; stroke:black; " description="&lt;b&gt;FOB51_RS05830&lt;/b&gt;&lt;br&gt;phosphoribulokinase&lt;br&gt;Location: 445112 - 445984" locus_tag="FOB51_RS05830" class="clusterblast-orf" id="dummy-1_h1_9_5"  />
</g>
<g id="a1_006"  >
<polygon points="113,90 144,90 149,85 144,80 113,80 113,90 " style="fill:white; stroke-width:1; stroke:black; " description="&lt;b&gt;FOB51_RS05835&lt;/b&gt;&lt;br&gt;transketolase&lt;br&gt;Location: 446006 - 447997" locus_tag="FOB51_RS05835" class="clusterblast-orf" id="dummy-1_h1_9_6"  />
</g>
<g id="a1_007"  >
<polygon points="149,90 164,90 169,85 164,80 149,80 149,90 " style="fill:white; stroke-width:1; stroke:black; " description="&lt;b&gt;FOB51_RS05840&lt;/b&gt;&lt;br&gt;fructose-bisphosphate aldolase class II&lt;br&gt;Location: 447997 - 449076" locus_tag="FOB51_RS05840" class="clusterblast-orf" id="dummy-1_h1_9_7"  />
</g>
<g id="a1_008"  >
<polygon points="169,90 191,90 196,85 191,80 169,80 169,90 " style="fill:white; stroke-width:1; stroke:black; " description="&lt;b&gt;FOB51_RS05845&lt;/b&gt;&lt;br&gt;form I ribulose bisphosphate carboxylase large subunit&lt;br&gt;Location: 449090 - 450556" locus_tag="FOB51_RS05845" class="clusterblast-orf" id="dummy-1_h1_9_8"  />
</g>
<g id="a1_009"  >
<polygon points="196,90 198,90 203,85 198,80 196,80 196,90 " style="fill:white; stroke-width:1; stroke:black; " description="&lt;b&gt;FOB51_RS05850&lt;/b&gt;&lt;br&gt;ribulose bisphosphate carboxylase small subunit&lt;br&gt;Location: 450569 - 450958" locus_tag="FOB51_RS05850" class="clusterblast-orf" id="dummy-1_h1_9_9"  />
</g>
<g id="a1_0010"  >
<polygon points="205,90 217,90 222,85 217,80 205,80 205,90 " style="fill:white; stroke-width:1; stroke:black; " description="&lt;b&gt;FOB51_RS05855&lt;/b&gt;&lt;br&gt;CbbX protein&lt;br&gt;Location: 451051 - 451977" locus_tag="FOB51_RS05855" class="clusterblast-orf" id="dummy-1_h1_9_10"  />
</g>
<g id="a1_0011"  >
<polygon points="222,90 229,90 234,85 229,80 222,80 222,90 " style="fill:#d86315; stroke-width:1; stroke:black; " description="&lt;b&gt;FOB51_RS05860&lt;/b&gt;&lt;br&gt;ribulose-phosphate 3-epimerase&lt;br&gt;Location: 451974 - 452669&lt;br&gt;&lt;br&gt;&lt;b&gt;BlastP hit with GJDDMNIP_02206&lt;/b&gt;&lt;br&gt;Percentage identity: 90&lt;br&gt;Percentage coverage: 100&lt;br&gt;BLAST bit score: 417&lt;br&gt;E-value: 1.54e-148" locus_tag="FOB51_RS05860" class="clusterblast-orf" id="dummy-1_h1_9_11"  />
</g>
<g id="a1_0012"  >
<polygon points="236,90 252,90 257,85 252,80 236,80 236,90 " style="fill:#15d815; stroke-width:1; stroke:black; " description="&lt;b&gt;FOB51_RS05865&lt;/b&gt;&lt;br&gt;3-deoxy-D-manno-octulosonic acid transferase&lt;br&gt;Location: 452746 - 453945&lt;br&gt;&lt;br&gt;&lt;b&gt;BlastP hit with GJDDMNIP_02207&lt;/b&gt;&lt;br&gt;Percentage identity: 75&lt;br&gt;Percentage coverage: 100&lt;br&gt;BLAST bit score: 551&lt;br&gt;E-value: 1.08e-195" locus_tag="FOB51_RS05865" class="clusterblast-orf" id="dummy-1_h1_9_12"  />
</g>
<g id="a1_0013"  >
<polygon points="259,90 261,90 266,85 261,80 259,80 259,90 " style="fill:#157dd8; stroke-width:1; stroke:black; " description="&lt;b&gt;FOB51_RS05870&lt;/b&gt;&lt;br&gt;DUF1178 family protein&lt;br&gt;Location: 454004 - 454429&lt;br&gt;&lt;br&gt;&lt;b&gt;BlastP hit with GJDDMNIP_02208&lt;/b&gt;&lt;br&gt;Percentage identity: 77&lt;br&gt;Percentage coverage: 101&lt;br&gt;BLAST bit score: 224&lt;br&gt;E-value: 5.56e-75" locus_tag="FOB51_RS05870" class="clusterblast-orf" id="dummy-1_h1_9_13"  />
</g>
<g id="a1_0014"  >
<polygon points="266,85 271,80 281,80 281,90 271,90 266,85 " style="fill:#cb15d8; stroke-width:1; stroke:black; " description="&lt;b&gt;FOB51_RS05875&lt;/b&gt;&lt;br&gt;ABC transporter ATP-binding protein&lt;br&gt;Location: 454441 - 455211&lt;br&gt;&lt;br&gt;&lt;b&gt;BlastP hit with GJDDMNIP_02209&lt;/b&gt;&lt;br&gt;Percentage identity: 82&lt;br&gt;Percentage coverage: 98&lt;br&gt;BLAST bit score: 386&lt;br&gt;E-value: 2.5e-135" locus_tag="FOB51_RS05875" class="clusterblast-orf" id="dummy-1_h1_9_14"  />
</g>
<g id="a1_0015"  >
<polygon points="280,85 285,80 299,80 299,90 285,90 280,85 " style="fill:#d87d15; stroke-width:1; stroke:black; " description="&lt;b&gt;FOB51_RS05880&lt;/b&gt;&lt;br&gt;iron chelate uptake ABC transporter family permease subunit&lt;br&gt;Location: 455208 - 456251&lt;br&gt;&lt;br&gt;&lt;b&gt;BlastP hit with GJDDMNIP_02210&lt;/b&gt;&lt;br&gt;Percentage identity: 89&lt;br&gt;Percentage coverage: 100&lt;br&gt;BLAST bit score: 555&lt;br&gt;E-value: 5.73e-199" locus_tag="FOB51_RS05880" class="clusterblast-orf" id="dummy-1_h1_9_15"  />
</g>
<g id="a1_0016"  >
<polygon points="300,85 305,80 319,80 319,90 305,90 300,85 " style="fill:#15d82f; stroke-width:1; stroke:black; " description="&lt;b&gt;FOB51_RS05885&lt;/b&gt;&lt;br&gt;ABC transporter substrate-binding protein&lt;br&gt;Location: 456254 - 457351&lt;br&gt;&lt;br&gt;&lt;b&gt;BlastP hit with GJDDMNIP_02211&lt;/b&gt;&lt;br&gt;Percentage identity: 78&lt;br&gt;Percentage coverage: 100&lt;br&gt;BLAST bit score: 570&lt;br&gt;E-value: 1.45e-204" locus_tag="FOB51_RS05885" class="clusterblast-orf" id="dummy-1_h1_9_16"  />
</g>
<g id="a1_0017"  >
<polygon points="323,90 333,90 338,85 333,80 323,80 323,90 " style="fill:#d815cb; stroke-width:1; stroke:black; " description="&lt;b&gt;FOB51_RS05890&lt;/b&gt;&lt;br&gt;alpha/beta hydrolase&lt;br&gt;Location: 457531 - 458382&lt;br&gt;&lt;br&gt;&lt;b&gt;BlastP hit with GJDDMNIP_02213&lt;/b&gt;&lt;br&gt;Percentage identity: 85&lt;br&gt;Percentage coverage: 99&lt;br&gt;BLAST bit score: 481&lt;br&gt;E-value: 6.79e-172" locus_tag="FOB51_RS05890" class="clusterblast-orf" id="dummy-1_h1_9_17"  />
</g>
<g id="a1_0018"  >
<polygon points="340,85 345,80 411,80 411,90 345,90 340,85 " style="fill:#d89715; stroke-width:1; stroke:black; " description="&lt;b&gt;FOB51_RS05895&lt;/b&gt;&lt;br&gt;amino acid adenylation domain-containing protein&lt;br&gt;Location: 458503 - 462357&lt;br&gt;&lt;br&gt;&lt;b&gt;BlastP hit with GJDDMNIP_02215&lt;/b&gt;&lt;br&gt;Percentage identity: 80&lt;br&gt;Percentage coverage: 99&lt;br&gt;BLAST bit score: 2004&lt;br&gt;E-value: 0.0" locus_tag="FOB51_RS05895" class="clusterblast-orf" id="dummy-1_h1_9_18"  />
</g>
<g id="a1_0019"  >
<polygon points="414,90 420,90 425,85 420,80 414,80 414,90 " style="fill:#15d849; stroke-width:1; stroke:black; " description="&lt;b&gt;FOB51_RS05900&lt;/b&gt;&lt;br&gt;cytochrome b&lt;br&gt;Location: 462547 - 463122&lt;br&gt;&lt;br&gt;&lt;b&gt;BlastP hit with GJDDMNIP_02216&lt;/b&gt;&lt;br&gt;Percentage identity: 75&lt;br&gt;Percentage coverage: 92&lt;br&gt;BLAST bit score: 295&lt;br&gt;E-value: 2.16e-101" locus_tag="FOB51_RS05900" class="clusterblast-orf" id="dummy-1_h1_9_19"  />
</g>
<g id="a1_0020"  >
<polygon points="428,90 429,90 434,85 429,80 428,80 428,90 " style="fill:#1549d8; stroke-width:1; stroke:black; " description="&lt;b&gt;FOB51_RS05905&lt;/b&gt;&lt;br&gt;DUF2794 domain-containing protein&lt;br&gt;Location: 463320 - 463652&lt;br&gt;&lt;br&gt;&lt;b&gt;BlastP hit with GJDDMNIP_02217&lt;/b&gt;&lt;br&gt;Percentage identity: 85&lt;br&gt;Percentage coverage: 99&lt;br&gt;BLAST bit score: 191&lt;br&gt;E-value: 8.4e-63" locus_tag="FOB51_RS05905" class="clusterblast-orf" id="dummy-1_h1_9_20"  />
</g>
<g id="a1_0021"  >
<polygon points="434,85 439,80 451,80 451,90 439,90 434,85 " style="fill:#15d863; stroke-width:1; stroke:black; " description="&lt;b&gt;FOB51_RS05910&lt;/b&gt;&lt;br&gt;AEC family transporter&lt;br&gt;Location: 463649 - 464575&lt;br&gt;&lt;br&gt;&lt;b&gt;BlastP hit with GJDDMNIP_02220&lt;/b&gt;&lt;br&gt;Percentage identity: 77&lt;br&gt;Percentage coverage: 99&lt;br&gt;BLAST bit score: 437&lt;br&gt;E-value: 1.34e-153" locus_tag="FOB51_RS05910" class="clusterblast-orf" id="dummy-1_h1_9_21"  />
</g>
<g id="a1_0022"  >
<polygon points="451,85 455,80 455,90 451,85 " style="fill:#152fd8; stroke-width:1; stroke:black; " description="&lt;b&gt;FOB51_RS05915&lt;/b&gt;&lt;br&gt;sulfurtransferase TusA family protein&lt;br&gt;Location: 464568 - 464801&lt;br&gt;&lt;br&gt;&lt;b&gt;BlastP hit with GJDDMNIP_02221&lt;/b&gt;&lt;br&gt;Percentage identity: 77&lt;br&gt;Percentage coverage: 82&lt;br&gt;BLAST bit score: 124&lt;br&gt;E-value: 4.89e-37" locus_tag="FOB51_RS05915" class="clusterblast-orf" id="dummy-1_h1_9_22"  />
</g>
<g id="a1_0023"  >
<polygon points="455,85 460,80 464,80 464,90 460,90 455,85 " style="fill:#d81597; stroke-width:1; stroke:black; " description="&lt;b&gt;FOB51_RS05920&lt;/b&gt;&lt;br&gt;DUF2478 domain-containing protein&lt;br&gt;Location: 464798 - 465298&lt;br&gt;&lt;br&gt;&lt;b&gt;BlastP hit with GJDDMNIP_02222&lt;/b&gt;&lt;br&gt;Percentage identity: 64&lt;br&gt;Percentage coverage: 97&lt;br&gt;BLAST bit score: 200&lt;br&gt;E-value: 1.74e-64" locus_tag="FOB51_RS05920" class="clusterblast-orf" id="dummy-1_h1_9_23"  />
</g>
<g id="a1_0024"  >
<polygon points="466,85 471,80 479,80 479,90 471,90 466,85 " style="fill:#d8cb15; stroke-width:1; stroke:black; " description="&lt;b&gt;FOB51_RS05925&lt;/b&gt;&lt;br&gt;uroporphyrinogen-III C-methyltransferase&lt;br&gt;Location: 465381 - 466112&lt;br&gt;&lt;br&gt;&lt;b&gt;BlastP hit with GJDDMNIP_02223&lt;/b&gt;&lt;br&gt;Percentage identity: 86&lt;br&gt;Percentage coverage: 99&lt;br&gt;BLAST bit score: 402&lt;br&gt;E-value: 3.63e-142" locus_tag="FOB51_RS05925" class="clusterblast-orf" id="dummy-1_h1_9_24"  />
</g>
<g id="a1_0025"  >
<polygon points="481,90 493,90 498,85 493,80 481,80 481,90 " style="fill:#15d87d; stroke-width:1; stroke:black; " description="&lt;b&gt;FOB51_RS05930&lt;/b&gt;&lt;br&gt;aspartate carbamoyltransferase catalytic subunit&lt;br&gt;Location: 466212 - 467171&lt;br&gt;&lt;br&gt;&lt;b&gt;BlastP hit with GJDDMNIP_02224&lt;/b&gt;&lt;br&gt;Percentage identity: 95&lt;br&gt;Percentage coverage: 100&lt;br&gt;BLAST bit score: 597&lt;br&gt;E-value: 9.25e-217" locus_tag="FOB51_RS05930" class="clusterblast-orf" id="dummy-1_h1_9_25"  />
</g>
<g id="a1_0026"  >
<polygon points="498,90 516,90 521,85 516,80 498,80 498,90 " style="fill:#1515d8; stroke-width:1; stroke:black; " description="&lt;b&gt;FOB51_RS05935&lt;/b&gt;&lt;br&gt;amidohydrolase family protein&lt;br&gt;Location: 467168 - 468439&lt;br&gt;&lt;br&gt;&lt;b&gt;BlastP hit with GJDDMNIP_02225&lt;/b&gt;&lt;br&gt;Percentage identity: 89&lt;br&gt;Percentage coverage: 100&lt;br&gt;BLAST bit score: 759&lt;br&gt;E-value: 2.92e-277" locus_tag="FOB51_RS05935" class="clusterblast-orf" id="dummy-1_h1_9_26"  />
</g>
<g id="a1_0027"  >
<polygon points="521,90 527,90 532,85 527,80 521,80 521,90 " style="fill:#d8157d; stroke-width:1; stroke:black; " description="&lt;b&gt;FOB51_RS05940&lt;/b&gt;&lt;br&gt;glycerol-3-phosphate 1-O-acyltransferase PlsY&lt;br&gt;Location: 468436 - 469020&lt;br&gt;&lt;br&gt;&lt;b&gt;BlastP hit with GJDDMNIP_02226&lt;/b&gt;&lt;br&gt;Percentage identity: 91&lt;br&gt;Percentage coverage: 99&lt;br&gt;BLAST bit score: 328&lt;br&gt;E-value: 2.21e-114" locus_tag="FOB51_RS05940" class="clusterblast-orf" id="dummy-1_h1_9_27"  />
</g>
<g id="a1_0028"  >
<polygon points="533,85 538,80 549,80 549,90 538,90 533,85 " style="fill:#cbd815; stroke-width:1; stroke:black; " description="&lt;b&gt;FOB51_RS05945&lt;/b&gt;&lt;br&gt;3-hydroxybutyryl-CoA dehydrogenase&lt;br&gt;Location: 469081 - 469956&lt;br&gt;&lt;br&gt;&lt;b&gt;BlastP hit with GJDDMNIP_02227&lt;/b&gt;&lt;br&gt;Percentage identity: 88&lt;br&gt;Percentage coverage: 100&lt;br&gt;BLAST bit score: 513&lt;br&gt;E-value: 2.53e-184" locus_tag="FOB51_RS05945" class="clusterblast-orf" id="dummy-1_h1_9_28"  />
</g>
<g id="a1_0029"  >
<polygon points="553,85 558,80 570,80 570,90 558,90 553,85 " style="fill:#15d897; stroke-width:1; stroke:black; " description="&lt;b&gt;FOB51_RS05950&lt;/b&gt;&lt;br&gt;electron transfer flavoprotein subunit alpha&lt;br&gt;Location: 470171 - 471097&lt;br&gt;&lt;br&gt;&lt;b&gt;BlastP hit with GJDDMNIP_02228&lt;/b&gt;&lt;br&gt;Percentage identity: 80&lt;br&gt;Percentage coverage: 100&lt;br&gt;BLAST bit score: 446&lt;br&gt;E-value: 2.88e-157" locus_tag="FOB51_RS05950" class="clusterblast-orf" id="dummy-1_h1_9_29"  />
</g>
<g id="a1_0030"  >
<polygon points="570,85 575,80 584,80 584,90 575,90 570,85 " style="fill:#2f15d8; stroke-width:1; stroke:black; " description="&lt;b&gt;FOB51_RS05955&lt;/b&gt;&lt;br&gt;electron transfer flavoprotein subunit beta/FixA family protein&lt;br&gt;Location: 471097 - 471855&lt;br&gt;&lt;br&gt;&lt;b&gt;BlastP hit with GJDDMNIP_02229&lt;/b&gt;&lt;br&gt;Percentage identity: 92&lt;br&gt;Percentage coverage: 100&lt;br&gt;BLAST bit score: 432&lt;br&gt;E-value: 1.28e-153" locus_tag="FOB51_RS05955" class="clusterblast-orf" id="dummy-1_h1_9_30"  />
</g>
<g id="a1_0031"  >
<polygon points="586,85 591,80 596,80 596,90 591,90 586,85 " style="fill:#d81563; stroke-width:1; stroke:black; " description="&lt;b&gt;FOB51_RS05960&lt;/b&gt;&lt;br&gt;cob(I)yrinic acid a,c-diamide adenosyltransferase&lt;br&gt;Location: 471976 - 472548&lt;br&gt;&lt;br&gt;&lt;b&gt;BlastP hit with GJDDMNIP_02230&lt;/b&gt;&lt;br&gt;Percentage identity: 88&lt;br&gt;Percentage coverage: 100&lt;br&gt;BLAST bit score: 324&lt;br&gt;E-value: 5.47e-113" locus_tag="FOB51_RS05960" class="clusterblast-orf" id="dummy-1_h1_9_31"  />
</g>
<g id="a1_0032"  >
<polygon points="596,85 600,80 600,90 596,85 " style="fill:#b1d815; stroke-width:1; stroke:black; " description="&lt;b&gt;FOB51_RS05965&lt;/b&gt;&lt;br&gt;twin transmembrane helix small protein&lt;br&gt;Location: 472548 - 472748&lt;br&gt;&lt;br&gt;&lt;b&gt;BlastP hit with GJDDMNIP_02231&lt;/b&gt;&lt;br&gt;Percentage identity: 85&lt;br&gt;Percentage coverage: 100&lt;br&gt;BLAST bit score: 123&lt;br&gt;E-value: 3.53e-37" locus_tag="FOB51_RS05965" class="clusterblast-orf" id="dummy-1_h1_9_32"  />
</g>
<g id="a1_0033"  >
<polygon points="600,85 605,80 615,80 615,90 605,90 600,85 " style="fill:#15d8b1; stroke-width:1; stroke:black; " description="&lt;b&gt;FOB51_RS05970&lt;/b&gt;&lt;br&gt;SDR family NAD(P)-dependent oxidoreductase&lt;br&gt;Location: 472773 - 473591&lt;br&gt;&lt;br&gt;&lt;b&gt;BlastP hit with GJDDMNIP_02232&lt;/b&gt;&lt;br&gt;Percentage identity: 80&lt;br&gt;Percentage coverage: 100&lt;br&gt;BLAST bit score: 447&lt;br&gt;E-value: 6.7e-159" locus_tag="FOB51_RS05970" class="clusterblast-orf" id="dummy-1_h1_9_33"  />
</g>
<g id="a1_0034"  >
<polygon points="617,90 653,90 658,85 653,80 617,80 617,90 " style="fill:#4915d8; stroke-width:1; stroke:black; " description="&lt;b&gt;FOB51_RS05975&lt;/b&gt;&lt;br&gt;DNA topoisomerase IV subunit A&lt;br&gt;Location: 473695 - 475926&lt;br&gt;&lt;br&gt;&lt;b&gt;BlastP hit with GJDDMNIP_02233&lt;/b&gt;&lt;br&gt;Percentage identity: 90&lt;br&gt;Percentage coverage: 100&lt;br&gt;BLAST bit score: 1334&lt;br&gt;E-value: 0.0" locus_tag="FOB51_RS05975" class="clusterblast-orf" id="dummy-1_h1_9_34"  />
</g>
<g id="a1_0035"  >
<polygon points="671,85 676,80 689,80 689,90 676,90 671,85 " style="fill:white; stroke-width:1; stroke:black; " description="&lt;b&gt;FOB51_RS05980&lt;/b&gt;&lt;br&gt;tripartite tricarboxylate transporter substrate binding protein&lt;br&gt;Location: 476664 - 477656" locus_tag="FOB51_RS05980" class="clusterblast-orf" id="dummy-1_h1_9_35"  />
</g>
<g id="a1_0036"  >
<polygon points="689,85 694,80 717,80 717,90 694,90 689,85 " style="fill:white; stroke-width:1; stroke:black; " description="&lt;b&gt;FOB51_RS05985&lt;/b&gt;&lt;br&gt;tripartite tricarboxylate transporter permease&lt;br&gt;Location: 477653 - 479161" locus_tag="FOB51_RS05985" class="clusterblast-orf" id="dummy-1_h1_9_36"  />
</g>
<g id="a1_0037"  >
<polygon points="717,85 722,80 725,80 725,90 722,90 717,85 " style="fill:white; stroke-width:1; stroke:black; " description="&lt;b&gt;FOB51_RS05990&lt;/b&gt;&lt;br&gt;tripartite tricarboxylate transporter TctB family protein&lt;br&gt;Location: 479172 - 479633" locus_tag="FOB51_RS05990" class="clusterblast-orf" id="dummy-1_h1_9_37"  />
</g>
<g id="a1_0038"  >
<polygon points="726,85 731,80 744,80 744,90 731,90 726,85 " style="fill:white; stroke-width:1; stroke:black; " description="&lt;b&gt;FOB51_RS05995&lt;/b&gt;&lt;br&gt;tripartite tricarboxylate transporter substrate binding protein BugD&lt;br&gt;Location: 479682 - 480656" locus_tag="FOB51_RS05995" class="clusterblast-orf" id="dummy-1_h1_9_38"  />
</g>
<g id="a1_0039"  >
<polygon points="747,85 752,80 772,80 772,90 752,90 747,85 " style="fill:white; stroke-width:1; stroke:black; " description="&lt;b&gt;FOB51_RS06000&lt;/b&gt;&lt;br&gt;response regulator&lt;br&gt;Location: 480838 - 482181" locus_tag="FOB51_RS06000" class="clusterblast-orf" id="dummy-1_h1_9_39"  />
</g>
</svg>
