<svg xmlns="http://www.w3.org/2000/svg" xmlns:xlink="http://www.w3.org/1999/xlink" version="1.1" x="0" y="0" height="230" width="800" viewBox="0 0 800 230" preserveAspectRatio="none"  >
<g label="Query sequence" class="clusterblast-cluster"  >
<text x="5" y="20" class="clusterblast-acc"  >
Query sequence</text>
<line x1="10" y1="35" x2="778.0" y2="35" style="stroke-width:1; stroke:grey; "  />
<polygon points="0,40 4,40 9,35 4,30 0,30 0,40 " style="fill:#d81515; stroke-width:1; stroke:black; " description="&lt;b&gt;GJDDMNIP_02006&lt;/b&gt;&lt;br&gt;hypothetical protein&lt;br&gt;Location: 177719 - 177836" locus_tag="GJDDMNIP_02006" class="clusterblast-orf" id="dummy-1_q0_0_all"  />
<polygon points="14,40 231,40 236,35 231,30 14,30 14,40 " style="fill:#77d815; stroke-width:1; stroke:black; " description="&lt;b&gt;GJDDMNIP_02007&lt;/b&gt;&lt;br&gt;Negative regulator of genetic competence ClpC/MecB&lt;br&gt;Location: 177898 - 180760" locus_tag="GJDDMNIP_02007" class="clusterblast-orf" id="dummy-1_q1_0_all"  />
<polygon points="241,40 285,40 290,35 285,30 241,30 241,40 " style="fill:#15d8d8; stroke-width:1; stroke:black; " description="&lt;b&gt;GJDDMNIP_02008&lt;/b&gt;&lt;br&gt;hypothetical protein&lt;br&gt;Location: 180828 - 181461" locus_tag="GJDDMNIP_02008" class="clusterblast-orf" id="dummy-1_q2_0_all"  />
<polygon points="295,40 369,40 374,35 369,30 295,30 295,40 " style="fill:#7715d8; stroke-width:1; stroke:black; " description="&lt;b&gt;GJDDMNIP_02009&lt;/b&gt;&lt;br&gt;Dye-decolorizing peroxidase YfeX&lt;br&gt;Location: 181523 - 182546" locus_tag="GJDDMNIP_02009" class="clusterblast-orf" id="dummy-1_q3_0_all"  />
<polygon points="374,40 430,40 435,35 430,30 374,30 374,40 " style="fill:#d8a715; stroke-width:1; stroke:black; " description="&lt;b&gt;GJDDMNIP_02010&lt;/b&gt;&lt;br&gt;Linocin-M18&lt;br&gt;Location: 182547 - 183345" locus_tag="GJDDMNIP_02010" class="clusterblast-orf" id="dummy-1_q4_0_all"  />
<polygon points="436,40 500,40 505,35 500,30 436,30 436,40 " style="fill:#15d846; stroke-width:1; stroke:black; " description="&lt;b&gt;GJDDMNIP_02011&lt;/b&gt;&lt;br&gt;hypothetical protein&lt;br&gt;Location: 183351 - 184242" locus_tag="GJDDMNIP_02011" class="clusterblast-orf" id="dummy-1_q5_0_all"  />
<polygon points="528,40 623,40 628,35 623,30 528,30 528,40 " style="fill:#1546d8; stroke-width:1; stroke:black; " description="&lt;b&gt;GJDDMNIP_02012&lt;/b&gt;&lt;br&gt;Aliphatic amidase expression-regulating protein&lt;br&gt;Location: 184547 - 185834" locus_tag="GJDDMNIP_02012" class="clusterblast-orf" id="dummy-1_q6_0_all"  />
<polygon points="632,40 775,40 780,35 775,30 632,30 632,40 " style="fill:#d815a7; stroke-width:1; stroke:black; " description="&lt;b&gt;GJDDMNIP_02013&lt;/b&gt;&lt;br&gt;hypothetical protein&lt;br&gt;Location: 185888 - 187802" locus_tag="GJDDMNIP_02013" class="clusterblast-orf" id="dummy-1_q7_0_all"  />
</g>
<g label="NZ_UBRD01000024" description="NZ_UBRD01000024 (13915-24740): Rhizobiales bacterium isolate AFS025464, whole... (50% of genes show similarity), bacteriocin" class="clusterblast-cluster"  >
<text x="5" y="70" class="clusterblast-acc"  >
<a xlink:href="https://antismash-db.secondarymetabolites.org/area.html?record=NZ_UBRD01000024&amp;start=13915&amp;end=24740" target="_blank">NZ_UBRD01000024 (13915-24740)</a>: Rhizobiales bacterium isolate AFS025464, whole... (50% of genes show similarity), bacteriocin</text>
<line x1="10" y1="85" x2="778.0" y2="85" style="stroke-width:1; stroke:grey; "  />
</g>
<g id="a1_000"  >
<polygon points="26,90 62,90 67,85 62,80 26,80 26,90 " style="fill:white; stroke-width:1; stroke:black; " description="&lt;b&gt;DUK82_RS30965&lt;/b&gt;&lt;br&gt;DUF1269 domain-containing protein&lt;br&gt;Location: 14017 - 14547" locus_tag="DUK82_RS30965" class="clusterblast-orf" id="dummy-1_h1_8_0"  />
</g>
<g id="a1_001"  >
<polygon points="72,90 268,90 273,85 268,80 72,80 72,90 " style="fill:#77d815; stroke-width:1; stroke:black; " description="&lt;b&gt;DUK82_RS30970&lt;/b&gt;&lt;br&gt;ATP-dependent chaperone ClpB&lt;br&gt;Location: 14606 - 17206&lt;br&gt;&lt;br&gt;&lt;b&gt;BlastP hit with GJDDMNIP_02007&lt;/b&gt;&lt;br&gt;Percentage identity: 47&lt;br&gt;Percentage coverage: 90&lt;br&gt;BLAST bit score: 702&lt;br&gt;E-value: 1.67e-239" locus_tag="DUK82_RS30970" class="clusterblast-orf" id="dummy-1_h1_8_1"  />
</g>
<g id="a1_002"  >
<polygon points="278,90 297,90 302,85 297,80 278,80 278,90 " style="fill:white; stroke-width:1; stroke:black; " description="&lt;b&gt;DUK82_RS30975&lt;/b&gt;&lt;br&gt;DUF2171 domain-containing protein&lt;br&gt;Location: 17266 - 17580" locus_tag="DUK82_RS30975" class="clusterblast-orf" id="dummy-1_h1_8_2"  />
</g>
<g id="a1_003"  >
<polygon points="307,90 321,90 326,85 321,80 307,80 307,90 " style="fill:white; stroke-width:1; stroke:black; " description="&lt;b&gt;DUK82_RS30980&lt;/b&gt;&lt;br&gt;hypothetical protein&lt;br&gt;Location: 17641 - 17895" locus_tag="DUK82_RS30980" class="clusterblast-orf" id="dummy-1_h1_8_3"  />
</g>
<g id="a1_004"  >
<polygon points="322,90 400,90 405,85 400,80 322,80 322,90 " style="fill:#7715d8; stroke-width:1; stroke:black; " description="&lt;b&gt;DUK82_RS30985&lt;/b&gt;&lt;br&gt;Dyp-type peroxidase&lt;br&gt;Location: 17844 - 18914&lt;br&gt;&lt;br&gt;&lt;b&gt;BlastP hit with GJDDMNIP_02009&lt;/b&gt;&lt;br&gt;Percentage identity: 55&lt;br&gt;Percentage coverage: 101&lt;br&gt;BLAST bit score: 363&lt;br&gt;E-value: 1.68e-123" locus_tag="DUK82_RS30985" class="clusterblast-orf" id="dummy-1_h1_8_4"  />
</g>
<g id="a1_005"  >
<polygon points="405,90 464,90 469,85 464,80 405,80 405,90 " style="fill:#d8a715; stroke-width:1; stroke:black; " description="&lt;b&gt;DUK82_RS30990&lt;/b&gt;&lt;br&gt;bacteriocin family protein&lt;br&gt;Location: 18916 - 19740&lt;br&gt;&lt;br&gt;&lt;b&gt;BlastP hit with GJDDMNIP_02010&lt;/b&gt;&lt;br&gt;Percentage identity: 61&lt;br&gt;Percentage coverage: 99&lt;br&gt;BLAST bit score: 325&lt;br&gt;E-value: 6.63e-111" locus_tag="DUK82_RS30990" class="clusterblast-orf" id="dummy-1_h1_8_5"  />
</g>
<g id="a1_006"  >
<polygon points="483,85 488,80 555,80 555,90 488,90 483,85 " style="fill:#15d846; stroke-width:1; stroke:black; " description="&lt;b&gt;DUK82_RS30995&lt;/b&gt;&lt;br&gt;bestrophin&lt;br&gt;Location: 19923 - 20849&lt;br&gt;&lt;br&gt;&lt;b&gt;BlastP hit with GJDDMNIP_02011&lt;/b&gt;&lt;br&gt;Percentage identity: 39&lt;br&gt;Percentage coverage: 103&lt;br&gt;BLAST bit score: 200&lt;br&gt;E-value: 8.17e-61" locus_tag="DUK82_RS30995" class="clusterblast-orf" id="dummy-1_h1_8_6"  />
</g>
<g id="a1_007"  >
<polygon points="577,90 748,90 753,85 748,80 577,80 577,90 " style="fill:white; stroke-width:1; stroke:black; " description="&lt;b&gt;DUK82_RS31000&lt;/b&gt;&lt;br&gt;FdhF/YdeP family oxidoreductase&lt;br&gt;Location: 21138 - 23405" locus_tag="DUK82_RS31000" class="clusterblast-orf" id="dummy-1_h1_8_7"  />
</g>
</svg>
