<svg xmlns="http://www.w3.org/2000/svg" xmlns:xlink="http://www.w3.org/1999/xlink" version="1.1" x="0" y="0" height="230" width="800" viewBox="0 0 800 230" preserveAspectRatio="none"  >
<g label="Query sequence" class="clusterblast-cluster"  >
<text x="5" y="20" class="clusterblast-acc"  >
Query sequence</text>
<line x1="10" y1="35" x2="778.0" y2="35" style="stroke-width:1; stroke:grey; "  />
<polygon points="0,35 5,30 36,30 36,40 5,40 0,35 " style="fill:#d81515; stroke-width:1; stroke:black; " description="&lt;b&gt;GJDDMNIP_00415&lt;/b&gt;&lt;br&gt;2,3-diketo-L-gulonate-binding periplasmic protein YiaO&lt;br&gt;Location: 68686 - 69679" locus_tag="GJDDMNIP_00415" class="clusterblast-orf" id="dummy-1_q0_0_all"  />
<polygon points="40,40 62,40 67,35 62,30 40,30 40,40 " style="fill:#4dd815; stroke-width:1; stroke:black; " description="&lt;b&gt;GJDDMNIP_00416&lt;/b&gt;&lt;br&gt;Glycerol operon regulatory protein&lt;br&gt;Location: 69786 - 70542" locus_tag="GJDDMNIP_00416" class="clusterblast-orf" id="dummy-1_q1_0_all"  />
<polygon points="60,35 65,30 89,30 89,40 65,40 60,35 " style="fill:#15bcd8; stroke-width:1; stroke:black; " description="&lt;b&gt;GJDDMNIP_00417&lt;/b&gt;&lt;br&gt;hypothetical protein&lt;br&gt;Location: 70346 - 71132" locus_tag="GJDDMNIP_00417" class="clusterblast-orf" id="dummy-1_q2_0_all"  />
<polygon points="92,35 97,30 105,30 105,40 97,40 92,35 " style="fill:#8515d8; stroke-width:1; stroke:black; " description="&lt;b&gt;GJDDMNIP_00418&lt;/b&gt;&lt;br&gt;HTH-type transcriptional regulator CueR&lt;br&gt;Location: 71230 - 71593" locus_tag="GJDDMNIP_00418" class="clusterblast-orf" id="dummy-1_q3_0_all"  />
<polygon points="108,40 149,40 154,35 149,30 108,30 108,40 " style="fill:#d84d15; stroke-width:1; stroke:black; " description="&lt;b&gt;GJDDMNIP_00419&lt;/b&gt;&lt;br&gt;NADPH dehydrogenase&lt;br&gt;Location: 71666 - 72944" locus_tag="GJDDMNIP_00419" class="clusterblast-orf" id="dummy-1_q4_0_all"  />
<polygon points="155,40 175,40 180,35 175,30 155,30 155,40 " style="fill:#15d815; stroke-width:1; stroke:black; " description="&lt;b&gt;GJDDMNIP_00420&lt;/b&gt;&lt;br&gt;hypothetical protein&lt;br&gt;Location: 72957 - 73647" locus_tag="GJDDMNIP_00420" class="clusterblast-orf" id="dummy-1_q5_0_all"  />
<polygon points="183,35 188,30 255,30 255,40 188,40 183,35 " style="fill:#1585d8; stroke-width:1; stroke:black; " description="&lt;b&gt;GJDDMNIP_00421&lt;/b&gt;&lt;br&gt;hypothetical protein&lt;br&gt;Location: 73736 - 75728" locus_tag="GJDDMNIP_00421" class="clusterblast-orf" id="dummy-1_q6_0_all"  />
<polygon points="261,35 266,30 325,30 325,40 266,40 261,35 " style="fill:#bc15d8; stroke-width:1; stroke:black; " description="&lt;b&gt;GJDDMNIP_00422&lt;/b&gt;&lt;br&gt;hypothetical protein&lt;br&gt;Location: 75895 - 77659" locus_tag="GJDDMNIP_00422" class="clusterblast-orf" id="dummy-1_q7_0_all"  />
<polygon points="330,40 342,40 347,35 342,30 330,30 330,40 " style="fill:#d88515; stroke-width:1; stroke:black; " description="&lt;b&gt;GJDDMNIP_00423&lt;/b&gt;&lt;br&gt;hypothetical protein&lt;br&gt;Location: 77788 - 78265" locus_tag="GJDDMNIP_00423" class="clusterblast-orf" id="dummy-1_q8_0_all"  />
<polygon points="350,40 386,40 391,35 386,30 350,30 350,40 " style="fill:#15d84d; stroke-width:1; stroke:black; " description="&lt;b&gt;GJDDMNIP_00424&lt;/b&gt;&lt;br&gt;hypothetical protein&lt;br&gt;Location: 78351 - 79482" locus_tag="GJDDMNIP_00424" class="clusterblast-orf" id="dummy-1_q9_0_all"  />
<polygon points="391,40 435,40 440,35 435,30 391,30 391,40 " style="fill:#154dd8; stroke-width:1; stroke:black; " description="&lt;b&gt;GJDDMNIP_00425&lt;/b&gt;&lt;br&gt;hypothetical protein&lt;br&gt;Location: 79478 - 80834" locus_tag="GJDDMNIP_00425" class="clusterblast-orf" id="dummy-1_q10_0_all"  />
<polygon points="442,40 457,40 462,35 457,30 442,30 442,40 " style="fill:#d815bc; stroke-width:1; stroke:black; " description="&lt;b&gt;GJDDMNIP_00426&lt;/b&gt;&lt;br&gt;hypothetical protein&lt;br&gt;Location: 80883 - 81429" locus_tag="GJDDMNIP_00426" class="clusterblast-orf" id="dummy-1_q11_0_all"  />
<polygon points="468,35 473,30 507,30 507,40 473,40 468,35 " style="fill:#d8bc15; stroke-width:1; stroke:black; " description="&lt;b&gt;GJDDMNIP_00427&lt;/b&gt;&lt;br&gt;hypothetical protein&lt;br&gt;Location: 81585 - 82668" locus_tag="GJDDMNIP_00427" class="clusterblast-orf" id="dummy-1_q12_0_all"  />
<polygon points="511,40 532,40 537,35 532,30 511,30 511,40 " style="fill:#15d885; stroke-width:1; stroke:black; " description="&lt;b&gt;GJDDMNIP_00428&lt;/b&gt;&lt;br&gt;CRP-like cAMP-activated global transcriptional regulator&lt;br&gt;Location: 82788 - 83490" locus_tag="GJDDMNIP_00428" class="clusterblast-orf" id="dummy-1_q13_0_all"  />
<polygon points="542,40 543,40 548,35 543,30 542,30 542,40 " style="fill:#1515d8; stroke-width:1; stroke:black; " description="&lt;b&gt;GJDDMNIP_00429&lt;/b&gt;&lt;br&gt;hypothetical protein&lt;br&gt;Location: 83639 - 83804" locus_tag="GJDDMNIP_00429" class="clusterblast-orf" id="dummy-1_q14_0_all"  />
<polygon points="551,40 582,40 587,35 582,30 551,30 551,40 " style="fill:#d81585; stroke-width:1; stroke:black; " description="&lt;b&gt;GJDDMNIP_00430&lt;/b&gt;&lt;br&gt;4-hydroxyproline 2-epimerase 2&lt;br&gt;Location: 83883 - 84885" locus_tag="GJDDMNIP_00430" class="clusterblast-orf" id="dummy-1_q15_0_all"  />
<polygon points="596,35 601,30 629,30 629,40 601,40 596,35 " style="fill:#bcd815; stroke-width:1; stroke:black; " description="&lt;b&gt;GJDDMNIP_00431&lt;/b&gt;&lt;br&gt;HTH-type transcriptional activator CmpR&lt;br&gt;Location: 85125 - 86046" locus_tag="GJDDMNIP_00431" class="clusterblast-orf" id="dummy-1_q16_0_all"  />
<polygon points="634,40 671,40 676,35 671,30 634,30 634,40 " style="fill:#15d8bc; stroke-width:1; stroke:black; " description="&lt;b&gt;GJDDMNIP_00432&lt;/b&gt;&lt;br&gt;Carnitine monooxygenase oxygenase subunit&lt;br&gt;Location: 86174 - 87329" locus_tag="GJDDMNIP_00432" class="clusterblast-orf" id="dummy-1_q17_0_all"  />
<polygon points="680,40 686,40 691,35 686,30 680,30 680,40 " style="fill:#4d15d8; stroke-width:1; stroke:black; " description="&lt;b&gt;GJDDMNIP_00433&lt;/b&gt;&lt;br&gt;Rhodocoxin&lt;br&gt;Location: 87438 - 87759" locus_tag="GJDDMNIP_00433" class="clusterblast-orf" id="dummy-1_q18_0_all"  />
<polygon points="700,35 705,30 744,30 744,40 705,40 700,35 " style="fill:#d8154d; stroke-width:1; stroke:black; " description="&lt;b&gt;GJDDMNIP_00434&lt;/b&gt;&lt;br&gt;Dicamba O-demethylase 1, ferredoxin reductase component&lt;br&gt;Location: 87991 - 89197" locus_tag="GJDDMNIP_00434" class="clusterblast-orf" id="dummy-1_q19_0_all"  />
<polygon points="745,35 750,30 780,30 780,40 750,40 745,35 " style="fill:#85d815; stroke-width:1; stroke:black; " description="&lt;b&gt;GJDDMNIP_00435&lt;/b&gt;&lt;br&gt;Inner membrane ABC transporter permease protein YdcV&lt;br&gt;Location: 89244 - 90198" locus_tag="GJDDMNIP_00435" class="clusterblast-orf" id="dummy-1_q20_0_all"  />
</g>
<g label="NZ_KQ955209" description="NZ_KQ955209 (227552-250116): Paracoccus aminovorans strain HPD-2 Scaffold2, w... (43% of genes show similarity), TfuA-related" class="clusterblast-cluster"  >
<text x="5" y="70" class="clusterblast-acc"  >
<a xlink:href="https://antismash-db.secondarymetabolites.org/area.html?record=NZ_KQ955209&amp;start=227552&amp;end=250116" target="_blank">NZ_KQ955209 (227552-250116)</a>: Paracoccus aminovorans strain HPD-2 Scaffold2, w... (43% of genes show similarity), TfuA-related</text>
<line x1="10" y1="85" x2="778.0" y2="85" style="stroke-width:1; stroke:grey; "  />
</g>
<g id="a1_000"  >
<polygon points="9,85 14,80 39,80 39,90 14,90 9,85 " style="fill:white; stroke-width:1; stroke:black; " description="&lt;b&gt;ASV56_RS13130&lt;/b&gt;&lt;br&gt;ABC transporter permease&lt;br&gt;Location: 249688 - 248855" locus_tag="ASV56_RS13130" class="clusterblast-orf" id="dummy-1_h1_4_0"  />
</g>
<g id="a1_001"  >
<polygon points="41,85 46,80 76,80 76,90 46,90 41,85 " style="fill:white; stroke-width:1; stroke:black; " description="&lt;b&gt;ASV56_RS13125&lt;/b&gt;&lt;br&gt;ABC transporter permease&lt;br&gt;Location: 248805 - 247834" locus_tag="ASV56_RS13125" class="clusterblast-orf" id="dummy-1_h1_4_1"  />
</g>
<g id="a1_002"  >
<polygon points="77,85 82,80 135,80 135,90 82,90 77,85 " style="fill:white; stroke-width:1; stroke:black; " description="&lt;b&gt;ASV56_RS13120&lt;/b&gt;&lt;br&gt;ABC transporter substrate-binding protein&lt;br&gt;Location: 247815 - 246223" locus_tag="ASV56_RS13120" class="clusterblast-orf" id="dummy-1_h1_4_2"  />
</g>
<g id="a1_003"  >
<polygon points="139,85 144,80 173,80 173,90 144,90 139,85 " style="fill:white; stroke-width:1; stroke:black; " description="&lt;b&gt;ASV56_RS13115&lt;/b&gt;&lt;br&gt;LysR family transcriptional regulator&lt;br&gt;Location: 246116 - 245172" locus_tag="ASV56_RS13115" class="clusterblast-orf" id="dummy-1_h1_4_3"  />
</g>
<g id="a1_004"  >
<polygon points="177,90 231,90 236,85 231,80 177,80 177,90 " style="fill:white; stroke-width:1; stroke:black; " description="&lt;b&gt;ASV56_RS13110&lt;/b&gt;&lt;br&gt;amidohydrolase&lt;br&gt;Location: 245066 - 243432" locus_tag="ASV56_RS13110" class="clusterblast-orf" id="dummy-1_h1_4_4"  />
</g>
<g id="a1_005"  >
<polygon points="236,90 265,90 270,85 265,80 236,80 236,90 " style="fill:white; stroke-width:1; stroke:black; " description="&lt;b&gt;ASV56_RS13105&lt;/b&gt;&lt;br&gt;GTP-binding protein&lt;br&gt;Location: 243429 - 242500" locus_tag="ASV56_RS13105" class="clusterblast-orf" id="dummy-1_h1_4_5"  />
</g>
<g id="a1_006"  >
<polygon points="270,85 275,80 334,80 334,90 275,90 270,85 " style="fill:#bc15d8; stroke-width:1; stroke:black; " description="&lt;b&gt;ASV56_RS13100&lt;/b&gt;&lt;br&gt;tetratricopeptide repeat protein&lt;br&gt;Location: 242486 - 240720&lt;br&gt;&lt;br&gt;&lt;b&gt;BlastP hit with GJDDMNIP_00422&lt;/b&gt;&lt;br&gt;Percentage identity: 87&lt;br&gt;Percentage coverage: 100&lt;br&gt;BLAST bit score: 1003&lt;br&gt;E-value: 0.0" locus_tag="ASV56_RS13100" class="clusterblast-orf" id="dummy-1_h1_4_6"  />
</g>
<g id="a1_007"  >
<polygon points="339,90 351,90 356,85 351,80 339,80 339,90 " style="fill:#d88515; stroke-width:1; stroke:black; " description="&lt;b&gt;ASV56_RS13095&lt;/b&gt;&lt;br&gt;GNAT family N-acetyltransferase&lt;br&gt;Location: 240589 - 240113&lt;br&gt;&lt;br&gt;&lt;b&gt;BlastP hit with GJDDMNIP_00423&lt;/b&gt;&lt;br&gt;Percentage identity: 90&lt;br&gt;Percentage coverage: 98&lt;br&gt;BLAST bit score: 283&lt;br&gt;E-value: 1.44e-97" locus_tag="ASV56_RS13095" class="clusterblast-orf" id="dummy-1_h1_4_7"  />
</g>
<g id="a1_008"  >
<polygon points="356,90 395,90 400,85 395,80 356,80 356,90 " style="fill:#15d84d; stroke-width:1; stroke:black; " description="&lt;b&gt;ASV56_RS13090&lt;/b&gt;&lt;br&gt;YcaO-like family protein&lt;br&gt;Location: 240116 - 238905&lt;br&gt;&lt;br&gt;&lt;b&gt;BlastP hit with GJDDMNIP_00424&lt;/b&gt;&lt;br&gt;Percentage identity: 84&lt;br&gt;Percentage coverage: 98&lt;br&gt;BLAST bit score: 647&lt;br&gt;E-value: 4.52e-234" locus_tag="ASV56_RS13090" class="clusterblast-orf" id="dummy-1_h1_4_8"  />
</g>
<g id="a1_009"  >
<polygon points="400,90 444,90 449,85 444,80 400,80 400,90 " style="fill:#154dd8; stroke-width:1; stroke:black; " description="&lt;b&gt;ASV56_RS13085&lt;/b&gt;&lt;br&gt;hypothetical protein&lt;br&gt;Location: 238908 - 237553&lt;br&gt;&lt;br&gt;&lt;b&gt;BlastP hit with GJDDMNIP_00425&lt;/b&gt;&lt;br&gt;Percentage identity: 78&lt;br&gt;Percentage coverage: 100&lt;br&gt;BLAST bit score: 689&lt;br&gt;E-value: 1.3e-248" locus_tag="ASV56_RS13085" class="clusterblast-orf" id="dummy-1_h1_4_9"  />
</g>
<g id="a1_0010"  >
<polygon points="451,90 466,90 471,85 466,80 451,80 451,90 " style="fill:#d815bc; stroke-width:1; stroke:black; " description="&lt;b&gt;ASV56_RS13080&lt;/b&gt;&lt;br&gt;hypothetical protein&lt;br&gt;Location: 237486 - 236944&lt;br&gt;&lt;br&gt;&lt;b&gt;BlastP hit with GJDDMNIP_00426&lt;/b&gt;&lt;br&gt;Percentage identity: 81&lt;br&gt;Percentage coverage: 100&lt;br&gt;BLAST bit score: 272&lt;br&gt;E-value: 1e-92" locus_tag="ASV56_RS13080" class="clusterblast-orf" id="dummy-1_h1_4_10"  />
</g>
<g id="a1_0011"  >
<polygon points="476,85 481,80 514,80 514,90 481,90 476,85 " style="fill:#d8bc15; stroke-width:1; stroke:black; " description="&lt;b&gt;ASV56_RS13075&lt;/b&gt;&lt;br&gt;hypothetical protein&lt;br&gt;Location: 236796 - 235762&lt;br&gt;&lt;br&gt;&lt;b&gt;BlastP hit with GJDDMNIP_00427&lt;/b&gt;&lt;br&gt;Percentage identity: 68&lt;br&gt;Percentage coverage: 95&lt;br&gt;BLAST bit score: 403&lt;br&gt;E-value: 7.86e-139" locus_tag="ASV56_RS13075" class="clusterblast-orf" id="dummy-1_h1_4_11"  />
</g>
<g id="a1_0012"  >
<polygon points="520,90 540,90 545,85 540,80 520,80 520,90 " style="fill:#15d885; stroke-width:1; stroke:black; " description="&lt;b&gt;ASV56_RS13070&lt;/b&gt;&lt;br&gt;Crp/Fnr family transcriptional regulator&lt;br&gt;Location: 235597 - 234908&lt;br&gt;&lt;br&gt;&lt;b&gt;BlastP hit with GJDDMNIP_00428&lt;/b&gt;&lt;br&gt;Percentage identity: 86&lt;br&gt;Percentage coverage: 97&lt;br&gt;BLAST bit score: 381&lt;br&gt;E-value: 3.4e-134" locus_tag="ASV56_RS13070" class="clusterblast-orf" id="dummy-1_h1_4_12"  />
</g>
<g id="a1_0013"  >
<polygon points="549,90 581,90 586,85 581,80 549,80 549,90 " style="fill:white; stroke-width:1; stroke:black; " description="&lt;b&gt;ASV56_RS22830&lt;/b&gt;&lt;br&gt;hypothetical protein&lt;br&gt;Location: 234802 - 233781" locus_tag="ASV56_RS22830" class="clusterblast-orf" id="dummy-1_h1_4_13"  />
</g>
<g id="a1_0014"  >
<polygon points="590,90 703,90 708,85 703,80 590,80 590,90 " style="fill:white; stroke-width:1; stroke:black; " description="&lt;b&gt;ASV56_RS13055&lt;/b&gt;&lt;br&gt;response regulator&lt;br&gt;Location: 233673 - 230398" locus_tag="ASV56_RS13055" class="clusterblast-orf" id="dummy-1_h1_4_14"  />
</g>
<g id="a1_0015"  >
<polygon points="727,85 732,80 770,80 770,90 732,90 727,85 " style="fill:white; stroke-width:1; stroke:black; " description="&lt;b&gt;ASV56_RS13050&lt;/b&gt;&lt;br&gt;hypothetical protein&lt;br&gt;Location: 229886 - 228702" locus_tag="ASV56_RS13050" class="clusterblast-orf" id="dummy-1_h1_4_15"  />
</g>
</svg>
