<svg xmlns="http://www.w3.org/2000/svg" xmlns:xlink="http://www.w3.org/1999/xlink" version="1.1" x="0" y="0" height="230" width="800" viewBox="0 0 800 230" preserveAspectRatio="none"  >
<g label="Query sequence" class="clusterblast-cluster"  >
<text x="5" y="20" class="clusterblast-acc"  >
Query sequence</text>
<line x1="10" y1="35" x2="778.0" y2="35" style="stroke-width:1; stroke:grey; "  />
<polygon points="190,35 195,30 209,30 209,40 195,40 190,35 " style="fill:#d81515; stroke-width:1; stroke:black; " description="&lt;b&gt;GJDDMNIP_00415&lt;/b&gt;&lt;br&gt;2,3-diketo-L-gulonate-binding periplasmic protein YiaO&lt;br&gt;Location: 68686 - 69679" locus_tag="GJDDMNIP_00415" class="clusterblast-orf" id="dummy-1_q0_0_all"  />
<polygon points="211,40 220,40 225,35 220,30 211,30 211,40 " style="fill:#4dd815; stroke-width:1; stroke:black; " description="&lt;b&gt;GJDDMNIP_00416&lt;/b&gt;&lt;br&gt;Glycerol operon regulatory protein&lt;br&gt;Location: 69786 - 70542" locus_tag="GJDDMNIP_00416" class="clusterblast-orf" id="dummy-1_q1_0_all"  />
<polygon points="221,35 226,30 236,30 236,40 226,40 221,35 " style="fill:#15bcd8; stroke-width:1; stroke:black; " description="&lt;b&gt;GJDDMNIP_00417&lt;/b&gt;&lt;br&gt;hypothetical protein&lt;br&gt;Location: 70346 - 71132" locus_tag="GJDDMNIP_00417" class="clusterblast-orf" id="dummy-1_q2_0_all"  />
<polygon points="237,35 242,30 244,30 244,40 242,40 237,35 " style="fill:#8515d8; stroke-width:1; stroke:black; " description="&lt;b&gt;GJDDMNIP_00418&lt;/b&gt;&lt;br&gt;HTH-type transcriptional regulator CueR&lt;br&gt;Location: 71230 - 71593" locus_tag="GJDDMNIP_00418" class="clusterblast-orf" id="dummy-1_q3_0_all"  />
<polygon points="245,40 264,40 269,35 264,30 245,30 245,40 " style="fill:#d84d15; stroke-width:1; stroke:black; " description="&lt;b&gt;GJDDMNIP_00419&lt;/b&gt;&lt;br&gt;NADPH dehydrogenase&lt;br&gt;Location: 71666 - 72944" locus_tag="GJDDMNIP_00419" class="clusterblast-orf" id="dummy-1_q4_0_all"  />
<polygon points="269,40 277,40 282,35 277,30 269,30 269,40 " style="fill:#15d815; stroke-width:1; stroke:black; " description="&lt;b&gt;GJDDMNIP_00420&lt;/b&gt;&lt;br&gt;hypothetical protein&lt;br&gt;Location: 72957 - 73647" locus_tag="GJDDMNIP_00420" class="clusterblast-orf" id="dummy-1_q5_0_all"  />
<polygon points="284,35 289,30 321,30 321,40 289,40 284,35 " style="fill:#1585d8; stroke-width:1; stroke:black; " description="&lt;b&gt;GJDDMNIP_00421&lt;/b&gt;&lt;br&gt;hypothetical protein&lt;br&gt;Location: 73736 - 75728" locus_tag="GJDDMNIP_00421" class="clusterblast-orf" id="dummy-1_q6_0_all"  />
<polygon points="324,35 329,30 357,30 357,40 329,40 324,35 " style="fill:#bc15d8; stroke-width:1; stroke:black; " description="&lt;b&gt;GJDDMNIP_00422&lt;/b&gt;&lt;br&gt;hypothetical protein&lt;br&gt;Location: 75895 - 77659" locus_tag="GJDDMNIP_00422" class="clusterblast-orf" id="dummy-1_q7_0_all"  />
<polygon points="359,40 363,40 368,35 363,30 359,30 359,40 " style="fill:#d88515; stroke-width:1; stroke:black; " description="&lt;b&gt;GJDDMNIP_00423&lt;/b&gt;&lt;br&gt;hypothetical protein&lt;br&gt;Location: 77788 - 78265" locus_tag="GJDDMNIP_00423" class="clusterblast-orf" id="dummy-1_q8_0_all"  />
<polygon points="369,40 385,40 390,35 385,30 369,30 369,40 " style="fill:#15d84d; stroke-width:1; stroke:black; " description="&lt;b&gt;GJDDMNIP_00424&lt;/b&gt;&lt;br&gt;hypothetical protein&lt;br&gt;Location: 78351 - 79482" locus_tag="GJDDMNIP_00424" class="clusterblast-orf" id="dummy-1_q9_0_all"  />
<polygon points="390,40 411,40 416,35 411,30 390,30 390,40 " style="fill:#154dd8; stroke-width:1; stroke:black; " description="&lt;b&gt;GJDDMNIP_00425&lt;/b&gt;&lt;br&gt;hypothetical protein&lt;br&gt;Location: 79478 - 80834" locus_tag="GJDDMNIP_00425" class="clusterblast-orf" id="dummy-1_q10_0_all"  />
<polygon points="416,40 422,40 427,35 422,30 416,30 416,40 " style="fill:#d815bc; stroke-width:1; stroke:black; " description="&lt;b&gt;GJDDMNIP_00426&lt;/b&gt;&lt;br&gt;hypothetical protein&lt;br&gt;Location: 80883 - 81429" locus_tag="GJDDMNIP_00426" class="clusterblast-orf" id="dummy-1_q11_0_all"  />
<polygon points="429,35 434,30 450,30 450,40 434,40 429,35 " style="fill:#d8bc15; stroke-width:1; stroke:black; " description="&lt;b&gt;GJDDMNIP_00427&lt;/b&gt;&lt;br&gt;hypothetical protein&lt;br&gt;Location: 81585 - 82668" locus_tag="GJDDMNIP_00427" class="clusterblast-orf" id="dummy-1_q12_0_all"  />
<polygon points="452,40 460,40 465,35 460,30 452,30 452,40 " style="fill:#15d885; stroke-width:1; stroke:black; " description="&lt;b&gt;GJDDMNIP_00428&lt;/b&gt;&lt;br&gt;CRP-like cAMP-activated global transcriptional regulator&lt;br&gt;Location: 82788 - 83490" locus_tag="GJDDMNIP_00428" class="clusterblast-orf" id="dummy-1_q13_0_all"  />
<polygon points="468,40 471,35 468,30 468,40 " style="fill:#1515d8; stroke-width:1; stroke:black; " description="&lt;b&gt;GJDDMNIP_00429&lt;/b&gt;&lt;br&gt;hypothetical protein&lt;br&gt;Location: 83639 - 83804" locus_tag="GJDDMNIP_00429" class="clusterblast-orf" id="dummy-1_q14_0_all"  />
<polygon points="472,40 486,40 491,35 486,30 472,30 472,40 " style="fill:#d81585; stroke-width:1; stroke:black; " description="&lt;b&gt;GJDDMNIP_00430&lt;/b&gt;&lt;br&gt;4-hydroxyproline 2-epimerase 2&lt;br&gt;Location: 83883 - 84885" locus_tag="GJDDMNIP_00430" class="clusterblast-orf" id="dummy-1_q15_0_all"  />
<polygon points="495,35 500,30 512,30 512,40 500,40 495,35 " style="fill:#bcd815; stroke-width:1; stroke:black; " description="&lt;b&gt;GJDDMNIP_00431&lt;/b&gt;&lt;br&gt;HTH-type transcriptional activator CmpR&lt;br&gt;Location: 85125 - 86046" locus_tag="GJDDMNIP_00431" class="clusterblast-orf" id="dummy-1_q16_0_all"  />
<polygon points="515,40 531,40 536,35 531,30 515,30 515,40 " style="fill:#15d8bc; stroke-width:1; stroke:black; " description="&lt;b&gt;GJDDMNIP_00432&lt;/b&gt;&lt;br&gt;Carnitine monooxygenase oxygenase subunit&lt;br&gt;Location: 86174 - 87329" locus_tag="GJDDMNIP_00432" class="clusterblast-orf" id="dummy-1_q17_0_all"  />
<polygon points="538,40 539,40 544,35 539,30 538,30 538,40 " style="fill:#4d15d8; stroke-width:1; stroke:black; " description="&lt;b&gt;GJDDMNIP_00433&lt;/b&gt;&lt;br&gt;Rhodocoxin&lt;br&gt;Location: 87438 - 87759" locus_tag="GJDDMNIP_00433" class="clusterblast-orf" id="dummy-1_q18_0_all"  />
<polygon points="548,35 553,30 571,30 571,40 553,40 548,35 " style="fill:#d8154d; stroke-width:1; stroke:black; " description="&lt;b&gt;GJDDMNIP_00434&lt;/b&gt;&lt;br&gt;Dicamba O-demethylase 1, ferredoxin reductase component&lt;br&gt;Location: 87991 - 89197" locus_tag="GJDDMNIP_00434" class="clusterblast-orf" id="dummy-1_q19_0_all"  />
<polygon points="571,35 576,30 589,30 589,40 576,40 571,35 " style="fill:#85d815; stroke-width:1; stroke:black; " description="&lt;b&gt;GJDDMNIP_00435&lt;/b&gt;&lt;br&gt;Inner membrane ABC transporter permease protein YdcV&lt;br&gt;Location: 89244 - 90198" locus_tag="GJDDMNIP_00435" class="clusterblast-orf" id="dummy-1_q20_0_all"  />
</g>
<g label="NZ_CP024422" description="NZ_CP024422 (815376-857435): Paracoccus yeei strain TT13 chromosome, complete... (13% of genes show similarity), NRPS,TfuA-related" class="clusterblast-cluster"  >
<text x="5" y="70" class="clusterblast-acc"  >
<a xlink:href="https://antismash-db.secondarymetabolites.org/area.html?record=NZ_CP024422&amp;start=815376&amp;end=857435" target="_blank">NZ_CP024422 (815376-857435)</a>: Paracoccus yeei strain TT13 chromosome, complete... (13% of genes show similarity), NRPS,TfuA-related</text>
<line x1="10" y1="85" x2="778.0" y2="85" style="stroke-width:1; stroke:grey; "  />
</g>
<g id="a1_000"  >
<polygon points="0,90 19,90 24,85 19,80 0,80 0,90 " style="fill:white; stroke-width:1; stroke:black; " description="&lt;b&gt;PYTT13_RS04235&lt;/b&gt;&lt;br&gt;FAD-binding oxidoreductase&lt;br&gt;Location: 857435 - 856137" locus_tag="PYTT13_RS04235" class="clusterblast-orf" id="dummy-1_h1_9_0"  />
</g>
<g id="a1_001"  >
<polygon points="24,90 26,90 31,85 26,80 24,80 24,90 " style="fill:white; stroke-width:1; stroke:black; " description="&lt;b&gt;PYTT13_RS04230&lt;/b&gt;&lt;br&gt;DUF861 domain-containing protein&lt;br&gt;Location: 856114 - 855758" locus_tag="PYTT13_RS04230" class="clusterblast-orf" id="dummy-1_h1_9_1"  />
</g>
<g id="a1_002"  >
<polygon points="32,90 45,90 50,85 45,80 32,80 32,90 " style="fill:white; stroke-width:1; stroke:black; " description="&lt;b&gt;PYTT13_RS04225&lt;/b&gt;&lt;br&gt;MBL fold metallo-hydrolase&lt;br&gt;Location: 855688 - 854729" locus_tag="PYTT13_RS04225" class="clusterblast-orf" id="dummy-1_h1_9_2"  />
</g>
<g id="a1_003"  >
<polygon points="50,90 74,90 79,85 74,80 50,80 50,90 " style="fill:white; stroke-width:1; stroke:black; " description="&lt;b&gt;PYTT13_RS04220&lt;/b&gt;&lt;br&gt;FAD-dependent oxidoreductase&lt;br&gt;Location: 854704 - 853124" locus_tag="PYTT13_RS04220" class="clusterblast-orf" id="dummy-1_h1_9_3"  />
</g>
<g id="a1_004"  >
<polygon points="79,90 83,85 79,80 79,90 " style="fill:white; stroke-width:1; stroke:black; " description="&lt;b&gt;PYTT13_RS04215&lt;/b&gt;&lt;br&gt;DUF2783 domain-containing protein&lt;br&gt;Location: 853136 - 852945" locus_tag="PYTT13_RS04215" class="clusterblast-orf" id="dummy-1_h1_9_4"  />
</g>
<g id="a1_005"  >
<polygon points="83,90 104,90 109,85 104,80 83,80 83,90 " style="fill:white; stroke-width:1; stroke:black; " description="&lt;b&gt;PYTT13_RS04210&lt;/b&gt;&lt;br&gt;aldehyde dehydrogenase family protein&lt;br&gt;Location: 852919 - 851519" locus_tag="PYTT13_RS04210" class="clusterblast-orf" id="dummy-1_h1_9_5"  />
</g>
<g id="a1_006"  >
<polygon points="111,85 116,80 139,80 139,90 116,90 111,85 " style="fill:white; stroke-width:1; stroke:black; " description="&lt;b&gt;PYTT13_RS04205&lt;/b&gt;&lt;br&gt;amidohydrolase&lt;br&gt;Location: 851431 - 849887" locus_tag="PYTT13_RS04205" class="clusterblast-orf" id="dummy-1_h1_9_6"  />
</g>
<g id="a1_007"  >
<polygon points="144,85 149,80 177,80 177,90 149,90 144,85 " style="fill:#bc15d8; stroke-width:1; stroke:black; " description="&lt;b&gt;PYTT13_RS04200&lt;/b&gt;&lt;br&gt;tetratricopeptide repeat protein&lt;br&gt;Location: 849636 - 847870&lt;br&gt;&lt;br&gt;&lt;b&gt;BlastP hit with GJDDMNIP_00422&lt;/b&gt;&lt;br&gt;Percentage identity: 72&lt;br&gt;Percentage coverage: 101&lt;br&gt;BLAST bit score: 842&lt;br&gt;E-value: 2.27e-304" locus_tag="PYTT13_RS04200" class="clusterblast-orf" id="dummy-1_h1_9_7"  />
</g>
<g id="a1_008"  >
<polygon points="180,90 184,90 189,85 184,80 180,80 180,90 " style="fill:#d88515; stroke-width:1; stroke:black; " description="&lt;b&gt;PYTT13_RS04195&lt;/b&gt;&lt;br&gt;GNAT family N-acetyltransferase&lt;br&gt;Location: 847705 - 847211&lt;br&gt;&lt;br&gt;&lt;b&gt;BlastP hit with GJDDMNIP_00423&lt;/b&gt;&lt;br&gt;Percentage identity: 81&lt;br&gt;Percentage coverage: 91&lt;br&gt;BLAST bit score: 238&lt;br&gt;E-value: 5.91e-80" locus_tag="PYTT13_RS04195" class="clusterblast-orf" id="dummy-1_h1_9_8"  />
</g>
<g id="a1_009"  >
<polygon points="191,90 207,90 212,85 207,80 191,80 191,90 " style="fill:#15d84d; stroke-width:1; stroke:black; " description="&lt;b&gt;PYTT13_RS04190&lt;/b&gt;&lt;br&gt;YcaO-like family protein&lt;br&gt;Location: 847133 - 845973&lt;br&gt;&lt;br&gt;&lt;b&gt;BlastP hit with GJDDMNIP_00424&lt;/b&gt;&lt;br&gt;Percentage identity: 69&lt;br&gt;Percentage coverage: 98&lt;br&gt;BLAST bit score: 490&lt;br&gt;E-value: 2.08e-172" locus_tag="PYTT13_RS04190" class="clusterblast-orf" id="dummy-1_h1_9_9"  />
</g>
<g id="a1_0010"  >
<polygon points="212,90 231,90 236,85 231,80 212,80 212,90 " style="fill:#154dd8; stroke-width:1; stroke:black; " description="&lt;b&gt;PYTT13_RS04185&lt;/b&gt;&lt;br&gt;hypothetical protein&lt;br&gt;Location: 845976 - 844681&lt;br&gt;&lt;br&gt;&lt;b&gt;BlastP hit with GJDDMNIP_00425&lt;/b&gt;&lt;br&gt;Percentage identity: 57&lt;br&gt;Percentage coverage: 96&lt;br&gt;BLAST bit score: 440&lt;br&gt;E-value: 8.55e-151" locus_tag="PYTT13_RS04185" class="clusterblast-orf" id="dummy-1_h1_9_10"  />
</g>
<g id="a1_0011"  >
<polygon points="238,90 243,90 248,85 243,80 238,80 238,90 " style="fill:#d815bc; stroke-width:1; stroke:black; " description="&lt;b&gt;PYTT13_RS04180&lt;/b&gt;&lt;br&gt;hypothetical protein&lt;br&gt;Location: 844571 - 844047&lt;br&gt;&lt;br&gt;&lt;b&gt;BlastP hit with GJDDMNIP_00426&lt;/b&gt;&lt;br&gt;Percentage identity: 52&lt;br&gt;Percentage coverage: 94&lt;br&gt;BLAST bit score: 146&lt;br&gt;E-value: 3.93e-43" locus_tag="PYTT13_RS04180" class="clusterblast-orf" id="dummy-1_h1_9_11"  />
</g>
<g id="a1_0012"  >
<polygon points="259,90 266,90 271,85 266,80 259,80 259,90 " style="fill:#15d885; stroke-width:1; stroke:black; " description="&lt;b&gt;PYTT13_RS04175&lt;/b&gt;&lt;br&gt;Crp/Fnr family transcriptional regulator&lt;br&gt;Location: 843455 - 842781&lt;br&gt;&lt;br&gt;&lt;b&gt;BlastP hit with GJDDMNIP_00428&lt;/b&gt;&lt;br&gt;Percentage identity: 64&lt;br&gt;Percentage coverage: 96&lt;br&gt;BLAST bit score: 284&lt;br&gt;E-value: 6.5e-96" locus_tag="PYTT13_RS04175" class="clusterblast-orf" id="dummy-1_h1_9_12"  />
</g>
<g id="a1_0013"  >
<polygon points="275,85 280,80 289,80 289,90 280,90 275,85 " style="fill:white; stroke-width:1; stroke:black; " description="&lt;b&gt;PYTT13_RS04170&lt;/b&gt;&lt;br&gt;SDR family NAD(P)-dependent oxidoreductase&lt;br&gt;Location: 842566 - 841802" locus_tag="PYTT13_RS04170" class="clusterblast-orf" id="dummy-1_h1_9_13"  />
</g>
<g id="a1_0014"  >
<polygon points="291,85 296,80 305,80 305,90 296,90 291,85 " style="fill:white; stroke-width:1; stroke:black; " description="&lt;b&gt;PYTT13_RS04165&lt;/b&gt;&lt;br&gt;SDR family oxidoreductase&lt;br&gt;Location: 841717 - 840944" locus_tag="PYTT13_RS04165" class="clusterblast-orf" id="dummy-1_h1_9_14"  />
</g>
<g id="a1_0015"  >
<polygon points="308,90 320,90 325,85 320,80 308,80 308,90 " style="fill:white; stroke-width:1; stroke:black; " description="&lt;b&gt;PYTT13_RS04160&lt;/b&gt;&lt;br&gt;LysR family transcriptional regulator&lt;br&gt;Location: 840780 - 839869" locus_tag="PYTT13_RS04160" class="clusterblast-orf" id="dummy-1_h1_9_15"  />
</g>
<g id="a1_0016"  >
<polygon points="332,90 338,90 343,85 338,80 332,80 332,90 " style="fill:white; stroke-width:1; stroke:black; " description="&lt;b&gt;PYTT13_RS04150&lt;/b&gt;&lt;br&gt;hypothetical protein&lt;br&gt;Location: 839527 - 838910" locus_tag="PYTT13_RS04150" class="clusterblast-orf" id="dummy-1_h1_9_16"  />
</g>
<g id="a1_0017"  >
<polygon points="343,90 346,90 351,85 346,80 343,80 343,90 " style="fill:white; stroke-width:1; stroke:black; " description="&lt;b&gt;PYTT13_RS04145&lt;/b&gt;&lt;br&gt;hypothetical protein&lt;br&gt;Location: 838902 - 838483" locus_tag="PYTT13_RS04145" class="clusterblast-orf" id="dummy-1_h1_9_17"  />
</g>
<g id="a1_0018"  >
<polygon points="351,85 356,80 376,80 376,90 356,90 351,85 " style="fill:white; stroke-width:1; stroke:black; " description="&lt;b&gt;PYTT13_RS04140&lt;/b&gt;&lt;br&gt;condensation protein&lt;br&gt;Location: 838486 - 837119" locus_tag="PYTT13_RS04140" class="clusterblast-orf" id="dummy-1_h1_9_18"  />
</g>
<g id="a1_0019"  >
<polygon points="380,90 405,90 410,85 405,80 380,80 380,90 " style="fill:white; stroke-width:1; stroke:black; " description="&lt;b&gt;PYTT13_RS04135&lt;/b&gt;&lt;br&gt;(2,3-dihydroxybenzoyl)adenylate synthase&lt;br&gt;Location: 836928 - 835309" locus_tag="PYTT13_RS04135" class="clusterblast-orf" id="dummy-1_h1_9_19"  />
</g>
<g id="a1_0020"  >
<polygon points="410,90 410,90 415,85 410,80 410,80 410,90 " style="fill:white; stroke-width:1; stroke:black; " description="&lt;b&gt;PYTT13_RS04130&lt;/b&gt;&lt;br&gt;isochorismatase&lt;br&gt;Location: 835284 - 835048" locus_tag="PYTT13_RS04130" class="clusterblast-orf" id="dummy-1_h1_9_20"  />
</g>
<g id="a1_0021"  >
<polygon points="415,85 420,80 429,80 429,90 420,90 415,85 " style="fill:white; stroke-width:1; stroke:black; " description="&lt;b&gt;PYTT13_RS04125&lt;/b&gt;&lt;br&gt;SDR family oxidoreductase&lt;br&gt;Location: 835043 - 834273" locus_tag="PYTT13_RS04125" class="clusterblast-orf" id="dummy-1_h1_9_21"  />
</g>
<g id="a1_0022"  >
<polygon points="429,85 434,80 441,80 441,90 434,90 429,85 " style="fill:white; stroke-width:1; stroke:black; " description="&lt;b&gt;PYTT13_RS04120&lt;/b&gt;&lt;br&gt;isochorismatase family protein&lt;br&gt;Location: 834282 - 833635" locus_tag="PYTT13_RS04120" class="clusterblast-orf" id="dummy-1_h1_9_22"  />
</g>
<g id="a1_0023"  >
<polygon points="441,85 446,80 463,80 463,90 446,90 441,85 " style="fill:white; stroke-width:1; stroke:black; " description="&lt;b&gt;PYTT13_RS04115&lt;/b&gt;&lt;br&gt;isochorismate synthase&lt;br&gt;Location: 833635 - 832424" locus_tag="PYTT13_RS04115" class="clusterblast-orf" id="dummy-1_h1_9_23"  />
</g>
<g id="a1_0024"  >
<polygon points="469,90 482,90 487,85 482,80 469,80 469,90 " style="fill:white; stroke-width:1; stroke:black; " description="&lt;b&gt;PYTT13_RS04110&lt;/b&gt;&lt;br&gt;diacylglycerol kinase&lt;br&gt;Location: 832100 - 831153" locus_tag="PYTT13_RS04110" class="clusterblast-orf" id="dummy-1_h1_9_24"  />
</g>
<g id="a1_0025"  >
<polygon points="487,90 496,90 501,85 496,80 487,80 487,90 " style="fill:white; stroke-width:1; stroke:black; " description="&lt;b&gt;PYTT13_RS04105&lt;/b&gt;&lt;br&gt;metallophosphoesterase&lt;br&gt;Location: 831156 - 830368" locus_tag="PYTT13_RS04105" class="clusterblast-orf" id="dummy-1_h1_9_25"  />
</g>
<g id="a1_0026"  >
<polygon points="503,85 508,80 517,80 517,90 508,90 503,85 " style="fill:white; stroke-width:1; stroke:black; " description="&lt;b&gt;PYTT13_RS04100&lt;/b&gt;&lt;br&gt;VOC family protein&lt;br&gt;Location: 830297 - 829512" locus_tag="PYTT13_RS04100" class="clusterblast-orf" id="dummy-1_h1_9_26"  />
</g>
<g id="a1_0027"  >
<polygon points="520,90 537,90 542,85 537,80 520,80 520,90 " style="fill:white; stroke-width:1; stroke:black; " description="&lt;b&gt;PYTT13_RS04095&lt;/b&gt;&lt;br&gt;RNA methyltransferase&lt;br&gt;Location: 829347 - 828160" locus_tag="PYTT13_RS04095" class="clusterblast-orf" id="dummy-1_h1_9_27"  />
</g>
<g id="a1_0028"  >
<polygon points="549,85 554,80 554,80 554,90 554,90 549,85 " style="fill:white; stroke-width:1; stroke:black; " description="&lt;b&gt;PYTT13_RS22670&lt;/b&gt;&lt;br&gt;hypothetical protein&lt;br&gt;Location: 827782 - 827513" locus_tag="PYTT13_RS22670" class="clusterblast-orf" id="dummy-1_h1_9_28"  />
</g>
<g id="a1_0029"  >
<polygon points="568,90 569,90 574,85 569,80 568,80 568,90 " style="fill:white; stroke-width:1; stroke:black; " description="&lt;b&gt;PYTT13_RS04080&lt;/b&gt;&lt;br&gt;helix-turn-helix transcriptional regulator&lt;br&gt;Location: 826764 - 826432" locus_tag="PYTT13_RS04080" class="clusterblast-orf" id="dummy-1_h1_9_29"  />
</g>
<g id="a1_0030"  >
<polygon points="574,90 578,90 583,85 578,80 574,80 574,90 " style="fill:white; stroke-width:1; stroke:black; " description="&lt;b&gt;PYTT13_RS04075&lt;/b&gt;&lt;br&gt;polyketide cyclase&lt;br&gt;Location: 826435 - 825980" locus_tag="PYTT13_RS04075" class="clusterblast-orf" id="dummy-1_h1_9_30"  />
</g>
<g id="a1_0031"  >
<polygon points="595,90 602,90 607,85 602,80 595,80 595,90 " style="fill:white; stroke-width:1; stroke:black; " description="&lt;b&gt;PYTT13_RS04065&lt;/b&gt;&lt;br&gt;hypothetical protein&lt;br&gt;Location: 825308 - 824685" locus_tag="PYTT13_RS04065" class="clusterblast-orf" id="dummy-1_h1_9_31"  />
</g>
<g id="a1_0032"  >
<polygon points="607,90 613,90 618,85 613,80 607,80 607,90 " style="fill:white; stroke-width:1; stroke:black; " description="&lt;b&gt;PYTT13_RS04060&lt;/b&gt;&lt;br&gt;AAA family ATPase&lt;br&gt;Location: 824679 - 824092" locus_tag="PYTT13_RS04060" class="clusterblast-orf" id="dummy-1_h1_9_32"  />
</g>
<g id="a1_0033"  >
<polygon points="621,85 626,80 646,80 646,90 626,90 621,85 " style="fill:white; stroke-width:1; stroke:black; " description="&lt;b&gt;PYTT13_RS04055&lt;/b&gt;&lt;br&gt;peroxidase&lt;br&gt;Location: 823940 - 822561" locus_tag="PYTT13_RS04055" class="clusterblast-orf" id="dummy-1_h1_9_33"  />
</g>
<g id="a1_0034"  >
<polygon points="646,85 651,80 659,80 659,90 651,90 646,85 " style="fill:white; stroke-width:1; stroke:black; " description="&lt;b&gt;PYTT13_RS04050&lt;/b&gt;&lt;br&gt;hypothetical protein&lt;br&gt;Location: 822561 - 821893" locus_tag="PYTT13_RS04050" class="clusterblast-orf" id="dummy-1_h1_9_34"  />
</g>
<g id="a1_0035"  >
<polygon points="661,85 666,80 680,80 680,90 666,90 661,85 " style="fill:white; stroke-width:1; stroke:black; " description="&lt;b&gt;PYTT13_RS04045&lt;/b&gt;&lt;br&gt;catalase family protein&lt;br&gt;Location: 821775 - 820717" locus_tag="PYTT13_RS04045" class="clusterblast-orf" id="dummy-1_h1_9_35"  />
</g>
<g id="a1_0036"  >
<polygon points="688,90 702,90 707,85 702,80 688,80 688,90 " style="fill:white; stroke-width:1; stroke:black; " description="&lt;b&gt;PYTT13_RS04040&lt;/b&gt;&lt;br&gt;HlyD family efflux transporter periplasmic adaptor subunit&lt;br&gt;Location: 820307 - 819279" locus_tag="PYTT13_RS04040" class="clusterblast-orf" id="dummy-1_h1_9_36"  />
</g>
<g id="a1_0037"  >
<polygon points="707,90 724,90 729,85 724,80 707,80 707,90 " style="fill:white; stroke-width:1; stroke:black; " description="&lt;b&gt;PYTT13_RS04035&lt;/b&gt;&lt;br&gt;ABC transporter permease&lt;br&gt;Location: 819282 - 818095" locus_tag="PYTT13_RS04035" class="clusterblast-orf" id="dummy-1_h1_9_37"  />
</g>
<g id="a1_0038"  >
<polygon points="729,90 746,90 751,85 746,80 729,80 729,90 " style="fill:white; stroke-width:1; stroke:black; " description="&lt;b&gt;PYTT13_RS04030&lt;/b&gt;&lt;br&gt;ABC transporter permease&lt;br&gt;Location: 818098 - 816926" locus_tag="PYTT13_RS04030" class="clusterblast-orf" id="dummy-1_h1_9_38"  />
</g>
<g id="a1_0039"  >
<polygon points="754,90 756,85 754,80 754,90 " style="fill:white; stroke-width:1; stroke:black; " description="&lt;b&gt;PYTT13_RS22665&lt;/b&gt;&lt;br&gt;winged helix-turn-helix transcriptional regulator&lt;br&gt;Location: 816754 - 816653" locus_tag="PYTT13_RS22665" class="clusterblast-orf" id="dummy-1_h1_9_39"  />
</g>
<g id="a1_0040"  >
<polygon points="758,85 763,80 764,80 764,90 763,90 758,85 " style="fill:white; stroke-width:1; stroke:black; " description="&lt;b&gt;PYTT13_RS04025&lt;/b&gt;&lt;br&gt;head-tail adaptor protein&lt;br&gt;Location: 816532 - 816212" locus_tag="PYTT13_RS04025" class="clusterblast-orf" id="dummy-1_h1_9_40"  />
</g>
<g id="a1_0041"  >
<polygon points="764,85 769,80 774,80 774,90 769,90 764,85 " style="fill:white; stroke-width:1; stroke:black; " description="&lt;b&gt;PYTT13_RS04020&lt;/b&gt;&lt;br&gt;hypothetical protein&lt;br&gt;Location: 816209 - 815682" locus_tag="PYTT13_RS04020" class="clusterblast-orf" id="dummy-1_h1_9_41"  />
</g>
<g id="a1_0042"  >
<polygon points="774,85 779,80 780,80 780,90 779,90 774,85 " style="fill:white; stroke-width:1; stroke:black; " description="&lt;b&gt;PYTT13_RS04015&lt;/b&gt;&lt;br&gt;hypothetical protein&lt;br&gt;Location: 815682 - 815377" locus_tag="PYTT13_RS04015" class="clusterblast-orf" id="dummy-1_h1_9_42"  />
</g>
</svg>
