<svg xmlns="http://www.w3.org/2000/svg" xmlns:xlink="http://www.w3.org/1999/xlink" version="1.1" x="0" y="0" height="230" width="800" viewBox="0 0 800 230" preserveAspectRatio="none"  >
<g label="Query sequence" class="clusterblast-cluster"  >
<text x="5" y="20" class="clusterblast-acc"  >
Query sequence</text>
<line x1="10" y1="35" x2="778.0" y2="35" style="stroke-width:1; stroke:grey; "  />
<polygon points="211,40 241,40 246,35 241,30 211,30 211,40 " style="fill:white; stroke-width:1; stroke:black; " description="&lt;b&gt;GJDDMNIP_03898&lt;/b&gt;&lt;br&gt;Transketolase 1&lt;br&gt;Location: 4440 - 6447" locus_tag="GJDDMNIP_03898" class="clusterblast-orf" id="dummy-1_q0_0_all"  />
<polygon points="246,40 259,40 264,35 259,30 246,30 246,40 " style="fill:white; stroke-width:1; stroke:black; " description="&lt;b&gt;GJDDMNIP_03899&lt;/b&gt;&lt;br&gt;Fructose-bisphosphate aldolase class 2&lt;br&gt;Location: 6446 - 7526" locus_tag="GJDDMNIP_03899" class="clusterblast-orf" id="dummy-1_q1_0_all"  />
<polygon points="265,40 285,40 290,35 285,30 265,30 265,40 " style="fill:white; stroke-width:1; stroke:black; " description="&lt;b&gt;GJDDMNIP_03900&lt;/b&gt;&lt;br&gt;Ribulose bisphosphate carboxylase large chain&lt;br&gt;Location: 7540 - 9004" locus_tag="GJDDMNIP_03900" class="clusterblast-orf" id="dummy-1_q2_0_all"  />
<polygon points="290,40 292,40 297,35 292,30 290,30 290,40 " style="fill:white; stroke-width:1; stroke:black; " description="&lt;b&gt;GJDDMNIP_03901&lt;/b&gt;&lt;br&gt;Ribulose bisphosphate carboxylase small chain 1&lt;br&gt;Location: 9015 - 9405" locus_tag="GJDDMNIP_03901" class="clusterblast-orf" id="dummy-1_q3_0_all"  />
<polygon points="298,40 309,40 314,35 309,30 298,30 298,40 " style="fill:white; stroke-width:1; stroke:black; " description="&lt;b&gt;GJDDMNIP_03902&lt;/b&gt;&lt;br&gt;Protein CbbX&lt;br&gt;Location: 9477 - 10404" locus_tag="GJDDMNIP_03902" class="clusterblast-orf" id="dummy-1_q4_0_all"  />
<polygon points="323,35 328,30 344,30 344,40 328,40 323,35 " style="fill:#d81515; stroke-width:1; stroke:black; " description="&lt;b&gt;GJDDMNIP_03903&lt;/b&gt;&lt;br&gt;hypothetical protein&lt;br&gt;Location: 10880 - 12131" locus_tag="GJDDMNIP_03903" class="clusterblast-orf" id="dummy-1_q5_0_all"  />
<polygon points="348,40 370,40 375,35 370,30 348,30 348,40 " style="fill:#77d815; stroke-width:1; stroke:black; " description="&lt;b&gt;GJDDMNIP_03904&lt;/b&gt;&lt;br&gt;hypothetical protein&lt;br&gt;Location: 12341 - 13880" locus_tag="GJDDMNIP_03904" class="clusterblast-orf" id="dummy-1_q6_0_all"  />
<polygon points="374,40 395,40 400,35 395,30 374,30 374,40 " style="fill:#15d8d8; stroke-width:1; stroke:black; " description="&lt;b&gt;GJDDMNIP_03905&lt;/b&gt;&lt;br&gt;GTP 3',8-cyclase&lt;br&gt;Location: 13839 - 15342" locus_tag="GJDDMNIP_03905" class="clusterblast-orf" id="dummy-1_q7_0_all"  />
<polygon points="400,40 401,40 406,35 401,30 400,30 400,40 " style="fill:#7715d8; stroke-width:1; stroke:black; " description="&lt;b&gt;GJDDMNIP_03906&lt;/b&gt;&lt;br&gt;hypothetical protein&lt;br&gt;Location: 15338 - 15671" locus_tag="GJDDMNIP_03906" class="clusterblast-orf" id="dummy-1_q8_0_all"  />
<polygon points="406,40 420,40 425,35 420,30 406,30 406,40 " style="fill:#d8a715; stroke-width:1; stroke:black; " description="&lt;b&gt;GJDDMNIP_03907&lt;/b&gt;&lt;br&gt;hypothetical protein&lt;br&gt;Location: 15670 - 16747" locus_tag="GJDDMNIP_03907" class="clusterblast-orf" id="dummy-1_q9_0_all"  />
<polygon points="425,40 431,40 436,35 431,30 425,30 425,40 " style="fill:#15d846; stroke-width:1; stroke:black; " description="&lt;b&gt;GJDDMNIP_03908&lt;/b&gt;&lt;br&gt;hypothetical protein&lt;br&gt;Location: 16748 - 17417" locus_tag="GJDDMNIP_03908" class="clusterblast-orf" id="dummy-1_q10_0_all"  />
<polygon points="436,40 461,40 466,35 461,30 436,30 436,40 " style="fill:#1546d8; stroke-width:1; stroke:black; " description="&lt;b&gt;GJDDMNIP_03909&lt;/b&gt;&lt;br&gt;Multidrug resistance-like ATP-binding protein MdlB&lt;br&gt;Location: 17409 - 19131" locus_tag="GJDDMNIP_03909" class="clusterblast-orf" id="dummy-1_q11_0_all"  />
<polygon points="464,35 469,30 481,30 481,40 469,40 464,35 " style="fill:white; stroke-width:1; stroke:black; " description="&lt;b&gt;GJDDMNIP_03910&lt;/b&gt;&lt;br&gt;hypothetical protein&lt;br&gt;Location: 19034 - 20015" locus_tag="GJDDMNIP_03910" class="clusterblast-orf" id="dummy-1_q12_0_all"  />
<polygon points="487,40 506,40 511,35 506,30 487,30 487,40 " style="fill:#d815a7; stroke-width:1; stroke:black; " description="&lt;b&gt;GJDDMNIP_03911&lt;/b&gt;&lt;br&gt;Phenylacetaldehyde dehydrogenase&lt;br&gt;Location: 20337 - 21741" locus_tag="GJDDMNIP_03911" class="clusterblast-orf" id="dummy-1_q13_0_all"  />
<polygon points="512,35 517,30 521,30 521,40 517,40 512,35 " style="fill:white; stroke-width:1; stroke:black; " description="&lt;b&gt;GJDDMNIP_03912&lt;/b&gt;&lt;br&gt;hypothetical protein&lt;br&gt;Location: 21795 - 22326" locus_tag="GJDDMNIP_03912" class="clusterblast-orf" id="dummy-1_q14_0_all"  />
<polygon points="523,35 528,30 550,30 550,40 528,40 523,35 " style="fill:white; stroke-width:1; stroke:black; " description="&lt;b&gt;GJDDMNIP_03913&lt;/b&gt;&lt;br&gt;Alcohol dehydrogenase [acceptor]&lt;br&gt;Location: 22397 - 23996" locus_tag="GJDDMNIP_03913" class="clusterblast-orf" id="dummy-1_q15_0_all"  />
<polygon points="551,35 556,30 568,30 568,40 556,40 551,35 " style="fill:white; stroke-width:1; stroke:black; " description="&lt;b&gt;GJDDMNIP_03914&lt;/b&gt;&lt;br&gt;hypothetical protein&lt;br&gt;Location: 24039 - 25038" locus_tag="GJDDMNIP_03914" class="clusterblast-orf" id="dummy-1_q16_0_all"  />
</g>
<g label="NZ_CP039637" description="NZ_CP039637 (339472-393118): Azospirillum sp. TSH100 chromosome 4, complete s... (22% of genes show similarity), hglE-KS" class="clusterblast-cluster"  >
<text x="5" y="70" class="clusterblast-acc"  >
<a xlink:href="https://antismash-db.secondarymetabolites.org/area.html?record=NZ_CP039637&amp;start=339472&amp;end=393118" target="_blank">NZ_CP039637 (339472-393118)</a>: Azospirillum sp. TSH100 chromosome 4, complete s... (22% of genes show similarity), hglE-KS</text>
<line x1="10" y1="85" x2="778.0" y2="85" style="stroke-width:1; stroke:grey; "  />
</g>
<g id="a1_000"  >
<polygon points="0,90 7,90 12,85 7,80 0,80 0,90 " style="fill:white; stroke-width:1; stroke:black; " description="&lt;b&gt;E6C72_RS23290&lt;/b&gt;&lt;br&gt;Crp/Fnr family transcriptional regulator&lt;br&gt;Location: 393101 - 392391" locus_tag="E6C72_RS23290" class="clusterblast-orf" id="dummy-1_h1_1_0"  />
</g>
<g id="a1_001"  >
<polygon points="14,90 21,90 26,85 21,80 14,80 14,90 " style="fill:white; stroke-width:1; stroke:black; " description="&lt;b&gt;E6C72_RS23285&lt;/b&gt;&lt;br&gt;hypothetical protein&lt;br&gt;Location: 392276 - 391557" locus_tag="E6C72_RS23285" class="clusterblast-orf" id="dummy-1_h1_1_1"  />
</g>
<g id="a1_002"  >
<polygon points="26,85 31,80 73,80 73,90 31,90 26,85 " style="fill:white; stroke-width:1; stroke:black; " description="&lt;b&gt;E6C72_RS23280&lt;/b&gt;&lt;br&gt;SUMF1/EgtB/PvdO family nonheme iron enzyme&lt;br&gt;Location: 391550 - 388848" locus_tag="E6C72_RS23280" class="clusterblast-orf" id="dummy-1_h1_1_2"  />
</g>
<g id="a1_003"  >
<polygon points="78,85 83,80 110,80 110,90 83,90 78,85 " style="fill:white; stroke-width:1; stroke:black; " description="&lt;b&gt;E6C72_RS23275&lt;/b&gt;&lt;br&gt;adenylate/guanylate cyclase domain-containing protein&lt;br&gt;Location: 388586 - 386733" locus_tag="E6C72_RS23275" class="clusterblast-orf" id="dummy-1_h1_1_3"  />
</g>
<g id="a1_004"  >
<polygon points="111,85 116,80 131,80 131,90 116,90 111,85 " style="fill:white; stroke-width:1; stroke:black; " description="&lt;b&gt;E6C72_RS23270&lt;/b&gt;&lt;br&gt;DUF4384 domain-containing protein&lt;br&gt;Location: 386674 - 385538" locus_tag="E6C72_RS23270" class="clusterblast-orf" id="dummy-1_h1_1_4"  />
</g>
<g id="a1_005"  >
<polygon points="131,85 136,80 137,80 137,90 136,90 131,85 " style="fill:white; stroke-width:1; stroke:black; " description="&lt;b&gt;E6C72_RS23265&lt;/b&gt;&lt;br&gt;hypothetical protein&lt;br&gt;Location: 385505 - 385149" locus_tag="E6C72_RS23265" class="clusterblast-orf" id="dummy-1_h1_1_5"  />
</g>
<g id="a1_006"  >
<polygon points="138,85 143,80 152,80 152,90 143,90 138,85 " style="fill:white; stroke-width:1; stroke:black; " description="&lt;b&gt;E6C72_RS23260&lt;/b&gt;&lt;br&gt;OmpA family protein&lt;br&gt;Location: 385122 - 384340" locus_tag="E6C72_RS23260" class="clusterblast-orf" id="dummy-1_h1_1_6"  />
</g>
<g id="a1_007"  >
<polygon points="153,85 158,80 181,80 181,90 158,90 153,85 " style="fill:white; stroke-width:1; stroke:black; " description="&lt;b&gt;E6C72_RS23255&lt;/b&gt;&lt;br&gt;DUF4384 domain-containing protein&lt;br&gt;Location: 384232 - 382661" locus_tag="E6C72_RS23255" class="clusterblast-orf" id="dummy-1_h1_1_7"  />
</g>
<g id="a1_008"  >
<polygon points="182,85 187,80 192,80 192,90 187,90 182,85 " style="fill:white; stroke-width:1; stroke:black; " description="&lt;b&gt;E6C72_RS23250&lt;/b&gt;&lt;br&gt;DUF4399 domain-containing protein&lt;br&gt;Location: 382592 - 382020" locus_tag="E6C72_RS23250" class="clusterblast-orf" id="dummy-1_h1_1_8"  />
</g>
<g id="a1_009"  >
<polygon points="192,85 197,80 200,80 200,90 197,90 192,85 " style="fill:white; stroke-width:1; stroke:black; " description="&lt;b&gt;E6C72_RS23245&lt;/b&gt;&lt;br&gt;DUF4399 domain-containing protein&lt;br&gt;Location: 381981 - 381547" locus_tag="E6C72_RS23245" class="clusterblast-orf" id="dummy-1_h1_1_9"  />
</g>
<g id="a1_0010"  >
<polygon points="204,85 209,80 210,80 210,90 209,90 204,85 " style="fill:white; stroke-width:1; stroke:black; " description="&lt;b&gt;E6C72_RS23240&lt;/b&gt;&lt;br&gt;hypothetical protein&lt;br&gt;Location: 381331 - 380996" locus_tag="E6C72_RS23240" class="clusterblast-orf" id="dummy-1_h1_1_10"  />
</g>
<g id="a1_0011"  >
<polygon points="212,85 217,80 219,80 219,90 217,90 212,85 " style="fill:white; stroke-width:1; stroke:black; " description="&lt;b&gt;E6C72_RS23235&lt;/b&gt;&lt;br&gt;RidA family protein&lt;br&gt;Location: 380869 - 380471" locus_tag="E6C72_RS23235" class="clusterblast-orf" id="dummy-1_h1_1_11"  />
</g>
<g id="a1_0012"  >
<polygon points="221,90 227,90 232,85 227,80 221,80 221,90 " style="fill:white; stroke-width:1; stroke:black; " description="&lt;b&gt;E6C72_RS23230&lt;/b&gt;&lt;br&gt;TetR/AcrR family transcriptional regulator&lt;br&gt;Location: 380316 - 379720" locus_tag="E6C72_RS23230" class="clusterblast-orf" id="dummy-1_h1_1_12"  />
</g>
<g id="a1_0013"  >
<polygon points="233,85 238,80 240,80 240,90 238,90 233,85 " style="fill:white; stroke-width:1; stroke:black; " description="&lt;b&gt;E6C72_RS23225&lt;/b&gt;&lt;br&gt;cytochrome c family protein&lt;br&gt;Location: 379634 - 379257" locus_tag="E6C72_RS23225" class="clusterblast-orf" id="dummy-1_h1_1_13"  />
</g>
<g id="a1_0014"  >
<polygon points="245,90 255,90 260,85 255,80 245,80 245,90 " style="fill:white; stroke-width:1; stroke:black; " description="&lt;b&gt;E6C72_RS23220&lt;/b&gt;&lt;br&gt;LysR family transcriptional regulator&lt;br&gt;Location: 378948 - 378088" locus_tag="E6C72_RS23220" class="clusterblast-orf" id="dummy-1_h1_1_14"  />
</g>
<g id="a1_0015"  >
<polygon points="263,90 267,85 263,80 263,90 " style="fill:white; stroke-width:1; stroke:black; " description="&lt;b&gt;E6C72_RS23215&lt;/b&gt;&lt;br&gt;hypothetical protein&lt;br&gt;Location: 377932 - 377711" locus_tag="E6C72_RS23215" class="clusterblast-orf" id="dummy-1_h1_1_15"  />
</g>
<g id="a1_0016"  >
<polygon points="267,85 272,80 272,80 272,90 272,90 267,85 " style="fill:white; stroke-width:1; stroke:black; " description="&lt;b&gt;E6C72_RS23210&lt;/b&gt;&lt;br&gt;DUF3325 domain-containing protein&lt;br&gt;Location: 377691 - 377377" locus_tag="E6C72_RS23210" class="clusterblast-orf" id="dummy-1_h1_1_16"  />
</g>
<g id="a1_0017"  >
<polygon points="272,85 277,80 300,80 300,90 277,90 272,85 " style="fill:white; stroke-width:1; stroke:black; " description="&lt;b&gt;E6C72_RS23205&lt;/b&gt;&lt;br&gt;PepSY domain-containing protein&lt;br&gt;Location: 377384 - 375813" locus_tag="E6C72_RS23205" class="clusterblast-orf" id="dummy-1_h1_1_17"  />
</g>
<g id="a1_0018"  >
<polygon points="299,85 304,80 305,80 305,90 304,90 299,85 " style="fill:white; stroke-width:1; stroke:black; " description="&lt;b&gt;E6C72_RS31855&lt;/b&gt;&lt;br&gt;iron uptake protein&lt;br&gt;Location: 375816 - 375487" locus_tag="E6C72_RS31855" class="clusterblast-orf" id="dummy-1_h1_1_18"  />
</g>
<g id="a1_0019"  >
<polygon points="318,90 340,90 345,85 340,80 318,80 318,90 " style="fill:white; stroke-width:1; stroke:black; " description="&lt;b&gt;E6C72_RS23200&lt;/b&gt;&lt;br&gt;PfaD family polyunsaturated fatty acid/polyketide biosynthesis protein&lt;br&gt;Location: 374769 - 373168" locus_tag="E6C72_RS23200" class="clusterblast-orf" id="dummy-1_h1_1_19"  />
</g>
<g id="a1_0020"  >
<polygon points="346,90 433,90 438,85 433,80 346,80 346,90 " style="fill:white; stroke-width:1; stroke:black; " description="&lt;b&gt;E6C72_RS23195&lt;/b&gt;&lt;br&gt;SDR family oxidoreductase&lt;br&gt;Location: 373118 - 367830" locus_tag="E6C72_RS23195" class="clusterblast-orf" id="dummy-1_h1_1_20"  />
</g>
<g id="a1_0021"  >
<polygon points="438,90 578,90 583,85 578,80 438,80 438,90 " style="fill:white; stroke-width:1; stroke:black; " description="&lt;b&gt;E6C72_RS23190&lt;/b&gt;&lt;br&gt;polyketide synthase dehydratase domain-containing protein&lt;br&gt;Location: 367833 - 359473" locus_tag="E6C72_RS23190" class="clusterblast-orf" id="dummy-1_h1_1_21"  />
</g>
<g id="a1_0022"  >
<polygon points="583,85 588,80 604,80 604,90 588,90 583,85 " style="fill:white; stroke-width:1; stroke:black; " description="&lt;b&gt;E6C72_RS23185&lt;/b&gt;&lt;br&gt;cyclic nucleotide-binding domain-containing protein&lt;br&gt;Location: 359465 - 358278" locus_tag="E6C72_RS23185" class="clusterblast-orf" id="dummy-1_h1_1_22"  />
</g>
<g id="a1_0023"  >
<polygon points="606,85 611,80 622,80 622,90 611,90 606,85 " style="fill:white; stroke-width:1; stroke:black; " description="&lt;b&gt;E6C72_RS23180&lt;/b&gt;&lt;br&gt;helix-turn-helix domain-containing protein&lt;br&gt;Location: 358150 - 357209" locus_tag="E6C72_RS23180" class="clusterblast-orf" id="dummy-1_h1_1_23"  />
</g>
<g id="a1_0024"  >
<polygon points="635,90 654,90 659,85 654,80 635,80 635,90 " style="fill:#d81515; stroke-width:1; stroke:black; " description="&lt;b&gt;E6C72_RS23175&lt;/b&gt;&lt;br&gt;FAD-dependent oxidoreductase&lt;br&gt;Location: 356464 - 355121&lt;br&gt;&lt;br&gt;&lt;b&gt;BlastP hit with GJDDMNIP_03903&lt;/b&gt;&lt;br&gt;Percentage identity: 37&lt;br&gt;Percentage coverage: 92&lt;br&gt;BLAST bit score: 145&lt;br&gt;E-value: 4.63e-37" locus_tag="E6C72_RS23175" class="clusterblast-orf" id="dummy-1_h1_1_24"  />
</g>
<g id="a1_0025"  >
<polygon points="660,90 683,90 688,85 683,80 660,80 660,90 " style="fill:#77d815; stroke-width:1; stroke:black; " description="&lt;b&gt;E6C72_RS23170&lt;/b&gt;&lt;br&gt;quinohemoprotein amine dehydrogenase subunit alpha&lt;br&gt;Location: 355042 - 353453&lt;br&gt;&lt;br&gt;&lt;b&gt;BlastP hit with GJDDMNIP_03904&lt;/b&gt;&lt;br&gt;Percentage identity: 42&lt;br&gt;Percentage coverage: 100&lt;br&gt;BLAST bit score: 376&lt;br&gt;E-value: 1.87e-123" locus_tag="E6C72_RS23170" class="clusterblast-orf" id="dummy-1_h1_1_25"  />
</g>
<g id="a1_0026"  >
<polygon points="688,90 708,90 713,85 708,80 688,80 688,90 " style="fill:#15d8d8; stroke-width:1; stroke:black; " description="&lt;b&gt;E6C72_RS23165&lt;/b&gt;&lt;br&gt;quinohemoprotein amine dehydrogenase maturation protein&lt;br&gt;Location: 353441 - 352008&lt;br&gt;&lt;br&gt;&lt;b&gt;BlastP hit with GJDDMNIP_03905&lt;/b&gt;&lt;br&gt;Percentage identity: 59&lt;br&gt;Percentage coverage: 95&lt;br&gt;BLAST bit score: 580&lt;br&gt;E-value: 3.25e-204" locus_tag="E6C72_RS23165" class="clusterblast-orf" id="dummy-1_h1_1_26"  />
</g>
<g id="a1_0027"  >
<polygon points="713,90 713,90 718,85 713,80 713,80 713,90 " style="fill:#7715d8; stroke-width:1; stroke:black; " description="&lt;b&gt;E6C72_RS23160&lt;/b&gt;&lt;br&gt;quinohemoprotein amine dehydrogenase subunit gamma&lt;br&gt;Location: 352011 - 351691&lt;br&gt;&lt;br&gt;&lt;b&gt;BlastP hit with GJDDMNIP_03906&lt;/b&gt;&lt;br&gt;Percentage identity: 63&lt;br&gt;Percentage coverage: 95&lt;br&gt;BLAST bit score: 154&lt;br&gt;E-value: 2.17e-48" locus_tag="E6C72_RS23160" class="clusterblast-orf" id="dummy-1_h1_1_27"  />
</g>
<g id="a1_0028"  >
<polygon points="719,90 733,90 738,85 733,80 719,80 719,90 " style="fill:#d8a715; stroke-width:1; stroke:black; " description="&lt;b&gt;E6C72_RS23155&lt;/b&gt;&lt;br&gt;quinohemoprotein amine dehydrogenase subunit beta&lt;br&gt;Location: 351655 - 350558&lt;br&gt;&lt;br&gt;&lt;b&gt;BlastP hit with GJDDMNIP_03907&lt;/b&gt;&lt;br&gt;Percentage identity: 40&lt;br&gt;Percentage coverage: 96&lt;br&gt;BLAST bit score: 271&lt;br&gt;E-value: 1.12e-86" locus_tag="E6C72_RS23155" class="clusterblast-orf" id="dummy-1_h1_1_28"  />
</g>
<g id="a1_0029"  >
<polygon points="738,90 763,90 768,85 763,80 738,80 738,90 " style="fill:#1546d8; stroke-width:1; stroke:black; " description="&lt;b&gt;E6C72_RS23150&lt;/b&gt;&lt;br&gt;ABC transporter ATP-binding protein&lt;br&gt;Location: 350522 - 348789&lt;br&gt;&lt;br&gt;&lt;b&gt;BlastP hit with GJDDMNIP_03909&lt;/b&gt;&lt;br&gt;Percentage identity: 34&lt;br&gt;Percentage coverage: 90&lt;br&gt;BLAST bit score: 214&lt;br&gt;E-value: 4.92e-60" locus_tag="E6C72_RS23150" class="clusterblast-orf" id="dummy-1_h1_1_29"  />
</g>
<g id="a1_0030"  >
<polygon points="768,90 775,90 780,85 775,80 768,80 768,90 " style="fill:#15d846; stroke-width:1; stroke:black; " description="&lt;b&gt;E6C72_RS23145&lt;/b&gt;&lt;br&gt;S8/S53 family peptidase&lt;br&gt;Location: 348804 - 348154&lt;br&gt;&lt;br&gt;&lt;b&gt;BlastP hit with GJDDMNIP_03908&lt;/b&gt;&lt;br&gt;Percentage identity: 44&lt;br&gt;Percentage coverage: 100&lt;br&gt;BLAST bit score: 136&lt;br&gt;E-value: 4.26e-38" locus_tag="E6C72_RS23145" class="clusterblast-orf" id="dummy-1_h1_1_30"  />
</g>
</svg>
