<svg xmlns="http://www.w3.org/2000/svg" xmlns:xlink="http://www.w3.org/1999/xlink" version="1.1" x="0" y="0" height="230" width="800" viewBox="0 0 800 230" preserveAspectRatio="none"  >
<g label="Query sequence" class="clusterblast-cluster"  >
<text x="5" y="20" class="clusterblast-acc"  >
Query sequence</text>
<line x1="10" y1="35" x2="778.0" y2="35" style="stroke-width:1; stroke:grey; "  />
<polygon points="8,35 13,30 43,30 43,40 13,40 8,35 " style="fill:#d81515; stroke-width:1; stroke:black; " description="&lt;b&gt;GJDDMNIP_00415&lt;/b&gt;&lt;br&gt;2,3-diketo-L-gulonate-binding periplasmic protein YiaO&lt;br&gt;Location: 68686 - 69679" locus_tag="GJDDMNIP_00415" class="clusterblast-orf" id="dummy-1_q0_0_all"  />
<polygon points="47,40 69,40 74,35 69,30 47,30 47,40 " style="fill:#4dd815; stroke-width:1; stroke:black; " description="&lt;b&gt;GJDDMNIP_00416&lt;/b&gt;&lt;br&gt;Glycerol operon regulatory protein&lt;br&gt;Location: 69786 - 70542" locus_tag="GJDDMNIP_00416" class="clusterblast-orf" id="dummy-1_q1_0_all"  />
<polygon points="67,35 72,30 95,30 95,40 72,40 67,35 " style="fill:#15bcd8; stroke-width:1; stroke:black; " description="&lt;b&gt;GJDDMNIP_00417&lt;/b&gt;&lt;br&gt;hypothetical protein&lt;br&gt;Location: 70346 - 71132" locus_tag="GJDDMNIP_00417" class="clusterblast-orf" id="dummy-1_q2_0_all"  />
<polygon points="98,35 103,30 111,30 111,40 103,40 98,35 " style="fill:#8515d8; stroke-width:1; stroke:black; " description="&lt;b&gt;GJDDMNIP_00418&lt;/b&gt;&lt;br&gt;HTH-type transcriptional regulator CueR&lt;br&gt;Location: 71230 - 71593" locus_tag="GJDDMNIP_00418" class="clusterblast-orf" id="dummy-1_q3_0_all"  />
<polygon points="114,40 154,40 159,35 154,30 114,30 114,40 " style="fill:#d84d15; stroke-width:1; stroke:black; " description="&lt;b&gt;GJDDMNIP_00419&lt;/b&gt;&lt;br&gt;NADPH dehydrogenase&lt;br&gt;Location: 71666 - 72944" locus_tag="GJDDMNIP_00419" class="clusterblast-orf" id="dummy-1_q4_0_all"  />
<polygon points="159,40 179,40 184,35 179,30 159,30 159,40 " style="fill:#15d815; stroke-width:1; stroke:black; " description="&lt;b&gt;GJDDMNIP_00420&lt;/b&gt;&lt;br&gt;hypothetical protein&lt;br&gt;Location: 72957 - 73647" locus_tag="GJDDMNIP_00420" class="clusterblast-orf" id="dummy-1_q5_0_all"  />
<polygon points="187,35 192,30 258,30 258,40 192,40 187,35 " style="fill:#1585d8; stroke-width:1; stroke:black; " description="&lt;b&gt;GJDDMNIP_00421&lt;/b&gt;&lt;br&gt;hypothetical protein&lt;br&gt;Location: 73736 - 75728" locus_tag="GJDDMNIP_00421" class="clusterblast-orf" id="dummy-1_q6_0_all"  />
<polygon points="264,35 269,30 327,30 327,40 269,40 264,35 " style="fill:#bc15d8; stroke-width:1; stroke:black; " description="&lt;b&gt;GJDDMNIP_00422&lt;/b&gt;&lt;br&gt;hypothetical protein&lt;br&gt;Location: 75895 - 77659" locus_tag="GJDDMNIP_00422" class="clusterblast-orf" id="dummy-1_q7_0_all"  />
<polygon points="331,40 343,40 348,35 343,30 331,30 331,40 " style="fill:#d88515; stroke-width:1; stroke:black; " description="&lt;b&gt;GJDDMNIP_00423&lt;/b&gt;&lt;br&gt;hypothetical protein&lt;br&gt;Location: 77788 - 78265" locus_tag="GJDDMNIP_00423" class="clusterblast-orf" id="dummy-1_q8_0_all"  />
<polygon points="351,40 386,40 391,35 386,30 351,30 351,40 " style="fill:#15d84d; stroke-width:1; stroke:black; " description="&lt;b&gt;GJDDMNIP_00424&lt;/b&gt;&lt;br&gt;hypothetical protein&lt;br&gt;Location: 78351 - 79482" locus_tag="GJDDMNIP_00424" class="clusterblast-orf" id="dummy-1_q9_0_all"  />
<polygon points="391,40 434,40 439,35 434,30 391,30 391,40 " style="fill:#154dd8; stroke-width:1; stroke:black; " description="&lt;b&gt;GJDDMNIP_00425&lt;/b&gt;&lt;br&gt;hypothetical protein&lt;br&gt;Location: 79478 - 80834" locus_tag="GJDDMNIP_00425" class="clusterblast-orf" id="dummy-1_q10_0_all"  />
<polygon points="441,40 455,40 460,35 455,30 441,30 441,40 " style="fill:#d815bc; stroke-width:1; stroke:black; " description="&lt;b&gt;GJDDMNIP_00426&lt;/b&gt;&lt;br&gt;hypothetical protein&lt;br&gt;Location: 80883 - 81429" locus_tag="GJDDMNIP_00426" class="clusterblast-orf" id="dummy-1_q11_0_all"  />
<polygon points="466,35 471,30 504,30 504,40 471,40 466,35 " style="fill:#d8bc15; stroke-width:1; stroke:black; " description="&lt;b&gt;GJDDMNIP_00427&lt;/b&gt;&lt;br&gt;hypothetical protein&lt;br&gt;Location: 81585 - 82668" locus_tag="GJDDMNIP_00427" class="clusterblast-orf" id="dummy-1_q12_0_all"  />
<polygon points="509,40 529,40 534,35 529,30 509,30 509,40 " style="fill:#15d885; stroke-width:1; stroke:black; " description="&lt;b&gt;GJDDMNIP_00428&lt;/b&gt;&lt;br&gt;CRP-like cAMP-activated global transcriptional regulator&lt;br&gt;Location: 82788 - 83490" locus_tag="GJDDMNIP_00428" class="clusterblast-orf" id="dummy-1_q13_0_all"  />
<polygon points="539,40 540,40 545,35 540,30 539,30 539,40 " style="fill:#1515d8; stroke-width:1; stroke:black; " description="&lt;b&gt;GJDDMNIP_00429&lt;/b&gt;&lt;br&gt;hypothetical protein&lt;br&gt;Location: 83639 - 83804" locus_tag="GJDDMNIP_00429" class="clusterblast-orf" id="dummy-1_q14_0_all"  />
<polygon points="548,40 578,40 583,35 578,30 548,30 548,40 " style="fill:#d81585; stroke-width:1; stroke:black; " description="&lt;b&gt;GJDDMNIP_00430&lt;/b&gt;&lt;br&gt;4-hydroxyproline 2-epimerase 2&lt;br&gt;Location: 83883 - 84885" locus_tag="GJDDMNIP_00430" class="clusterblast-orf" id="dummy-1_q15_0_all"  />
<polygon points="592,35 597,30 624,30 624,40 597,40 592,35 " style="fill:#bcd815; stroke-width:1; stroke:black; " description="&lt;b&gt;GJDDMNIP_00431&lt;/b&gt;&lt;br&gt;HTH-type transcriptional activator CmpR&lt;br&gt;Location: 85125 - 86046" locus_tag="GJDDMNIP_00431" class="clusterblast-orf" id="dummy-1_q16_0_all"  />
<polygon points="629,40 665,40 670,35 665,30 629,30 629,40 " style="fill:#15d8bc; stroke-width:1; stroke:black; " description="&lt;b&gt;GJDDMNIP_00432&lt;/b&gt;&lt;br&gt;Carnitine monooxygenase oxygenase subunit&lt;br&gt;Location: 86174 - 87329" locus_tag="GJDDMNIP_00432" class="clusterblast-orf" id="dummy-1_q17_0_all"  />
<polygon points="674,40 680,40 685,35 680,30 674,30 674,40 " style="fill:#4d15d8; stroke-width:1; stroke:black; " description="&lt;b&gt;GJDDMNIP_00433&lt;/b&gt;&lt;br&gt;Rhodocoxin&lt;br&gt;Location: 87438 - 87759" locus_tag="GJDDMNIP_00433" class="clusterblast-orf" id="dummy-1_q18_0_all"  />
<polygon points="694,35 699,30 736,30 736,40 699,40 694,35 " style="fill:#d8154d; stroke-width:1; stroke:black; " description="&lt;b&gt;GJDDMNIP_00434&lt;/b&gt;&lt;br&gt;Dicamba O-demethylase 1, ferredoxin reductase component&lt;br&gt;Location: 87991 - 89197" locus_tag="GJDDMNIP_00434" class="clusterblast-orf" id="dummy-1_q19_0_all"  />
<polygon points="738,35 743,30 772,30 772,40 743,40 738,35 " style="fill:#85d815; stroke-width:1; stroke:black; " description="&lt;b&gt;GJDDMNIP_00435&lt;/b&gt;&lt;br&gt;Inner membrane ABC transporter permease protein YdcV&lt;br&gt;Location: 89244 - 90198" locus_tag="GJDDMNIP_00435" class="clusterblast-orf" id="dummy-1_q20_0_all"  />
</g>
<g label="NZ_CP058690" description="NZ_CP058690 (1975833-1998351): Paracoccus pantotrophus strain ACCC10489 chrom... (35% of genes show similarity), TfuA-related" class="clusterblast-cluster"  >
<text x="5" y="70" class="clusterblast-acc"  >
<a xlink:href="https://antismash-db.secondarymetabolites.org/area.html?record=NZ_CP058690&amp;start=1975833&amp;end=1998351" target="_blank">NZ_CP058690 (1975833-1998351)</a>: Paracoccus pantotrophus strain ACCC10489 chrom... (35% of genes show similarity), TfuA-related</text>
<line x1="10" y1="85" x2="778.0" y2="85" style="stroke-width:1; stroke:grey; "  />
</g>
<g id="a1_000"  >
<polygon points="0,90 43,90 48,85 43,80 0,80 0,90 " style="fill:white; stroke-width:1; stroke:black; " description="&lt;b&gt;HYQ43_RS17890&lt;/b&gt;&lt;br&gt;FAD-dependent oxidoreductase&lt;br&gt;Location: 1998105 - 1996741" locus_tag="HYQ43_RS17890" class="clusterblast-orf" id="dummy-1_h1_3_0"  />
</g>
<g id="a1_001"  >
<polygon points="48,90 85,90 90,85 85,80 48,80 48,90 " style="fill:white; stroke-width:1; stroke:black; " description="&lt;b&gt;HYQ43_RS17885&lt;/b&gt;&lt;br&gt;CoA transferase&lt;br&gt;Location: 1996726 - 1995557" locus_tag="HYQ43_RS17885" class="clusterblast-orf" id="dummy-1_h1_3_1"  />
</g>
<g id="a1_002"  >
<polygon points="90,90 112,90 117,85 112,80 90,80 90,90 " style="fill:white; stroke-width:1; stroke:black; " description="&lt;b&gt;HYQ43_RS17880&lt;/b&gt;&lt;br&gt;enoyl-CoA hydratase/isomerase family protein&lt;br&gt;Location: 1995560 - 1994784" locus_tag="HYQ43_RS17880" class="clusterblast-orf" id="dummy-1_h1_3_2"  />
</g>
<g id="a1_003"  >
<polygon points="118,90 125,90 130,85 125,80 118,80 118,90 " style="fill:white; stroke-width:1; stroke:black; " description="&lt;b&gt;HYQ43_RS17875&lt;/b&gt;&lt;br&gt;ferredoxin family protein&lt;br&gt;Location: 1994778 - 1994422" locus_tag="HYQ43_RS17875" class="clusterblast-orf" id="dummy-1_h1_3_3"  />
</g>
<g id="a1_004"  >
<polygon points="130,90 156,90 161,85 156,80 130,80 130,90 " style="fill:white; stroke-width:1; stroke:black; " description="&lt;b&gt;HYQ43_RS17870&lt;/b&gt;&lt;br&gt;dihydrodipicolinate synthase family protein&lt;br&gt;Location: 1994425 - 1993559" locus_tag="HYQ43_RS17870" class="clusterblast-orf" id="dummy-1_h1_3_4"  />
</g>
<g id="a1_005"  >
<polygon points="162,90 208,90 213,85 208,80 162,80 162,90 " style="fill:white; stroke-width:1; stroke:black; " description="&lt;b&gt;HYQ43_RS17865&lt;/b&gt;&lt;br&gt;aldehyde dehydrogenase family protein&lt;br&gt;Location: 1993540 - 1992095" locus_tag="HYQ43_RS17865" class="clusterblast-orf" id="dummy-1_h1_3_5"  />
</g>
<g id="a1_006"  >
<polygon points="225,90 227,90 232,85 227,80 225,80 225,90 " style="fill:white; stroke-width:1; stroke:black; " description="&lt;b&gt;HYQ43_RS17860&lt;/b&gt;&lt;br&gt;aldehyde dehydrogenase family protein&lt;br&gt;Location: 1991752 - 1991562" locus_tag="HYQ43_RS17860" class="clusterblast-orf" id="dummy-1_h1_3_6"  />
</g>
<g id="a1_007"  >
<polygon points="237,90 252,90 257,85 252,80 237,80 237,90 " style="fill:white; stroke-width:1; stroke:black; " description="&lt;b&gt;HYQ43_RS17855&lt;/b&gt;&lt;br&gt;hypothetical protein&lt;br&gt;Location: 1991423 - 1990854" locus_tag="HYQ43_RS17855" class="clusterblast-orf" id="dummy-1_h1_3_7"  />
</g>
<g id="a1_008"  >
<polygon points="260,85 265,80 323,80 323,90 265,90 260,85 " style="fill:#bc15d8; stroke-width:1; stroke:black; " description="&lt;b&gt;HYQ43_RS17850&lt;/b&gt;&lt;br&gt;tetratricopeptide repeat protein&lt;br&gt;Location: 1990771 - 1989005&lt;br&gt;&lt;br&gt;&lt;b&gt;BlastP hit with GJDDMNIP_00422&lt;/b&gt;&lt;br&gt;Percentage identity: 87&lt;br&gt;Percentage coverage: 100&lt;br&gt;BLAST bit score: 996&lt;br&gt;E-value: 0.0" locus_tag="HYQ43_RS17850" class="clusterblast-orf" id="dummy-1_h1_3_8"  />
</g>
<g id="a1_009"  >
<polygon points="327,90 339,90 344,85 339,80 327,80 327,90 " style="fill:#d88515; stroke-width:1; stroke:black; " description="&lt;b&gt;HYQ43_RS17845&lt;/b&gt;&lt;br&gt;GNAT family N-acetyltransferase&lt;br&gt;Location: 1988875 - 1988399&lt;br&gt;&lt;br&gt;&lt;b&gt;BlastP hit with GJDDMNIP_00423&lt;/b&gt;&lt;br&gt;Percentage identity: 89&lt;br&gt;Percentage coverage: 98&lt;br&gt;BLAST bit score: 278&lt;br&gt;E-value: 1.38e-95" locus_tag="HYQ43_RS17845" class="clusterblast-orf" id="dummy-1_h1_3_9"  />
</g>
<g id="a1_0010"  >
<polygon points="346,90 382,90 387,85 382,80 346,80 346,90 " style="fill:#15d84d; stroke-width:1; stroke:black; " description="&lt;b&gt;HYQ43_RS17840&lt;/b&gt;&lt;br&gt;YcaO-like family protein&lt;br&gt;Location: 1988351 - 1987185&lt;br&gt;&lt;br&gt;&lt;b&gt;BlastP hit with GJDDMNIP_00424&lt;/b&gt;&lt;br&gt;Percentage identity: 86&lt;br&gt;Percentage coverage: 99&lt;br&gt;BLAST bit score: 651&lt;br&gt;E-value: 7.78e-236" locus_tag="HYQ43_RS17840" class="clusterblast-orf" id="dummy-1_h1_3_10"  />
</g>
<g id="a1_0011"  >
<polygon points="387,90 430,90 435,85 430,80 387,80 387,90 " style="fill:#154dd8; stroke-width:1; stroke:black; " description="&lt;b&gt;HYQ43_RS17835&lt;/b&gt;&lt;br&gt;hypothetical protein&lt;br&gt;Location: 1987188 - 1985834&lt;br&gt;&lt;br&gt;&lt;b&gt;BlastP hit with GJDDMNIP_00425&lt;/b&gt;&lt;br&gt;Percentage identity: 80&lt;br&gt;Percentage coverage: 97&lt;br&gt;BLAST bit score: 689&lt;br&gt;E-value: 1.21e-248" locus_tag="HYQ43_RS17835" class="clusterblast-orf" id="dummy-1_h1_3_11"  />
</g>
<g id="a1_0012"  >
<polygon points="438,90 452,90 457,85 452,80 438,80 438,90 " style="fill:#d815bc; stroke-width:1; stroke:black; " description="&lt;b&gt;HYQ43_RS17830&lt;/b&gt;&lt;br&gt;hypothetical protein&lt;br&gt;Location: 1985767 - 1985222&lt;br&gt;&lt;br&gt;&lt;b&gt;BlastP hit with GJDDMNIP_00426&lt;/b&gt;&lt;br&gt;Percentage identity: 80&lt;br&gt;Percentage coverage: 101&lt;br&gt;BLAST bit score: 267&lt;br&gt;E-value: 1.4e-90" locus_tag="HYQ43_RS17830" class="clusterblast-orf" id="dummy-1_h1_3_12"  />
</g>
<g id="a1_0013"  >
<polygon points="463,85 468,80 502,80 502,90 468,90 463,85 " style="fill:#d8bc15; stroke-width:1; stroke:black; " description="&lt;b&gt;HYQ43_RS17825&lt;/b&gt;&lt;br&gt;hypothetical protein&lt;br&gt;Location: 1985048 - 1983972&lt;br&gt;&lt;br&gt;&lt;b&gt;BlastP hit with GJDDMNIP_00427&lt;/b&gt;&lt;br&gt;Percentage identity: 71&lt;br&gt;Percentage coverage: 99&lt;br&gt;BLAST bit score: 430&lt;br&gt;E-value: 2.12e-149" locus_tag="HYQ43_RS17825" class="clusterblast-orf" id="dummy-1_h1_3_13"  />
</g>
<g id="a1_0014"  >
<polygon points="506,90 525,90 530,85 525,80 506,80 506,90 " style="fill:#15d885; stroke-width:1; stroke:black; " description="&lt;b&gt;HYQ43_RS17820&lt;/b&gt;&lt;br&gt;Crp/Fnr family transcriptional regulator&lt;br&gt;Location: 1983849 - 1983160&lt;br&gt;&lt;br&gt;&lt;b&gt;BlastP hit with GJDDMNIP_00428&lt;/b&gt;&lt;br&gt;Percentage identity: 86&lt;br&gt;Percentage coverage: 98&lt;br&gt;BLAST bit score: 382&lt;br&gt;E-value: 1.19e-134" locus_tag="HYQ43_RS17820" class="clusterblast-orf" id="dummy-1_h1_3_14"  />
</g>
<g id="a1_0015"  >
<polygon points="537,90 571,90 576,85 571,80 537,80 537,90 " style="fill:white; stroke-width:1; stroke:black; " description="&lt;b&gt;HYQ43_RS17815&lt;/b&gt;&lt;br&gt;pyridoxal-phosphate dependent enzyme&lt;br&gt;Location: 1982965 - 1981886" locus_tag="HYQ43_RS17815" class="clusterblast-orf" id="dummy-1_h1_3_15"  />
</g>
<g id="a1_0016"  >
<polygon points="595,85 600,80 623,80 623,90 600,90 595,85 " style="fill:white; stroke-width:1; stroke:black; " description="&lt;b&gt;HYQ43_RS17810&lt;/b&gt;&lt;br&gt;arylesterase&lt;br&gt;Location: 1981339 - 1980554" locus_tag="HYQ43_RS17810" class="clusterblast-orf" id="dummy-1_h1_3_16"  />
</g>
<g id="a1_0017"  >
<polygon points="621,90 640,90 645,85 640,80 621,80 621,90 " style="fill:white; stroke-width:1; stroke:black; " description="&lt;b&gt;HYQ43_RS17805&lt;/b&gt;&lt;br&gt;ATP-binding cassette domain-containing protein&lt;br&gt;Location: 1980624 - 1979926" locus_tag="HYQ43_RS17805" class="clusterblast-orf" id="dummy-1_h1_3_17"  />
</g>
<g id="a1_0018"  >
<polygon points="648,90 734,90 739,85 734,80 648,80 648,90 " style="fill:white; stroke-width:1; stroke:black; " description="&lt;b&gt;HYQ43_RS17800&lt;/b&gt;&lt;br&gt;ABC transporter permease&lt;br&gt;Location: 1979840 - 1977303" locus_tag="HYQ43_RS17800" class="clusterblast-orf" id="dummy-1_h1_3_18"  />
</g>
<g id="a1_0019"  >
<polygon points="756,85 761,80 780,80 780,90 761,90 756,85 " style="fill:white; stroke-width:1; stroke:black; " description="&lt;b&gt;HYQ43_RS17795&lt;/b&gt;&lt;br&gt;GntR family transcriptional regulator&lt;br&gt;Location: 1976808 - 1976149" locus_tag="HYQ43_RS17795" class="clusterblast-orf" id="dummy-1_h1_3_19"  />
</g>
</svg>
