<svg xmlns="http://www.w3.org/2000/svg" xmlns:xlink="http://www.w3.org/1999/xlink" version="1.1" x="0" y="0" height="50" width="800" viewBox="0 0 800 50" preserveAspectRatio="none"  >
<g label="Query sequence" class="clusterblast-cluster"  >
<text x="5" y="20" class="clusterblast-acc"  >
Query sequence</text>
<line x1="10" y1="35" x2="778.0" y2="35" style="stroke-width:1; stroke:grey; "  />
<polygon points="0,35 5,30 5,30 5,40 5,40 0,35 " style="fill:white; stroke-width:1; stroke:black; " description="&lt;b&gt;GJDDMNIP_00714&lt;/b&gt;&lt;br&gt;Putative anti-sigma factor antagonist&lt;br&gt;Location: 51278 - 51644" locus_tag="GJDDMNIP_00714" class="clusterblast-orf" id="knownclusterblast-2_q0_0_all"  />
<polygon points="9,40 10,40 15,35 10,30 9,30 9,40 " style="fill:white; stroke-width:1; stroke:black; " description="&lt;b&gt;GJDDMNIP_00715&lt;/b&gt;&lt;br&gt;hypothetical protein&lt;br&gt;Location: 51882 - 52260" locus_tag="GJDDMNIP_00715" class="clusterblast-orf" id="knownclusterblast-2_q1_0_all"  />
<polygon points="15,40 47,40 52,35 47,30 15,30 15,40 " style="fill:white; stroke-width:1; stroke:black; " description="&lt;b&gt;GJDDMNIP_00716&lt;/b&gt;&lt;br&gt;hypothetical protein&lt;br&gt;Location: 52280 - 54743" locus_tag="GJDDMNIP_00716" class="clusterblast-orf" id="knownclusterblast-2_q2_0_all"  />
<polygon points="55,40 72,40 77,35 72,30 55,30 55,40 " style="fill:white; stroke-width:1; stroke:black; " description="&lt;b&gt;GJDDMNIP_00717&lt;/b&gt;&lt;br&gt;hypothetical protein&lt;br&gt;Location: 54953 - 56366" locus_tag="GJDDMNIP_00717" class="clusterblast-orf" id="knownclusterblast-2_q3_0_all"  />
<polygon points="77,40 87,40 92,35 87,30 77,30 77,40 " style="fill:white; stroke-width:1; stroke:black; " description="&lt;b&gt;GJDDMNIP_00718&lt;/b&gt;&lt;br&gt;hypothetical protein&lt;br&gt;Location: 56380 - 57340" locus_tag="GJDDMNIP_00718" class="clusterblast-orf" id="knownclusterblast-2_q4_0_all"  />
<polygon points="92,40 99,40 104,35 99,30 92,30 92,40 " style="fill:white; stroke-width:1; stroke:black; " description="&lt;b&gt;GJDDMNIP_00719&lt;/b&gt;&lt;br&gt;hypothetical protein&lt;br&gt;Location: 57350 - 58157" locus_tag="GJDDMNIP_00719" class="clusterblast-orf" id="knownclusterblast-2_q5_0_all"  />
<polygon points="105,40 111,40 116,35 111,30 105,30 105,40 " style="fill:white; stroke-width:1; stroke:black; " description="&lt;b&gt;GJDDMNIP_00720&lt;/b&gt;&lt;br&gt;hypothetical protein&lt;br&gt;Location: 58220 - 58946" locus_tag="GJDDMNIP_00720" class="clusterblast-orf" id="knownclusterblast-2_q6_0_all"  />
<polygon points="116,35 121,30 156,30 156,40 121,40 116,35 " style="fill:white; stroke-width:1; stroke:black; " description="&lt;b&gt;GJDDMNIP_00721&lt;/b&gt;&lt;br&gt;DNA mismatch repair protein MutS&lt;br&gt;Location: 58958 - 61595" locus_tag="GJDDMNIP_00721" class="clusterblast-orf" id="knownclusterblast-2_q7_0_all"  />
<polygon points="159,40 166,40 171,35 166,30 159,30 159,40 " style="fill:white; stroke-width:1; stroke:black; " description="&lt;b&gt;GJDDMNIP_00722&lt;/b&gt;&lt;br&gt;2-keto-4-pentenoate hydratase&lt;br&gt;Location: 61751 - 62591" locus_tag="GJDDMNIP_00722" class="clusterblast-orf" id="knownclusterblast-2_q8_0_all"  />
<polygon points="174,40 185,40 190,35 185,30 174,30 174,40 " style="fill:white; stroke-width:1; stroke:black; " description="&lt;b&gt;GJDDMNIP_00723&lt;/b&gt;&lt;br&gt;hypothetical protein&lt;br&gt;Location: 62735 - 63842" locus_tag="GJDDMNIP_00723" class="clusterblast-orf" id="knownclusterblast-2_q9_0_all"  />
<polygon points="191,40 199,40 204,35 199,30 191,30 191,40 " style="fill:white; stroke-width:1; stroke:black; " description="&lt;b&gt;GJDDMNIP_00724&lt;/b&gt;&lt;br&gt;hypothetical protein&lt;br&gt;Location: 63895 - 64744" locus_tag="GJDDMNIP_00724" class="clusterblast-orf" id="knownclusterblast-2_q10_0_all"  />
<polygon points="204,40 211,40 216,35 211,30 204,30 204,40 " style="fill:white; stroke-width:1; stroke:black; " description="&lt;b&gt;GJDDMNIP_00725&lt;/b&gt;&lt;br&gt;hypothetical protein&lt;br&gt;Location: 64740 - 65523" locus_tag="GJDDMNIP_00725" class="clusterblast-orf" id="knownclusterblast-2_q11_0_all"  />
<polygon points="216,40 227,40 232,35 227,30 216,30 216,40 " style="fill:white; stroke-width:1; stroke:black; " description="&lt;b&gt;GJDDMNIP_00726&lt;/b&gt;&lt;br&gt;Vitamin B12 import ATP-binding protein BtuD&lt;br&gt;Location: 65519 - 66554" locus_tag="GJDDMNIP_00726" class="clusterblast-orf" id="knownclusterblast-2_q12_0_all"  />
<polygon points="239,40 260,40 265,35 260,30 239,30 239,40 " style="fill:white; stroke-width:1; stroke:black; " description="&lt;b&gt;GJDDMNIP_00727&lt;/b&gt;&lt;br&gt;hypothetical protein&lt;br&gt;Location: 67059 - 68775" locus_tag="GJDDMNIP_00727" class="clusterblast-orf" id="knownclusterblast-2_q13_0_all"  />
<polygon points="266,35 271,30 278,30 278,40 271,40 266,35 " style="fill:white; stroke-width:1; stroke:black; " description="&lt;b&gt;GJDDMNIP_00728&lt;/b&gt;&lt;br&gt;N-acetylglucosaminyldiphosphoundecaprenol N-acetyl-beta-D-mannosaminyltransferase&lt;br&gt;Location: 68811 - 69585" locus_tag="GJDDMNIP_00728" class="clusterblast-orf" id="knownclusterblast-2_q14_0_all"  />
<polygon points="279,40 296,40 301,35 296,30 279,30 279,40 " style="fill:white; stroke-width:1; stroke:black; " description="&lt;b&gt;GJDDMNIP_00729&lt;/b&gt;&lt;br&gt;hypothetical protein&lt;br&gt;Location: 69702 - 71127" locus_tag="GJDDMNIP_00729" class="clusterblast-orf" id="knownclusterblast-2_q15_0_all"  />
<polygon points="303,40 393,40 398,35 393,30 303,30 303,40 " style="fill:white; stroke-width:1; stroke:black; " description="&lt;b&gt;GJDDMNIP_00730&lt;/b&gt;&lt;br&gt;3-phenylpropionate-dihydrodiol/cinnamic acid-dihydrodiol dehydrogenase&lt;br&gt;Location: 71226 - 77508" locus_tag="GJDDMNIP_00730" class="clusterblast-orf" id="knownclusterblast-2_q16_0_all"  />
<polygon points="398,40 408,40 413,35 408,30 398,30 398,40 " style="fill:white; stroke-width:1; stroke:black; " description="&lt;b&gt;GJDDMNIP_00731&lt;/b&gt;&lt;br&gt;hypothetical protein&lt;br&gt;Location: 77510 - 78503" locus_tag="GJDDMNIP_00731" class="clusterblast-orf" id="knownclusterblast-2_q17_0_all"  />
<polygon points="413,40 478,40 483,35 478,30 413,30 413,40 " style="fill:white; stroke-width:1; stroke:black; " description="&lt;b&gt;GJDDMNIP_00732&lt;/b&gt;&lt;br&gt;D-alanine--D-alanyl carrier protein ligase&lt;br&gt;Location: 78499 - 83125" locus_tag="GJDDMNIP_00732" class="clusterblast-orf" id="knownclusterblast-2_q18_0_all"  />
<polygon points="483,40 488,40 493,35 488,30 483,30 483,40 " style="fill:white; stroke-width:1; stroke:black; " description="&lt;b&gt;GJDDMNIP_00733&lt;/b&gt;&lt;br&gt;hypothetical protein&lt;br&gt;Location: 83121 - 83745" locus_tag="GJDDMNIP_00733" class="clusterblast-orf" id="knownclusterblast-2_q19_0_all"  />
<polygon points="492,35 497,30 511,30 511,40 497,40 492,35 " style="fill:white; stroke-width:1; stroke:black; " description="&lt;b&gt;GJDDMNIP_00734&lt;/b&gt;&lt;br&gt;D-inositol-3-phosphate glycosyltransferase&lt;br&gt;Location: 83725 - 84931" locus_tag="GJDDMNIP_00734" class="clusterblast-orf" id="knownclusterblast-2_q20_0_all"  />
<polygon points="513,40 517,35 513,30 513,40 " style="fill:white; stroke-width:1; stroke:black; " description="&lt;b&gt;GJDDMNIP_00735&lt;/b&gt;&lt;br&gt;hypothetical protein&lt;br&gt;Location: 85107 - 85326" locus_tag="GJDDMNIP_00735" class="clusterblast-orf" id="knownclusterblast-2_q21_0_all"  />
<polygon points="516,35 521,30 527,30 527,40 521,40 516,35 " style="fill:white; stroke-width:1; stroke:black; " description="&lt;b&gt;GJDDMNIP_00736&lt;/b&gt;&lt;br&gt;putative sugar transferase EpsL&lt;br&gt;Location: 85319 - 86018" locus_tag="GJDDMNIP_00736" class="clusterblast-orf" id="knownclusterblast-2_q22_0_all"  />
<polygon points="532,40 538,40 543,35 538,30 532,30 532,40 " style="fill:white; stroke-width:1; stroke:black; " description="&lt;b&gt;GJDDMNIP_00737&lt;/b&gt;&lt;br&gt;hypothetical protein&lt;br&gt;Location: 86323 - 87094" locus_tag="GJDDMNIP_00737" class="clusterblast-orf" id="knownclusterblast-2_q23_0_all"  />
<polygon points="543,35 548,30 556,30 556,40 548,40 543,35 " style="fill:white; stroke-width:1; stroke:black; " description="&lt;b&gt;GJDDMNIP_00738&lt;/b&gt;&lt;br&gt;hypothetical protein&lt;br&gt;Location: 87090 - 87918" locus_tag="GJDDMNIP_00738" class="clusterblast-orf" id="knownclusterblast-2_q24_0_all"  />
<polygon points="560,40 566,40 571,35 566,30 560,30 560,40 " style="fill:white; stroke-width:1; stroke:black; " description="&lt;b&gt;GJDDMNIP_00739&lt;/b&gt;&lt;br&gt;Putative tyrosine-protein kinase YveL&lt;br&gt;Location: 88186 - 88924" locus_tag="GJDDMNIP_00739" class="clusterblast-orf" id="knownclusterblast-2_q25_0_all"  />
<polygon points="572,40 589,40 594,35 589,30 572,30 572,40 " style="fill:white; stroke-width:1; stroke:black; " description="&lt;b&gt;GJDDMNIP_00740&lt;/b&gt;&lt;br&gt;hypothetical protein&lt;br&gt;Location: 88984 - 90451" locus_tag="GJDDMNIP_00740" class="clusterblast-orf" id="knownclusterblast-2_q26_0_all"  />
<polygon points="594,40 610,40 615,35 610,30 594,30 594,40 " style="fill:white; stroke-width:1; stroke:black; " description="&lt;b&gt;GJDDMNIP_00741&lt;/b&gt;&lt;br&gt;Teichuronic acid biosynthesis protein TuaB&lt;br&gt;Location: 90450 - 91824" locus_tag="GJDDMNIP_00741" class="clusterblast-orf" id="knownclusterblast-2_q27_0_all"  />
<polygon points="617,40 646,40 651,35 646,30 617,30 617,40 " style="fill:white; stroke-width:1; stroke:black; " description="&lt;b&gt;GJDDMNIP_00742&lt;/b&gt;&lt;br&gt;NADP-dependent malic enzyme&lt;br&gt;Location: 91908 - 94191" locus_tag="GJDDMNIP_00742" class="clusterblast-orf" id="knownclusterblast-2_q28_0_all"  />
<polygon points="652,35 657,30 661,30 661,40 657,40 652,35 " style="fill:white; stroke-width:1; stroke:black; " description="&lt;b&gt;GJDDMNIP_00743&lt;/b&gt;&lt;br&gt;hypothetical protein&lt;br&gt;Location: 94251 - 94851" locus_tag="GJDDMNIP_00743" class="clusterblast-orf" id="knownclusterblast-2_q29_0_all"  />
<polygon points="665,35 670,30 679,30 679,40 670,40 665,35 " style="fill:white; stroke-width:1; stroke:black; " description="&lt;b&gt;GJDDMNIP_00744&lt;/b&gt;&lt;br&gt;hypothetical protein&lt;br&gt;Location: 95072 - 96041" locus_tag="GJDDMNIP_00744" class="clusterblast-orf" id="knownclusterblast-2_q30_0_all"  />
<polygon points="680,40 684,40 689,35 684,30 680,30 680,40 " style="fill:white; stroke-width:1; stroke:black; " description="&lt;b&gt;GJDDMNIP_00745&lt;/b&gt;&lt;br&gt;Nicotinamidase&lt;br&gt;Location: 96095 - 96692" locus_tag="GJDDMNIP_00745" class="clusterblast-orf" id="knownclusterblast-2_q31_0_all"  />
<polygon points="689,40 704,40 709,35 704,30 689,30 689,40 " style="fill:white; stroke-width:1; stroke:black; " description="&lt;b&gt;GJDDMNIP_00746&lt;/b&gt;&lt;br&gt;Nicotinate phosphoribosyltransferase&lt;br&gt;Location: 96688 - 97999" locus_tag="GJDDMNIP_00746" class="clusterblast-orf" id="knownclusterblast-2_q32_0_all"  />
<polygon points="712,35 717,30 737,30 737,40 717,40 712,35 " style="fill:white; stroke-width:1; stroke:black; " description="&lt;b&gt;GJDDMNIP_00747&lt;/b&gt;&lt;br&gt;Glutamine-dependent NAD(+) synthetase&lt;br&gt;Location: 98168 - 99839" locus_tag="GJDDMNIP_00747" class="clusterblast-orf" id="knownclusterblast-2_q33_0_all"  />
<polygon points="739,40 756,40 761,35 756,30 739,30 739,40 " style="fill:white; stroke-width:1; stroke:black; " description="&lt;b&gt;GJDDMNIP_00748&lt;/b&gt;&lt;br&gt;hypothetical protein&lt;br&gt;Location: 99970 - 101437" locus_tag="GJDDMNIP_00748" class="clusterblast-orf" id="knownclusterblast-2_q34_0_all"  />
<polygon points="763,35 768,30 770,30 770,40 768,40 763,35 " style="fill:white; stroke-width:1; stroke:black; " description="&lt;b&gt;GJDDMNIP_00749&lt;/b&gt;&lt;br&gt;Xanthine phosphoribosyltransferase&lt;br&gt;Location: 101543 - 102041" locus_tag="GJDDMNIP_00749" class="clusterblast-orf" id="knownclusterblast-2_q35_0_all"  />
<polygon points="770,35 775,30 780,30 780,40 775,40 770,35 " style="fill:white; stroke-width:1; stroke:black; " description="&lt;b&gt;GJDDMNIP_00750&lt;/b&gt;&lt;br&gt;Threonine efflux protein&lt;br&gt;Location: 102050 - 102653" locus_tag="GJDDMNIP_00750" class="clusterblast-orf" id="knownclusterblast-2_q36_0_all"  />
</g>
</svg>
