<svg xmlns="http://www.w3.org/2000/svg" xmlns:xlink="http://www.w3.org/1999/xlink" version="1.1" x="0" y="0" height="300" width="800" viewBox="0 0 800 300" preserveAspectRatio="none"  >
<g label="Query sequence" class="clusterblast-cluster"  >
<text x="5" y="20" class="clusterblast-acc"  >
Query sequence</text>
<line x1="10" y1="35" x2="778.0" y2="35" style="stroke-width:1; stroke:grey; "  />
<polygon points="0,35 5,30 26,30 26,40 5,40 0,35 " style="fill:white; stroke-width:1; stroke:black; " description="&lt;b&gt;GJDDMNIP_00840&lt;/b&gt;&lt;br&gt;putative alcohol dehydrogenase AdhA&lt;br&gt;Location: 8672 - 9656" locus_tag="GJDDMNIP_00840" class="clusterblast-orf" id="knownclusterblast-1_q0_0_all"  />
<polygon points="28,35 33,30 49,30 49,40 33,40 28,35 " style="fill:white; stroke-width:1; stroke:black; " description="&lt;b&gt;GJDDMNIP_00841&lt;/b&gt;&lt;br&gt;Hemin import ATP-binding protein HmuV&lt;br&gt;Location: 9756 - 10530" locus_tag="GJDDMNIP_00841" class="clusterblast-orf" id="knownclusterblast-1_q1_0_all"  />
<polygon points="49,35 54,30 77,30 77,40 54,40 49,35 " style="fill:white; stroke-width:1; stroke:black; " description="&lt;b&gt;GJDDMNIP_00842&lt;/b&gt;&lt;br&gt;Hemin transport system permease protein HmuU&lt;br&gt;Location: 10526 - 11603" locus_tag="GJDDMNIP_00842" class="clusterblast-orf" id="knownclusterblast-1_q2_0_all"  />
<polygon points="77,35 82,30 100,30 100,40 82,40 77,35 " style="fill:white; stroke-width:1; stroke:black; " description="&lt;b&gt;GJDDMNIP_00843&lt;/b&gt;&lt;br&gt;Hemin-binding periplasmic protein HmuT&lt;br&gt;Location: 11602 - 12478" locus_tag="GJDDMNIP_00843" class="clusterblast-orf" id="knownclusterblast-1_q3_0_all"  />
<polygon points="100,35 105,30 128,30 128,40 105,40 100,35 " style="fill:white; stroke-width:1; stroke:black; " description="&lt;b&gt;GJDDMNIP_00844&lt;/b&gt;&lt;br&gt;Hemin transport protein HemS&lt;br&gt;Location: 12474 - 13515" locus_tag="GJDDMNIP_00844" class="clusterblast-orf" id="knownclusterblast-1_q4_0_all"  />
<polygon points="132,40 182,40 187,35 182,30 132,30 132,40 " style="fill:white; stroke-width:1; stroke:black; " description="&lt;b&gt;GJDDMNIP_00845&lt;/b&gt;&lt;br&gt;Hemin receptor&lt;br&gt;Location: 13674 - 15735" locus_tag="GJDDMNIP_00845" class="clusterblast-orf" id="knownclusterblast-1_q5_0_all"  />
<polygon points="189,35 194,30 234,30 234,40 194,40 189,35 " style="fill:white; stroke-width:1; stroke:black; " description="&lt;b&gt;GJDDMNIP_00846&lt;/b&gt;&lt;br&gt;Putative multidrug export ATP-binding/permease protein&lt;br&gt;Location: 15840 - 17541" locus_tag="GJDDMNIP_00846" class="clusterblast-orf" id="knownclusterblast-1_q6_0_all"  />
<polygon points="250,40 256,40 261,35 256,30 250,30 250,40 " style="fill:white; stroke-width:1; stroke:black; " description="&lt;b&gt;GJDDMNIP_00847&lt;/b&gt;&lt;br&gt;hypothetical protein&lt;br&gt;Location: 18146 - 18539" locus_tag="GJDDMNIP_00847" class="clusterblast-orf" id="knownclusterblast-1_q7_0_all"  />
<polygon points="262,40 306,40 311,35 306,30 262,30 262,40 " style="fill:white; stroke-width:1; stroke:black; " description="&lt;b&gt;GJDDMNIP_00848&lt;/b&gt;&lt;br&gt;hypothetical protein&lt;br&gt;Location: 18570 - 20433" locus_tag="GJDDMNIP_00848" class="clusterblast-orf" id="knownclusterblast-1_q8_0_all"  />
<polygon points="310,40 335,40 340,35 335,30 310,30 310,40 " style="fill:white; stroke-width:1; stroke:black; " description="&lt;b&gt;GJDDMNIP_00849&lt;/b&gt;&lt;br&gt;hypothetical protein&lt;br&gt;Location: 20404 - 21520" locus_tag="GJDDMNIP_00849" class="clusterblast-orf" id="knownclusterblast-1_q9_0_all"  />
<polygon points="340,40 369,40 374,35 369,30 340,30 340,40 " style="fill:white; stroke-width:1; stroke:black; " description="&lt;b&gt;GJDDMNIP_00850&lt;/b&gt;&lt;br&gt;hypothetical protein&lt;br&gt;Location: 21516 - 22827" locus_tag="GJDDMNIP_00850" class="clusterblast-orf" id="knownclusterblast-1_q10_0_all"  />
<polygon points="374,40 390,40 395,35 390,30 374,30 374,40 " style="fill:white; stroke-width:1; stroke:black; " description="&lt;b&gt;GJDDMNIP_00851&lt;/b&gt;&lt;br&gt;hypothetical protein&lt;br&gt;Location: 22831 - 23611" locus_tag="GJDDMNIP_00851" class="clusterblast-orf" id="knownclusterblast-1_q11_0_all"  />
<polygon points="398,40 443,40 448,35 443,30 398,30 398,40 " style="fill:white; stroke-width:1; stroke:black; " description="&lt;b&gt;GJDDMNIP_00852&lt;/b&gt;&lt;br&gt;hypothetical protein&lt;br&gt;Location: 23738 - 25628" locus_tag="GJDDMNIP_00852" class="clusterblast-orf" id="knownclusterblast-1_q12_0_all"  />
<polygon points="448,35 453,30 468,30 468,40 453,40 448,35 " style="fill:white; stroke-width:1; stroke:black; " description="&lt;b&gt;GJDDMNIP_00853&lt;/b&gt;&lt;br&gt;hypothetical protein&lt;br&gt;Location: 25624 - 26353" locus_tag="GJDDMNIP_00853" class="clusterblast-orf" id="knownclusterblast-1_q13_0_all"  />
<polygon points="468,35 473,30 505,30 505,40 473,40 468,35 " style="fill:white; stroke-width:1; stroke:black; " description="&lt;b&gt;GJDDMNIP_00854&lt;/b&gt;&lt;br&gt;hypothetical protein&lt;br&gt;Location: 26366 - 27782" locus_tag="GJDDMNIP_00854" class="clusterblast-orf" id="knownclusterblast-1_q14_0_all"  />
<polygon points="506,35 511,30 529,30 529,40 511,40 506,35 " style="fill:white; stroke-width:1; stroke:black; " description="&lt;b&gt;GJDDMNIP_00855&lt;/b&gt;&lt;br&gt;hypothetical protein&lt;br&gt;Location: 27790 - 28669" locus_tag="GJDDMNIP_00855" class="clusterblast-orf" id="knownclusterblast-1_q15_0_all"  />
<polygon points="541,40 570,40 575,35 570,30 541,30 541,40 " style="fill:white; stroke-width:1; stroke:black; " description="&lt;b&gt;GJDDMNIP_00856&lt;/b&gt;&lt;br&gt;sn-glycerol-3-phosphate-binding periplasmic protein UgpB&lt;br&gt;Location: 29108 - 30404" locus_tag="GJDDMNIP_00856" class="clusterblast-orf" id="knownclusterblast-1_q16_0_all"  />
<polygon points="576,40 594,40 599,35 594,30 576,30 576,40 " style="fill:white; stroke-width:1; stroke:black; " description="&lt;b&gt;GJDDMNIP_00857&lt;/b&gt;&lt;br&gt;sn-glycerol-3-phosphate transport system permease protein UgpA&lt;br&gt;Location: 30453 - 31335" locus_tag="GJDDMNIP_00857" class="clusterblast-orf" id="knownclusterblast-1_q17_0_all"  />
<polygon points="599,40 617,40 622,35 617,30 599,30 599,40 " style="fill:white; stroke-width:1; stroke:black; " description="&lt;b&gt;GJDDMNIP_00858&lt;/b&gt;&lt;br&gt;L-arabinose transport system permease protein AraQ&lt;br&gt;Location: 31327 - 32191" locus_tag="GJDDMNIP_00858" class="clusterblast-orf" id="knownclusterblast-1_q18_0_all"  />
<polygon points="622,40 645,40 650,35 645,30 622,30 622,40 " style="fill:white; stroke-width:1; stroke:black; " description="&lt;b&gt;GJDDMNIP_00859&lt;/b&gt;&lt;br&gt;sn-glycerol-3-phosphate import ATP-binding protein UgpC&lt;br&gt;Location: 32191 - 33253" locus_tag="GJDDMNIP_00859" class="clusterblast-orf" id="knownclusterblast-1_q19_0_all"  />
<polygon points="650,35 655,30 675,30 675,40 655,40 650,35 " style="fill:white; stroke-width:1; stroke:black; " description="&lt;b&gt;GJDDMNIP_00860&lt;/b&gt;&lt;br&gt;Multifunctional non-homologous end joining protein LigD&lt;br&gt;Location: 33262 - 34180" locus_tag="GJDDMNIP_00860" class="clusterblast-orf" id="knownclusterblast-1_q20_0_all"  />
<polygon points="682,40 696,40 701,35 696,30 682,30 682,40 " style="fill:#d81515; stroke-width:1; stroke:black; " description="&lt;b&gt;GJDDMNIP_00861&lt;/b&gt;&lt;br&gt;7-cyano-7-deazaguanine synthase&lt;br&gt;Location: 34452 - 35154" locus_tag="GJDDMNIP_00861" class="clusterblast-orf" id="knownclusterblast-1_q21_0_all"  />
<polygon points="701,40 705,40 710,35 705,30 701,30 701,40 " style="fill:#15d815; stroke-width:1; stroke:black; " description="&lt;b&gt;GJDDMNIP_00862&lt;/b&gt;&lt;br&gt;6-carboxy-5,6,7,8-tetrahydropterin synthase&lt;br&gt;Location: 35153 - 35507" locus_tag="GJDDMNIP_00862" class="clusterblast-orf" id="knownclusterblast-1_q22_0_all"  />
<polygon points="710,40 724,40 729,35 724,30 710,30 710,40 " style="fill:#1515d8; stroke-width:1; stroke:black; " description="&lt;b&gt;GJDDMNIP_00863&lt;/b&gt;&lt;br&gt;7-carboxy-7-deazaguanine synthase&lt;br&gt;Location: 35503 - 36211" locus_tag="GJDDMNIP_00863" class="clusterblast-orf" id="knownclusterblast-1_q23_0_all"  />
<polygon points="729,40 736,40 741,35 736,30 729,30 729,40 " style="fill:white; stroke-width:1; stroke:black; " description="&lt;b&gt;GJDDMNIP_00864&lt;/b&gt;&lt;br&gt;NADPH-dependent 7-cyano-7-deazaguanine reductase&lt;br&gt;Location: 36226 - 36691" locus_tag="GJDDMNIP_00864" class="clusterblast-orf" id="knownclusterblast-1_q24_0_all"  />
<polygon points="745,40 775,40 780,35 775,30 745,30 745,40 " style="fill:white; stroke-width:1; stroke:black; " description="&lt;b&gt;GJDDMNIP_00865&lt;/b&gt;&lt;br&gt;hypothetical protein&lt;br&gt;Location: 36839 - 38147" locus_tag="GJDDMNIP_00865" class="clusterblast-orf" id="knownclusterblast-1_q25_0_all"  />
</g>
<g label="BGC0000802" description="BGC0000802_c1: succinoglycan (33% of genes show similarity), Saccharide" class="clusterblast-cluster"  >
<text x="5" y="70" class="clusterblast-acc"  >
<a xlink:href="https://mibig.secondarymetabolites.org/go/BGC0000802/1" target="_blank">BGC0000802</a>: succinoglycan                                                                    (33% of genes show similarity), Saccharide</text>
<line x1="10" y1="85" x2="778.0" y2="85" style="stroke-width:1; stroke:grey; "  />
</g>
<g id="a1_000"  >
<polygon points="250,85 253,80 253,90 250,85 " style="fill:white; stroke-width:1; stroke:black; " description="&lt;b&gt;CAA12528.1&lt;/b&gt;&lt;br&gt;UDP-glucose 4-epimerase&lt;br&gt;Location: 1 - 129" locus_tag="CAA12528.1" class="clusterblast-orf" id="knownclusterblast-1_all_1_1_0"  />
</g>
<g id="a1_001"  >
<polygon points="267,90 310,90 315,85 310,80 267,80 267,90 " style="fill:white; stroke-width:1; stroke:black; " description="&lt;b&gt;CAA12529.1&lt;/b&gt;&lt;br&gt;ExsA protein&lt;br&gt;Location: 661 - 2475" locus_tag="CAA12529.1" class="clusterblast-orf" id="knownclusterblast-1_all_1_1_1"  />
</g>
<g id="a1_002"  >
<polygon points="319,90 332,90 337,85 332,80 319,80 319,90 " style="fill:#d81515; stroke-width:1; stroke:black; " description="&lt;b&gt;CAA12530.1&lt;/b&gt;&lt;br&gt;ExsB protein&lt;br&gt;Location: 2620 - 3324&lt;br&gt;&lt;br&gt;&lt;b&gt;BlastP hit with GJDDMNIP_00861&lt;/b&gt;&lt;br&gt;Percentage identity: 75&lt;br&gt;Percentage coverage: 83&lt;br&gt;BLAST bit score: 296&lt;br&gt;E-value: 2.44e-102" locus_tag="CAA12530.1" class="clusterblast-orf" id="knownclusterblast-1_all_1_1_2"  />
</g>
<g id="a1_003"  >
<polygon points="338,90 342,90 347,85 342,80 338,80 338,90 " style="fill:#15d815; stroke-width:1; stroke:black; " description="&lt;b&gt;CAA12531.1&lt;/b&gt;&lt;br&gt;ExsC protein&lt;br&gt;Location: 3326 - 3685&lt;br&gt;&lt;br&gt;&lt;b&gt;BlastP hit with GJDDMNIP_00862&lt;/b&gt;&lt;br&gt;Percentage identity: 76&lt;br&gt;Percentage coverage: 101&lt;br&gt;BLAST bit score: 184&lt;br&gt;E-value: 1.09e-61" locus_tag="CAA12531.1" class="clusterblast-orf" id="knownclusterblast-1_all_1_1_3"  />
</g>
<g id="a1_004"  >
<polygon points="347,90 361,90 366,85 361,80 347,80 347,90 " style="fill:#1515d8; stroke-width:1; stroke:black; " description="&lt;b&gt;CAA12532.1&lt;/b&gt;&lt;br&gt;ExsD protein&lt;br&gt;Location: 3682 - 4419&lt;br&gt;&lt;br&gt;&lt;b&gt;BlastP hit with GJDDMNIP_00863&lt;/b&gt;&lt;br&gt;Percentage identity: 62&lt;br&gt;Percentage coverage: 101&lt;br&gt;BLAST bit score: 317&lt;br&gt;E-value: 4.74e-110" locus_tag="CAA12532.1" class="clusterblast-orf" id="knownclusterblast-1_all_1_1_4"  />
</g>
<g id="a1_005"  >
<polygon points="368,85 373,80 416,80 416,90 373,90 368,85 " style="fill:white; stroke-width:1; stroke:black; " description="&lt;b&gt;CAA12533.1&lt;/b&gt;&lt;br&gt;ExsE protein&lt;br&gt;Location: 4466 - 6286" locus_tag="CAA12533.1" class="clusterblast-orf" id="knownclusterblast-1_all_1_1_5"  />
</g>
<g id="a1_006"  >
<polygon points="438,90 440,90 445,85 440,80 438,80 438,90 " style="fill:white; stroke-width:1; stroke:black; " description="&lt;b&gt;CAA12534.1&lt;/b&gt;&lt;br&gt;ExsI protein&lt;br&gt;Location: 7134 - 7385" locus_tag="CAA12534.1" class="clusterblast-orf" id="knownclusterblast-1_all_1_1_6"  />
</g>
<g id="a1_007"  >
<polygon points="443,85 448,80 457,80 457,90 448,90 443,85 " style="fill:white; stroke-width:1; stroke:black; " description="&lt;b&gt;CAA12535.1&lt;/b&gt;&lt;br&gt;ExsF protein&lt;br&gt;Location: 7324 - 7860" locus_tag="CAA12535.1" class="clusterblast-orf" id="knownclusterblast-1_all_1_1_7"  />
</g>
<g id="a1_008"  >
<polygon points="457,85 462,80 529,80 529,90 462,90 457,85 " style="fill:white; stroke-width:1; stroke:black; " description="&lt;b&gt;CAA12536.1&lt;/b&gt;&lt;br&gt;ExsG protein&lt;br&gt;Location: 7857 - 10580" locus_tag="CAA12536.1" class="clusterblast-orf" id="knownclusterblast-1_all_1_1_8"  />
</g>
<g label="BGC0000879" description="BGC0000879_c1: toyocamycin/sangivamycin (16% of genes show similarity), Other" class="clusterblast-cluster"  >
<text x="5" y="120" class="clusterblast-acc"  >
<a xlink:href="https://mibig.secondarymetabolites.org/go/BGC0000879/1" target="_blank">BGC0000879</a>: toyocamycin/sangivamycin                                                         (16% of genes show similarity), Other</text>
<line x1="10" y1="135" x2="778.0" y2="135" style="stroke-width:1; stroke:grey; "  />
</g>
<g id="a1_000"  >
<polygon points="233,140 247,140 252,135 247,130 233,130 233,140 " style="fill:#d81515; stroke-width:1; stroke:black; " description="&lt;b&gt;ACF06644.1&lt;/b&gt;&lt;br&gt;ToyM&lt;br&gt;Location: 12985 - 12269&lt;br&gt;&lt;br&gt;&lt;b&gt;BlastP hit with GJDDMNIP_00861&lt;/b&gt;&lt;br&gt;Percentage identity: 53&lt;br&gt;Percentage coverage: 95&lt;br&gt;BLAST bit score: 237&lt;br&gt;E-value: 6.79e-79" locus_tag="ACF06644.1" class="clusterblast-orf" id="knownclusterblast-1_all_1_2_0"  />
</g>
<g id="a1_001"  >
<polygon points="253,140 255,140 260,135 255,130 253,130 253,140 " style="fill:white; stroke-width:1; stroke:black; " description="&lt;b&gt;ACF06643.1&lt;/b&gt;&lt;br&gt;ToyL&lt;br&gt;Location: 12252 - 11977" locus_tag="ACF06643.1" class="clusterblast-orf" id="knownclusterblast-1_all_1_2_1"  />
</g>
<g id="a1_002"  >
<polygon points="260,140 263,140 268,135 263,130 260,130 260,140 " style="fill:white; stroke-width:1; stroke:black; " description="&lt;b&gt;ACF06642.1&lt;/b&gt;&lt;br&gt;ToyK&lt;br&gt;Location: 11984 - 11673" locus_tag="ACF06642.1" class="clusterblast-orf" id="knownclusterblast-1_all_1_2_2"  />
</g>
<g id="a1_003"  >
<polygon points="268,140 278,140 283,135 278,130 268,130 268,140 " style="fill:white; stroke-width:1; stroke:black; " description="&lt;b&gt;ACF06641.1&lt;/b&gt;&lt;br&gt;ToyJ&lt;br&gt;Location: 11676 - 11089" locus_tag="ACF06641.1" class="clusterblast-orf" id="knownclusterblast-1_all_1_2_3"  />
</g>
<g id="a1_004"  >
<polygon points="286,135 291,130 305,130 305,140 291,140 286,135 " style="fill:white; stroke-width:1; stroke:black; " description="&lt;b&gt;ACF06640.1&lt;/b&gt;&lt;br&gt;ToyI&lt;br&gt;Location: 10977 - 10252" locus_tag="ACF06640.1" class="clusterblast-orf" id="knownclusterblast-1_all_1_2_4"  />
</g>
<g id="a1_005"  >
<polygon points="305,135 310,130 319,130 319,140 310,140 305,135 " style="fill:white; stroke-width:1; stroke:black; " description="&lt;b&gt;ACF06639.1&lt;/b&gt;&lt;br&gt;ToyH&lt;br&gt;Location: 10255 - 9725" locus_tag="ACF06639.1" class="clusterblast-orf" id="knownclusterblast-1_all_1_2_5"  />
</g>
<g id="a1_006"  >
<polygon points="319,135 324,130 347,130 347,140 324,140 319,135 " style="fill:white; stroke-width:1; stroke:black; " description="&lt;b&gt;ACF06638.1&lt;/b&gt;&lt;br&gt;ToyG&lt;br&gt;Location: 9728 - 8673" locus_tag="ACF06638.1" class="clusterblast-orf" id="knownclusterblast-1_all_1_2_6"  />
</g>
<g id="a1_007"  >
<polygon points="347,135 352,130 383,130 383,140 352,140 347,135 " style="fill:white; stroke-width:1; stroke:black; " description="&lt;b&gt;ACF06637.1&lt;/b&gt;&lt;br&gt;ToyF&lt;br&gt;Location: 8671 - 7316" locus_tag="ACF06637.1" class="clusterblast-orf" id="knownclusterblast-1_all_1_2_7"  />
</g>
<g id="a1_008"  >
<polygon points="383,135 388,130 414,130 414,140 388,140 383,135 " style="fill:white; stroke-width:1; stroke:black; " description="&lt;b&gt;ACF06636.1&lt;/b&gt;&lt;br&gt;ToyE&lt;br&gt;Location: 7319 - 6165" locus_tag="ACF06636.1" class="clusterblast-orf" id="knownclusterblast-1_all_1_2_8"  />
</g>
<g id="a1_009"  >
<polygon points="416,135 421,130 432,130 432,140 421,140 416,135 " style="fill:white; stroke-width:1; stroke:black; " description="&lt;b&gt;ACF06635.1&lt;/b&gt;&lt;br&gt;ToyD&lt;br&gt;Location: 6078 - 5476" locus_tag="ACF06635.1" class="clusterblast-orf" id="knownclusterblast-1_all_1_2_9"  />
</g>
<g id="a1_0010"  >
<polygon points="452,135 457,130 463,130 463,140 457,140 452,135 " style="fill:#15d815; stroke-width:1; stroke:black; " description="&lt;b&gt;ACF06634.1&lt;/b&gt;&lt;br&gt;ToyB&lt;br&gt;Location: 4708 - 4313&lt;br&gt;&lt;br&gt;&lt;b&gt;BlastP hit with GJDDMNIP_00862&lt;/b&gt;&lt;br&gt;Percentage identity: 61&lt;br&gt;Percentage coverage: 101&lt;br&gt;BLAST bit score: 143&lt;br&gt;E-value: 3.15e-45" locus_tag="ACF06634.1" class="clusterblast-orf" id="knownclusterblast-1_all_1_2_10"  />
</g>
<g id="a1_0011"  >
<polygon points="470,135 475,130 546,130 546,140 475,140 470,135 " style="fill:white; stroke-width:1; stroke:black; " description="&lt;b&gt;ACF06633.1&lt;/b&gt;&lt;br&gt;ToyA&lt;br&gt;Location: 4053 - 1168" locus_tag="ACF06633.1" class="clusterblast-orf" id="knownclusterblast-1_all_1_2_11"  />
</g>
<g label="BGC0002354" description="BGC0002354_c1: huimycin (28% of genes show similarity), RiPP" class="clusterblast-cluster"  >
<text x="5" y="170" class="clusterblast-acc"  >
<a xlink:href="https://mibig.secondarymetabolites.org/go/BGC0002354/1" target="_blank">BGC0002354</a>: huimycin                                                                         (28% of genes show similarity), RiPP</text>
<line x1="10" y1="185" x2="778.0" y2="185" style="stroke-width:1; stroke:grey; "  />
</g>
<g id="a1_000"  >
<polygon points="284,190 355,190 360,185 355,180 284,180 284,190 " style="fill:white; stroke-width:1; stroke:black; " description="&lt;b&gt;KALB_4067&lt;/b&gt;&lt;br&gt;hypothetical protein&lt;br&gt;Location: 1 - 2871" locus_tag="KALB_4067" class="clusterblast-orf" id="knownclusterblast-1_all_1_3_0"  />
</g>
<g id="a1_001"  >
<polygon points="365,190 378,190 383,185 378,180 365,180 365,190 " style="fill:#d81515; stroke-width:1; stroke:black; " description="&lt;b&gt;KALB_4068&lt;/b&gt;&lt;br&gt;hypothetical protein&lt;br&gt;Location: 3025 - 3741&lt;br&gt;&lt;br&gt;&lt;b&gt;BlastP hit with GJDDMNIP_00861&lt;/b&gt;&lt;br&gt;Percentage identity: 53&lt;br&gt;Percentage coverage: 94&lt;br&gt;BLAST bit score: 229&lt;br&gt;E-value: 1.47e-75" locus_tag="KALB_4068" class="clusterblast-orf" id="knownclusterblast-1_all_1_3_1"  />
</g>
<g id="a1_002"  >
<polygon points="384,190 403,190 408,185 403,180 384,180 384,190 " style="fill:white; stroke-width:1; stroke:black; " description="&lt;b&gt;KALB_4069&lt;/b&gt;&lt;br&gt;hypothetical protein&lt;br&gt;Location: 3779 - 4669" locus_tag="KALB_4069" class="clusterblast-orf" id="knownclusterblast-1_all_1_3_2"  />
</g>
<g id="a1_003"  >
<polygon points="418,190 423,190 428,185 423,180 418,180 418,190 " style="fill:#15d815; stroke-width:1; stroke:black; " description="&lt;b&gt;KALB_4070&lt;/b&gt;&lt;br&gt;hypothetical protein&lt;br&gt;Location: 5056 - 5421&lt;br&gt;&lt;br&gt;&lt;b&gt;BlastP hit with GJDDMNIP_00862&lt;/b&gt;&lt;br&gt;Percentage identity: 60&lt;br&gt;Percentage coverage: 102&lt;br&gt;BLAST bit score: 139&lt;br&gt;E-value: 7.7e-44" locus_tag="KALB_4070" class="clusterblast-orf" id="knownclusterblast-1_all_1_3_3"  />
</g>
<g id="a1_004"  >
<polygon points="432,190 443,190 448,185 443,180 432,180 432,190 " style="fill:white; stroke-width:1; stroke:black; " description="&lt;b&gt;KALB_4071&lt;/b&gt;&lt;br&gt;hypothetical protein&lt;br&gt;Location: 5583 - 6191" locus_tag="KALB_4071" class="clusterblast-orf" id="knownclusterblast-1_all_1_3_4"  />
</g>
<g id="a1_005"  >
<polygon points="448,190 459,190 464,185 459,180 448,180 448,190 " style="fill:white; stroke-width:1; stroke:black; " description="&lt;b&gt;KALB_4072&lt;/b&gt;&lt;br&gt;hypothetical protein&lt;br&gt;Location: 6194 - 6793" locus_tag="KALB_4072" class="clusterblast-orf" id="knownclusterblast-1_all_1_3_5"  />
</g>
<g id="a1_006"  >
<polygon points="465,190 489,190 494,185 489,180 465,180 465,190 " style="fill:white; stroke-width:1; stroke:black; " description="&lt;b&gt;KALB_4073&lt;/b&gt;&lt;br&gt;hypothetical protein&lt;br&gt;Location: 6828 - 7937" locus_tag="KALB_4073" class="clusterblast-orf" id="knownclusterblast-1_all_1_3_6"  />
</g>
<g label="BGC0000881" description="BGC0000881_c1: toyocamycin (20% of genes show similarity), Other" class="clusterblast-cluster"  >
<text x="5" y="220" class="clusterblast-acc"  >
<a xlink:href="https://mibig.secondarymetabolites.org/go/BGC0000881/1" target="_blank">BGC0000881</a>: toyocamycin                                                                      (20% of genes show similarity), Other</text>
<line x1="10" y1="235" x2="778.0" y2="235" style="stroke-width:1; stroke:grey; "  />
</g>
<g id="a1_000"  >
<polygon points="252,240 323,240 328,235 323,230 252,230 252,240 " style="fill:white; stroke-width:1; stroke:black; " description="&lt;b&gt;AFV92621.1&lt;/b&gt;&lt;br&gt;TymA&lt;br&gt;Location: 84 - 2960" locus_tag="AFV92621.1" class="clusterblast-orf" id="knownclusterblast-1_all_1_4_0"  />
</g>
<g id="a1_001"  >
<polygon points="332,240 346,240 351,235 346,230 332,230 332,240 " style="fill:#d81515; stroke-width:1; stroke:black; " description="&lt;b&gt;AFV92622.1&lt;/b&gt;&lt;br&gt;TymM&lt;br&gt;Location: 3116 - 3832&lt;br&gt;&lt;br&gt;&lt;b&gt;BlastP hit with GJDDMNIP_00861&lt;/b&gt;&lt;br&gt;Percentage identity: 53&lt;br&gt;Percentage coverage: 94&lt;br&gt;BLAST bit score: 228&lt;br&gt;E-value: 2.95e-75" locus_tag="AFV92622.1" class="clusterblast-orf" id="knownclusterblast-1_all_1_4_1"  />
</g>
<g id="a1_002"  >
<polygon points="354,235 359,230 371,230 371,240 359,240 354,235 " style="fill:white; stroke-width:1; stroke:black; " description="&lt;b&gt;AFV92623.1&lt;/b&gt;&lt;br&gt;TymI&lt;br&gt;Location: 3936 - 4595" locus_tag="AFV92623.1" class="clusterblast-orf" id="knownclusterblast-1_all_1_4_2"  />
</g>
<g id="a1_003"  >
<polygon points="372,235 377,230 386,230 386,240 377,240 372,235 " style="fill:white; stroke-width:1; stroke:black; " description="&lt;b&gt;AFV92624.1&lt;/b&gt;&lt;br&gt;TymH&lt;br&gt;Location: 4640 - 5146" locus_tag="AFV92624.1" class="clusterblast-orf" id="knownclusterblast-1_all_1_4_3"  />
</g>
<g id="a1_004"  >
<polygon points="386,235 391,230 414,230 414,240 391,240 386,235 " style="fill:white; stroke-width:1; stroke:black; " description="&lt;b&gt;AFV92625.1&lt;/b&gt;&lt;br&gt;TymG&lt;br&gt;Location: 5158 - 6213" locus_tag="AFV92625.1" class="clusterblast-orf" id="knownclusterblast-1_all_1_4_4"  />
</g>
<g id="a1_005"  >
<polygon points="414,235 419,230 450,230 450,240 419,240 414,235 " style="fill:white; stroke-width:1; stroke:black; " description="&lt;b&gt;AFV92626.1&lt;/b&gt;&lt;br&gt;TymF&lt;br&gt;Location: 6198 - 7583" locus_tag="AFV92626.1" class="clusterblast-orf" id="knownclusterblast-1_all_1_4_5"  />
</g>
<g id="a1_006"  >
<polygon points="450,235 455,230 480,230 480,240 455,240 450,235 " style="fill:white; stroke-width:1; stroke:black; " description="&lt;b&gt;AFV92627.1&lt;/b&gt;&lt;br&gt;TymE&lt;br&gt;Location: 7580 - 8725" locus_tag="AFV92627.1" class="clusterblast-orf" id="knownclusterblast-1_all_1_4_6"  />
</g>
<g id="a1_007"  >
<polygon points="481,235 486,230 497,230 497,240 486,240 481,235 " style="fill:white; stroke-width:1; stroke:black; " description="&lt;b&gt;AFV92628.1&lt;/b&gt;&lt;br&gt;TymD&lt;br&gt;Location: 8760 - 9365" locus_tag="AFV92628.1" class="clusterblast-orf" id="knownclusterblast-1_all_1_4_7"  />
</g>
<g id="a1_008"  >
<polygon points="497,235 502,230 514,230 514,240 502,240 497,235 " style="fill:white; stroke-width:1; stroke:black; " description="&lt;b&gt;AFV92630.1&lt;/b&gt;&lt;br&gt;ToyC&lt;br&gt;Location: 9362 - 9991" locus_tag="AFV92630.1" class="clusterblast-orf" id="knownclusterblast-1_all_1_4_8"  />
</g>
<g id="a1_009"  >
<polygon points="518,235 523,230 527,230 527,240 523,240 518,235 " style="fill:#15d815; stroke-width:1; stroke:black; " description="&lt;b&gt;AFV92629.1&lt;/b&gt;&lt;br&gt;TymB&lt;br&gt;Location: 10131 - 10493&lt;br&gt;&lt;br&gt;&lt;b&gt;BlastP hit with GJDDMNIP_00862&lt;/b&gt;&lt;br&gt;Percentage identity: 57&lt;br&gt;Percentage coverage: 101&lt;br&gt;BLAST bit score: 136&lt;br&gt;E-value: 1.75e-42" locus_tag="AFV92629.1" class="clusterblast-orf" id="knownclusterblast-1_all_1_4_9"  />
</g>
<g label="BGC0001808" description="BGC0001808_c1: toyocamycin (20% of genes show similarity), Other" class="clusterblast-cluster"  >
<text x="5" y="270" class="clusterblast-acc"  >
<a xlink:href="https://mibig.secondarymetabolites.org/go/BGC0001808/1" target="_blank">BGC0001808</a>: toyocamycin                                                                      (20% of genes show similarity), Other</text>
<line x1="10" y1="285" x2="778.0" y2="285" style="stroke-width:1; stroke:grey; "  />
</g>
<g id="a1_000"  >
<polygon points="252,290 323,290 328,285 323,280 252,280 252,290 " style="fill:white; stroke-width:1; stroke:black; " description="&lt;b&gt;APT68170.1&lt;/b&gt;&lt;br&gt;ToyA&lt;br&gt;Location: 1 - 2877" locus_tag="APT68170.1" class="clusterblast-orf" id="knownclusterblast-1_all_1_5_0"  />
</g>
<g id="a1_001"  >
<polygon points="332,290 346,290 351,285 346,280 332,280 332,290 " style="fill:#d81515; stroke-width:1; stroke:black; " description="&lt;b&gt;APT68169.1&lt;/b&gt;&lt;br&gt;ToyM&lt;br&gt;Location: 3033 - 3749&lt;br&gt;&lt;br&gt;&lt;b&gt;BlastP hit with GJDDMNIP_00861&lt;/b&gt;&lt;br&gt;Percentage identity: 53&lt;br&gt;Percentage coverage: 94&lt;br&gt;BLAST bit score: 228&lt;br&gt;E-value: 2.95e-75" locus_tag="APT68169.1" class="clusterblast-orf" id="knownclusterblast-1_all_1_5_1"  />
</g>
<g id="a1_002"  >
<polygon points="354,285 359,280 372,280 372,290 359,290 354,285 " style="fill:white; stroke-width:1; stroke:black; " description="&lt;b&gt;APT68171.1&lt;/b&gt;&lt;br&gt;ToyI&lt;br&gt;Location: 3853 - 4551" locus_tag="APT68171.1" class="clusterblast-orf" id="knownclusterblast-1_all_1_5_2"  />
</g>
<g id="a1_003"  >
<polygon points="372,285 377,280 386,280 386,290 377,290 372,285 " style="fill:white; stroke-width:1; stroke:black; " description="&lt;b&gt;APT68172.1&lt;/b&gt;&lt;br&gt;ToyH&lt;br&gt;Location: 4557 - 5078" locus_tag="APT68172.1" class="clusterblast-orf" id="knownclusterblast-1_all_1_5_3"  />
</g>
<g id="a1_004"  >
<polygon points="386,285 391,280 414,280 414,290 391,290 386,285 " style="fill:white; stroke-width:1; stroke:black; " description="&lt;b&gt;APT68173.1&lt;/b&gt;&lt;br&gt;ToyG&lt;br&gt;Location: 5075 - 6130" locus_tag="APT68173.1" class="clusterblast-orf" id="knownclusterblast-1_all_1_5_4"  />
</g>
<g id="a1_005"  >
<polygon points="414,285 419,280 450,280 450,290 419,290 414,285 " style="fill:white; stroke-width:1; stroke:black; " description="&lt;b&gt;APT68174.1&lt;/b&gt;&lt;br&gt;ToyF&lt;br&gt;Location: 6115 - 7500" locus_tag="APT68174.1" class="clusterblast-orf" id="knownclusterblast-1_all_1_5_5"  />
</g>
<g id="a1_006"  >
<polygon points="450,285 455,280 480,280 480,290 455,290 450,285 " style="fill:white; stroke-width:1; stroke:black; " description="&lt;b&gt;APT68175.1&lt;/b&gt;&lt;br&gt;ToyE&lt;br&gt;Location: 7497 - 8642" locus_tag="APT68175.1" class="clusterblast-orf" id="knownclusterblast-1_all_1_5_6"  />
</g>
<g id="a1_007"  >
<polygon points="481,285 486,280 497,280 497,290 486,290 481,285 " style="fill:white; stroke-width:1; stroke:black; " description="&lt;b&gt;APT68176.1&lt;/b&gt;&lt;br&gt;ToyD&lt;br&gt;Location: 8677 - 9273" locus_tag="APT68176.1" class="clusterblast-orf" id="knownclusterblast-1_all_1_5_7"  />
</g>
<g id="a1_008"  >
<polygon points="497,285 502,280 514,280 514,290 502,290 497,285 " style="fill:white; stroke-width:1; stroke:black; " description="&lt;b&gt;APT68177.1&lt;/b&gt;&lt;br&gt;ToyC&lt;br&gt;Location: 9279 - 9908" locus_tag="APT68177.1" class="clusterblast-orf" id="knownclusterblast-1_all_1_5_8"  />
</g>
<g id="a1_009"  >
<polygon points="518,285 523,280 527,280 527,290 523,290 518,285 " style="fill:#15d815; stroke-width:1; stroke:black; " description="&lt;b&gt;APT68178.1&lt;/b&gt;&lt;br&gt;ToyB&lt;br&gt;Location: 10048 - 10410&lt;br&gt;&lt;br&gt;&lt;b&gt;BlastP hit with GJDDMNIP_00862&lt;/b&gt;&lt;br&gt;Percentage identity: 57&lt;br&gt;Percentage coverage: 101&lt;br&gt;BLAST bit score: 136&lt;br&gt;E-value: 1.75e-42" locus_tag="APT68178.1" class="clusterblast-orf" id="knownclusterblast-1_all_1_5_9"  />
</g>
</svg>
