<svg xmlns="http://www.w3.org/2000/svg" xmlns:xlink="http://www.w3.org/1999/xlink" version="1.1" x="0" y="0" height="230" width="800" viewBox="0 0 800 230" preserveAspectRatio="none"  >
<g label="Query sequence" class="clusterblast-cluster"  >
<text x="5" y="20" class="clusterblast-acc"  >
Query sequence</text>
<line x1="10" y1="35" x2="778.0" y2="35" style="stroke-width:1; stroke:grey; "  />
<polygon points="84,35 89,30 99,30 99,40 89,40 84,35 " style="fill:white; stroke-width:1; stroke:black; " description="&lt;b&gt;GJDDMNIP_04923&lt;/b&gt;&lt;br&gt;Aminomethyltransferase&lt;br&gt;Location: 196079 - 197192" locus_tag="GJDDMNIP_04923" class="clusterblast-orf" id="dummy-1_q0_0_all"  />
<polygon points="103,35 108,30 113,30 113,40 108,40 103,35 " style="fill:white; stroke-width:1; stroke:black; " description="&lt;b&gt;GJDDMNIP_04924&lt;/b&gt;&lt;br&gt;3-oxoacyl-[acyl-carrier-protein] reductase FabG&lt;br&gt;Location: 197468 - 198251" locus_tag="GJDDMNIP_04924" class="clusterblast-orf" id="dummy-1_q1_0_all"  />
<polygon points="114,35 118,30 118,40 114,35 " style="fill:white; stroke-width:1; stroke:black; " description="&lt;b&gt;GJDDMNIP_04925&lt;/b&gt;&lt;br&gt;hypothetical protein&lt;br&gt;Location: 198309 - 198648" locus_tag="GJDDMNIP_04925" class="clusterblast-orf" id="dummy-1_q2_0_all"  />
<polygon points="118,35 123,30 127,30 127,40 123,40 118,35 " style="fill:white; stroke-width:1; stroke:black; " description="&lt;b&gt;GJDDMNIP_04926&lt;/b&gt;&lt;br&gt;hypothetical protein&lt;br&gt;Location: 198644 - 199259" locus_tag="GJDDMNIP_04926" class="clusterblast-orf" id="dummy-1_q3_0_all"  />
<polygon points="128,35 133,30 146,30 146,40 133,40 128,35 " style="fill:white; stroke-width:1; stroke:black; " description="&lt;b&gt;GJDDMNIP_04927&lt;/b&gt;&lt;br&gt;Sensor histidine kinase RcsC&lt;br&gt;Location: 199342 - 200668" locus_tag="GJDDMNIP_04927" class="clusterblast-orf" id="dummy-1_q4_0_all"  />
<polygon points="146,35 151,30 161,30 161,40 151,40 146,35 " style="fill:white; stroke-width:1; stroke:black; " description="&lt;b&gt;GJDDMNIP_04928&lt;/b&gt;&lt;br&gt;hypothetical protein&lt;br&gt;Location: 200671 - 201853" locus_tag="GJDDMNIP_04928" class="clusterblast-orf" id="dummy-1_q5_0_all"  />
<polygon points="161,35 166,30 171,30 171,40 166,40 161,35 " style="fill:white; stroke-width:1; stroke:black; " description="&lt;b&gt;GJDDMNIP_04929&lt;/b&gt;&lt;br&gt;Response regulator protein VraR&lt;br&gt;Location: 201849 - 202560" locus_tag="GJDDMNIP_04929" class="clusterblast-orf" id="dummy-1_q6_0_all"  />
<polygon points="173,40 182,40 187,35 182,30 173,30 173,40 " style="fill:white; stroke-width:1; stroke:black; " description="&lt;b&gt;GJDDMNIP_04930&lt;/b&gt;&lt;br&gt;hypothetical protein&lt;br&gt;Location: 202748 - 203738" locus_tag="GJDDMNIP_04930" class="clusterblast-orf" id="dummy-1_q7_0_all"  />
<polygon points="187,40 192,40 197,35 192,30 187,30 187,40 " style="fill:white; stroke-width:1; stroke:black; " description="&lt;b&gt;GJDDMNIP_04931&lt;/b&gt;&lt;br&gt;Putative aliphatic sulfonates transport permease protein SsuC&lt;br&gt;Location: 203745 - 204528" locus_tag="GJDDMNIP_04931" class="clusterblast-orf" id="dummy-1_q8_0_all"  />
<polygon points="197,40 200,40 205,35 200,30 197,30 197,40 " style="fill:white; stroke-width:1; stroke:black; " description="&lt;b&gt;GJDDMNIP_04932&lt;/b&gt;&lt;br&gt;Aliphatic sulfonates import ATP-binding protein SsuB&lt;br&gt;Location: 204517 - 205108" locus_tag="GJDDMNIP_04932" class="clusterblast-orf" id="dummy-1_q9_0_all"  />
<polygon points="205,35 210,30 215,30 215,40 210,40 205,35 " style="fill:white; stroke-width:1; stroke:black; " description="&lt;b&gt;GJDDMNIP_04933&lt;/b&gt;&lt;br&gt;hypothetical protein&lt;br&gt;Location: 205095 - 205866" locus_tag="GJDDMNIP_04933" class="clusterblast-orf" id="dummy-1_q10_0_all"  />
<polygon points="215,35 220,30 230,30 230,40 220,40 215,35 " style="fill:white; stroke-width:1; stroke:black; " description="&lt;b&gt;GJDDMNIP_04934&lt;/b&gt;&lt;br&gt;PqqA peptide cyclase&lt;br&gt;Location: 205862 - 206999" locus_tag="GJDDMNIP_04934" class="clusterblast-orf" id="dummy-1_q11_0_all"  />
<polygon points="230,35 234,30 234,40 230,35 " style="fill:white; stroke-width:1; stroke:black; " description="&lt;b&gt;GJDDMNIP_04935&lt;/b&gt;&lt;br&gt;PqqA binding protein&lt;br&gt;Location: 206995 - 207304" locus_tag="GJDDMNIP_04935" class="clusterblast-orf" id="dummy-1_q12_0_all"  />
<polygon points="234,35 239,30 245,30 245,40 239,40 234,35 " style="fill:white; stroke-width:1; stroke:black; " description="&lt;b&gt;GJDDMNIP_04936&lt;/b&gt;&lt;br&gt;Bifunctional coenzyme PQQ synthesis protein C/D&lt;br&gt;Location: 207300 - 208095" locus_tag="GJDDMNIP_04936" class="clusterblast-orf" id="dummy-1_q13_0_all"  />
<polygon points="245,35 250,30 257,30 257,40 250,40 245,35 " style="fill:white; stroke-width:1; stroke:black; " description="&lt;b&gt;GJDDMNIP_04937&lt;/b&gt;&lt;br&gt;Coenzyme PQQ synthesis protein B&lt;br&gt;Location: 208091 - 208982" locus_tag="GJDDMNIP_04937" class="clusterblast-orf" id="dummy-1_q14_0_all"  />
<polygon points="258,35 259,30 259,40 258,35 " style="fill:white; stroke-width:1; stroke:black; " description="&lt;b&gt;GJDDMNIP_04938&lt;/b&gt;&lt;br&gt;Coenzyme PQQ synthesis protein A&lt;br&gt;Location: 209048 - 209141" locus_tag="GJDDMNIP_04938" class="clusterblast-orf" id="dummy-1_q15_0_all"  />
<polygon points="261,40 270,40 275,35 270,30 261,30 261,40 " style="fill:white; stroke-width:1; stroke:black; " description="&lt;b&gt;GJDDMNIP_04939&lt;/b&gt;&lt;br&gt;hypothetical protein&lt;br&gt;Location: 209280 - 210336" locus_tag="GJDDMNIP_04939" class="clusterblast-orf" id="dummy-1_q16_0_all"  />
<polygon points="276,40 345,40 350,35 345,30 276,30 276,40 " style="fill:white; stroke-width:1; stroke:black; " description="&lt;b&gt;GJDDMNIP_04940&lt;/b&gt;&lt;br&gt;Alpha-2-macroglobulin&lt;br&gt;Location: 210393 - 215895" locus_tag="GJDDMNIP_04940" class="clusterblast-orf" id="dummy-1_q17_0_all"  />
<polygon points="352,40 360,40 365,35 360,30 352,30 352,40 " style="fill:white; stroke-width:1; stroke:black; " description="&lt;b&gt;GJDDMNIP_04941&lt;/b&gt;&lt;br&gt;hypothetical protein&lt;br&gt;Location: 216049 - 217048" locus_tag="GJDDMNIP_04941" class="clusterblast-orf" id="dummy-1_q18_0_all"  />
<polygon points="366,40 382,40 387,35 382,30 366,30 366,40 " style="fill:white; stroke-width:1; stroke:black; " description="&lt;b&gt;GJDDMNIP_04942&lt;/b&gt;&lt;br&gt;Aldehyde dehydrogenase&lt;br&gt;Location: 217154 - 218681" locus_tag="GJDDMNIP_04942" class="clusterblast-orf" id="dummy-1_q19_0_all"  />
<polygon points="388,40 397,40 402,35 397,30 388,30 388,40 " style="fill:white; stroke-width:1; stroke:black; " description="&lt;b&gt;GJDDMNIP_04943&lt;/b&gt;&lt;br&gt;Alcohol dehydrogenase&lt;br&gt;Location: 218764 - 219799" locus_tag="GJDDMNIP_04943" class="clusterblast-orf" id="dummy-1_q20_0_all"  />
<polygon points="402,40 402,40 407,35 402,30 402,30 402,40 " style="fill:#d81515; stroke-width:1; stroke:black; " description="&lt;b&gt;GJDDMNIP_04944&lt;/b&gt;&lt;br&gt;hypothetical protein&lt;br&gt;Location: 219801 - 220158" locus_tag="GJDDMNIP_04944" class="clusterblast-orf" id="dummy-1_q21_0_all"  />
<polygon points="407,35 410,30 410,40 407,35 " style="fill:white; stroke-width:1; stroke:black; " description="&lt;b&gt;GJDDMNIP_04945&lt;/b&gt;&lt;br&gt;hypothetical protein&lt;br&gt;Location: 220211 - 220403" locus_tag="GJDDMNIP_04945" class="clusterblast-orf" id="dummy-1_q22_0_all"  />
<polygon points="410,35 415,30 419,30 419,40 415,40 410,35 " style="fill:white; stroke-width:1; stroke:black; " description="&lt;b&gt;GJDDMNIP_04946&lt;/b&gt;&lt;br&gt;hypothetical protein&lt;br&gt;Location: 220399 - 221038" locus_tag="GJDDMNIP_04946" class="clusterblast-orf" id="dummy-1_q23_0_all"  />
<polygon points="419,35 424,30 431,30 431,40 424,40 419,35 " style="fill:white; stroke-width:1; stroke:black; " description="&lt;b&gt;GJDDMNIP_04947&lt;/b&gt;&lt;br&gt;Chaperedoxin&lt;br&gt;Location: 221039 - 221951" locus_tag="GJDDMNIP_04947" class="clusterblast-orf" id="dummy-1_q24_0_all"  />
<polygon points="432,35 437,30 443,30 443,40 437,40 432,35 " style="fill:white; stroke-width:1; stroke:black; " description="&lt;b&gt;GJDDMNIP_04948&lt;/b&gt;&lt;br&gt;Exodeoxyribonuclease III&lt;br&gt;Location: 222041 - 222827" locus_tag="GJDDMNIP_04948" class="clusterblast-orf" id="dummy-1_q25_0_all"  />
<polygon points="447,35 452,30 456,30 456,40 452,40 447,35 " style="fill:white; stroke-width:1; stroke:black; " description="&lt;b&gt;GJDDMNIP_04949&lt;/b&gt;&lt;br&gt;Transcriptional regulatory protein WalR&lt;br&gt;Location: 223130 - 223817" locus_tag="GJDDMNIP_04949" class="clusterblast-orf" id="dummy-1_q26_0_all"  />
<polygon points="458,40 467,40 472,35 467,30 458,30 458,40 " style="fill:white; stroke-width:1; stroke:black; " description="&lt;b&gt;GJDDMNIP_04950&lt;/b&gt;&lt;br&gt;GTP cyclohydrolase-2&lt;br&gt;Location: 223950 - 225012" locus_tag="GJDDMNIP_04950" class="clusterblast-orf" id="dummy-1_q27_0_all"  />
<polygon points="472,40 474,40 479,35 474,30 472,30 472,40 " style="fill:white; stroke-width:1; stroke:black; " description="&lt;b&gt;GJDDMNIP_04951&lt;/b&gt;&lt;br&gt;hypothetical protein&lt;br&gt;Location: 225020 - 225545" locus_tag="GJDDMNIP_04951" class="clusterblast-orf" id="dummy-1_q28_0_all"  />
<polygon points="479,35 484,30 489,30 489,40 484,40 479,35 " style="fill:white; stroke-width:1; stroke:black; " description="&lt;b&gt;GJDDMNIP_04952&lt;/b&gt;&lt;br&gt;3-beta-hydroxycholanate 3-dehydrogenase (NADP(+))&lt;br&gt;Location: 225549 - 226299" locus_tag="GJDDMNIP_04952" class="clusterblast-orf" id="dummy-1_q29_0_all"  />
<polygon points="490,35 495,30 506,30 506,40 495,40 490,35 " style="fill:white; stroke-width:1; stroke:black; " description="&lt;b&gt;GJDDMNIP_04953&lt;/b&gt;&lt;br&gt;Ribosomal RNA large subunit methyltransferase L&lt;br&gt;Location: 226400 - 227600" locus_tag="GJDDMNIP_04953" class="clusterblast-orf" id="dummy-1_q30_0_all"  />
<polygon points="509,40 514,40 519,35 514,30 509,30 509,40 " style="fill:white; stroke-width:1; stroke:black; " description="&lt;b&gt;GJDDMNIP_04954&lt;/b&gt;&lt;br&gt;Catechol-2,3-dioxygenase&lt;br&gt;Location: 227763 - 228558" locus_tag="GJDDMNIP_04954" class="clusterblast-orf" id="dummy-1_q31_0_all"  />
<polygon points="519,35 524,30 530,30 530,40 524,40 519,35 " style="fill:white; stroke-width:1; stroke:black; " description="&lt;b&gt;GJDDMNIP_04955&lt;/b&gt;&lt;br&gt;3',5'-cyclic adenosine monophosphate phosphodiesterase CpdA&lt;br&gt;Location: 228559 - 229348" locus_tag="GJDDMNIP_04955" class="clusterblast-orf" id="dummy-1_q32_0_all"  />
<polygon points="530,35 535,30 543,30 543,40 535,40 530,35 " style="fill:white; stroke-width:1; stroke:black; " description="&lt;b&gt;GJDDMNIP_04956&lt;/b&gt;&lt;br&gt;lipid kinase YegS&lt;br&gt;Location: 229344 - 230307" locus_tag="GJDDMNIP_04956" class="clusterblast-orf" id="dummy-1_q33_0_all"  />
<polygon points="548,40 559,40 564,35 559,30 548,30 548,40 " style="fill:#15d815; stroke-width:1; stroke:black; " description="&lt;b&gt;GJDDMNIP_04957&lt;/b&gt;&lt;br&gt;Isochorismate synthase DhbC&lt;br&gt;Location: 230691 - 231897" locus_tag="GJDDMNIP_04957" class="clusterblast-orf" id="dummy-1_q34_0_all"  />
<polygon points="564,40 568,40 573,35 568,30 564,30 564,40 " style="fill:#1515d8; stroke-width:1; stroke:black; " description="&lt;b&gt;GJDDMNIP_04958&lt;/b&gt;&lt;br&gt;Isochorismatase&lt;br&gt;Location: 231896 - 232553" locus_tag="GJDDMNIP_04958" class="clusterblast-orf" id="dummy-1_q35_0_all"  />
<polygon points="573,40 578,40 583,35 578,30 573,30 573,40 " style="fill:#d815d8; stroke-width:1; stroke:black; " description="&lt;b&gt;GJDDMNIP_04959&lt;/b&gt;&lt;br&gt;2,3-dihydro-2,3-dihydroxybenzoate dehydrogenase&lt;br&gt;Location: 232543 - 233314" locus_tag="GJDDMNIP_04959" class="clusterblast-orf" id="dummy-1_q36_0_all"  />
<polygon points="584,35 587,30 587,40 584,35 " style="fill:white; stroke-width:1; stroke:black; " description="&lt;b&gt;GJDDMNIP_04960&lt;/b&gt;&lt;br&gt;hypothetical protein&lt;br&gt;Location: 233353 - 233596" locus_tag="GJDDMNIP_04960" class="clusterblast-orf" id="dummy-1_q37_0_all"  />
<polygon points="587,35 592,30 609,30 609,40 592,40 587,35 " style="fill:#d8d815; stroke-width:1; stroke:black; " description="&lt;b&gt;GJDDMNIP_04961&lt;/b&gt;&lt;br&gt;Enterobactin synthase component E&lt;br&gt;Location: 233607 - 235230" locus_tag="GJDDMNIP_04961" class="clusterblast-orf" id="dummy-1_q38_0_all"  />
<polygon points="611,40 624,40 629,35 624,30 611,30 611,40 " style="fill:#15d8d8; stroke-width:1; stroke:black; " description="&lt;b&gt;GJDDMNIP_04962&lt;/b&gt;&lt;br&gt;Dimodular nonribosomal peptide synthase&lt;br&gt;Location: 235417 - 236767" locus_tag="GJDDMNIP_04962" class="clusterblast-orf" id="dummy-1_q39_0_all"  />
<polygon points="630,40 631,40 636,35 631,30 630,30 630,40 " style="fill:white; stroke-width:1; stroke:black; " description="&lt;b&gt;GJDDMNIP_04963&lt;/b&gt;&lt;br&gt;hypothetical protein&lt;br&gt;Location: 236823 - 237279" locus_tag="GJDDMNIP_04963" class="clusterblast-orf" id="dummy-1_q40_0_all"  />
<polygon points="636,35 641,30 642,30 642,40 641,40 636,35 " style="fill:white; stroke-width:1; stroke:black; " description="&lt;b&gt;GJDDMNIP_04964&lt;/b&gt;&lt;br&gt;hypothetical protein&lt;br&gt;Location: 237275 - 237710" locus_tag="GJDDMNIP_04964" class="clusterblast-orf" id="dummy-1_q41_0_all"  />
<polygon points="642,35 647,30 650,30 650,40 647,40 642,35 " style="fill:white; stroke-width:1; stroke:black; " description="&lt;b&gt;GJDDMNIP_04965&lt;/b&gt;&lt;br&gt;hypothetical protein&lt;br&gt;Location: 237702 - 238323" locus_tag="GJDDMNIP_04965" class="clusterblast-orf" id="dummy-1_q42_0_all"  />
<polygon points="657,40 669,40 674,35 669,30 657,30 657,40 " style="fill:white; stroke-width:1; stroke:black; " description="&lt;b&gt;GJDDMNIP_04967&lt;/b&gt;&lt;br&gt;hypothetical protein&lt;br&gt;Location: 238861 - 240124" locus_tag="GJDDMNIP_04967" class="clusterblast-orf" id="dummy-1_q43_0_all"  />
<polygon points="676,40 690,40 695,35 690,30 676,30 676,40 " style="fill:white; stroke-width:1; stroke:black; " description="&lt;b&gt;GJDDMNIP_04968&lt;/b&gt;&lt;br&gt;6-phosphogluconate dehydrogenase, NADP(+)-dependent, decarboxylating&lt;br&gt;Location: 240282 - 241683" locus_tag="GJDDMNIP_04968" class="clusterblast-orf" id="dummy-1_q44_0_all"  />
</g>
<g label="BGC0001848" description="BGC0001848_c1: diazaquinomycin H/diazaquinomycin J (4% of genes show similarity), Other" class="clusterblast-cluster"  >
<text x="5" y="70" class="clusterblast-acc"  >
<a xlink:href="https://mibig.secondarymetabolites.org/go/BGC0001848/1" target="_blank">BGC0001848</a>: diazaquinomycin H/diazaquinomycin J                                              (4% of genes show similarity), Other</text>
<line x1="10" y1="85" x2="778.0" y2="85" style="stroke-width:1; stroke:grey; "  />
</g>
<g id="a1_000"  >
<polygon points="0,85 5,80 19,80 19,90 5,90 0,85 " style="fill:white; stroke-width:1; stroke:black; " description="&lt;b&gt;MicB006_2941&lt;/b&gt;&lt;br&gt;3-carboxy-ciscis-muconate cycloisomerase&lt;br&gt;Location: 58198 - 56774" locus_tag="MicB006_2941" class="clusterblast-orf" id="dummy-1_h1_10_0"  />
</g>
<g id="a1_001"  >
<polygon points="19,85 24,80 45,80 45,90 24,90 19,85 " style="fill:white; stroke-width:1; stroke:black; " description="&lt;b&gt;MicB006_2940&lt;/b&gt;&lt;br&gt;FAD-binding protein&lt;br&gt;Location: 56777 - 54804" locus_tag="MicB006_2940" class="clusterblast-orf" id="dummy-1_h1_10_1"  />
</g>
<g id="a1_002"  >
<polygon points="45,85 50,80 61,80 61,90 50,90 45,85 " style="fill:white; stroke-width:1; stroke:black; " description="&lt;b&gt;MicB006_2939&lt;/b&gt;&lt;br&gt;FAD-dependent oxidoreductase&lt;br&gt;Location: 54807 - 53599" locus_tag="MicB006_2939" class="clusterblast-orf" id="dummy-1_h1_10_2"  />
</g>
<g id="a1_003"  >
<polygon points="61,85 66,80 82,80 82,90 66,90 61,85 " style="fill:white; stroke-width:1; stroke:black; " description="&lt;b&gt;MicB006_2938&lt;/b&gt;&lt;br&gt;long-chain acyl-CoA synthetase&lt;br&gt;Location: 53602 - 52031" locus_tag="MicB006_2938" class="clusterblast-orf" id="dummy-1_h1_10_3"  />
</g>
<g id="a1_004"  >
<polygon points="82,85 87,80 90,80 90,90 87,90 82,85 " style="fill:white; stroke-width:1; stroke:black; " description="&lt;b&gt;MicB006_2937&lt;/b&gt;&lt;br&gt;SRPBCC family protein&lt;br&gt;Location: 52021 - 51479" locus_tag="MicB006_2937" class="clusterblast-orf" id="dummy-1_h1_10_4"  />
</g>
<g id="a1_005"  >
<polygon points="92,90 110,90 115,85 110,80 92,80 92,90 " style="fill:white; stroke-width:1; stroke:black; " description="&lt;b&gt;MicB006_2936&lt;/b&gt;&lt;br&gt;transcriptional regulator&lt;br&gt;Location: 51312 - 49615" locus_tag="MicB006_2936" class="clusterblast-orf" id="dummy-1_h1_10_5"  />
</g>
<g id="a1_006"  >
<polygon points="114,85 119,80 128,80 128,90 119,90 114,85 " style="fill:white; stroke-width:1; stroke:black; " description="&lt;b&gt;MicB006_2935&lt;/b&gt;&lt;br&gt;NADPH:quinone reductase&lt;br&gt;Location: 49674 - 48622" locus_tag="MicB006_2935" class="clusterblast-orf" id="dummy-1_h1_10_6"  />
</g>
<g id="a1_007"  >
<polygon points="128,85 133,80 139,80 139,90 133,90 128,85 " style="fill:white; stroke-width:1; stroke:black; " description="&lt;b&gt;MicB006_2934&lt;/b&gt;&lt;br&gt;arylamine N-acetyltransferase 1&lt;br&gt;Location: 48625 - 47786" locus_tag="MicB006_2934" class="clusterblast-orf" id="dummy-1_h1_10_7"  />
</g>
<g id="a1_008"  >
<polygon points="139,85 144,80 150,80 150,90 144,90 139,85 " style="fill:white; stroke-width:1; stroke:black; " description="&lt;b&gt;MicB006_2933&lt;/b&gt;&lt;br&gt;arylamine N-acetyltransferase 1&lt;br&gt;Location: 47782 - 46973" locus_tag="MicB006_2933" class="clusterblast-orf" id="dummy-1_h1_10_8"  />
</g>
<g id="a1_009"  >
<polygon points="150,85 155,80 161,80 161,90 155,90 150,85 " style="fill:white; stroke-width:1; stroke:black; " description="&lt;b&gt;MicB006_2932&lt;/b&gt;&lt;br&gt;amidohydrolase&lt;br&gt;Location: 46968 - 46144" locus_tag="MicB006_2932" class="clusterblast-orf" id="dummy-1_h1_10_9"  />
</g>
<g id="a1_0010"  >
<polygon points="167,90 175,90 180,85 175,80 167,80 167,90 " style="fill:white; stroke-width:1; stroke:black; " description="&lt;b&gt;MicB006_2931&lt;/b&gt;&lt;br&gt;3-oxoacyl-[acyl-carrier-protein] synthase KASIII&lt;br&gt;Location: 45726 - 44758" locus_tag="MicB006_2931" class="clusterblast-orf" id="dummy-1_h1_10_10"  />
</g>
<g id="a1_0011"  >
<polygon points="180,85 185,80 195,80 195,90 185,90 180,85 " style="fill:white; stroke-width:1; stroke:black; " description="&lt;b&gt;MicB006_2930&lt;/b&gt;&lt;br&gt;mobile element protein/transposase&lt;br&gt;Location: 44712 - 43618" locus_tag="MicB006_2930" class="clusterblast-orf" id="dummy-1_h1_10_11"  />
</g>
<g id="a1_0012"  >
<polygon points="197,85 202,80 206,80 206,90 202,90 197,85 " style="fill:white; stroke-width:1; stroke:black; " description="&lt;b&gt;MicB006_2929&lt;/b&gt;&lt;br&gt;NAD-dependent epimerase&lt;br&gt;Location: 43473 - 42778" locus_tag="MicB006_2929" class="clusterblast-orf" id="dummy-1_h1_10_12"  />
</g>
<g id="a1_0013"  >
<polygon points="208,90 212,90 217,85 212,80 208,80 208,90 " style="fill:white; stroke-width:1; stroke:black; " description="&lt;b&gt;MicB006_2928&lt;/b&gt;&lt;br&gt;transcriptional regulator TetR family&lt;br&gt;Location: 42650 - 41973" locus_tag="MicB006_2928" class="clusterblast-orf" id="dummy-1_h1_10_13"  />
</g>
<g id="a1_0014"  >
<polygon points="218,85 223,80 227,80 227,90 223,90 218,85 " style="fill:white; stroke-width:1; stroke:black; " description="&lt;b&gt;MicB006_2927&lt;/b&gt;&lt;br&gt;flavoprotein WrbA&lt;br&gt;Location: 41921 - 41253" locus_tag="MicB006_2927" class="clusterblast-orf" id="dummy-1_h1_10_14"  />
</g>
<g id="a1_0015"  >
<polygon points="229,90 230,90 235,85 230,80 229,80 229,90 " style="fill:white; stroke-width:1; stroke:black; " description="&lt;b&gt;MicB006_2926&lt;/b&gt;&lt;br&gt;nuclear transport factor 2 family protein&lt;br&gt;Location: 41062 - 40646" locus_tag="MicB006_2926" class="clusterblast-orf" id="dummy-1_h1_10_15"  />
</g>
<g id="a1_0016"  >
<polygon points="237,85 242,80 250,80 250,90 242,90 237,85 " style="fill:white; stroke-width:1; stroke:black; " description="&lt;b&gt;MicB006_2925&lt;/b&gt;&lt;br&gt;enoyl-[acyl-carrier-protein] reductase&lt;br&gt;Location: 40512 - 39508" locus_tag="MicB006_2925" class="clusterblast-orf" id="dummy-1_h1_10_16"  />
</g>
<g id="a1_0017"  >
<polygon points="251,85 256,80 280,80 280,90 256,90 251,85 " style="fill:white; stroke-width:1; stroke:black; " description="&lt;b&gt;MicB006_2924&lt;/b&gt;&lt;br&gt;putative integral membrane export protein&lt;br&gt;Location: 39424 - 37292" locus_tag="MicB006_2924" class="clusterblast-orf" id="dummy-1_h1_10_17"  />
</g>
<g id="a1_0018"  >
<polygon points="288,90 310,90 315,85 310,80 288,80 288,90 " style="fill:white; stroke-width:1; stroke:black; " description="&lt;b&gt;MicB006_2923&lt;/b&gt;&lt;br&gt;transcriptional activator&lt;br&gt;Location: 36699 - 34630" locus_tag="MicB006_2923" class="clusterblast-orf" id="dummy-1_h1_10_18"  />
</g>
<g id="a1_0019"  >
<polygon points="316,85 321,80 351,80 351,90 321,90 316,85 " style="fill:white; stroke-width:1; stroke:black; " description="&lt;b&gt;MicB006_2922&lt;/b&gt;&lt;br&gt;regulatory protein LuxR family&lt;br&gt;Location: 34575 - 31936" locus_tag="MicB006_2922" class="clusterblast-orf" id="dummy-1_h1_10_19"  />
</g>
<g id="a1_0020"  >
<polygon points="358,90 367,90 372,85 367,80 358,80 358,90 " style="fill:white; stroke-width:1; stroke:black; " description="&lt;b&gt;MicB006_2921&lt;/b&gt;&lt;br&gt;geranylgeranyl pyrophosphate synthetase&lt;br&gt;Location: 31485 - 30397" locus_tag="MicB006_2921" class="clusterblast-orf" id="dummy-1_h1_10_20"  />
</g>
<g id="a1_0021"  >
<polygon points="372,90 381,90 386,85 381,80 372,80 372,90 " style="fill:white; stroke-width:1; stroke:black; " description="&lt;b&gt;MicB006_2920&lt;/b&gt;&lt;br&gt;mevalonate kinase&lt;br&gt;Location: 30382 - 29333" locus_tag="MicB006_2920" class="clusterblast-orf" id="dummy-1_h1_10_21"  />
</g>
<g id="a1_0022"  >
<polygon points="386,90 395,90 400,85 395,80 386,80 386,90 " style="fill:white; stroke-width:1; stroke:black; " description="&lt;b&gt;MicB006_2919&lt;/b&gt;&lt;br&gt;diphosphomevalonate decarboxylase&lt;br&gt;Location: 29343 - 28303" locus_tag="MicB006_2919" class="clusterblast-orf" id="dummy-1_h1_10_22"  />
</g>
<g id="a1_0023"  >
<polygon points="400,90 410,90 415,85 410,80 400,80 400,90 " style="fill:white; stroke-width:1; stroke:black; " description="&lt;b&gt;MicB006_2918&lt;/b&gt;&lt;br&gt;phosphomevalonate kinase&lt;br&gt;Location: 28306 - 27197" locus_tag="MicB006_2918" class="clusterblast-orf" id="dummy-1_h1_10_23"  />
</g>
<g id="a1_0024"  >
<polygon points="415,90 424,90 429,85 424,80 415,80 415,90 " style="fill:white; stroke-width:1; stroke:black; " description="&lt;b&gt;MicB006_2917&lt;/b&gt;&lt;br&gt;isopentenyl-diphosphate delta-isomerase&lt;br&gt;Location: 27200 - 26118" locus_tag="MicB006_2917" class="clusterblast-orf" id="dummy-1_h1_10_24"  />
</g>
<g id="a1_0025"  >
<polygon points="430,90 439,90 444,85 439,80 430,80 430,90 " style="fill:white; stroke-width:1; stroke:black; " description="&lt;b&gt;MicB006_2916&lt;/b&gt;&lt;br&gt;hydroxymethylglutaryl-CoA reductase&lt;br&gt;Location: 26058 - 25066" locus_tag="MicB006_2916" class="clusterblast-orf" id="dummy-1_h1_10_25"  />
</g>
<g id="a1_0026"  >
<polygon points="444,90 454,90 459,85 454,80 444,80 444,90 " style="fill:white; stroke-width:1; stroke:black; " description="&lt;b&gt;MicB006_2915&lt;/b&gt;&lt;br&gt;hydroxymethylglutaryl-CoA synthase&lt;br&gt;Location: 25063 - 23888" locus_tag="MicB006_2915" class="clusterblast-orf" id="dummy-1_h1_10_26"  />
</g>
<g id="a1_0027"  >
<polygon points="460,90 467,90 472,85 467,80 460,80 460,90 " style="fill:white; stroke-width:1; stroke:black; " description="&lt;b&gt;MicB006_2914&lt;/b&gt;&lt;br&gt;hypothetical protein&lt;br&gt;Location: 23819 - 22947" locus_tag="MicB006_2914" class="clusterblast-orf" id="dummy-1_h1_10_27"  />
</g>
<g id="a1_0028"  >
<polygon points="473,90 483,90 488,85 483,80 473,80 473,90 " style="fill:white; stroke-width:1; stroke:black; " description="&lt;b&gt;MicB006_2913&lt;/b&gt;&lt;br&gt;putative two-component system sensor kinase&lt;br&gt;Location: 22833 - 21721" locus_tag="MicB006_2913" class="clusterblast-orf" id="dummy-1_h1_10_28"  />
</g>
<g id="a1_0029"  >
<polygon points="488,90 492,90 497,85 492,80 488,80 488,90 " style="fill:white; stroke-width:1; stroke:black; " description="&lt;b&gt;MicB006_2912&lt;/b&gt;&lt;br&gt;DNA-binding response regulator LuxR family&lt;br&gt;Location: 21724 - 21062" locus_tag="MicB006_2912" class="clusterblast-orf" id="dummy-1_h1_10_29"  />
</g>
<g id="a1_0030"  >
<polygon points="500,90 500,90 505,85 500,80 500,80 500,90 " style="fill:white; stroke-width:1; stroke:black; " description="&lt;b&gt;MicB006_2911&lt;/b&gt;&lt;br&gt;hypothetical protein&lt;br&gt;Location: 20869 - 20474" locus_tag="MicB006_2911" class="clusterblast-orf" id="dummy-1_h1_10_30"  />
</g>
<g id="a1_0031"  >
<polygon points="506,90 507,90 512,85 507,80 506,80 506,90 " style="fill:white; stroke-width:1; stroke:black; " description="&lt;b&gt;MicB006_2910&lt;/b&gt;&lt;br&gt;hypothetical protein&lt;br&gt;Location: 20409 - 19954" locus_tag="MicB006_2910" class="clusterblast-orf" id="dummy-1_h1_10_31"  />
</g>
<g id="a1_0032"  >
<polygon points="512,90 534,90 539,85 534,80 512,80 512,90 " style="fill:white; stroke-width:1; stroke:black; " description="&lt;b&gt;MicB006_2909&lt;/b&gt;&lt;br&gt;multicopper oxidase&lt;br&gt;Location: 19933 - 17972" locus_tag="MicB006_2909" class="clusterblast-orf" id="dummy-1_h1_10_32"  />
</g>
<g id="a1_0033"  >
<polygon points="539,90 539,90 544,85 539,80 539,80 539,90 " style="fill:white; stroke-width:1; stroke:black; " description="&lt;b&gt;MicB006_2908&lt;/b&gt;&lt;br&gt;glyoxalase/bleomycin resistance protein/dioxygenase&lt;br&gt;Location: 17961 - 17572" locus_tag="MicB006_2908" class="clusterblast-orf" id="dummy-1_h1_10_33"  />
</g>
<g id="a1_0034"  >
<polygon points="545,85 550,80 551,80 551,90 550,90 545,85 " style="fill:white; stroke-width:1; stroke:black; " description="&lt;b&gt;MicB006_2907&lt;/b&gt;&lt;br&gt;hypothetical protein&lt;br&gt;Location: 17471 - 17073" locus_tag="MicB006_2907" class="clusterblast-orf" id="dummy-1_h1_10_34"  />
</g>
<g id="a1_0035"  >
<polygon points="553,85 558,80 579,80 579,90 558,90 553,85 " style="fill:white; stroke-width:1; stroke:black; " description="&lt;b&gt;MicB006_2906&lt;/b&gt;&lt;br&gt;anthranilate synthase&lt;br&gt;Location: 16913 - 14949" locus_tag="MicB006_2906" class="clusterblast-orf" id="dummy-1_h1_10_35"  />
</g>
<g id="a1_0036"  >
<polygon points="582,90 595,90 600,85 595,80 582,80 582,90 " style="fill:white; stroke-width:1; stroke:black; " description="&lt;b&gt;MicB006_2905&lt;/b&gt;&lt;br&gt;aspartokinase&lt;br&gt;Location: 14713 - 13430" locus_tag="MicB006_2905" class="clusterblast-orf" id="dummy-1_h1_10_36"  />
</g>
<g id="a1_0037"  >
<polygon points="600,90 606,90 611,85 606,80 600,80 600,90 " style="fill:white; stroke-width:1; stroke:black; " description="&lt;b&gt;MicB006_2904&lt;/b&gt;&lt;br&gt;2-amino-37-dideoxy-D-threo-hept-6-ulosonate synthase&lt;br&gt;Location: 13414 - 12590" locus_tag="MicB006_2904" class="clusterblast-orf" id="dummy-1_h1_10_37"  />
</g>
<g id="a1_0038"  >
<polygon points="611,90 621,90 626,85 621,80 611,80 611,90 " style="fill:white; stroke-width:1; stroke:black; " description="&lt;b&gt;MicB006_2903&lt;/b&gt;&lt;br&gt;37-dideoxy-D-threo-hepto-2 6-diulosonate synthase&lt;br&gt;Location: 12558 - 11455" locus_tag="MicB006_2903" class="clusterblast-orf" id="dummy-1_h1_10_38"  />
</g>
<g id="a1_0039"  >
<polygon points="626,90 632,90 637,85 632,80 626,80 626,90 " style="fill:white; stroke-width:1; stroke:black; " description="&lt;b&gt;MicB006_2902&lt;/b&gt;&lt;br&gt;hypothetical protein&lt;br&gt;Location: 11429 - 10668" locus_tag="MicB006_2902" class="clusterblast-orf" id="dummy-1_h1_10_39"  />
</g>
<g id="a1_0040"  >
<polygon points="636,90 649,90 654,85 649,80 636,80 636,90 " style="fill:white; stroke-width:1; stroke:black; " description="&lt;b&gt;MicB006_2901&lt;/b&gt;&lt;br&gt;phenylacetate-coenzyme A ligase&lt;br&gt;Location: 10671 - 9355" locus_tag="MicB006_2901" class="clusterblast-orf" id="dummy-1_h1_10_40"  />
</g>
<g id="a1_0041"  >
<polygon points="655,90 665,90 670,85 665,80 655,80 655,90 " style="fill:white; stroke-width:1; stroke:black; " description="&lt;b&gt;MicB006_2900&lt;/b&gt;&lt;br&gt;putative n-hydroxybenzoate hydroxylase&lt;br&gt;Location: 9323 - 8154" locus_tag="MicB006_2900" class="clusterblast-orf" id="dummy-1_h1_10_41"  />
</g>
<g id="a1_0042"  >
<polygon points="670,90 676,90 681,85 676,80 670,80 670,90 " style="fill:#d815d8; stroke-width:1; stroke:black; " description="&lt;b&gt;MicB006_2899&lt;/b&gt;&lt;br&gt;2,3-dihydro-2,3-dihydroxybenzoate dehydrogenase&lt;br&gt;Location: 8154 - 7369&lt;br&gt;&lt;br&gt;&lt;b&gt;BlastP hit with GJDDMNIP_04959&lt;/b&gt;&lt;br&gt;Percentage identity: 54&lt;br&gt;Percentage coverage: 102&lt;br&gt;BLAST bit score: 236&lt;br&gt;E-value: 1.33e-77" locus_tag="MicB006_2899" class="clusterblast-orf" id="dummy-1_h1_10_42"  />
</g>
<g id="a1_0043"  >
<polygon points="681,90 685,90 690,85 685,80 681,80 681,90 " style="fill:#1515d8; stroke-width:1; stroke:black; " description="&lt;b&gt;MicB006_2898&lt;/b&gt;&lt;br&gt;isochorismatase&lt;br&gt;Location: 7336 - 6662&lt;br&gt;&lt;br&gt;&lt;b&gt;BlastP hit with GJDDMNIP_04958&lt;/b&gt;&lt;br&gt;Percentage identity: 56&lt;br&gt;Percentage coverage: 96&lt;br&gt;BLAST bit score: 228&lt;br&gt;E-value: 1.53e-75" locus_tag="MicB006_2898" class="clusterblast-orf" id="dummy-1_h1_10_43"  />
</g>
<g id="a1_0044"  >
<polygon points="690,90 695,90 700,85 695,80 690,80 690,90 " style="fill:white; stroke-width:1; stroke:black; " description="&lt;b&gt;MicB006_2897&lt;/b&gt;&lt;br&gt;short-chain dehydrogenase/reductase SDR&lt;br&gt;Location: 6650 - 5949" locus_tag="MicB006_2897" class="clusterblast-orf" id="dummy-1_h1_10_44"  />
</g>
<g id="a1_0045"  >
<polygon points="700,85 705,80 710,80 710,90 705,90 700,85 " style="fill:white; stroke-width:1; stroke:black; " description="&lt;b&gt;MicB006_2896&lt;/b&gt;&lt;br&gt;hypothetical protein&lt;br&gt;Location: 5956 - 5216" locus_tag="MicB006_2896" class="clusterblast-orf" id="dummy-1_h1_10_45"  />
</g>
<g id="a1_0046"  >
<polygon points="712,90 712,90 717,85 712,80 712,80 712,90 " style="fill:white; stroke-width:1; stroke:black; " description="&lt;b&gt;MicB006_2895&lt;/b&gt;&lt;br&gt;putative membrane protein&lt;br&gt;Location: 5021 - 4686" locus_tag="MicB006_2895" class="clusterblast-orf" id="dummy-1_h1_10_46"  />
</g>
<g id="a1_0047"  >
<polygon points="717,90 734,90 739,85 734,80 717,80 717,90 " style="fill:white; stroke-width:1; stroke:black; " description="&lt;b&gt;MicB006_2894&lt;/b&gt;&lt;br&gt;SSS sodium solute transporter superfamily&lt;br&gt;Location: 4689 - 3010" locus_tag="MicB006_2894" class="clusterblast-orf" id="dummy-1_h1_10_47"  />
</g>
<g id="a1_0048"  >
<polygon points="740,90 756,90 761,85 756,80 740,80 740,90 " style="fill:white; stroke-width:1; stroke:black; " description="&lt;b&gt;MicB006_2893&lt;/b&gt;&lt;br&gt;hypothetical protein&lt;br&gt;Location: 2950 - 1352" locus_tag="MicB006_2893" class="clusterblast-orf" id="dummy-1_h1_10_48"  />
</g>
<g id="a1_0049"  >
<polygon points="763,90 775,90 780,85 775,80 763,80 763,90 " style="fill:white; stroke-width:1; stroke:black; " description="&lt;b&gt;MicB006_2892&lt;/b&gt;&lt;br&gt;2-keto-3-deoxy-D-arabino-heptulosonate-7- phosphate synthase II&lt;br&gt;Location: 1218 - 1" locus_tag="MicB006_2892" class="clusterblast-orf" id="dummy-1_h1_10_49"  />
</g>
</svg>
