<svg xmlns="http://www.w3.org/2000/svg" xmlns:xlink="http://www.w3.org/1999/xlink" version="1.1" x="0" y="0" height="230" width="800" viewBox="0 0 800 230" preserveAspectRatio="none"  >
<g label="Query sequence" class="clusterblast-cluster"  >
<text x="5" y="20" class="clusterblast-acc"  >
Query sequence</text>
<line x1="10" y1="35" x2="778.0" y2="35" style="stroke-width:1; stroke:grey; "  />
<polygon points="0,35 5,30 26,30 26,40 5,40 0,35 " style="fill:white; stroke-width:1; stroke:black; " description="&lt;b&gt;GJDDMNIP_00840&lt;/b&gt;&lt;br&gt;putative alcohol dehydrogenase AdhA&lt;br&gt;Location: 8672 - 9656" locus_tag="GJDDMNIP_00840" class="clusterblast-orf" id="dummy-1_q0_0_all"  />
<polygon points="28,35 33,30 49,30 49,40 33,40 28,35 " style="fill:white; stroke-width:1; stroke:black; " description="&lt;b&gt;GJDDMNIP_00841&lt;/b&gt;&lt;br&gt;Hemin import ATP-binding protein HmuV&lt;br&gt;Location: 9756 - 10530" locus_tag="GJDDMNIP_00841" class="clusterblast-orf" id="dummy-1_q1_0_all"  />
<polygon points="49,35 54,30 77,30 77,40 54,40 49,35 " style="fill:white; stroke-width:1; stroke:black; " description="&lt;b&gt;GJDDMNIP_00842&lt;/b&gt;&lt;br&gt;Hemin transport system permease protein HmuU&lt;br&gt;Location: 10526 - 11603" locus_tag="GJDDMNIP_00842" class="clusterblast-orf" id="dummy-1_q2_0_all"  />
<polygon points="77,35 82,30 100,30 100,40 82,40 77,35 " style="fill:white; stroke-width:1; stroke:black; " description="&lt;b&gt;GJDDMNIP_00843&lt;/b&gt;&lt;br&gt;Hemin-binding periplasmic protein HmuT&lt;br&gt;Location: 11602 - 12478" locus_tag="GJDDMNIP_00843" class="clusterblast-orf" id="dummy-1_q3_0_all"  />
<polygon points="100,35 105,30 128,30 128,40 105,40 100,35 " style="fill:white; stroke-width:1; stroke:black; " description="&lt;b&gt;GJDDMNIP_00844&lt;/b&gt;&lt;br&gt;Hemin transport protein HemS&lt;br&gt;Location: 12474 - 13515" locus_tag="GJDDMNIP_00844" class="clusterblast-orf" id="dummy-1_q4_0_all"  />
<polygon points="132,40 182,40 187,35 182,30 132,30 132,40 " style="fill:white; stroke-width:1; stroke:black; " description="&lt;b&gt;GJDDMNIP_00845&lt;/b&gt;&lt;br&gt;Hemin receptor&lt;br&gt;Location: 13674 - 15735" locus_tag="GJDDMNIP_00845" class="clusterblast-orf" id="dummy-1_q5_0_all"  />
<polygon points="189,35 194,30 234,30 234,40 194,40 189,35 " style="fill:white; stroke-width:1; stroke:black; " description="&lt;b&gt;GJDDMNIP_00846&lt;/b&gt;&lt;br&gt;Putative multidrug export ATP-binding/permease protein&lt;br&gt;Location: 15840 - 17541" locus_tag="GJDDMNIP_00846" class="clusterblast-orf" id="dummy-1_q6_0_all"  />
<polygon points="250,40 256,40 261,35 256,30 250,30 250,40 " style="fill:white; stroke-width:1; stroke:black; " description="&lt;b&gt;GJDDMNIP_00847&lt;/b&gt;&lt;br&gt;hypothetical protein&lt;br&gt;Location: 18146 - 18539" locus_tag="GJDDMNIP_00847" class="clusterblast-orf" id="dummy-1_q7_0_all"  />
<polygon points="262,40 306,40 311,35 306,30 262,30 262,40 " style="fill:white; stroke-width:1; stroke:black; " description="&lt;b&gt;GJDDMNIP_00848&lt;/b&gt;&lt;br&gt;hypothetical protein&lt;br&gt;Location: 18570 - 20433" locus_tag="GJDDMNIP_00848" class="clusterblast-orf" id="dummy-1_q8_0_all"  />
<polygon points="310,40 335,40 340,35 335,30 310,30 310,40 " style="fill:white; stroke-width:1; stroke:black; " description="&lt;b&gt;GJDDMNIP_00849&lt;/b&gt;&lt;br&gt;hypothetical protein&lt;br&gt;Location: 20404 - 21520" locus_tag="GJDDMNIP_00849" class="clusterblast-orf" id="dummy-1_q9_0_all"  />
<polygon points="340,40 369,40 374,35 369,30 340,30 340,40 " style="fill:white; stroke-width:1; stroke:black; " description="&lt;b&gt;GJDDMNIP_00850&lt;/b&gt;&lt;br&gt;hypothetical protein&lt;br&gt;Location: 21516 - 22827" locus_tag="GJDDMNIP_00850" class="clusterblast-orf" id="dummy-1_q10_0_all"  />
<polygon points="374,40 390,40 395,35 390,30 374,30 374,40 " style="fill:white; stroke-width:1; stroke:black; " description="&lt;b&gt;GJDDMNIP_00851&lt;/b&gt;&lt;br&gt;hypothetical protein&lt;br&gt;Location: 22831 - 23611" locus_tag="GJDDMNIP_00851" class="clusterblast-orf" id="dummy-1_q11_0_all"  />
<polygon points="398,40 443,40 448,35 443,30 398,30 398,40 " style="fill:white; stroke-width:1; stroke:black; " description="&lt;b&gt;GJDDMNIP_00852&lt;/b&gt;&lt;br&gt;hypothetical protein&lt;br&gt;Location: 23738 - 25628" locus_tag="GJDDMNIP_00852" class="clusterblast-orf" id="dummy-1_q12_0_all"  />
<polygon points="448,35 453,30 468,30 468,40 453,40 448,35 " style="fill:white; stroke-width:1; stroke:black; " description="&lt;b&gt;GJDDMNIP_00853&lt;/b&gt;&lt;br&gt;hypothetical protein&lt;br&gt;Location: 25624 - 26353" locus_tag="GJDDMNIP_00853" class="clusterblast-orf" id="dummy-1_q13_0_all"  />
<polygon points="468,35 473,30 505,30 505,40 473,40 468,35 " style="fill:white; stroke-width:1; stroke:black; " description="&lt;b&gt;GJDDMNIP_00854&lt;/b&gt;&lt;br&gt;hypothetical protein&lt;br&gt;Location: 26366 - 27782" locus_tag="GJDDMNIP_00854" class="clusterblast-orf" id="dummy-1_q14_0_all"  />
<polygon points="506,35 511,30 529,30 529,40 511,40 506,35 " style="fill:white; stroke-width:1; stroke:black; " description="&lt;b&gt;GJDDMNIP_00855&lt;/b&gt;&lt;br&gt;hypothetical protein&lt;br&gt;Location: 27790 - 28669" locus_tag="GJDDMNIP_00855" class="clusterblast-orf" id="dummy-1_q15_0_all"  />
<polygon points="541,40 570,40 575,35 570,30 541,30 541,40 " style="fill:white; stroke-width:1; stroke:black; " description="&lt;b&gt;GJDDMNIP_00856&lt;/b&gt;&lt;br&gt;sn-glycerol-3-phosphate-binding periplasmic protein UgpB&lt;br&gt;Location: 29108 - 30404" locus_tag="GJDDMNIP_00856" class="clusterblast-orf" id="dummy-1_q16_0_all"  />
<polygon points="576,40 594,40 599,35 594,30 576,30 576,40 " style="fill:white; stroke-width:1; stroke:black; " description="&lt;b&gt;GJDDMNIP_00857&lt;/b&gt;&lt;br&gt;sn-glycerol-3-phosphate transport system permease protein UgpA&lt;br&gt;Location: 30453 - 31335" locus_tag="GJDDMNIP_00857" class="clusterblast-orf" id="dummy-1_q17_0_all"  />
<polygon points="599,40 617,40 622,35 617,30 599,30 599,40 " style="fill:white; stroke-width:1; stroke:black; " description="&lt;b&gt;GJDDMNIP_00858&lt;/b&gt;&lt;br&gt;L-arabinose transport system permease protein AraQ&lt;br&gt;Location: 31327 - 32191" locus_tag="GJDDMNIP_00858" class="clusterblast-orf" id="dummy-1_q18_0_all"  />
<polygon points="622,40 645,40 650,35 645,30 622,30 622,40 " style="fill:white; stroke-width:1; stroke:black; " description="&lt;b&gt;GJDDMNIP_00859&lt;/b&gt;&lt;br&gt;sn-glycerol-3-phosphate import ATP-binding protein UgpC&lt;br&gt;Location: 32191 - 33253" locus_tag="GJDDMNIP_00859" class="clusterblast-orf" id="dummy-1_q19_0_all"  />
<polygon points="650,35 655,30 675,30 675,40 655,40 650,35 " style="fill:white; stroke-width:1; stroke:black; " description="&lt;b&gt;GJDDMNIP_00860&lt;/b&gt;&lt;br&gt;Multifunctional non-homologous end joining protein LigD&lt;br&gt;Location: 33262 - 34180" locus_tag="GJDDMNIP_00860" class="clusterblast-orf" id="dummy-1_q20_0_all"  />
<polygon points="682,40 696,40 701,35 696,30 682,30 682,40 " style="fill:#d81515; stroke-width:1; stroke:black; " description="&lt;b&gt;GJDDMNIP_00861&lt;/b&gt;&lt;br&gt;7-cyano-7-deazaguanine synthase&lt;br&gt;Location: 34452 - 35154" locus_tag="GJDDMNIP_00861" class="clusterblast-orf" id="dummy-1_q21_0_all"  />
<polygon points="701,40 705,40 710,35 705,30 701,30 701,40 " style="fill:#15d815; stroke-width:1; stroke:black; " description="&lt;b&gt;GJDDMNIP_00862&lt;/b&gt;&lt;br&gt;6-carboxy-5,6,7,8-tetrahydropterin synthase&lt;br&gt;Location: 35153 - 35507" locus_tag="GJDDMNIP_00862" class="clusterblast-orf" id="dummy-1_q22_0_all"  />
<polygon points="710,40 724,40 729,35 724,30 710,30 710,40 " style="fill:#1515d8; stroke-width:1; stroke:black; " description="&lt;b&gt;GJDDMNIP_00863&lt;/b&gt;&lt;br&gt;7-carboxy-7-deazaguanine synthase&lt;br&gt;Location: 35503 - 36211" locus_tag="GJDDMNIP_00863" class="clusterblast-orf" id="dummy-1_q23_0_all"  />
<polygon points="729,40 736,40 741,35 736,30 729,30 729,40 " style="fill:white; stroke-width:1; stroke:black; " description="&lt;b&gt;GJDDMNIP_00864&lt;/b&gt;&lt;br&gt;NADPH-dependent 7-cyano-7-deazaguanine reductase&lt;br&gt;Location: 36226 - 36691" locus_tag="GJDDMNIP_00864" class="clusterblast-orf" id="dummy-1_q24_0_all"  />
<polygon points="745,40 775,40 780,35 775,30 745,30 745,40 " style="fill:white; stroke-width:1; stroke:black; " description="&lt;b&gt;GJDDMNIP_00865&lt;/b&gt;&lt;br&gt;hypothetical protein&lt;br&gt;Location: 36839 - 38147" locus_tag="GJDDMNIP_00865" class="clusterblast-orf" id="dummy-1_q25_0_all"  />
</g>
<g label="BGC0001808" description="BGC0001808_c1: toyocamycin (20% of genes show similarity), Other" class="clusterblast-cluster"  >
<text x="5" y="70" class="clusterblast-acc"  >
<a xlink:href="https://mibig.secondarymetabolites.org/go/BGC0001808/1" target="_blank">BGC0001808</a>: toyocamycin                                                                      (20% of genes show similarity), Other</text>
<line x1="10" y1="85" x2="778.0" y2="85" style="stroke-width:1; stroke:grey; "  />
</g>
<g id="a1_000"  >
<polygon points="252,90 323,90 328,85 323,80 252,80 252,90 " style="fill:white; stroke-width:1; stroke:black; " description="&lt;b&gt;APT68170.1&lt;/b&gt;&lt;br&gt;ToyA&lt;br&gt;Location: 1 - 2877" locus_tag="APT68170.1" class="clusterblast-orf" id="dummy-1_h1_5_0"  />
</g>
<g id="a1_001"  >
<polygon points="332,90 346,90 351,85 346,80 332,80 332,90 " style="fill:#d81515; stroke-width:1; stroke:black; " description="&lt;b&gt;APT68169.1&lt;/b&gt;&lt;br&gt;ToyM&lt;br&gt;Location: 3033 - 3749&lt;br&gt;&lt;br&gt;&lt;b&gt;BlastP hit with GJDDMNIP_00861&lt;/b&gt;&lt;br&gt;Percentage identity: 53&lt;br&gt;Percentage coverage: 94&lt;br&gt;BLAST bit score: 228&lt;br&gt;E-value: 2.95e-75" locus_tag="APT68169.1" class="clusterblast-orf" id="dummy-1_h1_5_1"  />
</g>
<g id="a1_002"  >
<polygon points="354,85 359,80 372,80 372,90 359,90 354,85 " style="fill:white; stroke-width:1; stroke:black; " description="&lt;b&gt;APT68171.1&lt;/b&gt;&lt;br&gt;ToyI&lt;br&gt;Location: 3853 - 4551" locus_tag="APT68171.1" class="clusterblast-orf" id="dummy-1_h1_5_2"  />
</g>
<g id="a1_003"  >
<polygon points="372,85 377,80 386,80 386,90 377,90 372,85 " style="fill:white; stroke-width:1; stroke:black; " description="&lt;b&gt;APT68172.1&lt;/b&gt;&lt;br&gt;ToyH&lt;br&gt;Location: 4557 - 5078" locus_tag="APT68172.1" class="clusterblast-orf" id="dummy-1_h1_5_3"  />
</g>
<g id="a1_004"  >
<polygon points="386,85 391,80 414,80 414,90 391,90 386,85 " style="fill:white; stroke-width:1; stroke:black; " description="&lt;b&gt;APT68173.1&lt;/b&gt;&lt;br&gt;ToyG&lt;br&gt;Location: 5075 - 6130" locus_tag="APT68173.1" class="clusterblast-orf" id="dummy-1_h1_5_4"  />
</g>
<g id="a1_005"  >
<polygon points="414,85 419,80 450,80 450,90 419,90 414,85 " style="fill:white; stroke-width:1; stroke:black; " description="&lt;b&gt;APT68174.1&lt;/b&gt;&lt;br&gt;ToyF&lt;br&gt;Location: 6115 - 7500" locus_tag="APT68174.1" class="clusterblast-orf" id="dummy-1_h1_5_5"  />
</g>
<g id="a1_006"  >
<polygon points="450,85 455,80 480,80 480,90 455,90 450,85 " style="fill:white; stroke-width:1; stroke:black; " description="&lt;b&gt;APT68175.1&lt;/b&gt;&lt;br&gt;ToyE&lt;br&gt;Location: 7497 - 8642" locus_tag="APT68175.1" class="clusterblast-orf" id="dummy-1_h1_5_6"  />
</g>
<g id="a1_007"  >
<polygon points="481,85 486,80 497,80 497,90 486,90 481,85 " style="fill:white; stroke-width:1; stroke:black; " description="&lt;b&gt;APT68176.1&lt;/b&gt;&lt;br&gt;ToyD&lt;br&gt;Location: 8677 - 9273" locus_tag="APT68176.1" class="clusterblast-orf" id="dummy-1_h1_5_7"  />
</g>
<g id="a1_008"  >
<polygon points="497,85 502,80 514,80 514,90 502,90 497,85 " style="fill:white; stroke-width:1; stroke:black; " description="&lt;b&gt;APT68177.1&lt;/b&gt;&lt;br&gt;ToyC&lt;br&gt;Location: 9279 - 9908" locus_tag="APT68177.1" class="clusterblast-orf" id="dummy-1_h1_5_8"  />
</g>
<g id="a1_009"  >
<polygon points="518,85 523,80 527,80 527,90 523,90 518,85 " style="fill:#15d815; stroke-width:1; stroke:black; " description="&lt;b&gt;APT68178.1&lt;/b&gt;&lt;br&gt;ToyB&lt;br&gt;Location: 10048 - 10410&lt;br&gt;&lt;br&gt;&lt;b&gt;BlastP hit with GJDDMNIP_00862&lt;/b&gt;&lt;br&gt;Percentage identity: 57&lt;br&gt;Percentage coverage: 101&lt;br&gt;BLAST bit score: 136&lt;br&gt;E-value: 1.75e-42" locus_tag="APT68178.1" class="clusterblast-orf" id="dummy-1_h1_5_9"  />
</g>
</svg>
