<svg xmlns="http://www.w3.org/2000/svg" xmlns:xlink="http://www.w3.org/1999/xlink" version="1.1" x="0" y="0" height="50" width="800" viewBox="0 0 800 50" preserveAspectRatio="none"  >
<g label="Query sequence" class="clusterblast-cluster"  >
<text x="5" y="20" class="clusterblast-acc"  >
Query sequence</text>
<line x1="10" y1="35" x2="778.0" y2="35" style="stroke-width:1; stroke:grey; "  />
<polygon points="0,40 10,40 15,35 10,30 0,30 0,40 " style="fill:white; stroke-width:1; stroke:black; " description="&lt;b&gt;GJDDMNIP_02194&lt;/b&gt;&lt;br&gt;hypothetical protein&lt;br&gt;Location: 29755 - 30595" locus_tag="GJDDMNIP_02194" class="clusterblast-orf" id="subclusterblast-1_q0_0_all"  />
<polygon points="15,40 29,40 34,35 29,30 15,30 15,40 " style="fill:white; stroke-width:1; stroke:black; " description="&lt;b&gt;GJDDMNIP_02195&lt;/b&gt;&lt;br&gt;Ferrochelatase&lt;br&gt;Location: 30591 - 31623" locus_tag="GJDDMNIP_02195" class="clusterblast-orf" id="subclusterblast-1_q1_0_all"  />
<polygon points="34,35 39,30 45,30 45,40 39,40 34,35 " style="fill:white; stroke-width:1; stroke:black; " description="&lt;b&gt;GJDDMNIP_02196&lt;/b&gt;&lt;br&gt;hypothetical protein&lt;br&gt;Location: 31650 - 32262" locus_tag="GJDDMNIP_02196" class="clusterblast-orf" id="subclusterblast-1_q2_0_all"  />
<polygon points="47,35 52,30 59,30 59,40 52,40 47,35 " style="fill:white; stroke-width:1; stroke:black; " description="&lt;b&gt;GJDDMNIP_02197&lt;/b&gt;&lt;br&gt;hypothetical protein&lt;br&gt;Location: 32354 - 33008" locus_tag="GJDDMNIP_02197" class="clusterblast-orf" id="subclusterblast-1_q3_0_all"  />
<polygon points="63,40 68,40 73,35 68,30 63,30 63,40 " style="fill:white; stroke-width:1; stroke:black; " description="&lt;b&gt;GJDDMNIP_02198&lt;/b&gt;&lt;br&gt;hypothetical protein&lt;br&gt;Location: 33239 - 33803" locus_tag="GJDDMNIP_02198" class="clusterblast-orf" id="subclusterblast-1_q4_0_all"  />
<polygon points="76,40 83,40 88,35 83,30 76,30 76,40 " style="fill:white; stroke-width:1; stroke:black; " description="&lt;b&gt;GJDDMNIP_02199&lt;/b&gt;&lt;br&gt;hypothetical protein&lt;br&gt;Location: 33946 - 34600" locus_tag="GJDDMNIP_02199" class="clusterblast-orf" id="subclusterblast-1_q5_0_all"  />
<polygon points="90,35 95,30 99,30 99,40 95,40 90,35 " style="fill:white; stroke-width:1; stroke:black; " description="&lt;b&gt;GJDDMNIP_02200&lt;/b&gt;&lt;br&gt;hypothetical protein&lt;br&gt;Location: 34700 - 35216" locus_tag="GJDDMNIP_02200" class="clusterblast-orf" id="subclusterblast-1_q6_0_all"  />
<polygon points="100,35 105,30 123,30 123,40 105,40 100,35 " style="fill:white; stroke-width:1; stroke:black; " description="&lt;b&gt;GJDDMNIP_02201&lt;/b&gt;&lt;br&gt;23S rRNA (uracil(1939)-C(5))-methyltransferase RlmD&lt;br&gt;Location: 35281 - 36502" locus_tag="GJDDMNIP_02201" class="clusterblast-orf" id="subclusterblast-1_q7_0_all"  />
<polygon points="122,35 127,30 156,30 156,40 127,40 122,35 " style="fill:white; stroke-width:1; stroke:black; " description="&lt;b&gt;GJDDMNIP_02202&lt;/b&gt;&lt;br&gt;Vitamin B12 import ATP-binding protein BtuD&lt;br&gt;Location: 36498 - 38361" locus_tag="GJDDMNIP_02202" class="clusterblast-orf" id="subclusterblast-1_q8_0_all"  />
<polygon points="156,35 161,30 178,30 178,40 161,40 156,35 " style="fill:white; stroke-width:1; stroke:black; " description="&lt;b&gt;GJDDMNIP_02203&lt;/b&gt;&lt;br&gt;CCA-adding enzyme&lt;br&gt;Location: 38360 - 39527" locus_tag="GJDDMNIP_02203" class="clusterblast-orf" id="subclusterblast-1_q9_0_all"  />
<polygon points="178,35 183,30 188,30 188,40 183,40 178,35 " style="fill:white; stroke-width:1; stroke:black; " description="&lt;b&gt;GJDDMNIP_02204&lt;/b&gt;&lt;br&gt;putative Nudix hydrolase NudL&lt;br&gt;Location: 39523 - 40084" locus_tag="GJDDMNIP_02204" class="clusterblast-orf" id="subclusterblast-1_q10_0_all"  />
<polygon points="188,35 193,30 207,30 207,40 193,40 188,35 " style="fill:white; stroke-width:1; stroke:black; " description="&lt;b&gt;GJDDMNIP_02205&lt;/b&gt;&lt;br&gt;33 kDa chaperonin&lt;br&gt;Location: 40107 - 41133" locus_tag="GJDDMNIP_02205" class="clusterblast-orf" id="subclusterblast-1_q11_0_all"  />
<polygon points="211,40 219,40 224,35 219,30 211,30 211,40 " style="fill:white; stroke-width:1; stroke:black; " description="&lt;b&gt;GJDDMNIP_02206&lt;/b&gt;&lt;br&gt;Ribulose-phosphate 3-epimerase&lt;br&gt;Location: 41355 - 42048" locus_tag="GJDDMNIP_02206" class="clusterblast-orf" id="subclusterblast-1_q12_0_all"  />
<polygon points="223,40 240,40 245,35 240,30 223,30 223,40 " style="fill:white; stroke-width:1; stroke:black; " description="&lt;b&gt;GJDDMNIP_02207&lt;/b&gt;&lt;br&gt;3-deoxy-D-manno-octulosonic acid transferase&lt;br&gt;Location: 42044 - 43244" locus_tag="GJDDMNIP_02207" class="clusterblast-orf" id="subclusterblast-1_q13_0_all"  />
<polygon points="246,40 249,40 254,35 249,30 246,30 246,40 " style="fill:white; stroke-width:1; stroke:black; " description="&lt;b&gt;GJDDMNIP_02208&lt;/b&gt;&lt;br&gt;hypothetical protein&lt;br&gt;Location: 43284 - 43704" locus_tag="GJDDMNIP_02208" class="clusterblast-orf" id="subclusterblast-1_q14_0_all"  />
<polygon points="254,35 259,30 268,30 268,40 259,40 254,35 " style="fill:white; stroke-width:1; stroke:black; " description="&lt;b&gt;GJDDMNIP_02209&lt;/b&gt;&lt;br&gt;Fe(3+) dicitrate transport ATP-binding protein FecE&lt;br&gt;Location: 43734 - 44511" locus_tag="GJDDMNIP_02209" class="clusterblast-orf" id="subclusterblast-1_q15_0_all"  />
<polygon points="268,35 273,30 287,30 287,40 273,40 268,35 " style="fill:white; stroke-width:1; stroke:black; " description="&lt;b&gt;GJDDMNIP_02210&lt;/b&gt;&lt;br&gt;Hemin transport system permease protein HmuU&lt;br&gt;Location: 44510 - 45545" locus_tag="GJDDMNIP_02210" class="clusterblast-orf" id="subclusterblast-1_q16_0_all"  />
<polygon points="287,35 292,30 307,30 307,40 292,40 287,35 " style="fill:white; stroke-width:1; stroke:black; " description="&lt;b&gt;GJDDMNIP_02211&lt;/b&gt;&lt;br&gt;hypothetical protein&lt;br&gt;Location: 45541 - 46639" locus_tag="GJDDMNIP_02211" class="clusterblast-orf" id="subclusterblast-1_q17_0_all"  />
<polygon points="308,35 313,30 334,30 334,40 313,40 308,35 " style="fill:white; stroke-width:1; stroke:black; " description="&lt;b&gt;GJDDMNIP_02212&lt;/b&gt;&lt;br&gt;hypothetical protein&lt;br&gt;Location: 46698 - 48105" locus_tag="GJDDMNIP_02212" class="clusterblast-orf" id="subclusterblast-1_q18_0_all"  />
<polygon points="337,40 347,40 352,35 347,30 337,30 337,40 " style="fill:white; stroke-width:1; stroke:black; " description="&lt;b&gt;GJDDMNIP_02213&lt;/b&gt;&lt;br&gt;hypothetical protein&lt;br&gt;Location: 48256 - 49090" locus_tag="GJDDMNIP_02213" class="clusterblast-orf" id="subclusterblast-1_q19_0_all"  />
<polygon points="353,40 356,35 353,30 353,40 " style="fill:white; stroke-width:1; stroke:black; " description="&lt;b&gt;GJDDMNIP_02214&lt;/b&gt;&lt;br&gt;hypothetical protein&lt;br&gt;Location: 49142 - 49301" locus_tag="GJDDMNIP_02214" class="clusterblast-orf" id="subclusterblast-1_q20_0_all"  />
<polygon points="356,35 361,30 426,30 426,40 361,40 356,35 " style="fill:white; stroke-width:1; stroke:black; " description="&lt;b&gt;GJDDMNIP_02215&lt;/b&gt;&lt;br&gt;Dimodular nonribosomal peptide synthase&lt;br&gt;Location: 49309 - 53167" locus_tag="GJDDMNIP_02215" class="clusterblast-orf" id="subclusterblast-1_q21_0_all"  />
<polygon points="429,40 435,40 440,35 435,30 429,30 429,40 " style="fill:white; stroke-width:1; stroke:black; " description="&lt;b&gt;GJDDMNIP_02216&lt;/b&gt;&lt;br&gt;Cytochrome b561&lt;br&gt;Location: 53337 - 53937" locus_tag="GJDDMNIP_02216" class="clusterblast-orf" id="subclusterblast-1_q22_0_all"  />
<polygon points="441,40 442,40 447,35 442,30 441,30 441,40 " style="fill:white; stroke-width:1; stroke:black; " description="&lt;b&gt;GJDDMNIP_02217&lt;/b&gt;&lt;br&gt;hypothetical protein&lt;br&gt;Location: 53995 - 54331" locus_tag="GJDDMNIP_02217" class="clusterblast-orf" id="subclusterblast-1_q23_0_all"  />
<polygon points="448,35 453,30 465,30 465,40 453,40 448,35 " style="fill:white; stroke-width:1; stroke:black; " description="&lt;b&gt;GJDDMNIP_02218&lt;/b&gt;&lt;br&gt;putative cystine transporter YijE&lt;br&gt;Location: 54370 - 55315" locus_tag="GJDDMNIP_02218" class="clusterblast-orf" id="subclusterblast-1_q24_0_all"  />
<polygon points="467,35 472,30 482,30 482,40 472,40 467,35 " style="fill:white; stroke-width:1; stroke:black; " description="&lt;b&gt;GJDDMNIP_02219&lt;/b&gt;&lt;br&gt;Methylthioacryloyl-CoA hydratase&lt;br&gt;Location: 55420 - 56227" locus_tag="GJDDMNIP_02219" class="clusterblast-orf" id="subclusterblast-1_q25_0_all"  />
<polygon points="482,35 487,30 499,30 499,40 487,40 482,35 " style="fill:white; stroke-width:1; stroke:black; " description="&lt;b&gt;GJDDMNIP_02220&lt;/b&gt;&lt;br&gt;hypothetical protein&lt;br&gt;Location: 56230 - 57160" locus_tag="GJDDMNIP_02220" class="clusterblast-orf" id="subclusterblast-1_q26_0_all"  />
<polygon points="499,35 504,30 504,30 504,40 504,40 499,35 " style="fill:white; stroke-width:1; stroke:black; " description="&lt;b&gt;GJDDMNIP_02221&lt;/b&gt;&lt;br&gt;Sulfur carrier protein TusA&lt;br&gt;Location: 57159 - 57438" locus_tag="GJDDMNIP_02221" class="clusterblast-orf" id="subclusterblast-1_q27_0_all"  />
<polygon points="503,35 508,30 513,30 513,40 508,40 503,35 " style="fill:white; stroke-width:1; stroke:black; " description="&lt;b&gt;GJDDMNIP_02222&lt;/b&gt;&lt;br&gt;hypothetical protein&lt;br&gt;Location: 57404 - 57920" locus_tag="GJDDMNIP_02222" class="clusterblast-orf" id="subclusterblast-1_q28_0_all"  />
<polygon points="514,35 519,30 527,30 527,40 519,40 514,35 " style="fill:white; stroke-width:1; stroke:black; " description="&lt;b&gt;GJDDMNIP_02223&lt;/b&gt;&lt;br&gt;Uroporphyrinogen-III C-methyltransferase&lt;br&gt;Location: 58003 - 58738" locus_tag="GJDDMNIP_02223" class="clusterblast-orf" id="subclusterblast-1_q29_0_all"  />
<polygon points="529,40 542,40 547,35 542,30 529,30 529,40 " style="fill:white; stroke-width:1; stroke:black; " description="&lt;b&gt;GJDDMNIP_02224&lt;/b&gt;&lt;br&gt;Aspartate carbamoyltransferase&lt;br&gt;Location: 58840 - 59800" locus_tag="GJDDMNIP_02224" class="clusterblast-orf" id="subclusterblast-1_q30_0_all"  />
<polygon points="547,40 565,40 570,35 565,30 547,30 547,40 " style="fill:white; stroke-width:1; stroke:black; " description="&lt;b&gt;GJDDMNIP_02225&lt;/b&gt;&lt;br&gt;Dihydroorotase&lt;br&gt;Location: 59796 - 61068" locus_tag="GJDDMNIP_02225" class="clusterblast-orf" id="subclusterblast-1_q31_0_all"  />
<polygon points="570,40 575,40 580,35 575,30 570,30 570,40 " style="fill:white; stroke-width:1; stroke:black; " description="&lt;b&gt;GJDDMNIP_02226&lt;/b&gt;&lt;br&gt;putative glycerol-3-phosphate acyltransferase&lt;br&gt;Location: 61064 - 61649" locus_tag="GJDDMNIP_02226" class="clusterblast-orf" id="subclusterblast-1_q32_0_all"  />
<polygon points="582,35 587,30 598,30 598,40 587,40 582,35 " style="fill:white; stroke-width:1; stroke:black; " description="&lt;b&gt;GJDDMNIP_02227&lt;/b&gt;&lt;br&gt;3-hydroxybutyryl-CoA dehydrogenase&lt;br&gt;Location: 61724 - 62600" locus_tag="GJDDMNIP_02227" class="clusterblast-orf" id="subclusterblast-1_q33_0_all"  />
<polygon points="601,35 606,30 618,30 618,40 606,40 601,35 " style="fill:white; stroke-width:1; stroke:black; " description="&lt;b&gt;GJDDMNIP_02228&lt;/b&gt;&lt;br&gt;Electron transfer flavoprotein subunit alpha&lt;br&gt;Location: 62798 - 63725" locus_tag="GJDDMNIP_02228" class="clusterblast-orf" id="subclusterblast-1_q34_0_all"  />
<polygon points="618,35 623,30 632,30 632,40 623,40 618,35 " style="fill:white; stroke-width:1; stroke:black; " description="&lt;b&gt;GJDDMNIP_02229&lt;/b&gt;&lt;br&gt;Electron transfer flavoprotein subunit beta&lt;br&gt;Location: 63724 - 64483" locus_tag="GJDDMNIP_02229" class="clusterblast-orf" id="subclusterblast-1_q35_0_all"  />
<polygon points="634,35 639,30 645,30 645,40 639,40 634,35 " style="fill:white; stroke-width:1; stroke:black; " description="&lt;b&gt;GJDDMNIP_02230&lt;/b&gt;&lt;br&gt;Corrinoid adenosyltransferase&lt;br&gt;Location: 64603 - 65176" locus_tag="GJDDMNIP_02230" class="clusterblast-orf" id="subclusterblast-1_q36_0_all"  />
<polygon points="645,35 648,30 648,40 645,35 " style="fill:white; stroke-width:1; stroke:black; " description="&lt;b&gt;GJDDMNIP_02231&lt;/b&gt;&lt;br&gt;hypothetical protein&lt;br&gt;Location: 65175 - 65376" locus_tag="GJDDMNIP_02231" class="clusterblast-orf" id="subclusterblast-1_q37_0_all"  />
<polygon points="649,35 654,30 664,30 664,40 654,40 649,35 " style="fill:white; stroke-width:1; stroke:black; " description="&lt;b&gt;GJDDMNIP_02232&lt;/b&gt;&lt;br&gt;hypothetical protein&lt;br&gt;Location: 65400 - 66219" locus_tag="GJDDMNIP_02232" class="clusterblast-orf" id="subclusterblast-1_q38_0_all"  />
<polygon points="665,40 701,40 706,35 701,30 665,30 665,40 " style="fill:white; stroke-width:1; stroke:black; " description="&lt;b&gt;GJDDMNIP_02233&lt;/b&gt;&lt;br&gt;DNA topoisomerase 4 subunit A&lt;br&gt;Location: 66321 - 68565" locus_tag="GJDDMNIP_02233" class="clusterblast-orf" id="subclusterblast-1_q39_0_all"  />
<polygon points="707,35 710,30 710,40 707,35 " style="fill:white; stroke-width:1; stroke:black; " description="&lt;b&gt;GJDDMNIP_02234&lt;/b&gt;&lt;br&gt;hypothetical protein&lt;br&gt;Location: 68597 - 68753" locus_tag="GJDDMNIP_02234" class="clusterblast-orf" id="subclusterblast-1_q40_0_all"  />
<polygon points="712,35 717,30 722,30 722,40 717,40 712,35 " style="fill:white; stroke-width:1; stroke:black; " description="&lt;b&gt;GJDDMNIP_02235&lt;/b&gt;&lt;br&gt;hypothetical protein&lt;br&gt;Location: 68854 - 69436" locus_tag="GJDDMNIP_02235" class="clusterblast-orf" id="subclusterblast-1_q41_0_all"  />
<polygon points="722,35 727,30 731,30 731,40 727,40 722,35 " style="fill:white; stroke-width:1; stroke:black; " description="&lt;b&gt;GJDDMNIP_02236&lt;/b&gt;&lt;br&gt;Cytochrome c-554&lt;br&gt;Location: 69435 - 69891" locus_tag="GJDDMNIP_02236" class="clusterblast-orf" id="subclusterblast-1_q42_0_all"  />
<polygon points="737,35 742,30 743,30 743,40 742,40 737,35 " style="fill:white; stroke-width:1; stroke:black; " description="&lt;b&gt;GJDDMNIP_02237&lt;/b&gt;&lt;br&gt;hypothetical protein&lt;br&gt;Location: 70263 - 70572" locus_tag="GJDDMNIP_02237" class="clusterblast-orf" id="subclusterblast-1_q43_0_all"  />
<polygon points="743,35 748,30 756,30 756,40 748,40 743,35 " style="fill:white; stroke-width:1; stroke:black; " description="&lt;b&gt;GJDDMNIP_02238&lt;/b&gt;&lt;br&gt;hypothetical protein&lt;br&gt;Location: 70556 - 71306" locus_tag="GJDDMNIP_02238" class="clusterblast-orf" id="subclusterblast-1_q44_0_all"  />
<polygon points="756,35 761,30 780,30 780,40 761,40 756,35 " style="fill:white; stroke-width:1; stroke:black; " description="&lt;b&gt;GJDDMNIP_02239&lt;/b&gt;&lt;br&gt;Hydrogenobyrinate a,c-diamide synthase&lt;br&gt;Location: 71302 - 72592" locus_tag="GJDDMNIP_02239" class="clusterblast-orf" id="subclusterblast-1_q45_0_all"  />
</g>
</svg>
