<svg xmlns="http://www.w3.org/2000/svg" xmlns:xlink="http://www.w3.org/1999/xlink" version="1.1" x="0" y="0" height="50" width="800" viewBox="0 0 800 50" preserveAspectRatio="none"  >
<g label="Query sequence" class="clusterblast-cluster"  >
<text x="5" y="20" class="clusterblast-acc"  >
Query sequence</text>
<line x1="10" y1="35" x2="778.0" y2="35" style="stroke-width:1; stroke:grey; "  />
<polygon points="0,40 4,40 9,35 4,30 0,30 0,40 " style="fill:white; stroke-width:1; stroke:black; " description="&lt;b&gt;GJDDMNIP_02006&lt;/b&gt;&lt;br&gt;hypothetical protein&lt;br&gt;Location: 177719 - 177836" locus_tag="GJDDMNIP_02006" class="clusterblast-orf" id="subclusterblast-1_q0_0_all"  />
<polygon points="14,40 231,40 236,35 231,30 14,30 14,40 " style="fill:white; stroke-width:1; stroke:black; " description="&lt;b&gt;GJDDMNIP_02007&lt;/b&gt;&lt;br&gt;Negative regulator of genetic competence ClpC/MecB&lt;br&gt;Location: 177898 - 180760" locus_tag="GJDDMNIP_02007" class="clusterblast-orf" id="subclusterblast-1_q1_0_all"  />
<polygon points="241,40 285,40 290,35 285,30 241,30 241,40 " style="fill:white; stroke-width:1; stroke:black; " description="&lt;b&gt;GJDDMNIP_02008&lt;/b&gt;&lt;br&gt;hypothetical protein&lt;br&gt;Location: 180828 - 181461" locus_tag="GJDDMNIP_02008" class="clusterblast-orf" id="subclusterblast-1_q2_0_all"  />
<polygon points="295,40 369,40 374,35 369,30 295,30 295,40 " style="fill:white; stroke-width:1; stroke:black; " description="&lt;b&gt;GJDDMNIP_02009&lt;/b&gt;&lt;br&gt;Dye-decolorizing peroxidase YfeX&lt;br&gt;Location: 181523 - 182546" locus_tag="GJDDMNIP_02009" class="clusterblast-orf" id="subclusterblast-1_q3_0_all"  />
<polygon points="374,40 430,40 435,35 430,30 374,30 374,40 " style="fill:white; stroke-width:1; stroke:black; " description="&lt;b&gt;GJDDMNIP_02010&lt;/b&gt;&lt;br&gt;Linocin-M18&lt;br&gt;Location: 182547 - 183345" locus_tag="GJDDMNIP_02010" class="clusterblast-orf" id="subclusterblast-1_q4_0_all"  />
<polygon points="436,40 500,40 505,35 500,30 436,30 436,40 " style="fill:white; stroke-width:1; stroke:black; " description="&lt;b&gt;GJDDMNIP_02011&lt;/b&gt;&lt;br&gt;hypothetical protein&lt;br&gt;Location: 183351 - 184242" locus_tag="GJDDMNIP_02011" class="clusterblast-orf" id="subclusterblast-1_q5_0_all"  />
<polygon points="528,40 623,40 628,35 623,30 528,30 528,40 " style="fill:white; stroke-width:1; stroke:black; " description="&lt;b&gt;GJDDMNIP_02012&lt;/b&gt;&lt;br&gt;Aliphatic amidase expression-regulating protein&lt;br&gt;Location: 184547 - 185834" locus_tag="GJDDMNIP_02012" class="clusterblast-orf" id="subclusterblast-1_q6_0_all"  />
<polygon points="632,40 775,40 780,35 775,30 632,30 632,40 " style="fill:white; stroke-width:1; stroke:black; " description="&lt;b&gt;GJDDMNIP_02013&lt;/b&gt;&lt;br&gt;hypothetical protein&lt;br&gt;Location: 185888 - 187802" locus_tag="GJDDMNIP_02013" class="clusterblast-orf" id="subclusterblast-1_q7_0_all"  />
</g>
</svg>
