<svg xmlns="http://www.w3.org/2000/svg" xmlns:xlink="http://www.w3.org/1999/xlink" version="1.1" x="0" y="0" height="230" width="800" viewBox="0 0 800 230" preserveAspectRatio="none"  >
<g label="Query sequence" class="clusterblast-cluster"  >
<text x="5" y="20" class="clusterblast-acc"  >
Query sequence</text>
<line x1="10" y1="35" x2="778.0" y2="35" style="stroke-width:1; stroke:grey; "  />
<polygon points="21,40 71,40 76,35 71,30 21,30 21,40 " style="fill:#d81515; stroke-width:1; stroke:black; " description="&lt;b&gt;OLGNLAKD_00740&lt;/b&gt;&lt;br&gt;Inosine-5'-monophosphate dehydrogenase&lt;br&gt;Location: 273947 - 275396" locus_tag="OLGNLAKD_00740" class="clusterblast-orf" id="dummy-1_q0_0_all"  />
<polygon points="82,35 87,30 123,30 123,40 87,40 82,35 " style="fill:#56d815; stroke-width:1; stroke:black; " description="&lt;b&gt;OLGNLAKD_00741&lt;/b&gt;&lt;br&gt;dCTP deaminase, dUMP-forming&lt;br&gt;Location: 275554 - 276646" locus_tag="OLGNLAKD_00741" class="clusterblast-orf" id="dummy-1_q1_0_all"  />
<polygon points="132,35 137,30 218,30 218,40 137,40 132,35 " style="fill:#1597d8; stroke-width:1; stroke:black; " description="&lt;b&gt;OLGNLAKD_00743&lt;/b&gt;&lt;br&gt;hypothetical protein&lt;br&gt;Location: 276884 - 279158" locus_tag="OLGNLAKD_00743" class="clusterblast-orf" id="dummy-1_q2_0_all"  />
<polygon points="221,35 226,30 232,30 232,40 226,40 221,35 " style="fill:#9715d8; stroke-width:1; stroke:black; " description="&lt;b&gt;OLGNLAKD_00744&lt;/b&gt;&lt;br&gt;Integration host factor subunit alpha&lt;br&gt;Location: 279213 - 279516" locus_tag="OLGNLAKD_00744" class="clusterblast-orf" id="dummy-1_q3_0_all"  />
<polygon points="236,35 241,30 273,30 273,40 241,40 236,35 " style="fill:#d85615; stroke-width:1; stroke:black; " description="&lt;b&gt;OLGNLAKD_00745&lt;/b&gt;&lt;br&gt;3-oxoacyl-[acyl-carrier-protein] synthase 3&lt;br&gt;Location: 279627 - 280602" locus_tag="OLGNLAKD_00745" class="clusterblast-orf" id="dummy-1_q4_0_all"  />
<polygon points="273,35 278,30 312,30 312,40 278,40 273,35 " style="fill:#15d815; stroke-width:1; stroke:black; " description="&lt;b&gt;OLGNLAKD_00746&lt;/b&gt;&lt;br&gt;Phosphate acyltransferase&lt;br&gt;Location: 280598 - 281639" locus_tag="OLGNLAKD_00746" class="clusterblast-orf" id="dummy-1_q5_0_all"  />
<polygon points="319,35 324,30 327,30 327,40 324,40 319,35 " style="fill:#1556d8; stroke-width:1; stroke:black; " description="&lt;b&gt;OLGNLAKD_00747&lt;/b&gt;&lt;br&gt;hypothetical protein&lt;br&gt;Location: 281813 - 282020" locus_tag="OLGNLAKD_00747" class="clusterblast-orf" id="dummy-1_q6_0_all"  />
<polygon points="334,35 339,30 356,30 356,40 339,40 334,35 " style="fill:#d815d8; stroke-width:1; stroke:black; " description="&lt;b&gt;OLGNLAKD_00748&lt;/b&gt;&lt;br&gt;hypothetical protein&lt;br&gt;Location: 282218 - 282785" locus_tag="OLGNLAKD_00748" class="clusterblast-orf" id="dummy-1_q7_0_all"  />
<polygon points="361,40 373,40 378,35 373,30 361,30 361,40 " style="fill:#d89715; stroke-width:1; stroke:black; " description="&lt;b&gt;OLGNLAKD_00749&lt;/b&gt;&lt;br&gt;hypothetical protein&lt;br&gt;Location: 282924 - 283362" locus_tag="OLGNLAKD_00749" class="clusterblast-orf" id="dummy-1_q8_0_all"  />
<polygon points="384,40 408,40 413,35 408,30 384,30 384,40 " style="fill:#15d856; stroke-width:1; stroke:black; " description="&lt;b&gt;OLGNLAKD_00750&lt;/b&gt;&lt;br&gt;hypothetical protein&lt;br&gt;Location: 283519 - 284278" locus_tag="OLGNLAKD_00750" class="clusterblast-orf" id="dummy-1_q9_0_all"  />
<polygon points="419,40 482,40 487,35 482,30 419,30 419,40 " style="fill:#1515d8; stroke-width:1; stroke:black; " description="&lt;b&gt;OLGNLAKD_00751&lt;/b&gt;&lt;br&gt;ABC transporter ATP-binding protein uup&lt;br&gt;Location: 284440 - 286255" locus_tag="OLGNLAKD_00751" class="clusterblast-orf" id="dummy-1_q10_0_all"  />
<polygon points="491,40 495,40 500,35 495,30 491,30 491,40 " style="fill:#d81597; stroke-width:1; stroke:black; " description="&lt;b&gt;OLGNLAKD_00752&lt;/b&gt;&lt;br&gt;hypothetical protein&lt;br&gt;Location: 286344 - 286599" locus_tag="OLGNLAKD_00752" class="clusterblast-orf" id="dummy-1_q11_0_all"  />
<polygon points="504,40 541,40 546,35 541,30 504,30 504,40 " style="fill:#d8d815; stroke-width:1; stroke:black; " description="&lt;b&gt;OLGNLAKD_00753&lt;/b&gt;&lt;br&gt;Succinyl-CoA--L-malate CoA-transferase beta subunit&lt;br&gt;Location: 286688 - 287792" locus_tag="OLGNLAKD_00753" class="clusterblast-orf" id="dummy-1_q12_0_all"  />
<polygon points="548,35 553,30 576,30 576,40 553,40 548,35 " style="fill:#15d897; stroke-width:1; stroke:black; " description="&lt;b&gt;OLGNLAKD_00754&lt;/b&gt;&lt;br&gt;hypothetical protein&lt;br&gt;Location: 287853 - 288600" locus_tag="OLGNLAKD_00754" class="clusterblast-orf" id="dummy-1_q13_0_all"  />
<polygon points="582,40 620,40 625,35 620,30 582,30 582,40 " style="fill:#5615d8; stroke-width:1; stroke:black; " description="&lt;b&gt;OLGNLAKD_00755&lt;/b&gt;&lt;br&gt;Aspartate aminotransferase&lt;br&gt;Location: 288749 - 289889" locus_tag="OLGNLAKD_00755" class="clusterblast-orf" id="dummy-1_q14_0_all"  />
<polygon points="627,40 668,40 673,35 668,30 627,30 627,40 " style="fill:#d81556; stroke-width:1; stroke:black; " description="&lt;b&gt;OLGNLAKD_00756&lt;/b&gt;&lt;br&gt;N-acetylmuramoyl-L-alanine amidase AmiC&lt;br&gt;Location: 289944 - 291162" locus_tag="OLGNLAKD_00756" class="clusterblast-orf" id="dummy-1_q15_0_all"  />
<polygon points="685,40 691,40 696,35 691,30 685,30 685,40 " style="fill:#97d815; stroke-width:1; stroke:black; " description="&lt;b&gt;OLGNLAKD_00757&lt;/b&gt;&lt;br&gt;Inner membrane protein YjcH&lt;br&gt;Location: 291457 - 291751" locus_tag="OLGNLAKD_00757" class="clusterblast-orf" id="dummy-1_q16_0_all"  />
<polygon points="696,40 754,40 759,35 754,30 696,30 696,40 " style="fill:#15d8d8; stroke-width:1; stroke:black; " description="&lt;b&gt;OLGNLAKD_00758&lt;/b&gt;&lt;br&gt;Cation/acetate symporter ActP&lt;br&gt;Location: 291759 - 293415" locus_tag="OLGNLAKD_00758" class="clusterblast-orf" id="dummy-1_q17_0_all"  />
</g>
<g label="NZ_JWLH01000003" description="NZ_JWLH01000003 (220030-240771): Leisingera sp. ANG-S5 contig 3, whole genome... (45% of genes show similarity), hserlactone" class="clusterblast-cluster"  >
<text x="5" y="70" class="clusterblast-acc"  >
<a xlink:href="https://antismash-db.secondarymetabolites.org/area.html?record=NZ_JWLH01000003&amp;start=220030&amp;end=240771" target="_blank">NZ_JWLH01000003 (220030-240771)</a>: Leisingera sp. ANG-S5 contig 3, whole genome... (45% of genes show similarity), hserlactone</text>
<line x1="10" y1="85" x2="778.0" y2="85" style="stroke-width:1; stroke:grey; "  />
</g>
<g id="a1_000"  >
<polygon points="0,90 2,90 7,85 2,80 0,80 0,90 " style="fill:white; stroke-width:1; stroke:black; " description="&lt;b&gt;RA25_RS05775&lt;/b&gt;&lt;br&gt;hypothetical protein&lt;br&gt;Location: 220102 - 220299" locus_tag="RA25_RS05775" class="clusterblast-orf" id="dummy-1_h1_10_0"  />
</g>
<g id="a1_001"  >
<polygon points="7,85 12,80 51,80 51,90 12,90 7,85 " style="fill:white; stroke-width:1; stroke:black; " description="&lt;b&gt;RA25_RS05780&lt;/b&gt;&lt;br&gt;MFS transporter&lt;br&gt;Location: 220292 - 221449" locus_tag="RA25_RS05780" class="clusterblast-orf" id="dummy-1_h1_10_1"  />
</g>
<g id="a1_002"  >
<polygon points="53,90 68,90 73,85 68,80 53,80 53,90 " style="fill:white; stroke-width:1; stroke:black; " description="&lt;b&gt;RA25_RS05785&lt;/b&gt;&lt;br&gt;Lrp/AsnC family transcriptional regulator&lt;br&gt;Location: 221521 - 222054" locus_tag="RA25_RS05785" class="clusterblast-orf" id="dummy-1_h1_10_2"  />
</g>
<g id="a1_003"  >
<polygon points="79,85 84,80 120,80 120,90 84,90 79,85 " style="fill:#56d815; stroke-width:1; stroke:black; " description="&lt;b&gt;RA25_RS05790&lt;/b&gt;&lt;br&gt;2'-deoxycytidine 5'-triphosphate deaminase&lt;br&gt;Location: 222206 - 223285&lt;br&gt;&lt;br&gt;&lt;b&gt;BlastP hit with OLGNLAKD_00741&lt;/b&gt;&lt;br&gt;Percentage identity: 77&lt;br&gt;Percentage coverage: 99&lt;br&gt;BLAST bit score: 556&lt;br&gt;E-value: 6.55e-199" locus_tag="RA25_RS05790" class="clusterblast-orf" id="dummy-1_h1_10_3"  />
</g>
<g id="a1_004"  >
<polygon points="207,85 212,80 218,80 218,90 212,90 207,85 " style="fill:#1597d8; stroke-width:1; stroke:black; " description="&lt;b&gt;RA25_RS05800&lt;/b&gt;&lt;br&gt;MerR family transcriptional regulator&lt;br&gt;Location: 225588 - 225863&lt;br&gt;&lt;br&gt;&lt;b&gt;BlastP hit with OLGNLAKD_00743&lt;/b&gt;&lt;br&gt;Percentage identity: 66&lt;br&gt;Percentage coverage: 11&lt;br&gt;BLAST bit score: 116&lt;br&gt;E-value: 6.25e-29" locus_tag="RA25_RS05800" class="clusterblast-orf" id="dummy-1_h1_10_4"  />
</g>
<g id="a1_005"  >
<polygon points="218,85 223,80 230,80 230,90 223,90 218,85 " style="fill:#9715d8; stroke-width:1; stroke:black; " description="&lt;b&gt;RA25_RS05805&lt;/b&gt;&lt;br&gt;integration host factor subunit alpha&lt;br&gt;Location: 225880 - 226182&lt;br&gt;&lt;br&gt;&lt;b&gt;BlastP hit with OLGNLAKD_00744&lt;/b&gt;&lt;br&gt;Percentage identity: 89&lt;br&gt;Percentage coverage: 100&lt;br&gt;BLAST bit score: 178&lt;br&gt;E-value: 5.99e-58" locus_tag="RA25_RS05805" class="clusterblast-orf" id="dummy-1_h1_10_5"  />
</g>
<g id="a1_006"  >
<polygon points="234,85 239,80 271,80 271,90 239,90 234,85 " style="fill:#d85615; stroke-width:1; stroke:black; " description="&lt;b&gt;RA25_RS05810&lt;/b&gt;&lt;br&gt;ketoacyl-ACP synthase III&lt;br&gt;Location: 226284 - 227255&lt;br&gt;&lt;br&gt;&lt;b&gt;BlastP hit with OLGNLAKD_00745&lt;/b&gt;&lt;br&gt;Percentage identity: 78&lt;br&gt;Percentage coverage: 100&lt;br&gt;BLAST bit score: 488&lt;br&gt;E-value: 1.67e-173" locus_tag="RA25_RS05810" class="clusterblast-orf" id="dummy-1_h1_10_6"  />
</g>
<g id="a1_007"  >
<polygon points="271,85 276,80 313,80 313,90 276,90 271,85 " style="fill:#15d815; stroke-width:1; stroke:black; " description="&lt;b&gt;RA25_RS05815&lt;/b&gt;&lt;br&gt;phosphate acyltransferase PlsX&lt;br&gt;Location: 227274 - 228386&lt;br&gt;&lt;br&gt;&lt;b&gt;BlastP hit with OLGNLAKD_00746&lt;/b&gt;&lt;br&gt;Percentage identity: 66&lt;br&gt;Percentage coverage: 98&lt;br&gt;BLAST bit score: 419&lt;br&gt;E-value: 4.81e-145" locus_tag="RA25_RS05815" class="clusterblast-orf" id="dummy-1_h1_10_7"  />
</g>
<g id="a1_008"  >
<polygon points="315,85 320,80 323,80 323,90 320,90 315,85 " style="fill:#1556d8; stroke-width:1; stroke:black; " description="&lt;b&gt;RA25_RS05820&lt;/b&gt;&lt;br&gt;50S ribosomal protein L32&lt;br&gt;Location: 228424 - 228630&lt;br&gt;&lt;br&gt;&lt;b&gt;BlastP hit with OLGNLAKD_00747&lt;/b&gt;&lt;br&gt;Percentage identity: 74&lt;br&gt;Percentage coverage: 100&lt;br&gt;BLAST bit score: 110&lt;br&gt;E-value: 3.11e-32" locus_tag="RA25_RS05820" class="clusterblast-orf" id="dummy-1_h1_10_8"  />
</g>
<g id="a1_009"  >
<polygon points="331,85 336,80 352,80 352,90 336,90 331,85 " style="fill:#d815d8; stroke-width:1; stroke:black; " description="&lt;b&gt;RA25_RS05825&lt;/b&gt;&lt;br&gt;DUF177 domain-containing protein&lt;br&gt;Location: 228855 - 229391&lt;br&gt;&lt;br&gt;&lt;b&gt;BlastP hit with OLGNLAKD_00748&lt;/b&gt;&lt;br&gt;Percentage identity: 47&lt;br&gt;Percentage coverage: 90&lt;br&gt;BLAST bit score: 135&lt;br&gt;E-value: 1.91e-38" locus_tag="RA25_RS05825" class="clusterblast-orf" id="dummy-1_h1_10_9"  />
</g>
<g id="a1_0010"  >
<polygon points="355,90 368,90 373,85 368,80 355,80 355,90 " style="fill:#d89715; stroke-width:1; stroke:black; " description="&lt;b&gt;RA25_RS05830&lt;/b&gt;&lt;br&gt;outer membrane protein assembly factor BamE&lt;br&gt;Location: 229493 - 229966&lt;br&gt;&lt;br&gt;&lt;b&gt;BlastP hit with OLGNLAKD_00749&lt;/b&gt;&lt;br&gt;Percentage identity: 45&lt;br&gt;Percentage coverage: 97&lt;br&gt;BLAST bit score: 132&lt;br&gt;E-value: 2.59e-38" locus_tag="RA25_RS05830" class="clusterblast-orf" id="dummy-1_h1_10_10"  />
</g>
<g id="a1_0011"  >
<polygon points="376,90 399,90 404,85 399,80 376,80 376,90 " style="fill:#15d856; stroke-width:1; stroke:black; " description="&lt;b&gt;RA25_RS05835&lt;/b&gt;&lt;br&gt;GNAT family N-acetyltransferase&lt;br&gt;Location: 230031 - 230771&lt;br&gt;&lt;br&gt;&lt;b&gt;BlastP hit with OLGNLAKD_00750&lt;/b&gt;&lt;br&gt;Percentage identity: 58&lt;br&gt;Percentage coverage: 99&lt;br&gt;BLAST bit score: 273&lt;br&gt;E-value: 1.01e-90" locus_tag="RA25_RS05835" class="clusterblast-orf" id="dummy-1_h1_10_11"  />
</g>
<g id="a1_0012"  >
<polygon points="406,90 470,90 475,85 470,80 406,80 406,90 " style="fill:#1515d8; stroke-width:1; stroke:black; " description="&lt;b&gt;RA25_RS05840&lt;/b&gt;&lt;br&gt;ATP-binding cassette domain-containing protein&lt;br&gt;Location: 230841 - 232649&lt;br&gt;&lt;br&gt;&lt;b&gt;BlastP hit with OLGNLAKD_00751&lt;/b&gt;&lt;br&gt;Percentage identity: 71&lt;br&gt;Percentage coverage: 100&lt;br&gt;BLAST bit score: 822&lt;br&gt;E-value: 4.15e-296" locus_tag="RA25_RS05840" class="clusterblast-orf" id="dummy-1_h1_10_12"  />
</g>
<g id="a1_0013"  >
<polygon points="480,85 485,80 501,80 501,90 485,90 480,85 " style="fill:white; stroke-width:1; stroke:black; " description="&lt;b&gt;RA25_RS05845&lt;/b&gt;&lt;br&gt;sugar O-acetyltransferase&lt;br&gt;Location: 232784 - 233341" locus_tag="RA25_RS05845" class="clusterblast-orf" id="dummy-1_h1_10_13"  />
</g>
<g id="a1_0014"  >
<polygon points="507,85 512,80 518,80 518,90 512,90 507,85 " style="fill:white; stroke-width:1; stroke:black; " description="&lt;b&gt;RA25_RS05850&lt;/b&gt;&lt;br&gt;antibiotic biosynthesis monooxygenase&lt;br&gt;Location: 233494 - 233781" locus_tag="RA25_RS05850" class="clusterblast-orf" id="dummy-1_h1_10_14"  />
</g>
<g id="a1_0015"  >
<polygon points="522,90 530,90 535,85 530,80 522,80 522,90 " style="fill:white; stroke-width:1; stroke:black; " description="&lt;b&gt;RA25_RS05855&lt;/b&gt;&lt;br&gt;helix-turn-helix transcriptional regulator&lt;br&gt;Location: 233877 - 234233" locus_tag="RA25_RS05855" class="clusterblast-orf" id="dummy-1_h1_10_15"  />
</g>
<g id="a1_0016"  >
<polygon points="544,85 549,80 573,80 573,90 549,90 544,85 " style="fill:white; stroke-width:1; stroke:black; " description="&lt;b&gt;RA25_RS05860&lt;/b&gt;&lt;br&gt;SDR family NAD(P)-dependent oxidoreductase&lt;br&gt;Location: 234475 - 235230" locus_tag="RA25_RS05860" class="clusterblast-orf" id="dummy-1_h1_10_16"  />
</g>
<g id="a1_0017"  >
<polygon points="577,85 582,80 611,80 611,90 582,90 577,85 " style="fill:white; stroke-width:1; stroke:black; " description="&lt;b&gt;RA25_RS05865&lt;/b&gt;&lt;br&gt;GNAT family N-acetyltransferase&lt;br&gt;Location: 235331 - 236245" locus_tag="RA25_RS05865" class="clusterblast-orf" id="dummy-1_h1_10_17"  />
</g>
<g id="a1_0018"  >
<polygon points="630,85 635,80 677,80 677,90 635,90 630,85 " style="fill:white; stroke-width:1; stroke:black; " description="&lt;b&gt;RA25_RS05870&lt;/b&gt;&lt;br&gt;tyrosine--tRNA ligase&lt;br&gt;Location: 236727 - 237983" locus_tag="RA25_RS05870" class="clusterblast-orf" id="dummy-1_h1_10_18"  />
</g>
<g id="a1_0019"  >
<polygon points="683,90 720,90 725,85 720,80 683,80 683,90 " style="fill:white; stroke-width:1; stroke:black; " description="&lt;b&gt;RA25_RS05875&lt;/b&gt;&lt;br&gt;anhydro-N-acetylmuramic acid kinase&lt;br&gt;Location: 238127 - 239236" locus_tag="RA25_RS05875" class="clusterblast-orf" id="dummy-1_h1_10_19"  />
</g>
<g id="a1_0020"  >
<polygon points="728,85 733,80 762,80 762,90 733,90 728,85 " style="fill:white; stroke-width:1; stroke:black; " description="&lt;b&gt;RA25_RS05880&lt;/b&gt;&lt;br&gt;fatty acid desaturase&lt;br&gt;Location: 239318 - 240220" locus_tag="RA25_RS05880" class="clusterblast-orf" id="dummy-1_h1_10_20"  />
</g>
<g id="a1_0021"  >
<polygon points="764,85 769,80 780,80 780,90 769,90 764,85 " style="fill:white; stroke-width:1; stroke:black; " description="&lt;b&gt;RA25_RS05885&lt;/b&gt;&lt;br&gt;cupin domain-containing protein&lt;br&gt;Location: 240265 - 240684" locus_tag="RA25_RS05885" class="clusterblast-orf" id="dummy-1_h1_10_21"  />
</g>
</svg>
