<svg xmlns="http://www.w3.org/2000/svg" xmlns:xlink="http://www.w3.org/1999/xlink" version="1.1" x="0" y="0" height="230" width="800" viewBox="0 0 800 230" preserveAspectRatio="none"  >
<g label="Query sequence" class="clusterblast-cluster"  >
<text x="5" y="20" class="clusterblast-acc"  >
Query sequence</text>
<line x1="10" y1="35" x2="778.0" y2="35" style="stroke-width:1; stroke:grey; "  />
<polygon points="3,40 56,40 61,35 56,30 3,30 3,40 " style="fill:#d81515; stroke-width:1; stroke:black; " description="&lt;b&gt;OLGNLAKD_00740&lt;/b&gt;&lt;br&gt;Inosine-5'-monophosphate dehydrogenase&lt;br&gt;Location: 273947 - 275396" locus_tag="OLGNLAKD_00740" class="clusterblast-orf" id="dummy-1_q0_0_all"  />
<polygon points="67,35 72,30 110,30 110,40 72,40 67,35 " style="fill:#56d815; stroke-width:1; stroke:black; " description="&lt;b&gt;OLGNLAKD_00741&lt;/b&gt;&lt;br&gt;dCTP deaminase, dUMP-forming&lt;br&gt;Location: 275554 - 276646" locus_tag="OLGNLAKD_00741" class="clusterblast-orf" id="dummy-1_q1_0_all"  />
<polygon points="120,35 125,30 210,30 210,40 125,40 120,35 " style="fill:#1597d8; stroke-width:1; stroke:black; " description="&lt;b&gt;OLGNLAKD_00743&lt;/b&gt;&lt;br&gt;hypothetical protein&lt;br&gt;Location: 276884 - 279158" locus_tag="OLGNLAKD_00743" class="clusterblast-orf" id="dummy-1_q2_0_all"  />
<polygon points="212,35 217,30 224,30 224,40 217,40 212,35 " style="fill:#9715d8; stroke-width:1; stroke:black; " description="&lt;b&gt;OLGNLAKD_00744&lt;/b&gt;&lt;br&gt;Integration host factor subunit alpha&lt;br&gt;Location: 279213 - 279516" locus_tag="OLGNLAKD_00744" class="clusterblast-orf" id="dummy-1_q3_0_all"  />
<polygon points="229,35 234,30 268,30 268,40 234,40 229,35 " style="fill:#d85615; stroke-width:1; stroke:black; " description="&lt;b&gt;OLGNLAKD_00745&lt;/b&gt;&lt;br&gt;3-oxoacyl-[acyl-carrier-protein] synthase 3&lt;br&gt;Location: 279627 - 280602" locus_tag="OLGNLAKD_00745" class="clusterblast-orf" id="dummy-1_q4_0_all"  />
<polygon points="267,35 272,30 309,30 309,40 272,40 267,35 " style="fill:#15d815; stroke-width:1; stroke:black; " description="&lt;b&gt;OLGNLAKD_00746&lt;/b&gt;&lt;br&gt;Phosphate acyltransferase&lt;br&gt;Location: 280598 - 281639" locus_tag="OLGNLAKD_00746" class="clusterblast-orf" id="dummy-1_q5_0_all"  />
<polygon points="316,35 321,30 324,30 324,40 321,40 316,35 " style="fill:#1556d8; stroke-width:1; stroke:black; " description="&lt;b&gt;OLGNLAKD_00747&lt;/b&gt;&lt;br&gt;hypothetical protein&lt;br&gt;Location: 281813 - 282020" locus_tag="OLGNLAKD_00747" class="clusterblast-orf" id="dummy-1_q6_0_all"  />
<polygon points="332,35 337,30 354,30 354,40 337,40 332,35 " style="fill:#d815d8; stroke-width:1; stroke:black; " description="&lt;b&gt;OLGNLAKD_00748&lt;/b&gt;&lt;br&gt;hypothetical protein&lt;br&gt;Location: 282218 - 282785" locus_tag="OLGNLAKD_00748" class="clusterblast-orf" id="dummy-1_q7_0_all"  />
<polygon points="360,40 372,40 377,35 372,30 360,30 360,40 " style="fill:#d89715; stroke-width:1; stroke:black; " description="&lt;b&gt;OLGNLAKD_00749&lt;/b&gt;&lt;br&gt;hypothetical protein&lt;br&gt;Location: 282924 - 283362" locus_tag="OLGNLAKD_00749" class="clusterblast-orf" id="dummy-1_q8_0_all"  />
<polygon points="383,40 409,40 414,35 409,30 383,30 383,40 " style="fill:#15d856; stroke-width:1; stroke:black; " description="&lt;b&gt;OLGNLAKD_00750&lt;/b&gt;&lt;br&gt;hypothetical protein&lt;br&gt;Location: 283519 - 284278" locus_tag="OLGNLAKD_00750" class="clusterblast-orf" id="dummy-1_q9_0_all"  />
<polygon points="420,40 487,40 492,35 487,30 420,30 420,40 " style="fill:#1515d8; stroke-width:1; stroke:black; " description="&lt;b&gt;OLGNLAKD_00751&lt;/b&gt;&lt;br&gt;ABC transporter ATP-binding protein uup&lt;br&gt;Location: 284440 - 286255" locus_tag="OLGNLAKD_00751" class="clusterblast-orf" id="dummy-1_q10_0_all"  />
<polygon points="496,40 501,40 506,35 501,30 496,30 496,40 " style="fill:#d81597; stroke-width:1; stroke:black; " description="&lt;b&gt;OLGNLAKD_00752&lt;/b&gt;&lt;br&gt;hypothetical protein&lt;br&gt;Location: 286344 - 286599" locus_tag="OLGNLAKD_00752" class="clusterblast-orf" id="dummy-1_q11_0_all"  />
<polygon points="509,40 548,40 553,35 548,30 509,30 509,40 " style="fill:#d8d815; stroke-width:1; stroke:black; " description="&lt;b&gt;OLGNLAKD_00753&lt;/b&gt;&lt;br&gt;Succinyl-CoA--L-malate CoA-transferase beta subunit&lt;br&gt;Location: 286688 - 287792" locus_tag="OLGNLAKD_00753" class="clusterblast-orf" id="dummy-1_q12_0_all"  />
<polygon points="556,35 561,30 585,30 585,40 561,40 556,35 " style="fill:#15d897; stroke-width:1; stroke:black; " description="&lt;b&gt;OLGNLAKD_00754&lt;/b&gt;&lt;br&gt;hypothetical protein&lt;br&gt;Location: 287853 - 288600" locus_tag="OLGNLAKD_00754" class="clusterblast-orf" id="dummy-1_q13_0_all"  />
<polygon points="591,40 632,40 637,35 632,30 591,30 591,40 " style="fill:#5615d8; stroke-width:1; stroke:black; " description="&lt;b&gt;OLGNLAKD_00755&lt;/b&gt;&lt;br&gt;Aspartate aminotransferase&lt;br&gt;Location: 288749 - 289889" locus_tag="OLGNLAKD_00755" class="clusterblast-orf" id="dummy-1_q14_0_all"  />
<polygon points="639,40 682,40 687,35 682,30 639,30 639,40 " style="fill:#d81556; stroke-width:1; stroke:black; " description="&lt;b&gt;OLGNLAKD_00756&lt;/b&gt;&lt;br&gt;N-acetylmuramoyl-L-alanine amidase AmiC&lt;br&gt;Location: 289944 - 291162" locus_tag="OLGNLAKD_00756" class="clusterblast-orf" id="dummy-1_q15_0_all"  />
<polygon points="699,40 706,40 711,35 706,30 699,30 699,40 " style="fill:#97d815; stroke-width:1; stroke:black; " description="&lt;b&gt;OLGNLAKD_00757&lt;/b&gt;&lt;br&gt;Inner membrane protein YjcH&lt;br&gt;Location: 291457 - 291751" locus_tag="OLGNLAKD_00757" class="clusterblast-orf" id="dummy-1_q16_0_all"  />
<polygon points="711,40 772,40 777,35 772,30 711,30 711,40 " style="fill:#15d8d8; stroke-width:1; stroke:black; " description="&lt;b&gt;OLGNLAKD_00758&lt;/b&gt;&lt;br&gt;Cation/acetate symporter ActP&lt;br&gt;Location: 291759 - 293415" locus_tag="OLGNLAKD_00758" class="clusterblast-orf" id="dummy-1_q17_0_all"  />
</g>
<g label="NZ_QJTK01000001" description="NZ_QJTK01000001 (524888-545647): Rhodobacter viridis strain JA737 Ga0191652 1... (100% of genes show similarity), hserlactone" class="clusterblast-cluster"  >
<text x="5" y="70" class="clusterblast-acc"  >
<a xlink:href="https://antismash-db.secondarymetabolites.org/area.html?record=NZ_QJTK01000001&amp;start=524888&amp;end=545647" target="_blank">NZ_QJTK01000001 (524888-545647)</a>: Rhodobacter viridis strain JA737 Ga0191652 1... (100% of genes show similarity), hserlactone</text>
<line x1="10" y1="85" x2="778.0" y2="85" style="stroke-width:1; stroke:grey; "  />
</g>
<g id="a1_000"  >
<polygon points="0,90 52,90 57,85 52,80 0,80 0,90 " style="fill:#d81515; stroke-width:1; stroke:black; " description="&lt;b&gt;C8J30_RS02605&lt;/b&gt;&lt;br&gt;IMP dehydrogenase&lt;br&gt;Location: 545408 - 543960&lt;br&gt;&lt;br&gt;&lt;b&gt;BlastP hit with OLGNLAKD_00740&lt;/b&gt;&lt;br&gt;Percentage identity: 95&lt;br&gt;Percentage coverage: 100&lt;br&gt;BLAST bit score: 881&lt;br&gt;E-value: 0.0" locus_tag="C8J30_RS02605" class="clusterblast-orf" id="dummy-1_h1_1_0"  />
</g>
<g id="a1_001"  >
<polygon points="61,85 66,80 104,80 104,90 66,90 61,85 " style="fill:#56d815; stroke-width:1; stroke:black; " description="&lt;b&gt;C8J30_RS02600&lt;/b&gt;&lt;br&gt;2'-deoxycytidine 5'-triphosphate deaminase&lt;br&gt;Location: 543867 - 542791&lt;br&gt;&lt;br&gt;&lt;b&gt;BlastP hit with OLGNLAKD_00741&lt;/b&gt;&lt;br&gt;Percentage identity: 93&lt;br&gt;Percentage coverage: 100&lt;br&gt;BLAST bit score: 667&lt;br&gt;E-value: 4.25e-243" locus_tag="C8J30_RS02600" class="clusterblast-orf" id="dummy-1_h1_1_1"  />
</g>
<g id="a1_002"  >
<polygon points="206,85 211,80 217,80 217,90 211,90 206,85 " style="fill:#1597d8; stroke-width:1; stroke:black; " description="&lt;b&gt;C8J30_RS02585&lt;/b&gt;&lt;br&gt;MerR family transcriptional regulator&lt;br&gt;Location: 540200 - 539931&lt;br&gt;&lt;br&gt;&lt;b&gt;BlastP hit with OLGNLAKD_00743&lt;/b&gt;&lt;br&gt;Percentage identity: 98&lt;br&gt;Percentage coverage: 12&lt;br&gt;BLAST bit score: 173&lt;br&gt;E-value: 1.99e-49" locus_tag="C8J30_RS02585" class="clusterblast-orf" id="dummy-1_h1_1_2"  />
</g>
<g id="a1_003"  >
<polygon points="219,85 224,80 231,80 231,90 224,90 219,85 " style="fill:#9715d8; stroke-width:1; stroke:black; " description="&lt;b&gt;C8J30_RS02580&lt;/b&gt;&lt;br&gt;integration host factor subunit alpha&lt;br&gt;Location: 539876 - 539574&lt;br&gt;&lt;br&gt;&lt;b&gt;BlastP hit with OLGNLAKD_00744&lt;/b&gt;&lt;br&gt;Percentage identity: 99&lt;br&gt;Percentage coverage: 100&lt;br&gt;BLAST bit score: 193&lt;br&gt;E-value: 4.73e-64" locus_tag="C8J30_RS02580" class="clusterblast-orf" id="dummy-1_h1_1_3"  />
</g>
<g id="a1_004"  >
<polygon points="236,85 241,80 275,80 275,90 241,90 236,85 " style="fill:#d85615; stroke-width:1; stroke:black; " description="&lt;b&gt;C8J30_RS02575&lt;/b&gt;&lt;br&gt;ketoacyl-ACP synthase III&lt;br&gt;Location: 539462 - 538488&lt;br&gt;&lt;br&gt;&lt;b&gt;BlastP hit with OLGNLAKD_00745&lt;/b&gt;&lt;br&gt;Percentage identity: 94&lt;br&gt;Percentage coverage: 100&lt;br&gt;BLAST bit score: 588&lt;br&gt;E-value: 4.36e-213" locus_tag="C8J30_RS02575" class="clusterblast-orf" id="dummy-1_h1_1_4"  />
</g>
<g id="a1_005"  >
<polygon points="274,85 279,80 318,80 318,90 279,90 274,85 " style="fill:#15d815; stroke-width:1; stroke:black; " description="&lt;b&gt;C8J30_RS02570&lt;/b&gt;&lt;br&gt;phosphate acyltransferase PlsX&lt;br&gt;Location: 538491 - 537388&lt;br&gt;&lt;br&gt;&lt;b&gt;BlastP hit with OLGNLAKD_00746&lt;/b&gt;&lt;br&gt;Percentage identity: 94&lt;br&gt;Percentage coverage: 100&lt;br&gt;BLAST bit score: 630&lt;br&gt;E-value: 1.28e-228" locus_tag="C8J30_RS02570" class="clusterblast-orf" id="dummy-1_h1_1_5"  />
</g>
<g id="a1_006"  >
<polygon points="323,85 328,80 331,80 331,90 328,90 323,85 " style="fill:#1556d8; stroke-width:1; stroke:black; " description="&lt;b&gt;C8J30_RS02565&lt;/b&gt;&lt;br&gt;50S ribosomal protein L32&lt;br&gt;Location: 537276 - 537070&lt;br&gt;&lt;br&gt;&lt;b&gt;BlastP hit with OLGNLAKD_00747&lt;/b&gt;&lt;br&gt;Percentage identity: 99&lt;br&gt;Percentage coverage: 100&lt;br&gt;BLAST bit score: 140&lt;br&gt;E-value: 3.86e-44" locus_tag="C8J30_RS02565" class="clusterblast-orf" id="dummy-1_h1_1_6"  />
</g>
<g id="a1_007"  >
<polygon points="338,85 343,80 361,80 361,90 343,90 338,85 " style="fill:#d815d8; stroke-width:1; stroke:black; " description="&lt;b&gt;C8J30_RS02560&lt;/b&gt;&lt;br&gt;DUF177 domain-containing protein&lt;br&gt;Location: 536882 - 536316&lt;br&gt;&lt;br&gt;&lt;b&gt;BlastP hit with OLGNLAKD_00748&lt;/b&gt;&lt;br&gt;Percentage identity: 81&lt;br&gt;Percentage coverage: 100&lt;br&gt;BLAST bit score: 298&lt;br&gt;E-value: 7.62e-103" locus_tag="C8J30_RS02560" class="clusterblast-orf" id="dummy-1_h1_1_7"  />
</g>
<g id="a1_008"  >
<polygon points="367,90 379,90 384,85 379,80 367,80 367,90 " style="fill:#d89715; stroke-width:1; stroke:black; " description="&lt;b&gt;C8J30_RS02555&lt;/b&gt;&lt;br&gt;outer membrane protein assembly factor BamE&lt;br&gt;Location: 536174 - 535737&lt;br&gt;&lt;br&gt;&lt;b&gt;BlastP hit with OLGNLAKD_00749&lt;/b&gt;&lt;br&gt;Percentage identity: 88&lt;br&gt;Percentage coverage: 99&lt;br&gt;BLAST bit score: 255&lt;br&gt;E-value: 5.17e-87" locus_tag="C8J30_RS02555" class="clusterblast-orf" id="dummy-1_h1_1_8"  />
</g>
<g id="a1_009"  >
<polygon points="387,90 413,90 418,85 413,80 387,80 387,90 " style="fill:#15d856; stroke-width:1; stroke:black; " description="&lt;b&gt;C8J30_RS02550&lt;/b&gt;&lt;br&gt;GNAT family N-acetyltransferase&lt;br&gt;Location: 535647 - 534889&lt;br&gt;&lt;br&gt;&lt;b&gt;BlastP hit with OLGNLAKD_00750&lt;/b&gt;&lt;br&gt;Percentage identity: 96&lt;br&gt;Percentage coverage: 100&lt;br&gt;BLAST bit score: 489&lt;br&gt;E-value: 2.5e-176" locus_tag="C8J30_RS02550" class="clusterblast-orf" id="dummy-1_h1_1_9"  />
</g>
<g id="a1_0010"  >
<polygon points="424,90 491,90 496,85 491,80 424,80 424,90 " style="fill:#1515d8; stroke-width:1; stroke:black; " description="&lt;b&gt;C8J30_RS02545&lt;/b&gt;&lt;br&gt;ATP-binding cassette domain-containing protein&lt;br&gt;Location: 534734 - 532923&lt;br&gt;&lt;br&gt;&lt;b&gt;BlastP hit with OLGNLAKD_00751&lt;/b&gt;&lt;br&gt;Percentage identity: 93&lt;br&gt;Percentage coverage: 100&lt;br&gt;BLAST bit score: 1085&lt;br&gt;E-value: 0.0" locus_tag="C8J30_RS02545" class="clusterblast-orf" id="dummy-1_h1_1_10"  />
</g>
<g id="a1_0011"  >
<polygon points="499,90 505,90 510,85 505,80 499,80 499,90 " style="fill:#d81597; stroke-width:1; stroke:black; " description="&lt;b&gt;C8J30_RS02540&lt;/b&gt;&lt;br&gt;DUF333 domain-containing protein&lt;br&gt;Location: 532833 - 532573&lt;br&gt;&lt;br&gt;&lt;b&gt;BlastP hit with OLGNLAKD_00752&lt;/b&gt;&lt;br&gt;Percentage identity: 84&lt;br&gt;Percentage coverage: 102&lt;br&gt;BLAST bit score: 154&lt;br&gt;E-value: 8.22e-49" locus_tag="C8J30_RS02540" class="clusterblast-orf" id="dummy-1_h1_1_11"  />
</g>
<g id="a1_0012"  >
<polygon points="513,90 552,90 557,85 552,80 513,80 513,90 " style="fill:#d8d815; stroke-width:1; stroke:black; " description="&lt;b&gt;C8J30_RS02535&lt;/b&gt;&lt;br&gt;CoA transferase&lt;br&gt;Location: 532491 - 531388&lt;br&gt;&lt;br&gt;&lt;b&gt;BlastP hit with OLGNLAKD_00753&lt;/b&gt;&lt;br&gt;Percentage identity: 89&lt;br&gt;Percentage coverage: 99&lt;br&gt;BLAST bit score: 656&lt;br&gt;E-value: 1.83e-238" locus_tag="C8J30_RS02535" class="clusterblast-orf" id="dummy-1_h1_1_12"  />
</g>
<g id="a1_0013"  >
<polygon points="558,85 563,80 588,80 588,90 563,90 558,85 " style="fill:#15d897; stroke-width:1; stroke:black; " description="&lt;b&gt;C8J30_RS02530&lt;/b&gt;&lt;br&gt;thioredoxin domain-containing protein&lt;br&gt;Location: 531345 - 530599&lt;br&gt;&lt;br&gt;&lt;b&gt;BlastP hit with OLGNLAKD_00754&lt;/b&gt;&lt;br&gt;Percentage identity: 86&lt;br&gt;Percentage coverage: 100&lt;br&gt;BLAST bit score: 405&lt;br&gt;E-value: 4.37e-143" locus_tag="C8J30_RS02530" class="clusterblast-orf" id="dummy-1_h1_1_13"  />
</g>
<g id="a1_0014"  >
<polygon points="594,90 634,90 639,85 634,80 594,80 594,90 " style="fill:#5615d8; stroke-width:1; stroke:black; " description="&lt;b&gt;C8J30_RS02525&lt;/b&gt;&lt;br&gt;aminotransferase class I/II-fold pyridoxal phosphate-dependent enzyme&lt;br&gt;Location: 530447 - 529308&lt;br&gt;&lt;br&gt;&lt;b&gt;BlastP hit with OLGNLAKD_00755&lt;/b&gt;&lt;br&gt;Percentage identity: 97&lt;br&gt;Percentage coverage: 100&lt;br&gt;BLAST bit score: 717&lt;br&gt;E-value: 3.89e-262" locus_tag="C8J30_RS02525" class="clusterblast-orf" id="dummy-1_h1_1_14"  />
</g>
<g id="a1_0015"  >
<polygon points="642,90 685,90 690,85 685,80 642,80 642,90 " style="fill:#d81556; stroke-width:1; stroke:black; " description="&lt;b&gt;C8J30_RS02520&lt;/b&gt;&lt;br&gt;N-acetylmuramoyl-L-alanine amidase&lt;br&gt;Location: 529251 - 528034&lt;br&gt;&lt;br&gt;&lt;b&gt;BlastP hit with OLGNLAKD_00756&lt;/b&gt;&lt;br&gt;Percentage identity: 91&lt;br&gt;Percentage coverage: 100&lt;br&gt;BLAST bit score: 719&lt;br&gt;E-value: 3.57e-262" locus_tag="C8J30_RS02520" class="clusterblast-orf" id="dummy-1_h1_1_15"  />
</g>
<g id="a1_0016"  >
<polygon points="702,90 708,90 713,85 708,80 702,80 702,90 " style="fill:#97d815; stroke-width:1; stroke:black; " description="&lt;b&gt;C8J30_RS02515&lt;/b&gt;&lt;br&gt;DUF485 domain-containing protein&lt;br&gt;Location: 527740 - 527447&lt;br&gt;&lt;br&gt;&lt;b&gt;BlastP hit with OLGNLAKD_00757&lt;/b&gt;&lt;br&gt;Percentage identity: 89&lt;br&gt;Percentage coverage: 100&lt;br&gt;BLAST bit score: 165&lt;br&gt;E-value: 7.4e-53" locus_tag="C8J30_RS02515" class="clusterblast-orf" id="dummy-1_h1_1_16"  />
</g>
<g id="a1_0017"  >
<polygon points="714,90 775,90 780,85 775,80 714,80 714,90 " style="fill:#15d8d8; stroke-width:1; stroke:black; " description="&lt;b&gt;C8J30_RS02510&lt;/b&gt;&lt;br&gt;cation/acetate symporter ActP&lt;br&gt;Location: 527441 - 525783&lt;br&gt;&lt;br&gt;&lt;b&gt;BlastP hit with OLGNLAKD_00758&lt;/b&gt;&lt;br&gt;Percentage identity: 94&lt;br&gt;Percentage coverage: 100&lt;br&gt;BLAST bit score: 963&lt;br&gt;E-value: 0.0" locus_tag="C8J30_RS02510" class="clusterblast-orf" id="dummy-1_h1_1_17"  />
</g>
</svg>
