<svg xmlns="http://www.w3.org/2000/svg" xmlns:xlink="http://www.w3.org/1999/xlink" version="1.1" x="0" y="0" height="230" width="800" viewBox="0 0 800 230" preserveAspectRatio="none"  >
<g label="Query sequence" class="clusterblast-cluster"  >
<text x="5" y="20" class="clusterblast-acc"  >
Query sequence</text>
<line x1="10" y1="35" x2="778.0" y2="35" style="stroke-width:1; stroke:grey; "  />
<polygon points="0,40 47,40 52,35 47,30 0,30 0,40 " style="fill:#d81515; stroke-width:1; stroke:black; " description="&lt;b&gt;OLGNLAKD_01396&lt;/b&gt;&lt;br&gt;Protein PucC&lt;br&gt;Location: 88776 - 90063" locus_tag="OLGNLAKD_01396" class="clusterblast-orf" id="dummy-1_q0_0_all"  />
<polygon points="55,40 95,40 100,35 95,30 55,30 55,40 " style="fill:#43d815; stroke-width:1; stroke:black; " description="&lt;b&gt;OLGNLAKD_01397&lt;/b&gt;&lt;br&gt;hypothetical protein&lt;br&gt;Location: 90124 - 91240" locus_tag="OLGNLAKD_01397" class="clusterblast-orf" id="dummy-1_q1_0_all"  />
<polygon points="100,40 117,40 122,35 117,30 100,30 100,40 " style="fill:#15b6d8; stroke-width:1; stroke:black; " description="&lt;b&gt;OLGNLAKD_01398&lt;/b&gt;&lt;br&gt;Isopentenyl-diphosphate Delta-isomerase&lt;br&gt;Location: 91242 - 91773" locus_tag="OLGNLAKD_01398" class="clusterblast-orf" id="dummy-1_q2_0_all"  />
<polygon points="131,35 136,30 166,30 166,40 136,40 131,35 " style="fill:#8815d8; stroke-width:1; stroke:black; " description="&lt;b&gt;OLGNLAKD_01399&lt;/b&gt;&lt;br&gt;Cis-3-alkyl-4-alkyloxetan-2-one decarboxylase&lt;br&gt;Location: 91992 - 92847" locus_tag="OLGNLAKD_01399" class="clusterblast-orf" id="dummy-1_q3_0_all"  />
<polygon points="166,35 171,30 235,30 235,40 171,40 166,35 " style="fill:#d85a15; stroke-width:1; stroke:black; " description="&lt;b&gt;OLGNLAKD_01400&lt;/b&gt;&lt;br&gt;Magnesium-chelatase 60 kDa subunit&lt;br&gt;Location: 92849 - 94538" locus_tag="OLGNLAKD_01400" class="clusterblast-orf" id="dummy-1_q4_0_all"  />
<polygon points="235,35 240,30 274,30 274,40 240,40 235,35 " style="fill:#15d82c; stroke-width:1; stroke:black; " description="&lt;b&gt;OLGNLAKD_01401&lt;/b&gt;&lt;br&gt;Magnesium-chelatase 38 kDa subunit&lt;br&gt;Location: 94539 - 95499" locus_tag="OLGNLAKD_01401" class="clusterblast-orf" id="dummy-1_q5_0_all"  />
<polygon points="277,35 282,30 307,30 307,40 282,40 277,35 " style="fill:#1571d8; stroke-width:1; stroke:black; " description="&lt;b&gt;OLGNLAKD_01402&lt;/b&gt;&lt;br&gt;Spheroidene monooxygenase&lt;br&gt;Location: 95588 - 96314" locus_tag="OLGNLAKD_01402" class="clusterblast-orf" id="dummy-1_q6_0_all"  />
<polygon points="313,40 373,40 378,35 373,30 313,30 313,40 " style="fill:#cd15d8; stroke-width:1; stroke:black; " description="&lt;b&gt;OLGNLAKD_01403&lt;/b&gt;&lt;br&gt;Phytoene desaturase (neurosporene-forming)&lt;br&gt;Location: 96471 - 98055" locus_tag="OLGNLAKD_01403" class="clusterblast-orf" id="dummy-1_q7_0_all"  />
<polygon points="378,40 414,40 419,35 414,30 378,30 378,40 " style="fill:#d89f15; stroke-width:1; stroke:black; " description="&lt;b&gt;OLGNLAKD_01404&lt;/b&gt;&lt;br&gt;15-cis-phytoene synthase&lt;br&gt;Location: 98051 - 99077" locus_tag="OLGNLAKD_01404" class="clusterblast-orf" id="dummy-1_q8_0_all"  />
<polygon points="423,40 437,40 442,35 437,30 423,30 423,40 " style="fill:#15d871; stroke-width:1; stroke:black; " description="&lt;b&gt;OLGNLAKD_01405&lt;/b&gt;&lt;br&gt;Tryptophan-rich sensory protein&lt;br&gt;Location: 99154 - 99637" locus_tag="OLGNLAKD_01405" class="clusterblast-orf" id="dummy-1_q9_0_all"  />
<polygon points="445,35 450,30 479,30 479,40 450,40 445,35 " style="fill:#152cd8; stroke-width:1; stroke:black; " description="&lt;b&gt;OLGNLAKD_01406&lt;/b&gt;&lt;br&gt;Acyclic carotenoid 1,2-hydratase&lt;br&gt;Location: 99697 - 100543" locus_tag="OLGNLAKD_01406" class="clusterblast-orf" id="dummy-1_q10_0_all"  />
<polygon points="482,35 487,30 542,30 542,40 487,40 482,35 " style="fill:#d8159f; stroke-width:1; stroke:black; " description="&lt;b&gt;OLGNLAKD_01407&lt;/b&gt;&lt;br&gt;Hydroxyneurosporene desaturase&lt;br&gt;Location: 100608 - 102093" locus_tag="OLGNLAKD_01407" class="clusterblast-orf" id="dummy-1_q11_0_all"  />
<polygon points="548,40 578,40 583,35 578,30 548,30 548,40 " style="fill:#cdd815; stroke-width:1; stroke:black; " description="&lt;b&gt;OLGNLAKD_01408&lt;/b&gt;&lt;br&gt;Farnesyl diphosphate synthase&lt;br&gt;Location: 102229 - 103099" locus_tag="OLGNLAKD_01408" class="clusterblast-orf" id="dummy-1_q12_0_all"  />
<polygon points="583,40 626,40 631,35 626,30 583,30 583,40 " style="fill:#15d8b6; stroke-width:1; stroke:black; " description="&lt;b&gt;OLGNLAKD_01409&lt;/b&gt;&lt;br&gt;Demethylspheroidene O-methyltransferase&lt;br&gt;Location: 103101 - 104283" locus_tag="OLGNLAKD_01409" class="clusterblast-orf" id="dummy-1_q13_0_all"  />
<polygon points="638,40 671,40 676,35 671,30 638,30 638,40 " style="fill:#4315d8; stroke-width:1; stroke:black; " description="&lt;b&gt;OLGNLAKD_01410&lt;/b&gt;&lt;br&gt;L-galactonate-5-dehydrogenase&lt;br&gt;Location: 104445 - 105390" locus_tag="OLGNLAKD_01410" class="clusterblast-orf" id="dummy-1_q14_0_all"  />
<polygon points="676,40 712,40 717,35 712,30 676,30 676,40 " style="fill:#d8155a; stroke-width:1; stroke:black; " description="&lt;b&gt;OLGNLAKD_01411&lt;/b&gt;&lt;br&gt;Chlorophyllide reductase 35.5 kDa chain&lt;br&gt;Location: 105389 - 106391" locus_tag="OLGNLAKD_01411" class="clusterblast-orf" id="dummy-1_q15_0_all"  />
<polygon points="719,40 775,40 780,35 775,30 719,30 719,40 " style="fill:#88d815; stroke-width:1; stroke:black; " description="&lt;b&gt;OLGNLAKD_01412&lt;/b&gt;&lt;br&gt;Chlorophyllide reductase 52.5 kDa chain&lt;br&gt;Location: 106436 - 107930" locus_tag="OLGNLAKD_01412" class="clusterblast-orf" id="dummy-1_q16_0_all"  />
</g>
<g label="NZ_CP034328" description="NZ_CP034328 (3886230-3907250): Tabrizicola piscis strain K13M18 chromosome, c... (100% of genes show similarity), terpene" class="clusterblast-cluster"  >
<text x="5" y="70" class="clusterblast-acc"  >
<a xlink:href="https://antismash-db.secondarymetabolites.org/area.html?record=NZ_CP034328&amp;start=3886230&amp;end=3907250" target="_blank">NZ_CP034328 (3886230-3907250)</a>: Tabrizicola piscis strain K13M18 chromosome, c... (100% of genes show similarity), terpene</text>
<line x1="10" y1="85" x2="778.0" y2="85" style="stroke-width:1; stroke:grey; "  />
</g>
<g id="a1_000"  >
<polygon points="0,90 48,90 53,85 48,80 0,80 0,90 " style="fill:#d81515; stroke-width:1; stroke:black; " description="&lt;b&gt;EI545_RS18870&lt;/b&gt;&lt;br&gt;BCD family MFS transporter&lt;br&gt;Location: 3886993 - 3888279&lt;br&gt;&lt;br&gt;&lt;b&gt;BlastP hit with OLGNLAKD_01396&lt;/b&gt;&lt;br&gt;Percentage identity: 63&lt;br&gt;Percentage coverage: 99&lt;br&gt;BLAST bit score: 457&lt;br&gt;E-value: 7.19e-158" locus_tag="EI545_RS18870" class="clusterblast-orf" id="dummy-1_h1_5_0"  />
</g>
<g id="a1_001"  >
<polygon points="53,90 96,90 101,85 96,80 53,80 53,90 " style="fill:#43d815; stroke-width:1; stroke:black; " description="&lt;b&gt;EI545_RS18875&lt;/b&gt;&lt;br&gt;geranylgeranyl diphosphate reductase&lt;br&gt;Location: 3888281 - 3889462&lt;br&gt;&lt;br&gt;&lt;b&gt;BlastP hit with OLGNLAKD_01397&lt;/b&gt;&lt;br&gt;Percentage identity: 71&lt;br&gt;Percentage coverage: 101&lt;br&gt;BLAST bit score: 520&lt;br&gt;E-value: 3.04e-184" locus_tag="EI545_RS18875" class="clusterblast-orf" id="dummy-1_h1_5_1"  />
</g>
<g id="a1_002"  >
<polygon points="101,90 118,90 123,85 118,80 101,80 101,90 " style="fill:#15b6d8; stroke-width:1; stroke:black; " description="&lt;b&gt;EI545_RS18880&lt;/b&gt;&lt;br&gt;isopentenyl-diphosphate Delta-isomerase&lt;br&gt;Location: 3889477 - 3890013&lt;br&gt;&lt;br&gt;&lt;b&gt;BlastP hit with OLGNLAKD_01398&lt;/b&gt;&lt;br&gt;Percentage identity: 58&lt;br&gt;Percentage coverage: 99&lt;br&gt;BLAST bit score: 220&lt;br&gt;E-value: 3.86e-72" locus_tag="EI545_RS18880" class="clusterblast-orf" id="dummy-1_h1_5_2"  />
</g>
<g id="a1_003"  >
<polygon points="126,85 131,80 161,80 161,90 131,90 126,85 " style="fill:#8815d8; stroke-width:1; stroke:black; " description="&lt;b&gt;EI545_RS18885&lt;/b&gt;&lt;br&gt;alpha/beta fold hydrolase&lt;br&gt;Location: 3890086 - 3890931&lt;br&gt;&lt;br&gt;&lt;b&gt;BlastP hit with OLGNLAKD_01399&lt;/b&gt;&lt;br&gt;Percentage identity: 49&lt;br&gt;Percentage coverage: 99&lt;br&gt;BLAST bit score: 262&lt;br&gt;E-value: 1.8e-85" locus_tag="EI545_RS18885" class="clusterblast-orf" id="dummy-1_h1_5_3"  />
</g>
<g id="a1_004"  >
<polygon points="161,85 166,80 230,80 230,90 166,90 161,85 " style="fill:#d85a15; stroke-width:1; stroke:black; " description="&lt;b&gt;EI545_RS18890&lt;/b&gt;&lt;br&gt;magnesium chelatase subunit D&lt;br&gt;Location: 3890933 - 3892624&lt;br&gt;&lt;br&gt;&lt;b&gt;BlastP hit with OLGNLAKD_01400&lt;/b&gt;&lt;br&gt;Percentage identity: 52&lt;br&gt;Percentage coverage: 100&lt;br&gt;BLAST bit score: 483&lt;br&gt;E-value: 4.14e-164" locus_tag="EI545_RS18890" class="clusterblast-orf" id="dummy-1_h1_5_4"  />
</g>
<g id="a1_005"  >
<polygon points="231,85 236,80 273,80 273,90 236,90 231,85 " style="fill:#15d82c; stroke-width:1; stroke:black; " description="&lt;b&gt;EI545_RS18895&lt;/b&gt;&lt;br&gt;magnesium chelatase ATPase subunit I&lt;br&gt;Location: 3892660 - 3893682&lt;br&gt;&lt;br&gt;&lt;b&gt;BlastP hit with OLGNLAKD_01401&lt;/b&gt;&lt;br&gt;Percentage identity: 78&lt;br&gt;Percentage coverage: 100&lt;br&gt;BLAST bit score: 489&lt;br&gt;E-value: 8.87e-174" locus_tag="EI545_RS18895" class="clusterblast-orf" id="dummy-1_h1_5_5"  />
</g>
<g id="a1_006"  >
<polygon points="279,85 284,80 308,80 308,90 284,90 279,85 " style="fill:#1571d8; stroke-width:1; stroke:black; " description="&lt;b&gt;EI545_RS18900&lt;/b&gt;&lt;br&gt;spheroidene monooxygenase&lt;br&gt;Location: 3893849 - 3894541&lt;br&gt;&lt;br&gt;&lt;b&gt;BlastP hit with OLGNLAKD_01402&lt;/b&gt;&lt;br&gt;Percentage identity: 60&lt;br&gt;Percentage coverage: 97&lt;br&gt;BLAST bit score: 299&lt;br&gt;E-value: 1.32e-101" locus_tag="EI545_RS18900" class="clusterblast-orf" id="dummy-1_h1_5_6"  />
</g>
<g id="a1_007"  >
<polygon points="313,90 372,90 377,85 372,80 313,80 313,90 " style="fill:#cd15d8; stroke-width:1; stroke:black; " description="&lt;b&gt;EI545_RS18905&lt;/b&gt;&lt;br&gt;phytoene desaturase&lt;br&gt;Location: 3894663 - 3896234&lt;br&gt;&lt;br&gt;&lt;b&gt;BlastP hit with OLGNLAKD_01403&lt;/b&gt;&lt;br&gt;Percentage identity: 70&lt;br&gt;Percentage coverage: 94&lt;br&gt;BLAST bit score: 714&lt;br&gt;E-value: 6.35e-256" locus_tag="EI545_RS18905" class="clusterblast-orf" id="dummy-1_h1_5_7"  />
</g>
<g id="a1_008"  >
<polygon points="376,90 413,90 418,85 413,80 376,80 376,90 " style="fill:#d89f15; stroke-width:1; stroke:black; " description="&lt;b&gt;EI545_RS18910&lt;/b&gt;&lt;br&gt;phytoene/squalene synthase family protein&lt;br&gt;Location: 3896231 - 3897250&lt;br&gt;&lt;br&gt;&lt;b&gt;BlastP hit with OLGNLAKD_01404&lt;/b&gt;&lt;br&gt;Percentage identity: 63&lt;br&gt;Percentage coverage: 98&lt;br&gt;BLAST bit score: 398&lt;br&gt;E-value: 2.16e-137" locus_tag="EI545_RS18910" class="clusterblast-orf" id="dummy-1_h1_5_8"  />
</g>
<g id="a1_009"  >
<polygon points="420,90 435,90 440,85 435,80 420,80 420,90 " style="fill:#15d871; stroke-width:1; stroke:black; " description="&lt;b&gt;EI545_RS18915&lt;/b&gt;&lt;br&gt;tryptophan-rich sensory protein&lt;br&gt;Location: 3897306 - 3897782&lt;br&gt;&lt;br&gt;&lt;b&gt;BlastP hit with OLGNLAKD_01405&lt;/b&gt;&lt;br&gt;Percentage identity: 61&lt;br&gt;Percentage coverage: 97&lt;br&gt;BLAST bit score: 193&lt;br&gt;E-value: 4.8e-62" locus_tag="EI545_RS18915" class="clusterblast-orf" id="dummy-1_h1_5_9"  />
</g>
<g id="a1_0010"  >
<polygon points="443,85 448,80 477,80 477,90 448,90 443,85 " style="fill:#152cd8; stroke-width:1; stroke:black; " description="&lt;b&gt;EI545_RS18920&lt;/b&gt;&lt;br&gt;carotenoid 1,2-hydratase&lt;br&gt;Location: 3897857 - 3898699&lt;br&gt;&lt;br&gt;&lt;b&gt;BlastP hit with OLGNLAKD_01406&lt;/b&gt;&lt;br&gt;Percentage identity: 67&lt;br&gt;Percentage coverage: 100&lt;br&gt;BLAST bit score: 412&lt;br&gt;E-value: 6.44e-145" locus_tag="EI545_RS18920" class="clusterblast-orf" id="dummy-1_h1_5_10"  />
</g>
<g id="a1_0011"  >
<polygon points="477,85 482,80 541,80 541,90 482,90 477,85 " style="fill:#d8159f; stroke-width:1; stroke:black; " description="&lt;b&gt;EI545_RS18925&lt;/b&gt;&lt;br&gt;phytoene desaturase&lt;br&gt;Location: 3898696 - 3900276&lt;br&gt;&lt;br&gt;&lt;b&gt;BlastP hit with OLGNLAKD_01407&lt;/b&gt;&lt;br&gt;Percentage identity: 58&lt;br&gt;Percentage coverage: 98&lt;br&gt;BLAST bit score: 535&lt;br&gt;E-value: 5.68e-186" locus_tag="EI545_RS18925" class="clusterblast-orf" id="dummy-1_h1_5_11"  />
</g>
<g id="a1_0012"  >
<polygon points="548,90 579,90 584,85 579,80 548,80 548,90 " style="fill:#cdd815; stroke-width:1; stroke:black; " description="&lt;b&gt;EI545_RS18930&lt;/b&gt;&lt;br&gt;polyprenyl synthetase family protein&lt;br&gt;Location: 3900431 - 3901333&lt;br&gt;&lt;br&gt;&lt;b&gt;BlastP hit with OLGNLAKD_01408&lt;/b&gt;&lt;br&gt;Percentage identity: 64&lt;br&gt;Percentage coverage: 101&lt;br&gt;BLAST bit score: 355&lt;br&gt;E-value: 5.68e-122" locus_tag="EI545_RS18930" class="clusterblast-orf" id="dummy-1_h1_5_12"  />
</g>
<g id="a1_0013"  >
<polygon points="584,90 626,90 631,85 626,80 584,80 584,90 " style="fill:#15d8b6; stroke-width:1; stroke:black; " description="&lt;b&gt;EI545_RS18935&lt;/b&gt;&lt;br&gt;methyltransferase domain-containing protein&lt;br&gt;Location: 3901330 - 3902472&lt;br&gt;&lt;br&gt;&lt;b&gt;BlastP hit with OLGNLAKD_01409&lt;/b&gt;&lt;br&gt;Percentage identity: 60&lt;br&gt;Percentage coverage: 88&lt;br&gt;BLAST bit score: 400&lt;br&gt;E-value: 1.49e-136" locus_tag="EI545_RS18935" class="clusterblast-orf" id="dummy-1_h1_5_13"  />
</g>
<g id="a1_0014"  >
<polygon points="634,90 668,90 673,85 668,80 634,80 634,90 " style="fill:#4315d8; stroke-width:1; stroke:black; " description="&lt;b&gt;EI545_RS18940&lt;/b&gt;&lt;br&gt;chlorophyll synthesis pathway protein BchC&lt;br&gt;Location: 3902562 - 3903506&lt;br&gt;&lt;br&gt;&lt;b&gt;BlastP hit with OLGNLAKD_01410&lt;/b&gt;&lt;br&gt;Percentage identity: 70&lt;br&gt;Percentage coverage: 99&lt;br&gt;BLAST bit score: 431&lt;br&gt;E-value: 5.49e-151" locus_tag="EI545_RS18940" class="clusterblast-orf" id="dummy-1_h1_5_14"  />
</g>
<g id="a1_0015"  >
<polygon points="673,90 708,90 713,85 708,80 673,80 673,90 " style="fill:#d8155a; stroke-width:1; stroke:black; " description="&lt;b&gt;EI545_RS18945&lt;/b&gt;&lt;br&gt;chlorophyllide a reductase iron protein subunit X&lt;br&gt;Location: 3903503 - 3904504&lt;br&gt;&lt;br&gt;&lt;b&gt;BlastP hit with OLGNLAKD_01411&lt;/b&gt;&lt;br&gt;Percentage identity: 80&lt;br&gt;Percentage coverage: 100&lt;br&gt;BLAST bit score: 546&lt;br&gt;E-value: 7.07e-196" locus_tag="EI545_RS18945" class="clusterblast-orf" id="dummy-1_h1_5_15"  />
</g>
<g id="a1_0016"  >
<polygon points="716,90 774,90 779,85 774,80 716,80 716,90 " style="fill:#88d815; stroke-width:1; stroke:black; " description="&lt;b&gt;EI545_RS18950&lt;/b&gt;&lt;br&gt;chlorophyllide a reductase subunit Y&lt;br&gt;Location: 3904568 - 3906109&lt;br&gt;&lt;br&gt;&lt;b&gt;BlastP hit with OLGNLAKD_01412&lt;/b&gt;&lt;br&gt;Percentage identity: 78&lt;br&gt;Percentage coverage: 98&lt;br&gt;BLAST bit score: 763&lt;br&gt;E-value: 3.29e-276" locus_tag="EI545_RS18950" class="clusterblast-orf" id="dummy-1_h1_5_16"  />
</g>
</svg>
