<svg xmlns="http://www.w3.org/2000/svg" xmlns:xlink="http://www.w3.org/1999/xlink" version="1.1" x="0" y="0" height="230" width="800" viewBox="0 0 800 230" preserveAspectRatio="none"  >
<g label="Query sequence" class="clusterblast-cluster"  >
<text x="5" y="20" class="clusterblast-acc"  >
Query sequence</text>
<line x1="10" y1="35" x2="778.0" y2="35" style="stroke-width:1; stroke:grey; "  />
<polygon points="111,35 116,30 116,30 116,40 116,40 111,35 " style="fill:white; stroke-width:1; stroke:black; " description="&lt;b&gt;OLGNLAKD_03062&lt;/b&gt;&lt;br&gt;hypothetical protein&lt;br&gt;Location: 614 - 899" locus_tag="OLGNLAKD_03062" class="clusterblast-orf" id="dummy-1_q0_0_all"  />
<polygon points="122,35 127,30 147,30 147,40 127,40 122,35 " style="fill:white; stroke-width:1; stroke:black; " description="&lt;b&gt;OLGNLAKD_03063&lt;/b&gt;&lt;br&gt;hypothetical protein&lt;br&gt;Location: 1232 - 2573" locus_tag="OLGNLAKD_03063" class="clusterblast-orf" id="dummy-1_q1_0_all"  />
<polygon points="146,35 151,30 173,30 173,40 151,40 146,35 " style="fill:white; stroke-width:1; stroke:black; " description="&lt;b&gt;OLGNLAKD_03064&lt;/b&gt;&lt;br&gt;hypothetical protein&lt;br&gt;Location: 2553 - 4017" locus_tag="OLGNLAKD_03064" class="clusterblast-orf" id="dummy-1_q2_0_all"  />
<polygon points="179,35 184,30 195,30 195,40 184,40 179,35 " style="fill:white; stroke-width:1; stroke:black; " description="&lt;b&gt;OLGNLAKD_03065&lt;/b&gt;&lt;br&gt;HTH-type transcriptional activator RhaS&lt;br&gt;Location: 4347 - 5247" locus_tag="OLGNLAKD_03065" class="clusterblast-orf" id="dummy-1_q3_0_all"  />
<polygon points="202,35 205,30 205,40 202,35 " style="fill:white; stroke-width:1; stroke:black; " description="&lt;b&gt;OLGNLAKD_03066&lt;/b&gt;&lt;br&gt;hypothetical protein&lt;br&gt;Location: 5604 - 5799" locus_tag="OLGNLAKD_03066" class="clusterblast-orf" id="dummy-1_q4_0_all"  />
<polygon points="209,35 214,30 227,30 227,40 214,40 209,35 " style="fill:white; stroke-width:1; stroke:black; " description="&lt;b&gt;OLGNLAKD_03067&lt;/b&gt;&lt;br&gt;L-threonine dehydratase biosynthetic IlvA&lt;br&gt;Location: 5987 - 6974" locus_tag="OLGNLAKD_03067" class="clusterblast-orf" id="dummy-1_q5_0_all"  />
<polygon points="230,40 241,40 246,35 241,30 230,30 230,40 " style="fill:white; stroke-width:1; stroke:black; " description="&lt;b&gt;OLGNLAKD_03068&lt;/b&gt;&lt;br&gt;HTH-type transcriptional activator RhaS&lt;br&gt;Location: 7139 - 7997" locus_tag="OLGNLAKD_03068" class="clusterblast-orf" id="dummy-1_q6_0_all"  />
<polygon points="248,40 253,40 258,35 253,30 248,30 248,40 " style="fill:#d81515; stroke-width:1; stroke:black; " description="&lt;b&gt;OLGNLAKD_03069&lt;/b&gt;&lt;br&gt;hypothetical protein&lt;br&gt;Location: 8102 - 8666" locus_tag="OLGNLAKD_03069" class="clusterblast-orf" id="dummy-1_q7_0_all"  />
<polygon points="258,40 326,40 331,35 326,30 258,30 258,40 " style="fill:#15d815; stroke-width:1; stroke:black; " description="&lt;b&gt;OLGNLAKD_03070&lt;/b&gt;&lt;br&gt;UDP-N-acetylmuramate--L-alanine ligase&lt;br&gt;Location: 8658 - 12648" locus_tag="OLGNLAKD_03070" class="clusterblast-orf" id="dummy-1_q8_0_all"  />
<polygon points="331,35 336,30 339,30 339,40 336,40 331,35 " style="fill:white; stroke-width:1; stroke:black; " description="&lt;b&gt;OLGNLAKD_03071&lt;/b&gt;&lt;br&gt;hypothetical protein&lt;br&gt;Location: 12700 - 13102" locus_tag="OLGNLAKD_03071" class="clusterblast-orf" id="dummy-1_q9_0_all"  />
<polygon points="341,35 346,30 379,30 379,40 346,40 341,35 " style="fill:#1597d8; stroke-width:1; stroke:black; " description="&lt;b&gt;OLGNLAKD_03072&lt;/b&gt;&lt;br&gt;Manganese-exporting P-type ATPase&lt;br&gt;Location: 13196 - 15323" locus_tag="OLGNLAKD_03072" class="clusterblast-orf" id="dummy-1_q10_0_all"  />
<polygon points="380,35 384,30 384,40 380,35 " style="fill:white; stroke-width:1; stroke:black; " description="&lt;b&gt;OLGNLAKD_03073&lt;/b&gt;&lt;br&gt;hypothetical protein&lt;br&gt;Location: 15344 - 15599" locus_tag="OLGNLAKD_03073" class="clusterblast-orf" id="dummy-1_q11_0_all"  />
<polygon points="384,35 389,30 391,30 391,40 389,40 384,35 " style="fill:white; stroke-width:1; stroke:black; " description="&lt;b&gt;OLGNLAKD_03074&lt;/b&gt;&lt;br&gt;hypothetical protein&lt;br&gt;Location: 15595 - 15949" locus_tag="OLGNLAKD_03074" class="clusterblast-orf" id="dummy-1_q12_0_all"  />
<polygon points="391,35 396,30 400,30 400,40 396,40 391,35 " style="fill:white; stroke-width:1; stroke:black; " description="&lt;b&gt;OLGNLAKD_03075&lt;/b&gt;&lt;br&gt;hypothetical protein&lt;br&gt;Location: 15950 - 16466" locus_tag="OLGNLAKD_03075" class="clusterblast-orf" id="dummy-1_q13_0_all"  />
<polygon points="410,40 447,40 452,35 447,30 410,30 410,40 " style="fill:white; stroke-width:1; stroke:black; " description="&lt;b&gt;OLGNLAKD_03076&lt;/b&gt;&lt;br&gt;hypothetical protein&lt;br&gt;Location: 16987 - 19324" locus_tag="OLGNLAKD_03076" class="clusterblast-orf" id="dummy-1_q14_0_all"  />
<polygon points="453,40 466,40 471,35 466,30 453,30 453,40 " style="fill:white; stroke-width:1; stroke:black; " description="&lt;b&gt;OLGNLAKD_03077&lt;/b&gt;&lt;br&gt;hypothetical protein&lt;br&gt;Location: 19337 - 20345" locus_tag="OLGNLAKD_03077" class="clusterblast-orf" id="dummy-1_q15_0_all"  />
<polygon points="470,40 482,40 487,35 482,30 470,30 470,40 " style="fill:white; stroke-width:1; stroke:black; " description="&lt;b&gt;OLGNLAKD_03078&lt;/b&gt;&lt;br&gt;hypothetical protein&lt;br&gt;Location: 20311 - 21235" locus_tag="OLGNLAKD_03078" class="clusterblast-orf" id="dummy-1_q16_0_all"  />
<polygon points="487,40 546,40 551,35 546,30 487,30 487,40 " style="fill:white; stroke-width:1; stroke:black; " description="&lt;b&gt;OLGNLAKD_03079&lt;/b&gt;&lt;br&gt;hypothetical protein&lt;br&gt;Location: 21206 - 24731" locus_tag="OLGNLAKD_03079" class="clusterblast-orf" id="dummy-1_q17_0_all"  />
<polygon points="555,40 573,40 578,35 573,30 555,30 555,40 " style="fill:#9715d8; stroke-width:1; stroke:black; " description="&lt;b&gt;OLGNLAKD_03080&lt;/b&gt;&lt;br&gt;Sensor histidine kinase RegB&lt;br&gt;Location: 24928 - 26197" locus_tag="OLGNLAKD_03080" class="clusterblast-orf" id="dummy-1_q18_0_all"  />
<polygon points="578,40 583,40 588,35 583,30 578,30 578,40 " style="fill:#d89715; stroke-width:1; stroke:black; " description="&lt;b&gt;OLGNLAKD_03081&lt;/b&gt;&lt;br&gt;Photosynthetic apparatus regulatory protein RegA&lt;br&gt;Location: 26189 - 26759" locus_tag="OLGNLAKD_03081" class="clusterblast-orf" id="dummy-1_q19_0_all"  />
<polygon points="592,40 610,40 615,35 610,30 592,30 592,40 " style="fill:#15d897; stroke-width:1; stroke:black; " description="&lt;b&gt;OLGNLAKD_03082&lt;/b&gt;&lt;br&gt;sn-glycerol-3-phosphate-binding periplasmic protein UgpB&lt;br&gt;Location: 26949 - 28245" locus_tag="OLGNLAKD_03082" class="clusterblast-orf" id="dummy-1_q20_0_all"  />
<polygon points="616,40 628,40 633,35 628,30 616,30 616,40 " style="fill:#1515d8; stroke-width:1; stroke:black; " description="&lt;b&gt;OLGNLAKD_03083&lt;/b&gt;&lt;br&gt;sn-glycerol-3-phosphate transport system permease protein UgpA&lt;br&gt;Location: 28309 - 29224" locus_tag="OLGNLAKD_03083" class="clusterblast-orf" id="dummy-1_q21_0_all"  />
<polygon points="633,40 643,40 648,35 643,30 633,30 633,40 " style="fill:#d81597; stroke-width:1; stroke:black; " description="&lt;b&gt;OLGNLAKD_03084&lt;/b&gt;&lt;br&gt;Lactose transport system permease protein LacG&lt;br&gt;Location: 29227 - 30070" locus_tag="OLGNLAKD_03084" class="clusterblast-orf" id="dummy-1_q22_0_all"  />
<polygon points="648,40 664,40 669,35 664,30 648,30 648,40 " style="fill:#97d815; stroke-width:1; stroke:black; " description="&lt;b&gt;OLGNLAKD_03085&lt;/b&gt;&lt;br&gt;sn-glycerol-3-phosphate import ATP-binding protein UgpC&lt;br&gt;Location: 30066 - 31167" locus_tag="OLGNLAKD_03085" class="clusterblast-orf" id="dummy-1_q23_0_all"  />
</g>
<g label="NZ_UBMG01000023" description="NZ_UBMG01000023 (123868-167849): Rhizobiales bacterium isolate AFS011128, who... (19% of genes show similarity), NRPS" class="clusterblast-cluster"  >
<text x="5" y="70" class="clusterblast-acc"  >
<a xlink:href="https://antismash-db.secondarymetabolites.org/area.html?record=NZ_UBMG01000023&amp;start=123868&amp;end=167849" target="_blank">NZ_UBMG01000023 (123868-167849)</a>: Rhizobiales bacterium isolate AFS011128, who... (19% of genes show similarity), NRPS</text>
<line x1="10" y1="85" x2="778.0" y2="85" style="stroke-width:1; stroke:grey; "  />
</g>
<g id="a1_000"  >
<polygon points="0,90 7,90 12,85 7,80 0,80 0,90 " style="fill:#97d815; stroke-width:1; stroke:black; " description="&lt;b&gt;DUK31_RS18245&lt;/b&gt;&lt;br&gt;ABC transporter ATP-binding protein&lt;br&gt;Location: 124673 - 125377&lt;br&gt;&lt;br&gt;&lt;b&gt;BlastP hit with OLGNLAKD_03085&lt;/b&gt;&lt;br&gt;Percentage identity: 39&lt;br&gt;Percentage coverage: 54&lt;br&gt;BLAST bit score: 119&lt;br&gt;E-value: 8.31e-30" locus_tag="DUK31_RS18245" class="clusterblast-orf" id="dummy-1_h1_1_0"  />
</g>
<g id="a1_001"  >
<polygon points="13,90 26,90 31,85 26,80 13,80 13,90 " style="fill:white; stroke-width:1; stroke:black; " description="&lt;b&gt;DUK31_RS18250&lt;/b&gt;&lt;br&gt;aliphatic sulfonate ABC transporter substrate-binding protein&lt;br&gt;Location: 125427 - 126377" locus_tag="DUK31_RS18250" class="clusterblast-orf" id="dummy-1_h1_1_1"  />
</g>
<g id="a1_002"  >
<polygon points="31,85 36,80 45,80 45,90 36,90 31,85 " style="fill:white; stroke-width:1; stroke:black; " description="&lt;b&gt;DUK31_RS18255&lt;/b&gt;&lt;br&gt;SDR family oxidoreductase&lt;br&gt;Location: 126424 - 127158" locus_tag="DUK31_RS18255" class="clusterblast-orf" id="dummy-1_h1_1_2"  />
</g>
<g id="a1_003"  >
<polygon points="47,90 59,90 64,85 59,80 47,80 47,90 " style="fill:white; stroke-width:1; stroke:black; " description="&lt;b&gt;DUK31_RS18260&lt;/b&gt;&lt;br&gt;LysR family transcriptional regulator&lt;br&gt;Location: 127260 - 128186" locus_tag="DUK31_RS18260" class="clusterblast-orf" id="dummy-1_h1_1_3"  />
</g>
<g id="a1_004"  >
<polygon points="68,90 69,90 74,85 69,80 68,80 68,90 " style="fill:white; stroke-width:1; stroke:black; " description="&lt;b&gt;DUK31_RS18270&lt;/b&gt;&lt;br&gt;hypothetical protein&lt;br&gt;Location: 128441 - 128773" locus_tag="DUK31_RS18270" class="clusterblast-orf" id="dummy-1_h1_1_4"  />
</g>
<g id="a1_005"  >
<polygon points="78,85 83,80 87,80 87,90 83,90 78,85 " style="fill:white; stroke-width:1; stroke:black; " description="&lt;b&gt;DUK31_RS18275&lt;/b&gt;&lt;br&gt;NUDIX hydrolase&lt;br&gt;Location: 128968 - 129483" locus_tag="DUK31_RS18275" class="clusterblast-orf" id="dummy-1_h1_1_5"  />
</g>
<g id="a1_006"  >
<polygon points="88,85 93,80 106,80 106,90 93,90 88,85 " style="fill:white; stroke-width:1; stroke:black; " description="&lt;b&gt;DUK31_RS18280&lt;/b&gt;&lt;br&gt;LacI family DNA-binding transcriptional regulator&lt;br&gt;Location: 129514 - 130524" locus_tag="DUK31_RS18280" class="clusterblast-orf" id="dummy-1_h1_1_6"  />
</g>
<g id="a1_007"  >
<polygon points="110,90 123,90 128,85 123,80 110,80 110,90 " style="fill:white; stroke-width:1; stroke:black; " description="&lt;b&gt;DUK31_RS18285&lt;/b&gt;&lt;br&gt;ABC transporter substrate-binding protein&lt;br&gt;Location: 130707 - 131735" locus_tag="DUK31_RS18285" class="clusterblast-orf" id="dummy-1_h1_1_7"  />
</g>
<g id="a1_008"  >
<polygon points="130,90 166,90 171,85 166,80 130,80 130,90 " style="fill:white; stroke-width:1; stroke:black; " description="&lt;b&gt;DUK31_RS18290&lt;/b&gt;&lt;br&gt;iron ABC transporter permease&lt;br&gt;Location: 131827 - 134064" locus_tag="DUK31_RS18290" class="clusterblast-orf" id="dummy-1_h1_1_8"  />
</g>
<g id="a1_009"  >
<polygon points="171,90 185,90 190,85 185,80 171,80 171,90 " style="fill:#97d815; stroke-width:1; stroke:black; " description="&lt;b&gt;DUK31_RS18295&lt;/b&gt;&lt;br&gt;ABC transporter ATP-binding protein&lt;br&gt;Location: 134061 - 135125&lt;br&gt;&lt;br&gt;&lt;b&gt;BlastP hit with OLGNLAKD_03085&lt;/b&gt;&lt;br&gt;Percentage identity: 49&lt;br&gt;Percentage coverage: 63&lt;br&gt;BLAST bit score: 222&lt;br&gt;E-value: 1.16e-67" locus_tag="DUK31_RS18295" class="clusterblast-orf" id="dummy-1_h1_1_9"  />
</g>
<g id="a1_0010"  >
<polygon points="191,90 201,90 206,85 201,80 191,80 191,90 " style="fill:white; stroke-width:1; stroke:black; " description="&lt;b&gt;DUK31_RS18300&lt;/b&gt;&lt;br&gt;inositol monophosphatase&lt;br&gt;Location: 135162 - 135962" locus_tag="DUK31_RS18300" class="clusterblast-orf" id="dummy-1_h1_1_10"  />
</g>
<g id="a1_0011"  >
<polygon points="208,90 227,90 232,85 227,80 208,80 208,90 " style="fill:#15d897; stroke-width:1; stroke:black; " description="&lt;b&gt;DUK31_RS18305&lt;/b&gt;&lt;br&gt;sn-glycerol-3-phosphate ABC transporter substrate-binding protein UgpB&lt;br&gt;Location: 136119 - 137429&lt;br&gt;&lt;br&gt;&lt;b&gt;BlastP hit with OLGNLAKD_03082&lt;/b&gt;&lt;br&gt;Percentage identity: 37&lt;br&gt;Percentage coverage: 97&lt;br&gt;BLAST bit score: 265&lt;br&gt;E-value: 1.69e-82" locus_tag="DUK31_RS18305" class="clusterblast-orf" id="dummy-1_h1_1_11"  />
</g>
<g id="a1_0012"  >
<polygon points="234,90 245,90 250,85 245,80 234,80 234,90 " style="fill:#1515d8; stroke-width:1; stroke:black; " description="&lt;b&gt;DUK31_RS18310&lt;/b&gt;&lt;br&gt;sn-glycerol-3-phosphate ABC transporter permease UgpA&lt;br&gt;Location: 137497 - 138378&lt;br&gt;&lt;br&gt;&lt;b&gt;BlastP hit with OLGNLAKD_03083&lt;/b&gt;&lt;br&gt;Percentage identity: 45&lt;br&gt;Percentage coverage: 95&lt;br&gt;BLAST bit score: 229&lt;br&gt;E-value: 3.63e-72" locus_tag="DUK31_RS18310" class="clusterblast-orf" id="dummy-1_h1_1_12"  />
</g>
<g id="a1_0013"  >
<polygon points="250,90 260,90 265,85 260,80 250,80 250,90 " style="fill:#d81597; stroke-width:1; stroke:black; " description="&lt;b&gt;DUK31_RS18315&lt;/b&gt;&lt;br&gt;sn-glycerol-3-phosphate ABC transporter permease UgpE&lt;br&gt;Location: 138388 - 139236&lt;br&gt;&lt;br&gt;&lt;b&gt;BlastP hit with OLGNLAKD_03084&lt;/b&gt;&lt;br&gt;Percentage identity: 44&lt;br&gt;Percentage coverage: 99&lt;br&gt;BLAST bit score: 227&lt;br&gt;E-value: 6.46e-72" locus_tag="DUK31_RS18315" class="clusterblast-orf" id="dummy-1_h1_1_13"  />
</g>
<g id="a1_0014"  >
<polygon points="265,90 280,90 285,85 280,80 265,80 265,90 " style="fill:#97d815; stroke-width:1; stroke:black; " description="&lt;b&gt;DUK31_RS18320&lt;/b&gt;&lt;br&gt;sn-glycerol-3-phosphate import ATP-binding protein UgpC&lt;br&gt;Location: 139236 - 140288&lt;br&gt;&lt;br&gt;&lt;b&gt;BlastP hit with OLGNLAKD_03085&lt;/b&gt;&lt;br&gt;Percentage identity: 58&lt;br&gt;Percentage coverage: 95&lt;br&gt;BLAST bit score: 375&lt;br&gt;E-value: 1.01e-127" locus_tag="DUK31_RS18320" class="clusterblast-orf" id="dummy-1_h1_1_14"  />
</g>
<g id="a1_0015"  >
<polygon points="287,90 293,90 298,85 293,80 287,80 287,90 " style="fill:white; stroke-width:1; stroke:black; " description="&lt;b&gt;DUK31_RS18325&lt;/b&gt;&lt;br&gt;DUF47 family protein&lt;br&gt;Location: 140430 - 141047" locus_tag="DUK31_RS18325" class="clusterblast-orf" id="dummy-1_h1_1_15"  />
</g>
<g id="a1_0016"  >
<polygon points="298,90 312,90 317,85 312,80 298,80 298,90 " style="fill:white; stroke-width:1; stroke:black; " description="&lt;b&gt;DUK31_RS18330&lt;/b&gt;&lt;br&gt;inorganic phosphate transporter&lt;br&gt;Location: 141047 - 142051" locus_tag="DUK31_RS18330" class="clusterblast-orf" id="dummy-1_h1_1_16"  />
</g>
<g id="a1_0017"  >
<polygon points="325,85 330,80 350,80 350,90 330,90 325,85 " style="fill:white; stroke-width:1; stroke:black; " description="&lt;b&gt;DUK31_RS18335&lt;/b&gt;&lt;br&gt;glycosyltransferase family 1 protein&lt;br&gt;Location: 142499 - 143854" locus_tag="DUK31_RS18335" class="clusterblast-orf" id="dummy-1_h1_1_17"  />
</g>
<g id="a1_0018"  >
<polygon points="350,85 355,80 423,80 423,90 355,90 350,85 " style="fill:#15d815; stroke-width:1; stroke:black; " description="&lt;b&gt;DUK31_RS18340&lt;/b&gt;&lt;br&gt;amino acid adenylation domain-containing protein&lt;br&gt;Location: 143869 - 147849&lt;br&gt;&lt;br&gt;&lt;b&gt;BlastP hit with OLGNLAKD_03070&lt;/b&gt;&lt;br&gt;Percentage identity: 32&lt;br&gt;Percentage coverage: 56&lt;br&gt;BLAST bit score: 244&lt;br&gt;E-value: 1.21e-63" locus_tag="DUK31_RS18340" class="clusterblast-orf" id="dummy-1_h1_1_18"  />
</g>
<g id="a1_0019"  >
<polygon points="424,85 429,80 432,80 432,90 429,90 424,85 " style="fill:white; stroke-width:1; stroke:black; " description="&lt;b&gt;DUK31_RS18345&lt;/b&gt;&lt;br&gt;hypothetical protein&lt;br&gt;Location: 147940 - 148380" locus_tag="DUK31_RS18345" class="clusterblast-orf" id="dummy-1_h1_1_19"  />
</g>
<g id="a1_0020"  >
<polygon points="439,90 466,90 471,85 466,80 439,80 439,90 " style="fill:white; stroke-width:1; stroke:black; " description="&lt;b&gt;DUK31_RS18350&lt;/b&gt;&lt;br&gt;sensor histidine kinase&lt;br&gt;Location: 148734 - 150485" locus_tag="DUK31_RS18350" class="clusterblast-orf" id="dummy-1_h1_1_20"  />
</g>
<g id="a1_0021"  >
<polygon points="471,90 489,90 494,85 489,80 471,80 471,90 " style="fill:white; stroke-width:1; stroke:black; " description="&lt;b&gt;DUK31_RS18355&lt;/b&gt;&lt;br&gt;sigma-54-dependent Fis family transcriptional regulator&lt;br&gt;Location: 150482 - 151792" locus_tag="DUK31_RS18355" class="clusterblast-orf" id="dummy-1_h1_1_21"  />
</g>
<g id="a1_0022"  >
<polygon points="497,85 502,80 518,80 518,90 502,90 497,85 " style="fill:white; stroke-width:1; stroke:black; " description="&lt;b&gt;DUK31_RS18360&lt;/b&gt;&lt;br&gt;hypothetical protein&lt;br&gt;Location: 151922 - 153094" locus_tag="DUK31_RS18360" class="clusterblast-orf" id="dummy-1_h1_1_22"  />
</g>
<g id="a1_0023"  >
<polygon points="518,85 523,80 546,80 546,90 523,90 518,85 " style="fill:white; stroke-width:1; stroke:black; " description="&lt;b&gt;DUK31_RS18365&lt;/b&gt;&lt;br&gt;OmpA family protein&lt;br&gt;Location: 153106 - 154614" locus_tag="DUK31_RS18365" class="clusterblast-orf" id="dummy-1_h1_1_23"  />
</g>
<g id="a1_0024"  >
<polygon points="555,85 560,80 571,80 571,90 560,90 555,85 " style="fill:white; stroke-width:1; stroke:black; " description="&lt;b&gt;DUK31_RS18370&lt;/b&gt;&lt;br&gt;transporter substrate-binding domain-containing protein&lt;br&gt;Location: 155134 - 155991" locus_tag="DUK31_RS18370" class="clusterblast-orf" id="dummy-1_h1_1_24"  />
</g>
<g id="a1_0025"  >
<polygon points="572,85 577,80 586,80 586,90 577,90 572,85 " style="fill:white; stroke-width:1; stroke:black; " description="&lt;b&gt;DUK31_RS18375&lt;/b&gt;&lt;br&gt;ATP-binding cassette domain-containing protein&lt;br&gt;Location: 156024 - 156791" locus_tag="DUK31_RS18375" class="clusterblast-orf" id="dummy-1_h1_1_25"  />
</g>
<g id="a1_0026"  >
<polygon points="586,85 591,80 599,80 599,90 591,90 586,85 " style="fill:white; stroke-width:1; stroke:black; " description="&lt;b&gt;DUK31_RS18380&lt;/b&gt;&lt;br&gt;ABC transporter permease&lt;br&gt;Location: 156788 - 157528" locus_tag="DUK31_RS18380" class="clusterblast-orf" id="dummy-1_h1_1_26"  />
</g>
<g id="a1_0027"  >
<polygon points="599,85 604,80 612,80 612,90 604,90 599,85 " style="fill:white; stroke-width:1; stroke:black; " description="&lt;b&gt;DUK31_RS18385&lt;/b&gt;&lt;br&gt;ABC transporter permease subunit&lt;br&gt;Location: 157528 - 158247" locus_tag="DUK31_RS18385" class="clusterblast-orf" id="dummy-1_h1_1_27"  />
</g>
<g id="a1_0028"  >
<polygon points="614,85 619,80 629,80 629,90 619,90 614,85 " style="fill:white; stroke-width:1; stroke:black; " description="&lt;b&gt;DUK31_RS18390&lt;/b&gt;&lt;br&gt;transporter substrate-binding domain-containing protein&lt;br&gt;Location: 158329 - 159183" locus_tag="DUK31_RS18390" class="clusterblast-orf" id="dummy-1_h1_1_28"  />
</g>
<g id="a1_0029"  >
<polygon points="630,85 635,80 661,80 661,90 635,90 630,85 " style="fill:white; stroke-width:1; stroke:black; " description="&lt;b&gt;DUK31_RS18395&lt;/b&gt;&lt;br&gt;M28 family peptidase&lt;br&gt;Location: 159242 - 160918" locus_tag="DUK31_RS18395" class="clusterblast-orf" id="dummy-1_h1_1_29"  />
</g>
<g id="a1_0030"  >
<polygon points="661,85 666,80 687,80 687,90 666,90 661,85 " style="fill:white; stroke-width:1; stroke:black; " description="&lt;b&gt;DUK31_RS18400&lt;/b&gt;&lt;br&gt;amidohydrolase&lt;br&gt;Location: 160911 - 162335" locus_tag="DUK31_RS18400" class="clusterblast-orf" id="dummy-1_h1_1_30"  />
</g>
<g id="a1_0031"  >
<polygon points="690,90 697,90 702,85 697,80 690,80 690,90 " style="fill:white; stroke-width:1; stroke:black; " description="&lt;b&gt;DUK31_RS18405&lt;/b&gt;&lt;br&gt;GntR family transcriptional regulator&lt;br&gt;Location: 162514 - 163152" locus_tag="DUK31_RS18405" class="clusterblast-orf" id="dummy-1_h1_1_31"  />
</g>
<g id="a1_0032"  >
<polygon points="704,85 709,80 725,80 725,90 709,90 704,85 " style="fill:white; stroke-width:1; stroke:black; " description="&lt;b&gt;DUK31_RS18410&lt;/b&gt;&lt;br&gt;MFS transporter&lt;br&gt;Location: 163267 - 164442" locus_tag="DUK31_RS18410" class="clusterblast-orf" id="dummy-1_h1_1_32"  />
</g>
<g id="a1_0033"  >
<polygon points="727,85 732,80 746,80 746,90 732,90 727,85 " style="fill:white; stroke-width:1; stroke:black; " description="&lt;b&gt;DUK31_RS18415&lt;/b&gt;&lt;br&gt;zinc-dependent alcohol dehydrogenase family protein&lt;br&gt;Location: 164549 - 165565" locus_tag="DUK31_RS18415" class="clusterblast-orf" id="dummy-1_h1_1_33"  />
</g>
<g id="a1_0034"  >
<polygon points="749,90 760,90 765,85 760,80 749,80 749,90 " style="fill:white; stroke-width:1; stroke:black; " description="&lt;b&gt;DUK31_RS18420&lt;/b&gt;&lt;br&gt;LysR family transcriptional regulator&lt;br&gt;Location: 165722 - 166615" locus_tag="DUK31_RS18420" class="clusterblast-orf" id="dummy-1_h1_1_34"  />
</g>
<g id="a1_0035"  >
<polygon points="766,85 771,80 780,80 780,90 771,90 766,85 " style="fill:white; stroke-width:1; stroke:black; " description="&lt;b&gt;DUK31_RS18425&lt;/b&gt;&lt;br&gt;response regulator transcription factor&lt;br&gt;Location: 166659 - 167408" locus_tag="DUK31_RS18425" class="clusterblast-orf" id="dummy-1_h1_1_35"  />
</g>
</svg>
