<svg xmlns="http://www.w3.org/2000/svg" xmlns:xlink="http://www.w3.org/1999/xlink" version="1.1" x="0" y="0" height="230" width="800" viewBox="0 0 800 230" preserveAspectRatio="none"  >
<g label="Query sequence" class="clusterblast-cluster"  >
<text x="5" y="20" class="clusterblast-acc"  >
Query sequence</text>
<line x1="10" y1="35" x2="778.0" y2="35" style="stroke-width:1; stroke:grey; "  />
<polygon points="0,40 15,40 20,35 15,30 0,30 0,40 " style="fill:#d81515; stroke-width:1; stroke:black; " description="&lt;b&gt;OLGNLAKD_02173&lt;/b&gt;&lt;br&gt;hypothetical protein&lt;br&gt;Location: 235128 - 235650" locus_tag="OLGNLAKD_02173" class="clusterblast-orf" id="dummy-1_q0_0_all"  />
<polygon points="23,35 28,30 54,30 54,40 28,40 23,35 " style="fill:#54d815; stroke-width:1; stroke:black; " description="&lt;b&gt;OLGNLAKD_02174&lt;/b&gt;&lt;br&gt;Glutamine transport ATP-binding protein GlnQ&lt;br&gt;Location: 235724 - 236516" locus_tag="OLGNLAKD_02174" class="clusterblast-orf" id="dummy-1_q1_0_all"  />
<polygon points="54,35 59,30 105,30 105,40 59,40 54,35 " style="fill:#15c1d8; stroke-width:1; stroke:black; " description="&lt;b&gt;OLGNLAKD_02175&lt;/b&gt;&lt;br&gt;Inner membrane amino-acid ABC transporter permease protein YhdY&lt;br&gt;Location: 236526 - 237831" locus_tag="OLGNLAKD_02175" class="clusterblast-orf" id="dummy-1_q2_0_all"  />
<polygon points="105,35 110,30 155,30 155,40 110,40 105,35 " style="fill:#15c1d8; stroke-width:1; stroke:black; " description="&lt;b&gt;OLGNLAKD_02176&lt;/b&gt;&lt;br&gt;hypothetical protein&lt;br&gt;Location: 237832 - 239113" locus_tag="OLGNLAKD_02176" class="clusterblast-orf" id="dummy-1_q3_0_all"  />
<polygon points="160,35 165,30 200,30 200,40 165,40 160,35 " style="fill:#8215d8; stroke-width:1; stroke:black; " description="&lt;b&gt;OLGNLAKD_02177&lt;/b&gt;&lt;br&gt;Putative amino-acid ABC transporter-binding protein YhdW&lt;br&gt;Location: 239239 - 240256" locus_tag="OLGNLAKD_02177" class="clusterblast-orf" id="dummy-1_q4_0_all"  />
<polygon points="208,35 213,30 236,30 236,40 213,40 208,35 " style="fill:#d84415; stroke-width:1; stroke:black; " description="&lt;b&gt;OLGNLAKD_02178&lt;/b&gt;&lt;br&gt;hypothetical protein&lt;br&gt;Location: 240475 - 241189" locus_tag="OLGNLAKD_02178" class="clusterblast-orf" id="dummy-1_q5_0_all"  />
<polygon points="236,35 241,30 261,30 261,40 241,40 236,35 " style="fill:#25d815; stroke-width:1; stroke:black; " description="&lt;b&gt;OLGNLAKD_02179&lt;/b&gt;&lt;br&gt;Pyrophosphatase PpaX&lt;br&gt;Location: 241185 - 241842" locus_tag="OLGNLAKD_02179" class="clusterblast-orf" id="dummy-1_q6_0_all"  />
<polygon points="261,35 266,30 303,30 303,40 266,40 261,35 " style="fill:#1592d8; stroke-width:1; stroke:black; " description="&lt;b&gt;OLGNLAKD_02180&lt;/b&gt;&lt;br&gt;Ribosomal large subunit pseudouridine synthase C&lt;br&gt;Location: 241838 - 242906" locus_tag="OLGNLAKD_02180" class="clusterblast-orf" id="dummy-1_q7_0_all"  />
<polygon points="303,35 308,30 318,30 318,40 308,40 303,35 " style="fill:#b115d8; stroke-width:1; stroke:black; " description="&lt;b&gt;OLGNLAKD_02181&lt;/b&gt;&lt;br&gt;Putative fluoride ion transporter CrcB&lt;br&gt;Location: 242902 - 243280" locus_tag="OLGNLAKD_02181" class="clusterblast-orf" id="dummy-1_q8_0_all"  />
<polygon points="319,35 324,30 370,30 370,40 324,40 319,35 " style="fill:#d87315; stroke-width:1; stroke:black; " description="&lt;b&gt;OLGNLAKD_02182&lt;/b&gt;&lt;br&gt;Replication-associated recombination protein A&lt;br&gt;Location: 243311 - 244619" locus_tag="OLGNLAKD_02182" class="clusterblast-orf" id="dummy-1_q9_0_all"  />
<polygon points="373,35 378,30 396,30 396,40 378,40 373,35 " style="fill:#15d834; stroke-width:1; stroke:black; " description="&lt;b&gt;OLGNLAKD_02183&lt;/b&gt;&lt;br&gt;Acyl-homoserine-lactone synthase&lt;br&gt;Location: 244697 - 245288" locus_tag="OLGNLAKD_02183" class="clusterblast-orf" id="dummy-1_q10_0_all"  />
<polygon points="398,35 403,30 422,30 422,40 403,40 398,35 " style="fill:#1563d8; stroke-width:1; stroke:black; " description="&lt;b&gt;OLGNLAKD_02184&lt;/b&gt;&lt;br&gt;hypothetical protein&lt;br&gt;Location: 245337 - 245949" locus_tag="OLGNLAKD_02184" class="clusterblast-orf" id="dummy-1_q11_0_all"  />
<polygon points="429,35 434,30 445,30 445,40 434,40 429,35 " style="fill:#d815d0; stroke-width:1; stroke:black; " description="&lt;b&gt;OLGNLAKD_02185&lt;/b&gt;&lt;br&gt;50S ribosomal protein L17&lt;br&gt;Location: 246129 - 246549" locus_tag="OLGNLAKD_02185" class="clusterblast-orf" id="dummy-1_q12_0_all"  />
<polygon points="450,35 455,30 489,30 489,40 455,40 450,35 " style="fill:#d8a215; stroke-width:1; stroke:black; " description="&lt;b&gt;OLGNLAKD_02186&lt;/b&gt;&lt;br&gt;DNA-directed RNA polymerase subunit alpha&lt;br&gt;Location: 246677 - 247694" locus_tag="OLGNLAKD_02186" class="clusterblast-orf" id="dummy-1_q13_0_all"  />
<polygon points="494,35 499,30 509,30 509,40 499,40 494,35 " style="fill:#15d863; stroke-width:1; stroke:black; " description="&lt;b&gt;OLGNLAKD_02187&lt;/b&gt;&lt;br&gt;30S ribosomal protein S11&lt;br&gt;Location: 247812 - 248202" locus_tag="OLGNLAKD_02187" class="clusterblast-orf" id="dummy-1_q14_0_all"  />
<polygon points="510,35 515,30 524,30 524,40 515,40 510,35 " style="fill:#1534d8; stroke-width:1; stroke:black; " description="&lt;b&gt;OLGNLAKD_02188&lt;/b&gt;&lt;br&gt;30S ribosomal protein S13&lt;br&gt;Location: 248217 - 248586" locus_tag="OLGNLAKD_02188" class="clusterblast-orf" id="dummy-1_q15_0_all"  />
<polygon points="531,35 536,30 557,30 557,40 536,40 531,35 " style="fill:#d815a2; stroke-width:1; stroke:black; " description="&lt;b&gt;OLGNLAKD_02189&lt;/b&gt;&lt;br&gt;Adenylate kinase&lt;br&gt;Location: 248764 - 249418" locus_tag="OLGNLAKD_02189" class="clusterblast-orf" id="dummy-1_q16_0_all"  />
<polygon points="557,35 562,30 611,30 611,40 562,40 557,35 " style="fill:#d8d015; stroke-width:1; stroke:black; " description="&lt;b&gt;OLGNLAKD_02190&lt;/b&gt;&lt;br&gt;Protein translocase subunit SecY&lt;br&gt;Location: 249429 - 250800" locus_tag="OLGNLAKD_02190" class="clusterblast-orf" id="dummy-1_q17_0_all"  />
<polygon points="615,35 620,30 633,30 633,40 620,40 615,35 " style="fill:#15d892; stroke-width:1; stroke:black; " description="&lt;b&gt;OLGNLAKD_02191&lt;/b&gt;&lt;br&gt;50S ribosomal protein L15&lt;br&gt;Location: 250903 - 251374" locus_tag="OLGNLAKD_02191" class="clusterblast-orf" id="dummy-1_q18_0_all"  />
<polygon points="634,40 654,40 659,35 654,30 634,30 634,40 " style="fill:white; stroke-width:1; stroke:black; " description="&lt;b&gt;OLGNLAKD_02192&lt;/b&gt;&lt;br&gt;hypothetical protein&lt;br&gt;Location: 251396 - 252056" locus_tag="OLGNLAKD_02192" class="clusterblast-orf" id="dummy-1_q19_0_all"  />
<polygon points="666,35 671,30 679,30 679,40 671,40 666,35 " style="fill:#2515d8; stroke-width:1; stroke:black; " description="&lt;b&gt;OLGNLAKD_02193&lt;/b&gt;&lt;br&gt;hypothetical protein&lt;br&gt;Location: 252212 - 252548" locus_tag="OLGNLAKD_02193" class="clusterblast-orf" id="dummy-1_q20_0_all"  />
<polygon points="682,35 687,30 689,30 689,40 687,40 682,35 " style="fill:#d81573; stroke-width:1; stroke:black; " description="&lt;b&gt;OLGNLAKD_02194&lt;/b&gt;&lt;br&gt;50S ribosomal protein L30&lt;br&gt;Location: 252633 - 252825" locus_tag="OLGNLAKD_02194" class="clusterblast-orf" id="dummy-1_q21_0_all"  />
<polygon points="690,35 695,30 712,30 712,40 695,40 690,35 " style="fill:#b1d815; stroke-width:1; stroke:black; " description="&lt;b&gt;OLGNLAKD_02195&lt;/b&gt;&lt;br&gt;30S ribosomal protein S5&lt;br&gt;Location: 252837 - 253398" locus_tag="OLGNLAKD_02195" class="clusterblast-orf" id="dummy-1_q22_0_all"  />
<polygon points="716,35 721,30 730,30 730,40 721,40 716,35 " style="fill:#15d8c1; stroke-width:1; stroke:black; " description="&lt;b&gt;OLGNLAKD_02196&lt;/b&gt;&lt;br&gt;50S ribosomal protein L18&lt;br&gt;Location: 253512 - 253872" locus_tag="OLGNLAKD_02196" class="clusterblast-orf" id="dummy-1_q23_0_all"  />
<polygon points="731,35 736,30 752,30 752,40 736,40 731,35 " style="fill:#5415d8; stroke-width:1; stroke:black; " description="&lt;b&gt;OLGNLAKD_02197&lt;/b&gt;&lt;br&gt;50S ribosomal protein L6&lt;br&gt;Location: 253886 - 254420" locus_tag="OLGNLAKD_02197" class="clusterblast-orf" id="dummy-1_q24_0_all"  />
<polygon points="752,35 757,30 767,30 767,40 757,40 752,35 " style="fill:#d81544; stroke-width:1; stroke:black; " description="&lt;b&gt;OLGNLAKD_02198&lt;/b&gt;&lt;br&gt;30S ribosomal protein S8&lt;br&gt;Location: 254430 - 254829" locus_tag="OLGNLAKD_02198" class="clusterblast-orf" id="dummy-1_q25_0_all"  />
<polygon points="768,35 773,30 780,30 780,40 773,40 768,35 " style="fill:#82d815; stroke-width:1; stroke:black; " description="&lt;b&gt;OLGNLAKD_02199&lt;/b&gt;&lt;br&gt;30S ribosomal protein S14&lt;br&gt;Location: 254841 - 255147" locus_tag="OLGNLAKD_02199" class="clusterblast-orf" id="dummy-1_q26_0_all"  />
</g>
<g label="NZ_SAVA01000013" description="NZ_SAVA01000013 (35338-55929): Sinirhodobacter hungdaonensis strain CGMCC 1.1... (96% of genes show similarity), hserlactone" class="clusterblast-cluster"  >
<text x="5" y="70" class="clusterblast-acc"  >
<a xlink:href="https://antismash-db.secondarymetabolites.org/area.html?record=NZ_SAVA01000013&amp;start=35338&amp;end=55929" target="_blank">NZ_SAVA01000013 (35338-55929)</a>: Sinirhodobacter hungdaonensis strain CGMCC 1.1... (96% of genes show similarity), hserlactone</text>
<line x1="10" y1="85" x2="778.0" y2="85" style="stroke-width:1; stroke:grey; "  />
</g>
<g id="a1_000"  >
<polygon points="5,90 20,90 25,85 20,80 5,80 5,90 " style="fill:#d81515; stroke-width:1; stroke:black; " description="&lt;b&gt;EOW66_RS17660&lt;/b&gt;&lt;br&gt;histidine phosphatase family protein&lt;br&gt;Location: 55572 - 55051&lt;br&gt;&lt;br&gt;&lt;b&gt;BlastP hit with OLGNLAKD_02173&lt;/b&gt;&lt;br&gt;Percentage identity: 75&lt;br&gt;Percentage coverage: 99&lt;br&gt;BLAST bit score: 270&lt;br&gt;E-value: 4.7e-92" locus_tag="EOW66_RS17660" class="clusterblast-orf" id="dummy-1_h1_4_0"  />
</g>
<g id="a1_001"  >
<polygon points="30,85 35,80 61,80 61,90 35,90 30,85 " style="fill:#54d815; stroke-width:1; stroke:black; " description="&lt;b&gt;EOW66_RS17655&lt;/b&gt;&lt;br&gt;amino acid ABC transporter ATP-binding protein&lt;br&gt;Location: 54925 - 54134&lt;br&gt;&lt;br&gt;&lt;b&gt;BlastP hit with OLGNLAKD_02174&lt;/b&gt;&lt;br&gt;Percentage identity: 89&lt;br&gt;Percentage coverage: 100&lt;br&gt;BLAST bit score: 476&lt;br&gt;E-value: 1.26e-170" locus_tag="EOW66_RS17655" class="clusterblast-orf" id="dummy-1_h1_4_1"  />
</g>
<g id="a1_002"  >
<polygon points="61,85 66,80 112,80 112,90 66,90 61,85 " style="fill:#15c1d8; stroke-width:1; stroke:black; " description="&lt;b&gt;EOW66_RS17650&lt;/b&gt;&lt;br&gt;amino acid ABC transporter permease&lt;br&gt;Location: 54122 - 52809&lt;br&gt;&lt;br&gt;&lt;b&gt;BlastP hit with OLGNLAKD_02175&lt;/b&gt;&lt;br&gt;Percentage identity: 65&lt;br&gt;Percentage coverage: 101&lt;br&gt;BLAST bit score: 538&lt;br&gt;E-value: 2.35e-189&lt;br&gt;&lt;br&gt;&lt;b&gt;BlastP hit with OLGNLAKD_02176&lt;/b&gt;&lt;br&gt;Percentage identity: 37&lt;br&gt;Percentage coverage: 27&lt;br&gt;BLAST bit score: 67&lt;br&gt;E-value: 5.74e-10" locus_tag="EOW66_RS17650" class="clusterblast-orf" id="dummy-1_h1_4_2"  />
</g>
<g id="a1_003"  >
<polygon points="112,85 117,80 162,80 162,90 117,90 112,85 " style="fill:#15c1d8; stroke-width:1; stroke:black; " description="&lt;b&gt;EOW66_RS17645&lt;/b&gt;&lt;br&gt;ABC transporter permease subunit&lt;br&gt;Location: 52807 - 51542&lt;br&gt;&lt;br&gt;&lt;b&gt;BlastP hit with OLGNLAKD_02175&lt;/b&gt;&lt;br&gt;Percentage identity: 32&lt;br&gt;Percentage coverage: 29&lt;br&gt;BLAST bit score: 72&lt;br&gt;E-value: 1.37e-11&lt;br&gt;&lt;br&gt;&lt;b&gt;BlastP hit with OLGNLAKD_02176&lt;/b&gt;&lt;br&gt;Percentage identity: 63&lt;br&gt;Percentage coverage: 100&lt;br&gt;BLAST bit score: 494&lt;br&gt;E-value: 1.01e-172" locus_tag="EOW66_RS17645" class="clusterblast-orf" id="dummy-1_h1_4_3"  />
</g>
<g id="a1_004"  >
<polygon points="167,85 172,80 206,80 206,90 172,90 167,85 " style="fill:#8215d8; stroke-width:1; stroke:black; " description="&lt;b&gt;EOW66_RS17640&lt;/b&gt;&lt;br&gt;amino acid ABC transporter substrate-binding protein&lt;br&gt;Location: 51414 - 50398&lt;br&gt;&lt;br&gt;&lt;b&gt;BlastP hit with OLGNLAKD_02177&lt;/b&gt;&lt;br&gt;Percentage identity: 72&lt;br&gt;Percentage coverage: 100&lt;br&gt;BLAST bit score: 502&lt;br&gt;E-value: 1.65e-178" locus_tag="EOW66_RS17640" class="clusterblast-orf" id="dummy-1_h1_4_4"  />
</g>
<g id="a1_005"  >
<polygon points="215,85 220,80 242,80 242,90 220,90 215,85 " style="fill:#d84415; stroke-width:1; stroke:black; " description="&lt;b&gt;EOW66_RS17635&lt;/b&gt;&lt;br&gt;ATPase&lt;br&gt;Location: 50183 - 49470&lt;br&gt;&lt;br&gt;&lt;b&gt;BlastP hit with OLGNLAKD_02178&lt;/b&gt;&lt;br&gt;Percentage identity: 67&lt;br&gt;Percentage coverage: 100&lt;br&gt;BLAST bit score: 311&lt;br&gt;E-value: 1.89e-106" locus_tag="EOW66_RS17635" class="clusterblast-orf" id="dummy-1_h1_4_5"  />
</g>
<g id="a1_006"  >
<polygon points="242,85 247,80 268,80 268,90 247,90 242,85 " style="fill:#25d815; stroke-width:1; stroke:black; " description="&lt;b&gt;EOW66_RS17630&lt;/b&gt;&lt;br&gt;HAD-IA family hydrolase&lt;br&gt;Location: 49473 - 48808&lt;br&gt;&lt;br&gt;&lt;b&gt;BlastP hit with OLGNLAKD_02179&lt;/b&gt;&lt;br&gt;Percentage identity: 66&lt;br&gt;Percentage coverage: 99&lt;br&gt;BLAST bit score: 265&lt;br&gt;E-value: 1.32e-88" locus_tag="EOW66_RS17630" class="clusterblast-orf" id="dummy-1_h1_4_6"  />
</g>
<g id="a1_007"  >
<polygon points="268,85 273,80 309,80 309,90 273,90 268,85 " style="fill:#1592d8; stroke-width:1; stroke:black; " description="&lt;b&gt;EOW66_RS17625&lt;/b&gt;&lt;br&gt;RluA family pseudouridine synthase&lt;br&gt;Location: 48811 - 47750&lt;br&gt;&lt;br&gt;&lt;b&gt;BlastP hit with OLGNLAKD_02180&lt;/b&gt;&lt;br&gt;Percentage identity: 82&lt;br&gt;Percentage coverage: 99&lt;br&gt;BLAST bit score: 603&lt;br&gt;E-value: 1.01e-217" locus_tag="EOW66_RS17625" class="clusterblast-orf" id="dummy-1_h1_4_7"  />
</g>
<g id="a1_008"  >
<polygon points="309,85 314,80 324,80 324,90 314,90 309,85 " style="fill:#b115d8; stroke-width:1; stroke:black; " description="&lt;b&gt;EOW66_RS17620&lt;/b&gt;&lt;br&gt;fluoride efflux transporter CrcB&lt;br&gt;Location: 47753 - 47373&lt;br&gt;&lt;br&gt;&lt;b&gt;BlastP hit with OLGNLAKD_02181&lt;/b&gt;&lt;br&gt;Percentage identity: 50&lt;br&gt;Percentage coverage: 101&lt;br&gt;BLAST bit score: 105&lt;br&gt;E-value: 2.88e-28" locus_tag="EOW66_RS17620" class="clusterblast-orf" id="dummy-1_h1_4_8"  />
</g>
<g id="a1_009"  >
<polygon points="326,85 331,80 377,80 377,90 331,90 326,85 " style="fill:#d87315; stroke-width:1; stroke:black; " description="&lt;b&gt;EOW66_RS17615&lt;/b&gt;&lt;br&gt;replication-associated recombination protein A&lt;br&gt;Location: 47328 - 46018&lt;br&gt;&lt;br&gt;&lt;b&gt;BlastP hit with OLGNLAKD_02182&lt;/b&gt;&lt;br&gt;Percentage identity: 88&lt;br&gt;Percentage coverage: 100&lt;br&gt;BLAST bit score: 766&lt;br&gt;E-value: 1.39e-279" locus_tag="EOW66_RS17615" class="clusterblast-orf" id="dummy-1_h1_4_9"  />
</g>
<g id="a1_0010"  >
<polygon points="380,85 385,80 403,80 403,90 385,90 380,85 " style="fill:#15d834; stroke-width:1; stroke:black; " description="&lt;b&gt;EOW66_RS17610&lt;/b&gt;&lt;br&gt;N-acyl-L-homoserine lactone synthetase&lt;br&gt;Location: 45929 - 45339&lt;br&gt;&lt;br&gt;&lt;b&gt;BlastP hit with OLGNLAKD_02183&lt;/b&gt;&lt;br&gt;Percentage identity: 76&lt;br&gt;Percentage coverage: 100&lt;br&gt;BLAST bit score: 324&lt;br&gt;E-value: 1.22e-112" locus_tag="EOW66_RS17610" class="clusterblast-orf" id="dummy-1_h1_4_10"  />
</g>
<g id="a1_0011"  >
<polygon points="405,85 410,80 429,80 429,90 410,90 405,85 " style="fill:#1563d8; stroke-width:1; stroke:black; " description="&lt;b&gt;EOW66_RS17605&lt;/b&gt;&lt;br&gt;LuxR family transcriptional regulator&lt;br&gt;Location: 45286 - 44675&lt;br&gt;&lt;br&gt;&lt;b&gt;BlastP hit with OLGNLAKD_02184&lt;/b&gt;&lt;br&gt;Percentage identity: 86&lt;br&gt;Percentage coverage: 100&lt;br&gt;BLAST bit score: 355&lt;br&gt;E-value: 6.59e-125" locus_tag="EOW66_RS17605" class="clusterblast-orf" id="dummy-1_h1_4_11"  />
</g>
<g id="a1_0012"  >
<polygon points="435,85 440,80 452,80 452,90 440,90 435,85 " style="fill:#d815d0; stroke-width:1; stroke:black; " description="&lt;b&gt;EOW66_RS17600&lt;/b&gt;&lt;br&gt;50S ribosomal protein L17&lt;br&gt;Location: 44520 - 44101&lt;br&gt;&lt;br&gt;&lt;b&gt;BlastP hit with OLGNLAKD_02185&lt;/b&gt;&lt;br&gt;Percentage identity: 88&lt;br&gt;Percentage coverage: 100&lt;br&gt;BLAST bit score: 234&lt;br&gt;E-value: 3.99e-79" locus_tag="EOW66_RS17600" class="clusterblast-orf" id="dummy-1_h1_4_12"  />
</g>
<g id="a1_0013"  >
<polygon points="458,85 463,80 497,80 497,90 463,90 458,85 " style="fill:#d8a215; stroke-width:1; stroke:black; " description="&lt;b&gt;EOW66_RS17595&lt;/b&gt;&lt;br&gt;DNA-directed RNA polymerase subunit alpha&lt;br&gt;Location: 43947 - 42931&lt;br&gt;&lt;br&gt;&lt;b&gt;BlastP hit with OLGNLAKD_02186&lt;/b&gt;&lt;br&gt;Percentage identity: 96&lt;br&gt;Percentage coverage: 100&lt;br&gt;BLAST bit score: 638&lt;br&gt;E-value: 2.82e-232" locus_tag="EOW66_RS17595" class="clusterblast-orf" id="dummy-1_h1_4_13"  />
</g>
<g id="a1_0014"  >
<polygon points="502,85 507,80 517,80 517,90 507,90 502,85 " style="fill:#15d863; stroke-width:1; stroke:black; " description="&lt;b&gt;EOW66_RS17590&lt;/b&gt;&lt;br&gt;30S ribosomal protein S11&lt;br&gt;Location: 42809 - 42420&lt;br&gt;&lt;br&gt;&lt;b&gt;BlastP hit with OLGNLAKD_02187&lt;/b&gt;&lt;br&gt;Percentage identity: 98&lt;br&gt;Percentage coverage: 100&lt;br&gt;BLAST bit score: 239&lt;br&gt;E-value: 1.98e-81" locus_tag="EOW66_RS17590" class="clusterblast-orf" id="dummy-1_h1_4_14"  />
</g>
<g id="a1_0015"  >
<polygon points="518,85 523,80 532,80 532,90 523,90 518,85 " style="fill:#1534d8; stroke-width:1; stroke:black; " description="&lt;b&gt;EOW66_RS17585&lt;/b&gt;&lt;br&gt;30S ribosomal protein S13&lt;br&gt;Location: 42404 - 42036&lt;br&gt;&lt;br&gt;&lt;b&gt;BlastP hit with OLGNLAKD_02188&lt;/b&gt;&lt;br&gt;Percentage identity: 92&lt;br&gt;Percentage coverage: 100&lt;br&gt;BLAST bit score: 224&lt;br&gt;E-value: 1.49e-75" locus_tag="EOW66_RS17585" class="clusterblast-orf" id="dummy-1_h1_4_15"  />
</g>
<g id="a1_0016"  >
<polygon points="538,85 543,80 564,80 564,90 543,90 538,85 " style="fill:#d815a2; stroke-width:1; stroke:black; " description="&lt;b&gt;EOW66_RS17580&lt;/b&gt;&lt;br&gt;adenylate kinase&lt;br&gt;Location: 41875 - 41219&lt;br&gt;&lt;br&gt;&lt;b&gt;BlastP hit with OLGNLAKD_02189&lt;/b&gt;&lt;br&gt;Percentage identity: 85&lt;br&gt;Percentage coverage: 99&lt;br&gt;BLAST bit score: 360&lt;br&gt;E-value: 2.05e-126" locus_tag="EOW66_RS17580" class="clusterblast-orf" id="dummy-1_h1_4_16"  />
</g>
<g id="a1_0017"  >
<polygon points="565,85 570,80 618,80 618,90 570,90 565,85 " style="fill:#d8d015; stroke-width:1; stroke:black; " description="&lt;b&gt;EOW66_RS17575&lt;/b&gt;&lt;br&gt;preprotein translocase subunit SecY&lt;br&gt;Location: 41200 - 39842&lt;br&gt;&lt;br&gt;&lt;b&gt;BlastP hit with OLGNLAKD_02190&lt;/b&gt;&lt;br&gt;Percentage identity: 85&lt;br&gt;Percentage coverage: 100&lt;br&gt;BLAST bit score: 724&lt;br&gt;E-value: 1.63e-262" locus_tag="EOW66_RS17575" class="clusterblast-orf" id="dummy-1_h1_4_17"  />
</g>
<g id="a1_0018"  >
<polygon points="622,85 627,80 640,80 640,90 627,90 622,85 " style="fill:#15d892; stroke-width:1; stroke:black; " description="&lt;b&gt;EOW66_RS17570&lt;/b&gt;&lt;br&gt;50S ribosomal protein L15&lt;br&gt;Location: 39736 - 39266&lt;br&gt;&lt;br&gt;&lt;b&gt;BlastP hit with OLGNLAKD_02191&lt;/b&gt;&lt;br&gt;Percentage identity: 83&lt;br&gt;Percentage coverage: 100&lt;br&gt;BLAST bit score: 234&lt;br&gt;E-value: 1.39e-78" locus_tag="EOW66_RS17570" class="clusterblast-orf" id="dummy-1_h1_4_18"  />
</g>
<g id="a1_0019"  >
<polygon points="646,85 651,80 659,80 659,90 651,90 646,85 " style="fill:white; stroke-width:1; stroke:black; " description="&lt;b&gt;EOW66_RS17565&lt;/b&gt;&lt;br&gt;hypothetical protein&lt;br&gt;Location: 39124 - 38786" locus_tag="EOW66_RS17565" class="clusterblast-orf" id="dummy-1_h1_4_19"  />
</g>
<g id="a1_0020"  >
<polygon points="660,85 665,80 673,80 673,90 665,90 660,85 " style="fill:#2515d8; stroke-width:1; stroke:black; " description="&lt;b&gt;EOW66_RS17560&lt;/b&gt;&lt;br&gt;ribonuclease E inhibitor RraB&lt;br&gt;Location: 38758 - 38426&lt;br&gt;&lt;br&gt;&lt;b&gt;BlastP hit with OLGNLAKD_02193&lt;/b&gt;&lt;br&gt;Percentage identity: 64&lt;br&gt;Percentage coverage: 96&lt;br&gt;BLAST bit score: 140&lt;br&gt;E-value: 1.57e-42" locus_tag="EOW66_RS17560" class="clusterblast-orf" id="dummy-1_h1_4_20"  />
</g>
<g id="a1_0021"  >
<polygon points="676,85 681,80 683,80 683,90 681,90 676,85 " style="fill:#d81573; stroke-width:1; stroke:black; " description="&lt;b&gt;EOW66_RS17555&lt;/b&gt;&lt;br&gt;50S ribosomal protein L30&lt;br&gt;Location: 38340 - 38149&lt;br&gt;&lt;br&gt;&lt;b&gt;BlastP hit with OLGNLAKD_02194&lt;/b&gt;&lt;br&gt;Percentage identity: 95&lt;br&gt;Percentage coverage: 100&lt;br&gt;BLAST bit score: 115&lt;br&gt;E-value: 3.25e-34" locus_tag="EOW66_RS17555" class="clusterblast-orf" id="dummy-1_h1_4_21"  />
</g>
<g id="a1_0022"  >
<polygon points="684,85 689,80 706,80 706,90 689,90 684,85 " style="fill:#b1d815; stroke-width:1; stroke:black; " description="&lt;b&gt;EOW66_RS17550&lt;/b&gt;&lt;br&gt;30S ribosomal protein S5&lt;br&gt;Location: 38136 - 37576&lt;br&gt;&lt;br&gt;&lt;b&gt;BlastP hit with OLGNLAKD_02195&lt;/b&gt;&lt;br&gt;Percentage identity: 94&lt;br&gt;Percentage coverage: 100&lt;br&gt;BLAST bit score: 327&lt;br&gt;E-value: 2.44e-114" locus_tag="EOW66_RS17550" class="clusterblast-orf" id="dummy-1_h1_4_22"  />
</g>
<g id="a1_0023"  >
<polygon points="711,85 716,80 725,80 725,90 716,90 711,85 " style="fill:#15d8c1; stroke-width:1; stroke:black; " description="&lt;b&gt;EOW66_RS17545&lt;/b&gt;&lt;br&gt;50S ribosomal protein L18&lt;br&gt;Location: 37450 - 37091&lt;br&gt;&lt;br&gt;&lt;b&gt;BlastP hit with OLGNLAKD_02196&lt;/b&gt;&lt;br&gt;Percentage identity: 89&lt;br&gt;Percentage coverage: 100&lt;br&gt;BLAST bit score: 203&lt;br&gt;E-value: 2.91e-67" locus_tag="EOW66_RS17545" class="clusterblast-orf" id="dummy-1_h1_4_23"  />
</g>
<g id="a1_0024"  >
<polygon points="725,85 730,80 746,80 746,90 730,90 725,85 " style="fill:#5415d8; stroke-width:1; stroke:black; " description="&lt;b&gt;EOW66_RS17540&lt;/b&gt;&lt;br&gt;50S ribosomal protein L6&lt;br&gt;Location: 37079 - 36546&lt;br&gt;&lt;br&gt;&lt;b&gt;BlastP hit with OLGNLAKD_02197&lt;/b&gt;&lt;br&gt;Percentage identity: 85&lt;br&gt;Percentage coverage: 100&lt;br&gt;BLAST bit score: 306&lt;br&gt;E-value: 4.26e-106" locus_tag="EOW66_RS17540" class="clusterblast-orf" id="dummy-1_h1_4_24"  />
</g>
<g id="a1_0025"  >
<polygon points="746,85 751,80 762,80 762,90 751,90 746,85 " style="fill:#d81544; stroke-width:1; stroke:black; " description="&lt;b&gt;EOW66_RS17535&lt;/b&gt;&lt;br&gt;30S ribosomal protein S8&lt;br&gt;Location: 36535 - 36143&lt;br&gt;&lt;br&gt;&lt;b&gt;BlastP hit with OLGNLAKD_02198&lt;/b&gt;&lt;br&gt;Percentage identity: 89&lt;br&gt;Percentage coverage: 98&lt;br&gt;BLAST bit score: 233&lt;br&gt;E-value: 6.38e-79" locus_tag="EOW66_RS17535" class="clusterblast-orf" id="dummy-1_h1_4_25"  />
</g>
<g id="a1_0026"  >
<polygon points="762,85 767,80 774,80 774,90 767,90 762,85 " style="fill:#82d815; stroke-width:1; stroke:black; " description="&lt;b&gt;EOW66_RS17530&lt;/b&gt;&lt;br&gt;30S ribosomal protein S14&lt;br&gt;Location: 36123 - 35818&lt;br&gt;&lt;br&gt;&lt;b&gt;BlastP hit with OLGNLAKD_02199&lt;/b&gt;&lt;br&gt;Percentage identity: 95&lt;br&gt;Percentage coverage: 100&lt;br&gt;BLAST bit score: 186&lt;br&gt;E-value: 2.84e-61" locus_tag="EOW66_RS17530" class="clusterblast-orf" id="dummy-1_h1_4_26"  />
</g>
</svg>
