<svg xmlns="http://www.w3.org/2000/svg" xmlns:xlink="http://www.w3.org/1999/xlink" version="1.1" x="0" y="0" height="230" width="800" viewBox="0 0 800 230" preserveAspectRatio="none"  >
<g label="Query sequence" class="clusterblast-cluster"  >
<text x="5" y="20" class="clusterblast-acc"  >
Query sequence</text>
<line x1="10" y1="35" x2="778.0" y2="35" style="stroke-width:1; stroke:grey; "  />
<polygon points="72,40 74,35 72,30 72,40 " style="fill:white; stroke-width:1; stroke:black; " description="&lt;b&gt;OLGNLAKD_03311&lt;/b&gt;&lt;br&gt;hypothetical protein&lt;br&gt;Location: 1388 - 1574" locus_tag="OLGNLAKD_03311" class="clusterblast-orf" id="dummy-1_q0_0_all"  />
<polygon points="76,40 79,35 76,30 76,40 " style="fill:white; stroke-width:1; stroke:black; " description="&lt;b&gt;OLGNLAKD_03312&lt;/b&gt;&lt;br&gt;hypothetical protein&lt;br&gt;Location: 1726 - 1945" locus_tag="OLGNLAKD_03312" class="clusterblast-orf" id="dummy-1_q1_0_all"  />
<polygon points="80,35 85,30 91,30 91,40 85,40 80,35 " style="fill:white; stroke-width:1; stroke:black; " description="&lt;b&gt;OLGNLAKD_03313&lt;/b&gt;&lt;br&gt;HTH-type transcriptional regulator ArgP&lt;br&gt;Location: 1997 - 2864" locus_tag="OLGNLAKD_03313" class="clusterblast-orf" id="dummy-1_q2_0_all"  />
<polygon points="92,40 98,40 103,35 98,30 92,30 92,40 " style="fill:white; stroke-width:1; stroke:black; " description="&lt;b&gt;OLGNLAKD_03314&lt;/b&gt;&lt;br&gt;hypothetical protein&lt;br&gt;Location: 2960 - 3872" locus_tag="OLGNLAKD_03314" class="clusterblast-orf" id="dummy-1_q3_0_all"  />
<polygon points="131,35 136,30 144,30 144,40 136,40 131,35 " style="fill:white; stroke-width:1; stroke:black; " description="&lt;b&gt;OLGNLAKD_03316&lt;/b&gt;&lt;br&gt;Putative transport protein YhhT&lt;br&gt;Location: 6029 - 7076" locus_tag="OLGNLAKD_03316" class="clusterblast-orf" id="dummy-1_q4_0_all"  />
<polygon points="145,35 150,30 157,30 157,40 150,40 145,35 " style="fill:white; stroke-width:1; stroke:black; " description="&lt;b&gt;OLGNLAKD_03317&lt;/b&gt;&lt;br&gt;hypothetical protein&lt;br&gt;Location: 7085 - 8027" locus_tag="OLGNLAKD_03317" class="clusterblast-orf" id="dummy-1_q5_0_all"  />
<polygon points="158,35 162,30 162,40 158,35 " style="fill:white; stroke-width:1; stroke:black; " description="&lt;b&gt;OLGNLAKD_03318&lt;/b&gt;&lt;br&gt;hypothetical protein&lt;br&gt;Location: 8107 - 8437" locus_tag="OLGNLAKD_03318" class="clusterblast-orf" id="dummy-1_q6_0_all"  />
<polygon points="162,35 164,30 164,40 162,35 " style="fill:white; stroke-width:1; stroke:black; " description="&lt;b&gt;OLGNLAKD_03319&lt;/b&gt;&lt;br&gt;hypothetical protein&lt;br&gt;Location: 8440 - 8638" locus_tag="OLGNLAKD_03319" class="clusterblast-orf" id="dummy-1_q7_0_all"  />
<polygon points="165,40 168,35 165,30 165,40 " style="fill:white; stroke-width:1; stroke:black; " description="&lt;b&gt;OLGNLAKD_03320&lt;/b&gt;&lt;br&gt;hypothetical protein&lt;br&gt;Location: 8715 - 8895" locus_tag="OLGNLAKD_03320" class="clusterblast-orf" id="dummy-1_q8_0_all"  />
<polygon points="169,35 174,30 176,30 176,40 174,40 169,35 " style="fill:white; stroke-width:1; stroke:black; " description="&lt;b&gt;OLGNLAKD_03321&lt;/b&gt;&lt;br&gt;hypothetical protein&lt;br&gt;Location: 9000 - 9540" locus_tag="OLGNLAKD_03321" class="clusterblast-orf" id="dummy-1_q9_0_all"  />
<polygon points="177,35 182,30 188,30 188,40 182,40 177,35 " style="fill:white; stroke-width:1; stroke:black; " description="&lt;b&gt;OLGNLAKD_03322&lt;/b&gt;&lt;br&gt;Phyllosphere-induced regulator PhyR&lt;br&gt;Location: 9638 - 10448" locus_tag="OLGNLAKD_03322" class="clusterblast-orf" id="dummy-1_q10_0_all"  />
<polygon points="189,40 191,35 189,30 189,40 " style="fill:white; stroke-width:1; stroke:black; " description="&lt;b&gt;OLGNLAKD_03323&lt;/b&gt;&lt;br&gt;hypothetical protein&lt;br&gt;Location: 10538 - 10721" locus_tag="OLGNLAKD_03323" class="clusterblast-orf" id="dummy-1_q11_0_all"  />
<polygon points="191,40 194,40 199,35 194,30 191,30 191,40 " style="fill:white; stroke-width:1; stroke:black; " description="&lt;b&gt;OLGNLAKD_03324&lt;/b&gt;&lt;br&gt;ECF RNA polymerase sigma factor EcfG&lt;br&gt;Location: 10717 - 11314" locus_tag="OLGNLAKD_03324" class="clusterblast-orf" id="dummy-1_q12_0_all"  />
<polygon points="199,40 216,40 221,35 216,30 199,30 199,40 " style="fill:white; stroke-width:1; stroke:black; " description="&lt;b&gt;OLGNLAKD_03325&lt;/b&gt;&lt;br&gt;hypothetical protein&lt;br&gt;Location: 11310 - 13074" locus_tag="OLGNLAKD_03325" class="clusterblast-orf" id="dummy-1_q13_0_all"  />
<polygon points="222,40 225,35 222,30 222,40 " style="fill:white; stroke-width:1; stroke:black; " description="&lt;b&gt;OLGNLAKD_03326&lt;/b&gt;&lt;br&gt;hypothetical protein&lt;br&gt;Location: 13163 - 13337" locus_tag="OLGNLAKD_03326" class="clusterblast-orf" id="dummy-1_q14_0_all"  />
<polygon points="225,35 230,30 238,30 238,40 230,40 225,35 " style="fill:white; stroke-width:1; stroke:black; " description="&lt;b&gt;OLGNLAKD_03327&lt;/b&gt;&lt;br&gt;hypothetical protein&lt;br&gt;Location: 13391 - 14399" locus_tag="OLGNLAKD_03327" class="clusterblast-orf" id="dummy-1_q15_0_all"  />
<polygon points="241,40 252,40 257,35 252,30 241,30 241,40 " style="fill:white; stroke-width:1; stroke:black; " description="&lt;b&gt;OLGNLAKD_03328&lt;/b&gt;&lt;br&gt;hypothetical protein&lt;br&gt;Location: 14608 - 15862" locus_tag="OLGNLAKD_03328" class="clusterblast-orf" id="dummy-1_q16_0_all"  />
<polygon points="268,40 276,40 281,35 276,30 268,30 268,40 " style="fill:white; stroke-width:1; stroke:black; " description="&lt;b&gt;OLGNLAKD_03329&lt;/b&gt;&lt;br&gt;hypothetical protein&lt;br&gt;Location: 16771 - 17746" locus_tag="OLGNLAKD_03329" class="clusterblast-orf" id="dummy-1_q17_0_all"  />
<polygon points="293,40 293,40 298,35 293,30 293,30 293,40 " style="fill:white; stroke-width:1; stroke:black; " description="&lt;b&gt;OLGNLAKD_03330&lt;/b&gt;&lt;br&gt;hypothetical protein&lt;br&gt;Location: 18688 - 19051" locus_tag="OLGNLAKD_03330" class="clusterblast-orf" id="dummy-1_q18_0_all"  />
<polygon points="298,40 307,40 312,35 307,30 298,30 298,40 " style="fill:white; stroke-width:1; stroke:black; " description="&lt;b&gt;OLGNLAKD_03331&lt;/b&gt;&lt;br&gt;Purine ribonucleoside efflux pump NepI&lt;br&gt;Location: 19047 - 20184" locus_tag="OLGNLAKD_03331" class="clusterblast-orf" id="dummy-1_q19_0_all"  />
<polygon points="310,35 315,30 316,30 316,40 315,40 310,35 " style="fill:white; stroke-width:1; stroke:black; " description="&lt;b&gt;OLGNLAKD_03332&lt;/b&gt;&lt;br&gt;hypothetical protein&lt;br&gt;Location: 20035 - 20503" locus_tag="OLGNLAKD_03332" class="clusterblast-orf" id="dummy-1_q20_0_all"  />
<polygon points="318,40 329,40 334,35 329,30 318,30 318,40 " style="fill:#d81515; stroke-width:1; stroke:black; " description="&lt;b&gt;OLGNLAKD_03333&lt;/b&gt;&lt;br&gt;Isochorismate synthase MenF&lt;br&gt;Location: 20662 - 21913" locus_tag="OLGNLAKD_03333" class="clusterblast-orf" id="dummy-1_q21_0_all"  />
<polygon points="334,40 338,40 343,35 338,30 334,30 334,40 " style="fill:#3cd815; stroke-width:1; stroke:black; " description="&lt;b&gt;OLGNLAKD_03334&lt;/b&gt;&lt;br&gt;Isochorismatase&lt;br&gt;Location: 21928 - 22582" locus_tag="OLGNLAKD_03334" class="clusterblast-orf" id="dummy-1_q22_0_all"  />
<polygon points="343,40 348,40 353,35 348,30 343,30 343,40 " style="fill:#1563d8; stroke-width:1; stroke:black; " description="&lt;b&gt;OLGNLAKD_03335&lt;/b&gt;&lt;br&gt;2,3-dihydro-2,3-dihydroxybenzoate dehydrogenase&lt;br&gt;Location: 22572 - 23349" locus_tag="OLGNLAKD_03335" class="clusterblast-orf" id="dummy-1_q23_0_all"  />
<polygon points="352,35 357,30 361,30 361,40 357,40 352,35 " style="fill:white; stroke-width:1; stroke:black; " description="&lt;b&gt;OLGNLAKD_03336&lt;/b&gt;&lt;br&gt;hypothetical protein&lt;br&gt;Location: 23315 - 24023" locus_tag="OLGNLAKD_03336" class="clusterblast-orf" id="dummy-1_q24_0_all"  />
<polygon points="361,35 364,30 364,40 361,35 " style="fill:#b115d8; stroke-width:1; stroke:black; " description="&lt;b&gt;OLGNLAKD_03337&lt;/b&gt;&lt;br&gt;hypothetical protein&lt;br&gt;Location: 24015 - 24267" locus_tag="OLGNLAKD_03337" class="clusterblast-orf" id="dummy-1_q25_0_all"  />
<polygon points="365,35 370,30 385,30 385,40 370,40 365,35 " style="fill:#d88a15; stroke-width:1; stroke:black; " description="&lt;b&gt;OLGNLAKD_03338&lt;/b&gt;&lt;br&gt;Enterobactin synthase component E&lt;br&gt;Location: 24291 - 25914" locus_tag="OLGNLAKD_03338" class="clusterblast-orf" id="dummy-1_q26_0_all"  />
<polygon points="387,40 438,40 443,35 438,30 387,30 387,40 " style="fill:white; stroke-width:1; stroke:black; " description="&lt;b&gt;OLGNLAKD_03339&lt;/b&gt;&lt;br&gt;D-alanine--D-alanyl carrier protein ligase&lt;br&gt;Location: 26064 - 30405" locus_tag="OLGNLAKD_03339" class="clusterblast-orf" id="dummy-1_q27_0_all"  />
<polygon points="443,40 456,40 461,35 456,30 443,30 443,40 " style="fill:#15d863; stroke-width:1; stroke:black; " description="&lt;b&gt;OLGNLAKD_03340&lt;/b&gt;&lt;br&gt;Dimodular nonribosomal peptide synthase&lt;br&gt;Location: 30452 - 31865" locus_tag="OLGNLAKD_03340" class="clusterblast-orf" id="dummy-1_q28_0_all"  />
<polygon points="461,40 484,40 489,35 484,30 461,30 461,40 " style="fill:white; stroke-width:1; stroke:black; " description="&lt;b&gt;OLGNLAKD_03341&lt;/b&gt;&lt;br&gt;hypothetical protein&lt;br&gt;Location: 31861 - 34054" locus_tag="OLGNLAKD_03341" class="clusterblast-orf" id="dummy-1_q29_0_all"  />
<polygon points="490,35 495,30 517,30 517,40 495,40 490,35 " style="fill:white; stroke-width:1; stroke:black; " description="&lt;b&gt;OLGNLAKD_03342&lt;/b&gt;&lt;br&gt;hypothetical protein&lt;br&gt;Location: 34112 - 36194" locus_tag="OLGNLAKD_03342" class="clusterblast-orf" id="dummy-1_q30_0_all"  />
<polygon points="521,40 528,40 533,35 528,30 521,30 521,40 " style="fill:#3c15d8; stroke-width:1; stroke:black; " description="&lt;b&gt;OLGNLAKD_03343&lt;/b&gt;&lt;br&gt;Ferrienterobactin-binding periplasmic protein&lt;br&gt;Location: 36514 - 37459" locus_tag="OLGNLAKD_03343" class="clusterblast-orf" id="dummy-1_q31_0_all"  />
<polygon points="533,40 541,40 546,35 541,30 533,30 533,40 " style="fill:#d8158a; stroke-width:1; stroke:black; " description="&lt;b&gt;OLGNLAKD_03344&lt;/b&gt;&lt;br&gt;putative siderophore transport system permease protein YfiZ&lt;br&gt;Location: 37461 - 38469" locus_tag="OLGNLAKD_03344" class="clusterblast-orf" id="dummy-1_q32_0_all"  />
<polygon points="546,40 554,40 559,35 554,30 546,30 546,40 " style="fill:#b1d815; stroke-width:1; stroke:black; " description="&lt;b&gt;OLGNLAKD_03345&lt;/b&gt;&lt;br&gt;Ferric enterobactin transport system permease protein FepG&lt;br&gt;Location: 38465 - 39515" locus_tag="OLGNLAKD_03345" class="clusterblast-orf" id="dummy-1_q33_0_all"  />
<polygon points="559,40 565,40 570,35 565,30 559,30 559,40 " style="fill:#15d8d8; stroke-width:1; stroke:black; " description="&lt;b&gt;OLGNLAKD_03346&lt;/b&gt;&lt;br&gt;Ferric enterobactin transport ATP-binding protein FepC&lt;br&gt;Location: 39511 - 40324" locus_tag="OLGNLAKD_03346" class="clusterblast-orf" id="dummy-1_q34_0_all"  />
<polygon points="570,35 575,30 593,30 593,40 575,40 570,35 " style="fill:white; stroke-width:1; stroke:black; " description="&lt;b&gt;OLGNLAKD_03347&lt;/b&gt;&lt;br&gt;Putative multidrug export ATP-binding/permease protein&lt;br&gt;Location: 40345 - 42139" locus_tag="OLGNLAKD_03347" class="clusterblast-orf" id="dummy-1_q35_0_all"  />
<polygon points="593,35 598,30 616,30 616,40 598,40 593,35 " style="fill:white; stroke-width:1; stroke:black; " description="&lt;b&gt;OLGNLAKD_03348&lt;/b&gt;&lt;br&gt;Vitamin B12 import ATP-binding protein BtuD&lt;br&gt;Location: 42138 - 43977" locus_tag="OLGNLAKD_03348" class="clusterblast-orf" id="dummy-1_q36_0_all"  />
<polygon points="622,40 632,40 637,35 632,30 622,30 622,40 " style="fill:white; stroke-width:1; stroke:black; " description="&lt;b&gt;OLGNLAKD_03349&lt;/b&gt;&lt;br&gt;hypothetical protein&lt;br&gt;Location: 44405 - 45608" locus_tag="OLGNLAKD_03349" class="clusterblast-orf" id="dummy-1_q37_0_all"  />
<polygon points="637,40 645,40 650,35 645,30 637,30 637,40 " style="fill:white; stroke-width:1; stroke:black; " description="&lt;b&gt;OLGNLAKD_03350&lt;/b&gt;&lt;br&gt;Nucleoid occlusion protein&lt;br&gt;Location: 45607 - 46582" locus_tag="OLGNLAKD_03350" class="clusterblast-orf" id="dummy-1_q38_0_all"  />
<polygon points="652,40 662,40 667,35 662,30 652,30 652,40 " style="fill:white; stroke-width:1; stroke:black; " description="&lt;b&gt;OLGNLAKD_03351&lt;/b&gt;&lt;br&gt;hypothetical protein&lt;br&gt;Location: 46803 - 47910" locus_tag="OLGNLAKD_03351" class="clusterblast-orf" id="dummy-1_q39_0_all"  />
<polygon points="672,40 678,40 683,35 678,30 672,30 672,40 " style="fill:white; stroke-width:1; stroke:black; " description="&lt;b&gt;OLGNLAKD_03352&lt;/b&gt;&lt;br&gt;Cyclic di-GMP phosphodiesterase PdeF&lt;br&gt;Location: 48353 - 49196" locus_tag="OLGNLAKD_03352" class="clusterblast-orf" id="dummy-1_q40_0_all"  />
<polygon points="684,35 689,30 708,30 708,40 689,40 684,35 " style="fill:white; stroke-width:1; stroke:black; " description="&lt;b&gt;OLGNLAKD_03353&lt;/b&gt;&lt;br&gt;Phosphomethylpyrimidine synthase&lt;br&gt;Location: 49304 - 51107" locus_tag="OLGNLAKD_03353" class="clusterblast-orf" id="dummy-1_q41_0_all"  />
</g>
<g label="BGC0001731" description="BGC0001731_c1: paulomycin (3% of genes show similarity), Other" class="clusterblast-cluster"  >
<text x="5" y="70" class="clusterblast-acc"  >
<a xlink:href="https://mibig.secondarymetabolites.org/go/BGC0001731/1" target="_blank">BGC0001731</a>: paulomycin                                                                       (3% of genes show similarity), Other</text>
<line x1="10" y1="85" x2="778.0" y2="85" style="stroke-width:1; stroke:grey; "  />
</g>
<g id="a1_000"  >
<polygon points="0,85 5,80 5,80 5,90 5,90 0,85 " style="fill:white; stroke-width:1; stroke:black; " description="&lt;b&gt;AIE54220.1&lt;/b&gt;&lt;br&gt;Pau53&lt;br&gt;Location: 63266 - 62838" locus_tag="AIE54220.1" class="clusterblast-orf" id="dummy-1_h1_9_0"  />
</g>
<g id="a1_001"  >
<polygon points="7,85 12,80 24,80 24,90 12,90 7,85 " style="fill:white; stroke-width:1; stroke:black; " description="&lt;b&gt;AIE54219.1&lt;/b&gt;&lt;br&gt;Pau52&lt;br&gt;Location: 62657 - 61323" locus_tag="AIE54219.1" class="clusterblast-orf" id="dummy-1_h1_9_1"  />
</g>
<g id="a1_002"  >
<polygon points="28,90 33,90 38,85 33,80 28,80 28,90 " style="fill:white; stroke-width:1; stroke:black; " description="&lt;b&gt;AIE54218.1&lt;/b&gt;&lt;br&gt;Pau51&lt;br&gt;Location: 61068 - 60262" locus_tag="AIE54218.1" class="clusterblast-orf" id="dummy-1_h1_9_2"  />
</g>
<g id="a1_003"  >
<polygon points="38,85 42,80 42,90 38,85 " style="fill:white; stroke-width:1; stroke:black; " description="&lt;b&gt;AIE54217.1&lt;/b&gt;&lt;br&gt;Pau50&lt;br&gt;Location: 60255 - 59920" locus_tag="AIE54217.1" class="clusterblast-orf" id="dummy-1_h1_9_3"  />
</g>
<g id="a1_004"  >
<polygon points="46,90 48,90 53,85 48,80 46,80 46,90 " style="fill:white; stroke-width:1; stroke:black; " description="&lt;b&gt;AIE54216.1&lt;/b&gt;&lt;br&gt;Pau49&lt;br&gt;Location: 59638 - 59054" locus_tag="AIE54216.1" class="clusterblast-orf" id="dummy-1_h1_9_4"  />
</g>
<g id="a1_005"  >
<polygon points="54,85 59,80 81,80 81,90 59,90 54,85 " style="fill:white; stroke-width:1; stroke:black; " description="&lt;b&gt;AIE54215.1&lt;/b&gt;&lt;br&gt;Pau48&lt;br&gt;Location: 59032 - 56921" locus_tag="AIE54215.1" class="clusterblast-orf" id="dummy-1_h1_9_5"  />
</g>
<g id="a1_006"  >
<polygon points="81,85 86,80 94,80 94,90 86,90 81,85 " style="fill:white; stroke-width:1; stroke:black; " description="&lt;b&gt;AIE54214.1&lt;/b&gt;&lt;br&gt;Pau47&lt;br&gt;Location: 56897 - 55911" locus_tag="AIE54214.1" class="clusterblast-orf" id="dummy-1_h1_9_6"  />
</g>
<g id="a1_007"  >
<polygon points="94,85 99,80 101,80 101,90 99,90 94,85 " style="fill:white; stroke-width:1; stroke:black; " description="&lt;b&gt;AIE54213.1&lt;/b&gt;&lt;br&gt;Pau46&lt;br&gt;Location: 55911 - 55366" locus_tag="AIE54213.1" class="clusterblast-orf" id="dummy-1_h1_9_7"  />
</g>
<g id="a1_008"  >
<polygon points="106,90 122,90 127,85 122,80 106,80 106,90 " style="fill:white; stroke-width:1; stroke:black; " description="&lt;b&gt;AIE54212.1&lt;/b&gt;&lt;br&gt;Pau45&lt;br&gt;Location: 54936 - 53296" locus_tag="AIE54212.1" class="clusterblast-orf" id="dummy-1_h1_9_8"  />
</g>
<g id="a1_009"  >
<polygon points="128,85 133,80 137,80 137,90 133,90 128,85 " style="fill:white; stroke-width:1; stroke:black; " description="&lt;b&gt;AIE54211.1&lt;/b&gt;&lt;br&gt;Pau44&lt;br&gt;Location: 53206 - 52544" locus_tag="AIE54211.1" class="clusterblast-orf" id="dummy-1_h1_9_9"  />
</g>
<g id="a1_0010"  >
<polygon points="137,85 142,80 146,80 146,90 142,90 137,85 " style="fill:white; stroke-width:1; stroke:black; " description="&lt;b&gt;AIE54210.1&lt;/b&gt;&lt;br&gt;Pau43&lt;br&gt;Location: 52547 - 51774" locus_tag="AIE54210.1" class="clusterblast-orf" id="dummy-1_h1_9_10"  />
</g>
<g id="a1_0011"  >
<polygon points="147,85 152,80 160,80 160,90 152,90 147,85 " style="fill:white; stroke-width:1; stroke:black; " description="&lt;b&gt;AIE54209.1&lt;/b&gt;&lt;br&gt;Pau42&lt;br&gt;Location: 51717 - 50680" locus_tag="AIE54209.1" class="clusterblast-orf" id="dummy-1_h1_9_11"  />
</g>
<g id="a1_0012"  >
<polygon points="162,85 167,80 182,80 182,90 167,90 162,85 " style="fill:white; stroke-width:1; stroke:black; " description="&lt;b&gt;AIE54208.1&lt;/b&gt;&lt;br&gt;Pau41&lt;br&gt;Location: 50563 - 48980" locus_tag="AIE54208.1" class="clusterblast-orf" id="dummy-1_h1_9_12"  />
</g>
<g id="a1_0013"  >
<polygon points="182,85 187,80 188,80 188,90 187,90 182,85 " style="fill:white; stroke-width:1; stroke:black; " description="&lt;b&gt;AIE54207.1&lt;/b&gt;&lt;br&gt;Pau40&lt;br&gt;Location: 49005 - 48535" locus_tag="AIE54207.1" class="clusterblast-orf" id="dummy-1_h1_9_13"  />
</g>
<g id="a1_0014"  >
<polygon points="188,85 193,80 202,80 202,90 193,90 188,85 " style="fill:white; stroke-width:1; stroke:black; " description="&lt;b&gt;AIE54206.1&lt;/b&gt;&lt;br&gt;Pau39&lt;br&gt;Location: 48538 - 47396" locus_tag="AIE54206.1" class="clusterblast-orf" id="dummy-1_h1_9_14"  />
</g>
<g id="a1_0015"  >
<polygon points="203,85 208,80 212,80 212,90 208,90 203,85 " style="fill:white; stroke-width:1; stroke:black; " description="&lt;b&gt;AIE54205.1&lt;/b&gt;&lt;br&gt;Pau38&lt;br&gt;Location: 47366 - 46680" locus_tag="AIE54205.1" class="clusterblast-orf" id="dummy-1_h1_9_15"  />
</g>
<g id="a1_0016"  >
<polygon points="212,85 217,80 221,80 221,90 217,90 212,85 " style="fill:white; stroke-width:1; stroke:black; " description="&lt;b&gt;AIE54204.1&lt;/b&gt;&lt;br&gt;Pau37&lt;br&gt;Location: 46686 - 45937" locus_tag="AIE54204.1" class="clusterblast-orf" id="dummy-1_h1_9_16"  />
</g>
<g id="a1_0017"  >
<polygon points="221,85 226,80 231,80 231,90 226,90 221,85 " style="fill:white; stroke-width:1; stroke:black; " description="&lt;b&gt;AIE54203.1&lt;/b&gt;&lt;br&gt;Pau36&lt;br&gt;Location: 45940 - 45188" locus_tag="AIE54203.1" class="clusterblast-orf" id="dummy-1_h1_9_17"  />
</g>
<g id="a1_0018"  >
<polygon points="231,85 234,80 234,90 231,85 " style="fill:white; stroke-width:1; stroke:black; " description="&lt;b&gt;AIE54202.1&lt;/b&gt;&lt;br&gt;Pau35&lt;br&gt;Location: 45195 - 44899" locus_tag="AIE54202.1" class="clusterblast-orf" id="dummy-1_h1_9_18"  />
</g>
<g id="a1_0019"  >
<polygon points="234,85 239,80 253,80 253,90 239,90 234,85 " style="fill:white; stroke-width:1; stroke:black; " description="&lt;b&gt;AIE54201.1&lt;/b&gt;&lt;br&gt;Pau34&lt;br&gt;Location: 44902 - 43466" locus_tag="AIE54201.1" class="clusterblast-orf" id="dummy-1_h1_9_19"  />
</g>
<g id="a1_0020"  >
<polygon points="253,85 258,80 272,80 272,90 258,90 253,85 " style="fill:white; stroke-width:1; stroke:black; " description="&lt;b&gt;AIE54200.1&lt;/b&gt;&lt;br&gt;Pau33&lt;br&gt;Location: 43461 - 41971" locus_tag="AIE54200.1" class="clusterblast-orf" id="dummy-1_h1_9_20"  />
</g>
<g id="a1_0021"  >
<polygon points="275,90 281,90 286,85 281,80 275,80 275,90 " style="fill:white; stroke-width:1; stroke:black; " description="&lt;b&gt;AIE54199.1&lt;/b&gt;&lt;br&gt;Pau32&lt;br&gt;Location: 41740 - 40868" locus_tag="AIE54199.1" class="clusterblast-orf" id="dummy-1_h1_9_21"  />
</g>
<g id="a1_0022"  >
<polygon points="289,90 302,90 307,85 302,80 289,80 289,90 " style="fill:white; stroke-width:1; stroke:black; " description="&lt;b&gt;AIE54198.1&lt;/b&gt;&lt;br&gt;Pau31&lt;br&gt;Location: 40617 - 39250" locus_tag="AIE54198.1" class="clusterblast-orf" id="dummy-1_h1_9_22"  />
</g>
<g id="a1_0023"  >
<polygon points="310,85 315,80 325,80 325,90 315,90 310,85 " style="fill:white; stroke-width:1; stroke:black; " description="&lt;b&gt;AIE54197.1&lt;/b&gt;&lt;br&gt;Pau30&lt;br&gt;Location: 38958 - 37816" locus_tag="AIE54197.1" class="clusterblast-orf" id="dummy-1_h1_9_23"  />
</g>
<g id="a1_0024"  >
<polygon points="326,85 331,80 339,80 339,90 331,90 326,85 " style="fill:white; stroke-width:1; stroke:black; " description="&lt;b&gt;AIE54196.1&lt;/b&gt;&lt;br&gt;Pau29&lt;br&gt;Location: 37754 - 36705" locus_tag="AIE54196.1" class="clusterblast-orf" id="dummy-1_h1_9_24"  />
</g>
<g id="a1_0025"  >
<polygon points="341,85 346,80 350,80 350,90 346,90 341,85 " style="fill:white; stroke-width:1; stroke:black; " description="&lt;b&gt;AIE54195.1&lt;/b&gt;&lt;br&gt;Pau28&lt;br&gt;Location: 36592 - 35825" locus_tag="AIE54195.1" class="clusterblast-orf" id="dummy-1_h1_9_25"  />
</g>
<g id="a1_0026"  >
<polygon points="354,90 370,90 375,85 370,80 354,80 354,90 " style="fill:white; stroke-width:1; stroke:black; " description="&lt;b&gt;AIE54194.1&lt;/b&gt;&lt;br&gt;Pau27&lt;br&gt;Location: 35516 - 33873" locus_tag="AIE54194.1" class="clusterblast-orf" id="dummy-1_h1_9_26"  />
</g>
<g id="a1_0027"  >
<polygon points="376,85 381,80 382,80 382,90 381,90 376,85 " style="fill:white; stroke-width:1; stroke:black; " description="&lt;b&gt;AIE54193.1&lt;/b&gt;&lt;br&gt;Pau26&lt;br&gt;Location: 33792 - 33355" locus_tag="AIE54193.1" class="clusterblast-orf" id="dummy-1_h1_9_27"  />
</g>
<g id="a1_0028"  >
<polygon points="383,85 388,80 397,80 397,90 388,90 383,85 " style="fill:white; stroke-width:1; stroke:black; " description="&lt;b&gt;AIE54192.1&lt;/b&gt;&lt;br&gt;Pau25&lt;br&gt;Location: 33300 - 32173" locus_tag="AIE54192.1" class="clusterblast-orf" id="dummy-1_h1_9_28"  />
</g>
<g id="a1_0029"  >
<polygon points="398,85 403,80 413,80 413,90 403,90 398,85 " style="fill:white; stroke-width:1; stroke:black; " description="&lt;b&gt;AIE54191.1&lt;/b&gt;&lt;br&gt;Pau24&lt;br&gt;Location: 32116 - 30902" locus_tag="AIE54191.1" class="clusterblast-orf" id="dummy-1_h1_9_29"  />
</g>
<g id="a1_0030"  >
<polygon points="417,85 422,80 429,80 429,90 422,90 417,85 " style="fill:white; stroke-width:1; stroke:black; " description="&lt;b&gt;AIE54190.1&lt;/b&gt;&lt;br&gt;Pau23&lt;br&gt;Location: 30585 - 29716" locus_tag="AIE54190.1" class="clusterblast-orf" id="dummy-1_h1_9_30"  />
</g>
<g id="a1_0031"  >
<polygon points="429,85 434,80 442,80 442,90 434,90 429,85 " style="fill:white; stroke-width:1; stroke:black; " description="&lt;b&gt;AIE54189.1&lt;/b&gt;&lt;br&gt;Pau22&lt;br&gt;Location: 29684 - 28689" locus_tag="AIE54189.1" class="clusterblast-orf" id="dummy-1_h1_9_31"  />
</g>
<g id="a1_0032"  >
<polygon points="450,90 460,90 465,85 460,80 450,80 450,90 " style="fill:white; stroke-width:1; stroke:black; " description="&lt;b&gt;AIE54188.1&lt;/b&gt;&lt;br&gt;Pau21&lt;br&gt;Location: 28059 - 26851" locus_tag="AIE54188.1" class="clusterblast-orf" id="dummy-1_h1_9_32"  />
</g>
<g id="a1_0033"  >
<polygon points="466,90 471,90 476,85 471,80 466,80 466,90 " style="fill:#1563d8; stroke-width:1; stroke:black; " description="&lt;b&gt;AIE54187.1&lt;/b&gt;&lt;br&gt;Pau20&lt;br&gt;Location: 26813 - 26028&lt;br&gt;&lt;br&gt;&lt;b&gt;BlastP hit with OLGNLAKD_03335&lt;/b&gt;&lt;br&gt;Percentage identity: 50&lt;br&gt;Percentage coverage: 99&lt;br&gt;BLAST bit score: 212&lt;br&gt;E-value: 3.35e-68" locus_tag="AIE54187.1" class="clusterblast-orf" id="dummy-1_h1_9_33"  />
</g>
<g id="a1_0034"  >
<polygon points="478,90 482,90 487,85 482,80 478,80 478,90 " style="fill:#3cd815; stroke-width:1; stroke:black; " description="&lt;b&gt;AIE54186.1&lt;/b&gt;&lt;br&gt;Pau19&lt;br&gt;Location: 25828 - 25169&lt;br&gt;&lt;br&gt;&lt;b&gt;BlastP hit with OLGNLAKD_03334&lt;/b&gt;&lt;br&gt;Percentage identity: 48&lt;br&gt;Percentage coverage: 98&lt;br&gt;BLAST bit score: 201&lt;br&gt;E-value: 2.55e-65" locus_tag="AIE54186.1" class="clusterblast-orf" id="dummy-1_h1_9_34"  />
</g>
<g id="a1_0035"  >
<polygon points="488,90 508,90 513,85 508,80 488,80 488,90 " style="fill:white; stroke-width:1; stroke:black; " description="&lt;b&gt;AIE54185.1&lt;/b&gt;&lt;br&gt;Pau18&lt;br&gt;Location: 25049 - 23094" locus_tag="AIE54185.1" class="clusterblast-orf" id="dummy-1_h1_9_35"  />
</g>
<g id="a1_0036"  >
<polygon points="514,90 524,90 529,85 524,80 514,80 514,90 " style="fill:white; stroke-width:1; stroke:black; " description="&lt;b&gt;AIE54184.1&lt;/b&gt;&lt;br&gt;Pau17&lt;br&gt;Location: 23064 - 21895" locus_tag="AIE54184.1" class="clusterblast-orf" id="dummy-1_h1_9_36"  />
</g>
<g id="a1_0037"  >
<polygon points="529,85 534,80 547,80 547,90 534,90 529,85 " style="fill:white; stroke-width:1; stroke:black; " description="&lt;b&gt;AIE54183.1&lt;/b&gt;&lt;br&gt;Pau16&lt;br&gt;Location: 21825 - 20440" locus_tag="AIE54183.1" class="clusterblast-orf" id="dummy-1_h1_9_37"  />
</g>
<g id="a1_0038"  >
<polygon points="547,85 552,80 564,80 564,90 552,90 547,85 " style="fill:white; stroke-width:1; stroke:black; " description="&lt;b&gt;AIE54182.1&lt;/b&gt;&lt;br&gt;Pau15&lt;br&gt;Location: 20440 - 19160" locus_tag="AIE54182.1" class="clusterblast-orf" id="dummy-1_h1_9_38"  />
</g>
<g id="a1_0039"  >
<polygon points="564,85 569,80 578,80 578,90 569,90 564,85 " style="fill:white; stroke-width:1; stroke:black; " description="&lt;b&gt;AIE54181.1&lt;/b&gt;&lt;br&gt;Pau14&lt;br&gt;Location: 19144 - 18059" locus_tag="AIE54181.1" class="clusterblast-orf" id="dummy-1_h1_9_39"  />
</g>
<g id="a1_0040"  >
<polygon points="584,90 590,90 595,85 590,80 584,80 584,90 " style="fill:white; stroke-width:1; stroke:black; " description="&lt;b&gt;AIE54180.1&lt;/b&gt;&lt;br&gt;Pau13&lt;br&gt;Location: 17576 - 16716" locus_tag="AIE54180.1" class="clusterblast-orf" id="dummy-1_h1_9_40"  />
</g>
<g id="a1_0041"  >
<polygon points="596,85 601,80 610,80 610,90 601,90 596,85 " style="fill:white; stroke-width:1; stroke:black; " description="&lt;b&gt;AIE54179.1&lt;/b&gt;&lt;br&gt;Pau12&lt;br&gt;Location: 16602 - 15565" locus_tag="AIE54179.1" class="clusterblast-orf" id="dummy-1_h1_9_41"  />
</g>
<g id="a1_0042"  >
<polygon points="610,85 615,80 622,80 622,90 615,90 610,85 " style="fill:white; stroke-width:1; stroke:black; " description="&lt;b&gt;AIE54178.1&lt;/b&gt;&lt;br&gt;Pau11&lt;br&gt;Location: 15532 - 14555" locus_tag="AIE54178.1" class="clusterblast-orf" id="dummy-1_h1_9_42"  />
</g>
<g id="a1_0043"  >
<polygon points="626,85 631,80 653,80 653,90 631,90 626,85 " style="fill:white; stroke-width:1; stroke:black; " description="&lt;b&gt;AIE54177.1&lt;/b&gt;&lt;br&gt;Pau10&lt;br&gt;Location: 14259 - 12130" locus_tag="AIE54177.1" class="clusterblast-orf" id="dummy-1_h1_9_43"  />
</g>
<g id="a1_0044"  >
<polygon points="654,85 659,80 673,80 673,90 659,90 654,85 " style="fill:white; stroke-width:1; stroke:black; " description="&lt;b&gt;AIE54176.1&lt;/b&gt;&lt;br&gt;Pau9&lt;br&gt;Location: 12081 - 10639" locus_tag="AIE54176.1" class="clusterblast-orf" id="dummy-1_h1_9_44"  />
</g>
<g id="a1_0045"  >
<polygon points="676,90 677,90 682,85 677,80 676,80 676,90 " style="fill:white; stroke-width:1; stroke:black; " description="&lt;b&gt;AIE54175.1&lt;/b&gt;&lt;br&gt;Pau8&lt;br&gt;Location: 10358 - 9870" locus_tag="AIE54175.1" class="clusterblast-orf" id="dummy-1_h1_9_45"  />
</g>
<g id="a1_0046"  >
<polygon points="686,85 691,80 696,80 696,90 691,90 686,85 " style="fill:white; stroke-width:1; stroke:black; " description="&lt;b&gt;AIE54174.1&lt;/b&gt;&lt;br&gt;Pau7&lt;br&gt;Location: 9620 - 8802" locus_tag="AIE54174.1" class="clusterblast-orf" id="dummy-1_h1_9_46"  />
</g>
<g id="a1_0047"  >
<polygon points="697,85 702,80 712,80 712,90 702,90 697,85 " style="fill:white; stroke-width:1; stroke:black; " description="&lt;b&gt;AIE54173.1&lt;/b&gt;&lt;br&gt;Pau6&lt;br&gt;Location: 8709 - 7540" locus_tag="AIE54173.1" class="clusterblast-orf" id="dummy-1_h1_9_47"  />
</g>
<g id="a1_0048"  >
<polygon points="721,90 723,90 728,85 723,80 721,80 721,90 " style="fill:white; stroke-width:1; stroke:black; " description="&lt;b&gt;AIE54172.1&lt;/b&gt;&lt;br&gt;Pau5&lt;br&gt;Location: 6825 - 6304" locus_tag="AIE54172.1" class="clusterblast-orf" id="dummy-1_h1_9_48"  />
</g>
<g id="a1_0049"  >
<polygon points="730,85 735,80 737,80 737,90 735,90 730,85 " style="fill:white; stroke-width:1; stroke:black; " description="&lt;b&gt;AIE54171.1&lt;/b&gt;&lt;br&gt;Pau4&lt;br&gt;Location: 6120 - 5557" locus_tag="AIE54171.1" class="clusterblast-orf" id="dummy-1_h1_9_49"  />
</g>
<g id="a1_0050"  >
<polygon points="740,85 745,80 753,80 753,90 745,90 740,85 " style="fill:white; stroke-width:1; stroke:black; " description="&lt;b&gt;AIE54170.1&lt;/b&gt;&lt;br&gt;Pau3&lt;br&gt;Location: 5356 - 4343" locus_tag="AIE54170.1" class="clusterblast-orf" id="dummy-1_h1_9_50"  />
</g>
<g id="a1_0051"  >
<polygon points="754,90 760,90 765,85 760,80 754,80 754,90 " style="fill:white; stroke-width:1; stroke:black; " description="&lt;b&gt;AIE54169.1&lt;/b&gt;&lt;br&gt;Pau2&lt;br&gt;Location: 4239 - 3436" locus_tag="AIE54169.1" class="clusterblast-orf" id="dummy-1_h1_9_51"  />
</g>
<g id="a1_0052"  >
<polygon points="765,85 770,80 780,80 780,90 770,90 765,85 " style="fill:white; stroke-width:1; stroke:black; " description="&lt;b&gt;AIE54168.1&lt;/b&gt;&lt;br&gt;Pau1&lt;br&gt;Location: 3420 - 2272" locus_tag="AIE54168.1" class="clusterblast-orf" id="dummy-1_h1_9_52"  />
</g>
</svg>
