<svg xmlns="http://www.w3.org/2000/svg" xmlns:xlink="http://www.w3.org/1999/xlink" version="1.1" x="0" y="0" height="50" width="800" viewBox="0 0 800 50" preserveAspectRatio="none"  >
<g label="Query sequence" class="clusterblast-cluster"  >
<text x="5" y="20" class="clusterblast-acc"  >
Query sequence</text>
<line x1="10" y1="35" x2="778.0" y2="35" style="stroke-width:1; stroke:grey; "  />
<polygon points="0,40 53,40 58,35 53,30 0,30 0,40 " style="fill:white; stroke-width:1; stroke:black; " description="&lt;b&gt;OLGNLAKD_00740&lt;/b&gt;&lt;br&gt;Inosine-5'-monophosphate dehydrogenase&lt;br&gt;Location: 273947 - 275396" locus_tag="OLGNLAKD_00740" class="clusterblast-orf" id="subclusterblast-1_q0_0_all"  />
<polygon points="64,35 69,30 108,30 108,40 69,40 64,35 " style="fill:white; stroke-width:1; stroke:black; " description="&lt;b&gt;OLGNLAKD_00741&lt;/b&gt;&lt;br&gt;dCTP deaminase, dUMP-forming&lt;br&gt;Location: 275554 - 276646" locus_tag="OLGNLAKD_00741" class="clusterblast-orf" id="subclusterblast-1_q1_0_all"  />
<polygon points="118,35 123,30 209,30 209,40 123,40 118,35 " style="fill:white; stroke-width:1; stroke:black; " description="&lt;b&gt;OLGNLAKD_00743&lt;/b&gt;&lt;br&gt;hypothetical protein&lt;br&gt;Location: 276884 - 279158" locus_tag="OLGNLAKD_00743" class="clusterblast-orf" id="subclusterblast-1_q2_0_all"  />
<polygon points="211,35 216,30 223,30 223,40 216,40 211,35 " style="fill:white; stroke-width:1; stroke:black; " description="&lt;b&gt;OLGNLAKD_00744&lt;/b&gt;&lt;br&gt;Integration host factor subunit alpha&lt;br&gt;Location: 279213 - 279516" locus_tag="OLGNLAKD_00744" class="clusterblast-orf" id="subclusterblast-1_q3_0_all"  />
<polygon points="227,35 232,30 267,30 267,40 232,40 227,35 " style="fill:white; stroke-width:1; stroke:black; " description="&lt;b&gt;OLGNLAKD_00745&lt;/b&gt;&lt;br&gt;3-oxoacyl-[acyl-carrier-protein] synthase 3&lt;br&gt;Location: 279627 - 280602" locus_tag="OLGNLAKD_00745" class="clusterblast-orf" id="subclusterblast-1_q4_0_all"  />
<polygon points="266,35 271,30 308,30 308,40 271,40 266,35 " style="fill:white; stroke-width:1; stroke:black; " description="&lt;b&gt;OLGNLAKD_00746&lt;/b&gt;&lt;br&gt;Phosphate acyltransferase&lt;br&gt;Location: 280598 - 281639" locus_tag="OLGNLAKD_00746" class="clusterblast-orf" id="subclusterblast-1_q5_0_all"  />
<polygon points="315,35 320,30 323,30 323,40 320,40 315,35 " style="fill:white; stroke-width:1; stroke:black; " description="&lt;b&gt;OLGNLAKD_00747&lt;/b&gt;&lt;br&gt;hypothetical protein&lt;br&gt;Location: 281813 - 282020" locus_tag="OLGNLAKD_00747" class="clusterblast-orf" id="subclusterblast-1_q6_0_all"  />
<polygon points="331,35 336,30 354,30 354,40 336,40 331,35 " style="fill:white; stroke-width:1; stroke:black; " description="&lt;b&gt;OLGNLAKD_00748&lt;/b&gt;&lt;br&gt;hypothetical protein&lt;br&gt;Location: 282218 - 282785" locus_tag="OLGNLAKD_00748" class="clusterblast-orf" id="subclusterblast-1_q7_0_all"  />
<polygon points="360,40 372,40 377,35 372,30 360,30 360,40 " style="fill:white; stroke-width:1; stroke:black; " description="&lt;b&gt;OLGNLAKD_00749&lt;/b&gt;&lt;br&gt;hypothetical protein&lt;br&gt;Location: 282924 - 283362" locus_tag="OLGNLAKD_00749" class="clusterblast-orf" id="subclusterblast-1_q8_0_all"  />
<polygon points="383,40 409,40 414,35 409,30 383,30 383,40 " style="fill:white; stroke-width:1; stroke:black; " description="&lt;b&gt;OLGNLAKD_00750&lt;/b&gt;&lt;br&gt;hypothetical protein&lt;br&gt;Location: 283519 - 284278" locus_tag="OLGNLAKD_00750" class="clusterblast-orf" id="subclusterblast-1_q9_0_all"  />
<polygon points="420,40 488,40 493,35 488,30 420,30 420,40 " style="fill:white; stroke-width:1; stroke:black; " description="&lt;b&gt;OLGNLAKD_00751&lt;/b&gt;&lt;br&gt;ABC transporter ATP-binding protein uup&lt;br&gt;Location: 284440 - 286255" locus_tag="OLGNLAKD_00751" class="clusterblast-orf" id="subclusterblast-1_q10_0_all"  />
<polygon points="497,40 502,40 507,35 502,30 497,30 497,40 " style="fill:white; stroke-width:1; stroke:black; " description="&lt;b&gt;OLGNLAKD_00752&lt;/b&gt;&lt;br&gt;hypothetical protein&lt;br&gt;Location: 286344 - 286599" locus_tag="OLGNLAKD_00752" class="clusterblast-orf" id="subclusterblast-1_q11_0_all"  />
<polygon points="510,40 550,40 555,35 550,30 510,30 510,40 " style="fill:white; stroke-width:1; stroke:black; " description="&lt;b&gt;OLGNLAKD_00753&lt;/b&gt;&lt;br&gt;Succinyl-CoA--L-malate CoA-transferase beta subunit&lt;br&gt;Location: 286688 - 287792" locus_tag="OLGNLAKD_00753" class="clusterblast-orf" id="subclusterblast-1_q12_0_all"  />
<polygon points="557,35 562,30 587,30 587,40 562,40 557,35 " style="fill:white; stroke-width:1; stroke:black; " description="&lt;b&gt;OLGNLAKD_00754&lt;/b&gt;&lt;br&gt;hypothetical protein&lt;br&gt;Location: 287853 - 288600" locus_tag="OLGNLAKD_00754" class="clusterblast-orf" id="subclusterblast-1_q13_0_all"  />
<polygon points="593,40 634,40 639,35 634,30 593,30 593,40 " style="fill:white; stroke-width:1; stroke:black; " description="&lt;b&gt;OLGNLAKD_00755&lt;/b&gt;&lt;br&gt;Aspartate aminotransferase&lt;br&gt;Location: 288749 - 289889" locus_tag="OLGNLAKD_00755" class="clusterblast-orf" id="subclusterblast-1_q14_0_all"  />
<polygon points="641,40 685,40 690,35 685,30 641,30 641,40 " style="fill:white; stroke-width:1; stroke:black; " description="&lt;b&gt;OLGNLAKD_00756&lt;/b&gt;&lt;br&gt;N-acetylmuramoyl-L-alanine amidase AmiC&lt;br&gt;Location: 289944 - 291162" locus_tag="OLGNLAKD_00756" class="clusterblast-orf" id="subclusterblast-1_q15_0_all"  />
<polygon points="701,40 708,40 713,35 708,30 701,30 701,40 " style="fill:white; stroke-width:1; stroke:black; " description="&lt;b&gt;OLGNLAKD_00757&lt;/b&gt;&lt;br&gt;Inner membrane protein YjcH&lt;br&gt;Location: 291457 - 291751" locus_tag="OLGNLAKD_00757" class="clusterblast-orf" id="subclusterblast-1_q16_0_all"  />
<polygon points="714,40 775,40 780,35 775,30 714,30 714,40 " style="fill:white; stroke-width:1; stroke:black; " description="&lt;b&gt;OLGNLAKD_00758&lt;/b&gt;&lt;br&gt;Cation/acetate symporter ActP&lt;br&gt;Location: 291759 - 293415" locus_tag="OLGNLAKD_00758" class="clusterblast-orf" id="subclusterblast-1_q17_0_all"  />
</g>
</svg>
