<svg xmlns="http://www.w3.org/2000/svg" xmlns:xlink="http://www.w3.org/1999/xlink" version="1.1" x="0" y="0" height="230" width="800" viewBox="0 0 800 230" preserveAspectRatio="none"  >
<g label="Query sequence" class="clusterblast-cluster"  >
<text x="5" y="20" class="clusterblast-acc"  >
Query sequence</text>
<line x1="10" y1="35" x2="778.0" y2="35" style="stroke-width:1; stroke:grey; "  />
<polygon points="126,35 131,30 170,30 170,40 131,40 126,35 " style="fill:#d81515; stroke-width:1; stroke:black; " description="&lt;b&gt;BNFEMFIJ_03661&lt;/b&gt;&lt;br&gt;hypothetical protein&lt;br&gt;Location: 4605 - 5094" locus_tag="BNFEMFIJ_03661" class="clusterblast-orf" id="dummy-1_q0_0_all"  />
<polygon points="191,40 233,40 238,35 233,30 191,30 191,40 " style="fill:#15d863; stroke-width:1; stroke:black; " description="&lt;b&gt;BNFEMFIJ_03662&lt;/b&gt;&lt;br&gt;L-2,4-diaminobutyric acid acetyltransferase&lt;br&gt;Location: 5329 - 5857" locus_tag="BNFEMFIJ_03662" class="clusterblast-orf" id="dummy-1_q1_0_all"  />
<polygon points="242,40 352,40 357,35 352,30 242,30 242,40 " style="fill:#1563d8; stroke-width:1; stroke:black; " description="&lt;b&gt;BNFEMFIJ_03663&lt;/b&gt;&lt;br&gt;Diaminobutyrate--2-oxoglutarate transaminase&lt;br&gt;Location: 5904 - 7197" locus_tag="BNFEMFIJ_03663" class="clusterblast-orf" id="dummy-1_q2_0_all"  />
<polygon points="357,40 387,40 392,35 387,30 357,30 357,40 " style="fill:#b115d8; stroke-width:1; stroke:black; " description="&lt;b&gt;BNFEMFIJ_03664&lt;/b&gt;&lt;br&gt;L-ectoine synthase&lt;br&gt;Location: 7203 - 7596" locus_tag="BNFEMFIJ_03664" class="clusterblast-orf" id="dummy-1_q3_0_all"  />
<polygon points="399,40 518,40 523,35 518,30 399,30 399,40 " style="fill:#b1d815; stroke-width:1; stroke:black; " description="&lt;b&gt;BNFEMFIJ_03665&lt;/b&gt;&lt;br&gt;Aspartate kinase Ask Ect&lt;br&gt;Location: 7675 - 9067" locus_tag="BNFEMFIJ_03665" class="clusterblast-orf" id="dummy-1_q4_0_all"  />
<polygon points="543,40 596,40 601,35 596,30 543,30 543,40 " style="fill:white; stroke-width:1; stroke:black; " description="&lt;b&gt;BNFEMFIJ_03666&lt;/b&gt;&lt;br&gt;Intermembrane transport protein YebS&lt;br&gt;Location: 9291 - 9951" locus_tag="BNFEMFIJ_03666" class="clusterblast-orf" id="dummy-1_q5_0_all"  />
<polygon points="598,40 649,40 654,35 649,30 598,30 598,40 " style="fill:white; stroke-width:1; stroke:black; " description="&lt;b&gt;BNFEMFIJ_03667&lt;/b&gt;&lt;br&gt;Intermembrane transport protein PqiA&lt;br&gt;Location: 9917 - 10547" locus_tag="BNFEMFIJ_03667" class="clusterblast-orf" id="dummy-1_q6_0_all"  />
</g>
<g label="NZ_WIND01000003" description="NZ_WIND01000003 (260429-270822): Rhodobacteraceae bacterium 2CG4 NODE 3 lengt... (41% of genes show similarity), ectoine" class="clusterblast-cluster"  >
<text x="5" y="70" class="clusterblast-acc"  >
<a xlink:href="https://antismash-db.secondarymetabolites.org/area.html?record=NZ_WIND01000003&amp;start=260429&amp;end=270822" target="_blank">NZ_WIND01000003 (260429-270822)</a>: Rhodobacteraceae bacterium 2CG4 NODE 3 lengt... (41% of genes show similarity), ectoine</text>
<line x1="10" y1="85" x2="778.0" y2="85" style="stroke-width:1; stroke:grey; "  />
</g>
<g id="a1_000"  >
<polygon points="0,85 5,80 16,80 16,90 5,90 0,85 " style="fill:white; stroke-width:1; stroke:black; " description="&lt;b&gt;GE300_RS06850&lt;/b&gt;&lt;br&gt;DUF465 domain-containing protein&lt;br&gt;Location: 261454 - 261645" locus_tag="GE300_RS06850" class="clusterblast-orf" id="dummy-1_h1_1_0"  />
</g>
<g id="a1_001"  >
<polygon points="23,85 28,80 102,80 102,90 28,90 23,85 " style="fill:white; stroke-width:1; stroke:black; " description="&lt;b&gt;GE300_RS06855&lt;/b&gt;&lt;br&gt;ribokinase&lt;br&gt;Location: 261717 - 262607" locus_tag="GE300_RS06855" class="clusterblast-orf" id="dummy-1_h1_1_1"  />
</g>
<g id="a1_002"  >
<polygon points="119,85 124,80 165,80 165,90 124,90 119,85 " style="fill:#d81515; stroke-width:1; stroke:black; " description="&lt;b&gt;GE300_RS06860&lt;/b&gt;&lt;br&gt;MarR family transcriptional regulator&lt;br&gt;Location: 262800 - 263312&lt;br&gt;&lt;br&gt;&lt;b&gt;BlastP hit with BNFEMFIJ_03661&lt;/b&gt;&lt;br&gt;Percentage identity: 69&lt;br&gt;Percentage coverage: 98&lt;br&gt;BLAST bit score: 216&lt;br&gt;E-value: 8.11e-71" locus_tag="GE300_RS06860" class="clusterblast-orf" id="dummy-1_h1_1_2"  />
</g>
<g id="a1_003"  >
<polygon points="185,90 228,90 233,85 228,80 185,80 185,90 " style="fill:#15d863; stroke-width:1; stroke:black; " description="&lt;b&gt;GE300_RS06865&lt;/b&gt;&lt;br&gt;diaminobutyrate acetyltransferase&lt;br&gt;Location: 263545 - 264084&lt;br&gt;&lt;br&gt;&lt;b&gt;BlastP hit with BNFEMFIJ_03662&lt;/b&gt;&lt;br&gt;Percentage identity: 66&lt;br&gt;Percentage coverage: 89&lt;br&gt;BLAST bit score: 224&lt;br&gt;E-value: 1.16e-73" locus_tag="GE300_RS06865" class="clusterblast-orf" id="dummy-1_h1_1_3"  />
</g>
<g id="a1_004"  >
<polygon points="238,90 347,90 352,85 347,80 238,80 238,90 " style="fill:#1563d8; stroke-width:1; stroke:black; " description="&lt;b&gt;GE300_RS06870&lt;/b&gt;&lt;br&gt;diaminobutyrate--2-oxoglutarate transaminase&lt;br&gt;Location: 264136 - 265425&lt;br&gt;&lt;br&gt;&lt;b&gt;BlastP hit with BNFEMFIJ_03663&lt;/b&gt;&lt;br&gt;Percentage identity: 76&lt;br&gt;Percentage coverage: 100&lt;br&gt;BLAST bit score: 660&lt;br&gt;E-value: 6.61e-238" locus_tag="GE300_RS06870" class="clusterblast-orf" id="dummy-1_h1_1_4"  />
</g>
<g id="a1_005"  >
<polygon points="353,90 383,90 388,85 383,80 353,80 353,90 " style="fill:#b115d8; stroke-width:1; stroke:black; " description="&lt;b&gt;GE300_RS06875&lt;/b&gt;&lt;br&gt;L-ectoine synthase&lt;br&gt;Location: 265430 - 265822&lt;br&gt;&lt;br&gt;&lt;b&gt;BlastP hit with BNFEMFIJ_03664&lt;/b&gt;&lt;br&gt;Percentage identity: 81&lt;br&gt;Percentage coverage: 98&lt;br&gt;BLAST bit score: 220&lt;br&gt;E-value: 8.99e-74" locus_tag="GE300_RS06875" class="clusterblast-orf" id="dummy-1_h1_1_5"  />
</g>
<g id="a1_006"  >
<polygon points="386,90 514,90 519,85 514,80 386,80 386,90 " style="fill:#b1d815; stroke-width:1; stroke:black; " description="&lt;b&gt;GE300_RS06880&lt;/b&gt;&lt;br&gt;aspartate kinase&lt;br&gt;Location: 265803 - 267296&lt;br&gt;&lt;br&gt;&lt;b&gt;BlastP hit with BNFEMFIJ_03665&lt;/b&gt;&lt;br&gt;Percentage identity: 77&lt;br&gt;Percentage coverage: 98&lt;br&gt;BLAST bit score: 689&lt;br&gt;E-value: 7.91e-248" locus_tag="GE300_RS06880" class="clusterblast-orf" id="dummy-1_h1_1_6"  />
</g>
<g id="a1_007"  >
<polygon points="528,85 533,80 553,80 553,90 533,90 528,85 " style="fill:white; stroke-width:1; stroke:black; " description="&lt;b&gt;GE300_RS06885&lt;/b&gt;&lt;br&gt;hypothetical protein&lt;br&gt;Location: 267398 - 267685" locus_tag="GE300_RS06885" class="clusterblast-orf" id="dummy-1_h1_1_7"  />
</g>
<g id="a1_008"  >
<polygon points="556,90 579,90 584,85 579,80 556,80 556,90 " style="fill:white; stroke-width:1; stroke:black; " description="&lt;b&gt;GE300_RS06890&lt;/b&gt;&lt;br&gt;IS256 family transposase&lt;br&gt;Location: 267721 - 268035" locus_tag="GE300_RS06890" class="clusterblast-orf" id="dummy-1_h1_1_8"  />
</g>
<g id="a1_009"  >
<polygon points="591,85 596,80 620,80 620,90 596,90 591,85 " style="fill:white; stroke-width:1; stroke:black; " description="&lt;b&gt;GE300_RS06895&lt;/b&gt;&lt;br&gt;YciI family protein&lt;br&gt;Location: 268114 - 268437" locus_tag="GE300_RS06895" class="clusterblast-orf" id="dummy-1_h1_1_9"  />
</g>
<g id="a1_0010"  >
<polygon points="619,85 624,80 698,80 698,90 624,90 619,85 " style="fill:white; stroke-width:1; stroke:black; " description="&lt;b&gt;GE300_RS06900&lt;/b&gt;&lt;br&gt;NAD-binding protein&lt;br&gt;Location: 268427 - 269314" locus_tag="GE300_RS06900" class="clusterblast-orf" id="dummy-1_h1_1_10"  />
</g>
<g id="a1_0011"  >
<polygon points="699,85 704,80 780,80 780,90 704,90 699,85 " style="fill:white; stroke-width:1; stroke:black; " description="&lt;b&gt;GE300_RS06905&lt;/b&gt;&lt;br&gt;amidohydrolase family protein&lt;br&gt;Location: 269327 - 270232" locus_tag="GE300_RS06905" class="clusterblast-orf" id="dummy-1_h1_1_11"  />
</g>
</svg>
