<svg xmlns="http://www.w3.org/2000/svg" xmlns:xlink="http://www.w3.org/1999/xlink" version="1.1" x="0" y="0" height="230" width="800" viewBox="0 0 800 230" preserveAspectRatio="none"  >
<g label="Query sequence" class="clusterblast-cluster"  >
<text x="5" y="20" class="clusterblast-acc"  >
Query sequence</text>
<line x1="10" y1="35" x2="778.0" y2="35" style="stroke-width:1; stroke:grey; "  />
<polygon points="0,35 5,30 29,30 29,40 5,40 0,35 " style="fill:white; stroke-width:1; stroke:black; " description="&lt;b&gt;BNFEMFIJ_02923&lt;/b&gt;&lt;br&gt;Periplasmic dipeptide transport protein&lt;br&gt;Location: 359602 - 361219" locus_tag="BNFEMFIJ_02923" class="clusterblast-orf" id="dummy-1_q0_0_all"  />
<polygon points="35,40 59,40 64,35 59,30 35,30 35,40 " style="fill:white; stroke-width:1; stroke:black; " description="&lt;b&gt;BNFEMFIJ_02924&lt;/b&gt;&lt;br&gt;Acetolactate synthase isozyme 2 large subunit&lt;br&gt;Location: 361514 - 363131" locus_tag="BNFEMFIJ_02924" class="clusterblast-orf" id="dummy-1_q1_0_all"  />
<polygon points="64,40 83,40 88,35 83,30 64,30 64,40 " style="fill:white; stroke-width:1; stroke:black; " description="&lt;b&gt;BNFEMFIJ_02925&lt;/b&gt;&lt;br&gt;Renalase&lt;br&gt;Location: 363127 - 364414" locus_tag="BNFEMFIJ_02925" class="clusterblast-orf" id="dummy-1_q2_0_all"  />
<polygon points="87,35 92,30 107,30 107,40 92,40 87,35 " style="fill:white; stroke-width:1; stroke:black; " description="&lt;b&gt;BNFEMFIJ_02926&lt;/b&gt;&lt;br&gt;hypothetical protein&lt;br&gt;Location: 364405 - 365500" locus_tag="BNFEMFIJ_02926" class="clusterblast-orf" id="dummy-1_q3_0_all"  />
<polygon points="108,35 113,30 115,30 115,40 113,40 108,35 " style="fill:white; stroke-width:1; stroke:black; " description="&lt;b&gt;BNFEMFIJ_02927&lt;/b&gt;&lt;br&gt;Putative aminoacrylate peracid reductase RutC&lt;br&gt;Location: 365541 - 365916" locus_tag="BNFEMFIJ_02927" class="clusterblast-orf" id="dummy-1_q4_0_all"  />
<polygon points="115,35 120,30 140,30 140,40 120,40 115,35 " style="fill:#d81515; stroke-width:1; stroke:black; " description="&lt;b&gt;BNFEMFIJ_02928&lt;/b&gt;&lt;br&gt;NAD/NADP-dependent betaine aldehyde dehydrogenase&lt;br&gt;Location: 365919 - 367314" locus_tag="BNFEMFIJ_02928" class="clusterblast-orf" id="dummy-1_q5_0_all"  />
<polygon points="143,35 148,30 155,30 155,40 148,40 143,35 " style="fill:white; stroke-width:1; stroke:black; " description="&lt;b&gt;BNFEMFIJ_02929&lt;/b&gt;&lt;br&gt;hypothetical protein&lt;br&gt;Location: 367457 - 368120" locus_tag="BNFEMFIJ_02929" class="clusterblast-orf" id="dummy-1_q6_0_all"  />
<polygon points="156,35 161,30 186,30 186,40 161,40 156,35 " style="fill:white; stroke-width:1; stroke:black; " description="&lt;b&gt;BNFEMFIJ_02930&lt;/b&gt;&lt;br&gt;Acetone carboxylase alpha subunit&lt;br&gt;Location: 368183 - 369818" locus_tag="BNFEMFIJ_02930" class="clusterblast-orf" id="dummy-1_q7_0_all"  />
<polygon points="186,35 191,30 224,30 224,40 191,40 186,35 " style="fill:#63d815; stroke-width:1; stroke:black; " description="&lt;b&gt;BNFEMFIJ_02931&lt;/b&gt;&lt;br&gt;Acetophenone carboxylase gamma subunit&lt;br&gt;Location: 369819 - 371892" locus_tag="BNFEMFIJ_02931" class="clusterblast-orf" id="dummy-1_q8_0_all"  />
<polygon points="228,40 244,40 249,35 244,30 228,30 228,40 " style="fill:white; stroke-width:1; stroke:black; " description="&lt;b&gt;BNFEMFIJ_02932&lt;/b&gt;&lt;br&gt;hypothetical protein&lt;br&gt;Location: 372096 - 373272" locus_tag="BNFEMFIJ_02932" class="clusterblast-orf" id="dummy-1_q9_0_all"  />
<polygon points="249,35 254,30 285,30 285,40 254,40 249,35 " style="fill:#15b1d8; stroke-width:1; stroke:black; " description="&lt;b&gt;BNFEMFIJ_02933&lt;/b&gt;&lt;br&gt;hypothetical protein&lt;br&gt;Location: 373285 - 375235" locus_tag="BNFEMFIJ_02933" class="clusterblast-orf" id="dummy-1_q10_0_all"  />
<polygon points="287,35 292,30 307,30 307,40 292,40 287,35 " style="fill:white; stroke-width:1; stroke:black; " description="&lt;b&gt;BNFEMFIJ_02934&lt;/b&gt;&lt;br&gt;hypothetical protein&lt;br&gt;Location: 375317 - 376427" locus_tag="BNFEMFIJ_02934" class="clusterblast-orf" id="dummy-1_q11_0_all"  />
<polygon points="313,35 317,30 317,40 313,35 " style="fill:#b115d8; stroke-width:1; stroke:black; " description="&lt;b&gt;BNFEMFIJ_02935&lt;/b&gt;&lt;br&gt;hypothetical protein&lt;br&gt;Location: 376739 - 377000" locus_tag="BNFEMFIJ_02935" class="clusterblast-orf" id="dummy-1_q12_0_all"  />
<polygon points="318,35 323,30 340,30 340,40 323,40 318,35 " style="fill:#d86315; stroke-width:1; stroke:black; " description="&lt;b&gt;BNFEMFIJ_02936&lt;/b&gt;&lt;br&gt;Putative metal chaperone YciC&lt;br&gt;Location: 377021 - 378242" locus_tag="BNFEMFIJ_02936" class="clusterblast-orf" id="dummy-1_q13_0_all"  />
<polygon points="343,40 344,40 349,35 344,30 343,30 343,40 " style="fill:#15d815; stroke-width:1; stroke:black; " description="&lt;b&gt;BNFEMFIJ_02937&lt;/b&gt;&lt;br&gt;hypothetical protein&lt;br&gt;Location: 378424 - 378763" locus_tag="BNFEMFIJ_02937" class="clusterblast-orf" id="dummy-1_q14_0_all"  />
<polygon points="351,40 357,40 362,35 357,30 351,30 351,40 " style="fill:#1563d8; stroke-width:1; stroke:black; " description="&lt;b&gt;BNFEMFIJ_02938&lt;/b&gt;&lt;br&gt;hypothetical protein&lt;br&gt;Location: 378859 - 379423" locus_tag="BNFEMFIJ_02938" class="clusterblast-orf" id="dummy-1_q15_0_all"  />
<polygon points="361,40 427,40 432,35 427,30 361,30 361,40 " style="fill:#d815b1; stroke-width:1; stroke:black; " description="&lt;b&gt;BNFEMFIJ_02939&lt;/b&gt;&lt;br&gt;UDP-N-acetylmuramate--L-alanine ligase&lt;br&gt;Location: 379415 - 383294" locus_tag="BNFEMFIJ_02939" class="clusterblast-orf" id="dummy-1_q16_0_all"  />
<polygon points="432,40 448,40 453,35 448,30 432,30 432,40 " style="fill:#d8b115; stroke-width:1; stroke:black; " description="&lt;b&gt;BNFEMFIJ_02940&lt;/b&gt;&lt;br&gt;Beta-hexosaminidase A&lt;br&gt;Location: 383296 - 384442" locus_tag="BNFEMFIJ_02940" class="clusterblast-orf" id="dummy-1_q17_0_all"  />
<polygon points="454,35 459,30 469,30 469,40 459,40 454,35 " style="fill:white; stroke-width:1; stroke:black; " description="&lt;b&gt;BNFEMFIJ_02941&lt;/b&gt;&lt;br&gt;hypothetical protein&lt;br&gt;Location: 384488 - 385316" locus_tag="BNFEMFIJ_02941" class="clusterblast-orf" id="dummy-1_q18_0_all"  />
<polygon points="471,35 476,30 490,30 490,40 476,40 471,35 " style="fill:white; stroke-width:1; stroke:black; " description="&lt;b&gt;BNFEMFIJ_02942&lt;/b&gt;&lt;br&gt;Outer membrane transporter protein TsaT&lt;br&gt;Location: 385422 - 386463" locus_tag="BNFEMFIJ_02942" class="clusterblast-orf" id="dummy-1_q19_0_all"  />
<polygon points="491,35 496,30 514,30 514,40 496,40 491,35 " style="fill:#15d863; stroke-width:1; stroke:black; " description="&lt;b&gt;BNFEMFIJ_02943&lt;/b&gt;&lt;br&gt;C4-dicarboxylate TRAP transporter large permease protein DctM&lt;br&gt;Location: 386503 - 387793" locus_tag="BNFEMFIJ_02943" class="clusterblast-orf" id="dummy-1_q20_0_all"  />
<polygon points="514,35 519,30 523,30 523,40 519,40 514,35 " style="fill:white; stroke-width:1; stroke:black; " description="&lt;b&gt;BNFEMFIJ_02944&lt;/b&gt;&lt;br&gt;hypothetical protein&lt;br&gt;Location: 387792 - 388293" locus_tag="BNFEMFIJ_02944" class="clusterblast-orf" id="dummy-1_q21_0_all"  />
<polygon points="524,35 529,30 544,30 544,40 529,40 524,35 " style="fill:white; stroke-width:1; stroke:black; " description="&lt;b&gt;BNFEMFIJ_02945&lt;/b&gt;&lt;br&gt;Aldo-keto reductase YhdN&lt;br&gt;Location: 388327 - 389401" locus_tag="BNFEMFIJ_02945" class="clusterblast-orf" id="dummy-1_q22_0_all"  />
<polygon points="544,35 549,30 550,30 550,40 549,40 544,35 " style="fill:white; stroke-width:1; stroke:black; " description="&lt;b&gt;BNFEMFIJ_02946&lt;/b&gt;&lt;br&gt;hypothetical protein&lt;br&gt;Location: 389397 - 389769" locus_tag="BNFEMFIJ_02946" class="clusterblast-orf" id="dummy-1_q23_0_all"  />
<polygon points="552,40 559,40 564,35 559,30 552,30 552,40 " style="fill:#1515d8; stroke-width:1; stroke:black; " description="&lt;b&gt;BNFEMFIJ_02947&lt;/b&gt;&lt;br&gt;HTH-type transcriptional regulator McbR&lt;br&gt;Location: 389853 - 390501" locus_tag="BNFEMFIJ_02947" class="clusterblast-orf" id="dummy-1_q24_0_all"  />
<polygon points="565,35 570,30 572,30 572,40 570,40 565,35 " style="fill:white; stroke-width:1; stroke:black; " description="&lt;b&gt;BNFEMFIJ_02948&lt;/b&gt;&lt;br&gt;3-phenylpropionate/cinnamic acid dioxygenase ferredoxin subunit&lt;br&gt;Location: 390558 - 390972" locus_tag="BNFEMFIJ_02948" class="clusterblast-orf" id="dummy-1_q25_0_all"  />
<polygon points="573,35 578,30 593,30 593,40 578,40 573,35 " style="fill:white; stroke-width:1; stroke:black; " description="&lt;b&gt;BNFEMFIJ_02949&lt;/b&gt;&lt;br&gt;hypothetical protein&lt;br&gt;Location: 390993 - 392103" locus_tag="BNFEMFIJ_02949" class="clusterblast-orf" id="dummy-1_q26_0_all"  />
<polygon points="593,35 598,30 613,30 613,40 598,40 593,35 " style="fill:white; stroke-width:1; stroke:black; " description="&lt;b&gt;BNFEMFIJ_02950&lt;/b&gt;&lt;br&gt;hypothetical protein&lt;br&gt;Location: 392095 - 393178" locus_tag="BNFEMFIJ_02950" class="clusterblast-orf" id="dummy-1_q27_0_all"  />
<polygon points="613,35 618,30 649,30 649,40 618,40 613,35 " style="fill:white; stroke-width:1; stroke:black; " description="&lt;b&gt;BNFEMFIJ_02951&lt;/b&gt;&lt;br&gt;hypothetical protein&lt;br&gt;Location: 393192 - 395157" locus_tag="BNFEMFIJ_02951" class="clusterblast-orf" id="dummy-1_q28_0_all"  />
<polygon points="650,35 655,30 670,30 670,40 655,40 650,35 " style="fill:white; stroke-width:1; stroke:black; " description="&lt;b&gt;BNFEMFIJ_02952&lt;/b&gt;&lt;br&gt;hypothetical protein&lt;br&gt;Location: 395211 - 396300" locus_tag="BNFEMFIJ_02952" class="clusterblast-orf" id="dummy-1_q29_0_all"  />
<polygon points="673,40 677,40 682,35 677,30 673,30 673,40 " style="fill:white; stroke-width:1; stroke:black; " description="&lt;b&gt;BNFEMFIJ_02953&lt;/b&gt;&lt;br&gt;hypothetical protein&lt;br&gt;Location: 396458 - 396956" locus_tag="BNFEMFIJ_02953" class="clusterblast-orf" id="dummy-1_q30_0_all"  />
<polygon points="686,35 691,30 703,30 703,40 691,40 686,35 " style="fill:white; stroke-width:1; stroke:black; " description="&lt;b&gt;BNFEMFIJ_02954&lt;/b&gt;&lt;br&gt;HTH-type transcriptional regulator CynR&lt;br&gt;Location: 397190 - 398111" locus_tag="BNFEMFIJ_02954" class="clusterblast-orf" id="dummy-1_q31_0_all"  />
<polygon points="706,35 711,30 723,30 723,40 711,40 706,35 " style="fill:#d81563; stroke-width:1; stroke:black; " description="&lt;b&gt;BNFEMFIJ_02955&lt;/b&gt;&lt;br&gt;3-oxoacyl-[acyl-carrier-protein] reductase FabG&lt;br&gt;Location: 398299 - 399199" locus_tag="BNFEMFIJ_02955" class="clusterblast-orf" id="dummy-1_q32_0_all"  />
<polygon points="722,35 727,30 737,30 737,40 727,40 722,35 " style="fill:#b1d815; stroke-width:1; stroke:black; " description="&lt;b&gt;BNFEMFIJ_02956&lt;/b&gt;&lt;br&gt;Carnitinyl-CoA dehydratase&lt;br&gt;Location: 399195 - 400008" locus_tag="BNFEMFIJ_02956" class="clusterblast-orf" id="dummy-1_q33_0_all"  />
<polygon points="737,35 742,30 769,30 769,40 742,40 737,35 " style="fill:#15d8b1; stroke-width:1; stroke:black; " description="&lt;b&gt;BNFEMFIJ_02957&lt;/b&gt;&lt;br&gt;3-[(3aS,4S,7aS)-7a-methyl-1, 5-dioxo-octahydro-1H-inden-4-yl]propanoyl:CoA ligase&lt;br&gt;Location: 400004 - 401720" locus_tag="BNFEMFIJ_02957" class="clusterblast-orf" id="dummy-1_q34_0_all"  />
<polygon points="771,40 775,40 780,35 775,30 771,30 771,40 " style="fill:#6315d8; stroke-width:1; stroke:black; " description="&lt;b&gt;BNFEMFIJ_02958&lt;/b&gt;&lt;br&gt;Transcriptional regulator SlyA&lt;br&gt;Location: 401842 - 402328" locus_tag="BNFEMFIJ_02958" class="clusterblast-orf" id="dummy-1_q35_0_all"  />
</g>
<g label="NZ_SAVA01000002" description="NZ_SAVA01000002 (127464-171295): Sinirhodobacter hungdaonensis strain CGMCC 1... (6% of genes show similarity), NRPS-like" class="clusterblast-cluster"  >
<text x="5" y="70" class="clusterblast-acc"  >
<a xlink:href="https://antismash-db.secondarymetabolites.org/area.html?record=NZ_SAVA01000002&amp;start=127464&amp;end=171295" target="_blank">NZ_SAVA01000002 (127464-171295)</a>: Sinirhodobacter hungdaonensis strain CGMCC 1... (6% of genes show similarity), NRPS-like</text>
<line x1="10" y1="85" x2="778.0" y2="85" style="stroke-width:1; stroke:grey; "  />
</g>
<g id="a1_000"  >
<polygon points="7,85 12,80 26,80 26,90 12,90 7,85 " style="fill:white; stroke-width:1; stroke:black; " description="&lt;b&gt;EOW66_RS03930&lt;/b&gt;&lt;br&gt;ATP-binding cassette domain-containing protein&lt;br&gt;Location: 170755 - 169694" locus_tag="EOW66_RS03930" class="clusterblast-orf" id="dummy-1_h1_2_0"  />
</g>
<g id="a1_001"  >
<polygon points="32,85 37,80 46,80 46,90 37,90 32,85 " style="fill:white; stroke-width:1; stroke:black; " description="&lt;b&gt;EOW66_RS03925&lt;/b&gt;&lt;br&gt;GNAT family N-acetyltransferase&lt;br&gt;Location: 169345 - 168587" locus_tag="EOW66_RS03925" class="clusterblast-orf" id="dummy-1_h1_2_1"  />
</g>
<g id="a1_002"  >
<polygon points="48,85 53,80 55,80 55,90 53,90 48,85 " style="fill:white; stroke-width:1; stroke:black; " description="&lt;b&gt;EOW66_RS03920&lt;/b&gt;&lt;br&gt;outer membrane protein assembly factor BamE&lt;br&gt;Location: 168499 - 168077" locus_tag="EOW66_RS03920" class="clusterblast-orf" id="dummy-1_h1_2_2"  />
</g>
<g id="a1_003"  >
<polygon points="58,90 63,90 68,85 63,80 58,80 58,90 " style="fill:white; stroke-width:1; stroke:black; " description="&lt;b&gt;EOW66_RS03915&lt;/b&gt;&lt;br&gt;DUF177 domain-containing protein&lt;br&gt;Location: 167925 - 167368" locus_tag="EOW66_RS03915" class="clusterblast-orf" id="dummy-1_h1_2_3"  />
</g>
<g id="a1_004"  >
<polygon points="72,90 76,85 72,80 72,90 " style="fill:white; stroke-width:1; stroke:black; " description="&lt;b&gt;EOW66_RS03910&lt;/b&gt;&lt;br&gt;50S ribosomal protein L32&lt;br&gt;Location: 167160 - 166954" locus_tag="EOW66_RS03910" class="clusterblast-orf" id="dummy-1_h1_2_4"  />
</g>
<g id="a1_005"  >
<polygon points="76,90 93,90 98,85 93,80 76,80 76,90 " style="fill:white; stroke-width:1; stroke:black; " description="&lt;b&gt;EOW66_RS03905&lt;/b&gt;&lt;br&gt;phosphate acyltransferase PlsX&lt;br&gt;Location: 166929 - 165766" locus_tag="EOW66_RS03905" class="clusterblast-orf" id="dummy-1_h1_2_5"  />
</g>
<g id="a1_006"  >
<polygon points="98,90 110,90 115,85 110,80 98,80 98,90 " style="fill:white; stroke-width:1; stroke:black; " description="&lt;b&gt;EOW66_RS03900&lt;/b&gt;&lt;br&gt;ketoacyl-ACP synthase III&lt;br&gt;Location: 165769 - 164795" locus_tag="EOW66_RS03900" class="clusterblast-orf" id="dummy-1_h1_2_6"  />
</g>
<g id="a1_007"  >
<polygon points="118,90 118,90 123,85 118,80 118,80 118,90 " style="fill:white; stroke-width:1; stroke:black; " description="&lt;b&gt;EOW66_RS03895&lt;/b&gt;&lt;br&gt;integration host factor subunit alpha&lt;br&gt;Location: 164659 - 164357" locus_tag="EOW66_RS03895" class="clusterblast-orf" id="dummy-1_h1_2_7"  />
</g>
<g id="a1_008"  >
<polygon points="124,90 128,85 124,80 124,90 " style="fill:white; stroke-width:1; stroke:black; " description="&lt;b&gt;EOW66_RS03890&lt;/b&gt;&lt;br&gt;MerR family transcriptional regulator&lt;br&gt;Location: 164330 - 164076" locus_tag="EOW66_RS03890" class="clusterblast-orf" id="dummy-1_h1_2_8"  />
</g>
<g id="a1_009"  >
<polygon points="144,90 158,90 163,85 158,80 144,80 144,90 " style="fill:white; stroke-width:1; stroke:black; " description="&lt;b&gt;EOW66_RS03875&lt;/b&gt;&lt;br&gt;2'-deoxycytidine 5'-triphosphate deaminase&lt;br&gt;Location: 163241 - 162162" locus_tag="EOW66_RS03875" class="clusterblast-orf" id="dummy-1_h1_2_9"  />
</g>
<g id="a1_0010"  >
<polygon points="168,90 191,90 196,85 191,80 168,80 168,90 " style="fill:white; stroke-width:1; stroke:black; " description="&lt;b&gt;EOW66_RS03870&lt;/b&gt;&lt;br&gt;Asp-tRNA(Asn)/Glu-tRNA(Gln) amidotransferase subunit GatB&lt;br&gt;Location: 161900 - 160383" locus_tag="EOW66_RS03870" class="clusterblast-orf" id="dummy-1_h1_2_10"  />
</g>
<g id="a1_0011"  >
<polygon points="197,85 202,80 207,80 207,90 202,90 197,85 " style="fill:white; stroke-width:1; stroke:black; " description="&lt;b&gt;EOW66_RS03865&lt;/b&gt;&lt;br&gt;flavin reductase family protein&lt;br&gt;Location: 160331 - 159789" locus_tag="EOW66_RS03865" class="clusterblast-orf" id="dummy-1_h1_2_11"  />
</g>
<g id="a1_0012"  >
<polygon points="211,90 213,90 218,85 213,80 211,80 211,90 " style="fill:white; stroke-width:1; stroke:black; " description="&lt;b&gt;EOW66_RS03860&lt;/b&gt;&lt;br&gt;DUF4177 domain-containing protein&lt;br&gt;Location: 159544 - 159176" locus_tag="EOW66_RS03860" class="clusterblast-orf" id="dummy-1_h1_2_12"  />
</g>
<g id="a1_0013"  >
<polygon points="217,85 222,80 223,80 223,90 222,90 217,85 " style="fill:white; stroke-width:1; stroke:black; " description="&lt;b&gt;EOW66_RS03855&lt;/b&gt;&lt;br&gt;BolA family transcriptional regulator&lt;br&gt;Location: 159233 - 158910" locus_tag="EOW66_RS03855" class="clusterblast-orf" id="dummy-1_h1_2_13"  />
</g>
<g id="a1_0014"  >
<polygon points="225,90 231,90 236,85 231,80 225,80 225,90 " style="fill:white; stroke-width:1; stroke:black; " description="&lt;b&gt;EOW66_RS03850&lt;/b&gt;&lt;br&gt;J domain-containing protein&lt;br&gt;Location: 158797 - 158174" locus_tag="EOW66_RS03850" class="clusterblast-orf" id="dummy-1_h1_2_14"  />
</g>
<g id="a1_0015"  >
<polygon points="237,85 242,80 245,80 245,90 242,90 237,85 " style="fill:white; stroke-width:1; stroke:black; " description="&lt;b&gt;EOW66_RS03845&lt;/b&gt;&lt;br&gt;SufE family protein&lt;br&gt;Location: 158110 - 157682" locus_tag="EOW66_RS03845" class="clusterblast-orf" id="dummy-1_h1_2_15"  />
</g>
<g id="a1_0016"  >
<polygon points="248,90 252,90 257,85 252,80 248,80 248,90 " style="fill:white; stroke-width:1; stroke:black; " description="&lt;b&gt;EOW66_RS20295&lt;/b&gt;&lt;br&gt;hypothetical protein&lt;br&gt;Location: 157544 - 157050" locus_tag="EOW66_RS20295" class="clusterblast-orf" id="dummy-1_h1_2_16"  />
</g>
<g id="a1_0017"  >
<polygon points="258,90 273,90 278,85 273,80 258,80 258,90 " style="fill:white; stroke-width:1; stroke:black; " description="&lt;b&gt;EOW66_RS03830&lt;/b&gt;&lt;br&gt;histidinol-phosphate transaminase&lt;br&gt;Location: 156972 - 155911" locus_tag="EOW66_RS03830" class="clusterblast-orf" id="dummy-1_h1_2_17"  />
</g>
<g id="a1_0018"  >
<polygon points="278,85 283,80 299,80 299,90 283,90 278,85 " style="fill:white; stroke-width:1; stroke:black; " description="&lt;b&gt;EOW66_RS03825&lt;/b&gt;&lt;br&gt;ribonuclease D&lt;br&gt;Location: 155871 - 154714" locus_tag="EOW66_RS03825" class="clusterblast-orf" id="dummy-1_h1_2_18"  />
</g>
<g id="a1_0019"  >
<polygon points="304,85 309,80 315,80 315,90 309,90 304,85 " style="fill:white; stroke-width:1; stroke:black; " description="&lt;b&gt;EOW66_RS03820&lt;/b&gt;&lt;br&gt;phosphoribosylglycinamide formyltransferase&lt;br&gt;Location: 154461 - 153874" locus_tag="EOW66_RS03820" class="clusterblast-orf" id="dummy-1_h1_2_19"  />
</g>
<g id="a1_0020"  >
<polygon points="315,85 320,80 334,80 334,90 320,90 315,85 " style="fill:white; stroke-width:1; stroke:black; " description="&lt;b&gt;EOW66_RS03815&lt;/b&gt;&lt;br&gt;phosphoribosylformylglycinamidine cyclo-ligase&lt;br&gt;Location: 153877 - 152831" locus_tag="EOW66_RS03815" class="clusterblast-orf" id="dummy-1_h1_2_20"  />
</g>
<g id="a1_0021"  >
<polygon points="338,90 342,85 338,80 338,90 " style="fill:white; stroke-width:1; stroke:black; " description="&lt;b&gt;EOW66_RS03810&lt;/b&gt;&lt;br&gt;hypothetical protein&lt;br&gt;Location: 152607 - 152359" locus_tag="EOW66_RS03810" class="clusterblast-orf" id="dummy-1_h1_2_21"  />
</g>
<g id="a1_0022"  >
<polygon points="352,90 357,90 362,85 357,80 352,80 352,90 " style="fill:#1563d8; stroke-width:1; stroke:black; " description="&lt;b&gt;EOW66_RS03800&lt;/b&gt;&lt;br&gt;YdcF family protein&lt;br&gt;Location: 151851 - 151288&lt;br&gt;&lt;br&gt;&lt;b&gt;BlastP hit with BNFEMFIJ_02938&lt;/b&gt;&lt;br&gt;Percentage identity: 75&lt;br&gt;Percentage coverage: 100&lt;br&gt;BLAST bit score: 297&lt;br&gt;E-value: 2.03e-102" locus_tag="EOW66_RS03800" class="clusterblast-orf" id="dummy-1_h1_2_22"  />
</g>
<g id="a1_0023"  >
<polygon points="362,90 427,90 432,85 427,80 362,80 362,90 " style="fill:#d815b1; stroke-width:1; stroke:black; " description="&lt;b&gt;EOW66_RS03795&lt;/b&gt;&lt;br&gt;amino acid adenylation domain-containing protein&lt;br&gt;Location: 151295 - 147465&lt;br&gt;&lt;br&gt;&lt;b&gt;BlastP hit with BNFEMFIJ_02939&lt;/b&gt;&lt;br&gt;Percentage identity: 72&lt;br&gt;Percentage coverage: 98&lt;br&gt;BLAST bit score: 1777&lt;br&gt;E-value: 0.0" locus_tag="EOW66_RS03795" class="clusterblast-orf" id="dummy-1_h1_2_23"  />
</g>
<g id="a1_0024"  >
<polygon points="435,90 449,90 454,85 449,80 435,80 435,90 " style="fill:#d8b115; stroke-width:1; stroke:black; " description="&lt;b&gt;EOW66_RS03790&lt;/b&gt;&lt;br&gt;glycoside hydrolase family 3 protein&lt;br&gt;Location: 147286 - 146219&lt;br&gt;&lt;br&gt;&lt;b&gt;BlastP hit with BNFEMFIJ_02940&lt;/b&gt;&lt;br&gt;Percentage identity: 75&lt;br&gt;Percentage coverage: 91&lt;br&gt;BLAST bit score: 518&lt;br&gt;E-value: 9.34e-184" locus_tag="EOW66_RS03790" class="clusterblast-orf" id="dummy-1_h1_2_24"  />
</g>
<g id="a1_0025"  >
<polygon points="457,90 470,90 475,85 470,80 457,80 457,90 " style="fill:white; stroke-width:1; stroke:black; " description="&lt;b&gt;EOW66_RS03785&lt;/b&gt;&lt;br&gt;IS5 family transposase&lt;br&gt;Location: 146078 - 145110" locus_tag="EOW66_RS03785" class="clusterblast-orf" id="dummy-1_h1_2_25"  />
</g>
<g id="a1_0026"  >
<polygon points="479,85 484,80 489,80 489,90 484,90 479,85 " style="fill:white; stroke-width:1; stroke:black; " description="&lt;b&gt;EOW66_RS03780&lt;/b&gt;&lt;br&gt;TetR/AcrR family transcriptional regulator&lt;br&gt;Location: 144862 - 144299" locus_tag="EOW66_RS03780" class="clusterblast-orf" id="dummy-1_h1_2_26"  />
</g>
<g id="a1_0027"  >
<polygon points="492,90 506,90 511,85 506,80 492,80 492,90 " style="fill:white; stroke-width:1; stroke:black; " description="&lt;b&gt;EOW66_RS03775&lt;/b&gt;&lt;br&gt;HlyD family efflux transporter periplasmic adaptor subunit&lt;br&gt;Location: 144182 - 143118" locus_tag="EOW66_RS03775" class="clusterblast-orf" id="dummy-1_h1_2_27"  />
</g>
<g id="a1_0028"  >
<polygon points="511,90 556,90 561,85 556,80 511,80 511,90 " style="fill:white; stroke-width:1; stroke:black; " description="&lt;b&gt;EOW66_RS03770&lt;/b&gt;&lt;br&gt;ribosome-associated ATPase/putative transporter RbbA&lt;br&gt;Location: 143121 - 140407" locus_tag="EOW66_RS03770" class="clusterblast-orf" id="dummy-1_h1_2_28"  />
</g>
<g id="a1_0029"  >
<polygon points="561,90 576,90 581,85 576,80 561,80 561,90 " style="fill:white; stroke-width:1; stroke:black; " description="&lt;b&gt;EOW66_RS03765&lt;/b&gt;&lt;br&gt;ABC transporter permease&lt;br&gt;Location: 140406 - 139294" locus_tag="EOW66_RS03765" class="clusterblast-orf" id="dummy-1_h1_2_29"  />
</g>
<g id="a1_0030"  >
<polygon points="599,90 604,90 609,85 604,80 599,80 599,90 " style="fill:white; stroke-width:1; stroke:black; " description="&lt;b&gt;EOW66_RS03760&lt;/b&gt;&lt;br&gt;hypothetical protein&lt;br&gt;Location: 138299 - 137736" locus_tag="EOW66_RS03760" class="clusterblast-orf" id="dummy-1_h1_2_30"  />
</g>
<g id="a1_0031"  >
<polygon points="609,90 613,85 609,80 609,90 " style="fill:white; stroke-width:1; stroke:black; " description="&lt;b&gt;EOW66_RS03755&lt;/b&gt;&lt;br&gt;hypothetical protein&lt;br&gt;Location: 137739 - 137560" locus_tag="EOW66_RS03755" class="clusterblast-orf" id="dummy-1_h1_2_31"  />
</g>
<g id="a1_0032"  >
<polygon points="617,85 619,80 619,90 617,85 " style="fill:white; stroke-width:1; stroke:black; " description="&lt;b&gt;EOW66_RS03750&lt;/b&gt;&lt;br&gt;IS5/IS1182 family transposase&lt;br&gt;Location: 137323 - 137231" locus_tag="EOW66_RS03750" class="clusterblast-orf" id="dummy-1_h1_2_32"  />
</g>
<g id="a1_0033"  >
<polygon points="622,90 626,90 631,85 626,80 622,80 622,90 " style="fill:white; stroke-width:1; stroke:black; " description="&lt;b&gt;EOW66_RS03745&lt;/b&gt;&lt;br&gt;MarR family transcriptional regulator&lt;br&gt;Location: 137053 - 136523" locus_tag="EOW66_RS03745" class="clusterblast-orf" id="dummy-1_h1_2_33"  />
</g>
<g id="a1_0034"  >
<polygon points="631,90 641,90 646,85 641,80 631,80 631,90 " style="fill:white; stroke-width:1; stroke:black; " description="&lt;b&gt;EOW66_RS03740&lt;/b&gt;&lt;br&gt;DNA alkylation repair protein&lt;br&gt;Location: 136526 - 135744" locus_tag="EOW66_RS03740" class="clusterblast-orf" id="dummy-1_h1_2_34"  />
</g>
<g id="a1_0035"  >
<polygon points="646,90 647,90 652,85 647,80 646,80 646,90 " style="fill:white; stroke-width:1; stroke:black; " description="&lt;b&gt;EOW66_RS03735&lt;/b&gt;&lt;br&gt;hypothetical protein&lt;br&gt;Location: 135729 - 135382" locus_tag="EOW66_RS03735" class="clusterblast-orf" id="dummy-1_h1_2_35"  />
</g>
<g id="a1_0036"  >
<polygon points="658,85 663,80 689,80 689,90 663,90 658,85 " style="fill:white; stroke-width:1; stroke:black; " description="&lt;b&gt;EOW66_RS03730&lt;/b&gt;&lt;br&gt;2-isopropylmalate synthase&lt;br&gt;Location: 135043 - 133379" locus_tag="EOW66_RS03730" class="clusterblast-orf" id="dummy-1_h1_2_36"  />
</g>
<g id="a1_0037"  >
<polygon points="695,90 704,90 709,85 704,80 695,80 695,90 " style="fill:white; stroke-width:1; stroke:black; " description="&lt;b&gt;EOW66_RS03725&lt;/b&gt;&lt;br&gt;helix-turn-helix transcriptional regulator&lt;br&gt;Location: 133041 - 132274" locus_tag="EOW66_RS03725" class="clusterblast-orf" id="dummy-1_h1_2_37"  />
</g>
<g id="a1_0038"  >
<polygon points="711,85 716,80 729,80 729,90 716,90 711,85 " style="fill:white; stroke-width:1; stroke:black; " description="&lt;b&gt;EOW66_RS03720&lt;/b&gt;&lt;br&gt;IS5 family transposase&lt;br&gt;Location: 132177 - 131161" locus_tag="EOW66_RS03720" class="clusterblast-orf" id="dummy-1_h1_2_38"  />
</g>
<g id="a1_0039"  >
<polygon points="731,85 736,80 739,80 739,90 736,90 731,85 " style="fill:white; stroke-width:1; stroke:black; " description="&lt;b&gt;EOW66_RS03715&lt;/b&gt;&lt;br&gt;DUF3224 domain-containing protein&lt;br&gt;Location: 131051 - 130647" locus_tag="EOW66_RS03715" class="clusterblast-orf" id="dummy-1_h1_2_39"  />
</g>
<g id="a1_0040"  >
<polygon points="744,85 747,80 747,90 744,85 " style="fill:white; stroke-width:1; stroke:black; " description="&lt;b&gt;EOW66_RS03710&lt;/b&gt;&lt;br&gt;transposase&lt;br&gt;Location: 130381 - 130217" locus_tag="EOW66_RS03710" class="clusterblast-orf" id="dummy-1_h1_2_40"  />
</g>
<g id="a1_0041"  >
<polygon points="751,90 756,90 761,85 756,80 751,80 751,90 " style="fill:white; stroke-width:1; stroke:black; " description="&lt;b&gt;EOW66_RS03705&lt;/b&gt;&lt;br&gt;hypothetical protein&lt;br&gt;Location: 129948 - 129406" locus_tag="EOW66_RS03705" class="clusterblast-orf" id="dummy-1_h1_2_41"  />
</g>
<g id="a1_0042"  >
<polygon points="764,85 769,80 772,80 772,90 769,90 764,85 " style="fill:white; stroke-width:1; stroke:black; " description="&lt;b&gt;EOW66_RS03700&lt;/b&gt;&lt;br&gt;transposase&lt;br&gt;Location: 129276 - 128797" locus_tag="EOW66_RS03700" class="clusterblast-orf" id="dummy-1_h1_2_42"  />
</g>
</svg>
