<svg xmlns="http://www.w3.org/2000/svg" xmlns:xlink="http://www.w3.org/1999/xlink" version="1.1" x="0" y="0" height="230" width="800" viewBox="0 0 800 230" preserveAspectRatio="none"  >
<g label="Query sequence" class="clusterblast-cluster"  >
<text x="5" y="20" class="clusterblast-acc"  >
Query sequence</text>
<line x1="10" y1="35" x2="778.0" y2="35" style="stroke-width:1; stroke:grey; "  />
<polygon points="128,35 133,30 171,30 171,40 133,40 128,35 " style="fill:#d81515; stroke-width:1; stroke:black; " description="&lt;b&gt;BNFEMFIJ_03661&lt;/b&gt;&lt;br&gt;hypothetical protein&lt;br&gt;Location: 4605 - 5094" locus_tag="BNFEMFIJ_03661" class="clusterblast-orf" id="dummy-1_q0_0_all"  />
<polygon points="192,40 234,40 239,35 234,30 192,30 192,40 " style="fill:#15d863; stroke-width:1; stroke:black; " description="&lt;b&gt;BNFEMFIJ_03662&lt;/b&gt;&lt;br&gt;L-2,4-diaminobutyric acid acetyltransferase&lt;br&gt;Location: 5329 - 5857" locus_tag="BNFEMFIJ_03662" class="clusterblast-orf" id="dummy-1_q1_0_all"  />
<polygon points="243,40 352,40 357,35 352,30 243,30 243,40 " style="fill:#1563d8; stroke-width:1; stroke:black; " description="&lt;b&gt;BNFEMFIJ_03663&lt;/b&gt;&lt;br&gt;Diaminobutyrate--2-oxoglutarate transaminase&lt;br&gt;Location: 5904 - 7197" locus_tag="BNFEMFIJ_03663" class="clusterblast-orf" id="dummy-1_q2_0_all"  />
<polygon points="357,40 387,40 392,35 387,30 357,30 357,40 " style="fill:#b115d8; stroke-width:1; stroke:black; " description="&lt;b&gt;BNFEMFIJ_03664&lt;/b&gt;&lt;br&gt;L-ectoine synthase&lt;br&gt;Location: 7203 - 7596" locus_tag="BNFEMFIJ_03664" class="clusterblast-orf" id="dummy-1_q3_0_all"  />
<polygon points="399,40 517,40 522,35 517,30 399,30 399,40 " style="fill:#b1d815; stroke-width:1; stroke:black; " description="&lt;b&gt;BNFEMFIJ_03665&lt;/b&gt;&lt;br&gt;Aspartate kinase Ask Ect&lt;br&gt;Location: 7675 - 9067" locus_tag="BNFEMFIJ_03665" class="clusterblast-orf" id="dummy-1_q4_0_all"  />
<polygon points="542,40 595,40 600,35 595,30 542,30 542,40 " style="fill:white; stroke-width:1; stroke:black; " description="&lt;b&gt;BNFEMFIJ_03666&lt;/b&gt;&lt;br&gt;Intermembrane transport protein YebS&lt;br&gt;Location: 9291 - 9951" locus_tag="BNFEMFIJ_03666" class="clusterblast-orf" id="dummy-1_q5_0_all"  />
<polygon points="597,40 648,40 653,35 648,30 597,30 597,40 " style="fill:white; stroke-width:1; stroke:black; " description="&lt;b&gt;BNFEMFIJ_03667&lt;/b&gt;&lt;br&gt;Intermembrane transport protein PqiA&lt;br&gt;Location: 9917 - 10547" locus_tag="BNFEMFIJ_03667" class="clusterblast-orf" id="dummy-1_q6_0_all"  />
</g>
<g label="NZ_SKCI01000002" description="NZ_SKCI01000002 (678123-688516): Marimonas lutisali strain GH1-19 contig2, wh... (50% of genes show similarity), ectoine" class="clusterblast-cluster"  >
<text x="5" y="70" class="clusterblast-acc"  >
<a xlink:href="https://antismash-db.secondarymetabolites.org/area.html?record=NZ_SKCI01000002&amp;start=678123&amp;end=688516" target="_blank">NZ_SKCI01000002 (678123-688516)</a>: Marimonas lutisali strain GH1-19 contig2, wh... (50% of genes show similarity), ectoine</text>
<line x1="10" y1="85" x2="778.0" y2="85" style="stroke-width:1; stroke:grey; "  />
</g>
<g id="a1_000"  >
<polygon points="0,90 38,90 43,85 38,80 0,80 0,90 " style="fill:white; stroke-width:1; stroke:black; " description="&lt;b&gt;E0501_RS11430&lt;/b&gt;&lt;br&gt;GNAT family N-acetyltransferase&lt;br&gt;Location: 678684 - 679181" locus_tag="E0501_RS11430" class="clusterblast-orf" id="dummy-1_h1_5_0"  />
</g>
<g id="a1_001"  >
<polygon points="43,90 100,90 105,85 100,80 43,80 43,90 " style="fill:white; stroke-width:1; stroke:black; " description="&lt;b&gt;E0501_RS11435&lt;/b&gt;&lt;br&gt;CoA transferase subunit A&lt;br&gt;Location: 679178 - 679873" locus_tag="E0501_RS11435" class="clusterblast-orf" id="dummy-1_h1_5_1"  />
</g>
<g id="a1_002"  >
<polygon points="105,90 156,90 161,85 156,80 105,80 105,90 " style="fill:white; stroke-width:1; stroke:black; " description="&lt;b&gt;E0501_RS11440&lt;/b&gt;&lt;br&gt;3-oxoacid CoA-transferase subunit B&lt;br&gt;Location: 679878 - 680510" locus_tag="E0501_RS11440" class="clusterblast-orf" id="dummy-1_h1_5_2"  />
</g>
<g id="a1_003"  >
<polygon points="164,85 169,80 206,80 206,90 169,90 164,85 " style="fill:#d81515; stroke-width:1; stroke:black; " description="&lt;b&gt;E0501_RS11445&lt;/b&gt;&lt;br&gt;MarR family transcriptional regulator&lt;br&gt;Location: 680544 - 681020&lt;br&gt;&lt;br&gt;&lt;b&gt;BlastP hit with BNFEMFIJ_03661&lt;/b&gt;&lt;br&gt;Percentage identity: 73&lt;br&gt;Percentage coverage: 95&lt;br&gt;BLAST bit score: 226&lt;br&gt;E-value: 6.01e-75" locus_tag="E0501_RS11445" class="clusterblast-orf" id="dummy-1_h1_5_3"  />
</g>
<g id="a1_004"  >
<polygon points="226,90 268,90 273,85 268,80 226,80 226,90 " style="fill:#15d863; stroke-width:1; stroke:black; " description="&lt;b&gt;E0501_RS11450&lt;/b&gt;&lt;br&gt;diaminobutyrate acetyltransferase&lt;br&gt;Location: 681245 - 681781&lt;br&gt;&lt;br&gt;&lt;b&gt;BlastP hit with BNFEMFIJ_03662&lt;/b&gt;&lt;br&gt;Percentage identity: 65&lt;br&gt;Percentage coverage: 97&lt;br&gt;BLAST bit score: 236&lt;br&gt;E-value: 1.51e-78" locus_tag="E0501_RS11450" class="clusterblast-orf" id="dummy-1_h1_5_4"  />
</g>
<g id="a1_005"  >
<polygon points="278,90 386,90 391,85 386,80 278,80 278,90 " style="fill:#1563d8; stroke-width:1; stroke:black; " description="&lt;b&gt;E0501_RS11455&lt;/b&gt;&lt;br&gt;diaminobutyrate--2-oxoglutarate transaminase&lt;br&gt;Location: 681833 - 683119&lt;br&gt;&lt;br&gt;&lt;b&gt;BlastP hit with BNFEMFIJ_03663&lt;/b&gt;&lt;br&gt;Percentage identity: 74&lt;br&gt;Percentage coverage: 100&lt;br&gt;BLAST bit score: 639&lt;br&gt;E-value: 1.05e-229" locus_tag="E0501_RS11455" class="clusterblast-orf" id="dummy-1_h1_5_5"  />
</g>
<g id="a1_006"  >
<polygon points="392,90 421,90 426,85 421,80 392,80 392,90 " style="fill:#b115d8; stroke-width:1; stroke:black; " description="&lt;b&gt;E0501_RS11460&lt;/b&gt;&lt;br&gt;ectoine synthase&lt;br&gt;Location: 683124 - 683516&lt;br&gt;&lt;br&gt;&lt;b&gt;BlastP hit with BNFEMFIJ_03664&lt;/b&gt;&lt;br&gt;Percentage identity: 88&lt;br&gt;Percentage coverage: 99&lt;br&gt;BLAST bit score: 241&lt;br&gt;E-value: 3.69e-82" locus_tag="E0501_RS11460" class="clusterblast-orf" id="dummy-1_h1_5_6"  />
</g>
<g id="a1_007"  >
<polygon points="430,90 551,90 556,85 551,80 430,80 430,90 " style="fill:#b1d815; stroke-width:1; stroke:black; " description="&lt;b&gt;E0501_RS11465&lt;/b&gt;&lt;br&gt;aspartate kinase&lt;br&gt;Location: 683556 - 684989&lt;br&gt;&lt;br&gt;&lt;b&gt;BlastP hit with BNFEMFIJ_03665&lt;/b&gt;&lt;br&gt;Percentage identity: 71&lt;br&gt;Percentage coverage: 97&lt;br&gt;BLAST bit score: 637&lt;br&gt;E-value: 1.3e-227" locus_tag="E0501_RS11465" class="clusterblast-orf" id="dummy-1_h1_5_7"  />
</g>
<g id="a1_008"  >
<polygon points="557,85 562,80 658,80 658,90 562,90 557,85 " style="fill:white; stroke-width:1; stroke:black; " description="&lt;b&gt;E0501_RS11470&lt;/b&gt;&lt;br&gt;aminotransferase class V-fold PLP-dependent enzyme&lt;br&gt;Location: 684996 - 686138" locus_tag="E0501_RS11470" class="clusterblast-orf" id="dummy-1_h1_5_8"  />
</g>
<g id="a1_009"  >
<polygon points="677,90 775,90 780,85 775,80 677,80 677,90 " style="fill:white; stroke-width:1; stroke:black; " description="&lt;b&gt;E0501_RS11475&lt;/b&gt;&lt;br&gt;TAXI family TRAP transporter solute-binding subunit&lt;br&gt;Location: 686354 - 687514" locus_tag="E0501_RS11475" class="clusterblast-orf" id="dummy-1_h1_5_9"  />
</g>
</svg>
