<svg xmlns="http://www.w3.org/2000/svg" xmlns:xlink="http://www.w3.org/1999/xlink" version="1.1" x="0" y="0" height="230" width="800" viewBox="0 0 800 230" preserveAspectRatio="none"  >
<g label="Query sequence" class="clusterblast-cluster"  >
<text x="5" y="20" class="clusterblast-acc"  >
Query sequence</text>
<line x1="10" y1="35" x2="778.0" y2="35" style="stroke-width:1; stroke:grey; "  />
<polygon points="12,40 48,40 53,35 48,30 12,30 12,40 " style="fill:#d81515; stroke-width:1; stroke:black; " description="&lt;b&gt;BNFEMFIJ_01578&lt;/b&gt;&lt;br&gt;DNA mismatch repair protein MutS&lt;br&gt;Location: 391956 - 394608" locus_tag="BNFEMFIJ_01578" class="clusterblast-orf" id="dummy-1_q0_0_all"  />
<polygon points="54,35 59,30 63,30 63,40 59,40 54,35 " style="fill:white; stroke-width:1; stroke:black; " description="&lt;b&gt;BNFEMFIJ_01579&lt;/b&gt;&lt;br&gt;Protein GrpE&lt;br&gt;Location: 394679 - 395243" locus_tag="BNFEMFIJ_01579" class="clusterblast-orf" id="dummy-1_q1_0_all"  />
<polygon points="63,35 68,30 79,30 79,40 68,40 63,35 " style="fill:white; stroke-width:1; stroke:black; " description="&lt;b&gt;BNFEMFIJ_01580&lt;/b&gt;&lt;br&gt;Heat-inducible transcription repressor HrcA&lt;br&gt;Location: 395255 - 396323" locus_tag="BNFEMFIJ_01580" class="clusterblast-orf" id="dummy-1_q2_0_all"  />
<polygon points="81,40 87,40 92,35 87,30 81,30 81,40 " style="fill:white; stroke-width:1; stroke:black; " description="&lt;b&gt;BNFEMFIJ_01581&lt;/b&gt;&lt;br&gt;Ribonuclease PH&lt;br&gt;Location: 396418 - 397129" locus_tag="BNFEMFIJ_01581" class="clusterblast-orf" id="dummy-1_q3_0_all"  />
<polygon points="92,40 96,40 101,35 96,30 92,30 92,40 " style="fill:white; stroke-width:1; stroke:black; " description="&lt;b&gt;BNFEMFIJ_01582&lt;/b&gt;&lt;br&gt;dITP/XTP pyrophosphatase&lt;br&gt;Location: 397125 - 397722" locus_tag="BNFEMFIJ_01582" class="clusterblast-orf" id="dummy-1_q4_0_all"  />
<polygon points="101,40 114,40 119,35 114,30 101,30 101,40 " style="fill:white; stroke-width:1; stroke:black; " description="&lt;b&gt;BNFEMFIJ_01583&lt;/b&gt;&lt;br&gt;Heme chaperone HemW&lt;br&gt;Location: 397718 - 398882" locus_tag="BNFEMFIJ_01583" class="clusterblast-orf" id="dummy-1_q5_0_all"  />
<polygon points="119,35 124,30 133,30 133,40 124,40 119,35 " style="fill:white; stroke-width:1; stroke:black; " description="&lt;b&gt;BNFEMFIJ_01584&lt;/b&gt;&lt;br&gt;Chromosome-partitioning protein ParB&lt;br&gt;Location: 398888 - 399794" locus_tag="BNFEMFIJ_01584" class="clusterblast-orf" id="dummy-1_q6_0_all"  />
<polygon points="133,35 138,30 145,30 145,40 138,40 133,35 " style="fill:white; stroke-width:1; stroke:black; " description="&lt;b&gt;BNFEMFIJ_01585&lt;/b&gt;&lt;br&gt;Chromosome partitioning protein ParA&lt;br&gt;Location: 399793 - 400582" locus_tag="BNFEMFIJ_01585" class="clusterblast-orf" id="dummy-1_q7_0_all"  />
<polygon points="155,35 160,30 182,30 182,40 160,40 155,35 " style="fill:white; stroke-width:1; stroke:black; " description="&lt;b&gt;BNFEMFIJ_01586&lt;/b&gt;&lt;br&gt;tRNA uridine 5-carboxymethylaminomethyl modification enzyme MnmG&lt;br&gt;Location: 401209 - 402955" locus_tag="BNFEMFIJ_01586" class="clusterblast-orf" id="dummy-1_q8_0_all"  />
<polygon points="184,35 189,30 203,30 203,40 189,40 184,35 " style="fill:white; stroke-width:1; stroke:black; " description="&lt;b&gt;BNFEMFIJ_01587&lt;/b&gt;&lt;br&gt;tRNA modification GTPase MnmE&lt;br&gt;Location: 403089 - 404367" locus_tag="BNFEMFIJ_01587" class="clusterblast-orf" id="dummy-1_q9_0_all"  />
<polygon points="204,35 209,30 223,30 223,40 209,40 204,35 " style="fill:white; stroke-width:1; stroke:black; " description="&lt;b&gt;BNFEMFIJ_01588&lt;/b&gt;&lt;br&gt;Transcription termination factor Rho&lt;br&gt;Location: 404392 - 405664" locus_tag="BNFEMFIJ_01588" class="clusterblast-orf" id="dummy-1_q10_0_all"  />
<polygon points="231,40 235,40 240,35 235,30 231,30 231,40 " style="fill:white; stroke-width:1; stroke:black; " description="&lt;b&gt;BNFEMFIJ_01589&lt;/b&gt;&lt;br&gt;7-methyl-GTP pyrophosphatase&lt;br&gt;Location: 406169 - 406766" locus_tag="BNFEMFIJ_01589" class="clusterblast-orf" id="dummy-1_q11_0_all"  />
<polygon points="240,40 248,40 253,35 248,30 240,30 240,40 " style="fill:white; stroke-width:1; stroke:black; " description="&lt;b&gt;BNFEMFIJ_01590&lt;/b&gt;&lt;br&gt;Shikimate dehydrogenase (NADP(+))&lt;br&gt;Location: 406762 - 407581" locus_tag="BNFEMFIJ_01590" class="clusterblast-orf" id="dummy-1_q12_0_all"  />
<polygon points="253,40 257,40 262,35 257,30 253,30 253,40 " style="fill:white; stroke-width:1; stroke:black; " description="&lt;b&gt;BNFEMFIJ_01591&lt;/b&gt;&lt;br&gt;Dephospho-CoA kinase&lt;br&gt;Location: 407577 - 408174" locus_tag="BNFEMFIJ_01591" class="clusterblast-orf" id="dummy-1_q13_0_all"  />
<polygon points="262,40 268,40 273,35 268,30 262,30 262,40 " style="fill:white; stroke-width:1; stroke:black; " description="&lt;b&gt;BNFEMFIJ_01592&lt;/b&gt;&lt;br&gt;DNA polymerase III subunit epsilon&lt;br&gt;Location: 408166 - 408859" locus_tag="BNFEMFIJ_01592" class="clusterblast-orf" id="dummy-1_q14_0_all"  />
<polygon points="272,40 285,40 290,35 285,30 272,30 272,40 " style="fill:white; stroke-width:1; stroke:black; " description="&lt;b&gt;BNFEMFIJ_01593&lt;/b&gt;&lt;br&gt;3-dehydro-bile acid delta(4,6)-reductase&lt;br&gt;Location: 408800 - 410024" locus_tag="BNFEMFIJ_01593" class="clusterblast-orf" id="dummy-1_q15_0_all"  />
<polygon points="290,35 295,30 300,30 300,40 295,40 290,35 " style="fill:#5cd815; stroke-width:1; stroke:black; " description="&lt;b&gt;BNFEMFIJ_01594&lt;/b&gt;&lt;br&gt;4'-phosphopantetheinyl transferase Npt&lt;br&gt;Location: 410001 - 410625" locus_tag="BNFEMFIJ_01594" class="clusterblast-orf" id="dummy-1_q16_0_all"  />
<polygon points="300,35 305,30 370,30 370,40 305,40 300,35 " style="fill:#15a3d8; stroke-width:1; stroke:black; " description="&lt;b&gt;BNFEMFIJ_01595&lt;/b&gt;&lt;br&gt;D-alanine--D-alanyl carrier protein ligase&lt;br&gt;Location: 410632 - 415159" locus_tag="BNFEMFIJ_01595" class="clusterblast-orf" id="dummy-1_q17_0_all"  />
<polygon points="370,35 375,30 384,30 384,40 375,40 370,35 " style="fill:#c715d8; stroke-width:1; stroke:black; " description="&lt;b&gt;BNFEMFIJ_01596&lt;/b&gt;&lt;br&gt;hypothetical protein&lt;br&gt;Location: 415161 - 416106" locus_tag="BNFEMFIJ_01596" class="clusterblast-orf" id="dummy-1_q18_0_all"  />
<polygon points="384,35 389,30 482,30 482,40 389,40 384,35 " style="fill:#d88015; stroke-width:1; stroke:black; " description="&lt;b&gt;BNFEMFIJ_01597&lt;/b&gt;&lt;br&gt;hypothetical protein&lt;br&gt;Location: 416102 - 422429" locus_tag="BNFEMFIJ_01597" class="clusterblast-orf" id="dummy-1_q19_0_all"  />
<polygon points="483,35 488,30 507,30 507,40 488,40 483,35 " style="fill:#15d839; stroke-width:1; stroke:black; " description="&lt;b&gt;BNFEMFIJ_01598&lt;/b&gt;&lt;br&gt;hypothetical protein&lt;br&gt;Location: 422516 - 424055" locus_tag="BNFEMFIJ_01598" class="clusterblast-orf" id="dummy-1_q20_0_all"  />
<polygon points="510,40 516,40 521,35 516,30 510,30 510,40 " style="fill:#1539d8; stroke-width:1; stroke:black; " description="&lt;b&gt;BNFEMFIJ_01599&lt;/b&gt;&lt;br&gt;UDP-N-acetyl-D-mannosaminuronic acid transferase&lt;br&gt;Location: 424305 - 425013" locus_tag="BNFEMFIJ_01599" class="clusterblast-orf" id="dummy-1_q21_0_all"  />
<polygon points="523,40 535,40 540,35 535,30 523,30 523,40 " style="fill:white; stroke-width:1; stroke:black; " description="&lt;b&gt;BNFEMFIJ_01600&lt;/b&gt;&lt;br&gt;S-(hydroxymethyl)glutathione dehydrogenase&lt;br&gt;Location: 425130 - 426240" locus_tag="BNFEMFIJ_01600" class="clusterblast-orf" id="dummy-1_q22_0_all"  />
<polygon points="540,40 548,40 553,35 548,30 540,30 540,40 " style="fill:white; stroke-width:1; stroke:black; " description="&lt;b&gt;BNFEMFIJ_01601&lt;/b&gt;&lt;br&gt;S-formylglutathione hydrolase&lt;br&gt;Location: 426239 - 427073" locus_tag="BNFEMFIJ_01601" class="clusterblast-orf" id="dummy-1_q23_0_all"  />
<polygon points="556,40 569,40 574,35 569,30 556,30 556,40 " style="fill:#d81580; stroke-width:1; stroke:black; " description="&lt;b&gt;BNFEMFIJ_01602&lt;/b&gt;&lt;br&gt;Tn3 family transposase TnXax1&lt;br&gt;Location: 427273 - 428452" locus_tag="BNFEMFIJ_01602" class="clusterblast-orf" id="dummy-1_q24_0_all"  />
<polygon points="576,40 576,40 581,35 576,30 576,30 576,40 " style="fill:#c7d815; stroke-width:1; stroke:black; " description="&lt;b&gt;BNFEMFIJ_01603&lt;/b&gt;&lt;br&gt;hypothetical protein&lt;br&gt;Location: 428566 - 428908" locus_tag="BNFEMFIJ_01603" class="clusterblast-orf" id="dummy-1_q25_0_all"  />
<polygon points="588,35 593,30 610,30 610,40 593,40 588,35 " style="fill:white; stroke-width:1; stroke:black; " description="&lt;b&gt;BNFEMFIJ_01604&lt;/b&gt;&lt;br&gt;hypothetical protein&lt;br&gt;Location: 429355 - 430768" locus_tag="BNFEMFIJ_01604" class="clusterblast-orf" id="dummy-1_q26_0_all"  />
<polygon points="610,35 615,30 636,30 636,40 615,40 610,35 " style="fill:white; stroke-width:1; stroke:black; " description="&lt;b&gt;BNFEMFIJ_01605&lt;/b&gt;&lt;br&gt;hypothetical protein&lt;br&gt;Location: 430767 - 432465" locus_tag="BNFEMFIJ_01605" class="clusterblast-orf" id="dummy-1_q27_0_all"  />
<polygon points="636,35 641,30 651,30 651,40 641,40 636,35 " style="fill:white; stroke-width:1; stroke:black; " description="&lt;b&gt;BNFEMFIJ_01606&lt;/b&gt;&lt;br&gt;hypothetical protein&lt;br&gt;Location: 432461 - 433442" locus_tag="BNFEMFIJ_01606" class="clusterblast-orf" id="dummy-1_q28_0_all"  />
<polygon points="653,35 658,30 669,30 669,40 658,40 653,35 " style="fill:#15d8a3; stroke-width:1; stroke:black; " description="&lt;b&gt;BNFEMFIJ_01607&lt;/b&gt;&lt;br&gt;hypothetical protein&lt;br&gt;Location: 433571 - 434597" locus_tag="BNFEMFIJ_01607" class="clusterblast-orf" id="dummy-1_q29_0_all"  />
<polygon points="671,35 676,30 684,30 684,40 676,40 671,35 " style="fill:white; stroke-width:1; stroke:black; " description="&lt;b&gt;BNFEMFIJ_01608&lt;/b&gt;&lt;br&gt;UTP--glucose-1-phosphate uridylyltransferase&lt;br&gt;Location: 434707 - 435604" locus_tag="BNFEMFIJ_01608" class="clusterblast-orf" id="dummy-1_q30_0_all"  />
<polygon points="687,35 692,30 699,30 699,40 692,40 687,35 " style="fill:white; stroke-width:1; stroke:black; " description="&lt;b&gt;BNFEMFIJ_01609&lt;/b&gt;&lt;br&gt;3'(2'),5'-bisphosphate nucleotidase CysQ&lt;br&gt;Location: 435780 - 436578" locus_tag="BNFEMFIJ_01609" class="clusterblast-orf" id="dummy-1_q31_0_all"  />
<polygon points="701,40 709,40 714,35 709,30 701,30 701,40 " style="fill:white; stroke-width:1; stroke:black; " description="&lt;b&gt;BNFEMFIJ_01610&lt;/b&gt;&lt;br&gt;hypothetical protein&lt;br&gt;Location: 436697 - 437519" locus_tag="BNFEMFIJ_01610" class="clusterblast-orf" id="dummy-1_q32_0_all"  />
<polygon points="714,40 719,40 724,35 719,30 714,30 714,40 " style="fill:white; stroke-width:1; stroke:black; " description="&lt;b&gt;BNFEMFIJ_01611&lt;/b&gt;&lt;br&gt;hypothetical protein&lt;br&gt;Location: 437528 - 438152" locus_tag="BNFEMFIJ_01611" class="clusterblast-orf" id="dummy-1_q33_0_all"  />
<polygon points="725,40 726,40 731,35 726,30 725,30 725,40 " style="fill:white; stroke-width:1; stroke:black; " description="&lt;b&gt;BNFEMFIJ_01612&lt;/b&gt;&lt;br&gt;hypothetical protein&lt;br&gt;Location: 438212 - 438659" locus_tag="BNFEMFIJ_01612" class="clusterblast-orf" id="dummy-1_q34_0_all"  />
<polygon points="731,40 741,40 746,35 741,30 731,30 731,40 " style="fill:#5c15d8; stroke-width:1; stroke:black; " description="&lt;b&gt;BNFEMFIJ_01613&lt;/b&gt;&lt;br&gt;Riboflavin transporter&lt;br&gt;Location: 438655 - 439591" locus_tag="BNFEMFIJ_01613" class="clusterblast-orf" id="dummy-1_q35_0_all"  />
<polygon points="747,40 747,40 752,35 747,30 747,30 747,40 " style="fill:white; stroke-width:1; stroke:black; " description="&lt;b&gt;BNFEMFIJ_01614&lt;/b&gt;&lt;br&gt;Trans-acting regulatory protein HvrA&lt;br&gt;Location: 439673 - 439985" locus_tag="BNFEMFIJ_01614" class="clusterblast-orf" id="dummy-1_q36_0_all"  />
<polygon points="755,35 760,30 767,30 767,40 760,40 755,35 " style="fill:white; stroke-width:1; stroke:black; " description="&lt;b&gt;BNFEMFIJ_01615&lt;/b&gt;&lt;br&gt;Methionine aminopeptidase&lt;br&gt;Location: 440161 - 440971" locus_tag="BNFEMFIJ_01615" class="clusterblast-orf" id="dummy-1_q37_0_all"  />
</g>
<g label="NC_023135" description="NC_023135 (2706603-2758631): Leisingera methylohalidivorans DSM 14336, comple... (20% of genes show similarity), NRPS-like,T1PKS" class="clusterblast-cluster"  >
<text x="5" y="70" class="clusterblast-acc"  >
<a xlink:href="https://antismash-db.secondarymetabolites.org/area.html?record=NC_023135&amp;start=2706603&amp;end=2758631" target="_blank">NC_023135 (2706603-2758631)</a>: Leisingera methylohalidivorans DSM 14336, comple... (20% of genes show similarity), NRPS-like,T1PKS</text>
<line x1="10" y1="85" x2="778.0" y2="85" style="stroke-width:1; stroke:grey; "  />
</g>
<g id="a1_000"  >
<polygon points="0,90 12,90 17,85 12,80 0,80 0,90 " style="fill:white; stroke-width:1; stroke:black; " description="&lt;b&gt;METH_RS13610&lt;/b&gt;&lt;br&gt;RNA methyltransferase&lt;br&gt;Location: 2757929 - 2756811" locus_tag="METH_RS13610" class="clusterblast-orf" id="dummy-1_h1_8_0"  />
</g>
<g id="a1_001"  >
<polygon points="33,90 38,90 43,85 38,80 33,80 33,90 " style="fill:white; stroke-width:1; stroke:black; " description="&lt;b&gt;METH_RS23960&lt;/b&gt;&lt;br&gt;hypothetical protein&lt;br&gt;Location: 2755757 - 2755077" locus_tag="METH_RS23960" class="clusterblast-orf" id="dummy-1_h1_8_1"  />
</g>
<g id="a1_002"  >
<polygon points="52,90 63,90 68,85 63,80 52,80 52,90 " style="fill:white; stroke-width:1; stroke:black; " description="&lt;b&gt;METH_RS13600&lt;/b&gt;&lt;br&gt;hypothetical protein&lt;br&gt;Location: 2754491 - 2753478" locus_tag="METH_RS13600" class="clusterblast-orf" id="dummy-1_h1_8_2"  />
</g>
<g id="a1_003"  >
<polygon points="69,90 77,90 82,85 77,80 69,80 69,90 " style="fill:white; stroke-width:1; stroke:black; " description="&lt;b&gt;METH_RS13595&lt;/b&gt;&lt;br&gt;TIGR03084 family protein&lt;br&gt;Location: 2753387 - 2752587" locus_tag="METH_RS13595" class="clusterblast-orf" id="dummy-1_h1_8_3"  />
</g>
<g id="a1_004"  >
<polygon points="85,85 90,80 98,80 98,90 90,90 85,85 " style="fill:white; stroke-width:1; stroke:black; " description="&lt;b&gt;METH_RS13590&lt;/b&gt;&lt;br&gt;2-dehydro-3-deoxygalactonokinase&lt;br&gt;Location: 2752370 - 2751528" locus_tag="METH_RS13590" class="clusterblast-orf" id="dummy-1_h1_8_4"  />
</g>
<g id="a1_005"  >
<polygon points="104,90 114,90 119,85 114,80 104,80 104,90 " style="fill:white; stroke-width:1; stroke:black; " description="&lt;b&gt;METH_RS13580&lt;/b&gt;&lt;br&gt;AraC family transcriptional regulator&lt;br&gt;Location: 2751166 - 2750150" locus_tag="METH_RS13580" class="clusterblast-orf" id="dummy-1_h1_8_5"  />
</g>
<g id="a1_006"  >
<polygon points="125,90 132,90 137,85 132,80 125,80 125,90 " style="fill:white; stroke-width:1; stroke:black; " description="&lt;b&gt;METH_RS13575&lt;/b&gt;&lt;br&gt;sugar transferase&lt;br&gt;Location: 2749753 - 2748986" locus_tag="METH_RS13575" class="clusterblast-orf" id="dummy-1_h1_8_6"  />
</g>
<g id="a1_007"  >
<polygon points="137,90 148,90 153,85 148,80 137,80 137,90 " style="fill:white; stroke-width:1; stroke:black; " description="&lt;b&gt;METH_RS13570&lt;/b&gt;&lt;br&gt;exopolysaccharide biosynthesis protein&lt;br&gt;Location: 2748970 - 2747987" locus_tag="METH_RS13570" class="clusterblast-orf" id="dummy-1_h1_8_7"  />
</g>
<g id="a1_008"  >
<polygon points="155,90 169,90 174,85 169,80 155,80 155,90 " style="fill:white; stroke-width:1; stroke:black; " description="&lt;b&gt;METH_RS13565&lt;/b&gt;&lt;br&gt;chain-length determining protein&lt;br&gt;Location: 2747855 - 2746590" locus_tag="METH_RS13565" class="clusterblast-orf" id="dummy-1_h1_8_8"  />
</g>
<g id="a1_009"  >
<polygon points="174,85 179,80 195,80 195,90 179,90 174,85 " style="fill:white; stroke-width:1; stroke:black; " description="&lt;b&gt;METH_RS13560&lt;/b&gt;&lt;br&gt;oligosaccharide flippase family protein&lt;br&gt;Location: 2746587 - 2745217" locus_tag="METH_RS13560" class="clusterblast-orf" id="dummy-1_h1_8_9"  />
</g>
<g id="a1_0010"  >
<polygon points="199,90 212,90 217,85 212,80 199,80 199,90 " style="fill:white; stroke-width:1; stroke:black; " description="&lt;b&gt;METH_RS13555&lt;/b&gt;&lt;br&gt;glycosyltransferase family 4 protein&lt;br&gt;Location: 2744981 - 2743776" locus_tag="METH_RS13555" class="clusterblast-orf" id="dummy-1_h1_8_10"  />
</g>
<g id="a1_0011"  >
<polygon points="220,85 225,80 233,80 233,90 225,90 220,85 " style="fill:white; stroke-width:1; stroke:black; " description="&lt;b&gt;METH_RS13550&lt;/b&gt;&lt;br&gt;glycosyltransferase family 2 protein&lt;br&gt;Location: 2743598 - 2742762" locus_tag="METH_RS13550" class="clusterblast-orf" id="dummy-1_h1_8_11"  />
</g>
<g id="a1_0012"  >
<polygon points="233,85 238,80 272,80 272,90 238,90 233,85 " style="fill:white; stroke-width:1; stroke:black; " description="&lt;b&gt;METH_RS13545&lt;/b&gt;&lt;br&gt;hypothetical protein&lt;br&gt;Location: 2742765 - 2740249" locus_tag="METH_RS13545" class="clusterblast-orf" id="dummy-1_h1_8_12"  />
</g>
<g id="a1_0013"  >
<polygon points="272,85 277,80 286,80 286,90 277,90 272,85 " style="fill:white; stroke-width:1; stroke:black; " description="&lt;b&gt;METH_RS13540&lt;/b&gt;&lt;br&gt;hypothetical protein&lt;br&gt;Location: 2740252 - 2739314" locus_tag="METH_RS13540" class="clusterblast-orf" id="dummy-1_h1_8_13"  />
</g>
<g id="a1_0014"  >
<polygon points="286,85 291,80 297,80 297,90 291,90 286,85 " style="fill:#5cd815; stroke-width:1; stroke:black; " description="&lt;b&gt;METH_RS13535&lt;/b&gt;&lt;br&gt;4'-phosphopantetheinyl transferase superfamily protein&lt;br&gt;Location: 2739317 - 2738628&lt;br&gt;&lt;br&gt;&lt;b&gt;BlastP hit with BNFEMFIJ_01594&lt;/b&gt;&lt;br&gt;Percentage identity: 40&lt;br&gt;Percentage coverage: 82&lt;br&gt;BLAST bit score: 112&lt;br&gt;E-value: 6.61e-29" locus_tag="METH_RS13535" class="clusterblast-orf" id="dummy-1_h1_8_14"  />
</g>
<g id="a1_0015"  >
<polygon points="297,85 302,80 367,80 367,90 302,90 297,85 " style="fill:#15a3d8; stroke-width:1; stroke:black; " description="&lt;b&gt;METH_RS13530&lt;/b&gt;&lt;br&gt;LLM class flavin-dependent oxidoreductase&lt;br&gt;Location: 2738631 - 2734054&lt;br&gt;&lt;br&gt;&lt;b&gt;BlastP hit with BNFEMFIJ_01595&lt;/b&gt;&lt;br&gt;Percentage identity: 54&lt;br&gt;Percentage coverage: 102&lt;br&gt;BLAST bit score: 1526&lt;br&gt;E-value: 0.0" locus_tag="METH_RS13530" class="clusterblast-orf" id="dummy-1_h1_8_15"  />
</g>
<g id="a1_0016"  >
<polygon points="367,85 372,80 383,80 383,90 372,90 367,85 " style="fill:#c715d8; stroke-width:1; stroke:black; " description="&lt;b&gt;METH_RS13525&lt;/b&gt;&lt;br&gt;glycosyltransferase family 2 protein&lt;br&gt;Location: 2734057 - 2733041&lt;br&gt;&lt;br&gt;&lt;b&gt;BlastP hit with BNFEMFIJ_01596&lt;/b&gt;&lt;br&gt;Percentage identity: 54&lt;br&gt;Percentage coverage: 98&lt;br&gt;BLAST bit score: 329&lt;br&gt;E-value: 1.09e-110" locus_tag="METH_RS13525" class="clusterblast-orf" id="dummy-1_h1_8_16"  />
</g>
<g id="a1_0017"  >
<polygon points="383,85 388,80 482,80 482,90 388,90 383,85 " style="fill:#d88015; stroke-width:1; stroke:black; " description="&lt;b&gt;METH_RS13520&lt;/b&gt;&lt;br&gt;type I polyketide synthase&lt;br&gt;Location: 2733035 - 2726604&lt;br&gt;&lt;br&gt;&lt;b&gt;BlastP hit with BNFEMFIJ_01597&lt;/b&gt;&lt;br&gt;Percentage identity: 58&lt;br&gt;Percentage coverage: 101&lt;br&gt;BLAST bit score: 2330&lt;br&gt;E-value: 0.0" locus_tag="METH_RS13520" class="clusterblast-orf" id="dummy-1_h1_8_17"  />
</g>
<g id="a1_0018"  >
<polygon points="486,85 491,80 508,80 508,90 491,90 486,85 " style="fill:#15d839; stroke-width:1; stroke:black; " description="&lt;b&gt;METH_RS13515&lt;/b&gt;&lt;br&gt;membrane protein&lt;br&gt;Location: 2726346 - 2724883&lt;br&gt;&lt;br&gt;&lt;b&gt;BlastP hit with BNFEMFIJ_01598&lt;/b&gt;&lt;br&gt;Percentage identity: 43&lt;br&gt;Percentage coverage: 90&lt;br&gt;BLAST bit score: 360&lt;br&gt;E-value: 1.47e-117" locus_tag="METH_RS13515" class="clusterblast-orf" id="dummy-1_h1_8_18"  />
</g>
<g id="a1_0019"  >
<polygon points="511,90 518,90 523,85 518,80 511,80 511,90 " style="fill:#1539d8; stroke-width:1; stroke:black; " description="&lt;b&gt;METH_RS13510&lt;/b&gt;&lt;br&gt;WecB/TagA/CpsF family glycosyltransferase&lt;br&gt;Location: 2724688 - 2723942&lt;br&gt;&lt;br&gt;&lt;b&gt;BlastP hit with BNFEMFIJ_01599&lt;/b&gt;&lt;br&gt;Percentage identity: 63&lt;br&gt;Percentage coverage: 100&lt;br&gt;BLAST bit score: 296&lt;br&gt;E-value: 3.08e-100" locus_tag="METH_RS13510" class="clusterblast-orf" id="dummy-1_h1_8_19"  />
</g>
<g id="a1_0020"  >
<polygon points="524,85 529,80 539,80 539,90 529,90 524,85 " style="fill:white; stroke-width:1; stroke:black; " description="&lt;b&gt;METH_RS13505&lt;/b&gt;&lt;br&gt;glycosyltransferase family 2 protein&lt;br&gt;Location: 2723876 - 2722893" locus_tag="METH_RS13505" class="clusterblast-orf" id="dummy-1_h1_8_20"  />
</g>
<g id="a1_0021"  >
<polygon points="539,85 544,80 552,80 552,90 544,90 539,85 " style="fill:#15d8a3; stroke-width:1; stroke:black; " description="&lt;b&gt;METH_RS13500&lt;/b&gt;&lt;br&gt;glycosyltransferase family 2 protein&lt;br&gt;Location: 2722906 - 2722046&lt;br&gt;&lt;br&gt;&lt;b&gt;BlastP hit with BNFEMFIJ_01607&lt;/b&gt;&lt;br&gt;Percentage identity: 31&lt;br&gt;Percentage coverage: 37&lt;br&gt;BLAST bit score: 70&lt;br&gt;E-value: 1.32e-11" locus_tag="METH_RS13500" class="clusterblast-orf" id="dummy-1_h1_8_21"  />
</g>
<g id="a1_0022"  >
<polygon points="558,90 568,90 573,85 568,80 558,80 558,90 " style="fill:white; stroke-width:1; stroke:black; " description="&lt;b&gt;METH_RS13495&lt;/b&gt;&lt;br&gt;glucokinase&lt;br&gt;Location: 2721669 - 2720719" locus_tag="METH_RS13495" class="clusterblast-orf" id="dummy-1_h1_8_22"  />
</g>
<g id="a1_0023"  >
<polygon points="573,85 578,80 628,80 628,90 578,90 573,85 " style="fill:white; stroke-width:1; stroke:black; " description="&lt;b&gt;METH_RS13490&lt;/b&gt;&lt;br&gt;translocation/assembly module TamB domain-containing protein&lt;br&gt;Location: 2720697 - 2717101" locus_tag="METH_RS13490" class="clusterblast-orf" id="dummy-1_h1_8_23"  />
</g>
<g id="a1_0024"  >
<polygon points="629,85 634,80 656,80 656,90 634,90 629,85 " style="fill:white; stroke-width:1; stroke:black; " description="&lt;b&gt;METH_RS13485&lt;/b&gt;&lt;br&gt;BamA/TamA family outer membrane protein&lt;br&gt;Location: 2717074 - 2715272" locus_tag="METH_RS13485" class="clusterblast-orf" id="dummy-1_h1_8_24"  />
</g>
<g id="a1_0025"  >
<polygon points="665,90 669,85 665,80 665,90 " style="fill:white; stroke-width:1; stroke:black; " description="&lt;b&gt;METH_RS13480&lt;/b&gt;&lt;br&gt;hypothetical protein&lt;br&gt;Location: 2714744 - 2714442" locus_tag="METH_RS13480" class="clusterblast-orf" id="dummy-1_h1_8_25"  />
</g>
<g id="a1_0026"  >
<polygon points="670,90 675,90 680,85 675,80 670,80 670,90 " style="fill:white; stroke-width:1; stroke:black; " description="&lt;b&gt;METH_RS13475&lt;/b&gt;&lt;br&gt;hypothetical protein&lt;br&gt;Location: 2714375 - 2713767" locus_tag="METH_RS13475" class="clusterblast-orf" id="dummy-1_h1_8_26"  />
</g>
<g id="a1_0027"  >
<polygon points="680,85 685,80 696,80 696,90 685,90 680,85 " style="fill:white; stroke-width:1; stroke:black; " description="&lt;b&gt;METH_RS13470&lt;/b&gt;&lt;br&gt;glyceraldehyde-3-phosphate dehydrogenase&lt;br&gt;Location: 2713716 - 2712697" locus_tag="METH_RS13470" class="clusterblast-orf" id="dummy-1_h1_8_27"  />
</g>
<g id="a1_0028"  >
<polygon points="697,85 702,80 702,80 702,90 702,90 697,85 " style="fill:white; stroke-width:1; stroke:black; " description="&lt;b&gt;METH_RS13465&lt;/b&gt;&lt;br&gt;hypothetical protein&lt;br&gt;Location: 2712611 - 2712285" locus_tag="METH_RS13465" class="clusterblast-orf" id="dummy-1_h1_8_28"  />
</g>
<g id="a1_0029"  >
<polygon points="704,85 709,80 716,80 716,90 709,90 704,85 " style="fill:white; stroke-width:1; stroke:black; " description="&lt;b&gt;METH_RS13460&lt;/b&gt;&lt;br&gt;helix-turn-helix domain-containing protein&lt;br&gt;Location: 2712204 - 2711428" locus_tag="METH_RS13460" class="clusterblast-orf" id="dummy-1_h1_8_29"  />
</g>
<g id="a1_0030"  >
<polygon points="719,90 736,90 741,85 736,80 719,80 719,90 " style="fill:white; stroke-width:1; stroke:black; " description="&lt;b&gt;METH_RS13455&lt;/b&gt;&lt;br&gt;glutamine synthetase&lt;br&gt;Location: 2711214 - 2709766" locus_tag="METH_RS13455" class="clusterblast-orf" id="dummy-1_h1_8_30"  />
</g>
<g id="a1_0031"  >
<polygon points="745,90 745,90 750,85 745,80 745,80 745,90 " style="fill:white; stroke-width:1; stroke:black; " description="&lt;b&gt;METH_RS13450&lt;/b&gt;&lt;br&gt;glycine cleavage system protein GcvH&lt;br&gt;Location: 2709547 - 2709188" locus_tag="METH_RS13450" class="clusterblast-orf" id="dummy-1_h1_8_31"  />
</g>
<g id="a1_0032"  >
<polygon points="752,90 758,90 763,85 758,80 752,80 752,90 " style="fill:white; stroke-width:1; stroke:black; " description="&lt;b&gt;METH_RS13445&lt;/b&gt;&lt;br&gt;flavodoxin family protein&lt;br&gt;Location: 2709053 - 2708337" locus_tag="METH_RS13445" class="clusterblast-orf" id="dummy-1_h1_8_32"  />
</g>
<g id="a1_0033"  >
<polygon points="765,85 770,80 780,80 780,90 770,90 765,85 " style="fill:white; stroke-width:1; stroke:black; " description="&lt;b&gt;METH_RS13440&lt;/b&gt;&lt;br&gt;glyoxylate/hydroxypyruvate reductase A&lt;br&gt;Location: 2708215 - 2707280" locus_tag="METH_RS13440" class="clusterblast-orf" id="dummy-1_h1_8_33"  />
</g>
</svg>
