<svg xmlns="http://www.w3.org/2000/svg" xmlns:xlink="http://www.w3.org/1999/xlink" version="1.1" x="0" y="0" height="230" width="800" viewBox="0 0 800 230" preserveAspectRatio="none"  >
<g label="Query sequence" class="clusterblast-cluster"  >
<text x="5" y="20" class="clusterblast-acc"  >
Query sequence</text>
<line x1="10" y1="35" x2="778.0" y2="35" style="stroke-width:1; stroke:grey; "  />
<polygon points="1,35 6,30 65,30 65,40 6,40 1,35 " style="fill:#d81515; stroke-width:1; stroke:black; " description="&lt;b&gt;BNFEMFIJ_03661&lt;/b&gt;&lt;br&gt;hypothetical protein&lt;br&gt;Location: 4605 - 5094" locus_tag="BNFEMFIJ_03661" class="clusterblast-orf" id="dummy-1_q0_0_all"  />
<polygon points="96,40 160,40 165,35 160,30 96,30 96,40 " style="fill:#15d863; stroke-width:1; stroke:black; " description="&lt;b&gt;BNFEMFIJ_03662&lt;/b&gt;&lt;br&gt;L-2,4-diaminobutyric acid acetyltransferase&lt;br&gt;Location: 5329 - 5857" locus_tag="BNFEMFIJ_03662" class="clusterblast-orf" id="dummy-1_q1_0_all"  />
<polygon points="171,40 336,40 341,35 336,30 171,30 171,40 " style="fill:#1563d8; stroke-width:1; stroke:black; " description="&lt;b&gt;BNFEMFIJ_03663&lt;/b&gt;&lt;br&gt;Diaminobutyrate--2-oxoglutarate transaminase&lt;br&gt;Location: 5904 - 7197" locus_tag="BNFEMFIJ_03663" class="clusterblast-orf" id="dummy-1_q2_0_all"  />
<polygon points="342,40 388,40 393,35 388,30 342,30 342,40 " style="fill:#b115d8; stroke-width:1; stroke:black; " description="&lt;b&gt;BNFEMFIJ_03664&lt;/b&gt;&lt;br&gt;L-ectoine synthase&lt;br&gt;Location: 7203 - 7596" locus_tag="BNFEMFIJ_03664" class="clusterblast-orf" id="dummy-1_q3_0_all"  />
<polygon points="404,40 582,40 587,35 582,30 404,30 404,40 " style="fill:#b1d815; stroke-width:1; stroke:black; " description="&lt;b&gt;BNFEMFIJ_03665&lt;/b&gt;&lt;br&gt;Aspartate kinase Ask Ect&lt;br&gt;Location: 7675 - 9067" locus_tag="BNFEMFIJ_03665" class="clusterblast-orf" id="dummy-1_q4_0_all"  />
<polygon points="616,40 698,40 703,35 698,30 616,30 616,40 " style="fill:white; stroke-width:1; stroke:black; " description="&lt;b&gt;BNFEMFIJ_03666&lt;/b&gt;&lt;br&gt;Intermembrane transport protein YebS&lt;br&gt;Location: 9291 - 9951" locus_tag="BNFEMFIJ_03666" class="clusterblast-orf" id="dummy-1_q5_0_all"  />
<polygon points="698,40 776,40 781,35 776,30 698,30 698,40 " style="fill:white; stroke-width:1; stroke:black; " description="&lt;b&gt;BNFEMFIJ_03667&lt;/b&gt;&lt;br&gt;Intermembrane transport protein PqiA&lt;br&gt;Location: 9917 - 10547" locus_tag="BNFEMFIJ_03667" class="clusterblast-orf" id="dummy-1_q6_0_all"  />
</g>
<g label="BGC0000856" description="BGC0000856_c1: ectoine (100% of genes show similarity), Other" class="clusterblast-cluster"  >
<text x="5" y="70" class="clusterblast-acc"  >
<a xlink:href="https://mibig.secondarymetabolites.org/go/BGC0000856/1" target="_blank">BGC0000856</a>: ectoine                                                                          (100% of genes show similarity), Other</text>
<line x1="10" y1="85" x2="778.0" y2="85" style="stroke-width:1; stroke:grey; "  />
</g>
<g id="a1_000"  >
<polygon points="138,90 200,90 205,85 200,80 138,80 138,90 " style="fill:#15d863; stroke-width:1; stroke:black; " description="&lt;b&gt;ABY40739.1&lt;/b&gt;&lt;br&gt;L-2,4-diaminobutyric acid acetyltransferase&lt;br&gt;Location: 518 - 1027&lt;br&gt;&lt;br&gt;&lt;b&gt;BlastP hit with BNFEMFIJ_03662&lt;/b&gt;&lt;br&gt;Percentage identity: 55&lt;br&gt;Percentage coverage: 90&lt;br&gt;BLAST bit score: 191&lt;br&gt;E-value: 1.37e-62" locus_tag="ABY40739.1" class="clusterblast-orf" id="dummy-1_h1_4_0"  />
</g>
<g id="a1_001"  >
<polygon points="213,90 383,90 388,85 383,80 213,80 213,90 " style="fill:#1563d8; stroke-width:1; stroke:black; " description="&lt;b&gt;ABY40740.1&lt;/b&gt;&lt;br&gt;L-2,4-diaminobutyrate aminotransferase&lt;br&gt;Location: 1088 - 2425&lt;br&gt;&lt;br&gt;&lt;b&gt;BlastP hit with BNFEMFIJ_03663&lt;/b&gt;&lt;br&gt;Percentage identity: 52&lt;br&gt;Percentage coverage: 96&lt;br&gt;BLAST bit score: 431&lt;br&gt;E-value: 7.68e-149" locus_tag="ABY40740.1" class="clusterblast-orf" id="dummy-1_h1_4_1"  />
</g>
<g id="a1_002"  >
<polygon points="398,90 446,90 451,85 446,80 398,80 398,90 " style="fill:#b115d8; stroke-width:1; stroke:black; " description="&lt;b&gt;ABY40741.1&lt;/b&gt;&lt;br&gt;ectoine synthase&lt;br&gt;Location: 2497 - 2901&lt;br&gt;&lt;br&gt;&lt;b&gt;BlastP hit with BNFEMFIJ_03664&lt;/b&gt;&lt;br&gt;Percentage identity: 47&lt;br&gt;Percentage coverage: 98&lt;br&gt;BLAST bit score: 135&lt;br&gt;E-value: 1.26e-41" locus_tag="ABY40741.1" class="clusterblast-orf" id="dummy-1_h1_4_2"  />
</g>
<g id="a1_003"  >
<polygon points="468,90 636,90 641,85 636,80 468,80 468,90 " style="fill:#b1d815; stroke-width:1; stroke:black; " description="&lt;b&gt;ABY40742.1&lt;/b&gt;&lt;br&gt;aspartokinase&lt;br&gt;Location: 3034 - 4347&lt;br&gt;&lt;br&gt;&lt;b&gt;BlastP hit with BNFEMFIJ_03665&lt;/b&gt;&lt;br&gt;Percentage identity: 48&lt;br&gt;Percentage coverage: 92&lt;br&gt;BLAST bit score: 381&lt;br&gt;E-value: 6.18e-129" locus_tag="ABY40742.1" class="clusterblast-orf" id="dummy-1_h1_4_3"  />
</g>
</svg>
