<svg xmlns="http://www.w3.org/2000/svg" xmlns:xlink="http://www.w3.org/1999/xlink" version="1.1" x="0" y="0" height="150" width="800" viewBox="0 0 800 150" preserveAspectRatio="none"  >
<g label="Query sequence" class="clusterblast-cluster"  >
<text x="5" y="20" class="clusterblast-acc"  >
Query sequence</text>
<line x1="10" y1="35" x2="778.0" y2="35" style="stroke-width:1; stroke:grey; "  />
<polygon points="0,40 37,40 42,35 37,30 0,30 0,40 " style="fill:white; stroke-width:1; stroke:black; " description="&lt;b&gt;BNFEMFIJ_01578&lt;/b&gt;&lt;br&gt;DNA mismatch repair protein MutS&lt;br&gt;Location: 391956 - 394608" locus_tag="BNFEMFIJ_01578" class="clusterblast-orf" id="knownclusterblast-1_q0_0_all"  />
<polygon points="43,35 48,30 52,30 52,40 48,40 43,35 " style="fill:white; stroke-width:1; stroke:black; " description="&lt;b&gt;BNFEMFIJ_01579&lt;/b&gt;&lt;br&gt;Protein GrpE&lt;br&gt;Location: 394679 - 395243" locus_tag="BNFEMFIJ_01579" class="clusterblast-orf" id="knownclusterblast-1_q1_0_all"  />
<polygon points="52,35 57,30 69,30 69,40 57,40 52,35 " style="fill:white; stroke-width:1; stroke:black; " description="&lt;b&gt;BNFEMFIJ_01580&lt;/b&gt;&lt;br&gt;Heat-inducible transcription repressor HrcA&lt;br&gt;Location: 395255 - 396323" locus_tag="BNFEMFIJ_01580" class="clusterblast-orf" id="knownclusterblast-1_q2_0_all"  />
<polygon points="71,40 77,40 82,35 77,30 71,30 71,40 " style="fill:#d81515; stroke-width:1; stroke:black; " description="&lt;b&gt;BNFEMFIJ_01581&lt;/b&gt;&lt;br&gt;Ribonuclease PH&lt;br&gt;Location: 396418 - 397129" locus_tag="BNFEMFIJ_01581" class="clusterblast-orf" id="knownclusterblast-1_q3_0_all"  />
<polygon points="82,40 86,40 91,35 86,30 82,30 82,40 " style="fill:#77d815; stroke-width:1; stroke:black; " description="&lt;b&gt;BNFEMFIJ_01582&lt;/b&gt;&lt;br&gt;dITP/XTP pyrophosphatase&lt;br&gt;Location: 397125 - 397722" locus_tag="BNFEMFIJ_01582" class="clusterblast-orf" id="knownclusterblast-1_q4_0_all"  />
<polygon points="91,40 105,40 110,35 105,30 91,30 91,40 " style="fill:white; stroke-width:1; stroke:black; " description="&lt;b&gt;BNFEMFIJ_01583&lt;/b&gt;&lt;br&gt;Heme chaperone HemW&lt;br&gt;Location: 397718 - 398882" locus_tag="BNFEMFIJ_01583" class="clusterblast-orf" id="knownclusterblast-1_q5_0_all"  />
<polygon points="110,35 115,30 124,30 124,40 115,40 110,35 " style="fill:white; stroke-width:1; stroke:black; " description="&lt;b&gt;BNFEMFIJ_01584&lt;/b&gt;&lt;br&gt;Chromosome-partitioning protein ParB&lt;br&gt;Location: 398888 - 399794" locus_tag="BNFEMFIJ_01584" class="clusterblast-orf" id="knownclusterblast-1_q6_0_all"  />
<polygon points="124,35 129,30 137,30 137,40 129,40 124,35 " style="fill:white; stroke-width:1; stroke:black; " description="&lt;b&gt;BNFEMFIJ_01585&lt;/b&gt;&lt;br&gt;Chromosome partitioning protein ParA&lt;br&gt;Location: 399793 - 400582" locus_tag="BNFEMFIJ_01585" class="clusterblast-orf" id="knownclusterblast-1_q7_0_all"  />
<polygon points="147,35 152,30 175,30 175,40 152,40 147,35 " style="fill:white; stroke-width:1; stroke:black; " description="&lt;b&gt;BNFEMFIJ_01586&lt;/b&gt;&lt;br&gt;tRNA uridine 5-carboxymethylaminomethyl modification enzyme MnmG&lt;br&gt;Location: 401209 - 402955" locus_tag="BNFEMFIJ_01586" class="clusterblast-orf" id="knownclusterblast-1_q8_0_all"  />
<polygon points="177,35 182,30 197,30 197,40 182,40 177,35 " style="fill:white; stroke-width:1; stroke:black; " description="&lt;b&gt;BNFEMFIJ_01587&lt;/b&gt;&lt;br&gt;tRNA modification GTPase MnmE&lt;br&gt;Location: 403089 - 404367" locus_tag="BNFEMFIJ_01587" class="clusterblast-orf" id="knownclusterblast-1_q9_0_all"  />
<polygon points="198,35 203,30 218,30 218,40 203,40 198,35 " style="fill:white; stroke-width:1; stroke:black; " description="&lt;b&gt;BNFEMFIJ_01588&lt;/b&gt;&lt;br&gt;Transcription termination factor Rho&lt;br&gt;Location: 404392 - 405664" locus_tag="BNFEMFIJ_01588" class="clusterblast-orf" id="knownclusterblast-1_q10_0_all"  />
<polygon points="226,40 230,40 235,35 230,30 226,30 226,40 " style="fill:white; stroke-width:1; stroke:black; " description="&lt;b&gt;BNFEMFIJ_01589&lt;/b&gt;&lt;br&gt;7-methyl-GTP pyrophosphatase&lt;br&gt;Location: 406169 - 406766" locus_tag="BNFEMFIJ_01589" class="clusterblast-orf" id="knownclusterblast-1_q11_0_all"  />
<polygon points="235,40 243,40 248,35 243,30 235,30 235,40 " style="fill:white; stroke-width:1; stroke:black; " description="&lt;b&gt;BNFEMFIJ_01590&lt;/b&gt;&lt;br&gt;Shikimate dehydrogenase (NADP(+))&lt;br&gt;Location: 406762 - 407581" locus_tag="BNFEMFIJ_01590" class="clusterblast-orf" id="knownclusterblast-1_q12_0_all"  />
<polygon points="248,40 253,40 258,35 253,30 248,30 248,40 " style="fill:white; stroke-width:1; stroke:black; " description="&lt;b&gt;BNFEMFIJ_01591&lt;/b&gt;&lt;br&gt;Dephospho-CoA kinase&lt;br&gt;Location: 407577 - 408174" locus_tag="BNFEMFIJ_01591" class="clusterblast-orf" id="knownclusterblast-1_q13_0_all"  />
<polygon points="258,40 264,40 269,35 264,30 258,30 258,40 " style="fill:white; stroke-width:1; stroke:black; " description="&lt;b&gt;BNFEMFIJ_01592&lt;/b&gt;&lt;br&gt;DNA polymerase III subunit epsilon&lt;br&gt;Location: 408166 - 408859" locus_tag="BNFEMFIJ_01592" class="clusterblast-orf" id="knownclusterblast-1_q14_0_all"  />
<polygon points="268,40 282,40 287,35 282,30 268,30 268,40 " style="fill:white; stroke-width:1; stroke:black; " description="&lt;b&gt;BNFEMFIJ_01593&lt;/b&gt;&lt;br&gt;3-dehydro-bile acid delta(4,6)-reductase&lt;br&gt;Location: 408800 - 410024" locus_tag="BNFEMFIJ_01593" class="clusterblast-orf" id="knownclusterblast-1_q15_0_all"  />
<polygon points="287,35 292,30 297,30 297,40 292,40 287,35 " style="fill:white; stroke-width:1; stroke:black; " description="&lt;b&gt;BNFEMFIJ_01594&lt;/b&gt;&lt;br&gt;4'-phosphopantetheinyl transferase Npt&lt;br&gt;Location: 410001 - 410625" locus_tag="BNFEMFIJ_01594" class="clusterblast-orf" id="knownclusterblast-1_q16_0_all"  />
<polygon points="297,35 302,30 369,30 369,40 302,40 297,35 " style="fill:white; stroke-width:1; stroke:black; " description="&lt;b&gt;BNFEMFIJ_01595&lt;/b&gt;&lt;br&gt;D-alanine--D-alanyl carrier protein ligase&lt;br&gt;Location: 410632 - 415159" locus_tag="BNFEMFIJ_01595" class="clusterblast-orf" id="knownclusterblast-1_q17_0_all"  />
<polygon points="369,35 374,30 384,30 384,40 374,40 369,35 " style="fill:white; stroke-width:1; stroke:black; " description="&lt;b&gt;BNFEMFIJ_01596&lt;/b&gt;&lt;br&gt;hypothetical protein&lt;br&gt;Location: 415161 - 416106" locus_tag="BNFEMFIJ_01596" class="clusterblast-orf" id="knownclusterblast-1_q18_0_all"  />
<polygon points="384,35 389,30 485,30 485,40 389,40 384,35 " style="fill:white; stroke-width:1; stroke:black; " description="&lt;b&gt;BNFEMFIJ_01597&lt;/b&gt;&lt;br&gt;hypothetical protein&lt;br&gt;Location: 416102 - 422429" locus_tag="BNFEMFIJ_01597" class="clusterblast-orf" id="knownclusterblast-1_q19_0_all"  />
<polygon points="486,35 491,30 510,30 510,40 491,40 486,35 " style="fill:white; stroke-width:1; stroke:black; " description="&lt;b&gt;BNFEMFIJ_01598&lt;/b&gt;&lt;br&gt;hypothetical protein&lt;br&gt;Location: 422516 - 424055" locus_tag="BNFEMFIJ_01598" class="clusterblast-orf" id="knownclusterblast-1_q20_0_all"  />
<polygon points="514,40 521,40 526,35 521,30 514,30 514,40 " style="fill:white; stroke-width:1; stroke:black; " description="&lt;b&gt;BNFEMFIJ_01599&lt;/b&gt;&lt;br&gt;UDP-N-acetyl-D-mannosaminuronic acid transferase&lt;br&gt;Location: 424305 - 425013" locus_tag="BNFEMFIJ_01599" class="clusterblast-orf" id="knownclusterblast-1_q21_0_all"  />
<polygon points="528,40 540,40 545,35 540,30 528,30 528,40 " style="fill:#15d8d8; stroke-width:1; stroke:black; " description="&lt;b&gt;BNFEMFIJ_01600&lt;/b&gt;&lt;br&gt;S-(hydroxymethyl)glutathione dehydrogenase&lt;br&gt;Location: 425130 - 426240" locus_tag="BNFEMFIJ_01600" class="clusterblast-orf" id="knownclusterblast-1_q22_0_all"  />
<polygon points="545,40 553,40 558,35 553,30 545,30 545,40 " style="fill:#7715d8; stroke-width:1; stroke:black; " description="&lt;b&gt;BNFEMFIJ_01601&lt;/b&gt;&lt;br&gt;S-formylglutathione hydrolase&lt;br&gt;Location: 426239 - 427073" locus_tag="BNFEMFIJ_01601" class="clusterblast-orf" id="knownclusterblast-1_q23_0_all"  />
<polygon points="562,40 575,40 580,35 575,30 562,30 562,40 " style="fill:white; stroke-width:1; stroke:black; " description="&lt;b&gt;BNFEMFIJ_01602&lt;/b&gt;&lt;br&gt;Tn3 family transposase TnXax1&lt;br&gt;Location: 427273 - 428452" locus_tag="BNFEMFIJ_01602" class="clusterblast-orf" id="knownclusterblast-1_q24_0_all"  />
<polygon points="582,40 583,40 588,35 583,30 582,30 582,40 " style="fill:white; stroke-width:1; stroke:black; " description="&lt;b&gt;BNFEMFIJ_01603&lt;/b&gt;&lt;br&gt;hypothetical protein&lt;br&gt;Location: 428566 - 428908" locus_tag="BNFEMFIJ_01603" class="clusterblast-orf" id="knownclusterblast-1_q25_0_all"  />
<polygon points="595,35 600,30 617,30 617,40 600,40 595,35 " style="fill:white; stroke-width:1; stroke:black; " description="&lt;b&gt;BNFEMFIJ_01604&lt;/b&gt;&lt;br&gt;hypothetical protein&lt;br&gt;Location: 429355 - 430768" locus_tag="BNFEMFIJ_01604" class="clusterblast-orf" id="knownclusterblast-1_q26_0_all"  />
<polygon points="617,35 622,30 644,30 644,40 622,40 617,35 " style="fill:white; stroke-width:1; stroke:black; " description="&lt;b&gt;BNFEMFIJ_01605&lt;/b&gt;&lt;br&gt;hypothetical protein&lt;br&gt;Location: 430767 - 432465" locus_tag="BNFEMFIJ_01605" class="clusterblast-orf" id="knownclusterblast-1_q27_0_all"  />
<polygon points="644,35 649,30 660,30 660,40 649,40 644,35 " style="fill:white; stroke-width:1; stroke:black; " description="&lt;b&gt;BNFEMFIJ_01606&lt;/b&gt;&lt;br&gt;hypothetical protein&lt;br&gt;Location: 432461 - 433442" locus_tag="BNFEMFIJ_01606" class="clusterblast-orf" id="knownclusterblast-1_q28_0_all"  />
<polygon points="662,35 667,30 678,30 678,40 667,40 662,35 " style="fill:white; stroke-width:1; stroke:black; " description="&lt;b&gt;BNFEMFIJ_01607&lt;/b&gt;&lt;br&gt;hypothetical protein&lt;br&gt;Location: 433571 - 434597" locus_tag="BNFEMFIJ_01607" class="clusterblast-orf" id="knownclusterblast-1_q29_0_all"  />
<polygon points="680,35 685,30 694,30 694,40 685,40 680,35 " style="fill:white; stroke-width:1; stroke:black; " description="&lt;b&gt;BNFEMFIJ_01608&lt;/b&gt;&lt;br&gt;UTP--glucose-1-phosphate uridylyltransferase&lt;br&gt;Location: 434707 - 435604" locus_tag="BNFEMFIJ_01608" class="clusterblast-orf" id="knownclusterblast-1_q30_0_all"  />
<polygon points="697,35 702,30 710,30 710,40 702,40 697,35 " style="fill:white; stroke-width:1; stroke:black; " description="&lt;b&gt;BNFEMFIJ_01609&lt;/b&gt;&lt;br&gt;3'(2'),5'-bisphosphate nucleotidase CysQ&lt;br&gt;Location: 435780 - 436578" locus_tag="BNFEMFIJ_01609" class="clusterblast-orf" id="knownclusterblast-1_q31_0_all"  />
<polygon points="712,40 720,40 725,35 720,30 712,30 712,40 " style="fill:white; stroke-width:1; stroke:black; " description="&lt;b&gt;BNFEMFIJ_01610&lt;/b&gt;&lt;br&gt;hypothetical protein&lt;br&gt;Location: 436697 - 437519" locus_tag="BNFEMFIJ_01610" class="clusterblast-orf" id="knownclusterblast-1_q32_0_all"  />
<polygon points="725,40 730,40 735,35 730,30 725,30 725,40 " style="fill:white; stroke-width:1; stroke:black; " description="&lt;b&gt;BNFEMFIJ_01611&lt;/b&gt;&lt;br&gt;hypothetical protein&lt;br&gt;Location: 437528 - 438152" locus_tag="BNFEMFIJ_01611" class="clusterblast-orf" id="knownclusterblast-1_q33_0_all"  />
<polygon points="736,40 738,40 743,35 738,30 736,30 736,40 " style="fill:white; stroke-width:1; stroke:black; " description="&lt;b&gt;BNFEMFIJ_01612&lt;/b&gt;&lt;br&gt;hypothetical protein&lt;br&gt;Location: 438212 - 438659" locus_tag="BNFEMFIJ_01612" class="clusterblast-orf" id="knownclusterblast-1_q34_0_all"  />
<polygon points="743,40 753,40 758,35 753,30 743,30 743,40 " style="fill:white; stroke-width:1; stroke:black; " description="&lt;b&gt;BNFEMFIJ_01613&lt;/b&gt;&lt;br&gt;Riboflavin transporter&lt;br&gt;Location: 438655 - 439591" locus_tag="BNFEMFIJ_01613" class="clusterblast-orf" id="knownclusterblast-1_q35_0_all"  />
<polygon points="759,40 759,40 764,35 759,30 759,30 759,40 " style="fill:white; stroke-width:1; stroke:black; " description="&lt;b&gt;BNFEMFIJ_01614&lt;/b&gt;&lt;br&gt;Trans-acting regulatory protein HvrA&lt;br&gt;Location: 439673 - 439985" locus_tag="BNFEMFIJ_01614" class="clusterblast-orf" id="knownclusterblast-1_q36_0_all"  />
<polygon points="767,35 772,30 780,30 780,40 772,40 767,35 " style="fill:white; stroke-width:1; stroke:black; " description="&lt;b&gt;BNFEMFIJ_01615&lt;/b&gt;&lt;br&gt;Methionine aminopeptidase&lt;br&gt;Location: 440161 - 440971" locus_tag="BNFEMFIJ_01615" class="clusterblast-orf" id="knownclusterblast-1_q37_0_all"  />
</g>
<g label="BGC0000189" description="BGC0000189_c1: 3-(2'-hydroxy-3'-oxo-4'-methylpentyl)-indole/3-(2'-hydroxy-3'-... (25% of genes show similarity), Polyketide:Type III polyketide" class="clusterblast-cluster"  >
<text x="5" y="70" class="clusterblast-acc"  >
<a xlink:href="https://mibig.secondarymetabolites.org/go/BGC0000189/1" target="_blank">BGC0000189</a>: 3-(2'-hydroxy-3'-oxo-4'-methylpentyl)-indole/3-(2'-hydroxy-3'-oxo-4'-methylhexyl)-indole/3-(2'-acetoxy-3'-oxo-4'-methylpentyl)-indole/3-(2'-acetoxy-3'-oxo-4'-methylhexyl)-indole (25% of genes show similarity), Polyketide:Type III polyketide</text>
<line x1="10" y1="85" x2="778.0" y2="85" style="stroke-width:1; stroke:grey; "  />
</g>
<g id="a1_000"  >
<polygon points="325,90 347,90 352,85 347,80 325,80 325,90 " style="fill:white; stroke-width:1; stroke:black; " description="&lt;b&gt;XBJ1_3894&lt;/b&gt;&lt;br&gt;putative 3-oxoacyl-[acyl-carrier-protein] synthase&lt;br&gt;Location: 1 - 1677" locus_tag="XBJ1_3894" class="clusterblast-orf" id="knownclusterblast-1_all_1_1_0"  />
</g>
<g id="a1_001"  >
<polygon points="353,90 356,85 353,80 353,90 " style="fill:white; stroke-width:1; stroke:black; " description="&lt;b&gt;XBJ1_3895&lt;/b&gt;&lt;br&gt;conserved hypothetical protein&lt;br&gt;Location: 1789 - 1953" locus_tag="XBJ1_3895" class="clusterblast-orf" id="knownclusterblast-1_all_1_1_1"  />
</g>
<g id="a1_002"  >
<polygon points="357,90 370,90 375,85 370,80 357,80 357,90 " style="fill:#15d8d8; stroke-width:1; stroke:black; " description="&lt;b&gt;XBJ1_3896&lt;/b&gt;&lt;br&gt;alcohol dehydrogenase class III&lt;br&gt;Location: 2021 - 3130&lt;br&gt;&lt;br&gt;&lt;b&gt;BlastP hit with BNFEMFIJ_01600&lt;/b&gt;&lt;br&gt;Percentage identity: 64&lt;br&gt;Percentage coverage: 99&lt;br&gt;BLAST bit score: 493&lt;br&gt;E-value: 1.46e-175" locus_tag="XBJ1_3896" class="clusterblast-orf" id="knownclusterblast-1_all_1_1_2"  />
</g>
<g id="a1_003"  >
<polygon points="376,90 384,90 389,85 384,80 376,80 376,90 " style="fill:#7715d8; stroke-width:1; stroke:black; " description="&lt;b&gt;XBJ1_3897&lt;/b&gt;&lt;br&gt;putative esterase&lt;br&gt;Location: 3200 - 4045&lt;br&gt;&lt;br&gt;&lt;b&gt;BlastP hit with BNFEMFIJ_01601&lt;/b&gt;&lt;br&gt;Percentage identity: 54&lt;br&gt;Percentage coverage: 99&lt;br&gt;BLAST bit score: 294&lt;br&gt;E-value: 7.24e-100" locus_tag="XBJ1_3897" class="clusterblast-orf" id="knownclusterblast-1_all_1_1_3"  />
</g>
<g id="a1_004"  >
<polygon points="390,85 395,80 406,80 406,90 395,90 390,85 " style="fill:white; stroke-width:1; stroke:black; " description="&lt;b&gt;XBJ1_3898&lt;/b&gt;&lt;br&gt;3-oxoacyl-[acyl-carrier-protein] synthase III&lt;br&gt;Location: 4110 - 5090" locus_tag="XBJ1_3898" class="clusterblast-orf" id="knownclusterblast-1_all_1_1_4"  />
</g>
<g id="a1_005"  >
<polygon points="408,85 410,80 410,90 408,85 " style="fill:white; stroke-width:1; stroke:black; " description="&lt;b&gt;XBJ1_3899&lt;/b&gt;&lt;br&gt;hypothetical protein&lt;br&gt;Location: 5244 - 5375" locus_tag="XBJ1_3899" class="clusterblast-orf" id="knownclusterblast-1_all_1_1_5"  />
</g>
<g id="a1_006"  >
<polygon points="411,85 416,80 427,80 427,90 416,90 411,85 " style="fill:white; stroke-width:1; stroke:black; " description="&lt;b&gt;XBJ1_3900&lt;/b&gt;&lt;br&gt;acylating ketosynthases, acylation of the XclA-derived xenolcyloins with acetyl-, propionyl- or maleonyl-CoA&lt;br&gt;Location: 5405 - 6436" locus_tag="XBJ1_3900" class="clusterblast-orf" id="knownclusterblast-1_all_1_1_6"  />
</g>
<g id="a1_007"  >
<polygon points="427,85 432,80 454,80 454,90 432,90 427,85 " style="fill:white; stroke-width:1; stroke:black; " description="&lt;b&gt;XBJ1_3901&lt;/b&gt;&lt;br&gt;S-selective acyloin-like condensation enzyme&lt;br&gt;Location: 6426 - 8123" locus_tag="XBJ1_3901" class="clusterblast-orf" id="knownclusterblast-1_all_1_1_7"  />
</g>
<g label="BGC0000469" description="BGC0000469_c1: bottromycin A2 (6% of genes show similarity), RiPP:Bottromycin" class="clusterblast-cluster"  >
<text x="5" y="120" class="clusterblast-acc"  >
<a xlink:href="https://mibig.secondarymetabolites.org/go/BGC0000469/1" target="_blank">BGC0000469</a>: bottromycin A2                                                                   (6% of genes show similarity), RiPP:Bottromycin</text>
<line x1="10" y1="135" x2="778.0" y2="135" style="stroke-width:1; stroke:grey; "  />
</g>
<g id="a1_000"  >
<polygon points="72,140 85,140 90,135 85,130 72,130 72,140 " style="fill:white; stroke-width:1; stroke:black; " description="&lt;b&gt;AFV25496.1&lt;/b&gt;&lt;br&gt;hypothetical protein&lt;br&gt;Location: 39901 - 38795" locus_tag="AFV25496.1" class="clusterblast-orf" id="knownclusterblast-1_all_1_2_0"  />
</g>
<g id="a1_001"  >
<polygon points="95,140 99,135 95,130 95,140 " style="fill:white; stroke-width:1; stroke:black; " description="&lt;b&gt;AFV25495.1&lt;/b&gt;&lt;br&gt;hypothetical protein&lt;br&gt;Location: 38485 - 38207" locus_tag="AFV25495.1" class="clusterblast-orf" id="knownclusterblast-1_all_1_2_1"  />
</g>
<g id="a1_002"  >
<polygon points="100,140 110,140 115,135 110,130 100,130 100,140 " style="fill:white; stroke-width:1; stroke:black; " description="&lt;b&gt;AFV25494.1&lt;/b&gt;&lt;br&gt;hypothetical protein&lt;br&gt;Location: 38132 - 37209" locus_tag="AFV25494.1" class="clusterblast-orf" id="knownclusterblast-1_all_1_2_2"  />
</g>
<g id="a1_003"  >
<polygon points="119,135 124,130 127,130 127,140 124,140 119,135 " style="fill:white; stroke-width:1; stroke:black; " description="&lt;b&gt;AFV25493.1&lt;/b&gt;&lt;br&gt;hypothetical protein&lt;br&gt;Location: 36978 - 36454" locus_tag="AFV25493.1" class="clusterblast-orf" id="knownclusterblast-1_all_1_2_3"  />
</g>
<g id="a1_004"  >
<polygon points="132,140 139,140 144,135 139,130 132,130 132,140 " style="fill:white; stroke-width:1; stroke:black; " description="&lt;b&gt;AFV25492.1&lt;/b&gt;&lt;br&gt;hypothetical protein&lt;br&gt;Location: 36143 - 35391" locus_tag="AFV25492.1" class="clusterblast-orf" id="knownclusterblast-1_all_1_2_4"  />
</g>
<g id="a1_005"  >
<polygon points="145,135 150,130 165,130 165,140 150,140 145,135 " style="fill:white; stroke-width:1; stroke:black; " description="&lt;b&gt;AFV25491.1&lt;/b&gt;&lt;br&gt;hypothetical protein&lt;br&gt;Location: 35306 - 34053" locus_tag="AFV25491.1" class="clusterblast-orf" id="knownclusterblast-1_all_1_2_5"  />
</g>
<g id="a1_006"  >
<polygon points="167,135 172,130 191,130 191,140 172,140 167,135 " style="fill:white; stroke-width:1; stroke:black; " description="&lt;b&gt;AFV25490.1&lt;/b&gt;&lt;br&gt;BotP&lt;br&gt;Location: 33922 - 32408" locus_tag="AFV25490.1" class="clusterblast-orf" id="knownclusterblast-1_all_1_2_6"  />
</g>
<g id="a1_007"  >
<polygon points="191,135 196,130 200,130 200,140 196,140 191,135 " style="fill:white; stroke-width:1; stroke:black; " description="&lt;b&gt;AFV25489.1&lt;/b&gt;&lt;br&gt;BotR&lt;br&gt;Location: 32403 - 31849" locus_tag="AFV25489.1" class="clusterblast-orf" id="knownclusterblast-1_all_1_2_7"  />
</g>
<g id="a1_008"  >
<polygon points="203,135 208,130 235,130 235,140 208,140 203,135 " style="fill:white; stroke-width:1; stroke:black; " description="&lt;b&gt;AFV25488.1&lt;/b&gt;&lt;br&gt;BotRMT3&lt;br&gt;Location: 31684 - 29639" locus_tag="AFV25488.1" class="clusterblast-orf" id="knownclusterblast-1_all_1_2_8"  />
</g>
<g id="a1_009"  >
<polygon points="236,135 241,130 255,130 255,140 241,140 236,135 " style="fill:white; stroke-width:1; stroke:black; " description="&lt;b&gt;AFV25487.2&lt;/b&gt;&lt;br&gt;BotCYP&lt;br&gt;Location: 29631 - 28405" locus_tag="AFV25487.2" class="clusterblast-orf" id="knownclusterblast-1_all_1_2_9"  />
</g>
<g id="a1_0010"  >
<polygon points="255,135 260,130 277,130 277,140 260,140 255,135 " style="fill:white; stroke-width:1; stroke:black; " description="&lt;b&gt;AFV25486.1&lt;/b&gt;&lt;br&gt;BotAH&lt;br&gt;Location: 28415 - 27018" locus_tag="AFV25486.1" class="clusterblast-orf" id="knownclusterblast-1_all_1_2_10"  />
</g>
<g id="a1_0011"  >
<polygon points="277,135 282,130 291,130 291,140 282,140 277,135 " style="fill:white; stroke-width:1; stroke:black; " description="&lt;b&gt;AFV25485.1&lt;/b&gt;&lt;br&gt;BotH&lt;br&gt;Location: 27000 - 26119" locus_tag="AFV25485.1" class="clusterblast-orf" id="knownclusterblast-1_all_1_2_11"  />
</g>
<g id="a1_0012"  >
<polygon points="291,135 296,130 323,130 323,140 296,140 291,135 " style="fill:white; stroke-width:1; stroke:black; " description="&lt;b&gt;AFV25484.1&lt;/b&gt;&lt;br&gt;BotRMT2&lt;br&gt;Location: 26132 - 24150" locus_tag="AFV25484.1" class="clusterblast-orf" id="knownclusterblast-1_all_1_2_12"  />
</g>
<g id="a1_0013"  >
<polygon points="323,135 328,130 342,130 342,140 328,140 323,135 " style="fill:white; stroke-width:1; stroke:black; " description="&lt;b&gt;AFV25483.1&lt;/b&gt;&lt;br&gt;BotCD&lt;br&gt;Location: 24153 - 22951" locus_tag="AFV25483.1" class="clusterblast-orf" id="knownclusterblast-1_all_1_2_13"  />
</g>
<g id="a1_0014"  >
<polygon points="344,135 349,130 364,130 364,140 349,140 344,135 " style="fill:white; stroke-width:1; stroke:black; " description="&lt;b&gt;AFV25482.1&lt;/b&gt;&lt;br&gt;BotC&lt;br&gt;Location: 22838 - 21534" locus_tag="AFV25482.1" class="clusterblast-orf" id="knownclusterblast-1_all_1_2_14"  />
</g>
<g id="a1_0015"  >
<polygon points="365,135 368,130 368,140 365,135 " style="fill:white; stroke-width:1; stroke:black; " description="&lt;b&gt;AFV25481.1&lt;/b&gt;&lt;br&gt;BotA&lt;br&gt;Location: 21470 - 21336" locus_tag="AFV25481.1" class="clusterblast-orf" id="knownclusterblast-1_all_1_2_15"  />
</g>
<g id="a1_0016"  >
<polygon points="369,135 374,130 400,130 400,140 374,140 369,135 " style="fill:white; stroke-width:1; stroke:black; " description="&lt;b&gt;AFV25480.1&lt;/b&gt;&lt;br&gt;BotRMT1&lt;br&gt;Location: 21239 - 19314" locus_tag="AFV25480.1" class="clusterblast-orf" id="knownclusterblast-1_all_1_2_16"  />
</g>
<g id="a1_0017"  >
<polygon points="406,140 415,140 420,135 415,130 406,130 406,140 " style="fill:white; stroke-width:1; stroke:black; " description="&lt;b&gt;AFV25479.1&lt;/b&gt;&lt;br&gt;BotOMT&lt;br&gt;Location: 18908 - 18069" locus_tag="AFV25479.1" class="clusterblast-orf" id="knownclusterblast-1_all_1_2_17"  />
</g>
<g id="a1_0018"  >
<polygon points="428,140 443,140 448,135 443,130 428,130 428,140 " style="fill:white; stroke-width:1; stroke:black; " description="&lt;b&gt;AFV25478.1&lt;/b&gt;&lt;br&gt;BotT&lt;br&gt;Location: 17550 - 16255" locus_tag="AFV25478.1" class="clusterblast-orf" id="knownclusterblast-1_all_1_2_18"  />
</g>
<g id="a1_0019"  >
<polygon points="453,140 456,135 453,130 453,140 " style="fill:white; stroke-width:1; stroke:black; " description="&lt;b&gt;AFV25477.1&lt;/b&gt;&lt;br&gt;hypothetical protein&lt;br&gt;Location: 15990 - 15757" locus_tag="AFV25477.1" class="clusterblast-orf" id="knownclusterblast-1_all_1_2_19"  />
</g>
<g id="a1_0020"  >
<polygon points="458,140 464,140 469,135 464,130 458,130 458,140 " style="fill:#d81515; stroke-width:1; stroke:black; " description="&lt;b&gt;AFV25476.1&lt;/b&gt;&lt;br&gt;hypothetical protein&lt;br&gt;Location: 15678 - 14941&lt;br&gt;&lt;br&gt;&lt;b&gt;BlastP hit with BNFEMFIJ_01581&lt;/b&gt;&lt;br&gt;Percentage identity: 51&lt;br&gt;Percentage coverage: 102&lt;br&gt;BLAST bit score: 222&lt;br&gt;E-value: 7.69e-73" locus_tag="AFV25476.1" class="clusterblast-orf" id="knownclusterblast-1_all_1_2_20"  />
</g>
<g id="a1_0021"  >
<polygon points="479,140 483,140 488,135 483,130 479,130 479,140 " style="fill:#77d815; stroke-width:1; stroke:black; " description="&lt;b&gt;AFV25475.1&lt;/b&gt;&lt;br&gt;hypothetical protein&lt;br&gt;Location: 14349 - 13747&lt;br&gt;&lt;br&gt;&lt;b&gt;BlastP hit with BNFEMFIJ_01582&lt;/b&gt;&lt;br&gt;Percentage identity: 48&lt;br&gt;Percentage coverage: 96&lt;br&gt;BLAST bit score: 154&lt;br&gt;E-value: 4.07e-47" locus_tag="AFV25475.1" class="clusterblast-orf" id="knownclusterblast-1_all_1_2_21"  />
</g>
<g id="a1_0022"  >
<polygon points="490,135 495,130 503,130 503,140 495,140 490,135 " style="fill:white; stroke-width:1; stroke:black; " description="&lt;b&gt;AFV25474.1&lt;/b&gt;&lt;br&gt;hypothetical protein&lt;br&gt;Location: 13653 - 12847" locus_tag="AFV25474.1" class="clusterblast-orf" id="knownclusterblast-1_all_1_2_22"  />
</g>
<g id="a1_0023"  >
<polygon points="504,135 509,130 509,130 509,140 509,140 504,135 " style="fill:white; stroke-width:1; stroke:black; " description="&lt;b&gt;AFV25473.1&lt;/b&gt;&lt;br&gt;hypothetical protein&lt;br&gt;Location: 12749 - 12477" locus_tag="AFV25473.1" class="clusterblast-orf" id="knownclusterblast-1_all_1_2_23"  />
</g>
<g id="a1_0024"  >
<polygon points="511,135 516,130 519,130 519,140 516,140 511,135 " style="fill:white; stroke-width:1; stroke:black; " description="&lt;b&gt;AFV25472.1&lt;/b&gt;&lt;br&gt;hypothetical protein&lt;br&gt;Location: 12338 - 11793" locus_tag="AFV25472.1" class="clusterblast-orf" id="knownclusterblast-1_all_1_2_24"  />
</g>
<g id="a1_0025"  >
<polygon points="526,140 527,140 532,135 527,130 526,130 526,140 " style="fill:white; stroke-width:1; stroke:black; " description="&lt;b&gt;AFV25471.1&lt;/b&gt;&lt;br&gt;hypothetical protein&lt;br&gt;Location: 11359 - 11018" locus_tag="AFV25471.1" class="clusterblast-orf" id="knownclusterblast-1_all_1_2_25"  />
</g>
<g id="a1_0026"  >
<polygon points="533,135 538,130 572,130 572,140 538,140 533,135 " style="fill:white; stroke-width:1; stroke:black; " description="&lt;b&gt;AFV25470.1&lt;/b&gt;&lt;br&gt;hypothetical protein&lt;br&gt;Location: 10941 - 8518" locus_tag="AFV25470.1" class="clusterblast-orf" id="knownclusterblast-1_all_1_2_26"  />
</g>
<g id="a1_0027"  >
<polygon points="601,140 607,140 612,135 607,130 601,130 601,140 " style="fill:white; stroke-width:1; stroke:black; " description="&lt;b&gt;AFV25469.1&lt;/b&gt;&lt;br&gt;hypothetical protein&lt;br&gt;Location: 6682 - 5948" locus_tag="AFV25469.1" class="clusterblast-orf" id="knownclusterblast-1_all_1_2_27"  />
</g>
<g id="a1_0028"  >
<polygon points="612,140 621,140 626,135 621,130 612,130 612,140 " style="fill:white; stroke-width:1; stroke:black; " description="&lt;b&gt;AFV25468.1&lt;/b&gt;&lt;br&gt;hypothetical protein&lt;br&gt;Location: 5955 - 5074" locus_tag="AFV25468.1" class="clusterblast-orf" id="knownclusterblast-1_all_1_2_28"  />
</g>
<g id="a1_0029"  >
<polygon points="628,140 637,140 642,135 637,130 628,130 628,140 " style="fill:white; stroke-width:1; stroke:black; " description="&lt;b&gt;AFV25467.1&lt;/b&gt;&lt;br&gt;hypothetical protein&lt;br&gt;Location: 4969 - 4067" locus_tag="AFV25467.1" class="clusterblast-orf" id="knownclusterblast-1_all_1_2_29"  />
</g>
<g id="a1_0030"  >
<polygon points="645,140 653,140 658,135 653,130 645,130 645,140 " style="fill:white; stroke-width:1; stroke:black; " description="&lt;b&gt;AFV25466.1&lt;/b&gt;&lt;br&gt;hypothetical protein&lt;br&gt;Location: 3918 - 3064" locus_tag="AFV25466.1" class="clusterblast-orf" id="knownclusterblast-1_all_1_2_30"  />
</g>
<g id="a1_0031"  >
<polygon points="660,135 665,130 686,130 686,140 665,140 660,135 " style="fill:white; stroke-width:1; stroke:black; " description="&lt;b&gt;AFV25465.1&lt;/b&gt;&lt;br&gt;hypothetical protein&lt;br&gt;Location: 2976 - 1309" locus_tag="AFV25465.1" class="clusterblast-orf" id="knownclusterblast-1_all_1_2_31"  />
</g>
<g id="a1_0032"  >
<polygon points="688,140 702,140 707,135 702,130 688,130 688,140 " style="fill:white; stroke-width:1; stroke:black; " description="&lt;b&gt;AFV25464.1&lt;/b&gt;&lt;br&gt;hypothetical protein&lt;br&gt;Location: 1204 - 14" locus_tag="AFV25464.1" class="clusterblast-orf" id="knownclusterblast-1_all_1_2_32"  />
</g>
</svg>
