<svg xmlns="http://www.w3.org/2000/svg" xmlns:xlink="http://www.w3.org/1999/xlink" version="1.1" x="0" y="0" height="230" width="800" viewBox="0 0 800 230" preserveAspectRatio="none"  >
<g label="Query sequence" class="clusterblast-cluster"  >
<text x="5" y="20" class="clusterblast-acc"  >
Query sequence</text>
<line x1="10" y1="35" x2="778.0" y2="35" style="stroke-width:1; stroke:grey; "  />
<polygon points="284,40 292,40 297,35 292,30 284,30 284,40 " style="fill:#d81515; stroke-width:1; stroke:black; " description="&lt;b&gt;IFJPPCDH_03818&lt;/b&gt;&lt;br&gt;putative MFS-type transporter YfcJ&lt;br&gt;Location: 231204 - 232392" locus_tag="IFJPPCDH_03818" class="clusterblast-orf" id="dummy-1_q0_0_all"  />
<polygon points="299,35 304,30 304,30 304,40 304,40 299,35 " style="fill:white; stroke-width:1; stroke:black; " description="&lt;b&gt;IFJPPCDH_03819&lt;/b&gt;&lt;br&gt;Translation initiation factor IF-3&lt;br&gt;Location: 232578 - 233004" locus_tag="IFJPPCDH_03819" class="clusterblast-orf" id="dummy-1_q1_0_all"  />
<polygon points="307,40 314,40 319,35 314,30 307,30 307,40 " style="fill:white; stroke-width:1; stroke:black; " description="&lt;b&gt;IFJPPCDH_03820&lt;/b&gt;&lt;br&gt;hypothetical protein&lt;br&gt;Location: 233325 - 234354" locus_tag="IFJPPCDH_03820" class="clusterblast-orf" id="dummy-1_q2_0_all"  />
<polygon points="319,35 324,30 333,30 333,40 324,40 319,35 " style="fill:#15d815; stroke-width:1; stroke:black; " description="&lt;b&gt;IFJPPCDH_03821&lt;/b&gt;&lt;br&gt;Biotin biosynthesis cytochrome P450&lt;br&gt;Location: 234402 - 235608" locus_tag="IFJPPCDH_03821" class="clusterblast-orf" id="dummy-1_q3_0_all"  />
<polygon points="335,35 340,30 353,30 353,40 340,40 335,35 " style="fill:#1597d8; stroke-width:1; stroke:black; " description="&lt;b&gt;IFJPPCDH_03822&lt;/b&gt;&lt;br&gt;hypothetical protein&lt;br&gt;Location: 235806 - 237516" locus_tag="IFJPPCDH_03822" class="clusterblast-orf" id="dummy-1_q4_0_all"  />
<polygon points="353,35 358,30 360,30 360,40 358,40 353,35 " style="fill:#9715d8; stroke-width:1; stroke:black; " description="&lt;b&gt;IFJPPCDH_03823&lt;/b&gt;&lt;br&gt;hypothetical protein&lt;br&gt;Location: 237512 - 238124" locus_tag="IFJPPCDH_03823" class="clusterblast-orf" id="dummy-1_q5_0_all"  />
<polygon points="364,35 369,30 373,30 373,40 369,40 364,35 " style="fill:#d89715; stroke-width:1; stroke:black; " description="&lt;b&gt;IFJPPCDH_03824&lt;/b&gt;&lt;br&gt;Aspartate/glutamate leucyltransferase&lt;br&gt;Location: 238440 - 239277" locus_tag="IFJPPCDH_03824" class="clusterblast-orf" id="dummy-1_q6_0_all"  />
<polygon points="380,40 384,40 389,35 384,30 380,30 380,40 " style="fill:#15d897; stroke-width:1; stroke:black; " description="&lt;b&gt;IFJPPCDH_03825&lt;/b&gt;&lt;br&gt;hypothetical protein&lt;br&gt;Location: 239955 - 240771" locus_tag="IFJPPCDH_03825" class="clusterblast-orf" id="dummy-1_q7_0_all"  />
<polygon points="390,35 395,30 411,30 411,40 395,40 390,35 " style="fill:white; stroke-width:1; stroke:black; " description="&lt;b&gt;IFJPPCDH_03826&lt;/b&gt;&lt;br&gt;hypothetical protein&lt;br&gt;Location: 240834 - 242736" locus_tag="IFJPPCDH_03826" class="clusterblast-orf" id="dummy-1_q8_0_all"  />
<polygon points="411,35 416,30 426,30 426,40 416,40 411,35 " style="fill:white; stroke-width:1; stroke:black; " description="&lt;b&gt;IFJPPCDH_03827&lt;/b&gt;&lt;br&gt;hypothetical protein&lt;br&gt;Location: 242732 - 244118" locus_tag="IFJPPCDH_03827" class="clusterblast-orf" id="dummy-1_q9_0_all"  />
<polygon points="426,35 431,30 439,30 439,40 431,40 426,35 " style="fill:white; stroke-width:1; stroke:black; " description="&lt;b&gt;IFJPPCDH_03828&lt;/b&gt;&lt;br&gt;hypothetical protein&lt;br&gt;Location: 244139 - 245294" locus_tag="IFJPPCDH_03828" class="clusterblast-orf" id="dummy-1_q10_0_all"  />
<polygon points="441,40 446,40 451,35 446,30 441,30 441,40 " style="fill:#1515d8; stroke-width:1; stroke:black; " description="&lt;b&gt;IFJPPCDH_03829&lt;/b&gt;&lt;br&gt;Motility protein A&lt;br&gt;Location: 245479 - 246352" locus_tag="IFJPPCDH_03829" class="clusterblast-orf" id="dummy-1_q11_0_all"  />
<polygon points="451,40 455,35 451,30 451,40 " style="fill:white; stroke-width:1; stroke:black; " description="&lt;b&gt;IFJPPCDH_03830&lt;/b&gt;&lt;br&gt;hypothetical protein&lt;br&gt;Location: 246369 - 246792" locus_tag="IFJPPCDH_03830" class="clusterblast-orf" id="dummy-1_q12_0_all"  />
<polygon points="456,35 461,30 470,30 470,40 461,40 456,35 " style="fill:#d81597; stroke-width:1; stroke:black; " description="&lt;b&gt;IFJPPCDH_03831&lt;/b&gt;&lt;br&gt;hypothetical protein&lt;br&gt;Location: 246850 - 248113" locus_tag="IFJPPCDH_03831" class="clusterblast-orf" id="dummy-1_q13_0_all"  />
<polygon points="472,35 477,30 477,30 477,40 477,40 472,35 " style="fill:#97d815; stroke-width:1; stroke:black; " description="&lt;b&gt;IFJPPCDH_03832&lt;/b&gt;&lt;br&gt;Transcriptional regulatory protein ros&lt;br&gt;Location: 248274 - 248721" locus_tag="IFJPPCDH_03832" class="clusterblast-orf" id="dummy-1_q14_0_all"  />
<polygon points="479,35 484,30 484,30 484,40 484,40 479,35 " style="fill:#97d815; stroke-width:1; stroke:black; " description="&lt;b&gt;IFJPPCDH_03833&lt;/b&gt;&lt;br&gt;hypothetical protein&lt;br&gt;Location: 248894 - 249347" locus_tag="IFJPPCDH_03833" class="clusterblast-orf" id="dummy-1_q15_0_all"  />
<polygon points="487,40 490,40 495,35 490,30 487,30 487,40 " style="fill:white; stroke-width:1; stroke:black; " description="&lt;b&gt;IFJPPCDH_03834&lt;/b&gt;&lt;br&gt;Transcriptional regulatory protein BaeR&lt;br&gt;Location: 249683 - 250397" locus_tag="IFJPPCDH_03834" class="clusterblast-orf" id="dummy-1_q16_0_all"  />
</g>
<g label="NZ_CP012917" description="NZ_CP012917 (99385-171835): Azospirillum brasilense strain Sp 7 plasmid ABSP7... (4% of genes show similarity), T2PKS" class="clusterblast-cluster"  >
<text x="5" y="70" class="clusterblast-acc"  >
<a xlink:href="https://antismash-db.secondarymetabolites.org/area.html?record=NZ_CP012917&amp;start=99385&amp;end=171835" target="_blank">NZ_CP012917 (99385-171835)</a>: Azospirillum brasilense strain Sp 7 plasmid ABSP7... (4% of genes show similarity), T2PKS</text>
<line x1="10" y1="85" x2="778.0" y2="85" style="stroke-width:1; stroke:grey; "  />
</g>
<g id="a1_000"  >
<polygon points="0,85 2,80 2,90 0,85 " style="fill:white; stroke-width:1; stroke:black; " description="&lt;b&gt;AMK58_RS25665&lt;/b&gt;&lt;br&gt;hypothetical protein&lt;br&gt;Location: 170834 - 170637" locus_tag="AMK58_RS25665" class="clusterblast-orf" id="dummy-1_h1_3_0"  />
</g>
<g id="a1_001"  >
<polygon points="3,85 8,80 10,80 10,90 8,90 3,85 " style="fill:white; stroke-width:1; stroke:black; " description="&lt;b&gt;AMK58_RS25660&lt;/b&gt;&lt;br&gt;HAD family phosphatase&lt;br&gt;Location: 170539 - 169886" locus_tag="AMK58_RS25660" class="clusterblast-orf" id="dummy-1_h1_3_1"  />
</g>
<g id="a1_002"  >
<polygon points="13,90 14,90 19,85 14,80 13,80 13,90 " style="fill:white; stroke-width:1; stroke:black; " description="&lt;b&gt;AMK58_RS25655&lt;/b&gt;&lt;br&gt;hypothetical protein&lt;br&gt;Location: 169622 - 169092" locus_tag="AMK58_RS25655" class="clusterblast-orf" id="dummy-1_h1_3_2"  />
</g>
<g id="a1_003"  >
<polygon points="20,90 23,85 20,80 20,90 " style="fill:white; stroke-width:1; stroke:black; " description="&lt;b&gt;AMK58_RS25650&lt;/b&gt;&lt;br&gt;hypothetical protein&lt;br&gt;Location: 168932 - 168726" locus_tag="AMK58_RS25650" class="clusterblast-orf" id="dummy-1_h1_3_3"  />
</g>
<g id="a1_004"  >
<polygon points="23,85 28,80 34,80 34,90 28,90 23,85 " style="fill:white; stroke-width:1; stroke:black; " description="&lt;b&gt;AMK58_RS25645&lt;/b&gt;&lt;br&gt;putative sulfate exporter family transporter&lt;br&gt;Location: 168709 - 167666" locus_tag="AMK58_RS25645" class="clusterblast-orf" id="dummy-1_h1_3_4"  />
</g>
<g id="a1_005"  >
<polygon points="36,90 40,90 45,85 40,80 36,80 36,90 " style="fill:white; stroke-width:1; stroke:black; " description="&lt;b&gt;AMK58_RS25640&lt;/b&gt;&lt;br&gt;LysR family transcriptional regulator&lt;br&gt;Location: 167550 - 166669" locus_tag="AMK58_RS25640" class="clusterblast-orf" id="dummy-1_h1_3_5"  />
</g>
<g id="a1_006"  >
<polygon points="45,85 50,80 56,80 56,90 50,90 45,85 " style="fill:white; stroke-width:1; stroke:black; " description="&lt;b&gt;AMK58_RS25635&lt;/b&gt;&lt;br&gt;replication initiator protein A&lt;br&gt;Location: 166653 - 165691" locus_tag="AMK58_RS25635" class="clusterblast-orf" id="dummy-1_h1_3_6"  />
</g>
<g id="a1_007"  >
<polygon points="67,90 72,90 77,85 72,80 67,80 67,90 " style="fill:white; stroke-width:1; stroke:black; " description="&lt;b&gt;AMK58_RS25630&lt;/b&gt;&lt;br&gt;hypothetical protein&lt;br&gt;Location: 164655 - 163813" locus_tag="AMK58_RS25630" class="clusterblast-orf" id="dummy-1_h1_3_7"  />
</g>
<g id="a1_008"  >
<polygon points="87,90 111,90 116,85 111,80 87,80 87,90 " style="fill:white; stroke-width:1; stroke:black; " description="&lt;b&gt;AMK58_RS25620&lt;/b&gt;&lt;br&gt;PAS domain S-box protein&lt;br&gt;Location: 162896 - 160254" locus_tag="AMK58_RS25620" class="clusterblast-orf" id="dummy-1_h1_3_8"  />
</g>
<g id="a1_009"  >
<polygon points="117,90 119,90 124,85 119,80 117,80 117,90 " style="fill:white; stroke-width:1; stroke:black; " description="&lt;b&gt;AMK58_RS25615&lt;/b&gt;&lt;br&gt;hypothetical protein&lt;br&gt;Location: 160137 - 159544" locus_tag="AMK58_RS25615" class="clusterblast-orf" id="dummy-1_h1_3_9"  />
</g>
<g id="a1_0010"  >
<polygon points="127,90 138,90 143,85 138,80 127,80 127,90 " style="fill:white; stroke-width:1; stroke:black; " description="&lt;b&gt;AMK58_RS25610&lt;/b&gt;&lt;br&gt;AAA family ATPase&lt;br&gt;Location: 159265 - 157772" locus_tag="AMK58_RS25610" class="clusterblast-orf" id="dummy-1_h1_3_10"  />
</g>
<g id="a1_0011"  >
<polygon points="143,90 157,90 162,85 157,80 143,80 143,90 " style="fill:white; stroke-width:1; stroke:black; " description="&lt;b&gt;AMK58_RS25605&lt;/b&gt;&lt;br&gt;response regulator&lt;br&gt;Location: 157762 - 156095" locus_tag="AMK58_RS25605" class="clusterblast-orf" id="dummy-1_h1_3_11"  />
</g>
<g id="a1_0012"  >
<polygon points="163,90 164,90 169,85 164,80 163,80 163,90 " style="fill:white; stroke-width:1; stroke:black; " description="&lt;b&gt;AMK58_RS25600&lt;/b&gt;&lt;br&gt;DUF2946 domain-containing protein&lt;br&gt;Location: 155930 - 155400" locus_tag="AMK58_RS25600" class="clusterblast-orf" id="dummy-1_h1_3_12"  />
</g>
<g id="a1_0013"  >
<polygon points="170,90 170,90 175,85 170,80 170,80 170,90 " style="fill:white; stroke-width:1; stroke:black; " description="&lt;b&gt;AMK58_RS25595&lt;/b&gt;&lt;br&gt;copper chaperone PCu(A)C&lt;br&gt;Location: 155362 - 154856" locus_tag="AMK58_RS25595" class="clusterblast-orf" id="dummy-1_h1_3_13"  />
</g>
<g id="a1_0014"  >
<polygon points="177,90 182,90 187,85 182,80 177,80 177,90 " style="fill:white; stroke-width:1; stroke:black; " description="&lt;b&gt;AMK58_RS25590&lt;/b&gt;&lt;br&gt;DMT family transporter&lt;br&gt;Location: 154675 - 153767" locus_tag="AMK58_RS25590" class="clusterblast-orf" id="dummy-1_h1_3_14"  />
</g>
<g id="a1_0015"  >
<polygon points="189,90 191,85 189,80 189,90 " style="fill:white; stroke-width:1; stroke:black; " description="&lt;b&gt;AMK58_RS25585&lt;/b&gt;&lt;br&gt;hypothetical protein&lt;br&gt;Location: 153588 - 153391" locus_tag="AMK58_RS25585" class="clusterblast-orf" id="dummy-1_h1_3_15"  />
</g>
<g id="a1_0016"  >
<polygon points="192,85 197,80 209,80 209,90 197,90 192,85 " style="fill:white; stroke-width:1; stroke:black; " description="&lt;b&gt;AMK58_RS25580&lt;/b&gt;&lt;br&gt;aldehyde dehydrogenase family protein&lt;br&gt;Location: 153317 - 151815" locus_tag="AMK58_RS25580" class="clusterblast-orf" id="dummy-1_h1_3_16"  />
</g>
<g id="a1_0017"  >
<polygon points="209,85 214,80 227,80 227,90 214,90 209,85 " style="fill:white; stroke-width:1; stroke:black; " description="&lt;b&gt;AMK58_RS25575&lt;/b&gt;&lt;br&gt;thiamine pyrophosphate-binding protein&lt;br&gt;Location: 151778 - 150108" locus_tag="AMK58_RS25575" class="clusterblast-orf" id="dummy-1_h1_3_17"  />
</g>
<g id="a1_0018"  >
<polygon points="229,90 234,90 239,85 234,80 229,80 229,90 " style="fill:white; stroke-width:1; stroke:black; " description="&lt;b&gt;AMK58_RS25570&lt;/b&gt;&lt;br&gt;transcriptional regulator GcvA&lt;br&gt;Location: 149998 - 149084" locus_tag="AMK58_RS25570" class="clusterblast-orf" id="dummy-1_h1_3_18"  />
</g>
<g id="a1_0019"  >
<polygon points="240,90 273,90 278,85 273,80 240,80 240,90 " style="fill:white; stroke-width:1; stroke:black; " description="&lt;b&gt;AMK58_RS25565&lt;/b&gt;&lt;br&gt;DEAD/DEAH box helicase&lt;br&gt;Location: 148989 - 145480" locus_tag="AMK58_RS25565" class="clusterblast-orf" id="dummy-1_h1_3_19"  />
</g>
<g id="a1_0020"  >
<polygon points="281,85 286,80 315,80 315,90 286,90 281,85 " style="fill:white; stroke-width:1; stroke:black; " description="&lt;b&gt;AMK58_RS25560&lt;/b&gt;&lt;br&gt;efflux RND transporter permease subunit&lt;br&gt;Location: 145216 - 142115" locus_tag="AMK58_RS25560" class="clusterblast-orf" id="dummy-1_h1_3_20"  />
</g>
<g id="a1_0021"  >
<polygon points="316,85 321,80 327,80 327,90 321,90 316,85 " style="fill:white; stroke-width:1; stroke:black; " description="&lt;b&gt;AMK58_RS25555&lt;/b&gt;&lt;br&gt;efflux RND transporter periplasmic adaptor subunit&lt;br&gt;Location: 142078 - 141020" locus_tag="AMK58_RS25555" class="clusterblast-orf" id="dummy-1_h1_3_21"  />
</g>
<g id="a1_0022"  >
<polygon points="329,85 334,80 335,80 335,90 334,90 329,85 " style="fill:white; stroke-width:1; stroke:black; " description="&lt;b&gt;AMK58_RS25550&lt;/b&gt;&lt;br&gt;4'-phosphopantetheinyl transferase superfamily protein&lt;br&gt;Location: 140910 - 140284" locus_tag="AMK58_RS25550" class="clusterblast-orf" id="dummy-1_h1_3_22"  />
</g>
<g id="a1_0023"  >
<polygon points="336,85 341,80 343,80 343,90 341,90 336,85 " style="fill:white; stroke-width:1; stroke:black; " description="&lt;b&gt;AMK58_RS25545&lt;/b&gt;&lt;br&gt;SDR family oxidoreductase&lt;br&gt;Location: 140278 - 139556" locus_tag="AMK58_RS25545" class="clusterblast-orf" id="dummy-1_h1_3_23"  />
</g>
<g id="a1_0024"  >
<polygon points="344,85 349,80 350,80 350,90 349,90 344,85 " style="fill:white; stroke-width:1; stroke:black; " description="&lt;b&gt;AMK58_RS25540&lt;/b&gt;&lt;br&gt;antibiotic biosynthesis monooxygenase&lt;br&gt;Location: 139544 - 138918" locus_tag="AMK58_RS25540" class="clusterblast-orf" id="dummy-1_h1_3_24"  />
</g>
<g id="a1_0025"  >
<polygon points="351,85 356,80 358,80 358,90 356,90 351,85 " style="fill:white; stroke-width:1; stroke:black; " description="&lt;b&gt;AMK58_RS25535&lt;/b&gt;&lt;br&gt;antibiotic biosynthesis monooxygenase&lt;br&gt;Location: 138916 - 138263" locus_tag="AMK58_RS25535" class="clusterblast-orf" id="dummy-1_h1_3_25"  />
</g>
<g id="a1_0026"  >
<polygon points="358,85 363,80 364,80 364,90 363,90 358,85 " style="fill:white; stroke-width:1; stroke:black; " description="&lt;b&gt;AMK58_RS25530&lt;/b&gt;&lt;br&gt;antibiotic biosynthesis monooxygenase&lt;br&gt;Location: 138266 - 137676" locus_tag="AMK58_RS25530" class="clusterblast-orf" id="dummy-1_h1_3_26"  />
</g>
<g id="a1_0027"  >
<polygon points="364,85 369,80 370,80 370,90 369,90 364,85 " style="fill:white; stroke-width:1; stroke:black; " description="&lt;b&gt;AMK58_RS25525&lt;/b&gt;&lt;br&gt;antibiotic biosynthesis monooxygenase&lt;br&gt;Location: 137660 - 137124" locus_tag="AMK58_RS25525" class="clusterblast-orf" id="dummy-1_h1_3_27"  />
</g>
<g id="a1_0028"  >
<polygon points="371,85 373,80 373,90 371,85 " style="fill:white; stroke-width:1; stroke:black; " description="&lt;b&gt;AMK58_RS25520&lt;/b&gt;&lt;br&gt;acyl carrier protein&lt;br&gt;Location: 137096 - 136839" locus_tag="AMK58_RS25520" class="clusterblast-orf" id="dummy-1_h1_3_28"  />
</g>
<g id="a1_0029"  >
<polygon points="373,85 378,80 386,80 386,90 378,90 373,85 " style="fill:white; stroke-width:1; stroke:black; " description="&lt;b&gt;AMK58_RS25515&lt;/b&gt;&lt;br&gt;hypothetical protein&lt;br&gt;Location: 136835 - 135690" locus_tag="AMK58_RS25515" class="clusterblast-orf" id="dummy-1_h1_3_29"  />
</g>
<g id="a1_0030"  >
<polygon points="386,85 391,80 400,80 400,90 391,90 386,85 " style="fill:white; stroke-width:1; stroke:black; " description="&lt;b&gt;AMK58_RS25510&lt;/b&gt;&lt;br&gt;beta-ketoacyl-[acyl-carrier-protein] synthase family protein&lt;br&gt;Location: 135693 - 134386" locus_tag="AMK58_RS25510" class="clusterblast-orf" id="dummy-1_h1_3_30"  />
</g>
<g id="a1_0031"  >
<polygon points="401,85 406,80 409,80 409,90 406,90 401,85 " style="fill:white; stroke-width:1; stroke:black; " description="&lt;b&gt;AMK58_RS25505&lt;/b&gt;&lt;br&gt;SDR family NAD(P)-dependent oxidoreductase&lt;br&gt;Location: 134360 - 133584" locus_tag="AMK58_RS25505" class="clusterblast-orf" id="dummy-1_h1_3_31"  />
</g>
<g id="a1_0032"  >
<polygon points="409,85 414,80 419,80 419,90 414,90 409,85 " style="fill:white; stroke-width:1; stroke:black; " description="&lt;b&gt;AMK58_RS25500&lt;/b&gt;&lt;br&gt;SRPBCC family protein&lt;br&gt;Location: 133597 - 132665" locus_tag="AMK58_RS25500" class="clusterblast-orf" id="dummy-1_h1_3_32"  />
</g>
<g id="a1_0033"  >
<polygon points="428,85 433,80 433,80 433,90 433,90 428,85 " style="fill:white; stroke-width:1; stroke:black; " description="&lt;b&gt;AMK58_RS25495&lt;/b&gt;&lt;br&gt;hypothetical protein&lt;br&gt;Location: 131848 - 131411" locus_tag="AMK58_RS25495" class="clusterblast-orf" id="dummy-1_h1_3_33"  />
</g>
<g id="a1_0034"  >
<polygon points="433,85 438,80 438,80 438,90 438,90 433,85 " style="fill:white; stroke-width:1; stroke:black; " description="&lt;b&gt;AMK58_RS25490&lt;/b&gt;&lt;br&gt;MarR family transcriptional regulator&lt;br&gt;Location: 131414 - 130938" locus_tag="AMK58_RS25490" class="clusterblast-orf" id="dummy-1_h1_3_34"  />
</g>
<g id="a1_0035"  >
<polygon points="442,85 447,80 448,80 448,90 447,90 442,85 " style="fill:white; stroke-width:1; stroke:black; " description="&lt;b&gt;AMK58_RS25485&lt;/b&gt;&lt;br&gt;DUF2269 family protein&lt;br&gt;Location: 130551 - 130006" locus_tag="AMK58_RS25485" class="clusterblast-orf" id="dummy-1_h1_3_35"  />
</g>
<g id="a1_0036"  >
<polygon points="451,90 455,85 451,80 451,90 " style="fill:white; stroke-width:1; stroke:black; " description="&lt;b&gt;AMK58_RS30705&lt;/b&gt;&lt;br&gt;hypothetical protein&lt;br&gt;Location: 129759 - 129418" locus_tag="AMK58_RS30705" class="clusterblast-orf" id="dummy-1_h1_3_36"  />
</g>
<g id="a1_0037"  >
<polygon points="455,90 455,90 460,85 455,80 455,80 455,90 " style="fill:white; stroke-width:1; stroke:black; " description="&lt;b&gt;AMK58_RS25480&lt;/b&gt;&lt;br&gt;MarR family transcriptional regulator&lt;br&gt;Location: 129449 - 128967" locus_tag="AMK58_RS25480" class="clusterblast-orf" id="dummy-1_h1_3_37"  />
</g>
<g id="a1_0038"  >
<polygon points="461,90 463,85 461,80 461,90 " style="fill:white; stroke-width:1; stroke:black; " description="&lt;b&gt;AMK58_RS30700&lt;/b&gt;&lt;br&gt;hypothetical protein&lt;br&gt;Location: 128910 - 128644" locus_tag="AMK58_RS30700" class="clusterblast-orf" id="dummy-1_h1_3_38"  />
</g>
<g id="a1_0039"  >
<polygon points="465,85 470,80 472,80 472,90 470,90 465,85 " style="fill:white; stroke-width:1; stroke:black; " description="&lt;b&gt;AMK58_RS30020&lt;/b&gt;&lt;br&gt;hypothetical protein&lt;br&gt;Location: 128539 - 127904" locus_tag="AMK58_RS30020" class="clusterblast-orf" id="dummy-1_h1_3_39"  />
</g>
<g id="a1_0040"  >
<polygon points="476,85 478,80 478,90 476,85 " style="fill:white; stroke-width:1; stroke:black; " description="&lt;b&gt;AMK58_RS25470&lt;/b&gt;&lt;br&gt;hypothetical protein&lt;br&gt;Location: 127533 - 127348" locus_tag="AMK58_RS25470" class="clusterblast-orf" id="dummy-1_h1_3_40"  />
</g>
<g id="a1_0041"  >
<polygon points="485,90 509,90 514,85 509,80 485,80 485,90 " style="fill:white; stroke-width:1; stroke:black; " description="&lt;b&gt;AMK58_RS25460&lt;/b&gt;&lt;br&gt;bifunctional acetaldehyde-CoA/alcohol dehydrogenase&lt;br&gt;Location: 126689 - 124035" locus_tag="AMK58_RS25460" class="clusterblast-orf" id="dummy-1_h1_3_41"  />
</g>
<g id="a1_0042"  >
<polygon points="517,90 530,90 535,85 530,80 517,80 517,90 " style="fill:white; stroke-width:1; stroke:black; " description="&lt;b&gt;AMK58_RS25455&lt;/b&gt;&lt;br&gt;AraC family transcriptional regulator&lt;br&gt;Location: 123741 - 122104" locus_tag="AMK58_RS25455" class="clusterblast-orf" id="dummy-1_h1_3_42"  />
</g>
<g id="a1_0043"  >
<polygon points="541,85 546,80 546,80 546,90 546,90 541,85 " style="fill:white; stroke-width:1; stroke:black; " description="&lt;b&gt;AMK58_RS25450&lt;/b&gt;&lt;br&gt;hypothetical protein&lt;br&gt;Location: 121607 - 121161" locus_tag="AMK58_RS25450" class="clusterblast-orf" id="dummy-1_h1_3_43"  />
</g>
<g id="a1_0044"  >
<polygon points="548,85 553,80 560,80 560,90 553,90 548,85 " style="fill:white; stroke-width:1; stroke:black; " description="&lt;b&gt;AMK58_RS25445&lt;/b&gt;&lt;br&gt;hypothetical protein&lt;br&gt;Location: 120945 - 119872" locus_tag="AMK58_RS25445" class="clusterblast-orf" id="dummy-1_h1_3_44"  />
</g>
<g id="a1_0045"  >
<polygon points="560,85 564,80 564,90 560,85 " style="fill:white; stroke-width:1; stroke:black; " description="&lt;b&gt;AMK58_RS25440&lt;/b&gt;&lt;br&gt;hypothetical protein&lt;br&gt;Location: 119849 - 119499" locus_tag="AMK58_RS25440" class="clusterblast-orf" id="dummy-1_h1_3_45"  />
</g>
<g id="a1_0046"  >
<polygon points="565,85 570,80 570,80 570,90 570,90 565,85 " style="fill:white; stroke-width:1; stroke:black; " description="&lt;b&gt;AMK58_RS30695&lt;/b&gt;&lt;br&gt;RebB family R body protein&lt;br&gt;Location: 119437 - 118970" locus_tag="AMK58_RS30695" class="clusterblast-orf" id="dummy-1_h1_3_46"  />
</g>
<g id="a1_0047"  >
<polygon points="570,85 572,80 572,90 570,85 " style="fill:white; stroke-width:1; stroke:black; " description="&lt;b&gt;AMK58_RS25430&lt;/b&gt;&lt;br&gt;RebB family R body protein&lt;br&gt;Location: 118973 - 118740" locus_tag="AMK58_RS25430" class="clusterblast-orf" id="dummy-1_h1_3_47"  />
</g>
<g id="a1_0048"  >
<polygon points="574,85 577,80 577,90 574,85 " style="fill:white; stroke-width:1; stroke:black; " description="&lt;b&gt;AMK58_RS25425&lt;/b&gt;&lt;br&gt;RebB family R body protein&lt;br&gt;Location: 118614 - 118342" locus_tag="AMK58_RS25425" class="clusterblast-orf" id="dummy-1_h1_3_48"  />
</g>
<g id="a1_0049"  >
<polygon points="578,85 581,80 581,90 578,85 " style="fill:white; stroke-width:1; stroke:black; " description="&lt;b&gt;AMK58_RS25420&lt;/b&gt;&lt;br&gt;RebB family R body protein&lt;br&gt;Location: 118246 - 117980" locus_tag="AMK58_RS25420" class="clusterblast-orf" id="dummy-1_h1_3_49"  />
</g>
<g id="a1_0050"  >
<polygon points="582,85 585,80 585,90 582,85 " style="fill:white; stroke-width:1; stroke:black; " description="&lt;b&gt;AMK58_RS25415&lt;/b&gt;&lt;br&gt;RebB family R body protein&lt;br&gt;Location: 117888 - 117619" locus_tag="AMK58_RS25415" class="clusterblast-orf" id="dummy-1_h1_3_50"  />
</g>
<g id="a1_0051"  >
<polygon points="586,85 589,80 589,90 586,85 " style="fill:white; stroke-width:1; stroke:black; " description="&lt;b&gt;AMK58_RS25410&lt;/b&gt;&lt;br&gt;RebB family R body protein&lt;br&gt;Location: 117518 - 117228" locus_tag="AMK58_RS25410" class="clusterblast-orf" id="dummy-1_h1_3_51"  />
</g>
<g id="a1_0052"  >
<polygon points="594,90 597,90 602,85 597,80 594,80 594,90 " style="fill:white; stroke-width:1; stroke:black; " description="&lt;b&gt;AMK58_RS25405&lt;/b&gt;&lt;br&gt;YitT family protein&lt;br&gt;Location: 116747 - 116091" locus_tag="AMK58_RS25405" class="clusterblast-orf" id="dummy-1_h1_3_52"  />
</g>
<g id="a1_0053"  >
<polygon points="603,85 607,80 607,90 603,85 " style="fill:white; stroke-width:1; stroke:black; " description="&lt;b&gt;AMK58_RS25400&lt;/b&gt;&lt;br&gt;GIY-YIG nuclease family protein&lt;br&gt;Location: 115965 - 115627" locus_tag="AMK58_RS25400" class="clusterblast-orf" id="dummy-1_h1_3_53"  />
</g>
<g id="a1_0054"  >
<polygon points="608,90 610,90 615,85 610,80 608,80 608,90 " style="fill:white; stroke-width:1; stroke:black; " description="&lt;b&gt;AMK58_RS25395&lt;/b&gt;&lt;br&gt;DUF2239 family protein&lt;br&gt;Location: 115485 - 114853" locus_tag="AMK58_RS25395" class="clusterblast-orf" id="dummy-1_h1_3_54"  />
</g>
<g id="a1_0055"  >
<polygon points="618,90 626,90 631,85 626,80 618,80 618,90 " style="fill:#d81515; stroke-width:1; stroke:black; " description="&lt;b&gt;AMK58_RS25390&lt;/b&gt;&lt;br&gt;arabinose transporter&lt;br&gt;Location: 114618 - 113410&lt;br&gt;&lt;br&gt;&lt;b&gt;BlastP hit with IFJPPCDH_03818&lt;/b&gt;&lt;br&gt;Percentage identity: 65&lt;br&gt;Percentage coverage: 97&lt;br&gt;BLAST bit score: 464&lt;br&gt;E-value: 1.6e-161" locus_tag="AMK58_RS25390" class="clusterblast-orf" id="dummy-1_h1_3_55"  />
</g>
<g id="a1_0056"  >
<polygon points="631,85 636,80 642,80 642,90 636,90 631,85 " style="fill:#d81597; stroke-width:1; stroke:black; " description="&lt;b&gt;AMK58_RS25385&lt;/b&gt;&lt;br&gt;OmpA family protein&lt;br&gt;Location: 113403 - 112453&lt;br&gt;&lt;br&gt;&lt;b&gt;BlastP hit with IFJPPCDH_03831&lt;/b&gt;&lt;br&gt;Percentage identity: 33&lt;br&gt;Percentage coverage: 78&lt;br&gt;BLAST bit score: 180&lt;br&gt;E-value: 1.96e-51" locus_tag="AMK58_RS25385" class="clusterblast-orf" id="dummy-1_h1_3_56"  />
</g>
<g id="a1_0057"  >
<polygon points="642,85 647,80 651,80 651,90 647,90 642,85 " style="fill:#1515d8; stroke-width:1; stroke:black; " description="&lt;b&gt;AMK58_RS25380&lt;/b&gt;&lt;br&gt;flagellar motor stator protein MotA&lt;br&gt;Location: 112443 - 111556&lt;br&gt;&lt;br&gt;&lt;b&gt;BlastP hit with IFJPPCDH_03829&lt;/b&gt;&lt;br&gt;Percentage identity: 34&lt;br&gt;Percentage coverage: 97&lt;br&gt;BLAST bit score: 167&lt;br&gt;E-value: 3.37e-48" locus_tag="AMK58_RS25380" class="clusterblast-orf" id="dummy-1_h1_3_57"  />
</g>
<g id="a1_0058"  >
<polygon points="652,85 657,80 671,80 671,90 657,90 652,85 " style="fill:white; stroke-width:1; stroke:black; " description="&lt;b&gt;AMK58_RS25375&lt;/b&gt;&lt;br&gt;hypothetical protein&lt;br&gt;Location: 111485 - 109794" locus_tag="AMK58_RS25375" class="clusterblast-orf" id="dummy-1_h1_3_58"  />
</g>
<g id="a1_0059"  >
<polygon points="680,90 683,90 688,85 683,80 680,80 680,90 " style="fill:white; stroke-width:1; stroke:black; " description="&lt;b&gt;AMK58_RS25370&lt;/b&gt;&lt;br&gt;flagellar basal-body rod protein FlgF&lt;br&gt;Location: 108942 - 108214" locus_tag="AMK58_RS25370" class="clusterblast-orf" id="dummy-1_h1_3_59"  />
</g>
<g id="a1_0060"  >
<polygon points="688,90 692,90 697,85 692,80 688,80 688,90 " style="fill:white; stroke-width:1; stroke:black; " description="&lt;b&gt;AMK58_RS25365&lt;/b&gt;&lt;br&gt;flagellar basal-body rod protein FlgG&lt;br&gt;Location: 108195 - 107410" locus_tag="AMK58_RS25365" class="clusterblast-orf" id="dummy-1_h1_3_60"  />
</g>
<g id="a1_0061"  >
<polygon points="697,90 700,90 705,85 700,80 697,80 697,90 " style="fill:white; stroke-width:1; stroke:black; " description="&lt;b&gt;AMK58_RS25360&lt;/b&gt;&lt;br&gt;flagellar basal body P-ring formation protein FlgA&lt;br&gt;Location: 107413 - 106673" locus_tag="AMK58_RS25360" class="clusterblast-orf" id="dummy-1_h1_3_61"  />
</g>
<g id="a1_0062"  >
<polygon points="706,90 709,90 714,85 709,80 706,80 706,90 " style="fill:white; stroke-width:1; stroke:black; " description="&lt;b&gt;AMK58_RS25355&lt;/b&gt;&lt;br&gt;flagellar basal body L-ring protein FlgH&lt;br&gt;Location: 106635 - 105892" locus_tag="AMK58_RS25355" class="clusterblast-orf" id="dummy-1_h1_3_62"  />
</g>
<g id="a1_0063"  >
<polygon points="714,90 714,90 719,85 714,80 714,80 714,90 " style="fill:white; stroke-width:1; stroke:black; " description="&lt;b&gt;AMK58_RS25350&lt;/b&gt;&lt;br&gt;hypothetical protein&lt;br&gt;Location: 105872 - 105378" locus_tag="AMK58_RS25350" class="clusterblast-orf" id="dummy-1_h1_3_63"  />
</g>
<g id="a1_0064"  >
<polygon points="722,90 724,85 722,80 722,90 " style="fill:white; stroke-width:1; stroke:black; " description="&lt;b&gt;AMK58_RS25345&lt;/b&gt;&lt;br&gt;nitrate reductase&lt;br&gt;Location: 105164 - 104988" locus_tag="AMK58_RS25345" class="clusterblast-orf" id="dummy-1_h1_3_64"  />
</g>
<g id="a1_0065"  >
<polygon points="724,90 727,85 724,80 724,90 " style="fill:white; stroke-width:1; stroke:black; " description="&lt;b&gt;AMK58_RS25340&lt;/b&gt;&lt;br&gt;chaperone NapD&lt;br&gt;Location: 104980 - 104687" locus_tag="AMK58_RS25340" class="clusterblast-orf" id="dummy-1_h1_3_65"  />
</g>
<g id="a1_0066"  >
<polygon points="727,90 750,90 755,85 750,80 727,80 727,90 " style="fill:white; stroke-width:1; stroke:black; " description="&lt;b&gt;AMK58_RS25335&lt;/b&gt;&lt;br&gt;nitrate reductase catalytic subunit NapA&lt;br&gt;Location: 104642 - 102132" locus_tag="AMK58_RS25335" class="clusterblast-orf" id="dummy-1_h1_3_66"  />
</g>
<g id="a1_0067"  >
<polygon points="755,90 755,90 760,85 755,80 755,80 755,90 " style="fill:white; stroke-width:1; stroke:black; " description="&lt;b&gt;AMK58_RS25330&lt;/b&gt;&lt;br&gt;nitrate reductase cytochrome c-type subunit&lt;br&gt;Location: 102162 - 101638" locus_tag="AMK58_RS25330" class="clusterblast-orf" id="dummy-1_h1_3_67"  />
</g>
<g id="a1_0068"  >
<polygon points="760,90 762,90 767,85 762,80 760,80 760,90 " style="fill:white; stroke-width:1; stroke:black; " description="&lt;b&gt;AMK58_RS25325&lt;/b&gt;&lt;br&gt;NapC/NirT family cytochrome c&lt;br&gt;Location: 101641 - 101021" locus_tag="AMK58_RS25325" class="clusterblast-orf" id="dummy-1_h1_3_68"  />
</g>
<g id="a1_0069"  >
<polygon points="773,90 775,90 780,85 775,80 773,80 773,90 " style="fill:white; stroke-width:1; stroke:black; " description="&lt;b&gt;AMK58_RS30690&lt;/b&gt;&lt;br&gt;poly(beta-D-mannuronate) C5 epimerase&lt;br&gt;Location: 100514 - 99906" locus_tag="AMK58_RS30690" class="clusterblast-orf" id="dummy-1_h1_3_69"  />
</g>
</svg>
