<svg xmlns="http://www.w3.org/2000/svg" xmlns:xlink="http://www.w3.org/1999/xlink" version="1.1" x="0" y="0" height="230" width="800" viewBox="0 0 800 230" preserveAspectRatio="none"  >
<g label="Query sequence" class="clusterblast-cluster"  >
<text x="5" y="20" class="clusterblast-acc"  >
Query sequence</text>
<line x1="10" y1="35" x2="778.0" y2="35" style="stroke-width:1; stroke:grey; "  />
<polygon points="42,35 47,30 107,30 107,40 47,40 42,35 " style="fill:#d81515; stroke-width:1; stroke:black; " description="&lt;b&gt;IFJPPCDH_03371&lt;/b&gt;&lt;br&gt;Glucose-6-phosphate isomerase&lt;br&gt;Location: 421001 - 422600" locus_tag="IFJPPCDH_03371" class="clusterblast-orf" id="dummy-1_q0_0_all"  />
<polygon points="108,35 113,30 135,30 135,40 113,40 108,35 " style="fill:#33d815; stroke-width:1; stroke:black; " description="&lt;b&gt;IFJPPCDH_03372&lt;/b&gt;&lt;br&gt;6-phosphogluconolactonase&lt;br&gt;Location: 422615 - 423287" locus_tag="IFJPPCDH_03372" class="clusterblast-orf" id="dummy-1_q1_0_all"  />
<polygon points="135,35 140,30 195,30 195,40 140,40 135,35 " style="fill:#15abd8; stroke-width:1; stroke:black; " description="&lt;b&gt;IFJPPCDH_03373&lt;/b&gt;&lt;br&gt;Glucose-6-phosphate 1-dehydrogenase&lt;br&gt;Location: 423283 - 424756" locus_tag="IFJPPCDH_03373" class="clusterblast-orf" id="dummy-1_q2_0_all"  />
<polygon points="205,35 210,30 229,30 229,40 210,40 205,35 " style="fill:#8d15d8; stroke-width:1; stroke:black; " description="&lt;b&gt;IFJPPCDH_03374&lt;/b&gt;&lt;br&gt;hypothetical protein&lt;br&gt;Location: 425008 - 425593" locus_tag="IFJPPCDH_03374" class="clusterblast-orf" id="dummy-1_q3_0_all"  />
<polygon points="241,35 246,30 270,30 270,40 246,40 241,35 " style="fill:#d86f15; stroke-width:1; stroke:black; " description="&lt;b&gt;IFJPPCDH_03375&lt;/b&gt;&lt;br&gt;hypothetical protein&lt;br&gt;Location: 425874 - 426603" locus_tag="IFJPPCDH_03375" class="clusterblast-orf" id="dummy-1_q4_0_all"  />
<polygon points="270,35 275,30 296,30 296,40 275,40 270,35 " style="fill:#15d851; stroke-width:1; stroke:black; " description="&lt;b&gt;IFJPPCDH_03376&lt;/b&gt;&lt;br&gt;hypothetical protein&lt;br&gt;Location: 426599 - 427229" locus_tag="IFJPPCDH_03376" class="clusterblast-orf" id="dummy-1_q5_0_all"  />
<polygon points="296,35 301,30 318,30 318,40 301,40 296,35 " style="fill:white; stroke-width:1; stroke:black; " description="&lt;b&gt;IFJPPCDH_03377&lt;/b&gt;&lt;br&gt;hypothetical protein&lt;br&gt;Location: 427243 - 427786" locus_tag="IFJPPCDH_03377" class="clusterblast-orf" id="dummy-1_q6_0_all"  />
<polygon points="325,40 370,40 375,35 370,30 325,30 325,40 " style="fill:#1551d8; stroke-width:1; stroke:black; " description="&lt;b&gt;IFJPPCDH_03378&lt;/b&gt;&lt;br&gt;Riboflavin transporter RfnT&lt;br&gt;Location: 427958 - 429185" locus_tag="IFJPPCDH_03378" class="clusterblast-orf" id="dummy-1_q7_0_all"  />
<polygon points="381,35 386,30 412,30 412,40 386,40 381,35 " style="fill:#d815c9; stroke-width:1; stroke:black; " description="&lt;b&gt;IFJPPCDH_03379&lt;/b&gt;&lt;br&gt;hypothetical protein&lt;br&gt;Location: 429329 - 430091" locus_tag="IFJPPCDH_03379" class="clusterblast-orf" id="dummy-1_q8_0_all"  />
<polygon points="412,35 417,30 441,30 441,40 417,40 412,35 " style="fill:#d8c915; stroke-width:1; stroke:black; " description="&lt;b&gt;IFJPPCDH_03380&lt;/b&gt;&lt;br&gt;Trans-aconitate 2-methyltransferase&lt;br&gt;Location: 430087 - 430804" locus_tag="IFJPPCDH_03380" class="clusterblast-orf" id="dummy-1_q9_0_all"  />
<polygon points="441,35 446,30 509,30 509,40 446,40 441,35 " style="fill:#15d8ab; stroke-width:1; stroke:black; " description="&lt;b&gt;IFJPPCDH_03381&lt;/b&gt;&lt;br&gt;(R)-citramalate synthase&lt;br&gt;Location: 430800 - 432471" locus_tag="IFJPPCDH_03381" class="clusterblast-orf" id="dummy-1_q10_0_all"  />
<polygon points="509,35 514,30 514,30 514,40 514,40 509,35 " style="fill:white; stroke-width:1; stroke:black; " description="&lt;b&gt;IFJPPCDH_03382&lt;/b&gt;&lt;br&gt;hypothetical protein&lt;br&gt;Location: 432463 - 432589" locus_tag="IFJPPCDH_03382" class="clusterblast-orf" id="dummy-1_q11_0_all"  />
<polygon points="514,35 519,30 571,30 571,40 519,40 514,35 " style="fill:#3315d8; stroke-width:1; stroke:black; " description="&lt;b&gt;IFJPPCDH_03383&lt;/b&gt;&lt;br&gt;Cysteine--tRNA ligase&lt;br&gt;Location: 432588 - 433983" locus_tag="IFJPPCDH_03383" class="clusterblast-orf" id="dummy-1_q12_0_all"  />
<polygon points="593,35 598,30 608,30 608,40 598,40 593,35 " style="fill:#d8156f; stroke-width:1; stroke:black; " description="&lt;b&gt;IFJPPCDH_03384&lt;/b&gt;&lt;br&gt;hypothetical protein&lt;br&gt;Location: 434515 - 434902" locus_tag="IFJPPCDH_03384" class="clusterblast-orf" id="dummy-1_q13_0_all"  />
<polygon points="618,40 662,40 667,35 662,30 618,30 618,40 " style="fill:#8dd815; stroke-width:1; stroke:black; " description="&lt;b&gt;IFJPPCDH_03385&lt;/b&gt;&lt;br&gt;Arginine--pyruvate transaminase AruH&lt;br&gt;Location: 435148 - 436336" locus_tag="IFJPPCDH_03385" class="clusterblast-orf" id="dummy-1_q14_0_all"  />
<polygon points="676,40 704,40 709,35 704,30 676,30 676,40 " style="fill:white; stroke-width:1; stroke:black; " description="&lt;b&gt;IFJPPCDH_03386&lt;/b&gt;&lt;br&gt;hypothetical protein&lt;br&gt;Location: 436565 - 437366" locus_tag="IFJPPCDH_03386" class="clusterblast-orf" id="dummy-1_q15_0_all"  />
<polygon points="713,35 718,30 738,30 738,40 718,40 713,35 " style="fill:white; stroke-width:1; stroke:black; " description="&lt;b&gt;IFJPPCDH_03387&lt;/b&gt;&lt;br&gt;hypothetical protein&lt;br&gt;Location: 437464 - 438079" locus_tag="IFJPPCDH_03387" class="clusterblast-orf" id="dummy-1_q16_0_all"  />
</g>
<g label="NZ_VISG01000001" description="NZ_VISG01000001 (417908-438679): Rhodobacteraceae bacterium PT6CLA Ga0206392 ... (63% of genes show similarity), terpene" class="clusterblast-cluster"  >
<text x="5" y="70" class="clusterblast-acc"  >
<a xlink:href="https://antismash-db.secondarymetabolites.org/area.html?record=NZ_VISG01000001&amp;start=417908&amp;end=438679" target="_blank">NZ_VISG01000001 (417908-438679)</a>: Rhodobacteraceae bacterium PT6CLA Ga0206392 ... (63% of genes show similarity), terpene</text>
<line x1="10" y1="85" x2="778.0" y2="85" style="stroke-width:1; stroke:grey; "  />
</g>
<g id="a1_000"  >
<polygon points="0,90 16,90 21,85 16,80 0,80 0,90 " style="fill:white; stroke-width:1; stroke:black; " description="&lt;b&gt;C7961_RS02250&lt;/b&gt;&lt;br&gt;hypothetical protein&lt;br&gt;Location: 438221 - 437694" locus_tag="C7961_RS02250" class="clusterblast-orf" id="dummy-1_h1_2_0"  />
</g>
<g id="a1_001"  >
<polygon points="26,85 31,80 92,80 92,90 31,90 26,85 " style="fill:#d81515; stroke-width:1; stroke:black; " description="&lt;b&gt;C7961_RS02240&lt;/b&gt;&lt;br&gt;glucose-6-phosphate isomerase&lt;br&gt;Location: 437559 - 435952&lt;br&gt;&lt;br&gt;&lt;b&gt;BlastP hit with IFJPPCDH_03371&lt;/b&gt;&lt;br&gt;Percentage identity: 71&lt;br&gt;Percentage coverage: 100&lt;br&gt;BLAST bit score: 750&lt;br&gt;E-value: 4.28e-270" locus_tag="C7961_RS02240" class="clusterblast-orf" id="dummy-1_h1_2_1"  />
</g>
<g id="a1_002"  >
<polygon points="93,85 98,80 120,80 120,90 98,90 93,85 " style="fill:#33d815; stroke-width:1; stroke:black; " description="&lt;b&gt;C7961_RS02235&lt;/b&gt;&lt;br&gt;6-phosphogluconolactonase&lt;br&gt;Location: 435930 - 435256&lt;br&gt;&lt;br&gt;&lt;b&gt;BlastP hit with IFJPPCDH_03372&lt;/b&gt;&lt;br&gt;Percentage identity: 60&lt;br&gt;Percentage coverage: 99&lt;br&gt;BLAST bit score: 258&lt;br&gt;E-value: 9.59e-86" locus_tag="C7961_RS02235" class="clusterblast-orf" id="dummy-1_h1_2_2"  />
</g>
<g id="a1_003"  >
<polygon points="120,85 125,80 179,80 179,90 125,90 120,85 " style="fill:#15abd8; stroke-width:1; stroke:black; " description="&lt;b&gt;C7961_RS02230&lt;/b&gt;&lt;br&gt;glucose-6-phosphate dehydrogenase&lt;br&gt;Location: 435259 - 433808&lt;br&gt;&lt;br&gt;&lt;b&gt;BlastP hit with IFJPPCDH_03373&lt;/b&gt;&lt;br&gt;Percentage identity: 75&lt;br&gt;Percentage coverage: 100&lt;br&gt;BLAST bit score: 751&lt;br&gt;E-value: 8.68e-272" locus_tag="C7961_RS02230" class="clusterblast-orf" id="dummy-1_h1_2_3"  />
</g>
<g id="a1_004"  >
<polygon points="187,85 192,80 226,80 226,90 192,90 187,85 " style="fill:white; stroke-width:1; stroke:black; " description="&lt;b&gt;C7961_RS02225&lt;/b&gt;&lt;br&gt;agmatinase&lt;br&gt;Location: 433629 - 432670" locus_tag="C7961_RS02225" class="clusterblast-orf" id="dummy-1_h1_2_4"  />
</g>
<g id="a1_005"  >
<polygon points="228,85 233,80 252,80 252,90 233,90 228,85 " style="fill:#8d15d8; stroke-width:1; stroke:black; " description="&lt;b&gt;C7961_RS02220&lt;/b&gt;&lt;br&gt;HNH endonuclease&lt;br&gt;Location: 432618 - 432022&lt;br&gt;&lt;br&gt;&lt;b&gt;BlastP hit with IFJPPCDH_03374&lt;/b&gt;&lt;br&gt;Percentage identity: 82&lt;br&gt;Percentage coverage: 99&lt;br&gt;BLAST bit score: 339&lt;br&gt;E-value: 9.68e-119" locus_tag="C7961_RS02220" class="clusterblast-orf" id="dummy-1_h1_2_5"  />
</g>
<g id="a1_006"  >
<polygon points="261,90 273,90 278,85 273,80 261,80 261,90 " style="fill:white; stroke-width:1; stroke:black; " description="&lt;b&gt;C7961_RS02215&lt;/b&gt;&lt;br&gt;glyoxalase/bleomycin resistance/extradiol dioxygenase family protein&lt;br&gt;Location: 431807 - 431385" locus_tag="C7961_RS02215" class="clusterblast-orf" id="dummy-1_h1_2_6"  />
</g>
<g id="a1_007"  >
<polygon points="278,85 283,80 306,80 306,90 283,90 278,85 " style="fill:#d86f15; stroke-width:1; stroke:black; " description="&lt;b&gt;C7961_RS02210&lt;/b&gt;&lt;br&gt;alpha/beta fold hydrolase&lt;br&gt;Location: 431372 - 430704&lt;br&gt;&lt;br&gt;&lt;b&gt;BlastP hit with IFJPPCDH_03375&lt;/b&gt;&lt;br&gt;Percentage identity: 70&lt;br&gt;Percentage coverage: 89&lt;br&gt;BLAST bit score: 293&lt;br&gt;E-value: 1.92e-99" locus_tag="C7961_RS02210" class="clusterblast-orf" id="dummy-1_h1_2_7"  />
</g>
<g id="a1_008"  >
<polygon points="306,85 311,80 331,80 331,90 311,90 306,85 " style="fill:#15d851; stroke-width:1; stroke:black; " description="&lt;b&gt;C7961_RS02205&lt;/b&gt;&lt;br&gt;DNA-3-methyladenine glycosylase 2 family protein&lt;br&gt;Location: 430707 - 430087&lt;br&gt;&lt;br&gt;&lt;b&gt;BlastP hit with IFJPPCDH_03376&lt;/b&gt;&lt;br&gt;Percentage identity: 59&lt;br&gt;Percentage coverage: 97&lt;br&gt;BLAST bit score: 220&lt;br&gt;E-value: 2.38e-71" locus_tag="C7961_RS02205" class="clusterblast-orf" id="dummy-1_h1_2_8"  />
</g>
<g id="a1_009"  >
<polygon points="336,90 381,90 386,85 381,80 336,80 336,90 " style="fill:#1551d8; stroke-width:1; stroke:black; " description="&lt;b&gt;C7961_RS02200&lt;/b&gt;&lt;br&gt;MFS transporter&lt;br&gt;Location: 429966 - 428737&lt;br&gt;&lt;br&gt;&lt;b&gt;BlastP hit with IFJPPCDH_03378&lt;/b&gt;&lt;br&gt;Percentage identity: 65&lt;br&gt;Percentage coverage: 97&lt;br&gt;BLAST bit score: 485&lt;br&gt;E-value: 1.48e-169" locus_tag="C7961_RS02200" class="clusterblast-orf" id="dummy-1_h1_2_9"  />
</g>
<g id="a1_0010"  >
<polygon points="388,85 393,80 419,80 419,90 393,90 388,85 " style="fill:#d815c9; stroke-width:1; stroke:black; " description="&lt;b&gt;C7961_RS02195&lt;/b&gt;&lt;br&gt;squalene/phytoene synthase family protein&lt;br&gt;Location: 428679 - 427909&lt;br&gt;&lt;br&gt;&lt;b&gt;BlastP hit with IFJPPCDH_03379&lt;/b&gt;&lt;br&gt;Percentage identity: 54&lt;br&gt;Percentage coverage: 102&lt;br&gt;BLAST bit score: 224&lt;br&gt;E-value: 2.54e-71" locus_tag="C7961_RS02195" class="clusterblast-orf" id="dummy-1_h1_2_10"  />
</g>
<g id="a1_0011"  >
<polygon points="419,85 424,80 448,80 448,90 424,90 419,85 " style="fill:#d8c915; stroke-width:1; stroke:black; " description="&lt;b&gt;C7961_RS02190&lt;/b&gt;&lt;br&gt;methyltransferase domain-containing protein&lt;br&gt;Location: 427912 - 427199&lt;br&gt;&lt;br&gt;&lt;b&gt;BlastP hit with IFJPPCDH_03380&lt;/b&gt;&lt;br&gt;Percentage identity: 41&lt;br&gt;Percentage coverage: 96&lt;br&gt;BLAST bit score: 162&lt;br&gt;E-value: 1.62e-47" locus_tag="C7961_RS02190" class="clusterblast-orf" id="dummy-1_h1_2_11"  />
</g>
<g id="a1_0012"  >
<polygon points="453,85 458,80 519,80 519,90 458,90 453,85 " style="fill:#15d8ab; stroke-width:1; stroke:black; " description="&lt;b&gt;C7961_RS02185&lt;/b&gt;&lt;br&gt;citramalate synthase&lt;br&gt;Location: 427092 - 425470&lt;br&gt;&lt;br&gt;&lt;b&gt;BlastP hit with IFJPPCDH_03381&lt;/b&gt;&lt;br&gt;Percentage identity: 76&lt;br&gt;Percentage coverage: 96&lt;br&gt;BLAST bit score: 805&lt;br&gt;E-value: 2.31e-291" locus_tag="C7961_RS02185" class="clusterblast-orf" id="dummy-1_h1_2_12"  />
</g>
<g id="a1_0013"  >
<polygon points="527,85 532,80 583,80 583,90 532,90 527,85 " style="fill:#3315d8; stroke-width:1; stroke:black; " description="&lt;b&gt;C7961_RS02180&lt;/b&gt;&lt;br&gt;cysteine--tRNA ligase&lt;br&gt;Location: 425280 - 423898&lt;br&gt;&lt;br&gt;&lt;b&gt;BlastP hit with IFJPPCDH_03383&lt;/b&gt;&lt;br&gt;Percentage identity: 70&lt;br&gt;Percentage coverage: 102&lt;br&gt;BLAST bit score: 650&lt;br&gt;E-value: 4.92e-233" locus_tag="C7961_RS02180" class="clusterblast-orf" id="dummy-1_h1_2_13"  />
</g>
<g id="a1_0014"  >
<polygon points="593,90 636,90 641,85 636,80 593,80 593,90 " style="fill:#8dd815; stroke-width:1; stroke:black; " description="&lt;b&gt;C7961_RS02175&lt;/b&gt;&lt;br&gt;aminotransferase class I/II-fold pyridoxal phosphate-dependent enzyme&lt;br&gt;Location: 423650 - 422463&lt;br&gt;&lt;br&gt;&lt;b&gt;BlastP hit with IFJPPCDH_03385&lt;/b&gt;&lt;br&gt;Percentage identity: 62&lt;br&gt;Percentage coverage: 98&lt;br&gt;BLAST bit score: 465&lt;br&gt;E-value: 4.38e-162" locus_tag="C7961_RS02175" class="clusterblast-orf" id="dummy-1_h1_2_14"  />
</g>
<g id="a1_0015"  >
<polygon points="643,90 682,90 687,85 682,80 643,80 643,90 " style="fill:white; stroke-width:1; stroke:black; " description="&lt;b&gt;C7961_RS02170&lt;/b&gt;&lt;br&gt;methylated-DNA--[protein]-cysteine S-methyltransferase&lt;br&gt;Location: 422412 - 421351" locus_tag="C7961_RS02170" class="clusterblast-orf" id="dummy-1_h1_2_15"  />
</g>
<g id="a1_0016"  >
<polygon points="686,90 715,90 720,85 715,80 686,80 686,90 " style="fill:white; stroke-width:1; stroke:black; " description="&lt;b&gt;C7961_RS02165&lt;/b&gt;&lt;br&gt;isocitrate lyase/phosphoenolpyruvate mutase family protein&lt;br&gt;Location: 421354 - 420527" locus_tag="C7961_RS02165" class="clusterblast-orf" id="dummy-1_h1_2_16"  />
</g>
<g id="a1_0017"  >
<polygon points="722,85 727,80 746,80 746,90 727,90 722,85 " style="fill:white; stroke-width:1; stroke:black; " description="&lt;b&gt;C7961_RS02160&lt;/b&gt;&lt;br&gt;outer membrane beta-barrel protein&lt;br&gt;Location: 420478 - 419897" locus_tag="C7961_RS02160" class="clusterblast-orf" id="dummy-1_h1_2_17"  />
</g>
<g id="a1_0018"  >
<polygon points="754,85 759,80 779,80 779,90 759,90 754,85 " style="fill:white; stroke-width:1; stroke:black; " description="&lt;b&gt;C7961_RS02155&lt;/b&gt;&lt;br&gt;bifunctional 4-hydroxy-2-oxoglutarate aldolase/2-dehydro-3-deoxy-phosphogluconate aldolase&lt;br&gt;Location: 419708 - 419070" locus_tag="C7961_RS02155" class="clusterblast-orf" id="dummy-1_h1_2_18"  />
</g>
</svg>
