<svg xmlns="http://www.w3.org/2000/svg" xmlns:xlink="http://www.w3.org/1999/xlink" version="1.1" x="0" y="0" height="230" width="800" viewBox="0 0 800 230" preserveAspectRatio="none"  >
<g label="Query sequence" class="clusterblast-cluster"  >
<text x="5" y="20" class="clusterblast-acc"  >
Query sequence</text>
<line x1="10" y1="35" x2="778.0" y2="35" style="stroke-width:1; stroke:grey; "  />
<polygon points="0,40 70,40 75,35 70,30 0,30 0,40 " style="fill:white; stroke-width:1; stroke:black; " description="&lt;b&gt;IFJPPCDH_02580&lt;/b&gt;&lt;br&gt;Inner membrane ABC transporter permease protein YdcU&lt;br&gt;Location: 68468 - 69368" locus_tag="IFJPPCDH_02580" class="clusterblast-orf" id="dummy-1_q0_0_all"  />
<polygon points="76,40 136,40 141,35 136,30 76,30 76,40 " style="fill:white; stroke-width:1; stroke:black; " description="&lt;b&gt;IFJPPCDH_02581&lt;/b&gt;&lt;br&gt;Inner membrane ABC transporter permease protein YdcV&lt;br&gt;Location: 69375 - 70155" locus_tag="IFJPPCDH_02581" class="clusterblast-orf" id="dummy-1_q1_0_all"  />
<polygon points="154,35 159,30 200,30 200,40 159,40 154,35 " style="fill:#d81515; stroke-width:1; stroke:black; " description="&lt;b&gt;IFJPPCDH_02582&lt;/b&gt;&lt;br&gt;hypothetical protein&lt;br&gt;Location: 70317 - 70857" locus_tag="IFJPPCDH_02582" class="clusterblast-orf" id="dummy-1_q2_0_all"  />
<polygon points="216,40 259,40 264,35 259,30 216,30 216,40 " style="fill:#15d863; stroke-width:1; stroke:black; " description="&lt;b&gt;IFJPPCDH_02583&lt;/b&gt;&lt;br&gt;L-2,4-diaminobutyric acid acetyltransferase&lt;br&gt;Location: 71054 - 71636" locus_tag="IFJPPCDH_02583" class="clusterblast-orf" id="dummy-1_q3_0_all"  />
<polygon points="269,40 371,40 376,35 371,30 269,30 269,40 " style="fill:#1563d8; stroke-width:1; stroke:black; " description="&lt;b&gt;IFJPPCDH_02584&lt;/b&gt;&lt;br&gt;Diaminobutyrate--2-oxoglutarate transaminase&lt;br&gt;Location: 71690 - 72977" locus_tag="IFJPPCDH_02584" class="clusterblast-orf" id="dummy-1_q4_0_all"  />
<polygon points="377,40 405,40 410,35 405,30 377,30 377,40 " style="fill:#b115d8; stroke-width:1; stroke:black; " description="&lt;b&gt;IFJPPCDH_02585&lt;/b&gt;&lt;br&gt;L-ectoine synthase&lt;br&gt;Location: 72982 - 73384" locus_tag="IFJPPCDH_02585" class="clusterblast-orf" id="dummy-1_q5_0_all"  />
<polygon points="414,40 525,40 530,35 525,30 414,30 414,40 " style="fill:#b1d815; stroke-width:1; stroke:black; " description="&lt;b&gt;IFJPPCDH_02586&lt;/b&gt;&lt;br&gt;Aspartate kinase Ask Ect&lt;br&gt;Location: 73424 - 74825" locus_tag="IFJPPCDH_02586" class="clusterblast-orf" id="dummy-1_q6_0_all"  />
<polygon points="567,35 572,30 690,30 690,40 572,40 567,35 " style="fill:white; stroke-width:1; stroke:black; " description="&lt;b&gt;IFJPPCDH_02587&lt;/b&gt;&lt;br&gt;Glutarate-semialdehyde dehydrogenase&lt;br&gt;Location: 75262 - 76741" locus_tag="IFJPPCDH_02587" class="clusterblast-orf" id="dummy-1_q7_0_all"  />
<polygon points="713,40 775,40 780,35 775,30 713,30 713,40 " style="fill:white; stroke-width:1; stroke:black; " description="&lt;b&gt;IFJPPCDH_02588&lt;/b&gt;&lt;br&gt;hypothetical protein&lt;br&gt;Location: 77010 - 77823" locus_tag="IFJPPCDH_02588" class="clusterblast-orf" id="dummy-1_q8_0_all"  />
</g>
<g label="BGC0000860" description="BGC0000860_c1: ectoine (100% of genes show similarity), Other" class="clusterblast-cluster"  >
<text x="5" y="70" class="clusterblast-acc"  >
<a xlink:href="https://mibig.secondarymetabolites.org/go/BGC0000860/1" target="_blank">BGC0000860</a>: ectoine                                                                          (100% of genes show similarity), Other</text>
<line x1="10" y1="85" x2="778.0" y2="85" style="stroke-width:1; stroke:grey; "  />
</g>
<g id="a1_000"  >
<polygon points="205,85 210,80 251,80 251,90 210,90 205,85 " style="fill:#d81515; stroke-width:1; stroke:black; " description="&lt;b&gt;ADA71973.1&lt;/b&gt;&lt;br&gt;MarR family transcriptional regulator&lt;br&gt;Location: 711 - 1265&lt;br&gt;&lt;br&gt;&lt;b&gt;BlastP hit with IFJPPCDH_02582&lt;/b&gt;&lt;br&gt;Percentage identity: 57&lt;br&gt;Percentage coverage: 95&lt;br&gt;BLAST bit score: 174&lt;br&gt;E-value: 1.72e-55" locus_tag="ADA71973.1" class="clusterblast-orf" id="dummy-1_h1_1_0"  />
</g>
<g id="a1_001"  >
<polygon points="266,90 306,90 311,85 306,80 266,80 266,90 " style="fill:#15d863; stroke-width:1; stroke:black; " description="&lt;b&gt;ADA71974.1&lt;/b&gt;&lt;br&gt;L-2,4-diaminobutyric acid acetyltransferase&lt;br&gt;Location: 1441 - 1986&lt;br&gt;&lt;br&gt;&lt;b&gt;BlastP hit with IFJPPCDH_02583&lt;/b&gt;&lt;br&gt;Percentage identity: 67&lt;br&gt;Percentage coverage: 93&lt;br&gt;BLAST bit score: 257&lt;br&gt;E-value: 2.81e-88" locus_tag="ADA71974.1" class="clusterblast-orf" id="dummy-1_h1_1_1"  />
</g>
<g id="a1_002"  >
<polygon points="316,90 419,90 424,85 419,80 316,80 316,90 " style="fill:#1563d8; stroke-width:1; stroke:black; " description="&lt;b&gt;ADA71975.1&lt;/b&gt;&lt;br&gt;L-2,4-diaminobutyrate transaminase&lt;br&gt;Location: 2042 - 3334&lt;br&gt;&lt;br&gt;&lt;b&gt;BlastP hit with IFJPPCDH_02584&lt;/b&gt;&lt;br&gt;Percentage identity: 78&lt;br&gt;Percentage coverage: 101&lt;br&gt;BLAST bit score: 665&lt;br&gt;E-value: 9.18e-242" locus_tag="ADA71975.1" class="clusterblast-orf" id="dummy-1_h1_1_2"  />
</g>
<g id="a1_003"  >
<polygon points="424,90 452,90 457,85 452,80 424,80 424,90 " style="fill:#b115d8; stroke-width:1; stroke:black; " description="&lt;b&gt;ADA71976.1&lt;/b&gt;&lt;br&gt;L-ectoine synthase&lt;br&gt;Location: 3342 - 3737&lt;br&gt;&lt;br&gt;&lt;b&gt;BlastP hit with IFJPPCDH_02585&lt;/b&gt;&lt;br&gt;Percentage identity: 82&lt;br&gt;Percentage coverage: 98&lt;br&gt;BLAST bit score: 224&lt;br&gt;E-value: 8.71e-77" locus_tag="ADA71976.1" class="clusterblast-orf" id="dummy-1_h1_1_3"  />
</g>
<g id="a1_004"  >
<polygon points="458,90 569,90 574,85 569,80 458,80 458,90 " style="fill:#b1d815; stroke-width:1; stroke:black; " description="&lt;b&gt;ADA71977.1&lt;/b&gt;&lt;br&gt;aspartokinase&lt;br&gt;Location: 3740 - 5134&lt;br&gt;&lt;br&gt;&lt;b&gt;BlastP hit with IFJPPCDH_02586&lt;/b&gt;&lt;br&gt;Percentage identity: 80&lt;br&gt;Percentage coverage: 97&lt;br&gt;BLAST bit score: 723&lt;br&gt;E-value: 2.18e-263" locus_tag="ADA71977.1" class="clusterblast-orf" id="dummy-1_h1_1_4"  />
</g>
</svg>
