<svg xmlns="http://www.w3.org/2000/svg" xmlns:xlink="http://www.w3.org/1999/xlink" version="1.1" x="0" y="0" height="230" width="800" viewBox="0 0 800 230" preserveAspectRatio="none"  >
<g label="Query sequence" class="clusterblast-cluster"  >
<text x="5" y="20" class="clusterblast-acc"  >
Query sequence</text>
<line x1="10" y1="35" x2="778.0" y2="35" style="stroke-width:1; stroke:grey; "  />
<polygon points="112,40 135,40 140,35 135,30 112,30 112,40 " style="fill:white; stroke-width:1; stroke:black; " description="&lt;b&gt;KKHPANEM_02026&lt;/b&gt;&lt;br&gt;hypothetical protein&lt;br&gt;Location: 6816 - 7518" locus_tag="KKHPANEM_02026" class="clusterblast-orf" id="dummy-1_q0_0_all"  />
<polygon points="140,35 145,30 242,30 242,40 145,40 140,35 " style="fill:white; stroke-width:1; stroke:black; " description="&lt;b&gt;KKHPANEM_02027&lt;/b&gt;&lt;br&gt;Aminopeptidase N&lt;br&gt;Location: 7527 - 10089" locus_tag="KKHPANEM_02027" class="clusterblast-orf" id="dummy-1_q1_0_all"  />
<polygon points="248,40 304,40 309,35 304,30 248,30 248,40 " style="fill:white; stroke-width:1; stroke:black; " description="&lt;b&gt;KKHPANEM_02028&lt;/b&gt;&lt;br&gt;Cryptochrome-like protein cry2&lt;br&gt;Location: 10255 - 11779" locus_tag="KKHPANEM_02028" class="clusterblast-orf" id="dummy-1_q2_0_all"  />
<polygon points="313,40 344,40 349,35 344,30 313,30 313,40 " style="fill:#d81515; stroke-width:1; stroke:black; " description="&lt;b&gt;KKHPANEM_02029&lt;/b&gt;&lt;br&gt;1,4-dihydroxy-2-naphthoate octaprenyltransferase&lt;br&gt;Location: 11877 - 12774" locus_tag="KKHPANEM_02029" class="clusterblast-orf" id="dummy-1_q3_0_all"  />
<polygon points="349,40 396,40 401,35 396,30 349,30 349,40 " style="fill:#15d815; stroke-width:1; stroke:black; " description="&lt;b&gt;KKHPANEM_02030&lt;/b&gt;&lt;br&gt;Protein PucC&lt;br&gt;Location: 12784 - 14089" locus_tag="KKHPANEM_02030" class="clusterblast-orf" id="dummy-1_q4_0_all"  />
<polygon points="401,40 443,40 448,35 443,30 401,30 401,40 " style="fill:#1597d8; stroke-width:1; stroke:black; " description="&lt;b&gt;KKHPANEM_02031&lt;/b&gt;&lt;br&gt;Menaquinone reductase&lt;br&gt;Location: 14093 - 15287" locus_tag="KKHPANEM_02031" class="clusterblast-orf" id="dummy-1_q5_0_all"  />
<polygon points="449,40 465,40 470,35 465,30 449,30 449,40 " style="fill:#9715d8; stroke-width:1; stroke:black; " description="&lt;b&gt;KKHPANEM_02032&lt;/b&gt;&lt;br&gt;Isopentenyl-diphosphate Delta-isomerase&lt;br&gt;Location: 15295 - 15826" locus_tag="KKHPANEM_02032" class="clusterblast-orf" id="dummy-1_q6_0_all"  />
<polygon points="470,35 475,30 489,30 489,40 475,40 470,35 " style="fill:#d89715; stroke-width:1; stroke:black; " description="&lt;b&gt;KKHPANEM_02033&lt;/b&gt;&lt;br&gt;Tryptophan-rich sensory protein&lt;br&gt;Location: 15838 - 16312" locus_tag="KKHPANEM_02033" class="clusterblast-orf" id="dummy-1_q7_0_all"  />
<polygon points="489,35 494,30 533,30 533,40 494,40 489,35 " style="fill:#15d897; stroke-width:1; stroke:black; " description="&lt;b&gt;KKHPANEM_02034&lt;/b&gt;&lt;br&gt;hypothetical protein&lt;br&gt;Location: 16311 - 17421" locus_tag="KKHPANEM_02034" class="clusterblast-orf" id="dummy-1_q8_0_all"  />
<polygon points="533,35 538,30 595,30 595,40 538,40 533,35 " style="fill:#1515d8; stroke-width:1; stroke:black; " description="&lt;b&gt;KKHPANEM_02035&lt;/b&gt;&lt;br&gt;Phytoene desaturase (neurosporene-forming)&lt;br&gt;Location: 17417 - 18971" locus_tag="KKHPANEM_02035" class="clusterblast-orf" id="dummy-1_q9_0_all"  />
<polygon points="600,40 623,40 628,35 623,30 600,30 600,40 " style="fill:#d81597; stroke-width:1; stroke:black; " description="&lt;b&gt;KKHPANEM_02036&lt;/b&gt;&lt;br&gt;Spheroidene monooxygenase&lt;br&gt;Location: 19097 - 19808" locus_tag="KKHPANEM_02036" class="clusterblast-orf" id="dummy-1_q10_0_all"  />
<polygon points="628,40 663,40 668,35 663,30 628,30 628,40 " style="fill:#97d815; stroke-width:1; stroke:black; " description="&lt;b&gt;KKHPANEM_02037&lt;/b&gt;&lt;br&gt;Magnesium-chelatase 38 kDa subunit&lt;br&gt;Location: 19804 - 20809" locus_tag="KKHPANEM_02037" class="clusterblast-orf" id="dummy-1_q11_0_all"  />
</g>
<g label="NZ_PZZW01000002" description="NZ_PZZW01000002 (622436-643504): Rhodobacter johrii strain JA192 Ga0191650 10... (47% of genes show similarity), terpene" class="clusterblast-cluster"  >
<text x="5" y="70" class="clusterblast-acc"  >
<a xlink:href="https://antismash-db.secondarymetabolites.org/area.html?record=NZ_PZZW01000002&amp;start=622436&amp;end=643504" target="_blank">NZ_PZZW01000002 (622436-643504)</a>: Rhodobacter johrii strain JA192 Ga0191650 10... (47% of genes show similarity), terpene</text>
<line x1="10" y1="85" x2="778.0" y2="85" style="stroke-width:1; stroke:grey; "  />
</g>
<g id="a1_000"  >
<polygon points="0,85 5,80 59,80 59,90 5,90 0,85 " style="fill:white; stroke-width:1; stroke:black; " description="&lt;b&gt;C8J29_RS08005&lt;/b&gt;&lt;br&gt;chlorophyllide a reductase subunit Y&lt;br&gt;Location: 623482 - 624990" locus_tag="C8J29_RS08005" class="clusterblast-orf" id="dummy-1_h1_8_0"  />
</g>
<g id="a1_001"  >
<polygon points="62,85 67,80 102,80 102,90 67,90 62,85 " style="fill:white; stroke-width:1; stroke:black; " description="&lt;b&gt;C8J29_RS08010&lt;/b&gt;&lt;br&gt;chlorophyllide a reductase iron protein subunit X&lt;br&gt;Location: 625066 - 626067" locus_tag="C8J29_RS08010" class="clusterblast-orf" id="dummy-1_h1_8_1"  />
</g>
<g id="a1_002"  >
<polygon points="102,85 107,80 140,80 140,90 107,90 102,85 " style="fill:white; stroke-width:1; stroke:black; " description="&lt;b&gt;C8J29_RS08015&lt;/b&gt;&lt;br&gt;chlorophyll synthesis pathway protein BchC&lt;br&gt;Location: 626064 - 627020" locus_tag="C8J29_RS08015" class="clusterblast-orf" id="dummy-1_h1_8_2"  />
</g>
<g id="a1_003"  >
<polygon points="146,85 151,80 192,80 192,90 151,90 146,85 " style="fill:white; stroke-width:1; stroke:black; " description="&lt;b&gt;C8J29_RS08020&lt;/b&gt;&lt;br&gt;SAM-dependent methyltransferase&lt;br&gt;Location: 627173 - 628312" locus_tag="C8J29_RS08020" class="clusterblast-orf" id="dummy-1_h1_8_3"  />
</g>
<g id="a1_004"  >
<polygon points="194,85 199,80 227,80 227,90 199,90 194,85 " style="fill:white; stroke-width:1; stroke:black; " description="&lt;b&gt;C8J29_RS08025&lt;/b&gt;&lt;br&gt;polyprenyl synthetase family protein&lt;br&gt;Location: 628365 - 629201" locus_tag="C8J29_RS08025" class="clusterblast-orf" id="dummy-1_h1_8_4"  />
</g>
<g id="a1_005"  >
<polygon points="234,90 288,90 293,85 288,80 234,80 234,90 " style="fill:white; stroke-width:1; stroke:black; " description="&lt;b&gt;C8J29_RS08030&lt;/b&gt;&lt;br&gt;phytoene desaturase&lt;br&gt;Location: 629376 - 630863" locus_tag="C8J29_RS08030" class="clusterblast-orf" id="dummy-1_h1_8_5"  />
</g>
<g id="a1_006"  >
<polygon points="296,90 324,90 329,85 324,80 296,80 296,90 " style="fill:white; stroke-width:1; stroke:black; " description="&lt;b&gt;C8J29_RS08035&lt;/b&gt;&lt;br&gt;carotenoid 1,2-hydratase&lt;br&gt;Location: 630929 - 631768" locus_tag="C8J29_RS08035" class="clusterblast-orf" id="dummy-1_h1_8_6"  />
</g>
<g id="a1_007"  >
<polygon points="335,85 340,80 354,80 354,90 340,90 335,85 " style="fill:#d89715; stroke-width:1; stroke:black; " description="&lt;b&gt;C8J29_RS08040&lt;/b&gt;&lt;br&gt;tryptophan-rich sensory protein&lt;br&gt;Location: 631929 - 632408&lt;br&gt;&lt;br&gt;&lt;b&gt;BlastP hit with KKHPANEM_02033&lt;/b&gt;&lt;br&gt;Percentage identity: 61&lt;br&gt;Percentage coverage: 94&lt;br&gt;BLAST bit score: 183&lt;br&gt;E-value: 2.8e-58" locus_tag="C8J29_RS08040" class="clusterblast-orf" id="dummy-1_h1_8_7"  />
</g>
<g id="a1_008"  >
<polygon points="356,85 361,80 398,80 398,90 361,90 356,85 " style="fill:#15d897; stroke-width:1; stroke:black; " description="&lt;b&gt;C8J29_RS08045&lt;/b&gt;&lt;br&gt;phytoene/squalene synthase family protein&lt;br&gt;Location: 632437 - 633504&lt;br&gt;&lt;br&gt;&lt;b&gt;BlastP hit with KKHPANEM_02034&lt;/b&gt;&lt;br&gt;Percentage identity: 65&lt;br&gt;Percentage coverage: 92&lt;br&gt;BLAST bit score: 390&lt;br&gt;E-value: 1.15e-133" locus_tag="C8J29_RS08045" class="clusterblast-orf" id="dummy-1_h1_8_8"  />
</g>
<g id="a1_009"  >
<polygon points="398,85 403,80 460,80 460,90 403,90 398,85 " style="fill:#1515d8; stroke-width:1; stroke:black; " description="&lt;b&gt;C8J29_RS08050&lt;/b&gt;&lt;br&gt;phytoene desaturase&lt;br&gt;Location: 633501 - 635057&lt;br&gt;&lt;br&gt;&lt;b&gt;BlastP hit with KKHPANEM_02035&lt;/b&gt;&lt;br&gt;Percentage identity: 76&lt;br&gt;Percentage coverage: 95&lt;br&gt;BLAST bit score: 769&lt;br&gt;E-value: 6.39e-278" locus_tag="C8J29_RS08050" class="clusterblast-orf" id="dummy-1_h1_8_9"  />
</g>
<g id="a1_0010"  >
<polygon points="466,90 500,90 505,85 500,80 466,80 466,90 " style="fill:#d81597; stroke-width:1; stroke:black; " description="&lt;b&gt;C8J29_RS08055&lt;/b&gt;&lt;br&gt;spheroidene monooxygenase&lt;br&gt;Location: 635215 - 636189&lt;br&gt;&lt;br&gt;&lt;b&gt;BlastP hit with KKHPANEM_02036&lt;/b&gt;&lt;br&gt;Percentage identity: 54&lt;br&gt;Percentage coverage: 97&lt;br&gt;BLAST bit score: 250&lt;br&gt;E-value: 4.21e-81" locus_tag="C8J29_RS08055" class="clusterblast-orf" id="dummy-1_h1_8_10"  />
</g>
<g id="a1_0011"  >
<polygon points="505,90 540,90 545,85 540,80 505,80 505,90 " style="fill:#97d815; stroke-width:1; stroke:black; " description="&lt;b&gt;C8J29_RS08060&lt;/b&gt;&lt;br&gt;magnesium chelatase ATPase subunit I&lt;br&gt;Location: 636194 - 637198&lt;br&gt;&lt;br&gt;&lt;b&gt;BlastP hit with KKHPANEM_02037&lt;/b&gt;&lt;br&gt;Percentage identity: 80&lt;br&gt;Percentage coverage: 100&lt;br&gt;BLAST bit score: 525&lt;br&gt;E-value: 1.81e-187" locus_tag="C8J29_RS08060" class="clusterblast-orf" id="dummy-1_h1_8_11"  />
</g>
<g id="a1_0012"  >
<polygon points="545,90 607,90 612,85 607,80 545,80 545,90 " style="fill:white; stroke-width:1; stroke:black; " description="&lt;b&gt;C8J29_RS08065&lt;/b&gt;&lt;br&gt;magnesium chelatase subunit D&lt;br&gt;Location: 637195 - 638889" locus_tag="C8J29_RS08065" class="clusterblast-orf" id="dummy-1_h1_8_12"  />
</g>
<g id="a1_0013"  >
<polygon points="612,90 642,90 647,85 642,80 612,80 612,90 " style="fill:white; stroke-width:1; stroke:black; " description="&lt;b&gt;C8J29_RS08070&lt;/b&gt;&lt;br&gt;alpha/beta fold hydrolase&lt;br&gt;Location: 638892 - 639758" locus_tag="C8J29_RS08070" class="clusterblast-orf" id="dummy-1_h1_8_13"  />
</g>
<g id="a1_0014"  >
<polygon points="660,85 665,80 681,80 681,90 665,90 660,85 " style="fill:#9715d8; stroke-width:1; stroke:black; " description="&lt;b&gt;C8J29_RS08075&lt;/b&gt;&lt;br&gt;isopentenyl-diphosphate Delta-isomerase&lt;br&gt;Location: 640096 - 640629&lt;br&gt;&lt;br&gt;&lt;b&gt;BlastP hit with KKHPANEM_02032&lt;/b&gt;&lt;br&gt;Percentage identity: 70&lt;br&gt;Percentage coverage: 97&lt;br&gt;BLAST bit score: 249&lt;br&gt;E-value: 1.02e-83" locus_tag="C8J29_RS08075" class="clusterblast-orf" id="dummy-1_h1_8_14"  />
</g>
<g id="a1_0015"  >
<polygon points="681,85 686,80 728,80 728,90 686,90 681,85 " style="fill:#1597d8; stroke-width:1; stroke:black; " description="&lt;b&gt;C8J29_RS08080&lt;/b&gt;&lt;br&gt;geranylgeranyl diphosphate reductase&lt;br&gt;Location: 640632 - 641816&lt;br&gt;&lt;br&gt;&lt;b&gt;BlastP hit with KKHPANEM_02031&lt;/b&gt;&lt;br&gt;Percentage identity: 73&lt;br&gt;Percentage coverage: 100&lt;br&gt;BLAST bit score: 577&lt;br&gt;E-value: 3.77e-206" locus_tag="C8J29_RS08080" class="clusterblast-orf" id="dummy-1_h1_8_15"  />
</g>
<g id="a1_0016"  >
<polygon points="728,85 733,80 780,80 780,90 733,90 728,85 " style="fill:#15d815; stroke-width:1; stroke:black; " description="&lt;b&gt;C8J29_RS08085&lt;/b&gt;&lt;br&gt;BCD family MFS transporter&lt;br&gt;Location: 641819 - 643102&lt;br&gt;&lt;br&gt;&lt;b&gt;BlastP hit with KKHPANEM_02030&lt;/b&gt;&lt;br&gt;Percentage identity: 64&lt;br&gt;Percentage coverage: 100&lt;br&gt;BLAST bit score: 495&lt;br&gt;E-value: 1.18e-172" locus_tag="C8J29_RS08085" class="clusterblast-orf" id="dummy-1_h1_8_16"  />
</g>
</svg>
