<svg xmlns="http://www.w3.org/2000/svg" xmlns:xlink="http://www.w3.org/1999/xlink" version="1.1" x="0" y="0" height="230" width="800" viewBox="0 0 800 230" preserveAspectRatio="none"  >
<g label="Query sequence" class="clusterblast-cluster"  >
<text x="5" y="20" class="clusterblast-acc"  >
Query sequence</text>
<line x1="10" y1="35" x2="778.0" y2="35" style="stroke-width:1; stroke:grey; "  />
<polygon points="1,35 6,30 58,30 58,40 6,40 1,35 " style="fill:white; stroke-width:1; stroke:black; " description="&lt;b&gt;KKHPANEM_01436&lt;/b&gt;&lt;br&gt;Cytidylate kinase&lt;br&gt;Location: 434 - 1055" locus_tag="KKHPANEM_01436" class="clusterblast-orf" id="dummy-1_q0_0_all"  />
<polygon points="58,35 63,30 181,30 181,40 63,40 58,35 " style="fill:white; stroke-width:1; stroke:black; " description="&lt;b&gt;KKHPANEM_01437&lt;/b&gt;&lt;br&gt;3-phosphoshikimate 1-carboxyvinyltransferase&lt;br&gt;Location: 1047 - 2397" locus_tag="KKHPANEM_01437" class="clusterblast-orf" id="dummy-1_q1_0_all"  />
<polygon points="189,35 194,30 317,30 317,40 194,40 189,35 " style="fill:#d81515; stroke-width:1; stroke:black; " description="&lt;b&gt;KKHPANEM_01438&lt;/b&gt;&lt;br&gt;Aspartate kinase Ask Ect&lt;br&gt;Location: 2488 - 3880" locus_tag="KKHPANEM_01438" class="clusterblast-orf" id="dummy-1_q2_0_all"  />
<polygon points="328,35 333,30 363,30 363,40 333,40 328,35 " style="fill:#15d863; stroke-width:1; stroke:black; " description="&lt;b&gt;KKHPANEM_01439&lt;/b&gt;&lt;br&gt;L-ectoine synthase&lt;br&gt;Location: 4003 - 4387" locus_tag="KKHPANEM_01439" class="clusterblast-orf" id="dummy-1_q3_0_all"  />
<polygon points="364,35 369,30 482,30 482,40 369,40 364,35 " style="fill:#1563d8; stroke-width:1; stroke:black; " description="&lt;b&gt;KKHPANEM_01440&lt;/b&gt;&lt;br&gt;Diaminobutyrate--2-oxoglutarate transaminase&lt;br&gt;Location: 4390 - 5689" locus_tag="KKHPANEM_01440" class="clusterblast-orf" id="dummy-1_q4_0_all"  />
<polygon points="487,35 492,30 536,30 536,40 492,40 487,35 " style="fill:#b115d8; stroke-width:1; stroke:black; " description="&lt;b&gt;KKHPANEM_01441&lt;/b&gt;&lt;br&gt;L-2,4-diaminobutyric acid acetyltransferase&lt;br&gt;Location: 5734 - 6277" locus_tag="KKHPANEM_01441" class="clusterblast-orf" id="dummy-1_q5_0_all"  />
<polygon points="562,40 601,40 606,35 601,30 562,30 562,40 " style="fill:#b1d815; stroke-width:1; stroke:black; " description="&lt;b&gt;KKHPANEM_01442&lt;/b&gt;&lt;br&gt;hypothetical protein&lt;br&gt;Location: 6555 - 7044" locus_tag="KKHPANEM_01442" class="clusterblast-orf" id="dummy-1_q6_0_all"  />
<polygon points="626,40 774,40 779,35 774,30 626,30 626,40 " style="fill:white; stroke-width:1; stroke:black; " description="&lt;b&gt;KKHPANEM_01443&lt;/b&gt;&lt;br&gt;Cytochrome c oxidase subunit 1-beta&lt;br&gt;Location: 7259 - 8933" locus_tag="KKHPANEM_01443" class="clusterblast-orf" id="dummy-1_q7_0_all"  />
</g>
<g label="NZ_FOXA01000013" description="NZ_FOXA01000013 (39786-50173): Tranquillimonas alkanivorans strain DSM 19547,... (62% of genes show similarity), ectoine" class="clusterblast-cluster"  >
<text x="5" y="70" class="clusterblast-acc"  >
<a xlink:href="https://antismash-db.secondarymetabolites.org/area.html?record=NZ_FOXA01000013&amp;start=39786&amp;end=50173" target="_blank">NZ_FOXA01000013 (39786-50173)</a>: Tranquillimonas alkanivorans strain DSM 19547,... (62% of genes show similarity), ectoine</text>
<line x1="10" y1="85" x2="778.0" y2="85" style="stroke-width:1; stroke:grey; "  />
</g>
<g id="a1_000"  >
<polygon points="0,90 93,90 98,85 93,80 0,80 0,90 " style="fill:white; stroke-width:1; stroke:black; " description="&lt;b&gt;BM162_RS15085&lt;/b&gt;&lt;br&gt;5-(carboxyamino)imidazole ribonucleotide synthase&lt;br&gt;Location: 39850 - 40926" locus_tag="BM162_RS15085" class="clusterblast-orf" id="dummy-1_h1_10_0"  />
</g>
<g id="a1_001"  >
<polygon points="114,90 293,90 298,85 293,80 114,80 114,90 " style="fill:white; stroke-width:1; stroke:black; " description="&lt;b&gt;BM162_RS15090&lt;/b&gt;&lt;br&gt;CocE/NonD family hydrolase&lt;br&gt;Location: 41096 - 43111" locus_tag="BM162_RS15090" class="clusterblast-orf" id="dummy-1_h1_10_1"  />
</g>
<g id="a1_002"  >
<polygon points="316,85 321,80 448,80 448,90 321,90 316,85 " style="fill:#d81515; stroke-width:1; stroke:black; " description="&lt;b&gt;BM162_RS15095&lt;/b&gt;&lt;br&gt;aspartate kinase&lt;br&gt;Location: 43304 - 44755&lt;br&gt;&lt;br&gt;&lt;b&gt;BlastP hit with KKHPANEM_01438&lt;/b&gt;&lt;br&gt;Percentage identity: 61&lt;br&gt;Percentage coverage: 97&lt;br&gt;BLAST bit score: 543&lt;br&gt;E-value: 1.87e-190" locus_tag="BM162_RS15095" class="clusterblast-orf" id="dummy-1_h1_10_2"  />
</g>
<g id="a1_003"  >
<polygon points="451,85 456,80 487,80 487,90 456,90 451,85 " style="fill:#15d863; stroke-width:1; stroke:black; " description="&lt;b&gt;BM162_RS15100&lt;/b&gt;&lt;br&gt;ectoine synthase&lt;br&gt;Location: 44787 - 45173&lt;br&gt;&lt;br&gt;&lt;b&gt;BlastP hit with KKHPANEM_01439&lt;/b&gt;&lt;br&gt;Percentage identity: 74&lt;br&gt;Percentage coverage: 100&lt;br&gt;BLAST bit score: 209&lt;br&gt;E-value: 1.38e-69" locus_tag="BM162_RS15100" class="clusterblast-orf" id="dummy-1_h1_10_3"  />
</g>
<g id="a1_004"  >
<polygon points="487,85 492,80 605,80 605,90 492,90 487,85 " style="fill:#1563d8; stroke-width:1; stroke:black; " description="&lt;b&gt;BM162_RS15105&lt;/b&gt;&lt;br&gt;diaminobutyrate--2-oxoglutarate transaminase&lt;br&gt;Location: 45179 - 46468&lt;br&gt;&lt;br&gt;&lt;b&gt;BlastP hit with KKHPANEM_01440&lt;/b&gt;&lt;br&gt;Percentage identity: 73&lt;br&gt;Percentage coverage: 96&lt;br&gt;BLAST bit score: 610&lt;br&gt;E-value: 6.13e-218" locus_tag="BM162_RS15105" class="clusterblast-orf" id="dummy-1_h1_10_4"  />
</g>
<g id="a1_005"  >
<polygon points="611,85 616,80 657,80 657,90 616,90 611,85 " style="fill:#b115d8; stroke-width:1; stroke:black; " description="&lt;b&gt;BM162_RS15110&lt;/b&gt;&lt;br&gt;diaminobutyrate acetyltransferase&lt;br&gt;Location: 46526 - 47035&lt;br&gt;&lt;br&gt;&lt;b&gt;BlastP hit with KKHPANEM_01441&lt;/b&gt;&lt;br&gt;Percentage identity: 54&lt;br&gt;Percentage coverage: 88&lt;br&gt;BLAST bit score: 189&lt;br&gt;E-value: 3.41e-60" locus_tag="BM162_RS15110" class="clusterblast-orf" id="dummy-1_h1_10_5"  />
</g>
<g id="a1_006"  >
<polygon points="683,90 722,90 727,85 722,80 683,80 683,90 " style="fill:#b1d815; stroke-width:1; stroke:black; " description="&lt;b&gt;BM162_RS15115&lt;/b&gt;&lt;br&gt;winged helix-turn-helix transcriptional regulator&lt;br&gt;Location: 47313 - 47795&lt;br&gt;&lt;br&gt;&lt;b&gt;BlastP hit with KKHPANEM_01442&lt;/b&gt;&lt;br&gt;Percentage identity: 45&lt;br&gt;Percentage coverage: 90&lt;br&gt;BLAST bit score: 129&lt;br&gt;E-value: 1.2e-36" locus_tag="BM162_RS15115" class="clusterblast-orf" id="dummy-1_h1_10_6"  />
</g>
<g id="a1_007"  >
<polygon points="730,85 735,80 780,80 780,90 735,90 730,85 " style="fill:white; stroke-width:1; stroke:black; " description="&lt;b&gt;BM162_RS15120&lt;/b&gt;&lt;br&gt;hypothetical protein&lt;br&gt;Location: 47833 - 48372" locus_tag="BM162_RS15120" class="clusterblast-orf" id="dummy-1_h1_10_7"  />
</g>
</svg>
