<svg xmlns="http://www.w3.org/2000/svg" xmlns:xlink="http://www.w3.org/1999/xlink" version="1.1" x="0" y="0" height="230" width="800" viewBox="0 0 800 230" preserveAspectRatio="none"  >
<g label="Query sequence" class="clusterblast-cluster"  >
<text x="5" y="20" class="clusterblast-acc"  >
Query sequence</text>
<line x1="10" y1="35" x2="778.0" y2="35" style="stroke-width:1; stroke:grey; "  />
<polygon points="290,40 299,40 304,35 299,30 290,30 290,40 " style="fill:#d81515; stroke-width:1; stroke:black; " description="&lt;b&gt;KKHPANEM_02420&lt;/b&gt;&lt;br&gt;Dihydrolipoyllysine-residue succinyltransferase component of 2-oxoglutarate dehydrogenase complex&lt;br&gt;Location: 14087 - 15638" locus_tag="KKHPANEM_02420" class="clusterblast-orf" id="dummy-1_q0_0_all"  />
<polygon points="304,40 307,35 304,30 304,40 " style="fill:white; stroke-width:1; stroke:black; " description="&lt;b&gt;KKHPANEM_02421&lt;/b&gt;&lt;br&gt;hypothetical protein&lt;br&gt;Location: 15637 - 15925" locus_tag="KKHPANEM_02421" class="clusterblast-orf" id="dummy-1_q1_0_all"  />
<polygon points="307,40 310,35 307,30 307,40 " style="fill:#15d815; stroke-width:1; stroke:black; " description="&lt;b&gt;KKHPANEM_02422&lt;/b&gt;&lt;br&gt;hypothetical protein&lt;br&gt;Location: 15929 - 16337" locus_tag="KKHPANEM_02422" class="clusterblast-orf" id="dummy-1_q2_0_all"  />
<polygon points="311,40 318,40 323,35 318,30 311,30 311,40 " style="fill:#1515d8; stroke-width:1; stroke:black; " description="&lt;b&gt;KKHPANEM_02423&lt;/b&gt;&lt;br&gt;Dihydrolipoyl dehydrogenase 3&lt;br&gt;Location: 16365 - 17754" locus_tag="KKHPANEM_02423" class="clusterblast-orf" id="dummy-1_q3_0_all"  />
<polygon points="325,35 330,30 340,30 340,40 330,40 325,35 " style="fill:white; stroke-width:1; stroke:black; " description="&lt;b&gt;KKHPANEM_02424&lt;/b&gt;&lt;br&gt;hypothetical protein&lt;br&gt;Location: 17980 - 19657" locus_tag="KKHPANEM_02424" class="clusterblast-orf" id="dummy-1_q4_0_all"  />
<polygon points="342,35 347,30 348,30 348,40 347,40 342,35 " style="fill:white; stroke-width:1; stroke:black; " description="&lt;b&gt;KKHPANEM_02425&lt;/b&gt;&lt;br&gt;hypothetical protein&lt;br&gt;Location: 19847 - 20525" locus_tag="KKHPANEM_02425" class="clusterblast-orf" id="dummy-1_q5_0_all"  />
<polygon points="348,35 353,30 354,30 354,40 353,40 348,35 " style="fill:white; stroke-width:1; stroke:black; " description="&lt;b&gt;KKHPANEM_02426&lt;/b&gt;&lt;br&gt;3-deoxy-manno-octulosonate cytidylyltransferase&lt;br&gt;Location: 20521 - 21175" locus_tag="KKHPANEM_02426" class="clusterblast-orf" id="dummy-1_q6_0_all"  />
<polygon points="355,35 360,30 370,30 370,40 360,40 355,35 " style="fill:white; stroke-width:1; stroke:black; " description="&lt;b&gt;KKHPANEM_02427&lt;/b&gt;&lt;br&gt;4-hydroxy-2-oxovalerate aldolase&lt;br&gt;Location: 21261 - 22884" locus_tag="KKHPANEM_02427" class="clusterblast-orf" id="dummy-1_q7_0_all"  />
<polygon points="370,35 375,30 382,30 382,40 375,40 370,35 " style="fill:white; stroke-width:1; stroke:black; " description="&lt;b&gt;KKHPANEM_02428&lt;/b&gt;&lt;br&gt;hypothetical protein&lt;br&gt;Location: 22940 - 24263" locus_tag="KKHPANEM_02428" class="clusterblast-orf" id="dummy-1_q8_0_all"  />
<polygon points="382,35 387,30 394,30 394,40 387,40 382,35 " style="fill:white; stroke-width:1; stroke:black; " description="&lt;b&gt;KKHPANEM_02429&lt;/b&gt;&lt;br&gt;hypothetical protein&lt;br&gt;Location: 24277 - 25579" locus_tag="KKHPANEM_02429" class="clusterblast-orf" id="dummy-1_q9_0_all"  />
<polygon points="397,35 401,30 401,40 397,35 " style="fill:white; stroke-width:1; stroke:black; " description="&lt;b&gt;KKHPANEM_02430&lt;/b&gt;&lt;br&gt;hypothetical protein&lt;br&gt;Location: 25855 - 26299" locus_tag="KKHPANEM_02430" class="clusterblast-orf" id="dummy-1_q10_0_all"  />
<polygon points="402,35 407,30 417,30 417,40 407,40 402,35 " style="fill:white; stroke-width:1; stroke:black; " description="&lt;b&gt;KKHPANEM_02431&lt;/b&gt;&lt;br&gt;Glucose-6-phosphate isomerase&lt;br&gt;Location: 26388 - 28062" locus_tag="KKHPANEM_02431" class="clusterblast-orf" id="dummy-1_q11_0_all"  />
<polygon points="425,35 430,30 432,30 432,40 430,40 425,35 " style="fill:white; stroke-width:1; stroke:black; " description="&lt;b&gt;KKHPANEM_02432&lt;/b&gt;&lt;br&gt;hypothetical protein&lt;br&gt;Location: 28926 - 29736" locus_tag="KKHPANEM_02432" class="clusterblast-orf" id="dummy-1_q12_0_all"  />
<polygon points="435,35 437,30 437,40 435,35 " style="fill:white; stroke-width:1; stroke:black; " description="&lt;b&gt;KKHPANEM_02433&lt;/b&gt;&lt;br&gt;hypothetical protein&lt;br&gt;Location: 30100 - 30238" locus_tag="KKHPANEM_02433" class="clusterblast-orf" id="dummy-1_q13_0_all"  />
<polygon points="438,35 443,30 446,30 446,40 443,40 438,35 " style="fill:#d815d8; stroke-width:1; stroke:black; " description="&lt;b&gt;KKHPANEM_02434&lt;/b&gt;&lt;br&gt;D-beta-hydroxybutyrate dehydrogenase&lt;br&gt;Location: 30441 - 31245" locus_tag="KKHPANEM_02434" class="clusterblast-orf" id="dummy-1_q14_0_all"  />
<polygon points="446,35 451,30 460,30 460,40 451,40 446,35 " style="fill:#d8d815; stroke-width:1; stroke:black; " description="&lt;b&gt;KKHPANEM_02435&lt;/b&gt;&lt;br&gt;Long-chain-fatty-acid--CoA ligase&lt;br&gt;Location: 31241 - 32768" locus_tag="KKHPANEM_02435" class="clusterblast-orf" id="dummy-1_q15_0_all"  />
<polygon points="460,35 465,30 489,30 489,40 465,40 460,35 " style="fill:#15d8d8; stroke-width:1; stroke:black; " description="&lt;b&gt;KKHPANEM_02436&lt;/b&gt;&lt;br&gt;Sensor histidine kinase RcsC&lt;br&gt;Location: 32822 - 36047" locus_tag="KKHPANEM_02436" class="clusterblast-orf" id="dummy-1_q16_0_all"  />
</g>
<g label="NZ_FNET01000005" description="NZ_FNET01000005 (185091-271621): Lentzea violacea strain DSM 44796, whole gen... (4% of genes show similarity), PKS-like,T2PKS" class="clusterblast-cluster"  >
<text x="5" y="70" class="clusterblast-acc"  >
<a xlink:href="https://antismash-db.secondarymetabolites.org/area.html?record=NZ_FNET01000005&amp;start=185091&amp;end=271621" target="_blank">NZ_FNET01000005 (185091-271621)</a>: Lentzea violacea strain DSM 44796, whole gen... (4% of genes show similarity), PKS-like,T2PKS</text>
<line x1="10" y1="85" x2="778.0" y2="85" style="stroke-width:1; stroke:grey; "  />
</g>
<g id="a1_000"  >
<polygon points="0,85 5,80 10,80 10,90 5,90 0,85 " style="fill:white; stroke-width:1; stroke:black; " description="&lt;b&gt;BLR21_RS14330&lt;/b&gt;&lt;br&gt;ubiquinol-cytochrome c reductase iron-sulfur subunit&lt;br&gt;Location: 270983 - 269856" locus_tag="BLR21_RS14330" class="clusterblast-orf" id="dummy-1_h1_9_0"  />
</g>
<g id="a1_001"  >
<polygon points="10,85 15,80 17,80 17,90 15,90 10,85 " style="fill:white; stroke-width:1; stroke:black; " description="&lt;b&gt;BLR21_RS14325&lt;/b&gt;&lt;br&gt;c-type cytochrome&lt;br&gt;Location: 269859 - 269047" locus_tag="BLR21_RS14325" class="clusterblast-orf" id="dummy-1_h1_9_1"  />
</g>
<g id="a1_002"  >
<polygon points="18,85 23,80 23,80 23,90 23,90 18,85 " style="fill:white; stroke-width:1; stroke:black; " description="&lt;b&gt;BLR21_RS14320&lt;/b&gt;&lt;br&gt;heme-copper oxidase subunit III&lt;br&gt;Location: 268994 - 268386" locus_tag="BLR21_RS14320" class="clusterblast-orf" id="dummy-1_h1_9_2"  />
</g>
<g id="a1_003"  >
<polygon points="24,90 28,85 24,80 24,90 " style="fill:white; stroke-width:1; stroke:black; " description="&lt;b&gt;BLR21_RS14315&lt;/b&gt;&lt;br&gt;hypothetical protein&lt;br&gt;Location: 268291 - 267890" locus_tag="BLR21_RS14315" class="clusterblast-orf" id="dummy-1_h1_9_3"  />
</g>
<g id="a1_004"  >
<polygon points="28,90 32,85 28,80 28,90 " style="fill:white; stroke-width:1; stroke:black; " description="&lt;b&gt;BLR21_RS14310&lt;/b&gt;&lt;br&gt;hypothetical protein&lt;br&gt;Location: 267824 - 267414" locus_tag="BLR21_RS14310" class="clusterblast-orf" id="dummy-1_h1_9_4"  />
</g>
<g id="a1_005"  >
<polygon points="32,90 36,90 41,85 36,80 32,80 32,90 " style="fill:white; stroke-width:1; stroke:black; " description="&lt;b&gt;BLR21_RS14305&lt;/b&gt;&lt;br&gt;anthranilate phosphoribosyltransferase&lt;br&gt;Location: 267407 - 266367" locus_tag="BLR21_RS14305" class="clusterblast-orf" id="dummy-1_h1_9_5"  />
</g>
<g id="a1_006"  >
<polygon points="43,90 44,90 49,85 44,80 43,80 43,90 " style="fill:white; stroke-width:1; stroke:black; " description="&lt;b&gt;BLR21_RS14300&lt;/b&gt;&lt;br&gt;1-acyl-sn-glycerol-3-phosphate acyltransferase&lt;br&gt;Location: 266221 - 265541" locus_tag="BLR21_RS14300" class="clusterblast-orf" id="dummy-1_h1_9_6"  />
</g>
<g id="a1_007"  >
<polygon points="51,85 55,80 55,90 51,85 " style="fill:white; stroke-width:1; stroke:black; " description="&lt;b&gt;BLR21_RS14295&lt;/b&gt;&lt;br&gt;cytochrome c oxidase subunit 4&lt;br&gt;Location: 265328 - 264912" locus_tag="BLR21_RS14295" class="clusterblast-orf" id="dummy-1_h1_9_7"  />
</g>
<g id="a1_008"  >
<polygon points="55,85 60,80 63,80 63,90 60,90 55,85 " style="fill:white; stroke-width:1; stroke:black; " description="&lt;b&gt;BLR21_RS14290&lt;/b&gt;&lt;br&gt;cytochrome c oxidase subunit II&lt;br&gt;Location: 264897 - 263941" locus_tag="BLR21_RS14290" class="clusterblast-orf" id="dummy-1_h1_9_8"  />
</g>
<g id="a1_009"  >
<polygon points="65,90 77,90 82,85 77,80 65,80 65,90 " style="fill:white; stroke-width:1; stroke:black; " description="&lt;b&gt;BLR21_RS14285&lt;/b&gt;&lt;br&gt;asparagine synthase (glutamine-hydrolyzing)&lt;br&gt;Location: 263782 - 261854" locus_tag="BLR21_RS14285" class="clusterblast-orf" id="dummy-1_h1_9_9"  />
</g>
<g id="a1_0010"  >
<polygon points="83,85 88,80 90,80 90,90 88,90 83,85 " style="fill:white; stroke-width:1; stroke:black; " description="&lt;b&gt;BLR21_RS14280&lt;/b&gt;&lt;br&gt;class I SAM-dependent methyltransferase&lt;br&gt;Location: 261810 - 261034" locus_tag="BLR21_RS14280" class="clusterblast-orf" id="dummy-1_h1_9_10"  />
</g>
<g id="a1_0011"  >
<polygon points="90,85 95,80 98,80 98,90 95,90 90,85 " style="fill:white; stroke-width:1; stroke:black; " description="&lt;b&gt;BLR21_RS14275&lt;/b&gt;&lt;br&gt;carbohydrate kinase family protein&lt;br&gt;Location: 261026 - 260094" locus_tag="BLR21_RS14275" class="clusterblast-orf" id="dummy-1_h1_9_11"  />
</g>
<g id="a1_0012"  >
<polygon points="100,90 101,85 100,80 100,90 " style="fill:white; stroke-width:1; stroke:black; " description="&lt;b&gt;BLR21_RS42495&lt;/b&gt;&lt;br&gt;hypothetical protein&lt;br&gt;Location: 259935 - 259762" locus_tag="BLR21_RS42495" class="clusterblast-orf" id="dummy-1_h1_9_12"  />
</g>
<g id="a1_0013"  >
<polygon points="103,85 107,80 107,90 103,85 " style="fill:white; stroke-width:1; stroke:black; " description="&lt;b&gt;BLR21_RS14270&lt;/b&gt;&lt;br&gt;iron-sulfur cluster assembly accessory protein&lt;br&gt;Location: 259555 - 259187" locus_tag="BLR21_RS14270" class="clusterblast-orf" id="dummy-1_h1_9_13"  />
</g>
<g id="a1_0014"  >
<polygon points="108,85 113,80 118,80 118,90 113,90 108,85 " style="fill:white; stroke-width:1; stroke:black; " description="&lt;b&gt;BLR21_RS14265&lt;/b&gt;&lt;br&gt;glycerate kinase&lt;br&gt;Location: 258992 - 257958" locus_tag="BLR21_RS14265" class="clusterblast-orf" id="dummy-1_h1_9_14"  />
</g>
<g id="a1_0015"  >
<polygon points="118,90 119,90 124,85 119,80 118,80 118,90 " style="fill:white; stroke-width:1; stroke:black; " description="&lt;b&gt;BLR21_RS14260&lt;/b&gt;&lt;br&gt;DUF3043 domain-containing protein&lt;br&gt;Location: 257915 - 257289" locus_tag="BLR21_RS14260" class="clusterblast-orf" id="dummy-1_h1_9_15"  />
</g>
<g id="a1_0016"  >
<polygon points="124,90 125,90 130,85 125,80 124,80 124,90 " style="fill:white; stroke-width:1; stroke:black; " description="&lt;b&gt;BLR21_RS14255&lt;/b&gt;&lt;br&gt;class I SAM-dependent methyltransferase&lt;br&gt;Location: 257285 - 256653" locus_tag="BLR21_RS14255" class="clusterblast-orf" id="dummy-1_h1_9_16"  />
</g>
<g id="a1_0017"  >
<polygon points="130,90 134,90 139,85 134,80 130,80 130,90 " style="fill:white; stroke-width:1; stroke:black; " description="&lt;b&gt;BLR21_RS14250&lt;/b&gt;&lt;br&gt;aldo/keto reductase family protein&lt;br&gt;Location: 256620 - 255634" locus_tag="BLR21_RS14250" class="clusterblast-orf" id="dummy-1_h1_9_17"  />
</g>
<g id="a1_0018"  >
<polygon points="139,85 141,80 141,90 139,85 " style="fill:white; stroke-width:1; stroke:black; " description="&lt;b&gt;BLR21_RS14245&lt;/b&gt;&lt;br&gt;hypothetical protein&lt;br&gt;Location: 255619 - 255419" locus_tag="BLR21_RS14245" class="clusterblast-orf" id="dummy-1_h1_9_18"  />
</g>
<g id="a1_0019"  >
<polygon points="141,90 141,90 146,85 141,80 141,80 141,90 " style="fill:white; stroke-width:1; stroke:black; " description="&lt;b&gt;BLR21_RS14240&lt;/b&gt;&lt;br&gt;bifunctional adenosylcobinamide kinase/adenosylcobinamide-phosphate guanylyltransferase&lt;br&gt;Location: 255400 - 254861" locus_tag="BLR21_RS14240" class="clusterblast-orf" id="dummy-1_h1_9_19"  />
</g>
<g id="a1_0020"  >
<polygon points="146,90 151,90 156,85 151,80 146,80 146,90 " style="fill:white; stroke-width:1; stroke:black; " description="&lt;b&gt;BLR21_RS14235&lt;/b&gt;&lt;br&gt;nicotinate-nucleotide--dimethylbenzimidazole phosphoribosyltransferase&lt;br&gt;Location: 254850 - 253750" locus_tag="BLR21_RS14235" class="clusterblast-orf" id="dummy-1_h1_9_20"  />
</g>
<g id="a1_0021"  >
<polygon points="156,90 157,90 162,85 157,80 156,80 156,90 " style="fill:white; stroke-width:1; stroke:black; " description="&lt;b&gt;BLR21_RS14230&lt;/b&gt;&lt;br&gt;adenosylcobinamide-GDP ribazoletransferase&lt;br&gt;Location: 253753 - 253052" locus_tag="BLR21_RS14230" class="clusterblast-orf" id="dummy-1_h1_9_21"  />
</g>
<g id="a1_0022"  >
<polygon points="162,85 167,80 172,80 172,90 167,90 162,85 " style="fill:white; stroke-width:1; stroke:black; " description="&lt;b&gt;BLR21_RS14225&lt;/b&gt;&lt;br&gt;branched-chain amino acid aminotransferase&lt;br&gt;Location: 253055 - 251964" locus_tag="BLR21_RS14225" class="clusterblast-orf" id="dummy-1_h1_9_22"  />
</g>
<g id="a1_0023"  >
<polygon points="173,90 176,85 173,80 173,90 " style="fill:white; stroke-width:1; stroke:black; " description="&lt;b&gt;BLR21_RS14220&lt;/b&gt;&lt;br&gt;hypothetical protein&lt;br&gt;Location: 251871 - 251602" locus_tag="BLR21_RS14220" class="clusterblast-orf" id="dummy-1_h1_9_23"  />
</g>
<g id="a1_0024"  >
<polygon points="175,85 180,80 186,80 186,90 180,90 175,85 " style="fill:white; stroke-width:1; stroke:black; " description="&lt;b&gt;BLR21_RS14215&lt;/b&gt;&lt;br&gt;APC family permease&lt;br&gt;Location: 251663 - 250416" locus_tag="BLR21_RS14215" class="clusterblast-orf" id="dummy-1_h1_9_24"  />
</g>
<g id="a1_0025"  >
<polygon points="188,90 196,90 201,85 196,80 188,80 188,90 " style="fill:white; stroke-width:1; stroke:black; " description="&lt;b&gt;BLR21_RS14210&lt;/b&gt;&lt;br&gt;leucyl aminopeptidase&lt;br&gt;Location: 250215 - 248743" locus_tag="BLR21_RS14210" class="clusterblast-orf" id="dummy-1_h1_9_25"  />
</g>
<g id="a1_0026"  >
<polygon points="202,85 207,80 207,80 207,90 207,90 202,85 " style="fill:white; stroke-width:1; stroke:black; " description="&lt;b&gt;BLR21_RS14205&lt;/b&gt;&lt;br&gt;nucleotidyltransferase family protein&lt;br&gt;Location: 248685 - 248089" locus_tag="BLR21_RS14205" class="clusterblast-orf" id="dummy-1_h1_9_26"  />
</g>
<g id="a1_0027"  >
<polygon points="209,90 213,85 209,80 209,90 " style="fill:white; stroke-width:1; stroke:black; " description="&lt;b&gt;BLR21_RS14200&lt;/b&gt;&lt;br&gt;OsmC family protein&lt;br&gt;Location: 247907 - 247443" locus_tag="BLR21_RS14200" class="clusterblast-orf" id="dummy-1_h1_9_27"  />
</g>
<g id="a1_0028"  >
<polygon points="213,85 216,80 216,90 213,85 " style="fill:white; stroke-width:1; stroke:black; " description="&lt;b&gt;BLR21_RS14195&lt;/b&gt;&lt;br&gt;oxidoreductase&lt;br&gt;Location: 247446 - 247120" locus_tag="BLR21_RS14195" class="clusterblast-orf" id="dummy-1_h1_9_28"  />
</g>
<g id="a1_0029"  >
<polygon points="218,90 225,90 230,85 225,80 218,80 218,90 " style="fill:#1515d8; stroke-width:1; stroke:black; " description="&lt;b&gt;BLR21_RS14190&lt;/b&gt;&lt;br&gt;dihydrolipoyl dehydrogenase&lt;br&gt;Location: 246925 - 245552&lt;br&gt;&lt;br&gt;&lt;b&gt;BlastP hit with KKHPANEM_02423&lt;/b&gt;&lt;br&gt;Percentage identity: 40&lt;br&gt;Percentage coverage: 99&lt;br&gt;BLAST bit score: 293&lt;br&gt;E-value: 1.43e-92" locus_tag="BLR21_RS14190" class="clusterblast-orf" id="dummy-1_h1_9_29"  />
</g>
<g id="a1_0030"  >
<polygon points="231,90 242,90 247,85 242,80 231,80 231,90 " style="fill:#d81515; stroke-width:1; stroke:black; " description="&lt;b&gt;BLR21_RS14185&lt;/b&gt;&lt;br&gt;2-oxoglutarate dehydrogenase, E2 component, dihydrolipoamide succinyltransferase&lt;br&gt;Location: 245500 - 243773&lt;br&gt;&lt;br&gt;&lt;b&gt;BlastP hit with KKHPANEM_02420&lt;/b&gt;&lt;br&gt;Percentage identity: 42&lt;br&gt;Percentage coverage: 111&lt;br&gt;BLAST bit score: 292&lt;br&gt;E-value: 3.75e-90" locus_tag="BLR21_RS14185" class="clusterblast-orf" id="dummy-1_h1_9_30"  />
</g>
<g id="a1_0031"  >
<polygon points="248,90 251,90 256,85 251,80 248,80 248,90 " style="fill:white; stroke-width:1; stroke:black; " description="&lt;b&gt;BLR21_RS14180&lt;/b&gt;&lt;br&gt;TIGR01777 family protein&lt;br&gt;Location: 243615 - 242725" locus_tag="BLR21_RS14180" class="clusterblast-orf" id="dummy-1_h1_9_31"  />
</g>
<g id="a1_0032"  >
<polygon points="256,90 256,90 261,85 256,80 256,80 256,90 " style="fill:white; stroke-width:1; stroke:black; " description="&lt;b&gt;BLR21_RS14175&lt;/b&gt;&lt;br&gt;phosphatase PAP2 family protein&lt;br&gt;Location: 242728 - 242150" locus_tag="BLR21_RS14175" class="clusterblast-orf" id="dummy-1_h1_9_32"  />
</g>
<g id="a1_0033"  >
<polygon points="261,90 263,90 268,85 263,80 261,80 261,90 " style="fill:white; stroke-width:1; stroke:black; " description="&lt;b&gt;BLR21_RS14170&lt;/b&gt;&lt;br&gt;lipoyl(octanoyl) transferase LipB&lt;br&gt;Location: 242193 - 241465" locus_tag="BLR21_RS14170" class="clusterblast-orf" id="dummy-1_h1_9_33"  />
</g>
<g id="a1_0034"  >
<polygon points="268,90 268,90 273,85 268,80 268,80 268,90 " style="fill:white; stroke-width:1; stroke:black; " description="&lt;b&gt;BLR21_RS14165&lt;/b&gt;&lt;br&gt;hypothetical protein&lt;br&gt;Location: 241410 - 240916" locus_tag="BLR21_RS14165" class="clusterblast-orf" id="dummy-1_h1_9_34"  />
</g>
<g id="a1_0035"  >
<polygon points="273,85 278,80 281,80 281,90 278,90 273,85 " style="fill:white; stroke-width:1; stroke:black; " description="&lt;b&gt;BLR21_RS14160&lt;/b&gt;&lt;br&gt;LLM class F420-dependent oxidoreductase&lt;br&gt;Location: 240886 - 239954" locus_tag="BLR21_RS14160" class="clusterblast-orf" id="dummy-1_h1_9_35"  />
</g>
<g id="a1_0036"  >
<polygon points="281,85 286,80 291,80 291,90 286,90 281,85 " style="fill:white; stroke-width:1; stroke:black; " description="&lt;b&gt;BLR21_RS14155&lt;/b&gt;&lt;br&gt;CoA transferase&lt;br&gt;Location: 239943 - 238933" locus_tag="BLR21_RS14155" class="clusterblast-orf" id="dummy-1_h1_9_36"  />
</g>
<g id="a1_0037"  >
<polygon points="291,85 293,80 293,90 291,85 " style="fill:white; stroke-width:1; stroke:black; " description="&lt;b&gt;BLR21_RS14150&lt;/b&gt;&lt;br&gt;antibiotic biosynthesis monooxygenase&lt;br&gt;Location: 238936 - 238646" locus_tag="BLR21_RS14150" class="clusterblast-orf" id="dummy-1_h1_9_37"  />
</g>
<g id="a1_0038"  >
<polygon points="294,90 296,90 301,85 296,80 294,80 294,90 " style="fill:white; stroke-width:1; stroke:black; " description="&lt;b&gt;BLR21_RS14145&lt;/b&gt;&lt;br&gt;cyclase family protein&lt;br&gt;Location: 238553 - 237777" locus_tag="BLR21_RS14145" class="clusterblast-orf" id="dummy-1_h1_9_38"  />
</g>
<g id="a1_0039"  >
<polygon points="303,85 308,80 311,80 311,90 308,90 303,85 " style="fill:white; stroke-width:1; stroke:black; " description="&lt;b&gt;BLR21_RS14140&lt;/b&gt;&lt;br&gt;acyltransferase domain-containing protein&lt;br&gt;Location: 237603 - 236686" locus_tag="BLR21_RS14140" class="clusterblast-orf" id="dummy-1_h1_9_39"  />
</g>
<g id="a1_0040"  >
<polygon points="312,85 317,80 323,80 323,90 317,90 312,85 " style="fill:white; stroke-width:1; stroke:black; " description="&lt;b&gt;BLR21_RS14135&lt;/b&gt;&lt;br&gt;ketosynthase chain-length factor&lt;br&gt;Location: 236621 - 235407" locus_tag="BLR21_RS14135" class="clusterblast-orf" id="dummy-1_h1_9_40"  />
</g>
<g id="a1_0041"  >
<polygon points="323,85 328,80 334,80 334,90 328,90 323,85 " style="fill:white; stroke-width:1; stroke:black; " description="&lt;b&gt;BLR21_RS14130&lt;/b&gt;&lt;br&gt;beta-ketoacyl-[acyl-carrier-protein] synthase family protein&lt;br&gt;Location: 235410 - 234142" locus_tag="BLR21_RS14130" class="clusterblast-orf" id="dummy-1_h1_9_41"  />
</g>
<g id="a1_0042"  >
<polygon points="334,85 339,80 341,80 341,90 339,90 334,85 " style="fill:white; stroke-width:1; stroke:black; " description="&lt;b&gt;BLR21_RS14125&lt;/b&gt;&lt;br&gt;hypothetical protein&lt;br&gt;Location: 234145 - 233417" locus_tag="BLR21_RS14125" class="clusterblast-orf" id="dummy-1_h1_9_42"  />
</g>
<g id="a1_0043"  >
<polygon points="341,85 342,80 342,90 341,85 " style="fill:white; stroke-width:1; stroke:black; " description="&lt;b&gt;BLR21_RS14120&lt;/b&gt;&lt;br&gt;hypothetical protein&lt;br&gt;Location: 233416 - 233228" locus_tag="BLR21_RS14120" class="clusterblast-orf" id="dummy-1_h1_9_43"  />
</g>
<g id="a1_0044"  >
<polygon points="342,85 347,80 351,80 351,90 347,90 342,85 " style="fill:white; stroke-width:1; stroke:black; " description="&lt;b&gt;BLR21_RS14115&lt;/b&gt;&lt;br&gt;aromatase/cyclase&lt;br&gt;Location: 233218 - 232283" locus_tag="BLR21_RS14115" class="clusterblast-orf" id="dummy-1_h1_9_44"  />
</g>
<g id="a1_0045"  >
<polygon points="351,85 353,80 353,90 351,85 " style="fill:white; stroke-width:1; stroke:black; " description="&lt;b&gt;BLR21_RS14110&lt;/b&gt;&lt;br&gt;acyl carrier protein&lt;br&gt;Location: 232254 - 232003" locus_tag="BLR21_RS14110" class="clusterblast-orf" id="dummy-1_h1_9_45"  />
</g>
<g id="a1_0046"  >
<polygon points="355,85 360,80 362,80 362,90 360,90 355,85 " style="fill:white; stroke-width:1; stroke:black; " description="&lt;b&gt;BLR21_RS14105&lt;/b&gt;&lt;br&gt;AfsR/SARP family transcriptional regulator&lt;br&gt;Location: 231843 - 231034" locus_tag="BLR21_RS14105" class="clusterblast-orf" id="dummy-1_h1_9_46"  />
</g>
<g id="a1_0047"  >
<polygon points="364,90 366,85 364,80 364,90 " style="fill:white; stroke-width:1; stroke:black; " description="&lt;b&gt;BLR21_RS14100&lt;/b&gt;&lt;br&gt;hypothetical protein&lt;br&gt;Location: 230824 - 230639" locus_tag="BLR21_RS14100" class="clusterblast-orf" id="dummy-1_h1_9_47"  />
</g>
<g id="a1_0048"  >
<polygon points="366,90 381,90 386,85 381,80 366,80 366,90 " style="fill:white; stroke-width:1; stroke:black; " description="&lt;b&gt;BLR21_RS14095&lt;/b&gt;&lt;br&gt;TOMM precursor leader peptide-binding protein&lt;br&gt;Location: 230642 - 228384" locus_tag="BLR21_RS14095" class="clusterblast-orf" id="dummy-1_h1_9_48"  />
</g>
<g id="a1_0049"  >
<polygon points="387,90 387,90 392,85 387,80 387,80 387,90 " style="fill:white; stroke-width:1; stroke:black; " description="&lt;b&gt;BLR21_RS14090&lt;/b&gt;&lt;br&gt;hypothetical protein&lt;br&gt;Location: 228357 - 227713" locus_tag="BLR21_RS14090" class="clusterblast-orf" id="dummy-1_h1_9_49"  />
</g>
<g id="a1_0050"  >
<polygon points="393,90 409,90 414,85 409,80 393,80 393,90 " style="fill:white; stroke-width:1; stroke:black; " description="&lt;b&gt;BLR21_RS14085&lt;/b&gt;&lt;br&gt;histidine kinase&lt;br&gt;Location: 227610 - 225340" locus_tag="BLR21_RS14085" class="clusterblast-orf" id="dummy-1_h1_9_50"  />
</g>
<g id="a1_0051"  >
<polygon points="415,90 430,90 435,85 430,80 415,80 415,90 " style="fill:white; stroke-width:1; stroke:black; " description="&lt;b&gt;BLR21_RS14080&lt;/b&gt;&lt;br&gt;histidine kinase&lt;br&gt;Location: 225251 - 223017" locus_tag="BLR21_RS14080" class="clusterblast-orf" id="dummy-1_h1_9_51"  />
</g>
<g id="a1_0052"  >
<polygon points="438,85 443,80 447,80 447,90 443,90 438,85 " style="fill:white; stroke-width:1; stroke:black; " description="&lt;b&gt;BLR21_RS14070&lt;/b&gt;&lt;br&gt;ketoacyl-ACP synthase III family protein&lt;br&gt;Location: 222678 - 221671" locus_tag="BLR21_RS14070" class="clusterblast-orf" id="dummy-1_h1_9_52"  />
</g>
<g id="a1_0053"  >
<polygon points="447,85 452,80 453,80 453,90 452,90 447,85 " style="fill:white; stroke-width:1; stroke:black; " description="&lt;b&gt;BLR21_RS14065&lt;/b&gt;&lt;br&gt;NAD(P)H-dependent oxidoreductase&lt;br&gt;Location: 221665 - 221078" locus_tag="BLR21_RS14065" class="clusterblast-orf" id="dummy-1_h1_9_53"  />
</g>
<g id="a1_0054"  >
<polygon points="454,90 454,90 459,85 454,80 454,80 454,90 " style="fill:white; stroke-width:1; stroke:black; " description="&lt;b&gt;BLR21_RS14060&lt;/b&gt;&lt;br&gt;response regulator transcription factor&lt;br&gt;Location: 220969 - 220364" locus_tag="BLR21_RS14060" class="clusterblast-orf" id="dummy-1_h1_9_54"  />
</g>
<g id="a1_0055"  >
<polygon points="459,85 464,80 470,80 470,90 464,90 459,85 " style="fill:white; stroke-width:1; stroke:black; " description="&lt;b&gt;BLR21_RS14055&lt;/b&gt;&lt;br&gt;FAD-dependent oxidoreductase&lt;br&gt;Location: 220348 - 219131" locus_tag="BLR21_RS14055" class="clusterblast-orf" id="dummy-1_h1_9_55"  />
</g>
<g id="a1_0056"  >
<polygon points="470,85 475,80 477,80 477,90 475,90 470,85 " style="fill:#d815d8; stroke-width:1; stroke:black; " description="&lt;b&gt;BLR21_RS14050&lt;/b&gt;&lt;br&gt;SDR family NAD(P)-dependent oxidoreductase&lt;br&gt;Location: 219129 - 218350&lt;br&gt;&lt;br&gt;&lt;b&gt;BlastP hit with KKHPANEM_02434&lt;/b&gt;&lt;br&gt;Percentage identity: 34&lt;br&gt;Percentage coverage: 99&lt;br&gt;BLAST bit score: 123&lt;br&gt;E-value: 5.43e-32" locus_tag="BLR21_RS14050" class="clusterblast-orf" id="dummy-1_h1_9_56"  />
</g>
<g id="a1_0057"  >
<polygon points="478,85 481,80 481,90 478,85 " style="fill:white; stroke-width:1; stroke:black; " description="&lt;b&gt;BLR21_RS14045&lt;/b&gt;&lt;br&gt;(2Fe-2S)-binding protein&lt;br&gt;Location: 218335 - 218012" locus_tag="BLR21_RS14045" class="clusterblast-orf" id="dummy-1_h1_9_57"  />
</g>
<g id="a1_0058"  >
<polygon points="482,90 490,90 495,85 490,80 482,80 482,90 " style="fill:white; stroke-width:1; stroke:black; " description="&lt;b&gt;BLR21_RS14040&lt;/b&gt;&lt;br&gt;alpha/beta fold hydrolase&lt;br&gt;Location: 217840 - 216422" locus_tag="BLR21_RS14040" class="clusterblast-orf" id="dummy-1_h1_9_58"  />
</g>
<g id="a1_0059"  >
<polygon points="495,85 500,80 507,80 507,90 500,90 495,85 " style="fill:white; stroke-width:1; stroke:black; " description="&lt;b&gt;BLR21_RS14035&lt;/b&gt;&lt;br&gt;cytochrome P450&lt;br&gt;Location: 216370 - 215138" locus_tag="BLR21_RS14035" class="clusterblast-orf" id="dummy-1_h1_9_59"  />
</g>
<g id="a1_0060"  >
<polygon points="507,85 512,80 514,80 514,90 512,90 507,85 " style="fill:white; stroke-width:1; stroke:black; " description="&lt;b&gt;BLR21_RS14030&lt;/b&gt;&lt;br&gt;SDR family oxidoreductase&lt;br&gt;Location: 215107 - 214349" locus_tag="BLR21_RS14030" class="clusterblast-orf" id="dummy-1_h1_9_60"  />
</g>
<g id="a1_0061"  >
<polygon points="515,90 518,85 515,80 515,90 " style="fill:white; stroke-width:1; stroke:black; " description="&lt;b&gt;BLR21_RS14025&lt;/b&gt;&lt;br&gt;hypothetical protein&lt;br&gt;Location: 214249 - 213920" locus_tag="BLR21_RS14025" class="clusterblast-orf" id="dummy-1_h1_9_61"  />
</g>
<g id="a1_0062"  >
<polygon points="518,85 523,80 527,80 527,90 523,90 518,85 " style="fill:white; stroke-width:1; stroke:black; " description="&lt;b&gt;BLR21_RS14020&lt;/b&gt;&lt;br&gt;NADP-dependent oxidoreductase&lt;br&gt;Location: 213872 - 212859" locus_tag="BLR21_RS14020" class="clusterblast-orf" id="dummy-1_h1_9_62"  />
</g>
<g id="a1_0063"  >
<polygon points="527,85 532,80 539,80 539,90 532,90 527,85 " style="fill:white; stroke-width:1; stroke:black; " description="&lt;b&gt;BLR21_RS14015&lt;/b&gt;&lt;br&gt;cytochrome P450&lt;br&gt;Location: 212844 - 211630" locus_tag="BLR21_RS14015" class="clusterblast-orf" id="dummy-1_h1_9_63"  />
</g>
<g id="a1_0064"  >
<polygon points="540,90 545,90 550,85 545,80 540,80 540,90 " style="fill:white; stroke-width:1; stroke:black; " description="&lt;b&gt;BLR21_RS14010&lt;/b&gt;&lt;br&gt;epoxide hydrolase&lt;br&gt;Location: 211507 - 210383" locus_tag="BLR21_RS14010" class="clusterblast-orf" id="dummy-1_h1_9_64"  />
</g>
<g id="a1_0065"  >
<polygon points="550,90 558,90 563,85 558,80 550,80 550,90 " style="fill:white; stroke-width:1; stroke:black; " description="&lt;b&gt;BLR21_RS14005&lt;/b&gt;&lt;br&gt;MFS transporter&lt;br&gt;Location: 210386 - 208980" locus_tag="BLR21_RS14005" class="clusterblast-orf" id="dummy-1_h1_9_65"  />
</g>
<g id="a1_0066"  >
<polygon points="563,85 568,80 574,80 574,90 568,90 563,85 " style="fill:white; stroke-width:1; stroke:black; " description="&lt;b&gt;BLR21_RS14000&lt;/b&gt;&lt;br&gt;cytochrome P450&lt;br&gt;Location: 208932 - 207724" locus_tag="BLR21_RS14000" class="clusterblast-orf" id="dummy-1_h1_9_66"  />
</g>
<g id="a1_0067"  >
<polygon points="575,90 578,90 583,85 578,80 575,80 575,90 " style="fill:white; stroke-width:1; stroke:black; " description="&lt;b&gt;BLR21_RS13995&lt;/b&gt;&lt;br&gt;NAD(P)H-binding protein&lt;br&gt;Location: 207580 - 206744" locus_tag="BLR21_RS13995" class="clusterblast-orf" id="dummy-1_h1_9_67"  />
</g>
<g id="a1_0068"  >
<polygon points="583,85 588,80 588,80 588,90 588,90 583,85 " style="fill:white; stroke-width:1; stroke:black; " description="&lt;b&gt;BLR21_RS13990&lt;/b&gt;&lt;br&gt;hypothetical protein&lt;br&gt;Location: 206680 - 206228" locus_tag="BLR21_RS13990" class="clusterblast-orf" id="dummy-1_h1_9_68"  />
</g>
<g id="a1_0069"  >
<polygon points="589,90 591,85 589,80 589,90 " style="fill:white; stroke-width:1; stroke:black; " description="&lt;b&gt;BLR21_RS42490&lt;/b&gt;&lt;br&gt;acyl carrier protein&lt;br&gt;Location: 206076 - 205831" locus_tag="BLR21_RS42490" class="clusterblast-orf" id="dummy-1_h1_9_69"  />
</g>
<g id="a1_0070"  >
<polygon points="591,90 596,90 601,85 596,80 591,80 591,90 " style="fill:white; stroke-width:1; stroke:black; " description="&lt;b&gt;BLR21_RS13980&lt;/b&gt;&lt;br&gt;ketoacyl-ACP synthase III family protein&lt;br&gt;Location: 205821 - 204781" locus_tag="BLR21_RS13980" class="clusterblast-orf" id="dummy-1_h1_9_70"  />
</g>
<g id="a1_0071"  >
<polygon points="601,85 606,80 615,80 615,90 606,90 601,85 " style="fill:#d8d815; stroke-width:1; stroke:black; " description="&lt;b&gt;BLR21_RS13975&lt;/b&gt;&lt;br&gt;amino acid adenylation domain-containing protein&lt;br&gt;Location: 204732 - 203254&lt;br&gt;&lt;br&gt;&lt;b&gt;BlastP hit with KKHPANEM_02435&lt;/b&gt;&lt;br&gt;Percentage identity: 31&lt;br&gt;Percentage coverage: 93&lt;br&gt;BLAST bit score: 162&lt;br&gt;E-value: 2.7e-42" locus_tag="BLR21_RS13975" class="clusterblast-orf" id="dummy-1_h1_9_71"  />
</g>
<g id="a1_0072"  >
<polygon points="616,90 620,85 616,80 616,90 " style="fill:white; stroke-width:1; stroke:black; " description="&lt;b&gt;BLR21_RS13970&lt;/b&gt;&lt;br&gt;hypothetical protein&lt;br&gt;Location: 203110 - 202637" locus_tag="BLR21_RS13970" class="clusterblast-orf" id="dummy-1_h1_9_72"  />
</g>
<g id="a1_0073"  >
<polygon points="621,85 626,80 637,80 637,90 626,90 621,85 " style="fill:white; stroke-width:1; stroke:black; " description="&lt;b&gt;BLR21_RS13965&lt;/b&gt;&lt;br&gt;MFS transporter&lt;br&gt;Location: 202521 - 200773" locus_tag="BLR21_RS13965" class="clusterblast-orf" id="dummy-1_h1_9_73"  />
</g>
<g id="a1_0074"  >
<polygon points="639,85 644,80 649,80 649,90 644,90 639,85 " style="fill:white; stroke-width:1; stroke:black; " description="&lt;b&gt;BLR21_RS13960&lt;/b&gt;&lt;br&gt;hypothetical protein&lt;br&gt;Location: 200526 - 199447" locus_tag="BLR21_RS13960" class="clusterblast-orf" id="dummy-1_h1_9_74"  />
</g>
<g id="a1_0075"  >
<polygon points="649,85 653,80 653,90 649,85 " style="fill:white; stroke-width:1; stroke:black; " description="&lt;b&gt;BLR21_RS13955&lt;/b&gt;&lt;br&gt;nuclear transport factor 2 family protein&lt;br&gt;Location: 199425 - 199057" locus_tag="BLR21_RS13955" class="clusterblast-orf" id="dummy-1_h1_9_75"  />
</g>
<g id="a1_0076"  >
<polygon points="655,90 659,85 655,80 655,90 " style="fill:white; stroke-width:1; stroke:black; " description="&lt;b&gt;BLR21_RS13950&lt;/b&gt;&lt;br&gt;SRPBCC domain-containing protein&lt;br&gt;Location: 198838 - 198356" locus_tag="BLR21_RS13950" class="clusterblast-orf" id="dummy-1_h1_9_76"  />
</g>
<g id="a1_0077"  >
<polygon points="660,85 662,80 662,90 660,85 " style="fill:white; stroke-width:1; stroke:black; " description="&lt;b&gt;BLR21_RS13945&lt;/b&gt;&lt;br&gt;acetolactate synthase small subunit&lt;br&gt;Location: 198278 - 198012" locus_tag="BLR21_RS13945" class="clusterblast-orf" id="dummy-1_h1_9_77"  />
</g>
<g id="a1_0078"  >
<polygon points="662,85 667,80 678,80 678,90 667,90 662,85 " style="fill:white; stroke-width:1; stroke:black; " description="&lt;b&gt;BLR21_RS13940&lt;/b&gt;&lt;br&gt;acetolactate synthase large subunit&lt;br&gt;Location: 198012 - 196288" locus_tag="BLR21_RS13940" class="clusterblast-orf" id="dummy-1_h1_9_78"  />
</g>
<g id="a1_0079"  >
<polygon points="678,85 683,80 685,80 685,90 683,90 678,85 " style="fill:white; stroke-width:1; stroke:black; " description="&lt;b&gt;BLR21_RS13935&lt;/b&gt;&lt;br&gt;AfsR/SARP family transcriptional regulator&lt;br&gt;Location: 196286 - 195471" locus_tag="BLR21_RS13935" class="clusterblast-orf" id="dummy-1_h1_9_79"  />
</g>
<g id="a1_0080"  >
<polygon points="689,90 694,90 699,85 694,80 689,80 689,90 " style="fill:white; stroke-width:1; stroke:black; " description="&lt;b&gt;BLR21_RS13930&lt;/b&gt;&lt;br&gt;hypothetical protein&lt;br&gt;Location: 195041 - 193944" locus_tag="BLR21_RS13930" class="clusterblast-orf" id="dummy-1_h1_9_80"  />
</g>
<g id="a1_0081"  >
<polygon points="701,85 706,80 707,80 707,90 706,90 701,85 " style="fill:white; stroke-width:1; stroke:black; " description="&lt;b&gt;BLR21_RS13925&lt;/b&gt;&lt;br&gt;response regulator transcription factor&lt;br&gt;Location: 193725 - 193120" locus_tag="BLR21_RS13925" class="clusterblast-orf" id="dummy-1_h1_9_81"  />
</g>
<g id="a1_0082"  >
<polygon points="709,85 714,80 715,80 715,90 714,90 709,85 " style="fill:white; stroke-width:1; stroke:black; " description="&lt;b&gt;BLR21_RS13920&lt;/b&gt;&lt;br&gt;SDR family oxidoreductase&lt;br&gt;Location: 192846 - 192163" locus_tag="BLR21_RS13920" class="clusterblast-orf" id="dummy-1_h1_9_82"  />
</g>
<g id="a1_0083"  >
<polygon points="716,85 721,80 721,80 721,90 721,90 716,85 " style="fill:white; stroke-width:1; stroke:black; " description="&lt;b&gt;BLR21_RS13915&lt;/b&gt;&lt;br&gt;TetR/AcrR family transcriptional regulator&lt;br&gt;Location: 192095 - 191505" locus_tag="BLR21_RS13915" class="clusterblast-orf" id="dummy-1_h1_9_83"  />
</g>
<g id="a1_0084"  >
<polygon points="722,90 725,85 722,80 722,90 " style="fill:white; stroke-width:1; stroke:black; " description="&lt;b&gt;BLR21_RS13910&lt;/b&gt;&lt;br&gt;hypothetical protein&lt;br&gt;Location: 191415 - 191107" locus_tag="BLR21_RS13910" class="clusterblast-orf" id="dummy-1_h1_9_84"  />
</g>
<g id="a1_0085"  >
<polygon points="725,90 728,90 733,85 728,80 725,80 725,90 " style="fill:white; stroke-width:1; stroke:black; " description="&lt;b&gt;BLR21_RS13905&lt;/b&gt;&lt;br&gt;SDR family NAD(P)-dependent oxidoreductase&lt;br&gt;Location: 191110 - 190220" locus_tag="BLR21_RS13905" class="clusterblast-orf" id="dummy-1_h1_9_85"  />
</g>
<g id="a1_0086"  >
<polygon points="735,90 739,90 744,85 739,80 735,80 735,90 " style="fill:white; stroke-width:1; stroke:black; " description="&lt;b&gt;BLR21_RS13900&lt;/b&gt;&lt;br&gt;lipoyl synthase&lt;br&gt;Location: 189999 - 188998" locus_tag="BLR21_RS13900" class="clusterblast-orf" id="dummy-1_h1_9_86"  />
</g>
<g id="a1_0087"  >
<polygon points="745,85 750,80 750,80 750,90 750,90 745,85 " style="fill:white; stroke-width:1; stroke:black; " description="&lt;b&gt;BLR21_RS13895&lt;/b&gt;&lt;br&gt;hypothetical protein&lt;br&gt;Location: 188872 - 188333" locus_tag="BLR21_RS13895" class="clusterblast-orf" id="dummy-1_h1_9_87"  />
</g>
<g id="a1_0088"  >
<polygon points="750,85 755,80 755,80 755,90 755,90 750,85 " style="fill:white; stroke-width:1; stroke:black; " description="&lt;b&gt;BLR21_RS13890&lt;/b&gt;&lt;br&gt;hypothetical protein&lt;br&gt;Location: 188336 - 187818" locus_tag="BLR21_RS13890" class="clusterblast-orf" id="dummy-1_h1_9_88"  />
</g>
<g id="a1_0089"  >
<polygon points="755,85 758,80 758,90 755,85 " style="fill:white; stroke-width:1; stroke:black; " description="&lt;b&gt;BLR21_RS13885&lt;/b&gt;&lt;br&gt;hypothetical protein&lt;br&gt;Location: 187821 - 187510" locus_tag="BLR21_RS13885" class="clusterblast-orf" id="dummy-1_h1_9_89"  />
</g>
<g id="a1_0090"  >
<polygon points="758,85 759,80 759,90 758,85 " style="fill:white; stroke-width:1; stroke:black; " description="&lt;b&gt;BLR21_RS42485&lt;/b&gt;&lt;br&gt;hypothetical protein&lt;br&gt;Location: 187507 - 187331" locus_tag="BLR21_RS42485" class="clusterblast-orf" id="dummy-1_h1_9_90"  />
</g>
<g id="a1_0091"  >
<polygon points="759,85 763,80 763,90 759,85 " style="fill:white; stroke-width:1; stroke:black; " description="&lt;b&gt;BLR21_RS13875&lt;/b&gt;&lt;br&gt;Asp23/Gls24 family envelope stress response protein&lt;br&gt;Location: 187319 - 186879" locus_tag="BLR21_RS13875" class="clusterblast-orf" id="dummy-1_h1_9_91"  />
</g>
<g id="a1_0092"  >
<polygon points="764,85 766,80 766,90 764,85 " style="fill:white; stroke-width:1; stroke:black; " description="&lt;b&gt;BLR21_RS13870&lt;/b&gt;&lt;br&gt;hypothetical protein&lt;br&gt;Location: 186821 - 186528" locus_tag="BLR21_RS13870" class="clusterblast-orf" id="dummy-1_h1_9_92"  />
</g>
<g id="a1_0093"  >
<polygon points="766,85 770,80 770,90 766,85 " style="fill:white; stroke-width:1; stroke:black; " description="&lt;b&gt;BLR21_RS13865&lt;/b&gt;&lt;br&gt;Asp23/Gls24 family envelope stress response protein&lt;br&gt;Location: 186534 - 186187" locus_tag="BLR21_RS13865" class="clusterblast-orf" id="dummy-1_h1_9_93"  />
</g>
<g id="a1_0094"  >
<polygon points="770,85 775,80 775,80 775,90 775,90 770,85 " style="fill:white; stroke-width:1; stroke:black; " description="&lt;b&gt;BLR21_RS13860&lt;/b&gt;&lt;br&gt;hypothetical protein&lt;br&gt;Location: 186182 - 185640" locus_tag="BLR21_RS13860" class="clusterblast-orf" id="dummy-1_h1_9_94"  />
</g>
<g id="a1_0095"  >
<polygon points="774,85 779,80 780,80 780,90 779,90 774,85 " style="fill:white; stroke-width:1; stroke:black; " description="&lt;b&gt;BLR21_RS13855&lt;/b&gt;&lt;br&gt;sigma-70 family RNA polymerase sigma factor&lt;br&gt;Location: 185649 - 185092" locus_tag="BLR21_RS13855" class="clusterblast-orf" id="dummy-1_h1_9_95"  />
</g>
</svg>
