<svg xmlns="http://www.w3.org/2000/svg" xmlns:xlink="http://www.w3.org/1999/xlink" version="1.1" x="0" y="0" height="230" width="800" viewBox="0 0 800 230" preserveAspectRatio="none"  >
<g label="Query sequence" class="clusterblast-cluster"  >
<text x="5" y="20" class="clusterblast-acc"  >
Query sequence</text>
<line x1="10" y1="35" x2="778.0" y2="35" style="stroke-width:1; stroke:grey; "  />
<polygon points="119,40 141,40 146,35 141,30 119,30 119,40 " style="fill:white; stroke-width:1; stroke:black; " description="&lt;b&gt;KKHPANEM_02026&lt;/b&gt;&lt;br&gt;hypothetical protein&lt;br&gt;Location: 6816 - 7518" locus_tag="KKHPANEM_02026" class="clusterblast-orf" id="dummy-1_q0_0_all"  />
<polygon points="146,35 151,30 246,30 246,40 151,40 146,35 " style="fill:white; stroke-width:1; stroke:black; " description="&lt;b&gt;KKHPANEM_02027&lt;/b&gt;&lt;br&gt;Aminopeptidase N&lt;br&gt;Location: 7527 - 10089" locus_tag="KKHPANEM_02027" class="clusterblast-orf" id="dummy-1_q1_0_all"  />
<polygon points="252,40 306,40 311,35 306,30 252,30 252,40 " style="fill:white; stroke-width:1; stroke:black; " description="&lt;b&gt;KKHPANEM_02028&lt;/b&gt;&lt;br&gt;Cryptochrome-like protein cry2&lt;br&gt;Location: 10255 - 11779" locus_tag="KKHPANEM_02028" class="clusterblast-orf" id="dummy-1_q2_0_all"  />
<polygon points="315,40 345,40 350,35 345,30 315,30 315,40 " style="fill:#d81515; stroke-width:1; stroke:black; " description="&lt;b&gt;KKHPANEM_02029&lt;/b&gt;&lt;br&gt;1,4-dihydroxy-2-naphthoate octaprenyltransferase&lt;br&gt;Location: 11877 - 12774" locus_tag="KKHPANEM_02029" class="clusterblast-orf" id="dummy-1_q3_0_all"  />
<polygon points="350,40 396,40 401,35 396,30 350,30 350,40 " style="fill:#15d815; stroke-width:1; stroke:black; " description="&lt;b&gt;KKHPANEM_02030&lt;/b&gt;&lt;br&gt;Protein PucC&lt;br&gt;Location: 12784 - 14089" locus_tag="KKHPANEM_02030" class="clusterblast-orf" id="dummy-1_q4_0_all"  />
<polygon points="401,40 442,40 447,35 442,30 401,30 401,40 " style="fill:#1597d8; stroke-width:1; stroke:black; " description="&lt;b&gt;KKHPANEM_02031&lt;/b&gt;&lt;br&gt;Menaquinone reductase&lt;br&gt;Location: 14093 - 15287" locus_tag="KKHPANEM_02031" class="clusterblast-orf" id="dummy-1_q5_0_all"  />
<polygon points="447,40 463,40 468,35 463,30 447,30 447,40 " style="fill:#9715d8; stroke-width:1; stroke:black; " description="&lt;b&gt;KKHPANEM_02032&lt;/b&gt;&lt;br&gt;Isopentenyl-diphosphate Delta-isomerase&lt;br&gt;Location: 15295 - 15826" locus_tag="KKHPANEM_02032" class="clusterblast-orf" id="dummy-1_q6_0_all"  />
<polygon points="468,35 473,30 487,30 487,40 473,40 468,35 " style="fill:#d89715; stroke-width:1; stroke:black; " description="&lt;b&gt;KKHPANEM_02033&lt;/b&gt;&lt;br&gt;Tryptophan-rich sensory protein&lt;br&gt;Location: 15838 - 16312" locus_tag="KKHPANEM_02033" class="clusterblast-orf" id="dummy-1_q7_0_all"  />
<polygon points="487,35 492,30 530,30 530,40 492,40 487,35 " style="fill:#15d897; stroke-width:1; stroke:black; " description="&lt;b&gt;KKHPANEM_02034&lt;/b&gt;&lt;br&gt;hypothetical protein&lt;br&gt;Location: 16311 - 17421" locus_tag="KKHPANEM_02034" class="clusterblast-orf" id="dummy-1_q8_0_all"  />
<polygon points="530,35 535,30 590,30 590,40 535,40 530,35 " style="fill:#1515d8; stroke-width:1; stroke:black; " description="&lt;b&gt;KKHPANEM_02035&lt;/b&gt;&lt;br&gt;Phytoene desaturase (neurosporene-forming)&lt;br&gt;Location: 17417 - 18971" locus_tag="KKHPANEM_02035" class="clusterblast-orf" id="dummy-1_q9_0_all"  />
<polygon points="595,40 617,40 622,35 617,30 595,30 595,40 " style="fill:#d81597; stroke-width:1; stroke:black; " description="&lt;b&gt;KKHPANEM_02036&lt;/b&gt;&lt;br&gt;Spheroidene monooxygenase&lt;br&gt;Location: 19097 - 19808" locus_tag="KKHPANEM_02036" class="clusterblast-orf" id="dummy-1_q10_0_all"  />
<polygon points="622,40 656,40 661,35 656,30 622,30 622,40 " style="fill:#97d815; stroke-width:1; stroke:black; " description="&lt;b&gt;KKHPANEM_02037&lt;/b&gt;&lt;br&gt;Magnesium-chelatase 38 kDa subunit&lt;br&gt;Location: 19804 - 20809" locus_tag="KKHPANEM_02037" class="clusterblast-orf" id="dummy-1_q11_0_all"  />
</g>
<g label="NZ_JAAIKE010000001" description="NZ_JAAIKE010000001 (123967-144083): Rhodobacter sp. ETT8 contig1, whole genom... (50% of genes show similarity), terpene" class="clusterblast-cluster"  >
<text x="5" y="70" class="clusterblast-acc"  >
<a xlink:href="https://antismash-db.secondarymetabolites.org/area.html?record=NZ_JAAIKE010000001&amp;start=123967&amp;end=144083" target="_blank">NZ_JAAIKE010000001 (123967-144083)</a>: Rhodobacter sp. ETT8 contig1, whole genom... (50% of genes show similarity), terpene</text>
<line x1="10" y1="85" x2="778.0" y2="85" style="stroke-width:1; stroke:grey; "  />
</g>
<g id="a1_000"  >
<polygon points="0,85 5,80 59,80 59,90 5,90 0,85 " style="fill:white; stroke-width:1; stroke:black; " description="&lt;b&gt;G3572_RS00690&lt;/b&gt;&lt;br&gt;chlorophyllide a reductase subunit Y&lt;br&gt;Location: 144083 - 142560" locus_tag="G3572_RS00690" class="clusterblast-orf" id="dummy-1_h1_5_0"  />
</g>
<g id="a1_001"  >
<polygon points="61,85 66,80 100,80 100,90 66,90 61,85 " style="fill:white; stroke-width:1; stroke:black; " description="&lt;b&gt;G3572_RS00685&lt;/b&gt;&lt;br&gt;chlorophyllide a reductase iron protein subunit X&lt;br&gt;Location: 142496 - 141492" locus_tag="G3572_RS00685" class="clusterblast-orf" id="dummy-1_h1_5_1"  />
</g>
<g id="a1_002"  >
<polygon points="100,85 105,80 136,80 136,90 105,90 100,85 " style="fill:white; stroke-width:1; stroke:black; " description="&lt;b&gt;G3572_RS00680&lt;/b&gt;&lt;br&gt;chlorophyll synthesis pathway protein BchC&lt;br&gt;Location: 141495 - 140551" locus_tag="G3572_RS00680" class="clusterblast-orf" id="dummy-1_h1_5_2"  />
</g>
<g id="a1_003"  >
<polygon points="143,85 148,80 187,80 187,90 148,90 143,85 " style="fill:white; stroke-width:1; stroke:black; " description="&lt;b&gt;G3572_RS00675&lt;/b&gt;&lt;br&gt;methyltransferase domain-containing protein&lt;br&gt;Location: 140381 - 139257" locus_tag="G3572_RS00675" class="clusterblast-orf" id="dummy-1_h1_5_3"  />
</g>
<g id="a1_004"  >
<polygon points="187,85 192,80 221,80 221,90 192,90 187,85 " style="fill:white; stroke-width:1; stroke:black; " description="&lt;b&gt;G3572_RS00670&lt;/b&gt;&lt;br&gt;polyprenyl synthetase family protein&lt;br&gt;Location: 139252 - 138383" locus_tag="G3572_RS00670" class="clusterblast-orf" id="dummy-1_h1_5_4"  />
</g>
<g id="a1_005"  >
<polygon points="225,90 280,90 285,85 280,80 225,80 225,90 " style="fill:white; stroke-width:1; stroke:black; " description="&lt;b&gt;G3572_RS00665&lt;/b&gt;&lt;br&gt;phytoene desaturase&lt;br&gt;Location: 138259 - 136709" locus_tag="G3572_RS00665" class="clusterblast-orf" id="dummy-1_h1_5_5"  />
</g>
<g id="a1_006"  >
<polygon points="285,90 313,90 318,85 313,80 285,80 285,90 " style="fill:white; stroke-width:1; stroke:black; " description="&lt;b&gt;G3572_RS00660&lt;/b&gt;&lt;br&gt;carotenoid 1,2-hydratase&lt;br&gt;Location: 136712 - 135870" locus_tag="G3572_RS00660" class="clusterblast-orf" id="dummy-1_h1_5_6"  />
</g>
<g id="a1_007"  >
<polygon points="327,85 332,80 345,80 345,90 332,90 327,85 " style="fill:#d89715; stroke-width:1; stroke:black; " description="&lt;b&gt;G3572_RS00655&lt;/b&gt;&lt;br&gt;tryptophan-rich sensory protein&lt;br&gt;Location: 135648 - 135169&lt;br&gt;&lt;br&gt;&lt;b&gt;BlastP hit with KKHPANEM_02033&lt;/b&gt;&lt;br&gt;Percentage identity: 61&lt;br&gt;Percentage coverage: 97&lt;br&gt;BLAST bit score: 191&lt;br&gt;E-value: 3.61e-61" locus_tag="G3572_RS00655" class="clusterblast-orf" id="dummy-1_h1_5_7"  />
</g>
<g id="a1_008"  >
<polygon points="354,85 359,80 393,80 393,90 359,90 354,85 " style="fill:#15d897; stroke-width:1; stroke:black; " description="&lt;b&gt;G3572_RS00650&lt;/b&gt;&lt;br&gt;phytoene/squalene synthase family protein&lt;br&gt;Location: 134944 - 133940&lt;br&gt;&lt;br&gt;&lt;b&gt;BlastP hit with KKHPANEM_02034&lt;/b&gt;&lt;br&gt;Percentage identity: 65&lt;br&gt;Percentage coverage: 90&lt;br&gt;BLAST bit score: 395&lt;br&gt;E-value: 8.42e-136" locus_tag="G3572_RS00650" class="clusterblast-orf" id="dummy-1_h1_5_8"  />
</g>
<g id="a1_009"  >
<polygon points="393,85 398,80 454,80 454,90 398,90 393,85 " style="fill:#1515d8; stroke-width:1; stroke:black; " description="&lt;b&gt;G3572_RS00645&lt;/b&gt;&lt;br&gt;phytoene desaturase&lt;br&gt;Location: 133943 - 132369&lt;br&gt;&lt;br&gt;&lt;b&gt;BlastP hit with KKHPANEM_02035&lt;/b&gt;&lt;br&gt;Percentage identity: 73&lt;br&gt;Percentage coverage: 95&lt;br&gt;BLAST bit score: 743&lt;br&gt;E-value: 1.76e-267" locus_tag="G3572_RS00645" class="clusterblast-orf" id="dummy-1_h1_5_9"  />
</g>
<g id="a1_0010"  >
<polygon points="459,90 482,90 487,85 482,80 459,80 459,90 " style="fill:#d81597; stroke-width:1; stroke:black; " description="&lt;b&gt;G3572_RS00640&lt;/b&gt;&lt;br&gt;spheroidene monooxygenase&lt;br&gt;Location: 132240 - 131521&lt;br&gt;&lt;br&gt;&lt;b&gt;BlastP hit with KKHPANEM_02036&lt;/b&gt;&lt;br&gt;Percentage identity: 61&lt;br&gt;Percentage coverage: 103&lt;br&gt;BLAST bit score: 297&lt;br&gt;E-value: 8.23e-101" locus_tag="G3572_RS00640" class="clusterblast-orf" id="dummy-1_h1_5_10"  />
</g>
<g id="a1_0011"  >
<polygon points="487,90 523,90 528,85 523,80 487,80 487,90 " style="fill:#97d815; stroke-width:1; stroke:black; " description="&lt;b&gt;G3572_RS00635&lt;/b&gt;&lt;br&gt;magnesium chelatase ATPase subunit I&lt;br&gt;Location: 131521 - 130466&lt;br&gt;&lt;br&gt;&lt;b&gt;BlastP hit with KKHPANEM_02037&lt;/b&gt;&lt;br&gt;Percentage identity: 78&lt;br&gt;Percentage coverage: 99&lt;br&gt;BLAST bit score: 515&lt;br&gt;E-value: 1.51e-183" locus_tag="G3572_RS00635" class="clusterblast-orf" id="dummy-1_h1_5_11"  />
</g>
<g id="a1_0012"  >
<polygon points="528,90 587,90 592,85 587,80 528,80 528,90 " style="fill:white; stroke-width:1; stroke:black; " description="&lt;b&gt;G3572_RS00630&lt;/b&gt;&lt;br&gt;magnesium chelatase subunit D&lt;br&gt;Location: 130458 - 128797" locus_tag="G3572_RS00630" class="clusterblast-orf" id="dummy-1_h1_5_12"  />
</g>
<g id="a1_0013"  >
<polygon points="592,90 621,90 626,85 621,80 592,80 592,90 " style="fill:white; stroke-width:1; stroke:black; " description="&lt;b&gt;G3572_RS00625&lt;/b&gt;&lt;br&gt;alpha/beta fold hydrolase&lt;br&gt;Location: 128793 - 127930" locus_tag="G3572_RS00625" class="clusterblast-orf" id="dummy-1_h1_5_13"  />
</g>
<g id="a1_0014"  >
<polygon points="626,85 631,80 647,80 647,90 631,90 626,85 " style="fill:#9715d8; stroke-width:1; stroke:black; " description="&lt;b&gt;G3572_RS00620&lt;/b&gt;&lt;br&gt;isopentenyl-diphosphate Delta-isomerase&lt;br&gt;Location: 127915 - 127388&lt;br&gt;&lt;br&gt;&lt;b&gt;BlastP hit with KKHPANEM_02032&lt;/b&gt;&lt;br&gt;Percentage identity: 71&lt;br&gt;Percentage coverage: 95&lt;br&gt;BLAST bit score: 256&lt;br&gt;E-value: 2.45e-86" locus_tag="G3572_RS00620" class="clusterblast-orf" id="dummy-1_h1_5_14"  />
</g>
<g id="a1_0015"  >
<polygon points="648,85 653,80 694,80 694,90 653,90 648,85 " style="fill:#1597d8; stroke-width:1; stroke:black; " description="&lt;b&gt;G3572_RS00615&lt;/b&gt;&lt;br&gt;geranylgeranyl diphosphate reductase&lt;br&gt;Location: 127364 - 126171&lt;br&gt;&lt;br&gt;&lt;b&gt;BlastP hit with KKHPANEM_02031&lt;/b&gt;&lt;br&gt;Percentage identity: 78&lt;br&gt;Percentage coverage: 100&lt;br&gt;BLAST bit score: 619&lt;br&gt;E-value: 1.08e-222" locus_tag="G3572_RS00615" class="clusterblast-orf" id="dummy-1_h1_5_15"  />
</g>
<g id="a1_0016"  >
<polygon points="694,85 699,80 744,80 744,90 699,90 694,85 " style="fill:#15d815; stroke-width:1; stroke:black; " description="&lt;b&gt;G3572_RS00610&lt;/b&gt;&lt;br&gt;BCD family MFS transporter&lt;br&gt;Location: 126168 - 124873&lt;br&gt;&lt;br&gt;&lt;b&gt;BlastP hit with KKHPANEM_02030&lt;/b&gt;&lt;br&gt;Percentage identity: 62&lt;br&gt;Percentage coverage: 100&lt;br&gt;BLAST bit score: 449&lt;br&gt;E-value: 1.51e-154" locus_tag="G3572_RS00610" class="clusterblast-orf" id="dummy-1_h1_5_16"  />
</g>
<g id="a1_0017"  >
<polygon points="744,85 749,80 780,80 780,90 749,90 744,85 " style="fill:#d81515; stroke-width:1; stroke:black; " description="&lt;b&gt;G3572_RS00605&lt;/b&gt;&lt;br&gt;chlorophyll synthase ChlG&lt;br&gt;Location: 124876 - 123968&lt;br&gt;&lt;br&gt;&lt;b&gt;BlastP hit with KKHPANEM_02029&lt;/b&gt;&lt;br&gt;Percentage identity: 69&lt;br&gt;Percentage coverage: 100&lt;br&gt;BLAST bit score: 431&lt;br&gt;E-value: 9.55e-152" locus_tag="G3572_RS00605" class="clusterblast-orf" id="dummy-1_h1_5_17"  />
</g>
</svg>
