<svg xmlns="http://www.w3.org/2000/svg" xmlns:xlink="http://www.w3.org/1999/xlink" version="1.1" x="0" y="0" height="230" width="800" viewBox="0 0 800 230" preserveAspectRatio="none"  >
<g label="Query sequence" class="clusterblast-cluster"  >
<text x="5" y="20" class="clusterblast-acc"  >
Query sequence</text>
<line x1="10" y1="35" x2="778.0" y2="35" style="stroke-width:1; stroke:grey; "  />
<polygon points="0,35 5,30 34,30 34,40 5,40 0,35 " style="fill:white; stroke-width:1; stroke:black; " description="&lt;b&gt;ctg40_8&lt;/b&gt;&lt;br&gt;ctg40 8&lt;br&gt;Location: 5908 - 6772" locus_tag="ctg40_8" class="clusterblast-orf" id="dummy-1_q0_0_all"  />
<polygon points="39,40 67,40 72,35 67,30 39,30 39,40 " style="fill:white; stroke-width:1; stroke:black; " description="&lt;b&gt;ctg40_9&lt;/b&gt;&lt;br&gt;ctg40 9&lt;br&gt;Location: 6905 - 7760" locus_tag="ctg40_9" class="clusterblast-orf" id="dummy-1_q1_0_all"  />
<polygon points="76,40 101,40 106,35 101,30 76,30 76,40 " style="fill:white; stroke-width:1; stroke:black; " description="&lt;b&gt;ctg40_10&lt;/b&gt;&lt;br&gt;ctg40 10&lt;br&gt;Location: 7861 - 8635" locus_tag="ctg40_10" class="clusterblast-orf" id="dummy-1_q2_0_all"  />
<polygon points="106,40 117,40 122,35 117,30 106,30 106,40 " style="fill:white; stroke-width:1; stroke:black; " description="&lt;b&gt;ctg40_11&lt;/b&gt;&lt;br&gt;ctg40 11&lt;br&gt;Location: 8631 - 9030" locus_tag="ctg40_11" class="clusterblast-orf" id="dummy-1_q3_0_all"  />
<polygon points="122,35 127,30 140,30 140,40 127,40 122,35 " style="fill:white; stroke-width:1; stroke:black; " description="&lt;b&gt;ctg40_12&lt;/b&gt;&lt;br&gt;ctg40 12&lt;br&gt;Location: 9045 - 9492" locus_tag="ctg40_12" class="clusterblast-orf" id="dummy-1_q4_0_all"  />
<polygon points="143,35 148,30 177,30 177,40 148,40 143,35 " style="fill:#d81515; stroke-width:1; stroke:black; " description="&lt;b&gt;ctg40_13&lt;/b&gt;&lt;br&gt;ctg40 13&lt;br&gt;Location: 9580 - 10453" locus_tag="ctg40_13" class="clusterblast-orf" id="dummy-1_q5_0_all"  />
<polygon points="177,35 182,30 245,30 245,40 182,40 177,35 " style="fill:#63d815; stroke-width:1; stroke:black; " description="&lt;b&gt;ctg40_14&lt;/b&gt;&lt;br&gt;ctg40 14&lt;br&gt;Location: 10456 - 12184" locus_tag="ctg40_14" class="clusterblast-orf" id="dummy-1_q6_0_all"  />
<polygon points="247,35 252,30 286,30 286,40 252,40 247,35 " style="fill:#15b1d8; stroke-width:1; stroke:black; " description="&lt;b&gt;ctg40_15&lt;/b&gt;&lt;br&gt;ctg40 15&lt;br&gt;Location: 12236 - 13238" locus_tag="ctg40_15" class="clusterblast-orf" id="dummy-1_q7_0_all"  />
<polygon points="285,35 290,30 313,30 313,40 290,40 285,35 " style="fill:#b115d8; stroke-width:1; stroke:black; " description="&lt;b&gt;ctg40_16&lt;/b&gt;&lt;br&gt;ctg40 16&lt;br&gt;Location: 13234 - 13939" locus_tag="ctg40_16" class="clusterblast-orf" id="dummy-1_q8_0_all"  />
<polygon points="318,40 373,40 378,35 373,30 318,30 318,40 " style="fill:#d86315; stroke-width:1; stroke:black; " description="&lt;b&gt;ctg40_17&lt;/b&gt;&lt;br&gt;ctg40 17&lt;br&gt;Location: 14073 - 15615" locus_tag="ctg40_17" class="clusterblast-orf" id="dummy-1_q9_0_all"  />
<polygon points="378,40 414,40 419,35 414,30 378,30 378,40 " style="fill:#15d815; stroke-width:1; stroke:black; " description="&lt;b&gt;ctg40_18&lt;/b&gt;&lt;br&gt;ctg40 18&lt;br&gt;Location: 15611 - 16658" locus_tag="ctg40_18" class="clusterblast-orf" id="dummy-1_q10_0_all"  />
<polygon points="424,40 437,40 442,35 437,30 424,30 424,40 " style="fill:#1563d8; stroke-width:1; stroke:black; " description="&lt;b&gt;ctg40_19&lt;/b&gt;&lt;br&gt;ctg40 19&lt;br&gt;Location: 16797 - 17256" locus_tag="ctg40_19" class="clusterblast-orf" id="dummy-1_q11_0_all"  />
<polygon points="442,35 447,30 464,30 464,40 447,40 442,35 " style="fill:#d815b1; stroke-width:1; stroke:black; " description="&lt;b&gt;ctg40_20&lt;/b&gt;&lt;br&gt;ctg40 20&lt;br&gt;Location: 17243 - 17819" locus_tag="ctg40_20" class="clusterblast-orf" id="dummy-1_q12_0_all"  />
<polygon points="464,35 469,30 510,30 510,40 469,40 464,35 " style="fill:#d8b115; stroke-width:1; stroke:black; " description="&lt;b&gt;ctg40_21&lt;/b&gt;&lt;br&gt;ctg40 21&lt;br&gt;Location: 17815 - 18997" locus_tag="ctg40_21" class="clusterblast-orf" id="dummy-1_q13_0_all"  />
<polygon points="510,35 515,30 560,30 560,40 515,40 510,35 " style="fill:#15d863; stroke-width:1; stroke:black; " description="&lt;b&gt;ctg40_22&lt;/b&gt;&lt;br&gt;ctg40 22&lt;br&gt;Location: 19000 - 20272" locus_tag="ctg40_22" class="clusterblast-orf" id="dummy-1_q14_0_all"  />
<polygon points="560,35 565,30 593,30 593,40 565,40 560,35 " style="fill:#1515d8; stroke-width:1; stroke:black; " description="&lt;b&gt;ctg40_23&lt;/b&gt;&lt;br&gt;ctg40 23&lt;br&gt;Location: 20268 - 21117" locus_tag="ctg40_23" class="clusterblast-orf" id="dummy-1_q15_0_all"  />
<polygon points="598,35 603,30 621,30 621,40 603,40 598,35 " style="fill:#d81563; stroke-width:1; stroke:black; " description="&lt;b&gt;ctg40_24&lt;/b&gt;&lt;br&gt;ctg40 24&lt;br&gt;Location: 21248 - 21842" locus_tag="ctg40_24" class="clusterblast-orf" id="dummy-1_q16_0_all"  />
<polygon points="621,35 626,30 687,30 687,40 626,40 621,35 " style="fill:#b1d815; stroke-width:1; stroke:black; " description="&lt;b&gt;ctg40_25&lt;/b&gt;&lt;br&gt;ctg40 25&lt;br&gt;Location: 21847 - 23542" locus_tag="ctg40_25" class="clusterblast-orf" id="dummy-1_q17_0_all"  />
<polygon points="691,35 696,30 747,30 747,40 696,40 691,35 " style="fill:#15d8b1; stroke-width:1; stroke:black; " description="&lt;b&gt;ctg40_26&lt;/b&gt;&lt;br&gt;ctg40 26&lt;br&gt;Location: 23633 - 25061" locus_tag="ctg40_26" class="clusterblast-orf" id="dummy-1_q18_0_all"  />
<polygon points="749,35 754,30 780,30 780,40 754,40 749,35 " style="fill:#6315d8; stroke-width:1; stroke:black; " description="&lt;b&gt;ctg40_27&lt;/b&gt;&lt;br&gt;ctg40 27&lt;br&gt;Location: 25119 - 25917" locus_tag="ctg40_27" class="clusterblast-orf" id="dummy-1_q19_0_all"  />
</g>
<g label="NZ_JACIEJ010000015" description="NZ_JACIEJ010000015 (21148-42186): Sagittula marina strain DSM 102235 Ga037326... (61% of genes show similarity), terpene" class="clusterblast-cluster"  >
<text x="5" y="70" class="clusterblast-acc"  >
<a xlink:href="https://antismash-db.secondarymetabolites.org/area.html?record=NZ_JACIEJ010000015&amp;start=21148&amp;end=42186" target="_blank">NZ_JACIEJ010000015 (21148-42186)</a>: Sagittula marina strain DSM 102235 Ga037326... (61% of genes show similarity), terpene</text>
<line x1="10" y1="85" x2="778.0" y2="85" style="stroke-width:1; stroke:grey; "  />
</g>
<g id="a1_000"  >
<polygon points="6,90 37,90 42,85 37,80 6,80 6,90 " style="fill:#1515d8; stroke-width:1; stroke:black; " description="&lt;b&gt;GGQ68_RS21330&lt;/b&gt;&lt;br&gt;chlorophyll synthase ChlG&lt;br&gt;Location: 21270 - 22181&lt;br&gt;&lt;br&gt;&lt;b&gt;BlastP hit with ctg40_23&lt;/b&gt;&lt;br&gt;Percentage identity: 72&lt;br&gt;Percentage coverage: 99&lt;br&gt;BLAST bit score: 402&lt;br&gt;E-value: 1.37e-140" locus_tag="GGQ68_RS21330" class="clusterblast-orf" id="dummy-1_h1_5_0"  />
</g>
<g id="a1_001"  >
<polygon points="42,90 87,90 92,85 87,80 42,80 42,90 " style="fill:#15d863; stroke-width:1; stroke:black; " description="&lt;b&gt;GGQ68_RS21335&lt;/b&gt;&lt;br&gt;BCD family MFS transporter&lt;br&gt;Location: 22178 - 23467&lt;br&gt;&lt;br&gt;&lt;b&gt;BlastP hit with ctg40_22&lt;/b&gt;&lt;br&gt;Percentage identity: 65&lt;br&gt;Percentage coverage: 102&lt;br&gt;BLAST bit score: 473&lt;br&gt;E-value: 5.32e-164" locus_tag="GGQ68_RS21335" class="clusterblast-orf" id="dummy-1_h1_5_1"  />
</g>
<g id="a1_002"  >
<polygon points="92,90 133,90 138,85 133,80 92,80 92,90 " style="fill:#d8b115; stroke-width:1; stroke:black; " description="&lt;b&gt;GGQ68_RS21340&lt;/b&gt;&lt;br&gt;geranylgeranyl diphosphate reductase&lt;br&gt;Location: 23472 - 24650&lt;br&gt;&lt;br&gt;&lt;b&gt;BlastP hit with ctg40_21&lt;/b&gt;&lt;br&gt;Percentage identity: 75&lt;br&gt;Percentage coverage: 98&lt;br&gt;BLAST bit score: 578&lt;br&gt;E-value: 1.49e-206" locus_tag="GGQ68_RS21340" class="clusterblast-orf" id="dummy-1_h1_5_2"  />
</g>
<g id="a1_003"  >
<polygon points="138,90 153,90 158,85 153,80 138,80 138,90 " style="fill:#d815b1; stroke-width:1; stroke:black; " description="&lt;b&gt;GGQ68_RS21345&lt;/b&gt;&lt;br&gt;isopentenyl-diphosphate Delta-isomerase&lt;br&gt;Location: 24647 - 25162&lt;br&gt;&lt;br&gt;&lt;b&gt;BlastP hit with ctg40_20&lt;/b&gt;&lt;br&gt;Percentage identity: 58&lt;br&gt;Percentage coverage: 89&lt;br&gt;BLAST bit score: 213&lt;br&gt;E-value: 2.09e-69" locus_tag="GGQ68_RS21345" class="clusterblast-orf" id="dummy-1_h1_5_3"  />
</g>
<g id="a1_004"  >
<polygon points="158,85 163,80 192,80 192,90 163,90 158,85 " style="fill:#d81515; stroke-width:1; stroke:black; " description="&lt;b&gt;GGQ68_RS21350&lt;/b&gt;&lt;br&gt;alpha/beta fold hydrolase&lt;br&gt;Location: 25170 - 26048&lt;br&gt;&lt;br&gt;&lt;b&gt;BlastP hit with ctg40_13&lt;/b&gt;&lt;br&gt;Percentage identity: 49&lt;br&gt;Percentage coverage: 99&lt;br&gt;BLAST bit score: 258&lt;br&gt;E-value: 1.03e-83" locus_tag="GGQ68_RS21350" class="clusterblast-orf" id="dummy-1_h1_5_4"  />
</g>
<g id="a1_005"  >
<polygon points="193,85 198,80 259,80 259,90 198,90 193,85 " style="fill:#63d815; stroke-width:1; stroke:black; " description="&lt;b&gt;GGQ68_RS21355&lt;/b&gt;&lt;br&gt;magnesium chelatase subunit D&lt;br&gt;Location: 26053 - 27759&lt;br&gt;&lt;br&gt;&lt;b&gt;BlastP hit with ctg40_14&lt;/b&gt;&lt;br&gt;Percentage identity: 49&lt;br&gt;Percentage coverage: 98&lt;br&gt;BLAST bit score: 430&lt;br&gt;E-value: 6.57e-143" locus_tag="GGQ68_RS21355" class="clusterblast-orf" id="dummy-1_h1_5_5"  />
</g>
<g id="a1_006"  >
<polygon points="259,85 264,80 298,80 298,90 264,90 259,85 " style="fill:#15b1d8; stroke-width:1; stroke:black; " description="&lt;b&gt;GGQ68_RS21360&lt;/b&gt;&lt;br&gt;magnesium chelatase ATPase subunit I&lt;br&gt;Location: 27756 - 28760&lt;br&gt;&lt;br&gt;&lt;b&gt;BlastP hit with ctg40_15&lt;/b&gt;&lt;br&gt;Percentage identity: 79&lt;br&gt;Percentage coverage: 99&lt;br&gt;BLAST bit score: 513&lt;br&gt;E-value: 9.12e-183" locus_tag="GGQ68_RS21360" class="clusterblast-orf" id="dummy-1_h1_5_6"  />
</g>
<g id="a1_007"  >
<polygon points="298,85 303,80 327,80 327,90 303,90 298,85 " style="fill:#b115d8; stroke-width:1; stroke:black; " description="&lt;b&gt;GGQ68_RS21365&lt;/b&gt;&lt;br&gt;spheroidene monooxygenase&lt;br&gt;Location: 28757 - 29500&lt;br&gt;&lt;br&gt;&lt;b&gt;BlastP hit with ctg40_16&lt;/b&gt;&lt;br&gt;Percentage identity: 60&lt;br&gt;Percentage coverage: 100&lt;br&gt;BLAST bit score: 284&lt;br&gt;E-value: 1.47e-95" locus_tag="GGQ68_RS21365" class="clusterblast-orf" id="dummy-1_h1_5_7"  />
</g>
<g id="a1_008"  >
<polygon points="331,90 386,90 391,85 386,80 331,80 331,90 " style="fill:#d86315; stroke-width:1; stroke:black; " description="&lt;b&gt;GGQ68_RS21370&lt;/b&gt;&lt;br&gt;phytoene desaturase&lt;br&gt;Location: 29599 - 31152&lt;br&gt;&lt;br&gt;&lt;b&gt;BlastP hit with ctg40_17&lt;/b&gt;&lt;br&gt;Percentage identity: 71&lt;br&gt;Percentage coverage: 96&lt;br&gt;BLAST bit score: 712&lt;br&gt;E-value: 8.52e-256" locus_tag="GGQ68_RS21370" class="clusterblast-orf" id="dummy-1_h1_5_8"  />
</g>
<g id="a1_009"  >
<polygon points="391,90 427,90 432,85 427,80 391,80 391,90 " style="fill:#15d815; stroke-width:1; stroke:black; " description="&lt;b&gt;GGQ68_RS21375&lt;/b&gt;&lt;br&gt;phytoene/squalene synthase family protein&lt;br&gt;Location: 31149 - 32186&lt;br&gt;&lt;br&gt;&lt;b&gt;BlastP hit with ctg40_18&lt;/b&gt;&lt;br&gt;Percentage identity: 62&lt;br&gt;Percentage coverage: 95&lt;br&gt;BLAST bit score: 369&lt;br&gt;E-value: 8.27e-126" locus_tag="GGQ68_RS21375" class="clusterblast-orf" id="dummy-1_h1_5_9"  />
</g>
<g id="a1_0010"  >
<polygon points="432,90 445,90 450,85 445,80 432,80 432,90 " style="fill:#1563d8; stroke-width:1; stroke:black; " description="&lt;b&gt;GGQ68_RS21380&lt;/b&gt;&lt;br&gt;tryptophan-rich sensory protein&lt;br&gt;Location: 32192 - 32665&lt;br&gt;&lt;br&gt;&lt;b&gt;BlastP hit with ctg40_19&lt;/b&gt;&lt;br&gt;Percentage identity: 55&lt;br&gt;Percentage coverage: 98&lt;br&gt;BLAST bit score: 171&lt;br&gt;E-value: 2.25e-53" locus_tag="GGQ68_RS21380" class="clusterblast-orf" id="dummy-1_h1_5_10"  />
</g>
<g id="a1_0011"  >
<polygon points="451,85 456,80 483,80 483,90 456,90 451,85 " style="fill:white; stroke-width:1; stroke:black; " description="&lt;b&gt;GGQ68_RS21385&lt;/b&gt;&lt;br&gt;carotenoid 1,2-hydratase&lt;br&gt;Location: 32670 - 33509" locus_tag="GGQ68_RS21385" class="clusterblast-orf" id="dummy-1_h1_5_11"  />
</g>
<g id="a1_0012"  >
<polygon points="483,85 488,80 545,80 545,90 488,90 483,85 " style="fill:white; stroke-width:1; stroke:black; " description="&lt;b&gt;GGQ68_RS21390&lt;/b&gt;&lt;br&gt;phytoene desaturase&lt;br&gt;Location: 33497 - 35080" locus_tag="GGQ68_RS21390" class="clusterblast-orf" id="dummy-1_h1_5_12"  />
</g>
<g id="a1_0013"  >
<polygon points="548,90 577,90 582,85 577,80 548,80 548,90 " style="fill:white; stroke-width:1; stroke:black; " description="&lt;b&gt;GGQ68_RS21395&lt;/b&gt;&lt;br&gt;polyprenyl synthetase family protein&lt;br&gt;Location: 35177 - 36046" locus_tag="GGQ68_RS21395" class="clusterblast-orf" id="dummy-1_h1_5_13"  />
</g>
<g id="a1_0014"  >
<polygon points="586,90 621,90 626,85 621,80 586,80 586,90 " style="fill:white; stroke-width:1; stroke:black; " description="&lt;b&gt;GGQ68_RS21400&lt;/b&gt;&lt;br&gt;methyltransferase domain-containing protein&lt;br&gt;Location: 36156 - 37175" locus_tag="GGQ68_RS21400" class="clusterblast-orf" id="dummy-1_h1_5_14"  />
</g>
<g id="a1_0015"  >
<polygon points="631,90 663,90 668,85 663,80 631,80 631,90 " style="fill:white; stroke-width:1; stroke:black; " description="&lt;b&gt;GGQ68_RS21405&lt;/b&gt;&lt;br&gt;chlorophyll synthesis pathway protein BchC&lt;br&gt;Location: 37294 - 38235" locus_tag="GGQ68_RS21405" class="clusterblast-orf" id="dummy-1_h1_5_15"  />
</g>
<g id="a1_0016"  >
<polygon points="667,90 701,90 706,85 701,80 667,80 667,90 " style="fill:white; stroke-width:1; stroke:black; " description="&lt;b&gt;GGQ68_RS21410&lt;/b&gt;&lt;br&gt;chlorophyllide a reductase iron protein subunit X&lt;br&gt;Location: 38232 - 39233" locus_tag="GGQ68_RS21410" class="clusterblast-orf" id="dummy-1_h1_5_16"  />
</g>
<g id="a1_0017"  >
<polygon points="712,90 768,90 773,85 768,80 712,80 712,90 " style="fill:white; stroke-width:1; stroke:black; " description="&lt;b&gt;GGQ68_RS21415&lt;/b&gt;&lt;br&gt;chlorophyllide a reductase subunit Y&lt;br&gt;Location: 39369 - 40937" locus_tag="GGQ68_RS21415" class="clusterblast-orf" id="dummy-1_h1_5_17"  />
</g>
</svg>
