<svg xmlns="http://www.w3.org/2000/svg" xmlns:xlink="http://www.w3.org/1999/xlink" version="1.1" x="0" y="0" height="230" width="800" viewBox="0 0 800 230" preserveAspectRatio="none"  >
<g label="Query sequence" class="clusterblast-cluster"  >
<text x="5" y="20" class="clusterblast-acc"  >
Query sequence</text>
<line x1="10" y1="35" x2="778.0" y2="35" style="stroke-width:1; stroke:grey; "  />
<polygon points="25,35 30,30 39,30 39,40 30,40 25,35 " style="fill:white; stroke-width:1; stroke:black; " description="&lt;b&gt;ctg3_3&lt;/b&gt;&lt;br&gt;ctg3 3&lt;br&gt;Location: 862 - 1777" locus_tag="ctg3_3" class="clusterblast-orf" id="dummy-1_q0_0_all"  />
<polygon points="39,35 44,30 56,30 56,40 44,40 39,35 " style="fill:white; stroke-width:1; stroke:black; " description="&lt;b&gt;ctg3_4&lt;/b&gt;&lt;br&gt;ctg3 4&lt;br&gt;Location: 1773 - 2862" locus_tag="ctg3_4" class="clusterblast-orf" id="dummy-1_q1_0_all"  />
<polygon points="58,35 63,30 72,30 72,40 63,40 58,35 " style="fill:white; stroke-width:1; stroke:black; " description="&lt;b&gt;ctg3_5&lt;/b&gt;&lt;br&gt;ctg3 5&lt;br&gt;Location: 2983 - 3952" locus_tag="ctg3_5" class="clusterblast-orf" id="dummy-1_q2_0_all"  />
<polygon points="73,35 78,30 85,30 85,40 78,40 73,35 " style="fill:white; stroke-width:1; stroke:black; " description="&lt;b&gt;ctg3_6&lt;/b&gt;&lt;br&gt;ctg3 6&lt;br&gt;Location: 4007 - 4760" locus_tag="ctg3_6" class="clusterblast-orf" id="dummy-1_q3_0_all"  />
<polygon points="87,35 92,30 101,30 101,40 92,40 87,35 " style="fill:white; stroke-width:1; stroke:black; " description="&lt;b&gt;ctg3_7&lt;/b&gt;&lt;br&gt;ctg3 7&lt;br&gt;Location: 4877 - 5789" locus_tag="ctg3_7" class="clusterblast-orf" id="dummy-1_q4_0_all"  />
<polygon points="101,40 105,35 101,30 101,40 " style="fill:white; stroke-width:1; stroke:black; " description="&lt;b&gt;ctg3_8&lt;/b&gt;&lt;br&gt;ctg3 8&lt;br&gt;Location: 5823 - 6078" locus_tag="ctg3_8" class="clusterblast-orf" id="dummy-1_q5_0_all"  />
<polygon points="105,35 110,30 111,30 111,40 110,40 105,35 " style="fill:white; stroke-width:1; stroke:black; " description="&lt;b&gt;ctg3_9&lt;/b&gt;&lt;br&gt;ctg3 9&lt;br&gt;Location: 6072 - 6462" locus_tag="ctg3_9" class="clusterblast-orf" id="dummy-1_q6_0_all"  />
<polygon points="111,40 112,40 117,35 112,30 111,30 111,40 " style="fill:white; stroke-width:1; stroke:black; " description="&lt;b&gt;ctg3_10&lt;/b&gt;&lt;br&gt;ctg3 10&lt;br&gt;Location: 6476 - 6866" locus_tag="ctg3_10" class="clusterblast-orf" id="dummy-1_q7_0_all"  />
<polygon points="118,40 119,40 124,35 119,30 118,30 118,40 " style="fill:white; stroke-width:1; stroke:black; " description="&lt;b&gt;ctg3_11&lt;/b&gt;&lt;br&gt;ctg3 11&lt;br&gt;Location: 6905 - 7289" locus_tag="ctg3_11" class="clusterblast-orf" id="dummy-1_q8_0_all"  />
<polygon points="123,35 128,30 149,30 149,40 128,40 123,35 " style="fill:white; stroke-width:1; stroke:black; " description="&lt;b&gt;ctg3_12&lt;/b&gt;&lt;br&gt;ctg3 12&lt;br&gt;Location: 7279 - 8929" locus_tag="ctg3_12" class="clusterblast-orf" id="dummy-1_q9_0_all"  />
<polygon points="152,40 154,40 159,35 154,30 152,30 152,40 " style="fill:white; stroke-width:1; stroke:black; " description="&lt;b&gt;ctg3_13&lt;/b&gt;&lt;br&gt;ctg3 13&lt;br&gt;Location: 9169 - 9568" locus_tag="ctg3_13" class="clusterblast-orf" id="dummy-1_q10_0_all"  />
<polygon points="160,40 176,40 181,35 176,30 160,30 160,40 " style="fill:#d81515; stroke-width:1; stroke:black; " description="&lt;b&gt;ctg3_14&lt;/b&gt;&lt;br&gt;ctg3 14&lt;br&gt;Location: 9658 - 11059" locus_tag="ctg3_14" class="clusterblast-orf" id="dummy-1_q11_0_all"  />
<polygon points="181,40 189,40 194,35 189,30 181,30 181,40 " style="fill:#3cd815; stroke-width:1; stroke:black; " description="&lt;b&gt;ctg3_15&lt;/b&gt;&lt;br&gt;ctg3 15&lt;br&gt;Location: 11055 - 11883" locus_tag="ctg3_15" class="clusterblast-orf" id="dummy-1_q12_0_all"  />
<polygon points="195,35 200,30 232,30 232,40 200,40 195,35 " style="fill:white; stroke-width:1; stroke:black; " description="&lt;b&gt;ctg3_16&lt;/b&gt;&lt;br&gt;ctg3 16&lt;br&gt;Location: 11922 - 14355" locus_tag="ctg3_16" class="clusterblast-orf" id="dummy-1_q13_0_all"  />
<polygon points="234,40 254,40 259,35 254,30 234,30 234,40 " style="fill:white; stroke-width:1; stroke:black; " description="&lt;b&gt;ctg3_17&lt;/b&gt;&lt;br&gt;ctg3 17&lt;br&gt;Location: 14501 - 16124" locus_tag="ctg3_17" class="clusterblast-orf" id="dummy-1_q14_0_all"  />
<polygon points="259,40 262,35 259,30 259,40 " style="fill:white; stroke-width:1; stroke:black; " description="&lt;b&gt;ctg3_18&lt;/b&gt;&lt;br&gt;ctg3 18&lt;br&gt;Location: 16116 - 16320" locus_tag="ctg3_18" class="clusterblast-orf" id="dummy-1_q15_0_all"  />
<polygon points="264,40 273,40 278,35 273,30 264,30 264,40 " style="fill:#1563d8; stroke-width:1; stroke:black; " description="&lt;b&gt;ctg3_19&lt;/b&gt;&lt;br&gt;ctg3 19&lt;br&gt;Location: 16473 - 17364" locus_tag="ctg3_19" class="clusterblast-orf" id="dummy-1_q16_0_all"  />
<polygon points="278,40 294,40 299,35 294,30 278,30 278,40 " style="fill:#b115d8; stroke-width:1; stroke:black; " description="&lt;b&gt;ctg3_20&lt;/b&gt;&lt;br&gt;ctg3 20&lt;br&gt;Location: 17379 - 18744" locus_tag="ctg3_20" class="clusterblast-orf" id="dummy-1_q17_0_all"  />
<polygon points="299,40 317,40 322,35 317,30 299,30 299,40 " style="fill:#d88a15; stroke-width:1; stroke:black; " description="&lt;b&gt;ctg3_21&lt;/b&gt;&lt;br&gt;ctg3 21&lt;br&gt;Location: 18754 - 20263" locus_tag="ctg3_21" class="clusterblast-orf" id="dummy-1_q18_0_all"  />
<polygon points="322,40 414,40 419,35 414,30 322,30 322,40 " style="fill:#15d863; stroke-width:1; stroke:black; " description="&lt;b&gt;ctg3_22&lt;/b&gt;&lt;br&gt;ctg3 22&lt;br&gt;Location: 20259 - 26601" locus_tag="ctg3_22" class="clusterblast-orf" id="dummy-1_q19_0_all"  />
<polygon points="419,40 428,40 433,35 428,30 419,30 419,40 " style="fill:white; stroke-width:1; stroke:black; " description="&lt;b&gt;ctg3_23&lt;/b&gt;&lt;br&gt;ctg3 23&lt;br&gt;Location: 26597 - 27521" locus_tag="ctg3_23" class="clusterblast-orf" id="dummy-1_q20_0_all"  />
<polygon points="433,40 444,40 449,35 444,30 433,30 433,40 " style="fill:#3c15d8; stroke-width:1; stroke:black; " description="&lt;b&gt;ctg3_24&lt;/b&gt;&lt;br&gt;ctg3 24&lt;br&gt;Location: 27517 - 28504" locus_tag="ctg3_24" class="clusterblast-orf" id="dummy-1_q21_0_all"  />
<polygon points="449,40 513,40 518,35 513,30 449,30 449,40 " style="fill:#d8158a; stroke-width:1; stroke:black; " description="&lt;b&gt;ctg3_25&lt;/b&gt;&lt;br&gt;ctg3 25&lt;br&gt;Location: 28513 - 33043" locus_tag="ctg3_25" class="clusterblast-orf" id="dummy-1_q22_0_all"  />
<polygon points="518,40 524,40 529,35 524,30 518,30 518,40 " style="fill:#b1d815; stroke-width:1; stroke:black; " description="&lt;b&gt;ctg3_26&lt;/b&gt;&lt;br&gt;ctg3 26&lt;br&gt;Location: 33039 - 33741" locus_tag="ctg3_26" class="clusterblast-orf" id="dummy-1_q23_0_all"  />
<polygon points="532,40 532,40 537,35 532,30 532,30 532,40 " style="fill:white; stroke-width:1; stroke:black; " description="&lt;b&gt;ctg3_27&lt;/b&gt;&lt;br&gt;ctg3 27&lt;br&gt;Location: 33951 - 34263" locus_tag="ctg3_27" class="clusterblast-orf" id="dummy-1_q24_0_all"  />
<polygon points="538,35 543,30 561,30 561,40 543,40 538,35 " style="fill:white; stroke-width:1; stroke:black; " description="&lt;b&gt;ctg3_28&lt;/b&gt;&lt;br&gt;ctg3 28&lt;br&gt;Location: 34329 - 35823" locus_tag="ctg3_28" class="clusterblast-orf" id="dummy-1_q25_0_all"  />
<polygon points="563,40 579,40 584,35 579,30 563,30 563,40 " style="fill:white; stroke-width:1; stroke:black; " description="&lt;b&gt;ctg3_29&lt;/b&gt;&lt;br&gt;ctg3 29&lt;br&gt;Location: 36011 - 37352" locus_tag="ctg3_29" class="clusterblast-orf" id="dummy-1_q26_0_all"  />
<polygon points="586,35 591,30 600,30 600,40 591,40 586,35 " style="fill:white; stroke-width:1; stroke:black; " description="&lt;b&gt;ctg3_30&lt;/b&gt;&lt;br&gt;ctg3 30&lt;br&gt;Location: 37471 - 38425" locus_tag="ctg3_30" class="clusterblast-orf" id="dummy-1_q27_0_all"  />
<polygon points="604,40 608,35 604,30 604,40 " style="fill:#15d8d8; stroke-width:1; stroke:black; " description="&lt;b&gt;ctg3_31&lt;/b&gt;&lt;br&gt;ctg3 31&lt;br&gt;Location: 38675 - 38945" locus_tag="ctg3_31" class="clusterblast-orf" id="dummy-1_q28_0_all"  />
<polygon points="611,40 622,40 627,35 622,30 611,30 611,40 " style="fill:white; stroke-width:1; stroke:black; " description="&lt;b&gt;ctg3_32&lt;/b&gt;&lt;br&gt;ctg3 32&lt;br&gt;Location: 39110 - 40133" locus_tag="ctg3_32" class="clusterblast-orf" id="dummy-1_q29_0_all"  />
<polygon points="628,40 632,35 628,30 628,40 " style="fill:white; stroke-width:1; stroke:black; " description="&lt;b&gt;ctg3_33&lt;/b&gt;&lt;br&gt;ctg3 33&lt;br&gt;Location: 40228 - 40516" locus_tag="ctg3_33" class="clusterblast-orf" id="dummy-1_q30_0_all"  />
<polygon points="638,40 655,40 660,35 655,30 638,30 638,40 " style="fill:white; stroke-width:1; stroke:black; " description="&lt;b&gt;ctg3_34&lt;/b&gt;&lt;br&gt;ctg3 34&lt;br&gt;Location: 40908 - 42303" locus_tag="ctg3_34" class="clusterblast-orf" id="dummy-1_q31_0_all"  />
<polygon points="660,35 665,30 675,30 675,40 665,40 660,35 " style="fill:white; stroke-width:1; stroke:black; " description="&lt;b&gt;ctg3_35&lt;/b&gt;&lt;br&gt;ctg3 35&lt;br&gt;Location: 42299 - 43268" locus_tag="ctg3_35" class="clusterblast-orf" id="dummy-1_q32_0_all"  />
<polygon points="675,35 680,30 689,30 689,40 680,40 675,35 " style="fill:white; stroke-width:1; stroke:black; " description="&lt;b&gt;ctg3_36&lt;/b&gt;&lt;br&gt;ctg3 36&lt;br&gt;Location: 43271 - 44198" locus_tag="ctg3_36" class="clusterblast-orf" id="dummy-1_q33_0_all"  />
<polygon points="689,35 694,30 701,30 701,40 694,40 689,35 " style="fill:white; stroke-width:1; stroke:black; " description="&lt;b&gt;ctg3_37&lt;/b&gt;&lt;br&gt;ctg3 37&lt;br&gt;Location: 44209 - 45004" locus_tag="ctg3_37" class="clusterblast-orf" id="dummy-1_q34_0_all"  />
<polygon points="701,35 706,30 710,30 710,40 706,40 701,35 " style="fill:white; stroke-width:1; stroke:black; " description="&lt;b&gt;ctg3_38&lt;/b&gt;&lt;br&gt;ctg3 38&lt;br&gt;Location: 45000 - 45609" locus_tag="ctg3_38" class="clusterblast-orf" id="dummy-1_q35_0_all"  />
<polygon points="711,40 714,40 719,35 714,30 711,30 711,40 " style="fill:white; stroke-width:1; stroke:black; " description="&lt;b&gt;ctg3_39&lt;/b&gt;&lt;br&gt;ctg3 39&lt;br&gt;Location: 45629 - 46136" locus_tag="ctg3_39" class="clusterblast-orf" id="dummy-1_q36_0_all"  />
<polygon points="718,40 729,40 734,35 729,30 718,30 718,40 " style="fill:white; stroke-width:1; stroke:black; " description="&lt;b&gt;ctg3_40&lt;/b&gt;&lt;br&gt;ctg3 40&lt;br&gt;Location: 46132 - 47155" locus_tag="ctg3_40" class="clusterblast-orf" id="dummy-1_q37_0_all"  />
<polygon points="734,40 741,40 746,35 741,30 734,30 734,40 " style="fill:white; stroke-width:1; stroke:black; " description="&lt;b&gt;ctg3_41&lt;/b&gt;&lt;br&gt;ctg3 41&lt;br&gt;Location: 47160 - 47904" locus_tag="ctg3_41" class="clusterblast-orf" id="dummy-1_q38_0_all"  />
<polygon points="746,40 749,40 754,35 749,30 746,30 746,40 " style="fill:white; stroke-width:1; stroke:black; " description="&lt;b&gt;ctg3_42&lt;/b&gt;&lt;br&gt;ctg3 42&lt;br&gt;Location: 47940 - 48459" locus_tag="ctg3_42" class="clusterblast-orf" id="dummy-1_q39_0_all"  />
</g>
<g label="NZ_CP015124" description="NZ_CP015124 (3864180-3916338): Phaeobacter gallaeciensis strain JL2886, compl... (20% of genes show similarity), NRPS-like,T1PKS" class="clusterblast-cluster"  >
<text x="5" y="70" class="clusterblast-acc"  >
<a xlink:href="https://antismash-db.secondarymetabolites.org/area.html?record=NZ_CP015124&amp;start=3864180&amp;end=3916338" target="_blank">NZ_CP015124 (3864180-3916338)</a>: Phaeobacter gallaeciensis strain JL2886, compl... (20% of genes show similarity), NRPS-like,T1PKS</text>
<line x1="10" y1="85" x2="778.0" y2="85" style="stroke-width:1; stroke:grey; "  />
</g>
<g id="a1_000"  >
<polygon points="0,90 7,90 12,85 7,80 0,80 0,90 " style="fill:white; stroke-width:1; stroke:black; " description="&lt;b&gt;JL2886_RS18435&lt;/b&gt;&lt;br&gt;(S)-ureidoglycine aminohydrolase&lt;br&gt;Location: 3915859 - 3915029" locus_tag="JL2886_RS18435" class="clusterblast-orf" id="dummy-1_h1_7_0"  />
</g>
<g id="a1_001"  >
<polygon points="15,90 15,90 20,85 15,80 15,80 15,90 " style="fill:white; stroke-width:1; stroke:black; " description="&lt;b&gt;JL2886_RS18430&lt;/b&gt;&lt;br&gt;hypothetical protein&lt;br&gt;Location: 3914831 - 3914541" locus_tag="JL2886_RS18430" class="clusterblast-orf" id="dummy-1_h1_7_1"  />
</g>
<g id="a1_002"  >
<polygon points="22,90 32,90 37,85 32,80 22,80 22,90 " style="fill:white; stroke-width:1; stroke:black; " description="&lt;b&gt;JL2886_RS18425&lt;/b&gt;&lt;br&gt;glyceraldehyde-3-phosphate dehydrogenase&lt;br&gt;Location: 3914419 - 3913433" locus_tag="JL2886_RS18425" class="clusterblast-orf" id="dummy-1_h1_7_2"  />
</g>
<g id="a1_003"  >
<polygon points="41,85 46,80 63,80 63,90 46,90 41,85 " style="fill:white; stroke-width:1; stroke:black; " description="&lt;b&gt;JL2886_RS18420&lt;/b&gt;&lt;br&gt;purine permease&lt;br&gt;Location: 3913155 - 3911728" locus_tag="JL2886_RS18420" class="clusterblast-orf" id="dummy-1_h1_7_3"  />
</g>
<g id="a1_004"  >
<polygon points="64,85 69,80 72,80 72,90 69,90 64,85 " style="fill:white; stroke-width:1; stroke:black; " description="&lt;b&gt;JL2886_RS18415&lt;/b&gt;&lt;br&gt;ureidoglycolate lyase&lt;br&gt;Location: 3911640 - 3911152" locus_tag="JL2886_RS18415" class="clusterblast-orf" id="dummy-1_h1_7_4"  />
</g>
<g id="a1_005"  >
<polygon points="72,85 77,80 93,80 93,90 77,90 72,85 " style="fill:white; stroke-width:1; stroke:black; " description="&lt;b&gt;JL2886_RS18410&lt;/b&gt;&lt;br&gt;allantoinase PuuE&lt;br&gt;Location: 3911155 - 3909740" locus_tag="JL2886_RS18410" class="clusterblast-orf" id="dummy-1_h1_7_5"  />
</g>
<g id="a1_006"  >
<polygon points="96,90 96,90 101,85 96,80 96,80 96,90 " style="fill:white; stroke-width:1; stroke:black; " description="&lt;b&gt;JL2886_RS18405&lt;/b&gt;&lt;br&gt;hydroxyisourate hydrolase&lt;br&gt;Location: 3909557 - 3909201" locus_tag="JL2886_RS18405" class="clusterblast-orf" id="dummy-1_h1_7_6"  />
</g>
<g id="a1_007"  >
<polygon points="102,85 107,80 116,80 116,90 107,90 102,85 " style="fill:white; stroke-width:1; stroke:black; " description="&lt;b&gt;JL2886_RS18400&lt;/b&gt;&lt;br&gt;LysR family transcriptional regulator&lt;br&gt;Location: 3909188 - 3908253" locus_tag="JL2886_RS18400" class="clusterblast-orf" id="dummy-1_h1_7_7"  />
</g>
<g id="a1_008"  >
<polygon points="118,90 132,90 137,85 132,80 118,80 118,90 " style="fill:white; stroke-width:1; stroke:black; " description="&lt;b&gt;JL2886_RS18395&lt;/b&gt;&lt;br&gt;urate hydroxylase PuuD&lt;br&gt;Location: 3908113 - 3906884" locus_tag="JL2886_RS18395" class="clusterblast-orf" id="dummy-1_h1_7_8"  />
</g>
<g id="a1_009"  >
<polygon points="140,90 162,90 167,85 162,80 140,80 140,90 " style="fill:white; stroke-width:1; stroke:black; " description="&lt;b&gt;JL2886_RS18390&lt;/b&gt;&lt;br&gt;BamA/TamA family outer membrane protein&lt;br&gt;Location: 3906716 - 3904905" locus_tag="JL2886_RS18390" class="clusterblast-orf" id="dummy-1_h1_7_9"  />
</g>
<g id="a1_0010"  >
<polygon points="169,90 216,90 221,85 216,80 169,80 169,90 " style="fill:white; stroke-width:1; stroke:black; " description="&lt;b&gt;JL2886_RS18385&lt;/b&gt;&lt;br&gt;translocation/assembly module TamB domain-containing protein&lt;br&gt;Location: 3904797 - 3901426" locus_tag="JL2886_RS18385" class="clusterblast-orf" id="dummy-1_h1_7_10"  />
</g>
<g id="a1_0011"  >
<polygon points="221,85 226,80 236,80 236,90 226,90 221,85 " style="fill:white; stroke-width:1; stroke:black; " description="&lt;b&gt;JL2886_RS18380&lt;/b&gt;&lt;br&gt;glucokinase&lt;br&gt;Location: 3901371 - 3900403" locus_tag="JL2886_RS18380" class="clusterblast-orf" id="dummy-1_h1_7_11"  />
</g>
<g id="a1_0012"  >
<polygon points="239,90 250,90 255,85 250,80 239,80 239,90 " style="fill:white; stroke-width:1; stroke:black; " description="&lt;b&gt;JL2886_RS18375&lt;/b&gt;&lt;br&gt;glycosyltransferase family 2 protein&lt;br&gt;Location: 3900220 - 3899153" locus_tag="JL2886_RS18375" class="clusterblast-orf" id="dummy-1_h1_7_12"  />
</g>
<g id="a1_0013"  >
<polygon points="255,85 260,80 267,80 267,90 260,90 255,85 " style="fill:white; stroke-width:1; stroke:black; " description="&lt;b&gt;JL2886_RS18370&lt;/b&gt;&lt;br&gt;WecB/TagA/CpsF family glycosyltransferase&lt;br&gt;Location: 3899156 - 3898404" locus_tag="JL2886_RS18370" class="clusterblast-orf" id="dummy-1_h1_7_13"  />
</g>
<g id="a1_0014"  >
<polygon points="271,90 288,90 293,85 288,80 271,80 271,90 " style="fill:#d88a15; stroke-width:1; stroke:black; " description="&lt;b&gt;JL2886_RS18365&lt;/b&gt;&lt;br&gt;hypothetical protein&lt;br&gt;Location: 3898146 - 3896683&lt;br&gt;&lt;br&gt;&lt;b&gt;BlastP hit with ctg3_21&lt;/b&gt;&lt;br&gt;Percentage identity: 47&lt;br&gt;Percentage coverage: 92&lt;br&gt;BLAST bit score: 401&lt;br&gt;E-value: 5.95e-134" locus_tag="JL2886_RS18365" class="clusterblast-orf" id="dummy-1_h1_7_14"  />
</g>
<g id="a1_0015"  >
<polygon points="298,90 394,90 399,85 394,80 298,80 298,90 " style="fill:#15d863; stroke-width:1; stroke:black; " description="&lt;b&gt;JL2886_RS18360&lt;/b&gt;&lt;br&gt;type I polyketide synthase&lt;br&gt;Location: 3896338 - 3889805&lt;br&gt;&lt;br&gt;&lt;b&gt;BlastP hit with ctg3_22&lt;/b&gt;&lt;br&gt;Percentage identity: 60&lt;br&gt;Percentage coverage: 102&lt;br&gt;BLAST bit score: 2459&lt;br&gt;E-value: 0.0" locus_tag="JL2886_RS18360" class="clusterblast-orf" id="dummy-1_h1_7_15"  />
</g>
<g id="a1_0016"  >
<polygon points="399,90 409,90 414,85 409,80 399,80 399,90 " style="fill:#3c15d8; stroke-width:1; stroke:black; " description="&lt;b&gt;JL2886_RS18355&lt;/b&gt;&lt;br&gt;glycosyltransferase family 2 protein&lt;br&gt;Location: 3889798 - 3888767&lt;br&gt;&lt;br&gt;&lt;b&gt;BlastP hit with ctg3_24&lt;/b&gt;&lt;br&gt;Percentage identity: 53&lt;br&gt;Percentage coverage: 95&lt;br&gt;BLAST bit score: 319&lt;br&gt;E-value: 2.63e-106" locus_tag="JL2886_RS18355" class="clusterblast-orf" id="dummy-1_h1_7_16"  />
</g>
<g id="a1_0017"  >
<polygon points="414,90 480,90 485,85 480,80 414,80 414,90 " style="fill:#d8158a; stroke-width:1; stroke:black; " description="&lt;b&gt;JL2886_RS18350&lt;/b&gt;&lt;br&gt;LLM class flavin-dependent oxidoreductase&lt;br&gt;Location: 3888770 - 3884181&lt;br&gt;&lt;br&gt;&lt;b&gt;BlastP hit with ctg3_25&lt;/b&gt;&lt;br&gt;Percentage identity: 53&lt;br&gt;Percentage coverage: 103&lt;br&gt;BLAST bit score: 1493&lt;br&gt;E-value: 0.0" locus_tag="JL2886_RS18350" class="clusterblast-orf" id="dummy-1_h1_7_17"  />
</g>
<g id="a1_0018"  >
<polygon points="485,90 491,90 496,85 491,80 485,80 485,90 " style="fill:#b1d815; stroke-width:1; stroke:black; " description="&lt;b&gt;JL2886_RS18345&lt;/b&gt;&lt;br&gt;4'-phosphopantetheinyl transferase superfamily protein&lt;br&gt;Location: 3884184 - 3883465&lt;br&gt;&lt;br&gt;&lt;b&gt;BlastP hit with ctg3_26&lt;/b&gt;&lt;br&gt;Percentage identity: 39&lt;br&gt;Percentage coverage: 95&lt;br&gt;BLAST bit score: 140&lt;br&gt;E-value: 5.07e-39" locus_tag="JL2886_RS18345" class="clusterblast-orf" id="dummy-1_h1_7_18"  />
</g>
<g id="a1_0019"  >
<polygon points="496,90 505,90 510,85 505,80 496,80 496,90 " style="fill:white; stroke-width:1; stroke:black; " description="&lt;b&gt;JL2886_RS18340&lt;/b&gt;&lt;br&gt;hypothetical protein&lt;br&gt;Location: 3883461 - 3882529" locus_tag="JL2886_RS18340" class="clusterblast-orf" id="dummy-1_h1_7_19"  />
</g>
<g id="a1_0020"  >
<polygon points="510,90 543,90 548,85 543,80 510,80 510,90 " style="fill:white; stroke-width:1; stroke:black; " description="&lt;b&gt;JL2886_RS18335&lt;/b&gt;&lt;br&gt;hypothetical protein&lt;br&gt;Location: 3882532 - 3880013" locus_tag="JL2886_RS18335" class="clusterblast-orf" id="dummy-1_h1_7_20"  />
</g>
<g id="a1_0021"  >
<polygon points="548,90 556,90 561,85 556,80 548,80 548,90 " style="fill:white; stroke-width:1; stroke:black; " description="&lt;b&gt;JL2886_RS18330&lt;/b&gt;&lt;br&gt;glycosyltransferase family 2 protein&lt;br&gt;Location: 3880016 - 3879186" locus_tag="JL2886_RS18330" class="clusterblast-orf" id="dummy-1_h1_7_21"  />
</g>
<g id="a1_0022"  >
<polygon points="566,90 582,90 587,85 582,80 566,80 566,90 " style="fill:white; stroke-width:1; stroke:black; " description="&lt;b&gt;JL2886_RS18325&lt;/b&gt;&lt;br&gt;oligosaccharide flippase family protein&lt;br&gt;Location: 3878890 - 3877523" locus_tag="JL2886_RS18325" class="clusterblast-orf" id="dummy-1_h1_7_22"  />
</g>
<g id="a1_0023"  >
<polygon points="588,85 593,80 607,80 607,90 593,90 588,85 " style="fill:#b115d8; stroke-width:1; stroke:black; " description="&lt;b&gt;JL2886_RS18320&lt;/b&gt;&lt;br&gt;DUF874 domain-containing protein&lt;br&gt;Location: 3877429 - 3876185&lt;br&gt;&lt;br&gt;&lt;b&gt;BlastP hit with ctg3_20&lt;/b&gt;&lt;br&gt;Percentage identity: 31&lt;br&gt;Percentage coverage: 95&lt;br&gt;BLAST bit score: 177&lt;br&gt;E-value: 7.31e-49" locus_tag="JL2886_RS18320" class="clusterblast-orf" id="dummy-1_h1_7_23"  />
</g>
<g id="a1_0024"  >
<polygon points="609,85 614,80 622,80 622,90 614,90 609,85 " style="fill:#1563d8; stroke-width:1; stroke:black; " description="&lt;b&gt;JL2886_RS18315&lt;/b&gt;&lt;br&gt;CpsD/CapB family tyrosine-protein kinase&lt;br&gt;Location: 3876073 - 3875210&lt;br&gt;&lt;br&gt;&lt;b&gt;BlastP hit with ctg3_19&lt;/b&gt;&lt;br&gt;Percentage identity: 40&lt;br&gt;Percentage coverage: 65&lt;br&gt;BLAST bit score: 132&lt;br&gt;E-value: 9.46e-35" locus_tag="JL2886_RS18315" class="clusterblast-orf" id="dummy-1_h1_7_24"  />
</g>
<g id="a1_0025"  >
<polygon points="625,85 630,80 636,80 636,90 630,90 625,85 " style="fill:white; stroke-width:1; stroke:black; " description="&lt;b&gt;JL2886_RS18310&lt;/b&gt;&lt;br&gt;sugar transferase&lt;br&gt;Location: 3875016 - 3874312" locus_tag="JL2886_RS18310" class="clusterblast-orf" id="dummy-1_h1_7_25"  />
</g>
<g id="a1_0026"  >
<polygon points="644,85 649,80 663,80 663,90 649,90 644,85 " style="fill:white; stroke-width:1; stroke:black; " description="&lt;b&gt;JL2886_RS18305&lt;/b&gt;&lt;br&gt;AraC family transcriptional regulator&lt;br&gt;Location: 3873746 - 3872559" locus_tag="JL2886_RS18305" class="clusterblast-orf" id="dummy-1_h1_7_26"  />
</g>
<g id="a1_0027"  >
<polygon points="667,90 676,90 681,85 676,80 667,80 667,90 " style="fill:white; stroke-width:1; stroke:black; " description="&lt;b&gt;JL2886_RS18300&lt;/b&gt;&lt;br&gt;2-dehydro-3-deoxygalactonokinase&lt;br&gt;Location: 3872254 - 3871358" locus_tag="JL2886_RS18300" class="clusterblast-orf" id="dummy-1_h1_7_27"  />
</g>
<g id="a1_0028"  >
<polygon points="682,85 687,80 694,80 694,90 687,90 682,85 " style="fill:white; stroke-width:1; stroke:black; " description="&lt;b&gt;JL2886_RS18295&lt;/b&gt;&lt;br&gt;TIGR03084 family protein&lt;br&gt;Location: 3871293 - 3870499" locus_tag="JL2886_RS18295" class="clusterblast-orf" id="dummy-1_h1_7_28"  />
</g>
<g id="a1_0029"  >
<polygon points="694,90 701,90 706,85 701,80 694,80 694,90 " style="fill:white; stroke-width:1; stroke:black; " description="&lt;b&gt;JL2886_RS18290&lt;/b&gt;&lt;br&gt;TetR/AcrR family transcriptional regulator&lt;br&gt;Location: 3870496 - 3869726" locus_tag="JL2886_RS18290" class="clusterblast-orf" id="dummy-1_h1_7_29"  />
</g>
<g id="a1_0030"  >
<polygon points="706,90 719,90 724,85 719,80 706,80 706,90 " style="fill:white; stroke-width:1; stroke:black; " description="&lt;b&gt;JL2886_RS18285&lt;/b&gt;&lt;br&gt;acyl-CoA dehydrogenase family protein&lt;br&gt;Location: 3869720 - 3868578" locus_tag="JL2886_RS18285" class="clusterblast-orf" id="dummy-1_h1_7_30"  />
</g>
<g id="a1_0031"  >
<polygon points="724,85 729,80 739,80 739,90 729,90 724,85 " style="fill:white; stroke-width:1; stroke:black; " description="&lt;b&gt;JL2886_RS18280&lt;/b&gt;&lt;br&gt;hypothetical protein&lt;br&gt;Location: 3868562 - 3867555" locus_tag="JL2886_RS18280" class="clusterblast-orf" id="dummy-1_h1_7_31"  />
</g>
<g id="a1_0032"  >
<polygon points="744,90 759,90 764,85 759,80 744,80 744,90 " style="fill:white; stroke-width:1; stroke:black; " description="&lt;b&gt;JL2886_RS18275&lt;/b&gt;&lt;br&gt;hypothetical protein&lt;br&gt;Location: 3867226 - 3865922" locus_tag="JL2886_RS18275" class="clusterblast-orf" id="dummy-1_h1_7_32"  />
</g>
<g id="a1_0033"  >
<polygon points="768,90 775,90 780,85 775,80 768,80 768,90 " style="fill:white; stroke-width:1; stroke:black; " description="&lt;b&gt;JL2886_RS18270&lt;/b&gt;&lt;br&gt;EAL domain-containing protein&lt;br&gt;Location: 3865654 - 3864929" locus_tag="JL2886_RS18270" class="clusterblast-orf" id="dummy-1_h1_7_33"  />
</g>
</svg>
