<svg xmlns="http://www.w3.org/2000/svg" xmlns:xlink="http://www.w3.org/1999/xlink" version="1.1" x="0" y="0" height="230" width="800" viewBox="0 0 800 230" preserveAspectRatio="none"  >
<g label="Query sequence" class="clusterblast-cluster"  >
<text x="5" y="20" class="clusterblast-acc"  >
Query sequence</text>
<line x1="10" y1="35" x2="778.0" y2="35" style="stroke-width:1; stroke:grey; "  />
<polygon points="18,35 23,30 32,30 32,40 23,40 18,35 " style="fill:white; stroke-width:1; stroke:black; " description="&lt;b&gt;ctg3_3&lt;/b&gt;&lt;br&gt;ctg3 3&lt;br&gt;Location: 862 - 1777" locus_tag="ctg3_3" class="clusterblast-orf" id="dummy-1_q0_0_all"  />
<polygon points="32,35 37,30 49,30 49,40 37,40 32,35 " style="fill:white; stroke-width:1; stroke:black; " description="&lt;b&gt;ctg3_4&lt;/b&gt;&lt;br&gt;ctg3 4&lt;br&gt;Location: 1773 - 2862" locus_tag="ctg3_4" class="clusterblast-orf" id="dummy-1_q1_0_all"  />
<polygon points="51,35 56,30 66,30 66,40 56,40 51,35 " style="fill:white; stroke-width:1; stroke:black; " description="&lt;b&gt;ctg3_5&lt;/b&gt;&lt;br&gt;ctg3 5&lt;br&gt;Location: 2983 - 3952" locus_tag="ctg3_5" class="clusterblast-orf" id="dummy-1_q2_0_all"  />
<polygon points="67,35 72,30 79,30 79,40 72,40 67,35 " style="fill:white; stroke-width:1; stroke:black; " description="&lt;b&gt;ctg3_6&lt;/b&gt;&lt;br&gt;ctg3 6&lt;br&gt;Location: 4007 - 4760" locus_tag="ctg3_6" class="clusterblast-orf" id="dummy-1_q3_0_all"  />
<polygon points="81,35 86,30 95,30 95,40 86,40 81,35 " style="fill:white; stroke-width:1; stroke:black; " description="&lt;b&gt;ctg3_7&lt;/b&gt;&lt;br&gt;ctg3 7&lt;br&gt;Location: 4877 - 5789" locus_tag="ctg3_7" class="clusterblast-orf" id="dummy-1_q4_0_all"  />
<polygon points="96,40 99,35 96,30 96,40 " style="fill:white; stroke-width:1; stroke:black; " description="&lt;b&gt;ctg3_8&lt;/b&gt;&lt;br&gt;ctg3 8&lt;br&gt;Location: 5823 - 6078" locus_tag="ctg3_8" class="clusterblast-orf" id="dummy-1_q5_0_all"  />
<polygon points="99,35 104,30 105,30 105,40 104,40 99,35 " style="fill:white; stroke-width:1; stroke:black; " description="&lt;b&gt;ctg3_9&lt;/b&gt;&lt;br&gt;ctg3 9&lt;br&gt;Location: 6072 - 6462" locus_tag="ctg3_9" class="clusterblast-orf" id="dummy-1_q6_0_all"  />
<polygon points="106,40 107,40 112,35 107,30 106,30 106,40 " style="fill:white; stroke-width:1; stroke:black; " description="&lt;b&gt;ctg3_10&lt;/b&gt;&lt;br&gt;ctg3 10&lt;br&gt;Location: 6476 - 6866" locus_tag="ctg3_10" class="clusterblast-orf" id="dummy-1_q7_0_all"  />
<polygon points="112,40 113,40 118,35 113,30 112,30 112,40 " style="fill:white; stroke-width:1; stroke:black; " description="&lt;b&gt;ctg3_11&lt;/b&gt;&lt;br&gt;ctg3 11&lt;br&gt;Location: 6905 - 7289" locus_tag="ctg3_11" class="clusterblast-orf" id="dummy-1_q8_0_all"  />
<polygon points="118,35 123,30 144,30 144,40 123,40 118,35 " style="fill:white; stroke-width:1; stroke:black; " description="&lt;b&gt;ctg3_12&lt;/b&gt;&lt;br&gt;ctg3 12&lt;br&gt;Location: 7279 - 8929" locus_tag="ctg3_12" class="clusterblast-orf" id="dummy-1_q9_0_all"  />
<polygon points="148,40 149,40 154,35 149,30 148,30 148,40 " style="fill:white; stroke-width:1; stroke:black; " description="&lt;b&gt;ctg3_13&lt;/b&gt;&lt;br&gt;ctg3 13&lt;br&gt;Location: 9169 - 9568" locus_tag="ctg3_13" class="clusterblast-orf" id="dummy-1_q10_0_all"  />
<polygon points="155,40 172,40 177,35 172,30 155,30 155,40 " style="fill:#d81515; stroke-width:1; stroke:black; " description="&lt;b&gt;ctg3_14&lt;/b&gt;&lt;br&gt;ctg3 14&lt;br&gt;Location: 9658 - 11059" locus_tag="ctg3_14" class="clusterblast-orf" id="dummy-1_q11_0_all"  />
<polygon points="177,40 185,40 190,35 185,30 177,30 177,40 " style="fill:#3cd815; stroke-width:1; stroke:black; " description="&lt;b&gt;ctg3_15&lt;/b&gt;&lt;br&gt;ctg3 15&lt;br&gt;Location: 11055 - 11883" locus_tag="ctg3_15" class="clusterblast-orf" id="dummy-1_q12_0_all"  />
<polygon points="191,35 196,30 229,30 229,40 196,40 191,35 " style="fill:white; stroke-width:1; stroke:black; " description="&lt;b&gt;ctg3_16&lt;/b&gt;&lt;br&gt;ctg3 16&lt;br&gt;Location: 11922 - 14355" locus_tag="ctg3_16" class="clusterblast-orf" id="dummy-1_q13_0_all"  />
<polygon points="231,40 251,40 256,35 251,30 231,30 231,40 " style="fill:white; stroke-width:1; stroke:black; " description="&lt;b&gt;ctg3_17&lt;/b&gt;&lt;br&gt;ctg3 17&lt;br&gt;Location: 14501 - 16124" locus_tag="ctg3_17" class="clusterblast-orf" id="dummy-1_q14_0_all"  />
<polygon points="256,40 259,35 256,30 256,40 " style="fill:white; stroke-width:1; stroke:black; " description="&lt;b&gt;ctg3_18&lt;/b&gt;&lt;br&gt;ctg3 18&lt;br&gt;Location: 16116 - 16320" locus_tag="ctg3_18" class="clusterblast-orf" id="dummy-1_q15_0_all"  />
<polygon points="262,40 271,40 276,35 271,30 262,30 262,40 " style="fill:#1563d8; stroke-width:1; stroke:black; " description="&lt;b&gt;ctg3_19&lt;/b&gt;&lt;br&gt;ctg3 19&lt;br&gt;Location: 16473 - 17364" locus_tag="ctg3_19" class="clusterblast-orf" id="dummy-1_q16_0_all"  />
<polygon points="276,40 292,40 297,35 292,30 276,30 276,40 " style="fill:#b115d8; stroke-width:1; stroke:black; " description="&lt;b&gt;ctg3_20&lt;/b&gt;&lt;br&gt;ctg3 20&lt;br&gt;Location: 17379 - 18744" locus_tag="ctg3_20" class="clusterblast-orf" id="dummy-1_q17_0_all"  />
<polygon points="297,40 316,40 321,35 316,30 297,30 297,40 " style="fill:#d88a15; stroke-width:1; stroke:black; " description="&lt;b&gt;ctg3_21&lt;/b&gt;&lt;br&gt;ctg3 21&lt;br&gt;Location: 18754 - 20263" locus_tag="ctg3_21" class="clusterblast-orf" id="dummy-1_q18_0_all"  />
<polygon points="321,40 415,40 420,35 415,30 321,30 321,40 " style="fill:#15d863; stroke-width:1; stroke:black; " description="&lt;b&gt;ctg3_22&lt;/b&gt;&lt;br&gt;ctg3 22&lt;br&gt;Location: 20259 - 26601" locus_tag="ctg3_22" class="clusterblast-orf" id="dummy-1_q19_0_all"  />
<polygon points="420,40 429,40 434,35 429,30 420,30 420,40 " style="fill:white; stroke-width:1; stroke:black; " description="&lt;b&gt;ctg3_23&lt;/b&gt;&lt;br&gt;ctg3 23&lt;br&gt;Location: 26597 - 27521" locus_tag="ctg3_23" class="clusterblast-orf" id="dummy-1_q20_0_all"  />
<polygon points="434,40 445,40 450,35 445,30 434,30 434,40 " style="fill:#3c15d8; stroke-width:1; stroke:black; " description="&lt;b&gt;ctg3_24&lt;/b&gt;&lt;br&gt;ctg3 24&lt;br&gt;Location: 27517 - 28504" locus_tag="ctg3_24" class="clusterblast-orf" id="dummy-1_q21_0_all"  />
<polygon points="450,40 516,40 521,35 516,30 450,30 450,40 " style="fill:#d8158a; stroke-width:1; stroke:black; " description="&lt;b&gt;ctg3_25&lt;/b&gt;&lt;br&gt;ctg3 25&lt;br&gt;Location: 28513 - 33043" locus_tag="ctg3_25" class="clusterblast-orf" id="dummy-1_q22_0_all"  />
<polygon points="520,40 526,40 531,35 526,30 520,30 520,40 " style="fill:#b1d815; stroke-width:1; stroke:black; " description="&lt;b&gt;ctg3_26&lt;/b&gt;&lt;br&gt;ctg3 26&lt;br&gt;Location: 33039 - 33741" locus_tag="ctg3_26" class="clusterblast-orf" id="dummy-1_q23_0_all"  />
<polygon points="535,40 535,40 540,35 535,30 535,30 535,40 " style="fill:white; stroke-width:1; stroke:black; " description="&lt;b&gt;ctg3_27&lt;/b&gt;&lt;br&gt;ctg3 27&lt;br&gt;Location: 33951 - 34263" locus_tag="ctg3_27" class="clusterblast-orf" id="dummy-1_q24_0_all"  />
<polygon points="541,35 546,30 564,30 564,40 546,40 541,35 " style="fill:white; stroke-width:1; stroke:black; " description="&lt;b&gt;ctg3_28&lt;/b&gt;&lt;br&gt;ctg3 28&lt;br&gt;Location: 34329 - 35823" locus_tag="ctg3_28" class="clusterblast-orf" id="dummy-1_q25_0_all"  />
<polygon points="567,40 583,40 588,35 583,30 567,30 567,40 " style="fill:white; stroke-width:1; stroke:black; " description="&lt;b&gt;ctg3_29&lt;/b&gt;&lt;br&gt;ctg3 29&lt;br&gt;Location: 36011 - 37352" locus_tag="ctg3_29" class="clusterblast-orf" id="dummy-1_q26_0_all"  />
<polygon points="590,35 595,30 605,30 605,40 595,40 590,35 " style="fill:white; stroke-width:1; stroke:black; " description="&lt;b&gt;ctg3_30&lt;/b&gt;&lt;br&gt;ctg3 30&lt;br&gt;Location: 37471 - 38425" locus_tag="ctg3_30" class="clusterblast-orf" id="dummy-1_q27_0_all"  />
<polygon points="608,40 608,40 613,35 608,30 608,30 608,40 " style="fill:#15d8d8; stroke-width:1; stroke:black; " description="&lt;b&gt;ctg3_31&lt;/b&gt;&lt;br&gt;ctg3 31&lt;br&gt;Location: 38675 - 38945" locus_tag="ctg3_31" class="clusterblast-orf" id="dummy-1_q28_0_all"  />
<polygon points="615,40 626,40 631,35 626,30 615,30 615,40 " style="fill:white; stroke-width:1; stroke:black; " description="&lt;b&gt;ctg3_32&lt;/b&gt;&lt;br&gt;ctg3 32&lt;br&gt;Location: 39110 - 40133" locus_tag="ctg3_32" class="clusterblast-orf" id="dummy-1_q29_0_all"  />
<polygon points="633,40 637,35 633,30 633,40 " style="fill:white; stroke-width:1; stroke:black; " description="&lt;b&gt;ctg3_33&lt;/b&gt;&lt;br&gt;ctg3 33&lt;br&gt;Location: 40228 - 40516" locus_tag="ctg3_33" class="clusterblast-orf" id="dummy-1_q30_0_all"  />
<polygon points="643,40 660,40 665,35 660,30 643,30 643,40 " style="fill:white; stroke-width:1; stroke:black; " description="&lt;b&gt;ctg3_34&lt;/b&gt;&lt;br&gt;ctg3 34&lt;br&gt;Location: 40908 - 42303" locus_tag="ctg3_34" class="clusterblast-orf" id="dummy-1_q31_0_all"  />
<polygon points="665,35 670,30 680,30 680,40 670,40 665,35 " style="fill:white; stroke-width:1; stroke:black; " description="&lt;b&gt;ctg3_35&lt;/b&gt;&lt;br&gt;ctg3 35&lt;br&gt;Location: 42299 - 43268" locus_tag="ctg3_35" class="clusterblast-orf" id="dummy-1_q32_0_all"  />
<polygon points="680,35 685,30 695,30 695,40 685,40 680,35 " style="fill:white; stroke-width:1; stroke:black; " description="&lt;b&gt;ctg3_36&lt;/b&gt;&lt;br&gt;ctg3 36&lt;br&gt;Location: 43271 - 44198" locus_tag="ctg3_36" class="clusterblast-orf" id="dummy-1_q33_0_all"  />
<polygon points="695,35 700,30 707,30 707,40 700,40 695,35 " style="fill:white; stroke-width:1; stroke:black; " description="&lt;b&gt;ctg3_37&lt;/b&gt;&lt;br&gt;ctg3 37&lt;br&gt;Location: 44209 - 45004" locus_tag="ctg3_37" class="clusterblast-orf" id="dummy-1_q34_0_all"  />
<polygon points="707,35 712,30 717,30 717,40 712,40 707,35 " style="fill:white; stroke-width:1; stroke:black; " description="&lt;b&gt;ctg3_38&lt;/b&gt;&lt;br&gt;ctg3 38&lt;br&gt;Location: 45000 - 45609" locus_tag="ctg3_38" class="clusterblast-orf" id="dummy-1_q35_0_all"  />
<polygon points="717,40 720,40 725,35 720,30 717,30 717,40 " style="fill:white; stroke-width:1; stroke:black; " description="&lt;b&gt;ctg3_39&lt;/b&gt;&lt;br&gt;ctg3 39&lt;br&gt;Location: 45629 - 46136" locus_tag="ctg3_39" class="clusterblast-orf" id="dummy-1_q36_0_all"  />
<polygon points="725,40 736,40 741,35 736,30 725,30 725,40 " style="fill:white; stroke-width:1; stroke:black; " description="&lt;b&gt;ctg3_40&lt;/b&gt;&lt;br&gt;ctg3 40&lt;br&gt;Location: 46132 - 47155" locus_tag="ctg3_40" class="clusterblast-orf" id="dummy-1_q37_0_all"  />
<polygon points="741,40 748,40 753,35 748,30 741,30 741,40 " style="fill:white; stroke-width:1; stroke:black; " description="&lt;b&gt;ctg3_41&lt;/b&gt;&lt;br&gt;ctg3 41&lt;br&gt;Location: 47160 - 47904" locus_tag="ctg3_41" class="clusterblast-orf" id="dummy-1_q38_0_all"  />
<polygon points="753,40 756,40 761,35 756,30 753,30 753,40 " style="fill:white; stroke-width:1; stroke:black; " description="&lt;b&gt;ctg3_42&lt;/b&gt;&lt;br&gt;ctg3 42&lt;br&gt;Location: 47940 - 48459" locus_tag="ctg3_42" class="clusterblast-orf" id="dummy-1_q39_0_all"  />
</g>
<g label="NZ_VLLH01000011" description="NZ_VLLH01000011 (68560-120514): Gemmobacter caeni strain CGMCC 1.7745 IQ03DRA... (21% of genes show similarity), NRPS-like,T1PKS" class="clusterblast-cluster"  >
<text x="5" y="70" class="clusterblast-acc"  >
<a xlink:href="https://antismash-db.secondarymetabolites.org/area.html?record=NZ_VLLH01000011&amp;start=68560&amp;end=120514" target="_blank">NZ_VLLH01000011 (68560-120514)</a>: Gemmobacter caeni strain CGMCC 1.7745 IQ03DRA... (21% of genes show similarity), NRPS-like,T1PKS</text>
<line x1="10" y1="85" x2="778.0" y2="85" style="stroke-width:1; stroke:grey; "  />
</g>
<g id="a1_000"  >
<polygon points="0,85 5,80 30,80 30,90 5,90 0,85 " style="fill:white; stroke-width:1; stroke:black; " description="&lt;b&gt;IQ03_RS15275&lt;/b&gt;&lt;br&gt;FAD-dependent oxidoreductase&lt;br&gt;Location: 119700 - 117724" locus_tag="IQ03_RS15275" class="clusterblast-orf" id="dummy-1_h1_4_0"  />
</g>
<g id="a1_001"  >
<polygon points="32,85 37,80 42,80 42,90 37,90 32,85 " style="fill:white; stroke-width:1; stroke:black; " description="&lt;b&gt;IQ03_RS15270&lt;/b&gt;&lt;br&gt;5'-methylthioadenosine/S-adenosylhomocysteine nucleosidase&lt;br&gt;Location: 117634 - 116957" locus_tag="IQ03_RS15270" class="clusterblast-orf" id="dummy-1_h1_4_1"  />
</g>
<g id="a1_002"  >
<polygon points="43,85 48,80 66,80 66,90 48,90 43,85 " style="fill:white; stroke-width:1; stroke:black; " description="&lt;b&gt;IQ03_RS15265&lt;/b&gt;&lt;br&gt;aldehyde dehydrogenase family protein&lt;br&gt;Location: 116899 - 115454" locus_tag="IQ03_RS15265" class="clusterblast-orf" id="dummy-1_h1_4_2"  />
</g>
<g id="a1_003"  >
<polygon points="69,90 78,90 83,85 78,80 69,80 69,90 " style="fill:white; stroke-width:1; stroke:black; " description="&lt;b&gt;IQ03_RS15260&lt;/b&gt;&lt;br&gt;glycosyltransferase family 92 protein&lt;br&gt;Location: 115267 - 114368" locus_tag="IQ03_RS15260" class="clusterblast-orf" id="dummy-1_h1_4_3"  />
</g>
<g id="a1_004"  >
<polygon points="86,90 91,90 96,85 91,80 86,80 86,90 " style="fill:white; stroke-width:1; stroke:black; " description="&lt;b&gt;IQ03_RS15255&lt;/b&gt;&lt;br&gt;peroxiredoxin&lt;br&gt;Location: 114172 - 113516" locus_tag="IQ03_RS15255" class="clusterblast-orf" id="dummy-1_h1_4_4"  />
</g>
<g id="a1_005"  >
<polygon points="98,85 103,80 110,80 110,90 103,90 98,85 " style="fill:white; stroke-width:1; stroke:black; " description="&lt;b&gt;IQ03_RS15250&lt;/b&gt;&lt;br&gt;hypothetical protein&lt;br&gt;Location: 113423 - 112635" locus_tag="IQ03_RS15250" class="clusterblast-orf" id="dummy-1_h1_4_5"  />
</g>
<g id="a1_006"  >
<polygon points="110,85 115,80 128,80 128,90 115,90 110,85 " style="fill:white; stroke-width:1; stroke:black; " description="&lt;b&gt;IQ03_RS15245&lt;/b&gt;&lt;br&gt;glycosyltransferase&lt;br&gt;Location: 112642 - 111443" locus_tag="IQ03_RS15245" class="clusterblast-orf" id="dummy-1_h1_4_6"  />
</g>
<g id="a1_007"  >
<polygon points="130,90 146,90 151,85 146,80 130,80 130,90 " style="fill:white; stroke-width:1; stroke:black; " description="&lt;b&gt;IQ03_RS15240&lt;/b&gt;&lt;br&gt;oligosaccharide flippase family protein&lt;br&gt;Location: 111327 - 109990" locus_tag="IQ03_RS15240" class="clusterblast-orf" id="dummy-1_h1_4_7"  />
</g>
<g id="a1_008"  >
<polygon points="153,90 156,85 153,80 153,90 " style="fill:white; stroke-width:1; stroke:black; " description="&lt;b&gt;IQ03_RS15235&lt;/b&gt;&lt;br&gt;hypothetical protein&lt;br&gt;Location: 109881 - 109666" locus_tag="IQ03_RS15235" class="clusterblast-orf" id="dummy-1_h1_4_8"  />
</g>
<g id="a1_009"  >
<polygon points="164,90 169,90 174,85 169,80 164,80 164,90 " style="fill:white; stroke-width:1; stroke:black; " description="&lt;b&gt;IQ03_RS15230&lt;/b&gt;&lt;br&gt;sugar transferase&lt;br&gt;Location: 109187 - 108540" locus_tag="IQ03_RS15230" class="clusterblast-orf" id="dummy-1_h1_4_9"  />
</g>
<g id="a1_0010"  >
<polygon points="175,85 180,80 195,80 195,90 180,90 175,85 " style="fill:#b115d8; stroke-width:1; stroke:black; " description="&lt;b&gt;IQ03_RS15225&lt;/b&gt;&lt;br&gt;hypothetical protein&lt;br&gt;Location: 108465 - 107191&lt;br&gt;&lt;br&gt;&lt;b&gt;BlastP hit with ctg3_20&lt;/b&gt;&lt;br&gt;Percentage identity: 32&lt;br&gt;Percentage coverage: 94&lt;br&gt;BLAST bit score: 168&lt;br&gt;E-value: 1.89e-45" locus_tag="IQ03_RS15225" class="clusterblast-orf" id="dummy-1_h1_4_10"  />
</g>
<g id="a1_0011"  >
<polygon points="195,85 200,80 209,80 209,90 200,90 195,85 " style="fill:#1563d8; stroke-width:1; stroke:black; " description="&lt;b&gt;IQ03_RS15220&lt;/b&gt;&lt;br&gt;P-loop NTPase&lt;br&gt;Location: 107184 - 106303&lt;br&gt;&lt;br&gt;&lt;b&gt;BlastP hit with ctg3_19&lt;/b&gt;&lt;br&gt;Percentage identity: 35&lt;br&gt;Percentage coverage: 81&lt;br&gt;BLAST bit score: 119&lt;br&gt;E-value: 7.06e-30" locus_tag="IQ03_RS15220" class="clusterblast-orf" id="dummy-1_h1_4_11"  />
</g>
<g id="a1_0012"  >
<polygon points="214,90 224,90 229,85 224,80 214,80 214,90 " style="fill:white; stroke-width:1; stroke:black; " description="&lt;b&gt;IQ03_RS15215&lt;/b&gt;&lt;br&gt;glycosyltransferase&lt;br&gt;Location: 105977 - 105024" locus_tag="IQ03_RS15215" class="clusterblast-orf" id="dummy-1_h1_4_12"  />
</g>
<g id="a1_0013"  >
<polygon points="229,85 234,80 241,80 241,90 234,90 229,85 " style="fill:white; stroke-width:1; stroke:black; " description="&lt;b&gt;IQ03_RS15210&lt;/b&gt;&lt;br&gt;WecB/TagA/CpsF family glycosyltransferase&lt;br&gt;Location: 105008 - 104238" locus_tag="IQ03_RS15210" class="clusterblast-orf" id="dummy-1_h1_4_13"  />
</g>
<g id="a1_0014"  >
<polygon points="244,90 253,90 258,85 253,80 244,80 244,90 " style="fill:white; stroke-width:1; stroke:black; " description="&lt;b&gt;IQ03_RS15205&lt;/b&gt;&lt;br&gt;acyltransferase family protein&lt;br&gt;Location: 104054 - 103158" locus_tag="IQ03_RS15205" class="clusterblast-orf" id="dummy-1_h1_4_14"  />
</g>
<g id="a1_0015"  >
<polygon points="259,90 276,90 281,85 276,80 259,80 259,90 " style="fill:#d88a15; stroke-width:1; stroke:black; " description="&lt;b&gt;IQ03_RS15200&lt;/b&gt;&lt;br&gt;hypothetical protein&lt;br&gt;Location: 103078 - 101693&lt;br&gt;&lt;br&gt;&lt;b&gt;BlastP hit with ctg3_21&lt;/b&gt;&lt;br&gt;Percentage identity: 47&lt;br&gt;Percentage coverage: 93&lt;br&gt;BLAST bit score: 397&lt;br&gt;E-value: 1.17e-132" locus_tag="IQ03_RS15200" class="clusterblast-orf" id="dummy-1_h1_4_15"  />
</g>
<g id="a1_0016"  >
<polygon points="281,90 291,90 296,85 291,80 281,80 281,90 " style="fill:white; stroke-width:1; stroke:black; " description="&lt;b&gt;IQ03_RS15195&lt;/b&gt;&lt;br&gt;glycosyltransferase&lt;br&gt;Location: 101693 - 100704" locus_tag="IQ03_RS15195" class="clusterblast-orf" id="dummy-1_h1_4_16"  />
</g>
<g id="a1_0017"  >
<polygon points="299,90 394,90 399,85 394,80 299,80 299,90 " style="fill:#15d863; stroke-width:1; stroke:black; " description="&lt;b&gt;IQ03_RS15190&lt;/b&gt;&lt;br&gt;type I polyketide synthase&lt;br&gt;Location: 100514 - 94119&lt;br&gt;&lt;br&gt;&lt;b&gt;BlastP hit with ctg3_22&lt;/b&gt;&lt;br&gt;Percentage identity: 63&lt;br&gt;Percentage coverage: 101&lt;br&gt;BLAST bit score: 2579&lt;br&gt;E-value: 0.0" locus_tag="IQ03_RS15190" class="clusterblast-orf" id="dummy-1_h1_4_17"  />
</g>
<g id="a1_0018"  >
<polygon points="399,90 409,90 414,85 409,80 399,80 399,90 " style="fill:#3c15d8; stroke-width:1; stroke:black; " description="&lt;b&gt;IQ03_RS15185&lt;/b&gt;&lt;br&gt;glycosyltransferase family 2 protein&lt;br&gt;Location: 94114 - 93149&lt;br&gt;&lt;br&gt;&lt;b&gt;BlastP hit with ctg3_24&lt;/b&gt;&lt;br&gt;Percentage identity: 58&lt;br&gt;Percentage coverage: 95&lt;br&gt;BLAST bit score: 355&lt;br&gt;E-value: 1.01e-120" locus_tag="IQ03_RS15185" class="clusterblast-orf" id="dummy-1_h1_4_18"  />
</g>
<g id="a1_0019"  >
<polygon points="415,90 481,90 486,85 481,80 415,80 415,90 " style="fill:#d8158a; stroke-width:1; stroke:black; " description="&lt;b&gt;IQ03_RS15180&lt;/b&gt;&lt;br&gt;LLM class flavin-dependent oxidoreductase&lt;br&gt;Location: 93075 - 88561&lt;br&gt;&lt;br&gt;&lt;b&gt;BlastP hit with ctg3_25&lt;/b&gt;&lt;br&gt;Percentage identity: 56&lt;br&gt;Percentage coverage: 102&lt;br&gt;BLAST bit score: 1564&lt;br&gt;E-value: 0.0" locus_tag="IQ03_RS15180" class="clusterblast-orf" id="dummy-1_h1_4_19"  />
</g>
<g id="a1_0020"  >
<polygon points="486,90 490,90 495,85 490,80 486,80 486,90 " style="fill:#b1d815; stroke-width:1; stroke:black; " description="&lt;b&gt;IQ03_RS15175&lt;/b&gt;&lt;br&gt;4'-phosphopantetheinyl transferase superfamily protein&lt;br&gt;Location: 88568 - 87942&lt;br&gt;&lt;br&gt;&lt;b&gt;BlastP hit with ctg3_26&lt;/b&gt;&lt;br&gt;Percentage identity: 44&lt;br&gt;Percentage coverage: 91&lt;br&gt;BLAST bit score: 158&lt;br&gt;E-value: 1.89e-46" locus_tag="IQ03_RS15175" class="clusterblast-orf" id="dummy-1_h1_4_20"  />
</g>
<g id="a1_0021"  >
<polygon points="496,90 508,90 513,85 508,80 496,80 496,90 " style="fill:white; stroke-width:1; stroke:black; " description="&lt;b&gt;IQ03_RS15170&lt;/b&gt;&lt;br&gt;cell division protein ZapE&lt;br&gt;Location: 87904 - 86810" locus_tag="IQ03_RS15170" class="clusterblast-orf" id="dummy-1_h1_4_21"  />
</g>
<g id="a1_0022"  >
<polygon points="513,85 518,80 523,80 523,90 518,90 513,85 " style="fill:white; stroke-width:1; stroke:black; " description="&lt;b&gt;IQ03_RS15165&lt;/b&gt;&lt;br&gt;carbonic anhydrase&lt;br&gt;Location: 86793 - 86146" locus_tag="IQ03_RS15165" class="clusterblast-orf" id="dummy-1_h1_4_22"  />
</g>
<g id="a1_0023"  >
<polygon points="526,90 527,90 532,85 527,80 526,80 526,90 " style="fill:white; stroke-width:1; stroke:black; " description="&lt;b&gt;IQ03_RS15160&lt;/b&gt;&lt;br&gt;hypothetical protein&lt;br&gt;Location: 85995 - 85612" locus_tag="IQ03_RS15160" class="clusterblast-orf" id="dummy-1_h1_4_23"  />
</g>
<g id="a1_0024"  >
<polygon points="533,90 549,90 554,85 549,80 533,80 533,90 " style="fill:#d81515; stroke-width:1; stroke:black; " description="&lt;b&gt;IQ03_RS15155&lt;/b&gt;&lt;br&gt;leucyl aminopeptidase family protein&lt;br&gt;Location: 85553 - 84177&lt;br&gt;&lt;br&gt;&lt;b&gt;BlastP hit with ctg3_14&lt;/b&gt;&lt;br&gt;Percentage identity: 58&lt;br&gt;Percentage coverage: 99&lt;br&gt;BLAST bit score: 486&lt;br&gt;E-value: 3.47e-168" locus_tag="IQ03_RS15155" class="clusterblast-orf" id="dummy-1_h1_4_24"  />
</g>
<g id="a1_0025"  >
<polygon points="554,90 562,90 567,85 562,80 554,80 554,90 " style="fill:#3cd815; stroke-width:1; stroke:black; " description="&lt;b&gt;IQ03_RS15150&lt;/b&gt;&lt;br&gt;NlpC/P60 family protein&lt;br&gt;Location: 84175 - 83354&lt;br&gt;&lt;br&gt;&lt;b&gt;BlastP hit with ctg3_15&lt;/b&gt;&lt;br&gt;Percentage identity: 45&lt;br&gt;Percentage coverage: 100&lt;br&gt;BLAST bit score: 226&lt;br&gt;E-value: 1.65e-71" locus_tag="IQ03_RS15150" class="clusterblast-orf" id="dummy-1_h1_4_25"  />
</g>
<g id="a1_0026"  >
<polygon points="567,85 572,80 573,80 573,90 572,90 567,85 " style="fill:white; stroke-width:1; stroke:black; " description="&lt;b&gt;IQ03_RS15145&lt;/b&gt;&lt;br&gt;DUF2794 domain-containing protein&lt;br&gt;Location: 83344 - 82988" locus_tag="IQ03_RS15145" class="clusterblast-orf" id="dummy-1_h1_4_26"  />
</g>
<g id="a1_0027"  >
<polygon points="577,85 582,80 593,80 593,90 582,90 577,85 " style="fill:white; stroke-width:1; stroke:black; " description="&lt;b&gt;IQ03_RS15140&lt;/b&gt;&lt;br&gt;asparaginase&lt;br&gt;Location: 82710 - 81709" locus_tag="IQ03_RS15140" class="clusterblast-orf" id="dummy-1_h1_4_27"  />
</g>
<g id="a1_0028"  >
<polygon points="595,90 599,90 604,85 599,80 595,80 595,90 " style="fill:white; stroke-width:1; stroke:black; " description="&lt;b&gt;IQ03_RS15135&lt;/b&gt;&lt;br&gt;hypothetical protein&lt;br&gt;Location: 81542 - 81009" locus_tag="IQ03_RS15135" class="clusterblast-orf" id="dummy-1_h1_4_28"  />
</g>
<g id="a1_0029"  >
<polygon points="606,90 619,90 624,85 619,80 606,80 606,90 " style="fill:white; stroke-width:1; stroke:black; " description="&lt;b&gt;IQ03_RS15130&lt;/b&gt;&lt;br&gt;23S rRNA (adenine(2503)-C(2))-methyltransferase RlmN&lt;br&gt;Location: 80867 - 79677" locus_tag="IQ03_RS15130" class="clusterblast-orf" id="dummy-1_h1_4_29"  />
</g>
<g id="a1_0030"  >
<polygon points="625,85 630,80 648,80 648,90 630,90 625,85 " style="fill:white; stroke-width:1; stroke:black; " description="&lt;b&gt;IQ03_RS15125&lt;/b&gt;&lt;br&gt;hypothetical protein&lt;br&gt;Location: 79664 - 78177" locus_tag="IQ03_RS15125" class="clusterblast-orf" id="dummy-1_h1_4_30"  />
</g>
<g id="a1_0031"  >
<polygon points="653,90 667,90 672,85 667,80 653,80 653,90 " style="fill:white; stroke-width:1; stroke:black; " description="&lt;b&gt;IQ03_RS15120&lt;/b&gt;&lt;br&gt;winged helix-turn-helix domain-containing protein&lt;br&gt;Location: 77877 - 76657" locus_tag="IQ03_RS15120" class="clusterblast-orf" id="dummy-1_h1_4_31"  />
</g>
<g id="a1_0032"  >
<polygon points="672,85 677,80 686,80 686,90 677,90 672,85 " style="fill:white; stroke-width:1; stroke:black; " description="&lt;b&gt;IQ03_RS15115&lt;/b&gt;&lt;br&gt;N-formylglutamate amidohydrolase&lt;br&gt;Location: 76644 - 75763" locus_tag="IQ03_RS15115" class="clusterblast-orf" id="dummy-1_h1_4_32"  />
</g>
<g id="a1_0033"  >
<polygon points="690,90 692,85 690,80 690,90 " style="fill:white; stroke-width:1; stroke:black; " description="&lt;b&gt;IQ03_RS15105&lt;/b&gt;&lt;br&gt;50S ribosomal protein L36&lt;br&gt;Location: 75489 - 75364" locus_tag="IQ03_RS15105" class="clusterblast-orf" id="dummy-1_h1_4_33"  />
</g>
<g id="a1_0034"  >
<polygon points="693,85 698,80 702,80 702,90 698,90 693,85 " style="fill:white; stroke-width:1; stroke:black; " description="&lt;b&gt;IQ03_RS15100&lt;/b&gt;&lt;br&gt;peroxidase-related enzyme&lt;br&gt;Location: 75303 - 74737" locus_tag="IQ03_RS15100" class="clusterblast-orf" id="dummy-1_h1_4_34"  />
</g>
<g id="a1_0035"  >
<polygon points="703,90 708,90 713,85 708,80 703,80 703,90 " style="fill:white; stroke-width:1; stroke:black; " description="&lt;b&gt;IQ03_RS15095&lt;/b&gt;&lt;br&gt;glutathione S-transferase&lt;br&gt;Location: 74628 - 74017" locus_tag="IQ03_RS15095" class="clusterblast-orf" id="dummy-1_h1_4_35"  />
</g>
<g id="a1_0036"  >
<polygon points="713,85 718,80 722,80 722,90 718,90 713,85 " style="fill:white; stroke-width:1; stroke:black; " description="&lt;b&gt;IQ03_RS15090&lt;/b&gt;&lt;br&gt;phosphatase PAP2 family protein&lt;br&gt;Location: 74003 - 73428" locus_tag="IQ03_RS15090" class="clusterblast-orf" id="dummy-1_h1_4_36"  />
</g>
<g id="a1_0037"  >
<polygon points="726,90 730,90 735,85 730,80 726,80 726,90 " style="fill:white; stroke-width:1; stroke:black; " description="&lt;b&gt;IQ03_RS15085&lt;/b&gt;&lt;br&gt;ubiquinol-cytochrome c reductase iron-sulfur subunit&lt;br&gt;Location: 73173 - 72613" locus_tag="IQ03_RS15085" class="clusterblast-orf" id="dummy-1_h1_4_37"  />
</g>
<g id="a1_0038"  >
<polygon points="735,90 750,90 755,85 750,80 735,80 735,90 " style="fill:white; stroke-width:1; stroke:black; " description="&lt;b&gt;IQ03_RS15080&lt;/b&gt;&lt;br&gt;hypothetical protein&lt;br&gt;Location: 72601 - 71288" locus_tag="IQ03_RS15080" class="clusterblast-orf" id="dummy-1_h1_4_38"  />
</g>
<g id="a1_0039"  >
<polygon points="756,90 763,90 768,85 763,80 756,80 756,90 " style="fill:white; stroke-width:1; stroke:black; " description="&lt;b&gt;IQ03_RS15075&lt;/b&gt;&lt;br&gt;cytochrome c1&lt;br&gt;Location: 71268 - 70480" locus_tag="IQ03_RS15075" class="clusterblast-orf" id="dummy-1_h1_4_39"  />
</g>
<g id="a1_0040"  >
<polygon points="769,85 774,80 780,80 780,90 774,90 769,85 " style="fill:white; stroke-width:1; stroke:black; " description="&lt;b&gt;IQ03_RS15070&lt;/b&gt;&lt;br&gt;ATP-binding cassette domain-containing protein&lt;br&gt;Location: 70431 - 69748" locus_tag="IQ03_RS15070" class="clusterblast-orf" id="dummy-1_h1_4_40"  />
</g>
</svg>
