<svg xmlns="http://www.w3.org/2000/svg" xmlns:xlink="http://www.w3.org/1999/xlink" version="1.1" x="0" y="0" height="230" width="800" viewBox="0 0 800 230" preserveAspectRatio="none"  >
<g label="Query sequence" class="clusterblast-cluster"  >
<text x="5" y="20" class="clusterblast-acc"  >
Query sequence</text>
<line x1="10" y1="35" x2="778.0" y2="35" style="stroke-width:1; stroke:grey; "  />
<polygon points="1,35 6,30 12,30 12,40 6,40 1,35 " style="fill:white; stroke-width:1; stroke:black; " description="&lt;b&gt;ctg33_33&lt;/b&gt;&lt;br&gt;ctg33 33&lt;br&gt;Location: 36930 - 37527" locus_tag="ctg33_33" class="clusterblast-orf" id="dummy-1_q0_0_all"  />
<polygon points="13,35 18,30 33,30 33,40 18,40 13,35 " style="fill:white; stroke-width:1; stroke:black; " description="&lt;b&gt;ctg33_34&lt;/b&gt;&lt;br&gt;ctg33 34&lt;br&gt;Location: 37548 - 38595" locus_tag="ctg33_34" class="clusterblast-orf" id="dummy-1_q1_0_all"  />
<polygon points="36,35 41,30 43,30 43,40 41,40 36,35 " style="fill:white; stroke-width:1; stroke:black; " description="&lt;b&gt;ctg33_35&lt;/b&gt;&lt;br&gt;ctg33 35&lt;br&gt;Location: 38723 - 39119" locus_tag="ctg33_35" class="clusterblast-orf" id="dummy-1_q2_0_all"  />
<polygon points="58,35 63,30 124,30 124,40 63,40 58,35 " style="fill:white; stroke-width:1; stroke:black; " description="&lt;b&gt;ctg33_36&lt;/b&gt;&lt;br&gt;ctg33 36&lt;br&gt;Location: 39881 - 43319" locus_tag="ctg33_36" class="clusterblast-orf" id="dummy-1_q3_0_all"  />
<polygon points="127,40 152,40 157,35 152,30 127,30 127,40 " style="fill:#d81515; stroke-width:1; stroke:black; " description="&lt;b&gt;ctg33_37&lt;/b&gt;&lt;br&gt;ctg33 37&lt;br&gt;Location: 43474 - 45007" locus_tag="ctg33_37" class="clusterblast-orf" id="dummy-1_q4_0_all"  />
<polygon points="157,40 173,40 178,35 173,30 157,30 157,40 " style="fill:#33d815; stroke-width:1; stroke:black; " description="&lt;b&gt;ctg33_38&lt;/b&gt;&lt;br&gt;ctg33 38&lt;br&gt;Location: 45003 - 46089" locus_tag="ctg33_38" class="clusterblast-orf" id="dummy-1_q5_0_all"  />
<polygon points="178,40 191,40 196,35 191,30 178,30 178,40 " style="fill:#15abd8; stroke-width:1; stroke:black; " description="&lt;b&gt;ctg33_39&lt;/b&gt;&lt;br&gt;ctg33 39&lt;br&gt;Location: 46085 - 47018" locus_tag="ctg33_39" class="clusterblast-orf" id="dummy-1_q6_0_all"  />
<polygon points="196,40 212,40 217,35 212,30 196,30 196,40 " style="fill:#8d15d8; stroke-width:1; stroke:black; " description="&lt;b&gt;ctg33_40&lt;/b&gt;&lt;br&gt;ctg33 40&lt;br&gt;Location: 47056 - 48136" locus_tag="ctg33_40" class="clusterblast-orf" id="dummy-1_q7_0_all"  />
<polygon points="218,35 223,30 236,30 236,40 223,40 218,35 " style="fill:white; stroke-width:1; stroke:black; " description="&lt;b&gt;ctg33_41&lt;/b&gt;&lt;br&gt;ctg33 41&lt;br&gt;Location: 48185 - 49103" locus_tag="ctg33_41" class="clusterblast-orf" id="dummy-1_q8_0_all"  />
<polygon points="238,40 244,40 249,35 244,30 238,30 238,40 " style="fill:white; stroke-width:1; stroke:black; " description="&lt;b&gt;ctg33_42&lt;/b&gt;&lt;br&gt;ctg33 42&lt;br&gt;Location: 49207 - 49801" locus_tag="ctg33_42" class="clusterblast-orf" id="dummy-1_q9_0_all"  />
<polygon points="249,35 254,30 272,30 272,40 254,40 249,35 " style="fill:#d86f15; stroke-width:1; stroke:black; " description="&lt;b&gt;ctg33_43&lt;/b&gt;&lt;br&gt;ctg33 43&lt;br&gt;Location: 49797 - 50949" locus_tag="ctg33_43" class="clusterblast-orf" id="dummy-1_q10_0_all"  />
<polygon points="273,35 278,30 310,30 310,40 278,40 273,35 " style="fill:#15d851; stroke-width:1; stroke:black; " description="&lt;b&gt;ctg33_44&lt;/b&gt;&lt;br&gt;ctg33 44&lt;br&gt;Location: 51021 - 52938" locus_tag="ctg33_44" class="clusterblast-orf" id="dummy-1_q11_0_all"  />
<polygon points="313,35 318,30 352,30 352,40 318,40 313,35 " style="fill:white; stroke-width:1; stroke:black; " description="&lt;b&gt;ctg33_45&lt;/b&gt;&lt;br&gt;ctg33 45&lt;br&gt;Location: 53096 - 55103" locus_tag="ctg33_45" class="clusterblast-orf" id="dummy-1_q12_0_all"  />
<polygon points="353,35 358,30 378,30 378,40 358,40 353,35 " style="fill:white; stroke-width:1; stroke:black; " description="&lt;b&gt;ctg33_46&lt;/b&gt;&lt;br&gt;ctg33 46&lt;br&gt;Location: 55159 - 56434" locus_tag="ctg33_46" class="clusterblast-orf" id="dummy-1_q13_0_all"  />
<polygon points="381,40 396,40 401,35 396,30 381,30 381,40 " style="fill:#1551d8; stroke-width:1; stroke:black; " description="&lt;b&gt;ctg33_47&lt;/b&gt;&lt;br&gt;ctg33 47&lt;br&gt;Location: 56630 - 57671" locus_tag="ctg33_47" class="clusterblast-orf" id="dummy-1_q14_0_all"  />
<polygon points="401,40 406,40 411,35 406,30 401,30 401,40 " style="fill:#d815c9; stroke-width:1; stroke:black; " description="&lt;b&gt;ctg33_48&lt;/b&gt;&lt;br&gt;ctg33 48&lt;br&gt;Location: 57667 - 58156" locus_tag="ctg33_48" class="clusterblast-orf" id="dummy-1_q15_0_all"  />
<polygon points="411,40 424,40 429,35 424,30 411,30 411,40 " style="fill:white; stroke-width:1; stroke:black; " description="&lt;b&gt;ctg33_49&lt;/b&gt;&lt;br&gt;ctg33 49&lt;br&gt;Location: 58182 - 59076" locus_tag="ctg33_49" class="clusterblast-orf" id="dummy-1_q16_0_all"  />
<polygon points="429,35 434,30 477,30 477,40 434,40 429,35 " style="fill:white; stroke-width:1; stroke:black; " description="&lt;b&gt;ctg33_50&lt;/b&gt;&lt;br&gt;ctg33 50&lt;br&gt;Location: 59079 - 61566" locus_tag="ctg33_50" class="clusterblast-orf" id="dummy-1_q17_0_all"  />
<polygon points="479,35 484,30 488,30 488,40 484,40 479,35 " style="fill:white; stroke-width:1; stroke:black; " description="&lt;b&gt;ctg33_51&lt;/b&gt;&lt;br&gt;ctg33 51&lt;br&gt;Location: 61692 - 62157" locus_tag="ctg33_51" class="clusterblast-orf" id="dummy-1_q18_0_all"  />
<polygon points="491,40 502,40 507,35 502,30 491,30 491,40 " style="fill:white; stroke-width:1; stroke:black; " description="&lt;b&gt;ctg33_52&lt;/b&gt;&lt;br&gt;ctg33 52&lt;br&gt;Location: 62290 - 63136" locus_tag="ctg33_52" class="clusterblast-orf" id="dummy-1_q19_0_all"  />
<polygon points="507,40 518,40 523,35 518,30 507,30 507,40 " style="fill:white; stroke-width:1; stroke:black; " description="&lt;b&gt;ctg33_53&lt;/b&gt;&lt;br&gt;ctg33 53&lt;br&gt;Location: 63132 - 63942" locus_tag="ctg33_53" class="clusterblast-orf" id="dummy-1_q20_0_all"  />
<polygon points="523,35 528,30 539,30 539,40 528,40 523,35 " style="fill:#d8c915; stroke-width:1; stroke:black; " description="&lt;b&gt;ctg33_54&lt;/b&gt;&lt;br&gt;ctg33 54&lt;br&gt;Location: 63960 - 64794" locus_tag="ctg33_54" class="clusterblast-orf" id="dummy-1_q21_0_all"  />
<polygon points="541,40 546,40 551,35 546,30 541,30 541,40 " style="fill:#15d8ab; stroke-width:1; stroke:black; " description="&lt;b&gt;ctg33_55&lt;/b&gt;&lt;br&gt;ctg33 55&lt;br&gt;Location: 64914 - 65421" locus_tag="ctg33_55" class="clusterblast-orf" id="dummy-1_q22_0_all"  />
<polygon points="555,40 586,40 591,35 586,30 555,30 555,40 " style="fill:#3315d8; stroke-width:1; stroke:black; " description="&lt;b&gt;ctg33_56&lt;/b&gt;&lt;br&gt;ctg33 56&lt;br&gt;Location: 65613 - 67512" locus_tag="ctg33_56" class="clusterblast-orf" id="dummy-1_q23_0_all"  />
<polygon points="591,40 608,40 613,35 608,30 591,30 591,40 " style="fill:#d8156f; stroke-width:1; stroke:black; " description="&lt;b&gt;ctg33_57&lt;/b&gt;&lt;br&gt;ctg33 57&lt;br&gt;Location: 67515 - 68604" locus_tag="ctg33_57" class="clusterblast-orf" id="dummy-1_q24_0_all"  />
<polygon points="613,40 630,40 635,35 630,30 613,30 613,40 " style="fill:#8dd815; stroke-width:1; stroke:black; " description="&lt;b&gt;ctg33_58&lt;/b&gt;&lt;br&gt;ctg33 58&lt;br&gt;Location: 68607 - 69759" locus_tag="ctg33_58" class="clusterblast-orf" id="dummy-1_q25_0_all"  />
<polygon points="635,40 661,40 666,35 661,30 635,30 635,40 " style="fill:#d81515; stroke-width:1; stroke:black; " description="&lt;b&gt;ctg33_59&lt;/b&gt;&lt;br&gt;ctg33 59&lt;br&gt;Location: 69755 - 71357" locus_tag="ctg33_59" class="clusterblast-orf" id="dummy-1_q26_0_all"  />
<polygon points="666,40 684,40 689,35 684,30 666,30 666,40 " style="fill:white; stroke-width:1; stroke:black; " description="&lt;b&gt;ctg33_60&lt;/b&gt;&lt;br&gt;ctg33 60&lt;br&gt;Location: 71370 - 72585" locus_tag="ctg33_60" class="clusterblast-orf" id="dummy-1_q27_0_all"  />
<polygon points="689,35 694,30 703,30 703,40 694,40 689,35 " style="fill:white; stroke-width:1; stroke:black; " description="&lt;b&gt;ctg33_61&lt;/b&gt;&lt;br&gt;ctg33 61&lt;br&gt;Location: 72581 - 73283" locus_tag="ctg33_61" class="clusterblast-orf" id="dummy-1_q28_0_all"  />
<polygon points="704,35 707,30 707,40 704,35 " style="fill:white; stroke-width:1; stroke:black; " description="&lt;b&gt;ctg33_62&lt;/b&gt;&lt;br&gt;ctg33 62&lt;br&gt;Location: 73365 - 73491" locus_tag="ctg33_62" class="clusterblast-orf" id="dummy-1_q29_0_all"  />
<polygon points="712,40 724,40 729,35 724,30 712,30 712,40 " style="fill:white; stroke-width:1; stroke:black; " description="&lt;b&gt;ctg33_63&lt;/b&gt;&lt;br&gt;ctg33 63&lt;br&gt;Location: 73781 - 74636" locus_tag="ctg33_63" class="clusterblast-orf" id="dummy-1_q30_0_all"  />
<polygon points="730,40 773,40 778,35 773,30 730,30 730,40 " style="fill:white; stroke-width:1; stroke:black; " description="&lt;b&gt;ctg33_64&lt;/b&gt;&lt;br&gt;ctg33 64&lt;br&gt;Location: 74684 - 77195" locus_tag="ctg33_64" class="clusterblast-orf" id="dummy-1_q31_0_all"  />
</g>
<g label="NC_009485" description="NC_009485 (187463-228516): Bradyrhizobium sp. BTAi1, complete sequence (10% of genes show similarity), T3PKS" class="clusterblast-cluster"  >
<text x="5" y="70" class="clusterblast-acc"  >
<a xlink:href="https://antismash-db.secondarymetabolites.org/area.html?record=NC_009485&amp;start=187463&amp;end=228516" target="_blank">NC_009485 (187463-228516)</a>: Bradyrhizobium sp. BTAi1, complete sequence (10% of genes show similarity), T3PKS</text>
<line x1="10" y1="85" x2="778.0" y2="85" style="stroke-width:1; stroke:grey; "  />
</g>
<g id="a1_000"  >
<polygon points="0,85 5,80 18,80 18,90 5,90 0,85 " style="fill:white; stroke-width:1; stroke:black; " description="&lt;b&gt;BBTA_RS00870&lt;/b&gt;&lt;br&gt;16S rRNA (cytidine(1402)-2'-O)-methyltransferase&lt;br&gt;Location: 187629 - 188600" locus_tag="BBTA_RS00870" class="clusterblast-orf" id="dummy-1_h1_5_0"  />
</g>
<g id="a1_001"  >
<polygon points="26,90 43,90 48,85 43,80 26,80 26,90 " style="fill:white; stroke-width:1; stroke:black; " description="&lt;b&gt;BBTA_RS00875&lt;/b&gt;&lt;br&gt;penicillin-binding protein activator&lt;br&gt;Location: 189010 - 190161" locus_tag="BBTA_RS00875" class="clusterblast-orf" id="dummy-1_h1_5_1"  />
</g>
<g id="a1_002"  >
<polygon points="49,85 54,80 71,80 71,90 54,90 49,85 " style="fill:white; stroke-width:1; stroke:black; " description="&lt;b&gt;BBTA_RS00880&lt;/b&gt;&lt;br&gt;coproporphyrinogen III oxidase&lt;br&gt;Location: 190190 - 191347" locus_tag="BBTA_RS00880" class="clusterblast-orf" id="dummy-1_h1_5_2"  />
</g>
<g id="a1_003"  >
<polygon points="71,85 76,80 83,80 83,90 76,90 71,85 " style="fill:white; stroke-width:1; stroke:black; " description="&lt;b&gt;BBTA_RS00885&lt;/b&gt;&lt;br&gt;RdgB/HAM1 family non-canonical purine NTP pyrophosphatase&lt;br&gt;Location: 191334 - 191978" locus_tag="BBTA_RS00885" class="clusterblast-orf" id="dummy-1_h1_5_3"  />
</g>
<g id="a1_004"  >
<polygon points="83,85 88,80 97,80 97,90 88,90 83,85 " style="fill:white; stroke-width:1; stroke:black; " description="&lt;b&gt;BBTA_RS00890&lt;/b&gt;&lt;br&gt;ribonuclease PH&lt;br&gt;Location: 191975 - 192688" locus_tag="BBTA_RS00890" class="clusterblast-orf" id="dummy-1_h1_5_4"  />
</g>
<g id="a1_005"  >
<polygon points="101,90 117,90 122,85 117,80 101,80 101,90 " style="fill:white; stroke-width:1; stroke:black; " description="&lt;b&gt;BBTA_RS00895&lt;/b&gt;&lt;br&gt;heat-inducible transcriptional repressor HrcA&lt;br&gt;Location: 192863 - 193951" locus_tag="BBTA_RS00895" class="clusterblast-orf" id="dummy-1_h1_5_5"  />
</g>
<g id="a1_006"  >
<polygon points="124,90 131,90 136,85 131,80 124,80 124,90 " style="fill:white; stroke-width:1; stroke:black; " description="&lt;b&gt;BBTA_RS00900&lt;/b&gt;&lt;br&gt;nucleotide exchange factor GrpE&lt;br&gt;Location: 194084 - 194704" locus_tag="BBTA_RS00900" class="clusterblast-orf" id="dummy-1_h1_5_6"  />
</g>
<g id="a1_007"  >
<polygon points="139,85 144,80 152,80 152,90 144,90 139,85 " style="fill:white; stroke-width:1; stroke:black; " description="&lt;b&gt;BBTA_RS00905&lt;/b&gt;&lt;br&gt;bifunctional nicotinamidase/pyrazinamidase&lt;br&gt;Location: 194835 - 195548" locus_tag="BBTA_RS00905" class="clusterblast-orf" id="dummy-1_h1_5_7"  />
</g>
<g id="a1_008"  >
<polygon points="156,85 161,80 174,80 174,90 161,90 156,85 " style="fill:white; stroke-width:1; stroke:black; " description="&lt;b&gt;BBTA_RS00910&lt;/b&gt;&lt;br&gt;hypothetical protein&lt;br&gt;Location: 195715 - 196650" locus_tag="BBTA_RS00910" class="clusterblast-orf" id="dummy-1_h1_5_8"  />
</g>
<g id="a1_009"  >
<polygon points="183,90 215,90 220,85 215,80 183,80 183,90 " style="fill:#15d851; stroke-width:1; stroke:black; " description="&lt;b&gt;BBTA_RS00915&lt;/b&gt;&lt;br&gt;molecular chaperone DnaK&lt;br&gt;Location: 197144 - 199039&lt;br&gt;&lt;br&gt;&lt;b&gt;BlastP hit with ctg33_44&lt;/b&gt;&lt;br&gt;Percentage identity: 76&lt;br&gt;Percentage coverage: 100&lt;br&gt;BLAST bit score: 920&lt;br&gt;E-value: 0.0" locus_tag="BBTA_RS00915" class="clusterblast-orf" id="dummy-1_h1_5_9"  />
</g>
<g id="a1_0010"  >
<polygon points="223,90 239,90 244,85 239,80 223,80 223,90 " style="fill:#d86f15; stroke-width:1; stroke:black; " description="&lt;b&gt;BBTA_RS00920&lt;/b&gt;&lt;br&gt;molecular chaperone DnaJ&lt;br&gt;Location: 199182 - 200309&lt;br&gt;&lt;br&gt;&lt;b&gt;BlastP hit with ctg33_43&lt;/b&gt;&lt;br&gt;Percentage identity: 54&lt;br&gt;Percentage coverage: 98&lt;br&gt;BLAST bit score: 346&lt;br&gt;E-value: 1.38e-115" locus_tag="BBTA_RS00920" class="clusterblast-orf" id="dummy-1_h1_5_10"  />
</g>
<g id="a1_0011"  >
<polygon points="248,90 255,90 260,85 255,80 248,80 248,90 " style="fill:white; stroke-width:1; stroke:black; " description="&lt;b&gt;BBTA_RS00925&lt;/b&gt;&lt;br&gt;methyltransferase&lt;br&gt;Location: 200523 - 201125" locus_tag="BBTA_RS00925" class="clusterblast-orf" id="dummy-1_h1_5_11"  />
</g>
<g id="a1_0012"  >
<polygon points="261,90 267,90 272,85 267,80 261,80 261,90 " style="fill:white; stroke-width:1; stroke:black; " description="&lt;b&gt;BBTA_RS00930&lt;/b&gt;&lt;br&gt;NAD(P)H-dependent oxidoreductase&lt;br&gt;Location: 201171 - 201749" locus_tag="BBTA_RS00930" class="clusterblast-orf" id="dummy-1_h1_5_12"  />
</g>
<g id="a1_0013"  >
<polygon points="272,90 281,90 286,85 281,80 272,80 272,90 " style="fill:white; stroke-width:1; stroke:black; " description="&lt;b&gt;BBTA_RS00935&lt;/b&gt;&lt;br&gt;orotidine-5'-phosphate decarboxylase&lt;br&gt;Location: 201756 - 202487" locus_tag="BBTA_RS00935" class="clusterblast-orf" id="dummy-1_h1_5_13"  />
</g>
<g id="a1_0014"  >
<polygon points="287,90 288,90 293,85 288,80 287,80 287,90 " style="fill:white; stroke-width:1; stroke:black; " description="&lt;b&gt;BBTA_RS00940&lt;/b&gt;&lt;br&gt;DUF1330 domain-containing protein&lt;br&gt;Location: 202538 - 202840" locus_tag="BBTA_RS00940" class="clusterblast-orf" id="dummy-1_h1_5_14"  />
</g>
<g id="a1_0015"  >
<polygon points="295,90 306,90 311,85 306,80 295,80 295,90 " style="fill:white; stroke-width:1; stroke:black; " description="&lt;b&gt;BBTA_RS00945&lt;/b&gt;&lt;br&gt;4-hydroxy-tetrahydrodipicolinate reductase&lt;br&gt;Location: 202934 - 203752" locus_tag="BBTA_RS00945" class="clusterblast-orf" id="dummy-1_h1_5_15"  />
</g>
<g id="a1_0016"  >
<polygon points="311,90 318,90 323,85 318,80 311,80 311,90 " style="fill:white; stroke-width:1; stroke:black; " description="&lt;b&gt;BBTA_RS00950&lt;/b&gt;&lt;br&gt;2,3-bisphosphoglycerate-dependent phosphoglycerate mutase&lt;br&gt;Location: 203777 - 204400" locus_tag="BBTA_RS00950" class="clusterblast-orf" id="dummy-1_h1_5_16"  />
</g>
<g id="a1_0017"  >
<polygon points="330,85 335,80 347,80 347,90 335,90 330,85 " style="fill:white; stroke-width:1; stroke:black; " description="&lt;b&gt;BBTA_RS00955&lt;/b&gt;&lt;br&gt;methylated-DNA--[protein]-cysteine S-methyltransferase&lt;br&gt;Location: 204725 - 205624" locus_tag="BBTA_RS00955" class="clusterblast-orf" id="dummy-1_h1_5_17"  />
</g>
<g id="a1_0018"  >
<polygon points="352,85 357,80 362,80 362,90 357,90 352,85 " style="fill:white; stroke-width:1; stroke:black; " description="&lt;b&gt;BBTA_RS00960&lt;/b&gt;&lt;br&gt;DUF2244 domain-containing protein&lt;br&gt;Location: 205873 - 206406" locus_tag="BBTA_RS00960" class="clusterblast-orf" id="dummy-1_h1_5_18"  />
</g>
<g id="a1_0019"  >
<polygon points="362,90 373,90 378,85 373,80 362,80 362,90 " style="fill:white; stroke-width:1; stroke:black; " description="&lt;b&gt;BBTA_RS00965&lt;/b&gt;&lt;br&gt;endonuclease III&lt;br&gt;Location: 206405 - 207253" locus_tag="BBTA_RS00965" class="clusterblast-orf" id="dummy-1_h1_5_19"  />
</g>
<g id="a1_0020"  >
<polygon points="382,90 398,90 403,85 398,80 382,80 382,90 " style="fill:#1551d8; stroke-width:1; stroke:black; " description="&lt;b&gt;BBTA_RS00970&lt;/b&gt;&lt;br&gt;type III polyketide synthase&lt;br&gt;Location: 207464 - 208516&lt;br&gt;&lt;br&gt;&lt;b&gt;BlastP hit with ctg33_47&lt;/b&gt;&lt;br&gt;Percentage identity: 55&lt;br&gt;Percentage coverage: 98&lt;br&gt;BLAST bit score: 363&lt;br&gt;E-value: 3.44e-123" locus_tag="BBTA_RS00970" class="clusterblast-orf" id="dummy-1_h1_5_20"  />
</g>
<g id="a1_0021"  >
<polygon points="403,90 407,90 412,85 407,80 403,80 403,90 " style="fill:#d815c9; stroke-width:1; stroke:black; " description="&lt;b&gt;BBTA_RS00975&lt;/b&gt;&lt;br&gt;membrane protein&lt;br&gt;Location: 208549 - 209019&lt;br&gt;&lt;br&gt;&lt;b&gt;BlastP hit with ctg33_48&lt;/b&gt;&lt;br&gt;Percentage identity: 56&lt;br&gt;Percentage coverage: 91&lt;br&gt;BLAST bit score: 158&lt;br&gt;E-value: 2.3e-48" locus_tag="BBTA_RS00975" class="clusterblast-orf" id="dummy-1_h1_5_21"  />
</g>
<g id="a1_0022"  >
<polygon points="414,90 439,90 444,85 439,80 414,80 414,90 " style="fill:white; stroke-width:1; stroke:black; " description="&lt;b&gt;BBTA_RS00980&lt;/b&gt;&lt;br&gt;MFS transporter&lt;br&gt;Location: 209079 - 210635" locus_tag="BBTA_RS00980" class="clusterblast-orf" id="dummy-1_h1_5_22"  />
</g>
<g id="a1_0023"  >
<polygon points="443,85 448,80 457,80 457,90 448,90 443,85 " style="fill:white; stroke-width:1; stroke:black; " description="&lt;b&gt;BBTA_RS00985&lt;/b&gt;&lt;br&gt;sulfate transporter family protein&lt;br&gt;Location: 210573 - 211325" locus_tag="BBTA_RS00985" class="clusterblast-orf" id="dummy-1_h1_5_23"  />
</g>
<g id="a1_0024"  >
<polygon points="461,85 466,80 509,80 509,90 466,90 461,85 " style="fill:white; stroke-width:1; stroke:black; " description="&lt;b&gt;BBTA_RS00990&lt;/b&gt;&lt;br&gt;heavy metal translocating P-type ATPase&lt;br&gt;Location: 211531 - 214017" locus_tag="BBTA_RS00990" class="clusterblast-orf" id="dummy-1_h1_5_24"  />
</g>
<g id="a1_0025"  >
<polygon points="514,90 514,90 519,85 514,80 514,80 514,90 " style="fill:white; stroke-width:1; stroke:black; " description="&lt;b&gt;BBTA_RS00995&lt;/b&gt;&lt;br&gt;metal-sensitive transcriptional regulator&lt;br&gt;Location: 214268 - 214543" locus_tag="BBTA_RS00995" class="clusterblast-orf" id="dummy-1_h1_5_25"  />
</g>
<g id="a1_0026"  >
<polygon points="519,85 524,80 538,80 538,90 524,90 519,85 " style="fill:white; stroke-width:1; stroke:black; " description="&lt;b&gt;BBTA_RS01000&lt;/b&gt;&lt;br&gt;hypothetical protein&lt;br&gt;Location: 214556 - 215536" locus_tag="BBTA_RS01000" class="clusterblast-orf" id="dummy-1_h1_5_26"  />
</g>
<g id="a1_0027"  >
<polygon points="542,90 564,90 569,85 564,80 542,80 542,90 " style="fill:white; stroke-width:1; stroke:black; " description="&lt;b&gt;BBTA_RS01005&lt;/b&gt;&lt;br&gt;NAD(P)-binding protein&lt;br&gt;Location: 215728 - 217137" locus_tag="BBTA_RS01005" class="clusterblast-orf" id="dummy-1_h1_5_27"  />
</g>
<g id="a1_0028"  >
<polygon points="572,85 577,80 590,80 590,90 577,90 572,85 " style="fill:white; stroke-width:1; stroke:black; " description="&lt;b&gt;BBTA_RS01010&lt;/b&gt;&lt;br&gt;MBL fold metallo-hydrolase&lt;br&gt;Location: 217261 - 218205" locus_tag="BBTA_RS01010" class="clusterblast-orf" id="dummy-1_h1_5_28"  />
</g>
<g id="a1_0029"  >
<polygon points="591,85 596,80 605,80 605,90 596,90 591,85 " style="fill:white; stroke-width:1; stroke:black; " description="&lt;b&gt;BBTA_RS01015&lt;/b&gt;&lt;br&gt;sulfite exporter TauE/SafE family protein&lt;br&gt;Location: 218239 - 219015" locus_tag="BBTA_RS01015" class="clusterblast-orf" id="dummy-1_h1_5_29"  />
</g>
<g id="a1_0030"  >
<polygon points="605,85 610,80 652,80 652,90 610,90 605,85 " style="fill:white; stroke-width:1; stroke:black; " description="&lt;b&gt;BBTA_RS01020&lt;/b&gt;&lt;br&gt;phenylalanine--tRNA ligase subunit beta&lt;br&gt;Location: 219012 - 221420" locus_tag="BBTA_RS01020" class="clusterblast-orf" id="dummy-1_h1_5_30"  />
</g>
<g id="a1_0031"  >
<polygon points="652,85 657,80 660,80 660,90 657,90 652,85 " style="fill:white; stroke-width:1; stroke:black; " description="&lt;b&gt;BBTA_RS01025&lt;/b&gt;&lt;br&gt;endonuclease domain-containing protein&lt;br&gt;Location: 221439 - 221858" locus_tag="BBTA_RS01025" class="clusterblast-orf" id="dummy-1_h1_5_31"  />
</g>
<g id="a1_0032"  >
<polygon points="662,85 667,80 683,80 683,90 667,90 662,85 " style="fill:white; stroke-width:1; stroke:black; " description="&lt;b&gt;BBTA_RS01030&lt;/b&gt;&lt;br&gt;phenylalanine--tRNA ligase subunit alpha&lt;br&gt;Location: 221957 - 223039" locus_tag="BBTA_RS01030" class="clusterblast-orf" id="dummy-1_h1_5_32"  />
</g>
<g id="a1_0033"  >
<polygon points="686,85 691,80 693,80 693,90 691,90 686,85 " style="fill:white; stroke-width:1; stroke:black; " description="&lt;b&gt;BBTA_RS01035&lt;/b&gt;&lt;br&gt;50S ribosomal protein L20&lt;br&gt;Location: 223182 - 223541" locus_tag="BBTA_RS01035" class="clusterblast-orf" id="dummy-1_h1_5_33"  />
</g>
<g id="a1_0034"  >
<polygon points="694,85 698,80 698,90 694,85 " style="fill:white; stroke-width:1; stroke:black; " description="&lt;b&gt;BBTA_RS01040&lt;/b&gt;&lt;br&gt;50S ribosomal protein L35&lt;br&gt;Location: 223619 - 223819" locus_tag="BBTA_RS01040" class="clusterblast-orf" id="dummy-1_h1_5_34"  />
</g>
<g id="a1_0035"  >
<polygon points="703,90 705,90 710,85 705,80 703,80 703,90 " style="fill:white; stroke-width:1; stroke:black; " description="&lt;b&gt;BBTA_RS01045&lt;/b&gt;&lt;br&gt;hypothetical protein&lt;br&gt;Location: 224079 - 224450" locus_tag="BBTA_RS01045" class="clusterblast-orf" id="dummy-1_h1_5_35"  />
</g>
<g id="a1_0036"  >
<polygon points="712,85 717,80 724,80 724,90 717,90 712,85 " style="fill:white; stroke-width:1; stroke:black; " description="&lt;b&gt;BBTA_RS01050&lt;/b&gt;&lt;br&gt;translation initiation factor IF-3&lt;br&gt;Location: 224542 - 225144" locus_tag="BBTA_RS01050" class="clusterblast-orf" id="dummy-1_h1_5_36"  />
</g>
<g id="a1_0037"  >
<polygon points="729,90 739,90 744,85 739,80 729,80 729,90 " style="fill:white; stroke-width:1; stroke:black; " description="&lt;b&gt;BBTA_RS01055&lt;/b&gt;&lt;br&gt;alpha/beta hydrolase&lt;br&gt;Location: 225407 - 226192" locus_tag="BBTA_RS01055" class="clusterblast-orf" id="dummy-1_h1_5_37"  />
</g>
<g id="a1_0038"  >
<polygon points="744,85 749,80 767,80 767,90 749,90 744,85 " style="fill:white; stroke-width:1; stroke:black; " description="&lt;b&gt;BBTA_RS01060&lt;/b&gt;&lt;br&gt;tRNA epoxyqueuosine(34) reductase QueG&lt;br&gt;Location: 226202 - 227386" locus_tag="BBTA_RS01060" class="clusterblast-orf" id="dummy-1_h1_5_38"  />
</g>
<g id="a1_0039"  >
<polygon points="766,85 771,80 780,80 780,90 771,90 766,85 " style="fill:white; stroke-width:1; stroke:black; " description="&lt;b&gt;BBTA_RS01065&lt;/b&gt;&lt;br&gt;glutathione S-transferase family protein&lt;br&gt;Location: 227335 - 228027" locus_tag="BBTA_RS01065" class="clusterblast-orf" id="dummy-1_h1_5_39"  />
</g>
</svg>
