<svg xmlns="http://www.w3.org/2000/svg" xmlns:xlink="http://www.w3.org/1999/xlink" version="1.1" x="0" y="0" height="230" width="800" viewBox="0 0 800 230" preserveAspectRatio="none"  >
<g label="Query sequence" class="clusterblast-cluster"  >
<text x="5" y="20" class="clusterblast-acc"  >
Query sequence</text>
<line x1="10" y1="35" x2="778.0" y2="35" style="stroke-width:1; stroke:grey; "  />
<polygon points="0,35 5,30 34,30 34,40 5,40 0,35 " style="fill:white; stroke-width:1; stroke:black; " description="&lt;b&gt;ctg40_8&lt;/b&gt;&lt;br&gt;ctg40 8&lt;br&gt;Location: 5908 - 6772" locus_tag="ctg40_8" class="clusterblast-orf" id="dummy-1_q0_0_all"  />
<polygon points="39,40 67,40 72,35 67,30 39,30 39,40 " style="fill:white; stroke-width:1; stroke:black; " description="&lt;b&gt;ctg40_9&lt;/b&gt;&lt;br&gt;ctg40 9&lt;br&gt;Location: 6905 - 7760" locus_tag="ctg40_9" class="clusterblast-orf" id="dummy-1_q1_0_all"  />
<polygon points="76,40 101,40 106,35 101,30 76,30 76,40 " style="fill:white; stroke-width:1; stroke:black; " description="&lt;b&gt;ctg40_10&lt;/b&gt;&lt;br&gt;ctg40 10&lt;br&gt;Location: 7861 - 8635" locus_tag="ctg40_10" class="clusterblast-orf" id="dummy-1_q2_0_all"  />
<polygon points="106,40 117,40 122,35 117,30 106,30 106,40 " style="fill:white; stroke-width:1; stroke:black; " description="&lt;b&gt;ctg40_11&lt;/b&gt;&lt;br&gt;ctg40 11&lt;br&gt;Location: 8631 - 9030" locus_tag="ctg40_11" class="clusterblast-orf" id="dummy-1_q3_0_all"  />
<polygon points="122,35 127,30 140,30 140,40 127,40 122,35 " style="fill:white; stroke-width:1; stroke:black; " description="&lt;b&gt;ctg40_12&lt;/b&gt;&lt;br&gt;ctg40 12&lt;br&gt;Location: 9045 - 9492" locus_tag="ctg40_12" class="clusterblast-orf" id="dummy-1_q4_0_all"  />
<polygon points="143,35 148,30 177,30 177,40 148,40 143,35 " style="fill:#d81515; stroke-width:1; stroke:black; " description="&lt;b&gt;ctg40_13&lt;/b&gt;&lt;br&gt;ctg40 13&lt;br&gt;Location: 9580 - 10453" locus_tag="ctg40_13" class="clusterblast-orf" id="dummy-1_q5_0_all"  />
<polygon points="177,35 182,30 245,30 245,40 182,40 177,35 " style="fill:#63d815; stroke-width:1; stroke:black; " description="&lt;b&gt;ctg40_14&lt;/b&gt;&lt;br&gt;ctg40 14&lt;br&gt;Location: 10456 - 12184" locus_tag="ctg40_14" class="clusterblast-orf" id="dummy-1_q6_0_all"  />
<polygon points="247,35 252,30 286,30 286,40 252,40 247,35 " style="fill:#15b1d8; stroke-width:1; stroke:black; " description="&lt;b&gt;ctg40_15&lt;/b&gt;&lt;br&gt;ctg40 15&lt;br&gt;Location: 12236 - 13238" locus_tag="ctg40_15" class="clusterblast-orf" id="dummy-1_q7_0_all"  />
<polygon points="285,35 290,30 313,30 313,40 290,40 285,35 " style="fill:#b115d8; stroke-width:1; stroke:black; " description="&lt;b&gt;ctg40_16&lt;/b&gt;&lt;br&gt;ctg40 16&lt;br&gt;Location: 13234 - 13939" locus_tag="ctg40_16" class="clusterblast-orf" id="dummy-1_q8_0_all"  />
<polygon points="318,40 373,40 378,35 373,30 318,30 318,40 " style="fill:#d86315; stroke-width:1; stroke:black; " description="&lt;b&gt;ctg40_17&lt;/b&gt;&lt;br&gt;ctg40 17&lt;br&gt;Location: 14073 - 15615" locus_tag="ctg40_17" class="clusterblast-orf" id="dummy-1_q9_0_all"  />
<polygon points="378,40 414,40 419,35 414,30 378,30 378,40 " style="fill:#15d815; stroke-width:1; stroke:black; " description="&lt;b&gt;ctg40_18&lt;/b&gt;&lt;br&gt;ctg40 18&lt;br&gt;Location: 15611 - 16658" locus_tag="ctg40_18" class="clusterblast-orf" id="dummy-1_q10_0_all"  />
<polygon points="424,40 437,40 442,35 437,30 424,30 424,40 " style="fill:#1563d8; stroke-width:1; stroke:black; " description="&lt;b&gt;ctg40_19&lt;/b&gt;&lt;br&gt;ctg40 19&lt;br&gt;Location: 16797 - 17256" locus_tag="ctg40_19" class="clusterblast-orf" id="dummy-1_q11_0_all"  />
<polygon points="442,35 447,30 464,30 464,40 447,40 442,35 " style="fill:#d815b1; stroke-width:1; stroke:black; " description="&lt;b&gt;ctg40_20&lt;/b&gt;&lt;br&gt;ctg40 20&lt;br&gt;Location: 17243 - 17819" locus_tag="ctg40_20" class="clusterblast-orf" id="dummy-1_q12_0_all"  />
<polygon points="464,35 469,30 510,30 510,40 469,40 464,35 " style="fill:#d8b115; stroke-width:1; stroke:black; " description="&lt;b&gt;ctg40_21&lt;/b&gt;&lt;br&gt;ctg40 21&lt;br&gt;Location: 17815 - 18997" locus_tag="ctg40_21" class="clusterblast-orf" id="dummy-1_q13_0_all"  />
<polygon points="510,35 515,30 560,30 560,40 515,40 510,35 " style="fill:#15d863; stroke-width:1; stroke:black; " description="&lt;b&gt;ctg40_22&lt;/b&gt;&lt;br&gt;ctg40 22&lt;br&gt;Location: 19000 - 20272" locus_tag="ctg40_22" class="clusterblast-orf" id="dummy-1_q14_0_all"  />
<polygon points="560,35 565,30 593,30 593,40 565,40 560,35 " style="fill:#1515d8; stroke-width:1; stroke:black; " description="&lt;b&gt;ctg40_23&lt;/b&gt;&lt;br&gt;ctg40 23&lt;br&gt;Location: 20268 - 21117" locus_tag="ctg40_23" class="clusterblast-orf" id="dummy-1_q15_0_all"  />
<polygon points="598,35 603,30 621,30 621,40 603,40 598,35 " style="fill:#d81563; stroke-width:1; stroke:black; " description="&lt;b&gt;ctg40_24&lt;/b&gt;&lt;br&gt;ctg40 24&lt;br&gt;Location: 21248 - 21842" locus_tag="ctg40_24" class="clusterblast-orf" id="dummy-1_q16_0_all"  />
<polygon points="621,35 626,30 687,30 687,40 626,40 621,35 " style="fill:#b1d815; stroke-width:1; stroke:black; " description="&lt;b&gt;ctg40_25&lt;/b&gt;&lt;br&gt;ctg40 25&lt;br&gt;Location: 21847 - 23542" locus_tag="ctg40_25" class="clusterblast-orf" id="dummy-1_q17_0_all"  />
<polygon points="691,35 696,30 747,30 747,40 696,40 691,35 " style="fill:#15d8b1; stroke-width:1; stroke:black; " description="&lt;b&gt;ctg40_26&lt;/b&gt;&lt;br&gt;ctg40 26&lt;br&gt;Location: 23633 - 25061" locus_tag="ctg40_26" class="clusterblast-orf" id="dummy-1_q18_0_all"  />
<polygon points="749,35 754,30 780,30 780,40 754,40 749,35 " style="fill:#6315d8; stroke-width:1; stroke:black; " description="&lt;b&gt;ctg40_27&lt;/b&gt;&lt;br&gt;ctg40 27&lt;br&gt;Location: 25119 - 25917" locus_tag="ctg40_27" class="clusterblast-orf" id="dummy-1_q19_0_all"  />
</g>
<g label="NZ_CP034328" description="NZ_CP034328 (3886230-3907250): Tabrizicola piscis strain K13M18 chromosome, c... (58% of genes show similarity), terpene" class="clusterblast-cluster"  >
<text x="5" y="70" class="clusterblast-acc"  >
<a xlink:href="https://antismash-db.secondarymetabolites.org/area.html?record=NZ_CP034328&amp;start=3886230&amp;end=3907250" target="_blank">NZ_CP034328 (3886230-3907250)</a>: Tabrizicola piscis strain K13M18 chromosome, c... (58% of genes show similarity), terpene</text>
<line x1="10" y1="85" x2="778.0" y2="85" style="stroke-width:1; stroke:grey; "  />
</g>
<g id="a1_000"  >
<polygon points="17,90 62,90 67,85 62,80 17,80 17,90 " style="fill:#15d863; stroke-width:1; stroke:black; " description="&lt;b&gt;EI545_RS18870&lt;/b&gt;&lt;br&gt;BCD family MFS transporter&lt;br&gt;Location: 3886993 - 3888279&lt;br&gt;&lt;br&gt;&lt;b&gt;BlastP hit with ctg40_22&lt;/b&gt;&lt;br&gt;Percentage identity: 55&lt;br&gt;Percentage coverage: 101&lt;br&gt;BLAST bit score: 402&lt;br&gt;E-value: 3.88e-136" locus_tag="EI545_RS18870" class="clusterblast-orf" id="dummy-1_h1_8_0"  />
</g>
<g id="a1_001"  >
<polygon points="67,90 108,90 113,85 108,80 67,80 67,90 " style="fill:#d8b115; stroke-width:1; stroke:black; " description="&lt;b&gt;EI545_RS18875&lt;/b&gt;&lt;br&gt;geranylgeranyl diphosphate reductase&lt;br&gt;Location: 3888281 - 3889462&lt;br&gt;&lt;br&gt;&lt;b&gt;BlastP hit with ctg40_21&lt;/b&gt;&lt;br&gt;Percentage identity: 82&lt;br&gt;Percentage coverage: 100&lt;br&gt;BLAST bit score: 651&lt;br&gt;E-value: 1.29e-235" locus_tag="EI545_RS18875" class="clusterblast-orf" id="dummy-1_h1_8_1"  />
</g>
<g id="a1_002"  >
<polygon points="114,90 130,90 135,85 130,80 114,80 114,90 " style="fill:#d815b1; stroke-width:1; stroke:black; " description="&lt;b&gt;EI545_RS18880&lt;/b&gt;&lt;br&gt;isopentenyl-diphosphate Delta-isomerase&lt;br&gt;Location: 3889477 - 3890013&lt;br&gt;&lt;br&gt;&lt;b&gt;BlastP hit with ctg40_20&lt;/b&gt;&lt;br&gt;Percentage identity: 59&lt;br&gt;Percentage coverage: 90&lt;br&gt;BLAST bit score: 219&lt;br&gt;E-value: 1.38e-71" locus_tag="EI545_RS18880" class="clusterblast-orf" id="dummy-1_h1_8_2"  />
</g>
<g id="a1_003"  >
<polygon points="137,85 142,80 170,80 170,90 142,90 137,85 " style="fill:#d81515; stroke-width:1; stroke:black; " description="&lt;b&gt;EI545_RS18885&lt;/b&gt;&lt;br&gt;alpha/beta fold hydrolase&lt;br&gt;Location: 3890086 - 3890931&lt;br&gt;&lt;br&gt;&lt;b&gt;BlastP hit with ctg40_13&lt;/b&gt;&lt;br&gt;Percentage identity: 53&lt;br&gt;Percentage coverage: 96&lt;br&gt;BLAST bit score: 286&lt;br&gt;E-value: 4.53e-95" locus_tag="EI545_RS18885" class="clusterblast-orf" id="dummy-1_h1_8_3"  />
</g>
<g id="a1_004"  >
<polygon points="170,85 175,80 236,80 236,90 175,90 170,85 " style="fill:#63d815; stroke-width:1; stroke:black; " description="&lt;b&gt;EI545_RS18890&lt;/b&gt;&lt;br&gt;magnesium chelatase subunit D&lt;br&gt;Location: 3890933 - 3892624&lt;br&gt;&lt;br&gt;&lt;b&gt;BlastP hit with ctg40_14&lt;/b&gt;&lt;br&gt;Percentage identity: 55&lt;br&gt;Percentage coverage: 97&lt;br&gt;BLAST bit score: 499&lt;br&gt;E-value: 2.97e-170" locus_tag="EI545_RS18890" class="clusterblast-orf" id="dummy-1_h1_8_4"  />
</g>
<g id="a1_005"  >
<polygon points="238,85 243,80 278,80 278,90 243,90 238,85 " style="fill:#15b1d8; stroke-width:1; stroke:black; " description="&lt;b&gt;EI545_RS18895&lt;/b&gt;&lt;br&gt;magnesium chelatase ATPase subunit I&lt;br&gt;Location: 3892660 - 3893682&lt;br&gt;&lt;br&gt;&lt;b&gt;BlastP hit with ctg40_15&lt;/b&gt;&lt;br&gt;Percentage identity: 81&lt;br&gt;Percentage coverage: 99&lt;br&gt;BLAST bit score: 515&lt;br&gt;E-value: 1.38e-183" locus_tag="EI545_RS18895" class="clusterblast-orf" id="dummy-1_h1_8_5"  />
</g>
<g id="a1_006"  >
<polygon points="284,85 289,80 311,80 311,90 289,90 284,85 " style="fill:#b115d8; stroke-width:1; stroke:black; " description="&lt;b&gt;EI545_RS18900&lt;/b&gt;&lt;br&gt;spheroidene monooxygenase&lt;br&gt;Location: 3893849 - 3894541&lt;br&gt;&lt;br&gt;&lt;b&gt;BlastP hit with ctg40_16&lt;/b&gt;&lt;br&gt;Percentage identity: 63&lt;br&gt;Percentage coverage: 99&lt;br&gt;BLAST bit score: 299&lt;br&gt;E-value: 1.43e-101" locus_tag="EI545_RS18900" class="clusterblast-orf" id="dummy-1_h1_8_6"  />
</g>
<g id="a1_007"  >
<polygon points="316,90 372,90 377,85 372,80 316,80 316,90 " style="fill:#d86315; stroke-width:1; stroke:black; " description="&lt;b&gt;EI545_RS18905&lt;/b&gt;&lt;br&gt;phytoene desaturase&lt;br&gt;Location: 3894663 - 3896234&lt;br&gt;&lt;br&gt;&lt;b&gt;BlastP hit with ctg40_17&lt;/b&gt;&lt;br&gt;Percentage identity: 72&lt;br&gt;Percentage coverage: 98&lt;br&gt;BLAST bit score: 746&lt;br&gt;E-value: 6.23e-269" locus_tag="EI545_RS18905" class="clusterblast-orf" id="dummy-1_h1_8_7"  />
</g>
<g id="a1_008"  >
<polygon points="377,90 412,90 417,85 412,80 377,80 377,90 " style="fill:#15d815; stroke-width:1; stroke:black; " description="&lt;b&gt;EI545_RS18910&lt;/b&gt;&lt;br&gt;phytoene/squalene synthase family protein&lt;br&gt;Location: 3896231 - 3897250&lt;br&gt;&lt;br&gt;&lt;b&gt;BlastP hit with ctg40_18&lt;/b&gt;&lt;br&gt;Percentage identity: 66&lt;br&gt;Percentage coverage: 96&lt;br&gt;BLAST bit score: 408&lt;br&gt;E-value: 3.16e-141" locus_tag="EI545_RS18910" class="clusterblast-orf" id="dummy-1_h1_8_8"  />
</g>
<g id="a1_009"  >
<polygon points="419,90 432,90 437,85 432,80 419,80 419,90 " style="fill:#1563d8; stroke-width:1; stroke:black; " description="&lt;b&gt;EI545_RS18915&lt;/b&gt;&lt;br&gt;tryptophan-rich sensory protein&lt;br&gt;Location: 3897306 - 3897782&lt;br&gt;&lt;br&gt;&lt;b&gt;BlastP hit with ctg40_19&lt;/b&gt;&lt;br&gt;Percentage identity: 54&lt;br&gt;Percentage coverage: 98&lt;br&gt;BLAST bit score: 167&lt;br&gt;E-value: 3.81e-52" locus_tag="EI545_RS18915" class="clusterblast-orf" id="dummy-1_h1_8_9"  />
</g>
<g id="a1_0010"  >
<polygon points="440,85 445,80 473,80 473,90 445,90 440,85 " style="fill:white; stroke-width:1; stroke:black; " description="&lt;b&gt;EI545_RS18920&lt;/b&gt;&lt;br&gt;carotenoid 1,2-hydratase&lt;br&gt;Location: 3897857 - 3898699" locus_tag="EI545_RS18920" class="clusterblast-orf" id="dummy-1_h1_8_10"  />
</g>
<g id="a1_0011"  >
<polygon points="473,85 478,80 535,80 535,90 478,90 473,85 " style="fill:white; stroke-width:1; stroke:black; " description="&lt;b&gt;EI545_RS18925&lt;/b&gt;&lt;br&gt;phytoene desaturase&lt;br&gt;Location: 3898696 - 3900276" locus_tag="EI545_RS18925" class="clusterblast-orf" id="dummy-1_h1_8_11"  />
</g>
<g id="a1_0012"  >
<polygon points="541,90 571,90 576,85 571,80 541,80 541,90 " style="fill:white; stroke-width:1; stroke:black; " description="&lt;b&gt;EI545_RS18930&lt;/b&gt;&lt;br&gt;polyprenyl synthetase family protein&lt;br&gt;Location: 3900431 - 3901333" locus_tag="EI545_RS18930" class="clusterblast-orf" id="dummy-1_h1_8_12"  />
</g>
<g id="a1_0013"  >
<polygon points="576,90 615,90 620,85 615,80 576,80 576,90 " style="fill:white; stroke-width:1; stroke:black; " description="&lt;b&gt;EI545_RS18935&lt;/b&gt;&lt;br&gt;methyltransferase domain-containing protein&lt;br&gt;Location: 3901330 - 3902472" locus_tag="EI545_RS18935" class="clusterblast-orf" id="dummy-1_h1_8_13"  />
</g>
<g id="a1_0014"  >
<polygon points="624,90 656,90 661,85 656,80 624,80 624,90 " style="fill:white; stroke-width:1; stroke:black; " description="&lt;b&gt;EI545_RS18940&lt;/b&gt;&lt;br&gt;chlorophyll synthesis pathway protein BchC&lt;br&gt;Location: 3902562 - 3903506" locus_tag="EI545_RS18940" class="clusterblast-orf" id="dummy-1_h1_8_14"  />
</g>
<g id="a1_0015"  >
<polygon points="660,90 695,90 700,85 695,80 660,80 660,90 " style="fill:white; stroke-width:1; stroke:black; " description="&lt;b&gt;EI545_RS18945&lt;/b&gt;&lt;br&gt;chlorophyllide a reductase iron protein subunit X&lt;br&gt;Location: 3903503 - 3904504" locus_tag="EI545_RS18945" class="clusterblast-orf" id="dummy-1_h1_8_15"  />
</g>
<g id="a1_0016"  >
<polygon points="702,90 757,90 762,85 757,80 702,80 702,90 " style="fill:white; stroke-width:1; stroke:black; " description="&lt;b&gt;EI545_RS18950&lt;/b&gt;&lt;br&gt;chlorophyllide a reductase subunit Y&lt;br&gt;Location: 3904568 - 3906109" locus_tag="EI545_RS18950" class="clusterblast-orf" id="dummy-1_h1_8_16"  />
</g>
</svg>
