<svg xmlns="http://www.w3.org/2000/svg" xmlns:xlink="http://www.w3.org/1999/xlink" version="1.1" x="0" y="0" height="230" width="800" viewBox="0 0 800 230" preserveAspectRatio="none"  >
<g label="Query sequence" class="clusterblast-cluster"  >
<text x="5" y="20" class="clusterblast-acc"  >
Query sequence</text>
<line x1="10" y1="35" x2="778.0" y2="35" style="stroke-width:1; stroke:grey; "  />
<polygon points="0,40 53,40 58,35 53,30 0,30 0,40 " style="fill:white; stroke-width:1; stroke:black; " description="&lt;b&gt;ctg11_317&lt;/b&gt;&lt;br&gt;ctg11 317&lt;br&gt;Location: 323700 - 324357" locus_tag="ctg11_317" class="clusterblast-orf" id="dummy-1_q0_0_all"  />
<polygon points="62,40 156,40 161,35 156,30 62,30 62,40 " style="fill:white; stroke-width:1; stroke:black; " description="&lt;b&gt;ctg11_318&lt;/b&gt;&lt;br&gt;ctg11 318&lt;br&gt;Location: 324410 - 325550" locus_tag="ctg11_318" class="clusterblast-orf" id="dummy-1_q1_0_all"  />
<polygon points="162,35 167,30 204,30 204,40 167,40 162,35 " style="fill:white; stroke-width:1; stroke:black; " description="&lt;b&gt;ctg11_319&lt;/b&gt;&lt;br&gt;ctg11 319&lt;br&gt;Location: 325560 - 326046" locus_tag="ctg11_319" class="clusterblast-orf" id="dummy-1_q2_0_all"  />
<polygon points="227,40 269,40 274,35 269,30 227,30 227,40 " style="fill:#d81515; stroke-width:1; stroke:black; " description="&lt;b&gt;ctg11_320&lt;/b&gt;&lt;br&gt;ctg11 320&lt;br&gt;Location: 326307 - 326850" locus_tag="ctg11_320" class="clusterblast-orf" id="dummy-1_q3_0_all"  />
<polygon points="280,40 387,40 392,35 387,30 280,30 280,40 " style="fill:#77d815; stroke-width:1; stroke:black; " description="&lt;b&gt;ctg11_321&lt;/b&gt;&lt;br&gt;ctg11 321&lt;br&gt;Location: 326918 - 328199" locus_tag="ctg11_321" class="clusterblast-orf" id="dummy-1_q4_0_all"  />
<polygon points="392,40 421,40 426,35 421,30 392,30 392,40 " style="fill:#15d8d8; stroke-width:1; stroke:black; " description="&lt;b&gt;ctg11_322&lt;/b&gt;&lt;br&gt;ctg11 322&lt;br&gt;Location: 328204 - 328591" locus_tag="ctg11_322" class="clusterblast-orf" id="dummy-1_q5_0_all"  />
<polygon points="429,40 549,40 554,35 549,30 429,30 429,40 " style="fill:#7715d8; stroke-width:1; stroke:black; " description="&lt;b&gt;ctg11_323&lt;/b&gt;&lt;br&gt;ctg11 323&lt;br&gt;Location: 328633 - 330064" locus_tag="ctg11_323" class="clusterblast-orf" id="dummy-1_q6_0_all"  />
<polygon points="556,40 600,40 605,35 600,30 556,30 556,40 " style="fill:white; stroke-width:1; stroke:black; " description="&lt;b&gt;ctg11_324&lt;/b&gt;&lt;br&gt;ctg11 324&lt;br&gt;Location: 330094 - 330652" locus_tag="ctg11_324" class="clusterblast-orf" id="dummy-1_q7_0_all"  />
<polygon points="605,35 610,30 625,30 625,40 610,40 605,35 " style="fill:white; stroke-width:1; stroke:black; " description="&lt;b&gt;ctg11_325&lt;/b&gt;&lt;br&gt;ctg11 325&lt;br&gt;Location: 330648 - 330882" locus_tag="ctg11_325" class="clusterblast-orf" id="dummy-1_q8_0_all"  />
<polygon points="631,35 636,30 668,30 668,40 636,40 631,35 " style="fill:white; stroke-width:1; stroke:black; " description="&lt;b&gt;ctg11_326&lt;/b&gt;&lt;br&gt;ctg11 326&lt;br&gt;Location: 330947 - 331376" locus_tag="ctg11_326" class="clusterblast-orf" id="dummy-1_q9_0_all"  />
<polygon points="672,35 677,30 780,30 780,40 677,40 672,35 " style="fill:white; stroke-width:1; stroke:black; " description="&lt;b&gt;ctg11_327&lt;/b&gt;&lt;br&gt;ctg11 327&lt;br&gt;Location: 331423 - 332668" locus_tag="ctg11_327" class="clusterblast-orf" id="dummy-1_q10_0_all"  />
</g>
<g label="BGC0000852" description="BGC0000852_c1: ectoine (66% of genes show similarity), Other" class="clusterblast-cluster"  >
<text x="5" y="70" class="clusterblast-acc"  >
<a xlink:href="https://mibig.secondarymetabolites.org/go/BGC0000852/1" target="_blank">BGC0000852</a>: ectoine                                                                          (66% of genes show similarity), Other</text>
<line x1="10" y1="85" x2="778.0" y2="85" style="stroke-width:1; stroke:grey; "  />
</g>
<g id="a1_000"  >
<polygon points="283,90 326,90 331,85 326,80 283,80 283,90 " style="fill:white; stroke-width:1; stroke:black; " description="&lt;b&gt;AAK12083.1&lt;/b&gt;&lt;br&gt;EctA&lt;br&gt;Location: 416 - 958" locus_tag="AAK12083.1" class="clusterblast-orf" id="dummy-1_h1_9_0"  />
</g>
<g id="a1_001"  >
<polygon points="335,90 441,90 446,85 441,80 335,80 335,90 " style="fill:#77d815; stroke-width:1; stroke:black; " description="&lt;b&gt;AAK12084.1&lt;/b&gt;&lt;br&gt;EctB&lt;br&gt;Location: 1010 - 2290&lt;br&gt;&lt;br&gt;&lt;b&gt;BlastP hit with ctg11_321&lt;/b&gt;&lt;br&gt;Percentage identity: 49&lt;br&gt;Percentage coverage: 97&lt;br&gt;BLAST bit score: 413&lt;br&gt;E-value: 3.23e-142" locus_tag="AAK12084.1" class="clusterblast-orf" id="dummy-1_h1_9_1"  />
</g>
<g id="a1_002"  >
<polygon points="460,90 491,90 496,85 491,80 460,80 460,90 " style="fill:#15d8d8; stroke-width:1; stroke:black; " description="&lt;b&gt;AAK12085.1&lt;/b&gt;&lt;br&gt;EctC&lt;br&gt;Location: 2450 - 2854&lt;br&gt;&lt;br&gt;&lt;b&gt;BlastP hit with ctg11_322&lt;/b&gt;&lt;br&gt;Percentage identity: 49&lt;br&gt;Percentage coverage: 98&lt;br&gt;BLAST bit score: 120&lt;br&gt;E-value: 9.72e-36" locus_tag="AAK12085.1" class="clusterblast-orf" id="dummy-1_h1_9_2"  />
</g>
</svg>
