<svg xmlns="http://www.w3.org/2000/svg" xmlns:xlink="http://www.w3.org/1999/xlink" version="1.1" x="0" y="0" height="230" width="800" viewBox="0 0 800 230" preserveAspectRatio="none"  >
<g label="Query sequence" class="clusterblast-cluster"  >
<text x="5" y="20" class="clusterblast-acc"  >
Query sequence</text>
<line x1="10" y1="35" x2="778.0" y2="35" style="stroke-width:1; stroke:grey; "  />
<polygon points="0,40 53,40 58,35 53,30 0,30 0,40 " style="fill:white; stroke-width:1; stroke:black; " description="&lt;b&gt;ctg11_317&lt;/b&gt;&lt;br&gt;ctg11 317&lt;br&gt;Location: 323700 - 324357" locus_tag="ctg11_317" class="clusterblast-orf" id="dummy-1_q0_0_all"  />
<polygon points="62,40 156,40 161,35 156,30 62,30 62,40 " style="fill:white; stroke-width:1; stroke:black; " description="&lt;b&gt;ctg11_318&lt;/b&gt;&lt;br&gt;ctg11 318&lt;br&gt;Location: 324410 - 325550" locus_tag="ctg11_318" class="clusterblast-orf" id="dummy-1_q1_0_all"  />
<polygon points="162,35 167,30 204,30 204,40 167,40 162,35 " style="fill:white; stroke-width:1; stroke:black; " description="&lt;b&gt;ctg11_319&lt;/b&gt;&lt;br&gt;ctg11 319&lt;br&gt;Location: 325560 - 326046" locus_tag="ctg11_319" class="clusterblast-orf" id="dummy-1_q2_0_all"  />
<polygon points="227,40 269,40 274,35 269,30 227,30 227,40 " style="fill:#d81515; stroke-width:1; stroke:black; " description="&lt;b&gt;ctg11_320&lt;/b&gt;&lt;br&gt;ctg11 320&lt;br&gt;Location: 326307 - 326850" locus_tag="ctg11_320" class="clusterblast-orf" id="dummy-1_q3_0_all"  />
<polygon points="280,40 387,40 392,35 387,30 280,30 280,40 " style="fill:#77d815; stroke-width:1; stroke:black; " description="&lt;b&gt;ctg11_321&lt;/b&gt;&lt;br&gt;ctg11 321&lt;br&gt;Location: 326918 - 328199" locus_tag="ctg11_321" class="clusterblast-orf" id="dummy-1_q4_0_all"  />
<polygon points="392,40 421,40 426,35 421,30 392,30 392,40 " style="fill:#15d8d8; stroke-width:1; stroke:black; " description="&lt;b&gt;ctg11_322&lt;/b&gt;&lt;br&gt;ctg11 322&lt;br&gt;Location: 328204 - 328591" locus_tag="ctg11_322" class="clusterblast-orf" id="dummy-1_q5_0_all"  />
<polygon points="429,40 549,40 554,35 549,30 429,30 429,40 " style="fill:#7715d8; stroke-width:1; stroke:black; " description="&lt;b&gt;ctg11_323&lt;/b&gt;&lt;br&gt;ctg11 323&lt;br&gt;Location: 328633 - 330064" locus_tag="ctg11_323" class="clusterblast-orf" id="dummy-1_q6_0_all"  />
<polygon points="556,40 600,40 605,35 600,30 556,30 556,40 " style="fill:white; stroke-width:1; stroke:black; " description="&lt;b&gt;ctg11_324&lt;/b&gt;&lt;br&gt;ctg11 324&lt;br&gt;Location: 330094 - 330652" locus_tag="ctg11_324" class="clusterblast-orf" id="dummy-1_q7_0_all"  />
<polygon points="605,35 610,30 625,30 625,40 610,40 605,35 " style="fill:white; stroke-width:1; stroke:black; " description="&lt;b&gt;ctg11_325&lt;/b&gt;&lt;br&gt;ctg11 325&lt;br&gt;Location: 330648 - 330882" locus_tag="ctg11_325" class="clusterblast-orf" id="dummy-1_q8_0_all"  />
<polygon points="631,35 636,30 668,30 668,40 636,40 631,35 " style="fill:white; stroke-width:1; stroke:black; " description="&lt;b&gt;ctg11_326&lt;/b&gt;&lt;br&gt;ctg11 326&lt;br&gt;Location: 330947 - 331376" locus_tag="ctg11_326" class="clusterblast-orf" id="dummy-1_q9_0_all"  />
<polygon points="672,35 677,30 780,30 780,40 677,40 672,35 " style="fill:white; stroke-width:1; stroke:black; " description="&lt;b&gt;ctg11_327&lt;/b&gt;&lt;br&gt;ctg11 327&lt;br&gt;Location: 331423 - 332668" locus_tag="ctg11_327" class="clusterblast-orf" id="dummy-1_q10_0_all"  />
</g>
<g label="BGC0000860" description="BGC0000860_c1: ectoine (80% of genes show similarity), Other" class="clusterblast-cluster"  >
<text x="5" y="70" class="clusterblast-acc"  >
<a xlink:href="https://mibig.secondarymetabolites.org/go/BGC0000860/1" target="_blank">BGC0000860</a>: ectoine                                                                          (80% of genes show similarity), Other</text>
<line x1="10" y1="85" x2="778.0" y2="85" style="stroke-width:1; stroke:grey; "  />
</g>
<g id="a1_000"  >
<polygon points="197,85 202,80 245,80 245,90 202,90 197,85 " style="fill:white; stroke-width:1; stroke:black; " description="&lt;b&gt;ADA71973.1&lt;/b&gt;&lt;br&gt;MarR family transcriptional regulator&lt;br&gt;Location: 711 - 1265" locus_tag="ADA71973.1" class="clusterblast-orf" id="dummy-1_h1_1_0"  />
</g>
<g id="a1_001"  >
<polygon points="261,90 303,90 308,85 303,80 261,80 261,90 " style="fill:#d81515; stroke-width:1; stroke:black; " description="&lt;b&gt;ADA71974.1&lt;/b&gt;&lt;br&gt;L-2,4-diaminobutyric acid acetyltransferase&lt;br&gt;Location: 1441 - 1986&lt;br&gt;&lt;br&gt;&lt;b&gt;BlastP hit with ctg11_320&lt;/b&gt;&lt;br&gt;Percentage identity: 55&lt;br&gt;Percentage coverage: 97&lt;br&gt;BLAST bit score: 205&lt;br&gt;E-value: 8.24e-68" locus_tag="ADA71974.1" class="clusterblast-orf" id="dummy-1_h1_1_1"  />
</g>
<g id="a1_002"  >
<polygon points="313,90 420,90 425,85 420,80 313,80 313,90 " style="fill:#77d815; stroke-width:1; stroke:black; " description="&lt;b&gt;ADA71975.1&lt;/b&gt;&lt;br&gt;L-2,4-diaminobutyrate transaminase&lt;br&gt;Location: 2042 - 3334&lt;br&gt;&lt;br&gt;&lt;b&gt;BlastP hit with ctg11_321&lt;/b&gt;&lt;br&gt;Percentage identity: 64&lt;br&gt;Percentage coverage: 100&lt;br&gt;BLAST bit score: 548&lt;br&gt;E-value: 2.97e-195" locus_tag="ADA71975.1" class="clusterblast-orf" id="dummy-1_h1_1_2"  />
</g>
<g id="a1_003"  >
<polygon points="426,90 455,90 460,85 455,80 426,80 426,90 " style="fill:#15d8d8; stroke-width:1; stroke:black; " description="&lt;b&gt;ADA71976.1&lt;/b&gt;&lt;br&gt;L-ectoine synthase&lt;br&gt;Location: 3342 - 3737&lt;br&gt;&lt;br&gt;&lt;b&gt;BlastP hit with ctg11_322&lt;/b&gt;&lt;br&gt;Percentage identity: 78&lt;br&gt;Percentage coverage: 97&lt;br&gt;BLAST bit score: 214&lt;br&gt;E-value: 3.24e-73" locus_tag="ADA71976.1" class="clusterblast-orf" id="dummy-1_h1_1_3"  />
</g>
<g id="a1_004"  >
<polygon points="461,90 577,90 582,85 577,80 461,80 461,90 " style="fill:#7715d8; stroke-width:1; stroke:black; " description="&lt;b&gt;ADA71977.1&lt;/b&gt;&lt;br&gt;aspartokinase&lt;br&gt;Location: 3740 - 5134&lt;br&gt;&lt;br&gt;&lt;b&gt;BlastP hit with ctg11_323&lt;/b&gt;&lt;br&gt;Percentage identity: 64&lt;br&gt;Percentage coverage: 97&lt;br&gt;BLAST bit score: 593&lt;br&gt;E-value: 1.16e-211" locus_tag="ADA71977.1" class="clusterblast-orf" id="dummy-1_h1_1_4"  />
</g>
</svg>
