<svg xmlns="http://www.w3.org/2000/svg" xmlns:xlink="http://www.w3.org/1999/xlink" version="1.1" x="0" y="0" height="230" width="800" viewBox="0 0 800 230" preserveAspectRatio="none"  >
<g label="Query sequence" class="clusterblast-cluster"  >
<text x="5" y="20" class="clusterblast-acc"  >
Query sequence</text>
<line x1="10" y1="35" x2="778.0" y2="35" style="stroke-width:1; stroke:grey; "  />
<polygon points="18,40 87,40 92,35 87,30 18,30 18,40 " style="fill:#d81515; stroke-width:1; stroke:black; " description="&lt;b&gt;OCIILLLM_03012&lt;/b&gt;&lt;br&gt;ABC transporter ATP-binding protein uup&lt;br&gt;Location: 1056 - 2910" locus_tag="OCIILLLM_03012" class="clusterblast-orf" id="dummy-1_q0_0_all"  />
<polygon points="101,40 120,40 125,35 120,30 101,30 101,40 " style="fill:#77d815; stroke-width:1; stroke:black; " description="&lt;b&gt;OCIILLLM_03013&lt;/b&gt;&lt;br&gt;hypothetical protein&lt;br&gt;Location: 3130 - 3727" locus_tag="OCIILLLM_03013" class="clusterblast-orf" id="dummy-1_q1_0_all"  />
<polygon points="126,35 131,30 145,30 145,40 131,40 126,35 " style="fill:#15d8d8; stroke-width:1; stroke:black; " description="&lt;b&gt;OCIILLLM_03014&lt;/b&gt;&lt;br&gt;hypothetical protein&lt;br&gt;Location: 3752 - 4229" locus_tag="OCIILLLM_03014" class="clusterblast-orf" id="dummy-1_q2_0_all"  />
<polygon points="147,35 152,30 203,30 203,40 152,40 147,35 " style="fill:#7715d8; stroke-width:1; stroke:black; " description="&lt;b&gt;OCIILLLM_03015&lt;/b&gt;&lt;br&gt;Tryptophan decarboxylase&lt;br&gt;Location: 4289 - 5678" locus_tag="OCIILLLM_03015" class="clusterblast-orf" id="dummy-1_q3_0_all"  />
<polygon points="210,40 230,40 235,35 230,30 210,30 210,40 " style="fill:#d85e15; stroke-width:1; stroke:black; " description="&lt;b&gt;OCIILLLM_03016&lt;/b&gt;&lt;br&gt;hypothetical protein&lt;br&gt;Location: 5861 - 6485" locus_tag="OCIILLLM_03016" class="clusterblast-orf" id="dummy-1_q4_0_all"  />
<polygon points="245,40 304,40 309,35 304,30 245,30 245,40 " style="fill:#2ed815; stroke-width:1; stroke:black; " description="&lt;b&gt;OCIILLLM_03017&lt;/b&gt;&lt;br&gt;Cysteine--tRNA ligase&lt;br&gt;Location: 6731 - 8333" locus_tag="OCIILLLM_03017" class="clusterblast-orf" id="dummy-1_q5_0_all"  />
<polygon points="309,40 369,40 374,35 369,30 309,30 309,40 " style="fill:#158fd8; stroke-width:1; stroke:black; " description="&lt;b&gt;OCIILLLM_03018&lt;/b&gt;&lt;br&gt;(R)-citramalate synthase&lt;br&gt;Location: 8329 - 9967" locus_tag="OCIILLLM_03018" class="clusterblast-orf" id="dummy-1_q6_0_all"  />
<polygon points="374,40 399,40 404,35 399,30 374,30 374,40 " style="fill:#c015d8; stroke-width:1; stroke:black; " description="&lt;b&gt;OCIILLLM_03019&lt;/b&gt;&lt;br&gt;hypothetical protein&lt;br&gt;Location: 9963 - 10722" locus_tag="OCIILLLM_03019" class="clusterblast-orf" id="dummy-1_q7_0_all"  />
<polygon points="405,35 410,30 453,30 453,40 410,40 405,35 " style="fill:#d8a715; stroke-width:1; stroke:black; " description="&lt;b&gt;OCIILLLM_03020&lt;/b&gt;&lt;br&gt;Riboflavin transporter RfnT&lt;br&gt;Location: 10731 - 11937" locus_tag="OCIILLLM_03020" class="clusterblast-orf" id="dummy-1_q8_0_all"  />
<polygon points="455,40 475,40 480,35 475,30 455,30 455,40 " style="fill:#15d846; stroke-width:1; stroke:black; " description="&lt;b&gt;OCIILLLM_03021&lt;/b&gt;&lt;br&gt;hypothetical protein&lt;br&gt;Location: 11983 - 12616" locus_tag="OCIILLLM_03021" class="clusterblast-orf" id="dummy-1_q9_0_all"  />
<polygon points="480,40 501,40 506,35 501,30 480,30 480,40 " style="fill:#1546d8; stroke-width:1; stroke:black; " description="&lt;b&gt;OCIILLLM_03022&lt;/b&gt;&lt;br&gt;hypothetical protein&lt;br&gt;Location: 12612 - 13272" locus_tag="OCIILLLM_03022" class="clusterblast-orf" id="dummy-1_q10_0_all"  />
<polygon points="510,35 515,30 549,30 549,40 515,40 510,35 " style="fill:#d815a7; stroke-width:1; stroke:black; " description="&lt;b&gt;OCIILLLM_03023&lt;/b&gt;&lt;br&gt;Glucokinase&lt;br&gt;Location: 13362 - 14343" locus_tag="OCIILLLM_03023" class="clusterblast-orf" id="dummy-1_q11_0_all"  />
<polygon points="549,35 554,30 602,30 602,40 554,40 549,35 " style="fill:#c0d815; stroke-width:1; stroke:black; " description="&lt;b&gt;OCIILLLM_03024&lt;/b&gt;&lt;br&gt;Beta-glucosidase A&lt;br&gt;Location: 14352 - 15684" locus_tag="OCIILLLM_03024" class="clusterblast-orf" id="dummy-1_q12_0_all"  />
<polygon points="604,35 609,30 645,30 645,40 609,40 604,35 " style="fill:#15d88f; stroke-width:1; stroke:black; " description="&lt;b&gt;OCIILLLM_03025&lt;/b&gt;&lt;br&gt;HTH-type transcriptional regulator RafR&lt;br&gt;Location: 15712 - 16744" locus_tag="OCIILLLM_03025" class="clusterblast-orf" id="dummy-1_q13_0_all"  />
<polygon points="655,40 703,40 708,35 703,30 655,30 655,40 " style="fill:#2e15d8; stroke-width:1; stroke:black; " description="&lt;b&gt;OCIILLLM_03026&lt;/b&gt;&lt;br&gt;hypothetical protein&lt;br&gt;Location: 16987 - 18334" locus_tag="OCIILLLM_03026" class="clusterblast-orf" id="dummy-1_q14_0_all"  />
<polygon points="713,40 757,40 762,35 757,30 713,30 713,40 " style="fill:#d8155e; stroke-width:1; stroke:black; " description="&lt;b&gt;OCIILLLM_03027&lt;/b&gt;&lt;br&gt;hypothetical protein&lt;br&gt;Location: 18448 - 19675" locus_tag="OCIILLLM_03027" class="clusterblast-orf" id="dummy-1_q15_0_all"  />
</g>
<g label="NZ_JAAIKE010000001" description="NZ_JAAIKE010000001 (485895-506654): Rhodobacter sp. ETT8 contig1, whole genom... (70% of genes show similarity), terpene" class="clusterblast-cluster"  >
<text x="5" y="70" class="clusterblast-acc"  >
<a xlink:href="https://antismash-db.secondarymetabolites.org/area.html?record=NZ_JAAIKE010000001&amp;start=485895&amp;end=506654" target="_blank">NZ_JAAIKE010000001 (485895-506654)</a>: Rhodobacter sp. ETT8 contig1, whole genom... (70% of genes show similarity), terpene</text>
<line x1="10" y1="85" x2="778.0" y2="85" style="stroke-width:1; stroke:grey; "  />
</g>
<g id="a1_000"  >
<polygon points="0,90 27,90 32,85 27,80 0,80 0,90 " style="fill:white; stroke-width:1; stroke:black; " description="&lt;b&gt;G3572_RS02415&lt;/b&gt;&lt;br&gt;ABC transporter permease&lt;br&gt;Location: 506182 - 505376" locus_tag="G3572_RS02415" class="clusterblast-orf" id="dummy-1_h1_4_0"  />
</g>
<g id="a1_001"  >
<polygon points="33,90 71,90 76,85 71,80 33,80 33,90 " style="fill:white; stroke-width:1; stroke:black; " description="&lt;b&gt;G3572_RS02410&lt;/b&gt;&lt;br&gt;ABC transporter ATP-binding protein&lt;br&gt;Location: 505346 - 504273" locus_tag="G3572_RS02410" class="clusterblast-orf" id="dummy-1_h1_4_1"  />
</g>
<g id="a1_002"  >
<polygon points="74,90 94,90 99,85 94,80 74,80 74,90 " style="fill:white; stroke-width:1; stroke:black; " description="&lt;b&gt;G3572_RS02405&lt;/b&gt;&lt;br&gt;uracil-DNA glycosylase family protein&lt;br&gt;Location: 504306 - 503683" locus_tag="G3572_RS02405" class="clusterblast-orf" id="dummy-1_h1_4_2"  />
</g>
<g id="a1_003"  >
<polygon points="99,90 126,90 131,85 126,80 99,80 99,90 " style="fill:white; stroke-width:1; stroke:black; " description="&lt;b&gt;G3572_RS02400&lt;/b&gt;&lt;br&gt;SseB family protein&lt;br&gt;Location: 503686 - 502898" locus_tag="G3572_RS02400" class="clusterblast-orf" id="dummy-1_h1_4_3"  />
</g>
<g id="a1_004"  >
<polygon points="135,90 203,90 208,85 203,80 135,80 135,90 " style="fill:#d81515; stroke-width:1; stroke:black; " description="&lt;b&gt;G3572_RS02395&lt;/b&gt;&lt;br&gt;ATP-binding cassette domain-containing protein&lt;br&gt;Location: 502790 - 500967&lt;br&gt;&lt;br&gt;&lt;b&gt;BlastP hit with OCIILLLM_03012&lt;/b&gt;&lt;br&gt;Percentage identity: 81&lt;br&gt;Percentage coverage: 99&lt;br&gt;BLAST bit score: 952&lt;br&gt;E-value: 0.0" locus_tag="G3572_RS02395" class="clusterblast-orf" id="dummy-1_h1_4_4"  />
</g>
<g id="a1_005"  >
<polygon points="208,85 213,80 243,80 243,90 213,90 208,85 " style="fill:white; stroke-width:1; stroke:black; " description="&lt;b&gt;G3572_RS02390&lt;/b&gt;&lt;br&gt;TPM domain-containing protein&lt;br&gt;Location: 500959 - 500102" locus_tag="G3572_RS02390" class="clusterblast-orf" id="dummy-1_h1_4_5"  />
</g>
<g id="a1_006"  >
<polygon points="252,90 304,90 309,85 304,80 252,80 252,90 " style="fill:#2ed815; stroke-width:1; stroke:black; " description="&lt;b&gt;G3572_RS02385&lt;/b&gt;&lt;br&gt;cysteine--tRNA ligase&lt;br&gt;Location: 499862 - 498435&lt;br&gt;&lt;br&gt;&lt;b&gt;BlastP hit with OCIILLLM_03017&lt;/b&gt;&lt;br&gt;Percentage identity: 66&lt;br&gt;Percentage coverage: 88&lt;br&gt;BLAST bit score: 596&lt;br&gt;E-value: 4.34e-210" locus_tag="G3572_RS02385" class="clusterblast-orf" id="dummy-1_h1_4_6"  />
</g>
<g id="a1_007"  >
<polygon points="313,90 373,90 378,85 373,80 313,80 313,90 " style="fill:#158fd8; stroke-width:1; stroke:black; " description="&lt;b&gt;G3572_RS02380&lt;/b&gt;&lt;br&gt;citramalate synthase&lt;br&gt;Location: 498338 - 496704&lt;br&gt;&lt;br&gt;&lt;b&gt;BlastP hit with OCIILLLM_03018&lt;/b&gt;&lt;br&gt;Percentage identity: 85&lt;br&gt;Percentage coverage: 99&lt;br&gt;BLAST bit score: 924&lt;br&gt;E-value: 0.0" locus_tag="G3572_RS02380" class="clusterblast-orf" id="dummy-1_h1_4_7"  />
</g>
<g id="a1_008"  >
<polygon points="380,90 406,90 411,85 406,80 380,80 380,90 " style="fill:#c015d8; stroke-width:1; stroke:black; " description="&lt;b&gt;G3572_RS02375&lt;/b&gt;&lt;br&gt;squalene/phytoene synthase family protein&lt;br&gt;Location: 496654 - 495896&lt;br&gt;&lt;br&gt;&lt;b&gt;BlastP hit with OCIILLLM_03019&lt;/b&gt;&lt;br&gt;Percentage identity: 68&lt;br&gt;Percentage coverage: 100&lt;br&gt;BLAST bit score: 321&lt;br&gt;E-value: 8.9e-110" locus_tag="G3572_RS02375" class="clusterblast-orf" id="dummy-1_h1_4_8"  />
</g>
<g id="a1_009"  >
<polygon points="416,85 421,80 464,80 464,90 421,90 416,85 " style="fill:#d8a715; stroke-width:1; stroke:black; " description="&lt;b&gt;G3572_RS02370&lt;/b&gt;&lt;br&gt;MFS transporter&lt;br&gt;Location: 495770 - 494562&lt;br&gt;&lt;br&gt;&lt;b&gt;BlastP hit with OCIILLLM_03020&lt;/b&gt;&lt;br&gt;Percentage identity: 78&lt;br&gt;Percentage coverage: 99&lt;br&gt;BLAST bit score: 574&lt;br&gt;E-value: 9.71e-205" locus_tag="G3572_RS02370" class="clusterblast-orf" id="dummy-1_h1_4_9"  />
</g>
<g id="a1_0010"  >
<polygon points="468,90 488,90 493,85 488,80 468,80 468,90 " style="fill:#15d846; stroke-width:1; stroke:black; " description="&lt;b&gt;G3572_RS02365&lt;/b&gt;&lt;br&gt;DNA-3-methyladenine glycosylase 2 family protein&lt;br&gt;Location: 494463 - 493837&lt;br&gt;&lt;br&gt;&lt;b&gt;BlastP hit with OCIILLLM_03021&lt;/b&gt;&lt;br&gt;Percentage identity: 71&lt;br&gt;Percentage coverage: 99&lt;br&gt;BLAST bit score: 265&lt;br&gt;E-value: 8.89e-89" locus_tag="G3572_RS02365" class="clusterblast-orf" id="dummy-1_h1_4_10"  />
</g>
<g id="a1_0011"  >
<polygon points="493,90 514,90 519,85 514,80 493,80 493,90 " style="fill:#1546d8; stroke-width:1; stroke:black; " description="&lt;b&gt;G3572_RS02360&lt;/b&gt;&lt;br&gt;alpha/beta fold hydrolase&lt;br&gt;Location: 493833 - 493174&lt;br&gt;&lt;br&gt;&lt;b&gt;BlastP hit with OCIILLLM_03022&lt;/b&gt;&lt;br&gt;Percentage identity: 81&lt;br&gt;Percentage coverage: 100&lt;br&gt;BLAST bit score: 346&lt;br&gt;E-value: 9.96e-121" locus_tag="G3572_RS02360" class="clusterblast-orf" id="dummy-1_h1_4_11"  />
</g>
<g id="a1_0012"  >
<polygon points="522,85 527,80 561,80 561,90 527,90 522,85 " style="fill:#d815a7; stroke-width:1; stroke:black; " description="&lt;b&gt;G3572_RS02355&lt;/b&gt;&lt;br&gt;ROK family protein&lt;br&gt;Location: 493112 - 492129&lt;br&gt;&lt;br&gt;&lt;b&gt;BlastP hit with OCIILLLM_03023&lt;/b&gt;&lt;br&gt;Percentage identity: 77&lt;br&gt;Percentage coverage: 98&lt;br&gt;BLAST bit score: 467&lt;br&gt;E-value: 6.96e-165" locus_tag="G3572_RS02355" class="clusterblast-orf" id="dummy-1_h1_4_12"  />
</g>
<g id="a1_0013"  >
<polygon points="562,85 567,80 615,80 615,90 567,90 562,85 " style="fill:#c0d815; stroke-width:1; stroke:black; " description="&lt;b&gt;G3572_RS02350&lt;/b&gt;&lt;br&gt;beta-glucosidase&lt;br&gt;Location: 492120 - 490792&lt;br&gt;&lt;br&gt;&lt;b&gt;BlastP hit with OCIILLLM_03024&lt;/b&gt;&lt;br&gt;Percentage identity: 66&lt;br&gt;Percentage coverage: 99&lt;br&gt;BLAST bit score: 610&lt;br&gt;E-value: 1.06e-217" locus_tag="G3572_RS02350" class="clusterblast-orf" id="dummy-1_h1_4_13"  />
</g>
<g id="a1_0014"  >
<polygon points="616,85 621,80 657,80 657,90 621,90 616,85 " style="fill:#15d88f; stroke-width:1; stroke:black; " description="&lt;b&gt;G3572_RS02345&lt;/b&gt;&lt;br&gt;LacI family DNA-binding transcriptional regulator&lt;br&gt;Location: 490766 - 489738&lt;br&gt;&lt;br&gt;&lt;b&gt;BlastP hit with OCIILLLM_03025&lt;/b&gt;&lt;br&gt;Percentage identity: 81&lt;br&gt;Percentage coverage: 99&lt;br&gt;BLAST bit score: 559&lt;br&gt;E-value: 9.69e-201" locus_tag="G3572_RS02345" class="clusterblast-orf" id="dummy-1_h1_4_14"  />
</g>
<g id="a1_0015"  >
<polygon points="669,90 718,90 723,85 718,80 669,80 669,90 " style="fill:#2e15d8; stroke-width:1; stroke:black; " description="&lt;b&gt;G3572_RS02340&lt;/b&gt;&lt;br&gt;carbohydrate ABC transporter substrate-binding protein&lt;br&gt;Location: 489426 - 488074&lt;br&gt;&lt;br&gt;&lt;b&gt;BlastP hit with OCIILLLM_03026&lt;/b&gt;&lt;br&gt;Percentage identity: 72&lt;br&gt;Percentage coverage: 100&lt;br&gt;BLAST bit score: 648&lt;br&gt;E-value: 1.5e-232" locus_tag="G3572_RS02340" class="clusterblast-orf" id="dummy-1_h1_4_15"  />
</g>
<g id="a1_0016"  >
<polygon points="730,90 775,90 780,85 775,80 730,80 730,90 " style="fill:#d8155e; stroke-width:1; stroke:black; " description="&lt;b&gt;G3572_RS02335&lt;/b&gt;&lt;br&gt;sugar ABC transporter permease&lt;br&gt;Location: 487905 - 486667&lt;br&gt;&lt;br&gt;&lt;b&gt;BlastP hit with OCIILLLM_03027&lt;/b&gt;&lt;br&gt;Percentage identity: 69&lt;br&gt;Percentage coverage: 101&lt;br&gt;BLAST bit score: 540&lt;br&gt;E-value: 4.4e-191" locus_tag="G3572_RS02335" class="clusterblast-orf" id="dummy-1_h1_4_16"  />
</g>
</svg>
