<svg xmlns="http://www.w3.org/2000/svg" xmlns:xlink="http://www.w3.org/1999/xlink" version="1.1" x="0" y="0" height="230" width="800" viewBox="0 0 800 230" preserveAspectRatio="none"  >
<g label="Query sequence" class="clusterblast-cluster"  >
<text x="5" y="20" class="clusterblast-acc"  >
Query sequence</text>
<line x1="10" y1="35" x2="778.0" y2="35" style="stroke-width:1; stroke:grey; "  />
<polygon points="13,40 83,40 88,35 83,30 13,30 13,40 " style="fill:#d81515; stroke-width:1; stroke:black; " description="&lt;b&gt;OCIILLLM_03012&lt;/b&gt;&lt;br&gt;ABC transporter ATP-binding protein uup&lt;br&gt;Location: 1056 - 2910" locus_tag="OCIILLLM_03012" class="clusterblast-orf" id="dummy-1_q0_0_all"  />
<polygon points="97,40 116,40 121,35 116,30 97,30 97,40 " style="fill:#77d815; stroke-width:1; stroke:black; " description="&lt;b&gt;OCIILLLM_03013&lt;/b&gt;&lt;br&gt;hypothetical protein&lt;br&gt;Location: 3130 - 3727" locus_tag="OCIILLLM_03013" class="clusterblast-orf" id="dummy-1_q1_0_all"  />
<polygon points="122,35 127,30 142,30 142,40 127,40 122,35 " style="fill:#15d8d8; stroke-width:1; stroke:black; " description="&lt;b&gt;OCIILLLM_03014&lt;/b&gt;&lt;br&gt;hypothetical protein&lt;br&gt;Location: 3752 - 4229" locus_tag="OCIILLLM_03014" class="clusterblast-orf" id="dummy-1_q2_0_all"  />
<polygon points="144,35 149,30 200,30 200,40 149,40 144,35 " style="fill:#7715d8; stroke-width:1; stroke:black; " description="&lt;b&gt;OCIILLLM_03015&lt;/b&gt;&lt;br&gt;Tryptophan decarboxylase&lt;br&gt;Location: 4289 - 5678" locus_tag="OCIILLLM_03015" class="clusterblast-orf" id="dummy-1_q3_0_all"  />
<polygon points="208,40 228,40 233,35 228,30 208,30 208,40 " style="fill:#d85e15; stroke-width:1; stroke:black; " description="&lt;b&gt;OCIILLLM_03016&lt;/b&gt;&lt;br&gt;hypothetical protein&lt;br&gt;Location: 5861 - 6485" locus_tag="OCIILLLM_03016" class="clusterblast-orf" id="dummy-1_q4_0_all"  />
<polygon points="243,40 303,40 308,35 303,30 243,30 243,40 " style="fill:#2ed815; stroke-width:1; stroke:black; " description="&lt;b&gt;OCIILLLM_03017&lt;/b&gt;&lt;br&gt;Cysteine--tRNA ligase&lt;br&gt;Location: 6731 - 8333" locus_tag="OCIILLLM_03017" class="clusterblast-orf" id="dummy-1_q5_0_all"  />
<polygon points="308,40 369,40 374,35 369,30 308,30 308,40 " style="fill:#158fd8; stroke-width:1; stroke:black; " description="&lt;b&gt;OCIILLLM_03018&lt;/b&gt;&lt;br&gt;(R)-citramalate synthase&lt;br&gt;Location: 8329 - 9967" locus_tag="OCIILLLM_03018" class="clusterblast-orf" id="dummy-1_q6_0_all"  />
<polygon points="374,40 399,40 404,35 399,30 374,30 374,40 " style="fill:#c015d8; stroke-width:1; stroke:black; " description="&lt;b&gt;OCIILLLM_03019&lt;/b&gt;&lt;br&gt;hypothetical protein&lt;br&gt;Location: 9963 - 10722" locus_tag="OCIILLLM_03019" class="clusterblast-orf" id="dummy-1_q7_0_all"  />
<polygon points="405,35 410,30 453,30 453,40 410,40 405,35 " style="fill:#d8a715; stroke-width:1; stroke:black; " description="&lt;b&gt;OCIILLLM_03020&lt;/b&gt;&lt;br&gt;Riboflavin transporter RfnT&lt;br&gt;Location: 10731 - 11937" locus_tag="OCIILLLM_03020" class="clusterblast-orf" id="dummy-1_q8_0_all"  />
<polygon points="455,40 476,40 481,35 476,30 455,30 455,40 " style="fill:#15d846; stroke-width:1; stroke:black; " description="&lt;b&gt;OCIILLLM_03021&lt;/b&gt;&lt;br&gt;hypothetical protein&lt;br&gt;Location: 11983 - 12616" locus_tag="OCIILLLM_03021" class="clusterblast-orf" id="dummy-1_q9_0_all"  />
<polygon points="481,40 502,40 507,35 502,30 481,30 481,40 " style="fill:#1546d8; stroke-width:1; stroke:black; " description="&lt;b&gt;OCIILLLM_03022&lt;/b&gt;&lt;br&gt;hypothetical protein&lt;br&gt;Location: 12612 - 13272" locus_tag="OCIILLLM_03022" class="clusterblast-orf" id="dummy-1_q10_0_all"  />
<polygon points="511,35 516,30 551,30 551,40 516,40 511,35 " style="fill:#d815a7; stroke-width:1; stroke:black; " description="&lt;b&gt;OCIILLLM_03023&lt;/b&gt;&lt;br&gt;Glucokinase&lt;br&gt;Location: 13362 - 14343" locus_tag="OCIILLLM_03023" class="clusterblast-orf" id="dummy-1_q11_0_all"  />
<polygon points="551,35 556,30 605,30 605,40 556,40 551,35 " style="fill:#c0d815; stroke-width:1; stroke:black; " description="&lt;b&gt;OCIILLLM_03024&lt;/b&gt;&lt;br&gt;Beta-glucosidase A&lt;br&gt;Location: 14352 - 15684" locus_tag="OCIILLLM_03024" class="clusterblast-orf" id="dummy-1_q12_0_all"  />
<polygon points="606,35 611,30 648,30 648,40 611,40 606,35 " style="fill:#15d88f; stroke-width:1; stroke:black; " description="&lt;b&gt;OCIILLLM_03025&lt;/b&gt;&lt;br&gt;HTH-type transcriptional regulator RafR&lt;br&gt;Location: 15712 - 16744" locus_tag="OCIILLLM_03025" class="clusterblast-orf" id="dummy-1_q13_0_all"  />
<polygon points="658,40 707,40 712,35 707,30 658,30 658,40 " style="fill:#2e15d8; stroke-width:1; stroke:black; " description="&lt;b&gt;OCIILLLM_03026&lt;/b&gt;&lt;br&gt;hypothetical protein&lt;br&gt;Location: 16987 - 18334" locus_tag="OCIILLLM_03026" class="clusterblast-orf" id="dummy-1_q14_0_all"  />
<polygon points="717,40 761,40 766,35 761,30 717,30 717,40 " style="fill:#d8155e; stroke-width:1; stroke:black; " description="&lt;b&gt;OCIILLLM_03027&lt;/b&gt;&lt;br&gt;hypothetical protein&lt;br&gt;Location: 18448 - 19675" locus_tag="OCIILLLM_03027" class="clusterblast-orf" id="dummy-1_q15_0_all"  />
</g>
<g label="NZ_AP014800" description="NZ_AP014800 (1507906-1528668): Rhodovulum sulfidophilum DNA, complete genome,... (47% of genes show similarity), terpene" class="clusterblast-cluster"  >
<text x="5" y="70" class="clusterblast-acc"  >
<a xlink:href="https://antismash-db.secondarymetabolites.org/area.html?record=NZ_AP014800&amp;start=1507906&amp;end=1528668" target="_blank">NZ_AP014800 (1507906-1528668)</a>: Rhodovulum sulfidophilum DNA, complete genome,... (47% of genes show similarity), terpene</text>
<line x1="10" y1="85" x2="778.0" y2="85" style="stroke-width:1; stroke:grey; "  />
</g>
<g id="a1_000"  >
<polygon points="0,90 25,90 30,85 25,80 0,80 0,90 " style="fill:white; stroke-width:1; stroke:black; " description="&lt;b&gt;NHU_RS06760&lt;/b&gt;&lt;br&gt;GNAT family N-acetyltransferase&lt;br&gt;Location: 1508399 - 1509145" locus_tag="NHU_RS06760" class="clusterblast-orf" id="dummy-1_h1_9_0"  />
</g>
<g id="a1_001"  >
<polygon points="36,90 105,90 110,85 105,80 36,80 36,90 " style="fill:#d81515; stroke-width:1; stroke:black; " description="&lt;b&gt;NHU_RS06765&lt;/b&gt;&lt;br&gt;ATP-binding cassette domain-containing protein&lt;br&gt;Location: 1509294 - 1511141&lt;br&gt;&lt;br&gt;&lt;b&gt;BlastP hit with OCIILLLM_03012&lt;/b&gt;&lt;br&gt;Percentage identity: 69&lt;br&gt;Percentage coverage: 99&lt;br&gt;BLAST bit score: 801&lt;br&gt;E-value: 1.24e-287" locus_tag="NHU_RS06765" class="clusterblast-orf" id="dummy-1_h1_9_1"  />
</g>
<g id="a1_002"  >
<polygon points="111,85 116,80 135,80 135,90 116,90 111,85 " style="fill:white; stroke-width:1; stroke:black; " description="&lt;b&gt;NHU_RS06770&lt;/b&gt;&lt;br&gt;hypothetical protein&lt;br&gt;Location: 1511148 - 1511756" locus_tag="NHU_RS06770" class="clusterblast-orf" id="dummy-1_h1_9_2"  />
</g>
<g id="a1_003"  >
<polygon points="135,85 140,80 166,80 166,90 140,90 135,85 " style="fill:white; stroke-width:1; stroke:black; " description="&lt;b&gt;NHU_RS06775&lt;/b&gt;&lt;br&gt;SDR family NAD(P)-dependent oxidoreductase&lt;br&gt;Location: 1511753 - 1512508" locus_tag="NHU_RS06775" class="clusterblast-orf" id="dummy-1_h1_9_3"  />
</g>
<g id="a1_004"  >
<polygon points="184,90 203,90 208,85 203,80 184,80 184,90 " style="fill:#77d815; stroke-width:1; stroke:black; " description="&lt;b&gt;NHU_RS06780&lt;/b&gt;&lt;br&gt;porin family protein&lt;br&gt;Location: 1512966 - 1513556&lt;br&gt;&lt;br&gt;&lt;b&gt;BlastP hit with OCIILLLM_03013&lt;/b&gt;&lt;br&gt;Percentage identity: 45&lt;br&gt;Percentage coverage: 95&lt;br&gt;BLAST bit score: 154&lt;br&gt;E-value: 1.85e-45" locus_tag="NHU_RS06780" class="clusterblast-orf" id="dummy-1_h1_9_4"  />
</g>
<g id="a1_005"  >
<polygon points="231,85 236,80 245,80 245,90 236,90 231,85 " style="fill:white; stroke-width:1; stroke:black; " description="&lt;b&gt;NHU_RS06785&lt;/b&gt;&lt;br&gt;hypothetical protein&lt;br&gt;Location: 1514111 - 1514476" locus_tag="NHU_RS06785" class="clusterblast-orf" id="dummy-1_h1_9_5"  />
</g>
<g id="a1_006"  >
<polygon points="253,90 305,90 310,85 305,80 253,80 253,90 " style="fill:#2ed815; stroke-width:1; stroke:black; " description="&lt;b&gt;NHU_RS06790&lt;/b&gt;&lt;br&gt;cysteine--tRNA ligase&lt;br&gt;Location: 1514674 - 1516071&lt;br&gt;&lt;br&gt;&lt;b&gt;BlastP hit with OCIILLLM_03017&lt;/b&gt;&lt;br&gt;Percentage identity: 70&lt;br&gt;Percentage coverage: 86&lt;br&gt;BLAST bit score: 630&lt;br&gt;E-value: 1.31e-223" locus_tag="NHU_RS06790" class="clusterblast-orf" id="dummy-1_h1_9_6"  />
</g>
<g id="a1_007"  >
<polygon points="318,90 380,90 385,85 380,80 318,80 318,90 " style="fill:#158fd8; stroke-width:1; stroke:black; " description="&lt;b&gt;NHU_RS06795&lt;/b&gt;&lt;br&gt;citramalate synthase&lt;br&gt;Location: 1516277 - 1517917&lt;br&gt;&lt;br&gt;&lt;b&gt;BlastP hit with OCIILLLM_03018&lt;/b&gt;&lt;br&gt;Percentage identity: 77&lt;br&gt;Percentage coverage: 98&lt;br&gt;BLAST bit score: 827&lt;br&gt;E-value: 8.04e-300" locus_tag="NHU_RS06795" class="clusterblast-orf" id="dummy-1_h1_9_7"  />
</g>
<g id="a1_008"  >
<polygon points="384,90 410,90 415,85 410,80 384,80 384,90 " style="fill:#c015d8; stroke-width:1; stroke:black; " description="&lt;b&gt;NHU_RS06800&lt;/b&gt;&lt;br&gt;squalene/phytoene synthase family protein&lt;br&gt;Location: 1517907 - 1518668&lt;br&gt;&lt;br&gt;&lt;b&gt;BlastP hit with OCIILLLM_03019&lt;/b&gt;&lt;br&gt;Percentage identity: 56&lt;br&gt;Percentage coverage: 102&lt;br&gt;BLAST bit score: 242&lt;br&gt;E-value: 1.21e-78" locus_tag="NHU_RS06800" class="clusterblast-orf" id="dummy-1_h1_9_8"  />
</g>
<g id="a1_009"  >
<polygon points="419,85 424,80 468,80 468,90 424,90 419,85 " style="fill:#d8a715; stroke-width:1; stroke:black; " description="&lt;b&gt;NHU_RS06805&lt;/b&gt;&lt;br&gt;MFS transporter&lt;br&gt;Location: 1518768 - 1519991&lt;br&gt;&lt;br&gt;&lt;b&gt;BlastP hit with OCIILLLM_03020&lt;/b&gt;&lt;br&gt;Percentage identity: 66&lt;br&gt;Percentage coverage: 98&lt;br&gt;BLAST bit score: 491&lt;br&gt;E-value: 3.95e-172" locus_tag="NHU_RS06805" class="clusterblast-orf" id="dummy-1_h1_9_9"  />
</g>
<g id="a1_0010"  >
<polygon points="473,90 494,90 499,85 494,80 473,80 473,90 " style="fill:#15d846; stroke-width:1; stroke:black; " description="&lt;b&gt;NHU_RS06810&lt;/b&gt;&lt;br&gt;DNA-3-methyladenine glycosylase 2 family protein&lt;br&gt;Location: 1520116 - 1520745&lt;br&gt;&lt;br&gt;&lt;b&gt;BlastP hit with OCIILLLM_03021&lt;/b&gt;&lt;br&gt;Percentage identity: 69&lt;br&gt;Percentage coverage: 99&lt;br&gt;BLAST bit score: 255&lt;br&gt;E-value: 4.1e-85" locus_tag="NHU_RS06810" class="clusterblast-orf" id="dummy-1_h1_9_10"  />
</g>
<g id="a1_0011"  >
<polygon points="499,90 521,90 526,85 521,80 499,80 499,90 " style="fill:#1546d8; stroke-width:1; stroke:black; " description="&lt;b&gt;NHU_RS06815&lt;/b&gt;&lt;br&gt;phospholipase&lt;br&gt;Location: 1520742 - 1521416&lt;br&gt;&lt;br&gt;&lt;b&gt;BlastP hit with OCIILLLM_03022&lt;/b&gt;&lt;br&gt;Percentage identity: 69&lt;br&gt;Percentage coverage: 98&lt;br&gt;BLAST bit score: 288&lt;br&gt;E-value: 1.62e-97" locus_tag="NHU_RS06815" class="clusterblast-orf" id="dummy-1_h1_9_11"  />
</g>
<g id="a1_0012"  >
<polygon points="552,85 557,80 588,80 588,90 557,90 552,85 " style="fill:white; stroke-width:1; stroke:black; " description="&lt;b&gt;NHU_RS06820&lt;/b&gt;&lt;br&gt;pyridoxal kinase&lt;br&gt;Location: 1522052 - 1522948" locus_tag="NHU_RS06820" class="clusterblast-orf" id="dummy-1_h1_9_12"  />
</g>
<g id="a1_0013"  >
<polygon points="588,85 593,80 616,80 616,90 593,90 588,85 " style="fill:white; stroke-width:1; stroke:black; " description="&lt;b&gt;NHU_RS06825&lt;/b&gt;&lt;br&gt;MOSC domain-containing protein&lt;br&gt;Location: 1522945 - 1523640" locus_tag="NHU_RS06825" class="clusterblast-orf" id="dummy-1_h1_9_13"  />
</g>
<g id="a1_0014"  >
<polygon points="620,90 672,90 677,85 672,80 620,80 620,90 " style="fill:white; stroke-width:1; stroke:black; " description="&lt;b&gt;NHU_RS06830&lt;/b&gt;&lt;br&gt;PLP-dependent aminotransferase family protein&lt;br&gt;Location: 1523732 - 1525147" locus_tag="NHU_RS06830" class="clusterblast-orf" id="dummy-1_h1_9_14"  />
</g>
<g id="a1_0015"  >
<polygon points="703,85 708,80 716,80 716,90 708,90 703,85 " style="fill:white; stroke-width:1; stroke:black; " description="&lt;b&gt;NHU_RS06835&lt;/b&gt;&lt;br&gt;hypothetical protein&lt;br&gt;Location: 1525794 - 1526120" locus_tag="NHU_RS06835" class="clusterblast-orf" id="dummy-1_h1_9_15"  />
</g>
<g id="a1_0016"  >
<polygon points="717,85 722,80 780,80 780,90 722,90 717,85 " style="fill:white; stroke-width:1; stroke:black; " description="&lt;b&gt;NHU_RS06840&lt;/b&gt;&lt;br&gt;GMC family oxidoreductase&lt;br&gt;Location: 1526129 - 1527682" locus_tag="NHU_RS06840" class="clusterblast-orf" id="dummy-1_h1_9_16"  />
</g>
</svg>
