<svg xmlns="http://www.w3.org/2000/svg" xmlns:xlink="http://www.w3.org/1999/xlink" version="1.1" x="0" y="0" height="230" width="800" viewBox="0 0 800 230" preserveAspectRatio="none"  >
<g label="Query sequence" class="clusterblast-cluster"  >
<text x="5" y="20" class="clusterblast-acc"  >
Query sequence</text>
<line x1="10" y1="35" x2="778.0" y2="35" style="stroke-width:1; stroke:grey; "  />
<polygon points="24,35 29,30 32,30 32,40 29,40 24,35 " style="fill:white; stroke-width:1; stroke:black; " description="&lt;b&gt;OCIILLLM_00432&lt;/b&gt;&lt;br&gt;hypothetical protein&lt;br&gt;Location: 25019 - 25226" locus_tag="OCIILLLM_00432" class="clusterblast-orf" id="dummy-1_q0_0_all"  />
<polygon points="45,40 81,40 86,35 81,30 45,30 45,40 " style="fill:#d81515; stroke-width:1; stroke:black; " description="&lt;b&gt;OCIILLLM_00433&lt;/b&gt;&lt;br&gt;Hemin transport protein HemS&lt;br&gt;Location: 25555 - 26593" locus_tag="OCIILLLM_00433" class="clusterblast-orf" id="dummy-1_q1_0_all"  />
<polygon points="86,40 115,40 120,35 115,30 86,30 86,40 " style="fill:#15d815; stroke-width:1; stroke:black; " description="&lt;b&gt;OCIILLLM_00434&lt;/b&gt;&lt;br&gt;Hemin-binding periplasmic protein HmuT&lt;br&gt;Location: 26589 - 27435" locus_tag="OCIILLLM_00434" class="clusterblast-orf" id="dummy-1_q2_0_all"  />
<polygon points="120,40 157,40 162,35 157,30 120,30 120,40 " style="fill:#1597d8; stroke-width:1; stroke:black; " description="&lt;b&gt;OCIILLLM_00435&lt;/b&gt;&lt;br&gt;Hemin transport system permease protein HmuU&lt;br&gt;Location: 27439 - 28501" locus_tag="OCIILLLM_00435" class="clusterblast-orf" id="dummy-1_q3_0_all"  />
<polygon points="162,40 188,40 193,35 188,30 162,30 162,40 " style="fill:#9715d8; stroke-width:1; stroke:black; " description="&lt;b&gt;OCIILLLM_00436&lt;/b&gt;&lt;br&gt;Hemin import ATP-binding protein HmuV&lt;br&gt;Location: 28502 - 29282" locus_tag="OCIILLLM_00436" class="clusterblast-orf" id="dummy-1_q4_0_all"  />
<polygon points="194,40 229,40 234,35 229,30 194,30 194,40 " style="fill:white; stroke-width:1; stroke:black; " description="&lt;b&gt;OCIILLLM_00437&lt;/b&gt;&lt;br&gt;hypothetical protein&lt;br&gt;Location: 29325 - 30330" locus_tag="OCIILLLM_00437" class="clusterblast-orf" id="dummy-1_q5_0_all"  />
<polygon points="234,35 239,30 292,30 292,40 239,40 234,35 " style="fill:#d89715; stroke-width:1; stroke:black; " description="&lt;b&gt;OCIILLLM_00438&lt;/b&gt;&lt;br&gt;hypothetical protein&lt;br&gt;Location: 30337 - 31798" locus_tag="OCIILLLM_00438" class="clusterblast-orf" id="dummy-1_q6_0_all"  />
<polygon points="292,35 297,30 319,30 319,40 297,40 292,35 " style="fill:#15d897; stroke-width:1; stroke:black; " description="&lt;b&gt;OCIILLLM_00439&lt;/b&gt;&lt;br&gt;UDP-Glc:alpha-D-GlcNAc-diphosphoundecaprenol beta-1,3-glucosyltransferase WfgD&lt;br&gt;Location: 31794 - 32472" locus_tag="OCIILLLM_00439" class="clusterblast-orf" id="dummy-1_q7_0_all"  />
<polygon points="318,35 323,30 348,30 348,40 323,40 318,35 " style="fill:#15d897; stroke-width:1; stroke:black; " description="&lt;b&gt;OCIILLLM_00440&lt;/b&gt;&lt;br&gt;hypothetical protein&lt;br&gt;Location: 32468 - 33218" locus_tag="OCIILLLM_00440" class="clusterblast-orf" id="dummy-1_q8_0_all"  />
<polygon points="348,35 353,30 389,30 389,40 353,40 348,35 " style="fill:#1515d8; stroke-width:1; stroke:black; " description="&lt;b&gt;OCIILLLM_00441&lt;/b&gt;&lt;br&gt;hypothetical protein&lt;br&gt;Location: 33214 - 34249" locus_tag="OCIILLLM_00441" class="clusterblast-orf" id="dummy-1_q9_0_all"  />
<polygon points="389,35 394,30 405,30 405,40 394,40 389,35 " style="fill:#d81597; stroke-width:1; stroke:black; " description="&lt;b&gt;OCIILLLM_00442&lt;/b&gt;&lt;br&gt;hypothetical protein&lt;br&gt;Location: 34245 - 34650" locus_tag="OCIILLLM_00442" class="clusterblast-orf" id="dummy-1_q10_0_all"  />
<polygon points="409,35 414,30 531,30 531,40 414,40 409,35 " style="fill:white; stroke-width:1; stroke:black; " description="&lt;b&gt;OCIILLLM_00443&lt;/b&gt;&lt;br&gt;Swarming motility protein SwrC&lt;br&gt;Location: 34764 - 37845" locus_tag="OCIILLLM_00443" class="clusterblast-orf" id="dummy-1_q11_0_all"  />
<polygon points="531,35 536,30 573,30 573,40 536,40 531,35 " style="fill:white; stroke-width:1; stroke:black; " description="&lt;b&gt;OCIILLLM_00444&lt;/b&gt;&lt;br&gt;Efflux pump periplasmic linker BepF&lt;br&gt;Location: 37841 - 38903" locus_tag="OCIILLLM_00444" class="clusterblast-orf" id="dummy-1_q12_0_all"  />
<polygon points="573,35 578,30 614,30 614,40 578,40 573,35 " style="fill:white; stroke-width:1; stroke:black; " description="&lt;b&gt;OCIILLLM_00445&lt;/b&gt;&lt;br&gt;Multidrug resistance protein MdtA&lt;br&gt;Location: 38899 - 39949" locus_tag="OCIILLLM_00445" class="clusterblast-orf" id="dummy-1_q13_0_all"  />
<polygon points="621,40 674,40 679,35 674,30 621,30 621,40 " style="fill:white; stroke-width:1; stroke:black; " description="&lt;b&gt;OCIILLLM_00446&lt;/b&gt;&lt;br&gt;hypothetical protein&lt;br&gt;Location: 40124 - 41600" locus_tag="OCIILLLM_00446" class="clusterblast-orf" id="dummy-1_q14_0_all"  />
<polygon points="679,35 684,30 702,30 702,40 684,40 679,35 " style="fill:white; stroke-width:1; stroke:black; " description="&lt;b&gt;OCIILLLM_00447&lt;/b&gt;&lt;br&gt;hypothetical protein&lt;br&gt;Location: 41603 - 42167" locus_tag="OCIILLLM_00447" class="clusterblast-orf" id="dummy-1_q15_0_all"  />
<polygon points="705,35 710,30 756,30 756,40 710,40 705,35 " style="fill:#97d815; stroke-width:1; stroke:black; " description="&lt;b&gt;OCIILLLM_00448&lt;/b&gt;&lt;br&gt;Gamma-glutamylputrescine oxidoreductase&lt;br&gt;Location: 42239 - 43532" locus_tag="OCIILLLM_00448" class="clusterblast-orf" id="dummy-1_q16_0_all"  />
</g>
<g label="NZ_CP034446" description="NZ_CP034446 (1128544-1149368): Mesorhizobium sp. M2A.F.Ca.ET.043.05.1.1 chrom... (23% of genes show similarity), terpene" class="clusterblast-cluster"  >
<text x="5" y="70" class="clusterblast-acc"  >
<a xlink:href="https://antismash-db.secondarymetabolites.org/area.html?record=NZ_CP034446&amp;start=1128544&amp;end=1149368" target="_blank">NZ_CP034446 (1128544-1149368)</a>: Mesorhizobium sp. M2A.F.Ca.ET.043.05.1.1 chrom... (23% of genes show similarity), terpene</text>
<line x1="10" y1="85" x2="778.0" y2="85" style="stroke-width:1; stroke:grey; "  />
</g>
<g id="a1_000"  >
<polygon points="0,90 54,90 59,85 54,80 0,80 0,90 " style="fill:white; stroke-width:1; stroke:black; " description="&lt;b&gt;EJ069_RS05325&lt;/b&gt;&lt;br&gt;peptidoglycan DD-metalloendopeptidase family protein&lt;br&gt;Location: 1129334 - 1130851" locus_tag="EJ069_RS05325" class="clusterblast-orf" id="dummy-1_h1_1_0"  />
</g>
<g id="a1_001"  >
<polygon points="63,85 68,80 99,80 99,90 68,90 63,85 " style="fill:white; stroke-width:1; stroke:black; " description="&lt;b&gt;EJ069_RS05330&lt;/b&gt;&lt;br&gt;NAD-dependent epimerase/dehydratase family protein&lt;br&gt;Location: 1130951 - 1131841" locus_tag="EJ069_RS05330" class="clusterblast-orf" id="dummy-1_h1_1_1"  />
</g>
<g id="a1_002"  >
<polygon points="103,90 130,90 135,85 130,80 103,80 103,90 " style="fill:white; stroke-width:1; stroke:black; " description="&lt;b&gt;EJ069_RS05335&lt;/b&gt;&lt;br&gt;helix-turn-helix transcriptional regulator&lt;br&gt;Location: 1131953 - 1132768" locus_tag="EJ069_RS05335" class="clusterblast-orf" id="dummy-1_h1_1_2"  />
</g>
<g id="a1_003"  >
<polygon points="135,85 140,80 170,80 170,90 140,90 135,85 " style="fill:white; stroke-width:1; stroke:black; " description="&lt;b&gt;EJ069_RS05340&lt;/b&gt;&lt;br&gt;ATP-binding protein&lt;br&gt;Location: 1132772 - 1133644" locus_tag="EJ069_RS05340" class="clusterblast-orf" id="dummy-1_h1_1_3"  />
</g>
<g id="a1_004"  >
<polygon points="180,90 189,90 194,85 189,80 180,80 180,90 " style="fill:white; stroke-width:1; stroke:black; " description="&lt;b&gt;EJ069_RS05345&lt;/b&gt;&lt;br&gt;preprotein translocase subunit YajC&lt;br&gt;Location: 1133911 - 1134249" locus_tag="EJ069_RS05345" class="clusterblast-orf" id="dummy-1_h1_1_4"  />
</g>
<g id="a1_005"  >
<polygon points="196,90 231,90 236,85 231,80 196,80 196,90 " style="fill:white; stroke-width:1; stroke:black; " description="&lt;b&gt;EJ069_RS05350&lt;/b&gt;&lt;br&gt;hypothetical protein&lt;br&gt;Location: 1134307 - 1135320" locus_tag="EJ069_RS05350" class="clusterblast-orf" id="dummy-1_h1_1_5"  />
</g>
<g id="a1_006"  >
<polygon points="240,90 335,90 340,85 335,80 240,80 240,90 " style="fill:white; stroke-width:1; stroke:black; " description="&lt;b&gt;EJ069_RS05355&lt;/b&gt;&lt;br&gt;protein translocase subunit SecDF&lt;br&gt;Location: 1135410 - 1137959" locus_tag="EJ069_RS05355" class="clusterblast-orf" id="dummy-1_h1_1_6"  />
</g>
<g id="a1_007"  >
<polygon points="346,90 356,90 361,85 356,80 346,80 346,90 " style="fill:white; stroke-width:1; stroke:black; " description="&lt;b&gt;EJ069_RS05360&lt;/b&gt;&lt;br&gt;hypothetical protein&lt;br&gt;Location: 1138095 - 1138484" locus_tag="EJ069_RS05360" class="clusterblast-orf" id="dummy-1_h1_1_7"  />
</g>
<g id="a1_008"  >
<polygon points="363,90 391,90 396,85 391,80 363,80 363,90 " style="fill:white; stroke-width:1; stroke:black; " description="&lt;b&gt;EJ069_RS05365&lt;/b&gt;&lt;br&gt;phytoene/squalene synthase family protein&lt;br&gt;Location: 1138545 - 1139368" locus_tag="EJ069_RS05365" class="clusterblast-orf" id="dummy-1_h1_1_8"  />
</g>
<g id="a1_009"  >
<polygon points="399,90 411,90 416,85 411,80 399,80 399,90 " style="fill:white; stroke-width:1; stroke:black; " description="&lt;b&gt;EJ069_RS05370&lt;/b&gt;&lt;br&gt;hypothetical protein&lt;br&gt;Location: 1139449 - 1139874" locus_tag="EJ069_RS05370" class="clusterblast-orf" id="dummy-1_h1_1_9"  />
</g>
<g id="a1_0010"  >
<polygon points="416,90 448,90 453,85 448,80 416,80 416,90 " style="fill:white; stroke-width:1; stroke:black; " description="&lt;b&gt;EJ069_RS05375&lt;/b&gt;&lt;br&gt;sterol desaturase family protein&lt;br&gt;Location: 1139871 - 1140824" locus_tag="EJ069_RS05375" class="clusterblast-orf" id="dummy-1_h1_1_10"  />
</g>
<g id="a1_0011"  >
<polygon points="457,85 462,80 501,80 501,90 462,90 457,85 " style="fill:#d89715; stroke-width:1; stroke:black; " description="&lt;b&gt;EJ069_RS05380&lt;/b&gt;&lt;br&gt;hypothetical protein&lt;br&gt;Location: 1140922 - 1142028&lt;br&gt;&lt;br&gt;&lt;b&gt;BlastP hit with OCIILLLM_00438&lt;/b&gt;&lt;br&gt;Percentage identity: 34&lt;br&gt;Percentage coverage: 45&lt;br&gt;BLAST bit score: 111&lt;br&gt;E-value: 5.64e-25" locus_tag="EJ069_RS05380" class="clusterblast-orf" id="dummy-1_h1_1_11"  />
</g>
<g id="a1_0012"  >
<polygon points="517,85 522,80 546,80 546,90 522,90 517,85 " style="fill:#15d897; stroke-width:1; stroke:black; " description="&lt;b&gt;EJ069_RS05385&lt;/b&gt;&lt;br&gt;glycosyltransferase family 2 protein&lt;br&gt;Location: 1142426 - 1143160&lt;br&gt;&lt;br&gt;&lt;b&gt;BlastP hit with OCIILLLM_00439&lt;/b&gt;&lt;br&gt;Percentage identity: 38&lt;br&gt;Percentage coverage: 103&lt;br&gt;BLAST bit score: 130&lt;br&gt;E-value: 3.4e-35&lt;br&gt;&lt;br&gt;&lt;b&gt;BlastP hit with OCIILLLM_00440&lt;/b&gt;&lt;br&gt;Percentage identity: 35&lt;br&gt;Percentage coverage: 46&lt;br&gt;BLAST bit score: 53&lt;br&gt;E-value: 2.35e-06" locus_tag="EJ069_RS05385" class="clusterblast-orf" id="dummy-1_h1_1_12"  />
</g>
<g id="a1_0013"  >
<polygon points="546,85 551,80 556,80 556,90 551,90 546,85 " style="fill:white; stroke-width:1; stroke:black; " description="&lt;b&gt;EJ069_RS05390&lt;/b&gt;&lt;br&gt;hypothetical protein&lt;br&gt;Location: 1143161 - 1143412" locus_tag="EJ069_RS05390" class="clusterblast-orf" id="dummy-1_h1_1_13"  />
</g>
<g id="a1_0014"  >
<polygon points="553,85 558,80 578,80 578,90 558,90 553,85 " style="fill:#15d897; stroke-width:1; stroke:black; " description="&lt;b&gt;EJ069_RS05395&lt;/b&gt;&lt;br&gt;glycosyltransferase family 2 protein&lt;br&gt;Location: 1143337 - 1143978&lt;br&gt;&lt;br&gt;&lt;b&gt;BlastP hit with OCIILLLM_00439&lt;/b&gt;&lt;br&gt;Percentage identity: 35&lt;br&gt;Percentage coverage: 49&lt;br&gt;BLAST bit score: 70&lt;br&gt;E-value: 1.1e-12" locus_tag="EJ069_RS05395" class="clusterblast-orf" id="dummy-1_h1_1_14"  />
</g>
<g id="a1_0015"  >
<polygon points="575,85 580,80 617,80 617,90 580,90 575,85 " style="fill:#1515d8; stroke-width:1; stroke:black; " description="&lt;b&gt;EJ069_RS05400&lt;/b&gt;&lt;br&gt;hypothetical protein&lt;br&gt;Location: 1143897 - 1144973&lt;br&gt;&lt;br&gt;&lt;b&gt;BlastP hit with OCIILLLM_00441&lt;/b&gt;&lt;br&gt;Percentage identity: 35&lt;br&gt;Percentage coverage: 70&lt;br&gt;BLAST bit score: 130&lt;br&gt;E-value: 1.01e-32" locus_tag="EJ069_RS05400" class="clusterblast-orf" id="dummy-1_h1_1_15"  />
</g>
<g id="a1_0016"  >
<polygon points="618,85 623,80 635,80 635,90 623,90 618,85 " style="fill:#d81597; stroke-width:1; stroke:black; " description="&lt;b&gt;EJ069_RS05405&lt;/b&gt;&lt;br&gt;PqqD family protein&lt;br&gt;Location: 1144979 - 1145410&lt;br&gt;&lt;br&gt;&lt;b&gt;BlastP hit with OCIILLLM_00442&lt;/b&gt;&lt;br&gt;Percentage identity: 35&lt;br&gt;Percentage coverage: 95&lt;br&gt;BLAST bit score: 61&lt;br&gt;E-value: 1.08e-10" locus_tag="EJ069_RS05405" class="clusterblast-orf" id="dummy-1_h1_1_16"  />
</g>
<g id="a1_0017"  >
<polygon points="642,85 647,80 697,80 697,90 647,90 642,85 " style="fill:white; stroke-width:1; stroke:black; " description="&lt;b&gt;EJ069_RS05410&lt;/b&gt;&lt;br&gt;methylenetetrahydrofolate--tRNA-(uracil(54)- C(5))-methyltransferase (FADH(2)-oxidizing) TrmFO&lt;br&gt;Location: 1145586 - 1146995" locus_tag="EJ069_RS05410" class="clusterblast-orf" id="dummy-1_h1_1_17"  />
</g>
<g id="a1_0018"  >
<polygon points="713,85 718,80 718,80 718,90 718,90 713,85 " style="fill:white; stroke-width:1; stroke:black; " description="&lt;b&gt;EJ069_RS05415&lt;/b&gt;&lt;br&gt;DUF1127 domain-containing protein&lt;br&gt;Location: 1147392 - 1147532" locus_tag="EJ069_RS05415" class="clusterblast-orf" id="dummy-1_h1_1_18"  />
</g>
<g id="a1_0019"  >
<polygon points="721,85 726,80 726,80 726,90 726,90 721,85 " style="fill:white; stroke-width:1; stroke:black; " description="&lt;b&gt;EJ069_RS05420&lt;/b&gt;&lt;br&gt;DUF1127 domain-containing protein&lt;br&gt;Location: 1147584 - 1147724" locus_tag="EJ069_RS05420" class="clusterblast-orf" id="dummy-1_h1_1_19"  />
</g>
<g id="a1_0020"  >
<polygon points="735,90 775,90 780,85 775,80 735,80 735,90 " style="fill:white; stroke-width:1; stroke:black; " description="&lt;b&gt;EJ069_RS05425&lt;/b&gt;&lt;br&gt;DUF2157 domain-containing protein&lt;br&gt;Location: 1147958 - 1149076" locus_tag="EJ069_RS05425" class="clusterblast-orf" id="dummy-1_h1_1_20"  />
</g>
</svg>
