<svg xmlns="http://www.w3.org/2000/svg" xmlns:xlink="http://www.w3.org/1999/xlink" version="1.1" x="0" y="0" height="230" width="800" viewBox="0 0 800 230" preserveAspectRatio="none"  >
<g label="Query sequence" class="clusterblast-cluster"  >
<text x="5" y="20" class="clusterblast-acc"  >
Query sequence</text>
<line x1="10" y1="35" x2="778.0" y2="35" style="stroke-width:1; stroke:grey; "  />
<polygon points="23,35 28,30 49,30 49,40 28,40 23,35 " style="fill:#d81515; stroke-width:1; stroke:black; " description="&lt;b&gt;OCIILLLM_02553&lt;/b&gt;&lt;br&gt;putative GTP-binding protein EngB&lt;br&gt;Location: 27597 - 28248" locus_tag="OCIILLLM_02553" class="clusterblast-orf" id="dummy-1_q0_0_all"  />
<polygon points="49,35 54,30 78,30 78,40 54,40 49,35 " style="fill:#67d815; stroke-width:1; stroke:black; " description="&lt;b&gt;OCIILLLM_02554&lt;/b&gt;&lt;br&gt;hypothetical protein&lt;br&gt;Location: 28244 - 29000" locus_tag="OCIILLLM_02554" class="clusterblast-orf" id="dummy-1_q1_0_all"  />
<polygon points="78,35 83,30 152,30 152,40 83,40 78,35 " style="fill:#15b9d8; stroke-width:1; stroke:black; " description="&lt;b&gt;OCIILLLM_02555&lt;/b&gt;&lt;br&gt;Membrane protein insertase YidC&lt;br&gt;Location: 28996 - 30916" locus_tag="OCIILLLM_02555" class="clusterblast-orf" id="dummy-1_q2_0_all"  />
<polygon points="158,35 163,30 219,30 219,40 163,40 158,35 " style="fill:#a515d8; stroke-width:1; stroke:black; " description="&lt;b&gt;OCIILLLM_02556&lt;/b&gt;&lt;br&gt;putative signaling protein&lt;br&gt;Location: 31067 - 32621" locus_tag="OCIILLLM_02556" class="clusterblast-orf" id="dummy-1_q3_0_all"  />
<polygon points="222,35 227,30 256,30 256,40 227,40 222,35 " style="fill:#d85315; stroke-width:1; stroke:black; " description="&lt;b&gt;OCIILLLM_02557&lt;/b&gt;&lt;br&gt;tRNA-cytidine(32) 2-sulfurtransferase&lt;br&gt;Location: 32701 - 33577" locus_tag="OCIILLLM_02557" class="clusterblast-orf" id="dummy-1_q4_0_all"  />
<polygon points="258,35 263,30 309,30 309,40 263,40 258,35 " style="fill:#2ad815; stroke-width:1; stroke:black; " description="&lt;b&gt;OCIILLLM_02558&lt;/b&gt;&lt;br&gt;Replication-associated recombination protein A&lt;br&gt;Location: 33628 - 34942" locus_tag="OCIILLLM_02558" class="clusterblast-orf" id="dummy-1_q5_0_all"  />
<polygon points="310,35 315,30 364,30 364,40 315,40 310,35 " style="fill:#157cd8; stroke-width:1; stroke:black; " description="&lt;b&gt;OCIILLLM_02559&lt;/b&gt;&lt;br&gt;Periplasmic serine endoprotease DegP&lt;br&gt;Location: 34972 - 36358" locus_tag="OCIILLLM_02559" class="clusterblast-orf" id="dummy-1_q6_0_all"  />
<polygon points="370,35 375,30 392,30 392,40 375,40 370,35 " style="fill:#d815ce; stroke-width:1; stroke:black; " description="&lt;b&gt;OCIILLLM_02560&lt;/b&gt;&lt;br&gt;Acyl-homoserine-lactone synthase&lt;br&gt;Location: 36513 - 37101" locus_tag="OCIILLLM_02560" class="clusterblast-orf" id="dummy-1_q7_0_all"  />
<polygon points="395,35 400,30 418,30 418,40 400,40 395,35 " style="fill:#d89015; stroke-width:1; stroke:black; " description="&lt;b&gt;OCIILLLM_02561&lt;/b&gt;&lt;br&gt;hypothetical protein&lt;br&gt;Location: 37155 - 37767" locus_tag="OCIILLLM_02561" class="clusterblast-orf" id="dummy-1_q8_0_all"  />
<polygon points="425,35 430,30 441,30 441,40 430,40 425,35 " style="fill:#15d83e; stroke-width:1; stroke:black; " description="&lt;b&gt;OCIILLLM_02562&lt;/b&gt;&lt;br&gt;50S ribosomal protein L17&lt;br&gt;Location: 37940 - 38354" locus_tag="OCIILLLM_02562" class="clusterblast-orf" id="dummy-1_q9_0_all"  />
<polygon points="446,35 451,30 486,30 486,40 451,40 446,35 " style="fill:#153ed8; stroke-width:1; stroke:black; " description="&lt;b&gt;OCIILLLM_02563&lt;/b&gt;&lt;br&gt;DNA-directed RNA polymerase subunit alpha&lt;br&gt;Location: 38491 - 39508" locus_tag="OCIILLLM_02563" class="clusterblast-orf" id="dummy-1_q10_0_all"  />
<polygon points="491,35 496,30 506,30 506,40 496,40 491,35 " style="fill:#d81590; stroke-width:1; stroke:black; " description="&lt;b&gt;OCIILLLM_02564&lt;/b&gt;&lt;br&gt;30S ribosomal protein S11&lt;br&gt;Location: 39626 - 40028" locus_tag="OCIILLLM_02564" class="clusterblast-orf" id="dummy-1_q11_0_all"  />
<polygon points="507,35 512,30 521,30 521,40 512,40 507,35 " style="fill:#d8ce15; stroke-width:1; stroke:black; " description="&lt;b&gt;OCIILLLM_02565&lt;/b&gt;&lt;br&gt;30S ribosomal protein S13&lt;br&gt;Location: 40043 - 40412" locus_tag="OCIILLLM_02565" class="clusterblast-orf" id="dummy-1_q12_0_all"  />
<polygon points="528,35 533,30 554,30 554,40 533,40 528,35 " style="fill:#15d87c; stroke-width:1; stroke:black; " description="&lt;b&gt;OCIILLLM_02566&lt;/b&gt;&lt;br&gt;Adenylate kinase&lt;br&gt;Location: 40594 - 41248" locus_tag="OCIILLLM_02566" class="clusterblast-orf" id="dummy-1_q13_0_all"  />
<polygon points="554,35 559,30 606,30 606,40 559,40 554,35 " style="fill:#2a15d8; stroke-width:1; stroke:black; " description="&lt;b&gt;OCIILLLM_02567&lt;/b&gt;&lt;br&gt;Protein translocase subunit SecY&lt;br&gt;Location: 41252 - 42611" locus_tag="OCIILLLM_02567" class="clusterblast-orf" id="dummy-1_q14_0_all"  />
<polygon points="611,35 616,30 629,30 629,40 616,40 611,35 " style="fill:#d81553; stroke-width:1; stroke:black; " description="&lt;b&gt;OCIILLLM_02568&lt;/b&gt;&lt;br&gt;50S ribosomal protein L15&lt;br&gt;Location: 42717 - 43185" locus_tag="OCIILLLM_02568" class="clusterblast-orf" id="dummy-1_q15_0_all"  />
<polygon points="646,40 719,40 724,35 719,30 646,30 646,40 " style="fill:#a5d815; stroke-width:1; stroke:black; " description="&lt;b&gt;OCIILLLM_02569&lt;/b&gt;&lt;br&gt;hypothetical protein&lt;br&gt;Location: 43635 - 45633" locus_tag="OCIILLLM_02569" class="clusterblast-orf" id="dummy-1_q16_0_all"  />
<polygon points="724,40 745,40 750,35 745,30 724,30 724,40 " style="fill:#15d8b9; stroke-width:1; stroke:black; " description="&lt;b&gt;OCIILLLM_02570&lt;/b&gt;&lt;br&gt;Fumarylpyruvate hydrolase&lt;br&gt;Location: 45632 - 46307" locus_tag="OCIILLLM_02570" class="clusterblast-orf" id="dummy-1_q17_0_all"  />
<polygon points="750,35 755,30 756,30 756,40 755,40 750,35 " style="fill:#6715d8; stroke-width:1; stroke:black; " description="&lt;b&gt;OCIILLLM_02571&lt;/b&gt;&lt;br&gt;hypothetical protein&lt;br&gt;Location: 46312 - 46471" locus_tag="OCIILLLM_02571" class="clusterblast-orf" id="dummy-1_q18_0_all"  />
</g>
<g label="NZ_CP035510" description="NZ_CP035510 (1833833-1854421): Haematobacter massiliensis strain OT1 chromoso... (42% of genes show similarity), hserlactone" class="clusterblast-cluster"  >
<text x="5" y="70" class="clusterblast-acc"  >
<a xlink:href="https://antismash-db.secondarymetabolites.org/area.html?record=NZ_CP035510&amp;start=1833833&amp;end=1854421" target="_blank">NZ_CP035510 (1833833-1854421)</a>: Haematobacter massiliensis strain OT1 chromoso... (42% of genes show similarity), hserlactone</text>
<line x1="10" y1="85" x2="778.0" y2="85" style="stroke-width:1; stroke:grey; "  />
</g>
<g id="a1_000"  >
<polygon points="0,85 5,80 50,80 50,90 5,90 0,85 " style="fill:white; stroke-width:1; stroke:black; " description="&lt;b&gt;HmaOT1_RS10615&lt;/b&gt;&lt;br&gt;amino acid ABC transporter permease&lt;br&gt;Location: 1834281 - 1835579" locus_tag="HmaOT1_RS10615" class="clusterblast-orf" id="dummy-1_h1_8_0"  />
</g>
<g id="a1_001"  >
<polygon points="50,85 55,80 99,80 99,90 55,90 50,85 " style="fill:white; stroke-width:1; stroke:black; " description="&lt;b&gt;HmaOT1_RS10620&lt;/b&gt;&lt;br&gt;ABC transporter permease subunit&lt;br&gt;Location: 1835581 - 1836837" locus_tag="HmaOT1_RS10620" class="clusterblast-orf" id="dummy-1_h1_8_1"  />
</g>
<g id="a1_002"  >
<polygon points="103,85 108,80 142,80 142,90 108,90 103,85 " style="fill:white; stroke-width:1; stroke:black; " description="&lt;b&gt;HmaOT1_RS10625&lt;/b&gt;&lt;br&gt;amino acid ABC transporter substrate-binding protein&lt;br&gt;Location: 1836937 - 1837953" locus_tag="HmaOT1_RS10625" class="clusterblast-orf" id="dummy-1_h1_8_2"  />
</g>
<g id="a1_003"  >
<polygon points="150,85 155,80 178,80 178,90 155,90 150,85 " style="fill:white; stroke-width:1; stroke:black; " description="&lt;b&gt;HmaOT1_RS10630&lt;/b&gt;&lt;br&gt;ATPase&lt;br&gt;Location: 1838162 - 1838878" locus_tag="HmaOT1_RS10630" class="clusterblast-orf" id="dummy-1_h1_8_3"  />
</g>
<g id="a1_004"  >
<polygon points="178,85 183,80 204,80 204,90 183,90 178,85 " style="fill:white; stroke-width:1; stroke:black; " description="&lt;b&gt;HmaOT1_RS10635&lt;/b&gt;&lt;br&gt;HAD-IA family hydrolase&lt;br&gt;Location: 1838875 - 1839537" locus_tag="HmaOT1_RS10635" class="clusterblast-orf" id="dummy-1_h1_8_4"  />
</g>
<g id="a1_005"  >
<polygon points="203,85 208,80 244,80 244,90 208,90 203,85 " style="fill:white; stroke-width:1; stroke:black; " description="&lt;b&gt;HmaOT1_RS10640&lt;/b&gt;&lt;br&gt;RluA family pseudouridine synthase&lt;br&gt;Location: 1839534 - 1840583" locus_tag="HmaOT1_RS10640" class="clusterblast-orf" id="dummy-1_h1_8_5"  />
</g>
<g id="a1_006"  >
<polygon points="244,85 249,80 258,80 258,90 249,90 244,85 " style="fill:white; stroke-width:1; stroke:black; " description="&lt;b&gt;HmaOT1_RS10645&lt;/b&gt;&lt;br&gt;fluoride efflux transporter CrcB&lt;br&gt;Location: 1840580 - 1840945" locus_tag="HmaOT1_RS10645" class="clusterblast-orf" id="dummy-1_h1_8_6"  />
</g>
<g id="a1_007"  >
<polygon points="261,85 266,80 313,80 313,90 266,90 261,85 " style="fill:#2ad815; stroke-width:1; stroke:black; " description="&lt;b&gt;HmaOT1_RS10650&lt;/b&gt;&lt;br&gt;replication-associated recombination protein A&lt;br&gt;Location: 1841027 - 1842343&lt;br&gt;&lt;br&gt;&lt;b&gt;BlastP hit with OCIILLLM_02558&lt;/b&gt;&lt;br&gt;Percentage identity: 80&lt;br&gt;Percentage coverage: 100&lt;br&gt;BLAST bit score: 700&lt;br&gt;E-value: 2.54e-253" locus_tag="HmaOT1_RS10650" class="clusterblast-orf" id="dummy-1_h1_8_7"  />
</g>
<g id="a1_008"  >
<polygon points="313,85 318,80 366,80 366,90 318,90 313,85 " style="fill:#157cd8; stroke-width:1; stroke:black; " description="&lt;b&gt;HmaOT1_RS10655&lt;/b&gt;&lt;br&gt;PDZ domain-containing protein&lt;br&gt;Location: 1842348 - 1843724&lt;br&gt;&lt;br&gt;&lt;b&gt;BlastP hit with OCIILLLM_02559&lt;/b&gt;&lt;br&gt;Percentage identity: 56&lt;br&gt;Percentage coverage: 98&lt;br&gt;BLAST bit score: 459&lt;br&gt;E-value: 8.23e-158" locus_tag="HmaOT1_RS10655" class="clusterblast-orf" id="dummy-1_h1_8_8"  />
</g>
<g id="a1_009"  >
<polygon points="370,85 375,80 393,80 393,90 375,90 370,85 " style="fill:#d815ce; stroke-width:1; stroke:black; " description="&lt;b&gt;HmaOT1_RS10660&lt;/b&gt;&lt;br&gt;N-acyl-L-homoserine lactone synthetase&lt;br&gt;Location: 1843834 - 1844421&lt;br&gt;&lt;br&gt;&lt;b&gt;BlastP hit with OCIILLLM_02560&lt;/b&gt;&lt;br&gt;Percentage identity: 56&lt;br&gt;Percentage coverage: 100&lt;br&gt;BLAST bit score: 232&lt;br&gt;E-value: 1.91e-76" locus_tag="HmaOT1_RS10660" class="clusterblast-orf" id="dummy-1_h1_8_9"  />
</g>
<g id="a1_0010"  >
<polygon points="396,85 401,80 419,80 419,90 401,90 396,85 " style="fill:#d89015; stroke-width:1; stroke:black; " description="&lt;b&gt;HmaOT1_RS10665&lt;/b&gt;&lt;br&gt;LuxR family transcriptional regulator&lt;br&gt;Location: 1844482 - 1845090&lt;br&gt;&lt;br&gt;&lt;b&gt;BlastP hit with OCIILLLM_02561&lt;/b&gt;&lt;br&gt;Percentage identity: 55&lt;br&gt;Percentage coverage: 95&lt;br&gt;BLAST bit score: 209&lt;br&gt;E-value: 2.97e-67" locus_tag="HmaOT1_RS10665" class="clusterblast-orf" id="dummy-1_h1_8_10"  />
</g>
<g id="a1_0011"  >
<polygon points="432,85 437,80 448,80 448,90 437,90 432,85 " style="fill:#15d83e; stroke-width:1; stroke:black; " description="&lt;b&gt;HmaOT1_RS10670&lt;/b&gt;&lt;br&gt;50S ribosomal protein L17&lt;br&gt;Location: 1845423 - 1845842&lt;br&gt;&lt;br&gt;&lt;b&gt;BlastP hit with OCIILLLM_02562&lt;/b&gt;&lt;br&gt;Percentage identity: 84&lt;br&gt;Percentage coverage: 100&lt;br&gt;BLAST bit score: 234&lt;br&gt;E-value: 3.68e-79" locus_tag="HmaOT1_RS10670" class="clusterblast-orf" id="dummy-1_h1_8_11"  />
</g>
<g id="a1_0012"  >
<polygon points="453,85 458,80 493,80 493,90 458,90 453,85 " style="fill:#153ed8; stroke-width:1; stroke:black; " description="&lt;b&gt;HmaOT1_RS10675&lt;/b&gt;&lt;br&gt;DNA-directed RNA polymerase subunit alpha&lt;br&gt;Location: 1845971 - 1846987&lt;br&gt;&lt;br&gt;&lt;b&gt;BlastP hit with OCIILLLM_02563&lt;/b&gt;&lt;br&gt;Percentage identity: 89&lt;br&gt;Percentage coverage: 100&lt;br&gt;BLAST bit score: 604&lt;br&gt;E-value: 7.25e-219" locus_tag="HmaOT1_RS10675" class="clusterblast-orf" id="dummy-1_h1_8_12"  />
</g>
<g id="a1_0013"  >
<polygon points="498,85 503,80 513,80 513,90 503,90 498,85 " style="fill:#d81590; stroke-width:1; stroke:black; " description="&lt;b&gt;HmaOT1_RS10680&lt;/b&gt;&lt;br&gt;30S ribosomal protein S11&lt;br&gt;Location: 1847109 - 1847498&lt;br&gt;&lt;br&gt;&lt;b&gt;BlastP hit with OCIILLLM_02564&lt;/b&gt;&lt;br&gt;Percentage identity: 92&lt;br&gt;Percentage coverage: 100&lt;br&gt;BLAST bit score: 226&lt;br&gt;E-value: 5.07e-76" locus_tag="HmaOT1_RS10680" class="clusterblast-orf" id="dummy-1_h1_8_13"  />
</g>
<g id="a1_0014"  >
<polygon points="513,85 518,80 528,80 528,90 518,90 513,85 " style="fill:#d8ce15; stroke-width:1; stroke:black; " description="&lt;b&gt;HmaOT1_RS10685&lt;/b&gt;&lt;br&gt;30S ribosomal protein S13&lt;br&gt;Location: 1847511 - 1847879&lt;br&gt;&lt;br&gt;&lt;b&gt;BlastP hit with OCIILLLM_02565&lt;/b&gt;&lt;br&gt;Percentage identity: 82&lt;br&gt;Percentage coverage: 100&lt;br&gt;BLAST bit score: 195&lt;br&gt;E-value: 5.77e-64" locus_tag="HmaOT1_RS10685" class="clusterblast-orf" id="dummy-1_h1_8_14"  />
</g>
<g id="a1_0015"  >
<polygon points="535,85 540,80 560,80 560,90 540,90 535,85 " style="fill:#15d87c; stroke-width:1; stroke:black; " description="&lt;b&gt;HmaOT1_RS10690&lt;/b&gt;&lt;br&gt;adenylate kinase&lt;br&gt;Location: 1848078 - 1848725&lt;br&gt;&lt;br&gt;&lt;b&gt;BlastP hit with OCIILLLM_02566&lt;/b&gt;&lt;br&gt;Percentage identity: 73&lt;br&gt;Percentage coverage: 98&lt;br&gt;BLAST bit score: 313&lt;br&gt;E-value: 7.03e-108" locus_tag="HmaOT1_RS10690" class="clusterblast-orf" id="dummy-1_h1_8_15"  />
</g>
<g id="a1_0016"  >
<polygon points="560,85 565,80 613,80 613,90 565,90 560,85 " style="fill:#2a15d8; stroke-width:1; stroke:black; " description="&lt;b&gt;HmaOT1_RS10695&lt;/b&gt;&lt;br&gt;preprotein translocase subunit SecY&lt;br&gt;Location: 1848722 - 1850089&lt;br&gt;&lt;br&gt;&lt;b&gt;BlastP hit with OCIILLLM_02567&lt;/b&gt;&lt;br&gt;Percentage identity: 80&lt;br&gt;Percentage coverage: 98&lt;br&gt;BLAST bit score: 687&lt;br&gt;E-value: 1.28e-247" locus_tag="HmaOT1_RS10695" class="clusterblast-orf" id="dummy-1_h1_8_16"  />
</g>
<g id="a1_0017"  >
<polygon points="618,85 623,80 636,80 636,90 623,90 618,85 " style="fill:#d81553; stroke-width:1; stroke:black; " description="&lt;b&gt;HmaOT1_RS10700&lt;/b&gt;&lt;br&gt;50S ribosomal protein L15&lt;br&gt;Location: 1850211 - 1850681&lt;br&gt;&lt;br&gt;&lt;b&gt;BlastP hit with OCIILLLM_02568&lt;/b&gt;&lt;br&gt;Percentage identity: 77&lt;br&gt;Percentage coverage: 97&lt;br&gt;BLAST bit score: 219&lt;br&gt;E-value: 1.17e-72" locus_tag="HmaOT1_RS10700" class="clusterblast-orf" id="dummy-1_h1_8_17"  />
</g>
<g id="a1_0018"  >
<polygon points="645,85 650,80 652,80 652,90 650,90 645,85 " style="fill:white; stroke-width:1; stroke:black; " description="&lt;b&gt;HmaOT1_RS10705&lt;/b&gt;&lt;br&gt;50S ribosomal protein L30&lt;br&gt;Location: 1850908 - 1851096" locus_tag="HmaOT1_RS10705" class="clusterblast-orf" id="dummy-1_h1_8_18"  />
</g>
<g id="a1_0019"  >
<polygon points="653,85 658,80 674,80 674,90 658,90 653,85 " style="fill:white; stroke-width:1; stroke:black; " description="&lt;b&gt;HmaOT1_RS10710&lt;/b&gt;&lt;br&gt;30S ribosomal protein S5&lt;br&gt;Location: 1851108 - 1851662" locus_tag="HmaOT1_RS10710" class="clusterblast-orf" id="dummy-1_h1_8_19"  />
</g>
<g id="a1_0020"  >
<polygon points="682,85 687,80 696,80 696,90 687,90 682,85 " style="fill:white; stroke-width:1; stroke:black; " description="&lt;b&gt;HmaOT1_RS10715&lt;/b&gt;&lt;br&gt;50S ribosomal protein L18&lt;br&gt;Location: 1851851 - 1852210" locus_tag="HmaOT1_RS10715" class="clusterblast-orf" id="dummy-1_h1_8_20"  />
</g>
<g id="a1_0021"  >
<polygon points="696,85 701,80 717,80 717,90 701,90 696,85 " style="fill:white; stroke-width:1; stroke:black; " description="&lt;b&gt;HmaOT1_RS10720&lt;/b&gt;&lt;br&gt;50S ribosomal protein L6&lt;br&gt;Location: 1852222 - 1852755" locus_tag="HmaOT1_RS10720" class="clusterblast-orf" id="dummy-1_h1_8_21"  />
</g>
<g id="a1_0022"  >
<polygon points="717,85 722,80 733,80 733,90 722,90 717,85 " style="fill:white; stroke-width:1; stroke:black; " description="&lt;b&gt;HmaOT1_RS10725&lt;/b&gt;&lt;br&gt;30S ribosomal protein S8&lt;br&gt;Location: 1852766 - 1853164" locus_tag="HmaOT1_RS10725" class="clusterblast-orf" id="dummy-1_h1_8_22"  />
</g>
<g id="a1_0023"  >
<polygon points="733,85 738,80 745,80 745,90 738,90 733,85 " style="fill:white; stroke-width:1; stroke:black; " description="&lt;b&gt;HmaOT1_RS10730&lt;/b&gt;&lt;br&gt;30S ribosomal protein S14&lt;br&gt;Location: 1853175 - 1853480" locus_tag="HmaOT1_RS10730" class="clusterblast-orf" id="dummy-1_h1_8_23"  />
</g>
<g id="a1_0024"  >
<polygon points="746,85 751,80 768,80 768,90 751,90 746,85 " style="fill:white; stroke-width:1; stroke:black; " description="&lt;b&gt;HmaOT1_RS10735&lt;/b&gt;&lt;br&gt;50S ribosomal protein L5&lt;br&gt;Location: 1853503 - 1854063" locus_tag="HmaOT1_RS10735" class="clusterblast-orf" id="dummy-1_h1_8_24"  />
</g>
<g id="a1_0025"  >
<polygon points="768,85 773,80 780,80 780,90 773,90 768,85 " style="fill:white; stroke-width:1; stroke:black; " description="&lt;b&gt;HmaOT1_RS10740&lt;/b&gt;&lt;br&gt;50S ribosomal protein L24&lt;br&gt;Location: 1854063 - 1854368" locus_tag="HmaOT1_RS10740" class="clusterblast-orf" id="dummy-1_h1_8_25"  />
</g>
</svg>
