<svg xmlns="http://www.w3.org/2000/svg" xmlns:xlink="http://www.w3.org/1999/xlink" version="1.1" x="0" y="0" height="230" width="800" viewBox="0 0 800 230" preserveAspectRatio="none"  >
<g label="Query sequence" class="clusterblast-cluster"  >
<text x="5" y="20" class="clusterblast-acc"  >
Query sequence</text>
<line x1="10" y1="35" x2="778.0" y2="35" style="stroke-width:1; stroke:grey; "  />
<polygon points="13,40 83,40 88,35 83,30 13,30 13,40 " style="fill:#d81515; stroke-width:1; stroke:black; " description="&lt;b&gt;OCIILLLM_03012&lt;/b&gt;&lt;br&gt;ABC transporter ATP-binding protein uup&lt;br&gt;Location: 1056 - 2910" locus_tag="OCIILLLM_03012" class="clusterblast-orf" id="dummy-1_q0_0_all"  />
<polygon points="97,40 116,40 121,35 116,30 97,30 97,40 " style="fill:#77d815; stroke-width:1; stroke:black; " description="&lt;b&gt;OCIILLLM_03013&lt;/b&gt;&lt;br&gt;hypothetical protein&lt;br&gt;Location: 3130 - 3727" locus_tag="OCIILLLM_03013" class="clusterblast-orf" id="dummy-1_q1_0_all"  />
<polygon points="122,35 127,30 142,30 142,40 127,40 122,35 " style="fill:#15d8d8; stroke-width:1; stroke:black; " description="&lt;b&gt;OCIILLLM_03014&lt;/b&gt;&lt;br&gt;hypothetical protein&lt;br&gt;Location: 3752 - 4229" locus_tag="OCIILLLM_03014" class="clusterblast-orf" id="dummy-1_q2_0_all"  />
<polygon points="144,35 149,30 200,30 200,40 149,40 144,35 " style="fill:#7715d8; stroke-width:1; stroke:black; " description="&lt;b&gt;OCIILLLM_03015&lt;/b&gt;&lt;br&gt;Tryptophan decarboxylase&lt;br&gt;Location: 4289 - 5678" locus_tag="OCIILLLM_03015" class="clusterblast-orf" id="dummy-1_q3_0_all"  />
<polygon points="208,40 228,40 233,35 228,30 208,30 208,40 " style="fill:#d85e15; stroke-width:1; stroke:black; " description="&lt;b&gt;OCIILLLM_03016&lt;/b&gt;&lt;br&gt;hypothetical protein&lt;br&gt;Location: 5861 - 6485" locus_tag="OCIILLLM_03016" class="clusterblast-orf" id="dummy-1_q4_0_all"  />
<polygon points="243,40 303,40 308,35 303,30 243,30 243,40 " style="fill:#2ed815; stroke-width:1; stroke:black; " description="&lt;b&gt;OCIILLLM_03017&lt;/b&gt;&lt;br&gt;Cysteine--tRNA ligase&lt;br&gt;Location: 6731 - 8333" locus_tag="OCIILLLM_03017" class="clusterblast-orf" id="dummy-1_q5_0_all"  />
<polygon points="308,40 369,40 374,35 369,30 308,30 308,40 " style="fill:#158fd8; stroke-width:1; stroke:black; " description="&lt;b&gt;OCIILLLM_03018&lt;/b&gt;&lt;br&gt;(R)-citramalate synthase&lt;br&gt;Location: 8329 - 9967" locus_tag="OCIILLLM_03018" class="clusterblast-orf" id="dummy-1_q6_0_all"  />
<polygon points="374,40 399,40 404,35 399,30 374,30 374,40 " style="fill:#c015d8; stroke-width:1; stroke:black; " description="&lt;b&gt;OCIILLLM_03019&lt;/b&gt;&lt;br&gt;hypothetical protein&lt;br&gt;Location: 9963 - 10722" locus_tag="OCIILLLM_03019" class="clusterblast-orf" id="dummy-1_q7_0_all"  />
<polygon points="405,35 410,30 453,30 453,40 410,40 405,35 " style="fill:#d8a715; stroke-width:1; stroke:black; " description="&lt;b&gt;OCIILLLM_03020&lt;/b&gt;&lt;br&gt;Riboflavin transporter RfnT&lt;br&gt;Location: 10731 - 11937" locus_tag="OCIILLLM_03020" class="clusterblast-orf" id="dummy-1_q8_0_all"  />
<polygon points="455,40 476,40 481,35 476,30 455,30 455,40 " style="fill:#15d846; stroke-width:1; stroke:black; " description="&lt;b&gt;OCIILLLM_03021&lt;/b&gt;&lt;br&gt;hypothetical protein&lt;br&gt;Location: 11983 - 12616" locus_tag="OCIILLLM_03021" class="clusterblast-orf" id="dummy-1_q9_0_all"  />
<polygon points="481,40 502,40 507,35 502,30 481,30 481,40 " style="fill:#1546d8; stroke-width:1; stroke:black; " description="&lt;b&gt;OCIILLLM_03022&lt;/b&gt;&lt;br&gt;hypothetical protein&lt;br&gt;Location: 12612 - 13272" locus_tag="OCIILLLM_03022" class="clusterblast-orf" id="dummy-1_q10_0_all"  />
<polygon points="511,35 516,30 551,30 551,40 516,40 511,35 " style="fill:#d815a7; stroke-width:1; stroke:black; " description="&lt;b&gt;OCIILLLM_03023&lt;/b&gt;&lt;br&gt;Glucokinase&lt;br&gt;Location: 13362 - 14343" locus_tag="OCIILLLM_03023" class="clusterblast-orf" id="dummy-1_q11_0_all"  />
<polygon points="551,35 556,30 605,30 605,40 556,40 551,35 " style="fill:#c0d815; stroke-width:1; stroke:black; " description="&lt;b&gt;OCIILLLM_03024&lt;/b&gt;&lt;br&gt;Beta-glucosidase A&lt;br&gt;Location: 14352 - 15684" locus_tag="OCIILLLM_03024" class="clusterblast-orf" id="dummy-1_q12_0_all"  />
<polygon points="606,35 611,30 648,30 648,40 611,40 606,35 " style="fill:#15d88f; stroke-width:1; stroke:black; " description="&lt;b&gt;OCIILLLM_03025&lt;/b&gt;&lt;br&gt;HTH-type transcriptional regulator RafR&lt;br&gt;Location: 15712 - 16744" locus_tag="OCIILLLM_03025" class="clusterblast-orf" id="dummy-1_q13_0_all"  />
<polygon points="658,40 707,40 712,35 707,30 658,30 658,40 " style="fill:#2e15d8; stroke-width:1; stroke:black; " description="&lt;b&gt;OCIILLLM_03026&lt;/b&gt;&lt;br&gt;hypothetical protein&lt;br&gt;Location: 16987 - 18334" locus_tag="OCIILLLM_03026" class="clusterblast-orf" id="dummy-1_q14_0_all"  />
<polygon points="717,40 761,40 766,35 761,30 717,30 717,40 " style="fill:#d8155e; stroke-width:1; stroke:black; " description="&lt;b&gt;OCIILLLM_03027&lt;/b&gt;&lt;br&gt;hypothetical protein&lt;br&gt;Location: 18448 - 19675" locus_tag="OCIILLLM_03027" class="clusterblast-orf" id="dummy-1_q15_0_all"  />
</g>
<g label="NZ_PZZW01000002" description="NZ_PZZW01000002 (59846-79139): Rhodobacter johrii strain JA192 Ga0191650 102,... (42% of genes show similarity), terpene" class="clusterblast-cluster"  >
<text x="5" y="70" class="clusterblast-acc"  >
<a xlink:href="https://antismash-db.secondarymetabolites.org/area.html?record=NZ_PZZW01000002&amp;start=59846&amp;end=79139" target="_blank">NZ_PZZW01000002 (59846-79139)</a>: Rhodobacter johrii strain JA192 Ga0191650 102,... (42% of genes show similarity), terpene</text>
<line x1="10" y1="85" x2="778.0" y2="85" style="stroke-width:1; stroke:grey; "  />
</g>
<g id="a1_000"  >
<polygon points="0,90 68,90 73,85 68,80 0,80 0,90 " style="fill:#d81515; stroke-width:1; stroke:black; " description="&lt;b&gt;C8J29_RS05255&lt;/b&gt;&lt;br&gt;ATP-binding cassette domain-containing protein&lt;br&gt;Location: 59847 - 61670&lt;br&gt;&lt;br&gt;&lt;b&gt;BlastP hit with OCIILLLM_03012&lt;/b&gt;&lt;br&gt;Percentage identity: 79&lt;br&gt;Percentage coverage: 98&lt;br&gt;BLAST bit score: 928&lt;br&gt;E-value: 0.0" locus_tag="C8J29_RS05255" class="clusterblast-orf" id="dummy-1_h1_10_0"  />
</g>
<g id="a1_001"  >
<polygon points="82,90 101,90 106,85 101,80 82,80 82,90 " style="fill:#77d815; stroke-width:1; stroke:black; " description="&lt;b&gt;C8J29_RS05260&lt;/b&gt;&lt;br&gt;porin family protein&lt;br&gt;Location: 61883 - 62485&lt;br&gt;&lt;br&gt;&lt;b&gt;BlastP hit with OCIILLLM_03013&lt;/b&gt;&lt;br&gt;Percentage identity: 57&lt;br&gt;Percentage coverage: 101&lt;br&gt;BLAST bit score: 220&lt;br&gt;E-value: 1.3e-71" locus_tag="C8J29_RS05260" class="clusterblast-orf" id="dummy-1_h1_10_1"  />
</g>
<g id="a1_002"  >
<polygon points="116,90 129,90 134,85 129,80 116,80 116,90 " style="fill:white; stroke-width:1; stroke:black; " description="&lt;b&gt;C8J29_RS05265&lt;/b&gt;&lt;br&gt;Lrp/AsnC family transcriptional regulator&lt;br&gt;Location: 62718 - 63167" locus_tag="C8J29_RS05265" class="clusterblast-orf" id="dummy-1_h1_10_2"  />
</g>
<g id="a1_003"  >
<polygon points="148,90 168,90 173,85 168,80 148,80 148,90 " style="fill:white; stroke-width:1; stroke:black; " description="&lt;b&gt;C8J29_RS05270&lt;/b&gt;&lt;br&gt;LysE family transporter&lt;br&gt;Location: 63520 - 64128" locus_tag="C8J29_RS05270" class="clusterblast-orf" id="dummy-1_h1_10_3"  />
</g>
<g id="a1_004"  >
<polygon points="172,85 177,80 191,80 191,90 177,90 172,85 " style="fill:white; stroke-width:1; stroke:black; " description="&lt;b&gt;C8J29_RS05275&lt;/b&gt;&lt;br&gt;MmcQ/YjbR family DNA-binding protein&lt;br&gt;Location: 64125 - 64586" locus_tag="C8J29_RS05275" class="clusterblast-orf" id="dummy-1_h1_10_4"  />
</g>
<g id="a1_005"  >
<polygon points="195,90 251,90 256,85 251,80 195,80 195,90 " style="fill:#2ed815; stroke-width:1; stroke:black; " description="&lt;b&gt;C8J29_RS05280&lt;/b&gt;&lt;br&gt;cysteine--tRNA ligase&lt;br&gt;Location: 64680 - 66179&lt;br&gt;&lt;br&gt;&lt;b&gt;BlastP hit with OCIILLLM_03017&lt;/b&gt;&lt;br&gt;Percentage identity: 63&lt;br&gt;Percentage coverage: 93&lt;br&gt;BLAST bit score: 603&lt;br&gt;E-value: 1.33e-212" locus_tag="C8J29_RS05280" class="clusterblast-orf" id="dummy-1_h1_10_5"  />
</g>
<g id="a1_006"  >
<polygon points="261,90 322,90 327,85 322,80 261,80 261,90 " style="fill:#158fd8; stroke-width:1; stroke:black; " description="&lt;b&gt;C8J29_RS05285&lt;/b&gt;&lt;br&gt;citramalate synthase&lt;br&gt;Location: 66305 - 67957&lt;br&gt;&lt;br&gt;&lt;b&gt;BlastP hit with OCIILLLM_03018&lt;/b&gt;&lt;br&gt;Percentage identity: 79&lt;br&gt;Percentage coverage: 98&lt;br&gt;BLAST bit score: 849&lt;br&gt;E-value: 1.39e-308" locus_tag="C8J29_RS05285" class="clusterblast-orf" id="dummy-1_h1_10_6"  />
</g>
<g id="a1_007"  >
<polygon points="327,90 351,90 356,85 351,80 327,80 327,90 " style="fill:white; stroke-width:1; stroke:black; " description="&lt;b&gt;C8J29_RS05290&lt;/b&gt;&lt;br&gt;class I SAM-dependent methyltransferase&lt;br&gt;Location: 67954 - 68673" locus_tag="C8J29_RS05290" class="clusterblast-orf" id="dummy-1_h1_10_7"  />
</g>
<g id="a1_008"  >
<polygon points="356,90 382,90 387,85 382,80 356,80 356,90 " style="fill:#c015d8; stroke-width:1; stroke:black; " description="&lt;b&gt;C8J29_RS05295&lt;/b&gt;&lt;br&gt;squalene/phytoene synthase family protein&lt;br&gt;Location: 68670 - 69437&lt;br&gt;&lt;br&gt;&lt;b&gt;BlastP hit with OCIILLLM_03019&lt;/b&gt;&lt;br&gt;Percentage identity: 65&lt;br&gt;Percentage coverage: 102&lt;br&gt;BLAST bit score: 299&lt;br&gt;E-value: 4.54e-101" locus_tag="C8J29_RS05295" class="clusterblast-orf" id="dummy-1_h1_10_8"  />
</g>
<g id="a1_009"  >
<polygon points="387,85 392,80 437,80 437,90 392,90 387,85 " style="fill:#d8a715; stroke-width:1; stroke:black; " description="&lt;b&gt;C8J29_RS05300&lt;/b&gt;&lt;br&gt;MFS transporter&lt;br&gt;Location: 69441 - 70661&lt;br&gt;&lt;br&gt;&lt;b&gt;BlastP hit with OCIILLLM_03020&lt;/b&gt;&lt;br&gt;Percentage identity: 73&lt;br&gt;Percentage coverage: 99&lt;br&gt;BLAST bit score: 519&lt;br&gt;E-value: 6.22e-183" locus_tag="C8J29_RS05300" class="clusterblast-orf" id="dummy-1_h1_10_9"  />
</g>
<g id="a1_0010"  >
<polygon points="442,90 463,90 468,85 463,80 442,80 442,90 " style="fill:#15d846; stroke-width:1; stroke:black; " description="&lt;b&gt;C8J29_RS05305&lt;/b&gt;&lt;br&gt;DNA-3-methyladenine glycosylase 2 family protein&lt;br&gt;Location: 70803 - 71432&lt;br&gt;&lt;br&gt;&lt;b&gt;BlastP hit with OCIILLLM_03021&lt;/b&gt;&lt;br&gt;Percentage identity: 65&lt;br&gt;Percentage coverage: 99&lt;br&gt;BLAST bit score: 243&lt;br&gt;E-value: 4.25e-80" locus_tag="C8J29_RS05305" class="clusterblast-orf" id="dummy-1_h1_10_10"  />
</g>
<g id="a1_0011"  >
<polygon points="468,90 490,90 495,85 490,80 468,80 468,90 " style="fill:#1546d8; stroke-width:1; stroke:black; " description="&lt;b&gt;C8J29_RS05310&lt;/b&gt;&lt;br&gt;alpha/beta fold hydrolase&lt;br&gt;Location: 71429 - 72091&lt;br&gt;&lt;br&gt;&lt;b&gt;BlastP hit with OCIILLLM_03022&lt;/b&gt;&lt;br&gt;Percentage identity: 80&lt;br&gt;Percentage coverage: 99&lt;br&gt;BLAST bit score: 342&lt;br&gt;E-value: 4.89e-119" locus_tag="C8J29_RS05310" class="clusterblast-orf" id="dummy-1_h1_10_11"  />
</g>
<g id="a1_0012"  >
<polygon points="516,90 535,90 540,85 535,80 516,80 516,90 " style="fill:white; stroke-width:1; stroke:black; " description="&lt;b&gt;C8J29_RS05315&lt;/b&gt;&lt;br&gt;HNH endonuclease&lt;br&gt;Location: 72623 - 73207" locus_tag="C8J29_RS05315" class="clusterblast-orf" id="dummy-1_h1_10_12"  />
</g>
<g id="a1_0013"  >
<polygon points="562,90 570,90 575,85 570,80 562,80 562,90 " style="fill:white; stroke-width:1; stroke:black; " description="&lt;b&gt;C8J29_RS05325&lt;/b&gt;&lt;br&gt;helix-turn-helix transcriptional regulator&lt;br&gt;Location: 73751 - 74077" locus_tag="C8J29_RS05325" class="clusterblast-orf" id="dummy-1_h1_10_13"  />
</g>
<g id="a1_0014"  >
<polygon points="575,90 579,85 575,80 575,90 " style="fill:white; stroke-width:1; stroke:black; " description="&lt;b&gt;C8J29_RS05330&lt;/b&gt;&lt;br&gt;GNAT family N-acetyltransferase&lt;br&gt;Location: 74070 - 74192" locus_tag="C8J29_RS05330" class="clusterblast-orf" id="dummy-1_h1_10_14"  />
</g>
<g id="a1_0015"  >
<polygon points="587,90 624,90 629,85 624,80 587,80 587,90 " style="fill:white; stroke-width:1; stroke:black; " description="&lt;b&gt;C8J29_RS05335&lt;/b&gt;&lt;br&gt;ACR3 family arsenite efflux transporter&lt;br&gt;Location: 74386 - 75423" locus_tag="C8J29_RS05335" class="clusterblast-orf" id="dummy-1_h1_10_15"  />
</g>
<g id="a1_0016"  >
<polygon points="629,90 653,90 658,85 653,80 629,80 629,90 " style="fill:white; stroke-width:1; stroke:black; " description="&lt;b&gt;C8J29_RS05340&lt;/b&gt;&lt;br&gt;arsenical resistance protein ArsH&lt;br&gt;Location: 75420 - 76133" locus_tag="C8J29_RS05340" class="clusterblast-orf" id="dummy-1_h1_10_16"  />
</g>
<g id="a1_0017"  >
<polygon points="658,90 700,90 705,85 700,80 658,80 658,90 " style="fill:white; stroke-width:1; stroke:black; " description="&lt;b&gt;C8J29_RS05345&lt;/b&gt;&lt;br&gt;MFS transporter&lt;br&gt;Location: 76130 - 77293" locus_tag="C8J29_RS05345" class="clusterblast-orf" id="dummy-1_h1_10_17"  />
</g>
<g id="a1_0018"  >
<polygon points="721,90 774,90 779,85 774,80 721,80 721,90 " style="fill:white; stroke-width:1; stroke:black; " description="&lt;b&gt;C8J29_RS05350&lt;/b&gt;&lt;br&gt;glucose-6-phosphate dehydrogenase&lt;br&gt;Location: 77688 - 79139" locus_tag="C8J29_RS05350" class="clusterblast-orf" id="dummy-1_h1_10_18"  />
</g>
</svg>
