<svg xmlns="http://www.w3.org/2000/svg" xmlns:xlink="http://www.w3.org/1999/xlink" version="1.1" x="0" y="0" height="50" width="800" viewBox="0 0 800 50" preserveAspectRatio="none"  >
<g label="Query sequence" class="clusterblast-cluster"  >
<text x="5" y="20" class="clusterblast-acc"  >
Query sequence</text>
<line x1="10" y1="35" x2="778.0" y2="35" style="stroke-width:1; stroke:grey; "  />
<polygon points="0,35 5,30 9,30 9,40 5,40 0,35 " style="fill:white; stroke-width:1; stroke:black; " description="&lt;b&gt;OCIILLLM_00432&lt;/b&gt;&lt;br&gt;hypothetical protein&lt;br&gt;Location: 25019 - 25226" locus_tag="OCIILLLM_00432" class="clusterblast-orf" id="subclusterblast-1_q0_0_all"  />
<polygon points="23,40 61,40 66,35 61,30 23,30 23,40 " style="fill:white; stroke-width:1; stroke:black; " description="&lt;b&gt;OCIILLLM_00433&lt;/b&gt;&lt;br&gt;Hemin transport protein HemS&lt;br&gt;Location: 25555 - 26593" locus_tag="OCIILLLM_00433" class="clusterblast-orf" id="subclusterblast-1_q1_0_all"  />
<polygon points="66,40 97,40 102,35 97,30 66,30 66,40 " style="fill:white; stroke-width:1; stroke:black; " description="&lt;b&gt;OCIILLLM_00434&lt;/b&gt;&lt;br&gt;Hemin-binding periplasmic protein HmuT&lt;br&gt;Location: 26589 - 27435" locus_tag="OCIILLLM_00434" class="clusterblast-orf" id="subclusterblast-1_q2_0_all"  />
<polygon points="102,40 142,40 147,35 142,30 102,30 102,40 " style="fill:white; stroke-width:1; stroke:black; " description="&lt;b&gt;OCIILLLM_00435&lt;/b&gt;&lt;br&gt;Hemin transport system permease protein HmuU&lt;br&gt;Location: 27439 - 28501" locus_tag="OCIILLLM_00435" class="clusterblast-orf" id="subclusterblast-1_q3_0_all"  />
<polygon points="147,40 175,40 180,35 175,30 147,30 147,40 " style="fill:white; stroke-width:1; stroke:black; " description="&lt;b&gt;OCIILLLM_00436&lt;/b&gt;&lt;br&gt;Hemin import ATP-binding protein HmuV&lt;br&gt;Location: 28502 - 29282" locus_tag="OCIILLLM_00436" class="clusterblast-orf" id="subclusterblast-1_q4_0_all"  />
<polygon points="181,40 219,40 224,35 219,30 181,30 181,40 " style="fill:white; stroke-width:1; stroke:black; " description="&lt;b&gt;OCIILLLM_00437&lt;/b&gt;&lt;br&gt;hypothetical protein&lt;br&gt;Location: 29325 - 30330" locus_tag="OCIILLLM_00437" class="clusterblast-orf" id="subclusterblast-1_q5_0_all"  />
<polygon points="224,35 229,30 286,30 286,40 229,40 224,35 " style="fill:white; stroke-width:1; stroke:black; " description="&lt;b&gt;OCIILLLM_00438&lt;/b&gt;&lt;br&gt;hypothetical protein&lt;br&gt;Location: 30337 - 31798" locus_tag="OCIILLLM_00438" class="clusterblast-orf" id="subclusterblast-1_q6_0_all"  />
<polygon points="285,35 290,30 314,30 314,40 290,40 285,35 " style="fill:white; stroke-width:1; stroke:black; " description="&lt;b&gt;OCIILLLM_00439&lt;/b&gt;&lt;br&gt;UDP-Glc:alpha-D-GlcNAc-diphosphoundecaprenol beta-1,3-glucosyltransferase WfgD&lt;br&gt;Location: 31794 - 32472" locus_tag="OCIILLLM_00439" class="clusterblast-orf" id="subclusterblast-1_q7_0_all"  />
<polygon points="314,35 319,30 345,30 345,40 319,40 314,35 " style="fill:white; stroke-width:1; stroke:black; " description="&lt;b&gt;OCIILLLM_00440&lt;/b&gt;&lt;br&gt;hypothetical protein&lt;br&gt;Location: 32468 - 33218" locus_tag="OCIILLLM_00440" class="clusterblast-orf" id="subclusterblast-1_q8_0_all"  />
<polygon points="345,35 350,30 389,30 389,40 350,40 345,35 " style="fill:white; stroke-width:1; stroke:black; " description="&lt;b&gt;OCIILLLM_00441&lt;/b&gt;&lt;br&gt;hypothetical protein&lt;br&gt;Location: 33214 - 34249" locus_tag="OCIILLLM_00441" class="clusterblast-orf" id="subclusterblast-1_q9_0_all"  />
<polygon points="389,35 394,30 406,30 406,40 394,40 389,35 " style="fill:white; stroke-width:1; stroke:black; " description="&lt;b&gt;OCIILLLM_00442&lt;/b&gt;&lt;br&gt;hypothetical protein&lt;br&gt;Location: 34245 - 34650" locus_tag="OCIILLLM_00442" class="clusterblast-orf" id="subclusterblast-1_q10_0_all"  />
<polygon points="411,35 416,30 540,30 540,40 416,40 411,35 " style="fill:white; stroke-width:1; stroke:black; " description="&lt;b&gt;OCIILLLM_00443&lt;/b&gt;&lt;br&gt;Swarming motility protein SwrC&lt;br&gt;Location: 34764 - 37845" locus_tag="OCIILLLM_00443" class="clusterblast-orf" id="subclusterblast-1_q11_0_all"  />
<polygon points="540,35 545,30 585,30 585,40 545,40 540,35 " style="fill:white; stroke-width:1; stroke:black; " description="&lt;b&gt;OCIILLLM_00444&lt;/b&gt;&lt;br&gt;Efflux pump periplasmic linker BepF&lt;br&gt;Location: 37841 - 38903" locus_tag="OCIILLLM_00444" class="clusterblast-orf" id="subclusterblast-1_q12_0_all"  />
<polygon points="585,35 590,30 629,30 629,40 590,40 585,35 " style="fill:white; stroke-width:1; stroke:black; " description="&lt;b&gt;OCIILLLM_00445&lt;/b&gt;&lt;br&gt;Multidrug resistance protein MdtA&lt;br&gt;Location: 38899 - 39949" locus_tag="OCIILLLM_00445" class="clusterblast-orf" id="subclusterblast-1_q13_0_all"  />
<polygon points="636,40 694,40 699,35 694,30 636,30 636,40 " style="fill:white; stroke-width:1; stroke:black; " description="&lt;b&gt;OCIILLLM_00446&lt;/b&gt;&lt;br&gt;hypothetical protein&lt;br&gt;Location: 40124 - 41600" locus_tag="OCIILLLM_00446" class="clusterblast-orf" id="subclusterblast-1_q14_0_all"  />
<polygon points="699,35 704,30 722,30 722,40 704,40 699,35 " style="fill:white; stroke-width:1; stroke:black; " description="&lt;b&gt;OCIILLLM_00447&lt;/b&gt;&lt;br&gt;hypothetical protein&lt;br&gt;Location: 41603 - 42167" locus_tag="OCIILLLM_00447" class="clusterblast-orf" id="subclusterblast-1_q15_0_all"  />
<polygon points="725,35 730,30 780,30 780,40 730,40 725,35 " style="fill:white; stroke-width:1; stroke:black; " description="&lt;b&gt;OCIILLLM_00448&lt;/b&gt;&lt;br&gt;Gamma-glutamylputrescine oxidoreductase&lt;br&gt;Location: 42239 - 43532" locus_tag="OCIILLLM_00448" class="clusterblast-orf" id="subclusterblast-1_q16_0_all"  />
</g>
</svg>
