<svg xmlns="http://www.w3.org/2000/svg" xmlns:xlink="http://www.w3.org/1999/xlink" version="1.1" x="0" y="0" height="50" width="800" viewBox="0 0 800 50" preserveAspectRatio="none"  >
<g label="Query sequence" class="clusterblast-cluster"  >
<text x="5" y="20" class="clusterblast-acc"  >
Query sequence</text>
<line x1="10" y1="35" x2="778.0" y2="35" style="stroke-width:1; stroke:grey; "  />
<polygon points="0,40 17,40 22,35 17,30 0,30 0,40 " style="fill:white; stroke-width:1; stroke:black; " description="&lt;b&gt;OCIILLLM_03169&lt;/b&gt;&lt;br&gt;hypothetical protein&lt;br&gt;Location: 18 - 408" locus_tag="OCIILLLM_03169" class="clusterblast-orf" id="subclusterblast-1_q0_0_all"  />
<polygon points="28,40 105,40 110,35 105,30 28,30 28,40 " style="fill:white; stroke-width:1; stroke:black; " description="&lt;b&gt;OCIILLLM_03170&lt;/b&gt;&lt;br&gt;Amidophosphoribosyltransferase&lt;br&gt;Location: 511 - 1984" locus_tag="OCIILLLM_03170" class="clusterblast-orf" id="subclusterblast-1_q1_0_all"  />
<polygon points="110,40 125,40 130,35 125,30 110,30 110,40 " style="fill:white; stroke-width:1; stroke:black; " description="&lt;b&gt;OCIILLLM_03171&lt;/b&gt;&lt;br&gt;hypothetical protein&lt;br&gt;Location: 1980 - 2340" locus_tag="OCIILLLM_03171" class="clusterblast-orf" id="subclusterblast-1_q2_0_all"  />
<polygon points="135,40 167,40 172,35 167,30 135,30 135,40 " style="fill:white; stroke-width:1; stroke:black; " description="&lt;b&gt;OCIILLLM_03172&lt;/b&gt;&lt;br&gt;Fatty acyl-CoA reductase&lt;br&gt;Location: 2433 - 3096" locus_tag="OCIILLLM_03172" class="clusterblast-orf" id="subclusterblast-1_q3_0_all"  />
<polygon points="172,35 177,30 197,30 197,40 177,40 172,35 " style="fill:white; stroke-width:1; stroke:black; " description="&lt;b&gt;OCIILLLM_03173&lt;/b&gt;&lt;br&gt;Tryptophan-rich sensory protein&lt;br&gt;Location: 3087 - 3549" locus_tag="OCIILLLM_03173" class="clusterblast-orf" id="subclusterblast-1_q4_0_all"  />
<polygon points="201,35 206,30 258,30 258,40 206,40 201,35 " style="fill:white; stroke-width:1; stroke:black; " description="&lt;b&gt;OCIILLLM_03174&lt;/b&gt;&lt;br&gt;15-cis-phytoene synthase&lt;br&gt;Location: 3618 - 4632" locus_tag="OCIILLLM_03174" class="clusterblast-orf" id="subclusterblast-1_q5_0_all"  />
<polygon points="258,35 263,30 343,30 343,40 263,40 258,35 " style="fill:white; stroke-width:1; stroke:black; " description="&lt;b&gt;OCIILLLM_03175&lt;/b&gt;&lt;br&gt;Phytoene desaturase (neurosporene-forming)&lt;br&gt;Location: 4628 - 6164" locus_tag="OCIILLLM_03175" class="clusterblast-orf" id="subclusterblast-1_q6_0_all"  />
<polygon points="353,40 389,40 394,35 389,30 353,30 353,40 " style="fill:white; stroke-width:1; stroke:black; " description="&lt;b&gt;OCIILLLM_03176&lt;/b&gt;&lt;br&gt;Spheroidene monooxygenase&lt;br&gt;Location: 6343 - 7060" locus_tag="OCIILLLM_03176" class="clusterblast-orf" id="subclusterblast-1_q7_0_all"  />
<polygon points="395,40 446,40 451,35 446,30 395,30 395,40 " style="fill:white; stroke-width:1; stroke:black; " description="&lt;b&gt;OCIILLLM_03177&lt;/b&gt;&lt;br&gt;Magnesium-chelatase 38 kDa subunit&lt;br&gt;Location: 7083 - 8088" locus_tag="OCIILLLM_03177" class="clusterblast-orf" id="subclusterblast-1_q8_0_all"  />
<polygon points="454,40 540,40 545,35 540,30 454,30 454,40 " style="fill:white; stroke-width:1; stroke:black; " description="&lt;b&gt;OCIILLLM_03178&lt;/b&gt;&lt;br&gt;Magnesium-chelatase 60 kDa subunit&lt;br&gt;Location: 8147 - 9764" locus_tag="OCIILLLM_03178" class="clusterblast-orf" id="subclusterblast-1_q9_0_all"  />
<polygon points="546,40 551,40 556,35 551,30 546,30 546,40 " style="fill:white; stroke-width:1; stroke:black; " description="&lt;b&gt;OCIILLLM_03179&lt;/b&gt;&lt;br&gt;hypothetical protein&lt;br&gt;Location: 9791 - 9962" locus_tag="OCIILLLM_03179" class="clusterblast-orf" id="subclusterblast-1_q10_0_all"  />
<polygon points="557,40 601,40 606,35 601,30 557,30 557,40 " style="fill:white; stroke-width:1; stroke:black; " description="&lt;b&gt;OCIILLLM_03180&lt;/b&gt;&lt;br&gt;Putative aminoacrylate hydrolase RutD&lt;br&gt;Location: 9980 - 10862" locus_tag="OCIILLLM_03180" class="clusterblast-orf" id="subclusterblast-1_q11_0_all"  />
<polygon points="609,35 614,30 641,30 641,40 614,40 609,35 " style="fill:white; stroke-width:1; stroke:black; " description="&lt;b&gt;OCIILLLM_03181&lt;/b&gt;&lt;br&gt;Isopentenyl-diphosphate Delta-isomerase&lt;br&gt;Location: 10924 - 11485" locus_tag="OCIILLLM_03181" class="clusterblast-orf" id="subclusterblast-1_q12_0_all"  />
<polygon points="641,35 646,30 707,30 707,40 646,40 641,35 " style="fill:white; stroke-width:1; stroke:black; " description="&lt;b&gt;OCIILLLM_03182&lt;/b&gt;&lt;br&gt;Menaquinone reductase&lt;br&gt;Location: 11481 - 12675" locus_tag="OCIILLLM_03182" class="clusterblast-orf" id="subclusterblast-1_q13_0_all"  />
<polygon points="707,35 712,30 780,30 780,40 712,40 707,35 " style="fill:white; stroke-width:1; stroke:black; " description="&lt;b&gt;OCIILLLM_03183&lt;/b&gt;&lt;br&gt;Protein PucC&lt;br&gt;Location: 12676 - 13978" locus_tag="OCIILLLM_03183" class="clusterblast-orf" id="subclusterblast-1_q14_0_all"  />
</g>
</svg>
