<svg xmlns="http://www.w3.org/2000/svg" xmlns:xlink="http://www.w3.org/1999/xlink" version="1.1" x="0" y="0" height="230" width="800" viewBox="0 0 800 230" preserveAspectRatio="none"  >
<g label="Query sequence" class="clusterblast-cluster"  >
<text x="5" y="20" class="clusterblast-acc"  >
Query sequence</text>
<line x1="10" y1="35" x2="778.0" y2="35" style="stroke-width:1; stroke:grey; "  />
<polygon points="143,35 148,30 163,30 163,40 148,40 143,35 " style="fill:white; stroke-width:1; stroke:black; " description="&lt;b&gt;JLFAFLNG_03297&lt;/b&gt;&lt;br&gt;hypothetical protein&lt;br&gt;Location: 137332 - 138628" locus_tag="JLFAFLNG_03297" class="clusterblast-orf" id="dummy-1_q0_0_all"  />
<polygon points="164,35 169,30 185,30 185,40 169,40 164,35 " style="fill:white; stroke-width:1; stroke:black; " description="&lt;b&gt;JLFAFLNG_03298&lt;/b&gt;&lt;br&gt;hypothetical protein&lt;br&gt;Location: 138660 - 140037" locus_tag="JLFAFLNG_03298" class="clusterblast-orf" id="dummy-1_q1_0_all"  />
<polygon points="186,35 191,30 249,30 249,40 191,40 186,35 " style="fill:white; stroke-width:1; stroke:black; " description="&lt;b&gt;JLFAFLNG_03299&lt;/b&gt;&lt;br&gt;Sensor histidine kinase RcsC&lt;br&gt;Location: 140099 - 144149" locus_tag="JLFAFLNG_03299" class="clusterblast-orf" id="dummy-1_q2_0_all"  />
<polygon points="251,35 256,30 272,30 272,40 256,40 251,35 " style="fill:#d81515; stroke-width:1; stroke:black; " description="&lt;b&gt;JLFAFLNG_03300&lt;/b&gt;&lt;br&gt;hypothetical protein&lt;br&gt;Location: 144248 - 145607" locus_tag="JLFAFLNG_03300" class="clusterblast-orf" id="dummy-1_q3_0_all"  />
<polygon points="275,40 282,40 287,35 282,30 275,30 275,40 " style="fill:white; stroke-width:1; stroke:black; " description="&lt;b&gt;JLFAFLNG_03301&lt;/b&gt;&lt;br&gt;5'-nucleotidase SurE&lt;br&gt;Location: 145814 - 146603" locus_tag="JLFAFLNG_03301" class="clusterblast-orf" id="dummy-1_q4_0_all"  />
<polygon points="287,40 294,40 299,35 294,30 287,30 287,40 " style="fill:white; stroke-width:1; stroke:black; " description="&lt;b&gt;JLFAFLNG_03302&lt;/b&gt;&lt;br&gt;Protein-L-isoaspartate O-methyltransferase&lt;br&gt;Location: 146599 - 147352" locus_tag="JLFAFLNG_03302" class="clusterblast-orf" id="dummy-1_q5_0_all"  />
<polygon points="300,40 314,40 319,35 314,30 300,30 300,40 " style="fill:white; stroke-width:1; stroke:black; " description="&lt;b&gt;JLFAFLNG_03303&lt;/b&gt;&lt;br&gt;hypothetical protein&lt;br&gt;Location: 147419 - 148619" locus_tag="JLFAFLNG_03303" class="clusterblast-orf" id="dummy-1_q6_0_all"  />
<polygon points="320,35 325,30 332,30 332,40 325,40 320,35 " style="fill:white; stroke-width:1; stroke:black; " description="&lt;b&gt;JLFAFLNG_03304&lt;/b&gt;&lt;br&gt;hypothetical protein&lt;br&gt;Location: 148692 - 149460" locus_tag="JLFAFLNG_03304" class="clusterblast-orf" id="dummy-1_q7_0_all"  />
<polygon points="333,40 347,40 352,35 347,30 333,30 333,40 " style="fill:#77d815; stroke-width:1; stroke:black; " description="&lt;b&gt;JLFAFLNG_03305&lt;/b&gt;&lt;br&gt;D-inositol-3-phosphate glycosyltransferase&lt;br&gt;Location: 149563 - 150772" locus_tag="JLFAFLNG_03305" class="clusterblast-orf" id="dummy-1_q8_0_all"  />
<polygon points="354,35 359,30 367,30 367,40 359,40 354,35 " style="fill:#15d8d8; stroke-width:1; stroke:black; " description="&lt;b&gt;JLFAFLNG_03306&lt;/b&gt;&lt;br&gt;hypothetical protein&lt;br&gt;Location: 150895 - 151723" locus_tag="JLFAFLNG_03306" class="clusterblast-orf" id="dummy-1_q9_0_all"  />
<polygon points="367,35 372,30 406,30 406,40 372,40 367,35 " style="fill:#7715d8; stroke-width:1; stroke:black; " description="&lt;b&gt;JLFAFLNG_03307&lt;/b&gt;&lt;br&gt;hypothetical protein&lt;br&gt;Location: 151722 - 154233" locus_tag="JLFAFLNG_03307" class="clusterblast-orf" id="dummy-1_q10_0_all"  />
<polygon points="406,35 411,30 420,30 420,40 411,40 406,35 " style="fill:#7715d8; stroke-width:1; stroke:black; " description="&lt;b&gt;JLFAFLNG_03308&lt;/b&gt;&lt;br&gt;hypothetical protein&lt;br&gt;Location: 154229 - 155150" locus_tag="JLFAFLNG_03308" class="clusterblast-orf" id="dummy-1_q11_0_all"  />
<polygon points="422,40 437,40 442,35 437,30 422,30 422,40 " style="fill:#77d815; stroke-width:1; stroke:black; " description="&lt;b&gt;JLFAFLNG_03309&lt;/b&gt;&lt;br&gt;hypothetical protein&lt;br&gt;Location: 155286 - 156534" locus_tag="JLFAFLNG_03309" class="clusterblast-orf" id="dummy-1_q12_0_all"  />
<polygon points="441,35 446,30 452,30 452,40 446,40 441,35 " style="fill:#d8a715; stroke-width:1; stroke:black; " description="&lt;b&gt;JLFAFLNG_03310&lt;/b&gt;&lt;br&gt;hypothetical protein&lt;br&gt;Location: 156490 - 157183" locus_tag="JLFAFLNG_03310" class="clusterblast-orf" id="dummy-1_q13_0_all"  />
<polygon points="452,35 457,30 522,30 522,40 457,40 452,35 " style="fill:#15d846; stroke-width:1; stroke:black; " description="&lt;b&gt;JLFAFLNG_03311&lt;/b&gt;&lt;br&gt;D-alanine--D-alanyl carrier protein ligase&lt;br&gt;Location: 157186 - 161680" locus_tag="JLFAFLNG_03311" class="clusterblast-orf" id="dummy-1_q14_0_all"  />
<polygon points="522,35 527,30 537,30 537,40 527,40 522,35 " style="fill:#1546d8; stroke-width:1; stroke:black; " description="&lt;b&gt;JLFAFLNG_03312&lt;/b&gt;&lt;br&gt;hypothetical protein&lt;br&gt;Location: 161676 - 162684" locus_tag="JLFAFLNG_03312" class="clusterblast-orf" id="dummy-1_q15_0_all"  />
<polygon points="537,35 542,30 636,30 636,40 542,40 537,35 " style="fill:#d815a7; stroke-width:1; stroke:black; " description="&lt;b&gt;JLFAFLNG_03313&lt;/b&gt;&lt;br&gt;hypothetical protein&lt;br&gt;Location: 162680 - 169025" locus_tag="JLFAFLNG_03313" class="clusterblast-orf" id="dummy-1_q16_0_all"  />
</g>
<g label="NZ_CP041159" description="NZ_CP041159 (438023-490057): Leisingera aquaemixtae strain R2C4 chromosome, c... (26% of genes show similarity), NRPS-like,T1PKS" class="clusterblast-cluster"  >
<text x="5" y="70" class="clusterblast-acc"  >
<a xlink:href="https://antismash-db.secondarymetabolites.org/area.html?record=NZ_CP041159&amp;start=438023&amp;end=490057" target="_blank">NZ_CP041159 (438023-490057)</a>: Leisingera aquaemixtae strain R2C4 chromosome, c... (26% of genes show similarity), NRPS-like,T1PKS</text>
<line x1="10" y1="85" x2="778.0" y2="85" style="stroke-width:1; stroke:grey; "  />
</g>
<g id="a1_000"  >
<polygon points="0,90 12,90 17,85 12,80 0,80 0,90 " style="fill:white; stroke-width:1; stroke:black; " description="&lt;b&gt;R2C4_RS03875&lt;/b&gt;&lt;br&gt;class I SAM-dependent RNA methyltransferase&lt;br&gt;Location: 439111 - 440229" locus_tag="R2C4_RS03875" class="clusterblast-orf" id="dummy-1_h1_3_0"  />
</g>
<g id="a1_001"  >
<polygon points="29,85 34,80 36,80 36,90 34,90 29,85 " style="fill:white; stroke-width:1; stroke:black; " description="&lt;b&gt;R2C4_RS03880&lt;/b&gt;&lt;br&gt;serine/threonine protein phosphatase&lt;br&gt;Location: 440984 - 441445" locus_tag="R2C4_RS03880" class="clusterblast-orf" id="dummy-1_h1_3_1"  />
</g>
<g id="a1_002"  >
<polygon points="44,90 55,90 60,85 55,80 44,80 44,90 " style="fill:white; stroke-width:1; stroke:black; " description="&lt;b&gt;R2C4_RS03885&lt;/b&gt;&lt;br&gt;hypothetical protein&lt;br&gt;Location: 441990 - 443003" locus_tag="R2C4_RS03885" class="clusterblast-orf" id="dummy-1_h1_3_2"  />
</g>
<g id="a1_003"  >
<polygon points="61,90 69,90 74,85 69,80 61,80 61,90 " style="fill:white; stroke-width:1; stroke:black; " description="&lt;b&gt;R2C4_RS03890&lt;/b&gt;&lt;br&gt;TIGR03084 family protein&lt;br&gt;Location: 443094 - 443894" locus_tag="R2C4_RS03890" class="clusterblast-orf" id="dummy-1_h1_3_3"  />
</g>
<g id="a1_004"  >
<polygon points="79,85 84,80 92,80 92,90 84,90 79,85 " style="fill:white; stroke-width:1; stroke:black; " description="&lt;b&gt;R2C4_RS03895&lt;/b&gt;&lt;br&gt;2-dehydro-3-deoxygalactonokinase&lt;br&gt;Location: 444192 - 445043" locus_tag="R2C4_RS03895" class="clusterblast-orf" id="dummy-1_h1_3_4"  />
</g>
<g id="a1_005"  >
<polygon points="97,90 108,90 113,85 108,80 97,80 97,90 " style="fill:white; stroke-width:1; stroke:black; " description="&lt;b&gt;R2C4_RS03900&lt;/b&gt;&lt;br&gt;helix-turn-helix domain-containing protein&lt;br&gt;Location: 445399 - 446415" locus_tag="R2C4_RS03900" class="clusterblast-orf" id="dummy-1_h1_3_5"  />
</g>
<g id="a1_006"  >
<polygon points="119,90 127,90 132,85 127,80 119,80 119,90 " style="fill:white; stroke-width:1; stroke:black; " description="&lt;b&gt;R2C4_RS03905&lt;/b&gt;&lt;br&gt;sugar transferase&lt;br&gt;Location: 446805 - 447602" locus_tag="R2C4_RS03905" class="clusterblast-orf" id="dummy-1_h1_3_6"  />
</g>
<g id="a1_007"  >
<polygon points="133,90 142,90 147,85 142,80 133,80 133,90 " style="fill:white; stroke-width:1; stroke:black; " description="&lt;b&gt;R2C4_RS03910&lt;/b&gt;&lt;br&gt;CpsD/CapB family tyrosine-protein kinase&lt;br&gt;Location: 447693 - 448607" locus_tag="R2C4_RS03910" class="clusterblast-orf" id="dummy-1_h1_3_7"  />
</g>
<g id="a1_008"  >
<polygon points="150,90 164,90 169,85 164,80 150,80 150,90 " style="fill:white; stroke-width:1; stroke:black; " description="&lt;b&gt;R2C4_RS03915&lt;/b&gt;&lt;br&gt;DUF874 domain-containing protein&lt;br&gt;Location: 448755 - 450005" locus_tag="R2C4_RS03915" class="clusterblast-orf" id="dummy-1_h1_3_8"  />
</g>
<g id="a1_009"  >
<polygon points="170,85 175,80 192,80 192,90 175,90 170,85 " style="fill:#d81515; stroke-width:1; stroke:black; " description="&lt;b&gt;R2C4_RS03920&lt;/b&gt;&lt;br&gt;oligosaccharide flippase family protein&lt;br&gt;Location: 450088 - 451458&lt;br&gt;&lt;br&gt;&lt;b&gt;BlastP hit with JLFAFLNG_03300&lt;/b&gt;&lt;br&gt;Percentage identity: 57&lt;br&gt;Percentage coverage: 95&lt;br&gt;BLAST bit score: 431&lt;br&gt;E-value: 6.24e-147" locus_tag="R2C4_RS03920" class="clusterblast-orf" id="dummy-1_h1_3_9"  />
</g>
<g id="a1_0010"  >
<polygon points="195,90 209,90 214,85 209,80 195,80 195,90 " style="fill:#77d815; stroke-width:1; stroke:black; " description="&lt;b&gt;R2C4_RS03925&lt;/b&gt;&lt;br&gt;glycosyltransferase&lt;br&gt;Location: 451696 - 452901&lt;br&gt;&lt;br&gt;&lt;b&gt;BlastP hit with JLFAFLNG_03305&lt;/b&gt;&lt;br&gt;Percentage identity: 67&lt;br&gt;Percentage coverage: 100&lt;br&gt;BLAST bit score: 483&lt;br&gt;E-value: 5.13e-169" locus_tag="R2C4_RS03925" class="clusterblast-orf" id="dummy-1_h1_3_10"  />
</g>
<g id="a1_0011"  >
<polygon points="217,85 222,80 230,80 230,90 222,90 217,85 " style="fill:#15d8d8; stroke-width:1; stroke:black; " description="&lt;b&gt;R2C4_RS03930&lt;/b&gt;&lt;br&gt;glycosyltransferase&lt;br&gt;Location: 453069 - 453905&lt;br&gt;&lt;br&gt;&lt;b&gt;BlastP hit with JLFAFLNG_03306&lt;/b&gt;&lt;br&gt;Percentage identity: 57&lt;br&gt;Percentage coverage: 101&lt;br&gt;BLAST bit score: 285&lt;br&gt;E-value: 1.36e-94" locus_tag="R2C4_RS03930" class="clusterblast-orf" id="dummy-1_h1_3_11"  />
</g>
<g id="a1_0012"  >
<polygon points="230,85 235,80 269,80 269,90 235,90 230,85 " style="fill:#7715d8; stroke-width:1; stroke:black; " description="&lt;b&gt;R2C4_RS03935&lt;/b&gt;&lt;br&gt;hypothetical protein&lt;br&gt;Location: 453902 - 456406&lt;br&gt;&lt;br&gt;&lt;b&gt;BlastP hit with JLFAFLNG_03307&lt;/b&gt;&lt;br&gt;Percentage identity: 48&lt;br&gt;Percentage coverage: 101&lt;br&gt;BLAST bit score: 759&lt;br&gt;E-value: 2.69e-264" locus_tag="R2C4_RS03935" class="clusterblast-orf" id="dummy-1_h1_3_12"  />
</g>
<g id="a1_0013"  >
<polygon points="268,85 273,80 283,80 283,90 273,90 268,85 " style="fill:#7715d8; stroke-width:1; stroke:black; " description="&lt;b&gt;R2C4_RS03940&lt;/b&gt;&lt;br&gt;hypothetical protein&lt;br&gt;Location: 456403 - 457338&lt;br&gt;&lt;br&gt;&lt;b&gt;BlastP hit with JLFAFLNG_03308&lt;/b&gt;&lt;br&gt;Percentage identity: 58&lt;br&gt;Percentage coverage: 90&lt;br&gt;BLAST bit score: 315&lt;br&gt;E-value: 9.46e-106" locus_tag="R2C4_RS03940" class="clusterblast-orf" id="dummy-1_h1_3_13"  />
</g>
<g id="a1_0014"  >
<polygon points="283,85 288,80 294,80 294,90 288,90 283,85 " style="fill:#d8a715; stroke-width:1; stroke:black; " description="&lt;b&gt;R2C4_RS03945&lt;/b&gt;&lt;br&gt;4'-phosphopantetheinyl transferase superfamily protein&lt;br&gt;Location: 457338 - 458027&lt;br&gt;&lt;br&gt;&lt;b&gt;BlastP hit with JLFAFLNG_03310&lt;/b&gt;&lt;br&gt;Percentage identity: 44&lt;br&gt;Percentage coverage: 83&lt;br&gt;BLAST bit score: 155&lt;br&gt;E-value: 3.55e-45" locus_tag="R2C4_RS03945" class="clusterblast-orf" id="dummy-1_h1_3_14"  />
</g>
<g id="a1_0015"  >
<polygon points="294,85 299,80 365,80 365,90 299,90 294,85 " style="fill:#15d846; stroke-width:1; stroke:black; " description="&lt;b&gt;R2C4_RS03950&lt;/b&gt;&lt;br&gt;LLM class flavin-dependent oxidoreductase&lt;br&gt;Location: 458024 - 462589&lt;br&gt;&lt;br&gt;&lt;b&gt;BlastP hit with JLFAFLNG_03311&lt;/b&gt;&lt;br&gt;Percentage identity: 58&lt;br&gt;Percentage coverage: 102&lt;br&gt;BLAST bit score: 1643&lt;br&gt;E-value: 0.0" locus_tag="R2C4_RS03950" class="clusterblast-orf" id="dummy-1_h1_3_15"  />
</g>
<g id="a1_0016"  >
<polygon points="365,85 370,80 380,80 380,90 370,90 365,85 " style="fill:#1546d8; stroke-width:1; stroke:black; " description="&lt;b&gt;R2C4_RS03955&lt;/b&gt;&lt;br&gt;glycosyltransferase&lt;br&gt;Location: 462586 - 463602&lt;br&gt;&lt;br&gt;&lt;b&gt;BlastP hit with JLFAFLNG_03312&lt;/b&gt;&lt;br&gt;Percentage identity: 55&lt;br&gt;Percentage coverage: 98&lt;br&gt;BLAST bit score: 357&lt;br&gt;E-value: 2.03e-121" locus_tag="R2C4_RS03955" class="clusterblast-orf" id="dummy-1_h1_3_16"  />
</g>
<g id="a1_0017"  >
<polygon points="381,85 386,80 481,80 481,90 386,90 381,85 " style="fill:#d815a7; stroke-width:1; stroke:black; " description="&lt;b&gt;R2C4_RS03960&lt;/b&gt;&lt;br&gt;acyltransferase domain-containing protein&lt;br&gt;Location: 463608 - 470057&lt;br&gt;&lt;br&gt;&lt;b&gt;BlastP hit with JLFAFLNG_03313&lt;/b&gt;&lt;br&gt;Percentage identity: 58&lt;br&gt;Percentage coverage: 101&lt;br&gt;BLAST bit score: 2383&lt;br&gt;E-value: 0.0" locus_tag="R2C4_RS03960" class="clusterblast-orf" id="dummy-1_h1_3_17"  />
</g>
<g id="a1_0018"  >
<polygon points="485,85 490,80 508,80 508,90 490,90 485,85 " style="fill:white; stroke-width:1; stroke:black; " description="&lt;b&gt;R2C4_RS03965&lt;/b&gt;&lt;br&gt;hypothetical protein&lt;br&gt;Location: 470319 - 471782" locus_tag="R2C4_RS03965" class="clusterblast-orf" id="dummy-1_h1_3_18"  />
</g>
<g id="a1_0019"  >
<polygon points="511,90 517,90 522,85 517,80 511,80 511,90 " style="fill:white; stroke-width:1; stroke:black; " description="&lt;b&gt;R2C4_RS03970&lt;/b&gt;&lt;br&gt;WecB/TagA/CpsF family glycosyltransferase&lt;br&gt;Location: 471974 - 472726" locus_tag="R2C4_RS03970" class="clusterblast-orf" id="dummy-1_h1_3_19"  />
</g>
<g id="a1_0020"  >
<polygon points="524,85 529,80 539,80 539,90 529,90 524,85 " style="fill:white; stroke-width:1; stroke:black; " description="&lt;b&gt;R2C4_RS03975&lt;/b&gt;&lt;br&gt;glycosyltransferase&lt;br&gt;Location: 472864 - 473814" locus_tag="R2C4_RS03975" class="clusterblast-orf" id="dummy-1_h1_3_20"  />
</g>
<g id="a1_0021"  >
<polygon points="539,85 544,80 555,80 555,90 544,90 539,85 " style="fill:white; stroke-width:1; stroke:black; " description="&lt;b&gt;R2C4_RS03980&lt;/b&gt;&lt;br&gt;glycosyltransferase family 2 protein&lt;br&gt;Location: 473811 - 474815" locus_tag="R2C4_RS03980" class="clusterblast-orf" id="dummy-1_h1_3_21"  />
</g>
<g id="a1_0022"  >
<polygon points="559,85 564,80 615,80 615,90 564,90 559,85 " style="fill:white; stroke-width:1; stroke:black; " description="&lt;b&gt;R2C4_RS03985&lt;/b&gt;&lt;br&gt;translocation/assembly module TamB&lt;br&gt;Location: 475076 - 478705" locus_tag="R2C4_RS03985" class="clusterblast-orf" id="dummy-1_h1_3_22"  />
</g>
<g id="a1_0023"  >
<polygon points="615,85 620,80 643,80 643,90 620,90 615,85 " style="fill:white; stroke-width:1; stroke:black; " description="&lt;b&gt;R2C4_RS03990&lt;/b&gt;&lt;br&gt;BamA/TamA family outer membrane protein&lt;br&gt;Location: 478702 - 480504" locus_tag="R2C4_RS03990" class="clusterblast-orf" id="dummy-1_h1_3_23"  />
</g>
<g id="a1_0024"  >
<polygon points="652,90 656,85 652,80 652,90 " style="fill:white; stroke-width:1; stroke:black; " description="&lt;b&gt;R2C4_RS03995&lt;/b&gt;&lt;br&gt;hypothetical protein&lt;br&gt;Location: 481032 - 481334" locus_tag="R2C4_RS03995" class="clusterblast-orf" id="dummy-1_h1_3_24"  />
</g>
<g id="a1_0025"  >
<polygon points="657,90 662,90 667,85 662,80 657,80 657,90 " style="fill:white; stroke-width:1; stroke:black; " description="&lt;b&gt;R2C4_RS04000&lt;/b&gt;&lt;br&gt;hypothetical protein&lt;br&gt;Location: 481399 - 482007" locus_tag="R2C4_RS04000" class="clusterblast-orf" id="dummy-1_h1_3_25"  />
</g>
<g id="a1_0026"  >
<polygon points="667,85 672,80 682,80 682,90 672,90 667,85 " style="fill:white; stroke-width:1; stroke:black; " description="&lt;b&gt;R2C4_RS04005&lt;/b&gt;&lt;br&gt;glyceraldehyde-3-phosphate dehydrogenase&lt;br&gt;Location: 482031 - 483014" locus_tag="R2C4_RS04005" class="clusterblast-orf" id="dummy-1_h1_3_26"  />
</g>
<g id="a1_0027"  >
<polygon points="684,85 689,80 689,80 689,90 689,90 684,85 " style="fill:white; stroke-width:1; stroke:black; " description="&lt;b&gt;R2C4_RS04010&lt;/b&gt;&lt;br&gt;hypothetical protein&lt;br&gt;Location: 483136 - 483450" locus_tag="R2C4_RS04010" class="clusterblast-orf" id="dummy-1_h1_3_27"  />
</g>
<g id="a1_0028"  >
<polygon points="690,85 695,80 702,80 702,90 695,90 690,85 " style="fill:white; stroke-width:1; stroke:black; " description="&lt;b&gt;R2C4_RS04015&lt;/b&gt;&lt;br&gt;helix-turn-helix domain-containing protein&lt;br&gt;Location: 483518 - 484294" locus_tag="R2C4_RS04015" class="clusterblast-orf" id="dummy-1_h1_3_28"  />
</g>
<g id="a1_0029"  >
<polygon points="706,90 723,90 728,85 723,80 706,80 706,90 " style="fill:white; stroke-width:1; stroke:black; " description="&lt;b&gt;R2C4_RS04020&lt;/b&gt;&lt;br&gt;glutamine synthetase&lt;br&gt;Location: 484510 - 485958" locus_tag="R2C4_RS04020" class="clusterblast-orf" id="dummy-1_h1_3_29"  />
</g>
<g id="a1_0030"  >
<polygon points="731,90 732,90 737,85 732,80 731,80 731,90 " style="fill:white; stroke-width:1; stroke:black; " description="&lt;b&gt;R2C4_RS04025&lt;/b&gt;&lt;br&gt;glycine cleavage system protein GcvH&lt;br&gt;Location: 486158 - 486517" locus_tag="R2C4_RS04025" class="clusterblast-orf" id="dummy-1_h1_3_30"  />
</g>
<g id="a1_0031"  >
<polygon points="739,90 745,90 750,85 745,80 739,80 739,90 " style="fill:white; stroke-width:1; stroke:black; " description="&lt;b&gt;R2C4_RS04030&lt;/b&gt;&lt;br&gt;flavodoxin family protein&lt;br&gt;Location: 486656 - 487372" locus_tag="R2C4_RS04030" class="clusterblast-orf" id="dummy-1_h1_3_31"  />
</g>
<g id="a1_0032"  >
<polygon points="752,85 757,80 766,80 766,90 757,90 752,85 " style="fill:white; stroke-width:1; stroke:black; " description="&lt;b&gt;R2C4_RS04035&lt;/b&gt;&lt;br&gt;glyoxylate/hydroxypyruvate reductase A&lt;br&gt;Location: 487486 - 488421" locus_tag="R2C4_RS04035" class="clusterblast-orf" id="dummy-1_h1_3_32"  />
</g>
<g id="a1_0033"  >
<polygon points="768,85 773,80 780,80 780,90 773,90 768,85 " style="fill:white; stroke-width:1; stroke:black; " description="&lt;b&gt;R2C4_RS04040&lt;/b&gt;&lt;br&gt;NYN domain-containing protein&lt;br&gt;Location: 488522 - 489259" locus_tag="R2C4_RS04040" class="clusterblast-orf" id="dummy-1_h1_3_33"  />
</g>
</svg>
