<svg xmlns="http://www.w3.org/2000/svg" xmlns:xlink="http://www.w3.org/1999/xlink" version="1.1" x="0" y="0" height="230" width="800" viewBox="0 0 800 230" preserveAspectRatio="none"  >
<g label="Query sequence" class="clusterblast-cluster"  >
<text x="5" y="20" class="clusterblast-acc"  >
Query sequence</text>
<line x1="10" y1="35" x2="778.0" y2="35" style="stroke-width:1; stroke:grey; "  />
<polygon points="152,35 157,30 172,30 172,40 157,40 152,35 " style="fill:white; stroke-width:1; stroke:black; " description="&lt;b&gt;JLFAFLNG_03297&lt;/b&gt;&lt;br&gt;hypothetical protein&lt;br&gt;Location: 137332 - 138628" locus_tag="JLFAFLNG_03297" class="clusterblast-orf" id="dummy-1_q0_0_all"  />
<polygon points="172,35 177,30 193,30 193,40 177,40 172,35 " style="fill:white; stroke-width:1; stroke:black; " description="&lt;b&gt;JLFAFLNG_03298&lt;/b&gt;&lt;br&gt;hypothetical protein&lt;br&gt;Location: 138660 - 140037" locus_tag="JLFAFLNG_03298" class="clusterblast-orf" id="dummy-1_q1_0_all"  />
<polygon points="194,35 199,30 254,30 254,40 199,40 194,35 " style="fill:white; stroke-width:1; stroke:black; " description="&lt;b&gt;JLFAFLNG_03299&lt;/b&gt;&lt;br&gt;Sensor histidine kinase RcsC&lt;br&gt;Location: 140099 - 144149" locus_tag="JLFAFLNG_03299" class="clusterblast-orf" id="dummy-1_q2_0_all"  />
<polygon points="256,35 261,30 276,30 276,40 261,40 256,35 " style="fill:#d81515; stroke-width:1; stroke:black; " description="&lt;b&gt;JLFAFLNG_03300&lt;/b&gt;&lt;br&gt;hypothetical protein&lt;br&gt;Location: 144248 - 145607" locus_tag="JLFAFLNG_03300" class="clusterblast-orf" id="dummy-1_q3_0_all"  />
<polygon points="279,40 286,40 291,35 286,30 279,30 279,40 " style="fill:white; stroke-width:1; stroke:black; " description="&lt;b&gt;JLFAFLNG_03301&lt;/b&gt;&lt;br&gt;5'-nucleotidase SurE&lt;br&gt;Location: 145814 - 146603" locus_tag="JLFAFLNG_03301" class="clusterblast-orf" id="dummy-1_q4_0_all"  />
<polygon points="291,40 297,40 302,35 297,30 291,30 291,40 " style="fill:white; stroke-width:1; stroke:black; " description="&lt;b&gt;JLFAFLNG_03302&lt;/b&gt;&lt;br&gt;Protein-L-isoaspartate O-methyltransferase&lt;br&gt;Location: 146599 - 147352" locus_tag="JLFAFLNG_03302" class="clusterblast-orf" id="dummy-1_q5_0_all"  />
<polygon points="303,40 316,40 321,35 316,30 303,30 303,40 " style="fill:white; stroke-width:1; stroke:black; " description="&lt;b&gt;JLFAFLNG_03303&lt;/b&gt;&lt;br&gt;hypothetical protein&lt;br&gt;Location: 147419 - 148619" locus_tag="JLFAFLNG_03303" class="clusterblast-orf" id="dummy-1_q6_0_all"  />
<polygon points="322,35 327,30 334,30 334,40 327,40 322,35 " style="fill:white; stroke-width:1; stroke:black; " description="&lt;b&gt;JLFAFLNG_03304&lt;/b&gt;&lt;br&gt;hypothetical protein&lt;br&gt;Location: 148692 - 149460" locus_tag="JLFAFLNG_03304" class="clusterblast-orf" id="dummy-1_q7_0_all"  />
<polygon points="335,40 349,40 354,35 349,30 335,30 335,40 " style="fill:#77d815; stroke-width:1; stroke:black; " description="&lt;b&gt;JLFAFLNG_03305&lt;/b&gt;&lt;br&gt;D-inositol-3-phosphate glycosyltransferase&lt;br&gt;Location: 149563 - 150772" locus_tag="JLFAFLNG_03305" class="clusterblast-orf" id="dummy-1_q8_0_all"  />
<polygon points="355,35 360,30 368,30 368,40 360,40 355,35 " style="fill:#15d8d8; stroke-width:1; stroke:black; " description="&lt;b&gt;JLFAFLNG_03306&lt;/b&gt;&lt;br&gt;hypothetical protein&lt;br&gt;Location: 150895 - 151723" locus_tag="JLFAFLNG_03306" class="clusterblast-orf" id="dummy-1_q9_0_all"  />
<polygon points="368,35 373,30 405,30 405,40 373,40 368,35 " style="fill:#7715d8; stroke-width:1; stroke:black; " description="&lt;b&gt;JLFAFLNG_03307&lt;/b&gt;&lt;br&gt;hypothetical protein&lt;br&gt;Location: 151722 - 154233" locus_tag="JLFAFLNG_03307" class="clusterblast-orf" id="dummy-1_q10_0_all"  />
<polygon points="405,35 410,30 419,30 419,40 410,40 405,35 " style="fill:#7715d8; stroke-width:1; stroke:black; " description="&lt;b&gt;JLFAFLNG_03308&lt;/b&gt;&lt;br&gt;hypothetical protein&lt;br&gt;Location: 154229 - 155150" locus_tag="JLFAFLNG_03308" class="clusterblast-orf" id="dummy-1_q11_0_all"  />
<polygon points="421,40 435,40 440,35 435,30 421,30 421,40 " style="fill:#77d815; stroke-width:1; stroke:black; " description="&lt;b&gt;JLFAFLNG_03309&lt;/b&gt;&lt;br&gt;hypothetical protein&lt;br&gt;Location: 155286 - 156534" locus_tag="JLFAFLNG_03309" class="clusterblast-orf" id="dummy-1_q12_0_all"  />
<polygon points="439,35 444,30 450,30 450,40 444,40 439,35 " style="fill:#d8a715; stroke-width:1; stroke:black; " description="&lt;b&gt;JLFAFLNG_03310&lt;/b&gt;&lt;br&gt;hypothetical protein&lt;br&gt;Location: 156490 - 157183" locus_tag="JLFAFLNG_03310" class="clusterblast-orf" id="dummy-1_q13_0_all"  />
<polygon points="450,35 455,30 517,30 517,40 455,40 450,35 " style="fill:#15d846; stroke-width:1; stroke:black; " description="&lt;b&gt;JLFAFLNG_03311&lt;/b&gt;&lt;br&gt;D-alanine--D-alanyl carrier protein ligase&lt;br&gt;Location: 157186 - 161680" locus_tag="JLFAFLNG_03311" class="clusterblast-orf" id="dummy-1_q14_0_all"  />
<polygon points="517,35 522,30 532,30 532,40 522,40 517,35 " style="fill:#1546d8; stroke-width:1; stroke:black; " description="&lt;b&gt;JLFAFLNG_03312&lt;/b&gt;&lt;br&gt;hypothetical protein&lt;br&gt;Location: 161676 - 162684" locus_tag="JLFAFLNG_03312" class="clusterblast-orf" id="dummy-1_q15_0_all"  />
<polygon points="532,35 537,30 627,30 627,40 537,40 532,35 " style="fill:#d815a7; stroke-width:1; stroke:black; " description="&lt;b&gt;JLFAFLNG_03313&lt;/b&gt;&lt;br&gt;hypothetical protein&lt;br&gt;Location: 162680 - 169025" locus_tag="JLFAFLNG_03313" class="clusterblast-orf" id="dummy-1_q16_0_all"  />
</g>
<g label="NZ_KI421498" description="NZ_KI421498 (2000683-2052870): Phaeobacter inhibens DSM 16374 PhainDRAFT scaf... (26% of genes show similarity), NRPS-like,T1PKS" class="clusterblast-cluster"  >
<text x="5" y="70" class="clusterblast-acc"  >
<a xlink:href="https://antismash-db.secondarymetabolites.org/area.html?record=NZ_KI421498&amp;start=2000683&amp;end=2052870" target="_blank">NZ_KI421498 (2000683-2052870)</a>: Phaeobacter inhibens DSM 16374 PhainDRAFT scaf... (26% of genes show similarity), NRPS-like,T1PKS</text>
<line x1="10" y1="85" x2="778.0" y2="85" style="stroke-width:1; stroke:grey; "  />
</g>
<g id="a1_000"  >
<polygon points="0,85 5,80 11,80 11,90 5,90 0,85 " style="fill:white; stroke-width:1; stroke:black; " description="&lt;b&gt;INHI_RS0113565&lt;/b&gt;&lt;br&gt;carbohydrate ABC transporter permease&lt;br&gt;Location: 2052865 - 2052068" locus_tag="INHI_RS0113565" class="clusterblast-orf" id="dummy-1_h1_6_0"  />
</g>
<g id="a1_001"  >
<polygon points="12,85 17,80 25,80 25,90 17,90 12,85 " style="fill:white; stroke-width:1; stroke:black; " description="&lt;b&gt;INHI_RS0113560&lt;/b&gt;&lt;br&gt;sugar ABC transporter permease&lt;br&gt;Location: 2052053 - 2051190" locus_tag="INHI_RS0113560" class="clusterblast-orf" id="dummy-1_h1_6_1"  />
</g>
<g id="a1_002"  >
<polygon points="25,85 30,80 41,80 41,90 30,90 25,85 " style="fill:white; stroke-width:1; stroke:black; " description="&lt;b&gt;INHI_RS0113555&lt;/b&gt;&lt;br&gt;ABC transporter ATP-binding protein&lt;br&gt;Location: 2051190 - 2050075" locus_tag="INHI_RS0113555" class="clusterblast-orf" id="dummy-1_h1_6_2"  />
</g>
<g id="a1_003"  >
<polygon points="41,85 46,80 58,80 58,90 46,90 41,85 " style="fill:white; stroke-width:1; stroke:black; " description="&lt;b&gt;INHI_RS0113550&lt;/b&gt;&lt;br&gt;ABC transporter ATP-binding protein&lt;br&gt;Location: 2050067 - 2048991" locus_tag="INHI_RS0113550" class="clusterblast-orf" id="dummy-1_h1_6_3"  />
</g>
<g id="a1_004"  >
<polygon points="60,85 65,80 86,80 86,90 65,90 60,85 " style="fill:white; stroke-width:1; stroke:black; " description="&lt;b&gt;INHI_RS0113545&lt;/b&gt;&lt;br&gt;carbohydrate ABC transporter substrate-binding protein&lt;br&gt;Location: 2048837 - 2047104" locus_tag="INHI_RS0113545" class="clusterblast-orf" id="dummy-1_h1_6_4"  />
</g>
<g id="a1_005"  >
<polygon points="91,90 103,90 108,85 103,80 91,80 91,90 " style="fill:white; stroke-width:1; stroke:black; " description="&lt;b&gt;INHI_RS0113540&lt;/b&gt;&lt;br&gt;RNA methyltransferase&lt;br&gt;Location: 2046776 - 2045646" locus_tag="INHI_RS0113540" class="clusterblast-orf" id="dummy-1_h1_6_5"  />
</g>
<g id="a1_006"  >
<polygon points="108,85 113,80 123,80 123,90 113,90 108,85 " style="fill:white; stroke-width:1; stroke:black; " description="&lt;b&gt;INHI_RS0113535&lt;/b&gt;&lt;br&gt;2-dehydro-3-deoxygalactonokinase&lt;br&gt;Location: 2045614 - 2044625" locus_tag="INHI_RS0113535" class="clusterblast-orf" id="dummy-1_h1_6_6"  />
</g>
<g id="a1_007"  >
<polygon points="134,90 140,90 145,85 140,80 134,80 134,90 " style="fill:white; stroke-width:1; stroke:black; " description="&lt;b&gt;INHI_RS0113530&lt;/b&gt;&lt;br&gt;sugar transferase&lt;br&gt;Location: 2043896 - 2043171" locus_tag="INHI_RS0113530" class="clusterblast-orf" id="dummy-1_h1_6_7"  />
</g>
<g id="a1_008"  >
<polygon points="146,90 157,90 162,85 157,80 146,80 146,90 " style="fill:white; stroke-width:1; stroke:black; " description="&lt;b&gt;INHI_RS0113525&lt;/b&gt;&lt;br&gt;CpsD/CapB family tyrosine-protein kinase&lt;br&gt;Location: 2043096 - 2042023" locus_tag="INHI_RS0113525" class="clusterblast-orf" id="dummy-1_h1_6_8"  />
</g>
<g id="a1_009"  >
<polygon points="163,90 177,90 182,85 177,80 163,80 163,90 " style="fill:white; stroke-width:1; stroke:black; " description="&lt;b&gt;INHI_RS0113520&lt;/b&gt;&lt;br&gt;DUF874 family protein&lt;br&gt;Location: 2041950 - 2040664" locus_tag="INHI_RS0113520" class="clusterblast-orf" id="dummy-1_h1_6_9"  />
</g>
<g id="a1_0010"  >
<polygon points="183,85 188,80 203,80 203,90 188,90 183,85 " style="fill:#d81515; stroke-width:1; stroke:black; " description="&lt;b&gt;INHI_RS0113515&lt;/b&gt;&lt;br&gt;oligosaccharide flippase family protein&lt;br&gt;Location: 2040630 - 2039266&lt;br&gt;&lt;br&gt;&lt;b&gt;BlastP hit with JLFAFLNG_03300&lt;/b&gt;&lt;br&gt;Percentage identity: 51&lt;br&gt;Percentage coverage: 98&lt;br&gt;BLAST bit score: 414&lt;br&gt;E-value: 3.73e-140" locus_tag="INHI_RS0113515" class="clusterblast-orf" id="dummy-1_h1_6_10"  />
</g>
<g id="a1_0011"  >
<polygon points="205,90 219,90 224,85 219,80 205,80 205,90 " style="fill:#77d815; stroke-width:1; stroke:black; " description="&lt;b&gt;INHI_RS0113510&lt;/b&gt;&lt;br&gt;glycosyltransferase&lt;br&gt;Location: 2039121 - 2037904&lt;br&gt;&lt;br&gt;&lt;b&gt;BlastP hit with JLFAFLNG_03305&lt;/b&gt;&lt;br&gt;Percentage identity: 65&lt;br&gt;Percentage coverage: 100&lt;br&gt;BLAST bit score: 463&lt;br&gt;E-value: 4.63e-161&lt;br&gt;&lt;br&gt;&lt;b&gt;BlastP hit with JLFAFLNG_03309&lt;/b&gt;&lt;br&gt;Percentage identity: 32&lt;br&gt;Percentage coverage: 37&lt;br&gt;BLAST bit score: 62&lt;br&gt;E-value: 2.02e-08" locus_tag="INHI_RS0113510" class="clusterblast-orf" id="dummy-1_h1_6_11"  />
</g>
<g id="a1_0012"  >
<polygon points="224,85 229,80 236,80 236,90 229,90 224,85 " style="fill:#15d8d8; stroke-width:1; stroke:black; " description="&lt;b&gt;INHI_RS0113505&lt;/b&gt;&lt;br&gt;glycosyltransferase family 2 protein&lt;br&gt;Location: 2037885 - 2037043&lt;br&gt;&lt;br&gt;&lt;b&gt;BlastP hit with JLFAFLNG_03306&lt;/b&gt;&lt;br&gt;Percentage identity: 57&lt;br&gt;Percentage coverage: 103&lt;br&gt;BLAST bit score: 291&lt;br&gt;E-value: 2.7e-97" locus_tag="INHI_RS0113505" class="clusterblast-orf" id="dummy-1_h1_6_12"  />
</g>
<g id="a1_0013"  >
<polygon points="236,85 241,80 275,80 275,90 241,90 236,85 " style="fill:#7715d8; stroke-width:1; stroke:black; " description="&lt;b&gt;INHI_RS0113500&lt;/b&gt;&lt;br&gt;hypothetical protein&lt;br&gt;Location: 2037046 - 2034476&lt;br&gt;&lt;br&gt;&lt;b&gt;BlastP hit with JLFAFLNG_03307&lt;/b&gt;&lt;br&gt;Percentage identity: 50&lt;br&gt;Percentage coverage: 103&lt;br&gt;BLAST bit score: 781&lt;br&gt;E-value: 2.77e-272" locus_tag="INHI_RS0113500" class="clusterblast-orf" id="dummy-1_h1_6_13"  />
</g>
<g id="a1_0014"  >
<polygon points="275,85 280,80 288,80 288,90 280,90 275,85 " style="fill:#7715d8; stroke-width:1; stroke:black; " description="&lt;b&gt;INHI_RS0113495&lt;/b&gt;&lt;br&gt;hypothetical protein&lt;br&gt;Location: 2034479 - 2033577&lt;br&gt;&lt;br&gt;&lt;b&gt;BlastP hit with JLFAFLNG_03307&lt;/b&gt;&lt;br&gt;Percentage identity: 33&lt;br&gt;Percentage coverage: 33&lt;br&gt;BLAST bit score: 115&lt;br&gt;E-value: 2.44e-26&lt;br&gt;&lt;br&gt;&lt;b&gt;BlastP hit with JLFAFLNG_03308&lt;/b&gt;&lt;br&gt;Percentage identity: 54&lt;br&gt;Percentage coverage: 93&lt;br&gt;BLAST bit score: 281&lt;br&gt;E-value: 1.4e-92" locus_tag="INHI_RS0113495" class="clusterblast-orf" id="dummy-1_h1_6_14"  />
</g>
<g id="a1_0015"  >
<polygon points="288,85 293,80 299,80 299,90 293,90 288,85 " style="fill:#d8a715; stroke-width:1; stroke:black; " description="&lt;b&gt;INHI_RS0113490&lt;/b&gt;&lt;br&gt;4'-phosphopantetheinyl transferase superfamily protein&lt;br&gt;Location: 2033580 - 2032867&lt;br&gt;&lt;br&gt;&lt;b&gt;BlastP hit with JLFAFLNG_03310&lt;/b&gt;&lt;br&gt;Percentage identity: 43&lt;br&gt;Percentage coverage: 86&lt;br&gt;BLAST bit score: 150&lt;br&gt;E-value: 3.97e-43" locus_tag="INHI_RS0113490" class="clusterblast-orf" id="dummy-1_h1_6_15"  />
</g>
<g id="a1_0016"  >
<polygon points="299,85 304,80 368,80 368,90 304,90 299,85 " style="fill:#15d846; stroke-width:1; stroke:black; " description="&lt;b&gt;INHI_RS0113485&lt;/b&gt;&lt;br&gt;LLM class flavin-dependent oxidoreductase&lt;br&gt;Location: 2032870 - 2028236&lt;br&gt;&lt;br&gt;&lt;b&gt;BlastP hit with JLFAFLNG_03311&lt;/b&gt;&lt;br&gt;Percentage identity: 55&lt;br&gt;Percentage coverage: 103&lt;br&gt;BLAST bit score: 1548&lt;br&gt;E-value: 0.0" locus_tag="INHI_RS0113485" class="clusterblast-orf" id="dummy-1_h1_6_16"  />
</g>
<g id="a1_0017"  >
<polygon points="368,85 373,80 384,80 384,90 373,90 368,85 " style="fill:#1546d8; stroke-width:1; stroke:black; " description="&lt;b&gt;INHI_RS0113480&lt;/b&gt;&lt;br&gt;glycosyltransferase family 2 protein&lt;br&gt;Location: 2028239 - 2027169&lt;br&gt;&lt;br&gt;&lt;b&gt;BlastP hit with JLFAFLNG_03312&lt;/b&gt;&lt;br&gt;Percentage identity: 54&lt;br&gt;Percentage coverage: 92&lt;br&gt;BLAST bit score: 338&lt;br&gt;E-value: 1.4e-113" locus_tag="INHI_RS0113480" class="clusterblast-orf" id="dummy-1_h1_6_17"  />
</g>
<g id="a1_0018"  >
<polygon points="384,85 389,80 482,80 482,90 389,90 384,85 " style="fill:#d815a7; stroke-width:1; stroke:black; " description="&lt;b&gt;INHI_RS0113475&lt;/b&gt;&lt;br&gt;type I polyketide synthase&lt;br&gt;Location: 2027172 - 2020684&lt;br&gt;&lt;br&gt;&lt;b&gt;BlastP hit with JLFAFLNG_03313&lt;/b&gt;&lt;br&gt;Percentage identity: 57&lt;br&gt;Percentage coverage: 102&lt;br&gt;BLAST bit score: 2306&lt;br&gt;E-value: 0.0" locus_tag="INHI_RS0113475" class="clusterblast-orf" id="dummy-1_h1_6_18"  />
</g>
<g id="a1_0019"  >
<polygon points="486,85 491,80 507,80 507,90 491,90 486,85 " style="fill:white; stroke-width:1; stroke:black; " description="&lt;b&gt;INHI_RS0113470&lt;/b&gt;&lt;br&gt;membrane protein&lt;br&gt;Location: 2020417 - 2018954" locus_tag="INHI_RS0113470" class="clusterblast-orf" id="dummy-1_h1_6_19"  />
</g>
<g id="a1_0020"  >
<polygon points="510,90 516,90 521,85 516,80 510,80 510,90 " style="fill:white; stroke-width:1; stroke:black; " description="&lt;b&gt;INHI_RS0113465&lt;/b&gt;&lt;br&gt;WecB/TagA/CpsF family glycosyltransferase&lt;br&gt;Location: 2018792 - 2018040" locus_tag="INHI_RS0113465" class="clusterblast-orf" id="dummy-1_h1_6_20"  />
</g>
<g id="a1_0021"  >
<polygon points="521,85 526,80 536,80 536,90 526,90 521,85 " style="fill:white; stroke-width:1; stroke:black; " description="&lt;b&gt;INHI_RS0113460&lt;/b&gt;&lt;br&gt;glycosyltransferase&lt;br&gt;Location: 2018020 - 2017037" locus_tag="INHI_RS0113460" class="clusterblast-orf" id="dummy-1_h1_6_21"  />
</g>
<g id="a1_0022"  >
<polygon points="536,85 541,80 553,80 553,90 541,90 536,85 " style="fill:white; stroke-width:1; stroke:black; " description="&lt;b&gt;INHI_RS0113455&lt;/b&gt;&lt;br&gt;glycosyltransferase family 2 protein&lt;br&gt;Location: 2017037 - 2015928" locus_tag="INHI_RS0113455" class="clusterblast-orf" id="dummy-1_h1_6_22"  />
</g>
<g id="a1_0023"  >
<polygon points="555,90 565,90 570,85 565,80 555,80 555,90 " style="fill:white; stroke-width:1; stroke:black; " description="&lt;b&gt;INHI_RS0113450&lt;/b&gt;&lt;br&gt;glucokinase&lt;br&gt;Location: 2015755 - 2014805" locus_tag="INHI_RS0113450" class="clusterblast-orf" id="dummy-1_h1_6_23"  />
</g>
<g id="a1_0024"  >
<polygon points="570,85 575,80 625,80 625,90 575,90 570,85 " style="fill:white; stroke-width:1; stroke:black; " description="&lt;b&gt;INHI_RS0113445&lt;/b&gt;&lt;br&gt;translocation/assembly module TamB&lt;br&gt;Location: 2014780 - 2011115" locus_tag="INHI_RS0113445" class="clusterblast-orf" id="dummy-1_h1_6_24"  />
</g>
<g id="a1_0025"  >
<polygon points="625,85 630,80 654,80 654,90 630,90 625,85 " style="fill:white; stroke-width:1; stroke:black; " description="&lt;b&gt;INHI_RS0113440&lt;/b&gt;&lt;br&gt;BamA/TamA family outer membrane protein&lt;br&gt;Location: 2011118 - 2009175" locus_tag="INHI_RS0113440" class="clusterblast-orf" id="dummy-1_h1_6_25"  />
</g>
<g id="a1_0026"  >
<polygon points="656,85 661,80 675,80 675,90 661,90 656,85 " style="fill:white; stroke-width:1; stroke:black; " description="&lt;b&gt;INHI_RS0113435&lt;/b&gt;&lt;br&gt;urate hydroxylase PuuD&lt;br&gt;Location: 2009027 - 2007795" locus_tag="INHI_RS0113435" class="clusterblast-orf" id="dummy-1_h1_6_26"  />
</g>
<g id="a1_0027"  >
<polygon points="678,90 687,90 692,85 687,80 678,80 678,90 " style="fill:white; stroke-width:1; stroke:black; " description="&lt;b&gt;INHI_RS0113425&lt;/b&gt;&lt;br&gt;LysR family transcriptional regulator&lt;br&gt;Location: 2007597 - 2006623" locus_tag="INHI_RS0113425" class="clusterblast-orf" id="dummy-1_h1_6_27"  />
</g>
<g id="a1_0028"  >
<polygon points="693,85 698,80 699,80 699,90 698,90 693,85 " style="fill:white; stroke-width:1; stroke:black; " description="&lt;b&gt;INHI_RS0113420&lt;/b&gt;&lt;br&gt;hydroxyisourate hydrolase&lt;br&gt;Location: 2006538 - 2006167" locus_tag="INHI_RS0113420" class="clusterblast-orf" id="dummy-1_h1_6_28"  />
</g>
<g id="a1_0029"  >
<polygon points="701,90 717,90 722,85 717,80 701,80 701,90 " style="fill:white; stroke-width:1; stroke:black; " description="&lt;b&gt;INHI_RS0113415&lt;/b&gt;&lt;br&gt;allantoinase PuuE&lt;br&gt;Location: 2006012 - 2004597" locus_tag="INHI_RS0113415" class="clusterblast-orf" id="dummy-1_h1_6_29"  />
</g>
<g id="a1_0030"  >
<polygon points="723,90 725,90 730,85 725,80 723,80 723,90 " style="fill:white; stroke-width:1; stroke:black; " description="&lt;b&gt;INHI_RS0113410&lt;/b&gt;&lt;br&gt;ureidoglycolate lyase&lt;br&gt;Location: 2004553 - 2004068" locus_tag="INHI_RS0113410" class="clusterblast-orf" id="dummy-1_h1_6_30"  />
</g>
<g id="a1_0031"  >
<polygon points="732,90 749,90 754,85 749,80 732,80 732,90 " style="fill:white; stroke-width:1; stroke:black; " description="&lt;b&gt;INHI_RS0113405&lt;/b&gt;&lt;br&gt;purine permease&lt;br&gt;Location: 2003932 - 2002505" locus_tag="INHI_RS0113405" class="clusterblast-orf" id="dummy-1_h1_6_31"  />
</g>
<g id="a1_0032"  >
<polygon points="755,85 760,80 771,80 771,90 760,90 755,85 " style="fill:white; stroke-width:1; stroke:black; " description="&lt;b&gt;INHI_RS0113400&lt;/b&gt;&lt;br&gt;glyceraldehyde-3-phosphate dehydrogenase&lt;br&gt;Location: 2002399 - 2001338" locus_tag="INHI_RS0113400" class="clusterblast-orf" id="dummy-1_h1_6_32"  />
</g>
<g id="a1_0033"  >
<polygon points="772,85 777,80 780,80 780,90 777,90 772,85 " style="fill:white; stroke-width:1; stroke:black; " description="&lt;b&gt;INHI_RS0113395&lt;/b&gt;&lt;br&gt;hypothetical protein&lt;br&gt;Location: 2001289 - 2000789" locus_tag="INHI_RS0113395" class="clusterblast-orf" id="dummy-1_h1_6_33"  />
</g>
</svg>
