<svg xmlns="http://www.w3.org/2000/svg" xmlns:xlink="http://www.w3.org/1999/xlink" version="1.1" x="0" y="0" height="230" width="800" viewBox="0 0 800 230" preserveAspectRatio="none"  >
<g label="Query sequence" class="clusterblast-cluster"  >
<text x="5" y="20" class="clusterblast-acc"  >
Query sequence</text>
<line x1="10" y1="35" x2="778.0" y2="35" style="stroke-width:1; stroke:grey; "  />
<polygon points="151,35 156,30 171,30 171,40 156,40 151,35 " style="fill:white; stroke-width:1; stroke:black; " description="&lt;b&gt;JLFAFLNG_03297&lt;/b&gt;&lt;br&gt;hypothetical protein&lt;br&gt;Location: 137332 - 138628" locus_tag="JLFAFLNG_03297" class="clusterblast-orf" id="dummy-1_q0_0_all"  />
<polygon points="171,35 176,30 192,30 192,40 176,40 171,35 " style="fill:white; stroke-width:1; stroke:black; " description="&lt;b&gt;JLFAFLNG_03298&lt;/b&gt;&lt;br&gt;hypothetical protein&lt;br&gt;Location: 138660 - 140037" locus_tag="JLFAFLNG_03298" class="clusterblast-orf" id="dummy-1_q1_0_all"  />
<polygon points="193,35 198,30 254,30 254,40 198,40 193,35 " style="fill:white; stroke-width:1; stroke:black; " description="&lt;b&gt;JLFAFLNG_03299&lt;/b&gt;&lt;br&gt;Sensor histidine kinase RcsC&lt;br&gt;Location: 140099 - 144149" locus_tag="JLFAFLNG_03299" class="clusterblast-orf" id="dummy-1_q2_0_all"  />
<polygon points="255,35 260,30 276,30 276,40 260,40 255,35 " style="fill:#d81515; stroke-width:1; stroke:black; " description="&lt;b&gt;JLFAFLNG_03300&lt;/b&gt;&lt;br&gt;hypothetical protein&lt;br&gt;Location: 144248 - 145607" locus_tag="JLFAFLNG_03300" class="clusterblast-orf" id="dummy-1_q3_0_all"  />
<polygon points="279,40 286,40 291,35 286,30 279,30 279,40 " style="fill:white; stroke-width:1; stroke:black; " description="&lt;b&gt;JLFAFLNG_03301&lt;/b&gt;&lt;br&gt;5'-nucleotidase SurE&lt;br&gt;Location: 145814 - 146603" locus_tag="JLFAFLNG_03301" class="clusterblast-orf" id="dummy-1_q4_0_all"  />
<polygon points="291,40 297,40 302,35 297,30 291,30 291,40 " style="fill:white; stroke-width:1; stroke:black; " description="&lt;b&gt;JLFAFLNG_03302&lt;/b&gt;&lt;br&gt;Protein-L-isoaspartate O-methyltransferase&lt;br&gt;Location: 146599 - 147352" locus_tag="JLFAFLNG_03302" class="clusterblast-orf" id="dummy-1_q5_0_all"  />
<polygon points="303,40 316,40 321,35 316,30 303,30 303,40 " style="fill:white; stroke-width:1; stroke:black; " description="&lt;b&gt;JLFAFLNG_03303&lt;/b&gt;&lt;br&gt;hypothetical protein&lt;br&gt;Location: 147419 - 148619" locus_tag="JLFAFLNG_03303" class="clusterblast-orf" id="dummy-1_q6_0_all"  />
<polygon points="322,35 327,30 334,30 334,40 327,40 322,35 " style="fill:white; stroke-width:1; stroke:black; " description="&lt;b&gt;JLFAFLNG_03304&lt;/b&gt;&lt;br&gt;hypothetical protein&lt;br&gt;Location: 148692 - 149460" locus_tag="JLFAFLNG_03304" class="clusterblast-orf" id="dummy-1_q7_0_all"  />
<polygon points="335,40 348,40 353,35 348,30 335,30 335,40 " style="fill:#77d815; stroke-width:1; stroke:black; " description="&lt;b&gt;JLFAFLNG_03305&lt;/b&gt;&lt;br&gt;D-inositol-3-phosphate glycosyltransferase&lt;br&gt;Location: 149563 - 150772" locus_tag="JLFAFLNG_03305" class="clusterblast-orf" id="dummy-1_q8_0_all"  />
<polygon points="355,35 360,30 368,30 368,40 360,40 355,35 " style="fill:#15d8d8; stroke-width:1; stroke:black; " description="&lt;b&gt;JLFAFLNG_03306&lt;/b&gt;&lt;br&gt;hypothetical protein&lt;br&gt;Location: 150895 - 151723" locus_tag="JLFAFLNG_03306" class="clusterblast-orf" id="dummy-1_q9_0_all"  />
<polygon points="368,35 373,30 405,30 405,40 373,40 368,35 " style="fill:#7715d8; stroke-width:1; stroke:black; " description="&lt;b&gt;JLFAFLNG_03307&lt;/b&gt;&lt;br&gt;hypothetical protein&lt;br&gt;Location: 151722 - 154233" locus_tag="JLFAFLNG_03307" class="clusterblast-orf" id="dummy-1_q10_0_all"  />
<polygon points="405,35 410,30 419,30 419,40 410,40 405,35 " style="fill:#7715d8; stroke-width:1; stroke:black; " description="&lt;b&gt;JLFAFLNG_03308&lt;/b&gt;&lt;br&gt;hypothetical protein&lt;br&gt;Location: 154229 - 155150" locus_tag="JLFAFLNG_03308" class="clusterblast-orf" id="dummy-1_q11_0_all"  />
<polygon points="421,40 435,40 440,35 435,30 421,30 421,40 " style="fill:#77d815; stroke-width:1; stroke:black; " description="&lt;b&gt;JLFAFLNG_03309&lt;/b&gt;&lt;br&gt;hypothetical protein&lt;br&gt;Location: 155286 - 156534" locus_tag="JLFAFLNG_03309" class="clusterblast-orf" id="dummy-1_q12_0_all"  />
<polygon points="439,35 444,30 450,30 450,40 444,40 439,35 " style="fill:#d8a715; stroke-width:1; stroke:black; " description="&lt;b&gt;JLFAFLNG_03310&lt;/b&gt;&lt;br&gt;hypothetical protein&lt;br&gt;Location: 156490 - 157183" locus_tag="JLFAFLNG_03310" class="clusterblast-orf" id="dummy-1_q13_0_all"  />
<polygon points="450,35 455,30 517,30 517,40 455,40 450,35 " style="fill:#15d846; stroke-width:1; stroke:black; " description="&lt;b&gt;JLFAFLNG_03311&lt;/b&gt;&lt;br&gt;D-alanine--D-alanyl carrier protein ligase&lt;br&gt;Location: 157186 - 161680" locus_tag="JLFAFLNG_03311" class="clusterblast-orf" id="dummy-1_q14_0_all"  />
<polygon points="517,35 522,30 533,30 533,40 522,40 517,35 " style="fill:#1546d8; stroke-width:1; stroke:black; " description="&lt;b&gt;JLFAFLNG_03312&lt;/b&gt;&lt;br&gt;hypothetical protein&lt;br&gt;Location: 161676 - 162684" locus_tag="JLFAFLNG_03312" class="clusterblast-orf" id="dummy-1_q15_0_all"  />
<polygon points="532,35 537,30 628,30 628,40 537,40 532,35 " style="fill:#d815a7; stroke-width:1; stroke:black; " description="&lt;b&gt;JLFAFLNG_03313&lt;/b&gt;&lt;br&gt;hypothetical protein&lt;br&gt;Location: 162680 - 169025" locus_tag="JLFAFLNG_03313" class="clusterblast-orf" id="dummy-1_q16_0_all"  />
</g>
<g label="NZ_JWLE01000021" description="NZ_JWLE01000021 (34729-86763): Leisingera sp. ANG-DT contig 21, whole genome ... (25% of genes show similarity), NRPS-like,T1PKS" class="clusterblast-cluster"  >
<text x="5" y="70" class="clusterblast-acc"  >
<a xlink:href="https://antismash-db.secondarymetabolites.org/area.html?record=NZ_JWLE01000021&amp;start=34729&amp;end=86763" target="_blank">NZ_JWLE01000021 (34729-86763)</a>: Leisingera sp. ANG-DT contig 21, whole genome ... (25% of genes show similarity), NRPS-like,T1PKS</text>
<line x1="10" y1="85" x2="778.0" y2="85" style="stroke-width:1; stroke:grey; "  />
</g>
<g id="a1_000"  >
<polygon points="0,85 5,80 12,80 12,90 5,90 0,85 " style="fill:white; stroke-width:1; stroke:black; " description="&lt;b&gt;RA21_RS16415&lt;/b&gt;&lt;br&gt;sugar ABC transporter permease&lt;br&gt;Location: 86743 - 85880" locus_tag="RA21_RS16415" class="clusterblast-orf" id="dummy-1_h1_5_0"  />
</g>
<g id="a1_001"  >
<polygon points="12,85 17,80 29,80 29,90 17,90 12,85 " style="fill:white; stroke-width:1; stroke:black; " description="&lt;b&gt;RA21_RS16410&lt;/b&gt;&lt;br&gt;ABC transporter ATP-binding protein&lt;br&gt;Location: 85880 - 84780" locus_tag="RA21_RS16410" class="clusterblast-orf" id="dummy-1_h1_5_1"  />
</g>
<g id="a1_002"  >
<polygon points="29,85 34,80 45,80 45,90 34,90 29,85 " style="fill:white; stroke-width:1; stroke:black; " description="&lt;b&gt;RA21_RS16405&lt;/b&gt;&lt;br&gt;ABC transporter ATP-binding protein&lt;br&gt;Location: 84772 - 83708" locus_tag="RA21_RS16405" class="clusterblast-orf" id="dummy-1_h1_5_2"  />
</g>
<g id="a1_003"  >
<polygon points="48,85 53,80 74,80 74,90 53,90 48,85 " style="fill:white; stroke-width:1; stroke:black; " description="&lt;b&gt;RA21_RS16400&lt;/b&gt;&lt;br&gt;carbohydrate ABC transporter substrate-binding protein&lt;br&gt;Location: 83550 - 81817" locus_tag="RA21_RS16400" class="clusterblast-orf" id="dummy-1_h1_5_3"  />
</g>
<g id="a1_004"  >
<polygon points="78,90 89,90 94,85 89,80 78,80 78,90 " style="fill:white; stroke-width:1; stroke:black; " description="&lt;b&gt;RA21_RS16395&lt;/b&gt;&lt;br&gt;RNA methyltransferase&lt;br&gt;Location: 81549 - 80431" locus_tag="RA21_RS16395" class="clusterblast-orf" id="dummy-1_h1_5_4"  />
</g>
<g id="a1_005"  >
<polygon points="96,90 103,90 108,85 103,80 96,80 96,90 " style="fill:white; stroke-width:1; stroke:black; " description="&lt;b&gt;RA21_RS16390&lt;/b&gt;&lt;br&gt;TIGR03084 family protein&lt;br&gt;Location: 80335 - 79535" locus_tag="RA21_RS16390" class="clusterblast-orf" id="dummy-1_h1_5_5"  />
</g>
<g id="a1_006"  >
<polygon points="109,85 114,80 122,80 122,90 114,90 109,85 " style="fill:white; stroke-width:1; stroke:black; " description="&lt;b&gt;RA21_RS16385&lt;/b&gt;&lt;br&gt;2-keto-3-deoxy-galactonokinase&lt;br&gt;Location: 79471 - 78620" locus_tag="RA21_RS16385" class="clusterblast-orf" id="dummy-1_h1_5_6"  />
</g>
<g id="a1_007"  >
<polygon points="133,90 140,90 145,85 140,80 133,80 133,90 " style="fill:white; stroke-width:1; stroke:black; " description="&lt;b&gt;RA21_RS16380&lt;/b&gt;&lt;br&gt;sugar transferase&lt;br&gt;Location: 77866 - 77081" locus_tag="RA21_RS16380" class="clusterblast-orf" id="dummy-1_h1_5_7"  />
</g>
<g id="a1_008"  >
<polygon points="146,90 155,90 160,85 155,80 146,80 146,90 " style="fill:white; stroke-width:1; stroke:black; " description="&lt;b&gt;RA21_RS16375&lt;/b&gt;&lt;br&gt;CpsD/CapB family tyrosine-protein kinase&lt;br&gt;Location: 77007 - 76090" locus_tag="RA21_RS16375" class="clusterblast-orf" id="dummy-1_h1_5_8"  />
</g>
<g id="a1_009"  >
<polygon points="161,90 175,90 180,85 175,80 161,80 161,90 " style="fill:white; stroke-width:1; stroke:black; " description="&lt;b&gt;RA21_RS16370&lt;/b&gt;&lt;br&gt;chain-length determining protein&lt;br&gt;Location: 75973 - 74732" locus_tag="RA21_RS16370" class="clusterblast-orf" id="dummy-1_h1_5_9"  />
</g>
<g id="a1_0010"  >
<polygon points="181,85 186,80 202,80 202,90 186,90 181,85 " style="fill:#d81515; stroke-width:1; stroke:black; " description="&lt;b&gt;RA21_RS16365&lt;/b&gt;&lt;br&gt;oligosaccharide flippase family protein&lt;br&gt;Location: 74666 - 73296&lt;br&gt;&lt;br&gt;&lt;b&gt;BlastP hit with JLFAFLNG_03300&lt;/b&gt;&lt;br&gt;Percentage identity: 56&lt;br&gt;Percentage coverage: 94&lt;br&gt;BLAST bit score: 425&lt;br&gt;E-value: 1.64e-144" locus_tag="RA21_RS16365" class="clusterblast-orf" id="dummy-1_h1_5_10"  />
</g>
<g id="a1_0011"  >
<polygon points="205,90 218,90 223,85 218,80 205,80 205,90 " style="fill:#77d815; stroke-width:1; stroke:black; " description="&lt;b&gt;RA21_RS16360&lt;/b&gt;&lt;br&gt;glycosyltransferase&lt;br&gt;Location: 73059 - 71851&lt;br&gt;&lt;br&gt;&lt;b&gt;BlastP hit with JLFAFLNG_03305&lt;/b&gt;&lt;br&gt;Percentage identity: 63&lt;br&gt;Percentage coverage: 99&lt;br&gt;BLAST bit score: 457&lt;br&gt;E-value: 1.59e-158" locus_tag="RA21_RS16360" class="clusterblast-orf" id="dummy-1_h1_5_11"  />
</g>
<g id="a1_0012"  >
<polygon points="225,85 230,80 238,80 238,90 230,90 225,85 " style="fill:#15d8d8; stroke-width:1; stroke:black; " description="&lt;b&gt;RA21_RS16355&lt;/b&gt;&lt;br&gt;glycosyltransferase&lt;br&gt;Location: 71718 - 70882&lt;br&gt;&lt;br&gt;&lt;b&gt;BlastP hit with JLFAFLNG_03306&lt;/b&gt;&lt;br&gt;Percentage identity: 58&lt;br&gt;Percentage coverage: 101&lt;br&gt;BLAST bit score: 297&lt;br&gt;E-value: 1.9e-99" locus_tag="RA21_RS16355" class="clusterblast-orf" id="dummy-1_h1_5_12"  />
</g>
<g id="a1_0013"  >
<polygon points="238,85 243,80 276,80 276,90 243,90 238,85 " style="fill:#7715d8; stroke-width:1; stroke:black; " description="&lt;b&gt;RA21_RS16350&lt;/b&gt;&lt;br&gt;hypothetical protein&lt;br&gt;Location: 70885 - 68381&lt;br&gt;&lt;br&gt;&lt;b&gt;BlastP hit with JLFAFLNG_03307&lt;/b&gt;&lt;br&gt;Percentage identity: 48&lt;br&gt;Percentage coverage: 102&lt;br&gt;BLAST bit score: 765&lt;br&gt;E-value: 1.46e-266" locus_tag="RA21_RS16350" class="clusterblast-orf" id="dummy-1_h1_5_13"  />
</g>
<g id="a1_0014"  >
<polygon points="276,85 281,80 290,80 290,90 281,90 276,85 " style="fill:#7715d8; stroke-width:1; stroke:black; " description="&lt;b&gt;RA21_RS16345&lt;/b&gt;&lt;br&gt;hypothetical protein&lt;br&gt;Location: 68384 - 67449&lt;br&gt;&lt;br&gt;&lt;b&gt;BlastP hit with JLFAFLNG_03308&lt;/b&gt;&lt;br&gt;Percentage identity: 58&lt;br&gt;Percentage coverage: 90&lt;br&gt;BLAST bit score: 311&lt;br&gt;E-value: 3.1e-104" locus_tag="RA21_RS16345" class="clusterblast-orf" id="dummy-1_h1_5_14"  />
</g>
<g id="a1_0015"  >
<polygon points="290,85 295,80 300,80 300,90 295,90 290,85 " style="fill:#d8a715; stroke-width:1; stroke:black; " description="&lt;b&gt;RA21_RS16340&lt;/b&gt;&lt;br&gt;4'-phosphopantetheinyl transferase superfamily protein&lt;br&gt;Location: 67449 - 66760&lt;br&gt;&lt;br&gt;&lt;b&gt;BlastP hit with JLFAFLNG_03310&lt;/b&gt;&lt;br&gt;Percentage identity: 43&lt;br&gt;Percentage coverage: 83&lt;br&gt;BLAST bit score: 148&lt;br&gt;E-value: 1.79e-42" locus_tag="RA21_RS16340" class="clusterblast-orf" id="dummy-1_h1_5_15"  />
</g>
<g id="a1_0016"  >
<polygon points="300,85 305,80 368,80 368,90 305,90 300,85 " style="fill:#15d846; stroke-width:1; stroke:black; " description="&lt;b&gt;RA21_RS16335&lt;/b&gt;&lt;br&gt;LLM class flavin-dependent oxidoreductase&lt;br&gt;Location: 66763 - 62198&lt;br&gt;&lt;br&gt;&lt;b&gt;BlastP hit with JLFAFLNG_03311&lt;/b&gt;&lt;br&gt;Percentage identity: 59&lt;br&gt;Percentage coverage: 102&lt;br&gt;BLAST bit score: 1652&lt;br&gt;E-value: 0.0" locus_tag="RA21_RS16335" class="clusterblast-orf" id="dummy-1_h1_5_16"  />
</g>
<g id="a1_0017"  >
<polygon points="368,85 373,80 384,80 384,90 373,90 368,85 " style="fill:#1546d8; stroke-width:1; stroke:black; " description="&lt;b&gt;RA21_RS16330&lt;/b&gt;&lt;br&gt;glycosyltransferase family 2 protein&lt;br&gt;Location: 62201 - 61185&lt;br&gt;&lt;br&gt;&lt;b&gt;BlastP hit with JLFAFLNG_03312&lt;/b&gt;&lt;br&gt;Percentage identity: 56&lt;br&gt;Percentage coverage: 92&lt;br&gt;BLAST bit score: 351&lt;br&gt;E-value: 5.41e-119" locus_tag="RA21_RS16330" class="clusterblast-orf" id="dummy-1_h1_5_17"  />
</g>
<g id="a1_0018"  >
<polygon points="384,85 389,80 481,80 481,90 389,90 384,85 " style="fill:#d815a7; stroke-width:1; stroke:black; " description="&lt;b&gt;RA21_RS16325&lt;/b&gt;&lt;br&gt;type I polyketide synthase&lt;br&gt;Location: 61179 - 54730&lt;br&gt;&lt;br&gt;&lt;b&gt;BlastP hit with JLFAFLNG_03313&lt;/b&gt;&lt;br&gt;Percentage identity: 58&lt;br&gt;Percentage coverage: 101&lt;br&gt;BLAST bit score: 2369&lt;br&gt;E-value: 0.0" locus_tag="RA21_RS16325" class="clusterblast-orf" id="dummy-1_h1_5_18"  />
</g>
<g id="a1_0019"  >
<polygon points="485,85 490,80 507,80 507,90 490,90 485,85 " style="fill:white; stroke-width:1; stroke:black; " description="&lt;b&gt;RA21_RS16320&lt;/b&gt;&lt;br&gt;membrane protein&lt;br&gt;Location: 54468 - 53005" locus_tag="RA21_RS16320" class="clusterblast-orf" id="dummy-1_h1_5_19"  />
</g>
<g id="a1_0020"  >
<polygon points="510,90 516,90 521,85 516,80 510,80 510,90 " style="fill:white; stroke-width:1; stroke:black; " description="&lt;b&gt;RA21_RS16315&lt;/b&gt;&lt;br&gt;WecB/TagA/CpsF family glycosyltransferase&lt;br&gt;Location: 52811 - 52059" locus_tag="RA21_RS16315" class="clusterblast-orf" id="dummy-1_h1_5_20"  />
</g>
<g id="a1_0021"  >
<polygon points="521,85 526,80 535,80 535,90 526,90 521,85 " style="fill:white; stroke-width:1; stroke:black; " description="&lt;b&gt;RA21_RS16310&lt;/b&gt;&lt;br&gt;glycosyltransferase family 2 protein&lt;br&gt;Location: 52051 - 51101" locus_tag="RA21_RS16310" class="clusterblast-orf" id="dummy-1_h1_5_21"  />
</g>
<g id="a1_0022"  >
<polygon points="535,85 540,80 552,80 552,90 540,90 535,85 " style="fill:white; stroke-width:1; stroke:black; " description="&lt;b&gt;RA21_RS16305&lt;/b&gt;&lt;br&gt;glycosyltransferase family 2 protein&lt;br&gt;Location: 51104 - 50016" locus_tag="RA21_RS16305" class="clusterblast-orf" id="dummy-1_h1_5_22"  />
</g>
<g id="a1_0023"  >
<polygon points="552,85 557,80 606,80 606,90 557,90 552,85 " style="fill:white; stroke-width:1; stroke:black; " description="&lt;b&gt;RA21_RS16300&lt;/b&gt;&lt;br&gt;translocation/assembly module TamB&lt;br&gt;Location: 49989 - 46390" locus_tag="RA21_RS16300" class="clusterblast-orf" id="dummy-1_h1_5_23"  />
</g>
<g id="a1_0024"  >
<polygon points="607,85 612,80 634,80 634,90 612,90 607,85 " style="fill:white; stroke-width:1; stroke:black; " description="&lt;b&gt;RA21_RS16295&lt;/b&gt;&lt;br&gt;outer membrane protein assembly factor&lt;br&gt;Location: 46363 - 44561" locus_tag="RA21_RS16295" class="clusterblast-orf" id="dummy-1_h1_5_24"  />
</g>
<g id="a1_0025"  >
<polygon points="640,90 640,90 645,85 640,80 640,80 640,90 " style="fill:white; stroke-width:1; stroke:black; " description="&lt;b&gt;RA21_RS16290&lt;/b&gt;&lt;br&gt;hypothetical protein&lt;br&gt;Location: 44124 - 43822" locus_tag="RA21_RS16290" class="clusterblast-orf" id="dummy-1_h1_5_25"  />
</g>
<g id="a1_0026"  >
<polygon points="646,90 650,90 655,85 650,80 646,80 646,90 " style="fill:white; stroke-width:1; stroke:black; " description="&lt;b&gt;RA21_RS16285&lt;/b&gt;&lt;br&gt;hypothetical protein&lt;br&gt;Location: 43755 - 43147" locus_tag="RA21_RS16285" class="clusterblast-orf" id="dummy-1_h1_5_26"  />
</g>
<g id="a1_0027"  >
<polygon points="656,85 661,80 671,80 671,90 661,90 656,85 " style="fill:white; stroke-width:1; stroke:black; " description="&lt;b&gt;RA21_RS16280&lt;/b&gt;&lt;br&gt;glyceraldehyde-3-phosphate dehydrogenase&lt;br&gt;Location: 43095 - 42076" locus_tag="RA21_RS16280" class="clusterblast-orf" id="dummy-1_h1_5_27"  />
</g>
<g id="a1_0028"  >
<polygon points="672,85 677,80 677,80 677,90 677,90 672,85 " style="fill:white; stroke-width:1; stroke:black; " description="&lt;b&gt;RA21_RS16275&lt;/b&gt;&lt;br&gt;hypothetical protein&lt;br&gt;Location: 41990 - 41676" locus_tag="RA21_RS16275" class="clusterblast-orf" id="dummy-1_h1_5_28"  />
</g>
<g id="a1_0029"  >
<polygon points="678,85 683,80 690,80 690,90 683,90 678,85 " style="fill:white; stroke-width:1; stroke:black; " description="&lt;b&gt;RA21_RS16270&lt;/b&gt;&lt;br&gt;helix-turn-helix domain-containing protein&lt;br&gt;Location: 41595 - 40819" locus_tag="RA21_RS16270" class="clusterblast-orf" id="dummy-1_h1_5_29"  />
</g>
<g id="a1_0030"  >
<polygon points="693,90 710,90 715,85 710,80 693,80 693,90 " style="fill:white; stroke-width:1; stroke:black; " description="&lt;b&gt;RA21_RS16265&lt;/b&gt;&lt;br&gt;glutamine synthetase&lt;br&gt;Location: 40604 - 39156" locus_tag="RA21_RS16265" class="clusterblast-orf" id="dummy-1_h1_5_30"  />
</g>
<g id="a1_0031"  >
<polygon points="718,90 718,90 723,85 718,80 718,80 718,90 " style="fill:white; stroke-width:1; stroke:black; " description="&lt;b&gt;RA21_RS16260&lt;/b&gt;&lt;br&gt;glycine cleavage system protein GcvH&lt;br&gt;Location: 38982 - 38623" locus_tag="RA21_RS16260" class="clusterblast-orf" id="dummy-1_h1_5_31"  />
</g>
<g id="a1_0032"  >
<polygon points="722,90 733,90 738,85 733,80 722,80 722,90 " style="fill:white; stroke-width:1; stroke:black; " description="&lt;b&gt;RA21_RS22055&lt;/b&gt;&lt;br&gt;c-type cytochrome&lt;br&gt;Location: 38654 - 37596" locus_tag="RA21_RS22055" class="clusterblast-orf" id="dummy-1_h1_5_32"  />
</g>
<g id="a1_0033"  >
<polygon points="739,85 744,80 753,80 753,90 744,90 739,85 " style="fill:white; stroke-width:1; stroke:black; " description="&lt;b&gt;RA21_RS16250&lt;/b&gt;&lt;br&gt;2-hydroxyacid dehydrogenase&lt;br&gt;Location: 37570 - 36635" locus_tag="RA21_RS16250" class="clusterblast-orf" id="dummy-1_h1_5_33"  />
</g>
<g id="a1_0034"  >
<polygon points="754,85 759,80 765,80 765,90 759,90 754,85 " style="fill:white; stroke-width:1; stroke:black; " description="&lt;b&gt;RA21_RS16245&lt;/b&gt;&lt;br&gt;NYN domain-containing protein&lt;br&gt;Location: 36554 - 35820" locus_tag="RA21_RS16245" class="clusterblast-orf" id="dummy-1_h1_5_34"  />
</g>
<g id="a1_0035"  >
<polygon points="768,85 773,80 780,80 780,90 773,90 768,85 " style="fill:white; stroke-width:1; stroke:black; " description="&lt;b&gt;RA21_RS16240&lt;/b&gt;&lt;br&gt;tRNA pseudouridine(38-40) synthase TruA&lt;br&gt;Location: 35626 - 34859" locus_tag="RA21_RS16240" class="clusterblast-orf" id="dummy-1_h1_5_35"  />
</g>
</svg>
