<svg xmlns="http://www.w3.org/2000/svg" xmlns:xlink="http://www.w3.org/1999/xlink" version="1.1" x="0" y="0" height="230" width="800" viewBox="0 0 800 230" preserveAspectRatio="none"  >
<g label="Query sequence" class="clusterblast-cluster"  >
<text x="5" y="20" class="clusterblast-acc"  >
Query sequence</text>
<line x1="10" y1="35" x2="778.0" y2="35" style="stroke-width:1; stroke:grey; "  />
<polygon points="146,35 151,30 166,30 166,40 151,40 146,35 " style="fill:white; stroke-width:1; stroke:black; " description="&lt;b&gt;JLFAFLNG_03297&lt;/b&gt;&lt;br&gt;hypothetical protein&lt;br&gt;Location: 137332 - 138628" locus_tag="JLFAFLNG_03297" class="clusterblast-orf" id="dummy-1_q0_0_all"  />
<polygon points="166,35 171,30 187,30 187,40 171,40 166,35 " style="fill:white; stroke-width:1; stroke:black; " description="&lt;b&gt;JLFAFLNG_03298&lt;/b&gt;&lt;br&gt;hypothetical protein&lt;br&gt;Location: 138660 - 140037" locus_tag="JLFAFLNG_03298" class="clusterblast-orf" id="dummy-1_q1_0_all"  />
<polygon points="188,35 193,30 251,30 251,40 193,40 188,35 " style="fill:white; stroke-width:1; stroke:black; " description="&lt;b&gt;JLFAFLNG_03299&lt;/b&gt;&lt;br&gt;Sensor histidine kinase RcsC&lt;br&gt;Location: 140099 - 144149" locus_tag="JLFAFLNG_03299" class="clusterblast-orf" id="dummy-1_q2_0_all"  />
<polygon points="252,35 257,30 273,30 273,40 257,40 252,35 " style="fill:#d81515; stroke-width:1; stroke:black; " description="&lt;b&gt;JLFAFLNG_03300&lt;/b&gt;&lt;br&gt;hypothetical protein&lt;br&gt;Location: 144248 - 145607" locus_tag="JLFAFLNG_03300" class="clusterblast-orf" id="dummy-1_q3_0_all"  />
<polygon points="276,40 283,40 288,35 283,30 276,30 276,40 " style="fill:white; stroke-width:1; stroke:black; " description="&lt;b&gt;JLFAFLNG_03301&lt;/b&gt;&lt;br&gt;5'-nucleotidase SurE&lt;br&gt;Location: 145814 - 146603" locus_tag="JLFAFLNG_03301" class="clusterblast-orf" id="dummy-1_q4_0_all"  />
<polygon points="288,40 295,40 300,35 295,30 288,30 288,40 " style="fill:white; stroke-width:1; stroke:black; " description="&lt;b&gt;JLFAFLNG_03302&lt;/b&gt;&lt;br&gt;Protein-L-isoaspartate O-methyltransferase&lt;br&gt;Location: 146599 - 147352" locus_tag="JLFAFLNG_03302" class="clusterblast-orf" id="dummy-1_q5_0_all"  />
<polygon points="301,40 314,40 319,35 314,30 301,30 301,40 " style="fill:white; stroke-width:1; stroke:black; " description="&lt;b&gt;JLFAFLNG_03303&lt;/b&gt;&lt;br&gt;hypothetical protein&lt;br&gt;Location: 147419 - 148619" locus_tag="JLFAFLNG_03303" class="clusterblast-orf" id="dummy-1_q6_0_all"  />
<polygon points="321,35 326,30 332,30 332,40 326,40 321,35 " style="fill:white; stroke-width:1; stroke:black; " description="&lt;b&gt;JLFAFLNG_03304&lt;/b&gt;&lt;br&gt;hypothetical protein&lt;br&gt;Location: 148692 - 149460" locus_tag="JLFAFLNG_03304" class="clusterblast-orf" id="dummy-1_q7_0_all"  />
<polygon points="334,40 348,40 353,35 348,30 334,30 334,40 " style="fill:#77d815; stroke-width:1; stroke:black; " description="&lt;b&gt;JLFAFLNG_03305&lt;/b&gt;&lt;br&gt;D-inositol-3-phosphate glycosyltransferase&lt;br&gt;Location: 149563 - 150772" locus_tag="JLFAFLNG_03305" class="clusterblast-orf" id="dummy-1_q8_0_all"  />
<polygon points="354,35 359,30 367,30 367,40 359,40 354,35 " style="fill:#15d8d8; stroke-width:1; stroke:black; " description="&lt;b&gt;JLFAFLNG_03306&lt;/b&gt;&lt;br&gt;hypothetical protein&lt;br&gt;Location: 150895 - 151723" locus_tag="JLFAFLNG_03306" class="clusterblast-orf" id="dummy-1_q9_0_all"  />
<polygon points="367,35 372,30 406,30 406,40 372,40 367,35 " style="fill:#7715d8; stroke-width:1; stroke:black; " description="&lt;b&gt;JLFAFLNG_03307&lt;/b&gt;&lt;br&gt;hypothetical protein&lt;br&gt;Location: 151722 - 154233" locus_tag="JLFAFLNG_03307" class="clusterblast-orf" id="dummy-1_q10_0_all"  />
<polygon points="406,35 411,30 420,30 420,40 411,40 406,35 " style="fill:#7715d8; stroke-width:1; stroke:black; " description="&lt;b&gt;JLFAFLNG_03308&lt;/b&gt;&lt;br&gt;hypothetical protein&lt;br&gt;Location: 154229 - 155150" locus_tag="JLFAFLNG_03308" class="clusterblast-orf" id="dummy-1_q11_0_all"  />
<polygon points="422,40 436,40 441,35 436,30 422,30 422,40 " style="fill:#77d815; stroke-width:1; stroke:black; " description="&lt;b&gt;JLFAFLNG_03309&lt;/b&gt;&lt;br&gt;hypothetical protein&lt;br&gt;Location: 155286 - 156534" locus_tag="JLFAFLNG_03309" class="clusterblast-orf" id="dummy-1_q12_0_all"  />
<polygon points="441,35 446,30 451,30 451,40 446,40 441,35 " style="fill:#d8a715; stroke-width:1; stroke:black; " description="&lt;b&gt;JLFAFLNG_03310&lt;/b&gt;&lt;br&gt;hypothetical protein&lt;br&gt;Location: 156490 - 157183" locus_tag="JLFAFLNG_03310" class="clusterblast-orf" id="dummy-1_q13_0_all"  />
<polygon points="451,35 456,30 521,30 521,40 456,40 451,35 " style="fill:#15d846; stroke-width:1; stroke:black; " description="&lt;b&gt;JLFAFLNG_03311&lt;/b&gt;&lt;br&gt;D-alanine--D-alanyl carrier protein ligase&lt;br&gt;Location: 157186 - 161680" locus_tag="JLFAFLNG_03311" class="clusterblast-orf" id="dummy-1_q14_0_all"  />
<polygon points="521,35 526,30 536,30 536,40 526,40 521,35 " style="fill:#1546d8; stroke-width:1; stroke:black; " description="&lt;b&gt;JLFAFLNG_03312&lt;/b&gt;&lt;br&gt;hypothetical protein&lt;br&gt;Location: 161676 - 162684" locus_tag="JLFAFLNG_03312" class="clusterblast-orf" id="dummy-1_q15_0_all"  />
<polygon points="536,35 541,30 634,30 634,40 541,40 536,35 " style="fill:#d815a7; stroke-width:1; stroke:black; " description="&lt;b&gt;JLFAFLNG_03313&lt;/b&gt;&lt;br&gt;hypothetical protein&lt;br&gt;Location: 162680 - 169025" locus_tag="JLFAFLNG_03313" class="clusterblast-orf" id="dummy-1_q16_0_all"  />
</g>
<g label="NZ_CP010725" description="NZ_CP010725 (542207-594394): Phaeobacter inhibens strain P88 chromosome, comp... (25% of genes show similarity), NRPS-like,T1PKS" class="clusterblast-cluster"  >
<text x="5" y="70" class="clusterblast-acc"  >
<a xlink:href="https://antismash-db.secondarymetabolites.org/area.html?record=NZ_CP010725&amp;start=542207&amp;end=594394" target="_blank">NZ_CP010725 (542207-594394)</a>: Phaeobacter inhibens strain P88 chromosome, comp... (25% of genes show similarity), NRPS-like,T1PKS</text>
<line x1="10" y1="85" x2="778.0" y2="85" style="stroke-width:1; stroke:grey; "  />
</g>
<g id="a1_000"  >
<polygon points="0,85 5,80 13,80 13,90 5,90 0,85 " style="fill:white; stroke-width:1; stroke:black; " description="&lt;b&gt;PhaeoP88_RS02540&lt;/b&gt;&lt;br&gt;virulence-associated protein E&lt;br&gt;Location: 543638 - 544498" locus_tag="PhaeoP88_RS02540" class="clusterblast-orf" id="dummy-1_h1_8_0"  />
</g>
<g id="a1_001"  >
<polygon points="14,85 19,80 19,80 19,90 19,90 14,85 " style="fill:white; stroke-width:1; stroke:black; " description="&lt;b&gt;PhaeoP88_RS02545&lt;/b&gt;&lt;br&gt;hypothetical protein&lt;br&gt;Location: 544590 - 544907" locus_tag="PhaeoP88_RS02545" class="clusterblast-orf" id="dummy-1_h1_8_1"  />
</g>
<g id="a1_002"  >
<polygon points="21,85 24,80 24,90 21,85 " style="fill:white; stroke-width:1; stroke:black; " description="&lt;b&gt;PhaeoP88_RS02550&lt;/b&gt;&lt;br&gt;AlpA family phage regulatory protein&lt;br&gt;Location: 545022 - 545210" locus_tag="PhaeoP88_RS02550" class="clusterblast-orf" id="dummy-1_h1_8_2"  />
</g>
<g id="a1_003"  >
<polygon points="26,85 31,80 36,80 36,90 31,90 26,85 " style="fill:white; stroke-width:1; stroke:black; " description="&lt;b&gt;PhaeoP88_RS02555&lt;/b&gt;&lt;br&gt;hypothetical protein&lt;br&gt;Location: 545334 - 546029" locus_tag="PhaeoP88_RS02555" class="clusterblast-orf" id="dummy-1_h1_8_3"  />
</g>
<g id="a1_004"  >
<polygon points="39,85 44,80 59,80 59,90 44,90 39,85 " style="fill:white; stroke-width:1; stroke:black; " description="&lt;b&gt;PhaeoP88_RS02560&lt;/b&gt;&lt;br&gt;site-specific integrase&lt;br&gt;Location: 546224 - 547516" locus_tag="PhaeoP88_RS02560" class="clusterblast-orf" id="dummy-1_h1_8_4"  />
</g>
<g id="a1_005"  >
<polygon points="64,90 68,85 64,80 64,90 " style="fill:white; stroke-width:1; stroke:black; " description="&lt;b&gt;PhaeoP88_RS02565&lt;/b&gt;&lt;br&gt;SDR family NAD(P)-dependent oxidoreductase&lt;br&gt;Location: 547799 - 548065" locus_tag="PhaeoP88_RS02565" class="clusterblast-orf" id="dummy-1_h1_8_5"  />
</g>
<g id="a1_006"  >
<polygon points="69,90 81,90 86,85 81,80 69,80 69,90 " style="fill:white; stroke-width:1; stroke:black; " description="&lt;b&gt;PhaeoP88_RS02570&lt;/b&gt;&lt;br&gt;IS3 family transposase&lt;br&gt;Location: 548122 - 549248" locus_tag="PhaeoP88_RS02570" class="clusterblast-orf" id="dummy-1_h1_8_6"  />
</g>
<g id="a1_007"  >
<polygon points="86,90 89,85 86,80 86,90 " style="fill:white; stroke-width:1; stroke:black; " description="&lt;b&gt;PhaeoP88_RS02575&lt;/b&gt;&lt;br&gt;class I SAM-dependent RNA methyltransferase&lt;br&gt;Location: 549283 - 549432" locus_tag="PhaeoP88_RS02575" class="clusterblast-orf" id="dummy-1_h1_8_7"  />
</g>
<g id="a1_008"  >
<polygon points="89,85 94,80 104,80 104,90 94,90 89,85 " style="fill:white; stroke-width:1; stroke:black; " description="&lt;b&gt;PhaeoP88_RS02580&lt;/b&gt;&lt;br&gt;hypothetical protein&lt;br&gt;Location: 549464 - 550453" locus_tag="PhaeoP88_RS02580" class="clusterblast-orf" id="dummy-1_h1_8_8"  />
</g>
<g id="a1_009"  >
<polygon points="116,90 122,90 127,85 122,80 116,80 116,90 " style="fill:white; stroke-width:1; stroke:black; " description="&lt;b&gt;PhaeoP88_RS02585&lt;/b&gt;&lt;br&gt;sugar transferase&lt;br&gt;Location: 551182 - 551907" locus_tag="PhaeoP88_RS02585" class="clusterblast-orf" id="dummy-1_h1_8_9"  />
</g>
<g id="a1_0010"  >
<polygon points="128,90 140,90 145,85 140,80 128,80 128,90 " style="fill:white; stroke-width:1; stroke:black; " description="&lt;b&gt;PhaeoP88_RS02590&lt;/b&gt;&lt;br&gt;CpsD/CapB family tyrosine-protein kinase&lt;br&gt;Location: 551982 - 553055" locus_tag="PhaeoP88_RS02590" class="clusterblast-orf" id="dummy-1_h1_8_10"  />
</g>
<g id="a1_0011"  >
<polygon points="146,90 160,90 165,85 160,80 146,80 146,90 " style="fill:white; stroke-width:1; stroke:black; " description="&lt;b&gt;PhaeoP88_RS02595&lt;/b&gt;&lt;br&gt;DUF874 family protein&lt;br&gt;Location: 553128 - 554414" locus_tag="PhaeoP88_RS02595" class="clusterblast-orf" id="dummy-1_h1_8_11"  />
</g>
<g id="a1_0012"  >
<polygon points="166,85 171,80 187,80 187,90 171,90 166,85 " style="fill:#d81515; stroke-width:1; stroke:black; " description="&lt;b&gt;PhaeoP88_RS02600&lt;/b&gt;&lt;br&gt;oligosaccharide flippase family protein&lt;br&gt;Location: 554448 - 555812&lt;br&gt;&lt;br&gt;&lt;b&gt;BlastP hit with JLFAFLNG_03300&lt;/b&gt;&lt;br&gt;Percentage identity: 51&lt;br&gt;Percentage coverage: 98&lt;br&gt;BLAST bit score: 414&lt;br&gt;E-value: 3.73e-140" locus_tag="PhaeoP88_RS02600" class="clusterblast-orf" id="dummy-1_h1_8_12"  />
</g>
<g id="a1_0013"  >
<polygon points="189,90 203,90 208,85 203,80 189,80 189,90 " style="fill:#77d815; stroke-width:1; stroke:black; " description="&lt;b&gt;PhaeoP88_RS02605&lt;/b&gt;&lt;br&gt;glycosyltransferase&lt;br&gt;Location: 555957 - 557174&lt;br&gt;&lt;br&gt;&lt;b&gt;BlastP hit with JLFAFLNG_03305&lt;/b&gt;&lt;br&gt;Percentage identity: 65&lt;br&gt;Percentage coverage: 99&lt;br&gt;BLAST bit score: 461&lt;br&gt;E-value: 2.66e-160&lt;br&gt;&lt;br&gt;&lt;b&gt;BlastP hit with JLFAFLNG_03309&lt;/b&gt;&lt;br&gt;Percentage identity: 32&lt;br&gt;Percentage coverage: 37&lt;br&gt;BLAST bit score: 62&lt;br&gt;E-value: 2.02e-08" locus_tag="PhaeoP88_RS02605" class="clusterblast-orf" id="dummy-1_h1_8_13"  />
</g>
<g id="a1_0014"  >
<polygon points="208,85 213,80 221,80 221,90 213,90 208,85 " style="fill:#15d8d8; stroke-width:1; stroke:black; " description="&lt;b&gt;PhaeoP88_RS02610&lt;/b&gt;&lt;br&gt;glycosyltransferase&lt;br&gt;Location: 557193 - 558035&lt;br&gt;&lt;br&gt;&lt;b&gt;BlastP hit with JLFAFLNG_03306&lt;/b&gt;&lt;br&gt;Percentage identity: 58&lt;br&gt;Percentage coverage: 103&lt;br&gt;BLAST bit score: 291&lt;br&gt;E-value: 2.7e-97" locus_tag="PhaeoP88_RS02610" class="clusterblast-orf" id="dummy-1_h1_8_14"  />
</g>
<g id="a1_0015"  >
<polygon points="221,85 226,80 261,80 261,90 226,90 221,85 " style="fill:#7715d8; stroke-width:1; stroke:black; " description="&lt;b&gt;PhaeoP88_RS02615&lt;/b&gt;&lt;br&gt;hypothetical protein&lt;br&gt;Location: 558032 - 560602&lt;br&gt;&lt;br&gt;&lt;b&gt;BlastP hit with JLFAFLNG_03307&lt;/b&gt;&lt;br&gt;Percentage identity: 50&lt;br&gt;Percentage coverage: 103&lt;br&gt;BLAST bit score: 778&lt;br&gt;E-value: 3.17e-271" locus_tag="PhaeoP88_RS02615" class="clusterblast-orf" id="dummy-1_h1_8_15"  />
</g>
<g id="a1_0016"  >
<polygon points="261,85 266,80 275,80 275,90 266,90 261,85 " style="fill:#7715d8; stroke-width:1; stroke:black; " description="&lt;b&gt;PhaeoP88_RS02620&lt;/b&gt;&lt;br&gt;hypothetical protein&lt;br&gt;Location: 560599 - 561501&lt;br&gt;&lt;br&gt;&lt;b&gt;BlastP hit with JLFAFLNG_03307&lt;/b&gt;&lt;br&gt;Percentage identity: 33&lt;br&gt;Percentage coverage: 33&lt;br&gt;BLAST bit score: 118&lt;br&gt;E-value: 2.91e-27&lt;br&gt;&lt;br&gt;&lt;b&gt;BlastP hit with JLFAFLNG_03308&lt;/b&gt;&lt;br&gt;Percentage identity: 53&lt;br&gt;Percentage coverage: 93&lt;br&gt;BLAST bit score: 276&lt;br&gt;E-value: 1.84e-90" locus_tag="PhaeoP88_RS02620" class="clusterblast-orf" id="dummy-1_h1_8_16"  />
</g>
<g id="a1_0017"  >
<polygon points="275,85 280,80 286,80 286,90 280,90 275,85 " style="fill:#d8a715; stroke-width:1; stroke:black; " description="&lt;b&gt;PhaeoP88_RS02625&lt;/b&gt;&lt;br&gt;4'-phosphopantetheinyl transferase superfamily protein&lt;br&gt;Location: 561498 - 562211&lt;br&gt;&lt;br&gt;&lt;b&gt;BlastP hit with JLFAFLNG_03310&lt;/b&gt;&lt;br&gt;Percentage identity: 43&lt;br&gt;Percentage coverage: 86&lt;br&gt;BLAST bit score: 150&lt;br&gt;E-value: 3.97e-43" locus_tag="PhaeoP88_RS02625" class="clusterblast-orf" id="dummy-1_h1_8_17"  />
</g>
<g id="a1_0018"  >
<polygon points="285,85 290,80 357,80 357,90 290,90 285,85 " style="fill:#15d846; stroke-width:1; stroke:black; " description="&lt;b&gt;PhaeoP88_RS02630&lt;/b&gt;&lt;br&gt;LLM class flavin-dependent oxidoreductase&lt;br&gt;Location: 562208 - 566842&lt;br&gt;&lt;br&gt;&lt;b&gt;BlastP hit with JLFAFLNG_03311&lt;/b&gt;&lt;br&gt;Percentage identity: 55&lt;br&gt;Percentage coverage: 104&lt;br&gt;BLAST bit score: 1548&lt;br&gt;E-value: 0.0" locus_tag="PhaeoP88_RS02630" class="clusterblast-orf" id="dummy-1_h1_8_18"  />
</g>
<g id="a1_0019"  >
<polygon points="357,85 362,80 373,80 373,90 362,90 357,85 " style="fill:#1546d8; stroke-width:1; stroke:black; " description="&lt;b&gt;PhaeoP88_RS02635&lt;/b&gt;&lt;br&gt;glycosyltransferase family 2 protein&lt;br&gt;Location: 566839 - 567909&lt;br&gt;&lt;br&gt;&lt;b&gt;BlastP hit with JLFAFLNG_03312&lt;/b&gt;&lt;br&gt;Percentage identity: 54&lt;br&gt;Percentage coverage: 92&lt;br&gt;BLAST bit score: 340&lt;br&gt;E-value: 2.45e-114" locus_tag="PhaeoP88_RS02635" class="clusterblast-orf" id="dummy-1_h1_8_19"  />
</g>
<g id="a1_0020"  >
<polygon points="373,85 378,80 473,80 473,90 378,90 373,85 " style="fill:#d815a7; stroke-width:1; stroke:black; " description="&lt;b&gt;PhaeoP88_RS02640&lt;/b&gt;&lt;br&gt;type I polyketide synthase&lt;br&gt;Location: 567906 - 574394&lt;br&gt;&lt;br&gt;&lt;b&gt;BlastP hit with JLFAFLNG_03313&lt;/b&gt;&lt;br&gt;Percentage identity: 57&lt;br&gt;Percentage coverage: 102&lt;br&gt;BLAST bit score: 2307&lt;br&gt;E-value: 0.0" locus_tag="PhaeoP88_RS02640" class="clusterblast-orf" id="dummy-1_h1_8_20"  />
</g>
<g id="a1_0021"  >
<polygon points="477,85 482,80 500,80 500,90 482,90 477,85 " style="fill:white; stroke-width:1; stroke:black; " description="&lt;b&gt;PhaeoP88_RS02645&lt;/b&gt;&lt;br&gt;membrane protein&lt;br&gt;Location: 574661 - 576124" locus_tag="PhaeoP88_RS02645" class="clusterblast-orf" id="dummy-1_h1_8_21"  />
</g>
<g id="a1_0022"  >
<polygon points="502,90 509,90 514,85 509,80 502,80 502,90 " style="fill:white; stroke-width:1; stroke:black; " description="&lt;b&gt;PhaeoP88_RS02650&lt;/b&gt;&lt;br&gt;WecB/TagA/CpsF family glycosyltransferase&lt;br&gt;Location: 576286 - 577038" locus_tag="PhaeoP88_RS02650" class="clusterblast-orf" id="dummy-1_h1_8_22"  />
</g>
<g id="a1_0023"  >
<polygon points="514,85 519,80 529,80 529,90 519,90 514,85 " style="fill:white; stroke-width:1; stroke:black; " description="&lt;b&gt;PhaeoP88_RS02655&lt;/b&gt;&lt;br&gt;glycosyltransferase family 2 protein&lt;br&gt;Location: 577058 - 578041" locus_tag="PhaeoP88_RS02655" class="clusterblast-orf" id="dummy-1_h1_8_23"  />
</g>
<g id="a1_0024"  >
<polygon points="529,85 534,80 546,80 546,90 534,90 529,85 " style="fill:white; stroke-width:1; stroke:black; " description="&lt;b&gt;PhaeoP88_RS02660&lt;/b&gt;&lt;br&gt;glycosyltransferase family 2 protein&lt;br&gt;Location: 578041 - 579150" locus_tag="PhaeoP88_RS02660" class="clusterblast-orf" id="dummy-1_h1_8_24"  />
</g>
<g id="a1_0025"  >
<polygon points="549,90 559,90 564,85 559,80 549,80 549,90 " style="fill:white; stroke-width:1; stroke:black; " description="&lt;b&gt;PhaeoP88_RS02665&lt;/b&gt;&lt;br&gt;glucokinase&lt;br&gt;Location: 579323 - 580273" locus_tag="PhaeoP88_RS02665" class="clusterblast-orf" id="dummy-1_h1_8_25"  />
</g>
<g id="a1_0026"  >
<polygon points="564,85 569,80 620,80 620,90 569,90 564,85 " style="fill:white; stroke-width:1; stroke:black; " description="&lt;b&gt;PhaeoP88_RS02670&lt;/b&gt;&lt;br&gt;translocation/assembly module TamB&lt;br&gt;Location: 580300 - 583965" locus_tag="PhaeoP88_RS02670" class="clusterblast-orf" id="dummy-1_h1_8_26"  />
</g>
<g id="a1_0027"  >
<polygon points="620,85 625,80 650,80 650,90 625,90 620,85 " style="fill:white; stroke-width:1; stroke:black; " description="&lt;b&gt;PhaeoP88_RS02675&lt;/b&gt;&lt;br&gt;BamA/TamA family outer membrane protein&lt;br&gt;Location: 583962 - 585905" locus_tag="PhaeoP88_RS02675" class="clusterblast-orf" id="dummy-1_h1_8_27"  />
</g>
<g id="a1_0028"  >
<polygon points="653,85 658,80 672,80 672,90 658,90 653,85 " style="fill:white; stroke-width:1; stroke:black; " description="&lt;b&gt;PhaeoP88_RS02680&lt;/b&gt;&lt;br&gt;urate hydroxylase PuuD&lt;br&gt;Location: 586053 - 587285" locus_tag="PhaeoP88_RS02680" class="clusterblast-orf" id="dummy-1_h1_8_28"  />
</g>
<g id="a1_0029"  >
<polygon points="675,90 685,90 690,85 685,80 675,80 675,90 " style="fill:white; stroke-width:1; stroke:black; " description="&lt;b&gt;PhaeoP88_RS02685&lt;/b&gt;&lt;br&gt;LysR family transcriptional regulator&lt;br&gt;Location: 587483 - 588457" locus_tag="PhaeoP88_RS02685" class="clusterblast-orf" id="dummy-1_h1_8_29"  />
</g>
<g id="a1_0030"  >
<polygon points="691,85 696,80 697,80 697,90 696,90 691,85 " style="fill:white; stroke-width:1; stroke:black; " description="&lt;b&gt;PhaeoP88_RS02690&lt;/b&gt;&lt;br&gt;hydroxyisourate hydrolase&lt;br&gt;Location: 588542 - 588913" locus_tag="PhaeoP88_RS02690" class="clusterblast-orf" id="dummy-1_h1_8_30"  />
</g>
<g id="a1_0031"  >
<polygon points="699,90 716,90 721,85 716,80 699,80 699,90 " style="fill:white; stroke-width:1; stroke:black; " description="&lt;b&gt;PhaeoP88_RS02695&lt;/b&gt;&lt;br&gt;allantoinase PuuE&lt;br&gt;Location: 589068 - 590483" locus_tag="PhaeoP88_RS02695" class="clusterblast-orf" id="dummy-1_h1_8_31"  />
</g>
<g id="a1_0032"  >
<polygon points="722,90 724,90 729,85 724,80 722,80 722,90 " style="fill:white; stroke-width:1; stroke:black; " description="&lt;b&gt;PhaeoP88_RS02700&lt;/b&gt;&lt;br&gt;ureidoglycolate lyase&lt;br&gt;Location: 590527 - 591012" locus_tag="PhaeoP88_RS02700" class="clusterblast-orf" id="dummy-1_h1_8_32"  />
</g>
<g id="a1_0033"  >
<polygon points="731,90 748,90 753,85 748,80 731,80 731,90 " style="fill:white; stroke-width:1; stroke:black; " description="&lt;b&gt;PhaeoP88_RS02705&lt;/b&gt;&lt;br&gt;purine permease&lt;br&gt;Location: 591148 - 592575" locus_tag="PhaeoP88_RS02705" class="clusterblast-orf" id="dummy-1_h1_8_33"  />
</g>
<g id="a1_0034"  >
<polygon points="755,85 760,80 771,80 771,90 760,90 755,85 " style="fill:white; stroke-width:1; stroke:black; " description="&lt;b&gt;PhaeoP88_RS02710&lt;/b&gt;&lt;br&gt;glyceraldehyde-3-phosphate dehydrogenase&lt;br&gt;Location: 592681 - 593742" locus_tag="PhaeoP88_RS02710" class="clusterblast-orf" id="dummy-1_h1_8_34"  />
</g>
<g id="a1_0035"  >
<polygon points="772,85 777,80 780,80 780,90 777,90 772,85 " style="fill:white; stroke-width:1; stroke:black; " description="&lt;b&gt;PhaeoP88_RS02715&lt;/b&gt;&lt;br&gt;hypothetical protein&lt;br&gt;Location: 593791 - 594291" locus_tag="PhaeoP88_RS02715" class="clusterblast-orf" id="dummy-1_h1_8_35"  />
</g>
</svg>
