<svg xmlns="http://www.w3.org/2000/svg" xmlns:xlink="http://www.w3.org/1999/xlink" version="1.1" x="0" y="0" height="230" width="800" viewBox="0 0 800 230" preserveAspectRatio="none"  >
<g label="Query sequence" class="clusterblast-cluster"  >
<text x="5" y="20" class="clusterblast-acc"  >
Query sequence</text>
<line x1="10" y1="35" x2="778.0" y2="35" style="stroke-width:1; stroke:grey; "  />
<polygon points="142,35 147,30 162,30 162,40 147,40 142,35 " style="fill:white; stroke-width:1; stroke:black; " description="&lt;b&gt;JLFAFLNG_03297&lt;/b&gt;&lt;br&gt;hypothetical protein&lt;br&gt;Location: 137332 - 138628" locus_tag="JLFAFLNG_03297" class="clusterblast-orf" id="dummy-1_q0_0_all"  />
<polygon points="162,35 167,30 184,30 184,40 167,40 162,35 " style="fill:white; stroke-width:1; stroke:black; " description="&lt;b&gt;JLFAFLNG_03298&lt;/b&gt;&lt;br&gt;hypothetical protein&lt;br&gt;Location: 138660 - 140037" locus_tag="JLFAFLNG_03298" class="clusterblast-orf" id="dummy-1_q1_0_all"  />
<polygon points="185,35 190,30 248,30 248,40 190,40 185,35 " style="fill:white; stroke-width:1; stroke:black; " description="&lt;b&gt;JLFAFLNG_03299&lt;/b&gt;&lt;br&gt;Sensor histidine kinase RcsC&lt;br&gt;Location: 140099 - 144149" locus_tag="JLFAFLNG_03299" class="clusterblast-orf" id="dummy-1_q2_0_all"  />
<polygon points="250,35 255,30 271,30 271,40 255,40 250,35 " style="fill:#d81515; stroke-width:1; stroke:black; " description="&lt;b&gt;JLFAFLNG_03300&lt;/b&gt;&lt;br&gt;hypothetical protein&lt;br&gt;Location: 144248 - 145607" locus_tag="JLFAFLNG_03300" class="clusterblast-orf" id="dummy-1_q3_0_all"  />
<polygon points="274,40 282,40 287,35 282,30 274,30 274,40 " style="fill:white; stroke-width:1; stroke:black; " description="&lt;b&gt;JLFAFLNG_03301&lt;/b&gt;&lt;br&gt;5'-nucleotidase SurE&lt;br&gt;Location: 145814 - 146603" locus_tag="JLFAFLNG_03301" class="clusterblast-orf" id="dummy-1_q4_0_all"  />
<polygon points="287,40 293,40 298,35 293,30 287,30 287,40 " style="fill:white; stroke-width:1; stroke:black; " description="&lt;b&gt;JLFAFLNG_03302&lt;/b&gt;&lt;br&gt;Protein-L-isoaspartate O-methyltransferase&lt;br&gt;Location: 146599 - 147352" locus_tag="JLFAFLNG_03302" class="clusterblast-orf" id="dummy-1_q5_0_all"  />
<polygon points="300,40 313,40 318,35 313,30 300,30 300,40 " style="fill:white; stroke-width:1; stroke:black; " description="&lt;b&gt;JLFAFLNG_03303&lt;/b&gt;&lt;br&gt;hypothetical protein&lt;br&gt;Location: 147419 - 148619" locus_tag="JLFAFLNG_03303" class="clusterblast-orf" id="dummy-1_q6_0_all"  />
<polygon points="319,35 324,30 331,30 331,40 324,40 319,35 " style="fill:white; stroke-width:1; stroke:black; " description="&lt;b&gt;JLFAFLNG_03304&lt;/b&gt;&lt;br&gt;hypothetical protein&lt;br&gt;Location: 148692 - 149460" locus_tag="JLFAFLNG_03304" class="clusterblast-orf" id="dummy-1_q7_0_all"  />
<polygon points="333,40 347,40 352,35 347,30 333,30 333,40 " style="fill:#77d815; stroke-width:1; stroke:black; " description="&lt;b&gt;JLFAFLNG_03305&lt;/b&gt;&lt;br&gt;D-inositol-3-phosphate glycosyltransferase&lt;br&gt;Location: 149563 - 150772" locus_tag="JLFAFLNG_03305" class="clusterblast-orf" id="dummy-1_q8_0_all"  />
<polygon points="354,35 359,30 367,30 367,40 359,40 354,35 " style="fill:#15d8d8; stroke-width:1; stroke:black; " description="&lt;b&gt;JLFAFLNG_03306&lt;/b&gt;&lt;br&gt;hypothetical protein&lt;br&gt;Location: 150895 - 151723" locus_tag="JLFAFLNG_03306" class="clusterblast-orf" id="dummy-1_q9_0_all"  />
<polygon points="367,35 372,30 406,30 406,40 372,40 367,35 " style="fill:#7715d8; stroke-width:1; stroke:black; " description="&lt;b&gt;JLFAFLNG_03307&lt;/b&gt;&lt;br&gt;hypothetical protein&lt;br&gt;Location: 151722 - 154233" locus_tag="JLFAFLNG_03307" class="clusterblast-orf" id="dummy-1_q10_0_all"  />
<polygon points="406,35 411,30 421,30 421,40 411,40 406,35 " style="fill:#7715d8; stroke-width:1; stroke:black; " description="&lt;b&gt;JLFAFLNG_03308&lt;/b&gt;&lt;br&gt;hypothetical protein&lt;br&gt;Location: 154229 - 155150" locus_tag="JLFAFLNG_03308" class="clusterblast-orf" id="dummy-1_q11_0_all"  />
<polygon points="423,40 437,40 442,35 437,30 423,30 423,40 " style="fill:#77d815; stroke-width:1; stroke:black; " description="&lt;b&gt;JLFAFLNG_03309&lt;/b&gt;&lt;br&gt;hypothetical protein&lt;br&gt;Location: 155286 - 156534" locus_tag="JLFAFLNG_03309" class="clusterblast-orf" id="dummy-1_q12_0_all"  />
<polygon points="441,35 446,30 452,30 452,40 446,40 441,35 " style="fill:#d8a715; stroke-width:1; stroke:black; " description="&lt;b&gt;JLFAFLNG_03310&lt;/b&gt;&lt;br&gt;hypothetical protein&lt;br&gt;Location: 156490 - 157183" locus_tag="JLFAFLNG_03310" class="clusterblast-orf" id="dummy-1_q13_0_all"  />
<polygon points="452,35 457,30 523,30 523,40 457,40 452,35 " style="fill:#15d846; stroke-width:1; stroke:black; " description="&lt;b&gt;JLFAFLNG_03311&lt;/b&gt;&lt;br&gt;D-alanine--D-alanyl carrier protein ligase&lt;br&gt;Location: 157186 - 161680" locus_tag="JLFAFLNG_03311" class="clusterblast-orf" id="dummy-1_q14_0_all"  />
<polygon points="523,35 528,30 538,30 538,40 528,40 523,35 " style="fill:#1546d8; stroke-width:1; stroke:black; " description="&lt;b&gt;JLFAFLNG_03312&lt;/b&gt;&lt;br&gt;hypothetical protein&lt;br&gt;Location: 161676 - 162684" locus_tag="JLFAFLNG_03312" class="clusterblast-orf" id="dummy-1_q15_0_all"  />
<polygon points="538,35 543,30 638,30 638,40 543,40 538,35 " style="fill:#d815a7; stroke-width:1; stroke:black; " description="&lt;b&gt;JLFAFLNG_03313&lt;/b&gt;&lt;br&gt;hypothetical protein&lt;br&gt;Location: 162680 - 169025" locus_tag="JLFAFLNG_03313" class="clusterblast-orf" id="dummy-1_q16_0_all"  />
</g>
<g label="NZ_DS995281" description="NZ_DS995281 (598475-650509): Rhodobacterales bacterium Y4I scf 1106129324773,... (25% of genes show similarity), NRPS-like,T1PKS" class="clusterblast-cluster"  >
<text x="5" y="70" class="clusterblast-acc"  >
<a xlink:href="https://antismash-db.secondarymetabolites.org/area.html?record=NZ_DS995281&amp;start=598475&amp;end=650509" target="_blank">NZ_DS995281 (598475-650509)</a>: Rhodobacterales bacterium Y4I scf 1106129324773,... (25% of genes show similarity), NRPS-like,T1PKS</text>
<line x1="10" y1="85" x2="778.0" y2="85" style="stroke-width:1; stroke:grey; "  />
</g>
<g id="a1_000"  >
<polygon points="0,85 5,80 27,80 27,90 5,90 0,85 " style="fill:white; stroke-width:1; stroke:black; " description="&lt;b&gt;RBY4I_RS02785&lt;/b&gt;&lt;br&gt;carbohydrate ABC transporter substrate-binding protein&lt;br&gt;Location: 599490 - 601223" locus_tag="RBY4I_RS02785" class="clusterblast-orf" id="dummy-1_h1_4_0"  />
</g>
<g id="a1_001"  >
<polygon points="31,90 43,90 48,85 43,80 31,80 31,90 " style="fill:white; stroke-width:1; stroke:black; " description="&lt;b&gt;RBY4I_RS02790&lt;/b&gt;&lt;br&gt;RNA methyltransferase&lt;br&gt;Location: 601503 - 602621" locus_tag="RBY4I_RS02790" class="clusterblast-orf" id="dummy-1_h1_4_1"  />
</g>
<g id="a1_002"  >
<polygon points="50,85 52,80 52,90 50,85 " style="fill:white; stroke-width:1; stroke:black; " description="&lt;b&gt;RBY4I_RS21435&lt;/b&gt;&lt;br&gt;hypothetical protein&lt;br&gt;Location: 602689 - 602859" locus_tag="RBY4I_RS21435" class="clusterblast-orf" id="dummy-1_h1_4_2"  />
</g>
<g id="a1_003"  >
<polygon points="58,90 65,90 70,85 65,80 58,80 58,90 " style="fill:white; stroke-width:1; stroke:black; " description="&lt;b&gt;RBY4I_RS02795&lt;/b&gt;&lt;br&gt;TIGR03084 family protein&lt;br&gt;Location: 603219 - 604019" locus_tag="RBY4I_RS02795" class="clusterblast-orf" id="dummy-1_h1_4_3"  />
</g>
<g id="a1_004"  >
<polygon points="73,85 76,80 76,90 73,85 " style="fill:white; stroke-width:1; stroke:black; " description="&lt;b&gt;RBY4I_RS02800&lt;/b&gt;&lt;br&gt;hypothetical protein&lt;br&gt;Location: 604176 - 604361" locus_tag="RBY4I_RS02800" class="clusterblast-orf" id="dummy-1_h1_4_4"  />
</g>
<g id="a1_005"  >
<polygon points="81,85 86,80 95,80 95,90 86,90 81,85 " style="fill:white; stroke-width:1; stroke:black; " description="&lt;b&gt;RBY4I_RS02805&lt;/b&gt;&lt;br&gt;2-keto-3-deoxy-galactonokinase&lt;br&gt;Location: 604711 - 605562" locus_tag="RBY4I_RS02805" class="clusterblast-orf" id="dummy-1_h1_4_5"  />
</g>
<g id="a1_006"  >
<polygon points="100,90 111,90 116,85 111,80 100,80 100,90 " style="fill:white; stroke-width:1; stroke:black; " description="&lt;b&gt;RBY4I_RS02810&lt;/b&gt;&lt;br&gt;helix-turn-helix domain-containing protein&lt;br&gt;Location: 605892 - 606935" locus_tag="RBY4I_RS02810" class="clusterblast-orf" id="dummy-1_h1_4_6"  />
</g>
<g id="a1_007"  >
<polygon points="124,90 130,90 135,85 130,80 124,80 124,90 " style="fill:white; stroke-width:1; stroke:black; " description="&lt;b&gt;RBY4I_RS02815&lt;/b&gt;&lt;br&gt;sugar transferase&lt;br&gt;Location: 607441 - 608121" locus_tag="RBY4I_RS02815" class="clusterblast-orf" id="dummy-1_h1_4_7"  />
</g>
<g id="a1_008"  >
<polygon points="136,90 145,90 150,85 145,80 136,80 136,90 " style="fill:white; stroke-width:1; stroke:black; " description="&lt;b&gt;RBY4I_RS02820&lt;/b&gt;&lt;br&gt;CpsD/CapB family tyrosine-protein kinase&lt;br&gt;Location: 608212 - 609132" locus_tag="RBY4I_RS02820" class="clusterblast-orf" id="dummy-1_h1_4_8"  />
</g>
<g id="a1_009"  >
<polygon points="153,90 167,90 172,85 167,80 153,80 153,90 " style="fill:white; stroke-width:1; stroke:black; " description="&lt;b&gt;RBY4I_RS02825&lt;/b&gt;&lt;br&gt;chain-length determining protein&lt;br&gt;Location: 609285 - 610535" locus_tag="RBY4I_RS02825" class="clusterblast-orf" id="dummy-1_h1_4_9"  />
</g>
<g id="a1_0010"  >
<polygon points="174,85 179,80 195,80 195,90 179,90 174,85 " style="fill:#d81515; stroke-width:1; stroke:black; " description="&lt;b&gt;RBY4I_RS02830&lt;/b&gt;&lt;br&gt;oligosaccharide flippase family protein&lt;br&gt;Location: 610618 - 611988&lt;br&gt;&lt;br&gt;&lt;b&gt;BlastP hit with JLFAFLNG_03300&lt;/b&gt;&lt;br&gt;Percentage identity: 57&lt;br&gt;Percentage coverage: 95&lt;br&gt;BLAST bit score: 430&lt;br&gt;E-value: 1.77e-146" locus_tag="RBY4I_RS02830" class="clusterblast-orf" id="dummy-1_h1_4_10"  />
</g>
<g id="a1_0011"  >
<polygon points="199,90 213,90 218,85 213,80 199,80 199,90 " style="fill:#77d815; stroke-width:1; stroke:black; " description="&lt;b&gt;RBY4I_RS02835&lt;/b&gt;&lt;br&gt;glycosyltransferase&lt;br&gt;Location: 612228 - 613433&lt;br&gt;&lt;br&gt;&lt;b&gt;BlastP hit with JLFAFLNG_03305&lt;/b&gt;&lt;br&gt;Percentage identity: 66&lt;br&gt;Percentage coverage: 100&lt;br&gt;BLAST bit score: 478&lt;br&gt;E-value: 6.86e-167" locus_tag="RBY4I_RS02835" class="clusterblast-orf" id="dummy-1_h1_4_11"  />
</g>
<g id="a1_0012"  >
<polygon points="219,85 224,80 232,80 232,90 224,90 219,85 " style="fill:#15d8d8; stroke-width:1; stroke:black; " description="&lt;b&gt;RBY4I_RS02840&lt;/b&gt;&lt;br&gt;glycosyltransferase family 2 protein&lt;br&gt;Location: 613521 - 614357&lt;br&gt;&lt;br&gt;&lt;b&gt;BlastP hit with JLFAFLNG_03306&lt;/b&gt;&lt;br&gt;Percentage identity: 57&lt;br&gt;Percentage coverage: 101&lt;br&gt;BLAST bit score: 289&lt;br&gt;E-value: 2.92e-96" locus_tag="RBY4I_RS02840" class="clusterblast-orf" id="dummy-1_h1_4_12"  />
</g>
<g id="a1_0013"  >
<polygon points="232,85 237,80 271,80 271,90 237,90 232,85 " style="fill:#7715d8; stroke-width:1; stroke:black; " description="&lt;b&gt;RBY4I_RS02845&lt;/b&gt;&lt;br&gt;hypothetical protein&lt;br&gt;Location: 614354 - 616858&lt;br&gt;&lt;br&gt;&lt;b&gt;BlastP hit with JLFAFLNG_03307&lt;/b&gt;&lt;br&gt;Percentage identity: 48&lt;br&gt;Percentage coverage: 101&lt;br&gt;BLAST bit score: 757&lt;br&gt;E-value: 3.06e-263" locus_tag="RBY4I_RS02845" class="clusterblast-orf" id="dummy-1_h1_4_13"  />
</g>
<g id="a1_0014"  >
<polygon points="271,85 276,80 286,80 286,90 276,90 271,85 " style="fill:#7715d8; stroke-width:1; stroke:black; " description="&lt;b&gt;RBY4I_RS02850&lt;/b&gt;&lt;br&gt;hypothetical protein&lt;br&gt;Location: 616855 - 617790&lt;br&gt;&lt;br&gt;&lt;b&gt;BlastP hit with JLFAFLNG_03308&lt;/b&gt;&lt;br&gt;Percentage identity: 58&lt;br&gt;Percentage coverage: 90&lt;br&gt;BLAST bit score: 315&lt;br&gt;E-value: 9.46e-106" locus_tag="RBY4I_RS02850" class="clusterblast-orf" id="dummy-1_h1_4_14"  />
</g>
<g id="a1_0015"  >
<polygon points="286,85 291,80 297,80 297,90 291,90 286,85 " style="fill:#d8a715; stroke-width:1; stroke:black; " description="&lt;b&gt;RBY4I_RS02855&lt;/b&gt;&lt;br&gt;4'-phosphopantetheinyl transferase superfamily protein&lt;br&gt;Location: 617790 - 618479&lt;br&gt;&lt;br&gt;&lt;b&gt;BlastP hit with JLFAFLNG_03310&lt;/b&gt;&lt;br&gt;Percentage identity: 44&lt;br&gt;Percentage coverage: 83&lt;br&gt;BLAST bit score: 154&lt;br&gt;E-value: 7.09e-45" locus_tag="RBY4I_RS02855" class="clusterblast-orf" id="dummy-1_h1_4_15"  />
</g>
<g id="a1_0016"  >
<polygon points="297,85 302,80 368,80 368,90 302,90 297,85 " style="fill:#15d846; stroke-width:1; stroke:black; " description="&lt;b&gt;RBY4I_RS02860&lt;/b&gt;&lt;br&gt;LLM class flavin-dependent oxidoreductase&lt;br&gt;Location: 618476 - 623041&lt;br&gt;&lt;br&gt;&lt;b&gt;BlastP hit with JLFAFLNG_03311&lt;/b&gt;&lt;br&gt;Percentage identity: 58&lt;br&gt;Percentage coverage: 102&lt;br&gt;BLAST bit score: 1639&lt;br&gt;E-value: 0.0" locus_tag="RBY4I_RS02860" class="clusterblast-orf" id="dummy-1_h1_4_16"  />
</g>
<g id="a1_0017"  >
<polygon points="368,85 373,80 384,80 384,90 373,90 368,85 " style="fill:#1546d8; stroke-width:1; stroke:black; " description="&lt;b&gt;RBY4I_RS02865&lt;/b&gt;&lt;br&gt;glycosyltransferase family 2 protein&lt;br&gt;Location: 623038 - 624054&lt;br&gt;&lt;br&gt;&lt;b&gt;BlastP hit with JLFAFLNG_03312&lt;/b&gt;&lt;br&gt;Percentage identity: 56&lt;br&gt;Percentage coverage: 97&lt;br&gt;BLAST bit score: 356&lt;br&gt;E-value: 5.79e-121" locus_tag="RBY4I_RS02865" class="clusterblast-orf" id="dummy-1_h1_4_17"  />
</g>
<g id="a1_0018"  >
<polygon points="384,85 389,80 485,80 485,90 389,90 384,85 " style="fill:#d815a7; stroke-width:1; stroke:black; " description="&lt;b&gt;RBY4I_RS02870&lt;/b&gt;&lt;br&gt;type I polyketide synthase&lt;br&gt;Location: 624060 - 630509&lt;br&gt;&lt;br&gt;&lt;b&gt;BlastP hit with JLFAFLNG_03313&lt;/b&gt;&lt;br&gt;Percentage identity: 59&lt;br&gt;Percentage coverage: 101&lt;br&gt;BLAST bit score: 2384&lt;br&gt;E-value: 0.0" locus_tag="RBY4I_RS02870" class="clusterblast-orf" id="dummy-1_h1_4_18"  />
</g>
<g id="a1_0019"  >
<polygon points="489,85 494,80 512,80 512,90 494,90 489,85 " style="fill:white; stroke-width:1; stroke:black; " description="&lt;b&gt;RBY4I_RS02875&lt;/b&gt;&lt;br&gt;membrane protein&lt;br&gt;Location: 630771 - 632234" locus_tag="RBY4I_RS02875" class="clusterblast-orf" id="dummy-1_h1_4_19"  />
</g>
<g id="a1_0020"  >
<polygon points="515,90 522,90 527,85 522,80 515,80 515,90 " style="fill:white; stroke-width:1; stroke:black; " description="&lt;b&gt;RBY4I_RS02880&lt;/b&gt;&lt;br&gt;WecB/TagA/CpsF family glycosyltransferase&lt;br&gt;Location: 632425 - 633177" locus_tag="RBY4I_RS02880" class="clusterblast-orf" id="dummy-1_h1_4_20"  />
</g>
<g id="a1_0021"  >
<polygon points="529,85 534,80 544,80 544,90 534,90 529,85 " style="fill:white; stroke-width:1; stroke:black; " description="&lt;b&gt;RBY4I_RS02885&lt;/b&gt;&lt;br&gt;glycosyltransferase family 2 protein&lt;br&gt;Location: 633315 - 634265" locus_tag="RBY4I_RS02885" class="clusterblast-orf" id="dummy-1_h1_4_21"  />
</g>
<g id="a1_0022"  >
<polygon points="544,85 549,80 559,80 559,90 549,90 544,85 " style="fill:white; stroke-width:1; stroke:black; " description="&lt;b&gt;RBY4I_RS02890&lt;/b&gt;&lt;br&gt;glycosyltransferase family 2 protein&lt;br&gt;Location: 634262 - 635266" locus_tag="RBY4I_RS02890" class="clusterblast-orf" id="dummy-1_h1_4_22"  />
</g>
<g id="a1_0023"  >
<polygon points="563,85 568,80 619,80 619,90 568,90 563,85 " style="fill:white; stroke-width:1; stroke:black; " description="&lt;b&gt;RBY4I_RS02895&lt;/b&gt;&lt;br&gt;translocation/assembly module TamB&lt;br&gt;Location: 635486 - 639085" locus_tag="RBY4I_RS02895" class="clusterblast-orf" id="dummy-1_h1_4_23"  />
</g>
<g id="a1_0024"  >
<polygon points="620,85 625,80 648,80 648,90 625,90 620,85 " style="fill:white; stroke-width:1; stroke:black; " description="&lt;b&gt;RBY4I_RS02900&lt;/b&gt;&lt;br&gt;BamA/TamA family outer membrane protein&lt;br&gt;Location: 639112 - 640914" locus_tag="RBY4I_RS02900" class="clusterblast-orf" id="dummy-1_h1_4_24"  />
</g>
<g id="a1_0025"  >
<polygon points="657,90 661,85 657,80 657,90 " style="fill:white; stroke-width:1; stroke:black; " description="&lt;b&gt;RBY4I_RS02905&lt;/b&gt;&lt;br&gt;hypothetical protein&lt;br&gt;Location: 641501 - 641767" locus_tag="RBY4I_RS02905" class="clusterblast-orf" id="dummy-1_h1_4_25"  />
</g>
<g id="a1_0026"  >
<polygon points="662,90 667,90 672,85 667,80 662,80 662,90 " style="fill:white; stroke-width:1; stroke:black; " description="&lt;b&gt;RBY4I_RS02910&lt;/b&gt;&lt;br&gt;hypothetical protein&lt;br&gt;Location: 641832 - 642440" locus_tag="RBY4I_RS02910" class="clusterblast-orf" id="dummy-1_h1_4_26"  />
</g>
<g id="a1_0027"  >
<polygon points="672,85 677,80 688,80 688,90 677,90 672,85 " style="fill:white; stroke-width:1; stroke:black; " description="&lt;b&gt;RBY4I_RS02915&lt;/b&gt;&lt;br&gt;glyceraldehyde-3-phosphate dehydrogenase&lt;br&gt;Location: 642469 - 643488" locus_tag="RBY4I_RS02915" class="clusterblast-orf" id="dummy-1_h1_4_27"  />
</g>
<g id="a1_0028"  >
<polygon points="689,85 694,80 694,80 694,90 694,90 689,85 " style="fill:white; stroke-width:1; stroke:black; " description="&lt;b&gt;RBY4I_RS02920&lt;/b&gt;&lt;br&gt;hypothetical protein&lt;br&gt;Location: 643574 - 643888" locus_tag="RBY4I_RS02920" class="clusterblast-orf" id="dummy-1_h1_4_28"  />
</g>
<g id="a1_0029"  >
<polygon points="695,85 700,80 707,80 707,90 700,90 695,85 " style="fill:white; stroke-width:1; stroke:black; " description="&lt;b&gt;RBY4I_RS02925&lt;/b&gt;&lt;br&gt;helix-turn-helix domain-containing protein&lt;br&gt;Location: 643956 - 644732" locus_tag="RBY4I_RS02925" class="clusterblast-orf" id="dummy-1_h1_4_29"  />
</g>
<g id="a1_0030"  >
<polygon points="711,90 729,90 734,85 729,80 711,80 711,90 " style="fill:white; stroke-width:1; stroke:black; " description="&lt;b&gt;RBY4I_RS02930&lt;/b&gt;&lt;br&gt;glutamine synthetase&lt;br&gt;Location: 644948 - 646396" locus_tag="RBY4I_RS02930" class="clusterblast-orf" id="dummy-1_h1_4_30"  />
</g>
<g id="a1_0031"  >
<polygon points="737,90 737,90 742,85 737,80 737,80 737,90 " style="fill:white; stroke-width:1; stroke:black; " description="&lt;b&gt;RBY4I_RS02935&lt;/b&gt;&lt;br&gt;glycine cleavage system protein GcvH&lt;br&gt;Location: 646596 - 646955" locus_tag="RBY4I_RS02935" class="clusterblast-orf" id="dummy-1_h1_4_31"  />
</g>
<g id="a1_0032"  >
<polygon points="744,90 748,85 744,80 744,90 " style="fill:white; stroke-width:1; stroke:black; " description="&lt;b&gt;RBY4I_RS02940&lt;/b&gt;&lt;br&gt;flavodoxin family protein&lt;br&gt;Location: 647094 - 647309" locus_tag="RBY4I_RS02940" class="clusterblast-orf" id="dummy-1_h1_4_32"  />
</g>
<g id="a1_0033"  >
<polygon points="752,85 757,80 764,80 764,90 757,90 752,85 " style="fill:white; stroke-width:1; stroke:black; " description="&lt;b&gt;RBY4I_RS02945&lt;/b&gt;&lt;br&gt;NYN domain-containing protein&lt;br&gt;Location: 647586 - 648323" locus_tag="RBY4I_RS02945" class="clusterblast-orf" id="dummy-1_h1_4_33"  />
</g>
<g id="a1_0034"  >
<polygon points="767,85 772,80 780,80 780,90 772,90 767,85 " style="fill:white; stroke-width:1; stroke:black; " description="&lt;b&gt;RBY4I_RS02950&lt;/b&gt;&lt;br&gt;tRNA pseudouridine(38-40) synthase TruA&lt;br&gt;Location: 648568 - 649335" locus_tag="RBY4I_RS02950" class="clusterblast-orf" id="dummy-1_h1_4_34"  />
</g>
</svg>
