<svg version="1.1" baseProfile="full" xmlns="http://www.w3.org/2000/svg" width="721.5666666666667" height="80">
	<g>
		<line x1="10" y1="40.0" x2="711.5666666666667" y2="40.0" style="stroke:rgb(70,70,70); stroke-width:3 "/>
		<g>
			<title> (ctg40_8)</title>
			<polygon class=" (ctg40_8)" points="19,40 47,10 47,70" fill="rgb(255,255,255)" fill-opacity="1.0" stroke="rgb(0,0,0)" stroke-width="2"  />
		</g>
		<g>
			<title> (ctg40_9)</title>
			<polygon class=" (ctg40_9)" points="53,10 81,40 53,70" fill="rgb(255,255,255)" fill-opacity="1.0" stroke="rgb(0,0,0)" stroke-width="2"  />
			<g>
				<title>YmdB (PF13277)
"YmdB-like protein"</title>
				<polygon class="PF13277" points="53,28 65,28 77,40 65,52 53,52" stroke-linejoin="round" width="25" height="24" fill="rgb(95,186,86)" stroke="rgb(76,148,68)" stroke-width="1" opacity="0.75" />
			</g>
		</g>
		<g>
			<title> (ctg40_10)</title>
			<polygon class=" (ctg40_10)" points="85,10 110,40 85,70" fill="rgb(255,255,255)" fill-opacity="1.0" stroke="rgb(0,0,0)" stroke-width="2"  />
			<g>
				<title>Peptidase_C26 (PF07722)
"Peptidase C26"</title>
				<polygon class="PF07722" points="85,28 96,28 106,40 106,40 96,52 85,52" stroke-linejoin="round" width="21" height="24" fill="rgb(203,162,57)" stroke="rgb(162,129,45)" stroke-width="1" opacity="0.75" />
			</g>
		</g>
		<g>
			<title> (ctg40_11)</title>
			<polygon class=" (ctg40_11)" points="110,10 123,40 110,70" fill="rgb(255,255,255)" fill-opacity="1.0" stroke="rgb(0,0,0)" stroke-width="2"  />
			<g>
				<title>Cytochrom_C (PF00034)
"Cytochrome c"</title>
				<polygon class="PF00034" points="114,28 114,28 120,40 114,52 114,52" stroke-linejoin="round" width="8" height="24" fill="rgb(130,184,61)" stroke="rgb(104,147,48)" stroke-width="1" opacity="0.75" />
			</g>
		</g>
		<g>
			<title> (ctg40_12)</title>
			<polygon class=" (ctg40_12)" points="124,40 138,10 138,70" fill="rgb(255,255,255)" fill-opacity="1.0" stroke="rgb(0,0,0)" stroke-width="2"  />
		</g>
		<g>
			<title> (ctg40_13)</title>
			<polygon class=" (ctg40_13)" points="142,40 171,10 171,70" fill="rgb(255,255,255)" fill-opacity="1.0" stroke="rgb(0,0,0)" stroke-width="2"  />
			<g>
				<title>Abhydrolase_1 (PF00561)
"alpha/beta hydrolase fold"</title>
				<polygon class="PF00561" points="146,40 158,28 167,28 167,52 158,52" stroke-linejoin="round" width="23" height="24" fill="rgb(86,180,151)" stroke="rgb(68,144,120)" stroke-width="1" opacity="0.75" />
			</g>
		</g>
		<g>
			<title> (ctg40_14)</title>
			<polygon class=" (ctg40_14)" points="228,25 201,25 201,10 171,40 201,70 201,55 228,55" fill="rgb(255,255,255)" fill-opacity="1.0" stroke="rgb(0,0,0)" stroke-width="2"  />
			<g>
				<title>VWA_2 (PF13519)
"von Willebrand factor type A domain"</title>
				<polygon class="PF13519" points="179,36 187,28 189,28 189,52 187,52 179,44" stroke-linejoin="round" width="10" height="24" fill="rgb(58,213,93)" stroke="rgb(46,170,74)" stroke-width="1" opacity="0.75" />
			</g>
			<g>
				<title>AAA_lid_2 (PF17863)
"AAA lid domain"</title>
				<rect class="PF17863" x="201" y="28" stroke-linejoin="round" width="7" height="24" fill="rgb(58,87,190)" stroke="rgb(46,69,152)" stroke-width="1" opacity="0.75" />
			</g>
		</g>
		<g>
			<title> (ctg40_15)</title>
			<polygon class=" (ctg40_15)" points="263,25 260,25 260,10 230,40 260,70 260,55 263,55" fill="rgb(255,255,255)" fill-opacity="1.0" stroke="rgb(0,0,0)" stroke-width="2"  />
			<g>
				<title>AAA_lid_2 (PF17863)
"AAA lid domain"</title>
				<polygon class="PF17863" points="234,40 237,37 237,43" stroke-linejoin="round" width="7" height="24" fill="rgb(58,87,190)" stroke="rgb(46,69,152)" stroke-width="1" opacity="0.75" />
			</g>
			<g>
				<title>Mg_chelatase (PF01078)
"Magnesium chelatase, subunit ChlI"</title>
				<polygon class="PF01078" points="244,30 246,28 252,28 252,52 246,52 244,50" stroke-linejoin="round" width="8" height="24" fill="rgb(199,220,103)" stroke="rgb(159,176,82)" stroke-width="1" opacity="0.75" />
			</g>
		</g>
		<g>
			<title> (ctg40_16)</title>
			<polygon class=" (ctg40_16)" points="264,40 287,10 287,70" fill="rgb(255,255,255)" fill-opacity="1.0" stroke="rgb(0,0,0)" stroke-width="2"  />
		</g>
		<g>
			<title> (ctg40_17)</title>
			<polygon class=" (ctg40_17)" points="292,25 313,25 313,10 343,40 313,70 313,55 292,55" fill="rgb(255,255,255)" fill-opacity="1.0" stroke="rgb(0,0,0)" stroke-width="2"  />
			<g>
				<title>Amino_oxidase (PF01593)
"Flavin containing amine oxidoreductase"</title>
				<polygon class="PF01593" points="293,28 327,28 339,40 327,52 293,52" stroke-linejoin="round" width="47" height="24" fill="rgb(184,74,52)" stroke="rgb(147,59,41)" stroke-width="1" opacity="0.75" />
			</g>
		</g>
		<g>
			<title> (ctg40_18)</title>
			<polygon class=" (ctg40_18)" points="343,25 347,25 347,10 377,40 347,70 347,55 343,55" fill="rgb(255,255,255)" fill-opacity="1.0" stroke="rgb(0,0,0)" stroke-width="2"  />
			<g>
				<title>SQS_PSY (PF00494)
"Squalene/phytoene synthase"</title>
				<polygon class="PF00494" points="344,28 361,28 369,36 369,44 361,52 344,52" stroke-linejoin="round" width="25" height="24" fill="rgb(178,91,49)" stroke="rgb(142,72,39)" stroke-width="1" opacity="0.75" />
			</g>
		</g>
		<g>
			<title> (ctg40_19)</title>
			<polygon class=" (ctg40_19)" points="382,10 397,40 382,70" fill="rgb(255,255,255)" fill-opacity="1.0" stroke="rgb(0,0,0)" stroke-width="2"  />
			<g>
				<title>TspO_MBR (PF03073)
"TspO/MBR family"</title>
				<polygon class="PF03073" points="382,28 387,28 393,40 387,52 382,52" stroke-linejoin="round" width="14" height="24" fill="rgb(191,88,103)" stroke="rgb(152,70,82)" stroke-width="1" opacity="0.75" />
			</g>
		</g>
		<g>
			<title> (ctg40_20)</title>
			<polygon class=" (ctg40_20)" points="397,40 416,10 416,70" fill="rgb(255,255,255)" fill-opacity="1.0" stroke="rgb(0,0,0)" stroke-width="2"  />
			<g>
				<title>NUDIX (PF00293)
"NUDIX domain"</title>
				<polygon class="PF00293" points="401,40 409,28 413,28 413,52 409,52" stroke-linejoin="round" width="13" height="24" fill="rgb(92,56,187)" stroke="rgb(73,44,149)" stroke-width="1" opacity="0.75" />
			</g>
		</g>
		<g>
			<title> (ctg40_21)</title>
			<polygon class=" (ctg40_21)" points="455,25 446,25 446,10 416,40 446,70 446,55 455,55" fill="rgb(255,255,255)" fill-opacity="1.0" stroke="rgb(0,0,0)" stroke-width="2"  />
			<g>
				<title>Pyr_redox_2 (PF07992)
"Pyridine nucleotide-disulphide oxidoreductase"</title>
				<rect class="PF07992" x="437" y="28" stroke-linejoin="round" width="17" height="24" fill="rgb(83,223,167)" stroke="rgb(66,178,133)" stroke-width="1" opacity="0.75" />
			</g>
		</g>
		<g>
			<title> (ctg40_22)</title>
			<polygon class=" (ctg40_22)" points="498,25 486,25 486,10 456,40 486,70 486,55 498,55" fill="rgb(255,255,255)" fill-opacity="1.0" stroke="rgb(0,0,0)" stroke-width="2"  />
			<g>
				<title>PUCC (PF03209)
"PUCC protein"</title>
				<polygon class="PF03209" points="460,40 472,28 494,28 494,52 472,52" stroke-linejoin="round" width="38" height="24" fill="rgb(153,224,80)" stroke="rgb(122,179,64)" stroke-width="1" opacity="0.75" />
			</g>
		</g>
		<g>
			<title> (ctg40_23)</title>
			<polygon class=" (ctg40_23)" points="498,40 526,10 526,70" fill="rgb(255,255,255)" fill-opacity="1.0" stroke="rgb(0,0,0)" stroke-width="2"  />
			<g>
				<title>UbiA (PF01040)
"UbiA prenyltransferase family"</title>
				<polygon class="PF01040" points="502,40 513,28 524,28 524,52 513,52" stroke-linejoin="round" width="26" height="24" fill="rgb(189,57,100)" stroke="rgb(151,45,80)" stroke-width="1" opacity="0.75" />
			</g>
		</g>
		<g>
			<title> (ctg40_24)</title>
			<polygon class=" (ctg40_24)" points="531,40 550,10 550,70" fill="rgb(255,255,255)" fill-opacity="1.0" stroke="rgb(0,0,0)" stroke-width="2"  />
			<g>
				<title>V4R (PF02830)
"V4R domain"</title>
				<polygon class="PF02830" points="535,40 536,38 536,42" stroke-linejoin="round" width="5" height="24" fill="rgb(99,206,89)" stroke="rgb(79,164,71)" stroke-width="1" opacity="0.75" />
			</g>
		</g>
		<g>
			<title> (ctg40_25)</title>
			<polygon class=" (ctg40_25)" points="607,25 581,25 581,10 551,40 581,70 581,55 607,55" fill="rgb(255,255,255)" fill-opacity="1.0" stroke="rgb(0,0,0)" stroke-width="2"  />
			<g>
				<title>Radical_SAM (PF04055)
"Radical SAM superfamily"</title>
				<rect class="PF04055" x="571" y="28" stroke-linejoin="round" width="16" height="24" fill="rgb(149,56,222)" stroke="rgb(119,44,177)" stroke-width="1" opacity="0.75" />
			</g>
			<g>
				<title>B12-binding (PF02310)
"B12 binding domain"</title>
				<rect class="PF02310" x="594" y="28" stroke-linejoin="round" width="12" height="24" fill="rgb(145,190,60)" stroke="rgb(115,152,48)" stroke-width="1" opacity="0.75" />
			</g>
		</g>
		<g>
			<title> (ctg40_26)</title>
			<polygon class=" (ctg40_26)" points="657,25 640,25 640,10 610,40 640,70 640,55 657,55" fill="rgb(255,255,255)" fill-opacity="1.0" stroke="rgb(0,0,0)" stroke-width="2"  />
			<g>
				<title>HTH_8 (PF02954)
"Bacterial regulatory protein, Fis family"</title>
				<polygon class="PF02954" points="614,40 613,41 613,39" stroke-linejoin="round" width="3" height="24" fill="rgb(168,63,200)" stroke="rgb(134,50,160)" stroke-width="1" opacity="0.75" />
			</g>
			<g>
				<title>PAS_8 (PF13188)
"PAS domain"</title>
				<polygon class="PF13188" points="622,32 626,28 629,28 629,52 626,52 622,48" stroke-linejoin="round" width="7" height="24" fill="rgb(206,218,73)" stroke="rgb(164,174,58)" stroke-width="1" opacity="0.75" />
			</g>
			<g>
				<title>PAS_8 (PF13188)
"PAS domain"</title>
				<rect class="PF13188" x="634" y="28" stroke-linejoin="round" width="6" height="24" fill="rgb(206,218,73)" stroke="rgb(164,174,58)" stroke-width="1" opacity="0.75" />
			</g>
		</g>
		<g>
			<title> (ctg40_27)</title>
			<polygon class=" (ctg40_27)" points="660,40 686,10 686,70" fill="rgb(255,255,255)" fill-opacity="1.0" stroke="rgb(0,0,0)" stroke-width="2"  />
		</g>
	</g>
</svg>
