<svg version="1.1" baseProfile="full" xmlns="http://www.w3.org/2000/svg" width="616.4666666666667" height="80">
	<g>
		<line x1="10" y1="40.0" x2="606.4666666666667" y2="40.0" style="stroke:rgb(70,70,70); stroke-width:3 "/>
		<g>
			<title> (FCOJGGDE_02635)
IS21 family transposase ISMex27</title>
			<polygon class=" (FCOJGGDE_02635)
IS21 family transposase ISMex27" points="10,10 18,40 10,70" fill="rgb(255,255,255)" fill-opacity="1.0" stroke="rgb(0,0,0)" stroke-width="2"  />
			<g>
				<title>IstB_IS21 (PF01695)
"IstB-like ATP binding protein"</title>
				<polygon class="PF01695" points="10,28 11,28 14,40 11,52 10,52" stroke-linejoin="round" width="6" height="24" fill="rgb(205,68,192)" stroke="rgb(164,54,153)" stroke-width="1" opacity="0.75" />
			</g>
		</g>
		<g>
			<title> (FCOJGGDE_02636)
hypothetical protein</title>
			<polygon class=" (FCOJGGDE_02636)
hypothetical protein" points="19,10 44,40 19,70" fill="rgb(255,255,255)" fill-opacity="1.0" stroke="rgb(0,0,0)" stroke-width="2"  />
			<g>
				<title>DUF4145 (PF13643)
"Domain of unknown function (DUF4145)"</title>
				<polygon class="PF13643" points="32,30 40,40 40,40 32,50" stroke-linejoin="round" width="8" height="24" fill="rgb(216,136,54)" stroke="rgb(172,108,43)" stroke-width="1" opacity="0.75" />
			</g>
		</g>
		<g>
			<title>rplO (FCOJGGDE_02637)
50S ribosomal protein L15</title>
			<polygon class="rplO (FCOJGGDE_02637)
50S ribosomal protein L15" points="50,10 66,40 50,70" fill="rgb(255,255,255)" fill-opacity="1.0" stroke="rgb(0,0,0)" stroke-width="2"  />
			<g>
				<title>Ribosomal_L27A (PF00828)
"Ribosomal proteins 50S-L15, 50S-L18e, 60S-L27A"</title>
				<polygon class="PF00828" points="52,28 56,28 62,40 56,52 52,52" stroke-linejoin="round" width="12" height="24" fill="rgb(203,58,220)" stroke="rgb(162,46,176)" stroke-width="1" opacity="0.75" />
			</g>
		</g>
		<g>
			<title>secY (FCOJGGDE_02638)
Protein translocase subunit SecY</title>
			<polygon class="secY (FCOJGGDE_02638)
Protein translocase subunit SecY" points="69,25 84,25 84,10 114,40 84,70 84,55 69,55" fill="rgb(255,255,255)" fill-opacity="1.0" stroke="rgb(0,0,0)" stroke-width="2"  />
			<g>
				<title>SecY (PF00344)
"SecY"</title>
				<polygon class="PF00344" points="77,28 97,28 109,40 97,52 77,52" stroke-linejoin="round" width="33" height="24" fill="rgb(92,194,212)" stroke="rgb(73,155,169)" stroke-width="1" opacity="0.75" />
			</g>
		</g>
		<g>
			<title>adk_2 (FCOJGGDE_02639)
Adenylate kinase</title>
			<polygon class="adk_2 (FCOJGGDE_02639)
Adenylate kinase" points="115,10 136,40 115,70" fill="rgb(255,255,255)" fill-opacity="1.0" stroke="rgb(0,0,0)" stroke-width="2"  />
			<g>
				<title>ADK (PF00406)
"Adenylate kinase"</title>
				<polygon class="PF00406" points="115,28 124,28 133,40 133,40 124,52 115,52" stroke-linejoin="round" width="18" height="24" fill="rgb(200,63,145)" stroke="rgb(160,50,116)" stroke-width="1" opacity="0.75" />
			</g>
		</g>
		<g>
			<title>rpsM (FCOJGGDE_02640)
30S ribosomal protein S13</title>
			<polygon class="rpsM (FCOJGGDE_02640)
30S ribosomal protein S13" points="143,10 155,40 143,70" fill="rgb(255,255,255)" fill-opacity="1.0" stroke="rgb(0,0,0)" stroke-width="2"  />
			<g>
				<title>Ribosomal_S13 (PF00416)
"Ribosomal protein S13/S18"</title>
				<polygon class="PF00416" points="143,28 146,28 152,40 146,52 143,52" stroke-linejoin="round" width="10" height="24" fill="rgb(219,97,136)" stroke="rgb(175,77,108)" stroke-width="1" opacity="0.75" />
			</g>
		</g>
		<g>
			<title>rpsK (FCOJGGDE_02641)
30S ribosomal protein S11</title>
			<polygon class="rpsK (FCOJGGDE_02641)
30S ribosomal protein S11" points="156,10 169,40 156,70" fill="rgb(255,255,255)" fill-opacity="1.0" stroke="rgb(0,0,0)" stroke-width="2"  />
			<g>
				<title>Ribosomal_S11 (PF00411)
"Ribosomal protein S11"</title>
				<polygon class="PF00411" points="157,28 160,28 165,40 160,52 157,52" stroke-linejoin="round" width="10" height="24" fill="rgb(58,119,193)" stroke="rgb(46,95,154)" stroke-width="1" opacity="0.75" />
			</g>
		</g>
		<g>
			<title>rpoA (FCOJGGDE_02642)
DNA-directed RNA polymerase subunit alpha</title>
			<polygon class="rpoA (FCOJGGDE_02642)
DNA-directed RNA polymerase subunit alpha" points="173,25 176,25 176,10 206,40 176,70 176,55 173,55" fill="rgb(255,255,255)" fill-opacity="1.0" stroke="rgb(0,0,0)" stroke-width="2"  />
			<g>
				<title>RNA_pol_L (PF01193)
"RNA polymerase Rpb3/Rpb11 dimerisation domain"</title>
				<polygon class="PF01193" points="176,28 190,28 195,33 195,47 190,52 176,52" stroke-linejoin="round" width="19" height="24" fill="rgb(187,56,169)" stroke="rgb(149,44,135)" stroke-width="1" opacity="0.75" />
			</g>
			<g>
				<title>RNA_pol_A_CTD (PF03118)
"Bacterial RNA polymerase, alpha chain C terminal domain"</title>
				<polygon class="PF03118" points="197,35 202,40 197,45" stroke-linejoin="round" width="6" height="24" fill="rgb(87,91,186)" stroke="rgb(69,72,148)" stroke-width="1" opacity="0.75" />
			</g>
		</g>
		<g>
			<title>rplQ (FCOJGGDE_02643)
50S ribosomal protein L17</title>
			<polygon class="rplQ (FCOJGGDE_02643)
50S ribosomal protein L17" points="211,10 225,40 211,70" fill="rgb(255,255,255)" fill-opacity="1.0" stroke="rgb(0,0,0)" stroke-width="2"  />
			<g>
				<title>Ribosomal_L17 (PF01196)
"Ribosomal protein L17"</title>
				<polygon class="PF01196" points="213,28 215,28 221,40 215,52 213,52" stroke-linejoin="round" width="9" height="24" fill="rgb(93,225,129)" stroke="rgb(74,180,103)" stroke-width="1" opacity="0.75" />
			</g>
		</g>
		<g>
			<title> (FCOJGGDE_02644)
hypothetical protein</title>
			<polygon class=" (FCOJGGDE_02644)
hypothetical protein" points="231,10 251,40 231,70" fill="rgb(255,255,255)" fill-opacity="1.0" stroke="rgb(0,0,0)" stroke-width="2"  />
			<g>
				<title>Autoind_bind (PF03472)
"Autoinducer binding domain"</title>
				<polygon class="PF03472" points="232,28 239,28 244,35 244,45 239,52 232,52" stroke-linejoin="round" width="12" height="24" fill="rgb(99,181,52)" stroke="rgb(79,144,41)" stroke-width="1" opacity="0.75" />
			</g>
		</g>
		<g>
			<title> (FCOJGGDE_02645)
hypothetical protein</title>
			<polygon class=" (FCOJGGDE_02645)
hypothetical protein" points="253,10 272,40 253,70" fill="rgb(255,255,255)" fill-opacity="1.0" stroke="rgb(0,0,0)" stroke-width="2"  />
			<g>
				<title>Autoind_synth (PF00765)
"Autoinducer synthase"</title>
				<polygon class="PF00765" points="253,28 261,28 269,40 261,52 253,52" stroke-linejoin="round" width="17" height="24" fill="rgb(197,72,80)" stroke="rgb(157,57,64)" stroke-width="1" opacity="0.75" />
			</g>
		</g>
		<g>
			<title>degP_2 (FCOJGGDE_02646)
Periplasmic serine endoprotease DegP</title>
			<polygon class="degP_2 (FCOJGGDE_02646)
Periplasmic serine endoprotease DegP" points="275,25 290,25 290,10 320,40 290,70 290,55 275,55" fill="rgb(255,255,255)" fill-opacity="1.0" stroke="rgb(0,0,0)" stroke-width="2"  />
			<g>
				<title>Trypsin_2 (PF13365)
"Trypsin-like peptidase domain"</title>
				<rect class="PF13365" x="283" y="28" stroke-linejoin="round" width="13" height="24" fill="rgb(126,86,188)" stroke="rgb(100,68,150)" stroke-width="1" opacity="0.75" />
			</g>
			<g>
				<title>PDZ_2 (PF13180)
"PDZ domain"</title>
				<polygon class="PF13180" points="301,28 304,28 309,33 309,47 304,52 301,52" stroke-linejoin="round" width="8" height="24" fill="rgb(128,192,48)" stroke="rgb(102,153,38)" stroke-width="1" opacity="0.75" />
			</g>
		</g>
		<g>
			<title>rarA (FCOJGGDE_02647)
Replication-associated recombination protein A</title>
			<polygon class="rarA (FCOJGGDE_02647)
Replication-associated recombination protein A" points="322,25 335,25 335,10 365,40 335,70 335,55 322,55" fill="rgb(255,255,255)" fill-opacity="1.0" stroke="rgb(0,0,0)" stroke-width="2"  />
			<g>
				<title>AAA (PF00004)
"ATPase family associated with various cellular activities (AAA)"</title>
				<rect class="PF00004" x="327" y="28" stroke-linejoin="round" width="11" height="24" fill="rgb(57,194,204)" stroke="rgb(45,155,163)" stroke-width="1" opacity="0.75" />
			</g>
			<g>
				<title>AAA_assoc_2 (PF16193)
"AAA C-terminal domain"</title>
				<rect class="PF16193" x="340" y="28" stroke-linejoin="round" width="7" height="24" fill="rgb(186,178,53)" stroke="rgb(148,142,42)" stroke-width="1" opacity="0.75" />
			</g>
			<g>
				<title>MgsA_C (PF12002)
"MgsA AAA+ ATPase C terminal"</title>
				<polygon class="PF12002" points="348,28 349,28 361,40 349,52 348,52" stroke-linejoin="round" width="16" height="24" fill="rgb(224,154,71)" stroke="rgb(179,123,56)" stroke-width="1" opacity="0.75" />
			</g>
		</g>
		<g>
			<title>crcB (FCOJGGDE_02648)
Putative fluoride ion transporter CrcB</title>
			<polygon class="crcB (FCOJGGDE_02648)
Putative fluoride ion transporter CrcB" points="370,10 382,40 370,70" fill="rgb(255,255,255)" fill-opacity="1.0" stroke="rgb(0,0,0)" stroke-width="2"  />
			<g>
				<title>CRCB (PF02537)
"CrcB-like protein, Camphor Resistance (CrcB)"</title>
				<polygon class="PF02537" points="370,28 374,28 379,40 374,52 370,52" stroke-linejoin="round" width="11" height="24" fill="rgb(225,160,95)" stroke="rgb(180,128,76)" stroke-width="1" opacity="0.75" />
			</g>
		</g>
		<g>
			<title>rluC (FCOJGGDE_02649)
Ribosomal large subunit pseudouridine synthase C</title>
			<polygon class="rluC (FCOJGGDE_02649)
Ribosomal large subunit pseudouridine synthase C" points="383,25 387,25 387,10 417,40 387,70 387,55 383,55" fill="rgb(255,255,255)" fill-opacity="1.0" stroke="rgb(0,0,0)" stroke-width="2"  />
			<g>
				<title>S4 (PF01479)
"S4 domain"</title>
				<rect class="PF01479" x="384" y="28" stroke-linejoin="round" width="4" height="24" fill="rgb(93,184,76)" stroke="rgb(74,147,60)" stroke-width="1" opacity="0.75" />
			</g>
			<g>
				<title>PseudoU_synth_2 (PF00849)
"RNA pseudouridylate synthase"</title>
				<polygon class="PF00849" points="392,28 401,28 408,35 408,45 401,52 392,52" stroke-linejoin="round" width="16" height="24" fill="rgb(226,76,228)" stroke="rgb(180,60,182)" stroke-width="1" opacity="0.75" />
			</g>
		</g>
		<g>
			<title> (FCOJGGDE_02650)
hypothetical protein</title>
			<polygon class=" (FCOJGGDE_02650)
hypothetical protein" points="417,10 440,40 417,70" fill="rgb(255,255,255)" fill-opacity="1.0" stroke="rgb(0,0,0)" stroke-width="2"  />
			<g>
				<title>ATP12 (PF07542)
"ATP12 chaperone protein"</title>
				<polygon class="PF07542" points="417,28 427,28 428,29 428,51 427,52 417,52" stroke-linejoin="round" width="11" height="24" fill="rgb(52,143,178)" stroke="rgb(41,114,142)" stroke-width="1" opacity="0.75" />
			</g>
		</g>
		<g>
			<title>yhdW (FCOJGGDE_02651)
Putative amino-acid ABC transporter-binding protein YhdW</title>
			<polygon class="yhdW (FCOJGGDE_02651)
Putative amino-acid ABC transporter-binding protein YhdW" points="449,25 453,25 453,10 483,40 453,70 453,55 449,55" fill="rgb(255,255,255)" fill-opacity="1.0" stroke="rgb(0,0,0)" stroke-width="2"  />
			<g>
				<title>SBP_bac_3 (PF00497)
"Bacterial extracellular solute-binding proteins, family 3"</title>
				<polygon class="PF00497" points="452,28 466,28 474,36 474,44 466,52 452,52" stroke-linejoin="round" width="22" height="24" fill="rgb(186,76,141)" stroke="rgb(148,60,112)" stroke-width="1" opacity="0.75" />
			</g>
		</g>
		<g>
			<title> (FCOJGGDE_02652)
hypothetical protein</title>
			<polygon class=" (FCOJGGDE_02652)
hypothetical protein" points="488,25 499,25 499,10 529,40 499,70 499,55 488,55" fill="rgb(255,255,255)" fill-opacity="1.0" stroke="rgb(0,0,0)" stroke-width="2"  />
			<g>
				<title>BPD_transp_1 (PF00528)
"Binding-protein-dependent transport system inner membrane component"</title>
				<polygon class="PF00528" points="498,28 513,28 525,40 513,52 498,52" stroke-linejoin="round" width="30" height="24" fill="rgb(77,208,225)" stroke="rgb(61,166,180)" stroke-width="1" opacity="0.75" />
			</g>
		</g>
		<g>
			<title>yhdY (FCOJGGDE_02653)
Inner membrane amino-acid ABC transporter permease protein YhdY</title>
			<polygon class="yhdY (FCOJGGDE_02653)
Inner membrane amino-acid ABC transporter permease protein YhdY" points="529,25 545,25 545,10 575,40 545,70 545,55 529,55" fill="rgb(255,255,255)" fill-opacity="1.0" stroke="rgb(0,0,0)" stroke-width="2"  />
			<g>
				<title>BPD_transp_1 (PF00528)
"Binding-protein-dependent transport system inner membrane component"</title>
				<polygon class="PF00528" points="556,28 559,28 571,40 559,52 556,52" stroke-linejoin="round" width="18" height="24" fill="rgb(77,208,225)" stroke="rgb(61,166,180)" stroke-width="1" opacity="0.75" />
			</g>
		</g>
		<g>
			<title>glnQ_2 (FCOJGGDE_02654)
Glutamine transport ATP-binding protein GlnQ</title>
			<polygon class="glnQ_2 (FCOJGGDE_02654)
Glutamine transport ATP-binding protein GlnQ" points="577,10 603,40 577,70" fill="rgb(255,255,255)" fill-opacity="1.0" stroke="rgb(0,0,0)" stroke-width="2"  />
			<g>
				<title>ABC_tran (PF00005)
"ABC transporter"</title>
				<polygon class="PF00005" points="580,28 589,28 594,34 594,46 589,52 580,52" stroke-linejoin="round" width="14" height="24" fill="rgb(129,201,63)" stroke="rgb(103,160,50)" stroke-width="1" opacity="0.75" />
			</g>
		</g>
	</g>
</svg>
