<svg version="1.1" baseProfile="full" xmlns="http://www.w3.org/2000/svg" width="721.4666666666667" height="80">
	<g>
		<line x1="10" y1="40.0" x2="711.4666666666667" y2="40.0" style="stroke:rgb(70,70,70); stroke-width:3 "/>
		<g>
			<title> (ctg36_62)</title>
			<polygon class=" (ctg36_62)" points="45,10 54,40 45,70" fill="rgb(255,255,255)" fill-opacity="1.0" stroke="rgb(0,0,0)" stroke-width="2"  />
			<g>
				<title>DUF3572 (PF12096)
"Protein of unknown function (DUF3572)"</title>
				<polygon class="PF12096" points="45,28 47,28 51,40 47,52 45,52" stroke-linejoin="round" width="8" height="24" fill="rgb(144,195,94)" stroke="rgb(115,156,75)" stroke-width="1" opacity="0.75" />
			</g>
		</g>
		<g>
			<title> (ctg36_63)</title>
			<polygon class=" (ctg36_63)" points="58,25 90,25 90,10 120,40 90,70 90,55 58,55" fill="rgb(255,255,255)" fill-opacity="1.0" stroke="rgb(0,0,0)" stroke-width="2"  />
			<g>
				<title>tRNA_anti-codon (PF01336)
"OB-fold nucleic acid binding domain"</title>
				<rect class="PF01336" x="60" y="28" stroke-linejoin="round" width="8" height="24" fill="rgb(215,103,173)" stroke="rgb(172,82,138)" stroke-width="1" opacity="0.75" />
			</g>
			<g>
				<title>tRNA-synt_2 (PF00152)
"tRNA synthetases class II (D, K and N)"</title>
				<polygon class="PF00152" points="70,28 103,28 115,40 103,52 70,52" stroke-linejoin="round" width="46" height="24" fill="rgb(90,71,190)" stroke="rgb(72,56,152)" stroke-width="1" opacity="0.75" />
			</g>
		</g>
		<g>
			<title> (ctg36_64)</title>
			<polygon class=" (ctg36_64)" points="124,10 147,40 124,70" fill="rgb(255,255,255)" fill-opacity="1.0" stroke="rgb(0,0,0)" stroke-width="2"  />
			<g>
				<title>Acetyltransf_3 (PF13302)
"Acetyltransferase (GNAT) domain"</title>
				<polygon class="PF13302" points="126,28 134,28 139,34 139,46 134,52 126,52" stroke-linejoin="round" width="13" height="24" fill="rgb(105,146,215)" stroke="rgb(84,116,172)" stroke-width="1" opacity="0.75" />
			</g>
		</g>
		<g>
			<title> (ctg36_65)</title>
			<polygon class=" (ctg36_65)" points="151,40 177,10 177,70" fill="rgb(255,255,255)" fill-opacity="1.0" stroke="rgb(0,0,0)" stroke-width="2"  />
			<g>
				<title>DUF2189 (PF09955)
"Predicted integral membrane protein (DUF2189)"</title>
				<polygon class="PF09955" points="158,37 165,28 170,28 170,52 165,52 158,43" stroke-linejoin="round" width="12" height="24" fill="rgb(120,190,73)" stroke="rgb(96,152,58)" stroke-width="1" opacity="0.75" />
			</g>
		</g>
		<g>
			<title> (ctg36_66)</title>
			<polygon class=" (ctg36_66)" points="180,40 193,10 193,70" fill="rgb(255,255,255)" fill-opacity="1.0" stroke="rgb(0,0,0)" stroke-width="2"  />
			<g>
				<title>ZapA (PF05164)
"Cell division protein ZapA"</title>
				<polygon class="PF05164" points="184,38 188,28 192,28 192,52 188,52 184,42" stroke-linejoin="round" width="8" height="24" fill="rgb(55,140,178)" stroke="rgb(44,112,142)" stroke-width="1" opacity="0.75" />
			</g>
		</g>
		<g>
			<title> (ctg36_67)</title>
			<polygon class=" (ctg36_67)" points="193,40 210,10 210,70" fill="rgb(255,255,255)" fill-opacity="1.0" stroke="rgb(0,0,0)" stroke-width="2"  />
		</g>
		<g>
			<title> (ctg36_68)</title>
			<polygon class=" (ctg36_68)" points="217,25 254,25 254,10 284,40 254,70 254,55 217,55" fill="rgb(255,255,255)" fill-opacity="1.0" stroke="rgb(0,0,0)" stroke-width="2"  />
			<g>
				<title>Transketolase_N (PF00456)
"Transketolase, thiamine diphosphate binding domain"</title>
				<rect class="PF00456" x="218" y="28" stroke-linejoin="round" width="32" height="24" fill="rgb(74,202,214)" stroke="rgb(59,161,171)" stroke-width="1" opacity="0.75" />
			</g>
			<g>
				<title>Transket_pyr (PF02779)
"Transketolase, pyrimidine binding domain"</title>
				<polygon class="PF02779" points="252,28 268,28 269,29 269,51 268,52 252,52" stroke-linejoin="round" width="17" height="24" fill="rgb(189,186,84)" stroke="rgb(151,148,67)" stroke-width="1" opacity="0.75" />
			</g>
			<g>
				<title>Transketolase_C (PF02780)
"Transketolase, C-terminal domain"</title>
				<polygon class="PF02780" points="271,31 280,40 271,49" stroke-linejoin="round" width="12" height="24" fill="rgb(76,206,101)" stroke="rgb(60,164,80)" stroke-width="1" opacity="0.75" />
			</g>
		</g>
		<g>
			<title> (ctg36_69)</title>
			<polygon class=" (ctg36_69)" points="322,25 321,25 321,10 291,40 321,70 321,55 322,55" fill="rgb(255,255,255)" fill-opacity="1.0" stroke="rgb(0,0,0)" stroke-width="2"  />
			<g>
				<title>EamA (PF00892)
"EamA-like transporter family"</title>
				<polygon class="PF00892" points="295,40 306,29 306,51" stroke-linejoin="round" width="13" height="24" fill="rgb(105,217,77)" stroke="rgb(84,173,61)" stroke-width="1" opacity="0.75" />
			</g>
			<g>
				<title>EamA (PF00892)
"EamA-like transporter family"</title>
				<polygon class="PF00892" points="307,28 307,28 320,28 320,52 307,52 307,52" stroke-linejoin="round" width="13" height="24" fill="rgb(105,217,77)" stroke="rgb(84,173,61)" stroke-width="1" opacity="0.75" />
			</g>
		</g>
		<g>
			<title> (ctg36_70)</title>
			<polygon class=" (ctg36_70)" points="326,40 341,10 341,70" fill="rgb(255,255,255)" fill-opacity="1.0" stroke="rgb(0,0,0)" stroke-width="2"  />
			<g>
				<title>TspO_MBR (PF03073)
"TspO/MBR family"</title>
				<polygon class="PF03073" points="329,40 335,28 340,28 340,52 335,52" stroke-linejoin="round" width="14" height="24" fill="rgb(191,88,103)" stroke="rgb(152,70,82)" stroke-width="1" opacity="0.75" />
			</g>
		</g>
		<g>
			<title> (ctg36_71)</title>
			<polygon class=" (ctg36_71)" points="377,25 373,25 373,10 343,40 373,70 373,55 377,55" fill="rgb(255,255,255)" fill-opacity="1.0" stroke="rgb(0,0,0)" stroke-width="2"  />
			<g>
				<title>SQS_PSY (PF00494)
"Squalene/phytoene synthase"</title>
				<polygon class="PF00494" points="350,37 359,28 375,28 375,52 359,52 350,43" stroke-linejoin="round" width="25" height="24" fill="rgb(178,91,49)" stroke="rgb(142,72,39)" stroke-width="1" opacity="0.75" />
			</g>
		</g>
		<g>
			<title> (ctg36_72)</title>
			<polygon class=" (ctg36_72)" points="429,25 408,25 408,10 378,40 408,70 408,55 429,55" fill="rgb(255,255,255)" fill-opacity="1.0" stroke="rgb(0,0,0)" stroke-width="2"  />
			<g>
				<title>Amino_oxidase (PF01593)
"Flavin containing amine oxidoreductase"</title>
				<polygon class="PF01593" points="382,40 394,28 427,28 427,52 394,52" stroke-linejoin="round" width="48" height="24" fill="rgb(184,74,52)" stroke="rgb(147,59,41)" stroke-width="1" opacity="0.75" />
			</g>
		</g>
		<g>
			<title> (ctg36_73)</title>
			<polygon class=" (ctg36_73)" points="434,10 458,40 434,70" fill="rgb(255,255,255)" fill-opacity="1.0" stroke="rgb(0,0,0)" stroke-width="2"  />
		</g>
		<g>
			<title> (ctg36_74)</title>
			<polygon class=" (ctg36_74)" points="457,25 460,25 460,10 490,40 460,70 460,55 457,55" fill="rgb(255,255,255)" fill-opacity="1.0" stroke="rgb(0,0,0)" stroke-width="2"  />
			<g>
				<title>Mg_chelatase (PF01078)
"Magnesium chelatase, subunit ChlI"</title>
				<polygon class="PF01078" points="467,28 474,28 475,29 475,51 474,52 467,52" stroke-linejoin="round" width="8" height="24" fill="rgb(199,220,103)" stroke="rgb(159,176,82)" stroke-width="1" opacity="0.75" />
			</g>
			<g>
				<title>AAA_lid_2 (PF17863)
"AAA lid domain"</title>
				<polygon class="PF17863" points="482,36 486,40 482,44" stroke-linejoin="round" width="7" height="24" fill="rgb(58,87,190)" stroke="rgb(46,69,152)" stroke-width="1" opacity="0.75" />
			</g>
		</g>
		<g>
			<title> (ctg36_75)</title>
			<polygon class=" (ctg36_75)" points="495,25 522,25 522,10 552,40 522,70 522,55 495,55" fill="rgb(255,255,255)" fill-opacity="1.0" stroke="rgb(0,0,0)" stroke-width="2"  />
			<g>
				<title>AAA_lid_2 (PF17863)
"AAA lid domain"</title>
				<rect class="PF17863" x="514" y="28" stroke-linejoin="round" width="7" height="24" fill="rgb(58,87,190)" stroke="rgb(46,69,152)" stroke-width="1" opacity="0.75" />
			</g>
			<g>
				<title>VWA_2 (PF13519)
"von Willebrand factor type A domain"</title>
				<polygon class="PF13519" points="534,28 536,28 544,36 544,44 536,52 534,52" stroke-linejoin="round" width="10" height="24" fill="rgb(58,213,93)" stroke="rgb(46,170,74)" stroke-width="1" opacity="0.75" />
			</g>
		</g>
		<g>
			<title> (ctg36_76)</title>
			<polygon class=" (ctg36_76)" points="553,10 581,40 553,70" fill="rgb(255,255,255)" fill-opacity="1.0" stroke="rgb(0,0,0)" stroke-width="2"  />
			<g>
				<title>Abhydrolase_6 (PF12697)
"Alpha/beta hydrolase family"</title>
				<polygon class="PF12697" points="556,28 565,28 577,40 565,52 556,52" stroke-linejoin="round" width="23" height="24" fill="rgb(113,71,219)" stroke="rgb(90,56,175)" stroke-width="1" opacity="0.75" />
			</g>
		</g>
		<g>
			<title> (ctg36_77)</title>
			<polygon class=" (ctg36_77)" points="588,25 588,25 588,10 618,40 588,70 588,55 588,55" fill="rgb(255,255,255)" fill-opacity="1.0" stroke="rgb(0,0,0)" stroke-width="2"  />
			<g>
				<title>UbiA (PF01040)
"UbiA prenyltransferase family"</title>
				<polygon class="PF01040" points="590,28 602,28 614,40 602,52 590,52" stroke-linejoin="round" width="25" height="24" fill="rgb(189,57,100)" stroke="rgb(151,45,80)" stroke-width="1" opacity="0.75" />
			</g>
		</g>
		<g>
			<title> (ctg36_78)</title>
			<polygon class=" (ctg36_78)" points="619,25 631,25 631,10 661,40 631,70 631,55 619,55" fill="rgb(255,255,255)" fill-opacity="1.0" stroke="rgb(0,0,0)" stroke-width="2"  />
			<g>
				<title>PUCC (PF03209)
"PUCC protein"</title>
				<polygon class="PF03209" points="621,28 645,28 657,40 645,52 621,52" stroke-linejoin="round" width="38" height="24" fill="rgb(153,224,80)" stroke="rgb(122,179,64)" stroke-width="1" opacity="0.75" />
			</g>
		</g>
		<g>
			<title> (ctg36_79)</title>
			<polygon class=" (ctg36_79)" points="661,25 670,25 670,10 700,40 670,70 670,55 661,55" fill="rgb(255,255,255)" fill-opacity="1.0" stroke="rgb(0,0,0)" stroke-width="2"  />
			<g>
				<title>Lycopene_cycl (PF05834)
"Lycopene cyclase protein"</title>
				<polygon class="PF05834" points="661,28 684,28 696,40 684,52 661,52" stroke-linejoin="round" width="36" height="24" fill="rgb(212,80,200)" stroke="rgb(169,64,160)" stroke-width="1" opacity="0.75" />
			</g>
		</g>
	</g>
</svg>
