<svg xmlns="http://www.w3.org/2000/svg" xmlns:xlink="http://www.w3.org/1999/xlink" version="1.1" x="0" y="0" height="230" width="800" viewBox="0 0 800 230" preserveAspectRatio="none"  >
<g label="Query sequence" class="clusterblast-cluster"  >
<text x="5" y="20" class="clusterblast-acc"  >
Query sequence</text>
<line x1="10" y1="35" x2="778.0" y2="35" style="stroke-width:1; stroke:grey; "  />
<polygon points="145,35 150,30 181,30 181,40 150,40 145,35 " style="fill:#d81515; stroke-width:1; stroke:black; " description="&lt;b&gt;LGINICCL_00900&lt;/b&gt;&lt;br&gt;hypothetical protein&lt;br&gt;Location: 397 - 1171" locus_tag="LGINICCL_00900" class="clusterblast-orf" id="dummy-1_q0_0_all"  />
<polygon points="186,35 191,30 262,30 262,40 191,40 186,35 " style="fill:#4dd815; stroke-width:1; stroke:black; " description="&lt;b&gt;LGINICCL_00901&lt;/b&gt;&lt;br&gt;(R)-citramalate synthase&lt;br&gt;Location: 1269 - 2898" locus_tag="LGINICCL_00901" class="clusterblast-orf" id="dummy-1_q1_0_all"  />
<polygon points="261,35 266,30 339,30 339,40 266,40 261,35 " style="fill:#1585d8; stroke-width:1; stroke:black; " description="&lt;b&gt;LGINICCL_00902&lt;/b&gt;&lt;br&gt;L-cysteine:1D-myo-inositol 2-amino-2-deoxy-alpha-D-glucopyranoside ligase&lt;br&gt;Location: 2894 - 4550" locus_tag="LGINICCL_00902" class="clusterblast-orf" id="dummy-1_q2_0_all"  />
<polygon points="349,40 360,40 365,35 360,30 349,30 349,40 " style="fill:#d815bc; stroke-width:1; stroke:black; " description="&lt;b&gt;LGINICCL_00903&lt;/b&gt;&lt;br&gt;hypothetical protein&lt;br&gt;Location: 4767 - 5112" locus_tag="LGINICCL_00903" class="clusterblast-orf" id="dummy-1_q3_0_all"  />
<polygon points="365,35 370,30 382,30 382,40 370,40 365,35 " style="fill:#d8bc15; stroke-width:1; stroke:black; " description="&lt;b&gt;LGINICCL_00904&lt;/b&gt;&lt;br&gt;hypothetical protein&lt;br&gt;Location: 5116 - 5473" locus_tag="LGINICCL_00904" class="clusterblast-orf" id="dummy-1_q4_0_all"  />
<polygon points="387,35 392,30 448,30 448,40 392,40 387,35 " style="fill:#15d885; stroke-width:1; stroke:black; " description="&lt;b&gt;LGINICCL_00905&lt;/b&gt;&lt;br&gt;hypothetical protein&lt;br&gt;Location: 5582 - 6902" locus_tag="LGINICCL_00905" class="clusterblast-orf" id="dummy-1_q5_0_all"  />
<polygon points="459,40 476,40 481,35 476,30 459,30 459,40 " style="fill:#4d15d8; stroke-width:1; stroke:black; " description="&lt;b&gt;LGINICCL_00906&lt;/b&gt;&lt;br&gt;HTH-type transcriptional repressor NsrR&lt;br&gt;Location: 7138 - 7612" locus_tag="LGINICCL_00906" class="clusterblast-orf" id="dummy-1_q6_0_all"  />
<polygon points="481,35 486,30 601,30 601,40 486,40 481,35 " style="fill:white; stroke-width:1; stroke:black; " description="&lt;b&gt;LGINICCL_00907&lt;/b&gt;&lt;br&gt;Aminopeptidase N&lt;br&gt;Location: 7615 - 10183" locus_tag="LGINICCL_00907" class="clusterblast-orf" id="dummy-1_q7_0_all"  />
<polygon points="607,40 630,40 635,35 630,30 607,30 607,40 " style="fill:white; stroke-width:1; stroke:black; " description="&lt;b&gt;LGINICCL_00908&lt;/b&gt;&lt;br&gt;hypothetical protein&lt;br&gt;Location: 10318 - 10906" locus_tag="LGINICCL_00908" class="clusterblast-orf" id="dummy-1_q8_0_all"  />
</g>
<g label="NZ_JWLJ01000001" description="NZ_JWLJ01000001 (1120971-1141748): Ruegeria sp. ANG-R contig 1, whole genome ... (22% of genes show similarity), terpene" class="clusterblast-cluster"  >
<text x="5" y="70" class="clusterblast-acc"  >
<a xlink:href="https://antismash-db.secondarymetabolites.org/area.html?record=NZ_JWLJ01000001&amp;start=1120971&amp;end=1141748" target="_blank">NZ_JWLJ01000001 (1120971-1141748)</a>: Ruegeria sp. ANG-R contig 1, whole genome ... (22% of genes show similarity), terpene</text>
<line x1="10" y1="85" x2="778.0" y2="85" style="stroke-width:1; stroke:grey; "  />
</g>
<g id="a1_000"  >
<polygon points="0,90 43,90 48,85 43,80 0,80 0,90 " style="fill:white; stroke-width:1; stroke:black; " description="&lt;b&gt;RA27_RS05575&lt;/b&gt;&lt;br&gt;iron ABC transporter permease&lt;br&gt;Location: 1122624 - 1123658" locus_tag="RA27_RS05575" class="clusterblast-orf" id="dummy-1_h1_5_0"  />
</g>
<g id="a1_001"  >
<polygon points="108,90 130,90 135,85 130,80 108,80 108,90 " style="fill:white; stroke-width:1; stroke:black; " description="&lt;b&gt;RA27_RS05590&lt;/b&gt;&lt;br&gt;DedA family protein&lt;br&gt;Location: 1124960 - 1125538" locus_tag="RA27_RS05590" class="clusterblast-orf" id="dummy-1_h1_5_1"  />
</g>
<g id="a1_002"  >
<polygon points="135,90 152,90 157,85 152,80 135,80 135,90 " style="fill:white; stroke-width:1; stroke:black; " description="&lt;b&gt;RA27_RS05595&lt;/b&gt;&lt;br&gt;disulfide bond formation protein B&lt;br&gt;Location: 1125538 - 1125996" locus_tag="RA27_RS05595" class="clusterblast-orf" id="dummy-1_h1_5_2"  />
</g>
<g id="a1_003"  >
<polygon points="157,85 162,80 184,80 184,90 162,90 157,85 " style="fill:white; stroke-width:1; stroke:black; " description="&lt;b&gt;RA27_RS05600&lt;/b&gt;&lt;br&gt;HNH endonuclease&lt;br&gt;Location: 1126000 - 1126587" locus_tag="RA27_RS05600" class="clusterblast-orf" id="dummy-1_h1_5_3"  />
</g>
<g id="a1_004"  >
<polygon points="194,90 217,90 222,85 217,80 194,80 194,90 " style="fill:white; stroke-width:1; stroke:black; " description="&lt;b&gt;RA27_RS05605&lt;/b&gt;&lt;br&gt;pseudouridine synthase&lt;br&gt;Location: 1126801 - 1127406" locus_tag="RA27_RS05605" class="clusterblast-orf" id="dummy-1_h1_5_4"  />
</g>
<g id="a1_005"  >
<polygon points="224,90 239,90 244,85 239,80 224,80 224,90 " style="fill:white; stroke-width:1; stroke:black; " description="&lt;b&gt;RA27_RS05610&lt;/b&gt;&lt;br&gt;hypothetical protein&lt;br&gt;Location: 1127438 - 1127863" locus_tag="RA27_RS05610" class="clusterblast-orf" id="dummy-1_h1_5_5"  />
</g>
<g id="a1_006"  >
<polygon points="243,85 248,80 266,80 266,90 248,90 243,85 " style="fill:white; stroke-width:1; stroke:black; " description="&lt;b&gt;RA27_RS05615&lt;/b&gt;&lt;br&gt;GNAT family N-acetyltransferase&lt;br&gt;Location: 1127860 - 1128348" locus_tag="RA27_RS05615" class="clusterblast-orf" id="dummy-1_h1_5_6"  />
</g>
<g id="a1_007"  >
<polygon points="266,85 271,80 297,80 297,90 271,90 266,85 " style="fill:white; stroke-width:1; stroke:black; " description="&lt;b&gt;RA27_RS05620&lt;/b&gt;&lt;br&gt;alpha/beta fold hydrolase&lt;br&gt;Location: 1128350 - 1129015" locus_tag="RA27_RS05620" class="clusterblast-orf" id="dummy-1_h1_5_7"  />
</g>
<g id="a1_008"  >
<polygon points="297,85 302,80 327,80 327,90 302,90 297,85 " style="fill:white; stroke-width:1; stroke:black; " description="&lt;b&gt;RA27_RS05625&lt;/b&gt;&lt;br&gt;DNA-3-methyladenine glycosylase 2 family protein&lt;br&gt;Location: 1129012 - 1129644" locus_tag="RA27_RS05625" class="clusterblast-orf" id="dummy-1_h1_5_8"  />
</g>
<g id="a1_009"  >
<polygon points="331,90 383,90 388,85 383,80 331,80 331,90 " style="fill:white; stroke-width:1; stroke:black; " description="&lt;b&gt;RA27_RS05630&lt;/b&gt;&lt;br&gt;MFS transporter&lt;br&gt;Location: 1129743 - 1130969" locus_tag="RA27_RS05630" class="clusterblast-orf" id="dummy-1_h1_5_9"  />
</g>
<g id="a1_0010"  >
<polygon points="388,85 393,80 425,80 425,90 393,90 388,85 " style="fill:#d81515; stroke-width:1; stroke:black; " description="&lt;b&gt;RA27_RS05635&lt;/b&gt;&lt;br&gt;squalene/phytoene synthase family protein&lt;br&gt;Location: 1130972 - 1131748&lt;br&gt;&lt;br&gt;&lt;b&gt;BlastP hit with LGINICCL_00900&lt;/b&gt;&lt;br&gt;Percentage identity: 47&lt;br&gt;Percentage coverage: 100&lt;br&gt;BLAST bit score: 199&lt;br&gt;E-value: 2.03e-61" locus_tag="RA27_RS05635" class="clusterblast-orf" id="dummy-1_h1_5_10"  />
</g>
<g id="a1_0011"  >
<polygon points="425,85 430,80 501,80 501,90 430,90 425,85 " style="fill:#4dd815; stroke-width:1; stroke:black; " description="&lt;b&gt;RA27_RS05640&lt;/b&gt;&lt;br&gt;citramalate synthase&lt;br&gt;Location: 1131750 - 1133384&lt;br&gt;&lt;br&gt;&lt;b&gt;BlastP hit with LGINICCL_00901&lt;/b&gt;&lt;br&gt;Percentage identity: 73&lt;br&gt;Percentage coverage: 99&lt;br&gt;BLAST bit score: 764&lt;br&gt;E-value: 2.93e-275" locus_tag="RA27_RS05640" class="clusterblast-orf" id="dummy-1_h1_5_11"  />
</g>
<g id="a1_0012"  >
<polygon points="501,85 506,80 566,80 566,90 506,90 501,85 " style="fill:#1585d8; stroke-width:1; stroke:black; " description="&lt;b&gt;RA27_RS05645&lt;/b&gt;&lt;br&gt;cysteine--tRNA ligase&lt;br&gt;Location: 1133381 - 1134781&lt;br&gt;&lt;br&gt;&lt;b&gt;BlastP hit with LGINICCL_00902&lt;/b&gt;&lt;br&gt;Percentage identity: 58&lt;br&gt;Percentage coverage: 82&lt;br&gt;BLAST bit score: 501&lt;br&gt;E-value: 1.19e-172" locus_tag="RA27_RS05645" class="clusterblast-orf" id="dummy-1_h1_5_12"  />
</g>
<g id="a1_0013"  >
<polygon points="576,90 587,90 592,85 587,80 576,80 576,90 " style="fill:#d815bc; stroke-width:1; stroke:black; " description="&lt;b&gt;RA27_RS05650&lt;/b&gt;&lt;br&gt;hypothetical protein&lt;br&gt;Location: 1135000 - 1135344&lt;br&gt;&lt;br&gt;&lt;b&gt;BlastP hit with LGINICCL_00903&lt;/b&gt;&lt;br&gt;Percentage identity: 65&lt;br&gt;Percentage coverage: 98&lt;br&gt;BLAST bit score: 158&lt;br&gt;E-value: 1.39e-49" locus_tag="RA27_RS05650" class="clusterblast-orf" id="dummy-1_h1_5_13"  />
</g>
<g id="a1_0014"  >
<polygon points="595,90 645,90 650,85 645,80 595,80 595,90 " style="fill:white; stroke-width:1; stroke:black; " description="&lt;b&gt;RA27_RS05655&lt;/b&gt;&lt;br&gt;pyridoxal phosphate-dependent aminotransferase&lt;br&gt;Location: 1135402 - 1136577" locus_tag="RA27_RS05655" class="clusterblast-orf" id="dummy-1_h1_5_14"  />
</g>
<g id="a1_0015"  >
<polygon points="651,85 656,80 675,80 675,90 656,90 651,85 " style="fill:white; stroke-width:1; stroke:black; " description="&lt;b&gt;RA27_RS05660&lt;/b&gt;&lt;br&gt;outer membrane beta-barrel protein&lt;br&gt;Location: 1136602 - 1137120" locus_tag="RA27_RS05660" class="clusterblast-orf" id="dummy-1_h1_5_15"  />
</g>
<g id="a1_0016"  >
<polygon points="694,90 761,90 766,85 761,80 694,80 694,90 " style="fill:white; stroke-width:1; stroke:black; " description="&lt;b&gt;RA27_RS05665&lt;/b&gt;&lt;br&gt;trimethylamine methyltransferase family protein&lt;br&gt;Location: 1137536 - 1139080" locus_tag="RA27_RS05665" class="clusterblast-orf" id="dummy-1_h1_5_16"  />
</g>
<g id="a1_0017"  >
<polygon points="769,85 774,80 780,80 780,90 774,90 769,85 " style="fill:white; stroke-width:1; stroke:black; " description="&lt;b&gt;RA27_RS05670&lt;/b&gt;&lt;br&gt;hypothetical protein&lt;br&gt;Location: 1139134 - 1139364" locus_tag="RA27_RS05670" class="clusterblast-orf" id="dummy-1_h1_5_17"  />
</g>
</svg>
