<svg xmlns="http://www.w3.org/2000/svg" xmlns:xlink="http://www.w3.org/1999/xlink" version="1.1" x="0" y="0" height="230" width="800" viewBox="0 0 800 230" preserveAspectRatio="none"  >
<g label="Query sequence" class="clusterblast-cluster"  >
<text x="5" y="20" class="clusterblast-acc"  >
Query sequence</text>
<line x1="10" y1="35" x2="778.0" y2="35" style="stroke-width:1; stroke:grey; "  />
<polygon points="289,35 294,30 317,30 317,40 294,40 289,35 " style="fill:white; stroke-width:1; stroke:black; " description="&lt;b&gt;ctg54_3&lt;/b&gt;&lt;br&gt;ctg54 3&lt;br&gt;Location: 3725 - 5204" locus_tag="ctg54_3" class="clusterblast-orf" id="dummy-1_q0_0_all"  />
<polygon points="325,40 342,40 347,35 342,30 325,30 325,40 " style="fill:white; stroke-width:1; stroke:black; " description="&lt;b&gt;ctg54_4&lt;/b&gt;&lt;br&gt;ctg54 4&lt;br&gt;Location: 5605 - 6715" locus_tag="ctg54_4" class="clusterblast-orf" id="dummy-1_q1_0_all"  />
<polygon points="347,40 348,40 353,35 348,30 347,30 347,40 " style="fill:white; stroke-width:1; stroke:black; " description="&lt;b&gt;ctg54_5&lt;/b&gt;&lt;br&gt;ctg54 5&lt;br&gt;Location: 6728 - 7070" locus_tag="ctg54_5" class="clusterblast-orf" id="dummy-1_q2_0_all"  />
<polygon points="354,40 358,35 354,30 354,40 " style="fill:white; stroke-width:1; stroke:black; " description="&lt;b&gt;ctg54_6&lt;/b&gt;&lt;br&gt;ctg54 6&lt;br&gt;Location: 7080 - 7284" locus_tag="ctg54_6" class="clusterblast-orf" id="dummy-1_q3_0_all"  />
<polygon points="360,35 364,30 364,40 360,35 " style="fill:white; stroke-width:1; stroke:black; " description="&lt;b&gt;ctg54_7&lt;/b&gt;&lt;br&gt;ctg54 7&lt;br&gt;Location: 7427 - 7622" locus_tag="ctg54_7" class="clusterblast-orf" id="dummy-1_q4_0_all"  />
<polygon points="368,40 389,40 394,35 389,30 368,30 368,40 " style="fill:#d81515; stroke-width:1; stroke:black; " description="&lt;b&gt;ctg54_8&lt;/b&gt;&lt;br&gt;ctg54 8&lt;br&gt;Location: 7847 - 9179" locus_tag="ctg54_8" class="clusterblast-orf" id="dummy-1_q5_0_all"  />
<polygon points="394,40 411,40 416,35 411,30 394,30 394,40 " style="fill:#15d815; stroke-width:1; stroke:black; " description="&lt;b&gt;ctg54_9&lt;/b&gt;&lt;br&gt;ctg54 9&lt;br&gt;Location: 9178 - 10315" locus_tag="ctg54_9" class="clusterblast-orf" id="dummy-1_q6_0_all"  />
<polygon points="418,40 434,40 439,35 434,30 418,30 418,40 " style="fill:#1515d8; stroke-width:1; stroke:black; " description="&lt;b&gt;ctg54_10&lt;/b&gt;&lt;br&gt;ctg54 10&lt;br&gt;Location: 10393 - 11494" locus_tag="ctg54_10" class="clusterblast-orf" id="dummy-1_q7_0_all"  />
<polygon points="441,40 486,40 491,35 486,30 441,30 441,40 " style="fill:white; stroke-width:1; stroke:black; " description="&lt;b&gt;ctg54_11&lt;/b&gt;&lt;br&gt;ctg54 11&lt;br&gt;Location: 11611 - 14158" locus_tag="ctg54_11" class="clusterblast-orf" id="dummy-1_q8_0_all"  />
</g>
<g label="NZ_KB913022" description="NZ_KB913022 (3359730-3400621): Salinispora pacifica DSM 45543 = CNS-863 strai... (7% of genes show similarity), phosphonate" class="clusterblast-cluster"  >
<text x="5" y="70" class="clusterblast-acc"  >
<a xlink:href="https://antismash-db.secondarymetabolites.org/area.html?record=NZ_KB913022&amp;start=3359730&amp;end=3400621" target="_blank">NZ_KB913022 (3359730-3400621)</a>: Salinispora pacifica DSM 45543 = CNS-863 strai... (7% of genes show similarity), phosphonate</text>
<line x1="10" y1="85" x2="778.0" y2="85" style="stroke-width:1; stroke:grey; "  />
</g>
<g id="a1_000"  >
<polygon points="0,85 5,80 16,80 16,90 5,90 0,85 " style="fill:white; stroke-width:1; stroke:black; " description="&lt;b&gt;SALPAC_RS0115620&lt;/b&gt;&lt;br&gt;IS5 family transposase&lt;br&gt;Location: 3359875 - 3360711" locus_tag="SALPAC_RS0115620" class="clusterblast-orf" id="dummy-1_h1_7_0"  />
</g>
<g id="a1_001"  >
<polygon points="17,85 22,80 23,80 23,90 22,90 17,85 " style="fill:white; stroke-width:1; stroke:black; " description="&lt;b&gt;SALPAC_RS28220&lt;/b&gt;&lt;br&gt;NERD nuclease&lt;br&gt;Location: 3360790 - 3361065" locus_tag="SALPAC_RS28220" class="clusterblast-orf" id="dummy-1_h1_7_1"  />
</g>
<g id="a1_002"  >
<polygon points="22,90 32,90 37,85 32,80 22,80 22,90 " style="fill:white; stroke-width:1; stroke:black; " description="&lt;b&gt;SALPAC_RS26015&lt;/b&gt;&lt;br&gt;hypothetical protein&lt;br&gt;Location: 3361034 - 3361804" locus_tag="SALPAC_RS26015" class="clusterblast-orf" id="dummy-1_h1_7_2"  />
</g>
<g id="a1_003"  >
<polygon points="36,85 41,80 48,80 48,90 41,90 36,85 " style="fill:white; stroke-width:1; stroke:black; " description="&lt;b&gt;SALPAC_RS0115635&lt;/b&gt;&lt;br&gt;NUDIX domain-containing protein&lt;br&gt;Location: 3361758 - 3362387" locus_tag="SALPAC_RS0115635" class="clusterblast-orf" id="dummy-1_h1_7_3"  />
</g>
<g id="a1_004"  >
<polygon points="53,85 58,80 66,80 66,90 58,90 53,85 " style="fill:white; stroke-width:1; stroke:black; " description="&lt;b&gt;SALPAC_RS26020&lt;/b&gt;&lt;br&gt;transposase&lt;br&gt;Location: 3362623 - 3363329" locus_tag="SALPAC_RS26020" class="clusterblast-orf" id="dummy-1_h1_7_4"  />
</g>
<g id="a1_005"  >
<polygon points="67,85 71,80 71,90 67,85 " style="fill:white; stroke-width:1; stroke:black; " description="&lt;b&gt;SALPAC_RS28225&lt;/b&gt;&lt;br&gt;transposase&lt;br&gt;Location: 3363361 - 3363572" locus_tag="SALPAC_RS28225" class="clusterblast-orf" id="dummy-1_h1_7_5"  />
</g>
<g id="a1_006"  >
<polygon points="73,85 78,80 101,80 101,90 78,90 73,85 " style="fill:white; stroke-width:1; stroke:black; " description="&lt;b&gt;SALPAC_RS26025&lt;/b&gt;&lt;br&gt;transposase&lt;br&gt;Location: 3363659 - 3365125" locus_tag="SALPAC_RS26025" class="clusterblast-orf" id="dummy-1_h1_7_6"  />
</g>
<g id="a1_007"  >
<polygon points="105,85 109,80 109,90 105,85 " style="fill:white; stroke-width:1; stroke:black; " description="&lt;b&gt;SALPAC_RS27340&lt;/b&gt;&lt;br&gt;hypothetical protein&lt;br&gt;Location: 3365292 - 3365501" locus_tag="SALPAC_RS27340" class="clusterblast-orf" id="dummy-1_h1_7_7"  />
</g>
<g id="a1_008"  >
<polygon points="110,90 129,90 134,85 129,80 110,80 110,90 " style="fill:white; stroke-width:1; stroke:black; " description="&lt;b&gt;SALPAC_RS0115655&lt;/b&gt;&lt;br&gt;ISL3 family transposase&lt;br&gt;Location: 3365575 - 3366828" locus_tag="SALPAC_RS0115655" class="clusterblast-orf" id="dummy-1_h1_7_8"  />
</g>
<g id="a1_009"  >
<polygon points="135,85 140,80 147,80 147,90 140,90 135,85 " style="fill:white; stroke-width:1; stroke:black; " description="&lt;b&gt;SALPAC_RS0115660&lt;/b&gt;&lt;br&gt;transposase&lt;br&gt;Location: 3366859 - 3367476" locus_tag="SALPAC_RS0115660" class="clusterblast-orf" id="dummy-1_h1_7_9"  />
</g>
<g id="a1_0010"  >
<polygon points="150,90 174,90 179,85 174,80 150,80 150,90 " style="fill:white; stroke-width:1; stroke:black; " description="&lt;b&gt;SALPAC_RS26030&lt;/b&gt;&lt;br&gt;transposase&lt;br&gt;Location: 3367652 - 3369119" locus_tag="SALPAC_RS26030" class="clusterblast-orf" id="dummy-1_h1_7_10"  />
</g>
<g id="a1_0011"  >
<polygon points="187,90 209,90 214,85 209,80 187,80 187,90 " style="fill:white; stroke-width:1; stroke:black; " description="&lt;b&gt;SALPAC_RS0115670&lt;/b&gt;&lt;br&gt;MFS transporter&lt;br&gt;Location: 3369568 - 3370923" locus_tag="SALPAC_RS0115670" class="clusterblast-orf" id="dummy-1_h1_7_11"  />
</g>
<g id="a1_0012"  >
<polygon points="214,90 226,90 231,85 226,80 214,80 214,90 " style="fill:white; stroke-width:1; stroke:black; " description="&lt;b&gt;SALPAC_RS0115675&lt;/b&gt;&lt;br&gt;nucleotidyltransferase domain-containing protein&lt;br&gt;Location: 3370925 - 3371809" locus_tag="SALPAC_RS0115675" class="clusterblast-orf" id="dummy-1_h1_7_12"  />
</g>
<g id="a1_0013"  >
<polygon points="231,90 254,90 259,85 254,80 231,80 231,90 " style="fill:white; stroke-width:1; stroke:black; " description="&lt;b&gt;SALPAC_RS0115680&lt;/b&gt;&lt;br&gt;hypothetical protein&lt;br&gt;Location: 3371824 - 3373275" locus_tag="SALPAC_RS0115680" class="clusterblast-orf" id="dummy-1_h1_7_13"  />
</g>
<g id="a1_0014"  >
<polygon points="259,90 278,90 283,85 278,80 259,80 259,90 " style="fill:white; stroke-width:1; stroke:black; " description="&lt;b&gt;SALPAC_RS0115685&lt;/b&gt;&lt;br&gt;hypothetical protein&lt;br&gt;Location: 3373272 - 3374486" locus_tag="SALPAC_RS0115685" class="clusterblast-orf" id="dummy-1_h1_7_14"  />
</g>
<g id="a1_0015"  >
<polygon points="283,90 294,90 299,85 294,80 283,80 283,90 " style="fill:white; stroke-width:1; stroke:black; " description="&lt;b&gt;SALPAC_RS0115690&lt;/b&gt;&lt;br&gt;hypothetical protein&lt;br&gt;Location: 3374483 - 3375319" locus_tag="SALPAC_RS0115690" class="clusterblast-orf" id="dummy-1_h1_7_15"  />
</g>
<g id="a1_0016"  >
<polygon points="298,90 310,90 315,85 310,80 298,80 298,90 " style="fill:white; stroke-width:1; stroke:black; " description="&lt;b&gt;SALPAC_RS0115695&lt;/b&gt;&lt;br&gt;hypothetical protein&lt;br&gt;Location: 3375277 - 3376170" locus_tag="SALPAC_RS0115695" class="clusterblast-orf" id="dummy-1_h1_7_16"  />
</g>
<g id="a1_0017"  >
<polygon points="315,90 330,90 335,85 330,80 315,80 315,90 " style="fill:white; stroke-width:1; stroke:black; " description="&lt;b&gt;SALPAC_RS0115700&lt;/b&gt;&lt;br&gt;GNAT family N-acetyltransferase&lt;br&gt;Location: 3376167 - 3377195" locus_tag="SALPAC_RS0115700" class="clusterblast-orf" id="dummy-1_h1_7_17"  />
</g>
<g id="a1_0018"  >
<polygon points="335,90 352,90 357,85 352,80 335,80 335,90 " style="fill:white; stroke-width:1; stroke:black; " description="&lt;b&gt;SALPAC_RS0115705&lt;/b&gt;&lt;br&gt;GNAT family N-acetyltransferase&lt;br&gt;Location: 3377200 - 3378303" locus_tag="SALPAC_RS0115705" class="clusterblast-orf" id="dummy-1_h1_7_18"  />
</g>
<g id="a1_0019"  >
<polygon points="358,90 380,90 385,85 380,80 358,80 358,90 " style="fill:white; stroke-width:1; stroke:black; " description="&lt;b&gt;SALPAC_RS0115710&lt;/b&gt;&lt;br&gt;helix-turn-helix transcriptional regulator&lt;br&gt;Location: 3378346 - 3379734" locus_tag="SALPAC_RS0115710" class="clusterblast-orf" id="dummy-1_h1_7_19"  />
</g>
<g id="a1_0020"  >
<polygon points="384,90 397,90 402,85 397,80 384,80 384,90 " style="fill:#d81515; stroke-width:1; stroke:black; " description="&lt;b&gt;SALPAC_RS0115715&lt;/b&gt;&lt;br&gt;hypothetical protein&lt;br&gt;Location: 3379731 - 3380621&lt;br&gt;&lt;br&gt;&lt;b&gt;BlastP hit with ctg54_8&lt;/b&gt;&lt;br&gt;Percentage identity: 38&lt;br&gt;Percentage coverage: 65&lt;br&gt;BLAST bit score: 172&lt;br&gt;E-value: 1.71e-48" locus_tag="SALPAC_RS0115715" class="clusterblast-orf" id="dummy-1_h1_7_20"  />
</g>
<g id="a1_0021"  >
<polygon points="402,90 418,90 423,85 418,80 402,80 402,90 " style="fill:#15d815; stroke-width:1; stroke:black; " description="&lt;b&gt;SALPAC_RS0115720&lt;/b&gt;&lt;br&gt;phosphonopyruvate decarboxylase&lt;br&gt;Location: 3380618 - 3381733&lt;br&gt;&lt;br&gt;&lt;b&gt;BlastP hit with ctg54_9&lt;/b&gt;&lt;br&gt;Percentage identity: 36&lt;br&gt;Percentage coverage: 97&lt;br&gt;BLAST bit score: 159&lt;br&gt;E-value: 4.27e-43" locus_tag="SALPAC_RS0115720" class="clusterblast-orf" id="dummy-1_h1_7_21"  />
</g>
<g id="a1_0022"  >
<polygon points="423,90 442,90 447,85 442,80 423,80 423,90 " style="fill:#1515d8; stroke-width:1; stroke:black; " description="&lt;b&gt;SALPAC_RS0115725&lt;/b&gt;&lt;br&gt;iron-containing alcohol dehydrogenase&lt;br&gt;Location: 3381730 - 3382956&lt;br&gt;&lt;br&gt;&lt;b&gt;BlastP hit with ctg54_10&lt;/b&gt;&lt;br&gt;Percentage identity: 33&lt;br&gt;Percentage coverage: 92&lt;br&gt;BLAST bit score: 110&lt;br&gt;E-value: 3.63e-25" locus_tag="SALPAC_RS0115725" class="clusterblast-orf" id="dummy-1_h1_7_22"  />
</g>
<g id="a1_0023"  >
<polygon points="447,90 462,90 467,85 462,80 447,80 447,90 " style="fill:white; stroke-width:1; stroke:black; " description="&lt;b&gt;SALPAC_RS0115730&lt;/b&gt;&lt;br&gt;hypothetical protein&lt;br&gt;Location: 3382964 - 3383977" locus_tag="SALPAC_RS0115730" class="clusterblast-orf" id="dummy-1_h1_7_23"  />
</g>
<g id="a1_0024"  >
<polygon points="467,90 483,90 488,85 483,80 467,80 467,90 " style="fill:white; stroke-width:1; stroke:black; " description="&lt;b&gt;SALPAC_RS0115735&lt;/b&gt;&lt;br&gt;aminotransferase class I/II-fold pyridoxal phosphate-dependent enzyme&lt;br&gt;Location: 3383974 - 3385092" locus_tag="SALPAC_RS0115735" class="clusterblast-orf" id="dummy-1_h1_7_24"  />
</g>
<g id="a1_0025"  >
<polygon points="489,90 505,90 510,85 505,80 489,80 489,90 " style="fill:white; stroke-width:1; stroke:black; " description="&lt;b&gt;SALPAC_RS0115740&lt;/b&gt;&lt;br&gt;hypothetical protein&lt;br&gt;Location: 3385104 - 3386222" locus_tag="SALPAC_RS0115740" class="clusterblast-orf" id="dummy-1_h1_7_25"  />
</g>
<g id="a1_0026"  >
<polygon points="511,90 529,90 534,85 529,80 511,80 511,90 " style="fill:white; stroke-width:1; stroke:black; " description="&lt;b&gt;SALPAC_RS0115745&lt;/b&gt;&lt;br&gt;hypothetical protein&lt;br&gt;Location: 3386258 - 3387451" locus_tag="SALPAC_RS0115745" class="clusterblast-orf" id="dummy-1_h1_7_26"  />
</g>
<g id="a1_0027"  >
<polygon points="535,90 539,90 544,85 539,80 535,80 535,90 " style="fill:white; stroke-width:1; stroke:black; " description="&lt;b&gt;SALPAC_RS0115750&lt;/b&gt;&lt;br&gt;hypothetical protein&lt;br&gt;Location: 3387482 - 3387937" locus_tag="SALPAC_RS0115750" class="clusterblast-orf" id="dummy-1_h1_7_27"  />
</g>
<g id="a1_0028"  >
<polygon points="544,90 565,90 570,85 565,80 544,80 544,90 " style="fill:white; stroke-width:1; stroke:black; " description="&lt;b&gt;SALPAC_RS0115755&lt;/b&gt;&lt;br&gt;hypothetical protein&lt;br&gt;Location: 3387934 - 3389295" locus_tag="SALPAC_RS0115755" class="clusterblast-orf" id="dummy-1_h1_7_28"  />
</g>
<g id="a1_0029"  >
<polygon points="571,90 589,90 594,85 589,80 571,80 571,90 " style="fill:white; stroke-width:1; stroke:black; " description="&lt;b&gt;SALPAC_RS0115760&lt;/b&gt;&lt;br&gt;ATP-grasp domain-containing protein&lt;br&gt;Location: 3389340 - 3390527" locus_tag="SALPAC_RS0115760" class="clusterblast-orf" id="dummy-1_h1_7_29"  />
</g>
<g id="a1_0030"  >
<polygon points="594,85 599,80 607,80 607,90 599,90 594,85 " style="fill:white; stroke-width:1; stroke:black; " description="&lt;b&gt;SALPAC_RS0115765&lt;/b&gt;&lt;br&gt;N-acyl homoserine lactonase family protein&lt;br&gt;Location: 3390539 - 3391228" locus_tag="SALPAC_RS0115765" class="clusterblast-orf" id="dummy-1_h1_7_30"  />
</g>
<g id="a1_0031"  >
<polygon points="618,90 624,90 629,85 624,80 618,80 618,90 " style="fill:white; stroke-width:1; stroke:black; " description="&lt;b&gt;SALPAC_RS0115770&lt;/b&gt;&lt;br&gt;hypothetical protein&lt;br&gt;Location: 3391791 - 3392360" locus_tag="SALPAC_RS0115770" class="clusterblast-orf" id="dummy-1_h1_7_31"  />
</g>
<g id="a1_0032"  >
<polygon points="642,90 651,90 656,85 651,80 642,80 642,90 " style="fill:white; stroke-width:1; stroke:black; " description="&lt;b&gt;SALPAC_RS27350&lt;/b&gt;&lt;br&gt;IS5 family transposase&lt;br&gt;Location: 3393004 - 3393731" locus_tag="SALPAC_RS27350" class="clusterblast-orf" id="dummy-1_h1_7_32"  />
</g>
<g id="a1_0033"  >
<polygon points="657,90 677,90 682,85 677,80 657,80 657,90 " style="fill:white; stroke-width:1; stroke:black; " description="&lt;b&gt;SALPAC_RS0115780&lt;/b&gt;&lt;br&gt;IS256 family transposase&lt;br&gt;Location: 3393804 - 3395090" locus_tag="SALPAC_RS0115780" class="clusterblast-orf" id="dummy-1_h1_7_33"  />
</g>
<g id="a1_0034"  >
<polygon points="683,85 688,80 716,80 716,90 688,90 683,85 " style="fill:white; stroke-width:1; stroke:black; " description="&lt;b&gt;SALPAC_RS0115785&lt;/b&gt;&lt;br&gt;hypothetical protein&lt;br&gt;Location: 3395112 - 3396851" locus_tag="SALPAC_RS0115785" class="clusterblast-orf" id="dummy-1_h1_7_34"  />
</g>
<g id="a1_0035"  >
<polygon points="723,85 728,80 732,80 732,90 728,90 723,85 " style="fill:white; stroke-width:1; stroke:black; " description="&lt;b&gt;SALPAC_RS0115790&lt;/b&gt;&lt;br&gt;hypothetical protein&lt;br&gt;Location: 3397184 - 3397630" locus_tag="SALPAC_RS0115790" class="clusterblast-orf" id="dummy-1_h1_7_35"  />
</g>
<g id="a1_0036"  >
<polygon points="737,85 742,80 753,80 753,90 742,90 737,85 " style="fill:white; stroke-width:1; stroke:black; " description="&lt;b&gt;SALPAC_RS0115795&lt;/b&gt;&lt;br&gt;hypothetical protein&lt;br&gt;Location: 3397919 - 3398740" locus_tag="SALPAC_RS0115795" class="clusterblast-orf" id="dummy-1_h1_7_36"  />
</g>
<g id="a1_0037"  >
<polygon points="766,90 775,90 780,85 775,80 766,80 766,90 " style="fill:white; stroke-width:1; stroke:black; " description="&lt;b&gt;SALPAC_RS0115805&lt;/b&gt;&lt;br&gt;hypothetical protein&lt;br&gt;Location: 3399389 - 3400105" locus_tag="SALPAC_RS0115805" class="clusterblast-orf" id="dummy-1_h1_7_37"  />
</g>
</svg>
