<svg xmlns="http://www.w3.org/2000/svg" xmlns:xlink="http://www.w3.org/1999/xlink" version="1.1" x="0" y="0" height="230" width="800" viewBox="0 0 800 230" preserveAspectRatio="none"  >
<g label="Query sequence" class="clusterblast-cluster"  >
<text x="5" y="20" class="clusterblast-acc"  >
Query sequence</text>
<line x1="10" y1="35" x2="778.0" y2="35" style="stroke-width:1; stroke:grey; "  />
<polygon points="0,35 5,30 17,30 17,40 5,40 0,35 " style="fill:#d81515; stroke-width:1; stroke:black; " description="&lt;b&gt;LGINICCL_02124&lt;/b&gt;&lt;br&gt;Peroxide-responsive repressor PerR&lt;br&gt;Location: 4872 - 5310" locus_tag="LGINICCL_02124" class="clusterblast-orf" id="dummy-1_q0_0_all"  />
<polygon points="23,40 37,40 42,35 37,30 23,30 23,40 " style="fill:#15d863; stroke-width:1; stroke:black; " description="&lt;b&gt;LGINICCL_02125&lt;/b&gt;&lt;br&gt;3-hydroxydecanoyl-[acyl-carrier-protein] dehydratase&lt;br&gt;Location: 5454 - 5964" locus_tag="LGINICCL_02125" class="clusterblast-orf" id="dummy-1_q1_0_all"  />
<polygon points="43,35 48,30 75,30 75,40 48,40 43,35 " style="fill:white; stroke-width:1; stroke:black; " description="&lt;b&gt;LGINICCL_02126&lt;/b&gt;&lt;br&gt;hypothetical protein&lt;br&gt;Location: 5988 - 6792" locus_tag="LGINICCL_02126" class="clusterblast-orf" id="dummy-1_q2_0_all"  />
<polygon points="82,40 125,40 130,35 125,30 82,30 82,40 " style="fill:#1563d8; stroke-width:1; stroke:black; " description="&lt;b&gt;LGINICCL_02127&lt;/b&gt;&lt;br&gt;3-oxoacyl-[acyl-carrier-protein] synthase 1&lt;br&gt;Location: 6990 - 8220" locus_tag="LGINICCL_02127" class="clusterblast-orf" id="dummy-1_q3_0_all"  />
<polygon points="131,40 156,40 161,35 156,30 131,30 131,40 " style="fill:#b115d8; stroke-width:1; stroke:black; " description="&lt;b&gt;LGINICCL_02128&lt;/b&gt;&lt;br&gt;Enoyl-[acyl-carrier-protein] reductase [NADH] FabI&lt;br&gt;Location: 8237 - 9026" locus_tag="LGINICCL_02128" class="clusterblast-orf" id="dummy-1_q4_0_all"  />
<polygon points="162,35 167,30 188,30 188,40 167,40 162,35 " style="fill:white; stroke-width:1; stroke:black; " description="&lt;b&gt;LGINICCL_02129&lt;/b&gt;&lt;br&gt;Dual-specificity RNA pseudouridine synthase RluA&lt;br&gt;Location: 9041 - 9707" locus_tag="LGINICCL_02129" class="clusterblast-orf" id="dummy-1_q5_0_all"  />
<polygon points="188,35 193,30 213,30 213,40 193,40 188,35 " style="fill:white; stroke-width:1; stroke:black; " description="&lt;b&gt;LGINICCL_02130&lt;/b&gt;&lt;br&gt;hypothetical protein&lt;br&gt;Location: 9706 - 10366" locus_tag="LGINICCL_02130" class="clusterblast-orf" id="dummy-1_q6_0_all"  />
<polygon points="214,35 219,30 219,30 219,40 219,40 214,35 " style="fill:white; stroke-width:1; stroke:black; " description="&lt;b&gt;LGINICCL_02131&lt;/b&gt;&lt;br&gt;Cytochrome c oxidase subunit 4&lt;br&gt;Location: 10368 - 10503" locus_tag="LGINICCL_02131" class="clusterblast-orf" id="dummy-1_q7_0_all"  />
<polygon points="222,35 227,30 263,30 263,40 227,40 222,35 " style="fill:white; stroke-width:1; stroke:black; " description="&lt;b&gt;LGINICCL_02132&lt;/b&gt;&lt;br&gt;hypothetical protein&lt;br&gt;Location: 10576 - 11641" locus_tag="LGINICCL_02132" class="clusterblast-orf" id="dummy-1_q8_0_all"  />
<polygon points="263,35 268,30 329,30 329,40 268,40 263,35 " style="fill:white; stroke-width:1; stroke:black; " description="&lt;b&gt;LGINICCL_02133&lt;/b&gt;&lt;br&gt;3-methylmercaptopropionyl-CoA dehydrogenase&lt;br&gt;Location: 11640 - 13347" locus_tag="LGINICCL_02133" class="clusterblast-orf" id="dummy-1_q9_0_all"  />
<polygon points="332,40 366,40 371,35 366,30 332,30 332,40 " style="fill:white; stroke-width:1; stroke:black; " description="&lt;b&gt;LGINICCL_02134&lt;/b&gt;&lt;br&gt;Threonylcarbamoyl-AMP synthase&lt;br&gt;Location: 13417 - 14419" locus_tag="LGINICCL_02134" class="clusterblast-orf" id="dummy-1_q10_0_all"  />
<polygon points="377,40 406,40 411,35 406,30 377,30 377,40 " style="fill:#b1d815; stroke-width:1; stroke:black; " description="&lt;b&gt;LGINICCL_02135&lt;/b&gt;&lt;br&gt;hypothetical protein&lt;br&gt;Location: 14586 - 15456" locus_tag="LGINICCL_02135" class="clusterblast-orf" id="dummy-1_q11_0_all"  />
<polygon points="414,40 438,40 443,35 438,30 414,30 414,40 " style="fill:white; stroke-width:1; stroke:black; " description="&lt;b&gt;LGINICCL_02136&lt;/b&gt;&lt;br&gt;hypothetical protein&lt;br&gt;Location: 15529 - 16273" locus_tag="LGINICCL_02136" class="clusterblast-orf" id="dummy-1_q12_0_all"  />
<polygon points="442,35 447,30 467,30 467,40 447,40 442,35 " style="fill:white; stroke-width:1; stroke:black; " description="&lt;b&gt;LGINICCL_02137&lt;/b&gt;&lt;br&gt;hypothetical protein&lt;br&gt;Location: 16251 - 16890" locus_tag="LGINICCL_02137" class="clusterblast-orf" id="dummy-1_q13_0_all"  />
<polygon points="467,35 472,30 485,30 485,40 472,40 467,35 " style="fill:white; stroke-width:1; stroke:black; " description="&lt;b&gt;LGINICCL_02138&lt;/b&gt;&lt;br&gt;tRNA-specific adenosine deaminase&lt;br&gt;Location: 16889 - 17342" locus_tag="LGINICCL_02138" class="clusterblast-orf" id="dummy-1_q14_0_all"  />
<polygon points="485,40 517,40 522,35 517,30 485,30 485,40 " style="fill:white; stroke-width:1; stroke:black; " description="&lt;b&gt;LGINICCL_02139&lt;/b&gt;&lt;br&gt;hypothetical protein&lt;br&gt;Location: 17351 - 18293" locus_tag="LGINICCL_02139" class="clusterblast-orf" id="dummy-1_q15_0_all"  />
<polygon points="540,40 582,40 587,35 582,30 540,30 540,40 " style="fill:white; stroke-width:1; stroke:black; " description="&lt;b&gt;LGINICCL_02140&lt;/b&gt;&lt;br&gt;hypothetical protein&lt;br&gt;Location: 18770 - 19973" locus_tag="LGINICCL_02140" class="clusterblast-orf" id="dummy-1_q16_0_all"  />
<polygon points="590,35 595,30 639,30 639,40 595,40 590,35 " style="fill:white; stroke-width:1; stroke:black; " description="&lt;b&gt;LGINICCL_02141&lt;/b&gt;&lt;br&gt;Phosphoribosylamine--glycine ligase&lt;br&gt;Location: 20045 - 21317" locus_tag="LGINICCL_02141" class="clusterblast-orf" id="dummy-1_q17_0_all"  />
<polygon points="642,40 700,40 705,35 700,30 642,30 642,40 " style="fill:white; stroke-width:1; stroke:black; " description="&lt;b&gt;LGINICCL_02142&lt;/b&gt;&lt;br&gt;Exodeoxyribonuclease 7 large subunit&lt;br&gt;Location: 21394 - 23005" locus_tag="LGINICCL_02142" class="clusterblast-orf" id="dummy-1_q18_0_all"  />
<polygon points="709,35 714,30 725,30 725,40 714,40 709,35 " style="fill:white; stroke-width:1; stroke:black; " description="&lt;b&gt;LGINICCL_02143&lt;/b&gt;&lt;br&gt;hypothetical protein&lt;br&gt;Location: 23104 - 23515" locus_tag="LGINICCL_02143" class="clusterblast-orf" id="dummy-1_q19_0_all"  />
<polygon points="728,40 775,40 780,35 775,30 728,30 728,40 " style="fill:white; stroke-width:1; stroke:black; " description="&lt;b&gt;LGINICCL_02144&lt;/b&gt;&lt;br&gt;Glutamate--tRNA ligase 1&lt;br&gt;Location: 23615 - 24938" locus_tag="LGINICCL_02144" class="clusterblast-orf" id="dummy-1_q20_0_all"  />
</g>
<g label="NZ_CP019044" description="NZ_CP019044 (1036598-1057225): Salaquimonas pukyongi strain RR3-28 chromosome... (10% of genes show similarity), hserlactone" class="clusterblast-cluster"  >
<text x="5" y="70" class="clusterblast-acc"  >
<a xlink:href="https://antismash-db.secondarymetabolites.org/area.html?record=NZ_CP019044&amp;start=1036598&amp;end=1057225" target="_blank">NZ_CP019044 (1036598-1057225)</a>: Salaquimonas pukyongi strain RR3-28 chromosome... (10% of genes show similarity), hserlactone</text>
<line x1="10" y1="85" x2="778.0" y2="85" style="stroke-width:1; stroke:grey; "  />
</g>
<g id="a1_000"  >
<polygon points="22,85 27,80 66,80 66,90 27,90 22,85 " style="fill:white; stroke-width:1; stroke:black; " description="&lt;b&gt;BVL55_RS04990&lt;/b&gt;&lt;br&gt;D-alanine--D-alanine ligase&lt;br&gt;Location: 1037461 - 1038579" locus_tag="BVL55_RS04990" class="clusterblast-orf" id="dummy-1_h1_8_0"  />
</g>
<g id="a1_001"  >
<polygon points="65,85 70,80 109,80 109,90 70,90 65,85 " style="fill:white; stroke-width:1; stroke:black; " description="&lt;b&gt;BVL55_RS04995&lt;/b&gt;&lt;br&gt;alanine racemase&lt;br&gt;Location: 1038566 - 1039705" locus_tag="BVL55_RS04995" class="clusterblast-orf" id="dummy-1_h1_8_1"  />
</g>
<g id="a1_002"  >
<polygon points="110,85 115,80 169,80 169,90 115,90 110,85 " style="fill:white; stroke-width:1; stroke:black; " description="&lt;b&gt;BVL55_RS05000&lt;/b&gt;&lt;br&gt;replicative DNA helicase&lt;br&gt;Location: 1039727 - 1041238" locus_tag="BVL55_RS05000" class="clusterblast-orf" id="dummy-1_h1_8_2"  />
</g>
<g id="a1_003"  >
<polygon points="179,85 184,80 221,80 221,90 184,90 179,85 " style="fill:white; stroke-width:1; stroke:black; " description="&lt;b&gt;BVL55_RS05005&lt;/b&gt;&lt;br&gt;hypothetical protein&lt;br&gt;Location: 1041509 - 1042582" locus_tag="BVL55_RS05005" class="clusterblast-orf" id="dummy-1_h1_8_3"  />
</g>
<g id="a1_004"  >
<polygon points="226,85 231,80 253,80 253,90 231,90 226,85 " style="fill:white; stroke-width:1; stroke:black; " description="&lt;b&gt;BVL55_RS05010&lt;/b&gt;&lt;br&gt;50S ribosomal protein L9&lt;br&gt;Location: 1042695 - 1043402" locus_tag="BVL55_RS05010" class="clusterblast-orf" id="dummy-1_h1_8_4"  />
</g>
<g id="a1_005"  >
<polygon points="254,85 259,80 291,80 291,90 259,90 254,85 " style="fill:white; stroke-width:1; stroke:black; " description="&lt;b&gt;BVL55_RS05015&lt;/b&gt;&lt;br&gt;DUF2232 domain-containing protein&lt;br&gt;Location: 1043438 - 1044373" locus_tag="BVL55_RS05015" class="clusterblast-orf" id="dummy-1_h1_8_5"  />
</g>
<g id="a1_006"  >
<polygon points="297,85 302,80 306,80 306,90 302,90 297,85 " style="fill:white; stroke-width:1; stroke:black; " description="&lt;b&gt;BVL55_RS05020&lt;/b&gt;&lt;br&gt;30S ribosomal protein S18&lt;br&gt;Location: 1044526 - 1044762" locus_tag="BVL55_RS05020" class="clusterblast-orf" id="dummy-1_h1_8_6"  />
</g>
<g id="a1_007"  >
<polygon points="306,85 311,80 322,80 322,90 311,90 306,85 " style="fill:white; stroke-width:1; stroke:black; " description="&lt;b&gt;BVL55_RS05025&lt;/b&gt;&lt;br&gt;30S ribosomal protein S6&lt;br&gt;Location: 1044762 - 1045187" locus_tag="BVL55_RS05025" class="clusterblast-orf" id="dummy-1_h1_8_7"  />
</g>
<g id="a1_008"  >
<polygon points="340,90 370,90 375,85 370,80 340,80 340,90 " style="fill:white; stroke-width:1; stroke:black; " description="&lt;b&gt;BVL55_RS05030&lt;/b&gt;&lt;br&gt;hypothetical protein&lt;br&gt;Location: 1045647 - 1046552" locus_tag="BVL55_RS05030" class="clusterblast-orf" id="dummy-1_h1_8_8"  />
</g>
<g id="a1_009"  >
<polygon points="377,85 382,80 402,80 402,90 382,90 377,85 " style="fill:#b1d815; stroke-width:1; stroke:black; " description="&lt;b&gt;BVL55_RS05035&lt;/b&gt;&lt;br&gt;GNAT family N-acetyltransferase&lt;br&gt;Location: 1046599 - 1047225&lt;br&gt;&lt;br&gt;&lt;b&gt;BlastP hit with LGINICCL_02135&lt;/b&gt;&lt;br&gt;Percentage identity: 38&lt;br&gt;Percentage coverage: 46&lt;br&gt;BLAST bit score: 81&lt;br&gt;E-value: 3.37e-16" locus_tag="BVL55_RS05035" class="clusterblast-orf" id="dummy-1_h1_8_9"  />
</g>
<g id="a1_0010"  >
<polygon points="415,90 447,90 452,85 447,80 415,80 415,90 " style="fill:white; stroke-width:1; stroke:black; " description="&lt;b&gt;BVL55_RS05040&lt;/b&gt;&lt;br&gt;ACP S-malonyltransferase&lt;br&gt;Location: 1047569 - 1048510" locus_tag="BVL55_RS05040" class="clusterblast-orf" id="dummy-1_h1_8_10"  />
</g>
<g id="a1_0011"  >
<polygon points="454,90 478,90 483,85 478,80 454,80 454,90 " style="fill:white; stroke-width:1; stroke:black; " description="&lt;b&gt;BVL55_RS05045&lt;/b&gt;&lt;br&gt;3-oxoacyl-[acyl-carrier-protein] reductase&lt;br&gt;Location: 1048579 - 1049316" locus_tag="BVL55_RS05045" class="clusterblast-orf" id="dummy-1_h1_8_11"  />
</g>
<g id="a1_0012"  >
<polygon points="484,90 525,90 530,85 525,80 484,80 484,90 " style="fill:white; stroke-width:1; stroke:black; " description="&lt;b&gt;BVL55_RS05050&lt;/b&gt;&lt;br&gt;YbfB/YjiJ family MFS transporter&lt;br&gt;Location: 1049348 - 1050529" locus_tag="BVL55_RS05050" class="clusterblast-orf" id="dummy-1_h1_8_12"  />
</g>
<g id="a1_0013"  >
<polygon points="539,90 543,90 548,85 543,80 539,80 539,90 " style="fill:white; stroke-width:1; stroke:black; " description="&lt;b&gt;BVL55_RS05060&lt;/b&gt;&lt;br&gt;acyl carrier protein&lt;br&gt;Location: 1050766 - 1051002" locus_tag="BVL55_RS05060" class="clusterblast-orf" id="dummy-1_h1_8_13"  />
</g>
<g id="a1_0014"  >
<polygon points="554,90 598,90 603,85 598,80 554,80 554,90 " style="fill:#1563d8; stroke-width:1; stroke:black; " description="&lt;b&gt;BVL55_RS05065&lt;/b&gt;&lt;br&gt;beta-ketoacyl-ACP synthase II&lt;br&gt;Location: 1051147 - 1052406&lt;br&gt;&lt;br&gt;&lt;b&gt;BlastP hit with LGINICCL_02127&lt;/b&gt;&lt;br&gt;Percentage identity: 39&lt;br&gt;Percentage coverage: 103&lt;br&gt;BLAST bit score: 246&lt;br&gt;E-value: 1.08e-75" locus_tag="BVL55_RS05065" class="clusterblast-orf" id="dummy-1_h1_8_14"  />
</g>
<g id="a1_0015"  >
<polygon points="613,90 655,90 660,85 655,80 613,80 613,90 " style="fill:white; stroke-width:1; stroke:black; " description="&lt;b&gt;BVL55_RS05070&lt;/b&gt;&lt;br&gt;endolytic transglycosylase MltG&lt;br&gt;Location: 1052670 - 1053863" locus_tag="BVL55_RS05070" class="clusterblast-orf" id="dummy-1_h1_8_15"  />
</g>
<g id="a1_0016"  >
<polygon points="662,90 691,90 696,85 691,80 662,80 662,90 " style="fill:white; stroke-width:1; stroke:black; " description="&lt;b&gt;BVL55_RS05075&lt;/b&gt;&lt;br&gt;YicC family protein&lt;br&gt;Location: 1053916 - 1054803" locus_tag="BVL55_RS05075" class="clusterblast-orf" id="dummy-1_h1_8_16"  />
</g>
<g id="a1_0017"  >
<polygon points="703,90 719,90 724,85 719,80 703,80 703,90 " style="fill:white; stroke-width:1; stroke:black; " description="&lt;b&gt;BVL55_RS05080&lt;/b&gt;&lt;br&gt;guanylate kinase&lt;br&gt;Location: 1054975 - 1055529" locus_tag="BVL55_RS05080" class="clusterblast-orf" id="dummy-1_h1_8_17"  />
</g>
<g id="a1_0018"  >
<polygon points="725,85 730,80 757,80 757,90 730,90 725,85 " style="fill:white; stroke-width:1; stroke:black; " description="&lt;b&gt;BVL55_RS05085&lt;/b&gt;&lt;br&gt;16S rRNA (adenine(1518)-N(6)/adenine(1519)-N(6))- dimethyltransferase RsmA&lt;br&gt;Location: 1055543 - 1056364" locus_tag="BVL55_RS05085" class="clusterblast-orf" id="dummy-1_h1_8_18"  />
</g>
</svg>
