<svg xmlns="http://www.w3.org/2000/svg" xmlns:xlink="http://www.w3.org/1999/xlink" version="1.1" x="0" y="0" height="230" width="800" viewBox="0 0 800 230" preserveAspectRatio="none"  >
<g label="Query sequence" class="clusterblast-cluster"  >
<text x="5" y="20" class="clusterblast-acc"  >
Query sequence</text>
<line x1="10" y1="35" x2="778.0" y2="35" style="stroke-width:1; stroke:grey; "  />
<polygon points="290,35 295,30 318,30 318,40 295,40 290,35 " style="fill:white; stroke-width:1; stroke:black; " description="&lt;b&gt;ctg54_3&lt;/b&gt;&lt;br&gt;ctg54 3&lt;br&gt;Location: 3725 - 5204" locus_tag="ctg54_3" class="clusterblast-orf" id="dummy-1_q0_0_all"  />
<polygon points="326,40 342,40 347,35 342,30 326,30 326,40 " style="fill:white; stroke-width:1; stroke:black; " description="&lt;b&gt;ctg54_4&lt;/b&gt;&lt;br&gt;ctg54 4&lt;br&gt;Location: 5605 - 6715" locus_tag="ctg54_4" class="clusterblast-orf" id="dummy-1_q1_0_all"  />
<polygon points="347,40 349,40 354,35 349,30 347,30 347,40 " style="fill:white; stroke-width:1; stroke:black; " description="&lt;b&gt;ctg54_5&lt;/b&gt;&lt;br&gt;ctg54 5&lt;br&gt;Location: 6728 - 7070" locus_tag="ctg54_5" class="clusterblast-orf" id="dummy-1_q2_0_all"  />
<polygon points="354,40 358,35 354,30 354,40 " style="fill:white; stroke-width:1; stroke:black; " description="&lt;b&gt;ctg54_6&lt;/b&gt;&lt;br&gt;ctg54 6&lt;br&gt;Location: 7080 - 7284" locus_tag="ctg54_6" class="clusterblast-orf" id="dummy-1_q3_0_all"  />
<polygon points="361,35 364,30 364,40 361,35 " style="fill:white; stroke-width:1; stroke:black; " description="&lt;b&gt;ctg54_7&lt;/b&gt;&lt;br&gt;ctg54 7&lt;br&gt;Location: 7427 - 7622" locus_tag="ctg54_7" class="clusterblast-orf" id="dummy-1_q4_0_all"  />
<polygon points="369,40 389,40 394,35 389,30 369,30 369,40 " style="fill:#d81515; stroke-width:1; stroke:black; " description="&lt;b&gt;ctg54_8&lt;/b&gt;&lt;br&gt;ctg54 8&lt;br&gt;Location: 7847 - 9179" locus_tag="ctg54_8" class="clusterblast-orf" id="dummy-1_q5_0_all"  />
<polygon points="394,40 411,40 416,35 411,30 394,30 394,40 " style="fill:#15d815; stroke-width:1; stroke:black; " description="&lt;b&gt;ctg54_9&lt;/b&gt;&lt;br&gt;ctg54 9&lt;br&gt;Location: 9178 - 10315" locus_tag="ctg54_9" class="clusterblast-orf" id="dummy-1_q6_0_all"  />
<polygon points="418,40 434,40 439,35 434,30 418,30 418,40 " style="fill:#1515d8; stroke-width:1; stroke:black; " description="&lt;b&gt;ctg54_10&lt;/b&gt;&lt;br&gt;ctg54 10&lt;br&gt;Location: 10393 - 11494" locus_tag="ctg54_10" class="clusterblast-orf" id="dummy-1_q7_0_all"  />
<polygon points="441,40 485,40 490,35 485,30 441,30 441,40 " style="fill:white; stroke-width:1; stroke:black; " description="&lt;b&gt;ctg54_11&lt;/b&gt;&lt;br&gt;ctg54 11&lt;br&gt;Location: 11611 - 14158" locus_tag="ctg54_11" class="clusterblast-orf" id="dummy-1_q8_0_all"  />
</g>
<g label="NC_013947" description="NC_013947 (6001088-6042372): Stackebrandtia nassauensis DSM 44728, complete s... (8% of genes show similarity), other" class="clusterblast-cluster"  >
<text x="5" y="70" class="clusterblast-acc"  >
<a xlink:href="https://antismash-db.secondarymetabolites.org/area.html?record=NC_013947&amp;start=6001088&amp;end=6042372" target="_blank">NC_013947 (6001088-6042372)</a>: Stackebrandtia nassauensis DSM 44728, complete s... (8% of genes show similarity), other</text>
<line x1="10" y1="85" x2="778.0" y2="85" style="stroke-width:1; stroke:grey; "  />
</g>
<g id="a1_000"  >
<polygon points="0,90 22,90 27,85 22,80 0,80 0,90 " style="fill:white; stroke-width:1; stroke:black; " description="&lt;b&gt;SNAS_RS28090&lt;/b&gt;&lt;br&gt;UDP-glucose/GDP-mannose dehydrogenase family protein&lt;br&gt;Location: 6041978 - 6040554" locus_tag="SNAS_RS28090" class="clusterblast-orf" id="dummy-1_h1_4_0"  />
</g>
<g id="a1_001"  >
<polygon points="28,90 41,90 46,85 41,80 28,80 28,90 " style="fill:white; stroke-width:1; stroke:black; " description="&lt;b&gt;SNAS_RS28085&lt;/b&gt;&lt;br&gt;endonuclease/exonuclease/phosphatase family protein&lt;br&gt;Location: 6040494 - 6039562" locus_tag="SNAS_RS28085" class="clusterblast-orf" id="dummy-1_h1_4_1"  />
</g>
<g id="a1_002"  >
<polygon points="48,90 54,90 59,85 54,80 48,80 48,90 " style="fill:white; stroke-width:1; stroke:black; " description="&lt;b&gt;SNAS_RS28080&lt;/b&gt;&lt;br&gt;hypothetical protein&lt;br&gt;Location: 6039449 - 6038871" locus_tag="SNAS_RS28080" class="clusterblast-orf" id="dummy-1_h1_4_2"  />
</g>
<g id="a1_003"  >
<polygon points="60,85 65,80 100,80 100,90 65,90 60,85 " style="fill:white; stroke-width:1; stroke:black; " description="&lt;b&gt;SNAS_RS28075&lt;/b&gt;&lt;br&gt;PIG-L family deacetylase&lt;br&gt;Location: 6038851 - 6036737" locus_tag="SNAS_RS28075" class="clusterblast-orf" id="dummy-1_h1_4_3"  />
</g>
<g id="a1_004"  >
<polygon points="101,85 106,80 145,80 145,90 106,90 101,85 " style="fill:white; stroke-width:1; stroke:black; " description="&lt;b&gt;SNAS_RS34810&lt;/b&gt;&lt;br&gt;glycosyltransferase family 4 protein&lt;br&gt;Location: 6036691 - 6034403" locus_tag="SNAS_RS34810" class="clusterblast-orf" id="dummy-1_h1_4_4"  />
</g>
<g id="a1_005"  >
<polygon points="145,85 150,80 176,80 176,90 150,90 145,85 " style="fill:white; stroke-width:1; stroke:black; " description="&lt;b&gt;SNAS_RS28065&lt;/b&gt;&lt;br&gt;stealth conserved region 3 domain-containing protein&lt;br&gt;Location: 6034406 - 6032775" locus_tag="SNAS_RS28065" class="clusterblast-orf" id="dummy-1_h1_4_5"  />
</g>
<g id="a1_006"  >
<polygon points="176,85 181,80 211,80 211,90 181,90 176,85 " style="fill:white; stroke-width:1; stroke:black; " description="&lt;b&gt;SNAS_RS28060&lt;/b&gt;&lt;br&gt;stealth conserved region 3 domain-containing protein&lt;br&gt;Location: 6032769 - 6030988" locus_tag="SNAS_RS28060" class="clusterblast-orf" id="dummy-1_h1_4_6"  />
</g>
<g id="a1_007"  >
<polygon points="217,85 222,80 257,80 257,90 222,90 217,85 " style="fill:white; stroke-width:1; stroke:black; " description="&lt;b&gt;SNAS_RS33445&lt;/b&gt;&lt;br&gt;CDP-alcohol phosphatidyltransferase family protein&lt;br&gt;Location: 6030638 - 6028581" locus_tag="SNAS_RS33445" class="clusterblast-orf" id="dummy-1_h1_4_7"  />
</g>
<g id="a1_008"  >
<polygon points="257,85 262,80 271,80 271,90 262,90 257,85 " style="fill:white; stroke-width:1; stroke:black; " description="&lt;b&gt;SNAS_RS28050&lt;/b&gt;&lt;br&gt;ABC transporter ATP-binding protein&lt;br&gt;Location: 6028581 - 6027820" locus_tag="SNAS_RS28050" class="clusterblast-orf" id="dummy-1_h1_4_8"  />
</g>
<g id="a1_009"  >
<polygon points="275,90 286,90 291,85 286,80 275,80 275,90 " style="fill:white; stroke-width:1; stroke:black; " description="&lt;b&gt;SNAS_RS28045&lt;/b&gt;&lt;br&gt;CDP-alcohol phosphatidyltransferase family protein&lt;br&gt;Location: 6027655 - 6026780" locus_tag="SNAS_RS28045" class="clusterblast-orf" id="dummy-1_h1_4_9"  />
</g>
<g id="a1_0010"  >
<polygon points="291,90 300,90 305,85 300,80 291,80 291,90 " style="fill:white; stroke-width:1; stroke:black; " description="&lt;b&gt;SNAS_RS28040&lt;/b&gt;&lt;br&gt;2-C-methyl-D-erythritol 4-phosphate cytidylyltransferase&lt;br&gt;Location: 6026783 - 6026064" locus_tag="SNAS_RS28040" class="clusterblast-orf" id="dummy-1_h1_4_10"  />
</g>
<g id="a1_0011"  >
<polygon points="305,90 332,90 337,85 332,80 305,80 305,90 " style="fill:white; stroke-width:1; stroke:black; " description="&lt;b&gt;SNAS_RS28035&lt;/b&gt;&lt;br&gt;CDP-glycerol glycerophosphotransferase family protein&lt;br&gt;Location: 6026059 - 6024404" locus_tag="SNAS_RS28035" class="clusterblast-orf" id="dummy-1_h1_4_11"  />
</g>
<g id="a1_0012"  >
<polygon points="340,90 368,90 373,85 368,80 340,80 340,90 " style="fill:white; stroke-width:1; stroke:black; " description="&lt;b&gt;SNAS_RS28030&lt;/b&gt;&lt;br&gt;CDP-glycerol glycerophosphotransferase family protein&lt;br&gt;Location: 6024253 - 6022544" locus_tag="SNAS_RS28030" class="clusterblast-orf" id="dummy-1_h1_4_12"  />
</g>
<g id="a1_0013"  >
<polygon points="376,90 396,90 401,85 396,80 376,80 376,90 " style="fill:#d81515; stroke-width:1; stroke:black; " description="&lt;b&gt;SNAS_RS28025&lt;/b&gt;&lt;br&gt;phosphoenolpyruvate mutase&lt;br&gt;Location: 6022372 - 6021089&lt;br&gt;&lt;br&gt;&lt;b&gt;BlastP hit with ctg54_8&lt;/b&gt;&lt;br&gt;Percentage identity: 64&lt;br&gt;Percentage coverage: 95&lt;br&gt;BLAST bit score: 551&lt;br&gt;E-value: 1.12e-194" locus_tag="SNAS_RS28025" class="clusterblast-orf" id="dummy-1_h1_4_13"  />
</g>
<g id="a1_0014"  >
<polygon points="401,90 417,90 422,85 417,80 401,80 401,90 " style="fill:#15d815; stroke-width:1; stroke:black; " description="&lt;b&gt;SNAS_RS28020&lt;/b&gt;&lt;br&gt;phosphonopyruvate decarboxylase&lt;br&gt;Location: 6021092 - 6019971&lt;br&gt;&lt;br&gt;&lt;b&gt;BlastP hit with ctg54_9&lt;/b&gt;&lt;br&gt;Percentage identity: 51&lt;br&gt;Percentage coverage: 101&lt;br&gt;BLAST bit score: 346&lt;br&gt;E-value: 1.08e-115" locus_tag="SNAS_RS28020" class="clusterblast-orf" id="dummy-1_h1_4_14"  />
</g>
<g id="a1_0015"  >
<polygon points="424,90 441,90 446,85 441,80 424,80 424,90 " style="fill:#1515d8; stroke-width:1; stroke:black; " description="&lt;b&gt;SNAS_RS28015&lt;/b&gt;&lt;br&gt;phosphonoacetaldehyde reductase&lt;br&gt;Location: 6019881 - 6018721&lt;br&gt;&lt;br&gt;&lt;b&gt;BlastP hit with ctg54_10&lt;/b&gt;&lt;br&gt;Percentage identity: 34&lt;br&gt;Percentage coverage: 59&lt;br&gt;BLAST bit score: 102&lt;br&gt;E-value: 3.93e-22" locus_tag="SNAS_RS28015" class="clusterblast-orf" id="dummy-1_h1_4_15"  />
</g>
<g id="a1_0016"  >
<polygon points="450,90 459,90 464,85 459,80 450,80 450,90 " style="fill:white; stroke-width:1; stroke:black; " description="&lt;b&gt;SNAS_RS28010&lt;/b&gt;&lt;br&gt;hypothetical protein&lt;br&gt;Location: 6018502 - 6017786" locus_tag="SNAS_RS28010" class="clusterblast-orf" id="dummy-1_h1_4_16"  />
</g>
<g id="a1_0017"  >
<polygon points="467,90 470,90 475,85 470,80 467,80 467,90 " style="fill:white; stroke-width:1; stroke:black; " description="&lt;b&gt;SNAS_RS28005&lt;/b&gt;&lt;br&gt;YbaB/EbfC family nucleoid-associated protein&lt;br&gt;Location: 6017622 - 6017206" locus_tag="SNAS_RS28005" class="clusterblast-orf" id="dummy-1_h1_4_17"  />
</g>
<g id="a1_0018"  >
<polygon points="475,90 476,90 481,85 476,80 475,80 475,90 " style="fill:white; stroke-width:1; stroke:black; " description="&lt;b&gt;SNAS_RS28000&lt;/b&gt;&lt;br&gt;hypothetical protein&lt;br&gt;Location: 6017209 - 6016880" locus_tag="SNAS_RS28000" class="clusterblast-orf" id="dummy-1_h1_4_18"  />
</g>
<g id="a1_0019"  >
<polygon points="482,90 490,90 495,85 490,80 482,80 482,90 " style="fill:white; stroke-width:1; stroke:black; " description="&lt;b&gt;SNAS_RS27995&lt;/b&gt;&lt;br&gt;hypothetical protein&lt;br&gt;Location: 6016875 - 6016162" locus_tag="SNAS_RS27995" class="clusterblast-orf" id="dummy-1_h1_4_19"  />
</g>
<g id="a1_0020"  >
<polygon points="496,90 502,90 507,85 502,80 496,80 496,90 " style="fill:white; stroke-width:1; stroke:black; " description="&lt;b&gt;SNAS_RS33440&lt;/b&gt;&lt;br&gt;EndoU domain-containing protein&lt;br&gt;Location: 6016140 - 6015550" locus_tag="SNAS_RS33440" class="clusterblast-orf" id="dummy-1_h1_4_20"  />
</g>
<g id="a1_0021"  >
<polygon points="507,90 508,90 513,85 508,80 507,80 507,90 " style="fill:white; stroke-width:1; stroke:black; " description="&lt;b&gt;SNAS_RS27985&lt;/b&gt;&lt;br&gt;hypothetical protein&lt;br&gt;Location: 6015526 - 6015218" locus_tag="SNAS_RS27985" class="clusterblast-orf" id="dummy-1_h1_4_21"  />
</g>
<g id="a1_0022"  >
<polygon points="516,85 521,80 557,80 557,90 521,90 516,85 " style="fill:white; stroke-width:1; stroke:black; " description="&lt;b&gt;SNAS_RS27980&lt;/b&gt;&lt;br&gt;MFS transporter&lt;br&gt;Location: 6015060 - 6012955" locus_tag="SNAS_RS27980" class="clusterblast-orf" id="dummy-1_h1_4_22"  />
</g>
<g id="a1_0023"  >
<polygon points="558,85 563,80 571,80 571,90 563,90 558,85 " style="fill:white; stroke-width:1; stroke:black; " description="&lt;b&gt;SNAS_RS27975&lt;/b&gt;&lt;br&gt;hypothetical protein&lt;br&gt;Location: 6012900 - 6012229" locus_tag="SNAS_RS27975" class="clusterblast-orf" id="dummy-1_h1_4_23"  />
</g>
<g id="a1_0024"  >
<polygon points="572,85 577,80 596,80 596,90 577,90 572,85 " style="fill:white; stroke-width:1; stroke:black; " description="&lt;b&gt;SNAS_RS27970&lt;/b&gt;&lt;br&gt;radical SAM protein&lt;br&gt;Location: 6012184 - 6010898" locus_tag="SNAS_RS27970" class="clusterblast-orf" id="dummy-1_h1_4_24"  />
</g>
<g id="a1_0025"  >
<polygon points="605,85 610,80 617,80 617,90 610,90 605,85 " style="fill:white; stroke-width:1; stroke:black; " description="&lt;b&gt;SNAS_RS27965&lt;/b&gt;&lt;br&gt;NAD(P)H-binding protein&lt;br&gt;Location: 6010463 - 6009795" locus_tag="SNAS_RS27965" class="clusterblast-orf" id="dummy-1_h1_4_25"  />
</g>
<g id="a1_0026"  >
<polygon points="618,85 623,80 626,80 626,90 623,90 618,85 " style="fill:white; stroke-width:1; stroke:black; " description="&lt;b&gt;SNAS_RS27960&lt;/b&gt;&lt;br&gt;VOC family protein&lt;br&gt;Location: 6009767 - 6009336" locus_tag="SNAS_RS27960" class="clusterblast-orf" id="dummy-1_h1_4_26"  />
</g>
<g id="a1_0027"  >
<polygon points="628,90 635,90 640,85 635,80 628,80 628,90 " style="fill:white; stroke-width:1; stroke:black; " description="&lt;b&gt;SNAS_RS27955&lt;/b&gt;&lt;br&gt;GntR family transcriptional regulator&lt;br&gt;Location: 6009257 - 6008598" locus_tag="SNAS_RS27955" class="clusterblast-orf" id="dummy-1_h1_4_27"  />
</g>
<g id="a1_0028"  >
<polygon points="648,90 675,90 680,85 675,80 648,80 648,90 " style="fill:white; stroke-width:1; stroke:black; " description="&lt;b&gt;SNAS_RS27950&lt;/b&gt;&lt;br&gt;acyl-CoA dehydrogenase family protein&lt;br&gt;Location: 6008188 - 6006560" locus_tag="SNAS_RS27950" class="clusterblast-orf" id="dummy-1_h1_4_28"  />
</g>
<g id="a1_0029"  >
<polygon points="681,90 691,90 696,85 691,80 681,80 681,90 " style="fill:white; stroke-width:1; stroke:black; " description="&lt;b&gt;SNAS_RS27945&lt;/b&gt;&lt;br&gt;DUF4097 family beta strand repeat protein&lt;br&gt;Location: 6006511 - 6005711" locus_tag="SNAS_RS27945" class="clusterblast-orf" id="dummy-1_h1_4_29"  />
</g>
<g id="a1_0030"  >
<polygon points="698,90 709,90 714,85 709,80 698,80 698,90 " style="fill:white; stroke-width:1; stroke:black; " description="&lt;b&gt;SNAS_RS33435&lt;/b&gt;&lt;br&gt;DUF4097 family beta strand repeat protein&lt;br&gt;Location: 6005590 - 6004781" locus_tag="SNAS_RS33435" class="clusterblast-orf" id="dummy-1_h1_4_30"  />
</g>
<g id="a1_0031"  >
<polygon points="717,90 737,90 742,85 737,80 717,80 717,90 " style="fill:white; stroke-width:1; stroke:black; " description="&lt;b&gt;SNAS_RS27935&lt;/b&gt;&lt;br&gt;sensor histidine kinase&lt;br&gt;Location: 6004633 - 6003332" locus_tag="SNAS_RS27935" class="clusterblast-orf" id="dummy-1_h1_4_31"  />
</g>
<g id="a1_0032"  >
<polygon points="743,90 760,90 765,85 760,80 743,80 743,90 " style="fill:white; stroke-width:1; stroke:black; " description="&lt;b&gt;SNAS_RS33430&lt;/b&gt;&lt;br&gt;DUF2332 family protein&lt;br&gt;Location: 6003245 - 6002127" locus_tag="SNAS_RS33430" class="clusterblast-orf" id="dummy-1_h1_4_32"  />
</g>
<g id="a1_0033"  >
<polygon points="767,90 775,90 780,85 775,80 767,80 767,90 " style="fill:white; stroke-width:1; stroke:black; " description="&lt;b&gt;SNAS_RS27925&lt;/b&gt;&lt;br&gt;response regulator transcription factor&lt;br&gt;Location: 6002002 - 6001358" locus_tag="SNAS_RS27925" class="clusterblast-orf" id="dummy-1_h1_4_33"  />
</g>
</svg>
