<svg xmlns="http://www.w3.org/2000/svg" xmlns:xlink="http://www.w3.org/1999/xlink" version="1.1" x="0" y="0" height="230" width="800" viewBox="0 0 800 230" preserveAspectRatio="none"  >
<g label="Query sequence" class="clusterblast-cluster"  >
<text x="5" y="20" class="clusterblast-acc"  >
Query sequence</text>
<line x1="10" y1="35" x2="778.0" y2="35" style="stroke-width:1; stroke:grey; "  />
<polygon points="0,40 37,40 42,35 37,30 0,30 0,40 " style="fill:white; stroke-width:1; stroke:black; " description="&lt;b&gt;ctg69_81&lt;/b&gt;&lt;br&gt;ctg69 81&lt;br&gt;Location: 111234 - 111750" locus_tag="ctg69_81" class="clusterblast-orf" id="dummy-1_q0_0_all"  />
<polygon points="61,35 66,30 181,30 181,40 66,40 61,35 " style="fill:#d81515; stroke-width:1; stroke:black; " description="&lt;b&gt;ctg69_82&lt;/b&gt;&lt;br&gt;ctg69 82&lt;br&gt;Location: 111992 - 113492" locus_tag="ctg69_82" class="clusterblast-orf" id="dummy-1_q1_0_all"  />
<polygon points="189,40 256,40 261,35 256,30 189,30 189,40 " style="fill:white; stroke-width:1; stroke:black; " description="&lt;b&gt;ctg69_83&lt;/b&gt;&lt;br&gt;ctg69 83&lt;br&gt;Location: 113595 - 114498" locus_tag="ctg69_83" class="clusterblast-orf" id="dummy-1_q2_0_all"  />
<polygon points="267,35 272,30 380,30 380,40 272,40 267,35 " style="fill:#15d815; stroke-width:1; stroke:black; " description="&lt;b&gt;ctg69_84&lt;/b&gt;&lt;br&gt;ctg69 84&lt;br&gt;Location: 114572 - 115979" locus_tag="ctg69_84" class="clusterblast-orf" id="dummy-1_q3_0_all"  />
<polygon points="393,35 398,30 423,30 423,40 398,40 393,35 " style="fill:#1515d8; stroke-width:1; stroke:black; " description="&lt;b&gt;ctg69_85&lt;/b&gt;&lt;br&gt;ctg69 85&lt;br&gt;Location: 116140 - 116524" locus_tag="ctg69_85" class="clusterblast-orf" id="dummy-1_q4_0_all"  />
<polygon points="424,35 429,30 527,30 527,40 429,40 424,35 " style="fill:#d815d8; stroke-width:1; stroke:black; " description="&lt;b&gt;ctg69_86&lt;/b&gt;&lt;br&gt;ctg69 86&lt;br&gt;Location: 116529 - 117819" locus_tag="ctg69_86" class="clusterblast-orf" id="dummy-1_q5_0_all"  />
<polygon points="534,35 539,30 578,30 578,40 539,40 534,35 " style="fill:#d8d815; stroke-width:1; stroke:black; " description="&lt;b&gt;ctg69_87&lt;/b&gt;&lt;br&gt;ctg69 87&lt;br&gt;Location: 117914 - 118457" locus_tag="ctg69_87" class="clusterblast-orf" id="dummy-1_q6_0_all"  />
<polygon points="600,40 633,40 638,35 633,30 600,30 600,40 " style="fill:#15d8d8; stroke-width:1; stroke:black; " description="&lt;b&gt;ctg69_88&lt;/b&gt;&lt;br&gt;ctg69 88&lt;br&gt;Location: 118736 - 119213" locus_tag="ctg69_88" class="clusterblast-orf" id="dummy-1_q7_0_all"  />
<polygon points="645,40 704,40 709,35 704,30 645,30 645,40 " style="fill:white; stroke-width:1; stroke:black; " description="&lt;b&gt;ctg69_89&lt;/b&gt;&lt;br&gt;ctg69 89&lt;br&gt;Location: 119292 - 120102" locus_tag="ctg69_89" class="clusterblast-orf" id="dummy-1_q8_0_all"  />
<polygon points="712,35 717,30 780,30 780,40 717,40 712,35 " style="fill:white; stroke-width:1; stroke:black; " description="&lt;b&gt;ctg69_90&lt;/b&gt;&lt;br&gt;ctg69 90&lt;br&gt;Location: 120141 - 120990" locus_tag="ctg69_90" class="clusterblast-orf" id="dummy-1_q9_0_all"  />
</g>
<g label="NZ_LXYH01000056" description="NZ_LXYH01000056 (3698-14082): Rhodobacteraceae bacterium EhC02 A5 Contig6, wh... (50% of genes show similarity), ectoine" class="clusterblast-cluster"  >
<text x="5" y="70" class="clusterblast-acc"  >
<a xlink:href="https://antismash-db.secondarymetabolites.org/area.html?record=NZ_LXYH01000056&amp;start=3698&amp;end=14082" target="_blank">NZ_LXYH01000056 (3698-14082)</a>: Rhodobacteraceae bacterium EhC02 A5 Contig6, wh... (50% of genes show similarity), ectoine</text>
<line x1="10" y1="85" x2="778.0" y2="85" style="stroke-width:1; stroke:grey; "  />
</g>
<g id="a1_000"  >
<polygon points="34,85 39,80 99,80 99,90 39,90 34,85 " style="fill:white; stroke-width:1; stroke:black; " description="&lt;b&gt;A8B83_RS17845&lt;/b&gt;&lt;br&gt;bifunctional hydroxymethylpyrimidine kinase/phosphomethylpyrimidine kinase&lt;br&gt;Location: 13315 - 12512" locus_tag="A8B83_RS17845" class="clusterblast-orf" id="dummy-1_h1_4_0"  />
</g>
<g id="a1_001"  >
<polygon points="116,85 121,80 191,80 191,90 121,90 116,85 " style="fill:white; stroke-width:1; stroke:black; " description="&lt;b&gt;A8B83_RS17840&lt;/b&gt;&lt;br&gt;MBL fold metallo-hydrolase&lt;br&gt;Location: 12296 - 11361" locus_tag="A8B83_RS17840" class="clusterblast-orf" id="dummy-1_h1_4_1"  />
</g>
<g id="a1_002"  >
<polygon points="201,90 243,90 248,85 243,80 201,80 201,90 " style="fill:white; stroke-width:1; stroke:black; " description="&lt;b&gt;A8B83_RS17835&lt;/b&gt;&lt;br&gt;methyltransferase domain-containing protein&lt;br&gt;Location: 11236 - 10643" locus_tag="A8B83_RS17835" class="clusterblast-orf" id="dummy-1_h1_4_2"  />
</g>
<g id="a1_003"  >
<polygon points="252,85 257,80 367,80 367,90 257,90 252,85 " style="fill:#15d815; stroke-width:1; stroke:black; " description="&lt;b&gt;A8B83_RS17830&lt;/b&gt;&lt;br&gt;aspartate kinase&lt;br&gt;Location: 10591 - 9158&lt;br&gt;&lt;br&gt;&lt;b&gt;BlastP hit with ctg69_84&lt;/b&gt;&lt;br&gt;Percentage identity: 76&lt;br&gt;Percentage coverage: 97&lt;br&gt;BLAST bit score: 690&lt;br&gt;E-value: 2.29e-248" locus_tag="A8B83_RS17830" class="clusterblast-orf" id="dummy-1_h1_4_3"  />
</g>
<g id="a1_004"  >
<polygon points="373,85 378,80 403,80 403,90 378,90 373,85 " style="fill:#1515d8; stroke-width:1; stroke:black; " description="&lt;b&gt;A8B83_RS17825&lt;/b&gt;&lt;br&gt;ectoine synthase&lt;br&gt;Location: 9082 - 8699&lt;br&gt;&lt;br&gt;&lt;b&gt;BlastP hit with ctg69_85&lt;/b&gt;&lt;br&gt;Percentage identity: 81&lt;br&gt;Percentage coverage: 100&lt;br&gt;BLAST bit score: 221&lt;br&gt;E-value: 5.07e-74" locus_tag="A8B83_RS17825" class="clusterblast-orf" id="dummy-1_h1_4_4"  />
</g>
<g id="a1_005"  >
<polygon points="404,85 409,80 508,80 508,90 409,90 404,85 " style="fill:#d815d8; stroke-width:1; stroke:black; " description="&lt;b&gt;A8B83_RS17820&lt;/b&gt;&lt;br&gt;diaminobutyrate--2-oxoglutarate transaminase&lt;br&gt;Location: 8692 - 7388&lt;br&gt;&lt;br&gt;&lt;b&gt;BlastP hit with ctg69_86&lt;/b&gt;&lt;br&gt;Percentage identity: 76&lt;br&gt;Percentage coverage: 97&lt;br&gt;BLAST bit score: 628&lt;br&gt;E-value: 4.63e-225" locus_tag="A8B83_RS17820" class="clusterblast-orf" id="dummy-1_h1_4_5"  />
</g>
<g id="a1_006"  >
<polygon points="511,85 516,80 559,80 559,90 516,90 511,85 " style="fill:#d8d815; stroke-width:1; stroke:black; " description="&lt;b&gt;A8B83_RS17815&lt;/b&gt;&lt;br&gt;diaminobutyrate acetyltransferase&lt;br&gt;Location: 7357 - 6755&lt;br&gt;&lt;br&gt;&lt;b&gt;BlastP hit with ctg69_87&lt;/b&gt;&lt;br&gt;Percentage identity: 61&lt;br&gt;Percentage coverage: 93&lt;br&gt;BLAST bit score: 226&lt;br&gt;E-value: 2.42e-74" locus_tag="A8B83_RS17815" class="clusterblast-orf" id="dummy-1_h1_4_6"  />
</g>
<g id="a1_007"  >
<polygon points="581,90 614,90 619,85 614,80 581,80 581,90 " style="fill:#15d8d8; stroke-width:1; stroke:black; " description="&lt;b&gt;A8B83_RS17810&lt;/b&gt;&lt;br&gt;MarR family transcriptional regulator&lt;br&gt;Location: 6479 - 6003&lt;br&gt;&lt;br&gt;&lt;b&gt;BlastP hit with ctg69_88&lt;/b&gt;&lt;br&gt;Percentage identity: 53&lt;br&gt;Percentage coverage: 95&lt;br&gt;BLAST bit score: 149&lt;br&gt;E-value: 9.21e-45" locus_tag="A8B83_RS17810" class="clusterblast-orf" id="dummy-1_h1_4_7"  />
</g>
<g id="a1_008"  >
<polygon points="627,90 697,90 702,85 697,80 627,80 627,90 " style="fill:white; stroke-width:1; stroke:black; " description="&lt;b&gt;A8B83_RS17805&lt;/b&gt;&lt;br&gt;pirin family protein&lt;br&gt;Location: 5905 - 4967" locus_tag="A8B83_RS17805" class="clusterblast-orf" id="dummy-1_h1_4_8"  />
</g>
<g id="a1_009"  >
<polygon points="727,90 740,90 745,85 740,80 727,80 727,90 " style="fill:white; stroke-width:1; stroke:black; " description="&lt;b&gt;A8B83_RS17790&lt;/b&gt;&lt;br&gt;RND transporter&lt;br&gt;Location: 4650 - 4432" locus_tag="A8B83_RS17790" class="clusterblast-orf" id="dummy-1_h1_4_9"  />
</g>
</svg>
