<svg xmlns="http://www.w3.org/2000/svg" xmlns:xlink="http://www.w3.org/1999/xlink" version="1.1" x="0" y="0" height="230" width="800" viewBox="0 0 800 230" preserveAspectRatio="none"  >
<g label="Query sequence" class="clusterblast-cluster"  >
<text x="5" y="20" class="clusterblast-acc"  >
Query sequence</text>
<line x1="10" y1="35" x2="778.0" y2="35" style="stroke-width:1; stroke:grey; "  />
<polygon points="0,40 6,40 11,35 6,30 0,30 0,40 " style="fill:white; stroke-width:1; stroke:black; " description="&lt;b&gt;LGINICCL_00960&lt;/b&gt;&lt;br&gt;hypothetical protein&lt;br&gt;Location: 66693 - 66972" locus_tag="LGINICCL_00960" class="clusterblast-orf" id="dummy-2_q0_0_all"  />
<polygon points="15,40 84,40 89,35 84,30 15,30 15,40 " style="fill:white; stroke-width:1; stroke:black; " description="&lt;b&gt;LGINICCL_00961&lt;/b&gt;&lt;br&gt;Aspartate--tRNA(Asp/Asn) ligase&lt;br&gt;Location: 67065 - 68928" locus_tag="LGINICCL_00961" class="clusterblast-orf" id="dummy-2_q1_0_all"  />
<polygon points="94,40 117,40 122,35 117,30 94,30 94,40 " style="fill:white; stroke-width:1; stroke:black; " description="&lt;b&gt;LGINICCL_00962&lt;/b&gt;&lt;br&gt;hypothetical protein&lt;br&gt;Location: 69071 - 69782" locus_tag="LGINICCL_00962" class="clusterblast-orf" id="dummy-2_q2_0_all"  />
<polygon points="126,35 131,30 157,30 157,40 131,40 126,35 " style="fill:white; stroke-width:1; stroke:black; " description="&lt;b&gt;LGINICCL_00963&lt;/b&gt;&lt;br&gt;hypothetical protein&lt;br&gt;Location: 69866 - 70652" locus_tag="LGINICCL_00963" class="clusterblast-orf" id="dummy-2_q3_0_all"  />
<polygon points="160,35 165,30 176,30 176,40 165,40 160,35 " style="fill:white; stroke-width:1; stroke:black; " description="&lt;b&gt;LGINICCL_00964&lt;/b&gt;&lt;br&gt;hypothetical protein&lt;br&gt;Location: 70740 - 71142" locus_tag="LGINICCL_00964" class="clusterblast-orf" id="dummy-2_q4_0_all"  />
<polygon points="176,35 181,30 197,30 197,40 181,40 176,35 " style="fill:white; stroke-width:1; stroke:black; " description="&lt;b&gt;LGINICCL_00965&lt;/b&gt;&lt;br&gt;hypothetical protein&lt;br&gt;Location: 71134 - 71650" locus_tag="LGINICCL_00965" class="clusterblast-orf" id="dummy-2_q5_0_all"  />
<polygon points="204,40 279,40 284,35 279,30 204,30 204,40 " style="fill:white; stroke-width:1; stroke:black; " description="&lt;b&gt;LGINICCL_00966&lt;/b&gt;&lt;br&gt;Transketolase 1&lt;br&gt;Location: 71848 - 73867" locus_tag="LGINICCL_00966" class="clusterblast-orf" id="dummy-2_q6_0_all"  />
<polygon points="292,35 297,30 329,30 329,40 297,40 292,35 " style="fill:white; stroke-width:1; stroke:black; " description="&lt;b&gt;LGINICCL_00967&lt;/b&gt;&lt;br&gt;Riboflavin transporter&lt;br&gt;Location: 74056 - 74986" locus_tag="LGINICCL_00967" class="clusterblast-orf" id="dummy-2_q7_0_all"  />
<polygon points="334,35 339,30 353,30 353,40 339,40 334,35 " style="fill:#d81515; stroke-width:1; stroke:black; " description="&lt;b&gt;LGINICCL_00968&lt;/b&gt;&lt;br&gt;Tryptophan-rich sensory protein&lt;br&gt;Location: 75126 - 75585" locus_tag="LGINICCL_00968" class="clusterblast-orf" id="dummy-2_q8_0_all"  />
<polygon points="354,35 359,30 395,30 395,40 359,40 354,35 " style="fill:#3cd815; stroke-width:1; stroke:black; " description="&lt;b&gt;LGINICCL_00969&lt;/b&gt;&lt;br&gt;hypothetical protein&lt;br&gt;Location: 75622 - 76666" locus_tag="LGINICCL_00969" class="clusterblast-orf" id="dummy-2_q9_0_all"  />
<polygon points="395,35 400,30 457,30 457,40 400,40 395,35 " style="fill:#1563d8; stroke-width:1; stroke:black; " description="&lt;b&gt;LGINICCL_00970&lt;/b&gt;&lt;br&gt;Phytoene desaturase (neurosporene-forming)&lt;br&gt;Location: 76662 - 78216" locus_tag="LGINICCL_00970" class="clusterblast-orf" id="dummy-2_q10_0_all"  />
<polygon points="462,40 486,40 491,35 486,30 462,30 462,40 " style="fill:#b115d8; stroke-width:1; stroke:black; " description="&lt;b&gt;LGINICCL_00971&lt;/b&gt;&lt;br&gt;Spheroidene monooxygenase&lt;br&gt;Location: 78343 - 79063" locus_tag="LGINICCL_00971" class="clusterblast-orf" id="dummy-2_q11_0_all"  />
<polygon points="490,40 525,40 530,35 525,30 490,30 490,40 " style="fill:#d88a15; stroke-width:1; stroke:black; " description="&lt;b&gt;LGINICCL_00972&lt;/b&gt;&lt;br&gt;Magnesium-chelatase 38 kDa subunit&lt;br&gt;Location: 79059 - 80064" locus_tag="LGINICCL_00972" class="clusterblast-orf" id="dummy-2_q12_0_all"  />
<polygon points="535,40 599,40 604,35 599,30 535,30 535,40 " style="fill:#15d863; stroke-width:1; stroke:black; " description="&lt;b&gt;LGINICCL_00973&lt;/b&gt;&lt;br&gt;Magnesium-chelatase 60 kDa subunit&lt;br&gt;Location: 80191 - 81919" locus_tag="LGINICCL_00973" class="clusterblast-orf" id="dummy-2_q13_0_all"  />
<polygon points="604,40 633,40 638,35 633,30 604,30 604,40 " style="fill:#3c15d8; stroke-width:1; stroke:black; " description="&lt;b&gt;LGINICCL_00974&lt;/b&gt;&lt;br&gt;Lipase LipV&lt;br&gt;Location: 81923 - 82769" locus_tag="LGINICCL_00974" class="clusterblast-orf" id="dummy-2_q14_0_all"  />
<polygon points="646,40 677,40 682,35 677,30 646,30 646,40 " style="fill:#d8158a; stroke-width:1; stroke:black; " description="&lt;b&gt;LGINICCL_00975&lt;/b&gt;&lt;br&gt;1,4-dihydroxy-2-naphthoate octaprenyltransferase&lt;br&gt;Location: 82984 - 83899" locus_tag="LGINICCL_00975" class="clusterblast-orf" id="dummy-2_q15_0_all"  />
<polygon points="682,40 728,40 733,35 728,30 682,30 682,40 " style="fill:#b1d815; stroke-width:1; stroke:black; " description="&lt;b&gt;LGINICCL_00976&lt;/b&gt;&lt;br&gt;Protein PucC&lt;br&gt;Location: 83895 - 85173" locus_tag="LGINICCL_00976" class="clusterblast-orf" id="dummy-2_q16_0_all"  />
<polygon points="733,40 775,40 780,35 775,30 733,30 733,40 " style="fill:#15d8d8; stroke-width:1; stroke:black; " description="&lt;b&gt;LGINICCL_00977&lt;/b&gt;&lt;br&gt;hypothetical protein&lt;br&gt;Location: 85176 - 86358" locus_tag="LGINICCL_00977" class="clusterblast-orf" id="dummy-2_q17_0_all"  />
</g>
<g label="NZ_FZOV01000005" description="NZ_FZOV01000005 (171484-192552): Rhodobacter megalophilus strain DSM 18937, w... (52% of genes show similarity), terpene" class="clusterblast-cluster"  >
<text x="5" y="70" class="clusterblast-acc"  >
<a xlink:href="https://antismash-db.secondarymetabolites.org/area.html?record=NZ_FZOV01000005&amp;start=171484&amp;end=192552" target="_blank">NZ_FZOV01000005 (171484-192552)</a>: Rhodobacter megalophilus strain DSM 18937, w... (52% of genes show similarity), terpene</text>
<line x1="10" y1="85" x2="778.0" y2="85" style="stroke-width:1; stroke:grey; "  />
</g>
<g id="a2_000"  >
<polygon points="2,85 7,80 62,80 62,90 7,90 2,85 " style="fill:white; stroke-width:1; stroke:black; " description="&lt;b&gt;CHB89_RS15830&lt;/b&gt;&lt;br&gt;chlorophyllide a reductase subunit Y&lt;br&gt;Location: 191505 - 189997" locus_tag="CHB89_RS15830" class="clusterblast-orf" id="dummy-2_h2_10_0"  />
</g>
<g id="a2_001"  >
<polygon points="65,85 70,80 105,80 105,90 70,90 65,85 " style="fill:white; stroke-width:1; stroke:black; " description="&lt;b&gt;CHB89_RS15825&lt;/b&gt;&lt;br&gt;chlorophyllide a reductase iron protein subunit X&lt;br&gt;Location: 189921 - 188920" locus_tag="CHB89_RS15825" class="clusterblast-orf" id="dummy-2_h2_10_1"  />
</g>
<g id="a2_002"  >
<polygon points="105,85 110,80 143,80 143,90 110,90 105,85 " style="fill:white; stroke-width:1; stroke:black; " description="&lt;b&gt;CHB89_RS15820&lt;/b&gt;&lt;br&gt;chlorophyll synthesis pathway protein BchC&lt;br&gt;Location: 188923 - 187967" locus_tag="CHB89_RS15820" class="clusterblast-orf" id="dummy-2_h2_10_2"  />
</g>
<g id="a2_003"  >
<polygon points="149,85 154,80 194,80 194,90 154,90 149,85 " style="fill:white; stroke-width:1; stroke:black; " description="&lt;b&gt;CHB89_RS15815&lt;/b&gt;&lt;br&gt;SAM-dependent methyltransferase&lt;br&gt;Location: 187814 - 186675" locus_tag="CHB89_RS15815" class="clusterblast-orf" id="dummy-2_h2_10_3"  />
</g>
<g id="a2_004"  >
<polygon points="196,85 201,80 229,80 229,90 201,90 196,85 " style="fill:white; stroke-width:1; stroke:black; " description="&lt;b&gt;CHB89_RS15810&lt;/b&gt;&lt;br&gt;polyprenyl synthetase family protein&lt;br&gt;Location: 186622 - 185786" locus_tag="CHB89_RS15810" class="clusterblast-orf" id="dummy-2_h2_10_4"  />
</g>
<g id="a2_005"  >
<polygon points="236,90 290,90 295,85 290,80 236,80 236,90 " style="fill:white; stroke-width:1; stroke:black; " description="&lt;b&gt;CHB89_RS15805&lt;/b&gt;&lt;br&gt;phytoene desaturase&lt;br&gt;Location: 185611 - 184124" locus_tag="CHB89_RS15805" class="clusterblast-orf" id="dummy-2_h2_10_5"  />
</g>
<g id="a2_006"  >
<polygon points="298,90 326,90 331,85 326,80 298,80 298,90 " style="fill:white; stroke-width:1; stroke:black; " description="&lt;b&gt;CHB89_RS15800&lt;/b&gt;&lt;br&gt;carotenoid 1,2-hydratase&lt;br&gt;Location: 184058 - 183219" locus_tag="CHB89_RS15800" class="clusterblast-orf" id="dummy-2_h2_10_6"  />
</g>
<g id="a2_007"  >
<polygon points="337,85 342,80 356,80 356,90 342,90 337,85 " style="fill:#d81515; stroke-width:1; stroke:black; " description="&lt;b&gt;CHB89_RS15795&lt;/b&gt;&lt;br&gt;tryptophan-rich sensory protein&lt;br&gt;Location: 183060 - 182581&lt;br&gt;&lt;br&gt;&lt;b&gt;BlastP hit with LGINICCL_00968&lt;/b&gt;&lt;br&gt;Percentage identity: 58&lt;br&gt;Percentage coverage: 97&lt;br&gt;BLAST bit score: 179&lt;br&gt;E-value: 1.08e-56" locus_tag="CHB89_RS15795" class="clusterblast-orf" id="dummy-2_h2_10_7"  />
</g>
<g id="a2_008"  >
<polygon points="357,85 362,80 400,80 400,90 362,90 357,85 " style="fill:#3cd815; stroke-width:1; stroke:black; " description="&lt;b&gt;CHB89_RS15790&lt;/b&gt;&lt;br&gt;phytoene/squalene synthase family protein&lt;br&gt;Location: 182552 - 181485&lt;br&gt;&lt;br&gt;&lt;b&gt;BlastP hit with LGINICCL_00969&lt;/b&gt;&lt;br&gt;Percentage identity: 66&lt;br&gt;Percentage coverage: 101&lt;br&gt;BLAST bit score: 428&lt;br&gt;E-value: 6.72e-149" locus_tag="CHB89_RS15790" class="clusterblast-orf" id="dummy-2_h2_10_8"  />
</g>
<g id="a2_009"  >
<polygon points="400,85 405,80 461,80 461,90 405,90 400,85 " style="fill:#1563d8; stroke-width:1; stroke:black; " description="&lt;b&gt;CHB89_RS15785&lt;/b&gt;&lt;br&gt;phytoene desaturase&lt;br&gt;Location: 181488 - 179932&lt;br&gt;&lt;br&gt;&lt;b&gt;BlastP hit with LGINICCL_00970&lt;/b&gt;&lt;br&gt;Percentage identity: 72&lt;br&gt;Percentage coverage: 98&lt;br&gt;BLAST bit score: 748&lt;br&gt;E-value: 1.49e-269" locus_tag="CHB89_RS15785" class="clusterblast-orf" id="dummy-2_h2_10_9"  />
</g>
<g id="a2_0010"  >
<polygon points="467,90 501,90 506,85 501,80 467,80 467,90 " style="fill:#b115d8; stroke-width:1; stroke:black; " description="&lt;b&gt;CHB89_RS15780&lt;/b&gt;&lt;br&gt;hypothetical protein&lt;br&gt;Location: 179774 - 178800&lt;br&gt;&lt;br&gt;&lt;b&gt;BlastP hit with LGINICCL_00971&lt;/b&gt;&lt;br&gt;Percentage identity: 58&lt;br&gt;Percentage coverage: 101&lt;br&gt;BLAST bit score: 289&lt;br&gt;E-value: 2.41e-96" locus_tag="CHB89_RS15780" class="clusterblast-orf" id="dummy-2_h2_10_10"  />
</g>
<g id="a2_0011"  >
<polygon points="506,90 541,90 546,85 541,80 506,80 506,90 " style="fill:#d88a15; stroke-width:1; stroke:black; " description="&lt;b&gt;CHB89_RS15775&lt;/b&gt;&lt;br&gt;magnesium chelatase ATPase subunit I&lt;br&gt;Location: 178795 - 177791&lt;br&gt;&lt;br&gt;&lt;b&gt;BlastP hit with LGINICCL_00972&lt;/b&gt;&lt;br&gt;Percentage identity: 80&lt;br&gt;Percentage coverage: 100&lt;br&gt;BLAST bit score: 520&lt;br&gt;E-value: 1.72e-185" locus_tag="CHB89_RS15775" class="clusterblast-orf" id="dummy-2_h2_10_11"  />
</g>
<g id="a2_0012"  >
<polygon points="547,90 608,90 613,85 608,80 547,80 547,90 " style="fill:#15d863; stroke-width:1; stroke:black; " description="&lt;b&gt;CHB89_RS15770&lt;/b&gt;&lt;br&gt;magnesium chelatase subunit D&lt;br&gt;Location: 177776 - 176100&lt;br&gt;&lt;br&gt;&lt;b&gt;BlastP hit with LGINICCL_00973&lt;/b&gt;&lt;br&gt;Percentage identity: 60&lt;br&gt;Percentage coverage: 97&lt;br&gt;BLAST bit score: 541&lt;br&gt;E-value: 8.43e-187" locus_tag="CHB89_RS15770" class="clusterblast-orf" id="dummy-2_h2_10_12"  />
</g>
<g id="a2_0013"  >
<polygon points="613,90 643,90 648,85 643,80 613,80 613,90 " style="fill:#3c15d8; stroke-width:1; stroke:black; " description="&lt;b&gt;CHB89_RS15765&lt;/b&gt;&lt;br&gt;alpha/beta fold hydrolase&lt;br&gt;Location: 176097 - 175231&lt;br&gt;&lt;br&gt;&lt;b&gt;BlastP hit with LGINICCL_00974&lt;/b&gt;&lt;br&gt;Percentage identity: 53&lt;br&gt;Percentage coverage: 98&lt;br&gt;BLAST bit score: 271&lt;br&gt;E-value: 4.72e-89" locus_tag="CHB89_RS15765" class="clusterblast-orf" id="dummy-2_h2_10_13"  />
</g>
<g id="a2_0014"  >
<polygon points="658,85 663,80 679,80 679,90 663,90 658,85 " style="fill:white; stroke-width:1; stroke:black; " description="&lt;b&gt;CHB89_RS15760&lt;/b&gt;&lt;br&gt;isopentenyl-diphosphate Delta-isomerase&lt;br&gt;Location: 174982 - 174449" locus_tag="CHB89_RS15760" class="clusterblast-orf" id="dummy-2_h2_10_14"  />
</g>
<g id="a2_0015"  >
<polygon points="679,85 684,80 726,80 726,90 684,90 679,85 " style="fill:#15d8d8; stroke-width:1; stroke:black; " description="&lt;b&gt;CHB89_RS15755&lt;/b&gt;&lt;br&gt;geranylgeranyl diphosphate reductase&lt;br&gt;Location: 174446 - 173262&lt;br&gt;&lt;br&gt;&lt;b&gt;BlastP hit with LGINICCL_00977&lt;/b&gt;&lt;br&gt;Percentage identity: 78&lt;br&gt;Percentage coverage: 99&lt;br&gt;BLAST bit score: 609&lt;br&gt;E-value: 7.53e-219" locus_tag="CHB89_RS15755" class="clusterblast-orf" id="dummy-2_h2_10_15"  />
</g>
<g id="a2_0016"  >
<polygon points="726,85 731,80 777,80 777,90 731,90 726,85 " style="fill:#b1d815; stroke-width:1; stroke:black; " description="&lt;b&gt;CHB89_RS15750&lt;/b&gt;&lt;br&gt;PucC family protein&lt;br&gt;Location: 173259 - 171976&lt;br&gt;&lt;br&gt;&lt;b&gt;BlastP hit with LGINICCL_00976&lt;/b&gt;&lt;br&gt;Percentage identity: 62&lt;br&gt;Percentage coverage: 100&lt;br&gt;BLAST bit score: 452&lt;br&gt;E-value: 5.82e-156" locus_tag="CHB89_RS15750" class="clusterblast-orf" id="dummy-2_h2_10_16"  />
</g>
</svg>
