<svg xmlns="http://www.w3.org/2000/svg" xmlns:xlink="http://www.w3.org/1999/xlink" version="1.1" x="0" y="0" height="230" width="800" viewBox="0 0 800 230" preserveAspectRatio="none"  >
<g label="Query sequence" class="clusterblast-cluster"  >
<text x="5" y="20" class="clusterblast-acc"  >
Query sequence</text>
<line x1="10" y1="35" x2="778.0" y2="35" style="stroke-width:1; stroke:grey; "  />
<polygon points="284,35 289,30 318,30 318,40 289,40 284,35 " style="fill:white; stroke-width:1; stroke:black; " description="&lt;b&gt;LGINICCL_02018&lt;/b&gt;&lt;br&gt;Chromosome partition protein Smc&lt;br&gt;Location: 3725 - 5411" locus_tag="LGINICCL_02018" class="clusterblast-orf" id="dummy-1_q0_0_all"  />
<polygon points="322,40 339,40 344,35 339,30 322,30 322,40 " style="fill:white; stroke-width:1; stroke:black; " description="&lt;b&gt;LGINICCL_02019&lt;/b&gt;&lt;br&gt;hypothetical protein&lt;br&gt;Location: 5605 - 6715" locus_tag="LGINICCL_02019" class="clusterblast-orf" id="dummy-1_q1_0_all"  />
<polygon points="345,40 347,40 352,35 347,30 345,30 345,40 " style="fill:white; stroke-width:1; stroke:black; " description="&lt;b&gt;LGINICCL_02020&lt;/b&gt;&lt;br&gt;hypothetical protein&lt;br&gt;Location: 6728 - 7070" locus_tag="LGINICCL_02020" class="clusterblast-orf" id="dummy-1_q2_0_all"  />
<polygon points="351,40 351,40 356,35 351,30 351,30 351,40 " style="fill:white; stroke-width:1; stroke:black; " description="&lt;b&gt;LGINICCL_02021&lt;/b&gt;&lt;br&gt;hypothetical protein&lt;br&gt;Location: 7059 - 7284" locus_tag="LGINICCL_02021" class="clusterblast-orf" id="dummy-1_q3_0_all"  />
<polygon points="359,35 363,30 363,40 359,35 " style="fill:white; stroke-width:1; stroke:black; " description="&lt;b&gt;LGINICCL_02022&lt;/b&gt;&lt;br&gt;hypothetical protein&lt;br&gt;Location: 7427 - 7622" locus_tag="LGINICCL_02022" class="clusterblast-orf" id="dummy-1_q4_0_all"  />
<polygon points="368,40 390,40 395,35 390,30 368,30 368,40 " style="fill:#d81515; stroke-width:1; stroke:black; " description="&lt;b&gt;LGINICCL_02023&lt;/b&gt;&lt;br&gt;2-methylisocitrate lyase&lt;br&gt;Location: 7877 - 9179" locus_tag="LGINICCL_02023" class="clusterblast-orf" id="dummy-1_q5_0_all"  />
<polygon points="394,40 413,40 418,35 413,30 394,30 394,40 " style="fill:#15d815; stroke-width:1; stroke:black; " description="&lt;b&gt;LGINICCL_02024&lt;/b&gt;&lt;br&gt;hypothetical protein&lt;br&gt;Location: 9178 - 10315" locus_tag="LGINICCL_02024" class="clusterblast-orf" id="dummy-1_q6_0_all"  />
<polygon points="418,40 437,40 442,35 437,30 418,30 418,40 " style="fill:#1515d8; stroke-width:1; stroke:black; " description="&lt;b&gt;LGINICCL_02025&lt;/b&gt;&lt;br&gt;hypothetical protein&lt;br&gt;Location: 10360 - 11494" locus_tag="LGINICCL_02025" class="clusterblast-orf" id="dummy-1_q7_0_all"  />
<polygon points="442,40 491,40 496,35 491,30 442,30 442,40 " style="fill:white; stroke-width:1; stroke:black; " description="&lt;b&gt;LGINICCL_02026&lt;/b&gt;&lt;br&gt;hypothetical protein&lt;br&gt;Location: 11515 - 14158" locus_tag="LGINICCL_02026" class="clusterblast-orf" id="dummy-1_q8_0_all"  />
</g>
<g label="NZ_KQ033901" description="NZ_KQ033901 (249939-291253): Nitriliruptor alkaliphilus DSM 45188 NitalDRAFT ... (9% of genes show similarity), other" class="clusterblast-cluster"  >
<text x="5" y="70" class="clusterblast-acc"  >
<a xlink:href="https://antismash-db.secondarymetabolites.org/area.html?record=NZ_KQ033901&amp;start=249939&amp;end=291253" target="_blank">NZ_KQ033901 (249939-291253)</a>: Nitriliruptor alkaliphilus DSM 45188 NitalDRAFT ... (9% of genes show similarity), other</text>
<line x1="10" y1="85" x2="778.0" y2="85" style="stroke-width:1; stroke:grey; "  />
</g>
<g id="a1_000"  >
<polygon points="0,90 12,90 17,85 12,80 0,80 0,90 " style="fill:white; stroke-width:1; stroke:black; " description="&lt;b&gt;NITAL_RS01190&lt;/b&gt;&lt;br&gt;hypothetical protein&lt;br&gt;Location: 251210 - 252049" locus_tag="NITAL_RS01190" class="clusterblast-orf" id="dummy-1_h1_2_0"  />
</g>
<g id="a1_001"  >
<polygon points="16,90 34,90 39,85 34,80 16,80 16,90 " style="fill:white; stroke-width:1; stroke:black; " description="&lt;b&gt;NITAL_RS01195&lt;/b&gt;&lt;br&gt;hypothetical protein&lt;br&gt;Location: 252046 - 253158" locus_tag="NITAL_RS01195" class="clusterblast-orf" id="dummy-1_h1_2_1"  />
</g>
<g id="a1_002"  >
<polygon points="39,85 44,80 63,80 63,90 44,90 39,85 " style="fill:white; stroke-width:1; stroke:black; " description="&lt;b&gt;NITAL_RS01200&lt;/b&gt;&lt;br&gt;M48 family metallopeptidase&lt;br&gt;Location: 253179 - 254327" locus_tag="NITAL_RS01200" class="clusterblast-orf" id="dummy-1_h1_2_2"  />
</g>
<g id="a1_003"  >
<polygon points="63,85 68,80 75,80 75,90 68,90 63,85 " style="fill:white; stroke-width:1; stroke:black; " description="&lt;b&gt;NITAL_RS01205&lt;/b&gt;&lt;br&gt;LemA family protein&lt;br&gt;Location: 254324 - 254950" locus_tag="NITAL_RS01205" class="clusterblast-orf" id="dummy-1_h1_2_3"  />
</g>
<g id="a1_004"  >
<polygon points="78,90 97,90 102,85 97,80 78,80 78,90 " style="fill:white; stroke-width:1; stroke:black; " description="&lt;b&gt;NITAL_RS01210&lt;/b&gt;&lt;br&gt;S-layer homology domain-containing protein&lt;br&gt;Location: 255067 - 256278" locus_tag="NITAL_RS01210" class="clusterblast-orf" id="dummy-1_h1_2_4"  />
</g>
<g id="a1_005"  >
<polygon points="103,90 135,90 140,85 135,80 103,80 103,90 " style="fill:white; stroke-width:1; stroke:black; " description="&lt;b&gt;NITAL_RS01215&lt;/b&gt;&lt;br&gt;hypothetical protein&lt;br&gt;Location: 256329 - 258113" locus_tag="NITAL_RS01215" class="clusterblast-orf" id="dummy-1_h1_2_5"  />
</g>
<g id="a1_006"  >
<polygon points="142,90 191,90 196,85 191,80 142,80 142,90 " style="fill:white; stroke-width:1; stroke:black; " description="&lt;b&gt;NITAL_RS01220&lt;/b&gt;&lt;br&gt;tetratricopeptide repeat protein&lt;br&gt;Location: 258212 - 260887" locus_tag="NITAL_RS01220" class="clusterblast-orf" id="dummy-1_h1_2_6"  />
</g>
<g id="a1_007"  >
<polygon points="196,90 213,90 218,85 213,80 196,80 196,90 " style="fill:white; stroke-width:1; stroke:black; " description="&lt;b&gt;NITAL_RS01225&lt;/b&gt;&lt;br&gt;NTP transferase domain-containing protein&lt;br&gt;Location: 260905 - 261972" locus_tag="NITAL_RS01225" class="clusterblast-orf" id="dummy-1_h1_2_7"  />
</g>
<g id="a1_008"  >
<polygon points="219,85 224,80 233,80 233,90 224,90 219,85 " style="fill:white; stroke-width:1; stroke:black; " description="&lt;b&gt;NITAL_RS01230&lt;/b&gt;&lt;br&gt;NeuD/PglB/VioB family sugar acetyltransferase&lt;br&gt;Location: 262032 - 262688" locus_tag="NITAL_RS01230" class="clusterblast-orf" id="dummy-1_h1_2_8"  />
</g>
<g id="a1_009"  >
<polygon points="233,85 238,80 253,80 253,90 238,90 233,85 " style="fill:white; stroke-width:1; stroke:black; " description="&lt;b&gt;NITAL_RS01235&lt;/b&gt;&lt;br&gt;SDR family NAD(P)-dependent oxidoreductase&lt;br&gt;Location: 262700 - 263686" locus_tag="NITAL_RS01235" class="clusterblast-orf" id="dummy-1_h1_2_9"  />
</g>
<g id="a1_0010"  >
<polygon points="256,85 261,80 273,80 273,90 261,90 256,85 " style="fill:white; stroke-width:1; stroke:black; " description="&lt;b&gt;NITAL_RS01240&lt;/b&gt;&lt;br&gt;SDR family oxidoreductase&lt;br&gt;Location: 263839 - 264663" locus_tag="NITAL_RS01240" class="clusterblast-orf" id="dummy-1_h1_2_10"  />
</g>
<g id="a1_0011"  >
<polygon points="273,85 278,80 287,80 287,90 278,90 273,85 " style="fill:white; stroke-width:1; stroke:black; " description="&lt;b&gt;NITAL_RS01245&lt;/b&gt;&lt;br&gt;acylneuraminate cytidylyltransferase family protein&lt;br&gt;Location: 264660 - 265364" locus_tag="NITAL_RS01245" class="clusterblast-orf" id="dummy-1_h1_2_11"  />
</g>
<g id="a1_0012"  >
<polygon points="287,85 292,80 305,80 305,90 292,90 287,85 " style="fill:white; stroke-width:1; stroke:black; " description="&lt;b&gt;NITAL_RS01250&lt;/b&gt;&lt;br&gt;Gfo/Idh/MocA family oxidoreductase&lt;br&gt;Location: 265361 - 266275" locus_tag="NITAL_RS01250" class="clusterblast-orf" id="dummy-1_h1_2_12"  />
</g>
<g id="a1_0013"  >
<polygon points="309,90 327,90 332,85 327,80 309,80 309,90 " style="fill:white; stroke-width:1; stroke:black; " description="&lt;b&gt;NITAL_RS01255&lt;/b&gt;&lt;br&gt;DegT/DnrJ/EryC1/StrS family aminotransferase&lt;br&gt;Location: 266437 - 267582" locus_tag="NITAL_RS01255" class="clusterblast-orf" id="dummy-1_h1_2_13"  />
</g>
<g id="a1_0014"  >
<polygon points="332,90 350,90 355,85 350,80 332,80 332,90 " style="fill:white; stroke-width:1; stroke:black; " description="&lt;b&gt;NITAL_RS01260&lt;/b&gt;&lt;br&gt;UDP-N-acetylglucosamine 2-epimerase (hydrolyzing)&lt;br&gt;Location: 267582 - 268730" locus_tag="NITAL_RS01260" class="clusterblast-orf" id="dummy-1_h1_2_14"  />
</g>
<g id="a1_0015"  >
<polygon points="355,90 372,90 377,85 372,80 355,80 355,90 " style="fill:white; stroke-width:1; stroke:black; " description="&lt;b&gt;NITAL_RS01265&lt;/b&gt;&lt;br&gt;N-acetylneuraminate synthase&lt;br&gt;Location: 268740 - 269816" locus_tag="NITAL_RS01265" class="clusterblast-orf" id="dummy-1_h1_2_15"  />
</g>
<g id="a1_0016"  >
<polygon points="380,90 401,90 406,85 401,80 380,80 380,90 " style="fill:#d81515; stroke-width:1; stroke:black; " description="&lt;b&gt;NITAL_RS01270&lt;/b&gt;&lt;br&gt;phosphoenolpyruvate mutase&lt;br&gt;Location: 269940 - 271253&lt;br&gt;&lt;br&gt;&lt;b&gt;BlastP hit with LGINICCL_02023&lt;/b&gt;&lt;br&gt;Percentage identity: 67&lt;br&gt;Percentage coverage: 99&lt;br&gt;BLAST bit score: 587&lt;br&gt;E-value: 1.13e-208" locus_tag="NITAL_RS01270" class="clusterblast-orf" id="dummy-1_h1_2_16"  />
</g>
<g id="a1_0017"  >
<polygon points="406,90 425,90 430,85 425,80 406,80 406,90 " style="fill:#15d815; stroke-width:1; stroke:black; " description="&lt;b&gt;NITAL_RS01275&lt;/b&gt;&lt;br&gt;phosphonopyruvate decarboxylase&lt;br&gt;Location: 271250 - 272395&lt;br&gt;&lt;br&gt;&lt;b&gt;BlastP hit with LGINICCL_02024&lt;/b&gt;&lt;br&gt;Percentage identity: 52&lt;br&gt;Percentage coverage: 99&lt;br&gt;BLAST bit score: 350&lt;br&gt;E-value: 4.33e-117" locus_tag="NITAL_RS01275" class="clusterblast-orf" id="dummy-1_h1_2_17"  />
</g>
<g id="a1_0018"  >
<polygon points="430,90 448,90 453,85 448,80 430,80 430,90 " style="fill:#1515d8; stroke-width:1; stroke:black; " description="&lt;b&gt;NITAL_RS01280&lt;/b&gt;&lt;br&gt;phosphonoacetaldehyde reductase&lt;br&gt;Location: 272416 - 273561&lt;br&gt;&lt;br&gt;&lt;b&gt;BlastP hit with LGINICCL_02025&lt;/b&gt;&lt;br&gt;Percentage identity: 33&lt;br&gt;Percentage coverage: 83&lt;br&gt;BLAST bit score: 103&lt;br&gt;E-value: 9.13e-23" locus_tag="NITAL_RS01280" class="clusterblast-orf" id="dummy-1_h1_2_18"  />
</g>
<g id="a1_0019"  >
<polygon points="453,90 495,90 500,85 495,80 453,80 453,90 " style="fill:white; stroke-width:1; stroke:black; " description="&lt;b&gt;NITAL_RS01285&lt;/b&gt;&lt;br&gt;glycosyltransferase family 2 protein&lt;br&gt;Location: 273561 - 275849" locus_tag="NITAL_RS01285" class="clusterblast-orf" id="dummy-1_h1_2_19"  />
</g>
<g id="a1_0020"  >
<polygon points="500,85 505,80 533,80 533,90 505,90 500,85 " style="fill:white; stroke-width:1; stroke:black; " description="&lt;b&gt;NITAL_RS01290&lt;/b&gt;&lt;br&gt;hypothetical protein&lt;br&gt;Location: 275868 - 277460" locus_tag="NITAL_RS01290" class="clusterblast-orf" id="dummy-1_h1_2_20"  />
</g>
<g id="a1_0021"  >
<polygon points="534,85 539,80 562,80 562,90 539,90 534,85 " style="fill:white; stroke-width:1; stroke:black; " description="&lt;b&gt;NITAL_RS01295&lt;/b&gt;&lt;br&gt;tetratricopeptide repeat protein&lt;br&gt;Location: 277532 - 278923" locus_tag="NITAL_RS01295" class="clusterblast-orf" id="dummy-1_h1_2_21"  />
</g>
<g id="a1_0022"  >
<polygon points="566,90 576,90 581,85 576,80 566,80 566,90 " style="fill:white; stroke-width:1; stroke:black; " description="&lt;b&gt;NITAL_RS01300&lt;/b&gt;&lt;br&gt;class I SAM-dependent methyltransferase&lt;br&gt;Location: 279108 - 279851" locus_tag="NITAL_RS01300" class="clusterblast-orf" id="dummy-1_h1_2_22"  />
</g>
<g id="a1_0023"  >
<polygon points="582,90 586,90 591,85 586,80 582,80 582,90 " style="fill:white; stroke-width:1; stroke:black; " description="&lt;b&gt;NITAL_RS27730&lt;/b&gt;&lt;br&gt;hypothetical protein&lt;br&gt;Location: 279893 - 280318" locus_tag="NITAL_RS27730" class="clusterblast-orf" id="dummy-1_h1_2_23"  />
</g>
<g id="a1_0024"  >
<polygon points="591,90 605,90 610,85 605,80 591,80 591,90 " style="fill:white; stroke-width:1; stroke:black; " description="&lt;b&gt;NITAL_RS01310&lt;/b&gt;&lt;br&gt;glycosyltransferase&lt;br&gt;Location: 280315 - 281271" locus_tag="NITAL_RS01310" class="clusterblast-orf" id="dummy-1_h1_2_24"  />
</g>
<g id="a1_0025"  >
<polygon points="610,85 615,80 634,80 634,90 615,90 610,85 " style="fill:white; stroke-width:1; stroke:black; " description="&lt;b&gt;NITAL_RS01315&lt;/b&gt;&lt;br&gt;dTDP-4-amino-4,6-dideoxygalactose transaminase&lt;br&gt;Location: 281272 - 282450" locus_tag="NITAL_RS01315" class="clusterblast-orf" id="dummy-1_h1_2_25"  />
</g>
<g id="a1_0026"  >
<polygon points="634,85 639,80 649,80 649,90 639,90 634,85 " style="fill:white; stroke-width:1; stroke:black; " description="&lt;b&gt;NITAL_RS01320&lt;/b&gt;&lt;br&gt;GNAT family N-acetyltransferase&lt;br&gt;Location: 282447 - 283199" locus_tag="NITAL_RS01320" class="clusterblast-orf" id="dummy-1_h1_2_26"  />
</g>
<g id="a1_0027"  >
<polygon points="652,90 682,90 687,85 682,80 652,80 652,90 " style="fill:white; stroke-width:1; stroke:black; " description="&lt;b&gt;NITAL_RS01325&lt;/b&gt;&lt;br&gt;hypothetical protein&lt;br&gt;Location: 283353 - 285083" locus_tag="NITAL_RS01325" class="clusterblast-orf" id="dummy-1_h1_2_27"  />
</g>
<g id="a1_0028"  >
<polygon points="689,85 694,80 721,80 721,90 694,90 689,85 " style="fill:white; stroke-width:1; stroke:black; " description="&lt;b&gt;NITAL_RS01330&lt;/b&gt;&lt;br&gt;glutamine-hydrolyzing GMP synthase&lt;br&gt;Location: 285142 - 286719" locus_tag="NITAL_RS01330" class="clusterblast-orf" id="dummy-1_h1_2_28"  />
</g>
<g id="a1_0029"  >
<polygon points="720,85 725,80 743,80 743,90 725,90 720,85 " style="fill:white; stroke-width:1; stroke:black; " description="&lt;b&gt;NITAL_RS01335&lt;/b&gt;&lt;br&gt;O-antigen ligase family protein&lt;br&gt;Location: 286716 - 287822" locus_tag="NITAL_RS01335" class="clusterblast-orf" id="dummy-1_h1_2_29"  />
</g>
<g id="a1_0030"  >
<polygon points="743,85 748,80 766,80 766,90 748,90 743,85 " style="fill:white; stroke-width:1; stroke:black; " description="&lt;b&gt;NITAL_RS01340&lt;/b&gt;&lt;br&gt;GuaB3 family IMP dehydrogenase-related protein&lt;br&gt;Location: 287824 - 288936" locus_tag="NITAL_RS01340" class="clusterblast-orf" id="dummy-1_h1_2_30"  />
</g>
<g id="a1_0031"  >
<polygon points="768,90 775,90 780,85 775,80 768,80 768,90 " style="fill:white; stroke-width:1; stroke:black; " description="&lt;b&gt;NITAL_RS01345&lt;/b&gt;&lt;br&gt;DUF5319 family protein&lt;br&gt;Location: 289059 - 289622" locus_tag="NITAL_RS01345" class="clusterblast-orf" id="dummy-1_h1_2_31"  />
</g>
</svg>
