<svg xmlns="http://www.w3.org/2000/svg" xmlns:xlink="http://www.w3.org/1999/xlink" version="1.1" x="0" y="0" height="230" width="800" viewBox="0 0 800 230" preserveAspectRatio="none"  >
<g label="Query sequence" class="clusterblast-cluster"  >
<text x="5" y="20" class="clusterblast-acc"  >
Query sequence</text>
<line x1="10" y1="35" x2="778.0" y2="35" style="stroke-width:1; stroke:grey; "  />
<polygon points="356,35 361,30 367,30 367,40 361,40 356,35 " style="fill:white; stroke-width:1; stroke:black; " description="&lt;b&gt;LGINICCL_02018&lt;/b&gt;&lt;br&gt;Chromosome partition protein Smc&lt;br&gt;Location: 3725 - 5411" locus_tag="LGINICCL_02018" class="clusterblast-orf" id="dummy-1_q0_0_all"  />
<polygon points="368,40 370,40 375,35 370,30 368,30 368,40 " style="fill:white; stroke-width:1; stroke:black; " description="&lt;b&gt;LGINICCL_02019&lt;/b&gt;&lt;br&gt;hypothetical protein&lt;br&gt;Location: 5605 - 6715" locus_tag="LGINICCL_02019" class="clusterblast-orf" id="dummy-1_q1_0_all"  />
<polygon points="375,40 378,35 375,30 375,40 " style="fill:white; stroke-width:1; stroke:black; " description="&lt;b&gt;LGINICCL_02020&lt;/b&gt;&lt;br&gt;hypothetical protein&lt;br&gt;Location: 6728 - 7070" locus_tag="LGINICCL_02020" class="clusterblast-orf" id="dummy-1_q2_0_all"  />
<polygon points="378,40 379,35 378,30 378,40 " style="fill:white; stroke-width:1; stroke:black; " description="&lt;b&gt;LGINICCL_02021&lt;/b&gt;&lt;br&gt;hypothetical protein&lt;br&gt;Location: 7059 - 7284" locus_tag="LGINICCL_02021" class="clusterblast-orf" id="dummy-1_q3_0_all"  />
<polygon points="380,35 381,30 381,40 380,35 " style="fill:white; stroke-width:1; stroke:black; " description="&lt;b&gt;LGINICCL_02022&lt;/b&gt;&lt;br&gt;hypothetical protein&lt;br&gt;Location: 7427 - 7622" locus_tag="LGINICCL_02022" class="clusterblast-orf" id="dummy-1_q4_0_all"  />
<polygon points="383,40 386,40 391,35 386,30 383,30 383,40 " style="fill:#d81515; stroke-width:1; stroke:black; " description="&lt;b&gt;LGINICCL_02023&lt;/b&gt;&lt;br&gt;2-methylisocitrate lyase&lt;br&gt;Location: 7877 - 9179" locus_tag="LGINICCL_02023" class="clusterblast-orf" id="dummy-1_q5_0_all"  />
<polygon points="391,40 393,40 398,35 393,30 391,30 391,40 " style="fill:#15d815; stroke-width:1; stroke:black; " description="&lt;b&gt;LGINICCL_02024&lt;/b&gt;&lt;br&gt;hypothetical protein&lt;br&gt;Location: 9178 - 10315" locus_tag="LGINICCL_02024" class="clusterblast-orf" id="dummy-1_q6_0_all"  />
<polygon points="399,40 401,40 406,35 401,30 399,30 399,40 " style="fill:#1515d8; stroke-width:1; stroke:black; " description="&lt;b&gt;LGINICCL_02025&lt;/b&gt;&lt;br&gt;hypothetical protein&lt;br&gt;Location: 10360 - 11494" locus_tag="LGINICCL_02025" class="clusterblast-orf" id="dummy-1_q7_0_all"  />
<polygon points="406,40 418,40 423,35 418,30 406,30 406,40 " style="fill:white; stroke-width:1; stroke:black; " description="&lt;b&gt;LGINICCL_02026&lt;/b&gt;&lt;br&gt;hypothetical protein&lt;br&gt;Location: 11515 - 14158" locus_tag="LGINICCL_02026" class="clusterblast-orf" id="dummy-1_q8_0_all"  />
</g>
<g label="NZ_CP023695" description="NZ_CP023695 (674759-797403): Streptomyces alboniger strain ATCC 12461 chromos... (4% of genes show similarity), NRPS,phosphonate,terpene" class="clusterblast-cluster"  >
<text x="5" y="70" class="clusterblast-acc"  >
<a xlink:href="https://antismash-db.secondarymetabolites.org/area.html?record=NZ_CP023695&amp;start=674759&amp;end=797403" target="_blank">NZ_CP023695 (674759-797403)</a>: Streptomyces alboniger strain ATCC 12461 chromos... (4% of genes show similarity), NRPS,phosphonate,terpene</text>
<line x1="10" y1="85" x2="778.0" y2="85" style="stroke-width:1; stroke:grey; "  />
</g>
<g id="a1_000"  >
<polygon points="0,90 1,90 6,85 1,80 0,80 0,90 " style="fill:white; stroke-width:1; stroke:black; " description="&lt;b&gt;CP975_RS03260&lt;/b&gt;&lt;br&gt;SDR family oxidoreductase&lt;br&gt;Location: 797403 - 796366" locus_tag="CP975_RS03260" class="clusterblast-orf" id="dummy-1_h1_8_0"  />
</g>
<g id="a1_001"  >
<polygon points="6,90 9,90 14,85 9,80 6,80 6,90 " style="fill:white; stroke-width:1; stroke:black; " description="&lt;b&gt;CP975_RS03255&lt;/b&gt;&lt;br&gt;DUF4910 domain-containing protein&lt;br&gt;Location: 796378 - 795095" locus_tag="CP975_RS03255" class="clusterblast-orf" id="dummy-1_h1_8_1"  />
</g>
<g id="a1_002"  >
<polygon points="14,90 17,90 22,85 17,80 14,80 14,90 " style="fill:white; stroke-width:1; stroke:black; " description="&lt;b&gt;CP975_RS03250&lt;/b&gt;&lt;br&gt;hypothetical protein&lt;br&gt;Location: 795098 - 793815" locus_tag="CP975_RS03250" class="clusterblast-orf" id="dummy-1_h1_8_2"  />
</g>
<g id="a1_003"  >
<polygon points="22,90 23,90 28,85 23,80 22,80 22,90 " style="fill:white; stroke-width:1; stroke:black; " description="&lt;b&gt;CP975_RS03245&lt;/b&gt;&lt;br&gt;glycosyltransferase family 2 protein&lt;br&gt;Location: 793818 - 792871" locus_tag="CP975_RS03245" class="clusterblast-orf" id="dummy-1_h1_8_3"  />
</g>
<g id="a1_004"  >
<polygon points="28,90 31,90 36,85 31,80 28,80 28,90 " style="fill:white; stroke-width:1; stroke:black; " description="&lt;b&gt;CP975_RS03240&lt;/b&gt;&lt;br&gt;hypothetical protein&lt;br&gt;Location: 792874 - 791678" locus_tag="CP975_RS03240" class="clusterblast-orf" id="dummy-1_h1_8_4"  />
</g>
<g id="a1_005"  >
<polygon points="36,90 40,85 36,80 36,90 " style="fill:white; stroke-width:1; stroke:black; " description="&lt;b&gt;CP975_RS03235&lt;/b&gt;&lt;br&gt;dTDP-4-dehydrorhamnose 3,5-epimerase&lt;br&gt;Location: 791681 - 791112" locus_tag="CP975_RS03235" class="clusterblast-orf" id="dummy-1_h1_8_5"  />
</g>
<g id="a1_006"  >
<polygon points="40,90 43,90 48,85 43,80 40,80 40,90 " style="fill:white; stroke-width:1; stroke:black; " description="&lt;b&gt;CP975_RS03230&lt;/b&gt;&lt;br&gt;glutamate-1-semialdehyde 2,1-aminomutase&lt;br&gt;Location: 791103 - 789787" locus_tag="CP975_RS03230" class="clusterblast-orf" id="dummy-1_h1_8_6"  />
</g>
<g id="a1_007"  >
<polygon points="48,85 52,80 52,90 48,85 " style="fill:white; stroke-width:1; stroke:black; " description="&lt;b&gt;CP975_RS03225&lt;/b&gt;&lt;br&gt;phosphatase PAP2 family protein&lt;br&gt;Location: 789769 - 789071" locus_tag="CP975_RS03225" class="clusterblast-orf" id="dummy-1_h1_8_7"  />
</g>
<g id="a1_008"  >
<polygon points="53,85 58,80 59,80 59,90 58,90 53,85 " style="fill:white; stroke-width:1; stroke:black; " description="&lt;b&gt;CP975_RS03220&lt;/b&gt;&lt;br&gt;methyltransferase domain-containing protein&lt;br&gt;Location: 788951 - 788064" locus_tag="CP975_RS03220" class="clusterblast-orf" id="dummy-1_h1_8_8"  />
</g>
<g id="a1_009"  >
<polygon points="59,85 64,80 67,80 67,90 64,90 59,85 " style="fill:white; stroke-width:1; stroke:black; " description="&lt;b&gt;CP975_RS03215&lt;/b&gt;&lt;br&gt;2-methylisoborneol synthase&lt;br&gt;Location: 788032 - 786725" locus_tag="CP975_RS03215" class="clusterblast-orf" id="dummy-1_h1_8_9"  />
</g>
<g id="a1_0010"  >
<polygon points="68,85 73,80 77,80 77,90 73,90 68,85 " style="fill:white; stroke-width:1; stroke:black; " description="&lt;b&gt;CP975_RS03210&lt;/b&gt;&lt;br&gt;cyclic nucleotide-binding domain-containing protein&lt;br&gt;Location: 786686 - 785274" locus_tag="CP975_RS03210" class="clusterblast-orf" id="dummy-1_h1_8_10"  />
</g>
<g id="a1_0011"  >
<polygon points="79,90 81,85 79,80 79,90 " style="fill:white; stroke-width:1; stroke:black; " description="&lt;b&gt;CP975_RS03205&lt;/b&gt;&lt;br&gt;NAD(P)-binding protein&lt;br&gt;Location: 784851 - 784642" locus_tag="CP975_RS03205" class="clusterblast-orf" id="dummy-1_h1_8_11"  />
</g>
<g id="a1_0012"  >
<polygon points="83,90 83,90 88,85 83,80 83,80 83,90 " style="fill:white; stroke-width:1; stroke:black; " description="&lt;b&gt;CP975_RS03200&lt;/b&gt;&lt;br&gt;hypothetical protein&lt;br&gt;Location: 784228 - 783554" locus_tag="CP975_RS03200" class="clusterblast-orf" id="dummy-1_h1_8_12"  />
</g>
<g id="a1_0013"  >
<polygon points="88,85 90,80 90,90 88,85 " style="fill:white; stroke-width:1; stroke:black; " description="&lt;b&gt;CP975_RS03195&lt;/b&gt;&lt;br&gt;hypothetical protein&lt;br&gt;Location: 783499 - 783194" locus_tag="CP975_RS03195" class="clusterblast-orf" id="dummy-1_h1_8_13"  />
</g>
<g id="a1_0014"  >
<polygon points="90,85 94,80 94,90 90,85 " style="fill:white; stroke-width:1; stroke:black; " description="&lt;b&gt;CP975_RS03190&lt;/b&gt;&lt;br&gt;maleylpyruvate isomerase family mycothiol-dependent enzyme&lt;br&gt;Location: 783186 - 782563" locus_tag="CP975_RS03190" class="clusterblast-orf" id="dummy-1_h1_8_14"  />
</g>
<g id="a1_0015"  >
<polygon points="95,90 97,85 95,80 95,90 " style="fill:white; stroke-width:1; stroke:black; " description="&lt;b&gt;CP975_RS03185&lt;/b&gt;&lt;br&gt;MarR family transcriptional regulator&lt;br&gt;Location: 782447 - 782007" locus_tag="CP975_RS03185" class="clusterblast-orf" id="dummy-1_h1_8_15"  />
</g>
<g id="a1_0016"  >
<polygon points="97,85 102,80 102,80 102,90 102,90 97,85 " style="fill:white; stroke-width:1; stroke:black; " description="&lt;b&gt;CP975_RS03180&lt;/b&gt;&lt;br&gt;alpha/beta fold hydrolase&lt;br&gt;Location: 782000 - 781230" locus_tag="CP975_RS03180" class="clusterblast-orf" id="dummy-1_h1_8_16"  />
</g>
<g id="a1_0017"  >
<polygon points="103,85 107,80 107,90 103,85 " style="fill:white; stroke-width:1; stroke:black; " description="&lt;b&gt;CP975_RS03175&lt;/b&gt;&lt;br&gt;SDR family oxidoreductase&lt;br&gt;Location: 781177 - 780440" locus_tag="CP975_RS03175" class="clusterblast-orf" id="dummy-1_h1_8_17"  />
</g>
<g id="a1_0018"  >
<polygon points="108,85 113,80 114,80 114,90 113,90 108,85 " style="fill:white; stroke-width:1; stroke:black; " description="&lt;b&gt;CP975_RS03170&lt;/b&gt;&lt;br&gt;taurine catabolism dioxygenase TauD&lt;br&gt;Location: 780365 - 779346" locus_tag="CP975_RS03170" class="clusterblast-orf" id="dummy-1_h1_8_18"  />
</g>
<g id="a1_0019"  >
<polygon points="115,85 120,80 123,80 123,90 120,90 115,85 " style="fill:white; stroke-width:1; stroke:black; " description="&lt;b&gt;CP975_RS03165&lt;/b&gt;&lt;br&gt;MFS transporter&lt;br&gt;Location: 779257 - 777977" locus_tag="CP975_RS03165" class="clusterblast-orf" id="dummy-1_h1_8_19"  />
</g>
<g id="a1_0020"  >
<polygon points="123,85 128,80 149,80 149,90 128,90 123,85 " style="fill:white; stroke-width:1; stroke:black; " description="&lt;b&gt;CP975_RS03160&lt;/b&gt;&lt;br&gt;amino acid adenylation domain-containing protein&lt;br&gt;Location: 777980 - 773964" locus_tag="CP975_RS03160" class="clusterblast-orf" id="dummy-1_h1_8_20"  />
</g>
<g id="a1_0021"  >
<polygon points="149,85 154,80 189,80 189,90 154,90 149,85 " style="fill:white; stroke-width:1; stroke:black; " description="&lt;b&gt;CP975_RS03155&lt;/b&gt;&lt;br&gt;non-ribosomal peptide synthase&lt;br&gt;Location: 773867 - 767538" locus_tag="CP975_RS03155" class="clusterblast-orf" id="dummy-1_h1_8_21"  />
</g>
<g id="a1_0022"  >
<polygon points="190,85 195,80 196,80 196,90 195,90 190,85 " style="fill:white; stroke-width:1; stroke:black; " description="&lt;b&gt;CP975_RS03150&lt;/b&gt;&lt;br&gt;hypothetical protein&lt;br&gt;Location: 767475 - 766480" locus_tag="CP975_RS03150" class="clusterblast-orf" id="dummy-1_h1_8_22"  />
</g>
<g id="a1_0023"  >
<polygon points="196,85 201,80 203,80 203,90 201,90 196,85 " style="fill:white; stroke-width:1; stroke:black; " description="&lt;b&gt;CP975_RS03145&lt;/b&gt;&lt;br&gt;hypothetical protein&lt;br&gt;Location: 766483 - 765443" locus_tag="CP975_RS03145" class="clusterblast-orf" id="dummy-1_h1_8_23"  />
</g>
<g id="a1_0024"  >
<polygon points="203,85 204,80 204,90 203,85 " style="fill:white; stroke-width:1; stroke:black; " description="&lt;b&gt;CP975_RS03140&lt;/b&gt;&lt;br&gt;MbtH family protein&lt;br&gt;Location: 765416 - 765207" locus_tag="CP975_RS03140" class="clusterblast-orf" id="dummy-1_h1_8_24"  />
</g>
<g id="a1_0025"  >
<polygon points="207,85 212,80 213,80 213,90 212,90 207,85 " style="fill:white; stroke-width:1; stroke:black; " description="&lt;b&gt;CP975_RS03135&lt;/b&gt;&lt;br&gt;alpha-hydroxy-acid oxidizing protein&lt;br&gt;Location: 764852 - 763803" locus_tag="CP975_RS03135" class="clusterblast-orf" id="dummy-1_h1_8_25"  />
</g>
<g id="a1_0026"  >
<polygon points="214,85 215,80 215,90 214,85 " style="fill:white; stroke-width:1; stroke:black; " description="&lt;b&gt;CP975_RS03130&lt;/b&gt;&lt;br&gt;putative selenoprotein&lt;br&gt;Location: 763692 - 763507" locus_tag="CP975_RS03130" class="clusterblast-orf" id="dummy-1_h1_8_26"  />
</g>
<g id="a1_0027"  >
<polygon points="215,85 220,80 228,80 228,90 220,90 215,85 " style="fill:white; stroke-width:1; stroke:black; " description="&lt;b&gt;CP975_RS03125&lt;/b&gt;&lt;br&gt;carbon starvation protein A&lt;br&gt;Location: 763450 - 761423" locus_tag="CP975_RS03125" class="clusterblast-orf" id="dummy-1_h1_8_27"  />
</g>
<g id="a1_0028"  >
<polygon points="233,90 234,90 239,85 234,80 233,80 233,90 " style="fill:white; stroke-width:1; stroke:black; " description="&lt;b&gt;CP975_RS03120&lt;/b&gt;&lt;br&gt;TauD/TfdA family dioxygenase&lt;br&gt;Location: 760620 - 759787" locus_tag="CP975_RS03120" class="clusterblast-orf" id="dummy-1_h1_8_28"  />
</g>
<g id="a1_0029"  >
<polygon points="239,90 241,90 246,85 241,80 239,80 239,90 " style="fill:white; stroke-width:1; stroke:black; " description="&lt;b&gt;CP975_RS03115&lt;/b&gt;&lt;br&gt;glycerate kinase&lt;br&gt;Location: 759790 - 758627" locus_tag="CP975_RS03115" class="clusterblast-orf" id="dummy-1_h1_8_29"  />
</g>
<g id="a1_0030"  >
<polygon points="246,90 248,90 253,85 248,80 246,80 246,90 " style="fill:white; stroke-width:1; stroke:black; " description="&lt;b&gt;CP975_RS03110&lt;/b&gt;&lt;br&gt;Ldh family oxidoreductase&lt;br&gt;Location: 758630 - 757545" locus_tag="CP975_RS03110" class="clusterblast-orf" id="dummy-1_h1_8_30"  />
</g>
<g id="a1_0031"  >
<polygon points="253,90 255,90 260,85 255,80 253,80 253,90 " style="fill:white; stroke-width:1; stroke:black; " description="&lt;b&gt;CP975_RS03105&lt;/b&gt;&lt;br&gt;aminotransferase class I/II-fold pyridoxal phosphate-dependent enzyme&lt;br&gt;Location: 757548 - 756457" locus_tag="CP975_RS03105" class="clusterblast-orf" id="dummy-1_h1_8_31"  />
</g>
<g id="a1_0032"  >
<polygon points="260,90 261,90 266,85 261,80 260,80 260,90 " style="fill:#d81515; stroke-width:1; stroke:black; " description="&lt;b&gt;CP975_RS03100&lt;/b&gt;&lt;br&gt;phosphoenolpyruvate phosphomutase&lt;br&gt;Location: 756418 - 755531&lt;br&gt;&lt;br&gt;&lt;b&gt;BlastP hit with LGINICCL_02023&lt;/b&gt;&lt;br&gt;Percentage identity: 31&lt;br&gt;Percentage coverage: 66&lt;br&gt;BLAST bit score: 144&lt;br&gt;E-value: 1.09e-37" locus_tag="CP975_RS03100" class="clusterblast-orf" id="dummy-1_h1_8_32"  />
</g>
<g id="a1_0033"  >
<polygon points="266,90 268,90 273,85 268,80 266,80 266,90 " style="fill:#15d815; stroke-width:1; stroke:black; " description="&lt;b&gt;CP975_RS03095&lt;/b&gt;&lt;br&gt;phosphonopyruvate decarboxylase&lt;br&gt;Location: 755522 - 754386&lt;br&gt;&lt;br&gt;&lt;b&gt;BlastP hit with LGINICCL_02024&lt;/b&gt;&lt;br&gt;Percentage identity: 36&lt;br&gt;Percentage coverage: 100&lt;br&gt;BLAST bit score: 174&lt;br&gt;E-value: 7.22e-49" locus_tag="CP975_RS03095" class="clusterblast-orf" id="dummy-1_h1_8_33"  />
</g>
<g id="a1_0034"  >
<polygon points="273,90 275,90 280,85 275,80 273,80 273,90 " style="fill:#1515d8; stroke-width:1; stroke:black; " description="&lt;b&gt;CP975_RS03090&lt;/b&gt;&lt;br&gt;iron-containing alcohol dehydrogenase&lt;br&gt;Location: 754389 - 753223&lt;br&gt;&lt;br&gt;&lt;b&gt;BlastP hit with LGINICCL_02025&lt;/b&gt;&lt;br&gt;Percentage identity: 33&lt;br&gt;Percentage coverage: 93&lt;br&gt;BLAST bit score: 117&lt;br&gt;E-value: 2.07e-27" locus_tag="CP975_RS03090" class="clusterblast-orf" id="dummy-1_h1_8_34"  />
</g>
<g id="a1_0035"  >
<polygon points="280,90 289,90 294,85 289,80 280,80 280,90 " style="fill:white; stroke-width:1; stroke:black; " description="&lt;b&gt;CP975_RS03085&lt;/b&gt;&lt;br&gt;aminotransferase class V-fold PLP-dependent enzyme&lt;br&gt;Location: 753230 - 751032" locus_tag="CP975_RS03085" class="clusterblast-orf" id="dummy-1_h1_8_35"  />
</g>
<g id="a1_0036"  >
<polygon points="295,90 299,85 295,80 295,90 " style="fill:white; stroke-width:1; stroke:black; " description="&lt;b&gt;CP975_RS03080&lt;/b&gt;&lt;br&gt;methyltransferase domain-containing protein&lt;br&gt;Location: 750938 - 750378" locus_tag="CP975_RS03080" class="clusterblast-orf" id="dummy-1_h1_8_36"  />
</g>
<g id="a1_0037"  >
<polygon points="299,90 303,85 299,80 299,90 " style="fill:white; stroke-width:1; stroke:black; " description="&lt;b&gt;CP975_RS03075&lt;/b&gt;&lt;br&gt;aspartyl/asparaginyl beta-hydroxylase domain-containing protein&lt;br&gt;Location: 750323 - 749631" locus_tag="CP975_RS03075" class="clusterblast-orf" id="dummy-1_h1_8_37"  />
</g>
<g id="a1_0038"  >
<polygon points="304,90 307,90 312,85 307,80 304,80 304,90 " style="fill:white; stroke-width:1; stroke:black; " description="&lt;b&gt;CP975_RS03070&lt;/b&gt;&lt;br&gt;GNAT family N-acetyltransferase&lt;br&gt;Location: 749521 - 748259" locus_tag="CP975_RS03070" class="clusterblast-orf" id="dummy-1_h1_8_38"  />
</g>
<g id="a1_0039"  >
<polygon points="312,90 315,90 320,85 315,80 312,80 312,90 " style="fill:white; stroke-width:1; stroke:black; " description="&lt;b&gt;CP975_RS03065&lt;/b&gt;&lt;br&gt;MFS transporter&lt;br&gt;Location: 748262 - 747027" locus_tag="CP975_RS03065" class="clusterblast-orf" id="dummy-1_h1_8_39"  />
</g>
<g id="a1_0040"  >
<polygon points="320,90 320,90 325,85 320,80 320,80 320,90 " style="fill:white; stroke-width:1; stroke:black; " description="&lt;b&gt;CP975_RS03060&lt;/b&gt;&lt;br&gt;SDR family oxidoreductase&lt;br&gt;Location: 746937 - 746203" locus_tag="CP975_RS03060" class="clusterblast-orf" id="dummy-1_h1_8_40"  />
</g>
<g id="a1_0041"  >
<polygon points="326,90 332,90 337,85 332,80 326,80 326,90 " style="fill:white; stroke-width:1; stroke:black; " description="&lt;b&gt;CP975_RS03055&lt;/b&gt;&lt;br&gt;molecular chaperone HtpG&lt;br&gt;Location: 746111 - 744282" locus_tag="CP975_RS03055" class="clusterblast-orf" id="dummy-1_h1_8_41"  />
</g>
<g id="a1_0042"  >
<polygon points="338,85 343,80 351,80 351,90 343,90 338,85 " style="fill:white; stroke-width:1; stroke:black; " description="&lt;b&gt;CP975_RS03050&lt;/b&gt;&lt;br&gt;SpoIIE family protein phosphatase&lt;br&gt;Location: 744215 - 742137" locus_tag="CP975_RS03050" class="clusterblast-orf" id="dummy-1_h1_8_42"  />
</g>
<g id="a1_0043"  >
<polygon points="353,85 358,80 358,80 358,90 358,90 353,85 " style="fill:white; stroke-width:1; stroke:black; " description="&lt;b&gt;CP975_RS03045&lt;/b&gt;&lt;br&gt;formylglycine-generating enzyme family protein&lt;br&gt;Location: 741813 - 741076" locus_tag="CP975_RS03045" class="clusterblast-orf" id="dummy-1_h1_8_43"  />
</g>
<g id="a1_0044"  >
<polygon points="359,85 364,80 364,80 364,90 364,90 359,85 " style="fill:white; stroke-width:1; stroke:black; " description="&lt;b&gt;CP975_RS03040&lt;/b&gt;&lt;br&gt;SAM-dependent methyltransferase&lt;br&gt;Location: 740931 - 740089" locus_tag="CP975_RS03040" class="clusterblast-orf" id="dummy-1_h1_8_44"  />
</g>
<g id="a1_0045"  >
<polygon points="365,85 370,80 371,80 371,90 370,90 365,85 " style="fill:white; stroke-width:1; stroke:black; " description="&lt;b&gt;CP975_RS03035&lt;/b&gt;&lt;br&gt;SPFH/Band 7/PHB domain protein&lt;br&gt;Location: 739983 - 738928" locus_tag="CP975_RS03035" class="clusterblast-orf" id="dummy-1_h1_8_45"  />
</g>
<g id="a1_0046"  >
<polygon points="372,85 374,80 374,90 372,85 " style="fill:white; stroke-width:1; stroke:black; " description="&lt;b&gt;CP975_RS03030&lt;/b&gt;&lt;br&gt;NfeD family protein&lt;br&gt;Location: 738898 - 738461" locus_tag="CP975_RS03030" class="clusterblast-orf" id="dummy-1_h1_8_46"  />
</g>
<g id="a1_0047"  >
<polygon points="375,90 378,90 383,85 378,80 375,80 375,90 " style="fill:white; stroke-width:1; stroke:black; " description="&lt;b&gt;CP975_RS03025&lt;/b&gt;&lt;br&gt;cation transporter&lt;br&gt;Location: 738310 - 737027" locus_tag="CP975_RS03025" class="clusterblast-orf" id="dummy-1_h1_8_47"  />
</g>
<g id="a1_0048"  >
<polygon points="385,90 387,85 385,80 385,90 " style="fill:white; stroke-width:1; stroke:black; " description="&lt;b&gt;CP975_RS03020&lt;/b&gt;&lt;br&gt;GNAT family N-acetyltransferase&lt;br&gt;Location: 736859 - 736515" locus_tag="CP975_RS03020" class="clusterblast-orf" id="dummy-1_h1_8_48"  />
</g>
<g id="a1_0049"  >
<polygon points="393,90 396,90 401,85 396,80 393,80 393,90 " style="fill:white; stroke-width:1; stroke:black; " description="&lt;b&gt;CP975_RS03015&lt;/b&gt;&lt;br&gt;cytochrome P450&lt;br&gt;Location: 735508 - 734300" locus_tag="CP975_RS03015" class="clusterblast-orf" id="dummy-1_h1_8_49"  />
</g>
<g id="a1_0050"  >
<polygon points="401,90 405,90 410,85 405,80 401,80 401,90 " style="fill:white; stroke-width:1; stroke:black; " description="&lt;b&gt;CP975_RS03010&lt;/b&gt;&lt;br&gt;serine hydrolase&lt;br&gt;Location: 734198 - 732846" locus_tag="CP975_RS03010" class="clusterblast-orf" id="dummy-1_h1_8_50"  />
</g>
<g id="a1_0051"  >
<polygon points="416,90 531,90 536,85 531,80 416,80 416,90 " style="fill:white; stroke-width:1; stroke:black; " description="&lt;b&gt;CP975_RS03005&lt;/b&gt;&lt;br&gt;amino acid adenylation domain-containing protein&lt;br&gt;Location: 731872 - 713015" locus_tag="CP975_RS03005" class="clusterblast-orf" id="dummy-1_h1_8_51"  />
</g>
<g id="a1_0052"  >
<polygon points="536,90 659,90 664,85 659,80 536,80 536,90 " style="fill:white; stroke-width:1; stroke:black; " description="&lt;b&gt;CP975_RS03000&lt;/b&gt;&lt;br&gt;amino acid adenylation domain-containing protein&lt;br&gt;Location: 713001 - 692980" locus_tag="CP975_RS03000" class="clusterblast-orf" id="dummy-1_h1_8_52"  />
</g>
<g id="a1_0053"  >
<polygon points="665,90 666,85 665,80 665,90 " style="fill:white; stroke-width:1; stroke:black; " description="&lt;b&gt;CP975_RS02995&lt;/b&gt;&lt;br&gt;MbtH family NRPS accessory protein&lt;br&gt;Location: 692839 - 692633" locus_tag="CP975_RS02995" class="clusterblast-orf" id="dummy-1_h1_8_53"  />
</g>
<g id="a1_0054"  >
<polygon points="667,90 670,85 667,80 667,90 " style="fill:white; stroke-width:1; stroke:black; " description="&lt;b&gt;CP975_RS02990&lt;/b&gt;&lt;br&gt;GNAT family N-acetyltransferase&lt;br&gt;Location: 692501 - 691914" locus_tag="CP975_RS02990" class="clusterblast-orf" id="dummy-1_h1_8_54"  />
</g>
<g id="a1_0055"  >
<polygon points="670,90 673,90 678,85 673,80 670,80 670,90 " style="fill:white; stroke-width:1; stroke:black; " description="&lt;b&gt;CP975_RS02985&lt;/b&gt;&lt;br&gt;MFS transporter&lt;br&gt;Location: 691917 - 690670" locus_tag="CP975_RS02985" class="clusterblast-orf" id="dummy-1_h1_8_55"  />
</g>
<g id="a1_0056"  >
<polygon points="679,90 688,90 693,85 688,80 679,80 679,90 " style="fill:white; stroke-width:1; stroke:black; " description="&lt;b&gt;CP975_RS02980&lt;/b&gt;&lt;br&gt;hypothetical protein&lt;br&gt;Location: 690510 - 688360" locus_tag="CP975_RS02980" class="clusterblast-orf" id="dummy-1_h1_8_56"  />
</g>
<g id="a1_0057"  >
<polygon points="694,90 696,85 694,80 694,90 " style="fill:white; stroke-width:1; stroke:black; " description="&lt;b&gt;CP975_RS02975&lt;/b&gt;&lt;br&gt;hypothetical protein&lt;br&gt;Location: 688273 - 687851" locus_tag="CP975_RS02975" class="clusterblast-orf" id="dummy-1_h1_8_57"  />
</g>
<g id="a1_0058"  >
<polygon points="697,90 700,85 697,80 697,90 " style="fill:white; stroke-width:1; stroke:black; " description="&lt;b&gt;CP975_RS02970&lt;/b&gt;&lt;br&gt;MarR family transcriptional regulator&lt;br&gt;Location: 687796 - 687197" locus_tag="CP975_RS02970" class="clusterblast-orf" id="dummy-1_h1_8_58"  />
</g>
<g id="a1_0059"  >
<polygon points="700,85 705,80 707,80 707,90 705,90 700,85 " style="fill:white; stroke-width:1; stroke:black; " description="&lt;b&gt;CP975_RS02965&lt;/b&gt;&lt;br&gt;type I glyceraldehyde-3-phosphate dehydrogenase&lt;br&gt;Location: 687190 - 686186" locus_tag="CP975_RS02965" class="clusterblast-orf" id="dummy-1_h1_8_59"  />
</g>
<g id="a1_0060"  >
<polygon points="710,90 712,85 710,80 710,90 " style="fill:white; stroke-width:1; stroke:black; " description="&lt;b&gt;CP975_RS02955&lt;/b&gt;&lt;br&gt;hypothetical protein&lt;br&gt;Location: 685631 - 685356" locus_tag="CP975_RS02955" class="clusterblast-orf" id="dummy-1_h1_8_60"  />
</g>
<g id="a1_0061"  >
<polygon points="712,85 716,80 716,90 712,85 " style="fill:white; stroke-width:1; stroke:black; " description="&lt;b&gt;CP975_RS02950&lt;/b&gt;&lt;br&gt;GNAT family N-acetyltransferase&lt;br&gt;Location: 685312 - 684770" locus_tag="CP975_RS02950" class="clusterblast-orf" id="dummy-1_h1_8_61"  />
</g>
<g id="a1_0062"  >
<polygon points="717,90 725,90 730,85 725,80 717,80 717,90 " style="fill:white; stroke-width:1; stroke:black; " description="&lt;b&gt;CP975_RS02945&lt;/b&gt;&lt;br&gt;hypothetical protein&lt;br&gt;Location: 684595 - 682619" locus_tag="CP975_RS02945" class="clusterblast-orf" id="dummy-1_h1_8_62"  />
</g>
<g id="a1_0063"  >
<polygon points="730,90 735,90 740,85 735,80 730,80 730,90 " style="fill:white; stroke-width:1; stroke:black; " description="&lt;b&gt;CP975_RS02940&lt;/b&gt;&lt;br&gt;sigma-70 family RNA polymerase sigma factor&lt;br&gt;Location: 682484 - 680967" locus_tag="CP975_RS02940" class="clusterblast-orf" id="dummy-1_h1_8_63"  />
</g>
<g id="a1_0064"  >
<polygon points="741,90 751,90 756,85 751,80 741,80 741,90 " style="fill:white; stroke-width:1; stroke:black; " description="&lt;b&gt;CP975_RS02935&lt;/b&gt;&lt;br&gt;1,4-beta-xylanase&lt;br&gt;Location: 680786 - 678405" locus_tag="CP975_RS02935" class="clusterblast-orf" id="dummy-1_h1_8_64"  />
</g>
<g id="a1_0065"  >
<polygon points="757,90 766,90 771,85 766,80 757,80 757,90 " style="fill:white; stroke-width:1; stroke:black; " description="&lt;b&gt;CP975_RS02930&lt;/b&gt;&lt;br&gt;carbohydrate-binding protein&lt;br&gt;Location: 678356 - 676167" locus_tag="CP975_RS02930" class="clusterblast-orf" id="dummy-1_h1_8_65"  />
</g>
<g id="a1_0066"  >
<polygon points="774,90 776,85 774,80 774,90 " style="fill:white; stroke-width:1; stroke:black; " description="&lt;b&gt;CP975_RS02925&lt;/b&gt;&lt;br&gt;ATP-binding protein&lt;br&gt;Location: 675570 - 675361" locus_tag="CP975_RS02925" class="clusterblast-orf" id="dummy-1_h1_8_66"  />
</g>
<g id="a1_0067"  >
<polygon points="777,85 780,80 780,90 777,85 " style="fill:white; stroke-width:1; stroke:black; " description="&lt;b&gt;CP975_RS02920&lt;/b&gt;&lt;br&gt;protease inhibitor I42 family protein&lt;br&gt;Location: 675083 - 674760" locus_tag="CP975_RS02920" class="clusterblast-orf" id="dummy-1_h1_8_67"  />
</g>
</svg>
