<svg xmlns="http://www.w3.org/2000/svg" xmlns:xlink="http://www.w3.org/1999/xlink" version="1.1" x="0" y="0" height="230" width="800" viewBox="0 0 800 230" preserveAspectRatio="none"  >
<g label="Query sequence" class="clusterblast-cluster"  >
<text x="5" y="20" class="clusterblast-acc"  >
Query sequence</text>
<line x1="10" y1="35" x2="778.0" y2="35" style="stroke-width:1; stroke:grey; "  />
<polygon points="0,40 37,40 42,35 37,30 0,30 0,40 " style="fill:white; stroke-width:1; stroke:black; " description="&lt;b&gt;LGINICCL_02567&lt;/b&gt;&lt;br&gt;hypothetical protein&lt;br&gt;Location: 111234 - 111750" locus_tag="LGINICCL_02567" class="clusterblast-orf" id="dummy-1_q0_0_all"  />
<polygon points="61,35 66,30 181,30 181,40 66,40 61,35 " style="fill:#d81515; stroke-width:1; stroke:black; " description="&lt;b&gt;LGINICCL_02568&lt;/b&gt;&lt;br&gt;Putative 3-oxopropanoate dehydrogenase&lt;br&gt;Location: 111992 - 113492" locus_tag="LGINICCL_02568" class="clusterblast-orf" id="dummy-1_q1_0_all"  />
<polygon points="189,40 256,40 261,35 256,30 189,30 189,40 " style="fill:white; stroke-width:1; stroke:black; " description="&lt;b&gt;LGINICCL_02569&lt;/b&gt;&lt;br&gt;HTH-type transcriptional regulator HdfR&lt;br&gt;Location: 113595 - 114498" locus_tag="LGINICCL_02569" class="clusterblast-orf" id="dummy-1_q2_0_all"  />
<polygon points="267,35 272,30 380,30 380,40 272,40 267,35 " style="fill:#15d815; stroke-width:1; stroke:black; " description="&lt;b&gt;LGINICCL_02570&lt;/b&gt;&lt;br&gt;Aspartate kinase Ask Ect&lt;br&gt;Location: 114572 - 115979" locus_tag="LGINICCL_02570" class="clusterblast-orf" id="dummy-1_q3_0_all"  />
<polygon points="393,35 398,30 423,30 423,40 398,40 393,35 " style="fill:#1515d8; stroke-width:1; stroke:black; " description="&lt;b&gt;LGINICCL_02571&lt;/b&gt;&lt;br&gt;L-ectoine synthase&lt;br&gt;Location: 116140 - 116524" locus_tag="LGINICCL_02571" class="clusterblast-orf" id="dummy-1_q4_0_all"  />
<polygon points="424,35 429,30 527,30 527,40 429,40 424,35 " style="fill:#d815d8; stroke-width:1; stroke:black; " description="&lt;b&gt;LGINICCL_02572&lt;/b&gt;&lt;br&gt;Diaminobutyrate--2-oxoglutarate transaminase&lt;br&gt;Location: 116529 - 117819" locus_tag="LGINICCL_02572" class="clusterblast-orf" id="dummy-1_q5_0_all"  />
<polygon points="534,35 539,30 578,30 578,40 539,40 534,35 " style="fill:#d8d815; stroke-width:1; stroke:black; " description="&lt;b&gt;LGINICCL_02573&lt;/b&gt;&lt;br&gt;L-2,4-diaminobutyric acid acetyltransferase&lt;br&gt;Location: 117914 - 118457" locus_tag="LGINICCL_02573" class="clusterblast-orf" id="dummy-1_q6_0_all"  />
<polygon points="600,40 633,40 638,35 633,30 600,30 600,40 " style="fill:#15d8d8; stroke-width:1; stroke:black; " description="&lt;b&gt;LGINICCL_02574&lt;/b&gt;&lt;br&gt;hypothetical protein&lt;br&gt;Location: 118736 - 119213" locus_tag="LGINICCL_02574" class="clusterblast-orf" id="dummy-1_q7_0_all"  />
<polygon points="645,40 704,40 709,35 704,30 645,30 645,40 " style="fill:white; stroke-width:1; stroke:black; " description="&lt;b&gt;LGINICCL_02575&lt;/b&gt;&lt;br&gt;Serine acetyltransferase&lt;br&gt;Location: 119292 - 120102" locus_tag="LGINICCL_02575" class="clusterblast-orf" id="dummy-1_q8_0_all"  />
<polygon points="712,35 717,30 780,30 780,40 717,40 712,35 " style="fill:white; stroke-width:1; stroke:black; " description="&lt;b&gt;LGINICCL_02576&lt;/b&gt;&lt;br&gt;hypothetical protein&lt;br&gt;Location: 120141 - 120990" locus_tag="LGINICCL_02576" class="clusterblast-orf" id="dummy-1_q9_0_all"  />
</g>
<g label="NZ_CP049056" description="NZ_CP049056 (3924672-3935059): Rhodobacteraceae bacterium RR4-56 chromosome, ... (71% of genes show similarity), ectoine" class="clusterblast-cluster"  >
<text x="5" y="70" class="clusterblast-acc"  >
<a xlink:href="https://antismash-db.secondarymetabolites.org/area.html?record=NZ_CP049056&amp;start=3924672&amp;end=3935059" target="_blank">NZ_CP049056 (3924672-3935059)</a>: Rhodobacteraceae bacterium RR4-56 chromosome, ... (71% of genes show similarity), ectoine</text>
<line x1="10" y1="85" x2="778.0" y2="85" style="stroke-width:1; stroke:grey; "  />
</g>
<g id="a1_000"  >
<polygon points="68,85 73,80 252,80 252,90 73,90 68,85 " style="fill:white; stroke-width:1; stroke:black; " description="&lt;b&gt;G5B40_RS18715&lt;/b&gt;&lt;br&gt;hypothetical protein&lt;br&gt;Location: 3925785 - 3928079" locus_tag="G5B40_RS18715" class="clusterblast-orf" id="dummy-1_h1_5_0"  />
</g>
<g id="a1_001"  >
<polygon points="259,85 264,80 375,80 375,90 264,90 259,85 " style="fill:#15d815; stroke-width:1; stroke:black; " description="&lt;b&gt;G5B40_RS18720&lt;/b&gt;&lt;br&gt;aspartate kinase&lt;br&gt;Location: 3928165 - 3929622&lt;br&gt;&lt;br&gt;&lt;b&gt;BlastP hit with LGINICCL_02570&lt;/b&gt;&lt;br&gt;Percentage identity: 71&lt;br&gt;Percentage coverage: 101&lt;br&gt;BLAST bit score: 664&lt;br&gt;E-value: 6.78e-238" locus_tag="G5B40_RS18720" class="clusterblast-orf" id="dummy-1_h1_5_1"  />
</g>
<g id="a1_002"  >
<polygon points="379,85 384,80 410,80 410,90 384,90 379,85 " style="fill:#1515d8; stroke-width:1; stroke:black; " description="&lt;b&gt;G5B40_RS18725&lt;/b&gt;&lt;br&gt;ectoine synthase&lt;br&gt;Location: 3929673 - 3930059&lt;br&gt;&lt;br&gt;&lt;b&gt;BlastP hit with LGINICCL_02571&lt;/b&gt;&lt;br&gt;Percentage identity: 79&lt;br&gt;Percentage coverage: 100&lt;br&gt;BLAST bit score: 218&lt;br&gt;E-value: 8.7e-73" locus_tag="G5B40_RS18725" class="clusterblast-orf" id="dummy-1_h1_5_2"  />
</g>
<g id="a1_003"  >
<polygon points="411,85 416,80 514,80 514,90 416,90 411,85 " style="fill:#d815d8; stroke-width:1; stroke:black; " description="&lt;b&gt;G5B40_RS18730&lt;/b&gt;&lt;br&gt;diaminobutyrate--2-oxoglutarate transaminase&lt;br&gt;Location: 3930064 - 3931356&lt;br&gt;&lt;br&gt;&lt;b&gt;BlastP hit with LGINICCL_02572&lt;/b&gt;&lt;br&gt;Percentage identity: 71&lt;br&gt;Percentage coverage: 100&lt;br&gt;BLAST bit score: 608&lt;br&gt;E-value: 2.3e-217" locus_tag="G5B40_RS18730" class="clusterblast-orf" id="dummy-1_h1_5_3"  />
</g>
<g id="a1_004"  >
<polygon points="518,85 523,80 561,80 561,90 523,90 518,85 " style="fill:#d8d815; stroke-width:1; stroke:black; " description="&lt;b&gt;G5B40_RS18735&lt;/b&gt;&lt;br&gt;diaminobutyrate acetyltransferase&lt;br&gt;Location: 3931404 - 3931946&lt;br&gt;&lt;br&gt;&lt;b&gt;BlastP hit with LGINICCL_02573&lt;/b&gt;&lt;br&gt;Percentage identity: 63&lt;br&gt;Percentage coverage: 100&lt;br&gt;BLAST bit score: 252&lt;br&gt;E-value: 1.13e-84" locus_tag="G5B40_RS18735" class="clusterblast-orf" id="dummy-1_h1_5_4"  />
</g>
<g id="a1_005"  >
<polygon points="583,90 617,90 622,85 617,80 583,80 583,90 " style="fill:#15d8d8; stroke-width:1; stroke:black; " description="&lt;b&gt;G5B40_RS18740&lt;/b&gt;&lt;br&gt;MarR family transcriptional regulator&lt;br&gt;Location: 3932226 - 3932702&lt;br&gt;&lt;br&gt;&lt;b&gt;BlastP hit with LGINICCL_02574&lt;/b&gt;&lt;br&gt;Percentage identity: 55&lt;br&gt;Percentage coverage: 96&lt;br&gt;BLAST bit score: 163&lt;br&gt;E-value: 3.18e-50" locus_tag="G5B40_RS18740" class="clusterblast-orf" id="dummy-1_h1_5_5"  />
</g>
<g id="a1_006"  >
<polygon points="623,85 628,80 711,80 711,90 628,90 623,85 " style="fill:white; stroke-width:1; stroke:black; " description="&lt;b&gt;G5B40_RS18745&lt;/b&gt;&lt;br&gt;CoA transferase&lt;br&gt;Location: 3932724 - 3933815" locus_tag="G5B40_RS18745" class="clusterblast-orf" id="dummy-1_h1_5_6"  />
</g>
</svg>
