<svg xmlns="http://www.w3.org/2000/svg" xmlns:xlink="http://www.w3.org/1999/xlink" version="1.1" x="0" y="0" height="230" width="800" viewBox="0 0 800 230" preserveAspectRatio="none"  >
<g label="Query sequence" class="clusterblast-cluster"  >
<text x="5" y="20" class="clusterblast-acc"  >
Query sequence</text>
<line x1="10" y1="35" x2="778.0" y2="35" style="stroke-width:1; stroke:grey; "  />
<polygon points="160,35 165,30 194,30 194,40 165,40 160,35 " style="fill:#d81515; stroke-width:1; stroke:black; " description="&lt;b&gt;LGINICCL_00900&lt;/b&gt;&lt;br&gt;hypothetical protein&lt;br&gt;Location: 397 - 1171" locus_tag="LGINICCL_00900" class="clusterblast-orf" id="dummy-1_q0_0_all"  />
<polygon points="198,35 203,30 270,30 270,40 203,40 198,35 " style="fill:#4dd815; stroke-width:1; stroke:black; " description="&lt;b&gt;LGINICCL_00901&lt;/b&gt;&lt;br&gt;(R)-citramalate synthase&lt;br&gt;Location: 1269 - 2898" locus_tag="LGINICCL_00901" class="clusterblast-orf" id="dummy-1_q1_0_all"  />
<polygon points="269,35 274,30 342,30 342,40 274,40 269,35 " style="fill:#1585d8; stroke-width:1; stroke:black; " description="&lt;b&gt;LGINICCL_00902&lt;/b&gt;&lt;br&gt;L-cysteine:1D-myo-inositol 2-amino-2-deoxy-alpha-D-glucopyranoside ligase&lt;br&gt;Location: 2894 - 4550" locus_tag="LGINICCL_00902" class="clusterblast-orf" id="dummy-1_q2_0_all"  />
<polygon points="351,40 361,40 366,35 361,30 351,30 351,40 " style="fill:#d815bc; stroke-width:1; stroke:black; " description="&lt;b&gt;LGINICCL_00903&lt;/b&gt;&lt;br&gt;hypothetical protein&lt;br&gt;Location: 4767 - 5112" locus_tag="LGINICCL_00903" class="clusterblast-orf" id="dummy-1_q3_0_all"  />
<polygon points="367,35 372,30 382,30 382,40 372,40 367,35 " style="fill:#d8bc15; stroke-width:1; stroke:black; " description="&lt;b&gt;LGINICCL_00904&lt;/b&gt;&lt;br&gt;hypothetical protein&lt;br&gt;Location: 5116 - 5473" locus_tag="LGINICCL_00904" class="clusterblast-orf" id="dummy-1_q4_0_all"  />
<polygon points="387,35 392,30 445,30 445,40 392,40 387,35 " style="fill:#15d885; stroke-width:1; stroke:black; " description="&lt;b&gt;LGINICCL_00905&lt;/b&gt;&lt;br&gt;hypothetical protein&lt;br&gt;Location: 5582 - 6902" locus_tag="LGINICCL_00905" class="clusterblast-orf" id="dummy-1_q5_0_all"  />
<polygon points="455,40 471,40 476,35 471,30 455,30 455,40 " style="fill:#4d15d8; stroke-width:1; stroke:black; " description="&lt;b&gt;LGINICCL_00906&lt;/b&gt;&lt;br&gt;HTH-type transcriptional repressor NsrR&lt;br&gt;Location: 7138 - 7612" locus_tag="LGINICCL_00906" class="clusterblast-orf" id="dummy-1_q6_0_all"  />
<polygon points="476,35 481,30 588,30 588,40 481,40 476,35 " style="fill:white; stroke-width:1; stroke:black; " description="&lt;b&gt;LGINICCL_00907&lt;/b&gt;&lt;br&gt;Aminopeptidase N&lt;br&gt;Location: 7615 - 10183" locus_tag="LGINICCL_00907" class="clusterblast-orf" id="dummy-1_q7_0_all"  />
<polygon points="594,40 614,40 619,35 614,30 594,30 594,40 " style="fill:white; stroke-width:1; stroke:black; " description="&lt;b&gt;LGINICCL_00908&lt;/b&gt;&lt;br&gt;hypothetical protein&lt;br&gt;Location: 10318 - 10906" locus_tag="LGINICCL_00908" class="clusterblast-orf" id="dummy-1_q8_0_all"  />
</g>
<g label="NZ_CP031946" description="NZ_CP031946 (956656-977433): Ruegeria sp. AD91A chromosome, complete genome (21% of genes show similarity), terpene" class="clusterblast-cluster"  >
<text x="5" y="70" class="clusterblast-acc"  >
<a xlink:href="https://antismash-db.secondarymetabolites.org/area.html?record=NZ_CP031946&amp;start=956656&amp;end=977433" target="_blank">NZ_CP031946 (956656-977433)</a>: Ruegeria sp. AD91A chromosome, complete genome (21% of genes show similarity), terpene</text>
<line x1="10" y1="85" x2="778.0" y2="85" style="stroke-width:1; stroke:grey; "  />
</g>
<g id="a1_000"  >
<polygon points="0,85 5,80 42,80 42,90 5,90 0,85 " style="fill:white; stroke-width:1; stroke:black; " description="&lt;b&gt;D1823_RS04925&lt;/b&gt;&lt;br&gt;TAXI family TRAP transporter solute-binding subunit&lt;br&gt;Location: 976652 - 975684" locus_tag="D1823_RS04925" class="clusterblast-orf" id="dummy-1_h1_8_0"  />
</g>
<g id="a1_001"  >
<polygon points="85,90 107,90 112,85 107,80 85,80 85,90 " style="fill:white; stroke-width:1; stroke:black; " description="&lt;b&gt;D1823_RS04920&lt;/b&gt;&lt;br&gt;DUF4329 domain-containing protein&lt;br&gt;Location: 974688 - 974071" locus_tag="D1823_RS04920" class="clusterblast-orf" id="dummy-1_h1_8_1"  />
</g>
<g id="a1_002"  >
<polygon points="140,90 160,90 165,85 160,80 140,80 140,90 " style="fill:white; stroke-width:1; stroke:black; " description="&lt;b&gt;D1823_RS04910&lt;/b&gt;&lt;br&gt;DedA family protein&lt;br&gt;Location: 973446 - 972868" locus_tag="D1823_RS04910" class="clusterblast-orf" id="dummy-1_h1_8_2"  />
</g>
<g id="a1_003"  >
<polygon points="165,90 180,90 185,85 180,80 165,80 165,90 " style="fill:white; stroke-width:1; stroke:black; " description="&lt;b&gt;D1823_RS04905&lt;/b&gt;&lt;br&gt;disulfide bond formation protein B&lt;br&gt;Location: 972871 - 972401" locus_tag="D1823_RS04905" class="clusterblast-orf" id="dummy-1_h1_8_3"  />
</g>
<g id="a1_004"  >
<polygon points="185,85 190,80 211,80 211,90 190,90 185,85 " style="fill:white; stroke-width:1; stroke:black; " description="&lt;b&gt;D1823_RS04900&lt;/b&gt;&lt;br&gt;HNH endonuclease&lt;br&gt;Location: 972404 - 971817" locus_tag="D1823_RS04900" class="clusterblast-orf" id="dummy-1_h1_8_4"  />
</g>
<g id="a1_005"  >
<polygon points="220,90 241,90 246,85 241,80 220,80 220,90 " style="fill:white; stroke-width:1; stroke:black; " description="&lt;b&gt;D1823_RS04895&lt;/b&gt;&lt;br&gt;rRNA large subunit pseudouridine synthase E&lt;br&gt;Location: 971603 - 970998" locus_tag="D1823_RS04895" class="clusterblast-orf" id="dummy-1_h1_8_5"  />
</g>
<g id="a1_006"  >
<polygon points="248,90 261,90 266,85 261,80 248,80 248,90 " style="fill:white; stroke-width:1; stroke:black; " description="&lt;b&gt;D1823_RS04890&lt;/b&gt;&lt;br&gt;glyoxalase/bleomycin resistance/extradiol dioxygenase family protein&lt;br&gt;Location: 970965 - 970540" locus_tag="D1823_RS04890" class="clusterblast-orf" id="dummy-1_h1_8_6"  />
</g>
<g id="a1_007"  >
<polygon points="266,85 271,80 287,80 287,90 271,90 266,85 " style="fill:white; stroke-width:1; stroke:black; " description="&lt;b&gt;D1823_RS04885&lt;/b&gt;&lt;br&gt;GNAT family N-acetyltransferase&lt;br&gt;Location: 970555 - 970073" locus_tag="D1823_RS04885" class="clusterblast-orf" id="dummy-1_h1_8_7"  />
</g>
<g id="a1_008"  >
<polygon points="288,85 293,80 317,80 317,90 293,90 288,85 " style="fill:white; stroke-width:1; stroke:black; " description="&lt;b&gt;D1823_RS04880&lt;/b&gt;&lt;br&gt;alpha/beta fold hydrolase&lt;br&gt;Location: 970052 - 969387" locus_tag="D1823_RS04880" class="clusterblast-orf" id="dummy-1_h1_8_8"  />
</g>
<g id="a1_009"  >
<polygon points="317,85 322,80 344,80 344,90 322,90 317,85 " style="fill:white; stroke-width:1; stroke:black; " description="&lt;b&gt;D1823_RS04875&lt;/b&gt;&lt;br&gt;DNA-3-methyladenine glycosylase 2 family protein&lt;br&gt;Location: 969390 - 968758" locus_tag="D1823_RS04875" class="clusterblast-orf" id="dummy-1_h1_8_9"  />
</g>
<g id="a1_0010"  >
<polygon points="349,90 397,90 402,85 397,80 349,80 349,90 " style="fill:white; stroke-width:1; stroke:black; " description="&lt;b&gt;D1823_RS04870&lt;/b&gt;&lt;br&gt;MFS transporter&lt;br&gt;Location: 968660 - 967434" locus_tag="D1823_RS04870" class="clusterblast-orf" id="dummy-1_h1_8_10"  />
</g>
<g id="a1_0011"  >
<polygon points="402,85 407,80 436,80 436,90 407,90 402,85 " style="fill:#d81515; stroke-width:1; stroke:black; " description="&lt;b&gt;D1823_RS04865&lt;/b&gt;&lt;br&gt;squalene/phytoene synthase family protein&lt;br&gt;Location: 967433 - 966657&lt;br&gt;&lt;br&gt;&lt;b&gt;BlastP hit with LGINICCL_00900&lt;/b&gt;&lt;br&gt;Percentage identity: 43&lt;br&gt;Percentage coverage: 100&lt;br&gt;BLAST bit score: 178&lt;br&gt;E-value: 2.73e-53" locus_tag="D1823_RS04865" class="clusterblast-orf" id="dummy-1_h1_8_11"  />
</g>
<g id="a1_0012"  >
<polygon points="436,85 441,80 508,80 508,90 441,90 436,85 " style="fill:#4dd815; stroke-width:1; stroke:black; " description="&lt;b&gt;D1823_RS04860&lt;/b&gt;&lt;br&gt;citramalate synthase&lt;br&gt;Location: 966654 - 965020&lt;br&gt;&lt;br&gt;&lt;b&gt;BlastP hit with LGINICCL_00901&lt;/b&gt;&lt;br&gt;Percentage identity: 71&lt;br&gt;Percentage coverage: 99&lt;br&gt;BLAST bit score: 759&lt;br&gt;E-value: 2.78e-273" locus_tag="D1823_RS04860" class="clusterblast-orf" id="dummy-1_h1_8_12"  />
</g>
<g id="a1_0013"  >
<polygon points="517,85 522,80 579,80 579,90 522,90 517,85 " style="fill:#1585d8; stroke-width:1; stroke:black; " description="&lt;b&gt;D1823_RS04855&lt;/b&gt;&lt;br&gt;cysteine--tRNA ligase&lt;br&gt;Location: 964795 - 963380&lt;br&gt;&lt;br&gt;&lt;b&gt;BlastP hit with LGINICCL_00902&lt;/b&gt;&lt;br&gt;Percentage identity: 63&lt;br&gt;Percentage coverage: 73&lt;br&gt;BLAST bit score: 487&lt;br&gt;E-value: 4.1e-167" locus_tag="D1823_RS04855" class="clusterblast-orf" id="dummy-1_h1_8_13"  />
</g>
<g id="a1_0014"  >
<polygon points="589,90 599,90 604,85 599,80 589,80 589,90 " style="fill:#d815bc; stroke-width:1; stroke:black; " description="&lt;b&gt;D1823_RS04850&lt;/b&gt;&lt;br&gt;MmcQ/YjbR family DNA-binding protein&lt;br&gt;Location: 963160 - 962816&lt;br&gt;&lt;br&gt;&lt;b&gt;BlastP hit with LGINICCL_00903&lt;/b&gt;&lt;br&gt;Percentage identity: 63&lt;br&gt;Percentage coverage: 98&lt;br&gt;BLAST bit score: 148&lt;br&gt;E-value: 8.91e-46" locus_tag="D1823_RS04850" class="clusterblast-orf" id="dummy-1_h1_8_14"  />
</g>
<g id="a1_0015"  >
<polygon points="606,90 653,90 658,85 653,80 606,80 606,90 " style="fill:white; stroke-width:1; stroke:black; " description="&lt;b&gt;D1823_RS04845&lt;/b&gt;&lt;br&gt;pyridoxal phosphate-dependent aminotransferase&lt;br&gt;Location: 962759 - 961572" locus_tag="D1823_RS04845" class="clusterblast-orf" id="dummy-1_h1_8_15"  />
</g>
<g id="a1_0016"  >
<polygon points="659,85 664,80 680,80 680,90 664,90 659,85 " style="fill:white; stroke-width:1; stroke:black; " description="&lt;b&gt;D1823_RS04840&lt;/b&gt;&lt;br&gt;porin family protein&lt;br&gt;Location: 961563 - 961063" locus_tag="D1823_RS04840" class="clusterblast-orf" id="dummy-1_h1_8_16"  />
</g>
<g id="a1_0017"  >
<polygon points="699,90 762,90 767,85 762,80 699,80 699,90 " style="fill:white; stroke-width:1; stroke:black; " description="&lt;b&gt;D1823_RS04835&lt;/b&gt;&lt;br&gt;trimethylamine methyltransferase family protein&lt;br&gt;Location: 960631 - 959087" locus_tag="D1823_RS04835" class="clusterblast-orf" id="dummy-1_h1_8_17"  />
</g>
<g id="a1_0018"  >
<polygon points="769,85 774,80 780,80 780,90 774,90 769,85 " style="fill:white; stroke-width:1; stroke:black; " description="&lt;b&gt;D1823_RS04830&lt;/b&gt;&lt;br&gt;hypothetical protein&lt;br&gt;Location: 959041 - 958796" locus_tag="D1823_RS04830" class="clusterblast-orf" id="dummy-1_h1_8_18"  />
</g>
</svg>
