<svg xmlns="http://www.w3.org/2000/svg" xmlns:xlink="http://www.w3.org/1999/xlink" version="1.1" x="0" y="0" height="230" width="800" viewBox="0 0 800 230" preserveAspectRatio="none"  >
<g label="Query sequence" class="clusterblast-cluster"  >
<text x="5" y="20" class="clusterblast-acc"  >
Query sequence</text>
<line x1="10" y1="35" x2="778.0" y2="35" style="stroke-width:1; stroke:grey; "  />
<polygon points="8,35 13,30 25,30 25,40 13,40 8,35 " style="fill:#d81515; stroke-width:1; stroke:black; " description="&lt;b&gt;LGINICCL_02124&lt;/b&gt;&lt;br&gt;Peroxide-responsive repressor PerR&lt;br&gt;Location: 4872 - 5310" locus_tag="LGINICCL_02124" class="clusterblast-orf" id="dummy-1_q0_0_all"  />
<polygon points="30,40 44,40 49,35 44,30 30,30 30,40 " style="fill:#15d863; stroke-width:1; stroke:black; " description="&lt;b&gt;LGINICCL_02125&lt;/b&gt;&lt;br&gt;3-hydroxydecanoyl-[acyl-carrier-protein] dehydratase&lt;br&gt;Location: 5454 - 5964" locus_tag="LGINICCL_02125" class="clusterblast-orf" id="dummy-1_q1_0_all"  />
<polygon points="50,35 55,30 81,30 81,40 55,40 50,35 " style="fill:white; stroke-width:1; stroke:black; " description="&lt;b&gt;LGINICCL_02126&lt;/b&gt;&lt;br&gt;hypothetical protein&lt;br&gt;Location: 5988 - 6792" locus_tag="LGINICCL_02126" class="clusterblast-orf" id="dummy-1_q2_0_all"  />
<polygon points="89,40 130,40 135,35 130,30 89,30 89,40 " style="fill:#1563d8; stroke-width:1; stroke:black; " description="&lt;b&gt;LGINICCL_02127&lt;/b&gt;&lt;br&gt;3-oxoacyl-[acyl-carrier-protein] synthase 1&lt;br&gt;Location: 6990 - 8220" locus_tag="LGINICCL_02127" class="clusterblast-orf" id="dummy-1_q3_0_all"  />
<polygon points="136,40 161,40 166,35 161,30 136,30 136,40 " style="fill:#b115d8; stroke-width:1; stroke:black; " description="&lt;b&gt;LGINICCL_02128&lt;/b&gt;&lt;br&gt;Enoyl-[acyl-carrier-protein] reductase [NADH] FabI&lt;br&gt;Location: 8237 - 9026" locus_tag="LGINICCL_02128" class="clusterblast-orf" id="dummy-1_q4_0_all"  />
<polygon points="167,35 172,30 192,30 192,40 172,40 167,35 " style="fill:white; stroke-width:1; stroke:black; " description="&lt;b&gt;LGINICCL_02129&lt;/b&gt;&lt;br&gt;Dual-specificity RNA pseudouridine synthase RluA&lt;br&gt;Location: 9041 - 9707" locus_tag="LGINICCL_02129" class="clusterblast-orf" id="dummy-1_q5_0_all"  />
<polygon points="192,35 197,30 217,30 217,40 197,40 192,35 " style="fill:white; stroke-width:1; stroke:black; " description="&lt;b&gt;LGINICCL_02130&lt;/b&gt;&lt;br&gt;hypothetical protein&lt;br&gt;Location: 9706 - 10366" locus_tag="LGINICCL_02130" class="clusterblast-orf" id="dummy-1_q6_0_all"  />
<polygon points="217,35 222,30 222,30 222,40 222,40 217,35 " style="fill:white; stroke-width:1; stroke:black; " description="&lt;b&gt;LGINICCL_02131&lt;/b&gt;&lt;br&gt;Cytochrome c oxidase subunit 4&lt;br&gt;Location: 10368 - 10503" locus_tag="LGINICCL_02131" class="clusterblast-orf" id="dummy-1_q7_0_all"  />
<polygon points="225,35 230,30 266,30 266,40 230,40 225,35 " style="fill:white; stroke-width:1; stroke:black; " description="&lt;b&gt;LGINICCL_02132&lt;/b&gt;&lt;br&gt;hypothetical protein&lt;br&gt;Location: 10576 - 11641" locus_tag="LGINICCL_02132" class="clusterblast-orf" id="dummy-1_q8_0_all"  />
<polygon points="266,35 271,30 331,30 331,40 271,40 266,35 " style="fill:white; stroke-width:1; stroke:black; " description="&lt;b&gt;LGINICCL_02133&lt;/b&gt;&lt;br&gt;3-methylmercaptopropionyl-CoA dehydrogenase&lt;br&gt;Location: 11640 - 13347" locus_tag="LGINICCL_02133" class="clusterblast-orf" id="dummy-1_q9_0_all"  />
<polygon points="333,40 366,40 371,35 366,30 333,30 333,40 " style="fill:white; stroke-width:1; stroke:black; " description="&lt;b&gt;LGINICCL_02134&lt;/b&gt;&lt;br&gt;Threonylcarbamoyl-AMP synthase&lt;br&gt;Location: 13417 - 14419" locus_tag="LGINICCL_02134" class="clusterblast-orf" id="dummy-1_q10_0_all"  />
<polygon points="378,40 406,40 411,35 406,30 378,30 378,40 " style="fill:#b1d815; stroke-width:1; stroke:black; " description="&lt;b&gt;LGINICCL_02135&lt;/b&gt;&lt;br&gt;hypothetical protein&lt;br&gt;Location: 14586 - 15456" locus_tag="LGINICCL_02135" class="clusterblast-orf" id="dummy-1_q11_0_all"  />
<polygon points="414,40 437,40 442,35 437,30 414,30 414,40 " style="fill:white; stroke-width:1; stroke:black; " description="&lt;b&gt;LGINICCL_02136&lt;/b&gt;&lt;br&gt;hypothetical protein&lt;br&gt;Location: 15529 - 16273" locus_tag="LGINICCL_02136" class="clusterblast-orf" id="dummy-1_q12_0_all"  />
<polygon points="441,35 446,30 465,30 465,40 446,40 441,35 " style="fill:white; stroke-width:1; stroke:black; " description="&lt;b&gt;LGINICCL_02137&lt;/b&gt;&lt;br&gt;hypothetical protein&lt;br&gt;Location: 16251 - 16890" locus_tag="LGINICCL_02137" class="clusterblast-orf" id="dummy-1_q13_0_all"  />
<polygon points="465,35 470,30 483,30 483,40 470,40 465,35 " style="fill:white; stroke-width:1; stroke:black; " description="&lt;b&gt;LGINICCL_02138&lt;/b&gt;&lt;br&gt;tRNA-specific adenosine deaminase&lt;br&gt;Location: 16889 - 17342" locus_tag="LGINICCL_02138" class="clusterblast-orf" id="dummy-1_q14_0_all"  />
<polygon points="483,40 514,40 519,35 514,30 483,30 483,40 " style="fill:white; stroke-width:1; stroke:black; " description="&lt;b&gt;LGINICCL_02139&lt;/b&gt;&lt;br&gt;hypothetical protein&lt;br&gt;Location: 17351 - 18293" locus_tag="LGINICCL_02139" class="clusterblast-orf" id="dummy-1_q15_0_all"  />
<polygon points="537,40 578,40 583,35 578,30 537,30 537,40 " style="fill:white; stroke-width:1; stroke:black; " description="&lt;b&gt;LGINICCL_02140&lt;/b&gt;&lt;br&gt;hypothetical protein&lt;br&gt;Location: 18770 - 19973" locus_tag="LGINICCL_02140" class="clusterblast-orf" id="dummy-1_q16_0_all"  />
<polygon points="586,35 591,30 634,30 634,40 591,40 586,35 " style="fill:white; stroke-width:1; stroke:black; " description="&lt;b&gt;LGINICCL_02141&lt;/b&gt;&lt;br&gt;Phosphoribosylamine--glycine ligase&lt;br&gt;Location: 20045 - 21317" locus_tag="LGINICCL_02141" class="clusterblast-orf" id="dummy-1_q17_0_all"  />
<polygon points="637,40 693,40 698,35 693,30 637,30 637,40 " style="fill:white; stroke-width:1; stroke:black; " description="&lt;b&gt;LGINICCL_02142&lt;/b&gt;&lt;br&gt;Exodeoxyribonuclease 7 large subunit&lt;br&gt;Location: 21394 - 23005" locus_tag="LGINICCL_02142" class="clusterblast-orf" id="dummy-1_q18_0_all"  />
<polygon points="702,35 707,30 718,30 718,40 707,40 702,35 " style="fill:white; stroke-width:1; stroke:black; " description="&lt;b&gt;LGINICCL_02143&lt;/b&gt;&lt;br&gt;hypothetical protein&lt;br&gt;Location: 23104 - 23515" locus_tag="LGINICCL_02143" class="clusterblast-orf" id="dummy-1_q19_0_all"  />
<polygon points="721,40 767,40 772,35 767,30 721,30 721,40 " style="fill:white; stroke-width:1; stroke:black; " description="&lt;b&gt;LGINICCL_02144&lt;/b&gt;&lt;br&gt;Glutamate--tRNA ligase 1&lt;br&gt;Location: 23615 - 24938" locus_tag="LGINICCL_02144" class="clusterblast-orf" id="dummy-1_q20_0_all"  />
</g>
<g label="NZ_DS995276" description="NZ_DS995276 (3218276-3239056): Rhodobacteraceae bacterium HTCC2083 scf 110620... (8% of genes show similarity), hserlactone" class="clusterblast-cluster"  >
<text x="5" y="70" class="clusterblast-acc"  >
<a xlink:href="https://antismash-db.secondarymetabolites.org/area.html?record=NZ_DS995276&amp;start=3218276&amp;end=3239056" target="_blank">NZ_DS995276 (3218276-3239056)</a>: Rhodobacteraceae bacterium HTCC2083 scf 110620... (8% of genes show similarity), hserlactone</text>
<line x1="10" y1="85" x2="778.0" y2="85" style="stroke-width:1; stroke:grey; "  />
</g>
<g id="a1_000"  >
<polygon points="0,85 5,80 10,80 10,90 5,90 0,85 " style="fill:white; stroke-width:1; stroke:black; " description="&lt;b&gt;RB2083_RS16225&lt;/b&gt;&lt;br&gt;hypothetical protein&lt;br&gt;Location: 3218566 - 3218832" locus_tag="RB2083_RS16225" class="clusterblast-orf" id="dummy-1_h1_7_0"  />
</g>
<g id="a1_001"  >
<polygon points="13,85 18,80 37,80 37,90 18,90 13,85 " style="fill:white; stroke-width:1; stroke:black; " description="&lt;b&gt;RB2083_RS16230&lt;/b&gt;&lt;br&gt;hypothetical protein&lt;br&gt;Location: 3218912 - 3219547" locus_tag="RB2083_RS16230" class="clusterblast-orf" id="dummy-1_h1_7_1"  />
</g>
<g id="a1_002"  >
<polygon points="37,85 42,80 85,80 85,90 42,90 37,85 " style="fill:white; stroke-width:1; stroke:black; " description="&lt;b&gt;RB2083_RS16235&lt;/b&gt;&lt;br&gt;site-specific integrase&lt;br&gt;Location: 3219544 - 3220812" locus_tag="RB2083_RS16235" class="clusterblast-orf" id="dummy-1_h1_7_2"  />
</g>
<g id="a1_003"  >
<polygon points="93,85 98,80 110,80 110,90 98,90 93,85 " style="fill:white; stroke-width:1; stroke:black; " description="&lt;b&gt;RB2083_RS16240&lt;/b&gt;&lt;br&gt;hypothetical protein&lt;br&gt;Location: 3221035 - 3221481" locus_tag="RB2083_RS16240" class="clusterblast-orf" id="dummy-1_h1_7_3"  />
</g>
<g id="a1_004"  >
<polygon points="117,85 122,80 143,80 143,90 122,90 117,85 " style="fill:white; stroke-width:1; stroke:black; " description="&lt;b&gt;RB2083_RS16245&lt;/b&gt;&lt;br&gt;hypothetical protein&lt;br&gt;Location: 3221641 - 3222336" locus_tag="RB2083_RS16245" class="clusterblast-orf" id="dummy-1_h1_7_4"  />
</g>
<g id="a1_005"  >
<polygon points="149,85 154,80 180,80 180,90 154,90 149,85 " style="fill:white; stroke-width:1; stroke:black; " description="&lt;b&gt;RB2083_RS16250&lt;/b&gt;&lt;br&gt;lytic murein transglycosylase&lt;br&gt;Location: 3222496 - 3223299" locus_tag="RB2083_RS16250" class="clusterblast-orf" id="dummy-1_h1_7_5"  />
</g>
<g id="a1_006"  >
<polygon points="182,85 187,80 194,80 194,90 187,90 182,85 " style="fill:white; stroke-width:1; stroke:black; " description="&lt;b&gt;RB2083_RS16255&lt;/b&gt;&lt;br&gt;hypothetical protein&lt;br&gt;Location: 3223371 - 3223685" locus_tag="RB2083_RS16255" class="clusterblast-orf" id="dummy-1_h1_7_6"  />
</g>
<g id="a1_007"  >
<polygon points="202,85 207,80 256,80 256,90 207,90 202,85 " style="fill:white; stroke-width:1; stroke:black; " description="&lt;b&gt;RB2083_RS16260&lt;/b&gt;&lt;br&gt;type I glutamate--ammonia ligase&lt;br&gt;Location: 3223888 - 3225294" locus_tag="RB2083_RS16260" class="clusterblast-orf" id="dummy-1_h1_7_7"  />
</g>
<g id="a1_008"  >
<polygon points="257,85 262,80 270,80 270,90 262,90 257,85 " style="fill:white; stroke-width:1; stroke:black; " description="&lt;b&gt;RB2083_RS16265&lt;/b&gt;&lt;br&gt;P-II family nitrogen regulator&lt;br&gt;Location: 3225333 - 3225671" locus_tag="RB2083_RS16265" class="clusterblast-orf" id="dummy-1_h1_7_8"  />
</g>
<g id="a1_009"  >
<polygon points="277,85 282,80 292,80 292,90 282,90 277,85 " style="fill:white; stroke-width:1; stroke:black; " description="&lt;b&gt;RB2083_RS16270&lt;/b&gt;&lt;br&gt;hypothetical protein&lt;br&gt;Location: 3225867 - 3226247" locus_tag="RB2083_RS16270" class="clusterblast-orf" id="dummy-1_h1_7_9"  />
</g>
<g id="a1_0010"  >
<polygon points="311,90 356,90 361,85 356,80 311,80 311,90 " style="fill:white; stroke-width:1; stroke:black; " description="&lt;b&gt;RB2083_RS16280&lt;/b&gt;&lt;br&gt;trigger factor&lt;br&gt;Location: 3226740 - 3228074" locus_tag="RB2083_RS16280" class="clusterblast-orf" id="dummy-1_h1_7_10"  />
</g>
<g id="a1_0011"  >
<polygon points="369,85 374,80 399,80 399,90 374,90 369,85 " style="fill:#b1d815; stroke-width:1; stroke:black; " description="&lt;b&gt;RB2083_RS16285&lt;/b&gt;&lt;br&gt;GNAT family N-acetyltransferase&lt;br&gt;Location: 3228277 - 3229056&lt;br&gt;&lt;br&gt;&lt;b&gt;BlastP hit with LGINICCL_02135&lt;/b&gt;&lt;br&gt;Percentage identity: 49&lt;br&gt;Percentage coverage: 95&lt;br&gt;BLAST bit score: 252&lt;br&gt;E-value: 6.4e-82" locus_tag="RB2083_RS16285" class="clusterblast-orf" id="dummy-1_h1_7_11"  />
</g>
<g id="a1_0012"  >
<polygon points="405,85 410,80 431,80 431,90 410,90 405,85 " style="fill:white; stroke-width:1; stroke:black; " description="&lt;b&gt;RB2083_RS16290&lt;/b&gt;&lt;br&gt;LuxR family transcriptional regulator&lt;br&gt;Location: 3229205 - 3229906" locus_tag="RB2083_RS16290" class="clusterblast-orf" id="dummy-1_h1_7_12"  />
</g>
<g id="a1_0013"  >
<polygon points="435,85 440,80 450,80 450,90 440,90 435,85 " style="fill:white; stroke-width:1; stroke:black; " description="&lt;b&gt;RB2083_RS16295&lt;/b&gt;&lt;br&gt;helix-turn-helix domain-containing protein&lt;br&gt;Location: 3229997 - 3230398" locus_tag="RB2083_RS16295" class="clusterblast-orf" id="dummy-1_h1_7_13"  />
</g>
<g id="a1_0014"  >
<polygon points="459,85 464,80 483,80 483,90 464,90 459,85 " style="fill:white; stroke-width:1; stroke:black; " description="&lt;b&gt;RB2083_RS16300&lt;/b&gt;&lt;br&gt;50S ribosomal protein L9&lt;br&gt;Location: 3230646 - 3231278" locus_tag="RB2083_RS16300" class="clusterblast-orf" id="dummy-1_h1_7_14"  />
</g>
<g id="a1_0015"  >
<polygon points="484,85 489,80 493,80 493,90 489,90 484,85 " style="fill:white; stroke-width:1; stroke:black; " description="&lt;b&gt;RB2083_RS16305&lt;/b&gt;&lt;br&gt;30S ribosomal protein S18&lt;br&gt;Location: 3231290 - 3231517" locus_tag="RB2083_RS16305" class="clusterblast-orf" id="dummy-1_h1_7_15"  />
</g>
<g id="a1_0016"  >
<polygon points="494,85 499,80 507,80 507,90 499,90 494,85 " style="fill:white; stroke-width:1; stroke:black; " description="&lt;b&gt;RB2083_RS16310&lt;/b&gt;&lt;br&gt;30S ribosomal protein S6&lt;br&gt;Location: 3231545 - 3231898" locus_tag="RB2083_RS16310" class="clusterblast-orf" id="dummy-1_h1_7_16"  />
</g>
<g id="a1_0017"  >
<polygon points="516,90 521,90 526,85 521,80 516,80 516,90 " style="fill:white; stroke-width:1; stroke:black; " description="&lt;b&gt;RB2083_RS16315&lt;/b&gt;&lt;br&gt;hypothetical protein&lt;br&gt;Location: 3232138 - 3232389" locus_tag="RB2083_RS16315" class="clusterblast-orf" id="dummy-1_h1_7_17"  />
</g>
<g id="a1_0018"  >
<polygon points="530,90 547,90 552,85 547,80 530,80 530,90 " style="fill:white; stroke-width:1; stroke:black; " description="&lt;b&gt;RB2083_RS16320&lt;/b&gt;&lt;br&gt;polyisoprenoid-binding protein&lt;br&gt;Location: 3232510 - 3233085" locus_tag="RB2083_RS16320" class="clusterblast-orf" id="dummy-1_h1_7_18"  />
</g>
<g id="a1_0019"  >
<polygon points="555,85 560,80 601,80 601,90 560,90 555,85 " style="fill:white; stroke-width:1; stroke:black; " description="&lt;b&gt;RB2083_RS16325&lt;/b&gt;&lt;br&gt;cytochrome&lt;br&gt;Location: 3233161 - 3234357" locus_tag="RB2083_RS16325" class="clusterblast-orf" id="dummy-1_h1_7_19"  />
</g>
<g id="a1_0020"  >
<polygon points="608,90 638,90 643,85 638,80 608,80 608,90 " style="fill:white; stroke-width:1; stroke:black; " description="&lt;b&gt;RB2083_RS16330&lt;/b&gt;&lt;br&gt;ACP S-malonyltransferase&lt;br&gt;Location: 3234546 - 3235475" locus_tag="RB2083_RS16330" class="clusterblast-orf" id="dummy-1_h1_7_20"  />
</g>
<g id="a1_0021"  >
<polygon points="662,90 685,90 690,85 685,80 662,80 662,90 " style="fill:white; stroke-width:1; stroke:black; " description="&lt;b&gt;RB2083_RS16335&lt;/b&gt;&lt;br&gt;3-oxoacyl-[acyl-carrier-protein] reductase&lt;br&gt;Location: 3235956 - 3236693" locus_tag="RB2083_RS16335" class="clusterblast-orf" id="dummy-1_h1_7_21"  />
</g>
<g id="a1_0022"  >
<polygon points="697,90 701,90 706,85 701,80 697,80 697,90 " style="fill:white; stroke-width:1; stroke:black; " description="&lt;b&gt;RB2083_RS16340&lt;/b&gt;&lt;br&gt;acyl carrier protein&lt;br&gt;Location: 3236886 - 3237119" locus_tag="RB2083_RS16340" class="clusterblast-orf" id="dummy-1_h1_7_22"  />
</g>
<g id="a1_0023"  >
<polygon points="709,85 714,80 722,80 722,90 714,90 709,85 " style="fill:white; stroke-width:1; stroke:black; " description="&lt;b&gt;RB2083_RS16345&lt;/b&gt;&lt;br&gt;hypothetical protein&lt;br&gt;Location: 3237214 - 3237543" locus_tag="RB2083_RS16345" class="clusterblast-orf" id="dummy-1_h1_7_23"  />
</g>
<g id="a1_0024"  >
<polygon points="732,90 775,90 780,85 775,80 732,80 732,90 " style="fill:#1563d8; stroke-width:1; stroke:black; " description="&lt;b&gt;RB2083_RS16350&lt;/b&gt;&lt;br&gt;beta-ketoacyl-ACP synthase II&lt;br&gt;Location: 3237795 - 3239054&lt;br&gt;&lt;br&gt;&lt;b&gt;BlastP hit with LGINICCL_02127&lt;/b&gt;&lt;br&gt;Percentage identity: 41&lt;br&gt;Percentage coverage: 104&lt;br&gt;BLAST bit score: 265&lt;br&gt;E-value: 5.23e-83" locus_tag="RB2083_RS16350" class="clusterblast-orf" id="dummy-1_h1_7_24"  />
</g>
</svg>
