<svg xmlns="http://www.w3.org/2000/svg" xmlns:xlink="http://www.w3.org/1999/xlink" version="1.1" x="0" y="0" height="230" width="800" viewBox="0 0 800 230" preserveAspectRatio="none"  >
<g label="Query sequence" class="clusterblast-cluster"  >
<text x="5" y="20" class="clusterblast-acc"  >
Query sequence</text>
<line x1="10" y1="35" x2="778.0" y2="35" style="stroke-width:1; stroke:grey; "  />
<polygon points="160,35 165,30 194,30 194,40 165,40 160,35 " style="fill:#d81515; stroke-width:1; stroke:black; " description="&lt;b&gt;LGINICCL_00900&lt;/b&gt;&lt;br&gt;hypothetical protein&lt;br&gt;Location: 397 - 1171" locus_tag="LGINICCL_00900" class="clusterblast-orf" id="dummy-1_q0_0_all"  />
<polygon points="198,35 203,30 270,30 270,40 203,40 198,35 " style="fill:#4dd815; stroke-width:1; stroke:black; " description="&lt;b&gt;LGINICCL_00901&lt;/b&gt;&lt;br&gt;(R)-citramalate synthase&lt;br&gt;Location: 1269 - 2898" locus_tag="LGINICCL_00901" class="clusterblast-orf" id="dummy-1_q1_0_all"  />
<polygon points="269,35 274,30 342,30 342,40 274,40 269,35 " style="fill:#1585d8; stroke-width:1; stroke:black; " description="&lt;b&gt;LGINICCL_00902&lt;/b&gt;&lt;br&gt;L-cysteine:1D-myo-inositol 2-amino-2-deoxy-alpha-D-glucopyranoside ligase&lt;br&gt;Location: 2894 - 4550" locus_tag="LGINICCL_00902" class="clusterblast-orf" id="dummy-1_q2_0_all"  />
<polygon points="351,40 361,40 366,35 361,30 351,30 351,40 " style="fill:#d815bc; stroke-width:1; stroke:black; " description="&lt;b&gt;LGINICCL_00903&lt;/b&gt;&lt;br&gt;hypothetical protein&lt;br&gt;Location: 4767 - 5112" locus_tag="LGINICCL_00903" class="clusterblast-orf" id="dummy-1_q3_0_all"  />
<polygon points="367,35 372,30 382,30 382,40 372,40 367,35 " style="fill:#d8bc15; stroke-width:1; stroke:black; " description="&lt;b&gt;LGINICCL_00904&lt;/b&gt;&lt;br&gt;hypothetical protein&lt;br&gt;Location: 5116 - 5473" locus_tag="LGINICCL_00904" class="clusterblast-orf" id="dummy-1_q4_0_all"  />
<polygon points="387,35 392,30 445,30 445,40 392,40 387,35 " style="fill:#15d885; stroke-width:1; stroke:black; " description="&lt;b&gt;LGINICCL_00905&lt;/b&gt;&lt;br&gt;hypothetical protein&lt;br&gt;Location: 5582 - 6902" locus_tag="LGINICCL_00905" class="clusterblast-orf" id="dummy-1_q5_0_all"  />
<polygon points="455,40 471,40 476,35 471,30 455,30 455,40 " style="fill:#4d15d8; stroke-width:1; stroke:black; " description="&lt;b&gt;LGINICCL_00906&lt;/b&gt;&lt;br&gt;HTH-type transcriptional repressor NsrR&lt;br&gt;Location: 7138 - 7612" locus_tag="LGINICCL_00906" class="clusterblast-orf" id="dummy-1_q6_0_all"  />
<polygon points="476,35 481,30 588,30 588,40 481,40 476,35 " style="fill:white; stroke-width:1; stroke:black; " description="&lt;b&gt;LGINICCL_00907&lt;/b&gt;&lt;br&gt;Aminopeptidase N&lt;br&gt;Location: 7615 - 10183" locus_tag="LGINICCL_00907" class="clusterblast-orf" id="dummy-1_q7_0_all"  />
<polygon points="594,40 614,40 619,35 614,30 594,30 594,40 " style="fill:white; stroke-width:1; stroke:black; " description="&lt;b&gt;LGINICCL_00908&lt;/b&gt;&lt;br&gt;hypothetical protein&lt;br&gt;Location: 10318 - 10906" locus_tag="LGINICCL_00908" class="clusterblast-orf" id="dummy-1_q8_0_all"  />
</g>
<g label="NZ_QOCF01000018" description="NZ_QOCF01000018 (163224-184007): Ruegeria sp. A3M17 A3M17 contig 18, whole ge... (19% of genes show similarity), terpene" class="clusterblast-cluster"  >
<text x="5" y="70" class="clusterblast-acc"  >
<a xlink:href="https://antismash-db.secondarymetabolites.org/area.html?record=NZ_QOCF01000018&amp;start=163224&amp;end=184007" target="_blank">NZ_QOCF01000018 (163224-184007)</a>: Ruegeria sp. A3M17 A3M17 contig 18, whole ge... (19% of genes show similarity), terpene</text>
<line x1="10" y1="85" x2="778.0" y2="85" style="stroke-width:1; stroke:grey; "  />
</g>
<g id="a1_000"  >
<polygon points="0,90 59,90 64,85 59,80 0,80 0,90 " style="fill:white; stroke-width:1; stroke:black; " description="&lt;b&gt;DS906_RS11045&lt;/b&gt;&lt;br&gt;BCCT family transporter&lt;br&gt;Location: 183462 - 181993" locus_tag="DS906_RS11045" class="clusterblast-orf" id="dummy-1_h1_7_0"  />
</g>
<g id="a1_001"  >
<polygon points="88,90 109,90 114,85 109,80 88,80 88,90 " style="fill:white; stroke-width:1; stroke:black; " description="&lt;b&gt;DS906_RS11035&lt;/b&gt;&lt;br&gt;DedA family protein&lt;br&gt;Location: 181425 - 180847" locus_tag="DS906_RS11035" class="clusterblast-orf" id="dummy-1_h1_7_1"  />
</g>
<g id="a1_002"  >
<polygon points="114,90 129,90 134,85 129,80 114,80 114,90 " style="fill:white; stroke-width:1; stroke:black; " description="&lt;b&gt;DS906_RS11030&lt;/b&gt;&lt;br&gt;disulfide bond formation protein B&lt;br&gt;Location: 180850 - 180386" locus_tag="DS906_RS11030" class="clusterblast-orf" id="dummy-1_h1_7_2"  />
</g>
<g id="a1_003"  >
<polygon points="134,85 139,80 160,80 160,90 139,90 134,85 " style="fill:white; stroke-width:1; stroke:black; " description="&lt;b&gt;DS906_RS11025&lt;/b&gt;&lt;br&gt;HNH endonuclease&lt;br&gt;Location: 180379 - 179795" locus_tag="DS906_RS11025" class="clusterblast-orf" id="dummy-1_h1_7_3"  />
</g>
<g id="a1_004"  >
<polygon points="169,90 190,90 195,85 190,80 169,80 169,90 " style="fill:white; stroke-width:1; stroke:black; " description="&lt;b&gt;DS906_RS11020&lt;/b&gt;&lt;br&gt;rRNA large subunit pseudouridine synthase E&lt;br&gt;Location: 179581 - 178976" locus_tag="DS906_RS11020" class="clusterblast-orf" id="dummy-1_h1_7_4"  />
</g>
<g id="a1_005"  >
<polygon points="197,90 210,90 215,85 210,80 197,80 197,90 " style="fill:white; stroke-width:1; stroke:black; " description="&lt;b&gt;DS906_RS11015&lt;/b&gt;&lt;br&gt;glyoxalase/bleomycin resistance/extradiol dioxygenase family protein&lt;br&gt;Location: 178944 - 178519" locus_tag="DS906_RS11015" class="clusterblast-orf" id="dummy-1_h1_7_5"  />
</g>
<g id="a1_006"  >
<polygon points="216,85 221,80 229,80 229,90 221,90 216,85 " style="fill:white; stroke-width:1; stroke:black; " description="&lt;b&gt;DS906_RS11010&lt;/b&gt;&lt;br&gt;antibiotic biosynthesis monooxygenase&lt;br&gt;Location: 178514 - 178212" locus_tag="DS906_RS11010" class="clusterblast-orf" id="dummy-1_h1_7_6"  />
</g>
<g id="a1_007"  >
<polygon points="229,85 234,80 251,80 251,90 234,90 229,85 " style="fill:white; stroke-width:1; stroke:black; " description="&lt;b&gt;DS906_RS11005&lt;/b&gt;&lt;br&gt;GNAT family N-acetyltransferase&lt;br&gt;Location: 178218 - 177715" locus_tag="DS906_RS11005" class="clusterblast-orf" id="dummy-1_h1_7_7"  />
</g>
<g id="a1_008"  >
<polygon points="251,85 256,80 280,80 280,90 256,90 251,85 " style="fill:white; stroke-width:1; stroke:black; " description="&lt;b&gt;DS906_RS11000&lt;/b&gt;&lt;br&gt;alpha/beta fold hydrolase&lt;br&gt;Location: 177712 - 177047" locus_tag="DS906_RS11000" class="clusterblast-orf" id="dummy-1_h1_7_8"  />
</g>
<g id="a1_009"  >
<polygon points="280,85 285,80 307,80 307,90 285,90 280,85 " style="fill:white; stroke-width:1; stroke:black; " description="&lt;b&gt;DS906_RS10995&lt;/b&gt;&lt;br&gt;DNA-3-methyladenine glycosylase 2 family protein&lt;br&gt;Location: 177050 - 176418" locus_tag="DS906_RS10995" class="clusterblast-orf" id="dummy-1_h1_7_9"  />
</g>
<g id="a1_0010"  >
<polygon points="311,90 360,90 365,85 360,80 311,80 311,90 " style="fill:white; stroke-width:1; stroke:black; " description="&lt;b&gt;DS906_RS10990&lt;/b&gt;&lt;br&gt;MFS transporter&lt;br&gt;Location: 176320 - 175103" locus_tag="DS906_RS10990" class="clusterblast-orf" id="dummy-1_h1_7_10"  />
</g>
<g id="a1_0011"  >
<polygon points="364,85 369,80 383,80 383,90 369,90 364,85 " style="fill:white; stroke-width:1; stroke:black; " description="&lt;b&gt;DS906_RS10985&lt;/b&gt;&lt;br&gt;MarR family transcriptional regulator&lt;br&gt;Location: 175106 - 174690" locus_tag="DS906_RS10985" class="clusterblast-orf" id="dummy-1_h1_7_11"  />
</g>
<g id="a1_0012"  >
<polygon points="387,90 407,90 412,85 407,80 387,80 387,90 " style="fill:white; stroke-width:1; stroke:black; " description="&lt;b&gt;DS906_RS10980&lt;/b&gt;&lt;br&gt;polyisoprenoid-binding protein&lt;br&gt;Location: 174598 - 174008" locus_tag="DS906_RS10980" class="clusterblast-orf" id="dummy-1_h1_7_12"  />
</g>
<g id="a1_0013"  >
<polygon points="412,85 417,80 447,80 447,90 417,90 412,85 " style="fill:#d81515; stroke-width:1; stroke:black; " description="&lt;b&gt;DS906_RS10975&lt;/b&gt;&lt;br&gt;squalene/phytoene synthase family protein&lt;br&gt;Location: 174007 - 173225&lt;br&gt;&lt;br&gt;&lt;b&gt;BlastP hit with LGINICCL_00900&lt;/b&gt;&lt;br&gt;Percentage identity: 46&lt;br&gt;Percentage coverage: 102&lt;br&gt;BLAST bit score: 184&lt;br&gt;E-value: 8.04e-56" locus_tag="DS906_RS10975" class="clusterblast-orf" id="dummy-1_h1_7_13"  />
</g>
<g id="a1_0014"  >
<polygon points="446,85 451,80 518,80 518,90 451,90 446,85 " style="fill:#4dd815; stroke-width:1; stroke:black; " description="&lt;b&gt;DS906_RS10970&lt;/b&gt;&lt;br&gt;citramalate synthase&lt;br&gt;Location: 173228 - 171594&lt;br&gt;&lt;br&gt;&lt;b&gt;BlastP hit with LGINICCL_00901&lt;/b&gt;&lt;br&gt;Percentage identity: 71&lt;br&gt;Percentage coverage: 99&lt;br&gt;BLAST bit score: 751&lt;br&gt;E-value: 6.16e-270" locus_tag="DS906_RS10970" class="clusterblast-orf" id="dummy-1_h1_7_14"  />
</g>
<g id="a1_0015"  >
<polygon points="518,85 523,80 579,80 579,90 523,90 518,85 " style="fill:#1585d8; stroke-width:1; stroke:black; " description="&lt;b&gt;DS906_RS10965&lt;/b&gt;&lt;br&gt;cysteine--tRNA ligase&lt;br&gt;Location: 171594 - 170197&lt;br&gt;&lt;br&gt;&lt;b&gt;BlastP hit with LGINICCL_00902&lt;/b&gt;&lt;br&gt;Percentage identity: 57&lt;br&gt;Percentage coverage: 82&lt;br&gt;BLAST bit score: 490&lt;br&gt;E-value: 2.82e-168" locus_tag="DS906_RS10965" class="clusterblast-orf" id="dummy-1_h1_7_15"  />
</g>
<g id="a1_0016"  >
<polygon points="588,90 598,90 603,85 598,80 588,80 588,90 " style="fill:#d815bc; stroke-width:1; stroke:black; " description="&lt;b&gt;DS906_RS10955&lt;/b&gt;&lt;br&gt;MmcQ/YjbR family DNA-binding protein&lt;br&gt;Location: 169981 - 169637&lt;br&gt;&lt;br&gt;&lt;b&gt;BlastP hit with LGINICCL_00903&lt;/b&gt;&lt;br&gt;Percentage identity: 60&lt;br&gt;Percentage coverage: 98&lt;br&gt;BLAST bit score: 149&lt;br&gt;E-value: 6.27e-46" locus_tag="DS906_RS10955" class="clusterblast-orf" id="dummy-1_h1_7_16"  />
</g>
<g id="a1_0017"  >
<polygon points="606,90 653,90 658,85 653,80 606,80 606,90 " style="fill:white; stroke-width:1; stroke:black; " description="&lt;b&gt;DS906_RS10950&lt;/b&gt;&lt;br&gt;pyridoxal phosphate-dependent aminotransferase&lt;br&gt;Location: 169578 - 168391" locus_tag="DS906_RS10950" class="clusterblast-orf" id="dummy-1_h1_7_17"  />
</g>
<g id="a1_0018"  >
<polygon points="658,85 663,80 681,80 681,90 663,90 658,85 " style="fill:white; stroke-width:1; stroke:black; " description="&lt;b&gt;DS906_RS10945&lt;/b&gt;&lt;br&gt;porin family protein&lt;br&gt;Location: 168384 - 167866" locus_tag="DS906_RS10945" class="clusterblast-orf" id="dummy-1_h1_7_18"  />
</g>
<g id="a1_0019"  >
<polygon points="699,90 761,90 766,85 761,80 699,80 699,90 " style="fill:white; stroke-width:1; stroke:black; " description="&lt;b&gt;DS906_RS10940&lt;/b&gt;&lt;br&gt;trimethylamine methyltransferase family protein&lt;br&gt;Location: 167448 - 165904" locus_tag="DS906_RS10940" class="clusterblast-orf" id="dummy-1_h1_7_19"  />
</g>
<g id="a1_0020"  >
<polygon points="769,85 774,80 780,80 780,90 774,90 769,85 " style="fill:white; stroke-width:1; stroke:black; " description="&lt;b&gt;DS906_RS10935&lt;/b&gt;&lt;br&gt;hypothetical protein&lt;br&gt;Location: 165849 - 165604" locus_tag="DS906_RS10935" class="clusterblast-orf" id="dummy-1_h1_7_20"  />
</g>
</svg>
