<svg xmlns="http://www.w3.org/2000/svg" xmlns:xlink="http://www.w3.org/1999/xlink" version="1.1" x="0" y="0" height="230" width="800" viewBox="0 0 800 230" preserveAspectRatio="none"  >
<g label="Query sequence" class="clusterblast-cluster"  >
<text x="5" y="20" class="clusterblast-acc"  >
Query sequence</text>
<line x1="10" y1="35" x2="778.0" y2="35" style="stroke-width:1; stroke:grey; "  />
<polygon points="0,35 5,30 17,30 17,40 5,40 0,35 " style="fill:#d81515; stroke-width:1; stroke:black; " description="&lt;b&gt;LGINICCL_02124&lt;/b&gt;&lt;br&gt;Peroxide-responsive repressor PerR&lt;br&gt;Location: 4872 - 5310" locus_tag="LGINICCL_02124" class="clusterblast-orf" id="dummy-1_q0_0_all"  />
<polygon points="23,40 37,40 42,35 37,30 23,30 23,40 " style="fill:#15d863; stroke-width:1; stroke:black; " description="&lt;b&gt;LGINICCL_02125&lt;/b&gt;&lt;br&gt;3-hydroxydecanoyl-[acyl-carrier-protein] dehydratase&lt;br&gt;Location: 5454 - 5964" locus_tag="LGINICCL_02125" class="clusterblast-orf" id="dummy-1_q1_0_all"  />
<polygon points="43,35 48,30 75,30 75,40 48,40 43,35 " style="fill:white; stroke-width:1; stroke:black; " description="&lt;b&gt;LGINICCL_02126&lt;/b&gt;&lt;br&gt;hypothetical protein&lt;br&gt;Location: 5988 - 6792" locus_tag="LGINICCL_02126" class="clusterblast-orf" id="dummy-1_q2_0_all"  />
<polygon points="82,40 125,40 130,35 125,30 82,30 82,40 " style="fill:#1563d8; stroke-width:1; stroke:black; " description="&lt;b&gt;LGINICCL_02127&lt;/b&gt;&lt;br&gt;3-oxoacyl-[acyl-carrier-protein] synthase 1&lt;br&gt;Location: 6990 - 8220" locus_tag="LGINICCL_02127" class="clusterblast-orf" id="dummy-1_q3_0_all"  />
<polygon points="131,40 156,40 161,35 156,30 131,30 131,40 " style="fill:#b115d8; stroke-width:1; stroke:black; " description="&lt;b&gt;LGINICCL_02128&lt;/b&gt;&lt;br&gt;Enoyl-[acyl-carrier-protein] reductase [NADH] FabI&lt;br&gt;Location: 8237 - 9026" locus_tag="LGINICCL_02128" class="clusterblast-orf" id="dummy-1_q4_0_all"  />
<polygon points="162,35 167,30 188,30 188,40 167,40 162,35 " style="fill:white; stroke-width:1; stroke:black; " description="&lt;b&gt;LGINICCL_02129&lt;/b&gt;&lt;br&gt;Dual-specificity RNA pseudouridine synthase RluA&lt;br&gt;Location: 9041 - 9707" locus_tag="LGINICCL_02129" class="clusterblast-orf" id="dummy-1_q5_0_all"  />
<polygon points="188,35 193,30 213,30 213,40 193,40 188,35 " style="fill:white; stroke-width:1; stroke:black; " description="&lt;b&gt;LGINICCL_02130&lt;/b&gt;&lt;br&gt;hypothetical protein&lt;br&gt;Location: 9706 - 10366" locus_tag="LGINICCL_02130" class="clusterblast-orf" id="dummy-1_q6_0_all"  />
<polygon points="214,35 219,30 219,30 219,40 219,40 214,35 " style="fill:white; stroke-width:1; stroke:black; " description="&lt;b&gt;LGINICCL_02131&lt;/b&gt;&lt;br&gt;Cytochrome c oxidase subunit 4&lt;br&gt;Location: 10368 - 10503" locus_tag="LGINICCL_02131" class="clusterblast-orf" id="dummy-1_q7_0_all"  />
<polygon points="222,35 227,30 263,30 263,40 227,40 222,35 " style="fill:white; stroke-width:1; stroke:black; " description="&lt;b&gt;LGINICCL_02132&lt;/b&gt;&lt;br&gt;hypothetical protein&lt;br&gt;Location: 10576 - 11641" locus_tag="LGINICCL_02132" class="clusterblast-orf" id="dummy-1_q8_0_all"  />
<polygon points="263,35 268,30 329,30 329,40 268,40 263,35 " style="fill:white; stroke-width:1; stroke:black; " description="&lt;b&gt;LGINICCL_02133&lt;/b&gt;&lt;br&gt;3-methylmercaptopropionyl-CoA dehydrogenase&lt;br&gt;Location: 11640 - 13347" locus_tag="LGINICCL_02133" class="clusterblast-orf" id="dummy-1_q9_0_all"  />
<polygon points="332,40 366,40 371,35 366,30 332,30 332,40 " style="fill:white; stroke-width:1; stroke:black; " description="&lt;b&gt;LGINICCL_02134&lt;/b&gt;&lt;br&gt;Threonylcarbamoyl-AMP synthase&lt;br&gt;Location: 13417 - 14419" locus_tag="LGINICCL_02134" class="clusterblast-orf" id="dummy-1_q10_0_all"  />
<polygon points="377,40 406,40 411,35 406,30 377,30 377,40 " style="fill:#b1d815; stroke-width:1; stroke:black; " description="&lt;b&gt;LGINICCL_02135&lt;/b&gt;&lt;br&gt;hypothetical protein&lt;br&gt;Location: 14586 - 15456" locus_tag="LGINICCL_02135" class="clusterblast-orf" id="dummy-1_q11_0_all"  />
<polygon points="414,40 438,40 443,35 438,30 414,30 414,40 " style="fill:white; stroke-width:1; stroke:black; " description="&lt;b&gt;LGINICCL_02136&lt;/b&gt;&lt;br&gt;hypothetical protein&lt;br&gt;Location: 15529 - 16273" locus_tag="LGINICCL_02136" class="clusterblast-orf" id="dummy-1_q12_0_all"  />
<polygon points="442,35 447,30 467,30 467,40 447,40 442,35 " style="fill:white; stroke-width:1; stroke:black; " description="&lt;b&gt;LGINICCL_02137&lt;/b&gt;&lt;br&gt;hypothetical protein&lt;br&gt;Location: 16251 - 16890" locus_tag="LGINICCL_02137" class="clusterblast-orf" id="dummy-1_q13_0_all"  />
<polygon points="467,35 472,30 485,30 485,40 472,40 467,35 " style="fill:white; stroke-width:1; stroke:black; " description="&lt;b&gt;LGINICCL_02138&lt;/b&gt;&lt;br&gt;tRNA-specific adenosine deaminase&lt;br&gt;Location: 16889 - 17342" locus_tag="LGINICCL_02138" class="clusterblast-orf" id="dummy-1_q14_0_all"  />
<polygon points="485,40 517,40 522,35 517,30 485,30 485,40 " style="fill:white; stroke-width:1; stroke:black; " description="&lt;b&gt;LGINICCL_02139&lt;/b&gt;&lt;br&gt;hypothetical protein&lt;br&gt;Location: 17351 - 18293" locus_tag="LGINICCL_02139" class="clusterblast-orf" id="dummy-1_q15_0_all"  />
<polygon points="540,40 582,40 587,35 582,30 540,30 540,40 " style="fill:white; stroke-width:1; stroke:black; " description="&lt;b&gt;LGINICCL_02140&lt;/b&gt;&lt;br&gt;hypothetical protein&lt;br&gt;Location: 18770 - 19973" locus_tag="LGINICCL_02140" class="clusterblast-orf" id="dummy-1_q16_0_all"  />
<polygon points="590,35 595,30 639,30 639,40 595,40 590,35 " style="fill:white; stroke-width:1; stroke:black; " description="&lt;b&gt;LGINICCL_02141&lt;/b&gt;&lt;br&gt;Phosphoribosylamine--glycine ligase&lt;br&gt;Location: 20045 - 21317" locus_tag="LGINICCL_02141" class="clusterblast-orf" id="dummy-1_q17_0_all"  />
<polygon points="642,40 700,40 705,35 700,30 642,30 642,40 " style="fill:white; stroke-width:1; stroke:black; " description="&lt;b&gt;LGINICCL_02142&lt;/b&gt;&lt;br&gt;Exodeoxyribonuclease 7 large subunit&lt;br&gt;Location: 21394 - 23005" locus_tag="LGINICCL_02142" class="clusterblast-orf" id="dummy-1_q18_0_all"  />
<polygon points="709,35 714,30 725,30 725,40 714,40 709,35 " style="fill:white; stroke-width:1; stroke:black; " description="&lt;b&gt;LGINICCL_02143&lt;/b&gt;&lt;br&gt;hypothetical protein&lt;br&gt;Location: 23104 - 23515" locus_tag="LGINICCL_02143" class="clusterblast-orf" id="dummy-1_q19_0_all"  />
<polygon points="728,40 775,40 780,35 775,30 728,30 728,40 " style="fill:white; stroke-width:1; stroke:black; " description="&lt;b&gt;LGINICCL_02144&lt;/b&gt;&lt;br&gt;Glutamate--tRNA ligase 1&lt;br&gt;Location: 23615 - 24938" locus_tag="LGINICCL_02144" class="clusterblast-orf" id="dummy-1_q20_0_all"  />
</g>
<g label="NZ_KE557280" description="NZ_KE557280 (17213-38074): Salipiger mucosus DSM 16094 scaffold8, whole genom... (10% of genes show similarity), hserlactone" class="clusterblast-cluster"  >
<text x="5" y="70" class="clusterblast-acc"  >
<a xlink:href="https://antismash-db.secondarymetabolites.org/area.html?record=NZ_KE557280&amp;start=17213&amp;end=38074" target="_blank">NZ_KE557280 (17213-38074)</a>: Salipiger mucosus DSM 16094 scaffold8, whole genom... (10% of genes show similarity), hserlactone</text>
<line x1="10" y1="85" x2="778.0" y2="85" style="stroke-width:1; stroke:grey; "  />
</g>
<g id="a1_000"  >
<polygon points="13,90 33,90 38,85 33,80 13,80 13,90 " style="fill:white; stroke-width:1; stroke:black; " description="&lt;b&gt;SALMUC_RS18725&lt;/b&gt;&lt;br&gt;50S ribosomal protein L21&lt;br&gt;Location: 17666 - 18292" locus_tag="SALMUC_RS18725" class="clusterblast-orf" id="dummy-1_h1_6_0"  />
</g>
<g id="a1_001"  >
<polygon points="38,90 44,90 49,85 44,80 38,80 38,90 " style="fill:white; stroke-width:1; stroke:black; " description="&lt;b&gt;SALMUC_RS18730&lt;/b&gt;&lt;br&gt;50S ribosomal protein L27&lt;br&gt;Location: 18312 - 18581" locus_tag="SALMUC_RS18730" class="clusterblast-orf" id="dummy-1_h1_6_1"  />
</g>
<g id="a1_002"  >
<polygon points="55,90 72,90 77,85 72,80 55,80 55,90 " style="fill:white; stroke-width:1; stroke:black; " description="&lt;b&gt;SALMUC_RS18735&lt;/b&gt;&lt;br&gt;GNAT family N-acetyltransferase&lt;br&gt;Location: 18747 - 19295" locus_tag="SALMUC_RS18735" class="clusterblast-orf" id="dummy-1_h1_6_2"  />
</g>
<g id="a1_003"  >
<polygon points="81,90 123,90 128,85 123,80 81,80 81,90 " style="fill:white; stroke-width:1; stroke:black; " description="&lt;b&gt;SALMUC_RS18740&lt;/b&gt;&lt;br&gt;MFS transporter&lt;br&gt;Location: 19404 - 20615" locus_tag="SALMUC_RS18740" class="clusterblast-orf" id="dummy-1_h1_6_3"  />
</g>
<g id="a1_004"  >
<polygon points="131,85 136,80 153,80 153,90 136,90 131,85 " style="fill:white; stroke-width:1; stroke:black; " description="&lt;b&gt;SALMUC_RS18745&lt;/b&gt;&lt;br&gt;DUF882 domain-containing protein&lt;br&gt;Location: 20702 - 21271" locus_tag="SALMUC_RS18745" class="clusterblast-orf" id="dummy-1_h1_6_4"  />
</g>
<g id="a1_005"  >
<polygon points="167,90 225,90 230,85 225,80 167,80 167,90 " style="fill:white; stroke-width:1; stroke:black; " description="&lt;b&gt;SALMUC_RS18750&lt;/b&gt;&lt;br&gt;L,D-transpeptidase family protein&lt;br&gt;Location: 21615 - 23231" locus_tag="SALMUC_RS18750" class="clusterblast-orf" id="dummy-1_h1_6_5"  />
</g>
<g id="a1_006"  >
<polygon points="231,90 268,90 273,85 268,80 231,80 231,90 " style="fill:white; stroke-width:1; stroke:black; " description="&lt;b&gt;SALMUC_RS18755&lt;/b&gt;&lt;br&gt;UDP-3-O-(3-hydroxymyristoyl)glucosamine N-acyltransferase&lt;br&gt;Location: 23261 - 24352" locus_tag="SALMUC_RS18755" class="clusterblast-orf" id="dummy-1_h1_6_6"  />
</g>
<g id="a1_007"  >
<polygon points="275,90 280,90 285,85 280,80 275,80 275,90 " style="fill:white; stroke-width:1; stroke:black; " description="&lt;b&gt;SALMUC_RS18760&lt;/b&gt;&lt;br&gt;acyl carrier protein&lt;br&gt;Location: 24395 - 24655" locus_tag="SALMUC_RS18760" class="clusterblast-orf" id="dummy-1_h1_6_7"  />
</g>
<g id="a1_008"  >
<polygon points="285,90 327,90 332,85 327,80 285,80 285,90 " style="fill:#1563d8; stroke-width:1; stroke:black; " description="&lt;b&gt;SALMUC_RS18765&lt;/b&gt;&lt;br&gt;beta-ketoacyl-[acyl-carrier-protein] synthase family protein&lt;br&gt;Location: 24652 - 25863&lt;br&gt;&lt;br&gt;&lt;b&gt;BlastP hit with LGINICCL_02127&lt;/b&gt;&lt;br&gt;Percentage identity: 32&lt;br&gt;Percentage coverage: 103&lt;br&gt;BLAST bit score: 200&lt;br&gt;E-value: 4.35e-58" locus_tag="SALMUC_RS18765" class="clusterblast-orf" id="dummy-1_h1_6_8"  />
</g>
<g id="a1_009"  >
<polygon points="338,90 343,90 348,85 343,80 338,80 338,90 " style="fill:white; stroke-width:1; stroke:black; " description="&lt;b&gt;SALMUC_RS18770&lt;/b&gt;&lt;br&gt;helix-turn-helix transcriptional regulator&lt;br&gt;Location: 26014 - 26289" locus_tag="SALMUC_RS18770" class="clusterblast-orf" id="dummy-1_h1_6_9"  />
</g>
<g id="a1_0010"  >
<polygon points="343,90 376,90 381,85 376,80 343,80 343,90 " style="fill:white; stroke-width:1; stroke:black; " description="&lt;b&gt;SALMUC_RS18775&lt;/b&gt;&lt;br&gt;LuxR family transcriptional regulator&lt;br&gt;Location: 26138 - 27130" locus_tag="SALMUC_RS18775" class="clusterblast-orf" id="dummy-1_h1_6_10"  />
</g>
<g id="a1_0011"  >
<polygon points="384,90 413,90 418,85 413,80 384,80 384,90 " style="fill:#b1d815; stroke-width:1; stroke:black; " description="&lt;b&gt;SALMUC_RS18780&lt;/b&gt;&lt;br&gt;hypothetical protein&lt;br&gt;Location: 27214 - 28074&lt;br&gt;&lt;br&gt;&lt;b&gt;BlastP hit with LGINICCL_02135&lt;/b&gt;&lt;br&gt;Percentage identity: 63&lt;br&gt;Percentage coverage: 97&lt;br&gt;BLAST bit score: 345&lt;br&gt;E-value: 4.44e-118" locus_tag="SALMUC_RS18780" class="clusterblast-orf" id="dummy-1_h1_6_11"  />
</g>
<g id="a1_0012"  >
<polygon points="432,85 437,80 471,80 471,90 437,90 432,85 " style="fill:white; stroke-width:1; stroke:black; " description="&lt;b&gt;SALMUC_RS18785&lt;/b&gt;&lt;br&gt;type I glyceraldehyde-3-phosphate dehydrogenase&lt;br&gt;Location: 28439 - 29446" locus_tag="SALMUC_RS18785" class="clusterblast-orf" id="dummy-1_h1_6_12"  />
</g>
<g id="a1_0013"  >
<polygon points="480,90 513,90 518,85 513,80 480,80 480,90 " style="fill:white; stroke-width:1; stroke:black; " description="&lt;b&gt;SALMUC_RS18790&lt;/b&gt;&lt;br&gt;DUF808 domain-containing protein&lt;br&gt;Location: 29669 - 30643" locus_tag="SALMUC_RS18790" class="clusterblast-orf" id="dummy-1_h1_6_13"  />
</g>
<g id="a1_0014"  >
<polygon points="522,85 527,80 600,80 600,90 527,90 522,85 " style="fill:white; stroke-width:1; stroke:black; " description="&lt;b&gt;SALMUC_RS18795&lt;/b&gt;&lt;br&gt;transketolase&lt;br&gt;Location: 30752 - 32767" locus_tag="SALMUC_RS18795" class="clusterblast-orf" id="dummy-1_h1_6_14"  />
</g>
<g id="a1_0015"  >
<polygon points="609,90 627,90 632,85 627,80 609,80 609,90 " style="fill:white; stroke-width:1; stroke:black; " description="&lt;b&gt;SALMUC_RS18800&lt;/b&gt;&lt;br&gt;hypothetical protein&lt;br&gt;Location: 32993 - 33574" locus_tag="SALMUC_RS18800" class="clusterblast-orf" id="dummy-1_h1_6_15"  />
</g>
<g id="a1_0016"  >
<polygon points="632,90 642,90 647,85 642,80 632,80 632,90 " style="fill:white; stroke-width:1; stroke:black; " description="&lt;b&gt;SALMUC_RS18805&lt;/b&gt;&lt;br&gt;cell division protein ZapA&lt;br&gt;Location: 33574 - 33975" locus_tag="SALMUC_RS18805" class="clusterblast-orf" id="dummy-1_h1_6_16"  />
</g>
<g id="a1_0017"  >
<polygon points="651,85 656,80 701,80 701,90 656,90 651,85 " style="fill:white; stroke-width:1; stroke:black; " description="&lt;b&gt;SALMUC_RS18810&lt;/b&gt;&lt;br&gt;phosphopyruvate hydratase&lt;br&gt;Location: 34083 - 35357" locus_tag="SALMUC_RS18810" class="clusterblast-orf" id="dummy-1_h1_6_17"  />
</g>
<g id="a1_0018"  >
<polygon points="707,85 712,80 766,80 766,90 712,90 707,85 " style="fill:white; stroke-width:1; stroke:black; " description="&lt;b&gt;SALMUC_RS18815&lt;/b&gt;&lt;br&gt;anthranilate synthase component I&lt;br&gt;Location: 35513 - 37027" locus_tag="SALMUC_RS18815" class="clusterblast-orf" id="dummy-1_h1_6_18"  />
</g>
</svg>
