<svg xmlns="http://www.w3.org/2000/svg" xmlns:xlink="http://www.w3.org/1999/xlink" version="1.1" x="0" y="0" height="230" width="800" viewBox="0 0 800 230" preserveAspectRatio="none"  >
<g label="Query sequence" class="clusterblast-cluster"  >
<text x="5" y="20" class="clusterblast-acc"  >
Query sequence</text>
<line x1="10" y1="35" x2="778.0" y2="35" style="stroke-width:1; stroke:grey; "  />
<polygon points="0,35 5,30 34,30 34,40 5,40 0,35 " style="fill:#d81515; stroke-width:1; stroke:black; " description="&lt;b&gt;EDELDHIG_00997&lt;/b&gt;&lt;br&gt;Farnesyl diphosphate synthase&lt;br&gt;Location: 61874 - 62753" locus_tag="EDELDHIG_00997" class="clusterblast-orf" id="dummy-1_q0_0_all"  />
<polygon points="38,40 93,40 98,35 93,30 38,30 38,40 " style="fill:#67d815; stroke-width:1; stroke:black; " description="&lt;b&gt;EDELDHIG_00998&lt;/b&gt;&lt;br&gt;Hydroxyneurosporene desaturase&lt;br&gt;Location: 62845 - 64411" locus_tag="EDELDHIG_00998" class="clusterblast-orf" id="dummy-1_q1_0_all"  />
<polygon points="98,40 127,40 132,35 127,30 98,30 98,40 " style="fill:#15b9d8; stroke-width:1; stroke:black; " description="&lt;b&gt;EDELDHIG_00999&lt;/b&gt;&lt;br&gt;Acyclic carotenoid 1,2-hydratase&lt;br&gt;Location: 64407 - 65268" locus_tag="EDELDHIG_00999" class="clusterblast-orf" id="dummy-1_q2_0_all"  />
<polygon points="131,35 136,30 165,30 165,40 136,40 131,35 " style="fill:#a515d8; stroke-width:1; stroke:black; " description="&lt;b&gt;EDELDHIG_01000&lt;/b&gt;&lt;br&gt;2-succinyl-6-hydroxy-2, 4-cyclohexadiene-1-carboxylate synthase&lt;br&gt;Location: 65244 - 66129" locus_tag="EDELDHIG_01000" class="clusterblast-orf" id="dummy-1_q3_0_all"  />
<polygon points="165,35 170,30 228,30 228,40 170,40 165,35 " style="fill:#d85315; stroke-width:1; stroke:black; " description="&lt;b&gt;EDELDHIG_01001&lt;/b&gt;&lt;br&gt;Magnesium-chelatase 60 kDa subunit&lt;br&gt;Location: 66132 - 67740" locus_tag="EDELDHIG_01001" class="clusterblast-orf" id="dummy-1_q4_0_all"  />
<polygon points="232,35 237,30 271,30 271,40 237,40 232,35 " style="fill:#2ad815; stroke-width:1; stroke:black; " description="&lt;b&gt;EDELDHIG_01002&lt;/b&gt;&lt;br&gt;Magnesium-chelatase 38 kDa subunit&lt;br&gt;Location: 67856 - 68858" locus_tag="EDELDHIG_01002" class="clusterblast-orf" id="dummy-1_q5_0_all"  />
<polygon points="271,35 276,30 298,30 298,40 276,40 271,35 " style="fill:#157cd8; stroke-width:1; stroke:black; " description="&lt;b&gt;EDELDHIG_01003&lt;/b&gt;&lt;br&gt;Spheroidene monooxygenase&lt;br&gt;Location: 68854 - 69559" locus_tag="EDELDHIG_01003" class="clusterblast-orf" id="dummy-1_q6_0_all"  />
<polygon points="304,40 358,40 363,35 358,30 304,30 304,40 " style="fill:#d815ce; stroke-width:1; stroke:black; " description="&lt;b&gt;EDELDHIG_01004&lt;/b&gt;&lt;br&gt;Phytoene desaturase (neurosporene-forming)&lt;br&gt;Location: 69691 - 71227" locus_tag="EDELDHIG_01004" class="clusterblast-orf" id="dummy-1_q7_0_all"  />
<polygon points="363,40 398,40 403,35 398,30 363,30 363,40 " style="fill:#d89015; stroke-width:1; stroke:black; " description="&lt;b&gt;EDELDHIG_01005&lt;/b&gt;&lt;br&gt;hypothetical protein&lt;br&gt;Location: 71223 - 72261" locus_tag="EDELDHIG_01005" class="clusterblast-orf" id="dummy-1_q8_0_all"  />
<polygon points="409,40 421,40 426,35 421,30 409,30 409,40 " style="fill:#15d83e; stroke-width:1; stroke:black; " description="&lt;b&gt;EDELDHIG_01006&lt;/b&gt;&lt;br&gt;Tryptophan-rich sensory protein&lt;br&gt;Location: 72393 - 72852" locus_tag="EDELDHIG_01006" class="clusterblast-orf" id="dummy-1_q9_0_all"  />
<polygon points="427,35 432,30 448,30 448,40 432,40 427,35 " style="fill:#153ed8; stroke-width:1; stroke:black; " description="&lt;b&gt;EDELDHIG_01007&lt;/b&gt;&lt;br&gt;Isopentenyl-diphosphate Delta-isomerase&lt;br&gt;Location: 72865 - 73420" locus_tag="EDELDHIG_01007" class="clusterblast-orf" id="dummy-1_q10_0_all"  />
<polygon points="448,35 453,30 494,30 494,40 453,40 448,35 " style="fill:#d81590; stroke-width:1; stroke:black; " description="&lt;b&gt;EDELDHIG_01008&lt;/b&gt;&lt;br&gt;hypothetical protein&lt;br&gt;Location: 73416 - 74598" locus_tag="EDELDHIG_01008" class="clusterblast-orf" id="dummy-1_q11_0_all"  />
<polygon points="494,35 499,30 544,30 544,40 499,40 494,35 " style="fill:#d8ce15; stroke-width:1; stroke:black; " description="&lt;b&gt;EDELDHIG_01009&lt;/b&gt;&lt;br&gt;Protein PucC&lt;br&gt;Location: 74601 - 75873" locus_tag="EDELDHIG_01009" class="clusterblast-orf" id="dummy-1_q12_0_all"  />
<polygon points="544,35 549,30 579,30 579,40 549,40 544,35 " style="fill:#15d87c; stroke-width:1; stroke:black; " description="&lt;b&gt;EDELDHIG_01010&lt;/b&gt;&lt;br&gt;1,4-dihydroxy-2-naphthoate octaprenyltransferase&lt;br&gt;Location: 75869 - 76769" locus_tag="EDELDHIG_01010" class="clusterblast-orf" id="dummy-1_q13_0_all"  />
<polygon points="585,40 590,40 595,35 590,30 585,30 585,40 " style="fill:#2a15d8; stroke-width:1; stroke:black; " description="&lt;b&gt;EDELDHIG_01011&lt;/b&gt;&lt;br&gt;hypothetical protein&lt;br&gt;Location: 76922 - 77180" locus_tag="EDELDHIG_01011" class="clusterblast-orf" id="dummy-1_q14_0_all"  />
<polygon points="593,35 598,30 618,30 618,40 598,40 593,35 " style="fill:#d81553; stroke-width:1; stroke:black; " description="&lt;b&gt;EDELDHIG_01012&lt;/b&gt;&lt;br&gt;hypothetical protein&lt;br&gt;Location: 77151 - 77772" locus_tag="EDELDHIG_01012" class="clusterblast-orf" id="dummy-1_q15_0_all"  />
<polygon points="618,35 623,30 684,30 684,40 623,40 618,35 " style="fill:#a5d815; stroke-width:1; stroke:black; " description="&lt;b&gt;EDELDHIG_01013&lt;/b&gt;&lt;br&gt;Anaerobic magnesium-protoporphyrin IX monomethyl ester cyclase&lt;br&gt;Location: 77778 - 79479" locus_tag="EDELDHIG_01013" class="clusterblast-orf" id="dummy-1_q16_0_all"  />
<polygon points="688,35 693,30 743,30 743,40 693,40 688,35 " style="fill:#15d8b9; stroke-width:1; stroke:black; " description="&lt;b&gt;EDELDHIG_01014&lt;/b&gt;&lt;br&gt;hypothetical protein&lt;br&gt;Location: 79576 - 81013" locus_tag="EDELDHIG_01014" class="clusterblast-orf" id="dummy-1_q17_0_all"  />
<polygon points="746,35 751,30 780,30 780,40 751,40 746,35 " style="fill:#6715d8; stroke-width:1; stroke:black; " description="&lt;b&gt;EDELDHIG_01015&lt;/b&gt;&lt;br&gt;hypothetical protein&lt;br&gt;Location: 81072 - 81951" locus_tag="EDELDHIG_01015" class="clusterblast-orf" id="dummy-1_q18_0_all"  />
</g>
<g label="NZ_CP028918" description="NZ_CP028918 (1124240-1143571): Gemmobacter sp. HYN0069 chromosome, complete g... (76% of genes show similarity), terpene" class="clusterblast-cluster"  >
<text x="5" y="70" class="clusterblast-acc"  >
<a xlink:href="https://antismash-db.secondarymetabolites.org/area.html?record=NZ_CP028918&amp;start=1124240&amp;end=1143571" target="_blank">NZ_CP028918 (1124240-1143571)</a>: Gemmobacter sp. HYN0069 chromosome, complete g... (76% of genes show similarity), terpene</text>
<line x1="10" y1="85" x2="778.0" y2="85" style="stroke-width:1; stroke:grey; "  />
</g>
<g id="a1_000"  >
<polygon points="14,90 59,90 64,85 59,80 14,80 14,90 " style="fill:#d8ce15; stroke-width:1; stroke:black; " description="&lt;b&gt;HYN69_RS05450&lt;/b&gt;&lt;br&gt;BCD family MFS transporter&lt;br&gt;Location: 1124241 - 1125524&lt;br&gt;&lt;br&gt;&lt;b&gt;BlastP hit with EDELDHIG_01009&lt;/b&gt;&lt;br&gt;Percentage identity: 63&lt;br&gt;Percentage coverage: 101&lt;br&gt;BLAST bit score: 441&lt;br&gt;E-value: 1.35e-151" locus_tag="HYN69_RS05450" class="clusterblast-orf" id="dummy-1_h1_6_0"  />
</g>
<g id="a1_001"  >
<polygon points="64,90 105,90 110,85 105,80 64,80 64,90 " style="fill:#d81590; stroke-width:1; stroke:black; " description="&lt;b&gt;HYN69_RS05455&lt;/b&gt;&lt;br&gt;geranylgeranyl diphosphate reductase&lt;br&gt;Location: 1125528 - 1126709&lt;br&gt;&lt;br&gt;&lt;b&gt;BlastP hit with EDELDHIG_01008&lt;/b&gt;&lt;br&gt;Percentage identity: 82&lt;br&gt;Percentage coverage: 100&lt;br&gt;BLAST bit score: 650&lt;br&gt;E-value: 3.71e-235" locus_tag="HYN69_RS05455" class="clusterblast-orf" id="dummy-1_h1_6_1"  />
</g>
<g id="a1_002"  >
<polygon points="111,90 126,90 131,85 126,80 111,80 111,90 " style="fill:#153ed8; stroke-width:1; stroke:black; " description="&lt;b&gt;HYN69_RS05460&lt;/b&gt;&lt;br&gt;isopentenyl-diphosphate Delta-isomerase&lt;br&gt;Location: 1126736 - 1127257&lt;br&gt;&lt;br&gt;&lt;b&gt;BlastP hit with EDELDHIG_01007&lt;/b&gt;&lt;br&gt;Percentage identity: 62&lt;br&gt;Percentage coverage: 93&lt;br&gt;BLAST bit score: 234&lt;br&gt;E-value: 1.49e-77" locus_tag="HYN69_RS05460" class="clusterblast-orf" id="dummy-1_h1_6_2"  />
</g>
<g id="a1_003"  >
<polygon points="139,85 144,80 174,80 174,90 144,90 139,85 " style="fill:#a515d8; stroke-width:1; stroke:black; " description="&lt;b&gt;HYN69_RS05465&lt;/b&gt;&lt;br&gt;alpha/beta fold hydrolase&lt;br&gt;Location: 1127471 - 1128349&lt;br&gt;&lt;br&gt;&lt;b&gt;BlastP hit with EDELDHIG_01000&lt;/b&gt;&lt;br&gt;Percentage identity: 57&lt;br&gt;Percentage coverage: 97&lt;br&gt;BLAST bit score: 306&lt;br&gt;E-value: 9.91e-103" locus_tag="HYN69_RS05465" class="clusterblast-orf" id="dummy-1_h1_6_3"  />
</g>
<g id="a1_004"  >
<polygon points="174,85 179,80 237,80 237,90 179,90 174,85 " style="fill:#d85315; stroke-width:1; stroke:black; " description="&lt;b&gt;HYN69_RS05470&lt;/b&gt;&lt;br&gt;magnesium chelatase subunit D&lt;br&gt;Location: 1128351 - 1129991&lt;br&gt;&lt;br&gt;&lt;b&gt;BlastP hit with EDELDHIG_01001&lt;/b&gt;&lt;br&gt;Percentage identity: 57&lt;br&gt;Percentage coverage: 101&lt;br&gt;BLAST bit score: 508&lt;br&gt;E-value: 1.38e-174" locus_tag="HYN69_RS05470" class="clusterblast-orf" id="dummy-1_h1_6_4"  />
</g>
<g id="a1_005"  >
<polygon points="239,85 244,80 278,80 278,90 244,90 239,85 " style="fill:#2ad815; stroke-width:1; stroke:black; " description="&lt;b&gt;HYN69_RS05475&lt;/b&gt;&lt;br&gt;magnesium chelatase ATPase subunit I&lt;br&gt;Location: 1130027 - 1131031&lt;br&gt;&lt;br&gt;&lt;b&gt;BlastP hit with EDELDHIG_01002&lt;/b&gt;&lt;br&gt;Percentage identity: 81&lt;br&gt;Percentage coverage: 99&lt;br&gt;BLAST bit score: 532&lt;br&gt;E-value: 2.22e-190" locus_tag="HYN69_RS05475" class="clusterblast-orf" id="dummy-1_h1_6_5"  />
</g>
<g id="a1_006"  >
<polygon points="283,85 288,80 311,80 311,90 288,90 283,85 " style="fill:#157cd8; stroke-width:1; stroke:black; " description="&lt;b&gt;HYN69_RS05480&lt;/b&gt;&lt;br&gt;spheroidene monooxygenase&lt;br&gt;Location: 1131165 - 1131884&lt;br&gt;&lt;br&gt;&lt;b&gt;BlastP hit with EDELDHIG_01003&lt;/b&gt;&lt;br&gt;Percentage identity: 63&lt;br&gt;Percentage coverage: 102&lt;br&gt;BLAST bit score: 305&lt;br&gt;E-value: 6.94e-104" locus_tag="HYN69_RS05480" class="clusterblast-orf" id="dummy-1_h1_6_6"  />
</g>
<g id="a1_007"  >
<polygon points="316,90 372,90 377,85 372,80 316,80 316,90 " style="fill:#d815ce; stroke-width:1; stroke:black; " description="&lt;b&gt;HYN69_RS05485&lt;/b&gt;&lt;br&gt;phytoene desaturase&lt;br&gt;Location: 1132027 - 1133592&lt;br&gt;&lt;br&gt;&lt;b&gt;BlastP hit with EDELDHIG_01004&lt;/b&gt;&lt;br&gt;Percentage identity: 80&lt;br&gt;Percentage coverage: 98&lt;br&gt;BLAST bit score: 820&lt;br&gt;E-value: 2.28e-298" locus_tag="HYN69_RS05485" class="clusterblast-orf" id="dummy-1_h1_6_7"  />
</g>
<g id="a1_008"  >
<polygon points="377,90 413,90 418,85 413,80 377,80 377,90 " style="fill:#d89015; stroke-width:1; stroke:black; " description="&lt;b&gt;HYN69_RS05490&lt;/b&gt;&lt;br&gt;phytoene/squalene synthase family protein&lt;br&gt;Location: 1133589 - 1134635&lt;br&gt;&lt;br&gt;&lt;b&gt;BlastP hit with EDELDHIG_01005&lt;/b&gt;&lt;br&gt;Percentage identity: 67&lt;br&gt;Percentage coverage: 94&lt;br&gt;BLAST bit score: 420&lt;br&gt;E-value: 7.56e-146" locus_tag="HYN69_RS05490" class="clusterblast-orf" id="dummy-1_h1_6_8"  />
</g>
<g id="a1_009"  >
<polygon points="421,90 435,90 440,85 435,80 421,80 421,90 " style="fill:#15d83e; stroke-width:1; stroke:black; " description="&lt;b&gt;HYN69_RS05495&lt;/b&gt;&lt;br&gt;tryptophan-rich sensory protein&lt;br&gt;Location: 1134719 - 1135195&lt;br&gt;&lt;br&gt;&lt;b&gt;BlastP hit with EDELDHIG_01006&lt;/b&gt;&lt;br&gt;Percentage identity: 61&lt;br&gt;Percentage coverage: 99&lt;br&gt;BLAST bit score: 197&lt;br&gt;E-value: 1.06e-63" locus_tag="HYN69_RS05495" class="clusterblast-orf" id="dummy-1_h1_6_9"  />
</g>
<g id="a1_0010"  >
<polygon points="442,85 447,80 475,80 475,90 447,90 442,85 " style="fill:#15b9d8; stroke-width:1; stroke:black; " description="&lt;b&gt;HYN69_RS05500&lt;/b&gt;&lt;br&gt;carotenoid 1,2-hydratase&lt;br&gt;Location: 1135263 - 1136102&lt;br&gt;&lt;br&gt;&lt;b&gt;BlastP hit with EDELDHIG_00999&lt;/b&gt;&lt;br&gt;Percentage identity: 62&lt;br&gt;Percentage coverage: 98&lt;br&gt;BLAST bit score: 368&lt;br&gt;E-value: 2.36e-127" locus_tag="HYN69_RS05500" class="clusterblast-orf" id="dummy-1_h1_6_10"  />
</g>
<g id="a1_0011"  >
<polygon points="475,85 480,80 538,80 538,90 480,90 475,85 " style="fill:#67d815; stroke-width:1; stroke:black; " description="&lt;b&gt;HYN69_RS05505&lt;/b&gt;&lt;br&gt;FAD-dependent oxidoreductase&lt;br&gt;Location: 1136099 - 1137718&lt;br&gt;&lt;br&gt;&lt;b&gt;BlastP hit with EDELDHIG_00998&lt;/b&gt;&lt;br&gt;Percentage identity: 51&lt;br&gt;Percentage coverage: 104&lt;br&gt;BLAST bit score: 470&lt;br&gt;E-value: 6.11e-160" locus_tag="HYN69_RS05505" class="clusterblast-orf" id="dummy-1_h1_6_11"  />
</g>
<g id="a1_0012"  >
<polygon points="542,90 572,90 577,85 572,80 542,80 542,90 " style="fill:#d81515; stroke-width:1; stroke:black; " description="&lt;b&gt;HYN69_RS05510&lt;/b&gt;&lt;br&gt;polyprenyl synthetase family protein&lt;br&gt;Location: 1137841 - 1138725&lt;br&gt;&lt;br&gt;&lt;b&gt;BlastP hit with EDELDHIG_00997&lt;/b&gt;&lt;br&gt;Percentage identity: 68&lt;br&gt;Percentage coverage: 98&lt;br&gt;BLAST bit score: 373&lt;br&gt;E-value: 7.51e-129" locus_tag="HYN69_RS05510" class="clusterblast-orf" id="dummy-1_h1_6_12"  />
</g>
<g id="a1_0013"  >
<polygon points="578,90 615,90 620,85 615,80 578,80 578,90 " style="fill:white; stroke-width:1; stroke:black; " description="&lt;b&gt;HYN69_RS05515&lt;/b&gt;&lt;br&gt;methyltransferase domain-containing protein&lt;br&gt;Location: 1138746 - 1139843" locus_tag="HYN69_RS05515" class="clusterblast-orf" id="dummy-1_h1_6_13"  />
</g>
<g id="a1_0014"  >
<polygon points="626,90 657,90 662,85 657,80 626,80 626,90 " style="fill:white; stroke-width:1; stroke:black; " description="&lt;b&gt;HYN69_RS05520&lt;/b&gt;&lt;br&gt;chlorophyll synthesis pathway protein BchC&lt;br&gt;Location: 1139982 - 1140926" locus_tag="HYN69_RS05520" class="clusterblast-orf" id="dummy-1_h1_6_14"  />
</g>
<g id="a1_0015"  >
<polygon points="662,90 696,90 701,85 696,80 662,80 662,90 " style="fill:white; stroke-width:1; stroke:black; " description="&lt;b&gt;HYN69_RS05525&lt;/b&gt;&lt;br&gt;chlorophyllide a reductase iron protein subunit X&lt;br&gt;Location: 1140923 - 1141927" locus_tag="HYN69_RS05525" class="clusterblast-orf" id="dummy-1_h1_6_15"  />
</g>
<g id="a1_0016"  >
<polygon points="704,90 760,90 765,85 760,80 704,80 704,90 " style="fill:white; stroke-width:1; stroke:black; " description="&lt;b&gt;HYN69_RS05530&lt;/b&gt;&lt;br&gt;chlorophyllide a reductase subunit Y&lt;br&gt;Location: 1141991 - 1143571" locus_tag="HYN69_RS05530" class="clusterblast-orf" id="dummy-1_h1_6_16"  />
</g>
</svg>
