<svg xmlns="http://www.w3.org/2000/svg" xmlns:xlink="http://www.w3.org/1999/xlink" version="1.1" x="0" y="0" height="230" width="800" viewBox="0 0 800 230" preserveAspectRatio="none"  >
<g label="Query sequence" class="clusterblast-cluster"  >
<text x="5" y="20" class="clusterblast-acc"  >
Query sequence</text>
<line x1="10" y1="35" x2="778.0" y2="35" style="stroke-width:1; stroke:grey; "  />
<polygon points="150,40 184,40 189,35 184,30 150,30 150,40 " style="fill:#d81515; stroke-width:1; stroke:black; " description="&lt;b&gt;EDELDHIG_02307&lt;/b&gt;&lt;br&gt;2-isopropylmalate synthase&lt;br&gt;Location: 230086 - 231652" locus_tag="EDELDHIG_02307" class="clusterblast-orf" id="dummy-2_q0_0_all"  />
<polygon points="198,40 219,40 224,35 219,30 198,30 198,40 " style="fill:#43d815; stroke-width:1; stroke:black; " description="&lt;b&gt;EDELDHIG_02308&lt;/b&gt;&lt;br&gt;Cell shape-determining protein MreB&lt;br&gt;Location: 232007 - 233045" locus_tag="EDELDHIG_02308" class="clusterblast-orf" id="dummy-2_q1_0_all"  />
<polygon points="225,40 243,40 248,35 243,30 225,30 225,40 " style="fill:#15b6d8; stroke-width:1; stroke:black; " description="&lt;b&gt;EDELDHIG_02309&lt;/b&gt;&lt;br&gt;hypothetical protein&lt;br&gt;Location: 233070 - 234009" locus_tag="EDELDHIG_02309" class="clusterblast-orf" id="dummy-2_q2_0_all"  />
<polygon points="248,40 258,40 263,35 258,30 248,30 248,40 " style="fill:#8815d8; stroke-width:1; stroke:black; " description="&lt;b&gt;EDELDHIG_02310&lt;/b&gt;&lt;br&gt;hypothetical protein&lt;br&gt;Location: 233992 - 234601" locus_tag="EDELDHIG_02310" class="clusterblast-orf" id="dummy-2_q3_0_all"  />
<polygon points="263,40 307,40 312,35 307,30 263,30 263,40 " style="fill:#d85a15; stroke-width:1; stroke:black; " description="&lt;b&gt;EDELDHIG_02311&lt;/b&gt;&lt;br&gt;Peptidoglycan D,D-transpeptidase MrdA&lt;br&gt;Location: 234597 - 236535" locus_tag="EDELDHIG_02311" class="clusterblast-orf" id="dummy-2_q4_0_all"  />
<polygon points="312,40 335,40 340,35 335,30 312,30 312,40 " style="fill:#15d82c; stroke-width:1; stroke:black; " description="&lt;b&gt;EDELDHIG_02312&lt;/b&gt;&lt;br&gt;Peptidoglycan glycosyltransferase MrdB&lt;br&gt;Location: 236531 - 237680" locus_tag="EDELDHIG_02312" class="clusterblast-orf" id="dummy-2_q5_0_all"  />
<polygon points="340,40 359,40 364,35 359,30 340,30 340,40 " style="fill:#1571d8; stroke-width:1; stroke:black; " description="&lt;b&gt;EDELDHIG_02313&lt;/b&gt;&lt;br&gt;Glyoxylate/hydroxypyruvate reductase A&lt;br&gt;Location: 237676 - 238609" locus_tag="EDELDHIG_02313" class="clusterblast-orf" id="dummy-2_q6_0_all"  />
<polygon points="368,40 379,40 384,35 379,30 368,30 368,40 " style="fill:white; stroke-width:1; stroke:black; " description="&lt;b&gt;EDELDHIG_02314&lt;/b&gt;&lt;br&gt;hypothetical protein&lt;br&gt;Location: 238796 - 239429" locus_tag="EDELDHIG_02314" class="clusterblast-orf" id="dummy-2_q7_0_all"  />
<polygon points="386,40 388,40 393,35 388,30 386,30 386,40 " style="fill:white; stroke-width:1; stroke:black; " description="&lt;b&gt;EDELDHIG_02315&lt;/b&gt;&lt;br&gt;hypothetical protein&lt;br&gt;Location: 239513 - 239759" locus_tag="EDELDHIG_02315" class="clusterblast-orf" id="dummy-2_q8_0_all"  />
<polygon points="390,35 395,30 411,30 411,40 395,40 390,35 " style="fill:#cd15d8; stroke-width:1; stroke:black; " description="&lt;b&gt;EDELDHIG_02316&lt;/b&gt;&lt;br&gt;hypothetical protein&lt;br&gt;Location: 239666 - 240488" locus_tag="EDELDHIG_02316" class="clusterblast-orf" id="dummy-2_q9_0_all"  />
<polygon points="414,35 419,30 432,30 432,40 419,40 414,35 " style="fill:#d89f15; stroke-width:1; stroke:black; " description="&lt;b&gt;EDELDHIG_02317&lt;/b&gt;&lt;br&gt;Transcriptional activator protein LasR&lt;br&gt;Location: 240632 - 241337" locus_tag="EDELDHIG_02317" class="clusterblast-orf" id="dummy-2_q10_0_all"  />
<polygon points="440,40 489,40 494,35 489,30 440,30 440,40 " style="fill:#15d871; stroke-width:1; stroke:black; " description="&lt;b&gt;EDELDHIG_02318&lt;/b&gt;&lt;br&gt;Malate synthase G&lt;br&gt;Location: 241632 - 243804" locus_tag="EDELDHIG_02318" class="clusterblast-orf" id="dummy-2_q11_0_all"  />
<polygon points="495,35 500,30 517,30 517,40 500,40 495,35 " style="fill:#152cd8; stroke-width:1; stroke:black; " description="&lt;b&gt;EDELDHIG_02319&lt;/b&gt;&lt;br&gt;Secretory immunoglobulin A-binding protein EsiB&lt;br&gt;Location: 243831 - 244716" locus_tag="EDELDHIG_02319" class="clusterblast-orf" id="dummy-2_q12_0_all"  />
<polygon points="520,40 531,40 536,35 531,30 520,30 520,40 " style="fill:#d8159f; stroke-width:1; stroke:black; " description="&lt;b&gt;EDELDHIG_02320&lt;/b&gt;&lt;br&gt;hypothetical protein&lt;br&gt;Location: 244853 - 245477" locus_tag="EDELDHIG_02320" class="clusterblast-orf" id="dummy-2_q13_0_all"  />
<polygon points="536,35 541,30 553,30 553,40 541,40 536,35 " style="fill:#cdd815; stroke-width:1; stroke:black; " description="&lt;b&gt;EDELDHIG_02321&lt;/b&gt;&lt;br&gt;putative oxidoreductase&lt;br&gt;Location: 245483 - 246161" locus_tag="EDELDHIG_02321" class="clusterblast-orf" id="dummy-2_q14_0_all"  />
<polygon points="556,40 562,40 567,35 562,30 556,30 556,40 " style="fill:#15d8b6; stroke-width:1; stroke:black; " description="&lt;b&gt;EDELDHIG_02322&lt;/b&gt;&lt;br&gt;Acyl-CoA thioesterase YbgC&lt;br&gt;Location: 246292 - 246709" locus_tag="EDELDHIG_02322" class="clusterblast-orf" id="dummy-2_q15_0_all"  />
<polygon points="569,40 581,40 586,35 581,30 569,30 569,40 " style="fill:#4315d8; stroke-width:1; stroke:black; " description="&lt;b&gt;EDELDHIG_02323&lt;/b&gt;&lt;br&gt;Tol-Pal system protein TolQ&lt;br&gt;Location: 246796 - 247495" locus_tag="EDELDHIG_02323" class="clusterblast-orf" id="dummy-2_q16_0_all"  />
<polygon points="587,40 593,40 598,35 593,30 587,30 587,40 " style="fill:#d8155a; stroke-width:1; stroke:black; " description="&lt;b&gt;EDELDHIG_02324&lt;/b&gt;&lt;br&gt;Biopolymer transport protein ExbD&lt;br&gt;Location: 247498 - 247969" locus_tag="EDELDHIG_02324" class="clusterblast-orf" id="dummy-2_q17_0_all"  />
<polygon points="599,40 624,40 629,35 624,30 599,30 599,40 " style="fill:#88d815; stroke-width:1; stroke:black; " description="&lt;b&gt;EDELDHIG_02325&lt;/b&gt;&lt;br&gt;hypothetical protein&lt;br&gt;Location: 248000 - 249206" locus_tag="EDELDHIG_02325" class="clusterblast-orf" id="dummy-2_q18_0_all"  />
</g>
<g label="NZ_CP049028" description="NZ_CP049028 (2323992-2356133): Rhodobacteraceae bacterium SC52 chromosome, co... (22% of genes show similarity), betalactone" class="clusterblast-cluster"  >
<text x="5" y="70" class="clusterblast-acc"  >
<a xlink:href="https://antismash-db.secondarymetabolites.org/area.html?record=NZ_CP049028&amp;start=2323992&amp;end=2356133" target="_blank">NZ_CP049028 (2323992-2356133)</a>: Rhodobacteraceae bacterium SC52 chromosome, co... (22% of genes show similarity), betalactone</text>
<line x1="10" y1="85" x2="778.0" y2="85" style="stroke-width:1; stroke:grey; "  />
</g>
<g id="a2_000"  >
<polygon points="0,85 5,80 10,80 10,90 5,90 0,85 " style="fill:white; stroke-width:1; stroke:black; " description="&lt;b&gt;G5B39_RS11435&lt;/b&gt;&lt;br&gt;hypothetical protein&lt;br&gt;Location: 2324886 - 2325299" locus_tag="G5B39_RS11435" class="clusterblast-orf" id="dummy-2_h2_9_0"  />
</g>
<g id="a2_001"  >
<polygon points="12,85 17,80 26,80 26,90 17,90 12,85 " style="fill:white; stroke-width:1; stroke:black; " description="&lt;b&gt;G5B39_RS11440&lt;/b&gt;&lt;br&gt;elongation factor P&lt;br&gt;Location: 2325391 - 2325954" locus_tag="G5B39_RS11440" class="clusterblast-orf" id="dummy-2_h2_9_1"  />
</g>
<g id="a2_002"  >
<polygon points="32,90 35,90 40,85 35,80 32,80 32,90 " style="fill:white; stroke-width:1; stroke:black; " description="&lt;b&gt;G5B39_RS11445&lt;/b&gt;&lt;br&gt;elongation factor P&lt;br&gt;Location: 2326169 - 2326483" locus_tag="G5B39_RS11445" class="clusterblast-orf" id="dummy-2_h2_9_2"  />
</g>
<g id="a2_003"  >
<polygon points="42,90 73,90 78,85 73,80 42,80 42,90 " style="fill:white; stroke-width:1; stroke:black; " description="&lt;b&gt;G5B39_RS11450&lt;/b&gt;&lt;br&gt;cobyric acid synthase&lt;br&gt;Location: 2326569 - 2328026" locus_tag="G5B39_RS11450" class="clusterblast-orf" id="dummy-2_h2_9_3"  />
</g>
<g id="a2_004"  >
<polygon points="80,85 85,80 115,80 115,90 85,90 80,85 " style="fill:white; stroke-width:1; stroke:black; " description="&lt;b&gt;G5B39_RS11455&lt;/b&gt;&lt;br&gt;TolC family outer membrane protein&lt;br&gt;Location: 2328080 - 2329477" locus_tag="G5B39_RS11455" class="clusterblast-orf" id="dummy-2_h2_9_4"  />
</g>
<g id="a2_005"  >
<polygon points="116,85 121,80 132,80 132,90 121,90 116,85 " style="fill:white; stroke-width:1; stroke:black; " description="&lt;b&gt;G5B39_RS11460&lt;/b&gt;&lt;br&gt;protein-L-isoaspartate O-methyltransferase&lt;br&gt;Location: 2329521 - 2330174" locus_tag="G5B39_RS11460" class="clusterblast-orf" id="dummy-2_h2_9_5"  />
</g>
<g id="a2_006"  >
<polygon points="138,85 143,80 177,80 177,90 143,90 138,85 " style="fill:white; stroke-width:1; stroke:black; " description="&lt;b&gt;G5B39_RS11470&lt;/b&gt;&lt;br&gt;cryptochrome/photolyase family protein&lt;br&gt;Location: 2330430 - 2331974" locus_tag="G5B39_RS11470" class="clusterblast-orf" id="dummy-2_h2_9_6"  />
</g>
<g id="a2_007"  >
<polygon points="177,85 182,80 194,80 194,90 182,90 177,85 " style="fill:white; stroke-width:1; stroke:black; " description="&lt;b&gt;G5B39_RS11475&lt;/b&gt;&lt;br&gt;SDR family NAD(P)-dependent oxidoreductase&lt;br&gt;Location: 2331971 - 2332627" locus_tag="G5B39_RS11475" class="clusterblast-orf" id="dummy-2_h2_9_7"  />
</g>
<g id="a2_008"  >
<polygon points="196,90 216,90 221,85 216,80 196,80 196,90 " style="fill:white; stroke-width:1; stroke:black; " description="&lt;b&gt;G5B39_RS11480&lt;/b&gt;&lt;br&gt;GNAT family N-acetyltransferase&lt;br&gt;Location: 2332743 - 2333738" locus_tag="G5B39_RS11480" class="clusterblast-orf" id="dummy-2_h2_9_8"  />
</g>
<g id="a2_009"  >
<polygon points="228,90 262,90 267,85 262,80 228,80 228,90 " style="fill:#d81515; stroke-width:1; stroke:black; " description="&lt;b&gt;G5B39_RS11485&lt;/b&gt;&lt;br&gt;2-isopropylmalate synthase&lt;br&gt;Location: 2333993 - 2335561&lt;br&gt;&lt;br&gt;&lt;b&gt;BlastP hit with EDELDHIG_02307&lt;/b&gt;&lt;br&gt;Percentage identity: 77&lt;br&gt;Percentage coverage: 97&lt;br&gt;BLAST bit score: 774&lt;br&gt;E-value: 9.11e-280" locus_tag="G5B39_RS11485" class="clusterblast-orf" id="dummy-2_h2_9_9"  />
</g>
<g id="a2_0010"  >
<polygon points="274,90 289,90 294,85 289,80 274,80 274,90 " style="fill:white; stroke-width:1; stroke:black; " description="&lt;b&gt;G5B39_RS11490&lt;/b&gt;&lt;br&gt;PEP-CTERM sorting domain-containing protein&lt;br&gt;Location: 2335851 - 2336627" locus_tag="G5B39_RS11490" class="clusterblast-orf" id="dummy-2_h2_9_10"  />
</g>
<g id="a2_0011"  >
<polygon points="295,85 300,80 313,80 313,90 300,90 295,85 " style="fill:white; stroke-width:1; stroke:black; " description="&lt;b&gt;G5B39_RS11495&lt;/b&gt;&lt;br&gt;hypothetical protein&lt;br&gt;Location: 2336662 - 2337405" locus_tag="G5B39_RS11495" class="clusterblast-orf" id="dummy-2_h2_9_11"  />
</g>
<g id="a2_0012"  >
<polygon points="318,90 339,90 344,85 339,80 318,80 318,90 " style="fill:#43d815; stroke-width:1; stroke:black; " description="&lt;b&gt;G5B39_RS11500&lt;/b&gt;&lt;br&gt;rod shape-determining protein&lt;br&gt;Location: 2337589 - 2338626&lt;br&gt;&lt;br&gt;&lt;b&gt;BlastP hit with EDELDHIG_02308&lt;/b&gt;&lt;br&gt;Percentage identity: 87&lt;br&gt;Percentage coverage: 100&lt;br&gt;BLAST bit score: 579&lt;br&gt;E-value: 1.41e-208" locus_tag="G5B39_RS11500" class="clusterblast-orf" id="dummy-2_h2_9_12"  />
</g>
<g id="a2_0013"  >
<polygon points="345,90 363,90 368,85 363,80 345,80 345,90 " style="fill:#15b6d8; stroke-width:1; stroke:black; " description="&lt;b&gt;G5B39_RS11505&lt;/b&gt;&lt;br&gt;rod shape-determining protein MreC&lt;br&gt;Location: 2338675 - 2339589&lt;br&gt;&lt;br&gt;&lt;b&gt;BlastP hit with EDELDHIG_02309&lt;/b&gt;&lt;br&gt;Percentage identity: 62&lt;br&gt;Percentage coverage: 93&lt;br&gt;BLAST bit score: 355&lt;br&gt;E-value: 1.55e-121" locus_tag="G5B39_RS11505" class="clusterblast-orf" id="dummy-2_h2_9_13"  />
</g>
<g id="a2_0014"  >
<polygon points="368,90 376,90 381,85 376,80 368,80 368,90 " style="fill:#8815d8; stroke-width:1; stroke:black; " description="&lt;b&gt;G5B39_RS11510&lt;/b&gt;&lt;br&gt;rod shape-determining protein MreD&lt;br&gt;Location: 2339582 - 2340124&lt;br&gt;&lt;br&gt;&lt;b&gt;BlastP hit with EDELDHIG_02310&lt;/b&gt;&lt;br&gt;Percentage identity: 40&lt;br&gt;Percentage coverage: 92&lt;br&gt;BLAST bit score: 120&lt;br&gt;E-value: 1.17e-32" locus_tag="G5B39_RS11510" class="clusterblast-orf" id="dummy-2_h2_9_14"  />
</g>
<g id="a2_0015"  >
<polygon points="381,90 425,90 430,85 425,80 381,80 381,90 " style="fill:#d85a15; stroke-width:1; stroke:black; " description="&lt;b&gt;G5B39_RS11515&lt;/b&gt;&lt;br&gt;penicillin-binding protein 2&lt;br&gt;Location: 2340121 - 2342064&lt;br&gt;&lt;br&gt;&lt;b&gt;BlastP hit with EDELDHIG_02311&lt;/b&gt;&lt;br&gt;Percentage identity: 60&lt;br&gt;Percentage coverage: 98&lt;br&gt;BLAST bit score: 756&lt;br&gt;E-value: 9.39e-269" locus_tag="G5B39_RS11515" class="clusterblast-orf" id="dummy-2_h2_9_15"  />
</g>
<g id="a2_0016"  >
<polygon points="430,90 454,90 459,85 454,80 430,80 430,90 " style="fill:#15d82c; stroke-width:1; stroke:black; " description="&lt;b&gt;G5B39_RS11520&lt;/b&gt;&lt;br&gt;rod shape-determining protein RodA&lt;br&gt;Location: 2342061 - 2343203&lt;br&gt;&lt;br&gt;&lt;b&gt;BlastP hit with EDELDHIG_02312&lt;/b&gt;&lt;br&gt;Percentage identity: 67&lt;br&gt;Percentage coverage: 99&lt;br&gt;BLAST bit score: 514&lt;br&gt;E-value: 5.58e-182" locus_tag="G5B39_RS11520" class="clusterblast-orf" id="dummy-2_h2_9_16"  />
</g>
<g id="a2_0017"  >
<polygon points="459,90 477,90 482,85 477,80 459,80 459,90 " style="fill:#1571d8; stroke-width:1; stroke:black; " description="&lt;b&gt;G5B39_RS11525&lt;/b&gt;&lt;br&gt;glyoxylate/hydroxypyruvate reductase A&lt;br&gt;Location: 2343207 - 2344145&lt;br&gt;&lt;br&gt;&lt;b&gt;BlastP hit with EDELDHIG_02313&lt;/b&gt;&lt;br&gt;Percentage identity: 57&lt;br&gt;Percentage coverage: 101&lt;br&gt;BLAST bit score: 347&lt;br&gt;E-value: 2.92e-118" locus_tag="G5B39_RS11525" class="clusterblast-orf" id="dummy-2_h2_9_17"  />
</g>
<g id="a2_0018"  >
<polygon points="484,85 489,80 532,80 532,90 489,90 484,85 " style="fill:white; stroke-width:1; stroke:black; " description="&lt;b&gt;G5B39_RS11530&lt;/b&gt;&lt;br&gt;acyl-CoA synthetase&lt;br&gt;Location: 2344232 - 2346133" locus_tag="G5B39_RS11530" class="clusterblast-orf" id="dummy-2_h2_9_18"  />
</g>
<g id="a2_0019"  >
<polygon points="539,85 544,80 584,80 584,90 544,90 539,85 " style="fill:white; stroke-width:1; stroke:black; " description="&lt;b&gt;G5B39_RS11535&lt;/b&gt;&lt;br&gt;ATP-binding cassette domain-containing protein&lt;br&gt;Location: 2346396 - 2348192" locus_tag="G5B39_RS11535" class="clusterblast-orf" id="dummy-2_h2_9_19"  />
</g>
<g id="a2_0020"  >
<polygon points="588,85 593,80 610,80 610,90 593,90 588,85 " style="fill:white; stroke-width:1; stroke:black; " description="&lt;b&gt;G5B39_RS11540&lt;/b&gt;&lt;br&gt;hydroxyquinol 1,2-dioxygenase&lt;br&gt;Location: 2348379 - 2349245" locus_tag="G5B39_RS11540" class="clusterblast-orf" id="dummy-2_h2_9_20"  />
</g>
<g id="a2_0021"  >
<polygon points="610,85 615,80 643,80 643,90 615,90 610,85 " style="fill:white; stroke-width:1; stroke:black; " description="&lt;b&gt;G5B39_RS11545&lt;/b&gt;&lt;br&gt;TRAP transporter large permease subunit&lt;br&gt;Location: 2349256 - 2350560" locus_tag="G5B39_RS11545" class="clusterblast-orf" id="dummy-2_h2_9_21"  />
</g>
<g id="a2_0022"  >
<polygon points="643,85 648,80 657,80 657,90 648,90 643,85 " style="fill:white; stroke-width:1; stroke:black; " description="&lt;b&gt;G5B39_RS11550&lt;/b&gt;&lt;br&gt;TRAP transporter small permease&lt;br&gt;Location: 2350557 - 2351108" locus_tag="G5B39_RS11550" class="clusterblast-orf" id="dummy-2_h2_9_22"  />
</g>
<g id="a2_0023"  >
<polygon points="658,85 663,80 684,80 684,90 663,90 658,85 " style="fill:white; stroke-width:1; stroke:black; " description="&lt;b&gt;G5B39_RS11555&lt;/b&gt;&lt;br&gt;TRAP transporter substrate-binding protein DctP&lt;br&gt;Location: 2351142 - 2352215" locus_tag="G5B39_RS11555" class="clusterblast-orf" id="dummy-2_h2_9_23"  />
</g>
<g id="a2_0024"  >
<polygon points="689,85 694,80 705,80 705,90 694,90 689,85 " style="fill:white; stroke-width:1; stroke:black; " description="&lt;b&gt;G5B39_RS11560&lt;/b&gt;&lt;br&gt;malonic semialdehyde reductase&lt;br&gt;Location: 2352389 - 2353054" locus_tag="G5B39_RS11560" class="clusterblast-orf" id="dummy-2_h2_9_24"  />
</g>
<g id="a2_0025"  >
<polygon points="705,85 710,80 728,80 728,90 710,90 705,85 " style="fill:white; stroke-width:1; stroke:black; " description="&lt;b&gt;G5B39_RS11565&lt;/b&gt;&lt;br&gt;fumarylacetoacetate hydrolase family protein&lt;br&gt;Location: 2353051 - 2353935" locus_tag="G5B39_RS11565" class="clusterblast-orf" id="dummy-2_h2_9_25"  />
</g>
<g id="a2_0026"  >
<polygon points="730,90 735,90 740,85 735,80 730,80 730,90 " style="fill:white; stroke-width:1; stroke:black; " description="&lt;b&gt;G5B39_RS11570&lt;/b&gt;&lt;br&gt;hypothetical protein&lt;br&gt;Location: 2354027 - 2354413" locus_tag="G5B39_RS11570" class="clusterblast-orf" id="dummy-2_h2_9_26"  />
</g>
<g id="a2_0027"  >
<polygon points="740,90 752,90 757,85 752,80 740,80 740,90 " style="fill:white; stroke-width:1; stroke:black; " description="&lt;b&gt;G5B39_RS11575&lt;/b&gt;&lt;br&gt;GntR family transcriptional regulator&lt;br&gt;Location: 2354436 - 2355101" locus_tag="G5B39_RS11575" class="clusterblast-orf" id="dummy-2_h2_9_27"  />
</g>
<g id="a2_0028"  >
<polygon points="758,90 760,90 765,85 760,80 758,80 758,90 " style="fill:white; stroke-width:1; stroke:black; " description="&lt;b&gt;G5B39_RS11580&lt;/b&gt;&lt;br&gt;hypothetical protein&lt;br&gt;Location: 2355149 - 2355445" locus_tag="G5B39_RS11580" class="clusterblast-orf" id="dummy-2_h2_9_28"  />
</g>
<g id="a2_0029"  >
<polygon points="765,90 769,85 765,80 765,90 " style="fill:white; stroke-width:1; stroke:black; " description="&lt;b&gt;G5B39_RS11585&lt;/b&gt;&lt;br&gt;AMP-binding protein&lt;br&gt;Location: 2355436 - 2355570" locus_tag="G5B39_RS11585" class="clusterblast-orf" id="dummy-2_h2_9_29"  />
</g>
<g id="a2_0030"  >
<polygon points="770,85 775,80 780,80 780,90 775,90 770,85 " style="fill:white; stroke-width:1; stroke:black; " description="&lt;b&gt;G5B39_RS11590&lt;/b&gt;&lt;br&gt;hypothetical protein&lt;br&gt;Location: 2355615 - 2356007" locus_tag="G5B39_RS11590" class="clusterblast-orf" id="dummy-2_h2_9_30"  />
</g>
</svg>
