<svg xmlns="http://www.w3.org/2000/svg" xmlns:xlink="http://www.w3.org/1999/xlink" version="1.1" x="0" y="0" height="230" width="800" viewBox="0 0 800 230" preserveAspectRatio="none"  >
<g label="Query sequence" class="clusterblast-cluster"  >
<text x="5" y="20" class="clusterblast-acc"  >
Query sequence</text>
<line x1="10" y1="35" x2="778.0" y2="35" style="stroke-width:1; stroke:grey; "  />
<polygon points="0,35 5,30 24,30 24,40 5,40 0,35 " style="fill:white; stroke-width:1; stroke:black; " description="&lt;b&gt;DPKFPEHH_03227&lt;/b&gt;&lt;br&gt;Kynurenine formamidase&lt;br&gt;Location: 152 - 989" locus_tag="DPKFPEHH_03227" class="clusterblast-orf" id="dummy-1_q0_0_all"  />
<polygon points="30,40 47,40 52,35 47,30 30,30 30,40 " style="fill:white; stroke-width:1; stroke:black; " description="&lt;b&gt;DPKFPEHH_03228&lt;/b&gt;&lt;br&gt;HTH-type transcriptional regulator SrpS&lt;br&gt;Location: 1167 - 1920" locus_tag="DPKFPEHH_03228" class="clusterblast-orf" id="dummy-1_q1_0_all"  />
<polygon points="54,35 59,30 65,30 65,40 59,40 54,35 " style="fill:#d81515; stroke-width:1; stroke:black; " description="&lt;b&gt;DPKFPEHH_03229&lt;/b&gt;&lt;br&gt;hypothetical protein&lt;br&gt;Location: 1985 - 2369" locus_tag="DPKFPEHH_03229" class="clusterblast-orf" id="dummy-1_q2_0_all"  />
<polygon points="65,35 70,30 108,30 108,40 70,40 65,35 " style="fill:#77d815; stroke-width:1; stroke:black; " description="&lt;b&gt;DPKFPEHH_03230&lt;/b&gt;&lt;br&gt;Long-chain-fatty-acid--CoA ligase&lt;br&gt;Location: 2365 - 3835" locus_tag="DPKFPEHH_03230" class="clusterblast-orf" id="dummy-1_q3_0_all"  />
<polygon points="107,35 112,30 146,30 146,40 112,40 107,35 " style="fill:#15d8d8; stroke-width:1; stroke:black; " description="&lt;b&gt;DPKFPEHH_03231&lt;/b&gt;&lt;br&gt;hypothetical protein&lt;br&gt;Location: 3812 - 5132" locus_tag="DPKFPEHH_03231" class="clusterblast-orf" id="dummy-1_q4_0_all"  />
<polygon points="149,40 170,40 175,35 170,30 149,30 149,40 " style="fill:#7715d8; stroke-width:1; stroke:black; " description="&lt;b&gt;DPKFPEHH_03232&lt;/b&gt;&lt;br&gt;putative protein YisK&lt;br&gt;Location: 5236 - 6115" locus_tag="DPKFPEHH_03232" class="clusterblast-orf" id="dummy-1_q5_0_all"  />
<polygon points="175,40 190,40 195,35 190,30 175,30 175,40 " style="fill:#d87715; stroke-width:1; stroke:black; " description="&lt;b&gt;DPKFPEHH_03233&lt;/b&gt;&lt;br&gt;putative malonic semialdehyde reductase RutE&lt;br&gt;Location: 6111 - 6783" locus_tag="DPKFPEHH_03233" class="clusterblast-orf" id="dummy-1_q6_0_all"  />
<polygon points="197,40 224,40 229,35 224,30 197,30 197,40 " style="fill:#15d815; stroke-width:1; stroke:black; " description="&lt;b&gt;DPKFPEHH_03234&lt;/b&gt;&lt;br&gt;hypothetical protein&lt;br&gt;Location: 6860 - 7949" locus_tag="DPKFPEHH_03234" class="clusterblast-orf" id="dummy-1_q7_0_all"  />
<polygon points="229,40 241,40 246,35 241,30 229,30 229,40 " style="fill:#1577d8; stroke-width:1; stroke:black; " description="&lt;b&gt;DPKFPEHH_03235&lt;/b&gt;&lt;br&gt;hypothetical protein&lt;br&gt;Location: 7952 - 8519" locus_tag="DPKFPEHH_03235" class="clusterblast-orf" id="dummy-1_q8_0_all"  />
<polygon points="246,40 279,40 284,35 279,30 246,30 246,40 " style="fill:#d815d8; stroke-width:1; stroke:black; " description="&lt;b&gt;DPKFPEHH_03236&lt;/b&gt;&lt;br&gt;C4-dicarboxylate TRAP transporter large permease protein DctM&lt;br&gt;Location: 8515 - 9832" locus_tag="DPKFPEHH_03236" class="clusterblast-orf" id="dummy-1_q9_0_all"  />
<polygon points="285,40 306,40 311,35 306,30 285,30 285,40 " style="fill:#d8d815; stroke-width:1; stroke:black; " description="&lt;b&gt;DPKFPEHH_03237&lt;/b&gt;&lt;br&gt;Hydroxyquinol 1,2-dioxygenase&lt;br&gt;Location: 9856 - 10723" locus_tag="DPKFPEHH_03237" class="clusterblast-orf" id="dummy-1_q10_0_all"  />
<polygon points="313,35 318,30 332,30 332,40 318,40 313,35 " style="fill:#15d877; stroke-width:1; stroke:black; " description="&lt;b&gt;DPKFPEHH_03238&lt;/b&gt;&lt;br&gt;HTH-type transcriptional repressor GlaR&lt;br&gt;Location: 10796 - 11462" locus_tag="DPKFPEHH_03238" class="clusterblast-orf" id="dummy-1_q11_0_all"  />
<polygon points="342,40 357,40 362,35 357,30 342,30 342,40 " style="fill:white; stroke-width:1; stroke:black; " description="&lt;b&gt;DPKFPEHH_03239&lt;/b&gt;&lt;br&gt;hypothetical protein&lt;br&gt;Location: 11783 - 12455" locus_tag="DPKFPEHH_03239" class="clusterblast-orf" id="dummy-1_q12_0_all"  />
<polygon points="377,40 388,40 393,35 388,30 377,30 377,40 " style="fill:white; stroke-width:1; stroke:black; " description="&lt;b&gt;DPKFPEHH_03241&lt;/b&gt;&lt;br&gt;hypothetical protein&lt;br&gt;Location: 12986 - 13511" locus_tag="DPKFPEHH_03241" class="clusterblast-orf" id="dummy-1_q13_0_all"  />
<polygon points="396,35 401,30 497,30 497,40 401,40 396,35 " style="fill:#1515d8; stroke-width:1; stroke:black; " description="&lt;b&gt;DPKFPEHH_03242&lt;/b&gt;&lt;br&gt;Pyruvate carboxylase&lt;br&gt;Location: 13611 - 17055" locus_tag="DPKFPEHH_03242" class="clusterblast-orf" id="dummy-1_q14_0_all"  />
<polygon points="499,35 504,30 512,30 512,40 504,40 499,35 " style="fill:white; stroke-width:1; stroke:black; " description="&lt;b&gt;DPKFPEHH_03243&lt;/b&gt;&lt;br&gt;hypothetical protein&lt;br&gt;Location: 17143 - 17560" locus_tag="DPKFPEHH_03243" class="clusterblast-orf" id="dummy-1_q15_0_all"  />
<polygon points="522,35 527,30 576,30 576,40 527,40 522,35 " style="fill:#d81577; stroke-width:1; stroke:black; " description="&lt;b&gt;DPKFPEHH_03244&lt;/b&gt;&lt;br&gt;GTP-binding protein TypA/BipA&lt;br&gt;Location: 17911 - 19732" locus_tag="DPKFPEHH_03244" class="clusterblast-orf" id="dummy-1_q16_0_all"  />
<polygon points="582,35 587,30 592,30 592,40 587,40 582,35 " style="fill:white; stroke-width:1; stroke:black; " description="&lt;b&gt;DPKFPEHH_03245&lt;/b&gt;&lt;br&gt;Multidrug transporter EmrE&lt;br&gt;Location: 19959 - 20289" locus_tag="DPKFPEHH_03245" class="clusterblast-orf" id="dummy-1_q17_0_all"  />
<polygon points="607,40 667,40 672,35 667,30 607,30 607,40 " style="fill:white; stroke-width:1; stroke:black; " description="&lt;b&gt;DPKFPEHH_03246&lt;/b&gt;&lt;br&gt;Isocitrate dehydrogenase [NADP]&lt;br&gt;Location: 20802 - 22998" locus_tag="DPKFPEHH_03246" class="clusterblast-orf" id="dummy-1_q18_0_all"  />
<polygon points="690,40 693,40 698,35 693,30 690,30 690,40 " style="fill:white; stroke-width:1; stroke:black; " description="&lt;b&gt;DPKFPEHH_03247&lt;/b&gt;&lt;br&gt;hypothetical protein&lt;br&gt;Location: 23610 - 23895" locus_tag="DPKFPEHH_03247" class="clusterblast-orf" id="dummy-1_q19_0_all"  />
<polygon points="702,40 728,40 733,35 728,30 702,30 702,40 " style="fill:white; stroke-width:1; stroke:black; " description="&lt;b&gt;DPKFPEHH_03248&lt;/b&gt;&lt;br&gt;Small ribosomal subunit biogenesis GTPase RsgA&lt;br&gt;Location: 24018 - 25098" locus_tag="DPKFPEHH_03248" class="clusterblast-orf" id="dummy-1_q20_0_all"  />
<polygon points="737,40 775,40 780,35 775,30 737,30 737,40 " style="fill:white; stroke-width:1; stroke:black; " description="&lt;b&gt;DPKFPEHH_03249&lt;/b&gt;&lt;br&gt;Inosine-5'-monophosphate dehydrogenase&lt;br&gt;Location: 25230 - 26679" locus_tag="DPKFPEHH_03249" class="clusterblast-orf" id="dummy-1_q21_0_all"  />
</g>
<g label="NZ_LMCN01000016" description="NZ_LMCN01000016 (204407-234776): Rhizobacter sp. Root29 contig 23, whole geno... (11% of genes show similarity), betalactone" class="clusterblast-cluster"  >
<text x="5" y="70" class="clusterblast-acc"  >
<a xlink:href="https://antismash-db.secondarymetabolites.org/area.html?record=NZ_LMCN01000016&amp;start=204407&amp;end=234776" target="_blank">NZ_LMCN01000016 (204407-234776)</a>: Rhizobacter sp. Root29 contig 23, whole geno... (11% of genes show similarity), betalactone</text>
<line x1="10" y1="85" x2="778.0" y2="85" style="stroke-width:1; stroke:grey; "  />
</g>
<g id="a1_000"  >
<polygon points="25,85 30,80 55,80 55,90 30,90 25,85 " style="fill:white; stroke-width:1; stroke:black; " description="&lt;b&gt;ASC88_RS16905&lt;/b&gt;&lt;br&gt;AraC family transcriptional regulator&lt;br&gt;Location: 205526 - 206560" locus_tag="ASC88_RS16905" class="clusterblast-orf" id="dummy-1_h1_10_0"  />
</g>
<g id="a1_001"  >
<polygon points="59,90 101,90 106,85 101,80 59,80 59,90 " style="fill:white; stroke-width:1; stroke:black; " description="&lt;b&gt;ASC88_RS16910&lt;/b&gt;&lt;br&gt;methylcrotonoyl-CoA carboxylase&lt;br&gt;Location: 206683 - 208290" locus_tag="ASC88_RS16910" class="clusterblast-orf" id="dummy-1_h1_10_1"  />
</g>
<g id="a1_002"  >
<polygon points="111,90 125,90 130,85 125,80 111,80 111,90 " style="fill:white; stroke-width:1; stroke:black; " description="&lt;b&gt;ASC88_RS16915&lt;/b&gt;&lt;br&gt;DUF4410 domain-containing protein&lt;br&gt;Location: 208464 - 209093" locus_tag="ASC88_RS16915" class="clusterblast-orf" id="dummy-1_h1_10_2"  />
</g>
<g id="a1_003"  >
<polygon points="132,90 150,90 155,85 150,80 132,80 132,90 " style="fill:white; stroke-width:1; stroke:black; " description="&lt;b&gt;ASC88_RS16920&lt;/b&gt;&lt;br&gt;enoyl-CoA hydratase/isomerase family protein&lt;br&gt;Location: 209152 - 209943" locus_tag="ASC88_RS16920" class="clusterblast-orf" id="dummy-1_h1_10_3"  />
</g>
<g id="a1_004"  >
<polygon points="155,90 169,90 174,85 169,80 155,80 155,90 " style="fill:white; stroke-width:1; stroke:black; " description="&lt;b&gt;ASC88_RS16925&lt;/b&gt;&lt;br&gt;DUF4126 domain-containing protein&lt;br&gt;Location: 209951 - 210577" locus_tag="ASC88_RS16925" class="clusterblast-orf" id="dummy-1_h1_10_4"  />
</g>
<g id="a1_005"  >
<polygon points="175,90 203,90 208,85 203,80 175,80 175,90 " style="fill:white; stroke-width:1; stroke:black; " description="&lt;b&gt;ASC88_RS16930&lt;/b&gt;&lt;br&gt;hypothetical protein&lt;br&gt;Location: 210622 - 211758" locus_tag="ASC88_RS16930" class="clusterblast-orf" id="dummy-1_h1_10_5"  />
</g>
<g id="a1_006"  >
<polygon points="209,90 262,90 267,85 262,80 209,80 209,90 " style="fill:#1515d8; stroke-width:1; stroke:black; " description="&lt;b&gt;ASC88_RS16935&lt;/b&gt;&lt;br&gt;acetyl/propionyl/methylcrotonyl-CoA carboxylase subunit alpha&lt;br&gt;Location: 211773 - 213767&lt;br&gt;&lt;br&gt;&lt;b&gt;BlastP hit with DPKFPEHH_03242&lt;/b&gt;&lt;br&gt;Percentage identity: 42&lt;br&gt;Percentage coverage: 40&lt;br&gt;BLAST bit score: 362&lt;br&gt;E-value: 1.93e-109" locus_tag="ASC88_RS16935" class="clusterblast-orf" id="dummy-1_h1_10_6"  />
</g>
<g id="a1_007"  >
<polygon points="270,85 275,80 283,80 283,90 275,90 270,85 " style="fill:white; stroke-width:1; stroke:black; " description="&lt;b&gt;ASC88_RS30835&lt;/b&gt;&lt;br&gt;hypothetical protein&lt;br&gt;Location: 213871 - 214302" locus_tag="ASC88_RS30835" class="clusterblast-orf" id="dummy-1_h1_10_7"  />
</g>
<g id="a1_008"  >
<polygon points="286,90 308,90 313,85 308,80 286,80 286,90 " style="fill:white; stroke-width:1; stroke:black; " description="&lt;b&gt;ASC88_RS16945&lt;/b&gt;&lt;br&gt;hydroxymethylglutaryl-CoA lyase&lt;br&gt;Location: 214408 - 215331" locus_tag="ASC88_RS16945" class="clusterblast-orf" id="dummy-1_h1_10_8"  />
</g>
<g id="a1_009"  >
<polygon points="313,90 324,90 329,85 324,80 313,80 313,90 " style="fill:white; stroke-width:1; stroke:black; " description="&lt;b&gt;ASC88_RS16950&lt;/b&gt;&lt;br&gt;YbaK/EbsC family protein&lt;br&gt;Location: 215328 - 215867" locus_tag="ASC88_RS16950" class="clusterblast-orf" id="dummy-1_h1_10_9"  />
</g>
<g id="a1_0010"  >
<polygon points="331,90 341,90 346,85 341,80 331,80 331,90 " style="fill:white; stroke-width:1; stroke:black; " description="&lt;b&gt;ASC88_RS16955&lt;/b&gt;&lt;br&gt;TlpA family protein disulfide reductase&lt;br&gt;Location: 215921 - 216439" locus_tag="ASC88_RS16955" class="clusterblast-orf" id="dummy-1_h1_10_10"  />
</g>
<g id="a1_0011"  >
<polygon points="346,90 347,90 352,85 347,80 346,80 346,90 " style="fill:white; stroke-width:1; stroke:black; " description="&lt;b&gt;ASC88_RS16960&lt;/b&gt;&lt;br&gt;DUF1289 domain-containing protein&lt;br&gt;Location: 216439 - 216645" locus_tag="ASC88_RS16960" class="clusterblast-orf" id="dummy-1_h1_10_11"  />
</g>
<g id="a1_0012"  >
<polygon points="352,90 366,90 371,85 366,80 352,80 352,90 " style="fill:white; stroke-width:1; stroke:black; " description="&lt;b&gt;ASC88_RS16965&lt;/b&gt;&lt;br&gt;2-hydroxychromene-2-carboxylate isomerase&lt;br&gt;Location: 216642 - 217286" locus_tag="ASC88_RS16965" class="clusterblast-orf" id="dummy-1_h1_10_12"  />
</g>
<g id="a1_0013"  >
<polygon points="376,90 420,90 425,85 420,80 376,80 376,90 " style="fill:white; stroke-width:1; stroke:black; " description="&lt;b&gt;ASC88_RS16970&lt;/b&gt;&lt;br&gt;MHS family MFS transporter&lt;br&gt;Location: 217452 - 219131" locus_tag="ASC88_RS16970" class="clusterblast-orf" id="dummy-1_h1_10_13"  />
</g>
<g id="a1_0014"  >
<polygon points="429,90 444,90 449,85 444,80 429,80 429,90 " style="fill:white; stroke-width:1; stroke:black; " description="&lt;b&gt;ASC88_RS16975&lt;/b&gt;&lt;br&gt;PEP-CTERM sorting domain-containing protein&lt;br&gt;Location: 219271 - 219945" locus_tag="ASC88_RS16975" class="clusterblast-orf" id="dummy-1_h1_10_14"  />
</g>
<g id="a1_0015"  >
<polygon points="449,90 462,90 467,85 462,80 449,80 449,90 " style="fill:white; stroke-width:1; stroke:black; " description="&lt;b&gt;ASC88_RS16980&lt;/b&gt;&lt;br&gt;PEP-CTERM sorting domain-containing protein&lt;br&gt;Location: 219936 - 220568" locus_tag="ASC88_RS16980" class="clusterblast-orf" id="dummy-1_h1_10_15"  />
</g>
<g id="a1_0016"  >
<polygon points="469,85 474,80 475,80 475,90 474,90 469,85 " style="fill:white; stroke-width:1; stroke:black; " description="&lt;b&gt;ASC88_RS16985&lt;/b&gt;&lt;br&gt;cysteine-rich CWC family protein&lt;br&gt;Location: 220611 - 220844" locus_tag="ASC88_RS16985" class="clusterblast-orf" id="dummy-1_h1_10_16"  />
</g>
<g id="a1_0017"  >
<polygon points="475,85 480,80 488,80 488,90 480,90 475,85 " style="fill:white; stroke-width:1; stroke:black; " description="&lt;b&gt;ASC88_RS30840&lt;/b&gt;&lt;br&gt;hypothetical protein&lt;br&gt;Location: 220841 - 221260" locus_tag="ASC88_RS30840" class="clusterblast-orf" id="dummy-1_h1_10_17"  />
</g>
<g id="a1_0018"  >
<polygon points="493,85 498,80 511,80 511,90 498,90 493,85 " style="fill:white; stroke-width:1; stroke:black; " description="&lt;b&gt;ASC88_RS16990&lt;/b&gt;&lt;br&gt;hypothetical protein&lt;br&gt;Location: 221434 - 222036" locus_tag="ASC88_RS16990" class="clusterblast-orf" id="dummy-1_h1_10_18"  />
</g>
<g id="a1_0019"  >
<polygon points="514,85 519,80 539,80 539,90 519,90 514,85 " style="fill:white; stroke-width:1; stroke:black; " description="&lt;b&gt;ASC88_RS16995&lt;/b&gt;&lt;br&gt;hypothetical protein&lt;br&gt;Location: 222164 - 223015" locus_tag="ASC88_RS16995" class="clusterblast-orf" id="dummy-1_h1_10_19"  />
</g>
<g id="a1_0020"  >
<polygon points="545,85 550,80 591,80 591,90 550,90 545,85 " style="fill:#77d815; stroke-width:1; stroke:black; " description="&lt;b&gt;ASC88_RS17000&lt;/b&gt;&lt;br&gt;malonyl-CoA synthase&lt;br&gt;Location: 223211 - 224776&lt;br&gt;&lt;br&gt;&lt;b&gt;BlastP hit with DPKFPEHH_03230&lt;/b&gt;&lt;br&gt;Percentage identity: 51&lt;br&gt;Percentage coverage: 98&lt;br&gt;BLAST bit score: 419&lt;br&gt;E-value: 1.87e-140" locus_tag="ASC88_RS17000" class="clusterblast-orf" id="dummy-1_h1_10_20"  />
</g>
<g id="a1_0021"  >
<polygon points="592,85 597,80 615,80 615,90 597,90 592,85 " style="fill:white; stroke-width:1; stroke:black; " description="&lt;b&gt;ASC88_RS17005&lt;/b&gt;&lt;br&gt;enoyl-CoA hydratase&lt;br&gt;Location: 224813 - 225601" locus_tag="ASC88_RS17005" class="clusterblast-orf" id="dummy-1_h1_10_21"  />
</g>
<g id="a1_0022"  >
<polygon points="616,85 621,80 645,80 645,90 621,90 616,85 " style="fill:white; stroke-width:1; stroke:black; " description="&lt;b&gt;ASC88_RS17010&lt;/b&gt;&lt;br&gt;tripartite tricarboxylate transporter substrate binding protein&lt;br&gt;Location: 225609 - 226610" locus_tag="ASC88_RS17010" class="clusterblast-orf" id="dummy-1_h1_10_22"  />
</g>
<g id="a1_0023"  >
<polygon points="647,85 652,80 685,80 685,90 652,90 647,85 " style="fill:#15d8d8; stroke-width:1; stroke:black; " description="&lt;b&gt;ASC88_RS17015&lt;/b&gt;&lt;br&gt;malonyl-CoA decarboxylase&lt;br&gt;Location: 226678 - 227985&lt;br&gt;&lt;br&gt;&lt;b&gt;BlastP hit with DPKFPEHH_03231&lt;/b&gt;&lt;br&gt;Percentage identity: 47&lt;br&gt;Percentage coverage: 94&lt;br&gt;BLAST bit score: 313&lt;br&gt;E-value: 2.88e-101" locus_tag="ASC88_RS17015" class="clusterblast-orf" id="dummy-1_h1_10_23"  />
</g>
<g id="a1_0024"  >
<polygon points="685,85 690,80 706,80 706,90 690,90 685,85 " style="fill:white; stroke-width:1; stroke:black; " description="&lt;b&gt;ASC88_RS17020&lt;/b&gt;&lt;br&gt;GntR family transcriptional regulator&lt;br&gt;Location: 227978 - 228682" locus_tag="ASC88_RS17020" class="clusterblast-orf" id="dummy-1_h1_10_24"  />
</g>
<g id="a1_0025"  >
<polygon points="713,90 749,90 754,85 749,80 713,80 713,90 " style="fill:white; stroke-width:1; stroke:black; " description="&lt;b&gt;ASC88_RS17025&lt;/b&gt;&lt;br&gt;sigma 54-interacting transcriptional regulator&lt;br&gt;Location: 228924 - 230315" locus_tag="ASC88_RS17025" class="clusterblast-orf" id="dummy-1_h1_10_25"  />
</g>
</svg>
