<svg xmlns="http://www.w3.org/2000/svg" xmlns:xlink="http://www.w3.org/1999/xlink" version="1.1" x="0" y="0" height="230" width="800" viewBox="0 0 800 230" preserveAspectRatio="none"  >
<g label="Query sequence" class="clusterblast-cluster"  >
<text x="5" y="20" class="clusterblast-acc"  >
Query sequence</text>
<line x1="10" y1="35" x2="778.0" y2="35" style="stroke-width:1; stroke:grey; "  />
<polygon points="3,40 9,40 14,35 9,30 3,30 3,40 " style="fill:white; stroke-width:1; stroke:black; " description="&lt;b&gt;DPKFPEHH_02439&lt;/b&gt;&lt;br&gt;hypothetical protein&lt;br&gt;Location: 51476 - 52199" locus_tag="DPKFPEHH_02439" class="clusterblast-orf" id="dummy-1_q0_0_all"  />
<polygon points="14,40 17,40 22,35 17,30 14,30 14,40 " style="fill:white; stroke-width:1; stroke:black; " description="&lt;b&gt;DPKFPEHH_02440&lt;/b&gt;&lt;br&gt;hypothetical protein&lt;br&gt;Location: 52195 - 52759" locus_tag="DPKFPEHH_02440" class="clusterblast-orf" id="dummy-1_q1_0_all"  />
<polygon points="32,40 37,40 42,35 37,30 32,30 32,40 " style="fill:white; stroke-width:1; stroke:black; " description="&lt;b&gt;DPKFPEHH_02441&lt;/b&gt;&lt;br&gt;Phosphoglycolate phosphatase, chromosomal&lt;br&gt;Location: 53391 - 54051" locus_tag="DPKFPEHH_02441" class="clusterblast-orf" id="dummy-1_q2_0_all"  />
<polygon points="43,35 48,30 61,30 61,40 48,40 43,35 " style="fill:white; stroke-width:1; stroke:black; " description="&lt;b&gt;DPKFPEHH_02442&lt;/b&gt;&lt;br&gt;hypothetical protein&lt;br&gt;Location: 54072 - 55248" locus_tag="DPKFPEHH_02442" class="clusterblast-orf" id="dummy-1_q3_0_all"  />
<polygon points="64,40 86,40 91,35 86,30 64,30 64,40 " style="fill:#d81515; stroke-width:1; stroke:black; " description="&lt;b&gt;DPKFPEHH_02443&lt;/b&gt;&lt;br&gt;hypothetical protein&lt;br&gt;Location: 55463 - 57200" locus_tag="DPKFPEHH_02443" class="clusterblast-orf" id="dummy-1_q4_0_all"  />
<polygon points="91,40 98,40 103,35 98,30 91,30 91,40 " style="fill:#33d815; stroke-width:1; stroke:black; " description="&lt;b&gt;DPKFPEHH_02444&lt;/b&gt;&lt;br&gt;hypothetical protein&lt;br&gt;Location: 57196 - 58021" locus_tag="DPKFPEHH_02444" class="clusterblast-orf" id="dummy-1_q5_0_all"  />
<polygon points="103,35 108,30 122,30 122,40 108,40 103,35 " style="fill:#15abd8; stroke-width:1; stroke:black; " description="&lt;b&gt;DPKFPEHH_02445&lt;/b&gt;&lt;br&gt;D-inositol-3-phosphate glycosyltransferase&lt;br&gt;Location: 57993 - 59214" locus_tag="DPKFPEHH_02445" class="clusterblast-orf" id="dummy-1_q6_0_all"  />
<polygon points="126,40 141,40 146,35 141,30 126,30 126,40 " style="fill:#8d15d8; stroke-width:1; stroke:black; " description="&lt;b&gt;DPKFPEHH_02446&lt;/b&gt;&lt;br&gt;hypothetical protein&lt;br&gt;Location: 59468 - 60821" locus_tag="DPKFPEHH_02446" class="clusterblast-orf" id="dummy-1_q7_0_all"  />
<polygon points="148,40 157,40 162,35 157,30 148,30 148,40 " style="fill:#d86f15; stroke-width:1; stroke:black; " description="&lt;b&gt;DPKFPEHH_02447&lt;/b&gt;&lt;br&gt;hypothetical protein&lt;br&gt;Location: 60944 - 61829" locus_tag="DPKFPEHH_02447" class="clusterblast-orf" id="dummy-1_q8_0_all"  />
<polygon points="162,40 177,40 182,35 177,30 162,30 162,40 " style="fill:#15d851; stroke-width:1; stroke:black; " description="&lt;b&gt;DPKFPEHH_02448&lt;/b&gt;&lt;br&gt;hypothetical protein&lt;br&gt;Location: 61841 - 63146" locus_tag="DPKFPEHH_02448" class="clusterblast-orf" id="dummy-1_q9_0_all"  />
<polygon points="183,40 186,40 191,35 186,30 183,30 183,40 " style="fill:white; stroke-width:1; stroke:black; " description="&lt;b&gt;DPKFPEHH_02449&lt;/b&gt;&lt;br&gt;Isopentenyl-diphosphate Delta-isomerase&lt;br&gt;Location: 63192 - 63720" locus_tag="DPKFPEHH_02449" class="clusterblast-orf" id="dummy-1_q10_0_all"  />
<polygon points="193,35 198,30 206,30 206,40 198,40 193,35 " style="fill:white; stroke-width:1; stroke:black; " description="&lt;b&gt;DPKFPEHH_02450&lt;/b&gt;&lt;br&gt;hypothetical protein&lt;br&gt;Location: 63861 - 64680" locus_tag="DPKFPEHH_02450" class="clusterblast-orf" id="dummy-1_q11_0_all"  />
<polygon points="206,35 211,30 231,30 231,40 211,40 206,35 " style="fill:white; stroke-width:1; stroke:black; " description="&lt;b&gt;DPKFPEHH_02451&lt;/b&gt;&lt;br&gt;Long-chain-fatty-acid--CoA ligase FadD13&lt;br&gt;Location: 64688 - 66302" locus_tag="DPKFPEHH_02451" class="clusterblast-orf" id="dummy-1_q12_0_all"  />
<polygon points="231,35 236,30 249,30 249,40 236,40 231,35 " style="fill:white; stroke-width:1; stroke:black; " description="&lt;b&gt;DPKFPEHH_02452&lt;/b&gt;&lt;br&gt;3-ketoacyl-CoA thiolase&lt;br&gt;Location: 66298 - 67468" locus_tag="DPKFPEHH_02452" class="clusterblast-orf" id="dummy-1_q13_0_all"  />
<polygon points="251,40 261,40 266,35 261,30 251,30 251,40 " style="fill:#1551d8; stroke-width:1; stroke:black; " description="&lt;b&gt;DPKFPEHH_02453&lt;/b&gt;&lt;br&gt;hypothetical protein&lt;br&gt;Location: 67619 - 68585" locus_tag="DPKFPEHH_02453" class="clusterblast-orf" id="dummy-1_q14_0_all"  />
<polygon points="266,35 271,30 278,30 278,40 271,40 266,35 " style="fill:#d815c9; stroke-width:1; stroke:black; " description="&lt;b&gt;DPKFPEHH_02454&lt;/b&gt;&lt;br&gt;N-acetylglucosaminyldiphosphoundecaprenol N-acetyl-beta-D-mannosaminyltransferase&lt;br&gt;Location: 68586 - 69333" locus_tag="DPKFPEHH_02454" class="clusterblast-orf" id="dummy-1_q15_0_all"  />
<polygon points="281,40 299,40 304,35 299,30 281,30 281,40 " style="fill:#d8c915; stroke-width:1; stroke:black; " description="&lt;b&gt;DPKFPEHH_02455&lt;/b&gt;&lt;br&gt;hypothetical protein&lt;br&gt;Location: 69528 - 71043" locus_tag="DPKFPEHH_02455" class="clusterblast-orf" id="dummy-1_q16_0_all"  />
<polygon points="306,40 398,40 403,35 398,30 306,30 306,40 " style="fill:#15d8ab; stroke-width:1; stroke:black; " description="&lt;b&gt;DPKFPEHH_02456&lt;/b&gt;&lt;br&gt;hypothetical protein&lt;br&gt;Location: 71147 - 77492" locus_tag="DPKFPEHH_02456" class="clusterblast-orf" id="dummy-1_q17_0_all"  />
<polygon points="403,40 413,40 418,35 413,30 403,30 403,40 " style="fill:#3315d8; stroke-width:1; stroke:black; " description="&lt;b&gt;DPKFPEHH_02457&lt;/b&gt;&lt;br&gt;hypothetical protein&lt;br&gt;Location: 77488 - 78433" locus_tag="DPKFPEHH_02457" class="clusterblast-orf" id="dummy-1_q18_0_all"  />
<polygon points="418,40 483,40 488,35 483,30 418,30 418,40 " style="fill:#d8156f; stroke-width:1; stroke:black; " description="&lt;b&gt;DPKFPEHH_02458&lt;/b&gt;&lt;br&gt;D-alanine--D-alanyl carrier protein ligase&lt;br&gt;Location: 78434 - 82967" locus_tag="DPKFPEHH_02458" class="clusterblast-orf" id="dummy-1_q19_0_all"  />
<polygon points="487,40 492,40 497,35 492,30 487,30 487,40 " style="fill:#8dd815; stroke-width:1; stroke:black; " description="&lt;b&gt;DPKFPEHH_02459&lt;/b&gt;&lt;br&gt;4'-phosphopantetheinyl transferase Svp&lt;br&gt;Location: 82963 - 83605" locus_tag="DPKFPEHH_02459" class="clusterblast-orf" id="dummy-1_q20_0_all"  />
<polygon points="497,35 502,30 515,30 515,40 502,40 497,35 " style="fill:white; stroke-width:1; stroke:black; " description="&lt;b&gt;DPKFPEHH_02460&lt;/b&gt;&lt;br&gt;3-dehydro-bile acid delta(4,6)-reductase&lt;br&gt;Location: 83566 - 84781" locus_tag="DPKFPEHH_02460" class="clusterblast-orf" id="dummy-1_q21_0_all"  />
<polygon points="515,35 520,30 526,30 526,40 520,40 515,35 " style="fill:white; stroke-width:1; stroke:black; " description="&lt;b&gt;DPKFPEHH_02461&lt;/b&gt;&lt;br&gt;DNA polymerase III subunit epsilon&lt;br&gt;Location: 84770 - 85466" locus_tag="DPKFPEHH_02461" class="clusterblast-orf" id="dummy-1_q22_0_all"  />
<polygon points="526,35 531,30 535,30 535,40 531,40 526,35 " style="fill:white; stroke-width:1; stroke:black; " description="&lt;b&gt;DPKFPEHH_02462&lt;/b&gt;&lt;br&gt;Dephospho-CoA kinase&lt;br&gt;Location: 85458 - 86055" locus_tag="DPKFPEHH_02462" class="clusterblast-orf" id="dummy-1_q23_0_all"  />
<polygon points="535,35 540,30 548,30 548,40 540,40 535,35 " style="fill:white; stroke-width:1; stroke:black; " description="&lt;b&gt;DPKFPEHH_02463&lt;/b&gt;&lt;br&gt;Shikimate dehydrogenase (NADP(+))&lt;br&gt;Location: 86051 - 86891" locus_tag="DPKFPEHH_02463" class="clusterblast-orf" id="dummy-1_q24_0_all"  />
<polygon points="548,35 553,30 557,30 557,40 553,40 548,35 " style="fill:white; stroke-width:1; stroke:black; " description="&lt;b&gt;DPKFPEHH_02464&lt;/b&gt;&lt;br&gt;7-methyl-GTP pyrophosphatase&lt;br&gt;Location: 86887 - 87484" locus_tag="DPKFPEHH_02464" class="clusterblast-orf" id="dummy-1_q25_0_all"  />
<polygon points="564,40 579,40 584,35 579,30 564,30 564,40 " style="fill:white; stroke-width:1; stroke:black; " description="&lt;b&gt;DPKFPEHH_02465&lt;/b&gt;&lt;br&gt;Transcription termination factor Rho&lt;br&gt;Location: 87961 - 89233" locus_tag="DPKFPEHH_02465" class="clusterblast-orf" id="dummy-1_q26_0_all"  />
<polygon points="584,40 599,40 604,35 599,30 584,30 584,40 " style="fill:white; stroke-width:1; stroke:black; " description="&lt;b&gt;DPKFPEHH_02466&lt;/b&gt;&lt;br&gt;tRNA modification GTPase MnmE&lt;br&gt;Location: 89250 - 90531" locus_tag="DPKFPEHH_02466" class="clusterblast-orf" id="dummy-1_q27_0_all"  />
<polygon points="604,40 628,40 633,35 628,30 604,30 604,40 " style="fill:white; stroke-width:1; stroke:black; " description="&lt;b&gt;DPKFPEHH_02467&lt;/b&gt;&lt;br&gt;tRNA uridine 5-carboxymethylaminomethyl modification enzyme MnmG&lt;br&gt;Location: 90543 - 92415" locus_tag="DPKFPEHH_02467" class="clusterblast-orf" id="dummy-1_q28_0_all"  />
<polygon points="633,40 638,40 643,35 638,30 633,30 633,40 " style="fill:white; stroke-width:1; stroke:black; " description="&lt;b&gt;DPKFPEHH_02468&lt;/b&gt;&lt;br&gt;Ribosomal RNA small subunit methyltransferase G&lt;br&gt;Location: 92398 - 93040" locus_tag="DPKFPEHH_02468" class="clusterblast-orf" id="dummy-1_q29_0_all"  />
<polygon points="643,40 650,40 655,35 650,30 643,30 643,40 " style="fill:white; stroke-width:1; stroke:black; " description="&lt;b&gt;DPKFPEHH_02469&lt;/b&gt;&lt;br&gt;Chromosome partitioning protein ParA&lt;br&gt;Location: 93036 - 93834" locus_tag="DPKFPEHH_02469" class="clusterblast-orf" id="dummy-1_q30_0_all"  />
<polygon points="655,40 664,40 669,35 664,30 655,30 655,40 " style="fill:white; stroke-width:1; stroke:black; " description="&lt;b&gt;DPKFPEHH_02470&lt;/b&gt;&lt;br&gt;Chromosome-partitioning protein ParB&lt;br&gt;Location: 93826 - 94738" locus_tag="DPKFPEHH_02470" class="clusterblast-orf" id="dummy-1_q31_0_all"  />
<polygon points="669,35 674,30 687,30 687,40 674,40 669,35 " style="fill:white; stroke-width:1; stroke:black; " description="&lt;b&gt;DPKFPEHH_02471&lt;/b&gt;&lt;br&gt;Heme chaperone HemW&lt;br&gt;Location: 94738 - 95905" locus_tag="DPKFPEHH_02471" class="clusterblast-orf" id="dummy-1_q32_0_all"  />
<polygon points="687,35 692,30 696,30 696,40 692,40 687,35 " style="fill:white; stroke-width:1; stroke:black; " description="&lt;b&gt;DPKFPEHH_02472&lt;/b&gt;&lt;br&gt;dITP/XTP pyrophosphatase&lt;br&gt;Location: 95916 - 96528" locus_tag="DPKFPEHH_02472" class="clusterblast-orf" id="dummy-1_q33_0_all"  />
<polygon points="696,35 701,30 708,30 708,40 701,40 696,35 " style="fill:white; stroke-width:1; stroke:black; " description="&lt;b&gt;DPKFPEHH_02473&lt;/b&gt;&lt;br&gt;Ribonuclease PH&lt;br&gt;Location: 96524 - 97253" locus_tag="DPKFPEHH_02473" class="clusterblast-orf" id="dummy-1_q34_0_all"  />
<polygon points="709,40 720,40 725,35 720,30 709,30 709,40 " style="fill:white; stroke-width:1; stroke:black; " description="&lt;b&gt;DPKFPEHH_02474&lt;/b&gt;&lt;br&gt;Heat-inducible transcription repressor HrcA&lt;br&gt;Location: 97319 - 98393" locus_tag="DPKFPEHH_02474" class="clusterblast-orf" id="dummy-1_q35_0_all"  />
<polygon points="725,40 729,40 734,35 729,30 725,30 725,40 " style="fill:white; stroke-width:1; stroke:black; " description="&lt;b&gt;DPKFPEHH_02475&lt;/b&gt;&lt;br&gt;Protein GrpE&lt;br&gt;Location: 98405 - 98996" locus_tag="DPKFPEHH_02475" class="clusterblast-orf" id="dummy-1_q36_0_all"  />
<polygon points="736,35 741,30 777,30 777,40 741,40 736,35 " style="fill:white; stroke-width:1; stroke:black; " description="&lt;b&gt;DPKFPEHH_02476&lt;/b&gt;&lt;br&gt;DNA mismatch repair protein MutS&lt;br&gt;Location: 99095 - 101747" locus_tag="DPKFPEHH_02476" class="clusterblast-orf" id="dummy-1_q37_0_all"  />
</g>
<g label="NC_023135" description="NC_023135 (2706603-2758631): Leisingera methylohalidivorans DSM 14336, comple... (38% of genes show similarity), NRPS-like,T1PKS" class="clusterblast-cluster"  >
<text x="5" y="70" class="clusterblast-acc"  >
<a xlink:href="https://antismash-db.secondarymetabolites.org/area.html?record=NC_023135&amp;start=2706603&amp;end=2758631" target="_blank">NC_023135 (2706603-2758631)</a>: Leisingera methylohalidivorans DSM 14336, comple... (38% of genes show similarity), NRPS-like,T1PKS</text>
<line x1="10" y1="85" x2="778.0" y2="85" style="stroke-width:1; stroke:grey; "  />
</g>
<g id="a1_000"  >
<polygon points="0,90 9,90 14,85 9,80 0,80 0,90 " style="fill:white; stroke-width:1; stroke:black; " description="&lt;b&gt;METH_RS13440&lt;/b&gt;&lt;br&gt;glyoxylate/hydroxypyruvate reductase A&lt;br&gt;Location: 2707280 - 2708215" locus_tag="METH_RS13440" class="clusterblast-orf" id="dummy-1_h1_6_0"  />
</g>
<g id="a1_001"  >
<polygon points="16,85 21,80 27,80 27,90 21,90 16,85 " style="fill:white; stroke-width:1; stroke:black; " description="&lt;b&gt;METH_RS13445&lt;/b&gt;&lt;br&gt;flavodoxin family protein&lt;br&gt;Location: 2708337 - 2709053" locus_tag="METH_RS13445" class="clusterblast-orf" id="dummy-1_h1_6_1"  />
</g>
<g id="a1_002"  >
<polygon points="29,85 34,80 34,80 34,90 34,90 29,85 " style="fill:white; stroke-width:1; stroke:black; " description="&lt;b&gt;METH_RS13450&lt;/b&gt;&lt;br&gt;glycine cleavage system protein GcvH&lt;br&gt;Location: 2709188 - 2709547" locus_tag="METH_RS13450" class="clusterblast-orf" id="dummy-1_h1_6_2"  />
</g>
<g id="a1_003"  >
<polygon points="38,85 43,80 60,80 60,90 43,90 38,85 " style="fill:white; stroke-width:1; stroke:black; " description="&lt;b&gt;METH_RS13455&lt;/b&gt;&lt;br&gt;glutamine synthetase&lt;br&gt;Location: 2709766 - 2711214" locus_tag="METH_RS13455" class="clusterblast-orf" id="dummy-1_h1_6_3"  />
</g>
<g id="a1_004"  >
<polygon points="63,90 70,90 75,85 70,80 63,80 63,90 " style="fill:white; stroke-width:1; stroke:black; " description="&lt;b&gt;METH_RS13460&lt;/b&gt;&lt;br&gt;helix-turn-helix domain-containing protein&lt;br&gt;Location: 2711428 - 2712204" locus_tag="METH_RS13460" class="clusterblast-orf" id="dummy-1_h1_6_4"  />
</g>
<g id="a1_005"  >
<polygon points="77,90 77,90 82,85 77,80 77,80 77,90 " style="fill:white; stroke-width:1; stroke:black; " description="&lt;b&gt;METH_RS13465&lt;/b&gt;&lt;br&gt;hypothetical protein&lt;br&gt;Location: 2712285 - 2712611" locus_tag="METH_RS13465" class="clusterblast-orf" id="dummy-1_h1_6_5"  />
</g>
<g id="a1_006"  >
<polygon points="83,90 94,90 99,85 94,80 83,80 83,90 " style="fill:white; stroke-width:1; stroke:black; " description="&lt;b&gt;METH_RS13470&lt;/b&gt;&lt;br&gt;glyceraldehyde-3-phosphate dehydrogenase&lt;br&gt;Location: 2712697 - 2713716" locus_tag="METH_RS13470" class="clusterblast-orf" id="dummy-1_h1_6_6"  />
</g>
<g id="a1_007"  >
<polygon points="99,85 104,80 109,80 109,90 104,90 99,85 " style="fill:white; stroke-width:1; stroke:black; " description="&lt;b&gt;METH_RS13475&lt;/b&gt;&lt;br&gt;hypothetical protein&lt;br&gt;Location: 2713767 - 2714375" locus_tag="METH_RS13475" class="clusterblast-orf" id="dummy-1_h1_6_7"  />
</g>
<g id="a1_008"  >
<polygon points="110,85 114,80 114,90 110,85 " style="fill:white; stroke-width:1; stroke:black; " description="&lt;b&gt;METH_RS13480&lt;/b&gt;&lt;br&gt;hypothetical protein&lt;br&gt;Location: 2714442 - 2714744" locus_tag="METH_RS13480" class="clusterblast-orf" id="dummy-1_h1_6_8"  />
</g>
<g id="a1_009"  >
<polygon points="123,90 145,90 150,85 145,80 123,80 123,90 " style="fill:white; stroke-width:1; stroke:black; " description="&lt;b&gt;METH_RS13485&lt;/b&gt;&lt;br&gt;BamA/TamA family outer membrane protein&lt;br&gt;Location: 2715272 - 2717074" locus_tag="METH_RS13485" class="clusterblast-orf" id="dummy-1_h1_6_9"  />
</g>
<g id="a1_0010"  >
<polygon points="151,90 201,90 206,85 201,80 151,80 151,90 " style="fill:white; stroke-width:1; stroke:black; " description="&lt;b&gt;METH_RS13490&lt;/b&gt;&lt;br&gt;translocation/assembly module TamB domain-containing protein&lt;br&gt;Location: 2717101 - 2720697" locus_tag="METH_RS13490" class="clusterblast-orf" id="dummy-1_h1_6_10"  />
</g>
<g id="a1_0011"  >
<polygon points="206,85 211,80 221,80 221,90 211,90 206,85 " style="fill:white; stroke-width:1; stroke:black; " description="&lt;b&gt;METH_RS13495&lt;/b&gt;&lt;br&gt;glucokinase&lt;br&gt;Location: 2720719 - 2721669" locus_tag="METH_RS13495" class="clusterblast-orf" id="dummy-1_h1_6_11"  />
</g>
<g id="a1_0012"  >
<polygon points="227,90 235,90 240,85 235,80 227,80 227,90 " style="fill:white; stroke-width:1; stroke:black; " description="&lt;b&gt;METH_RS13500&lt;/b&gt;&lt;br&gt;glycosyltransferase family 2 protein&lt;br&gt;Location: 2722046 - 2722906" locus_tag="METH_RS13500" class="clusterblast-orf" id="dummy-1_h1_6_12"  />
</g>
<g id="a1_0013"  >
<polygon points="240,90 250,90 255,85 250,80 240,80 240,90 " style="fill:#1551d8; stroke-width:1; stroke:black; " description="&lt;b&gt;METH_RS13505&lt;/b&gt;&lt;br&gt;glycosyltransferase family 2 protein&lt;br&gt;Location: 2722893 - 2723876&lt;br&gt;&lt;br&gt;&lt;b&gt;BlastP hit with DPKFPEHH_02453&lt;/b&gt;&lt;br&gt;Percentage identity: 61&lt;br&gt;Percentage coverage: 101&lt;br&gt;BLAST bit score: 372&lt;br&gt;E-value: 1e-127" locus_tag="METH_RS13505" class="clusterblast-orf" id="dummy-1_h1_6_13"  />
</g>
<g id="a1_0014"  >
<polygon points="256,85 261,80 268,80 268,90 261,90 256,85 " style="fill:#d815c9; stroke-width:1; stroke:black; " description="&lt;b&gt;METH_RS13510&lt;/b&gt;&lt;br&gt;WecB/TagA/CpsF family glycosyltransferase&lt;br&gt;Location: 2723942 - 2724688&lt;br&gt;&lt;br&gt;&lt;b&gt;BlastP hit with DPKFPEHH_02454&lt;/b&gt;&lt;br&gt;Percentage identity: 61&lt;br&gt;Percentage coverage: 100&lt;br&gt;BLAST bit score: 283&lt;br&gt;E-value: 5.2e-95" locus_tag="METH_RS13510" class="clusterblast-orf" id="dummy-1_h1_6_14"  />
</g>
<g id="a1_0015"  >
<polygon points="271,90 288,90 293,85 288,80 271,80 271,90 " style="fill:#d8c915; stroke-width:1; stroke:black; " description="&lt;b&gt;METH_RS13515&lt;/b&gt;&lt;br&gt;membrane protein&lt;br&gt;Location: 2724883 - 2726346&lt;br&gt;&lt;br&gt;&lt;b&gt;BlastP hit with DPKFPEHH_02455&lt;/b&gt;&lt;br&gt;Percentage identity: 47&lt;br&gt;Percentage coverage: 93&lt;br&gt;BLAST bit score: 390&lt;br&gt;E-value: 1.05e-129" locus_tag="METH_RS13515" class="clusterblast-orf" id="dummy-1_h1_6_15"  />
</g>
<g id="a1_0016"  >
<polygon points="297,90 391,90 396,85 391,80 297,80 297,90 " style="fill:#15d8ab; stroke-width:1; stroke:black; " description="&lt;b&gt;METH_RS13520&lt;/b&gt;&lt;br&gt;type I polyketide synthase&lt;br&gt;Location: 2726604 - 2733035&lt;br&gt;&lt;br&gt;&lt;b&gt;BlastP hit with DPKFPEHH_02456&lt;/b&gt;&lt;br&gt;Percentage identity: 58&lt;br&gt;Percentage coverage: 101&lt;br&gt;BLAST bit score: 2340&lt;br&gt;E-value: 0.0" locus_tag="METH_RS13520" class="clusterblast-orf" id="dummy-1_h1_6_16"  />
</g>
<g id="a1_0017"  >
<polygon points="396,90 407,90 412,85 407,80 396,80 396,90 " style="fill:#3315d8; stroke-width:1; stroke:black; " description="&lt;b&gt;METH_RS13525&lt;/b&gt;&lt;br&gt;glycosyltransferase family 2 protein&lt;br&gt;Location: 2733041 - 2734057&lt;br&gt;&lt;br&gt;&lt;b&gt;BlastP hit with DPKFPEHH_02457&lt;/b&gt;&lt;br&gt;Percentage identity: 55&lt;br&gt;Percentage coverage: 99&lt;br&gt;BLAST bit score: 339&lt;br&gt;E-value: 1.77e-114" locus_tag="METH_RS13525" class="clusterblast-orf" id="dummy-1_h1_6_17"  />
</g>
<g id="a1_0018"  >
<polygon points="412,90 477,90 482,85 477,80 412,80 412,90 " style="fill:#d8156f; stroke-width:1; stroke:black; " description="&lt;b&gt;METH_RS13530&lt;/b&gt;&lt;br&gt;LLM class flavin-dependent oxidoreductase&lt;br&gt;Location: 2734054 - 2738631&lt;br&gt;&lt;br&gt;&lt;b&gt;BlastP hit with DPKFPEHH_02458&lt;/b&gt;&lt;br&gt;Percentage identity: 56&lt;br&gt;Percentage coverage: 102&lt;br&gt;BLAST bit score: 1570&lt;br&gt;E-value: 0.0" locus_tag="METH_RS13530" class="clusterblast-orf" id="dummy-1_h1_6_18"  />
</g>
<g id="a1_0019"  >
<polygon points="482,90 488,90 493,85 488,80 482,80 482,90 " style="fill:#8dd815; stroke-width:1; stroke:black; " description="&lt;b&gt;METH_RS13535&lt;/b&gt;&lt;br&gt;4'-phosphopantetheinyl transferase superfamily protein&lt;br&gt;Location: 2738628 - 2739317&lt;br&gt;&lt;br&gt;&lt;b&gt;BlastP hit with DPKFPEHH_02459&lt;/b&gt;&lt;br&gt;Percentage identity: 44&lt;br&gt;Percentage coverage: 82&lt;br&gt;BLAST bit score: 128&lt;br&gt;E-value: 6.27e-35" locus_tag="METH_RS13535" class="clusterblast-orf" id="dummy-1_h1_6_19"  />
</g>
<g id="a1_0020"  >
<polygon points="493,90 502,90 507,85 502,80 493,80 493,90 " style="fill:white; stroke-width:1; stroke:black; " description="&lt;b&gt;METH_RS13540&lt;/b&gt;&lt;br&gt;hypothetical protein&lt;br&gt;Location: 2739314 - 2740252" locus_tag="METH_RS13540" class="clusterblast-orf" id="dummy-1_h1_6_20"  />
</g>
<g id="a1_0021"  >
<polygon points="507,90 541,90 546,85 541,80 507,80 507,90 " style="fill:#d81515; stroke-width:1; stroke:black; " description="&lt;b&gt;METH_RS13545&lt;/b&gt;&lt;br&gt;hypothetical protein&lt;br&gt;Location: 2740249 - 2742765&lt;br&gt;&lt;br&gt;&lt;b&gt;BlastP hit with DPKFPEHH_02443&lt;/b&gt;&lt;br&gt;Percentage identity: 46&lt;br&gt;Percentage coverage: 96&lt;br&gt;BLAST bit score: 509&lt;br&gt;E-value: 2.09e-170" locus_tag="METH_RS13545" class="clusterblast-orf" id="dummy-1_h1_6_21"  />
</g>
<g id="a1_0022"  >
<polygon points="546,90 554,90 559,85 554,80 546,80 546,90 " style="fill:#33d815; stroke-width:1; stroke:black; " description="&lt;b&gt;METH_RS13550&lt;/b&gt;&lt;br&gt;glycosyltransferase family 2 protein&lt;br&gt;Location: 2742762 - 2743598&lt;br&gt;&lt;br&gt;&lt;b&gt;BlastP hit with DPKFPEHH_02444&lt;/b&gt;&lt;br&gt;Percentage identity: 53&lt;br&gt;Percentage coverage: 101&lt;br&gt;BLAST bit score: 257&lt;br&gt;E-value: 1.06e-83" locus_tag="METH_RS13550" class="clusterblast-orf" id="dummy-1_h1_6_22"  />
</g>
<g id="a1_0023"  >
<polygon points="562,85 567,80 580,80 580,90 567,90 562,85 " style="fill:#15abd8; stroke-width:1; stroke:black; " description="&lt;b&gt;METH_RS13555&lt;/b&gt;&lt;br&gt;glycosyltransferase family 4 protein&lt;br&gt;Location: 2743776 - 2744981&lt;br&gt;&lt;br&gt;&lt;b&gt;BlastP hit with DPKFPEHH_02445&lt;/b&gt;&lt;br&gt;Percentage identity: 56&lt;br&gt;Percentage coverage: 98&lt;br&gt;BLAST bit score: 419&lt;br&gt;E-value: 1.84e-143" locus_tag="METH_RS13555" class="clusterblast-orf" id="dummy-1_h1_6_23"  />
</g>
<g id="a1_0024"  >
<polygon points="584,90 600,90 605,85 600,80 584,80 584,90 " style="fill:#8d15d8; stroke-width:1; stroke:black; " description="&lt;b&gt;METH_RS13560&lt;/b&gt;&lt;br&gt;oligosaccharide flippase family protein&lt;br&gt;Location: 2745217 - 2746587&lt;br&gt;&lt;br&gt;&lt;b&gt;BlastP hit with DPKFPEHH_02446&lt;/b&gt;&lt;br&gt;Percentage identity: 45&lt;br&gt;Percentage coverage: 98&lt;br&gt;BLAST bit score: 371&lt;br&gt;E-value: 3.02e-123" locus_tag="METH_RS13560" class="clusterblast-orf" id="dummy-1_h1_6_24"  />
</g>
<g id="a1_0025"  >
<polygon points="605,85 610,80 624,80 624,90 610,90 605,85 " style="fill:#15d851; stroke-width:1; stroke:black; " description="&lt;b&gt;METH_RS13565&lt;/b&gt;&lt;br&gt;chain-length determining protein&lt;br&gt;Location: 2746590 - 2747855&lt;br&gt;&lt;br&gt;&lt;b&gt;BlastP hit with DPKFPEHH_02448&lt;/b&gt;&lt;br&gt;Percentage identity: 35&lt;br&gt;Percentage coverage: 92&lt;br&gt;BLAST bit score: 211&lt;br&gt;E-value: 1.02e-61" locus_tag="METH_RS13565" class="clusterblast-orf" id="dummy-1_h1_6_25"  />
</g>
<g id="a1_0026"  >
<polygon points="626,85 631,80 642,80 642,90 631,90 626,85 " style="fill:#d86f15; stroke-width:1; stroke:black; " description="&lt;b&gt;METH_RS13570&lt;/b&gt;&lt;br&gt;exopolysaccharide biosynthesis protein&lt;br&gt;Location: 2747987 - 2748970&lt;br&gt;&lt;br&gt;&lt;b&gt;BlastP hit with DPKFPEHH_02447&lt;/b&gt;&lt;br&gt;Percentage identity: 38&lt;br&gt;Percentage coverage: 78&lt;br&gt;BLAST bit score: 134&lt;br&gt;E-value: 4.06e-35" locus_tag="METH_RS13570" class="clusterblast-orf" id="dummy-1_h1_6_26"  />
</g>
<g id="a1_0027"  >
<polygon points="642,85 647,80 654,80 654,90 647,90 642,85 " style="fill:white; stroke-width:1; stroke:black; " description="&lt;b&gt;METH_RS13575&lt;/b&gt;&lt;br&gt;sugar transferase&lt;br&gt;Location: 2748986 - 2749753" locus_tag="METH_RS13575" class="clusterblast-orf" id="dummy-1_h1_6_27"  />
</g>
<g id="a1_0028"  >
<polygon points="660,85 665,80 675,80 675,90 665,90 660,85 " style="fill:white; stroke-width:1; stroke:black; " description="&lt;b&gt;METH_RS13580&lt;/b&gt;&lt;br&gt;AraC family transcriptional regulator&lt;br&gt;Location: 2750150 - 2751166" locus_tag="METH_RS13580" class="clusterblast-orf" id="dummy-1_h1_6_28"  />
</g>
<g id="a1_0029"  >
<polygon points="681,90 689,90 694,85 689,80 681,80 681,90 " style="fill:white; stroke-width:1; stroke:black; " description="&lt;b&gt;METH_RS13590&lt;/b&gt;&lt;br&gt;2-dehydro-3-deoxygalactonokinase&lt;br&gt;Location: 2751528 - 2752370" locus_tag="METH_RS13590" class="clusterblast-orf" id="dummy-1_h1_6_29"  />
</g>
<g id="a1_0030"  >
<polygon points="697,85 702,80 710,80 710,90 702,90 697,85 " style="fill:white; stroke-width:1; stroke:black; " description="&lt;b&gt;METH_RS13595&lt;/b&gt;&lt;br&gt;TIGR03084 family protein&lt;br&gt;Location: 2752587 - 2753387" locus_tag="METH_RS13595" class="clusterblast-orf" id="dummy-1_h1_6_30"  />
</g>
<g id="a1_0031"  >
<polygon points="711,85 716,80 727,80 727,90 716,90 711,85 " style="fill:white; stroke-width:1; stroke:black; " description="&lt;b&gt;METH_RS13600&lt;/b&gt;&lt;br&gt;hypothetical protein&lt;br&gt;Location: 2753478 - 2754491" locus_tag="METH_RS13600" class="clusterblast-orf" id="dummy-1_h1_6_31"  />
</g>
<g id="a1_0032"  >
<polygon points="736,85 741,80 746,80 746,90 741,90 736,85 " style="fill:white; stroke-width:1; stroke:black; " description="&lt;b&gt;METH_RS23960&lt;/b&gt;&lt;br&gt;hypothetical protein&lt;br&gt;Location: 2755077 - 2755757" locus_tag="METH_RS23960" class="clusterblast-orf" id="dummy-1_h1_6_32"  />
</g>
<g id="a1_0033"  >
<polygon points="762,85 767,80 780,80 780,90 767,90 762,85 " style="fill:white; stroke-width:1; stroke:black; " description="&lt;b&gt;METH_RS13610&lt;/b&gt;&lt;br&gt;RNA methyltransferase&lt;br&gt;Location: 2756811 - 2757929" locus_tag="METH_RS13610" class="clusterblast-orf" id="dummy-1_h1_6_33"  />
</g>
</svg>
