<svg xmlns="http://www.w3.org/2000/svg" xmlns:xlink="http://www.w3.org/1999/xlink" version="1.1" x="0" y="0" height="230" width="800" viewBox="0 0 800 230" preserveAspectRatio="none"  >
<g label="Query sequence" class="clusterblast-cluster"  >
<text x="5" y="20" class="clusterblast-acc"  >
Query sequence</text>
<line x1="10" y1="35" x2="778.0" y2="35" style="stroke-width:1; stroke:grey; "  />
<polygon points="3,40 59,40 64,35 59,30 3,30 3,40 " style="fill:white; stroke-width:1; stroke:black; " description="&lt;b&gt;DPKFPEHH_01057&lt;/b&gt;&lt;br&gt;hypothetical protein&lt;br&gt;Location: 173561 - 174353" locus_tag="DPKFPEHH_01057" class="clusterblast-orf" id="dummy-1_q0_0_all"  />
<polygon points="70,40 101,40 106,35 101,30 70,30 70,40 " style="fill:white; stroke-width:1; stroke:black; " description="&lt;b&gt;DPKFPEHH_01058&lt;/b&gt;&lt;br&gt;hypothetical protein&lt;br&gt;Location: 174428 - 174887" locus_tag="DPKFPEHH_01058" class="clusterblast-orf" id="dummy-1_q1_0_all"  />
<polygon points="112,40 163,40 168,35 163,30 112,30 112,40 " style="fill:white; stroke-width:1; stroke:black; " description="&lt;b&gt;DPKFPEHH_01059&lt;/b&gt;&lt;br&gt;Orotidine 5'-phosphate decarboxylase&lt;br&gt;Location: 174969 - 175689" locus_tag="DPKFPEHH_01059" class="clusterblast-orf" id="dummy-1_q2_0_all"  />
<polygon points="211,35 216,30 223,30 223,40 216,40 211,35 " style="fill:white; stroke-width:1; stroke:black; " description="&lt;b&gt;DPKFPEHH_01061&lt;/b&gt;&lt;br&gt;hypothetical protein&lt;br&gt;Location: 176239 - 176392" locus_tag="DPKFPEHH_01061" class="clusterblast-orf" id="dummy-1_q3_0_all"  />
<polygon points="235,35 240,30 347,30 347,40 240,40 235,35 " style="fill:#d81515; stroke-width:1; stroke:black; " description="&lt;b&gt;DPKFPEHH_01062&lt;/b&gt;&lt;br&gt;Aspartate kinase Ask Ect&lt;br&gt;Location: 176544 - 177981" locus_tag="DPKFPEHH_01062" class="clusterblast-orf" id="dummy-1_q4_0_all"  />
<polygon points="360,35 365,30 390,30 390,40 365,40 360,35 " style="fill:#15d815; stroke-width:1; stroke:black; " description="&lt;b&gt;DPKFPEHH_01063&lt;/b&gt;&lt;br&gt;L-ectoine synthase&lt;br&gt;Location: 178157 - 178541" locus_tag="DPKFPEHH_01063" class="clusterblast-orf" id="dummy-1_q5_0_all"  />
<polygon points="391,35 396,30 491,30 491,40 396,40 391,35 " style="fill:#1515d8; stroke-width:1; stroke:black; " description="&lt;b&gt;DPKFPEHH_01064&lt;/b&gt;&lt;br&gt;Diaminobutyrate--2-oxoglutarate transaminase&lt;br&gt;Location: 178546 - 179839" locus_tag="DPKFPEHH_01064" class="clusterblast-orf" id="dummy-1_q6_0_all"  />
<polygon points="495,35 500,30 537,30 537,40 500,40 495,35 " style="fill:#d815d8; stroke-width:1; stroke:black; " description="&lt;b&gt;DPKFPEHH_01065&lt;/b&gt;&lt;br&gt;L-2,4-diaminobutyric acid acetyltransferase&lt;br&gt;Location: 179884 - 180424" locus_tag="DPKFPEHH_01065" class="clusterblast-orf" id="dummy-1_q7_0_all"  />
<polygon points="557,40 590,40 595,35 590,30 557,30 557,40 " style="fill:#d8d815; stroke-width:1; stroke:black; " description="&lt;b&gt;DPKFPEHH_01066&lt;/b&gt;&lt;br&gt;hypothetical protein&lt;br&gt;Location: 180687 - 181173" locus_tag="DPKFPEHH_01066" class="clusterblast-orf" id="dummy-1_q8_0_all"  />
<polygon points="603,40 626,40 631,35 626,30 603,30 603,40 " style="fill:white; stroke-width:1; stroke:black; " description="&lt;b&gt;DPKFPEHH_01067&lt;/b&gt;&lt;br&gt;hypothetical protein&lt;br&gt;Location: 181273 - 181642" locus_tag="DPKFPEHH_01067" class="clusterblast-orf" id="dummy-1_q9_0_all"  />
<polygon points="632,35 637,30 697,30 697,40 637,40 632,35 " style="fill:white; stroke-width:1; stroke:black; " description="&lt;b&gt;DPKFPEHH_01068&lt;/b&gt;&lt;br&gt;hypothetical protein&lt;br&gt;Location: 181655 - 182486" locus_tag="DPKFPEHH_01068" class="clusterblast-orf" id="dummy-1_q10_0_all"  />
<polygon points="698,35 703,30 778,30 778,40 703,40 698,35 " style="fill:#15d8d8; stroke-width:1; stroke:black; " description="&lt;b&gt;DPKFPEHH_01069&lt;/b&gt;&lt;br&gt;hypothetical protein&lt;br&gt;Location: 182501 - 183524" locus_tag="DPKFPEHH_01069" class="clusterblast-orf" id="dummy-1_q11_0_all"  />
</g>
<g label="NZ_CP049811" description="NZ_CP049811 (715806-726190): Monaibacterium sp. ALG8 chromosome, complete genome (50% of genes show similarity), ectoine" class="clusterblast-cluster"  >
<text x="5" y="70" class="clusterblast-acc"  >
<a xlink:href="https://antismash-db.secondarymetabolites.org/area.html?record=NZ_CP049811&amp;start=715806&amp;end=726190" target="_blank">NZ_CP049811 (715806-726190)</a>: Monaibacterium sp. ALG8 chromosome, complete genome (50% of genes show similarity), ectoine</text>
<line x1="10" y1="85" x2="778.0" y2="85" style="stroke-width:1; stroke:grey; "  />
</g>
<g id="a1_000"  >
<polygon points="0,85 5,80 96,80 96,90 5,90 0,85 " style="fill:white; stroke-width:1; stroke:black; " description="&lt;b&gt;G8E03_RS03490&lt;/b&gt;&lt;br&gt;multidrug effflux MFS transporter&lt;br&gt;Location: 725889 - 724645" locus_tag="G8E03_RS03490" class="clusterblast-orf" id="dummy-1_h1_2_0"  />
</g>
<g id="a1_001"  >
<polygon points="116,90 202,90 207,85 202,80 116,80 116,90 " style="fill:white; stroke-width:1; stroke:black; " description="&lt;b&gt;G8E03_RS03485&lt;/b&gt;&lt;br&gt;acetyl-CoA C-acyltransferase&lt;br&gt;Location: 724395 - 723226" locus_tag="G8E03_RS03485" class="clusterblast-orf" id="dummy-1_h1_2_1"  />
</g>
<g id="a1_002"  >
<polygon points="243,85 248,80 357,80 357,90 248,90 243,85 " style="fill:#d81515; stroke-width:1; stroke:black; " description="&lt;b&gt;G8E03_RS03480&lt;/b&gt;&lt;br&gt;aspartate kinase&lt;br&gt;Location: 722762 - 721299&lt;br&gt;&lt;br&gt;&lt;b&gt;BlastP hit with DPKFPEHH_01062&lt;/b&gt;&lt;br&gt;Percentage identity: 78&lt;br&gt;Percentage coverage: 99&lt;br&gt;BLAST bit score: 725&lt;br&gt;E-value: 6.97e-262" locus_tag="G8E03_RS03480" class="clusterblast-orf" id="dummy-1_h1_2_2"  />
</g>
<g id="a1_003"  >
<polygon points="365,85 370,80 395,80 395,90 370,90 365,85 " style="fill:#15d815; stroke-width:1; stroke:black; " description="&lt;b&gt;G8E03_RS03475&lt;/b&gt;&lt;br&gt;ectoine synthase&lt;br&gt;Location: 721190 - 720807&lt;br&gt;&lt;br&gt;&lt;b&gt;BlastP hit with DPKFPEHH_01063&lt;/b&gt;&lt;br&gt;Percentage identity: 89&lt;br&gt;Percentage coverage: 100&lt;br&gt;BLAST bit score: 241&lt;br&gt;E-value: 5.96e-82" locus_tag="G8E03_RS03475" class="clusterblast-orf" id="dummy-1_h1_2_3"  />
</g>
<g id="a1_004"  >
<polygon points="395,85 400,80 495,80 495,90 400,90 395,85 " style="fill:#1515d8; stroke-width:1; stroke:black; " description="&lt;b&gt;G8E03_RS03470&lt;/b&gt;&lt;br&gt;diaminobutyrate--2-oxoglutarate transaminase&lt;br&gt;Location: 720802 - 719516&lt;br&gt;&lt;br&gt;&lt;b&gt;BlastP hit with DPKFPEHH_01064&lt;/b&gt;&lt;br&gt;Percentage identity: 82&lt;br&gt;Percentage coverage: 100&lt;br&gt;BLAST bit score: 702&lt;br&gt;E-value: 1.14e-254" locus_tag="G8E03_RS03470" class="clusterblast-orf" id="dummy-1_h1_2_4"  />
</g>
<g id="a1_005"  >
<polygon points="499,85 504,80 540,80 540,90 504,90 499,85 " style="fill:#d815d8; stroke-width:1; stroke:black; " description="&lt;b&gt;G8E03_RS03465&lt;/b&gt;&lt;br&gt;diaminobutyrate acetyltransferase&lt;br&gt;Location: 719467 - 718946&lt;br&gt;&lt;br&gt;&lt;b&gt;BlastP hit with DPKFPEHH_01065&lt;/b&gt;&lt;br&gt;Percentage identity: 80&lt;br&gt;Percentage coverage: 97&lt;br&gt;BLAST bit score: 296&lt;br&gt;E-value: 2.6e-102" locus_tag="G8E03_RS03465" class="clusterblast-orf" id="dummy-1_h1_2_5"  />
</g>
<g id="a1_006"  >
<polygon points="561,90 595,90 600,85 595,80 561,80 561,90 " style="fill:#d8d815; stroke-width:1; stroke:black; " description="&lt;b&gt;G8E03_RS03460&lt;/b&gt;&lt;br&gt;MarR family transcriptional regulator&lt;br&gt;Location: 718672 - 718172&lt;br&gt;&lt;br&gt;&lt;b&gt;BlastP hit with DPKFPEHH_01066&lt;/b&gt;&lt;br&gt;Percentage identity: 74&lt;br&gt;Percentage coverage: 96&lt;br&gt;BLAST bit score: 218&lt;br&gt;E-value: 8.35e-72" locus_tag="G8E03_RS03460" class="clusterblast-orf" id="dummy-1_h1_2_6"  />
</g>
<g id="a1_007"  >
<polygon points="629,90 653,90 658,85 653,80 629,80 629,90 " style="fill:white; stroke-width:1; stroke:black; " description="&lt;b&gt;G8E03_RS03455&lt;/b&gt;&lt;br&gt;rhodanese-like domain-containing protein&lt;br&gt;Location: 717794 - 717420" locus_tag="G8E03_RS03455" class="clusterblast-orf" id="dummy-1_h1_2_7"  />
</g>
<g id="a1_008"  >
<polygon points="658,90 683,90 688,85 683,80 658,80 658,90 " style="fill:white; stroke-width:1; stroke:black; " description="&lt;b&gt;G8E03_RS03450&lt;/b&gt;&lt;br&gt;rhodanese-like domain-containing protein&lt;br&gt;Location: 717423 - 717037" locus_tag="G8E03_RS03450" class="clusterblast-orf" id="dummy-1_h1_2_8"  />
</g>
<g id="a1_009"  >
<polygon points="692,90 775,90 780,85 775,80 692,80 692,90 " style="fill:white; stroke-width:1; stroke:black; " description="&lt;b&gt;G8E03_RS03445&lt;/b&gt;&lt;br&gt;acyl-CoA dehydrogenase&lt;br&gt;Location: 716990 - 715863" locus_tag="G8E03_RS03445" class="clusterblast-orf" id="dummy-1_h1_2_9"  />
</g>
</svg>
