<svg xmlns="http://www.w3.org/2000/svg" xmlns:xlink="http://www.w3.org/1999/xlink" version="1.1" x="0" y="0" height="230" width="800" viewBox="0 0 800 230" preserveAspectRatio="none"  >
<g label="Query sequence" class="clusterblast-cluster"  >
<text x="5" y="20" class="clusterblast-acc"  >
Query sequence</text>
<line x1="10" y1="35" x2="778.0" y2="35" style="stroke-width:1; stroke:grey; "  />
<polygon points="0,40 57,40 62,35 57,30 0,30 0,40 " style="fill:white; stroke-width:1; stroke:black; " description="&lt;b&gt;DPKFPEHH_01057&lt;/b&gt;&lt;br&gt;hypothetical protein&lt;br&gt;Location: 173561 - 174353" locus_tag="DPKFPEHH_01057" class="clusterblast-orf" id="dummy-1_q0_0_all"  />
<polygon points="68,40 99,40 104,35 99,30 68,30 68,40 " style="fill:white; stroke-width:1; stroke:black; " description="&lt;b&gt;DPKFPEHH_01058&lt;/b&gt;&lt;br&gt;hypothetical protein&lt;br&gt;Location: 174428 - 174887" locus_tag="DPKFPEHH_01058" class="clusterblast-orf" id="dummy-1_q1_0_all"  />
<polygon points="111,40 162,40 167,35 162,30 111,30 111,40 " style="fill:white; stroke-width:1; stroke:black; " description="&lt;b&gt;DPKFPEHH_01059&lt;/b&gt;&lt;br&gt;Orotidine 5'-phosphate decarboxylase&lt;br&gt;Location: 174969 - 175689" locus_tag="DPKFPEHH_01059" class="clusterblast-orf" id="dummy-1_q2_0_all"  />
<polygon points="210,35 215,30 222,30 222,40 215,40 210,35 " style="fill:white; stroke-width:1; stroke:black; " description="&lt;b&gt;DPKFPEHH_01061&lt;/b&gt;&lt;br&gt;hypothetical protein&lt;br&gt;Location: 176239 - 176392" locus_tag="DPKFPEHH_01061" class="clusterblast-orf" id="dummy-1_q3_0_all"  />
<polygon points="234,35 239,30 346,30 346,40 239,40 234,35 " style="fill:#d81515; stroke-width:1; stroke:black; " description="&lt;b&gt;DPKFPEHH_01062&lt;/b&gt;&lt;br&gt;Aspartate kinase Ask Ect&lt;br&gt;Location: 176544 - 177981" locus_tag="DPKFPEHH_01062" class="clusterblast-orf" id="dummy-1_q4_0_all"  />
<polygon points="360,35 365,30 390,30 390,40 365,40 360,35 " style="fill:#15d815; stroke-width:1; stroke:black; " description="&lt;b&gt;DPKFPEHH_01063&lt;/b&gt;&lt;br&gt;L-ectoine synthase&lt;br&gt;Location: 178157 - 178541" locus_tag="DPKFPEHH_01063" class="clusterblast-orf" id="dummy-1_q5_0_all"  />
<polygon points="391,35 396,30 492,30 492,40 396,40 391,35 " style="fill:#1515d8; stroke-width:1; stroke:black; " description="&lt;b&gt;DPKFPEHH_01064&lt;/b&gt;&lt;br&gt;Diaminobutyrate--2-oxoglutarate transaminase&lt;br&gt;Location: 178546 - 179839" locus_tag="DPKFPEHH_01064" class="clusterblast-orf" id="dummy-1_q6_0_all"  />
<polygon points="495,35 500,30 538,30 538,40 500,40 495,35 " style="fill:#d815d8; stroke-width:1; stroke:black; " description="&lt;b&gt;DPKFPEHH_01065&lt;/b&gt;&lt;br&gt;L-2,4-diaminobutyric acid acetyltransferase&lt;br&gt;Location: 179884 - 180424" locus_tag="DPKFPEHH_01065" class="clusterblast-orf" id="dummy-1_q7_0_all"  />
<polygon points="558,40 591,40 596,35 591,30 558,30 558,40 " style="fill:#d8d815; stroke-width:1; stroke:black; " description="&lt;b&gt;DPKFPEHH_01066&lt;/b&gt;&lt;br&gt;hypothetical protein&lt;br&gt;Location: 180687 - 181173" locus_tag="DPKFPEHH_01066" class="clusterblast-orf" id="dummy-1_q8_0_all"  />
<polygon points="604,40 628,40 633,35 628,30 604,30 604,40 " style="fill:white; stroke-width:1; stroke:black; " description="&lt;b&gt;DPKFPEHH_01067&lt;/b&gt;&lt;br&gt;hypothetical protein&lt;br&gt;Location: 181273 - 181642" locus_tag="DPKFPEHH_01067" class="clusterblast-orf" id="dummy-1_q9_0_all"  />
<polygon points="634,35 639,30 699,30 699,40 639,40 634,35 " style="fill:white; stroke-width:1; stroke:black; " description="&lt;b&gt;DPKFPEHH_01068&lt;/b&gt;&lt;br&gt;hypothetical protein&lt;br&gt;Location: 181655 - 182486" locus_tag="DPKFPEHH_01068" class="clusterblast-orf" id="dummy-1_q10_0_all"  />
<polygon points="700,35 705,30 780,30 780,40 705,40 700,35 " style="fill:#15d8d8; stroke-width:1; stroke:black; " description="&lt;b&gt;DPKFPEHH_01069&lt;/b&gt;&lt;br&gt;hypothetical protein&lt;br&gt;Location: 182501 - 183524" locus_tag="DPKFPEHH_01069" class="clusterblast-orf" id="dummy-1_q11_0_all"  />
</g>
<g label="NZ_CP051181" description="NZ_CP051181 (955170-965572): Thalassobius gelatinovorus strain NEB572 chromos... (54% of genes show similarity), ectoine" class="clusterblast-cluster"  >
<text x="5" y="70" class="clusterblast-acc"  >
<a xlink:href="https://antismash-db.secondarymetabolites.org/area.html?record=NZ_CP051181&amp;start=955170&amp;end=965572" target="_blank">NZ_CP051181 (955170-965572)</a>: Thalassobius gelatinovorus strain NEB572 chromos... (54% of genes show similarity), ectoine</text>
<line x1="10" y1="85" x2="778.0" y2="85" style="stroke-width:1; stroke:grey; "  />
</g>
<g id="a1_000"  >
<polygon points="19,85 24,80 91,80 91,90 24,90 19,85 " style="fill:white; stroke-width:1; stroke:black; " description="&lt;b&gt;HFZ77_RS04665&lt;/b&gt;&lt;br&gt;twin-arginine translocase subunit TatC&lt;br&gt;Location: 965038 - 964118" locus_tag="HFZ77_RS04665" class="clusterblast-orf" id="dummy-1_h1_1_0"  />
</g>
<g id="a1_001"  >
<polygon points="90,85 95,80 126,80 126,90 95,90 90,85 " style="fill:white; stroke-width:1; stroke:black; " description="&lt;b&gt;HFZ77_RS04660&lt;/b&gt;&lt;br&gt;twin-arginine translocase subunit TatB&lt;br&gt;Location: 964121 - 963669" locus_tag="HFZ77_RS04660" class="clusterblast-orf" id="dummy-1_h1_1_1"  />
</g>
<g id="a1_002"  >
<polygon points="126,85 131,80 143,80 143,90 131,90 126,85 " style="fill:white; stroke-width:1; stroke:black; " description="&lt;b&gt;HFZ77_RS04655&lt;/b&gt;&lt;br&gt;prohead protease&lt;br&gt;Location: 963664 - 963452" locus_tag="HFZ77_RS04655" class="clusterblast-orf" id="dummy-1_h1_1_2"  />
</g>
<g id="a1_003"  >
<polygon points="157,85 162,80 242,80 242,90 162,90 157,85 " style="fill:white; stroke-width:1; stroke:black; " description="&lt;b&gt;HFZ77_RS04650&lt;/b&gt;&lt;br&gt;ABC transporter ATP-binding protein&lt;br&gt;Location: 963272 - 962190" locus_tag="HFZ77_RS04650" class="clusterblast-orf" id="dummy-1_h1_1_3"  />
</g>
<g id="a1_004"  >
<polygon points="256,85 261,80 368,80 368,90 261,90 256,85 " style="fill:#d81515; stroke-width:1; stroke:black; " description="&lt;b&gt;HFZ77_RS04645&lt;/b&gt;&lt;br&gt;aspartate kinase&lt;br&gt;Location: 962001 - 960577&lt;br&gt;&lt;br&gt;&lt;b&gt;BlastP hit with DPKFPEHH_01062&lt;/b&gt;&lt;br&gt;Percentage identity: 66&lt;br&gt;Percentage coverage: 99&lt;br&gt;BLAST bit score: 598&lt;br&gt;E-value: 6.56e-212" locus_tag="HFZ77_RS04645" class="clusterblast-orf" id="dummy-1_h1_1_4"  />
</g>
<g id="a1_005"  >
<polygon points="368,85 373,80 400,80 400,90 373,90 368,85 " style="fill:#15d815; stroke-width:1; stroke:black; " description="&lt;b&gt;HFZ77_RS04640&lt;/b&gt;&lt;br&gt;ectoine synthase&lt;br&gt;Location: 960572 - 960171&lt;br&gt;&lt;br&gt;&lt;b&gt;BlastP hit with DPKFPEHH_01063&lt;/b&gt;&lt;br&gt;Percentage identity: 78&lt;br&gt;Percentage coverage: 102&lt;br&gt;BLAST bit score: 204&lt;br&gt;E-value: 1.56e-67" locus_tag="HFZ77_RS04640" class="clusterblast-orf" id="dummy-1_h1_1_5"  />
</g>
<g id="a1_006"  >
<polygon points="400,85 405,80 501,80 501,90 405,90 400,85 " style="fill:#1515d8; stroke-width:1; stroke:black; " description="&lt;b&gt;HFZ77_RS04635&lt;/b&gt;&lt;br&gt;diaminobutyrate--2-oxoglutarate transaminase&lt;br&gt;Location: 960165 - 958879&lt;br&gt;&lt;br&gt;&lt;b&gt;BlastP hit with DPKFPEHH_01064&lt;/b&gt;&lt;br&gt;Percentage identity: 66&lt;br&gt;Percentage coverage: 99&lt;br&gt;BLAST bit score: 566&lt;br&gt;E-value: 1.18e-200" locus_tag="HFZ77_RS04635" class="clusterblast-orf" id="dummy-1_h1_1_6"  />
</g>
<g id="a1_007"  >
<polygon points="505,85 510,80 547,80 547,90 510,90 505,85 " style="fill:#d815d8; stroke-width:1; stroke:black; " description="&lt;b&gt;HFZ77_RS04630&lt;/b&gt;&lt;br&gt;diaminobutyrate acetyltransferase&lt;br&gt;Location: 958821 - 958291&lt;br&gt;&lt;br&gt;&lt;b&gt;BlastP hit with DPKFPEHH_01065&lt;/b&gt;&lt;br&gt;Percentage identity: 64&lt;br&gt;Percentage coverage: 86&lt;br&gt;BLAST bit score: 216&lt;br&gt;E-value: 1.91e-70" locus_tag="HFZ77_RS04630" class="clusterblast-orf" id="dummy-1_h1_1_7"  />
</g>
<g id="a1_008"  >
<polygon points="564,90 597,90 602,85 597,80 564,80 564,90 " style="fill:#d8d815; stroke-width:1; stroke:black; " description="&lt;b&gt;HFZ77_RS04625&lt;/b&gt;&lt;br&gt;MarR family transcriptional regulator&lt;br&gt;Location: 958074 - 957592&lt;br&gt;&lt;br&gt;&lt;b&gt;BlastP hit with DPKFPEHH_01066&lt;/b&gt;&lt;br&gt;Percentage identity: 58&lt;br&gt;Percentage coverage: 96&lt;br&gt;BLAST bit score: 180&lt;br&gt;E-value: 7.85e-57" locus_tag="HFZ77_RS04625" class="clusterblast-orf" id="dummy-1_h1_1_8"  />
</g>
<g id="a1_009"  >
<polygon points="606,85 611,80 667,80 667,90 611,90 606,85 " style="fill:white; stroke-width:1; stroke:black; " description="&lt;b&gt;HFZ77_RS04620&lt;/b&gt;&lt;br&gt;SDR family oxidoreductase&lt;br&gt;Location: 957537 - 956758" locus_tag="HFZ77_RS04620" class="clusterblast-orf" id="dummy-1_h1_1_9"  />
</g>
<g id="a1_0010"  >
<polygon points="681,90 755,90 760,85 755,80 681,80 681,90 " style="fill:#15d8d8; stroke-width:1; stroke:black; " description="&lt;b&gt;HFZ77_RS04615&lt;/b&gt;&lt;br&gt;Hint domain-containing protein&lt;br&gt;Location: 956576 - 955563&lt;br&gt;&lt;br&gt;&lt;b&gt;BlastP hit with DPKFPEHH_01069&lt;/b&gt;&lt;br&gt;Percentage identity: 38&lt;br&gt;Percentage coverage: 91&lt;br&gt;BLAST bit score: 183&lt;br&gt;E-value: 2.59e-53" locus_tag="HFZ77_RS04615" class="clusterblast-orf" id="dummy-1_h1_1_10"  />
</g>
</svg>
