<svg xmlns="http://www.w3.org/2000/svg" xmlns:xlink="http://www.w3.org/1999/xlink" version="1.1" x="0" y="0" height="230" width="800" viewBox="0 0 800 230" preserveAspectRatio="none"  >
<g label="Query sequence" class="clusterblast-cluster"  >
<text x="5" y="20" class="clusterblast-acc"  >
Query sequence</text>
<line x1="10" y1="35" x2="778.0" y2="35" style="stroke-width:1; stroke:grey; "  />
<polygon points="80,35 85,30 113,30 113,40 85,40 80,35 " style="fill:white; stroke-width:1; stroke:black; " description="&lt;b&gt;GEJFOEHM_04647&lt;/b&gt;&lt;br&gt;Acetyltransferase&lt;br&gt;Location: 60794 - 61217" locus_tag="GEJFOEHM_04647" class="clusterblast-orf" id="dummy-1_q0_0_all"  />
<polygon points="113,35 118,30 201,30 201,40 118,40 113,35 " style="fill:#d81515; stroke-width:1; stroke:black; " description="&lt;b&gt;GEJFOEHM_04648&lt;/b&gt;&lt;br&gt;Succinyl-diaminopimelate desuccinylase&lt;br&gt;Location: 61213 - 62362" locus_tag="GEJFOEHM_04648" class="clusterblast-orf" id="dummy-1_q1_0_all"  />
<polygon points="200,35 205,30 228,30 228,40 205,40 200,35 " style="fill:white; stroke-width:1; stroke:black; " description="&lt;b&gt;GEJFOEHM_04649&lt;/b&gt;&lt;br&gt;hypothetical protein&lt;br&gt;Location: 62354 - 62717" locus_tag="GEJFOEHM_04649" class="clusterblast-orf" id="dummy-1_q2_0_all"  />
<polygon points="239,40 318,40 323,35 318,30 239,30 239,40 " style="fill:white; stroke-width:1; stroke:black; " description="&lt;b&gt;GEJFOEHM_04650&lt;/b&gt;&lt;br&gt;UDP-3-O-acylglucosamine N-acyltransferase&lt;br&gt;Location: 62852 - 63944" locus_tag="GEJFOEHM_04650" class="clusterblast-orf" id="dummy-1_q3_0_all"  />
<polygon points="351,35 356,30 459,30 459,40 356,40 351,35 " style="fill:#15d815; stroke-width:1; stroke:black; " description="&lt;b&gt;GEJFOEHM_04651&lt;/b&gt;&lt;br&gt;Aspartate kinase Ask Ect&lt;br&gt;Location: 64301 - 65705" locus_tag="GEJFOEHM_04651" class="clusterblast-orf" id="dummy-1_q4_0_all"  />
<polygon points="465,35 470,30 495,30 495,40 470,40 465,35 " style="fill:#1515d8; stroke-width:1; stroke:black; " description="&lt;b&gt;GEJFOEHM_04652&lt;/b&gt;&lt;br&gt;L-ectoine synthase&lt;br&gt;Location: 65784 - 66171" locus_tag="GEJFOEHM_04652" class="clusterblast-orf" id="dummy-1_q5_0_all"  />
<polygon points="495,35 500,30 594,30 594,40 500,40 495,35 " style="fill:#d815d8; stroke-width:1; stroke:black; " description="&lt;b&gt;GEJFOEHM_04653&lt;/b&gt;&lt;br&gt;Diaminobutyrate--2-oxoglutarate transaminase&lt;br&gt;Location: 66177 - 67455" locus_tag="GEJFOEHM_04653" class="clusterblast-orf" id="dummy-1_q6_0_all"  />
<polygon points="597,35 602,30 639,30 639,40 602,40 597,35 " style="fill:#d8d815; stroke-width:1; stroke:black; " description="&lt;b&gt;GEJFOEHM_04654&lt;/b&gt;&lt;br&gt;L-2,4-diaminobutyric acid acetyltransferase&lt;br&gt;Location: 67505 - 68048" locus_tag="GEJFOEHM_04654" class="clusterblast-orf" id="dummy-1_q7_0_all"  />
<polygon points="652,40 695,40 700,35 695,30 652,30 652,40 " style="fill:#15d8d8; stroke-width:1; stroke:black; " description="&lt;b&gt;GEJFOEHM_04655&lt;/b&gt;&lt;br&gt;hypothetical protein&lt;br&gt;Location: 68218 - 68839" locus_tag="GEJFOEHM_04655" class="clusterblast-orf" id="dummy-1_q8_0_all"  />
</g>
<g label="NZ_FXBQ01000001" description="NZ_FXBQ01000001 (2565371-2575770): Maritimibacter sp. HL-12, whole genome sho... (46% of genes show similarity), ectoine" class="clusterblast-cluster"  >
<text x="5" y="70" class="clusterblast-acc"  >
<a xlink:href="https://antismash-db.secondarymetabolites.org/area.html?record=NZ_FXBQ01000001&amp;start=2565371&amp;end=2575770" target="_blank">NZ_FXBQ01000001 (2565371-2575770)</a>: Maritimibacter sp. HL-12, whole genome sho... (46% of genes show similarity), ectoine</text>
<line x1="10" y1="85" x2="778.0" y2="85" style="stroke-width:1; stroke:grey; "  />
</g>
<g id="a1_000"  >
<polygon points="0,85 5,80 112,80 112,90 5,90 0,85 " style="fill:white; stroke-width:1; stroke:black; " description="&lt;b&gt;B9Y97_RS12845&lt;/b&gt;&lt;br&gt;NAD-dependent succinate-semialdehyde dehydrogenase&lt;br&gt;Location: 2565473 - 2566930" locus_tag="B9Y97_RS12845" class="clusterblast-orf" id="dummy-1_h1_1_0"  />
</g>
<g id="a1_001"  >
<polygon points="125,85 130,80 162,80 162,90 130,90 125,85 " style="fill:white; stroke-width:1; stroke:black; " description="&lt;b&gt;B9Y97_RS12850&lt;/b&gt;&lt;br&gt;Lrp/AsnC family transcriptional regulator&lt;br&gt;Location: 2567102 - 2567578" locus_tag="B9Y97_RS12850" class="clusterblast-orf" id="dummy-1_h1_1_1"  />
</g>
<g id="a1_002"  >
<polygon points="177,90 262,90 267,85 262,80 177,80 177,90 " style="fill:#d81515; stroke-width:1; stroke:black; " description="&lt;b&gt;B9Y97_RS12855&lt;/b&gt;&lt;br&gt;acetylornithine deacetylase&lt;br&gt;Location: 2567779 - 2568939&lt;br&gt;&lt;br&gt;&lt;b&gt;BlastP hit with GEJFOEHM_04648&lt;/b&gt;&lt;br&gt;Percentage identity: 33&lt;br&gt;Percentage coverage: 77&lt;br&gt;BLAST bit score: 96&lt;br&gt;E-value: 7.09e-20" locus_tag="B9Y97_RS12855" class="clusterblast-orf" id="dummy-1_h1_1_2"  />
</g>
<g id="a1_003"  >
<polygon points="267,85 272,80 377,80 377,90 272,90 267,85 " style="fill:#15d815; stroke-width:1; stroke:black; " description="&lt;b&gt;B9Y97_RS12860&lt;/b&gt;&lt;br&gt;aspartate kinase&lt;br&gt;Location: 2568943 - 2570367&lt;br&gt;&lt;br&gt;&lt;b&gt;BlastP hit with GEJFOEHM_04651&lt;/b&gt;&lt;br&gt;Percentage identity: 63&lt;br&gt;Percentage coverage: 97&lt;br&gt;BLAST bit score: 561&lt;br&gt;E-value: 1.16e-197" locus_tag="B9Y97_RS12860" class="clusterblast-orf" id="dummy-1_h1_1_3"  />
</g>
<g id="a1_004"  >
<polygon points="377,85 382,80 408,80 408,90 382,90 377,85 " style="fill:#1515d8; stroke-width:1; stroke:black; " description="&lt;b&gt;B9Y97_RS12865&lt;/b&gt;&lt;br&gt;ectoine synthase&lt;br&gt;Location: 2570372 - 2570770&lt;br&gt;&lt;br&gt;&lt;b&gt;BlastP hit with GEJFOEHM_04652&lt;/b&gt;&lt;br&gt;Percentage identity: 68&lt;br&gt;Percentage coverage: 98&lt;br&gt;BLAST bit score: 182&lt;br&gt;E-value: 1.08e-58" locus_tag="B9Y97_RS12865" class="clusterblast-orf" id="dummy-1_h1_1_4"  />
</g>
<g id="a1_005"  >
<polygon points="408,85 413,80 507,80 507,90 413,90 408,85 " style="fill:#d815d8; stroke-width:1; stroke:black; " description="&lt;b&gt;B9Y97_RS12870&lt;/b&gt;&lt;br&gt;diaminobutyrate--2-oxoglutarate transaminase&lt;br&gt;Location: 2570776 - 2572065&lt;br&gt;&lt;br&gt;&lt;b&gt;BlastP hit with GEJFOEHM_04653&lt;/b&gt;&lt;br&gt;Percentage identity: 63&lt;br&gt;Percentage coverage: 95&lt;br&gt;BLAST bit score: 512&lt;br&gt;E-value: 1.89e-179" locus_tag="B9Y97_RS12870" class="clusterblast-orf" id="dummy-1_h1_1_5"  />
</g>
<g id="a1_006"  >
<polygon points="511,85 516,80 552,80 552,90 516,90 511,85 " style="fill:#d8d815; stroke-width:1; stroke:black; " description="&lt;b&gt;B9Y97_RS12875&lt;/b&gt;&lt;br&gt;diaminobutyrate acetyltransferase&lt;br&gt;Location: 2572105 - 2572638&lt;br&gt;&lt;br&gt;&lt;b&gt;BlastP hit with GEJFOEHM_04654&lt;/b&gt;&lt;br&gt;Percentage identity: 61&lt;br&gt;Percentage coverage: 86&lt;br&gt;BLAST bit score: 204&lt;br&gt;E-value: 1.06e-65" locus_tag="B9Y97_RS12875" class="clusterblast-orf" id="dummy-1_h1_1_6"  />
</g>
<g id="a1_007"  >
<polygon points="570,90 605,90 610,85 605,80 570,80 570,90 " style="fill:#15d8d8; stroke-width:1; stroke:black; " description="&lt;b&gt;B9Y97_RS12880&lt;/b&gt;&lt;br&gt;MarR family transcriptional regulator&lt;br&gt;Location: 2572876 - 2573394&lt;br&gt;&lt;br&gt;&lt;b&gt;BlastP hit with GEJFOEHM_04655&lt;/b&gt;&lt;br&gt;Percentage identity: 38&lt;br&gt;Percentage coverage: 71&lt;br&gt;BLAST bit score: 106&lt;br&gt;E-value: 3.65e-27" locus_tag="B9Y97_RS12880" class="clusterblast-orf" id="dummy-1_h1_1_7"  />
</g>
<g id="a1_008"  >
<polygon points="619,90 655,90 660,85 655,80 619,80 619,90 " style="fill:white; stroke-width:1; stroke:black; " description="&lt;b&gt;B9Y97_RS12885&lt;/b&gt;&lt;br&gt;Na+/H+ antiporter subunit E&lt;br&gt;Location: 2573517 - 2574041" locus_tag="B9Y97_RS12885" class="clusterblast-orf" id="dummy-1_h1_1_8"  />
</g>
<g id="a1_009"  >
<polygon points="659,90 674,90 679,85 674,80 659,80 659,90 " style="fill:white; stroke-width:1; stroke:black; " description="&lt;b&gt;B9Y97_RS12890&lt;/b&gt;&lt;br&gt;cation:proton antiporter&lt;br&gt;Location: 2574034 - 2574297" locus_tag="B9Y97_RS12890" class="clusterblast-orf" id="dummy-1_h1_1_9"  />
</g>
<g id="a1_0010"  >
<polygon points="679,90 701,90 706,85 701,80 679,80 679,90 " style="fill:white; stroke-width:1; stroke:black; " description="&lt;b&gt;B9Y97_RS12895&lt;/b&gt;&lt;br&gt;monovalent cation/H(+) antiporter subunit G&lt;br&gt;Location: 2574294 - 2574635" locus_tag="B9Y97_RS12895" class="clusterblast-orf" id="dummy-1_h1_1_10"  />
</g>
<g id="a1_0011"  >
<polygon points="705,90 720,90 725,85 720,80 705,80 705,90 " style="fill:white; stroke-width:1; stroke:black; " description="&lt;b&gt;B9Y97_RS12900&lt;/b&gt;&lt;br&gt;DUF4040 domain-containing protein&lt;br&gt;Location: 2574632 - 2574889" locus_tag="B9Y97_RS12900" class="clusterblast-orf" id="dummy-1_h1_1_11"  />
</g>
<g id="a1_0012"  >
<polygon points="724,90 775,90 780,85 775,80 724,80 724,90 " style="fill:white; stroke-width:1; stroke:black; " description="&lt;b&gt;B9Y97_RS12905&lt;/b&gt;&lt;br&gt;Na(+)/H(+) antiporter subunit B&lt;br&gt;Location: 2574879 - 2575595" locus_tag="B9Y97_RS12905" class="clusterblast-orf" id="dummy-1_h1_1_12"  />
</g>
</svg>
