<svg xmlns="http://www.w3.org/2000/svg" xmlns:xlink="http://www.w3.org/1999/xlink" version="1.1" x="0" y="0" height="230" width="800" viewBox="0 0 800 230" preserveAspectRatio="none"  >
<g label="Query sequence" class="clusterblast-cluster"  >
<text x="5" y="20" class="clusterblast-acc"  >
Query sequence</text>
<line x1="10" y1="35" x2="778.0" y2="35" style="stroke-width:1; stroke:grey; "  />
<polygon points="143,40 146,35 143,30 143,40 " style="fill:white; stroke-width:1; stroke:black; " description="&lt;b&gt;GEJFOEHM_04420&lt;/b&gt;&lt;br&gt;Nitrogen regulatory protein P-II&lt;br&gt;Location: 26390 - 26747" locus_tag="GEJFOEHM_04420" class="clusterblast-orf" id="dummy-1_q0_0_all"  />
<polygon points="147,40 155,40 160,35 155,30 147,30 147,40 " style="fill:white; stroke-width:1; stroke:black; " description="&lt;b&gt;GEJFOEHM_04421&lt;/b&gt;&lt;br&gt;Ammonium transporter&lt;br&gt;Location: 26788 - 28144" locus_tag="GEJFOEHM_04421" class="clusterblast-orf" id="dummy-1_q1_0_all"  />
<polygon points="163,35 168,30 188,30 188,40 168,40 163,35 " style="fill:white; stroke-width:1; stroke:black; " description="&lt;b&gt;GEJFOEHM_04423&lt;/b&gt;&lt;br&gt;Lon protease&lt;br&gt;Location: 28451 - 30857" locus_tag="GEJFOEHM_04423" class="clusterblast-orf" id="dummy-1_q2_0_all"  />
<polygon points="191,35 195,30 195,40 191,35 " style="fill:#d81515; stroke-width:1; stroke:black; " description="&lt;b&gt;GEJFOEHM_04424&lt;/b&gt;&lt;br&gt;hypothetical protein&lt;br&gt;Location: 31213 - 31555" locus_tag="GEJFOEHM_04424" class="clusterblast-orf" id="dummy-1_q3_0_all"  />
<polygon points="196,35 201,30 208,30 208,40 201,40 196,35 " style="fill:#67d815; stroke-width:1; stroke:black; " description="&lt;b&gt;GEJFOEHM_04425&lt;/b&gt;&lt;br&gt;Tn3 family transposase TnXax1&lt;br&gt;Location: 31683 - 32862" locus_tag="GEJFOEHM_04425" class="clusterblast-orf" id="dummy-1_q4_0_all"  />
<polygon points="209,35 214,30 219,30 219,40 214,40 209,35 " style="fill:#15b9d8; stroke-width:1; stroke:black; " description="&lt;b&gt;GEJFOEHM_04426&lt;/b&gt;&lt;br&gt;Glutathionyl-hydroquinone reductase YqjG&lt;br&gt;Location: 32949 - 33930" locus_tag="GEJFOEHM_04426" class="clusterblast-orf" id="dummy-1_q5_0_all"  />
<polygon points="220,35 225,30 232,30 232,40 225,40 220,35 " style="fill:#a515d8; stroke-width:1; stroke:black; " description="&lt;b&gt;GEJFOEHM_04427&lt;/b&gt;&lt;br&gt;Cystathionine beta-lyase PatB&lt;br&gt;Location: 34019 - 35192" locus_tag="GEJFOEHM_04427" class="clusterblast-orf" id="dummy-1_q6_0_all"  />
<polygon points="233,40 233,40 238,35 233,30 233,30 233,40 " style="fill:#d85315; stroke-width:1; stroke:black; " description="&lt;b&gt;GEJFOEHM_04428&lt;/b&gt;&lt;br&gt;Peptide deformylase&lt;br&gt;Location: 35257 - 35815" locus_tag="GEJFOEHM_04428" class="clusterblast-orf" id="dummy-1_q7_0_all"  />
<polygon points="238,40 238,40 243,35 238,30 238,30 238,40 " style="fill:#d85315; stroke-width:1; stroke:black; " description="&lt;b&gt;GEJFOEHM_04429&lt;/b&gt;&lt;br&gt;Peptide deformylase 1&lt;br&gt;Location: 35811 - 36306" locus_tag="GEJFOEHM_04429" class="clusterblast-orf" id="dummy-1_q8_0_all"  />
<polygon points="243,40 247,40 252,35 247,30 243,30 243,40 " style="fill:#2ad815; stroke-width:1; stroke:black; " description="&lt;b&gt;GEJFOEHM_04430&lt;/b&gt;&lt;br&gt;Methionyl-tRNA formyltransferase&lt;br&gt;Location: 36305 - 37208" locus_tag="GEJFOEHM_04430" class="clusterblast-orf" id="dummy-1_q9_0_all"  />
<polygon points="255,35 260,30 262,30 262,40 260,40 255,35 " style="fill:white; stroke-width:1; stroke:black; " description="&lt;b&gt;GEJFOEHM_04431&lt;/b&gt;&lt;br&gt;tRNA (guanine-N(7)-)-methyltransferase&lt;br&gt;Location: 37446 - 38178" locus_tag="GEJFOEHM_04431" class="clusterblast-orf" id="dummy-1_q10_0_all"  />
<polygon points="264,40 268,35 264,30 264,40 " style="fill:white; stroke-width:1; stroke:black; " description="&lt;b&gt;GEJFOEHM_04432&lt;/b&gt;&lt;br&gt;FKBP-type peptidyl-prolyl cis-trans isomerase SlyD&lt;br&gt;Location: 38372 - 38801" locus_tag="GEJFOEHM_04432" class="clusterblast-orf" id="dummy-1_q11_0_all"  />
<polygon points="269,35 274,30 280,30 280,40 274,40 269,35 " style="fill:white; stroke-width:1; stroke:black; " description="&lt;b&gt;GEJFOEHM_04433&lt;/b&gt;&lt;br&gt;hypothetical protein&lt;br&gt;Location: 38881 - 39910" locus_tag="GEJFOEHM_04433" class="clusterblast-orf" id="dummy-1_q12_0_all"  />
<polygon points="282,40 285,35 282,30 282,40 " style="fill:white; stroke-width:1; stroke:black; " description="&lt;b&gt;GEJFOEHM_04434&lt;/b&gt;&lt;br&gt;30S ribosomal protein S15&lt;br&gt;Location: 40177 - 40447" locus_tag="GEJFOEHM_04434" class="clusterblast-orf" id="dummy-1_q13_0_all"  />
<polygon points="287,40 291,40 296,35 291,30 287,30 287,40 " style="fill:#157cd8; stroke-width:1; stroke:black; " description="&lt;b&gt;GEJFOEHM_04435&lt;/b&gt;&lt;br&gt;hypothetical protein&lt;br&gt;Location: 40676 - 41558" locus_tag="GEJFOEHM_04435" class="clusterblast-orf" id="dummy-1_q14_0_all"  />
<polygon points="296,40 305,40 310,35 305,30 296,30 296,40 " style="fill:#d815ce; stroke-width:1; stroke:black; " description="&lt;b&gt;GEJFOEHM_04436&lt;/b&gt;&lt;br&gt;hypothetical protein&lt;br&gt;Location: 41560 - 42847" locus_tag="GEJFOEHM_04436" class="clusterblast-orf" id="dummy-1_q15_0_all"  />
<polygon points="310,40 320,40 325,35 320,30 310,30 310,40 " style="fill:#d89015; stroke-width:1; stroke:black; " description="&lt;b&gt;GEJFOEHM_04437&lt;/b&gt;&lt;br&gt;hypothetical protein&lt;br&gt;Location: 42865 - 44350" locus_tag="GEJFOEHM_04437" class="clusterblast-orf" id="dummy-1_q16_0_all"  />
<polygon points="325,40 385,40 390,35 385,30 325,30 325,40 " style="fill:#15d83e; stroke-width:1; stroke:black; " description="&lt;b&gt;GEJFOEHM_04438&lt;/b&gt;&lt;br&gt;hypothetical protein&lt;br&gt;Location: 44389 - 50737" locus_tag="GEJFOEHM_04438" class="clusterblast-orf" id="dummy-1_q17_0_all"  />
<polygon points="390,40 395,40 400,35 395,30 390,30 390,40 " style="fill:#153ed8; stroke-width:1; stroke:black; " description="&lt;b&gt;GEJFOEHM_04439&lt;/b&gt;&lt;br&gt;hypothetical protein&lt;br&gt;Location: 50742 - 51714" locus_tag="GEJFOEHM_04439" class="clusterblast-orf" id="dummy-1_q18_0_all"  />
<polygon points="400,40 441,40 446,35 441,30 400,30 400,40 " style="fill:#d81590; stroke-width:1; stroke:black; " description="&lt;b&gt;GEJFOEHM_04440&lt;/b&gt;&lt;br&gt;D-alanine--D-alanyl carrier protein ligase&lt;br&gt;Location: 51737 - 56264" locus_tag="GEJFOEHM_04440" class="clusterblast-orf" id="dummy-1_q19_0_all"  />
<polygon points="446,40 448,40 453,35 448,30 446,30 446,40 " style="fill:#d8ce15; stroke-width:1; stroke:black; " description="&lt;b&gt;GEJFOEHM_04441&lt;/b&gt;&lt;br&gt;hypothetical protein&lt;br&gt;Location: 56260 - 56941" locus_tag="GEJFOEHM_04441" class="clusterblast-orf" id="dummy-1_q20_0_all"  />
<polygon points="455,40 459,35 455,30 455,40 " style="fill:white; stroke-width:1; stroke:black; " description="&lt;b&gt;GEJFOEHM_04442&lt;/b&gt;&lt;br&gt;hypothetical protein&lt;br&gt;Location: 57212 - 57530" locus_tag="GEJFOEHM_04442" class="clusterblast-orf" id="dummy-1_q21_0_all"  />
<polygon points="460,35 461,30 461,40 460,35 " style="fill:white; stroke-width:1; stroke:black; " description="&lt;b&gt;GEJFOEHM_04443&lt;/b&gt;&lt;br&gt;hypothetical protein&lt;br&gt;Location: 57672 - 57762" locus_tag="GEJFOEHM_04443" class="clusterblast-orf" id="dummy-1_q22_0_all"  />
<polygon points="462,40 466,35 462,30 462,40 " style="fill:white; stroke-width:1; stroke:black; " description="&lt;b&gt;GEJFOEHM_04444&lt;/b&gt;&lt;br&gt;hypothetical protein&lt;br&gt;Location: 57839 - 58217" locus_tag="GEJFOEHM_04444" class="clusterblast-orf" id="dummy-1_q23_0_all"  />
<polygon points="469,40 473,40 478,35 473,30 469,30 469,40 " style="fill:#15d87c; stroke-width:1; stroke:black; " description="&lt;b&gt;GEJFOEHM_04445&lt;/b&gt;&lt;br&gt;hypothetical protein&lt;br&gt;Location: 58565 - 59477" locus_tag="GEJFOEHM_04445" class="clusterblast-orf" id="dummy-1_q24_0_all"  />
<polygon points="479,40 482,40 487,35 482,30 479,30 479,40 " style="fill:white; stroke-width:1; stroke:black; " description="&lt;b&gt;GEJFOEHM_04446&lt;/b&gt;&lt;br&gt;tRNA-modifying protein YgfZ&lt;br&gt;Location: 59525 - 60287" locus_tag="GEJFOEHM_04446" class="clusterblast-orf" id="dummy-1_q25_0_all"  />
<polygon points="487,40 492,40 497,35 492,30 487,30 487,40 " style="fill:white; stroke-width:1; stroke:black; " description="&lt;b&gt;GEJFOEHM_04447&lt;/b&gt;&lt;br&gt;hypothetical protein&lt;br&gt;Location: 60351 - 61341" locus_tag="GEJFOEHM_04447" class="clusterblast-orf" id="dummy-1_q26_0_all"  />
<polygon points="498,40 504,40 509,35 504,30 498,30 498,40 " style="fill:white; stroke-width:1; stroke:black; " description="&lt;b&gt;GEJFOEHM_04448&lt;/b&gt;&lt;br&gt;Histidinol-phosphate aminotransferase&lt;br&gt;Location: 61459 - 62548" locus_tag="GEJFOEHM_04448" class="clusterblast-orf" id="dummy-1_q27_0_all"  />
<polygon points="509,40 514,40 519,35 514,30 509,30 509,40 " style="fill:white; stroke-width:1; stroke:black; " description="&lt;b&gt;GEJFOEHM_04449&lt;/b&gt;&lt;br&gt;Cyclohexadienyl dehydrogenase&lt;br&gt;Location: 62544 - 63459" locus_tag="GEJFOEHM_04449" class="clusterblast-orf" id="dummy-1_q28_0_all"  />
<polygon points="520,40 527,40 532,35 527,30 520,30 520,40 " style="fill:white; stroke-width:1; stroke:black; " description="&lt;b&gt;GEJFOEHM_04450&lt;/b&gt;&lt;br&gt;Acetylornithine deacetylase&lt;br&gt;Location: 63573 - 64752" locus_tag="GEJFOEHM_04450" class="clusterblast-orf" id="dummy-1_q29_0_all"  />
<polygon points="533,40 570,40 575,35 570,30 533,30 533,40 " style="fill:#2a15d8; stroke-width:1; stroke:black; " description="&lt;b&gt;GEJFOEHM_04451&lt;/b&gt;&lt;br&gt;Sensor histidine kinase RcsC&lt;br&gt;Location: 64902 - 68958" locus_tag="GEJFOEHM_04451" class="clusterblast-orf" id="dummy-1_q30_0_all"  />
<polygon points="576,40 584,40 589,35 584,30 576,30 576,40 " style="fill:#d81553; stroke-width:1; stroke:black; " description="&lt;b&gt;GEJFOEHM_04452&lt;/b&gt;&lt;br&gt;Homoserine dehydrogenase&lt;br&gt;Location: 69079 - 70366" locus_tag="GEJFOEHM_04452" class="clusterblast-orf" id="dummy-1_q31_0_all"  />
<polygon points="590,40 595,40 600,35 595,30 590,30 590,40 " style="fill:#a5d815; stroke-width:1; stroke:black; " description="&lt;b&gt;GEJFOEHM_04453&lt;/b&gt;&lt;br&gt;Fructose-1,6-bisphosphatase class 2&lt;br&gt;Location: 70482 - 71445" locus_tag="GEJFOEHM_04453" class="clusterblast-orf" id="dummy-1_q32_0_all"  />
<polygon points="600,40 601,40 606,35 601,30 600,30 600,40 " style="fill:white; stroke-width:1; stroke:black; " description="&lt;b&gt;GEJFOEHM_04454&lt;/b&gt;&lt;br&gt;Isochorismatase family protein YecD&lt;br&gt;Location: 71494 - 72061" locus_tag="GEJFOEHM_04454" class="clusterblast-orf" id="dummy-1_q33_0_all"  />
<polygon points="606,40 619,40 624,35 619,30 606,30 606,40 " style="fill:#15d8b9; stroke-width:1; stroke:black; " description="&lt;b&gt;GEJFOEHM_04455&lt;/b&gt;&lt;br&gt;Single-stranded-DNA-specific exonuclease RecJ&lt;br&gt;Location: 72053 - 73814" locus_tag="GEJFOEHM_04455" class="clusterblast-orf" id="dummy-1_q34_0_all"  />
<polygon points="628,40 632,40 637,35 632,30 628,30 628,40 " style="fill:#6715d8; stroke-width:1; stroke:black; " description="&lt;b&gt;GEJFOEHM_04457&lt;/b&gt;&lt;br&gt;hypothetical protein&lt;br&gt;Location: 74180 - 75083" locus_tag="GEJFOEHM_04457" class="clusterblast-orf" id="dummy-1_q35_0_all"  />
</g>
<g label="NZ_CP018076" description="NZ_CP018076 (1138633-1217190): Sulfitobacter sp. AM1-D1 chromosome, complete ... (16% of genes show similarity), NRPS-like,T1PKS,T3PKS" class="clusterblast-cluster"  >
<text x="5" y="70" class="clusterblast-acc"  >
<a xlink:href="https://antismash-db.secondarymetabolites.org/area.html?record=NZ_CP018076&amp;start=1138633&amp;end=1217190" target="_blank">NZ_CP018076 (1138633-1217190)</a>: Sulfitobacter sp. AM1-D1 chromosome, complete ... (16% of genes show similarity), NRPS-like,T1PKS,T3PKS</text>
<line x1="10" y1="85" x2="778.0" y2="85" style="stroke-width:1; stroke:grey; "  />
</g>
<g id="a1_000"  >
<polygon points="0,85 5,80 5,80 5,90 5,90 0,85 " style="fill:white; stroke-width:1; stroke:black; " description="&lt;b&gt;BOO69_RS05945&lt;/b&gt;&lt;br&gt;MgtC/SapB family protein&lt;br&gt;Location: 1216135 - 1215638" locus_tag="BOO69_RS05945" class="clusterblast-orf" id="dummy-1_h1_2_0"  />
</g>
<g id="a1_001"  >
<polygon points="5,90 9,90 14,85 9,80 5,80 5,90 " style="fill:white; stroke-width:1; stroke:black; " description="&lt;b&gt;BOO69_RS05940&lt;/b&gt;&lt;br&gt;EamA family transporter&lt;br&gt;Location: 1215566 - 1214664" locus_tag="BOO69_RS05940" class="clusterblast-orf" id="dummy-1_h1_2_1"  />
</g>
<g id="a1_002"  >
<polygon points="15,90 16,90 21,85 16,80 15,80 15,90 " style="fill:white; stroke-width:1; stroke:black; " description="&lt;b&gt;BOO69_RS05935&lt;/b&gt;&lt;br&gt;septation protein IspZ&lt;br&gt;Location: 1214649 - 1214044" locus_tag="BOO69_RS05935" class="clusterblast-orf" id="dummy-1_h1_2_2"  />
</g>
<g id="a1_003"  >
<polygon points="21,85 24,80 24,90 21,85 " style="fill:white; stroke-width:1; stroke:black; " description="&lt;b&gt;BOO69_RS05930&lt;/b&gt;&lt;br&gt;SH3 domain-containing protein&lt;br&gt;Location: 1214016 - 1213717" locus_tag="BOO69_RS05930" class="clusterblast-orf" id="dummy-1_h1_2_3"  />
</g>
<g id="a1_004"  >
<polygon points="25,85 30,80 43,80 43,90 30,90 25,85 " style="fill:white; stroke-width:1; stroke:black; " description="&lt;b&gt;BOO69_RS05925&lt;/b&gt;&lt;br&gt;NAD(P)H-dependent oxidoreductase subunit E&lt;br&gt;Location: 1213585 - 1211874" locus_tag="BOO69_RS05925" class="clusterblast-orf" id="dummy-1_h1_2_4"  />
</g>
<g id="a1_005"  >
<polygon points="45,90 50,90 55,85 50,80 45,80 45,90 " style="fill:white; stroke-width:1; stroke:black; " description="&lt;b&gt;BOO69_RS05920&lt;/b&gt;&lt;br&gt;alkane 1-monooxygenase&lt;br&gt;Location: 1211691 - 1210681" locus_tag="BOO69_RS05920" class="clusterblast-orf" id="dummy-1_h1_2_5"  />
</g>
<g id="a1_006"  >
<polygon points="55,90 59,85 55,80 55,90 " style="fill:white; stroke-width:1; stroke:black; " description="&lt;b&gt;BOO69_RS05915&lt;/b&gt;&lt;br&gt;hypothetical protein&lt;br&gt;Location: 1210631 - 1210236" locus_tag="BOO69_RS05915" class="clusterblast-orf" id="dummy-1_h1_2_6"  />
</g>
<g id="a1_007"  >
<polygon points="59,90 63,85 59,80 59,90 " style="fill:white; stroke-width:1; stroke:black; " description="&lt;b&gt;BOO69_RS05910&lt;/b&gt;&lt;br&gt;hypothetical protein&lt;br&gt;Location: 1210239 - 1209841" locus_tag="BOO69_RS05910" class="clusterblast-orf" id="dummy-1_h1_2_7"  />
</g>
<g id="a1_008"  >
<polygon points="63,85 68,80 79,80 79,90 68,90 63,85 " style="fill:white; stroke-width:1; stroke:black; " description="&lt;b&gt;BOO69_RS05905&lt;/b&gt;&lt;br&gt;exodeoxyribonuclease VII large subunit&lt;br&gt;Location: 1209839 - 1208277" locus_tag="BOO69_RS05905" class="clusterblast-orf" id="dummy-1_h1_2_8"  />
</g>
<g id="a1_009"  >
<polygon points="80,90 88,90 93,85 88,80 80,80 80,90 " style="fill:white; stroke-width:1; stroke:black; " description="&lt;b&gt;BOO69_RS05900&lt;/b&gt;&lt;br&gt;phosphoribosylamine--glycine ligase&lt;br&gt;Location: 1208205 - 1206943" locus_tag="BOO69_RS05900" class="clusterblast-orf" id="dummy-1_h1_2_9"  />
</g>
<g id="a1_0010"  >
<polygon points="93,90 96,90 101,85 96,80 93,80 93,90 " style="fill:white; stroke-width:1; stroke:black; " description="&lt;b&gt;BOO69_RS05895&lt;/b&gt;&lt;br&gt;sulfotransferase family 2 domain-containing protein&lt;br&gt;Location: 1206958 - 1206179" locus_tag="BOO69_RS05895" class="clusterblast-orf" id="dummy-1_h1_2_10"  />
</g>
<g id="a1_0011"  >
<polygon points="101,85 105,80 105,90 101,85 " style="fill:white; stroke-width:1; stroke:black; " description="&lt;b&gt;BOO69_RS05890&lt;/b&gt;&lt;br&gt;hypothetical protein&lt;br&gt;Location: 1206166 - 1205789" locus_tag="BOO69_RS05890" class="clusterblast-orf" id="dummy-1_h1_2_11"  />
</g>
<g id="a1_0012"  >
<polygon points="105,85 110,80 112,80 112,90 110,90 105,85 " style="fill:white; stroke-width:1; stroke:black; " description="&lt;b&gt;BOO69_RS05885&lt;/b&gt;&lt;br&gt;hypothetical protein&lt;br&gt;Location: 1205768 - 1205070" locus_tag="BOO69_RS05885" class="clusterblast-orf" id="dummy-1_h1_2_12"  />
</g>
<g id="a1_0013"  >
<polygon points="112,85 116,80 116,90 112,85 " style="fill:white; stroke-width:1; stroke:black; " description="&lt;b&gt;BOO69_RS05880&lt;/b&gt;&lt;br&gt;2Fe-2S iron-sulfur cluster binding domain-containing protein&lt;br&gt;Location: 1205009 - 1204686" locus_tag="BOO69_RS05880" class="clusterblast-orf" id="dummy-1_h1_2_13"  />
</g>
<g id="a1_0014"  >
<polygon points="117,90 118,90 123,85 118,80 117,80 117,90 " style="fill:white; stroke-width:1; stroke:black; " description="&lt;b&gt;BOO69_RS05875&lt;/b&gt;&lt;br&gt;peptidoglycan-binding protein&lt;br&gt;Location: 1204539 - 1203982" locus_tag="BOO69_RS05875" class="clusterblast-orf" id="dummy-1_h1_2_14"  />
</g>
<g id="a1_0015"  >
<polygon points="124,85 129,80 139,80 139,90 129,90 124,85 " style="fill:white; stroke-width:1; stroke:black; " description="&lt;b&gt;BOO69_RS05870&lt;/b&gt;&lt;br&gt;DegQ family serine endoprotease&lt;br&gt;Location: 1203898 - 1202420" locus_tag="BOO69_RS05870" class="clusterblast-orf" id="dummy-1_h1_2_15"  />
</g>
<g id="a1_0016"  >
<polygon points="140,85 142,80 142,90 140,85 " style="fill:white; stroke-width:1; stroke:black; " description="&lt;b&gt;BOO69_RS05865&lt;/b&gt;&lt;br&gt;DUF2065 family protein&lt;br&gt;Location: 1202264 - 1202070" locus_tag="BOO69_RS05865" class="clusterblast-orf" id="dummy-1_h1_2_16"  />
</g>
<g id="a1_0017"  >
<polygon points="142,85 147,80 153,80 153,90 147,90 142,85 " style="fill:white; stroke-width:1; stroke:black; " description="&lt;b&gt;BOO69_RS05860&lt;/b&gt;&lt;br&gt;protease modulator HflC&lt;br&gt;Location: 1202073 - 1200997" locus_tag="BOO69_RS05860" class="clusterblast-orf" id="dummy-1_h1_2_17"  />
</g>
<g id="a1_0018"  >
<polygon points="153,85 158,80 166,80 166,90 158,90 153,85 " style="fill:white; stroke-width:1; stroke:black; " description="&lt;b&gt;BOO69_RS05855&lt;/b&gt;&lt;br&gt;FtsH protease activity modulator HflK&lt;br&gt;Location: 1200997 - 1199762" locus_tag="BOO69_RS05855" class="clusterblast-orf" id="dummy-1_h1_2_18"  />
</g>
<g id="a1_0019"  >
<polygon points="167,85 172,80 182,80 182,90 172,90 167,85 " style="fill:white; stroke-width:1; stroke:black; " description="&lt;b&gt;BOO69_RS05850&lt;/b&gt;&lt;br&gt;FAD-dependent oxidoreductase&lt;br&gt;Location: 1199674 - 1198196" locus_tag="BOO69_RS05850" class="clusterblast-orf" id="dummy-1_h1_2_19"  />
</g>
<g id="a1_0020"  >
<polygon points="182,85 187,80 190,80 190,90 187,90 182,85 " style="fill:white; stroke-width:1; stroke:black; " description="&lt;b&gt;BOO69_RS05845&lt;/b&gt;&lt;br&gt;ribose-5-phosphate isomerase RpiA&lt;br&gt;Location: 1198174 - 1197386" locus_tag="BOO69_RS05845" class="clusterblast-orf" id="dummy-1_h1_2_20"  />
</g>
<g id="a1_0021"  >
<polygon points="192,90 198,90 203,85 198,80 192,80 192,90 " style="fill:white; stroke-width:1; stroke:black; " description="&lt;b&gt;BOO69_RS05840&lt;/b&gt;&lt;br&gt;type III polyketide synthase&lt;br&gt;Location: 1197190 - 1196090" locus_tag="BOO69_RS05840" class="clusterblast-orf" id="dummy-1_h1_2_21"  />
</g>
<g id="a1_0022"  >
<polygon points="203,90 203,90 208,85 203,80 203,80 203,90 " style="fill:white; stroke-width:1; stroke:black; " description="&lt;b&gt;BOO69_RS05835&lt;/b&gt;&lt;br&gt;hypothetical protein&lt;br&gt;Location: 1196093 - 1195602" locus_tag="BOO69_RS05835" class="clusterblast-orf" id="dummy-1_h1_2_22"  />
</g>
<g id="a1_0023"  >
<polygon points="209,90 211,90 216,85 211,80 209,80 209,90 " style="fill:white; stroke-width:1; stroke:black; " description="&lt;b&gt;BOO69_RS05830&lt;/b&gt;&lt;br&gt;glutathione S-transferase family protein&lt;br&gt;Location: 1195525 - 1194821" locus_tag="BOO69_RS05830" class="clusterblast-orf" id="dummy-1_h1_2_23"  />
</g>
<g id="a1_0024"  >
<polygon points="216,90 225,90 230,85 225,80 216,80 216,90 " style="fill:white; stroke-width:1; stroke:black; " description="&lt;b&gt;BOO69_RS05825&lt;/b&gt;&lt;br&gt;L-serine ammonia-lyase&lt;br&gt;Location: 1194821 - 1193448" locus_tag="BOO69_RS05825" class="clusterblast-orf" id="dummy-1_h1_2_24"  />
</g>
<g id="a1_0025"  >
<polygon points="232,90 234,85 232,80 232,90 " style="fill:white; stroke-width:1; stroke:black; " description="&lt;b&gt;BOO69_RS05820&lt;/b&gt;&lt;br&gt;cold-shock protein&lt;br&gt;Location: 1193241 - 1193035" locus_tag="BOO69_RS05820" class="clusterblast-orf" id="dummy-1_h1_2_25"  />
</g>
<g id="a1_0026"  >
<polygon points="235,85 240,80 244,80 244,90 240,90 235,85 " style="fill:white; stroke-width:1; stroke:black; " description="&lt;b&gt;BOO69_RS05815&lt;/b&gt;&lt;br&gt;NAD(P)-dependent oxidoreductase&lt;br&gt;Location: 1192969 - 1192025" locus_tag="BOO69_RS05815" class="clusterblast-orf" id="dummy-1_h1_2_26"  />
</g>
<g id="a1_0027"  >
<polygon points="245,85 250,80 260,80 260,90 250,90 245,85 " style="fill:white; stroke-width:1; stroke:black; " description="&lt;b&gt;BOO69_RS05810&lt;/b&gt;&lt;br&gt;hypothetical protein&lt;br&gt;Location: 1191941 - 1190499" locus_tag="BOO69_RS05810" class="clusterblast-orf" id="dummy-1_h1_2_27"  />
</g>
<g id="a1_0028"  >
<polygon points="262,90 266,90 271,85 266,80 262,80 262,90 " style="fill:#15d87c; stroke-width:1; stroke:black; " description="&lt;b&gt;BOO69_RS05805&lt;/b&gt;&lt;br&gt;pirin family protein&lt;br&gt;Location: 1190292 - 1189381&lt;br&gt;&lt;br&gt;&lt;b&gt;BlastP hit with GEJFOEHM_04445&lt;/b&gt;&lt;br&gt;Percentage identity: 81&lt;br&gt;Percentage coverage: 100&lt;br&gt;BLAST bit score: 530&lt;br&gt;E-value: 1.78e-190" locus_tag="BOO69_RS05805" class="clusterblast-orf" id="dummy-1_h1_2_28"  />
</g>
<g id="a1_0029"  >
<polygon points="271,85 276,80 277,80 277,90 276,90 271,85 " style="fill:white; stroke-width:1; stroke:black; " description="&lt;b&gt;BOO69_RS05800&lt;/b&gt;&lt;br&gt;TetR family transcriptional regulator&lt;br&gt;Location: 1189345 - 1188758" locus_tag="BOO69_RS05800" class="clusterblast-orf" id="dummy-1_h1_2_29"  />
</g>
<g id="a1_0030"  >
<polygon points="278,90 281,85 278,80 278,90 " style="fill:white; stroke-width:1; stroke:black; " description="&lt;b&gt;BOO69_RS05795&lt;/b&gt;&lt;br&gt;hypothetical protein&lt;br&gt;Location: 1188680 - 1188390" locus_tag="BOO69_RS05795" class="clusterblast-orf" id="dummy-1_h1_2_30"  />
</g>
<g id="a1_0031"  >
<polygon points="282,90 290,90 295,85 290,80 282,80 282,90 " style="fill:#d81553; stroke-width:1; stroke:black; " description="&lt;b&gt;BOO69_RS05790&lt;/b&gt;&lt;br&gt;homoserine dehydrogenase&lt;br&gt;Location: 1188308 - 1187022&lt;br&gt;&lt;br&gt;&lt;b&gt;BlastP hit with GEJFOEHM_04452&lt;/b&gt;&lt;br&gt;Percentage identity: 69&lt;br&gt;Percentage coverage: 100&lt;br&gt;BLAST bit score: 572&lt;br&gt;E-value: 5.75e-203" locus_tag="BOO69_RS05790" class="clusterblast-orf" id="dummy-1_h1_2_31"  />
</g>
<g id="a1_0032"  >
<polygon points="297,90 303,90 308,85 303,80 297,80 297,90 " style="fill:white; stroke-width:1; stroke:black; " description="&lt;b&gt;BOO69_RS05785&lt;/b&gt;&lt;br&gt;hypothetical protein&lt;br&gt;Location: 1186812 - 1185772" locus_tag="BOO69_RS05785" class="clusterblast-orf" id="dummy-1_h1_2_32"  />
</g>
<g id="a1_0033"  >
<polygon points="308,90 309,90 314,85 309,80 308,80 308,90 " style="fill:white; stroke-width:1; stroke:black; " description="&lt;b&gt;BOO69_RS05780&lt;/b&gt;&lt;br&gt;hypothetical protein&lt;br&gt;Location: 1185766 - 1185116" locus_tag="BOO69_RS05780" class="clusterblast-orf" id="dummy-1_h1_2_33"  />
</g>
<g id="a1_0034"  >
<polygon points="316,90 320,90 325,85 320,80 316,80 316,90 " style="fill:#a5d815; stroke-width:1; stroke:black; " description="&lt;b&gt;BOO69_RS05775&lt;/b&gt;&lt;br&gt;class II fructose-bisphosphatase&lt;br&gt;Location: 1184997 - 1184029&lt;br&gt;&lt;br&gt;&lt;b&gt;BlastP hit with GEJFOEHM_04453&lt;/b&gt;&lt;br&gt;Percentage identity: 81&lt;br&gt;Percentage coverage: 100&lt;br&gt;BLAST bit score: 518&lt;br&gt;E-value: 3.7e-185" locus_tag="BOO69_RS05775" class="clusterblast-orf" id="dummy-1_h1_2_34"  />
</g>
<g id="a1_0035"  >
<polygon points="326,90 339,90 344,85 339,80 326,80 326,90 " style="fill:#15d8b9; stroke-width:1; stroke:black; " description="&lt;b&gt;BOO69_RS05770&lt;/b&gt;&lt;br&gt;single-stranded-DNA-specific exonuclease RecJ&lt;br&gt;Location: 1183969 - 1182230&lt;br&gt;&lt;br&gt;&lt;b&gt;BlastP hit with GEJFOEHM_04455&lt;/b&gt;&lt;br&gt;Percentage identity: 70&lt;br&gt;Percentage coverage: 98&lt;br&gt;BLAST bit score: 789&lt;br&gt;E-value: 7.5e-284" locus_tag="BOO69_RS05770" class="clusterblast-orf" id="dummy-1_h1_2_35"  />
</g>
<g id="a1_0036"  >
<polygon points="350,90 353,90 358,85 353,80 350,80 350,90 " style="fill:white; stroke-width:1; stroke:black; " description="&lt;b&gt;BOO69_RS05760&lt;/b&gt;&lt;br&gt;sugar transferase&lt;br&gt;Location: 1181598 - 1180849" locus_tag="BOO69_RS05760" class="clusterblast-orf" id="dummy-1_h1_2_36"  />
</g>
<g id="a1_0037"  >
<polygon points="358,90 363,90 368,85 363,80 358,80 358,90 " style="fill:#157cd8; stroke-width:1; stroke:black; " description="&lt;b&gt;BOO69_RS05755&lt;/b&gt;&lt;br&gt;CpsD/CapB family tyrosine-protein kinase&lt;br&gt;Location: 1180771 - 1179785&lt;br&gt;&lt;br&gt;&lt;b&gt;BlastP hit with GEJFOEHM_04435&lt;/b&gt;&lt;br&gt;Percentage identity: 36&lt;br&gt;Percentage coverage: 77&lt;br&gt;BLAST bit score: 134&lt;br&gt;E-value: 5.65e-35" locus_tag="BOO69_RS05755" class="clusterblast-orf" id="dummy-1_h1_2_37"  />
</g>
<g id="a1_0038"  >
<polygon points="370,90 378,90 383,85 378,80 370,80 370,90 " style="fill:#d815ce; stroke-width:1; stroke:black; " description="&lt;b&gt;BOO69_RS05750&lt;/b&gt;&lt;br&gt;DUF874 domain-containing protein&lt;br&gt;Location: 1179669 - 1178359&lt;br&gt;&lt;br&gt;&lt;b&gt;BlastP hit with GEJFOEHM_04436&lt;/b&gt;&lt;br&gt;Percentage identity: 32&lt;br&gt;Percentage coverage: 94&lt;br&gt;BLAST bit score: 164&lt;br&gt;E-value: 3.7e-44" locus_tag="BOO69_RS05750" class="clusterblast-orf" id="dummy-1_h1_2_38"  />
</g>
<g id="a1_0039"  >
<polygon points="383,85 388,80 396,80 396,90 388,90 383,85 " style="fill:white; stroke-width:1; stroke:black; " description="&lt;b&gt;BOO69_RS05745&lt;/b&gt;&lt;br&gt;oligosaccharide flippase family protein&lt;br&gt;Location: 1178332 - 1177028" locus_tag="BOO69_RS05745" class="clusterblast-orf" id="dummy-1_h1_2_39"  />
</g>
<g id="a1_0040"  >
<polygon points="398,90 405,90 410,85 405,80 398,80 398,90 " style="fill:white; stroke-width:1; stroke:black; " description="&lt;b&gt;BOO69_RS05740&lt;/b&gt;&lt;br&gt;glycosyltransferase&lt;br&gt;Location: 1176876 - 1175680" locus_tag="BOO69_RS05740" class="clusterblast-orf" id="dummy-1_h1_2_40"  />
</g>
<g id="a1_0041"  >
<polygon points="410,85 415,80 419,80 419,90 415,90 410,85 " style="fill:white; stroke-width:1; stroke:black; " description="&lt;b&gt;BOO69_RS05735&lt;/b&gt;&lt;br&gt;glycosyltransferase family 2 protein&lt;br&gt;Location: 1175683 - 1174829" locus_tag="BOO69_RS05735" class="clusterblast-orf" id="dummy-1_h1_2_41"  />
</g>
<g id="a1_0042"  >
<polygon points="418,85 423,80 444,80 444,90 423,90 418,85 " style="fill:white; stroke-width:1; stroke:black; " description="&lt;b&gt;BOO69_RS05730&lt;/b&gt;&lt;br&gt;hypothetical protein&lt;br&gt;Location: 1174856 - 1172319" locus_tag="BOO69_RS05730" class="clusterblast-orf" id="dummy-1_h1_2_42"  />
</g>
<g id="a1_0043"  >
<polygon points="444,85 449,80 453,80 453,90 449,90 444,85 " style="fill:white; stroke-width:1; stroke:black; " description="&lt;b&gt;BOO69_RS05725&lt;/b&gt;&lt;br&gt;hypothetical protein&lt;br&gt;Location: 1172322 - 1171444" locus_tag="BOO69_RS05725" class="clusterblast-orf" id="dummy-1_h1_2_43"  />
</g>
<g id="a1_0044"  >
<polygon points="454,85 459,80 461,80 461,90 459,90 454,85 " style="fill:#d8ce15; stroke-width:1; stroke:black; " description="&lt;b&gt;BOO69_RS05720&lt;/b&gt;&lt;br&gt;4'-phosphopantetheinyl transferase superfamily protein&lt;br&gt;Location: 1171361 - 1170684&lt;br&gt;&lt;br&gt;&lt;b&gt;BlastP hit with GEJFOEHM_04441&lt;/b&gt;&lt;br&gt;Percentage identity: 41&lt;br&gt;Percentage coverage: 95&lt;br&gt;BLAST bit score: 155&lt;br&gt;E-value: 2.78e-45" locus_tag="BOO69_RS05720" class="clusterblast-orf" id="dummy-1_h1_2_44"  />
</g>
<g id="a1_0045"  >
<polygon points="461,85 466,80 508,80 508,90 466,90 461,85 " style="fill:#d81590; stroke-width:1; stroke:black; " description="&lt;b&gt;BOO69_RS05715&lt;/b&gt;&lt;br&gt;LLM class flavin-dependent oxidoreductase&lt;br&gt;Location: 1170691 - 1166072&lt;br&gt;&lt;br&gt;&lt;b&gt;BlastP hit with GEJFOEHM_04440&lt;/b&gt;&lt;br&gt;Percentage identity: 54&lt;br&gt;Percentage coverage: 103&lt;br&gt;BLAST bit score: 1553&lt;br&gt;E-value: 0.0" locus_tag="BOO69_RS05715" class="clusterblast-orf" id="dummy-1_h1_2_45"  />
</g>
<g id="a1_0046"  >
<polygon points="508,85 513,80 518,80 518,90 513,90 508,85 " style="fill:#153ed8; stroke-width:1; stroke:black; " description="&lt;b&gt;BOO69_RS05710&lt;/b&gt;&lt;br&gt;glycosyltransferase family 2 protein&lt;br&gt;Location: 1166075 - 1165083&lt;br&gt;&lt;br&gt;&lt;b&gt;BlastP hit with GEJFOEHM_04439&lt;/b&gt;&lt;br&gt;Percentage identity: 48&lt;br&gt;Percentage coverage: 93&lt;br&gt;BLAST bit score: 272&lt;br&gt;E-value: 4.02e-88" locus_tag="BOO69_RS05710" class="clusterblast-orf" id="dummy-1_h1_2_46"  />
</g>
<g id="a1_0047"  >
<polygon points="518,85 523,80 583,80 583,90 523,90 518,85 " style="fill:#15d83e; stroke-width:1; stroke:black; " description="&lt;b&gt;BOO69_RS05705&lt;/b&gt;&lt;br&gt;type I polyketide synthase&lt;br&gt;Location: 1165083 - 1158634&lt;br&gt;&lt;br&gt;&lt;b&gt;BlastP hit with GEJFOEHM_04438&lt;/b&gt;&lt;br&gt;Percentage identity: 58&lt;br&gt;Percentage coverage: 101&lt;br&gt;BLAST bit score: 2355&lt;br&gt;E-value: 0.0" locus_tag="BOO69_RS05705" class="clusterblast-orf" id="dummy-1_h1_2_47"  />
</g>
<g id="a1_0048"  >
<polygon points="586,85 591,80 600,80 600,90 591,90 586,85 " style="fill:#d89015; stroke-width:1; stroke:black; " description="&lt;b&gt;BOO69_RS05700&lt;/b&gt;&lt;br&gt;hypothetical protein&lt;br&gt;Location: 1158376 - 1156919&lt;br&gt;&lt;br&gt;&lt;b&gt;BlastP hit with GEJFOEHM_04437&lt;/b&gt;&lt;br&gt;Percentage identity: 48&lt;br&gt;Percentage coverage: 92&lt;br&gt;BLAST bit score: 389&lt;br&gt;E-value: 2.82e-129" locus_tag="BOO69_RS05700" class="clusterblast-orf" id="dummy-1_h1_2_48"  />
</g>
<g id="a1_0049"  >
<polygon points="603,90 605,90 610,85 605,80 603,80 603,90 " style="fill:white; stroke-width:1; stroke:black; " description="&lt;b&gt;BOO69_RS05695&lt;/b&gt;&lt;br&gt;WecB/TagA/CpsF family glycosyltransferase&lt;br&gt;Location: 1156713 - 1155967" locus_tag="BOO69_RS05695" class="clusterblast-orf" id="dummy-1_h1_2_49"  />
</g>
<g id="a1_0050"  >
<polygon points="610,85 615,80 620,80 620,90 615,90 610,85 " style="fill:white; stroke-width:1; stroke:black; " description="&lt;b&gt;BOO69_RS05690&lt;/b&gt;&lt;br&gt;glycosyltransferase&lt;br&gt;Location: 1155961 - 1155026" locus_tag="BOO69_RS05690" class="clusterblast-orf" id="dummy-1_h1_2_50"  />
</g>
<g id="a1_0051"  >
<polygon points="620,85 625,80 630,80 630,90 625,90 620,85 " style="fill:white; stroke-width:1; stroke:black; " description="&lt;b&gt;BOO69_RS05685&lt;/b&gt;&lt;br&gt;glycosyltransferase family 2 protein&lt;br&gt;Location: 1155029 - 1153986" locus_tag="BOO69_RS05685" class="clusterblast-orf" id="dummy-1_h1_2_51"  />
</g>
<g id="a1_0052"  >
<polygon points="631,85 636,80 642,80 642,90 636,90 631,85 " style="fill:white; stroke-width:1; stroke:black; " description="&lt;b&gt;BOO69_RS05680&lt;/b&gt;&lt;br&gt;GGDEF domain-containing protein&lt;br&gt;Location: 1153908 - 1152874" locus_tag="BOO69_RS05680" class="clusterblast-orf" id="dummy-1_h1_2_52"  />
</g>
<g id="a1_0053"  >
<polygon points="642,85 647,80 647,80 647,90 647,90 642,85 " style="fill:white; stroke-width:1; stroke:black; " description="&lt;b&gt;BOO69_RS05675&lt;/b&gt;&lt;br&gt;heme NO-binding domain-containing protein&lt;br&gt;Location: 1152877 - 1152290" locus_tag="BOO69_RS05675" class="clusterblast-orf" id="dummy-1_h1_2_53"  />
</g>
<g id="a1_0054"  >
<polygon points="649,85 654,80 664,80 664,90 654,90 649,85 " style="fill:white; stroke-width:1; stroke:black; " description="&lt;b&gt;BOO69_RS05670&lt;/b&gt;&lt;br&gt;trimethylamine methyltransferase family protein&lt;br&gt;Location: 1152187 - 1150625" locus_tag="BOO69_RS05670" class="clusterblast-orf" id="dummy-1_h1_2_54"  />
</g>
<g id="a1_0055"  >
<polygon points="665,85 670,80 672,80 672,90 670,90 665,85 " style="fill:white; stroke-width:1; stroke:black; " description="&lt;b&gt;BOO69_RS05665&lt;/b&gt;&lt;br&gt;HAD-IA family hydrolase&lt;br&gt;Location: 1150533 - 1149823" locus_tag="BOO69_RS05665" class="clusterblast-orf" id="dummy-1_h1_2_55"  />
</g>
<g id="a1_0056"  >
<polygon points="672,85 675,80 675,90 672,85 " style="fill:white; stroke-width:1; stroke:black; " description="&lt;b&gt;BOO69_RS05660&lt;/b&gt;&lt;br&gt;DUF3572 domain-containing protein&lt;br&gt;Location: 1149826 - 1149542" locus_tag="BOO69_RS05660" class="clusterblast-orf" id="dummy-1_h1_2_56"  />
</g>
<g id="a1_0057"  >
<polygon points="676,90 686,90 691,85 686,80 676,80 676,90 " style="fill:white; stroke-width:1; stroke:black; " description="&lt;b&gt;BOO69_RS05655&lt;/b&gt;&lt;br&gt;diguanylate cyclase&lt;br&gt;Location: 1149441 - 1148020" locus_tag="BOO69_RS05655" class="clusterblast-orf" id="dummy-1_h1_2_57"  />
</g>
<g id="a1_0058"  >
<polygon points="691,90 696,90 701,85 696,80 691,80 691,90 " style="fill:white; stroke-width:1; stroke:black; " description="&lt;b&gt;BOO69_RS05650&lt;/b&gt;&lt;br&gt;DMT family transporter&lt;br&gt;Location: 1147978 - 1147055" locus_tag="BOO69_RS05650" class="clusterblast-orf" id="dummy-1_h1_2_58"  />
</g>
<g id="a1_0059"  >
<polygon points="700,85 705,80 707,80 707,90 705,90 700,85 " style="fill:white; stroke-width:1; stroke:black; " description="&lt;b&gt;BOO69_RS05645&lt;/b&gt;&lt;br&gt;thiamine diphosphokinase&lt;br&gt;Location: 1147119 - 1146406" locus_tag="BOO69_RS05645" class="clusterblast-orf" id="dummy-1_h1_2_59"  />
</g>
<g id="a1_0060"  >
<polygon points="709,90 728,90 733,85 728,80 709,80 709,90 " style="fill:white; stroke-width:1; stroke:black; " description="&lt;b&gt;BOO69_RS05640&lt;/b&gt;&lt;br&gt;hypothetical protein&lt;br&gt;Location: 1146267 - 1143904" locus_tag="BOO69_RS05640" class="clusterblast-orf" id="dummy-1_h1_2_60"  />
</g>
<g id="a1_0061"  >
<polygon points="734,85 736,80 736,90 734,85 " style="fill:white; stroke-width:1; stroke:black; " description="&lt;b&gt;BOO69_RS05635&lt;/b&gt;&lt;br&gt;DUF2842 domain-containing protein&lt;br&gt;Location: 1143801 - 1143577" locus_tag="BOO69_RS05635" class="clusterblast-orf" id="dummy-1_h1_2_61"  />
</g>
<g id="a1_0062"  >
<polygon points="736,85 741,80 749,80 749,90 741,90 736,85 " style="fill:white; stroke-width:1; stroke:black; " description="&lt;b&gt;BOO69_RS05630&lt;/b&gt;&lt;br&gt;adenylosuccinate synthase&lt;br&gt;Location: 1143567 - 1142275" locus_tag="BOO69_RS05630" class="clusterblast-orf" id="dummy-1_h1_2_62"  />
</g>
<g id="a1_0063"  >
<polygon points="751,90 755,85 751,80 751,90 " style="fill:white; stroke-width:1; stroke:black; " description="&lt;b&gt;BOO69_RS05625&lt;/b&gt;&lt;br&gt;hypothetical protein&lt;br&gt;Location: 1142105 - 1141710" locus_tag="BOO69_RS05625" class="clusterblast-orf" id="dummy-1_h1_2_63"  />
</g>
<g id="a1_0064"  >
<polygon points="755,85 758,80 758,90 755,85 " style="fill:white; stroke-width:1; stroke:black; " description="&lt;b&gt;BOO69_RS05620&lt;/b&gt;&lt;br&gt;nitrile hydratase accessory protein&lt;br&gt;Location: 1141682 - 1141359" locus_tag="BOO69_RS05620" class="clusterblast-orf" id="dummy-1_h1_2_64"  />
</g>
<g id="a1_0065"  >
<polygon points="758,85 763,80 765,80 765,90 763,90 758,85 " style="fill:white; stroke-width:1; stroke:black; " description="&lt;b&gt;BOO69_RS05615&lt;/b&gt;&lt;br&gt;nitrile hydratase subunit beta&lt;br&gt;Location: 1141362 - 1140685" locus_tag="BOO69_RS05615" class="clusterblast-orf" id="dummy-1_h1_2_65"  />
</g>
<g id="a1_0066"  >
<polygon points="766,85 771,80 772,80 772,90 771,90 766,85 " style="fill:white; stroke-width:1; stroke:black; " description="&lt;b&gt;BOO69_RS05610&lt;/b&gt;&lt;br&gt;nitrile hydratase subunit alpha&lt;br&gt;Location: 1140617 - 1140003" locus_tag="BOO69_RS05610" class="clusterblast-orf" id="dummy-1_h1_2_66"  />
</g>
<g id="a1_0067"  >
<polygon points="776,90 780,85 776,80 776,90 " style="fill:white; stroke-width:1; stroke:black; " description="&lt;b&gt;BOO69_RS05605&lt;/b&gt;&lt;br&gt;preprotein translocase subunit SecG&lt;br&gt;Location: 1139639 - 1139280" locus_tag="BOO69_RS05605" class="clusterblast-orf" id="dummy-1_h1_2_67"  />
</g>
</svg>
