<svg xmlns="http://www.w3.org/2000/svg" xmlns:xlink="http://www.w3.org/1999/xlink" version="1.1" x="0" y="0" height="230" width="800" viewBox="0 0 800 230" preserveAspectRatio="none"  >
<g label="Query sequence" class="clusterblast-cluster"  >
<text x="5" y="20" class="clusterblast-acc"  >
Query sequence</text>
<line x1="10" y1="35" x2="778.0" y2="35" style="stroke-width:1; stroke:grey; "  />
<polygon points="16,40 16,40 21,35 16,30 16,30 16,40 " style="fill:white; stroke-width:1; stroke:black; " description="&lt;b&gt;GEJFOEHM_04420&lt;/b&gt;&lt;br&gt;Nitrogen regulatory protein P-II&lt;br&gt;Location: 26390 - 26747" locus_tag="GEJFOEHM_04420" class="clusterblast-orf" id="dummy-1_q0_0_all"  />
<polygon points="22,40 38,40 43,35 38,30 22,30 22,40 " style="fill:white; stroke-width:1; stroke:black; " description="&lt;b&gt;GEJFOEHM_04421&lt;/b&gt;&lt;br&gt;Ammonium transporter&lt;br&gt;Location: 26788 - 28144" locus_tag="GEJFOEHM_04421" class="clusterblast-orf" id="dummy-1_q1_0_all"  />
<polygon points="48,35 53,30 84,30 84,40 53,40 48,35 " style="fill:white; stroke-width:1; stroke:black; " description="&lt;b&gt;GEJFOEHM_04423&lt;/b&gt;&lt;br&gt;Lon protease&lt;br&gt;Location: 28451 - 30857" locus_tag="GEJFOEHM_04423" class="clusterblast-orf" id="dummy-1_q2_0_all"  />
<polygon points="90,35 95,30 95,30 95,40 95,40 90,35 " style="fill:#d81515; stroke-width:1; stroke:black; " description="&lt;b&gt;GEJFOEHM_04424&lt;/b&gt;&lt;br&gt;hypothetical protein&lt;br&gt;Location: 31213 - 31555" locus_tag="GEJFOEHM_04424" class="clusterblast-orf" id="dummy-1_q3_0_all"  />
<polygon points="97,35 102,30 115,30 115,40 102,40 97,35 " style="fill:#67d815; stroke-width:1; stroke:black; " description="&lt;b&gt;GEJFOEHM_04425&lt;/b&gt;&lt;br&gt;Tn3 family transposase TnXax1&lt;br&gt;Location: 31683 - 32862" locus_tag="GEJFOEHM_04425" class="clusterblast-orf" id="dummy-1_q4_0_all"  />
<polygon points="117,35 122,30 132,30 132,40 122,40 117,35 " style="fill:#15b9d8; stroke-width:1; stroke:black; " description="&lt;b&gt;GEJFOEHM_04426&lt;/b&gt;&lt;br&gt;Glutathionyl-hydroquinone reductase YqjG&lt;br&gt;Location: 32949 - 33930" locus_tag="GEJFOEHM_04426" class="clusterblast-orf" id="dummy-1_q5_0_all"  />
<polygon points="133,35 138,30 151,30 151,40 138,40 133,35 " style="fill:#a515d8; stroke-width:1; stroke:black; " description="&lt;b&gt;GEJFOEHM_04427&lt;/b&gt;&lt;br&gt;Cystathionine beta-lyase PatB&lt;br&gt;Location: 34019 - 35192" locus_tag="GEJFOEHM_04427" class="clusterblast-orf" id="dummy-1_q6_0_all"  />
<polygon points="152,40 156,40 161,35 156,30 152,30 152,40 " style="fill:#d85315; stroke-width:1; stroke:black; " description="&lt;b&gt;GEJFOEHM_04428&lt;/b&gt;&lt;br&gt;Peptide deformylase&lt;br&gt;Location: 35257 - 35815" locus_tag="GEJFOEHM_04428" class="clusterblast-orf" id="dummy-1_q7_0_all"  />
<polygon points="161,40 163,40 168,35 163,30 161,30 161,40 " style="fill:#d85315; stroke-width:1; stroke:black; " description="&lt;b&gt;GEJFOEHM_04429&lt;/b&gt;&lt;br&gt;Peptide deformylase 1&lt;br&gt;Location: 35811 - 36306" locus_tag="GEJFOEHM_04429" class="clusterblast-orf" id="dummy-1_q8_0_all"  />
<polygon points="168,40 177,40 182,35 177,30 168,30 168,40 " style="fill:#2ad815; stroke-width:1; stroke:black; " description="&lt;b&gt;GEJFOEHM_04430&lt;/b&gt;&lt;br&gt;Methionyl-tRNA formyltransferase&lt;br&gt;Location: 36305 - 37208" locus_tag="GEJFOEHM_04430" class="clusterblast-orf" id="dummy-1_q9_0_all"  />
<polygon points="186,35 191,30 197,30 197,40 191,40 186,35 " style="fill:white; stroke-width:1; stroke:black; " description="&lt;b&gt;GEJFOEHM_04431&lt;/b&gt;&lt;br&gt;tRNA (guanine-N(7)-)-methyltransferase&lt;br&gt;Location: 37446 - 38178" locus_tag="GEJFOEHM_04431" class="clusterblast-orf" id="dummy-1_q10_0_all"  />
<polygon points="200,40 201,40 206,35 201,30 200,30 200,40 " style="fill:white; stroke-width:1; stroke:black; " description="&lt;b&gt;GEJFOEHM_04432&lt;/b&gt;&lt;br&gt;FKBP-type peptidyl-prolyl cis-trans isomerase SlyD&lt;br&gt;Location: 38372 - 38801" locus_tag="GEJFOEHM_04432" class="clusterblast-orf" id="dummy-1_q11_0_all"  />
<polygon points="208,35 213,30 223,30 223,40 213,40 208,35 " style="fill:white; stroke-width:1; stroke:black; " description="&lt;b&gt;GEJFOEHM_04433&lt;/b&gt;&lt;br&gt;hypothetical protein&lt;br&gt;Location: 38881 - 39910" locus_tag="GEJFOEHM_04433" class="clusterblast-orf" id="dummy-1_q12_0_all"  />
<polygon points="228,40 232,35 228,30 228,40 " style="fill:white; stroke-width:1; stroke:black; " description="&lt;b&gt;GEJFOEHM_04434&lt;/b&gt;&lt;br&gt;30S ribosomal protein S15&lt;br&gt;Location: 40177 - 40447" locus_tag="GEJFOEHM_04434" class="clusterblast-orf" id="dummy-1_q13_0_all"  />
<polygon points="235,40 244,40 249,35 244,30 235,30 235,40 " style="fill:#157cd8; stroke-width:1; stroke:black; " description="&lt;b&gt;GEJFOEHM_04435&lt;/b&gt;&lt;br&gt;hypothetical protein&lt;br&gt;Location: 40676 - 41558" locus_tag="GEJFOEHM_04435" class="clusterblast-orf" id="dummy-1_q14_0_all"  />
<polygon points="249,40 264,40 269,35 264,30 249,30 249,40 " style="fill:#d815ce; stroke-width:1; stroke:black; " description="&lt;b&gt;GEJFOEHM_04436&lt;/b&gt;&lt;br&gt;hypothetical protein&lt;br&gt;Location: 41560 - 42847" locus_tag="GEJFOEHM_04436" class="clusterblast-orf" id="dummy-1_q15_0_all"  />
<polygon points="269,40 287,40 292,35 287,30 269,30 269,40 " style="fill:#d89015; stroke-width:1; stroke:black; " description="&lt;b&gt;GEJFOEHM_04437&lt;/b&gt;&lt;br&gt;hypothetical protein&lt;br&gt;Location: 42865 - 44350" locus_tag="GEJFOEHM_04437" class="clusterblast-orf" id="dummy-1_q16_0_all"  />
<polygon points="292,40 385,40 390,35 385,30 292,30 292,40 " style="fill:#15d83e; stroke-width:1; stroke:black; " description="&lt;b&gt;GEJFOEHM_04438&lt;/b&gt;&lt;br&gt;hypothetical protein&lt;br&gt;Location: 44389 - 50737" locus_tag="GEJFOEHM_04438" class="clusterblast-orf" id="dummy-1_q17_0_all"  />
<polygon points="390,40 400,40 405,35 400,30 390,30 390,40 " style="fill:#153ed8; stroke-width:1; stroke:black; " description="&lt;b&gt;GEJFOEHM_04439&lt;/b&gt;&lt;br&gt;hypothetical protein&lt;br&gt;Location: 50742 - 51714" locus_tag="GEJFOEHM_04439" class="clusterblast-orf" id="dummy-1_q18_0_all"  />
<polygon points="405,40 470,40 475,35 470,30 405,30 405,40 " style="fill:#d81590; stroke-width:1; stroke:black; " description="&lt;b&gt;GEJFOEHM_04440&lt;/b&gt;&lt;br&gt;D-alanine--D-alanyl carrier protein ligase&lt;br&gt;Location: 51737 - 56264" locus_tag="GEJFOEHM_04440" class="clusterblast-orf" id="dummy-1_q19_0_all"  />
<polygon points="474,40 480,40 485,35 480,30 474,30 474,40 " style="fill:#d8ce15; stroke-width:1; stroke:black; " description="&lt;b&gt;GEJFOEHM_04441&lt;/b&gt;&lt;br&gt;hypothetical protein&lt;br&gt;Location: 56260 - 56941" locus_tag="GEJFOEHM_04441" class="clusterblast-orf" id="dummy-1_q20_0_all"  />
<polygon points="489,40 489,40 494,35 489,30 489,30 489,40 " style="fill:white; stroke-width:1; stroke:black; " description="&lt;b&gt;GEJFOEHM_04442&lt;/b&gt;&lt;br&gt;hypothetical protein&lt;br&gt;Location: 57212 - 57530" locus_tag="GEJFOEHM_04442" class="clusterblast-orf" id="dummy-1_q21_0_all"  />
<polygon points="496,35 498,30 498,40 496,35 " style="fill:white; stroke-width:1; stroke:black; " description="&lt;b&gt;GEJFOEHM_04443&lt;/b&gt;&lt;br&gt;hypothetical protein&lt;br&gt;Location: 57672 - 57762" locus_tag="GEJFOEHM_04443" class="clusterblast-orf" id="dummy-1_q22_0_all"  />
<polygon points="499,40 499,40 504,35 499,30 499,30 499,40 " style="fill:white; stroke-width:1; stroke:black; " description="&lt;b&gt;GEJFOEHM_04444&lt;/b&gt;&lt;br&gt;hypothetical protein&lt;br&gt;Location: 57839 - 58217" locus_tag="GEJFOEHM_04444" class="clusterblast-orf" id="dummy-1_q23_0_all"  />
<polygon points="510,40 519,40 524,35 519,30 510,30 510,40 " style="fill:#15d87c; stroke-width:1; stroke:black; " description="&lt;b&gt;GEJFOEHM_04445&lt;/b&gt;&lt;br&gt;hypothetical protein&lt;br&gt;Location: 58565 - 59477" locus_tag="GEJFOEHM_04445" class="clusterblast-orf" id="dummy-1_q24_0_all"  />
<polygon points="525,40 531,40 536,35 531,30 525,30 525,40 " style="fill:white; stroke-width:1; stroke:black; " description="&lt;b&gt;GEJFOEHM_04446&lt;/b&gt;&lt;br&gt;tRNA-modifying protein YgfZ&lt;br&gt;Location: 59525 - 60287" locus_tag="GEJFOEHM_04446" class="clusterblast-orf" id="dummy-1_q25_0_all"  />
<polygon points="537,40 547,40 552,35 547,30 537,30 537,40 " style="fill:white; stroke-width:1; stroke:black; " description="&lt;b&gt;GEJFOEHM_04447&lt;/b&gt;&lt;br&gt;hypothetical protein&lt;br&gt;Location: 60351 - 61341" locus_tag="GEJFOEHM_04447" class="clusterblast-orf" id="dummy-1_q26_0_all"  />
<polygon points="554,40 566,40 571,35 566,30 554,30 554,40 " style="fill:white; stroke-width:1; stroke:black; " description="&lt;b&gt;GEJFOEHM_04448&lt;/b&gt;&lt;br&gt;Histidinol-phosphate aminotransferase&lt;br&gt;Location: 61459 - 62548" locus_tag="GEJFOEHM_04448" class="clusterblast-orf" id="dummy-1_q27_0_all"  />
<polygon points="571,40 580,40 585,35 580,30 571,30 571,40 " style="fill:white; stroke-width:1; stroke:black; " description="&lt;b&gt;GEJFOEHM_04449&lt;/b&gt;&lt;br&gt;Cyclohexadienyl dehydrogenase&lt;br&gt;Location: 62544 - 63459" locus_tag="GEJFOEHM_04449" class="clusterblast-orf" id="dummy-1_q28_0_all"  />
<polygon points="587,40 600,40 605,35 600,30 587,30 587,40 " style="fill:white; stroke-width:1; stroke:black; " description="&lt;b&gt;GEJFOEHM_04450&lt;/b&gt;&lt;br&gt;Acetylornithine deacetylase&lt;br&gt;Location: 63573 - 64752" locus_tag="GEJFOEHM_04450" class="clusterblast-orf" id="dummy-1_q29_0_all"  />
<polygon points="607,40 664,40 669,35 664,30 607,30 607,40 " style="fill:#2a15d8; stroke-width:1; stroke:black; " description="&lt;b&gt;GEJFOEHM_04451&lt;/b&gt;&lt;br&gt;Sensor histidine kinase RcsC&lt;br&gt;Location: 64902 - 68958" locus_tag="GEJFOEHM_04451" class="clusterblast-orf" id="dummy-1_q30_0_all"  />
<polygon points="671,40 686,40 691,35 686,30 671,30 671,40 " style="fill:#d81553; stroke-width:1; stroke:black; " description="&lt;b&gt;GEJFOEHM_04452&lt;/b&gt;&lt;br&gt;Homoserine dehydrogenase&lt;br&gt;Location: 69079 - 70366" locus_tag="GEJFOEHM_04452" class="clusterblast-orf" id="dummy-1_q31_0_all"  />
<polygon points="693,40 703,40 708,35 703,30 693,30 693,40 " style="fill:#a5d815; stroke-width:1; stroke:black; " description="&lt;b&gt;GEJFOEHM_04453&lt;/b&gt;&lt;br&gt;Fructose-1,6-bisphosphatase class 2&lt;br&gt;Location: 70482 - 71445" locus_tag="GEJFOEHM_04453" class="clusterblast-orf" id="dummy-1_q32_0_all"  />
<polygon points="708,40 712,40 717,35 712,30 708,30 708,40 " style="fill:white; stroke-width:1; stroke:black; " description="&lt;b&gt;GEJFOEHM_04454&lt;/b&gt;&lt;br&gt;Isochorismatase family protein YecD&lt;br&gt;Location: 71494 - 72061" locus_tag="GEJFOEHM_04454" class="clusterblast-orf" id="dummy-1_q33_0_all"  />
<polygon points="717,40 739,40 744,35 739,30 717,30 717,40 " style="fill:#15d8b9; stroke-width:1; stroke:black; " description="&lt;b&gt;GEJFOEHM_04455&lt;/b&gt;&lt;br&gt;Single-stranded-DNA-specific exonuclease RecJ&lt;br&gt;Location: 72053 - 73814" locus_tag="GEJFOEHM_04455" class="clusterblast-orf" id="dummy-1_q34_0_all"  />
<polygon points="750,40 758,40 763,35 758,30 750,30 750,40 " style="fill:#6715d8; stroke-width:1; stroke:black; " description="&lt;b&gt;GEJFOEHM_04457&lt;/b&gt;&lt;br&gt;hypothetical protein&lt;br&gt;Location: 74180 - 75083" locus_tag="GEJFOEHM_04457" class="clusterblast-orf" id="dummy-1_q35_0_all"  />
</g>
<g label="NZ_CP022303" description="NZ_CP022303 (2428846-2480268): Thalassococcus sp. S3 chromosome, complete genome (18% of genes show similarity), NRPS-like,T1PKS" class="clusterblast-cluster"  >
<text x="5" y="70" class="clusterblast-acc"  >
<a xlink:href="https://antismash-db.secondarymetabolites.org/area.html?record=NZ_CP022303&amp;start=2428846&amp;end=2480268" target="_blank">NZ_CP022303 (2428846-2480268)</a>: Thalassococcus sp. S3 chromosome, complete genome (18% of genes show similarity), NRPS-like,T1PKS</text>
<line x1="10" y1="85" x2="778.0" y2="85" style="stroke-width:1; stroke:grey; "  />
</g>
<g id="a1_000"  >
<polygon points="0,90 10,90 15,85 10,80 0,80 0,90 " style="fill:white; stroke-width:1; stroke:black; " description="&lt;b&gt;CFI11_RS12100&lt;/b&gt;&lt;br&gt;Hint domain-containing protein&lt;br&gt;Location: 2429460 - 2430473" locus_tag="CFI11_RS12100" class="clusterblast-orf" id="dummy-1_h1_8_0"  />
</g>
<g id="a1_001"  >
<polygon points="15,85 20,80 28,80 28,90 20,90 15,85 " style="fill:white; stroke-width:1; stroke:black; " description="&lt;b&gt;CFI11_RS12105&lt;/b&gt;&lt;br&gt;hypothetical protein&lt;br&gt;Location: 2430486 - 2431316" locus_tag="CFI11_RS12105" class="clusterblast-orf" id="dummy-1_h1_8_1"  />
</g>
<g id="a1_002"  >
<polygon points="28,85 33,80 41,80 41,90 33,90 28,85 " style="fill:white; stroke-width:1; stroke:black; " description="&lt;b&gt;CFI11_RS12110&lt;/b&gt;&lt;br&gt;DUF2059 domain-containing protein&lt;br&gt;Location: 2431318 - 2432166" locus_tag="CFI11_RS12110" class="clusterblast-orf" id="dummy-1_h1_8_2"  />
</g>
<g id="a1_003"  >
<polygon points="50,90 54,90 59,85 54,80 50,80 50,90 " style="fill:white; stroke-width:1; stroke:black; " description="&lt;b&gt;CFI11_RS12120&lt;/b&gt;&lt;br&gt;hypothetical protein&lt;br&gt;Location: 2432762 - 2433313" locus_tag="CFI11_RS12120" class="clusterblast-orf" id="dummy-1_h1_8_3"  />
</g>
<g id="a1_004"  >
<polygon points="62,90 65,85 62,80 62,90 " style="fill:white; stroke-width:1; stroke:black; " description="&lt;b&gt;CFI11_RS12125&lt;/b&gt;&lt;br&gt;YjhX family toxin&lt;br&gt;Location: 2433501 - 2433758" locus_tag="CFI11_RS12125" class="clusterblast-orf" id="dummy-1_h1_8_4"  />
</g>
<g id="a1_005"  >
<polygon points="66,85 71,80 98,80 98,90 71,90 66,85 " style="fill:white; stroke-width:1; stroke:black; " description="&lt;b&gt;CFI11_RS12130&lt;/b&gt;&lt;br&gt;NAD-dependent epimerase/dehydratase family protein&lt;br&gt;Location: 2433809 - 2435905" locus_tag="CFI11_RS12130" class="clusterblast-orf" id="dummy-1_h1_8_5"  />
</g>
<g id="a1_006"  >
<polygon points="99,85 104,80 114,80 114,90 104,90 99,85 " style="fill:white; stroke-width:1; stroke:black; " description="&lt;b&gt;CFI11_RS12135&lt;/b&gt;&lt;br&gt;glycosyltransferase&lt;br&gt;Location: 2435919 - 2436890" locus_tag="CFI11_RS12135" class="clusterblast-orf" id="dummy-1_h1_8_6"  />
</g>
<g id="a1_007"  >
<polygon points="114,85 119,80 132,80 132,90 119,90 114,85 " style="fill:white; stroke-width:1; stroke:black; " description="&lt;b&gt;CFI11_RS12140&lt;/b&gt;&lt;br&gt;glycosyltransferase family 4 protein&lt;br&gt;Location: 2436887 - 2438110" locus_tag="CFI11_RS12140" class="clusterblast-orf" id="dummy-1_h1_8_7"  />
</g>
<g id="a1_008"  >
<polygon points="132,85 137,80 148,80 148,90 137,90 132,85 " style="fill:white; stroke-width:1; stroke:black; " description="&lt;b&gt;CFI11_RS12145&lt;/b&gt;&lt;br&gt;NAD(P)-dependent oxidoreductase&lt;br&gt;Location: 2438107 - 2439102" locus_tag="CFI11_RS12145" class="clusterblast-orf" id="dummy-1_h1_8_8"  />
</g>
<g id="a1_009"  >
<polygon points="147,85 152,80 164,80 164,90 152,90 147,85 " style="fill:white; stroke-width:1; stroke:black; " description="&lt;b&gt;CFI11_RS12150&lt;/b&gt;&lt;br&gt;Gfo/Idh/MocA family oxidoreductase&lt;br&gt;Location: 2439090 - 2440205" locus_tag="CFI11_RS12150" class="clusterblast-orf" id="dummy-1_h1_8_9"  />
</g>
<g id="a1_0010"  >
<polygon points="167,85 172,80 183,80 183,90 172,90 167,85 " style="fill:white; stroke-width:1; stroke:black; " description="&lt;b&gt;CFI11_RS12155&lt;/b&gt;&lt;br&gt;methyltetrahydrofolate cobalamin methyltransferase&lt;br&gt;Location: 2440373 - 2441434" locus_tag="CFI11_RS12155" class="clusterblast-orf" id="dummy-1_h1_8_10"  />
</g>
<g id="a1_0011"  >
<polygon points="183,85 188,80 198,80 198,90 188,90 183,85 " style="fill:white; stroke-width:1; stroke:black; " description="&lt;b&gt;CFI11_RS12160&lt;/b&gt;&lt;br&gt;methylenetetrahydrofolate reductase&lt;br&gt;Location: 2441445 - 2442374" locus_tag="CFI11_RS12160" class="clusterblast-orf" id="dummy-1_h1_8_11"  />
</g>
<g id="a1_0012"  >
<polygon points="198,85 203,80 203,80 203,90 203,90 198,85 " style="fill:white; stroke-width:1; stroke:black; " description="&lt;b&gt;CFI11_RS12165&lt;/b&gt;&lt;br&gt;virulence factor&lt;br&gt;Location: 2442401 - 2442697" locus_tag="CFI11_RS12165" class="clusterblast-orf" id="dummy-1_h1_8_12"  />
</g>
<g id="a1_0013"  >
<polygon points="206,90 218,90 223,85 218,80 206,80 206,90 " style="fill:white; stroke-width:1; stroke:black; " description="&lt;b&gt;CFI11_RS12170&lt;/b&gt;&lt;br&gt;Ppx/GppA family phosphatase&lt;br&gt;Location: 2442928 - 2444040" locus_tag="CFI11_RS12170" class="clusterblast-orf" id="dummy-1_h1_8_13"  />
</g>
<g id="a1_0014"  >
<polygon points="226,90 232,90 237,85 232,80 226,80 226,90 " style="fill:white; stroke-width:1; stroke:black; " description="&lt;b&gt;CFI11_RS12175&lt;/b&gt;&lt;br&gt;RlmE family RNA methyltransferase&lt;br&gt;Location: 2444211 - 2444912" locus_tag="CFI11_RS12175" class="clusterblast-orf" id="dummy-1_h1_8_14"  />
</g>
<g id="a1_0015"  >
<polygon points="242,90 252,90 257,85 252,80 242,80 242,90 " style="fill:white; stroke-width:1; stroke:black; " description="&lt;b&gt;CFI11_RS12180&lt;/b&gt;&lt;br&gt;glycosyltransferase family 2 protein&lt;br&gt;Location: 2445232 - 2446260" locus_tag="CFI11_RS12180" class="clusterblast-orf" id="dummy-1_h1_8_15"  />
</g>
<g id="a1_0016"  >
<polygon points="257,85 262,80 269,80 269,90 262,90 257,85 " style="fill:white; stroke-width:1; stroke:black; " description="&lt;b&gt;CFI11_RS12185&lt;/b&gt;&lt;br&gt;WecB/TagA/CpsF family glycosyltransferase&lt;br&gt;Location: 2446234 - 2446992" locus_tag="CFI11_RS12185" class="clusterblast-orf" id="dummy-1_h1_8_16"  />
</g>
<g id="a1_0017"  >
<polygon points="271,90 288,90 293,85 288,80 271,80 271,90 " style="fill:#d89015; stroke-width:1; stroke:black; " description="&lt;b&gt;CFI11_RS12190&lt;/b&gt;&lt;br&gt;hypothetical protein&lt;br&gt;Location: 2447136 - 2448599&lt;br&gt;&lt;br&gt;&lt;b&gt;BlastP hit with GEJFOEHM_04437&lt;/b&gt;&lt;br&gt;Percentage identity: 46&lt;br&gt;Percentage coverage: 92&lt;br&gt;BLAST bit score: 393&lt;br&gt;E-value: 9.37e-131" locus_tag="CFI11_RS12190" class="clusterblast-orf" id="dummy-1_h1_8_17"  />
</g>
<g id="a1_0018"  >
<polygon points="297,90 391,90 396,85 391,80 297,80 297,90 " style="fill:#15d83e; stroke-width:1; stroke:black; " description="&lt;b&gt;CFI11_RS12195&lt;/b&gt;&lt;br&gt;SDR family NAD(P)-dependent oxidoreductase&lt;br&gt;Location: 2448847 - 2455284&lt;br&gt;&lt;br&gt;&lt;b&gt;BlastP hit with GEJFOEHM_04438&lt;/b&gt;&lt;br&gt;Percentage identity: 60&lt;br&gt;Percentage coverage: 101&lt;br&gt;BLAST bit score: 2484&lt;br&gt;E-value: 0.0" locus_tag="CFI11_RS12195" class="clusterblast-orf" id="dummy-1_h1_8_18"  />
</g>
<g id="a1_0019"  >
<polygon points="396,90 406,90 411,85 406,80 396,80 396,90 " style="fill:#153ed8; stroke-width:1; stroke:black; " description="&lt;b&gt;CFI11_RS12200&lt;/b&gt;&lt;br&gt;glycosyltransferase family 2 protein&lt;br&gt;Location: 2455290 - 2456291&lt;br&gt;&lt;br&gt;&lt;b&gt;BlastP hit with GEJFOEHM_04439&lt;/b&gt;&lt;br&gt;Percentage identity: 53&lt;br&gt;Percentage coverage: 98&lt;br&gt;BLAST bit score: 330&lt;br&gt;E-value: 9.06e-111" locus_tag="CFI11_RS12200" class="clusterblast-orf" id="dummy-1_h1_8_19"  />
</g>
<g id="a1_0020"  >
<polygon points="411,90 477,90 482,85 477,80 411,80 411,90 " style="fill:#d81590; stroke-width:1; stroke:black; " description="&lt;b&gt;CFI11_RS12205&lt;/b&gt;&lt;br&gt;LLM class flavin-dependent oxidoreductase&lt;br&gt;Location: 2456288 - 2460865&lt;br&gt;&lt;br&gt;&lt;b&gt;BlastP hit with GEJFOEHM_04440&lt;/b&gt;&lt;br&gt;Percentage identity: 54&lt;br&gt;Percentage coverage: 102&lt;br&gt;BLAST bit score: 1540&lt;br&gt;E-value: 0.0" locus_tag="CFI11_RS12205" class="clusterblast-orf" id="dummy-1_h1_8_20"  />
</g>
<g id="a1_0021"  >
<polygon points="482,90 487,90 492,85 487,80 482,80 482,90 " style="fill:#d8ce15; stroke-width:1; stroke:black; " description="&lt;b&gt;CFI11_RS12210&lt;/b&gt;&lt;br&gt;4'-phosphopantetheinyl transferase superfamily protein&lt;br&gt;Location: 2460862 - 2461533&lt;br&gt;&lt;br&gt;&lt;b&gt;BlastP hit with GEJFOEHM_04441&lt;/b&gt;&lt;br&gt;Percentage identity: 42&lt;br&gt;Percentage coverage: 94&lt;br&gt;BLAST bit score: 169&lt;br&gt;E-value: 7.05e-51" locus_tag="CFI11_RS12210" class="clusterblast-orf" id="dummy-1_h1_8_21"  />
</g>
<g id="a1_0022"  >
<polygon points="492,90 502,90 507,85 502,80 492,80 492,90 " style="fill:white; stroke-width:1; stroke:black; " description="&lt;b&gt;CFI11_RS24450&lt;/b&gt;&lt;br&gt;hypothetical protein&lt;br&gt;Location: 2461541 - 2462488" locus_tag="CFI11_RS24450" class="clusterblast-orf" id="dummy-1_h1_8_22"  />
</g>
<g id="a1_0023"  >
<polygon points="506,90 527,90 532,85 527,80 506,80 506,90 " style="fill:white; stroke-width:1; stroke:black; " description="&lt;b&gt;CFI11_RS12215&lt;/b&gt;&lt;br&gt;hypothetical protein&lt;br&gt;Location: 2462485 - 2464161" locus_tag="CFI11_RS12215" class="clusterblast-orf" id="dummy-1_h1_8_23"  />
</g>
<g id="a1_0024"  >
<polygon points="532,90 540,90 545,85 540,80 532,80 532,90 " style="fill:white; stroke-width:1; stroke:black; " description="&lt;b&gt;CFI11_RS12220&lt;/b&gt;&lt;br&gt;glycosyltransferase&lt;br&gt;Location: 2464174 - 2465025" locus_tag="CFI11_RS12220" class="clusterblast-orf" id="dummy-1_h1_8_24"  />
</g>
<g id="a1_0025"  >
<polygon points="546,90 561,90 566,85 561,80 546,80 546,90 " style="fill:white; stroke-width:1; stroke:black; " description="&lt;b&gt;CFI11_RS12225&lt;/b&gt;&lt;br&gt;oligosaccharide flippase family protein&lt;br&gt;Location: 2465058 - 2466377" locus_tag="CFI11_RS12225" class="clusterblast-orf" id="dummy-1_h1_8_25"  />
</g>
<g id="a1_0026"  >
<polygon points="566,85 571,80 586,80 586,90 571,90 566,85 " style="fill:#d815ce; stroke-width:1; stroke:black; " description="&lt;b&gt;CFI11_RS12230&lt;/b&gt;&lt;br&gt;DUF874 domain-containing protein&lt;br&gt;Location: 2466381 - 2467634&lt;br&gt;&lt;br&gt;&lt;b&gt;BlastP hit with GEJFOEHM_04436&lt;/b&gt;&lt;br&gt;Percentage identity: 31&lt;br&gt;Percentage coverage: 96&lt;br&gt;BLAST bit score: 167&lt;br&gt;E-value: 1.77e-45" locus_tag="CFI11_RS12230" class="clusterblast-orf" id="dummy-1_h1_8_26"  />
</g>
<g id="a1_0027"  >
<polygon points="587,85 592,80 603,80 603,90 592,90 587,85 " style="fill:#157cd8; stroke-width:1; stroke:black; " description="&lt;b&gt;CFI11_RS12235&lt;/b&gt;&lt;br&gt;CpsD/CapB family tyrosine-protein kinase&lt;br&gt;Location: 2467756 - 2468748&lt;br&gt;&lt;br&gt;&lt;b&gt;BlastP hit with GEJFOEHM_04435&lt;/b&gt;&lt;br&gt;Percentage identity: 35&lt;br&gt;Percentage coverage: 98&lt;br&gt;BLAST bit score: 143&lt;br&gt;E-value: 1.3e-38" locus_tag="CFI11_RS12235" class="clusterblast-orf" id="dummy-1_h1_8_27"  />
</g>
<g id="a1_0028"  >
<polygon points="605,85 610,80 616,80 616,90 610,90 605,85 " style="fill:white; stroke-width:1; stroke:black; " description="&lt;b&gt;CFI11_RS12240&lt;/b&gt;&lt;br&gt;sugar transferase&lt;br&gt;Location: 2468875 - 2469609" locus_tag="CFI11_RS12240" class="clusterblast-orf" id="dummy-1_h1_8_28"  />
</g>
<g id="a1_0029"  >
<polygon points="623,85 628,80 652,80 652,90 628,90 623,85 " style="fill:white; stroke-width:1; stroke:black; " description="&lt;b&gt;CFI11_RS12245&lt;/b&gt;&lt;br&gt;TRAP transporter fused permease subunit&lt;br&gt;Location: 2470096 - 2471952" locus_tag="CFI11_RS12245" class="clusterblast-orf" id="dummy-1_h1_8_29"  />
</g>
<g id="a1_0030"  >
<polygon points="652,85 657,80 667,80 667,90 657,90 652,85 " style="fill:white; stroke-width:1; stroke:black; " description="&lt;b&gt;CFI11_RS12250&lt;/b&gt;&lt;br&gt;TAXI family TRAP transporter solute-binding subunit&lt;br&gt;Location: 2471970 - 2472917" locus_tag="CFI11_RS12250" class="clusterblast-orf" id="dummy-1_h1_8_30"  />
</g>
<g id="a1_0031"  >
<polygon points="669,90 683,90 688,85 683,80 669,80 669,90 " style="fill:white; stroke-width:1; stroke:black; " description="&lt;b&gt;CFI11_RS12255&lt;/b&gt;&lt;br&gt;FAD-dependent monooxygenase&lt;br&gt;Location: 2473084 - 2474295" locus_tag="CFI11_RS12255" class="clusterblast-orf" id="dummy-1_h1_8_31"  />
</g>
<g id="a1_0032"  >
<polygon points="688,85 693,80 700,80 700,90 693,90 688,85 " style="fill:white; stroke-width:1; stroke:black; " description="&lt;b&gt;CFI11_RS12260&lt;/b&gt;&lt;br&gt;SDR family oxidoreductase&lt;br&gt;Location: 2474313 - 2475098" locus_tag="CFI11_RS12260" class="clusterblast-orf" id="dummy-1_h1_8_32"  />
</g>
<g id="a1_0033"  >
<polygon points="700,85 705,80 712,80 712,90 705,90 700,85 " style="fill:white; stroke-width:1; stroke:black; " description="&lt;b&gt;CFI11_RS12265&lt;/b&gt;&lt;br&gt;arylmalonate decarboxylase&lt;br&gt;Location: 2475098 - 2475841" locus_tag="CFI11_RS12265" class="clusterblast-orf" id="dummy-1_h1_8_33"  />
</g>
<g id="a1_0034"  >
<polygon points="713,85 718,80 729,80 729,90 718,90 713,85 " style="fill:white; stroke-width:1; stroke:black; " description="&lt;b&gt;CFI11_RS12270&lt;/b&gt;&lt;br&gt;ABC transporter permease&lt;br&gt;Location: 2475928 - 2476980" locus_tag="CFI11_RS12270" class="clusterblast-orf" id="dummy-1_h1_8_34"  />
</g>
<g id="a1_0035"  >
<polygon points="729,85 734,80 753,80 753,90 734,90 729,85 " style="fill:white; stroke-width:1; stroke:black; " description="&lt;b&gt;CFI11_RS12275&lt;/b&gt;&lt;br&gt;sugar ABC transporter ATP-binding protein&lt;br&gt;Location: 2476989 - 2478530" locus_tag="CFI11_RS12275" class="clusterblast-orf" id="dummy-1_h1_8_35"  />
</g>
<g id="a1_0036"  >
<polygon points="753,85 758,80 770,80 770,90 758,90 753,85 " style="fill:white; stroke-width:1; stroke:black; " description="&lt;b&gt;CFI11_RS12280&lt;/b&gt;&lt;br&gt;sugar ABC transporter substrate-binding protein&lt;br&gt;Location: 2478534 - 2479619" locus_tag="CFI11_RS12280" class="clusterblast-orf" id="dummy-1_h1_8_36"  />
</g>
<g id="a1_0037"  >
<polygon points="770,85 775,80 780,80 780,90 775,90 770,85 " style="fill:white; stroke-width:1; stroke:black; " description="&lt;b&gt;CFI11_RS12285&lt;/b&gt;&lt;br&gt;isochorismatase family protein&lt;br&gt;Location: 2479624 - 2480268" locus_tag="CFI11_RS12285" class="clusterblast-orf" id="dummy-1_h1_8_37"  />
</g>
</svg>
