<svg xmlns="http://www.w3.org/2000/svg" xmlns:xlink="http://www.w3.org/1999/xlink" version="1.1" x="0" y="0" height="230" width="800" viewBox="0 0 800 230" preserveAspectRatio="none"  >
<g label="Query sequence" class="clusterblast-cluster"  >
<text x="5" y="20" class="clusterblast-acc"  >
Query sequence</text>
<line x1="10" y1="35" x2="778.0" y2="35" style="stroke-width:1; stroke:grey; "  />
<polygon points="0,35 5,30 41,30 41,40 5,40 0,35 " style="fill:white; stroke-width:1; stroke:black; " description="&lt;b&gt;GEJFOEHM_04647&lt;/b&gt;&lt;br&gt;Acetyltransferase&lt;br&gt;Location: 60794 - 61217" locus_tag="GEJFOEHM_04647" class="clusterblast-orf" id="dummy-1_q0_0_all"  />
<polygon points="41,35 46,30 152,30 152,40 46,40 41,35 " style="fill:white; stroke-width:1; stroke:black; " description="&lt;b&gt;GEJFOEHM_04648&lt;/b&gt;&lt;br&gt;Succinyl-diaminopimelate desuccinylase&lt;br&gt;Location: 61213 - 62362" locus_tag="GEJFOEHM_04648" class="clusterblast-orf" id="dummy-1_q1_0_all"  />
<polygon points="152,35 157,30 187,30 187,40 157,40 152,35 " style="fill:white; stroke-width:1; stroke:black; " description="&lt;b&gt;GEJFOEHM_04649&lt;/b&gt;&lt;br&gt;hypothetical protein&lt;br&gt;Location: 62354 - 62717" locus_tag="GEJFOEHM_04649" class="clusterblast-orf" id="dummy-1_q2_0_all"  />
<polygon points="200,40 301,40 306,35 301,30 200,30 200,40 " style="fill:white; stroke-width:1; stroke:black; " description="&lt;b&gt;GEJFOEHM_04650&lt;/b&gt;&lt;br&gt;UDP-3-O-acylglucosamine N-acyltransferase&lt;br&gt;Location: 62852 - 63944" locus_tag="GEJFOEHM_04650" class="clusterblast-orf" id="dummy-1_q3_0_all"  />
<polygon points="340,35 345,30 477,30 477,40 345,40 340,35 " style="fill:#d81515; stroke-width:1; stroke:black; " description="&lt;b&gt;GEJFOEHM_04651&lt;/b&gt;&lt;br&gt;Aspartate kinase Ask Ect&lt;br&gt;Location: 64301 - 65705" locus_tag="GEJFOEHM_04651" class="clusterblast-orf" id="dummy-1_q4_0_all"  />
<polygon points="484,35 489,30 522,30 522,40 489,40 484,35 " style="fill:#77d815; stroke-width:1; stroke:black; " description="&lt;b&gt;GEJFOEHM_04652&lt;/b&gt;&lt;br&gt;L-ectoine synthase&lt;br&gt;Location: 65784 - 66171" locus_tag="GEJFOEHM_04652" class="clusterblast-orf" id="dummy-1_q5_0_all"  />
<polygon points="522,35 527,30 646,30 646,40 527,40 522,35 " style="fill:#15d8d8; stroke-width:1; stroke:black; " description="&lt;b&gt;GEJFOEHM_04653&lt;/b&gt;&lt;br&gt;Diaminobutyrate--2-oxoglutarate transaminase&lt;br&gt;Location: 66177 - 67455" locus_tag="GEJFOEHM_04653" class="clusterblast-orf" id="dummy-1_q6_0_all"  />
<polygon points="651,35 656,30 704,30 704,40 656,40 651,35 " style="fill:#7715d8; stroke-width:1; stroke:black; " description="&lt;b&gt;GEJFOEHM_04654&lt;/b&gt;&lt;br&gt;L-2,4-diaminobutyric acid acetyltransferase&lt;br&gt;Location: 67505 - 68048" locus_tag="GEJFOEHM_04654" class="clusterblast-orf" id="dummy-1_q7_0_all"  />
<polygon points="720,40 775,40 780,35 775,30 720,30 720,40 " style="fill:white; stroke-width:1; stroke:black; " description="&lt;b&gt;GEJFOEHM_04655&lt;/b&gt;&lt;br&gt;hypothetical protein&lt;br&gt;Location: 68218 - 68839" locus_tag="GEJFOEHM_04655" class="clusterblast-orf" id="dummy-1_q8_0_all"  />
</g>
<g label="BGC0002052" description="BGC0002052_c1: ectoine (50% of genes show similarity), Other:Ectoine" class="clusterblast-cluster"  >
<text x="5" y="70" class="clusterblast-acc"  >
<a xlink:href="https://mibig.secondarymetabolites.org/go/BGC0002052/1" target="_blank">BGC0002052</a>: ectoine                                                                          (50% of genes show similarity), Other:Ectoine</text>
<line x1="10" y1="85" x2="778.0" y2="85" style="stroke-width:1; stroke:grey; "  />
</g>
<g id="a1_000"  >
<polygon points="223,85 228,80 310,80 310,90 228,90 223,85 " style="fill:white; stroke-width:1; stroke:black; " description="&lt;b&gt;NAI38-5748&lt;/b&gt;&lt;br&gt;ectoine dioxygenase&lt;br&gt;Location: 189 - 1088" locus_tag="NAI38-5748" class="clusterblast-orf" id="dummy-1_h1_8_0"  />
</g>
<g id="a1_001"  >
<polygon points="320,85 325,80 360,80 360,90 325,90 320,85 " style="fill:#77d815; stroke-width:1; stroke:black; " description="&lt;b&gt;NAI38-5749&lt;/b&gt;&lt;br&gt;EctC&lt;br&gt;Location: 1184 - 1600&lt;br&gt;&lt;br&gt;&lt;b&gt;BlastP hit with GEJFOEHM_04652&lt;/b&gt;&lt;br&gt;Percentage identity: 47&lt;br&gt;Percentage coverage: 99&lt;br&gt;BLAST bit score: 123&lt;br&gt;E-value: 6.68e-37" locus_tag="NAI38-5749" class="clusterblast-orf" id="dummy-1_h1_8_1"  />
</g>
<g id="a1_002"  >
<polygon points="365,85 370,80 487,80 487,90 370,90 365,85 " style="fill:#15d8d8; stroke-width:1; stroke:black; " description="&lt;b&gt;NAI38-5750&lt;/b&gt;&lt;br&gt;diaminobutyrate--2-oxoglutarate transaminase&lt;br&gt;Location: 1647 - 2915&lt;br&gt;&lt;br&gt;&lt;b&gt;BlastP hit with GEJFOEHM_04653&lt;/b&gt;&lt;br&gt;Percentage identity: 50&lt;br&gt;Percentage coverage: 96&lt;br&gt;BLAST bit score: 407&lt;br&gt;E-value: 7.19e-140" locus_tag="NAI38-5750" class="clusterblast-orf" id="dummy-1_h1_8_2"  />
</g>
<g id="a1_003"  >
<polygon points="501,85 506,80 556,80 556,90 506,90 501,85 " style="fill:white; stroke-width:1; stroke:black; " description="&lt;b&gt;NAI38-5751&lt;/b&gt;&lt;br&gt;L-2,4-diaminobutyric acid acetyltransferase&lt;br&gt;Location: 3051 - 3620" locus_tag="NAI38-5751" class="clusterblast-orf" id="dummy-1_h1_8_3"  />
</g>
</svg>
