<svg xmlns="http://www.w3.org/2000/svg" xmlns:xlink="http://www.w3.org/1999/xlink" version="1.1" x="0" y="0" height="230" width="800" viewBox="0 0 800 230" preserveAspectRatio="none"  >
<g label="Query sequence" class="clusterblast-cluster"  >
<text x="5" y="20" class="clusterblast-acc"  >
Query sequence</text>
<line x1="10" y1="35" x2="778.0" y2="35" style="stroke-width:1; stroke:grey; "  />
<polygon points="154,40 189,40 194,35 189,30 154,30 154,40 " style="fill:white; stroke-width:1; stroke:black; " description="&lt;b&gt;PEOEJGFP_01042&lt;/b&gt;&lt;br&gt;FAD:protein FMN transferase&lt;br&gt;Location: 30051 - 30993" locus_tag="PEOEJGFP_01042" class="clusterblast-orf" id="dummy-1_q0_0_all"  />
<polygon points="209,40 213,40 218,35 213,30 209,30 209,40 " style="fill:white; stroke-width:1; stroke:black; " description="&lt;b&gt;PEOEJGFP_01043&lt;/b&gt;&lt;br&gt;hypothetical protein&lt;br&gt;Location: 31352 - 31556" locus_tag="PEOEJGFP_01043" class="clusterblast-orf" id="dummy-1_q1_0_all"  />
<polygon points="217,35 222,30 275,30 275,40 222,40 217,35 " style="fill:white; stroke-width:1; stroke:black; " description="&lt;b&gt;PEOEJGFP_01044&lt;/b&gt;&lt;br&gt;protein kinase UbiB&lt;br&gt;Location: 31537 - 32896" locus_tag="PEOEJGFP_01044" class="clusterblast-orf" id="dummy-1_q2_0_all"  />
<polygon points="280,35 285,30 314,30 314,40 285,40 280,35 " style="fill:white; stroke-width:1; stroke:black; " description="&lt;b&gt;PEOEJGFP_01045&lt;/b&gt;&lt;br&gt;hypothetical protein&lt;br&gt;Location: 33013 - 33808" locus_tag="PEOEJGFP_01045" class="clusterblast-orf" id="dummy-1_q3_0_all"  />
<polygon points="317,35 322,30 357,30 357,40 322,40 317,35 " style="fill:white; stroke-width:1; stroke:black; " description="&lt;b&gt;PEOEJGFP_01046&lt;/b&gt;&lt;br&gt;Hydrogen peroxide-inducible genes activator&lt;br&gt;Location: 33886 - 34819" locus_tag="PEOEJGFP_01046" class="clusterblast-orf" id="dummy-1_q4_0_all"  />
<polygon points="366,40 370,40 375,35 370,30 366,30 366,40 " style="fill:white; stroke-width:1; stroke:black; " description="&lt;b&gt;PEOEJGFP_01047&lt;/b&gt;&lt;br&gt;hypothetical protein&lt;br&gt;Location: 35023 - 35248" locus_tag="PEOEJGFP_01047" class="clusterblast-orf" id="dummy-1_q5_0_all"  />
<polygon points="378,40 381,40 386,35 381,30 378,30 378,40 " style="fill:white; stroke-width:1; stroke:black; " description="&lt;b&gt;PEOEJGFP_01048&lt;/b&gt;&lt;br&gt;hypothetical protein&lt;br&gt;Location: 35315 - 35510" locus_tag="PEOEJGFP_01048" class="clusterblast-orf" id="dummy-1_q6_0_all"  />
<polygon points="400,40 479,40 484,35 479,30 400,30 400,40 " style="fill:white; stroke-width:1; stroke:black; " description="&lt;b&gt;PEOEJGFP_01049&lt;/b&gt;&lt;br&gt;hypothetical protein&lt;br&gt;Location: 35838 - 37797" locus_tag="PEOEJGFP_01049" class="clusterblast-orf" id="dummy-1_q7_0_all"  />
<polygon points="495,35 500,30 506,30 506,40 500,40 495,35 " style="fill:white; stroke-width:1; stroke:black; " description="&lt;b&gt;PEOEJGFP_01050&lt;/b&gt;&lt;br&gt;hypothetical protein&lt;br&gt;Location: 38056 - 38332" locus_tag="PEOEJGFP_01050" class="clusterblast-orf" id="dummy-1_q8_0_all"  />
<polygon points="506,35 511,30 534,30 534,40 511,40 506,35 " style="fill:#d81515; stroke-width:1; stroke:black; " description="&lt;b&gt;PEOEJGFP_01051&lt;/b&gt;&lt;br&gt;hypothetical protein&lt;br&gt;Location: 38331 - 38970" locus_tag="PEOEJGFP_01051" class="clusterblast-orf" id="dummy-1_q9_0_all"  />
<polygon points="545,35 550,30 575,30 575,40 550,40 545,35 " style="fill:#77d815; stroke-width:1; stroke:black; " description="&lt;b&gt;PEOEJGFP_01052&lt;/b&gt;&lt;br&gt;Transcriptional activator protein LuxR&lt;br&gt;Location: 39243 - 39945" locus_tag="PEOEJGFP_01052" class="clusterblast-orf" id="dummy-1_q10_0_all"  />
<polygon points="579,35 584,30 605,30 605,40 584,40 579,35 " style="fill:#15d8d8; stroke-width:1; stroke:black; " description="&lt;b&gt;PEOEJGFP_01053&lt;/b&gt;&lt;br&gt;hypothetical protein&lt;br&gt;Location: 40037 - 40640" locus_tag="PEOEJGFP_01053" class="clusterblast-orf" id="dummy-1_q11_0_all"  />
<polygon points="609,40 621,40 626,35 621,30 609,30 609,40 " style="fill:#7715d8; stroke-width:1; stroke:black; " description="&lt;b&gt;PEOEJGFP_01054&lt;/b&gt;&lt;br&gt;hypothetical protein&lt;br&gt;Location: 40750 - 41137" locus_tag="PEOEJGFP_01054" class="clusterblast-orf" id="dummy-1_q12_0_all"  />
</g>
<g label="NZ_CP030271" description="NZ_CP030271 (1827287-1847920): Rhodobacter sphaeroides 2.4.1 chromosome 1, co... (22% of genes show similarity), hserlactone" class="clusterblast-cluster"  >
<text x="5" y="70" class="clusterblast-acc"  >
<a xlink:href="https://antismash-db.secondarymetabolites.org/area.html?record=NZ_CP030271&amp;start=1827287&amp;end=1847920" target="_blank">NZ_CP030271 (1827287-1847920)</a>: Rhodobacter sphaeroides 2.4.1 chromosome 1, co... (22% of genes show similarity), hserlactone</text>
<line x1="10" y1="85" x2="778.0" y2="85" style="stroke-width:1; stroke:grey; "  />
</g>
<g id="a1_000"  >
<polygon points="0,85 5,80 33,80 33,90 5,90 0,85 " style="fill:white; stroke-width:1; stroke:black; " description="&lt;b&gt;DQL45_RS09120&lt;/b&gt;&lt;br&gt;MetQ/NlpA family ABC transporter substrate-binding protein&lt;br&gt;Location: 1846488 - 1845712" locus_tag="DQL45_RS09120" class="clusterblast-orf" id="dummy-1_h1_9_0"  />
</g>
<g id="a1_001"  >
<polygon points="34,85 39,80 62,80 62,90 39,90 34,85 " style="fill:white; stroke-width:1; stroke:black; " description="&lt;b&gt;DQL45_RS09115&lt;/b&gt;&lt;br&gt;ABC transporter permease&lt;br&gt;Location: 1845683 - 1845009" locus_tag="DQL45_RS09115" class="clusterblast-orf" id="dummy-1_h1_9_1"  />
</g>
<g id="a1_002"  >
<polygon points="62,85 67,80 107,80 107,90 67,90 62,85 " style="fill:white; stroke-width:1; stroke:black; " description="&lt;b&gt;DQL45_RS09110&lt;/b&gt;&lt;br&gt;methionine ABC transporter ATP-binding protein&lt;br&gt;Location: 1845019 - 1843958" locus_tag="DQL45_RS09110" class="clusterblast-orf" id="dummy-1_h1_9_2"  />
</g>
<g id="a1_003"  >
<polygon points="129,85 134,80 180,80 180,90 134,90 129,85 " style="fill:white; stroke-width:1; stroke:black; " description="&lt;b&gt;DQL45_RS09100&lt;/b&gt;&lt;br&gt;OpgC domain-containing protein&lt;br&gt;Location: 1843433 - 1842234" locus_tag="DQL45_RS09100" class="clusterblast-orf" id="dummy-1_h1_9_3"  />
</g>
<g id="a1_004"  >
<polygon points="180,85 185,80 256,80 256,90 185,90 180,85 " style="fill:white; stroke-width:1; stroke:black; " description="&lt;b&gt;DQL45_RS09095&lt;/b&gt;&lt;br&gt;glucans biosynthesis glucosyltransferase MdoH&lt;br&gt;Location: 1842241 - 1840454" locus_tag="DQL45_RS09095" class="clusterblast-orf" id="dummy-1_h1_9_4"  />
</g>
<g id="a1_005"  >
<polygon points="256,85 261,80 265,80 265,90 261,90 256,85 " style="fill:white; stroke-width:1; stroke:black; " description="&lt;b&gt;DQL45_RS09090&lt;/b&gt;&lt;br&gt;hypothetical protein&lt;br&gt;Location: 1840450 - 1840250" locus_tag="DQL45_RS09090" class="clusterblast-orf" id="dummy-1_h1_9_5"  />
</g>
<g id="a1_006"  >
<polygon points="265,85 270,80 334,80 334,90 270,90 265,85 " style="fill:white; stroke-width:1; stroke:black; " description="&lt;b&gt;DQL45_RS09085&lt;/b&gt;&lt;br&gt;glucan biosynthesis protein G&lt;br&gt;Location: 1840250 - 1838628" locus_tag="DQL45_RS09085" class="clusterblast-orf" id="dummy-1_h1_9_6"  />
</g>
<g id="a1_007"  >
<polygon points="348,85 353,80 359,80 359,90 353,90 348,85 " style="fill:white; stroke-width:1; stroke:black; " description="&lt;b&gt;DQL45_RS09080&lt;/b&gt;&lt;br&gt;hypothetical protein&lt;br&gt;Location: 1838307 - 1838035" locus_tag="DQL45_RS09080" class="clusterblast-orf" id="dummy-1_h1_9_7"  />
</g>
<g id="a1_008"  >
<polygon points="364,85 369,80 391,80 391,90 369,90 364,85 " style="fill:#d81515; stroke-width:1; stroke:black; " description="&lt;b&gt;DQL45_RS09075&lt;/b&gt;&lt;br&gt;GNAT family N-acetyltransferase&lt;br&gt;Location: 1837920 - 1837288&lt;br&gt;&lt;br&gt;&lt;b&gt;BlastP hit with PEOEJGFP_01051&lt;/b&gt;&lt;br&gt;Percentage identity: 74&lt;br&gt;Percentage coverage: 97&lt;br&gt;BLAST bit score: 318&lt;br&gt;E-value: 7.23e-110" locus_tag="DQL45_RS09075" class="clusterblast-orf" id="dummy-1_h1_9_8"  />
</g>
<g id="a1_009"  >
<polygon points="398,85 403,80 428,80 428,90 403,90 398,85 " style="fill:#77d815; stroke-width:1; stroke:black; " description="&lt;b&gt;DQL45_RS09065&lt;/b&gt;&lt;br&gt;LuxR family transcriptional regulator&lt;br&gt;Location: 1837111 - 1836410&lt;br&gt;&lt;br&gt;&lt;b&gt;BlastP hit with PEOEJGFP_01052&lt;/b&gt;&lt;br&gt;Percentage identity: 66&lt;br&gt;Percentage coverage: 100&lt;br&gt;BLAST bit score: 322&lt;br&gt;E-value: 7.75e-111" locus_tag="DQL45_RS09065" class="clusterblast-orf" id="dummy-1_h1_9_9"  />
</g>
<g id="a1_0010"  >
<polygon points="433,85 438,80 461,80 461,90 438,90 433,85 " style="fill:#15d8d8; stroke-width:1; stroke:black; " description="&lt;b&gt;DQL45_RS09060&lt;/b&gt;&lt;br&gt;LuxR family transcriptional regulator&lt;br&gt;Location: 1836299 - 1835640&lt;br&gt;&lt;br&gt;&lt;b&gt;BlastP hit with PEOEJGFP_01053&lt;/b&gt;&lt;br&gt;Percentage identity: 41&lt;br&gt;Percentage coverage: 100&lt;br&gt;BLAST bit score: 162&lt;br&gt;E-value: 1.32e-48" locus_tag="DQL45_RS09060" class="clusterblast-orf" id="dummy-1_h1_9_10"  />
</g>
<g id="a1_0011"  >
<polygon points="463,90 479,90 484,85 479,80 463,80 463,90 " style="fill:#7715d8; stroke-width:1; stroke:black; " description="&lt;b&gt;DQL45_RS09055&lt;/b&gt;&lt;br&gt;autoinducer binding domain-containing protein&lt;br&gt;Location: 1835592 - 1835110&lt;br&gt;&lt;br&gt;&lt;b&gt;BlastP hit with PEOEJGFP_01054&lt;/b&gt;&lt;br&gt;Percentage identity: 48&lt;br&gt;Percentage coverage: 95&lt;br&gt;BLAST bit score: 132&lt;br&gt;E-value: 2.12e-38" locus_tag="DQL45_RS09055" class="clusterblast-orf" id="dummy-1_h1_9_11"  />
</g>
<g id="a1_0012"  >
<polygon points="494,90 522,90 527,85 522,80 494,80 494,90 " style="fill:white; stroke-width:1; stroke:black; " description="&lt;b&gt;DQL45_RS09050&lt;/b&gt;&lt;br&gt;phosphatase PAP2 family protein&lt;br&gt;Location: 1834857 - 1834087" locus_tag="DQL45_RS09050" class="clusterblast-orf" id="dummy-1_h1_9_12"  />
</g>
<g id="a1_0013"  >
<polygon points="541,90 578,90 583,85 578,80 541,80 541,90 " style="fill:white; stroke-width:1; stroke:black; " description="&lt;b&gt;DQL45_RS09045&lt;/b&gt;&lt;br&gt;c-type cytochrome&lt;br&gt;Location: 1833752 - 1832778" locus_tag="DQL45_RS09045" class="clusterblast-orf" id="dummy-1_h1_9_13"  />
</g>
<g id="a1_0014"  >
<polygon points="583,90 687,90 692,85 687,80 583,80 583,90 " style="fill:white; stroke-width:1; stroke:black; " description="&lt;b&gt;DQL45_RS09040&lt;/b&gt;&lt;br&gt;cytochrome c oxidase subunit I&lt;br&gt;Location: 1832781 - 1830208" locus_tag="DQL45_RS09040" class="clusterblast-orf" id="dummy-1_h1_9_14"  />
</g>
<g id="a1_0015"  >
<polygon points="693,90 705,90 710,85 705,80 693,80 693,90 " style="fill:white; stroke-width:1; stroke:black; " description="&lt;b&gt;DQL45_RS09035&lt;/b&gt;&lt;br&gt;hypothetical protein&lt;br&gt;Location: 1830197 - 1829790" locus_tag="DQL45_RS09035" class="clusterblast-orf" id="dummy-1_h1_9_15"  />
</g>
<g id="a1_0016"  >
<polygon points="711,90 759,90 764,85 759,80 711,80 711,90 " style="fill:white; stroke-width:1; stroke:black; " description="&lt;b&gt;DQL45_RS09030&lt;/b&gt;&lt;br&gt;c-type cytochrome&lt;br&gt;Location: 1829764 - 1828520" locus_tag="DQL45_RS09030" class="clusterblast-orf" id="dummy-1_h1_9_16"  />
</g>
<g id="a1_0017"  >
<polygon points="765,85 770,80 780,80 780,90 770,90 765,85 " style="fill:white; stroke-width:1; stroke:black; " description="&lt;b&gt;DQL45_RS09025&lt;/b&gt;&lt;br&gt;DUF4112 domain-containing protein&lt;br&gt;Location: 1828498 - 1828154" locus_tag="DQL45_RS09025" class="clusterblast-orf" id="dummy-1_h1_9_17"  />
</g>
</svg>
