<svg xmlns="http://www.w3.org/2000/svg" xmlns:xlink="http://www.w3.org/1999/xlink" version="1.1" x="0" y="0" height="230" width="800" viewBox="0 0 800 230" preserveAspectRatio="none"  >
<g label="Query sequence" class="clusterblast-cluster"  >
<text x="5" y="20" class="clusterblast-acc"  >
Query sequence</text>
<line x1="10" y1="35" x2="778.0" y2="35" style="stroke-width:1; stroke:grey; "  />
<polygon points="6,40 43,40 48,35 43,30 6,30 6,40 " style="fill:white; stroke-width:1; stroke:black; " description="&lt;b&gt;PEOEJGFP_02040&lt;/b&gt;&lt;br&gt;hypothetical protein&lt;br&gt;Location: 184433 - 185492" locus_tag="PEOEJGFP_02040" class="clusterblast-orf" id="dummy-2_q0_0_all"  />
<polygon points="42,35 47,30 95,30 95,40 47,40 42,35 " style="fill:white; stroke-width:1; stroke:black; " description="&lt;b&gt;PEOEJGFP_02041&lt;/b&gt;&lt;br&gt;hypothetical protein&lt;br&gt;Location: 185355 - 186684" locus_tag="PEOEJGFP_02041" class="clusterblast-orf" id="dummy-2_q1_0_all"  />
<polygon points="100,35 105,30 130,30 130,40 105,40 100,35 " style="fill:white; stroke-width:1; stroke:black; " description="&lt;b&gt;PEOEJGFP_02042&lt;/b&gt;&lt;br&gt;hypothetical protein&lt;br&gt;Location: 186825 - 187581" locus_tag="PEOEJGFP_02042" class="clusterblast-orf" id="dummy-2_q2_0_all"  />
<polygon points="130,35 135,30 141,30 141,40 135,40 130,35 " style="fill:white; stroke-width:1; stroke:black; " description="&lt;b&gt;PEOEJGFP_02043&lt;/b&gt;&lt;br&gt;hypothetical protein&lt;br&gt;Location: 187580 - 187847" locus_tag="PEOEJGFP_02043" class="clusterblast-orf" id="dummy-2_q3_0_all"  />
<polygon points="151,40 164,40 169,35 164,30 151,30 151,40 " style="fill:#d81515; stroke-width:1; stroke:black; " description="&lt;b&gt;PEOEJGFP_02044&lt;/b&gt;&lt;br&gt;50S ribosomal protein L15&lt;br&gt;Location: 188098 - 188566" locus_tag="PEOEJGFP_02044" class="clusterblast-orf" id="dummy-2_q4_0_all"  />
<polygon points="173,40 222,40 227,35 222,30 173,30 173,40 " style="fill:#43d815; stroke-width:1; stroke:black; " description="&lt;b&gt;PEOEJGFP_02045&lt;/b&gt;&lt;br&gt;Protein translocase subunit SecY&lt;br&gt;Location: 188669 - 190034" locus_tag="PEOEJGFP_02045" class="clusterblast-orf" id="dummy-2_q5_0_all"  />
<polygon points="228,40 249,40 254,35 249,30 228,30 228,40 " style="fill:#15b6d8; stroke-width:1; stroke:black; " description="&lt;b&gt;PEOEJGFP_02046&lt;/b&gt;&lt;br&gt;Adenylate kinase&lt;br&gt;Location: 190066 - 190723" locus_tag="PEOEJGFP_02046" class="clusterblast-orf" id="dummy-2_q6_0_all"  />
<polygon points="262,40 271,40 276,35 271,30 262,30 262,40 " style="fill:#8815d8; stroke-width:1; stroke:black; " description="&lt;b&gt;PEOEJGFP_02047&lt;/b&gt;&lt;br&gt;30S ribosomal protein S13&lt;br&gt;Location: 190902 - 191271" locus_tag="PEOEJGFP_02047" class="clusterblast-orf" id="dummy-2_q7_0_all"  />
<polygon points="277,40 287,40 292,35 287,30 277,30 277,40 " style="fill:#d85a15; stroke-width:1; stroke:black; " description="&lt;b&gt;PEOEJGFP_02048&lt;/b&gt;&lt;br&gt;30S ribosomal protein S11&lt;br&gt;Location: 191286 - 191676" locus_tag="PEOEJGFP_02048" class="clusterblast-orf" id="dummy-2_q8_0_all"  />
<polygon points="297,40 332,40 337,35 332,30 297,30 297,40 " style="fill:#15d82c; stroke-width:1; stroke:black; " description="&lt;b&gt;PEOEJGFP_02049&lt;/b&gt;&lt;br&gt;DNA-directed RNA polymerase subunit alpha&lt;br&gt;Location: 191796 - 192813" locus_tag="PEOEJGFP_02049" class="clusterblast-orf" id="dummy-2_q9_0_all"  />
<polygon points="343,40 354,40 359,35 354,30 343,30 343,40 " style="fill:#1571d8; stroke-width:1; stroke:black; " description="&lt;b&gt;PEOEJGFP_02050&lt;/b&gt;&lt;br&gt;50S ribosomal protein L17&lt;br&gt;Location: 192956 - 193376" locus_tag="PEOEJGFP_02050" class="clusterblast-orf" id="dummy-2_q10_0_all"  />
<polygon points="369,40 388,40 393,35 388,30 369,30 369,40 " style="fill:#cd15d8; stroke-width:1; stroke:black; " description="&lt;b&gt;PEOEJGFP_02051&lt;/b&gt;&lt;br&gt;hypothetical protein&lt;br&gt;Location: 193620 - 194232" locus_tag="PEOEJGFP_02051" class="clusterblast-orf" id="dummy-2_q11_0_all"  />
<polygon points="395,40 414,40 419,35 414,30 395,30 395,40 " style="fill:#d89f15; stroke-width:1; stroke:black; " description="&lt;b&gt;PEOEJGFP_02052&lt;/b&gt;&lt;br&gt;hypothetical protein&lt;br&gt;Location: 194287 - 194878" locus_tag="PEOEJGFP_02052" class="clusterblast-orf" id="dummy-2_q12_0_all"  />
<polygon points="422,40 469,40 474,35 469,30 422,30 422,40 " style="fill:#15d871; stroke-width:1; stroke:black; " description="&lt;b&gt;PEOEJGFP_02053&lt;/b&gt;&lt;br&gt;Replication-associated recombination protein A&lt;br&gt;Location: 194956 - 196270" locus_tag="PEOEJGFP_02053" class="clusterblast-orf" id="dummy-2_q13_0_all"  />
<polygon points="476,40 486,40 491,35 486,30 476,30 476,40 " style="fill:#152cd8; stroke-width:1; stroke:black; " description="&lt;b&gt;PEOEJGFP_02054&lt;/b&gt;&lt;br&gt;Putative fluoride ion transporter CrcB&lt;br&gt;Location: 196315 - 196693" locus_tag="PEOEJGFP_02054" class="clusterblast-orf" id="dummy-2_q14_0_all"  />
<polygon points="490,40 527,40 532,35 527,30 490,30 490,40 " style="fill:#d8159f; stroke-width:1; stroke:black; " description="&lt;b&gt;PEOEJGFP_02055&lt;/b&gt;&lt;br&gt;Ribosomal large subunit pseudouridine synthase C&lt;br&gt;Location: 196689 - 197730" locus_tag="PEOEJGFP_02055" class="clusterblast-orf" id="dummy-2_q15_0_all"  />
<polygon points="531,40 553,40 558,35 553,30 531,30 531,40 " style="fill:#cdd815; stroke-width:1; stroke:black; " description="&lt;b&gt;PEOEJGFP_02056&lt;/b&gt;&lt;br&gt;Phosphoglycolate phosphatase&lt;br&gt;Location: 197726 - 198392" locus_tag="PEOEJGFP_02056" class="clusterblast-orf" id="dummy-2_q16_0_all"  />
<polygon points="558,40 581,40 586,35 581,30 558,30 558,40 " style="fill:#15d8b6; stroke-width:1; stroke:black; " description="&lt;b&gt;PEOEJGFP_02057&lt;/b&gt;&lt;br&gt;hypothetical protein&lt;br&gt;Location: 198388 - 199099" locus_tag="PEOEJGFP_02057" class="clusterblast-orf" id="dummy-2_q17_0_all"  />
<polygon points="594,40 630,40 635,35 630,30 594,30 594,40 " style="fill:#4315d8; stroke-width:1; stroke:black; " description="&lt;b&gt;PEOEJGFP_02058&lt;/b&gt;&lt;br&gt;Putative amino-acid ABC transporter-binding protein YhdW&lt;br&gt;Location: 199318 - 200335" locus_tag="PEOEJGFP_02058" class="clusterblast-orf" id="dummy-2_q18_0_all"  />
<polygon points="640,40 685,40 690,35 685,30 640,30 640,40 " style="fill:#d8155a; stroke-width:1; stroke:black; " description="&lt;b&gt;PEOEJGFP_02059&lt;/b&gt;&lt;br&gt;hypothetical protein&lt;br&gt;Location: 200471 - 201737" locus_tag="PEOEJGFP_02059" class="clusterblast-orf" id="dummy-2_q19_0_all"  />
<polygon points="690,40 737,40 742,35 737,30 690,30 690,40 " style="fill:#d8155a; stroke-width:1; stroke:black; " description="&lt;b&gt;PEOEJGFP_02060&lt;/b&gt;&lt;br&gt;Inner membrane amino-acid ABC transporter permease protein YhdY&lt;br&gt;Location: 201738 - 203055" locus_tag="PEOEJGFP_02060" class="clusterblast-orf" id="dummy-2_q20_0_all"  />
<polygon points="743,40 769,40 774,35 769,30 743,30 743,40 " style="fill:#88d815; stroke-width:1; stroke:black; " description="&lt;b&gt;PEOEJGFP_02061&lt;/b&gt;&lt;br&gt;Glutamine transport ATP-binding protein GlnQ&lt;br&gt;Location: 203068 - 203860" locus_tag="PEOEJGFP_02061" class="clusterblast-orf" id="dummy-2_q21_0_all"  />
</g>
<g label="NZ_OBMT01000001" description="NZ_OBMT01000001 (652848-673439): Rhodobacter maris strain JA276, whole genome... (69% of genes show similarity), hserlactone" class="clusterblast-cluster"  >
<text x="5" y="70" class="clusterblast-acc"  >
<a xlink:href="https://antismash-db.secondarymetabolites.org/area.html?record=NZ_OBMT01000001&amp;start=652848&amp;end=673439" target="_blank">NZ_OBMT01000001 (652848-673439)</a>: Rhodobacter maris strain JA276, whole genome... (69% of genes show similarity), hserlactone</text>
<line x1="10" y1="85" x2="778.0" y2="85" style="stroke-width:1; stroke:grey; "  />
</g>
<g id="a2_000"  >
<polygon points="0,90 7,90 12,85 7,80 0,80 0,90 " style="fill:white; stroke-width:1; stroke:black; " description="&lt;b&gt;CRO22_RS03200&lt;/b&gt;&lt;br&gt;30S ribosomal protein S14&lt;br&gt;Location: 672981 - 672676" locus_tag="CRO22_RS03200" class="clusterblast-orf" id="dummy-2_h2_10_0"  />
</g>
<g id="a2_001"  >
<polygon points="12,90 23,90 28,85 23,80 12,80 12,90 " style="fill:white; stroke-width:1; stroke:black; " description="&lt;b&gt;CRO22_RS03195&lt;/b&gt;&lt;br&gt;30S ribosomal protein S8&lt;br&gt;Location: 672663 - 672265" locus_tag="CRO22_RS03195" class="clusterblast-orf" id="dummy-2_h2_10_1"  />
</g>
<g id="a2_002"  >
<polygon points="28,90 44,90 49,85 44,80 28,80 28,90 " style="fill:white; stroke-width:1; stroke:black; " description="&lt;b&gt;CRO22_RS03190&lt;/b&gt;&lt;br&gt;50S ribosomal protein L6&lt;br&gt;Location: 672254 - 671721" locus_tag="CRO22_RS03190" class="clusterblast-orf" id="dummy-2_h2_10_2"  />
</g>
<g id="a2_003"  >
<polygon points="50,90 59,90 64,85 59,80 50,80 50,90 " style="fill:white; stroke-width:1; stroke:black; " description="&lt;b&gt;CRO22_RS03185&lt;/b&gt;&lt;br&gt;50S ribosomal protein L18&lt;br&gt;Location: 671709 - 671350" locus_tag="CRO22_RS03185" class="clusterblast-orf" id="dummy-2_h2_10_3"  />
</g>
<g id="a2_004"  >
<polygon points="69,90 86,90 91,85 86,80 69,80 69,90 " style="fill:white; stroke-width:1; stroke:black; " description="&lt;b&gt;CRO22_RS03180&lt;/b&gt;&lt;br&gt;30S ribosomal protein S5&lt;br&gt;Location: 671236 - 670676" locus_tag="CRO22_RS03180" class="clusterblast-orf" id="dummy-2_h2_10_4"  />
</g>
<g id="a2_005"  >
<polygon points="91,90 94,90 99,85 94,80 91,80 91,90 " style="fill:white; stroke-width:1; stroke:black; " description="&lt;b&gt;CRO22_RS03175&lt;/b&gt;&lt;br&gt;50S ribosomal protein L30&lt;br&gt;Location: 670664 - 670473" locus_tag="CRO22_RS03175" class="clusterblast-orf" id="dummy-2_h2_10_5"  />
</g>
<g id="a2_006"  >
<polygon points="103,90 111,90 116,85 111,80 103,80 103,90 " style="fill:white; stroke-width:1; stroke:black; " description="&lt;b&gt;CRO22_RS03170&lt;/b&gt;&lt;br&gt;ribonuclease E inhibitor RraB&lt;br&gt;Location: 670374 - 670042" locus_tag="CRO22_RS03170" class="clusterblast-orf" id="dummy-2_h2_10_6"  />
</g>
<g id="a2_007"  >
<polygon points="140,90 153,90 158,85 153,80 140,80 140,90 " style="fill:#d81515; stroke-width:1; stroke:black; " description="&lt;b&gt;CRO22_RS03165&lt;/b&gt;&lt;br&gt;50S ribosomal protein L15&lt;br&gt;Location: 669436 - 668969&lt;br&gt;&lt;br&gt;&lt;b&gt;BlastP hit with PEOEJGFP_02044&lt;/b&gt;&lt;br&gt;Percentage identity: 81&lt;br&gt;Percentage coverage: 100&lt;br&gt;BLAST bit score: 239&lt;br&gt;E-value: 1.35e-80" locus_tag="CRO22_RS03165" class="clusterblast-orf" id="dummy-2_h2_10_7"  />
</g>
<g id="a2_008"  >
<polygon points="162,90 211,90 216,85 211,80 162,80 162,90 " style="fill:#43d815; stroke-width:1; stroke:black; " description="&lt;b&gt;CRO22_RS03160&lt;/b&gt;&lt;br&gt;preprotein translocase subunit SecY&lt;br&gt;Location: 668865 - 667501&lt;br&gt;&lt;br&gt;&lt;b&gt;BlastP hit with PEOEJGFP_02045&lt;/b&gt;&lt;br&gt;Percentage identity: 88&lt;br&gt;Percentage coverage: 100&lt;br&gt;BLAST bit score: 772&lt;br&gt;E-value: 2.12e-281" locus_tag="CRO22_RS03160" class="clusterblast-orf" id="dummy-2_h2_10_8"  />
</g>
<g id="a2_009"  >
<polygon points="217,90 235,90 240,85 235,80 217,80 217,90 " style="fill:#15b6d8; stroke-width:1; stroke:black; " description="&lt;b&gt;CRO22_RS03155&lt;/b&gt;&lt;br&gt;adenylate kinase&lt;br&gt;Location: 667488 - 666901&lt;br&gt;&lt;br&gt;&lt;b&gt;BlastP hit with PEOEJGFP_02046&lt;/b&gt;&lt;br&gt;Percentage identity: 72&lt;br&gt;Percentage coverage: 98&lt;br&gt;BLAST bit score: 273&lt;br&gt;E-value: 4.98e-92" locus_tag="CRO22_RS03155" class="clusterblast-orf" id="dummy-2_h2_10_9"  />
</g>
<g id="a2_0010"  >
<polygon points="247,90 257,90 262,85 257,80 247,80 247,90 " style="fill:#8815d8; stroke-width:1; stroke:black; " description="&lt;b&gt;CRO22_RS03150&lt;/b&gt;&lt;br&gt;30S ribosomal protein S13&lt;br&gt;Location: 666721 - 666353&lt;br&gt;&lt;br&gt;&lt;b&gt;BlastP hit with PEOEJGFP_02047&lt;/b&gt;&lt;br&gt;Percentage identity: 89&lt;br&gt;Percentage coverage: 100&lt;br&gt;BLAST bit score: 213&lt;br&gt;E-value: 3.94e-71" locus_tag="CRO22_RS03150" class="clusterblast-orf" id="dummy-2_h2_10_10"  />
</g>
<g id="a2_0011"  >
<polygon points="262,90 273,90 278,85 273,80 262,80 262,90 " style="fill:#d85a15; stroke-width:1; stroke:black; " description="&lt;b&gt;CRO22_RS03145&lt;/b&gt;&lt;br&gt;30S ribosomal protein S11&lt;br&gt;Location: 666339 - 665950&lt;br&gt;&lt;br&gt;&lt;b&gt;BlastP hit with PEOEJGFP_02048&lt;/b&gt;&lt;br&gt;Percentage identity: 95&lt;br&gt;Percentage coverage: 100&lt;br&gt;BLAST bit score: 236&lt;br&gt;E-value: 4.67e-80" locus_tag="CRO22_RS03145" class="clusterblast-orf" id="dummy-2_h2_10_11"  />
</g>
<g id="a2_0012"  >
<polygon points="282,90 317,90 322,85 317,80 282,80 282,90 " style="fill:#15d82c; stroke-width:1; stroke:black; " description="&lt;b&gt;CRO22_RS03140&lt;/b&gt;&lt;br&gt;DNA-directed RNA polymerase subunit alpha&lt;br&gt;Location: 665831 - 664815&lt;br&gt;&lt;br&gt;&lt;b&gt;BlastP hit with PEOEJGFP_02049&lt;/b&gt;&lt;br&gt;Percentage identity: 94&lt;br&gt;Percentage coverage: 100&lt;br&gt;BLAST bit score: 643&lt;br&gt;E-value: 4.18e-234" locus_tag="CRO22_RS03140" class="clusterblast-orf" id="dummy-2_h2_10_12"  />
</g>
<g id="a2_0013"  >
<polygon points="328,90 340,90 345,85 340,80 328,80 328,90 " style="fill:#1571d8; stroke-width:1; stroke:black; " description="&lt;b&gt;CRO22_RS03135&lt;/b&gt;&lt;br&gt;50S ribosomal protein L17&lt;br&gt;Location: 664675 - 664256&lt;br&gt;&lt;br&gt;&lt;b&gt;BlastP hit with PEOEJGFP_02050&lt;/b&gt;&lt;br&gt;Percentage identity: 87&lt;br&gt;Percentage coverage: 100&lt;br&gt;BLAST bit score: 234&lt;br&gt;E-value: 3.99e-79" locus_tag="CRO22_RS03135" class="clusterblast-orf" id="dummy-2_h2_10_13"  />
</g>
<g id="a2_0014"  >
<polygon points="351,90 370,90 375,85 370,80 351,80 351,90 " style="fill:#cd15d8; stroke-width:1; stroke:black; " description="&lt;b&gt;CRO22_RS03130&lt;/b&gt;&lt;br&gt;autoinducer binding domain-containing protein&lt;br&gt;Location: 664101 - 663490&lt;br&gt;&lt;br&gt;&lt;b&gt;BlastP hit with PEOEJGFP_02051&lt;/b&gt;&lt;br&gt;Percentage identity: 70&lt;br&gt;Percentage coverage: 100&lt;br&gt;BLAST bit score: 279&lt;br&gt;E-value: 9.47e-95" locus_tag="CRO22_RS03130" class="clusterblast-orf" id="dummy-2_h2_10_14"  />
</g>
<g id="a2_0015"  >
<polygon points="377,90 395,90 400,85 395,80 377,80 377,90 " style="fill:#d89f15; stroke-width:1; stroke:black; " description="&lt;b&gt;CRO22_RS03125&lt;/b&gt;&lt;br&gt;N-acyl-L-homoserine lactone synthetase&lt;br&gt;Location: 663439 - 662849&lt;br&gt;&lt;br&gt;&lt;b&gt;BlastP hit with PEOEJGFP_02052&lt;/b&gt;&lt;br&gt;Percentage identity: 61&lt;br&gt;Percentage coverage: 101&lt;br&gt;BLAST bit score: 245&lt;br&gt;E-value: 1.39e-81" locus_tag="CRO22_RS03125" class="clusterblast-orf" id="dummy-2_h2_10_15"  />
</g>
<g id="a2_0016"  >
<polygon points="404,90 450,90 455,85 450,80 404,80 404,90 " style="fill:#15d871; stroke-width:1; stroke:black; " description="&lt;b&gt;CRO22_RS03120&lt;/b&gt;&lt;br&gt;replication-associated recombination protein A&lt;br&gt;Location: 662759 - 661452&lt;br&gt;&lt;br&gt;&lt;b&gt;BlastP hit with PEOEJGFP_02053&lt;/b&gt;&lt;br&gt;Percentage identity: 79&lt;br&gt;Percentage coverage: 99&lt;br&gt;BLAST bit score: 677&lt;br&gt;E-value: 1.53e-244" locus_tag="CRO22_RS03120" class="clusterblast-orf" id="dummy-2_h2_10_16"  />
</g>
<g id="a2_0017"  >
<polygon points="457,90 467,90 472,85 467,80 457,80 457,90 " style="fill:#152cd8; stroke-width:1; stroke:black; " description="&lt;b&gt;CRO22_RS03115&lt;/b&gt;&lt;br&gt;fluoride efflux transporter CrcB&lt;br&gt;Location: 661420 - 661043&lt;br&gt;&lt;br&gt;&lt;b&gt;BlastP hit with PEOEJGFP_02054&lt;/b&gt;&lt;br&gt;Percentage identity: 49&lt;br&gt;Percentage coverage: 98&lt;br&gt;BLAST bit score: 96&lt;br&gt;E-value: 1.2e-24" locus_tag="CRO22_RS03115" class="clusterblast-orf" id="dummy-2_h2_10_17"  />
</g>
<g id="a2_0018"  >
<polygon points="472,90 509,90 514,85 509,80 472,80 472,90 " style="fill:#d8159f; stroke-width:1; stroke:black; " description="&lt;b&gt;CRO22_RS03110&lt;/b&gt;&lt;br&gt;RluA family pseudouridine synthase&lt;br&gt;Location: 661046 - 659982&lt;br&gt;&lt;br&gt;&lt;b&gt;BlastP hit with PEOEJGFP_02055&lt;/b&gt;&lt;br&gt;Percentage identity: 73&lt;br&gt;Percentage coverage: 102&lt;br&gt;BLAST bit score: 530&lt;br&gt;E-value: 3.12e-189" locus_tag="CRO22_RS03110" class="clusterblast-orf" id="dummy-2_h2_10_18"  />
</g>
<g id="a2_0019"  >
<polygon points="514,90 535,90 540,85 535,80 514,80 514,90 " style="fill:#cdd815; stroke-width:1; stroke:black; " description="&lt;b&gt;CRO22_RS03105&lt;/b&gt;&lt;br&gt;HAD-IA family hydrolase&lt;br&gt;Location: 659982 - 659326&lt;br&gt;&lt;br&gt;&lt;b&gt;BlastP hit with PEOEJGFP_02056&lt;/b&gt;&lt;br&gt;Percentage identity: 68&lt;br&gt;Percentage coverage: 98&lt;br&gt;BLAST bit score: 289&lt;br&gt;E-value: 3.52e-98" locus_tag="CRO22_RS03105" class="clusterblast-orf" id="dummy-2_h2_10_19"  />
</g>
<g id="a2_0020"  >
<polygon points="539,90 563,90 568,85 563,80 539,80 539,90 " style="fill:#15d8b6; stroke-width:1; stroke:black; " description="&lt;b&gt;CRO22_RS03100&lt;/b&gt;&lt;br&gt;ATPase&lt;br&gt;Location: 659329 - 658616&lt;br&gt;&lt;br&gt;&lt;b&gt;BlastP hit with PEOEJGFP_02057&lt;/b&gt;&lt;br&gt;Percentage identity: 63&lt;br&gt;Percentage coverage: 99&lt;br&gt;BLAST bit score: 278&lt;br&gt;E-value: 3.06e-93" locus_tag="CRO22_RS03100" class="clusterblast-orf" id="dummy-2_h2_10_20"  />
</g>
<g id="a2_0021"  >
<polygon points="576,90 611,90 616,85 611,80 576,80 576,90 " style="fill:#4315d8; stroke-width:1; stroke:black; " description="&lt;b&gt;CRO22_RS03095&lt;/b&gt;&lt;br&gt;amino acid ABC transporter substrate-binding protein&lt;br&gt;Location: 658397 - 657381&lt;br&gt;&lt;br&gt;&lt;b&gt;BlastP hit with PEOEJGFP_02058&lt;/b&gt;&lt;br&gt;Percentage identity: 73&lt;br&gt;Percentage coverage: 100&lt;br&gt;BLAST bit score: 504&lt;br&gt;E-value: 4.06e-179" locus_tag="CRO22_RS03095" class="clusterblast-orf" id="dummy-2_h2_10_21"  />
</g>
<g id="a2_0022"  >
<polygon points="621,90 667,90 672,85 667,80 621,80 621,90 " style="fill:#d8155a; stroke-width:1; stroke:black; " description="&lt;b&gt;CRO22_RS03090&lt;/b&gt;&lt;br&gt;ABC transporter permease subunit&lt;br&gt;Location: 657259 - 655979&lt;br&gt;&lt;br&gt;&lt;b&gt;BlastP hit with PEOEJGFP_02059&lt;/b&gt;&lt;br&gt;Percentage identity: 63&lt;br&gt;Percentage coverage: 101&lt;br&gt;BLAST bit score: 485&lt;br&gt;E-value: 4.37e-169&lt;br&gt;&lt;br&gt;&lt;b&gt;BlastP hit with PEOEJGFP_02060&lt;/b&gt;&lt;br&gt;Percentage identity: 40&lt;br&gt;Percentage coverage: 19&lt;br&gt;BLAST bit score: 68&lt;br&gt;E-value: 3.34e-10" locus_tag="CRO22_RS03090" class="clusterblast-orf" id="dummy-2_h2_10_22"  />
</g>
<g id="a2_0023"  >
<polygon points="672,90 719,90 724,85 719,80 672,80 672,90 " style="fill:#d8155a; stroke-width:1; stroke:black; " description="&lt;b&gt;CRO22_RS03085&lt;/b&gt;&lt;br&gt;amino acid ABC transporter permease&lt;br&gt;Location: 655977 - 654670&lt;br&gt;&lt;br&gt;&lt;b&gt;BlastP hit with PEOEJGFP_02059&lt;/b&gt;&lt;br&gt;Percentage identity: 36&lt;br&gt;Percentage coverage: 27&lt;br&gt;BLAST bit score: 66&lt;br&gt;E-value: 9.83e-10&lt;br&gt;&lt;br&gt;&lt;b&gt;BlastP hit with PEOEJGFP_02060&lt;/b&gt;&lt;br&gt;Percentage identity: 64&lt;br&gt;Percentage coverage: 99&lt;br&gt;BLAST bit score: 550&lt;br&gt;E-value: 4.98e-194" locus_tag="CRO22_RS03085" class="clusterblast-orf" id="dummy-2_h2_10_23"  />
</g>
<g id="a2_0024"  >
<polygon points="724,90 750,90 755,85 750,80 724,80 724,90 " style="fill:#88d815; stroke-width:1; stroke:black; " description="&lt;b&gt;CRO22_RS03080&lt;/b&gt;&lt;br&gt;amino acid ABC transporter ATP-binding protein&lt;br&gt;Location: 654659 - 653874&lt;br&gt;&lt;br&gt;&lt;b&gt;BlastP hit with PEOEJGFP_02061&lt;/b&gt;&lt;br&gt;Percentage identity: 89&lt;br&gt;Percentage coverage: 100&lt;br&gt;BLAST bit score: 471&lt;br&gt;E-value: 7.9e-169" locus_tag="CRO22_RS03080" class="clusterblast-orf" id="dummy-2_h2_10_24"  />
</g>
<g id="a2_0025"  >
<polygon points="759,85 764,80 780,80 780,90 764,90 759,85 " style="fill:white; stroke-width:1; stroke:black; " description="&lt;b&gt;CRO22_RS03075&lt;/b&gt;&lt;br&gt;histidine phosphatase family protein&lt;br&gt;Location: 653780 - 653259" locus_tag="CRO22_RS03075" class="clusterblast-orf" id="dummy-2_h2_10_25"  />
</g>
</svg>
