<svg xmlns="http://www.w3.org/2000/svg" xmlns:xlink="http://www.w3.org/1999/xlink" version="1.1" x="0" y="0" height="230" width="800" viewBox="0 0 800 230" preserveAspectRatio="none"  >
<g label="Query sequence" class="clusterblast-cluster"  >
<text x="5" y="20" class="clusterblast-acc"  >
Query sequence</text>
<line x1="10" y1="35" x2="778.0" y2="35" style="stroke-width:1; stroke:grey; "  />
<polygon points="0,35 5,30 37,30 37,40 5,40 0,35 " style="fill:white; stroke-width:1; stroke:black; " description="&lt;b&gt;PEOEJGFP_03107&lt;/b&gt;&lt;br&gt;Cell shape-determining protein MreB&lt;br&gt;Location: 105514 - 106546" locus_tag="PEOEJGFP_03107" class="clusterblast-orf" id="dummy-1_q0_0_all"  />
<polygon points="49,35 54,30 105,30 105,40 54,40 49,35 " style="fill:white; stroke-width:1; stroke:black; " description="&lt;b&gt;PEOEJGFP_03108&lt;/b&gt;&lt;br&gt;2-isopropylmalate synthase&lt;br&gt;Location: 106872 - 108444" locus_tag="PEOEJGFP_03108" class="clusterblast-orf" id="dummy-1_q1_0_all"  />
<polygon points="117,40 135,40 140,35 135,30 117,30 117,40 " style="fill:white; stroke-width:1; stroke:black; " description="&lt;b&gt;PEOEJGFP_03109&lt;/b&gt;&lt;br&gt;hypothetical protein&lt;br&gt;Location: 108756 - 109407" locus_tag="PEOEJGFP_03109" class="clusterblast-orf" id="dummy-1_q2_0_all"  />
<polygon points="140,40 190,40 195,35 190,30 140,30 140,40 " style="fill:white; stroke-width:1; stroke:black; " description="&lt;b&gt;PEOEJGFP_03110&lt;/b&gt;&lt;br&gt;(6-4) photolyase&lt;br&gt;Location: 109403 - 110942" locus_tag="PEOEJGFP_03110" class="clusterblast-orf" id="dummy-1_q3_0_all"  />
<polygon points="198,35 203,30 251,30 251,40 203,40 198,35 " style="fill:white; stroke-width:1; stroke:black; " description="&lt;b&gt;PEOEJGFP_03111&lt;/b&gt;&lt;br&gt;hypothetical protein&lt;br&gt;Location: 111027 - 112506" locus_tag="PEOEJGFP_03111" class="clusterblast-orf" id="dummy-1_q4_0_all"  />
<polygon points="256,35 261,30 282,30 282,40 261,40 256,35 " style="fill:white; stroke-width:1; stroke:black; " description="&lt;b&gt;PEOEJGFP_03112&lt;/b&gt;&lt;br&gt;Putative aminoacrylate hydrolase RutD&lt;br&gt;Location: 112643 - 113354" locus_tag="PEOEJGFP_03112" class="clusterblast-orf" id="dummy-1_q5_0_all"  />
<polygon points="285,35 290,30 312,30 312,40 290,40 285,35 " style="fill:white; stroke-width:1; stroke:black; " description="&lt;b&gt;PEOEJGFP_03113&lt;/b&gt;&lt;br&gt;hypothetical protein&lt;br&gt;Location: 113451 - 114195" locus_tag="PEOEJGFP_03113" class="clusterblast-orf" id="dummy-1_q6_0_all"  />
<polygon points="319,40 322,35 319,30 319,40 " style="fill:#d81515; stroke-width:1; stroke:black; " description="&lt;b&gt;PEOEJGFP_03114&lt;/b&gt;&lt;br&gt;Coenzyme PQQ synthesis protein A&lt;br&gt;Location: 114374 - 114473" locus_tag="PEOEJGFP_03114" class="clusterblast-orf" id="dummy-1_q7_0_all"  />
<polygon points="323,40 350,40 355,35 350,30 323,30 323,40 " style="fill:#15d863; stroke-width:1; stroke:black; " description="&lt;b&gt;PEOEJGFP_03115&lt;/b&gt;&lt;br&gt;Coenzyme PQQ synthesis protein B&lt;br&gt;Location: 114501 - 115398" locus_tag="PEOEJGFP_03115" class="clusterblast-orf" id="dummy-1_q8_0_all"  />
<polygon points="355,40 377,40 382,35 377,30 355,30 355,40 " style="fill:#1563d8; stroke-width:1; stroke:black; " description="&lt;b&gt;PEOEJGFP_03116&lt;/b&gt;&lt;br&gt;Bifunctional coenzyme PQQ synthesis protein C/D&lt;br&gt;Location: 115394 - 116141" locus_tag="PEOEJGFP_03116" class="clusterblast-orf" id="dummy-1_q9_0_all"  />
<polygon points="382,40 387,40 392,35 387,30 382,30 382,40 " style="fill:#b115d8; stroke-width:1; stroke:black; " description="&lt;b&gt;PEOEJGFP_03117&lt;/b&gt;&lt;br&gt;PqqA binding protein&lt;br&gt;Location: 116137 - 116413" locus_tag="PEOEJGFP_03117" class="clusterblast-orf" id="dummy-1_q10_0_all"  />
<polygon points="392,40 426,40 431,35 426,30 392,30 392,40 " style="fill:#b1d815; stroke-width:1; stroke:black; " description="&lt;b&gt;PEOEJGFP_03118&lt;/b&gt;&lt;br&gt;PqqA peptide cyclase&lt;br&gt;Location: 116409 - 117498" locus_tag="PEOEJGFP_03118" class="clusterblast-orf" id="dummy-1_q11_0_all"  />
<polygon points="435,40 488,40 493,35 488,30 435,30 435,40 " style="fill:white; stroke-width:1; stroke:black; " description="&lt;b&gt;PEOEJGFP_03119&lt;/b&gt;&lt;br&gt;Peptide chain release factor 3&lt;br&gt;Location: 117619 - 119215" locus_tag="PEOEJGFP_03119" class="clusterblast-orf" id="dummy-1_q12_0_all"  />
<polygon points="493,40 513,40 518,35 513,30 493,30 493,40 " style="fill:white; stroke-width:1; stroke:black; " description="&lt;b&gt;PEOEJGFP_03120&lt;/b&gt;&lt;br&gt;hypothetical protein&lt;br&gt;Location: 119211 - 119916" locus_tag="PEOEJGFP_03120" class="clusterblast-orf" id="dummy-1_q13_0_all"  />
<polygon points="518,40 530,40 535,35 530,30 518,30 518,40 " style="fill:white; stroke-width:1; stroke:black; " description="&lt;b&gt;PEOEJGFP_03121&lt;/b&gt;&lt;br&gt;hypothetical protein&lt;br&gt;Location: 119928 - 120396" locus_tag="PEOEJGFP_03121" class="clusterblast-orf" id="dummy-1_q14_0_all"  />
<polygon points="539,40 560,40 565,35 560,30 539,30 539,40 " style="fill:white; stroke-width:1; stroke:black; " description="&lt;b&gt;PEOEJGFP_03122&lt;/b&gt;&lt;br&gt;hypothetical protein&lt;br&gt;Location: 120494 - 121211" locus_tag="PEOEJGFP_03122" class="clusterblast-orf" id="dummy-1_q15_0_all"  />
<polygon points="569,35 574,30 581,30 581,40 574,40 569,35 " style="fill:white; stroke-width:1; stroke:black; " description="&lt;b&gt;PEOEJGFP_03123&lt;/b&gt;&lt;br&gt;Iron-sulfur cluster insertion protein ErpA&lt;br&gt;Location: 121332 - 121662" locus_tag="PEOEJGFP_03123" class="clusterblast-orf" id="dummy-1_q16_0_all"  />
<polygon points="584,40 623,40 628,35 623,30 584,30 584,40 " style="fill:white; stroke-width:1; stroke:black; " description="&lt;b&gt;PEOEJGFP_03124&lt;/b&gt;&lt;br&gt;Deoxyguanosinetriphosphate triphosphohydrolase-like protein&lt;br&gt;Location: 121756 - 122968" locus_tag="PEOEJGFP_03124" class="clusterblast-orf" id="dummy-1_q17_0_all"  />
<polygon points="630,40 640,40 645,35 640,30 630,30 630,40 " style="fill:white; stroke-width:1; stroke:black; " description="&lt;b&gt;PEOEJGFP_03125&lt;/b&gt;&lt;br&gt;Peroxiredoxin OsmC&lt;br&gt;Location: 123030 - 123453" locus_tag="PEOEJGFP_03125" class="clusterblast-orf" id="dummy-1_q18_0_all"  />
<polygon points="652,40 676,40 681,35 676,30 652,30 652,40 " style="fill:white; stroke-width:1; stroke:black; " description="&lt;b&gt;PEOEJGFP_03126&lt;/b&gt;&lt;br&gt;Exodeoxyribonuclease III&lt;br&gt;Location: 123627 - 124434" locus_tag="PEOEJGFP_03126" class="clusterblast-orf" id="dummy-1_q19_0_all"  />
<polygon points="683,40 699,40 704,35 699,30 683,30 683,40 " style="fill:white; stroke-width:1; stroke:black; " description="&lt;b&gt;PEOEJGFP_03127&lt;/b&gt;&lt;br&gt;hypothetical protein&lt;br&gt;Location: 124510 - 125077" locus_tag="PEOEJGFP_03127" class="clusterblast-orf" id="dummy-1_q20_0_all"  />
<polygon points="706,40 749,40 754,35 749,30 706,30 706,40 " style="fill:white; stroke-width:1; stroke:black; " description="&lt;b&gt;PEOEJGFP_03128&lt;/b&gt;&lt;br&gt;8-oxoguanine deaminase&lt;br&gt;Location: 125143 - 126481" locus_tag="PEOEJGFP_03128" class="clusterblast-orf" id="dummy-1_q21_0_all"  />
<polygon points="754,35 759,30 780,30 780,40 759,40 754,35 " style="fill:white; stroke-width:1; stroke:black; " description="&lt;b&gt;PEOEJGFP_03129&lt;/b&gt;&lt;br&gt;hypothetical protein&lt;br&gt;Location: 126470 - 127193" locus_tag="PEOEJGFP_03129" class="clusterblast-orf" id="dummy-1_q22_0_all"  />
</g>
<g label="NZ_FOAI01000014" description="NZ_FOAI01000014 (37385-58423): Roseivivax marinus strain DSM 27511, whole gen... (21% of genes show similarity), terpene" class="clusterblast-cluster"  >
<text x="5" y="70" class="clusterblast-acc"  >
<a xlink:href="https://antismash-db.secondarymetabolites.org/area.html?record=NZ_FOAI01000014&amp;start=37385&amp;end=58423" target="_blank">NZ_FOAI01000014 (37385-58423)</a>: Roseivivax marinus strain DSM 27511, whole gen... (21% of genes show similarity), terpene</text>
<line x1="10" y1="85" x2="778.0" y2="85" style="stroke-width:1; stroke:grey; "  />
</g>
<g id="a1_000"  >
<polygon points="25,85 30,80 43,80 43,90 30,90 25,85 " style="fill:white; stroke-width:1; stroke:black; " description="&lt;b&gt;BMX29_RS15505&lt;/b&gt;&lt;br&gt;protein-export chaperone SecB&lt;br&gt;Location: 37839 - 38357" locus_tag="BMX29_RS15505" class="clusterblast-orf" id="dummy-1_h1_1_0"  />
</g>
<g id="a1_001"  >
<polygon points="45,85 50,80 65,80 65,90 50,90 45,85 " style="fill:white; stroke-width:1; stroke:black; " description="&lt;b&gt;BMX29_RS15510&lt;/b&gt;&lt;br&gt;FxsA family protein&lt;br&gt;Location: 38413 - 38946" locus_tag="BMX29_RS15510" class="clusterblast-orf" id="dummy-1_h1_1_1"  />
</g>
<g id="a1_002"  >
<polygon points="69,90 87,90 92,85 87,80 69,80 69,90 " style="fill:white; stroke-width:1; stroke:black; " description="&lt;b&gt;BMX29_RS15515&lt;/b&gt;&lt;br&gt;Tim44 domain-containing protein&lt;br&gt;Location: 39059 - 39718" locus_tag="BMX29_RS15515" class="clusterblast-orf" id="dummy-1_h1_1_2"  />
</g>
<g id="a1_003"  >
<polygon points="92,90 126,90 131,85 126,80 92,80 92,90 " style="fill:white; stroke-width:1; stroke:black; " description="&lt;b&gt;BMX29_RS15520&lt;/b&gt;&lt;br&gt;murein transglycosylase A&lt;br&gt;Location: 39715 - 40800" locus_tag="BMX29_RS15520" class="clusterblast-orf" id="dummy-1_h1_1_3"  />
</g>
<g id="a1_004"  >
<polygon points="131,90 148,90 153,85 148,80 131,80 131,90 " style="fill:white; stroke-width:1; stroke:black; " description="&lt;b&gt;BMX29_RS15525&lt;/b&gt;&lt;br&gt;Smr/MutS family protein&lt;br&gt;Location: 40797 - 41402" locus_tag="BMX29_RS15525" class="clusterblast-orf" id="dummy-1_h1_1_4"  />
</g>
<g id="a1_005"  >
<polygon points="155,85 160,80 187,80 187,90 160,90 155,85 " style="fill:white; stroke-width:1; stroke:black; " description="&lt;b&gt;BMX29_RS15530&lt;/b&gt;&lt;br&gt;alpha/beta fold hydrolase&lt;br&gt;Location: 41466 - 42338" locus_tag="BMX29_RS15530" class="clusterblast-orf" id="dummy-1_h1_1_5"  />
</g>
<g id="a1_006"  >
<polygon points="187,85 192,80 247,80 247,90 192,90 187,85 " style="fill:white; stroke-width:1; stroke:black; " description="&lt;b&gt;BMX29_RS15535&lt;/b&gt;&lt;br&gt;magnesium chelatase subunit D&lt;br&gt;Location: 42343 - 44019" locus_tag="BMX29_RS15535" class="clusterblast-orf" id="dummy-1_h1_1_6"  />
</g>
<g id="a1_007"  >
<polygon points="247,85 252,80 283,80 283,90 252,90 247,85 " style="fill:white; stroke-width:1; stroke:black; " description="&lt;b&gt;BMX29_RS15540&lt;/b&gt;&lt;br&gt;magnesium chelatase ATPase subunit I&lt;br&gt;Location: 44016 - 45017" locus_tag="BMX29_RS15540" class="clusterblast-orf" id="dummy-1_h1_1_7"  />
</g>
<g id="a1_008"  >
<polygon points="283,85 288,80 308,80 308,90 288,90 283,85 " style="fill:white; stroke-width:1; stroke:black; " description="&lt;b&gt;BMX29_RS15545&lt;/b&gt;&lt;br&gt;spheroidene monooxygenase&lt;br&gt;Location: 45014 - 45724" locus_tag="BMX29_RS15545" class="clusterblast-orf" id="dummy-1_h1_1_8"  />
</g>
<g id="a1_009"  >
<polygon points="313,90 363,90 368,85 363,80 313,80 313,90 " style="fill:white; stroke-width:1; stroke:black; " description="&lt;b&gt;BMX29_RS15550&lt;/b&gt;&lt;br&gt;phytoene desaturase&lt;br&gt;Location: 45845 - 47389" locus_tag="BMX29_RS15550" class="clusterblast-orf" id="dummy-1_h1_1_9"  />
</g>
<g id="a1_0010"  >
<polygon points="368,90 401,90 406,85 401,80 368,80 368,90 " style="fill:white; stroke-width:1; stroke:black; " description="&lt;b&gt;BMX29_RS15555&lt;/b&gt;&lt;br&gt;phytoene/squalene synthase family protein&lt;br&gt;Location: 47386 - 48423" locus_tag="BMX29_RS15555" class="clusterblast-orf" id="dummy-1_h1_1_10"  />
</g>
<g id="a1_0011"  >
<polygon points="406,90 421,90 426,85 421,80 406,80 406,90 " style="fill:white; stroke-width:1; stroke:black; " description="&lt;b&gt;BMX29_RS15560&lt;/b&gt;&lt;br&gt;tryptophan-rich sensory protein&lt;br&gt;Location: 48429 - 48989" locus_tag="BMX29_RS15560" class="clusterblast-orf" id="dummy-1_h1_1_11"  />
</g>
<g id="a1_0012"  >
<polygon points="423,85 428,80 460,80 460,90 428,90 423,85 " style="fill:white; stroke-width:1; stroke:black; " description="&lt;b&gt;BMX29_RS15565&lt;/b&gt;&lt;br&gt;histone deacetylase family protein&lt;br&gt;Location: 48914 - 49948" locus_tag="BMX29_RS15565" class="clusterblast-orf" id="dummy-1_h1_1_12"  />
</g>
<g id="a1_0013"  >
<polygon points="467,85 472,80 474,80 474,90 472,90 467,85 " style="fill:white; stroke-width:1; stroke:black; " description="&lt;b&gt;BMX29_RS15570&lt;/b&gt;&lt;br&gt;hypothetical protein&lt;br&gt;Location: 50118 - 50321" locus_tag="BMX29_RS15570" class="clusterblast-orf" id="dummy-1_h1_1_13"  />
</g>
<g id="a1_0014"  >
<polygon points="480,90 532,90 537,85 532,80 480,80 480,90 " style="fill:white; stroke-width:1; stroke:black; " description="&lt;b&gt;BMX29_RS15575&lt;/b&gt;&lt;br&gt;HAMP domain-containing histidine kinase&lt;br&gt;Location: 50495 - 52072" locus_tag="BMX29_RS15575" class="clusterblast-orf" id="dummy-1_h1_1_14"  />
</g>
<g id="a1_0015"  >
<polygon points="537,90 557,90 562,85 557,80 537,80 537,90 " style="fill:white; stroke-width:1; stroke:black; " description="&lt;b&gt;BMX29_RS15580&lt;/b&gt;&lt;br&gt;response regulator transcription factor&lt;br&gt;Location: 52083 - 52766" locus_tag="BMX29_RS15580" class="clusterblast-orf" id="dummy-1_h1_1_15"  />
</g>
<g id="a1_0016"  >
<polygon points="565,90 569,85 565,80 565,90 " style="fill:#d81515; stroke-width:1; stroke:black; " description="&lt;b&gt;BMX29_RS15585&lt;/b&gt;&lt;br&gt;pyrroloquinoline quinone precursor peptide PqqA&lt;br&gt;Location: 52865 - 52954&lt;br&gt;&lt;br&gt;&lt;b&gt;BlastP hit with PEOEJGFP_03114&lt;/b&gt;&lt;br&gt;Percentage identity: 66&lt;br&gt;Percentage coverage: 100&lt;br&gt;BLAST bit score: 52&lt;br&gt;E-value: 9.3e-10" locus_tag="BMX29_RS15585" class="clusterblast-orf" id="dummy-1_h1_1_16"  />
</g>
<g id="a1_0017"  >
<polygon points="570,90 597,90 602,85 597,80 570,80 570,90 " style="fill:#15d863; stroke-width:1; stroke:black; " description="&lt;b&gt;BMX29_RS15590&lt;/b&gt;&lt;br&gt;pyrroloquinoline quinone biosynthesis protein PqqB&lt;br&gt;Location: 52981 - 53877&lt;br&gt;&lt;br&gt;&lt;b&gt;BlastP hit with PEOEJGFP_03115&lt;/b&gt;&lt;br&gt;Percentage identity: 74&lt;br&gt;Percentage coverage: 100&lt;br&gt;BLAST bit score: 443&lt;br&gt;E-value: 2.25e-156" locus_tag="BMX29_RS15590" class="clusterblast-orf" id="dummy-1_h1_1_17"  />
</g>
<g id="a1_0018"  >
<polygon points="602,90 624,90 629,85 624,80 602,80 602,90 " style="fill:#1563d8; stroke-width:1; stroke:black; " description="&lt;b&gt;BMX29_RS15595&lt;/b&gt;&lt;br&gt;pyrroloquinoline-quinone synthase PqqC&lt;br&gt;Location: 53874 - 54623&lt;br&gt;&lt;br&gt;&lt;b&gt;BlastP hit with PEOEJGFP_03116&lt;/b&gt;&lt;br&gt;Percentage identity: 83&lt;br&gt;Percentage coverage: 100&lt;br&gt;BLAST bit score: 425&lt;br&gt;E-value: 5.42e-151" locus_tag="BMX29_RS15595" class="clusterblast-orf" id="dummy-1_h1_1_18"  />
</g>
<g id="a1_0019"  >
<polygon points="629,90 634,90 639,85 634,80 629,80 629,90 " style="fill:#b115d8; stroke-width:1; stroke:black; " description="&lt;b&gt;BMX29_RS15600&lt;/b&gt;&lt;br&gt;pyrroloquinoline quinone biosynthesis peptide chaperone PqqD&lt;br&gt;Location: 54623 - 54898&lt;br&gt;&lt;br&gt;&lt;b&gt;BlastP hit with PEOEJGFP_03117&lt;/b&gt;&lt;br&gt;Percentage identity: 57&lt;br&gt;Percentage coverage: 92&lt;br&gt;BLAST bit score: 104&lt;br&gt;E-value: 4.14e-29" locus_tag="BMX29_RS15600" class="clusterblast-orf" id="dummy-1_h1_1_19"  />
</g>
<g id="a1_0020"  >
<polygon points="638,90 674,90 679,85 674,80 638,80 638,90 " style="fill:#b1d815; stroke-width:1; stroke:black; " description="&lt;b&gt;BMX29_RS15605&lt;/b&gt;&lt;br&gt;pyrroloquinoline quinone biosynthesis protein PqqE&lt;br&gt;Location: 54895 - 56016&lt;br&gt;&lt;br&gt;&lt;b&gt;BlastP hit with PEOEJGFP_03118&lt;/b&gt;&lt;br&gt;Percentage identity: 72&lt;br&gt;Percentage coverage: 98&lt;br&gt;BLAST bit score: 532&lt;br&gt;E-value: 2.86e-189" locus_tag="BMX29_RS15605" class="clusterblast-orf" id="dummy-1_h1_1_20"  />
</g>
<g id="a1_0021"  >
<polygon points="682,90 711,90 716,85 711,80 682,80 682,90 " style="fill:white; stroke-width:1; stroke:black; " description="&lt;b&gt;BMX29_RS15610&lt;/b&gt;&lt;br&gt;hypothetical protein&lt;br&gt;Location: 56104 - 57054" locus_tag="BMX29_RS15610" class="clusterblast-orf" id="dummy-1_h1_1_21"  />
</g>
<g id="a1_0022"  >
<polygon points="720,90 749,90 754,85 749,80 720,80 720,90 " style="fill:white; stroke-width:1; stroke:black; " description="&lt;b&gt;BMX29_RS15615&lt;/b&gt;&lt;br&gt;AAA family ATPase&lt;br&gt;Location: 57155 - 58111" locus_tag="BMX29_RS15615" class="clusterblast-orf" id="dummy-1_h1_1_22"  />
</g>
</svg>
