<svg xmlns="http://www.w3.org/2000/svg" xmlns:xlink="http://www.w3.org/1999/xlink" version="1.1" x="0" y="0" height="230" width="800" viewBox="0 0 800 230" preserveAspectRatio="none"  >
<g label="Query sequence" class="clusterblast-cluster"  >
<text x="5" y="20" class="clusterblast-acc"  >
Query sequence</text>
<line x1="10" y1="35" x2="778.0" y2="35" style="stroke-width:1; stroke:grey; "  />
<polygon points="0,40 77,40 82,35 77,30 0,30 0,40 " style="fill:#d81515; stroke-width:1; stroke:black; " description="&lt;b&gt;PEOEJGFP_00119&lt;/b&gt;&lt;br&gt;Protein translocase subunit SecA&lt;br&gt;Location: 164919 - 166914" locus_tag="PEOEJGFP_00119" class="clusterblast-orf" id="dummy-1_q0_0_all"  />
<polygon points="82,40 110,40 115,35 110,30 82,30 82,40 " style="fill:#63d815; stroke-width:1; stroke:black; " description="&lt;b&gt;PEOEJGFP_00120&lt;/b&gt;&lt;br&gt;Cobalt-zinc-cadmium resistance protein CzcB&lt;br&gt;Location: 166927 - 167734" locus_tag="PEOEJGFP_00120" class="clusterblast-orf" id="dummy-1_q1_0_all"  />
<polygon points="118,35 123,30 130,30 130,40 123,40 118,35 " style="fill:#15b1d8; stroke-width:1; stroke:black; " description="&lt;b&gt;PEOEJGFP_00121&lt;/b&gt;&lt;br&gt;hypothetical protein&lt;br&gt;Location: 167794 - 168091" locus_tag="PEOEJGFP_00121" class="clusterblast-orf" id="dummy-1_q2_0_all"  />
<polygon points="140,35 145,30 178,30 178,40 145,40 140,35 " style="fill:#b115d8; stroke-width:1; stroke:black; " description="&lt;b&gt;PEOEJGFP_00122&lt;/b&gt;&lt;br&gt;hypothetical protein&lt;br&gt;Location: 168342 - 169257" locus_tag="PEOEJGFP_00122" class="clusterblast-orf" id="dummy-1_q3_0_all"  />
<polygon points="179,35 184,30 254,30 254,40 184,40 179,35 " style="fill:#d86315; stroke-width:1; stroke:black; " description="&lt;b&gt;PEOEJGFP_00123&lt;/b&gt;&lt;br&gt;hypothetical protein&lt;br&gt;Location: 169289 - 171107" locus_tag="PEOEJGFP_00123" class="clusterblast-orf" id="dummy-1_q4_0_all"  />
<polygon points="312,35 317,30 329,30 329,40 317,40 312,35 " style="fill:#15d815; stroke-width:1; stroke:black; " description="&lt;b&gt;PEOEJGFP_00125&lt;/b&gt;&lt;br&gt;hypothetical protein&lt;br&gt;Location: 172512 - 172944" locus_tag="PEOEJGFP_00125" class="clusterblast-orf" id="dummy-1_q5_0_all"  />
<polygon points="332,40 353,40 358,35 353,30 332,30 332,40 " style="fill:#15d815; stroke-width:1; stroke:black; " description="&lt;b&gt;PEOEJGFP_00126&lt;/b&gt;&lt;br&gt;hypothetical protein&lt;br&gt;Location: 173008 - 173647" locus_tag="PEOEJGFP_00126" class="clusterblast-orf" id="dummy-1_q6_0_all"  />
<polygon points="361,40 384,40 389,35 384,30 361,30 361,40 " style="fill:#1563d8; stroke-width:1; stroke:black; " description="&lt;b&gt;PEOEJGFP_00127&lt;/b&gt;&lt;br&gt;hypothetical protein&lt;br&gt;Location: 173719 - 174385" locus_tag="PEOEJGFP_00127" class="clusterblast-orf" id="dummy-1_q7_0_all"  />
<polygon points="392,35 397,30 410,30 410,40 397,40 392,35 " style="fill:#d815b1; stroke-width:1; stroke:black; " description="&lt;b&gt;PEOEJGFP_00128&lt;/b&gt;&lt;br&gt;Universal stress protein F&lt;br&gt;Location: 174468 - 174900" locus_tag="PEOEJGFP_00128" class="clusterblast-orf" id="dummy-1_q8_0_all"  />
<polygon points="410,35 415,30 517,30 517,40 415,40 410,35 " style="fill:#d8b115; stroke-width:1; stroke:black; " description="&lt;b&gt;PEOEJGFP_00129&lt;/b&gt;&lt;br&gt;hypothetical protein&lt;br&gt;Location: 174896 - 177512" locus_tag="PEOEJGFP_00129" class="clusterblast-orf" id="dummy-1_q9_0_all"  />
<polygon points="521,35 526,30 561,30 561,40 526,40 521,35 " style="fill:#15d863; stroke-width:1; stroke:black; " description="&lt;b&gt;PEOEJGFP_00130&lt;/b&gt;&lt;br&gt;hypothetical protein&lt;br&gt;Location: 177620 - 178595" locus_tag="PEOEJGFP_00130" class="clusterblast-orf" id="dummy-1_q10_0_all"  />
<polygon points="563,35 568,30 599,30 599,40 568,40 563,35 " style="fill:#1515d8; stroke-width:1; stroke:black; " description="&lt;b&gt;PEOEJGFP_00131&lt;/b&gt;&lt;br&gt;hypothetical protein&lt;br&gt;Location: 178645 - 179509" locus_tag="PEOEJGFP_00131" class="clusterblast-orf" id="dummy-1_q11_0_all"  />
<polygon points="605,40 654,40 659,35 654,30 605,30 605,40 " style="fill:#d81563; stroke-width:1; stroke:black; " description="&lt;b&gt;PEOEJGFP_00132&lt;/b&gt;&lt;br&gt;putative aminotransferase&lt;br&gt;Location: 179650 - 180973" locus_tag="PEOEJGFP_00132" class="clusterblast-orf" id="dummy-1_q12_0_all"  />
<polygon points="659,40 685,40 690,35 685,30 659,30 659,40 " style="fill:#b1d815; stroke-width:1; stroke:black; " description="&lt;b&gt;PEOEJGFP_00133&lt;/b&gt;&lt;br&gt;3-keto-5-aminohexanoate cleavage enzyme&lt;br&gt;Location: 180969 - 181722" locus_tag="PEOEJGFP_00133" class="clusterblast-orf" id="dummy-1_q13_0_all"  />
<polygon points="690,35 695,30 748,30 748,40 695,40 690,35 " style="fill:#15d8b1; stroke-width:1; stroke:black; " description="&lt;b&gt;PEOEJGFP_00134&lt;/b&gt;&lt;br&gt;Dihydrolipoyl dehydrogenase&lt;br&gt;Location: 181718 - 183140" locus_tag="PEOEJGFP_00134" class="clusterblast-orf" id="dummy-1_q14_0_all"  />
<polygon points="749,35 754,30 780,30 780,40 754,40 749,35 " style="fill:#6315d8; stroke-width:1; stroke:black; " description="&lt;b&gt;PEOEJGFP_00135&lt;/b&gt;&lt;br&gt;hypothetical protein&lt;br&gt;Location: 183173 - 183917" locus_tag="PEOEJGFP_00135" class="clusterblast-orf" id="dummy-1_q15_0_all"  />
</g>
<g label="NZ_QJJL01000005" description="NZ_QJJL01000005 (133319-153997): Loktanella sp. PT4BL Ga0206391 105, whole ge... (14% of genes show similarity), hserlactone" class="clusterblast-cluster"  >
<text x="5" y="70" class="clusterblast-acc"  >
<a xlink:href="https://antismash-db.secondarymetabolites.org/area.html?record=NZ_QJJL01000005&amp;start=133319&amp;end=153997" target="_blank">NZ_QJJL01000005 (133319-153997)</a>: Loktanella sp. PT4BL Ga0206391 105, whole ge... (14% of genes show similarity), hserlactone</text>
<line x1="10" y1="85" x2="778.0" y2="85" style="stroke-width:1; stroke:grey; "  />
</g>
<g id="a1_000"  >
<polygon points="2,90 27,90 32,85 27,80 2,80 2,90 " style="fill:white; stroke-width:1; stroke:black; " description="&lt;b&gt;C7964_RS15395&lt;/b&gt;&lt;br&gt;heme ABC transporter permease&lt;br&gt;Location: 133521 - 134249" locus_tag="C7964_RS15395" class="clusterblast-orf" id="dummy-1_h1_6_0"  />
</g>
<g id="a1_001"  >
<polygon points="32,90 33,90 38,85 33,80 32,80 32,90 " style="fill:white; stroke-width:1; stroke:black; " description="&lt;b&gt;C7964_RS15400&lt;/b&gt;&lt;br&gt;heme exporter protein CcmD&lt;br&gt;Location: 134242 - 134385" locus_tag="C7964_RS15400" class="clusterblast-orf" id="dummy-1_h1_6_1"  />
</g>
<g id="a1_002"  >
<polygon points="37,90 54,90 59,85 54,80 37,80 37,90 " style="fill:white; stroke-width:1; stroke:black; " description="&lt;b&gt;C7964_RS15405&lt;/b&gt;&lt;br&gt;DsbE family thiol:disulfide interchange protein&lt;br&gt;Location: 134378 - 134914" locus_tag="C7964_RS15405" class="clusterblast-orf" id="dummy-1_h1_6_2"  />
</g>
<g id="a1_003"  >
<polygon points="62,85 67,80 175,80 175,90 67,90 62,85 " style="fill:white; stroke-width:1; stroke:black; " description="&lt;b&gt;C7964_RS15410&lt;/b&gt;&lt;br&gt;aconitate hydratase AcnA&lt;br&gt;Location: 134981 - 137734" locus_tag="C7964_RS15410" class="clusterblast-orf" id="dummy-1_h1_6_3"  />
</g>
<g id="a1_004"  >
<polygon points="185,90 208,90 213,85 208,80 185,80 185,90 " style="fill:white; stroke-width:1; stroke:black; " description="&lt;b&gt;C7964_RS15415&lt;/b&gt;&lt;br&gt;DUF1223 domain-containing protein&lt;br&gt;Location: 137968 - 138660" locus_tag="C7964_RS15415" class="clusterblast-orf" id="dummy-1_h1_6_4"  />
</g>
<g id="a1_005"  >
<polygon points="213,85 218,80 250,80 250,90 218,90 213,85 " style="fill:white; stroke-width:1; stroke:black; " description="&lt;b&gt;C7964_RS15420&lt;/b&gt;&lt;br&gt;lauroyl acyltransferase&lt;br&gt;Location: 138657 - 139547" locus_tag="C7964_RS15420" class="clusterblast-orf" id="dummy-1_h1_6_5"  />
</g>
<g id="a1_006"  >
<polygon points="250,85 255,80 276,80 276,90 255,90 250,85 " style="fill:white; stroke-width:1; stroke:black; " description="&lt;b&gt;C7964_RS15425&lt;/b&gt;&lt;br&gt;nitrile hydratase subunit alpha&lt;br&gt;Location: 139544 - 140188" locus_tag="C7964_RS15425" class="clusterblast-orf" id="dummy-1_h1_6_6"  />
</g>
<g id="a1_007"  >
<polygon points="276,85 281,80 288,80 288,90 281,90 276,85 " style="fill:white; stroke-width:1; stroke:black; " description="&lt;b&gt;C7964_RS15430&lt;/b&gt;&lt;br&gt;nitrile hydratase subunit beta&lt;br&gt;Location: 140178 - 140480" locus_tag="C7964_RS15430" class="clusterblast-orf" id="dummy-1_h1_6_7"  />
</g>
<g id="a1_008"  >
<polygon points="287,85 292,80 300,80 300,90 292,90 287,85 " style="fill:white; stroke-width:1; stroke:black; " description="&lt;b&gt;C7964_RS15435&lt;/b&gt;&lt;br&gt;nitrile hydratase subunit beta&lt;br&gt;Location: 140458 - 140763" locus_tag="C7964_RS15435" class="clusterblast-orf" id="dummy-1_h1_6_8"  />
</g>
<g id="a1_009"  >
<polygon points="303,85 308,80 347,80 347,90 308,90 303,85 " style="fill:white; stroke-width:1; stroke:black; " description="&lt;b&gt;C7964_RS15440&lt;/b&gt;&lt;br&gt;flagellar motor switch protein FliG&lt;br&gt;Location: 140856 - 141911" locus_tag="C7964_RS15440" class="clusterblast-orf" id="dummy-1_h1_6_9"  />
</g>
<g id="a1_0010"  >
<polygon points="349,85 354,80 369,80 369,90 354,90 349,85 " style="fill:#15d815; stroke-width:1; stroke:black; " description="&lt;b&gt;C7964_RS15445&lt;/b&gt;&lt;br&gt;autoinducer binding domain-containing protein&lt;br&gt;Location: 141960 - 142448&lt;br&gt;&lt;br&gt;&lt;b&gt;BlastP hit with PEOEJGFP_00125&lt;/b&gt;&lt;br&gt;Percentage identity: 40&lt;br&gt;Percentage coverage: 95&lt;br&gt;BLAST bit score: 121&lt;br&gt;E-value: 4.8e-34" locus_tag="C7964_RS15445" class="clusterblast-orf" id="dummy-1_h1_6_10"  />
</g>
<g id="a1_0011"  >
<polygon points="374,90 394,90 399,85 394,80 374,80 374,90 " style="fill:#15d815; stroke-width:1; stroke:black; " description="&lt;b&gt;C7964_RS15450&lt;/b&gt;&lt;br&gt;LuxR family transcriptional regulator&lt;br&gt;Location: 142586 - 143194&lt;br&gt;&lt;br&gt;&lt;b&gt;BlastP hit with PEOEJGFP_00126&lt;/b&gt;&lt;br&gt;Percentage identity: 42&lt;br&gt;Percentage coverage: 90&lt;br&gt;BLAST bit score: 153&lt;br&gt;E-value: 7.13e-45" locus_tag="C7964_RS15450" class="clusterblast-orf" id="dummy-1_h1_6_11"  />
</g>
<g id="a1_0012"  >
<polygon points="405,90 427,90 432,85 427,80 405,80 405,90 " style="fill:#1563d8; stroke-width:1; stroke:black; " description="&lt;b&gt;C7964_RS15455&lt;/b&gt;&lt;br&gt;autoinducer synthase&lt;br&gt;Location: 143320 - 143997&lt;br&gt;&lt;br&gt;&lt;b&gt;BlastP hit with PEOEJGFP_00127&lt;/b&gt;&lt;br&gt;Percentage identity: 58&lt;br&gt;Percentage coverage: 87&lt;br&gt;BLAST bit score: 232&lt;br&gt;E-value: 1.94e-75" locus_tag="C7964_RS15455" class="clusterblast-orf" id="dummy-1_h1_6_12"  />
</g>
<g id="a1_0013"  >
<polygon points="435,85 440,80 488,80 488,90 440,90 435,85 " style="fill:white; stroke-width:1; stroke:black; " description="&lt;b&gt;C7964_RS15460&lt;/b&gt;&lt;br&gt;adenylosuccinate lyase&lt;br&gt;Location: 144059 - 145363" locus_tag="C7964_RS15460" class="clusterblast-orf" id="dummy-1_h1_6_13"  />
</g>
<g id="a1_0014"  >
<polygon points="492,90 504,90 509,85 504,80 492,80 492,90 " style="fill:white; stroke-width:1; stroke:black; " description="&lt;b&gt;C7964_RS15465&lt;/b&gt;&lt;br&gt;hypothetical protein&lt;br&gt;Location: 145457 - 145870" locus_tag="C7964_RS15465" class="clusterblast-orf" id="dummy-1_h1_6_14"  />
</g>
<g id="a1_0015"  >
<polygon points="512,90 532,90 537,85 532,80 512,80 512,90 " style="fill:white; stroke-width:1; stroke:black; " description="&lt;b&gt;C7964_RS15470&lt;/b&gt;&lt;br&gt;biotin transporter BioY&lt;br&gt;Location: 145946 - 146548" locus_tag="C7964_RS15470" class="clusterblast-orf" id="dummy-1_h1_6_15"  />
</g>
<g id="a1_0016"  >
<polygon points="539,85 544,80 589,80 589,90 544,90 539,85 " style="fill:white; stroke-width:1; stroke:black; " description="&lt;b&gt;C7964_RS15475&lt;/b&gt;&lt;br&gt;OsmC family protein&lt;br&gt;Location: 146601 - 147809" locus_tag="C7964_RS15475" class="clusterblast-orf" id="dummy-1_h1_6_16"  />
</g>
<g id="a1_0017"  >
<polygon points="594,85 599,80 608,80 608,90 599,90 594,85 " style="fill:white; stroke-width:1; stroke:black; " description="&lt;b&gt;C7964_RS15480&lt;/b&gt;&lt;br&gt;hypothetical protein&lt;br&gt;Location: 147943 - 148287" locus_tag="C7964_RS15480" class="clusterblast-orf" id="dummy-1_h1_6_17"  />
</g>
<g id="a1_0018"  >
<polygon points="612,85 617,80 688,80 688,90 617,90 612,85 " style="fill:white; stroke-width:1; stroke:black; " description="&lt;b&gt;C7964_RS15485&lt;/b&gt;&lt;br&gt;ABC transporter substrate-binding protein&lt;br&gt;Location: 148375 - 150225" locus_tag="C7964_RS15485" class="clusterblast-orf" id="dummy-1_h1_6_18"  />
</g>
<g id="a1_0019"  >
<polygon points="695,85 700,80 759,80 759,90 700,90 695,85 " style="fill:white; stroke-width:1; stroke:black; " description="&lt;b&gt;C7964_RS15490&lt;/b&gt;&lt;br&gt;alanine:cation symporter family protein&lt;br&gt;Location: 150385 - 151941" locus_tag="C7964_RS15490" class="clusterblast-orf" id="dummy-1_h1_6_19"  />
</g>
<g id="a1_0020"  >
<polygon points="759,85 764,80 777,80 777,90 764,90 759,85 " style="fill:white; stroke-width:1; stroke:black; " description="&lt;b&gt;C7964_RS15495&lt;/b&gt;&lt;br&gt;universal stress protein&lt;br&gt;Location: 151954 - 152385" locus_tag="C7964_RS15495" class="clusterblast-orf" id="dummy-1_h1_6_20"  />
</g>
</svg>
