<svg xmlns="http://www.w3.org/2000/svg" xmlns:xlink="http://www.w3.org/1999/xlink" version="1.1" x="0" y="0" height="230" width="800" viewBox="0 0 800 230" preserveAspectRatio="none"  >
<g label="Query sequence" class="clusterblast-cluster"  >
<text x="5" y="20" class="clusterblast-acc"  >
Query sequence</text>
<line x1="10" y1="35" x2="778.0" y2="35" style="stroke-width:1; stroke:grey; "  />
<polygon points="15,40 93,40 98,35 93,30 15,30 15,40 " style="fill:#d81515; stroke-width:1; stroke:black; " description="&lt;b&gt;PEOEJGFP_02025&lt;/b&gt;&lt;br&gt;Diacylglycerol kinase&lt;br&gt;Location: 167362 - 168340" locus_tag="PEOEJGFP_02025" class="clusterblast-orf" id="dummy-1_q0_0_all"  />
<polygon points="98,40 159,40 164,35 159,30 98,30 98,40 " style="fill:#15d815; stroke-width:1; stroke:black; " description="&lt;b&gt;PEOEJGFP_02026&lt;/b&gt;&lt;br&gt;3',5'-cyclic adenosine monophosphate phosphodiesterase CpdA&lt;br&gt;Location: 168336 - 169122" locus_tag="PEOEJGFP_02026" class="clusterblast-orf" id="dummy-1_q1_0_all"  />
<polygon points="165,35 170,30 215,30 215,40 170,40 165,35 " style="fill:#1597d8; stroke-width:1; stroke:black; " description="&lt;b&gt;PEOEJGFP_02027&lt;/b&gt;&lt;br&gt;hypothetical protein&lt;br&gt;Location: 169125 - 169722" locus_tag="PEOEJGFP_02027" class="clusterblast-orf" id="dummy-1_q2_0_all"  />
<polygon points="227,40 267,40 272,35 267,30 227,30 227,40 " style="fill:#9715d8; stroke-width:1; stroke:black; " description="&lt;b&gt;PEOEJGFP_02028&lt;/b&gt;&lt;br&gt;L-2,4-diaminobutyric acid acetyltransferase&lt;br&gt;Location: 169859 - 170390" locus_tag="PEOEJGFP_02028" class="clusterblast-orf" id="dummy-1_q3_0_all"  />
<polygon points="275,40 379,40 384,35 379,30 275,30 275,40 " style="fill:#d89715; stroke-width:1; stroke:black; " description="&lt;b&gt;PEOEJGFP_02029&lt;/b&gt;&lt;br&gt;Diaminobutyrate--2-oxoglutarate transaminase&lt;br&gt;Location: 170435 - 171722" locus_tag="PEOEJGFP_02029" class="clusterblast-orf" id="dummy-1_q4_0_all"  />
<polygon points="389,40 418,40 423,35 418,30 389,30 389,40 " style="fill:#15d897; stroke-width:1; stroke:black; " description="&lt;b&gt;PEOEJGFP_02030&lt;/b&gt;&lt;br&gt;L-ectoine synthase&lt;br&gt;Location: 171776 - 172178" locus_tag="PEOEJGFP_02030" class="clusterblast-orf" id="dummy-1_q5_0_all"  />
<polygon points="424,40 540,40 545,35 540,30 424,30 424,40 " style="fill:#1515d8; stroke-width:1; stroke:black; " description="&lt;b&gt;PEOEJGFP_02031&lt;/b&gt;&lt;br&gt;Aspartate kinase Ask Ect&lt;br&gt;Location: 172188 - 173619" locus_tag="PEOEJGFP_02031" class="clusterblast-orf" id="dummy-1_q6_0_all"  />
<polygon points="560,40 675,40 680,35 675,30 560,30 560,40 " style="fill:#d81597; stroke-width:1; stroke:black; " description="&lt;b&gt;PEOEJGFP_02032&lt;/b&gt;&lt;br&gt;hypothetical protein&lt;br&gt;Location: 173791 - 175210" locus_tag="PEOEJGFP_02032" class="clusterblast-orf" id="dummy-1_q7_0_all"  />
<polygon points="679,40 760,40 765,35 760,30 679,30 679,40 " style="fill:#97d815; stroke-width:1; stroke:black; " description="&lt;b&gt;PEOEJGFP_02033&lt;/b&gt;&lt;br&gt;Cytochrome bd-I ubiquinol oxidase subunit 2&lt;br&gt;Location: 175206 - 176220" locus_tag="PEOEJGFP_02033" class="clusterblast-orf" id="dummy-1_q8_0_all"  />
</g>
<g label="NZ_QETF01000003" description="NZ_QETF01000003 (168626-179022): Rhodobacteraceae bacterium WDS4C29 contig3, ... (55% of genes show similarity), ectoine" class="clusterblast-cluster"  >
<text x="5" y="70" class="clusterblast-acc"  >
<a xlink:href="https://antismash-db.secondarymetabolites.org/area.html?record=NZ_QETF01000003&amp;start=168626&amp;end=179022" target="_blank">NZ_QETF01000003 (168626-179022)</a>: Rhodobacteraceae bacterium WDS4C29 contig3, ... (55% of genes show similarity), ectoine</text>
<line x1="10" y1="85" x2="778.0" y2="85" style="stroke-width:1; stroke:grey; "  />
</g>
<g id="a1_000"  >
<polygon points="0,90 128,90 133,85 128,80 0,80 0,90 " style="fill:white; stroke-width:1; stroke:black; " description="&lt;b&gt;DFK10_RS04335&lt;/b&gt;&lt;br&gt;glycerol-3-phosphate dehydrogenase&lt;br&gt;Location: 178209 - 176632" locus_tag="DFK10_RS04335" class="clusterblast-orf" id="dummy-1_h1_6_0"  />
</g>
<g id="a1_001"  >
<polygon points="134,85 139,80 176,80 176,90 139,90 134,85 " style="fill:#1597d8; stroke-width:1; stroke:black; " description="&lt;b&gt;DFK10_RS04330&lt;/b&gt;&lt;br&gt;MarR family transcriptional regulator&lt;br&gt;Location: 176621 - 176124&lt;br&gt;&lt;br&gt;&lt;b&gt;BlastP hit with PEOEJGFP_02027&lt;/b&gt;&lt;br&gt;Percentage identity: 65&lt;br&gt;Percentage coverage: 79&lt;br&gt;BLAST bit score: 192&lt;br&gt;E-value: 3.57e-61" locus_tag="DFK10_RS04330" class="clusterblast-orf" id="dummy-1_h1_6_1"  />
</g>
<g id="a1_002"  >
<polygon points="195,90 236,90 241,85 236,80 195,80 195,90 " style="fill:#9715d8; stroke-width:1; stroke:black; " description="&lt;b&gt;DFK10_RS04325&lt;/b&gt;&lt;br&gt;diaminobutyrate acetyltransferase&lt;br&gt;Location: 175896 - 175363&lt;br&gt;&lt;br&gt;&lt;b&gt;BlastP hit with PEOEJGFP_02028&lt;/b&gt;&lt;br&gt;Percentage identity: 66&lt;br&gt;Percentage coverage: 86&lt;br&gt;BLAST bit score: 216&lt;br&gt;E-value: 1.76e-70" locus_tag="DFK10_RS04325" class="clusterblast-orf" id="dummy-1_h1_6_2"  />
</g>
<g id="a1_003"  >
<polygon points="245,90 349,90 354,85 349,80 245,80 245,90 " style="fill:#d89715; stroke-width:1; stroke:black; " description="&lt;b&gt;DFK10_RS04320&lt;/b&gt;&lt;br&gt;diaminobutyrate--2-oxoglutarate transaminase&lt;br&gt;Location: 175314 - 174028&lt;br&gt;&lt;br&gt;&lt;b&gt;BlastP hit with PEOEJGFP_02029&lt;/b&gt;&lt;br&gt;Percentage identity: 79&lt;br&gt;Percentage coverage: 98&lt;br&gt;BLAST bit score: 669&lt;br&gt;E-value: 1.86e-241" locus_tag="DFK10_RS04320" class="clusterblast-orf" id="dummy-1_h1_6_3"  />
</g>
<g id="a1_004"  >
<polygon points="354,90 383,90 388,85 383,80 354,80 354,90 " style="fill:#15d897; stroke-width:1; stroke:black; " description="&lt;b&gt;DFK10_RS04315&lt;/b&gt;&lt;br&gt;ectoine synthase&lt;br&gt;Location: 174022 - 173627&lt;br&gt;&lt;br&gt;&lt;b&gt;BlastP hit with PEOEJGFP_02030&lt;/b&gt;&lt;br&gt;Percentage identity: 73&lt;br&gt;Percentage coverage: 98&lt;br&gt;BLAST bit score: 193&lt;br&gt;E-value: 6.94e-63" locus_tag="DFK10_RS04315" class="clusterblast-orf" id="dummy-1_h1_6_4"  />
</g>
<g id="a1_005"  >
<polygon points="388,90 503,90 508,85 503,80 388,80 388,90 " style="fill:#1515d8; stroke-width:1; stroke:black; " description="&lt;b&gt;DFK10_RS04310&lt;/b&gt;&lt;br&gt;aspartate kinase&lt;br&gt;Location: 173625 - 172201&lt;br&gt;&lt;br&gt;&lt;b&gt;BlastP hit with PEOEJGFP_02031&lt;/b&gt;&lt;br&gt;Percentage identity: 78&lt;br&gt;Percentage coverage: 97&lt;br&gt;BLAST bit score: 723&lt;br&gt;E-value: 3.27e-261" locus_tag="DFK10_RS04310" class="clusterblast-orf" id="dummy-1_h1_6_5"  />
</g>
<g id="a1_006"  >
<polygon points="518,90 584,90 589,85 584,80 518,80 518,90 " style="fill:white; stroke-width:1; stroke:black; " description="&lt;b&gt;DFK10_RS04305&lt;/b&gt;&lt;br&gt;helix-turn-helix domain-containing protein&lt;br&gt;Location: 172082 - 171246" locus_tag="DFK10_RS04305" class="clusterblast-orf" id="dummy-1_h1_6_6"  />
</g>
<g id="a1_007"  >
<polygon points="589,90 668,90 673,85 668,80 589,80 589,90 " style="fill:white; stroke-width:1; stroke:black; " description="&lt;b&gt;DFK10_RS04300&lt;/b&gt;&lt;br&gt;ArsJ-associated glyceraldehyde-3-phosphate dehydrogenase&lt;br&gt;Location: 171249 - 170251" locus_tag="DFK10_RS04300" class="clusterblast-orf" id="dummy-1_h1_6_7"  />
</g>
<g id="a1_008"  >
<polygon points="673,90 775,90 780,85 775,80 673,80 673,90 " style="fill:white; stroke-width:1; stroke:black; " description="&lt;b&gt;DFK10_RS04295&lt;/b&gt;&lt;br&gt;organoarsenical effux MFS transporter ArsJ&lt;br&gt;Location: 170254 - 168998" locus_tag="DFK10_RS04295" class="clusterblast-orf" id="dummy-1_h1_6_8"  />
</g>
</svg>
