<svg xmlns="http://www.w3.org/2000/svg" xmlns:xlink="http://www.w3.org/1999/xlink" version="1.1" x="0" y="0" height="230" width="800" viewBox="0 0 800 230" preserveAspectRatio="none"  >
<g label="Query sequence" class="clusterblast-cluster"  >
<text x="5" y="20" class="clusterblast-acc"  >
Query sequence</text>
<line x1="10" y1="35" x2="778.0" y2="35" style="stroke-width:1; stroke:grey; "  />
<polygon points="5,40 85,40 90,35 85,30 5,30 5,40 " style="fill:#d81515; stroke-width:1; stroke:black; " description="&lt;b&gt;PEOEJGFP_02025&lt;/b&gt;&lt;br&gt;Diacylglycerol kinase&lt;br&gt;Location: 167362 - 168340" locus_tag="PEOEJGFP_02025" class="clusterblast-orf" id="dummy-1_q0_0_all"  />
<polygon points="90,40 153,40 158,35 153,30 90,30 90,40 " style="fill:#15d815; stroke-width:1; stroke:black; " description="&lt;b&gt;PEOEJGFP_02026&lt;/b&gt;&lt;br&gt;3',5'-cyclic adenosine monophosphate phosphodiesterase CpdA&lt;br&gt;Location: 168336 - 169122" locus_tag="PEOEJGFP_02026" class="clusterblast-orf" id="dummy-1_q1_0_all"  />
<polygon points="159,35 164,30 210,30 210,40 164,40 159,35 " style="fill:#1597d8; stroke-width:1; stroke:black; " description="&lt;b&gt;PEOEJGFP_02027&lt;/b&gt;&lt;br&gt;hypothetical protein&lt;br&gt;Location: 169125 - 169722" locus_tag="PEOEJGFP_02027" class="clusterblast-orf" id="dummy-1_q2_0_all"  />
<polygon points="222,40 264,40 269,35 264,30 222,30 222,40 " style="fill:#9715d8; stroke-width:1; stroke:black; " description="&lt;b&gt;PEOEJGFP_02028&lt;/b&gt;&lt;br&gt;L-2,4-diaminobutyric acid acetyltransferase&lt;br&gt;Location: 169859 - 170390" locus_tag="PEOEJGFP_02028" class="clusterblast-orf" id="dummy-1_q3_0_all"  />
<polygon points="272,40 379,40 384,35 379,30 272,30 272,40 " style="fill:#d89715; stroke-width:1; stroke:black; " description="&lt;b&gt;PEOEJGFP_02029&lt;/b&gt;&lt;br&gt;Diaminobutyrate--2-oxoglutarate transaminase&lt;br&gt;Location: 170435 - 171722" locus_tag="PEOEJGFP_02029" class="clusterblast-orf" id="dummy-1_q4_0_all"  />
<polygon points="389,40 419,40 424,35 419,30 389,30 389,40 " style="fill:#15d897; stroke-width:1; stroke:black; " description="&lt;b&gt;PEOEJGFP_02030&lt;/b&gt;&lt;br&gt;L-ectoine synthase&lt;br&gt;Location: 171776 - 172178" locus_tag="PEOEJGFP_02030" class="clusterblast-orf" id="dummy-1_q5_0_all"  />
<polygon points="425,40 544,40 549,35 544,30 425,30 425,40 " style="fill:#1515d8; stroke-width:1; stroke:black; " description="&lt;b&gt;PEOEJGFP_02031&lt;/b&gt;&lt;br&gt;Aspartate kinase Ask Ect&lt;br&gt;Location: 172188 - 173619" locus_tag="PEOEJGFP_02031" class="clusterblast-orf" id="dummy-1_q6_0_all"  />
<polygon points="564,40 683,40 688,35 683,30 564,30 564,40 " style="fill:#d81597; stroke-width:1; stroke:black; " description="&lt;b&gt;PEOEJGFP_02032&lt;/b&gt;&lt;br&gt;hypothetical protein&lt;br&gt;Location: 173791 - 175210" locus_tag="PEOEJGFP_02032" class="clusterblast-orf" id="dummy-1_q7_0_all"  />
<polygon points="687,40 770,40 775,35 770,30 687,30 687,40 " style="fill:#97d815; stroke-width:1; stroke:black; " description="&lt;b&gt;PEOEJGFP_02033&lt;/b&gt;&lt;br&gt;Cytochrome bd-I ubiquinol oxidase subunit 2&lt;br&gt;Location: 175206 - 176220" locus_tag="PEOEJGFP_02033" class="clusterblast-orf" id="dummy-1_q8_0_all"  />
</g>
<g label="NZ_CP019437" description="NZ_CP019437 (748596-758998): Thioclava nitratireducens strain 25B10 4 chromos... (100% of genes show similarity), ectoine" class="clusterblast-cluster"  >
<text x="5" y="70" class="clusterblast-acc"  >
<a xlink:href="https://antismash-db.secondarymetabolites.org/area.html?record=NZ_CP019437&amp;start=748596&amp;end=758998" target="_blank">NZ_CP019437 (748596-758998)</a>: Thioclava nitratireducens strain 25B10 4 chromos... (100% of genes show similarity), ectoine</text>
<line x1="10" y1="85" x2="778.0" y2="85" style="stroke-width:1; stroke:grey; "  />
</g>
<g id="a1_000"  >
<polygon points="0,90 90,90 95,85 90,80 0,80 0,90 " style="fill:#d81515; stroke-width:1; stroke:black; " description="&lt;b&gt;BMG03_RS03780&lt;/b&gt;&lt;br&gt;hypothetical protein&lt;br&gt;Location: 749066 - 750163&lt;br&gt;&lt;br&gt;&lt;b&gt;BlastP hit with PEOEJGFP_02025&lt;/b&gt;&lt;br&gt;Percentage identity: 78&lt;br&gt;Percentage coverage: 95&lt;br&gt;BLAST bit score: 477&lt;br&gt;E-value: 2.88e-168" locus_tag="BMG03_RS03780" class="clusterblast-orf" id="dummy-1_h1_1_0"  />
</g>
<g id="a1_001"  >
<polygon points="95,90 158,90 163,85 158,80 95,80 95,90 " style="fill:#15d815; stroke-width:1; stroke:black; " description="&lt;b&gt;BMG03_RS03785&lt;/b&gt;&lt;br&gt;phosphodiesterase&lt;br&gt;Location: 750160 - 750945&lt;br&gt;&lt;br&gt;&lt;b&gt;BlastP hit with PEOEJGFP_02026&lt;/b&gt;&lt;br&gt;Percentage identity: 72&lt;br&gt;Percentage coverage: 99&lt;br&gt;BLAST bit score: 379&lt;br&gt;E-value: 3.72e-132" locus_tag="BMG03_RS03785" class="clusterblast-orf" id="dummy-1_h1_1_1"  />
</g>
<g id="a1_002"  >
<polygon points="163,85 168,80 205,80 205,90 168,90 163,85 " style="fill:#1597d8; stroke-width:1; stroke:black; " description="&lt;b&gt;BMG03_RS03790&lt;/b&gt;&lt;br&gt;MarR family transcriptional regulator&lt;br&gt;Location: 750946 - 751425&lt;br&gt;&lt;br&gt;&lt;b&gt;BlastP hit with PEOEJGFP_02027&lt;/b&gt;&lt;br&gt;Percentage identity: 96&lt;br&gt;Percentage coverage: 80&lt;br&gt;BLAST bit score: 297&lt;br&gt;E-value: 1.69e-102" locus_tag="BMG03_RS03790" class="clusterblast-orf" id="dummy-1_h1_1_2"  />
</g>
<g id="a1_003"  >
<polygon points="223,90 268,90 273,85 268,80 223,80 223,90 " style="fill:#9715d8; stroke-width:1; stroke:black; " description="&lt;b&gt;BMG03_RS03795&lt;/b&gt;&lt;br&gt;diaminobutyrate acetyltransferase&lt;br&gt;Location: 751637 - 752209&lt;br&gt;&lt;br&gt;&lt;b&gt;BlastP hit with PEOEJGFP_02028&lt;/b&gt;&lt;br&gt;Percentage identity: 88&lt;br&gt;Percentage coverage: 100&lt;br&gt;BLAST bit score: 328&lt;br&gt;E-value: 1.32e-114" locus_tag="BMG03_RS03795" class="clusterblast-orf" id="dummy-1_h1_1_3"  />
</g>
<g id="a1_004"  >
<polygon points="277,90 384,90 389,85 384,80 277,80 277,90 " style="fill:#d89715; stroke-width:1; stroke:black; " description="&lt;b&gt;BMG03_RS03800&lt;/b&gt;&lt;br&gt;diaminobutyrate--2-oxoglutarate transaminase&lt;br&gt;Location: 752258 - 753544&lt;br&gt;&lt;br&gt;&lt;b&gt;BlastP hit with PEOEJGFP_02029&lt;/b&gt;&lt;br&gt;Percentage identity: 94&lt;br&gt;Percentage coverage: 100&lt;br&gt;BLAST bit score: 802&lt;br&gt;E-value: 3.7e-294" locus_tag="BMG03_RS03800" class="clusterblast-orf" id="dummy-1_h1_1_4"  />
</g>
<g id="a1_005"  >
<polygon points="393,90 423,90 428,85 423,80 393,80 393,90 " style="fill:#15d897; stroke-width:1; stroke:black; " description="&lt;b&gt;BMG03_RS03805&lt;/b&gt;&lt;br&gt;ectoine synthase&lt;br&gt;Location: 753597 - 753998&lt;br&gt;&lt;br&gt;&lt;b&gt;BlastP hit with PEOEJGFP_02030&lt;/b&gt;&lt;br&gt;Percentage identity: 96&lt;br&gt;Percentage coverage: 100&lt;br&gt;BLAST bit score: 272&lt;br&gt;E-value: 4.11e-94" locus_tag="BMG03_RS03805" class="clusterblast-orf" id="dummy-1_h1_1_5"  />
</g>
<g id="a1_006"  >
<polygon points="429,90 549,90 554,85 549,80 429,80 429,90 " style="fill:#1515d8; stroke-width:1; stroke:black; " description="&lt;b&gt;BMG03_RS03810&lt;/b&gt;&lt;br&gt;aspartate kinase&lt;br&gt;Location: 754009 - 755439&lt;br&gt;&lt;br&gt;&lt;b&gt;BlastP hit with PEOEJGFP_02031&lt;/b&gt;&lt;br&gt;Percentage identity: 92&lt;br&gt;Percentage coverage: 100&lt;br&gt;BLAST bit score: 868&lt;br&gt;E-value: 0.0" locus_tag="BMG03_RS03810" class="clusterblast-orf" id="dummy-1_h1_1_6"  />
</g>
<g id="a1_007"  >
<polygon points="568,90 687,90 692,85 687,80 568,80 568,90 " style="fill:#d81597; stroke-width:1; stroke:black; " description="&lt;b&gt;BMG03_RS03815&lt;/b&gt;&lt;br&gt;cytochrome ubiquinol oxidase subunit I&lt;br&gt;Location: 755610 - 757028&lt;br&gt;&lt;br&gt;&lt;b&gt;BlastP hit with PEOEJGFP_02032&lt;/b&gt;&lt;br&gt;Percentage identity: 89&lt;br&gt;Percentage coverage: 100&lt;br&gt;BLAST bit score: 856&lt;br&gt;E-value: 7.52e-314" locus_tag="BMG03_RS03815" class="clusterblast-orf" id="dummy-1_h1_1_7"  />
</g>
<g id="a1_008"  >
<polygon points="691,90 775,90 780,85 775,80 691,80 691,90 " style="fill:#97d815; stroke-width:1; stroke:black; " description="&lt;b&gt;BMG03_RS03820&lt;/b&gt;&lt;br&gt;cytochrome d ubiquinol oxidase subunit II&lt;br&gt;Location: 757025 - 758038&lt;br&gt;&lt;br&gt;&lt;b&gt;BlastP hit with PEOEJGFP_02033&lt;/b&gt;&lt;br&gt;Percentage identity: 90&lt;br&gt;Percentage coverage: 100&lt;br&gt;BLAST bit score: 614&lt;br&gt;E-value: 1.04e-222" locus_tag="BMG03_RS03820" class="clusterblast-orf" id="dummy-1_h1_1_8"  />
</g>
</svg>
