<svg xmlns="http://www.w3.org/2000/svg" xmlns:xlink="http://www.w3.org/1999/xlink" version="1.1" x="0" y="0" height="230" width="800" viewBox="0 0 800 230" preserveAspectRatio="none"  >
<g label="Query sequence" class="clusterblast-cluster"  >
<text x="5" y="20" class="clusterblast-acc"  >
Query sequence</text>
<line x1="10" y1="35" x2="778.0" y2="35" style="stroke-width:1; stroke:grey; "  />
<polygon points="156,40 191,40 196,35 191,30 156,30 156,40 " style="fill:white; stroke-width:1; stroke:black; " description="&lt;b&gt;PEOEJGFP_01042&lt;/b&gt;&lt;br&gt;FAD:protein FMN transferase&lt;br&gt;Location: 30051 - 30993" locus_tag="PEOEJGFP_01042" class="clusterblast-orf" id="dummy-1_q0_0_all"  />
<polygon points="211,40 215,40 220,35 215,30 211,30 211,40 " style="fill:white; stroke-width:1; stroke:black; " description="&lt;b&gt;PEOEJGFP_01043&lt;/b&gt;&lt;br&gt;hypothetical protein&lt;br&gt;Location: 31352 - 31556" locus_tag="PEOEJGFP_01043" class="clusterblast-orf" id="dummy-1_q1_0_all"  />
<polygon points="219,35 224,30 276,30 276,40 224,40 219,35 " style="fill:white; stroke-width:1; stroke:black; " description="&lt;b&gt;PEOEJGFP_01044&lt;/b&gt;&lt;br&gt;protein kinase UbiB&lt;br&gt;Location: 31537 - 32896" locus_tag="PEOEJGFP_01044" class="clusterblast-orf" id="dummy-1_q2_0_all"  />
<polygon points="281,35 286,30 315,30 315,40 286,40 281,35 " style="fill:white; stroke-width:1; stroke:black; " description="&lt;b&gt;PEOEJGFP_01045&lt;/b&gt;&lt;br&gt;hypothetical protein&lt;br&gt;Location: 33013 - 33808" locus_tag="PEOEJGFP_01045" class="clusterblast-orf" id="dummy-1_q3_0_all"  />
<polygon points="318,35 323,30 357,30 357,40 323,40 318,35 " style="fill:white; stroke-width:1; stroke:black; " description="&lt;b&gt;PEOEJGFP_01046&lt;/b&gt;&lt;br&gt;Hydrogen peroxide-inducible genes activator&lt;br&gt;Location: 33886 - 34819" locus_tag="PEOEJGFP_01046" class="clusterblast-orf" id="dummy-1_q4_0_all"  />
<polygon points="366,40 370,40 375,35 370,30 366,30 366,40 " style="fill:white; stroke-width:1; stroke:black; " description="&lt;b&gt;PEOEJGFP_01047&lt;/b&gt;&lt;br&gt;hypothetical protein&lt;br&gt;Location: 35023 - 35248" locus_tag="PEOEJGFP_01047" class="clusterblast-orf" id="dummy-1_q5_0_all"  />
<polygon points="378,40 381,40 386,35 381,30 378,30 378,40 " style="fill:white; stroke-width:1; stroke:black; " description="&lt;b&gt;PEOEJGFP_01048&lt;/b&gt;&lt;br&gt;hypothetical protein&lt;br&gt;Location: 35315 - 35510" locus_tag="PEOEJGFP_01048" class="clusterblast-orf" id="dummy-1_q6_0_all"  />
<polygon points="400,40 478,40 483,35 478,30 400,30 400,40 " style="fill:white; stroke-width:1; stroke:black; " description="&lt;b&gt;PEOEJGFP_01049&lt;/b&gt;&lt;br&gt;hypothetical protein&lt;br&gt;Location: 35838 - 37797" locus_tag="PEOEJGFP_01049" class="clusterblast-orf" id="dummy-1_q7_0_all"  />
<polygon points="494,35 499,30 505,30 505,40 499,40 494,35 " style="fill:white; stroke-width:1; stroke:black; " description="&lt;b&gt;PEOEJGFP_01050&lt;/b&gt;&lt;br&gt;hypothetical protein&lt;br&gt;Location: 38056 - 38332" locus_tag="PEOEJGFP_01050" class="clusterblast-orf" id="dummy-1_q8_0_all"  />
<polygon points="505,35 510,30 532,30 532,40 510,40 505,35 " style="fill:#d81515; stroke-width:1; stroke:black; " description="&lt;b&gt;PEOEJGFP_01051&lt;/b&gt;&lt;br&gt;hypothetical protein&lt;br&gt;Location: 38331 - 38970" locus_tag="PEOEJGFP_01051" class="clusterblast-orf" id="dummy-1_q9_0_all"  />
<polygon points="544,35 549,30 573,30 573,40 549,40 544,35 " style="fill:#77d815; stroke-width:1; stroke:black; " description="&lt;b&gt;PEOEJGFP_01052&lt;/b&gt;&lt;br&gt;Transcriptional activator protein LuxR&lt;br&gt;Location: 39243 - 39945" locus_tag="PEOEJGFP_01052" class="clusterblast-orf" id="dummy-1_q10_0_all"  />
<polygon points="577,35 582,30 603,30 603,40 582,40 577,35 " style="fill:#15d8d8; stroke-width:1; stroke:black; " description="&lt;b&gt;PEOEJGFP_01053&lt;/b&gt;&lt;br&gt;hypothetical protein&lt;br&gt;Location: 40037 - 40640" locus_tag="PEOEJGFP_01053" class="clusterblast-orf" id="dummy-1_q11_0_all"  />
<polygon points="607,40 619,40 624,35 619,30 607,30 607,40 " style="fill:#7715d8; stroke-width:1; stroke:black; " description="&lt;b&gt;PEOEJGFP_01054&lt;/b&gt;&lt;br&gt;hypothetical protein&lt;br&gt;Location: 40750 - 41137" locus_tag="PEOEJGFP_01054" class="clusterblast-orf" id="dummy-1_q12_0_all"  />
</g>
<g label="NZ_CP031750" description="NZ_CP031750 (1545756-1564250): Rhodobacter sphaeroides strain EBL0706 chromos... (23% of genes show similarity), hserlactone" class="clusterblast-cluster"  >
<text x="5" y="70" class="clusterblast-acc"  >
<a xlink:href="https://antismash-db.secondarymetabolites.org/area.html?record=NZ_CP031750&amp;start=1545756&amp;end=1564250" target="_blank">NZ_CP031750 (1545756-1564250)</a>: Rhodobacter sphaeroides strain EBL0706 chromos... (23% of genes show similarity), hserlactone</text>
<line x1="10" y1="85" x2="778.0" y2="85" style="stroke-width:1; stroke:grey; "  />
</g>
<g id="a1_000"  >
<polygon points="0,90 35,90 40,85 35,80 0,80 0,90 " style="fill:white; stroke-width:1; stroke:black; " description="&lt;b&gt;D0Z66_RS07830&lt;/b&gt;&lt;br&gt;MCE family protein&lt;br&gt;Location: 1564250 - 1563285" locus_tag="D0Z66_RS07830" class="clusterblast-orf" id="dummy-1_h1_3_0"  />
</g>
<g id="a1_001"  >
<polygon points="40,90 61,90 66,85 61,80 40,80 40,90 " style="fill:white; stroke-width:1; stroke:black; " description="&lt;b&gt;D0Z66_RS07825&lt;/b&gt;&lt;br&gt;membrane integrity-associated transporter subunit PqiC&lt;br&gt;Location: 1563282 - 1562677" locus_tag="D0Z66_RS07825" class="clusterblast-orf" id="dummy-1_h1_3_1"  />
</g>
<g id="a1_002"  >
<polygon points="71,90 131,90 136,85 131,80 71,80 71,90 " style="fill:white; stroke-width:1; stroke:black; " description="&lt;b&gt;D0Z66_RS07820&lt;/b&gt;&lt;br&gt;trimethylamine methyltransferase family protein&lt;br&gt;Location: 1562562 - 1561021" locus_tag="D0Z66_RS07820" class="clusterblast-orf" id="dummy-1_h1_3_2"  />
</g>
<g id="a1_003"  >
<polygon points="156,85 161,80 208,80 208,90 161,90 156,85 " style="fill:white; stroke-width:1; stroke:black; " description="&lt;b&gt;D0Z66_RS07810&lt;/b&gt;&lt;br&gt;OpgC domain-containing protein&lt;br&gt;Location: 1560534 - 1559305" locus_tag="D0Z66_RS07810" class="clusterblast-orf" id="dummy-1_h1_3_3"  />
</g>
<g id="a1_004"  >
<polygon points="208,85 213,80 283,80 283,90 213,90 208,85 " style="fill:white; stroke-width:1; stroke:black; " description="&lt;b&gt;D0Z66_RS07805&lt;/b&gt;&lt;br&gt;glucans biosynthesis glucosyltransferase MdoH&lt;br&gt;Location: 1559312 - 1557525" locus_tag="D0Z66_RS07805" class="clusterblast-orf" id="dummy-1_h1_3_4"  />
</g>
<g id="a1_005"  >
<polygon points="283,85 288,80 292,80 292,90 288,90 283,85 " style="fill:white; stroke-width:1; stroke:black; " description="&lt;b&gt;D0Z66_RS07800&lt;/b&gt;&lt;br&gt;hypothetical protein&lt;br&gt;Location: 1557521 - 1557321" locus_tag="D0Z66_RS07800" class="clusterblast-orf" id="dummy-1_h1_3_5"  />
</g>
<g id="a1_006"  >
<polygon points="292,85 297,80 360,80 360,90 297,90 292,85 " style="fill:white; stroke-width:1; stroke:black; " description="&lt;b&gt;D0Z66_RS07795&lt;/b&gt;&lt;br&gt;glucan biosynthesis protein G&lt;br&gt;Location: 1557321 - 1555699" locus_tag="D0Z66_RS07795" class="clusterblast-orf" id="dummy-1_h1_3_6"  />
</g>
<g id="a1_007"  >
<polygon points="374,85 379,80 386,80 386,90 379,90 374,85 " style="fill:white; stroke-width:1; stroke:black; " description="&lt;b&gt;D0Z66_RS07790&lt;/b&gt;&lt;br&gt;hypothetical protein&lt;br&gt;Location: 1555360 - 1555091" locus_tag="D0Z66_RS07790" class="clusterblast-orf" id="dummy-1_h1_3_7"  />
</g>
<g id="a1_008"  >
<polygon points="391,85 396,80 417,80 417,90 396,90 391,85 " style="fill:#d81515; stroke-width:1; stroke:black; " description="&lt;b&gt;D0Z66_RS07785&lt;/b&gt;&lt;br&gt;GNAT family N-acetyltransferase&lt;br&gt;Location: 1554977 - 1554345&lt;br&gt;&lt;br&gt;&lt;b&gt;BlastP hit with PEOEJGFP_01051&lt;/b&gt;&lt;br&gt;Percentage identity: 75&lt;br&gt;Percentage coverage: 97&lt;br&gt;BLAST bit score: 319&lt;br&gt;E-value: 2.52e-110" locus_tag="D0Z66_RS07785" class="clusterblast-orf" id="dummy-1_h1_3_8"  />
</g>
<g id="a1_009"  >
<polygon points="425,85 430,80 454,80 454,90 430,90 425,85 " style="fill:#77d815; stroke-width:1; stroke:black; " description="&lt;b&gt;D0Z66_RS07780&lt;/b&gt;&lt;br&gt;autoinducer binding domain-containing protein&lt;br&gt;Location: 1554170 - 1553469&lt;br&gt;&lt;br&gt;&lt;b&gt;BlastP hit with PEOEJGFP_01052&lt;/b&gt;&lt;br&gt;Percentage identity: 64&lt;br&gt;Percentage coverage: 100&lt;br&gt;BLAST bit score: 316&lt;br&gt;E-value: 2.11e-108" locus_tag="D0Z66_RS07780" class="clusterblast-orf" id="dummy-1_h1_3_9"  />
</g>
<g id="a1_0010"  >
<polygon points="459,85 464,80 487,80 487,90 464,90 459,85 " style="fill:#15d8d8; stroke-width:1; stroke:black; " description="&lt;b&gt;D0Z66_RS07775&lt;/b&gt;&lt;br&gt;LuxR family transcriptional regulator&lt;br&gt;Location: 1553362 - 1552703&lt;br&gt;&lt;br&gt;&lt;b&gt;BlastP hit with PEOEJGFP_01053&lt;/b&gt;&lt;br&gt;Percentage identity: 42&lt;br&gt;Percentage coverage: 100&lt;br&gt;BLAST bit score: 163&lt;br&gt;E-value: 6.6e-49" locus_tag="D0Z66_RS07775" class="clusterblast-orf" id="dummy-1_h1_3_10"  />
</g>
<g id="a1_0011"  >
<polygon points="489,90 504,90 509,85 504,80 489,80 489,90 " style="fill:#7715d8; stroke-width:1; stroke:black; " description="&lt;b&gt;D0Z66_RS07770&lt;/b&gt;&lt;br&gt;autoinducer binding domain-containing protein&lt;br&gt;Location: 1552655 - 1552167&lt;br&gt;&lt;br&gt;&lt;b&gt;BlastP hit with PEOEJGFP_01054&lt;/b&gt;&lt;br&gt;Percentage identity: 51&lt;br&gt;Percentage coverage: 95&lt;br&gt;BLAST bit score: 143&lt;br&gt;E-value: 8.99e-43" locus_tag="D0Z66_RS07770" class="clusterblast-orf" id="dummy-1_h1_3_11"  />
</g>
<g id="a1_0012"  >
<polygon points="517,90 544,90 549,85 544,80 517,80 517,90 " style="fill:white; stroke-width:1; stroke:black; " description="&lt;b&gt;D0Z66_RS07765&lt;/b&gt;&lt;br&gt;phosphatase PAP2 family protein&lt;br&gt;Location: 1551986 - 1551216" locus_tag="D0Z66_RS07765" class="clusterblast-orf" id="dummy-1_h1_3_12"  />
</g>
<g id="a1_0013"  >
<polygon points="551,90 587,90 592,85 587,80 551,80 551,90 " style="fill:white; stroke-width:1; stroke:black; " description="&lt;b&gt;D0Z66_RS07760&lt;/b&gt;&lt;br&gt;c-type cytochrome&lt;br&gt;Location: 1551168 - 1550194" locus_tag="D0Z66_RS07760" class="clusterblast-orf" id="dummy-1_h1_3_13"  />
</g>
<g id="a1_0014"  >
<polygon points="592,90 698,90 703,85 698,80 592,80 592,90 " style="fill:white; stroke-width:1; stroke:black; " description="&lt;b&gt;D0Z66_RS07755&lt;/b&gt;&lt;br&gt;cytochrome c oxidase subunit I&lt;br&gt;Location: 1550197 - 1547562" locus_tag="D0Z66_RS07755" class="clusterblast-orf" id="dummy-1_h1_3_14"  />
</g>
<g id="a1_0015"  >
<polygon points="704,85 709,80 718,80 718,90 709,90 704,85 " style="fill:white; stroke-width:1; stroke:black; " description="&lt;b&gt;D0Z66_RS07750&lt;/b&gt;&lt;br&gt;DUF4112 domain-containing protein&lt;br&gt;Location: 1547558 - 1547205" locus_tag="D0Z66_RS07750" class="clusterblast-orf" id="dummy-1_h1_3_15"  />
</g>
<g id="a1_0016"  >
<polygon points="718,85 723,80 780,80 780,90 723,90 718,85 " style="fill:white; stroke-width:1; stroke:black; " description="&lt;b&gt;D0Z66_RS07745&lt;/b&gt;&lt;br&gt;phospholipase&lt;br&gt;Location: 1547208 - 1545757" locus_tag="D0Z66_RS07745" class="clusterblast-orf" id="dummy-1_h1_3_16"  />
</g>
</svg>
