<svg xmlns="http://www.w3.org/2000/svg" xmlns:xlink="http://www.w3.org/1999/xlink" version="1.1" x="0" y="0" height="230" width="800" viewBox="0 0 800 230" preserveAspectRatio="none"  >
<g label="Query sequence" class="clusterblast-cluster"  >
<text x="5" y="20" class="clusterblast-acc"  >
Query sequence</text>
<line x1="10" y1="35" x2="778.0" y2="35" style="stroke-width:1; stroke:grey; "  />
<polygon points="155,40 190,40 195,35 190,30 155,30 155,40 " style="fill:white; stroke-width:1; stroke:black; " description="&lt;b&gt;PEOEJGFP_01042&lt;/b&gt;&lt;br&gt;FAD:protein FMN transferase&lt;br&gt;Location: 30051 - 30993" locus_tag="PEOEJGFP_01042" class="clusterblast-orf" id="dummy-1_q0_0_all"  />
<polygon points="210,40 213,40 218,35 213,30 210,30 210,40 " style="fill:white; stroke-width:1; stroke:black; " description="&lt;b&gt;PEOEJGFP_01043&lt;/b&gt;&lt;br&gt;hypothetical protein&lt;br&gt;Location: 31352 - 31556" locus_tag="PEOEJGFP_01043" class="clusterblast-orf" id="dummy-1_q1_0_all"  />
<polygon points="218,35 223,30 275,30 275,40 223,40 218,35 " style="fill:white; stroke-width:1; stroke:black; " description="&lt;b&gt;PEOEJGFP_01044&lt;/b&gt;&lt;br&gt;protein kinase UbiB&lt;br&gt;Location: 31537 - 32896" locus_tag="PEOEJGFP_01044" class="clusterblast-orf" id="dummy-1_q2_0_all"  />
<polygon points="280,35 285,30 314,30 314,40 285,40 280,35 " style="fill:white; stroke-width:1; stroke:black; " description="&lt;b&gt;PEOEJGFP_01045&lt;/b&gt;&lt;br&gt;hypothetical protein&lt;br&gt;Location: 33013 - 33808" locus_tag="PEOEJGFP_01045" class="clusterblast-orf" id="dummy-1_q3_0_all"  />
<polygon points="317,35 322,30 357,30 357,40 322,40 317,35 " style="fill:white; stroke-width:1; stroke:black; " description="&lt;b&gt;PEOEJGFP_01046&lt;/b&gt;&lt;br&gt;Hydrogen peroxide-inducible genes activator&lt;br&gt;Location: 33886 - 34819" locus_tag="PEOEJGFP_01046" class="clusterblast-orf" id="dummy-1_q4_0_all"  />
<polygon points="366,40 370,40 375,35 370,30 366,30 366,40 " style="fill:white; stroke-width:1; stroke:black; " description="&lt;b&gt;PEOEJGFP_01047&lt;/b&gt;&lt;br&gt;hypothetical protein&lt;br&gt;Location: 35023 - 35248" locus_tag="PEOEJGFP_01047" class="clusterblast-orf" id="dummy-1_q5_0_all"  />
<polygon points="378,40 381,40 386,35 381,30 378,30 378,40 " style="fill:white; stroke-width:1; stroke:black; " description="&lt;b&gt;PEOEJGFP_01048&lt;/b&gt;&lt;br&gt;hypothetical protein&lt;br&gt;Location: 35315 - 35510" locus_tag="PEOEJGFP_01048" class="clusterblast-orf" id="dummy-1_q6_0_all"  />
<polygon points="400,40 478,40 483,35 478,30 400,30 400,40 " style="fill:white; stroke-width:1; stroke:black; " description="&lt;b&gt;PEOEJGFP_01049&lt;/b&gt;&lt;br&gt;hypothetical protein&lt;br&gt;Location: 35838 - 37797" locus_tag="PEOEJGFP_01049" class="clusterblast-orf" id="dummy-1_q7_0_all"  />
<polygon points="494,35 499,30 506,30 506,40 499,40 494,35 " style="fill:white; stroke-width:1; stroke:black; " description="&lt;b&gt;PEOEJGFP_01050&lt;/b&gt;&lt;br&gt;hypothetical protein&lt;br&gt;Location: 38056 - 38332" locus_tag="PEOEJGFP_01050" class="clusterblast-orf" id="dummy-1_q8_0_all"  />
<polygon points="506,35 511,30 533,30 533,40 511,40 506,35 " style="fill:#d81515; stroke-width:1; stroke:black; " description="&lt;b&gt;PEOEJGFP_01051&lt;/b&gt;&lt;br&gt;hypothetical protein&lt;br&gt;Location: 38331 - 38970" locus_tag="PEOEJGFP_01051" class="clusterblast-orf" id="dummy-1_q9_0_all"  />
<polygon points="545,35 550,30 575,30 575,40 550,40 545,35 " style="fill:#77d815; stroke-width:1; stroke:black; " description="&lt;b&gt;PEOEJGFP_01052&lt;/b&gt;&lt;br&gt;Transcriptional activator protein LuxR&lt;br&gt;Location: 39243 - 39945" locus_tag="PEOEJGFP_01052" class="clusterblast-orf" id="dummy-1_q10_0_all"  />
<polygon points="579,35 584,30 604,30 604,40 584,40 579,35 " style="fill:#15d8d8; stroke-width:1; stroke:black; " description="&lt;b&gt;PEOEJGFP_01053&lt;/b&gt;&lt;br&gt;hypothetical protein&lt;br&gt;Location: 40037 - 40640" locus_tag="PEOEJGFP_01053" class="clusterblast-orf" id="dummy-1_q11_0_all"  />
<polygon points="609,40 620,40 625,35 620,30 609,30 609,40 " style="fill:#7715d8; stroke-width:1; stroke:black; " description="&lt;b&gt;PEOEJGFP_01054&lt;/b&gt;&lt;br&gt;hypothetical protein&lt;br&gt;Location: 40750 - 41137" locus_tag="PEOEJGFP_01054" class="clusterblast-orf" id="dummy-1_q12_0_all"  />
</g>
<g label="NZ_FOVB01000007" description="NZ_FOVB01000007 (59076-79718): Thioclava dalianensis strain CGMCC 1.12325, wh... (21% of genes show similarity), hserlactone" class="clusterblast-cluster"  >
<text x="5" y="70" class="clusterblast-acc"  >
<a xlink:href="https://antismash-db.secondarymetabolites.org/area.html?record=NZ_FOVB01000007&amp;start=59076&amp;end=79718" target="_blank">NZ_FOVB01000007 (59076-79718)</a>: Thioclava dalianensis strain CGMCC 1.12325, wh... (21% of genes show similarity), hserlactone</text>
<line x1="10" y1="85" x2="778.0" y2="85" style="stroke-width:1; stroke:grey; "  />
</g>
<g id="a1_000"  >
<polygon points="0,85 5,80 51,80 51,90 5,90 0,85 " style="fill:white; stroke-width:1; stroke:black; " description="&lt;b&gt;BM050_RS15810&lt;/b&gt;&lt;br&gt;N-acetylmuramoyl-L-alanine amidase&lt;br&gt;Location: 59268 - 60479" locus_tag="BM050_RS15810" class="clusterblast-orf" id="dummy-1_h1_1_0"  />
</g>
<g id="a1_001"  >
<polygon points="55,85 60,80 103,80 103,90 60,90 55,85 " style="fill:white; stroke-width:1; stroke:black; " description="&lt;b&gt;BM050_RS15815&lt;/b&gt;&lt;br&gt;aminotransferase class I/II-fold pyridoxal phosphate-dependent enzyme&lt;br&gt;Location: 60578 - 61717" locus_tag="BM050_RS15815" class="clusterblast-orf" id="dummy-1_h1_1_1"  />
</g>
<g id="a1_002"  >
<polygon points="110,90 137,90 142,85 137,80 110,80 110,90 " style="fill:white; stroke-width:1; stroke:black; " description="&lt;b&gt;BM050_RS15820&lt;/b&gt;&lt;br&gt;thioredoxin domain-containing protein&lt;br&gt;Location: 61876 - 62631" locus_tag="BM050_RS15820" class="clusterblast-orf" id="dummy-1_h1_1_2"  />
</g>
<g id="a1_003"  >
<polygon points="146,85 151,80 175,80 175,90 151,90 146,85 " style="fill:white; stroke-width:1; stroke:black; " description="&lt;b&gt;BM050_RS15825&lt;/b&gt;&lt;br&gt;DUF1236 domain-containing protein&lt;br&gt;Location: 62726 - 63409" locus_tag="BM050_RS15825" class="clusterblast-orf" id="dummy-1_h1_1_3"  />
</g>
<g id="a1_004"  >
<polygon points="182,85 187,80 230,80 230,90 187,90 182,85 " style="fill:white; stroke-width:1; stroke:black; " description="&lt;b&gt;BM050_RS15830&lt;/b&gt;&lt;br&gt;flavodoxin-dependent (E)-4-hydroxy-3-methylbut-2-enyl-diphosphate synthase&lt;br&gt;Location: 63566 - 64687" locus_tag="BM050_RS15830" class="clusterblast-orf" id="dummy-1_h1_1_4"  />
</g>
<g id="a1_005"  >
<polygon points="233,85 238,80 287,80 287,90 238,90 233,85 " style="fill:white; stroke-width:1; stroke:black; " description="&lt;b&gt;BM050_RS15835&lt;/b&gt;&lt;br&gt;helix-turn-helix domain-containing protein&lt;br&gt;Location: 64772 - 66034" locus_tag="BM050_RS15835" class="clusterblast-orf" id="dummy-1_h1_1_5"  />
</g>
<g id="a1_006"  >
<polygon points="292,85 297,80 344,80 344,90 297,90 292,85 " style="fill:white; stroke-width:1; stroke:black; " description="&lt;b&gt;BM050_RS15840&lt;/b&gt;&lt;br&gt;5-aminolevulinate synthase&lt;br&gt;Location: 66147 - 67376" locus_tag="BM050_RS15840" class="clusterblast-orf" id="dummy-1_h1_1_6"  />
</g>
<g id="a1_007"  >
<polygon points="353,90 407,90 412,85 407,80 353,80 353,90 " style="fill:white; stroke-width:1; stroke:black; " description="&lt;b&gt;BM050_RS15845&lt;/b&gt;&lt;br&gt;dipeptidase&lt;br&gt;Location: 67598 - 68974" locus_tag="BM050_RS15845" class="clusterblast-orf" id="dummy-1_h1_1_7"  />
</g>
<g id="a1_008"  >
<polygon points="416,85 421,80 443,80 443,90 421,90 416,85 " style="fill:#d81515; stroke-width:1; stroke:black; " description="&lt;b&gt;BM050_RS15850&lt;/b&gt;&lt;br&gt;GNAT family N-acetyltransferase&lt;br&gt;Location: 69077 - 69718&lt;br&gt;&lt;br&gt;&lt;b&gt;BlastP hit with PEOEJGFP_01051&lt;/b&gt;&lt;br&gt;Percentage identity: 83&lt;br&gt;Percentage coverage: 100&lt;br&gt;BLAST bit score: 352&lt;br&gt;E-value: 2.23e-123" locus_tag="BM050_RS15850" class="clusterblast-orf" id="dummy-1_h1_1_8"  />
</g>
<g id="a1_009"  >
<polygon points="457,85 462,80 486,80 486,90 462,90 457,85 " style="fill:#77d815; stroke-width:1; stroke:black; " description="&lt;b&gt;BM050_RS15855&lt;/b&gt;&lt;br&gt;autoinducer binding domain-containing protein&lt;br&gt;Location: 70033 - 70734&lt;br&gt;&lt;br&gt;&lt;b&gt;BlastP hit with PEOEJGFP_01052&lt;/b&gt;&lt;br&gt;Percentage identity: 75&lt;br&gt;Percentage coverage: 100&lt;br&gt;BLAST bit score: 364&lt;br&gt;E-value: 2.8e-127" locus_tag="BM050_RS15855" class="clusterblast-orf" id="dummy-1_h1_1_9"  />
</g>
<g id="a1_0010"  >
<polygon points="492,85 497,80 517,80 517,90 497,90 492,85 " style="fill:#15d8d8; stroke-width:1; stroke:black; " description="&lt;b&gt;BM050_RS15860&lt;/b&gt;&lt;br&gt;autoinducer binding domain-containing protein&lt;br&gt;Location: 70865 - 71467&lt;br&gt;&lt;br&gt;&lt;b&gt;BlastP hit with PEOEJGFP_01053&lt;/b&gt;&lt;br&gt;Percentage identity: 54&lt;br&gt;Percentage coverage: 100&lt;br&gt;BLAST bit score: 213&lt;br&gt;E-value: 1.07e-68" locus_tag="BM050_RS15860" class="clusterblast-orf" id="dummy-1_h1_1_10"  />
</g>
<g id="a1_0011"  >
<polygon points="524,90 537,90 542,85 537,80 524,80 524,90 " style="fill:#7715d8; stroke-width:1; stroke:black; " description="&lt;b&gt;BM050_RS15865&lt;/b&gt;&lt;br&gt;autoinducer binding domain-containing protein&lt;br&gt;Location: 71611 - 72054&lt;br&gt;&lt;br&gt;&lt;b&gt;BlastP hit with PEOEJGFP_01054&lt;/b&gt;&lt;br&gt;Percentage identity: 62&lt;br&gt;Percentage coverage: 90&lt;br&gt;BLAST bit score: 166&lt;br&gt;E-value: 4.32e-52" locus_tag="BM050_RS15865" class="clusterblast-orf" id="dummy-1_h1_1_11"  />
</g>
<g id="a1_0012"  >
<polygon points="542,85 547,80 563,80 563,90 547,90 542,85 " style="fill:white; stroke-width:1; stroke:black; " description="&lt;b&gt;BM050_RS15870&lt;/b&gt;&lt;br&gt;membrane protein&lt;br&gt;Location: 72037 - 72543" locus_tag="BM050_RS15870" class="clusterblast-orf" id="dummy-1_h1_1_12"  />
</g>
<g id="a1_0013"  >
<polygon points="563,85 568,80 608,80 608,90 568,90 563,85 " style="fill:white; stroke-width:1; stroke:black; " description="&lt;b&gt;BM050_RS15875&lt;/b&gt;&lt;br&gt;chalcone synthase&lt;br&gt;Location: 72540 - 73595" locus_tag="BM050_RS15875" class="clusterblast-orf" id="dummy-1_h1_1_13"  />
</g>
<g id="a1_0014"  >
<polygon points="613,85 618,80 659,80 659,90 618,90 613,85 " style="fill:white; stroke-width:1; stroke:black; " description="&lt;b&gt;BM050_RS15880&lt;/b&gt;&lt;br&gt;glutamate 5-kinase&lt;br&gt;Location: 73710 - 74813" locus_tag="BM050_RS15880" class="clusterblast-orf" id="dummy-1_h1_1_14"  />
</g>
<g id="a1_0015"  >
<polygon points="660,85 665,80 703,80 703,90 665,90 660,85 " style="fill:white; stroke-width:1; stroke:black; " description="&lt;b&gt;BM050_RS15885&lt;/b&gt;&lt;br&gt;GTPase ObgE&lt;br&gt;Location: 74816 - 75841" locus_tag="BM050_RS15885" class="clusterblast-orf" id="dummy-1_h1_1_15"  />
</g>
<g id="a1_0016"  >
<polygon points="710,85 715,80 733,80 733,90 715,90 710,85 " style="fill:white; stroke-width:1; stroke:black; " description="&lt;b&gt;BM050_RS15890&lt;/b&gt;&lt;br&gt;GNAT family N-acetyltransferase&lt;br&gt;Location: 75998 - 76534" locus_tag="BM050_RS15890" class="clusterblast-orf" id="dummy-1_h1_1_16"  />
</g>
<g id="a1_0017"  >
<polygon points="741,85 746,80 752,80 752,90 746,90 741,85 " style="fill:white; stroke-width:1; stroke:black; " description="&lt;b&gt;BM050_RS15895&lt;/b&gt;&lt;br&gt;50S ribosomal protein L27&lt;br&gt;Location: 76727 - 76996" locus_tag="BM050_RS15895" class="clusterblast-orf" id="dummy-1_h1_1_17"  />
</g>
<g id="a1_0018"  >
<polygon points="753,85 758,80 780,80 780,90 758,90 753,85 " style="fill:white; stroke-width:1; stroke:black; " description="&lt;b&gt;BM050_RS15900&lt;/b&gt;&lt;br&gt;50S ribosomal protein L21&lt;br&gt;Location: 77009 - 77641" locus_tag="BM050_RS15900" class="clusterblast-orf" id="dummy-1_h1_1_18"  />
</g>
</svg>
