<svg xmlns="http://www.w3.org/2000/svg" xmlns:xlink="http://www.w3.org/1999/xlink" version="1.1" x="0" y="0" height="230" width="800" viewBox="0 0 800 230" preserveAspectRatio="none"  >
<g label="Query sequence" class="clusterblast-cluster"  >
<text x="5" y="20" class="clusterblast-acc"  >
Query sequence</text>
<line x1="10" y1="35" x2="778.0" y2="35" style="stroke-width:1; stroke:grey; "  />
<polygon points="0,40 81,40 86,35 81,30 0,30 0,40 " style="fill:#d81515; stroke-width:1; stroke:black; " description="&lt;b&gt;PEOEJGFP_02025&lt;/b&gt;&lt;br&gt;Diacylglycerol kinase&lt;br&gt;Location: 167362 - 168340" locus_tag="PEOEJGFP_02025" class="clusterblast-orf" id="dummy-1_q0_0_all"  />
<polygon points="86,40 150,40 155,35 150,30 86,30 86,40 " style="fill:#15d815; stroke-width:1; stroke:black; " description="&lt;b&gt;PEOEJGFP_02026&lt;/b&gt;&lt;br&gt;3',5'-cyclic adenosine monophosphate phosphodiesterase CpdA&lt;br&gt;Location: 168336 - 169122" locus_tag="PEOEJGFP_02026" class="clusterblast-orf" id="dummy-1_q1_0_all"  />
<polygon points="156,35 161,30 208,30 208,40 161,40 156,35 " style="fill:#1597d8; stroke-width:1; stroke:black; " description="&lt;b&gt;PEOEJGFP_02027&lt;/b&gt;&lt;br&gt;hypothetical protein&lt;br&gt;Location: 169125 - 169722" locus_tag="PEOEJGFP_02027" class="clusterblast-orf" id="dummy-1_q2_0_all"  />
<polygon points="220,40 262,40 267,35 262,30 220,30 220,40 " style="fill:#9715d8; stroke-width:1; stroke:black; " description="&lt;b&gt;PEOEJGFP_02028&lt;/b&gt;&lt;br&gt;L-2,4-diaminobutyric acid acetyltransferase&lt;br&gt;Location: 169859 - 170390" locus_tag="PEOEJGFP_02028" class="clusterblast-orf" id="dummy-1_q3_0_all"  />
<polygon points="271,40 379,40 384,35 379,30 271,30 271,40 " style="fill:#d89715; stroke-width:1; stroke:black; " description="&lt;b&gt;PEOEJGFP_02029&lt;/b&gt;&lt;br&gt;Diaminobutyrate--2-oxoglutarate transaminase&lt;br&gt;Location: 170435 - 171722" locus_tag="PEOEJGFP_02029" class="clusterblast-orf" id="dummy-1_q4_0_all"  />
<polygon points="389,40 419,40 424,35 419,30 389,30 389,40 " style="fill:#15d897; stroke-width:1; stroke:black; " description="&lt;b&gt;PEOEJGFP_02030&lt;/b&gt;&lt;br&gt;L-ectoine synthase&lt;br&gt;Location: 171776 - 172178" locus_tag="PEOEJGFP_02030" class="clusterblast-orf" id="dummy-1_q5_0_all"  />
<polygon points="425,40 546,40 551,35 546,30 425,30 425,40 " style="fill:#1515d8; stroke-width:1; stroke:black; " description="&lt;b&gt;PEOEJGFP_02031&lt;/b&gt;&lt;br&gt;Aspartate kinase Ask Ect&lt;br&gt;Location: 172188 - 173619" locus_tag="PEOEJGFP_02031" class="clusterblast-orf" id="dummy-1_q6_0_all"  />
<polygon points="566,40 686,40 691,35 686,30 566,30 566,40 " style="fill:#d81597; stroke-width:1; stroke:black; " description="&lt;b&gt;PEOEJGFP_02032&lt;/b&gt;&lt;br&gt;hypothetical protein&lt;br&gt;Location: 173791 - 175210" locus_tag="PEOEJGFP_02032" class="clusterblast-orf" id="dummy-1_q7_0_all"  />
<polygon points="691,40 775,40 780,35 775,30 691,30 691,40 " style="fill:#97d815; stroke-width:1; stroke:black; " description="&lt;b&gt;PEOEJGFP_02033&lt;/b&gt;&lt;br&gt;Cytochrome bd-I ubiquinol oxidase subunit 2&lt;br&gt;Location: 175206 - 176220" locus_tag="PEOEJGFP_02033" class="clusterblast-orf" id="dummy-1_q8_0_all"  />
</g>
<g label="NZ_FOQH01000008" description="NZ_FOQH01000008 (123921-134320): Albimonas pacifica strain CGMCC 1.11030, who... (87% of genes show similarity), ectoine" class="clusterblast-cluster"  >
<text x="5" y="70" class="clusterblast-acc"  >
<a xlink:href="https://antismash-db.secondarymetabolites.org/area.html?record=NZ_FOQH01000008&amp;start=123921&amp;end=134320" target="_blank">NZ_FOQH01000008 (123921-134320)</a>: Albimonas pacifica strain CGMCC 1.11030, who... (87% of genes show similarity), ectoine</text>
<line x1="10" y1="85" x2="778.0" y2="85" style="stroke-width:1; stroke:grey; "  />
</g>
<g id="a1_000"  >
<polygon points="65,90 93,90 98,85 93,80 65,80 65,90 " style="fill:white; stroke-width:1; stroke:black; " description="&lt;b&gt;BM064_RS17805&lt;/b&gt;&lt;br&gt;hypothetical protein&lt;br&gt;Location: 132519 - 132151" locus_tag="BM064_RS17805" class="clusterblast-orf" id="dummy-1_h1_3_0"  />
</g>
<g id="a1_001"  >
<polygon points="102,85 107,80 148,80 148,90 107,90 102,85 " style="fill:#1597d8; stroke-width:1; stroke:black; " description="&lt;b&gt;BM064_RS17800&lt;/b&gt;&lt;br&gt;MarR family transcriptional regulator&lt;br&gt;Location: 132107 - 131577&lt;br&gt;&lt;br&gt;&lt;b&gt;BlastP hit with PEOEJGFP_02027&lt;/b&gt;&lt;br&gt;Percentage identity: 50&lt;br&gt;Percentage coverage: 80&lt;br&gt;BLAST bit score: 149&lt;br&gt;E-value: 9.34e-44" locus_tag="BM064_RS17800" class="clusterblast-orf" id="dummy-1_h1_3_1"  />
</g>
<g id="a1_002"  >
<polygon points="176,90 218,90 223,85 218,80 176,80 176,90 " style="fill:#9715d8; stroke-width:1; stroke:black; " description="&lt;b&gt;BM064_RS17795&lt;/b&gt;&lt;br&gt;diaminobutyrate acetyltransferase&lt;br&gt;Location: 131257 - 130730&lt;br&gt;&lt;br&gt;&lt;b&gt;BlastP hit with PEOEJGFP_02028&lt;/b&gt;&lt;br&gt;Percentage identity: 61&lt;br&gt;Percentage coverage: 86&lt;br&gt;BLAST bit score: 206&lt;br&gt;E-value: 1.48e-66" locus_tag="BM064_RS17795" class="clusterblast-orf" id="dummy-1_h1_3_2"  />
</g>
<g id="a1_003"  >
<polygon points="231,90 341,90 346,85 341,80 231,80 231,90 " style="fill:#d89715; stroke-width:1; stroke:black; " description="&lt;b&gt;BM064_RS17790&lt;/b&gt;&lt;br&gt;diaminobutyrate--2-oxoglutarate transaminase&lt;br&gt;Location: 130632 - 129334&lt;br&gt;&lt;br&gt;&lt;b&gt;BlastP hit with PEOEJGFP_02029&lt;/b&gt;&lt;br&gt;Percentage identity: 63&lt;br&gt;Percentage coverage: 100&lt;br&gt;BLAST bit score: 550&lt;br&gt;E-value: 3.06e-194" locus_tag="BM064_RS17790" class="clusterblast-orf" id="dummy-1_h1_3_3"  />
</g>
<g id="a1_004"  >
<polygon points="347,90 377,90 382,85 377,80 347,80 347,90 " style="fill:#15d897; stroke-width:1; stroke:black; " description="&lt;b&gt;BM064_RS17785&lt;/b&gt;&lt;br&gt;ectoine synthase&lt;br&gt;Location: 129320 - 128922&lt;br&gt;&lt;br&gt;&lt;b&gt;BlastP hit with PEOEJGFP_02030&lt;/b&gt;&lt;br&gt;Percentage identity: 71&lt;br&gt;Percentage coverage: 97&lt;br&gt;BLAST bit score: 184&lt;br&gt;E-value: 3.25e-59" locus_tag="BM064_RS17785" class="clusterblast-orf" id="dummy-1_h1_3_4"  />
</g>
<g id="a1_005"  >
<polygon points="398,90 519,90 524,85 519,80 398,80 398,90 " style="fill:#1515d8; stroke-width:1; stroke:black; " description="&lt;b&gt;BM064_RS17780&lt;/b&gt;&lt;br&gt;aspartate kinase&lt;br&gt;Location: 128741 - 127308&lt;br&gt;&lt;br&gt;&lt;b&gt;BlastP hit with PEOEJGFP_02031&lt;/b&gt;&lt;br&gt;Percentage identity: 65&lt;br&gt;Percentage coverage: 95&lt;br&gt;BLAST bit score: 583&lt;br&gt;E-value: 5.69e-206" locus_tag="BM064_RS17780" class="clusterblast-orf" id="dummy-1_h1_3_5"  />
</g>
<g id="a1_006"  >
<polygon points="554,85 559,80 628,80 628,90 559,90 554,85 " style="fill:#15d815; stroke-width:1; stroke:black; " description="&lt;b&gt;BM064_RS17775&lt;/b&gt;&lt;br&gt;metallophosphoesterase&lt;br&gt;Location: 126973 - 126131&lt;br&gt;&lt;br&gt;&lt;b&gt;BlastP hit with PEOEJGFP_02026&lt;/b&gt;&lt;br&gt;Percentage identity: 45&lt;br&gt;Percentage coverage: 86&lt;br&gt;BLAST bit score: 181&lt;br&gt;E-value: 5.2e-54" locus_tag="BM064_RS17775" class="clusterblast-orf" id="dummy-1_h1_3_6"  />
</g>
<g id="a1_007"  >
<polygon points="629,85 634,80 714,80 714,90 634,90 629,85 " style="fill:#d81515; stroke-width:1; stroke:black; " description="&lt;b&gt;BM064_RS17770&lt;/b&gt;&lt;br&gt;hypothetical protein&lt;br&gt;Location: 126121 - 125156&lt;br&gt;&lt;br&gt;&lt;b&gt;BlastP hit with PEOEJGFP_02025&lt;/b&gt;&lt;br&gt;Percentage identity: 42&lt;br&gt;Percentage coverage: 85&lt;br&gt;BLAST bit score: 213&lt;br&gt;E-value: 3.43e-65" locus_tag="BM064_RS17770" class="clusterblast-orf" id="dummy-1_h1_3_7"  />
</g>
</svg>
