<svg xmlns="http://www.w3.org/2000/svg" xmlns:xlink="http://www.w3.org/1999/xlink" version="1.1" x="0" y="0" height="230" width="800" viewBox="0 0 800 230" preserveAspectRatio="none"  >
<g label="Query sequence" class="clusterblast-cluster"  >
<text x="5" y="20" class="clusterblast-acc"  >
Query sequence</text>
<line x1="10" y1="35" x2="778.0" y2="35" style="stroke-width:1; stroke:grey; "  />
<polygon points="0,40 60,40 65,35 60,30 0,30 0,40 " style="fill:#d81515; stroke-width:1; stroke:black; " description="&lt;b&gt;OEILGKOC_02429&lt;/b&gt;&lt;br&gt;2-isopropylmalate synthase&lt;br&gt;Location: 2486757 - 2488323" locus_tag="OEILGKOC_02429" class="clusterblast-orf" id="dummy-3_q0_0_all"  />
<polygon points="78,40 116,40 121,35 116,30 78,30 78,40 " style="fill:#43d815; stroke-width:1; stroke:black; " description="&lt;b&gt;OEILGKOC_02430&lt;/b&gt;&lt;br&gt;Cell shape-determining protein MreB&lt;br&gt;Location: 2488636 - 2489674" locus_tag="OEILGKOC_02430" class="clusterblast-orf" id="dummy-3_q1_0_all"  />
<polygon points="122,40 156,40 161,35 156,30 122,30 122,40 " style="fill:#15b6d8; stroke-width:1; stroke:black; " description="&lt;b&gt;OEILGKOC_02431&lt;/b&gt;&lt;br&gt;hypothetical protein&lt;br&gt;Location: 2489699 - 2490623" locus_tag="OEILGKOC_02431" class="clusterblast-orf" id="dummy-3_q2_0_all"  />
<polygon points="161,40 180,40 185,35 180,30 161,30 161,40 " style="fill:#8815d8; stroke-width:1; stroke:black; " description="&lt;b&gt;OEILGKOC_02432&lt;/b&gt;&lt;br&gt;hypothetical protein&lt;br&gt;Location: 2490639 - 2491215" locus_tag="OEILGKOC_02432" class="clusterblast-orf" id="dummy-3_q3_0_all"  />
<polygon points="185,40 261,40 266,35 261,30 185,30 185,40 " style="fill:#d85a15; stroke-width:1; stroke:black; " description="&lt;b&gt;OEILGKOC_02433&lt;/b&gt;&lt;br&gt;Peptidoglycan D,D-transpeptidase MrdA&lt;br&gt;Location: 2491211 - 2493149" locus_tag="OEILGKOC_02433" class="clusterblast-orf" id="dummy-3_q4_0_all"  />
<polygon points="266,40 308,40 313,35 308,30 266,30 266,40 " style="fill:#15d82c; stroke-width:1; stroke:black; " description="&lt;b&gt;OEILGKOC_02434&lt;/b&gt;&lt;br&gt;Peptidoglycan glycosyltransferase MrdB&lt;br&gt;Location: 2493145 - 2494294" locus_tag="OEILGKOC_02434" class="clusterblast-orf" id="dummy-3_q5_0_all"  />
<polygon points="313,40 347,40 352,35 347,30 313,30 313,40 " style="fill:#1571d8; stroke-width:1; stroke:black; " description="&lt;b&gt;OEILGKOC_02435&lt;/b&gt;&lt;br&gt;Glyoxylate/hydroxypyruvate reductase A&lt;br&gt;Location: 2494290 - 2495223" locus_tag="OEILGKOC_02435" class="clusterblast-orf" id="dummy-3_q6_0_all"  />
<polygon points="354,40 366,40 371,35 366,30 354,30 354,40 " style="fill:white; stroke-width:1; stroke:black; " description="&lt;b&gt;OEILGKOC_02436&lt;/b&gt;&lt;br&gt;hypothetical protein&lt;br&gt;Location: 2495264 - 2495666" locus_tag="OEILGKOC_02436" class="clusterblast-orf" id="dummy-3_q7_0_all"  />
<polygon points="381,35 386,30 415,30 415,40 386,40 381,35 " style="fill:#cd15d8; stroke-width:1; stroke:black; " description="&lt;b&gt;OEILGKOC_02437&lt;/b&gt;&lt;br&gt;hypothetical protein&lt;br&gt;Location: 2495912 - 2496734" locus_tag="OEILGKOC_02437" class="clusterblast-orf" id="dummy-3_q8_0_all"  />
<polygon points="422,35 427,30 452,30 452,40 427,40 422,35 " style="fill:#d89f15; stroke-width:1; stroke:black; " description="&lt;b&gt;OEILGKOC_02438&lt;/b&gt;&lt;br&gt;hypothetical protein&lt;br&gt;Location: 2496910 - 2497615" locus_tag="OEILGKOC_02438" class="clusterblast-orf" id="dummy-3_q9_0_all"  />
<polygon points="466,40 550,40 555,35 550,30 466,30 466,40 " style="fill:#15d871; stroke-width:1; stroke:black; " description="&lt;b&gt;OEILGKOC_02439&lt;/b&gt;&lt;br&gt;Malate synthase G&lt;br&gt;Location: 2497951 - 2500099" locus_tag="OEILGKOC_02439" class="clusterblast-orf" id="dummy-3_q10_0_all"  />
<polygon points="556,35 561,30 593,30 593,40 561,40 556,35 " style="fill:#152cd8; stroke-width:1; stroke:black; " description="&lt;b&gt;OEILGKOC_02440&lt;/b&gt;&lt;br&gt;Secretory immunoglobulin A-binding protein EsiB&lt;br&gt;Location: 2500124 - 2501015" locus_tag="OEILGKOC_02440" class="clusterblast-orf" id="dummy-3_q11_0_all"  />
<polygon points="599,40 620,40 625,35 620,30 599,30 599,40 " style="fill:#d8159f; stroke-width:1; stroke:black; " description="&lt;b&gt;OEILGKOC_02441&lt;/b&gt;&lt;br&gt;hypothetical protein&lt;br&gt;Location: 2501149 - 2501773" locus_tag="OEILGKOC_02441" class="clusterblast-orf" id="dummy-3_q12_0_all"  />
<polygon points="625,35 630,30 653,30 653,40 630,40 625,35 " style="fill:#cdd815; stroke-width:1; stroke:black; " description="&lt;b&gt;OEILGKOC_02442&lt;/b&gt;&lt;br&gt;putative oxidoreductase&lt;br&gt;Location: 2501779 - 2502457" locus_tag="OEILGKOC_02442" class="clusterblast-orf" id="dummy-3_q13_0_all"  />
<polygon points="659,40 671,40 676,35 671,30 659,30 659,40 " style="fill:#15d8b6; stroke-width:1; stroke:black; " description="&lt;b&gt;OEILGKOC_02443&lt;/b&gt;&lt;br&gt;Acyl-CoA thioester hydrolase YbgC&lt;br&gt;Location: 2502590 - 2503007" locus_tag="OEILGKOC_02443" class="clusterblast-orf" id="dummy-3_q14_0_all"  />
<polygon points="680,40 704,40 709,35 704,30 680,30 680,40 " style="fill:#4315d8; stroke-width:1; stroke:black; " description="&lt;b&gt;OEILGKOC_02444&lt;/b&gt;&lt;br&gt;Tol-Pal system protein TolQ&lt;br&gt;Location: 2503094 - 2503793" locus_tag="OEILGKOC_02444" class="clusterblast-orf" id="dummy-3_q15_0_all"  />
<polygon points="709,40 723,40 728,35 723,30 709,30 709,40 " style="fill:#d8155a; stroke-width:1; stroke:black; " description="&lt;b&gt;OEILGKOC_02445&lt;/b&gt;&lt;br&gt;Biopolymer transport protein ExbD&lt;br&gt;Location: 2503795 - 2504266" locus_tag="OEILGKOC_02445" class="clusterblast-orf" id="dummy-3_q16_0_all"  />
<polygon points="731,40 775,40 780,35 775,30 731,30 731,40 " style="fill:#88d815; stroke-width:1; stroke:black; " description="&lt;b&gt;OEILGKOC_02446&lt;/b&gt;&lt;br&gt;hypothetical protein&lt;br&gt;Location: 2504327 - 2505506" locus_tag="OEILGKOC_02446" class="clusterblast-orf" id="dummy-3_q17_0_all"  />
</g>
<g label="NZ_CP015093" description="NZ_CP015093 (2567628-2588267): Pelagibaca abyssi strain JLT2014 chromosome, c... (26% of genes show similarity), hserlactone" class="clusterblast-cluster"  >
<text x="5" y="70" class="clusterblast-acc"  >
<a xlink:href="https://antismash-db.secondarymetabolites.org/area.html?record=NZ_CP015093&amp;start=2567628&amp;end=2588267" target="_blank">NZ_CP015093 (2567628-2588267)</a>: Pelagibaca abyssi strain JLT2014 chromosome, c... (26% of genes show similarity), hserlactone</text>
<line x1="10" y1="85" x2="778.0" y2="85" style="stroke-width:1; stroke:grey; "  />
</g>
<g id="a3_000"  >
<polygon points="4,90 102,90 107,85 102,80 4,80 4,90 " style="fill:white; stroke-width:1; stroke:black; " description="&lt;b&gt;Ga0080574_RS16025&lt;/b&gt;&lt;br&gt;hypothetical protein&lt;br&gt;Location: 2568118 - 2570598" locus_tag="Ga0080574_RS16025" class="clusterblast-orf" id="dummy-3_h3_8_0"  />
</g>
<g id="a3_001"  >
<polygon points="110,90 140,90 145,85 140,80 110,80 110,90 " style="fill:white; stroke-width:1; stroke:black; " description="&lt;b&gt;Ga0080574_RS16030&lt;/b&gt;&lt;br&gt;DUF1989 domain-containing protein&lt;br&gt;Location: 2570663 - 2571508" locus_tag="Ga0080574_RS16030" class="clusterblast-orf" id="dummy-3_h3_8_1"  />
</g>
<g id="a3_002"  >
<polygon points="147,85 152,80 176,80 176,90 152,90 147,85 " style="fill:white; stroke-width:1; stroke:black; " description="&lt;b&gt;Ga0080574_RS16035&lt;/b&gt;&lt;br&gt;purine-nucleoside phosphorylase&lt;br&gt;Location: 2571546 - 2572259" locus_tag="Ga0080574_RS16035" class="clusterblast-orf" id="dummy-3_h3_8_2"  />
</g>
<g id="a3_003"  >
<polygon points="176,85 181,80 189,80 189,90 181,90 176,85 " style="fill:white; stroke-width:1; stroke:black; " description="&lt;b&gt;Ga0080574_RS16040&lt;/b&gt;&lt;br&gt;H-NS histone family protein&lt;br&gt;Location: 2572259 - 2572570" locus_tag="Ga0080574_RS16040" class="clusterblast-orf" id="dummy-3_h3_8_3"  />
</g>
<g id="a3_004"  >
<polygon points="196,85 201,80 278,80 278,90 201,90 196,85 " style="fill:white; stroke-width:1; stroke:black; " description="&lt;b&gt;Ga0080574_RS16045&lt;/b&gt;&lt;br&gt;protein meaA&lt;br&gt;Location: 2572734 - 2574698" locus_tag="Ga0080574_RS16045" class="clusterblast-orf" id="dummy-3_h3_8_4"  />
</g>
<g id="a3_005"  >
<polygon points="296,90 344,90 349,85 344,80 296,80 296,90 " style="fill:white; stroke-width:1; stroke:black; " description="&lt;b&gt;Ga0080574_RS16050&lt;/b&gt;&lt;br&gt;crotonyl-CoA carboxylase/reductase&lt;br&gt;Location: 2575124 - 2576410" locus_tag="Ga0080574_RS16050" class="clusterblast-orf" id="dummy-3_h3_8_5"  />
</g>
<g id="a3_006"  >
<polygon points="358,90 361,90 366,85 361,80 358,80 358,90 " style="fill:white; stroke-width:1; stroke:black; " description="&lt;b&gt;Ga0080574_RS16055&lt;/b&gt;&lt;br&gt;hypothetical protein&lt;br&gt;Location: 2576625 - 2576822" locus_tag="Ga0080574_RS16055" class="clusterblast-orf" id="dummy-3_h3_8_6"  />
</g>
<g id="a3_007"  >
<polygon points="365,90 389,90 394,85 389,80 365,80 365,90 " style="fill:#d89f15; stroke-width:1; stroke:black; " description="&lt;b&gt;Ga0080574_RS16060&lt;/b&gt;&lt;br&gt;LuxR family transcriptional regulator&lt;br&gt;Location: 2576788 - 2577498&lt;br&gt;&lt;br&gt;&lt;b&gt;BlastP hit with OEILGKOC_02438&lt;/b&gt;&lt;br&gt;Percentage identity: 34&lt;br&gt;Percentage coverage: 94&lt;br&gt;BLAST bit score: 116&lt;br&gt;E-value: 5.69e-30" locus_tag="Ga0080574_RS16060" class="clusterblast-orf" id="dummy-3_h3_8_7"  />
</g>
<g id="a3_008"  >
<polygon points="400,90 421,90 426,85 421,80 400,80 400,90 " style="fill:#cd15d8; stroke-width:1; stroke:black; " description="&lt;b&gt;Ga0080574_RS16065&lt;/b&gt;&lt;br&gt;autoinducer synthase&lt;br&gt;Location: 2577629 - 2578267&lt;br&gt;&lt;br&gt;&lt;b&gt;BlastP hit with OEILGKOC_02437&lt;/b&gt;&lt;br&gt;Percentage identity: 34&lt;br&gt;Percentage coverage: 67&lt;br&gt;BLAST bit score: 76&lt;br&gt;E-value: 1.91e-14" locus_tag="Ga0080574_RS16065" class="clusterblast-orf" id="dummy-3_h3_8_8"  />
</g>
<g id="a3_009"  >
<polygon points="430,90 489,90 494,85 489,80 430,80 430,90 " style="fill:white; stroke-width:1; stroke:black; " description="&lt;b&gt;Ga0080574_RS16070&lt;/b&gt;&lt;br&gt;AAA family ATPase&lt;br&gt;Location: 2578364 - 2579899" locus_tag="Ga0080574_RS16070" class="clusterblast-orf" id="dummy-3_h3_8_9"  />
</g>
<g id="a3_0010"  >
<polygon points="494,90 505,90 510,85 505,80 494,80 494,90 " style="fill:white; stroke-width:1; stroke:black; " description="&lt;b&gt;Ga0080574_RS16075&lt;/b&gt;&lt;br&gt;PaaI family thioesterase&lt;br&gt;Location: 2579896 - 2580285" locus_tag="Ga0080574_RS16075" class="clusterblast-orf" id="dummy-3_h3_8_10"  />
</g>
<g id="a3_0011"  >
<polygon points="511,85 516,80 548,80 548,90 516,90 511,85 " style="fill:white; stroke-width:1; stroke:black; " description="&lt;b&gt;Ga0080574_RS16080&lt;/b&gt;&lt;br&gt;cation transporter&lt;br&gt;Location: 2580311 - 2581198" locus_tag="Ga0080574_RS16080" class="clusterblast-orf" id="dummy-3_h3_8_11"  />
</g>
<g id="a3_0012"  >
<polygon points="553,85 558,80 570,80 570,90 558,90 553,85 " style="fill:white; stroke-width:1; stroke:black; " description="&lt;b&gt;Ga0080574_RS16085&lt;/b&gt;&lt;br&gt;large conductance mechanosensitive channel protein MscL&lt;br&gt;Location: 2581307 - 2581729" locus_tag="Ga0080574_RS16085" class="clusterblast-orf" id="dummy-3_h3_8_12"  />
</g>
<g id="a3_0013"  >
<polygon points="577,90 601,90 606,85 601,80 577,80 577,90 " style="fill:white; stroke-width:1; stroke:black; " description="&lt;b&gt;Ga0080574_RS16090&lt;/b&gt;&lt;br&gt;glutathione S-transferase&lt;br&gt;Location: 2581885 - 2582583" locus_tag="Ga0080574_RS16090" class="clusterblast-orf" id="dummy-3_h3_8_13"  />
</g>
<g id="a3_0014"  >
<polygon points="612,85 617,80 631,80 631,90 617,90 612,85 " style="fill:white; stroke-width:1; stroke:black; " description="&lt;b&gt;Ga0080574_RS16095&lt;/b&gt;&lt;br&gt;YtoQ family protein&lt;br&gt;Location: 2582739 - 2583188" locus_tag="Ga0080574_RS16095" class="clusterblast-orf" id="dummy-3_h3_8_14"  />
</g>
<g id="a3_0015"  >
<polygon points="637,90 659,90 664,85 659,80 637,80 637,90 " style="fill:white; stroke-width:1; stroke:black; " description="&lt;b&gt;Ga0080574_RS16100&lt;/b&gt;&lt;br&gt;hypothetical protein&lt;br&gt;Location: 2583339 - 2583977" locus_tag="Ga0080574_RS16100" class="clusterblast-orf" id="dummy-3_h3_8_15"  />
</g>
<g id="a3_0016"  >
<polygon points="669,90 708,90 713,85 708,80 669,80 669,90 " style="fill:#43d815; stroke-width:1; stroke:black; " description="&lt;b&gt;Ga0080574_RS16105&lt;/b&gt;&lt;br&gt;rod shape-determining protein&lt;br&gt;Location: 2584108 - 2585154&lt;br&gt;&lt;br&gt;&lt;b&gt;BlastP hit with OEILGKOC_02430&lt;/b&gt;&lt;br&gt;Percentage identity: 87&lt;br&gt;Percentage coverage: 98&lt;br&gt;BLAST bit score: 576&lt;br&gt;E-value: 2.6e-207" locus_tag="Ga0080574_RS16105" class="clusterblast-orf" id="dummy-3_h3_8_16"  />
</g>
<g id="a3_0017"  >
<polygon points="715,90 748,90 753,85 748,80 715,80 715,90 " style="fill:#15b6d8; stroke-width:1; stroke:black; " description="&lt;b&gt;Ga0080574_RS16110&lt;/b&gt;&lt;br&gt;rod shape-determining protein MreC&lt;br&gt;Location: 2585200 - 2586108&lt;br&gt;&lt;br&gt;&lt;b&gt;BlastP hit with OEILGKOC_02431&lt;/b&gt;&lt;br&gt;Percentage identity: 58&lt;br&gt;Percentage coverage: 93&lt;br&gt;BLAST bit score: 348&lt;br&gt;E-value: 9.22e-119" locus_tag="Ga0080574_RS16110" class="clusterblast-orf" id="dummy-3_h3_8_17"  />
</g>
<g id="a3_0018"  >
<polygon points="752,90 770,90 775,85 770,80 752,80 752,90 " style="fill:#8815d8; stroke-width:1; stroke:black; " description="&lt;b&gt;Ga0080574_RS16115&lt;/b&gt;&lt;br&gt;rod shape-determining protein MreD&lt;br&gt;Location: 2586101 - 2586640&lt;br&gt;&lt;br&gt;&lt;b&gt;BlastP hit with OEILGKOC_02432&lt;/b&gt;&lt;br&gt;Percentage identity: 35&lt;br&gt;Percentage coverage: 96&lt;br&gt;BLAST bit score: 108&lt;br&gt;E-value: 7.07e-28" locus_tag="Ga0080574_RS16115" class="clusterblast-orf" id="dummy-3_h3_8_18"  />
</g>
</svg>
