<svg xmlns="http://www.w3.org/2000/svg" xmlns:xlink="http://www.w3.org/1999/xlink" version="1.1" x="0" y="0" height="100" width="800" viewBox="0 0 800 100" preserveAspectRatio="none"  >
<g label="Query sequence" class="clusterblast-cluster"  >
<text x="5" y="20" class="clusterblast-acc"  >
Query sequence</text>
<line x1="10" y1="35" x2="778.0" y2="35" style="stroke-width:1; stroke:grey; "  />
<polygon points="0,40 26,40 31,35 26,30 0,30 0,40 " style="fill:white; stroke-width:1; stroke:black; " description="&lt;b&gt;OEILGKOC_00595&lt;/b&gt;&lt;br&gt;hypothetical protein&lt;br&gt;Location: 619461 - 620259" locus_tag="OEILGKOC_00595" class="clusterblast-orf" id="knownclusterblast-1_q0_0_all"  />
<polygon points="33,40 84,40 89,35 84,30 33,30 33,40 " style="fill:white; stroke-width:1; stroke:black; " description="&lt;b&gt;OEILGKOC_00596&lt;/b&gt;&lt;br&gt;hypothetical protein&lt;br&gt;Location: 620314 - 621751" locus_tag="OEILGKOC_00596" class="clusterblast-orf" id="knownclusterblast-1_q1_0_all"  />
<polygon points="93,40 154,40 159,35 154,30 93,30 93,40 " style="fill:white; stroke-width:1; stroke:black; " description="&lt;b&gt;OEILGKOC_00597&lt;/b&gt;&lt;br&gt;Anaerobic magnesium-protoporphyrin IX monomethyl ester cyclase&lt;br&gt;Location: 621848 - 623549" locus_tag="OEILGKOC_00597" class="clusterblast-orf" id="knownclusterblast-1_q2_0_all"  />
<polygon points="160,40 179,40 184,35 179,30 160,30 160,40 " style="fill:white; stroke-width:1; stroke:black; " description="&lt;b&gt;OEILGKOC_00598&lt;/b&gt;&lt;br&gt;hypothetical protein&lt;br&gt;Location: 623555 - 624176" locus_tag="OEILGKOC_00598" class="clusterblast-orf" id="knownclusterblast-1_q3_0_all"  />
<polygon points="183,35 188,30 193,30 193,40 188,40 183,35 " style="fill:white; stroke-width:1; stroke:black; " description="&lt;b&gt;OEILGKOC_00599&lt;/b&gt;&lt;br&gt;hypothetical protein&lt;br&gt;Location: 624153 - 624405" locus_tag="OEILGKOC_00599" class="clusterblast-orf" id="knownclusterblast-1_q4_0_all"  />
<polygon points="198,40 229,40 234,35 229,30 198,30 198,40 " style="fill:white; stroke-width:1; stroke:black; " description="&lt;b&gt;OEILGKOC_00600&lt;/b&gt;&lt;br&gt;1,4-dihydroxy-2-naphthoate octaprenyltransferase&lt;br&gt;Location: 624549 - 625458" locus_tag="OEILGKOC_00600" class="clusterblast-orf" id="knownclusterblast-1_q5_0_all"  />
<polygon points="234,40 278,40 283,35 278,30 234,30 234,40 " style="fill:white; stroke-width:1; stroke:black; " description="&lt;b&gt;OEILGKOC_00601&lt;/b&gt;&lt;br&gt;Protein PucC&lt;br&gt;Location: 625454 - 626726" locus_tag="OEILGKOC_00601" class="clusterblast-orf" id="knownclusterblast-1_q6_0_all"  />
<polygon points="283,40 325,40 330,35 325,30 283,30 283,40 " style="fill:white; stroke-width:1; stroke:black; " description="&lt;b&gt;OEILGKOC_00602&lt;/b&gt;&lt;br&gt;hypothetical protein&lt;br&gt;Location: 626729 - 627911" locus_tag="OEILGKOC_00602" class="clusterblast-orf" id="knownclusterblast-1_q7_0_all"  />
<polygon points="329,40 346,40 351,35 346,30 329,30 329,40 " style="fill:white; stroke-width:1; stroke:black; " description="&lt;b&gt;OEILGKOC_00603&lt;/b&gt;&lt;br&gt;Isopentenyl-diphosphate Delta-isomerase&lt;br&gt;Location: 627907 - 628462" locus_tag="OEILGKOC_00603" class="clusterblast-orf" id="knownclusterblast-1_q8_0_all"  />
<polygon points="352,35 357,30 369,30 369,40 357,40 352,35 " style="fill:white; stroke-width:1; stroke:black; " description="&lt;b&gt;OEILGKOC_00604&lt;/b&gt;&lt;br&gt;Tryptophan-rich sensory protein&lt;br&gt;Location: 628474 - 628933" locus_tag="OEILGKOC_00604" class="clusterblast-orf" id="knownclusterblast-1_q9_0_all"  />
<polygon points="375,35 380,30 415,30 415,40 380,40 375,35 " style="fill:#d81515; stroke-width:1; stroke:black; " description="&lt;b&gt;OEILGKOC_00605&lt;/b&gt;&lt;br&gt;hypothetical protein&lt;br&gt;Location: 629066 - 630104" locus_tag="OEILGKOC_00605" class="clusterblast-orf" id="knownclusterblast-1_q10_0_all"  />
<polygon points="415,35 420,30 475,30 475,40 420,40 415,35 " style="fill:#15d8d8; stroke-width:1; stroke:black; " description="&lt;b&gt;OEILGKOC_00606&lt;/b&gt;&lt;br&gt;Phytoene desaturase (neurosporene-forming)&lt;br&gt;Location: 630100 - 631636" locus_tag="OEILGKOC_00606" class="clusterblast-orf" id="knownclusterblast-1_q11_0_all"  />
<polygon points="480,40 503,40 508,35 503,30 480,30 480,40 " style="fill:white; stroke-width:1; stroke:black; " description="&lt;b&gt;OEILGKOC_00607&lt;/b&gt;&lt;br&gt;Spheroidene monooxygenase&lt;br&gt;Location: 631771 - 632479" locus_tag="OEILGKOC_00607" class="clusterblast-orf" id="knownclusterblast-1_q12_0_all"  />
<polygon points="508,40 542,40 547,35 542,30 508,30 508,40 " style="fill:white; stroke-width:1; stroke:black; " description="&lt;b&gt;OEILGKOC_00608&lt;/b&gt;&lt;br&gt;Magnesium-chelatase 38 kDa subunit&lt;br&gt;Location: 632475 - 633477" locus_tag="OEILGKOC_00608" class="clusterblast-orf" id="knownclusterblast-1_q13_0_all"  />
<polygon points="548,40 609,40 614,35 609,30 548,30 548,40 " style="fill:white; stroke-width:1; stroke:black; " description="&lt;b&gt;OEILGKOC_00609&lt;/b&gt;&lt;br&gt;Magnesium-chelatase 60 kDa subunit&lt;br&gt;Location: 633515 - 635198" locus_tag="OEILGKOC_00609" class="clusterblast-orf" id="knownclusterblast-1_q14_0_all"  />
<polygon points="614,40 643,40 648,35 643,30 614,30 614,40 " style="fill:white; stroke-width:1; stroke:black; " description="&lt;b&gt;OEILGKOC_00610&lt;/b&gt;&lt;br&gt;2-succinyl-6-hydroxy-2, 4-cyclohexadiene-1-carboxylate synthase&lt;br&gt;Location: 635200 - 636085" locus_tag="OEILGKOC_00610" class="clusterblast-orf" id="knownclusterblast-1_q15_0_all"  />
<polygon points="648,35 653,30 677,30 677,40 653,40 648,35 " style="fill:white; stroke-width:1; stroke:black; " description="&lt;b&gt;OEILGKOC_00611&lt;/b&gt;&lt;br&gt;Acyclic carotenoid 1,2-hydratase&lt;br&gt;Location: 636085 - 636805" locus_tag="OEILGKOC_00611" class="clusterblast-orf" id="knownclusterblast-1_q16_0_all"  />
<polygon points="681,35 686,30 742,30 742,40 686,40 681,35 " style="fill:white; stroke-width:1; stroke:black; " description="&lt;b&gt;OEILGKOC_00612&lt;/b&gt;&lt;br&gt;Hydroxyneurosporene desaturase&lt;br&gt;Location: 636918 - 638484" locus_tag="OEILGKOC_00612" class="clusterblast-orf" id="knownclusterblast-1_q17_0_all"  />
<polygon points="746,40 775,40 780,35 775,30 746,30 746,40 " style="fill:white; stroke-width:1; stroke:black; " description="&lt;b&gt;OEILGKOC_00613&lt;/b&gt;&lt;br&gt;hypothetical protein&lt;br&gt;Location: 638576 - 639455" locus_tag="OEILGKOC_00613" class="clusterblast-orf" id="knownclusterblast-1_q18_0_all"  />
</g>
<g label="BGC0000647" description="BGC0000647_c1: carotenoid (100% of genes show similarity), Terpene" class="clusterblast-cluster"  >
<text x="5" y="70" class="clusterblast-acc"  >
<a xlink:href="https://mibig.secondarymetabolites.org/go/BGC0000647/1" target="_blank">BGC0000647</a>: carotenoid                                                                       (100% of genes show similarity), Terpene</text>
<line x1="10" y1="85" x2="778.0" y2="85" style="stroke-width:1; stroke:grey; "  />
</g>
<g id="a1_000"  >
<polygon points="338,85 343,80 380,80 380,90 343,90 338,85 " style="fill:#d81515; stroke-width:1; stroke:black; " description="&lt;b&gt;AAB31139.1&lt;/b&gt;&lt;br&gt;phytoene synthase&lt;br&gt;Location: 2872 - 1805&lt;br&gt;&lt;br&gt;&lt;b&gt;BlastP hit with OEILGKOC_00605&lt;/b&gt;&lt;br&gt;Percentage identity: 61&lt;br&gt;Percentage coverage: 101&lt;br&gt;BLAST bit score: 390&lt;br&gt;E-value: 1.86e-135" locus_tag="AAB31139.1" class="clusterblast-orf" id="knownclusterblast-1_all_1_1_0"  />
</g>
<g id="a1_001"  >
<polygon points="380,85 385,80 441,80 441,90 385,90 380,85 " style="fill:#15d8d8; stroke-width:1; stroke:black; " description="&lt;b&gt;AAB31138.1&lt;/b&gt;&lt;br&gt;phytoene desaturase&lt;br&gt;Location: 1808 - 252&lt;br&gt;&lt;br&gt;&lt;b&gt;BlastP hit with OEILGKOC_00606&lt;/b&gt;&lt;br&gt;Percentage identity: 74&lt;br&gt;Percentage coverage: 98&lt;br&gt;BLAST bit score: 751&lt;br&gt;E-value: 1.4e-272" locus_tag="AAB31138.1" class="clusterblast-orf" id="knownclusterblast-1_all_1_1_1"  />
</g>
</svg>
