<svg xmlns="http://www.w3.org/2000/svg" xmlns:xlink="http://www.w3.org/1999/xlink" version="1.1" x="0" y="0" height="230" width="800" viewBox="0 0 800 230" preserveAspectRatio="none"  >
<g label="Query sequence" class="clusterblast-cluster"  >
<text x="5" y="20" class="clusterblast-acc"  >
Query sequence</text>
<line x1="10" y1="35" x2="778.0" y2="35" style="stroke-width:1; stroke:grey; "  />
<polygon points="184,40 190,40 195,35 190,30 184,30 184,40 " style="fill:white; stroke-width:1; stroke:black; " description="&lt;b&gt;FCOJGGDE_00804&lt;/b&gt;&lt;br&gt;2-aminoadipate transaminase&lt;br&gt;Location: 195091 - 196297" locus_tag="FCOJGGDE_00804" class="clusterblast-orf" id="dummy-1_q0_0_all"  />
<polygon points="195,40 197,35 195,30 195,40 " style="fill:white; stroke-width:1; stroke:black; " description="&lt;b&gt;FCOJGGDE_00805&lt;/b&gt;&lt;br&gt;hypothetical protein&lt;br&gt;Location: 196307 - 196448" locus_tag="FCOJGGDE_00805" class="clusterblast-orf" id="dummy-1_q1_0_all"  />
<polygon points="197,40 200,40 205,35 200,30 197,30 197,40 " style="fill:white; stroke-width:1; stroke:black; " description="&lt;b&gt;FCOJGGDE_00806&lt;/b&gt;&lt;br&gt;hypothetical protein&lt;br&gt;Location: 196465 - 197368" locus_tag="FCOJGGDE_00806" class="clusterblast-orf" id="dummy-1_q2_0_all"  />
<polygon points="208,40 212,35 208,30 208,40 " style="fill:white; stroke-width:1; stroke:black; " description="&lt;b&gt;FCOJGGDE_00807&lt;/b&gt;&lt;br&gt;hypothetical protein&lt;br&gt;Location: 197637 - 198087" locus_tag="FCOJGGDE_00807" class="clusterblast-orf" id="dummy-1_q3_0_all"  />
<polygon points="214,35 219,30 226,30 226,40 219,40 214,35 " style="fill:white; stroke-width:1; stroke:black; " description="&lt;b&gt;FCOJGGDE_00808&lt;/b&gt;&lt;br&gt;O-acetyl-L-homoserine sulfhydrylase&lt;br&gt;Location: 198271 - 199558" locus_tag="FCOJGGDE_00808" class="clusterblast-orf" id="dummy-1_q4_0_all"  />
<polygon points="229,40 233,35 229,30 229,40 " style="fill:white; stroke-width:1; stroke:black; " description="&lt;b&gt;FCOJGGDE_00809&lt;/b&gt;&lt;br&gt;hypothetical protein&lt;br&gt;Location: 199807 - 200320" locus_tag="FCOJGGDE_00809" class="clusterblast-orf" id="dummy-1_q5_0_all"  />
<polygon points="234,40 238,40 243,35 238,30 234,30 234,40 " style="fill:white; stroke-width:1; stroke:black; " description="&lt;b&gt;FCOJGGDE_00810&lt;/b&gt;&lt;br&gt;Manganese-binding lipoprotein MntA&lt;br&gt;Location: 200414 - 201371" locus_tag="FCOJGGDE_00810" class="clusterblast-orf" id="dummy-1_q6_0_all"  />
<polygon points="243,40 245,40 250,35 245,30 243,30 243,40 " style="fill:#d81515; stroke-width:1; stroke:black; " description="&lt;b&gt;FCOJGGDE_00811&lt;/b&gt;&lt;br&gt;Manganese transport system ATP-binding protein MntB&lt;br&gt;Location: 201371 - 202103" locus_tag="FCOJGGDE_00811" class="clusterblast-orf" id="dummy-1_q7_0_all"  />
<polygon points="251,40 254,40 259,35 254,30 251,30 251,40 " style="fill:white; stroke-width:1; stroke:black; " description="&lt;b&gt;FCOJGGDE_00812&lt;/b&gt;&lt;br&gt;Manganese transport system membrane protein MntC&lt;br&gt;Location: 202118 - 203003" locus_tag="FCOJGGDE_00812" class="clusterblast-orf" id="dummy-1_q8_0_all"  />
<polygon points="259,40 263,40 268,35 263,30 259,30 259,40 " style="fill:white; stroke-width:1; stroke:black; " description="&lt;b&gt;FCOJGGDE_00813&lt;/b&gt;&lt;br&gt;Manganese transport system membrane protein MntD&lt;br&gt;Location: 203002 - 203911" locus_tag="FCOJGGDE_00813" class="clusterblast-orf" id="dummy-1_q9_0_all"  />
<polygon points="268,40 269,40 274,35 269,30 268,30 268,40 " style="fill:#43d815; stroke-width:1; stroke:black; " description="&lt;b&gt;FCOJGGDE_00814&lt;/b&gt;&lt;br&gt;Histidine biosynthesis bifunctional protein HisB&lt;br&gt;Location: 203978 - 204566" locus_tag="FCOJGGDE_00814" class="clusterblast-orf" id="dummy-1_q10_0_all"  />
<polygon points="274,40 275,40 280,35 275,30 274,30 274,40 " style="fill:#15b6d8; stroke-width:1; stroke:black; " description="&lt;b&gt;FCOJGGDE_00815&lt;/b&gt;&lt;br&gt;Imidazole glycerol phosphate synthase subunit HisH&lt;br&gt;Location: 204566 - 205214" locus_tag="FCOJGGDE_00815" class="clusterblast-orf" id="dummy-1_q11_0_all"  />
<polygon points="283,35 288,30 292,30 292,40 288,40 283,35 " style="fill:#8815d8; stroke-width:1; stroke:black; " description="&lt;b&gt;FCOJGGDE_00816&lt;/b&gt;&lt;br&gt;hypothetical protein&lt;br&gt;Location: 205539 - 206478" locus_tag="FCOJGGDE_00816" class="clusterblast-orf" id="dummy-1_q12_0_all"  />
<polygon points="293,35 296,30 296,40 293,35 " style="fill:#d85a15; stroke-width:1; stroke:black; " description="&lt;b&gt;FCOJGGDE_00817&lt;/b&gt;&lt;br&gt;hypothetical protein&lt;br&gt;Location: 206548 - 206932" locus_tag="FCOJGGDE_00817" class="clusterblast-orf" id="dummy-1_q13_0_all"  />
<polygon points="298,40 300,40 305,35 300,30 298,30 298,40 " style="fill:#15d82c; stroke-width:1; stroke:black; " description="&lt;b&gt;FCOJGGDE_00818&lt;/b&gt;&lt;br&gt;1-(5-phosphoribosyl)-5-[(5- phosphoribosylamino)methylideneamino] imidazole-4-carboxamide isomerase&lt;br&gt;Location: 207105 - 207825" locus_tag="FCOJGGDE_00818" class="clusterblast-orf" id="dummy-1_q14_0_all"  />
<polygon points="306,40 308,40 313,35 308,30 306,30 306,40 " style="fill:#15d82c; stroke-width:1; stroke:black; " description="&lt;b&gt;FCOJGGDE_00819&lt;/b&gt;&lt;br&gt;Imidazole glycerol phosphate synthase subunit HisF&lt;br&gt;Location: 207938 - 208700" locus_tag="FCOJGGDE_00819" class="clusterblast-orf" id="dummy-1_q15_0_all"  />
<polygon points="313,40 316,35 313,30 313,40 " style="fill:#1571d8; stroke-width:1; stroke:black; " description="&lt;b&gt;FCOJGGDE_00820&lt;/b&gt;&lt;br&gt;Phosphoribosyl-ATP pyrophosphatase&lt;br&gt;Location: 208696 - 209008" locus_tag="FCOJGGDE_00820" class="clusterblast-orf" id="dummy-1_q16_0_all"  />
<polygon points="316,35 320,30 320,40 316,35 " style="fill:#cd15d8; stroke-width:1; stroke:black; " description="&lt;b&gt;FCOJGGDE_00821&lt;/b&gt;&lt;br&gt;putative protein YccU&lt;br&gt;Location: 209011 - 209437" locus_tag="FCOJGGDE_00821" class="clusterblast-orf" id="dummy-1_q17_0_all"  />
<polygon points="321,35 326,30 329,30 329,40 326,40 321,35 " style="fill:#d89f15; stroke-width:1; stroke:black; " description="&lt;b&gt;FCOJGGDE_00822&lt;/b&gt;&lt;br&gt;23S rRNA (guanosine-2'-O-)-methyltransferase RlmB&lt;br&gt;Location: 209599 - 210385" locus_tag="FCOJGGDE_00822" class="clusterblast-orf" id="dummy-1_q18_0_all"  />
<polygon points="335,35 338,30 338,40 335,35 " style="fill:white; stroke-width:1; stroke:black; " description="&lt;b&gt;FCOJGGDE_00824&lt;/b&gt;&lt;br&gt;hypothetical protein&lt;br&gt;Location: 210985 - 211306" locus_tag="FCOJGGDE_00824" class="clusterblast-orf" id="dummy-1_q19_0_all"  />
<polygon points="338,40 338,40 343,35 338,30 338,30 338,40 " style="fill:white; stroke-width:1; stroke:black; " description="&lt;b&gt;FCOJGGDE_00825&lt;/b&gt;&lt;br&gt;hypothetical protein&lt;br&gt;Location: 211332 - 211893" locus_tag="FCOJGGDE_00825" class="clusterblast-orf" id="dummy-1_q20_0_all"  />
<polygon points="343,40 349,40 354,35 349,30 343,30 343,40 " style="fill:white; stroke-width:1; stroke:black; " description="&lt;b&gt;FCOJGGDE_00826&lt;/b&gt;&lt;br&gt;S-(hydroxymethyl)glutathione dehydrogenase&lt;br&gt;Location: 211910 - 213026" locus_tag="FCOJGGDE_00826" class="clusterblast-orf" id="dummy-1_q21_0_all"  />
<polygon points="356,40 364,40 369,35 364,30 356,30 356,40 " style="fill:#15d871; stroke-width:1; stroke:black; " description="&lt;b&gt;FCOJGGDE_00827&lt;/b&gt;&lt;br&gt;hypothetical protein&lt;br&gt;Location: 213247 - 214645" locus_tag="FCOJGGDE_00827" class="clusterblast-orf" id="dummy-1_q22_0_all"  />
<polygon points="369,40 402,40 407,35 402,30 369,30 369,40 " style="fill:#152cd8; stroke-width:1; stroke:black; " description="&lt;b&gt;FCOJGGDE_00828&lt;/b&gt;&lt;br&gt;Linear gramicidin synthase subunit D&lt;br&gt;Location: 214641 - 218568" locus_tag="FCOJGGDE_00828" class="clusterblast-orf" id="dummy-1_q23_0_all"  />
<polygon points="407,40 408,40 413,35 408,30 407,30 407,40 " style="fill:white; stroke-width:1; stroke:black; " description="&lt;b&gt;FCOJGGDE_00829&lt;/b&gt;&lt;br&gt;HTH-type transcriptional regulator McbR&lt;br&gt;Location: 218628 - 219291" locus_tag="FCOJGGDE_00829" class="clusterblast-orf" id="dummy-1_q24_0_all"  />
<polygon points="414,40 422,40 427,35 422,30 414,30 414,40 " style="fill:#d8159f; stroke-width:1; stroke:black; " description="&lt;b&gt;FCOJGGDE_00830&lt;/b&gt;&lt;br&gt;Putrescine--pyruvate aminotransferase&lt;br&gt;Location: 219366 - 220761" locus_tag="FCOJGGDE_00830" class="clusterblast-orf" id="dummy-1_q25_0_all"  />
<polygon points="429,35 434,30 440,30 440,40 434,40 429,35 " style="fill:white; stroke-width:1; stroke:black; " description="&lt;b&gt;FCOJGGDE_00831&lt;/b&gt;&lt;br&gt;D-galactarolactone cycloisomerase&lt;br&gt;Location: 220936 - 222052" locus_tag="FCOJGGDE_00831" class="clusterblast-orf" id="dummy-1_q26_0_all"  />
<polygon points="441,40 443,40 448,35 443,30 441,30 441,40 " style="fill:#cdd815; stroke-width:1; stroke:black; " description="&lt;b&gt;FCOJGGDE_00832&lt;/b&gt;&lt;br&gt;Ribulose-phosphate 3-epimerase&lt;br&gt;Location: 222247 - 222937" locus_tag="FCOJGGDE_00832" class="clusterblast-orf" id="dummy-1_q27_0_all"  />
<polygon points="448,40 449,40 454,35 449,30 448,30 448,40 " style="fill:#15d8b6; stroke-width:1; stroke:black; " description="&lt;b&gt;FCOJGGDE_00833&lt;/b&gt;&lt;br&gt;Phosphoglycolate phosphatase&lt;br&gt;Location: 222933 - 223590" locus_tag="FCOJGGDE_00833" class="clusterblast-orf" id="dummy-1_q28_0_all"  />
<polygon points="454,40 457,40 462,35 457,30 454,30 454,40 " style="fill:white; stroke-width:1; stroke:black; " description="&lt;b&gt;FCOJGGDE_00834&lt;/b&gt;&lt;br&gt;N(G),N(G)-dimethylarginine dimethylaminohydrolase&lt;br&gt;Location: 223593 - 224388" locus_tag="FCOJGGDE_00834" class="clusterblast-orf" id="dummy-1_q29_0_all"  />
<polygon points="463,35 467,30 467,40 463,35 " style="fill:white; stroke-width:1; stroke:black; " description="&lt;b&gt;FCOJGGDE_00835&lt;/b&gt;&lt;br&gt;hypothetical protein&lt;br&gt;Location: 224490 - 224928" locus_tag="FCOJGGDE_00835" class="clusterblast-orf" id="dummy-1_q30_0_all"  />
<polygon points="468,40 472,40 477,35 472,30 468,30 468,40 " style="fill:white; stroke-width:1; stroke:black; " description="&lt;b&gt;FCOJGGDE_00836&lt;/b&gt;&lt;br&gt;hypothetical protein&lt;br&gt;Location: 225016 - 226018" locus_tag="FCOJGGDE_00836" class="clusterblast-orf" id="dummy-1_q31_0_all"  />
<polygon points="480,40 490,40 495,35 490,30 480,30 480,40 " style="fill:white; stroke-width:1; stroke:black; " description="&lt;b&gt;FCOJGGDE_00837&lt;/b&gt;&lt;br&gt;hypothetical protein&lt;br&gt;Location: 226284 - 227946" locus_tag="FCOJGGDE_00837" class="clusterblast-orf" id="dummy-1_q32_0_all"  />
<polygon points="499,35 504,30 511,30 511,40 504,40 499,35 " style="fill:white; stroke-width:1; stroke:black; " description="&lt;b&gt;FCOJGGDE_00838&lt;/b&gt;&lt;br&gt;Diaminopropionate ammonia-lyase&lt;br&gt;Location: 228347 - 229538" locus_tag="FCOJGGDE_00838" class="clusterblast-orf" id="dummy-1_q33_0_all"  />
<polygon points="512,40 514,40 519,35 514,30 512,30 512,40 " style="fill:#4315d8; stroke-width:1; stroke:black; " description="&lt;b&gt;FCOJGGDE_00839&lt;/b&gt;&lt;br&gt;5-oxoprolinase subunit B&lt;br&gt;Location: 229650 - 230397" locus_tag="FCOJGGDE_00839" class="clusterblast-orf" id="dummy-1_q34_0_all"  />
<polygon points="519,40 523,40 528,35 523,30 519,30 519,40 " style="fill:white; stroke-width:1; stroke:black; " description="&lt;b&gt;FCOJGGDE_00840&lt;/b&gt;&lt;br&gt;5-oxoprolinase subunit C&lt;br&gt;Location: 230393 - 231404" locus_tag="FCOJGGDE_00840" class="clusterblast-orf" id="dummy-1_q35_0_all"  />
<polygon points="528,40 531,40 536,35 531,30 528,30 528,40 " style="fill:#d8155a; stroke-width:1; stroke:black; " description="&lt;b&gt;FCOJGGDE_00841&lt;/b&gt;&lt;br&gt;5-oxoprolinase subunit A&lt;br&gt;Location: 231400 - 232171" locus_tag="FCOJGGDE_00841" class="clusterblast-orf" id="dummy-1_q36_0_all"  />
<polygon points="541,35 546,30 548,30 548,40 546,40 541,35 " style="fill:white; stroke-width:1; stroke:black; " description="&lt;b&gt;FCOJGGDE_00842&lt;/b&gt;&lt;br&gt;HTH-type transcriptional repressor GlaR&lt;br&gt;Location: 232788 - 233496" locus_tag="FCOJGGDE_00842" class="clusterblast-orf" id="dummy-1_q37_0_all"  />
<polygon points="549,35 554,30 556,30 556,40 554,40 549,35 " style="fill:white; stroke-width:1; stroke:black; " description="&lt;b&gt;FCOJGGDE_00843&lt;/b&gt;&lt;br&gt;Beta-barrel assembly-enhancing protease&lt;br&gt;Location: 233611 - 234295" locus_tag="FCOJGGDE_00843" class="clusterblast-orf" id="dummy-1_q38_0_all"  />
<polygon points="556,35 561,30 562,30 562,40 561,40 556,35 " style="fill:white; stroke-width:1; stroke:black; " description="&lt;b&gt;FCOJGGDE_00844&lt;/b&gt;&lt;br&gt;hypothetical protein&lt;br&gt;Location: 234349 - 234946" locus_tag="FCOJGGDE_00844" class="clusterblast-orf" id="dummy-1_q39_0_all"  />
<polygon points="562,35 565,30 565,40 562,35 " style="fill:white; stroke-width:1; stroke:black; " description="&lt;b&gt;FCOJGGDE_00845&lt;/b&gt;&lt;br&gt;hypothetical protein&lt;br&gt;Location: 234942 - 235260" locus_tag="FCOJGGDE_00845" class="clusterblast-orf" id="dummy-1_q40_0_all"  />
<polygon points="565,35 570,30 576,30 576,40 570,40 565,35 " style="fill:#88d815; stroke-width:1; stroke:black; " description="&lt;b&gt;FCOJGGDE_00846&lt;/b&gt;&lt;br&gt;hypothetical protein&lt;br&gt;Location: 235256 - 236441" locus_tag="FCOJGGDE_00846" class="clusterblast-orf" id="dummy-1_q41_0_all"  />
<polygon points="576,35 578,30 578,40 576,35 " style="fill:white; stroke-width:1; stroke:black; " description="&lt;b&gt;FCOJGGDE_00847&lt;/b&gt;&lt;br&gt;hypothetical protein&lt;br&gt;Location: 236446 - 236611" locus_tag="FCOJGGDE_00847" class="clusterblast-orf" id="dummy-1_q42_0_all"  />
<polygon points="578,35 583,30 591,30 591,40 583,40 578,35 " style="fill:white; stroke-width:1; stroke:black; " description="&lt;b&gt;FCOJGGDE_00848&lt;/b&gt;&lt;br&gt;hypothetical protein&lt;br&gt;Location: 236649 - 238026" locus_tag="FCOJGGDE_00848" class="clusterblast-orf" id="dummy-1_q43_0_all"  />
<polygon points="591,35 595,30 595,40 591,35 " style="fill:white; stroke-width:1; stroke:black; " description="&lt;b&gt;FCOJGGDE_00849&lt;/b&gt;&lt;br&gt;hypothetical protein&lt;br&gt;Location: 238027 - 238474" locus_tag="FCOJGGDE_00849" class="clusterblast-orf" id="dummy-1_q44_0_all"  />
</g>
<g label="NZ_CSTD01000001" description="NZ_CSTD01000001 (1215448-1297698): Mycobacterium bohemicum DSM 44277, whole g... (11% of genes show similarity), NRPS,T1PKS" class="clusterblast-cluster"  >
<text x="5" y="70" class="clusterblast-acc"  >
<a xlink:href="https://antismash-db.secondarymetabolites.org/area.html?record=NZ_CSTD01000001&amp;start=1215448&amp;end=1297698" target="_blank">NZ_CSTD01000001 (1215448-1297698)</a>: Mycobacterium bohemicum DSM 44277, whole g... (11% of genes show similarity), NRPS,T1PKS</text>
<line x1="10" y1="85" x2="778.0" y2="85" style="stroke-width:1; stroke:grey; "  />
</g>
<g id="a1_000"  >
<polygon points="0,85 5,80 11,80 11,90 5,90 0,85 " style="fill:white; stroke-width:1; stroke:black; " description="&lt;b&gt;BN971_RS05925&lt;/b&gt;&lt;br&gt;glycosyltransferase&lt;br&gt;Location: 1297698 - 1296451" locus_tag="BN971_RS05925" class="clusterblast-orf" id="dummy-1_h1_3_0"  />
</g>
<g id="a1_001"  >
<polygon points="12,90 16,90 21,85 16,80 12,80 12,90 " style="fill:white; stroke-width:1; stroke:black; " description="&lt;b&gt;BN971_RS05920&lt;/b&gt;&lt;br&gt;Gfo/Idh/MocA family oxidoreductase&lt;br&gt;Location: 1296386 - 1295394" locus_tag="BN971_RS05920" class="clusterblast-orf" id="dummy-1_h1_3_1"  />
</g>
<g id="a1_002"  >
<polygon points="22,85 27,80 36,80 36,90 27,90 22,85 " style="fill:white; stroke-width:1; stroke:black; " description="&lt;b&gt;BN971_RS05915&lt;/b&gt;&lt;br&gt;GMC family oxidoreductase&lt;br&gt;Location: 1295355 - 1293823" locus_tag="BN971_RS05915" class="clusterblast-orf" id="dummy-1_h1_3_2"  />
</g>
<g id="a1_003"  >
<polygon points="42,90 46,90 51,85 46,80 42,80 42,90 " style="fill:white; stroke-width:1; stroke:black; " description="&lt;b&gt;BN971_RS05910&lt;/b&gt;&lt;br&gt;Gfo/Idh/MocA family oxidoreductase&lt;br&gt;Location: 1293229 - 1292225" locus_tag="BN971_RS05910" class="clusterblast-orf" id="dummy-1_h1_3_3"  />
</g>
<g id="a1_004"  >
<polygon points="53,90 61,90 66,85 61,80 53,80 53,90 " style="fill:white; stroke-width:1; stroke:black; " description="&lt;b&gt;BN971_RS05905&lt;/b&gt;&lt;br&gt;nucleotide sugar dehydrogenase&lt;br&gt;Location: 1292031 - 1290649" locus_tag="BN971_RS05905" class="clusterblast-orf" id="dummy-1_h1_3_4"  />
</g>
<g id="a1_005"  >
<polygon points="67,90 71,90 76,85 71,80 67,80 67,90 " style="fill:white; stroke-width:1; stroke:black; " description="&lt;b&gt;BN971_RS05900&lt;/b&gt;&lt;br&gt;GDP-mannose 4,6-dehydratase&lt;br&gt;Location: 1290609 - 1289608" locus_tag="BN971_RS05900" class="clusterblast-orf" id="dummy-1_h1_3_5"  />
</g>
<g id="a1_006"  >
<polygon points="77,85 82,80 98,80 98,90 82,90 77,85 " style="fill:white; stroke-width:1; stroke:black; " description="&lt;b&gt;BN971_RS05895&lt;/b&gt;&lt;br&gt;acyltransferase&lt;br&gt;Location: 1289523 - 1287364" locus_tag="BN971_RS05895" class="clusterblast-orf" id="dummy-1_h1_3_6"  />
</g>
<g id="a1_007"  >
<polygon points="100,90 107,90 112,85 107,80 100,80 100,90 " style="fill:white; stroke-width:1; stroke:black; " description="&lt;b&gt;BN971_RS05890&lt;/b&gt;&lt;br&gt;glycosyltransferase&lt;br&gt;Location: 1287083 - 1285803" locus_tag="BN971_RS05890" class="clusterblast-orf" id="dummy-1_h1_3_7"  />
</g>
<g id="a1_008"  >
<polygon points="112,85 117,80 123,80 123,90 117,90 112,85 " style="fill:white; stroke-width:1; stroke:black; " description="&lt;b&gt;BN971_RS05885&lt;/b&gt;&lt;br&gt;GDP-mannose 4,6-dehydratase&lt;br&gt;Location: 1285790 - 1284687" locus_tag="BN971_RS05885" class="clusterblast-orf" id="dummy-1_h1_3_8"  />
</g>
<g id="a1_009"  >
<polygon points="124,85 129,80 145,80 145,90 129,90 124,85 " style="fill:white; stroke-width:1; stroke:black; " description="&lt;b&gt;BN971_RS05880&lt;/b&gt;&lt;br&gt;acyltransferase&lt;br&gt;Location: 1284604 - 1282377" locus_tag="BN971_RS05880" class="clusterblast-orf" id="dummy-1_h1_3_9"  />
</g>
<g id="a1_0010"  >
<polygon points="146,85 151,80 166,80 166,90 151,90 146,85 " style="fill:white; stroke-width:1; stroke:black; " description="&lt;b&gt;BN971_RS05875&lt;/b&gt;&lt;br&gt;acyltransferase&lt;br&gt;Location: 1282292 - 1280100" locus_tag="BN971_RS05875" class="clusterblast-orf" id="dummy-1_h1_3_10"  />
</g>
<g id="a1_0011"  >
<polygon points="167,85 172,80 180,80 180,90 172,90 167,85 " style="fill:white; stroke-width:1; stroke:black; " description="&lt;b&gt;BN971_RS05870&lt;/b&gt;&lt;br&gt;hypothetical protein&lt;br&gt;Location: 1280013 - 1278664" locus_tag="BN971_RS05870" class="clusterblast-orf" id="dummy-1_h1_3_11"  />
</g>
<g id="a1_0012"  >
<polygon points="180,85 185,80 273,80 273,90 185,90 180,85 " style="fill:white; stroke-width:1; stroke:black; " description="&lt;b&gt;BN971_RS05865&lt;/b&gt;&lt;br&gt;type I polyketide synthase&lt;br&gt;Location: 1278620 - 1268898" locus_tag="BN971_RS05865" class="clusterblast-orf" id="dummy-1_h1_3_12"  />
</g>
<g id="a1_0013"  >
<polygon points="275,90 282,90 287,85 282,80 275,80 275,90 " style="fill:white; stroke-width:1; stroke:black; " description="&lt;b&gt;BN971_RS05860&lt;/b&gt;&lt;br&gt;class I SAM-dependent methyltransferase&lt;br&gt;Location: 1268673 - 1267348" locus_tag="BN971_RS05860" class="clusterblast-orf" id="dummy-1_h1_3_13"  />
</g>
<g id="a1_0014"  >
<polygon points="288,90 295,90 300,85 295,80 288,80 288,90 " style="fill:white; stroke-width:1; stroke:black; " description="&lt;b&gt;BN971_RS05855&lt;/b&gt;&lt;br&gt;glycosyltransferase&lt;br&gt;Location: 1267286 - 1266018" locus_tag="BN971_RS05855" class="clusterblast-orf" id="dummy-1_h1_3_14"  />
</g>
<g id="a1_0015"  >
<polygon points="302,90 402,90 407,85 402,80 302,80 302,90 " style="fill:white; stroke-width:1; stroke:black; " description="&lt;b&gt;BN971_RS05850&lt;/b&gt;&lt;br&gt;type I polyketide synthase&lt;br&gt;Location: 1265783 - 1254759" locus_tag="BN971_RS05850" class="clusterblast-orf" id="dummy-1_h1_3_15"  />
</g>
<g id="a1_0016"  >
<polygon points="409,90 412,85 409,80 409,90 " style="fill:white; stroke-width:1; stroke:black; " description="&lt;b&gt;BN971_RS24510&lt;/b&gt;&lt;br&gt;PE family protein&lt;br&gt;Location: 1254506 - 1254219" locus_tag="BN971_RS24510" class="clusterblast-orf" id="dummy-1_h1_3_16"  />
</g>
<g id="a1_0017"  >
<polygon points="415,85 420,80 424,80 424,90 420,90 415,85 " style="fill:white; stroke-width:1; stroke:black; " description="&lt;b&gt;BN971_RS05840&lt;/b&gt;&lt;br&gt;class I SAM-dependent methyltransferase&lt;br&gt;Location: 1253838 - 1252975" locus_tag="BN971_RS05840" class="clusterblast-orf" id="dummy-1_h1_3_17"  />
</g>
<g id="a1_0018"  >
<polygon points="428,90 430,85 428,80 428,90 " style="fill:white; stroke-width:1; stroke:black; " description="&lt;b&gt;BN971_RS05835&lt;/b&gt;&lt;br&gt;MbtH family protein&lt;br&gt;Location: 1252530 - 1252306" locus_tag="BN971_RS05835" class="clusterblast-orf" id="dummy-1_h1_3_18"  />
</g>
<g id="a1_0019"  >
<polygon points="430,90 469,90 474,85 469,80 430,80 430,90 " style="fill:white; stroke-width:1; stroke:black; " description="&lt;b&gt;BN971_RS24505&lt;/b&gt;&lt;br&gt;amino acid adenylation domain-containing protein&lt;br&gt;Location: 1252293 - 1247710" locus_tag="BN971_RS24505" class="clusterblast-orf" id="dummy-1_h1_3_19"  />
</g>
<g id="a1_0020"  >
<polygon points="473,90 588,90 593,85 588,80 473,80 473,90 " style="fill:#152cd8; stroke-width:1; stroke:black; " description="&lt;b&gt;BN971_RS05830&lt;/b&gt;&lt;br&gt;amino acid adenylation domain-containing protein&lt;br&gt;Location: 1247723 - 1235112&lt;br&gt;&lt;br&gt;&lt;b&gt;BlastP hit with FCOJGGDE_00828&lt;/b&gt;&lt;br&gt;Percentage identity: 32&lt;br&gt;Percentage coverage: 81&lt;br&gt;BLAST bit score: 360&lt;br&gt;E-value: 3.09e-100" locus_tag="BN971_RS05830" class="clusterblast-orf" id="dummy-1_h1_3_20"  />
</g>
<g id="a1_0021"  >
<polygon points="593,85 598,80 600,80 600,90 598,90 593,85 " style="fill:white; stroke-width:1; stroke:black; " description="&lt;b&gt;BN971_RS05825&lt;/b&gt;&lt;br&gt;isoprenylcysteine carboxylmethyltransferase family protein&lt;br&gt;Location: 1235075 - 1234401" locus_tag="BN971_RS05825" class="clusterblast-orf" id="dummy-1_h1_3_21"  />
</g>
<g id="a1_0022"  >
<polygon points="604,90 604,90 609,85 604,80 604,80 604,90 " style="fill:white; stroke-width:1; stroke:black; " description="&lt;b&gt;BN971_RS05820&lt;/b&gt;&lt;br&gt;2'-5' RNA ligase family protein&lt;br&gt;Location: 1233903 - 1233430" locus_tag="BN971_RS05820" class="clusterblast-orf" id="dummy-1_h1_3_22"  />
</g>
<g id="a1_0023"  >
<polygon points="611,90 615,90 620,85 615,80 611,80 611,90 " style="fill:white; stroke-width:1; stroke:black; " description="&lt;b&gt;BN971_RS05815&lt;/b&gt;&lt;br&gt;biotin synthase BioB&lt;br&gt;Location: 1233262 - 1232228" locus_tag="BN971_RS05815" class="clusterblast-orf" id="dummy-1_h1_3_23"  />
</g>
<g id="a1_0024"  >
<polygon points="621,90 622,85 621,80 621,90 " style="fill:white; stroke-width:1; stroke:black; " description="&lt;b&gt;BN971_RS05810&lt;/b&gt;&lt;br&gt;hypothetical protein&lt;br&gt;Location: 1232210 - 1232013" locus_tag="BN971_RS05810" class="clusterblast-orf" id="dummy-1_h1_3_24"  />
</g>
<g id="a1_0025"  >
<polygon points="622,90 624,90 629,85 624,80 622,80 622,90 " style="fill:white; stroke-width:1; stroke:black; " description="&lt;b&gt;BN971_RS05805&lt;/b&gt;&lt;br&gt;DUF2567 domain-containing protein&lt;br&gt;Location: 1232016 - 1231360" locus_tag="BN971_RS05805" class="clusterblast-orf" id="dummy-1_h1_3_25"  />
</g>
<g id="a1_0026"  >
<polygon points="629,85 634,80 641,80 641,90 634,90 629,85 " style="fill:white; stroke-width:1; stroke:black; " description="&lt;b&gt;BN971_RS05800&lt;/b&gt;&lt;br&gt;lipase&lt;br&gt;Location: 1231365 - 1230025" locus_tag="BN971_RS05800" class="clusterblast-orf" id="dummy-1_h1_3_26"  />
</g>
<g id="a1_0027"  >
<polygon points="643,85 648,80 649,80 649,90 648,90 643,85 " style="fill:white; stroke-width:1; stroke:black; " description="&lt;b&gt;BN971_RS05795&lt;/b&gt;&lt;br&gt;NUDIX hydrolase&lt;br&gt;Location: 1229889 - 1229182" locus_tag="BN971_RS05795" class="clusterblast-orf" id="dummy-1_h1_3_27"  />
</g>
<g id="a1_0028"  >
<polygon points="650,90 654,90 659,85 654,80 650,80 650,90 " style="fill:white; stroke-width:1; stroke:black; " description="&lt;b&gt;BN971_RS05790&lt;/b&gt;&lt;br&gt;quinolinate synthase NadA&lt;br&gt;Location: 1229134 - 1228166" locus_tag="BN971_RS05790" class="clusterblast-orf" id="dummy-1_h1_3_28"  />
</g>
<g id="a1_0029"  >
<polygon points="658,90 668,90 673,85 668,80 658,80 658,90 " style="fill:white; stroke-width:1; stroke:black; " description="&lt;b&gt;BN971_RS05785&lt;/b&gt;&lt;br&gt;L-aspartate oxidase&lt;br&gt;Location: 1228238 - 1226694" locus_tag="BN971_RS05785" class="clusterblast-orf" id="dummy-1_h1_3_29"  />
</g>
<g id="a1_0030"  >
<polygon points="673,90 676,90 681,85 676,80 673,80 673,90 " style="fill:white; stroke-width:1; stroke:black; " description="&lt;b&gt;BN971_RS05780&lt;/b&gt;&lt;br&gt;carboxylating nicotinate-nucleotide diphosphorylase&lt;br&gt;Location: 1226691 - 1225837" locus_tag="BN971_RS05780" class="clusterblast-orf" id="dummy-1_h1_3_30"  />
</g>
<g id="a1_0031"  >
<polygon points="682,85 686,80 686,90 682,85 " style="fill:white; stroke-width:1; stroke:black; " description="&lt;b&gt;BN971_RS05775&lt;/b&gt;&lt;br&gt;nitroreductase family deazaflavin-dependent oxidoreductase&lt;br&gt;Location: 1225733 - 1225311" locus_tag="BN971_RS05775" class="clusterblast-orf" id="dummy-1_h1_3_31"  />
</g>
<g id="a1_0032"  >
<polygon points="687,90 694,90 699,85 694,80 687,80 687,90 " style="fill:white; stroke-width:1; stroke:black; " description="&lt;b&gt;BN971_RS05770&lt;/b&gt;&lt;br&gt;histidinol dehydrogenase&lt;br&gt;Location: 1225250 - 1223904" locus_tag="BN971_RS05770" class="clusterblast-orf" id="dummy-1_h1_3_32"  />
</g>
<g id="a1_0033"  >
<polygon points="699,90 705,90 710,85 705,80 699,80 699,90 " style="fill:white; stroke-width:1; stroke:black; " description="&lt;b&gt;BN971_RS05765&lt;/b&gt;&lt;br&gt;histidinol-phosphate transaminase&lt;br&gt;Location: 1223907 - 1222783" locus_tag="BN971_RS05765" class="clusterblast-orf" id="dummy-1_h1_3_33"  />
</g>
<g id="a1_0034"  >
<polygon points="710,90 711,90 716,85 711,80 710,80 710,90 " style="fill:#43d815; stroke-width:1; stroke:black; " description="&lt;b&gt;BN971_RS05760&lt;/b&gt;&lt;br&gt;imidazoleglycerol-phosphate dehydratase HisB&lt;br&gt;Location: 1222786 - 1222166&lt;br&gt;&lt;br&gt;&lt;b&gt;BlastP hit with FCOJGGDE_00814&lt;/b&gt;&lt;br&gt;Percentage identity: 47&lt;br&gt;Percentage coverage: 103&lt;br&gt;BLAST bit score: 177&lt;br&gt;E-value: 1.92e-54" locus_tag="BN971_RS05760" class="clusterblast-orf" id="dummy-1_h1_3_34"  />
</g>
<g id="a1_0035"  >
<polygon points="716,90 717,90 722,85 717,80 716,80 716,90 " style="fill:#15b6d8; stroke-width:1; stroke:black; " description="&lt;b&gt;BN971_RS05755&lt;/b&gt;&lt;br&gt;imidazole glycerol phosphate synthase subunit HisH&lt;br&gt;Location: 1222169 - 1221549&lt;br&gt;&lt;br&gt;&lt;b&gt;BlastP hit with FCOJGGDE_00815&lt;/b&gt;&lt;br&gt;Percentage identity: 35&lt;br&gt;Percentage coverage: 98&lt;br&gt;BLAST bit score: 100&lt;br&gt;E-value: 5.18e-24" locus_tag="BN971_RS05755" class="clusterblast-orf" id="dummy-1_h1_3_35"  />
</g>
<g id="a1_0036"  >
<polygon points="722,90 724,90 729,85 724,80 722,80 722,90 " style="fill:#15d82c; stroke-width:1; stroke:black; " description="&lt;b&gt;BN971_RS05750&lt;/b&gt;&lt;br&gt;bifunctional 1-(5-phosphoribosyl)-5-((5- phosphoribosylamino)methylideneamino)imidazole-4- carboxamide isomerase/phosphoribosylanthranilate isomerase PriA&lt;br&gt;Location: 1221546 - 1220803&lt;br&gt;&lt;br&gt;&lt;b&gt;BlastP hit with FCOJGGDE_00818&lt;/b&gt;&lt;br&gt;Percentage identity: 38&lt;br&gt;Percentage coverage: 103&lt;br&gt;BLAST bit score: 139&lt;br&gt;E-value: 1.5e-38" locus_tag="BN971_RS05750" class="clusterblast-orf" id="dummy-1_h1_3_36"  />
</g>
<g id="a1_0037"  >
<polygon points="729,90 731,90 736,85 731,80 729,80 729,90 " style="fill:white; stroke-width:1; stroke:black; " description="&lt;b&gt;BN971_RS05745&lt;/b&gt;&lt;br&gt;inositol monophosphatase&lt;br&gt;Location: 1220797 - 1219997" locus_tag="BN971_RS05745" class="clusterblast-orf" id="dummy-1_h1_3_37"  />
</g>
<g id="a1_0038"  >
<polygon points="736,90 739,90 744,85 739,80 736,80 736,90 " style="fill:#15d82c; stroke-width:1; stroke:black; " description="&lt;b&gt;BN971_RS05740&lt;/b&gt;&lt;br&gt;imidazole glycerol phosphate synthase subunit HisF&lt;br&gt;Location: 1219994 - 1219221&lt;br&gt;&lt;br&gt;&lt;b&gt;BlastP hit with FCOJGGDE_00819&lt;/b&gt;&lt;br&gt;Percentage identity: 63&lt;br&gt;Percentage coverage: 101&lt;br&gt;BLAST bit score: 301&lt;br&gt;E-value: 8.78e-102" locus_tag="BN971_RS05740" class="clusterblast-orf" id="dummy-1_h1_3_38"  />
</g>
<g id="a1_0039"  >
<polygon points="744,90 747,85 744,80 744,90 " style="fill:white; stroke-width:1; stroke:black; " description="&lt;b&gt;BN971_RS05735&lt;/b&gt;&lt;br&gt;phosphoribosyl-AMP cyclohydrolase&lt;br&gt;Location: 1219224 - 1218877" locus_tag="BN971_RS05735" class="clusterblast-orf" id="dummy-1_h1_3_39"  />
</g>
<g id="a1_0040"  >
<polygon points="748,85 752,80 752,90 748,85 " style="fill:white; stroke-width:1; stroke:black; " description="&lt;b&gt;BN971_RS24945&lt;/b&gt;&lt;br&gt;TPM domain-containing protein&lt;br&gt;Location: 1218786 - 1218400" locus_tag="BN971_RS24945" class="clusterblast-orf" id="dummy-1_h1_3_40"  />
</g>
<g id="a1_0041"  >
<polygon points="751,85 756,80 762,80 762,90 756,90 751,85 " style="fill:white; stroke-width:1; stroke:black; " description="&lt;b&gt;BN971_RS05730&lt;/b&gt;&lt;br&gt;protein kinase&lt;br&gt;Location: 1218403 - 1217258" locus_tag="BN971_RS05730" class="clusterblast-orf" id="dummy-1_h1_3_41"  />
</g>
<g id="a1_0042"  >
<polygon points="764,90 769,90 774,85 769,80 764,80 764,90 " style="fill:white; stroke-width:1; stroke:black; " description="&lt;b&gt;BN971_RS05725&lt;/b&gt;&lt;br&gt;ionic transporter y4hA&lt;br&gt;Location: 1217133 - 1216033" locus_tag="BN971_RS05725" class="clusterblast-orf" id="dummy-1_h1_3_42"  />
</g>
<g id="a1_0043"  >
<polygon points="775,85 779,80 779,90 775,85 " style="fill:white; stroke-width:1; stroke:black; " description="&lt;b&gt;BN971_RS05720&lt;/b&gt;&lt;br&gt;peroxiredoxin&lt;br&gt;Location: 1215913 - 1215449" locus_tag="BN971_RS05720" class="clusterblast-orf" id="dummy-1_h1_3_43"  />
</g>
</svg>
