<svg xmlns="http://www.w3.org/2000/svg" xmlns:xlink="http://www.w3.org/1999/xlink" version="1.1" x="0" y="0" height="230" width="800" viewBox="0 0 800 230" preserveAspectRatio="none"  >
<g label="Query sequence" class="clusterblast-cluster"  >
<text x="5" y="20" class="clusterblast-acc"  >
Query sequence</text>
<line x1="10" y1="35" x2="778.0" y2="35" style="stroke-width:1; stroke:grey; "  />
<polygon points="151,40 160,40 165,35 160,30 151,30 151,40 " style="fill:white; stroke-width:1; stroke:black; " description="&lt;b&gt;FCOJGGDE_00804&lt;/b&gt;&lt;br&gt;2-aminoadipate transaminase&lt;br&gt;Location: 195091 - 196297" locus_tag="FCOJGGDE_00804" class="clusterblast-orf" id="dummy-1_q0_0_all"  />
<polygon points="165,40 166,35 165,30 165,40 " style="fill:white; stroke-width:1; stroke:black; " description="&lt;b&gt;FCOJGGDE_00805&lt;/b&gt;&lt;br&gt;hypothetical protein&lt;br&gt;Location: 196307 - 196448" locus_tag="FCOJGGDE_00805" class="clusterblast-orf" id="dummy-1_q1_0_all"  />
<polygon points="167,40 171,40 176,35 171,30 167,30 167,40 " style="fill:white; stroke-width:1; stroke:black; " description="&lt;b&gt;FCOJGGDE_00806&lt;/b&gt;&lt;br&gt;hypothetical protein&lt;br&gt;Location: 196465 - 197368" locus_tag="FCOJGGDE_00806" class="clusterblast-orf" id="dummy-1_q2_0_all"  />
<polygon points="179,40 179,40 184,35 179,30 179,30 179,40 " style="fill:white; stroke-width:1; stroke:black; " description="&lt;b&gt;FCOJGGDE_00807&lt;/b&gt;&lt;br&gt;hypothetical protein&lt;br&gt;Location: 197637 - 198087" locus_tag="FCOJGGDE_00807" class="clusterblast-orf" id="dummy-1_q3_0_all"  />
<polygon points="186,35 191,30 201,30 201,40 191,40 186,35 " style="fill:white; stroke-width:1; stroke:black; " description="&lt;b&gt;FCOJGGDE_00808&lt;/b&gt;&lt;br&gt;O-acetyl-L-homoserine sulfhydrylase&lt;br&gt;Location: 198271 - 199558" locus_tag="FCOJGGDE_00808" class="clusterblast-orf" id="dummy-1_q4_0_all"  />
<polygon points="203,40 204,40 209,35 204,30 203,30 203,40 " style="fill:white; stroke-width:1; stroke:black; " description="&lt;b&gt;FCOJGGDE_00809&lt;/b&gt;&lt;br&gt;hypothetical protein&lt;br&gt;Location: 199807 - 200320" locus_tag="FCOJGGDE_00809" class="clusterblast-orf" id="dummy-1_q5_0_all"  />
<polygon points="210,40 215,40 220,35 215,30 210,30 210,40 " style="fill:white; stroke-width:1; stroke:black; " description="&lt;b&gt;FCOJGGDE_00810&lt;/b&gt;&lt;br&gt;Manganese-binding lipoprotein MntA&lt;br&gt;Location: 200414 - 201371" locus_tag="FCOJGGDE_00810" class="clusterblast-orf" id="dummy-1_q6_0_all"  />
<polygon points="220,40 223,40 228,35 223,30 220,30 220,40 " style="fill:#d81515; stroke-width:1; stroke:black; " description="&lt;b&gt;FCOJGGDE_00811&lt;/b&gt;&lt;br&gt;Manganese transport system ATP-binding protein MntB&lt;br&gt;Location: 201371 - 202103" locus_tag="FCOJGGDE_00811" class="clusterblast-orf" id="dummy-1_q7_0_all"  />
<polygon points="229,40 233,40 238,35 233,30 229,30 229,40 " style="fill:white; stroke-width:1; stroke:black; " description="&lt;b&gt;FCOJGGDE_00812&lt;/b&gt;&lt;br&gt;Manganese transport system membrane protein MntC&lt;br&gt;Location: 202118 - 203003" locus_tag="FCOJGGDE_00812" class="clusterblast-orf" id="dummy-1_q8_0_all"  />
<polygon points="238,40 243,40 248,35 243,30 238,30 238,40 " style="fill:white; stroke-width:1; stroke:black; " description="&lt;b&gt;FCOJGGDE_00813&lt;/b&gt;&lt;br&gt;Manganese transport system membrane protein MntD&lt;br&gt;Location: 203002 - 203911" locus_tag="FCOJGGDE_00813" class="clusterblast-orf" id="dummy-1_q9_0_all"  />
<polygon points="249,40 250,40 255,35 250,30 249,30 249,40 " style="fill:#43d815; stroke-width:1; stroke:black; " description="&lt;b&gt;FCOJGGDE_00814&lt;/b&gt;&lt;br&gt;Histidine biosynthesis bifunctional protein HisB&lt;br&gt;Location: 203978 - 204566" locus_tag="FCOJGGDE_00814" class="clusterblast-orf" id="dummy-1_q10_0_all"  />
<polygon points="255,40 258,40 263,35 258,30 255,30 255,40 " style="fill:#15b6d8; stroke-width:1; stroke:black; " description="&lt;b&gt;FCOJGGDE_00815&lt;/b&gt;&lt;br&gt;Imidazole glycerol phosphate synthase subunit HisH&lt;br&gt;Location: 204566 - 205214" locus_tag="FCOJGGDE_00815" class="clusterblast-orf" id="dummy-1_q11_0_all"  />
<polygon points="266,35 271,30 276,30 276,40 271,40 266,35 " style="fill:#8815d8; stroke-width:1; stroke:black; " description="&lt;b&gt;FCOJGGDE_00816&lt;/b&gt;&lt;br&gt;hypothetical protein&lt;br&gt;Location: 205539 - 206478" locus_tag="FCOJGGDE_00816" class="clusterblast-orf" id="dummy-1_q12_0_all"  />
<polygon points="277,35 281,30 281,40 277,35 " style="fill:#d85a15; stroke-width:1; stroke:black; " description="&lt;b&gt;FCOJGGDE_00817&lt;/b&gt;&lt;br&gt;hypothetical protein&lt;br&gt;Location: 206548 - 206932" locus_tag="FCOJGGDE_00817" class="clusterblast-orf" id="dummy-1_q13_0_all"  />
<polygon points="283,40 286,40 291,35 286,30 283,30 283,40 " style="fill:#15d82c; stroke-width:1; stroke:black; " description="&lt;b&gt;FCOJGGDE_00818&lt;/b&gt;&lt;br&gt;1-(5-phosphoribosyl)-5-[(5- phosphoribosylamino)methylideneamino] imidazole-4-carboxamide isomerase&lt;br&gt;Location: 207105 - 207825" locus_tag="FCOJGGDE_00818" class="clusterblast-orf" id="dummy-1_q14_0_all"  />
<polygon points="293,40 296,40 301,35 296,30 293,30 293,40 " style="fill:#15d82c; stroke-width:1; stroke:black; " description="&lt;b&gt;FCOJGGDE_00819&lt;/b&gt;&lt;br&gt;Imidazole glycerol phosphate synthase subunit HisF&lt;br&gt;Location: 207938 - 208700" locus_tag="FCOJGGDE_00819" class="clusterblast-orf" id="dummy-1_q15_0_all"  />
<polygon points="301,40 304,35 301,30 301,40 " style="fill:#1571d8; stroke-width:1; stroke:black; " description="&lt;b&gt;FCOJGGDE_00820&lt;/b&gt;&lt;br&gt;Phosphoribosyl-ATP pyrophosphatase&lt;br&gt;Location: 208696 - 209008" locus_tag="FCOJGGDE_00820" class="clusterblast-orf" id="dummy-1_q16_0_all"  />
<polygon points="304,35 309,30 309,30 309,40 309,40 304,35 " style="fill:#cd15d8; stroke-width:1; stroke:black; " description="&lt;b&gt;FCOJGGDE_00821&lt;/b&gt;&lt;br&gt;putative protein YccU&lt;br&gt;Location: 209011 - 209437" locus_tag="FCOJGGDE_00821" class="clusterblast-orf" id="dummy-1_q17_0_all"  />
<polygon points="311,35 316,30 319,30 319,40 316,40 311,35 " style="fill:#d89f15; stroke-width:1; stroke:black; " description="&lt;b&gt;FCOJGGDE_00822&lt;/b&gt;&lt;br&gt;23S rRNA (guanosine-2'-O-)-methyltransferase RlmB&lt;br&gt;Location: 209599 - 210385" locus_tag="FCOJGGDE_00822" class="clusterblast-orf" id="dummy-1_q18_0_all"  />
<polygon points="326,35 329,30 329,40 326,35 " style="fill:white; stroke-width:1; stroke:black; " description="&lt;b&gt;FCOJGGDE_00824&lt;/b&gt;&lt;br&gt;hypothetical protein&lt;br&gt;Location: 210985 - 211306" locus_tag="FCOJGGDE_00824" class="clusterblast-orf" id="dummy-1_q19_0_all"  />
<polygon points="330,40 331,40 336,35 331,30 330,30 330,40 " style="fill:white; stroke-width:1; stroke:black; " description="&lt;b&gt;FCOJGGDE_00825&lt;/b&gt;&lt;br&gt;hypothetical protein&lt;br&gt;Location: 211332 - 211893" locus_tag="FCOJGGDE_00825" class="clusterblast-orf" id="dummy-1_q20_0_all"  />
<polygon points="336,40 343,40 348,35 343,30 336,30 336,40 " style="fill:white; stroke-width:1; stroke:black; " description="&lt;b&gt;FCOJGGDE_00826&lt;/b&gt;&lt;br&gt;S-(hydroxymethyl)glutathione dehydrogenase&lt;br&gt;Location: 211910 - 213026" locus_tag="FCOJGGDE_00826" class="clusterblast-orf" id="dummy-1_q21_0_all"  />
<polygon points="351,40 361,40 366,35 361,30 351,30 351,40 " style="fill:#15d871; stroke-width:1; stroke:black; " description="&lt;b&gt;FCOJGGDE_00827&lt;/b&gt;&lt;br&gt;hypothetical protein&lt;br&gt;Location: 213247 - 214645" locus_tag="FCOJGGDE_00827" class="clusterblast-orf" id="dummy-1_q22_0_all"  />
<polygon points="366,40 404,40 409,35 404,30 366,30 366,40 " style="fill:#152cd8; stroke-width:1; stroke:black; " description="&lt;b&gt;FCOJGGDE_00828&lt;/b&gt;&lt;br&gt;Linear gramicidin synthase subunit D&lt;br&gt;Location: 214641 - 218568" locus_tag="FCOJGGDE_00828" class="clusterblast-orf" id="dummy-1_q23_0_all"  />
<polygon points="410,40 412,40 417,35 412,30 410,30 410,40 " style="fill:white; stroke-width:1; stroke:black; " description="&lt;b&gt;FCOJGGDE_00829&lt;/b&gt;&lt;br&gt;HTH-type transcriptional regulator McbR&lt;br&gt;Location: 218628 - 219291" locus_tag="FCOJGGDE_00829" class="clusterblast-orf" id="dummy-1_q24_0_all"  />
<polygon points="418,40 428,40 433,35 428,30 418,30 418,40 " style="fill:#d8159f; stroke-width:1; stroke:black; " description="&lt;b&gt;FCOJGGDE_00830&lt;/b&gt;&lt;br&gt;Putrescine--pyruvate aminotransferase&lt;br&gt;Location: 219366 - 220761" locus_tag="FCOJGGDE_00830" class="clusterblast-orf" id="dummy-1_q25_0_all"  />
<polygon points="435,35 440,30 447,30 447,40 440,40 435,35 " style="fill:white; stroke-width:1; stroke:black; " description="&lt;b&gt;FCOJGGDE_00831&lt;/b&gt;&lt;br&gt;D-galactarolactone cycloisomerase&lt;br&gt;Location: 220936 - 222052" locus_tag="FCOJGGDE_00831" class="clusterblast-orf" id="dummy-1_q26_0_all"  />
<polygon points="450,40 452,40 457,35 452,30 450,30 450,40 " style="fill:#cdd815; stroke-width:1; stroke:black; " description="&lt;b&gt;FCOJGGDE_00832&lt;/b&gt;&lt;br&gt;Ribulose-phosphate 3-epimerase&lt;br&gt;Location: 222247 - 222937" locus_tag="FCOJGGDE_00832" class="clusterblast-orf" id="dummy-1_q27_0_all"  />
<polygon points="457,40 459,40 464,35 459,30 457,30 457,40 " style="fill:#15d8b6; stroke-width:1; stroke:black; " description="&lt;b&gt;FCOJGGDE_00833&lt;/b&gt;&lt;br&gt;Phosphoglycolate phosphatase&lt;br&gt;Location: 222933 - 223590" locus_tag="FCOJGGDE_00833" class="clusterblast-orf" id="dummy-1_q28_0_all"  />
<polygon points="464,40 468,40 473,35 468,30 464,30 464,40 " style="fill:white; stroke-width:1; stroke:black; " description="&lt;b&gt;FCOJGGDE_00834&lt;/b&gt;&lt;br&gt;N(G),N(G)-dimethylarginine dimethylaminohydrolase&lt;br&gt;Location: 223593 - 224388" locus_tag="FCOJGGDE_00834" class="clusterblast-orf" id="dummy-1_q29_0_all"  />
<polygon points="474,35 479,30 479,30 479,40 479,40 474,35 " style="fill:white; stroke-width:1; stroke:black; " description="&lt;b&gt;FCOJGGDE_00835&lt;/b&gt;&lt;br&gt;hypothetical protein&lt;br&gt;Location: 224490 - 224928" locus_tag="FCOJGGDE_00835" class="clusterblast-orf" id="dummy-1_q30_0_all"  />
<polygon points="480,40 486,40 491,35 486,30 480,30 480,40 " style="fill:white; stroke-width:1; stroke:black; " description="&lt;b&gt;FCOJGGDE_00836&lt;/b&gt;&lt;br&gt;hypothetical protein&lt;br&gt;Location: 225016 - 226018" locus_tag="FCOJGGDE_00836" class="clusterblast-orf" id="dummy-1_q31_0_all"  />
<polygon points="494,40 507,40 512,35 507,30 494,30 494,40 " style="fill:white; stroke-width:1; stroke:black; " description="&lt;b&gt;FCOJGGDE_00837&lt;/b&gt;&lt;br&gt;hypothetical protein&lt;br&gt;Location: 226284 - 227946" locus_tag="FCOJGGDE_00837" class="clusterblast-orf" id="dummy-1_q32_0_all"  />
<polygon points="517,35 522,30 530,30 530,40 522,40 517,35 " style="fill:white; stroke-width:1; stroke:black; " description="&lt;b&gt;FCOJGGDE_00838&lt;/b&gt;&lt;br&gt;Diaminopropionate ammonia-lyase&lt;br&gt;Location: 228347 - 229538" locus_tag="FCOJGGDE_00838" class="clusterblast-orf" id="dummy-1_q33_0_all"  />
<polygon points="531,40 534,40 539,35 534,30 531,30 531,40 " style="fill:#4315d8; stroke-width:1; stroke:black; " description="&lt;b&gt;FCOJGGDE_00839&lt;/b&gt;&lt;br&gt;5-oxoprolinase subunit B&lt;br&gt;Location: 229650 - 230397" locus_tag="FCOJGGDE_00839" class="clusterblast-orf" id="dummy-1_q34_0_all"  />
<polygon points="539,40 545,40 550,35 545,30 539,30 539,40 " style="fill:white; stroke-width:1; stroke:black; " description="&lt;b&gt;FCOJGGDE_00840&lt;/b&gt;&lt;br&gt;5-oxoprolinase subunit C&lt;br&gt;Location: 230393 - 231404" locus_tag="FCOJGGDE_00840" class="clusterblast-orf" id="dummy-1_q35_0_all"  />
<polygon points="550,40 554,40 559,35 554,30 550,30 550,40 " style="fill:#d8155a; stroke-width:1; stroke:black; " description="&lt;b&gt;FCOJGGDE_00841&lt;/b&gt;&lt;br&gt;5-oxoprolinase subunit A&lt;br&gt;Location: 231400 - 232171" locus_tag="FCOJGGDE_00841" class="clusterblast-orf" id="dummy-1_q36_0_all"  />
<polygon points="565,35 570,30 573,30 573,40 570,40 565,35 " style="fill:white; stroke-width:1; stroke:black; " description="&lt;b&gt;FCOJGGDE_00842&lt;/b&gt;&lt;br&gt;HTH-type transcriptional repressor GlaR&lt;br&gt;Location: 232788 - 233496" locus_tag="FCOJGGDE_00842" class="clusterblast-orf" id="dummy-1_q37_0_all"  />
<polygon points="574,35 579,30 582,30 582,40 579,40 574,35 " style="fill:white; stroke-width:1; stroke:black; " description="&lt;b&gt;FCOJGGDE_00843&lt;/b&gt;&lt;br&gt;Beta-barrel assembly-enhancing protease&lt;br&gt;Location: 233611 - 234295" locus_tag="FCOJGGDE_00843" class="clusterblast-orf" id="dummy-1_q38_0_all"  />
<polygon points="582,35 587,30 589,30 589,40 587,40 582,35 " style="fill:white; stroke-width:1; stroke:black; " description="&lt;b&gt;FCOJGGDE_00844&lt;/b&gt;&lt;br&gt;hypothetical protein&lt;br&gt;Location: 234349 - 234946" locus_tag="FCOJGGDE_00844" class="clusterblast-orf" id="dummy-1_q39_0_all"  />
<polygon points="589,35 592,30 592,40 589,35 " style="fill:white; stroke-width:1; stroke:black; " description="&lt;b&gt;FCOJGGDE_00845&lt;/b&gt;&lt;br&gt;hypothetical protein&lt;br&gt;Location: 234942 - 235260" locus_tag="FCOJGGDE_00845" class="clusterblast-orf" id="dummy-1_q40_0_all"  />
<polygon points="592,35 597,30 605,30 605,40 597,40 592,35 " style="fill:#88d815; stroke-width:1; stroke:black; " description="&lt;b&gt;FCOJGGDE_00846&lt;/b&gt;&lt;br&gt;hypothetical protein&lt;br&gt;Location: 235256 - 236441" locus_tag="FCOJGGDE_00846" class="clusterblast-orf" id="dummy-1_q41_0_all"  />
<polygon points="605,35 607,30 607,40 605,35 " style="fill:white; stroke-width:1; stroke:black; " description="&lt;b&gt;FCOJGGDE_00847&lt;/b&gt;&lt;br&gt;hypothetical protein&lt;br&gt;Location: 236446 - 236611" locus_tag="FCOJGGDE_00847" class="clusterblast-orf" id="dummy-1_q42_0_all"  />
<polygon points="608,35 613,30 623,30 623,40 613,40 608,35 " style="fill:white; stroke-width:1; stroke:black; " description="&lt;b&gt;FCOJGGDE_00848&lt;/b&gt;&lt;br&gt;hypothetical protein&lt;br&gt;Location: 236649 - 238026" locus_tag="FCOJGGDE_00848" class="clusterblast-orf" id="dummy-1_q43_0_all"  />
<polygon points="623,35 628,30 628,30 628,40 628,40 623,35 " style="fill:white; stroke-width:1; stroke:black; " description="&lt;b&gt;FCOJGGDE_00849&lt;/b&gt;&lt;br&gt;hypothetical protein&lt;br&gt;Location: 238027 - 238474" locus_tag="FCOJGGDE_00849" class="clusterblast-orf" id="dummy-1_q44_0_all"  />
</g>
<g label="NZ_CP024086" description="NZ_CP024086 (4566980-4638938): Pseudomonas putida strain E46 chromosome, comp... (14% of genes show similarity), NRPS" class="clusterblast-cluster"  >
<text x="5" y="70" class="clusterblast-acc"  >
<a xlink:href="https://antismash-db.secondarymetabolites.org/area.html?record=NZ_CP024086&amp;start=4566980&amp;end=4638938" target="_blank">NZ_CP024086 (4566980-4638938)</a>: Pseudomonas putida strain E46 chromosome, comp... (14% of genes show similarity), NRPS</text>
<line x1="10" y1="85" x2="778.0" y2="85" style="stroke-width:1; stroke:grey; "  />
</g>
<g id="a1_000"  >
<polygon points="0,85 5,80 22,80 22,90 5,90 0,85 " style="fill:white; stroke-width:1; stroke:black; " description="&lt;b&gt;CR512_RS20400&lt;/b&gt;&lt;br&gt;S9 family peptidase&lt;br&gt;Location: 4638343 - 4636301" locus_tag="CR512_RS20400" class="clusterblast-orf" id="dummy-1_h1_5_0"  />
</g>
<g id="a1_001"  >
<polygon points="23,90 24,90 29,85 24,80 23,80 23,90 " style="fill:white; stroke-width:1; stroke:black; " description="&lt;b&gt;CR512_RS20395&lt;/b&gt;&lt;br&gt;hypothetical protein&lt;br&gt;Location: 4636168 - 4635671" locus_tag="CR512_RS20395" class="clusterblast-orf" id="dummy-1_h1_5_1"  />
</g>
<g id="a1_002"  >
<polygon points="29,90 32,90 37,85 32,80 29,80 29,90 " style="fill:white; stroke-width:1; stroke:black; " description="&lt;b&gt;CR512_RS20390&lt;/b&gt;&lt;br&gt;class II glutamine amidotransferase&lt;br&gt;Location: 4635656 - 4634883" locus_tag="CR512_RS20390" class="clusterblast-orf" id="dummy-1_h1_5_2"  />
</g>
<g id="a1_003"  >
<polygon points="38,90 38,90 43,85 38,80 38,80 38,90 " style="fill:white; stroke-width:1; stroke:black; " description="&lt;b&gt;CR512_RS20385&lt;/b&gt;&lt;br&gt;DUF2937 family protein&lt;br&gt;Location: 4634873 - 4634352" locus_tag="CR512_RS20385" class="clusterblast-orf" id="dummy-1_h1_5_3"  />
</g>
<g id="a1_004"  >
<polygon points="45,85 50,80 55,80 55,90 50,90 45,85 " style="fill:white; stroke-width:1; stroke:black; " description="&lt;b&gt;CR512_RS20380&lt;/b&gt;&lt;br&gt;LysR family transcriptional regulator&lt;br&gt;Location: 4634216 - 4633305" locus_tag="CR512_RS20380" class="clusterblast-orf" id="dummy-1_h1_5_4"  />
</g>
<g id="a1_005"  >
<polygon points="56,90 65,90 70,85 65,80 56,80 56,90 " style="fill:white; stroke-width:1; stroke:black; " description="&lt;b&gt;CR512_RS20375&lt;/b&gt;&lt;br&gt;MFS transporter&lt;br&gt;Location: 4633173 - 4631887" locus_tag="CR512_RS20375" class="clusterblast-orf" id="dummy-1_h1_5_5"  />
</g>
<g id="a1_006"  >
<polygon points="70,90 74,90 79,85 74,80 70,80 70,90 " style="fill:#d8155a; stroke-width:1; stroke:black; " description="&lt;b&gt;CR512_RS20370&lt;/b&gt;&lt;br&gt;LamB/YcsF family protein&lt;br&gt;Location: 4631877 - 4631098&lt;br&gt;&lt;br&gt;&lt;b&gt;BlastP hit with FCOJGGDE_00841&lt;/b&gt;&lt;br&gt;Percentage identity: 43&lt;br&gt;Percentage coverage: 95&lt;br&gt;BLAST bit score: 184&lt;br&gt;E-value: 1.51e-55" locus_tag="CR512_RS20370" class="clusterblast-orf" id="dummy-1_h1_5_6"  />
</g>
<g id="a1_007"  >
<polygon points="79,90 82,90 87,85 82,80 79,80 79,90 " style="fill:#4315d8; stroke-width:1; stroke:black; " description="&lt;b&gt;CR512_RS20365&lt;/b&gt;&lt;br&gt;5-oxoprolinase subunit PxpB&lt;br&gt;Location: 4631101 - 4630406&lt;br&gt;&lt;br&gt;&lt;b&gt;BlastP hit with FCOJGGDE_00839&lt;/b&gt;&lt;br&gt;Percentage identity: 32&lt;br&gt;Percentage coverage: 92&lt;br&gt;BLAST bit score: 91&lt;br&gt;E-value: 6.49e-20" locus_tag="CR512_RS20365" class="clusterblast-orf" id="dummy-1_h1_5_7"  />
</g>
<g id="a1_008"  >
<polygon points="87,90 92,90 97,85 92,80 87,80 87,90 " style="fill:white; stroke-width:1; stroke:black; " description="&lt;b&gt;CR512_RS20360&lt;/b&gt;&lt;br&gt;biotin-dependent carboxyltransferase&lt;br&gt;Location: 4630409 - 4629492" locus_tag="CR512_RS20360" class="clusterblast-orf" id="dummy-1_h1_5_8"  />
</g>
<g id="a1_009"  >
<polygon points="98,90 104,90 109,85 104,80 98,80 98,90 " style="fill:white; stroke-width:1; stroke:black; " description="&lt;b&gt;CR512_RS20355&lt;/b&gt;&lt;br&gt;RHS repeat-associated core domain-containing protein&lt;br&gt;Location: 4629376 - 4628369" locus_tag="CR512_RS20355" class="clusterblast-orf" id="dummy-1_h1_5_9"  />
</g>
<g id="a1_0010"  >
<polygon points="109,85 114,80 122,80 122,90 114,90 109,85 " style="fill:#88d815; stroke-width:1; stroke:black; " description="&lt;b&gt;CR512_RS20350&lt;/b&gt;&lt;br&gt;VWA domain-containing protein&lt;br&gt;Location: 4628332 - 4627154&lt;br&gt;&lt;br&gt;&lt;b&gt;BlastP hit with FCOJGGDE_00846&lt;/b&gt;&lt;br&gt;Percentage identity: 57&lt;br&gt;Percentage coverage: 100&lt;br&gt;BLAST bit score: 468&lt;br&gt;E-value: 2.32e-163" locus_tag="CR512_RS20350" class="clusterblast-orf" id="dummy-1_h1_5_10"  />
</g>
<g id="a1_0011"  >
<polygon points="122,85 127,80 132,80 132,90 127,90 122,85 " style="fill:white; stroke-width:1; stroke:black; " description="&lt;b&gt;CR512_RS20345&lt;/b&gt;&lt;br&gt;MoxR family ATPase&lt;br&gt;Location: 4627143 - 4626298" locus_tag="CR512_RS20345" class="clusterblast-orf" id="dummy-1_h1_5_11"  />
</g>
<g id="a1_0012"  >
<polygon points="134,85 139,80 146,80 146,90 139,90 134,85 " style="fill:white; stroke-width:1; stroke:black; " description="&lt;b&gt;CR512_RS20340&lt;/b&gt;&lt;br&gt;DUF748 domain-containing protein&lt;br&gt;Location: 4626068 - 4624995" locus_tag="CR512_RS20340" class="clusterblast-orf" id="dummy-1_h1_5_12"  />
</g>
<g id="a1_0013"  >
<polygon points="148,90 153,90 158,85 153,80 148,80 148,90 " style="fill:white; stroke-width:1; stroke:black; " description="&lt;b&gt;CR512_RS20335&lt;/b&gt;&lt;br&gt;cysteine synthase A&lt;br&gt;Location: 4624861 - 4623887" locus_tag="CR512_RS20335" class="clusterblast-orf" id="dummy-1_h1_5_13"  />
</g>
<g id="a1_0014"  >
<polygon points="160,90 165,90 170,85 165,80 160,80 160,90 " style="fill:white; stroke-width:1; stroke:black; " description="&lt;b&gt;CR512_RS20330&lt;/b&gt;&lt;br&gt;aspartyl/asparaginyl beta-hydroxylase domain-containing protein&lt;br&gt;Location: 4623714 - 4622779" locus_tag="CR512_RS20330" class="clusterblast-orf" id="dummy-1_h1_5_14"  />
</g>
<g id="a1_0015"  >
<polygon points="172,85 177,80 190,80 190,90 177,90 172,85 " style="fill:white; stroke-width:1; stroke:black; " description="&lt;b&gt;CR512_RS20325&lt;/b&gt;&lt;br&gt;cyclic peptide export ABC transporter&lt;br&gt;Location: 4622617 - 4620965" locus_tag="CR512_RS20325" class="clusterblast-orf" id="dummy-1_h1_5_15"  />
</g>
<g id="a1_0016"  >
<polygon points="191,85 196,80 196,80 196,90 196,90 191,85 " style="fill:white; stroke-width:1; stroke:black; " description="&lt;b&gt;CR512_RS20320&lt;/b&gt;&lt;br&gt;azurin&lt;br&gt;Location: 4620918 - 4620466" locus_tag="CR512_RS20320" class="clusterblast-orf" id="dummy-1_h1_5_16"  />
</g>
<g id="a1_0017"  >
<polygon points="198,90 204,90 209,85 204,80 198,80 198,90 " style="fill:white; stroke-width:1; stroke:black; " description="&lt;b&gt;CR512_RS20315&lt;/b&gt;&lt;br&gt;TauD/TfdA family dioxygenase&lt;br&gt;Location: 4620286 - 4619303" locus_tag="CR512_RS20315" class="clusterblast-orf" id="dummy-1_h1_5_17"  />
</g>
<g id="a1_0018"  >
<polygon points="213,90 279,90 284,85 279,80 213,80 213,90 " style="fill:white; stroke-width:1; stroke:black; " description="&lt;b&gt;CR512_RS20310&lt;/b&gt;&lt;br&gt;non-ribosomal peptide synthetase&lt;br&gt;Location: 4618938 - 4612459" locus_tag="CR512_RS20310" class="clusterblast-orf" id="dummy-1_h1_5_18"  />
</g>
<g id="a1_0019"  >
<polygon points="284,90 415,90 420,85 415,80 284,80 284,90 " style="fill:#152cd8; stroke-width:1; stroke:black; " description="&lt;b&gt;CR512_RS20305&lt;/b&gt;&lt;br&gt;non-ribosomal peptide synthetase&lt;br&gt;Location: 4612457 - 4600086&lt;br&gt;&lt;br&gt;&lt;b&gt;BlastP hit with FCOJGGDE_00828&lt;/b&gt;&lt;br&gt;Percentage identity: 32&lt;br&gt;Percentage coverage: 81&lt;br&gt;BLAST bit score: 379&lt;br&gt;E-value: 1.95e-106" locus_tag="CR512_RS20305" class="clusterblast-orf" id="dummy-1_h1_5_19"  />
</g>
<g id="a1_0020"  >
<polygon points="420,90 558,90 563,85 558,80 420,80 420,90 " style="fill:#152cd8; stroke-width:1; stroke:black; " description="&lt;b&gt;CR512_RS20300&lt;/b&gt;&lt;br&gt;non-ribosomal peptide synthetase&lt;br&gt;Location: 4600078 - 4586981&lt;br&gt;&lt;br&gt;&lt;b&gt;BlastP hit with FCOJGGDE_00828&lt;/b&gt;&lt;br&gt;Percentage identity: 31&lt;br&gt;Percentage coverage: 82&lt;br&gt;BLAST bit score: 382&lt;br&gt;E-value: 2.58e-107" locus_tag="CR512_RS20300" class="clusterblast-orf" id="dummy-1_h1_5_20"  />
</g>
<g id="a1_0021"  >
<polygon points="573,85 578,80 600,80 600,90 578,90 573,85 " style="fill:white; stroke-width:1; stroke:black; " description="&lt;b&gt;CR512_RS20295&lt;/b&gt;&lt;br&gt;TonB-dependent siderophore receptor&lt;br&gt;Location: 4586138 - 4583673" locus_tag="CR512_RS20295" class="clusterblast-orf" id="dummy-1_h1_5_21"  />
</g>
<g id="a1_0022"  >
<polygon points="601,85 606,80 611,80 611,90 606,90 601,85 " style="fill:white; stroke-width:1; stroke:black; " description="&lt;b&gt;CR512_RS20290&lt;/b&gt;&lt;br&gt;formylglycine-generating enzyme family protein&lt;br&gt;Location: 4583547 - 4582687" locus_tag="CR512_RS20290" class="clusterblast-orf" id="dummy-1_h1_5_22"  />
</g>
<g id="a1_0023"  >
<polygon points="615,90 620,90 625,85 620,80 615,80 615,90 " style="fill:white; stroke-width:1; stroke:black; " description="&lt;b&gt;CR512_RS20285&lt;/b&gt;&lt;br&gt;DMT family transporter&lt;br&gt;Location: 4582243 - 4581362" locus_tag="CR512_RS20285" class="clusterblast-orf" id="dummy-1_h1_5_23"  />
</g>
<g id="a1_0024"  >
<polygon points="625,85 630,80 630,80 630,90 630,90 625,85 " style="fill:white; stroke-width:1; stroke:black; " description="&lt;b&gt;CR512_RS20280&lt;/b&gt;&lt;br&gt;DUF4265 domain-containing protein&lt;br&gt;Location: 4581351 - 4580893" locus_tag="CR512_RS20280" class="clusterblast-orf" id="dummy-1_h1_5_24"  />
</g>
<g id="a1_0025"  >
<polygon points="630,85 635,80 640,80 640,90 635,90 630,85 " style="fill:#8815d8; stroke-width:1; stroke:black; " description="&lt;b&gt;CR512_RS20275&lt;/b&gt;&lt;br&gt;DMT family transporter&lt;br&gt;Location: 4580879 - 4580004&lt;br&gt;&lt;br&gt;&lt;b&gt;BlastP hit with FCOJGGDE_00816&lt;/b&gt;&lt;br&gt;Percentage identity: 33&lt;br&gt;Percentage coverage: 91&lt;br&gt;BLAST bit score: 115&lt;br&gt;E-value: 3.83e-28" locus_tag="CR512_RS20275" class="clusterblast-orf" id="dummy-1_h1_5_25"  />
</g>
<g id="a1_0026"  >
<polygon points="641,90 655,90 660,85 655,80 641,80 641,90 " style="fill:white; stroke-width:1; stroke:black; " description="&lt;b&gt;CR512_RS20270&lt;/b&gt;&lt;br&gt;bifunctional isocitrate dehydrogenase kinase/phosphatase&lt;br&gt;Location: 4579866 - 4578151" locus_tag="CR512_RS20270" class="clusterblast-orf" id="dummy-1_h1_5_26"  />
</g>
<g id="a1_0027"  >
<polygon points="661,85 666,80 670,80 670,90 666,90 661,85 " style="fill:white; stroke-width:1; stroke:black; " description="&lt;b&gt;CR512_RS20265&lt;/b&gt;&lt;br&gt;hypothetical protein&lt;br&gt;Location: 4578096 - 4577236" locus_tag="CR512_RS20265" class="clusterblast-orf" id="dummy-1_h1_5_27"  />
</g>
<g id="a1_0028"  >
<polygon points="672,90 676,90 681,85 676,80 672,80 672,90 " style="fill:white; stroke-width:1; stroke:black; " description="&lt;b&gt;CR512_RS20260&lt;/b&gt;&lt;br&gt;GntR family transcriptional regulator&lt;br&gt;Location: 4577104 - 4576268" locus_tag="CR512_RS20260" class="clusterblast-orf" id="dummy-1_h1_5_28"  />
</g>
<g id="a1_0029"  >
<polygon points="681,85 685,80 685,90 681,85 " style="fill:white; stroke-width:1; stroke:black; " description="&lt;b&gt;CR512_RS20255&lt;/b&gt;&lt;br&gt;hypothetical protein&lt;br&gt;Location: 4576267 - 4575887" locus_tag="CR512_RS20255" class="clusterblast-orf" id="dummy-1_h1_5_29"  />
</g>
<g id="a1_0030"  >
<polygon points="687,85 692,80 703,80 703,90 692,90 687,85 " style="fill:white; stroke-width:1; stroke:black; " description="&lt;b&gt;CR512_RS20250&lt;/b&gt;&lt;br&gt;right-handed parallel beta-helix repeat-containing protein&lt;br&gt;Location: 4575691 - 4574219" locus_tag="CR512_RS20250" class="clusterblast-orf" id="dummy-1_h1_5_30"  />
</g>
<g id="a1_0031"  >
<polygon points="706,90 708,85 706,80 706,90 " style="fill:white; stroke-width:1; stroke:black; " description="&lt;b&gt;CR512_RS20245&lt;/b&gt;&lt;br&gt;CsbD family protein&lt;br&gt;Location: 4573989 - 4573810" locus_tag="CR512_RS20245" class="clusterblast-orf" id="dummy-1_h1_5_31"  />
</g>
<g id="a1_0032"  >
<polygon points="711,90 716,90 721,85 716,80 711,80 711,90 " style="fill:white; stroke-width:1; stroke:black; " description="&lt;b&gt;CR512_RS20240&lt;/b&gt;&lt;br&gt;YihY/virulence factor BrkB family protein&lt;br&gt;Location: 4573564 - 4572611" locus_tag="CR512_RS20240" class="clusterblast-orf" id="dummy-1_h1_5_32"  />
</g>
<g id="a1_0033"  >
<polygon points="721,90 722,90 727,85 722,80 721,80 721,90 " style="fill:white; stroke-width:1; stroke:black; " description="&lt;b&gt;CR512_RS20235&lt;/b&gt;&lt;br&gt;peptide deformylase&lt;br&gt;Location: 4572614 - 4572078" locus_tag="CR512_RS20235" class="clusterblast-orf" id="dummy-1_h1_5_33"  />
</g>
<g id="a1_0034"  >
<polygon points="727,85 731,80 731,90 727,85 " style="fill:white; stroke-width:1; stroke:black; " description="&lt;b&gt;CR512_RS20230&lt;/b&gt;&lt;br&gt;GNAT family N-acetyltransferase&lt;br&gt;Location: 4572123 - 4571755" locus_tag="CR512_RS20230" class="clusterblast-orf" id="dummy-1_h1_5_34"  />
</g>
<g id="a1_0035"  >
<polygon points="735,90 738,85 735,80 735,90 " style="fill:white; stroke-width:1; stroke:black; " description="&lt;b&gt;CR512_RS20225&lt;/b&gt;&lt;br&gt;DUF2790 domain-containing protein&lt;br&gt;Location: 4571378 - 4571121" locus_tag="CR512_RS20225" class="clusterblast-orf" id="dummy-1_h1_5_35"  />
</g>
<g id="a1_0036"  >
<polygon points="738,85 743,80 753,80 753,90 743,90 738,85 " style="fill:white; stroke-width:1; stroke:black; " description="&lt;b&gt;CR512_RS20220&lt;/b&gt;&lt;br&gt;PLP-dependent aminotransferase family protein&lt;br&gt;Location: 4571054 - 4569693" locus_tag="CR512_RS20220" class="clusterblast-orf" id="dummy-1_h1_5_36"  />
</g>
<g id="a1_0037"  >
<polygon points="754,90 760,90 765,85 760,80 754,80 754,90 " style="fill:white; stroke-width:1; stroke:black; " description="&lt;b&gt;CR512_RS20215&lt;/b&gt;&lt;br&gt;threonine dehydratase&lt;br&gt;Location: 4569616 - 4568651" locus_tag="CR512_RS20215" class="clusterblast-orf" id="dummy-1_h1_5_37"  />
</g>
<g id="a1_0038"  >
<polygon points="765,90 768,85 765,80 765,90 " style="fill:white; stroke-width:1; stroke:black; " description="&lt;b&gt;CR512_RS20210&lt;/b&gt;&lt;br&gt;type II toxin-antitoxin system HicA family toxin&lt;br&gt;Location: 4568603 - 4568349" locus_tag="CR512_RS20210" class="clusterblast-orf" id="dummy-1_h1_5_38"  />
</g>
<g id="a1_0039"  >
<polygon points="768,90 772,85 768,80 768,90 " style="fill:white; stroke-width:1; stroke:black; " description="&lt;b&gt;CR512_RS20205&lt;/b&gt;&lt;br&gt;type II toxin-antitoxin system HicB family antitoxin&lt;br&gt;Location: 4568352 - 4568020" locus_tag="CR512_RS20205" class="clusterblast-orf" id="dummy-1_h1_5_39"  />
</g>
<g id="a1_0040"  >
<polygon points="772,90 775,90 780,85 775,80 772,80 772,90 " style="fill:white; stroke-width:1; stroke:black; " description="&lt;b&gt;CR512_RS20200&lt;/b&gt;&lt;br&gt;LysE family translocator&lt;br&gt;Location: 4567940 - 4567296" locus_tag="CR512_RS20200" class="clusterblast-orf" id="dummy-1_h1_5_40"  />
</g>
</svg>
