<svg xmlns="http://www.w3.org/2000/svg" xmlns:xlink="http://www.w3.org/1999/xlink" version="1.1" x="0" y="0" height="230" width="800" viewBox="0 0 800 230" preserveAspectRatio="none"  >
<g label="Query sequence" class="clusterblast-cluster"  >
<text x="5" y="20" class="clusterblast-acc"  >
Query sequence</text>
<line x1="10" y1="35" x2="778.0" y2="35" style="stroke-width:1; stroke:grey; "  />
<polygon points="0,40 6,40 11,35 6,30 0,30 0,40 " style="fill:white; stroke-width:1; stroke:black; " description="&lt;b&gt;FCOJGGDE_00129&lt;/b&gt;&lt;br&gt;hypothetical protein&lt;br&gt;Location: 125050 - 125803" locus_tag="FCOJGGDE_00129" class="clusterblast-orf" id="dummy-1_q0_0_all"  />
<polygon points="11,40 26,40 31,35 26,30 11,30 11,40 " style="fill:white; stroke-width:1; stroke:black; " description="&lt;b&gt;FCOJGGDE_00130&lt;/b&gt;&lt;br&gt;hypothetical protein&lt;br&gt;Location: 125799 - 127023" locus_tag="FCOJGGDE_00130" class="clusterblast-orf" id="dummy-1_q1_0_all"  />
<polygon points="31,40 34,40 39,35 34,30 31,30 31,40 " style="fill:white; stroke-width:1; stroke:black; " description="&lt;b&gt;FCOJGGDE_00131&lt;/b&gt;&lt;br&gt;hypothetical protein&lt;br&gt;Location: 127026 - 127596" locus_tag="FCOJGGDE_00131" class="clusterblast-orf" id="dummy-1_q2_0_all"  />
<polygon points="39,40 46,40 51,35 46,30 39,30 39,40 " style="fill:#d81515; stroke-width:1; stroke:black; " description="&lt;b&gt;FCOJGGDE_00132&lt;/b&gt;&lt;br&gt;putative oxidoreductase&lt;br&gt;Location: 127592 - 128330" locus_tag="FCOJGGDE_00132" class="clusterblast-orf" id="dummy-1_q3_0_all"  />
<polygon points="51,35 56,30 68,30 68,40 56,40 51,35 " style="fill:#58d815; stroke-width:1; stroke:black; " description="&lt;b&gt;FCOJGGDE_00133&lt;/b&gt;&lt;br&gt;hypothetical protein&lt;br&gt;Location: 128333 - 129389" locus_tag="FCOJGGDE_00133" class="clusterblast-orf" id="dummy-1_q4_0_all"  />
<polygon points="68,35 72,30 72,40 68,35 " style="fill:#15c4d8; stroke-width:1; stroke:black; " description="&lt;b&gt;FCOJGGDE_00134&lt;/b&gt;&lt;br&gt;hypothetical protein&lt;br&gt;Location: 129401 - 129647" locus_tag="FCOJGGDE_00134" class="clusterblast-orf" id="dummy-1_q5_0_all"  />
<polygon points="73,40 83,40 88,35 83,30 73,30 73,40 " style="fill:#8115d8; stroke-width:1; stroke:black; " description="&lt;b&gt;FCOJGGDE_00135&lt;/b&gt;&lt;br&gt;hypothetical protein&lt;br&gt;Location: 129734 - 130694" locus_tag="FCOJGGDE_00135" class="clusterblast-orf" id="dummy-1_q6_0_all"  />
<polygon points="89,40 124,40 129,35 124,30 89,30 89,40 " style="fill:#8115d8; stroke-width:1; stroke:black; " description="&lt;b&gt;FCOJGGDE_00136&lt;/b&gt;&lt;br&gt;hypothetical protein&lt;br&gt;Location: 130737 - 133350" locus_tag="FCOJGGDE_00136" class="clusterblast-orf" id="dummy-1_q7_0_all"  />
<polygon points="129,40 137,40 142,35 137,30 129,30 129,40 " style="fill:#d83e15; stroke-width:1; stroke:black; " description="&lt;b&gt;FCOJGGDE_00137&lt;/b&gt;&lt;br&gt;hypothetical protein&lt;br&gt;Location: 133334 - 134168" locus_tag="FCOJGGDE_00137" class="clusterblast-orf" id="dummy-1_q8_0_all"  />
<polygon points="142,35 147,30 162,30 162,40 147,40 142,35 " style="fill:#30d815; stroke-width:1; stroke:black; " description="&lt;b&gt;FCOJGGDE_00138&lt;/b&gt;&lt;br&gt;D-inositol-3-phosphate glycosyltransferase&lt;br&gt;Location: 134164 - 135445" locus_tag="FCOJGGDE_00138" class="clusterblast-orf" id="dummy-1_q9_0_all"  />
<polygon points="166,40 169,35 166,30 166,40 " style="fill:white; stroke-width:1; stroke:black; " description="&lt;b&gt;FCOJGGDE_00139&lt;/b&gt;&lt;br&gt;hypothetical protein&lt;br&gt;Location: 135681 - 135897" locus_tag="FCOJGGDE_00139" class="clusterblast-orf" id="dummy-1_q10_0_all"  />
<polygon points="177,40 183,40 188,35 183,30 177,30 177,40 " style="fill:#159cd8; stroke-width:1; stroke:black; " description="&lt;b&gt;FCOJGGDE_00140&lt;/b&gt;&lt;br&gt;Undecaprenyl phosphate N,N'-diacetylbacillosamine 1-phosphate transferase&lt;br&gt;Location: 136377 - 137094" locus_tag="FCOJGGDE_00140" class="clusterblast-orf" id="dummy-1_q11_0_all"  />
<polygon points="192,35 197,30 213,30 213,40 197,40 192,35 " style="fill:#a915d8; stroke-width:1; stroke:black; " description="&lt;b&gt;FCOJGGDE_00141&lt;/b&gt;&lt;br&gt;hypothetical protein&lt;br&gt;Location: 137320 - 138721" locus_tag="FCOJGGDE_00141" class="clusterblast-orf" id="dummy-1_q12_0_all"  />
<polygon points="214,35 219,30 228,30 228,40 219,40 214,35 " style="fill:#d86615; stroke-width:1; stroke:black; " description="&lt;b&gt;FCOJGGDE_00142&lt;/b&gt;&lt;br&gt;hypothetical protein&lt;br&gt;Location: 138733 - 139678" locus_tag="FCOJGGDE_00142" class="clusterblast-orf" id="dummy-1_q13_0_all"  />
<polygon points="233,40 243,40 248,35 243,30 233,30 233,40 " style="fill:#15d823; stroke-width:1; stroke:black; " description="&lt;b&gt;FCOJGGDE_00143&lt;/b&gt;&lt;br&gt;hypothetical protein&lt;br&gt;Location: 139976 - 140948" locus_tag="FCOJGGDE_00143" class="clusterblast-orf" id="dummy-1_q14_0_all"  />
<polygon points="248,35 253,30 260,30 260,40 253,40 248,35 " style="fill:#1573d8; stroke-width:1; stroke:black; " description="&lt;b&gt;FCOJGGDE_00144&lt;/b&gt;&lt;br&gt;N-acetylglucosaminyldiphosphoundecaprenol N-acetyl-beta-D-mannosaminyltransferase&lt;br&gt;Location: 140950 - 141700" locus_tag="FCOJGGDE_00144" class="clusterblast-orf" id="dummy-1_q15_0_all"  />
<polygon points="265,40 282,40 287,35 282,30 265,30 265,40 " style="fill:#d215d8; stroke-width:1; stroke:black; " description="&lt;b&gt;FCOJGGDE_00145&lt;/b&gt;&lt;br&gt;hypothetical protein&lt;br&gt;Location: 142045 - 143458" locus_tag="FCOJGGDE_00145" class="clusterblast-orf" id="dummy-1_q16_0_all"  />
<polygon points="293,40 387,40 392,35 387,30 293,30 293,40 " style="fill:#d88e15; stroke-width:1; stroke:black; " description="&lt;b&gt;FCOJGGDE_00146&lt;/b&gt;&lt;br&gt;hypothetical protein&lt;br&gt;Location: 143786 - 150152" locus_tag="FCOJGGDE_00146" class="clusterblast-orf" id="dummy-1_q17_0_all"  />
<polygon points="392,40 403,40 408,35 403,30 392,30 392,40 " style="fill:#15d84b; stroke-width:1; stroke:black; " description="&lt;b&gt;FCOJGGDE_00147&lt;/b&gt;&lt;br&gt;hypothetical protein&lt;br&gt;Location: 150155 - 151157" locus_tag="FCOJGGDE_00147" class="clusterblast-orf" id="dummy-1_q18_0_all"  />
<polygon points="408,40 474,40 479,35 474,30 408,30 408,40 " style="fill:#154bd8; stroke-width:1; stroke:black; " description="&lt;b&gt;FCOJGGDE_00148&lt;/b&gt;&lt;br&gt;D-alanine--D-alanyl carrier protein ligase&lt;br&gt;Location: 151187 - 155729" locus_tag="FCOJGGDE_00148" class="clusterblast-orf" id="dummy-1_q19_0_all"  />
<polygon points="479,40 485,40 490,35 485,30 479,30 479,40 " style="fill:#d815b7; stroke-width:1; stroke:black; " description="&lt;b&gt;FCOJGGDE_00149&lt;/b&gt;&lt;br&gt;hypothetical protein&lt;br&gt;Location: 155728 - 156385" locus_tag="FCOJGGDE_00149" class="clusterblast-orf" id="dummy-1_q20_0_all"  />
<polygon points="491,35 496,30 503,30 503,40 496,40 491,35 " style="fill:#d8b715; stroke-width:1; stroke:black; " description="&lt;b&gt;FCOJGGDE_00150&lt;/b&gt;&lt;br&gt;Transcriptional regulatory protein OmpR&lt;br&gt;Location: 156500 - 157211" locus_tag="FCOJGGDE_00150" class="clusterblast-orf" id="dummy-1_q21_0_all"  />
<polygon points="502,35 507,30 533,30 533,40 507,40 502,35 " style="fill:#15d873; stroke-width:1; stroke:black; " description="&lt;b&gt;FCOJGGDE_00151&lt;/b&gt;&lt;br&gt;Sensor histidine kinase RcsC&lt;br&gt;Location: 157207 - 159133" locus_tag="FCOJGGDE_00151" class="clusterblast-orf" id="dummy-1_q22_0_all"  />
<polygon points="535,40 562,40 567,35 562,30 535,30 535,40 " style="fill:#1523d8; stroke-width:1; stroke:black; " description="&lt;b&gt;FCOJGGDE_00152&lt;/b&gt;&lt;br&gt;Long-chain-fatty-acid--CoA ligase FadD15&lt;br&gt;Location: 159310 - 161302" locus_tag="FCOJGGDE_00152" class="clusterblast-orf" id="dummy-1_q23_0_all"  />
<polygon points="566,40 574,40 579,35 574,30 566,30 566,40 " style="fill:#d8158e; stroke-width:1; stroke:black; " description="&lt;b&gt;FCOJGGDE_00153&lt;/b&gt;&lt;br&gt;Sulfate/thiosulfate import ATP-binding protein CysA&lt;br&gt;Location: 161298 - 162123" locus_tag="FCOJGGDE_00153" class="clusterblast-orf" id="dummy-1_q24_0_all"  />
<polygon points="580,40 590,40 595,35 590,30 580,30 580,40 " style="fill:#d2d815; stroke-width:1; stroke:black; " description="&lt;b&gt;FCOJGGDE_00154&lt;/b&gt;&lt;br&gt;High-affinity branched-chain amino acid transport system permease protein LivH&lt;br&gt;Location: 162144 - 163131" locus_tag="FCOJGGDE_00154" class="clusterblast-orf" id="dummy-1_q25_0_all"  />
<polygon points="597,40 609,40 614,35 609,30 597,30 597,40 " style="fill:#15d89c; stroke-width:1; stroke:black; " description="&lt;b&gt;FCOJGGDE_00155&lt;/b&gt;&lt;br&gt;hypothetical protein&lt;br&gt;Location: 163234 - 164311" locus_tag="FCOJGGDE_00155" class="clusterblast-orf" id="dummy-1_q26_0_all"  />
<polygon points="615,40 630,40 635,35 630,30 615,30 615,40 " style="fill:#3015d8; stroke-width:1; stroke:black; " description="&lt;b&gt;FCOJGGDE_00156&lt;/b&gt;&lt;br&gt;hypothetical protein&lt;br&gt;Location: 164381 - 165665" locus_tag="FCOJGGDE_00156" class="clusterblast-orf" id="dummy-1_q27_0_all"  />
<polygon points="636,40 644,40 649,35 644,30 636,30 636,40 " style="fill:#d81566; stroke-width:1; stroke:black; " description="&lt;b&gt;FCOJGGDE_00157&lt;/b&gt;&lt;br&gt;High-affinity branched-chain amino acid transport ATP-binding protein LivF&lt;br&gt;Location: 165725 - 166571" locus_tag="FCOJGGDE_00157" class="clusterblast-orf" id="dummy-1_q28_0_all"  />
<polygon points="649,40 663,40 668,35 663,30 649,30 649,40 " style="fill:#a9d815; stroke-width:1; stroke:black; " description="&lt;b&gt;FCOJGGDE_00158&lt;/b&gt;&lt;br&gt;hypothetical protein&lt;br&gt;Location: 166582 - 167779" locus_tag="FCOJGGDE_00158" class="clusterblast-orf" id="dummy-1_q29_0_all"  />
<polygon points="669,40 677,40 682,35 677,30 669,30 669,40 " style="fill:#15d8c4; stroke-width:1; stroke:black; " description="&lt;b&gt;FCOJGGDE_00159&lt;/b&gt;&lt;br&gt;putative protease SohB&lt;br&gt;Location: 167888 - 168713" locus_tag="FCOJGGDE_00159" class="clusterblast-orf" id="dummy-1_q30_0_all"  />
<polygon points="686,40 696,40 701,35 696,30 686,30 686,40 " style="fill:#5815d8; stroke-width:1; stroke:black; " description="&lt;b&gt;FCOJGGDE_00160&lt;/b&gt;&lt;br&gt;Inner membrane protein YrbG&lt;br&gt;Location: 168924 - 169875" locus_tag="FCOJGGDE_00160" class="clusterblast-orf" id="dummy-1_q31_0_all"  />
<polygon points="701,40 708,40 713,35 708,30 701,30 701,40 " style="fill:#d8153e; stroke-width:1; stroke:black; " description="&lt;b&gt;FCOJGGDE_00161&lt;/b&gt;&lt;br&gt;3-oxoacyl-[acyl-carrier-protein] reductase FabG&lt;br&gt;Location: 169878 - 170658" locus_tag="FCOJGGDE_00161" class="clusterblast-orf" id="dummy-1_q32_0_all"  />
<polygon points="717,40 742,40 747,35 742,30 717,30 717,40 " style="fill:#81d815; stroke-width:1; stroke:black; " description="&lt;b&gt;FCOJGGDE_00162&lt;/b&gt;&lt;br&gt;UvrABC system protein C&lt;br&gt;Location: 170944 - 172834" locus_tag="FCOJGGDE_00162" class="clusterblast-orf" id="dummy-1_q33_0_all"  />
<polygon points="753,35 758,30 768,30 768,40 758,40 753,35 " style="fill:white; stroke-width:1; stroke:black; " description="&lt;b&gt;FCOJGGDE_00163&lt;/b&gt;&lt;br&gt;hypothetical protein&lt;br&gt;Location: 173226 - 174216" locus_tag="FCOJGGDE_00163" class="clusterblast-orf" id="dummy-1_q34_0_all"  />
<polygon points="770,40 775,40 780,35 775,30 770,30 770,40 " style="fill:white; stroke-width:1; stroke:black; " description="&lt;b&gt;FCOJGGDE_00164&lt;/b&gt;&lt;br&gt;hypothetical protein&lt;br&gt;Location: 174346 - 174934" locus_tag="FCOJGGDE_00164" class="clusterblast-orf" id="dummy-1_q35_0_all"  />
</g>
<g label="NZ_CP039964" description="NZ_CP039964 (2161038-2212876): Pseudorhodobacter sp. S12M18 chromosome, compl... (78% of genes show similarity), NRPS-like,T1PKS" class="clusterblast-cluster"  >
<text x="5" y="70" class="clusterblast-acc"  >
<a xlink:href="https://antismash-db.secondarymetabolites.org/area.html?record=NZ_CP039964&amp;start=2161038&amp;end=2212876" target="_blank">NZ_CP039964 (2161038-2212876)</a>: Pseudorhodobacter sp. S12M18 chromosome, compl... (78% of genes show similarity), NRPS-like,T1PKS</text>
<line x1="10" y1="85" x2="778.0" y2="85" style="stroke-width:1; stroke:grey; "  />
</g>
<g id="a1_000"  >
<polygon points="4,85 9,80 24,80 24,90 9,90 4,85 " style="fill:white; stroke-width:1; stroke:black; " description="&lt;b&gt;EOK75_RS10415&lt;/b&gt;&lt;br&gt;methyltransferase domain-containing protein&lt;br&gt;Location: 2162413 - 2163684" locus_tag="EOK75_RS10415" class="clusterblast-orf" id="dummy-1_h1_1_0"  />
</g>
<g id="a1_001"  >
<polygon points="25,90 28,85 25,80 25,90 " style="fill:white; stroke-width:1; stroke:black; " description="&lt;b&gt;EOK75_RS10420&lt;/b&gt;&lt;br&gt;DUF1674 domain-containing protein&lt;br&gt;Location: 2163759 - 2163941" locus_tag="EOK75_RS10420" class="clusterblast-orf" id="dummy-1_h1_1_1"  />
</g>
<g id="a1_002"  >
<polygon points="28,85 33,80 38,80 38,90 33,90 28,85 " style="fill:white; stroke-width:1; stroke:black; " description="&lt;b&gt;EOK75_RS10425&lt;/b&gt;&lt;br&gt;transcriptional regulator&lt;br&gt;Location: 2163947 - 2164585" locus_tag="EOK75_RS10425" class="clusterblast-orf" id="dummy-1_h1_1_2"  />
</g>
<g id="a1_003"  >
<polygon points="38,85 43,80 48,80 48,90 43,90 38,85 " style="fill:white; stroke-width:1; stroke:black; " description="&lt;b&gt;EOK75_RS10430&lt;/b&gt;&lt;br&gt;sigma-70 family RNA polymerase sigma factor&lt;br&gt;Location: 2164598 - 2165245" locus_tag="EOK75_RS10430" class="clusterblast-orf" id="dummy-1_h1_1_3"  />
</g>
<g id="a1_004"  >
<polygon points="51,90 57,90 62,85 57,80 51,80 51,90 " style="fill:#d81515; stroke-width:1; stroke:black; " description="&lt;b&gt;EOK75_RS10435&lt;/b&gt;&lt;br&gt;SDR family NAD(P)-dependent oxidoreductase&lt;br&gt;Location: 2165398 - 2166126&lt;br&gt;&lt;br&gt;&lt;b&gt;BlastP hit with FCOJGGDE_00132&lt;/b&gt;&lt;br&gt;Percentage identity: 70&lt;br&gt;Percentage coverage: 100&lt;br&gt;BLAST bit score: 324&lt;br&gt;E-value: 2.92e-111" locus_tag="EOK75_RS10435" class="clusterblast-orf" id="dummy-1_h1_1_4"  />
</g>
<g id="a1_005"  >
<polygon points="62,85 67,80 79,80 79,90 67,90 62,85 " style="fill:#58d815; stroke-width:1; stroke:black; " description="&lt;b&gt;EOK75_RS10440&lt;/b&gt;&lt;br&gt;saccharopine dehydrogenase&lt;br&gt;Location: 2166130 - 2167182&lt;br&gt;&lt;br&gt;&lt;b&gt;BlastP hit with FCOJGGDE_00133&lt;/b&gt;&lt;br&gt;Percentage identity: 82&lt;br&gt;Percentage coverage: 99&lt;br&gt;BLAST bit score: 579&lt;br&gt;E-value: 2.15e-208" locus_tag="EOK75_RS10440" class="clusterblast-orf" id="dummy-1_h1_1_5"  />
</g>
<g id="a1_006"  >
<polygon points="78,85 82,80 82,90 78,85 " style="fill:#15c4d8; stroke-width:1; stroke:black; " description="&lt;b&gt;EOK75_RS10445&lt;/b&gt;&lt;br&gt;WGR domain-containing protein&lt;br&gt;Location: 2167179 - 2167424&lt;br&gt;&lt;br&gt;&lt;b&gt;BlastP hit with FCOJGGDE_00134&lt;/b&gt;&lt;br&gt;Percentage identity: 76&lt;br&gt;Percentage coverage: 94&lt;br&gt;BLAST bit score: 128&lt;br&gt;E-value: 1.05e-38" locus_tag="EOK75_RS10445" class="clusterblast-orf" id="dummy-1_h1_1_6"  />
</g>
<g id="a1_007"  >
<polygon points="84,90 93,90 98,85 93,80 84,80 84,90 " style="fill:#8115d8; stroke-width:1; stroke:black; " description="&lt;b&gt;EOK75_RS10450&lt;/b&gt;&lt;br&gt;hypothetical protein&lt;br&gt;Location: 2167522 - 2168460&lt;br&gt;&lt;br&gt;&lt;b&gt;BlastP hit with FCOJGGDE_00135&lt;/b&gt;&lt;br&gt;Percentage identity: 69&lt;br&gt;Percentage coverage: 100&lt;br&gt;BLAST bit score: 424&lt;br&gt;E-value: 3.39e-148" locus_tag="EOK75_RS10450" class="clusterblast-orf" id="dummy-1_h1_1_7"  />
</g>
<g id="a1_008"  >
<polygon points="99,90 134,90 139,85 134,80 99,80 99,90 " style="fill:#8115d8; stroke-width:1; stroke:black; " description="&lt;b&gt;EOK75_RS10455&lt;/b&gt;&lt;br&gt;hypothetical protein&lt;br&gt;Location: 2168505 - 2171024&lt;br&gt;&lt;br&gt;&lt;b&gt;BlastP hit with FCOJGGDE_00135&lt;/b&gt;&lt;br&gt;Percentage identity: 31&lt;br&gt;Percentage coverage: 89&lt;br&gt;BLAST bit score: 110&lt;br&gt;E-value: 1.27e-24&lt;br&gt;&lt;br&gt;&lt;b&gt;BlastP hit with FCOJGGDE_00136&lt;/b&gt;&lt;br&gt;Percentage identity: 72&lt;br&gt;Percentage coverage: 100&lt;br&gt;BLAST bit score: 1283&lt;br&gt;E-value: 0.0" locus_tag="EOK75_RS10455" class="clusterblast-orf" id="dummy-1_h1_1_8"  />
</g>
<g id="a1_009"  >
<polygon points="138,90 146,90 151,85 146,80 138,80 138,90 " style="fill:#d83e15; stroke-width:1; stroke:black; " description="&lt;b&gt;EOK75_RS10460&lt;/b&gt;&lt;br&gt;glycosyltransferase family 2 protein&lt;br&gt;Location: 2171009 - 2171842&lt;br&gt;&lt;br&gt;&lt;b&gt;BlastP hit with FCOJGGDE_00137&lt;/b&gt;&lt;br&gt;Percentage identity: 76&lt;br&gt;Percentage coverage: 100&lt;br&gt;BLAST bit score: 408&lt;br&gt;E-value: 2.34e-143" locus_tag="EOK75_RS10460" class="clusterblast-orf" id="dummy-1_h1_1_9"  />
</g>
<g id="a1_0010"  >
<polygon points="151,85 156,80 170,80 170,90 156,90 151,85 " style="fill:#30d815; stroke-width:1; stroke:black; " description="&lt;b&gt;EOK75_RS10465&lt;/b&gt;&lt;br&gt;glycosyltransferase&lt;br&gt;Location: 2171839 - 2173056&lt;br&gt;&lt;br&gt;&lt;b&gt;BlastP hit with FCOJGGDE_00138&lt;/b&gt;&lt;br&gt;Percentage identity: 76&lt;br&gt;Percentage coverage: 94&lt;br&gt;BLAST bit score: 588&lt;br&gt;E-value: 9.5e-210" locus_tag="EOK75_RS10465" class="clusterblast-orf" id="dummy-1_h1_1_10"  />
</g>
<g id="a1_0011"  >
<polygon points="174,90 178,85 174,80 174,90 " style="fill:white; stroke-width:1; stroke:black; " description="&lt;b&gt;EOK75_RS10470&lt;/b&gt;&lt;br&gt;hypothetical protein&lt;br&gt;Location: 2173318 - 2173527" locus_tag="EOK75_RS10470" class="clusterblast-orf" id="dummy-1_h1_1_11"  />
</g>
<g id="a1_0012"  >
<polygon points="185,90 191,90 196,85 191,80 185,80 185,90 " style="fill:#159cd8; stroke-width:1; stroke:black; " description="&lt;b&gt;EOK75_RS10475&lt;/b&gt;&lt;br&gt;sugar transferase&lt;br&gt;Location: 2174007 - 2174696&lt;br&gt;&lt;br&gt;&lt;b&gt;BlastP hit with FCOJGGDE_00140&lt;/b&gt;&lt;br&gt;Percentage identity: 68&lt;br&gt;Percentage coverage: 97&lt;br&gt;BLAST bit score: 308&lt;br&gt;E-value: 2.46e-105" locus_tag="EOK75_RS10475" class="clusterblast-orf" id="dummy-1_h1_1_12"  />
</g>
<g id="a1_0013"  >
<polygon points="198,85 203,80 217,80 217,90 203,90 198,85 " style="fill:#a915d8; stroke-width:1; stroke:black; " description="&lt;b&gt;EOK75_RS10480&lt;/b&gt;&lt;br&gt;hypothetical protein&lt;br&gt;Location: 2174794 - 2176038&lt;br&gt;&lt;br&gt;&lt;b&gt;BlastP hit with FCOJGGDE_00141&lt;/b&gt;&lt;br&gt;Percentage identity: 62&lt;br&gt;Percentage coverage: 88&lt;br&gt;BLAST bit score: 452&lt;br&gt;E-value: 1.16e-155" locus_tag="EOK75_RS10480" class="clusterblast-orf" id="dummy-1_h1_1_13"  />
</g>
<g id="a1_0014"  >
<polygon points="217,85 222,80 232,80 232,90 222,90 217,85 " style="fill:#d86615; stroke-width:1; stroke:black; " description="&lt;b&gt;EOK75_RS10485&lt;/b&gt;&lt;br&gt;CpsD/CapB family tyrosine-protein kinase&lt;br&gt;Location: 2176044 - 2176982&lt;br&gt;&lt;br&gt;&lt;b&gt;BlastP hit with FCOJGGDE_00142&lt;/b&gt;&lt;br&gt;Percentage identity: 65&lt;br&gt;Percentage coverage: 101&lt;br&gt;BLAST bit score: 377&lt;br&gt;E-value: 4.86e-130" locus_tag="EOK75_RS10485" class="clusterblast-orf" id="dummy-1_h1_1_14"  />
</g>
<g id="a1_0015"  >
<polygon points="236,90 246,90 251,85 246,80 236,80 236,90 " style="fill:#15d823; stroke-width:1; stroke:black; " description="&lt;b&gt;EOK75_RS10490&lt;/b&gt;&lt;br&gt;glycosyltransferase family 2 protein&lt;br&gt;Location: 2177265 - 2178242&lt;br&gt;&lt;br&gt;&lt;b&gt;BlastP hit with FCOJGGDE_00143&lt;/b&gt;&lt;br&gt;Percentage identity: 76&lt;br&gt;Percentage coverage: 97&lt;br&gt;BLAST bit score: 481&lt;br&gt;E-value: 1.35e-170" locus_tag="EOK75_RS10490" class="clusterblast-orf" id="dummy-1_h1_1_15"  />
</g>
<g id="a1_0016"  >
<polygon points="251,85 256,80 263,80 263,90 256,90 251,85 " style="fill:#1573d8; stroke-width:1; stroke:black; " description="&lt;b&gt;EOK75_RS10495&lt;/b&gt;&lt;br&gt;WecB/TagA/CpsF family glycosyltransferase&lt;br&gt;Location: 2178243 - 2178989&lt;br&gt;&lt;br&gt;&lt;b&gt;BlastP hit with FCOJGGDE_00144&lt;/b&gt;&lt;br&gt;Percentage identity: 64&lt;br&gt;Percentage coverage: 96&lt;br&gt;BLAST bit score: 315&lt;br&gt;E-value: 1.87e-107" locus_tag="EOK75_RS10495" class="clusterblast-orf" id="dummy-1_h1_1_16"  />
</g>
<g id="a1_0017"  >
<polygon points="268,90 285,90 290,85 285,80 268,80 268,90 " style="fill:#d215d8; stroke-width:1; stroke:black; " description="&lt;b&gt;EOK75_RS10500&lt;/b&gt;&lt;br&gt;hypothetical protein&lt;br&gt;Location: 2179293 - 2180705&lt;br&gt;&lt;br&gt;&lt;b&gt;BlastP hit with FCOJGGDE_00145&lt;/b&gt;&lt;br&gt;Percentage identity: 76&lt;br&gt;Percentage coverage: 100&lt;br&gt;BLAST bit score: 708&lt;br&gt;E-value: 1.92e-255" locus_tag="EOK75_RS10500" class="clusterblast-orf" id="dummy-1_h1_1_17"  />
</g>
<g id="a1_0018"  >
<polygon points="295,90 389,90 394,85 389,80 295,80 295,90 " style="fill:#d88e15; stroke-width:1; stroke:black; " description="&lt;b&gt;EOK75_RS10505&lt;/b&gt;&lt;br&gt;SDR family oxidoreductase&lt;br&gt;Location: 2181039 - 2187356&lt;br&gt;&lt;br&gt;&lt;b&gt;BlastP hit with FCOJGGDE_00146&lt;/b&gt;&lt;br&gt;Percentage identity: 79&lt;br&gt;Percentage coverage: 99&lt;br&gt;BLAST bit score: 3395&lt;br&gt;E-value: 0.0" locus_tag="EOK75_RS10505" class="clusterblast-orf" id="dummy-1_h1_1_18"  />
</g>
<g id="a1_0019"  >
<polygon points="394,90 404,90 409,85 404,80 394,80 394,90 " style="fill:#15d84b; stroke-width:1; stroke:black; " description="&lt;b&gt;EOK75_RS10510&lt;/b&gt;&lt;br&gt;glycosyltransferase family 2 protein&lt;br&gt;Location: 2187360 - 2188322&lt;br&gt;&lt;br&gt;&lt;b&gt;BlastP hit with FCOJGGDE_00147&lt;/b&gt;&lt;br&gt;Percentage identity: 81&lt;br&gt;Percentage coverage: 95&lt;br&gt;BLAST bit score: 531&lt;br&gt;E-value: 1.89e-190" locus_tag="EOK75_RS10510" class="clusterblast-orf" id="dummy-1_h1_1_19"  />
</g>
<g id="a1_0020"  >
<polygon points="410,90 475,90 480,85 475,80 410,80 410,90 " style="fill:#154bd8; stroke-width:1; stroke:black; " description="&lt;b&gt;EOK75_RS10515&lt;/b&gt;&lt;br&gt;LLM class flavin-dependent oxidoreductase&lt;br&gt;Location: 2188362 - 2192876&lt;br&gt;&lt;br&gt;&lt;b&gt;BlastP hit with FCOJGGDE_00148&lt;/b&gt;&lt;br&gt;Percentage identity: 76&lt;br&gt;Percentage coverage: 97&lt;br&gt;BLAST bit score: 2174&lt;br&gt;E-value: 0.0" locus_tag="EOK75_RS10515" class="clusterblast-orf" id="dummy-1_h1_1_20"  />
</g>
<g id="a1_0021"  >
<polygon points="480,90 485,90 490,85 485,80 480,80 480,90 " style="fill:#d815b7; stroke-width:1; stroke:black; " description="&lt;b&gt;EOK75_RS10520&lt;/b&gt;&lt;br&gt;4'-phosphopantetheinyl transferase superfamily protein&lt;br&gt;Location: 2192869 - 2193498&lt;br&gt;&lt;br&gt;&lt;b&gt;BlastP hit with FCOJGGDE_00149&lt;/b&gt;&lt;br&gt;Percentage identity: 61&lt;br&gt;Percentage coverage: 96&lt;br&gt;BLAST bit score: 225&lt;br&gt;E-value: 3.91e-73" locus_tag="EOK75_RS10520" class="clusterblast-orf" id="dummy-1_h1_1_21"  />
</g>
<g id="a1_0022"  >
<polygon points="490,85 495,80 501,80 501,90 495,90 490,85 " style="fill:#d8b715; stroke-width:1; stroke:black; " description="&lt;b&gt;EOK75_RS10525&lt;/b&gt;&lt;br&gt;response regulator transcription factor&lt;br&gt;Location: 2193511 - 2194221&lt;br&gt;&lt;br&gt;&lt;b&gt;BlastP hit with FCOJGGDE_00150&lt;/b&gt;&lt;br&gt;Percentage identity: 89&lt;br&gt;Percentage coverage: 100&lt;br&gt;BLAST bit score: 416&lt;br&gt;E-value: 1.35e-147" locus_tag="EOK75_RS10525" class="clusterblast-orf" id="dummy-1_h1_1_22"  />
</g>
<g id="a1_0023"  >
<polygon points="501,85 506,80 531,80 531,90 506,90 501,85 " style="fill:#15d873; stroke-width:1; stroke:black; " description="&lt;b&gt;EOK75_RS10530&lt;/b&gt;&lt;br&gt;response regulator&lt;br&gt;Location: 2194218 - 2196143&lt;br&gt;&lt;br&gt;&lt;b&gt;BlastP hit with FCOJGGDE_00151&lt;/b&gt;&lt;br&gt;Percentage identity: 83&lt;br&gt;Percentage coverage: 99&lt;br&gt;BLAST bit score: 1015&lt;br&gt;E-value: 0.0" locus_tag="EOK75_RS10530" class="clusterblast-orf" id="dummy-1_h1_1_23"  />
</g>
<g id="a1_0024"  >
<polygon points="534,90 560,90 565,85 560,80 534,80 534,90 " style="fill:#1523d8; stroke-width:1; stroke:black; " description="&lt;b&gt;EOK75_RS10535&lt;/b&gt;&lt;br&gt;AMP-binding protein&lt;br&gt;Location: 2196321 - 2198303&lt;br&gt;&lt;br&gt;&lt;b&gt;BlastP hit with FCOJGGDE_00152&lt;/b&gt;&lt;br&gt;Percentage identity: 94&lt;br&gt;Percentage coverage: 99&lt;br&gt;BLAST bit score: 1255&lt;br&gt;E-value: 0.0" locus_tag="EOK75_RS10535" class="clusterblast-orf" id="dummy-1_h1_1_24"  />
</g>
<g id="a1_0025"  >
<polygon points="565,90 573,90 578,85 573,80 565,80 565,90 " style="fill:#d8158e; stroke-width:1; stroke:black; " description="&lt;b&gt;EOK75_RS10540&lt;/b&gt;&lt;br&gt;ABC transporter ATP-binding protein&lt;br&gt;Location: 2198300 - 2199121&lt;br&gt;&lt;br&gt;&lt;b&gt;BlastP hit with FCOJGGDE_00153&lt;/b&gt;&lt;br&gt;Percentage identity: 96&lt;br&gt;Percentage coverage: 100&lt;br&gt;BLAST bit score: 532&lt;br&gt;E-value: 2.24e-192" locus_tag="EOK75_RS10540" class="clusterblast-orf" id="dummy-1_h1_1_25"  />
</g>
<g id="a1_0026"  >
<polygon points="578,90 589,90 594,85 589,80 578,80 578,90 " style="fill:#d2d815; stroke-width:1; stroke:black; " description="&lt;b&gt;EOK75_RS10545&lt;/b&gt;&lt;br&gt;branched-chain amino acid ABC transporter permease&lt;br&gt;Location: 2199146 - 2200132&lt;br&gt;&lt;br&gt;&lt;b&gt;BlastP hit with FCOJGGDE_00154&lt;/b&gt;&lt;br&gt;Percentage identity: 96&lt;br&gt;Percentage coverage: 100&lt;br&gt;BLAST bit score: 608&lt;br&gt;E-value: 7.06e-221" locus_tag="EOK75_RS10545" class="clusterblast-orf" id="dummy-1_h1_1_26"  />
</g>
<g id="a1_0027"  >
<polygon points="594,90 598,85 594,80 594,90 " style="fill:white; stroke-width:1; stroke:black; " description="&lt;b&gt;EOK75_RS10550&lt;/b&gt;&lt;br&gt;hypothetical protein&lt;br&gt;Location: 2200135 - 2200413" locus_tag="EOK75_RS10550" class="clusterblast-orf" id="dummy-1_h1_1_27"  />
</g>
<g id="a1_0028"  >
<polygon points="598,90 610,90 615,85 610,80 598,80 598,90 " style="fill:#15d89c; stroke-width:1; stroke:black; " description="&lt;b&gt;EOK75_RS10555&lt;/b&gt;&lt;br&gt;branched-chain amino acid ABC transporter permease&lt;br&gt;Location: 2200413 - 2201489&lt;br&gt;&lt;br&gt;&lt;b&gt;BlastP hit with FCOJGGDE_00155&lt;/b&gt;&lt;br&gt;Percentage identity: 94&lt;br&gt;Percentage coverage: 100&lt;br&gt;BLAST bit score: 662&lt;br&gt;E-value: 4.73e-241" locus_tag="EOK75_RS10555" class="clusterblast-orf" id="dummy-1_h1_1_28"  />
</g>
<g id="a1_0029"  >
<polygon points="616,90 631,90 636,85 631,80 616,80 616,90 " style="fill:#3015d8; stroke-width:1; stroke:black; " description="&lt;b&gt;EOK75_RS10560&lt;/b&gt;&lt;br&gt;ABC transporter substrate-binding protein&lt;br&gt;Location: 2201535 - 2202818&lt;br&gt;&lt;br&gt;&lt;b&gt;BlastP hit with FCOJGGDE_00156&lt;/b&gt;&lt;br&gt;Percentage identity: 91&lt;br&gt;Percentage coverage: 100&lt;br&gt;BLAST bit score: 797&lt;br&gt;E-value: 3.28e-292" locus_tag="EOK75_RS10560" class="clusterblast-orf" id="dummy-1_h1_1_29"  />
</g>
<g id="a1_0030"  >
<polygon points="637,90 645,90 650,85 645,80 637,80 637,90 " style="fill:#d81566; stroke-width:1; stroke:black; " description="&lt;b&gt;EOK75_RS10565&lt;/b&gt;&lt;br&gt;ABC transporter ATP-binding protein&lt;br&gt;Location: 2202888 - 2203712&lt;br&gt;&lt;br&gt;&lt;b&gt;BlastP hit with FCOJGGDE_00157&lt;/b&gt;&lt;br&gt;Percentage identity: 93&lt;br&gt;Percentage coverage: 99&lt;br&gt;BLAST bit score: 504&lt;br&gt;E-value: 4.13e-181" locus_tag="EOK75_RS10565" class="clusterblast-orf" id="dummy-1_h1_1_30"  />
</g>
<g id="a1_0031"  >
<polygon points="650,90 663,90 668,85 663,80 650,80 650,90 " style="fill:#a9d815; stroke-width:1; stroke:black; " description="&lt;b&gt;EOK75_RS10570&lt;/b&gt;&lt;br&gt;AMP-binding protein&lt;br&gt;Location: 2203724 - 2204893&lt;br&gt;&lt;br&gt;&lt;b&gt;BlastP hit with FCOJGGDE_00158&lt;/b&gt;&lt;br&gt;Percentage identity: 81&lt;br&gt;Percentage coverage: 100&lt;br&gt;BLAST bit score: 639&lt;br&gt;E-value: 1.44e-230" locus_tag="EOK75_RS10570" class="clusterblast-orf" id="dummy-1_h1_1_31"  />
</g>
<g id="a1_0032"  >
<polygon points="670,90 678,90 683,85 678,80 670,80 670,90 " style="fill:#15d8c4; stroke-width:1; stroke:black; " description="&lt;b&gt;EOK75_RS10575&lt;/b&gt;&lt;br&gt;S49 family peptidase&lt;br&gt;Location: 2205021 - 2205839&lt;br&gt;&lt;br&gt;&lt;b&gt;BlastP hit with FCOJGGDE_00159&lt;/b&gt;&lt;br&gt;Percentage identity: 86&lt;br&gt;Percentage coverage: 100&lt;br&gt;BLAST bit score: 460&lt;br&gt;E-value: 4.8e-164" locus_tag="EOK75_RS10575" class="clusterblast-orf" id="dummy-1_h1_1_32"  />
</g>
<g id="a1_0033"  >
<polygon points="686,90 696,90 701,85 696,80 686,80 686,90 " style="fill:#5815d8; stroke-width:1; stroke:black; " description="&lt;b&gt;EOK75_RS10585&lt;/b&gt;&lt;br&gt;calcium/sodium antiporter&lt;br&gt;Location: 2206049 - 2206993&lt;br&gt;&lt;br&gt;&lt;b&gt;BlastP hit with FCOJGGDE_00160&lt;/b&gt;&lt;br&gt;Percentage identity: 87&lt;br&gt;Percentage coverage: 100&lt;br&gt;BLAST bit score: 508&lt;br&gt;E-value: 1.51e-181" locus_tag="EOK75_RS10585" class="clusterblast-orf" id="dummy-1_h1_1_33"  />
</g>
<g id="a1_0034"  >
<polygon points="701,90 708,90 713,85 708,80 701,80 701,90 " style="fill:#d8153e; stroke-width:1; stroke:black; " description="&lt;b&gt;EOK75_RS10590&lt;/b&gt;&lt;br&gt;SDR family oxidoreductase&lt;br&gt;Location: 2206990 - 2207769&lt;br&gt;&lt;br&gt;&lt;b&gt;BlastP hit with FCOJGGDE_00161&lt;/b&gt;&lt;br&gt;Percentage identity: 73&lt;br&gt;Percentage coverage: 100&lt;br&gt;BLAST bit score: 371&lt;br&gt;E-value: 2.5e-129" locus_tag="EOK75_RS10590" class="clusterblast-orf" id="dummy-1_h1_1_34"  />
</g>
<g id="a1_0035"  >
<polygon points="718,90 742,90 747,85 742,80 718,80 718,90 " style="fill:#81d815; stroke-width:1; stroke:black; " description="&lt;b&gt;EOK75_RS10595&lt;/b&gt;&lt;br&gt;excinuclease ABC subunit UvrC&lt;br&gt;Location: 2208075 - 2209949&lt;br&gt;&lt;br&gt;&lt;b&gt;BlastP hit with FCOJGGDE_00162&lt;/b&gt;&lt;br&gt;Percentage identity: 91&lt;br&gt;Percentage coverage: 99&lt;br&gt;BLAST bit score: 1112&lt;br&gt;E-value: 0.0" locus_tag="EOK75_RS10595" class="clusterblast-orf" id="dummy-1_h1_1_35"  />
</g>
<g id="a1_0036"  >
<polygon points="749,85 754,80 759,80 759,90 754,90 749,85 " style="fill:white; stroke-width:1; stroke:black; " description="&lt;b&gt;EOK75_RS10600&lt;/b&gt;&lt;br&gt;hypothetical protein&lt;br&gt;Location: 2210068 - 2210685" locus_tag="EOK75_RS10600" class="clusterblast-orf" id="dummy-1_h1_1_36"  />
</g>
<g id="a1_0037"  >
<polygon points="760,85 765,80 775,80 775,90 765,90 760,85 " style="fill:white; stroke-width:1; stroke:black; " description="&lt;b&gt;EOK75_RS10605&lt;/b&gt;&lt;br&gt;alpha/beta hydrolase&lt;br&gt;Location: 2210797 - 2211729" locus_tag="EOK75_RS10605" class="clusterblast-orf" id="dummy-1_h1_1_37"  />
</g>
</svg>
