<svg xmlns="http://www.w3.org/2000/svg" xmlns:xlink="http://www.w3.org/1999/xlink" version="1.1" x="0" y="0" height="230" width="800" viewBox="0 0 800 230" preserveAspectRatio="none"  >
<g label="Query sequence" class="clusterblast-cluster"  >
<text x="5" y="20" class="clusterblast-acc"  >
Query sequence</text>
<line x1="10" y1="35" x2="778.0" y2="35" style="stroke-width:1; stroke:grey; "  />
<polygon points="164,40 171,40 176,35 171,30 164,30 164,40 " style="fill:white; stroke-width:1; stroke:black; " description="&lt;b&gt;FCOJGGDE_00804&lt;/b&gt;&lt;br&gt;2-aminoadipate transaminase&lt;br&gt;Location: 195091 - 196297" locus_tag="FCOJGGDE_00804" class="clusterblast-orf" id="dummy-1_q0_0_all"  />
<polygon points="177,40 178,35 177,30 177,40 " style="fill:white; stroke-width:1; stroke:black; " description="&lt;b&gt;FCOJGGDE_00805&lt;/b&gt;&lt;br&gt;hypothetical protein&lt;br&gt;Location: 196307 - 196448" locus_tag="FCOJGGDE_00805" class="clusterblast-orf" id="dummy-1_q1_0_all"  />
<polygon points="178,40 183,40 188,35 183,30 178,30 178,40 " style="fill:white; stroke-width:1; stroke:black; " description="&lt;b&gt;FCOJGGDE_00806&lt;/b&gt;&lt;br&gt;hypothetical protein&lt;br&gt;Location: 196465 - 197368" locus_tag="FCOJGGDE_00806" class="clusterblast-orf" id="dummy-1_q2_0_all"  />
<polygon points="190,40 190,40 195,35 190,30 190,30 190,40 " style="fill:white; stroke-width:1; stroke:black; " description="&lt;b&gt;FCOJGGDE_00807&lt;/b&gt;&lt;br&gt;hypothetical protein&lt;br&gt;Location: 197637 - 198087" locus_tag="FCOJGGDE_00807" class="clusterblast-orf" id="dummy-1_q3_0_all"  />
<polygon points="197,35 202,30 210,30 210,40 202,40 197,35 " style="fill:white; stroke-width:1; stroke:black; " description="&lt;b&gt;FCOJGGDE_00808&lt;/b&gt;&lt;br&gt;O-acetyl-L-homoserine sulfhydrylase&lt;br&gt;Location: 198271 - 199558" locus_tag="FCOJGGDE_00808" class="clusterblast-orf" id="dummy-1_q4_0_all"  />
<polygon points="213,40 213,40 218,35 213,30 213,30 213,40 " style="fill:white; stroke-width:1; stroke:black; " description="&lt;b&gt;FCOJGGDE_00809&lt;/b&gt;&lt;br&gt;hypothetical protein&lt;br&gt;Location: 199807 - 200320" locus_tag="FCOJGGDE_00809" class="clusterblast-orf" id="dummy-1_q5_0_all"  />
<polygon points="219,40 224,40 229,35 224,30 219,30 219,40 " style="fill:white; stroke-width:1; stroke:black; " description="&lt;b&gt;FCOJGGDE_00810&lt;/b&gt;&lt;br&gt;Manganese-binding lipoprotein MntA&lt;br&gt;Location: 200414 - 201371" locus_tag="FCOJGGDE_00810" class="clusterblast-orf" id="dummy-1_q6_0_all"  />
<polygon points="229,40 232,40 237,35 232,30 229,30 229,40 " style="fill:#d81515; stroke-width:1; stroke:black; " description="&lt;b&gt;FCOJGGDE_00811&lt;/b&gt;&lt;br&gt;Manganese transport system ATP-binding protein MntB&lt;br&gt;Location: 201371 - 202103" locus_tag="FCOJGGDE_00811" class="clusterblast-orf" id="dummy-1_q7_0_all"  />
<polygon points="237,40 241,40 246,35 241,30 237,30 237,40 " style="fill:white; stroke-width:1; stroke:black; " description="&lt;b&gt;FCOJGGDE_00812&lt;/b&gt;&lt;br&gt;Manganese transport system membrane protein MntC&lt;br&gt;Location: 202118 - 203003" locus_tag="FCOJGGDE_00812" class="clusterblast-orf" id="dummy-1_q8_0_all"  />
<polygon points="246,40 251,40 256,35 251,30 246,30 246,40 " style="fill:white; stroke-width:1; stroke:black; " description="&lt;b&gt;FCOJGGDE_00813&lt;/b&gt;&lt;br&gt;Manganese transport system membrane protein MntD&lt;br&gt;Location: 203002 - 203911" locus_tag="FCOJGGDE_00813" class="clusterblast-orf" id="dummy-1_q9_0_all"  />
<polygon points="256,40 257,40 262,35 257,30 256,30 256,40 " style="fill:#43d815; stroke-width:1; stroke:black; " description="&lt;b&gt;FCOJGGDE_00814&lt;/b&gt;&lt;br&gt;Histidine biosynthesis bifunctional protein HisB&lt;br&gt;Location: 203978 - 204566" locus_tag="FCOJGGDE_00814" class="clusterblast-orf" id="dummy-1_q10_0_all"  />
<polygon points="262,40 264,40 269,35 264,30 262,30 262,40 " style="fill:#15b6d8; stroke-width:1; stroke:black; " description="&lt;b&gt;FCOJGGDE_00815&lt;/b&gt;&lt;br&gt;Imidazole glycerol phosphate synthase subunit HisH&lt;br&gt;Location: 204566 - 205214" locus_tag="FCOJGGDE_00815" class="clusterblast-orf" id="dummy-1_q11_0_all"  />
<polygon points="273,35 278,30 282,30 282,40 278,40 273,35 " style="fill:#8815d8; stroke-width:1; stroke:black; " description="&lt;b&gt;FCOJGGDE_00816&lt;/b&gt;&lt;br&gt;hypothetical protein&lt;br&gt;Location: 205539 - 206478" locus_tag="FCOJGGDE_00816" class="clusterblast-orf" id="dummy-1_q12_0_all"  />
<polygon points="283,35 287,30 287,40 283,35 " style="fill:#d85a15; stroke-width:1; stroke:black; " description="&lt;b&gt;FCOJGGDE_00817&lt;/b&gt;&lt;br&gt;hypothetical protein&lt;br&gt;Location: 206548 - 206932" locus_tag="FCOJGGDE_00817" class="clusterblast-orf" id="dummy-1_q13_0_all"  />
<polygon points="289,40 291,40 296,35 291,30 289,30 289,40 " style="fill:#15d82c; stroke-width:1; stroke:black; " description="&lt;b&gt;FCOJGGDE_00818&lt;/b&gt;&lt;br&gt;1-(5-phosphoribosyl)-5-[(5- phosphoribosylamino)methylideneamino] imidazole-4-carboxamide isomerase&lt;br&gt;Location: 207105 - 207825" locus_tag="FCOJGGDE_00818" class="clusterblast-orf" id="dummy-1_q14_0_all"  />
<polygon points="298,40 301,40 306,35 301,30 298,30 298,40 " style="fill:#15d82c; stroke-width:1; stroke:black; " description="&lt;b&gt;FCOJGGDE_00819&lt;/b&gt;&lt;br&gt;Imidazole glycerol phosphate synthase subunit HisF&lt;br&gt;Location: 207938 - 208700" locus_tag="FCOJGGDE_00819" class="clusterblast-orf" id="dummy-1_q15_0_all"  />
<polygon points="305,40 309,35 305,30 305,40 " style="fill:#1571d8; stroke-width:1; stroke:black; " description="&lt;b&gt;FCOJGGDE_00820&lt;/b&gt;&lt;br&gt;Phosphoribosyl-ATP pyrophosphatase&lt;br&gt;Location: 208696 - 209008" locus_tag="FCOJGGDE_00820" class="clusterblast-orf" id="dummy-1_q16_0_all"  />
<polygon points="309,35 313,30 313,40 309,35 " style="fill:#cd15d8; stroke-width:1; stroke:black; " description="&lt;b&gt;FCOJGGDE_00821&lt;/b&gt;&lt;br&gt;putative protein YccU&lt;br&gt;Location: 209011 - 209437" locus_tag="FCOJGGDE_00821" class="clusterblast-orf" id="dummy-1_q17_0_all"  />
<polygon points="315,35 320,30 323,30 323,40 320,40 315,35 " style="fill:#d89f15; stroke-width:1; stroke:black; " description="&lt;b&gt;FCOJGGDE_00822&lt;/b&gt;&lt;br&gt;23S rRNA (guanosine-2'-O-)-methyltransferase RlmB&lt;br&gt;Location: 209599 - 210385" locus_tag="FCOJGGDE_00822" class="clusterblast-orf" id="dummy-1_q18_0_all"  />
<polygon points="329,35 333,30 333,40 329,35 " style="fill:white; stroke-width:1; stroke:black; " description="&lt;b&gt;FCOJGGDE_00824&lt;/b&gt;&lt;br&gt;hypothetical protein&lt;br&gt;Location: 210985 - 211306" locus_tag="FCOJGGDE_00824" class="clusterblast-orf" id="dummy-1_q19_0_all"  />
<polygon points="333,40 334,40 339,35 334,30 333,30 333,40 " style="fill:white; stroke-width:1; stroke:black; " description="&lt;b&gt;FCOJGGDE_00825&lt;/b&gt;&lt;br&gt;hypothetical protein&lt;br&gt;Location: 211332 - 211893" locus_tag="FCOJGGDE_00825" class="clusterblast-orf" id="dummy-1_q20_0_all"  />
<polygon points="339,40 346,40 351,35 346,30 339,30 339,40 " style="fill:white; stroke-width:1; stroke:black; " description="&lt;b&gt;FCOJGGDE_00826&lt;/b&gt;&lt;br&gt;S-(hydroxymethyl)glutathione dehydrogenase&lt;br&gt;Location: 211910 - 213026" locus_tag="FCOJGGDE_00826" class="clusterblast-orf" id="dummy-1_q21_0_all"  />
<polygon points="353,40 362,40 367,35 362,30 353,30 353,40 " style="fill:#15d871; stroke-width:1; stroke:black; " description="&lt;b&gt;FCOJGGDE_00827&lt;/b&gt;&lt;br&gt;hypothetical protein&lt;br&gt;Location: 213247 - 214645" locus_tag="FCOJGGDE_00827" class="clusterblast-orf" id="dummy-1_q22_0_all"  />
<polygon points="367,40 403,40 408,35 403,30 367,30 367,40 " style="fill:#152cd8; stroke-width:1; stroke:black; " description="&lt;b&gt;FCOJGGDE_00828&lt;/b&gt;&lt;br&gt;Linear gramicidin synthase subunit D&lt;br&gt;Location: 214641 - 218568" locus_tag="FCOJGGDE_00828" class="clusterblast-orf" id="dummy-1_q23_0_all"  />
<polygon points="409,40 411,40 416,35 411,30 409,30 409,40 " style="fill:white; stroke-width:1; stroke:black; " description="&lt;b&gt;FCOJGGDE_00829&lt;/b&gt;&lt;br&gt;HTH-type transcriptional regulator McbR&lt;br&gt;Location: 218628 - 219291" locus_tag="FCOJGGDE_00829" class="clusterblast-orf" id="dummy-1_q24_0_all"  />
<polygon points="416,40 426,40 431,35 426,30 416,30 416,40 " style="fill:#d8159f; stroke-width:1; stroke:black; " description="&lt;b&gt;FCOJGGDE_00830&lt;/b&gt;&lt;br&gt;Putrescine--pyruvate aminotransferase&lt;br&gt;Location: 219366 - 220761" locus_tag="FCOJGGDE_00830" class="clusterblast-orf" id="dummy-1_q25_0_all"  />
<polygon points="433,35 438,30 444,30 444,40 438,40 433,35 " style="fill:white; stroke-width:1; stroke:black; " description="&lt;b&gt;FCOJGGDE_00831&lt;/b&gt;&lt;br&gt;D-galactarolactone cycloisomerase&lt;br&gt;Location: 220936 - 222052" locus_tag="FCOJGGDE_00831" class="clusterblast-orf" id="dummy-1_q26_0_all"  />
<polygon points="446,40 449,40 454,35 449,30 446,30 446,40 " style="fill:#cdd815; stroke-width:1; stroke:black; " description="&lt;b&gt;FCOJGGDE_00832&lt;/b&gt;&lt;br&gt;Ribulose-phosphate 3-epimerase&lt;br&gt;Location: 222247 - 222937" locus_tag="FCOJGGDE_00832" class="clusterblast-orf" id="dummy-1_q27_0_all"  />
<polygon points="454,40 455,40 460,35 455,30 454,30 454,40 " style="fill:#15d8b6; stroke-width:1; stroke:black; " description="&lt;b&gt;FCOJGGDE_00833&lt;/b&gt;&lt;br&gt;Phosphoglycolate phosphatase&lt;br&gt;Location: 222933 - 223590" locus_tag="FCOJGGDE_00833" class="clusterblast-orf" id="dummy-1_q28_0_all"  />
<polygon points="460,40 464,40 469,35 464,30 460,30 460,40 " style="fill:white; stroke-width:1; stroke:black; " description="&lt;b&gt;FCOJGGDE_00834&lt;/b&gt;&lt;br&gt;N(G),N(G)-dimethylarginine dimethylaminohydrolase&lt;br&gt;Location: 223593 - 224388" locus_tag="FCOJGGDE_00834" class="clusterblast-orf" id="dummy-1_q29_0_all"  />
<polygon points="470,35 474,30 474,40 470,35 " style="fill:white; stroke-width:1; stroke:black; " description="&lt;b&gt;FCOJGGDE_00835&lt;/b&gt;&lt;br&gt;hypothetical protein&lt;br&gt;Location: 224490 - 224928" locus_tag="FCOJGGDE_00835" class="clusterblast-orf" id="dummy-1_q30_0_all"  />
<polygon points="475,40 481,40 486,35 481,30 475,30 475,40 " style="fill:white; stroke-width:1; stroke:black; " description="&lt;b&gt;FCOJGGDE_00836&lt;/b&gt;&lt;br&gt;hypothetical protein&lt;br&gt;Location: 225016 - 226018" locus_tag="FCOJGGDE_00836" class="clusterblast-orf" id="dummy-1_q31_0_all"  />
<polygon points="488,40 501,40 506,35 501,30 488,30 488,40 " style="fill:white; stroke-width:1; stroke:black; " description="&lt;b&gt;FCOJGGDE_00837&lt;/b&gt;&lt;br&gt;hypothetical protein&lt;br&gt;Location: 226284 - 227946" locus_tag="FCOJGGDE_00837" class="clusterblast-orf" id="dummy-1_q32_0_all"  />
<polygon points="510,35 515,30 522,30 522,40 515,40 510,35 " style="fill:white; stroke-width:1; stroke:black; " description="&lt;b&gt;FCOJGGDE_00838&lt;/b&gt;&lt;br&gt;Diaminopropionate ammonia-lyase&lt;br&gt;Location: 228347 - 229538" locus_tag="FCOJGGDE_00838" class="clusterblast-orf" id="dummy-1_q33_0_all"  />
<polygon points="523,40 526,40 531,35 526,30 523,30 523,40 " style="fill:#4315d8; stroke-width:1; stroke:black; " description="&lt;b&gt;FCOJGGDE_00839&lt;/b&gt;&lt;br&gt;5-oxoprolinase subunit B&lt;br&gt;Location: 229650 - 230397" locus_tag="FCOJGGDE_00839" class="clusterblast-orf" id="dummy-1_q34_0_all"  />
<polygon points="531,40 537,40 542,35 537,30 531,30 531,40 " style="fill:white; stroke-width:1; stroke:black; " description="&lt;b&gt;FCOJGGDE_00840&lt;/b&gt;&lt;br&gt;5-oxoprolinase subunit C&lt;br&gt;Location: 230393 - 231404" locus_tag="FCOJGGDE_00840" class="clusterblast-orf" id="dummy-1_q35_0_all"  />
<polygon points="542,40 545,40 550,35 545,30 542,30 542,40 " style="fill:#d8155a; stroke-width:1; stroke:black; " description="&lt;b&gt;FCOJGGDE_00841&lt;/b&gt;&lt;br&gt;5-oxoprolinase subunit A&lt;br&gt;Location: 231400 - 232171" locus_tag="FCOJGGDE_00841" class="clusterblast-orf" id="dummy-1_q36_0_all"  />
<polygon points="556,35 561,30 564,30 564,40 561,40 556,35 " style="fill:white; stroke-width:1; stroke:black; " description="&lt;b&gt;FCOJGGDE_00842&lt;/b&gt;&lt;br&gt;HTH-type transcriptional repressor GlaR&lt;br&gt;Location: 232788 - 233496" locus_tag="FCOJGGDE_00842" class="clusterblast-orf" id="dummy-1_q37_0_all"  />
<polygon points="565,35 570,30 572,30 572,40 570,40 565,35 " style="fill:white; stroke-width:1; stroke:black; " description="&lt;b&gt;FCOJGGDE_00843&lt;/b&gt;&lt;br&gt;Beta-barrel assembly-enhancing protease&lt;br&gt;Location: 233611 - 234295" locus_tag="FCOJGGDE_00843" class="clusterblast-orf" id="dummy-1_q38_0_all"  />
<polygon points="572,35 577,30 579,30 579,40 577,40 572,35 " style="fill:white; stroke-width:1; stroke:black; " description="&lt;b&gt;FCOJGGDE_00844&lt;/b&gt;&lt;br&gt;hypothetical protein&lt;br&gt;Location: 234349 - 234946" locus_tag="FCOJGGDE_00844" class="clusterblast-orf" id="dummy-1_q39_0_all"  />
<polygon points="579,35 582,30 582,40 579,35 " style="fill:white; stroke-width:1; stroke:black; " description="&lt;b&gt;FCOJGGDE_00845&lt;/b&gt;&lt;br&gt;hypothetical protein&lt;br&gt;Location: 234942 - 235260" locus_tag="FCOJGGDE_00845" class="clusterblast-orf" id="dummy-1_q40_0_all"  />
<polygon points="582,35 587,30 594,30 594,40 587,40 582,35 " style="fill:#88d815; stroke-width:1; stroke:black; " description="&lt;b&gt;FCOJGGDE_00846&lt;/b&gt;&lt;br&gt;hypothetical protein&lt;br&gt;Location: 235256 - 236441" locus_tag="FCOJGGDE_00846" class="clusterblast-orf" id="dummy-1_q41_0_all"  />
<polygon points="594,35 596,30 596,40 594,35 " style="fill:white; stroke-width:1; stroke:black; " description="&lt;b&gt;FCOJGGDE_00847&lt;/b&gt;&lt;br&gt;hypothetical protein&lt;br&gt;Location: 236446 - 236611" locus_tag="FCOJGGDE_00847" class="clusterblast-orf" id="dummy-1_q42_0_all"  />
<polygon points="596,35 601,30 611,30 611,40 601,40 596,35 " style="fill:white; stroke-width:1; stroke:black; " description="&lt;b&gt;FCOJGGDE_00848&lt;/b&gt;&lt;br&gt;hypothetical protein&lt;br&gt;Location: 236649 - 238026" locus_tag="FCOJGGDE_00848" class="clusterblast-orf" id="dummy-1_q43_0_all"  />
<polygon points="611,35 615,30 615,40 611,35 " style="fill:white; stroke-width:1; stroke:black; " description="&lt;b&gt;FCOJGGDE_00849&lt;/b&gt;&lt;br&gt;hypothetical protein&lt;br&gt;Location: 238027 - 238474" locus_tag="FCOJGGDE_00849" class="clusterblast-orf" id="dummy-1_q44_0_all"  />
</g>
<g label="NZ_OCMN01000002" description="NZ_OCMN01000002 (151263-226227): Pseudomonas sp. LAIL14HWK12:I8, whole genome... (10% of genes show similarity), NRPS" class="clusterblast-cluster"  >
<text x="5" y="70" class="clusterblast-acc"  >
<a xlink:href="https://antismash-db.secondarymetabolites.org/area.html?record=NZ_OCMN01000002&amp;start=151263&amp;end=226227" target="_blank">NZ_OCMN01000002 (151263-226227)</a>: Pseudomonas sp. LAIL14HWK12:I8, whole genome... (10% of genes show similarity), NRPS</text>
<line x1="10" y1="85" x2="778.0" y2="85" style="stroke-width:1; stroke:grey; "  />
</g>
<g id="a1_000"  >
<polygon points="0,85 4,80 4,90 0,85 " style="fill:white; stroke-width:1; stroke:black; " description="&lt;b&gt;CRO55_RS04800&lt;/b&gt;&lt;br&gt;RNA methyltransferase&lt;br&gt;Location: 151264 - 151734" locus_tag="CRO55_RS04800" class="clusterblast-orf" id="dummy-1_h1_9_0"  />
</g>
<g id="a1_001"  >
<polygon points="5,85 9,80 9,90 5,85 " style="fill:white; stroke-width:1; stroke:black; " description="&lt;b&gt;CRO55_RS04805&lt;/b&gt;&lt;br&gt;HNH nuclease family protein&lt;br&gt;Location: 151806 - 152177" locus_tag="CRO55_RS04805" class="clusterblast-orf" id="dummy-1_h1_9_1"  />
</g>
<g id="a1_002"  >
<polygon points="10,90 13,85 10,80 10,90 " style="fill:white; stroke-width:1; stroke:black; " description="&lt;b&gt;CRO55_RS04810&lt;/b&gt;&lt;br&gt;hypothetical protein&lt;br&gt;Location: 152310 - 152588" locus_tag="CRO55_RS04810" class="clusterblast-orf" id="dummy-1_h1_9_2"  />
</g>
<g id="a1_003"  >
<polygon points="15,85 20,80 36,80 36,90 20,90 15,85 " style="fill:white; stroke-width:1; stroke:black; " description="&lt;b&gt;CRO55_RS04815&lt;/b&gt;&lt;br&gt;S9 family peptidase&lt;br&gt;Location: 152733 - 154775" locus_tag="CRO55_RS04815" class="clusterblast-orf" id="dummy-1_h1_9_3"  />
</g>
<g id="a1_004"  >
<polygon points="37,90 38,90 43,85 38,80 37,80 37,90 " style="fill:white; stroke-width:1; stroke:black; " description="&lt;b&gt;CRO55_RS04820&lt;/b&gt;&lt;br&gt;hypothetical protein&lt;br&gt;Location: 154908 - 155405" locus_tag="CRO55_RS04820" class="clusterblast-orf" id="dummy-1_h1_9_4"  />
</g>
<g id="a1_005"  >
<polygon points="43,90 46,90 51,85 46,80 43,80 43,90 " style="fill:white; stroke-width:1; stroke:black; " description="&lt;b&gt;CRO55_RS04825&lt;/b&gt;&lt;br&gt;class II glutamine amidotransferase&lt;br&gt;Location: 155420 - 156193" locus_tag="CRO55_RS04825" class="clusterblast-orf" id="dummy-1_h1_9_5"  />
</g>
<g id="a1_006"  >
<polygon points="51,90 51,90 56,85 51,80 51,80 51,90 " style="fill:white; stroke-width:1; stroke:black; " description="&lt;b&gt;CRO55_RS04830&lt;/b&gt;&lt;br&gt;DUF2937 family protein&lt;br&gt;Location: 156203 - 156724" locus_tag="CRO55_RS04830" class="clusterblast-orf" id="dummy-1_h1_9_6"  />
</g>
<g id="a1_007"  >
<polygon points="58,85 63,80 67,80 67,90 63,90 58,85 " style="fill:white; stroke-width:1; stroke:black; " description="&lt;b&gt;CRO55_RS04835&lt;/b&gt;&lt;br&gt;LysR family transcriptional regulator&lt;br&gt;Location: 156860 - 157771" locus_tag="CRO55_RS04835" class="clusterblast-orf" id="dummy-1_h1_9_7"  />
</g>
<g id="a1_008"  >
<polygon points="69,90 77,90 82,85 77,80 69,80 69,90 " style="fill:white; stroke-width:1; stroke:black; " description="&lt;b&gt;CRO55_RS04840&lt;/b&gt;&lt;br&gt;MFS transporter&lt;br&gt;Location: 157903 - 159189" locus_tag="CRO55_RS04840" class="clusterblast-orf" id="dummy-1_h1_9_8"  />
</g>
<g id="a1_009"  >
<polygon points="82,90 85,90 90,85 85,80 82,80 82,90 " style="fill:#d8155a; stroke-width:1; stroke:black; " description="&lt;b&gt;CRO55_RS04845&lt;/b&gt;&lt;br&gt;LamB/YcsF family protein&lt;br&gt;Location: 159199 - 159978&lt;br&gt;&lt;br&gt;&lt;b&gt;BlastP hit with FCOJGGDE_00841&lt;/b&gt;&lt;br&gt;Percentage identity: 43&lt;br&gt;Percentage coverage: 95&lt;br&gt;BLAST bit score: 184&lt;br&gt;E-value: 1.51e-55" locus_tag="CRO55_RS04845" class="clusterblast-orf" id="dummy-1_h1_9_9"  />
</g>
<g id="a1_0010"  >
<polygon points="90,90 92,90 97,85 92,80 90,80 90,90 " style="fill:#4315d8; stroke-width:1; stroke:black; " description="&lt;b&gt;CRO55_RS04850&lt;/b&gt;&lt;br&gt;5-oxoprolinase subunit PxpB&lt;br&gt;Location: 159975 - 160670&lt;br&gt;&lt;br&gt;&lt;b&gt;BlastP hit with FCOJGGDE_00839&lt;/b&gt;&lt;br&gt;Percentage identity: 32&lt;br&gt;Percentage coverage: 92&lt;br&gt;BLAST bit score: 91&lt;br&gt;E-value: 6.49e-20" locus_tag="CRO55_RS04850" class="clusterblast-orf" id="dummy-1_h1_9_10"  />
</g>
<g id="a1_0011"  >
<polygon points="97,90 102,90 107,85 102,80 97,80 97,90 " style="fill:white; stroke-width:1; stroke:black; " description="&lt;b&gt;CRO55_RS04855&lt;/b&gt;&lt;br&gt;biotin-dependent carboxyltransferase&lt;br&gt;Location: 160667 - 161584" locus_tag="CRO55_RS04855" class="clusterblast-orf" id="dummy-1_h1_9_11"  />
</g>
<g id="a1_0012"  >
<polygon points="108,85 113,80 120,80 120,90 113,90 108,85 " style="fill:#88d815; stroke-width:1; stroke:black; " description="&lt;b&gt;CRO55_RS04860&lt;/b&gt;&lt;br&gt;VWA domain-containing protein&lt;br&gt;Location: 161712 - 162890&lt;br&gt;&lt;br&gt;&lt;b&gt;BlastP hit with FCOJGGDE_00846&lt;/b&gt;&lt;br&gt;Percentage identity: 57&lt;br&gt;Percentage coverage: 100&lt;br&gt;BLAST bit score: 468&lt;br&gt;E-value: 2.32e-163" locus_tag="CRO55_RS04860" class="clusterblast-orf" id="dummy-1_h1_9_12"  />
</g>
<g id="a1_0013"  >
<polygon points="121,85 126,80 129,80 129,90 126,90 121,85 " style="fill:white; stroke-width:1; stroke:black; " description="&lt;b&gt;CRO55_RS04865&lt;/b&gt;&lt;br&gt;MoxR family ATPase&lt;br&gt;Location: 162901 - 163746" locus_tag="CRO55_RS04865" class="clusterblast-orf" id="dummy-1_h1_9_13"  />
</g>
<g id="a1_0014"  >
<polygon points="132,85 137,80 143,80 143,90 137,90 132,85 " style="fill:white; stroke-width:1; stroke:black; " description="&lt;b&gt;CRO55_RS04870&lt;/b&gt;&lt;br&gt;DUF748 domain-containing protein&lt;br&gt;Location: 163976 - 165049" locus_tag="CRO55_RS04870" class="clusterblast-orf" id="dummy-1_h1_9_14"  />
</g>
<g id="a1_0015"  >
<polygon points="144,90 149,90 154,85 149,80 144,80 144,90 " style="fill:white; stroke-width:1; stroke:black; " description="&lt;b&gt;CRO55_RS04875&lt;/b&gt;&lt;br&gt;cysteine synthase A&lt;br&gt;Location: 165183 - 166157" locus_tag="CRO55_RS04875" class="clusterblast-orf" id="dummy-1_h1_9_15"  />
</g>
<g id="a1_0016"  >
<polygon points="156,90 161,90 166,85 161,80 156,80 156,90 " style="fill:white; stroke-width:1; stroke:black; " description="&lt;b&gt;CRO55_RS04880&lt;/b&gt;&lt;br&gt;aspartyl/asparaginyl beta-hydroxylase domain-containing protein&lt;br&gt;Location: 166330 - 167265" locus_tag="CRO55_RS04880" class="clusterblast-orf" id="dummy-1_h1_9_16"  />
</g>
<g id="a1_0017"  >
<polygon points="168,85 173,80 185,80 185,90 173,90 168,85 " style="fill:white; stroke-width:1; stroke:black; " description="&lt;b&gt;CRO55_RS04885&lt;/b&gt;&lt;br&gt;cyclic peptide export ABC transporter&lt;br&gt;Location: 167427 - 169079" locus_tag="CRO55_RS04885" class="clusterblast-orf" id="dummy-1_h1_9_17"  />
</g>
<g id="a1_0018"  >
<polygon points="185,85 190,80 190,80 190,90 190,90 185,85 " style="fill:white; stroke-width:1; stroke:black; " description="&lt;b&gt;CRO55_RS04890&lt;/b&gt;&lt;br&gt;azurin&lt;br&gt;Location: 169126 - 169578" locus_tag="CRO55_RS04890" class="clusterblast-orf" id="dummy-1_h1_9_18"  />
</g>
<g id="a1_0019"  >
<polygon points="192,90 197,90 202,85 197,80 192,80 192,90 " style="fill:white; stroke-width:1; stroke:black; " description="&lt;b&gt;CRO55_RS04895&lt;/b&gt;&lt;br&gt;TauD/TfdA family dioxygenase&lt;br&gt;Location: 169758 - 170741" locus_tag="CRO55_RS04895" class="clusterblast-orf" id="dummy-1_h1_9_19"  />
</g>
<g id="a1_0020"  >
<polygon points="207,90 270,90 275,85 270,80 207,80 207,90 " style="fill:white; stroke-width:1; stroke:black; " description="&lt;b&gt;CRO55_RS04900&lt;/b&gt;&lt;br&gt;non-ribosomal peptide synthetase&lt;br&gt;Location: 171218 - 177697" locus_tag="CRO55_RS04900" class="clusterblast-orf" id="dummy-1_h1_9_20"  />
</g>
<g id="a1_0021"  >
<polygon points="275,90 351,90 356,85 351,80 275,80 275,90 " style="fill:#152cd8; stroke-width:1; stroke:black; " description="&lt;b&gt;CRO55_RS04905&lt;/b&gt;&lt;br&gt;non-ribosomal peptide synthetase&lt;br&gt;Location: 177699 - 185543&lt;br&gt;&lt;br&gt;&lt;b&gt;BlastP hit with FCOJGGDE_00828&lt;/b&gt;&lt;br&gt;Percentage identity: 33&lt;br&gt;Percentage coverage: 79&lt;br&gt;BLAST bit score: 385&lt;br&gt;E-value: 1.88e-108" locus_tag="CRO55_RS04905" class="clusterblast-orf" id="dummy-1_h1_9_21"  />
</g>
<g id="a1_0022"  >
<polygon points="358,90 388,90 393,85 388,80 358,80 358,90 " style="fill:white; stroke-width:1; stroke:black; " description="&lt;b&gt;CRO55_RS04910&lt;/b&gt;&lt;br&gt;non-ribosomal peptide synthetase&lt;br&gt;Location: 185689 - 189042" locus_tag="CRO55_RS04910" class="clusterblast-orf" id="dummy-1_h1_9_22"  />
</g>
<g id="a1_0023"  >
<polygon points="393,90 494,90 499,85 494,80 393,80 393,90 " style="fill:white; stroke-width:1; stroke:black; " description="&lt;b&gt;CRO55_RS28065&lt;/b&gt;&lt;br&gt;non-ribosomal peptide synthetase&lt;br&gt;Location: 189044 - 199291" locus_tag="CRO55_RS28065" class="clusterblast-orf" id="dummy-1_h1_9_23"  />
</g>
<g id="a1_0024"  >
<polygon points="517,90 570,90 575,85 570,80 517,80 517,90 " style="fill:white; stroke-width:1; stroke:black; " description="&lt;b&gt;CRO55_RS04920&lt;/b&gt;&lt;br&gt;amino acid adenylation domain-containing protein&lt;br&gt;Location: 200997 - 206603" locus_tag="CRO55_RS04920" class="clusterblast-orf" id="dummy-1_h1_9_24"  />
</g>
<g id="a1_0025"  >
<polygon points="577,85 582,80 603,80 603,90 582,90 577,85 " style="fill:white; stroke-width:1; stroke:black; " description="&lt;b&gt;CRO55_RS04925&lt;/b&gt;&lt;br&gt;TonB-dependent siderophore receptor&lt;br&gt;Location: 206797 - 209253" locus_tag="CRO55_RS04925" class="clusterblast-orf" id="dummy-1_h1_9_25"  />
</g>
<g id="a1_0026"  >
<polygon points="604,85 609,80 613,80 613,90 609,90 604,85 " style="fill:white; stroke-width:1; stroke:black; " description="&lt;b&gt;CRO55_RS04930&lt;/b&gt;&lt;br&gt;formylglycine-generating enzyme family protein&lt;br&gt;Location: 209378 - 210238" locus_tag="CRO55_RS04930" class="clusterblast-orf" id="dummy-1_h1_9_26"  />
</g>
<g id="a1_0027"  >
<polygon points="618,90 622,90 627,85 622,80 618,80 618,90 " style="fill:white; stroke-width:1; stroke:black; " description="&lt;b&gt;CRO55_RS04935&lt;/b&gt;&lt;br&gt;DMT family transporter&lt;br&gt;Location: 210682 - 211563" locus_tag="CRO55_RS04935" class="clusterblast-orf" id="dummy-1_h1_9_27"  />
</g>
<g id="a1_0028"  >
<polygon points="627,85 632,80 632,80 632,90 632,90 627,85 " style="fill:white; stroke-width:1; stroke:black; " description="&lt;b&gt;CRO55_RS04940&lt;/b&gt;&lt;br&gt;DUF4265 domain-containing protein&lt;br&gt;Location: 211574 - 212032" locus_tag="CRO55_RS04940" class="clusterblast-orf" id="dummy-1_h1_9_28"  />
</g>
<g id="a1_0029"  >
<polygon points="632,85 637,80 641,80 641,90 637,90 632,85 " style="fill:#8815d8; stroke-width:1; stroke:black; " description="&lt;b&gt;CRO55_RS04945&lt;/b&gt;&lt;br&gt;DMT family transporter&lt;br&gt;Location: 212046 - 212921&lt;br&gt;&lt;br&gt;&lt;b&gt;BlastP hit with FCOJGGDE_00816&lt;/b&gt;&lt;br&gt;Percentage identity: 34&lt;br&gt;Percentage coverage: 91&lt;br&gt;BLAST bit score: 117&lt;br&gt;E-value: 7.28e-29" locus_tag="CRO55_RS04945" class="clusterblast-orf" id="dummy-1_h1_9_29"  />
</g>
<g id="a1_0030"  >
<polygon points="642,90 655,90 660,85 655,80 642,80 642,90 " style="fill:white; stroke-width:1; stroke:black; " description="&lt;b&gt;CRO55_RS04950&lt;/b&gt;&lt;br&gt;bifunctional isocitrate dehydrogenase kinase/phosphatase&lt;br&gt;Location: 213059 - 214774" locus_tag="CRO55_RS04950" class="clusterblast-orf" id="dummy-1_h1_9_30"  />
</g>
<g id="a1_0031"  >
<polygon points="661,85 666,80 670,80 670,90 666,90 661,85 " style="fill:white; stroke-width:1; stroke:black; " description="&lt;b&gt;CRO55_RS04955&lt;/b&gt;&lt;br&gt;hypothetical protein&lt;br&gt;Location: 214829 - 215689" locus_tag="CRO55_RS04955" class="clusterblast-orf" id="dummy-1_h1_9_31"  />
</g>
<g id="a1_0032"  >
<polygon points="671,90 675,90 680,85 675,80 671,80 671,90 " style="fill:white; stroke-width:1; stroke:black; " description="&lt;b&gt;CRO55_RS04960&lt;/b&gt;&lt;br&gt;GntR family transcriptional regulator&lt;br&gt;Location: 215821 - 216657" locus_tag="CRO55_RS04960" class="clusterblast-orf" id="dummy-1_h1_9_32"  />
</g>
<g id="a1_0033"  >
<polygon points="680,85 684,80 684,90 680,85 " style="fill:white; stroke-width:1; stroke:black; " description="&lt;b&gt;CRO55_RS04965&lt;/b&gt;&lt;br&gt;hypothetical protein&lt;br&gt;Location: 216658 - 217038" locus_tag="CRO55_RS04965" class="clusterblast-orf" id="dummy-1_h1_9_33"  />
</g>
<g id="a1_0034"  >
<polygon points="685,85 690,80 701,80 701,90 690,90 685,85 " style="fill:white; stroke-width:1; stroke:black; " description="&lt;b&gt;CRO55_RS04970&lt;/b&gt;&lt;br&gt;right-handed parallel beta-helix repeat-containing protein&lt;br&gt;Location: 217174 - 218646" locus_tag="CRO55_RS04970" class="clusterblast-orf" id="dummy-1_h1_9_34"  />
</g>
<g id="a1_0035"  >
<polygon points="703,90 705,85 703,80 703,90 " style="fill:white; stroke-width:1; stroke:black; " description="&lt;b&gt;CRO55_RS04975&lt;/b&gt;&lt;br&gt;CsbD family protein&lt;br&gt;Location: 218876 - 219055" locus_tag="CRO55_RS04975" class="clusterblast-orf" id="dummy-1_h1_9_35"  />
</g>
<g id="a1_0036"  >
<polygon points="707,90 712,90 717,85 712,80 707,80 707,90 " style="fill:white; stroke-width:1; stroke:black; " description="&lt;b&gt;CRO55_RS04980&lt;/b&gt;&lt;br&gt;YihY/virulence factor BrkB family protein&lt;br&gt;Location: 219301 - 220254" locus_tag="CRO55_RS04980" class="clusterblast-orf" id="dummy-1_h1_9_36"  />
</g>
<g id="a1_0037"  >
<polygon points="717,90 718,90 723,85 718,80 717,80 717,90 " style="fill:white; stroke-width:1; stroke:black; " description="&lt;b&gt;CRO55_RS04985&lt;/b&gt;&lt;br&gt;peptide deformylase&lt;br&gt;Location: 220251 - 220787" locus_tag="CRO55_RS04985" class="clusterblast-orf" id="dummy-1_h1_9_37"  />
</g>
<g id="a1_0038"  >
<polygon points="722,85 726,80 726,90 722,85 " style="fill:white; stroke-width:1; stroke:black; " description="&lt;b&gt;CRO55_RS04990&lt;/b&gt;&lt;br&gt;GNAT family N-acetyltransferase&lt;br&gt;Location: 220742 - 221110" locus_tag="CRO55_RS04990" class="clusterblast-orf" id="dummy-1_h1_9_38"  />
</g>
<g id="a1_0039"  >
<polygon points="730,90 733,85 730,80 730,90 " style="fill:white; stroke-width:1; stroke:black; " description="&lt;b&gt;CRO55_RS04995&lt;/b&gt;&lt;br&gt;DUF2790 domain-containing protein&lt;br&gt;Location: 221487 - 221744" locus_tag="CRO55_RS04995" class="clusterblast-orf" id="dummy-1_h1_9_39"  />
</g>
<g id="a1_0040"  >
<polygon points="734,85 739,80 748,80 748,90 739,90 734,85 " style="fill:white; stroke-width:1; stroke:black; " description="&lt;b&gt;CRO55_RS05000&lt;/b&gt;&lt;br&gt;PLP-dependent aminotransferase family protein&lt;br&gt;Location: 221811 - 223172" locus_tag="CRO55_RS05000" class="clusterblast-orf" id="dummy-1_h1_9_40"  />
</g>
<g id="a1_0041"  >
<polygon points="749,90 754,90 759,85 754,80 749,80 749,90 " style="fill:white; stroke-width:1; stroke:black; " description="&lt;b&gt;CRO55_RS05005&lt;/b&gt;&lt;br&gt;threonine dehydratase&lt;br&gt;Location: 223249 - 224214" locus_tag="CRO55_RS05005" class="clusterblast-orf" id="dummy-1_h1_9_41"  />
</g>
<g id="a1_0042"  >
<polygon points="759,90 762,85 759,80 759,90 " style="fill:white; stroke-width:1; stroke:black; " description="&lt;b&gt;CRO55_RS05010&lt;/b&gt;&lt;br&gt;type II toxin-antitoxin system HicA family toxin&lt;br&gt;Location: 224262 - 224516" locus_tag="CRO55_RS05010" class="clusterblast-orf" id="dummy-1_h1_9_42"  />
</g>
<g id="a1_0043"  >
<polygon points="762,90 765,85 762,80 762,90 " style="fill:white; stroke-width:1; stroke:black; " description="&lt;b&gt;CRO55_RS05015&lt;/b&gt;&lt;br&gt;type II toxin-antitoxin system HicB family antitoxin&lt;br&gt;Location: 224513 - 224845" locus_tag="CRO55_RS05015" class="clusterblast-orf" id="dummy-1_h1_9_43"  />
</g>
<g id="a1_0044"  >
<polygon points="766,90 768,90 773,85 768,80 766,80 766,90 " style="fill:white; stroke-width:1; stroke:black; " description="&lt;b&gt;CRO55_RS05020&lt;/b&gt;&lt;br&gt;LysE family translocator&lt;br&gt;Location: 224925 - 225569" locus_tag="CRO55_RS05020" class="clusterblast-orf" id="dummy-1_h1_9_44"  />
</g>
<g id="a1_0045"  >
<polygon points="775,90 775,90 780,85 775,80 775,80 775,90 " style="fill:white; stroke-width:1; stroke:black; " description="&lt;b&gt;CRO55_RS05025&lt;/b&gt;&lt;br&gt;nuclear transport factor 2 family protein&lt;br&gt;Location: 225802 - 226227" locus_tag="CRO55_RS05025" class="clusterblast-orf" id="dummy-1_h1_9_45"  />
</g>
</svg>
