<svg xmlns="http://www.w3.org/2000/svg" xmlns:xlink="http://www.w3.org/1999/xlink" version="1.1" x="0" y="0" height="50" width="800" viewBox="0 0 800 50" preserveAspectRatio="none"  >
<g label="Query sequence" class="clusterblast-cluster"  >
<text x="5" y="20" class="clusterblast-acc"  >
Query sequence</text>
<line x1="10" y1="35" x2="778.0" y2="35" style="stroke-width:1; stroke:grey; "  />
<polygon points="0,40 6,40 11,35 6,30 0,30 0,40 " style="fill:white; stroke-width:1; stroke:black; " description="&lt;b&gt;FCOJGGDE_00129&lt;/b&gt;&lt;br&gt;hypothetical protein&lt;br&gt;Location: 125050 - 125803" locus_tag="FCOJGGDE_00129" class="clusterblast-orf" id="subclusterblast-1_q0_0_all"  />
<polygon points="11,40 26,40 31,35 26,30 11,30 11,40 " style="fill:white; stroke-width:1; stroke:black; " description="&lt;b&gt;FCOJGGDE_00130&lt;/b&gt;&lt;br&gt;hypothetical protein&lt;br&gt;Location: 125799 - 127023" locus_tag="FCOJGGDE_00130" class="clusterblast-orf" id="subclusterblast-1_q1_0_all"  />
<polygon points="31,40 34,40 39,35 34,30 31,30 31,40 " style="fill:white; stroke-width:1; stroke:black; " description="&lt;b&gt;FCOJGGDE_00131&lt;/b&gt;&lt;br&gt;hypothetical protein&lt;br&gt;Location: 127026 - 127596" locus_tag="FCOJGGDE_00131" class="clusterblast-orf" id="subclusterblast-1_q2_0_all"  />
<polygon points="39,40 46,40 51,35 46,30 39,30 39,40 " style="fill:white; stroke-width:1; stroke:black; " description="&lt;b&gt;FCOJGGDE_00132&lt;/b&gt;&lt;br&gt;putative oxidoreductase&lt;br&gt;Location: 127592 - 128330" locus_tag="FCOJGGDE_00132" class="clusterblast-orf" id="subclusterblast-1_q3_0_all"  />
<polygon points="51,35 56,30 68,30 68,40 56,40 51,35 " style="fill:white; stroke-width:1; stroke:black; " description="&lt;b&gt;FCOJGGDE_00133&lt;/b&gt;&lt;br&gt;hypothetical protein&lt;br&gt;Location: 128333 - 129389" locus_tag="FCOJGGDE_00133" class="clusterblast-orf" id="subclusterblast-1_q4_0_all"  />
<polygon points="68,35 72,30 72,40 68,35 " style="fill:white; stroke-width:1; stroke:black; " description="&lt;b&gt;FCOJGGDE_00134&lt;/b&gt;&lt;br&gt;hypothetical protein&lt;br&gt;Location: 129401 - 129647" locus_tag="FCOJGGDE_00134" class="clusterblast-orf" id="subclusterblast-1_q5_0_all"  />
<polygon points="73,40 83,40 88,35 83,30 73,30 73,40 " style="fill:white; stroke-width:1; stroke:black; " description="&lt;b&gt;FCOJGGDE_00135&lt;/b&gt;&lt;br&gt;hypothetical protein&lt;br&gt;Location: 129734 - 130694" locus_tag="FCOJGGDE_00135" class="clusterblast-orf" id="subclusterblast-1_q6_0_all"  />
<polygon points="89,40 124,40 129,35 124,30 89,30 89,40 " style="fill:white; stroke-width:1; stroke:black; " description="&lt;b&gt;FCOJGGDE_00136&lt;/b&gt;&lt;br&gt;hypothetical protein&lt;br&gt;Location: 130737 - 133350" locus_tag="FCOJGGDE_00136" class="clusterblast-orf" id="subclusterblast-1_q7_0_all"  />
<polygon points="129,40 137,40 142,35 137,30 129,30 129,40 " style="fill:white; stroke-width:1; stroke:black; " description="&lt;b&gt;FCOJGGDE_00137&lt;/b&gt;&lt;br&gt;hypothetical protein&lt;br&gt;Location: 133334 - 134168" locus_tag="FCOJGGDE_00137" class="clusterblast-orf" id="subclusterblast-1_q8_0_all"  />
<polygon points="142,35 147,30 162,30 162,40 147,40 142,35 " style="fill:white; stroke-width:1; stroke:black; " description="&lt;b&gt;FCOJGGDE_00138&lt;/b&gt;&lt;br&gt;D-inositol-3-phosphate glycosyltransferase&lt;br&gt;Location: 134164 - 135445" locus_tag="FCOJGGDE_00138" class="clusterblast-orf" id="subclusterblast-1_q9_0_all"  />
<polygon points="166,40 169,35 166,30 166,40 " style="fill:white; stroke-width:1; stroke:black; " description="&lt;b&gt;FCOJGGDE_00139&lt;/b&gt;&lt;br&gt;hypothetical protein&lt;br&gt;Location: 135681 - 135897" locus_tag="FCOJGGDE_00139" class="clusterblast-orf" id="subclusterblast-1_q10_0_all"  />
<polygon points="177,40 183,40 188,35 183,30 177,30 177,40 " style="fill:white; stroke-width:1; stroke:black; " description="&lt;b&gt;FCOJGGDE_00140&lt;/b&gt;&lt;br&gt;Undecaprenyl phosphate N,N'-diacetylbacillosamine 1-phosphate transferase&lt;br&gt;Location: 136377 - 137094" locus_tag="FCOJGGDE_00140" class="clusterblast-orf" id="subclusterblast-1_q11_0_all"  />
<polygon points="192,35 197,30 213,30 213,40 197,40 192,35 " style="fill:white; stroke-width:1; stroke:black; " description="&lt;b&gt;FCOJGGDE_00141&lt;/b&gt;&lt;br&gt;hypothetical protein&lt;br&gt;Location: 137320 - 138721" locus_tag="FCOJGGDE_00141" class="clusterblast-orf" id="subclusterblast-1_q12_0_all"  />
<polygon points="214,35 219,30 228,30 228,40 219,40 214,35 " style="fill:white; stroke-width:1; stroke:black; " description="&lt;b&gt;FCOJGGDE_00142&lt;/b&gt;&lt;br&gt;hypothetical protein&lt;br&gt;Location: 138733 - 139678" locus_tag="FCOJGGDE_00142" class="clusterblast-orf" id="subclusterblast-1_q13_0_all"  />
<polygon points="233,40 243,40 248,35 243,30 233,30 233,40 " style="fill:white; stroke-width:1; stroke:black; " description="&lt;b&gt;FCOJGGDE_00143&lt;/b&gt;&lt;br&gt;hypothetical protein&lt;br&gt;Location: 139976 - 140948" locus_tag="FCOJGGDE_00143" class="clusterblast-orf" id="subclusterblast-1_q14_0_all"  />
<polygon points="248,35 253,30 260,30 260,40 253,40 248,35 " style="fill:white; stroke-width:1; stroke:black; " description="&lt;b&gt;FCOJGGDE_00144&lt;/b&gt;&lt;br&gt;N-acetylglucosaminyldiphosphoundecaprenol N-acetyl-beta-D-mannosaminyltransferase&lt;br&gt;Location: 140950 - 141700" locus_tag="FCOJGGDE_00144" class="clusterblast-orf" id="subclusterblast-1_q15_0_all"  />
<polygon points="265,40 282,40 287,35 282,30 265,30 265,40 " style="fill:white; stroke-width:1; stroke:black; " description="&lt;b&gt;FCOJGGDE_00145&lt;/b&gt;&lt;br&gt;hypothetical protein&lt;br&gt;Location: 142045 - 143458" locus_tag="FCOJGGDE_00145" class="clusterblast-orf" id="subclusterblast-1_q16_0_all"  />
<polygon points="293,40 387,40 392,35 387,30 293,30 293,40 " style="fill:white; stroke-width:1; stroke:black; " description="&lt;b&gt;FCOJGGDE_00146&lt;/b&gt;&lt;br&gt;hypothetical protein&lt;br&gt;Location: 143786 - 150152" locus_tag="FCOJGGDE_00146" class="clusterblast-orf" id="subclusterblast-1_q17_0_all"  />
<polygon points="392,40 403,40 408,35 403,30 392,30 392,40 " style="fill:white; stroke-width:1; stroke:black; " description="&lt;b&gt;FCOJGGDE_00147&lt;/b&gt;&lt;br&gt;hypothetical protein&lt;br&gt;Location: 150155 - 151157" locus_tag="FCOJGGDE_00147" class="clusterblast-orf" id="subclusterblast-1_q18_0_all"  />
<polygon points="408,40 474,40 479,35 474,30 408,30 408,40 " style="fill:white; stroke-width:1; stroke:black; " description="&lt;b&gt;FCOJGGDE_00148&lt;/b&gt;&lt;br&gt;D-alanine--D-alanyl carrier protein ligase&lt;br&gt;Location: 151187 - 155729" locus_tag="FCOJGGDE_00148" class="clusterblast-orf" id="subclusterblast-1_q19_0_all"  />
<polygon points="479,40 485,40 490,35 485,30 479,30 479,40 " style="fill:white; stroke-width:1; stroke:black; " description="&lt;b&gt;FCOJGGDE_00149&lt;/b&gt;&lt;br&gt;hypothetical protein&lt;br&gt;Location: 155728 - 156385" locus_tag="FCOJGGDE_00149" class="clusterblast-orf" id="subclusterblast-1_q20_0_all"  />
<polygon points="491,35 496,30 503,30 503,40 496,40 491,35 " style="fill:white; stroke-width:1; stroke:black; " description="&lt;b&gt;FCOJGGDE_00150&lt;/b&gt;&lt;br&gt;Transcriptional regulatory protein OmpR&lt;br&gt;Location: 156500 - 157211" locus_tag="FCOJGGDE_00150" class="clusterblast-orf" id="subclusterblast-1_q21_0_all"  />
<polygon points="502,35 507,30 533,30 533,40 507,40 502,35 " style="fill:white; stroke-width:1; stroke:black; " description="&lt;b&gt;FCOJGGDE_00151&lt;/b&gt;&lt;br&gt;Sensor histidine kinase RcsC&lt;br&gt;Location: 157207 - 159133" locus_tag="FCOJGGDE_00151" class="clusterblast-orf" id="subclusterblast-1_q22_0_all"  />
<polygon points="535,40 562,40 567,35 562,30 535,30 535,40 " style="fill:white; stroke-width:1; stroke:black; " description="&lt;b&gt;FCOJGGDE_00152&lt;/b&gt;&lt;br&gt;Long-chain-fatty-acid--CoA ligase FadD15&lt;br&gt;Location: 159310 - 161302" locus_tag="FCOJGGDE_00152" class="clusterblast-orf" id="subclusterblast-1_q23_0_all"  />
<polygon points="566,40 574,40 579,35 574,30 566,30 566,40 " style="fill:white; stroke-width:1; stroke:black; " description="&lt;b&gt;FCOJGGDE_00153&lt;/b&gt;&lt;br&gt;Sulfate/thiosulfate import ATP-binding protein CysA&lt;br&gt;Location: 161298 - 162123" locus_tag="FCOJGGDE_00153" class="clusterblast-orf" id="subclusterblast-1_q24_0_all"  />
<polygon points="580,40 590,40 595,35 590,30 580,30 580,40 " style="fill:white; stroke-width:1; stroke:black; " description="&lt;b&gt;FCOJGGDE_00154&lt;/b&gt;&lt;br&gt;High-affinity branched-chain amino acid transport system permease protein LivH&lt;br&gt;Location: 162144 - 163131" locus_tag="FCOJGGDE_00154" class="clusterblast-orf" id="subclusterblast-1_q25_0_all"  />
<polygon points="597,40 609,40 614,35 609,30 597,30 597,40 " style="fill:white; stroke-width:1; stroke:black; " description="&lt;b&gt;FCOJGGDE_00155&lt;/b&gt;&lt;br&gt;hypothetical protein&lt;br&gt;Location: 163234 - 164311" locus_tag="FCOJGGDE_00155" class="clusterblast-orf" id="subclusterblast-1_q26_0_all"  />
<polygon points="615,40 630,40 635,35 630,30 615,30 615,40 " style="fill:white; stroke-width:1; stroke:black; " description="&lt;b&gt;FCOJGGDE_00156&lt;/b&gt;&lt;br&gt;hypothetical protein&lt;br&gt;Location: 164381 - 165665" locus_tag="FCOJGGDE_00156" class="clusterblast-orf" id="subclusterblast-1_q27_0_all"  />
<polygon points="636,40 644,40 649,35 644,30 636,30 636,40 " style="fill:white; stroke-width:1; stroke:black; " description="&lt;b&gt;FCOJGGDE_00157&lt;/b&gt;&lt;br&gt;High-affinity branched-chain amino acid transport ATP-binding protein LivF&lt;br&gt;Location: 165725 - 166571" locus_tag="FCOJGGDE_00157" class="clusterblast-orf" id="subclusterblast-1_q28_0_all"  />
<polygon points="649,40 663,40 668,35 663,30 649,30 649,40 " style="fill:white; stroke-width:1; stroke:black; " description="&lt;b&gt;FCOJGGDE_00158&lt;/b&gt;&lt;br&gt;hypothetical protein&lt;br&gt;Location: 166582 - 167779" locus_tag="FCOJGGDE_00158" class="clusterblast-orf" id="subclusterblast-1_q29_0_all"  />
<polygon points="669,40 677,40 682,35 677,30 669,30 669,40 " style="fill:white; stroke-width:1; stroke:black; " description="&lt;b&gt;FCOJGGDE_00159&lt;/b&gt;&lt;br&gt;putative protease SohB&lt;br&gt;Location: 167888 - 168713" locus_tag="FCOJGGDE_00159" class="clusterblast-orf" id="subclusterblast-1_q30_0_all"  />
<polygon points="686,40 696,40 701,35 696,30 686,30 686,40 " style="fill:white; stroke-width:1; stroke:black; " description="&lt;b&gt;FCOJGGDE_00160&lt;/b&gt;&lt;br&gt;Inner membrane protein YrbG&lt;br&gt;Location: 168924 - 169875" locus_tag="FCOJGGDE_00160" class="clusterblast-orf" id="subclusterblast-1_q31_0_all"  />
<polygon points="701,40 708,40 713,35 708,30 701,30 701,40 " style="fill:white; stroke-width:1; stroke:black; " description="&lt;b&gt;FCOJGGDE_00161&lt;/b&gt;&lt;br&gt;3-oxoacyl-[acyl-carrier-protein] reductase FabG&lt;br&gt;Location: 169878 - 170658" locus_tag="FCOJGGDE_00161" class="clusterblast-orf" id="subclusterblast-1_q32_0_all"  />
<polygon points="717,40 742,40 747,35 742,30 717,30 717,40 " style="fill:white; stroke-width:1; stroke:black; " description="&lt;b&gt;FCOJGGDE_00162&lt;/b&gt;&lt;br&gt;UvrABC system protein C&lt;br&gt;Location: 170944 - 172834" locus_tag="FCOJGGDE_00162" class="clusterblast-orf" id="subclusterblast-1_q33_0_all"  />
<polygon points="753,35 758,30 768,30 768,40 758,40 753,35 " style="fill:white; stroke-width:1; stroke:black; " description="&lt;b&gt;FCOJGGDE_00163&lt;/b&gt;&lt;br&gt;hypothetical protein&lt;br&gt;Location: 173226 - 174216" locus_tag="FCOJGGDE_00163" class="clusterblast-orf" id="subclusterblast-1_q34_0_all"  />
<polygon points="770,40 775,40 780,35 775,30 770,30 770,40 " style="fill:white; stroke-width:1; stroke:black; " description="&lt;b&gt;FCOJGGDE_00164&lt;/b&gt;&lt;br&gt;hypothetical protein&lt;br&gt;Location: 174346 - 174934" locus_tag="FCOJGGDE_00164" class="clusterblast-orf" id="subclusterblast-1_q35_0_all"  />
</g>
</svg>
