<svg xmlns="http://www.w3.org/2000/svg" xmlns:xlink="http://www.w3.org/1999/xlink" version="1.1" x="0" y="0" height="230" width="800" viewBox="0 0 800 230" preserveAspectRatio="none"  >
<g label="Query sequence" class="clusterblast-cluster"  >
<text x="5" y="20" class="clusterblast-acc"  >
Query sequence</text>
<line x1="10" y1="35" x2="778.0" y2="35" style="stroke-width:1; stroke:grey; "  />
<polygon points="0,40 26,40 31,35 26,30 0,30 0,40 " style="fill:#d81515; stroke-width:1; stroke:black; " description="&lt;b&gt;BEKADICB_01901&lt;/b&gt;&lt;br&gt;hypothetical protein&lt;br&gt;Location: 235834 - 236632" locus_tag="BEKADICB_01901" class="clusterblast-orf" id="dummy-1_q0_0_all"  />
<polygon points="33,40 84,40 89,35 84,30 33,30 33,40 " style="fill:#67d815; stroke-width:1; stroke:black; " description="&lt;b&gt;BEKADICB_01902&lt;/b&gt;&lt;br&gt;hypothetical protein&lt;br&gt;Location: 236687 - 238124" locus_tag="BEKADICB_01902" class="clusterblast-orf" id="dummy-1_q1_0_all"  />
<polygon points="93,40 154,40 159,35 154,30 93,30 93,40 " style="fill:#15b9d8; stroke-width:1; stroke:black; " description="&lt;b&gt;BEKADICB_01903&lt;/b&gt;&lt;br&gt;Anaerobic magnesium-protoporphyrin IX monomethyl ester cyclase&lt;br&gt;Location: 238221 - 239922" locus_tag="BEKADICB_01903" class="clusterblast-orf" id="dummy-1_q2_0_all"  />
<polygon points="160,40 179,40 184,35 179,30 160,30 160,40 " style="fill:#a515d8; stroke-width:1; stroke:black; " description="&lt;b&gt;BEKADICB_01904&lt;/b&gt;&lt;br&gt;hypothetical protein&lt;br&gt;Location: 239928 - 240549" locus_tag="BEKADICB_01904" class="clusterblast-orf" id="dummy-1_q3_0_all"  />
<polygon points="183,35 188,30 193,30 193,40 188,40 183,35 " style="fill:#d85315; stroke-width:1; stroke:black; " description="&lt;b&gt;BEKADICB_01905&lt;/b&gt;&lt;br&gt;hypothetical protein&lt;br&gt;Location: 240526 - 240778" locus_tag="BEKADICB_01905" class="clusterblast-orf" id="dummy-1_q4_0_all"  />
<polygon points="198,40 229,40 234,35 229,30 198,30 198,40 " style="fill:#2ad815; stroke-width:1; stroke:black; " description="&lt;b&gt;BEKADICB_01906&lt;/b&gt;&lt;br&gt;1,4-dihydroxy-2-naphthoate octaprenyltransferase&lt;br&gt;Location: 240922 - 241831" locus_tag="BEKADICB_01906" class="clusterblast-orf" id="dummy-1_q5_0_all"  />
<polygon points="234,40 278,40 283,35 278,30 234,30 234,40 " style="fill:#157cd8; stroke-width:1; stroke:black; " description="&lt;b&gt;BEKADICB_01907&lt;/b&gt;&lt;br&gt;Protein PucC&lt;br&gt;Location: 241827 - 243099" locus_tag="BEKADICB_01907" class="clusterblast-orf" id="dummy-1_q6_0_all"  />
<polygon points="283,40 325,40 330,35 325,30 283,30 283,40 " style="fill:#d815ce; stroke-width:1; stroke:black; " description="&lt;b&gt;BEKADICB_01908&lt;/b&gt;&lt;br&gt;hypothetical protein&lt;br&gt;Location: 243102 - 244284" locus_tag="BEKADICB_01908" class="clusterblast-orf" id="dummy-1_q7_0_all"  />
<polygon points="329,40 346,40 351,35 346,30 329,30 329,40 " style="fill:#d89015; stroke-width:1; stroke:black; " description="&lt;b&gt;BEKADICB_01909&lt;/b&gt;&lt;br&gt;Isopentenyl-diphosphate Delta-isomerase&lt;br&gt;Location: 244280 - 244835" locus_tag="BEKADICB_01909" class="clusterblast-orf" id="dummy-1_q8_0_all"  />
<polygon points="352,35 357,30 369,30 369,40 357,40 352,35 " style="fill:#15d83e; stroke-width:1; stroke:black; " description="&lt;b&gt;BEKADICB_01910&lt;/b&gt;&lt;br&gt;Tryptophan-rich sensory protein&lt;br&gt;Location: 244847 - 245306" locus_tag="BEKADICB_01910" class="clusterblast-orf" id="dummy-1_q9_0_all"  />
<polygon points="375,35 380,30 415,30 415,40 380,40 375,35 " style="fill:#153ed8; stroke-width:1; stroke:black; " description="&lt;b&gt;BEKADICB_01911&lt;/b&gt;&lt;br&gt;hypothetical protein&lt;br&gt;Location: 245439 - 246477" locus_tag="BEKADICB_01911" class="clusterblast-orf" id="dummy-1_q10_0_all"  />
<polygon points="415,35 420,30 475,30 475,40 420,40 415,35 " style="fill:#d81590; stroke-width:1; stroke:black; " description="&lt;b&gt;BEKADICB_01912&lt;/b&gt;&lt;br&gt;Phytoene desaturase (neurosporene-forming)&lt;br&gt;Location: 246473 - 248009" locus_tag="BEKADICB_01912" class="clusterblast-orf" id="dummy-1_q11_0_all"  />
<polygon points="480,40 503,40 508,35 503,30 480,30 480,40 " style="fill:#d8ce15; stroke-width:1; stroke:black; " description="&lt;b&gt;BEKADICB_01913&lt;/b&gt;&lt;br&gt;Spheroidene monooxygenase&lt;br&gt;Location: 248144 - 248852" locus_tag="BEKADICB_01913" class="clusterblast-orf" id="dummy-1_q12_0_all"  />
<polygon points="508,40 542,40 547,35 542,30 508,30 508,40 " style="fill:#15d87c; stroke-width:1; stroke:black; " description="&lt;b&gt;BEKADICB_01914&lt;/b&gt;&lt;br&gt;Magnesium-chelatase 38 kDa subunit&lt;br&gt;Location: 248848 - 249850" locus_tag="BEKADICB_01914" class="clusterblast-orf" id="dummy-1_q13_0_all"  />
<polygon points="548,40 609,40 614,35 609,30 548,30 548,40 " style="fill:#2a15d8; stroke-width:1; stroke:black; " description="&lt;b&gt;BEKADICB_01915&lt;/b&gt;&lt;br&gt;Magnesium-chelatase 60 kDa subunit&lt;br&gt;Location: 249888 - 251571" locus_tag="BEKADICB_01915" class="clusterblast-orf" id="dummy-1_q14_0_all"  />
<polygon points="614,40 643,40 648,35 643,30 614,30 614,40 " style="fill:#d81553; stroke-width:1; stroke:black; " description="&lt;b&gt;BEKADICB_01916&lt;/b&gt;&lt;br&gt;2-succinyl-6-hydroxy-2, 4-cyclohexadiene-1-carboxylate synthase&lt;br&gt;Location: 251573 - 252458" locus_tag="BEKADICB_01916" class="clusterblast-orf" id="dummy-1_q15_0_all"  />
<polygon points="648,35 653,30 677,30 677,40 653,40 648,35 " style="fill:#a5d815; stroke-width:1; stroke:black; " description="&lt;b&gt;BEKADICB_01917&lt;/b&gt;&lt;br&gt;Acyclic carotenoid 1,2-hydratase&lt;br&gt;Location: 252458 - 253178" locus_tag="BEKADICB_01917" class="clusterblast-orf" id="dummy-1_q16_0_all"  />
<polygon points="681,35 686,30 742,30 742,40 686,40 681,35 " style="fill:#15d8b9; stroke-width:1; stroke:black; " description="&lt;b&gt;BEKADICB_01918&lt;/b&gt;&lt;br&gt;Hydroxyneurosporene desaturase&lt;br&gt;Location: 253291 - 254857" locus_tag="BEKADICB_01918" class="clusterblast-orf" id="dummy-1_q17_0_all"  />
<polygon points="746,40 775,40 780,35 775,30 746,30 746,40 " style="fill:#6715d8; stroke-width:1; stroke:black; " description="&lt;b&gt;BEKADICB_01919&lt;/b&gt;&lt;br&gt;hypothetical protein&lt;br&gt;Location: 254949 - 255828" locus_tag="BEKADICB_01919" class="clusterblast-orf" id="dummy-1_q18_0_all"  />
</g>
<g label="NZ_CP028918" description="NZ_CP028918 (1124240-1143571): Gemmobacter sp. HYN0069 chromosome, complete g... (76% of genes show similarity), terpene" class="clusterblast-cluster"  >
<text x="5" y="70" class="clusterblast-acc"  >
<a xlink:href="https://antismash-db.secondarymetabolites.org/area.html?record=NZ_CP028918&amp;start=1124240&amp;end=1143571" target="_blank">NZ_CP028918 (1124240-1143571)</a>: Gemmobacter sp. HYN0069 chromosome, complete g... (76% of genes show similarity), terpene</text>
<line x1="10" y1="85" x2="778.0" y2="85" style="stroke-width:1; stroke:grey; "  />
</g>
<g id="a1_000"  >
<polygon points="12,85 17,80 74,80 74,90 17,90 12,85 " style="fill:white; stroke-width:1; stroke:black; " description="&lt;b&gt;HYN69_RS05530&lt;/b&gt;&lt;br&gt;chlorophyllide a reductase subunit Y&lt;br&gt;Location: 1143571 - 1141991" locus_tag="HYN69_RS05530" class="clusterblast-orf" id="dummy-1_h1_7_0"  />
</g>
<g id="a1_001"  >
<polygon points="77,85 82,80 116,80 116,90 82,90 77,85 " style="fill:white; stroke-width:1; stroke:black; " description="&lt;b&gt;HYN69_RS05525&lt;/b&gt;&lt;br&gt;chlorophyllide a reductase iron protein subunit X&lt;br&gt;Location: 1141927 - 1140923" locus_tag="HYN69_RS05525" class="clusterblast-orf" id="dummy-1_h1_7_1"  />
</g>
<g id="a1_002"  >
<polygon points="116,85 121,80 152,80 152,90 121,90 116,85 " style="fill:white; stroke-width:1; stroke:black; " description="&lt;b&gt;HYN69_RS05520&lt;/b&gt;&lt;br&gt;chlorophyll synthesis pathway protein BchC&lt;br&gt;Location: 1140926 - 1139982" locus_tag="HYN69_RS05520" class="clusterblast-orf" id="dummy-1_h1_7_2"  />
</g>
<g id="a1_003"  >
<polygon points="158,85 163,80 201,80 201,90 163,90 158,85 " style="fill:white; stroke-width:1; stroke:black; " description="&lt;b&gt;HYN69_RS05515&lt;/b&gt;&lt;br&gt;methyltransferase domain-containing protein&lt;br&gt;Location: 1139843 - 1138746" locus_tag="HYN69_RS05515" class="clusterblast-orf" id="dummy-1_h1_7_3"  />
</g>
<g id="a1_004"  >
<polygon points="202,85 207,80 236,80 236,90 207,90 202,85 " style="fill:#6715d8; stroke-width:1; stroke:black; " description="&lt;b&gt;HYN69_RS05510&lt;/b&gt;&lt;br&gt;polyprenyl synthetase family protein&lt;br&gt;Location: 1138725 - 1137841&lt;br&gt;&lt;br&gt;&lt;b&gt;BlastP hit with BEKADICB_01919&lt;/b&gt;&lt;br&gt;Percentage identity: 68&lt;br&gt;Percentage coverage: 98&lt;br&gt;BLAST bit score: 372&lt;br&gt;E-value: 2.15e-128" locus_tag="HYN69_RS05510" class="clusterblast-orf" id="dummy-1_h1_7_4"  />
</g>
<g id="a1_005"  >
<polygon points="241,90 299,90 304,85 299,80 241,80 241,90 " style="fill:#15d8b9; stroke-width:1; stroke:black; " description="&lt;b&gt;HYN69_RS05505&lt;/b&gt;&lt;br&gt;FAD-dependent oxidoreductase&lt;br&gt;Location: 1137718 - 1136099&lt;br&gt;&lt;br&gt;&lt;b&gt;BlastP hit with BEKADICB_01918&lt;/b&gt;&lt;br&gt;Percentage identity: 50&lt;br&gt;Percentage coverage: 104&lt;br&gt;BLAST bit score: 457&lt;br&gt;E-value: 8.31e-155" locus_tag="HYN69_RS05505" class="clusterblast-orf" id="dummy-1_h1_7_5"  />
</g>
<g id="a1_006"  >
<polygon points="304,90 332,90 337,85 332,80 304,80 304,90 " style="fill:#a5d815; stroke-width:1; stroke:black; " description="&lt;b&gt;HYN69_RS05500&lt;/b&gt;&lt;br&gt;carotenoid 1,2-hydratase&lt;br&gt;Location: 1136102 - 1135263&lt;br&gt;&lt;br&gt;&lt;b&gt;BlastP hit with BEKADICB_01917&lt;/b&gt;&lt;br&gt;Percentage identity: 60&lt;br&gt;Percentage coverage: 100&lt;br&gt;BLAST bit score: 301&lt;br&gt;E-value: 7.62e-102" locus_tag="HYN69_RS05500" class="clusterblast-orf" id="dummy-1_h1_7_6"  />
</g>
<g id="a1_007"  >
<polygon points="339,85 344,80 358,80 358,90 344,90 339,85 " style="fill:#15d83e; stroke-width:1; stroke:black; " description="&lt;b&gt;HYN69_RS05495&lt;/b&gt;&lt;br&gt;tryptophan-rich sensory protein&lt;br&gt;Location: 1135195 - 1134719&lt;br&gt;&lt;br&gt;&lt;b&gt;BlastP hit with BEKADICB_01910&lt;/b&gt;&lt;br&gt;Percentage identity: 63&lt;br&gt;Percentage coverage: 99&lt;br&gt;BLAST bit score: 200&lt;br&gt;E-value: 4.52e-65" locus_tag="HYN69_RS05495" class="clusterblast-orf" id="dummy-1_h1_7_7"  />
</g>
<g id="a1_008"  >
<polygon points="361,85 366,80 402,80 402,90 366,90 361,85 " style="fill:#153ed8; stroke-width:1; stroke:black; " description="&lt;b&gt;HYN69_RS05490&lt;/b&gt;&lt;br&gt;phytoene/squalene synthase family protein&lt;br&gt;Location: 1134635 - 1133589&lt;br&gt;&lt;br&gt;&lt;b&gt;BlastP hit with BEKADICB_01911&lt;/b&gt;&lt;br&gt;Percentage identity: 66&lt;br&gt;Percentage coverage: 94&lt;br&gt;BLAST bit score: 412&lt;br&gt;E-value: 1.66e-142" locus_tag="HYN69_RS05490" class="clusterblast-orf" id="dummy-1_h1_7_8"  />
</g>
<g id="a1_009"  >
<polygon points="402,85 407,80 463,80 463,90 407,90 402,85 " style="fill:#d81590; stroke-width:1; stroke:black; " description="&lt;b&gt;HYN69_RS05485&lt;/b&gt;&lt;br&gt;phytoene desaturase&lt;br&gt;Location: 1133592 - 1132027&lt;br&gt;&lt;br&gt;&lt;b&gt;BlastP hit with BEKADICB_01912&lt;/b&gt;&lt;br&gt;Percentage identity: 79&lt;br&gt;Percentage coverage: 98&lt;br&gt;BLAST bit score: 801&lt;br&gt;E-value: 6.56e-291" locus_tag="HYN69_RS05485" class="clusterblast-orf" id="dummy-1_h1_7_9"  />
</g>
<g id="a1_0010"  >
<polygon points="468,90 491,90 496,85 491,80 468,80 468,90 " style="fill:#d8ce15; stroke-width:1; stroke:black; " description="&lt;b&gt;HYN69_RS05480&lt;/b&gt;&lt;br&gt;spheroidene monooxygenase&lt;br&gt;Location: 1131884 - 1131165&lt;br&gt;&lt;br&gt;&lt;b&gt;BlastP hit with BEKADICB_01913&lt;/b&gt;&lt;br&gt;Percentage identity: 62&lt;br&gt;Percentage coverage: 98&lt;br&gt;BLAST bit score: 289&lt;br&gt;E-value: 1.75e-97" locus_tag="HYN69_RS05480" class="clusterblast-orf" id="dummy-1_h1_7_10"  />
</g>
<g id="a1_0011"  >
<polygon points="502,90 536,90 541,85 536,80 502,80 502,90 " style="fill:#15d87c; stroke-width:1; stroke:black; " description="&lt;b&gt;HYN69_RS05475&lt;/b&gt;&lt;br&gt;magnesium chelatase ATPase subunit I&lt;br&gt;Location: 1131031 - 1130027&lt;br&gt;&lt;br&gt;&lt;b&gt;BlastP hit with BEKADICB_01914&lt;/b&gt;&lt;br&gt;Percentage identity: 80&lt;br&gt;Percentage coverage: 99&lt;br&gt;BLAST bit score: 516&lt;br&gt;E-value: 3.89e-184" locus_tag="HYN69_RS05475" class="clusterblast-orf" id="dummy-1_h1_7_11"  />
</g>
<g id="a1_0012"  >
<polygon points="542,90 601,90 606,85 601,80 542,80 542,90 " style="fill:#2a15d8; stroke-width:1; stroke:black; " description="&lt;b&gt;HYN69_RS05470&lt;/b&gt;&lt;br&gt;magnesium chelatase subunit D&lt;br&gt;Location: 1129991 - 1128351&lt;br&gt;&lt;br&gt;&lt;b&gt;BlastP hit with BEKADICB_01915&lt;/b&gt;&lt;br&gt;Percentage identity: 58&lt;br&gt;Percentage coverage: 99&lt;br&gt;BLAST bit score: 539&lt;br&gt;E-value: 2.66e-186" locus_tag="HYN69_RS05470" class="clusterblast-orf" id="dummy-1_h1_7_12"  />
</g>
<g id="a1_0013"  >
<polygon points="606,90 636,90 641,85 636,80 606,80 606,90 " style="fill:#d81553; stroke-width:1; stroke:black; " description="&lt;b&gt;HYN69_RS05465&lt;/b&gt;&lt;br&gt;alpha/beta fold hydrolase&lt;br&gt;Location: 1128349 - 1127471&lt;br&gt;&lt;br&gt;&lt;b&gt;BlastP hit with BEKADICB_01916&lt;/b&gt;&lt;br&gt;Percentage identity: 55&lt;br&gt;Percentage coverage: 97&lt;br&gt;BLAST bit score: 287&lt;br&gt;E-value: 5.32e-95" locus_tag="HYN69_RS05465" class="clusterblast-orf" id="dummy-1_h1_7_13"  />
</g>
<g id="a1_0014"  >
<polygon points="649,85 654,80 669,80 669,90 654,90 649,85 " style="fill:#d89015; stroke-width:1; stroke:black; " description="&lt;b&gt;HYN69_RS05460&lt;/b&gt;&lt;br&gt;isopentenyl-diphosphate Delta-isomerase&lt;br&gt;Location: 1127257 - 1126736&lt;br&gt;&lt;br&gt;&lt;b&gt;BlastP hit with BEKADICB_01909&lt;/b&gt;&lt;br&gt;Percentage identity: 64&lt;br&gt;Percentage coverage: 91&lt;br&gt;BLAST bit score: 237&lt;br&gt;E-value: 9.01e-79" locus_tag="HYN69_RS05460" class="clusterblast-orf" id="dummy-1_h1_7_14"  />
</g>
<g id="a1_0015"  >
<polygon points="670,85 675,80 716,80 716,90 675,90 670,85 " style="fill:#d815ce; stroke-width:1; stroke:black; " description="&lt;b&gt;HYN69_RS05455&lt;/b&gt;&lt;br&gt;geranylgeranyl diphosphate reductase&lt;br&gt;Location: 1126709 - 1125528&lt;br&gt;&lt;br&gt;&lt;b&gt;BlastP hit with BEKADICB_01908&lt;/b&gt;&lt;br&gt;Percentage identity: 83&lt;br&gt;Percentage coverage: 100&lt;br&gt;BLAST bit score: 655&lt;br&gt;E-value: 3.88e-237" locus_tag="HYN69_RS05455" class="clusterblast-orf" id="dummy-1_h1_7_15"  />
</g>
<g id="a1_0016"  >
<polygon points="716,85 721,80 767,80 767,90 721,90 716,85 " style="fill:#157cd8; stroke-width:1; stroke:black; " description="&lt;b&gt;HYN69_RS05450&lt;/b&gt;&lt;br&gt;BCD family MFS transporter&lt;br&gt;Location: 1125524 - 1124241&lt;br&gt;&lt;br&gt;&lt;b&gt;BlastP hit with BEKADICB_01907&lt;/b&gt;&lt;br&gt;Percentage identity: 63&lt;br&gt;Percentage coverage: 101&lt;br&gt;BLAST bit score: 441&lt;br&gt;E-value: 9.49e-152" locus_tag="HYN69_RS05450" class="clusterblast-orf" id="dummy-1_h1_7_16"  />
</g>
</svg>
