<svg xmlns="http://www.w3.org/2000/svg" xmlns:xlink="http://www.w3.org/1999/xlink" version="1.1" x="0" y="0" height="230" width="800" viewBox="0 0 800 230" preserveAspectRatio="none"  >
<g label="Query sequence" class="clusterblast-cluster"  >
<text x="5" y="20" class="clusterblast-acc"  >
Query sequence</text>
<line x1="10" y1="35" x2="778.0" y2="35" style="stroke-width:1; stroke:grey; "  />
<polygon points="4,35 9,30 20,30 20,40 9,40 4,35 " style="fill:white; stroke-width:1; stroke:black; " description="&lt;b&gt;BMJDCPAI_00522&lt;/b&gt;&lt;br&gt;L-cystine-binding protein FliY&lt;br&gt;Location: 105047 - 105875" locus_tag="BMJDCPAI_00522" class="clusterblast-orf" id="dummy-1_q0_0_all"  />
<polygon points="20,35 25,30 37,30 37,40 25,40 20,35 " style="fill:white; stroke-width:1; stroke:black; " description="&lt;b&gt;BMJDCPAI_00523&lt;/b&gt;&lt;br&gt;hypothetical protein&lt;br&gt;Location: 105894 - 106731" locus_tag="BMJDCPAI_00523" class="clusterblast-orf" id="dummy-1_q1_0_all"  />
<polygon points="39,35 44,30 55,30 55,40 44,40 39,35 " style="fill:#d81515; stroke-width:1; stroke:black; " description="&lt;b&gt;BMJDCPAI_00524&lt;/b&gt;&lt;br&gt;3-deoxy-manno-octulosonate cytidylyltransferase&lt;br&gt;Location: 106856 - 107672" locus_tag="BMJDCPAI_00524" class="clusterblast-orf" id="dummy-1_q2_0_all"  />
<polygon points="55,35 60,30 72,30 72,40 60,40 55,35 " style="fill:#3cd815; stroke-width:1; stroke:black; " description="&lt;b&gt;BMJDCPAI_00525&lt;/b&gt;&lt;br&gt;2-dehydro-3-deoxyphosphooctonate aldolase&lt;br&gt;Location: 107668 - 108505" locus_tag="BMJDCPAI_00525" class="clusterblast-orf" id="dummy-1_q3_0_all"  />
<polygon points="73,35 78,30 140,30 140,40 78,40 73,35 " style="fill:white; stroke-width:1; stroke:black; " description="&lt;b&gt;BMJDCPAI_00526&lt;/b&gt;&lt;br&gt;DNA polymerase III subunit alpha&lt;br&gt;Location: 108572 - 112010" locus_tag="BMJDCPAI_00526" class="clusterblast-orf" id="dummy-1_q4_0_all"  />
<polygon points="143,40 169,40 174,35 169,30 143,30 143,40 " style="fill:#1563d8; stroke-width:1; stroke:black; " description="&lt;b&gt;BMJDCPAI_00527&lt;/b&gt;&lt;br&gt;Galactose/methyl galactoside import ATP-binding protein MglA&lt;br&gt;Location: 112172 - 113705" locus_tag="BMJDCPAI_00527" class="clusterblast-orf" id="dummy-1_q5_0_all"  />
<polygon points="173,40 190,40 195,35 190,30 173,30 173,40 " style="fill:#b115d8; stroke-width:1; stroke:black; " description="&lt;b&gt;BMJDCPAI_00528&lt;/b&gt;&lt;br&gt;hypothetical protein&lt;br&gt;Location: 113701 - 114787" locus_tag="BMJDCPAI_00528" class="clusterblast-orf" id="dummy-1_q6_0_all"  />
<polygon points="195,40 208,40 213,35 208,30 195,30 195,40 " style="fill:#d88a15; stroke-width:1; stroke:black; " description="&lt;b&gt;BMJDCPAI_00529&lt;/b&gt;&lt;br&gt;hypothetical protein&lt;br&gt;Location: 114783 - 115716" locus_tag="BMJDCPAI_00529" class="clusterblast-orf" id="dummy-1_q7_0_all"  />
<polygon points="214,40 230,40 235,35 230,30 214,30 214,40 " style="fill:#15d863; stroke-width:1; stroke:black; " description="&lt;b&gt;BMJDCPAI_00530&lt;/b&gt;&lt;br&gt;Purine-binding protein&lt;br&gt;Location: 115752 - 116829" locus_tag="BMJDCPAI_00530" class="clusterblast-orf" id="dummy-1_q8_0_all"  />
<polygon points="237,40 243,40 248,35 243,30 237,30 237,40 " style="fill:white; stroke-width:1; stroke:black; " description="&lt;b&gt;BMJDCPAI_00531&lt;/b&gt;&lt;br&gt;hypothetical protein&lt;br&gt;Location: 116926 - 117523" locus_tag="BMJDCPAI_00531" class="clusterblast-orf" id="dummy-1_q9_0_all"  />
<polygon points="248,35 253,30 271,30 271,40 253,40 248,35 " style="fill:#3c15d8; stroke-width:1; stroke:black; " description="&lt;b&gt;BMJDCPAI_00532&lt;/b&gt;&lt;br&gt;Chaperone protein DnaJ&lt;br&gt;Location: 117519 - 118677" locus_tag="BMJDCPAI_00532" class="clusterblast-orf" id="dummy-1_q10_0_all"  />
<polygon points="272,35 277,30 310,30 310,40 277,40 272,35 " style="fill:#d8158a; stroke-width:1; stroke:black; " description="&lt;b&gt;BMJDCPAI_00533&lt;/b&gt;&lt;br&gt;Chaperone protein DnaK&lt;br&gt;Location: 118748 - 120662" locus_tag="BMJDCPAI_00533" class="clusterblast-orf" id="dummy-1_q11_0_all"  />
<polygon points="313,35 318,30 353,30 353,40 318,40 313,35 " style="fill:white; stroke-width:1; stroke:black; " description="&lt;b&gt;BMJDCPAI_00534&lt;/b&gt;&lt;br&gt;Dipeptidyl carboxypeptidase&lt;br&gt;Location: 120830 - 122837" locus_tag="BMJDCPAI_00534" class="clusterblast-orf" id="dummy-1_q12_0_all"  />
<polygon points="354,35 359,30 379,30 379,40 359,40 354,35 " style="fill:white; stroke-width:1; stroke:black; " description="&lt;b&gt;BMJDCPAI_00535&lt;/b&gt;&lt;br&gt;putative MFS-type transporter YcaD&lt;br&gt;Location: 122903 - 124199" locus_tag="BMJDCPAI_00535" class="clusterblast-orf" id="dummy-1_q13_0_all"  />
<polygon points="383,40 399,40 404,35 399,30 383,30 383,40 " style="fill:#b1d815; stroke-width:1; stroke:black; " description="&lt;b&gt;BMJDCPAI_00536&lt;/b&gt;&lt;br&gt;1,3,6,8-tetrahydroxynaphthalene synthase&lt;br&gt;Location: 124395 - 125436" locus_tag="BMJDCPAI_00536" class="clusterblast-orf" id="dummy-1_q14_0_all"  />
<polygon points="404,40 408,40 413,35 408,30 404,30 404,40 " style="fill:#15d8d8; stroke-width:1; stroke:black; " description="&lt;b&gt;BMJDCPAI_00537&lt;/b&gt;&lt;br&gt;hypothetical protein&lt;br&gt;Location: 125432 - 125921" locus_tag="BMJDCPAI_00537" class="clusterblast-orf" id="dummy-1_q15_0_all"  />
<polygon points="414,40 427,40 432,35 427,30 414,30 414,40 " style="fill:white; stroke-width:1; stroke:black; " description="&lt;b&gt;BMJDCPAI_00538&lt;/b&gt;&lt;br&gt;UDP-glucose 4-epimerase&lt;br&gt;Location: 125991 - 126885" locus_tag="BMJDCPAI_00538" class="clusterblast-orf" id="dummy-1_q16_0_all"  />
<polygon points="432,35 437,30 481,30 481,40 437,40 432,35 " style="fill:white; stroke-width:1; stroke:black; " description="&lt;b&gt;BMJDCPAI_00539&lt;/b&gt;&lt;br&gt;4-methylaminobutanoate oxidase (formaldehyde-forming)&lt;br&gt;Location: 126888 - 129375" locus_tag="BMJDCPAI_00539" class="clusterblast-orf" id="dummy-1_q17_0_all"  />
<polygon points="483,35 488,30 492,30 492,40 488,40 483,35 " style="fill:white; stroke-width:1; stroke:black; " description="&lt;b&gt;BMJDCPAI_00540&lt;/b&gt;&lt;br&gt;hypothetical protein&lt;br&gt;Location: 129505 - 129967" locus_tag="BMJDCPAI_00540" class="clusterblast-orf" id="dummy-1_q18_0_all"  />
<polygon points="495,40 507,40 512,35 507,30 495,30 495,40 " style="fill:white; stroke-width:1; stroke:black; " description="&lt;b&gt;BMJDCPAI_00541&lt;/b&gt;&lt;br&gt;Pantothenate synthetase&lt;br&gt;Location: 130094 - 130940" locus_tag="BMJDCPAI_00541" class="clusterblast-orf" id="dummy-1_q19_0_all"  />
<polygon points="511,40 522,40 527,35 522,30 511,30 511,40 " style="fill:white; stroke-width:1; stroke:black; " description="&lt;b&gt;BMJDCPAI_00542&lt;/b&gt;&lt;br&gt;3-methyl-2-oxobutanoate hydroxymethyltransferase&lt;br&gt;Location: 130936 - 131746" locus_tag="BMJDCPAI_00542" class="clusterblast-orf" id="dummy-1_q20_0_all"  />
<polygon points="528,35 533,30 543,30 543,40 533,40 528,35 " style="fill:white; stroke-width:1; stroke:black; " description="&lt;b&gt;BMJDCPAI_00543&lt;/b&gt;&lt;br&gt;hypothetical protein&lt;br&gt;Location: 131766 - 132564" locus_tag="BMJDCPAI_00543" class="clusterblast-orf" id="dummy-1_q21_0_all"  />
<polygon points="554,35 559,30 570,30 570,40 559,40 554,35 " style="fill:white; stroke-width:1; stroke:black; " description="&lt;b&gt;BMJDCPAI_00544&lt;/b&gt;&lt;br&gt;Dihydroanticapsin 7-dehydrogenase&lt;br&gt;Location: 133115 - 133922" locus_tag="BMJDCPAI_00544" class="clusterblast-orf" id="dummy-1_q22_0_all"  />
<polygon points="570,35 575,30 590,30 590,40 575,40 570,35 " style="fill:white; stroke-width:1; stroke:black; " description="&lt;b&gt;BMJDCPAI_00545&lt;/b&gt;&lt;br&gt;Ribosomal RNA small subunit methyltransferase C&lt;br&gt;Location: 133918 - 134941" locus_tag="BMJDCPAI_00545" class="clusterblast-orf" id="dummy-1_q23_0_all"  />
<polygon points="590,35 595,30 597,30 597,40 595,40 590,35 " style="fill:white; stroke-width:1; stroke:black; " description="&lt;b&gt;BMJDCPAI_00546&lt;/b&gt;&lt;br&gt;ATP-dependent Clp protease adapter protein ClpS&lt;br&gt;Location: 134950 - 135286" locus_tag="BMJDCPAI_00546" class="clusterblast-orf" id="dummy-1_q24_0_all"  />
<polygon points="599,40 607,40 612,35 607,30 599,30 599,40 " style="fill:white; stroke-width:1; stroke:black; " description="&lt;b&gt;BMJDCPAI_00547&lt;/b&gt;&lt;br&gt;hypothetical protein&lt;br&gt;Location: 135378 - 136083" locus_tag="BMJDCPAI_00547" class="clusterblast-orf" id="dummy-1_q25_0_all"  />
<polygon points="616,40 648,40 653,35 648,30 616,30 616,40 " style="fill:white; stroke-width:1; stroke:black; " description="&lt;b&gt;BMJDCPAI_00548&lt;/b&gt;&lt;br&gt;hypothetical protein&lt;br&gt;Location: 136258 - 138166" locus_tag="BMJDCPAI_00548" class="clusterblast-orf" id="dummy-1_q26_0_all"  />
<polygon points="653,35 658,30 670,30 670,40 658,40 653,35 " style="fill:white; stroke-width:1; stroke:black; " description="&lt;b&gt;BMJDCPAI_00549&lt;/b&gt;&lt;br&gt;hypothetical protein&lt;br&gt;Location: 138162 - 139041" locus_tag="BMJDCPAI_00549" class="clusterblast-orf" id="dummy-1_q27_0_all"  />
<polygon points="675,40 678,40 683,35 678,30 675,30 675,40 " style="fill:white; stroke-width:1; stroke:black; " description="&lt;b&gt;BMJDCPAI_00550&lt;/b&gt;&lt;br&gt;Cytochrome c2&lt;br&gt;Location: 139263 - 139689" locus_tag="BMJDCPAI_00550" class="clusterblast-orf" id="dummy-1_q28_0_all"  />
<polygon points="684,35 689,30 709,30 709,40 689,40 684,35 " style="fill:white; stroke-width:1; stroke:black; " description="&lt;b&gt;BMJDCPAI_00551&lt;/b&gt;&lt;br&gt;Dihydrofolate synthase/folylpolyglutamate synthase&lt;br&gt;Location: 139745 - 141014" locus_tag="BMJDCPAI_00551" class="clusterblast-orf" id="dummy-1_q29_0_all"  />
<polygon points="709,35 714,30 727,30 727,40 714,40 709,35 " style="fill:white; stroke-width:1; stroke:black; " description="&lt;b&gt;BMJDCPAI_00552&lt;/b&gt;&lt;br&gt;Acetyl-coenzyme A carboxylase carboxyl transferase subunit beta&lt;br&gt;Location: 141015 - 141921" locus_tag="BMJDCPAI_00552" class="clusterblast-orf" id="dummy-1_q30_0_all"  />
<polygon points="728,35 733,30 746,30 746,40 733,40 728,35 " style="fill:white; stroke-width:1; stroke:black; " description="&lt;b&gt;BMJDCPAI_00553&lt;/b&gt;&lt;br&gt;hypothetical protein&lt;br&gt;Location: 141977 - 142868" locus_tag="BMJDCPAI_00553" class="clusterblast-orf" id="dummy-1_q31_0_all"  />
<polygon points="748,40 771,40 776,35 771,30 748,30 748,40 " style="fill:white; stroke-width:1; stroke:black; " description="&lt;b&gt;BMJDCPAI_00554&lt;/b&gt;&lt;br&gt;Cardiolipin synthase A&lt;br&gt;Location: 142978 - 144406" locus_tag="BMJDCPAI_00554" class="clusterblast-orf" id="dummy-1_q32_0_all"  />
</g>
<g label="NZ_LT859959" description="NZ_LT859959 (7419867-7460920): Bradyrhizobium sp. ORS 285 chromosome BRAD285 (10% of genes show similarity), T3PKS" class="clusterblast-cluster"  >
<text x="5" y="70" class="clusterblast-acc"  >
<a xlink:href="https://antismash-db.secondarymetabolites.org/area.html?record=NZ_LT859959&amp;start=7419867&amp;end=7460920" target="_blank">NZ_LT859959 (7419867-7460920)</a>: Bradyrhizobium sp. ORS 285 chromosome BRAD285 (10% of genes show similarity), T3PKS</text>
<line x1="10" y1="85" x2="778.0" y2="85" style="stroke-width:1; stroke:grey; "  />
</g>
<g id="a1_000"  >
<polygon points="0,90 24,90 29,85 24,80 0,80 0,90 " style="fill:white; stroke-width:1; stroke:black; " description="&lt;b&gt;BRAD285_RS33555&lt;/b&gt;&lt;br&gt;hypothetical protein&lt;br&gt;Location: 7460221 - 7458704" locus_tag="BRAD285_RS33555" class="clusterblast-orf" id="dummy-1_h1_5_0"  />
</g>
<g id="a1_001"  >
<polygon points="29,85 34,80 41,80 41,90 34,90 29,85 " style="fill:white; stroke-width:1; stroke:black; " description="&lt;b&gt;BRAD285_RS33550&lt;/b&gt;&lt;br&gt;class I SAM-dependent methyltransferase&lt;br&gt;Location: 7458703 - 7458104" locus_tag="BRAD285_RS33550" class="clusterblast-orf" id="dummy-1_h1_5_1"  />
</g>
<g id="a1_002"  >
<polygon points="41,85 46,80 61,80 61,90 46,90 41,85 " style="fill:white; stroke-width:1; stroke:black; " description="&lt;b&gt;BRAD285_RS33545&lt;/b&gt;&lt;br&gt;glycosyltransferase family 2 protein&lt;br&gt;Location: 7458107 - 7457061" locus_tag="BRAD285_RS33545" class="clusterblast-orf" id="dummy-1_h1_5_2"  />
</g>
<g id="a1_003"  >
<polygon points="67,90 76,90 81,85 76,80 67,80 67,90 " style="fill:white; stroke-width:1; stroke:black; " description="&lt;b&gt;BRAD285_RS33540&lt;/b&gt;&lt;br&gt;class I SAM-dependent methyltransferase&lt;br&gt;Location: 7456784 - 7456089" locus_tag="BRAD285_RS33540" class="clusterblast-orf" id="dummy-1_h1_5_3"  />
</g>
<g id="a1_004"  >
<polygon points="89,90 113,90 118,85 113,80 89,80 89,90 " style="fill:white; stroke-width:1; stroke:black; " description="&lt;b&gt;BRAD285_RS33535&lt;/b&gt;&lt;br&gt;hypothetical protein&lt;br&gt;Location: 7455682 - 7454156" locus_tag="BRAD285_RS33535" class="clusterblast-orf" id="dummy-1_h1_5_4"  />
</g>
<g id="a1_005"  >
<polygon points="119,85 124,80 137,80 137,90 124,90 119,85 " style="fill:white; stroke-width:1; stroke:black; " description="&lt;b&gt;BRAD285_RS33530&lt;/b&gt;&lt;br&gt;hypothetical protein&lt;br&gt;Location: 7454125 - 7453191" locus_tag="BRAD285_RS33530" class="clusterblast-orf" id="dummy-1_h1_5_5"  />
</g>
<g id="a1_006"  >
<polygon points="147,90 180,90 185,85 180,80 147,80 147,90 " style="fill:#d8158a; stroke-width:1; stroke:black; " description="&lt;b&gt;BRAD285_RS33525&lt;/b&gt;&lt;br&gt;molecular chaperone DnaK&lt;br&gt;Location: 7452680 - 7450785&lt;br&gt;&lt;br&gt;&lt;b&gt;BlastP hit with BMJDCPAI_00533&lt;/b&gt;&lt;br&gt;Percentage identity: 75&lt;br&gt;Percentage coverage: 100&lt;br&gt;BLAST bit score: 907&lt;br&gt;E-value: 0.0" locus_tag="BRAD285_RS33525" class="clusterblast-orf" id="dummy-1_h1_5_6"  />
</g>
<g id="a1_007"  >
<polygon points="187,90 205,90 210,85 205,80 187,80 187,90 " style="fill:#3c15d8; stroke-width:1; stroke:black; " description="&lt;b&gt;BRAD285_RS33520&lt;/b&gt;&lt;br&gt;molecular chaperone DnaJ&lt;br&gt;Location: 7450641 - 7449511&lt;br&gt;&lt;br&gt;&lt;b&gt;BlastP hit with BMJDCPAI_00532&lt;/b&gt;&lt;br&gt;Percentage identity: 54&lt;br&gt;Percentage coverage: 98&lt;br&gt;BLAST bit score: 352&lt;br&gt;E-value: 5.83e-118" locus_tag="BRAD285_RS33520" class="clusterblast-orf" id="dummy-1_h1_5_7"  />
</g>
<g id="a1_008"  >
<polygon points="214,90 221,90 226,85 221,80 214,80 214,90 " style="fill:white; stroke-width:1; stroke:black; " description="&lt;b&gt;BRAD285_RS33515&lt;/b&gt;&lt;br&gt;methyltransferase&lt;br&gt;Location: 7449291 - 7448689" locus_tag="BRAD285_RS33515" class="clusterblast-orf" id="dummy-1_h1_5_8"  />
</g>
<g id="a1_009"  >
<polygon points="227,90 233,90 238,85 233,80 227,80 227,90 " style="fill:white; stroke-width:1; stroke:black; " description="&lt;b&gt;BRAD285_RS33510&lt;/b&gt;&lt;br&gt;NAD(P)H-dependent oxidoreductase&lt;br&gt;Location: 7448643 - 7448065" locus_tag="BRAD285_RS33510" class="clusterblast-orf" id="dummy-1_h1_5_9"  />
</g>
<g id="a1_0010"  >
<polygon points="238,90 247,90 252,85 247,80 238,80 238,90 " style="fill:white; stroke-width:1; stroke:black; " description="&lt;b&gt;BRAD285_RS33505&lt;/b&gt;&lt;br&gt;orotidine-5'-phosphate decarboxylase&lt;br&gt;Location: 7448058 - 7447327" locus_tag="BRAD285_RS33505" class="clusterblast-orf" id="dummy-1_h1_5_10"  />
</g>
<g id="a1_0011"  >
<polygon points="253,90 254,90 259,85 254,80 253,80 253,90 " style="fill:white; stroke-width:1; stroke:black; " description="&lt;b&gt;BRAD285_RS33500&lt;/b&gt;&lt;br&gt;DUF1330 domain-containing protein&lt;br&gt;Location: 7447293 - 7446991" locus_tag="BRAD285_RS33500" class="clusterblast-orf" id="dummy-1_h1_5_11"  />
</g>
<g id="a1_0012"  >
<polygon points="261,90 272,90 277,85 272,80 261,80 261,90 " style="fill:white; stroke-width:1; stroke:black; " description="&lt;b&gt;BRAD285_RS33495&lt;/b&gt;&lt;br&gt;4-hydroxy-tetrahydrodipicolinate reductase&lt;br&gt;Location: 7446907 - 7446089" locus_tag="BRAD285_RS33495" class="clusterblast-orf" id="dummy-1_h1_5_12"  />
</g>
<g id="a1_0013"  >
<polygon points="277,90 284,90 289,85 284,80 277,80 277,90 " style="fill:white; stroke-width:1; stroke:black; " description="&lt;b&gt;BRAD285_RS33490&lt;/b&gt;&lt;br&gt;2,3-bisphosphoglycerate-dependent phosphoglycerate mutase&lt;br&gt;Location: 7446064 - 7445441" locus_tag="BRAD285_RS33490" class="clusterblast-orf" id="dummy-1_h1_5_13"  />
</g>
<g id="a1_0014"  >
<polygon points="307,85 311,80 311,90 307,85 " style="fill:white; stroke-width:1; stroke:black; " description="&lt;b&gt;BRAD285_RS33480&lt;/b&gt;&lt;br&gt;hypothetical protein&lt;br&gt;Location: 7444528 - 7444337" locus_tag="BRAD285_RS33480" class="clusterblast-orf" id="dummy-1_h1_5_14"  />
</g>
<g id="a1_0015"  >
<polygon points="314,85 319,80 332,80 332,90 319,90 314,85 " style="fill:white; stroke-width:1; stroke:black; " description="&lt;b&gt;BRAD285_RS33475&lt;/b&gt;&lt;br&gt;methylated-DNA--[protein]-cysteine S-methyltransferase&lt;br&gt;Location: 7444166 - 7443267" locus_tag="BRAD285_RS33475" class="clusterblast-orf" id="dummy-1_h1_5_15"  />
</g>
<g id="a1_0016"  >
<polygon points="341,85 346,80 351,80 351,90 346,90 341,85 " style="fill:white; stroke-width:1; stroke:black; " description="&lt;b&gt;BRAD285_RS33470&lt;/b&gt;&lt;br&gt;DUF2244 domain-containing protein&lt;br&gt;Location: 7442823 - 7442290" locus_tag="BRAD285_RS33470" class="clusterblast-orf" id="dummy-1_h1_5_16"  />
</g>
<g id="a1_0017"  >
<polygon points="352,90 364,90 369,85 364,80 352,80 352,90 " style="fill:white; stroke-width:1; stroke:black; " description="&lt;b&gt;BRAD285_RS33465&lt;/b&gt;&lt;br&gt;endonuclease III&lt;br&gt;Location: 7442267 - 7441404" locus_tag="BRAD285_RS33465" class="clusterblast-orf" id="dummy-1_h1_5_17"  />
</g>
<g id="a1_0018"  >
<polygon points="378,90 394,90 399,85 394,80 378,80 378,90 " style="fill:#b1d815; stroke-width:1; stroke:black; " description="&lt;b&gt;BRAD285_RS33460&lt;/b&gt;&lt;br&gt;type III polyketide synthase&lt;br&gt;Location: 7440920 - 7439868&lt;br&gt;&lt;br&gt;&lt;b&gt;BlastP hit with BMJDCPAI_00536&lt;/b&gt;&lt;br&gt;Percentage identity: 54&lt;br&gt;Percentage coverage: 99&lt;br&gt;BLAST bit score: 360&lt;br&gt;E-value: 2.79e-122" locus_tag="BRAD285_RS33460" class="clusterblast-orf" id="dummy-1_h1_5_18"  />
</g>
<g id="a1_0019"  >
<polygon points="399,90 404,90 409,85 404,80 399,80 399,90 " style="fill:#15d8d8; stroke-width:1; stroke:black; " description="&lt;b&gt;BRAD285_RS33455&lt;/b&gt;&lt;br&gt;membrane protein&lt;br&gt;Location: 7439871 - 7439350&lt;br&gt;&lt;br&gt;&lt;b&gt;BlastP hit with BMJDCPAI_00537&lt;/b&gt;&lt;br&gt;Percentage identity: 53&lt;br&gt;Percentage coverage: 99&lt;br&gt;BLAST bit score: 153&lt;br&gt;E-value: 5.14e-46" locus_tag="BRAD285_RS33455" class="clusterblast-orf" id="dummy-1_h1_5_19"  />
</g>
<g id="a1_0020"  >
<polygon points="409,90 435,90 440,85 435,80 409,80 409,90 " style="fill:white; stroke-width:1; stroke:black; " description="&lt;b&gt;BRAD285_RS33450&lt;/b&gt;&lt;br&gt;DHA2 family efflux MFS transporter permease subunit&lt;br&gt;Location: 7439353 - 7437737" locus_tag="BRAD285_RS33450" class="clusterblast-orf" id="dummy-1_h1_5_20"  />
</g>
<g id="a1_0021"  >
<polygon points="439,85 444,80 454,80 454,90 444,90 439,85 " style="fill:white; stroke-width:1; stroke:black; " description="&lt;b&gt;BRAD285_RS33445&lt;/b&gt;&lt;br&gt;sulfate transporter family protein&lt;br&gt;Location: 7437796 - 7437044" locus_tag="BRAD285_RS33445" class="clusterblast-orf" id="dummy-1_h1_5_21"  />
</g>
<g id="a1_0022"  >
<polygon points="459,85 464,80 510,80 510,90 464,90 459,85 " style="fill:white; stroke-width:1; stroke:black; " description="&lt;b&gt;BRAD285_RS33440&lt;/b&gt;&lt;br&gt;heavy metal translocating P-type ATPase&lt;br&gt;Location: 7436769 - 7434214" locus_tag="BRAD285_RS33440" class="clusterblast-orf" id="dummy-1_h1_5_22"  />
</g>
<g id="a1_0023"  >
<polygon points="513,90 514,90 519,85 514,80 513,80 513,90 " style="fill:white; stroke-width:1; stroke:black; " description="&lt;b&gt;BRAD285_RS33435&lt;/b&gt;&lt;br&gt;metal-sensitive transcriptional regulator&lt;br&gt;Location: 7434032 - 7433757" locus_tag="BRAD285_RS33435" class="clusterblast-orf" id="dummy-1_h1_5_23"  />
</g>
<g id="a1_0024"  >
<polygon points="523,85 528,80 542,80 542,90 528,90 523,85 " style="fill:white; stroke-width:1; stroke:black; " description="&lt;b&gt;BRAD285_RS33430&lt;/b&gt;&lt;br&gt;hypothetical protein&lt;br&gt;Location: 7433525 - 7432545" locus_tag="BRAD285_RS33430" class="clusterblast-orf" id="dummy-1_h1_5_24"  />
</g>
<g id="a1_0025"  >
<polygon points="546,90 569,90 574,85 569,80 546,80 546,90 " style="fill:white; stroke-width:1; stroke:black; " description="&lt;b&gt;BRAD285_RS33425&lt;/b&gt;&lt;br&gt;FAD-dependent oxidoreductase&lt;br&gt;Location: 7432350 - 7430941" locus_tag="BRAD285_RS33425" class="clusterblast-orf" id="dummy-1_h1_5_25"  />
</g>
<g id="a1_0026"  >
<polygon points="577,85 582,80 595,80 595,90 582,90 577,85 " style="fill:white; stroke-width:1; stroke:black; " description="&lt;b&gt;BRAD285_RS33420&lt;/b&gt;&lt;br&gt;MBL fold metallo-hydrolase&lt;br&gt;Location: 7430782 - 7429838" locus_tag="BRAD285_RS33420" class="clusterblast-orf" id="dummy-1_h1_5_26"  />
</g>
<g id="a1_0027"  >
<polygon points="596,85 601,80 611,80 611,90 601,90 596,85 " style="fill:white; stroke-width:1; stroke:black; " description="&lt;b&gt;BRAD285_RS33415&lt;/b&gt;&lt;br&gt;sulfite exporter TauE/SafE family protein&lt;br&gt;Location: 7429804 - 7429028" locus_tag="BRAD285_RS33415" class="clusterblast-orf" id="dummy-1_h1_5_27"  />
</g>
<g id="a1_0028"  >
<polygon points="611,85 616,80 658,80 658,90 616,90 611,85 " style="fill:white; stroke-width:1; stroke:black; " description="&lt;b&gt;BRAD285_RS33410&lt;/b&gt;&lt;br&gt;phenylalanine--tRNA ligase subunit beta&lt;br&gt;Location: 7429031 - 7426623" locus_tag="BRAD285_RS33410" class="clusterblast-orf" id="dummy-1_h1_5_28"  />
</g>
<g id="a1_0029"  >
<polygon points="658,85 663,80 668,80 668,90 663,90 658,85 " style="fill:white; stroke-width:1; stroke:black; " description="&lt;b&gt;BRAD285_RS33405&lt;/b&gt;&lt;br&gt;hypothetical protein&lt;br&gt;Location: 7426626 - 7426153" locus_tag="BRAD285_RS33405" class="clusterblast-orf" id="dummy-1_h1_5_29"  />
</g>
<g id="a1_0030"  >
<polygon points="668,85 673,80 673,80 673,90 673,90 668,85 " style="fill:white; stroke-width:1; stroke:black; " description="&lt;b&gt;BRAD285_RS33400&lt;/b&gt;&lt;br&gt;hypothetical protein&lt;br&gt;Location: 7426156 - 7425863" locus_tag="BRAD285_RS33400" class="clusterblast-orf" id="dummy-1_h1_5_30"  />
</g>
<g id="a1_0031"  >
<polygon points="674,85 679,80 695,80 695,90 679,90 674,85 " style="fill:white; stroke-width:1; stroke:black; " description="&lt;b&gt;BRAD285_RS33395&lt;/b&gt;&lt;br&gt;phenylalanine--tRNA ligase subunit alpha&lt;br&gt;Location: 7425846 - 7424764" locus_tag="BRAD285_RS33395" class="clusterblast-orf" id="dummy-1_h1_5_31"  />
</g>
<g id="a1_0032"  >
<polygon points="698,85 703,80 705,80 705,90 703,90 698,85 " style="fill:white; stroke-width:1; stroke:black; " description="&lt;b&gt;BRAD285_RS33390&lt;/b&gt;&lt;br&gt;50S ribosomal protein L20&lt;br&gt;Location: 7424620 - 7424261" locus_tag="BRAD285_RS33390" class="clusterblast-orf" id="dummy-1_h1_5_32"  />
</g>
<g id="a1_0033"  >
<polygon points="706,85 710,80 710,90 706,85 " style="fill:white; stroke-width:1; stroke:black; " description="&lt;b&gt;BRAD285_RS33385&lt;/b&gt;&lt;br&gt;50S ribosomal protein L35&lt;br&gt;Location: 7424189 - 7423989" locus_tag="BRAD285_RS33385" class="clusterblast-orf" id="dummy-1_h1_5_33"  />
</g>
<g id="a1_0034"  >
<polygon points="715,90 718,90 723,85 718,80 715,80 715,90 " style="fill:white; stroke-width:1; stroke:black; " description="&lt;b&gt;BRAD285_RS33380&lt;/b&gt;&lt;br&gt;hypothetical protein&lt;br&gt;Location: 7423726 - 7423358" locus_tag="BRAD285_RS33380" class="clusterblast-orf" id="dummy-1_h1_5_34"  />
</g>
<g id="a1_0035"  >
<polygon points="724,85 729,80 734,80 734,90 729,90 724,85 " style="fill:white; stroke-width:1; stroke:black; " description="&lt;b&gt;BRAD285_RS33375&lt;/b&gt;&lt;br&gt;translation initiation factor IF-3&lt;br&gt;Location: 7423292 - 7422753" locus_tag="BRAD285_RS33375" class="clusterblast-orf" id="dummy-1_h1_5_35"  />
</g>
<g id="a1_0036"  >
<polygon points="741,90 751,90 756,85 751,80 741,80 741,90 " style="fill:white; stroke-width:1; stroke:black; " description="&lt;b&gt;BRAD285_RS33370&lt;/b&gt;&lt;br&gt;alpha/beta hydrolase&lt;br&gt;Location: 7422427 - 7421642" locus_tag="BRAD285_RS33370" class="clusterblast-orf" id="dummy-1_h1_5_36"  />
</g>
<g id="a1_0037"  >
<polygon points="756,85 761,80 780,80 780,90 761,90 756,85 " style="fill:white; stroke-width:1; stroke:black; " description="&lt;b&gt;BRAD285_RS33365&lt;/b&gt;&lt;br&gt;tRNA epoxyqueuosine(34) reductase QueG&lt;br&gt;Location: 7421630 - 7420452" locus_tag="BRAD285_RS33365" class="clusterblast-orf" id="dummy-1_h1_5_37"  />
</g>
</svg>
