<svg xmlns="http://www.w3.org/2000/svg" xmlns:xlink="http://www.w3.org/1999/xlink" version="1.1" x="0" y="0" height="230" width="800" viewBox="0 0 800 230" preserveAspectRatio="none"  >
<g label="Query sequence" class="clusterblast-cluster"  >
<text x="5" y="20" class="clusterblast-acc"  >
Query sequence</text>
<line x1="10" y1="35" x2="778.0" y2="35" style="stroke-width:1; stroke:grey; "  />
<polygon points="0,40 12,40 17,35 12,30 0,30 0,40 " style="fill:white; stroke-width:1; stroke:black; " description="&lt;b&gt;BMJDCPAI_00745&lt;/b&gt;&lt;br&gt;Queuine tRNA-ribosyltransferase&lt;br&gt;Location: 330965 - 332090" locus_tag="BMJDCPAI_00745" class="clusterblast-orf" id="dummy-2_q0_0_all"  />
<polygon points="17,40 23,40 28,35 23,30 17,30 17,40 " style="fill:white; stroke-width:1; stroke:black; " description="&lt;b&gt;BMJDCPAI_00746&lt;/b&gt;&lt;br&gt;Phosphatidylserine decarboxylase proenzyme&lt;br&gt;Location: 332102 - 332801" locus_tag="BMJDCPAI_00746" class="clusterblast-orf" id="dummy-2_q1_0_all"  />
<polygon points="28,40 34,40 39,35 34,30 28,30 28,40 " style="fill:white; stroke-width:1; stroke:black; " description="&lt;b&gt;BMJDCPAI_00747&lt;/b&gt;&lt;br&gt;hypothetical protein&lt;br&gt;Location: 332800 - 333529" locus_tag="BMJDCPAI_00747" class="clusterblast-orf" id="dummy-2_q2_0_all"  />
<polygon points="44,40 58,40 63,35 58,30 44,30 44,40 " style="fill:white; stroke-width:1; stroke:black; " description="&lt;b&gt;BMJDCPAI_00749&lt;/b&gt;&lt;br&gt;protein kinase UbiB&lt;br&gt;Location: 333857 - 335156" locus_tag="BMJDCPAI_00749" class="clusterblast-orf" id="dummy-2_q3_0_all"  />
<polygon points="63,35 68,30 82,30 82,40 68,40 63,35 " style="fill:white; stroke-width:1; stroke:black; " description="&lt;b&gt;BMJDCPAI_00750&lt;/b&gt;&lt;br&gt;hypothetical protein&lt;br&gt;Location: 335152 - 336394" locus_tag="BMJDCPAI_00750" class="clusterblast-orf" id="dummy-2_q4_0_all"  />
<polygon points="83,35 88,30 99,30 99,40 88,40 83,35 " style="fill:#d81515; stroke-width:1; stroke:black; " description="&lt;b&gt;BMJDCPAI_00751&lt;/b&gt;&lt;br&gt;Glyceraldehyde-3-phosphate dehydrogenase 3&lt;br&gt;Location: 336487 - 337498" locus_tag="BMJDCPAI_00751" class="clusterblast-orf" id="dummy-2_q5_0_all"  />
<polygon points="99,35 104,30 111,30 111,40 104,40 99,35 " style="fill:white; stroke-width:1; stroke:black; " description="&lt;b&gt;BMJDCPAI_00752&lt;/b&gt;&lt;br&gt;Arsenate reductase&lt;br&gt;Location: 337494 - 338331" locus_tag="BMJDCPAI_00752" class="clusterblast-orf" id="dummy-2_q6_0_all"  />
<polygon points="112,35 117,30 126,30 126,40 117,40 112,35 " style="fill:white; stroke-width:1; stroke:black; " description="&lt;b&gt;BMJDCPAI_00753&lt;/b&gt;&lt;br&gt;Polyphosphate:NDP phosphotransferase 3&lt;br&gt;Location: 338398 - 339292" locus_tag="BMJDCPAI_00753" class="clusterblast-orf" id="dummy-2_q7_0_all"  />
<polygon points="129,35 134,30 151,30 151,40 134,40 129,35 " style="fill:white; stroke-width:1; stroke:black; " description="&lt;b&gt;BMJDCPAI_00755&lt;/b&gt;&lt;br&gt;Adenosylhomocysteinase&lt;br&gt;Location: 339518 - 340907" locus_tag="BMJDCPAI_00755" class="clusterblast-orf" id="dummy-2_q8_0_all"  />
<polygon points="152,40 176,40 181,35 176,30 152,30 152,40 " style="fill:#77d815; stroke-width:1; stroke:black; " description="&lt;b&gt;BMJDCPAI_00756&lt;/b&gt;&lt;br&gt;Outer membrane protein assembly factor BamA&lt;br&gt;Location: 341012 - 342917" locus_tag="BMJDCPAI_00756" class="clusterblast-orf" id="dummy-2_q9_0_all"  />
<polygon points="181,40 234,40 239,35 234,30 181,30 181,40 " style="fill:#15d8d8; stroke-width:1; stroke:black; " description="&lt;b&gt;BMJDCPAI_00757&lt;/b&gt;&lt;br&gt;hypothetical protein&lt;br&gt;Location: 342916 - 346747" locus_tag="BMJDCPAI_00757" class="clusterblast-orf" id="dummy-2_q10_0_all"  />
<polygon points="239,40 246,40 251,35 246,30 239,30 239,40 " style="fill:white; stroke-width:1; stroke:black; " description="&lt;b&gt;BMJDCPAI_00758&lt;/b&gt;&lt;br&gt;3-beta-hydroxysteroid dehydrogenase&lt;br&gt;Location: 346756 - 347506" locus_tag="BMJDCPAI_00758" class="clusterblast-orf" id="dummy-2_q11_0_all"  />
<polygon points="251,40 255,40 260,35 255,30 251,30 251,40 " style="fill:white; stroke-width:1; stroke:black; " description="&lt;b&gt;BMJDCPAI_00759&lt;/b&gt;&lt;br&gt;Short-chain-enoyl-CoA hydratase&lt;br&gt;Location: 347502 - 348117" locus_tag="BMJDCPAI_00759" class="clusterblast-orf" id="dummy-2_q12_0_all"  />
<polygon points="261,40 261,40 266,35 261,30 261,30 261,40 " style="fill:white; stroke-width:1; stroke:black; " description="&lt;b&gt;BMJDCPAI_00760&lt;/b&gt;&lt;br&gt;hypothetical protein&lt;br&gt;Location: 348155 - 348515" locus_tag="BMJDCPAI_00760" class="clusterblast-orf" id="dummy-2_q13_0_all"  />
<polygon points="267,40 269,40 274,35 269,30 267,30 267,40 " style="fill:white; stroke-width:1; stroke:black; " description="&lt;b&gt;BMJDCPAI_00761&lt;/b&gt;&lt;br&gt;hypothetical protein&lt;br&gt;Location: 348550 - 349069" locus_tag="BMJDCPAI_00761" class="clusterblast-orf" id="dummy-2_q14_0_all"  />
<polygon points="275,40 277,40 282,35 277,30 275,30 275,40 " style="fill:white; stroke-width:1; stroke:black; " description="&lt;b&gt;BMJDCPAI_00762&lt;/b&gt;&lt;br&gt;Putative low molecular weight protein-tyrosine-phosphatase&lt;br&gt;Location: 349118 - 349556" locus_tag="BMJDCPAI_00762" class="clusterblast-orf" id="dummy-2_q15_0_all"  />
<polygon points="282,35 287,30 287,30 287,40 287,40 282,35 " style="fill:white; stroke-width:1; stroke:black; " description="&lt;b&gt;BMJDCPAI_00763&lt;/b&gt;&lt;br&gt;hypothetical protein&lt;br&gt;Location: 349568 - 349880" locus_tag="BMJDCPAI_00763" class="clusterblast-orf" id="dummy-2_q16_0_all"  />
<polygon points="290,35 295,30 301,30 301,40 295,40 290,35 " style="fill:#7715d8; stroke-width:1; stroke:black; " description="&lt;b&gt;BMJDCPAI_00764&lt;/b&gt;&lt;br&gt;hypothetical protein&lt;br&gt;Location: 350082 - 350793" locus_tag="BMJDCPAI_00764" class="clusterblast-orf" id="dummy-2_q17_0_all"  />
<polygon points="301,35 306,30 369,30 369,40 306,40 301,35 " style="fill:#d87715; stroke-width:1; stroke:black; " description="&lt;b&gt;BMJDCPAI_00765&lt;/b&gt;&lt;br&gt;D-alanine--D-alanyl carrier protein ligase&lt;br&gt;Location: 350789 - 355316" locus_tag="BMJDCPAI_00765" class="clusterblast-orf" id="dummy-2_q18_0_all"  />
<polygon points="369,35 374,30 384,30 384,40 374,40 369,35 " style="fill:#15d815; stroke-width:1; stroke:black; " description="&lt;b&gt;BMJDCPAI_00766&lt;/b&gt;&lt;br&gt;hypothetical protein&lt;br&gt;Location: 355325 - 356312" locus_tag="BMJDCPAI_00766" class="clusterblast-orf" id="dummy-2_q19_0_all"  />
<polygon points="384,35 389,30 480,30 480,40 389,40 384,35 " style="fill:#1577d8; stroke-width:1; stroke:black; " description="&lt;b&gt;BMJDCPAI_00767&lt;/b&gt;&lt;br&gt;hypothetical protein&lt;br&gt;Location: 356308 - 362641" locus_tag="BMJDCPAI_00767" class="clusterblast-orf" id="dummy-2_q20_0_all"  />
<polygon points="480,35 485,30 503,30 503,40 485,40 480,35 " style="fill:#d815d8; stroke-width:1; stroke:black; " description="&lt;b&gt;BMJDCPAI_00768&lt;/b&gt;&lt;br&gt;hypothetical protein&lt;br&gt;Location: 362637 - 364146" locus_tag="BMJDCPAI_00768" class="clusterblast-orf" id="dummy-2_q21_0_all"  />
<polygon points="503,35 508,30 524,30 524,40 508,40 503,35 " style="fill:#d8d815; stroke-width:1; stroke:black; " description="&lt;b&gt;BMJDCPAI_00769&lt;/b&gt;&lt;br&gt;hypothetical protein&lt;br&gt;Location: 364154 - 365519" locus_tag="BMJDCPAI_00769" class="clusterblast-orf" id="dummy-2_q22_0_all"  />
<polygon points="524,35 529,30 538,30 538,40 529,40 524,35 " style="fill:#15d877; stroke-width:1; stroke:black; " description="&lt;b&gt;BMJDCPAI_00770&lt;/b&gt;&lt;br&gt;hypothetical protein&lt;br&gt;Location: 365535 - 366423" locus_tag="BMJDCPAI_00770" class="clusterblast-orf" id="dummy-2_q23_0_all"  />
<polygon points="540,35 543,30 543,40 540,35 " style="fill:white; stroke-width:1; stroke:black; " description="&lt;b&gt;BMJDCPAI_00771&lt;/b&gt;&lt;br&gt;hypothetical protein&lt;br&gt;Location: 366563 - 366779" locus_tag="BMJDCPAI_00771" class="clusterblast-orf" id="dummy-2_q24_0_all"  />
<polygon points="543,35 548,30 568,30 568,40 548,40 543,35 " style="fill:white; stroke-width:1; stroke:black; " description="&lt;b&gt;BMJDCPAI_00772&lt;/b&gt;&lt;br&gt;3-(3-hydroxy-phenyl)propionate/3-hydroxycinnamic acid hydroxylase&lt;br&gt;Location: 366771 - 368394" locus_tag="BMJDCPAI_00772" class="clusterblast-orf" id="dummy-2_q25_0_all"  />
<polygon points="568,35 571,30 571,40 568,35 " style="fill:white; stroke-width:1; stroke:black; " description="&lt;b&gt;BMJDCPAI_00773&lt;/b&gt;&lt;br&gt;hypothetical protein&lt;br&gt;Location: 368390 - 368594" locus_tag="BMJDCPAI_00773" class="clusterblast-orf" id="dummy-2_q26_0_all"  />
<polygon points="571,35 576,30 585,30 585,40 576,40 571,35 " style="fill:white; stroke-width:1; stroke:black; " description="&lt;b&gt;BMJDCPAI_00774&lt;/b&gt;&lt;br&gt;hypothetical protein&lt;br&gt;Location: 368590 - 369541" locus_tag="BMJDCPAI_00774" class="clusterblast-orf" id="dummy-2_q27_0_all"  />
<polygon points="586,35 591,30 605,30 605,40 591,40 586,35 " style="fill:white; stroke-width:1; stroke:black; " description="&lt;b&gt;BMJDCPAI_00775&lt;/b&gt;&lt;br&gt;hypothetical protein&lt;br&gt;Location: 369614 - 370862" locus_tag="BMJDCPAI_00775" class="clusterblast-orf" id="dummy-2_q28_0_all"  />
<polygon points="605,35 610,30 618,30 618,40 610,40 605,35 " style="fill:white; stroke-width:1; stroke:black; " description="&lt;b&gt;BMJDCPAI_00776&lt;/b&gt;&lt;br&gt;Ribonuclease BN&lt;br&gt;Location: 370871 - 371717" locus_tag="BMJDCPAI_00776" class="clusterblast-orf" id="dummy-2_q29_0_all"  />
<polygon points="618,35 623,30 639,30 639,40 623,40 618,35 " style="fill:white; stroke-width:1; stroke:black; " description="&lt;b&gt;BMJDCPAI_00777&lt;/b&gt;&lt;br&gt;Homogentisate 1,2-dioxygenase&lt;br&gt;Location: 371717 - 373073" locus_tag="BMJDCPAI_00777" class="clusterblast-orf" id="dummy-2_q30_0_all"  />
<polygon points="640,40 642,40 647,35 642,30 640,30 640,40 " style="fill:white; stroke-width:1; stroke:black; " description="&lt;b&gt;BMJDCPAI_00778&lt;/b&gt;&lt;br&gt;hypothetical protein&lt;br&gt;Location: 373167 - 373629" locus_tag="BMJDCPAI_00778" class="clusterblast-orf" id="dummy-2_q31_0_all"  />
<polygon points="648,40 680,40 685,35 680,30 648,30 648,40 " style="fill:white; stroke-width:1; stroke:black; " description="&lt;b&gt;BMJDCPAI_00779&lt;/b&gt;&lt;br&gt;ATP-dependent RNA helicase HrpB&lt;br&gt;Location: 373662 - 376095" locus_tag="BMJDCPAI_00779" class="clusterblast-orf" id="dummy-2_q32_0_all"  />
<polygon points="685,35 690,30 698,30 698,40 690,40 685,35 " style="fill:#1515d8; stroke-width:1; stroke:black; " description="&lt;b&gt;BMJDCPAI_00780&lt;/b&gt;&lt;br&gt;hypothetical protein&lt;br&gt;Location: 376146 - 376974" locus_tag="BMJDCPAI_00780" class="clusterblast-orf" id="dummy-2_q33_0_all"  />
<polygon points="698,35 703,30 719,30 719,40 703,40 698,35 " style="fill:#d81577; stroke-width:1; stroke:black; " description="&lt;b&gt;BMJDCPAI_00781&lt;/b&gt;&lt;br&gt;cytosol aminopeptidase&lt;br&gt;Location: 376970 - 378371" locus_tag="BMJDCPAI_00781" class="clusterblast-orf" id="dummy-2_q34_0_all"  />
<polygon points="721,35 726,30 726,30 726,40 726,40 721,35 " style="fill:white; stroke-width:1; stroke:black; " description="&lt;b&gt;BMJDCPAI_00782&lt;/b&gt;&lt;br&gt;hypothetical protein&lt;br&gt;Location: 378455 - 378836" locus_tag="BMJDCPAI_00782" class="clusterblast-orf" id="dummy-2_q35_0_all"  />
<polygon points="732,35 737,30 738,30 738,40 737,40 732,35 " style="fill:white; stroke-width:1; stroke:black; " description="&lt;b&gt;BMJDCPAI_00783&lt;/b&gt;&lt;br&gt;hypothetical protein&lt;br&gt;Location: 379206 - 379590" locus_tag="BMJDCPAI_00783" class="clusterblast-orf" id="dummy-2_q36_0_all"  />
<polygon points="739,40 739,40 744,35 739,30 739,30 739,40 " style="fill:white; stroke-width:1; stroke:black; " description="&lt;b&gt;BMJDCPAI_00784&lt;/b&gt;&lt;br&gt;hypothetical protein&lt;br&gt;Location: 379671 - 379986" locus_tag="BMJDCPAI_00784" class="clusterblast-orf" id="dummy-2_q37_0_all"  />
<polygon points="745,40 745,40 750,35 745,30 745,30 745,40 " style="fill:white; stroke-width:1; stroke:black; " description="&lt;b&gt;BMJDCPAI_00785&lt;/b&gt;&lt;br&gt;hypothetical protein&lt;br&gt;Location: 380036 - 380420" locus_tag="BMJDCPAI_00785" class="clusterblast-orf" id="dummy-2_q38_0_all"  />
<polygon points="753,40 761,40 766,35 761,30 753,30 753,40 " style="fill:white; stroke-width:1; stroke:black; " description="&lt;b&gt;BMJDCPAI_00786&lt;/b&gt;&lt;br&gt;hypothetical protein&lt;br&gt;Location: 380566 - 381478" locus_tag="BMJDCPAI_00786" class="clusterblast-orf" id="dummy-2_q39_0_all"  />
<polygon points="768,40 775,40 780,35 775,30 768,30 768,40 " style="fill:white; stroke-width:1; stroke:black; " description="&lt;b&gt;BMJDCPAI_00787&lt;/b&gt;&lt;br&gt;tRNA-modifying protein YgfZ&lt;br&gt;Location: 381595 - 382351" locus_tag="BMJDCPAI_00787" class="clusterblast-orf" id="dummy-2_q40_0_all"  />
</g>
<g label="NZ_JWLC01000011" description="NZ_JWLC01000011 (38003-90033): Leisingera sp. ANG-M1 contig 11, whole genome ... (25% of genes show similarity), NRPS-like,T1PKS" class="clusterblast-cluster"  >
<text x="5" y="70" class="clusterblast-acc"  >
<a xlink:href="https://antismash-db.secondarymetabolites.org/area.html?record=NZ_JWLC01000011&amp;start=38003&amp;end=90033" target="_blank">NZ_JWLC01000011 (38003-90033)</a>: Leisingera sp. ANG-M1 contig 11, whole genome ... (25% of genes show similarity), NRPS-like,T1PKS</text>
<line x1="10" y1="85" x2="778.0" y2="85" style="stroke-width:1; stroke:grey; "  />
</g>
<g id="a2_000"  >
<polygon points="1,90 15,90 20,85 15,80 1,80 1,90 " style="fill:white; stroke-width:1; stroke:black; " description="&lt;b&gt;RA19_RS10115&lt;/b&gt;&lt;br&gt;LysR family transcriptional regulator&lt;br&gt;Location: 89769 - 88513" locus_tag="RA19_RS10115" class="clusterblast-orf" id="dummy-2_h2_5_0"  />
</g>
<g id="a2_001"  >
<polygon points="21,85 26,80 29,80 29,90 26,90 21,85 " style="fill:white; stroke-width:1; stroke:black; " description="&lt;b&gt;RA19_RS26545&lt;/b&gt;&lt;br&gt;hypothetical protein&lt;br&gt;Location: 88459 - 87920" locus_tag="RA19_RS26545" class="clusterblast-orf" id="dummy-2_h2_5_1"  />
</g>
<g id="a2_002"  >
<polygon points="30,90 30,90 35,85 30,80 30,80 30,90 " style="fill:white; stroke-width:1; stroke:black; " description="&lt;b&gt;RA19_RS26540&lt;/b&gt;&lt;br&gt;hypothetical protein&lt;br&gt;Location: 87831 - 87493" locus_tag="RA19_RS26540" class="clusterblast-orf" id="dummy-2_h2_5_2"  />
</g>
<g id="a2_003"  >
<polygon points="57,90 68,90 73,85 68,80 57,80 57,90 " style="fill:white; stroke-width:1; stroke:black; " description="&lt;b&gt;RA19_RS10095&lt;/b&gt;&lt;br&gt;hypothetical protein&lt;br&gt;Location: 86047 - 85034" locus_tag="RA19_RS10095" class="clusterblast-orf" id="dummy-2_h2_5_3"  />
</g>
<g id="a2_004"  >
<polygon points="74,90 81,90 86,85 81,80 74,80 74,90 " style="fill:white; stroke-width:1; stroke:black; " description="&lt;b&gt;RA19_RS10090&lt;/b&gt;&lt;br&gt;TIGR03084 family protein&lt;br&gt;Location: 84933 - 84133" locus_tag="RA19_RS10090" class="clusterblast-orf" id="dummy-2_h2_5_4"  />
</g>
<g id="a2_005"  >
<polygon points="90,85 95,80 103,80 103,90 95,90 90,85 " style="fill:white; stroke-width:1; stroke:black; " description="&lt;b&gt;RA19_RS10085&lt;/b&gt;&lt;br&gt;2-keto-3-deoxy-galactonokinase&lt;br&gt;Location: 83912 - 83070" locus_tag="RA19_RS10085" class="clusterblast-orf" id="dummy-2_h2_5_5"  />
</g>
<g id="a2_006"  >
<polygon points="109,90 120,90 125,85 120,80 109,80 109,90 " style="fill:white; stroke-width:1; stroke:black; " description="&lt;b&gt;RA19_RS10080&lt;/b&gt;&lt;br&gt;AraC family transcriptional regulator&lt;br&gt;Location: 82629 - 81619" locus_tag="RA19_RS10080" class="clusterblast-orf" id="dummy-2_h2_5_6"  />
</g>
<g id="a2_007"  >
<polygon points="130,90 137,90 142,85 137,80 130,80 130,90 " style="fill:white; stroke-width:1; stroke:black; " description="&lt;b&gt;RA19_RS10075&lt;/b&gt;&lt;br&gt;sugar transferase&lt;br&gt;Location: 81237 - 80452" locus_tag="RA19_RS10075" class="clusterblast-orf" id="dummy-2_h2_5_7"  />
</g>
<g id="a2_008"  >
<polygon points="144,90 152,90 157,85 152,80 144,80 144,90 " style="fill:#15d877; stroke-width:1; stroke:black; " description="&lt;b&gt;RA19_RS10070&lt;/b&gt;&lt;br&gt;CpsD/CapB family tyrosine-protein kinase&lt;br&gt;Location: 80376 - 79468&lt;br&gt;&lt;br&gt;&lt;b&gt;BlastP hit with BMJDCPAI_00770&lt;/b&gt;&lt;br&gt;Percentage identity: 32&lt;br&gt;Percentage coverage: 80&lt;br&gt;BLAST bit score: 122&lt;br&gt;E-value: 1.12e-30" locus_tag="RA19_RS10070" class="clusterblast-orf" id="dummy-2_h2_5_8"  />
</g>
<g id="a2_009"  >
<polygon points="159,90 173,90 178,85 173,80 159,80 159,90 " style="fill:white; stroke-width:1; stroke:black; " description="&lt;b&gt;RA19_RS10065&lt;/b&gt;&lt;br&gt;chain-length determining protein&lt;br&gt;Location: 79361 - 78123" locus_tag="RA19_RS10065" class="clusterblast-orf" id="dummy-2_h2_5_9"  />
</g>
<g id="a2_0010"  >
<polygon points="180,85 185,80 201,80 201,90 185,90 180,85 " style="fill:white; stroke-width:1; stroke:black; " description="&lt;b&gt;RA19_RS10060&lt;/b&gt;&lt;br&gt;oligosaccharide flippase family protein&lt;br&gt;Location: 77988 - 76618" locus_tag="RA19_RS10060" class="clusterblast-orf" id="dummy-2_h2_5_10"  />
</g>
<g id="a2_0011"  >
<polygon points="204,90 217,90 222,85 217,80 204,80 204,90 " style="fill:white; stroke-width:1; stroke:black; " description="&lt;b&gt;RA19_RS10055&lt;/b&gt;&lt;br&gt;glycosyltransferase&lt;br&gt;Location: 76383 - 75175" locus_tag="RA19_RS10055" class="clusterblast-orf" id="dummy-2_h2_5_11"  />
</g>
<g id="a2_0012"  >
<polygon points="225,85 230,80 238,80 238,90 230,90 225,85 " style="fill:white; stroke-width:1; stroke:black; " description="&lt;b&gt;RA19_RS10050&lt;/b&gt;&lt;br&gt;glycosyltransferase family 2 protein&lt;br&gt;Location: 74994 - 74158" locus_tag="RA19_RS10050" class="clusterblast-orf" id="dummy-2_h2_5_12"  />
</g>
<g id="a2_0013"  >
<polygon points="238,85 243,80 276,80 276,90 243,90 238,85 " style="fill:white; stroke-width:1; stroke:black; " description="&lt;b&gt;RA19_RS10045&lt;/b&gt;&lt;br&gt;hypothetical protein&lt;br&gt;Location: 74161 - 71648" locus_tag="RA19_RS10045" class="clusterblast-orf" id="dummy-2_h2_5_13"  />
</g>
<g id="a2_0014"  >
<polygon points="276,85 281,80 290,80 290,90 281,90 276,85 " style="fill:white; stroke-width:1; stroke:black; " description="&lt;b&gt;RA19_RS10040&lt;/b&gt;&lt;br&gt;hypothetical protein&lt;br&gt;Location: 71651 - 70719" locus_tag="RA19_RS10040" class="clusterblast-orf" id="dummy-2_h2_5_14"  />
</g>
<g id="a2_0015"  >
<polygon points="290,85 295,80 301,80 301,90 295,90 290,85 " style="fill:#7715d8; stroke-width:1; stroke:black; " description="&lt;b&gt;RA19_RS10035&lt;/b&gt;&lt;br&gt;4'-phosphopantetheinyl transferase superfamily protein&lt;br&gt;Location: 70719 - 70030&lt;br&gt;&lt;br&gt;&lt;b&gt;BlastP hit with BMJDCPAI_00764&lt;/b&gt;&lt;br&gt;Percentage identity: 43&lt;br&gt;Percentage coverage: 90&lt;br&gt;BLAST bit score: 160&lt;br&gt;E-value: 3.41e-47" locus_tag="RA19_RS10035" class="clusterblast-orf" id="dummy-2_h2_5_15"  />
</g>
<g id="a2_0016"  >
<polygon points="301,85 306,80 370,80 370,90 306,90 301,85 " style="fill:#d87715; stroke-width:1; stroke:black; " description="&lt;b&gt;RA19_RS10030&lt;/b&gt;&lt;br&gt;LLM class flavin-dependent oxidoreductase&lt;br&gt;Location: 70033 - 65468&lt;br&gt;&lt;br&gt;&lt;b&gt;BlastP hit with BMJDCPAI_00765&lt;/b&gt;&lt;br&gt;Percentage identity: 52&lt;br&gt;Percentage coverage: 102&lt;br&gt;BLAST bit score: 1469&lt;br&gt;E-value: 0.0" locus_tag="RA19_RS10030" class="clusterblast-orf" id="dummy-2_h2_5_16"  />
</g>
<g id="a2_0017"  >
<polygon points="370,85 375,80 385,80 385,90 375,90 370,85 " style="fill:#15d815; stroke-width:1; stroke:black; " description="&lt;b&gt;RA19_RS10025&lt;/b&gt;&lt;br&gt;glycosyltransferase family 2 protein&lt;br&gt;Location: 65471 - 64455&lt;br&gt;&lt;br&gt;&lt;b&gt;BlastP hit with BMJDCPAI_00766&lt;/b&gt;&lt;br&gt;Percentage identity: 51&lt;br&gt;Percentage coverage: 98&lt;br&gt;BLAST bit score: 318&lt;br&gt;E-value: 4.48e-106" locus_tag="RA19_RS10025" class="clusterblast-orf" id="dummy-2_h2_5_17"  />
</g>
<g id="a2_0018"  >
<polygon points="385,85 390,80 483,80 483,90 390,90 385,85 " style="fill:#1577d8; stroke-width:1; stroke:black; " description="&lt;b&gt;RA19_RS10020&lt;/b&gt;&lt;br&gt;type I polyketide synthase&lt;br&gt;Location: 64450 - 58004&lt;br&gt;&lt;br&gt;&lt;b&gt;BlastP hit with BMJDCPAI_00767&lt;/b&gt;&lt;br&gt;Percentage identity: 59&lt;br&gt;Percentage coverage: 101&lt;br&gt;BLAST bit score: 2449&lt;br&gt;E-value: 0.0" locus_tag="RA19_RS10020" class="clusterblast-orf" id="dummy-2_h2_5_18"  />
</g>
<g id="a2_0019"  >
<polygon points="487,85 492,80 509,80 509,90 492,90 487,85 " style="fill:#d815d8; stroke-width:1; stroke:black; " description="&lt;b&gt;RA19_RS10015&lt;/b&gt;&lt;br&gt;membrane protein&lt;br&gt;Location: 57743 - 56280&lt;br&gt;&lt;br&gt;&lt;b&gt;BlastP hit with BMJDCPAI_00768&lt;/b&gt;&lt;br&gt;Percentage identity: 47&lt;br&gt;Percentage coverage: 91&lt;br&gt;BLAST bit score: 387&lt;br&gt;E-value: 3.15e-128" locus_tag="RA19_RS10015" class="clusterblast-orf" id="dummy-2_h2_5_19"  />
</g>
<g id="a2_0020"  >
<polygon points="512,90 519,90 524,85 519,80 512,80 512,90 " style="fill:white; stroke-width:1; stroke:black; " description="&lt;b&gt;RA19_RS10010&lt;/b&gt;&lt;br&gt;WecB/TagA/CpsF family glycosyltransferase&lt;br&gt;Location: 56089 - 55337" locus_tag="RA19_RS10010" class="clusterblast-orf" id="dummy-2_h2_5_20"  />
</g>
<g id="a2_0021"  >
<polygon points="527,85 532,80 541,80 541,90 532,90 527,85 " style="fill:white; stroke-width:1; stroke:black; " description="&lt;b&gt;RA19_RS10005&lt;/b&gt;&lt;br&gt;glycosyltransferase&lt;br&gt;Location: 55133 - 54183" locus_tag="RA19_RS10005" class="clusterblast-orf" id="dummy-2_h2_5_21"  />
</g>
<g id="a2_0022"  >
<polygon points="541,85 546,80 556,80 556,90 546,90 541,85 " style="fill:white; stroke-width:1; stroke:black; " description="&lt;b&gt;RA19_RS10000&lt;/b&gt;&lt;br&gt;glycosyltransferase family 2 protein&lt;br&gt;Location: 54186 - 53194" locus_tag="RA19_RS10000" class="clusterblast-orf" id="dummy-2_h2_5_22"  />
</g>
<g id="a2_0023"  >
<polygon points="559,90 569,90 574,85 569,80 559,80 559,90 " style="fill:white; stroke-width:1; stroke:black; " description="&lt;b&gt;RA19_RS09995&lt;/b&gt;&lt;br&gt;glucokinase&lt;br&gt;Location: 52997 - 52017" locus_tag="RA19_RS09995" class="clusterblast-orf" id="dummy-2_h2_5_23"  />
</g>
<g id="a2_0024"  >
<polygon points="575,85 580,80 630,80 630,90 580,90 575,85 " style="fill:#15d8d8; stroke-width:1; stroke:black; " description="&lt;b&gt;RA19_RS09990&lt;/b&gt;&lt;br&gt;translocation/assembly module TamB&lt;br&gt;Location: 51965 - 48342&lt;br&gt;&lt;br&gt;&lt;b&gt;BlastP hit with BMJDCPAI_00757&lt;/b&gt;&lt;br&gt;Percentage identity: 34&lt;br&gt;Percentage coverage: 103&lt;br&gt;BLAST bit score: 597&lt;br&gt;E-value: 1.97e-190" locus_tag="RA19_RS09990" class="clusterblast-orf" id="dummy-2_h2_5_24"  />
</g>
<g id="a2_0025"  >
<polygon points="630,85 635,80 657,80 657,90 635,90 630,85 " style="fill:#77d815; stroke-width:1; stroke:black; " description="&lt;b&gt;RA19_RS09985&lt;/b&gt;&lt;br&gt;BamA/TamA family outer membrane protein&lt;br&gt;Location: 48345 - 46543&lt;br&gt;&lt;br&gt;&lt;b&gt;BlastP hit with BMJDCPAI_00756&lt;/b&gt;&lt;br&gt;Percentage identity: 43&lt;br&gt;Percentage coverage: 95&lt;br&gt;BLAST bit score: 436&lt;br&gt;E-value: 3.42e-144" locus_tag="RA19_RS09985" class="clusterblast-orf" id="dummy-2_h2_5_25"  />
</g>
<g id="a2_0026"  >
<polygon points="665,90 669,85 665,80 665,90 " style="fill:white; stroke-width:1; stroke:black; " description="&lt;b&gt;RA19_RS09980&lt;/b&gt;&lt;br&gt;hypothetical protein&lt;br&gt;Location: 46042 - 45740" locus_tag="RA19_RS09980" class="clusterblast-orf" id="dummy-2_h2_5_26"  />
</g>
<g id="a2_0027"  >
<polygon points="670,90 674,90 679,85 674,80 670,80 670,90 " style="fill:white; stroke-width:1; stroke:black; " description="&lt;b&gt;RA19_RS09975&lt;/b&gt;&lt;br&gt;hypothetical protein&lt;br&gt;Location: 45687 - 45079" locus_tag="RA19_RS09975" class="clusterblast-orf" id="dummy-2_h2_5_27"  />
</g>
<g id="a2_0028"  >
<polygon points="680,85 685,80 696,80 696,90 685,90 680,85 " style="fill:#d81515; stroke-width:1; stroke:black; " description="&lt;b&gt;RA19_RS09970&lt;/b&gt;&lt;br&gt;glyceraldehyde-3-phosphate dehydrogenase&lt;br&gt;Location: 45024 - 44005&lt;br&gt;&lt;br&gt;&lt;b&gt;BlastP hit with BMJDCPAI_00751&lt;/b&gt;&lt;br&gt;Percentage identity: 37&lt;br&gt;Percentage coverage: 99&lt;br&gt;BLAST bit score: 222&lt;br&gt;E-value: 2.08e-68" locus_tag="RA19_RS09970" class="clusterblast-orf" id="dummy-2_h2_5_28"  />
</g>
<g id="a2_0029"  >
<polygon points="697,85 702,80 702,80 702,90 702,90 697,85 " style="fill:white; stroke-width:1; stroke:black; " description="&lt;b&gt;RA19_RS09965&lt;/b&gt;&lt;br&gt;hypothetical protein&lt;br&gt;Location: 43919 - 43605" locus_tag="RA19_RS09965" class="clusterblast-orf" id="dummy-2_h2_5_29"  />
</g>
<g id="a2_0030"  >
<polygon points="703,85 708,80 715,80 715,90 708,90 703,85 " style="fill:white; stroke-width:1; stroke:black; " description="&lt;b&gt;RA19_RS09960&lt;/b&gt;&lt;br&gt;helix-turn-helix domain-containing protein&lt;br&gt;Location: 43523 - 42747" locus_tag="RA19_RS09960" class="clusterblast-orf" id="dummy-2_h2_5_30"  />
</g>
<g id="a2_0031"  >
<polygon points="718,90 735,90 740,85 735,80 718,80 718,90 " style="fill:white; stroke-width:1; stroke:black; " description="&lt;b&gt;RA19_RS09955&lt;/b&gt;&lt;br&gt;glutamine synthetase&lt;br&gt;Location: 42533 - 41085" locus_tag="RA19_RS09955" class="clusterblast-orf" id="dummy-2_h2_5_31"  />
</g>
<g id="a2_0032"  >
<polygon points="743,90 743,90 748,85 743,80 743,80 743,90 " style="fill:white; stroke-width:1; stroke:black; " description="&lt;b&gt;RA19_RS09950&lt;/b&gt;&lt;br&gt;glycine cleavage system protein GcvH&lt;br&gt;Location: 40886 - 40527" locus_tag="RA19_RS09950" class="clusterblast-orf" id="dummy-2_h2_5_32"  />
</g>
<g id="a2_0033"  >
<polygon points="750,85 755,80 764,80 764,90 755,90 750,85 " style="fill:white; stroke-width:1; stroke:black; " description="&lt;b&gt;RA19_RS09945&lt;/b&gt;&lt;br&gt;glyoxylate/hydroxypyruvate reductase A&lt;br&gt;Location: 40413 - 39478" locus_tag="RA19_RS09945" class="clusterblast-orf" id="dummy-2_h2_5_33"  />
</g>
<g id="a2_0034"  >
<polygon points="766,85 771,80 778,80 778,90 771,90 766,85 " style="fill:white; stroke-width:1; stroke:black; " description="&lt;b&gt;RA19_RS09940&lt;/b&gt;&lt;br&gt;tRNA pseudouridine(38-40) synthase TruA&lt;br&gt;Location: 39338 - 38571" locus_tag="RA19_RS09940" class="clusterblast-orf" id="dummy-2_h2_5_34"  />
</g>
</svg>
