<svg xmlns="http://www.w3.org/2000/svg" xmlns:xlink="http://www.w3.org/1999/xlink" version="1.1" x="0" y="0" height="230" width="800" viewBox="0 0 800 230" preserveAspectRatio="none"  >
<g label="Query sequence" class="clusterblast-cluster"  >
<text x="5" y="20" class="clusterblast-acc"  >
Query sequence</text>
<line x1="10" y1="35" x2="778.0" y2="35" style="stroke-width:1; stroke:grey; "  />
<polygon points="10,35 15,30 26,30 26,40 15,40 10,35 " style="fill:white; stroke-width:1; stroke:black; " description="&lt;b&gt;BMJDCPAI_00522&lt;/b&gt;&lt;br&gt;L-cystine-binding protein FliY&lt;br&gt;Location: 105047 - 105875" locus_tag="BMJDCPAI_00522" class="clusterblast-orf" id="dummy-1_q0_0_all"  />
<polygon points="26,35 31,30 42,30 42,40 31,40 26,35 " style="fill:white; stroke-width:1; stroke:black; " description="&lt;b&gt;BMJDCPAI_00523&lt;/b&gt;&lt;br&gt;hypothetical protein&lt;br&gt;Location: 105894 - 106731" locus_tag="BMJDCPAI_00523" class="clusterblast-orf" id="dummy-1_q1_0_all"  />
<polygon points="45,35 50,30 60,30 60,40 50,40 45,35 " style="fill:#d81515; stroke-width:1; stroke:black; " description="&lt;b&gt;BMJDCPAI_00524&lt;/b&gt;&lt;br&gt;3-deoxy-manno-octulosonate cytidylyltransferase&lt;br&gt;Location: 106856 - 107672" locus_tag="BMJDCPAI_00524" class="clusterblast-orf" id="dummy-1_q2_0_all"  />
<polygon points="60,35 65,30 76,30 76,40 65,40 60,35 " style="fill:#3cd815; stroke-width:1; stroke:black; " description="&lt;b&gt;BMJDCPAI_00525&lt;/b&gt;&lt;br&gt;2-dehydro-3-deoxyphosphooctonate aldolase&lt;br&gt;Location: 107668 - 108505" locus_tag="BMJDCPAI_00525" class="clusterblast-orf" id="dummy-1_q3_0_all"  />
<polygon points="78,35 83,30 144,30 144,40 83,40 78,35 " style="fill:white; stroke-width:1; stroke:black; " description="&lt;b&gt;BMJDCPAI_00526&lt;/b&gt;&lt;br&gt;DNA polymerase III subunit alpha&lt;br&gt;Location: 108572 - 112010" locus_tag="BMJDCPAI_00526" class="clusterblast-orf" id="dummy-1_q4_0_all"  />
<polygon points="147,40 172,40 177,35 172,30 147,30 147,40 " style="fill:#1563d8; stroke-width:1; stroke:black; " description="&lt;b&gt;BMJDCPAI_00527&lt;/b&gt;&lt;br&gt;Galactose/methyl galactoside import ATP-binding protein MglA&lt;br&gt;Location: 112172 - 113705" locus_tag="BMJDCPAI_00527" class="clusterblast-orf" id="dummy-1_q5_0_all"  />
<polygon points="177,40 193,40 198,35 193,30 177,30 177,40 " style="fill:#b115d8; stroke-width:1; stroke:black; " description="&lt;b&gt;BMJDCPAI_00528&lt;/b&gt;&lt;br&gt;hypothetical protein&lt;br&gt;Location: 113701 - 114787" locus_tag="BMJDCPAI_00528" class="clusterblast-orf" id="dummy-1_q6_0_all"  />
<polygon points="198,40 211,40 216,35 211,30 198,30 198,40 " style="fill:#d88a15; stroke-width:1; stroke:black; " description="&lt;b&gt;BMJDCPAI_00529&lt;/b&gt;&lt;br&gt;hypothetical protein&lt;br&gt;Location: 114783 - 115716" locus_tag="BMJDCPAI_00529" class="clusterblast-orf" id="dummy-1_q7_0_all"  />
<polygon points="216,40 232,40 237,35 232,30 216,30 216,40 " style="fill:#15d863; stroke-width:1; stroke:black; " description="&lt;b&gt;BMJDCPAI_00530&lt;/b&gt;&lt;br&gt;Purine-binding protein&lt;br&gt;Location: 115752 - 116829" locus_tag="BMJDCPAI_00530" class="clusterblast-orf" id="dummy-1_q8_0_all"  />
<polygon points="239,40 246,40 251,35 246,30 239,30 239,40 " style="fill:white; stroke-width:1; stroke:black; " description="&lt;b&gt;BMJDCPAI_00531&lt;/b&gt;&lt;br&gt;hypothetical protein&lt;br&gt;Location: 116926 - 117523" locus_tag="BMJDCPAI_00531" class="clusterblast-orf" id="dummy-1_q9_0_all"  />
<polygon points="251,35 256,30 273,30 273,40 256,40 251,35 " style="fill:#3c15d8; stroke-width:1; stroke:black; " description="&lt;b&gt;BMJDCPAI_00532&lt;/b&gt;&lt;br&gt;Chaperone protein DnaJ&lt;br&gt;Location: 117519 - 118677" locus_tag="BMJDCPAI_00532" class="clusterblast-orf" id="dummy-1_q10_0_all"  />
<polygon points="274,35 279,30 311,30 311,40 279,40 274,35 " style="fill:#d8158a; stroke-width:1; stroke:black; " description="&lt;b&gt;BMJDCPAI_00533&lt;/b&gt;&lt;br&gt;Chaperone protein DnaK&lt;br&gt;Location: 118748 - 120662" locus_tag="BMJDCPAI_00533" class="clusterblast-orf" id="dummy-1_q11_0_all"  />
<polygon points="314,35 319,30 353,30 353,40 319,40 314,35 " style="fill:white; stroke-width:1; stroke:black; " description="&lt;b&gt;BMJDCPAI_00534&lt;/b&gt;&lt;br&gt;Dipeptidyl carboxypeptidase&lt;br&gt;Location: 120830 - 122837" locus_tag="BMJDCPAI_00534" class="clusterblast-orf" id="dummy-1_q12_0_all"  />
<polygon points="354,35 359,30 379,30 379,40 359,40 354,35 " style="fill:white; stroke-width:1; stroke:black; " description="&lt;b&gt;BMJDCPAI_00535&lt;/b&gt;&lt;br&gt;putative MFS-type transporter YcaD&lt;br&gt;Location: 122903 - 124199" locus_tag="BMJDCPAI_00535" class="clusterblast-orf" id="dummy-1_q13_0_all"  />
<polygon points="383,40 398,40 403,35 398,30 383,30 383,40 " style="fill:#b1d815; stroke-width:1; stroke:black; " description="&lt;b&gt;BMJDCPAI_00536&lt;/b&gt;&lt;br&gt;1,3,6,8-tetrahydroxynaphthalene synthase&lt;br&gt;Location: 124395 - 125436" locus_tag="BMJDCPAI_00536" class="clusterblast-orf" id="dummy-1_q14_0_all"  />
<polygon points="403,40 408,40 413,35 408,30 403,30 403,40 " style="fill:#15d8d8; stroke-width:1; stroke:black; " description="&lt;b&gt;BMJDCPAI_00537&lt;/b&gt;&lt;br&gt;hypothetical protein&lt;br&gt;Location: 125432 - 125921" locus_tag="BMJDCPAI_00537" class="clusterblast-orf" id="dummy-1_q15_0_all"  />
<polygon points="414,40 426,40 431,35 426,30 414,30 414,40 " style="fill:white; stroke-width:1; stroke:black; " description="&lt;b&gt;BMJDCPAI_00538&lt;/b&gt;&lt;br&gt;UDP-glucose 4-epimerase&lt;br&gt;Location: 125991 - 126885" locus_tag="BMJDCPAI_00538" class="clusterblast-orf" id="dummy-1_q16_0_all"  />
<polygon points="431,35 436,30 479,30 479,40 436,40 431,35 " style="fill:white; stroke-width:1; stroke:black; " description="&lt;b&gt;BMJDCPAI_00539&lt;/b&gt;&lt;br&gt;4-methylaminobutanoate oxidase (formaldehyde-forming)&lt;br&gt;Location: 126888 - 129375" locus_tag="BMJDCPAI_00539" class="clusterblast-orf" id="dummy-1_q17_0_all"  />
<polygon points="482,35 487,30 491,30 491,40 487,40 482,35 " style="fill:white; stroke-width:1; stroke:black; " description="&lt;b&gt;BMJDCPAI_00540&lt;/b&gt;&lt;br&gt;hypothetical protein&lt;br&gt;Location: 129505 - 129967" locus_tag="BMJDCPAI_00540" class="clusterblast-orf" id="dummy-1_q18_0_all"  />
<polygon points="493,40 505,40 510,35 505,30 493,30 493,40 " style="fill:white; stroke-width:1; stroke:black; " description="&lt;b&gt;BMJDCPAI_00541&lt;/b&gt;&lt;br&gt;Pantothenate synthetase&lt;br&gt;Location: 130094 - 130940" locus_tag="BMJDCPAI_00541" class="clusterblast-orf" id="dummy-1_q19_0_all"  />
<polygon points="510,40 520,40 525,35 520,30 510,30 510,40 " style="fill:white; stroke-width:1; stroke:black; " description="&lt;b&gt;BMJDCPAI_00542&lt;/b&gt;&lt;br&gt;3-methyl-2-oxobutanoate hydroxymethyltransferase&lt;br&gt;Location: 130936 - 131746" locus_tag="BMJDCPAI_00542" class="clusterblast-orf" id="dummy-1_q20_0_all"  />
<polygon points="526,35 531,30 541,30 541,40 531,40 526,35 " style="fill:white; stroke-width:1; stroke:black; " description="&lt;b&gt;BMJDCPAI_00543&lt;/b&gt;&lt;br&gt;hypothetical protein&lt;br&gt;Location: 131766 - 132564" locus_tag="BMJDCPAI_00543" class="clusterblast-orf" id="dummy-1_q21_0_all"  />
<polygon points="552,35 557,30 567,30 567,40 557,40 552,35 " style="fill:white; stroke-width:1; stroke:black; " description="&lt;b&gt;BMJDCPAI_00544&lt;/b&gt;&lt;br&gt;Dihydroanticapsin 7-dehydrogenase&lt;br&gt;Location: 133115 - 133922" locus_tag="BMJDCPAI_00544" class="clusterblast-orf" id="dummy-1_q22_0_all"  />
<polygon points="567,35 572,30 587,30 587,40 572,40 567,35 " style="fill:white; stroke-width:1; stroke:black; " description="&lt;b&gt;BMJDCPAI_00545&lt;/b&gt;&lt;br&gt;Ribosomal RNA small subunit methyltransferase C&lt;br&gt;Location: 133918 - 134941" locus_tag="BMJDCPAI_00545" class="clusterblast-orf" id="dummy-1_q23_0_all"  />
<polygon points="587,35 592,30 594,30 594,40 592,40 587,35 " style="fill:white; stroke-width:1; stroke:black; " description="&lt;b&gt;BMJDCPAI_00546&lt;/b&gt;&lt;br&gt;ATP-dependent Clp protease adapter protein ClpS&lt;br&gt;Location: 134950 - 135286" locus_tag="BMJDCPAI_00546" class="clusterblast-orf" id="dummy-1_q24_0_all"  />
<polygon points="595,40 604,40 609,35 604,30 595,30 595,40 " style="fill:white; stroke-width:1; stroke:black; " description="&lt;b&gt;BMJDCPAI_00547&lt;/b&gt;&lt;br&gt;hypothetical protein&lt;br&gt;Location: 135378 - 136083" locus_tag="BMJDCPAI_00547" class="clusterblast-orf" id="dummy-1_q25_0_all"  />
<polygon points="612,40 644,40 649,35 644,30 612,30 612,40 " style="fill:white; stroke-width:1; stroke:black; " description="&lt;b&gt;BMJDCPAI_00548&lt;/b&gt;&lt;br&gt;hypothetical protein&lt;br&gt;Location: 136258 - 138166" locus_tag="BMJDCPAI_00548" class="clusterblast-orf" id="dummy-1_q26_0_all"  />
<polygon points="649,35 654,30 666,30 666,40 654,40 649,35 " style="fill:white; stroke-width:1; stroke:black; " description="&lt;b&gt;BMJDCPAI_00549&lt;/b&gt;&lt;br&gt;hypothetical protein&lt;br&gt;Location: 138162 - 139041" locus_tag="BMJDCPAI_00549" class="clusterblast-orf" id="dummy-1_q27_0_all"  />
<polygon points="670,40 674,40 679,35 674,30 670,30 670,40 " style="fill:white; stroke-width:1; stroke:black; " description="&lt;b&gt;BMJDCPAI_00550&lt;/b&gt;&lt;br&gt;Cytochrome c2&lt;br&gt;Location: 139263 - 139689" locus_tag="BMJDCPAI_00550" class="clusterblast-orf" id="dummy-1_q28_0_all"  />
<polygon points="680,35 685,30 704,30 704,40 685,40 680,35 " style="fill:white; stroke-width:1; stroke:black; " description="&lt;b&gt;BMJDCPAI_00551&lt;/b&gt;&lt;br&gt;Dihydrofolate synthase/folylpolyglutamate synthase&lt;br&gt;Location: 139745 - 141014" locus_tag="BMJDCPAI_00551" class="clusterblast-orf" id="dummy-1_q29_0_all"  />
<polygon points="704,35 709,30 722,30 722,40 709,40 704,35 " style="fill:white; stroke-width:1; stroke:black; " description="&lt;b&gt;BMJDCPAI_00552&lt;/b&gt;&lt;br&gt;Acetyl-coenzyme A carboxylase carboxyl transferase subunit beta&lt;br&gt;Location: 141015 - 141921" locus_tag="BMJDCPAI_00552" class="clusterblast-orf" id="dummy-1_q30_0_all"  />
<polygon points="723,35 728,30 740,30 740,40 728,40 723,35 " style="fill:white; stroke-width:1; stroke:black; " description="&lt;b&gt;BMJDCPAI_00553&lt;/b&gt;&lt;br&gt;hypothetical protein&lt;br&gt;Location: 141977 - 142868" locus_tag="BMJDCPAI_00553" class="clusterblast-orf" id="dummy-1_q31_0_all"  />
<polygon points="742,40 765,40 770,35 765,30 742,30 742,40 " style="fill:white; stroke-width:1; stroke:black; " description="&lt;b&gt;BMJDCPAI_00554&lt;/b&gt;&lt;br&gt;Cardiolipin synthase A&lt;br&gt;Location: 142978 - 144406" locus_tag="BMJDCPAI_00554" class="clusterblast-orf" id="dummy-1_q32_0_all"  />
</g>
<g label="NC_009485" description="NC_009485 (187463-228516): Bradyrhizobium sp. BTAi1, complete sequence (10% of genes show similarity), T3PKS" class="clusterblast-cluster"  >
<text x="5" y="70" class="clusterblast-acc"  >
<a xlink:href="https://antismash-db.secondarymetabolites.org/area.html?record=NC_009485&amp;start=187463&amp;end=228516" target="_blank">NC_009485 (187463-228516)</a>: Bradyrhizobium sp. BTAi1, complete sequence (10% of genes show similarity), T3PKS</text>
<line x1="10" y1="85" x2="778.0" y2="85" style="stroke-width:1; stroke:grey; "  />
</g>
<g id="a1_000"  >
<polygon points="0,85 5,80 18,80 18,90 5,90 0,85 " style="fill:white; stroke-width:1; stroke:black; " description="&lt;b&gt;BBTA_RS00870&lt;/b&gt;&lt;br&gt;16S rRNA (cytidine(1402)-2'-O)-methyltransferase&lt;br&gt;Location: 187629 - 188600" locus_tag="BBTA_RS00870" class="clusterblast-orf" id="dummy-1_h1_6_0"  />
</g>
<g id="a1_001"  >
<polygon points="26,90 43,90 48,85 43,80 26,80 26,90 " style="fill:white; stroke-width:1; stroke:black; " description="&lt;b&gt;BBTA_RS00875&lt;/b&gt;&lt;br&gt;penicillin-binding protein activator&lt;br&gt;Location: 189010 - 190161" locus_tag="BBTA_RS00875" class="clusterblast-orf" id="dummy-1_h1_6_1"  />
</g>
<g id="a1_002"  >
<polygon points="49,85 54,80 71,80 71,90 54,90 49,85 " style="fill:white; stroke-width:1; stroke:black; " description="&lt;b&gt;BBTA_RS00880&lt;/b&gt;&lt;br&gt;coproporphyrinogen III oxidase&lt;br&gt;Location: 190190 - 191347" locus_tag="BBTA_RS00880" class="clusterblast-orf" id="dummy-1_h1_6_2"  />
</g>
<g id="a1_003"  >
<polygon points="71,85 76,80 83,80 83,90 76,90 71,85 " style="fill:white; stroke-width:1; stroke:black; " description="&lt;b&gt;BBTA_RS00885&lt;/b&gt;&lt;br&gt;RdgB/HAM1 family non-canonical purine NTP pyrophosphatase&lt;br&gt;Location: 191334 - 191978" locus_tag="BBTA_RS00885" class="clusterblast-orf" id="dummy-1_h1_6_3"  />
</g>
<g id="a1_004"  >
<polygon points="83,85 88,80 97,80 97,90 88,90 83,85 " style="fill:white; stroke-width:1; stroke:black; " description="&lt;b&gt;BBTA_RS00890&lt;/b&gt;&lt;br&gt;ribonuclease PH&lt;br&gt;Location: 191975 - 192688" locus_tag="BBTA_RS00890" class="clusterblast-orf" id="dummy-1_h1_6_4"  />
</g>
<g id="a1_005"  >
<polygon points="101,90 117,90 122,85 117,80 101,80 101,90 " style="fill:white; stroke-width:1; stroke:black; " description="&lt;b&gt;BBTA_RS00895&lt;/b&gt;&lt;br&gt;heat-inducible transcriptional repressor HrcA&lt;br&gt;Location: 192863 - 193951" locus_tag="BBTA_RS00895" class="clusterblast-orf" id="dummy-1_h1_6_5"  />
</g>
<g id="a1_006"  >
<polygon points="124,90 131,90 136,85 131,80 124,80 124,90 " style="fill:white; stroke-width:1; stroke:black; " description="&lt;b&gt;BBTA_RS00900&lt;/b&gt;&lt;br&gt;nucleotide exchange factor GrpE&lt;br&gt;Location: 194084 - 194704" locus_tag="BBTA_RS00900" class="clusterblast-orf" id="dummy-1_h1_6_6"  />
</g>
<g id="a1_007"  >
<polygon points="139,85 144,80 152,80 152,90 144,90 139,85 " style="fill:white; stroke-width:1; stroke:black; " description="&lt;b&gt;BBTA_RS00905&lt;/b&gt;&lt;br&gt;bifunctional nicotinamidase/pyrazinamidase&lt;br&gt;Location: 194835 - 195548" locus_tag="BBTA_RS00905" class="clusterblast-orf" id="dummy-1_h1_6_7"  />
</g>
<g id="a1_008"  >
<polygon points="156,85 161,80 174,80 174,90 161,90 156,85 " style="fill:white; stroke-width:1; stroke:black; " description="&lt;b&gt;BBTA_RS00910&lt;/b&gt;&lt;br&gt;hypothetical protein&lt;br&gt;Location: 195715 - 196650" locus_tag="BBTA_RS00910" class="clusterblast-orf" id="dummy-1_h1_6_8"  />
</g>
<g id="a1_009"  >
<polygon points="183,90 215,90 220,85 215,80 183,80 183,90 " style="fill:#d8158a; stroke-width:1; stroke:black; " description="&lt;b&gt;BBTA_RS00915&lt;/b&gt;&lt;br&gt;molecular chaperone DnaK&lt;br&gt;Location: 197144 - 199039&lt;br&gt;&lt;br&gt;&lt;b&gt;BlastP hit with BMJDCPAI_00533&lt;/b&gt;&lt;br&gt;Percentage identity: 76&lt;br&gt;Percentage coverage: 100&lt;br&gt;BLAST bit score: 909&lt;br&gt;E-value: 0.0" locus_tag="BBTA_RS00915" class="clusterblast-orf" id="dummy-1_h1_6_9"  />
</g>
<g id="a1_0010"  >
<polygon points="223,90 239,90 244,85 239,80 223,80 223,90 " style="fill:#3c15d8; stroke-width:1; stroke:black; " description="&lt;b&gt;BBTA_RS00920&lt;/b&gt;&lt;br&gt;molecular chaperone DnaJ&lt;br&gt;Location: 199182 - 200309&lt;br&gt;&lt;br&gt;&lt;b&gt;BlastP hit with BMJDCPAI_00532&lt;/b&gt;&lt;br&gt;Percentage identity: 54&lt;br&gt;Percentage coverage: 98&lt;br&gt;BLAST bit score: 356&lt;br&gt;E-value: 1.73e-119" locus_tag="BBTA_RS00920" class="clusterblast-orf" id="dummy-1_h1_6_10"  />
</g>
<g id="a1_0011"  >
<polygon points="248,90 255,90 260,85 255,80 248,80 248,90 " style="fill:white; stroke-width:1; stroke:black; " description="&lt;b&gt;BBTA_RS00925&lt;/b&gt;&lt;br&gt;methyltransferase&lt;br&gt;Location: 200523 - 201125" locus_tag="BBTA_RS00925" class="clusterblast-orf" id="dummy-1_h1_6_11"  />
</g>
<g id="a1_0012"  >
<polygon points="261,90 267,90 272,85 267,80 261,80 261,90 " style="fill:white; stroke-width:1; stroke:black; " description="&lt;b&gt;BBTA_RS00930&lt;/b&gt;&lt;br&gt;NAD(P)H-dependent oxidoreductase&lt;br&gt;Location: 201171 - 201749" locus_tag="BBTA_RS00930" class="clusterblast-orf" id="dummy-1_h1_6_12"  />
</g>
<g id="a1_0013"  >
<polygon points="272,90 281,90 286,85 281,80 272,80 272,90 " style="fill:white; stroke-width:1; stroke:black; " description="&lt;b&gt;BBTA_RS00935&lt;/b&gt;&lt;br&gt;orotidine-5'-phosphate decarboxylase&lt;br&gt;Location: 201756 - 202487" locus_tag="BBTA_RS00935" class="clusterblast-orf" id="dummy-1_h1_6_13"  />
</g>
<g id="a1_0014"  >
<polygon points="287,90 288,90 293,85 288,80 287,80 287,90 " style="fill:white; stroke-width:1; stroke:black; " description="&lt;b&gt;BBTA_RS00940&lt;/b&gt;&lt;br&gt;DUF1330 domain-containing protein&lt;br&gt;Location: 202538 - 202840" locus_tag="BBTA_RS00940" class="clusterblast-orf" id="dummy-1_h1_6_14"  />
</g>
<g id="a1_0015"  >
<polygon points="295,90 306,90 311,85 306,80 295,80 295,90 " style="fill:white; stroke-width:1; stroke:black; " description="&lt;b&gt;BBTA_RS00945&lt;/b&gt;&lt;br&gt;4-hydroxy-tetrahydrodipicolinate reductase&lt;br&gt;Location: 202934 - 203752" locus_tag="BBTA_RS00945" class="clusterblast-orf" id="dummy-1_h1_6_15"  />
</g>
<g id="a1_0016"  >
<polygon points="311,90 318,90 323,85 318,80 311,80 311,90 " style="fill:white; stroke-width:1; stroke:black; " description="&lt;b&gt;BBTA_RS00950&lt;/b&gt;&lt;br&gt;2,3-bisphosphoglycerate-dependent phosphoglycerate mutase&lt;br&gt;Location: 203777 - 204400" locus_tag="BBTA_RS00950" class="clusterblast-orf" id="dummy-1_h1_6_16"  />
</g>
<g id="a1_0017"  >
<polygon points="330,85 335,80 347,80 347,90 335,90 330,85 " style="fill:white; stroke-width:1; stroke:black; " description="&lt;b&gt;BBTA_RS00955&lt;/b&gt;&lt;br&gt;methylated-DNA--[protein]-cysteine S-methyltransferase&lt;br&gt;Location: 204725 - 205624" locus_tag="BBTA_RS00955" class="clusterblast-orf" id="dummy-1_h1_6_17"  />
</g>
<g id="a1_0018"  >
<polygon points="352,85 357,80 362,80 362,90 357,90 352,85 " style="fill:white; stroke-width:1; stroke:black; " description="&lt;b&gt;BBTA_RS00960&lt;/b&gt;&lt;br&gt;DUF2244 domain-containing protein&lt;br&gt;Location: 205873 - 206406" locus_tag="BBTA_RS00960" class="clusterblast-orf" id="dummy-1_h1_6_18"  />
</g>
<g id="a1_0019"  >
<polygon points="362,90 373,90 378,85 373,80 362,80 362,90 " style="fill:white; stroke-width:1; stroke:black; " description="&lt;b&gt;BBTA_RS00965&lt;/b&gt;&lt;br&gt;endonuclease III&lt;br&gt;Location: 206405 - 207253" locus_tag="BBTA_RS00965" class="clusterblast-orf" id="dummy-1_h1_6_19"  />
</g>
<g id="a1_0020"  >
<polygon points="382,90 398,90 403,85 398,80 382,80 382,90 " style="fill:#b1d815; stroke-width:1; stroke:black; " description="&lt;b&gt;BBTA_RS00970&lt;/b&gt;&lt;br&gt;type III polyketide synthase&lt;br&gt;Location: 207464 - 208516&lt;br&gt;&lt;br&gt;&lt;b&gt;BlastP hit with BMJDCPAI_00536&lt;/b&gt;&lt;br&gt;Percentage identity: 54&lt;br&gt;Percentage coverage: 100&lt;br&gt;BLAST bit score: 358&lt;br&gt;E-value: 3.22e-121" locus_tag="BBTA_RS00970" class="clusterblast-orf" id="dummy-1_h1_6_20"  />
</g>
<g id="a1_0021"  >
<polygon points="403,90 407,90 412,85 407,80 403,80 403,90 " style="fill:#15d8d8; stroke-width:1; stroke:black; " description="&lt;b&gt;BBTA_RS00975&lt;/b&gt;&lt;br&gt;membrane protein&lt;br&gt;Location: 208549 - 209019&lt;br&gt;&lt;br&gt;&lt;b&gt;BlastP hit with BMJDCPAI_00537&lt;/b&gt;&lt;br&gt;Percentage identity: 55&lt;br&gt;Percentage coverage: 91&lt;br&gt;BLAST bit score: 146&lt;br&gt;E-value: 1.16e-43" locus_tag="BBTA_RS00975" class="clusterblast-orf" id="dummy-1_h1_6_21"  />
</g>
<g id="a1_0022"  >
<polygon points="414,90 439,90 444,85 439,80 414,80 414,90 " style="fill:white; stroke-width:1; stroke:black; " description="&lt;b&gt;BBTA_RS00980&lt;/b&gt;&lt;br&gt;MFS transporter&lt;br&gt;Location: 209079 - 210635" locus_tag="BBTA_RS00980" class="clusterblast-orf" id="dummy-1_h1_6_22"  />
</g>
<g id="a1_0023"  >
<polygon points="443,85 448,80 457,80 457,90 448,90 443,85 " style="fill:white; stroke-width:1; stroke:black; " description="&lt;b&gt;BBTA_RS00985&lt;/b&gt;&lt;br&gt;sulfate transporter family protein&lt;br&gt;Location: 210573 - 211325" locus_tag="BBTA_RS00985" class="clusterblast-orf" id="dummy-1_h1_6_23"  />
</g>
<g id="a1_0024"  >
<polygon points="461,85 466,80 509,80 509,90 466,90 461,85 " style="fill:white; stroke-width:1; stroke:black; " description="&lt;b&gt;BBTA_RS00990&lt;/b&gt;&lt;br&gt;heavy metal translocating P-type ATPase&lt;br&gt;Location: 211531 - 214017" locus_tag="BBTA_RS00990" class="clusterblast-orf" id="dummy-1_h1_6_24"  />
</g>
<g id="a1_0025"  >
<polygon points="514,90 514,90 519,85 514,80 514,80 514,90 " style="fill:white; stroke-width:1; stroke:black; " description="&lt;b&gt;BBTA_RS00995&lt;/b&gt;&lt;br&gt;metal-sensitive transcriptional regulator&lt;br&gt;Location: 214268 - 214543" locus_tag="BBTA_RS00995" class="clusterblast-orf" id="dummy-1_h1_6_25"  />
</g>
<g id="a1_0026"  >
<polygon points="519,85 524,80 538,80 538,90 524,90 519,85 " style="fill:white; stroke-width:1; stroke:black; " description="&lt;b&gt;BBTA_RS01000&lt;/b&gt;&lt;br&gt;hypothetical protein&lt;br&gt;Location: 214556 - 215536" locus_tag="BBTA_RS01000" class="clusterblast-orf" id="dummy-1_h1_6_26"  />
</g>
<g id="a1_0027"  >
<polygon points="542,90 564,90 569,85 564,80 542,80 542,90 " style="fill:white; stroke-width:1; stroke:black; " description="&lt;b&gt;BBTA_RS01005&lt;/b&gt;&lt;br&gt;NAD(P)-binding protein&lt;br&gt;Location: 215728 - 217137" locus_tag="BBTA_RS01005" class="clusterblast-orf" id="dummy-1_h1_6_27"  />
</g>
<g id="a1_0028"  >
<polygon points="572,85 577,80 590,80 590,90 577,90 572,85 " style="fill:white; stroke-width:1; stroke:black; " description="&lt;b&gt;BBTA_RS01010&lt;/b&gt;&lt;br&gt;MBL fold metallo-hydrolase&lt;br&gt;Location: 217261 - 218205" locus_tag="BBTA_RS01010" class="clusterblast-orf" id="dummy-1_h1_6_28"  />
</g>
<g id="a1_0029"  >
<polygon points="591,85 596,80 605,80 605,90 596,90 591,85 " style="fill:white; stroke-width:1; stroke:black; " description="&lt;b&gt;BBTA_RS01015&lt;/b&gt;&lt;br&gt;sulfite exporter TauE/SafE family protein&lt;br&gt;Location: 218239 - 219015" locus_tag="BBTA_RS01015" class="clusterblast-orf" id="dummy-1_h1_6_29"  />
</g>
<g id="a1_0030"  >
<polygon points="605,85 610,80 652,80 652,90 610,90 605,85 " style="fill:white; stroke-width:1; stroke:black; " description="&lt;b&gt;BBTA_RS01020&lt;/b&gt;&lt;br&gt;phenylalanine--tRNA ligase subunit beta&lt;br&gt;Location: 219012 - 221420" locus_tag="BBTA_RS01020" class="clusterblast-orf" id="dummy-1_h1_6_30"  />
</g>
<g id="a1_0031"  >
<polygon points="652,85 657,80 660,80 660,90 657,90 652,85 " style="fill:white; stroke-width:1; stroke:black; " description="&lt;b&gt;BBTA_RS01025&lt;/b&gt;&lt;br&gt;endonuclease domain-containing protein&lt;br&gt;Location: 221439 - 221858" locus_tag="BBTA_RS01025" class="clusterblast-orf" id="dummy-1_h1_6_31"  />
</g>
<g id="a1_0032"  >
<polygon points="662,85 667,80 683,80 683,90 667,90 662,85 " style="fill:white; stroke-width:1; stroke:black; " description="&lt;b&gt;BBTA_RS01030&lt;/b&gt;&lt;br&gt;phenylalanine--tRNA ligase subunit alpha&lt;br&gt;Location: 221957 - 223039" locus_tag="BBTA_RS01030" class="clusterblast-orf" id="dummy-1_h1_6_32"  />
</g>
<g id="a1_0033"  >
<polygon points="686,85 691,80 693,80 693,90 691,90 686,85 " style="fill:white; stroke-width:1; stroke:black; " description="&lt;b&gt;BBTA_RS01035&lt;/b&gt;&lt;br&gt;50S ribosomal protein L20&lt;br&gt;Location: 223182 - 223541" locus_tag="BBTA_RS01035" class="clusterblast-orf" id="dummy-1_h1_6_33"  />
</g>
<g id="a1_0034"  >
<polygon points="694,85 698,80 698,90 694,85 " style="fill:white; stroke-width:1; stroke:black; " description="&lt;b&gt;BBTA_RS01040&lt;/b&gt;&lt;br&gt;50S ribosomal protein L35&lt;br&gt;Location: 223619 - 223819" locus_tag="BBTA_RS01040" class="clusterblast-orf" id="dummy-1_h1_6_34"  />
</g>
<g id="a1_0035"  >
<polygon points="703,90 705,90 710,85 705,80 703,80 703,90 " style="fill:white; stroke-width:1; stroke:black; " description="&lt;b&gt;BBTA_RS01045&lt;/b&gt;&lt;br&gt;hypothetical protein&lt;br&gt;Location: 224079 - 224450" locus_tag="BBTA_RS01045" class="clusterblast-orf" id="dummy-1_h1_6_35"  />
</g>
<g id="a1_0036"  >
<polygon points="712,85 717,80 724,80 724,90 717,90 712,85 " style="fill:white; stroke-width:1; stroke:black; " description="&lt;b&gt;BBTA_RS01050&lt;/b&gt;&lt;br&gt;translation initiation factor IF-3&lt;br&gt;Location: 224542 - 225144" locus_tag="BBTA_RS01050" class="clusterblast-orf" id="dummy-1_h1_6_36"  />
</g>
<g id="a1_0037"  >
<polygon points="729,90 739,90 744,85 739,80 729,80 729,90 " style="fill:white; stroke-width:1; stroke:black; " description="&lt;b&gt;BBTA_RS01055&lt;/b&gt;&lt;br&gt;alpha/beta hydrolase&lt;br&gt;Location: 225407 - 226192" locus_tag="BBTA_RS01055" class="clusterblast-orf" id="dummy-1_h1_6_37"  />
</g>
<g id="a1_0038"  >
<polygon points="744,85 749,80 767,80 767,90 749,90 744,85 " style="fill:white; stroke-width:1; stroke:black; " description="&lt;b&gt;BBTA_RS01060&lt;/b&gt;&lt;br&gt;tRNA epoxyqueuosine(34) reductase QueG&lt;br&gt;Location: 226202 - 227386" locus_tag="BBTA_RS01060" class="clusterblast-orf" id="dummy-1_h1_6_38"  />
</g>
<g id="a1_0039"  >
<polygon points="766,85 771,80 780,80 780,90 771,90 766,85 " style="fill:white; stroke-width:1; stroke:black; " description="&lt;b&gt;BBTA_RS01065&lt;/b&gt;&lt;br&gt;glutathione S-transferase family protein&lt;br&gt;Location: 227335 - 228027" locus_tag="BBTA_RS01065" class="clusterblast-orf" id="dummy-1_h1_6_39"  />
</g>
</svg>
