<svg xmlns="http://www.w3.org/2000/svg" xmlns:xlink="http://www.w3.org/1999/xlink" version="1.1" x="0" y="0" height="230" width="800" viewBox="0 0 800 230" preserveAspectRatio="none"  >
<g label="Query sequence" class="clusterblast-cluster"  >
<text x="5" y="20" class="clusterblast-acc"  >
Query sequence</text>
<line x1="10" y1="35" x2="778.0" y2="35" style="stroke-width:1; stroke:grey; "  />
<polygon points="228,40 231,40 236,35 231,30 228,30 228,40 " style="fill:white; stroke-width:1; stroke:black; " description="&lt;b&gt;BMJDCPAI_03116&lt;/b&gt;&lt;br&gt;hypothetical protein&lt;br&gt;Location: 811 - 1429" locus_tag="BMJDCPAI_03116" class="clusterblast-orf" id="dummy-1_q0_0_all"  />
<polygon points="237,35 242,30 242,30 242,40 242,40 237,35 " style="fill:white; stroke-width:1; stroke:black; " description="&lt;b&gt;BMJDCPAI_03117&lt;/b&gt;&lt;br&gt;hypothetical protein&lt;br&gt;Location: 1536 - 1896" locus_tag="BMJDCPAI_03117" class="clusterblast-orf" id="dummy-1_q1_0_all"  />
<polygon points="256,40 344,40 349,35 344,30 256,30 256,40 " style="fill:#d81515; stroke-width:1; stroke:black; " description="&lt;b&gt;BMJDCPAI_03118&lt;/b&gt;&lt;br&gt;L-threonine 3-dehydrogenase&lt;br&gt;Location: 2993 - 10304" locus_tag="BMJDCPAI_03118" class="clusterblast-orf" id="dummy-1_q2_0_all"  />
<polygon points="349,40 361,40 366,35 361,30 349,30 349,40 " style="fill:#5cd815; stroke-width:1; stroke:black; " description="&lt;b&gt;BMJDCPAI_03119&lt;/b&gt;&lt;br&gt;8-amino-7-oxononanoate synthase&lt;br&gt;Location: 10300 - 11656" locus_tag="BMJDCPAI_03119" class="clusterblast-orf" id="dummy-1_q3_0_all"  />
<polygon points="367,40 377,40 382,35 377,30 367,30 367,40 " style="fill:#15a3d8; stroke-width:1; stroke:black; " description="&lt;b&gt;BMJDCPAI_03120&lt;/b&gt;&lt;br&gt;UDP-galactopyranose mutase&lt;br&gt;Location: 11743 - 12904" locus_tag="BMJDCPAI_03120" class="clusterblast-orf" id="dummy-1_q4_0_all"  />
<polygon points="382,40 400,40 405,35 400,30 382,30 382,40 " style="fill:#c715d8; stroke-width:1; stroke:black; " description="&lt;b&gt;BMJDCPAI_03121&lt;/b&gt;&lt;br&gt;hypothetical protein&lt;br&gt;Location: 12919 - 14701" locus_tag="BMJDCPAI_03121" class="clusterblast-orf" id="dummy-1_q5_0_all"  />
<polygon points="405,35 410,30 416,30 416,40 410,40 405,35 " style="fill:#d88015; stroke-width:1; stroke:black; " description="&lt;b&gt;BMJDCPAI_03122&lt;/b&gt;&lt;br&gt;hypothetical protein&lt;br&gt;Location: 14682 - 15537" locus_tag="BMJDCPAI_03122" class="clusterblast-orf" id="dummy-1_q6_0_all"  />
<polygon points="416,40 428,40 433,35 428,30 416,30 416,40 " style="fill:#15d839; stroke-width:1; stroke:black; " description="&lt;b&gt;BMJDCPAI_03123&lt;/b&gt;&lt;br&gt;hypothetical protein&lt;br&gt;Location: 15563 - 16898" locus_tag="BMJDCPAI_03123" class="clusterblast-orf" id="dummy-1_q7_0_all"  />
<polygon points="433,40 438,40 443,35 438,30 433,30 433,40 " style="fill:#1539d8; stroke-width:1; stroke:black; " description="&lt;b&gt;BMJDCPAI_03124&lt;/b&gt;&lt;br&gt;putative oxidoreductase&lt;br&gt;Location: 16894 - 17662" locus_tag="BMJDCPAI_03124" class="clusterblast-orf" id="dummy-1_q8_0_all"  />
<polygon points="443,35 448,30 458,30 458,40 448,40 443,35 " style="fill:white; stroke-width:1; stroke:black; " description="&lt;b&gt;BMJDCPAI_03125&lt;/b&gt;&lt;br&gt;hypothetical protein&lt;br&gt;Location: 17658 - 18849" locus_tag="BMJDCPAI_03125" class="clusterblast-orf" id="dummy-1_q9_0_all"  />
<polygon points="460,40 465,40 470,35 465,30 460,30 460,40 " style="fill:#d81580; stroke-width:1; stroke:black; " description="&lt;b&gt;BMJDCPAI_03126&lt;/b&gt;&lt;br&gt;Polysialic acid transport protein KpsM&lt;br&gt;Location: 18988 - 19753" locus_tag="BMJDCPAI_03126" class="clusterblast-orf" id="dummy-1_q10_0_all"  />
<polygon points="469,40 473,40 478,35 473,30 469,30 469,40 " style="fill:#c7d815; stroke-width:1; stroke:black; " description="&lt;b&gt;BMJDCPAI_03127&lt;/b&gt;&lt;br&gt;Polysialic acid transport ATP-binding protein KpsT&lt;br&gt;Location: 19749 - 20400" locus_tag="BMJDCPAI_03127" class="clusterblast-orf" id="dummy-1_q11_0_all"  />
<polygon points="479,40 490,40 495,35 490,30 479,30 479,40 " style="fill:#15d8a3; stroke-width:1; stroke:black; " description="&lt;b&gt;BMJDCPAI_03128&lt;/b&gt;&lt;br&gt;hypothetical protein&lt;br&gt;Location: 20489 - 21725" locus_tag="BMJDCPAI_03128" class="clusterblast-orf" id="dummy-1_q12_0_all"  />
<polygon points="495,40 505,40 510,35 505,30 495,30 495,40 " style="fill:#5c15d8; stroke-width:1; stroke:black; " description="&lt;b&gt;BMJDCPAI_03129&lt;/b&gt;&lt;br&gt;hypothetical protein&lt;br&gt;Location: 21733 - 22915" locus_tag="BMJDCPAI_03129" class="clusterblast-orf" id="dummy-1_q13_0_all"  />
<polygon points="510,40 516,40 521,35 516,30 510,30 510,40 " style="fill:white; stroke-width:1; stroke:black; " description="&lt;b&gt;BMJDCPAI_03130&lt;/b&gt;&lt;br&gt;hypothetical protein&lt;br&gt;Location: 22931 - 23795" locus_tag="BMJDCPAI_03130" class="clusterblast-orf" id="dummy-1_q14_0_all"  />
<polygon points="521,35 526,30 534,30 534,40 526,40 521,35 " style="fill:white; stroke-width:1; stroke:black; " description="&lt;b&gt;BMJDCPAI_03131&lt;/b&gt;&lt;br&gt;UDP-glucose 4-epimerase&lt;br&gt;Location: 23808 - 24786" locus_tag="BMJDCPAI_03131" class="clusterblast-orf" id="dummy-1_q15_0_all"  />
<polygon points="546,40 546,40 551,35 546,30 546,30 546,40 " style="fill:white; stroke-width:1; stroke:black; " description="&lt;b&gt;BMJDCPAI_03132&lt;/b&gt;&lt;br&gt;hypothetical protein&lt;br&gt;Location: 25778 - 26162" locus_tag="BMJDCPAI_03132" class="clusterblast-orf" id="dummy-1_q16_0_all"  />
</g>
<g label="NZ_OMPG01000018" description="NZ_OMPG01000018 (94893-158422): Pseudovibrio ascidiaceicola isolate Pseudovib... (17% of genes show similarity), T1PKS,T3PKS" class="clusterblast-cluster"  >
<text x="5" y="70" class="clusterblast-acc"  >
<a xlink:href="https://antismash-db.secondarymetabolites.org/area.html?record=NZ_OMPG01000018&amp;start=94893&amp;end=158422" target="_blank">NZ_OMPG01000018 (94893-158422)</a>: Pseudovibrio ascidiaceicola isolate Pseudovib... (17% of genes show similarity), T1PKS,T3PKS</text>
<line x1="10" y1="85" x2="778.0" y2="85" style="stroke-width:1; stroke:grey; "  />
</g>
<g id="a1_000"  >
<polygon points="0,85 5,80 11,80 11,90 5,90 0,85 " style="fill:white; stroke-width:1; stroke:black; " description="&lt;b&gt;DK509_RS08835&lt;/b&gt;&lt;br&gt;sulfotransferase domain-containing protein&lt;br&gt;Location: 96039 - 96938" locus_tag="DK509_RS08835" class="clusterblast-orf" id="dummy-1_h1_4_0"  />
</g>
<g id="a1_001"  >
<polygon points="13,85 18,80 19,80 19,90 18,90 13,85 " style="fill:white; stroke-width:1; stroke:black; " description="&lt;b&gt;DK509_RS08840&lt;/b&gt;&lt;br&gt;DUF1311 domain-containing protein&lt;br&gt;Location: 97118 - 97600" locus_tag="DK509_RS08840" class="clusterblast-orf" id="dummy-1_h1_4_1"  />
</g>
<g id="a1_002"  >
<polygon points="29,90 46,90 51,85 46,80 29,80 29,90 " style="fill:white; stroke-width:1; stroke:black; " description="&lt;b&gt;DK509_RS08845&lt;/b&gt;&lt;br&gt;Na/Pi cotransporter family protein&lt;br&gt;Location: 98343 - 100043" locus_tag="DK509_RS08845" class="clusterblast-orf" id="dummy-1_h1_4_2"  />
</g>
<g id="a1_003"  >
<polygon points="52,90 76,90 81,85 76,80 52,80 52,90 " style="fill:white; stroke-width:1; stroke:black; " description="&lt;b&gt;DK509_RS08850&lt;/b&gt;&lt;br&gt;nitric-oxide reductase large subunit&lt;br&gt;Location: 100144 - 102450" locus_tag="DK509_RS08850" class="clusterblast-orf" id="dummy-1_h1_4_3"  />
</g>
<g id="a1_004"  >
<polygon points="84,90 97,90 102,85 97,80 84,80 84,90 " style="fill:white; stroke-width:1; stroke:black; " description="&lt;b&gt;DK509_RS08855&lt;/b&gt;&lt;br&gt;multidrug transporter MATE&lt;br&gt;Location: 102692 - 104104" locus_tag="DK509_RS08855" class="clusterblast-orf" id="dummy-1_h1_4_4"  />
</g>
<g id="a1_005"  >
<polygon points="104,90 104,90 109,85 104,80 104,80 104,90 " style="fill:white; stroke-width:1; stroke:black; " description="&lt;b&gt;DK509_RS08860&lt;/b&gt;&lt;br&gt;hypothetical protein&lt;br&gt;Location: 104246 - 104620" locus_tag="DK509_RS08860" class="clusterblast-orf" id="dummy-1_h1_4_5"  />
</g>
<g id="a1_006"  >
<polygon points="110,85 115,80 120,80 120,90 115,90 110,85 " style="fill:white; stroke-width:1; stroke:black; " description="&lt;b&gt;DK509_RS08865&lt;/b&gt;&lt;br&gt;helix-turn-helix transcriptional regulator&lt;br&gt;Location: 104671 - 105510" locus_tag="DK509_RS08865" class="clusterblast-orf" id="dummy-1_h1_4_6"  />
</g>
<g id="a1_007"  >
<polygon points="122,90 125,85 122,80 122,90 " style="fill:white; stroke-width:1; stroke:black; " description="&lt;b&gt;DK509_RS08870&lt;/b&gt;&lt;br&gt;DUF2061 domain-containing protein&lt;br&gt;Location: 105637 - 105873" locus_tag="DK509_RS08870" class="clusterblast-orf" id="dummy-1_h1_4_7"  />
</g>
<g id="a1_008"  >
<polygon points="125,85 130,80 130,80 130,90 130,90 125,85 " style="fill:white; stroke-width:1; stroke:black; " description="&lt;b&gt;DK509_RS08875&lt;/b&gt;&lt;br&gt;NUDIX domain-containing protein&lt;br&gt;Location: 105889 - 106299" locus_tag="DK509_RS08875" class="clusterblast-orf" id="dummy-1_h1_4_8"  />
</g>
<g id="a1_009"  >
<polygon points="131,85 136,80 139,80 139,90 136,90 131,85 " style="fill:white; stroke-width:1; stroke:black; " description="&lt;b&gt;DK509_RS08880&lt;/b&gt;&lt;br&gt;peptide chain release factor H&lt;br&gt;Location: 106373 - 107011" locus_tag="DK509_RS08880" class="clusterblast-orf" id="dummy-1_h1_4_9"  />
</g>
<g id="a1_0010"  >
<polygon points="139,85 144,80 154,80 154,90 144,90 139,85 " style="fill:white; stroke-width:1; stroke:black; " description="&lt;b&gt;DK509_RS08885&lt;/b&gt;&lt;br&gt;RNA ligase RtcB family protein&lt;br&gt;Location: 107008 - 108165" locus_tag="DK509_RS08885" class="clusterblast-orf" id="dummy-1_h1_4_10"  />
</g>
<g id="a1_0011"  >
<polygon points="154,90 158,85 154,80 154,90 " style="fill:white; stroke-width:1; stroke:black; " description="&lt;b&gt;DK509_RS26570&lt;/b&gt;&lt;br&gt;hypothetical protein&lt;br&gt;Location: 108184 - 108501" locus_tag="DK509_RS26570" class="clusterblast-orf" id="dummy-1_h1_4_11"  />
</g>
<g id="a1_0012"  >
<polygon points="158,90 166,90 171,85 166,80 158,80 158,90 " style="fill:white; stroke-width:1; stroke:black; " description="&lt;b&gt;DK509_RS08890&lt;/b&gt;&lt;br&gt;NAD-dependent epimerase/dehydratase family protein&lt;br&gt;Location: 108453 - 109487" locus_tag="DK509_RS08890" class="clusterblast-orf" id="dummy-1_h1_4_12"  />
</g>
<g id="a1_0013"  >
<polygon points="171,85 176,80 185,80 185,90 176,90 171,85 " style="fill:white; stroke-width:1; stroke:black; " description="&lt;b&gt;DK509_RS08895&lt;/b&gt;&lt;br&gt;FAD-dependent oxidoreductase&lt;br&gt;Location: 109503 - 110618" locus_tag="DK509_RS08895" class="clusterblast-orf" id="dummy-1_h1_4_13"  />
</g>
<g id="a1_0014"  >
<polygon points="187,90 188,90 193,85 188,80 187,80 187,90 " style="fill:white; stroke-width:1; stroke:black; " description="&lt;b&gt;DK509_RS08900&lt;/b&gt;&lt;br&gt;MarR family transcriptional regulator&lt;br&gt;Location: 110742 - 111185" locus_tag="DK509_RS08900" class="clusterblast-orf" id="dummy-1_h1_4_14"  />
</g>
<g id="a1_0015"  >
<polygon points="194,90 194,90 199,85 194,80 194,80 194,90 " style="fill:white; stroke-width:1; stroke:black; " description="&lt;b&gt;DK509_RS08905&lt;/b&gt;&lt;br&gt;hypothetical protein&lt;br&gt;Location: 111278 - 111667" locus_tag="DK509_RS08905" class="clusterblast-orf" id="dummy-1_h1_4_15"  />
</g>
<g id="a1_0016"  >
<polygon points="204,90 218,90 223,85 218,80 204,80 204,90 " style="fill:white; stroke-width:1; stroke:black; " description="&lt;b&gt;DK509_RS08910&lt;/b&gt;&lt;br&gt;cytosine permease&lt;br&gt;Location: 112082 - 113566" locus_tag="DK509_RS08910" class="clusterblast-orf" id="dummy-1_h1_4_16"  />
</g>
<g id="a1_0017"  >
<polygon points="224,90 226,90 231,85 226,80 224,80 224,90 " style="fill:white; stroke-width:1; stroke:black; " description="&lt;b&gt;DK509_RS08915&lt;/b&gt;&lt;br&gt;GNAT family N-acetyltransferase&lt;br&gt;Location: 113679 - 114209" locus_tag="DK509_RS08915" class="clusterblast-orf" id="dummy-1_h1_4_17"  />
</g>
<g id="a1_0018"  >
<polygon points="233,90 234,90 239,85 234,80 233,80 233,90 " style="fill:white; stroke-width:1; stroke:black; " description="&lt;b&gt;DK509_RS08920&lt;/b&gt;&lt;br&gt;YgjV family protein&lt;br&gt;Location: 114314 - 114829" locus_tag="DK509_RS08920" class="clusterblast-orf" id="dummy-1_h1_4_18"  />
</g>
<g id="a1_0019"  >
<polygon points="240,90 250,90 255,85 250,80 240,80 240,90 " style="fill:white; stroke-width:1; stroke:black; " description="&lt;b&gt;DK509_RS08925&lt;/b&gt;&lt;br&gt;type III polyketide synthase&lt;br&gt;Location: 114894 - 116081" locus_tag="DK509_RS08925" class="clusterblast-orf" id="dummy-1_h1_4_19"  />
</g>
<g id="a1_0020"  >
<polygon points="255,90 256,90 261,85 256,80 255,80 255,90 " style="fill:white; stroke-width:1; stroke:black; " description="&lt;b&gt;DK509_RS08930&lt;/b&gt;&lt;br&gt;hypothetical protein&lt;br&gt;Location: 116074 - 116574" locus_tag="DK509_RS08930" class="clusterblast-orf" id="dummy-1_h1_4_20"  />
</g>
<g id="a1_0021"  >
<polygon points="263,90 277,90 282,85 277,80 263,80 263,90 " style="fill:white; stroke-width:1; stroke:black; " description="&lt;b&gt;DK509_RS08935&lt;/b&gt;&lt;br&gt;aldehyde dehydrogenase (NADP(+))&lt;br&gt;Location: 116711 - 118228" locus_tag="DK509_RS08935" class="clusterblast-orf" id="dummy-1_h1_4_21"  />
</g>
<g id="a1_0022"  >
<polygon points="284,85 289,80 298,80 298,90 289,90 284,85 " style="fill:white; stroke-width:1; stroke:black; " description="&lt;b&gt;DK509_RS08940&lt;/b&gt;&lt;br&gt;sn-glycerol-3-phosphate ABC transporter ATP-binding protein UgpC&lt;br&gt;Location: 118368 - 119471" locus_tag="DK509_RS08940" class="clusterblast-orf" id="dummy-1_h1_4_22"  />
</g>
<g id="a1_0023"  >
<polygon points="298,85 303,80 310,80 310,90 303,90 298,85 " style="fill:white; stroke-width:1; stroke:black; " description="&lt;b&gt;DK509_RS08945&lt;/b&gt;&lt;br&gt;endonuclease/exonuclease/phosphatase family protein&lt;br&gt;Location: 119483 - 120352" locus_tag="DK509_RS08945" class="clusterblast-orf" id="dummy-1_h1_4_23"  />
</g>
<g id="a1_0024"  >
<polygon points="309,85 314,80 323,80 323,90 314,90 309,85 " style="fill:white; stroke-width:1; stroke:black; " description="&lt;b&gt;DK509_RS08950&lt;/b&gt;&lt;br&gt;LacI family DNA-binding transcriptional regulator&lt;br&gt;Location: 120339 - 121373" locus_tag="DK509_RS08950" class="clusterblast-orf" id="dummy-1_h1_4_24"  />
</g>
<g id="a1_0025"  >
<polygon points="323,85 328,80 349,80 349,90 328,90 323,85 " style="fill:white; stroke-width:1; stroke:black; " description="&lt;b&gt;DK509_RS08955&lt;/b&gt;&lt;br&gt;beta-galactosidase trimerization domain-containing protein&lt;br&gt;Location: 121385 - 123481" locus_tag="DK509_RS08955" class="clusterblast-orf" id="dummy-1_h1_4_25"  />
</g>
<g id="a1_0026"  >
<polygon points="350,85 355,80 360,80 360,90 355,90 350,85 " style="fill:white; stroke-width:1; stroke:black; " description="&lt;b&gt;DK509_RS08960&lt;/b&gt;&lt;br&gt;carbohydrate ABC transporter permease&lt;br&gt;Location: 123485 - 124306" locus_tag="DK509_RS08960" class="clusterblast-orf" id="dummy-1_h1_4_26"  />
</g>
<g id="a1_0027"  >
<polygon points="360,85 365,80 372,80 372,90 365,90 360,85 " style="fill:white; stroke-width:1; stroke:black; " description="&lt;b&gt;DK509_RS08965&lt;/b&gt;&lt;br&gt;sugar ABC transporter permease&lt;br&gt;Location: 124303 - 125256" locus_tag="DK509_RS08965" class="clusterblast-orf" id="dummy-1_h1_4_27"  />
</g>
<g id="a1_0028"  >
<polygon points="372,85 377,80 388,80 388,90 377,90 372,85 " style="fill:white; stroke-width:1; stroke:black; " description="&lt;b&gt;DK509_RS08970&lt;/b&gt;&lt;br&gt;carbohydrate ABC transporter substrate-binding protein&lt;br&gt;Location: 125253 - 126524" locus_tag="DK509_RS08970" class="clusterblast-orf" id="dummy-1_h1_4_28"  />
</g>
<g id="a1_0029"  >
<polygon points="393,90 397,85 393,80 393,90 " style="fill:white; stroke-width:1; stroke:black; " description="&lt;b&gt;DK509_RS26575&lt;/b&gt;&lt;br&gt;hypothetical protein&lt;br&gt;Location: 126929 - 127177" locus_tag="DK509_RS26575" class="clusterblast-orf" id="dummy-1_h1_4_29"  />
</g>
<g id="a1_0030"  >
<polygon points="401,90 414,90 419,85 414,80 401,80 401,90 " style="fill:white; stroke-width:1; stroke:black; " description="&lt;b&gt;DK509_RS08975&lt;/b&gt;&lt;br&gt;homogentisate 1,2-dioxygenase&lt;br&gt;Location: 127534 - 128898" locus_tag="DK509_RS08975" class="clusterblast-orf" id="dummy-1_h1_4_30"  />
</g>
<g id="a1_0031"  >
<polygon points="420,90 434,90 439,85 434,80 420,80 420,90 " style="fill:white; stroke-width:1; stroke:black; " description="&lt;b&gt;DK509_RS08980&lt;/b&gt;&lt;br&gt;Fic family protein&lt;br&gt;Location: 129011 - 130537" locus_tag="DK509_RS08980" class="clusterblast-orf" id="dummy-1_h1_4_31"  />
</g>
<g id="a1_0032"  >
<polygon points="444,90 535,90 540,85 535,80 444,80 444,90 " style="fill:#d81515; stroke-width:1; stroke:black; " description="&lt;b&gt;DK509_RS08985&lt;/b&gt;&lt;br&gt;SDR family NAD(P)-dependent oxidoreductase&lt;br&gt;Location: 130860 - 138422&lt;br&gt;&lt;br&gt;&lt;b&gt;BlastP hit with BMJDCPAI_03118&lt;/b&gt;&lt;br&gt;Percentage identity: 35&lt;br&gt;Percentage coverage: 103&lt;br&gt;BLAST bit score: 1266&lt;br&gt;E-value: 0.0" locus_tag="DK509_RS08985" class="clusterblast-orf" id="dummy-1_h1_4_32"  />
</g>
<g id="a1_0033"  >
<polygon points="540,90 552,90 557,85 552,80 540,80 540,90 " style="fill:#5cd815; stroke-width:1; stroke:black; " description="&lt;b&gt;DK509_RS08990&lt;/b&gt;&lt;br&gt;aminotransferase class I/II-fold pyridoxal phosphate-dependent enzyme&lt;br&gt;Location: 138422 - 139783&lt;br&gt;&lt;br&gt;&lt;b&gt;BlastP hit with BMJDCPAI_03119&lt;/b&gt;&lt;br&gt;Percentage identity: 46&lt;br&gt;Percentage coverage: 98&lt;br&gt;BLAST bit score: 397&lt;br&gt;E-value: 2.2e-133" locus_tag="DK509_RS08990" class="clusterblast-orf" id="dummy-1_h1_4_33"  />
</g>
<g id="a1_0034"  >
<polygon points="558,85 563,80 567,80 567,90 563,90 558,85 " style="fill:#1539d8; stroke-width:1; stroke:black; " description="&lt;b&gt;DK509_RS08995&lt;/b&gt;&lt;br&gt;SDR family NAD(P)-dependent oxidoreductase&lt;br&gt;Location: 139803 - 140570&lt;br&gt;&lt;br&gt;&lt;b&gt;BlastP hit with BMJDCPAI_03124&lt;/b&gt;&lt;br&gt;Percentage identity: 41&lt;br&gt;Percentage coverage: 97&lt;br&gt;BLAST bit score: 148&lt;br&gt;E-value: 1.13e-41" locus_tag="DK509_RS08995" class="clusterblast-orf" id="dummy-1_h1_4_34"  />
</g>
<g id="a1_0035"  >
<polygon points="571,90 581,90 586,85 581,80 571,80 571,90 " style="fill:#5c15d8; stroke-width:1; stroke:black; " description="&lt;b&gt;DK509_RS09000&lt;/b&gt;&lt;br&gt;polysaccharide export protein&lt;br&gt;Location: 140814 - 141995&lt;br&gt;&lt;br&gt;&lt;b&gt;BlastP hit with BMJDCPAI_03129&lt;/b&gt;&lt;br&gt;Percentage identity: 32&lt;br&gt;Percentage coverage: 92&lt;br&gt;BLAST bit score: 201&lt;br&gt;E-value: 5.56e-59" locus_tag="DK509_RS09000" class="clusterblast-orf" id="dummy-1_h1_4_35"  />
</g>
<g id="a1_0036"  >
<polygon points="588,90 600,90 605,85 600,80 588,80 588,90 " style="fill:#15d8a3; stroke-width:1; stroke:black; " description="&lt;b&gt;DK509_RS09005&lt;/b&gt;&lt;br&gt;lipopolysaccharide biosynthesis protein&lt;br&gt;Location: 142171 - 143544&lt;br&gt;&lt;br&gt;&lt;b&gt;BlastP hit with BMJDCPAI_03128&lt;/b&gt;&lt;br&gt;Percentage identity: 37&lt;br&gt;Percentage coverage: 99&lt;br&gt;BLAST bit score: 242&lt;br&gt;E-value: 1.39e-73" locus_tag="DK509_RS09005" class="clusterblast-orf" id="dummy-1_h1_4_36"  />
</g>
<g id="a1_0037"  >
<polygon points="605,90 610,90 615,85 610,80 605,80 605,90 " style="fill:#d81580; stroke-width:1; stroke:black; " description="&lt;b&gt;DK509_RS09010&lt;/b&gt;&lt;br&gt;ABC transporter permease&lt;br&gt;Location: 143555 - 144322&lt;br&gt;&lt;br&gt;&lt;b&gt;BlastP hit with BMJDCPAI_03126&lt;/b&gt;&lt;br&gt;Percentage identity: 36&lt;br&gt;Percentage coverage: 98&lt;br&gt;BLAST bit score: 158&lt;br&gt;E-value: 1.43e-45" locus_tag="DK509_RS09010" class="clusterblast-orf" id="dummy-1_h1_4_37"  />
</g>
<g id="a1_0038"  >
<polygon points="615,90 619,90 624,85 619,80 615,80 615,90 " style="fill:#c7d815; stroke-width:1; stroke:black; " description="&lt;b&gt;DK509_RS09015&lt;/b&gt;&lt;br&gt;ABC transporter ATP-binding protein&lt;br&gt;Location: 144322 - 144978&lt;br&gt;&lt;br&gt;&lt;b&gt;BlastP hit with BMJDCPAI_03127&lt;/b&gt;&lt;br&gt;Percentage identity: 54&lt;br&gt;Percentage coverage: 97&lt;br&gt;BLAST bit score: 234&lt;br&gt;E-value: 1.57e-76" locus_tag="DK509_RS09015" class="clusterblast-orf" id="dummy-1_h1_4_38"  />
</g>
<g id="a1_0039"  >
<polygon points="624,90 635,90 640,85 635,80 624,80 624,90 " style="fill:#15d839; stroke-width:1; stroke:black; " description="&lt;b&gt;DK509_RS09020&lt;/b&gt;&lt;br&gt;capsular biosynthesis protein&lt;br&gt;Location: 144995 - 146299&lt;br&gt;&lt;br&gt;&lt;b&gt;BlastP hit with BMJDCPAI_03123&lt;/b&gt;&lt;br&gt;Percentage identity: 36&lt;br&gt;Percentage coverage: 95&lt;br&gt;BLAST bit score: 298&lt;br&gt;E-value: 4.65e-95" locus_tag="DK509_RS09020" class="clusterblast-orf" id="dummy-1_h1_4_39"  />
</g>
<g id="a1_0040"  >
<polygon points="640,90 652,90 657,85 652,80 640,80 640,90 " style="fill:#15d839; stroke-width:1; stroke:black; " description="&lt;b&gt;DK509_RS09025&lt;/b&gt;&lt;br&gt;capsular biosynthesis protein&lt;br&gt;Location: 146296 - 147594&lt;br&gt;&lt;br&gt;&lt;b&gt;BlastP hit with BMJDCPAI_03123&lt;/b&gt;&lt;br&gt;Percentage identity: 31&lt;br&gt;Percentage coverage: 97&lt;br&gt;BLAST bit score: 219&lt;br&gt;E-value: 1.01e-64" locus_tag="DK509_RS09025" class="clusterblast-orf" id="dummy-1_h1_4_40"  />
</g>
<g id="a1_0041"  >
<polygon points="657,90 662,90 667,85 662,80 657,80 657,90 " style="fill:white; stroke-width:1; stroke:black; " description="&lt;b&gt;DK509_RS09030&lt;/b&gt;&lt;br&gt;methionyl-tRNA formyltransferase&lt;br&gt;Location: 147628 - 148374" locus_tag="DK509_RS09030" class="clusterblast-orf" id="dummy-1_h1_4_41"  />
</g>
<g id="a1_0042"  >
<polygon points="667,85 672,80 679,80 679,90 672,90 667,85 " style="fill:white; stroke-width:1; stroke:black; " description="&lt;b&gt;DK509_RS09035&lt;/b&gt;&lt;br&gt;DMT family transporter&lt;br&gt;Location: 148399 - 149331" locus_tag="DK509_RS09035" class="clusterblast-orf" id="dummy-1_h1_4_42"  />
</g>
<g id="a1_0043"  >
<polygon points="682,85 685,80 685,90 682,85 " style="fill:white; stroke-width:1; stroke:black; " description="&lt;b&gt;DK509_RS09040&lt;/b&gt;&lt;br&gt;DUF2798 domain-containing protein&lt;br&gt;Location: 149545 - 149814" locus_tag="DK509_RS09040" class="clusterblast-orf" id="dummy-1_h1_4_43"  />
</g>
<g id="a1_0044"  >
<polygon points="689,90 701,90 706,85 701,80 689,80 689,90 " style="fill:white; stroke-width:1; stroke:black; " description="&lt;b&gt;DK509_RS09045&lt;/b&gt;&lt;br&gt;cytochrome P450&lt;br&gt;Location: 150072 - 151442" locus_tag="DK509_RS09045" class="clusterblast-orf" id="dummy-1_h1_4_44"  />
</g>
<g id="a1_0045"  >
<polygon points="707,90 709,90 714,85 709,80 707,80 707,90 " style="fill:white; stroke-width:1; stroke:black; " description="&lt;b&gt;DK509_RS09050&lt;/b&gt;&lt;br&gt;GNAT family N-acetyltransferase&lt;br&gt;Location: 151535 - 152047" locus_tag="DK509_RS09050" class="clusterblast-orf" id="dummy-1_h1_4_45"  />
</g>
<g id="a1_0046"  >
<polygon points="716,90 723,90 728,85 723,80 716,80 716,90 " style="fill:white; stroke-width:1; stroke:black; " description="&lt;b&gt;DK509_RS09055&lt;/b&gt;&lt;br&gt;ADP-ribosylglycohydrolase family protein&lt;br&gt;Location: 152195 - 153154" locus_tag="DK509_RS09055" class="clusterblast-orf" id="dummy-1_h1_4_46"  />
</g>
<g id="a1_0047"  >
<polygon points="728,90 731,85 728,80 728,90 " style="fill:white; stroke-width:1; stroke:black; " description="&lt;b&gt;DK509_RS26580&lt;/b&gt;&lt;br&gt;hypothetical protein&lt;br&gt;Location: 153171 - 153401" locus_tag="DK509_RS26580" class="clusterblast-orf" id="dummy-1_h1_4_47"  />
</g>
<g id="a1_0048"  >
<polygon points="731,90 743,90 748,85 743,80 731,80 731,90 " style="fill:white; stroke-width:1; stroke:black; " description="&lt;b&gt;DK509_RS09060&lt;/b&gt;&lt;br&gt;FAD-dependent oxidoreductase&lt;br&gt;Location: 153379 - 154761" locus_tag="DK509_RS09060" class="clusterblast-orf" id="dummy-1_h1_4_48"  />
</g>
<g id="a1_0049"  >
<polygon points="750,85 755,80 765,80 765,90 755,90 750,85 " style="fill:white; stroke-width:1; stroke:black; " description="&lt;b&gt;DK509_RS09065&lt;/b&gt;&lt;br&gt;HAD hydrolase-like protein&lt;br&gt;Location: 154868 - 156097" locus_tag="DK509_RS09065" class="clusterblast-orf" id="dummy-1_h1_4_49"  />
</g>
<g id="a1_0050"  >
<polygon points="766,85 771,80 780,80 780,90 771,90 766,85 " style="fill:white; stroke-width:1; stroke:black; " description="&lt;b&gt;DK509_RS09070&lt;/b&gt;&lt;br&gt;LacI family DNA-binding transcriptional regulator&lt;br&gt;Location: 156141 - 157202" locus_tag="DK509_RS09070" class="clusterblast-orf" id="dummy-1_h1_4_50"  />
</g>
</svg>
