<svg xmlns="http://www.w3.org/2000/svg" xmlns:xlink="http://www.w3.org/1999/xlink" version="1.1" x="0" y="0" height="230" width="800" viewBox="0 0 800 230" preserveAspectRatio="none"  >
<g label="Query sequence" class="clusterblast-cluster"  >
<text x="5" y="20" class="clusterblast-acc"  >
Query sequence</text>
<line x1="10" y1="35" x2="778.0" y2="35" style="stroke-width:1; stroke:grey; "  />
<polygon points="6,40 34,40 39,35 34,30 6,30 6,40 " style="fill:#d81515; stroke-width:1; stroke:black; " description="&lt;b&gt;BMJDCPAI_00094&lt;/b&gt;&lt;br&gt;hypothetical protein&lt;br&gt;Location: 96705 - 97542" locus_tag="BMJDCPAI_00094" class="clusterblast-orf" id="dummy-1_q0_0_all"  />
<polygon points="41,40 93,40 98,35 93,30 41,30 41,40 " style="fill:#63d815; stroke-width:1; stroke:black; " description="&lt;b&gt;BMJDCPAI_00095&lt;/b&gt;&lt;br&gt;hypothetical protein&lt;br&gt;Location: 97599 - 99027" locus_tag="BMJDCPAI_00095" class="clusterblast-orf" id="dummy-1_q1_0_all"  />
<polygon points="102,40 164,40 169,35 164,30 102,30 102,40 " style="fill:#15b1d8; stroke-width:1; stroke:black; " description="&lt;b&gt;BMJDCPAI_00096&lt;/b&gt;&lt;br&gt;Anaerobic magnesium-protoporphyrin IX monomethyl ester cyclase&lt;br&gt;Location: 99135 - 100827" locus_tag="BMJDCPAI_00096" class="clusterblast-orf" id="dummy-1_q2_0_all"  />
<polygon points="169,40 188,40 193,35 188,30 169,30 169,40 " style="fill:#b115d8; stroke-width:1; stroke:black; " description="&lt;b&gt;BMJDCPAI_00097&lt;/b&gt;&lt;br&gt;hypothetical protein&lt;br&gt;Location: 100833 - 101427" locus_tag="BMJDCPAI_00097" class="clusterblast-orf" id="dummy-1_q3_0_all"  />
<polygon points="196,40 227,40 232,35 227,30 196,30 196,40 " style="fill:#d86315; stroke-width:1; stroke:black; " description="&lt;b&gt;BMJDCPAI_00098&lt;/b&gt;&lt;br&gt;1,4-dihydroxy-2-naphthoate octaprenyltransferase&lt;br&gt;Location: 101510 - 102407" locus_tag="BMJDCPAI_00098" class="clusterblast-orf" id="dummy-1_q4_0_all"  />
<polygon points="232,40 277,40 282,35 277,30 232,30 232,40 " style="fill:#15d815; stroke-width:1; stroke:black; " description="&lt;b&gt;BMJDCPAI_00099&lt;/b&gt;&lt;br&gt;Protein PucC&lt;br&gt;Location: 102403 - 103675" locus_tag="BMJDCPAI_00099" class="clusterblast-orf" id="dummy-1_q5_0_all"  />
<polygon points="282,40 324,40 329,35 324,30 282,30 282,40 " style="fill:#1563d8; stroke-width:1; stroke:black; " description="&lt;b&gt;BMJDCPAI_00100&lt;/b&gt;&lt;br&gt;hypothetical protein&lt;br&gt;Location: 103678 - 104860" locus_tag="BMJDCPAI_00100" class="clusterblast-orf" id="dummy-1_q6_0_all"  />
<polygon points="329,40 346,40 351,35 346,30 329,30 329,40 " style="fill:#d815b1; stroke-width:1; stroke:black; " description="&lt;b&gt;BMJDCPAI_00101&lt;/b&gt;&lt;br&gt;Isopentenyl-diphosphate Delta-isomerase&lt;br&gt;Location: 104856 - 105414" locus_tag="BMJDCPAI_00101" class="clusterblast-orf" id="dummy-1_q7_0_all"  />
<polygon points="355,35 360,30 373,30 373,40 360,40 355,35 " style="fill:#d8b115; stroke-width:1; stroke:black; " description="&lt;b&gt;BMJDCPAI_00102&lt;/b&gt;&lt;br&gt;Tryptophan-rich sensory protein&lt;br&gt;Location: 105514 - 105973" locus_tag="BMJDCPAI_00102" class="clusterblast-orf" id="dummy-1_q8_0_all"  />
<polygon points="378,35 383,30 419,30 419,40 383,40 378,35 " style="fill:#15d863; stroke-width:1; stroke:black; " description="&lt;b&gt;BMJDCPAI_00103&lt;/b&gt;&lt;br&gt;hypothetical protein&lt;br&gt;Location: 106092 - 107127" locus_tag="BMJDCPAI_00103" class="clusterblast-orf" id="dummy-1_q9_0_all"  />
<polygon points="419,35 424,30 480,30 480,40 424,40 419,35 " style="fill:#1515d8; stroke-width:1; stroke:black; " description="&lt;b&gt;BMJDCPAI_00104&lt;/b&gt;&lt;br&gt;Phytoene desaturase (neurosporene-forming)&lt;br&gt;Location: 107123 - 108665" locus_tag="BMJDCPAI_00104" class="clusterblast-orf" id="dummy-1_q10_0_all"  />
<polygon points="485,40 508,40 513,35 508,30 485,30 485,40 " style="fill:#d81563; stroke-width:1; stroke:black; " description="&lt;b&gt;BMJDCPAI_00105&lt;/b&gt;&lt;br&gt;Spheroidene monooxygenase&lt;br&gt;Location: 108798 - 109503" locus_tag="BMJDCPAI_00105" class="clusterblast-orf" id="dummy-1_q11_0_all"  />
<polygon points="513,40 548,40 553,35 548,30 513,30 513,40 " style="fill:#b1d815; stroke-width:1; stroke:black; " description="&lt;b&gt;BMJDCPAI_00106&lt;/b&gt;&lt;br&gt;Magnesium-chelatase 38 kDa subunit&lt;br&gt;Location: 109499 - 110501" locus_tag="BMJDCPAI_00106" class="clusterblast-orf" id="dummy-1_q12_0_all"  />
<polygon points="556,40 619,40 624,35 619,30 556,30 556,40 " style="fill:#15d8b1; stroke-width:1; stroke:black; " description="&lt;b&gt;BMJDCPAI_00107&lt;/b&gt;&lt;br&gt;Magnesium-chelatase 60 kDa subunit&lt;br&gt;Location: 110574 - 112296" locus_tag="BMJDCPAI_00107" class="clusterblast-orf" id="dummy-1_q13_0_all"  />
<polygon points="624,40 654,40 659,35 654,30 624,30 624,40 " style="fill:#6315d8; stroke-width:1; stroke:black; " description="&lt;b&gt;BMJDCPAI_00108&lt;/b&gt;&lt;br&gt;Haloalkane dehalogenase&lt;br&gt;Location: 112299 - 113193" locus_tag="BMJDCPAI_00108" class="clusterblast-orf" id="dummy-1_q14_0_all"  />
<polygon points="659,35 664,30 675,30 675,40 664,40 659,35 " style="fill:white; stroke-width:1; stroke:black; " description="&lt;b&gt;BMJDCPAI_00109&lt;/b&gt;&lt;br&gt;hypothetical protein&lt;br&gt;Location: 113189 - 113588" locus_tag="BMJDCPAI_00109" class="clusterblast-orf" id="dummy-1_q15_0_all"  />
<polygon points="675,35 680,30 706,30 706,40 680,40 675,35 " style="fill:white; stroke-width:1; stroke:black; " description="&lt;b&gt;BMJDCPAI_00110&lt;/b&gt;&lt;br&gt;Gamma-glutamyl-gamma-aminobutyrate hydrolase PuuD&lt;br&gt;Location: 113584 - 114358" locus_tag="BMJDCPAI_00110" class="clusterblast-orf" id="dummy-1_q16_0_all"  />
<polygon points="716,35 721,30 750,30 750,40 721,40 716,35 " style="fill:white; stroke-width:1; stroke:black; " description="&lt;b&gt;BMJDCPAI_00111&lt;/b&gt;&lt;br&gt;2',3'-cyclic-nucleotide 2'-phosphodiesterase&lt;br&gt;Location: 114613 - 115468" locus_tag="BMJDCPAI_00111" class="clusterblast-orf" id="dummy-1_q17_0_all"  />
<polygon points="754,35 759,30 774,30 774,40 759,40 754,35 " style="fill:white; stroke-width:1; stroke:black; " description="&lt;b&gt;BMJDCPAI_00112&lt;/b&gt;&lt;br&gt;hypothetical protein&lt;br&gt;Location: 115584 - 116088" locus_tag="BMJDCPAI_00112" class="clusterblast-orf" id="dummy-1_q18_0_all"  />
</g>
<g label="NZ_JACIEJ010000015" description="NZ_JACIEJ010000015 (21148-42186): Sagittula marina strain DSM 102235 Ga037326... (61% of genes show similarity), terpene" class="clusterblast-cluster"  >
<text x="5" y="70" class="clusterblast-acc"  >
<a xlink:href="https://antismash-db.secondarymetabolites.org/area.html?record=NZ_JACIEJ010000015&amp;start=21148&amp;end=42186" target="_blank">NZ_JACIEJ010000015 (21148-42186)</a>: Sagittula marina strain DSM 102235 Ga037326... (61% of genes show similarity), terpene</text>
<line x1="10" y1="85" x2="778.0" y2="85" style="stroke-width:1; stroke:grey; "  />
</g>
<g id="a1_000"  >
<polygon points="0,85 5,80 62,80 62,90 5,90 0,85 " style="fill:white; stroke-width:1; stroke:black; " description="&lt;b&gt;GGQ68_RS21415&lt;/b&gt;&lt;br&gt;chlorophyllide a reductase subunit Y&lt;br&gt;Location: 40937 - 39369" locus_tag="GGQ68_RS21415" class="clusterblast-orf" id="dummy-1_h1_6_0"  />
</g>
<g id="a1_001"  >
<polygon points="67,85 72,80 107,80 107,90 72,90 67,85 " style="fill:white; stroke-width:1; stroke:black; " description="&lt;b&gt;GGQ68_RS21410&lt;/b&gt;&lt;br&gt;chlorophyllide a reductase iron protein subunit X&lt;br&gt;Location: 39233 - 38232" locus_tag="GGQ68_RS21410" class="clusterblast-orf" id="dummy-1_h1_6_1"  />
</g>
<g id="a1_002"  >
<polygon points="107,85 112,80 144,80 144,90 112,90 107,85 " style="fill:white; stroke-width:1; stroke:black; " description="&lt;b&gt;GGQ68_RS21405&lt;/b&gt;&lt;br&gt;chlorophyll synthesis pathway protein BchC&lt;br&gt;Location: 38235 - 37294" locus_tag="GGQ68_RS21405" class="clusterblast-orf" id="dummy-1_h1_6_2"  />
</g>
<g id="a1_003"  >
<polygon points="149,85 154,80 189,80 189,90 154,90 149,85 " style="fill:white; stroke-width:1; stroke:black; " description="&lt;b&gt;GGQ68_RS21400&lt;/b&gt;&lt;br&gt;methyltransferase domain-containing protein&lt;br&gt;Location: 37175 - 36156" locus_tag="GGQ68_RS21400" class="clusterblast-orf" id="dummy-1_h1_6_3"  />
</g>
<g id="a1_004"  >
<polygon points="193,85 198,80 228,80 228,90 198,90 193,85 " style="fill:white; stroke-width:1; stroke:black; " description="&lt;b&gt;GGQ68_RS21395&lt;/b&gt;&lt;br&gt;polyprenyl synthetase family protein&lt;br&gt;Location: 36046 - 35177" locus_tag="GGQ68_RS21395" class="clusterblast-orf" id="dummy-1_h1_6_4"  />
</g>
<g id="a1_005"  >
<polygon points="232,90 290,90 295,85 290,80 232,80 232,90 " style="fill:white; stroke-width:1; stroke:black; " description="&lt;b&gt;GGQ68_RS21390&lt;/b&gt;&lt;br&gt;phytoene desaturase&lt;br&gt;Location: 35080 - 33497" locus_tag="GGQ68_RS21390" class="clusterblast-orf" id="dummy-1_h1_6_5"  />
</g>
<g id="a1_006"  >
<polygon points="294,90 322,90 327,85 322,80 294,80 294,90 " style="fill:white; stroke-width:1; stroke:black; " description="&lt;b&gt;GGQ68_RS21385&lt;/b&gt;&lt;br&gt;carotenoid 1,2-hydratase&lt;br&gt;Location: 33509 - 32670" locus_tag="GGQ68_RS21385" class="clusterblast-orf" id="dummy-1_h1_6_6"  />
</g>
<g id="a1_007"  >
<polygon points="328,85 333,80 346,80 346,90 333,90 328,85 " style="fill:#d8b115; stroke-width:1; stroke:black; " description="&lt;b&gt;GGQ68_RS21380&lt;/b&gt;&lt;br&gt;tryptophan-rich sensory protein&lt;br&gt;Location: 32665 - 32192&lt;br&gt;&lt;br&gt;&lt;b&gt;BlastP hit with BMJDCPAI_00102&lt;/b&gt;&lt;br&gt;Percentage identity: 55&lt;br&gt;Percentage coverage: 99&lt;br&gt;BLAST bit score: 186&lt;br&gt;E-value: 2.65e-59" locus_tag="GGQ68_RS21380" class="clusterblast-orf" id="dummy-1_h1_6_7"  />
</g>
<g id="a1_008"  >
<polygon points="347,85 352,80 388,80 388,90 352,90 347,85 " style="fill:#15d863; stroke-width:1; stroke:black; " description="&lt;b&gt;GGQ68_RS21375&lt;/b&gt;&lt;br&gt;phytoene/squalene synthase family protein&lt;br&gt;Location: 32186 - 31149&lt;br&gt;&lt;br&gt;&lt;b&gt;BlastP hit with BMJDCPAI_00103&lt;/b&gt;&lt;br&gt;Percentage identity: 62&lt;br&gt;Percentage coverage: 98&lt;br&gt;BLAST bit score: 378&lt;br&gt;E-value: 3.28e-129" locus_tag="GGQ68_RS21375" class="clusterblast-orf" id="dummy-1_h1_6_8"  />
</g>
<g id="a1_009"  >
<polygon points="388,85 393,80 449,80 449,90 393,90 388,85 " style="fill:#1515d8; stroke-width:1; stroke:black; " description="&lt;b&gt;GGQ68_RS21370&lt;/b&gt;&lt;br&gt;phytoene desaturase&lt;br&gt;Location: 31152 - 29599&lt;br&gt;&lt;br&gt;&lt;b&gt;BlastP hit with BMJDCPAI_00104&lt;/b&gt;&lt;br&gt;Percentage identity: 71&lt;br&gt;Percentage coverage: 96&lt;br&gt;BLAST bit score: 720&lt;br&gt;E-value: 7.75e-259" locus_tag="GGQ68_RS21370" class="clusterblast-orf" id="dummy-1_h1_6_9"  />
</g>
<g id="a1_0010"  >
<polygon points="453,90 478,90 483,85 478,80 453,80 453,90 " style="fill:#d81563; stroke-width:1; stroke:black; " description="&lt;b&gt;GGQ68_RS21365&lt;/b&gt;&lt;br&gt;spheroidene monooxygenase&lt;br&gt;Location: 29500 - 28757&lt;br&gt;&lt;br&gt;&lt;b&gt;BlastP hit with BMJDCPAI_00105&lt;/b&gt;&lt;br&gt;Percentage identity: 59&lt;br&gt;Percentage coverage: 100&lt;br&gt;BLAST bit score: 285&lt;br&gt;E-value: 1.04e-95" locus_tag="GGQ68_RS21365" class="clusterblast-orf" id="dummy-1_h1_6_10"  />
</g>
<g id="a1_0011"  >
<polygon points="482,90 517,90 522,85 517,80 482,80 482,90 " style="fill:#b1d815; stroke-width:1; stroke:black; " description="&lt;b&gt;GGQ68_RS21360&lt;/b&gt;&lt;br&gt;magnesium chelatase ATPase subunit I&lt;br&gt;Location: 28760 - 27756&lt;br&gt;&lt;br&gt;&lt;b&gt;BlastP hit with BMJDCPAI_00106&lt;/b&gt;&lt;br&gt;Percentage identity: 79&lt;br&gt;Percentage coverage: 99&lt;br&gt;BLAST bit score: 513&lt;br&gt;E-value: 9.12e-183" locus_tag="GGQ68_RS21360" class="clusterblast-orf" id="dummy-1_h1_6_11"  />
</g>
<g id="a1_0012"  >
<polygon points="522,90 585,90 590,85 585,80 522,80 522,90 " style="fill:#15d8b1; stroke-width:1; stroke:black; " description="&lt;b&gt;GGQ68_RS21355&lt;/b&gt;&lt;br&gt;magnesium chelatase subunit D&lt;br&gt;Location: 27759 - 26053&lt;br&gt;&lt;br&gt;&lt;b&gt;BlastP hit with BMJDCPAI_00107&lt;/b&gt;&lt;br&gt;Percentage identity: 50&lt;br&gt;Percentage coverage: 97&lt;br&gt;BLAST bit score: 424&lt;br&gt;E-value: 7.82e-141" locus_tag="GGQ68_RS21355" class="clusterblast-orf" id="dummy-1_h1_6_12"  />
</g>
<g id="a1_0013"  >
<polygon points="590,90 620,90 625,85 620,80 590,80 590,90 " style="fill:#6315d8; stroke-width:1; stroke:black; " description="&lt;b&gt;GGQ68_RS21350&lt;/b&gt;&lt;br&gt;alpha/beta fold hydrolase&lt;br&gt;Location: 26048 - 25170&lt;br&gt;&lt;br&gt;&lt;b&gt;BlastP hit with BMJDCPAI_00108&lt;/b&gt;&lt;br&gt;Percentage identity: 47&lt;br&gt;Percentage coverage: 95&lt;br&gt;BLAST bit score: 251&lt;br&gt;E-value: 9.85e-81" locus_tag="GGQ68_RS21350" class="clusterblast-orf" id="dummy-1_h1_6_13"  />
</g>
<g id="a1_0014"  >
<polygon points="625,85 630,80 646,80 646,90 630,90 625,85 " style="fill:#d815b1; stroke-width:1; stroke:black; " description="&lt;b&gt;GGQ68_RS21345&lt;/b&gt;&lt;br&gt;isopentenyl-diphosphate Delta-isomerase&lt;br&gt;Location: 25162 - 24647&lt;br&gt;&lt;br&gt;&lt;b&gt;BlastP hit with BMJDCPAI_00101&lt;/b&gt;&lt;br&gt;Percentage identity: 58&lt;br&gt;Percentage coverage: 92&lt;br&gt;BLAST bit score: 219&lt;br&gt;E-value: 8.72e-72" locus_tag="GGQ68_RS21345" class="clusterblast-orf" id="dummy-1_h1_6_14"  />
</g>
<g id="a1_0015"  >
<polygon points="645,85 650,80 692,80 692,90 650,90 645,85 " style="fill:#1563d8; stroke-width:1; stroke:black; " description="&lt;b&gt;GGQ68_RS21340&lt;/b&gt;&lt;br&gt;geranylgeranyl diphosphate reductase&lt;br&gt;Location: 24650 - 23472&lt;br&gt;&lt;br&gt;&lt;b&gt;BlastP hit with BMJDCPAI_00100&lt;/b&gt;&lt;br&gt;Percentage identity: 75&lt;br&gt;Percentage coverage: 98&lt;br&gt;BLAST bit score: 580&lt;br&gt;E-value: 1.82e-207" locus_tag="GGQ68_RS21340" class="clusterblast-orf" id="dummy-1_h1_6_15"  />
</g>
<g id="a1_0016"  >
<polygon points="692,85 697,80 743,80 743,90 697,90 692,85 " style="fill:#15d815; stroke-width:1; stroke:black; " description="&lt;b&gt;GGQ68_RS21335&lt;/b&gt;&lt;br&gt;BCD family MFS transporter&lt;br&gt;Location: 23467 - 22178&lt;br&gt;&lt;br&gt;&lt;b&gt;BlastP hit with BMJDCPAI_00099&lt;/b&gt;&lt;br&gt;Percentage identity: 68&lt;br&gt;Percentage coverage: 102&lt;br&gt;BLAST bit score: 494&lt;br&gt;E-value: 2.4e-172" locus_tag="GGQ68_RS21335" class="clusterblast-orf" id="dummy-1_h1_6_16"  />
</g>
<g id="a1_0017"  >
<polygon points="743,85 748,80 780,80 780,90 748,90 743,85 " style="fill:#d86315; stroke-width:1; stroke:black; " description="&lt;b&gt;GGQ68_RS21330&lt;/b&gt;&lt;br&gt;chlorophyll synthase ChlG&lt;br&gt;Location: 22181 - 21270&lt;br&gt;&lt;br&gt;&lt;b&gt;BlastP hit with BMJDCPAI_00098&lt;/b&gt;&lt;br&gt;Percentage identity: 69&lt;br&gt;Percentage coverage: 99&lt;br&gt;BLAST bit score: 405&lt;br&gt;E-value: 3.11e-141" locus_tag="GGQ68_RS21330" class="clusterblast-orf" id="dummy-1_h1_6_17"  />
</g>
</svg>
