<svg xmlns="http://www.w3.org/2000/svg" xmlns:xlink="http://www.w3.org/1999/xlink" version="1.1" x="0" y="0" height="230" width="800" viewBox="0 0 800 230" preserveAspectRatio="none"  >
<g label="Query sequence" class="clusterblast-cluster"  >
<text x="5" y="20" class="clusterblast-acc"  >
Query sequence</text>
<line x1="10" y1="35" x2="778.0" y2="35" style="stroke-width:1; stroke:grey; "  />
<polygon points="0,40 12,40 17,35 12,30 0,30 0,40 " style="fill:white; stroke-width:1; stroke:black; " description="&lt;b&gt;BMJDCPAI_00745&lt;/b&gt;&lt;br&gt;Queuine tRNA-ribosyltransferase&lt;br&gt;Location: 330965 - 332090" locus_tag="BMJDCPAI_00745" class="clusterblast-orf" id="dummy-2_q0_0_all"  />
<polygon points="17,40 23,40 28,35 23,30 17,30 17,40 " style="fill:white; stroke-width:1; stroke:black; " description="&lt;b&gt;BMJDCPAI_00746&lt;/b&gt;&lt;br&gt;Phosphatidylserine decarboxylase proenzyme&lt;br&gt;Location: 332102 - 332801" locus_tag="BMJDCPAI_00746" class="clusterblast-orf" id="dummy-2_q1_0_all"  />
<polygon points="28,40 34,40 39,35 34,30 28,30 28,40 " style="fill:white; stroke-width:1; stroke:black; " description="&lt;b&gt;BMJDCPAI_00747&lt;/b&gt;&lt;br&gt;hypothetical protein&lt;br&gt;Location: 332800 - 333529" locus_tag="BMJDCPAI_00747" class="clusterblast-orf" id="dummy-2_q2_0_all"  />
<polygon points="44,40 58,40 63,35 58,30 44,30 44,40 " style="fill:white; stroke-width:1; stroke:black; " description="&lt;b&gt;BMJDCPAI_00749&lt;/b&gt;&lt;br&gt;protein kinase UbiB&lt;br&gt;Location: 333857 - 335156" locus_tag="BMJDCPAI_00749" class="clusterblast-orf" id="dummy-2_q3_0_all"  />
<polygon points="63,35 68,30 82,30 82,40 68,40 63,35 " style="fill:white; stroke-width:1; stroke:black; " description="&lt;b&gt;BMJDCPAI_00750&lt;/b&gt;&lt;br&gt;hypothetical protein&lt;br&gt;Location: 335152 - 336394" locus_tag="BMJDCPAI_00750" class="clusterblast-orf" id="dummy-2_q4_0_all"  />
<polygon points="83,35 88,30 99,30 99,40 88,40 83,35 " style="fill:#d81515; stroke-width:1; stroke:black; " description="&lt;b&gt;BMJDCPAI_00751&lt;/b&gt;&lt;br&gt;Glyceraldehyde-3-phosphate dehydrogenase 3&lt;br&gt;Location: 336487 - 337498" locus_tag="BMJDCPAI_00751" class="clusterblast-orf" id="dummy-2_q5_0_all"  />
<polygon points="99,35 104,30 111,30 111,40 104,40 99,35 " style="fill:white; stroke-width:1; stroke:black; " description="&lt;b&gt;BMJDCPAI_00752&lt;/b&gt;&lt;br&gt;Arsenate reductase&lt;br&gt;Location: 337494 - 338331" locus_tag="BMJDCPAI_00752" class="clusterblast-orf" id="dummy-2_q6_0_all"  />
<polygon points="112,35 117,30 126,30 126,40 117,40 112,35 " style="fill:white; stroke-width:1; stroke:black; " description="&lt;b&gt;BMJDCPAI_00753&lt;/b&gt;&lt;br&gt;Polyphosphate:NDP phosphotransferase 3&lt;br&gt;Location: 338398 - 339292" locus_tag="BMJDCPAI_00753" class="clusterblast-orf" id="dummy-2_q7_0_all"  />
<polygon points="129,35 134,30 151,30 151,40 134,40 129,35 " style="fill:white; stroke-width:1; stroke:black; " description="&lt;b&gt;BMJDCPAI_00755&lt;/b&gt;&lt;br&gt;Adenosylhomocysteinase&lt;br&gt;Location: 339518 - 340907" locus_tag="BMJDCPAI_00755" class="clusterblast-orf" id="dummy-2_q8_0_all"  />
<polygon points="152,40 176,40 181,35 176,30 152,30 152,40 " style="fill:#77d815; stroke-width:1; stroke:black; " description="&lt;b&gt;BMJDCPAI_00756&lt;/b&gt;&lt;br&gt;Outer membrane protein assembly factor BamA&lt;br&gt;Location: 341012 - 342917" locus_tag="BMJDCPAI_00756" class="clusterblast-orf" id="dummy-2_q9_0_all"  />
<polygon points="181,40 234,40 239,35 234,30 181,30 181,40 " style="fill:#15d8d8; stroke-width:1; stroke:black; " description="&lt;b&gt;BMJDCPAI_00757&lt;/b&gt;&lt;br&gt;hypothetical protein&lt;br&gt;Location: 342916 - 346747" locus_tag="BMJDCPAI_00757" class="clusterblast-orf" id="dummy-2_q10_0_all"  />
<polygon points="239,40 246,40 251,35 246,30 239,30 239,40 " style="fill:white; stroke-width:1; stroke:black; " description="&lt;b&gt;BMJDCPAI_00758&lt;/b&gt;&lt;br&gt;3-beta-hydroxysteroid dehydrogenase&lt;br&gt;Location: 346756 - 347506" locus_tag="BMJDCPAI_00758" class="clusterblast-orf" id="dummy-2_q11_0_all"  />
<polygon points="251,40 255,40 260,35 255,30 251,30 251,40 " style="fill:white; stroke-width:1; stroke:black; " description="&lt;b&gt;BMJDCPAI_00759&lt;/b&gt;&lt;br&gt;Short-chain-enoyl-CoA hydratase&lt;br&gt;Location: 347502 - 348117" locus_tag="BMJDCPAI_00759" class="clusterblast-orf" id="dummy-2_q12_0_all"  />
<polygon points="261,40 261,40 266,35 261,30 261,30 261,40 " style="fill:white; stroke-width:1; stroke:black; " description="&lt;b&gt;BMJDCPAI_00760&lt;/b&gt;&lt;br&gt;hypothetical protein&lt;br&gt;Location: 348155 - 348515" locus_tag="BMJDCPAI_00760" class="clusterblast-orf" id="dummy-2_q13_0_all"  />
<polygon points="267,40 269,40 274,35 269,30 267,30 267,40 " style="fill:white; stroke-width:1; stroke:black; " description="&lt;b&gt;BMJDCPAI_00761&lt;/b&gt;&lt;br&gt;hypothetical protein&lt;br&gt;Location: 348550 - 349069" locus_tag="BMJDCPAI_00761" class="clusterblast-orf" id="dummy-2_q14_0_all"  />
<polygon points="275,40 277,40 282,35 277,30 275,30 275,40 " style="fill:white; stroke-width:1; stroke:black; " description="&lt;b&gt;BMJDCPAI_00762&lt;/b&gt;&lt;br&gt;Putative low molecular weight protein-tyrosine-phosphatase&lt;br&gt;Location: 349118 - 349556" locus_tag="BMJDCPAI_00762" class="clusterblast-orf" id="dummy-2_q15_0_all"  />
<polygon points="282,35 287,30 287,30 287,40 287,40 282,35 " style="fill:white; stroke-width:1; stroke:black; " description="&lt;b&gt;BMJDCPAI_00763&lt;/b&gt;&lt;br&gt;hypothetical protein&lt;br&gt;Location: 349568 - 349880" locus_tag="BMJDCPAI_00763" class="clusterblast-orf" id="dummy-2_q16_0_all"  />
<polygon points="290,35 295,30 301,30 301,40 295,40 290,35 " style="fill:#7715d8; stroke-width:1; stroke:black; " description="&lt;b&gt;BMJDCPAI_00764&lt;/b&gt;&lt;br&gt;hypothetical protein&lt;br&gt;Location: 350082 - 350793" locus_tag="BMJDCPAI_00764" class="clusterblast-orf" id="dummy-2_q17_0_all"  />
<polygon points="301,35 306,30 369,30 369,40 306,40 301,35 " style="fill:#d87715; stroke-width:1; stroke:black; " description="&lt;b&gt;BMJDCPAI_00765&lt;/b&gt;&lt;br&gt;D-alanine--D-alanyl carrier protein ligase&lt;br&gt;Location: 350789 - 355316" locus_tag="BMJDCPAI_00765" class="clusterblast-orf" id="dummy-2_q18_0_all"  />
<polygon points="369,35 374,30 384,30 384,40 374,40 369,35 " style="fill:#15d815; stroke-width:1; stroke:black; " description="&lt;b&gt;BMJDCPAI_00766&lt;/b&gt;&lt;br&gt;hypothetical protein&lt;br&gt;Location: 355325 - 356312" locus_tag="BMJDCPAI_00766" class="clusterblast-orf" id="dummy-2_q19_0_all"  />
<polygon points="384,35 389,30 480,30 480,40 389,40 384,35 " style="fill:#1577d8; stroke-width:1; stroke:black; " description="&lt;b&gt;BMJDCPAI_00767&lt;/b&gt;&lt;br&gt;hypothetical protein&lt;br&gt;Location: 356308 - 362641" locus_tag="BMJDCPAI_00767" class="clusterblast-orf" id="dummy-2_q20_0_all"  />
<polygon points="480,35 485,30 503,30 503,40 485,40 480,35 " style="fill:#d815d8; stroke-width:1; stroke:black; " description="&lt;b&gt;BMJDCPAI_00768&lt;/b&gt;&lt;br&gt;hypothetical protein&lt;br&gt;Location: 362637 - 364146" locus_tag="BMJDCPAI_00768" class="clusterblast-orf" id="dummy-2_q21_0_all"  />
<polygon points="503,35 508,30 524,30 524,40 508,40 503,35 " style="fill:#d8d815; stroke-width:1; stroke:black; " description="&lt;b&gt;BMJDCPAI_00769&lt;/b&gt;&lt;br&gt;hypothetical protein&lt;br&gt;Location: 364154 - 365519" locus_tag="BMJDCPAI_00769" class="clusterblast-orf" id="dummy-2_q22_0_all"  />
<polygon points="524,35 529,30 538,30 538,40 529,40 524,35 " style="fill:#15d877; stroke-width:1; stroke:black; " description="&lt;b&gt;BMJDCPAI_00770&lt;/b&gt;&lt;br&gt;hypothetical protein&lt;br&gt;Location: 365535 - 366423" locus_tag="BMJDCPAI_00770" class="clusterblast-orf" id="dummy-2_q23_0_all"  />
<polygon points="540,35 543,30 543,40 540,35 " style="fill:white; stroke-width:1; stroke:black; " description="&lt;b&gt;BMJDCPAI_00771&lt;/b&gt;&lt;br&gt;hypothetical protein&lt;br&gt;Location: 366563 - 366779" locus_tag="BMJDCPAI_00771" class="clusterblast-orf" id="dummy-2_q24_0_all"  />
<polygon points="543,35 548,30 568,30 568,40 548,40 543,35 " style="fill:white; stroke-width:1; stroke:black; " description="&lt;b&gt;BMJDCPAI_00772&lt;/b&gt;&lt;br&gt;3-(3-hydroxy-phenyl)propionate/3-hydroxycinnamic acid hydroxylase&lt;br&gt;Location: 366771 - 368394" locus_tag="BMJDCPAI_00772" class="clusterblast-orf" id="dummy-2_q25_0_all"  />
<polygon points="568,35 571,30 571,40 568,35 " style="fill:white; stroke-width:1; stroke:black; " description="&lt;b&gt;BMJDCPAI_00773&lt;/b&gt;&lt;br&gt;hypothetical protein&lt;br&gt;Location: 368390 - 368594" locus_tag="BMJDCPAI_00773" class="clusterblast-orf" id="dummy-2_q26_0_all"  />
<polygon points="571,35 576,30 585,30 585,40 576,40 571,35 " style="fill:white; stroke-width:1; stroke:black; " description="&lt;b&gt;BMJDCPAI_00774&lt;/b&gt;&lt;br&gt;hypothetical protein&lt;br&gt;Location: 368590 - 369541" locus_tag="BMJDCPAI_00774" class="clusterblast-orf" id="dummy-2_q27_0_all"  />
<polygon points="586,35 591,30 605,30 605,40 591,40 586,35 " style="fill:white; stroke-width:1; stroke:black; " description="&lt;b&gt;BMJDCPAI_00775&lt;/b&gt;&lt;br&gt;hypothetical protein&lt;br&gt;Location: 369614 - 370862" locus_tag="BMJDCPAI_00775" class="clusterblast-orf" id="dummy-2_q28_0_all"  />
<polygon points="605,35 610,30 618,30 618,40 610,40 605,35 " style="fill:white; stroke-width:1; stroke:black; " description="&lt;b&gt;BMJDCPAI_00776&lt;/b&gt;&lt;br&gt;Ribonuclease BN&lt;br&gt;Location: 370871 - 371717" locus_tag="BMJDCPAI_00776" class="clusterblast-orf" id="dummy-2_q29_0_all"  />
<polygon points="618,35 623,30 639,30 639,40 623,40 618,35 " style="fill:white; stroke-width:1; stroke:black; " description="&lt;b&gt;BMJDCPAI_00777&lt;/b&gt;&lt;br&gt;Homogentisate 1,2-dioxygenase&lt;br&gt;Location: 371717 - 373073" locus_tag="BMJDCPAI_00777" class="clusterblast-orf" id="dummy-2_q30_0_all"  />
<polygon points="640,40 642,40 647,35 642,30 640,30 640,40 " style="fill:white; stroke-width:1; stroke:black; " description="&lt;b&gt;BMJDCPAI_00778&lt;/b&gt;&lt;br&gt;hypothetical protein&lt;br&gt;Location: 373167 - 373629" locus_tag="BMJDCPAI_00778" class="clusterblast-orf" id="dummy-2_q31_0_all"  />
<polygon points="648,40 680,40 685,35 680,30 648,30 648,40 " style="fill:white; stroke-width:1; stroke:black; " description="&lt;b&gt;BMJDCPAI_00779&lt;/b&gt;&lt;br&gt;ATP-dependent RNA helicase HrpB&lt;br&gt;Location: 373662 - 376095" locus_tag="BMJDCPAI_00779" class="clusterblast-orf" id="dummy-2_q32_0_all"  />
<polygon points="685,35 690,30 698,30 698,40 690,40 685,35 " style="fill:#1515d8; stroke-width:1; stroke:black; " description="&lt;b&gt;BMJDCPAI_00780&lt;/b&gt;&lt;br&gt;hypothetical protein&lt;br&gt;Location: 376146 - 376974" locus_tag="BMJDCPAI_00780" class="clusterblast-orf" id="dummy-2_q33_0_all"  />
<polygon points="698,35 703,30 719,30 719,40 703,40 698,35 " style="fill:#d81577; stroke-width:1; stroke:black; " description="&lt;b&gt;BMJDCPAI_00781&lt;/b&gt;&lt;br&gt;cytosol aminopeptidase&lt;br&gt;Location: 376970 - 378371" locus_tag="BMJDCPAI_00781" class="clusterblast-orf" id="dummy-2_q34_0_all"  />
<polygon points="721,35 726,30 726,30 726,40 726,40 721,35 " style="fill:white; stroke-width:1; stroke:black; " description="&lt;b&gt;BMJDCPAI_00782&lt;/b&gt;&lt;br&gt;hypothetical protein&lt;br&gt;Location: 378455 - 378836" locus_tag="BMJDCPAI_00782" class="clusterblast-orf" id="dummy-2_q35_0_all"  />
<polygon points="732,35 737,30 738,30 738,40 737,40 732,35 " style="fill:white; stroke-width:1; stroke:black; " description="&lt;b&gt;BMJDCPAI_00783&lt;/b&gt;&lt;br&gt;hypothetical protein&lt;br&gt;Location: 379206 - 379590" locus_tag="BMJDCPAI_00783" class="clusterblast-orf" id="dummy-2_q36_0_all"  />
<polygon points="739,40 739,40 744,35 739,30 739,30 739,40 " style="fill:white; stroke-width:1; stroke:black; " description="&lt;b&gt;BMJDCPAI_00784&lt;/b&gt;&lt;br&gt;hypothetical protein&lt;br&gt;Location: 379671 - 379986" locus_tag="BMJDCPAI_00784" class="clusterblast-orf" id="dummy-2_q37_0_all"  />
<polygon points="745,40 745,40 750,35 745,30 745,30 745,40 " style="fill:white; stroke-width:1; stroke:black; " description="&lt;b&gt;BMJDCPAI_00785&lt;/b&gt;&lt;br&gt;hypothetical protein&lt;br&gt;Location: 380036 - 380420" locus_tag="BMJDCPAI_00785" class="clusterblast-orf" id="dummy-2_q38_0_all"  />
<polygon points="753,40 761,40 766,35 761,30 753,30 753,40 " style="fill:white; stroke-width:1; stroke:black; " description="&lt;b&gt;BMJDCPAI_00786&lt;/b&gt;&lt;br&gt;hypothetical protein&lt;br&gt;Location: 380566 - 381478" locus_tag="BMJDCPAI_00786" class="clusterblast-orf" id="dummy-2_q39_0_all"  />
<polygon points="768,40 775,40 780,35 775,30 768,30 768,40 " style="fill:white; stroke-width:1; stroke:black; " description="&lt;b&gt;BMJDCPAI_00787&lt;/b&gt;&lt;br&gt;tRNA-modifying protein YgfZ&lt;br&gt;Location: 381595 - 382351" locus_tag="BMJDCPAI_00787" class="clusterblast-orf" id="dummy-2_q40_0_all"  />
</g>
<g label="NZ_CP015230" description="NZ_CP015230 (2418126-2470161): Epibacterium mobile F1926 chromosome, complete... (30% of genes show similarity), NRPS-like,T1PKS" class="clusterblast-cluster"  >
<text x="5" y="70" class="clusterblast-acc"  >
<a xlink:href="https://antismash-db.secondarymetabolites.org/area.html?record=NZ_CP015230&amp;start=2418126&amp;end=2470161" target="_blank">NZ_CP015230 (2418126-2470161)</a>: Epibacterium mobile F1926 chromosome, complete... (30% of genes show similarity), NRPS-like,T1PKS</text>
<line x1="10" y1="85" x2="778.0" y2="85" style="stroke-width:1; stroke:grey; "  />
</g>
<g id="a2_000"  >
<polygon points="1,85 6,80 18,80 18,90 6,90 1,85 " style="fill:white; stroke-width:1; stroke:black; " description="&lt;b&gt;K529_RS11565&lt;/b&gt;&lt;br&gt;ABC transporter ATP-binding protein&lt;br&gt;Location: 2469375 - 2468299" locus_tag="K529_RS11565" class="clusterblast-orf" id="dummy-2_h2_7_0"  />
</g>
<g id="a2_001"  >
<polygon points="21,85 26,80 47,80 47,90 26,90 21,85 " style="fill:white; stroke-width:1; stroke:black; " description="&lt;b&gt;K529_RS11560&lt;/b&gt;&lt;br&gt;carbohydrate ABC transporter substrate-binding protein&lt;br&gt;Location: 2468102 - 2466369" locus_tag="K529_RS11560" class="clusterblast-orf" id="dummy-2_h2_7_1"  />
</g>
<g id="a2_002"  >
<polygon points="51,90 63,90 68,85 63,80 51,80 51,90 " style="fill:white; stroke-width:1; stroke:black; " description="&lt;b&gt;K529_RS11555&lt;/b&gt;&lt;br&gt;RNA methyltransferase&lt;br&gt;Location: 2466095 - 2464974" locus_tag="K529_RS11555" class="clusterblast-orf" id="dummy-2_h2_7_2"  />
</g>
<g id="a2_003"  >
<polygon points="70,90 77,90 82,85 77,80 70,80 70,90 " style="fill:white; stroke-width:1; stroke:black; " description="&lt;b&gt;K529_RS11550&lt;/b&gt;&lt;br&gt;TIGR03084 family protein&lt;br&gt;Location: 2464849 - 2464049" locus_tag="K529_RS11550" class="clusterblast-orf" id="dummy-2_h2_7_3"  />
</g>
<g id="a2_004"  >
<polygon points="83,85 88,80 95,80 95,90 88,90 83,85 " style="fill:white; stroke-width:1; stroke:black; " description="&lt;b&gt;K529_RS11545&lt;/b&gt;&lt;br&gt;2-dehydro-3-deoxygalactonokinase&lt;br&gt;Location: 2464020 - 2463214" locus_tag="K529_RS11545" class="clusterblast-orf" id="dummy-2_h2_7_4"  />
</g>
<g id="a2_005"  >
<polygon points="102,90 112,90 117,85 112,80 102,80 102,90 " style="fill:white; stroke-width:1; stroke:black; " description="&lt;b&gt;K529_RS11540&lt;/b&gt;&lt;br&gt;AraC family transcriptional regulator&lt;br&gt;Location: 2462753 - 2461725" locus_tag="K529_RS11540" class="clusterblast-orf" id="dummy-2_h2_7_5"  />
</g>
<g id="a2_006"  >
<polygon points="123,90 129,90 134,85 129,80 123,80 123,90 " style="fill:white; stroke-width:1; stroke:black; " description="&lt;b&gt;K529_RS11535&lt;/b&gt;&lt;br&gt;sugar transferase&lt;br&gt;Location: 2461379 - 2460639" locus_tag="K529_RS11535" class="clusterblast-orf" id="dummy-2_h2_7_6"  />
</g>
<g id="a2_007"  >
<polygon points="136,90 148,90 153,85 148,80 136,80 136,90 " style="fill:#15d877; stroke-width:1; stroke:black; " description="&lt;b&gt;K529_RS11530&lt;/b&gt;&lt;br&gt;exopolysaccharide biosynthesis protein&lt;br&gt;Location: 2460514 - 2459375&lt;br&gt;&lt;br&gt;&lt;b&gt;BlastP hit with BMJDCPAI_00770&lt;/b&gt;&lt;br&gt;Percentage identity: 32&lt;br&gt;Percentage coverage: 71&lt;br&gt;BLAST bit score: 108&lt;br&gt;E-value: 4.21e-25" locus_tag="K529_RS11530" class="clusterblast-orf" id="dummy-2_h2_7_7"  />
</g>
<g id="a2_008"  >
<polygon points="154,90 168,90 173,85 168,80 154,80 154,90 " style="fill:white; stroke-width:1; stroke:black; " description="&lt;b&gt;K529_RS11525&lt;/b&gt;&lt;br&gt;LPS biosynthesis protein&lt;br&gt;Location: 2459340 - 2458066" locus_tag="K529_RS11525" class="clusterblast-orf" id="dummy-2_h2_7_8"  />
</g>
<g id="a2_009"  >
<polygon points="174,85 179,80 195,80 195,90 179,90 174,85 " style="fill:white; stroke-width:1; stroke:black; " description="&lt;b&gt;K529_RS11520&lt;/b&gt;&lt;br&gt;oligosaccharide flippase family protein&lt;br&gt;Location: 2457990 - 2456638" locus_tag="K529_RS11520" class="clusterblast-orf" id="dummy-2_h2_7_9"  />
</g>
<g id="a2_0010"  >
<polygon points="198,90 211,90 216,85 211,80 198,80 198,90 " style="fill:white; stroke-width:1; stroke:black; " description="&lt;b&gt;K529_RS11515&lt;/b&gt;&lt;br&gt;glycosyltransferase family 4 protein&lt;br&gt;Location: 2456428 - 2455214" locus_tag="K529_RS11515" class="clusterblast-orf" id="dummy-2_h2_7_10"  />
</g>
<g id="a2_0011"  >
<polygon points="216,85 221,80 229,80 229,90 221,90 216,85 " style="fill:white; stroke-width:1; stroke:black; " description="&lt;b&gt;K529_RS11510&lt;/b&gt;&lt;br&gt;glycosyltransferase&lt;br&gt;Location: 2455203 - 2454361" locus_tag="K529_RS11510" class="clusterblast-orf" id="dummy-2_h2_7_11"  />
</g>
<g id="a2_0012"  >
<polygon points="229,85 234,80 268,80 268,90 234,90 229,85 " style="fill:white; stroke-width:1; stroke:black; " description="&lt;b&gt;K529_RS11505&lt;/b&gt;&lt;br&gt;hypothetical protein&lt;br&gt;Location: 2454364 - 2451827" locus_tag="K529_RS11505" class="clusterblast-orf" id="dummy-2_h2_7_12"  />
</g>
<g id="a2_0013"  >
<polygon points="268,85 273,80 282,80 282,90 273,90 268,85 " style="fill:white; stroke-width:1; stroke:black; " description="&lt;b&gt;K529_RS11500&lt;/b&gt;&lt;br&gt;hypothetical protein&lt;br&gt;Location: 2451830 - 2450865" locus_tag="K529_RS11500" class="clusterblast-orf" id="dummy-2_h2_7_13"  />
</g>
<g id="a2_0014"  >
<polygon points="282,85 287,80 293,80 293,90 287,90 282,85 " style="fill:#7715d8; stroke-width:1; stroke:black; " description="&lt;b&gt;K529_RS11495&lt;/b&gt;&lt;br&gt;4'-phosphopantetheinyl transferase superfamily protein&lt;br&gt;Location: 2450868 - 2450158&lt;br&gt;&lt;br&gt;&lt;b&gt;BlastP hit with BMJDCPAI_00764&lt;/b&gt;&lt;br&gt;Percentage identity: 46&lt;br&gt;Percentage coverage: 92&lt;br&gt;BLAST bit score: 168&lt;br&gt;E-value: 4.1e-50" locus_tag="K529_RS11495" class="clusterblast-orf" id="dummy-2_h2_7_14"  />
</g>
<g id="a2_0015"  >
<polygon points="293,85 298,80 362,80 362,90 298,90 293,85 " style="fill:#d87715; stroke-width:1; stroke:black; " description="&lt;b&gt;K529_RS11490&lt;/b&gt;&lt;br&gt;LLM class flavin-dependent oxidoreductase&lt;br&gt;Location: 2450161 - 2445596&lt;br&gt;&lt;br&gt;&lt;b&gt;BlastP hit with BMJDCPAI_00765&lt;/b&gt;&lt;br&gt;Percentage identity: 53&lt;br&gt;Percentage coverage: 103&lt;br&gt;BLAST bit score: 1448&lt;br&gt;E-value: 0.0" locus_tag="K529_RS11490" class="clusterblast-orf" id="dummy-2_h2_7_15"  />
</g>
<g id="a2_0016"  >
<polygon points="362,85 367,80 378,80 378,90 367,90 362,85 " style="fill:#15d815; stroke-width:1; stroke:black; " description="&lt;b&gt;K529_RS11485&lt;/b&gt;&lt;br&gt;glycosyltransferase family 2 protein&lt;br&gt;Location: 2445599 - 2444577&lt;br&gt;&lt;br&gt;&lt;b&gt;BlastP hit with BMJDCPAI_00766&lt;/b&gt;&lt;br&gt;Percentage identity: 52&lt;br&gt;Percentage coverage: 96&lt;br&gt;BLAST bit score: 319&lt;br&gt;E-value: 1.68e-106" locus_tag="K529_RS11485" class="clusterblast-orf" id="dummy-2_h2_7_16"  />
</g>
<g id="a2_0017"  >
<polygon points="378,85 383,80 476,80 476,90 383,90 378,85 " style="fill:#1577d8; stroke-width:1; stroke:black; " description="&lt;b&gt;K529_RS11480&lt;/b&gt;&lt;br&gt;type I polyketide synthase&lt;br&gt;Location: 2444573 - 2438127&lt;br&gt;&lt;br&gt;&lt;b&gt;BlastP hit with BMJDCPAI_00767&lt;/b&gt;&lt;br&gt;Percentage identity: 59&lt;br&gt;Percentage coverage: 101&lt;br&gt;BLAST bit score: 2381&lt;br&gt;E-value: 0.0" locus_tag="K529_RS11480" class="clusterblast-orf" id="dummy-2_h2_7_17"  />
</g>
<g id="a2_0018"  >
<polygon points="479,85 484,80 501,80 501,90 484,90 479,85 " style="fill:#d815d8; stroke-width:1; stroke:black; " description="&lt;b&gt;K529_RS11475&lt;/b&gt;&lt;br&gt;hypothetical protein&lt;br&gt;Location: 2437935 - 2436469&lt;br&gt;&lt;br&gt;&lt;b&gt;BlastP hit with BMJDCPAI_00768&lt;/b&gt;&lt;br&gt;Percentage identity: 44&lt;br&gt;Percentage coverage: 92&lt;br&gt;BLAST bit score: 384&lt;br&gt;E-value: 5.21e-127" locus_tag="K529_RS11475" class="clusterblast-orf" id="dummy-2_h2_7_18"  />
</g>
<g id="a2_0019"  >
<polygon points="503,90 509,90 514,85 509,80 503,80 503,90 " style="fill:white; stroke-width:1; stroke:black; " description="&lt;b&gt;K529_RS11470&lt;/b&gt;&lt;br&gt;WecB/TagA/CpsF family glycosyltransferase&lt;br&gt;Location: 2436351 - 2435590" locus_tag="K529_RS11470" class="clusterblast-orf" id="dummy-2_h2_7_19"  />
</g>
<g id="a2_0020"  >
<polygon points="514,85 519,80 529,80 529,90 519,90 514,85 " style="fill:white; stroke-width:1; stroke:black; " description="&lt;b&gt;K529_RS11465&lt;/b&gt;&lt;br&gt;glycosyltransferase&lt;br&gt;Location: 2435574 - 2434591" locus_tag="K529_RS11465" class="clusterblast-orf" id="dummy-2_h2_7_20"  />
</g>
<g id="a2_0021"  >
<polygon points="531,85 536,80 592,80 592,90 536,90 531,85 " style="fill:#15d8d8; stroke-width:1; stroke:black; " description="&lt;b&gt;K529_RS11460&lt;/b&gt;&lt;br&gt;hypothetical protein&lt;br&gt;Location: 2434488 - 2430481&lt;br&gt;&lt;br&gt;&lt;b&gt;BlastP hit with BMJDCPAI_00757&lt;/b&gt;&lt;br&gt;Percentage identity: 33&lt;br&gt;Percentage coverage: 105&lt;br&gt;BLAST bit score: 600&lt;br&gt;E-value: 3.27e-190" locus_tag="K529_RS11460" class="clusterblast-orf" id="dummy-2_h2_7_21"  />
</g>
<g id="a2_0022"  >
<polygon points="592,85 597,80 619,80 619,90 597,90 592,85 " style="fill:#77d815; stroke-width:1; stroke:black; " description="&lt;b&gt;K529_RS11455&lt;/b&gt;&lt;br&gt;BamA/TamA family outer membrane protein&lt;br&gt;Location: 2430484 - 2428652&lt;br&gt;&lt;br&gt;&lt;b&gt;BlastP hit with BMJDCPAI_00756&lt;/b&gt;&lt;br&gt;Percentage identity: 43&lt;br&gt;Percentage coverage: 93&lt;br&gt;BLAST bit score: 424&lt;br&gt;E-value: 2.91e-139" locus_tag="K529_RS11455" class="clusterblast-orf" id="dummy-2_h2_7_22"  />
</g>
<g id="a2_0023"  >
<polygon points="622,85 627,80 638,80 638,90 627,90 622,85 " style="fill:#d81515; stroke-width:1; stroke:black; " description="&lt;b&gt;K529_RS11450&lt;/b&gt;&lt;br&gt;glyceraldehyde-3-phosphate dehydrogenase&lt;br&gt;Location: 2428479 - 2427418&lt;br&gt;&lt;br&gt;&lt;b&gt;BlastP hit with BMJDCPAI_00751&lt;/b&gt;&lt;br&gt;Percentage identity: 40&lt;br&gt;Percentage coverage: 99&lt;br&gt;BLAST bit score: 226&lt;br&gt;E-value: 7.02e-70" locus_tag="K529_RS11450" class="clusterblast-orf" id="dummy-2_h2_7_23"  />
</g>
<g id="a2_0024"  >
<polygon points="644,90 656,90 661,85 656,80 644,80 644,90 " style="fill:white; stroke-width:1; stroke:black; " description="&lt;b&gt;K529_RS11445&lt;/b&gt;&lt;br&gt;glycine cleavage system aminomethyltransferase GcvT&lt;br&gt;Location: 2427039 - 2425915" locus_tag="K529_RS11445" class="clusterblast-orf" id="dummy-2_h2_7_24"  />
</g>
<g id="a2_0025"  >
<polygon points="662,90 662,90 667,85 662,80 662,80 662,90 " style="fill:white; stroke-width:1; stroke:black; " description="&lt;b&gt;K529_RS11440&lt;/b&gt;&lt;br&gt;glycine cleavage system protein GcvH&lt;br&gt;Location: 2425871 - 2425512" locus_tag="K529_RS11440" class="clusterblast-orf" id="dummy-2_h2_7_25"  />
</g>
<g id="a2_0026"  >
<polygon points="669,90 707,90 712,85 707,80 669,80 669,90 " style="fill:white; stroke-width:1; stroke:black; " description="&lt;b&gt;K529_RS11435&lt;/b&gt;&lt;br&gt;aminomethyl-transferring glycine dehydrogenase&lt;br&gt;Location: 2425384 - 2422535" locus_tag="K529_RS11435" class="clusterblast-orf" id="dummy-2_h2_7_26"  />
</g>
<g id="a2_0027"  >
<polygon points="716,90 717,90 722,85 717,80 716,80 716,90 " style="fill:white; stroke-width:1; stroke:black; " description="&lt;b&gt;K529_RS11430&lt;/b&gt;&lt;br&gt;hypothetical protein&lt;br&gt;Location: 2422304 - 2421912" locus_tag="K529_RS11430" class="clusterblast-orf" id="dummy-2_h2_7_27"  />
</g>
<g id="a2_0028"  >
<polygon points="724,90 726,90 731,85 726,80 724,80 724,90 " style="fill:white; stroke-width:1; stroke:black; " description="&lt;b&gt;K529_RS11425&lt;/b&gt;&lt;br&gt;hypothetical protein&lt;br&gt;Location: 2421772 - 2421314" locus_tag="K529_RS11425" class="clusterblast-orf" id="dummy-2_h2_7_28"  />
</g>
<g id="a2_0029"  >
<polygon points="732,85 737,80 778,80 778,90 737,90 732,85 " style="fill:white; stroke-width:1; stroke:black; " description="&lt;b&gt;K529_RS11420&lt;/b&gt;&lt;br&gt;isoleucine--tRNA ligase&lt;br&gt;Location: 2421230 - 2418231" locus_tag="K529_RS11420" class="clusterblast-orf" id="dummy-2_h2_7_29"  />
</g>
</svg>
