<svg xmlns="http://www.w3.org/2000/svg" xmlns:xlink="http://www.w3.org/1999/xlink" version="1.1" x="0" y="0" height="230" width="800" viewBox="0 0 800 230" preserveAspectRatio="none"  >
<g label="Query sequence" class="clusterblast-cluster"  >
<text x="5" y="20" class="clusterblast-acc"  >
Query sequence</text>
<line x1="10" y1="35" x2="778.0" y2="35" style="stroke-width:1; stroke:grey; "  />
<polygon points="0,40 55,40 60,35 55,30 0,30 0,40 " style="fill:white; stroke-width:1; stroke:black; " description="&lt;b&gt;BMJDCPAI_00844&lt;/b&gt;&lt;br&gt;Protein-L-isoaspartate O-methyltransferase&lt;br&gt;Location: 49268 - 49913" locus_tag="BMJDCPAI_00844" class="clusterblast-orf" id="dummy-1_q0_0_all"  />
<polygon points="65,40 165,40 170,35 165,30 65,30 65,40 " style="fill:white; stroke-width:1; stroke:black; " description="&lt;b&gt;BMJDCPAI_00845&lt;/b&gt;&lt;br&gt;hypothetical protein&lt;br&gt;Location: 49969 - 51100" locus_tag="BMJDCPAI_00845" class="clusterblast-orf" id="dummy-1_q1_0_all"  />
<polygon points="172,35 177,30 217,30 217,40 177,40 172,35 " style="fill:white; stroke-width:1; stroke:black; " description="&lt;b&gt;BMJDCPAI_00846&lt;/b&gt;&lt;br&gt;hypothetical protein&lt;br&gt;Location: 51127 - 51613" locus_tag="BMJDCPAI_00846" class="clusterblast-orf" id="dummy-1_q2_0_all"  />
<polygon points="239,40 287,40 292,35 287,30 239,30 239,40 " style="fill:#d81515; stroke-width:1; stroke:black; " description="&lt;b&gt;BMJDCPAI_00847&lt;/b&gt;&lt;br&gt;L-2,4-diaminobutyric acid acetyltransferase&lt;br&gt;Location: 51842 - 52418" locus_tag="BMJDCPAI_00847" class="clusterblast-orf" id="dummy-1_q3_0_all"  />
<polygon points="298,40 411,40 416,35 411,30 298,30 298,40 " style="fill:#77d815; stroke-width:1; stroke:black; " description="&lt;b&gt;BMJDCPAI_00848&lt;/b&gt;&lt;br&gt;Diaminobutyrate--2-oxoglutarate transaminase&lt;br&gt;Location: 52478 - 53759" locus_tag="BMJDCPAI_00848" class="clusterblast-orf" id="dummy-1_q4_0_all"  />
<polygon points="417,40 447,40 452,35 447,30 417,30 417,40 " style="fill:#15d8d8; stroke-width:1; stroke:black; " description="&lt;b&gt;BMJDCPAI_00849&lt;/b&gt;&lt;br&gt;L-ectoine synthase&lt;br&gt;Location: 53764 - 54151" locus_tag="BMJDCPAI_00849" class="clusterblast-orf" id="dummy-1_q5_0_all"  />
<polygon points="456,40 585,40 590,35 585,30 456,30 456,40 " style="fill:#7715d8; stroke-width:1; stroke:black; " description="&lt;b&gt;BMJDCPAI_00850&lt;/b&gt;&lt;br&gt;Aspartate kinase Ask Ect&lt;br&gt;Location: 54191 - 55643" locus_tag="BMJDCPAI_00850" class="clusterblast-orf" id="dummy-1_q6_0_all"  />
<polygon points="594,35 599,30 616,30 616,40 599,40 594,35 " style="fill:white; stroke-width:1; stroke:black; " description="&lt;b&gt;BMJDCPAI_00851&lt;/b&gt;&lt;br&gt;hypothetical protein&lt;br&gt;Location: 55680 - 55914" locus_tag="BMJDCPAI_00851" class="clusterblast-orf" id="dummy-1_q7_0_all"  />
<polygon points="621,35 626,30 666,30 666,40 626,40 621,35 " style="fill:white; stroke-width:1; stroke:black; " description="&lt;b&gt;BMJDCPAI_00852&lt;/b&gt;&lt;br&gt;Putative pre-16S rRNA nuclease&lt;br&gt;Location: 55975 - 56455" locus_tag="BMJDCPAI_00852" class="clusterblast-orf" id="dummy-1_q8_0_all"  />
<polygon points="665,35 670,30 780,30 780,40 670,40 665,35 " style="fill:white; stroke-width:1; stroke:black; " description="&lt;b&gt;BMJDCPAI_00853&lt;/b&gt;&lt;br&gt;hypothetical protein&lt;br&gt;Location: 56451 - 57696" locus_tag="BMJDCPAI_00853" class="clusterblast-orf" id="dummy-1_q9_0_all"  />
</g>
<g label="BGC0000859" description="BGC0000859_c1: ectoine (100% of genes show similarity), Other" class="clusterblast-cluster"  >
<text x="5" y="70" class="clusterblast-acc"  >
<a xlink:href="https://mibig.secondarymetabolites.org/go/BGC0000859/1" target="_blank">BGC0000859</a>: ectoine                                                                          (100% of genes show similarity), Other</text>
<line x1="10" y1="85" x2="778.0" y2="85" style="stroke-width:1; stroke:grey; "  />
</g>
<g id="a1_000"  >
<polygon points="249,90 291,90 296,85 291,80 249,80 249,90 " style="fill:#d81515; stroke-width:1; stroke:black; " description="&lt;b&gt;ACB30330.1&lt;/b&gt;&lt;br&gt;L-2,4-diaminobutyric acid acetyltransferase&lt;br&gt;Location: 259 - 777&lt;br&gt;&lt;br&gt;&lt;b&gt;BlastP hit with BMJDCPAI_00847&lt;/b&gt;&lt;br&gt;Percentage identity: 47&lt;br&gt;Percentage coverage: 80&lt;br&gt;BLAST bit score: 149&lt;br&gt;E-value: 6.34e-46" locus_tag="ACB30330.1" class="clusterblast-orf" id="dummy-1_h1_4_0"  />
</g>
<g id="a1_001"  >
<polygon points="300,90 419,90 424,85 419,80 300,80 300,90 " style="fill:#77d815; stroke-width:1; stroke:black; " description="&lt;b&gt;ACB30331.1&lt;/b&gt;&lt;br&gt;L-2,4-diaminobutyric acid aminotransferase&lt;br&gt;Location: 820 - 2151&lt;br&gt;&lt;br&gt;&lt;b&gt;BlastP hit with BMJDCPAI_00848&lt;/b&gt;&lt;br&gt;Percentage identity: 54&lt;br&gt;Percentage coverage: 96&lt;br&gt;BLAST bit score: 453&lt;br&gt;E-value: 1.02e-157" locus_tag="ACB30331.1" class="clusterblast-orf" id="dummy-1_h1_4_1"  />
</g>
<g id="a1_002"  >
<polygon points="428,90 461,90 466,85 461,80 428,80 428,90 " style="fill:#15d8d8; stroke-width:1; stroke:black; " description="&lt;b&gt;ACB30332.1&lt;/b&gt;&lt;br&gt;ectoine synthase&lt;br&gt;Location: 2203 - 2607&lt;br&gt;&lt;br&gt;&lt;b&gt;BlastP hit with BMJDCPAI_00849&lt;/b&gt;&lt;br&gt;Percentage identity: 52&lt;br&gt;Percentage coverage: 100&lt;br&gt;BLAST bit score: 146&lt;br&gt;E-value: 3.22e-46" locus_tag="ACB30332.1" class="clusterblast-orf" id="dummy-1_h1_4_2"  />
</g>
<g id="a1_003"  >
<polygon points="471,90 525,90 530,85 525,80 471,80 471,90 " style="fill:#7715d8; stroke-width:1; stroke:black; " description="&lt;b&gt;ACB30333.1&lt;/b&gt;&lt;br&gt;aspartokinase&lt;br&gt;Location: 2667 - 3305&lt;br&gt;&lt;br&gt;&lt;b&gt;BlastP hit with BMJDCPAI_00850&lt;/b&gt;&lt;br&gt;Percentage identity: 48&lt;br&gt;Percentage coverage: 44&lt;br&gt;BLAST bit score: 190&lt;br&gt;E-value: 1.74e-57" locus_tag="ACB30333.1" class="clusterblast-orf" id="dummy-1_h1_4_3"  />
</g>
</svg>
