<?xml version="1.0" encoding="UTF-8" standalone="yes"?>
<!DOCTYPE svg PUBLIC "-//W3C//DTD SVG 1.0//EN" "http://www.w3.org/TR/2001/REC-SVG-20010904/DTD/svg10.dtd">
<svg height="310" onload="Init(evt)" onmousemove=" GetTrueCoords(evt); 
			ShowTooltip(evt, true)" onmouseout="ShowTooltip(evt, false)" width="1200" xmlns="http://www.w3.org/2000/svg" xmlns:svg="http://www.w3.org/2000/svg" xmlns:xlink="http://www.w3.org/1999/xlink">
	<script />
<defs><style type='text/css'><![CDATA[
 .leaf-label {font-size:medium;font-family:sans}
 .inner-label {font-size:small;font-family:sans}
 .edge-label {opacity:0}
]]></style></defs>
<!-- arguments: -b opacity:0 -v 40 -s -  -->
<g transform='translate(0,20)'><g  style='stroke:black;fill:none;stroke-width:1;stroke-linecap:round'><line class='clade_0' x1='10.0000' y1='0.0000' x2='290.0000' y2='0.0000'/><line class='clade_0' x1='10.0000' y1='40.0000' x2='44.1106' y2='40.0000'/><line class='clade_0' x1='10.0000' y1='80.0000' x2='71.5410' y2='80.0000'/><line class='clade_0' x1='10.0000' y1='0.0000' x2='10.0000' y2='80.0000'/><line x1='0' y1='40.0000' x2='10.0000' y2='40.0000'/></g><g style='stroke:none'><text class='edge-label' x='150.000000' y='-4.000000'>0.528404610</text><text class='edge-label' x='27.055276' y='36.000000'>0.064372045</text><text class='edge-label' x='40.770514' y='76.000000'>0.116137724</text></g><g transform='translate(10,130)' style='stroke:black;stroke-width:1' ><path d='M 0 0 h 280'/><path d='M 0 0 v -7'/><text style='stroke:none;text-anchor:end' x='2' y='-9'>0</text><path d='M 52.9897 0 v -7'/><text style='stroke:none;text-anchor:end' x='54.9897' y='-9'>0.1</text><path d='M 105.979 0 v -7'/><text style='stroke:none;text-anchor:end' x='107.979' y='-9'>0.2</text><path d='M 158.969 0 v -7'/><text style='stroke:none;text-anchor:end' x='160.969' y='-9'>0.3</text><path d='M 211.959 0 v -7'/><text style='stroke:none;text-anchor:end' x='213.959' y='-9'>0.4</text><path d='M 264.948 0 v -7'/><text style='stroke:none;text-anchor:end' x='266.948' y='-9'>0.5</text><text style='font-size:small;stroke:none' x='0' y='-20'>substitutions/site</text></g></g>

	<polyline points="95,210 105,210 " style="stroke: rgb(250,123,23)" />
	<polyline points="95,260 105,260 " style="stroke: rgb(250,123,23)" />
	<polyline points="95,235 105,235 " style="stroke: rgb(250,123,23)" />
	<polyline points="100,260 100,185 100,210 " style="stroke: rgb(250,123,23)" />
	<text style="font-family: Arial; font-size: 10; font-style: italic; text-anchor: start" x="50" y="260">0%</text>
	<text style="font-family: Arial; font-size: 10; font-style: italic; text-anchor: start" x="50" y="210">100%</text>
	<text style="font-family: Arial; font-size: 10; font-style: italic; text-anchor: start" x="50" y="235">50%</text>
	<text style="font-family: Arial; font-size: 5; font-style: italic" x="100" y="280">Percentage of BGCs that contains this gene family</text>
	<polygon points="110,260 110,210 150,210 150,260 " style="fill: rgb(254,30,30); stroke: steelblue; stroke-opacity: 1; stroke-width: 2" >
<title>100</title></polygon>
	<polyline points="95,210 105,210 " style="stroke: rgb(250,123,23)" />
	<polyline points="95,260 105,260 " style="stroke: rgb(250,123,23)" />
	<polyline points="95,235 105,235 " style="stroke: rgb(250,123,23)" />
	<polyline points="100,260 100,185 100,210 " style="stroke: rgb(250,123,23)" />
	<text style="font-family: Arial; font-size: 10; font-style: italic; text-anchor: start" x="50" y="260">0%</text>
	<text style="font-family: Arial; font-size: 10; font-style: italic; text-anchor: start" x="50" y="210">100%</text>
	<text style="font-family: Arial; font-size: 10; font-style: italic; text-anchor: start" x="50" y="235">50%</text>
	<text style="font-family: Arial; font-size: 5; font-style: italic" x="100" y="280">Percentage of BGCs that contains this gene family</text>
	<polygon points="160,260 160,226.666666666667 200,226.666666666667 200,260 " style="fill: rgb(250,138,99); stroke: steelblue; stroke-opacity: 1; stroke-width: 2" >
<title>66.6666666666667</title></polygon>
	<polyline points="95,210 105,210 " style="stroke: rgb(250,123,23)" />
	<polyline points="95,260 105,260 " style="stroke: rgb(250,123,23)" />
	<polyline points="95,235 105,235 " style="stroke: rgb(250,123,23)" />
	<polyline points="100,260 100,185 100,210 " style="stroke: rgb(250,123,23)" />
	<text style="font-family: Arial; font-size: 10; font-style: italic; text-anchor: start" x="50" y="260">0%</text>
	<text style="font-family: Arial; font-size: 10; font-style: italic; text-anchor: start" x="50" y="210">100%</text>
	<text style="font-family: Arial; font-size: 10; font-style: italic; text-anchor: start" x="50" y="235">50%</text>
	<text style="font-family: Arial; font-size: 5; font-style: italic" x="100" y="280">Percentage of BGCs that contains this gene family</text>
	<polygon points="210,260 210,226.666666666667 250,226.666666666667 250,260 " style="fill: rgb(154,225,158); stroke: steelblue; stroke-opacity: 1; stroke-width: 2" >
<title>66.6666666666667</title></polygon>
	<polyline points="95,210 105,210 " style="stroke: rgb(250,123,23)" />
	<polyline points="95,260 105,260 " style="stroke: rgb(250,123,23)" />
	<polyline points="95,235 105,235 " style="stroke: rgb(250,123,23)" />
	<polyline points="100,260 100,185 100,210 " style="stroke: rgb(250,123,23)" />
	<text style="font-family: Arial; font-size: 10; font-style: italic; text-anchor: start" x="50" y="260">0%</text>
	<text style="font-family: Arial; font-size: 10; font-style: italic; text-anchor: start" x="50" y="210">100%</text>
	<text style="font-family: Arial; font-size: 10; font-style: italic; text-anchor: start" x="50" y="235">50%</text>
	<text style="font-family: Arial; font-size: 5; font-style: italic" x="100" y="280">Percentage of BGCs that contains this gene family</text>
	<polygon points="260,260 260,210 300,210 300,260 " style="fill: rgb(37,172,4); stroke: steelblue; stroke-opacity: 1; stroke-width: 2" >
<title>100</title></polygon>
	<polyline points="95,210 105,210 " style="stroke: rgb(250,123,23)" />
	<polyline points="95,260 105,260 " style="stroke: rgb(250,123,23)" />
	<polyline points="95,235 105,235 " style="stroke: rgb(250,123,23)" />
	<polyline points="100,260 100,185 100,210 " style="stroke: rgb(250,123,23)" />
	<text style="font-family: Arial; font-size: 10; font-style: italic; text-anchor: start" x="50" y="260">0%</text>
	<text style="font-family: Arial; font-size: 10; font-style: italic; text-anchor: start" x="50" y="210">100%</text>
	<text style="font-family: Arial; font-size: 10; font-style: italic; text-anchor: start" x="50" y="235">50%</text>
	<text style="font-family: Arial; font-size: 5; font-style: italic" x="100" y="280">Percentage of BGCs that contains this gene family</text>
	<polygon points="310,260 310,226.666666666667 350,226.666666666667 350,260 " style="fill: rgb(238,209,67); stroke: steelblue; stroke-opacity: 1; stroke-width: 2" >
<title>66.6666666666667</title></polygon>
	<polyline points="95,210 105,210 " style="stroke: rgb(250,123,23)" />
	<polyline points="95,260 105,260 " style="stroke: rgb(250,123,23)" />
	<polyline points="95,235 105,235 " style="stroke: rgb(250,123,23)" />
	<polyline points="100,260 100,185 100,210 " style="stroke: rgb(250,123,23)" />
	<text style="font-family: Arial; font-size: 10; font-style: italic; text-anchor: start" x="50" y="260">0%</text>
	<text style="font-family: Arial; font-size: 10; font-style: italic; text-anchor: start" x="50" y="210">100%</text>
	<text style="font-family: Arial; font-size: 10; font-style: italic; text-anchor: start" x="50" y="235">50%</text>
	<text style="font-family: Arial; font-size: 5; font-style: italic" x="100" y="280">Percentage of BGCs that contains this gene family</text>
	<polygon points="360,260 360,226.666666666667 400,226.666666666667 400,260 " style="fill: rgb(137,118,28); stroke: steelblue; stroke-opacity: 1; stroke-width: 2" >
<title>66.6666666666667</title></polygon>
	<polyline points="95,210 105,210 " style="stroke: rgb(250,123,23)" />
	<polyline points="95,260 105,260 " style="stroke: rgb(250,123,23)" />
	<polyline points="95,235 105,235 " style="stroke: rgb(250,123,23)" />
	<polyline points="100,260 100,185 100,210 " style="stroke: rgb(250,123,23)" />
	<text style="font-family: Arial; font-size: 10; font-style: italic; text-anchor: start" x="50" y="260">0%</text>
	<text style="font-family: Arial; font-size: 10; font-style: italic; text-anchor: start" x="50" y="210">100%</text>
	<text style="font-family: Arial; font-size: 10; font-style: italic; text-anchor: start" x="50" y="235">50%</text>
	<text style="font-family: Arial; font-size: 5; font-style: italic" x="100" y="280">Percentage of BGCs that contains this gene family</text>
	<polygon points="410,260 410,226.666666666667 450,226.666666666667 450,260 " style="fill: rgb(242,154,51); stroke: steelblue; stroke-opacity: 1; stroke-width: 2" >
<title>66.6666666666667</title></polygon>
	<polyline points="95,210 105,210 " style="stroke: rgb(250,123,23)" />
	<polyline points="95,260 105,260 " style="stroke: rgb(250,123,23)" />
	<polyline points="95,235 105,235 " style="stroke: rgb(250,123,23)" />
	<polyline points="100,260 100,185 100,210 " style="stroke: rgb(250,123,23)" />
	<text style="font-family: Arial; font-size: 10; font-style: italic; text-anchor: start" x="50" y="260">0%</text>
	<text style="font-family: Arial; font-size: 10; font-style: italic; text-anchor: start" x="50" y="210">100%</text>
	<text style="font-family: Arial; font-size: 10; font-style: italic; text-anchor: start" x="50" y="235">50%</text>
	<text style="font-family: Arial; font-size: 5; font-style: italic" x="100" y="280">Percentage of BGCs that contains this gene family</text>
	<polygon points="460,260 460,226.666666666667 500,226.666666666667 500,260 " style="fill: rgb(135,156,24); stroke: steelblue; stroke-opacity: 1; stroke-width: 2" >
<title>66.6666666666667</title></polygon>
	<polyline points="95,210 105,210 " style="stroke: rgb(250,123,23)" />
	<polyline points="95,260 105,260 " style="stroke: rgb(250,123,23)" />
	<polyline points="95,235 105,235 " style="stroke: rgb(250,123,23)" />
	<polyline points="100,260 100,185 100,210 " style="stroke: rgb(250,123,23)" />
	<text style="font-family: Arial; font-size: 10; font-style: italic; text-anchor: start" x="50" y="260">0%</text>
	<text style="font-family: Arial; font-size: 10; font-style: italic; text-anchor: start" x="50" y="210">100%</text>
	<text style="font-family: Arial; font-size: 10; font-style: italic; text-anchor: start" x="50" y="235">50%</text>
	<text style="font-family: Arial; font-size: 5; font-style: italic" x="100" y="280">Percentage of BGCs that contains this gene family</text>
	<polygon points="510,260 510,226.666666666667 550,226.666666666667 550,260 " style="fill: rgb(19,139,234); stroke: steelblue; stroke-opacity: 1; stroke-width: 2" >
<title>66.6666666666667</title></polygon>
	<polyline points="95,210 105,210 " style="stroke: rgb(250,123,23)" />
	<polyline points="95,260 105,260 " style="stroke: rgb(250,123,23)" />
	<polyline points="95,235 105,235 " style="stroke: rgb(250,123,23)" />
	<polyline points="100,260 100,185 100,210 " style="stroke: rgb(250,123,23)" />
	<text style="font-family: Arial; font-size: 10; font-style: italic; text-anchor: start" x="50" y="260">0%</text>
	<text style="font-family: Arial; font-size: 10; font-style: italic; text-anchor: start" x="50" y="210">100%</text>
	<text style="font-family: Arial; font-size: 10; font-style: italic; text-anchor: start" x="50" y="235">50%</text>
	<text style="font-family: Arial; font-size: 5; font-style: italic" x="100" y="280">Percentage of BGCs that contains this gene family</text>
	<polygon points="560,260 560,226.666666666667 600,226.666666666667 600,260 " style="fill: rgb(59,185,133); stroke: steelblue; stroke-opacity: 1; stroke-width: 2" >
<title>66.6666666666667</title></polygon>
	<polyline points="95,210 105,210 " style="stroke: rgb(250,123,23)" />
	<polyline points="95,260 105,260 " style="stroke: rgb(250,123,23)" />
	<polyline points="95,235 105,235 " style="stroke: rgb(250,123,23)" />
	<polyline points="100,260 100,185 100,210 " style="stroke: rgb(250,123,23)" />
	<text style="font-family: Arial; font-size: 10; font-style: italic; text-anchor: start" x="50" y="260">0%</text>
	<text style="font-family: Arial; font-size: 10; font-style: italic; text-anchor: start" x="50" y="210">100%</text>
	<text style="font-family: Arial; font-size: 10; font-style: italic; text-anchor: start" x="50" y="235">50%</text>
	<text style="font-family: Arial; font-size: 5; font-style: italic" x="100" y="280">Percentage of BGCs that contains this gene family</text>
	<polygon points="610,260 610,226.666666666667 650,226.666666666667 650,260 " style="fill: rgb(5,114,105); stroke: steelblue; stroke-opacity: 1; stroke-width: 2" >
<title>66.6666666666667</title></polygon>
	<polyline points="95,210 105,210 " style="stroke: rgb(250,123,23)" />
	<polyline points="95,260 105,260 " style="stroke: rgb(250,123,23)" />
	<polyline points="95,235 105,235 " style="stroke: rgb(250,123,23)" />
	<polyline points="100,260 100,185 100,210 " style="stroke: rgb(250,123,23)" />
	<text style="font-family: Arial; font-size: 10; font-style: italic; text-anchor: start" x="50" y="260">0%</text>
	<text style="font-family: Arial; font-size: 10; font-style: italic; text-anchor: start" x="50" y="210">100%</text>
	<text style="font-family: Arial; font-size: 10; font-style: italic; text-anchor: start" x="50" y="235">50%</text>
	<text style="font-family: Arial; font-size: 5; font-style: italic" x="100" y="280">Percentage of BGCs that contains this gene family</text>
	<polygon points="660,260 660,226.666666666667 700,226.666666666667 700,260 " style="fill: rgb(105,132,109); stroke: steelblue; stroke-opacity: 1; stroke-width: 2" >
<title>66.6666666666667</title></polygon>
	<polyline points="95,210 105,210 " style="stroke: rgb(250,123,23)" />
	<polyline points="95,260 105,260 " style="stroke: rgb(250,123,23)" />
	<polyline points="95,235 105,235 " style="stroke: rgb(250,123,23)" />
	<polyline points="100,260 100,185 100,210 " style="stroke: rgb(250,123,23)" />
	<text style="font-family: Arial; font-size: 10; font-style: italic; text-anchor: start" x="50" y="260">0%</text>
	<text style="font-family: Arial; font-size: 10; font-style: italic; text-anchor: start" x="50" y="210">100%</text>
	<text style="font-family: Arial; font-size: 10; font-style: italic; text-anchor: start" x="50" y="235">50%</text>
	<text style="font-family: Arial; font-size: 5; font-style: italic" x="100" y="280">Percentage of BGCs that contains this gene family</text>
	<polygon points="710,260 710,210 750,210 750,260 " style="fill: rgb(40,186,164); stroke: steelblue; stroke-opacity: 1; stroke-width: 2" >
<title>100</title></polygon>
	<polyline points="95,210 105,210 " style="stroke: rgb(250,123,23)" />
	<polyline points="95,260 105,260 " style="stroke: rgb(250,123,23)" />
	<polyline points="95,235 105,235 " style="stroke: rgb(250,123,23)" />
	<polyline points="100,260 100,185 100,210 " style="stroke: rgb(250,123,23)" />
	<text style="font-family: Arial; font-size: 10; font-style: italic; text-anchor: start" x="50" y="260">0%</text>
	<text style="font-family: Arial; font-size: 10; font-style: italic; text-anchor: start" x="50" y="210">100%</text>
	<text style="font-family: Arial; font-size: 10; font-style: italic; text-anchor: start" x="50" y="235">50%</text>
	<text style="font-family: Arial; font-size: 5; font-style: italic" x="100" y="280">Percentage of BGCs that contains this gene family</text>
	<polygon points="760,260 760,226.666666666667 800,226.666666666667 800,260 " style="fill: rgb(168,100,39); stroke: steelblue; stroke-opacity: 1; stroke-width: 2" >
<title>66.6666666666667</title></polygon>
	<polyline points="95,210 105,210 " style="stroke: rgb(250,123,23)" />
	<polyline points="95,260 105,260 " style="stroke: rgb(250,123,23)" />
	<polyline points="95,235 105,235 " style="stroke: rgb(250,123,23)" />
	<polyline points="100,260 100,185 100,210 " style="stroke: rgb(250,123,23)" />
	<text style="font-family: Arial; font-size: 10; font-style: italic; text-anchor: start" x="50" y="260">0%</text>
	<text style="font-family: Arial; font-size: 10; font-style: italic; text-anchor: start" x="50" y="210">100%</text>
	<text style="font-family: Arial; font-size: 10; font-style: italic; text-anchor: start" x="50" y="235">50%</text>
	<text style="font-family: Arial; font-size: 5; font-style: italic" x="100" y="280">Percentage of BGCs that contains this gene family</text>
	<polygon points="810,260 810,226.666666666667 850,226.666666666667 850,260 " style="fill: rgb(39,188,114); stroke: steelblue; stroke-opacity: 1; stroke-width: 2" >
<title>66.6666666666667</title></polygon>
	<polyline points="95,210 105,210 " style="stroke: rgb(250,123,23)" />
	<polyline points="95,260 105,260 " style="stroke: rgb(250,123,23)" />
	<polyline points="95,235 105,235 " style="stroke: rgb(250,123,23)" />
	<polyline points="100,260 100,185 100,210 " style="stroke: rgb(250,123,23)" />
	<text style="font-family: Arial; font-size: 10; font-style: italic; text-anchor: start" x="50" y="260">0%</text>
	<text style="font-family: Arial; font-size: 10; font-style: italic; text-anchor: start" x="50" y="210">100%</text>
	<text style="font-family: Arial; font-size: 10; font-style: italic; text-anchor: start" x="50" y="235">50%</text>
	<text style="font-family: Arial; font-size: 5; font-style: italic" x="100" y="280">Percentage of BGCs that contains this gene family</text>
	<polygon points="860,260 860,226.666666666667 900,226.666666666667 900,260 " style="fill: rgb(104,223,253); stroke: steelblue; stroke-opacity: 1; stroke-width: 2" >
<title>66.6666666666667</title></polygon>
	<polyline points="95,210 105,210 " style="stroke: rgb(250,123,23)" />
	<polyline points="95,260 105,260 " style="stroke: rgb(250,123,23)" />
	<polyline points="95,235 105,235 " style="stroke: rgb(250,123,23)" />
	<polyline points="100,260 100,185 100,210 " style="stroke: rgb(250,123,23)" />
	<text style="font-family: Arial; font-size: 10; font-style: italic; text-anchor: start" x="50" y="260">0%</text>
	<text style="font-family: Arial; font-size: 10; font-style: italic; text-anchor: start" x="50" y="210">100%</text>
	<text style="font-family: Arial; font-size: 10; font-style: italic; text-anchor: start" x="50" y="235">50%</text>
	<text style="font-family: Arial; font-size: 5; font-style: italic" x="100" y="280">Percentage of BGCs that contains this gene family</text>
	<polygon points="910,260 910,243.333333333333 950,243.333333333333 950,260 " style="fill: rgb(239,147,58); stroke: steelblue; stroke-opacity: 1; stroke-width: 2" >
<title>33.3333333333333</title></polygon>
	<polyline points="95,210 105,210 " style="stroke: rgb(250,123,23)" />
	<polyline points="95,260 105,260 " style="stroke: rgb(250,123,23)" />
	<polyline points="95,235 105,235 " style="stroke: rgb(250,123,23)" />
	<polyline points="100,260 100,185 100,210 " style="stroke: rgb(250,123,23)" />
	<text style="font-family: Arial; font-size: 10; font-style: italic; text-anchor: start" x="50" y="260">0%</text>
	<text style="font-family: Arial; font-size: 10; font-style: italic; text-anchor: start" x="50" y="210">100%</text>
	<text style="font-family: Arial; font-size: 10; font-style: italic; text-anchor: start" x="50" y="235">50%</text>
	<text style="font-family: Arial; font-size: 5; font-style: italic" x="100" y="280">Percentage of BGCs that contains this gene family</text>
	<polygon points="960,260 960,226.666666666667 1000,226.666666666667 1000,260 " style="fill: rgb(226,150,120); stroke: steelblue; stroke-opacity: 1; stroke-width: 2" >
<title>66.6666666666667</title></polygon>
	<polyline points="95,210 105,210 " style="stroke: rgb(250,123,23)" />
	<polyline points="95,260 105,260 " style="stroke: rgb(250,123,23)" />
	<polyline points="95,235 105,235 " style="stroke: rgb(250,123,23)" />
	<polyline points="100,260 100,185 100,210 " style="stroke: rgb(250,123,23)" />
	<text style="font-family: Arial; font-size: 10; font-style: italic; text-anchor: start" x="50" y="260">0%</text>
	<text style="font-family: Arial; font-size: 10; font-style: italic; text-anchor: start" x="50" y="210">100%</text>
	<text style="font-family: Arial; font-size: 10; font-style: italic; text-anchor: start" x="50" y="235">50%</text>
	<text style="font-family: Arial; font-size: 5; font-style: italic" x="100" y="280">Percentage of BGCs that contains this gene family</text>
	<polygon points="1010,260 1010,243.333333333333 1050,243.333333333333 1050,260 " style="fill: rgb(168,137,7); stroke: steelblue; stroke-opacity: 1; stroke-width: 2" >
<title>33.3333333333333</title></polygon>
	<polyline points="95,210 105,210 " style="stroke: rgb(250,123,23)" />
	<polyline points="95,260 105,260 " style="stroke: rgb(250,123,23)" />
	<polyline points="95,235 105,235 " style="stroke: rgb(250,123,23)" />
	<polyline points="100,260 100,185 100,210 " style="stroke: rgb(250,123,23)" />
	<text style="font-family: Arial; font-size: 10; font-style: italic; text-anchor: start" x="50" y="260">0%</text>
	<text style="font-family: Arial; font-size: 10; font-style: italic; text-anchor: start" x="50" y="210">100%</text>
	<text style="font-family: Arial; font-size: 10; font-style: italic; text-anchor: start" x="50" y="235">50%</text>
	<text style="font-family: Arial; font-size: 5; font-style: italic" x="100" y="280">Percentage of BGCs that contains this gene family</text>
	<polygon points="1060,260 1060,226.666666666667 1100,226.666666666667 1100,260 " style="fill: rgb(226,180,223); stroke: steelblue; stroke-opacity: 1; stroke-width: 2" >
<title>66.6666666666667</title></polygon>
	<polyline points="95,210 105,210 " style="stroke: rgb(250,123,23)" />
	<polyline points="95,260 105,260 " style="stroke: rgb(250,123,23)" />
	<polyline points="95,235 105,235 " style="stroke: rgb(250,123,23)" />
	<polyline points="100,260 100,185 100,210 " style="stroke: rgb(250,123,23)" />
	<text style="font-family: Arial; font-size: 10; font-style: italic; text-anchor: start" x="50" y="260">0%</text>
	<text style="font-family: Arial; font-size: 10; font-style: italic; text-anchor: start" x="50" y="210">100%</text>
	<text style="font-family: Arial; font-size: 10; font-style: italic; text-anchor: start" x="50" y="235">50%</text>
	<text style="font-family: Arial; font-size: 5; font-style: italic" x="100" y="280">Percentage of BGCs that contains this gene family</text>
	<polyline points="100,21 900,21 " style="fill-opacity: 0; stroke: rgb(250,123,23); stroke-dasharray: 5,5; stroke-opacity: 0.5" />
	<polyline points="100,61 900,61 " style="fill-opacity: 0; stroke: rgb(250,123,23); stroke-dasharray: 5,5; stroke-opacity: 0.5" />
	<polyline points="100,101 900,101 " style="fill-opacity: 0; stroke: rgb(250,123,23); stroke-dasharray: 5,5; stroke-opacity: 0.5" />
	<text style="font-family: Arial; font-size: 10; font-style: italic; text-anchor: middle" x="600" y="14">100010_1112 GCF_002871005.1_Acidimangrovimonas_sediminis_MS2-2.gbk </text>
	<polygon points="425,16 425,26 425,26 430,21 425,16 " style="fill: rgb(255,255,255); fill-opacity: 1; stroke: black; stroke-opacity: 1; stroke-width: 1" >
<title>Identity:1 Organism:GCF_002871005.1_Acidimangrovimonas_sediminis_MS2-2.gbk  Coordinates:28077 28619
Direction:+ Gen Id:fig|666666.100010.peg.1102 Function L-threonine 3-dehydrogenase smash:none</title></polygon>
	<polygon points="438,16 438,26 436,26 431,21 436,16 " style="fill: rgb(255,255,255); fill-opacity: 1; stroke: black; stroke-opacity: 1; stroke-width: 1" >
<title>Identity:1 Organism:GCF_002871005.1_Acidimangrovimonas_sediminis_MS2-2.gbk  Coordinates:29503 28745
Direction:- Gen Id:fig|666666.100010.peg.1103 Function hypothetical protein smash:none</title></polygon>
	<polygon points="439,16 439,26 443,26 448,21 443,16 " style="fill: rgb(255,255,255); fill-opacity: 1; stroke: black; stroke-opacity: 1; stroke-width: 1" >
<title>Identity:1 Organism:GCF_002871005.1_Acidimangrovimonas_sediminis_MS2-2.gbk  Coordinates:29600 30511
Direction:+ Gen Id:fig|666666.100010.peg.1104 Function IS5 family transposase IS4811 smash:none</title></polygon>
	<polygon points="451,16 451,26 451,26 456,21 451,16 " style="fill: rgb(255,255,255); fill-opacity: 1; stroke: black; stroke-opacity: 1; stroke-width: 1" >
<title>Identity:1 Organism:GCF_002871005.1_Acidimangrovimonas_sediminis_MS2-2.gbk  Coordinates:30914 31462
Direction:+ Gen Id:fig|666666.100010.peg.1105 Function ECF RNA polymerase sigma factor SigK smash:none</title></polygon>
	<polygon points="456,16 456,26 458,26 463,21 458,16 " style="fill: rgb(255,255,255); fill-opacity: 1; stroke: black; stroke-opacity: 1; stroke-width: 1" >
<title>Identity:1 Organism:GCF_002871005.1_Acidimangrovimonas_sediminis_MS2-2.gbk  Coordinates:31459 32142
Direction:+ Gen Id:fig|666666.100010.peg.1106 Function hypothetical protein smash:none</title></polygon>
	<polygon points="464,16 464,26 464,26 469,21 464,16 " style="fill: rgb(255,255,255); fill-opacity: 1; stroke: black; stroke-opacity: 1; stroke-width: 1" >
<title>Identity:1 Organism:GCF_002871005.1_Acidimangrovimonas_sediminis_MS2-2.gbk  Coordinates:32267 32818
Direction:+ Gen Id:fig|666666.100010.peg.1107 Function hypothetical protein smash:none</title></polygon>
	<polygon points="470,16 470,26 473,26 478,21 473,16 " style="fill: rgb(255,255,255); fill-opacity: 1; stroke: black; stroke-opacity: 1; stroke-width: 1" >
<title>Identity:1 Organism:GCF_002871005.1_Acidimangrovimonas_sediminis_MS2-2.gbk  Coordinates:32909 33724
Direction:+ Gen Id:fig|666666.100010.peg.1108 Function hypothetical protein smash:none</title></polygon>
	<polygon points="478,16 478,26 480,26 485,21 480,16 " style="fill: rgb(255,255,255); fill-opacity: 1; stroke: black; stroke-opacity: 1; stroke-width: 1" >
<title>Identity:1 Organism:GCF_002871005.1_Acidimangrovimonas_sediminis_MS2-2.gbk  Coordinates:33725 34501
Direction:+ Gen Id:fig|666666.100010.peg.1109 Function Putative protein-methionine-sulfoxide reductase subunit YedZ1 smash:none</title></polygon>
	<polygon points="485,16 485,26 485,16 488,21 485,26 " style="fill: rgb(255,255,255); fill-opacity: 1; stroke: black; stroke-opacity: 1; stroke-width: 1" >
<title>Identity:1 Organism:GCF_002871005.1_Acidimangrovimonas_sediminis_MS2-2.gbk  Coordinates:34479 34856
Direction:+ Gen Id:fig|666666.100010.peg.1110 Function Inner membrane protein YqjF smash:none</title></polygon>
	<polygon points="489,16 489,26 495,26 500,21 495,16 " style="fill: rgb(40,186,164); fill-opacity: 0.5977; stroke: black; stroke-opacity: 1; stroke-width: 1" >
<title>Identity:0.5977 Organism:GCF_002871005.1_Acidimangrovimonas_sediminis_MS2-2.gbk  Coordinates:34966 36036
Direction:+ Gen Id:fig|666666.100010.peg.1111 Function 1,3,6,8-tetrahydroxynaphthalene synthase smash:none</title></polygon>
	<polygon points="500,16 500,26 500,16 504,21 500,26 " style="fill: rgb(254,30,30); fill-opacity: 0.63522; stroke: black; stroke-opacity: 1; stroke-width: 1" >
<title>Identity:0.63522 Organism:GCF_002871005.1_Acidimangrovimonas_sediminis_MS2-2.gbk  Coordinates:36033 36542
Direction:+ Gen Id:fig|666666.100010.peg.1112 Function hypothetical protein smash:none</title></polygon>
	<polygon points="519,16 519,26 511,26 506,21 511,16 " style="fill: rgb(255,255,255); fill-opacity: 1; stroke: black; stroke-opacity: 1; stroke-width: 1" >
<title>Identity:1 Organism:GCF_002871005.1_Acidimangrovimonas_sediminis_MS2-2.gbk  Coordinates:38077 36770
Direction:- Gen Id:fig|666666.100010.peg.1113 Function C4-dicarboxylate TRAP transporter large permease protein DctM smash:none</title></polygon>
	<polygon points="523,16 523,26 523,16 519,21 523,26 " style="fill: rgb(255,255,255); fill-opacity: 1; stroke: black; stroke-opacity: 1; stroke-width: 1" >
<title>Identity:1 Organism:GCF_002871005.1_Acidimangrovimonas_sediminis_MS2-2.gbk  Coordinates:38568 38074
Direction:- Gen Id:fig|666666.100010.peg.1114 Function hypothetical protein smash:none</title></polygon>
	<polygon points="533,16 533,26 529,26 524,21 529,16 " style="fill: rgb(255,255,255); fill-opacity: 1; stroke: black; stroke-opacity: 1; stroke-width: 1" >
<title>Identity:1 Organism:GCF_002871005.1_Acidimangrovimonas_sediminis_MS2-2.gbk  Coordinates:39570 38584
Direction:- Gen Id:fig|666666.100010.peg.1115 Function Solute-binding protein smash:none</title></polygon>
	<polygon points="544,16 544,26 541,26 536,21 541,16 " style="fill: rgb(255,255,255); fill-opacity: 1; stroke: black; stroke-opacity: 1; stroke-width: 1" >
<title>Identity:1 Organism:GCF_002871005.1_Acidimangrovimonas_sediminis_MS2-2.gbk  Coordinates:40767 39964
Direction:- Gen Id:fig|666666.100010.peg.1116 Function hypothetical protein smash:none</title></polygon>
	<polygon points="553,16 553,26 550,26 545,21 550,16 " style="fill: rgb(255,255,255); fill-opacity: 1; stroke: black; stroke-opacity: 1; stroke-width: 1" >
<title>Identity:1 Organism:GCF_002871005.1_Acidimangrovimonas_sediminis_MS2-2.gbk  Coordinates:41700 40837
Direction:- Gen Id:fig|666666.100010.peg.1117 Function Melibiose/raffinose/stachyose import permease protein MelD smash:none</title></polygon>
	<polygon points="566,16 566,26 559,26 554,21 559,16 " style="fill: rgb(255,255,255); fill-opacity: 1; stroke: black; stroke-opacity: 1; stroke-width: 1" >
<title>Identity:1 Organism:GCF_002871005.1_Acidimangrovimonas_sediminis_MS2-2.gbk  Coordinates:43071 41800
Direction:- Gen Id:fig|666666.100010.peg.1118 Function hypothetical protein smash:none</title></polygon>
	<polygon points="574,16 574,26 571,26 566,21 571,16 " style="fill: rgb(255,255,255); fill-opacity: 1; stroke: black; stroke-opacity: 1; stroke-width: 1" >
<title>Identity:1 Organism:GCF_002871005.1_Acidimangrovimonas_sediminis_MS2-2.gbk  Coordinates:43916 43116
Direction:- Gen Id:fig|666666.100010.peg.1119 Function Trehalose transport system permease protein SugB smash:none</title></polygon>
	<polygon points="584,16 584,26 579,26 574,21 579,16 " style="fill: rgb(255,255,255); fill-opacity: 1; stroke: black; stroke-opacity: 1; stroke-width: 1" >
<title>Identity:1 Organism:GCF_002871005.1_Acidimangrovimonas_sediminis_MS2-2.gbk  Coordinates:45019 43919
Direction:- Gen Id:fig|666666.100010.peg.1120 Function Oligosaccharides import ATP-binding protein MsmX smash:none</title></polygon>
	<polygon points="592,16 592,26 590,26 585,21 590,16 " style="fill: rgb(37,172,4); fill-opacity: 0.29502; stroke: black; stroke-opacity: 1; stroke-width: 1" >
<title>Identity:0.29502 Organism:GCF_002871005.1_Acidimangrovimonas_sediminis_MS2-2.gbk  Coordinates:45886 45086
Direction:- Gen Id:fig|666666.100010.peg.1121 Function 3-oxoacyl-[acyl-carrier-protein] reductase FabG smash:none</title></polygon>
	<text style="font-family: Arial; font-size: 10; font-style: italic; text-anchor: middle" x="600" y="54">100030_528 GCF_023336755.1_Roseibaca_sp.V10_V10.gbk </text>
	<polygon points="375,56 375,66 384,66 389,61 384,56 " style="fill: rgb(168,137,7); fill-opacity: 1; stroke: black; stroke-opacity: 1; stroke-width: 1" >
<title>Identity:1 Organism:GCF_023336755.1_Roseibaca_sp.V10_V10.gbk  Coordinates:112173 113705
Direction:+ Gen Id:fig|666666.100030.peg.518 Function Galactose/methyl galactoside import ATP-binding protein MglA smash:none</title></polygon>
	<polygon points="389,56 389,66 394,66 399,61 394,56 " style="fill: rgb(226,180,223); fill-opacity: 1; stroke: black; stroke-opacity: 1; stroke-width: 1" >
<title>Identity:1 Organism:GCF_023336755.1_Roseibaca_sp.V10_V10.gbk  Coordinates:113702 114787
Direction:+ Gen Id:fig|666666.100030.peg.519 Function hypothetical protein smash:none</title></polygon>
	<polygon points="399,56 399,66 403,66 408,61 403,56 " style="fill: rgb(242,154,51); fill-opacity: 1; stroke: black; stroke-opacity: 1; stroke-width: 1" >
<title>Identity:1 Organism:GCF_023336755.1_Roseibaca_sp.V10_V10.gbk  Coordinates:114784 115716
Direction:+ Gen Id:fig|666666.100030.peg.520 Function hypothetical protein smash:none</title></polygon>
	<polygon points="408,56 408,66 414,66 419,61 414,56 " style="fill: rgb(238,209,67); fill-opacity: 1; stroke: black; stroke-opacity: 1; stroke-width: 1" >
<title>Identity:1 Organism:GCF_023336755.1_Roseibaca_sp.V10_V10.gbk  Coordinates:115753 116829
Direction:+ Gen Id:fig|666666.100030.peg.521 Function Purine-binding protein smash:none</title></polygon>
	<polygon points="419,56 419,66 420,66 425,61 420,56 " style="fill: rgb(59,185,133); fill-opacity: 1; stroke: black; stroke-opacity: 1; stroke-width: 1" >
<title>Identity:1 Organism:GCF_023336755.1_Roseibaca_sp.V10_V10.gbk  Coordinates:116927 117523
Direction:+ Gen Id:fig|666666.100030.peg.522 Function hypothetical protein smash:none</title></polygon>
	<polygon points="436,56 436,66 430,66 425,61 430,56 " style="fill: rgb(104,223,253); fill-opacity: 1; stroke: black; stroke-opacity: 1; stroke-width: 1" >
<title>Identity:1 Organism:GCF_023336755.1_Roseibaca_sp.V10_V10.gbk  Coordinates:118677 117520
Direction:- Gen Id:fig|666666.100030.peg.523 Function Chaperone protein DnaJ smash:none</title></polygon>
	<polygon points="455,56 455,66 442,66 437,61 442,56 " style="fill: rgb(250,138,99); fill-opacity: 1; stroke: black; stroke-opacity: 1; stroke-width: 1" >
<title>Identity:1 Organism:GCF_023336755.1_Roseibaca_sp.V10_V10.gbk  Coordinates:120662 118749
Direction:- Gen Id:fig|666666.100030.peg.524 Function Chaperone protein DnaK smash:none</title></polygon>
	<polygon points="475,56 475,66 461,66 456,61 461,56 " style="fill: rgb(168,100,39); fill-opacity: 1; stroke: black; stroke-opacity: 1; stroke-width: 1" >
<title>Identity:1 Organism:GCF_023336755.1_Roseibaca_sp.V10_V10.gbk  Coordinates:122837 120831
Direction:- Gen Id:fig|666666.100030.peg.525 Function Dipeptidyl carboxypeptidase smash:none</title></polygon>
	<polygon points="488,56 488,66 481,66 476,61 481,56 " style="fill: rgb(226,150,120); fill-opacity: 1; stroke: black; stroke-opacity: 1; stroke-width: 1" >
<title>Identity:1 Organism:GCF_023336755.1_Roseibaca_sp.V10_V10.gbk  Coordinates:124199 122904
Direction:- Gen Id:fig|666666.100030.peg.526 Function putative MFS-type transporter YcaD smash:none</title></polygon>
	<polygon points="490,56 490,66 495,66 500,61 495,56 " style="fill: rgb(40,186,164); fill-opacity: 1; stroke: black; stroke-opacity: 1; stroke-width: 1" >
<title>Identity:1 Organism:GCF_023336755.1_Roseibaca_sp.V10_V10.gbk  Coordinates:124396 125436
Direction:+ Gen Id:fig|666666.100030.peg.527 Function 1,3,6,8-tetrahydroxynaphthalene synthase smash:none</title></polygon>
	<polygon points="500,56 500,66 500,56 504,61 500,66 " style="fill: rgb(254,30,30); fill-opacity: 1; stroke: black; stroke-opacity: 1; stroke-width: 1" >
<title>Identity:1 Organism:GCF_023336755.1_Roseibaca_sp.V10_V10.gbk  Coordinates:125433 125921
Direction:+ Gen Id:fig|666666.100030.peg.528 Function hypothetical protein smash:none</title></polygon>
	<polygon points="505,56 505,66 508,66 513,61 508,56 " style="fill: rgb(135,156,24); fill-opacity: 1; stroke: black; stroke-opacity: 1; stroke-width: 1" >
<title>Identity:1 Organism:GCF_023336755.1_Roseibaca_sp.V10_V10.gbk  Coordinates:125992 126885
Direction:+ Gen Id:fig|666666.100030.peg.529 Function UDP-glucose 4-epimerase smash:none</title></polygon>
	<polygon points="537,56 537,66 518,66 513,61 518,56 " style="fill: rgb(137,118,28); fill-opacity: 1; stroke: black; stroke-opacity: 1; stroke-width: 1" >
<title>Identity:1 Organism:GCF_023336755.1_Roseibaca_sp.V10_V10.gbk  Coordinates:129375 126889
Direction:- Gen Id:fig|666666.100030.peg.530 Function 4-methylaminobutanoate oxidase (formaldehyde-forming) smash:none</title></polygon>
	<polygon points="542,56 542,66 542,56 538,61 542,66 " style="fill: rgb(5,114,105); fill-opacity: 1; stroke: black; stroke-opacity: 1; stroke-width: 1" >
<title>Identity:1 Organism:GCF_023336755.1_Roseibaca_sp.V10_V10.gbk  Coordinates:129967 129506
Direction:- Gen Id:fig|666666.100030.peg.531 Function hypothetical protein smash:none</title></polygon>
	<polygon points="543,56 543,66 546,66 551,61 546,56 " style="fill: rgb(19,139,234); fill-opacity: 1; stroke: black; stroke-opacity: 1; stroke-width: 1" >
<title>Identity:1 Organism:GCF_023336755.1_Roseibaca_sp.V10_V10.gbk  Coordinates:130095 130940
Direction:+ Gen Id:fig|666666.100030.peg.532 Function Pantothenate synthetase smash:none</title></polygon>
	<polygon points="551,56 551,66 554,66 559,61 554,56 " style="fill: rgb(105,132,109); fill-opacity: 1; stroke: black; stroke-opacity: 1; stroke-width: 1" >
<title>Identity:1 Organism:GCF_023336755.1_Roseibaca_sp.V10_V10.gbk  Coordinates:130937 131746
Direction:+ Gen Id:fig|666666.100030.peg.533 Function 3-methyl-2-oxobutanoate hydroxymethyltransferase smash:none</title></polygon>
	<polygon points="567,56 567,66 564,66 559,61 564,56 " style="fill: rgb(239,147,58); fill-opacity: 1; stroke: black; stroke-opacity: 1; stroke-width: 1" >
<title>Identity:1 Organism:GCF_023336755.1_Roseibaca_sp.V10_V10.gbk  Coordinates:132564 131767
Direction:- Gen Id:fig|666666.100030.peg.534 Function hypothetical protein smash:none</title></polygon>
	<polygon points="579,56 579,66 577,66 572,61 577,56 " style="fill: rgb(37,172,4); fill-opacity: 1; stroke: black; stroke-opacity: 1; stroke-width: 1" >
<title>Identity:1 Organism:GCF_023336755.1_Roseibaca_sp.V10_V10.gbk  Coordinates:133922 133116
Direction:- Gen Id:fig|666666.100030.peg.535 Function Dihydroanticapsin 7-dehydrogenase smash:none</title></polygon>
	<polygon points="589,56 589,66 584,66 579,61 584,56 " style="fill: rgb(39,188,114); fill-opacity: 1; stroke: black; stroke-opacity: 1; stroke-width: 1" >
<title>Identity:1 Organism:GCF_023336755.1_Roseibaca_sp.V10_V10.gbk  Coordinates:134941 133919
Direction:- Gen Id:fig|666666.100030.peg.536 Function Ribosomal RNA small subunit methyltransferase C smash:none</title></polygon>
	<polygon points="592,56 592,66 592,56 589,61 592,66 " style="fill: rgb(154,225,158); fill-opacity: 1; stroke: black; stroke-opacity: 1; stroke-width: 1" >
<title>Identity:1 Organism:GCF_023336755.1_Roseibaca_sp.V10_V10.gbk  Coordinates:135286 134951
Direction:- Gen Id:fig|666666.100030.peg.537 Function ATP-dependent Clp protease adapter protein ClpS smash:none</title></polygon>
	<text style="font-family: Arial; font-size: 10; font-style: italic; text-anchor: middle" x="600" y="94">100033_1543 GCF_900499075.1_Roseibaca_ekhonensis_CECT_7235.gbk </text>
	<polygon points="590,96 590,106 590,96 587,101 590,106 " style="fill: rgb(154,225,158); fill-opacity: 0.97297; stroke: black; stroke-opacity: 1; stroke-width: 1" >
<title>Identity:0.97297 Organism:GCF_900499075.1_Roseibaca_ekhonensis_CECT_7235.gbk  Coordinates:72815 73150
Direction:+ Gen Id:fig|666666.100033.peg.1533 Function ATP-dependent Clp protease adapter protein ClpS smash:none</title></polygon>
	<polygon points="587,96 587,106 582,106 577,101 582,96 " style="fill: rgb(39,188,114); fill-opacity: 0.79412; stroke: black; stroke-opacity: 1; stroke-width: 1" >
<title>Identity:0.79412 Organism:GCF_900499075.1_Roseibaca_ekhonensis_CECT_7235.gbk  Coordinates:73160 74182
Direction:+ Gen Id:fig|666666.100033.peg.1534 Function Ribosomal RNA small subunit methyltransferase C smash:none</title></polygon>
	<polygon points="577,96 577,106 575,106 570,101 575,96 " style="fill: rgb(37,172,4); fill-opacity: 0.93309; stroke: black; stroke-opacity: 1; stroke-width: 1" >
<title>Identity:0.93309 Organism:GCF_900499075.1_Roseibaca_ekhonensis_CECT_7235.gbk  Coordinates:74179 74988
Direction:+ Gen Id:fig|666666.100033.peg.1535 Function Dihydroanticapsin 7-dehydrogenase smash:none</title></polygon>
	<polygon points="566,96 566,106 566,96 569,101 566,106 " style="fill: rgb(255,255,255); fill-opacity: 1; stroke: black; stroke-opacity: 1; stroke-width: 1" >
<title>Identity:1 Organism:GCF_900499075.1_Roseibaca_ekhonensis_CECT_7235.gbk  Coordinates:75398 75084
Direction:- Gen Id:fig|666666.100033.peg.1536 Function hypothetical protein smash:none</title></polygon>
	<polygon points="558,96 558,106 561,106 566,101 561,96 " style="fill: rgb(105,132,109); fill-opacity: 0.9777; stroke: black; stroke-opacity: 1; stroke-width: 1" >
<title>Identity:0.9777 Organism:GCF_900499075.1_Roseibaca_ekhonensis_CECT_7235.gbk  Coordinates:76211 75402
Direction:- Gen Id:fig|666666.100033.peg.1537 Function 3-methyl-2-oxobutanoate hydroxymethyltransferase smash:none</title></polygon>
	<polygon points="550,96 550,106 553,106 558,101 553,96 " style="fill: rgb(19,139,234); fill-opacity: 0.88889; stroke: black; stroke-opacity: 1; stroke-width: 1" >
<title>Identity:0.88889 Organism:GCF_900499075.1_Roseibaca_ekhonensis_CECT_7235.gbk  Coordinates:77053 76214
Direction:- Gen Id:fig|666666.100033.peg.1538 Function Pantothenate synthetase smash:none</title></polygon>
	<polygon points="549,96 549,106 549,96 545,101 549,106 " style="fill: rgb(5,114,105); fill-opacity: 0.71895; stroke: black; stroke-opacity: 1; stroke-width: 1" >
<title>Identity:0.71895 Organism:GCF_900499075.1_Roseibaca_ekhonensis_CECT_7235.gbk  Coordinates:77182 77631
Direction:+ Gen Id:fig|666666.100033.peg.1539 Function hypothetical protein smash:none</title></polygon>
	<polygon points="544,96 544,106 525,106 520,101 525,96 " style="fill: rgb(137,118,28); fill-opacity: 0.88715; stroke: black; stroke-opacity: 1; stroke-width: 1" >
<title>Identity:0.88715 Organism:GCF_900499075.1_Roseibaca_ekhonensis_CECT_7235.gbk  Coordinates:77761 80259
Direction:+ Gen Id:fig|666666.100033.peg.1540 Function 4-methylaminobutanoate oxidase (formaldehyde-forming) smash:none</title></polygon>
	<polygon points="512,96 512,106 515,106 520,101 515,96 " style="fill: rgb(135,156,24); fill-opacity: 0.91246; stroke: black; stroke-opacity: 1; stroke-width: 1" >
<title>Identity:0.91246 Organism:GCF_900499075.1_Roseibaca_ekhonensis_CECT_7235.gbk  Coordinates:81156 80263
Direction:- Gen Id:fig|666666.100033.peg.1541 Function UDP-glucose 4-epimerase smash:none</title></polygon>
	<polygon points="506,96 506,106 506,106 511,101 506,96 " style="fill: rgb(255,255,255); fill-opacity: 1; stroke: black; stroke-opacity: 1; stroke-width: 1" >
<title>Identity:1 Organism:GCF_900499075.1_Roseibaca_ekhonensis_CECT_7235.gbk  Coordinates:81708 81229
Direction:- Gen Id:fig|666666.100033.peg.1542 Function hypothetical protein smash:none</title></polygon>
	<polygon points="500,96 500,106 500,106 505,101 500,96 " style="fill: rgb(254,30,30); fill-opacity: 0.89506; stroke: black; stroke-opacity: 1; stroke-width: 1" >
<title>Identity:0.89506 Organism:GCF_900499075.1_Roseibaca_ekhonensis_CECT_7235.gbk  Coordinates:82333 81845
Direction:- Gen Id:fig|666666.100033.peg.1543 Function hypothetical protein smash:none</title></polygon>
	<polygon points="491,96 491,106 496,106 501,101 496,96 " style="fill: rgb(40,186,164); fill-opacity: 0.82659; stroke: black; stroke-opacity: 1; stroke-width: 1" >
<title>Identity:0.82659 Organism:GCF_900499075.1_Roseibaca_ekhonensis_CECT_7235.gbk  Coordinates:83370 82330
Direction:- Gen Id:fig|666666.100033.peg.1544 Function 1,3,6,8-tetrahydroxynaphthalene synthase smash:none</title></polygon>
	<polygon points="489,96 489,106 482,106 477,101 482,96 " style="fill: rgb(226,150,120); fill-opacity: 0.90355; stroke: black; stroke-opacity: 1; stroke-width: 1" >
<title>Identity:0.90355 Organism:GCF_900499075.1_Roseibaca_ekhonensis_CECT_7235.gbk  Coordinates:83576 84874
Direction:+ Gen Id:fig|666666.100033.peg.1545 Function putative MFS-type transporter YcaD smash:none</title></polygon>
	<polygon points="476,96 476,106 462,106 457,101 462,96 " style="fill: rgb(168,100,39); fill-opacity: 0.90868; stroke: black; stroke-opacity: 1; stroke-width: 1" >
<title>Identity:0.90868 Organism:GCF_900499075.1_Roseibaca_ekhonensis_CECT_7235.gbk  Coordinates:84953 86959
Direction:+ Gen Id:fig|666666.100033.peg.1546 Function Dipeptidyl carboxypeptidase smash:none</title></polygon>
	<polygon points="455,96 455,106 442,106 437,101 442,96 " style="fill: rgb(250,138,99); fill-opacity: 0.96238; stroke: black; stroke-opacity: 1; stroke-width: 1" >
<title>Identity:0.96238 Organism:GCF_900499075.1_Roseibaca_ekhonensis_CECT_7235.gbk  Coordinates:87127 89043
Direction:+ Gen Id:fig|666666.100033.peg.1547 Function Chaperone protein DnaK smash:none</title></polygon>
	<polygon points="437,96 437,106 431,106 426,101 431,96 " style="fill: rgb(104,223,253); fill-opacity: 0.96623; stroke: black; stroke-opacity: 1; stroke-width: 1" >
<title>Identity:0.96623 Organism:GCF_900499075.1_Roseibaca_ekhonensis_CECT_7235.gbk  Coordinates:89116 90273
Direction:+ Gen Id:fig|666666.100033.peg.1548 Function Chaperone protein DnaJ smash:none</title></polygon>
	<polygon points="420,96 420,106 421,106 426,101 421,96 " style="fill: rgb(59,185,133); fill-opacity: 0.89899; stroke: black; stroke-opacity: 1; stroke-width: 1" >
<title>Identity:0.89899 Organism:GCF_900499075.1_Roseibaca_ekhonensis_CECT_7235.gbk  Coordinates:90866 90270
Direction:- Gen Id:fig|666666.100033.peg.1549 Function hypothetical protein smash:none</title></polygon>
	<polygon points="409,96 409,106 414,106 419,101 414,96 " style="fill: rgb(238,209,67); fill-opacity: 0.95531; stroke: black; stroke-opacity: 1; stroke-width: 1" >
<title>Identity:0.95531 Organism:GCF_900499075.1_Roseibaca_ekhonensis_CECT_7235.gbk  Coordinates:92040 90964
Direction:- Gen Id:fig|666666.100033.peg.1550 Function Purine-binding protein smash:none</title></polygon>
	<polygon points="400,96 400,106 404,106 409,101 404,96 " style="fill: rgb(242,154,51); fill-opacity: 0.98387; stroke: black; stroke-opacity: 1; stroke-width: 1" >
<title>Identity:0.98387 Organism:GCF_900499075.1_Roseibaca_ekhonensis_CECT_7235.gbk  Coordinates:93008 92076
Direction:- Gen Id:fig|666666.100033.peg.1551 Function putative riboflavin import permease protein RfuD smash:none</title></polygon>
	<polygon points="390,96 390,106 395,106 400,101 395,96 " style="fill: rgb(226,180,223); fill-opacity: 0.9723; stroke: black; stroke-opacity: 1; stroke-width: 1" >
<title>Identity:0.9723 Organism:GCF_900499075.1_Roseibaca_ekhonensis_CECT_7235.gbk  Coordinates:94090 93005
Direction:- Gen Id:fig|666666.100033.peg.1552 Function hypothetical protein smash:none</title></polygon>
	<!--
	Generated using the Perl SVG Module V2.84
	by Ronan Oger
	Info: http://www.roitsystems.com/
	-->
</svg>