<svg xmlns="http://www.w3.org/2000/svg" xmlns:xlink="http://www.w3.org/1999/xlink" version="1.1" x="0" y="0" height="230" width="800" viewBox="0 0 800 230" preserveAspectRatio="none"  >
<g label="Query sequence" class="clusterblast-cluster"  >
<text x="5" y="20" class="clusterblast-acc"  >
Query sequence</text>
<line x1="10" y1="35" x2="778.0" y2="35" style="stroke-width:1; stroke:grey; "  />
<polygon points="17,35 22,30 35,30 35,40 22,40 17,35 " style="fill:#d81515; stroke-width:1; stroke:black; " description="&lt;b&gt;ctg44_65&lt;/b&gt;&lt;br&gt;ctg44 65&lt;br&gt;Location: 58140 - 58611" locus_tag="ctg44_65" class="clusterblast-orf" id="dummy-1_q0_0_all"  />
<polygon points="35,35 40,30 62,30 62,40 40,40 35,35 " style="fill:#77d815; stroke-width:1; stroke:black; " description="&lt;b&gt;ctg44_66&lt;/b&gt;&lt;br&gt;ctg44 66&lt;br&gt;Location: 58614 - 59313" locus_tag="ctg44_66" class="clusterblast-orf" id="dummy-1_q1_0_all"  />
<polygon points="66,35 71,30 81,30 81,40 71,40 66,35 " style="fill:#15d8d8; stroke-width:1; stroke:black; " description="&lt;b&gt;ctg44_67&lt;/b&gt;&lt;br&gt;ctg44 67&lt;br&gt;Location: 59416 - 59821" locus_tag="ctg44_67" class="clusterblast-orf" id="dummy-1_q2_0_all"  />
<polygon points="82,35 87,30 108,30 108,40 87,40 82,35 " style="fill:white; stroke-width:1; stroke:black; " description="&lt;b&gt;ctg44_68&lt;/b&gt;&lt;br&gt;ctg44 68&lt;br&gt;Location: 59848 - 60517" locus_tag="ctg44_68" class="clusterblast-orf" id="dummy-1_q3_0_all"  />
<polygon points="109,35 114,30 149,30 149,40 114,40 109,35 " style="fill:white; stroke-width:1; stroke:black; " description="&lt;b&gt;ctg44_69&lt;/b&gt;&lt;br&gt;ctg44 69&lt;br&gt;Location: 60529 - 61567" locus_tag="ctg44_69" class="clusterblast-orf" id="dummy-1_q4_0_all"  />
<polygon points="156,40 167,40 172,35 167,30 156,30 156,40 " style="fill:white; stroke-width:1; stroke:black; " description="&lt;b&gt;ctg44_70&lt;/b&gt;&lt;br&gt;ctg44 70&lt;br&gt;Location: 61771 - 62185" locus_tag="ctg44_70" class="clusterblast-orf" id="dummy-1_q5_0_all"  />
<polygon points="187,35 192,30 226,30 226,40 192,40 187,35 " style="fill:white; stroke-width:1; stroke:black; " description="&lt;b&gt;ctg44_71&lt;/b&gt;&lt;br&gt;ctg44 71&lt;br&gt;Location: 62566 - 63571" locus_tag="ctg44_71" class="clusterblast-orf" id="dummy-1_q6_0_all"  />
<polygon points="243,40 277,40 282,35 277,30 243,30 243,40 " style="fill:white; stroke-width:1; stroke:black; " description="&lt;b&gt;ctg44_72&lt;/b&gt;&lt;br&gt;ctg44 72&lt;br&gt;Location: 64011 - 65034" locus_tag="ctg44_72" class="clusterblast-orf" id="dummy-1_q7_0_all"  />
<polygon points="284,35 289,30 353,30 353,40 289,40 284,35 " style="fill:white; stroke-width:1; stroke:black; " description="&lt;b&gt;ctg44_73&lt;/b&gt;&lt;br&gt;ctg44 73&lt;br&gt;Location: 65081 - 66881" locus_tag="ctg44_73" class="clusterblast-orf" id="dummy-1_q8_0_all"  />
<polygon points="356,35 361,30 388,30 388,40 361,40 356,35 " style="fill:#7715d8; stroke-width:1; stroke:black; " description="&lt;b&gt;ctg44_74&lt;/b&gt;&lt;br&gt;ctg44 74&lt;br&gt;Location: 66946 - 67792" locus_tag="ctg44_74" class="clusterblast-orf" id="dummy-1_q9_0_all"  />
<polygon points="388,35 393,30 396,30 396,40 393,40 388,35 " style="fill:white; stroke-width:1; stroke:black; " description="&lt;b&gt;ctg44_75&lt;/b&gt;&lt;br&gt;ctg44 75&lt;br&gt;Location: 67788 - 67992" locus_tag="ctg44_75" class="clusterblast-orf" id="dummy-1_q10_0_all"  />
<polygon points="401,35 406,30 434,30 434,40 406,40 401,35 " style="fill:#d87715; stroke-width:1; stroke:black; " description="&lt;b&gt;ctg44_76&lt;/b&gt;&lt;br&gt;ctg44 76&lt;br&gt;Location: 68140 - 68992" locus_tag="ctg44_76" class="clusterblast-orf" id="dummy-1_q11_0_all"  />
<polygon points="438,35 443,30 463,30 463,40 443,40 438,35 " style="fill:#15d815; stroke-width:1; stroke:black; " description="&lt;b&gt;ctg44_77&lt;/b&gt;&lt;br&gt;ctg44 77&lt;br&gt;Location: 69082 - 69730" locus_tag="ctg44_77" class="clusterblast-orf" id="dummy-1_q12_0_all"  />
<polygon points="480,40 558,40 563,35 558,30 480,30 480,40 " style="fill:#1577d8; stroke-width:1; stroke:black; " description="&lt;b&gt;ctg44_78&lt;/b&gt;&lt;br&gt;ctg44 78&lt;br&gt;Location: 70187 - 72338" locus_tag="ctg44_78" class="clusterblast-orf" id="dummy-1_q13_0_all"  />
<polygon points="576,35 581,30 617,30 617,40 581,40 576,35 " style="fill:white; stroke-width:1; stroke:black; " description="&lt;b&gt;ctg44_79&lt;/b&gt;&lt;br&gt;ctg44 79&lt;br&gt;Location: 72680 - 73736" locus_tag="ctg44_79" class="clusterblast-orf" id="dummy-1_q14_0_all"  />
<polygon points="621,40 637,40 642,35 637,30 621,30 621,40 " style="fill:#d815d8; stroke-width:1; stroke:black; " description="&lt;b&gt;ctg44_80&lt;/b&gt;&lt;br&gt;ctg44 80&lt;br&gt;Location: 73833 - 74391" locus_tag="ctg44_80" class="clusterblast-orf" id="dummy-1_q15_0_all"  />
<polygon points="642,40 661,40 666,35 661,30 642,30 642,40 " style="fill:#d8d815; stroke-width:1; stroke:black; " description="&lt;b&gt;ctg44_81&lt;/b&gt;&lt;br&gt;ctg44 81&lt;br&gt;Location: 74380 - 75019" locus_tag="ctg44_81" class="clusterblast-orf" id="dummy-1_q16_0_all"  />
<polygon points="666,40 678,40 683,35 678,30 666,30 666,40 " style="fill:#15d877; stroke-width:1; stroke:black; " description="&lt;b&gt;ctg44_82&lt;/b&gt;&lt;br&gt;ctg44 82&lt;br&gt;Location: 75015 - 75462" locus_tag="ctg44_82" class="clusterblast-orf" id="dummy-1_q17_0_all"  />
<polygon points="689,40 719,40 724,35 719,30 689,30 689,40 " style="fill:#1515d8; stroke-width:1; stroke:black; " description="&lt;b&gt;ctg44_83&lt;/b&gt;&lt;br&gt;ctg44 83&lt;br&gt;Location: 75609 - 76530" locus_tag="ctg44_83" class="clusterblast-orf" id="dummy-1_q18_0_all"  />
<polygon points="724,40 749,40 754,35 749,30 724,30 724,40 " style="fill:#d81577; stroke-width:1; stroke:black; " description="&lt;b&gt;ctg44_84&lt;/b&gt;&lt;br&gt;ctg44 84&lt;br&gt;Location: 76529 - 77291" locus_tag="ctg44_84" class="clusterblast-orf" id="dummy-1_q19_0_all"  />
<polygon points="754,35 759,30 763,30 763,40 759,40 754,35 " style="fill:white; stroke-width:1; stroke:black; " description="&lt;b&gt;ctg44_85&lt;/b&gt;&lt;br&gt;ctg44 85&lt;br&gt;Location: 77300 - 77537" locus_tag="ctg44_85" class="clusterblast-orf" id="dummy-1_q20_0_all"  />
</g>
<g label="NZ_JAAJBD010000001" description="NZ_JAAJBD010000001 (106948-127581): Boseongicola sp. TAW-CT132 scaffold1, who... (28% of genes show similarity), hserlactone" class="clusterblast-cluster"  >
<text x="5" y="70" class="clusterblast-acc"  >
<a xlink:href="https://antismash-db.secondarymetabolites.org/area.html?record=NZ_JAAJBD010000001&amp;start=106948&amp;end=127581" target="_blank">NZ_JAAJBD010000001 (106948-127581)</a>: Boseongicola sp. TAW-CT132 scaffold1, who... (28% of genes show similarity), hserlactone</text>
<line x1="10" y1="85" x2="778.0" y2="85" style="stroke-width:1; stroke:grey; "  />
</g>
<g id="a1_000"  >
<polygon points="0,85 5,80 33,80 33,90 5,90 0,85 " style="fill:white; stroke-width:1; stroke:black; " description="&lt;b&gt;G4L41_RS00645&lt;/b&gt;&lt;br&gt;branched-chain amino acid aminotransferase&lt;br&gt;Location: 127457 - 126582" locus_tag="G4L41_RS00645" class="clusterblast-orf" id="dummy-1_h1_8_0"  />
</g>
<g id="a1_001"  >
<polygon points="39,85 44,80 79,80 79,90 44,90 39,85 " style="fill:white; stroke-width:1; stroke:black; " description="&lt;b&gt;G4L41_RS00640&lt;/b&gt;&lt;br&gt;tryptophan--tRNA ligase&lt;br&gt;Location: 126423 - 125398" locus_tag="G4L41_RS00640" class="clusterblast-orf" id="dummy-1_h1_8_1"  />
</g>
<g id="a1_002"  >
<polygon points="81,90 104,90 109,85 104,80 81,80 81,90 " style="fill:white; stroke-width:1; stroke:black; " description="&lt;b&gt;G4L41_RS00635&lt;/b&gt;&lt;br&gt;rhomboid family intramembrane serine protease&lt;br&gt;Location: 125327 - 124620" locus_tag="G4L41_RS00635" class="clusterblast-orf" id="dummy-1_h1_8_2"  />
</g>
<g id="a1_003"  >
<polygon points="109,85 114,80 144,80 144,90 114,90 109,85 " style="fill:white; stroke-width:1; stroke:black; " description="&lt;b&gt;G4L41_RS00630&lt;/b&gt;&lt;br&gt;EamA family transporter&lt;br&gt;Location: 124623 - 123691" locus_tag="G4L41_RS00630" class="clusterblast-orf" id="dummy-1_h1_8_3"  />
</g>
<g id="a1_004"  >
<polygon points="149,90 165,90 170,85 165,80 149,80 149,90 " style="fill:#d815d8; stroke-width:1; stroke:black; " description="&lt;b&gt;G4L41_RS00625&lt;/b&gt;&lt;br&gt;NifU N-terminal domain-containing protein&lt;br&gt;Location: 123582 - 123025&lt;br&gt;&lt;br&gt;&lt;b&gt;BlastP hit with ctg44_80&lt;/b&gt;&lt;br&gt;Percentage identity: 81&lt;br&gt;Percentage coverage: 100&lt;br&gt;BLAST bit score: 310&lt;br&gt;E-value: 1.15e-107" locus_tag="G4L41_RS00625" class="clusterblast-orf" id="dummy-1_h1_8_4"  />
</g>
<g id="a1_005"  >
<polygon points="170,90 188,90 193,85 188,80 170,80 170,90 " style="fill:#d8d815; stroke-width:1; stroke:black; " description="&lt;b&gt;G4L41_RS00620&lt;/b&gt;&lt;br&gt;tRNA (adenosine(37)-N6)-threonylcarbamoyltransferase complex dimerization subunit type 1 TsaB&lt;br&gt;Location: 123035 - 122433&lt;br&gt;&lt;br&gt;&lt;b&gt;BlastP hit with ctg44_81&lt;/b&gt;&lt;br&gt;Percentage identity: 43&lt;br&gt;Percentage coverage: 101&lt;br&gt;BLAST bit score: 136&lt;br&gt;E-value: 2.8e-38" locus_tag="G4L41_RS00620" class="clusterblast-orf" id="dummy-1_h1_8_5"  />
</g>
<g id="a1_006"  >
<polygon points="193,90 204,90 209,85 204,80 193,80 193,90 " style="fill:#15d877; stroke-width:1; stroke:black; " description="&lt;b&gt;G4L41_RS00615&lt;/b&gt;&lt;br&gt;GNAT family N-acetyltransferase&lt;br&gt;Location: 122436 - 122020&lt;br&gt;&lt;br&gt;&lt;b&gt;BlastP hit with ctg44_82&lt;/b&gt;&lt;br&gt;Percentage identity: 41&lt;br&gt;Percentage coverage: 93&lt;br&gt;BLAST bit score: 89&lt;br&gt;E-value: 2.72e-21" locus_tag="G4L41_RS00615" class="clusterblast-orf" id="dummy-1_h1_8_6"  />
</g>
<g id="a1_007"  >
<polygon points="226,90 257,90 262,85 257,80 226,80 226,90 " style="fill:#1515d8; stroke-width:1; stroke:black; " description="&lt;b&gt;G4L41_RS00610&lt;/b&gt;&lt;br&gt;TSUP family transporter&lt;br&gt;Location: 121562 - 120648&lt;br&gt;&lt;br&gt;&lt;b&gt;BlastP hit with ctg44_83&lt;/b&gt;&lt;br&gt;Percentage identity: 71&lt;br&gt;Percentage coverage: 100&lt;br&gt;BLAST bit score: 375&lt;br&gt;E-value: 2.22e-129" locus_tag="G4L41_RS00610" class="clusterblast-orf" id="dummy-1_h1_8_7"  />
</g>
<g id="a1_008"  >
<polygon points="262,90 286,90 291,85 286,80 262,80 262,90 " style="fill:#d81577; stroke-width:1; stroke:black; " description="&lt;b&gt;G4L41_RS00605&lt;/b&gt;&lt;br&gt;TIGR02186 family protein&lt;br&gt;Location: 120646 - 119879&lt;br&gt;&lt;br&gt;&lt;b&gt;BlastP hit with ctg44_84&lt;/b&gt;&lt;br&gt;Percentage identity: 50&lt;br&gt;Percentage coverage: 94&lt;br&gt;BLAST bit score: 234&lt;br&gt;E-value: 2.03e-75" locus_tag="G4L41_RS00605" class="clusterblast-orf" id="dummy-1_h1_8_8"  />
</g>
<g id="a1_009"  >
<polygon points="291,85 296,80 319,80 319,90 296,90 291,85 " style="fill:white; stroke-width:1; stroke:black; " description="&lt;b&gt;G4L41_RS00600&lt;/b&gt;&lt;br&gt;SDR family NAD(P)-dependent oxidoreductase&lt;br&gt;Location: 119876 - 119145" locus_tag="G4L41_RS00600" class="clusterblast-orf" id="dummy-1_h1_8_9"  />
</g>
<g id="a1_0010"  >
<polygon points="319,85 324,80 378,80 378,90 324,90 319,85 " style="fill:white; stroke-width:1; stroke:black; " description="&lt;b&gt;G4L41_RS00595&lt;/b&gt;&lt;br&gt;AAA family ATPase&lt;br&gt;Location: 119155 - 117623" locus_tag="G4L41_RS00595" class="clusterblast-orf" id="dummy-1_h1_8_10"  />
</g>
<g id="a1_0011"  >
<polygon points="380,85 385,80 404,80 404,90 385,90 380,85 " style="fill:#d87715; stroke-width:1; stroke:black; " description="&lt;b&gt;G4L41_RS00590&lt;/b&gt;&lt;br&gt;autoinducer synthase&lt;br&gt;Location: 117581 - 116949&lt;br&gt;&lt;br&gt;&lt;b&gt;BlastP hit with ctg44_76&lt;/b&gt;&lt;br&gt;Percentage identity: 33&lt;br&gt;Percentage coverage: 59&lt;br&gt;BLAST bit score: 84&lt;br&gt;E-value: 3.24e-17" locus_tag="G4L41_RS00590" class="clusterblast-orf" id="dummy-1_h1_8_11"  />
</g>
<g id="a1_0012"  >
<polygon points="408,85 413,80 435,80 435,90 413,90 408,85 " style="fill:white; stroke-width:1; stroke:black; " description="&lt;b&gt;G4L41_RS00585&lt;/b&gt;&lt;br&gt;autoinducer binding domain-containing protein&lt;br&gt;Location: 116850 - 116137" locus_tag="G4L41_RS00585" class="clusterblast-orf" id="dummy-1_h1_8_12"  />
</g>
<g id="a1_0013"  >
<polygon points="433,85 438,80 442,80 442,90 438,90 433,85 " style="fill:white; stroke-width:1; stroke:black; " description="&lt;b&gt;G4L41_RS00580&lt;/b&gt;&lt;br&gt;hypothetical protein&lt;br&gt;Location: 116192 - 115965" locus_tag="G4L41_RS00580" class="clusterblast-orf" id="dummy-1_h1_8_13"  />
</g>
<g id="a1_0014"  >
<polygon points="453,85 458,80 502,80 502,90 458,90 453,85 " style="fill:white; stroke-width:1; stroke:black; " description="&lt;b&gt;G4L41_RS00575&lt;/b&gt;&lt;br&gt;crotonyl-CoA carboxylase/reductase&lt;br&gt;Location: 115682 - 114399" locus_tag="G4L41_RS00575" class="clusterblast-orf" id="dummy-1_h1_8_14"  />
</g>
<g id="a1_0015"  >
<polygon points="506,85 511,80 561,80 561,90 511,90 506,85 " style="fill:white; stroke-width:1; stroke:black; " description="&lt;b&gt;G4L41_RS00570&lt;/b&gt;&lt;br&gt;1-acyl-sn-glycerol-3-phosphate acyltransferase&lt;br&gt;Location: 114281 - 112854" locus_tag="G4L41_RS00570" class="clusterblast-orf" id="dummy-1_h1_8_15"  />
</g>
<g id="a1_0016"  >
<polygon points="574,90 595,90 600,85 595,80 574,80 574,90 " style="fill:white; stroke-width:1; stroke:black; " description="&lt;b&gt;G4L41_RS00565&lt;/b&gt;&lt;br&gt;hypothetical protein&lt;br&gt;Location: 112528 - 111845" locus_tag="G4L41_RS00565" class="clusterblast-orf" id="dummy-1_h1_8_16"  />
</g>
<g id="a1_0017"  >
<polygon points="606,90 677,90 682,85 677,80 606,80 606,90 " style="fill:white; stroke-width:1; stroke:black; " description="&lt;b&gt;G4L41_RS00560&lt;/b&gt;&lt;br&gt;cobalamin B12-binding domain-containing protein&lt;br&gt;Location: 111707 - 109719" locus_tag="G4L41_RS00560" class="clusterblast-orf" id="dummy-1_h1_8_17"  />
</g>
<g id="a1_0018"  >
<polygon points="690,90 698,90 703,85 698,80 690,80 690,90 " style="fill:white; stroke-width:1; stroke:black; " description="&lt;b&gt;G4L41_RS00555&lt;/b&gt;&lt;br&gt;H-NS histone family protein&lt;br&gt;Location: 109500 - 109177" locus_tag="G4L41_RS00555" class="clusterblast-orf" id="dummy-1_h1_8_18"  />
</g>
<g id="a1_0019"  >
<polygon points="705,90 728,90 733,85 728,80 705,80 705,90 " style="fill:white; stroke-width:1; stroke:black; " description="&lt;b&gt;G4L41_RS00550&lt;/b&gt;&lt;br&gt;purine-nucleoside phosphorylase&lt;br&gt;Location: 109113 - 108397" locus_tag="G4L41_RS00550" class="clusterblast-orf" id="dummy-1_h1_8_19"  />
</g>
<g id="a1_0020"  >
<polygon points="733,90 774,90 779,85 774,80 733,80 733,90 " style="fill:white; stroke-width:1; stroke:black; " description="&lt;b&gt;G4L41_RS00545&lt;/b&gt;&lt;br&gt;aminopeptidase&lt;br&gt;Location: 108400 - 107186" locus_tag="G4L41_RS00545" class="clusterblast-orf" id="dummy-1_h1_8_20"  />
</g>
</svg>
