<svg xmlns="http://www.w3.org/2000/svg" xmlns:xlink="http://www.w3.org/1999/xlink" version="1.1" x="0" y="0" height="230" width="800" viewBox="0 0 800 230" preserveAspectRatio="none"  >
<g label="Query sequence" class="clusterblast-cluster"  >
<text x="5" y="20" class="clusterblast-acc"  >
Query sequence</text>
<line x1="10" y1="35" x2="778.0" y2="35" style="stroke-width:1; stroke:grey; "  />
<polygon points="47,40 58,40 63,35 58,30 47,30 47,40 " style="fill:#d81515; stroke-width:1; stroke:black; " description="&lt;b&gt;ctg77_163&lt;/b&gt;&lt;br&gt;ctg77 163&lt;br&gt;Location: 179319 - 179715" locus_tag="ctg77_163" class="clusterblast-orf" id="dummy-1_q0_0_all"  />
<polygon points="63,35 68,30 79,30 79,40 68,40 63,35 " style="fill:#4dd815; stroke-width:1; stroke:black; " description="&lt;b&gt;ctg77_164&lt;/b&gt;&lt;br&gt;ctg77 164&lt;br&gt;Location: 179715 - 180117" locus_tag="ctg77_164" class="clusterblast-orf" id="dummy-1_q1_0_all"  />
<polygon points="78,35 83,30 100,30 100,40 83,40 78,35 " style="fill:#15bcd8; stroke-width:1; stroke:black; " description="&lt;b&gt;ctg77_165&lt;/b&gt;&lt;br&gt;ctg77 165&lt;br&gt;Location: 180113 - 180650" locus_tag="ctg77_165" class="clusterblast-orf" id="dummy-1_q2_0_all"  />
<polygon points="100,35 105,30 106,30 106,40 105,40 100,35 " style="fill:#8515d8; stroke-width:1; stroke:black; " description="&lt;b&gt;ctg77_166&lt;/b&gt;&lt;br&gt;ctg77 166&lt;br&gt;Location: 180642 - 180798" locus_tag="ctg77_166" class="clusterblast-orf" id="dummy-1_q3_0_all"  />
<polygon points="106,35 111,30 135,30 135,40 111,40 106,35 " style="fill:#d84d15; stroke-width:1; stroke:black; " description="&lt;b&gt;ctg77_167&lt;/b&gt;&lt;br&gt;ctg77 167&lt;br&gt;Location: 180797 - 181529" locus_tag="ctg77_167" class="clusterblast-orf" id="dummy-1_q4_0_all"  />
<polygon points="137,35 142,30 163,30 163,40 142,40 137,35 " style="fill:#15d815; stroke-width:1; stroke:black; " description="&lt;b&gt;ctg77_168&lt;/b&gt;&lt;br&gt;ctg77 168&lt;br&gt;Location: 181581 - 182238" locus_tag="ctg77_168" class="clusterblast-orf" id="dummy-1_q5_0_all"  />
<polygon points="163,35 168,30 188,30 188,40 168,40 163,35 " style="fill:#1585d8; stroke-width:1; stroke:black; " description="&lt;b&gt;ctg77_169&lt;/b&gt;&lt;br&gt;ctg77 169&lt;br&gt;Location: 182234 - 182858" locus_tag="ctg77_169" class="clusterblast-orf" id="dummy-1_q6_0_all"  />
<polygon points="190,35 195,30 205,30 205,40 195,40 190,35 " style="fill:#bc15d8; stroke-width:1; stroke:black; " description="&lt;b&gt;ctg77_170&lt;/b&gt;&lt;br&gt;ctg77 170&lt;br&gt;Location: 182917 - 183274" locus_tag="ctg77_170" class="clusterblast-orf" id="dummy-1_q7_0_all"  />
<polygon points="205,35 210,30 243,30 243,40 210,40 205,35 " style="fill:#d88515; stroke-width:1; stroke:black; " description="&lt;b&gt;ctg77_171&lt;/b&gt;&lt;br&gt;ctg77 171&lt;br&gt;Location: 183275 - 184247" locus_tag="ctg77_171" class="clusterblast-orf" id="dummy-1_q8_0_all"  />
<polygon points="244,35 249,30 311,30 311,40 249,40 244,35 " style="fill:#15d84d; stroke-width:1; stroke:black; " description="&lt;b&gt;ctg77_172&lt;/b&gt;&lt;br&gt;ctg77 172&lt;br&gt;Location: 184261 - 185929" locus_tag="ctg77_172" class="clusterblast-orf" id="dummy-1_q9_0_all"  />
<polygon points="317,35 322,30 330,30 330,40 322,40 317,35 " style="fill:#154dd8; stroke-width:1; stroke:black; " description="&lt;b&gt;ctg77_173&lt;/b&gt;&lt;br&gt;ctg77 173&lt;br&gt;Location: 186079 - 186403" locus_tag="ctg77_173" class="clusterblast-orf" id="dummy-1_q10_0_all"  />
<polygon points="337,35 342,30 368,30 368,40 342,40 337,35 " style="fill:#d815bc; stroke-width:1; stroke:black; " description="&lt;b&gt;ctg77_174&lt;/b&gt;&lt;br&gt;ctg77 174&lt;br&gt;Location: 186585 - 187356" locus_tag="ctg77_174" class="clusterblast-orf" id="dummy-1_q11_0_all"  />
<polygon points="367,35 372,30 396,30 396,40 372,40 367,35 " style="fill:#d8bc15; stroke-width:1; stroke:black; " description="&lt;b&gt;ctg77_175&lt;/b&gt;&lt;br&gt;ctg77 175&lt;br&gt;Location: 187348 - 188080" locus_tag="ctg77_175" class="clusterblast-orf" id="dummy-1_q12_0_all"  />
<polygon points="396,35 401,30 461,30 461,40 401,40 396,35 " style="fill:#15d885; stroke-width:1; stroke:black; " description="&lt;b&gt;ctg77_176&lt;/b&gt;&lt;br&gt;ctg77 176&lt;br&gt;Location: 188067 - 189696" locus_tag="ctg77_176" class="clusterblast-orf" id="dummy-1_q13_0_all"  />
<polygon points="468,35 473,30 529,30 529,40 473,40 468,35 " style="fill:#1515d8; stroke-width:1; stroke:black; " description="&lt;b&gt;ctg77_177&lt;/b&gt;&lt;br&gt;ctg77 177&lt;br&gt;Location: 189880 - 191410" locus_tag="ctg77_177" class="clusterblast-orf" id="dummy-1_q14_0_all"  />
<polygon points="540,35 545,30 554,30 554,40 545,40 540,35 " style="fill:#d81585; stroke-width:1; stroke:black; " description="&lt;b&gt;ctg77_178&lt;/b&gt;&lt;br&gt;ctg77 178&lt;br&gt;Location: 191679 - 192036" locus_tag="ctg77_178" class="clusterblast-orf" id="dummy-1_q15_0_all"  />
<polygon points="557,35 562,30 610,30 610,40 562,40 557,35 " style="fill:#bcd815; stroke-width:1; stroke:black; " description="&lt;b&gt;ctg77_179&lt;/b&gt;&lt;br&gt;ctg77 179&lt;br&gt;Location: 192103 - 193426" locus_tag="ctg77_179" class="clusterblast-orf" id="dummy-1_q16_0_all"  />
<polygon points="617,40 643,40 648,35 643,30 617,30 617,40 " style="fill:white; stroke-width:1; stroke:black; " description="&lt;b&gt;ctg77_180&lt;/b&gt;&lt;br&gt;ctg77 180&lt;br&gt;Location: 193614 - 194388" locus_tag="ctg77_180" class="clusterblast-orf" id="dummy-1_q17_0_all"  />
<polygon points="659,40 674,40 679,35 674,30 659,30 659,40 " style="fill:#15d8bc; stroke-width:1; stroke:black; " description="&lt;b&gt;ctg77_181&lt;/b&gt;&lt;br&gt;ctg77 181&lt;br&gt;Location: 194655 - 195171" locus_tag="ctg77_181" class="clusterblast-orf" id="dummy-1_q18_0_all"  />
<polygon points="680,35 685,30 707,30 707,40 685,40 680,35 " style="fill:#4d15d8; stroke-width:1; stroke:black; " description="&lt;b&gt;ctg77_182&lt;/b&gt;&lt;br&gt;ctg77 182&lt;br&gt;Location: 195195 - 195861" locus_tag="ctg77_182" class="clusterblast-orf" id="dummy-1_q19_0_all"  />
<polygon points="707,35 712,30 721,30 721,40 712,40 707,35 " style="fill:#d8154d; stroke-width:1; stroke:black; " description="&lt;b&gt;ctg77_183&lt;/b&gt;&lt;br&gt;ctg77 183&lt;br&gt;Location: 195867 - 196221" locus_tag="ctg77_183" class="clusterblast-orf" id="dummy-1_q20_0_all"  />
<polygon points="721,35 726,30 733,30 733,40 726,40 721,35 " style="fill:#85d815; stroke-width:1; stroke:black; " description="&lt;b&gt;ctg77_184&lt;/b&gt;&lt;br&gt;ctg77 184&lt;br&gt;Location: 196222 - 196513" locus_tag="ctg77_184" class="clusterblast-orf" id="dummy-1_q21_0_all"  />
</g>
<g label="NZ_CP045410" description="NZ_CP045410 (632682-652225): Roseovarius sp. THAF8 chromosome, complete genome (19% of genes show similarity), terpene" class="clusterblast-cluster"  >
<text x="5" y="70" class="clusterblast-acc"  >
<a xlink:href="https://antismash-db.secondarymetabolites.org/area.html?record=NZ_CP045410&amp;start=632682&amp;end=652225" target="_blank">NZ_CP045410 (632682-652225)</a>: Roseovarius sp. THAF8 chromosome, complete genome (19% of genes show similarity), terpene</text>
<line x1="10" y1="85" x2="778.0" y2="85" style="stroke-width:1; stroke:grey; "  />
</g>
<g id="a1_000"  >
<polygon points="0,90 22,90 27,85 22,80 0,80 0,90 " style="fill:white; stroke-width:1; stroke:black; " description="&lt;b&gt;FIU85_RS03055&lt;/b&gt;&lt;br&gt;helix-turn-helix domain-containing protein&lt;br&gt;Location: 632683 - 633366" locus_tag="FIU85_RS03055" class="clusterblast-orf" id="dummy-1_h1_4_0"  />
</g>
<g id="a1_001"  >
<polygon points="30,90 51,90 56,85 51,80 30,80 30,90 " style="fill:white; stroke-width:1; stroke:black; " description="&lt;b&gt;FIU85_RS03060&lt;/b&gt;&lt;br&gt;DUF4386 family protein&lt;br&gt;Location: 633450 - 634091" locus_tag="FIU85_RS03060" class="clusterblast-orf" id="dummy-1_h1_4_1"  />
</g>
<g id="a1_002"  >
<polygon points="61,90 64,90 69,85 64,80 61,80 61,90 " style="fill:white; stroke-width:1; stroke:black; " description="&lt;b&gt;FIU85_RS03065&lt;/b&gt;&lt;br&gt;DUF2892 domain-containing protein&lt;br&gt;Location: 634221 - 634433" locus_tag="FIU85_RS03065" class="clusterblast-orf" id="dummy-1_h1_4_2"  />
</g>
<g id="a1_003"  >
<polygon points="70,90 82,90 87,85 82,80 70,80 70,90 " style="fill:white; stroke-width:1; stroke:black; " description="&lt;b&gt;FIU85_RS03070&lt;/b&gt;&lt;br&gt;YeeE/YedE family protein&lt;br&gt;Location: 634437 - 634868" locus_tag="FIU85_RS03070" class="clusterblast-orf" id="dummy-1_h1_4_3"  />
</g>
<g id="a1_004"  >
<polygon points="87,90 99,90 104,85 99,80 87,80 87,90 " style="fill:white; stroke-width:1; stroke:black; " description="&lt;b&gt;FIU85_RS03075&lt;/b&gt;&lt;br&gt;YeeE/YedE family protein&lt;br&gt;Location: 634872 - 635309" locus_tag="FIU85_RS03075" class="clusterblast-orf" id="dummy-1_h1_4_4"  />
</g>
<g id="a1_005"  >
<polygon points="105,90 135,90 140,85 135,80 105,80 105,90 " style="fill:white; stroke-width:1; stroke:black; " description="&lt;b&gt;FIU85_RS03080&lt;/b&gt;&lt;br&gt;MBL fold metallo-hydrolase&lt;br&gt;Location: 635323 - 636207" locus_tag="FIU85_RS03080" class="clusterblast-orf" id="dummy-1_h1_4_5"  />
</g>
<g id="a1_006"  >
<polygon points="142,90 173,90 178,85 173,80 142,80 142,90 " style="fill:white; stroke-width:1; stroke:black; " description="&lt;b&gt;FIU85_RS03085&lt;/b&gt;&lt;br&gt;MBL fold metallo-hydrolase&lt;br&gt;Location: 636244 - 637149" locus_tag="FIU85_RS03085" class="clusterblast-orf" id="dummy-1_h1_4_6"  />
</g>
<g id="a1_007"  >
<polygon points="184,90 221,90 226,85 221,80 184,80 184,90 " style="fill:white; stroke-width:1; stroke:black; " description="&lt;b&gt;FIU85_RS03090&lt;/b&gt;&lt;br&gt;phosphatase PAP2 family protein&lt;br&gt;Location: 637300 - 638352" locus_tag="FIU85_RS03090" class="clusterblast-orf" id="dummy-1_h1_4_7"  />
</g>
<g id="a1_008"  >
<polygon points="229,85 234,80 256,80 256,90 234,90 229,85 " style="fill:white; stroke-width:1; stroke:black; " description="&lt;b&gt;FIU85_RS03095&lt;/b&gt;&lt;br&gt;alpha/beta fold hydrolase&lt;br&gt;Location: 638443 - 639108" locus_tag="FIU85_RS03095" class="clusterblast-orf" id="dummy-1_h1_4_8"  />
</g>
<g id="a1_009"  >
<polygon points="256,85 261,80 282,80 282,90 261,90 256,85 " style="fill:white; stroke-width:1; stroke:black; " description="&lt;b&gt;FIU85_RS03100&lt;/b&gt;&lt;br&gt;DNA-3-methyladenine glycosylase 2 family protein&lt;br&gt;Location: 639105 - 639749" locus_tag="FIU85_RS03100" class="clusterblast-orf" id="dummy-1_h1_4_9"  />
</g>
<g id="a1_0010"  >
<polygon points="281,85 286,80 310,80 310,90 286,90 281,85 " style="fill:white; stroke-width:1; stroke:black; " description="&lt;b&gt;FIU85_RS03105&lt;/b&gt;&lt;br&gt;cobalt-precorrin-6A reductase&lt;br&gt;Location: 639731 - 640459" locus_tag="FIU85_RS03105" class="clusterblast-orf" id="dummy-1_h1_4_10"  />
</g>
<g id="a1_0011"  >
<polygon points="319,90 363,90 368,85 363,80 319,80 319,90 " style="fill:white; stroke-width:1; stroke:black; " description="&lt;b&gt;FIU85_RS03110&lt;/b&gt;&lt;br&gt;MFS transporter&lt;br&gt;Location: 640692 - 641912" locus_tag="FIU85_RS03110" class="clusterblast-orf" id="dummy-1_h1_4_11"  />
</g>
<g id="a1_0012"  >
<polygon points="371,85 376,80 402,80 402,90 376,90 371,85 " style="fill:#d815bc; stroke-width:1; stroke:black; " description="&lt;b&gt;FIU85_RS03115&lt;/b&gt;&lt;br&gt;squalene/phytoene synthase family protein&lt;br&gt;Location: 641997 - 642767&lt;br&gt;&lt;br&gt;&lt;b&gt;BlastP hit with ctg77_174&lt;/b&gt;&lt;br&gt;Percentage identity: 53&lt;br&gt;Percentage coverage: 99&lt;br&gt;BLAST bit score: 222&lt;br&gt;E-value: 1.61e-70" locus_tag="FIU85_RS03115" class="clusterblast-orf" id="dummy-1_h1_4_12"  />
</g>
<g id="a1_0013"  >
<polygon points="402,85 407,80 430,80 430,90 407,90 402,85 " style="fill:#d8bc15; stroke-width:1; stroke:black; " description="&lt;b&gt;FIU85_RS03120&lt;/b&gt;&lt;br&gt;methyltransferase domain-containing protein&lt;br&gt;Location: 642773 - 643459&lt;br&gt;&lt;br&gt;&lt;b&gt;BlastP hit with ctg77_175&lt;/b&gt;&lt;br&gt;Percentage identity: 52&lt;br&gt;Percentage coverage: 92&lt;br&gt;BLAST bit score: 214&lt;br&gt;E-value: 6.3e-68" locus_tag="FIU85_RS03120" class="clusterblast-orf" id="dummy-1_h1_4_13"  />
</g>
<g id="a1_0014"  >
<polygon points="431,85 436,80 496,80 496,90 436,90 431,85 " style="fill:#15d885; stroke-width:1; stroke:black; " description="&lt;b&gt;FIU85_RS03125&lt;/b&gt;&lt;br&gt;citramalate synthase&lt;br&gt;Location: 643496 - 645115&lt;br&gt;&lt;br&gt;&lt;b&gt;BlastP hit with ctg77_176&lt;/b&gt;&lt;br&gt;Percentage identity: 76&lt;br&gt;Percentage coverage: 99&lt;br&gt;BLAST bit score: 811&lt;br&gt;E-value: 9.56e-294" locus_tag="FIU85_RS03125" class="clusterblast-orf" id="dummy-1_h1_4_14"  />
</g>
<g id="a1_0015"  >
<polygon points="503,85 508,80 563,80 563,90 508,90 503,85 " style="fill:#1515d8; stroke-width:1; stroke:black; " description="&lt;b&gt;FIU85_RS03130&lt;/b&gt;&lt;br&gt;cysteine--tRNA ligase&lt;br&gt;Location: 645303 - 646805&lt;br&gt;&lt;br&gt;&lt;b&gt;BlastP hit with ctg77_177&lt;/b&gt;&lt;br&gt;Percentage identity: 71&lt;br&gt;Percentage coverage: 100&lt;br&gt;BLAST bit score: 742&lt;br&gt;E-value: 1.08e-267" locus_tag="FIU85_RS03130" class="clusterblast-orf" id="dummy-1_h1_4_15"  />
</g>
<g id="a1_0016"  >
<polygon points="569,85 574,80 607,80 607,90 574,90 569,85 " style="fill:white; stroke-width:1; stroke:black; " description="&lt;b&gt;FIU85_RS03135&lt;/b&gt;&lt;br&gt;EamA family transporter&lt;br&gt;Location: 646963 - 647907" locus_tag="FIU85_RS03135" class="clusterblast-orf" id="dummy-1_h1_4_16"  />
</g>
<g id="a1_0017"  >
<polygon points="607,85 612,80 622,80 622,90 612,90 607,85 " style="fill:white; stroke-width:1; stroke:black; " description="&lt;b&gt;FIU85_RS03140&lt;/b&gt;&lt;br&gt;VOC family protein&lt;br&gt;Location: 647900 - 648274" locus_tag="FIU85_RS03140" class="clusterblast-orf" id="dummy-1_h1_4_17"  />
</g>
<g id="a1_0018"  >
<polygon points="625,90 639,90 644,85 639,80 625,80 625,90 " style="fill:white; stroke-width:1; stroke:black; " description="&lt;b&gt;FIU85_RS03145&lt;/b&gt;&lt;br&gt;redox-sensitive transcriptional activator SoxR&lt;br&gt;Location: 648358 - 648828" locus_tag="FIU85_RS03145" class="clusterblast-orf" id="dummy-1_h1_4_18"  />
</g>
<g id="a1_0019"  >
<polygon points="647,90 689,90 694,85 689,80 647,80 647,90 " style="fill:white; stroke-width:1; stroke:black; " description="&lt;b&gt;FIU85_RS03150&lt;/b&gt;&lt;br&gt;aminotransferase class I/II-fold pyridoxal phosphate-dependent enzyme&lt;br&gt;Location: 648902 - 650086" locus_tag="FIU85_RS03150" class="clusterblast-orf" id="dummy-1_h1_4_19"  />
</g>
<g id="a1_0020"  >
<polygon points="718,90 775,90 780,85 775,80 718,80 718,90 " style="fill:white; stroke-width:1; stroke:black; " description="&lt;b&gt;FIU85_RS03155&lt;/b&gt;&lt;br&gt;trimethylamine methyltransferase family protein&lt;br&gt;Location: 650687 - 652225" locus_tag="FIU85_RS03155" class="clusterblast-orf" id="dummy-1_h1_4_20"  />
</g>
</svg>
