<svg xmlns="http://www.w3.org/2000/svg" xmlns:xlink="http://www.w3.org/1999/xlink" version="1.1" x="0" y="0" height="50" width="800" viewBox="0 0 800 50" preserveAspectRatio="none"  >
<g label="Query sequence" class="clusterblast-cluster"  >
<text x="5" y="20" class="clusterblast-acc"  >
Query sequence</text>
<line x1="10" y1="35" x2="778.0" y2="35" style="stroke-width:1; stroke:grey; "  />
<polygon points="0,40 0,40 5,35 0,30 0,30 0,40 " style="fill:white; stroke-width:1; stroke:black; " description="&lt;b&gt;ctg99_28&lt;/b&gt;&lt;br&gt;ctg99 28&lt;br&gt;Location: 26390 - 26747" locus_tag="ctg99_28" class="clusterblast-orf" id="knownclusterblast-1_q0_0_all"  />
<polygon points="6,40 23,40 28,35 23,30 6,30 6,40 " style="fill:white; stroke-width:1; stroke:black; " description="&lt;b&gt;ctg99_29&lt;/b&gt;&lt;br&gt;ctg99 29&lt;br&gt;Location: 26788 - 28144" locus_tag="ctg99_29" class="clusterblast-orf" id="knownclusterblast-1_q1_0_all"  />
<polygon points="32,35 37,30 71,30 71,40 37,40 32,35 " style="fill:white; stroke-width:1; stroke:black; " description="&lt;b&gt;ctg99_30&lt;/b&gt;&lt;br&gt;ctg99 30&lt;br&gt;Location: 28451 - 30857" locus_tag="ctg99_30" class="clusterblast-orf" id="knownclusterblast-1_q2_0_all"  />
<polygon points="72,35 75,30 75,40 72,35 " style="fill:white; stroke-width:1; stroke:black; " description="&lt;b&gt;ctg99_31&lt;/b&gt;&lt;br&gt;ctg99 31&lt;br&gt;Location: 30928 - 31120" locus_tag="ctg99_31" class="clusterblast-orf" id="knownclusterblast-1_q3_0_all"  />
<polygon points="76,35 81,30 82,30 82,40 81,40 76,35 " style="fill:white; stroke-width:1; stroke:black; " description="&lt;b&gt;ctg99_32&lt;/b&gt;&lt;br&gt;ctg99 32&lt;br&gt;Location: 31213 - 31555" locus_tag="ctg99_32" class="clusterblast-orf" id="knownclusterblast-1_q4_0_all"  />
<polygon points="84,35 89,30 102,30 102,40 89,40 84,35 " style="fill:white; stroke-width:1; stroke:black; " description="&lt;b&gt;ctg99_33&lt;/b&gt;&lt;br&gt;ctg99 33&lt;br&gt;Location: 31683 - 32862" locus_tag="ctg99_33" class="clusterblast-orf" id="knownclusterblast-1_q5_0_all"  />
<polygon points="104,35 109,30 119,30 119,40 109,40 104,35 " style="fill:white; stroke-width:1; stroke:black; " description="&lt;b&gt;ctg99_34&lt;/b&gt;&lt;br&gt;ctg99 34&lt;br&gt;Location: 32949 - 33930" locus_tag="ctg99_34" class="clusterblast-orf" id="knownclusterblast-1_q6_0_all"  />
<polygon points="121,35 126,30 139,30 139,40 126,40 121,35 " style="fill:white; stroke-width:1; stroke:black; " description="&lt;b&gt;ctg99_35&lt;/b&gt;&lt;br&gt;ctg99 35&lt;br&gt;Location: 34019 - 35192" locus_tag="ctg99_35" class="clusterblast-orf" id="knownclusterblast-1_q7_0_all"  />
<polygon points="141,40 144,40 149,35 144,30 141,30 141,40 " style="fill:white; stroke-width:1; stroke:black; " description="&lt;b&gt;ctg99_36&lt;/b&gt;&lt;br&gt;ctg99 36&lt;br&gt;Location: 35293 - 35815" locus_tag="ctg99_36" class="clusterblast-orf" id="knownclusterblast-1_q8_0_all"  />
<polygon points="149,40 152,40 157,35 152,30 149,30 149,40 " style="fill:white; stroke-width:1; stroke:black; " description="&lt;b&gt;ctg99_37&lt;/b&gt;&lt;br&gt;ctg99 37&lt;br&gt;Location: 35811 - 36306" locus_tag="ctg99_37" class="clusterblast-orf" id="knownclusterblast-1_q9_0_all"  />
<polygon points="157,40 166,40 171,35 166,30 157,30 157,40 " style="fill:white; stroke-width:1; stroke:black; " description="&lt;b&gt;ctg99_38&lt;/b&gt;&lt;br&gt;ctg99 38&lt;br&gt;Location: 36305 - 37208" locus_tag="ctg99_38" class="clusterblast-orf" id="knownclusterblast-1_q10_0_all"  />
<polygon points="175,35 180,30 187,30 187,40 180,40 175,35 " style="fill:white; stroke-width:1; stroke:black; " description="&lt;b&gt;ctg99_39&lt;/b&gt;&lt;br&gt;ctg99 39&lt;br&gt;Location: 37446 - 38178" locus_tag="ctg99_39" class="clusterblast-orf" id="knownclusterblast-1_q11_0_all"  />
<polygon points="190,40 192,40 197,35 192,30 190,30 190,40 " style="fill:white; stroke-width:1; stroke:black; " description="&lt;b&gt;ctg99_40&lt;/b&gt;&lt;br&gt;ctg99 40&lt;br&gt;Location: 38372 - 38801" locus_tag="ctg99_40" class="clusterblast-orf" id="knownclusterblast-1_q12_0_all"  />
<polygon points="198,35 203,30 214,30 214,40 203,40 198,35 " style="fill:white; stroke-width:1; stroke:black; " description="&lt;b&gt;ctg99_41&lt;/b&gt;&lt;br&gt;ctg99 41&lt;br&gt;Location: 38881 - 39910" locus_tag="ctg99_41" class="clusterblast-orf" id="knownclusterblast-1_q13_0_all"  />
<polygon points="219,40 223,35 219,30 219,40 " style="fill:white; stroke-width:1; stroke:black; " description="&lt;b&gt;ctg99_42&lt;/b&gt;&lt;br&gt;ctg99 42&lt;br&gt;Location: 40177 - 40447" locus_tag="ctg99_42" class="clusterblast-orf" id="knownclusterblast-1_q14_0_all"  />
<polygon points="227,40 236,40 241,35 236,30 227,30 227,40 " style="fill:white; stroke-width:1; stroke:black; " description="&lt;b&gt;ctg99_43&lt;/b&gt;&lt;br&gt;ctg99 43&lt;br&gt;Location: 40676 - 41558" locus_tag="ctg99_43" class="clusterblast-orf" id="knownclusterblast-1_q15_0_all"  />
<polygon points="241,40 256,40 261,35 256,30 241,30 241,40 " style="fill:white; stroke-width:1; stroke:black; " description="&lt;b&gt;ctg99_44&lt;/b&gt;&lt;br&gt;ctg99 44&lt;br&gt;Location: 41560 - 42847" locus_tag="ctg99_44" class="clusterblast-orf" id="knownclusterblast-1_q16_0_all"  />
<polygon points="261,40 280,40 285,35 280,30 261,30 261,40 " style="fill:white; stroke-width:1; stroke:black; " description="&lt;b&gt;ctg99_45&lt;/b&gt;&lt;br&gt;ctg99 45&lt;br&gt;Location: 42865 - 44350" locus_tag="ctg99_45" class="clusterblast-orf" id="knownclusterblast-1_q17_0_all"  />
<polygon points="286,40 381,40 386,35 381,30 286,30 286,40 " style="fill:white; stroke-width:1; stroke:black; " description="&lt;b&gt;ctg99_46&lt;/b&gt;&lt;br&gt;ctg99 46&lt;br&gt;Location: 44389 - 50737" locus_tag="ctg99_46" class="clusterblast-orf" id="knownclusterblast-1_q18_0_all"  />
<polygon points="386,40 397,40 402,35 397,30 386,30 386,40 " style="fill:white; stroke-width:1; stroke:black; " description="&lt;b&gt;ctg99_47&lt;/b&gt;&lt;br&gt;ctg99 47&lt;br&gt;Location: 50742 - 51714" locus_tag="ctg99_47" class="clusterblast-orf" id="knownclusterblast-1_q19_0_all"  />
<polygon points="402,40 469,40 474,35 469,30 402,30 402,40 " style="fill:white; stroke-width:1; stroke:black; " description="&lt;b&gt;ctg99_48&lt;/b&gt;&lt;br&gt;ctg99 48&lt;br&gt;Location: 51737 - 56264" locus_tag="ctg99_48" class="clusterblast-orf" id="knownclusterblast-1_q20_0_all"  />
<polygon points="474,40 480,40 485,35 480,30 474,30 474,40 " style="fill:white; stroke-width:1; stroke:black; " description="&lt;b&gt;ctg99_49&lt;/b&gt;&lt;br&gt;ctg99 49&lt;br&gt;Location: 56260 - 56941" locus_tag="ctg99_49" class="clusterblast-orf" id="knownclusterblast-1_q21_0_all"  />
<polygon points="489,40 489,40 494,35 489,30 489,30 489,40 " style="fill:white; stroke-width:1; stroke:black; " description="&lt;b&gt;ctg99_50&lt;/b&gt;&lt;br&gt;ctg99 50&lt;br&gt;Location: 57212 - 57530" locus_tag="ctg99_50" class="clusterblast-orf" id="knownclusterblast-1_q22_0_all"  />
<polygon points="511,40 520,40 525,35 520,30 511,30 511,40 " style="fill:white; stroke-width:1; stroke:black; " description="&lt;b&gt;ctg99_51&lt;/b&gt;&lt;br&gt;ctg99 51&lt;br&gt;Location: 58565 - 59477" locus_tag="ctg99_51" class="clusterblast-orf" id="knownclusterblast-1_q23_0_all"  />
<polygon points="526,40 533,40 538,35 533,30 526,30 526,40 " style="fill:white; stroke-width:1; stroke:black; " description="&lt;b&gt;ctg99_52&lt;/b&gt;&lt;br&gt;ctg99 52&lt;br&gt;Location: 59525 - 60287" locus_tag="ctg99_52" class="clusterblast-orf" id="knownclusterblast-1_q24_0_all"  />
<polygon points="539,40 550,40 555,35 550,30 539,30 539,40 " style="fill:white; stroke-width:1; stroke:black; " description="&lt;b&gt;ctg99_53&lt;/b&gt;&lt;br&gt;ctg99 53&lt;br&gt;Location: 60351 - 61341" locus_tag="ctg99_53" class="clusterblast-orf" id="knownclusterblast-1_q25_0_all"  />
<polygon points="557,40 569,40 574,35 569,30 557,30 557,40 " style="fill:white; stroke-width:1; stroke:black; " description="&lt;b&gt;ctg99_54&lt;/b&gt;&lt;br&gt;ctg99 54&lt;br&gt;Location: 61459 - 62548" locus_tag="ctg99_54" class="clusterblast-orf" id="knownclusterblast-1_q26_0_all"  />
<polygon points="574,40 583,40 588,35 583,30 574,30 574,40 " style="fill:white; stroke-width:1; stroke:black; " description="&lt;b&gt;ctg99_55&lt;/b&gt;&lt;br&gt;ctg99 55&lt;br&gt;Location: 62544 - 63459" locus_tag="ctg99_55" class="clusterblast-orf" id="knownclusterblast-1_q27_0_all"  />
<polygon points="590,40 604,40 609,35 604,30 590,30 590,40 " style="fill:white; stroke-width:1; stroke:black; " description="&lt;b&gt;ctg99_56&lt;/b&gt;&lt;br&gt;ctg99 56&lt;br&gt;Location: 63573 - 64752" locus_tag="ctg99_56" class="clusterblast-orf" id="knownclusterblast-1_q28_0_all"  />
<polygon points="611,40 671,40 676,35 671,30 611,30 611,40 " style="fill:white; stroke-width:1; stroke:black; " description="&lt;b&gt;ctg99_57&lt;/b&gt;&lt;br&gt;ctg99 57&lt;br&gt;Location: 64902 - 68958" locus_tag="ctg99_57" class="clusterblast-orf" id="knownclusterblast-1_q29_0_all"  />
<polygon points="678,40 693,40 698,35 693,30 678,30 678,40 " style="fill:white; stroke-width:1; stroke:black; " description="&lt;b&gt;ctg99_58&lt;/b&gt;&lt;br&gt;ctg99 58&lt;br&gt;Location: 69079 - 70366" locus_tag="ctg99_58" class="clusterblast-orf" id="knownclusterblast-1_q30_0_all"  />
<polygon points="700,40 710,40 715,35 710,30 700,30 700,40 " style="fill:white; stroke-width:1; stroke:black; " description="&lt;b&gt;ctg99_59&lt;/b&gt;&lt;br&gt;ctg99 59&lt;br&gt;Location: 70482 - 71445" locus_tag="ctg99_59" class="clusterblast-orf" id="knownclusterblast-1_q31_0_all"  />
<polygon points="716,40 720,40 725,35 720,30 716,30 716,40 " style="fill:white; stroke-width:1; stroke:black; " description="&lt;b&gt;ctg99_60&lt;/b&gt;&lt;br&gt;ctg99 60&lt;br&gt;Location: 71494 - 72061" locus_tag="ctg99_60" class="clusterblast-orf" id="knownclusterblast-1_q32_0_all"  />
<polygon points="725,40 748,40 753,35 748,30 725,30 725,40 " style="fill:white; stroke-width:1; stroke:black; " description="&lt;b&gt;ctg99_61&lt;/b&gt;&lt;br&gt;ctg99 61&lt;br&gt;Location: 72053 - 73814" locus_tag="ctg99_61" class="clusterblast-orf" id="knownclusterblast-1_q33_0_all"  />
<polygon points="759,40 768,40 773,35 768,30 759,30 759,40 " style="fill:white; stroke-width:1; stroke:black; " description="&lt;b&gt;ctg99_62&lt;/b&gt;&lt;br&gt;ctg99 62&lt;br&gt;Location: 74180 - 75083" locus_tag="ctg99_62" class="clusterblast-orf" id="knownclusterblast-1_q34_0_all"  />
<polygon points="776,35 780,30 780,40 776,35 " style="fill:white; stroke-width:1; stroke:black; " description="&lt;b&gt;ctg99_63&lt;/b&gt;&lt;br&gt;ctg99 63&lt;br&gt;Location: 75257 - 75497" locus_tag="ctg99_63" class="clusterblast-orf" id="knownclusterblast-1_q35_0_all"  />
</g>
</svg>
