<svg xmlns="http://www.w3.org/2000/svg" xmlns:xlink="http://www.w3.org/1999/xlink" version="1.1" x="0" y="0" height="50" width="800" viewBox="0 0 800 50" preserveAspectRatio="none"  >
<g label="Query sequence" class="clusterblast-cluster"  >
<text x="5" y="20" class="clusterblast-acc"  >
Query sequence</text>
<line x1="10" y1="35" x2="778.0" y2="35" style="stroke-width:1; stroke:grey; "  />
<polygon points="0,35 5,30 19,30 19,40 5,40 0,35 " style="fill:white; stroke-width:1; stroke:black; " description="&lt;b&gt;ctg44_65&lt;/b&gt;&lt;br&gt;ctg44 65&lt;br&gt;Location: 58140 - 58611" locus_tag="ctg44_65" class="clusterblast-orf" id="knownclusterblast-1_q0_0_all"  />
<polygon points="19,35 24,30 47,30 47,40 24,40 19,35 " style="fill:white; stroke-width:1; stroke:black; " description="&lt;b&gt;ctg44_66&lt;/b&gt;&lt;br&gt;ctg44 66&lt;br&gt;Location: 58614 - 59313" locus_tag="ctg44_66" class="clusterblast-orf" id="knownclusterblast-1_q1_0_all"  />
<polygon points="51,35 56,30 67,30 67,40 56,40 51,35 " style="fill:white; stroke-width:1; stroke:black; " description="&lt;b&gt;ctg44_67&lt;/b&gt;&lt;br&gt;ctg44 67&lt;br&gt;Location: 59416 - 59821" locus_tag="ctg44_67" class="clusterblast-orf" id="knownclusterblast-1_q2_0_all"  />
<polygon points="69,35 74,30 95,30 95,40 74,40 69,35 " style="fill:white; stroke-width:1; stroke:black; " description="&lt;b&gt;ctg44_68&lt;/b&gt;&lt;br&gt;ctg44 68&lt;br&gt;Location: 59848 - 60517" locus_tag="ctg44_68" class="clusterblast-orf" id="knownclusterblast-1_q3_0_all"  />
<polygon points="96,35 101,30 138,30 138,40 101,40 96,35 " style="fill:white; stroke-width:1; stroke:black; " description="&lt;b&gt;ctg44_69&lt;/b&gt;&lt;br&gt;ctg44 69&lt;br&gt;Location: 60529 - 61567" locus_tag="ctg44_69" class="clusterblast-orf" id="knownclusterblast-1_q4_0_all"  />
<polygon points="146,40 158,40 163,35 158,30 146,30 146,40 " style="fill:white; stroke-width:1; stroke:black; " description="&lt;b&gt;ctg44_70&lt;/b&gt;&lt;br&gt;ctg44 70&lt;br&gt;Location: 61771 - 62185" locus_tag="ctg44_70" class="clusterblast-orf" id="knownclusterblast-1_q5_0_all"  />
<polygon points="178,35 183,30 218,30 218,40 183,40 178,35 " style="fill:white; stroke-width:1; stroke:black; " description="&lt;b&gt;ctg44_71&lt;/b&gt;&lt;br&gt;ctg44 71&lt;br&gt;Location: 62566 - 63571" locus_tag="ctg44_71" class="clusterblast-orf" id="knownclusterblast-1_q6_0_all"  />
<polygon points="236,40 272,40 277,35 272,30 236,30 236,40 " style="fill:white; stroke-width:1; stroke:black; " description="&lt;b&gt;ctg44_72&lt;/b&gt;&lt;br&gt;ctg44 72&lt;br&gt;Location: 64011 - 65034" locus_tag="ctg44_72" class="clusterblast-orf" id="knownclusterblast-1_q7_0_all"  />
<polygon points="279,35 284,30 351,30 351,40 284,40 279,35 " style="fill:white; stroke-width:1; stroke:black; " description="&lt;b&gt;ctg44_73&lt;/b&gt;&lt;br&gt;ctg44 73&lt;br&gt;Location: 65081 - 66881" locus_tag="ctg44_73" class="clusterblast-orf" id="knownclusterblast-1_q8_0_all"  />
<polygon points="354,35 359,30 388,30 388,40 359,40 354,35 " style="fill:white; stroke-width:1; stroke:black; " description="&lt;b&gt;ctg44_74&lt;/b&gt;&lt;br&gt;ctg44 74&lt;br&gt;Location: 66946 - 67792" locus_tag="ctg44_74" class="clusterblast-orf" id="knownclusterblast-1_q9_0_all"  />
<polygon points="388,35 393,30 396,30 396,40 393,40 388,35 " style="fill:white; stroke-width:1; stroke:black; " description="&lt;b&gt;ctg44_75&lt;/b&gt;&lt;br&gt;ctg44 75&lt;br&gt;Location: 67788 - 67992" locus_tag="ctg44_75" class="clusterblast-orf" id="knownclusterblast-1_q10_0_all"  />
<polygon points="402,35 407,30 436,30 436,40 407,40 402,35 " style="fill:white; stroke-width:1; stroke:black; " description="&lt;b&gt;ctg44_76&lt;/b&gt;&lt;br&gt;ctg44 76&lt;br&gt;Location: 68140 - 68992" locus_tag="ctg44_76" class="clusterblast-orf" id="knownclusterblast-1_q11_0_all"  />
<polygon points="440,35 445,30 466,30 466,40 445,40 440,35 " style="fill:white; stroke-width:1; stroke:black; " description="&lt;b&gt;ctg44_77&lt;/b&gt;&lt;br&gt;ctg44 77&lt;br&gt;Location: 69082 - 69730" locus_tag="ctg44_77" class="clusterblast-orf" id="knownclusterblast-1_q12_0_all"  />
<polygon points="484,40 566,40 571,35 566,30 484,30 484,40 " style="fill:white; stroke-width:1; stroke:black; " description="&lt;b&gt;ctg44_78&lt;/b&gt;&lt;br&gt;ctg44 78&lt;br&gt;Location: 70187 - 72338" locus_tag="ctg44_78" class="clusterblast-orf" id="knownclusterblast-1_q13_0_all"  />
<polygon points="585,35 590,30 627,30 627,40 590,40 585,35 " style="fill:white; stroke-width:1; stroke:black; " description="&lt;b&gt;ctg44_79&lt;/b&gt;&lt;br&gt;ctg44 79&lt;br&gt;Location: 72680 - 73736" locus_tag="ctg44_79" class="clusterblast-orf" id="knownclusterblast-1_q14_0_all"  />
<polygon points="631,40 648,40 653,35 648,30 631,30 631,40 " style="fill:white; stroke-width:1; stroke:black; " description="&lt;b&gt;ctg44_80&lt;/b&gt;&lt;br&gt;ctg44 80&lt;br&gt;Location: 73833 - 74391" locus_tag="ctg44_80" class="clusterblast-orf" id="knownclusterblast-1_q15_0_all"  />
<polygon points="653,40 674,40 679,35 674,30 653,30 653,40 " style="fill:white; stroke-width:1; stroke:black; " description="&lt;b&gt;ctg44_81&lt;/b&gt;&lt;br&gt;ctg44 81&lt;br&gt;Location: 74380 - 75019" locus_tag="ctg44_81" class="clusterblast-orf" id="knownclusterblast-1_q16_0_all"  />
<polygon points="678,40 691,40 696,35 691,30 678,30 678,40 " style="fill:white; stroke-width:1; stroke:black; " description="&lt;b&gt;ctg44_82&lt;/b&gt;&lt;br&gt;ctg44 82&lt;br&gt;Location: 75015 - 75462" locus_tag="ctg44_82" class="clusterblast-orf" id="knownclusterblast-1_q17_0_all"  />
<polygon points="702,40 734,40 739,35 734,30 702,30 702,40 " style="fill:white; stroke-width:1; stroke:black; " description="&lt;b&gt;ctg44_83&lt;/b&gt;&lt;br&gt;ctg44 83&lt;br&gt;Location: 75609 - 76530" locus_tag="ctg44_83" class="clusterblast-orf" id="knownclusterblast-1_q18_0_all"  />
<polygon points="739,40 765,40 770,35 765,30 739,30 739,40 " style="fill:white; stroke-width:1; stroke:black; " description="&lt;b&gt;ctg44_84&lt;/b&gt;&lt;br&gt;ctg44 84&lt;br&gt;Location: 76529 - 77291" locus_tag="ctg44_84" class="clusterblast-orf" id="knownclusterblast-1_q19_0_all"  />
<polygon points="770,35 775,30 780,30 780,40 775,40 770,35 " style="fill:white; stroke-width:1; stroke:black; " description="&lt;b&gt;ctg44_85&lt;/b&gt;&lt;br&gt;ctg44 85&lt;br&gt;Location: 77300 - 77537" locus_tag="ctg44_85" class="clusterblast-orf" id="knownclusterblast-1_q20_0_all"  />
</g>
</svg>
