<svg xmlns="http://www.w3.org/2000/svg" xmlns:xlink="http://www.w3.org/1999/xlink" version="1.1" x="0" y="0" height="230" width="800" viewBox="0 0 800 230" preserveAspectRatio="none"  >
<g label="Query sequence" class="clusterblast-cluster"  >
<text x="5" y="20" class="clusterblast-acc"  >
Query sequence</text>
<line x1="10" y1="35" x2="778.0" y2="35" style="stroke-width:1; stroke:grey; "  />
<polygon points="66,40 74,40 79,35 74,30 66,30 66,40 " style="fill:#d81515; stroke-width:1; stroke:black; " description="&lt;b&gt;MKLBNFHE_00261&lt;/b&gt;&lt;br&gt;dTDP-4-dehydrorhamnose reductase&lt;br&gt;Location: 288357 - 289212" locus_tag="MKLBNFHE_00261" class="clusterblast-orf" id="dummy-1_q0_0_all"  />
<polygon points="79,40 87,40 92,35 87,30 79,30 79,40 " style="fill:#60d815; stroke-width:1; stroke:black; " description="&lt;b&gt;MKLBNFHE_00262&lt;/b&gt;&lt;br&gt;Glucose-1-phosphate thymidylyltransferase&lt;br&gt;Location: 289208 - 290081" locus_tag="MKLBNFHE_00262" class="clusterblast-orf" id="dummy-1_q1_0_all"  />
<polygon points="95,40 98,35 95,30 95,40 " style="fill:#15abd8; stroke-width:1; stroke:black; " description="&lt;b&gt;MKLBNFHE_00263&lt;/b&gt;&lt;br&gt;hypothetical protein&lt;br&gt;Location: 290303 - 290492" locus_tag="MKLBNFHE_00263" class="clusterblast-orf" id="dummy-1_q2_0_all"  />
<polygon points="105,40 110,40 115,35 110,30 105,30 105,40 " style="fill:#8d15d8; stroke-width:1; stroke:black; " description="&lt;b&gt;MKLBNFHE_00264&lt;/b&gt;&lt;br&gt;Undecaprenyl phosphate N,N'-diacetylbacillosamine 1-phosphate transferase&lt;br&gt;Location: 290939 - 291650" locus_tag="MKLBNFHE_00264" class="clusterblast-orf" id="dummy-1_q3_0_all"  />
<polygon points="117,40 120,35 117,30 117,40 " style="fill:white; stroke-width:1; stroke:black; " description="&lt;b&gt;MKLBNFHE_00265&lt;/b&gt;&lt;br&gt;hypothetical protein&lt;br&gt;Location: 291753 - 291927" locus_tag="MKLBNFHE_00265" class="clusterblast-orf" id="dummy-1_q4_0_all"  />
<polygon points="121,35 126,30 140,30 140,40 126,40 121,35 " style="fill:#d84215; stroke-width:1; stroke:black; " description="&lt;b&gt;MKLBNFHE_00266&lt;/b&gt;&lt;br&gt;hypothetical protein&lt;br&gt;Location: 292047 - 293301" locus_tag="MKLBNFHE_00266" class="clusterblast-orf" id="dummy-1_q5_0_all"  />
<polygon points="140,35 145,30 155,30 155,40 145,40 140,35 " style="fill:#33d815; stroke-width:1; stroke:black; " description="&lt;b&gt;MKLBNFHE_00267&lt;/b&gt;&lt;br&gt;hypothetical protein&lt;br&gt;Location: 293310 - 294288" locus_tag="MKLBNFHE_00267" class="clusterblast-orf" id="dummy-1_q6_0_all"  />
<polygon points="160,40 171,40 176,35 171,30 160,30 160,40 " style="fill:#157ed8; stroke-width:1; stroke:black; " description="&lt;b&gt;MKLBNFHE_00268&lt;/b&gt;&lt;br&gt;hypothetical protein&lt;br&gt;Location: 294631 - 295675" locus_tag="MKLBNFHE_00268" class="clusterblast-orf" id="dummy-1_q7_0_all"  />
<polygon points="176,35 181,30 187,30 187,40 181,40 176,35 " style="fill:#ba15d8; stroke-width:1; stroke:black; " description="&lt;b&gt;MKLBNFHE_00269&lt;/b&gt;&lt;br&gt;N-acetylglucosaminyldiphosphoundecaprenol N-acetyl-beta-D-mannosaminyltransferase&lt;br&gt;Location: 295688 - 296441" locus_tag="MKLBNFHE_00269" class="clusterblast-orf" id="dummy-1_q8_0_all"  />
<polygon points="191,40 207,40 212,35 207,30 191,30 191,40 " style="fill:#d86f15; stroke-width:1; stroke:black; " description="&lt;b&gt;MKLBNFHE_00270&lt;/b&gt;&lt;br&gt;hypothetical protein&lt;br&gt;Location: 296679 - 298077" locus_tag="MKLBNFHE_00270" class="clusterblast-orf" id="dummy-1_q9_0_all"  />
<polygon points="218,35 223,30 290,30 290,40 223,40 218,35 " style="fill:white; stroke-width:1; stroke:black; " description="&lt;b&gt;MKLBNFHE_00271&lt;/b&gt;&lt;br&gt;hypothetical protein&lt;br&gt;Location: 298490 - 303326" locus_tag="MKLBNFHE_00271" class="clusterblast-orf" id="dummy-1_q10_0_all"  />
<polygon points="294,35 299,30 303,30 303,40 299,40 294,35 " style="fill:white; stroke-width:1; stroke:black; " description="&lt;b&gt;MKLBNFHE_00272&lt;/b&gt;&lt;br&gt;hypothetical protein&lt;br&gt;Location: 303548 - 304193" locus_tag="MKLBNFHE_00272" class="clusterblast-orf" id="dummy-1_q11_0_all"  />
<polygon points="326,40 331,40 336,35 331,30 326,30 326,40 " style="fill:#15d824; stroke-width:1; stroke:black; " description="&lt;b&gt;MKLBNFHE_00273&lt;/b&gt;&lt;br&gt;hypothetical protein&lt;br&gt;Location: 305742 - 306405" locus_tag="MKLBNFHE_00273" class="clusterblast-orf" id="dummy-1_q12_0_all"  />
<polygon points="336,40 347,40 352,35 347,30 336,30 336,40 " style="fill:#1551d8; stroke-width:1; stroke:black; " description="&lt;b&gt;MKLBNFHE_00274&lt;/b&gt;&lt;br&gt;hypothetical protein&lt;br&gt;Location: 306401 - 307430" locus_tag="MKLBNFHE_00274" class="clusterblast-orf" id="dummy-1_q13_0_all"  />
<polygon points="352,40 416,40 421,35 416,30 352,30 352,40 " style="fill:#d815c9; stroke-width:1; stroke:black; " description="&lt;b&gt;MKLBNFHE_00275&lt;/b&gt;&lt;br&gt;D-alanine--D-alanyl carrier protein ligase&lt;br&gt;Location: 307431 - 312033" locus_tag="MKLBNFHE_00275" class="clusterblast-orf" id="dummy-1_q14_0_all"  />
<polygon points="420,40 425,40 430,35 425,30 420,30 420,40 " style="fill:#d89c15; stroke-width:1; stroke:black; " description="&lt;b&gt;MKLBNFHE_00276&lt;/b&gt;&lt;br&gt;hypothetical protein&lt;br&gt;Location: 312025 - 312655" locus_tag="MKLBNFHE_00276" class="clusterblast-orf" id="dummy-1_q15_0_all"  />
<polygon points="430,35 433,30 433,40 430,35 " style="fill:#15d851; stroke-width:1; stroke:black; " description="&lt;b&gt;MKLBNFHE_00277&lt;/b&gt;&lt;br&gt;hypothetical protein&lt;br&gt;Location: 312661 - 312895" locus_tag="MKLBNFHE_00277" class="clusterblast-orf" id="dummy-1_q16_0_all"  />
<polygon points="433,35 438,30 446,30 446,40 438,40 433,35 " style="fill:#1524d8; stroke-width:1; stroke:black; " description="&lt;b&gt;MKLBNFHE_00278&lt;/b&gt;&lt;br&gt;Sulfur carrier protein FdhD&lt;br&gt;Location: 312884 - 313703" locus_tag="MKLBNFHE_00278" class="clusterblast-orf" id="dummy-1_q17_0_all"  />
<polygon points="446,35 451,30 489,30 489,40 451,40 446,35 " style="fill:#d8159c; stroke-width:1; stroke:black; " description="&lt;b&gt;MKLBNFHE_00279&lt;/b&gt;&lt;br&gt;Putative formate dehydrogenase&lt;br&gt;Location: 313716 - 316623" locus_tag="MKLBNFHE_00279" class="clusterblast-orf" id="dummy-1_q18_0_all"  />
<polygon points="489,35 491,30 491,40 489,35 " style="fill:white; stroke-width:1; stroke:black; " description="&lt;b&gt;MKLBNFHE_00280&lt;/b&gt;&lt;br&gt;hypothetical protein&lt;br&gt;Location: 316619 - 316736" locus_tag="MKLBNFHE_00280" class="clusterblast-orf" id="dummy-1_q19_0_all"  />
<polygon points="491,35 496,30 514,30 514,40 496,40 491,35 " style="fill:#d8c915; stroke-width:1; stroke:black; " description="&lt;b&gt;MKLBNFHE_00281&lt;/b&gt;&lt;br&gt;NADP-reducing hydrogenase subunit HndC&lt;br&gt;Location: 316732 - 318253" locus_tag="MKLBNFHE_00281" class="clusterblast-orf" id="dummy-1_q20_0_all"  />
<polygon points="514,35 519,30 521,30 521,40 519,40 514,35 " style="fill:#15d87e; stroke-width:1; stroke:black; " description="&lt;b&gt;MKLBNFHE_00282&lt;/b&gt;&lt;br&gt;NADP-reducing hydrogenase subunit HndA&lt;br&gt;Location: 318252 - 318720" locus_tag="MKLBNFHE_00282" class="clusterblast-orf" id="dummy-1_q21_0_all"  />
<polygon points="523,35 528,30 537,30 537,40 528,40 523,35 " style="fill:#3315d8; stroke-width:1; stroke:black; " description="&lt;b&gt;MKLBNFHE_00283&lt;/b&gt;&lt;br&gt;Hydrogen peroxide-inducible genes activator&lt;br&gt;Location: 318896 - 319784" locus_tag="MKLBNFHE_00283" class="clusterblast-orf" id="dummy-1_q22_0_all"  />
<polygon points="539,35 544,30 561,30 561,40 544,40 539,35 " style="fill:white; stroke-width:1; stroke:black; " description="&lt;b&gt;MKLBNFHE_00284&lt;/b&gt;&lt;br&gt;hypothetical protein&lt;br&gt;Location: 319971 - 321408" locus_tag="MKLBNFHE_00284" class="clusterblast-orf" id="dummy-1_q23_0_all"  />
<polygon points="564,40 575,40 580,35 575,30 564,30 564,40 " style="fill:#d8156f; stroke-width:1; stroke:black; " description="&lt;b&gt;MKLBNFHE_00285&lt;/b&gt;&lt;br&gt;hypothetical protein&lt;br&gt;Location: 321614 - 322685" locus_tag="MKLBNFHE_00285" class="clusterblast-orf" id="dummy-1_q24_0_all"  />
<polygon points="580,40 584,35 580,30 580,40 " style="fill:#bad815; stroke-width:1; stroke:black; " description="&lt;b&gt;MKLBNFHE_00286&lt;/b&gt;&lt;br&gt;hypothetical protein&lt;br&gt;Location: 322681 - 322936" locus_tag="MKLBNFHE_00286" class="clusterblast-orf" id="dummy-1_q25_0_all"  />
<polygon points="584,40 596,40 601,35 596,30 584,30 584,40 " style="fill:#15d8ab; stroke-width:1; stroke:black; " description="&lt;b&gt;MKLBNFHE_00287&lt;/b&gt;&lt;br&gt;hypothetical protein&lt;br&gt;Location: 322928 - 324053" locus_tag="MKLBNFHE_00287" class="clusterblast-orf" id="dummy-1_q26_0_all"  />
<polygon points="603,40 627,40 632,35 627,30 603,30 603,40 " style="fill:#6015d8; stroke-width:1; stroke:black; " description="&lt;b&gt;MKLBNFHE_00288&lt;/b&gt;&lt;br&gt;hypothetical protein&lt;br&gt;Location: 324197 - 326126" locus_tag="MKLBNFHE_00288" class="clusterblast-orf" id="dummy-1_q27_0_all"  />
<polygon points="632,40 632,40 637,35 632,30 632,30 632,40 " style="fill:white; stroke-width:1; stroke:black; " description="&lt;b&gt;MKLBNFHE_00289&lt;/b&gt;&lt;br&gt;hypothetical protein&lt;br&gt;Location: 326125 - 326473" locus_tag="MKLBNFHE_00289" class="clusterblast-orf" id="dummy-1_q28_0_all"  />
<polygon points="637,40 652,40 657,35 652,30 637,30 637,40 " style="fill:#d81542; stroke-width:1; stroke:black; " description="&lt;b&gt;MKLBNFHE_00290&lt;/b&gt;&lt;br&gt;hypothetical protein&lt;br&gt;Location: 326469 - 327843" locus_tag="MKLBNFHE_00290" class="clusterblast-orf" id="dummy-1_q29_0_all"  />
<polygon points="658,40 662,35 658,30 658,40 " style="fill:#8dd815; stroke-width:1; stroke:black; " description="&lt;b&gt;MKLBNFHE_00291&lt;/b&gt;&lt;br&gt;hypothetical protein&lt;br&gt;Location: 327887 - 328157" locus_tag="MKLBNFHE_00291" class="clusterblast-orf" id="dummy-1_q30_0_all"  />
<polygon points="662,40 667,40 672,35 667,30 662,30 662,40 " style="fill:#15d8d8; stroke-width:1; stroke:black; " description="&lt;b&gt;MKLBNFHE_00292&lt;/b&gt;&lt;br&gt;hypothetical protein&lt;br&gt;Location: 328161 - 328833" locus_tag="MKLBNFHE_00292" class="clusterblast-orf" id="dummy-1_q31_0_all"  />
<polygon points="673,35 678,30 679,30 679,40 678,40 673,35 " style="fill:white; stroke-width:1; stroke:black; " description="&lt;b&gt;MKLBNFHE_00293&lt;/b&gt;&lt;br&gt;hypothetical protein&lt;br&gt;Location: 328898 - 329300" locus_tag="MKLBNFHE_00293" class="clusterblast-orf" id="dummy-1_q32_0_all"  />
<polygon points="688,35 693,30 693,30 693,40 693,40 688,35 " style="fill:white; stroke-width:1; stroke:black; " description="&lt;b&gt;MKLBNFHE_00294&lt;/b&gt;&lt;br&gt;hypothetical protein&lt;br&gt;Location: 329914 - 330226" locus_tag="MKLBNFHE_00294" class="clusterblast-orf" id="dummy-1_q33_0_all"  />
<polygon points="696,35 701,30 713,30 713,40 701,40 696,35 " style="fill:white; stroke-width:1; stroke:black; " description="&lt;b&gt;MKLBNFHE_00295&lt;/b&gt;&lt;br&gt;hypothetical protein&lt;br&gt;Location: 330410 - 331574" locus_tag="MKLBNFHE_00295" class="clusterblast-orf" id="dummy-1_q34_0_all"  />
</g>
<g label="NZ_CP021047" description="NZ_CP021047 (2886717-2938916): Phaeobacter gallaeciensis strain P128 chromoso... (29% of genes show similarity), NRPS-like,T1PKS" class="clusterblast-cluster"  >
<text x="5" y="70" class="clusterblast-acc"  >
<a xlink:href="https://antismash-db.secondarymetabolites.org/area.html?record=NZ_CP021047&amp;start=2886717&amp;end=2938916" target="_blank">NZ_CP021047 (2886717-2938916)</a>: Phaeobacter gallaeciensis strain P128 chromoso... (29% of genes show similarity), NRPS-like,T1PKS</text>
<line x1="10" y1="85" x2="778.0" y2="85" style="stroke-width:1; stroke:grey; "  />
</g>
<g id="a1_000"  >
<polygon points="0,90 2,90 7,85 2,80 0,80 0,90 " style="fill:white; stroke-width:1; stroke:black; " description="&lt;b&gt;PhaeoP128_RS13825&lt;/b&gt;&lt;br&gt;hypothetical protein&lt;br&gt;Location: 2886796 - 2887308" locus_tag="PhaeoP128_RS13825" class="clusterblast-orf" id="dummy-1_h1_7_0"  />
</g>
<g id="a1_001"  >
<polygon points="8,90 19,90 24,85 19,80 8,80 8,90 " style="fill:white; stroke-width:1; stroke:black; " description="&lt;b&gt;PhaeoP128_RS13830&lt;/b&gt;&lt;br&gt;glyceraldehyde-3-phosphate dehydrogenase&lt;br&gt;Location: 2887357 - 2888418" locus_tag="PhaeoP128_RS13830" class="clusterblast-orf" id="dummy-1_h1_7_1"  />
</g>
<g id="a1_002"  >
<polygon points="25,85 30,80 47,80 47,90 30,90 25,85 " style="fill:white; stroke-width:1; stroke:black; " description="&lt;b&gt;PhaeoP128_RS13835&lt;/b&gt;&lt;br&gt;purine permease&lt;br&gt;Location: 2888521 - 2889948" locus_tag="PhaeoP128_RS13835" class="clusterblast-orf" id="dummy-1_h1_7_2"  />
</g>
<g id="a1_003"  >
<polygon points="49,85 54,80 56,80 56,90 54,90 49,85 " style="fill:white; stroke-width:1; stroke:black; " description="&lt;b&gt;PhaeoP128_RS13840&lt;/b&gt;&lt;br&gt;ureidoglycolate lyase&lt;br&gt;Location: 2890089 - 2890574" locus_tag="PhaeoP128_RS13840" class="clusterblast-orf" id="dummy-1_h1_7_3"  />
</g>
<g id="a1_004"  >
<polygon points="57,85 62,80 78,80 78,90 62,90 57,85 " style="fill:white; stroke-width:1; stroke:black; " description="&lt;b&gt;PhaeoP128_RS13845&lt;/b&gt;&lt;br&gt;allantoinase PuuE&lt;br&gt;Location: 2890618 - 2892033" locus_tag="PhaeoP128_RS13845" class="clusterblast-orf" id="dummy-1_h1_7_4"  />
</g>
<g id="a1_005"  >
<polygon points="80,90 81,90 86,85 81,80 80,80 80,90 " style="fill:white; stroke-width:1; stroke:black; " description="&lt;b&gt;PhaeoP128_RS13850&lt;/b&gt;&lt;br&gt;hydroxyisourate hydrolase&lt;br&gt;Location: 2892188 - 2892559" locus_tag="PhaeoP128_RS13850" class="clusterblast-orf" id="dummy-1_h1_7_5"  />
</g>
<g id="a1_006"  >
<polygon points="87,85 92,80 102,80 102,90 92,90 87,85 " style="fill:white; stroke-width:1; stroke:black; " description="&lt;b&gt;PhaeoP128_RS13855&lt;/b&gt;&lt;br&gt;LysR family transcriptional regulator&lt;br&gt;Location: 2892644 - 2893618" locus_tag="PhaeoP128_RS13855" class="clusterblast-orf" id="dummy-1_h1_7_6"  />
</g>
<g id="a1_007"  >
<polygon points="104,90 118,90 123,85 118,80 104,80 104,90 " style="fill:white; stroke-width:1; stroke:black; " description="&lt;b&gt;PhaeoP128_RS13860&lt;/b&gt;&lt;br&gt;urate hydroxylase PuuD&lt;br&gt;Location: 2893799 - 2895031" locus_tag="PhaeoP128_RS13860" class="clusterblast-orf" id="dummy-1_h1_7_7"  />
</g>
<g id="a1_008"  >
<polygon points="125,90 149,90 154,85 149,80 125,80 125,90 " style="fill:white; stroke-width:1; stroke:black; " description="&lt;b&gt;PhaeoP128_RS13865&lt;/b&gt;&lt;br&gt;BamA/TamA family outer membrane protein&lt;br&gt;Location: 2895190 - 2897134" locus_tag="PhaeoP128_RS13865" class="clusterblast-orf" id="dummy-1_h1_7_8"  />
</g>
<g id="a1_009"  >
<polygon points="154,90 204,90 209,85 204,80 154,80 154,90 " style="fill:white; stroke-width:1; stroke:black; " description="&lt;b&gt;PhaeoP128_RS13870&lt;/b&gt;&lt;br&gt;translocation/assembly module TamB domain-containing protein&lt;br&gt;Location: 2897131 - 2900796" locus_tag="PhaeoP128_RS13870" class="clusterblast-orf" id="dummy-1_h1_7_9"  />
</g>
<g id="a1_0010"  >
<polygon points="209,85 214,80 224,80 224,90 214,90 209,85 " style="fill:white; stroke-width:1; stroke:black; " description="&lt;b&gt;PhaeoP128_RS13875&lt;/b&gt;&lt;br&gt;glucokinase&lt;br&gt;Location: 2900823 - 2901773" locus_tag="PhaeoP128_RS13875" class="clusterblast-orf" id="dummy-1_h1_7_10"  />
</g>
<g id="a1_0011"  >
<polygon points="226,90 238,90 243,85 238,80 226,80 226,90 " style="fill:white; stroke-width:1; stroke:black; " description="&lt;b&gt;PhaeoP128_RS13880&lt;/b&gt;&lt;br&gt;glycosyltransferase family 2 protein&lt;br&gt;Location: 2901946 - 2903055" locus_tag="PhaeoP128_RS13880" class="clusterblast-orf" id="dummy-1_h1_7_11"  />
</g>
<g id="a1_0012"  >
<polygon points="243,90 253,90 258,85 253,80 243,80 243,90 " style="fill:#157ed8; stroke-width:1; stroke:black; " description="&lt;b&gt;PhaeoP128_RS13885&lt;/b&gt;&lt;br&gt;glycosyltransferase&lt;br&gt;Location: 2903055 - 2904038&lt;br&gt;&lt;br&gt;&lt;b&gt;BlastP hit with MKLBNFHE_00268&lt;/b&gt;&lt;br&gt;Percentage identity: 61&lt;br&gt;Percentage coverage: 97&lt;br&gt;BLAST bit score: 388&lt;br&gt;E-value: 1.58e-133" locus_tag="PhaeoP128_RS13885" class="clusterblast-orf" id="dummy-1_h1_7_12"  />
</g>
<g id="a1_0013"  >
<polygon points="258,85 263,80 269,80 269,90 263,90 258,85 " style="fill:#ba15d8; stroke-width:1; stroke:black; " description="&lt;b&gt;PhaeoP128_RS13890&lt;/b&gt;&lt;br&gt;WecB/TagA/CpsF family glycosyltransferase&lt;br&gt;Location: 2904058 - 2904810&lt;br&gt;&lt;br&gt;&lt;b&gt;BlastP hit with MKLBNFHE_00269&lt;/b&gt;&lt;br&gt;Percentage identity: 59&lt;br&gt;Percentage coverage: 99&lt;br&gt;BLAST bit score: 280&lt;br&gt;E-value: 1.4e-93" locus_tag="PhaeoP128_RS13890" class="clusterblast-orf" id="dummy-1_h1_7_13"  />
</g>
<g id="a1_0014"  >
<polygon points="272,90 289,90 294,85 289,80 272,80 272,90 " style="fill:#d86f15; stroke-width:1; stroke:black; " description="&lt;b&gt;PhaeoP128_RS13895&lt;/b&gt;&lt;br&gt;hypothetical protein&lt;br&gt;Location: 2904988 - 2906451&lt;br&gt;&lt;br&gt;&lt;b&gt;BlastP hit with MKLBNFHE_00270&lt;/b&gt;&lt;br&gt;Percentage identity: 43&lt;br&gt;Percentage coverage: 98&lt;br&gt;BLAST bit score: 345&lt;br&gt;E-value: 1.13e-112" locus_tag="PhaeoP128_RS13895" class="clusterblast-orf" id="dummy-1_h1_7_14"  />
</g>
<g id="a1_0015"  >
<polygon points="298,90 390,90 395,85 390,80 298,80 298,90 " style="fill:#15d824; stroke-width:1; stroke:black; " description="&lt;b&gt;PhaeoP128_RS13900&lt;/b&gt;&lt;br&gt;type I polyketide synthase&lt;br&gt;Location: 2906718 - 2913206&lt;br&gt;&lt;br&gt;&lt;b&gt;BlastP hit with MKLBNFHE_00273&lt;/b&gt;&lt;br&gt;Percentage identity: 62&lt;br&gt;Percentage coverage: 90&lt;br&gt;BLAST bit score: 242&lt;br&gt;E-value: 1.15e-71" locus_tag="PhaeoP128_RS13900" class="clusterblast-orf" id="dummy-1_h1_7_15"  />
</g>
<g id="a1_0016"  >
<polygon points="395,90 406,90 411,85 406,80 395,80 395,90 " style="fill:#1551d8; stroke-width:1; stroke:black; " description="&lt;b&gt;PhaeoP128_RS13905&lt;/b&gt;&lt;br&gt;glycosyltransferase family 2 protein&lt;br&gt;Location: 2913203 - 2914273&lt;br&gt;&lt;br&gt;&lt;b&gt;BlastP hit with MKLBNFHE_00274&lt;/b&gt;&lt;br&gt;Percentage identity: 52&lt;br&gt;Percentage coverage: 96&lt;br&gt;BLAST bit score: 333&lt;br&gt;E-value: 1.68e-111" locus_tag="PhaeoP128_RS13905" class="clusterblast-orf" id="dummy-1_h1_7_16"  />
</g>
<g id="a1_0017"  >
<polygon points="411,90 475,90 480,85 475,80 411,80 411,90 " style="fill:#d815c9; stroke-width:1; stroke:black; " description="&lt;b&gt;PhaeoP128_RS13910&lt;/b&gt;&lt;br&gt;LLM class flavin-dependent oxidoreductase&lt;br&gt;Location: 2914270 - 2918916&lt;br&gt;&lt;br&gt;&lt;b&gt;BlastP hit with MKLBNFHE_00275&lt;/b&gt;&lt;br&gt;Percentage identity: 53&lt;br&gt;Percentage coverage: 100&lt;br&gt;BLAST bit score: 1393&lt;br&gt;E-value: 0.0" locus_tag="PhaeoP128_RS13910" class="clusterblast-orf" id="dummy-1_h1_7_17"  />
</g>
<g id="a1_0018"  >
<polygon points="480,90 486,90 491,85 486,80 480,80 480,90 " style="fill:#d89c15; stroke-width:1; stroke:black; " description="&lt;b&gt;PhaeoP128_RS13915&lt;/b&gt;&lt;br&gt;4'-phosphopantetheinyl transferase superfamily protein&lt;br&gt;Location: 2918913 - 2919626&lt;br&gt;&lt;br&gt;&lt;b&gt;BlastP hit with MKLBNFHE_00276&lt;/b&gt;&lt;br&gt;Percentage identity: 39&lt;br&gt;Percentage coverage: 95&lt;br&gt;BLAST bit score: 110&lt;br&gt;E-value: 6.55e-28" locus_tag="PhaeoP128_RS13915" class="clusterblast-orf" id="dummy-1_h1_7_18"  />
</g>
<g id="a1_0019"  >
<polygon points="491,90 499,90 504,85 499,80 491,80 491,90 " style="fill:white; stroke-width:1; stroke:black; " description="&lt;b&gt;PhaeoP128_RS13920&lt;/b&gt;&lt;br&gt;hypothetical protein&lt;br&gt;Location: 2919623 - 2920525" locus_tag="PhaeoP128_RS13920" class="clusterblast-orf" id="dummy-1_h1_7_19"  />
</g>
<g id="a1_0020"  >
<polygon points="504,90 538,90 543,85 538,80 504,80 504,90 " style="fill:white; stroke-width:1; stroke:black; " description="&lt;b&gt;PhaeoP128_RS13925&lt;/b&gt;&lt;br&gt;hypothetical protein&lt;br&gt;Location: 2920522 - 2923092" locus_tag="PhaeoP128_RS13925" class="clusterblast-orf" id="dummy-1_h1_7_20"  />
</g>
<g id="a1_0021"  >
<polygon points="543,90 550,90 555,85 550,80 543,80 543,90 " style="fill:white; stroke-width:1; stroke:black; " description="&lt;b&gt;PhaeoP128_RS13930&lt;/b&gt;&lt;br&gt;glycosyltransferase family 2 protein&lt;br&gt;Location: 2923089 - 2923931" locus_tag="PhaeoP128_RS13930" class="clusterblast-orf" id="dummy-1_h1_7_21"  />
</g>
<g id="a1_0022"  >
<polygon points="556,85 561,80 574,80 574,90 561,90 556,85 " style="fill:white; stroke-width:1; stroke:black; " description="&lt;b&gt;PhaeoP128_RS13935&lt;/b&gt;&lt;br&gt;glycosyltransferase family 4 protein&lt;br&gt;Location: 2923950 - 2925167" locus_tag="PhaeoP128_RS13935" class="clusterblast-orf" id="dummy-1_h1_7_22"  />
</g>
<g id="a1_0023"  >
<polygon points="576,90 591,90 596,85 591,80 576,80 576,90 " style="fill:white; stroke-width:1; stroke:black; " description="&lt;b&gt;PhaeoP128_RS13940&lt;/b&gt;&lt;br&gt;oligosaccharide flippase family protein&lt;br&gt;Location: 2925312 - 2926676" locus_tag="PhaeoP128_RS13940" class="clusterblast-orf" id="dummy-1_h1_7_23"  />
</g>
<g id="a1_0024"  >
<polygon points="597,85 602,80 616,80 616,90 602,90 597,85 " style="fill:#d84215; stroke-width:1; stroke:black; " description="&lt;b&gt;PhaeoP128_RS13945&lt;/b&gt;&lt;br&gt;DUF874 domain-containing protein&lt;br&gt;Location: 2926710 - 2927996&lt;br&gt;&lt;br&gt;&lt;b&gt;BlastP hit with MKLBNFHE_00266&lt;/b&gt;&lt;br&gt;Percentage identity: 33&lt;br&gt;Percentage coverage: 99&lt;br&gt;BLAST bit score: 160&lt;br&gt;E-value: 9.36e-43" locus_tag="PhaeoP128_RS13945" class="clusterblast-orf" id="dummy-1_h1_7_24"  />
</g>
<g id="a1_0025"  >
<polygon points="617,85 622,80 633,80 633,90 622,90 617,85 " style="fill:#33d815; stroke-width:1; stroke:black; " description="&lt;b&gt;PhaeoP128_RS13950&lt;/b&gt;&lt;br&gt;CpsD/CapB family tyrosine-protein kinase&lt;br&gt;Location: 2928069 - 2929142&lt;br&gt;&lt;br&gt;&lt;b&gt;BlastP hit with MKLBNFHE_00267&lt;/b&gt;&lt;br&gt;Percentage identity: 34&lt;br&gt;Percentage coverage: 97&lt;br&gt;BLAST bit score: 155&lt;br&gt;E-value: 2.29e-42" locus_tag="PhaeoP128_RS13950" class="clusterblast-orf" id="dummy-1_h1_7_25"  />
</g>
<g id="a1_0026"  >
<polygon points="634,85 639,80 645,80 645,90 639,90 634,85 " style="fill:#8d15d8; stroke-width:1; stroke:black; " description="&lt;b&gt;PhaeoP128_RS13955&lt;/b&gt;&lt;br&gt;sugar transferase&lt;br&gt;Location: 2929217 - 2929942&lt;br&gt;&lt;br&gt;&lt;b&gt;BlastP hit with MKLBNFHE_00264&lt;/b&gt;&lt;br&gt;Percentage identity: 56&lt;br&gt;Percentage coverage: 82&lt;br&gt;BLAST bit score: 209&lt;br&gt;E-value: 6.85e-66" locus_tag="PhaeoP128_RS13955" class="clusterblast-orf" id="dummy-1_h1_7_26"  />
</g>
<g id="a1_0027"  >
<polygon points="657,90 666,90 671,85 666,80 657,80 657,90 " style="fill:white; stroke-width:1; stroke:black; " description="&lt;b&gt;PhaeoP128_RS13960&lt;/b&gt;&lt;br&gt;2-dehydro-3-deoxygalactonokinase&lt;br&gt;Location: 2930750 - 2931658" locus_tag="PhaeoP128_RS13960" class="clusterblast-orf" id="dummy-1_h1_7_27"  />
</g>
<g id="a1_0028"  >
<polygon points="671,85 676,80 688,80 688,90 676,90 671,85 " style="fill:white; stroke-width:1; stroke:black; " description="&lt;b&gt;PhaeoP128_RS13965&lt;/b&gt;&lt;br&gt;RNA methyltransferase&lt;br&gt;Location: 2931685 - 2932815" locus_tag="PhaeoP128_RS13965" class="clusterblast-orf" id="dummy-1_h1_7_28"  />
</g>
<g id="a1_0029"  >
<polygon points="693,90 714,90 719,85 714,80 693,80 693,90 " style="fill:white; stroke-width:1; stroke:black; " description="&lt;b&gt;PhaeoP128_RS13970&lt;/b&gt;&lt;br&gt;carbohydrate ABC transporter substrate-binding protein&lt;br&gt;Location: 2933143 - 2934876" locus_tag="PhaeoP128_RS13970" class="clusterblast-orf" id="dummy-1_h1_7_29"  />
</g>
<g id="a1_0030"  >
<polygon points="722,90 733,90 738,85 733,80 722,80 722,90 " style="fill:white; stroke-width:1; stroke:black; " description="&lt;b&gt;PhaeoP128_RS13975&lt;/b&gt;&lt;br&gt;ABC transporter ATP-binding protein&lt;br&gt;Location: 2935030 - 2936106" locus_tag="PhaeoP128_RS13975" class="clusterblast-orf" id="dummy-1_h1_7_30"  />
</g>
<g id="a1_0031"  >
<polygon points="738,90 749,90 754,85 749,80 738,80 738,90 " style="fill:white; stroke-width:1; stroke:black; " description="&lt;b&gt;PhaeoP128_RS13980&lt;/b&gt;&lt;br&gt;ABC transporter ATP-binding protein&lt;br&gt;Location: 2936114 - 2937229" locus_tag="PhaeoP128_RS13980" class="clusterblast-orf" id="dummy-1_h1_7_31"  />
</g>
<g id="a1_0032"  >
<polygon points="754,90 762,90 767,85 762,80 754,80 754,90 " style="fill:white; stroke-width:1; stroke:black; " description="&lt;b&gt;PhaeoP128_RS13985&lt;/b&gt;&lt;br&gt;sugar ABC transporter permease&lt;br&gt;Location: 2937229 - 2938092" locus_tag="PhaeoP128_RS13985" class="clusterblast-orf" id="dummy-1_h1_7_32"  />
</g>
<g id="a1_0033"  >
<polygon points="768,90 775,90 780,85 775,80 768,80 768,90 " style="fill:white; stroke-width:1; stroke:black; " description="&lt;b&gt;PhaeoP128_RS13990&lt;/b&gt;&lt;br&gt;carbohydrate ABC transporter permease&lt;br&gt;Location: 2938107 - 2938904" locus_tag="PhaeoP128_RS13990" class="clusterblast-orf" id="dummy-1_h1_7_33"  />
</g>
</svg>
