<svg xmlns="http://www.w3.org/2000/svg" xmlns:xlink="http://www.w3.org/1999/xlink" version="1.1" x="0" y="0" height="230" width="800" viewBox="0 0 800 230" preserveAspectRatio="none"  >
<g label="Query sequence" class="clusterblast-cluster"  >
<text x="5" y="20" class="clusterblast-acc"  >
Query sequence</text>
<line x1="10" y1="35" x2="778.0" y2="35" style="stroke-width:1; stroke:grey; "  />
<polygon points="4,40 37,40 42,35 37,30 4,30 4,40 " style="fill:#d81515; stroke-width:1; stroke:black; " description="&lt;b&gt;MKLBNFHE_05000&lt;/b&gt;&lt;br&gt;ABC transporter periplasmic-binding protein YtfQ&lt;br&gt;Location: 189614 - 190574" locus_tag="MKLBNFHE_05000" class="clusterblast-orf" id="dummy-1_q0_0_all"  />
<polygon points="45,40 99,40 104,35 99,30 45,30 45,40 " style="fill:#3cd815; stroke-width:1; stroke:black; " description="&lt;b&gt;MKLBNFHE_05001&lt;/b&gt;&lt;br&gt;Fructose import ATP-binding protein FruK&lt;br&gt;Location: 190656 - 192150" locus_tag="MKLBNFHE_05001" class="clusterblast-orf" id="dummy-1_q1_0_all"  />
<polygon points="104,40 139,40 144,35 139,30 104,30 104,40 " style="fill:#1563d8; stroke-width:1; stroke:black; " description="&lt;b&gt;MKLBNFHE_05002&lt;/b&gt;&lt;br&gt;Inner membrane ABC transporter permease protein YtfT&lt;br&gt;Location: 192149 - 193163" locus_tag="MKLBNFHE_05002" class="clusterblast-orf" id="dummy-1_q2_0_all"  />
<polygon points="144,40 177,40 182,35 177,30 144,30 144,40 " style="fill:#1563d8; stroke-width:1; stroke:black; " description="&lt;b&gt;MKLBNFHE_05003&lt;/b&gt;&lt;br&gt;Inner membrane ABC transporter permease protein YjfF&lt;br&gt;Location: 193159 - 194134" locus_tag="MKLBNFHE_05003" class="clusterblast-orf" id="dummy-1_q3_0_all"  />
<polygon points="182,40 210,40 215,35 210,30 182,30 182,40 " style="fill:white; stroke-width:1; stroke:black; " description="&lt;b&gt;MKLBNFHE_05004&lt;/b&gt;&lt;br&gt;L-arabinolactonase&lt;br&gt;Location: 194130 - 194961" locus_tag="MKLBNFHE_05004" class="clusterblast-orf" id="dummy-1_q4_0_all"  />
<polygon points="215,40 249,40 254,35 249,30 215,30 215,40 " style="fill:white; stroke-width:1; stroke:black; " description="&lt;b&gt;MKLBNFHE_05005&lt;/b&gt;&lt;br&gt;Aldose 1-epimerase&lt;br&gt;Location: 194981 - 195962" locus_tag="MKLBNFHE_05005" class="clusterblast-orf" id="dummy-1_q5_0_all"  />
<polygon points="254,40 284,40 289,35 284,30 254,30 254,40 " style="fill:#b115d8; stroke-width:1; stroke:black; " description="&lt;b&gt;MKLBNFHE_05006&lt;/b&gt;&lt;br&gt;putative 2-dehydro-3-deoxygalactonokinase DgoK1&lt;br&gt;Location: 195958 - 196855" locus_tag="MKLBNFHE_05006" class="clusterblast-orf" id="dummy-1_q6_0_all"  />
<polygon points="289,40 308,40 313,35 308,30 289,30 289,40 " style="fill:#d88a15; stroke-width:1; stroke:black; " description="&lt;b&gt;MKLBNFHE_05007&lt;/b&gt;&lt;br&gt;2-dehydro-3-deoxy-6-phosphogalactonate aldolase&lt;br&gt;Location: 196854 - 197475" locus_tag="MKLBNFHE_05007" class="clusterblast-orf" id="dummy-1_q7_0_all"  />
<polygon points="323,40 346,40 351,35 346,30 323,30 323,40 " style="fill:#15d863; stroke-width:1; stroke:black; " description="&lt;b&gt;MKLBNFHE_05008&lt;/b&gt;&lt;br&gt;Transcriptional activator protein AnoR&lt;br&gt;Location: 197723 - 198428" locus_tag="MKLBNFHE_05008" class="clusterblast-orf" id="dummy-1_q8_0_all"  />
<polygon points="358,40 383,40 388,35 383,30 358,30 358,40 " style="fill:#3c15d8; stroke-width:1; stroke:black; " description="&lt;b&gt;MKLBNFHE_05009&lt;/b&gt;&lt;br&gt;hypothetical protein&lt;br&gt;Location: 198610 - 199360" locus_tag="MKLBNFHE_05009" class="clusterblast-orf" id="dummy-1_q9_0_all"  />
<polygon points="501,40 550,40 555,35 550,30 501,30 501,40 " style="fill:white; stroke-width:1; stroke:black; " description="&lt;b&gt;MKLBNFHE_05010&lt;/b&gt;&lt;br&gt;hypothetical protein&lt;br&gt;Location: 202234 - 203620" locus_tag="MKLBNFHE_05010" class="clusterblast-orf" id="dummy-1_q10_0_all"  />
<polygon points="555,35 560,30 589,30 589,40 560,40 555,35 " style="fill:#d8158a; stroke-width:1; stroke:black; " description="&lt;b&gt;MKLBNFHE_05011&lt;/b&gt;&lt;br&gt;Sulfate transport system permease protein CysW&lt;br&gt;Location: 203624 - 204485" locus_tag="MKLBNFHE_05011" class="clusterblast-orf" id="dummy-1_q11_0_all"  />
<polygon points="589,35 594,30 622,30 622,40 594,40 589,35 " style="fill:#d8158a; stroke-width:1; stroke:black; " description="&lt;b&gt;MKLBNFHE_05012&lt;/b&gt;&lt;br&gt;Sulfate transport system permease protein CysT&lt;br&gt;Location: 204481 - 205330" locus_tag="MKLBNFHE_05012" class="clusterblast-orf" id="dummy-1_q12_0_all"  />
<polygon points="623,35 628,30 662,30 662,40 628,40 623,35 " style="fill:#b1d815; stroke-width:1; stroke:black; " description="&lt;b&gt;MKLBNFHE_05013&lt;/b&gt;&lt;br&gt;Thiosulfate-binding protein&lt;br&gt;Location: 205337 - 206327" locus_tag="MKLBNFHE_05013" class="clusterblast-orf" id="dummy-1_q13_0_all"  />
<polygon points="661,35 666,30 705,30 705,40 666,40 661,35 " style="fill:#15d8d8; stroke-width:1; stroke:black; " description="&lt;b&gt;MKLBNFHE_05014&lt;/b&gt;&lt;br&gt;Vitamin B12 import ATP-binding protein BtuD&lt;br&gt;Location: 206323 - 207436" locus_tag="MKLBNFHE_05014" class="clusterblast-orf" id="dummy-1_q14_0_all"  />
<polygon points="725,40 732,40 737,35 732,30 725,30 725,40 " style="fill:white; stroke-width:1; stroke:black; " description="&lt;b&gt;MKLBNFHE_05015&lt;/b&gt;&lt;br&gt;hypothetical protein&lt;br&gt;Location: 207939 - 208257" locus_tag="MKLBNFHE_05015" class="clusterblast-orf" id="dummy-1_q15_0_all"  />
<polygon points="739,35 744,30 776,30 776,40 744,40 739,35 " style="fill:white; stroke-width:1; stroke:black; " description="&lt;b&gt;MKLBNFHE_05016&lt;/b&gt;&lt;br&gt;Hydrogen peroxide-inducible genes activator&lt;br&gt;Location: 208285 - 209224" locus_tag="MKLBNFHE_05016" class="clusterblast-orf" id="dummy-1_q16_0_all"  />
</g>
<g label="NZ_CP022415" description="NZ_CP022415 (101959-121791): Sulfitobacter pseudonitzschiae strain SMR1 chrom... (15% of genes show similarity), hserlactone" class="clusterblast-cluster"  >
<text x="5" y="70" class="clusterblast-acc"  >
<a xlink:href="https://antismash-db.secondarymetabolites.org/area.html?record=NZ_CP022415&amp;start=101959&amp;end=121791" target="_blank">NZ_CP022415 (101959-121791)</a>: Sulfitobacter pseudonitzschiae strain SMR1 chrom... (15% of genes show similarity), hserlactone</text>
<line x1="10" y1="85" x2="778.0" y2="85" style="stroke-width:1; stroke:grey; "  />
</g>
<g id="a1_000"  >
<polygon points="0,85 5,80 15,80 15,90 5,90 0,85 " style="fill:white; stroke-width:1; stroke:black; " description="&lt;b&gt;SULPSESMR1_RS00555&lt;/b&gt;&lt;br&gt;DUF4864 domain-containing protein&lt;br&gt;Location: 121791 - 121390" locus_tag="SULPSESMR1_RS00555" class="clusterblast-orf" id="dummy-1_h1_6_0"  />
</g>
<g id="a1_001"  >
<polygon points="19,85 24,80 81,80 81,90 24,90 19,85 " style="fill:white; stroke-width:1; stroke:black; " description="&lt;b&gt;SULPSESMR1_RS00550&lt;/b&gt;&lt;br&gt;lysine--tRNA ligase&lt;br&gt;Location: 121291 - 119714" locus_tag="SULPSESMR1_RS00550" class="clusterblast-orf" id="dummy-1_h1_6_1"  />
</g>
<g id="a1_002"  >
<polygon points="86,90 98,90 103,85 98,80 86,80 86,90 " style="fill:white; stroke-width:1; stroke:black; " description="&lt;b&gt;SULPSESMR1_RS00545&lt;/b&gt;&lt;br&gt;tellurite resistance TerB family protein&lt;br&gt;Location: 119603 - 119172" locus_tag="SULPSESMR1_RS00545" class="clusterblast-orf" id="dummy-1_h1_6_2"  />
</g>
<g id="a1_003"  >
<polygon points="103,85 108,80 161,80 161,90 108,90 103,85 " style="fill:white; stroke-width:1; stroke:black; " description="&lt;b&gt;SULPSESMR1_RS00540&lt;/b&gt;&lt;br&gt;D-alanyl-D-alanine carboxypeptidase/D-alanyl-D-alanine-endopeptidase&lt;br&gt;Location: 119163 - 117673" locus_tag="SULPSESMR1_RS00540" class="clusterblast-orf" id="dummy-1_h1_6_3"  />
</g>
<g id="a1_004"  >
<polygon points="166,90 193,90 198,85 193,80 166,80 166,90 " style="fill:white; stroke-width:1; stroke:black; " description="&lt;b&gt;SULPSESMR1_RS00535&lt;/b&gt;&lt;br&gt;DMT family transporter&lt;br&gt;Location: 117560 - 116733" locus_tag="SULPSESMR1_RS00535" class="clusterblast-orf" id="dummy-1_h1_6_4"  />
</g>
<g id="a1_005"  >
<polygon points="198,85 203,80 222,80 222,90 203,90 198,85 " style="fill:white; stroke-width:1; stroke:black; " description="&lt;b&gt;SULPSESMR1_RS00530&lt;/b&gt;&lt;br&gt;nicotinate-nucleotide adenylyltransferase&lt;br&gt;Location: 116744 - 116139" locus_tag="SULPSESMR1_RS00530" class="clusterblast-orf" id="dummy-1_h1_6_5"  />
</g>
<g id="a1_006"  >
<polygon points="223,85 228,80 241,80 241,90 228,90 223,85 " style="fill:white; stroke-width:1; stroke:black; " description="&lt;b&gt;SULPSESMR1_RS00525&lt;/b&gt;&lt;br&gt;MOSC domain-containing protein&lt;br&gt;Location: 116111 - 115641" locus_tag="SULPSESMR1_RS00525" class="clusterblast-orf" id="dummy-1_h1_6_6"  />
</g>
<g id="a1_007"  >
<polygon points="253,90 313,90 318,85 313,80 253,80 253,90 " style="fill:white; stroke-width:1; stroke:black; " description="&lt;b&gt;SULPSESMR1_RS00520&lt;/b&gt;&lt;br&gt;energy-dependent translational throttle protein EttA&lt;br&gt;Location: 115344 - 113689" locus_tag="SULPSESMR1_RS00520" class="clusterblast-orf" id="dummy-1_h1_6_7"  />
</g>
<g id="a1_008"  >
<polygon points="324,90 341,90 346,85 341,80 324,80 324,90 " style="fill:white; stroke-width:1; stroke:black; " description="&lt;b&gt;SULPSESMR1_RS00515&lt;/b&gt;&lt;br&gt;L,D-transpeptidase&lt;br&gt;Location: 113539 - 112979" locus_tag="SULPSESMR1_RS00515" class="clusterblast-orf" id="dummy-1_h1_6_8"  />
</g>
<g id="a1_009"  >
<polygon points="358,90 380,90 385,85 380,80 358,80 358,90 " style="fill:#15d863; stroke-width:1; stroke:black; " description="&lt;b&gt;SULPSESMR1_RS00510&lt;/b&gt;&lt;br&gt;LuxR family transcriptional regulator&lt;br&gt;Location: 112680 - 111979&lt;br&gt;&lt;br&gt;&lt;b&gt;BlastP hit with MKLBNFHE_05008&lt;/b&gt;&lt;br&gt;Percentage identity: 50&lt;br&gt;Percentage coverage: 98&lt;br&gt;BLAST bit score: 235&lt;br&gt;E-value: 2.49e-76" locus_tag="SULPSESMR1_RS00510" class="clusterblast-orf" id="dummy-1_h1_6_9"  />
</g>
<g id="a1_0010"  >
<polygon points="389,90 417,90 422,85 417,80 389,80 389,90 " style="fill:#3c15d8; stroke-width:1; stroke:black; " description="&lt;b&gt;SULPSESMR1_RS00505&lt;/b&gt;&lt;br&gt;autoinducer synthase&lt;br&gt;Location: 111894 - 111049&lt;br&gt;&lt;br&gt;&lt;b&gt;BlastP hit with MKLBNFHE_05009&lt;/b&gt;&lt;br&gt;Percentage identity: 67&lt;br&gt;Percentage coverage: 85&lt;br&gt;BLAST bit score: 292&lt;br&gt;E-value: 7.45e-98" locus_tag="SULPSESMR1_RS00505" class="clusterblast-orf" id="dummy-1_h1_6_10"  />
</g>
<g id="a1_0011"  >
<polygon points="429,85 434,80 468,80 468,90 434,90 429,85 " style="fill:white; stroke-width:1; stroke:black; " description="&lt;b&gt;SULPSESMR1_RS00500&lt;/b&gt;&lt;br&gt;ABC transporter substrate-binding protein&lt;br&gt;Location: 110870 - 109881" locus_tag="SULPSESMR1_RS00500" class="clusterblast-orf" id="dummy-1_h1_6_11"  />
</g>
<g id="a1_0012"  >
<polygon points="469,85 474,80 503,80 503,90 474,90 469,85 " style="fill:white; stroke-width:1; stroke:black; " description="&lt;b&gt;SULPSESMR1_RS00495&lt;/b&gt;&lt;br&gt;ABC transporter permease&lt;br&gt;Location: 109844 - 108984" locus_tag="SULPSESMR1_RS00495" class="clusterblast-orf" id="dummy-1_h1_6_12"  />
</g>
<g id="a1_0013"  >
<polygon points="506,85 511,80 540,80 540,90 511,90 506,85 " style="fill:white; stroke-width:1; stroke:black; " description="&lt;b&gt;SULPSESMR1_RS00490&lt;/b&gt;&lt;br&gt;ABC transporter permease&lt;br&gt;Location: 108918 - 108052" locus_tag="SULPSESMR1_RS00490" class="clusterblast-orf" id="dummy-1_h1_6_13"  />
</g>
<g id="a1_0014"  >
<polygon points="541,85 546,80 574,80 574,90 546,90 541,85 " style="fill:#15d8d8; stroke-width:1; stroke:black; " description="&lt;b&gt;SULPSESMR1_RS00485&lt;/b&gt;&lt;br&gt;ABC transporter ATP-binding protein&lt;br&gt;Location: 108024 - 107197&lt;br&gt;&lt;br&gt;&lt;b&gt;BlastP hit with MKLBNFHE_05014&lt;/b&gt;&lt;br&gt;Percentage identity: 37&lt;br&gt;Percentage coverage: 59&lt;br&gt;BLAST bit score: 140&lt;br&gt;E-value: 5.05e-37" locus_tag="SULPSESMR1_RS00485" class="clusterblast-orf" id="dummy-1_h1_6_14"  />
</g>
<g id="a1_0015"  >
<polygon points="574,85 579,80 631,80 631,90 579,90 574,85 " style="fill:white; stroke-width:1; stroke:black; " description="&lt;b&gt;SULPSESMR1_RS00480&lt;/b&gt;&lt;br&gt;dihydropyrimidinase&lt;br&gt;Location: 107187 - 105727" locus_tag="SULPSESMR1_RS00480" class="clusterblast-orf" id="dummy-1_h1_6_15"  />
</g>
<g id="a1_0016"  >
<polygon points="634,85 639,80 647,80 647,90 639,90 634,85 " style="fill:white; stroke-width:1; stroke:black; " description="&lt;b&gt;SULPSESMR1_RS00475&lt;/b&gt;&lt;br&gt;hypothetical protein&lt;br&gt;Location: 105647 - 105327" locus_tag="SULPSESMR1_RS00475" class="clusterblast-orf" id="dummy-1_h1_6_16"  />
</g>
<g id="a1_0017"  >
<polygon points="648,85 653,80 697,80 697,90 653,90 648,85 " style="fill:white; stroke-width:1; stroke:black; " description="&lt;b&gt;SULPSESMR1_RS00470&lt;/b&gt;&lt;br&gt;Zn-dependent hydrolase&lt;br&gt;Location: 105313 - 104063" locus_tag="SULPSESMR1_RS00470" class="clusterblast-orf" id="dummy-1_h1_6_17"  />
</g>
<g id="a1_0018"  >
<polygon points="701,90 723,90 728,85 723,80 701,80 701,90 " style="fill:white; stroke-width:1; stroke:black; " description="&lt;b&gt;SULPSESMR1_RS00465&lt;/b&gt;&lt;br&gt;TetR family transcriptional regulator&lt;br&gt;Location: 103945 - 103274" locus_tag="SULPSESMR1_RS00465" class="clusterblast-orf" id="dummy-1_h1_6_18"  />
</g>
<g id="a1_0019"  >
<polygon points="728,85 733,80 780,80 780,90 733,90 728,85 " style="fill:white; stroke-width:1; stroke:black; " description="&lt;b&gt;SULPSESMR1_RS00460&lt;/b&gt;&lt;br&gt;NAD-dependent dihydropyrimidine dehydrogenase subunit PreA&lt;br&gt;Location: 103264 - 101960" locus_tag="SULPSESMR1_RS00460" class="clusterblast-orf" id="dummy-1_h1_6_19"  />
</g>
</svg>
