<svg xmlns="http://www.w3.org/2000/svg" xmlns:xlink="http://www.w3.org/1999/xlink" version="1.1" x="0" y="0" height="230" width="800" viewBox="0 0 800 230" preserveAspectRatio="none"  >
<g label="Query sequence" class="clusterblast-cluster"  >
<text x="5" y="20" class="clusterblast-acc"  >
Query sequence</text>
<line x1="10" y1="35" x2="778.0" y2="35" style="stroke-width:1; stroke:grey; "  />
<polygon points="14,35 16,30 16,40 14,35 " style="fill:white; stroke-width:1; stroke:black; " description="&lt;b&gt;MKLBNFHE_04117&lt;/b&gt;&lt;br&gt;hypothetical protein&lt;br&gt;Location: 285401 - 285497" locus_tag="MKLBNFHE_04117" class="clusterblast-orf" id="dummy-1_q0_0_all"  />
<polygon points="19,35 24,30 47,30 47,40 24,40 19,35 " style="fill:#d81515; stroke-width:1; stroke:black; " description="&lt;b&gt;MKLBNFHE_04118&lt;/b&gt;&lt;br&gt;DNA repair protein RecN&lt;br&gt;Location: 285651 - 287295" locus_tag="MKLBNFHE_04118" class="clusterblast-orf" id="dummy-1_q1_0_all"  />
<polygon points="48,35 53,30 63,30 63,40 53,40 48,35 " style="fill:#5cd815; stroke-width:1; stroke:black; " description="&lt;b&gt;MKLBNFHE_04119&lt;/b&gt;&lt;br&gt;Outer membrane protein assembly factor BamD&lt;br&gt;Location: 287358 - 288219" locus_tag="MKLBNFHE_04119" class="clusterblast-orf" id="dummy-1_q2_0_all"  />
<polygon points="68,35 73,30 85,30 85,40 73,40 68,35 " style="fill:#15c7d8; stroke-width:1; stroke:black; " description="&lt;b&gt;MKLBNFHE_04120&lt;/b&gt;&lt;br&gt;UDP-3-O-acyl-N-acetylglucosamine deacetylase&lt;br&gt;Location: 288465 - 289440" locus_tag="MKLBNFHE_04120" class="clusterblast-orf" id="dummy-1_q3_0_all"  />
<polygon points="89,35 94,30 120,30 120,40 94,40 89,35 " style="fill:#8015d8; stroke-width:1; stroke:black; " description="&lt;b&gt;MKLBNFHE_04121&lt;/b&gt;&lt;br&gt;Cell division protein FtsZ&lt;br&gt;Location: 289681 - 291490" locus_tag="MKLBNFHE_04121" class="clusterblast-orf" id="dummy-1_q4_0_all"  />
<polygon points="125,35 130,30 148,30 148,40 130,40 125,35 " style="fill:#d83915; stroke-width:1; stroke:black; " description="&lt;b&gt;MKLBNFHE_04122&lt;/b&gt;&lt;br&gt;Cell division protein FtsA&lt;br&gt;Location: 291750 - 293085" locus_tag="MKLBNFHE_04122" class="clusterblast-orf" id="dummy-1_q5_0_all"  />
<polygon points="148,35 153,30 165,30 165,40 153,40 148,35 " style="fill:#39d815; stroke-width:1; stroke:black; " description="&lt;b&gt;MKLBNFHE_04123&lt;/b&gt;&lt;br&gt;Cell division protein FtsQ&lt;br&gt;Location: 293081 - 294047" locus_tag="MKLBNFHE_04123" class="clusterblast-orf" id="dummy-1_q6_0_all"  />
<polygon points="165,35 170,30 181,30 181,40 170,40 165,35 " style="fill:#15a3d8; stroke-width:1; stroke:black; " description="&lt;b&gt;MKLBNFHE_04124&lt;/b&gt;&lt;br&gt;D-alanine--D-alanine ligase B&lt;br&gt;Location: 294034 - 294952" locus_tag="MKLBNFHE_04124" class="clusterblast-orf" id="dummy-1_q7_0_all"  />
<polygon points="183,35 188,30 199,30 199,40 188,40 183,35 " style="fill:#a315d8; stroke-width:1; stroke:black; " description="&lt;b&gt;MKLBNFHE_04125&lt;/b&gt;&lt;br&gt;UDP-N-acetylenolpyruvoylglucosamine reductase&lt;br&gt;Location: 295077 - 296010" locus_tag="MKLBNFHE_04125" class="clusterblast-orf" id="dummy-1_q8_0_all"  />
<polygon points="200,35 205,30 207,30 207,40 205,40 200,35 " style="fill:#d85c15; stroke-width:1; stroke:black; " description="&lt;b&gt;MKLBNFHE_04126&lt;/b&gt;&lt;br&gt;hypothetical protein&lt;br&gt;Location: 296070 - 296454" locus_tag="MKLBNFHE_04126" class="clusterblast-orf" id="dummy-1_q9_0_all"  />
<polygon points="208,35 212,30 212,40 208,35 " style="fill:#15d815; stroke-width:1; stroke:black; " description="&lt;b&gt;MKLBNFHE_04127&lt;/b&gt;&lt;br&gt;hypothetical protein&lt;br&gt;Location: 296525 - 296768" locus_tag="MKLBNFHE_04127" class="clusterblast-orf" id="dummy-1_q10_0_all"  />
<polygon points="214,35 219,30 220,30 220,40 219,40 214,35 " style="fill:white; stroke-width:1; stroke:black; " description="&lt;b&gt;MKLBNFHE_04128&lt;/b&gt;&lt;br&gt;hypothetical protein&lt;br&gt;Location: 296847 - 297231" locus_tag="MKLBNFHE_04128" class="clusterblast-orf" id="dummy-1_q11_0_all"  />
<polygon points="221,35 226,30 245,30 245,40 226,40 221,35 " style="fill:#1580d8; stroke-width:1; stroke:black; " description="&lt;b&gt;MKLBNFHE_04129&lt;/b&gt;&lt;br&gt;UDP-N-acetylmuramate--L-alanine ligase&lt;br&gt;Location: 297237 - 298665" locus_tag="MKLBNFHE_04129" class="clusterblast-orf" id="dummy-1_q12_0_all"  />
<polygon points="245,35 250,30 265,30 265,40 250,40 245,35 " style="fill:#c715d8; stroke-width:1; stroke:black; " description="&lt;b&gt;MKLBNFHE_04130&lt;/b&gt;&lt;br&gt;UDP-N-acetylglucosamine--N-acetylmuramyl- (pentapeptide) pyrophosphoryl-undecaprenol N-acetylglucosamine transferase&lt;br&gt;Location: 298661 - 299762" locus_tag="MKLBNFHE_04130" class="clusterblast-orf" id="dummy-1_q13_0_all"  />
<polygon points="264,35 269,30 285,30 285,40 269,40 264,35 " style="fill:#d88015; stroke-width:1; stroke:black; " description="&lt;b&gt;MKLBNFHE_04131&lt;/b&gt;&lt;br&gt;putative peptidoglycan glycosyltransferase FtsW&lt;br&gt;Location: 299761 - 300925" locus_tag="MKLBNFHE_04131" class="clusterblast-orf" id="dummy-1_q14_0_all"  />
<polygon points="287,35 292,30 306,30 306,40 292,40 287,35 " style="fill:#15d839; stroke-width:1; stroke:black; " description="&lt;b&gt;MKLBNFHE_04132&lt;/b&gt;&lt;br&gt;hypothetical protein&lt;br&gt;Location: 301069 - 302128" locus_tag="MKLBNFHE_04132" class="clusterblast-orf" id="dummy-1_q15_0_all"  />
<polygon points="306,35 311,30 316,30 316,40 311,40 306,35 " style="fill:#155cd8; stroke-width:1; stroke:black; " description="&lt;b&gt;MKLBNFHE_04133&lt;/b&gt;&lt;br&gt;Cytochrome b561&lt;br&gt;Location: 302170 - 302743" locus_tag="MKLBNFHE_04133" class="clusterblast-orf" id="dummy-1_q16_0_all"  />
<polygon points="320,40 344,40 349,35 344,30 320,30 320,40 " style="fill:#d815c7; stroke-width:1; stroke:black; " description="&lt;b&gt;MKLBNFHE_04134&lt;/b&gt;&lt;br&gt;2,3-dihydroxybenzoate-AMP ligase&lt;br&gt;Location: 302925 - 304593" locus_tag="MKLBNFHE_04134" class="clusterblast-orf" id="dummy-1_q17_0_all"  />
<polygon points="349,40 353,35 349,30 349,40 " style="fill:#d8a315; stroke-width:1; stroke:black; " description="&lt;b&gt;MKLBNFHE_04135&lt;/b&gt;&lt;br&gt;Vibriobactin-specific isochorismatase&lt;br&gt;Location: 304589 - 304826" locus_tag="MKLBNFHE_04135" class="clusterblast-orf" id="dummy-1_q18_0_all"  />
<polygon points="353,40 381,40 386,35 381,30 353,30 353,40 " style="fill:#15d85c; stroke-width:1; stroke:black; " description="&lt;b&gt;MKLBNFHE_04136&lt;/b&gt;&lt;br&gt;Dimodular nonribosomal peptide synthase&lt;br&gt;Location: 304838 - 306713" locus_tag="MKLBNFHE_04136" class="clusterblast-orf" id="dummy-1_q19_0_all"  />
<polygon points="387,40 418,40 423,35 418,30 387,30 387,40 " style="fill:#15d85c; stroke-width:1; stroke:black; " description="&lt;b&gt;MKLBNFHE_04137&lt;/b&gt;&lt;br&gt;Enterobactin synthase component F&lt;br&gt;Location: 306813 - 308847" locus_tag="MKLBNFHE_04137" class="clusterblast-orf" id="dummy-1_q20_0_all"  />
<polygon points="423,35 428,30 438,30 438,40 428,40 423,35 " style="fill:#1539d8; stroke-width:1; stroke:black; " description="&lt;b&gt;MKLBNFHE_04138&lt;/b&gt;&lt;br&gt;Ferri-bacillibactin esterase BesA&lt;br&gt;Location: 308854 - 309706" locus_tag="MKLBNFHE_04138" class="clusterblast-orf" id="dummy-1_q21_0_all"  />
<polygon points="444,40 463,40 468,35 463,30 444,30 444,40 " style="fill:#d815a3; stroke-width:1; stroke:black; " description="&lt;b&gt;MKLBNFHE_04139&lt;/b&gt;&lt;br&gt;hypothetical protein&lt;br&gt;Location: 310034 - 311462" locus_tag="MKLBNFHE_04139" class="clusterblast-orf" id="dummy-1_q22_0_all"  />
<polygon points="470,40 485,40 490,35 485,30 470,30 470,40 " style="fill:#d8c715; stroke-width:1; stroke:black; " description="&lt;b&gt;MKLBNFHE_04140&lt;/b&gt;&lt;br&gt;hypothetical protein&lt;br&gt;Location: 311576 - 312677" locus_tag="MKLBNFHE_04140" class="clusterblast-orf" id="dummy-1_q23_0_all"  />
<polygon points="490,40 503,40 508,35 503,30 490,30 490,40 " style="fill:#15d880; stroke-width:1; stroke:black; " description="&lt;b&gt;MKLBNFHE_04141&lt;/b&gt;&lt;br&gt;Hemin transport system permease protein HmuU&lt;br&gt;Location: 312684 - 313725" locus_tag="MKLBNFHE_04141" class="clusterblast-orf" id="dummy-1_q24_0_all"  />
<polygon points="508,40 517,40 522,35 517,30 508,30 508,40 " style="fill:#1515d8; stroke-width:1; stroke:black; " description="&lt;b&gt;MKLBNFHE_04142&lt;/b&gt;&lt;br&gt;Fe(3+) dicitrate transport ATP-binding protein FecE&lt;br&gt;Location: 313721 - 314510" locus_tag="MKLBNFHE_04142" class="clusterblast-orf" id="dummy-1_q25_0_all"  />
<polygon points="521,40 527,40 532,35 527,30 521,30 521,40 " style="fill:#d81580; stroke-width:1; stroke:black; " description="&lt;b&gt;MKLBNFHE_04143&lt;/b&gt;&lt;br&gt;hypothetical protein&lt;br&gt;Location: 314506 - 315082" locus_tag="MKLBNFHE_04143" class="clusterblast-orf" id="dummy-1_q26_0_all"  />
<polygon points="531,40 549,40 554,35 549,30 531,30 531,40 " style="fill:#c7d815; stroke-width:1; stroke:black; " description="&lt;b&gt;MKLBNFHE_04144&lt;/b&gt;&lt;br&gt;C4-dicarboxylate TRAP transporter large permease protein DctM&lt;br&gt;Location: 315078 - 316347" locus_tag="MKLBNFHE_04144" class="clusterblast-orf" id="dummy-1_q27_0_all"  />
<polygon points="554,40 566,40 571,35 566,30 554,30 554,40 " style="fill:#15d8a3; stroke-width:1; stroke:black; " description="&lt;b&gt;MKLBNFHE_04145&lt;/b&gt;&lt;br&gt;Solute-binding protein&lt;br&gt;Location: 316348 - 317353" locus_tag="MKLBNFHE_04145" class="clusterblast-orf" id="dummy-1_q28_0_all"  />
<polygon points="572,35 577,30 591,30 591,40 577,40 572,35 " style="fill:#3915d8; stroke-width:1; stroke:black; " description="&lt;b&gt;MKLBNFHE_04146&lt;/b&gt;&lt;br&gt;Selenide, water dikinase&lt;br&gt;Location: 317408 - 318467" locus_tag="MKLBNFHE_04146" class="clusterblast-orf" id="dummy-1_q29_0_all"  />
<polygon points="597,40 603,40 608,35 603,30 597,30 597,40 " style="fill:#d8155c; stroke-width:1; stroke:black; " description="&lt;b&gt;MKLBNFHE_04147&lt;/b&gt;&lt;br&gt;Formate dehydrogenase-O major subunit&lt;br&gt;Location: 318865 - 319465" locus_tag="MKLBNFHE_04147" class="clusterblast-orf" id="dummy-1_q30_0_all"  />
<polygon points="609,40 646,40 651,35 646,30 609,30 609,40 " style="fill:#d8155c; stroke-width:1; stroke:black; " description="&lt;b&gt;MKLBNFHE_04148&lt;/b&gt;&lt;br&gt;Formate dehydrogenase-O major subunit&lt;br&gt;Location: 319513 - 321946" locus_tag="MKLBNFHE_04148" class="clusterblast-orf" id="dummy-1_q31_0_all"  />
<polygon points="651,40 663,40 668,35 663,30 651,30 651,40 " style="fill:#a3d815; stroke-width:1; stroke:black; " description="&lt;b&gt;MKLBNFHE_04149&lt;/b&gt;&lt;br&gt;Formate dehydrogenase-O iron-sulfur subunit&lt;br&gt;Location: 321942 - 322932" locus_tag="MKLBNFHE_04149" class="clusterblast-orf" id="dummy-1_q32_0_all"  />
<polygon points="668,40 676,40 681,35 676,30 668,30 668,40 " style="fill:#15d8c7; stroke-width:1; stroke:black; " description="&lt;b&gt;MKLBNFHE_04150&lt;/b&gt;&lt;br&gt;Formate dehydrogenase, cytochrome b556(fdo) subunit&lt;br&gt;Location: 322931 - 323651" locus_tag="MKLBNFHE_04150" class="clusterblast-orf" id="dummy-1_q33_0_all"  />
<polygon points="682,40 693,40 698,35 693,30 682,30 682,40 " style="fill:#5c15d8; stroke-width:1; stroke:black; " description="&lt;b&gt;MKLBNFHE_04151&lt;/b&gt;&lt;br&gt;Protein FdhE&lt;br&gt;Location: 323707 - 324616" locus_tag="MKLBNFHE_04151" class="clusterblast-orf" id="dummy-1_q34_0_all"  />
<polygon points="698,40 717,40 722,35 717,30 698,30 698,40 " style="fill:#d81539; stroke-width:1; stroke:black; " description="&lt;b&gt;MKLBNFHE_04152&lt;/b&gt;&lt;br&gt;L-seryl-tRNA(Sec) selenium transferase&lt;br&gt;Location: 324615 - 326004" locus_tag="MKLBNFHE_04152" class="clusterblast-orf" id="dummy-1_q35_0_all"  />
<polygon points="722,40 750,40 755,35 750,30 722,30 722,40 " style="fill:#80d815; stroke-width:1; stroke:black; " description="&lt;b&gt;MKLBNFHE_04153&lt;/b&gt;&lt;br&gt;Selenocysteine-specific elongation factor&lt;br&gt;Location: 326000 - 327926" locus_tag="MKLBNFHE_04153" class="clusterblast-orf" id="dummy-1_q36_0_all"  />
<polygon points="761,40 765,35 761,30 761,40 " style="fill:white; stroke-width:1; stroke:black; " description="&lt;b&gt;MKLBNFHE_04154&lt;/b&gt;&lt;br&gt;hypothetical protein&lt;br&gt;Location: 328248 - 328485" locus_tag="MKLBNFHE_04154" class="clusterblast-orf" id="dummy-1_q37_0_all"  />
</g>
<g label="NZ_SMYN01000011" description="NZ_SMYN01000011 (53203-98619): Rhodobacter xinxiangensis strain TJ48 Scaffold... (27% of genes show similarity), NRPS" class="clusterblast-cluster"  >
<text x="5" y="70" class="clusterblast-acc"  >
<a xlink:href="https://antismash-db.secondarymetabolites.org/area.html?record=NZ_SMYN01000011&amp;start=53203&amp;end=98619" target="_blank">NZ_SMYN01000011 (53203-98619)</a>: Rhodobacter xinxiangensis strain TJ48 Scaffold... (27% of genes show similarity), NRPS</text>
<line x1="10" y1="85" x2="778.0" y2="85" style="stroke-width:1; stroke:grey; "  />
</g>
<g id="a1_000"  >
<polygon points="0,90 10,90 15,85 10,80 0,80 0,90 " style="fill:white; stroke-width:1; stroke:black; " description="&lt;b&gt;E2K76_RS13825&lt;/b&gt;&lt;br&gt;phosphoadenosine phosphosulfate reductase&lt;br&gt;Location: 98392 - 97523" locus_tag="E2K76_RS13825" class="clusterblast-orf" id="dummy-1_h1_2_0"  />
</g>
<g id="a1_001"  >
<polygon points="15,85 20,80 21,80 21,90 20,90 15,85 " style="fill:white; stroke-width:1; stroke:black; " description="&lt;b&gt;E2K76_RS13820&lt;/b&gt;&lt;br&gt;DUF1311 domain-containing protein&lt;br&gt;Location: 97528 - 97148" locus_tag="E2K76_RS13820" class="clusterblast-orf" id="dummy-1_h1_2_1"  />
</g>
<g id="a1_002"  >
<polygon points="22,90 35,90 40,85 35,80 22,80 22,90 " style="fill:white; stroke-width:1; stroke:black; " description="&lt;b&gt;E2K76_RS13815&lt;/b&gt;&lt;br&gt;dihydroorotase&lt;br&gt;Location: 97093 - 96059" locus_tag="E2K76_RS13815" class="clusterblast-orf" id="dummy-1_h1_2_2"  />
</g>
<g id="a1_003"  >
<polygon points="40,90 47,90 52,85 47,80 40,80 40,90 " style="fill:white; stroke-width:1; stroke:black; " description="&lt;b&gt;E2K76_RS13810&lt;/b&gt;&lt;br&gt;orotate phosphoribosyltransferase&lt;br&gt;Location: 96062 - 95385" locus_tag="E2K76_RS13810" class="clusterblast-orf" id="dummy-1_h1_2_3"  />
</g>
<g id="a1_004"  >
<polygon points="56,90 77,90 82,85 77,80 56,80 56,90 " style="fill:white; stroke-width:1; stroke:black; " description="&lt;b&gt;E2K76_RS13805&lt;/b&gt;&lt;br&gt;replicative DNA helicase&lt;br&gt;Location: 95155 - 93665" locus_tag="E2K76_RS13805" class="clusterblast-orf" id="dummy-1_h1_2_4"  />
</g>
<g id="a1_005"  >
<polygon points="82,85 87,80 95,80 95,90 87,90 82,85 " style="fill:white; stroke-width:1; stroke:black; " description="&lt;b&gt;E2K76_RS13800&lt;/b&gt;&lt;br&gt;EcsC family protein&lt;br&gt;Location: 93668 - 92901" locus_tag="E2K76_RS13800" class="clusterblast-orf" id="dummy-1_h1_2_5"  />
</g>
<g id="a1_006"  >
<polygon points="96,85 101,80 113,80 113,90 101,90 96,85 " style="fill:white; stroke-width:1; stroke:black; " description="&lt;b&gt;E2K76_RS13795&lt;/b&gt;&lt;br&gt;GGDEF domain-containing protein&lt;br&gt;Location: 92848 - 91898" locus_tag="E2K76_RS13795" class="clusterblast-orf" id="dummy-1_h1_2_6"  />
</g>
<g id="a1_007"  >
<polygon points="113,85 118,80 123,80 123,90 118,90 113,85 " style="fill:white; stroke-width:1; stroke:black; " description="&lt;b&gt;E2K76_RS13790&lt;/b&gt;&lt;br&gt;heme NO-binding domain-containing protein&lt;br&gt;Location: 91898 - 91317" locus_tag="E2K76_RS13790" class="clusterblast-orf" id="dummy-1_h1_2_7"  />
</g>
<g id="a1_008"  >
<polygon points="124,85 129,80 153,80 153,90 129,90 124,85 " style="fill:white; stroke-width:1; stroke:black; " description="&lt;b&gt;E2K76_RS13785&lt;/b&gt;&lt;br&gt;DUF4153 domain-containing protein&lt;br&gt;Location: 91258 - 89600" locus_tag="E2K76_RS13785" class="clusterblast-orf" id="dummy-1_h1_2_8"  />
</g>
<g id="a1_009"  >
<polygon points="154,90 154,90 159,85 154,80 154,80 154,90 " style="fill:white; stroke-width:1; stroke:black; " description="&lt;b&gt;E2K76_RS20365&lt;/b&gt;&lt;br&gt;hypothetical protein&lt;br&gt;Location: 89530 - 89264" locus_tag="E2K76_RS20365" class="clusterblast-orf" id="dummy-1_h1_2_9"  />
</g>
<g id="a1_0010"  >
<polygon points="159,90 159,90 164,85 159,80 159,80 159,90 " style="fill:white; stroke-width:1; stroke:black; " description="&lt;b&gt;E2K76_RS13780&lt;/b&gt;&lt;br&gt;Asp-tRNA(Asn)/Glu-tRNA(Gln) amidotransferase subunit GatC&lt;br&gt;Location: 89230 - 88943" locus_tag="E2K76_RS13780" class="clusterblast-orf" id="dummy-1_h1_2_10"  />
</g>
<g id="a1_0011"  >
<polygon points="164,90 185,90 190,85 185,80 164,80 164,90 " style="fill:white; stroke-width:1; stroke:black; " description="&lt;b&gt;E2K76_RS13775&lt;/b&gt;&lt;br&gt;Asp-tRNA(Asn)/Glu-tRNA(Gln) amidotransferase subunit GatA&lt;br&gt;Location: 88946 - 87480" locus_tag="E2K76_RS13775" class="clusterblast-orf" id="dummy-1_h1_2_11"  />
</g>
<g id="a1_0012"  >
<polygon points="190,90 198,90 203,85 198,80 190,80 190,90 " style="fill:white; stroke-width:1; stroke:black; " description="&lt;b&gt;E2K76_RS13770&lt;/b&gt;&lt;br&gt;hypothetical protein&lt;br&gt;Location: 87446 - 86721" locus_tag="E2K76_RS13770" class="clusterblast-orf" id="dummy-1_h1_2_12"  />
</g>
<g id="a1_0013"  >
<polygon points="203,90 209,90 214,85 209,80 203,80 203,90 " style="fill:white; stroke-width:1; stroke:black; " description="&lt;b&gt;E2K76_RS13765&lt;/b&gt;&lt;br&gt;N-acetylmuramoyl-L-alanine amidase&lt;br&gt;Location: 86724 - 86095" locus_tag="E2K76_RS13765" class="clusterblast-orf" id="dummy-1_h1_2_13"  />
</g>
<g id="a1_0014"  >
<polygon points="221,85 226,80 234,80 234,90 226,90 221,85 " style="fill:white; stroke-width:1; stroke:black; " description="&lt;b&gt;E2K76_RS13755&lt;/b&gt;&lt;br&gt;glutaredoxin&lt;br&gt;Location: 85688 - 84927" locus_tag="E2K76_RS13755" class="clusterblast-orf" id="dummy-1_h1_2_14"  />
</g>
<g id="a1_0015"  >
<polygon points="237,90 240,85 237,80 237,90 " style="fill:white; stroke-width:1; stroke:black; " description="&lt;b&gt;E2K76_RS13750&lt;/b&gt;&lt;br&gt;50S ribosomal protein L33&lt;br&gt;Location: 84749 - 84582" locus_tag="E2K76_RS13750" class="clusterblast-orf" id="dummy-1_h1_2_15"  />
</g>
<g id="a1_0016"  >
<polygon points="243,85 248,80 280,80 280,90 248,90 243,85 " style="fill:white; stroke-width:1; stroke:black; " description="&lt;b&gt;E2K76_RS13745&lt;/b&gt;&lt;br&gt;FepA family TonB-dependent siderophore receptor&lt;br&gt;Location: 84431 - 82278" locus_tag="E2K76_RS13745" class="clusterblast-orf" id="dummy-1_h1_2_16"  />
</g>
<g id="a1_0017"  >
<polygon points="283,90 288,90 293,85 288,80 283,80 283,90 " style="fill:#d81580; stroke-width:1; stroke:black; " description="&lt;b&gt;E2K76_RS13740&lt;/b&gt;&lt;br&gt;TRAP transporter small permease subunit&lt;br&gt;Location: 82110 - 81559&lt;br&gt;&lt;br&gt;&lt;b&gt;BlastP hit with MKLBNFHE_04143&lt;/b&gt;&lt;br&gt;Percentage identity: 50&lt;br&gt;Percentage coverage: 91&lt;br&gt;BLAST bit score: 169&lt;br&gt;E-value: 6.14e-52" locus_tag="E2K76_RS13740" class="clusterblast-orf" id="dummy-1_h1_2_17"  />
</g>
<g id="a1_0018"  >
<polygon points="293,90 310,90 315,85 310,80 293,80 293,90 " style="fill:#c7d815; stroke-width:1; stroke:black; " description="&lt;b&gt;E2K76_RS13735&lt;/b&gt;&lt;br&gt;TRAP transporter large permease&lt;br&gt;Location: 81562 - 80306&lt;br&gt;&lt;br&gt;&lt;b&gt;BlastP hit with MKLBNFHE_04144&lt;/b&gt;&lt;br&gt;Percentage identity: 70&lt;br&gt;Percentage coverage: 99&lt;br&gt;BLAST bit score: 511&lt;br&gt;E-value: 2.31e-179" locus_tag="E2K76_RS13735" class="clusterblast-orf" id="dummy-1_h1_2_18"  />
</g>
<g id="a1_0019"  >
<polygon points="315,90 326,90 331,85 326,80 315,80 315,90 " style="fill:#15d8a3; stroke-width:1; stroke:black; " description="&lt;b&gt;E2K76_RS13730&lt;/b&gt;&lt;br&gt;TRAP transporter substrate-binding protein&lt;br&gt;Location: 80296 - 79352&lt;br&gt;&lt;br&gt;&lt;b&gt;BlastP hit with MKLBNFHE_04145&lt;/b&gt;&lt;br&gt;Percentage identity: 77&lt;br&gt;Percentage coverage: 89&lt;br&gt;BLAST bit score: 459&lt;br&gt;E-value: 6.58e-162" locus_tag="E2K76_RS13730" class="clusterblast-orf" id="dummy-1_h1_2_19"  />
</g>
<g id="a1_0020"  >
<polygon points="331,85 336,80 341,80 341,90 336,90 331,85 " style="fill:#155cd8; stroke-width:1; stroke:black; " description="&lt;b&gt;E2K76_RS13725&lt;/b&gt;&lt;br&gt;cytochrome b&lt;br&gt;Location: 79355 - 78783&lt;br&gt;&lt;br&gt;&lt;b&gt;BlastP hit with MKLBNFHE_04133&lt;/b&gt;&lt;br&gt;Percentage identity: 51&lt;br&gt;Percentage coverage: 95&lt;br&gt;BLAST bit score: 199&lt;br&gt;E-value: 1.56e-63" locus_tag="E2K76_RS13725" class="clusterblast-orf" id="dummy-1_h1_2_20"  />
</g>
<g id="a1_0021"  >
<polygon points="344,90 365,90 370,85 365,80 344,80 344,90 " style="fill:#d815c7; stroke-width:1; stroke:black; " description="&lt;b&gt;E2K76_RS13720&lt;/b&gt;&lt;br&gt;AMP-binding protein&lt;br&gt;Location: 78619 - 77129&lt;br&gt;&lt;br&gt;&lt;b&gt;BlastP hit with MKLBNFHE_04134&lt;/b&gt;&lt;br&gt;Percentage identity: 69&lt;br&gt;Percentage coverage: 92&lt;br&gt;BLAST bit score: 676&lt;br&gt;E-value: 5.4e-241" locus_tag="E2K76_RS13720" class="clusterblast-orf" id="dummy-1_h1_2_21"  />
</g>
<g id="a1_0022"  >
<polygon points="370,90 374,85 370,80 370,90 " style="fill:#d8a315; stroke-width:1; stroke:black; " description="&lt;b&gt;E2K76_RS13715&lt;/b&gt;&lt;br&gt;phosphopantetheine-binding protein&lt;br&gt;Location: 77132 - 76899&lt;br&gt;&lt;br&gt;&lt;b&gt;BlastP hit with MKLBNFHE_04135&lt;/b&gt;&lt;br&gt;Percentage identity: 52&lt;br&gt;Percentage coverage: 91&lt;br&gt;BLAST bit score: 80&lt;br&gt;E-value: 1.33e-19" locus_tag="E2K76_RS13715" class="clusterblast-orf" id="dummy-1_h1_2_22"  />
</g>
<g id="a1_0023"  >
<polygon points="374,90 433,90 438,85 433,80 374,80 374,90 " style="fill:#15d85c; stroke-width:1; stroke:black; " description="&lt;b&gt;E2K76_RS13710&lt;/b&gt;&lt;br&gt;amino acid adenylation domain-containing protein&lt;br&gt;Location: 76899 - 73204&lt;br&gt;&lt;br&gt;&lt;b&gt;BlastP hit with MKLBNFHE_04136&lt;/b&gt;&lt;br&gt;Percentage identity: 59&lt;br&gt;Percentage coverage: 92&lt;br&gt;BLAST bit score: 618&lt;br&gt;E-value: 4.94e-207&lt;br&gt;&lt;br&gt;&lt;b&gt;BlastP hit with MKLBNFHE_04137&lt;/b&gt;&lt;br&gt;Percentage identity: 71&lt;br&gt;Percentage coverage: 100&lt;br&gt;BLAST bit score: 935&lt;br&gt;E-value: 0.0" locus_tag="E2K76_RS13710" class="clusterblast-orf" id="dummy-1_h1_2_23"  />
</g>
<g id="a1_0024"  >
<polygon points="438,85 443,80 452,80 452,90 443,90 438,85 " style="fill:#1539d8; stroke-width:1; stroke:black; " description="&lt;b&gt;E2K76_RS13705&lt;/b&gt;&lt;br&gt;alpha/beta hydrolase&lt;br&gt;Location: 73224 - 72430&lt;br&gt;&lt;br&gt;&lt;b&gt;BlastP hit with MKLBNFHE_04138&lt;/b&gt;&lt;br&gt;Percentage identity: 64&lt;br&gt;Percentage coverage: 98&lt;br&gt;BLAST bit score: 342&lt;br&gt;E-value: 1.91e-117" locus_tag="E2K76_RS13705" class="clusterblast-orf" id="dummy-1_h1_2_24"  />
</g>
<g id="a1_0025"  >
<polygon points="454,90 473,90 478,85 473,80 454,80 454,90 " style="fill:#d815a3; stroke-width:1; stroke:black; " description="&lt;b&gt;E2K76_RS13700&lt;/b&gt;&lt;br&gt;YncE family protein&lt;br&gt;Location: 72306 - 70921&lt;br&gt;&lt;br&gt;&lt;b&gt;BlastP hit with MKLBNFHE_04139&lt;/b&gt;&lt;br&gt;Percentage identity: 50&lt;br&gt;Percentage coverage: 99&lt;br&gt;BLAST bit score: 421&lt;br&gt;E-value: 2.85e-142" locus_tag="E2K76_RS13700" class="clusterblast-orf" id="dummy-1_h1_2_25"  />
</g>
<g id="a1_0026"  >
<polygon points="478,90 493,90 498,85 493,80 478,80 478,90 " style="fill:#d8c715; stroke-width:1; stroke:black; " description="&lt;b&gt;E2K76_RS13695&lt;/b&gt;&lt;br&gt;ABC transporter substrate-binding protein&lt;br&gt;Location: 70961 - 69798&lt;br&gt;&lt;br&gt;&lt;b&gt;BlastP hit with MKLBNFHE_04140&lt;/b&gt;&lt;br&gt;Percentage identity: 74&lt;br&gt;Percentage coverage: 95&lt;br&gt;BLAST bit score: 508&lt;br&gt;E-value: 1.05e-179" locus_tag="E2K76_RS13695" class="clusterblast-orf" id="dummy-1_h1_2_26"  />
</g>
<g id="a1_0027"  >
<polygon points="498,90 511,90 516,85 511,80 498,80 498,90 " style="fill:#15d880; stroke-width:1; stroke:black; " description="&lt;b&gt;E2K76_RS13690&lt;/b&gt;&lt;br&gt;iron ABC transporter permease&lt;br&gt;Location: 69801 - 68773&lt;br&gt;&lt;br&gt;&lt;b&gt;BlastP hit with MKLBNFHE_04141&lt;/b&gt;&lt;br&gt;Percentage identity: 75&lt;br&gt;Percentage coverage: 97&lt;br&gt;BLAST bit score: 468&lt;br&gt;E-value: 1.28e-164" locus_tag="E2K76_RS13690" class="clusterblast-orf" id="dummy-1_h1_2_27"  />
</g>
<g id="a1_0028"  >
<polygon points="516,90 524,90 529,85 524,80 516,80 516,90 " style="fill:#1515d8; stroke-width:1; stroke:black; " description="&lt;b&gt;E2K76_RS13685&lt;/b&gt;&lt;br&gt;ABC transporter ATP-binding protein&lt;br&gt;Location: 68776 - 68012&lt;br&gt;&lt;br&gt;&lt;b&gt;BlastP hit with MKLBNFHE_04142&lt;/b&gt;&lt;br&gt;Percentage identity: 62&lt;br&gt;Percentage coverage: 97&lt;br&gt;BLAST bit score: 280&lt;br&gt;E-value: 3.54e-93" locus_tag="E2K76_RS13685" class="clusterblast-orf" id="dummy-1_h1_2_28"  />
</g>
<g id="a1_0029"  >
<polygon points="530,90 537,90 542,85 537,80 530,80 530,90 " style="fill:white; stroke-width:1; stroke:black; " description="&lt;b&gt;E2K76_RS13680&lt;/b&gt;&lt;br&gt;hypothetical protein&lt;br&gt;Location: 67973 - 67266" locus_tag="E2K76_RS13680" class="clusterblast-orf" id="dummy-1_h1_2_29"  />
</g>
<g id="a1_0030"  >
<polygon points="544,85 549,80 550,80 550,90 549,90 544,85 " style="fill:white; stroke-width:1; stroke:black; " description="&lt;b&gt;E2K76_RS13675&lt;/b&gt;&lt;br&gt;hypothetical protein&lt;br&gt;Location: 67174 - 66779" locus_tag="E2K76_RS13675" class="clusterblast-orf" id="dummy-1_h1_2_30"  />
</g>
<g id="a1_0031"  >
<polygon points="552,85 557,80 571,80 571,90 557,90 552,85 " style="fill:white; stroke-width:1; stroke:black; " description="&lt;b&gt;E2K76_RS13670&lt;/b&gt;&lt;br&gt;iron-containing alcohol dehydrogenase&lt;br&gt;Location: 66706 - 65621" locus_tag="E2K76_RS13670" class="clusterblast-orf" id="dummy-1_h1_2_31"  />
</g>
<g id="a1_0032"  >
<polygon points="571,85 576,80 587,80 587,90 576,90 571,85 " style="fill:white; stroke-width:1; stroke:black; " description="&lt;b&gt;E2K76_RS13665&lt;/b&gt;&lt;br&gt;4-hydroxythreonine-4-phosphate dehydrogenase PdxA&lt;br&gt;Location: 65624 - 64677" locus_tag="E2K76_RS13665" class="clusterblast-orf" id="dummy-1_h1_2_32"  />
</g>
<g id="a1_0033"  >
<polygon points="587,85 592,80 607,80 607,90 592,90 587,85 " style="fill:white; stroke-width:1; stroke:black; " description="&lt;b&gt;E2K76_RS13660&lt;/b&gt;&lt;br&gt;exo-alpha-sialidase&lt;br&gt;Location: 64680 - 63532" locus_tag="E2K76_RS13660" class="clusterblast-orf" id="dummy-1_h1_2_33"  />
</g>
<g id="a1_0034"  >
<polygon points="611,90 632,90 637,85 632,80 611,80 611,90 " style="fill:white; stroke-width:1; stroke:black; " description="&lt;b&gt;E2K76_RS13655&lt;/b&gt;&lt;br&gt;peptide ABC transporter substrate-binding protein&lt;br&gt;Location: 63291 - 61795" locus_tag="E2K76_RS13655" class="clusterblast-orf" id="dummy-1_h1_2_34"  />
</g>
<g id="a1_0035"  >
<polygon points="638,90 649,90 654,85 649,80 638,80 638,90 " style="fill:white; stroke-width:1; stroke:black; " description="&lt;b&gt;E2K76_RS13650&lt;/b&gt;&lt;br&gt;dihydrodipicolinate synthase family protein&lt;br&gt;Location: 61740 - 60865" locus_tag="E2K76_RS13650" class="clusterblast-orf" id="dummy-1_h1_2_35"  />
</g>
<g id="a1_0036"  >
<polygon points="654,90 665,90 670,85 665,80 654,80 654,90 " style="fill:white; stroke-width:1; stroke:black; " description="&lt;b&gt;E2K76_RS13645&lt;/b&gt;&lt;br&gt;hydroxyacid dehydrogenase&lt;br&gt;Location: 60865 - 59915" locus_tag="E2K76_RS13645" class="clusterblast-orf" id="dummy-1_h1_2_36"  />
</g>
<g id="a1_0037"  >
<polygon points="670,90 683,90 688,85 683,80 670,80 670,90 " style="fill:white; stroke-width:1; stroke:black; " description="&lt;b&gt;E2K76_RS13640&lt;/b&gt;&lt;br&gt;Ldh family oxidoreductase&lt;br&gt;Location: 59918 - 58911" locus_tag="E2K76_RS13640" class="clusterblast-orf" id="dummy-1_h1_2_37"  />
</g>
<g id="a1_0038"  >
<polygon points="688,90 699,90 704,85 699,80 688,80 688,90 " style="fill:white; stroke-width:1; stroke:black; " description="&lt;b&gt;E2K76_RS13635&lt;/b&gt;&lt;br&gt;four-carbon acid sugar kinase family protein&lt;br&gt;Location: 58914 - 57952" locus_tag="E2K76_RS13635" class="clusterblast-orf" id="dummy-1_h1_2_38"  />
</g>
<g id="a1_0039"  >
<polygon points="704,90 711,90 716,85 711,80 704,80 704,90 " style="fill:white; stroke-width:1; stroke:black; " description="&lt;b&gt;E2K76_RS13630&lt;/b&gt;&lt;br&gt;FadR family transcriptional regulator&lt;br&gt;Location: 57955 - 57257" locus_tag="E2K76_RS13630" class="clusterblast-orf" id="dummy-1_h1_2_39"  />
</g>
<g id="a1_0040"  >
<polygon points="721,90 725,85 721,80 721,90 " style="fill:white; stroke-width:1; stroke:black; " description="&lt;b&gt;E2K76_RS13625&lt;/b&gt;&lt;br&gt;hypothetical protein&lt;br&gt;Location: 56971 - 56762" locus_tag="E2K76_RS13625" class="clusterblast-orf" id="dummy-1_h1_2_40"  />
</g>
<g id="a1_0041"  >
<polygon points="726,90 728,90 733,85 728,80 726,80 726,90 " style="fill:white; stroke-width:1; stroke:black; " description="&lt;b&gt;E2K76_RS13620&lt;/b&gt;&lt;br&gt;preprotein translocase subunit SecG&lt;br&gt;Location: 56690 - 56295" locus_tag="E2K76_RS13620" class="clusterblast-orf" id="dummy-1_h1_2_41"  />
</g>
<g id="a1_0042"  >
<polygon points="736,90 760,90 765,85 760,80 736,80 736,90 " style="fill:white; stroke-width:1; stroke:black; " description="&lt;b&gt;E2K76_RS13615&lt;/b&gt;&lt;br&gt;CTP synthase&lt;br&gt;Location: 56134 - 54491" locus_tag="E2K76_RS13615" class="clusterblast-orf" id="dummy-1_h1_2_42"  />
</g>
<g id="a1_0043"  >
<polygon points="765,90 775,90 780,85 775,80 765,80 765,90 " style="fill:white; stroke-width:1; stroke:black; " description="&lt;b&gt;E2K76_RS13610&lt;/b&gt;&lt;br&gt;glycosyl transferase&lt;br&gt;Location: 54443 - 53637" locus_tag="E2K76_RS13610" class="clusterblast-orf" id="dummy-1_h1_2_43"  />
</g>
</svg>
