<svg xmlns="http://www.w3.org/2000/svg" xmlns:xlink="http://www.w3.org/1999/xlink" version="1.1" x="0" y="0" height="230" width="800" viewBox="0 0 800 230" preserveAspectRatio="none"  >
<g label="Query sequence" class="clusterblast-cluster"  >
<text x="5" y="20" class="clusterblast-acc"  >
Query sequence</text>
<line x1="10" y1="35" x2="778.0" y2="35" style="stroke-width:1; stroke:grey; "  />
<polygon points="60,40 68,40 73,35 68,30 60,30 60,40 " style="fill:#d81515; stroke-width:1; stroke:black; " description="&lt;b&gt;MKLBNFHE_00261&lt;/b&gt;&lt;br&gt;dTDP-4-dehydrorhamnose reductase&lt;br&gt;Location: 288357 - 289212" locus_tag="MKLBNFHE_00261" class="clusterblast-orf" id="dummy-1_q0_0_all"  />
<polygon points="73,40 81,40 86,35 81,30 73,30 73,40 " style="fill:#60d815; stroke-width:1; stroke:black; " description="&lt;b&gt;MKLBNFHE_00262&lt;/b&gt;&lt;br&gt;Glucose-1-phosphate thymidylyltransferase&lt;br&gt;Location: 289208 - 290081" locus_tag="MKLBNFHE_00262" class="clusterblast-orf" id="dummy-1_q1_0_all"  />
<polygon points="90,40 92,35 90,30 90,40 " style="fill:#15abd8; stroke-width:1; stroke:black; " description="&lt;b&gt;MKLBNFHE_00263&lt;/b&gt;&lt;br&gt;hypothetical protein&lt;br&gt;Location: 290303 - 290492" locus_tag="MKLBNFHE_00263" class="clusterblast-orf" id="dummy-1_q2_0_all"  />
<polygon points="99,40 105,40 110,35 105,30 99,30 99,40 " style="fill:#8d15d8; stroke-width:1; stroke:black; " description="&lt;b&gt;MKLBNFHE_00264&lt;/b&gt;&lt;br&gt;Undecaprenyl phosphate N,N'-diacetylbacillosamine 1-phosphate transferase&lt;br&gt;Location: 290939 - 291650" locus_tag="MKLBNFHE_00264" class="clusterblast-orf" id="dummy-1_q3_0_all"  />
<polygon points="112,40 114,35 112,30 112,40 " style="fill:white; stroke-width:1; stroke:black; " description="&lt;b&gt;MKLBNFHE_00265&lt;/b&gt;&lt;br&gt;hypothetical protein&lt;br&gt;Location: 291753 - 291927" locus_tag="MKLBNFHE_00265" class="clusterblast-orf" id="dummy-1_q4_0_all"  />
<polygon points="116,35 121,30 135,30 135,40 121,40 116,35 " style="fill:#d84215; stroke-width:1; stroke:black; " description="&lt;b&gt;MKLBNFHE_00266&lt;/b&gt;&lt;br&gt;hypothetical protein&lt;br&gt;Location: 292047 - 293301" locus_tag="MKLBNFHE_00266" class="clusterblast-orf" id="dummy-1_q5_0_all"  />
<polygon points="135,35 140,30 150,30 150,40 140,40 135,35 " style="fill:#33d815; stroke-width:1; stroke:black; " description="&lt;b&gt;MKLBNFHE_00267&lt;/b&gt;&lt;br&gt;hypothetical protein&lt;br&gt;Location: 293310 - 294288" locus_tag="MKLBNFHE_00267" class="clusterblast-orf" id="dummy-1_q6_0_all"  />
<polygon points="156,40 167,40 172,35 167,30 156,30 156,40 " style="fill:#157ed8; stroke-width:1; stroke:black; " description="&lt;b&gt;MKLBNFHE_00268&lt;/b&gt;&lt;br&gt;hypothetical protein&lt;br&gt;Location: 294631 - 295675" locus_tag="MKLBNFHE_00268" class="clusterblast-orf" id="dummy-1_q7_0_all"  />
<polygon points="172,35 177,30 183,30 183,40 177,40 172,35 " style="fill:#ba15d8; stroke-width:1; stroke:black; " description="&lt;b&gt;MKLBNFHE_00269&lt;/b&gt;&lt;br&gt;N-acetylglucosaminyldiphosphoundecaprenol N-acetyl-beta-D-mannosaminyltransferase&lt;br&gt;Location: 295688 - 296441" locus_tag="MKLBNFHE_00269" class="clusterblast-orf" id="dummy-1_q8_0_all"  />
<polygon points="187,40 203,40 208,35 203,30 187,30 187,40 " style="fill:#d86f15; stroke-width:1; stroke:black; " description="&lt;b&gt;MKLBNFHE_00270&lt;/b&gt;&lt;br&gt;hypothetical protein&lt;br&gt;Location: 296679 - 298077" locus_tag="MKLBNFHE_00270" class="clusterblast-orf" id="dummy-1_q9_0_all"  />
<polygon points="215,35 220,30 288,30 288,40 220,40 215,35 " style="fill:white; stroke-width:1; stroke:black; " description="&lt;b&gt;MKLBNFHE_00271&lt;/b&gt;&lt;br&gt;hypothetical protein&lt;br&gt;Location: 298490 - 303326" locus_tag="MKLBNFHE_00271" class="clusterblast-orf" id="dummy-1_q10_0_all"  />
<polygon points="292,35 297,30 302,30 302,40 297,40 292,35 " style="fill:white; stroke-width:1; stroke:black; " description="&lt;b&gt;MKLBNFHE_00272&lt;/b&gt;&lt;br&gt;hypothetical protein&lt;br&gt;Location: 303548 - 304193" locus_tag="MKLBNFHE_00272" class="clusterblast-orf" id="dummy-1_q11_0_all"  />
<polygon points="325,40 330,40 335,35 330,30 325,30 325,40 " style="fill:#15d824; stroke-width:1; stroke:black; " description="&lt;b&gt;MKLBNFHE_00273&lt;/b&gt;&lt;br&gt;hypothetical protein&lt;br&gt;Location: 305742 - 306405" locus_tag="MKLBNFHE_00273" class="clusterblast-orf" id="dummy-1_q12_0_all"  />
<polygon points="335,40 346,40 351,35 346,30 335,30 335,40 " style="fill:#1551d8; stroke-width:1; stroke:black; " description="&lt;b&gt;MKLBNFHE_00274&lt;/b&gt;&lt;br&gt;hypothetical protein&lt;br&gt;Location: 306401 - 307430" locus_tag="MKLBNFHE_00274" class="clusterblast-orf" id="dummy-1_q13_0_all"  />
<polygon points="351,40 416,40 421,35 416,30 351,30 351,40 " style="fill:#d815c9; stroke-width:1; stroke:black; " description="&lt;b&gt;MKLBNFHE_00275&lt;/b&gt;&lt;br&gt;D-alanine--D-alanyl carrier protein ligase&lt;br&gt;Location: 307431 - 312033" locus_tag="MKLBNFHE_00275" class="clusterblast-orf" id="dummy-1_q14_0_all"  />
<polygon points="421,40 426,40 431,35 426,30 421,30 421,40 " style="fill:#d89c15; stroke-width:1; stroke:black; " description="&lt;b&gt;MKLBNFHE_00276&lt;/b&gt;&lt;br&gt;hypothetical protein&lt;br&gt;Location: 312025 - 312655" locus_tag="MKLBNFHE_00276" class="clusterblast-orf" id="dummy-1_q15_0_all"  />
<polygon points="431,35 434,30 434,40 431,35 " style="fill:#15d851; stroke-width:1; stroke:black; " description="&lt;b&gt;MKLBNFHE_00277&lt;/b&gt;&lt;br&gt;hypothetical protein&lt;br&gt;Location: 312661 - 312895" locus_tag="MKLBNFHE_00277" class="clusterblast-orf" id="dummy-1_q16_0_all"  />
<polygon points="434,35 439,30 447,30 447,40 439,40 434,35 " style="fill:#1524d8; stroke-width:1; stroke:black; " description="&lt;b&gt;MKLBNFHE_00278&lt;/b&gt;&lt;br&gt;Sulfur carrier protein FdhD&lt;br&gt;Location: 312884 - 313703" locus_tag="MKLBNFHE_00278" class="clusterblast-orf" id="dummy-1_q17_0_all"  />
<polygon points="447,35 452,30 491,30 491,40 452,40 447,35 " style="fill:#d8159c; stroke-width:1; stroke:black; " description="&lt;b&gt;MKLBNFHE_00279&lt;/b&gt;&lt;br&gt;Putative formate dehydrogenase&lt;br&gt;Location: 313716 - 316623" locus_tag="MKLBNFHE_00279" class="clusterblast-orf" id="dummy-1_q18_0_all"  />
<polygon points="491,35 493,30 493,40 491,35 " style="fill:white; stroke-width:1; stroke:black; " description="&lt;b&gt;MKLBNFHE_00280&lt;/b&gt;&lt;br&gt;hypothetical protein&lt;br&gt;Location: 316619 - 316736" locus_tag="MKLBNFHE_00280" class="clusterblast-orf" id="dummy-1_q19_0_all"  />
<polygon points="493,35 498,30 516,30 516,40 498,40 493,35 " style="fill:#d8c915; stroke-width:1; stroke:black; " description="&lt;b&gt;MKLBNFHE_00281&lt;/b&gt;&lt;br&gt;NADP-reducing hydrogenase subunit HndC&lt;br&gt;Location: 316732 - 318253" locus_tag="MKLBNFHE_00281" class="clusterblast-orf" id="dummy-1_q20_0_all"  />
<polygon points="516,35 521,30 523,30 523,40 521,40 516,35 " style="fill:#15d87e; stroke-width:1; stroke:black; " description="&lt;b&gt;MKLBNFHE_00282&lt;/b&gt;&lt;br&gt;NADP-reducing hydrogenase subunit HndA&lt;br&gt;Location: 318252 - 318720" locus_tag="MKLBNFHE_00282" class="clusterblast-orf" id="dummy-1_q21_0_all"  />
<polygon points="526,35 531,30 539,30 539,40 531,40 526,35 " style="fill:#3315d8; stroke-width:1; stroke:black; " description="&lt;b&gt;MKLBNFHE_00283&lt;/b&gt;&lt;br&gt;Hydrogen peroxide-inducible genes activator&lt;br&gt;Location: 318896 - 319784" locus_tag="MKLBNFHE_00283" class="clusterblast-orf" id="dummy-1_q22_0_all"  />
<polygon points="542,35 547,30 564,30 564,40 547,40 542,35 " style="fill:white; stroke-width:1; stroke:black; " description="&lt;b&gt;MKLBNFHE_00284&lt;/b&gt;&lt;br&gt;hypothetical protein&lt;br&gt;Location: 319971 - 321408" locus_tag="MKLBNFHE_00284" class="clusterblast-orf" id="dummy-1_q23_0_all"  />
<polygon points="567,40 579,40 584,35 579,30 567,30 567,40 " style="fill:#d8156f; stroke-width:1; stroke:black; " description="&lt;b&gt;MKLBNFHE_00285&lt;/b&gt;&lt;br&gt;hypothetical protein&lt;br&gt;Location: 321614 - 322685" locus_tag="MKLBNFHE_00285" class="clusterblast-orf" id="dummy-1_q24_0_all"  />
<polygon points="584,40 588,35 584,30 584,40 " style="fill:#bad815; stroke-width:1; stroke:black; " description="&lt;b&gt;MKLBNFHE_00286&lt;/b&gt;&lt;br&gt;hypothetical protein&lt;br&gt;Location: 322681 - 322936" locus_tag="MKLBNFHE_00286" class="clusterblast-orf" id="dummy-1_q25_0_all"  />
<polygon points="587,40 600,40 605,35 600,30 587,30 587,40 " style="fill:#15d8ab; stroke-width:1; stroke:black; " description="&lt;b&gt;MKLBNFHE_00287&lt;/b&gt;&lt;br&gt;hypothetical protein&lt;br&gt;Location: 322928 - 324053" locus_tag="MKLBNFHE_00287" class="clusterblast-orf" id="dummy-1_q26_0_all"  />
<polygon points="607,40 631,40 636,35 631,30 607,30 607,40 " style="fill:#6015d8; stroke-width:1; stroke:black; " description="&lt;b&gt;MKLBNFHE_00288&lt;/b&gt;&lt;br&gt;hypothetical protein&lt;br&gt;Location: 324197 - 326126" locus_tag="MKLBNFHE_00288" class="clusterblast-orf" id="dummy-1_q27_0_all"  />
<polygon points="636,40 637,40 642,35 637,30 636,30 636,40 " style="fill:white; stroke-width:1; stroke:black; " description="&lt;b&gt;MKLBNFHE_00289&lt;/b&gt;&lt;br&gt;hypothetical protein&lt;br&gt;Location: 326125 - 326473" locus_tag="MKLBNFHE_00289" class="clusterblast-orf" id="dummy-1_q28_0_all"  />
<polygon points="642,40 657,40 662,35 657,30 642,30 642,40 " style="fill:#d81542; stroke-width:1; stroke:black; " description="&lt;b&gt;MKLBNFHE_00290&lt;/b&gt;&lt;br&gt;hypothetical protein&lt;br&gt;Location: 326469 - 327843" locus_tag="MKLBNFHE_00290" class="clusterblast-orf" id="dummy-1_q29_0_all"  />
<polygon points="663,40 667,35 663,30 663,40 " style="fill:#8dd815; stroke-width:1; stroke:black; " description="&lt;b&gt;MKLBNFHE_00291&lt;/b&gt;&lt;br&gt;hypothetical protein&lt;br&gt;Location: 327887 - 328157" locus_tag="MKLBNFHE_00291" class="clusterblast-orf" id="dummy-1_q30_0_all"  />
<polygon points="667,40 673,40 678,35 673,30 667,30 667,40 " style="fill:#15d8d8; stroke-width:1; stroke:black; " description="&lt;b&gt;MKLBNFHE_00292&lt;/b&gt;&lt;br&gt;hypothetical protein&lt;br&gt;Location: 328161 - 328833" locus_tag="MKLBNFHE_00292" class="clusterblast-orf" id="dummy-1_q31_0_all"  />
<polygon points="679,35 684,30 685,30 685,40 684,40 679,35 " style="fill:white; stroke-width:1; stroke:black; " description="&lt;b&gt;MKLBNFHE_00293&lt;/b&gt;&lt;br&gt;hypothetical protein&lt;br&gt;Location: 328898 - 329300" locus_tag="MKLBNFHE_00293" class="clusterblast-orf" id="dummy-1_q32_0_all"  />
<polygon points="694,35 699,30 699,30 699,40 699,40 694,35 " style="fill:white; stroke-width:1; stroke:black; " description="&lt;b&gt;MKLBNFHE_00294&lt;/b&gt;&lt;br&gt;hypothetical protein&lt;br&gt;Location: 329914 - 330226" locus_tag="MKLBNFHE_00294" class="clusterblast-orf" id="dummy-1_q33_0_all"  />
<polygon points="702,35 707,30 719,30 719,40 707,40 702,35 " style="fill:white; stroke-width:1; stroke:black; " description="&lt;b&gt;MKLBNFHE_00295&lt;/b&gt;&lt;br&gt;hypothetical protein&lt;br&gt;Location: 330410 - 331574" locus_tag="MKLBNFHE_00295" class="clusterblast-orf" id="dummy-1_q34_0_all"  />
</g>
<g label="NZ_VKKX01000033" description="NZ_VKKX01000033 (377101-428527): Gemmobacter caeruleus strain N8 NODE 3, whol... (26% of genes show similarity), NRPS-like,T1PKS" class="clusterblast-cluster"  >
<text x="5" y="70" class="clusterblast-acc"  >
<a xlink:href="https://antismash-db.secondarymetabolites.org/area.html?record=NZ_VKKX01000033&amp;start=377101&amp;end=428527" target="_blank">NZ_VKKX01000033 (377101-428527)</a>: Gemmobacter caeruleus strain N8 NODE 3, whol... (26% of genes show similarity), NRPS-like,T1PKS</text>
<line x1="10" y1="85" x2="778.0" y2="85" style="stroke-width:1; stroke:grey; "  />
</g>
<g id="a1_000"  >
<polygon points="0,85 5,80 15,80 15,90 5,90 0,85 " style="fill:white; stroke-width:1; stroke:black; " description="&lt;b&gt;FOA17_RS12515&lt;/b&gt;&lt;br&gt;hypothetical protein&lt;br&gt;Location: 377418 - 378452" locus_tag="FOA17_RS12515" class="clusterblast-orf" id="dummy-1_h1_4_0"  />
</g>
<g id="a1_001"  >
<polygon points="17,90 25,90 30,85 25,80 17,80 17,90 " style="fill:white; stroke-width:1; stroke:black; " description="&lt;b&gt;FOA17_RS12520&lt;/b&gt;&lt;br&gt;phosphoserine phosphatase SerB&lt;br&gt;Location: 378568 - 379443" locus_tag="FOA17_RS12520" class="clusterblast-orf" id="dummy-1_h1_4_1"  />
</g>
<g id="a1_002"  >
<polygon points="30,90 33,90 38,85 33,80 30,80 30,90 " style="fill:white; stroke-width:1; stroke:black; " description="&lt;b&gt;FOA17_RS12525&lt;/b&gt;&lt;br&gt;GNAT family N-acetyltransferase&lt;br&gt;Location: 379440 - 379919" locus_tag="FOA17_RS12525" class="clusterblast-orf" id="dummy-1_h1_4_2"  />
</g>
<g id="a1_003"  >
<polygon points="38,90 44,90 49,85 44,80 38,80 38,90 " style="fill:white; stroke-width:1; stroke:black; " description="&lt;b&gt;FOA17_RS12530&lt;/b&gt;&lt;br&gt;TSUP family transporter&lt;br&gt;Location: 379919 - 380677" locus_tag="FOA17_RS12530" class="clusterblast-orf" id="dummy-1_h1_4_3"  />
</g>
<g id="a1_004"  >
<polygon points="50,90 59,90 64,85 59,80 50,80 50,90 " style="fill:white; stroke-width:1; stroke:black; " description="&lt;b&gt;FOA17_RS12535&lt;/b&gt;&lt;br&gt;hypothetical protein&lt;br&gt;Location: 380749 - 381666" locus_tag="FOA17_RS12535" class="clusterblast-orf" id="dummy-1_h1_4_4"  />
</g>
<g id="a1_005"  >
<polygon points="65,90 97,90 102,85 97,80 65,80 65,90 " style="fill:white; stroke-width:1; stroke:black; " description="&lt;b&gt;FOA17_RS12540&lt;/b&gt;&lt;br&gt;hypothetical protein&lt;br&gt;Location: 381679 - 384114" locus_tag="FOA17_RS12540" class="clusterblast-orf" id="dummy-1_h1_4_5"  />
</g>
<g id="a1_006"  >
<polygon points="102,90 109,90 114,85 109,80 102,80 102,90 " style="fill:white; stroke-width:1; stroke:black; " description="&lt;b&gt;FOA17_RS12545&lt;/b&gt;&lt;br&gt;glycosyltransferase&lt;br&gt;Location: 384108 - 384932" locus_tag="FOA17_RS12545" class="clusterblast-orf" id="dummy-1_h1_4_6"  />
</g>
<g id="a1_007"  >
<polygon points="116,85 121,80 127,80 127,90 121,90 116,85 " style="fill:white; stroke-width:1; stroke:black; " description="&lt;b&gt;FOA17_RS12550&lt;/b&gt;&lt;br&gt;hypothetical protein&lt;br&gt;Location: 385027 - 385803" locus_tag="FOA17_RS12550" class="clusterblast-orf" id="dummy-1_h1_4_7"  />
</g>
<g id="a1_008"  >
<polygon points="127,85 132,80 146,80 146,90 132,90 127,85 " style="fill:white; stroke-width:1; stroke:black; " description="&lt;b&gt;FOA17_RS12555&lt;/b&gt;&lt;br&gt;glycosyltransferase&lt;br&gt;Location: 385803 - 386993" locus_tag="FOA17_RS12555" class="clusterblast-orf" id="dummy-1_h1_4_8"  />
</g>
<g id="a1_009"  >
<polygon points="147,90 163,90 168,85 163,80 147,80 147,90 " style="fill:white; stroke-width:1; stroke:black; " description="&lt;b&gt;FOA17_RS12560&lt;/b&gt;&lt;br&gt;oligosaccharide flippase family protein&lt;br&gt;Location: 387108 - 388442" locus_tag="FOA17_RS12560" class="clusterblast-orf" id="dummy-1_h1_4_9"  />
</g>
<g id="a1_0010"  >
<polygon points="170,90 173,85 170,80 170,90 " style="fill:white; stroke-width:1; stroke:black; " description="&lt;b&gt;FOA17_RS12565&lt;/b&gt;&lt;br&gt;hypothetical protein&lt;br&gt;Location: 388580 - 388783" locus_tag="FOA17_RS12565" class="clusterblast-orf" id="dummy-1_h1_4_10"  />
</g>
<g id="a1_0011"  >
<polygon points="181,90 186,90 191,85 186,80 181,80 181,90 " style="fill:#8d15d8; stroke-width:1; stroke:black; " description="&lt;b&gt;FOA17_RS12570&lt;/b&gt;&lt;br&gt;sugar transferase&lt;br&gt;Location: 389298 - 389948&lt;br&gt;&lt;br&gt;&lt;b&gt;BlastP hit with MKLBNFHE_00264&lt;/b&gt;&lt;br&gt;Percentage identity: 74&lt;br&gt;Percentage coverage: 85&lt;br&gt;BLAST bit score: 309&lt;br&gt;E-value: 1.02e-105" locus_tag="FOA17_RS12570" class="clusterblast-orf" id="dummy-1_h1_4_11"  />
</g>
<g id="a1_0012"  >
<polygon points="192,85 197,80 211,80 211,90 197,90 192,85 " style="fill:#d84215; stroke-width:1; stroke:black; " description="&lt;b&gt;FOA17_RS12575&lt;/b&gt;&lt;br&gt;DUF874 domain-containing protein&lt;br&gt;Location: 390018 - 391289&lt;br&gt;&lt;br&gt;&lt;b&gt;BlastP hit with MKLBNFHE_00266&lt;/b&gt;&lt;br&gt;Percentage identity: 35&lt;br&gt;Percentage coverage: 97&lt;br&gt;BLAST bit score: 222&lt;br&gt;E-value: 2.47e-66" locus_tag="FOA17_RS12575" class="clusterblast-orf" id="dummy-1_h1_4_12"  />
</g>
<g id="a1_0013"  >
<polygon points="211,85 216,80 225,80 225,90 216,90 211,85 " style="fill:#33d815; stroke-width:1; stroke:black; " description="&lt;b&gt;FOA17_RS12580&lt;/b&gt;&lt;br&gt;P-loop NTPase&lt;br&gt;Location: 391296 - 392177&lt;br&gt;&lt;br&gt;&lt;b&gt;BlastP hit with MKLBNFHE_00267&lt;/b&gt;&lt;br&gt;Percentage identity: 51&lt;br&gt;Percentage coverage: 83&lt;br&gt;BLAST bit score: 243&lt;br&gt;E-value: 3.91e-77" locus_tag="FOA17_RS12580" class="clusterblast-orf" id="dummy-1_h1_4_13"  />
</g>
<g id="a1_0014"  >
<polygon points="230,90 240,90 245,85 240,80 230,80 230,90 " style="fill:#157ed8; stroke-width:1; stroke:black; " description="&lt;b&gt;FOA17_RS12585&lt;/b&gt;&lt;br&gt;glycosyltransferase&lt;br&gt;Location: 392527 - 393483&lt;br&gt;&lt;br&gt;&lt;b&gt;BlastP hit with MKLBNFHE_00268&lt;/b&gt;&lt;br&gt;Percentage identity: 65&lt;br&gt;Percentage coverage: 93&lt;br&gt;BLAST bit score: 396&lt;br&gt;E-value: 7.47e-137" locus_tag="FOA17_RS12585" class="clusterblast-orf" id="dummy-1_h1_4_14"  />
</g>
<g id="a1_0015"  >
<polygon points="245,85 250,80 256,80 256,90 250,90 245,85 " style="fill:#ba15d8; stroke-width:1; stroke:black; " description="&lt;b&gt;FOA17_RS12590&lt;/b&gt;&lt;br&gt;WecB/TagA/CpsF family glycosyltransferase&lt;br&gt;Location: 393497 - 394246&lt;br&gt;&lt;br&gt;&lt;b&gt;BlastP hit with MKLBNFHE_00269&lt;/b&gt;&lt;br&gt;Percentage identity: 58&lt;br&gt;Percentage coverage: 99&lt;br&gt;BLAST bit score: 276&lt;br&gt;E-value: 3.14e-92" locus_tag="FOA17_RS12590" class="clusterblast-orf" id="dummy-1_h1_4_15"  />
</g>
<g id="a1_0016"  >
<polygon points="261,90 277,90 282,85 277,80 261,80 261,90 " style="fill:#d86f15; stroke-width:1; stroke:black; " description="&lt;b&gt;FOA17_RS12595&lt;/b&gt;&lt;br&gt;hypothetical protein&lt;br&gt;Location: 394527 - 395909&lt;br&gt;&lt;br&gt;&lt;b&gt;BlastP hit with MKLBNFHE_00270&lt;/b&gt;&lt;br&gt;Percentage identity: 53&lt;br&gt;Percentage coverage: 94&lt;br&gt;BLAST bit score: 424&lt;br&gt;E-value: 8.46e-144" locus_tag="FOA17_RS12595" class="clusterblast-orf" id="dummy-1_h1_4_16"  />
</g>
<g id="a1_0017"  >
<polygon points="282,90 292,90 297,85 292,80 282,80 282,90 " style="fill:white; stroke-width:1; stroke:black; " description="&lt;b&gt;FOA17_RS12600&lt;/b&gt;&lt;br&gt;glycosyltransferase&lt;br&gt;Location: 395919 - 396908" locus_tag="FOA17_RS12600" class="clusterblast-orf" id="dummy-1_h1_4_17"  />
</g>
<g id="a1_0018"  >
<polygon points="300,90 392,90 397,85 392,80 300,80 300,90 " style="fill:#15d824; stroke-width:1; stroke:black; " description="&lt;b&gt;FOA17_RS12605&lt;/b&gt;&lt;br&gt;KR domain-containing protein&lt;br&gt;Location: 397102 - 403491&lt;br&gt;&lt;br&gt;&lt;b&gt;BlastP hit with MKLBNFHE_00273&lt;/b&gt;&lt;br&gt;Percentage identity: 70&lt;br&gt;Percentage coverage: 88&lt;br&gt;BLAST bit score: 264&lt;br&gt;E-value: 1.85e-79" locus_tag="FOA17_RS12605" class="clusterblast-orf" id="dummy-1_h1_4_18"  />
</g>
<g id="a1_0019"  >
<polygon points="397,90 408,90 413,85 408,80 397,80 397,90 " style="fill:#1551d8; stroke-width:1; stroke:black; " description="&lt;b&gt;FOA17_RS12610&lt;/b&gt;&lt;br&gt;glycosyltransferase&lt;br&gt;Location: 403488 - 404492&lt;br&gt;&lt;br&gt;&lt;b&gt;BlastP hit with MKLBNFHE_00274&lt;/b&gt;&lt;br&gt;Percentage identity: 74&lt;br&gt;Percentage coverage: 94&lt;br&gt;BLAST bit score: 468&lt;br&gt;E-value: 8.25e-165" locus_tag="FOA17_RS12610" class="clusterblast-orf" id="dummy-1_h1_4_19"  />
</g>
<g id="a1_0020"  >
<polygon points="413,90 477,90 482,85 477,80 413,80 413,90 " style="fill:#d815c9; stroke-width:1; stroke:black; " description="&lt;b&gt;FOA17_RS12615&lt;/b&gt;&lt;br&gt;LLM class flavin-dependent oxidoreductase&lt;br&gt;Location: 404529 - 409043&lt;br&gt;&lt;br&gt;&lt;b&gt;BlastP hit with MKLBNFHE_00275&lt;/b&gt;&lt;br&gt;Percentage identity: 63&lt;br&gt;Percentage coverage: 98&lt;br&gt;BLAST bit score: 1738&lt;br&gt;E-value: 0.0" locus_tag="FOA17_RS12615" class="clusterblast-orf" id="dummy-1_h1_4_20"  />
</g>
<g id="a1_0021"  >
<polygon points="482,90 487,90 492,85 487,80 482,80 482,90 " style="fill:#d89c15; stroke-width:1; stroke:black; " description="&lt;b&gt;FOA17_RS12620&lt;/b&gt;&lt;br&gt;4'-phosphopantetheinyl transferase superfamily protein&lt;br&gt;Location: 409036 - 409662&lt;br&gt;&lt;br&gt;&lt;b&gt;BlastP hit with MKLBNFHE_00276&lt;/b&gt;&lt;br&gt;Percentage identity: 46&lt;br&gt;Percentage coverage: 101&lt;br&gt;BLAST bit score: 147&lt;br&gt;E-value: 1.39e-42" locus_tag="FOA17_RS12620" class="clusterblast-orf" id="dummy-1_h1_4_21"  />
</g>
<g id="a1_0022"  >
<polygon points="492,90 504,90 509,85 504,80 492,80 492,90 " style="fill:white; stroke-width:1; stroke:black; " description="&lt;b&gt;FOA17_RS12625&lt;/b&gt;&lt;br&gt;cell division protein ZapE&lt;br&gt;Location: 409699 - 410778" locus_tag="FOA17_RS12625" class="clusterblast-orf" id="dummy-1_h1_4_22"  />
</g>
<g id="a1_0023"  >
<polygon points="510,90 529,90 534,85 529,80 510,80 510,90 " style="fill:white; stroke-width:1; stroke:black; " description="&lt;b&gt;FOA17_RS12630&lt;/b&gt;&lt;br&gt;mucoidy inhibitor MuiA family protein&lt;br&gt;Location: 410838 - 412448" locus_tag="FOA17_RS12630" class="clusterblast-orf" id="dummy-1_h1_4_23"  />
</g>
<g id="a1_0024"  >
<polygon points="534,85 539,80 544,80 544,90 539,90 534,85 " style="fill:white; stroke-width:1; stroke:black; " description="&lt;b&gt;FOA17_RS12635&lt;/b&gt;&lt;br&gt;carbonic anhydrase&lt;br&gt;Location: 412458 - 413105" locus_tag="FOA17_RS12635" class="clusterblast-orf" id="dummy-1_h1_4_24"  />
</g>
<g id="a1_0025"  >
<polygon points="546,90 547,90 552,85 547,80 546,80 546,90 " style="fill:white; stroke-width:1; stroke:black; " description="&lt;b&gt;FOA17_RS12640&lt;/b&gt;&lt;br&gt;hypothetical protein&lt;br&gt;Location: 413245 - 413625" locus_tag="FOA17_RS12640" class="clusterblast-orf" id="dummy-1_h1_4_25"  />
</g>
<g id="a1_0026"  >
<polygon points="553,90 569,90 574,85 569,80 553,80 553,90 " style="fill:white; stroke-width:1; stroke:black; " description="&lt;b&gt;FOA17_RS12645&lt;/b&gt;&lt;br&gt;leucyl aminopeptidase family protein&lt;br&gt;Location: 413682 - 415058" locus_tag="FOA17_RS12645" class="clusterblast-orf" id="dummy-1_h1_4_26"  />
</g>
<g id="a1_0027"  >
<polygon points="574,90 582,90 587,85 582,80 574,80 574,90 " style="fill:white; stroke-width:1; stroke:black; " description="&lt;b&gt;FOA17_RS12650&lt;/b&gt;&lt;br&gt;NlpC/P60 family protein&lt;br&gt;Location: 415061 - 415885" locus_tag="FOA17_RS12650" class="clusterblast-orf" id="dummy-1_h1_4_27"  />
</g>
<g id="a1_0028"  >
<polygon points="588,90 594,90 599,85 594,80 588,80 588,90 " style="fill:white; stroke-width:1; stroke:black; " description="&lt;b&gt;FOA17_RS12655&lt;/b&gt;&lt;br&gt;NAD(P)-binding domain-containing protein&lt;br&gt;Location: 415960 - 416721" locus_tag="FOA17_RS12655" class="clusterblast-orf" id="dummy-1_h1_4_28"  />
</g>
<g id="a1_0029"  >
<polygon points="600,85 605,80 652,80 652,90 605,90 600,85 " style="fill:white; stroke-width:1; stroke:black; " description="&lt;b&gt;FOA17_RS12660&lt;/b&gt;&lt;br&gt;bifunctional proline dehydrogenase/L-glutamate gamma-semialdehyde dehydrogenase PutA&lt;br&gt;Location: 416740 - 420144" locus_tag="FOA17_RS12660" class="clusterblast-orf" id="dummy-1_h1_4_29"  />
</g>
<g id="a1_0030"  >
<polygon points="653,90 655,90 660,85 655,80 653,80 653,90 " style="fill:white; stroke-width:1; stroke:black; " description="&lt;b&gt;FOA17_RS12665&lt;/b&gt;&lt;br&gt;winged helix-turn-helix transcriptional regulator&lt;br&gt;Location: 420255 - 420719" locus_tag="FOA17_RS12665" class="clusterblast-orf" id="dummy-1_h1_4_30"  />
</g>
<g id="a1_0031"  >
<polygon points="662,90 669,90 674,85 669,80 662,80 662,90 " style="fill:white; stroke-width:1; stroke:black; " description="&lt;b&gt;FOA17_RS12670&lt;/b&gt;&lt;br&gt;trehalose utilization protein ThuA&lt;br&gt;Location: 420839 - 421624" locus_tag="FOA17_RS12670" class="clusterblast-orf" id="dummy-1_h1_4_31"  />
</g>
<g id="a1_0032"  >
<polygon points="674,90 685,90 690,85 685,80 674,80 674,90 " style="fill:white; stroke-width:1; stroke:black; " description="&lt;b&gt;FOA17_RS12675&lt;/b&gt;&lt;br&gt;Gfo/Idh/MocA family oxidoreductase&lt;br&gt;Location: 421627 - 422673" locus_tag="FOA17_RS12675" class="clusterblast-orf" id="dummy-1_h1_4_32"  />
</g>
<g id="a1_0033"  >
<polygon points="690,90 703,90 708,85 703,80 690,80 690,90 " style="fill:white; stroke-width:1; stroke:black; " description="&lt;b&gt;FOA17_RS12680&lt;/b&gt;&lt;br&gt;Gfo/Idh/MocA family oxidoreductase&lt;br&gt;Location: 422687 - 423835" locus_tag="FOA17_RS12680" class="clusterblast-orf" id="dummy-1_h1_4_33"  />
</g>
<g id="a1_0034"  >
<polygon points="708,85 713,80 719,80 719,90 713,90 708,85 " style="fill:white; stroke-width:1; stroke:black; " description="&lt;b&gt;FOA17_RS12685&lt;/b&gt;&lt;br&gt;RES domain-containing protein&lt;br&gt;Location: 423844 - 424536" locus_tag="FOA17_RS12685" class="clusterblast-orf" id="dummy-1_h1_4_34"  />
</g>
<g id="a1_0035"  >
<polygon points="719,85 724,80 724,80 724,90 724,90 719,85 " style="fill:white; stroke-width:1; stroke:black; " description="&lt;b&gt;FOA17_RS12690&lt;/b&gt;&lt;br&gt;DUF2384 domain-containing protein&lt;br&gt;Location: 424533 - 424922" locus_tag="FOA17_RS12690" class="clusterblast-orf" id="dummy-1_h1_4_35"  />
</g>
<g id="a1_0036"  >
<polygon points="725,85 730,80 766,80 766,90 730,90 725,85 " style="fill:white; stroke-width:1; stroke:black; " description="&lt;b&gt;FOA17_RS12695&lt;/b&gt;&lt;br&gt;calcium-binding protein&lt;br&gt;Location: 424984 - 427650" locus_tag="FOA17_RS12695" class="clusterblast-orf" id="dummy-1_h1_4_36"  />
</g>
<g id="a1_0037"  >
<polygon points="768,85 773,80 780,80 780,90 773,90 768,85 " style="fill:white; stroke-width:1; stroke:black; " description="&lt;b&gt;FOA17_RS12700&lt;/b&gt;&lt;br&gt;helix-turn-helix domain-containing protein&lt;br&gt;Location: 427742 - 428527" locus_tag="FOA17_RS12700" class="clusterblast-orf" id="dummy-1_h1_4_37"  />
</g>
</svg>
