<svg xmlns="http://www.w3.org/2000/svg" xmlns:xlink="http://www.w3.org/1999/xlink" version="1.1" x="0" y="0" height="230" width="800" viewBox="0 0 800 230" preserveAspectRatio="none"  >
<g label="Query sequence" class="clusterblast-cluster"  >
<text x="5" y="20" class="clusterblast-acc"  >
Query sequence</text>
<line x1="10" y1="35" x2="778.0" y2="35" style="stroke-width:1; stroke:grey; "  />
<polygon points="7,40 43,40 48,35 43,30 7,30 7,40 " style="fill:white; stroke-width:1; stroke:black; " description="&lt;b&gt;PADFOAJF_03463&lt;/b&gt;&lt;br&gt;DNA mismatch repair protein MutS&lt;br&gt;Location: 163529 - 166193" locus_tag="PADFOAJF_03463" class="clusterblast-orf" id="dummy-1_q0_0_all"  />
<polygon points="50,35 55,30 58,30 58,40 55,40 50,35 " style="fill:white; stroke-width:1; stroke:black; " description="&lt;b&gt;PADFOAJF_03464&lt;/b&gt;&lt;br&gt;Protein GrpE&lt;br&gt;Location: 166281 - 166833" locus_tag="PADFOAJF_03464" class="clusterblast-orf" id="dummy-1_q1_0_all"  />
<polygon points="58,35 63,30 75,30 75,40 63,40 58,35 " style="fill:white; stroke-width:1; stroke:black; " description="&lt;b&gt;PADFOAJF_03465&lt;/b&gt;&lt;br&gt;Heat-inducible transcription repressor HrcA&lt;br&gt;Location: 166845 - 167913" locus_tag="PADFOAJF_03465" class="clusterblast-orf" id="dummy-1_q2_0_all"  />
<polygon points="76,40 82,40 87,35 82,30 76,30 76,40 " style="fill:white; stroke-width:1; stroke:black; " description="&lt;b&gt;PADFOAJF_03466&lt;/b&gt;&lt;br&gt;Ribonuclease PH&lt;br&gt;Location: 168006 - 168717" locus_tag="PADFOAJF_03466" class="clusterblast-orf" id="dummy-1_q3_0_all"  />
<polygon points="87,40 92,40 97,35 92,30 87,30 87,40 " style="fill:white; stroke-width:1; stroke:black; " description="&lt;b&gt;PADFOAJF_03467&lt;/b&gt;&lt;br&gt;dITP/XTP pyrophosphatase&lt;br&gt;Location: 168713 - 169313" locus_tag="PADFOAJF_03467" class="clusterblast-orf" id="dummy-1_q4_0_all"  />
<polygon points="97,40 110,40 115,35 110,30 97,30 97,40 " style="fill:white; stroke-width:1; stroke:black; " description="&lt;b&gt;PADFOAJF_03468&lt;/b&gt;&lt;br&gt;Heme chaperone HemW&lt;br&gt;Location: 169309 - 170473" locus_tag="PADFOAJF_03468" class="clusterblast-orf" id="dummy-1_q5_0_all"  />
<polygon points="115,35 120,30 129,30 129,40 120,40 115,35 " style="fill:white; stroke-width:1; stroke:black; " description="&lt;b&gt;PADFOAJF_03469&lt;/b&gt;&lt;br&gt;Chromosome-partitioning protein ParB&lt;br&gt;Location: 170479 - 171391" locus_tag="PADFOAJF_03469" class="clusterblast-orf" id="dummy-1_q6_0_all"  />
<polygon points="129,35 134,30 141,30 141,40 134,40 129,35 " style="fill:white; stroke-width:1; stroke:black; " description="&lt;b&gt;PADFOAJF_03470&lt;/b&gt;&lt;br&gt;Chromosome partitioning protein ParA&lt;br&gt;Location: 171392 - 172181" locus_tag="PADFOAJF_03470" class="clusterblast-orf" id="dummy-1_q7_0_all"  />
<polygon points="141,35 146,30 148,30 148,40 146,40 141,35 " style="fill:white; stroke-width:1; stroke:black; " description="&lt;b&gt;PADFOAJF_03471&lt;/b&gt;&lt;br&gt;Ribosomal RNA small subunit methyltransferase G&lt;br&gt;Location: 172183 - 172603" locus_tag="PADFOAJF_03471" class="clusterblast-orf" id="dummy-1_q8_0_all"  />
<polygon points="151,35 156,30 181,30 181,40 156,40 151,35 " style="fill:white; stroke-width:1; stroke:black; " description="&lt;b&gt;PADFOAJF_03472&lt;/b&gt;&lt;br&gt;tRNA uridine 5-carboxymethylaminomethyl modification enzyme MnmG&lt;br&gt;Location: 172796 - 174725" locus_tag="PADFOAJF_03472" class="clusterblast-orf" id="dummy-1_q9_0_all"  />
<polygon points="180,35 185,30 200,30 200,40 185,40 180,35 " style="fill:white; stroke-width:1; stroke:black; " description="&lt;b&gt;PADFOAJF_03473&lt;/b&gt;&lt;br&gt;tRNA modification GTPase MnmE&lt;br&gt;Location: 174681 - 175959" locus_tag="PADFOAJF_03473" class="clusterblast-orf" id="dummy-1_q10_0_all"  />
<polygon points="200,35 205,30 220,30 220,40 205,40 200,35 " style="fill:white; stroke-width:1; stroke:black; " description="&lt;b&gt;PADFOAJF_03474&lt;/b&gt;&lt;br&gt;Transcription termination factor Rho&lt;br&gt;Location: 175983 - 177255" locus_tag="PADFOAJF_03474" class="clusterblast-orf" id="dummy-1_q11_0_all"  />
<polygon points="228,40 232,40 237,35 232,30 228,30 228,40 " style="fill:white; stroke-width:1; stroke:black; " description="&lt;b&gt;PADFOAJF_03475&lt;/b&gt;&lt;br&gt;7-methyl-GTP pyrophosphatase&lt;br&gt;Location: 177740 - 178337" locus_tag="PADFOAJF_03475" class="clusterblast-orf" id="dummy-1_q12_0_all"  />
<polygon points="237,40 245,40 250,35 245,30 237,30 237,40 " style="fill:white; stroke-width:1; stroke:black; " description="&lt;b&gt;PADFOAJF_03476&lt;/b&gt;&lt;br&gt;Shikimate dehydrogenase (NADP(+))&lt;br&gt;Location: 178333 - 179155" locus_tag="PADFOAJF_03476" class="clusterblast-orf" id="dummy-1_q13_0_all"  />
<polygon points="250,40 254,40 259,35 254,30 250,30 250,40 " style="fill:white; stroke-width:1; stroke:black; " description="&lt;b&gt;PADFOAJF_03477&lt;/b&gt;&lt;br&gt;Dephospho-CoA kinase&lt;br&gt;Location: 179151 - 179748" locus_tag="PADFOAJF_03477" class="clusterblast-orf" id="dummy-1_q14_0_all"  />
<polygon points="259,40 265,40 270,35 265,30 259,30 259,40 " style="fill:white; stroke-width:1; stroke:black; " description="&lt;b&gt;PADFOAJF_03478&lt;/b&gt;&lt;br&gt;DNA polymerase III subunit epsilon&lt;br&gt;Location: 179740 - 180430" locus_tag="PADFOAJF_03478" class="clusterblast-orf" id="dummy-1_q15_0_all"  />
<polygon points="269,40 283,40 288,35 283,30 269,30 269,40 " style="fill:white; stroke-width:1; stroke:black; " description="&lt;b&gt;PADFOAJF_03479&lt;/b&gt;&lt;br&gt;3-dehydro-bile acid delta(4,6)-reductase&lt;br&gt;Location: 180419 - 181595" locus_tag="PADFOAJF_03479" class="clusterblast-orf" id="dummy-1_q16_0_all"  />
<polygon points="287,35 292,30 297,30 297,40 292,40 287,35 " style="fill:#d81515; stroke-width:1; stroke:black; " description="&lt;b&gt;PADFOAJF_03480&lt;/b&gt;&lt;br&gt;4'-phosphopantetheinyl transferase Npt&lt;br&gt;Location: 181572 - 182205" locus_tag="PADFOAJF_03480" class="clusterblast-orf" id="dummy-1_q17_0_all"  />
<polygon points="297,35 302,30 367,30 367,40 302,40 297,35 " style="fill:#77d815; stroke-width:1; stroke:black; " description="&lt;b&gt;PADFOAJF_03481&lt;/b&gt;&lt;br&gt;D-alanine--D-alanyl carrier protein ligase&lt;br&gt;Location: 182201 - 186719" locus_tag="PADFOAJF_03481" class="clusterblast-orf" id="dummy-1_q18_0_all"  />
<polygon points="368,35 373,30 382,30 382,40 373,40 368,35 " style="fill:#15d8d8; stroke-width:1; stroke:black; " description="&lt;b&gt;PADFOAJF_03482&lt;/b&gt;&lt;br&gt;hypothetical protein&lt;br&gt;Location: 186744 - 187659" locus_tag="PADFOAJF_03482" class="clusterblast-orf" id="dummy-1_q19_0_all"  />
<polygon points="382,35 387,30 480,30 480,40 387,40 382,35 " style="fill:#7715d8; stroke-width:1; stroke:black; " description="&lt;b&gt;PADFOAJF_03483&lt;/b&gt;&lt;br&gt;hypothetical protein&lt;br&gt;Location: 187655 - 193985" locus_tag="PADFOAJF_03483" class="clusterblast-orf" id="dummy-1_q20_0_all"  />
<polygon points="482,35 487,30 505,30 505,40 487,40 482,35 " style="fill:#d87715; stroke-width:1; stroke:black; " description="&lt;b&gt;PADFOAJF_03484&lt;/b&gt;&lt;br&gt;hypothetical protein&lt;br&gt;Location: 194078 - 195584" locus_tag="PADFOAJF_03484" class="clusterblast-orf" id="dummy-1_q21_0_all"  />
<polygon points="508,40 515,40 520,35 515,30 508,30 508,40 " style="fill:#15d815; stroke-width:1; stroke:black; " description="&lt;b&gt;PADFOAJF_03485&lt;/b&gt;&lt;br&gt;N-acetylglucosaminyldiphosphoundecaprenol N-acetyl-beta-D-mannosaminyltransferase&lt;br&gt;Location: 195773 - 196520" locus_tag="PADFOAJF_03485" class="clusterblast-orf" id="dummy-1_q22_0_all"  />
<polygon points="520,35 525,30 535,30 535,40 525,40 520,35 " style="fill:#1577d8; stroke-width:1; stroke:black; " description="&lt;b&gt;PADFOAJF_03486&lt;/b&gt;&lt;br&gt;hypothetical protein&lt;br&gt;Location: 196523 - 197489" locus_tag="PADFOAJF_03486" class="clusterblast-orf" id="dummy-1_q23_0_all"  />
<polygon points="537,40 550,40 555,35 550,30 537,30 537,40 " style="fill:white; stroke-width:1; stroke:black; " description="&lt;b&gt;PADFOAJF_03487&lt;/b&gt;&lt;br&gt;3-ketoacyl-CoA thiolase&lt;br&gt;Location: 197625 - 198795" locus_tag="PADFOAJF_03487" class="clusterblast-orf" id="dummy-1_q24_0_all"  />
<polygon points="555,40 575,40 580,35 575,30 555,30 555,40 " style="fill:white; stroke-width:1; stroke:black; " description="&lt;b&gt;PADFOAJF_03488&lt;/b&gt;&lt;br&gt;Long-chain-fatty-acid--CoA ligase FadD13&lt;br&gt;Location: 198791 - 200390" locus_tag="PADFOAJF_03488" class="clusterblast-orf" id="dummy-1_q25_0_all"  />
<polygon points="580,40 588,40 593,35 588,30 580,30 580,40 " style="fill:white; stroke-width:1; stroke:black; " description="&lt;b&gt;PADFOAJF_03489&lt;/b&gt;&lt;br&gt;hypothetical protein&lt;br&gt;Location: 200386 - 201208" locus_tag="PADFOAJF_03489" class="clusterblast-orf" id="dummy-1_q26_0_all"  />
<polygon points="593,35 598,30 603,30 603,40 598,40 593,35 " style="fill:white; stroke-width:1; stroke:black; " description="&lt;b&gt;PADFOAJF_03490&lt;/b&gt;&lt;br&gt;HTH-type transcriptional regulator LutR&lt;br&gt;Location: 201217 - 201877" locus_tag="PADFOAJF_03490" class="clusterblast-orf" id="dummy-1_q27_0_all"  />
<polygon points="605,40 621,40 626,35 621,30 605,30 605,40 " style="fill:white; stroke-width:1; stroke:black; " description="&lt;b&gt;PADFOAJF_03491&lt;/b&gt;&lt;br&gt;hypothetical protein&lt;br&gt;Location: 201982 - 203323" locus_tag="PADFOAJF_03491" class="clusterblast-orf" id="dummy-1_q28_0_all"  />
<polygon points="626,40 644,40 649,35 644,30 626,30 626,40 " style="fill:white; stroke-width:1; stroke:black; " description="&lt;b&gt;PADFOAJF_03492&lt;/b&gt;&lt;br&gt;Long-chain-fatty-acid--CoA ligase&lt;br&gt;Location: 203342 - 204845" locus_tag="PADFOAJF_03492" class="clusterblast-orf" id="dummy-1_q29_0_all"  />
<polygon points="650,40 667,40 672,35 667,30 650,30 650,40 " style="fill:white; stroke-width:1; stroke:black; " description="&lt;b&gt;PADFOAJF_03493&lt;/b&gt;&lt;br&gt;Succinyl-diaminopimelate desuccinylase&lt;br&gt;Location: 204908 - 206285" locus_tag="PADFOAJF_03493" class="clusterblast-orf" id="dummy-1_q30_0_all"  />
<polygon points="672,35 677,30 680,30 680,40 677,40 672,35 " style="fill:white; stroke-width:1; stroke:black; " description="&lt;b&gt;PADFOAJF_03494&lt;/b&gt;&lt;br&gt;Isopentenyl-diphosphate Delta-isomerase&lt;br&gt;Location: 206281 - 206803" locus_tag="PADFOAJF_03494" class="clusterblast-orf" id="dummy-1_q31_0_all"  />
<polygon points="681,35 686,30 701,30 701,40 686,40 681,35 " style="fill:#d815d8; stroke-width:1; stroke:black; " description="&lt;b&gt;PADFOAJF_03495&lt;/b&gt;&lt;br&gt;hypothetical protein&lt;br&gt;Location: 206857 - 208165" locus_tag="PADFOAJF_03495" class="clusterblast-orf" id="dummy-1_q32_0_all"  />
<polygon points="701,35 706,30 715,30 715,40 706,40 701,35 " style="fill:#d8d815; stroke-width:1; stroke:black; " description="&lt;b&gt;PADFOAJF_03496&lt;/b&gt;&lt;br&gt;hypothetical protein&lt;br&gt;Location: 208177 - 209056" locus_tag="PADFOAJF_03496" class="clusterblast-orf" id="dummy-1_q33_0_all"  />
<polygon points="717,35 722,30 738,30 738,40 722,40 717,35 " style="fill:#15d877; stroke-width:1; stroke:black; " description="&lt;b&gt;PADFOAJF_03497&lt;/b&gt;&lt;br&gt;hypothetical protein&lt;br&gt;Location: 209166 - 210534" locus_tag="PADFOAJF_03497" class="clusterblast-orf" id="dummy-1_q34_0_all"  />
<polygon points="739,40 755,40 760,35 755,30 739,30 739,40 " style="fill:#1515d8; stroke-width:1; stroke:black; " description="&lt;b&gt;PADFOAJF_03498&lt;/b&gt;&lt;br&gt;D-inositol-3-phosphate glycosyltransferase&lt;br&gt;Location: 210603 - 211974" locus_tag="PADFOAJF_03498" class="clusterblast-orf" id="dummy-1_q35_0_all"  />
<polygon points="760,35 765,30 773,30 773,40 765,40 760,35 " style="fill:#d81577; stroke-width:1; stroke:black; " description="&lt;b&gt;PADFOAJF_03499&lt;/b&gt;&lt;br&gt;hypothetical protein&lt;br&gt;Location: 211946 - 212771" locus_tag="PADFOAJF_03499" class="clusterblast-orf" id="dummy-1_q36_0_all"  />
</g>
<g label="NZ_CP041159" description="NZ_CP041159 (438023-490057): Leisingera aquaemixtae strain R2C4 chromosome, c... (35% of genes show similarity), NRPS-like,T1PKS" class="clusterblast-cluster"  >
<text x="5" y="70" class="clusterblast-acc"  >
<a xlink:href="https://antismash-db.secondarymetabolites.org/area.html?record=NZ_CP041159&amp;start=438023&amp;end=490057" target="_blank">NZ_CP041159 (438023-490057)</a>: Leisingera aquaemixtae strain R2C4 chromosome, c... (35% of genes show similarity), NRPS-like,T1PKS</text>
<line x1="10" y1="85" x2="778.0" y2="85" style="stroke-width:1; stroke:grey; "  />
</g>
<g id="a1_000"  >
<polygon points="0,90 12,90 17,85 12,80 0,80 0,90 " style="fill:white; stroke-width:1; stroke:black; " description="&lt;b&gt;R2C4_RS03875&lt;/b&gt;&lt;br&gt;class I SAM-dependent RNA methyltransferase&lt;br&gt;Location: 439111 - 440229" locus_tag="R2C4_RS03875" class="clusterblast-orf" id="dummy-1_h1_3_0"  />
</g>
<g id="a1_001"  >
<polygon points="29,85 34,80 36,80 36,90 34,90 29,85 " style="fill:white; stroke-width:1; stroke:black; " description="&lt;b&gt;R2C4_RS03880&lt;/b&gt;&lt;br&gt;serine/threonine protein phosphatase&lt;br&gt;Location: 440984 - 441445" locus_tag="R2C4_RS03880" class="clusterblast-orf" id="dummy-1_h1_3_1"  />
</g>
<g id="a1_002"  >
<polygon points="44,90 55,90 60,85 55,80 44,80 44,90 " style="fill:white; stroke-width:1; stroke:black; " description="&lt;b&gt;R2C4_RS03885&lt;/b&gt;&lt;br&gt;hypothetical protein&lt;br&gt;Location: 441990 - 443003" locus_tag="R2C4_RS03885" class="clusterblast-orf" id="dummy-1_h1_3_2"  />
</g>
<g id="a1_003"  >
<polygon points="61,90 69,90 74,85 69,80 61,80 61,90 " style="fill:white; stroke-width:1; stroke:black; " description="&lt;b&gt;R2C4_RS03890&lt;/b&gt;&lt;br&gt;TIGR03084 family protein&lt;br&gt;Location: 443094 - 443894" locus_tag="R2C4_RS03890" class="clusterblast-orf" id="dummy-1_h1_3_3"  />
</g>
<g id="a1_004"  >
<polygon points="79,85 84,80 92,80 92,90 84,90 79,85 " style="fill:white; stroke-width:1; stroke:black; " description="&lt;b&gt;R2C4_RS03895&lt;/b&gt;&lt;br&gt;2-dehydro-3-deoxygalactonokinase&lt;br&gt;Location: 444192 - 445043" locus_tag="R2C4_RS03895" class="clusterblast-orf" id="dummy-1_h1_3_4"  />
</g>
<g id="a1_005"  >
<polygon points="97,90 108,90 113,85 108,80 97,80 97,90 " style="fill:white; stroke-width:1; stroke:black; " description="&lt;b&gt;R2C4_RS03900&lt;/b&gt;&lt;br&gt;helix-turn-helix domain-containing protein&lt;br&gt;Location: 445399 - 446415" locus_tag="R2C4_RS03900" class="clusterblast-orf" id="dummy-1_h1_3_5"  />
</g>
<g id="a1_006"  >
<polygon points="119,90 127,90 132,85 127,80 119,80 119,90 " style="fill:white; stroke-width:1; stroke:black; " description="&lt;b&gt;R2C4_RS03905&lt;/b&gt;&lt;br&gt;sugar transferase&lt;br&gt;Location: 446805 - 447602" locus_tag="R2C4_RS03905" class="clusterblast-orf" id="dummy-1_h1_3_6"  />
</g>
<g id="a1_007"  >
<polygon points="133,90 142,90 147,85 142,80 133,80 133,90 " style="fill:#d8d815; stroke-width:1; stroke:black; " description="&lt;b&gt;R2C4_RS03910&lt;/b&gt;&lt;br&gt;CpsD/CapB family tyrosine-protein kinase&lt;br&gt;Location: 447693 - 448607&lt;br&gt;&lt;br&gt;&lt;b&gt;BlastP hit with PADFOAJF_03496&lt;/b&gt;&lt;br&gt;Percentage identity: 36&lt;br&gt;Percentage coverage: 87&lt;br&gt;BLAST bit score: 144&lt;br&gt;E-value: 4.92e-39" locus_tag="R2C4_RS03910" class="clusterblast-orf" id="dummy-1_h1_3_7"  />
</g>
<g id="a1_008"  >
<polygon points="150,90 164,90 169,85 164,80 150,80 150,90 " style="fill:#d815d8; stroke-width:1; stroke:black; " description="&lt;b&gt;R2C4_RS03915&lt;/b&gt;&lt;br&gt;DUF874 domain-containing protein&lt;br&gt;Location: 448755 - 450005&lt;br&gt;&lt;br&gt;&lt;b&gt;BlastP hit with PADFOAJF_03495&lt;/b&gt;&lt;br&gt;Percentage identity: 37&lt;br&gt;Percentage coverage: 95&lt;br&gt;BLAST bit score: 213&lt;br&gt;E-value: 1.2e-62" locus_tag="R2C4_RS03915" class="clusterblast-orf" id="dummy-1_h1_3_8"  />
</g>
<g id="a1_009"  >
<polygon points="170,85 175,80 192,80 192,90 175,90 170,85 " style="fill:#15d877; stroke-width:1; stroke:black; " description="&lt;b&gt;R2C4_RS03920&lt;/b&gt;&lt;br&gt;oligosaccharide flippase family protein&lt;br&gt;Location: 450088 - 451458&lt;br&gt;&lt;br&gt;&lt;b&gt;BlastP hit with PADFOAJF_03497&lt;/b&gt;&lt;br&gt;Percentage identity: 50&lt;br&gt;Percentage coverage: 91&lt;br&gt;BLAST bit score: 397&lt;br&gt;E-value: 1.97e-133" locus_tag="R2C4_RS03920" class="clusterblast-orf" id="dummy-1_h1_3_9"  />
</g>
<g id="a1_0010"  >
<polygon points="195,90 209,90 214,85 209,80 195,80 195,90 " style="fill:#1515d8; stroke-width:1; stroke:black; " description="&lt;b&gt;R2C4_RS03925&lt;/b&gt;&lt;br&gt;glycosyltransferase&lt;br&gt;Location: 451696 - 452901&lt;br&gt;&lt;br&gt;&lt;b&gt;BlastP hit with PADFOAJF_03498&lt;/b&gt;&lt;br&gt;Percentage identity: 55&lt;br&gt;Percentage coverage: 87&lt;br&gt;BLAST bit score: 408&lt;br&gt;E-value: 1.35e-138" locus_tag="R2C4_RS03925" class="clusterblast-orf" id="dummy-1_h1_3_10"  />
</g>
<g id="a1_0011"  >
<polygon points="217,85 222,80 230,80 230,90 222,90 217,85 " style="fill:#d81577; stroke-width:1; stroke:black; " description="&lt;b&gt;R2C4_RS03930&lt;/b&gt;&lt;br&gt;glycosyltransferase&lt;br&gt;Location: 453069 - 453905&lt;br&gt;&lt;br&gt;&lt;b&gt;BlastP hit with PADFOAJF_03499&lt;/b&gt;&lt;br&gt;Percentage identity: 53&lt;br&gt;Percentage coverage: 101&lt;br&gt;BLAST bit score: 253&lt;br&gt;E-value: 2.44e-82" locus_tag="R2C4_RS03930" class="clusterblast-orf" id="dummy-1_h1_3_11"  />
</g>
<g id="a1_0012"  >
<polygon points="230,85 235,80 269,80 269,90 235,90 230,85 " style="fill:white; stroke-width:1; stroke:black; " description="&lt;b&gt;R2C4_RS03935&lt;/b&gt;&lt;br&gt;hypothetical protein&lt;br&gt;Location: 453902 - 456406" locus_tag="R2C4_RS03935" class="clusterblast-orf" id="dummy-1_h1_3_12"  />
</g>
<g id="a1_0013"  >
<polygon points="268,85 273,80 283,80 283,90 273,90 268,85 " style="fill:white; stroke-width:1; stroke:black; " description="&lt;b&gt;R2C4_RS03940&lt;/b&gt;&lt;br&gt;hypothetical protein&lt;br&gt;Location: 456403 - 457338" locus_tag="R2C4_RS03940" class="clusterblast-orf" id="dummy-1_h1_3_13"  />
</g>
<g id="a1_0014"  >
<polygon points="283,85 288,80 294,80 294,90 288,90 283,85 " style="fill:#d81515; stroke-width:1; stroke:black; " description="&lt;b&gt;R2C4_RS03945&lt;/b&gt;&lt;br&gt;4'-phosphopantetheinyl transferase superfamily protein&lt;br&gt;Location: 457338 - 458027&lt;br&gt;&lt;br&gt;&lt;b&gt;BlastP hit with PADFOAJF_03480&lt;/b&gt;&lt;br&gt;Percentage identity: 39&lt;br&gt;Percentage coverage: 104&lt;br&gt;BLAST bit score: 120&lt;br&gt;E-value: 7.72e-32" locus_tag="R2C4_RS03945" class="clusterblast-orf" id="dummy-1_h1_3_14"  />
</g>
<g id="a1_0015"  >
<polygon points="294,85 299,80 365,80 365,90 299,90 294,85 " style="fill:#77d815; stroke-width:1; stroke:black; " description="&lt;b&gt;R2C4_RS03950&lt;/b&gt;&lt;br&gt;LLM class flavin-dependent oxidoreductase&lt;br&gt;Location: 458024 - 462589&lt;br&gt;&lt;br&gt;&lt;b&gt;BlastP hit with PADFOAJF_03481&lt;/b&gt;&lt;br&gt;Percentage identity: 57&lt;br&gt;Percentage coverage: 102&lt;br&gt;BLAST bit score: 1603&lt;br&gt;E-value: 0.0" locus_tag="R2C4_RS03950" class="clusterblast-orf" id="dummy-1_h1_3_15"  />
</g>
<g id="a1_0016"  >
<polygon points="365,85 370,80 380,80 380,90 370,90 365,85 " style="fill:#15d8d8; stroke-width:1; stroke:black; " description="&lt;b&gt;R2C4_RS03955&lt;/b&gt;&lt;br&gt;glycosyltransferase&lt;br&gt;Location: 462586 - 463602&lt;br&gt;&lt;br&gt;&lt;b&gt;BlastP hit with PADFOAJF_03482&lt;/b&gt;&lt;br&gt;Percentage identity: 56&lt;br&gt;Percentage coverage: 101&lt;br&gt;BLAST bit score: 337&lt;br&gt;E-value: 7e-114" locus_tag="R2C4_RS03955" class="clusterblast-orf" id="dummy-1_h1_3_16"  />
</g>
<g id="a1_0017"  >
<polygon points="381,85 386,80 481,80 481,90 386,90 381,85 " style="fill:#7715d8; stroke-width:1; stroke:black; " description="&lt;b&gt;R2C4_RS03960&lt;/b&gt;&lt;br&gt;acyltransferase domain-containing protein&lt;br&gt;Location: 463608 - 470057&lt;br&gt;&lt;br&gt;&lt;b&gt;BlastP hit with PADFOAJF_03483&lt;/b&gt;&lt;br&gt;Percentage identity: 59&lt;br&gt;Percentage coverage: 101&lt;br&gt;BLAST bit score: 2373&lt;br&gt;E-value: 0.0" locus_tag="R2C4_RS03960" class="clusterblast-orf" id="dummy-1_h1_3_17"  />
</g>
<g id="a1_0018"  >
<polygon points="485,85 490,80 508,80 508,90 490,90 485,85 " style="fill:#d87715; stroke-width:1; stroke:black; " description="&lt;b&gt;R2C4_RS03965&lt;/b&gt;&lt;br&gt;hypothetical protein&lt;br&gt;Location: 470319 - 471782&lt;br&gt;&lt;br&gt;&lt;b&gt;BlastP hit with PADFOAJF_03484&lt;/b&gt;&lt;br&gt;Percentage identity: 45&lt;br&gt;Percentage coverage: 91&lt;br&gt;BLAST bit score: 383&lt;br&gt;E-value: 6.9e-127" locus_tag="R2C4_RS03965" class="clusterblast-orf" id="dummy-1_h1_3_18"  />
</g>
<g id="a1_0019"  >
<polygon points="511,90 517,90 522,85 517,80 511,80 511,90 " style="fill:#15d815; stroke-width:1; stroke:black; " description="&lt;b&gt;R2C4_RS03970&lt;/b&gt;&lt;br&gt;WecB/TagA/CpsF family glycosyltransferase&lt;br&gt;Location: 471974 - 472726&lt;br&gt;&lt;br&gt;&lt;b&gt;BlastP hit with PADFOAJF_03485&lt;/b&gt;&lt;br&gt;Percentage identity: 60&lt;br&gt;Percentage coverage: 100&lt;br&gt;BLAST bit score: 285&lt;br&gt;E-value: 1.37e-95" locus_tag="R2C4_RS03970" class="clusterblast-orf" id="dummy-1_h1_3_19"  />
</g>
<g id="a1_0020"  >
<polygon points="524,85 529,80 539,80 539,90 529,90 524,85 " style="fill:#1577d8; stroke-width:1; stroke:black; " description="&lt;b&gt;R2C4_RS03975&lt;/b&gt;&lt;br&gt;glycosyltransferase&lt;br&gt;Location: 472864 - 473814&lt;br&gt;&lt;br&gt;&lt;b&gt;BlastP hit with PADFOAJF_03486&lt;/b&gt;&lt;br&gt;Percentage identity: 60&lt;br&gt;Percentage coverage: 98&lt;br&gt;BLAST bit score: 372&lt;br&gt;E-value: 9.73e-128" locus_tag="R2C4_RS03975" class="clusterblast-orf" id="dummy-1_h1_3_20"  />
</g>
<g id="a1_0021"  >
<polygon points="539,85 544,80 555,80 555,90 544,90 539,85 " style="fill:white; stroke-width:1; stroke:black; " description="&lt;b&gt;R2C4_RS03980&lt;/b&gt;&lt;br&gt;glycosyltransferase family 2 protein&lt;br&gt;Location: 473811 - 474815" locus_tag="R2C4_RS03980" class="clusterblast-orf" id="dummy-1_h1_3_21"  />
</g>
<g id="a1_0022"  >
<polygon points="559,85 564,80 615,80 615,90 564,90 559,85 " style="fill:white; stroke-width:1; stroke:black; " description="&lt;b&gt;R2C4_RS03985&lt;/b&gt;&lt;br&gt;translocation/assembly module TamB&lt;br&gt;Location: 475076 - 478705" locus_tag="R2C4_RS03985" class="clusterblast-orf" id="dummy-1_h1_3_22"  />
</g>
<g id="a1_0023"  >
<polygon points="615,85 620,80 643,80 643,90 620,90 615,85 " style="fill:white; stroke-width:1; stroke:black; " description="&lt;b&gt;R2C4_RS03990&lt;/b&gt;&lt;br&gt;BamA/TamA family outer membrane protein&lt;br&gt;Location: 478702 - 480504" locus_tag="R2C4_RS03990" class="clusterblast-orf" id="dummy-1_h1_3_23"  />
</g>
<g id="a1_0024"  >
<polygon points="652,90 656,85 652,80 652,90 " style="fill:white; stroke-width:1; stroke:black; " description="&lt;b&gt;R2C4_RS03995&lt;/b&gt;&lt;br&gt;hypothetical protein&lt;br&gt;Location: 481032 - 481334" locus_tag="R2C4_RS03995" class="clusterblast-orf" id="dummy-1_h1_3_24"  />
</g>
<g id="a1_0025"  >
<polygon points="657,90 662,90 667,85 662,80 657,80 657,90 " style="fill:white; stroke-width:1; stroke:black; " description="&lt;b&gt;R2C4_RS04000&lt;/b&gt;&lt;br&gt;hypothetical protein&lt;br&gt;Location: 481399 - 482007" locus_tag="R2C4_RS04000" class="clusterblast-orf" id="dummy-1_h1_3_25"  />
</g>
<g id="a1_0026"  >
<polygon points="667,85 672,80 682,80 682,90 672,90 667,85 " style="fill:white; stroke-width:1; stroke:black; " description="&lt;b&gt;R2C4_RS04005&lt;/b&gt;&lt;br&gt;glyceraldehyde-3-phosphate dehydrogenase&lt;br&gt;Location: 482031 - 483014" locus_tag="R2C4_RS04005" class="clusterblast-orf" id="dummy-1_h1_3_26"  />
</g>
<g id="a1_0027"  >
<polygon points="684,85 689,80 689,80 689,90 689,90 684,85 " style="fill:white; stroke-width:1; stroke:black; " description="&lt;b&gt;R2C4_RS04010&lt;/b&gt;&lt;br&gt;hypothetical protein&lt;br&gt;Location: 483136 - 483450" locus_tag="R2C4_RS04010" class="clusterblast-orf" id="dummy-1_h1_3_27"  />
</g>
<g id="a1_0028"  >
<polygon points="690,85 695,80 702,80 702,90 695,90 690,85 " style="fill:white; stroke-width:1; stroke:black; " description="&lt;b&gt;R2C4_RS04015&lt;/b&gt;&lt;br&gt;helix-turn-helix domain-containing protein&lt;br&gt;Location: 483518 - 484294" locus_tag="R2C4_RS04015" class="clusterblast-orf" id="dummy-1_h1_3_28"  />
</g>
<g id="a1_0029"  >
<polygon points="706,90 723,90 728,85 723,80 706,80 706,90 " style="fill:white; stroke-width:1; stroke:black; " description="&lt;b&gt;R2C4_RS04020&lt;/b&gt;&lt;br&gt;glutamine synthetase&lt;br&gt;Location: 484510 - 485958" locus_tag="R2C4_RS04020" class="clusterblast-orf" id="dummy-1_h1_3_29"  />
</g>
<g id="a1_0030"  >
<polygon points="731,90 732,90 737,85 732,80 731,80 731,90 " style="fill:white; stroke-width:1; stroke:black; " description="&lt;b&gt;R2C4_RS04025&lt;/b&gt;&lt;br&gt;glycine cleavage system protein GcvH&lt;br&gt;Location: 486158 - 486517" locus_tag="R2C4_RS04025" class="clusterblast-orf" id="dummy-1_h1_3_30"  />
</g>
<g id="a1_0031"  >
<polygon points="739,90 745,90 750,85 745,80 739,80 739,90 " style="fill:white; stroke-width:1; stroke:black; " description="&lt;b&gt;R2C4_RS04030&lt;/b&gt;&lt;br&gt;flavodoxin family protein&lt;br&gt;Location: 486656 - 487372" locus_tag="R2C4_RS04030" class="clusterblast-orf" id="dummy-1_h1_3_31"  />
</g>
<g id="a1_0032"  >
<polygon points="752,85 757,80 766,80 766,90 757,90 752,85 " style="fill:white; stroke-width:1; stroke:black; " description="&lt;b&gt;R2C4_RS04035&lt;/b&gt;&lt;br&gt;glyoxylate/hydroxypyruvate reductase A&lt;br&gt;Location: 487486 - 488421" locus_tag="R2C4_RS04035" class="clusterblast-orf" id="dummy-1_h1_3_32"  />
</g>
<g id="a1_0033"  >
<polygon points="768,85 773,80 780,80 780,90 773,90 768,85 " style="fill:white; stroke-width:1; stroke:black; " description="&lt;b&gt;R2C4_RS04040&lt;/b&gt;&lt;br&gt;NYN domain-containing protein&lt;br&gt;Location: 488522 - 489259" locus_tag="R2C4_RS04040" class="clusterblast-orf" id="dummy-1_h1_3_33"  />
</g>
</svg>
