<svg xmlns="http://www.w3.org/2000/svg" xmlns:xlink="http://www.w3.org/1999/xlink" version="1.1" x="0" y="0" height="230" width="800" viewBox="0 0 800 230" preserveAspectRatio="none"  >
<g label="Query sequence" class="clusterblast-cluster"  >
<text x="5" y="20" class="clusterblast-acc"  >
Query sequence</text>
<line x1="10" y1="35" x2="778.0" y2="35" style="stroke-width:1; stroke:grey; "  />
<polygon points="4,35 9,30 45,30 45,40 9,40 4,35 " style="fill:white; stroke-width:1; stroke:black; " description="&lt;b&gt;PADFOAJF_02825&lt;/b&gt;&lt;br&gt;Selenide, water dikinase&lt;br&gt;Location: 78845 - 81014" locus_tag="PADFOAJF_02825" class="clusterblast-orf" id="dummy-1_q0_0_all"  />
<polygon points="50,35 54,30 54,40 50,35 " style="fill:white; stroke-width:1; stroke:black; " description="&lt;b&gt;PADFOAJF_02827&lt;/b&gt;&lt;br&gt;hypothetical protein&lt;br&gt;Location: 81315 - 81510" locus_tag="PADFOAJF_02827" class="clusterblast-orf" id="dummy-1_q1_0_all"  />
<polygon points="55,40 60,40 65,35 60,30 55,30 55,40 " style="fill:white; stroke-width:1; stroke:black; " description="&lt;b&gt;PADFOAJF_02828&lt;/b&gt;&lt;br&gt;hypothetical protein&lt;br&gt;Location: 81589 - 82120" locus_tag="PADFOAJF_02828" class="clusterblast-orf" id="dummy-1_q2_0_all"  />
<polygon points="69,40 107,40 112,35 107,30 69,30 69,40 " style="fill:white; stroke-width:1; stroke:black; " description="&lt;b&gt;PADFOAJF_02829&lt;/b&gt;&lt;br&gt;hypothetical protein&lt;br&gt;Location: 82327 - 84619" locus_tag="PADFOAJF_02829" class="clusterblast-orf" id="dummy-1_q3_0_all"  />
<polygon points="114,40 114,40 119,35 114,30 114,30 114,40 " style="fill:#d81515; stroke-width:1; stroke:black; " description="&lt;b&gt;PADFOAJF_02830&lt;/b&gt;&lt;br&gt;hypothetical protein&lt;br&gt;Location: 84735 - 85023" locus_tag="PADFOAJF_02830" class="clusterblast-orf" id="dummy-1_q4_0_all"  />
<polygon points="120,40 138,40 143,35 138,30 120,30 120,40 " style="fill:#63d815; stroke-width:1; stroke:black; " description="&lt;b&gt;PADFOAJF_02831&lt;/b&gt;&lt;br&gt;hypothetical protein&lt;br&gt;Location: 85061 - 86327" locus_tag="PADFOAJF_02831" class="clusterblast-orf" id="dummy-1_q5_0_all"  />
<polygon points="144,40 155,40 160,35 155,30 144,30 144,40 " style="fill:#15b1d8; stroke-width:1; stroke:black; " description="&lt;b&gt;PADFOAJF_02832&lt;/b&gt;&lt;br&gt;hypothetical protein&lt;br&gt;Location: 86330 - 87194" locus_tag="PADFOAJF_02832" class="clusterblast-orf" id="dummy-1_q6_0_all"  />
<polygon points="160,40 170,40 175,35 170,30 160,30 160,40 " style="fill:#15b1d8; stroke-width:1; stroke:black; " description="&lt;b&gt;PADFOAJF_02833&lt;/b&gt;&lt;br&gt;hypothetical protein&lt;br&gt;Location: 87190 - 88009" locus_tag="PADFOAJF_02833" class="clusterblast-orf" id="dummy-1_q7_0_all"  />
<polygon points="175,35 180,30 191,30 191,40 180,40 175,35 " style="fill:#b115d8; stroke-width:1; stroke:black; " description="&lt;b&gt;PADFOAJF_02834&lt;/b&gt;&lt;br&gt;hypothetical protein&lt;br&gt;Location: 88005 - 88866" locus_tag="PADFOAJF_02834" class="clusterblast-orf" id="dummy-1_q8_0_all"  />
<polygon points="192,40 208,40 213,35 208,30 192,30 192,40 " style="fill:#d86315; stroke-width:1; stroke:black; " description="&lt;b&gt;PADFOAJF_02835&lt;/b&gt;&lt;br&gt;hypothetical protein&lt;br&gt;Location: 88935 - 90078" locus_tag="PADFOAJF_02835" class="clusterblast-orf" id="dummy-1_q9_0_all"  />
<polygon points="213,35 218,30 269,30 269,40 218,40 213,35 " style="fill:#15d815; stroke-width:1; stroke:black; " description="&lt;b&gt;PADFOAJF_02836&lt;/b&gt;&lt;br&gt;hypothetical protein&lt;br&gt;Location: 90081 - 93102" locus_tag="PADFOAJF_02836" class="clusterblast-orf" id="dummy-1_q10_0_all"  />
<polygon points="273,40 290,40 295,35 290,30 273,30 273,40 " style="fill:#63d815; stroke-width:1; stroke:black; " description="&lt;b&gt;PADFOAJF_02837&lt;/b&gt;&lt;br&gt;hypothetical protein&lt;br&gt;Location: 93294 - 94485" locus_tag="PADFOAJF_02837" class="clusterblast-orf" id="dummy-1_q11_0_all"  />
<polygon points="296,40 322,40 327,35 322,30 296,30 296,40 " style="fill:#63d815; stroke-width:1; stroke:black; " description="&lt;b&gt;PADFOAJF_02838&lt;/b&gt;&lt;br&gt;hypothetical protein&lt;br&gt;Location: 94552 - 96214" locus_tag="PADFOAJF_02838" class="clusterblast-orf" id="dummy-1_q12_0_all"  />
<polygon points="328,40 366,40 371,35 366,30 328,30 328,40 " style="fill:#1563d8; stroke-width:1; stroke:black; " description="&lt;b&gt;PADFOAJF_02839&lt;/b&gt;&lt;br&gt;Ubiquinone biosynthesis O-methyltransferase, mitochondrial&lt;br&gt;Location: 96258 - 98568" locus_tag="PADFOAJF_02839" class="clusterblast-orf" id="dummy-1_q13_0_all"  />
<polygon points="372,40 403,40 408,35 403,30 372,30 372,40 " style="fill:#d815b1; stroke-width:1; stroke:black; " description="&lt;b&gt;PADFOAJF_02840&lt;/b&gt;&lt;br&gt;4-hydroxyphenylalkanoate adenylyltransferase&lt;br&gt;Location: 98623 - 100573" locus_tag="PADFOAJF_02840" class="clusterblast-orf" id="dummy-1_q14_0_all"  />
<polygon points="409,35 414,30 420,30 420,40 414,40 409,35 " style="fill:white; stroke-width:1; stroke:black; " description="&lt;b&gt;PADFOAJF_02841&lt;/b&gt;&lt;br&gt;putative HTH-type transcriptional regulator&lt;br&gt;Location: 100638 - 101226" locus_tag="PADFOAJF_02841" class="clusterblast-orf" id="dummy-1_q15_0_all"  />
<polygon points="421,40 424,40 429,35 424,30 421,30 421,40 " style="fill:white; stroke-width:1; stroke:black; " description="&lt;b&gt;PADFOAJF_02842&lt;/b&gt;&lt;br&gt;hypothetical protein&lt;br&gt;Location: 101280 - 101721" locus_tag="PADFOAJF_02842" class="clusterblast-orf" id="dummy-1_q16_0_all"  />
<polygon points="429,35 434,30 444,30 444,40 434,40 429,35 " style="fill:white; stroke-width:1; stroke:black; " description="&lt;b&gt;PADFOAJF_02843&lt;/b&gt;&lt;br&gt;hypothetical protein&lt;br&gt;Location: 101723 - 102521" locus_tag="PADFOAJF_02843" class="clusterblast-orf" id="dummy-1_q17_0_all"  />
<polygon points="444,35 449,30 463,30 463,40 449,40 444,35 " style="fill:#d8b115; stroke-width:1; stroke:black; " description="&lt;b&gt;PADFOAJF_02844&lt;/b&gt;&lt;br&gt;hypothetical protein&lt;br&gt;Location: 102530 - 103526" locus_tag="PADFOAJF_02844" class="clusterblast-orf" id="dummy-1_q18_0_all"  />
<polygon points="466,40 475,40 480,35 475,30 466,30 466,40 " style="fill:#15d863; stroke-width:1; stroke:black; " description="&lt;b&gt;PADFOAJF_02845&lt;/b&gt;&lt;br&gt;3-oxoacyl-[acyl-carrier-protein] reductase FabG&lt;br&gt;Location: 103678 - 104458" locus_tag="PADFOAJF_02845" class="clusterblast-orf" id="dummy-1_q19_0_all"  />
<polygon points="484,40 490,40 495,35 490,30 484,30 484,40 " style="fill:white; stroke-width:1; stroke:black; " description="&lt;b&gt;PADFOAJF_02846&lt;/b&gt;&lt;br&gt;Phosphoglycolate phosphatase&lt;br&gt;Location: 104634 - 105234" locus_tag="PADFOAJF_02846" class="clusterblast-orf" id="dummy-1_q20_0_all"  />
<polygon points="496,40 506,40 511,35 506,30 496,30 496,40 " style="fill:white; stroke-width:1; stroke:black; " description="&lt;b&gt;PADFOAJF_02847&lt;/b&gt;&lt;br&gt;2-succinyl-6-hydroxy-2, 4-cyclohexadiene-1-carboxylate synthase&lt;br&gt;Location: 105289 - 106108" locus_tag="PADFOAJF_02847" class="clusterblast-orf" id="dummy-1_q21_0_all"  />
<polygon points="511,40 523,40 528,35 523,30 511,30 511,40 " style="fill:white; stroke-width:1; stroke:black; " description="&lt;b&gt;PADFOAJF_02848&lt;/b&gt;&lt;br&gt;L-threo-3-hydroxyaspartate ammonia-lyase&lt;br&gt;Location: 106104 - 107052" locus_tag="PADFOAJF_02848" class="clusterblast-orf" id="dummy-1_q22_0_all"  />
<polygon points="528,40 528,40 533,35 528,30 528,30 528,40 " style="fill:white; stroke-width:1; stroke:black; " description="&lt;b&gt;PADFOAJF_02849&lt;/b&gt;&lt;br&gt;hypothetical protein&lt;br&gt;Location: 107048 - 107300" locus_tag="PADFOAJF_02849" class="clusterblast-orf" id="dummy-1_q23_0_all"  />
<polygon points="533,35 537,30 537,40 533,35 " style="fill:white; stroke-width:1; stroke:black; " description="&lt;b&gt;PADFOAJF_02850&lt;/b&gt;&lt;br&gt;hypothetical protein&lt;br&gt;Location: 107287 - 107539" locus_tag="PADFOAJF_02850" class="clusterblast-orf" id="dummy-1_q24_0_all"  />
<polygon points="540,35 545,30 558,30 558,40 545,40 540,35 " style="fill:white; stroke-width:1; stroke:black; " description="&lt;b&gt;PADFOAJF_02851&lt;/b&gt;&lt;br&gt;hypothetical protein&lt;br&gt;Location: 107689 - 108640" locus_tag="PADFOAJF_02851" class="clusterblast-orf" id="dummy-1_q25_0_all"  />
<polygon points="560,35 565,30 592,30 592,40 565,40 560,35 " style="fill:white; stroke-width:1; stroke:black; " description="&lt;b&gt;PADFOAJF_02852&lt;/b&gt;&lt;br&gt;Methionine--tRNA ligase&lt;br&gt;Location: 108737 - 110468" locus_tag="PADFOAJF_02852" class="clusterblast-orf" id="dummy-1_q26_0_all"  />
<polygon points="595,40 624,40 629,35 624,30 595,30 595,40 " style="fill:white; stroke-width:1; stroke:black; " description="&lt;b&gt;PADFOAJF_02853&lt;/b&gt;&lt;br&gt;hypothetical protein&lt;br&gt;Location: 110645 - 112442" locus_tag="PADFOAJF_02853" class="clusterblast-orf" id="dummy-1_q27_0_all"  />
<polygon points="630,40 649,40 654,35 649,30 630,30 630,40 " style="fill:white; stroke-width:1; stroke:black; " description="&lt;b&gt;PADFOAJF_02854&lt;/b&gt;&lt;br&gt;hypothetical protein&lt;br&gt;Location: 112518 - 113832" locus_tag="PADFOAJF_02854" class="clusterblast-orf" id="dummy-1_q28_0_all"  />
<polygon points="659,35 664,30 664,30 664,40 664,40 659,35 " style="fill:white; stroke-width:1; stroke:black; " description="&lt;b&gt;PADFOAJF_02855&lt;/b&gt;&lt;br&gt;hypothetical protein&lt;br&gt;Location: 114055 - 114361" locus_tag="PADFOAJF_02855" class="clusterblast-orf" id="dummy-1_q29_0_all"  />
<polygon points="664,35 669,30 671,30 671,40 669,40 664,35 " style="fill:white; stroke-width:1; stroke:black; " description="&lt;b&gt;PADFOAJF_02856&lt;/b&gt;&lt;br&gt;hypothetical protein&lt;br&gt;Location: 114360 - 114705" locus_tag="PADFOAJF_02856" class="clusterblast-orf" id="dummy-1_q30_0_all"  />
<polygon points="674,40 677,35 674,30 674,40 " style="fill:#1515d8; stroke-width:1; stroke:black; " description="&lt;b&gt;PADFOAJF_02857&lt;/b&gt;&lt;br&gt;hypothetical protein&lt;br&gt;Location: 114872 - 115046" locus_tag="PADFOAJF_02857" class="clusterblast-orf" id="dummy-1_q31_0_all"  />
<polygon points="679,40 683,40 688,35 683,30 679,30 679,40 " style="fill:white; stroke-width:1; stroke:black; " description="&lt;b&gt;PADFOAJF_02858&lt;/b&gt;&lt;br&gt;DNA protection during starvation protein&lt;br&gt;Location: 115169 - 115667" locus_tag="PADFOAJF_02858" class="clusterblast-orf" id="dummy-1_q32_0_all"  />
<polygon points="692,35 697,30 707,30 707,40 697,40 692,35 " style="fill:#d81563; stroke-width:1; stroke:black; " description="&lt;b&gt;PADFOAJF_02859&lt;/b&gt;&lt;br&gt;Phyllosphere-induced regulator PhyR&lt;br&gt;Location: 115836 - 116649" locus_tag="PADFOAJF_02859" class="clusterblast-orf" id="dummy-1_q33_0_all"  />
<polygon points="709,40 712,35 709,30 709,40 " style="fill:#b1d815; stroke-width:1; stroke:black; " description="&lt;b&gt;PADFOAJF_02860&lt;/b&gt;&lt;br&gt;hypothetical protein&lt;br&gt;Location: 116761 - 116920" locus_tag="PADFOAJF_02860" class="clusterblast-orf" id="dummy-1_q34_0_all"  />
<polygon points="712,40 717,40 722,35 717,30 712,30 712,40 " style="fill:#15d8b1; stroke-width:1; stroke:black; " description="&lt;b&gt;PADFOAJF_02861&lt;/b&gt;&lt;br&gt;ECF RNA polymerase sigma factor EcfG&lt;br&gt;Location: 116909 - 117485" locus_tag="PADFOAJF_02861" class="clusterblast-orf" id="dummy-1_q35_0_all"  />
<polygon points="722,40 750,40 755,35 750,30 722,30 722,40 " style="fill:#6315d8; stroke-width:1; stroke:black; " description="&lt;b&gt;PADFOAJF_02862&lt;/b&gt;&lt;br&gt;hypothetical protein&lt;br&gt;Location: 117481 - 119239" locus_tag="PADFOAJF_02862" class="clusterblast-orf" id="dummy-1_q36_0_all"  />
<polygon points="756,35 761,30 775,30 775,40 761,40 756,35 " style="fill:white; stroke-width:1; stroke:black; " description="&lt;b&gt;PADFOAJF_02863&lt;/b&gt;&lt;br&gt;Putative transport protein YhhT&lt;br&gt;Location: 119298 - 120318" locus_tag="PADFOAJF_02863" class="clusterblast-orf" id="dummy-1_q37_0_all"  />
</g>
<g label="NZ_QBFD01000012" description="NZ_QBFD01000012 (122195-164274): Sulfitobacter sp. DFL-14 JP42 contig000012, ... (29% of genes show similarity), NRPS-like" class="clusterblast-cluster"  >
<text x="5" y="70" class="clusterblast-acc"  >
<a xlink:href="https://antismash-db.secondarymetabolites.org/area.html?record=NZ_QBFD01000012&amp;start=122195&amp;end=164274" target="_blank">NZ_QBFD01000012 (122195-164274)</a>: Sulfitobacter sp. DFL-14 JP42 contig000012, ... (29% of genes show similarity), NRPS-like</text>
<line x1="10" y1="85" x2="778.0" y2="85" style="stroke-width:1; stroke:grey; "  />
</g>
<g id="a1_000"  >
<polygon points="0,90 0,90 5,85 0,80 0,80 0,90 " style="fill:white; stroke-width:1; stroke:black; " description="&lt;b&gt;DB034_RS04600&lt;/b&gt;&lt;br&gt;hypothetical protein&lt;br&gt;Location: 122199 - 122507" locus_tag="DB034_RS04600" class="clusterblast-orf" id="dummy-1_h1_2_0"  />
</g>
<g id="a1_001"  >
<polygon points="6,90 13,90 18,85 13,80 6,80 6,90 " style="fill:white; stroke-width:1; stroke:black; " description="&lt;b&gt;DB034_RS04605&lt;/b&gt;&lt;br&gt;YafY family transcriptional regulator&lt;br&gt;Location: 122529 - 123194" locus_tag="DB034_RS04605" class="clusterblast-orf" id="dummy-1_h1_2_1"  />
</g>
<g id="a1_002"  >
<polygon points="20,85 25,80 26,80 26,90 25,90 20,85 " style="fill:white; stroke-width:1; stroke:black; " description="&lt;b&gt;DB034_RS04610&lt;/b&gt;&lt;br&gt;hypothetical protein&lt;br&gt;Location: 123286 - 123645" locus_tag="DB034_RS04610" class="clusterblast-orf" id="dummy-1_h1_2_2"  />
</g>
<g id="a1_003"  >
<polygon points="26,85 31,80 33,80 33,90 31,90 26,85 " style="fill:white; stroke-width:1; stroke:black; " description="&lt;b&gt;DB034_RS04615&lt;/b&gt;&lt;br&gt;hypothetical protein&lt;br&gt;Location: 123638 - 123991" locus_tag="DB034_RS04615" class="clusterblast-orf" id="dummy-1_h1_2_3"  />
</g>
<g id="a1_004"  >
<polygon points="33,85 38,80 53,80 53,90 38,90 33,85 " style="fill:white; stroke-width:1; stroke:black; " description="&lt;b&gt;DB034_RS04620&lt;/b&gt;&lt;br&gt;ABC transporter ATP-binding protein&lt;br&gt;Location: 123984 - 125084" locus_tag="DB034_RS04620" class="clusterblast-orf" id="dummy-1_h1_2_4"  />
</g>
<g id="a1_005"  >
<polygon points="54,85 59,80 59,80 59,90 59,90 54,85 " style="fill:white; stroke-width:1; stroke:black; " description="&lt;b&gt;DB034_RS04625&lt;/b&gt;&lt;br&gt;sodium:proline symporter&lt;br&gt;Location: 125118 - 125384" locus_tag="DB034_RS04625" class="clusterblast-orf" id="dummy-1_h1_2_5"  />
</g>
<g id="a1_006"  >
<polygon points="63,85 68,80 84,80 84,90 68,90 63,85 " style="fill:white; stroke-width:1; stroke:black; " description="&lt;b&gt;DB034_RS04630&lt;/b&gt;&lt;br&gt;hypothetical protein&lt;br&gt;Location: 125621 - 126745" locus_tag="DB034_RS04630" class="clusterblast-orf" id="dummy-1_h1_2_6"  />
</g>
<g id="a1_007"  >
<polygon points="84,85 89,80 91,80 91,90 89,90 84,85 " style="fill:white; stroke-width:1; stroke:black; " description="&lt;b&gt;DB034_RS04635&lt;/b&gt;&lt;br&gt;hypothetical protein&lt;br&gt;Location: 126748 - 127134" locus_tag="DB034_RS04635" class="clusterblast-orf" id="dummy-1_h1_2_7"  />
</g>
<g id="a1_008"  >
<polygon points="91,85 96,80 106,80 106,90 96,90 91,85 " style="fill:#15d863; stroke-width:1; stroke:black; " description="&lt;b&gt;DB034_RS04640&lt;/b&gt;&lt;br&gt;SDR family oxidoreductase&lt;br&gt;Location: 127149 - 127928&lt;br&gt;&lt;br&gt;&lt;b&gt;BlastP hit with PADFOAJF_02845&lt;/b&gt;&lt;br&gt;Percentage identity: 76&lt;br&gt;Percentage coverage: 100&lt;br&gt;BLAST bit score: 394&lt;br&gt;E-value: 2.61e-138" locus_tag="DB034_RS04640" class="clusterblast-orf" id="dummy-1_h1_2_8"  />
</g>
<g id="a1_009"  >
<polygon points="109,90 122,90 127,85 122,80 109,80 109,90 " style="fill:#d8b115; stroke-width:1; stroke:black; " description="&lt;b&gt;DB034_RS04645&lt;/b&gt;&lt;br&gt;Hint domain-containing protein&lt;br&gt;Location: 128068 - 129081&lt;br&gt;&lt;br&gt;&lt;b&gt;BlastP hit with PADFOAJF_02844&lt;/b&gt;&lt;br&gt;Percentage identity: 38&lt;br&gt;Percentage coverage: 98&lt;br&gt;BLAST bit score: 206&lt;br&gt;E-value: 3.23e-62" locus_tag="DB034_RS04645" class="clusterblast-orf" id="dummy-1_h1_2_9"  />
</g>
<g id="a1_0010"  >
<polygon points="129,85 134,80 182,80 182,90 134,90 129,85 " style="fill:white; stroke-width:1; stroke:black; " description="&lt;b&gt;DB034_RS04650&lt;/b&gt;&lt;br&gt;calcium-binding protein&lt;br&gt;Location: 129160 - 132006" locus_tag="DB034_RS04650" class="clusterblast-orf" id="dummy-1_h1_2_10"  />
</g>
<g id="a1_0011"  >
<polygon points="185,85 190,80 190,80 190,90 190,90 185,85 " style="fill:white; stroke-width:1; stroke:black; " description="&lt;b&gt;DB034_RS04655&lt;/b&gt;&lt;br&gt;hypothetical protein&lt;br&gt;Location: 132188 - 132457" locus_tag="DB034_RS04655" class="clusterblast-orf" id="dummy-1_h1_2_11"  />
</g>
<g id="a1_0012"  >
<polygon points="192,85 197,80 211,80 211,90 197,90 192,85 " style="fill:white; stroke-width:1; stroke:black; " description="&lt;b&gt;DB034_RS04660&lt;/b&gt;&lt;br&gt;choline ABC transporter ATP-binding protein&lt;br&gt;Location: 132544 - 133560" locus_tag="DB034_RS04660" class="clusterblast-orf" id="dummy-1_h1_2_12"  />
</g>
<g id="a1_0013"  >
<polygon points="210,85 215,80 226,80 226,90 215,90 210,85 " style="fill:white; stroke-width:1; stroke:black; " description="&lt;b&gt;DB034_RS04665&lt;/b&gt;&lt;br&gt;choline ABC transporter permease subunit&lt;br&gt;Location: 133557 - 134390" locus_tag="DB034_RS04665" class="clusterblast-orf" id="dummy-1_h1_2_13"  />
</g>
<g id="a1_0014"  >
<polygon points="227,85 232,80 245,80 245,90 232,90 227,85 " style="fill:white; stroke-width:1; stroke:black; " description="&lt;b&gt;DB034_RS04670&lt;/b&gt;&lt;br&gt;choline ABC transporter substrate-binding protein&lt;br&gt;Location: 134473 - 135396" locus_tag="DB034_RS04670" class="clusterblast-orf" id="dummy-1_h1_2_14"  />
</g>
<g id="a1_0015"  >
<polygon points="253,90 298,90 303,85 298,80 253,80 253,90 " style="fill:white; stroke-width:1; stroke:black; " description="&lt;b&gt;DB034_RS04675&lt;/b&gt;&lt;br&gt;glycosyltransferase&lt;br&gt;Location: 135839 - 138526" locus_tag="DB034_RS04675" class="clusterblast-orf" id="dummy-1_h1_2_15"  />
</g>
<g id="a1_0016"  >
<polygon points="307,90 345,90 350,85 345,80 307,80 307,90 " style="fill:#1563d8; stroke-width:1; stroke:black; " description="&lt;b&gt;DB034_RS04680&lt;/b&gt;&lt;br&gt;methyltransferase domain-containing protein&lt;br&gt;Location: 138757 - 141066&lt;br&gt;&lt;br&gt;&lt;b&gt;BlastP hit with PADFOAJF_02839&lt;/b&gt;&lt;br&gt;Percentage identity: 59&lt;br&gt;Percentage coverage: 100&lt;br&gt;BLAST bit score: 939&lt;br&gt;E-value: 0.0" locus_tag="DB034_RS04680" class="clusterblast-orf" id="dummy-1_h1_2_16"  />
</g>
<g id="a1_0017"  >
<polygon points="350,85 355,80 369,80 369,90 355,90 350,85 " style="fill:white; stroke-width:1; stroke:black; " description="&lt;b&gt;DB034_RS04685&lt;/b&gt;&lt;br&gt;hypothetical protein&lt;br&gt;Location: 141081 - 142100" locus_tag="DB034_RS04685" class="clusterblast-orf" id="dummy-1_h1_2_17"  />
</g>
<g id="a1_0018"  >
<polygon points="371,90 405,90 410,85 405,80 371,80 371,90 " style="fill:#d815b1; stroke-width:1; stroke:black; " description="&lt;b&gt;DB034_RS04690&lt;/b&gt;&lt;br&gt;AMP-binding protein&lt;br&gt;Location: 142196 - 144274&lt;br&gt;&lt;br&gt;&lt;b&gt;BlastP hit with PADFOAJF_02840&lt;/b&gt;&lt;br&gt;Percentage identity: 50&lt;br&gt;Percentage coverage: 102&lt;br&gt;BLAST bit score: 609&lt;br&gt;E-value: 3.69e-210" locus_tag="DB034_RS04690" class="clusterblast-orf" id="dummy-1_h1_2_18"  />
</g>
<g id="a1_0019"  >
<polygon points="409,90 438,90 443,85 438,80 409,80 409,90 " style="fill:white; stroke-width:1; stroke:black; " description="&lt;b&gt;DB034_RS04695&lt;/b&gt;&lt;br&gt;polyketide synthase&lt;br&gt;Location: 144271 - 146088" locus_tag="DB034_RS04695" class="clusterblast-orf" id="dummy-1_h1_2_19"  />
</g>
<g id="a1_0020"  >
<polygon points="445,85 450,80 459,80 459,90 450,90 445,85 " style="fill:white; stroke-width:1; stroke:black; " description="&lt;b&gt;DB034_RS04700&lt;/b&gt;&lt;br&gt;class I SAM-dependent methyltransferase&lt;br&gt;Location: 146191 - 146961" locus_tag="DB034_RS04700" class="clusterblast-orf" id="dummy-1_h1_2_20"  />
</g>
<g id="a1_0021"  >
<polygon points="461,90 461,90 466,85 461,80 461,80 461,90 " style="fill:#d81515; stroke-width:1; stroke:black; " description="&lt;b&gt;DB034_RS04705&lt;/b&gt;&lt;br&gt;acyl carrier protein&lt;br&gt;Location: 147050 - 147337&lt;br&gt;&lt;br&gt;&lt;b&gt;BlastP hit with PADFOAJF_02830&lt;/b&gt;&lt;br&gt;Percentage identity: 68&lt;br&gt;Percentage coverage: 85&lt;br&gt;BLAST bit score: 117&lt;br&gt;E-value: 7.3e-34" locus_tag="DB034_RS04705" class="clusterblast-orf" id="dummy-1_h1_2_21"  />
</g>
<g id="a1_0022"  >
<polygon points="467,90 485,90 490,85 485,80 467,80 467,90 " style="fill:#63d815; stroke-width:1; stroke:black; " description="&lt;b&gt;DB034_RS04710&lt;/b&gt;&lt;br&gt;polysaccharide pyruvyl transferase family protein&lt;br&gt;Location: 147388 - 148632&lt;br&gt;&lt;br&gt;&lt;b&gt;BlastP hit with PADFOAJF_02831&lt;/b&gt;&lt;br&gt;Percentage identity: 62&lt;br&gt;Percentage coverage: 99&lt;br&gt;BLAST bit score: 512&lt;br&gt;E-value: 6.75e-180&lt;br&gt;&lt;br&gt;&lt;b&gt;BlastP hit with PADFOAJF_02837&lt;/b&gt;&lt;br&gt;Percentage identity: 38&lt;br&gt;Percentage coverage: 94&lt;br&gt;BLAST bit score: 206&lt;br&gt;E-value: 1.24e-60" locus_tag="DB034_RS04710" class="clusterblast-orf" id="dummy-1_h1_2_22"  />
</g>
<g id="a1_0023"  >
<polygon points="491,90 502,90 507,85 502,80 491,80 491,90 " style="fill:#15b1d8; stroke-width:1; stroke:black; " description="&lt;b&gt;DB034_RS04715&lt;/b&gt;&lt;br&gt;phytanoyl-CoA dioxygenase family protein&lt;br&gt;Location: 148636 - 149502&lt;br&gt;&lt;br&gt;&lt;b&gt;BlastP hit with PADFOAJF_02832&lt;/b&gt;&lt;br&gt;Percentage identity: 64&lt;br&gt;Percentage coverage: 92&lt;br&gt;BLAST bit score: 342&lt;br&gt;E-value: 7.24e-117&lt;br&gt;&lt;br&gt;&lt;b&gt;BlastP hit with PADFOAJF_02833&lt;/b&gt;&lt;br&gt;Percentage identity: 42&lt;br&gt;Percentage coverage: 96&lt;br&gt;BLAST bit score: 218&lt;br&gt;E-value: 3.47e-68" locus_tag="DB034_RS04715" class="clusterblast-orf" id="dummy-1_h1_2_23"  />
</g>
<g id="a1_0024"  >
<polygon points="507,90 517,90 522,85 517,80 507,80 507,90 " style="fill:#15b1d8; stroke-width:1; stroke:black; " description="&lt;b&gt;DB034_RS04720&lt;/b&gt;&lt;br&gt;phytanoyl-CoA dioxygenase&lt;br&gt;Location: 149499 - 150323&lt;br&gt;&lt;br&gt;&lt;b&gt;BlastP hit with PADFOAJF_02832&lt;/b&gt;&lt;br&gt;Percentage identity: 49&lt;br&gt;Percentage coverage: 90&lt;br&gt;BLAST bit score: 227&lt;br&gt;E-value: 6.41e-72&lt;br&gt;&lt;br&gt;&lt;b&gt;BlastP hit with PADFOAJF_02833&lt;/b&gt;&lt;br&gt;Percentage identity: 66&lt;br&gt;Percentage coverage: 99&lt;br&gt;BLAST bit score: 367&lt;br&gt;E-value: 3.3e-127" locus_tag="DB034_RS04720" class="clusterblast-orf" id="dummy-1_h1_2_24"  />
</g>
<g id="a1_0025"  >
<polygon points="522,85 527,80 538,80 538,90 527,90 522,85 " style="fill:#b115d8; stroke-width:1; stroke:black; " description="&lt;b&gt;DB034_RS04725&lt;/b&gt;&lt;br&gt;glycosyltransferase&lt;br&gt;Location: 150320 - 151177&lt;br&gt;&lt;br&gt;&lt;b&gt;BlastP hit with PADFOAJF_02834&lt;/b&gt;&lt;br&gt;Percentage identity: 61&lt;br&gt;Percentage coverage: 99&lt;br&gt;BLAST bit score: 349&lt;br&gt;E-value: 8.16e-120" locus_tag="DB034_RS04725" class="clusterblast-orf" id="dummy-1_h1_2_25"  />
</g>
<g id="a1_0026"  >
<polygon points="539,90 556,90 561,85 556,80 539,80 539,90 " style="fill:#d86315; stroke-width:1; stroke:black; " description="&lt;b&gt;DB034_RS04730&lt;/b&gt;&lt;br&gt;cytochrome P450&lt;br&gt;Location: 151253 - 152410&lt;br&gt;&lt;br&gt;&lt;b&gt;BlastP hit with PADFOAJF_02835&lt;/b&gt;&lt;br&gt;Percentage identity: 43&lt;br&gt;Percentage coverage: 95&lt;br&gt;BLAST bit score: 266&lt;br&gt;E-value: 2.7e-84" locus_tag="DB034_RS04730" class="clusterblast-orf" id="dummy-1_h1_2_26"  />
</g>
<g id="a1_0027"  >
<polygon points="563,90 612,90 617,85 612,80 563,80 563,90 " style="fill:#63d815; stroke-width:1; stroke:black; " description="&lt;b&gt;DB034_RS04735&lt;/b&gt;&lt;br&gt;polysaccharide pyruvyl transferase family protein&lt;br&gt;Location: 152547 - 155447&lt;br&gt;&lt;br&gt;&lt;b&gt;BlastP hit with PADFOAJF_02831&lt;/b&gt;&lt;br&gt;Percentage identity: 38&lt;br&gt;Percentage coverage: 89&lt;br&gt;BLAST bit score: 225&lt;br&gt;E-value: 1.52e-63&lt;br&gt;&lt;br&gt;&lt;b&gt;BlastP hit with PADFOAJF_02837&lt;/b&gt;&lt;br&gt;Percentage identity: 56&lt;br&gt;Percentage coverage: 97&lt;br&gt;BLAST bit score: 428&lt;br&gt;E-value: 4.24e-140&lt;br&gt;&lt;br&gt;&lt;b&gt;BlastP hit with PADFOAJF_02838&lt;/b&gt;&lt;br&gt;Percentage identity: 42&lt;br&gt;Percentage coverage: 98&lt;br&gt;BLAST bit score: 407&lt;br&gt;E-value: 7.19e-130" locus_tag="DB034_RS04735" class="clusterblast-orf" id="dummy-1_h1_2_27"  />
</g>
<g id="a1_0028"  >
<polygon points="626,90 636,90 641,85 636,80 626,80 626,90 " style="fill:white; stroke-width:1; stroke:black; " description="&lt;b&gt;DB034_RS04745&lt;/b&gt;&lt;br&gt;SPOR domain-containing protein&lt;br&gt;Location: 155911 - 156750" locus_tag="DB034_RS04745" class="clusterblast-orf" id="dummy-1_h1_2_28"  />
</g>
<g id="a1_0029"  >
<polygon points="642,90 658,90 663,85 658,80 642,80 642,90 " style="fill:white; stroke-width:1; stroke:black; " description="&lt;b&gt;DB034_RS04750&lt;/b&gt;&lt;br&gt;D-alanyl-D-alanine carboxypeptidase&lt;br&gt;Location: 156772 - 157923" locus_tag="DB034_RS04750" class="clusterblast-orf" id="dummy-1_h1_2_29"  />
</g>
<g id="a1_0030"  >
<polygon points="663,90 670,90 675,85 670,80 663,80 663,90 " style="fill:white; stroke-width:1; stroke:black; " description="&lt;b&gt;DB034_RS04755&lt;/b&gt;&lt;br&gt;dTMP kinase&lt;br&gt;Location: 157914 - 158558" locus_tag="DB034_RS04755" class="clusterblast-orf" id="dummy-1_h1_2_30"  />
</g>
<g id="a1_0031"  >
<polygon points="677,85 682,80 690,80 690,90 682,90 677,85 " style="fill:white; stroke-width:1; stroke:black; " description="&lt;b&gt;DB034_RS04760&lt;/b&gt;&lt;br&gt;hypothetical protein&lt;br&gt;Location: 158675 - 159388" locus_tag="DB034_RS04760" class="clusterblast-orf" id="dummy-1_h1_2_31"  />
</g>
<g id="a1_0032"  >
<polygon points="695,90 711,90 716,85 711,80 695,80 695,90 " style="fill:white; stroke-width:1; stroke:black; " description="&lt;b&gt;DB034_RS04765&lt;/b&gt;&lt;br&gt;DNA polymerase III subunit delta'&lt;br&gt;Location: 159658 - 160773" locus_tag="DB034_RS04765" class="clusterblast-orf" id="dummy-1_h1_2_32"  />
</g>
<g id="a1_0033"  >
<polygon points="716,90 726,90 731,85 726,80 716,80 716,90 " style="fill:white; stroke-width:1; stroke:black; " description="&lt;b&gt;DB034_RS04770&lt;/b&gt;&lt;br&gt;TatD family hydrolase&lt;br&gt;Location: 160784 - 161584" locus_tag="DB034_RS04770" class="clusterblast-orf" id="dummy-1_h1_2_33"  />
</g>
<g id="a1_0034"  >
<polygon points="731,90 741,90 746,85 741,80 731,80 731,90 " style="fill:white; stroke-width:1; stroke:black; " description="&lt;b&gt;DB034_RS04775&lt;/b&gt;&lt;br&gt;MBL fold metallo-hydrolase&lt;br&gt;Location: 161584 - 162384" locus_tag="DB034_RS04775" class="clusterblast-orf" id="dummy-1_h1_2_34"  />
</g>
<g id="a1_0035"  >
<polygon points="747,90 760,90 765,85 760,80 747,80 747,90 " style="fill:white; stroke-width:1; stroke:black; " description="&lt;b&gt;DB034_RS04780&lt;/b&gt;&lt;br&gt;AEC family transporter&lt;br&gt;Location: 162467 - 163396" locus_tag="DB034_RS04780" class="clusterblast-orf" id="dummy-1_h1_2_35"  />
</g>
<g id="a1_0036"  >
<polygon points="765,85 770,80 780,80 780,90 770,90 765,85 " style="fill:white; stroke-width:1; stroke:black; " description="&lt;b&gt;DB034_RS04785&lt;/b&gt;&lt;br&gt;SDR family NAD(P)-dependent oxidoreductase&lt;br&gt;Location: 163412 - 164191" locus_tag="DB034_RS04785" class="clusterblast-orf" id="dummy-1_h1_2_36"  />
</g>
</svg>
