<svg xmlns="http://www.w3.org/2000/svg" xmlns:xlink="http://www.w3.org/1999/xlink" version="1.1" x="0" y="0" height="230" width="800" viewBox="0 0 800 230" preserveAspectRatio="none"  >
<g label="Query sequence" class="clusterblast-cluster"  >
<text x="5" y="20" class="clusterblast-acc"  >
Query sequence</text>
<line x1="10" y1="35" x2="778.0" y2="35" style="stroke-width:1; stroke:grey; "  />
<polygon points="18,40 54,40 59,35 54,30 18,30 18,40 " style="fill:white; stroke-width:1; stroke:black; " description="&lt;b&gt;PADFOAJF_03463&lt;/b&gt;&lt;br&gt;DNA mismatch repair protein MutS&lt;br&gt;Location: 163529 - 166193" locus_tag="PADFOAJF_03463" class="clusterblast-orf" id="dummy-1_q0_0_all"  />
<polygon points="60,35 65,30 68,30 68,40 65,40 60,35 " style="fill:white; stroke-width:1; stroke:black; " description="&lt;b&gt;PADFOAJF_03464&lt;/b&gt;&lt;br&gt;Protein GrpE&lt;br&gt;Location: 166281 - 166833" locus_tag="PADFOAJF_03464" class="clusterblast-orf" id="dummy-1_q1_0_all"  />
<polygon points="68,35 73,30 85,30 85,40 73,40 68,35 " style="fill:white; stroke-width:1; stroke:black; " description="&lt;b&gt;PADFOAJF_03465&lt;/b&gt;&lt;br&gt;Heat-inducible transcription repressor HrcA&lt;br&gt;Location: 166845 - 167913" locus_tag="PADFOAJF_03465" class="clusterblast-orf" id="dummy-1_q2_0_all"  />
<polygon points="86,40 92,40 97,35 92,30 86,30 86,40 " style="fill:white; stroke-width:1; stroke:black; " description="&lt;b&gt;PADFOAJF_03466&lt;/b&gt;&lt;br&gt;Ribonuclease PH&lt;br&gt;Location: 168006 - 168717" locus_tag="PADFOAJF_03466" class="clusterblast-orf" id="dummy-1_q3_0_all"  />
<polygon points="97,40 101,40 106,35 101,30 97,30 97,40 " style="fill:white; stroke-width:1; stroke:black; " description="&lt;b&gt;PADFOAJF_03467&lt;/b&gt;&lt;br&gt;dITP/XTP pyrophosphatase&lt;br&gt;Location: 168713 - 169313" locus_tag="PADFOAJF_03467" class="clusterblast-orf" id="dummy-1_q4_0_all"  />
<polygon points="106,40 118,40 123,35 118,30 106,30 106,40 " style="fill:white; stroke-width:1; stroke:black; " description="&lt;b&gt;PADFOAJF_03468&lt;/b&gt;&lt;br&gt;Heme chaperone HemW&lt;br&gt;Location: 169309 - 170473" locus_tag="PADFOAJF_03468" class="clusterblast-orf" id="dummy-1_q5_0_all"  />
<polygon points="123,35 128,30 137,30 137,40 128,40 123,35 " style="fill:white; stroke-width:1; stroke:black; " description="&lt;b&gt;PADFOAJF_03469&lt;/b&gt;&lt;br&gt;Chromosome-partitioning protein ParB&lt;br&gt;Location: 170479 - 171391" locus_tag="PADFOAJF_03469" class="clusterblast-orf" id="dummy-1_q6_0_all"  />
<polygon points="137,35 142,30 149,30 149,40 142,40 137,35 " style="fill:white; stroke-width:1; stroke:black; " description="&lt;b&gt;PADFOAJF_03470&lt;/b&gt;&lt;br&gt;Chromosome partitioning protein ParA&lt;br&gt;Location: 171392 - 172181" locus_tag="PADFOAJF_03470" class="clusterblast-orf" id="dummy-1_q7_0_all"  />
<polygon points="149,35 154,30 155,30 155,40 154,40 149,35 " style="fill:white; stroke-width:1; stroke:black; " description="&lt;b&gt;PADFOAJF_03471&lt;/b&gt;&lt;br&gt;Ribosomal RNA small subunit methyltransferase G&lt;br&gt;Location: 172183 - 172603" locus_tag="PADFOAJF_03471" class="clusterblast-orf" id="dummy-1_q8_0_all"  />
<polygon points="158,35 163,30 187,30 187,40 163,40 158,35 " style="fill:white; stroke-width:1; stroke:black; " description="&lt;b&gt;PADFOAJF_03472&lt;/b&gt;&lt;br&gt;tRNA uridine 5-carboxymethylaminomethyl modification enzyme MnmG&lt;br&gt;Location: 172796 - 174725" locus_tag="PADFOAJF_03472" class="clusterblast-orf" id="dummy-1_q9_0_all"  />
<polygon points="187,35 192,30 206,30 206,40 192,40 187,35 " style="fill:white; stroke-width:1; stroke:black; " description="&lt;b&gt;PADFOAJF_03473&lt;/b&gt;&lt;br&gt;tRNA modification GTPase MnmE&lt;br&gt;Location: 174681 - 175959" locus_tag="PADFOAJF_03473" class="clusterblast-orf" id="dummy-1_q10_0_all"  />
<polygon points="206,35 211,30 225,30 225,40 211,40 206,35 " style="fill:white; stroke-width:1; stroke:black; " description="&lt;b&gt;PADFOAJF_03474&lt;/b&gt;&lt;br&gt;Transcription termination factor Rho&lt;br&gt;Location: 175983 - 177255" locus_tag="PADFOAJF_03474" class="clusterblast-orf" id="dummy-1_q11_0_all"  />
<polygon points="233,40 237,40 242,35 237,30 233,30 233,40 " style="fill:white; stroke-width:1; stroke:black; " description="&lt;b&gt;PADFOAJF_03475&lt;/b&gt;&lt;br&gt;7-methyl-GTP pyrophosphatase&lt;br&gt;Location: 177740 - 178337" locus_tag="PADFOAJF_03475" class="clusterblast-orf" id="dummy-1_q12_0_all"  />
<polygon points="242,40 249,40 254,35 249,30 242,30 242,40 " style="fill:white; stroke-width:1; stroke:black; " description="&lt;b&gt;PADFOAJF_03476&lt;/b&gt;&lt;br&gt;Shikimate dehydrogenase (NADP(+))&lt;br&gt;Location: 178333 - 179155" locus_tag="PADFOAJF_03476" class="clusterblast-orf" id="dummy-1_q13_0_all"  />
<polygon points="254,40 258,40 263,35 258,30 254,30 254,40 " style="fill:white; stroke-width:1; stroke:black; " description="&lt;b&gt;PADFOAJF_03477&lt;/b&gt;&lt;br&gt;Dephospho-CoA kinase&lt;br&gt;Location: 179151 - 179748" locus_tag="PADFOAJF_03477" class="clusterblast-orf" id="dummy-1_q14_0_all"  />
<polygon points="263,40 268,40 273,35 268,30 263,30 263,40 " style="fill:white; stroke-width:1; stroke:black; " description="&lt;b&gt;PADFOAJF_03478&lt;/b&gt;&lt;br&gt;DNA polymerase III subunit epsilon&lt;br&gt;Location: 179740 - 180430" locus_tag="PADFOAJF_03478" class="clusterblast-orf" id="dummy-1_q15_0_all"  />
<polygon points="273,40 286,40 291,35 286,30 273,30 273,40 " style="fill:white; stroke-width:1; stroke:black; " description="&lt;b&gt;PADFOAJF_03479&lt;/b&gt;&lt;br&gt;3-dehydro-bile acid delta(4,6)-reductase&lt;br&gt;Location: 180419 - 181595" locus_tag="PADFOAJF_03479" class="clusterblast-orf" id="dummy-1_q16_0_all"  />
<polygon points="290,35 295,30 300,30 300,40 295,40 290,35 " style="fill:#d81515; stroke-width:1; stroke:black; " description="&lt;b&gt;PADFOAJF_03480&lt;/b&gt;&lt;br&gt;4'-phosphopantetheinyl transferase Npt&lt;br&gt;Location: 181572 - 182205" locus_tag="PADFOAJF_03480" class="clusterblast-orf" id="dummy-1_q17_0_all"  />
<polygon points="300,35 305,30 368,30 368,40 305,40 300,35 " style="fill:#77d815; stroke-width:1; stroke:black; " description="&lt;b&gt;PADFOAJF_03481&lt;/b&gt;&lt;br&gt;D-alanine--D-alanyl carrier protein ligase&lt;br&gt;Location: 182201 - 186719" locus_tag="PADFOAJF_03481" class="clusterblast-orf" id="dummy-1_q18_0_all"  />
<polygon points="368,35 373,30 382,30 382,40 373,40 368,35 " style="fill:#15d8d8; stroke-width:1; stroke:black; " description="&lt;b&gt;PADFOAJF_03482&lt;/b&gt;&lt;br&gt;hypothetical protein&lt;br&gt;Location: 186744 - 187659" locus_tag="PADFOAJF_03482" class="clusterblast-orf" id="dummy-1_q19_0_all"  />
<polygon points="382,35 387,30 478,30 478,40 387,40 382,35 " style="fill:#7715d8; stroke-width:1; stroke:black; " description="&lt;b&gt;PADFOAJF_03483&lt;/b&gt;&lt;br&gt;hypothetical protein&lt;br&gt;Location: 187655 - 193985" locus_tag="PADFOAJF_03483" class="clusterblast-orf" id="dummy-1_q20_0_all"  />
<polygon points="479,35 484,30 502,30 502,40 484,40 479,35 " style="fill:#d87715; stroke-width:1; stroke:black; " description="&lt;b&gt;PADFOAJF_03484&lt;/b&gt;&lt;br&gt;hypothetical protein&lt;br&gt;Location: 194078 - 195584" locus_tag="PADFOAJF_03484" class="clusterblast-orf" id="dummy-1_q21_0_all"  />
<polygon points="505,40 511,40 516,35 511,30 505,30 505,40 " style="fill:#15d815; stroke-width:1; stroke:black; " description="&lt;b&gt;PADFOAJF_03485&lt;/b&gt;&lt;br&gt;N-acetylglucosaminyldiphosphoundecaprenol N-acetyl-beta-D-mannosaminyltransferase&lt;br&gt;Location: 195773 - 196520" locus_tag="PADFOAJF_03485" class="clusterblast-orf" id="dummy-1_q22_0_all"  />
<polygon points="516,35 521,30 530,30 530,40 521,40 516,35 " style="fill:#1577d8; stroke-width:1; stroke:black; " description="&lt;b&gt;PADFOAJF_03486&lt;/b&gt;&lt;br&gt;hypothetical protein&lt;br&gt;Location: 196523 - 197489" locus_tag="PADFOAJF_03486" class="clusterblast-orf" id="dummy-1_q23_0_all"  />
<polygon points="533,40 545,40 550,35 545,30 533,30 533,40 " style="fill:white; stroke-width:1; stroke:black; " description="&lt;b&gt;PADFOAJF_03487&lt;/b&gt;&lt;br&gt;3-ketoacyl-CoA thiolase&lt;br&gt;Location: 197625 - 198795" locus_tag="PADFOAJF_03487" class="clusterblast-orf" id="dummy-1_q24_0_all"  />
<polygon points="550,40 569,40 574,35 569,30 550,30 550,40 " style="fill:white; stroke-width:1; stroke:black; " description="&lt;b&gt;PADFOAJF_03488&lt;/b&gt;&lt;br&gt;Long-chain-fatty-acid--CoA ligase FadD13&lt;br&gt;Location: 198791 - 200390" locus_tag="PADFOAJF_03488" class="clusterblast-orf" id="dummy-1_q25_0_all"  />
<polygon points="574,40 582,40 587,35 582,30 574,30 574,40 " style="fill:white; stroke-width:1; stroke:black; " description="&lt;b&gt;PADFOAJF_03489&lt;/b&gt;&lt;br&gt;hypothetical protein&lt;br&gt;Location: 200386 - 201208" locus_tag="PADFOAJF_03489" class="clusterblast-orf" id="dummy-1_q26_0_all"  />
<polygon points="587,35 592,30 597,30 597,40 592,40 587,35 " style="fill:white; stroke-width:1; stroke:black; " description="&lt;b&gt;PADFOAJF_03490&lt;/b&gt;&lt;br&gt;HTH-type transcriptional regulator LutR&lt;br&gt;Location: 201217 - 201877" locus_tag="PADFOAJF_03490" class="clusterblast-orf" id="dummy-1_q27_0_all"  />
<polygon points="598,40 613,40 618,35 613,30 598,30 598,40 " style="fill:white; stroke-width:1; stroke:black; " description="&lt;b&gt;PADFOAJF_03491&lt;/b&gt;&lt;br&gt;hypothetical protein&lt;br&gt;Location: 201982 - 203323" locus_tag="PADFOAJF_03491" class="clusterblast-orf" id="dummy-1_q28_0_all"  />
<polygon points="619,40 636,40 641,35 636,30 619,30 619,40 " style="fill:white; stroke-width:1; stroke:black; " description="&lt;b&gt;PADFOAJF_03492&lt;/b&gt;&lt;br&gt;Long-chain-fatty-acid--CoA ligase&lt;br&gt;Location: 203342 - 204845" locus_tag="PADFOAJF_03492" class="clusterblast-orf" id="dummy-1_q29_0_all"  />
<polygon points="642,40 658,40 663,35 658,30 642,30 642,40 " style="fill:white; stroke-width:1; stroke:black; " description="&lt;b&gt;PADFOAJF_03493&lt;/b&gt;&lt;br&gt;Succinyl-diaminopimelate desuccinylase&lt;br&gt;Location: 204908 - 206285" locus_tag="PADFOAJF_03493" class="clusterblast-orf" id="dummy-1_q30_0_all"  />
<polygon points="663,35 668,30 671,30 671,40 668,40 663,35 " style="fill:white; stroke-width:1; stroke:black; " description="&lt;b&gt;PADFOAJF_03494&lt;/b&gt;&lt;br&gt;Isopentenyl-diphosphate Delta-isomerase&lt;br&gt;Location: 206281 - 206803" locus_tag="PADFOAJF_03494" class="clusterblast-orf" id="dummy-1_q31_0_all"  />
<polygon points="672,35 677,30 691,30 691,40 677,40 672,35 " style="fill:#d815d8; stroke-width:1; stroke:black; " description="&lt;b&gt;PADFOAJF_03495&lt;/b&gt;&lt;br&gt;hypothetical protein&lt;br&gt;Location: 206857 - 208165" locus_tag="PADFOAJF_03495" class="clusterblast-orf" id="dummy-1_q32_0_all"  />
<polygon points="692,35 697,30 705,30 705,40 697,40 692,35 " style="fill:#d8d815; stroke-width:1; stroke:black; " description="&lt;b&gt;PADFOAJF_03496&lt;/b&gt;&lt;br&gt;hypothetical protein&lt;br&gt;Location: 208177 - 209056" locus_tag="PADFOAJF_03496" class="clusterblast-orf" id="dummy-1_q33_0_all"  />
<polygon points="707,35 712,30 727,30 727,40 712,40 707,35 " style="fill:#15d877; stroke-width:1; stroke:black; " description="&lt;b&gt;PADFOAJF_03497&lt;/b&gt;&lt;br&gt;hypothetical protein&lt;br&gt;Location: 209166 - 210534" locus_tag="PADFOAJF_03497" class="clusterblast-orf" id="dummy-1_q34_0_all"  />
<polygon points="728,40 744,40 749,35 744,30 728,30 728,40 " style="fill:#1515d8; stroke-width:1; stroke:black; " description="&lt;b&gt;PADFOAJF_03498&lt;/b&gt;&lt;br&gt;D-inositol-3-phosphate glycosyltransferase&lt;br&gt;Location: 210603 - 211974" locus_tag="PADFOAJF_03498" class="clusterblast-orf" id="dummy-1_q35_0_all"  />
<polygon points="748,35 753,30 761,30 761,40 753,40 748,35 " style="fill:#d81577; stroke-width:1; stroke:black; " description="&lt;b&gt;PADFOAJF_03499&lt;/b&gt;&lt;br&gt;hypothetical protein&lt;br&gt;Location: 211946 - 212771" locus_tag="PADFOAJF_03499" class="clusterblast-orf" id="dummy-1_q36_0_all"  />
</g>
<g label="NZ_KE386893" description="NZ_KE386893 (29718-81879): Pseudodonghicola xiamenensis DSM 18339 G455DRAFT s... (33% of genes show similarity), NRPS-like,T1PKS" class="clusterblast-cluster"  >
<text x="5" y="70" class="clusterblast-acc"  >
<a xlink:href="https://antismash-db.secondarymetabolites.org/area.html?record=NZ_KE386893&amp;start=29718&amp;end=81879" target="_blank">NZ_KE386893 (29718-81879)</a>: Pseudodonghicola xiamenensis DSM 18339 G455DRAFT s... (33% of genes show similarity), NRPS-like,T1PKS</text>
<line x1="10" y1="85" x2="778.0" y2="85" style="stroke-width:1; stroke:grey; "  />
</g>
<g id="a1_000"  >
<polygon points="0,85 5,80 19,80 19,90 5,90 0,85 " style="fill:white; stroke-width:1; stroke:black; " description="&lt;b&gt;G455_RS0122365&lt;/b&gt;&lt;br&gt;histidinol dehydrogenase&lt;br&gt;Location: 30068 - 31369" locus_tag="G455_RS0122365" class="clusterblast-orf" id="dummy-1_h1_1_0"  />
</g>
<g id="a1_001"  >
<polygon points="20,85 25,80 27,80 27,90 25,90 20,85 " style="fill:white; stroke-width:1; stroke:black; " description="&lt;b&gt;G455_RS25300&lt;/b&gt;&lt;br&gt;GNAT family N-acetyltransferase&lt;br&gt;Location: 31418 - 31903" locus_tag="G455_RS25300" class="clusterblast-orf" id="dummy-1_h1_1_1"  />
</g>
<g id="a1_002"  >
<polygon points="27,85 32,80 39,80 39,90 32,90 27,85 " style="fill:white; stroke-width:1; stroke:black; " description="&lt;b&gt;G455_RS0122375&lt;/b&gt;&lt;br&gt;hypothetical protein&lt;br&gt;Location: 31900 - 32679" locus_tag="G455_RS0122375" class="clusterblast-orf" id="dummy-1_h1_1_2"  />
</g>
<g id="a1_003"  >
<polygon points="39,85 44,80 46,80 46,90 44,90 39,85 " style="fill:white; stroke-width:1; stroke:black; " description="&lt;b&gt;G455_RS0122380&lt;/b&gt;&lt;br&gt;DUF2948 family protein&lt;br&gt;Location: 32669 - 33139" locus_tag="G455_RS0122380" class="clusterblast-orf" id="dummy-1_h1_1_3"  />
</g>
<g id="a1_004"  >
<polygon points="46,85 51,80 65,80 65,90 51,90 46,85 " style="fill:white; stroke-width:1; stroke:black; " description="&lt;b&gt;G455_RS0122385&lt;/b&gt;&lt;br&gt;UDP-N-acetylglucosamine 1-carboxyvinyltransferase&lt;br&gt;Location: 33139 - 34404" locus_tag="G455_RS0122385" class="clusterblast-orf" id="dummy-1_h1_1_4"  />
</g>
<g id="a1_005"  >
<polygon points="65,85 67,80 67,90 65,85 " style="fill:white; stroke-width:1; stroke:black; " description="&lt;b&gt;G455_RS26750&lt;/b&gt;&lt;br&gt;hypothetical protein&lt;br&gt;Location: 34411 - 34575" locus_tag="G455_RS26750" class="clusterblast-orf" id="dummy-1_h1_1_5"  />
</g>
<g id="a1_006"  >
<polygon points="72,85 77,80 79,80 79,90 77,90 72,85 " style="fill:white; stroke-width:1; stroke:black; " description="&lt;b&gt;G455_RS0122400&lt;/b&gt;&lt;br&gt;PACE efflux transporter&lt;br&gt;Location: 34899 - 35327" locus_tag="G455_RS0122400" class="clusterblast-orf" id="dummy-1_h1_1_6"  />
</g>
<g id="a1_007"  >
<polygon points="81,85 86,80 103,80 103,90 86,90 81,85 " style="fill:white; stroke-width:1; stroke:black; " description="&lt;b&gt;G455_RS0122405&lt;/b&gt;&lt;br&gt;amidase&lt;br&gt;Location: 35485 - 36942" locus_tag="G455_RS0122405" class="clusterblast-orf" id="dummy-1_h1_1_7"  />
</g>
<g id="a1_008"  >
<polygon points="105,90 108,90 113,85 108,80 105,80 105,90 " style="fill:white; stroke-width:1; stroke:black; " description="&lt;b&gt;G455_RS0122410&lt;/b&gt;&lt;br&gt;thioesterase family protein&lt;br&gt;Location: 37084 - 37605" locus_tag="G455_RS0122410" class="clusterblast-orf" id="dummy-1_h1_1_8"  />
</g>
<g id="a1_009"  >
<polygon points="114,85 119,80 127,80 127,90 119,90 114,85 " style="fill:white; stroke-width:1; stroke:black; " description="&lt;b&gt;G455_RS25815&lt;/b&gt;&lt;br&gt;2-dehydro-3-deoxygalactonokinase&lt;br&gt;Location: 37661 - 38551" locus_tag="G455_RS25815" class="clusterblast-orf" id="dummy-1_h1_1_9"  />
</g>
<g id="a1_0010"  >
<polygon points="128,85 132,80 132,90 128,85 " style="fill:white; stroke-width:1; stroke:black; " description="&lt;b&gt;G455_RS0122420&lt;/b&gt;&lt;br&gt;EthD family reductase&lt;br&gt;Location: 38564 - 38872" locus_tag="G455_RS0122420" class="clusterblast-orf" id="dummy-1_h1_1_10"  />
</g>
<g id="a1_0011"  >
<polygon points="141,90 147,90 152,85 147,80 141,80 141,90 " style="fill:white; stroke-width:1; stroke:black; " description="&lt;b&gt;G455_RS0122425&lt;/b&gt;&lt;br&gt;sugar transferase&lt;br&gt;Location: 39427 - 40200" locus_tag="G455_RS0122425" class="clusterblast-orf" id="dummy-1_h1_1_11"  />
</g>
<g id="a1_0012"  >
<polygon points="153,90 161,90 166,85 161,80 153,80 153,90 " style="fill:#d8d815; stroke-width:1; stroke:black; " description="&lt;b&gt;G455_RS25310&lt;/b&gt;&lt;br&gt;CpsD/CapB family tyrosine-protein kinase&lt;br&gt;Location: 40242 - 41120&lt;br&gt;&lt;br&gt;&lt;b&gt;BlastP hit with PADFOAJF_03496&lt;/b&gt;&lt;br&gt;Percentage identity: 36&lt;br&gt;Percentage coverage: 81&lt;br&gt;BLAST bit score: 139&lt;br&gt;E-value: 3.04e-37" locus_tag="G455_RS25310" class="clusterblast-orf" id="dummy-1_h1_1_12"  />
</g>
<g id="a1_0013"  >
<polygon points="168,90 182,90 187,85 182,80 168,80 168,90 " style="fill:#d815d8; stroke-width:1; stroke:black; " description="&lt;b&gt;G455_RS25315&lt;/b&gt;&lt;br&gt;chain-length determining protein&lt;br&gt;Location: 41228 - 42472&lt;br&gt;&lt;br&gt;&lt;b&gt;BlastP hit with PADFOAJF_03495&lt;/b&gt;&lt;br&gt;Percentage identity: 35&lt;br&gt;Percentage coverage: 95&lt;br&gt;BLAST bit score: 214&lt;br&gt;E-value: 5.77e-63" locus_tag="G455_RS25315" class="clusterblast-orf" id="dummy-1_h1_1_13"  />
</g>
<g id="a1_0014"  >
<polygon points="188,85 193,80 208,80 208,90 193,90 188,85 " style="fill:#15d877; stroke-width:1; stroke:black; " description="&lt;b&gt;G455_RS0122440&lt;/b&gt;&lt;br&gt;oligosaccharide flippase family protein&lt;br&gt;Location: 42550 - 43917&lt;br&gt;&lt;br&gt;&lt;b&gt;BlastP hit with PADFOAJF_03497&lt;/b&gt;&lt;br&gt;Percentage identity: 48&lt;br&gt;Percentage coverage: 91&lt;br&gt;BLAST bit score: 372&lt;br&gt;E-value: 1.73e-123" locus_tag="G455_RS0122440" class="clusterblast-orf" id="dummy-1_h1_1_14"  />
</g>
<g id="a1_0015"  >
<polygon points="212,90 226,90 231,85 226,80 212,80 212,90 " style="fill:#1515d8; stroke-width:1; stroke:black; " description="&lt;b&gt;G455_RS0122445&lt;/b&gt;&lt;br&gt;glycosyltransferase&lt;br&gt;Location: 44190 - 45404&lt;br&gt;&lt;br&gt;&lt;b&gt;BlastP hit with PADFOAJF_03498&lt;/b&gt;&lt;br&gt;Percentage identity: 57&lt;br&gt;Percentage coverage: 87&lt;br&gt;BLAST bit score: 430&lt;br&gt;E-value: 3.52e-147" locus_tag="G455_RS0122445" class="clusterblast-orf" id="dummy-1_h1_1_15"  />
</g>
<g id="a1_0016"  >
<polygon points="231,85 236,80 244,80 244,90 236,90 231,85 " style="fill:#d81577; stroke-width:1; stroke:black; " description="&lt;b&gt;G455_RS0122450&lt;/b&gt;&lt;br&gt;glycosyltransferase&lt;br&gt;Location: 45412 - 46257&lt;br&gt;&lt;br&gt;&lt;b&gt;BlastP hit with PADFOAJF_03499&lt;/b&gt;&lt;br&gt;Percentage identity: 54&lt;br&gt;Percentage coverage: 101&lt;br&gt;BLAST bit score: 268&lt;br&gt;E-value: 6.73e-88" locus_tag="G455_RS0122450" class="clusterblast-orf" id="dummy-1_h1_1_16"  />
</g>
<g id="a1_0017"  >
<polygon points="244,85 249,80 270,80 270,90 249,90 244,85 " style="fill:white; stroke-width:1; stroke:black; " description="&lt;b&gt;G455_RS0122455&lt;/b&gt;&lt;br&gt;hypothetical protein&lt;br&gt;Location: 46254 - 47984" locus_tag="G455_RS0122455" class="clusterblast-orf" id="dummy-1_h1_1_17"  />
</g>
<g id="a1_0018"  >
<polygon points="270,85 275,80 284,80 284,90 275,90 270,85 " style="fill:white; stroke-width:1; stroke:black; " description="&lt;b&gt;G455_RS0122460&lt;/b&gt;&lt;br&gt;hypothetical protein&lt;br&gt;Location: 47981 - 48946" locus_tag="G455_RS0122460" class="clusterblast-orf" id="dummy-1_h1_1_18"  />
</g>
<g id="a1_0019"  >
<polygon points="285,85 290,80 296,80 296,90 290,90 285,85 " style="fill:#d81515; stroke-width:1; stroke:black; " description="&lt;b&gt;G455_RS0122465&lt;/b&gt;&lt;br&gt;4'-phosphopantetheinyl transferase superfamily protein&lt;br&gt;Location: 49015 - 49722&lt;br&gt;&lt;br&gt;&lt;b&gt;BlastP hit with PADFOAJF_03480&lt;/b&gt;&lt;br&gt;Percentage identity: 43&lt;br&gt;Percentage coverage: 92&lt;br&gt;BLAST bit score: 122&lt;br&gt;E-value: 1.15e-32" locus_tag="G455_RS0122465" class="clusterblast-orf" id="dummy-1_h1_1_19"  />
</g>
<g id="a1_0020"  >
<polygon points="296,85 301,80 366,80 366,90 301,90 296,85 " style="fill:#77d815; stroke-width:1; stroke:black; " description="&lt;b&gt;G455_RS0122470&lt;/b&gt;&lt;br&gt;LLM class flavin-dependent oxidoreductase&lt;br&gt;Location: 49719 - 54365&lt;br&gt;&lt;br&gt;&lt;b&gt;BlastP hit with PADFOAJF_03481&lt;/b&gt;&lt;br&gt;Percentage identity: 57&lt;br&gt;Percentage coverage: 104&lt;br&gt;BLAST bit score: 1603&lt;br&gt;E-value: 0.0" locus_tag="G455_RS0122470" class="clusterblast-orf" id="dummy-1_h1_1_20"  />
</g>
<g id="a1_0021"  >
<polygon points="366,85 371,80 381,80 381,90 371,90 366,85 " style="fill:#15d8d8; stroke-width:1; stroke:black; " description="&lt;b&gt;G455_RS0122475&lt;/b&gt;&lt;br&gt;glycosyltransferase family 2 protein&lt;br&gt;Location: 54375 - 55370&lt;br&gt;&lt;br&gt;&lt;b&gt;BlastP hit with PADFOAJF_03482&lt;/b&gt;&lt;br&gt;Percentage identity: 58&lt;br&gt;Percentage coverage: 101&lt;br&gt;BLAST bit score: 356&lt;br&gt;E-value: 2.04e-121" locus_tag="G455_RS0122475" class="clusterblast-orf" id="dummy-1_h1_1_21"  />
</g>
<g id="a1_0022"  >
<polygon points="381,85 386,80 479,80 479,90 386,90 381,85 " style="fill:#7715d8; stroke-width:1; stroke:black; " description="&lt;b&gt;G455_RS0122480&lt;/b&gt;&lt;br&gt;type I polyketide synthase&lt;br&gt;Location: 55376 - 61879&lt;br&gt;&lt;br&gt;&lt;b&gt;BlastP hit with PADFOAJF_03483&lt;/b&gt;&lt;br&gt;Percentage identity: 58&lt;br&gt;Percentage coverage: 102&lt;br&gt;BLAST bit score: 2367&lt;br&gt;E-value: 0.0" locus_tag="G455_RS0122480" class="clusterblast-orf" id="dummy-1_h1_1_22"  />
</g>
<g id="a1_0023"  >
<polygon points="483,85 488,80 505,80 505,90 488,90 483,85 " style="fill:#d87715; stroke-width:1; stroke:black; " description="&lt;b&gt;G455_RS0122485&lt;/b&gt;&lt;br&gt;membrane protein&lt;br&gt;Location: 62158 - 63600&lt;br&gt;&lt;br&gt;&lt;b&gt;BlastP hit with PADFOAJF_03484&lt;/b&gt;&lt;br&gt;Percentage identity: 42&lt;br&gt;Percentage coverage: 99&lt;br&gt;BLAST bit score: 386&lt;br&gt;E-value: 4.88e-128" locus_tag="G455_RS0122485" class="clusterblast-orf" id="dummy-1_h1_1_23"  />
</g>
<g id="a1_0024"  >
<polygon points="509,90 515,90 520,85 515,80 509,80 509,90 " style="fill:#15d815; stroke-width:1; stroke:black; " description="&lt;b&gt;G455_RS0122490&lt;/b&gt;&lt;br&gt;WecB/TagA/CpsF family glycosyltransferase&lt;br&gt;Location: 63869 - 64588&lt;br&gt;&lt;br&gt;&lt;b&gt;BlastP hit with PADFOAJF_03485&lt;/b&gt;&lt;br&gt;Percentage identity: 55&lt;br&gt;Percentage coverage: 95&lt;br&gt;BLAST bit score: 258&lt;br&gt;E-value: 4.02e-85" locus_tag="G455_RS0122490" class="clusterblast-orf" id="dummy-1_h1_1_24"  />
</g>
<g id="a1_0025"  >
<polygon points="522,85 527,80 536,80 536,90 527,90 522,85 " style="fill:#1577d8; stroke-width:1; stroke:black; " description="&lt;b&gt;G455_RS0122495&lt;/b&gt;&lt;br&gt;glycosyltransferase&lt;br&gt;Location: 64716 - 65681&lt;br&gt;&lt;br&gt;&lt;b&gt;BlastP hit with PADFOAJF_03486&lt;/b&gt;&lt;br&gt;Percentage identity: 61&lt;br&gt;Percentage coverage: 98&lt;br&gt;BLAST bit score: 384&lt;br&gt;E-value: 3.21e-132" locus_tag="G455_RS0122495" class="clusterblast-orf" id="dummy-1_h1_1_25"  />
</g>
<g id="a1_0026"  >
<polygon points="538,90 547,90 552,85 547,80 538,80 538,90 " style="fill:white; stroke-width:1; stroke:black; " description="&lt;b&gt;G455_RS0122500&lt;/b&gt;&lt;br&gt;ROK family protein&lt;br&gt;Location: 65807 - 66742" locus_tag="G455_RS0122500" class="clusterblast-orf" id="dummy-1_h1_1_26"  />
</g>
<g id="a1_0027"  >
<polygon points="552,85 557,80 607,80 607,90 557,90 552,85 " style="fill:white; stroke-width:1; stroke:black; " description="&lt;b&gt;G455_RS0122505&lt;/b&gt;&lt;br&gt;translocation/assembly module TamB&lt;br&gt;Location: 66736 - 70377" locus_tag="G455_RS0122505" class="clusterblast-orf" id="dummy-1_h1_1_27"  />
</g>
<g id="a1_0028"  >
<polygon points="608,85 613,80 635,80 635,90 613,90 608,85 " style="fill:white; stroke-width:1; stroke:black; " description="&lt;b&gt;G455_RS0122510&lt;/b&gt;&lt;br&gt;BamA/TamA family outer membrane protein&lt;br&gt;Location: 70422 - 72239" locus_tag="G455_RS0122510" class="clusterblast-orf" id="dummy-1_h1_1_28"  />
</g>
<g id="a1_0029"  >
<polygon points="639,85 644,80 654,80 654,90 644,90 639,85 " style="fill:white; stroke-width:1; stroke:black; " description="&lt;b&gt;G455_RS0122515&lt;/b&gt;&lt;br&gt;aldehyde dehydrogenase&lt;br&gt;Location: 72474 - 73460" locus_tag="G455_RS0122515" class="clusterblast-orf" id="dummy-1_h1_1_29"  />
</g>
<g id="a1_0030"  >
<polygon points="655,85 660,80 660,80 660,90 660,90 655,85 " style="fill:white; stroke-width:1; stroke:black; " description="&lt;b&gt;G455_RS25320&lt;/b&gt;&lt;br&gt;hypothetical protein&lt;br&gt;Location: 73556 - 73900" locus_tag="G455_RS25320" class="clusterblast-orf" id="dummy-1_h1_1_30"  />
</g>
<g id="a1_0031"  >
<polygon points="662,90 673,90 678,85 673,80 662,80 662,90 " style="fill:white; stroke-width:1; stroke:black; " description="&lt;b&gt;G455_RS0122525&lt;/b&gt;&lt;br&gt;hypothetical protein&lt;br&gt;Location: 74036 - 75049" locus_tag="G455_RS0122525" class="clusterblast-orf" id="dummy-1_h1_1_31"  />
</g>
<g id="a1_0032"  >
<polygon points="681,90 696,90 701,85 696,80 681,80 681,90 " style="fill:white; stroke-width:1; stroke:black; " description="&lt;b&gt;G455_RS0122530&lt;/b&gt;&lt;br&gt;MATE family efflux transporter&lt;br&gt;Location: 75242 - 76615" locus_tag="G455_RS0122530" class="clusterblast-orf" id="dummy-1_h1_1_32"  />
</g>
<g id="a1_0033"  >
<polygon points="707,90 719,90 724,85 719,80 707,80 707,90 " style="fill:white; stroke-width:1; stroke:black; " description="&lt;b&gt;G455_RS0122535&lt;/b&gt;&lt;br&gt;glycine cleavage system aminomethyltransferase GcvT&lt;br&gt;Location: 76970 - 78094" locus_tag="G455_RS0122535" class="clusterblast-orf" id="dummy-1_h1_1_33"  />
</g>
<g id="a1_0034"  >
<polygon points="724,90 725,90 730,85 725,80 724,80 724,90 " style="fill:white; stroke-width:1; stroke:black; " description="&lt;b&gt;G455_RS0122540&lt;/b&gt;&lt;br&gt;glycine cleavage system protein GcvH&lt;br&gt;Location: 78132 - 78491" locus_tag="G455_RS0122540" class="clusterblast-orf" id="dummy-1_h1_1_34"  />
</g>
<g id="a1_0035"  >
<polygon points="737,90 775,90 780,85 775,80 737,80 737,90 " style="fill:white; stroke-width:1; stroke:black; " description="&lt;b&gt;G455_RS0122545&lt;/b&gt;&lt;br&gt;aminomethyl-transferring glycine dehydrogenase&lt;br&gt;Location: 78950 - 81799" locus_tag="G455_RS0122545" class="clusterblast-orf" id="dummy-1_h1_1_35"  />
</g>
</svg>
