<svg xmlns="http://www.w3.org/2000/svg" xmlns:xlink="http://www.w3.org/1999/xlink" version="1.1" x="0" y="0" height="230" width="800" viewBox="0 0 800 230" preserveAspectRatio="none"  >
<g label="Query sequence" class="clusterblast-cluster"  >
<text x="5" y="20" class="clusterblast-acc"  >
Query sequence</text>
<line x1="10" y1="35" x2="778.0" y2="35" style="stroke-width:1; stroke:grey; "  />
<polygon points="4,40 41,40 46,35 41,30 4,30 4,40 " style="fill:white; stroke-width:1; stroke:black; " description="&lt;b&gt;PADFOAJF_03463&lt;/b&gt;&lt;br&gt;DNA mismatch repair protein MutS&lt;br&gt;Location: 163529 - 166193" locus_tag="PADFOAJF_03463" class="clusterblast-orf" id="dummy-1_q0_0_all"  />
<polygon points="47,35 52,30 56,30 56,40 52,40 47,35 " style="fill:white; stroke-width:1; stroke:black; " description="&lt;b&gt;PADFOAJF_03464&lt;/b&gt;&lt;br&gt;Protein GrpE&lt;br&gt;Location: 166281 - 166833" locus_tag="PADFOAJF_03464" class="clusterblast-orf" id="dummy-1_q1_0_all"  />
<polygon points="56,35 61,30 73,30 73,40 61,40 56,35 " style="fill:white; stroke-width:1; stroke:black; " description="&lt;b&gt;PADFOAJF_03465&lt;/b&gt;&lt;br&gt;Heat-inducible transcription repressor HrcA&lt;br&gt;Location: 166845 - 167913" locus_tag="PADFOAJF_03465" class="clusterblast-orf" id="dummy-1_q2_0_all"  />
<polygon points="74,40 81,40 86,35 81,30 74,30 74,40 " style="fill:white; stroke-width:1; stroke:black; " description="&lt;b&gt;PADFOAJF_03466&lt;/b&gt;&lt;br&gt;Ribonuclease PH&lt;br&gt;Location: 168006 - 168717" locus_tag="PADFOAJF_03466" class="clusterblast-orf" id="dummy-1_q3_0_all"  />
<polygon points="85,40 90,40 95,35 90,30 85,30 85,40 " style="fill:white; stroke-width:1; stroke:black; " description="&lt;b&gt;PADFOAJF_03467&lt;/b&gt;&lt;br&gt;dITP/XTP pyrophosphatase&lt;br&gt;Location: 168713 - 169313" locus_tag="PADFOAJF_03467" class="clusterblast-orf" id="dummy-1_q4_0_all"  />
<polygon points="95,40 108,40 113,35 108,30 95,30 95,40 " style="fill:white; stroke-width:1; stroke:black; " description="&lt;b&gt;PADFOAJF_03468&lt;/b&gt;&lt;br&gt;Heme chaperone HemW&lt;br&gt;Location: 169309 - 170473" locus_tag="PADFOAJF_03468" class="clusterblast-orf" id="dummy-1_q5_0_all"  />
<polygon points="113,35 118,30 127,30 127,40 118,40 113,35 " style="fill:white; stroke-width:1; stroke:black; " description="&lt;b&gt;PADFOAJF_03469&lt;/b&gt;&lt;br&gt;Chromosome-partitioning protein ParB&lt;br&gt;Location: 170479 - 171391" locus_tag="PADFOAJF_03469" class="clusterblast-orf" id="dummy-1_q6_0_all"  />
<polygon points="127,35 132,30 140,30 140,40 132,40 127,35 " style="fill:white; stroke-width:1; stroke:black; " description="&lt;b&gt;PADFOAJF_03470&lt;/b&gt;&lt;br&gt;Chromosome partitioning protein ParA&lt;br&gt;Location: 171392 - 172181" locus_tag="PADFOAJF_03470" class="clusterblast-orf" id="dummy-1_q7_0_all"  />
<polygon points="140,35 145,30 146,30 146,40 145,40 140,35 " style="fill:white; stroke-width:1; stroke:black; " description="&lt;b&gt;PADFOAJF_03471&lt;/b&gt;&lt;br&gt;Ribosomal RNA small subunit methyltransferase G&lt;br&gt;Location: 172183 - 172603" locus_tag="PADFOAJF_03471" class="clusterblast-orf" id="dummy-1_q8_0_all"  />
<polygon points="149,35 154,30 180,30 180,40 154,40 149,35 " style="fill:white; stroke-width:1; stroke:black; " description="&lt;b&gt;PADFOAJF_03472&lt;/b&gt;&lt;br&gt;tRNA uridine 5-carboxymethylaminomethyl modification enzyme MnmG&lt;br&gt;Location: 172796 - 174725" locus_tag="PADFOAJF_03472" class="clusterblast-orf" id="dummy-1_q9_0_all"  />
<polygon points="179,35 184,30 199,30 199,40 184,40 179,35 " style="fill:white; stroke-width:1; stroke:black; " description="&lt;b&gt;PADFOAJF_03473&lt;/b&gt;&lt;br&gt;tRNA modification GTPase MnmE&lt;br&gt;Location: 174681 - 175959" locus_tag="PADFOAJF_03473" class="clusterblast-orf" id="dummy-1_q10_0_all"  />
<polygon points="199,35 204,30 219,30 219,40 204,40 199,35 " style="fill:white; stroke-width:1; stroke:black; " description="&lt;b&gt;PADFOAJF_03474&lt;/b&gt;&lt;br&gt;Transcription termination factor Rho&lt;br&gt;Location: 175983 - 177255" locus_tag="PADFOAJF_03474" class="clusterblast-orf" id="dummy-1_q11_0_all"  />
<polygon points="227,40 231,40 236,35 231,30 227,30 227,40 " style="fill:white; stroke-width:1; stroke:black; " description="&lt;b&gt;PADFOAJF_03475&lt;/b&gt;&lt;br&gt;7-methyl-GTP pyrophosphatase&lt;br&gt;Location: 177740 - 178337" locus_tag="PADFOAJF_03475" class="clusterblast-orf" id="dummy-1_q12_0_all"  />
<polygon points="236,40 244,40 249,35 244,30 236,30 236,40 " style="fill:white; stroke-width:1; stroke:black; " description="&lt;b&gt;PADFOAJF_03476&lt;/b&gt;&lt;br&gt;Shikimate dehydrogenase (NADP(+))&lt;br&gt;Location: 178333 - 179155" locus_tag="PADFOAJF_03476" class="clusterblast-orf" id="dummy-1_q13_0_all"  />
<polygon points="249,40 253,40 258,35 253,30 249,30 249,40 " style="fill:white; stroke-width:1; stroke:black; " description="&lt;b&gt;PADFOAJF_03477&lt;/b&gt;&lt;br&gt;Dephospho-CoA kinase&lt;br&gt;Location: 179151 - 179748" locus_tag="PADFOAJF_03477" class="clusterblast-orf" id="dummy-1_q14_0_all"  />
<polygon points="258,40 264,40 269,35 264,30 258,30 258,40 " style="fill:white; stroke-width:1; stroke:black; " description="&lt;b&gt;PADFOAJF_03478&lt;/b&gt;&lt;br&gt;DNA polymerase III subunit epsilon&lt;br&gt;Location: 179740 - 180430" locus_tag="PADFOAJF_03478" class="clusterblast-orf" id="dummy-1_q15_0_all"  />
<polygon points="269,40 282,40 287,35 282,30 269,30 269,40 " style="fill:white; stroke-width:1; stroke:black; " description="&lt;b&gt;PADFOAJF_03479&lt;/b&gt;&lt;br&gt;3-dehydro-bile acid delta(4,6)-reductase&lt;br&gt;Location: 180419 - 181595" locus_tag="PADFOAJF_03479" class="clusterblast-orf" id="dummy-1_q16_0_all"  />
<polygon points="287,35 292,30 297,30 297,40 292,40 287,35 " style="fill:#d81515; stroke-width:1; stroke:black; " description="&lt;b&gt;PADFOAJF_03480&lt;/b&gt;&lt;br&gt;4'-phosphopantetheinyl transferase Npt&lt;br&gt;Location: 181572 - 182205" locus_tag="PADFOAJF_03480" class="clusterblast-orf" id="dummy-1_q17_0_all"  />
<polygon points="297,35 302,30 367,30 367,40 302,40 297,35 " style="fill:#77d815; stroke-width:1; stroke:black; " description="&lt;b&gt;PADFOAJF_03481&lt;/b&gt;&lt;br&gt;D-alanine--D-alanyl carrier protein ligase&lt;br&gt;Location: 182201 - 186719" locus_tag="PADFOAJF_03481" class="clusterblast-orf" id="dummy-1_q18_0_all"  />
<polygon points="368,35 373,30 382,30 382,40 373,40 368,35 " style="fill:#15d8d8; stroke-width:1; stroke:black; " description="&lt;b&gt;PADFOAJF_03482&lt;/b&gt;&lt;br&gt;hypothetical protein&lt;br&gt;Location: 186744 - 187659" locus_tag="PADFOAJF_03482" class="clusterblast-orf" id="dummy-1_q19_0_all"  />
<polygon points="382,35 387,30 481,30 481,40 387,40 382,35 " style="fill:#7715d8; stroke-width:1; stroke:black; " description="&lt;b&gt;PADFOAJF_03483&lt;/b&gt;&lt;br&gt;hypothetical protein&lt;br&gt;Location: 187655 - 193985" locus_tag="PADFOAJF_03483" class="clusterblast-orf" id="dummy-1_q20_0_all"  />
<polygon points="482,35 487,30 506,30 506,40 487,40 482,35 " style="fill:#d87715; stroke-width:1; stroke:black; " description="&lt;b&gt;PADFOAJF_03484&lt;/b&gt;&lt;br&gt;hypothetical protein&lt;br&gt;Location: 194078 - 195584" locus_tag="PADFOAJF_03484" class="clusterblast-orf" id="dummy-1_q21_0_all"  />
<polygon points="509,40 516,40 521,35 516,30 509,30 509,40 " style="fill:#15d815; stroke-width:1; stroke:black; " description="&lt;b&gt;PADFOAJF_03485&lt;/b&gt;&lt;br&gt;N-acetylglucosaminyldiphosphoundecaprenol N-acetyl-beta-D-mannosaminyltransferase&lt;br&gt;Location: 195773 - 196520" locus_tag="PADFOAJF_03485" class="clusterblast-orf" id="dummy-1_q22_0_all"  />
<polygon points="521,35 526,30 536,30 536,40 526,40 521,35 " style="fill:#1577d8; stroke-width:1; stroke:black; " description="&lt;b&gt;PADFOAJF_03486&lt;/b&gt;&lt;br&gt;hypothetical protein&lt;br&gt;Location: 196523 - 197489" locus_tag="PADFOAJF_03486" class="clusterblast-orf" id="dummy-1_q23_0_all"  />
<polygon points="538,40 551,40 556,35 551,30 538,30 538,40 " style="fill:white; stroke-width:1; stroke:black; " description="&lt;b&gt;PADFOAJF_03487&lt;/b&gt;&lt;br&gt;3-ketoacyl-CoA thiolase&lt;br&gt;Location: 197625 - 198795" locus_tag="PADFOAJF_03487" class="clusterblast-orf" id="dummy-1_q24_0_all"  />
<polygon points="556,40 576,40 581,35 576,30 556,30 556,40 " style="fill:white; stroke-width:1; stroke:black; " description="&lt;b&gt;PADFOAJF_03488&lt;/b&gt;&lt;br&gt;Long-chain-fatty-acid--CoA ligase FadD13&lt;br&gt;Location: 198791 - 200390" locus_tag="PADFOAJF_03488" class="clusterblast-orf" id="dummy-1_q25_0_all"  />
<polygon points="581,40 589,40 594,35 589,30 581,30 581,40 " style="fill:white; stroke-width:1; stroke:black; " description="&lt;b&gt;PADFOAJF_03489&lt;/b&gt;&lt;br&gt;hypothetical protein&lt;br&gt;Location: 200386 - 201208" locus_tag="PADFOAJF_03489" class="clusterblast-orf" id="dummy-1_q26_0_all"  />
<polygon points="594,35 599,30 604,30 604,40 599,40 594,35 " style="fill:white; stroke-width:1; stroke:black; " description="&lt;b&gt;PADFOAJF_03490&lt;/b&gt;&lt;br&gt;HTH-type transcriptional regulator LutR&lt;br&gt;Location: 201217 - 201877" locus_tag="PADFOAJF_03490" class="clusterblast-orf" id="dummy-1_q27_0_all"  />
<polygon points="606,40 622,40 627,35 622,30 606,30 606,40 " style="fill:white; stroke-width:1; stroke:black; " description="&lt;b&gt;PADFOAJF_03491&lt;/b&gt;&lt;br&gt;hypothetical protein&lt;br&gt;Location: 201982 - 203323" locus_tag="PADFOAJF_03491" class="clusterblast-orf" id="dummy-1_q28_0_all"  />
<polygon points="627,40 646,40 651,35 646,30 627,30 627,40 " style="fill:white; stroke-width:1; stroke:black; " description="&lt;b&gt;PADFOAJF_03492&lt;/b&gt;&lt;br&gt;Long-chain-fatty-acid--CoA ligase&lt;br&gt;Location: 203342 - 204845" locus_tag="PADFOAJF_03492" class="clusterblast-orf" id="dummy-1_q29_0_all"  />
<polygon points="652,40 668,40 673,35 668,30 652,30 652,40 " style="fill:white; stroke-width:1; stroke:black; " description="&lt;b&gt;PADFOAJF_03493&lt;/b&gt;&lt;br&gt;Succinyl-diaminopimelate desuccinylase&lt;br&gt;Location: 204908 - 206285" locus_tag="PADFOAJF_03493" class="clusterblast-orf" id="dummy-1_q30_0_all"  />
<polygon points="673,35 678,30 682,30 682,40 678,40 673,35 " style="fill:white; stroke-width:1; stroke:black; " description="&lt;b&gt;PADFOAJF_03494&lt;/b&gt;&lt;br&gt;Isopentenyl-diphosphate Delta-isomerase&lt;br&gt;Location: 206281 - 206803" locus_tag="PADFOAJF_03494" class="clusterblast-orf" id="dummy-1_q31_0_all"  />
<polygon points="682,35 687,30 703,30 703,40 687,40 682,35 " style="fill:#d815d8; stroke-width:1; stroke:black; " description="&lt;b&gt;PADFOAJF_03495&lt;/b&gt;&lt;br&gt;hypothetical protein&lt;br&gt;Location: 206857 - 208165" locus_tag="PADFOAJF_03495" class="clusterblast-orf" id="dummy-1_q32_0_all"  />
<polygon points="703,35 708,30 717,30 717,40 708,40 703,35 " style="fill:#d8d815; stroke-width:1; stroke:black; " description="&lt;b&gt;PADFOAJF_03496&lt;/b&gt;&lt;br&gt;hypothetical protein&lt;br&gt;Location: 208177 - 209056" locus_tag="PADFOAJF_03496" class="clusterblast-orf" id="dummy-1_q33_0_all"  />
<polygon points="719,35 724,30 740,30 740,40 724,40 719,35 " style="fill:#15d877; stroke-width:1; stroke:black; " description="&lt;b&gt;PADFOAJF_03497&lt;/b&gt;&lt;br&gt;hypothetical protein&lt;br&gt;Location: 209166 - 210534" locus_tag="PADFOAJF_03497" class="clusterblast-orf" id="dummy-1_q34_0_all"  />
<polygon points="741,40 757,40 762,35 757,30 741,30 741,40 " style="fill:#1515d8; stroke-width:1; stroke:black; " description="&lt;b&gt;PADFOAJF_03498&lt;/b&gt;&lt;br&gt;D-inositol-3-phosphate glycosyltransferase&lt;br&gt;Location: 210603 - 211974" locus_tag="PADFOAJF_03498" class="clusterblast-orf" id="dummy-1_q35_0_all"  />
<polygon points="762,35 767,30 775,30 775,40 767,40 762,35 " style="fill:#d81577; stroke-width:1; stroke:black; " description="&lt;b&gt;PADFOAJF_03499&lt;/b&gt;&lt;br&gt;hypothetical protein&lt;br&gt;Location: 211946 - 212771" locus_tag="PADFOAJF_03499" class="clusterblast-orf" id="dummy-1_q36_0_all"  />
</g>
<g label="NZ_DS995281" description="NZ_DS995281 (598475-650509): Rhodobacterales bacterium Y4I scf 1106129324773,... (34% of genes show similarity), NRPS-like,T1PKS" class="clusterblast-cluster"  >
<text x="5" y="70" class="clusterblast-acc"  >
<a xlink:href="https://antismash-db.secondarymetabolites.org/area.html?record=NZ_DS995281&amp;start=598475&amp;end=650509" target="_blank">NZ_DS995281 (598475-650509)</a>: Rhodobacterales bacterium Y4I scf 1106129324773,... (34% of genes show similarity), NRPS-like,T1PKS</text>
<line x1="10" y1="85" x2="778.0" y2="85" style="stroke-width:1; stroke:grey; "  />
</g>
<g id="a1_000"  >
<polygon points="0,85 5,80 27,80 27,90 5,90 0,85 " style="fill:white; stroke-width:1; stroke:black; " description="&lt;b&gt;RBY4I_RS02785&lt;/b&gt;&lt;br&gt;carbohydrate ABC transporter substrate-binding protein&lt;br&gt;Location: 599490 - 601223" locus_tag="RBY4I_RS02785" class="clusterblast-orf" id="dummy-1_h1_4_0"  />
</g>
<g id="a1_001"  >
<polygon points="31,90 43,90 48,85 43,80 31,80 31,90 " style="fill:white; stroke-width:1; stroke:black; " description="&lt;b&gt;RBY4I_RS02790&lt;/b&gt;&lt;br&gt;RNA methyltransferase&lt;br&gt;Location: 601503 - 602621" locus_tag="RBY4I_RS02790" class="clusterblast-orf" id="dummy-1_h1_4_1"  />
</g>
<g id="a1_002"  >
<polygon points="50,85 52,80 52,90 50,85 " style="fill:white; stroke-width:1; stroke:black; " description="&lt;b&gt;RBY4I_RS21435&lt;/b&gt;&lt;br&gt;hypothetical protein&lt;br&gt;Location: 602689 - 602859" locus_tag="RBY4I_RS21435" class="clusterblast-orf" id="dummy-1_h1_4_2"  />
</g>
<g id="a1_003"  >
<polygon points="58,90 65,90 70,85 65,80 58,80 58,90 " style="fill:white; stroke-width:1; stroke:black; " description="&lt;b&gt;RBY4I_RS02795&lt;/b&gt;&lt;br&gt;TIGR03084 family protein&lt;br&gt;Location: 603219 - 604019" locus_tag="RBY4I_RS02795" class="clusterblast-orf" id="dummy-1_h1_4_3"  />
</g>
<g id="a1_004"  >
<polygon points="73,85 76,80 76,90 73,85 " style="fill:white; stroke-width:1; stroke:black; " description="&lt;b&gt;RBY4I_RS02800&lt;/b&gt;&lt;br&gt;hypothetical protein&lt;br&gt;Location: 604176 - 604361" locus_tag="RBY4I_RS02800" class="clusterblast-orf" id="dummy-1_h1_4_4"  />
</g>
<g id="a1_005"  >
<polygon points="81,85 86,80 95,80 95,90 86,90 81,85 " style="fill:white; stroke-width:1; stroke:black; " description="&lt;b&gt;RBY4I_RS02805&lt;/b&gt;&lt;br&gt;2-keto-3-deoxy-galactonokinase&lt;br&gt;Location: 604711 - 605562" locus_tag="RBY4I_RS02805" class="clusterblast-orf" id="dummy-1_h1_4_5"  />
</g>
<g id="a1_006"  >
<polygon points="100,90 111,90 116,85 111,80 100,80 100,90 " style="fill:white; stroke-width:1; stroke:black; " description="&lt;b&gt;RBY4I_RS02810&lt;/b&gt;&lt;br&gt;helix-turn-helix domain-containing protein&lt;br&gt;Location: 605892 - 606935" locus_tag="RBY4I_RS02810" class="clusterblast-orf" id="dummy-1_h1_4_6"  />
</g>
<g id="a1_007"  >
<polygon points="124,90 130,90 135,85 130,80 124,80 124,90 " style="fill:white; stroke-width:1; stroke:black; " description="&lt;b&gt;RBY4I_RS02815&lt;/b&gt;&lt;br&gt;sugar transferase&lt;br&gt;Location: 607441 - 608121" locus_tag="RBY4I_RS02815" class="clusterblast-orf" id="dummy-1_h1_4_7"  />
</g>
<g id="a1_008"  >
<polygon points="136,90 145,90 150,85 145,80 136,80 136,90 " style="fill:#d8d815; stroke-width:1; stroke:black; " description="&lt;b&gt;RBY4I_RS02820&lt;/b&gt;&lt;br&gt;CpsD/CapB family tyrosine-protein kinase&lt;br&gt;Location: 608212 - 609132&lt;br&gt;&lt;br&gt;&lt;b&gt;BlastP hit with PADFOAJF_03496&lt;/b&gt;&lt;br&gt;Percentage identity: 35&lt;br&gt;Percentage coverage: 94&lt;br&gt;BLAST bit score: 142&lt;br&gt;E-value: 2.81e-38" locus_tag="RBY4I_RS02820" class="clusterblast-orf" id="dummy-1_h1_4_8"  />
</g>
<g id="a1_009"  >
<polygon points="153,90 167,90 172,85 167,80 153,80 153,90 " style="fill:#d815d8; stroke-width:1; stroke:black; " description="&lt;b&gt;RBY4I_RS02825&lt;/b&gt;&lt;br&gt;chain-length determining protein&lt;br&gt;Location: 609285 - 610535&lt;br&gt;&lt;br&gt;&lt;b&gt;BlastP hit with PADFOAJF_03495&lt;/b&gt;&lt;br&gt;Percentage identity: 36&lt;br&gt;Percentage coverage: 95&lt;br&gt;BLAST bit score: 207&lt;br&gt;E-value: 1.94e-60" locus_tag="RBY4I_RS02825" class="clusterblast-orf" id="dummy-1_h1_4_9"  />
</g>
<g id="a1_0010"  >
<polygon points="174,85 179,80 195,80 195,90 179,90 174,85 " style="fill:#15d877; stroke-width:1; stroke:black; " description="&lt;b&gt;RBY4I_RS02830&lt;/b&gt;&lt;br&gt;oligosaccharide flippase family protein&lt;br&gt;Location: 610618 - 611988&lt;br&gt;&lt;br&gt;&lt;b&gt;BlastP hit with PADFOAJF_03497&lt;/b&gt;&lt;br&gt;Percentage identity: 50&lt;br&gt;Percentage coverage: 91&lt;br&gt;BLAST bit score: 395&lt;br&gt;E-value: 7.91e-133" locus_tag="RBY4I_RS02830" class="clusterblast-orf" id="dummy-1_h1_4_10"  />
</g>
<g id="a1_0011"  >
<polygon points="199,90 213,90 218,85 213,80 199,80 199,90 " style="fill:#1515d8; stroke-width:1; stroke:black; " description="&lt;b&gt;RBY4I_RS02835&lt;/b&gt;&lt;br&gt;glycosyltransferase&lt;br&gt;Location: 612228 - 613433&lt;br&gt;&lt;br&gt;&lt;b&gt;BlastP hit with PADFOAJF_03498&lt;/b&gt;&lt;br&gt;Percentage identity: 55&lt;br&gt;Percentage coverage: 87&lt;br&gt;BLAST bit score: 405&lt;br&gt;E-value: 1.55e-137" locus_tag="RBY4I_RS02835" class="clusterblast-orf" id="dummy-1_h1_4_11"  />
</g>
<g id="a1_0012"  >
<polygon points="219,85 224,80 232,80 232,90 224,90 219,85 " style="fill:#d81577; stroke-width:1; stroke:black; " description="&lt;b&gt;RBY4I_RS02840&lt;/b&gt;&lt;br&gt;glycosyltransferase family 2 protein&lt;br&gt;Location: 613521 - 614357&lt;br&gt;&lt;br&gt;&lt;b&gt;BlastP hit with PADFOAJF_03499&lt;/b&gt;&lt;br&gt;Percentage identity: 54&lt;br&gt;Percentage coverage: 101&lt;br&gt;BLAST bit score: 254&lt;br&gt;E-value: 1.72e-82" locus_tag="RBY4I_RS02840" class="clusterblast-orf" id="dummy-1_h1_4_12"  />
</g>
<g id="a1_0013"  >
<polygon points="232,85 237,80 271,80 271,90 237,90 232,85 " style="fill:white; stroke-width:1; stroke:black; " description="&lt;b&gt;RBY4I_RS02845&lt;/b&gt;&lt;br&gt;hypothetical protein&lt;br&gt;Location: 614354 - 616858" locus_tag="RBY4I_RS02845" class="clusterblast-orf" id="dummy-1_h1_4_13"  />
</g>
<g id="a1_0014"  >
<polygon points="271,85 276,80 286,80 286,90 276,90 271,85 " style="fill:white; stroke-width:1; stroke:black; " description="&lt;b&gt;RBY4I_RS02850&lt;/b&gt;&lt;br&gt;hypothetical protein&lt;br&gt;Location: 616855 - 617790" locus_tag="RBY4I_RS02850" class="clusterblast-orf" id="dummy-1_h1_4_14"  />
</g>
<g id="a1_0015"  >
<polygon points="286,85 291,80 297,80 297,90 291,90 286,85 " style="fill:#d81515; stroke-width:1; stroke:black; " description="&lt;b&gt;RBY4I_RS02855&lt;/b&gt;&lt;br&gt;4'-phosphopantetheinyl transferase superfamily protein&lt;br&gt;Location: 617790 - 618479&lt;br&gt;&lt;br&gt;&lt;b&gt;BlastP hit with PADFOAJF_03480&lt;/b&gt;&lt;br&gt;Percentage identity: 39&lt;br&gt;Percentage coverage: 104&lt;br&gt;BLAST bit score: 118&lt;br&gt;E-value: 4.28e-31" locus_tag="RBY4I_RS02855" class="clusterblast-orf" id="dummy-1_h1_4_15"  />
</g>
<g id="a1_0016"  >
<polygon points="297,85 302,80 368,80 368,90 302,90 297,85 " style="fill:#77d815; stroke-width:1; stroke:black; " description="&lt;b&gt;RBY4I_RS02860&lt;/b&gt;&lt;br&gt;LLM class flavin-dependent oxidoreductase&lt;br&gt;Location: 618476 - 623041&lt;br&gt;&lt;br&gt;&lt;b&gt;BlastP hit with PADFOAJF_03481&lt;/b&gt;&lt;br&gt;Percentage identity: 57&lt;br&gt;Percentage coverage: 102&lt;br&gt;BLAST bit score: 1589&lt;br&gt;E-value: 0.0" locus_tag="RBY4I_RS02860" class="clusterblast-orf" id="dummy-1_h1_4_16"  />
</g>
<g id="a1_0017"  >
<polygon points="368,85 373,80 384,80 384,90 373,90 368,85 " style="fill:#15d8d8; stroke-width:1; stroke:black; " description="&lt;b&gt;RBY4I_RS02865&lt;/b&gt;&lt;br&gt;glycosyltransferase family 2 protein&lt;br&gt;Location: 623038 - 624054&lt;br&gt;&lt;br&gt;&lt;b&gt;BlastP hit with PADFOAJF_03482&lt;/b&gt;&lt;br&gt;Percentage identity: 56&lt;br&gt;Percentage coverage: 101&lt;br&gt;BLAST bit score: 336&lt;br&gt;E-value: 2e-113" locus_tag="RBY4I_RS02865" class="clusterblast-orf" id="dummy-1_h1_4_17"  />
</g>
<g id="a1_0018"  >
<polygon points="384,85 389,80 485,80 485,90 389,90 384,85 " style="fill:#7715d8; stroke-width:1; stroke:black; " description="&lt;b&gt;RBY4I_RS02870&lt;/b&gt;&lt;br&gt;type I polyketide synthase&lt;br&gt;Location: 624060 - 630509&lt;br&gt;&lt;br&gt;&lt;b&gt;BlastP hit with PADFOAJF_03483&lt;/b&gt;&lt;br&gt;Percentage identity: 59&lt;br&gt;Percentage coverage: 101&lt;br&gt;BLAST bit score: 2380&lt;br&gt;E-value: 0.0" locus_tag="RBY4I_RS02870" class="clusterblast-orf" id="dummy-1_h1_4_18"  />
</g>
<g id="a1_0019"  >
<polygon points="489,85 494,80 512,80 512,90 494,90 489,85 " style="fill:#d87715; stroke-width:1; stroke:black; " description="&lt;b&gt;RBY4I_RS02875&lt;/b&gt;&lt;br&gt;membrane protein&lt;br&gt;Location: 630771 - 632234&lt;br&gt;&lt;br&gt;&lt;b&gt;BlastP hit with PADFOAJF_03484&lt;/b&gt;&lt;br&gt;Percentage identity: 45&lt;br&gt;Percentage coverage: 91&lt;br&gt;BLAST bit score: 388&lt;br&gt;E-value: 1.08e-128" locus_tag="RBY4I_RS02875" class="clusterblast-orf" id="dummy-1_h1_4_19"  />
</g>
<g id="a1_0020"  >
<polygon points="515,90 522,90 527,85 522,80 515,80 515,90 " style="fill:#15d815; stroke-width:1; stroke:black; " description="&lt;b&gt;RBY4I_RS02880&lt;/b&gt;&lt;br&gt;WecB/TagA/CpsF family glycosyltransferase&lt;br&gt;Location: 632425 - 633177&lt;br&gt;&lt;br&gt;&lt;b&gt;BlastP hit with PADFOAJF_03485&lt;/b&gt;&lt;br&gt;Percentage identity: 59&lt;br&gt;Percentage coverage: 100&lt;br&gt;BLAST bit score: 283&lt;br&gt;E-value: 1.12e-94" locus_tag="RBY4I_RS02880" class="clusterblast-orf" id="dummy-1_h1_4_20"  />
</g>
<g id="a1_0021"  >
<polygon points="529,85 534,80 544,80 544,90 534,90 529,85 " style="fill:#1577d8; stroke-width:1; stroke:black; " description="&lt;b&gt;RBY4I_RS02885&lt;/b&gt;&lt;br&gt;glycosyltransferase family 2 protein&lt;br&gt;Location: 633315 - 634265&lt;br&gt;&lt;br&gt;&lt;b&gt;BlastP hit with PADFOAJF_03486&lt;/b&gt;&lt;br&gt;Percentage identity: 61&lt;br&gt;Percentage coverage: 98&lt;br&gt;BLAST bit score: 379&lt;br&gt;E-value: 1.8e-130" locus_tag="RBY4I_RS02885" class="clusterblast-orf" id="dummy-1_h1_4_21"  />
</g>
<g id="a1_0022"  >
<polygon points="544,85 549,80 559,80 559,90 549,90 544,85 " style="fill:white; stroke-width:1; stroke:black; " description="&lt;b&gt;RBY4I_RS02890&lt;/b&gt;&lt;br&gt;glycosyltransferase family 2 protein&lt;br&gt;Location: 634262 - 635266" locus_tag="RBY4I_RS02890" class="clusterblast-orf" id="dummy-1_h1_4_22"  />
</g>
<g id="a1_0023"  >
<polygon points="563,85 568,80 619,80 619,90 568,90 563,85 " style="fill:white; stroke-width:1; stroke:black; " description="&lt;b&gt;RBY4I_RS02895&lt;/b&gt;&lt;br&gt;translocation/assembly module TamB&lt;br&gt;Location: 635486 - 639085" locus_tag="RBY4I_RS02895" class="clusterblast-orf" id="dummy-1_h1_4_23"  />
</g>
<g id="a1_0024"  >
<polygon points="620,85 625,80 648,80 648,90 625,90 620,85 " style="fill:white; stroke-width:1; stroke:black; " description="&lt;b&gt;RBY4I_RS02900&lt;/b&gt;&lt;br&gt;BamA/TamA family outer membrane protein&lt;br&gt;Location: 639112 - 640914" locus_tag="RBY4I_RS02900" class="clusterblast-orf" id="dummy-1_h1_4_24"  />
</g>
<g id="a1_0025"  >
<polygon points="657,90 661,85 657,80 657,90 " style="fill:white; stroke-width:1; stroke:black; " description="&lt;b&gt;RBY4I_RS02905&lt;/b&gt;&lt;br&gt;hypothetical protein&lt;br&gt;Location: 641501 - 641767" locus_tag="RBY4I_RS02905" class="clusterblast-orf" id="dummy-1_h1_4_25"  />
</g>
<g id="a1_0026"  >
<polygon points="662,90 667,90 672,85 667,80 662,80 662,90 " style="fill:white; stroke-width:1; stroke:black; " description="&lt;b&gt;RBY4I_RS02910&lt;/b&gt;&lt;br&gt;hypothetical protein&lt;br&gt;Location: 641832 - 642440" locus_tag="RBY4I_RS02910" class="clusterblast-orf" id="dummy-1_h1_4_26"  />
</g>
<g id="a1_0027"  >
<polygon points="672,85 677,80 688,80 688,90 677,90 672,85 " style="fill:white; stroke-width:1; stroke:black; " description="&lt;b&gt;RBY4I_RS02915&lt;/b&gt;&lt;br&gt;glyceraldehyde-3-phosphate dehydrogenase&lt;br&gt;Location: 642469 - 643488" locus_tag="RBY4I_RS02915" class="clusterblast-orf" id="dummy-1_h1_4_27"  />
</g>
<g id="a1_0028"  >
<polygon points="689,85 694,80 694,80 694,90 694,90 689,85 " style="fill:white; stroke-width:1; stroke:black; " description="&lt;b&gt;RBY4I_RS02920&lt;/b&gt;&lt;br&gt;hypothetical protein&lt;br&gt;Location: 643574 - 643888" locus_tag="RBY4I_RS02920" class="clusterblast-orf" id="dummy-1_h1_4_28"  />
</g>
<g id="a1_0029"  >
<polygon points="695,85 700,80 707,80 707,90 700,90 695,85 " style="fill:white; stroke-width:1; stroke:black; " description="&lt;b&gt;RBY4I_RS02925&lt;/b&gt;&lt;br&gt;helix-turn-helix domain-containing protein&lt;br&gt;Location: 643956 - 644732" locus_tag="RBY4I_RS02925" class="clusterblast-orf" id="dummy-1_h1_4_29"  />
</g>
<g id="a1_0030"  >
<polygon points="711,90 729,90 734,85 729,80 711,80 711,90 " style="fill:white; stroke-width:1; stroke:black; " description="&lt;b&gt;RBY4I_RS02930&lt;/b&gt;&lt;br&gt;glutamine synthetase&lt;br&gt;Location: 644948 - 646396" locus_tag="RBY4I_RS02930" class="clusterblast-orf" id="dummy-1_h1_4_30"  />
</g>
<g id="a1_0031"  >
<polygon points="737,90 737,90 742,85 737,80 737,80 737,90 " style="fill:white; stroke-width:1; stroke:black; " description="&lt;b&gt;RBY4I_RS02935&lt;/b&gt;&lt;br&gt;glycine cleavage system protein GcvH&lt;br&gt;Location: 646596 - 646955" locus_tag="RBY4I_RS02935" class="clusterblast-orf" id="dummy-1_h1_4_31"  />
</g>
<g id="a1_0032"  >
<polygon points="744,90 748,85 744,80 744,90 " style="fill:white; stroke-width:1; stroke:black; " description="&lt;b&gt;RBY4I_RS02940&lt;/b&gt;&lt;br&gt;flavodoxin family protein&lt;br&gt;Location: 647094 - 647309" locus_tag="RBY4I_RS02940" class="clusterblast-orf" id="dummy-1_h1_4_32"  />
</g>
<g id="a1_0033"  >
<polygon points="752,85 757,80 764,80 764,90 757,90 752,85 " style="fill:white; stroke-width:1; stroke:black; " description="&lt;b&gt;RBY4I_RS02945&lt;/b&gt;&lt;br&gt;NYN domain-containing protein&lt;br&gt;Location: 647586 - 648323" locus_tag="RBY4I_RS02945" class="clusterblast-orf" id="dummy-1_h1_4_33"  />
</g>
<g id="a1_0034"  >
<polygon points="767,85 772,80 780,80 780,90 772,90 767,85 " style="fill:white; stroke-width:1; stroke:black; " description="&lt;b&gt;RBY4I_RS02950&lt;/b&gt;&lt;br&gt;tRNA pseudouridine(38-40) synthase TruA&lt;br&gt;Location: 648568 - 649335" locus_tag="RBY4I_RS02950" class="clusterblast-orf" id="dummy-1_h1_4_34"  />
</g>
</svg>
