<svg xmlns="http://www.w3.org/2000/svg" xmlns:xlink="http://www.w3.org/1999/xlink" version="1.1" x="0" y="0" height="230" width="800" viewBox="0 0 800 230" preserveAspectRatio="none"  >
<g label="Query sequence" class="clusterblast-cluster"  >
<text x="5" y="20" class="clusterblast-acc"  >
Query sequence</text>
<line x1="10" y1="35" x2="778.0" y2="35" style="stroke-width:1; stroke:grey; "  />
<polygon points="39,35 44,30 76,30 76,40 44,40 39,35 " style="fill:white; stroke-width:1; stroke:black; " description="&lt;b&gt;PADFOAJF_02825&lt;/b&gt;&lt;br&gt;Selenide, water dikinase&lt;br&gt;Location: 78845 - 81014" locus_tag="PADFOAJF_02825" class="clusterblast-orf" id="dummy-1_q0_0_all"  />
<polygon points="81,35 84,30 84,40 81,35 " style="fill:white; stroke-width:1; stroke:black; " description="&lt;b&gt;PADFOAJF_02827&lt;/b&gt;&lt;br&gt;hypothetical protein&lt;br&gt;Location: 81315 - 81510" locus_tag="PADFOAJF_02827" class="clusterblast-orf" id="dummy-1_q1_0_all"  />
<polygon points="86,40 90,40 95,35 90,30 86,30 86,40 " style="fill:white; stroke-width:1; stroke:black; " description="&lt;b&gt;PADFOAJF_02828&lt;/b&gt;&lt;br&gt;hypothetical protein&lt;br&gt;Location: 81589 - 82120" locus_tag="PADFOAJF_02828" class="clusterblast-orf" id="dummy-1_q2_0_all"  />
<polygon points="98,40 132,40 137,35 132,30 98,30 98,40 " style="fill:white; stroke-width:1; stroke:black; " description="&lt;b&gt;PADFOAJF_02829&lt;/b&gt;&lt;br&gt;hypothetical protein&lt;br&gt;Location: 82327 - 84619" locus_tag="PADFOAJF_02829" class="clusterblast-orf" id="dummy-1_q3_0_all"  />
<polygon points="139,40 139,40 144,35 139,30 139,30 139,40 " style="fill:#d81515; stroke-width:1; stroke:black; " description="&lt;b&gt;PADFOAJF_02830&lt;/b&gt;&lt;br&gt;hypothetical protein&lt;br&gt;Location: 84735 - 85023" locus_tag="PADFOAJF_02830" class="clusterblast-orf" id="dummy-1_q4_0_all"  />
<polygon points="144,40 161,40 166,35 161,30 144,30 144,40 " style="fill:#63d815; stroke-width:1; stroke:black; " description="&lt;b&gt;PADFOAJF_02831&lt;/b&gt;&lt;br&gt;hypothetical protein&lt;br&gt;Location: 85061 - 86327" locus_tag="PADFOAJF_02831" class="clusterblast-orf" id="dummy-1_q5_0_all"  />
<polygon points="166,40 175,40 180,35 175,30 166,30 166,40 " style="fill:#15b1d8; stroke-width:1; stroke:black; " description="&lt;b&gt;PADFOAJF_02832&lt;/b&gt;&lt;br&gt;hypothetical protein&lt;br&gt;Location: 86330 - 87194" locus_tag="PADFOAJF_02832" class="clusterblast-orf" id="dummy-1_q6_0_all"  />
<polygon points="180,40 189,40 194,35 189,30 180,30 180,40 " style="fill:#15b1d8; stroke-width:1; stroke:black; " description="&lt;b&gt;PADFOAJF_02833&lt;/b&gt;&lt;br&gt;hypothetical protein&lt;br&gt;Location: 87190 - 88009" locus_tag="PADFOAJF_02833" class="clusterblast-orf" id="dummy-1_q7_0_all"  />
<polygon points="194,35 199,30 209,30 209,40 199,40 194,35 " style="fill:#b115d8; stroke-width:1; stroke:black; " description="&lt;b&gt;PADFOAJF_02834&lt;/b&gt;&lt;br&gt;hypothetical protein&lt;br&gt;Location: 88005 - 88866" locus_tag="PADFOAJF_02834" class="clusterblast-orf" id="dummy-1_q8_0_all"  />
<polygon points="210,40 224,40 229,35 224,30 210,30 210,40 " style="fill:#d86315; stroke-width:1; stroke:black; " description="&lt;b&gt;PADFOAJF_02835&lt;/b&gt;&lt;br&gt;hypothetical protein&lt;br&gt;Location: 88935 - 90078" locus_tag="PADFOAJF_02835" class="clusterblast-orf" id="dummy-1_q9_0_all"  />
<polygon points="229,35 234,30 280,30 280,40 234,40 229,35 " style="fill:#15d815; stroke-width:1; stroke:black; " description="&lt;b&gt;PADFOAJF_02836&lt;/b&gt;&lt;br&gt;hypothetical protein&lt;br&gt;Location: 90081 - 93102" locus_tag="PADFOAJF_02836" class="clusterblast-orf" id="dummy-1_q10_0_all"  />
<polygon points="283,40 299,40 304,35 299,30 283,30 283,40 " style="fill:#63d815; stroke-width:1; stroke:black; " description="&lt;b&gt;PADFOAJF_02837&lt;/b&gt;&lt;br&gt;hypothetical protein&lt;br&gt;Location: 93294 - 94485" locus_tag="PADFOAJF_02837" class="clusterblast-orf" id="dummy-1_q11_0_all"  />
<polygon points="305,40 328,40 333,35 328,30 305,30 305,40 " style="fill:#63d815; stroke-width:1; stroke:black; " description="&lt;b&gt;PADFOAJF_02838&lt;/b&gt;&lt;br&gt;hypothetical protein&lt;br&gt;Location: 94552 - 96214" locus_tag="PADFOAJF_02838" class="clusterblast-orf" id="dummy-1_q12_0_all"  />
<polygon points="334,40 368,40 373,35 368,30 334,30 334,40 " style="fill:#1563d8; stroke-width:1; stroke:black; " description="&lt;b&gt;PADFOAJF_02839&lt;/b&gt;&lt;br&gt;Ubiquinone biosynthesis O-methyltransferase, mitochondrial&lt;br&gt;Location: 96258 - 98568" locus_tag="PADFOAJF_02839" class="clusterblast-orf" id="dummy-1_q13_0_all"  />
<polygon points="373,40 401,40 406,35 401,30 373,30 373,40 " style="fill:#d815b1; stroke-width:1; stroke:black; " description="&lt;b&gt;PADFOAJF_02840&lt;/b&gt;&lt;br&gt;4-hydroxyphenylalkanoate adenylyltransferase&lt;br&gt;Location: 98623 - 100573" locus_tag="PADFOAJF_02840" class="clusterblast-orf" id="dummy-1_q14_0_all"  />
<polygon points="408,35 413,30 417,30 417,40 413,40 408,35 " style="fill:white; stroke-width:1; stroke:black; " description="&lt;b&gt;PADFOAJF_02841&lt;/b&gt;&lt;br&gt;putative HTH-type transcriptional regulator&lt;br&gt;Location: 100638 - 101226" locus_tag="PADFOAJF_02841" class="clusterblast-orf" id="dummy-1_q15_0_all"  />
<polygon points="418,40 421,40 426,35 421,30 418,30 418,40 " style="fill:white; stroke-width:1; stroke:black; " description="&lt;b&gt;PADFOAJF_02842&lt;/b&gt;&lt;br&gt;hypothetical protein&lt;br&gt;Location: 101280 - 101721" locus_tag="PADFOAJF_02842" class="clusterblast-orf" id="dummy-1_q16_0_all"  />
<polygon points="426,35 431,30 439,30 439,40 431,40 426,35 " style="fill:white; stroke-width:1; stroke:black; " description="&lt;b&gt;PADFOAJF_02843&lt;/b&gt;&lt;br&gt;hypothetical protein&lt;br&gt;Location: 101723 - 102521" locus_tag="PADFOAJF_02843" class="clusterblast-orf" id="dummy-1_q17_0_all"  />
<polygon points="439,35 444,30 456,30 456,40 444,40 439,35 " style="fill:#d8b115; stroke-width:1; stroke:black; " description="&lt;b&gt;PADFOAJF_02844&lt;/b&gt;&lt;br&gt;hypothetical protein&lt;br&gt;Location: 102530 - 103526" locus_tag="PADFOAJF_02844" class="clusterblast-orf" id="dummy-1_q18_0_all"  />
<polygon points="459,40 467,40 472,35 467,30 459,30 459,40 " style="fill:#15d863; stroke-width:1; stroke:black; " description="&lt;b&gt;PADFOAJF_02845&lt;/b&gt;&lt;br&gt;3-oxoacyl-[acyl-carrier-protein] reductase FabG&lt;br&gt;Location: 103678 - 104458" locus_tag="PADFOAJF_02845" class="clusterblast-orf" id="dummy-1_q19_0_all"  />
<polygon points="475,40 480,40 485,35 480,30 475,30 475,40 " style="fill:white; stroke-width:1; stroke:black; " description="&lt;b&gt;PADFOAJF_02846&lt;/b&gt;&lt;br&gt;Phosphoglycolate phosphatase&lt;br&gt;Location: 104634 - 105234" locus_tag="PADFOAJF_02846" class="clusterblast-orf" id="dummy-1_q20_0_all"  />
<polygon points="486,40 495,40 500,35 495,30 486,30 486,40 " style="fill:white; stroke-width:1; stroke:black; " description="&lt;b&gt;PADFOAJF_02847&lt;/b&gt;&lt;br&gt;2-succinyl-6-hydroxy-2, 4-cyclohexadiene-1-carboxylate synthase&lt;br&gt;Location: 105289 - 106108" locus_tag="PADFOAJF_02847" class="clusterblast-orf" id="dummy-1_q21_0_all"  />
<polygon points="500,40 511,40 516,35 511,30 500,30 500,40 " style="fill:white; stroke-width:1; stroke:black; " description="&lt;b&gt;PADFOAJF_02848&lt;/b&gt;&lt;br&gt;L-threo-3-hydroxyaspartate ammonia-lyase&lt;br&gt;Location: 106104 - 107052" locus_tag="PADFOAJF_02848" class="clusterblast-orf" id="dummy-1_q22_0_all"  />
<polygon points="516,40 520,35 516,30 516,40 " style="fill:white; stroke-width:1; stroke:black; " description="&lt;b&gt;PADFOAJF_02849&lt;/b&gt;&lt;br&gt;hypothetical protein&lt;br&gt;Location: 107048 - 107300" locus_tag="PADFOAJF_02849" class="clusterblast-orf" id="dummy-1_q23_0_all"  />
<polygon points="520,35 524,30 524,40 520,35 " style="fill:white; stroke-width:1; stroke:black; " description="&lt;b&gt;PADFOAJF_02850&lt;/b&gt;&lt;br&gt;hypothetical protein&lt;br&gt;Location: 107287 - 107539" locus_tag="PADFOAJF_02850" class="clusterblast-orf" id="dummy-1_q24_0_all"  />
<polygon points="527,35 532,30 543,30 543,40 532,40 527,35 " style="fill:white; stroke-width:1; stroke:black; " description="&lt;b&gt;PADFOAJF_02851&lt;/b&gt;&lt;br&gt;hypothetical protein&lt;br&gt;Location: 107689 - 108640" locus_tag="PADFOAJF_02851" class="clusterblast-orf" id="dummy-1_q25_0_all"  />
<polygon points="544,35 549,30 574,30 574,40 549,40 544,35 " style="fill:white; stroke-width:1; stroke:black; " description="&lt;b&gt;PADFOAJF_02852&lt;/b&gt;&lt;br&gt;Methionine--tRNA ligase&lt;br&gt;Location: 108737 - 110468" locus_tag="PADFOAJF_02852" class="clusterblast-orf" id="dummy-1_q26_0_all"  />
<polygon points="577,40 602,40 607,35 602,30 577,30 577,40 " style="fill:white; stroke-width:1; stroke:black; " description="&lt;b&gt;PADFOAJF_02853&lt;/b&gt;&lt;br&gt;hypothetical protein&lt;br&gt;Location: 110645 - 112442" locus_tag="PADFOAJF_02853" class="clusterblast-orf" id="dummy-1_q27_0_all"  />
<polygon points="608,40 625,40 630,35 625,30 608,30 608,40 " style="fill:white; stroke-width:1; stroke:black; " description="&lt;b&gt;PADFOAJF_02854&lt;/b&gt;&lt;br&gt;hypothetical protein&lt;br&gt;Location: 112518 - 113832" locus_tag="PADFOAJF_02854" class="clusterblast-orf" id="dummy-1_q28_0_all"  />
<polygon points="634,35 639,30 639,30 639,40 639,40 634,35 " style="fill:white; stroke-width:1; stroke:black; " description="&lt;b&gt;PADFOAJF_02855&lt;/b&gt;&lt;br&gt;hypothetical protein&lt;br&gt;Location: 114055 - 114361" locus_tag="PADFOAJF_02855" class="clusterblast-orf" id="dummy-1_q29_0_all"  />
<polygon points="639,35 644,30 645,30 645,40 644,40 639,35 " style="fill:white; stroke-width:1; stroke:black; " description="&lt;b&gt;PADFOAJF_02856&lt;/b&gt;&lt;br&gt;hypothetical protein&lt;br&gt;Location: 114360 - 114705" locus_tag="PADFOAJF_02856" class="clusterblast-orf" id="dummy-1_q30_0_all"  />
<polygon points="648,40 651,35 648,30 648,40 " style="fill:#1515d8; stroke-width:1; stroke:black; " description="&lt;b&gt;PADFOAJF_02857&lt;/b&gt;&lt;br&gt;hypothetical protein&lt;br&gt;Location: 114872 - 115046" locus_tag="PADFOAJF_02857" class="clusterblast-orf" id="dummy-1_q31_0_all"  />
<polygon points="653,40 657,40 662,35 657,30 653,30 653,40 " style="fill:white; stroke-width:1; stroke:black; " description="&lt;b&gt;PADFOAJF_02858&lt;/b&gt;&lt;br&gt;DNA protection during starvation protein&lt;br&gt;Location: 115169 - 115667" locus_tag="PADFOAJF_02858" class="clusterblast-orf" id="dummy-1_q32_0_all"  />
<polygon points="664,35 669,30 678,30 678,40 669,40 664,35 " style="fill:#d81563; stroke-width:1; stroke:black; " description="&lt;b&gt;PADFOAJF_02859&lt;/b&gt;&lt;br&gt;Phyllosphere-induced regulator PhyR&lt;br&gt;Location: 115836 - 116649" locus_tag="PADFOAJF_02859" class="clusterblast-orf" id="dummy-1_q33_0_all"  />
<polygon points="680,40 683,35 680,30 680,40 " style="fill:#b1d815; stroke-width:1; stroke:black; " description="&lt;b&gt;PADFOAJF_02860&lt;/b&gt;&lt;br&gt;hypothetical protein&lt;br&gt;Location: 116761 - 116920" locus_tag="PADFOAJF_02860" class="clusterblast-orf" id="dummy-1_q34_0_all"  />
<polygon points="682,40 687,40 692,35 687,30 682,30 682,40 " style="fill:#15d8b1; stroke-width:1; stroke:black; " description="&lt;b&gt;PADFOAJF_02861&lt;/b&gt;&lt;br&gt;ECF RNA polymerase sigma factor EcfG&lt;br&gt;Location: 116909 - 117485" locus_tag="PADFOAJF_02861" class="clusterblast-orf" id="dummy-1_q35_0_all"  />
<polygon points="692,40 717,40 722,35 717,30 692,30 692,40 " style="fill:#6315d8; stroke-width:1; stroke:black; " description="&lt;b&gt;PADFOAJF_02862&lt;/b&gt;&lt;br&gt;hypothetical protein&lt;br&gt;Location: 117481 - 119239" locus_tag="PADFOAJF_02862" class="clusterblast-orf" id="dummy-1_q36_0_all"  />
<polygon points="723,35 728,30 740,30 740,40 728,40 723,35 " style="fill:white; stroke-width:1; stroke:black; " description="&lt;b&gt;PADFOAJF_02863&lt;/b&gt;&lt;br&gt;Putative transport protein YhhT&lt;br&gt;Location: 119298 - 120318" locus_tag="PADFOAJF_02863" class="clusterblast-orf" id="dummy-1_q37_0_all"  />
</g>
<g label="NZ_MSYP01000001" description="NZ_MSYP01000001 (3510761-3557700): Rhodovulum sulfidophilum strain AB14 Scaff... (14% of genes show similarity), T1PKS" class="clusterblast-cluster"  >
<text x="5" y="70" class="clusterblast-acc"  >
<a xlink:href="https://antismash-db.secondarymetabolites.org/area.html?record=NZ_MSYP01000001&amp;start=3510761&amp;end=3557700" target="_blank">NZ_MSYP01000001 (3510761-3557700)</a>: Rhodovulum sulfidophilum strain AB14 Scaff... (14% of genes show similarity), T1PKS</text>
<line x1="10" y1="85" x2="778.0" y2="85" style="stroke-width:1; stroke:grey; "  />
</g>
<g id="a1_000"  >
<polygon points="0,90 13,90 18,85 13,80 0,80 0,90 " style="fill:white; stroke-width:1; stroke:black; " description="&lt;b&gt;BV379_RS17105&lt;/b&gt;&lt;br&gt;5-(carboxyamino)imidazole ribonucleotide synthase&lt;br&gt;Location: 3557418 - 3556324" locus_tag="BV379_RS17105" class="clusterblast-orf" id="dummy-1_h1_8_0"  />
</g>
<g id="a1_001"  >
<polygon points="18,85 23,80 25,80 25,90 23,90 18,85 " style="fill:white; stroke-width:1; stroke:black; " description="&lt;b&gt;BV379_RS17100&lt;/b&gt;&lt;br&gt;hypothetical protein&lt;br&gt;Location: 3556299 - 3555937" locus_tag="BV379_RS17100" class="clusterblast-orf" id="dummy-1_h1_8_1"  />
</g>
<g id="a1_002"  >
<polygon points="25,85 30,80 30,80 30,90 30,90 25,85 " style="fill:white; stroke-width:1; stroke:black; " description="&lt;b&gt;BV379_RS17095&lt;/b&gt;&lt;br&gt;DUF883 domain-containing protein&lt;br&gt;Location: 3555937 - 3555608" locus_tag="BV379_RS17095" class="clusterblast-orf" id="dummy-1_h1_8_2"  />
</g>
<g id="a1_003"  >
<polygon points="33,90 36,85 33,80 33,90 " style="fill:#1515d8; stroke-width:1; stroke:black; " description="&lt;b&gt;BV379_RS17090&lt;/b&gt;&lt;br&gt;DUF1328 domain-containing protein&lt;br&gt;Location: 3555426 - 3555256&lt;br&gt;&lt;br&gt;&lt;b&gt;BlastP hit with PADFOAJF_02857&lt;/b&gt;&lt;br&gt;Percentage identity: 71&lt;br&gt;Percentage coverage: 98&lt;br&gt;BLAST bit score: 73&lt;br&gt;E-value: 1.85e-17" locus_tag="BV379_RS17090" class="clusterblast-orf" id="dummy-1_h1_8_3"  />
</g>
<g id="a1_004"  >
<polygon points="39,85 44,80 52,80 52,90 44,90 39,85 " style="fill:#d81563; stroke-width:1; stroke:black; " description="&lt;b&gt;BV379_RS17085&lt;/b&gt;&lt;br&gt;response regulator&lt;br&gt;Location: 3555105 - 3554287&lt;br&gt;&lt;br&gt;&lt;b&gt;BlastP hit with PADFOAJF_02859&lt;/b&gt;&lt;br&gt;Percentage identity: 62&lt;br&gt;Percentage coverage: 97&lt;br&gt;BLAST bit score: 301&lt;br&gt;E-value: 2.76e-101" locus_tag="BV379_RS17085" class="clusterblast-orf" id="dummy-1_h1_8_4"  />
</g>
<g id="a1_005"  >
<polygon points="54,90 57,85 54,80 54,90 " style="fill:#b1d815; stroke-width:1; stroke:black; " description="&lt;b&gt;BV379_RS17080&lt;/b&gt;&lt;br&gt;hypothetical protein&lt;br&gt;Location: 3554194 - 3554015&lt;br&gt;&lt;br&gt;&lt;b&gt;BlastP hit with PADFOAJF_02860&lt;/b&gt;&lt;br&gt;Percentage identity: 52&lt;br&gt;Percentage coverage: 81&lt;br&gt;BLAST bit score: 44&lt;br&gt;E-value: 4.39e-06" locus_tag="BV379_RS17080" class="clusterblast-orf" id="dummy-1_h1_8_5"  />
</g>
<g id="a1_006"  >
<polygon points="57,90 61,90 66,85 61,80 57,80 57,90 " style="fill:#15d8b1; stroke-width:1; stroke:black; " description="&lt;b&gt;BV379_RS17075&lt;/b&gt;&lt;br&gt;RNA polymerase sigma factor&lt;br&gt;Location: 3554012 - 3553464&lt;br&gt;&lt;br&gt;&lt;b&gt;BlastP hit with PADFOAJF_02861&lt;/b&gt;&lt;br&gt;Percentage identity: 69&lt;br&gt;Percentage coverage: 92&lt;br&gt;BLAST bit score: 235&lt;br&gt;E-value: 6.48e-78" locus_tag="BV379_RS17075" class="clusterblast-orf" id="dummy-1_h1_8_6"  />
</g>
<g id="a1_007"  >
<polygon points="66,90 92,90 97,85 92,80 66,80 66,90 " style="fill:#6315d8; stroke-width:1; stroke:black; " description="&lt;b&gt;BV379_RS17070&lt;/b&gt;&lt;br&gt;HAMP domain-containing protein&lt;br&gt;Location: 3553467 - 3551635&lt;br&gt;&lt;br&gt;&lt;b&gt;BlastP hit with PADFOAJF_02862&lt;/b&gt;&lt;br&gt;Percentage identity: 34&lt;br&gt;Percentage coverage: 97&lt;br&gt;BLAST bit score: 273&lt;br&gt;E-value: 7.01e-82" locus_tag="BV379_RS17070" class="clusterblast-orf" id="dummy-1_h1_8_7"  />
</g>
<g id="a1_008"  >
<polygon points="98,90 100,85 98,80 98,90 " style="fill:white; stroke-width:1; stroke:black; " description="&lt;b&gt;BV379_RS17065&lt;/b&gt;&lt;br&gt;entericidin A/B family lipoprotein&lt;br&gt;Location: 3551589 - 3551449" locus_tag="BV379_RS17065" class="clusterblast-orf" id="dummy-1_h1_8_8"  />
</g>
<g id="a1_009"  >
<polygon points="102,85 107,80 112,80 112,90 107,90 102,85 " style="fill:white; stroke-width:1; stroke:black; " description="&lt;b&gt;BV379_RS17060&lt;/b&gt;&lt;br&gt;exopolysaccharide biosynthesis protein&lt;br&gt;Location: 3551328 - 3550747" locus_tag="BV379_RS17060" class="clusterblast-orf" id="dummy-1_h1_8_9"  />
</g>
<g id="a1_0010"  >
<polygon points="120,90 132,90 137,85 132,80 120,80 120,90 " style="fill:white; stroke-width:1; stroke:black; " description="&lt;b&gt;BV379_RS17055&lt;/b&gt;&lt;br&gt;TRAP transporter substrate-binding protein&lt;br&gt;Location: 3550310 - 3549270" locus_tag="BV379_RS17055" class="clusterblast-orf" id="dummy-1_h1_8_10"  />
</g>
<g id="a1_0011"  >
<polygon points="137,90 176,90 181,85 176,80 137,80 137,90 " style="fill:white; stroke-width:1; stroke:black; " description="&lt;b&gt;BV379_RS17050&lt;/b&gt;&lt;br&gt;EAL domain-containing protein&lt;br&gt;Location: 3549269 - 3546702" locus_tag="BV379_RS17050" class="clusterblast-orf" id="dummy-1_h1_8_11"  />
</g>
<g id="a1_0012"  >
<polygon points="181,90 248,90 253,85 248,80 181,80 181,90 " style="fill:white; stroke-width:1; stroke:black; " description="&lt;b&gt;BV379_RS17045&lt;/b&gt;&lt;br&gt;PAS domain-containing protein&lt;br&gt;Location: 3546705 - 3542398" locus_tag="BV379_RS17045" class="clusterblast-orf" id="dummy-1_h1_8_12"  />
</g>
<g id="a1_0013"  >
<polygon points="255,85 260,80 275,80 275,90 260,90 255,85 " style="fill:white; stroke-width:1; stroke:black; " description="&lt;b&gt;BV379_RS17040&lt;/b&gt;&lt;br&gt;capsular biosynthesis protein&lt;br&gt;Location: 3542326 - 3541142" locus_tag="BV379_RS17040" class="clusterblast-orf" id="dummy-1_h1_8_13"  />
</g>
<g id="a1_0014"  >
<polygon points="279,90 292,90 297,85 292,80 279,80 279,90 " style="fill:white; stroke-width:1; stroke:black; " description="&lt;b&gt;BV379_RS17035&lt;/b&gt;&lt;br&gt;capsular biosynthesis protein&lt;br&gt;Location: 3540854 - 3539811" locus_tag="BV379_RS17035" class="clusterblast-orf" id="dummy-1_h1_8_14"  />
</g>
<g id="a1_0015"  >
<polygon points="297,90 305,90 310,85 305,80 297,80 297,90 " style="fill:white; stroke-width:1; stroke:black; " description="&lt;b&gt;BV379_RS17030&lt;/b&gt;&lt;br&gt;SDR family NAD(P)-dependent oxidoreductase&lt;br&gt;Location: 3539814 - 3539020" locus_tag="BV379_RS17030" class="clusterblast-orf" id="dummy-1_h1_8_15"  />
</g>
<g id="a1_0016"  >
<polygon points="311,85 316,80 333,80 333,90 316,90 311,85 " style="fill:white; stroke-width:1; stroke:black; " description="&lt;b&gt;BV379_RS17025&lt;/b&gt;&lt;br&gt;aminotransferase class I/II-fold pyridoxal phosphate-dependent enzyme&lt;br&gt;Location: 3539012 - 3537702" locus_tag="BV379_RS17025" class="clusterblast-orf" id="dummy-1_h1_8_16"  />
</g>
<g id="a1_0017"  >
<polygon points="333,85 338,80 450,80 450,90 338,90 333,85 " style="fill:white; stroke-width:1; stroke:black; " description="&lt;b&gt;BV379_RS17020&lt;/b&gt;&lt;br&gt;SDR family NAD(P)-dependent oxidoreductase&lt;br&gt;Location: 3537700 - 3530762" locus_tag="BV379_RS17020" class="clusterblast-orf" id="dummy-1_h1_8_17"  />
</g>
<g id="a1_0018"  >
<polygon points="459,85 462,80 462,90 459,85 " style="fill:white; stroke-width:1; stroke:black; " description="&lt;b&gt;BV379_RS22190&lt;/b&gt;&lt;br&gt;hypothetical protein&lt;br&gt;Location: 3530246 - 3530052" locus_tag="BV379_RS22190" class="clusterblast-orf" id="dummy-1_h1_8_18"  />
</g>
<g id="a1_0019"  >
<polygon points="462,85 467,80 468,80 468,90 467,90 462,85 " style="fill:white; stroke-width:1; stroke:black; " description="&lt;b&gt;BV379_RS22185&lt;/b&gt;&lt;br&gt;hypothetical protein&lt;br&gt;Location: 3530049 - 3529717" locus_tag="BV379_RS22185" class="clusterblast-orf" id="dummy-1_h1_8_19"  />
</g>
<g id="a1_0020"  >
<polygon points="472,85 477,80 487,80 487,90 477,90 472,85 " style="fill:white; stroke-width:1; stroke:black; " description="&lt;b&gt;BV379_RS17010&lt;/b&gt;&lt;br&gt;LysR family transcriptional regulator&lt;br&gt;Location: 3529478 - 3528561" locus_tag="BV379_RS17010" class="clusterblast-orf" id="dummy-1_h1_8_20"  />
</g>
<g id="a1_0021"  >
<polygon points="489,90 491,90 496,85 491,80 489,80 489,90 " style="fill:white; stroke-width:1; stroke:black; " description="&lt;b&gt;BV379_RS17005&lt;/b&gt;&lt;br&gt;DMT family transporter&lt;br&gt;Location: 3528476 - 3528018" locus_tag="BV379_RS17005" class="clusterblast-orf" id="dummy-1_h1_8_21"  />
</g>
<g id="a1_0022"  >
<polygon points="500,90 506,90 511,85 506,80 500,80 500,90 " style="fill:white; stroke-width:1; stroke:black; " description="&lt;b&gt;BV379_RS17000&lt;/b&gt;&lt;br&gt;type B chloramphenicol O-acetyltransferase&lt;br&gt;Location: 3527789 - 3527154" locus_tag="BV379_RS17000" class="clusterblast-orf" id="dummy-1_h1_8_22"  />
</g>
<g id="a1_0023"  >
<polygon points="519,85 524,80 535,80 535,90 524,90 519,85 " style="fill:white; stroke-width:1; stroke:black; " description="&lt;b&gt;BV379_RS16995&lt;/b&gt;&lt;br&gt;ABC transporter substrate-binding protein&lt;br&gt;Location: 3526686 - 3525715" locus_tag="BV379_RS16995" class="clusterblast-orf" id="dummy-1_h1_8_23"  />
</g>
<g id="a1_0024"  >
<polygon points="535,85 540,80 548,80 548,90 540,90 535,85 " style="fill:white; stroke-width:1; stroke:black; " description="&lt;b&gt;BV379_RS16990&lt;/b&gt;&lt;br&gt;ATP-binding cassette domain-containing protein&lt;br&gt;Location: 3525712 - 3524939" locus_tag="BV379_RS16990" class="clusterblast-orf" id="dummy-1_h1_8_24"  />
</g>
<g id="a1_0025"  >
<polygon points="548,85 553,80 564,80 564,90 553,90 548,85 " style="fill:white; stroke-width:1; stroke:black; " description="&lt;b&gt;BV379_RS16985&lt;/b&gt;&lt;br&gt;iron chelate uptake ABC transporter family permease subunit&lt;br&gt;Location: 3524942 - 3524001" locus_tag="BV379_RS16985" class="clusterblast-orf" id="dummy-1_h1_8_25"  />
</g>
<g id="a1_0026"  >
<polygon points="564,85 569,80 581,80 581,90 569,90 564,85 " style="fill:white; stroke-width:1; stroke:black; " description="&lt;b&gt;BV379_RS16980&lt;/b&gt;&lt;br&gt;iron chelate uptake ABC transporter family permease subunit&lt;br&gt;Location: 3524004 - 3523030" locus_tag="BV379_RS16980" class="clusterblast-orf" id="dummy-1_h1_8_26"  />
</g>
<g id="a1_0027"  >
<polygon points="581,85 586,80 610,80 610,90 586,90 581,85 " style="fill:white; stroke-width:1; stroke:black; " description="&lt;b&gt;BV379_RS16975&lt;/b&gt;&lt;br&gt;ABC transporter ATP-binding protein&lt;br&gt;Location: 3523019 - 3521280" locus_tag="BV379_RS16975" class="clusterblast-orf" id="dummy-1_h1_8_27"  />
</g>
<g id="a1_0028"  >
<polygon points="610,85 615,80 641,80 641,90 615,90 610,85 " style="fill:white; stroke-width:1; stroke:black; " description="&lt;b&gt;BV379_RS16970&lt;/b&gt;&lt;br&gt;ABC transporter ATP-binding protein&lt;br&gt;Location: 3521283 - 3519487" locus_tag="BV379_RS16970" class="clusterblast-orf" id="dummy-1_h1_8_28"  />
</g>
<g id="a1_0029"  >
<polygon points="644,90 649,90 654,85 649,80 644,80 644,90 " style="fill:white; stroke-width:1; stroke:black; " description="&lt;b&gt;BV379_RS16965&lt;/b&gt;&lt;br&gt;TetR/AcrR family transcriptional regulator&lt;br&gt;Location: 3519297 - 3518713" locus_tag="BV379_RS16965" class="clusterblast-orf" id="dummy-1_h1_8_29"  />
</g>
<g id="a1_0030"  >
<polygon points="662,90 692,90 697,85 692,80 662,80 662,90 " style="fill:white; stroke-width:1; stroke:black; " description="&lt;b&gt;BV379_RS16960&lt;/b&gt;&lt;br&gt;TonB-dependent receptor&lt;br&gt;Location: 3518204 - 3516126" locus_tag="BV379_RS16960" class="clusterblast-orf" id="dummy-1_h1_8_30"  />
</g>
<g id="a1_0031"  >
<polygon points="705,90 718,90 723,85 718,80 705,80 705,90 " style="fill:white; stroke-width:1; stroke:black; " description="&lt;b&gt;BV379_RS16955&lt;/b&gt;&lt;br&gt;nitronate monooxygenase&lt;br&gt;Location: 3515645 - 3514593" locus_tag="BV379_RS16955" class="clusterblast-orf" id="dummy-1_h1_8_31"  />
</g>
<g id="a1_0032"  >
<polygon points="730,90 755,90 760,85 755,80 730,80 730,90 " style="fill:white; stroke-width:1; stroke:black; " description="&lt;b&gt;BV379_RS16950&lt;/b&gt;&lt;br&gt;OFA family MFS transporter&lt;br&gt;Location: 3514183 - 3512438" locus_tag="BV379_RS16950" class="clusterblast-orf" id="dummy-1_h1_8_32"  />
</g>
<g id="a1_0033"  >
<polygon points="772,85 777,80 780,80 780,90 777,90 772,85 " style="fill:white; stroke-width:1; stroke:black; " description="&lt;b&gt;BV379_RS16945&lt;/b&gt;&lt;br&gt;hypothetical protein&lt;br&gt;Location: 3511694 - 3511263" locus_tag="BV379_RS16945" class="clusterblast-orf" id="dummy-1_h1_8_33"  />
</g>
</svg>
