<svg xmlns="http://www.w3.org/2000/svg" xmlns:xlink="http://www.w3.org/1999/xlink" version="1.1" x="0" y="0" height="230" width="800" viewBox="0 0 800 230" preserveAspectRatio="none"  >
<g label="Query sequence" class="clusterblast-cluster"  >
<text x="5" y="20" class="clusterblast-acc"  >
Query sequence</text>
<line x1="10" y1="35" x2="778.0" y2="35" style="stroke-width:1; stroke:grey; "  />
<polygon points="337,35 342,30 345,30 345,40 342,40 337,35 " style="fill:#d81515; stroke-width:1; stroke:black; " description="&lt;b&gt;DFGDCJBF_01297&lt;/b&gt;&lt;br&gt;hypothetical protein&lt;br&gt;Location: 1347034 - 1347808" locus_tag="DFGDCJBF_01297" class="clusterblast-orf" id="dummy-5_q0_0_all"  />
<polygon points="349,40 351,40 356,35 351,30 349,30 349,40 " style="fill:white; stroke-width:1; stroke:black; " description="&lt;b&gt;DFGDCJBF_01298&lt;/b&gt;&lt;br&gt;hypothetical protein&lt;br&gt;Location: 1348140 - 1348818" locus_tag="DFGDCJBF_01298" class="clusterblast-orf" id="dummy-5_q1_0_all"  />
<polygon points="355,35 360,30 360,30 360,40 360,40 355,35 " style="fill:#15d815; stroke-width:1; stroke:black; " description="&lt;b&gt;DFGDCJBF_01299&lt;/b&gt;&lt;br&gt;IS3 family transposase ISPye6&lt;br&gt;Location: 1348735 - 1349131" locus_tag="DFGDCJBF_01299" class="clusterblast-orf" id="dummy-5_q2_0_all"  />
<polygon points="364,35 367,30 367,40 364,35 " style="fill:#15d815; stroke-width:1; stroke:black; " description="&lt;b&gt;DFGDCJBF_01300&lt;/b&gt;&lt;br&gt;IS3 family transposase ISPye6&lt;br&gt;Location: 1349582 - 1349861" locus_tag="DFGDCJBF_01300" class="clusterblast-orf" id="dummy-5_q3_0_all"  />
<polygon points="375,35 380,30 385,30 385,40 380,40 375,35 " style="fill:#1515d8; stroke-width:1; stroke:black; " description="&lt;b&gt;DFGDCJBF_01301&lt;/b&gt;&lt;br&gt;hypothetical protein&lt;br&gt;Location: 1350561 - 1351527" locus_tag="DFGDCJBF_01301" class="clusterblast-orf" id="dummy-5_q4_0_all"  />
<polygon points="387,35 391,30 391,40 387,35 " style="fill:#d815d8; stroke-width:1; stroke:black; " description="&lt;b&gt;DFGDCJBF_01302&lt;/b&gt;&lt;br&gt;L-ectoine synthase&lt;br&gt;Location: 1351713 - 1352109" locus_tag="DFGDCJBF_01302" class="clusterblast-orf" id="dummy-5_q5_0_all"  />
<polygon points="395,40 404,40 409,35 404,30 395,30 395,40 " style="fill:#d8d815; stroke-width:1; stroke:black; " description="&lt;b&gt;DFGDCJBF_01303&lt;/b&gt;&lt;br&gt;hypothetical protein&lt;br&gt;Location: 1352491 - 1353799" locus_tag="DFGDCJBF_01303" class="clusterblast-orf" id="dummy-5_q6_0_all"  />
<polygon points="413,35 418,30 427,30 427,40 418,40 413,35 " style="fill:#15d8d8; stroke-width:1; stroke:black; " description="&lt;b&gt;DFGDCJBF_01304&lt;/b&gt;&lt;br&gt;D-aminopeptidase&lt;br&gt;Location: 1354150 - 1355443" locus_tag="DFGDCJBF_01304" class="clusterblast-orf" id="dummy-5_q7_0_all"  />
<polygon points="427,35 429,30 429,40 427,35 " style="fill:white; stroke-width:1; stroke:black; " description="&lt;b&gt;DFGDCJBF_01305&lt;/b&gt;&lt;br&gt;hypothetical protein&lt;br&gt;Location: 1355492 - 1355603" locus_tag="DFGDCJBF_01305" class="clusterblast-orf" id="dummy-5_q8_0_all"  />
<polygon points="429,35 434,30 442,30 442,40 434,40 429,35 " style="fill:#15d8d8; stroke-width:1; stroke:black; " description="&lt;b&gt;DFGDCJBF_01306&lt;/b&gt;&lt;br&gt;hypothetical protein&lt;br&gt;Location: 1355675 - 1356866" locus_tag="DFGDCJBF_01306" class="clusterblast-orf" id="dummy-5_q9_0_all"  />
</g>
<g label="NZ_BCMN01000010" description="NZ_BCMN01000010 (56047-130772): Streptomyces turgidiscabies strain T45, whole... (2% of genes show similarity), NRPS,ectoine" class="clusterblast-cluster"  >
<text x="5" y="70" class="clusterblast-acc"  >
<a xlink:href="https://antismash-db.secondarymetabolites.org/area.html?record=NZ_BCMN01000010&amp;start=56047&amp;end=130772" target="_blank">NZ_BCMN01000010 (56047-130772)</a>: Streptomyces turgidiscabies strain T45, whole... (2% of genes show similarity), NRPS,ectoine</text>
<line x1="10" y1="85" x2="778.0" y2="85" style="stroke-width:1; stroke:grey; "  />
</g>
<g id="a5_000"  >
<polygon points="0,85 2,80 2,90 0,85 " style="fill:white; stroke-width:1; stroke:black; " description="&lt;b&gt;AV140_RS46500&lt;/b&gt;&lt;br&gt;DUF397 domain-containing protein&lt;br&gt;Location: 129987 - 129787" locus_tag="AV140_RS46500" class="clusterblast-orf" id="dummy-5_h5_3_0"  />
</g>
<g id="a5_001"  >
<polygon points="2,85 7,80 11,80 11,90 7,90 2,85 " style="fill:white; stroke-width:1; stroke:black; " description="&lt;b&gt;AV140_RS20840&lt;/b&gt;&lt;br&gt;helix-turn-helix domain-containing protein&lt;br&gt;Location: 129787 - 128942" locus_tag="AV140_RS20840" class="clusterblast-orf" id="dummy-5_h5_3_1"  />
</g>
<g id="a5_002"  >
<polygon points="13,90 15,90 20,85 15,80 13,80 13,90 " style="fill:white; stroke-width:1; stroke:black; " description="&lt;b&gt;AV140_RS20835&lt;/b&gt;&lt;br&gt;ATP-binding protein&lt;br&gt;Location: 128720 - 128058" locus_tag="AV140_RS20835" class="clusterblast-orf" id="dummy-5_h5_3_2"  />
</g>
<g id="a5_003"  >
<polygon points="20,85 25,80 54,80 54,90 25,90 20,85 " style="fill:white; stroke-width:1; stroke:black; " description="&lt;b&gt;AV140_RS20830&lt;/b&gt;&lt;br&gt;DUF3427 domain-containing protein&lt;br&gt;Location: 128053 - 124892" locus_tag="AV140_RS20830" class="clusterblast-orf" id="dummy-5_h5_3_3"  />
</g>
<g id="a5_004"  >
<polygon points="55,90 59,90 64,85 59,80 55,80 55,90 " style="fill:white; stroke-width:1; stroke:black; " description="&lt;b&gt;AV140_RS48690&lt;/b&gt;&lt;br&gt;hypothetical protein&lt;br&gt;Location: 124743 - 123898" locus_tag="AV140_RS48690" class="clusterblast-orf" id="dummy-5_h5_3_4"  />
</g>
<g id="a5_005"  >
<polygon points="65,85 70,80 76,80 76,90 70,90 65,85 " style="fill:white; stroke-width:1; stroke:black; " description="&lt;b&gt;AV140_RS48685&lt;/b&gt;&lt;br&gt;hypothetical protein&lt;br&gt;Location: 123882 - 122773" locus_tag="AV140_RS48685" class="clusterblast-orf" id="dummy-5_h5_3_5"  />
</g>
<g id="a5_006"  >
<polygon points="78,90 82,85 78,80 78,90 " style="fill:white; stroke-width:1; stroke:black; " description="&lt;b&gt;AV140_RS20825&lt;/b&gt;&lt;br&gt;NIPSNAP family protein&lt;br&gt;Location: 122598 - 122287" locus_tag="AV140_RS20825" class="clusterblast-orf" id="dummy-5_h5_3_6"  />
</g>
<g id="a5_007"  >
<polygon points="83,90 84,90 89,85 84,80 83,80 83,90 " style="fill:white; stroke-width:1; stroke:black; " description="&lt;b&gt;AV140_RS20820&lt;/b&gt;&lt;br&gt;hypothetical protein&lt;br&gt;Location: 122155 - 121628" locus_tag="AV140_RS20820" class="clusterblast-orf" id="dummy-5_h5_3_7"  />
</g>
<g id="a5_008"  >
<polygon points="92,85 97,80 105,80 105,90 97,90 92,85 " style="fill:#15d8d8; stroke-width:1; stroke:black; " description="&lt;b&gt;AV140_RS20815&lt;/b&gt;&lt;br&gt;serine hydrolase&lt;br&gt;Location: 121347 - 120094&lt;br&gt;&lt;br&gt;&lt;b&gt;BlastP hit with DFGDCJBF_01304&lt;/b&gt;&lt;br&gt;Percentage identity: 43&lt;br&gt;Percentage coverage: 77&lt;br&gt;BLAST bit score: 232&lt;br&gt;E-value: 6.05e-70&lt;br&gt;&lt;br&gt;&lt;b&gt;BlastP hit with DFGDCJBF_01306&lt;/b&gt;&lt;br&gt;Percentage identity: 31&lt;br&gt;Percentage coverage: 74&lt;br&gt;BLAST bit score: 134&lt;br&gt;E-value: 3.21e-33" locus_tag="AV140_RS20815" class="clusterblast-orf" id="dummy-5_h5_3_8"  />
</g>
<g id="a5_009"  >
<polygon points="107,90 120,90 125,85 120,80 107,80 107,90 " style="fill:white; stroke-width:1; stroke:black; " description="&lt;b&gt;AV140_RS20810&lt;/b&gt;&lt;br&gt;serine hydrolase&lt;br&gt;Location: 119900 - 118209" locus_tag="AV140_RS20810" class="clusterblast-orf" id="dummy-5_h5_3_9"  />
</g>
<g id="a5_0010"  >
<polygon points="125,85 130,80 137,80 137,90 130,90 125,85 " style="fill:white; stroke-width:1; stroke:black; " description="&lt;b&gt;AV140_RS20805&lt;/b&gt;&lt;br&gt;alpha/beta fold hydrolase&lt;br&gt;Location: 118190 - 117135" locus_tag="AV140_RS20805" class="clusterblast-orf" id="dummy-5_h5_3_10"  />
</g>
<g id="a5_0011"  >
<polygon points="140,85 145,80 154,80 154,90 145,90 140,85 " style="fill:white; stroke-width:1; stroke:black; " description="&lt;b&gt;AV140_RS20800&lt;/b&gt;&lt;br&gt;MFS transporter&lt;br&gt;Location: 116778 - 115456" locus_tag="AV140_RS20800" class="clusterblast-orf" id="dummy-5_h5_3_11"  />
</g>
<g id="a5_0012"  >
<polygon points="155,90 161,90 166,85 161,80 155,80 155,90 " style="fill:white; stroke-width:1; stroke:black; " description="&lt;b&gt;AV140_RS20795&lt;/b&gt;&lt;br&gt;helix-turn-helix domain-containing protein&lt;br&gt;Location: 115412 - 114357" locus_tag="AV140_RS20795" class="clusterblast-orf" id="dummy-5_h5_3_12"  />
</g>
<g id="a5_0013"  >
<polygon points="167,85 172,80 177,80 177,90 172,90 167,85 " style="fill:white; stroke-width:1; stroke:black; " description="&lt;b&gt;AV140_RS20790&lt;/b&gt;&lt;br&gt;ectoine hydroxylase&lt;br&gt;Location: 114267 - 113377" locus_tag="AV140_RS20790" class="clusterblast-orf" id="dummy-5_h5_3_13"  />
</g>
<g id="a5_0014"  >
<polygon points="177,85 182,80 183,80 183,90 182,90 177,85 " style="fill:white; stroke-width:1; stroke:black; " description="&lt;b&gt;AV140_RS20785&lt;/b&gt;&lt;br&gt;diaminobutyrate acetyltransferase&lt;br&gt;Location: 113362 - 112805" locus_tag="AV140_RS20785" class="clusterblast-orf" id="dummy-5_h5_3_14"  />
</g>
<g id="a5_0015"  >
<polygon points="183,85 187,80 187,90 183,85 " style="fill:#d815d8; stroke-width:1; stroke:black; " description="&lt;b&gt;AV140_RS20780&lt;/b&gt;&lt;br&gt;ectoine synthase&lt;br&gt;Location: 112803 - 112399&lt;br&gt;&lt;br&gt;&lt;b&gt;BlastP hit with DFGDCJBF_01302&lt;/b&gt;&lt;br&gt;Percentage identity: 50&lt;br&gt;Percentage coverage: 94&lt;br&gt;BLAST bit score: 127&lt;br&gt;E-value: 1.03e-36" locus_tag="AV140_RS20780" class="clusterblast-orf" id="dummy-5_h5_3_15"  />
</g>
<g id="a5_0016"  >
<polygon points="187,85 192,80 201,80 201,90 192,90 187,85 " style="fill:white; stroke-width:1; stroke:black; " description="&lt;b&gt;AV140_RS20775&lt;/b&gt;&lt;br&gt;diaminobutyrate--2-oxoglutarate transaminase&lt;br&gt;Location: 112358 - 111087" locus_tag="AV140_RS20775" class="clusterblast-orf" id="dummy-5_h5_3_16"  />
</g>
<g id="a5_0017"  >
<polygon points="201,85 204,80 204,90 201,85 " style="fill:white; stroke-width:1; stroke:black; " description="&lt;b&gt;AV140_RS20770&lt;/b&gt;&lt;br&gt;hypothetical protein&lt;br&gt;Location: 111090 - 110827" locus_tag="AV140_RS20770" class="clusterblast-orf" id="dummy-5_h5_3_17"  />
</g>
<g id="a5_0018"  >
<polygon points="204,85 209,80 221,80 221,90 209,90 204,85 " style="fill:white; stroke-width:1; stroke:black; " description="&lt;b&gt;AV140_RS20765&lt;/b&gt;&lt;br&gt;AMP-binding protein&lt;br&gt;Location: 110772 - 109234" locus_tag="AV140_RS20765" class="clusterblast-orf" id="dummy-5_h5_3_18"  />
</g>
<g id="a5_0019"  >
<polygon points="221,85 226,80 231,80 231,90 226,90 221,85 " style="fill:white; stroke-width:1; stroke:black; " description="&lt;b&gt;AV140_RS20760&lt;/b&gt;&lt;br&gt;4'-phosphopantetheinyl transferase superfamily protein&lt;br&gt;Location: 109232 - 108321" locus_tag="AV140_RS20760" class="clusterblast-orf" id="dummy-5_h5_3_19"  />
</g>
<g id="a5_0020"  >
<polygon points="231,85 236,80 245,80 245,90 236,90 231,85 " style="fill:white; stroke-width:1; stroke:black; " description="&lt;b&gt;AV140_RS20755&lt;/b&gt;&lt;br&gt;type III PLP-dependent enzyme&lt;br&gt;Location: 108324 - 106996" locus_tag="AV140_RS20755" class="clusterblast-orf" id="dummy-5_h5_3_20"  />
</g>
<g id="a5_0021"  >
<polygon points="245,85 247,80 247,90 245,85 " style="fill:white; stroke-width:1; stroke:black; " description="&lt;b&gt;AV140_RS48680&lt;/b&gt;&lt;br&gt;hypothetical protein&lt;br&gt;Location: 106931 - 106758" locus_tag="AV140_RS48680" class="clusterblast-orf" id="dummy-5_h5_3_21"  />
</g>
<g id="a5_0022"  >
<polygon points="248,85 252,80 252,90 248,85 " style="fill:white; stroke-width:1; stroke:black; " description="&lt;b&gt;AV140_RS48675&lt;/b&gt;&lt;br&gt;hypothetical protein&lt;br&gt;Location: 106646 - 106302" locus_tag="AV140_RS48675" class="clusterblast-orf" id="dummy-5_h5_3_22"  />
</g>
<g id="a5_0023"  >
<polygon points="254,85 259,80 265,80 265,90 259,90 254,85 " style="fill:white; stroke-width:1; stroke:black; " description="&lt;b&gt;AV140_RS20750&lt;/b&gt;&lt;br&gt;helix-turn-helix transcriptional regulator&lt;br&gt;Location: 106095 - 105094" locus_tag="AV140_RS20750" class="clusterblast-orf" id="dummy-5_h5_3_23"  />
</g>
<g id="a5_0024"  >
<polygon points="266,85 270,80 270,90 266,85 " style="fill:white; stroke-width:1; stroke:black; " description="&lt;b&gt;AV140_RS20745&lt;/b&gt;&lt;br&gt;VOC family protein&lt;br&gt;Location: 104969 - 104595" locus_tag="AV140_RS20745" class="clusterblast-orf" id="dummy-5_h5_3_24"  />
</g>
<g id="a5_0025"  >
<polygon points="273,85 278,80 284,80 284,90 278,90 273,85 " style="fill:white; stroke-width:1; stroke:black; " description="&lt;b&gt;AV140_RS20740&lt;/b&gt;&lt;br&gt;hypothetical protein&lt;br&gt;Location: 104322 - 103303" locus_tag="AV140_RS20740" class="clusterblast-orf" id="dummy-5_h5_3_25"  />
</g>
<g id="a5_0026"  >
<polygon points="285,85 290,80 301,80 301,90 290,90 285,85 " style="fill:white; stroke-width:1; stroke:black; " description="&lt;b&gt;AV140_RS20735&lt;/b&gt;&lt;br&gt;hypothetical protein&lt;br&gt;Location: 103174 - 101699" locus_tag="AV140_RS20735" class="clusterblast-orf" id="dummy-5_h5_3_26"  />
</g>
<g id="a5_0027"  >
<polygon points="304,90 307,90 312,85 307,80 304,80 304,90 " style="fill:white; stroke-width:1; stroke:black; " description="&lt;b&gt;AV140_RS20730&lt;/b&gt;&lt;br&gt;class E sortase&lt;br&gt;Location: 101469 - 100666" locus_tag="AV140_RS20730" class="clusterblast-orf" id="dummy-5_h5_3_27"  />
</g>
<g id="a5_0028"  >
<polygon points="313,90 317,85 313,80 313,90 " style="fill:white; stroke-width:1; stroke:black; " description="&lt;b&gt;AV140_RS20725&lt;/b&gt;&lt;br&gt;hypothetical protein&lt;br&gt;Location: 100559 - 100236" locus_tag="AV140_RS20725" class="clusterblast-orf" id="dummy-5_h5_3_28"  />
</g>
<g id="a5_0029"  >
<polygon points="318,90 322,90 327,85 322,80 318,80 318,90 " style="fill:white; stroke-width:1; stroke:black; " description="&lt;b&gt;AV140_RS20720&lt;/b&gt;&lt;br&gt;YidC/Oxa1 family membrane protein insertase&lt;br&gt;Location: 100111 - 99308" locus_tag="AV140_RS20720" class="clusterblast-orf" id="dummy-5_h5_3_29"  />
</g>
<g id="a5_0030"  >
<polygon points="328,90 332,90 337,85 332,80 328,80 328,90 " style="fill:white; stroke-width:1; stroke:black; " description="&lt;b&gt;AV140_RS20715&lt;/b&gt;&lt;br&gt;fumarylacetoacetate hydrolase family protein&lt;br&gt;Location: 99168 - 98311" locus_tag="AV140_RS20715" class="clusterblast-orf" id="dummy-5_h5_3_30"  />
</g>
<g id="a5_0031"  >
<polygon points="337,85 342,80 353,80 353,90 342,90 337,85 " style="fill:white; stroke-width:1; stroke:black; " description="&lt;b&gt;AV140_RS20710&lt;/b&gt;&lt;br&gt;acyltransferase papA2&lt;br&gt;Location: 98324 - 96813" locus_tag="AV140_RS20710" class="clusterblast-orf" id="dummy-5_h5_3_31"  />
</g>
<g id="a5_0032"  >
<polygon points="355,85 360,80 364,80 364,90 360,90 355,85 " style="fill:white; stroke-width:1; stroke:black; " description="&lt;b&gt;AV140_RS20705&lt;/b&gt;&lt;br&gt;LLM class F420-dependent oxidoreductase&lt;br&gt;Location: 96664 - 95792" locus_tag="AV140_RS20705" class="clusterblast-orf" id="dummy-5_h5_3_32"  />
</g>
<g id="a5_0033"  >
<polygon points="365,85 370,80 370,80 370,90 370,90 365,85 " style="fill:white; stroke-width:1; stroke:black; " description="&lt;b&gt;AV140_RS20700&lt;/b&gt;&lt;br&gt;heme-degrading domain-containing protein&lt;br&gt;Location: 95691 - 95218" locus_tag="AV140_RS20700" class="clusterblast-orf" id="dummy-5_h5_3_33"  />
</g>
<g id="a5_0034"  >
<polygon points="371,85 376,80 383,80 383,90 376,90 371,85 " style="fill:white; stroke-width:1; stroke:black; " description="&lt;b&gt;AV140_RS20695&lt;/b&gt;&lt;br&gt;Gfo/Idh/MocA family oxidoreductase&lt;br&gt;Location: 95152 - 94070" locus_tag="AV140_RS20695" class="clusterblast-orf" id="dummy-5_h5_3_34"  />
</g>
<g id="a5_0035"  >
<polygon points="384,90 388,85 384,80 384,90 " style="fill:white; stroke-width:1; stroke:black; " description="&lt;b&gt;AV140_RS47955&lt;/b&gt;&lt;br&gt;winged helix-turn-helix transcriptional regulator&lt;br&gt;Location: 93925 - 93542" locus_tag="AV140_RS47955" class="clusterblast-orf" id="dummy-5_h5_3_35"  />
</g>
<g id="a5_0036"  >
<polygon points="396,90 398,90 403,85 398,80 396,80 396,90 " style="fill:white; stroke-width:1; stroke:black; " description="&lt;b&gt;AV140_RS47950&lt;/b&gt;&lt;br&gt;ROK family protein&lt;br&gt;Location: 92806 - 92150" locus_tag="AV140_RS47950" class="clusterblast-orf" id="dummy-5_h5_3_36"  />
</g>
<g id="a5_0037"  >
<polygon points="404,90 408,85 404,80 404,90 " style="fill:white; stroke-width:1; stroke:black; " description="&lt;b&gt;AV140_RS20680&lt;/b&gt;&lt;br&gt;hypothetical protein&lt;br&gt;Location: 92071 - 91646" locus_tag="AV140_RS20680" class="clusterblast-orf" id="dummy-5_h5_3_37"  />
</g>
<g id="a5_0038"  >
<polygon points="410,90 413,90 418,85 413,80 410,80 410,90 " style="fill:white; stroke-width:1; stroke:black; " description="&lt;b&gt;AV140_RS20675&lt;/b&gt;&lt;br&gt;hypothetical protein&lt;br&gt;Location: 91515 - 90703" locus_tag="AV140_RS20675" class="clusterblast-orf" id="dummy-5_h5_3_38"  />
</g>
<g id="a5_0039"  >
<polygon points="420,90 423,90 428,85 423,80 420,80 420,90 " style="fill:white; stroke-width:1; stroke:black; " description="&lt;b&gt;AV140_RS20670&lt;/b&gt;&lt;br&gt;HAD family hydrolase&lt;br&gt;Location: 90544 - 89765" locus_tag="AV140_RS20670" class="clusterblast-orf" id="dummy-5_h5_3_39"  />
</g>
<g id="a5_0040"  >
<polygon points="430,90 431,90 436,85 431,80 430,80 430,90 " style="fill:white; stroke-width:1; stroke:black; " description="&lt;b&gt;AV140_RS20665&lt;/b&gt;&lt;br&gt;hypothetical protein&lt;br&gt;Location: 89638 - 89042" locus_tag="AV140_RS20665" class="clusterblast-orf" id="dummy-5_h5_3_40"  />
</g>
<g id="a5_0041"  >
<polygon points="436,90 439,90 444,85 439,80 436,80 436,90 " style="fill:white; stroke-width:1; stroke:black; " description="&lt;b&gt;AV140_RS20660&lt;/b&gt;&lt;br&gt;class F sortase&lt;br&gt;Location: 89036 - 88347" locus_tag="AV140_RS20660" class="clusterblast-orf" id="dummy-5_h5_3_41"  />
</g>
<g id="a5_0042"  >
<polygon points="449,90 455,90 460,85 455,80 449,80 449,90 " style="fill:white; stroke-width:1; stroke:black; " description="&lt;b&gt;AV140_RS20655&lt;/b&gt;&lt;br&gt;glycoside hydrolase family 6 protein&lt;br&gt;Location: 87838 - 86813" locus_tag="AV140_RS20655" class="clusterblast-orf" id="dummy-5_h5_3_42"  />
</g>
<g id="a5_0043"  >
<polygon points="462,85 467,80 483,80 483,90 467,90 462,85 " style="fill:white; stroke-width:1; stroke:black; " description="&lt;b&gt;AV140_RS20650&lt;/b&gt;&lt;br&gt;DUF1929 domain-containing protein&lt;br&gt;Location: 86591 - 84654" locus_tag="AV140_RS20650" class="clusterblast-orf" id="dummy-5_h5_3_43"  />
</g>
<g id="a5_0044"  >
<polygon points="483,85 488,80 505,80 505,90 488,90 483,85 " style="fill:white; stroke-width:1; stroke:black; " description="&lt;b&gt;AV140_RS20645&lt;/b&gt;&lt;br&gt;glycosyltransferase&lt;br&gt;Location: 84657 - 82615" locus_tag="AV140_RS20645" class="clusterblast-orf" id="dummy-5_h5_3_44"  />
</g>
<g id="a5_0045"  >
<polygon points="512,90 523,90 528,85 523,80 512,80 512,90 " style="fill:white; stroke-width:1; stroke:black; " description="&lt;b&gt;AV140_RS20635&lt;/b&gt;&lt;br&gt;hypothetical protein&lt;br&gt;Location: 81897 - 80425" locus_tag="AV140_RS20635" class="clusterblast-orf" id="dummy-5_h5_3_45"  />
</g>
<g id="a5_0046"  >
<polygon points="530,90 537,90 542,85 537,80 530,80 530,90 " style="fill:white; stroke-width:1; stroke:black; " description="&lt;b&gt;AV140_RS20630&lt;/b&gt;&lt;br&gt;SPFH/Band 7/PHB domain protein&lt;br&gt;Location: 80276 - 79149" locus_tag="AV140_RS20630" class="clusterblast-orf" id="dummy-5_h5_3_46"  />
</g>
<g id="a5_0047"  >
<polygon points="543,90 544,90 549,85 544,80 543,80 543,90 " style="fill:white; stroke-width:1; stroke:black; " description="&lt;b&gt;AV140_RS20625&lt;/b&gt;&lt;br&gt;lytic polysaccharide monooxygenase&lt;br&gt;Location: 79050 - 78427" locus_tag="AV140_RS20625" class="clusterblast-orf" id="dummy-5_h5_3_47"  />
</g>
<g id="a5_0048"  >
<polygon points="551,90 551,90 556,85 551,80 551,80 551,90 " style="fill:white; stroke-width:1; stroke:black; " description="&lt;b&gt;AV140_RS20620&lt;/b&gt;&lt;br&gt;hypothetical protein&lt;br&gt;Location: 78313 - 77771" locus_tag="AV140_RS20620" class="clusterblast-orf" id="dummy-5_h5_3_48"  />
</g>
<g id="a5_0049"  >
<polygon points="557,90 570,90 575,85 570,80 557,80 557,90 " style="fill:white; stroke-width:1; stroke:black; " description="&lt;b&gt;AV140_RS20615&lt;/b&gt;&lt;br&gt;AMP-binding protein&lt;br&gt;Location: 77703 - 76048" locus_tag="AV140_RS20615" class="clusterblast-orf" id="dummy-5_h5_3_49"  />
</g>
<g id="a5_0050"  >
<polygon points="577,85 582,80 585,80 585,90 582,90 577,85 " style="fill:white; stroke-width:1; stroke:black; " description="&lt;b&gt;AV140_RS20605&lt;/b&gt;&lt;br&gt;IclR family transcriptional regulator&lt;br&gt;Location: 75837 - 75079" locus_tag="AV140_RS20605" class="clusterblast-orf" id="dummy-5_h5_3_50"  />
</g>
<g id="a5_0051"  >
<polygon points="587,85 592,80 595,80 595,90 592,90 587,85 " style="fill:white; stroke-width:1; stroke:black; " description="&lt;b&gt;AV140_RS20600&lt;/b&gt;&lt;br&gt;ectoine/hydroxyectoine ABC transporter ATP-binding protein EhuA&lt;br&gt;Location: 74887 - 74132" locus_tag="AV140_RS20600" class="clusterblast-orf" id="dummy-5_h5_3_51"  />
</g>
<g id="a5_0052"  >
<polygon points="595,85 600,80 602,80 602,90 600,90 595,85 " style="fill:white; stroke-width:1; stroke:black; " description="&lt;b&gt;AV140_RS20595&lt;/b&gt;&lt;br&gt;ectoine/hydroxyectoine ABC transporter permease subunit EhuD&lt;br&gt;Location: 74109 - 73459" locus_tag="AV140_RS20595" class="clusterblast-orf" id="dummy-5_h5_3_52"  />
</g>
<g id="a5_0053"  >
<polygon points="602,85 607,80 609,80 609,90 607,90 602,85 " style="fill:white; stroke-width:1; stroke:black; " description="&lt;b&gt;AV140_RS20590&lt;/b&gt;&lt;br&gt;ectoine/hydroxyectoine ABC transporter permease subunit EhuC&lt;br&gt;Location: 73462 - 72818" locus_tag="AV140_RS20590" class="clusterblast-orf" id="dummy-5_h5_3_53"  />
</g>
<g id="a5_0054"  >
<polygon points="609,85 614,80 619,80 619,90 614,90 609,85 " style="fill:white; stroke-width:1; stroke:black; " description="&lt;b&gt;AV140_RS20585&lt;/b&gt;&lt;br&gt;ectoine/hydroxyectoine ABC transporter substrate-binding protein EhuB&lt;br&gt;Location: 72821 - 71901" locus_tag="AV140_RS20585" class="clusterblast-orf" id="dummy-5_h5_3_54"  />
</g>
<g id="a5_0055"  >
<polygon points="620,90 620,90 625,85 620,80 620,80 620,90 " style="fill:white; stroke-width:1; stroke:black; " description="&lt;b&gt;AV140_RS20580&lt;/b&gt;&lt;br&gt;DUF3830 family protein&lt;br&gt;Location: 71835 - 71329" locus_tag="AV140_RS20580" class="clusterblast-orf" id="dummy-5_h5_3_55"  />
</g>
<g id="a5_0056"  >
<polygon points="625,85 630,80 640,80 640,90 630,90 625,85 " style="fill:white; stroke-width:1; stroke:black; " description="&lt;b&gt;AV140_RS20575&lt;/b&gt;&lt;br&gt;amidase&lt;br&gt;Location: 71348 - 69912" locus_tag="AV140_RS20575" class="clusterblast-orf" id="dummy-5_h5_3_56"  />
</g>
<g id="a5_0057"  >
<polygon points="640,85 645,80 651,80 651,90 645,90 640,85 " style="fill:white; stroke-width:1; stroke:black; " description="&lt;b&gt;AV140_RS20570&lt;/b&gt;&lt;br&gt;D-2-hydroxyacid dehydrogenase&lt;br&gt;Location: 69879 - 68926" locus_tag="AV140_RS20570" class="clusterblast-orf" id="dummy-5_h5_3_57"  />
</g>
<g id="a5_0058"  >
<polygon points="654,90 661,90 666,85 661,80 654,80 654,90 " style="fill:white; stroke-width:1; stroke:black; " description="&lt;b&gt;AV140_RS20565&lt;/b&gt;&lt;br&gt;IS200/IS605 family element transposase accessory protein TnpB&lt;br&gt;Location: 68649 - 67453" locus_tag="AV140_RS20565" class="clusterblast-orf" id="dummy-5_h5_3_58"  />
</g>
<g id="a5_0059"  >
<polygon points="667,90 669,85 667,80 667,90 " style="fill:white; stroke-width:1; stroke:black; " description="&lt;b&gt;AV140_RS46490&lt;/b&gt;&lt;br&gt;decarboxylase&lt;br&gt;Location: 67384 - 67163" locus_tag="AV140_RS46490" class="clusterblast-orf" id="dummy-5_h5_3_59"  />
</g>
<g id="a5_0060"  >
<polygon points="670,90 672,90 677,85 672,80 670,80 670,90 " style="fill:white; stroke-width:1; stroke:black; " description="&lt;b&gt;AV140_RS20560&lt;/b&gt;&lt;br&gt;Asp/Glu/hydantoin racemase&lt;br&gt;Location: 67142 - 66411" locus_tag="AV140_RS20560" class="clusterblast-orf" id="dummy-5_h5_3_60"  />
</g>
<g id="a5_0061"  >
<polygon points="679,90 686,90 691,85 686,80 679,80 679,90 " style="fill:white; stroke-width:1; stroke:black; " description="&lt;b&gt;AV140_RS20555&lt;/b&gt;&lt;br&gt;LLM class flavin-dependent oxidoreductase&lt;br&gt;Location: 66245 - 65154" locus_tag="AV140_RS20555" class="clusterblast-orf" id="dummy-5_h5_3_61"  />
</g>
<g id="a5_0062"  >
<polygon points="691,85 696,80 711,80 711,90 696,90 691,85 " style="fill:white; stroke-width:1; stroke:black; " description="&lt;b&gt;AV140_RS20550&lt;/b&gt;&lt;br&gt;EAL domain-containing protein&lt;br&gt;Location: 65138 - 63231" locus_tag="AV140_RS20550" class="clusterblast-orf" id="dummy-5_h5_3_62"  />
</g>
<g id="a5_0063"  >
<polygon points="716,90 726,90 731,85 726,80 716,80 716,90 " style="fill:white; stroke-width:1; stroke:black; " description="&lt;b&gt;AV140_RS20545&lt;/b&gt;&lt;br&gt;M6 family metalloprotease domain-containing protein&lt;br&gt;Location: 62842 - 61412" locus_tag="AV140_RS20545" class="clusterblast-orf" id="dummy-5_h5_3_63"  />
</g>
<g id="a5_0064"  >
<polygon points="732,85 737,80 739,80 739,90 737,90 732,85 " style="fill:white; stroke-width:1; stroke:black; " description="&lt;b&gt;AV140_RS45725&lt;/b&gt;&lt;br&gt;hypothetical protein&lt;br&gt;Location: 61280 - 60609" locus_tag="AV140_RS45725" class="clusterblast-orf" id="dummy-5_h5_3_64"  />
</g>
<g id="a5_0065"  >
<polygon points="743,85 746,80 746,90 743,85 " style="fill:white; stroke-width:1; stroke:black; " description="&lt;b&gt;AV140_RS20535&lt;/b&gt;&lt;br&gt;hypothetical protein&lt;br&gt;Location: 60304 - 59975" locus_tag="AV140_RS20535" class="clusterblast-orf" id="dummy-5_h5_3_65"  />
</g>
<g id="a5_0066"  >
<polygon points="748,85 753,80 762,80 762,90 753,90 748,85 " style="fill:white; stroke-width:1; stroke:black; " description="&lt;b&gt;AV140_RS20530&lt;/b&gt;&lt;br&gt;ATP-binding protein&lt;br&gt;Location: 59805 - 58453" locus_tag="AV140_RS20530" class="clusterblast-orf" id="dummy-5_h5_3_66"  />
</g>
<g id="a5_0067"  >
<polygon points="762,85 767,80 779,80 779,90 767,90 762,85 " style="fill:white; stroke-width:1; stroke:black; " description="&lt;b&gt;AV140_RS20525&lt;/b&gt;&lt;br&gt;hypothetical protein&lt;br&gt;Location: 58456 - 56843" locus_tag="AV140_RS20525" class="clusterblast-orf" id="dummy-5_h5_3_67"  />
</g>
</svg>
