<svg xmlns="http://www.w3.org/2000/svg" xmlns:xlink="http://www.w3.org/1999/xlink" version="1.1" x="0" y="0" height="230" width="800" viewBox="0 0 800 230" preserveAspectRatio="none"  >
<g label="Query sequence" class="clusterblast-cluster"  >
<text x="5" y="20" class="clusterblast-acc"  >
Query sequence</text>
<line x1="10" y1="35" x2="778.0" y2="35" style="stroke-width:1; stroke:grey; "  />
<polygon points="29,35 34,30 42,30 42,40 34,40 29,35 " style="fill:#d81515; stroke-width:1; stroke:black; " description="&lt;b&gt;DFGDCJBF_00887&lt;/b&gt;&lt;br&gt;hypothetical protein&lt;br&gt;Location: 948947 - 949358" locus_tag="DFGDCJBF_00887" class="clusterblast-orf" id="dummy-3_q0_0_all"  />
<polygon points="42,35 47,30 102,30 102,40 47,40 42,35 " style="fill:#6ad815; stroke-width:1; stroke:black; " description="&lt;b&gt;DFGDCJBF_00888&lt;/b&gt;&lt;br&gt;NADH-quinone oxidoreductase chain 3&lt;br&gt;Location: 949365 - 951381" locus_tag="DFGDCJBF_00888" class="clusterblast-orf" id="dummy-3_q1_0_all"  />
<polygon points="102,35 107,30 115,30 115,40 107,40 102,35 " style="fill:#15bfd8; stroke-width:1; stroke:black; " description="&lt;b&gt;DFGDCJBF_00889&lt;/b&gt;&lt;br&gt;hypothetical protein&lt;br&gt;Location: 951384 - 951819" locus_tag="DFGDCJBF_00889" class="clusterblast-orf" id="dummy-3_q2_0_all"  />
<polygon points="115,35 120,30 154,30 154,40 120,40 115,35 " style="fill:#9d15d8; stroke-width:1; stroke:black; " description="&lt;b&gt;DFGDCJBF_00890&lt;/b&gt;&lt;br&gt;NADH-quinone oxidoreductase chain 1&lt;br&gt;Location: 951815 - 953126" locus_tag="DFGDCJBF_00890" class="clusterblast-orf" id="dummy-3_q3_0_all"  />
<polygon points="154,35 159,30 161,30 161,40 159,40 154,35 " style="fill:#d84815; stroke-width:1; stroke:black; " description="&lt;b&gt;DFGDCJBF_00891&lt;/b&gt;&lt;br&gt;hypothetical protein&lt;br&gt;Location: 953135 - 953363" locus_tag="DFGDCJBF_00891" class="clusterblast-orf" id="dummy-3_q4_0_all"  />
<polygon points="162,35 167,30 195,30 195,40 167,40 162,35 " style="fill:#37d815; stroke-width:1; stroke:black; " description="&lt;b&gt;DFGDCJBF_00892&lt;/b&gt;&lt;br&gt;hypothetical protein&lt;br&gt;Location: 953374 - 954490" locus_tag="DFGDCJBF_00892" class="clusterblast-orf" id="dummy-3_q5_0_all"  />
<polygon points="195,35 200,30 231,30 231,40 200,40 195,35 " style="fill:#158cd8; stroke-width:1; stroke:black; " description="&lt;b&gt;DFGDCJBF_00893&lt;/b&gt;&lt;br&gt;NADH-quinone oxidoreductase subunit D&lt;br&gt;Location: 954489 - 955704" locus_tag="DFGDCJBF_00893" class="clusterblast-orf" id="dummy-3_q6_0_all"  />
<polygon points="231,35 236,30 250,30 250,40 236,40 231,35 " style="fill:#d015d8; stroke-width:1; stroke:black; " description="&lt;b&gt;DFGDCJBF_00894&lt;/b&gt;&lt;br&gt;NADH-quinone oxidoreductase chain 5&lt;br&gt;Location: 955703 - 956342" locus_tag="DFGDCJBF_00894" class="clusterblast-orf" id="dummy-3_q7_0_all"  />
<polygon points="251,35 256,30 267,30 267,40 256,40 251,35 " style="fill:#d87b15; stroke-width:1; stroke:black; " description="&lt;b&gt;DFGDCJBF_00895&lt;/b&gt;&lt;br&gt;NADH-quinone oxidoreductase subunit B&lt;br&gt;Location: 956362 - 956896" locus_tag="DFGDCJBF_00895" class="clusterblast-orf" id="dummy-3_q8_0_all"  />
<polygon points="267,35 272,30 277,30 277,40 272,40 267,35 " style="fill:#15d826; stroke-width:1; stroke:black; " description="&lt;b&gt;DFGDCJBF_00896&lt;/b&gt;&lt;br&gt;NAD(P)H-quinone oxidoreductase subunit 3&lt;br&gt;Location: 956886 - 957252" locus_tag="DFGDCJBF_00896" class="clusterblast-orf" id="dummy-3_q9_0_all"  />
<polygon points="288,35 293,30 311,30 311,40 293,40 288,35 " style="fill:#1559d8; stroke-width:1; stroke:black; " description="&lt;b&gt;DFGDCJBF_00897&lt;/b&gt;&lt;br&gt;Short-chain-enoyl-CoA hydratase&lt;br&gt;Location: 957596 - 958385" locus_tag="DFGDCJBF_00897" class="clusterblast-orf" id="dummy-3_q10_0_all"  />
<polygon points="312,35 317,30 338,30 338,40 317,40 312,35 " style="fill:#d815ae; stroke-width:1; stroke:black; " description="&lt;b&gt;DFGDCJBF_00898&lt;/b&gt;&lt;br&gt;3-hydroxy-3-isohexenylglutaryl-CoA/hydroxy- methylglutaryl-CoA lyase&lt;br&gt;Location: 958410 - 959289" locus_tag="DFGDCJBF_00898" class="clusterblast-orf" id="dummy-3_q11_0_all"  />
<polygon points="338,35 343,30 359,30 359,40 343,40 338,35 " style="fill:#d8ae15; stroke-width:1; stroke:black; " description="&lt;b&gt;DFGDCJBF_00899&lt;/b&gt;&lt;br&gt;Disulfide-bond oxidoreductase YfcG&lt;br&gt;Location: 959275 - 959965" locus_tag="DFGDCJBF_00899" class="clusterblast-orf" id="dummy-3_q12_0_all"  />
<polygon points="358,35 363,30 419,30 419,40 363,40 358,35 " style="fill:#15d859; stroke-width:1; stroke:black; " description="&lt;b&gt;DFGDCJBF_00900&lt;/b&gt;&lt;br&gt;Acetyl-/propionyl-coenzyme A carboxylase alpha chain&lt;br&gt;Location: 959961 - 962001" locus_tag="DFGDCJBF_00900" class="clusterblast-orf" id="dummy-3_q13_0_all"  />
<polygon points="423,35 428,30 471,30 471,40 428,40 423,35 " style="fill:#1526d8; stroke-width:1; stroke:black; " description="&lt;b&gt;DFGDCJBF_00901&lt;/b&gt;&lt;br&gt;Methylmalonyl-CoA carboxyltransferase 12S subunit&lt;br&gt;Location: 962130 - 963735" locus_tag="DFGDCJBF_00901" class="clusterblast-orf" id="dummy-3_q14_0_all"  />
<polygon points="471,35 476,30 519,30 519,40 476,40 471,35 " style="fill:#d8157b; stroke-width:1; stroke:black; " description="&lt;b&gt;DFGDCJBF_00902&lt;/b&gt;&lt;br&gt;Acetyl-coenzyme A synthetase&lt;br&gt;Location: 963731 - 965327" locus_tag="DFGDCJBF_00902" class="clusterblast-orf" id="dummy-3_q15_0_all"  />
<polygon points="519,35 523,30 523,40 519,35 " style="fill:white; stroke-width:1; stroke:black; " description="&lt;b&gt;DFGDCJBF_00903&lt;/b&gt;&lt;br&gt;hypothetical protein&lt;br&gt;Location: 965326 - 965455" locus_tag="DFGDCJBF_00903" class="clusterblast-orf" id="dummy-3_q16_0_all"  />
<polygon points="522,35 527,30 538,30 538,40 527,40 522,35 " style="fill:#d0d815; stroke-width:1; stroke:black; " description="&lt;b&gt;DFGDCJBF_00904&lt;/b&gt;&lt;br&gt;hypothetical protein&lt;br&gt;Location: 965454 - 965958" locus_tag="DFGDCJBF_00904" class="clusterblast-orf" id="dummy-3_q17_0_all"  />
<polygon points="537,35 542,30 572,30 572,40 542,40 537,35 " style="fill:#15d88c; stroke-width:1; stroke:black; " description="&lt;b&gt;DFGDCJBF_00905&lt;/b&gt;&lt;br&gt;Acyl-CoA dehydrogenase, short-chain specific&lt;br&gt;Location: 965954 - 967118" locus_tag="DFGDCJBF_00905" class="clusterblast-orf" id="dummy-3_q18_0_all"  />
<polygon points="578,35 583,30 595,30 595,40 583,40 578,35 " style="fill:#3715d8; stroke-width:1; stroke:black; " description="&lt;b&gt;DFGDCJBF_00906&lt;/b&gt;&lt;br&gt;hypothetical protein&lt;br&gt;Location: 967296 - 967890" locus_tag="DFGDCJBF_00906" class="clusterblast-orf" id="dummy-3_q19_0_all"  />
<polygon points="603,35 608,30 644,30 644,40 608,40 603,35 " style="fill:#d81548; stroke-width:1; stroke:black; " description="&lt;b&gt;DFGDCJBF_00907&lt;/b&gt;&lt;br&gt;C4-dicarboxylate TRAP transporter large permease protein DctM&lt;br&gt;Location: 968147 - 969530" locus_tag="DFGDCJBF_00907" class="clusterblast-orf" id="dummy-3_q20_0_all"  />
<polygon points="648,35 653,30 678,30 678,40 653,40 648,35 " style="fill:#9dd815; stroke-width:1; stroke:black; " description="&lt;b&gt;DFGDCJBF_00908&lt;/b&gt;&lt;br&gt;hypothetical protein&lt;br&gt;Location: 969659 - 970658" locus_tag="DFGDCJBF_00908" class="clusterblast-orf" id="dummy-3_q21_0_all"  />
<polygon points="682,35 687,30 713,30 713,40 687,40 682,35 " style="fill:#15d8bf; stroke-width:1; stroke:black; " description="&lt;b&gt;DFGDCJBF_00909&lt;/b&gt;&lt;br&gt;Alpha-keto acid-binding periplasmic protein TakP&lt;br&gt;Location: 970805 - 971834" locus_tag="DFGDCJBF_00909" class="clusterblast-orf" id="dummy-3_q22_0_all"  />
<polygon points="728,35 733,30 750,30 750,40 733,40 728,35 " style="fill:#6a15d8; stroke-width:1; stroke:black; " description="&lt;b&gt;DFGDCJBF_00910&lt;/b&gt;&lt;br&gt;Thiol:disulfide interchange protein DsbD&lt;br&gt;Location: 972325 - 973078" locus_tag="DFGDCJBF_00910" class="clusterblast-orf" id="dummy-3_q23_0_all"  />
</g>
<g label="NZ_FNPF01000003" description="NZ_FNPF01000003 (82733-109468): Citreimonas salinaria strain DSM 26880, whole... (58% of genes show similarity), betalactone" class="clusterblast-cluster"  >
<text x="5" y="70" class="clusterblast-acc"  >
<a xlink:href="https://antismash-db.secondarymetabolites.org/area.html?record=NZ_FNPF01000003&amp;start=82733&amp;end=109468" target="_blank">NZ_FNPF01000003 (82733-109468)</a>: Citreimonas salinaria strain DSM 26880, whole... (58% of genes show similarity), betalactone</text>
<line x1="10" y1="85" x2="778.0" y2="85" style="stroke-width:1; stroke:grey; "  />
</g>
<g id="a3_000"  >
<polygon points="0,85 5,80 12,80 12,90 5,90 0,85 " style="fill:#15bfd8; stroke-width:1; stroke:black; " description="&lt;b&gt;BLW27_RS04635&lt;/b&gt;&lt;br&gt;DUF5333 domain-containing protein&lt;br&gt;Location: 82914 - 83318&lt;br&gt;&lt;br&gt;&lt;b&gt;BlastP hit with DFGDCJBF_00889&lt;/b&gt;&lt;br&gt;Percentage identity: 40&lt;br&gt;Percentage coverage: 72&lt;br&gt;BLAST bit score: 81&lt;br&gt;E-value: 3.05e-18" locus_tag="BLW27_RS04635" class="clusterblast-orf" id="dummy-3_h3_10_0"  />
</g>
<g id="a3_001"  >
<polygon points="17,85 22,80 28,80 28,90 22,90 17,85 " style="fill:white; stroke-width:1; stroke:black; " description="&lt;b&gt;BLW27_RS04640&lt;/b&gt;&lt;br&gt;hypothetical protein&lt;br&gt;Location: 83489 - 83860" locus_tag="BLW27_RS04640" class="clusterblast-orf" id="dummy-3_h3_10_1"  />
</g>
<g id="a3_002"  >
<polygon points="31,85 36,80 69,80 69,90 36,90 31,85 " style="fill:#9d15d8; stroke-width:1; stroke:black; " description="&lt;b&gt;BLW27_RS04645&lt;/b&gt;&lt;br&gt;NADH-quinone oxidoreductase subunit NuoF&lt;br&gt;Location: 83961 - 85250&lt;br&gt;&lt;br&gt;&lt;b&gt;BlastP hit with DFGDCJBF_00890&lt;/b&gt;&lt;br&gt;Percentage identity: 88&lt;br&gt;Percentage coverage: 100&lt;br&gt;BLAST bit score: 806&lt;br&gt;E-value: 1.12e-295" locus_tag="BLW27_RS04645" class="clusterblast-orf" id="dummy-3_h3_10_2"  />
</g>
<g id="a3_003"  >
<polygon points="69,85 74,80 76,80 76,90 74,90 69,85 " style="fill:white; stroke-width:1; stroke:black; " description="&lt;b&gt;BLW27_RS04650&lt;/b&gt;&lt;br&gt;DUF5337 domain-containing protein&lt;br&gt;Location: 85254 - 85472" locus_tag="BLW27_RS04650" class="clusterblast-orf" id="dummy-3_h3_10_3"  />
</g>
<g id="a3_004"  >
<polygon points="76,85 81,80 96,80 96,90 81,90 76,85 " style="fill:#37d815; stroke-width:1; stroke:black; " description="&lt;b&gt;BLW27_RS04655&lt;/b&gt;&lt;br&gt;hypothetical protein&lt;br&gt;Location: 85482 - 86132&lt;br&gt;&lt;br&gt;&lt;b&gt;BlastP hit with DFGDCJBF_00892&lt;/b&gt;&lt;br&gt;Percentage identity: 60&lt;br&gt;Percentage coverage: 21&lt;br&gt;BLAST bit score: 108&lt;br&gt;E-value: 6.2e-26" locus_tag="BLW27_RS04655" class="clusterblast-orf" id="dummy-3_h3_10_4"  />
</g>
<g id="a3_005"  >
<polygon points="100,85 105,80 122,80 122,90 105,90 100,85 " style="fill:#37d815; stroke-width:1; stroke:black; " description="&lt;b&gt;BLW27_RS04660&lt;/b&gt;&lt;br&gt;hypothetical protein&lt;br&gt;Location: 86283 - 87020&lt;br&gt;&lt;br&gt;&lt;b&gt;BlastP hit with DFGDCJBF_00892&lt;/b&gt;&lt;br&gt;Percentage identity: 62&lt;br&gt;Percentage coverage: 21&lt;br&gt;BLAST bit score: 110&lt;br&gt;E-value: 4.56e-26" locus_tag="BLW27_RS04660" class="clusterblast-orf" id="dummy-3_h3_10_5"  />
</g>
<g id="a3_006"  >
<polygon points="124,85 129,80 157,80 157,90 129,90 124,85 " style="fill:#37d815; stroke-width:1; stroke:black; " description="&lt;b&gt;BLW27_RS04665&lt;/b&gt;&lt;br&gt;NADH-quinone oxidoreductase subunit NuoE&lt;br&gt;Location: 87068 - 88189&lt;br&gt;&lt;br&gt;&lt;b&gt;BlastP hit with DFGDCJBF_00892&lt;/b&gt;&lt;br&gt;Percentage identity: 61&lt;br&gt;Percentage coverage: 101&lt;br&gt;BLAST bit score: 447&lt;br&gt;E-value: 1.13e-155" locus_tag="BLW27_RS04665" class="clusterblast-orf" id="dummy-3_h3_10_6"  />
</g>
<g id="a3_007"  >
<polygon points="161,85 166,80 170,80 170,90 166,90 161,85 " style="fill:white; stroke-width:1; stroke:black; " description="&lt;b&gt;BLW27_RS04670&lt;/b&gt;&lt;br&gt;hypothetical protein&lt;br&gt;Location: 88317 - 88637" locus_tag="BLW27_RS04670" class="clusterblast-orf" id="dummy-3_h3_10_7"  />
</g>
<g id="a3_008"  >
<polygon points="170,85 175,80 207,80 207,90 175,90 170,85 " style="fill:#158cd8; stroke-width:1; stroke:black; " description="&lt;b&gt;BLW27_RS04675&lt;/b&gt;&lt;br&gt;NADH-quinone oxidoreductase subunit D&lt;br&gt;Location: 88634 - 89851&lt;br&gt;&lt;br&gt;&lt;b&gt;BlastP hit with DFGDCJBF_00893&lt;/b&gt;&lt;br&gt;Percentage identity: 87&lt;br&gt;Percentage coverage: 100&lt;br&gt;BLAST bit score: 743&lt;br&gt;E-value: 1.23e-271" locus_tag="BLW27_RS04675" class="clusterblast-orf" id="dummy-3_h3_10_8"  />
</g>
<g id="a3_009"  >
<polygon points="207,85 212,80 212,80 212,90 212,90 207,85 " style="fill:white; stroke-width:1; stroke:black; " description="&lt;b&gt;BLW27_RS21135&lt;/b&gt;&lt;br&gt;hypothetical protein&lt;br&gt;Location: 89851 - 90024" locus_tag="BLW27_RS21135" class="clusterblast-orf" id="dummy-3_h3_10_9"  />
</g>
<g id="a3_0010"  >
<polygon points="212,85 217,80 230,80 230,90 217,90 212,85 " style="fill:#d015d8; stroke-width:1; stroke:black; " description="&lt;b&gt;BLW27_RS04680&lt;/b&gt;&lt;br&gt;NADH-quinone oxidoreductase subunit C&lt;br&gt;Location: 90024 - 90641&lt;br&gt;&lt;br&gt;&lt;b&gt;BlastP hit with DFGDCJBF_00894&lt;/b&gt;&lt;br&gt;Percentage identity: 74&lt;br&gt;Percentage coverage: 97&lt;br&gt;BLAST bit score: 315&lt;br&gt;E-value: 7.07e-109" locus_tag="BLW27_RS04680" class="clusterblast-orf" id="dummy-3_h3_10_10"  />
</g>
<g id="a3_0011"  >
<polygon points="232,85 237,80 250,80 250,90 237,90 232,85 " style="fill:#d87b15; stroke-width:1; stroke:black; " description="&lt;b&gt;BLW27_RS04685&lt;/b&gt;&lt;br&gt;NADH-quinone oxidoreductase subunit B&lt;br&gt;Location: 90684 - 91295&lt;br&gt;&lt;br&gt;&lt;b&gt;BlastP hit with DFGDCJBF_00895&lt;/b&gt;&lt;br&gt;Percentage identity: 90&lt;br&gt;Percentage coverage: 97&lt;br&gt;BLAST bit score: 325&lt;br&gt;E-value: 2.53e-113" locus_tag="BLW27_RS04685" class="clusterblast-orf" id="dummy-3_h3_10_11"  />
</g>
<g id="a3_0012"  >
<polygon points="250,85 255,80 261,80 261,90 255,90 250,85 " style="fill:#15d826; stroke-width:1; stroke:black; " description="&lt;b&gt;BLW27_RS04690&lt;/b&gt;&lt;br&gt;NADH-quinone oxidoreductase subunit A&lt;br&gt;Location: 91286 - 91651&lt;br&gt;&lt;br&gt;&lt;b&gt;BlastP hit with DFGDCJBF_00896&lt;/b&gt;&lt;br&gt;Percentage identity: 71&lt;br&gt;Percentage coverage: 100&lt;br&gt;BLAST bit score: 172&lt;br&gt;E-value: 7.48e-55" locus_tag="BLW27_RS04690" class="clusterblast-orf" id="dummy-3_h3_10_12"  />
</g>
<g id="a3_0013"  >
<polygon points="269,85 274,80 293,80 293,90 274,90 269,85 " style="fill:#1559d8; stroke-width:1; stroke:black; " description="&lt;b&gt;BLW27_RS04695&lt;/b&gt;&lt;br&gt;crotonase/enoyl-CoA hydratase family protein&lt;br&gt;Location: 91946 - 92737&lt;br&gt;&lt;br&gt;&lt;b&gt;BlastP hit with DFGDCJBF_00897&lt;/b&gt;&lt;br&gt;Percentage identity: 61&lt;br&gt;Percentage coverage: 95&lt;br&gt;BLAST bit score: 284&lt;br&gt;E-value: 7.22e-95" locus_tag="BLW27_RS04695" class="clusterblast-orf" id="dummy-3_h3_10_13"  />
</g>
<g id="a3_0014"  >
<polygon points="293,85 298,80 319,80 319,90 298,90 293,85 " style="fill:#d815ae; stroke-width:1; stroke:black; " description="&lt;b&gt;BLW27_RS04700&lt;/b&gt;&lt;br&gt;hydroxymethylglutaryl-CoA lyase&lt;br&gt;Location: 92734 - 93618&lt;br&gt;&lt;br&gt;&lt;b&gt;BlastP hit with DFGDCJBF_00898&lt;/b&gt;&lt;br&gt;Percentage identity: 72&lt;br&gt;Percentage coverage: 97&lt;br&gt;BLAST bit score: 400&lt;br&gt;E-value: 1.7e-139" locus_tag="BLW27_RS04700" class="clusterblast-orf" id="dummy-3_h3_10_14"  />
</g>
<g id="a3_0015"  >
<polygon points="320,85 325,80 340,80 340,90 325,90 320,85 " style="fill:#d8ae15; stroke-width:1; stroke:black; " description="&lt;b&gt;BLW27_RS04705&lt;/b&gt;&lt;br&gt;glutathione S-transferase family protein&lt;br&gt;Location: 93630 - 94298&lt;br&gt;&lt;br&gt;&lt;b&gt;BlastP hit with DFGDCJBF_00899&lt;/b&gt;&lt;br&gt;Percentage identity: 41&lt;br&gt;Percentage coverage: 95&lt;br&gt;BLAST bit score: 169&lt;br&gt;E-value: 1.52e-50" locus_tag="BLW27_RS04705" class="clusterblast-orf" id="dummy-3_h3_10_15"  />
</g>
<g id="a3_0016"  >
<polygon points="340,85 345,80 398,80 398,90 345,90 340,85 " style="fill:#15d859; stroke-width:1; stroke:black; " description="&lt;b&gt;BLW27_RS04710&lt;/b&gt;&lt;br&gt;acetyl/propionyl/methylcrotonyl-CoA carboxylase subunit alpha&lt;br&gt;Location: 94295 - 96241&lt;br&gt;&lt;br&gt;&lt;b&gt;BlastP hit with DFGDCJBF_00900&lt;/b&gt;&lt;br&gt;Percentage identity: 69&lt;br&gt;Percentage coverage: 92&lt;br&gt;BLAST bit score: 763&lt;br&gt;E-value: 4.49e-271" locus_tag="BLW27_RS04710" class="clusterblast-orf" id="dummy-3_h3_10_16"  />
</g>
<g id="a3_0017"  >
<polygon points="399,85 404,80 447,80 447,90 404,90 399,85 " style="fill:#1526d8; stroke-width:1; stroke:black; " description="&lt;b&gt;BLW27_RS04715&lt;/b&gt;&lt;br&gt;methylcrotonoyl-CoA carboxylase&lt;br&gt;Location: 96299 - 97903&lt;br&gt;&lt;br&gt;&lt;b&gt;BlastP hit with DFGDCJBF_00901&lt;/b&gt;&lt;br&gt;Percentage identity: 85&lt;br&gt;Percentage coverage: 100&lt;br&gt;BLAST bit score: 900&lt;br&gt;E-value: 0.0" locus_tag="BLW27_RS04715" class="clusterblast-orf" id="dummy-3_h3_10_17"  />
</g>
<g id="a3_0018"  >
<polygon points="447,85 452,80 494,80 494,90 452,90 447,85 " style="fill:#d8157b; stroke-width:1; stroke:black; " description="&lt;b&gt;BLW27_RS04720&lt;/b&gt;&lt;br&gt;AMP-binding protein&lt;br&gt;Location: 97900 - 99468&lt;br&gt;&lt;br&gt;&lt;b&gt;BlastP hit with DFGDCJBF_00902&lt;/b&gt;&lt;br&gt;Percentage identity: 64&lt;br&gt;Percentage coverage: 100&lt;br&gt;BLAST bit score: 626&lt;br&gt;E-value: 3.11e-221" locus_tag="BLW27_RS04720" class="clusterblast-orf" id="dummy-3_h3_10_18"  />
</g>
<g id="a3_0019"  >
<polygon points="494,85 499,80 509,80 509,90 499,90 494,85 " style="fill:#d0d815; stroke-width:1; stroke:black; " description="&lt;b&gt;BLW27_RS04725&lt;/b&gt;&lt;br&gt;DUF1311 domain-containing protein&lt;br&gt;Location: 99468 - 99965&lt;br&gt;&lt;br&gt;&lt;b&gt;BlastP hit with DFGDCJBF_00904&lt;/b&gt;&lt;br&gt;Percentage identity: 46&lt;br&gt;Percentage coverage: 86&lt;br&gt;BLAST bit score: 127&lt;br&gt;E-value: 6.63e-36" locus_tag="BLW27_RS04725" class="clusterblast-orf" id="dummy-3_h3_10_19"  />
</g>
<g id="a3_0020"  >
<polygon points="510,85 515,80 520,80 520,90 515,90 510,85 " style="fill:white; stroke-width:1; stroke:black; " description="&lt;b&gt;BLW27_RS04730&lt;/b&gt;&lt;br&gt;hypothetical protein&lt;br&gt;Location: 100000 - 100332" locus_tag="BLW27_RS04730" class="clusterblast-orf" id="dummy-3_h3_10_20"  />
</g>
<g id="a3_0021"  >
<polygon points="520,85 525,80 555,80 555,90 525,90 520,85 " style="fill:#15d88c; stroke-width:1; stroke:black; " description="&lt;b&gt;BLW27_RS04735&lt;/b&gt;&lt;br&gt;isovaleryl-CoA dehydrogenase&lt;br&gt;Location: 100338 - 101501&lt;br&gt;&lt;br&gt;&lt;b&gt;BlastP hit with DFGDCJBF_00905&lt;/b&gt;&lt;br&gt;Percentage identity: 82&lt;br&gt;Percentage coverage: 100&lt;br&gt;BLAST bit score: 638&lt;br&gt;E-value: 1.75e-230" locus_tag="BLW27_RS04735" class="clusterblast-orf" id="dummy-3_h3_10_21"  />
</g>
<g id="a3_0022"  >
<polygon points="560,90 569,90 574,85 569,80 560,80 560,90 " style="fill:white; stroke-width:1; stroke:black; " description="&lt;b&gt;BLW27_RS04740&lt;/b&gt;&lt;br&gt;pyridoxamine 5'-phosphate oxidase family protein&lt;br&gt;Location: 101676 - 102143" locus_tag="BLW27_RS04740" class="clusterblast-orf" id="dummy-3_h3_10_22"  />
</g>
<g id="a3_0023"  >
<polygon points="577,85 582,80 597,80 597,90 582,90 577,85 " style="fill:white; stroke-width:1; stroke:black; " description="&lt;b&gt;BLW27_RS04745&lt;/b&gt;&lt;br&gt;HAD-IA family hydrolase&lt;br&gt;Location: 102260 - 102922" locus_tag="BLW27_RS04745" class="clusterblast-orf" id="dummy-3_h3_10_23"  />
</g>
<g id="a3_0024"  >
<polygon points="600,90 636,90 641,85 636,80 600,80 600,90 " style="fill:white; stroke-width:1; stroke:black; " description="&lt;b&gt;BLW27_RS04750&lt;/b&gt;&lt;br&gt;bifunctional UDP-N-acetylglucosamine diphosphorylase/glucosamine-1-phosphate N-acetyltransferase GlmU&lt;br&gt;Location: 103027 - 104376" locus_tag="BLW27_RS04750" class="clusterblast-orf" id="dummy-3_h3_10_24"  />
</g>
<g id="a3_0025"  >
<polygon points="641,90 690,90 695,85 690,80 641,80 641,90 " style="fill:white; stroke-width:1; stroke:black; " description="&lt;b&gt;BLW27_RS04755&lt;/b&gt;&lt;br&gt;glutamine--fructose-6-phosphate transaminase (isomerizing)&lt;br&gt;Location: 104380 - 106197" locus_tag="BLW27_RS04755" class="clusterblast-orf" id="dummy-3_h3_10_25"  />
</g>
<g id="a3_0026"  >
<polygon points="696,85 701,80 710,80 710,90 701,90 696,85 " style="fill:white; stroke-width:1; stroke:black; " description="&lt;b&gt;BLW27_RS04760&lt;/b&gt;&lt;br&gt;hypothetical protein&lt;br&gt;Location: 106219 - 106701" locus_tag="BLW27_RS04760" class="clusterblast-orf" id="dummy-3_h3_10_26"  />
</g>
<g id="a3_0027"  >
<polygon points="714,90 739,90 744,85 739,80 714,80 714,90 " style="fill:white; stroke-width:1; stroke:black; " description="&lt;b&gt;BLW27_RS04765&lt;/b&gt;&lt;br&gt;GTP 3',8-cyclase MoaA&lt;br&gt;Location: 106821 - 107828" locus_tag="BLW27_RS04765" class="clusterblast-orf" id="dummy-3_h3_10_27"  />
</g>
<g id="a3_0028"  >
<polygon points="745,85 750,80 780,80 780,90 750,90 745,85 " style="fill:white; stroke-width:1; stroke:black; " description="&lt;b&gt;BLW27_RS04770&lt;/b&gt;&lt;br&gt;anhydro-N-acetylmuramic acid kinase&lt;br&gt;Location: 107872 - 109023" locus_tag="BLW27_RS04770" class="clusterblast-orf" id="dummy-3_h3_10_28"  />
</g>
</svg>
