<svg xmlns="http://www.w3.org/2000/svg" xmlns:xlink="http://www.w3.org/1999/xlink" version="1.1" x="0" y="0" height="230" width="800" viewBox="0 0 800 230" preserveAspectRatio="none"  >
<g label="Query sequence" class="clusterblast-cluster"  >
<text x="5" y="20" class="clusterblast-acc"  >
Query sequence</text>
<line x1="10" y1="35" x2="778.0" y2="35" style="stroke-width:1; stroke:grey; "  />
<polygon points="0,40 98,40 103,35 98,30 0,30 0,40 " style="fill:white; stroke-width:1; stroke:black; " description="&lt;b&gt;DFGDCJBF_01066&lt;/b&gt;&lt;br&gt;hypothetical protein&lt;br&gt;Location: 1094208 - 1096887" locus_tag="DFGDCJBF_01066" class="clusterblast-orf" id="dummy-4_q0_0_all"  />
<polygon points="97,35 102,30 124,30 124,40 102,40 97,35 " style="fill:white; stroke-width:1; stroke:black; " description="&lt;b&gt;DFGDCJBF_01067&lt;/b&gt;&lt;br&gt;hypothetical protein&lt;br&gt;Location: 1096736 - 1097414" locus_tag="DFGDCJBF_01067" class="clusterblast-orf" id="dummy-4_q1_0_all"  />
<polygon points="125,40 156,40 161,35 156,30 125,30 125,40 " style="fill:white; stroke-width:1; stroke:black; " description="&lt;b&gt;DFGDCJBF_01068&lt;/b&gt;&lt;br&gt;hypothetical protein&lt;br&gt;Location: 1097440 - 1098379" locus_tag="DFGDCJBF_01068" class="clusterblast-orf" id="dummy-4_q2_0_all"  />
<polygon points="178,40 216,40 221,35 216,30 178,30 178,40 " style="fill:white; stroke-width:1; stroke:black; " description="&lt;b&gt;DFGDCJBF_01069&lt;/b&gt;&lt;br&gt;hypothetical protein&lt;br&gt;Location: 1098830 - 1099949" locus_tag="DFGDCJBF_01069" class="clusterblast-orf" id="dummy-4_q3_0_all"  />
<polygon points="222,40 225,40 230,35 225,30 222,30 222,40 " style="fill:white; stroke-width:1; stroke:black; " description="&lt;b&gt;DFGDCJBF_01070&lt;/b&gt;&lt;br&gt;hypothetical protein&lt;br&gt;Location: 1099957 - 1100164" locus_tag="DFGDCJBF_01070" class="clusterblast-orf" id="dummy-4_q4_0_all"  />
<polygon points="238,35 243,30 300,30 300,40 243,40 238,35 " style="fill:white; stroke-width:1; stroke:black; " description="&lt;b&gt;DFGDCJBF_01071&lt;/b&gt;&lt;br&gt;Glucose-6-phosphate isomerase&lt;br&gt;Location: 1100383 - 1101985" locus_tag="DFGDCJBF_01071" class="clusterblast-orf" id="dummy-4_q5_0_all"  />
<polygon points="305,35 310,30 377,30 377,40 310,40 305,35 " style="fill:#d81515; stroke-width:1; stroke:black; " description="&lt;b&gt;DFGDCJBF_01072&lt;/b&gt;&lt;br&gt;ABC transporter ATP-binding protein uup&lt;br&gt;Location: 1102116 - 1103970" locus_tag="DFGDCJBF_01072" class="clusterblast-orf" id="dummy-4_q6_0_all"  />
<polygon points="380,35 385,30 411,30 411,40 385,40 380,35 " style="fill:#5cd815; stroke-width:1; stroke:black; " description="&lt;b&gt;DFGDCJBF_01073&lt;/b&gt;&lt;br&gt;hypothetical protein&lt;br&gt;Location: 1104066 - 1104858" locus_tag="DFGDCJBF_01073" class="clusterblast-orf" id="dummy-4_q7_0_all"  />
<polygon points="414,40 424,40 429,35 424,30 414,30 414,40 " style="fill:#15a3d8; stroke-width:1; stroke:black; " description="&lt;b&gt;DFGDCJBF_01074&lt;/b&gt;&lt;br&gt;Peptide methionine sulfoxide reductase MsrB&lt;br&gt;Location: 1104938 - 1105337" locus_tag="DFGDCJBF_01074" class="clusterblast-orf" id="dummy-4_q8_0_all"  />
<polygon points="438,35 443,30 456,30 456,40 443,40 438,35 " style="fill:#c715d8; stroke-width:1; stroke:black; " description="&lt;b&gt;DFGDCJBF_01075&lt;/b&gt;&lt;br&gt;hypothetical protein&lt;br&gt;Location: 1105553 - 1106015" locus_tag="DFGDCJBF_01075" class="clusterblast-orf" id="dummy-4_q9_0_all"  />
<polygon points="463,40 483,40 488,35 483,30 463,30 463,40 " style="fill:#d88015; stroke-width:1; stroke:black; " description="&lt;b&gt;DFGDCJBF_01076&lt;/b&gt;&lt;br&gt;hypothetical protein&lt;br&gt;Location: 1106216 - 1106852" locus_tag="DFGDCJBF_01076" class="clusterblast-orf" id="dummy-4_q10_0_all"  />
<polygon points="498,40 501,40 506,35 501,30 498,30 498,40 " style="fill:#15d839; stroke-width:1; stroke:black; " description="&lt;b&gt;DFGDCJBF_01077&lt;/b&gt;&lt;br&gt;hypothetical protein&lt;br&gt;Location: 1107129 - 1107336" locus_tag="DFGDCJBF_01077" class="clusterblast-orf" id="dummy-4_q11_0_all"  />
<polygon points="508,40 546,40 551,35 546,30 508,30 508,40 " style="fill:#1539d8; stroke-width:1; stroke:black; " description="&lt;b&gt;DFGDCJBF_01078&lt;/b&gt;&lt;br&gt;Phosphate acyltransferase&lt;br&gt;Location: 1107369 - 1108488" locus_tag="DFGDCJBF_01078" class="clusterblast-orf" id="dummy-4_q12_0_all"  />
<polygon points="551,40 584,40 589,35 584,30 551,30 551,40 " style="fill:#d81580; stroke-width:1; stroke:black; " description="&lt;b&gt;DFGDCJBF_01079&lt;/b&gt;&lt;br&gt;3-oxoacyl-[acyl-carrier-protein] synthase 3&lt;br&gt;Location: 1108484 - 1109486" locus_tag="DFGDCJBF_01079" class="clusterblast-orf" id="dummy-4_q13_0_all"  />
<polygon points="595,40 602,40 607,35 602,30 595,30 595,40 " style="fill:#c7d815; stroke-width:1; stroke:black; " description="&lt;b&gt;DFGDCJBF_01080&lt;/b&gt;&lt;br&gt;Integration host factor subunit alpha&lt;br&gt;Location: 1109633 - 1109936" locus_tag="DFGDCJBF_01080" class="clusterblast-orf" id="dummy-4_q14_0_all"  />
<polygon points="607,40 645,40 650,35 645,30 607,30 607,40 " style="fill:#15d8a3; stroke-width:1; stroke:black; " description="&lt;b&gt;DFGDCJBF_01081&lt;/b&gt;&lt;br&gt;hypothetical protein&lt;br&gt;Location: 1109939 - 1111046" locus_tag="DFGDCJBF_01081" class="clusterblast-orf" id="dummy-4_q15_0_all"  />
<polygon points="678,40 715,40 720,35 715,30 678,30 678,40 " style="fill:#5c15d8; stroke-width:1; stroke:black; " description="&lt;b&gt;DFGDCJBF_01083&lt;/b&gt;&lt;br&gt;dCTP deaminase, dUMP-forming&lt;br&gt;Location: 1111769 - 1112867" locus_tag="DFGDCJBF_01083" class="clusterblast-orf" id="dummy-4_q16_0_all"  />
<polygon points="729,35 734,30 748,30 748,40 734,40 729,35 " style="fill:white; stroke-width:1; stroke:black; " description="&lt;b&gt;DFGDCJBF_01084&lt;/b&gt;&lt;br&gt;hypothetical protein&lt;br&gt;Location: 1113093 - 1113597" locus_tag="DFGDCJBF_01084" class="clusterblast-orf" id="dummy-4_q17_0_all"  />
<polygon points="766,40 775,40 780,35 775,30 766,30 766,40 " style="fill:white; stroke-width:1; stroke:black; " description="&lt;b&gt;DFGDCJBF_01085&lt;/b&gt;&lt;br&gt;IS256 family transposase ISPye43&lt;br&gt;Location: 1114070 - 1114421" locus_tag="DFGDCJBF_01085" class="clusterblast-orf" id="dummy-4_q18_0_all"  />
</g>
<g label="NZ_JAATNG010000001" description="NZ_JAATNG010000001 (2112634-2133384): Pseudoruegeria sp. HB172150 scaffold1, ... (61% of genes show similarity), hserlactone" class="clusterblast-cluster"  >
<text x="5" y="70" class="clusterblast-acc"  >
<a xlink:href="https://antismash-db.secondarymetabolites.org/area.html?record=NZ_JAATNG010000001&amp;start=2112634&amp;end=2133384" target="_blank">NZ_JAATNG010000001 (2112634-2133384)</a>: Pseudoruegeria sp. HB172150 scaffold1, ... (61% of genes show similarity), hserlactone</text>
<line x1="10" y1="85" x2="778.0" y2="85" style="stroke-width:1; stroke:grey; "  />
</g>
<g id="a4_000"  >
<polygon points="22,85 27,80 93,80 93,90 27,90 22,85 " style="fill:white; stroke-width:1; stroke:black; " description="&lt;b&gt;HCO70_RS10105&lt;/b&gt;&lt;br&gt;ABC transporter ATP-binding protein&lt;br&gt;Location: 2113247 - 2115076" locus_tag="HCO70_RS10105" class="clusterblast-orf" id="dummy-4_h4_4_0"  />
</g>
<g id="a4_001"  >
<polygon points="93,85 98,80 129,80 129,90 98,90 93,85 " style="fill:white; stroke-width:1; stroke:black; " description="&lt;b&gt;HCO70_RS10110&lt;/b&gt;&lt;br&gt;ABC transporter permease subunit&lt;br&gt;Location: 2115078 - 2116007" locus_tag="HCO70_RS10110" class="clusterblast-orf" id="dummy-4_h4_4_1"  />
</g>
<g id="a4_002"  >
<polygon points="129,85 134,80 165,80 165,90 134,90 129,85 " style="fill:white; stroke-width:1; stroke:black; " description="&lt;b&gt;HCO70_RS10115&lt;/b&gt;&lt;br&gt;oligopeptide ABC transporter permease OppB&lt;br&gt;Location: 2116018 - 2116941" locus_tag="HCO70_RS10115" class="clusterblast-orf" id="dummy-4_h4_4_2"  />
</g>
<g id="a4_003"  >
<polygon points="168,85 173,80 231,80 231,90 173,90 168,85 " style="fill:white; stroke-width:1; stroke:black; " description="&lt;b&gt;HCO70_RS10120&lt;/b&gt;&lt;br&gt;peptide ABC transporter substrate-binding protein&lt;br&gt;Location: 2117023 - 2118651" locus_tag="HCO70_RS10120" class="clusterblast-orf" id="dummy-4_h4_4_3"  />
</g>
<g id="a4_004"  >
<polygon points="250,90 260,90 265,85 260,80 250,80 250,90 " style="fill:white; stroke-width:1; stroke:black; " description="&lt;b&gt;HCO70_RS10125&lt;/b&gt;&lt;br&gt;winged helix-turn-helix transcriptional regulator&lt;br&gt;Location: 2119145 - 2119549" locus_tag="HCO70_RS10125" class="clusterblast-orf" id="dummy-4_h4_4_4"  />
</g>
<g id="a4_005"  >
<polygon points="266,85 271,80 307,80 307,90 271,90 266,85 " style="fill:white; stroke-width:1; stroke:black; " description="&lt;b&gt;HCO70_RS10130&lt;/b&gt;&lt;br&gt;DUF475 domain-containing protein&lt;br&gt;Location: 2119560 - 2120621" locus_tag="HCO70_RS10130" class="clusterblast-orf" id="dummy-4_h4_4_5"  />
</g>
<g id="a4_006"  >
<polygon points="311,85 316,80 382,80 382,90 316,90 311,85 " style="fill:#d81515; stroke-width:1; stroke:black; " description="&lt;b&gt;HCO70_RS10135&lt;/b&gt;&lt;br&gt;ATP-binding cassette domain-containing protein&lt;br&gt;Location: 2120730 - 2122568&lt;br&gt;&lt;br&gt;&lt;b&gt;BlastP hit with DFGDCJBF_01072&lt;/b&gt;&lt;br&gt;Percentage identity: 72&lt;br&gt;Percentage coverage: 101&lt;br&gt;BLAST bit score: 851&lt;br&gt;E-value: 3.9e-307" locus_tag="HCO70_RS10135" class="clusterblast-orf" id="dummy-4_h4_4_6"  />
</g>
<g id="a4_007"  >
<polygon points="384,85 389,80 413,80 413,90 389,90 384,85 " style="fill:#5cd815; stroke-width:1; stroke:black; " description="&lt;b&gt;HCO70_RS10140&lt;/b&gt;&lt;br&gt;GNAT family N-acetyltransferase&lt;br&gt;Location: 2122635 - 2123384&lt;br&gt;&lt;br&gt;&lt;b&gt;BlastP hit with DFGDCJBF_01073&lt;/b&gt;&lt;br&gt;Percentage identity: 46&lt;br&gt;Percentage coverage: 93&lt;br&gt;BLAST bit score: 208&lt;br&gt;E-value: 3.21e-65" locus_tag="HCO70_RS10140" class="clusterblast-orf" id="dummy-4_h4_4_7"  />
</g>
<g id="a4_008"  >
<polygon points="418,90 428,90 433,85 428,80 418,80 418,90 " style="fill:#15a3d8; stroke-width:1; stroke:black; " description="&lt;b&gt;HCO70_RS10145&lt;/b&gt;&lt;br&gt;peptide-methionine (R)-S-oxide reductase MsrB&lt;br&gt;Location: 2123505 - 2123900&lt;br&gt;&lt;br&gt;&lt;b&gt;BlastP hit with DFGDCJBF_01074&lt;/b&gt;&lt;br&gt;Percentage identity: 71&lt;br&gt;Percentage coverage: 96&lt;br&gt;BLAST bit score: 214&lt;br&gt;E-value: 2.77e-71" locus_tag="HCO70_RS10145" class="clusterblast-orf" id="dummy-4_h4_4_8"  />
</g>
<g id="a4_009"  >
<polygon points="434,85 439,80 452,80 452,90 439,90 434,85 " style="fill:#c715d8; stroke-width:1; stroke:black; " description="&lt;b&gt;HCO70_RS10150&lt;/b&gt;&lt;br&gt;outer membrane protein assembly factor BamE&lt;br&gt;Location: 2123921 - 2124397&lt;br&gt;&lt;br&gt;&lt;b&gt;BlastP hit with DFGDCJBF_01075&lt;/b&gt;&lt;br&gt;Percentage identity: 50&lt;br&gt;Percentage coverage: 84&lt;br&gt;BLAST bit score: 124&lt;br&gt;E-value: 7.59e-35" locus_tag="HCO70_RS10150" class="clusterblast-orf" id="dummy-4_h4_4_9"  />
</g>
<g id="a4_0010"  >
<polygon points="455,90 471,90 476,85 471,80 455,80 455,90 " style="fill:#d88015; stroke-width:1; stroke:black; " description="&lt;b&gt;HCO70_RS10155&lt;/b&gt;&lt;br&gt;DUF177 domain-containing protein&lt;br&gt;Location: 2124452 - 2125012&lt;br&gt;&lt;br&gt;&lt;b&gt;BlastP hit with DFGDCJBF_01076&lt;/b&gt;&lt;br&gt;Percentage identity: 48&lt;br&gt;Percentage coverage: 90&lt;br&gt;BLAST bit score: 160&lt;br&gt;E-value: 8.22e-48" locus_tag="HCO70_RS10155" class="clusterblast-orf" id="dummy-4_h4_4_10"  />
</g>
<g id="a4_0011"  >
<polygon points="478,85 483,80 552,80 552,90 483,90 478,85 " style="fill:white; stroke-width:1; stroke:black; " description="&lt;b&gt;HCO70_RS10160&lt;/b&gt;&lt;br&gt;elongation factor G&lt;br&gt;Location: 2125055 - 2126986" locus_tag="HCO70_RS10160" class="clusterblast-orf" id="dummy-4_h4_4_11"  />
</g>
<g id="a4_0012"  >
<polygon points="566,90 569,90 574,85 569,80 566,80 566,90 " style="fill:#15d839; stroke-width:1; stroke:black; " description="&lt;b&gt;HCO70_RS10165&lt;/b&gt;&lt;br&gt;50S ribosomal protein L32&lt;br&gt;Location: 2127345 - 2127551&lt;br&gt;&lt;br&gt;&lt;b&gt;BlastP hit with DFGDCJBF_01077&lt;/b&gt;&lt;br&gt;Percentage identity: 75&lt;br&gt;Percentage coverage: 100&lt;br&gt;BLAST bit score: 114&lt;br&gt;E-value: 9.25e-34" locus_tag="HCO70_RS10165" class="clusterblast-orf" id="dummy-4_h4_4_12"  />
</g>
<g id="a4_0013"  >
<polygon points="575,90 613,90 618,85 613,80 575,80 575,90 " style="fill:#1539d8; stroke-width:1; stroke:black; " description="&lt;b&gt;HCO70_RS10170&lt;/b&gt;&lt;br&gt;phosphate acyltransferase PlsX&lt;br&gt;Location: 2127570 - 2128679&lt;br&gt;&lt;br&gt;&lt;b&gt;BlastP hit with DFGDCJBF_01078&lt;/b&gt;&lt;br&gt;Percentage identity: 71&lt;br&gt;Percentage coverage: 94&lt;br&gt;BLAST bit score: 471&lt;br&gt;E-value: 3.87e-165" locus_tag="HCO70_RS10170" class="clusterblast-orf" id="dummy-4_h4_4_13"  />
</g>
<g id="a4_0014"  >
<polygon points="618,90 650,90 655,85 650,80 618,80 618,90 " style="fill:#d81580; stroke-width:1; stroke:black; " description="&lt;b&gt;HCO70_RS10175&lt;/b&gt;&lt;br&gt;ketoacyl-ACP synthase III&lt;br&gt;Location: 2128676 - 2129647&lt;br&gt;&lt;br&gt;&lt;b&gt;BlastP hit with DFGDCJBF_01079&lt;/b&gt;&lt;br&gt;Percentage identity: 78&lt;br&gt;Percentage coverage: 97&lt;br&gt;BLAST bit score: 498&lt;br&gt;E-value: 3.73e-177" locus_tag="HCO70_RS10175" class="clusterblast-orf" id="dummy-4_h4_4_14"  />
</g>
<g id="a4_0015"  >
<polygon points="659,90 665,90 670,85 665,80 659,80 659,90 " style="fill:#c7d815; stroke-width:1; stroke:black; " description="&lt;b&gt;HCO70_RS10180&lt;/b&gt;&lt;br&gt;integration host factor subunit alpha&lt;br&gt;Location: 2129743 - 2130045&lt;br&gt;&lt;br&gt;&lt;b&gt;BlastP hit with DFGDCJBF_01080&lt;/b&gt;&lt;br&gt;Percentage identity: 85&lt;br&gt;Percentage coverage: 100&lt;br&gt;BLAST bit score: 170&lt;br&gt;E-value: 9.56e-55" locus_tag="HCO70_RS10180" class="clusterblast-orf" id="dummy-4_h4_4_15"  />
</g>
<g id="a4_0016"  >
<polygon points="671,90 676,90 681,85 676,80 671,80 671,90 " style="fill:#15d8a3; stroke-width:1; stroke:black; " description="&lt;b&gt;HCO70_RS10185&lt;/b&gt;&lt;br&gt;MerR family transcriptional regulator&lt;br&gt;Location: 2130058 - 2130333&lt;br&gt;&lt;br&gt;&lt;b&gt;BlastP hit with DFGDCJBF_01081&lt;/b&gt;&lt;br&gt;Percentage identity: 75&lt;br&gt;Percentage coverage: 24&lt;br&gt;BLAST bit score: 137&lt;br&gt;E-value: 2.77e-38" locus_tag="HCO70_RS10185" class="clusterblast-orf" id="dummy-4_h4_4_16"  />
</g>
<g id="a4_0017"  >
<polygon points="715,90 752,90 757,85 752,80 715,80 715,90 " style="fill:#5c15d8; stroke-width:1; stroke:black; " description="&lt;b&gt;HCO70_RS10195&lt;/b&gt;&lt;br&gt;2'-deoxycytidine 5'-triphosphate deaminase&lt;br&gt;Location: 2131205 - 2132287&lt;br&gt;&lt;br&gt;&lt;b&gt;BlastP hit with DFGDCJBF_01083&lt;/b&gt;&lt;br&gt;Percentage identity: 80&lt;br&gt;Percentage coverage: 98&lt;br&gt;BLAST bit score: 566&lt;br&gt;E-value: 8.1e-203" locus_tag="HCO70_RS10195" class="clusterblast-orf" id="dummy-4_h4_4_17"  />
</g>
</svg>
