<svg xmlns="http://www.w3.org/2000/svg" xmlns:xlink="http://www.w3.org/1999/xlink" version="1.1" x="0" y="0" height="230" width="800" viewBox="0 0 800 230" preserveAspectRatio="none"  >
<g label="Query sequence" class="clusterblast-cluster"  >
<text x="5" y="20" class="clusterblast-acc"  >
Query sequence</text>
<line x1="10" y1="35" x2="778.0" y2="35" style="stroke-width:1; stroke:grey; "  />
<polygon points="0,40 8,40 13,35 8,30 0,30 0,40 " style="fill:#d81515; stroke-width:1; stroke:black; " description="&lt;b&gt;DFGDCJBF_00689&lt;/b&gt;&lt;br&gt;Iron-sulfur cluster insertion protein ErpA&lt;br&gt;Location: 743433 - 743766" locus_tag="DFGDCJBF_00689" class="clusterblast-orf" id="dummy-2_q0_0_all"  />
<polygon points="18,35 23,30 101,30 101,40 23,40 18,35 " style="fill:white; stroke-width:1; stroke:black; " description="&lt;b&gt;DFGDCJBF_00690&lt;/b&gt;&lt;br&gt;hypothetical protein&lt;br&gt;Location: 743877 - 745974" locus_tag="DFGDCJBF_00690" class="clusterblast-orf" id="dummy-2_q1_0_all"  />
<polygon points="109,35 114,30 132,30 132,40 114,40 109,35 " style="fill:white; stroke-width:1; stroke:black; " description="&lt;b&gt;DFGDCJBF_00691&lt;/b&gt;&lt;br&gt;hypothetical protein&lt;br&gt;Location: 746165 - 746744" locus_tag="DFGDCJBF_00691" class="clusterblast-orf" id="dummy-2_q2_0_all"  />
<polygon points="131,35 136,30 152,30 152,40 136,40 131,35 " style="fill:white; stroke-width:1; stroke:black; " description="&lt;b&gt;DFGDCJBF_00692&lt;/b&gt;&lt;br&gt;hypothetical protein&lt;br&gt;Location: 746733 - 747249" locus_tag="DFGDCJBF_00692" class="clusterblast-orf" id="dummy-2_q3_0_all"  />
<polygon points="151,35 156,30 177,30 177,40 156,40 151,35 " style="fill:white; stroke-width:1; stroke:black; " description="&lt;b&gt;DFGDCJBF_00693&lt;/b&gt;&lt;br&gt;hypothetical protein&lt;br&gt;Location: 747235 - 747877" locus_tag="DFGDCJBF_00693" class="clusterblast-orf" id="dummy-2_q4_0_all"  />
<polygon points="181,35 186,30 205,30 205,40 186,40 181,35 " style="fill:white; stroke-width:1; stroke:black; " description="&lt;b&gt;DFGDCJBF_00694&lt;/b&gt;&lt;br&gt;hypothetical protein&lt;br&gt;Location: 747986 - 748598" locus_tag="DFGDCJBF_00694" class="clusterblast-orf" id="dummy-2_q5_0_all"  />
<polygon points="214,40 227,40 232,35 227,30 214,30 214,40 " style="fill:#4dd815; stroke-width:1; stroke:black; " description="&lt;b&gt;DFGDCJBF_00695&lt;/b&gt;&lt;br&gt;hypothetical protein&lt;br&gt;Location: 748826 - 749261" locus_tag="DFGDCJBF_00695" class="clusterblast-orf" id="dummy-2_q6_0_all"  />
<polygon points="233,40 255,40 260,35 255,30 233,30 233,40 " style="fill:#1585d8; stroke-width:1; stroke:black; " description="&lt;b&gt;DFGDCJBF_00696&lt;/b&gt;&lt;br&gt;hypothetical protein&lt;br&gt;Location: 749284 - 749962" locus_tag="DFGDCJBF_00696" class="clusterblast-orf" id="dummy-2_q7_0_all"  />
<polygon points="267,35 272,30 277,30 277,40 272,40 267,35 " style="fill:white; stroke-width:1; stroke:black; " description="&lt;b&gt;DFGDCJBF_00697&lt;/b&gt;&lt;br&gt;Phospho-2-dehydro-3-deoxyheptonate aldolase AroG&lt;br&gt;Location: 750136 - 750388" locus_tag="DFGDCJBF_00697" class="clusterblast-orf" id="dummy-2_q8_0_all"  />
<polygon points="276,35 281,30 322,30 322,40 281,40 276,35 " style="fill:white; stroke-width:1; stroke:black; " description="&lt;b&gt;DFGDCJBF_00698&lt;/b&gt;&lt;br&gt;Phospho-2-dehydro-3-deoxyheptonate aldolase&lt;br&gt;Location: 750362 - 751520" locus_tag="DFGDCJBF_00698" class="clusterblast-orf" id="dummy-2_q9_0_all"  />
<polygon points="331,40 376,40 381,35 376,30 331,30 331,40 " style="fill:#d815bc; stroke-width:1; stroke:black; " description="&lt;b&gt;DFGDCJBF_00699&lt;/b&gt;&lt;br&gt;Riboflavin transporter RfnT&lt;br&gt;Location: 751762 - 753016" locus_tag="DFGDCJBF_00699" class="clusterblast-orf" id="dummy-2_q10_0_all"  />
<polygon points="383,35 388,30 414,30 414,40 388,40 383,35 " style="fill:#d8bc15; stroke-width:1; stroke:black; " description="&lt;b&gt;DFGDCJBF_00700&lt;/b&gt;&lt;br&gt;hypothetical protein&lt;br&gt;Location: 753054 - 753831" locus_tag="DFGDCJBF_00700" class="clusterblast-orf" id="dummy-2_q11_0_all"  />
<polygon points="413,35 418,30 480,30 480,40 418,40 413,35 " style="fill:#15d885; stroke-width:1; stroke:black; " description="&lt;b&gt;DFGDCJBF_00701&lt;/b&gt;&lt;br&gt;(R)-citramalate synthase&lt;br&gt;Location: 753827 - 755510" locus_tag="DFGDCJBF_00701" class="clusterblast-orf" id="dummy-2_q12_0_all"  />
<polygon points="489,35 494,30 549,30 549,40 494,40 489,35 " style="fill:#4d15d8; stroke-width:1; stroke:black; " description="&lt;b&gt;DFGDCJBF_00702&lt;/b&gt;&lt;br&gt;L-cysteine:1D-myo-inositol 2-amino-2-deoxy-alpha-D-glucopyranoside ligase&lt;br&gt;Location: 755738 - 757223" locus_tag="DFGDCJBF_00702" class="clusterblast-orf" id="dummy-2_q13_0_all"  />
<polygon points="558,35 563,30 672,30 672,40 563,40 558,35 " style="fill:white; stroke-width:1; stroke:black; " description="&lt;b&gt;DFGDCJBF_00703&lt;/b&gt;&lt;br&gt;UvrABC system protein A&lt;br&gt;Location: 757455 - 760320" locus_tag="DFGDCJBF_00703" class="clusterblast-orf" id="dummy-2_q14_0_all"  />
<polygon points="676,35 681,30 693,30 693,40 681,40 676,35 " style="fill:white; stroke-width:1; stroke:black; " description="&lt;b&gt;DFGDCJBF_00704&lt;/b&gt;&lt;br&gt;hypothetical protein&lt;br&gt;Location: 760431 - 760860" locus_tag="DFGDCJBF_00704" class="clusterblast-orf" id="dummy-2_q15_0_all"  />
<polygon points="696,40 722,40 727,35 722,30 696,30 696,40 " style="fill:white; stroke-width:1; stroke:black; " description="&lt;b&gt;DFGDCJBF_00705&lt;/b&gt;&lt;br&gt;2,3-dehydroadipyl-CoA hydratase&lt;br&gt;Location: 760919 - 761717" locus_tag="DFGDCJBF_00705" class="clusterblast-orf" id="dummy-2_q16_0_all"  />
<polygon points="731,35 736,30 780,30 780,40 736,40 731,35 " style="fill:white; stroke-width:1; stroke:black; " description="&lt;b&gt;DFGDCJBF_00706&lt;/b&gt;&lt;br&gt;hypothetical protein&lt;br&gt;Location: 761821 - 763039" locus_tag="DFGDCJBF_00706" class="clusterblast-orf" id="dummy-2_q17_0_all"  />
</g>
<g label="NZ_CP034328" description="NZ_CP034328 (73281-92755): Tabrizicola piscis strain K13M18 chromosome, compl... (23% of genes show similarity), terpene" class="clusterblast-cluster"  >
<text x="5" y="70" class="clusterblast-acc"  >
<a xlink:href="https://antismash-db.secondarymetabolites.org/area.html?record=NZ_CP034328&amp;start=73281&amp;end=92755" target="_blank">NZ_CP034328 (73281-92755)</a>: Tabrizicola piscis strain K13M18 chromosome, compl... (23% of genes show similarity), terpene</text>
<line x1="10" y1="85" x2="778.0" y2="85" style="stroke-width:1; stroke:grey; "  />
</g>
<g id="a2_000"  >
<polygon points="2,85 7,80 51,80 51,90 7,90 2,85 " style="fill:white; stroke-width:1; stroke:black; " description="&lt;b&gt;EI545_RS00300&lt;/b&gt;&lt;br&gt;sugar ABC transporter permease&lt;br&gt;Location: 73282 - 74505" locus_tag="EI545_RS00300" class="clusterblast-orf" id="dummy-2_h2_5_0"  />
</g>
<g id="a2_001"  >
<polygon points="55,85 60,80 109,80 109,90 60,90 55,85 " style="fill:white; stroke-width:1; stroke:black; " description="&lt;b&gt;EI545_RS00305&lt;/b&gt;&lt;br&gt;carbohydrate ABC transporter substrate-binding protein&lt;br&gt;Location: 74616 - 75962" locus_tag="EI545_RS00305" class="clusterblast-orf" id="dummy-2_h2_5_1"  />
</g>
<g id="a2_002"  >
<polygon points="119,90 155,90 160,85 155,80 119,80 119,90 " style="fill:white; stroke-width:1; stroke:black; " description="&lt;b&gt;EI545_RS00310&lt;/b&gt;&lt;br&gt;substrate-binding domain-containing protein&lt;br&gt;Location: 76226 - 77254" locus_tag="EI545_RS00310" class="clusterblast-orf" id="dummy-2_h2_5_2"  />
</g>
<g id="a2_003"  >
<polygon points="160,90 208,90 213,85 208,80 160,80 160,90 " style="fill:white; stroke-width:1; stroke:black; " description="&lt;b&gt;EI545_RS00315&lt;/b&gt;&lt;br&gt;beta-glucosidase&lt;br&gt;Location: 77258 - 78586" locus_tag="EI545_RS00315" class="clusterblast-orf" id="dummy-2_h2_5_3"  />
</g>
<g id="a2_004"  >
<polygon points="214,90 247,90 252,85 247,80 214,80 214,90 " style="fill:white; stroke-width:1; stroke:black; " description="&lt;b&gt;EI545_RS00320&lt;/b&gt;&lt;br&gt;ROK family protein&lt;br&gt;Location: 78596 - 79570" locus_tag="EI545_RS00320" class="clusterblast-orf" id="dummy-2_h2_5_4"  />
</g>
<g id="a2_005"  >
<polygon points="253,85 258,80 279,80 279,90 258,90 253,85 " style="fill:white; stroke-width:1; stroke:black; " description="&lt;b&gt;EI545_RS00325&lt;/b&gt;&lt;br&gt;dienelactone hydrolase family protein&lt;br&gt;Location: 79589 - 80245" locus_tag="EI545_RS00325" class="clusterblast-orf" id="dummy-2_h2_5_5"  />
</g>
<g id="a2_006"  >
<polygon points="279,85 284,80 304,80 304,90 284,90 279,85 " style="fill:white; stroke-width:1; stroke:black; " description="&lt;b&gt;EI545_RS00330&lt;/b&gt;&lt;br&gt;DNA-3-methyladenine glycosylase 2 family protein&lt;br&gt;Location: 80242 - 80871" locus_tag="EI545_RS00330" class="clusterblast-orf" id="dummy-2_h2_5_6"  />
</g>
<g id="a2_007"  >
<polygon points="307,90 350,90 355,85 350,80 307,80 307,90 " style="fill:#d815bc; stroke-width:1; stroke:black; " description="&lt;b&gt;EI545_RS00335&lt;/b&gt;&lt;br&gt;MFS transporter&lt;br&gt;Location: 80956 - 82161&lt;br&gt;&lt;br&gt;&lt;b&gt;BlastP hit with DFGDCJBF_00699&lt;/b&gt;&lt;br&gt;Percentage identity: 74&lt;br&gt;Percentage coverage: 95&lt;br&gt;BLAST bit score: 555&lt;br&gt;E-value: 4.92e-197" locus_tag="EI545_RS00335" class="clusterblast-orf" id="dummy-2_h2_5_7"  />
</g>
<g id="a2_008"  >
<polygon points="359,85 364,80 389,80 389,90 364,90 359,85 " style="fill:#d8bc15; stroke-width:1; stroke:black; " description="&lt;b&gt;EI545_RS00340&lt;/b&gt;&lt;br&gt;squalene/phytoene synthase family protein&lt;br&gt;Location: 82244 - 83005&lt;br&gt;&lt;br&gt;&lt;b&gt;BlastP hit with DFGDCJBF_00700&lt;/b&gt;&lt;br&gt;Percentage identity: 50&lt;br&gt;Percentage coverage: 102&lt;br&gt;BLAST bit score: 222&lt;br&gt;E-value: 1.11e-70" locus_tag="EI545_RS00340" class="clusterblast-orf" id="dummy-2_h2_5_8"  />
</g>
<g id="a2_009"  >
<polygon points="389,85 394,80 454,80 454,90 394,90 389,85 " style="fill:#15d885; stroke-width:1; stroke:black; " description="&lt;b&gt;EI545_RS00345&lt;/b&gt;&lt;br&gt;citramalate synthase&lt;br&gt;Location: 83002 - 84636&lt;br&gt;&lt;br&gt;&lt;b&gt;BlastP hit with DFGDCJBF_00701&lt;/b&gt;&lt;br&gt;Percentage identity: 82&lt;br&gt;Percentage coverage: 95&lt;br&gt;BLAST bit score: 872&lt;br&gt;E-value: 1.18e-317" locus_tag="EI545_RS00345" class="clusterblast-orf" id="dummy-2_h2_5_9"  />
</g>
<g id="a2_0010"  >
<polygon points="461,85 466,80 517,80 517,90 466,90 461,85 " style="fill:#4d15d8; stroke-width:1; stroke:black; " description="&lt;b&gt;EI545_RS00350&lt;/b&gt;&lt;br&gt;cysteine--tRNA ligase&lt;br&gt;Location: 84806 - 86230&lt;br&gt;&lt;br&gt;&lt;b&gt;BlastP hit with DFGDCJBF_00702&lt;/b&gt;&lt;br&gt;Percentage identity: 63&lt;br&gt;Percentage coverage: 101&lt;br&gt;BLAST bit score: 597&lt;br&gt;E-value: 2.42e-211" locus_tag="EI545_RS00350" class="clusterblast-orf" id="dummy-2_h2_5_10"  />
</g>
<g id="a2_0011"  >
<polygon points="525,85 530,80 549,80 549,90 530,90 525,85 " style="fill:white; stroke-width:1; stroke:black; " description="&lt;b&gt;EI545_RS00355&lt;/b&gt;&lt;br&gt;hypothetical protein&lt;br&gt;Location: 86414 - 87028" locus_tag="EI545_RS00355" class="clusterblast-orf" id="dummy-2_h2_5_11"  />
</g>
<g id="a2_0012"  >
<polygon points="556,90 607,90 612,85 607,80 556,80 556,90 " style="fill:white; stroke-width:1; stroke:black; " description="&lt;b&gt;EI545_RS00360&lt;/b&gt;&lt;br&gt;aspartate aminotransferase family protein&lt;br&gt;Location: 87195 - 88607" locus_tag="EI545_RS00360" class="clusterblast-orf" id="dummy-2_h2_5_12"  />
</g>
<g id="a2_0013"  >
<polygon points="611,90 644,90 649,85 644,80 611,80 611,90 " style="fill:white; stroke-width:1; stroke:black; " description="&lt;b&gt;EI545_RS00365&lt;/b&gt;&lt;br&gt;TPM domain-containing protein&lt;br&gt;Location: 88577 - 89530" locus_tag="EI545_RS00365" class="clusterblast-orf" id="dummy-2_h2_5_13"  />
</g>
<g id="a2_0014"  >
<polygon points="652,90 663,90 668,85 663,80 652,80 652,90 " style="fill:white; stroke-width:1; stroke:black; " description="&lt;b&gt;EI545_RS00370&lt;/b&gt;&lt;br&gt;hypothetical protein&lt;br&gt;Location: 89608 - 90009" locus_tag="EI545_RS00370" class="clusterblast-orf" id="dummy-2_h2_5_14"  />
</g>
<g id="a2_0015"  >
<polygon points="674,85 679,80 698,80 698,90 679,90 674,85 " style="fill:white; stroke-width:1; stroke:black; " description="&lt;b&gt;EI545_RS00375&lt;/b&gt;&lt;br&gt;porin family protein&lt;br&gt;Location: 90175 - 90771" locus_tag="EI545_RS00375" class="clusterblast-orf" id="dummy-2_h2_5_15"  />
</g>
<g id="a2_0016"  >
<polygon points="705,85 710,80 777,80 777,90 710,90 705,85 " style="fill:white; stroke-width:1; stroke:black; " description="&lt;b&gt;EI545_RS00380&lt;/b&gt;&lt;br&gt;ATP-binding cassette domain-containing protein&lt;br&gt;Location: 90947 - 92755" locus_tag="EI545_RS00380" class="clusterblast-orf" id="dummy-2_h2_5_16"  />
</g>
</svg>
