<svg xmlns="http://www.w3.org/2000/svg" xmlns:xlink="http://www.w3.org/1999/xlink" version="1.1" x="0" y="0" height="230" width="800" viewBox="0 0 800 230" preserveAspectRatio="none"  >
<g label="Query sequence" class="clusterblast-cluster"  >
<text x="5" y="20" class="clusterblast-acc"  >
Query sequence</text>
<line x1="10" y1="35" x2="778.0" y2="35" style="stroke-width:1; stroke:grey; "  />
<polygon points="0,40 98,40 103,35 98,30 0,30 0,40 " style="fill:white; stroke-width:1; stroke:black; " description="&lt;b&gt;DFGDCJBF_01066&lt;/b&gt;&lt;br&gt;hypothetical protein&lt;br&gt;Location: 1094208 - 1096887" locus_tag="DFGDCJBF_01066" class="clusterblast-orf" id="dummy-4_q0_0_all"  />
<polygon points="97,35 102,30 124,30 124,40 102,40 97,35 " style="fill:white; stroke-width:1; stroke:black; " description="&lt;b&gt;DFGDCJBF_01067&lt;/b&gt;&lt;br&gt;hypothetical protein&lt;br&gt;Location: 1096736 - 1097414" locus_tag="DFGDCJBF_01067" class="clusterblast-orf" id="dummy-4_q1_0_all"  />
<polygon points="125,40 156,40 161,35 156,30 125,30 125,40 " style="fill:white; stroke-width:1; stroke:black; " description="&lt;b&gt;DFGDCJBF_01068&lt;/b&gt;&lt;br&gt;hypothetical protein&lt;br&gt;Location: 1097440 - 1098379" locus_tag="DFGDCJBF_01068" class="clusterblast-orf" id="dummy-4_q2_0_all"  />
<polygon points="178,40 216,40 221,35 216,30 178,30 178,40 " style="fill:white; stroke-width:1; stroke:black; " description="&lt;b&gt;DFGDCJBF_01069&lt;/b&gt;&lt;br&gt;hypothetical protein&lt;br&gt;Location: 1098830 - 1099949" locus_tag="DFGDCJBF_01069" class="clusterblast-orf" id="dummy-4_q3_0_all"  />
<polygon points="222,40 225,40 230,35 225,30 222,30 222,40 " style="fill:white; stroke-width:1; stroke:black; " description="&lt;b&gt;DFGDCJBF_01070&lt;/b&gt;&lt;br&gt;hypothetical protein&lt;br&gt;Location: 1099957 - 1100164" locus_tag="DFGDCJBF_01070" class="clusterblast-orf" id="dummy-4_q4_0_all"  />
<polygon points="238,35 243,30 300,30 300,40 243,40 238,35 " style="fill:white; stroke-width:1; stroke:black; " description="&lt;b&gt;DFGDCJBF_01071&lt;/b&gt;&lt;br&gt;Glucose-6-phosphate isomerase&lt;br&gt;Location: 1100383 - 1101985" locus_tag="DFGDCJBF_01071" class="clusterblast-orf" id="dummy-4_q5_0_all"  />
<polygon points="305,35 310,30 377,30 377,40 310,40 305,35 " style="fill:#d81515; stroke-width:1; stroke:black; " description="&lt;b&gt;DFGDCJBF_01072&lt;/b&gt;&lt;br&gt;ABC transporter ATP-binding protein uup&lt;br&gt;Location: 1102116 - 1103970" locus_tag="DFGDCJBF_01072" class="clusterblast-orf" id="dummy-4_q6_0_all"  />
<polygon points="380,35 385,30 411,30 411,40 385,40 380,35 " style="fill:#5cd815; stroke-width:1; stroke:black; " description="&lt;b&gt;DFGDCJBF_01073&lt;/b&gt;&lt;br&gt;hypothetical protein&lt;br&gt;Location: 1104066 - 1104858" locus_tag="DFGDCJBF_01073" class="clusterblast-orf" id="dummy-4_q7_0_all"  />
<polygon points="414,40 424,40 429,35 424,30 414,30 414,40 " style="fill:#15a3d8; stroke-width:1; stroke:black; " description="&lt;b&gt;DFGDCJBF_01074&lt;/b&gt;&lt;br&gt;Peptide methionine sulfoxide reductase MsrB&lt;br&gt;Location: 1104938 - 1105337" locus_tag="DFGDCJBF_01074" class="clusterblast-orf" id="dummy-4_q8_0_all"  />
<polygon points="438,35 443,30 456,30 456,40 443,40 438,35 " style="fill:#c715d8; stroke-width:1; stroke:black; " description="&lt;b&gt;DFGDCJBF_01075&lt;/b&gt;&lt;br&gt;hypothetical protein&lt;br&gt;Location: 1105553 - 1106015" locus_tag="DFGDCJBF_01075" class="clusterblast-orf" id="dummy-4_q9_0_all"  />
<polygon points="463,40 483,40 488,35 483,30 463,30 463,40 " style="fill:#d88015; stroke-width:1; stroke:black; " description="&lt;b&gt;DFGDCJBF_01076&lt;/b&gt;&lt;br&gt;hypothetical protein&lt;br&gt;Location: 1106216 - 1106852" locus_tag="DFGDCJBF_01076" class="clusterblast-orf" id="dummy-4_q10_0_all"  />
<polygon points="498,40 501,40 506,35 501,30 498,30 498,40 " style="fill:#15d839; stroke-width:1; stroke:black; " description="&lt;b&gt;DFGDCJBF_01077&lt;/b&gt;&lt;br&gt;hypothetical protein&lt;br&gt;Location: 1107129 - 1107336" locus_tag="DFGDCJBF_01077" class="clusterblast-orf" id="dummy-4_q11_0_all"  />
<polygon points="508,40 546,40 551,35 546,30 508,30 508,40 " style="fill:#1539d8; stroke-width:1; stroke:black; " description="&lt;b&gt;DFGDCJBF_01078&lt;/b&gt;&lt;br&gt;Phosphate acyltransferase&lt;br&gt;Location: 1107369 - 1108488" locus_tag="DFGDCJBF_01078" class="clusterblast-orf" id="dummy-4_q12_0_all"  />
<polygon points="551,40 584,40 589,35 584,30 551,30 551,40 " style="fill:#d81580; stroke-width:1; stroke:black; " description="&lt;b&gt;DFGDCJBF_01079&lt;/b&gt;&lt;br&gt;3-oxoacyl-[acyl-carrier-protein] synthase 3&lt;br&gt;Location: 1108484 - 1109486" locus_tag="DFGDCJBF_01079" class="clusterblast-orf" id="dummy-4_q13_0_all"  />
<polygon points="595,40 602,40 607,35 602,30 595,30 595,40 " style="fill:#c7d815; stroke-width:1; stroke:black; " description="&lt;b&gt;DFGDCJBF_01080&lt;/b&gt;&lt;br&gt;Integration host factor subunit alpha&lt;br&gt;Location: 1109633 - 1109936" locus_tag="DFGDCJBF_01080" class="clusterblast-orf" id="dummy-4_q14_0_all"  />
<polygon points="607,40 645,40 650,35 645,30 607,30 607,40 " style="fill:#15d8a3; stroke-width:1; stroke:black; " description="&lt;b&gt;DFGDCJBF_01081&lt;/b&gt;&lt;br&gt;hypothetical protein&lt;br&gt;Location: 1109939 - 1111046" locus_tag="DFGDCJBF_01081" class="clusterblast-orf" id="dummy-4_q15_0_all"  />
<polygon points="678,40 715,40 720,35 715,30 678,30 678,40 " style="fill:#5c15d8; stroke-width:1; stroke:black; " description="&lt;b&gt;DFGDCJBF_01083&lt;/b&gt;&lt;br&gt;dCTP deaminase, dUMP-forming&lt;br&gt;Location: 1111769 - 1112867" locus_tag="DFGDCJBF_01083" class="clusterblast-orf" id="dummy-4_q16_0_all"  />
<polygon points="729,35 734,30 748,30 748,40 734,40 729,35 " style="fill:white; stroke-width:1; stroke:black; " description="&lt;b&gt;DFGDCJBF_01084&lt;/b&gt;&lt;br&gt;hypothetical protein&lt;br&gt;Location: 1113093 - 1113597" locus_tag="DFGDCJBF_01084" class="clusterblast-orf" id="dummy-4_q17_0_all"  />
<polygon points="766,40 775,40 780,35 775,30 766,30 766,40 " style="fill:white; stroke-width:1; stroke:black; " description="&lt;b&gt;DFGDCJBF_01085&lt;/b&gt;&lt;br&gt;IS256 family transposase ISPye43&lt;br&gt;Location: 1114070 - 1114421" locus_tag="DFGDCJBF_01085" class="clusterblast-orf" id="dummy-4_q18_0_all"  />
</g>
<g label="NZ_QAOH01000002" description="NZ_QAOH01000002 (169338-190091): Celeribacter persicus strain DSM 100434 Ga01... (45% of genes show similarity), hserlactone" class="clusterblast-cluster"  >
<text x="5" y="70" class="clusterblast-acc"  >
<a xlink:href="https://antismash-db.secondarymetabolites.org/area.html?record=NZ_QAOH01000002&amp;start=169338&amp;end=190091" target="_blank">NZ_QAOH01000002 (169338-190091)</a>: Celeribacter persicus strain DSM 100434 Ga01... (45% of genes show similarity), hserlactone</text>
<line x1="10" y1="85" x2="778.0" y2="85" style="stroke-width:1; stroke:grey; "  />
</g>
<g id="a4_000"  >
<polygon points="8,90 19,90 24,85 19,80 8,80 8,90 " style="fill:white; stroke-width:1; stroke:black; " description="&lt;b&gt;C8N42_RS03860&lt;/b&gt;&lt;br&gt;VOC family protein&lt;br&gt;Location: 169641 - 170063" locus_tag="C8N42_RS03860" class="clusterblast-orf" id="dummy-4_h4_7_0"  />
</g>
<g id="a4_001"  >
<polygon points="24,90 38,90 43,85 38,80 24,80 24,90 " style="fill:white; stroke-width:1; stroke:black; " description="&lt;b&gt;C8N42_RS03865&lt;/b&gt;&lt;br&gt;helix-turn-helix transcriptional regulator&lt;br&gt;Location: 170068 - 170547" locus_tag="C8N42_RS03865" class="clusterblast-orf" id="dummy-4_h4_7_1"  />
</g>
<g id="a4_002"  >
<polygon points="50,85 55,80 74,80 74,90 55,90 50,85 " style="fill:white; stroke-width:1; stroke:black; " description="&lt;b&gt;C8N42_RS03870&lt;/b&gt;&lt;br&gt;DUF4167 domain-containing protein&lt;br&gt;Location: 170748 - 171353" locus_tag="C8N42_RS03870" class="clusterblast-orf" id="dummy-4_h4_7_2"  />
</g>
<g id="a4_003"  >
<polygon points="88,85 93,80 121,80 121,90 93,90 88,85 " style="fill:white; stroke-width:1; stroke:black; " description="&lt;b&gt;C8N42_RS03875&lt;/b&gt;&lt;br&gt;peptide chain release factor N(5)-glutamine methyltransferase&lt;br&gt;Location: 171723 - 172577" locus_tag="C8N42_RS03875" class="clusterblast-orf" id="dummy-4_h4_7_3"  />
</g>
<g id="a4_004"  >
<polygon points="121,85 126,80 161,80 161,90 126,90 121,85 " style="fill:white; stroke-width:1; stroke:black; " description="&lt;b&gt;C8N42_RS03880&lt;/b&gt;&lt;br&gt;peptide chain release factor 1&lt;br&gt;Location: 172574 - 173623" locus_tag="C8N42_RS03880" class="clusterblast-orf" id="dummy-4_h4_7_4"  />
</g>
<g id="a4_005"  >
<polygon points="163,85 168,80 180,80 180,90 168,90 163,85 " style="fill:white; stroke-width:1; stroke:black; " description="&lt;b&gt;C8N42_RS03885&lt;/b&gt;&lt;br&gt;DUF1499 domain-containing protein&lt;br&gt;Location: 173671 - 174093" locus_tag="C8N42_RS03885" class="clusterblast-orf" id="dummy-4_h4_7_5"  />
</g>
<g id="a4_006"  >
<polygon points="179,85 184,80 217,80 217,90 184,90 179,85 " style="fill:white; stroke-width:1; stroke:black; " description="&lt;b&gt;C8N42_RS03890&lt;/b&gt;&lt;br&gt;agmatinase&lt;br&gt;Location: 174090 - 175052" locus_tag="C8N42_RS03890" class="clusterblast-orf" id="dummy-4_h4_7_6"  />
</g>
<g id="a4_007"  >
<polygon points="223,85 228,80 246,80 246,90 228,90 223,85 " style="fill:white; stroke-width:1; stroke:black; " description="&lt;b&gt;C8N42_RS03895&lt;/b&gt;&lt;br&gt;porin family protein&lt;br&gt;Location: 175217 - 175810" locus_tag="C8N42_RS03895" class="clusterblast-orf" id="dummy-4_h4_7_7"  />
</g>
<g id="a4_008"  >
<polygon points="254,85 259,80 325,80 325,90 259,90 254,85 " style="fill:#d81515; stroke-width:1; stroke:black; " description="&lt;b&gt;C8N42_RS03900&lt;/b&gt;&lt;br&gt;ATP-binding cassette domain-containing protein&lt;br&gt;Location: 176027 - 177859&lt;br&gt;&lt;br&gt;&lt;b&gt;BlastP hit with DFGDCJBF_01072&lt;/b&gt;&lt;br&gt;Percentage identity: 70&lt;br&gt;Percentage coverage: 99&lt;br&gt;BLAST bit score: 817&lt;br&gt;E-value: 8.65e-294" locus_tag="C8N42_RS03900" class="clusterblast-orf" id="dummy-4_h4_7_8"  />
</g>
<g id="a4_009"  >
<polygon points="329,90 349,90 354,85 349,80 329,80 329,90 " style="fill:white; stroke-width:1; stroke:black; " description="&lt;b&gt;C8N42_RS03905&lt;/b&gt;&lt;br&gt;LysE family translocator&lt;br&gt;Location: 177969 - 178610" locus_tag="C8N42_RS03905" class="clusterblast-orf" id="dummy-4_h4_7_9"  />
</g>
<g id="a4_0010"  >
<polygon points="361,90 375,90 380,85 375,80 361,80 361,90 " style="fill:white; stroke-width:1; stroke:black; " description="&lt;b&gt;C8N42_RS03910&lt;/b&gt;&lt;br&gt;Hsp20/alpha crystallin family protein&lt;br&gt;Location: 178803 - 179294" locus_tag="C8N42_RS03910" class="clusterblast-orf" id="dummy-4_h4_7_10"  />
</g>
<g id="a4_0011"  >
<polygon points="382,85 387,80 411,80 411,90 387,90 382,85 " style="fill:#5cd815; stroke-width:1; stroke:black; " description="&lt;b&gt;C8N42_RS03915&lt;/b&gt;&lt;br&gt;GNAT family N-acetyltransferase&lt;br&gt;Location: 179339 - 180091&lt;br&gt;&lt;br&gt;&lt;b&gt;BlastP hit with DFGDCJBF_01073&lt;/b&gt;&lt;br&gt;Percentage identity: 45&lt;br&gt;Percentage coverage: 92&lt;br&gt;BLAST bit score: 193&lt;br&gt;E-value: 2.52e-59" locus_tag="C8N42_RS03915" class="clusterblast-orf" id="dummy-4_h4_7_11"  />
</g>
<g id="a4_0012"  >
<polygon points="417,90 427,90 432,85 427,80 417,80 417,90 " style="fill:#15a3d8; stroke-width:1; stroke:black; " description="&lt;b&gt;C8N42_RS03920&lt;/b&gt;&lt;br&gt;peptide-methionine (R)-S-oxide reductase MsrB&lt;br&gt;Location: 180241 - 180633&lt;br&gt;&lt;br&gt;&lt;b&gt;BlastP hit with DFGDCJBF_01074&lt;/b&gt;&lt;br&gt;Percentage identity: 58&lt;br&gt;Percentage coverage: 96&lt;br&gt;BLAST bit score: 163&lt;br&gt;E-value: 4.88e-51" locus_tag="C8N42_RS03920" class="clusterblast-orf" id="dummy-4_h4_7_12"  />
</g>
<g id="a4_0013"  >
<polygon points="437,85 442,80 455,80 455,90 442,90 437,85 " style="fill:#c715d8; stroke-width:1; stroke:black; " description="&lt;b&gt;C8N42_RS03925&lt;/b&gt;&lt;br&gt;outer membrane protein assembly factor BamE&lt;br&gt;Location: 180757 - 181230&lt;br&gt;&lt;br&gt;&lt;b&gt;BlastP hit with DFGDCJBF_01075&lt;/b&gt;&lt;br&gt;Percentage identity: 53&lt;br&gt;Percentage coverage: 86&lt;br&gt;BLAST bit score: 137&lt;br&gt;E-value: 5.27e-40" locus_tag="C8N42_RS03925" class="clusterblast-orf" id="dummy-4_h4_7_13"  />
</g>
<g id="a4_0014"  >
<polygon points="458,90 476,90 481,85 476,80 458,80 458,90 " style="fill:#d88015; stroke-width:1; stroke:black; " description="&lt;b&gt;C8N42_RS03930&lt;/b&gt;&lt;br&gt;DUF177 domain-containing protein&lt;br&gt;Location: 181317 - 181892&lt;br&gt;&lt;br&gt;&lt;b&gt;BlastP hit with DFGDCJBF_01076&lt;/b&gt;&lt;br&gt;Percentage identity: 44&lt;br&gt;Percentage coverage: 89&lt;br&gt;BLAST bit score: 142&lt;br&gt;E-value: 8.24e-41" locus_tag="C8N42_RS03930" class="clusterblast-orf" id="dummy-4_h4_7_14"  />
</g>
<g id="a4_0015"  >
<polygon points="492,90 495,90 500,85 495,80 492,80 492,90 " style="fill:#15d839; stroke-width:1; stroke:black; " description="&lt;b&gt;C8N42_RS03935&lt;/b&gt;&lt;br&gt;50S ribosomal protein L32&lt;br&gt;Location: 182180 - 182386&lt;br&gt;&lt;br&gt;&lt;b&gt;BlastP hit with DFGDCJBF_01077&lt;/b&gt;&lt;br&gt;Percentage identity: 81&lt;br&gt;Percentage coverage: 100&lt;br&gt;BLAST bit score: 119&lt;br&gt;E-value: 1.36e-35" locus_tag="C8N42_RS03935" class="clusterblast-orf" id="dummy-4_h4_7_15"  />
</g>
<g id="a4_0016"  >
<polygon points="501,90 541,90 546,85 541,80 501,80 501,90 " style="fill:#1539d8; stroke-width:1; stroke:black; " description="&lt;b&gt;C8N42_RS03940&lt;/b&gt;&lt;br&gt;phosphate acyltransferase PlsX&lt;br&gt;Location: 182418 - 183584&lt;br&gt;&lt;br&gt;&lt;b&gt;BlastP hit with DFGDCJBF_01078&lt;/b&gt;&lt;br&gt;Percentage identity: 69&lt;br&gt;Percentage coverage: 90&lt;br&gt;BLAST bit score: 442&lt;br&gt;E-value: 2.64e-153" locus_tag="C8N42_RS03940" class="clusterblast-orf" id="dummy-4_h4_7_16"  />
</g>
<g id="a4_0017"  >
<polygon points="547,90 579,90 584,85 579,80 547,80 547,90 " style="fill:#d81580; stroke-width:1; stroke:black; " description="&lt;b&gt;C8N42_RS03945&lt;/b&gt;&lt;br&gt;ketoacyl-ACP synthase III&lt;br&gt;Location: 183604 - 184578&lt;br&gt;&lt;br&gt;&lt;b&gt;BlastP hit with DFGDCJBF_01079&lt;/b&gt;&lt;br&gt;Percentage identity: 73&lt;br&gt;Percentage coverage: 97&lt;br&gt;BLAST bit score: 469&lt;br&gt;E-value: 7.06e-166" locus_tag="C8N42_RS03945" class="clusterblast-orf" id="dummy-4_h4_7_17"  />
</g>
<g id="a4_0018"  >
<polygon points="589,90 596,90 601,85 596,80 589,80 589,90 " style="fill:#c7d815; stroke-width:1; stroke:black; " description="&lt;b&gt;C8N42_RS03950&lt;/b&gt;&lt;br&gt;integration host factor subunit alpha&lt;br&gt;Location: 184709 - 185008&lt;br&gt;&lt;br&gt;&lt;b&gt;BlastP hit with DFGDCJBF_01080&lt;/b&gt;&lt;br&gt;Percentage identity: 80&lt;br&gt;Percentage coverage: 96&lt;br&gt;BLAST bit score: 153&lt;br&gt;E-value: 4.75e-48" locus_tag="C8N42_RS03950" class="clusterblast-orf" id="dummy-4_h4_7_18"  />
</g>
<g id="a4_0019"  >
<polygon points="602,90 607,90 612,85 607,80 602,80 602,90 " style="fill:#15d8a3; stroke-width:1; stroke:black; " description="&lt;b&gt;C8N42_RS03955&lt;/b&gt;&lt;br&gt;MerR family transcriptional regulator&lt;br&gt;Location: 185033 - 185287&lt;br&gt;&lt;br&gt;&lt;b&gt;BlastP hit with DFGDCJBF_01081&lt;/b&gt;&lt;br&gt;Percentage identity: 80&lt;br&gt;Percentage coverage: 23&lt;br&gt;BLAST bit score: 142&lt;br&gt;E-value: 1.9e-40" locus_tag="C8N42_RS03955" class="clusterblast-orf" id="dummy-4_h4_7_19"  />
</g>
<g id="a4_0020"  >
<polygon points="651,90 687,90 692,85 687,80 651,80 651,90 " style="fill:#5c15d8; stroke-width:1; stroke:black; " description="&lt;b&gt;C8N42_RS03965&lt;/b&gt;&lt;br&gt;2'-deoxycytidine 5'-triphosphate deaminase&lt;br&gt;Location: 186301 - 187380&lt;br&gt;&lt;br&gt;&lt;b&gt;BlastP hit with DFGDCJBF_01083&lt;/b&gt;&lt;br&gt;Percentage identity: 78&lt;br&gt;Percentage coverage: 97&lt;br&gt;BLAST bit score: 555&lt;br&gt;E-value: 1.43e-198" locus_tag="C8N42_RS03965" class="clusterblast-orf" id="dummy-4_h4_7_20"  />
</g>
<g id="a4_0021"  >
<polygon points="700,90 720,90 725,85 720,80 700,80 700,90 " style="fill:white; stroke-width:1; stroke:black; " description="&lt;b&gt;C8N42_RS03970&lt;/b&gt;&lt;br&gt;DUF1236 domain-containing protein&lt;br&gt;Location: 187568 - 188233" locus_tag="C8N42_RS03970" class="clusterblast-orf" id="dummy-4_h4_7_21"  />
</g>
<g id="a4_0022"  >
<polygon points="732,85 737,80 742,80 742,90 737,90 732,85 " style="fill:white; stroke-width:1; stroke:black; " description="&lt;b&gt;C8N42_RS03975&lt;/b&gt;&lt;br&gt;hypothetical protein&lt;br&gt;Location: 188407 - 188661" locus_tag="C8N42_RS03975" class="clusterblast-orf" id="dummy-4_h4_7_22"  />
</g>
<g id="a4_0023"  >
<polygon points="747,85 752,80 771,80 771,90 752,90 747,85 " style="fill:white; stroke-width:1; stroke:black; " description="&lt;b&gt;C8N42_RS03980&lt;/b&gt;&lt;br&gt;SMC-Scp complex subunit ScpB&lt;br&gt;Location: 188787 - 189425" locus_tag="C8N42_RS03980" class="clusterblast-orf" id="dummy-4_h4_7_23"  />
</g>
</svg>
