<svg xmlns="http://www.w3.org/2000/svg" xmlns:xlink="http://www.w3.org/1999/xlink" version="1.1" x="0" y="0" height="230" width="800" viewBox="0 0 800 230" preserveAspectRatio="none"  >
<g label="Query sequence" class="clusterblast-cluster"  >
<text x="5" y="20" class="clusterblast-acc"  >
Query sequence</text>
<line x1="10" y1="35" x2="778.0" y2="35" style="stroke-width:1; stroke:grey; "  />
<polygon points="41,35 46,30 53,30 53,40 46,40 41,35 " style="fill:#d81515; stroke-width:1; stroke:black; " description="&lt;b&gt;DFGDCJBF_00887&lt;/b&gt;&lt;br&gt;hypothetical protein&lt;br&gt;Location: 948947 - 949358" locus_tag="DFGDCJBF_00887" class="clusterblast-orf" id="dummy-3_q0_0_all"  />
<polygon points="53,35 58,30 111,30 111,40 58,40 53,35 " style="fill:#6ad815; stroke-width:1; stroke:black; " description="&lt;b&gt;DFGDCJBF_00888&lt;/b&gt;&lt;br&gt;NADH-quinone oxidoreductase chain 3&lt;br&gt;Location: 949365 - 951381" locus_tag="DFGDCJBF_00888" class="clusterblast-orf" id="dummy-3_q1_0_all"  />
<polygon points="111,35 116,30 124,30 124,40 116,40 111,35 " style="fill:#15bfd8; stroke-width:1; stroke:black; " description="&lt;b&gt;DFGDCJBF_00889&lt;/b&gt;&lt;br&gt;hypothetical protein&lt;br&gt;Location: 951384 - 951819" locus_tag="DFGDCJBF_00889" class="clusterblast-orf" id="dummy-3_q2_0_all"  />
<polygon points="124,35 129,30 162,30 162,40 129,40 124,35 " style="fill:#9d15d8; stroke-width:1; stroke:black; " description="&lt;b&gt;DFGDCJBF_00890&lt;/b&gt;&lt;br&gt;NADH-quinone oxidoreductase chain 1&lt;br&gt;Location: 951815 - 953126" locus_tag="DFGDCJBF_00890" class="clusterblast-orf" id="dummy-3_q3_0_all"  />
<polygon points="162,35 167,30 169,30 169,40 167,40 162,35 " style="fill:#d84815; stroke-width:1; stroke:black; " description="&lt;b&gt;DFGDCJBF_00891&lt;/b&gt;&lt;br&gt;hypothetical protein&lt;br&gt;Location: 953135 - 953363" locus_tag="DFGDCJBF_00891" class="clusterblast-orf" id="dummy-3_q4_0_all"  />
<polygon points="169,35 174,30 201,30 201,40 174,40 169,35 " style="fill:#37d815; stroke-width:1; stroke:black; " description="&lt;b&gt;DFGDCJBF_00892&lt;/b&gt;&lt;br&gt;hypothetical protein&lt;br&gt;Location: 953374 - 954490" locus_tag="DFGDCJBF_00892" class="clusterblast-orf" id="dummy-3_q5_0_all"  />
<polygon points="201,35 206,30 236,30 236,40 206,40 201,35 " style="fill:#158cd8; stroke-width:1; stroke:black; " description="&lt;b&gt;DFGDCJBF_00893&lt;/b&gt;&lt;br&gt;NADH-quinone oxidoreductase subunit D&lt;br&gt;Location: 954489 - 955704" locus_tag="DFGDCJBF_00893" class="clusterblast-orf" id="dummy-3_q6_0_all"  />
<polygon points="236,35 241,30 255,30 255,40 241,40 236,35 " style="fill:#d015d8; stroke-width:1; stroke:black; " description="&lt;b&gt;DFGDCJBF_00894&lt;/b&gt;&lt;br&gt;NADH-quinone oxidoreductase chain 5&lt;br&gt;Location: 955703 - 956342" locus_tag="DFGDCJBF_00894" class="clusterblast-orf" id="dummy-3_q7_0_all"  />
<polygon points="255,35 260,30 271,30 271,40 260,40 255,35 " style="fill:#d87b15; stroke-width:1; stroke:black; " description="&lt;b&gt;DFGDCJBF_00895&lt;/b&gt;&lt;br&gt;NADH-quinone oxidoreductase subunit B&lt;br&gt;Location: 956362 - 956896" locus_tag="DFGDCJBF_00895" class="clusterblast-orf" id="dummy-3_q8_0_all"  />
<polygon points="270,35 275,30 281,30 281,40 275,40 270,35 " style="fill:#15d826; stroke-width:1; stroke:black; " description="&lt;b&gt;DFGDCJBF_00896&lt;/b&gt;&lt;br&gt;NAD(P)H-quinone oxidoreductase subunit 3&lt;br&gt;Location: 956886 - 957252" locus_tag="DFGDCJBF_00896" class="clusterblast-orf" id="dummy-3_q9_0_all"  />
<polygon points="291,35 296,30 314,30 314,40 296,40 291,35 " style="fill:#1559d8; stroke-width:1; stroke:black; " description="&lt;b&gt;DFGDCJBF_00897&lt;/b&gt;&lt;br&gt;Short-chain-enoyl-CoA hydratase&lt;br&gt;Location: 957596 - 958385" locus_tag="DFGDCJBF_00897" class="clusterblast-orf" id="dummy-3_q10_0_all"  />
<polygon points="315,35 320,30 340,30 340,40 320,40 315,35 " style="fill:#d815ae; stroke-width:1; stroke:black; " description="&lt;b&gt;DFGDCJBF_00898&lt;/b&gt;&lt;br&gt;3-hydroxy-3-isohexenylglutaryl-CoA/hydroxy- methylglutaryl-CoA lyase&lt;br&gt;Location: 958410 - 959289" locus_tag="DFGDCJBF_00898" class="clusterblast-orf" id="dummy-3_q11_0_all"  />
<polygon points="340,35 345,30 359,30 359,40 345,40 340,35 " style="fill:#d8ae15; stroke-width:1; stroke:black; " description="&lt;b&gt;DFGDCJBF_00899&lt;/b&gt;&lt;br&gt;Disulfide-bond oxidoreductase YfcG&lt;br&gt;Location: 959275 - 959965" locus_tag="DFGDCJBF_00899" class="clusterblast-orf" id="dummy-3_q12_0_all"  />
<polygon points="359,35 364,30 418,30 418,40 364,40 359,35 " style="fill:#15d859; stroke-width:1; stroke:black; " description="&lt;b&gt;DFGDCJBF_00900&lt;/b&gt;&lt;br&gt;Acetyl-/propionyl-coenzyme A carboxylase alpha chain&lt;br&gt;Location: 959961 - 962001" locus_tag="DFGDCJBF_00900" class="clusterblast-orf" id="dummy-3_q13_0_all"  />
<polygon points="422,35 427,30 469,30 469,40 427,40 422,35 " style="fill:#1526d8; stroke-width:1; stroke:black; " description="&lt;b&gt;DFGDCJBF_00901&lt;/b&gt;&lt;br&gt;Methylmalonyl-CoA carboxyltransferase 12S subunit&lt;br&gt;Location: 962130 - 963735" locus_tag="DFGDCJBF_00901" class="clusterblast-orf" id="dummy-3_q14_0_all"  />
<polygon points="468,35 473,30 515,30 515,40 473,40 468,35 " style="fill:#d8157b; stroke-width:1; stroke:black; " description="&lt;b&gt;DFGDCJBF_00902&lt;/b&gt;&lt;br&gt;Acetyl-coenzyme A synthetase&lt;br&gt;Location: 963731 - 965327" locus_tag="DFGDCJBF_00902" class="clusterblast-orf" id="dummy-3_q15_0_all"  />
<polygon points="515,35 518,30 518,40 515,35 " style="fill:white; stroke-width:1; stroke:black; " description="&lt;b&gt;DFGDCJBF_00903&lt;/b&gt;&lt;br&gt;hypothetical protein&lt;br&gt;Location: 965326 - 965455" locus_tag="DFGDCJBF_00903" class="clusterblast-orf" id="dummy-3_q16_0_all"  />
<polygon points="518,35 523,30 533,30 533,40 523,40 518,35 " style="fill:#d0d815; stroke-width:1; stroke:black; " description="&lt;b&gt;DFGDCJBF_00904&lt;/b&gt;&lt;br&gt;hypothetical protein&lt;br&gt;Location: 965454 - 965958" locus_tag="DFGDCJBF_00904" class="clusterblast-orf" id="dummy-3_q17_0_all"  />
<polygon points="533,35 538,30 566,30 566,40 538,40 533,35 " style="fill:#15d88c; stroke-width:1; stroke:black; " description="&lt;b&gt;DFGDCJBF_00905&lt;/b&gt;&lt;br&gt;Acyl-CoA dehydrogenase, short-chain specific&lt;br&gt;Location: 965954 - 967118" locus_tag="DFGDCJBF_00905" class="clusterblast-orf" id="dummy-3_q18_0_all"  />
<polygon points="571,35 576,30 589,30 589,40 576,40 571,35 " style="fill:#3715d8; stroke-width:1; stroke:black; " description="&lt;b&gt;DFGDCJBF_00906&lt;/b&gt;&lt;br&gt;hypothetical protein&lt;br&gt;Location: 967296 - 967890" locus_tag="DFGDCJBF_00906" class="clusterblast-orf" id="dummy-3_q19_0_all"  />
<polygon points="596,35 601,30 636,30 636,40 601,40 596,35 " style="fill:#d81548; stroke-width:1; stroke:black; " description="&lt;b&gt;DFGDCJBF_00907&lt;/b&gt;&lt;br&gt;C4-dicarboxylate TRAP transporter large permease protein DctM&lt;br&gt;Location: 968147 - 969530" locus_tag="DFGDCJBF_00907" class="clusterblast-orf" id="dummy-3_q20_0_all"  />
<polygon points="640,35 645,30 669,30 669,40 645,40 640,35 " style="fill:#9dd815; stroke-width:1; stroke:black; " description="&lt;b&gt;DFGDCJBF_00908&lt;/b&gt;&lt;br&gt;hypothetical protein&lt;br&gt;Location: 969659 - 970658" locus_tag="DFGDCJBF_00908" class="clusterblast-orf" id="dummy-3_q21_0_all"  />
<polygon points="673,35 678,30 703,30 703,40 678,40 673,35 " style="fill:#15d8bf; stroke-width:1; stroke:black; " description="&lt;b&gt;DFGDCJBF_00909&lt;/b&gt;&lt;br&gt;Alpha-keto acid-binding periplasmic protein TakP&lt;br&gt;Location: 970805 - 971834" locus_tag="DFGDCJBF_00909" class="clusterblast-orf" id="dummy-3_q22_0_all"  />
<polygon points="717,35 722,30 739,30 739,40 722,40 717,35 " style="fill:#6a15d8; stroke-width:1; stroke:black; " description="&lt;b&gt;DFGDCJBF_00910&lt;/b&gt;&lt;br&gt;Thiol:disulfide interchange protein DsbD&lt;br&gt;Location: 972325 - 973078" locus_tag="DFGDCJBF_00910" class="clusterblast-orf" id="dummy-3_q23_0_all"  />
</g>
<g label="NZ_VAUA01000002" description="NZ_VAUA01000002 (95795-122874): Pelagicola sp. DSW4-44 contig2, whole genome ... (61% of genes show similarity), betalactone" class="clusterblast-cluster"  >
<text x="5" y="70" class="clusterblast-acc"  >
<a xlink:href="https://antismash-db.secondarymetabolites.org/area.html?record=NZ_VAUA01000002&amp;start=95795&amp;end=122874" target="_blank">NZ_VAUA01000002 (95795-122874)</a>: Pelagicola sp. DSW4-44 contig2, whole genome ... (61% of genes show similarity), betalactone</text>
<line x1="10" y1="85" x2="778.0" y2="85" style="stroke-width:1; stroke:grey; "  />
</g>
<g id="a3_000"  >
<polygon points="0,85 5,80 11,80 11,90 5,90 0,85 " style="fill:#d81515; stroke-width:1; stroke:black; " description="&lt;b&gt;FEE96_RS04190&lt;/b&gt;&lt;br&gt;hypothetical protein&lt;br&gt;Location: 95887 - 96273&lt;br&gt;&lt;br&gt;&lt;b&gt;BlastP hit with DFGDCJBF_00887&lt;/b&gt;&lt;br&gt;Percentage identity: 66&lt;br&gt;Percentage coverage: 88&lt;br&gt;BLAST bit score: 156&lt;br&gt;E-value: 2.93e-48" locus_tag="FEE96_RS04190" class="clusterblast-orf" id="dummy-3_h3_2_0"  />
</g>
<g id="a3_001"  >
<polygon points="11,85 16,80 69,80 69,90 16,90 11,85 " style="fill:#6ad815; stroke-width:1; stroke:black; " description="&lt;b&gt;FEE96_RS04195&lt;/b&gt;&lt;br&gt;NADH-quinone oxidoreductase subunit G&lt;br&gt;Location: 96270 - 98288&lt;br&gt;&lt;br&gt;&lt;b&gt;BlastP hit with DFGDCJBF_00888&lt;/b&gt;&lt;br&gt;Percentage identity: 74&lt;br&gt;Percentage coverage: 99&lt;br&gt;BLAST bit score: 981&lt;br&gt;E-value: 0.0" locus_tag="FEE96_RS04195" class="clusterblast-orf" id="dummy-3_h3_2_1"  />
</g>
<g id="a3_002"  >
<polygon points="69,85 74,80 81,80 81,90 74,90 69,85 " style="fill:white; stroke-width:1; stroke:black; " description="&lt;b&gt;FEE96_RS04200&lt;/b&gt;&lt;br&gt;DUF5333 domain-containing protein&lt;br&gt;Location: 98292 - 98699" locus_tag="FEE96_RS04200" class="clusterblast-orf" id="dummy-3_h3_2_2"  />
</g>
<g id="a3_003"  >
<polygon points="84,85 89,80 93,80 93,90 89,90 84,85 " style="fill:white; stroke-width:1; stroke:black; " description="&lt;b&gt;FEE96_RS04205&lt;/b&gt;&lt;br&gt;hypothetical protein&lt;br&gt;Location: 98798 - 99118" locus_tag="FEE96_RS04205" class="clusterblast-orf" id="dummy-3_h3_2_3"  />
</g>
<g id="a3_004"  >
<polygon points="94,85 99,80 132,80 132,90 99,90 94,85 " style="fill:#9d15d8; stroke-width:1; stroke:black; " description="&lt;b&gt;FEE96_RS04210&lt;/b&gt;&lt;br&gt;NADH-quinone oxidoreductase subunit NuoF&lt;br&gt;Location: 99172 - 100470&lt;br&gt;&lt;br&gt;&lt;b&gt;BlastP hit with DFGDCJBF_00890&lt;/b&gt;&lt;br&gt;Percentage identity: 87&lt;br&gt;Percentage coverage: 100&lt;br&gt;BLAST bit score: 801&lt;br&gt;E-value: 1.2e-293" locus_tag="FEE96_RS04210" class="clusterblast-orf" id="dummy-3_h3_2_4"  />
</g>
<g id="a3_005"  >
<polygon points="132,85 137,80 139,80 139,90 137,90 132,85 " style="fill:#d84815; stroke-width:1; stroke:black; " description="&lt;b&gt;FEE96_RS04215&lt;/b&gt;&lt;br&gt;DUF5337 domain-containing protein&lt;br&gt;Location: 100477 - 100704&lt;br&gt;&lt;br&gt;&lt;b&gt;BlastP hit with DFGDCJBF_00891&lt;/b&gt;&lt;br&gt;Percentage identity: 52&lt;br&gt;Percentage coverage: 85&lt;br&gt;BLAST bit score: 62&lt;br&gt;E-value: 1.12e-12" locus_tag="FEE96_RS04215" class="clusterblast-orf" id="dummy-3_h3_2_5"  />
</g>
<g id="a3_006"  >
<polygon points="140,85 145,80 174,80 174,90 145,90 140,85 " style="fill:#37d815; stroke-width:1; stroke:black; " description="&lt;b&gt;FEE96_RS04220&lt;/b&gt;&lt;br&gt;NADH-quinone oxidoreductase subunit E&lt;br&gt;Location: 100750 - 101919&lt;br&gt;&lt;br&gt;&lt;b&gt;BlastP hit with DFGDCJBF_00892&lt;/b&gt;&lt;br&gt;Percentage identity: 60&lt;br&gt;Percentage coverage: 104&lt;br&gt;BLAST bit score: 455&lt;br&gt;E-value: 1.28e-158" locus_tag="FEE96_RS04220" class="clusterblast-orf" id="dummy-3_h3_2_6"  />
</g>
<g id="a3_007"  >
<polygon points="176,85 181,80 212,80 212,90 181,90 176,85 " style="fill:#158cd8; stroke-width:1; stroke:black; " description="&lt;b&gt;FEE96_RS04225&lt;/b&gt;&lt;br&gt;NADH-quinone oxidoreductase subunit D&lt;br&gt;Location: 102008 - 103222&lt;br&gt;&lt;br&gt;&lt;b&gt;BlastP hit with DFGDCJBF_00893&lt;/b&gt;&lt;br&gt;Percentage identity: 87&lt;br&gt;Percentage coverage: 100&lt;br&gt;BLAST bit score: 739&lt;br&gt;E-value: 5.6e-270" locus_tag="FEE96_RS04225" class="clusterblast-orf" id="dummy-3_h3_2_7"  />
</g>
<g id="a3_008"  >
<polygon points="212,85 217,80 229,80 229,90 217,90 212,85 " style="fill:#d015d8; stroke-width:1; stroke:black; " description="&lt;b&gt;FEE96_RS04230&lt;/b&gt;&lt;br&gt;NADH-quinone oxidoreductase subunit C&lt;br&gt;Location: 103222 - 103830&lt;br&gt;&lt;br&gt;&lt;b&gt;BlastP hit with DFGDCJBF_00894&lt;/b&gt;&lt;br&gt;Percentage identity: 72&lt;br&gt;Percentage coverage: 95&lt;br&gt;BLAST bit score: 311&lt;br&gt;E-value: 2.12e-107" locus_tag="FEE96_RS04230" class="clusterblast-orf" id="dummy-3_h3_2_8"  />
</g>
<g id="a3_009"  >
<polygon points="230,85 235,80 245,80 245,90 235,90 230,85 " style="fill:#d87b15; stroke-width:1; stroke:black; " description="&lt;b&gt;FEE96_RS04235&lt;/b&gt;&lt;br&gt;NADH-quinone oxidoreductase subunit B&lt;br&gt;Location: 103856 - 104389&lt;br&gt;&lt;br&gt;&lt;b&gt;BlastP hit with DFGDCJBF_00895&lt;/b&gt;&lt;br&gt;Percentage identity: 92&lt;br&gt;Percentage coverage: 100&lt;br&gt;BLAST bit score: 344&lt;br&gt;E-value: 3.44e-121" locus_tag="FEE96_RS04235" class="clusterblast-orf" id="dummy-3_h3_2_9"  />
</g>
<g id="a3_0010"  >
<polygon points="245,85 250,80 256,80 256,90 250,90 245,85 " style="fill:#15d826; stroke-width:1; stroke:black; " description="&lt;b&gt;FEE96_RS04240&lt;/b&gt;&lt;br&gt;NADH-quinone oxidoreductase subunit A&lt;br&gt;Location: 104380 - 104745&lt;br&gt;&lt;br&gt;&lt;b&gt;BlastP hit with DFGDCJBF_00896&lt;/b&gt;&lt;br&gt;Percentage identity: 84&lt;br&gt;Percentage coverage: 100&lt;br&gt;BLAST bit score: 207&lt;br&gt;E-value: 4.99e-69" locus_tag="FEE96_RS04240" class="clusterblast-orf" id="dummy-3_h3_2_10"  />
</g>
<g id="a3_0011"  >
<polygon points="262,85 267,80 285,80 285,90 267,90 262,85 " style="fill:#1559d8; stroke-width:1; stroke:black; " description="&lt;b&gt;FEE96_RS04245&lt;/b&gt;&lt;br&gt;crotonase/enoyl-CoA hydratase family protein&lt;br&gt;Location: 104976 - 105755&lt;br&gt;&lt;br&gt;&lt;b&gt;BlastP hit with DFGDCJBF_00897&lt;/b&gt;&lt;br&gt;Percentage identity: 67&lt;br&gt;Percentage coverage: 98&lt;br&gt;BLAST bit score: 324&lt;br&gt;E-value: 1.43e-110" locus_tag="FEE96_RS04245" class="clusterblast-orf" id="dummy-3_h3_2_11"  />
</g>
<g id="a3_0012"  >
<polygon points="286,85 291,80 311,80 311,90 291,90 286,85 " style="fill:#d815ae; stroke-width:1; stroke:black; " description="&lt;b&gt;FEE96_RS04250&lt;/b&gt;&lt;br&gt;hydroxymethylglutaryl-CoA lyase&lt;br&gt;Location: 105796 - 106650&lt;br&gt;&lt;br&gt;&lt;b&gt;BlastP hit with DFGDCJBF_00898&lt;/b&gt;&lt;br&gt;Percentage identity: 66&lt;br&gt;Percentage coverage: 95&lt;br&gt;BLAST bit score: 359&lt;br&gt;E-value: 1.11e-123" locus_tag="FEE96_RS04250" class="clusterblast-orf" id="dummy-3_h3_2_12"  />
</g>
<g id="a3_0013"  >
<polygon points="313,85 318,80 369,80 369,90 318,90 313,85 " style="fill:#15d859; stroke-width:1; stroke:black; " description="&lt;b&gt;FEE96_RS04255&lt;/b&gt;&lt;br&gt;biotin/lipoyl-binding protein&lt;br&gt;Location: 106731 - 108671&lt;br&gt;&lt;br&gt;&lt;b&gt;BlastP hit with DFGDCJBF_00900&lt;/b&gt;&lt;br&gt;Percentage identity: 69&lt;br&gt;Percentage coverage: 92&lt;br&gt;BLAST bit score: 761&lt;br&gt;E-value: 4.83e-270" locus_tag="FEE96_RS04255" class="clusterblast-orf" id="dummy-3_h3_2_13"  />
</g>
<g id="a3_0014"  >
<polygon points="384,85 389,80 430,80 430,90 389,90 384,85 " style="fill:#1526d8; stroke-width:1; stroke:black; " description="&lt;b&gt;FEE96_RS04260&lt;/b&gt;&lt;br&gt;methylcrotonoyl-CoA carboxylase&lt;br&gt;Location: 109172 - 110776&lt;br&gt;&lt;br&gt;&lt;b&gt;BlastP hit with DFGDCJBF_00901&lt;/b&gt;&lt;br&gt;Percentage identity: 87&lt;br&gt;Percentage coverage: 100&lt;br&gt;BLAST bit score: 925&lt;br&gt;E-value: 0.0" locus_tag="FEE96_RS04260" class="clusterblast-orf" id="dummy-3_h3_2_14"  />
</g>
<g id="a3_0015"  >
<polygon points="446,85 451,80 491,80 491,90 451,90 446,85 " style="fill:#d8157b; stroke-width:1; stroke:black; " description="&lt;b&gt;FEE96_RS04265&lt;/b&gt;&lt;br&gt;AMP-binding protein&lt;br&gt;Location: 111345 - 112874&lt;br&gt;&lt;br&gt;&lt;b&gt;BlastP hit with DFGDCJBF_00902&lt;/b&gt;&lt;br&gt;Percentage identity: 63&lt;br&gt;Percentage coverage: 94&lt;br&gt;BLAST bit score: 601&lt;br&gt;E-value: 1.01e-211" locus_tag="FEE96_RS04265" class="clusterblast-orf" id="dummy-3_h3_2_15"  />
</g>
<g id="a3_0016"  >
<polygon points="495,90 507,90 512,85 507,80 495,80 495,90 " style="fill:white; stroke-width:1; stroke:black; " description="&lt;b&gt;FEE96_RS04270&lt;/b&gt;&lt;br&gt;OmpW family protein&lt;br&gt;Location: 113024 - 113626" locus_tag="FEE96_RS04270" class="clusterblast-orf" id="dummy-3_h3_2_16"  />
</g>
<g id="a3_0017"  >
<polygon points="516,85 521,80 530,80 530,90 521,90 516,85 " style="fill:#d0d815; stroke-width:1; stroke:black; " description="&lt;b&gt;FEE96_RS04275&lt;/b&gt;&lt;br&gt;DUF1311 domain-containing protein&lt;br&gt;Location: 113736 - 114239&lt;br&gt;&lt;br&gt;&lt;b&gt;BlastP hit with DFGDCJBF_00904&lt;/b&gt;&lt;br&gt;Percentage identity: 42&lt;br&gt;Percentage coverage: 95&lt;br&gt;BLAST bit score: 117&lt;br&gt;E-value: 4.14e-32" locus_tag="FEE96_RS04275" class="clusterblast-orf" id="dummy-3_h3_2_17"  />
</g>
<g id="a3_0018"  >
<polygon points="530,85 535,80 564,80 564,90 535,90 530,85 " style="fill:#15d88c; stroke-width:1; stroke:black; " description="&lt;b&gt;FEE96_RS04280&lt;/b&gt;&lt;br&gt;isovaleryl-CoA dehydrogenase&lt;br&gt;Location: 114236 - 115399&lt;br&gt;&lt;br&gt;&lt;b&gt;BlastP hit with DFGDCJBF_00905&lt;/b&gt;&lt;br&gt;Percentage identity: 83&lt;br&gt;Percentage coverage: 100&lt;br&gt;BLAST bit score: 642&lt;br&gt;E-value: 2.6e-232" locus_tag="FEE96_RS04280" class="clusterblast-orf" id="dummy-3_h3_2_18"  />
</g>
<g id="a3_0019"  >
<polygon points="568,90 581,90 586,85 581,80 568,80 568,90 " style="fill:white; stroke-width:1; stroke:black; " description="&lt;b&gt;FEE96_RS04285&lt;/b&gt;&lt;br&gt;TetR/AcrR family transcriptional regulator&lt;br&gt;Location: 115563 - 116159" locus_tag="FEE96_RS04285" class="clusterblast-orf" id="dummy-3_h3_2_19"  />
</g>
<g id="a3_0020"  >
<polygon points="586,90 602,90 607,85 602,80 586,80 586,90 " style="fill:white; stroke-width:1; stroke:black; " description="&lt;b&gt;FEE96_RS04290&lt;/b&gt;&lt;br&gt;HD domain-containing protein&lt;br&gt;Location: 116156 - 116911" locus_tag="FEE96_RS04290" class="clusterblast-orf" id="dummy-3_h3_2_20"  />
</g>
<g id="a3_0021"  >
<polygon points="608,85 613,80 643,80 643,90 613,90 608,85 " style="fill:white; stroke-width:1; stroke:black; " description="&lt;b&gt;FEE96_RS04295&lt;/b&gt;&lt;br&gt;DegT/DnrJ/EryC1/StrS family aminotransferase&lt;br&gt;Location: 116936 - 118144" locus_tag="FEE96_RS04295" class="clusterblast-orf" id="dummy-3_h3_2_21"  />
</g>
<g id="a3_0022"  >
<polygon points="645,85 650,80 664,80 664,90 650,90 645,85 " style="fill:white; stroke-width:1; stroke:black; " description="&lt;b&gt;FEE96_RS04300&lt;/b&gt;&lt;br&gt;HAD-IA family hydrolase&lt;br&gt;Location: 118222 - 118884" locus_tag="FEE96_RS04300" class="clusterblast-orf" id="dummy-3_h3_2_22"  />
</g>
<g id="a3_0023"  >
<polygon points="668,90 702,90 707,85 702,80 668,80 668,90 " style="fill:white; stroke-width:1; stroke:black; " description="&lt;b&gt;FEE96_RS04305&lt;/b&gt;&lt;br&gt;bifunctional UDP-N-acetylglucosamine diphosphorylase/glucosamine-1-phosphate N-acetyltransferase GlmU&lt;br&gt;Location: 119015 - 120370" locus_tag="FEE96_RS04305" class="clusterblast-orf" id="dummy-3_h3_2_23"  />
</g>
<g id="a3_0024"  >
<polygon points="707,90 755,90 760,85 755,80 707,80 707,90 " style="fill:white; stroke-width:1; stroke:black; " description="&lt;b&gt;FEE96_RS04310&lt;/b&gt;&lt;br&gt;glutamine--fructose-6-phosphate transaminase (isomerizing)&lt;br&gt;Location: 120370 - 122178" locus_tag="FEE96_RS04310" class="clusterblast-orf" id="dummy-3_h3_2_24"  />
</g>
<g id="a3_0025"  >
<polygon points="760,90 775,90 780,85 775,80 760,80 760,90 " style="fill:white; stroke-width:1; stroke:black; " description="&lt;b&gt;FEE96_RS04315&lt;/b&gt;&lt;br&gt;DNA alkylation repair protein&lt;br&gt;Location: 122184 - 122861" locus_tag="FEE96_RS04315" class="clusterblast-orf" id="dummy-3_h3_2_25"  />
</g>
</svg>
