<svg xmlns="http://www.w3.org/2000/svg" xmlns:xlink="http://www.w3.org/1999/xlink" version="1.1" x="0" y="0" height="230" width="800" viewBox="0 0 800 230" preserveAspectRatio="none"  >
<g label="Query sequence" class="clusterblast-cluster"  >
<text x="5" y="20" class="clusterblast-acc"  >
Query sequence</text>
<line x1="10" y1="35" x2="778.0" y2="35" style="stroke-width:1; stroke:grey; "  />
<polygon points="0,35 5,30 62,30 62,40 5,40 0,35 " style="fill:#d81515; stroke-width:1; stroke:black; " description="&lt;b&gt;DFGDCJBF_01297&lt;/b&gt;&lt;br&gt;hypothetical protein&lt;br&gt;Location: 1347034 - 1347808" locus_tag="DFGDCJBF_01297" class="clusterblast-orf" id="dummy-5_q0_0_all"  />
<polygon points="88,40 137,40 142,35 137,30 88,30 88,40 " style="fill:white; stroke-width:1; stroke:black; " description="&lt;b&gt;DFGDCJBF_01298&lt;/b&gt;&lt;br&gt;hypothetical protein&lt;br&gt;Location: 1348140 - 1348818" locus_tag="DFGDCJBF_01298" class="clusterblast-orf" id="dummy-5_q1_0_all"  />
<polygon points="135,35 140,30 167,30 167,40 140,40 135,35 " style="fill:#15d815; stroke-width:1; stroke:black; " description="&lt;b&gt;DFGDCJBF_01299&lt;/b&gt;&lt;br&gt;IS3 family transposase ISPye6&lt;br&gt;Location: 1348735 - 1349131" locus_tag="DFGDCJBF_01299" class="clusterblast-orf" id="dummy-5_q2_0_all"  />
<polygon points="202,35 207,30 225,30 225,40 207,40 202,35 " style="fill:#15d815; stroke-width:1; stroke:black; " description="&lt;b&gt;DFGDCJBF_01300&lt;/b&gt;&lt;br&gt;IS3 family transposase ISPye6&lt;br&gt;Location: 1349582 - 1349861" locus_tag="DFGDCJBF_01300" class="clusterblast-orf" id="dummy-5_q3_0_all"  />
<polygon points="280,35 285,30 357,30 357,40 285,40 280,35 " style="fill:#1515d8; stroke-width:1; stroke:black; " description="&lt;b&gt;DFGDCJBF_01301&lt;/b&gt;&lt;br&gt;hypothetical protein&lt;br&gt;Location: 1350561 - 1351527" locus_tag="DFGDCJBF_01301" class="clusterblast-orf" id="dummy-5_q4_0_all"  />
<polygon points="371,35 376,30 403,30 403,40 376,40 371,35 " style="fill:#d815d8; stroke-width:1; stroke:black; " description="&lt;b&gt;DFGDCJBF_01302&lt;/b&gt;&lt;br&gt;L-ectoine synthase&lt;br&gt;Location: 1351713 - 1352109" locus_tag="DFGDCJBF_01302" class="clusterblast-orf" id="dummy-5_q5_0_all"  />
<polygon points="433,40 532,40 537,35 532,30 433,30 433,40 " style="fill:#d8d815; stroke-width:1; stroke:black; " description="&lt;b&gt;DFGDCJBF_01303&lt;/b&gt;&lt;br&gt;hypothetical protein&lt;br&gt;Location: 1352491 - 1353799" locus_tag="DFGDCJBF_01303" class="clusterblast-orf" id="dummy-5_q6_0_all"  />
<polygon points="565,35 570,30 667,30 667,40 570,40 565,35 " style="fill:#15d8d8; stroke-width:1; stroke:black; " description="&lt;b&gt;DFGDCJBF_01304&lt;/b&gt;&lt;br&gt;D-aminopeptidase&lt;br&gt;Location: 1354150 - 1355443" locus_tag="DFGDCJBF_01304" class="clusterblast-orf" id="dummy-5_q7_0_all"  />
<polygon points="671,35 676,30 680,30 680,40 676,40 671,35 " style="fill:white; stroke-width:1; stroke:black; " description="&lt;b&gt;DFGDCJBF_01305&lt;/b&gt;&lt;br&gt;hypothetical protein&lt;br&gt;Location: 1355492 - 1355603" locus_tag="DFGDCJBF_01305" class="clusterblast-orf" id="dummy-5_q8_0_all"  />
<polygon points="686,35 691,30 780,30 780,40 691,40 686,35 " style="fill:#15d8d8; stroke-width:1; stroke:black; " description="&lt;b&gt;DFGDCJBF_01306&lt;/b&gt;&lt;br&gt;hypothetical protein&lt;br&gt;Location: 1355675 - 1356866" locus_tag="DFGDCJBF_01306" class="clusterblast-orf" id="dummy-5_q9_0_all"  />
</g>
<g label="NZ_LKAI01000001" description="NZ_LKAI01000001 (2337170-2347563): Epibacterium mobile strain 45A6 scaffold1.... (22% of genes show similarity), ectoine" class="clusterblast-cluster"  >
<text x="5" y="70" class="clusterblast-acc"  >
<a xlink:href="https://antismash-db.secondarymetabolites.org/area.html?record=NZ_LKAI01000001&amp;start=2337170&amp;end=2347563" target="_blank">NZ_LKAI01000001 (2337170-2347563)</a>: Epibacterium mobile strain 45A6 scaffold1.... (22% of genes show similarity), ectoine</text>
<line x1="10" y1="85" x2="778.0" y2="85" style="stroke-width:1; stroke:grey; "  />
</g>
<g id="a5_000"  >
<polygon points="75,90 134,90 139,85 134,80 75,80 75,90 " style="fill:#d81515; stroke-width:1; stroke:black; " description="&lt;b&gt;AOQ74_RS11075&lt;/b&gt;&lt;br&gt;DUF4394 domain-containing protein&lt;br&gt;Location: 2346430 - 2345630&lt;br&gt;&lt;br&gt;&lt;b&gt;BlastP hit with DFGDCJBF_01297&lt;/b&gt;&lt;br&gt;Percentage identity: 54&lt;br&gt;Percentage coverage: 93&lt;br&gt;BLAST bit score: 238&lt;br&gt;E-value: 1.02e-76" locus_tag="AOQ74_RS11075" class="clusterblast-orf" id="dummy-5_h5_6_0"  />
</g>
<g id="a5_001"  >
<polygon points="160,90 198,90 203,85 198,80 160,80 160,90 " style="fill:white; stroke-width:1; stroke:black; " description="&lt;b&gt;AOQ74_RS11070&lt;/b&gt;&lt;br&gt;sigma-70 family RNA polymerase sigma factor&lt;br&gt;Location: 2345354 - 2344824" locus_tag="AOQ74_RS11070" class="clusterblast-orf" id="dummy-5_h5_6_1"  />
</g>
<g id="a5_002"  >
<polygon points="202,90 256,90 261,85 256,80 202,80 202,90 " style="fill:white; stroke-width:1; stroke:black; " description="&lt;b&gt;AOQ74_RS11065&lt;/b&gt;&lt;br&gt;hypothetical protein&lt;br&gt;Location: 2344827 - 2344090" locus_tag="AOQ74_RS11065" class="clusterblast-orf" id="dummy-5_h5_6_2"  />
</g>
<g id="a5_003"  >
<polygon points="267,85 272,80 381,80 381,90 272,90 267,85 " style="fill:white; stroke-width:1; stroke:black; " description="&lt;b&gt;AOQ74_RS11060&lt;/b&gt;&lt;br&gt;aspartate kinase&lt;br&gt;Location: 2344014 - 2342578" locus_tag="AOQ74_RS11060" class="clusterblast-orf" id="dummy-5_h5_6_3"  />
</g>
<g id="a5_004"  >
<polygon points="382,85 387,80 413,80 413,90 387,90 382,85 " style="fill:#d815d8; stroke-width:1; stroke:black; " description="&lt;b&gt;AOQ74_RS11055&lt;/b&gt;&lt;br&gt;ectoine synthase&lt;br&gt;Location: 2342563 - 2342171&lt;br&gt;&lt;br&gt;&lt;b&gt;BlastP hit with DFGDCJBF_01302&lt;/b&gt;&lt;br&gt;Percentage identity: 58&lt;br&gt;Percentage coverage: 88&lt;br&gt;BLAST bit score: 145&lt;br&gt;E-value: 3.29e-44" locus_tag="AOQ74_RS11055" class="clusterblast-orf" id="dummy-5_h5_6_4"  />
</g>
<g id="a5_005"  >
<polygon points="415,85 420,80 517,80 517,90 420,90 415,85 " style="fill:white; stroke-width:1; stroke:black; " description="&lt;b&gt;AOQ74_RS11050&lt;/b&gt;&lt;br&gt;diaminobutyrate--2-oxoglutarate transaminase&lt;br&gt;Location: 2342146 - 2340860" locus_tag="AOQ74_RS11050" class="clusterblast-orf" id="dummy-5_h5_6_5"  />
</g>
<g id="a5_006"  >
<polygon points="521,85 526,80 565,80 565,90 526,90 521,85 " style="fill:white; stroke-width:1; stroke:black; " description="&lt;b&gt;AOQ74_RS11045&lt;/b&gt;&lt;br&gt;diaminobutyrate acetyltransferase&lt;br&gt;Location: 2340812 - 2340261" locus_tag="AOQ74_RS11045" class="clusterblast-orf" id="dummy-5_h5_6_6"  />
</g>
<g id="a5_007"  >
<polygon points="583,90 618,90 623,85 618,80 583,80 583,90 " style="fill:white; stroke-width:1; stroke:black; " description="&lt;b&gt;AOQ74_RS11040&lt;/b&gt;&lt;br&gt;MarR family transcriptional regulator&lt;br&gt;Location: 2340033 - 2339530" locus_tag="AOQ74_RS11040" class="clusterblast-orf" id="dummy-5_h5_6_7"  />
</g>
<g id="a5_008"  >
<polygon points="624,85 629,80 704,80 704,90 629,90 624,85 " style="fill:white; stroke-width:1; stroke:black; " description="&lt;b&gt;AOQ74_RS11035&lt;/b&gt;&lt;br&gt;glycosyltransferase family 4 protein&lt;br&gt;Location: 2339514 - 2338505" locus_tag="AOQ74_RS11035" class="clusterblast-orf" id="dummy-5_h5_6_8"  />
</g>
</svg>
