<svg xmlns="http://www.w3.org/2000/svg" xmlns:xlink="http://www.w3.org/1999/xlink" version="1.1" x="0" y="0" height="230" width="800" viewBox="0 0 800 230" preserveAspectRatio="none"  >
<g label="Query sequence" class="clusterblast-cluster"  >
<text x="5" y="20" class="clusterblast-acc"  >
Query sequence</text>
<line x1="10" y1="35" x2="778.0" y2="35" style="stroke-width:1; stroke:grey; "  />
<polygon points="20,35 25,30 33,30 33,40 25,40 20,35 " style="fill:#d81515; stroke-width:1; stroke:black; " description="&lt;b&gt;DFGDCJBF_00887&lt;/b&gt;&lt;br&gt;hypothetical protein&lt;br&gt;Location: 948947 - 949358" locus_tag="DFGDCJBF_00887" class="clusterblast-orf" id="dummy-3_q0_0_all"  />
<polygon points="33,35 38,30 95,30 95,40 38,40 33,35 " style="fill:#6ad815; stroke-width:1; stroke:black; " description="&lt;b&gt;DFGDCJBF_00888&lt;/b&gt;&lt;br&gt;NADH-quinone oxidoreductase chain 3&lt;br&gt;Location: 949365 - 951381" locus_tag="DFGDCJBF_00888" class="clusterblast-orf" id="dummy-3_q1_0_all"  />
<polygon points="95,35 100,30 108,30 108,40 100,40 95,35 " style="fill:#15bfd8; stroke-width:1; stroke:black; " description="&lt;b&gt;DFGDCJBF_00889&lt;/b&gt;&lt;br&gt;hypothetical protein&lt;br&gt;Location: 951384 - 951819" locus_tag="DFGDCJBF_00889" class="clusterblast-orf" id="dummy-3_q2_0_all"  />
<polygon points="108,35 113,30 148,30 148,40 113,40 108,35 " style="fill:#9d15d8; stroke-width:1; stroke:black; " description="&lt;b&gt;DFGDCJBF_00890&lt;/b&gt;&lt;br&gt;NADH-quinone oxidoreductase chain 1&lt;br&gt;Location: 951815 - 953126" locus_tag="DFGDCJBF_00890" class="clusterblast-orf" id="dummy-3_q3_0_all"  />
<polygon points="149,35 154,30 156,30 156,40 154,40 149,35 " style="fill:#d84815; stroke-width:1; stroke:black; " description="&lt;b&gt;DFGDCJBF_00891&lt;/b&gt;&lt;br&gt;hypothetical protein&lt;br&gt;Location: 953135 - 953363" locus_tag="DFGDCJBF_00891" class="clusterblast-orf" id="dummy-3_q4_0_all"  />
<polygon points="156,35 161,30 190,30 190,40 161,40 156,35 " style="fill:#37d815; stroke-width:1; stroke:black; " description="&lt;b&gt;DFGDCJBF_00892&lt;/b&gt;&lt;br&gt;hypothetical protein&lt;br&gt;Location: 953374 - 954490" locus_tag="DFGDCJBF_00892" class="clusterblast-orf" id="dummy-3_q5_0_all"  />
<polygon points="190,35 195,30 227,30 227,40 195,40 190,35 " style="fill:#158cd8; stroke-width:1; stroke:black; " description="&lt;b&gt;DFGDCJBF_00893&lt;/b&gt;&lt;br&gt;NADH-quinone oxidoreductase subunit D&lt;br&gt;Location: 954489 - 955704" locus_tag="DFGDCJBF_00893" class="clusterblast-orf" id="dummy-3_q6_0_all"  />
<polygon points="227,35 232,30 247,30 247,40 232,40 227,35 " style="fill:#d015d8; stroke-width:1; stroke:black; " description="&lt;b&gt;DFGDCJBF_00894&lt;/b&gt;&lt;br&gt;NADH-quinone oxidoreductase chain 5&lt;br&gt;Location: 955703 - 956342" locus_tag="DFGDCJBF_00894" class="clusterblast-orf" id="dummy-3_q7_0_all"  />
<polygon points="247,35 252,30 264,30 264,40 252,40 247,35 " style="fill:#d87b15; stroke-width:1; stroke:black; " description="&lt;b&gt;DFGDCJBF_00895&lt;/b&gt;&lt;br&gt;NADH-quinone oxidoreductase subunit B&lt;br&gt;Location: 956362 - 956896" locus_tag="DFGDCJBF_00895" class="clusterblast-orf" id="dummy-3_q8_0_all"  />
<polygon points="263,35 268,30 275,30 275,40 268,40 263,35 " style="fill:#15d826; stroke-width:1; stroke:black; " description="&lt;b&gt;DFGDCJBF_00896&lt;/b&gt;&lt;br&gt;NAD(P)H-quinone oxidoreductase subunit 3&lt;br&gt;Location: 956886 - 957252" locus_tag="DFGDCJBF_00896" class="clusterblast-orf" id="dummy-3_q9_0_all"  />
<polygon points="285,35 290,30 309,30 309,40 290,40 285,35 " style="fill:#1559d8; stroke-width:1; stroke:black; " description="&lt;b&gt;DFGDCJBF_00897&lt;/b&gt;&lt;br&gt;Short-chain-enoyl-CoA hydratase&lt;br&gt;Location: 957596 - 958385" locus_tag="DFGDCJBF_00897" class="clusterblast-orf" id="dummy-3_q10_0_all"  />
<polygon points="310,35 315,30 337,30 337,40 315,40 310,35 " style="fill:#d815ae; stroke-width:1; stroke:black; " description="&lt;b&gt;DFGDCJBF_00898&lt;/b&gt;&lt;br&gt;3-hydroxy-3-isohexenylglutaryl-CoA/hydroxy- methylglutaryl-CoA lyase&lt;br&gt;Location: 958410 - 959289" locus_tag="DFGDCJBF_00898" class="clusterblast-orf" id="dummy-3_q11_0_all"  />
<polygon points="337,35 342,30 358,30 358,40 342,40 337,35 " style="fill:#d8ae15; stroke-width:1; stroke:black; " description="&lt;b&gt;DFGDCJBF_00899&lt;/b&gt;&lt;br&gt;Disulfide-bond oxidoreductase YfcG&lt;br&gt;Location: 959275 - 959965" locus_tag="DFGDCJBF_00899" class="clusterblast-orf" id="dummy-3_q12_0_all"  />
<polygon points="358,35 363,30 420,30 420,40 363,40 358,35 " style="fill:#15d859; stroke-width:1; stroke:black; " description="&lt;b&gt;DFGDCJBF_00900&lt;/b&gt;&lt;br&gt;Acetyl-/propionyl-coenzyme A carboxylase alpha chain&lt;br&gt;Location: 959961 - 962001" locus_tag="DFGDCJBF_00900" class="clusterblast-orf" id="dummy-3_q13_0_all"  />
<polygon points="424,35 429,30 473,30 473,40 429,40 424,35 " style="fill:#1526d8; stroke-width:1; stroke:black; " description="&lt;b&gt;DFGDCJBF_00901&lt;/b&gt;&lt;br&gt;Methylmalonyl-CoA carboxyltransferase 12S subunit&lt;br&gt;Location: 962130 - 963735" locus_tag="DFGDCJBF_00901" class="clusterblast-orf" id="dummy-3_q14_0_all"  />
<polygon points="473,35 478,30 522,30 522,40 478,40 473,35 " style="fill:#d8157b; stroke-width:1; stroke:black; " description="&lt;b&gt;DFGDCJBF_00902&lt;/b&gt;&lt;br&gt;Acetyl-coenzyme A synthetase&lt;br&gt;Location: 963731 - 965327" locus_tag="DFGDCJBF_00902" class="clusterblast-orf" id="dummy-3_q15_0_all"  />
<polygon points="522,35 526,30 526,40 522,35 " style="fill:white; stroke-width:1; stroke:black; " description="&lt;b&gt;DFGDCJBF_00903&lt;/b&gt;&lt;br&gt;hypothetical protein&lt;br&gt;Location: 965326 - 965455" locus_tag="DFGDCJBF_00903" class="clusterblast-orf" id="dummy-3_q16_0_all"  />
<polygon points="526,35 531,30 541,30 541,40 531,40 526,35 " style="fill:#d0d815; stroke-width:1; stroke:black; " description="&lt;b&gt;DFGDCJBF_00904&lt;/b&gt;&lt;br&gt;hypothetical protein&lt;br&gt;Location: 965454 - 965958" locus_tag="DFGDCJBF_00904" class="clusterblast-orf" id="dummy-3_q17_0_all"  />
<polygon points="541,35 546,30 577,30 577,40 546,40 541,35 " style="fill:#15d88c; stroke-width:1; stroke:black; " description="&lt;b&gt;DFGDCJBF_00905&lt;/b&gt;&lt;br&gt;Acyl-CoA dehydrogenase, short-chain specific&lt;br&gt;Location: 965954 - 967118" locus_tag="DFGDCJBF_00905" class="clusterblast-orf" id="dummy-3_q18_0_all"  />
<polygon points="582,35 587,30 600,30 600,40 587,40 582,35 " style="fill:#3715d8; stroke-width:1; stroke:black; " description="&lt;b&gt;DFGDCJBF_00906&lt;/b&gt;&lt;br&gt;hypothetical protein&lt;br&gt;Location: 967296 - 967890" locus_tag="DFGDCJBF_00906" class="clusterblast-orf" id="dummy-3_q19_0_all"  />
<polygon points="608,35 613,30 651,30 651,40 613,40 608,35 " style="fill:#d81548; stroke-width:1; stroke:black; " description="&lt;b&gt;DFGDCJBF_00907&lt;/b&gt;&lt;br&gt;C4-dicarboxylate TRAP transporter large permease protein DctM&lt;br&gt;Location: 968147 - 969530" locus_tag="DFGDCJBF_00907" class="clusterblast-orf" id="dummy-3_q20_0_all"  />
<polygon points="655,35 660,30 685,30 685,40 660,40 655,35 " style="fill:#9dd815; stroke-width:1; stroke:black; " description="&lt;b&gt;DFGDCJBF_00908&lt;/b&gt;&lt;br&gt;hypothetical protein&lt;br&gt;Location: 969659 - 970658" locus_tag="DFGDCJBF_00908" class="clusterblast-orf" id="dummy-3_q21_0_all"  />
<polygon points="690,35 695,30 721,30 721,40 695,40 690,35 " style="fill:#15d8bf; stroke-width:1; stroke:black; " description="&lt;b&gt;DFGDCJBF_00909&lt;/b&gt;&lt;br&gt;Alpha-keto acid-binding periplasmic protein TakP&lt;br&gt;Location: 970805 - 971834" locus_tag="DFGDCJBF_00909" class="clusterblast-orf" id="dummy-3_q22_0_all"  />
<polygon points="736,35 741,30 759,30 759,40 741,40 736,35 " style="fill:#6a15d8; stroke-width:1; stroke:black; " description="&lt;b&gt;DFGDCJBF_00910&lt;/b&gt;&lt;br&gt;Thiol:disulfide interchange protein DsbD&lt;br&gt;Location: 972325 - 973078" locus_tag="DFGDCJBF_00910" class="clusterblast-orf" id="dummy-3_q23_0_all"  />
</g>
<g label="NZ_CP020694" description="NZ_CP020694 (2257871-2284547): Sulfitobacter sp. D7 chromosome, complete genome (60% of genes show similarity), betalactone" class="clusterblast-cluster"  >
<text x="5" y="70" class="clusterblast-acc"  >
<a xlink:href="https://antismash-db.secondarymetabolites.org/area.html?record=NZ_CP020694&amp;start=2257871&amp;end=2284547" target="_blank">NZ_CP020694 (2257871-2284547)</a>: Sulfitobacter sp. D7 chromosome, complete genome (60% of genes show similarity), betalactone</text>
<line x1="10" y1="85" x2="778.0" y2="85" style="stroke-width:1; stroke:grey; "  />
</g>
<g id="a3_000"  >
<polygon points="0,85 5,80 12,80 12,90 5,90 0,85 " style="fill:#15bfd8; stroke-width:1; stroke:black; " description="&lt;b&gt;B5M07_RS10945&lt;/b&gt;&lt;br&gt;DUF5333 domain-containing protein&lt;br&gt;Location: 2258989 - 2259399&lt;br&gt;&lt;br&gt;&lt;b&gt;BlastP hit with DFGDCJBF_00889&lt;/b&gt;&lt;br&gt;Percentage identity: 48&lt;br&gt;Percentage coverage: 76&lt;br&gt;BLAST bit score: 100&lt;br&gt;E-value: 4.86e-26" locus_tag="B5M07_RS10945" class="clusterblast-orf" id="dummy-3_h3_5_0"  />
</g>
<g id="a3_001"  >
<polygon points="16,85 21,80 26,80 26,90 21,90 16,85 " style="fill:white; stroke-width:1; stroke:black; " description="&lt;b&gt;B5M07_RS10950&lt;/b&gt;&lt;br&gt;hypothetical protein&lt;br&gt;Location: 2259520 - 2259846" locus_tag="B5M07_RS10950" class="clusterblast-orf" id="dummy-3_h3_5_1"  />
</g>
<g id="a3_002"  >
<polygon points="30,85 35,80 70,80 70,90 35,90 30,85 " style="fill:#9d15d8; stroke-width:1; stroke:black; " description="&lt;b&gt;B5M07_RS10955&lt;/b&gt;&lt;br&gt;NADH-quinone oxidoreductase subunit NuoF&lt;br&gt;Location: 2259986 - 2261281&lt;br&gt;&lt;br&gt;&lt;b&gt;BlastP hit with DFGDCJBF_00890&lt;/b&gt;&lt;br&gt;Percentage identity: 88&lt;br&gt;Percentage coverage: 100&lt;br&gt;BLAST bit score: 802&lt;br&gt;E-value: 8.11e-294" locus_tag="B5M07_RS10955" class="clusterblast-orf" id="dummy-3_h3_5_2"  />
</g>
<g id="a3_003"  >
<polygon points="70,85 75,80 77,80 77,90 75,90 70,85 " style="fill:#d84815; stroke-width:1; stroke:black; " description="&lt;b&gt;B5M07_RS10960&lt;/b&gt;&lt;br&gt;DUF5337 domain-containing protein&lt;br&gt;Location: 2261287 - 2261520&lt;br&gt;&lt;br&gt;&lt;b&gt;BlastP hit with DFGDCJBF_00891&lt;/b&gt;&lt;br&gt;Percentage identity: 53&lt;br&gt;Percentage coverage: 79&lt;br&gt;BLAST bit score: 69&lt;br&gt;E-value: 2.16e-15" locus_tag="B5M07_RS10960" class="clusterblast-orf" id="dummy-3_h3_5_3"  />
</g>
<g id="a3_004"  >
<polygon points="78,85 83,80 106,80 106,90 83,90 78,85 " style="fill:#37d815; stroke-width:1; stroke:black; " description="&lt;b&gt;B5M07_RS10965&lt;/b&gt;&lt;br&gt;hypothetical protein&lt;br&gt;Location: 2261538 - 2262482&lt;br&gt;&lt;br&gt;&lt;b&gt;BlastP hit with DFGDCJBF_00892&lt;/b&gt;&lt;br&gt;Percentage identity: 59&lt;br&gt;Percentage coverage: 20&lt;br&gt;BLAST bit score: 97&lt;br&gt;E-value: 1.35e-20" locus_tag="B5M07_RS10965" class="clusterblast-orf" id="dummy-3_h3_5_4"  />
</g>
<g id="a3_005"  >
<polygon points="109,85 114,80 145,80 145,90 114,90 109,85 " style="fill:#37d815; stroke-width:1; stroke:black; " description="&lt;b&gt;B5M07_RS10970&lt;/b&gt;&lt;br&gt;NADH-quinone oxidoreductase subunit E&lt;br&gt;Location: 2262577 - 2263728&lt;br&gt;&lt;br&gt;&lt;b&gt;BlastP hit with DFGDCJBF_00892&lt;/b&gt;&lt;br&gt;Percentage identity: 63&lt;br&gt;Percentage coverage: 103&lt;br&gt;BLAST bit score: 490&lt;br&gt;E-value: 1.54e-172" locus_tag="B5M07_RS10970" class="clusterblast-orf" id="dummy-3_h3_5_5"  />
</g>
<g id="a3_006"  >
<polygon points="147,85 152,80 185,80 185,90 152,90 147,85 " style="fill:#158cd8; stroke-width:1; stroke:black; " description="&lt;b&gt;B5M07_RS10975&lt;/b&gt;&lt;br&gt;NADH-quinone oxidoreductase subunit D&lt;br&gt;Location: 2263808 - 2265052&lt;br&gt;&lt;br&gt;&lt;b&gt;BlastP hit with DFGDCJBF_00893&lt;/b&gt;&lt;br&gt;Percentage identity: 84&lt;br&gt;Percentage coverage: 102&lt;br&gt;BLAST bit score: 715&lt;br&gt;E-value: 3.23e-260" locus_tag="B5M07_RS10975" class="clusterblast-orf" id="dummy-3_h3_5_6"  />
</g>
<g id="a3_007"  >
<polygon points="185,85 190,80 190,80 190,90 190,90 185,85 " style="fill:white; stroke-width:1; stroke:black; " description="&lt;b&gt;B5M07_RS19450&lt;/b&gt;&lt;br&gt;hypothetical protein&lt;br&gt;Location: 2265052 - 2265225" locus_tag="B5M07_RS19450" class="clusterblast-orf" id="dummy-3_h3_5_7"  />
</g>
<g id="a3_008"  >
<polygon points="190,85 195,80 210,80 210,90 195,90 190,85 " style="fill:#d015d8; stroke-width:1; stroke:black; " description="&lt;b&gt;B5M07_RS10980&lt;/b&gt;&lt;br&gt;NADH-quinone oxidoreductase subunit C&lt;br&gt;Location: 2265225 - 2265854&lt;br&gt;&lt;br&gt;&lt;b&gt;BlastP hit with DFGDCJBF_00894&lt;/b&gt;&lt;br&gt;Percentage identity: 74&lt;br&gt;Percentage coverage: 99&lt;br&gt;BLAST bit score: 319&lt;br&gt;E-value: 2.44e-110" locus_tag="B5M07_RS10980" class="clusterblast-orf" id="dummy-3_h3_5_8"  />
</g>
<g id="a3_009"  >
<polygon points="213,85 218,80 230,80 230,90 218,90 213,85 " style="fill:#d87b15; stroke-width:1; stroke:black; " description="&lt;b&gt;B5M07_RS10985&lt;/b&gt;&lt;br&gt;NADH-quinone oxidoreductase subunit B&lt;br&gt;Location: 2265955 - 2266506&lt;br&gt;&lt;br&gt;&lt;b&gt;BlastP hit with DFGDCJBF_00895&lt;/b&gt;&lt;br&gt;Percentage identity: 93&lt;br&gt;Percentage coverage: 97&lt;br&gt;BLAST bit score: 337&lt;br&gt;E-value: 3.35e-118" locus_tag="B5M07_RS10985" class="clusterblast-orf" id="dummy-3_h3_5_9"  />
</g>
<g id="a3_0010"  >
<polygon points="231,85 236,80 242,80 242,90 236,90 231,85 " style="fill:#15d826; stroke-width:1; stroke:black; " description="&lt;b&gt;B5M07_RS10990&lt;/b&gt;&lt;br&gt;NADH-quinone oxidoreductase subunit A&lt;br&gt;Location: 2266560 - 2266925&lt;br&gt;&lt;br&gt;&lt;b&gt;BlastP hit with DFGDCJBF_00896&lt;/b&gt;&lt;br&gt;Percentage identity: 70&lt;br&gt;Percentage coverage: 100&lt;br&gt;BLAST bit score: 172&lt;br&gt;E-value: 7.48e-55" locus_tag="B5M07_RS10990" class="clusterblast-orf" id="dummy-3_h3_5_10"  />
</g>
<g id="a3_0011"  >
<polygon points="247,85 252,80 271,80 271,90 252,90 247,85 " style="fill:#1559d8; stroke-width:1; stroke:black; " description="&lt;b&gt;B5M07_RS10995&lt;/b&gt;&lt;br&gt;crotonase/enoyl-CoA hydratase family protein&lt;br&gt;Location: 2267088 - 2267870&lt;br&gt;&lt;br&gt;&lt;b&gt;BlastP hit with DFGDCJBF_00897&lt;/b&gt;&lt;br&gt;Percentage identity: 70&lt;br&gt;Percentage coverage: 99&lt;br&gt;BLAST bit score: 337&lt;br&gt;E-value: 1.43e-115" locus_tag="B5M07_RS10995" class="clusterblast-orf" id="dummy-3_h3_5_11"  />
</g>
<g id="a3_0012"  >
<polygon points="271,85 276,80 298,80 298,90 276,90 271,85 " style="fill:#d815ae; stroke-width:1; stroke:black; " description="&lt;b&gt;B5M07_RS11000&lt;/b&gt;&lt;br&gt;hydroxymethylglutaryl-CoA lyase&lt;br&gt;Location: 2267872 - 2268726&lt;br&gt;&lt;br&gt;&lt;b&gt;BlastP hit with DFGDCJBF_00898&lt;/b&gt;&lt;br&gt;Percentage identity: 68&lt;br&gt;Percentage coverage: 95&lt;br&gt;BLAST bit score: 371&lt;br&gt;E-value: 3.05e-128" locus_tag="B5M07_RS11000" class="clusterblast-orf" id="dummy-3_h3_5_12"  />
</g>
<g id="a3_0013"  >
<polygon points="299,85 304,80 319,80 319,90 304,90 299,85 " style="fill:#d8ae15; stroke-width:1; stroke:black; " description="&lt;b&gt;B5M07_RS11005&lt;/b&gt;&lt;br&gt;glutathione S-transferase family protein&lt;br&gt;Location: 2268758 - 2269426&lt;br&gt;&lt;br&gt;&lt;b&gt;BlastP hit with DFGDCJBF_00899&lt;/b&gt;&lt;br&gt;Percentage identity: 48&lt;br&gt;Percentage coverage: 96&lt;br&gt;BLAST bit score: 191&lt;br&gt;E-value: 3.78e-59" locus_tag="B5M07_RS11005" class="clusterblast-orf" id="dummy-3_h3_5_13"  />
</g>
<g id="a3_0014"  >
<polygon points="319,85 324,80 378,80 378,90 324,90 319,85 " style="fill:#15d859; stroke-width:1; stroke:black; " description="&lt;b&gt;B5M07_RS11010&lt;/b&gt;&lt;br&gt;acetyl/propionyl/methylcrotonyl-CoA carboxylase subunit alpha&lt;br&gt;Location: 2269423 - 2271363&lt;br&gt;&lt;br&gt;&lt;b&gt;BlastP hit with DFGDCJBF_00900&lt;/b&gt;&lt;br&gt;Percentage identity: 70&lt;br&gt;Percentage coverage: 92&lt;br&gt;BLAST bit score: 777&lt;br&gt;E-value: 1.44e-276" locus_tag="B5M07_RS11010" class="clusterblast-orf" id="dummy-3_h3_5_14"  />
</g>
<g id="a3_0015"  >
<polygon points="381,85 386,80 430,80 430,90 386,90 381,85 " style="fill:#1526d8; stroke-width:1; stroke:black; " description="&lt;b&gt;B5M07_RS11015&lt;/b&gt;&lt;br&gt;methylcrotonoyl-CoA carboxylase&lt;br&gt;Location: 2271444 - 2273048&lt;br&gt;&lt;br&gt;&lt;b&gt;BlastP hit with DFGDCJBF_00901&lt;/b&gt;&lt;br&gt;Percentage identity: 85&lt;br&gt;Percentage coverage: 100&lt;br&gt;BLAST bit score: 912&lt;br&gt;E-value: 0.0" locus_tag="B5M07_RS11015" class="clusterblast-orf" id="dummy-3_h3_5_15"  />
</g>
<g id="a3_0016"  >
<polygon points="430,85 435,80 476,80 476,90 435,90 430,85 " style="fill:#d8157b; stroke-width:1; stroke:black; " description="&lt;b&gt;B5M07_RS11020&lt;/b&gt;&lt;br&gt;AMP-binding protein&lt;br&gt;Location: 2273045 - 2274547&lt;br&gt;&lt;br&gt;&lt;b&gt;BlastP hit with DFGDCJBF_00902&lt;/b&gt;&lt;br&gt;Percentage identity: 66&lt;br&gt;Percentage coverage: 94&lt;br&gt;BLAST bit score: 612&lt;br&gt;E-value: 4.14e-216" locus_tag="B5M07_RS11020" class="clusterblast-orf" id="dummy-3_h3_5_16"  />
</g>
<g id="a3_0017"  >
<polygon points="476,85 481,80 498,80 498,90 481,90 476,85 " style="fill:white; stroke-width:1; stroke:black; " description="&lt;b&gt;B5M07_RS11025&lt;/b&gt;&lt;br&gt;flavodoxin family protein&lt;br&gt;Location: 2274549 - 2275265" locus_tag="B5M07_RS11025" class="clusterblast-orf" id="dummy-3_h3_5_17"  />
</g>
<g id="a3_0018"  >
<polygon points="498,85 503,80 510,80 510,90 503,90 498,85 " style="fill:white; stroke-width:1; stroke:black; " description="&lt;b&gt;B5M07_RS11030&lt;/b&gt;&lt;br&gt;DUF1622 domain-containing protein&lt;br&gt;Location: 2275258 - 2275659" locus_tag="B5M07_RS11030" class="clusterblast-orf" id="dummy-3_h3_5_18"  />
</g>
<g id="a3_0019"  >
<polygon points="511,85 516,80 526,80 526,90 516,90 511,85 " style="fill:#d0d815; stroke-width:1; stroke:black; " description="&lt;b&gt;B5M07_RS11035&lt;/b&gt;&lt;br&gt;DUF1311 domain-containing protein&lt;br&gt;Location: 2275702 - 2276187&lt;br&gt;&lt;br&gt;&lt;b&gt;BlastP hit with DFGDCJBF_00904&lt;/b&gt;&lt;br&gt;Percentage identity: 47&lt;br&gt;Percentage coverage: 95&lt;br&gt;BLAST bit score: 136&lt;br&gt;E-value: 1.97e-39" locus_tag="B5M07_RS11035" class="clusterblast-orf" id="dummy-3_h3_5_19"  />
</g>
<g id="a3_0020"  >
<polygon points="526,85 531,80 562,80 562,90 531,90 526,85 " style="fill:#15d88c; stroke-width:1; stroke:black; " description="&lt;b&gt;B5M07_RS11040&lt;/b&gt;&lt;br&gt;isovaleryl-CoA dehydrogenase&lt;br&gt;Location: 2276187 - 2277347&lt;br&gt;&lt;br&gt;&lt;b&gt;BlastP hit with DFGDCJBF_00905&lt;/b&gt;&lt;br&gt;Percentage identity: 84&lt;br&gt;Percentage coverage: 100&lt;br&gt;BLAST bit score: 649&lt;br&gt;E-value: 9.17e-235" locus_tag="B5M07_RS11040" class="clusterblast-orf" id="dummy-3_h3_5_20"  />
</g>
<g id="a3_0021"  >
<polygon points="566,90 576,90 581,85 576,80 566,80 566,90 " style="fill:white; stroke-width:1; stroke:black; " description="&lt;b&gt;B5M07_RS11045&lt;/b&gt;&lt;br&gt;pyridoxamine 5'-phosphate oxidase family protein&lt;br&gt;Location: 2277492 - 2277968" locus_tag="B5M07_RS11045" class="clusterblast-orf" id="dummy-3_h3_5_21"  />
</g>
<g id="a3_0022"  >
<polygon points="586,85 591,80 607,80 607,90 591,90 586,85 " style="fill:white; stroke-width:1; stroke:black; " description="&lt;b&gt;B5M07_RS11050&lt;/b&gt;&lt;br&gt;HAD-IIIA family hydrolase&lt;br&gt;Location: 2278161 - 2278835" locus_tag="B5M07_RS11050" class="clusterblast-orf" id="dummy-3_h3_5_22"  />
</g>
<g id="a3_0023"  >
<polygon points="611,90 648,90 653,85 648,80 611,80 611,90 " style="fill:white; stroke-width:1; stroke:black; " description="&lt;b&gt;B5M07_RS11055&lt;/b&gt;&lt;br&gt;bifunctional UDP-N-acetylglucosamine diphosphorylase/glucosamine-1-phosphate N-acetyltransferase GlmU&lt;br&gt;Location: 2278974 - 2280326" locus_tag="B5M07_RS11055" class="clusterblast-orf" id="dummy-3_h3_5_23"  />
</g>
<g id="a3_0024"  >
<polygon points="653,90 704,90 709,85 704,80 653,80 653,90 " style="fill:white; stroke-width:1; stroke:black; " description="&lt;b&gt;B5M07_RS11060&lt;/b&gt;&lt;br&gt;glutamine--fructose-6-phosphate transaminase (isomerizing)&lt;br&gt;Location: 2280329 - 2282149" locus_tag="B5M07_RS11060" class="clusterblast-orf" id="dummy-3_h3_5_24"  />
</g>
<g id="a3_0025"  >
<polygon points="708,90 725,90 730,85 725,80 708,80 708,90 " style="fill:white; stroke-width:1; stroke:black; " description="&lt;b&gt;B5M07_RS11065&lt;/b&gt;&lt;br&gt;DNA alkylation repair protein&lt;br&gt;Location: 2282146 - 2282844" locus_tag="B5M07_RS11065" class="clusterblast-orf" id="dummy-3_h3_5_25"  />
</g>
<g id="a3_0026"  >
<polygon points="730,85 735,80 746,80 746,90 735,90 730,85 " style="fill:white; stroke-width:1; stroke:black; " description="&lt;b&gt;B5M07_RS11070&lt;/b&gt;&lt;br&gt;hypothetical protein&lt;br&gt;Location: 2282854 - 2283375" locus_tag="B5M07_RS11070" class="clusterblast-orf" id="dummy-3_h3_5_26"  />
</g>
<g id="a3_0027"  >
<polygon points="749,90 775,90 780,85 775,80 749,80 749,90 " style="fill:white; stroke-width:1; stroke:black; " description="&lt;b&gt;B5M07_RS11075&lt;/b&gt;&lt;br&gt;GTP 3',8-cyclase MoaA&lt;br&gt;Location: 2283461 - 2284468" locus_tag="B5M07_RS11075" class="clusterblast-orf" id="dummy-3_h3_5_27"  />
</g>
</svg>
