<svg xmlns="http://www.w3.org/2000/svg" xmlns:xlink="http://www.w3.org/1999/xlink" version="1.1" x="0" y="0" height="50" width="800" viewBox="0 0 800 50" preserveAspectRatio="none"  >
<g label="Query sequence" class="clusterblast-cluster"  >
<text x="5" y="20" class="clusterblast-acc"  >
Query sequence</text>
<line x1="10" y1="35" x2="778.0" y2="35" style="stroke-width:1; stroke:grey; "  />
<polygon points="0,40 98,40 103,35 98,30 0,30 0,40 " style="fill:white; stroke-width:1; stroke:black; " description="&lt;b&gt;DFGDCJBF_01066&lt;/b&gt;&lt;br&gt;hypothetical protein&lt;br&gt;Location: 1094208 - 1096887" locus_tag="DFGDCJBF_01066" class="clusterblast-orf" id="knownclusterblast-4_q0_0_all"  />
<polygon points="97,35 102,30 124,30 124,40 102,40 97,35 " style="fill:white; stroke-width:1; stroke:black; " description="&lt;b&gt;DFGDCJBF_01067&lt;/b&gt;&lt;br&gt;hypothetical protein&lt;br&gt;Location: 1096736 - 1097414" locus_tag="DFGDCJBF_01067" class="clusterblast-orf" id="knownclusterblast-4_q1_0_all"  />
<polygon points="125,40 156,40 161,35 156,30 125,30 125,40 " style="fill:white; stroke-width:1; stroke:black; " description="&lt;b&gt;DFGDCJBF_01068&lt;/b&gt;&lt;br&gt;hypothetical protein&lt;br&gt;Location: 1097440 - 1098379" locus_tag="DFGDCJBF_01068" class="clusterblast-orf" id="knownclusterblast-4_q2_0_all"  />
<polygon points="178,40 216,40 221,35 216,30 178,30 178,40 " style="fill:white; stroke-width:1; stroke:black; " description="&lt;b&gt;DFGDCJBF_01069&lt;/b&gt;&lt;br&gt;hypothetical protein&lt;br&gt;Location: 1098830 - 1099949" locus_tag="DFGDCJBF_01069" class="clusterblast-orf" id="knownclusterblast-4_q3_0_all"  />
<polygon points="222,40 225,40 230,35 225,30 222,30 222,40 " style="fill:white; stroke-width:1; stroke:black; " description="&lt;b&gt;DFGDCJBF_01070&lt;/b&gt;&lt;br&gt;hypothetical protein&lt;br&gt;Location: 1099957 - 1100164" locus_tag="DFGDCJBF_01070" class="clusterblast-orf" id="knownclusterblast-4_q4_0_all"  />
<polygon points="238,35 243,30 300,30 300,40 243,40 238,35 " style="fill:white; stroke-width:1; stroke:black; " description="&lt;b&gt;DFGDCJBF_01071&lt;/b&gt;&lt;br&gt;Glucose-6-phosphate isomerase&lt;br&gt;Location: 1100383 - 1101985" locus_tag="DFGDCJBF_01071" class="clusterblast-orf" id="knownclusterblast-4_q5_0_all"  />
<polygon points="305,35 310,30 377,30 377,40 310,40 305,35 " style="fill:white; stroke-width:1; stroke:black; " description="&lt;b&gt;DFGDCJBF_01072&lt;/b&gt;&lt;br&gt;ABC transporter ATP-binding protein uup&lt;br&gt;Location: 1102116 - 1103970" locus_tag="DFGDCJBF_01072" class="clusterblast-orf" id="knownclusterblast-4_q6_0_all"  />
<polygon points="380,35 385,30 411,30 411,40 385,40 380,35 " style="fill:white; stroke-width:1; stroke:black; " description="&lt;b&gt;DFGDCJBF_01073&lt;/b&gt;&lt;br&gt;hypothetical protein&lt;br&gt;Location: 1104066 - 1104858" locus_tag="DFGDCJBF_01073" class="clusterblast-orf" id="knownclusterblast-4_q7_0_all"  />
<polygon points="414,40 424,40 429,35 424,30 414,30 414,40 " style="fill:white; stroke-width:1; stroke:black; " description="&lt;b&gt;DFGDCJBF_01074&lt;/b&gt;&lt;br&gt;Peptide methionine sulfoxide reductase MsrB&lt;br&gt;Location: 1104938 - 1105337" locus_tag="DFGDCJBF_01074" class="clusterblast-orf" id="knownclusterblast-4_q8_0_all"  />
<polygon points="438,35 443,30 456,30 456,40 443,40 438,35 " style="fill:white; stroke-width:1; stroke:black; " description="&lt;b&gt;DFGDCJBF_01075&lt;/b&gt;&lt;br&gt;hypothetical protein&lt;br&gt;Location: 1105553 - 1106015" locus_tag="DFGDCJBF_01075" class="clusterblast-orf" id="knownclusterblast-4_q9_0_all"  />
<polygon points="463,40 483,40 488,35 483,30 463,30 463,40 " style="fill:white; stroke-width:1; stroke:black; " description="&lt;b&gt;DFGDCJBF_01076&lt;/b&gt;&lt;br&gt;hypothetical protein&lt;br&gt;Location: 1106216 - 1106852" locus_tag="DFGDCJBF_01076" class="clusterblast-orf" id="knownclusterblast-4_q10_0_all"  />
<polygon points="498,40 501,40 506,35 501,30 498,30 498,40 " style="fill:white; stroke-width:1; stroke:black; " description="&lt;b&gt;DFGDCJBF_01077&lt;/b&gt;&lt;br&gt;hypothetical protein&lt;br&gt;Location: 1107129 - 1107336" locus_tag="DFGDCJBF_01077" class="clusterblast-orf" id="knownclusterblast-4_q11_0_all"  />
<polygon points="508,40 546,40 551,35 546,30 508,30 508,40 " style="fill:white; stroke-width:1; stroke:black; " description="&lt;b&gt;DFGDCJBF_01078&lt;/b&gt;&lt;br&gt;Phosphate acyltransferase&lt;br&gt;Location: 1107369 - 1108488" locus_tag="DFGDCJBF_01078" class="clusterblast-orf" id="knownclusterblast-4_q12_0_all"  />
<polygon points="551,40 584,40 589,35 584,30 551,30 551,40 " style="fill:white; stroke-width:1; stroke:black; " description="&lt;b&gt;DFGDCJBF_01079&lt;/b&gt;&lt;br&gt;3-oxoacyl-[acyl-carrier-protein] synthase 3&lt;br&gt;Location: 1108484 - 1109486" locus_tag="DFGDCJBF_01079" class="clusterblast-orf" id="knownclusterblast-4_q13_0_all"  />
<polygon points="595,40 602,40 607,35 602,30 595,30 595,40 " style="fill:white; stroke-width:1; stroke:black; " description="&lt;b&gt;DFGDCJBF_01080&lt;/b&gt;&lt;br&gt;Integration host factor subunit alpha&lt;br&gt;Location: 1109633 - 1109936" locus_tag="DFGDCJBF_01080" class="clusterblast-orf" id="knownclusterblast-4_q14_0_all"  />
<polygon points="607,40 645,40 650,35 645,30 607,30 607,40 " style="fill:white; stroke-width:1; stroke:black; " description="&lt;b&gt;DFGDCJBF_01081&lt;/b&gt;&lt;br&gt;hypothetical protein&lt;br&gt;Location: 1109939 - 1111046" locus_tag="DFGDCJBF_01081" class="clusterblast-orf" id="knownclusterblast-4_q15_0_all"  />
<polygon points="678,40 715,40 720,35 715,30 678,30 678,40 " style="fill:white; stroke-width:1; stroke:black; " description="&lt;b&gt;DFGDCJBF_01083&lt;/b&gt;&lt;br&gt;dCTP deaminase, dUMP-forming&lt;br&gt;Location: 1111769 - 1112867" locus_tag="DFGDCJBF_01083" class="clusterblast-orf" id="knownclusterblast-4_q16_0_all"  />
<polygon points="729,35 734,30 748,30 748,40 734,40 729,35 " style="fill:white; stroke-width:1; stroke:black; " description="&lt;b&gt;DFGDCJBF_01084&lt;/b&gt;&lt;br&gt;hypothetical protein&lt;br&gt;Location: 1113093 - 1113597" locus_tag="DFGDCJBF_01084" class="clusterblast-orf" id="knownclusterblast-4_q17_0_all"  />
<polygon points="766,40 775,40 780,35 775,30 766,30 766,40 " style="fill:white; stroke-width:1; stroke:black; " description="&lt;b&gt;DFGDCJBF_01085&lt;/b&gt;&lt;br&gt;IS256 family transposase ISPye43&lt;br&gt;Location: 1114070 - 1114421" locus_tag="DFGDCJBF_01085" class="clusterblast-orf" id="knownclusterblast-4_q18_0_all"  />
</g>
</svg>
