<svg xmlns="http://www.w3.org/2000/svg" xmlns:xlink="http://www.w3.org/1999/xlink" version="1.1" x="0" y="0" height="230" width="800" viewBox="0 0 800 230" preserveAspectRatio="none"  >
<g label="Query sequence" class="clusterblast-cluster"  >
<text x="5" y="20" class="clusterblast-acc"  >
Query sequence</text>
<line x1="10" y1="35" x2="778.0" y2="35" style="stroke-width:1; stroke:grey; "  />
<polygon points="0,40 110,40 115,35 110,30 0,30 0,40 " style="fill:white; stroke-width:1; stroke:black; " description="&lt;b&gt;DFGDCJBF_00385&lt;/b&gt;&lt;br&gt;UDP-N-acetylmuramate--L-alanine ligase&lt;br&gt;Location: 414187 - 415606" locus_tag="DFGDCJBF_00385" class="clusterblast-orf" id="dummy-1_q0_0_all"  />
<polygon points="115,40 132,40 137,35 132,30 115,30 115,40 " style="fill:white; stroke-width:1; stroke:black; " description="&lt;b&gt;DFGDCJBF_00386&lt;/b&gt;&lt;br&gt;hypothetical protein&lt;br&gt;Location: 415602 - 415872" locus_tag="DFGDCJBF_00386" class="clusterblast-orf" id="dummy-1_q1_0_all"  />
<polygon points="148,40 166,40 171,35 166,30 148,30 148,40 " style="fill:white; stroke-width:1; stroke:black; " description="&lt;b&gt;DFGDCJBF_00387&lt;/b&gt;&lt;br&gt;hypothetical protein&lt;br&gt;Location: 416008 - 416293" locus_tag="DFGDCJBF_00387" class="clusterblast-orf" id="dummy-1_q2_0_all"  />
<polygon points="200,40 239,40 244,35 239,30 200,30 200,40 " style="fill:#d81515; stroke-width:1; stroke:black; " description="&lt;b&gt;DFGDCJBF_00388&lt;/b&gt;&lt;br&gt;L-2,4-diaminobutyric acid acetyltransferase&lt;br&gt;Location: 416657 - 417197" locus_tag="DFGDCJBF_00388" class="clusterblast-orf" id="dummy-1_q3_0_all"  />
<polygon points="246,40 345,40 350,35 345,30 246,30 246,40 " style="fill:#77d815; stroke-width:1; stroke:black; " description="&lt;b&gt;DFGDCJBF_00389&lt;/b&gt;&lt;br&gt;Diaminobutyrate--2-oxoglutarate transaminase&lt;br&gt;Location: 417223 - 418513" locus_tag="DFGDCJBF_00389" class="clusterblast-orf" id="dummy-1_q4_0_all"  />
<polygon points="351,40 377,40 382,35 377,30 351,30 351,40 " style="fill:#15d8d8; stroke-width:1; stroke:black; " description="&lt;b&gt;DFGDCJBF_00390&lt;/b&gt;&lt;br&gt;L-ectoine synthase&lt;br&gt;Location: 418519 - 418903" locus_tag="DFGDCJBF_00390" class="clusterblast-orf" id="dummy-1_q5_0_all"  />
<polygon points="389,40 500,40 505,35 500,30 389,30 389,40 " style="fill:#7715d8; stroke-width:1; stroke:black; " description="&lt;b&gt;DFGDCJBF_00391&lt;/b&gt;&lt;br&gt;Aspartate kinase Ask Ect&lt;br&gt;Location: 419000 - 420428" locus_tag="DFGDCJBF_00391" class="clusterblast-orf" id="dummy-1_q6_0_all"  />
<polygon points="516,40 602,40 607,35 602,30 516,30 516,40 " style="fill:white; stroke-width:1; stroke:black; " description="&lt;b&gt;DFGDCJBF_00392&lt;/b&gt;&lt;br&gt;Ribosomal RNA large subunit methyltransferase L&lt;br&gt;Location: 420571 - 421696" locus_tag="DFGDCJBF_00392" class="clusterblast-orf" id="dummy-1_q7_0_all"  />
<polygon points="615,40 671,40 676,35 671,30 615,30 615,40 " style="fill:white; stroke-width:1; stroke:black; " description="&lt;b&gt;DFGDCJBF_00393&lt;/b&gt;&lt;br&gt;Imidazole glycerol phosphate synthase subunit HisF&lt;br&gt;Location: 421787 - 422549" locus_tag="DFGDCJBF_00393" class="clusterblast-orf" id="dummy-1_q8_0_all"  />
<polygon points="677,40 698,40 703,35 698,30 677,30 677,40 " style="fill:white; stroke-width:1; stroke:black; " description="&lt;b&gt;DFGDCJBF_00394&lt;/b&gt;&lt;br&gt;Phosphoribosyl-ATP pyrophosphatase&lt;br&gt;Location: 422563 - 422881" locus_tag="DFGDCJBF_00394" class="clusterblast-orf" id="dummy-1_q9_0_all"  />
<polygon points="717,35 722,30 780,30 780,40 722,40 717,35 " style="fill:white; stroke-width:1; stroke:black; " description="&lt;b&gt;DFGDCJBF_00395&lt;/b&gt;&lt;br&gt;Enoyl-[acyl-carrier-protein] reductase [NADH] FabI&lt;br&gt;Location: 423046 - 423835" locus_tag="DFGDCJBF_00395" class="clusterblast-orf" id="dummy-1_q10_0_all"  />
</g>
<g label="BGC0000857" description="BGC0000857_c1: ectoine (80% of genes show similarity), Other" class="clusterblast-cluster"  >
<text x="5" y="70" class="clusterblast-acc"  >
<a xlink:href="https://mibig.secondarymetabolites.org/go/BGC0000857/1" target="_blank">BGC0000857</a>: ectoine                                                                          (80% of genes show similarity), Other</text>
<line x1="10" y1="85" x2="778.0" y2="85" style="stroke-width:1; stroke:grey; "  />
</g>
<g id="a1_000"  >
<polygon points="205,85 210,80 251,80 251,90 210,90 205,85 " style="fill:white; stroke-width:1; stroke:black; " description="&lt;b&gt;ABY40743.1&lt;/b&gt;&lt;br&gt;putative transcriptional regulator&lt;br&gt;Location: 301 - 867" locus_tag="ABY40743.1" class="clusterblast-orf" id="dummy-1_h1_2_0"  />
</g>
<g id="a1_001"  >
<polygon points="272,90 309,90 314,85 309,80 272,80 272,90 " style="fill:#d81515; stroke-width:1; stroke:black; " description="&lt;b&gt;ABY40744.1&lt;/b&gt;&lt;br&gt;L-2,4-diaminobutyric acid acetyltransferase&lt;br&gt;Location: 1136 - 1654&lt;br&gt;&lt;br&gt;&lt;b&gt;BlastP hit with DFGDCJBF_00388&lt;/b&gt;&lt;br&gt;Percentage identity: 46&lt;br&gt;Percentage coverage: 90&lt;br&gt;BLAST bit score: 147&lt;br&gt;E-value: 3.36e-45" locus_tag="ABY40744.1" class="clusterblast-orf" id="dummy-1_h1_2_1"  />
</g>
<g id="a1_002"  >
<polygon points="319,90 421,90 426,85 421,80 319,80 319,90 " style="fill:#77d815; stroke-width:1; stroke:black; " description="&lt;b&gt;ABY40745.1&lt;/b&gt;&lt;br&gt;L-2,4-diaminobutyrate aminotransferase&lt;br&gt;Location: 1709 - 3037&lt;br&gt;&lt;br&gt;&lt;b&gt;BlastP hit with DFGDCJBF_00389&lt;/b&gt;&lt;br&gt;Percentage identity: 56&lt;br&gt;Percentage coverage: 96&lt;br&gt;BLAST bit score: 476&lt;br&gt;E-value: 8.78e-167" locus_tag="ABY40745.1" class="clusterblast-orf" id="dummy-1_h1_2_2"  />
</g>
<g id="a1_003"  >
<polygon points="430,90 457,90 462,85 457,80 430,80 430,90 " style="fill:#15d8d8; stroke-width:1; stroke:black; " description="&lt;b&gt;ABY40746.1&lt;/b&gt;&lt;br&gt;ectoine synthase&lt;br&gt;Location: 3083 - 3487&lt;br&gt;&lt;br&gt;&lt;b&gt;BlastP hit with DFGDCJBF_00390&lt;/b&gt;&lt;br&gt;Percentage identity: 50&lt;br&gt;Percentage coverage: 98&lt;br&gt;BLAST bit score: 144&lt;br&gt;E-value: 3.59e-45" locus_tag="ABY40746.1" class="clusterblast-orf" id="dummy-1_h1_2_3"  />
</g>
<g id="a1_004"  >
<polygon points="468,90 569,90 574,85 569,80 468,80 468,90 " style="fill:#7715d8; stroke-width:1; stroke:black; " description="&lt;b&gt;ABY40747.1&lt;/b&gt;&lt;br&gt;aspartokinase&lt;br&gt;Location: 3558 - 4871&lt;br&gt;&lt;br&gt;&lt;b&gt;BlastP hit with DFGDCJBF_00391&lt;/b&gt;&lt;br&gt;Percentage identity: 50&lt;br&gt;Percentage coverage: 88&lt;br&gt;BLAST bit score: 409&lt;br&gt;E-value: 1.25e-139" locus_tag="ABY40747.1" class="clusterblast-orf" id="dummy-1_h1_2_4"  />
</g>
</svg>
