<svg xmlns="http://www.w3.org/2000/svg" xmlns:xlink="http://www.w3.org/1999/xlink" version="1.1" x="0" y="0" height="230" width="800" viewBox="0 0 800 230" preserveAspectRatio="none"  >
<g label="Query sequence" class="clusterblast-cluster"  >
<text x="5" y="20" class="clusterblast-acc"  >
Query sequence</text>
<line x1="10" y1="35" x2="778.0" y2="35" style="stroke-width:1; stroke:grey; "  />
<polygon points="43,40 78,40 83,35 78,30 43,30 43,40 " style="fill:white; stroke-width:1; stroke:black; " description="&lt;b&gt;COIJCJLD_00788&lt;/b&gt;&lt;br&gt;hypothetical protein&lt;br&gt;Location: 154858 - 155890" locus_tag="COIJCJLD_00788" class="clusterblast-orf" id="dummy-1_q0_0_all"  />
<polygon points="94,40 115,40 120,35 115,30 94,30 94,40 " style="fill:white; stroke-width:1; stroke:black; " description="&lt;b&gt;COIJCJLD_00789&lt;/b&gt;&lt;br&gt;hypothetical protein&lt;br&gt;Location: 156176 - 156851" locus_tag="COIJCJLD_00789" class="clusterblast-orf" id="dummy-1_q1_0_all"  />
<polygon points="180,40 213,40 218,35 213,30 180,30 180,40 " style="fill:white; stroke-width:1; stroke:black; " description="&lt;b&gt;COIJCJLD_00790&lt;/b&gt;&lt;br&gt;hypothetical protein&lt;br&gt;Location: 158429 - 159395" locus_tag="COIJCJLD_00790" class="clusterblast-orf" id="dummy-1_q2_0_all"  />
<polygon points="239,35 244,30 332,30 332,40 244,40 239,35 " style="fill:white; stroke-width:1; stroke:black; " description="&lt;b&gt;COIJCJLD_00792&lt;/b&gt;&lt;br&gt;Lon protease&lt;br&gt;Location: 159959 - 162368" locus_tag="COIJCJLD_00792" class="clusterblast-orf" id="dummy-1_q3_0_all"  />
<polygon points="339,35 344,30 365,30 365,40 344,40 339,35 " style="fill:#d81515; stroke-width:1; stroke:black; " description="&lt;b&gt;COIJCJLD_00793&lt;/b&gt;&lt;br&gt;hypothetical protein&lt;br&gt;Location: 162548 - 163226" locus_tag="COIJCJLD_00793" class="clusterblast-orf" id="dummy-1_q4_0_all"  />
<polygon points="370,35 375,30 395,30 395,40 375,40 370,35 " style="fill:#15d8d8; stroke-width:1; stroke:black; " description="&lt;b&gt;COIJCJLD_00794&lt;/b&gt;&lt;br&gt;hypothetical protein&lt;br&gt;Location: 163357 - 164008" locus_tag="COIJCJLD_00794" class="clusterblast-orf" id="dummy-1_q5_0_all"  />
<polygon points="398,40 412,40 417,35 412,30 398,30 398,40 " style="fill:#15d8d8; stroke-width:1; stroke:black; " description="&lt;b&gt;COIJCJLD_00795&lt;/b&gt;&lt;br&gt;hypothetical protein&lt;br&gt;Location: 164079 - 164577" locus_tag="COIJCJLD_00795" class="clusterblast-orf" id="dummy-1_q6_0_all"  />
<polygon points="419,35 424,30 462,30 462,40 424,40 419,35 " style="fill:white; stroke-width:1; stroke:black; " description="&lt;b&gt;COIJCJLD_00796&lt;/b&gt;&lt;br&gt;Queuine tRNA-ribosyltransferase&lt;br&gt;Location: 164619 - 165750" locus_tag="COIJCJLD_00796" class="clusterblast-orf" id="dummy-1_q7_0_all"  />
<polygon points="470,40 479,40 484,35 479,30 470,30 470,40 " style="fill:white; stroke-width:1; stroke:black; " description="&lt;b&gt;COIJCJLD_00797&lt;/b&gt;&lt;br&gt;hypothetical protein&lt;br&gt;Location: 165958 - 166324" locus_tag="COIJCJLD_00797" class="clusterblast-orf" id="dummy-1_q8_0_all"  />
<polygon points="498,40 507,40 512,35 507,30 498,30 498,40 " style="fill:white; stroke-width:1; stroke:black; " description="&lt;b&gt;COIJCJLD_00798&lt;/b&gt;&lt;br&gt;Iron-binding protein IscA&lt;br&gt;Location: 166686 - 167037" locus_tag="COIJCJLD_00798" class="clusterblast-orf" id="dummy-1_q9_0_all"  />
<polygon points="512,40 521,40 526,35 521,30 512,30 512,40 " style="fill:white; stroke-width:1; stroke:black; " description="&lt;b&gt;COIJCJLD_00799&lt;/b&gt;&lt;br&gt;hypothetical protein&lt;br&gt;Location: 167036 - 167417" locus_tag="COIJCJLD_00799" class="clusterblast-orf" id="dummy-1_q10_0_all"  />
<polygon points="529,40 553,40 558,35 553,30 529,30 529,40 " style="fill:white; stroke-width:1; stroke:black; " description="&lt;b&gt;COIJCJLD_00800&lt;/b&gt;&lt;br&gt;Triosephosphate isomerase&lt;br&gt;Location: 167490 - 168243" locus_tag="COIJCJLD_00800" class="clusterblast-orf" id="dummy-1_q11_0_all"  />
<polygon points="563,40 577,40 582,35 577,30 563,30 563,40 " style="fill:white; stroke-width:1; stroke:black; " description="&lt;b&gt;COIJCJLD_00801&lt;/b&gt;&lt;br&gt;hypothetical protein&lt;br&gt;Location: 168368 - 168878" locus_tag="COIJCJLD_00801" class="clusterblast-orf" id="dummy-1_q12_0_all"  />
<polygon points="588,35 593,30 605,30 605,40 593,40 588,35 " style="fill:white; stroke-width:1; stroke:black; " description="&lt;b&gt;COIJCJLD_00802&lt;/b&gt;&lt;br&gt;Lactoylglutathione lyase&lt;br&gt;Location: 169023 - 169452" locus_tag="COIJCJLD_00802" class="clusterblast-orf" id="dummy-1_q13_0_all"  />
<polygon points="607,35 612,30 659,30 659,40 612,40 607,35 " style="fill:white; stroke-width:1; stroke:black; " description="&lt;b&gt;COIJCJLD_00803&lt;/b&gt;&lt;br&gt;hypothetical protein&lt;br&gt;Location: 169514 - 170876" locus_tag="COIJCJLD_00803" class="clusterblast-orf" id="dummy-1_q14_0_all"  />
<polygon points="660,35 665,30 694,30 694,40 665,40 660,35 " style="fill:white; stroke-width:1; stroke:black; " description="&lt;b&gt;COIJCJLD_00804&lt;/b&gt;&lt;br&gt;hypothetical protein&lt;br&gt;Location: 170881 - 171784" locus_tag="COIJCJLD_00804" class="clusterblast-orf" id="dummy-1_q15_0_all"  />
<polygon points="702,40 732,40 737,35 732,30 702,30 702,40 " style="fill:white; stroke-width:1; stroke:black; " description="&lt;b&gt;COIJCJLD_00805&lt;/b&gt;&lt;br&gt;Flavin-dependent thymidylate synthase&lt;br&gt;Location: 171982 - 172888" locus_tag="COIJCJLD_00805" class="clusterblast-orf" id="dummy-1_q16_0_all"  />
</g>
<g label="NZ_CP042819" description="NZ_CP042819 (1915269-1935540): Octadecabacter sp. SW4 (15% of genes show similarity), hserlactone" class="clusterblast-cluster"  >
<text x="5" y="70" class="clusterblast-acc"  >
<a xlink:href="https://antismash-db.secondarymetabolites.org/area.html?record=NZ_CP042819&amp;start=1915269&amp;end=1935540" target="_blank">NZ_CP042819 (1915269-1935540)</a>: Octadecabacter sp. SW4 (15% of genes show similarity), hserlactone</text>
<line x1="10" y1="85" x2="778.0" y2="85" style="stroke-width:1; stroke:grey; "  />
</g>
<g id="a1_000"  >
<polygon points="0,90 49,90 54,85 49,80 0,80 0,90 " style="fill:white; stroke-width:1; stroke:black; " description="&lt;b&gt;FTO60_RS09465&lt;/b&gt;&lt;br&gt;type I glutamate--ammonia ligase&lt;br&gt;Location: 1915270 - 1916676" locus_tag="FTO60_RS09465" class="clusterblast-orf" id="dummy-1_h1_10_0"  />
</g>
<g id="a1_001"  >
<polygon points="62,90 99,90 104,85 99,80 62,80 62,90 " style="fill:white; stroke-width:1; stroke:black; " description="&lt;b&gt;FTO60_RS09470&lt;/b&gt;&lt;br&gt;hypothetical protein&lt;br&gt;Location: 1916905 - 1917975" locus_tag="FTO60_RS09470" class="clusterblast-orf" id="dummy-1_h1_10_1"  />
</g>
<g id="a1_002"  >
<polygon points="108,85 113,80 135,80 135,90 113,90 108,85 " style="fill:white; stroke-width:1; stroke:black; " description="&lt;b&gt;FTO60_RS09475&lt;/b&gt;&lt;br&gt;DUF3445 domain-containing protein&lt;br&gt;Location: 1918102 - 1918803" locus_tag="FTO60_RS09475" class="clusterblast-orf" id="dummy-1_h1_10_2"  />
</g>
<g id="a1_003"  >
<polygon points="140,90 187,90 192,85 187,80 140,80 140,90 " style="fill:white; stroke-width:1; stroke:black; " description="&lt;b&gt;FTO60_RS09480&lt;/b&gt;&lt;br&gt;M24 family metallopeptidase&lt;br&gt;Location: 1918927 - 1920267" locus_tag="FTO60_RS09480" class="clusterblast-orf" id="dummy-1_h1_10_3"  />
</g>
<g id="a1_004"  >
<polygon points="192,85 197,80 225,80 225,90 197,90 192,85 " style="fill:white; stroke-width:1; stroke:black; " description="&lt;b&gt;FTO60_RS09485&lt;/b&gt;&lt;br&gt;endonuclease/exonuclease/phosphatase family protein&lt;br&gt;Location: 1920264 - 1921133" locus_tag="FTO60_RS09485" class="clusterblast-orf" id="dummy-1_h1_10_4"  />
</g>
<g id="a1_005"  >
<polygon points="229,90 270,90 275,85 270,80 229,80 229,90 " style="fill:white; stroke-width:1; stroke:black; " description="&lt;b&gt;FTO60_RS09490&lt;/b&gt;&lt;br&gt;alpha/beta fold hydrolase&lt;br&gt;Location: 1921223 - 1922437" locus_tag="FTO60_RS09490" class="clusterblast-orf" id="dummy-1_h1_10_5"  />
</g>
<g id="a1_006"  >
<polygon points="280,85 285,80 303,80 303,90 285,90 280,85 " style="fill:white; stroke-width:1; stroke:black; " description="&lt;b&gt;FTO60_RS09495&lt;/b&gt;&lt;br&gt;biotin transporter BioY&lt;br&gt;Location: 1922557 - 1923156" locus_tag="FTO60_RS09495" class="clusterblast-orf" id="dummy-1_h1_10_6"  />
</g>
<g id="a1_007"  >
<polygon points="306,85 311,80 321,80 321,90 311,90 306,85 " style="fill:white; stroke-width:1; stroke:black; " description="&lt;b&gt;FTO60_RS09500&lt;/b&gt;&lt;br&gt;trigger factor&lt;br&gt;Location: 1923224 - 1923622" locus_tag="FTO60_RS09500" class="clusterblast-orf" id="dummy-1_h1_10_7"  />
</g>
<g id="a1_008"  >
<polygon points="325,90 370,90 375,85 370,80 325,80 325,90 " style="fill:white; stroke-width:1; stroke:black; " description="&lt;b&gt;FTO60_RS09505&lt;/b&gt;&lt;br&gt;adenylosuccinate lyase&lt;br&gt;Location: 1923728 - 1925032" locus_tag="FTO60_RS09505" class="clusterblast-orf" id="dummy-1_h1_10_8"  />
</g>
<g id="a1_009"  >
<polygon points="377,85 382,80 402,80 402,90 382,90 377,85 " style="fill:#d81515; stroke-width:1; stroke:black; " description="&lt;b&gt;FTO60_RS09510&lt;/b&gt;&lt;br&gt;autoinducer synthase&lt;br&gt;Location: 1925090 - 1925737&lt;br&gt;&lt;br&gt;&lt;b&gt;BlastP hit with COIJCJLD_00793&lt;/b&gt;&lt;br&gt;Percentage identity: 56&lt;br&gt;Percentage coverage: 84&lt;br&gt;BLAST bit score: 223&lt;br&gt;E-value: 5e-72" locus_tag="FTO60_RS09510" class="clusterblast-orf" id="dummy-1_h1_10_9"  />
</g>
<g id="a1_0010"  >
<polygon points="407,85 412,80 430,80 430,90 412,90 407,85 " style="fill:#15d8d8; stroke-width:1; stroke:black; " description="&lt;b&gt;FTO60_RS09515&lt;/b&gt;&lt;br&gt;autoinducer binding domain-containing protein&lt;br&gt;Location: 1925851 - 1926459&lt;br&gt;&lt;br&gt;&lt;b&gt;BlastP hit with COIJCJLD_00794&lt;/b&gt;&lt;br&gt;Percentage identity: 57&lt;br&gt;Percentage coverage: 92&lt;br&gt;BLAST bit score: 226&lt;br&gt;E-value: 1.43e-73&lt;br&gt;&lt;br&gt;&lt;b&gt;BlastP hit with COIJCJLD_00795&lt;/b&gt;&lt;br&gt;Percentage identity: 40&lt;br&gt;Percentage coverage: 76&lt;br&gt;BLAST bit score: 85&lt;br&gt;E-value: 4.58e-19" locus_tag="FTO60_RS09515" class="clusterblast-orf" id="dummy-1_h1_10_10"  />
</g>
<g id="a1_0011"  >
<polygon points="436,90 450,90 455,85 450,80 436,80 436,90 " style="fill:#15d8d8; stroke-width:1; stroke:black; " description="&lt;b&gt;FTO60_RS09520&lt;/b&gt;&lt;br&gt;autoinducer binding domain-containing protein&lt;br&gt;Location: 1926606 - 1927097&lt;br&gt;&lt;br&gt;&lt;b&gt;BlastP hit with COIJCJLD_00794&lt;/b&gt;&lt;br&gt;Percentage identity: 34&lt;br&gt;Percentage coverage: 66&lt;br&gt;BLAST bit score: 103&lt;br&gt;E-value: 8.4e-26&lt;br&gt;&lt;br&gt;&lt;b&gt;BlastP hit with COIJCJLD_00795&lt;/b&gt;&lt;br&gt;Percentage identity: 45&lt;br&gt;Percentage coverage: 99&lt;br&gt;BLAST bit score: 140&lt;br&gt;E-value: 2.98e-41" locus_tag="FTO60_RS09520" class="clusterblast-orf" id="dummy-1_h1_10_11"  />
</g>
<g id="a1_0012"  >
<polygon points="457,90 492,90 497,85 492,80 457,80 457,90 " style="fill:white; stroke-width:1; stroke:black; " description="&lt;b&gt;FTO60_RS09525&lt;/b&gt;&lt;br&gt;flagellar motor switch protein FliG&lt;br&gt;Location: 1927169 - 1928194" locus_tag="FTO60_RS09525" class="clusterblast-orf" id="dummy-1_h1_10_12"  />
</g>
<g id="a1_0013"  >
<polygon points="497,85 502,80 523,80 523,90 502,90 497,85 " style="fill:white; stroke-width:1; stroke:black; " description="&lt;b&gt;FTO60_RS09530&lt;/b&gt;&lt;br&gt;DUF1223 domain-containing protein&lt;br&gt;Location: 1928191 - 1928886" locus_tag="FTO60_RS09530" class="clusterblast-orf" id="dummy-1_h1_10_13"  />
</g>
<g id="a1_0014"  >
<polygon points="533,90 631,90 636,85 631,80 533,80 533,90 " style="fill:white; stroke-width:1; stroke:black; " description="&lt;b&gt;FTO60_RS09535&lt;/b&gt;&lt;br&gt;aconitate hydratase AcnA&lt;br&gt;Location: 1929135 - 1931822" locus_tag="FTO60_RS09535" class="clusterblast-orf" id="dummy-1_h1_10_14"  />
</g>
<g id="a1_0015"  >
<polygon points="641,85 646,80 693,80 693,90 646,90 641,85 " style="fill:white; stroke-width:1; stroke:black; " description="&lt;b&gt;FTO60_RS09540&lt;/b&gt;&lt;br&gt;phosphomannomutase&lt;br&gt;Location: 1931943 - 1933301" locus_tag="FTO60_RS09540" class="clusterblast-orf" id="dummy-1_h1_10_15"  />
</g>
<g id="a1_0016"  >
<polygon points="693,85 698,80 714,80 714,90 698,90 693,85 " style="fill:white; stroke-width:1; stroke:black; " description="&lt;b&gt;FTO60_RS09545&lt;/b&gt;&lt;br&gt;DsbE family thiol:disulfide interchange protein&lt;br&gt;Location: 1933298 - 1933834" locus_tag="FTO60_RS09545" class="clusterblast-orf" id="dummy-1_h1_10_16"  />
</g>
<g id="a1_0017"  >
<polygon points="714,85 719,80 721,80 721,90 719,90 714,85 " style="fill:white; stroke-width:1; stroke:black; " description="&lt;b&gt;FTO60_RS09550&lt;/b&gt;&lt;br&gt;heme exporter protein CcmD&lt;br&gt;Location: 1933827 - 1934027" locus_tag="FTO60_RS09550" class="clusterblast-orf" id="dummy-1_h1_10_17"  />
</g>
<g id="a1_0018"  >
<polygon points="721,85 726,80 753,80 753,90 726,90 721,85 " style="fill:white; stroke-width:1; stroke:black; " description="&lt;b&gt;FTO60_RS09555&lt;/b&gt;&lt;br&gt;cytochrome c biogenesis protein CcsA&lt;br&gt;Location: 1934027 - 1934842" locus_tag="FTO60_RS09555" class="clusterblast-orf" id="dummy-1_h1_10_18"  />
</g>
<g id="a1_0019"  >
<polygon points="754,85 759,80 780,80 780,90 759,90 754,85 " style="fill:white; stroke-width:1; stroke:black; " description="&lt;b&gt;FTO60_RS09560&lt;/b&gt;&lt;br&gt;heme exporter protein CcmB&lt;br&gt;Location: 1934884 - 1935540" locus_tag="FTO60_RS09560" class="clusterblast-orf" id="dummy-1_h1_10_19"  />
</g>
</svg>
