<svg xmlns="http://www.w3.org/2000/svg" xmlns:xlink="http://www.w3.org/1999/xlink" version="1.1" x="0" y="0" height="230" width="800" viewBox="0 0 800 230" preserveAspectRatio="none"  >
<g label="Query sequence" class="clusterblast-cluster"  >
<text x="5" y="20" class="clusterblast-acc"  >
Query sequence</text>
<line x1="10" y1="35" x2="778.0" y2="35" style="stroke-width:1; stroke:grey; "  />
<polygon points="0,40 22,40 27,35 22,30 0,30 0,40 " style="fill:white; stroke-width:1; stroke:black; " description="&lt;b&gt;COIJCJLD_02326&lt;/b&gt;&lt;br&gt;Uronate isomerase&lt;br&gt;Location: 22374 - 23778" locus_tag="COIJCJLD_02326" class="clusterblast-orf" id="dummy-1_q0_0_all"  />
<polygon points="28,40 51,40 56,35 51,30 28,30 28,40 " style="fill:white; stroke-width:1; stroke:black; " description="&lt;b&gt;COIJCJLD_02327&lt;/b&gt;&lt;br&gt;Mannitol 2-dehydrogenase&lt;br&gt;Location: 23801 - 25265" locus_tag="COIJCJLD_02327" class="clusterblast-orf" id="dummy-1_q1_0_all"  />
<polygon points="59,35 64,30 87,30 87,40 64,40 59,35 " style="fill:white; stroke-width:1; stroke:black; " description="&lt;b&gt;COIJCJLD_02328&lt;/b&gt;&lt;br&gt;Vanillate/3-O-methylgallate O-demethylase&lt;br&gt;Location: 25419 - 26829" locus_tag="COIJCJLD_02328" class="clusterblast-orf" id="dummy-1_q2_0_all"  />
<polygon points="93,35 98,30 108,30 108,40 98,40 93,35 " style="fill:#d81515; stroke-width:1; stroke:black; " description="&lt;b&gt;COIJCJLD_02329&lt;/b&gt;&lt;br&gt;HTH-type transcriptional repressor GlaR&lt;br&gt;Location: 27158 - 27893" locus_tag="COIJCJLD_02329" class="clusterblast-orf" id="dummy-1_q3_0_all"  />
<polygon points="114,40 125,40 130,35 125,30 114,30 114,40 " style="fill:white; stroke-width:1; stroke:black; " description="&lt;b&gt;COIJCJLD_02330&lt;/b&gt;&lt;br&gt;Arylamine N-acetyltransferase&lt;br&gt;Location: 28244 - 29039" locus_tag="COIJCJLD_02330" class="clusterblast-orf" id="dummy-1_q4_0_all"  />
<polygon points="133,40 149,40 154,35 149,30 133,30 133,40 " style="fill:white; stroke-width:1; stroke:black; " description="&lt;b&gt;COIJCJLD_02331&lt;/b&gt;&lt;br&gt;Multidrug resistance protein MdtA&lt;br&gt;Location: 29181 - 30249" locus_tag="COIJCJLD_02331" class="clusterblast-orf" id="dummy-1_q5_0_all"  />
<polygon points="154,40 169,40 174,35 169,30 154,30 154,40 " style="fill:white; stroke-width:1; stroke:black; " description="&lt;b&gt;COIJCJLD_02332&lt;/b&gt;&lt;br&gt;Multidrug resistance protein MdtE&lt;br&gt;Location: 30248 - 31307" locus_tag="COIJCJLD_02332" class="clusterblast-orf" id="dummy-1_q6_0_all"  />
<polygon points="174,40 229,40 234,35 229,30 174,30 174,40 " style="fill:#77d815; stroke-width:1; stroke:black; " description="&lt;b&gt;COIJCJLD_02333&lt;/b&gt;&lt;br&gt;Multidrug resistance protein MdtB&lt;br&gt;Location: 31303 - 34351" locus_tag="COIJCJLD_02333" class="clusterblast-orf" id="dummy-1_q7_0_all"  />
<polygon points="237,35 242,30 252,30 252,40 242,40 237,35 " style="fill:white; stroke-width:1; stroke:black; " description="&lt;b&gt;COIJCJLD_02334&lt;/b&gt;&lt;br&gt;hypothetical protein&lt;br&gt;Location: 34494 - 35262" locus_tag="COIJCJLD_02334" class="clusterblast-orf" id="dummy-1_q8_0_all"  />
<polygon points="257,40 265,40 270,35 265,30 257,30 257,40 " style="fill:white; stroke-width:1; stroke:black; " description="&lt;b&gt;COIJCJLD_02335&lt;/b&gt;&lt;br&gt;Tetracycline repressor protein class A from transposon 1721&lt;br&gt;Location: 35542 - 36202" locus_tag="COIJCJLD_02335" class="clusterblast-orf" id="dummy-1_q9_0_all"  />
<polygon points="272,40 288,40 293,35 288,30 272,30 272,40 " style="fill:white; stroke-width:1; stroke:black; " description="&lt;b&gt;COIJCJLD_02336&lt;/b&gt;&lt;br&gt;Methylthioribose-1-phosphate isomerase&lt;br&gt;Location: 36283 - 37408" locus_tag="COIJCJLD_02336" class="clusterblast-orf" id="dummy-1_q10_0_all"  />
<polygon points="294,40 301,40 306,35 301,30 294,30 294,40 " style="fill:white; stroke-width:1; stroke:black; " description="&lt;b&gt;COIJCJLD_02337&lt;/b&gt;&lt;br&gt;5-(methylthio)ribulose-1-phosphate aldolase&lt;br&gt;Location: 37446 - 38064" locus_tag="COIJCJLD_02337" class="clusterblast-orf" id="dummy-1_q11_0_all"  />
<polygon points="307,35 312,30 335,30 335,40 312,40 307,35 " style="fill:#15d8d8; stroke-width:1; stroke:black; " description="&lt;b&gt;COIJCJLD_02338&lt;/b&gt;&lt;br&gt;Sensor histidine kinase RcsC&lt;br&gt;Location: 38083 - 39511" locus_tag="COIJCJLD_02338" class="clusterblast-orf" id="dummy-1_q12_0_all"  />
<polygon points="344,40 351,40 356,35 351,30 344,30 344,40 " style="fill:#7715d8; stroke-width:1; stroke:black; " description="&lt;b&gt;COIJCJLD_02339&lt;/b&gt;&lt;br&gt;hypothetical protein&lt;br&gt;Location: 39977 - 40601" locus_tag="COIJCJLD_02339" class="clusterblast-orf" id="dummy-1_q13_0_all"  />
<polygon points="377,40 412,40 417,35 412,30 377,30 377,40 " style="fill:white; stroke-width:1; stroke:black; " description="&lt;b&gt;COIJCJLD_02340&lt;/b&gt;&lt;br&gt;2-succinylbenzoate--CoA ligase&lt;br&gt;Location: 41670 - 43743" locus_tag="COIJCJLD_02340" class="clusterblast-orf" id="dummy-1_q14_0_all"  />
<polygon points="422,40 440,40 445,35 440,30 422,30 422,40 " style="fill:white; stroke-width:1; stroke:black; " description="&lt;b&gt;COIJCJLD_02341&lt;/b&gt;&lt;br&gt;hypothetical protein&lt;br&gt;Location: 43999 - 45139" locus_tag="COIJCJLD_02341" class="clusterblast-orf" id="dummy-1_q15_0_all"  />
<polygon points="459,35 461,30 461,40 459,35 " style="fill:white; stroke-width:1; stroke:black; " description="&lt;b&gt;COIJCJLD_02342&lt;/b&gt;&lt;br&gt;hypothetical protein&lt;br&gt;Location: 45857 - 45986" locus_tag="COIJCJLD_02342" class="clusterblast-orf" id="dummy-1_q16_0_all"  />
<polygon points="464,40 469,40 474,35 469,30 464,30 464,40 " style="fill:white; stroke-width:1; stroke:black; " description="&lt;b&gt;COIJCJLD_02343&lt;/b&gt;&lt;br&gt;hypothetical protein&lt;br&gt;Location: 46127 - 46670" locus_tag="COIJCJLD_02343" class="clusterblast-orf" id="dummy-1_q17_0_all"  />
<polygon points="474,40 486,40 491,35 486,30 474,30 474,40 " style="fill:white; stroke-width:1; stroke:black; " description="&lt;b&gt;COIJCJLD_02344&lt;/b&gt;&lt;br&gt;hypothetical protein&lt;br&gt;Location: 46669 - 47527" locus_tag="COIJCJLD_02344" class="clusterblast-orf" id="dummy-1_q18_0_all"  />
<polygon points="491,40 521,40 526,35 521,30 491,30 491,40 " style="fill:white; stroke-width:1; stroke:black; " description="&lt;b&gt;COIJCJLD_02345&lt;/b&gt;&lt;br&gt;2-succinylbenzoate--CoA ligase&lt;br&gt;Location: 47523 - 49293" locus_tag="COIJCJLD_02345" class="clusterblast-orf" id="dummy-1_q19_0_all"  />
<polygon points="536,35 541,30 561,30 561,40 541,40 536,35 " style="fill:white; stroke-width:1; stroke:black; " description="&lt;b&gt;COIJCJLD_02346&lt;/b&gt;&lt;br&gt;hypothetical protein&lt;br&gt;Location: 49799 - 51086" locus_tag="COIJCJLD_02346" class="clusterblast-orf" id="dummy-1_q20_0_all"  />
<polygon points="567,35 569,30 569,40 567,35 " style="fill:white; stroke-width:1; stroke:black; " description="&lt;b&gt;COIJCJLD_02347&lt;/b&gt;&lt;br&gt;hypothetical protein&lt;br&gt;Location: 51387 - 51525" locus_tag="COIJCJLD_02347" class="clusterblast-orf" id="dummy-1_q21_0_all"  />
<polygon points="587,35 592,30 610,30 610,40 592,40 587,35 " style="fill:white; stroke-width:1; stroke:black; " description="&lt;b&gt;COIJCJLD_02348&lt;/b&gt;&lt;br&gt;hypothetical protein&lt;br&gt;Location: 52445 - 53588" locus_tag="COIJCJLD_02348" class="clusterblast-orf" id="dummy-1_q22_0_all"  />
<polygon points="624,40 647,40 652,35 647,30 624,30 624,40 " style="fill:white; stroke-width:1; stroke:black; " description="&lt;b&gt;COIJCJLD_02349&lt;/b&gt;&lt;br&gt;hypothetical protein&lt;br&gt;Location: 54300 - 55749" locus_tag="COIJCJLD_02349" class="clusterblast-orf" id="dummy-1_q23_0_all"  />
<polygon points="653,35 658,30 669,30 669,40 658,40 653,35 " style="fill:white; stroke-width:1; stroke:black; " description="&lt;b&gt;COIJCJLD_02350&lt;/b&gt;&lt;br&gt;hypothetical protein&lt;br&gt;Location: 55812 - 56598" locus_tag="COIJCJLD_02350" class="clusterblast-orf" id="dummy-1_q24_0_all"  />
<polygon points="677,35 682,30 703,30 703,40 682,40 677,35 " style="fill:white; stroke-width:1; stroke:black; " description="&lt;b&gt;COIJCJLD_02351&lt;/b&gt;&lt;br&gt;hypothetical protein&lt;br&gt;Location: 57027 - 58359" locus_tag="COIJCJLD_02351" class="clusterblast-orf" id="dummy-1_q25_0_all"  />
<polygon points="704,35 709,30 727,30 727,40 709,40 704,35 " style="fill:white; stroke-width:1; stroke:black; " description="&lt;b&gt;COIJCJLD_02352&lt;/b&gt;&lt;br&gt;hypothetical protein&lt;br&gt;Location: 58412 - 59573" locus_tag="COIJCJLD_02352" class="clusterblast-orf" id="dummy-1_q26_0_all"  />
<polygon points="751,35 756,30 767,30 767,40 756,40 751,35 " style="fill:white; stroke-width:1; stroke:black; " description="&lt;b&gt;COIJCJLD_02353&lt;/b&gt;&lt;br&gt;hypothetical protein&lt;br&gt;Location: 60831 - 61620" locus_tag="COIJCJLD_02353" class="clusterblast-orf" id="dummy-1_q27_0_all"  />
<polygon points="778,40 780,35 778,30 778,40 " style="fill:white; stroke-width:1; stroke:black; " description="&lt;b&gt;COIJCJLD_02354&lt;/b&gt;&lt;br&gt;hypothetical protein&lt;br&gt;Location: 62189 - 62288" locus_tag="COIJCJLD_02354" class="clusterblast-orf" id="dummy-1_q28_0_all"  />
</g>
<g label="NZ_LXYK01000002" description="NZ_LXYK01000002 (34703-55432): Sulfitobacter pontiacus strain EhN02 A12 Conti... (15% of genes show similarity), hserlactone" class="clusterblast-cluster"  >
<text x="5" y="70" class="clusterblast-acc"  >
<a xlink:href="https://antismash-db.secondarymetabolites.org/area.html?record=NZ_LXYK01000002&amp;start=34703&amp;end=55432" target="_blank">NZ_LXYK01000002 (34703-55432)</a>: Sulfitobacter pontiacus strain EhN02 A12 Conti... (15% of genes show similarity), hserlactone</text>
<line x1="10" y1="85" x2="778.0" y2="85" style="stroke-width:1; stroke:grey; "  />
</g>
<g id="a1_000"  >
<polygon points="188,90 193,90 198,85 193,80 188,80 188,90 " style="fill:white; stroke-width:1; stroke:black; " description="&lt;b&gt;A8B81_RS01290&lt;/b&gt;&lt;br&gt;tripartite tricarboxylate transporter TctB family protein&lt;br&gt;Location: 34797 - 35306" locus_tag="A8B81_RS01290" class="clusterblast-orf" id="dummy-1_h1_5_0"  />
</g>
<g id="a1_001"  >
<polygon points="198,90 223,90 228,85 223,80 198,80 198,90 " style="fill:white; stroke-width:1; stroke:black; " description="&lt;b&gt;A8B81_RS01295&lt;/b&gt;&lt;br&gt;hypothetical protein&lt;br&gt;Location: 35307 - 36824" locus_tag="A8B81_RS01295" class="clusterblast-orf" id="dummy-1_h1_5_1"  />
</g>
<g id="a1_002"  >
<polygon points="228,90 254,90 259,85 254,80 228,80 228,90 " style="fill:white; stroke-width:1; stroke:black; " description="&lt;b&gt;A8B81_RS01300&lt;/b&gt;&lt;br&gt;gamma-glutamyltransferase family protein&lt;br&gt;Location: 36808 - 38397" locus_tag="A8B81_RS01300" class="clusterblast-orf" id="dummy-1_h1_5_2"  />
</g>
<g id="a1_003"  >
<polygon points="261,90 275,90 280,85 275,80 261,80 261,90 " style="fill:white; stroke-width:1; stroke:black; " description="&lt;b&gt;A8B81_RS01305&lt;/b&gt;&lt;br&gt;bile acid:sodium symporter&lt;br&gt;Location: 38496 - 39473" locus_tag="A8B81_RS01305" class="clusterblast-orf" id="dummy-1_h1_5_3"  />
</g>
<g id="a1_004"  >
<polygon points="284,90 304,90 309,85 304,80 284,80 284,90 " style="fill:white; stroke-width:1; stroke:black; " description="&lt;b&gt;A8B81_RS01310&lt;/b&gt;&lt;br&gt;sel1 repeat family protein&lt;br&gt;Location: 39681 - 40949" locus_tag="A8B81_RS01310" class="clusterblast-orf" id="dummy-1_h1_5_4"  />
</g>
<g id="a1_005"  >
<polygon points="310,90 310,90 315,85 310,80 310,80 310,90 " style="fill:white; stroke-width:1; stroke:black; " description="&lt;b&gt;A8B81_RS01315&lt;/b&gt;&lt;br&gt;type II toxin-antitoxin system Phd/YefM family antitoxin&lt;br&gt;Location: 41036 - 41272" locus_tag="A8B81_RS01315" class="clusterblast-orf" id="dummy-1_h1_5_5"  />
</g>
<g id="a1_006"  >
<polygon points="315,90 318,90 323,85 318,80 315,80 315,90 " style="fill:white; stroke-width:1; stroke:black; " description="&lt;b&gt;A8B81_RS01320&lt;/b&gt;&lt;br&gt;type II toxin-antitoxin system death-on-curing family toxin&lt;br&gt;Location: 41269 - 41667" locus_tag="A8B81_RS01320" class="clusterblast-orf" id="dummy-1_h1_5_6"  />
</g>
<g id="a1_007"  >
<polygon points="325,90 347,90 352,85 347,80 325,80 325,90 " style="fill:white; stroke-width:1; stroke:black; " description="&lt;b&gt;A8B81_RS01325&lt;/b&gt;&lt;br&gt;cytochrome P450&lt;br&gt;Location: 41770 - 43155" locus_tag="A8B81_RS01325" class="clusterblast-orf" id="dummy-1_h1_5_7"  />
</g>
<g id="a1_008"  >
<polygon points="351,85 356,80 378,80 378,90 356,90 351,85 " style="fill:#15d8d8; stroke-width:1; stroke:black; " description="&lt;b&gt;A8B81_RS01330&lt;/b&gt;&lt;br&gt;HAMP domain-containing histidine kinase&lt;br&gt;Location: 43137 - 44528&lt;br&gt;&lt;br&gt;&lt;b&gt;BlastP hit with COIJCJLD_02338&lt;/b&gt;&lt;br&gt;Percentage identity: 39&lt;br&gt;Percentage coverage: 96&lt;br&gt;BLAST bit score: 308&lt;br&gt;E-value: 1.89e-98" locus_tag="A8B81_RS01330" class="clusterblast-orf" id="dummy-1_h1_5_8"  />
</g>
<g id="a1_009"  >
<polygon points="382,90 391,90 396,85 391,80 382,80 382,90 " style="fill:#7715d8; stroke-width:1; stroke:black; " description="&lt;b&gt;A8B81_RS01335&lt;/b&gt;&lt;br&gt;N-acyl-L-homoserine lactone synthetase&lt;br&gt;Location: 44704 - 45432&lt;br&gt;&lt;br&gt;&lt;b&gt;BlastP hit with COIJCJLD_02339&lt;/b&gt;&lt;br&gt;Percentage identity: 47&lt;br&gt;Percentage coverage: 95&lt;br&gt;BLAST bit score: 191&lt;br&gt;E-value: 2.25e-59" locus_tag="A8B81_RS01335" class="clusterblast-orf" id="dummy-1_h1_5_9"  />
</g>
<g id="a1_0010"  >
<polygon points="396,85 401,80 408,80 408,90 401,90 396,85 " style="fill:white; stroke-width:1; stroke:black; " description="&lt;b&gt;A8B81_RS01340&lt;/b&gt;&lt;br&gt;TetR/AcrR family transcriptional regulator&lt;br&gt;Location: 45399 - 46016" locus_tag="A8B81_RS01340" class="clusterblast-orf" id="dummy-1_h1_5_10"  />
</g>
<g id="a1_0011"  >
<polygon points="410,90 426,90 431,85 426,80 410,80 410,90 " style="fill:white; stroke-width:1; stroke:black; " description="&lt;b&gt;A8B81_RS01345&lt;/b&gt;&lt;br&gt;efflux RND transporter periplasmic adaptor subunit&lt;br&gt;Location: 46131 - 47207" locus_tag="A8B81_RS01345" class="clusterblast-orf" id="dummy-1_h1_5_11"  />
</g>
<g id="a1_0012"  >
<polygon points="431,90 486,90 491,85 486,80 431,80 431,90 " style="fill:#77d815; stroke-width:1; stroke:black; " description="&lt;b&gt;A8B81_RS01350&lt;/b&gt;&lt;br&gt;efflux RND transporter permease subunit&lt;br&gt;Location: 47211 - 50270&lt;br&gt;&lt;br&gt;&lt;b&gt;BlastP hit with COIJCJLD_02333&lt;/b&gt;&lt;br&gt;Percentage identity: 31&lt;br&gt;Percentage coverage: 99&lt;br&gt;BLAST bit score: 468&lt;br&gt;E-value: 1.09e-146" locus_tag="A8B81_RS01350" class="clusterblast-orf" id="dummy-1_h1_5_12"  />
</g>
<g id="a1_0013"  >
<polygon points="491,85 496,80 504,80 504,90 496,90 491,85 " style="fill:white; stroke-width:1; stroke:black; " description="&lt;b&gt;A8B81_RS01355&lt;/b&gt;&lt;br&gt;TetR/AcrR family transcriptional regulator&lt;br&gt;Location: 50280 - 50936" locus_tag="A8B81_RS01355" class="clusterblast-orf" id="dummy-1_h1_5_13"  />
</g>
<g id="a1_0014"  >
<polygon points="510,90 528,90 533,85 528,80 510,80 510,90 " style="fill:white; stroke-width:1; stroke:black; " description="&lt;b&gt;A8B81_RS01360&lt;/b&gt;&lt;br&gt;C4-dicarboxylate ABC transporter substrate-binding protein&lt;br&gt;Location: 51270 - 52421" locus_tag="A8B81_RS01360" class="clusterblast-orf" id="dummy-1_h1_5_14"  />
</g>
<g id="a1_0015"  >
<polygon points="534,90 540,90 545,85 540,80 534,80 534,90 " style="fill:white; stroke-width:1; stroke:black; " description="&lt;b&gt;A8B81_RS01365&lt;/b&gt;&lt;br&gt;TRAP transporter small permease&lt;br&gt;Location: 52504 - 53052" locus_tag="A8B81_RS01365" class="clusterblast-orf" id="dummy-1_h1_5_15"  />
</g>
<g id="a1_0016"  >
<polygon points="545,90 566,90 571,85 566,80 545,80 545,90 " style="fill:white; stroke-width:1; stroke:black; " description="&lt;b&gt;A8B81_RS01370&lt;/b&gt;&lt;br&gt;TRAP transporter large permease&lt;br&gt;Location: 53049 - 54359" locus_tag="A8B81_RS01370" class="clusterblast-orf" id="dummy-1_h1_5_16"  />
</g>
<g id="a1_0017"  >
<polygon points="571,85 576,80 578,80 578,90 576,90 571,85 " style="fill:white; stroke-width:1; stroke:black; " description="&lt;b&gt;A8B81_RS01375&lt;/b&gt;&lt;br&gt;nitrile hydratase accessory protein&lt;br&gt;Location: 54400 - 54726" locus_tag="A8B81_RS01375" class="clusterblast-orf" id="dummy-1_h1_5_17"  />
</g>
<g id="a1_0018"  >
<polygon points="578,85 583,80 591,80 591,90 583,90 578,85 " style="fill:white; stroke-width:1; stroke:black; " description="&lt;b&gt;A8B81_RS01380&lt;/b&gt;&lt;br&gt;nitrile hydratase subunit beta&lt;br&gt;Location: 54723 - 55385" locus_tag="A8B81_RS01380" class="clusterblast-orf" id="dummy-1_h1_5_18"  />
</g>
</svg>
