<svg xmlns="http://www.w3.org/2000/svg" xmlns:xlink="http://www.w3.org/1999/xlink" version="1.1" x="0" y="0" height="230" width="800" viewBox="0 0 800 230" preserveAspectRatio="none"  >
<g label="Query sequence" class="clusterblast-cluster"  >
<text x="5" y="20" class="clusterblast-acc"  >
Query sequence</text>
<line x1="10" y1="35" x2="778.0" y2="35" style="stroke-width:1; stroke:grey; "  />
<polygon points="18,40 22,40 27,35 22,30 18,30 18,40 " style="fill:white; stroke-width:1; stroke:black; " description="&lt;b&gt;COIJCJLD_00155&lt;/b&gt;&lt;br&gt;hypothetical protein&lt;br&gt;Location: 24705 - 25287" locus_tag="COIJCJLD_00155" class="clusterblast-orf" id="dummy-1_q0_0_all"  />
<polygon points="28,40 37,40 42,35 37,30 28,30 28,40 " style="fill:white; stroke-width:1; stroke:black; " description="&lt;b&gt;COIJCJLD_00156&lt;/b&gt;&lt;br&gt;4-hydroxy-3-methylbut-2-enyl diphosphate reductase&lt;br&gt;Location: 25349 - 26300" locus_tag="COIJCJLD_00156" class="clusterblast-orf" id="dummy-1_q1_0_all"  />
<polygon points="42,40 54,40 59,35 54,30 42,30 42,40 " style="fill:white; stroke-width:1; stroke:black; " description="&lt;b&gt;COIJCJLD_00157&lt;/b&gt;&lt;br&gt;hypothetical protein&lt;br&gt;Location: 26296 - 27376" locus_tag="COIJCJLD_00157" class="clusterblast-orf" id="dummy-1_q2_0_all"  />
<polygon points="60,40 62,40 67,35 62,30 60,30 60,40 " style="fill:white; stroke-width:1; stroke:black; " description="&lt;b&gt;COIJCJLD_00158&lt;/b&gt;&lt;br&gt;Ribonuclease HI&lt;br&gt;Location: 27446 - 27923" locus_tag="COIJCJLD_00158" class="clusterblast-orf" id="dummy-1_q3_0_all"  />
<polygon points="68,40 71,40 76,35 71,30 68,30 68,40 " style="fill:white; stroke-width:1; stroke:black; " description="&lt;b&gt;COIJCJLD_00159&lt;/b&gt;&lt;br&gt;hypothetical protein&lt;br&gt;Location: 27972 - 28485" locus_tag="COIJCJLD_00159" class="clusterblast-orf" id="dummy-1_q4_0_all"  />
<polygon points="76,35 81,30 89,30 89,40 81,40 76,35 " style="fill:white; stroke-width:1; stroke:black; " description="&lt;b&gt;COIJCJLD_00160&lt;/b&gt;&lt;br&gt;Methionyl-tRNA formyltransferase&lt;br&gt;Location: 28495 - 29389" locus_tag="COIJCJLD_00160" class="clusterblast-orf" id="dummy-1_q5_0_all"  />
<polygon points="89,35 94,30 97,30 97,40 94,40 89,35 " style="fill:white; stroke-width:1; stroke:black; " description="&lt;b&gt;COIJCJLD_00161&lt;/b&gt;&lt;br&gt;Peptide deformylase 1&lt;br&gt;Location: 29385 - 29886" locus_tag="COIJCJLD_00161" class="clusterblast-orf" id="dummy-1_q6_0_all"  />
<polygon points="97,35 102,30 105,30 105,40 102,40 97,35 " style="fill:white; stroke-width:1; stroke:black; " description="&lt;b&gt;COIJCJLD_00162&lt;/b&gt;&lt;br&gt;Peptide deformylase&lt;br&gt;Location: 29882 - 30398" locus_tag="COIJCJLD_00162" class="clusterblast-orf" id="dummy-1_q7_0_all"  />
<polygon points="104,35 109,30 112,30 112,40 109,40 104,35 " style="fill:white; stroke-width:1; stroke:black; " description="&lt;b&gt;COIJCJLD_00163&lt;/b&gt;&lt;br&gt;Peptide deformylase&lt;br&gt;Location: 30394 - 30916" locus_tag="COIJCJLD_00163" class="clusterblast-orf" id="dummy-1_q8_0_all"  />
<polygon points="114,40 127,40 132,35 127,30 114,30 114,40 " style="fill:white; stroke-width:1; stroke:black; " description="&lt;b&gt;COIJCJLD_00164&lt;/b&gt;&lt;br&gt;Cystathionine beta-lyase PatB&lt;br&gt;Location: 31033 - 32212" locus_tag="COIJCJLD_00164" class="clusterblast-orf" id="dummy-1_q9_0_all"  />
<polygon points="135,35 140,30 140,30 140,40 140,40 135,35 " style="fill:white; stroke-width:1; stroke:black; " description="&lt;b&gt;COIJCJLD_00165&lt;/b&gt;&lt;br&gt;hypothetical protein&lt;br&gt;Location: 32379 - 32748" locus_tag="COIJCJLD_00165" class="clusterblast-orf" id="dummy-1_q10_0_all"  />
<polygon points="143,40 149,40 154,35 149,30 143,30 143,40 " style="fill:white; stroke-width:1; stroke:black; " description="&lt;b&gt;COIJCJLD_00166&lt;/b&gt;&lt;br&gt;hypothetical protein&lt;br&gt;Location: 32963 - 33686" locus_tag="COIJCJLD_00166" class="clusterblast-orf" id="dummy-1_q11_0_all"  />
<polygon points="157,35 162,30 163,30 163,40 162,40 157,35 " style="fill:white; stroke-width:1; stroke:black; " description="&lt;b&gt;COIJCJLD_00167&lt;/b&gt;&lt;br&gt;hypothetical protein&lt;br&gt;Location: 33887 - 34235" locus_tag="COIJCJLD_00167" class="clusterblast-orf" id="dummy-1_q12_0_all"  />
<polygon points="166,35 171,30 180,30 180,40 171,40 166,35 " style="fill:white; stroke-width:1; stroke:black; " description="&lt;b&gt;COIJCJLD_00168&lt;/b&gt;&lt;br&gt;4-hydroxy-tetrahydrodipicolinate synthase&lt;br&gt;Location: 34472 - 35357" locus_tag="COIJCJLD_00168" class="clusterblast-orf" id="dummy-1_q13_0_all"  />
<polygon points="182,40 207,40 212,35 207,30 182,30 182,40 " style="fill:white; stroke-width:1; stroke:black; " description="&lt;b&gt;COIJCJLD_00169&lt;/b&gt;&lt;br&gt;hypothetical protein&lt;br&gt;Location: 35530 - 37483" locus_tag="COIJCJLD_00169" class="clusterblast-orf" id="dummy-1_q14_0_all"  />
<polygon points="211,35 216,30 225,30 225,40 216,40 211,35 " style="fill:white; stroke-width:1; stroke:black; " description="&lt;b&gt;COIJCJLD_00170&lt;/b&gt;&lt;br&gt;Riboflavin transporter&lt;br&gt;Location: 37457 - 38363" locus_tag="COIJCJLD_00170" class="clusterblast-orf" id="dummy-1_q15_0_all"  />
<polygon points="225,35 230,30 235,30 235,40 230,40 225,35 " style="fill:white; stroke-width:1; stroke:black; " description="&lt;b&gt;COIJCJLD_00171&lt;/b&gt;&lt;br&gt;tRNA 5-methylaminomethyl-2-thiouridine biosynthesis bifunctional protein MnmC&lt;br&gt;Location: 38359 - 39043" locus_tag="COIJCJLD_00171" class="clusterblast-orf" id="dummy-1_q16_0_all"  />
<polygon points="236,40 247,40 252,35 247,30 236,30 236,40 " style="fill:white; stroke-width:1; stroke:black; " description="&lt;b&gt;COIJCJLD_00172&lt;/b&gt;&lt;br&gt;tRNA 5-methylaminomethyl-2-thiouridine biosynthesis bifunctional protein MnmC&lt;br&gt;Location: 39087 - 40137" locus_tag="COIJCJLD_00172" class="clusterblast-orf" id="dummy-1_q17_0_all"  />
<polygon points="253,35 258,30 268,30 268,40 258,40 253,35 " style="fill:#d81515; stroke-width:1; stroke:black; " description="&lt;b&gt;COIJCJLD_00173&lt;/b&gt;&lt;br&gt;hypothetical protein&lt;br&gt;Location: 40194 - 41157" locus_tag="COIJCJLD_00173" class="clusterblast-orf" id="dummy-1_q18_0_all"  />
<polygon points="270,35 275,30 281,30 281,40 275,40 270,35 " style="fill:#77d815; stroke-width:1; stroke:black; " description="&lt;b&gt;COIJCJLD_00174&lt;/b&gt;&lt;br&gt;Undecaprenyl phosphate N,N'-diacetylbacillosamine 1-phosphate transferase&lt;br&gt;Location: 41340 - 42072" locus_tag="COIJCJLD_00174" class="clusterblast-orf" id="dummy-1_q19_0_all"  />
<polygon points="286,40 304,40 309,35 304,30 286,30 286,40 " style="fill:#15d8d8; stroke-width:1; stroke:black; " description="&lt;b&gt;COIJCJLD_00175&lt;/b&gt;&lt;br&gt;hypothetical protein&lt;br&gt;Location: 42398 - 43883" locus_tag="COIJCJLD_00175" class="clusterblast-orf" id="dummy-1_q20_0_all"  />
<polygon points="314,40 457,40 462,35 457,30 314,30 314,40 " style="fill:#7715d8; stroke-width:1; stroke:black; " description="&lt;b&gt;COIJCJLD_00176&lt;/b&gt;&lt;br&gt;D-alanine--D-alanyl carrier protein ligase&lt;br&gt;Location: 44199 - 53988" locus_tag="COIJCJLD_00176" class="clusterblast-orf" id="dummy-1_q21_0_all"  />
<polygon points="462,40 499,40 504,35 499,30 462,30 462,40 " style="fill:#d87715; stroke-width:1; stroke:black; " description="&lt;b&gt;COIJCJLD_00177&lt;/b&gt;&lt;br&gt;hypothetical protein&lt;br&gt;Location: 53987 - 56765" locus_tag="COIJCJLD_00177" class="clusterblast-orf" id="dummy-1_q22_0_all"  />
<polygon points="504,35 509,30 514,30 514,40 509,40 504,35 " style="fill:#15d815; stroke-width:1; stroke:black; " description="&lt;b&gt;COIJCJLD_00178&lt;/b&gt;&lt;br&gt;4'-phosphopantetheinyl transferase Sfp&lt;br&gt;Location: 56761 - 57433" locus_tag="COIJCJLD_00178" class="clusterblast-orf" id="dummy-1_q23_0_all"  />
<polygon points="516,35 521,30 535,30 535,40 521,40 516,35 " style="fill:#1577d8; stroke-width:1; stroke:black; " description="&lt;b&gt;COIJCJLD_00179&lt;/b&gt;&lt;br&gt;D-inositol-3-phosphate glycosyltransferase&lt;br&gt;Location: 57537 - 58782" locus_tag="COIJCJLD_00179" class="clusterblast-orf" id="dummy-1_q24_0_all"  />
<polygon points="534,35 539,30 567,30 567,40 539,40 534,35 " style="fill:#d815d8; stroke-width:1; stroke:black; " description="&lt;b&gt;COIJCJLD_00180&lt;/b&gt;&lt;br&gt;hypothetical protein&lt;br&gt;Location: 58747 - 60943" locus_tag="COIJCJLD_00180" class="clusterblast-orf" id="dummy-1_q25_0_all"  />
<polygon points="570,35 575,30 592,30 592,40 575,40 570,35 " style="fill:#d8d815; stroke-width:1; stroke:black; " description="&lt;b&gt;COIJCJLD_00181&lt;/b&gt;&lt;br&gt;hypothetical protein&lt;br&gt;Location: 61114 - 62560" locus_tag="COIJCJLD_00181" class="clusterblast-orf" id="dummy-1_q26_0_all"  />
<polygon points="593,40 614,40 619,35 614,30 593,30 593,40 " style="fill:#15d877; stroke-width:1; stroke:black; " description="&lt;b&gt;COIJCJLD_00182&lt;/b&gt;&lt;br&gt;hypothetical protein&lt;br&gt;Location: 62668 - 64342" locus_tag="COIJCJLD_00182" class="clusterblast-orf" id="dummy-1_q27_0_all"  />
<polygon points="618,35 623,30 636,30 636,40 623,40 618,35 " style="fill:#1515d8; stroke-width:1; stroke:black; " description="&lt;b&gt;COIJCJLD_00183&lt;/b&gt;&lt;br&gt;hypothetical protein&lt;br&gt;Location: 64311 - 65490" locus_tag="COIJCJLD_00183" class="clusterblast-orf" id="dummy-1_q28_0_all"  />
<polygon points="639,40 652,40 657,35 652,30 639,30 639,40 " style="fill:#d81577; stroke-width:1; stroke:black; " description="&lt;b&gt;COIJCJLD_00184&lt;/b&gt;&lt;br&gt;hypothetical protein&lt;br&gt;Location: 65648 - 66887" locus_tag="COIJCJLD_00184" class="clusterblast-orf" id="dummy-1_q29_0_all"  />
<polygon points="657,35 662,30 669,30 669,40 662,40 657,35 " style="fill:white; stroke-width:1; stroke:black; " description="&lt;b&gt;COIJCJLD_00185&lt;/b&gt;&lt;br&gt;Mesaconyl-C(4)-CoA hydratase&lt;br&gt;Location: 66893 - 67679" locus_tag="COIJCJLD_00185" class="clusterblast-orf" id="dummy-1_q30_0_all"  />
<polygon points="670,35 675,30 678,30 678,40 675,40 670,35 " style="fill:white; stroke-width:1; stroke:black; " description="&lt;b&gt;COIJCJLD_00186&lt;/b&gt;&lt;br&gt;NAD(P)H-dependent FMN reductase&lt;br&gt;Location: 67690 - 68245" locus_tag="COIJCJLD_00186" class="clusterblast-orf" id="dummy-1_q31_0_all"  />
<polygon points="680,40 700,40 705,35 700,30 680,30 680,40 " style="fill:white; stroke-width:1; stroke:black; " description="&lt;b&gt;COIJCJLD_00187&lt;/b&gt;&lt;br&gt;Acetolactate synthase isozyme 2 large subunit&lt;br&gt;Location: 68358 - 70023" locus_tag="COIJCJLD_00187" class="clusterblast-orf" id="dummy-1_q32_0_all"  />
<polygon points="706,35 711,30 722,30 722,40 711,40 706,35 " style="fill:white; stroke-width:1; stroke:black; " description="&lt;b&gt;COIJCJLD_00188&lt;/b&gt;&lt;br&gt;Aspartate-semialdehyde dehydrogenase 2&lt;br&gt;Location: 70121 - 71144" locus_tag="COIJCJLD_00188" class="clusterblast-orf" id="dummy-1_q33_0_all"  />
<polygon points="724,35 729,30 734,30 734,40 729,40 724,35 " style="fill:white; stroke-width:1; stroke:black; " description="&lt;b&gt;COIJCJLD_00189&lt;/b&gt;&lt;br&gt;hypothetical protein&lt;br&gt;Location: 71272 - 71917" locus_tag="COIJCJLD_00189" class="clusterblast-orf" id="dummy-1_q34_0_all"  />
<polygon points="734,35 739,30 744,30 744,40 739,40 734,35 " style="fill:white; stroke-width:1; stroke:black; " description="&lt;b&gt;COIJCJLD_00190&lt;/b&gt;&lt;br&gt;hypothetical protein&lt;br&gt;Location: 71913 - 72603" locus_tag="COIJCJLD_00190" class="clusterblast-orf" id="dummy-1_q35_0_all"  />
<polygon points="745,35 750,30 761,30 761,40 750,40 745,35 " style="fill:white; stroke-width:1; stroke:black; " description="&lt;b&gt;COIJCJLD_00191&lt;/b&gt;&lt;br&gt;D-inositol-3-phosphate glycosyltransferase&lt;br&gt;Location: 72689 - 73727" locus_tag="COIJCJLD_00191" class="clusterblast-orf" id="dummy-1_q36_0_all"  />
</g>
<g label="NZ_CP007237" description="NZ_CP007237 (131187-184022): Ensifer adhaerens OV14 chromosome 2 (29% of genes show similarity), NRPS,T1PKS" class="clusterblast-cluster"  >
<text x="5" y="70" class="clusterblast-acc"  >
<a xlink:href="https://antismash-db.secondarymetabolites.org/area.html?record=NZ_CP007237&amp;start=131187&amp;end=184022" target="_blank">NZ_CP007237 (131187-184022)</a>: Ensifer adhaerens OV14 chromosome 2 (29% of genes show similarity), NRPS,T1PKS</text>
<line x1="10" y1="85" x2="778.0" y2="85" style="stroke-width:1; stroke:grey; "  />
</g>
<g id="a1_000"  >
<polygon points="0,85 5,80 27,80 27,90 5,90 0,85 " style="fill:white; stroke-width:1; stroke:black; " description="&lt;b&gt;OV14_RS19760&lt;/b&gt;&lt;br&gt;adenine deaminase&lt;br&gt;Location: 131743 - 133545" locus_tag="OV14_RS19760" class="clusterblast-orf" id="dummy-1_h1_10_0"  />
</g>
<g id="a1_001"  >
<polygon points="28,90 38,90 43,85 38,80 28,80 28,90 " style="fill:white; stroke-width:1; stroke:black; " description="&lt;b&gt;OV14_RS19765&lt;/b&gt;&lt;br&gt;LysR family transcriptional regulator&lt;br&gt;Location: 133654 - 134616" locus_tag="OV14_RS19765" class="clusterblast-orf" id="dummy-1_h1_10_1"  />
</g>
<g id="a1_002"  >
<polygon points="43,85 48,80 49,80 49,90 48,90 43,85 " style="fill:white; stroke-width:1; stroke:black; " description="&lt;b&gt;OV14_RS19770&lt;/b&gt;&lt;br&gt;DUF1801 domain-containing protein&lt;br&gt;Location: 134635 - 134985" locus_tag="OV14_RS19770" class="clusterblast-orf" id="dummy-1_h1_10_2"  />
</g>
<g id="a1_003"  >
<polygon points="50,85 55,80 70,80 70,90 55,90 50,85 " style="fill:white; stroke-width:1; stroke:black; " description="&lt;b&gt;OV14_RS19775&lt;/b&gt;&lt;br&gt;two-component sensor histidine kinase&lt;br&gt;Location: 135055 - 136410" locus_tag="OV14_RS19775" class="clusterblast-orf" id="dummy-1_h1_10_3"  />
</g>
<g id="a1_004"  >
<polygon points="70,85 75,80 80,80 80,90 75,90 70,85 " style="fill:white; stroke-width:1; stroke:black; " description="&lt;b&gt;OV14_RS19780&lt;/b&gt;&lt;br&gt;response regulator transcription factor&lt;br&gt;Location: 136410 - 137072" locus_tag="OV14_RS19780" class="clusterblast-orf" id="dummy-1_h1_10_4"  />
</g>
<g id="a1_005"  >
<polygon points="82,90 88,90 93,85 88,80 82,80 82,90 " style="fill:white; stroke-width:1; stroke:black; " description="&lt;b&gt;OV14_RS19785&lt;/b&gt;&lt;br&gt;L,D-transpeptidase&lt;br&gt;Location: 137181 - 137942" locus_tag="OV14_RS19785" class="clusterblast-orf" id="dummy-1_h1_10_5"  />
</g>
<g id="a1_006"  >
<polygon points="95,85 100,80 110,80 110,90 100,90 95,85 " style="fill:white; stroke-width:1; stroke:black; " description="&lt;b&gt;OV14_RS19790&lt;/b&gt;&lt;br&gt;DUF808 domain-containing protein&lt;br&gt;Location: 138040 - 139008" locus_tag="OV14_RS19790" class="clusterblast-orf" id="dummy-1_h1_10_6"  />
</g>
<g id="a1_007"  >
<polygon points="113,90 117,90 122,85 117,80 113,80 113,90 " style="fill:white; stroke-width:1; stroke:black; " description="&lt;b&gt;OV14_RS19795&lt;/b&gt;&lt;br&gt;TetR/AcrR family transcriptional regulator&lt;br&gt;Location: 139231 - 139839" locus_tag="OV14_RS19795" class="clusterblast-orf" id="dummy-1_h1_10_7"  />
</g>
<g id="a1_008"  >
<polygon points="123,90 136,90 141,85 136,80 123,80 123,90 " style="fill:white; stroke-width:1; stroke:black; " description="&lt;b&gt;OV14_RS19800&lt;/b&gt;&lt;br&gt;efflux RND transporter periplasmic adaptor subunit&lt;br&gt;Location: 139907 - 141058" locus_tag="OV14_RS19800" class="clusterblast-orf" id="dummy-1_h1_10_8"  />
</g>
<g id="a1_009"  >
<polygon points="141,90 184,90 189,85 184,80 141,80 141,90 " style="fill:white; stroke-width:1; stroke:black; " description="&lt;b&gt;OV14_RS19805&lt;/b&gt;&lt;br&gt;efflux RND transporter permease subunit&lt;br&gt;Location: 141085 - 144237" locus_tag="OV14_RS19805" class="clusterblast-orf" id="dummy-1_h1_10_9"  />
</g>
<g id="a1_0010"  >
<polygon points="192,90 196,90 201,85 196,80 192,80 192,90 " style="fill:white; stroke-width:1; stroke:black; " description="&lt;b&gt;OV14_RS19810&lt;/b&gt;&lt;br&gt;DUF922 domain-containing Zn-dependent protease&lt;br&gt;Location: 144433 - 145011" locus_tag="OV14_RS19810" class="clusterblast-orf" id="dummy-1_h1_10_10"  />
</g>
<g id="a1_0011"  >
<polygon points="204,85 209,80 216,80 216,90 209,90 204,85 " style="fill:white; stroke-width:1; stroke:black; " description="&lt;b&gt;OV14_RS19815&lt;/b&gt;&lt;br&gt;response regulator transcription factor&lt;br&gt;Location: 145239 - 146006" locus_tag="OV14_RS19815" class="clusterblast-orf" id="dummy-1_h1_10_11"  />
</g>
<g id="a1_0012"  >
<polygon points="218,85 223,80 229,80 229,90 223,90 218,85 " style="fill:white; stroke-width:1; stroke:black; " description="&lt;b&gt;OV14_RS19820&lt;/b&gt;&lt;br&gt;Crp/Fnr family transcriptional regulator&lt;br&gt;Location: 146175 - 146891" locus_tag="OV14_RS19820" class="clusterblast-orf" id="dummy-1_h1_10_12"  />
</g>
<g id="a1_0013"  >
<polygon points="232,85 237,80 252,80 252,90 237,90 232,85 " style="fill:#1515d8; stroke-width:1; stroke:black; " description="&lt;b&gt;OV14_RS19825&lt;/b&gt;&lt;br&gt;polysaccharide pyruvyl transferase family protein&lt;br&gt;Location: 147114 - 148397&lt;br&gt;&lt;br&gt;&lt;b&gt;BlastP hit with COIJCJLD_00183&lt;/b&gt;&lt;br&gt;Percentage identity: 40&lt;br&gt;Percentage coverage: 101&lt;br&gt;BLAST bit score: 244&lt;br&gt;E-value: 6.25e-75" locus_tag="OV14_RS19825" class="clusterblast-orf" id="dummy-1_h1_10_13"  />
</g>
<g id="a1_0014"  >
<polygon points="252,85 257,80 273,80 273,90 257,90 252,85 " style="fill:#d8d815; stroke-width:1; stroke:black; " description="&lt;b&gt;OV14_RS19830&lt;/b&gt;&lt;br&gt;hypothetical protein&lt;br&gt;Location: 148394 - 149788&lt;br&gt;&lt;br&gt;&lt;b&gt;BlastP hit with COIJCJLD_00181&lt;/b&gt;&lt;br&gt;Percentage identity: 33&lt;br&gt;Percentage coverage: 93&lt;br&gt;BLAST bit score: 186&lt;br&gt;E-value: 2.67e-51" locus_tag="OV14_RS19830" class="clusterblast-orf" id="dummy-1_h1_10_14"  />
</g>
<g id="a1_0015"  >
<polygon points="277,90 284,90 289,85 284,80 277,80 277,90 " style="fill:white; stroke-width:1; stroke:black; " description="&lt;b&gt;OV14_RS19835&lt;/b&gt;&lt;br&gt;glycoside hydrolase family 16 protein&lt;br&gt;Location: 150074 - 150838" locus_tag="OV14_RS19835" class="clusterblast-orf" id="dummy-1_h1_10_15"  />
</g>
<g id="a1_0016"  >
<polygon points="294,90 319,90 324,85 319,80 294,80 294,90 " style="fill:white; stroke-width:1; stroke:black; " description="&lt;b&gt;OV14_RS19840&lt;/b&gt;&lt;br&gt;non-ribosomal peptide synthetase&lt;br&gt;Location: 151188 - 153137" locus_tag="OV14_RS19840" class="clusterblast-orf" id="dummy-1_h1_10_16"  />
</g>
<g id="a1_0017"  >
<polygon points="324,90 441,90 446,85 441,80 324,80 324,90 " style="fill:#7715d8; stroke-width:1; stroke:black; " description="&lt;b&gt;OV14_RS19845&lt;/b&gt;&lt;br&gt;hybrid non-ribosomal peptide synthetase/type I polyketide synthase&lt;br&gt;Location: 153134 - 161221&lt;br&gt;&lt;br&gt;&lt;b&gt;BlastP hit with COIJCJLD_00176&lt;/b&gt;&lt;br&gt;Percentage identity: 49&lt;br&gt;Percentage coverage: 83&lt;br&gt;BLAST bit score: 2294&lt;br&gt;E-value: 0.0" locus_tag="OV14_RS19845" class="clusterblast-orf" id="dummy-1_h1_10_17"  />
</g>
<g id="a1_0018"  >
<polygon points="446,90 484,90 489,85 484,80 446,80 446,90 " style="fill:#d87715; stroke-width:1; stroke:black; " description="&lt;b&gt;OV14_RS19850&lt;/b&gt;&lt;br&gt;condensation protein&lt;br&gt;Location: 161218 - 164022&lt;br&gt;&lt;br&gt;&lt;b&gt;BlastP hit with COIJCJLD_00177&lt;/b&gt;&lt;br&gt;Percentage identity: 35&lt;br&gt;Percentage coverage: 97&lt;br&gt;BLAST bit score: 475&lt;br&gt;E-value: 3.73e-151" locus_tag="OV14_RS19850" class="clusterblast-orf" id="dummy-1_h1_10_18"  />
</g>
<g id="a1_0019"  >
<polygon points="489,90 508,90 513,85 508,80 489,80 489,90 " style="fill:white; stroke-width:1; stroke:black; " description="&lt;b&gt;OV14_RS19855&lt;/b&gt;&lt;br&gt;hypothetical protein&lt;br&gt;Location: 164047 - 165633" locus_tag="OV14_RS19855" class="clusterblast-orf" id="dummy-1_h1_10_19"  />
</g>
<g id="a1_0020"  >
<polygon points="512,85 517,80 524,80 524,90 517,90 512,85 " style="fill:#15d815; stroke-width:1; stroke:black; " description="&lt;b&gt;OV14_RS19860&lt;/b&gt;&lt;br&gt;4'-phosphopantetheinyl transferase superfamily protein&lt;br&gt;Location: 165554 - 166342&lt;br&gt;&lt;br&gt;&lt;b&gt;BlastP hit with COIJCJLD_00178&lt;/b&gt;&lt;br&gt;Percentage identity: 44&lt;br&gt;Percentage coverage: 100&lt;br&gt;BLAST bit score: 155&lt;br&gt;E-value: 9.96e-45" locus_tag="OV14_RS19860" class="clusterblast-orf" id="dummy-1_h1_10_20"  />
</g>
<g id="a1_0021"  >
<polygon points="524,85 529,80 542,80 542,90 529,90 524,85 " style="fill:white; stroke-width:1; stroke:black; " description="&lt;b&gt;OV14_RS19865&lt;/b&gt;&lt;br&gt;aminotransferase class I/II-fold pyridoxal phosphate-dependent enzyme&lt;br&gt;Location: 166344 - 167525" locus_tag="OV14_RS19865" class="clusterblast-orf" id="dummy-1_h1_10_21"  />
</g>
<g id="a1_0022"  >
<polygon points="546,90 567,90 572,85 567,80 546,80 546,90 " style="fill:white; stroke-width:1; stroke:black; " description="&lt;b&gt;OV14_RS19870&lt;/b&gt;&lt;br&gt;GMC family oxidoreductase&lt;br&gt;Location: 167799 - 169523" locus_tag="OV14_RS19870" class="clusterblast-orf" id="dummy-1_h1_10_22"  />
</g>
<g id="a1_0023"  >
<polygon points="572,85 577,80 584,80 584,90 577,90 572,85 " style="fill:white; stroke-width:1; stroke:black; " description="&lt;b&gt;OV14_RS19875&lt;/b&gt;&lt;br&gt;methyltransferase, TIGR04325 family&lt;br&gt;Location: 169556 - 170326" locus_tag="OV14_RS19875" class="clusterblast-orf" id="dummy-1_h1_10_23"  />
</g>
<g id="a1_0024"  >
<polygon points="586,85 591,80 609,80 609,90 591,90 586,85 " style="fill:#15d8d8; stroke-width:1; stroke:black; " description="&lt;b&gt;OV14_RS19880&lt;/b&gt;&lt;br&gt;oligosaccharide flippase family protein&lt;br&gt;Location: 170424 - 171944&lt;br&gt;&lt;br&gt;&lt;b&gt;BlastP hit with COIJCJLD_00175&lt;/b&gt;&lt;br&gt;Percentage identity: 32&lt;br&gt;Percentage coverage: 97&lt;br&gt;BLAST bit score: 219&lt;br&gt;E-value: 3.16e-63" locus_tag="OV14_RS19880" class="clusterblast-orf" id="dummy-1_h1_10_24"  />
</g>
<g id="a1_0025"  >
<polygon points="615,85 620,80 626,80 626,90 620,90 615,85 " style="fill:#77d815; stroke-width:1; stroke:black; " description="&lt;b&gt;OV14_RS19885&lt;/b&gt;&lt;br&gt;sugar transferase&lt;br&gt;Location: 172384 - 173061&lt;br&gt;&lt;br&gt;&lt;b&gt;BlastP hit with COIJCJLD_00174&lt;/b&gt;&lt;br&gt;Percentage identity: 51&lt;br&gt;Percentage coverage: 79&lt;br&gt;BLAST bit score: 194&lt;br&gt;E-value: 4.18e-60" locus_tag="OV14_RS19885" class="clusterblast-orf" id="dummy-1_h1_10_25"  />
</g>
<g id="a1_0026"  >
<polygon points="629,85 634,80 649,80 649,90 634,90 629,85 " style="fill:#d81577; stroke-width:1; stroke:black; " description="&lt;b&gt;OV14_RS19890&lt;/b&gt;&lt;br&gt;glycosyltransferase family 4 protein&lt;br&gt;Location: 173291 - 174598&lt;br&gt;&lt;br&gt;&lt;b&gt;BlastP hit with COIJCJLD_00184&lt;/b&gt;&lt;br&gt;Percentage identity: 40&lt;br&gt;Percentage coverage: 99&lt;br&gt;BLAST bit score: 308&lt;br&gt;E-value: 1.06e-99" locus_tag="OV14_RS19890" class="clusterblast-orf" id="dummy-1_h1_10_26"  />
</g>
<g id="a1_0027"  >
<polygon points="649,85 654,80 663,80 663,90 654,90 649,85 " style="fill:#d81515; stroke-width:1; stroke:black; " description="&lt;b&gt;OV14_RS19895&lt;/b&gt;&lt;br&gt;glycosyltransferase&lt;br&gt;Location: 174603 - 175523&lt;br&gt;&lt;br&gt;&lt;b&gt;BlastP hit with COIJCJLD_00173&lt;/b&gt;&lt;br&gt;Percentage identity: 47&lt;br&gt;Percentage coverage: 90&lt;br&gt;BLAST bit score: 253&lt;br&gt;E-value: 5.96e-81" locus_tag="OV14_RS19895" class="clusterblast-orf" id="dummy-1_h1_10_27"  />
</g>
<g id="a1_0028"  >
<polygon points="663,85 668,80 697,80 697,90 668,90 663,85 " style="fill:white; stroke-width:1; stroke:black; " description="&lt;b&gt;OV14_RS19900&lt;/b&gt;&lt;br&gt;LPS biosynthesis protein&lt;br&gt;Location: 175520 - 177790" locus_tag="OV14_RS19900" class="clusterblast-orf" id="dummy-1_h1_10_28"  />
</g>
<g id="a1_0029"  >
<polygon points="698,85 703,80 718,80 718,90 703,90 698,85 " style="fill:white; stroke-width:1; stroke:black; " description="&lt;b&gt;OV14_RS19905&lt;/b&gt;&lt;br&gt;sugar transporter&lt;br&gt;Location: 177838 - 179163" locus_tag="OV14_RS19905" class="clusterblast-orf" id="dummy-1_h1_10_29"  />
</g>
<g id="a1_0030"  >
<polygon points="723,90 736,90 741,85 736,80 723,80 723,90 " style="fill:#1577d8; stroke-width:1; stroke:black; " description="&lt;b&gt;OV14_RS19910&lt;/b&gt;&lt;br&gt;glycosyltransferase&lt;br&gt;Location: 179494 - 180672&lt;br&gt;&lt;br&gt;&lt;b&gt;BlastP hit with COIJCJLD_00179&lt;/b&gt;&lt;br&gt;Percentage identity: 58&lt;br&gt;Percentage coverage: 86&lt;br&gt;BLAST bit score: 414&lt;br&gt;E-value: 8.39e-142" locus_tag="OV14_RS19910" class="clusterblast-orf" id="dummy-1_h1_10_30"  />
</g>
<g id="a1_0031"  >
<polygon points="743,90 746,85 743,80 743,90 " style="fill:white; stroke-width:1; stroke:black; " description="&lt;b&gt;OV14_RS19915&lt;/b&gt;&lt;br&gt;hypothetical protein&lt;br&gt;Location: 180786 - 180998" locus_tag="OV14_RS19915" class="clusterblast-orf" id="dummy-1_h1_10_31"  />
</g>
<g id="a1_0032"  >
<polygon points="751,90 754,90 759,85 754,80 751,80 751,90 " style="fill:white; stroke-width:1; stroke:black; " description="&lt;b&gt;OV14_RS19920&lt;/b&gt;&lt;br&gt;DUF992 domain-containing protein&lt;br&gt;Location: 181320 - 181847" locus_tag="OV14_RS19920" class="clusterblast-orf" id="dummy-1_h1_10_32"  />
</g>
<g id="a1_0033"  >
<polygon points="764,90 775,90 780,85 775,80 764,80 764,90 " style="fill:white; stroke-width:1; stroke:black; " description="&lt;b&gt;OV14_RS19925&lt;/b&gt;&lt;br&gt;LLM class flavin-dependent oxidoreductase&lt;br&gt;Location: 182225 - 183220" locus_tag="OV14_RS19925" class="clusterblast-orf" id="dummy-1_h1_10_33"  />
</g>
</svg>
