<svg xmlns="http://www.w3.org/2000/svg" xmlns:xlink="http://www.w3.org/1999/xlink" version="1.1" x="0" y="0" height="230" width="800" viewBox="0 0 800 230" preserveAspectRatio="none"  >
<g label="Query sequence" class="clusterblast-cluster"  >
<text x="5" y="20" class="clusterblast-acc"  >
Query sequence</text>
<line x1="10" y1="35" x2="778.0" y2="35" style="stroke-width:1; stroke:grey; "  />
<polygon points="3,40 8,40 13,35 8,30 3,30 3,40 " style="fill:#d81515; stroke-width:1; stroke:black; " description="&lt;b&gt;NKHAFMMO_01420&lt;/b&gt;&lt;br&gt;Peroxiredoxin&lt;br&gt;Location: 87881 - 88538" locus_tag="NKHAFMMO_01420" class="clusterblast-orf" id="dummy-1_q0_0_all"  />
<polygon points="16,40 19,35 16,30 16,40 " style="fill:white; stroke-width:1; stroke:black; " description="&lt;b&gt;NKHAFMMO_01421&lt;/b&gt;&lt;br&gt;hypothetical protein&lt;br&gt;Location: 88733 - 88949" locus_tag="NKHAFMMO_01421" class="clusterblast-orf" id="dummy-1_q1_0_all"  />
<polygon points="20,35 24,30 24,40 20,35 " style="fill:#6dd815; stroke-width:1; stroke:black; " description="&lt;b&gt;NKHAFMMO_01422&lt;/b&gt;&lt;br&gt;hypothetical protein&lt;br&gt;Location: 89006 - 89279" locus_tag="NKHAFMMO_01422" class="clusterblast-orf" id="dummy-1_q2_0_all"  />
<polygon points="24,35 29,30 43,30 43,40 29,40 24,35 " style="fill:#15c5d8; stroke-width:1; stroke:black; " description="&lt;b&gt;NKHAFMMO_01423&lt;/b&gt;&lt;br&gt;Putative metal chaperone YciC&lt;br&gt;Location: 89275 - 90493" locus_tag="NKHAFMMO_01423" class="clusterblast-orf" id="dummy-1_q3_0_all"  />
<polygon points="44,35 49,30 53,30 53,40 49,40 44,35 " style="fill:#9315d8; stroke-width:1; stroke:black; " description="&lt;b&gt;NKHAFMMO_01424&lt;/b&gt;&lt;br&gt;hypothetical protein&lt;br&gt;Location: 90560 - 91148" locus_tag="NKHAFMMO_01424" class="clusterblast-orf" id="dummy-1_q4_0_all"  />
<polygon points="55,35 60,30 88,30 88,40 60,40 55,35 " style="fill:#d83b15; stroke-width:1; stroke:black; " description="&lt;b&gt;NKHAFMMO_01425&lt;/b&gt;&lt;br&gt;Polyribonucleotide nucleotidyltransferase&lt;br&gt;Location: 91295 - 93446" locus_tag="NKHAFMMO_01425" class="clusterblast-orf" id="dummy-1_q5_0_all"  />
<polygon points="91,35 96,30 96,30 96,40 96,40 91,35 " style="fill:white; stroke-width:1; stroke:black; " description="&lt;b&gt;NKHAFMMO_01426&lt;/b&gt;&lt;br&gt;30S ribosomal protein S15&lt;br&gt;Location: 93638 - 93908" locus_tag="NKHAFMMO_01426" class="clusterblast-orf" id="dummy-1_q6_0_all"  />
<polygon points="99,40 101,35 99,30 99,40 " style="fill:white; stroke-width:1; stroke:black; " description="&lt;b&gt;NKHAFMMO_01427&lt;/b&gt;&lt;br&gt;hypothetical protein&lt;br&gt;Location: 94139 - 94256" locus_tag="NKHAFMMO_01427" class="clusterblast-orf" id="dummy-1_q7_0_all"  />
<polygon points="100,40 111,40 116,35 111,30 100,30 100,40 " style="fill:white; stroke-width:1; stroke:black; " description="&lt;b&gt;NKHAFMMO_01428&lt;/b&gt;&lt;br&gt;hypothetical protein&lt;br&gt;Location: 94222 - 95227" locus_tag="NKHAFMMO_01428" class="clusterblast-orf" id="dummy-1_q8_0_all"  />
<polygon points="119,35 124,30 138,30 138,40 124,40 119,35 " style="fill:#48d815; stroke-width:1; stroke:black; " description="&lt;b&gt;NKHAFMMO_01429&lt;/b&gt;&lt;br&gt;D-inositol-3-phosphate glycosyltransferase&lt;br&gt;Location: 95435 - 96692" locus_tag="NKHAFMMO_01429" class="clusterblast-orf" id="dummy-1_q9_0_all"  />
<polygon points="139,40 155,40 160,35 155,30 139,30 139,40 " style="fill:#15a0d8; stroke-width:1; stroke:black; " description="&lt;b&gt;NKHAFMMO_01430&lt;/b&gt;&lt;br&gt;hypothetical protein&lt;br&gt;Location: 96748 - 98083" locus_tag="NKHAFMMO_01430" class="clusterblast-orf" id="dummy-1_q10_0_all"  />
<polygon points="162,40 165,35 162,30 162,40 " style="fill:#b915d8; stroke-width:1; stroke:black; " description="&lt;b&gt;NKHAFMMO_01431&lt;/b&gt;&lt;br&gt;hypothetical protein&lt;br&gt;Location: 98203 - 98425" locus_tag="NKHAFMMO_01431" class="clusterblast-orf" id="dummy-1_q11_0_all"  />
<polygon points="172,40 178,40 183,35 178,30 172,30 172,40 " style="fill:#d86115; stroke-width:1; stroke:black; " description="&lt;b&gt;NKHAFMMO_01432&lt;/b&gt;&lt;br&gt;Undecaprenyl phosphate N,N'-diacetylbacillosamine 1-phosphate transferase&lt;br&gt;Location: 98859 - 99582" locus_tag="NKHAFMMO_01432" class="clusterblast-orf" id="dummy-1_q12_0_all"  />
<polygon points="184,35 189,30 204,30 204,40 189,40 184,35 " style="fill:#22d815; stroke-width:1; stroke:black; " description="&lt;b&gt;NKHAFMMO_01433&lt;/b&gt;&lt;br&gt;hypothetical protein&lt;br&gt;Location: 99665 - 100946" locus_tag="NKHAFMMO_01433" class="clusterblast-orf" id="dummy-1_q13_0_all"  />
<polygon points="204,35 209,30 218,30 218,40 209,40 204,35 " style="fill:#157ad8; stroke-width:1; stroke:black; " description="&lt;b&gt;NKHAFMMO_01434&lt;/b&gt;&lt;br&gt;hypothetical protein&lt;br&gt;Location: 100950 - 101886" locus_tag="NKHAFMMO_01434" class="clusterblast-orf" id="dummy-1_q14_0_all"  />
<polygon points="222,40 232,40 237,35 232,30 222,30 222,40 " style="fill:#d815d2; stroke-width:1; stroke:black; " description="&lt;b&gt;NKHAFMMO_01435&lt;/b&gt;&lt;br&gt;hypothetical protein&lt;br&gt;Location: 102105 - 103098" locus_tag="NKHAFMMO_01435" class="clusterblast-orf" id="dummy-1_q15_0_all"  />
<polygon points="237,35 242,30 249,30 249,40 242,40 237,35 " style="fill:#d88615; stroke-width:1; stroke:black; " description="&lt;b&gt;NKHAFMMO_01436&lt;/b&gt;&lt;br&gt;N-acetylglucosaminyldiphosphoundecaprenol N-acetyl-beta-D-mannosaminyltransferase&lt;br&gt;Location: 103114 - 103864" locus_tag="NKHAFMMO_01436" class="clusterblast-orf" id="dummy-1_q16_0_all"  />
<polygon points="251,40 260,40 265,35 260,30 251,30 251,40 " style="fill:#15d82e; stroke-width:1; stroke:black; " description="&lt;b&gt;NKHAFMMO_01437&lt;/b&gt;&lt;br&gt;hypothetical protein&lt;br&gt;Location: 104036 - 104936" locus_tag="NKHAFMMO_01437" class="clusterblast-orf" id="dummy-1_q17_0_all"  />
<polygon points="266,40 282,40 287,35 282,30 266,30 266,40 " style="fill:#1554d8; stroke-width:1; stroke:black; " description="&lt;b&gt;NKHAFMMO_01438&lt;/b&gt;&lt;br&gt;hypothetical protein&lt;br&gt;Location: 105020 - 106394" locus_tag="NKHAFMMO_01438" class="clusterblast-orf" id="dummy-1_q18_0_all"  />
<polygon points="296,40 389,40 394,35 389,30 296,30 296,40 " style="fill:#d815ac; stroke-width:1; stroke:black; " description="&lt;b&gt;NKHAFMMO_01439&lt;/b&gt;&lt;br&gt;hypothetical protein&lt;br&gt;Location: 106958 - 113354" locus_tag="NKHAFMMO_01439" class="clusterblast-orf" id="dummy-1_q19_0_all"  />
<polygon points="394,40 405,40 410,35 405,30 394,30 394,40 " style="fill:#d8ac15; stroke-width:1; stroke:black; " description="&lt;b&gt;NKHAFMMO_01440&lt;/b&gt;&lt;br&gt;hypothetical protein&lt;br&gt;Location: 113353 - 114358" locus_tag="NKHAFMMO_01440" class="clusterblast-orf" id="dummy-1_q20_0_all"  />
<polygon points="410,40 475,40 480,35 475,30 410,30 410,40 " style="fill:#15d854; stroke-width:1; stroke:black; " description="&lt;b&gt;NKHAFMMO_01441&lt;/b&gt;&lt;br&gt;D-alanine--D-alanyl carrier protein ligase&lt;br&gt;Location: 114395 - 118943" locus_tag="NKHAFMMO_01441" class="clusterblast-orf" id="dummy-1_q21_0_all"  />
<polygon points="479,40 485,40 490,35 485,30 479,30 479,40 " style="fill:#152ed8; stroke-width:1; stroke:black; " description="&lt;b&gt;NKHAFMMO_01442&lt;/b&gt;&lt;br&gt;hypothetical protein&lt;br&gt;Location: 118893 - 119559" locus_tag="NKHAFMMO_01442" class="clusterblast-orf" id="dummy-1_q22_0_all"  />
<polygon points="490,40 502,40 507,35 502,30 490,30 490,40 " style="fill:#d81586; stroke-width:1; stroke:black; " description="&lt;b&gt;NKHAFMMO_01443&lt;/b&gt;&lt;br&gt;Cell division protein ZapE&lt;br&gt;Location: 119595 - 120678" locus_tag="NKHAFMMO_01443" class="clusterblast-orf" id="dummy-1_q23_0_all"  />
<polygon points="510,40 530,40 535,35 530,30 510,30 510,40 " style="fill:#d8d215; stroke-width:1; stroke:black; " description="&lt;b&gt;NKHAFMMO_01444&lt;/b&gt;&lt;br&gt;hypothetical protein&lt;br&gt;Location: 120897 - 122496" locus_tag="NKHAFMMO_01444" class="clusterblast-orf" id="dummy-1_q24_0_all"  />
<polygon points="535,35 540,30 545,30 545,40 540,40 535,35 " style="fill:#15d87a; stroke-width:1; stroke:black; " description="&lt;b&gt;NKHAFMMO_01445&lt;/b&gt;&lt;br&gt;Carbonic anhydrase 1&lt;br&gt;Location: 122496 - 123144" locus_tag="NKHAFMMO_01445" class="clusterblast-orf" id="dummy-1_q25_0_all"  />
<polygon points="547,40 548,40 553,35 548,30 547,30 547,40 " style="fill:#2215d8; stroke-width:1; stroke:black; " description="&lt;b&gt;NKHAFMMO_01446&lt;/b&gt;&lt;br&gt;hypothetical protein&lt;br&gt;Location: 123289 - 123673" locus_tag="NKHAFMMO_01446" class="clusterblast-orf" id="dummy-1_q26_0_all"  />
<polygon points="554,40 570,40 575,35 570,30 554,30 554,40 " style="fill:#d81561; stroke-width:1; stroke:black; " description="&lt;b&gt;NKHAFMMO_01447&lt;/b&gt;&lt;br&gt;cytosol aminopeptidase&lt;br&gt;Location: 123736 - 125113" locus_tag="NKHAFMMO_01447" class="clusterblast-orf" id="dummy-1_q27_0_all"  />
<polygon points="575,40 583,40 588,35 583,30 575,30 575,40 " style="fill:#b9d815; stroke-width:1; stroke:black; " description="&lt;b&gt;NKHAFMMO_01448&lt;/b&gt;&lt;br&gt;hypothetical protein&lt;br&gt;Location: 125112 - 125934" locus_tag="NKHAFMMO_01448" class="clusterblast-orf" id="dummy-1_q28_0_all"  />
<polygon points="589,35 594,30 594,30 594,40 594,40 589,35 " style="fill:#15d8a0; stroke-width:1; stroke:black; " description="&lt;b&gt;NKHAFMMO_01449&lt;/b&gt;&lt;br&gt;hypothetical protein&lt;br&gt;Location: 126017 - 126374" locus_tag="NKHAFMMO_01449" class="clusterblast-orf" id="dummy-1_q29_0_all"  />
<polygon points="598,35 603,30 614,30 614,40 603,40 598,35 " style="fill:#4815d8; stroke-width:1; stroke:black; " description="&lt;b&gt;NKHAFMMO_01450&lt;/b&gt;&lt;br&gt;hypothetical protein&lt;br&gt;Location: 126621 - 127617" locus_tag="NKHAFMMO_01450" class="clusterblast-orf" id="dummy-1_q30_0_all"  />
<polygon points="616,40 619,40 624,35 619,30 616,30 616,40 " style="fill:#d8153b; stroke-width:1; stroke:black; " description="&lt;b&gt;NKHAFMMO_01451&lt;/b&gt;&lt;br&gt;hypothetical protein&lt;br&gt;Location: 127785 - 128322" locus_tag="NKHAFMMO_01451" class="clusterblast-orf" id="dummy-1_q31_0_all"  />
<polygon points="626,40 640,40 645,35 640,30 626,30 626,40 " style="fill:#93d815; stroke-width:1; stroke:black; " description="&lt;b&gt;NKHAFMMO_01452&lt;/b&gt;&lt;br&gt;Dual-specificity RNA methyltransferase RlmN&lt;br&gt;Location: 128454 - 129651" locus_tag="NKHAFMMO_01452" class="clusterblast-orf" id="dummy-1_q32_0_all"  />
<polygon points="645,35 650,30 666,30 666,40 650,40 645,35 " style="fill:white; stroke-width:1; stroke:black; " description="&lt;b&gt;NKHAFMMO_01453&lt;/b&gt;&lt;br&gt;Putative cation/proton antiporter YbaL&lt;br&gt;Location: 129652 - 131008" locus_tag="NKHAFMMO_01453" class="clusterblast-orf" id="dummy-1_q33_0_all"  />
<polygon points="667,40 681,40 686,35 681,30 667,30 667,40 " style="fill:#15d8c5; stroke-width:1; stroke:black; " description="&lt;b&gt;NKHAFMMO_01454&lt;/b&gt;&lt;br&gt;hypothetical protein&lt;br&gt;Location: 131125 - 132343" locus_tag="NKHAFMMO_01454" class="clusterblast-orf" id="dummy-1_q34_0_all"  />
<polygon points="688,35 693,30 701,30 701,40 693,40 688,35 " style="fill:white; stroke-width:1; stroke:black; " description="&lt;b&gt;NKHAFMMO_01455&lt;/b&gt;&lt;br&gt;hypothetical protein&lt;br&gt;Location: 132460 - 133285" locus_tag="NKHAFMMO_01455" class="clusterblast-orf" id="dummy-1_q35_0_all"  />
<polygon points="702,40 710,40 715,35 710,30 702,30 702,40 " style="fill:white; stroke-width:1; stroke:black; " description="&lt;b&gt;NKHAFMMO_01456&lt;/b&gt;&lt;br&gt;2,3,4,5-tetrahydropyridine-2,6-dicarboxylate N-succinyltransferase&lt;br&gt;Location: 133375 - 134200" locus_tag="NKHAFMMO_01456" class="clusterblast-orf" id="dummy-1_q36_0_all"  />
<polygon points="716,40 718,40 723,35 718,30 716,30 716,40 " style="fill:white; stroke-width:1; stroke:black; " description="&lt;b&gt;NKHAFMMO_01457&lt;/b&gt;&lt;br&gt;HTH-type transcriptional repressor NicR&lt;br&gt;Location: 134312 - 134735" locus_tag="NKHAFMMO_01457" class="clusterblast-orf" id="dummy-1_q37_0_all"  />
<polygon points="724,35 729,30 733,30 733,40 729,40 724,35 " style="fill:white; stroke-width:1; stroke:black; " description="&lt;b&gt;NKHAFMMO_01458&lt;/b&gt;&lt;br&gt;hypothetical protein&lt;br&gt;Location: 134791 - 135412" locus_tag="NKHAFMMO_01458" class="clusterblast-orf" id="dummy-1_q38_0_all"  />
<polygon points="736,40 762,40 767,35 762,30 736,30 736,40 " style="fill:#6d15d8; stroke-width:1; stroke:black; " description="&lt;b&gt;NKHAFMMO_01459&lt;/b&gt;&lt;br&gt;putative N-methylproline demethylase&lt;br&gt;Location: 135558 - 137604" locus_tag="NKHAFMMO_01459" class="clusterblast-orf" id="dummy-1_q39_0_all"  />
<polygon points="768,40 771,40 776,35 771,30 768,30 768,40 " style="fill:white; stroke-width:1; stroke:black; " description="&lt;b&gt;NKHAFMMO_01460&lt;/b&gt;&lt;br&gt;hypothetical protein&lt;br&gt;Location: 137685 - 138210" locus_tag="NKHAFMMO_01460" class="clusterblast-orf" id="dummy-1_q40_0_all"  />
</g>
<g label="NZ_KI421500" description="NZ_KI421500 (36467-88446): Leisingera daeponensis DSM 23529 Phada neu scaffol... (35% of genes show similarity), NRPS-like,T1PKS" class="clusterblast-cluster"  >
<text x="5" y="70" class="clusterblast-acc"  >
<a xlink:href="https://antismash-db.secondarymetabolites.org/area.html?record=NZ_KI421500&amp;start=36467&amp;end=88446" target="_blank">NZ_KI421500 (36467-88446)</a>: Leisingera daeponensis DSM 23529 Phada neu scaffol... (35% of genes show similarity), NRPS-like,T1PKS</text>
<line x1="10" y1="85" x2="778.0" y2="85" style="stroke-width:1; stroke:grey; "  />
</g>
<g id="a1_000"  >
<polygon points="0,90 6,90 11,85 6,80 0,80 0,90 " style="fill:white; stroke-width:1; stroke:black; " description="&lt;b&gt;DAEP_RS0100730&lt;/b&gt;&lt;br&gt;tRNA pseudouridine(38-40) synthase TruA&lt;br&gt;Location: 87230 - 86463" locus_tag="DAEP_RS0100730" class="clusterblast-orf" id="dummy-1_h1_7_0"  />
</g>
<g id="a1_001"  >
<polygon points="15,90 22,90 27,85 22,80 15,80 15,90 " style="fill:white; stroke-width:1; stroke:black; " description="&lt;b&gt;DAEP_RS0100725&lt;/b&gt;&lt;br&gt;NYN domain-containing protein&lt;br&gt;Location: 86219 - 85470" locus_tag="DAEP_RS0100725" class="clusterblast-orf" id="dummy-1_h1_7_1"  />
</g>
<g id="a1_002"  >
<polygon points="30,85 33,80 33,90 30,85 " style="fill:white; stroke-width:1; stroke:black; " description="&lt;b&gt;DAEP_RS0100720&lt;/b&gt;&lt;br&gt;flavodoxin family protein&lt;br&gt;Location: 85246 - 85031" locus_tag="DAEP_RS0100720" class="clusterblast-orf" id="dummy-1_h1_7_2"  />
</g>
<g id="a1_003"  >
<polygon points="35,85 40,80 41,80 41,90 40,90 35,85 " style="fill:white; stroke-width:1; stroke:black; " description="&lt;b&gt;DAEP_RS0100715&lt;/b&gt;&lt;br&gt;glycine cleavage system protein GcvH&lt;br&gt;Location: 84892 - 84533" locus_tag="DAEP_RS0100715" class="clusterblast-orf" id="dummy-1_h1_7_3"  />
</g>
<g id="a1_004"  >
<polygon points="44,85 49,80 66,80 66,90 49,90 44,85 " style="fill:white; stroke-width:1; stroke:black; " description="&lt;b&gt;DAEP_RS0100710&lt;/b&gt;&lt;br&gt;glutamine synthetase&lt;br&gt;Location: 84333 - 82885" locus_tag="DAEP_RS0100710" class="clusterblast-orf" id="dummy-1_h1_7_4"  />
</g>
<g id="a1_005"  >
<polygon points="70,90 77,90 82,85 77,80 70,80 70,90 " style="fill:white; stroke-width:1; stroke:black; " description="&lt;b&gt;DAEP_RS0100705&lt;/b&gt;&lt;br&gt;helix-turn-helix domain-containing protein&lt;br&gt;Location: 82669 - 81893" locus_tag="DAEP_RS0100705" class="clusterblast-orf" id="dummy-1_h1_7_5"  />
</g>
<g id="a1_006"  >
<polygon points="83,90 87,85 83,80 83,90 " style="fill:white; stroke-width:1; stroke:black; " description="&lt;b&gt;DAEP_RS0100700&lt;/b&gt;&lt;br&gt;hypothetical protein&lt;br&gt;Location: 81825 - 81511" locus_tag="DAEP_RS0100700" class="clusterblast-orf" id="dummy-1_h1_7_6"  />
</g>
<g id="a1_007"  >
<polygon points="89,90 99,90 104,85 99,80 89,80 89,90 " style="fill:white; stroke-width:1; stroke:black; " description="&lt;b&gt;DAEP_RS0100695&lt;/b&gt;&lt;br&gt;glyceraldehyde-3-phosphate dehydrogenase&lt;br&gt;Location: 81425 - 80406" locus_tag="DAEP_RS0100695" class="clusterblast-orf" id="dummy-1_h1_7_7"  />
</g>
<g id="a1_008"  >
<polygon points="105,85 110,80 114,80 114,90 110,90 105,85 " style="fill:white; stroke-width:1; stroke:black; " description="&lt;b&gt;DAEP_RS0100690&lt;/b&gt;&lt;br&gt;hypothetical protein&lt;br&gt;Location: 80377 - 79769" locus_tag="DAEP_RS0100690" class="clusterblast-orf" id="dummy-1_h1_7_8"  />
</g>
<g id="a1_009"  >
<polygon points="115,85 120,80 120,80 120,90 120,90 115,85 " style="fill:white; stroke-width:1; stroke:black; " description="&lt;b&gt;DAEP_RS0100685&lt;/b&gt;&lt;br&gt;hypothetical protein&lt;br&gt;Location: 79704 - 79402" locus_tag="DAEP_RS0100685" class="clusterblast-orf" id="dummy-1_h1_7_9"  />
</g>
<g id="a1_0010"  >
<polygon points="128,90 151,90 156,85 151,80 128,80 128,90 " style="fill:white; stroke-width:1; stroke:black; " description="&lt;b&gt;DAEP_RS0100675&lt;/b&gt;&lt;br&gt;BamA/TamA family outer membrane protein&lt;br&gt;Location: 78851 - 77049" locus_tag="DAEP_RS0100675" class="clusterblast-orf" id="dummy-1_h1_7_10"  />
</g>
<g id="a1_0011"  >
<polygon points="156,90 207,90 212,85 207,80 156,80 156,90 " style="fill:white; stroke-width:1; stroke:black; " description="&lt;b&gt;DAEP_RS0100670&lt;/b&gt;&lt;br&gt;translocation/assembly module TamB domain-containing protein&lt;br&gt;Location: 77052 - 73423" locus_tag="DAEP_RS0100670" class="clusterblast-orf" id="dummy-1_h1_7_11"  />
</g>
<g id="a1_0012"  >
<polygon points="215,90 225,90 230,85 225,80 215,80 215,90 " style="fill:white; stroke-width:1; stroke:black; " description="&lt;b&gt;DAEP_RS0100665&lt;/b&gt;&lt;br&gt;glycosyltransferase family 2 protein&lt;br&gt;Location: 73203 - 72199" locus_tag="DAEP_RS0100665" class="clusterblast-orf" id="dummy-1_h1_7_12"  />
</g>
<g id="a1_0013"  >
<polygon points="230,90 240,90 245,85 240,80 230,80 230,90 " style="fill:#d815d2; stroke-width:1; stroke:black; " description="&lt;b&gt;DAEP_RS0100660&lt;/b&gt;&lt;br&gt;glycosyltransferase family 2 protein&lt;br&gt;Location: 72202 - 71252&lt;br&gt;&lt;br&gt;&lt;b&gt;BlastP hit with NKHAFMMO_01435&lt;/b&gt;&lt;br&gt;Percentage identity: 68&lt;br&gt;Percentage coverage: 95&lt;br&gt;BLAST bit score: 411&lt;br&gt;E-value: 6.18e-143" locus_tag="DAEP_RS0100660" class="clusterblast-orf" id="dummy-1_h1_7_13"  />
</g>
<g id="a1_0014"  >
<polygon points="247,85 252,80 259,80 259,90 252,90 247,85 " style="fill:#d88615; stroke-width:1; stroke:black; " description="&lt;b&gt;DAEP_RS0100655&lt;/b&gt;&lt;br&gt;WecB/TagA/CpsF family glycosyltransferase&lt;br&gt;Location: 71114 - 70362&lt;br&gt;&lt;br&gt;&lt;b&gt;BlastP hit with NKHAFMMO_01436&lt;/b&gt;&lt;br&gt;Percentage identity: 65&lt;br&gt;Percentage coverage: 98&lt;br&gt;BLAST bit score: 309&lt;br&gt;E-value: 3.82e-105" locus_tag="DAEP_RS0100655" class="clusterblast-orf" id="dummy-1_h1_7_14"  />
</g>
<g id="a1_0015"  >
<polygon points="262,90 279,90 284,85 279,80 262,80 262,90 " style="fill:#1554d8; stroke-width:1; stroke:black; " description="&lt;b&gt;DAEP_RS0100650&lt;/b&gt;&lt;br&gt;membrane protein&lt;br&gt;Location: 70171 - 68708&lt;br&gt;&lt;br&gt;&lt;b&gt;BlastP hit with NKHAFMMO_01438&lt;/b&gt;&lt;br&gt;Percentage identity: 48&lt;br&gt;Percentage coverage: 97&lt;br&gt;BLAST bit score: 379&lt;br&gt;E-value: 4.97e-126" locus_tag="DAEP_RS0100650" class="clusterblast-orf" id="dummy-1_h1_7_15"  />
</g>
<g id="a1_0016"  >
<polygon points="288,90 382,90 387,85 382,80 288,80 288,90 " style="fill:#d815ac; stroke-width:1; stroke:black; " description="&lt;b&gt;DAEP_RS0100645&lt;/b&gt;&lt;br&gt;type I polyketide synthase&lt;br&gt;Location: 68446 - 61997&lt;br&gt;&lt;br&gt;&lt;b&gt;BlastP hit with NKHAFMMO_01439&lt;/b&gt;&lt;br&gt;Percentage identity: 59&lt;br&gt;Percentage coverage: 101&lt;br&gt;BLAST bit score: 2424&lt;br&gt;E-value: 0.0" locus_tag="DAEP_RS0100645" class="clusterblast-orf" id="dummy-1_h1_7_16"  />
</g>
<g id="a1_0017"  >
<polygon points="387,90 398,90 403,85 398,80 387,80 387,90 " style="fill:#d8ac15; stroke-width:1; stroke:black; " description="&lt;b&gt;DAEP_RS0100640&lt;/b&gt;&lt;br&gt;glycosyltransferase family 2 protein&lt;br&gt;Location: 61991 - 60975&lt;br&gt;&lt;br&gt;&lt;b&gt;BlastP hit with NKHAFMMO_01440&lt;/b&gt;&lt;br&gt;Percentage identity: 59&lt;br&gt;Percentage coverage: 93&lt;br&gt;BLAST bit score: 363&lt;br&gt;E-value: 1.47e-123" locus_tag="DAEP_RS0100640" class="clusterblast-orf" id="dummy-1_h1_7_17"  />
</g>
<g id="a1_0018"  >
<polygon points="403,90 468,90 473,85 468,80 403,80 403,90 " style="fill:#15d854; stroke-width:1; stroke:black; " description="&lt;b&gt;DAEP_RS0100635&lt;/b&gt;&lt;br&gt;LLM class flavin-dependent oxidoreductase&lt;br&gt;Location: 60978 - 56413&lt;br&gt;&lt;br&gt;&lt;b&gt;BlastP hit with NKHAFMMO_01441&lt;/b&gt;&lt;br&gt;Percentage identity: 58&lt;br&gt;Percentage coverage: 102&lt;br&gt;BLAST bit score: 1627&lt;br&gt;E-value: 0.0" locus_tag="DAEP_RS0100635" class="clusterblast-orf" id="dummy-1_h1_7_18"  />
</g>
<g id="a1_0019"  >
<polygon points="473,90 479,90 484,85 479,80 473,80 473,90 " style="fill:#152ed8; stroke-width:1; stroke:black; " description="&lt;b&gt;DAEP_RS0100630&lt;/b&gt;&lt;br&gt;4'-phosphopantetheinyl transferase superfamily protein&lt;br&gt;Location: 56416 - 55727&lt;br&gt;&lt;br&gt;&lt;b&gt;BlastP hit with NKHAFMMO_01442&lt;/b&gt;&lt;br&gt;Percentage identity: 40&lt;br&gt;Percentage coverage: 80&lt;br&gt;BLAST bit score: 117&lt;br&gt;E-value: 1.18e-30" locus_tag="DAEP_RS0100630" class="clusterblast-orf" id="dummy-1_h1_7_19"  />
</g>
<g id="a1_0020"  >
<polygon points="484,90 493,90 498,85 493,80 484,80 484,90 " style="fill:white; stroke-width:1; stroke:black; " description="&lt;b&gt;DAEP_RS0100625&lt;/b&gt;&lt;br&gt;hypothetical protein&lt;br&gt;Location: 55727 - 54792" locus_tag="DAEP_RS0100625" class="clusterblast-orf" id="dummy-1_h1_7_20"  />
</g>
<g id="a1_0021"  >
<polygon points="498,90 531,90 536,85 531,80 498,80 498,90 " style="fill:white; stroke-width:1; stroke:black; " description="&lt;b&gt;DAEP_RS0100620&lt;/b&gt;&lt;br&gt;hypothetical protein&lt;br&gt;Location: 54795 - 52291" locus_tag="DAEP_RS0100620" class="clusterblast-orf" id="dummy-1_h1_7_21"  />
</g>
<g id="a1_0022"  >
<polygon points="536,90 544,90 549,85 544,80 536,80 536,90 " style="fill:white; stroke-width:1; stroke:black; " description="&lt;b&gt;DAEP_RS0100615&lt;/b&gt;&lt;br&gt;glycosyltransferase&lt;br&gt;Location: 52294 - 51458" locus_tag="DAEP_RS0100615" class="clusterblast-orf" id="dummy-1_h1_7_22"  />
</g>
<g id="a1_0023"  >
<polygon points="552,85 557,80 570,80 570,90 557,90 552,85 " style="fill:#48d815; stroke-width:1; stroke:black; " description="&lt;b&gt;DAEP_RS0100610&lt;/b&gt;&lt;br&gt;glycosyltransferase&lt;br&gt;Location: 51290 - 50085&lt;br&gt;&lt;br&gt;&lt;b&gt;BlastP hit with NKHAFMMO_01429&lt;/b&gt;&lt;br&gt;Percentage identity: 62&lt;br&gt;Percentage coverage: 95&lt;br&gt;BLAST bit score: 441&lt;br&gt;E-value: 3.24e-152" locus_tag="DAEP_RS0100610" class="clusterblast-orf" id="dummy-1_h1_7_23"  />
</g>
<g id="a1_0024"  >
<polygon points="574,90 590,90 595,85 590,80 574,80 574,90 " style="fill:#15a0d8; stroke-width:1; stroke:black; " description="&lt;b&gt;DAEP_RS0100605&lt;/b&gt;&lt;br&gt;oligosaccharide flippase family protein&lt;br&gt;Location: 49845 - 48475&lt;br&gt;&lt;br&gt;&lt;b&gt;BlastP hit with NKHAFMMO_01430&lt;/b&gt;&lt;br&gt;Percentage identity: 56&lt;br&gt;Percentage coverage: 98&lt;br&gt;BLAST bit score: 438&lt;br&gt;E-value: 8.84e-150" locus_tag="DAEP_RS0100605" class="clusterblast-orf" id="dummy-1_h1_7_24"  />
</g>
<g id="a1_0025"  >
<polygon points="596,85 601,80 615,80 615,90 601,90 596,85 " style="fill:#22d815; stroke-width:1; stroke:black; " description="&lt;b&gt;DAEP_RS0100600&lt;/b&gt;&lt;br&gt;chain-length determining protein&lt;br&gt;Location: 48392 - 47142&lt;br&gt;&lt;br&gt;&lt;b&gt;BlastP hit with NKHAFMMO_01433&lt;/b&gt;&lt;br&gt;Percentage identity: 37&lt;br&gt;Percentage coverage: 97&lt;br&gt;BLAST bit score: 217&lt;br&gt;E-value: 2.22e-64" locus_tag="DAEP_RS0100600" class="clusterblast-orf" id="dummy-1_h1_7_25"  />
</g>
<g id="a1_0026"  >
<polygon points="618,85 623,80 632,80 632,90 623,90 618,85 " style="fill:#157ad8; stroke-width:1; stroke:black; " description="&lt;b&gt;DAEP_RS0100595&lt;/b&gt;&lt;br&gt;CpsD/CapB family tyrosine-protein kinase&lt;br&gt;Location: 46989 - 46069&lt;br&gt;&lt;br&gt;&lt;b&gt;BlastP hit with NKHAFMMO_01434&lt;/b&gt;&lt;br&gt;Percentage identity: 45&lt;br&gt;Percentage coverage: 62&lt;br&gt;BLAST bit score: 160&lt;br&gt;E-value: 3.93e-45" locus_tag="DAEP_RS0100595" class="clusterblast-orf" id="dummy-1_h1_7_26"  />
</g>
<g id="a1_0027"  >
<polygon points="633,85 638,80 646,80 646,90 638,90 633,85 " style="fill:#d86115; stroke-width:1; stroke:black; " description="&lt;b&gt;DAEP_RS0100590&lt;/b&gt;&lt;br&gt;sugar transferase&lt;br&gt;Location: 45978 - 45181&lt;br&gt;&lt;br&gt;&lt;b&gt;BlastP hit with NKHAFMMO_01432&lt;/b&gt;&lt;br&gt;Percentage identity: 55&lt;br&gt;Percentage coverage: 88&lt;br&gt;BLAST bit score: 219&lt;br&gt;E-value: 1.38e-69" locus_tag="DAEP_RS0100590" class="clusterblast-orf" id="dummy-1_h1_7_27"  />
</g>
<g id="a1_0028"  >
<polygon points="652,85 657,80 668,80 668,90 657,90 652,85 " style="fill:white; stroke-width:1; stroke:black; " description="&lt;b&gt;DAEP_RS22370&lt;/b&gt;&lt;br&gt;AraC family transcriptional regulator ligand-binding domain-containing protein&lt;br&gt;Location: 44792 - 43749" locus_tag="DAEP_RS22370" class="clusterblast-orf" id="dummy-1_h1_7_28"  />
</g>
<g id="a1_0029"  >
<polygon points="673,90 681,90 686,85 681,80 673,80 673,90 " style="fill:white; stroke-width:1; stroke:black; " description="&lt;b&gt;DAEP_RS0100580&lt;/b&gt;&lt;br&gt;2-dehydro-3-deoxygalactonokinase&lt;br&gt;Location: 43419 - 42568" locus_tag="DAEP_RS0100580" class="clusterblast-orf" id="dummy-1_h1_7_29"  />
</g>
<g id="a1_0030"  >
<polygon points="691,85 696,80 703,80 703,90 696,90 691,85 " style="fill:white; stroke-width:1; stroke:black; " description="&lt;b&gt;DAEP_RS0100575&lt;/b&gt;&lt;br&gt;TIGR03084 family protein&lt;br&gt;Location: 42217 - 41417" locus_tag="DAEP_RS0100575" class="clusterblast-orf" id="dummy-1_h1_7_30"  />
</g>
<g id="a1_0031"  >
<polygon points="713,85 718,80 730,80 730,90 718,90 713,85 " style="fill:white; stroke-width:1; stroke:black; " description="&lt;b&gt;DAEP_RS0100570&lt;/b&gt;&lt;br&gt;RNA methyltransferase&lt;br&gt;Location: 40820 - 39702" locus_tag="DAEP_RS0100570" class="clusterblast-orf" id="dummy-1_h1_7_31"  />
</g>
<g id="a1_0032"  >
<polygon points="734,90 756,90 761,85 756,80 734,80 734,90 " style="fill:white; stroke-width:1; stroke:black; " description="&lt;b&gt;DAEP_RS0100565&lt;/b&gt;&lt;br&gt;carbohydrate ABC transporter substrate-binding protein&lt;br&gt;Location: 39422 - 37689" locus_tag="DAEP_RS0100565" class="clusterblast-orf" id="dummy-1_h1_7_32"  />
</g>
<g id="a1_0033"  >
<polygon points="763,90 775,90 780,85 775,80 763,80 763,90 " style="fill:white; stroke-width:1; stroke:black; " description="&lt;b&gt;DAEP_RS0100560&lt;/b&gt;&lt;br&gt;ABC transporter ATP-binding protein&lt;br&gt;Location: 37532 - 36468" locus_tag="DAEP_RS0100560" class="clusterblast-orf" id="dummy-1_h1_7_33"  />
</g>
</svg>
