<svg xmlns="http://www.w3.org/2000/svg" xmlns:xlink="http://www.w3.org/1999/xlink" version="1.1" x="0" y="0" height="230" width="800" viewBox="0 0 800 230" preserveAspectRatio="none"  >
<g label="Query sequence" class="clusterblast-cluster"  >
<text x="5" y="20" class="clusterblast-acc"  >
Query sequence</text>
<line x1="10" y1="35" x2="778.0" y2="35" style="stroke-width:1; stroke:grey; "  />
<polygon points="6,40 11,40 16,35 11,30 6,30 6,40 " style="fill:#d81515; stroke-width:1; stroke:black; " description="&lt;b&gt;NKHAFMMO_01420&lt;/b&gt;&lt;br&gt;Peroxiredoxin&lt;br&gt;Location: 87881 - 88538" locus_tag="NKHAFMMO_01420" class="clusterblast-orf" id="dummy-1_q0_0_all"  />
<polygon points="19,40 22,35 19,30 19,40 " style="fill:white; stroke-width:1; stroke:black; " description="&lt;b&gt;NKHAFMMO_01421&lt;/b&gt;&lt;br&gt;hypothetical protein&lt;br&gt;Location: 88733 - 88949" locus_tag="NKHAFMMO_01421" class="clusterblast-orf" id="dummy-1_q1_0_all"  />
<polygon points="23,35 27,30 27,40 23,35 " style="fill:#6dd815; stroke-width:1; stroke:black; " description="&lt;b&gt;NKHAFMMO_01422&lt;/b&gt;&lt;br&gt;hypothetical protein&lt;br&gt;Location: 89006 - 89279" locus_tag="NKHAFMMO_01422" class="clusterblast-orf" id="dummy-1_q2_0_all"  />
<polygon points="27,35 32,30 45,30 45,40 32,40 27,35 " style="fill:#15c5d8; stroke-width:1; stroke:black; " description="&lt;b&gt;NKHAFMMO_01423&lt;/b&gt;&lt;br&gt;Putative metal chaperone YciC&lt;br&gt;Location: 89275 - 90493" locus_tag="NKHAFMMO_01423" class="clusterblast-orf" id="dummy-1_q3_0_all"  />
<polygon points="46,35 51,30 55,30 55,40 51,40 46,35 " style="fill:#9315d8; stroke-width:1; stroke:black; " description="&lt;b&gt;NKHAFMMO_01424&lt;/b&gt;&lt;br&gt;hypothetical protein&lt;br&gt;Location: 90560 - 91148" locus_tag="NKHAFMMO_01424" class="clusterblast-orf" id="dummy-1_q4_0_all"  />
<polygon points="58,35 63,30 91,30 91,40 63,40 58,35 " style="fill:#d83b15; stroke-width:1; stroke:black; " description="&lt;b&gt;NKHAFMMO_01425&lt;/b&gt;&lt;br&gt;Polyribonucleotide nucleotidyltransferase&lt;br&gt;Location: 91295 - 93446" locus_tag="NKHAFMMO_01425" class="clusterblast-orf" id="dummy-1_q5_0_all"  />
<polygon points="93,35 98,30 98,30 98,40 98,40 93,35 " style="fill:white; stroke-width:1; stroke:black; " description="&lt;b&gt;NKHAFMMO_01426&lt;/b&gt;&lt;br&gt;30S ribosomal protein S15&lt;br&gt;Location: 93638 - 93908" locus_tag="NKHAFMMO_01426" class="clusterblast-orf" id="dummy-1_q6_0_all"  />
<polygon points="101,40 103,35 101,30 101,40 " style="fill:white; stroke-width:1; stroke:black; " description="&lt;b&gt;NKHAFMMO_01427&lt;/b&gt;&lt;br&gt;hypothetical protein&lt;br&gt;Location: 94139 - 94256" locus_tag="NKHAFMMO_01427" class="clusterblast-orf" id="dummy-1_q7_0_all"  />
<polygon points="102,40 113,40 118,35 113,30 102,30 102,40 " style="fill:white; stroke-width:1; stroke:black; " description="&lt;b&gt;NKHAFMMO_01428&lt;/b&gt;&lt;br&gt;hypothetical protein&lt;br&gt;Location: 94222 - 95227" locus_tag="NKHAFMMO_01428" class="clusterblast-orf" id="dummy-1_q8_0_all"  />
<polygon points="121,35 126,30 140,30 140,40 126,40 121,35 " style="fill:#48d815; stroke-width:1; stroke:black; " description="&lt;b&gt;NKHAFMMO_01429&lt;/b&gt;&lt;br&gt;D-inositol-3-phosphate glycosyltransferase&lt;br&gt;Location: 95435 - 96692" locus_tag="NKHAFMMO_01429" class="clusterblast-orf" id="dummy-1_q9_0_all"  />
<polygon points="141,40 156,40 161,35 156,30 141,30 141,40 " style="fill:#15a0d8; stroke-width:1; stroke:black; " description="&lt;b&gt;NKHAFMMO_01430&lt;/b&gt;&lt;br&gt;hypothetical protein&lt;br&gt;Location: 96748 - 98083" locus_tag="NKHAFMMO_01430" class="clusterblast-orf" id="dummy-1_q10_0_all"  />
<polygon points="163,40 167,35 163,30 163,40 " style="fill:#b915d8; stroke-width:1; stroke:black; " description="&lt;b&gt;NKHAFMMO_01431&lt;/b&gt;&lt;br&gt;hypothetical protein&lt;br&gt;Location: 98203 - 98425" locus_tag="NKHAFMMO_01431" class="clusterblast-orf" id="dummy-1_q11_0_all"  />
<polygon points="173,40 179,40 184,35 179,30 173,30 173,40 " style="fill:#d86115; stroke-width:1; stroke:black; " description="&lt;b&gt;NKHAFMMO_01432&lt;/b&gt;&lt;br&gt;Undecaprenyl phosphate N,N'-diacetylbacillosamine 1-phosphate transferase&lt;br&gt;Location: 98859 - 99582" locus_tag="NKHAFMMO_01432" class="clusterblast-orf" id="dummy-1_q12_0_all"  />
<polygon points="185,35 190,30 205,30 205,40 190,40 185,35 " style="fill:#22d815; stroke-width:1; stroke:black; " description="&lt;b&gt;NKHAFMMO_01433&lt;/b&gt;&lt;br&gt;hypothetical protein&lt;br&gt;Location: 99665 - 100946" locus_tag="NKHAFMMO_01433" class="clusterblast-orf" id="dummy-1_q13_0_all"  />
<polygon points="205,35 210,30 219,30 219,40 210,40 205,35 " style="fill:#157ad8; stroke-width:1; stroke:black; " description="&lt;b&gt;NKHAFMMO_01434&lt;/b&gt;&lt;br&gt;hypothetical protein&lt;br&gt;Location: 100950 - 101886" locus_tag="NKHAFMMO_01434" class="clusterblast-orf" id="dummy-1_q14_0_all"  />
<polygon points="223,40 233,40 238,35 233,30 223,30 223,40 " style="fill:#d815d2; stroke-width:1; stroke:black; " description="&lt;b&gt;NKHAFMMO_01435&lt;/b&gt;&lt;br&gt;hypothetical protein&lt;br&gt;Location: 102105 - 103098" locus_tag="NKHAFMMO_01435" class="clusterblast-orf" id="dummy-1_q15_0_all"  />
<polygon points="238,35 243,30 250,30 250,40 243,40 238,35 " style="fill:#d88615; stroke-width:1; stroke:black; " description="&lt;b&gt;NKHAFMMO_01436&lt;/b&gt;&lt;br&gt;N-acetylglucosaminyldiphosphoundecaprenol N-acetyl-beta-D-mannosaminyltransferase&lt;br&gt;Location: 103114 - 103864" locus_tag="NKHAFMMO_01436" class="clusterblast-orf" id="dummy-1_q16_0_all"  />
<polygon points="252,40 261,40 266,35 261,30 252,30 252,40 " style="fill:#15d82e; stroke-width:1; stroke:black; " description="&lt;b&gt;NKHAFMMO_01437&lt;/b&gt;&lt;br&gt;hypothetical protein&lt;br&gt;Location: 104036 - 104936" locus_tag="NKHAFMMO_01437" class="clusterblast-orf" id="dummy-1_q17_0_all"  />
<polygon points="267,40 283,40 288,35 283,30 267,30 267,40 " style="fill:#1554d8; stroke-width:1; stroke:black; " description="&lt;b&gt;NKHAFMMO_01438&lt;/b&gt;&lt;br&gt;hypothetical protein&lt;br&gt;Location: 105020 - 106394" locus_tag="NKHAFMMO_01438" class="clusterblast-orf" id="dummy-1_q18_0_all"  />
<polygon points="297,40 389,40 394,35 389,30 297,30 297,40 " style="fill:#d815ac; stroke-width:1; stroke:black; " description="&lt;b&gt;NKHAFMMO_01439&lt;/b&gt;&lt;br&gt;hypothetical protein&lt;br&gt;Location: 106958 - 113354" locus_tag="NKHAFMMO_01439" class="clusterblast-orf" id="dummy-1_q19_0_all"  />
<polygon points="394,40 405,40 410,35 405,30 394,30 394,40 " style="fill:#d8ac15; stroke-width:1; stroke:black; " description="&lt;b&gt;NKHAFMMO_01440&lt;/b&gt;&lt;br&gt;hypothetical protein&lt;br&gt;Location: 113353 - 114358" locus_tag="NKHAFMMO_01440" class="clusterblast-orf" id="dummy-1_q20_0_all"  />
<polygon points="410,40 475,40 480,35 475,30 410,30 410,40 " style="fill:#15d854; stroke-width:1; stroke:black; " description="&lt;b&gt;NKHAFMMO_01441&lt;/b&gt;&lt;br&gt;D-alanine--D-alanyl carrier protein ligase&lt;br&gt;Location: 114395 - 118943" locus_tag="NKHAFMMO_01441" class="clusterblast-orf" id="dummy-1_q21_0_all"  />
<polygon points="479,40 484,40 489,35 484,30 479,30 479,40 " style="fill:#152ed8; stroke-width:1; stroke:black; " description="&lt;b&gt;NKHAFMMO_01442&lt;/b&gt;&lt;br&gt;hypothetical protein&lt;br&gt;Location: 118893 - 119559" locus_tag="NKHAFMMO_01442" class="clusterblast-orf" id="dummy-1_q22_0_all"  />
<polygon points="490,40 501,40 506,35 501,30 490,30 490,40 " style="fill:#d81586; stroke-width:1; stroke:black; " description="&lt;b&gt;NKHAFMMO_01443&lt;/b&gt;&lt;br&gt;Cell division protein ZapE&lt;br&gt;Location: 119595 - 120678" locus_tag="NKHAFMMO_01443" class="clusterblast-orf" id="dummy-1_q23_0_all"  />
<polygon points="509,40 529,40 534,35 529,30 509,30 509,40 " style="fill:#d8d215; stroke-width:1; stroke:black; " description="&lt;b&gt;NKHAFMMO_01444&lt;/b&gt;&lt;br&gt;hypothetical protein&lt;br&gt;Location: 120897 - 122496" locus_tag="NKHAFMMO_01444" class="clusterblast-orf" id="dummy-1_q24_0_all"  />
<polygon points="534,35 539,30 544,30 544,40 539,40 534,35 " style="fill:#15d87a; stroke-width:1; stroke:black; " description="&lt;b&gt;NKHAFMMO_01445&lt;/b&gt;&lt;br&gt;Carbonic anhydrase 1&lt;br&gt;Location: 122496 - 123144" locus_tag="NKHAFMMO_01445" class="clusterblast-orf" id="dummy-1_q25_0_all"  />
<polygon points="546,40 547,40 552,35 547,30 546,30 546,40 " style="fill:#2215d8; stroke-width:1; stroke:black; " description="&lt;b&gt;NKHAFMMO_01446&lt;/b&gt;&lt;br&gt;hypothetical protein&lt;br&gt;Location: 123289 - 123673" locus_tag="NKHAFMMO_01446" class="clusterblast-orf" id="dummy-1_q26_0_all"  />
<polygon points="553,40 569,40 574,35 569,30 553,30 553,40 " style="fill:#d81561; stroke-width:1; stroke:black; " description="&lt;b&gt;NKHAFMMO_01447&lt;/b&gt;&lt;br&gt;cytosol aminopeptidase&lt;br&gt;Location: 123736 - 125113" locus_tag="NKHAFMMO_01447" class="clusterblast-orf" id="dummy-1_q27_0_all"  />
<polygon points="574,40 581,40 586,35 581,30 574,30 574,40 " style="fill:#b9d815; stroke-width:1; stroke:black; " description="&lt;b&gt;NKHAFMMO_01448&lt;/b&gt;&lt;br&gt;hypothetical protein&lt;br&gt;Location: 125112 - 125934" locus_tag="NKHAFMMO_01448" class="clusterblast-orf" id="dummy-1_q28_0_all"  />
<polygon points="588,35 593,30 593,30 593,40 593,40 588,35 " style="fill:#15d8a0; stroke-width:1; stroke:black; " description="&lt;b&gt;NKHAFMMO_01449&lt;/b&gt;&lt;br&gt;hypothetical protein&lt;br&gt;Location: 126017 - 126374" locus_tag="NKHAFMMO_01449" class="clusterblast-orf" id="dummy-1_q29_0_all"  />
<polygon points="597,35 602,30 612,30 612,40 602,40 597,35 " style="fill:#4815d8; stroke-width:1; stroke:black; " description="&lt;b&gt;NKHAFMMO_01450&lt;/b&gt;&lt;br&gt;hypothetical protein&lt;br&gt;Location: 126621 - 127617" locus_tag="NKHAFMMO_01450" class="clusterblast-orf" id="dummy-1_q30_0_all"  />
<polygon points="615,40 618,40 623,35 618,30 615,30 615,40 " style="fill:#d8153b; stroke-width:1; stroke:black; " description="&lt;b&gt;NKHAFMMO_01451&lt;/b&gt;&lt;br&gt;hypothetical protein&lt;br&gt;Location: 127785 - 128322" locus_tag="NKHAFMMO_01451" class="clusterblast-orf" id="dummy-1_q31_0_all"  />
<polygon points="625,40 638,40 643,35 638,30 625,30 625,40 " style="fill:#93d815; stroke-width:1; stroke:black; " description="&lt;b&gt;NKHAFMMO_01452&lt;/b&gt;&lt;br&gt;Dual-specificity RNA methyltransferase RlmN&lt;br&gt;Location: 128454 - 129651" locus_tag="NKHAFMMO_01452" class="clusterblast-orf" id="dummy-1_q32_0_all"  />
<polygon points="643,35 648,30 664,30 664,40 648,40 643,35 " style="fill:white; stroke-width:1; stroke:black; " description="&lt;b&gt;NKHAFMMO_01453&lt;/b&gt;&lt;br&gt;Putative cation/proton antiporter YbaL&lt;br&gt;Location: 129652 - 131008" locus_tag="NKHAFMMO_01453" class="clusterblast-orf" id="dummy-1_q33_0_all"  />
<polygon points="666,40 679,40 684,35 679,30 666,30 666,40 " style="fill:#15d8c5; stroke-width:1; stroke:black; " description="&lt;b&gt;NKHAFMMO_01454&lt;/b&gt;&lt;br&gt;hypothetical protein&lt;br&gt;Location: 131125 - 132343" locus_tag="NKHAFMMO_01454" class="clusterblast-orf" id="dummy-1_q34_0_all"  />
<polygon points="686,35 691,30 699,30 699,40 691,40 686,35 " style="fill:white; stroke-width:1; stroke:black; " description="&lt;b&gt;NKHAFMMO_01455&lt;/b&gt;&lt;br&gt;hypothetical protein&lt;br&gt;Location: 132460 - 133285" locus_tag="NKHAFMMO_01455" class="clusterblast-orf" id="dummy-1_q35_0_all"  />
<polygon points="700,40 708,40 713,35 708,30 700,30 700,40 " style="fill:white; stroke-width:1; stroke:black; " description="&lt;b&gt;NKHAFMMO_01456&lt;/b&gt;&lt;br&gt;2,3,4,5-tetrahydropyridine-2,6-dicarboxylate N-succinyltransferase&lt;br&gt;Location: 133375 - 134200" locus_tag="NKHAFMMO_01456" class="clusterblast-orf" id="dummy-1_q36_0_all"  />
<polygon points="714,40 716,40 721,35 716,30 714,30 714,40 " style="fill:white; stroke-width:1; stroke:black; " description="&lt;b&gt;NKHAFMMO_01457&lt;/b&gt;&lt;br&gt;HTH-type transcriptional repressor NicR&lt;br&gt;Location: 134312 - 134735" locus_tag="NKHAFMMO_01457" class="clusterblast-orf" id="dummy-1_q37_0_all"  />
<polygon points="722,35 727,30 731,30 731,40 727,40 722,35 " style="fill:white; stroke-width:1; stroke:black; " description="&lt;b&gt;NKHAFMMO_01458&lt;/b&gt;&lt;br&gt;hypothetical protein&lt;br&gt;Location: 134791 - 135412" locus_tag="NKHAFMMO_01458" class="clusterblast-orf" id="dummy-1_q38_0_all"  />
<polygon points="733,40 759,40 764,35 759,30 733,30 733,40 " style="fill:#6d15d8; stroke-width:1; stroke:black; " description="&lt;b&gt;NKHAFMMO_01459&lt;/b&gt;&lt;br&gt;putative N-methylproline demethylase&lt;br&gt;Location: 135558 - 137604" locus_tag="NKHAFMMO_01459" class="clusterblast-orf" id="dummy-1_q39_0_all"  />
<polygon points="766,40 769,40 774,35 769,30 766,30 766,40 " style="fill:white; stroke-width:1; stroke:black; " description="&lt;b&gt;NKHAFMMO_01460&lt;/b&gt;&lt;br&gt;hypothetical protein&lt;br&gt;Location: 137685 - 138210" locus_tag="NKHAFMMO_01460" class="clusterblast-orf" id="dummy-1_q40_0_all"  />
</g>
<g label="NZ_VKKX01000033" description="NZ_VKKX01000033 (377101-428527): Gemmobacter caeruleus strain N8 NODE 3, whol... (47% of genes show similarity), NRPS-like,T1PKS" class="clusterblast-cluster"  >
<text x="5" y="70" class="clusterblast-acc"  >
<a xlink:href="https://antismash-db.secondarymetabolites.org/area.html?record=NZ_VKKX01000033&amp;start=377101&amp;end=428527" target="_blank">NZ_VKKX01000033 (377101-428527)</a>: Gemmobacter caeruleus strain N8 NODE 3, whol... (47% of genes show similarity), NRPS-like,T1PKS</text>
<line x1="10" y1="85" x2="778.0" y2="85" style="stroke-width:1; stroke:grey; "  />
</g>
<g id="a1_000"  >
<polygon points="0,85 5,80 15,80 15,90 5,90 0,85 " style="fill:white; stroke-width:1; stroke:black; " description="&lt;b&gt;FOA17_RS12515&lt;/b&gt;&lt;br&gt;hypothetical protein&lt;br&gt;Location: 377418 - 378452" locus_tag="FOA17_RS12515" class="clusterblast-orf" id="dummy-1_h1_3_0"  />
</g>
<g id="a1_001"  >
<polygon points="17,90 25,90 30,85 25,80 17,80 17,90 " style="fill:white; stroke-width:1; stroke:black; " description="&lt;b&gt;FOA17_RS12520&lt;/b&gt;&lt;br&gt;phosphoserine phosphatase SerB&lt;br&gt;Location: 378568 - 379443" locus_tag="FOA17_RS12520" class="clusterblast-orf" id="dummy-1_h1_3_1"  />
</g>
<g id="a1_002"  >
<polygon points="30,90 33,90 38,85 33,80 30,80 30,90 " style="fill:white; stroke-width:1; stroke:black; " description="&lt;b&gt;FOA17_RS12525&lt;/b&gt;&lt;br&gt;GNAT family N-acetyltransferase&lt;br&gt;Location: 379440 - 379919" locus_tag="FOA17_RS12525" class="clusterblast-orf" id="dummy-1_h1_3_2"  />
</g>
<g id="a1_003"  >
<polygon points="38,90 44,90 49,85 44,80 38,80 38,90 " style="fill:white; stroke-width:1; stroke:black; " description="&lt;b&gt;FOA17_RS12530&lt;/b&gt;&lt;br&gt;TSUP family transporter&lt;br&gt;Location: 379919 - 380677" locus_tag="FOA17_RS12530" class="clusterblast-orf" id="dummy-1_h1_3_3"  />
</g>
<g id="a1_004"  >
<polygon points="50,90 59,90 64,85 59,80 50,80 50,90 " style="fill:white; stroke-width:1; stroke:black; " description="&lt;b&gt;FOA17_RS12535&lt;/b&gt;&lt;br&gt;hypothetical protein&lt;br&gt;Location: 380749 - 381666" locus_tag="FOA17_RS12535" class="clusterblast-orf" id="dummy-1_h1_3_4"  />
</g>
<g id="a1_005"  >
<polygon points="65,90 97,90 102,85 97,80 65,80 65,90 " style="fill:white; stroke-width:1; stroke:black; " description="&lt;b&gt;FOA17_RS12540&lt;/b&gt;&lt;br&gt;hypothetical protein&lt;br&gt;Location: 381679 - 384114" locus_tag="FOA17_RS12540" class="clusterblast-orf" id="dummy-1_h1_3_5"  />
</g>
<g id="a1_006"  >
<polygon points="102,90 109,90 114,85 109,80 102,80 102,90 " style="fill:white; stroke-width:1; stroke:black; " description="&lt;b&gt;FOA17_RS12545&lt;/b&gt;&lt;br&gt;glycosyltransferase&lt;br&gt;Location: 384108 - 384932" locus_tag="FOA17_RS12545" class="clusterblast-orf" id="dummy-1_h1_3_6"  />
</g>
<g id="a1_007"  >
<polygon points="116,85 121,80 127,80 127,90 121,90 116,85 " style="fill:white; stroke-width:1; stroke:black; " description="&lt;b&gt;FOA17_RS12550&lt;/b&gt;&lt;br&gt;hypothetical protein&lt;br&gt;Location: 385027 - 385803" locus_tag="FOA17_RS12550" class="clusterblast-orf" id="dummy-1_h1_3_7"  />
</g>
<g id="a1_008"  >
<polygon points="127,85 132,80 146,80 146,90 132,90 127,85 " style="fill:#48d815; stroke-width:1; stroke:black; " description="&lt;b&gt;FOA17_RS12555&lt;/b&gt;&lt;br&gt;glycosyltransferase&lt;br&gt;Location: 385803 - 386993&lt;br&gt;&lt;br&gt;&lt;b&gt;BlastP hit with NKHAFMMO_01429&lt;/b&gt;&lt;br&gt;Percentage identity: 71&lt;br&gt;Percentage coverage: 95&lt;br&gt;BLAST bit score: 541&lt;br&gt;E-value: 8.95e-192" locus_tag="FOA17_RS12555" class="clusterblast-orf" id="dummy-1_h1_3_8"  />
</g>
<g id="a1_009"  >
<polygon points="147,90 163,90 168,85 163,80 147,80 147,90 " style="fill:#15a0d8; stroke-width:1; stroke:black; " description="&lt;b&gt;FOA17_RS12560&lt;/b&gt;&lt;br&gt;oligosaccharide flippase family protein&lt;br&gt;Location: 387108 - 388442&lt;br&gt;&lt;br&gt;&lt;b&gt;BlastP hit with NKHAFMMO_01430&lt;/b&gt;&lt;br&gt;Percentage identity: 66&lt;br&gt;Percentage coverage: 98&lt;br&gt;BLAST bit score: 554&lt;br&gt;E-value: 1.84e-195" locus_tag="FOA17_RS12560" class="clusterblast-orf" id="dummy-1_h1_3_9"  />
</g>
<g id="a1_0010"  >
<polygon points="170,90 173,85 170,80 170,90 " style="fill:white; stroke-width:1; stroke:black; " description="&lt;b&gt;FOA17_RS12565&lt;/b&gt;&lt;br&gt;hypothetical protein&lt;br&gt;Location: 388580 - 388783" locus_tag="FOA17_RS12565" class="clusterblast-orf" id="dummy-1_h1_3_10"  />
</g>
<g id="a1_0011"  >
<polygon points="181,90 186,90 191,85 186,80 181,80 181,90 " style="fill:#d86115; stroke-width:1; stroke:black; " description="&lt;b&gt;FOA17_RS12570&lt;/b&gt;&lt;br&gt;sugar transferase&lt;br&gt;Location: 389298 - 389948&lt;br&gt;&lt;br&gt;&lt;b&gt;BlastP hit with NKHAFMMO_01432&lt;/b&gt;&lt;br&gt;Percentage identity: 77&lt;br&gt;Percentage coverage: 90&lt;br&gt;BLAST bit score: 328&lt;br&gt;E-value: 2.94e-113" locus_tag="FOA17_RS12570" class="clusterblast-orf" id="dummy-1_h1_3_11"  />
</g>
<g id="a1_0012"  >
<polygon points="192,85 197,80 211,80 211,90 197,90 192,85 " style="fill:#22d815; stroke-width:1; stroke:black; " description="&lt;b&gt;FOA17_RS12575&lt;/b&gt;&lt;br&gt;DUF874 domain-containing protein&lt;br&gt;Location: 390018 - 391289&lt;br&gt;&lt;br&gt;&lt;b&gt;BlastP hit with NKHAFMMO_01433&lt;/b&gt;&lt;br&gt;Percentage identity: 55&lt;br&gt;Percentage coverage: 95&lt;br&gt;BLAST bit score: 370&lt;br&gt;E-value: 6.42e-124" locus_tag="FOA17_RS12575" class="clusterblast-orf" id="dummy-1_h1_3_12"  />
</g>
<g id="a1_0013"  >
<polygon points="211,85 216,80 225,80 225,90 216,90 211,85 " style="fill:#157ad8; stroke-width:1; stroke:black; " description="&lt;b&gt;FOA17_RS12580&lt;/b&gt;&lt;br&gt;P-loop NTPase&lt;br&gt;Location: 391296 - 392177&lt;br&gt;&lt;br&gt;&lt;b&gt;BlastP hit with NKHAFMMO_01434&lt;/b&gt;&lt;br&gt;Percentage identity: 61&lt;br&gt;Percentage coverage: 94&lt;br&gt;BLAST bit score: 335&lt;br&gt;E-value: 1.14e-113" locus_tag="FOA17_RS12580" class="clusterblast-orf" id="dummy-1_h1_3_13"  />
</g>
<g id="a1_0014"  >
<polygon points="230,90 240,90 245,85 240,80 230,80 230,90 " style="fill:#d815d2; stroke-width:1; stroke:black; " description="&lt;b&gt;FOA17_RS12585&lt;/b&gt;&lt;br&gt;glycosyltransferase&lt;br&gt;Location: 392527 - 393483&lt;br&gt;&lt;br&gt;&lt;b&gt;BlastP hit with NKHAFMMO_01435&lt;/b&gt;&lt;br&gt;Percentage identity: 78&lt;br&gt;Percentage coverage: 95&lt;br&gt;BLAST bit score: 472&lt;br&gt;E-value: 4.36e-167" locus_tag="FOA17_RS12585" class="clusterblast-orf" id="dummy-1_h1_3_14"  />
</g>
<g id="a1_0015"  >
<polygon points="245,85 250,80 256,80 256,90 250,90 245,85 " style="fill:#d88615; stroke-width:1; stroke:black; " description="&lt;b&gt;FOA17_RS12590&lt;/b&gt;&lt;br&gt;WecB/TagA/CpsF family glycosyltransferase&lt;br&gt;Location: 393497 - 394246&lt;br&gt;&lt;br&gt;&lt;b&gt;BlastP hit with NKHAFMMO_01436&lt;/b&gt;&lt;br&gt;Percentage identity: 74&lt;br&gt;Percentage coverage: 100&lt;br&gt;BLAST bit score: 367&lt;br&gt;E-value: 7.96e-128" locus_tag="FOA17_RS12590" class="clusterblast-orf" id="dummy-1_h1_3_15"  />
</g>
<g id="a1_0016"  >
<polygon points="261,90 277,90 282,85 277,80 261,80 261,90 " style="fill:#1554d8; stroke-width:1; stroke:black; " description="&lt;b&gt;FOA17_RS12595&lt;/b&gt;&lt;br&gt;hypothetical protein&lt;br&gt;Location: 394527 - 395909&lt;br&gt;&lt;br&gt;&lt;b&gt;BlastP hit with NKHAFMMO_01438&lt;/b&gt;&lt;br&gt;Percentage identity: 65&lt;br&gt;Percentage coverage: 96&lt;br&gt;BLAST bit score: 546&lt;br&gt;E-value: 5.76e-192" locus_tag="FOA17_RS12595" class="clusterblast-orf" id="dummy-1_h1_3_16"  />
</g>
<g id="a1_0017"  >
<polygon points="282,90 292,90 297,85 292,80 282,80 282,90 " style="fill:white; stroke-width:1; stroke:black; " description="&lt;b&gt;FOA17_RS12600&lt;/b&gt;&lt;br&gt;glycosyltransferase&lt;br&gt;Location: 395919 - 396908" locus_tag="FOA17_RS12600" class="clusterblast-orf" id="dummy-1_h1_3_17"  />
</g>
<g id="a1_0018"  >
<polygon points="300,90 392,90 397,85 392,80 300,80 300,90 " style="fill:#d815ac; stroke-width:1; stroke:black; " description="&lt;b&gt;FOA17_RS12605&lt;/b&gt;&lt;br&gt;KR domain-containing protein&lt;br&gt;Location: 397102 - 403491&lt;br&gt;&lt;br&gt;&lt;b&gt;BlastP hit with NKHAFMMO_01439&lt;/b&gt;&lt;br&gt;Percentage identity: 81&lt;br&gt;Percentage coverage: 100&lt;br&gt;BLAST bit score: 3433&lt;br&gt;E-value: 0.0" locus_tag="FOA17_RS12605" class="clusterblast-orf" id="dummy-1_h1_3_18"  />
</g>
<g id="a1_0019"  >
<polygon points="397,90 408,90 413,85 408,80 397,80 397,90 " style="fill:#d8ac15; stroke-width:1; stroke:black; " description="&lt;b&gt;FOA17_RS12610&lt;/b&gt;&lt;br&gt;glycosyltransferase&lt;br&gt;Location: 403488 - 404492&lt;br&gt;&lt;br&gt;&lt;b&gt;BlastP hit with NKHAFMMO_01440&lt;/b&gt;&lt;br&gt;Percentage identity: 81&lt;br&gt;Percentage coverage: 97&lt;br&gt;BLAST bit score: 524&lt;br&gt;E-value: 3.65e-187" locus_tag="FOA17_RS12610" class="clusterblast-orf" id="dummy-1_h1_3_19"  />
</g>
<g id="a1_0020"  >
<polygon points="413,90 477,90 482,85 477,80 413,80 413,90 " style="fill:#15d854; stroke-width:1; stroke:black; " description="&lt;b&gt;FOA17_RS12615&lt;/b&gt;&lt;br&gt;LLM class flavin-dependent oxidoreductase&lt;br&gt;Location: 404529 - 409043&lt;br&gt;&lt;br&gt;&lt;b&gt;BlastP hit with NKHAFMMO_01441&lt;/b&gt;&lt;br&gt;Percentage identity: 82&lt;br&gt;Percentage coverage: 100&lt;br&gt;BLAST bit score: 2403&lt;br&gt;E-value: 0.0" locus_tag="FOA17_RS12615" class="clusterblast-orf" id="dummy-1_h1_3_20"  />
</g>
<g id="a1_0021"  >
<polygon points="482,90 487,90 492,85 487,80 482,80 482,90 " style="fill:#152ed8; stroke-width:1; stroke:black; " description="&lt;b&gt;FOA17_RS12620&lt;/b&gt;&lt;br&gt;4'-phosphopantetheinyl transferase superfamily protein&lt;br&gt;Location: 409036 - 409662&lt;br&gt;&lt;br&gt;&lt;b&gt;BlastP hit with NKHAFMMO_01442&lt;/b&gt;&lt;br&gt;Percentage identity: 62&lt;br&gt;Percentage coverage: 94&lt;br&gt;BLAST bit score: 240&lt;br&gt;E-value: 5.07e-79" locus_tag="FOA17_RS12620" class="clusterblast-orf" id="dummy-1_h1_3_21"  />
</g>
<g id="a1_0022"  >
<polygon points="492,90 504,90 509,85 504,80 492,80 492,90 " style="fill:#d81586; stroke-width:1; stroke:black; " description="&lt;b&gt;FOA17_RS12625&lt;/b&gt;&lt;br&gt;cell division protein ZapE&lt;br&gt;Location: 409699 - 410778&lt;br&gt;&lt;br&gt;&lt;b&gt;BlastP hit with NKHAFMMO_01443&lt;/b&gt;&lt;br&gt;Percentage identity: 85&lt;br&gt;Percentage coverage: 100&lt;br&gt;BLAST bit score: 611&lt;br&gt;E-value: 6.87e-221" locus_tag="FOA17_RS12625" class="clusterblast-orf" id="dummy-1_h1_3_22"  />
</g>
<g id="a1_0023"  >
<polygon points="510,90 529,90 534,85 529,80 510,80 510,90 " style="fill:#d8d215; stroke-width:1; stroke:black; " description="&lt;b&gt;FOA17_RS12630&lt;/b&gt;&lt;br&gt;mucoidy inhibitor MuiA family protein&lt;br&gt;Location: 410838 - 412448&lt;br&gt;&lt;br&gt;&lt;b&gt;BlastP hit with NKHAFMMO_01444&lt;/b&gt;&lt;br&gt;Percentage identity: 58&lt;br&gt;Percentage coverage: 101&lt;br&gt;BLAST bit score: 578&lt;br&gt;E-value: 2.42e-202" locus_tag="FOA17_RS12630" class="clusterblast-orf" id="dummy-1_h1_3_23"  />
</g>
<g id="a1_0024"  >
<polygon points="534,85 539,80 544,80 544,90 539,90 534,85 " style="fill:#15d87a; stroke-width:1; stroke:black; " description="&lt;b&gt;FOA17_RS12635&lt;/b&gt;&lt;br&gt;carbonic anhydrase&lt;br&gt;Location: 412458 - 413105&lt;br&gt;&lt;br&gt;&lt;b&gt;BlastP hit with NKHAFMMO_01445&lt;/b&gt;&lt;br&gt;Percentage identity: 87&lt;br&gt;Percentage coverage: 100&lt;br&gt;BLAST bit score: 405&lt;br&gt;E-value: 2.51e-144" locus_tag="FOA17_RS12635" class="clusterblast-orf" id="dummy-1_h1_3_24"  />
</g>
<g id="a1_0025"  >
<polygon points="546,90 547,90 552,85 547,80 546,80 546,90 " style="fill:#2215d8; stroke-width:1; stroke:black; " description="&lt;b&gt;FOA17_RS12640&lt;/b&gt;&lt;br&gt;hypothetical protein&lt;br&gt;Location: 413245 - 413625&lt;br&gt;&lt;br&gt;&lt;b&gt;BlastP hit with NKHAFMMO_01446&lt;/b&gt;&lt;br&gt;Percentage identity: 76&lt;br&gt;Percentage coverage: 98&lt;br&gt;BLAST bit score: 189&lt;br&gt;E-value: 1.55e-61" locus_tag="FOA17_RS12640" class="clusterblast-orf" id="dummy-1_h1_3_25"  />
</g>
<g id="a1_0026"  >
<polygon points="553,90 569,90 574,85 569,80 553,80 553,90 " style="fill:#d81561; stroke-width:1; stroke:black; " description="&lt;b&gt;FOA17_RS12645&lt;/b&gt;&lt;br&gt;leucyl aminopeptidase family protein&lt;br&gt;Location: 413682 - 415058&lt;br&gt;&lt;br&gt;&lt;b&gt;BlastP hit with NKHAFMMO_01447&lt;/b&gt;&lt;br&gt;Percentage identity: 82&lt;br&gt;Percentage coverage: 100&lt;br&gt;BLAST bit score: 739&lt;br&gt;E-value: 5.12e-268" locus_tag="FOA17_RS12645" class="clusterblast-orf" id="dummy-1_h1_3_26"  />
</g>
<g id="a1_0027"  >
<polygon points="574,90 582,90 587,85 582,80 574,80 574,90 " style="fill:#b9d815; stroke-width:1; stroke:black; " description="&lt;b&gt;FOA17_RS12650&lt;/b&gt;&lt;br&gt;NlpC/P60 family protein&lt;br&gt;Location: 415061 - 415885&lt;br&gt;&lt;br&gt;&lt;b&gt;BlastP hit with NKHAFMMO_01448&lt;/b&gt;&lt;br&gt;Percentage identity: 76&lt;br&gt;Percentage coverage: 100&lt;br&gt;BLAST bit score: 414&lt;br&gt;E-value: 6.58e-146" locus_tag="FOA17_RS12650" class="clusterblast-orf" id="dummy-1_h1_3_27"  />
</g>
<g id="a1_0028"  >
<polygon points="588,90 594,90 599,85 594,80 588,80 588,90 " style="fill:white; stroke-width:1; stroke:black; " description="&lt;b&gt;FOA17_RS12655&lt;/b&gt;&lt;br&gt;NAD(P)-binding domain-containing protein&lt;br&gt;Location: 415960 - 416721" locus_tag="FOA17_RS12655" class="clusterblast-orf" id="dummy-1_h1_3_28"  />
</g>
<g id="a1_0029"  >
<polygon points="600,85 605,80 652,80 652,90 605,90 600,85 " style="fill:white; stroke-width:1; stroke:black; " description="&lt;b&gt;FOA17_RS12660&lt;/b&gt;&lt;br&gt;bifunctional proline dehydrogenase/L-glutamate gamma-semialdehyde dehydrogenase PutA&lt;br&gt;Location: 416740 - 420144" locus_tag="FOA17_RS12660" class="clusterblast-orf" id="dummy-1_h1_3_29"  />
</g>
<g id="a1_0030"  >
<polygon points="653,90 655,90 660,85 655,80 653,80 653,90 " style="fill:white; stroke-width:1; stroke:black; " description="&lt;b&gt;FOA17_RS12665&lt;/b&gt;&lt;br&gt;winged helix-turn-helix transcriptional regulator&lt;br&gt;Location: 420255 - 420719" locus_tag="FOA17_RS12665" class="clusterblast-orf" id="dummy-1_h1_3_30"  />
</g>
<g id="a1_0031"  >
<polygon points="662,90 669,90 674,85 669,80 662,80 662,90 " style="fill:white; stroke-width:1; stroke:black; " description="&lt;b&gt;FOA17_RS12670&lt;/b&gt;&lt;br&gt;trehalose utilization protein ThuA&lt;br&gt;Location: 420839 - 421624" locus_tag="FOA17_RS12670" class="clusterblast-orf" id="dummy-1_h1_3_31"  />
</g>
<g id="a1_0032"  >
<polygon points="674,90 685,90 690,85 685,80 674,80 674,90 " style="fill:white; stroke-width:1; stroke:black; " description="&lt;b&gt;FOA17_RS12675&lt;/b&gt;&lt;br&gt;Gfo/Idh/MocA family oxidoreductase&lt;br&gt;Location: 421627 - 422673" locus_tag="FOA17_RS12675" class="clusterblast-orf" id="dummy-1_h1_3_32"  />
</g>
<g id="a1_0033"  >
<polygon points="690,90 703,90 708,85 703,80 690,80 690,90 " style="fill:white; stroke-width:1; stroke:black; " description="&lt;b&gt;FOA17_RS12680&lt;/b&gt;&lt;br&gt;Gfo/Idh/MocA family oxidoreductase&lt;br&gt;Location: 422687 - 423835" locus_tag="FOA17_RS12680" class="clusterblast-orf" id="dummy-1_h1_3_33"  />
</g>
<g id="a1_0034"  >
<polygon points="708,85 713,80 719,80 719,90 713,90 708,85 " style="fill:white; stroke-width:1; stroke:black; " description="&lt;b&gt;FOA17_RS12685&lt;/b&gt;&lt;br&gt;RES domain-containing protein&lt;br&gt;Location: 423844 - 424536" locus_tag="FOA17_RS12685" class="clusterblast-orf" id="dummy-1_h1_3_34"  />
</g>
<g id="a1_0035"  >
<polygon points="719,85 724,80 724,80 724,90 724,90 719,85 " style="fill:white; stroke-width:1; stroke:black; " description="&lt;b&gt;FOA17_RS12690&lt;/b&gt;&lt;br&gt;DUF2384 domain-containing protein&lt;br&gt;Location: 424533 - 424922" locus_tag="FOA17_RS12690" class="clusterblast-orf" id="dummy-1_h1_3_35"  />
</g>
<g id="a1_0036"  >
<polygon points="725,85 730,80 766,80 766,90 730,90 725,85 " style="fill:white; stroke-width:1; stroke:black; " description="&lt;b&gt;FOA17_RS12695&lt;/b&gt;&lt;br&gt;calcium-binding protein&lt;br&gt;Location: 424984 - 427650" locus_tag="FOA17_RS12695" class="clusterblast-orf" id="dummy-1_h1_3_36"  />
</g>
<g id="a1_0037"  >
<polygon points="768,85 773,80 780,80 780,90 773,90 768,85 " style="fill:white; stroke-width:1; stroke:black; " description="&lt;b&gt;FOA17_RS12700&lt;/b&gt;&lt;br&gt;helix-turn-helix domain-containing protein&lt;br&gt;Location: 427742 - 428527" locus_tag="FOA17_RS12700" class="clusterblast-orf" id="dummy-1_h1_3_37"  />
</g>
</svg>
