<svg xmlns="http://www.w3.org/2000/svg" xmlns:xlink="http://www.w3.org/1999/xlink" version="1.1" x="0" y="0" height="230" width="800" viewBox="0 0 800 230" preserveAspectRatio="none"  >
<g label="Query sequence" class="clusterblast-cluster"  >
<text x="5" y="20" class="clusterblast-acc"  >
Query sequence</text>
<line x1="10" y1="35" x2="778.0" y2="35" style="stroke-width:1; stroke:grey; "  />
<polygon points="0,35 5,30 19,30 19,40 5,40 0,35 " style="fill:#d81515; stroke-width:1; stroke:black; " description="&lt;b&gt;PHGFGAAC_00853&lt;/b&gt;&lt;br&gt;putative ABC transporter ATP-binding protein&lt;br&gt;Location: 3478 - 4204" locus_tag="PHGFGAAC_00853" class="clusterblast-orf" id="dummy-1_q0_0_all"  />
<polygon points="20,35 25,30 83,30 83,40 25,40 20,35 " style="fill:#77d815; stroke-width:1; stroke:black; " description="&lt;b&gt;PHGFGAAC_00854&lt;/b&gt;&lt;br&gt;Copper-transporting P-type ATPase&lt;br&gt;Location: 4252 - 6679" locus_tag="PHGFGAAC_00854" class="clusterblast-orf" id="dummy-1_q1_0_all"  />
<polygon points="87,40 87,40 92,35 87,30 87,30 87,40 " style="fill:#15d8d8; stroke-width:1; stroke:black; " description="&lt;b&gt;PHGFGAAC_00855&lt;/b&gt;&lt;br&gt;hypothetical protein&lt;br&gt;Location: 6818 - 7022" locus_tag="PHGFGAAC_00855" class="clusterblast-orf" id="dummy-1_q2_0_all"  />
<polygon points="94,40 105,40 110,35 105,30 94,30 94,40 " style="fill:#7715d8; stroke-width:1; stroke:black; " description="&lt;b&gt;PHGFGAAC_00856&lt;/b&gt;&lt;br&gt;hypothetical protein&lt;br&gt;Location: 7100 - 7697" locus_tag="PHGFGAAC_00856" class="clusterblast-orf" id="dummy-1_q3_0_all"  />
<polygon points="110,40 133,40 138,35 133,30 110,30 110,40 " style="fill:#d84615; stroke-width:1; stroke:black; " description="&lt;b&gt;PHGFGAAC_00857&lt;/b&gt;&lt;br&gt;tRNA 2-selenouridine synthase&lt;br&gt;Location: 7702 - 8809" locus_tag="PHGFGAAC_00857" class="clusterblast-orf" id="dummy-1_q4_0_all"  />
<polygon points="138,35 143,30 183,30 183,40 143,40 138,35 " style="fill:#46d815; stroke-width:1; stroke:black; " description="&lt;b&gt;PHGFGAAC_00858&lt;/b&gt;&lt;br&gt;Methionine--tRNA ligase&lt;br&gt;Location: 8805 - 10536" locus_tag="PHGFGAAC_00858" class="clusterblast-orf" id="dummy-1_q5_0_all"  />
<polygon points="191,40 233,40 238,35 233,30 191,30 191,40 " style="fill:#15a7d8; stroke-width:1; stroke:black; " description="&lt;b&gt;PHGFGAAC_00860&lt;/b&gt;&lt;br&gt;Putative multidrug export ATP-binding/permease protein&lt;br&gt;Location: 10838 - 12629" locus_tag="PHGFGAAC_00860" class="clusterblast-orf" id="dummy-1_q6_0_all"  />
<polygon points="240,40 247,40 252,35 247,30 240,30 240,40 " style="fill:#a715d8; stroke-width:1; stroke:black; " description="&lt;b&gt;PHGFGAAC_00861&lt;/b&gt;&lt;br&gt;Potassium binding protein Kbp&lt;br&gt;Location: 12729 - 13176" locus_tag="PHGFGAAC_00861" class="clusterblast-orf" id="dummy-1_q7_0_all"  />
<polygon points="256,40 300,40 305,35 300,30 256,30 256,40 " style="fill:#d87715; stroke-width:1; stroke:black; " description="&lt;b&gt;PHGFGAAC_00862&lt;/b&gt;&lt;br&gt;Long-chain-fatty-acid--CoA ligase&lt;br&gt;Location: 13308 - 15198" locus_tag="PHGFGAAC_00862" class="clusterblast-orf" id="dummy-1_q8_0_all"  />
<polygon points="306,40 315,40 320,35 315,30 306,30 306,40 " style="fill:#15d815; stroke-width:1; stroke:black; " description="&lt;b&gt;PHGFGAAC_00863&lt;/b&gt;&lt;br&gt;hypothetical protein&lt;br&gt;Location: 15262 - 15802" locus_tag="PHGFGAAC_00863" class="clusterblast-orf" id="dummy-1_q9_0_all"  />
<polygon points="324,35 329,30 349,30 349,40 329,40 324,35 " style="fill:#1577d8; stroke-width:1; stroke:black; " description="&lt;b&gt;PHGFGAAC_00865&lt;/b&gt;&lt;br&gt;Glyoxylate/hydroxypyruvate reductase A&lt;br&gt;Location: 15957 - 16893" locus_tag="PHGFGAAC_00865" class="clusterblast-orf" id="dummy-1_q10_0_all"  />
<polygon points="349,35 354,30 379,30 379,40 354,40 349,35 " style="fill:#d815d8; stroke-width:1; stroke:black; " description="&lt;b&gt;PHGFGAAC_00866&lt;/b&gt;&lt;br&gt;Peptidoglycan glycosyltransferase MrdB&lt;br&gt;Location: 16894 - 18034" locus_tag="PHGFGAAC_00866" class="clusterblast-orf" id="dummy-1_q11_0_all"  />
<polygon points="378,35 383,30 429,30 429,40 383,40 378,35 " style="fill:#d8a715; stroke-width:1; stroke:black; " description="&lt;b&gt;PHGFGAAC_00867&lt;/b&gt;&lt;br&gt;Peptidoglycan D,D-transpeptidase MrdA&lt;br&gt;Location: 18030 - 19983" locus_tag="PHGFGAAC_00867" class="clusterblast-orf" id="dummy-1_q12_0_all"  />
<polygon points="429,35 434,30 443,30 443,40 434,40 429,35 " style="fill:#15d846; stroke-width:1; stroke:black; " description="&lt;b&gt;PHGFGAAC_00868&lt;/b&gt;&lt;br&gt;hypothetical protein&lt;br&gt;Location: 19979 - 20519" locus_tag="PHGFGAAC_00868" class="clusterblast-orf" id="dummy-1_q13_0_all"  />
<polygon points="443,35 448,30 467,30 467,40 448,40 443,35 " style="fill:#1546d8; stroke-width:1; stroke:black; " description="&lt;b&gt;PHGFGAAC_00869&lt;/b&gt;&lt;br&gt;hypothetical protein&lt;br&gt;Location: 20511 - 21420" locus_tag="PHGFGAAC_00869" class="clusterblast-orf" id="dummy-1_q14_0_all"  />
<polygon points="468,35 473,30 495,30 495,40 473,40 468,35 " style="fill:#d815a7; stroke-width:1; stroke:black; " description="&lt;b&gt;PHGFGAAC_00870&lt;/b&gt;&lt;br&gt;Cell shape-determining protein MreB&lt;br&gt;Location: 21468 - 22506" locus_tag="PHGFGAAC_00870" class="clusterblast-orf" id="dummy-1_q15_0_all"  />
<polygon points="499,35 504,30 540,30 540,40 504,40 499,35 " style="fill:#d8d815; stroke-width:1; stroke:black; " description="&lt;b&gt;PHGFGAAC_00871&lt;/b&gt;&lt;br&gt;2-isopropylmalate synthase&lt;br&gt;Location: 22657 - 24223" locus_tag="PHGFGAAC_00871" class="clusterblast-orf" id="dummy-1_q16_0_all"  />
<polygon points="546,40 558,40 563,35 558,30 546,30 546,40 " style="fill:#15d877; stroke-width:1; stroke:black; " description="&lt;b&gt;PHGFGAAC_00872&lt;/b&gt;&lt;br&gt;hypothetical protein&lt;br&gt;Location: 24476 - 25121" locus_tag="PHGFGAAC_00872" class="clusterblast-orf" id="dummy-1_q17_0_all"  />
<polygon points="563,40 598,40 603,35 598,30 563,30 563,40 " style="fill:#1515d8; stroke-width:1; stroke:black; " description="&lt;b&gt;PHGFGAAC_00873&lt;/b&gt;&lt;br&gt;(6-4) photolyase&lt;br&gt;Location: 25117 - 26641" locus_tag="PHGFGAAC_00873" class="clusterblast-orf" id="dummy-1_q18_0_all"  />
<polygon points="603,35 608,30 640,30 640,40 608,40 603,35 " style="fill:#d81577; stroke-width:1; stroke:black; " description="&lt;b&gt;PHGFGAAC_00874&lt;/b&gt;&lt;br&gt;hypothetical protein&lt;br&gt;Location: 26645 - 28085" locus_tag="PHGFGAAC_00874" class="clusterblast-orf" id="dummy-1_q19_0_all"  />
<polygon points="644,40 682,40 687,35 682,30 644,30 644,40 " style="fill:#a7d815; stroke-width:1; stroke:black; " description="&lt;b&gt;PHGFGAAC_00875&lt;/b&gt;&lt;br&gt;Glutamine-dependent NAD(+) synthetase&lt;br&gt;Location: 28226 - 29885" locus_tag="PHGFGAAC_00875" class="clusterblast-orf" id="dummy-1_q20_0_all"  />
<polygon points="700,35 705,30 729,30 729,40 705,40 700,35 " style="fill:#15d8a7; stroke-width:1; stroke:black; " description="&lt;b&gt;PHGFGAAC_00877&lt;/b&gt;&lt;br&gt;hypothetical protein&lt;br&gt;Location: 30378 - 31491" locus_tag="PHGFGAAC_00877" class="clusterblast-orf" id="dummy-1_q21_0_all"  />
<polygon points="731,40 750,40 755,35 750,30 731,30 731,40 " style="fill:#4615d8; stroke-width:1; stroke:black; " description="&lt;b&gt;PHGFGAAC_00878&lt;/b&gt;&lt;br&gt;hypothetical protein&lt;br&gt;Location: 31597 - 32485" locus_tag="PHGFGAAC_00878" class="clusterblast-orf" id="dummy-1_q22_0_all"  />
<polygon points="759,40 775,40 780,35 775,30 759,30 759,40 " style="fill:#d81546; stroke-width:1; stroke:black; " description="&lt;b&gt;PHGFGAAC_00879&lt;/b&gt;&lt;br&gt;hypothetical protein&lt;br&gt;Location: 32661 - 33453" locus_tag="PHGFGAAC_00879" class="clusterblast-orf" id="dummy-1_q23_0_all"  />
</g>
<g label="NZ_KN293975" description="NZ_KN293975 (172076-197357): Roseovarius mucosus DSM 17069 Rosmu scaffold1, w... (30% of genes show similarity), betalactone" class="clusterblast-cluster"  >
<text x="5" y="70" class="clusterblast-acc"  >
<a xlink:href="https://antismash-db.secondarymetabolites.org/area.html?record=NZ_KN293975&amp;start=172076&amp;end=197357" target="_blank">NZ_KN293975 (172076-197357)</a>: Roseovarius mucosus DSM 17069 Rosmu scaffold1, w... (30% of genes show similarity), betalactone</text>
<line x1="10" y1="85" x2="778.0" y2="85" style="stroke-width:1; stroke:grey; "  />
</g>
<g id="a1_000"  >
<polygon points="76,90 114,90 119,85 114,80 76,80 76,90 " style="fill:white; stroke-width:1; stroke:black; " description="&lt;b&gt;ROSMUC_RS00855&lt;/b&gt;&lt;br&gt;long-chain-fatty-acid--CoA ligase&lt;br&gt;Location: 172502 - 174130" locus_tag="ROSMUC_RS00855" class="clusterblast-orf" id="dummy-1_h1_10_0"  />
</g>
<g id="a1_001"  >
<polygon points="121,90 153,90 158,85 153,80 121,80 121,90 " style="fill:white; stroke-width:1; stroke:black; " description="&lt;b&gt;ROSMUC_RS00860&lt;/b&gt;&lt;br&gt;bifunctional enoyl-CoA hydratase/phosphate acetyltransferase&lt;br&gt;Location: 174229 - 175617" locus_tag="ROSMUC_RS00860" class="clusterblast-orf" id="dummy-1_h1_10_1"  />
</g>
<g id="a1_002"  >
<polygon points="158,85 163,80 209,80 209,90 163,90 158,85 " style="fill:white; stroke-width:1; stroke:black; " description="&lt;b&gt;ROSMUC_RS00865&lt;/b&gt;&lt;br&gt;Cache 3/Cache 2 fusion domain-containing protein&lt;br&gt;Location: 175622 - 177586" locus_tag="ROSMUC_RS00865" class="clusterblast-orf" id="dummy-1_h1_10_2"  />
</g>
<g id="a1_003"  >
<polygon points="211,85 216,80 237,80 237,90 216,90 211,85 " style="fill:white; stroke-width:1; stroke:black; " description="&lt;b&gt;ROSMUC_RS00870&lt;/b&gt;&lt;br&gt;Fe(3+) ABC transporter substrate-binding protein&lt;br&gt;Location: 177674 - 178690" locus_tag="ROSMUC_RS00870" class="clusterblast-orf" id="dummy-1_h1_10_3"  />
</g>
<g id="a1_004"  >
<polygon points="240,85 245,80 261,80 261,90 245,90 240,85 " style="fill:white; stroke-width:1; stroke:black; " description="&lt;b&gt;ROSMUC_RS00875&lt;/b&gt;&lt;br&gt;metal ABC transporter permease&lt;br&gt;Location: 178778 - 179587" locus_tag="ROSMUC_RS00875" class="clusterblast-orf" id="dummy-1_h1_10_4"  />
</g>
<g id="a1_005"  >
<polygon points="261,85 266,80 281,80 281,90 266,90 261,85 " style="fill:white; stroke-width:1; stroke:black; " description="&lt;b&gt;ROSMUC_RS00880&lt;/b&gt;&lt;br&gt;metal ABC transporter ATP-binding protein&lt;br&gt;Location: 179587 - 180354" locus_tag="ROSMUC_RS00880" class="clusterblast-orf" id="dummy-1_h1_10_5"  />
</g>
<g id="a1_006"  >
<polygon points="281,85 286,80 293,80 293,90 286,90 281,85 " style="fill:white; stroke-width:1; stroke:black; " description="&lt;b&gt;ROSMUC_RS00885&lt;/b&gt;&lt;br&gt;transcriptional repressor&lt;br&gt;Location: 180345 - 180833" locus_tag="ROSMUC_RS00885" class="clusterblast-orf" id="dummy-1_h1_10_6"  />
</g>
<g id="a1_007"  >
<polygon points="295,90 317,90 322,85 317,80 295,80 295,90 " style="fill:white; stroke-width:1; stroke:black; " description="&lt;b&gt;ROSMUC_RS00890&lt;/b&gt;&lt;br&gt;zinc ABC transporter substrate-binding protein&lt;br&gt;Location: 180918 - 181943" locus_tag="ROSMUC_RS00890" class="clusterblast-orf" id="dummy-1_h1_10_7"  />
</g>
<g id="a1_008"  >
<polygon points="326,90 370,90 375,85 370,80 326,80 326,90 " style="fill:#d87715; stroke-width:1; stroke:black; " description="&lt;b&gt;ROSMUC_RS00895&lt;/b&gt;&lt;br&gt;acyl-CoA synthetase&lt;br&gt;Location: 182077 - 183960&lt;br&gt;&lt;br&gt;&lt;b&gt;BlastP hit with PHGFGAAC_00862&lt;/b&gt;&lt;br&gt;Percentage identity: 68&lt;br&gt;Percentage coverage: 100&lt;br&gt;BLAST bit score: 888&lt;br&gt;E-value: 0.0" locus_tag="ROSMUC_RS00895" class="clusterblast-orf" id="dummy-1_h1_10_8"  />
</g>
<g id="a1_009"  >
<polygon points="375,85 380,80 390,80 390,90 380,90 375,85 " style="fill:white; stroke-width:1; stroke:black; " description="&lt;b&gt;ROSMUC_RS00900&lt;/b&gt;&lt;br&gt;TetR/AcrR family transcriptional regulator&lt;br&gt;Location: 183986 - 184570" locus_tag="ROSMUC_RS00900" class="clusterblast-orf" id="dummy-1_h1_10_9"  />
</g>
<g id="a1_0010"  >
<polygon points="392,90 402,90 407,85 402,80 392,80 392,90 " style="fill:white; stroke-width:1; stroke:black; " description="&lt;b&gt;ROSMUC_RS00905&lt;/b&gt;&lt;br&gt;NAD(P)H-dependent oxidoreductase&lt;br&gt;Location: 184638 - 185219" locus_tag="ROSMUC_RS00905" class="clusterblast-orf" id="dummy-1_h1_10_10"  />
</g>
<g id="a1_0011"  >
<polygon points="410,90 416,90 421,85 416,80 410,80 410,90 " style="fill:white; stroke-width:1; stroke:black; " description="&lt;b&gt;ROSMUC_RS00910&lt;/b&gt;&lt;br&gt;DUF1772 domain-containing protein&lt;br&gt;Location: 185302 - 185742" locus_tag="ROSMUC_RS00910" class="clusterblast-orf" id="dummy-1_h1_10_11"  />
</g>
<g id="a1_0012"  >
<polygon points="422,85 427,80 463,80 463,90 427,90 422,85 " style="fill:#d8d815; stroke-width:1; stroke:black; " description="&lt;b&gt;ROSMUC_RS00915&lt;/b&gt;&lt;br&gt;2-isopropylmalate synthase&lt;br&gt;Location: 185792 - 187357&lt;br&gt;&lt;br&gt;&lt;b&gt;BlastP hit with PHGFGAAC_00871&lt;/b&gt;&lt;br&gt;Percentage identity: 79&lt;br&gt;Percentage coverage: 99&lt;br&gt;BLAST bit score: 807&lt;br&gt;E-value: 7.18e-293" locus_tag="ROSMUC_RS00915" class="clusterblast-orf" id="dummy-1_h1_10_12"  />
</g>
<g id="a1_0013"  >
<polygon points="470,90 482,90 487,85 482,80 470,80 470,90 " style="fill:#15d877; stroke-width:1; stroke:black; " description="&lt;b&gt;ROSMUC_RS00920&lt;/b&gt;&lt;br&gt;SDR family NAD(P)-dependent oxidoreductase&lt;br&gt;Location: 187619 - 188284&lt;br&gt;&lt;br&gt;&lt;b&gt;BlastP hit with PHGFGAAC_00872&lt;/b&gt;&lt;br&gt;Percentage identity: 59&lt;br&gt;Percentage coverage: 102&lt;br&gt;BLAST bit score: 238&lt;br&gt;E-value: 4.88e-78" locus_tag="ROSMUC_RS00920" class="clusterblast-orf" id="dummy-1_h1_10_13"  />
</g>
<g id="a1_0014"  >
<polygon points="487,90 522,90 527,85 522,80 487,80 487,90 " style="fill:#1515d8; stroke-width:1; stroke:black; " description="&lt;b&gt;ROSMUC_RS00925&lt;/b&gt;&lt;br&gt;cryptochrome/photolyase family protein&lt;br&gt;Location: 188278 - 189807&lt;br&gt;&lt;br&gt;&lt;b&gt;BlastP hit with PHGFGAAC_00873&lt;/b&gt;&lt;br&gt;Percentage identity: 62&lt;br&gt;Percentage coverage: 100&lt;br&gt;BLAST bit score: 648&lt;br&gt;E-value: 1.74e-230" locus_tag="ROSMUC_RS00925" class="clusterblast-orf" id="dummy-1_h1_10_14"  />
</g>
<g id="a1_0015"  >
<polygon points="527,85 532,80 564,80 564,90 532,90 527,85 " style="fill:#d81577; stroke-width:1; stroke:black; " description="&lt;b&gt;ROSMUC_RS00930&lt;/b&gt;&lt;br&gt;2-isopropylmalate synthase&lt;br&gt;Location: 189808 - 191220&lt;br&gt;&lt;br&gt;&lt;b&gt;BlastP hit with PHGFGAAC_00874&lt;/b&gt;&lt;br&gt;Percentage identity: 57&lt;br&gt;Percentage coverage: 11&lt;br&gt;BLAST bit score: 54&lt;br&gt;E-value: 8.79e-06" locus_tag="ROSMUC_RS00930" class="clusterblast-orf" id="dummy-1_h1_10_15"  />
</g>
<g id="a1_0016"  >
<polygon points="568,90 606,90 611,85 606,80 568,80 568,90 " style="fill:#a7d815; stroke-width:1; stroke:black; " description="&lt;b&gt;ROSMUC_RS00935&lt;/b&gt;&lt;br&gt;NAD+ synthase&lt;br&gt;Location: 191374 - 193041&lt;br&gt;&lt;br&gt;&lt;b&gt;BlastP hit with PHGFGAAC_00875&lt;/b&gt;&lt;br&gt;Percentage identity: 70&lt;br&gt;Percentage coverage: 100&lt;br&gt;BLAST bit score: 768&lt;br&gt;E-value: 2.76e-276" locus_tag="ROSMUC_RS00935" class="clusterblast-orf" id="dummy-1_h1_10_16"  />
</g>
<g id="a1_0017"  >
<polygon points="611,85 616,80 667,80 667,90 616,90 611,85 " style="fill:white; stroke-width:1; stroke:black; " description="&lt;b&gt;ROSMUC_RS00940&lt;/b&gt;&lt;br&gt;response regulator&lt;br&gt;Location: 193047 - 195179" locus_tag="ROSMUC_RS00940" class="clusterblast-orf" id="dummy-1_h1_10_17"  />
</g>
<g id="a1_0018"  >
<polygon points="667,85 672,80 677,80 677,90 672,90 667,85 " style="fill:white; stroke-width:1; stroke:black; " description="&lt;b&gt;ROSMUC_RS00945&lt;/b&gt;&lt;br&gt;hypothetical protein&lt;br&gt;Location: 195185 - 195580" locus_tag="ROSMUC_RS00945" class="clusterblast-orf" id="dummy-1_h1_10_18"  />
</g>
<g id="a1_0019"  >
<polygon points="682,90 698,90 703,85 698,80 682,80 682,90 " style="fill:white; stroke-width:1; stroke:black; " description="&lt;b&gt;ROSMUC_RS00950&lt;/b&gt;&lt;br&gt;prolyl oligopeptidase family serine peptidase&lt;br&gt;Location: 195760 - 196563" locus_tag="ROSMUC_RS00950" class="clusterblast-orf" id="dummy-1_h1_10_19"  />
</g>
</svg>
