<svg xmlns="http://www.w3.org/2000/svg" xmlns:xlink="http://www.w3.org/1999/xlink" version="1.1" x="0" y="0" height="230" width="800" viewBox="0 0 800 230" preserveAspectRatio="none"  >
<g label="Query sequence" class="clusterblast-cluster"  >
<text x="5" y="20" class="clusterblast-acc"  >
Query sequence</text>
<line x1="10" y1="35" x2="778.0" y2="35" style="stroke-width:1; stroke:grey; "  />
<polygon points="0,35 5,30 13,30 13,40 5,40 0,35 " style="fill:#d81515; stroke-width:1; stroke:black; " description="&lt;b&gt;PHGFGAAC_01472&lt;/b&gt;&lt;br&gt;Protein FeSII&lt;br&gt;Location: 60085 - 60454" locus_tag="PHGFGAAC_01472" class="clusterblast-orf" id="dummy-1_q0_0_all"  />
<polygon points="20,35 25,30 49,30 49,40 25,40 20,35 " style="fill:#6cd815; stroke-width:1; stroke:black; " description="&lt;b&gt;PHGFGAAC_01473&lt;/b&gt;&lt;br&gt;Glutamine transport ATP-binding protein GlnQ&lt;br&gt;Location: 60639 - 61431" locus_tag="PHGFGAAC_01473" class="clusterblast-orf" id="dummy-1_q1_0_all"  />
<polygon points="49,35 54,30 97,30 97,40 54,40 49,35 " style="fill:#15c3d8; stroke-width:1; stroke:black; " description="&lt;b&gt;PHGFGAAC_01474&lt;/b&gt;&lt;br&gt;Inner membrane amino-acid ABC transporter permease protein YhdY&lt;br&gt;Location: 61440 - 62748" locus_tag="PHGFGAAC_01474" class="clusterblast-orf" id="dummy-1_q2_0_all"  />
<polygon points="97,35 102,30 143,30 143,40 102,40 97,35 " style="fill:#15c3d8; stroke-width:1; stroke:black; " description="&lt;b&gt;PHGFGAAC_01475&lt;/b&gt;&lt;br&gt;hypothetical protein&lt;br&gt;Location: 62749 - 64021" locus_tag="PHGFGAAC_01475" class="clusterblast-orf" id="dummy-1_q3_0_all"  />
<polygon points="148,35 153,30 185,30 185,40 153,40 148,35 " style="fill:#9715d8; stroke-width:1; stroke:black; " description="&lt;b&gt;PHGFGAAC_01476&lt;/b&gt;&lt;br&gt;Putative amino-acid ABC transporter-binding protein YhdW&lt;br&gt;Location: 64155 - 65172" locus_tag="PHGFGAAC_01476" class="clusterblast-orf" id="dummy-1_q4_0_all"  />
<polygon points="193,35 198,30 219,30 219,40 198,40 193,35 " style="fill:#d84115; stroke-width:1; stroke:black; " description="&lt;b&gt;PHGFGAAC_01477&lt;/b&gt;&lt;br&gt;hypothetical protein&lt;br&gt;Location: 65383 - 66103" locus_tag="PHGFGAAC_01477" class="clusterblast-orf" id="dummy-1_q5_0_all"  />
<polygon points="219,35 224,30 244,30 244,40 224,40 219,35 " style="fill:#41d815; stroke-width:1; stroke:black; " description="&lt;b&gt;PHGFGAAC_01478&lt;/b&gt;&lt;br&gt;N-acetylmuramic acid 6-phosphate phosphatase&lt;br&gt;Location: 66099 - 66768" locus_tag="PHGFGAAC_01478" class="clusterblast-orf" id="dummy-1_q6_0_all"  />
<polygon points="244,35 249,30 282,30 282,40 249,40 244,35 " style="fill:#1597d8; stroke-width:1; stroke:black; " description="&lt;b&gt;PHGFGAAC_01479&lt;/b&gt;&lt;br&gt;Ribosomal large subunit pseudouridine synthase C&lt;br&gt;Location: 66767 - 67817" locus_tag="PHGFGAAC_01479" class="clusterblast-orf" id="dummy-1_q7_0_all"  />
<polygon points="282,35 287,30 295,30 295,40 287,40 282,35 " style="fill:#c315d8; stroke-width:1; stroke:black; " description="&lt;b&gt;PHGFGAAC_01480&lt;/b&gt;&lt;br&gt;Putative fluoride ion transporter CrcB&lt;br&gt;Location: 67813 - 68191" locus_tag="PHGFGAAC_01480" class="clusterblast-orf" id="dummy-1_q8_0_all"  />
<polygon points="298,35 303,30 346,30 346,40 303,40 298,35 " style="fill:#d86c15; stroke-width:1; stroke:black; " description="&lt;b&gt;PHGFGAAC_01481&lt;/b&gt;&lt;br&gt;Replication-associated recombination protein A&lt;br&gt;Location: 68269 - 69580" locus_tag="PHGFGAAC_01481" class="clusterblast-orf" id="dummy-1_q9_0_all"  />
<polygon points="348,35 353,30 369,30 369,40 353,40 348,35 " style="fill:#15d815; stroke-width:1; stroke:black; " description="&lt;b&gt;PHGFGAAC_01482&lt;/b&gt;&lt;br&gt;Acyl-homoserine-lactone synthase&lt;br&gt;Location: 69632 - 70220" locus_tag="PHGFGAAC_01482" class="clusterblast-orf" id="dummy-1_q10_0_all"  />
<polygon points="371,35 376,30 394,30 394,40 376,40 371,35 " style="fill:#156cd8; stroke-width:1; stroke:black; " description="&lt;b&gt;PHGFGAAC_01483&lt;/b&gt;&lt;br&gt;hypothetical protein&lt;br&gt;Location: 70275 - 70887" locus_tag="PHGFGAAC_01483" class="clusterblast-orf" id="dummy-1_q11_0_all"  />
<polygon points="398,35 403,30 420,30 420,40 403,40 398,35 " style="fill:#15d815; stroke-width:1; stroke:black; " description="&lt;b&gt;PHGFGAAC_01484&lt;/b&gt;&lt;br&gt;hypothetical protein&lt;br&gt;Location: 71012 - 71603" locus_tag="PHGFGAAC_01484" class="clusterblast-orf" id="dummy-1_q12_0_all"  />
<polygon points="422,35 427,30 444,30 444,40 427,40 422,35 " style="fill:#156cd8; stroke-width:1; stroke:black; " description="&lt;b&gt;PHGFGAAC_01485&lt;/b&gt;&lt;br&gt;hypothetical protein&lt;br&gt;Location: 71659 - 72271" locus_tag="PHGFGAAC_01485" class="clusterblast-orf" id="dummy-1_q13_0_all"  />
<polygon points="450,35 455,30 466,30 466,40 455,40 450,35 " style="fill:#d815c3; stroke-width:1; stroke:black; " description="&lt;b&gt;PHGFGAAC_01486&lt;/b&gt;&lt;br&gt;50S ribosomal protein L17&lt;br&gt;Location: 72439 - 72856" locus_tag="PHGFGAAC_01486" class="clusterblast-orf" id="dummy-1_q14_0_all"  />
<polygon points="471,35 476,30 508,30 508,40 476,40 471,35 " style="fill:#d89715; stroke-width:1; stroke:black; " description="&lt;b&gt;PHGFGAAC_01487&lt;/b&gt;&lt;br&gt;DNA-directed RNA polymerase subunit alpha&lt;br&gt;Location: 73013 - 74030" locus_tag="PHGFGAAC_01487" class="clusterblast-orf" id="dummy-1_q15_0_all"  />
<polygon points="513,35 518,30 527,30 527,40 518,40 513,35 " style="fill:#15d841; stroke-width:1; stroke:black; " description="&lt;b&gt;PHGFGAAC_01488&lt;/b&gt;&lt;br&gt;30S ribosomal protein S11&lt;br&gt;Location: 74147 - 74537" locus_tag="PHGFGAAC_01488" class="clusterblast-orf" id="dummy-1_q16_0_all"  />
<polygon points="527,35 532,30 541,30 541,40 532,40 527,35 " style="fill:#1541d8; stroke-width:1; stroke:black; " description="&lt;b&gt;PHGFGAAC_01489&lt;/b&gt;&lt;br&gt;30S ribosomal protein S13&lt;br&gt;Location: 74552 - 74921" locus_tag="PHGFGAAC_01489" class="clusterblast-orf" id="dummy-1_q17_0_all"  />
<polygon points="548,35 553,30 572,30 572,40 553,40 548,35 " style="fill:#d81597; stroke-width:1; stroke:black; " description="&lt;b&gt;PHGFGAAC_01490&lt;/b&gt;&lt;br&gt;Adenylate kinase&lt;br&gt;Location: 75104 - 75761" locus_tag="PHGFGAAC_01490" class="clusterblast-orf" id="dummy-1_q18_0_all"  />
<polygon points="572,35 577,30 622,30 622,40 577,40 572,35 " style="fill:#d8c315; stroke-width:1; stroke:black; " description="&lt;b&gt;PHGFGAAC_01491&lt;/b&gt;&lt;br&gt;Protein translocase subunit SecY&lt;br&gt;Location: 75775 - 77137" locus_tag="PHGFGAAC_01491" class="clusterblast-orf" id="dummy-1_q19_0_all"  />
<polygon points="625,35 630,30 643,30 643,40 630,40 625,35 " style="fill:#15d86c; stroke-width:1; stroke:black; " description="&lt;b&gt;PHGFGAAC_01492&lt;/b&gt;&lt;br&gt;50S ribosomal protein L15&lt;br&gt;Location: 77238 - 77709" locus_tag="PHGFGAAC_01492" class="clusterblast-orf" id="dummy-1_q20_0_all"  />
<polygon points="646,35 651,30 653,30 653,40 651,40 646,35 " style="fill:#1515d8; stroke-width:1; stroke:black; " description="&lt;b&gt;PHGFGAAC_01493&lt;/b&gt;&lt;br&gt;50S ribosomal protein L30&lt;br&gt;Location: 77814 - 78006" locus_tag="PHGFGAAC_01493" class="clusterblast-orf" id="dummy-1_q21_0_all"  />
<polygon points="654,35 659,30 674,30 674,40 659,40 654,35 " style="fill:#d8156c; stroke-width:1; stroke:black; " description="&lt;b&gt;PHGFGAAC_01494&lt;/b&gt;&lt;br&gt;30S ribosomal protein S5&lt;br&gt;Location: 78017 - 78584" locus_tag="PHGFGAAC_01494" class="clusterblast-orf" id="dummy-1_q22_0_all"  />
<polygon points="675,35 680,30 688,30 688,40 680,40 675,35 " style="fill:#c3d815; stroke-width:1; stroke:black; " description="&lt;b&gt;PHGFGAAC_01495&lt;/b&gt;&lt;br&gt;50S ribosomal protein L18&lt;br&gt;Location: 78594 - 78954" locus_tag="PHGFGAAC_01495" class="clusterblast-orf" id="dummy-1_q23_0_all"  />
<polygon points="688,35 693,30 708,30 708,40 693,40 688,35 " style="fill:#15d897; stroke-width:1; stroke:black; " description="&lt;b&gt;PHGFGAAC_01496&lt;/b&gt;&lt;br&gt;50S ribosomal protein L6&lt;br&gt;Location: 78965 - 79499" locus_tag="PHGFGAAC_01496" class="clusterblast-orf" id="dummy-1_q24_0_all"  />
<polygon points="708,35 713,30 723,30 723,40 713,40 708,35 " style="fill:#4115d8; stroke-width:1; stroke:black; " description="&lt;b&gt;PHGFGAAC_01497&lt;/b&gt;&lt;br&gt;30S ribosomal protein S8&lt;br&gt;Location: 79509 - 79908" locus_tag="PHGFGAAC_01497" class="clusterblast-orf" id="dummy-1_q25_0_all"  />
<polygon points="723,35 728,30 734,30 734,40 728,40 723,35 " style="fill:#d81541; stroke-width:1; stroke:black; " description="&lt;b&gt;PHGFGAAC_01498&lt;/b&gt;&lt;br&gt;30S ribosomal protein S14&lt;br&gt;Location: 79918 - 80224" locus_tag="PHGFGAAC_01498" class="clusterblast-orf" id="dummy-1_q26_0_all"  />
<polygon points="735,35 740,30 755,30 755,40 740,40 735,35 " style="fill:#97d815; stroke-width:1; stroke:black; " description="&lt;b&gt;PHGFGAAC_01499&lt;/b&gt;&lt;br&gt;50S ribosomal protein L5&lt;br&gt;Location: 80241 - 80802" locus_tag="PHGFGAAC_01499" class="clusterblast-orf" id="dummy-1_q27_0_all"  />
<polygon points="755,35 760,30 766,30 766,40 760,40 755,35 " style="fill:#15d8c3; stroke-width:1; stroke:black; " description="&lt;b&gt;PHGFGAAC_01500&lt;/b&gt;&lt;br&gt;50S ribosomal protein L24&lt;br&gt;Location: 80801 - 81107" locus_tag="PHGFGAAC_01500" class="clusterblast-orf" id="dummy-1_q28_0_all"  />
<polygon points="766,35 771,30 780,30 780,40 771,40 766,35 " style="fill:#6c15d8; stroke-width:1; stroke:black; " description="&lt;b&gt;PHGFGAAC_01501&lt;/b&gt;&lt;br&gt;50S ribosomal protein L14&lt;br&gt;Location: 81106 - 81475" locus_tag="PHGFGAAC_01501" class="clusterblast-orf" id="dummy-1_q29_0_all"  />
</g>
<g label="NZ_CP021114" description="NZ_CP021114 (203610-223621): Rhodobacteraceae bacterium strain G7 chromosome,... (96% of genes show similarity), hserlactone" class="clusterblast-cluster"  >
<text x="5" y="70" class="clusterblast-acc"  >
<a xlink:href="https://antismash-db.secondarymetabolites.org/area.html?record=NZ_CP021114&amp;start=203610&amp;end=223621" target="_blank">NZ_CP021114 (203610-223621)</a>: Rhodobacteraceae bacterium strain G7 chromosome,... (96% of genes show similarity), hserlactone</text>
<line x1="10" y1="85" x2="778.0" y2="85" style="stroke-width:1; stroke:grey; "  />
</g>
<g id="a1_000"  >
<polygon points="25,85 30,80 54,80 54,90 30,90 25,85 " style="fill:#6cd815; stroke-width:1; stroke:black; " description="&lt;b&gt;B9057_RS01175&lt;/b&gt;&lt;br&gt;amino acid ABC transporter ATP-binding protein&lt;br&gt;Location: 223621 - 222830&lt;br&gt;&lt;br&gt;&lt;b&gt;BlastP hit with PHGFGAAC_01473&lt;/b&gt;&lt;br&gt;Percentage identity: 88&lt;br&gt;Percentage coverage: 100&lt;br&gt;BLAST bit score: 465&lt;br&gt;E-value: 2.33e-166" locus_tag="B9057_RS01175" class="clusterblast-orf" id="dummy-1_h1_10_0"  />
</g>
<g id="a1_001"  >
<polygon points="54,85 59,80 122,80 122,90 59,90 54,85 " style="fill:#15c3d8; stroke-width:1; stroke:black; " description="&lt;b&gt;B9057_RS01170&lt;/b&gt;&lt;br&gt;ABC transporter permease subunit&lt;br&gt;Location: 222819 - 220957&lt;br&gt;&lt;br&gt;&lt;b&gt;BlastP hit with PHGFGAAC_01474&lt;/b&gt;&lt;br&gt;Percentage identity: 40&lt;br&gt;Percentage coverage: 141&lt;br&gt;BLAST bit score: 397&lt;br&gt;E-value: 1.14e-131&lt;br&gt;&lt;br&gt;&lt;b&gt;BlastP hit with PHGFGAAC_01475&lt;/b&gt;&lt;br&gt;Percentage identity: 41&lt;br&gt;Percentage coverage: 18&lt;br&gt;BLAST bit score: 64&lt;br&gt;E-value: 5.55e-09" locus_tag="B9057_RS01170" class="clusterblast-orf" id="dummy-1_h1_10_1"  />
</g>
<g id="a1_002"  >
<polygon points="122,85 127,80 168,80 168,90 127,90 122,85 " style="fill:#15c3d8; stroke-width:1; stroke:black; " description="&lt;b&gt;B9057_RS01165&lt;/b&gt;&lt;br&gt;ABC transporter permease subunit&lt;br&gt;Location: 220955 - 219678&lt;br&gt;&lt;br&gt;&lt;b&gt;BlastP hit with PHGFGAAC_01474&lt;/b&gt;&lt;br&gt;Percentage identity: 34&lt;br&gt;Percentage coverage: 32&lt;br&gt;BLAST bit score: 78&lt;br&gt;E-value: 1.38e-13&lt;br&gt;&lt;br&gt;&lt;b&gt;BlastP hit with PHGFGAAC_01475&lt;/b&gt;&lt;br&gt;Percentage identity: 60&lt;br&gt;Percentage coverage: 102&lt;br&gt;BLAST bit score: 461&lt;br&gt;E-value: 2.33e-159" locus_tag="B9057_RS01165" class="clusterblast-orf" id="dummy-1_h1_10_2"  />
</g>
<g id="a1_003"  >
<polygon points="173,85 178,80 210,80 210,90 178,90 173,85 " style="fill:#9715d8; stroke-width:1; stroke:black; " description="&lt;b&gt;B9057_RS01160&lt;/b&gt;&lt;br&gt;amino acid ABC transporter substrate-binding protein&lt;br&gt;Location: 219553 - 218534&lt;br&gt;&lt;br&gt;&lt;b&gt;BlastP hit with PHGFGAAC_01476&lt;/b&gt;&lt;br&gt;Percentage identity: 76&lt;br&gt;Percentage coverage: 100&lt;br&gt;BLAST bit score: 539&lt;br&gt;E-value: 4.16e-193" locus_tag="B9057_RS01160" class="clusterblast-orf" id="dummy-1_h1_10_3"  />
</g>
<g id="a1_004"  >
<polygon points="218,85 223,80 243,80 243,90 223,90 218,85 " style="fill:#d84115; stroke-width:1; stroke:black; " description="&lt;b&gt;B9057_RS01155&lt;/b&gt;&lt;br&gt;ATPase&lt;br&gt;Location: 218331 - 217621&lt;br&gt;&lt;br&gt;&lt;b&gt;BlastP hit with PHGFGAAC_01477&lt;/b&gt;&lt;br&gt;Percentage identity: 50&lt;br&gt;Percentage coverage: 97&lt;br&gt;BLAST bit score: 223&lt;br&gt;E-value: 1.64e-71" locus_tag="B9057_RS01155" class="clusterblast-orf" id="dummy-1_h1_10_4"  />
</g>
<g id="a1_005"  >
<polygon points="243,85 248,80 268,80 268,90 248,90 243,85 " style="fill:#41d815; stroke-width:1; stroke:black; " description="&lt;b&gt;B9057_RS01150&lt;/b&gt;&lt;br&gt;HAD-IA family hydrolase&lt;br&gt;Location: 217624 - 216947&lt;br&gt;&lt;br&gt;&lt;b&gt;BlastP hit with PHGFGAAC_01478&lt;/b&gt;&lt;br&gt;Percentage identity: 51&lt;br&gt;Percentage coverage: 100&lt;br&gt;BLAST bit score: 200&lt;br&gt;E-value: 7.6e-63" locus_tag="B9057_RS01150" class="clusterblast-orf" id="dummy-1_h1_10_5"  />
</g>
<g id="a1_006"  >
<polygon points="268,85 273,80 306,80 306,90 273,90 268,85 " style="fill:#1597d8; stroke-width:1; stroke:black; " description="&lt;b&gt;B9057_RS01145&lt;/b&gt;&lt;br&gt;RluA family pseudouridine synthase&lt;br&gt;Location: 216954 - 215902&lt;br&gt;&lt;br&gt;&lt;b&gt;BlastP hit with PHGFGAAC_01479&lt;/b&gt;&lt;br&gt;Percentage identity: 67&lt;br&gt;Percentage coverage: 99&lt;br&gt;BLAST bit score: 499&lt;br&gt;E-value: 6.44e-177" locus_tag="B9057_RS01145" class="clusterblast-orf" id="dummy-1_h1_10_6"  />
</g>
<g id="a1_007"  >
<polygon points="306,85 311,80 320,80 320,90 311,90 306,85 " style="fill:#c315d8; stroke-width:1; stroke:black; " description="&lt;b&gt;B9057_RS01140&lt;/b&gt;&lt;br&gt;fluoride efflux transporter CrcB&lt;br&gt;Location: 215905 - 215528&lt;br&gt;&lt;br&gt;&lt;b&gt;BlastP hit with PHGFGAAC_01480&lt;/b&gt;&lt;br&gt;Percentage identity: 68&lt;br&gt;Percentage coverage: 97&lt;br&gt;BLAST bit score: 155&lt;br&gt;E-value: 4.98e-48" locus_tag="B9057_RS01140" class="clusterblast-orf" id="dummy-1_h1_10_7"  />
</g>
<g id="a1_008"  >
<polygon points="321,85 326,80 369,80 369,90 326,90 321,85 " style="fill:#d86c15; stroke-width:1; stroke:black; " description="&lt;b&gt;B9057_RS01135&lt;/b&gt;&lt;br&gt;replication-associated recombination protein A&lt;br&gt;Location: 215496 - 214180&lt;br&gt;&lt;br&gt;&lt;b&gt;BlastP hit with PHGFGAAC_01481&lt;/b&gt;&lt;br&gt;Percentage identity: 78&lt;br&gt;Percentage coverage: 100&lt;br&gt;BLAST bit score: 675&lt;br&gt;E-value: 1.35e-243" locus_tag="B9057_RS01135" class="clusterblast-orf" id="dummy-1_h1_10_8"  />
</g>
<g id="a1_009"  >
<polygon points="370,85 375,80 392,80 392,90 375,90 370,85 " style="fill:#15d815; stroke-width:1; stroke:black; " description="&lt;b&gt;B9057_RS01130&lt;/b&gt;&lt;br&gt;N-acyl-L-homoserine lactone synthetase&lt;br&gt;Location: 214140 - 213550&lt;br&gt;&lt;br&gt;&lt;b&gt;BlastP hit with PHGFGAAC_01482&lt;/b&gt;&lt;br&gt;Percentage identity: 54&lt;br&gt;Percentage coverage: 101&lt;br&gt;BLAST bit score: 221&lt;br&gt;E-value: 5.05e-72&lt;br&gt;&lt;br&gt;&lt;b&gt;BlastP hit with PHGFGAAC_01484&lt;/b&gt;&lt;br&gt;Percentage identity: 60&lt;br&gt;Percentage coverage: 100&lt;br&gt;BLAST bit score: 242&lt;br&gt;E-value: 3.25e-80" locus_tag="B9057_RS01130" class="clusterblast-orf" id="dummy-1_h1_10_9"  />
</g>
<g id="a1_0010"  >
<polygon points="394,85 399,80 416,80 416,90 399,90 394,85 " style="fill:#156cd8; stroke-width:1; stroke:black; " description="&lt;b&gt;B9057_RS01125&lt;/b&gt;&lt;br&gt;autoinducer binding domain-containing protein&lt;br&gt;Location: 213489 - 212878&lt;br&gt;&lt;br&gt;&lt;b&gt;BlastP hit with PHGFGAAC_01483&lt;/b&gt;&lt;br&gt;Percentage identity: 52&lt;br&gt;Percentage coverage: 95&lt;br&gt;BLAST bit score: 199&lt;br&gt;E-value: 3.82e-63&lt;br&gt;&lt;br&gt;&lt;b&gt;BlastP hit with PHGFGAAC_01485&lt;/b&gt;&lt;br&gt;Percentage identity: 52&lt;br&gt;Percentage coverage: 97&lt;br&gt;BLAST bit score: 208&lt;br&gt;E-value: 8.75e-67" locus_tag="B9057_RS01125" class="clusterblast-orf" id="dummy-1_h1_10_10"  />
</g>
<g id="a1_0011"  >
<polygon points="421,85 426,80 437,80 437,90 426,90 421,85 " style="fill:#d815c3; stroke-width:1; stroke:black; " description="&lt;b&gt;B9057_RS01120&lt;/b&gt;&lt;br&gt;50S ribosomal protein L17&lt;br&gt;Location: 212742 - 212314&lt;br&gt;&lt;br&gt;&lt;b&gt;BlastP hit with PHGFGAAC_01486&lt;/b&gt;&lt;br&gt;Percentage identity: 86&lt;br&gt;Percentage coverage: 99&lt;br&gt;BLAST bit score: 229&lt;br&gt;E-value: 4.06e-77" locus_tag="B9057_RS01120" class="clusterblast-orf" id="dummy-1_h1_10_11"  />
</g>
<g id="a1_0012"  >
<polygon points="441,85 446,80 478,80 478,90 446,90 441,85 " style="fill:#d89715; stroke-width:1; stroke:black; " description="&lt;b&gt;B9057_RS01115&lt;/b&gt;&lt;br&gt;DNA-directed RNA polymerase subunit alpha&lt;br&gt;Location: 212196 - 211180&lt;br&gt;&lt;br&gt;&lt;b&gt;BlastP hit with PHGFGAAC_01487&lt;/b&gt;&lt;br&gt;Percentage identity: 89&lt;br&gt;Percentage coverage: 100&lt;br&gt;BLAST bit score: 610&lt;br&gt;E-value: 2.65e-221" locus_tag="B9057_RS01115" class="clusterblast-orf" id="dummy-1_h1_10_12"  />
</g>
<g id="a1_0013"  >
<polygon points="482,85 487,80 497,80 497,90 487,90 482,85 " style="fill:#15d841; stroke-width:1; stroke:black; " description="&lt;b&gt;B9057_RS01110&lt;/b&gt;&lt;br&gt;30S ribosomal protein S11&lt;br&gt;Location: 211069 - 210677&lt;br&gt;&lt;br&gt;&lt;b&gt;BlastP hit with PHGFGAAC_01488&lt;/b&gt;&lt;br&gt;Percentage identity: 89&lt;br&gt;Percentage coverage: 101&lt;br&gt;BLAST bit score: 216&lt;br&gt;E-value: 2.89e-72" locus_tag="B9057_RS01110" class="clusterblast-orf" id="dummy-1_h1_10_13"  />
</g>
<g id="a1_0014"  >
<polygon points="497,85 502,80 511,80 511,90 502,90 497,85 " style="fill:#1541d8; stroke-width:1; stroke:black; " description="&lt;b&gt;B9057_RS01105&lt;/b&gt;&lt;br&gt;30S ribosomal protein S13&lt;br&gt;Location: 210661 - 210293&lt;br&gt;&lt;br&gt;&lt;b&gt;BlastP hit with PHGFGAAC_01489&lt;/b&gt;&lt;br&gt;Percentage identity: 89&lt;br&gt;Percentage coverage: 100&lt;br&gt;BLAST bit score: 206&lt;br&gt;E-value: 2.19e-68" locus_tag="B9057_RS01105" class="clusterblast-orf" id="dummy-1_h1_10_14"  />
</g>
<g id="a1_0015"  >
<polygon points="520,85 525,80 541,80 541,90 525,90 520,85 " style="fill:#d81597; stroke-width:1; stroke:black; " description="&lt;b&gt;B9057_RS01100&lt;/b&gt;&lt;br&gt;adenylate kinase&lt;br&gt;Location: 210040 - 209465&lt;br&gt;&lt;br&gt;&lt;b&gt;BlastP hit with PHGFGAAC_01490&lt;/b&gt;&lt;br&gt;Percentage identity: 61&lt;br&gt;Percentage coverage: 97&lt;br&gt;BLAST bit score: 233&lt;br&gt;E-value: 1.98e-76" locus_tag="B9057_RS01100" class="clusterblast-orf" id="dummy-1_h1_10_15"  />
</g>
<g id="a1_0016"  >
<polygon points="541,85 546,80 590,80 590,90 546,90 541,85 " style="fill:#d8c315; stroke-width:1; stroke:black; " description="&lt;b&gt;B9057_RS01095&lt;/b&gt;&lt;br&gt;preprotein translocase subunit SecY&lt;br&gt;Location: 209468 - 208128&lt;br&gt;&lt;br&gt;&lt;b&gt;BlastP hit with PHGFGAAC_01491&lt;/b&gt;&lt;br&gt;Percentage identity: 73&lt;br&gt;Percentage coverage: 99&lt;br&gt;BLAST bit score: 637&lt;br&gt;E-value: 2.86e-228" locus_tag="B9057_RS01095" class="clusterblast-orf" id="dummy-1_h1_10_16"  />
</g>
<g id="a1_0017"  >
<polygon points="594,85 599,80 611,80 611,90 599,90 594,85 " style="fill:#15d86c; stroke-width:1; stroke:black; " description="&lt;b&gt;B9057_RS01090&lt;/b&gt;&lt;br&gt;50S ribosomal protein L15&lt;br&gt;Location: 208001 - 207537&lt;br&gt;&lt;br&gt;&lt;b&gt;BlastP hit with PHGFGAAC_01492&lt;/b&gt;&lt;br&gt;Percentage identity: 68&lt;br&gt;Percentage coverage: 99&lt;br&gt;BLAST bit score: 186&lt;br&gt;E-value: 1.98e-59" locus_tag="B9057_RS01090" class="clusterblast-orf" id="dummy-1_h1_10_17"  />
</g>
<g id="a1_0018"  >
<polygon points="618,85 623,80 626,80 626,90 623,90 618,85 " style="fill:white; stroke-width:1; stroke:black; " description="&lt;b&gt;B9057_RS01085&lt;/b&gt;&lt;br&gt;DUF1127 domain-containing protein&lt;br&gt;Location: 207346 - 207125" locus_tag="B9057_RS01085" class="clusterblast-orf" id="dummy-1_h1_10_18"  />
</g>
<g id="a1_0019"  >
<polygon points="635,85 640,80 641,80 641,90 640,90 635,85 " style="fill:#1515d8; stroke-width:1; stroke:black; " description="&lt;b&gt;B9057_RS01080&lt;/b&gt;&lt;br&gt;50S ribosomal protein L30&lt;br&gt;Location: 206896 - 206708&lt;br&gt;&lt;br&gt;&lt;b&gt;BlastP hit with PHGFGAAC_01493&lt;/b&gt;&lt;br&gt;Percentage identity: 77&lt;br&gt;Percentage coverage: 95&lt;br&gt;BLAST bit score: 90&lt;br&gt;E-value: 3.75e-24" locus_tag="B9057_RS01080" class="clusterblast-orf" id="dummy-1_h1_10_19"  />
</g>
<g id="a1_0020"  >
<polygon points="642,85 647,80 662,80 662,90 647,90 642,85 " style="fill:#d8156c; stroke-width:1; stroke:black; " description="&lt;b&gt;B9057_RS01075&lt;/b&gt;&lt;br&gt;30S ribosomal protein S5&lt;br&gt;Location: 206695 - 206135&lt;br&gt;&lt;br&gt;&lt;b&gt;BlastP hit with PHGFGAAC_01494&lt;/b&gt;&lt;br&gt;Percentage identity: 85&lt;br&gt;Percentage coverage: 100&lt;br&gt;BLAST bit score: 298&lt;br&gt;E-value: 1.01e-102" locus_tag="B9057_RS01075" class="clusterblast-orf" id="dummy-1_h1_10_20"  />
</g>
<g id="a1_0021"  >
<polygon points="663,85 668,80 676,80 676,90 668,90 663,85 " style="fill:#c3d815; stroke-width:1; stroke:black; " description="&lt;b&gt;B9057_RS01070&lt;/b&gt;&lt;br&gt;50S ribosomal protein L18&lt;br&gt;Location: 206122 - 205763&lt;br&gt;&lt;br&gt;&lt;b&gt;BlastP hit with PHGFGAAC_01495&lt;/b&gt;&lt;br&gt;Percentage identity: 82&lt;br&gt;Percentage coverage: 99&lt;br&gt;BLAST bit score: 185&lt;br&gt;E-value: 4.27e-60" locus_tag="B9057_RS01070" class="clusterblast-orf" id="dummy-1_h1_10_21"  />
</g>
<g id="a1_0022"  >
<polygon points="676,85 681,80 696,80 696,90 681,90 676,85 " style="fill:#15d897; stroke-width:1; stroke:black; " description="&lt;b&gt;B9057_RS01065&lt;/b&gt;&lt;br&gt;50S ribosomal protein L6&lt;br&gt;Location: 205751 - 205218&lt;br&gt;&lt;br&gt;&lt;b&gt;BlastP hit with PHGFGAAC_01496&lt;/b&gt;&lt;br&gt;Percentage identity: 84&lt;br&gt;Percentage coverage: 100&lt;br&gt;BLAST bit score: 299&lt;br&gt;E-value: 1.66e-103" locus_tag="B9057_RS01065" class="clusterblast-orf" id="dummy-1_h1_10_22"  />
</g>
<g id="a1_0023"  >
<polygon points="696,85 701,80 710,80 710,90 701,90 696,85 " style="fill:#4115d8; stroke-width:1; stroke:black; " description="&lt;b&gt;B9057_RS01060&lt;/b&gt;&lt;br&gt;30S ribosomal protein S8&lt;br&gt;Location: 205207 - 204815&lt;br&gt;&lt;br&gt;&lt;b&gt;BlastP hit with PHGFGAAC_01497&lt;/b&gt;&lt;br&gt;Percentage identity: 82&lt;br&gt;Percentage coverage: 98&lt;br&gt;BLAST bit score: 217&lt;br&gt;E-value: 1.62e-72" locus_tag="B9057_RS01060" class="clusterblast-orf" id="dummy-1_h1_10_23"  />
</g>
<g id="a1_0024"  >
<polygon points="711,85 716,80 722,80 722,90 716,90 711,85 " style="fill:#d81541; stroke-width:1; stroke:black; " description="&lt;b&gt;B9057_RS01055&lt;/b&gt;&lt;br&gt;30S ribosomal protein S14&lt;br&gt;Location: 204801 - 204496&lt;br&gt;&lt;br&gt;&lt;b&gt;BlastP hit with PHGFGAAC_01498&lt;/b&gt;&lt;br&gt;Percentage identity: 77&lt;br&gt;Percentage coverage: 100&lt;br&gt;BLAST bit score: 151&lt;br&gt;E-value: 2.14e-47" locus_tag="B9057_RS01055" class="clusterblast-orf" id="dummy-1_h1_10_24"  />
</g>
<g id="a1_0025"  >
<polygon points="723,85 728,80 743,80 743,90 728,90 723,85 " style="fill:#97d815; stroke-width:1; stroke:black; " description="&lt;b&gt;B9057_RS01050&lt;/b&gt;&lt;br&gt;50S ribosomal protein L5&lt;br&gt;Location: 204479 - 203916&lt;br&gt;&lt;br&gt;&lt;b&gt;BlastP hit with PHGFGAAC_01499&lt;/b&gt;&lt;br&gt;Percentage identity: 81&lt;br&gt;Percentage coverage: 101&lt;br&gt;BLAST bit score: 305&lt;br&gt;E-value: 2.48e-105" locus_tag="B9057_RS01050" class="clusterblast-orf" id="dummy-1_h1_10_25"  />
</g>
<g id="a1_0026"  >
<polygon points="743,85 748,80 754,80 754,90 748,90 743,85 " style="fill:#15d8c3; stroke-width:1; stroke:black; " description="&lt;b&gt;B9057_RS01045&lt;/b&gt;&lt;br&gt;50S ribosomal protein L24&lt;br&gt;Location: 203916 - 203611&lt;br&gt;&lt;br&gt;&lt;b&gt;BlastP hit with PHGFGAAC_01500&lt;/b&gt;&lt;br&gt;Percentage identity: 78&lt;br&gt;Percentage coverage: 100&lt;br&gt;BLAST bit score: 156&lt;br&gt;E-value: 3.17e-49" locus_tag="B9057_RS01045" class="clusterblast-orf" id="dummy-1_h1_10_26"  />
</g>
</svg>
