<svg xmlns="http://www.w3.org/2000/svg" xmlns:xlink="http://www.w3.org/1999/xlink" version="1.1" x="0" y="0" height="230" width="800" viewBox="0 0 800 230" preserveAspectRatio="none"  >
<g label="Query sequence" class="clusterblast-cluster"  >
<text x="5" y="20" class="clusterblast-acc"  >
Query sequence</text>
<line x1="10" y1="35" x2="778.0" y2="35" style="stroke-width:1; stroke:grey; "  />
<polygon points="0,40 30,40 35,35 30,30 0,30 0,40 " style="fill:#d81515; stroke-width:1; stroke:black; " description="&lt;b&gt;PHGFGAAC_01559&lt;/b&gt;&lt;br&gt;1,4-dihydroxy-2-naphthoate octaprenyltransferase&lt;br&gt;Location: 44850 - 45756" locus_tag="PHGFGAAC_01559" class="clusterblast-orf" id="dummy-1_q0_0_all"  />
<polygon points="35,40 80,40 85,35 80,30 35,30 35,40 " style="fill:#56d815; stroke-width:1; stroke:black; " description="&lt;b&gt;PHGFGAAC_01560&lt;/b&gt;&lt;br&gt;Protein PucC&lt;br&gt;Location: 45755 - 47039" locus_tag="PHGFGAAC_01560" class="clusterblast-orf" id="dummy-1_q1_0_all"  />
<polygon points="85,40 125,40 130,35 125,30 85,30 85,40 " style="fill:#1597d8; stroke-width:1; stroke:black; " description="&lt;b&gt;PHGFGAAC_01561&lt;/b&gt;&lt;br&gt;Kynurenine 3-monooxygenase&lt;br&gt;Location: 47041 - 48223" locus_tag="PHGFGAAC_01561" class="clusterblast-orf" id="dummy-1_q2_0_all"  />
<polygon points="131,40 146,40 151,35 146,30 131,30 131,40 " style="fill:#9715d8; stroke-width:1; stroke:black; " description="&lt;b&gt;PHGFGAAC_01562&lt;/b&gt;&lt;br&gt;Isopentenyl-diphosphate Delta-isomerase&lt;br&gt;Location: 48228 - 48744" locus_tag="PHGFGAAC_01562" class="clusterblast-orf" id="dummy-1_q3_0_all"  />
<polygon points="151,35 156,30 185,30 185,40 156,40 151,35 " style="fill:#d85615; stroke-width:1; stroke:black; " description="&lt;b&gt;PHGFGAAC_01563&lt;/b&gt;&lt;br&gt;2-hydroxy-6-oxo-2,4-heptadienoate hydrolase&lt;br&gt;Location: 48764 - 49643" locus_tag="PHGFGAAC_01563" class="clusterblast-orf" id="dummy-1_q4_0_all"  />
<polygon points="186,35 191,30 249,30 249,40 191,40 186,35 " style="fill:#15d815; stroke-width:1; stroke:black; " description="&lt;b&gt;PHGFGAAC_01564&lt;/b&gt;&lt;br&gt;Magnesium-chelatase 60 kDa subunit&lt;br&gt;Location: 49647 - 51297" locus_tag="PHGFGAAC_01564" class="clusterblast-orf" id="dummy-1_q5_0_all"  />
<polygon points="251,35 256,30 290,30 290,40 256,40 251,35 " style="fill:#1556d8; stroke-width:1; stroke:black; " description="&lt;b&gt;PHGFGAAC_01565&lt;/b&gt;&lt;br&gt;Magnesium-chelatase 38 kDa subunit&lt;br&gt;Location: 51344 - 52349" locus_tag="PHGFGAAC_01565" class="clusterblast-orf" id="dummy-1_q6_0_all"  />
<polygon points="290,35 295,30 319,30 319,40 295,40 290,35 " style="fill:#d815d8; stroke-width:1; stroke:black; " description="&lt;b&gt;PHGFGAAC_01566&lt;/b&gt;&lt;br&gt;Spheroidene monooxygenase&lt;br&gt;Location: 52345 - 53107" locus_tag="PHGFGAAC_01566" class="clusterblast-orf" id="dummy-1_q7_0_all"  />
<polygon points="324,40 381,40 386,35 381,30 324,30 324,40 " style="fill:#d89715; stroke-width:1; stroke:black; " description="&lt;b&gt;PHGFGAAC_01567&lt;/b&gt;&lt;br&gt;Phytoene desaturase (neurosporene-forming)&lt;br&gt;Location: 53238 - 54825" locus_tag="PHGFGAAC_01567" class="clusterblast-orf" id="dummy-1_q8_0_all"  />
<polygon points="386,40 421,40 426,35 421,30 386,30 386,40 " style="fill:#15d856; stroke-width:1; stroke:black; " description="&lt;b&gt;PHGFGAAC_01568&lt;/b&gt;&lt;br&gt;hypothetical protein&lt;br&gt;Location: 54821 - 55853" locus_tag="PHGFGAAC_01568" class="clusterblast-orf" id="dummy-1_q9_0_all"  />
<polygon points="427,40 451,40 456,35 451,30 427,30 427,40 " style="fill:#1515d8; stroke-width:1; stroke:black; " description="&lt;b&gt;PHGFGAAC_01569&lt;/b&gt;&lt;br&gt;hypothetical protein&lt;br&gt;Location: 55886 - 56627" locus_tag="PHGFGAAC_01569" class="clusterblast-orf" id="dummy-1_q10_0_all"  />
<polygon points="458,35 463,30 492,30 492,40 463,40 458,35 " style="fill:#d81597; stroke-width:1; stroke:black; " description="&lt;b&gt;PHGFGAAC_01570&lt;/b&gt;&lt;br&gt;Acyclic carotenoid 1,2-hydratase&lt;br&gt;Location: 56693 - 57569" locus_tag="PHGFGAAC_01570" class="clusterblast-orf" id="dummy-1_q11_0_all"  />
<polygon points="494,35 499,30 552,30 552,40 499,40 494,35 " style="fill:#d8d815; stroke-width:1; stroke:black; " description="&lt;b&gt;PHGFGAAC_01571&lt;/b&gt;&lt;br&gt;Hydroxyneurosporene desaturase&lt;br&gt;Location: 57610 - 59107" locus_tag="PHGFGAAC_01571" class="clusterblast-orf" id="dummy-1_q12_0_all"  />
<polygon points="556,40 586,40 591,35 586,30 556,30 556,40 " style="fill:#15d897; stroke-width:1; stroke:black; " description="&lt;b&gt;PHGFGAAC_01572&lt;/b&gt;&lt;br&gt;hypothetical protein&lt;br&gt;Location: 59216 - 60113" locus_tag="PHGFGAAC_01572" class="clusterblast-orf" id="dummy-1_q13_0_all"  />
<polygon points="591,40 630,40 635,35 630,30 591,30 591,40 " style="fill:#5615d8; stroke-width:1; stroke:black; " description="&lt;b&gt;PHGFGAAC_01573&lt;/b&gt;&lt;br&gt;Demethylspheroidene O-methyltransferase&lt;br&gt;Location: 60114 - 61257" locus_tag="PHGFGAAC_01573" class="clusterblast-orf" id="dummy-1_q14_0_all"  />
<polygon points="640,40 673,40 678,35 673,30 640,30 640,40 " style="fill:#d81556; stroke-width:1; stroke:black; " description="&lt;b&gt;PHGFGAAC_01574&lt;/b&gt;&lt;br&gt;L-galactonate-5-dehydrogenase&lt;br&gt;Location: 61404 - 62361" locus_tag="PHGFGAAC_01574" class="clusterblast-orf" id="dummy-1_q15_0_all"  />
<polygon points="677,40 711,40 716,35 711,30 677,30 677,40 " style="fill:#97d815; stroke-width:1; stroke:black; " description="&lt;b&gt;PHGFGAAC_01575&lt;/b&gt;&lt;br&gt;Chlorophyllide reductase 35.5 kDa chain&lt;br&gt;Location: 62357 - 63362" locus_tag="PHGFGAAC_01575" class="clusterblast-orf" id="dummy-1_q16_0_all"  />
<polygon points="719,40 775,40 780,35 775,30 719,30 719,40 " style="fill:#15d8d8; stroke-width:1; stroke:black; " description="&lt;b&gt;PHGFGAAC_01576&lt;/b&gt;&lt;br&gt;Chlorophyllide reductase 52.5 kDa chain&lt;br&gt;Location: 63440 - 65006" locus_tag="PHGFGAAC_01576" class="clusterblast-orf" id="dummy-1_q17_0_all"  />
</g>
<g label="NZ_PZZW01000002" description="NZ_PZZW01000002 (622436-643504): Rhodobacter johrii strain JA192 Ga0191650 10... (100% of genes show similarity), terpene" class="clusterblast-cluster"  >
<text x="5" y="70" class="clusterblast-acc"  >
<a xlink:href="https://antismash-db.secondarymetabolites.org/area.html?record=NZ_PZZW01000002&amp;start=622436&amp;end=643504" target="_blank">NZ_PZZW01000002 (622436-643504)</a>: Rhodobacter johrii strain JA192 Ga0191650 10... (100% of genes show similarity), terpene</text>
<line x1="10" y1="85" x2="778.0" y2="85" style="stroke-width:1; stroke:grey; "  />
</g>
<g id="a1_000"  >
<polygon points="10,90 55,90 60,85 55,80 10,80 10,90 " style="fill:#56d815; stroke-width:1; stroke:black; " description="&lt;b&gt;C8J29_RS08085&lt;/b&gt;&lt;br&gt;BCD family MFS transporter&lt;br&gt;Location: 643102 - 641819&lt;br&gt;&lt;br&gt;&lt;b&gt;BlastP hit with PHGFGAAC_01560&lt;/b&gt;&lt;br&gt;Percentage identity: 68&lt;br&gt;Percentage coverage: 100&lt;br&gt;BLAST bit score: 513&lt;br&gt;E-value: 9.45e-180" locus_tag="C8J29_RS08085" class="clusterblast-orf" id="dummy-1_h1_7_0"  />
</g>
<g id="a1_001"  >
<polygon points="60,90 100,90 105,85 100,80 60,80 60,90 " style="fill:#1597d8; stroke-width:1; stroke:black; " description="&lt;b&gt;C8J29_RS08080&lt;/b&gt;&lt;br&gt;geranylgeranyl diphosphate reductase&lt;br&gt;Location: 641816 - 640632&lt;br&gt;&lt;br&gt;&lt;b&gt;BlastP hit with PHGFGAAC_01561&lt;/b&gt;&lt;br&gt;Percentage identity: 74&lt;br&gt;Percentage coverage: 100&lt;br&gt;BLAST bit score: 588&lt;br&gt;E-value: 1.25e-210" locus_tag="C8J29_RS08080" class="clusterblast-orf" id="dummy-1_h1_7_1"  />
</g>
<g id="a1_002"  >
<polygon points="106,90 121,90 126,85 121,80 106,80 106,90 " style="fill:#9715d8; stroke-width:1; stroke:black; " description="&lt;b&gt;C8J29_RS08075&lt;/b&gt;&lt;br&gt;isopentenyl-diphosphate Delta-isomerase&lt;br&gt;Location: 640629 - 640096&lt;br&gt;&lt;br&gt;&lt;b&gt;BlastP hit with PHGFGAAC_01562&lt;/b&gt;&lt;br&gt;Percentage identity: 73&lt;br&gt;Percentage coverage: 98&lt;br&gt;BLAST bit score: 256&lt;br&gt;E-value: 1.51e-86" locus_tag="C8J29_RS08075" class="clusterblast-orf" id="dummy-1_h1_7_2"  />
</g>
<g id="a1_003"  >
<polygon points="139,85 144,80 173,80 173,90 144,90 139,85 " style="fill:#d85615; stroke-width:1; stroke:black; " description="&lt;b&gt;C8J29_RS08070&lt;/b&gt;&lt;br&gt;alpha/beta fold hydrolase&lt;br&gt;Location: 639758 - 638892&lt;br&gt;&lt;br&gt;&lt;b&gt;BlastP hit with PHGFGAAC_01563&lt;/b&gt;&lt;br&gt;Percentage identity: 57&lt;br&gt;Percentage coverage: 97&lt;br&gt;BLAST bit score: 320&lt;br&gt;E-value: 3.94e-108" locus_tag="C8J29_RS08070" class="clusterblast-orf" id="dummy-1_h1_7_3"  />
</g>
<g id="a1_004"  >
<polygon points="173,85 178,80 238,80 238,90 178,90 173,85 " style="fill:#15d815; stroke-width:1; stroke:black; " description="&lt;b&gt;C8J29_RS08065&lt;/b&gt;&lt;br&gt;magnesium chelatase subunit D&lt;br&gt;Location: 638889 - 637195&lt;br&gt;&lt;br&gt;&lt;b&gt;BlastP hit with PHGFGAAC_01564&lt;/b&gt;&lt;br&gt;Percentage identity: 66&lt;br&gt;Percentage coverage: 100&lt;br&gt;BLAST bit score: 617&lt;br&gt;E-value: 8.26e-217" locus_tag="C8J29_RS08065" class="clusterblast-orf" id="dummy-1_h1_7_4"  />
</g>
<g id="a1_005"  >
<polygon points="238,85 243,80 277,80 277,90 243,90 238,85 " style="fill:#1556d8; stroke-width:1; stroke:black; " description="&lt;b&gt;C8J29_RS08060&lt;/b&gt;&lt;br&gt;magnesium chelatase ATPase subunit I&lt;br&gt;Location: 637198 - 636194&lt;br&gt;&lt;br&gt;&lt;b&gt;BlastP hit with PHGFGAAC_01565&lt;/b&gt;&lt;br&gt;Percentage identity: 84&lt;br&gt;Percentage coverage: 100&lt;br&gt;BLAST bit score: 551&lt;br&gt;E-value: 3.96e-198" locus_tag="C8J29_RS08060" class="clusterblast-orf" id="dummy-1_h1_7_5"  />
</g>
<g id="a1_006"  >
<polygon points="277,85 282,80 315,80 315,90 282,90 277,85 " style="fill:#d815d8; stroke-width:1; stroke:black; " description="&lt;b&gt;C8J29_RS08055&lt;/b&gt;&lt;br&gt;spheroidene monooxygenase&lt;br&gt;Location: 636189 - 635215&lt;br&gt;&lt;br&gt;&lt;b&gt;BlastP hit with PHGFGAAC_01566&lt;/b&gt;&lt;br&gt;Percentage identity: 47&lt;br&gt;Percentage coverage: 92&lt;br&gt;BLAST bit score: 224&lt;br&gt;E-value: 1.02e-70" locus_tag="C8J29_RS08055" class="clusterblast-orf" id="dummy-1_h1_7_6"  />
</g>
<g id="a1_007"  >
<polygon points="321,90 376,90 381,85 376,80 321,80 321,90 " style="fill:#d89715; stroke-width:1; stroke:black; " description="&lt;b&gt;C8J29_RS08050&lt;/b&gt;&lt;br&gt;phytoene desaturase&lt;br&gt;Location: 635057 - 633501&lt;br&gt;&lt;br&gt;&lt;b&gt;BlastP hit with PHGFGAAC_01567&lt;/b&gt;&lt;br&gt;Percentage identity: 71&lt;br&gt;Percentage coverage: 98&lt;br&gt;BLAST bit score: 743&lt;br&gt;E-value: 1.52e-267" locus_tag="C8J29_RS08050" class="clusterblast-orf" id="dummy-1_h1_7_7"  />
</g>
<g id="a1_008"  >
<polygon points="381,90 418,90 423,85 418,80 381,80 381,90 " style="fill:#15d856; stroke-width:1; stroke:black; " description="&lt;b&gt;C8J29_RS08045&lt;/b&gt;&lt;br&gt;phytoene/squalene synthase family protein&lt;br&gt;Location: 633504 - 632437&lt;br&gt;&lt;br&gt;&lt;b&gt;BlastP hit with PHGFGAAC_01568&lt;/b&gt;&lt;br&gt;Percentage identity: 68&lt;br&gt;Percentage coverage: 102&lt;br&gt;BLAST bit score: 441&lt;br&gt;E-value: 5.59e-154" locus_tag="C8J29_RS08045" class="clusterblast-orf" id="dummy-1_h1_7_8"  />
</g>
<g id="a1_009"  >
<polygon points="424,90 437,90 442,85 437,80 424,80 424,90 " style="fill:#1515d8; stroke-width:1; stroke:black; " description="&lt;b&gt;C8J29_RS08040&lt;/b&gt;&lt;br&gt;tryptophan-rich sensory protein&lt;br&gt;Location: 632408 - 631929&lt;br&gt;&lt;br&gt;&lt;b&gt;BlastP hit with PHGFGAAC_01569&lt;/b&gt;&lt;br&gt;Percentage identity: 55&lt;br&gt;Percentage coverage: 63&lt;br&gt;BLAST bit score: 173&lt;br&gt;E-value: 5.96e-53" locus_tag="C8J29_RS08040" class="clusterblast-orf" id="dummy-1_h1_7_9"  />
</g>
<g id="a1_0010"  >
<polygon points="448,85 453,80 481,80 481,90 453,90 448,85 " style="fill:#d81597; stroke-width:1; stroke:black; " description="&lt;b&gt;C8J29_RS08035&lt;/b&gt;&lt;br&gt;carotenoid 1,2-hydratase&lt;br&gt;Location: 631768 - 630929&lt;br&gt;&lt;br&gt;&lt;b&gt;BlastP hit with PHGFGAAC_01570&lt;/b&gt;&lt;br&gt;Percentage identity: 72&lt;br&gt;Percentage coverage: 96&lt;br&gt;BLAST bit score: 439&lt;br&gt;E-value: 2.88e-155" locus_tag="C8J29_RS08035" class="clusterblast-orf" id="dummy-1_h1_7_10"  />
</g>
<g id="a1_0011"  >
<polygon points="483,85 488,80 541,80 541,90 488,90 483,85 " style="fill:#d8d815; stroke-width:1; stroke:black; " description="&lt;b&gt;C8J29_RS08030&lt;/b&gt;&lt;br&gt;phytoene desaturase&lt;br&gt;Location: 630863 - 629376&lt;br&gt;&lt;br&gt;&lt;b&gt;BlastP hit with PHGFGAAC_01571&lt;/b&gt;&lt;br&gt;Percentage identity: 63&lt;br&gt;Percentage coverage: 98&lt;br&gt;BLAST bit score: 602&lt;br&gt;E-value: 1.27e-212" locus_tag="C8J29_RS08030" class="clusterblast-orf" id="dummy-1_h1_7_11"  />
</g>
<g id="a1_0012"  >
<polygon points="548,90 575,90 580,85 575,80 548,80 548,90 " style="fill:#15d897; stroke-width:1; stroke:black; " description="&lt;b&gt;C8J29_RS08025&lt;/b&gt;&lt;br&gt;polyprenyl synthetase family protein&lt;br&gt;Location: 629201 - 628365&lt;br&gt;&lt;br&gt;&lt;b&gt;BlastP hit with PHGFGAAC_01572&lt;/b&gt;&lt;br&gt;Percentage identity: 77&lt;br&gt;Percentage coverage: 93&lt;br&gt;BLAST bit score: 417&lt;br&gt;E-value: 1.73e-146" locus_tag="C8J29_RS08025" class="clusterblast-orf" id="dummy-1_h1_7_12"  />
</g>
<g id="a1_0013"  >
<polygon points="582,90 621,90 626,85 621,80 582,80 582,90 " style="fill:#5615d8; stroke-width:1; stroke:black; " description="&lt;b&gt;C8J29_RS08020&lt;/b&gt;&lt;br&gt;SAM-dependent methyltransferase&lt;br&gt;Location: 628312 - 627173&lt;br&gt;&lt;br&gt;&lt;b&gt;BlastP hit with PHGFGAAC_01573&lt;/b&gt;&lt;br&gt;Percentage identity: 66&lt;br&gt;Percentage coverage: 98&lt;br&gt;BLAST bit score: 451&lt;br&gt;E-value: 5.91e-157" locus_tag="C8J29_RS08020" class="clusterblast-orf" id="dummy-1_h1_7_13"  />
</g>
<g id="a1_0014"  >
<polygon points="632,90 664,90 669,85 664,80 632,80 632,90 " style="fill:#d81556; stroke-width:1; stroke:black; " description="&lt;b&gt;C8J29_RS08015&lt;/b&gt;&lt;br&gt;chlorophyll synthesis pathway protein BchC&lt;br&gt;Location: 627020 - 626064&lt;br&gt;&lt;br&gt;&lt;b&gt;BlastP hit with PHGFGAAC_01574&lt;/b&gt;&lt;br&gt;Percentage identity: 70&lt;br&gt;Percentage coverage: 100&lt;br&gt;BLAST bit score: 452&lt;br&gt;E-value: 1.58e-159" locus_tag="C8J29_RS08015" class="clusterblast-orf" id="dummy-1_h1_7_14"  />
</g>
<g id="a1_0015"  >
<polygon points="669,90 703,90 708,85 703,80 669,80 669,90 " style="fill:#97d815; stroke-width:1; stroke:black; " description="&lt;b&gt;C8J29_RS08010&lt;/b&gt;&lt;br&gt;chlorophyllide a reductase iron protein subunit X&lt;br&gt;Location: 626067 - 625066&lt;br&gt;&lt;br&gt;&lt;b&gt;BlastP hit with PHGFGAAC_01575&lt;/b&gt;&lt;br&gt;Percentage identity: 84&lt;br&gt;Percentage coverage: 99&lt;br&gt;BLAST bit score: 555&lt;br&gt;E-value: 1.63e-199" locus_tag="C8J29_RS08010" class="clusterblast-orf" id="dummy-1_h1_7_15"  />
</g>
<g id="a1_0016"  >
<polygon points="711,90 764,90 769,85 764,80 711,80 711,90 " style="fill:#15d8d8; stroke-width:1; stroke:black; " description="&lt;b&gt;C8J29_RS08005&lt;/b&gt;&lt;br&gt;chlorophyllide a reductase subunit Y&lt;br&gt;Location: 624990 - 623482&lt;br&gt;&lt;br&gt;&lt;b&gt;BlastP hit with PHGFGAAC_01576&lt;/b&gt;&lt;br&gt;Percentage identity: 83&lt;br&gt;Percentage coverage: 94&lt;br&gt;BLAST bit score: 830&lt;br&gt;E-value: 2.6e-302" locus_tag="C8J29_RS08005" class="clusterblast-orf" id="dummy-1_h1_7_16"  />
</g>
</svg>
