<svg xmlns="http://www.w3.org/2000/svg" xmlns:xlink="http://www.w3.org/1999/xlink" version="1.1" x="0" y="0" height="230" width="800" viewBox="0 0 800 230" preserveAspectRatio="none"  >
<g label="Query sequence" class="clusterblast-cluster"  >
<text x="5" y="20" class="clusterblast-acc"  >
Query sequence</text>
<line x1="10" y1="35" x2="778.0" y2="35" style="stroke-width:1; stroke:grey; "  />
<polygon points="0,35 5,30 13,30 13,40 5,40 0,35 " style="fill:#d81515; stroke-width:1; stroke:black; " description="&lt;b&gt;PHGFGAAC_01472&lt;/b&gt;&lt;br&gt;Protein FeSII&lt;br&gt;Location: 60085 - 60454" locus_tag="PHGFGAAC_01472" class="clusterblast-orf" id="dummy-1_q0_0_all"  />
<polygon points="20,35 25,30 49,30 49,40 25,40 20,35 " style="fill:#6cd815; stroke-width:1; stroke:black; " description="&lt;b&gt;PHGFGAAC_01473&lt;/b&gt;&lt;br&gt;Glutamine transport ATP-binding protein GlnQ&lt;br&gt;Location: 60639 - 61431" locus_tag="PHGFGAAC_01473" class="clusterblast-orf" id="dummy-1_q1_0_all"  />
<polygon points="49,35 54,30 97,30 97,40 54,40 49,35 " style="fill:#15c3d8; stroke-width:1; stroke:black; " description="&lt;b&gt;PHGFGAAC_01474&lt;/b&gt;&lt;br&gt;Inner membrane amino-acid ABC transporter permease protein YhdY&lt;br&gt;Location: 61440 - 62748" locus_tag="PHGFGAAC_01474" class="clusterblast-orf" id="dummy-1_q2_0_all"  />
<polygon points="97,35 102,30 143,30 143,40 102,40 97,35 " style="fill:#15c3d8; stroke-width:1; stroke:black; " description="&lt;b&gt;PHGFGAAC_01475&lt;/b&gt;&lt;br&gt;hypothetical protein&lt;br&gt;Location: 62749 - 64021" locus_tag="PHGFGAAC_01475" class="clusterblast-orf" id="dummy-1_q3_0_all"  />
<polygon points="148,35 153,30 185,30 185,40 153,40 148,35 " style="fill:#9715d8; stroke-width:1; stroke:black; " description="&lt;b&gt;PHGFGAAC_01476&lt;/b&gt;&lt;br&gt;Putative amino-acid ABC transporter-binding protein YhdW&lt;br&gt;Location: 64155 - 65172" locus_tag="PHGFGAAC_01476" class="clusterblast-orf" id="dummy-1_q4_0_all"  />
<polygon points="193,35 198,30 219,30 219,40 198,40 193,35 " style="fill:#d84115; stroke-width:1; stroke:black; " description="&lt;b&gt;PHGFGAAC_01477&lt;/b&gt;&lt;br&gt;hypothetical protein&lt;br&gt;Location: 65383 - 66103" locus_tag="PHGFGAAC_01477" class="clusterblast-orf" id="dummy-1_q5_0_all"  />
<polygon points="219,35 224,30 244,30 244,40 224,40 219,35 " style="fill:#41d815; stroke-width:1; stroke:black; " description="&lt;b&gt;PHGFGAAC_01478&lt;/b&gt;&lt;br&gt;N-acetylmuramic acid 6-phosphate phosphatase&lt;br&gt;Location: 66099 - 66768" locus_tag="PHGFGAAC_01478" class="clusterblast-orf" id="dummy-1_q6_0_all"  />
<polygon points="244,35 249,30 282,30 282,40 249,40 244,35 " style="fill:#1597d8; stroke-width:1; stroke:black; " description="&lt;b&gt;PHGFGAAC_01479&lt;/b&gt;&lt;br&gt;Ribosomal large subunit pseudouridine synthase C&lt;br&gt;Location: 66767 - 67817" locus_tag="PHGFGAAC_01479" class="clusterblast-orf" id="dummy-1_q7_0_all"  />
<polygon points="282,35 287,30 295,30 295,40 287,40 282,35 " style="fill:#c315d8; stroke-width:1; stroke:black; " description="&lt;b&gt;PHGFGAAC_01480&lt;/b&gt;&lt;br&gt;Putative fluoride ion transporter CrcB&lt;br&gt;Location: 67813 - 68191" locus_tag="PHGFGAAC_01480" class="clusterblast-orf" id="dummy-1_q8_0_all"  />
<polygon points="298,35 303,30 346,30 346,40 303,40 298,35 " style="fill:#d86c15; stroke-width:1; stroke:black; " description="&lt;b&gt;PHGFGAAC_01481&lt;/b&gt;&lt;br&gt;Replication-associated recombination protein A&lt;br&gt;Location: 68269 - 69580" locus_tag="PHGFGAAC_01481" class="clusterblast-orf" id="dummy-1_q9_0_all"  />
<polygon points="348,35 353,30 369,30 369,40 353,40 348,35 " style="fill:#15d815; stroke-width:1; stroke:black; " description="&lt;b&gt;PHGFGAAC_01482&lt;/b&gt;&lt;br&gt;Acyl-homoserine-lactone synthase&lt;br&gt;Location: 69632 - 70220" locus_tag="PHGFGAAC_01482" class="clusterblast-orf" id="dummy-1_q10_0_all"  />
<polygon points="371,35 376,30 394,30 394,40 376,40 371,35 " style="fill:#156cd8; stroke-width:1; stroke:black; " description="&lt;b&gt;PHGFGAAC_01483&lt;/b&gt;&lt;br&gt;hypothetical protein&lt;br&gt;Location: 70275 - 70887" locus_tag="PHGFGAAC_01483" class="clusterblast-orf" id="dummy-1_q11_0_all"  />
<polygon points="398,35 403,30 420,30 420,40 403,40 398,35 " style="fill:#15d815; stroke-width:1; stroke:black; " description="&lt;b&gt;PHGFGAAC_01484&lt;/b&gt;&lt;br&gt;hypothetical protein&lt;br&gt;Location: 71012 - 71603" locus_tag="PHGFGAAC_01484" class="clusterblast-orf" id="dummy-1_q12_0_all"  />
<polygon points="422,35 427,30 444,30 444,40 427,40 422,35 " style="fill:#156cd8; stroke-width:1; stroke:black; " description="&lt;b&gt;PHGFGAAC_01485&lt;/b&gt;&lt;br&gt;hypothetical protein&lt;br&gt;Location: 71659 - 72271" locus_tag="PHGFGAAC_01485" class="clusterblast-orf" id="dummy-1_q13_0_all"  />
<polygon points="450,35 455,30 466,30 466,40 455,40 450,35 " style="fill:#d815c3; stroke-width:1; stroke:black; " description="&lt;b&gt;PHGFGAAC_01486&lt;/b&gt;&lt;br&gt;50S ribosomal protein L17&lt;br&gt;Location: 72439 - 72856" locus_tag="PHGFGAAC_01486" class="clusterblast-orf" id="dummy-1_q14_0_all"  />
<polygon points="471,35 476,30 508,30 508,40 476,40 471,35 " style="fill:#d89715; stroke-width:1; stroke:black; " description="&lt;b&gt;PHGFGAAC_01487&lt;/b&gt;&lt;br&gt;DNA-directed RNA polymerase subunit alpha&lt;br&gt;Location: 73013 - 74030" locus_tag="PHGFGAAC_01487" class="clusterblast-orf" id="dummy-1_q15_0_all"  />
<polygon points="513,35 518,30 527,30 527,40 518,40 513,35 " style="fill:#15d841; stroke-width:1; stroke:black; " description="&lt;b&gt;PHGFGAAC_01488&lt;/b&gt;&lt;br&gt;30S ribosomal protein S11&lt;br&gt;Location: 74147 - 74537" locus_tag="PHGFGAAC_01488" class="clusterblast-orf" id="dummy-1_q16_0_all"  />
<polygon points="527,35 532,30 541,30 541,40 532,40 527,35 " style="fill:#1541d8; stroke-width:1; stroke:black; " description="&lt;b&gt;PHGFGAAC_01489&lt;/b&gt;&lt;br&gt;30S ribosomal protein S13&lt;br&gt;Location: 74552 - 74921" locus_tag="PHGFGAAC_01489" class="clusterblast-orf" id="dummy-1_q17_0_all"  />
<polygon points="548,35 553,30 572,30 572,40 553,40 548,35 " style="fill:#d81597; stroke-width:1; stroke:black; " description="&lt;b&gt;PHGFGAAC_01490&lt;/b&gt;&lt;br&gt;Adenylate kinase&lt;br&gt;Location: 75104 - 75761" locus_tag="PHGFGAAC_01490" class="clusterblast-orf" id="dummy-1_q18_0_all"  />
<polygon points="572,35 577,30 622,30 622,40 577,40 572,35 " style="fill:#d8c315; stroke-width:1; stroke:black; " description="&lt;b&gt;PHGFGAAC_01491&lt;/b&gt;&lt;br&gt;Protein translocase subunit SecY&lt;br&gt;Location: 75775 - 77137" locus_tag="PHGFGAAC_01491" class="clusterblast-orf" id="dummy-1_q19_0_all"  />
<polygon points="625,35 630,30 643,30 643,40 630,40 625,35 " style="fill:#15d86c; stroke-width:1; stroke:black; " description="&lt;b&gt;PHGFGAAC_01492&lt;/b&gt;&lt;br&gt;50S ribosomal protein L15&lt;br&gt;Location: 77238 - 77709" locus_tag="PHGFGAAC_01492" class="clusterblast-orf" id="dummy-1_q20_0_all"  />
<polygon points="646,35 651,30 653,30 653,40 651,40 646,35 " style="fill:#1515d8; stroke-width:1; stroke:black; " description="&lt;b&gt;PHGFGAAC_01493&lt;/b&gt;&lt;br&gt;50S ribosomal protein L30&lt;br&gt;Location: 77814 - 78006" locus_tag="PHGFGAAC_01493" class="clusterblast-orf" id="dummy-1_q21_0_all"  />
<polygon points="654,35 659,30 674,30 674,40 659,40 654,35 " style="fill:#d8156c; stroke-width:1; stroke:black; " description="&lt;b&gt;PHGFGAAC_01494&lt;/b&gt;&lt;br&gt;30S ribosomal protein S5&lt;br&gt;Location: 78017 - 78584" locus_tag="PHGFGAAC_01494" class="clusterblast-orf" id="dummy-1_q22_0_all"  />
<polygon points="675,35 680,30 688,30 688,40 680,40 675,35 " style="fill:#c3d815; stroke-width:1; stroke:black; " description="&lt;b&gt;PHGFGAAC_01495&lt;/b&gt;&lt;br&gt;50S ribosomal protein L18&lt;br&gt;Location: 78594 - 78954" locus_tag="PHGFGAAC_01495" class="clusterblast-orf" id="dummy-1_q23_0_all"  />
<polygon points="688,35 693,30 708,30 708,40 693,40 688,35 " style="fill:#15d897; stroke-width:1; stroke:black; " description="&lt;b&gt;PHGFGAAC_01496&lt;/b&gt;&lt;br&gt;50S ribosomal protein L6&lt;br&gt;Location: 78965 - 79499" locus_tag="PHGFGAAC_01496" class="clusterblast-orf" id="dummy-1_q24_0_all"  />
<polygon points="708,35 713,30 723,30 723,40 713,40 708,35 " style="fill:#4115d8; stroke-width:1; stroke:black; " description="&lt;b&gt;PHGFGAAC_01497&lt;/b&gt;&lt;br&gt;30S ribosomal protein S8&lt;br&gt;Location: 79509 - 79908" locus_tag="PHGFGAAC_01497" class="clusterblast-orf" id="dummy-1_q25_0_all"  />
<polygon points="723,35 728,30 734,30 734,40 728,40 723,35 " style="fill:#d81541; stroke-width:1; stroke:black; " description="&lt;b&gt;PHGFGAAC_01498&lt;/b&gt;&lt;br&gt;30S ribosomal protein S14&lt;br&gt;Location: 79918 - 80224" locus_tag="PHGFGAAC_01498" class="clusterblast-orf" id="dummy-1_q26_0_all"  />
<polygon points="735,35 740,30 755,30 755,40 740,40 735,35 " style="fill:#97d815; stroke-width:1; stroke:black; " description="&lt;b&gt;PHGFGAAC_01499&lt;/b&gt;&lt;br&gt;50S ribosomal protein L5&lt;br&gt;Location: 80241 - 80802" locus_tag="PHGFGAAC_01499" class="clusterblast-orf" id="dummy-1_q27_0_all"  />
<polygon points="755,35 760,30 766,30 766,40 760,40 755,35 " style="fill:#15d8c3; stroke-width:1; stroke:black; " description="&lt;b&gt;PHGFGAAC_01500&lt;/b&gt;&lt;br&gt;50S ribosomal protein L24&lt;br&gt;Location: 80801 - 81107" locus_tag="PHGFGAAC_01500" class="clusterblast-orf" id="dummy-1_q28_0_all"  />
<polygon points="766,35 771,30 780,30 780,40 771,40 766,35 " style="fill:#6c15d8; stroke-width:1; stroke:black; " description="&lt;b&gt;PHGFGAAC_01501&lt;/b&gt;&lt;br&gt;50S ribosomal protein L14&lt;br&gt;Location: 81106 - 81475" locus_tag="PHGFGAAC_01501" class="clusterblast-orf" id="dummy-1_q29_0_all"  />
</g>
<g label="NZ_CP004372" description="NZ_CP004372 (1537638-1556902): Roseibacterium elongatum DSM 19469, complete g... (100% of genes show similarity), hserlactone" class="clusterblast-cluster"  >
<text x="5" y="70" class="clusterblast-acc"  >
<a xlink:href="https://antismash-db.secondarymetabolites.org/area.html?record=NZ_CP004372&amp;start=1537638&amp;end=1556902" target="_blank">NZ_CP004372 (1537638-1556902)</a>: Roseibacterium elongatum DSM 19469, complete g... (100% of genes show similarity), hserlactone</text>
<line x1="10" y1="85" x2="778.0" y2="85" style="stroke-width:1; stroke:grey; "  />
</g>
<g id="a1_000"  >
<polygon points="38,85 43,80 67,80 67,90 43,90 38,85 " style="fill:#6cd815; stroke-width:1; stroke:black; " description="&lt;b&gt;ROSELON_RS07510&lt;/b&gt;&lt;br&gt;amino acid ABC transporter ATP-binding protein&lt;br&gt;Location: 1556902 - 1556108&lt;br&gt;&lt;br&gt;&lt;b&gt;BlastP hit with PHGFGAAC_01473&lt;/b&gt;&lt;br&gt;Percentage identity: 88&lt;br&gt;Percentage coverage: 97&lt;br&gt;BLAST bit score: 455&lt;br&gt;E-value: 3.14e-162" locus_tag="ROSELON_RS07510" class="clusterblast-orf" id="dummy-1_h1_7_0"  />
</g>
<g id="a1_001"  >
<polygon points="68,85 73,80 116,80 116,90 73,90 68,85 " style="fill:#15c3d8; stroke-width:1; stroke:black; " description="&lt;b&gt;ROSELON_RS07505&lt;/b&gt;&lt;br&gt;amino acid ABC transporter permease&lt;br&gt;Location: 1556093 - 1554768&lt;br&gt;&lt;br&gt;&lt;b&gt;BlastP hit with PHGFGAAC_01474&lt;/b&gt;&lt;br&gt;Percentage identity: 60&lt;br&gt;Percentage coverage: 99&lt;br&gt;BLAST bit score: 503&lt;br&gt;E-value: 1.3e-175&lt;br&gt;&lt;br&gt;&lt;b&gt;BlastP hit with PHGFGAAC_01475&lt;/b&gt;&lt;br&gt;Percentage identity: 42&lt;br&gt;Percentage coverage: 21&lt;br&gt;BLAST bit score: 69&lt;br&gt;E-value: 1.82e-10" locus_tag="ROSELON_RS07505" class="clusterblast-orf" id="dummy-1_h1_7_1"  />
</g>
<g id="a1_002"  >
<polygon points="116,85 121,80 161,80 161,90 121,90 116,85 " style="fill:#15c3d8; stroke-width:1; stroke:black; " description="&lt;b&gt;ROSELON_RS07500&lt;/b&gt;&lt;br&gt;ABC transporter permease subunit&lt;br&gt;Location: 1554766 - 1553549&lt;br&gt;&lt;br&gt;&lt;b&gt;BlastP hit with PHGFGAAC_01474&lt;/b&gt;&lt;br&gt;Percentage identity: 41&lt;br&gt;Percentage coverage: 19&lt;br&gt;BLAST bit score: 67&lt;br&gt;E-value: 4.07e-10&lt;br&gt;&lt;br&gt;&lt;b&gt;BlastP hit with PHGFGAAC_01475&lt;/b&gt;&lt;br&gt;Percentage identity: 64&lt;br&gt;Percentage coverage: 100&lt;br&gt;BLAST bit score: 476&lt;br&gt;E-value: 9.93e-166" locus_tag="ROSELON_RS07500" class="clusterblast-orf" id="dummy-1_h1_7_2"  />
</g>
<g id="a1_003"  >
<polygon points="166,85 171,80 203,80 203,90 171,90 166,85 " style="fill:#9715d8; stroke-width:1; stroke:black; " description="&lt;b&gt;ROSELON_RS07495&lt;/b&gt;&lt;br&gt;amino acid ABC transporter substrate-binding protein&lt;br&gt;Location: 1553397 - 1552381&lt;br&gt;&lt;br&gt;&lt;b&gt;BlastP hit with PHGFGAAC_01476&lt;/b&gt;&lt;br&gt;Percentage identity: 75&lt;br&gt;Percentage coverage: 100&lt;br&gt;BLAST bit score: 538&lt;br&gt;E-value: 8.09e-193" locus_tag="ROSELON_RS07495" class="clusterblast-orf" id="dummy-1_h1_7_3"  />
</g>
<g id="a1_004"  >
<polygon points="212,85 217,80 238,80 238,90 217,90 212,85 " style="fill:#d84115; stroke-width:1; stroke:black; " description="&lt;b&gt;ROSELON_RS07490&lt;/b&gt;&lt;br&gt;ATPase&lt;br&gt;Location: 1552145 - 1551432&lt;br&gt;&lt;br&gt;&lt;b&gt;BlastP hit with PHGFGAAC_01477&lt;/b&gt;&lt;br&gt;Percentage identity: 54&lt;br&gt;Percentage coverage: 97&lt;br&gt;BLAST bit score: 230&lt;br&gt;E-value: 3.17e-74" locus_tag="ROSELON_RS07490" class="clusterblast-orf" id="dummy-1_h1_7_4"  />
</g>
<g id="a1_005"  >
<polygon points="238,85 243,80 262,80 262,90 243,90 238,85 " style="fill:#41d815; stroke-width:1; stroke:black; " description="&lt;b&gt;ROSELON_RS07485&lt;/b&gt;&lt;br&gt;HAD-IA family hydrolase&lt;br&gt;Location: 1551435 - 1550755&lt;br&gt;&lt;br&gt;&lt;b&gt;BlastP hit with PHGFGAAC_01478&lt;/b&gt;&lt;br&gt;Percentage identity: 56&lt;br&gt;Percentage coverage: 98&lt;br&gt;BLAST bit score: 223&lt;br&gt;E-value: 4.51e-72" locus_tag="ROSELON_RS07485" class="clusterblast-orf" id="dummy-1_h1_7_5"  />
</g>
<g id="a1_006"  >
<polygon points="262,85 267,80 300,80 300,90 267,90 262,85 " style="fill:#1597d8; stroke-width:1; stroke:black; " description="&lt;b&gt;ROSELON_RS07480&lt;/b&gt;&lt;br&gt;RluA family pseudouridine synthase&lt;br&gt;Location: 1550758 - 1549718&lt;br&gt;&lt;br&gt;&lt;b&gt;BlastP hit with PHGFGAAC_01479&lt;/b&gt;&lt;br&gt;Percentage identity: 71&lt;br&gt;Percentage coverage: 100&lt;br&gt;BLAST bit score: 511&lt;br&gt;E-value: 7.54e-182" locus_tag="ROSELON_RS07480" class="clusterblast-orf" id="dummy-1_h1_7_6"  />
</g>
<g id="a1_007"  >
<polygon points="300,85 305,80 314,80 314,90 305,90 300,85 " style="fill:#c315d8; stroke-width:1; stroke:black; " description="&lt;b&gt;ROSELON_RS07475&lt;/b&gt;&lt;br&gt;fluoride efflux transporter CrcB&lt;br&gt;Location: 1549721 - 1549341&lt;br&gt;&lt;br&gt;&lt;b&gt;BlastP hit with PHGFGAAC_01480&lt;/b&gt;&lt;br&gt;Percentage identity: 53&lt;br&gt;Percentage coverage: 98&lt;br&gt;BLAST bit score: 117&lt;br&gt;E-value: 4.05e-33" locus_tag="ROSELON_RS07475" class="clusterblast-orf" id="dummy-1_h1_7_7"  />
</g>
<g id="a1_008"  >
<polygon points="315,85 320,80 363,80 363,90 320,90 315,85 " style="fill:#d86c15; stroke-width:1; stroke:black; " description="&lt;b&gt;ROSELON_RS07470&lt;/b&gt;&lt;br&gt;replication-associated recombination protein A&lt;br&gt;Location: 1549309 - 1547987&lt;br&gt;&lt;br&gt;&lt;b&gt;BlastP hit with PHGFGAAC_01481&lt;/b&gt;&lt;br&gt;Percentage identity: 75&lt;br&gt;Percentage coverage: 101&lt;br&gt;BLAST bit score: 635&lt;br&gt;E-value: 1.38e-227" locus_tag="ROSELON_RS07470" class="clusterblast-orf" id="dummy-1_h1_7_8"  />
</g>
<g id="a1_009"  >
<polygon points="365,85 370,80 386,80 386,90 370,90 365,85 " style="fill:#15d815; stroke-width:1; stroke:black; " description="&lt;b&gt;ROSELON_RS07465&lt;/b&gt;&lt;br&gt;N-acyl-L-homoserine lactone synthetase&lt;br&gt;Location: 1547952 - 1547365&lt;br&gt;&lt;br&gt;&lt;b&gt;BlastP hit with PHGFGAAC_01482&lt;/b&gt;&lt;br&gt;Percentage identity: 61&lt;br&gt;Percentage coverage: 100&lt;br&gt;BLAST bit score: 255&lt;br&gt;E-value: 2.04e-85&lt;br&gt;&lt;br&gt;&lt;b&gt;BlastP hit with PHGFGAAC_01484&lt;/b&gt;&lt;br&gt;Percentage identity: 53&lt;br&gt;Percentage coverage: 100&lt;br&gt;BLAST bit score: 211&lt;br&gt;E-value: 3.18e-68" locus_tag="ROSELON_RS07465" class="clusterblast-orf" id="dummy-1_h1_7_9"  />
</g>
<g id="a1_0010"  >
<polygon points="389,85 394,80 411,80 411,90 394,90 389,85 " style="fill:#156cd8; stroke-width:1; stroke:black; " description="&lt;b&gt;ROSELON_RS07460&lt;/b&gt;&lt;br&gt;LuxR family transcriptional regulator&lt;br&gt;Location: 1547284 - 1546673&lt;br&gt;&lt;br&gt;&lt;b&gt;BlastP hit with PHGFGAAC_01483&lt;/b&gt;&lt;br&gt;Percentage identity: 52&lt;br&gt;Percentage coverage: 100&lt;br&gt;BLAST bit score: 214&lt;br&gt;E-value: 4.63e-69&lt;br&gt;&lt;br&gt;&lt;b&gt;BlastP hit with PHGFGAAC_01485&lt;/b&gt;&lt;br&gt;Percentage identity: 58&lt;br&gt;Percentage coverage: 98&lt;br&gt;BLAST bit score: 224&lt;br&gt;E-value: 7.42e-73" locus_tag="ROSELON_RS07460" class="clusterblast-orf" id="dummy-1_h1_7_10"  />
</g>
<g id="a1_0011"  >
<polygon points="418,85 423,80 433,80 433,90 423,90 418,85 " style="fill:#d815c3; stroke-width:1; stroke:black; " description="&lt;b&gt;ROSELON_RS07455&lt;/b&gt;&lt;br&gt;50S ribosomal protein L17&lt;br&gt;Location: 1546494 - 1546071&lt;br&gt;&lt;br&gt;&lt;b&gt;BlastP hit with PHGFGAAC_01486&lt;/b&gt;&lt;br&gt;Percentage identity: 90&lt;br&gt;Percentage coverage: 90&lt;br&gt;BLAST bit score: 223&lt;br&gt;E-value: 1.08e-74" locus_tag="ROSELON_RS07455" class="clusterblast-orf" id="dummy-1_h1_7_11"  />
</g>
<g id="a1_0012"  >
<polygon points="438,85 443,80 475,80 475,90 443,90 438,85 " style="fill:#d89715; stroke-width:1; stroke:black; " description="&lt;b&gt;ROSELON_RS07450&lt;/b&gt;&lt;br&gt;DNA-directed RNA polymerase subunit alpha&lt;br&gt;Location: 1545937 - 1544921&lt;br&gt;&lt;br&gt;&lt;b&gt;BlastP hit with PHGFGAAC_01487&lt;/b&gt;&lt;br&gt;Percentage identity: 89&lt;br&gt;Percentage coverage: 100&lt;br&gt;BLAST bit score: 602&lt;br&gt;E-value: 4.19e-218" locus_tag="ROSELON_RS07450" class="clusterblast-orf" id="dummy-1_h1_7_12"  />
</g>
<g id="a1_0013"  >
<polygon points="479,85 484,80 494,80 494,90 484,90 479,85 " style="fill:#15d841; stroke-width:1; stroke:black; " description="&lt;b&gt;ROSELON_RS07445&lt;/b&gt;&lt;br&gt;30S ribosomal protein S11&lt;br&gt;Location: 1544806 - 1544417&lt;br&gt;&lt;br&gt;&lt;b&gt;BlastP hit with PHGFGAAC_01488&lt;/b&gt;&lt;br&gt;Percentage identity: 91&lt;br&gt;Percentage coverage: 100&lt;br&gt;BLAST bit score: 223&lt;br&gt;E-value: 7.15e-75" locus_tag="ROSELON_RS07445" class="clusterblast-orf" id="dummy-1_h1_7_13"  />
</g>
<g id="a1_0014"  >
<polygon points="494,85 499,80 508,80 508,90 499,90 494,85 " style="fill:#1541d8; stroke-width:1; stroke:black; " description="&lt;b&gt;ROSELON_RS07440&lt;/b&gt;&lt;br&gt;30S ribosomal protein S13&lt;br&gt;Location: 1544401 - 1544033&lt;br&gt;&lt;br&gt;&lt;b&gt;BlastP hit with PHGFGAAC_01489&lt;/b&gt;&lt;br&gt;Percentage identity: 88&lt;br&gt;Percentage coverage: 100&lt;br&gt;BLAST bit score: 206&lt;br&gt;E-value: 2.19e-68" locus_tag="ROSELON_RS07440" class="clusterblast-orf" id="dummy-1_h1_7_14"  />
</g>
<g id="a1_0015"  >
<polygon points="516,85 521,80 537,80 537,90 521,90 516,85 " style="fill:#d81597; stroke-width:1; stroke:black; " description="&lt;b&gt;ROSELON_RS07435&lt;/b&gt;&lt;br&gt;adenylate kinase&lt;br&gt;Location: 1543810 - 1543235&lt;br&gt;&lt;br&gt;&lt;b&gt;BlastP hit with PHGFGAAC_01490&lt;/b&gt;&lt;br&gt;Percentage identity: 64&lt;br&gt;Percentage coverage: 98&lt;br&gt;BLAST bit score: 241&lt;br&gt;E-value: 1.82e-79" locus_tag="ROSELON_RS07435" class="clusterblast-orf" id="dummy-1_h1_7_15"  />
</g>
<g id="a1_0016"  >
<polygon points="537,85 542,80 586,80 586,90 542,90 537,85 " style="fill:#d8c315; stroke-width:1; stroke:black; " description="&lt;b&gt;ROSELON_RS07430&lt;/b&gt;&lt;br&gt;preprotein translocase subunit SecY&lt;br&gt;Location: 1543238 - 1541868&lt;br&gt;&lt;br&gt;&lt;b&gt;BlastP hit with PHGFGAAC_01491&lt;/b&gt;&lt;br&gt;Percentage identity: 78&lt;br&gt;Percentage coverage: 101&lt;br&gt;BLAST bit score: 697&lt;br&gt;E-value: 1.08e-251" locus_tag="ROSELON_RS07430" class="clusterblast-orf" id="dummy-1_h1_7_16"  />
</g>
<g id="a1_0017"  >
<polygon points="591,85 596,80 609,80 609,90 596,90 591,85 " style="fill:#15d86c; stroke-width:1; stroke:black; " description="&lt;b&gt;ROSELON_RS07425&lt;/b&gt;&lt;br&gt;50S ribosomal protein L15&lt;br&gt;Location: 1541734 - 1541261&lt;br&gt;&lt;br&gt;&lt;b&gt;BlastP hit with PHGFGAAC_01492&lt;/b&gt;&lt;br&gt;Percentage identity: 69&lt;br&gt;Percentage coverage: 94&lt;br&gt;BLAST bit score: 187&lt;br&gt;E-value: 5.36e-60" locus_tag="ROSELON_RS07425" class="clusterblast-orf" id="dummy-1_h1_7_17"  />
</g>
<g id="a1_0018"  >
<polygon points="616,85 621,80 623,80 623,90 621,90 616,85 " style="fill:#1515d8; stroke-width:1; stroke:black; " description="&lt;b&gt;ROSELON_RS07420&lt;/b&gt;&lt;br&gt;50S ribosomal protein L30&lt;br&gt;Location: 1541065 - 1540877&lt;br&gt;&lt;br&gt;&lt;b&gt;BlastP hit with PHGFGAAC_01493&lt;/b&gt;&lt;br&gt;Percentage identity: 75&lt;br&gt;Percentage coverage: 95&lt;br&gt;BLAST bit score: 96&lt;br&gt;E-value: 2.74e-26" locus_tag="ROSELON_RS07420" class="clusterblast-orf" id="dummy-1_h1_7_18"  />
</g>
<g id="a1_0019"  >
<polygon points="623,85 628,80 644,80 644,90 628,90 623,85 " style="fill:#d8156c; stroke-width:1; stroke:black; " description="&lt;b&gt;ROSELON_RS07415&lt;/b&gt;&lt;br&gt;30S ribosomal protein S5&lt;br&gt;Location: 1540871 - 1540290&lt;br&gt;&lt;br&gt;&lt;b&gt;BlastP hit with PHGFGAAC_01494&lt;/b&gt;&lt;br&gt;Percentage identity: 81&lt;br&gt;Percentage coverage: 100&lt;br&gt;BLAST bit score: 285&lt;br&gt;E-value: 1.94e-97" locus_tag="ROSELON_RS07415" class="clusterblast-orf" id="dummy-1_h1_7_19"  />
</g>
<g id="a1_0020"  >
<polygon points="649,85 654,80 662,80 662,90 654,90 649,85 " style="fill:#c3d815; stroke-width:1; stroke:black; " description="&lt;b&gt;ROSELON_RS07410&lt;/b&gt;&lt;br&gt;50S ribosomal protein L18&lt;br&gt;Location: 1540156 - 1539797&lt;br&gt;&lt;br&gt;&lt;b&gt;BlastP hit with PHGFGAAC_01495&lt;/b&gt;&lt;br&gt;Percentage identity: 82&lt;br&gt;Percentage coverage: 100&lt;br&gt;BLAST bit score: 189&lt;br&gt;E-value: 8.98e-62" locus_tag="ROSELON_RS07410" class="clusterblast-orf" id="dummy-1_h1_7_20"  />
</g>
<g id="a1_0021"  >
<polygon points="662,85 667,80 682,80 682,90 667,90 662,85 " style="fill:#15d897; stroke-width:1; stroke:black; " description="&lt;b&gt;ROSELON_RS07405&lt;/b&gt;&lt;br&gt;50S ribosomal protein L6&lt;br&gt;Location: 1539785 - 1539252&lt;br&gt;&lt;br&gt;&lt;b&gt;BlastP hit with PHGFGAAC_01496&lt;/b&gt;&lt;br&gt;Percentage identity: 85&lt;br&gt;Percentage coverage: 100&lt;br&gt;BLAST bit score: 297&lt;br&gt;E-value: 9.61e-103" locus_tag="ROSELON_RS07405" class="clusterblast-orf" id="dummy-1_h1_7_21"  />
</g>
<g id="a1_0022"  >
<polygon points="682,85 687,80 697,80 697,90 687,90 682,85 " style="fill:#4115d8; stroke-width:1; stroke:black; " description="&lt;b&gt;ROSELON_RS07400&lt;/b&gt;&lt;br&gt;30S ribosomal protein S8&lt;br&gt;Location: 1539239 - 1538847&lt;br&gt;&lt;br&gt;&lt;b&gt;BlastP hit with PHGFGAAC_01497&lt;/b&gt;&lt;br&gt;Percentage identity: 79&lt;br&gt;Percentage coverage: 98&lt;br&gt;BLAST bit score: 206&lt;br&gt;E-value: 6.04e-68" locus_tag="ROSELON_RS07400" class="clusterblast-orf" id="dummy-1_h1_7_22"  />
</g>
<g id="a1_0023"  >
<polygon points="697,85 702,80 708,80 708,90 702,90 697,85 " style="fill:#d81541; stroke-width:1; stroke:black; " description="&lt;b&gt;ROSELON_RS07395&lt;/b&gt;&lt;br&gt;30S ribosomal protein S14&lt;br&gt;Location: 1538832 - 1538527&lt;br&gt;&lt;br&gt;&lt;b&gt;BlastP hit with PHGFGAAC_01498&lt;/b&gt;&lt;br&gt;Percentage identity: 80&lt;br&gt;Percentage coverage: 100&lt;br&gt;BLAST bit score: 157&lt;br&gt;E-value: 1.57e-49" locus_tag="ROSELON_RS07395" class="clusterblast-orf" id="dummy-1_h1_7_23"  />
</g>
<g id="a1_0024"  >
<polygon points="709,85 714,80 730,80 730,90 714,90 709,85 " style="fill:#97d815; stroke-width:1; stroke:black; " description="&lt;b&gt;ROSELON_RS07390&lt;/b&gt;&lt;br&gt;50S ribosomal protein L5&lt;br&gt;Location: 1538506 - 1537943&lt;br&gt;&lt;br&gt;&lt;b&gt;BlastP hit with PHGFGAAC_01499&lt;/b&gt;&lt;br&gt;Percentage identity: 80&lt;br&gt;Percentage coverage: 101&lt;br&gt;BLAST bit score: 303&lt;br&gt;E-value: 1.43e-104" locus_tag="ROSELON_RS07390" class="clusterblast-orf" id="dummy-1_h1_7_24"  />
</g>
<g id="a1_0025"  >
<polygon points="729,85 734,80 741,80 741,90 734,90 729,85 " style="fill:#15d8c3; stroke-width:1; stroke:black; " description="&lt;b&gt;ROSELON_RS07385&lt;/b&gt;&lt;br&gt;50S ribosomal protein L24&lt;br&gt;Location: 1537950 - 1537639&lt;br&gt;&lt;br&gt;&lt;b&gt;BlastP hit with PHGFGAAC_01500&lt;/b&gt;&lt;br&gt;Percentage identity: 76&lt;br&gt;Percentage coverage: 100&lt;br&gt;BLAST bit score: 160&lt;br&gt;E-value: 7.1e-51" locus_tag="ROSELON_RS07385" class="clusterblast-orf" id="dummy-1_h1_7_25"  />
</g>
</svg>
