<svg xmlns="http://www.w3.org/2000/svg" xmlns:xlink="http://www.w3.org/1999/xlink" version="1.1" x="0" y="0" height="230" width="800" viewBox="0 0 800 230" preserveAspectRatio="none"  >
<g label="Query sequence" class="clusterblast-cluster"  >
<text x="5" y="20" class="clusterblast-acc"  >
Query sequence</text>
<line x1="10" y1="35" x2="778.0" y2="35" style="stroke-width:1; stroke:grey; "  />
<polygon points="19,40 24,40 29,35 24,30 19,30 19,40 " style="fill:#d81515; stroke-width:1; stroke:black; " description="&lt;b&gt;PHGFGAAC_00059&lt;/b&gt;&lt;br&gt;hypothetical protein&lt;br&gt;Location: 64585 - 64852" locus_tag="PHGFGAAC_00059" class="clusterblast-orf" id="dummy-1_q0_0_all"  />
<polygon points="55,35 60,30 115,30 115,40 60,40 55,35 " style="fill:#67d815; stroke-width:1; stroke:black; " description="&lt;b&gt;PHGFGAAC_00060&lt;/b&gt;&lt;br&gt;hypothetical protein&lt;br&gt;Location: 65511 - 67086" locus_tag="PHGFGAAC_00060" class="clusterblast-orf" id="dummy-1_q1_0_all"  />
<polygon points="115,35 120,30 170,30 170,40 120,40 115,35 " style="fill:#15b9d8; stroke-width:1; stroke:black; " description="&lt;b&gt;PHGFGAAC_00061&lt;/b&gt;&lt;br&gt;hypothetical protein&lt;br&gt;Location: 67082 - 68513" locus_tag="PHGFGAAC_00061" class="clusterblast-orf" id="dummy-1_q2_0_all"  />
<polygon points="170,35 175,30 215,30 215,40 175,40 170,35 " style="fill:#a515d8; stroke-width:1; stroke:black; " description="&lt;b&gt;PHGFGAAC_00062&lt;/b&gt;&lt;br&gt;hypothetical protein&lt;br&gt;Location: 68515 - 69703" locus_tag="PHGFGAAC_00062" class="clusterblast-orf" id="dummy-1_q3_0_all"  />
<polygon points="215,35 220,30 246,30 246,40 220,40 215,35 " style="fill:#d85315; stroke-width:1; stroke:black; " description="&lt;b&gt;PHGFGAAC_00063&lt;/b&gt;&lt;br&gt;N-acetylglucosaminyldiphosphoundecaprenol N-acetyl-beta-D-mannosaminyltransferase&lt;br&gt;Location: 69699 - 70494" locus_tag="PHGFGAAC_00063" class="clusterblast-orf" id="dummy-1_q4_0_all"  />
<polygon points="246,35 251,30 284,30 284,40 251,40 246,35 " style="fill:#2ad815; stroke-width:1; stroke:black; " description="&lt;b&gt;PHGFGAAC_00064&lt;/b&gt;&lt;br&gt;hypothetical protein&lt;br&gt;Location: 70490 - 71489" locus_tag="PHGFGAAC_00064" class="clusterblast-orf" id="dummy-1_q5_0_all"  />
<polygon points="284,35 289,30 347,30 347,40 289,40 284,35 " style="fill:#157cd8; stroke-width:1; stroke:black; " description="&lt;b&gt;PHGFGAAC_00065&lt;/b&gt;&lt;br&gt;hypothetical protein&lt;br&gt;Location: 71481 - 73122" locus_tag="PHGFGAAC_00065" class="clusterblast-orf" id="dummy-1_q6_0_all"  />
<polygon points="353,35 358,30 382,30 382,40 358,40 353,35 " style="fill:#d815ce; stroke-width:1; stroke:black; " description="&lt;b&gt;PHGFGAAC_00066&lt;/b&gt;&lt;br&gt;hypothetical protein&lt;br&gt;Location: 73286 - 74054" locus_tag="PHGFGAAC_00066" class="clusterblast-orf" id="dummy-1_q7_0_all"  />
<polygon points="382,35 387,30 410,30 410,40 387,40 382,35 " style="fill:#d89015; stroke-width:1; stroke:black; " description="&lt;b&gt;PHGFGAAC_00067&lt;/b&gt;&lt;br&gt;Trans-aconitate 2-methyltransferase&lt;br&gt;Location: 74053 - 74764" locus_tag="PHGFGAAC_00067" class="clusterblast-orf" id="dummy-1_q8_0_all"  />
<polygon points="409,35 414,30 472,30 472,40 414,40 409,35 " style="fill:#15d83e; stroke-width:1; stroke:black; " description="&lt;b&gt;PHGFGAAC_00068&lt;/b&gt;&lt;br&gt;(R)-citramalate synthase&lt;br&gt;Location: 74760 - 76383" locus_tag="PHGFGAAC_00068" class="clusterblast-orf" id="dummy-1_q9_0_all"  />
<polygon points="471,35 476,30 533,30 533,40 476,40 471,35 " style="fill:#153ed8; stroke-width:1; stroke:black; " description="&lt;b&gt;PHGFGAAC_00069&lt;/b&gt;&lt;br&gt;L-cysteine:1D-myo-inositol 2-amino-2-deoxy-alpha-D-glucopyranoside ligase&lt;br&gt;Location: 76372 - 77971" locus_tag="PHGFGAAC_00069" class="clusterblast-orf" id="dummy-1_q10_0_all"  />
<polygon points="537,40 545,40 550,35 545,30 537,30 537,40 " style="fill:#d81590; stroke-width:1; stroke:black; " description="&lt;b&gt;PHGFGAAC_00070&lt;/b&gt;&lt;br&gt;hypothetical protein&lt;br&gt;Location: 78082 - 78427" locus_tag="PHGFGAAC_00070" class="clusterblast-orf" id="dummy-1_q11_0_all"  />
<polygon points="550,35 555,30 592,30 592,40 555,40 550,35 " style="fill:#d8ce15; stroke-width:1; stroke:black; " description="&lt;b&gt;PHGFGAAC_00071&lt;/b&gt;&lt;br&gt;Spermidine/putrescine import ATP-binding protein PotA&lt;br&gt;Location: 78423 - 79518" locus_tag="PHGFGAAC_00071" class="clusterblast-orf" id="dummy-1_q12_0_all"  />
<polygon points="592,35 597,30 623,30 623,40 597,40 592,35 " style="fill:#15d87c; stroke-width:1; stroke:black; " description="&lt;b&gt;PHGFGAAC_00072&lt;/b&gt;&lt;br&gt;Inner membrane ABC transporter permease protein YdcV&lt;br&gt;Location: 79514 - 80321" locus_tag="PHGFGAAC_00072" class="clusterblast-orf" id="dummy-1_q13_0_all"  />
<polygon points="623,35 628,30 659,30 659,40 628,40 623,35 " style="fill:#2a15d8; stroke-width:1; stroke:black; " description="&lt;b&gt;PHGFGAAC_00073&lt;/b&gt;&lt;br&gt;Spermidine/putrescine transport system permease protein PotB&lt;br&gt;Location: 80317 - 81256" locus_tag="PHGFGAAC_00073" class="clusterblast-orf" id="dummy-1_q14_0_all"  />
<polygon points="663,35 668,30 683,30 683,40 668,40 663,35 " style="fill:#d81553; stroke-width:1; stroke:black; " description="&lt;b&gt;PHGFGAAC_00074&lt;/b&gt;&lt;br&gt;hypothetical protein&lt;br&gt;Location: 81372 - 81897" locus_tag="PHGFGAAC_00074" class="clusterblast-orf" id="dummy-1_q15_0_all"  />
<polygon points="684,35 689,30 738,30 738,40 689,40 684,35 " style="fill:#a5d815; stroke-width:1; stroke:black; " description="&lt;b&gt;PHGFGAAC_00075&lt;/b&gt;&lt;br&gt;Histidinol-phosphate aminotransferase&lt;br&gt;Location: 81905 - 83315" locus_tag="PHGFGAAC_00075" class="clusterblast-orf" id="dummy-1_q16_0_all"  />
<polygon points="741,40 743,40 748,35 743,30 741,30 741,40 " style="fill:#15d8b9; stroke-width:1; stroke:black; " description="&lt;b&gt;PHGFGAAC_00076&lt;/b&gt;&lt;br&gt;hypothetical protein&lt;br&gt;Location: 83402 - 83594" locus_tag="PHGFGAAC_00076" class="clusterblast-orf" id="dummy-1_q17_0_all"  />
<polygon points="751,35 756,30 761,30 761,40 756,40 751,35 " style="fill:#6715d8; stroke-width:1; stroke:black; " description="&lt;b&gt;PHGFGAAC_00077&lt;/b&gt;&lt;br&gt;hypothetical protein&lt;br&gt;Location: 83659 - 83914" locus_tag="PHGFGAAC_00077" class="clusterblast-orf" id="dummy-1_q18_0_all"  />
</g>
<g label="NZ_VNKR01000001" description="NZ_VNKR01000001 (177048-197819): Pseudoruegeria sp. M32A2M Ps Sc 8, whole gen... (25% of genes show similarity), terpene" class="clusterblast-cluster"  >
<text x="5" y="70" class="clusterblast-acc"  >
<a xlink:href="https://antismash-db.secondarymetabolites.org/area.html?record=NZ_VNKR01000001&amp;start=177048&amp;end=197819" target="_blank">NZ_VNKR01000001 (177048-197819)</a>: Pseudoruegeria sp. M32A2M Ps Sc 8, whole gen... (25% of genes show similarity), terpene</text>
<line x1="10" y1="85" x2="778.0" y2="85" style="stroke-width:1; stroke:grey; "  />
</g>
<g id="a1_000"  >
<polygon points="0,85 5,80 23,80 23,90 5,90 0,85 " style="fill:white; stroke-width:1; stroke:black; " description="&lt;b&gt;FPS10_RS00835&lt;/b&gt;&lt;br&gt;ParA family protein&lt;br&gt;Location: 177212 - 177835" locus_tag="FPS10_RS00835" class="clusterblast-orf" id="dummy-1_h1_10_0"  />
</g>
<g id="a1_001"  >
<polygon points="23,85 28,80 30,80 30,90 28,90 23,85 " style="fill:white; stroke-width:1; stroke:black; " description="&lt;b&gt;FPS10_RS25875&lt;/b&gt;&lt;br&gt;hypothetical protein&lt;br&gt;Location: 177832 - 178017" locus_tag="FPS10_RS25875" class="clusterblast-orf" id="dummy-1_h1_10_1"  />
</g>
<g id="a1_002"  >
<polygon points="39,90 45,90 50,85 45,80 39,80 39,90 " style="fill:white; stroke-width:1; stroke:black; " description="&lt;b&gt;FPS10_RS00840&lt;/b&gt;&lt;br&gt;hypothetical protein&lt;br&gt;Location: 178231 - 178530" locus_tag="FPS10_RS00840" class="clusterblast-orf" id="dummy-1_h1_10_2"  />
</g>
<g id="a1_003"  >
<polygon points="54,85 59,80 79,80 79,90 59,90 54,85 " style="fill:white; stroke-width:1; stroke:black; " description="&lt;b&gt;FPS10_RS00845&lt;/b&gt;&lt;br&gt;L,D-transpeptidase&lt;br&gt;Location: 178621 - 179283" locus_tag="FPS10_RS00845" class="clusterblast-orf" id="dummy-1_h1_10_3"  />
</g>
<g id="a1_004"  >
<polygon points="92,85 97,80 129,80 129,90 97,90 92,85 " style="fill:white; stroke-width:1; stroke:black; " description="&lt;b&gt;FPS10_RS00850&lt;/b&gt;&lt;br&gt;glycosyltransferase family 2 protein&lt;br&gt;Location: 179631 - 180596" locus_tag="FPS10_RS00850" class="clusterblast-orf" id="dummy-1_h1_10_4"  />
</g>
<g id="a1_005"  >
<polygon points="134,90 173,90 178,85 173,80 134,80 134,90 " style="fill:white; stroke-width:1; stroke:black; " description="&lt;b&gt;FPS10_RS00855&lt;/b&gt;&lt;br&gt;carboxylate-amine ligase&lt;br&gt;Location: 180719 - 181852" locus_tag="FPS10_RS00855" class="clusterblast-orf" id="dummy-1_h1_10_5"  />
</g>
<g id="a1_006"  >
<polygon points="181,90 192,90 197,85 192,80 181,80 181,90 " style="fill:white; stroke-width:1; stroke:black; " description="&lt;b&gt;FPS10_RS00860&lt;/b&gt;&lt;br&gt;hypothetical protein&lt;br&gt;Location: 181930 - 182367" locus_tag="FPS10_RS00860" class="clusterblast-orf" id="dummy-1_h1_10_6"  />
</g>
<g id="a1_007"  >
<polygon points="198,90 219,90 224,85 219,80 198,80 198,90 " style="fill:white; stroke-width:1; stroke:black; " description="&lt;b&gt;FPS10_RS00865&lt;/b&gt;&lt;br&gt;DUF2161 domain-containing phosphodiesterase&lt;br&gt;Location: 182384 - 183055" locus_tag="FPS10_RS00865" class="clusterblast-orf" id="dummy-1_h1_10_7"  />
</g>
<g id="a1_008"  >
<polygon points="228,90 245,90 250,85 245,80 228,80 228,90 " style="fill:white; stroke-width:1; stroke:black; " description="&lt;b&gt;FPS10_RS00870&lt;/b&gt;&lt;br&gt;L,D-transpeptidase family protein&lt;br&gt;Location: 183162 - 183743" locus_tag="FPS10_RS00870" class="clusterblast-orf" id="dummy-1_h1_10_8"  />
</g>
<g id="a1_009"  >
<polygon points="253,90 296,90 301,85 296,80 253,80 253,90 " style="fill:white; stroke-width:1; stroke:black; " description="&lt;b&gt;FPS10_RS00875&lt;/b&gt;&lt;br&gt;Hsp70 family protein&lt;br&gt;Location: 183824 - 185077" locus_tag="FPS10_RS00875" class="clusterblast-orf" id="dummy-1_h1_10_9"  />
</g>
<g id="a1_0010"  >
<polygon points="314,90 371,90 376,85 371,80 314,80 314,90 " style="fill:white; stroke-width:1; stroke:black; " description="&lt;b&gt;FPS10_RS00880&lt;/b&gt;&lt;br&gt;peptide chain release factor 3&lt;br&gt;Location: 185414 - 187021" locus_tag="FPS10_RS00880" class="clusterblast-orf" id="dummy-1_h1_10_10"  />
</g>
<g id="a1_0011"  >
<polygon points="377,85 382,80 407,80 407,90 382,90 377,85 " style="fill:#d815ce; stroke-width:1; stroke:black; " description="&lt;b&gt;FPS10_RS00885&lt;/b&gt;&lt;br&gt;squalene/phytoene synthase family protein&lt;br&gt;Location: 187049 - 187819&lt;br&gt;&lt;br&gt;&lt;b&gt;BlastP hit with PHGFGAAC_00066&lt;/b&gt;&lt;br&gt;Percentage identity: 49&lt;br&gt;Percentage coverage: 99&lt;br&gt;BLAST bit score: 195&lt;br&gt;E-value: 4.06e-60" locus_tag="FPS10_RS00885" class="clusterblast-orf" id="dummy-1_h1_10_11"  />
</g>
<g id="a1_0012"  >
<polygon points="406,85 411,80 434,80 434,90 411,90 406,85 " style="fill:#d89015; stroke-width:1; stroke:black; " description="&lt;b&gt;FPS10_RS00890&lt;/b&gt;&lt;br&gt;class I SAM-dependent methyltransferase&lt;br&gt;Location: 187816 - 188535&lt;br&gt;&lt;br&gt;&lt;b&gt;BlastP hit with PHGFGAAC_00067&lt;/b&gt;&lt;br&gt;Percentage identity: 44&lt;br&gt;Percentage coverage: 102&lt;br&gt;BLAST bit score: 172&lt;br&gt;E-value: 1.4e-51" locus_tag="FPS10_RS00890" class="clusterblast-orf" id="dummy-1_h1_10_12"  />
</g>
<g id="a1_0013"  >
<polygon points="434,85 439,80 497,80 497,90 439,90 434,85 " style="fill:#15d83e; stroke-width:1; stroke:black; " description="&lt;b&gt;FPS10_RS00895&lt;/b&gt;&lt;br&gt;citramalate synthase&lt;br&gt;Location: 188543 - 190174&lt;br&gt;&lt;br&gt;&lt;b&gt;BlastP hit with PHGFGAAC_00068&lt;/b&gt;&lt;br&gt;Percentage identity: 73&lt;br&gt;Percentage coverage: 100&lt;br&gt;BLAST bit score: 768&lt;br&gt;E-value: 7.89e-277" locus_tag="FPS10_RS00895" class="clusterblast-orf" id="dummy-1_h1_10_13"  />
</g>
<g id="a1_0014"  >
<polygon points="503,85 508,80 560,80 560,90 508,90 503,85 " style="fill:#153ed8; stroke-width:1; stroke:black; " description="&lt;b&gt;FPS10_RS00900&lt;/b&gt;&lt;br&gt;cysteine--tRNA ligase&lt;br&gt;Location: 190336 - 191808&lt;br&gt;&lt;br&gt;&lt;b&gt;BlastP hit with PHGFGAAC_00069&lt;/b&gt;&lt;br&gt;Percentage identity: 65&lt;br&gt;Percentage coverage: 86&lt;br&gt;BLAST bit score: 606&lt;br&gt;E-value: 8.08e-214" locus_tag="FPS10_RS00900" class="clusterblast-orf" id="dummy-1_h1_10_14"  />
</g>
<g id="a1_0015"  >
<polygon points="568,90 576,90 581,85 576,80 568,80 568,90 " style="fill:#d81590; stroke-width:1; stroke:black; " description="&lt;b&gt;FPS10_RS00905&lt;/b&gt;&lt;br&gt;MmcQ/YjbR family DNA-binding protein&lt;br&gt;Location: 192025 - 192369&lt;br&gt;&lt;br&gt;&lt;b&gt;BlastP hit with PHGFGAAC_00070&lt;/b&gt;&lt;br&gt;Percentage identity: 50&lt;br&gt;Percentage coverage: 96&lt;br&gt;BLAST bit score: 107&lt;br&gt;E-value: 2.38e-29" locus_tag="FPS10_RS00905" class="clusterblast-orf" id="dummy-1_h1_10_15"  />
</g>
<g id="a1_0016"  >
<polygon points="592,85 597,80 633,80 633,90 597,90 592,85 " style="fill:white; stroke-width:1; stroke:black; " description="&lt;b&gt;FPS10_RS00910&lt;/b&gt;&lt;br&gt;selenide, water dikinase SelD&lt;br&gt;Location: 192661 - 193725" locus_tag="FPS10_RS00910" class="clusterblast-orf" id="dummy-1_h1_10_16"  />
</g>
<g id="a1_0017"  >
<polygon points="645,85 650,80 686,80 686,90 650,90 645,85 " style="fill:white; stroke-width:1; stroke:black; " description="&lt;b&gt;FPS10_RS00915&lt;/b&gt;&lt;br&gt;Gfo/Idh/MocA family oxidoreductase&lt;br&gt;Location: 194044 - 195093" locus_tag="FPS10_RS00915" class="clusterblast-orf" id="dummy-1_h1_10_17"  />
</g>
<g id="a1_0018"  >
<polygon points="691,85 696,80 728,80 728,90 696,90 691,85 " style="fill:white; stroke-width:1; stroke:black; " description="&lt;b&gt;FPS10_RS00920&lt;/b&gt;&lt;br&gt;threonine dehydratase&lt;br&gt;Location: 195229 - 196203" locus_tag="FPS10_RS00920" class="clusterblast-orf" id="dummy-1_h1_10_18"  />
</g>
<g id="a1_0019"  >
<polygon points="733,90 775,90 780,85 775,80 733,80 733,90 " style="fill:white; stroke-width:1; stroke:black; " description="&lt;b&gt;FPS10_RS00925&lt;/b&gt;&lt;br&gt;pyridoxal phosphate-dependent aminotransferase&lt;br&gt;Location: 196340 - 197539" locus_tag="FPS10_RS00925" class="clusterblast-orf" id="dummy-1_h1_10_19"  />
</g>
</svg>
