<svg xmlns="http://www.w3.org/2000/svg" xmlns:xlink="http://www.w3.org/1999/xlink" version="1.1" x="0" y="0" height="230" width="800" viewBox="0 0 800 230" preserveAspectRatio="none"  >
<g label="Query sequence" class="clusterblast-cluster"  >
<text x="5" y="20" class="clusterblast-acc"  >
Query sequence</text>
<line x1="10" y1="35" x2="778.0" y2="35" style="stroke-width:1; stroke:grey; "  />
<polygon points="31,35 36,30 49,30 49,40 36,40 31,35 " style="fill:#d81515; stroke-width:1; stroke:black; " description="&lt;b&gt;PHGFGAAC_00853&lt;/b&gt;&lt;br&gt;putative ABC transporter ATP-binding protein&lt;br&gt;Location: 3478 - 4204" locus_tag="PHGFGAAC_00853" class="clusterblast-orf" id="dummy-1_q0_0_all"  />
<polygon points="50,35 55,30 108,30 108,40 55,40 50,35 " style="fill:#77d815; stroke-width:1; stroke:black; " description="&lt;b&gt;PHGFGAAC_00854&lt;/b&gt;&lt;br&gt;Copper-transporting P-type ATPase&lt;br&gt;Location: 4252 - 6679" locus_tag="PHGFGAAC_00854" class="clusterblast-orf" id="dummy-1_q1_0_all"  />
<polygon points="111,40 111,40 116,35 111,30 111,30 111,40 " style="fill:#15d8d8; stroke-width:1; stroke:black; " description="&lt;b&gt;PHGFGAAC_00855&lt;/b&gt;&lt;br&gt;hypothetical protein&lt;br&gt;Location: 6818 - 7022" locus_tag="PHGFGAAC_00855" class="clusterblast-orf" id="dummy-1_q2_0_all"  />
<polygon points="118,40 127,40 132,35 127,30 118,30 118,40 " style="fill:#7715d8; stroke-width:1; stroke:black; " description="&lt;b&gt;PHGFGAAC_00856&lt;/b&gt;&lt;br&gt;hypothetical protein&lt;br&gt;Location: 7100 - 7697" locus_tag="PHGFGAAC_00856" class="clusterblast-orf" id="dummy-1_q3_0_all"  />
<polygon points="132,40 154,40 159,35 154,30 132,30 132,40 " style="fill:#d84615; stroke-width:1; stroke:black; " description="&lt;b&gt;PHGFGAAC_00857&lt;/b&gt;&lt;br&gt;tRNA 2-selenouridine synthase&lt;br&gt;Location: 7702 - 8809" locus_tag="PHGFGAAC_00857" class="clusterblast-orf" id="dummy-1_q4_0_all"  />
<polygon points="159,35 164,30 200,30 200,40 164,40 159,35 " style="fill:#46d815; stroke-width:1; stroke:black; " description="&lt;b&gt;PHGFGAAC_00858&lt;/b&gt;&lt;br&gt;Methionine--tRNA ligase&lt;br&gt;Location: 8805 - 10536" locus_tag="PHGFGAAC_00858" class="clusterblast-orf" id="dummy-1_q5_0_all"  />
<polygon points="207,40 245,40 250,35 245,30 207,30 207,40 " style="fill:#15a7d8; stroke-width:1; stroke:black; " description="&lt;b&gt;PHGFGAAC_00860&lt;/b&gt;&lt;br&gt;Putative multidrug export ATP-binding/permease protein&lt;br&gt;Location: 10838 - 12629" locus_tag="PHGFGAAC_00860" class="clusterblast-orf" id="dummy-1_q6_0_all"  />
<polygon points="253,40 258,40 263,35 258,30 253,30 253,40 " style="fill:#a715d8; stroke-width:1; stroke:black; " description="&lt;b&gt;PHGFGAAC_00861&lt;/b&gt;&lt;br&gt;Potassium binding protein Kbp&lt;br&gt;Location: 12729 - 13176" locus_tag="PHGFGAAC_00861" class="clusterblast-orf" id="dummy-1_q7_0_all"  />
<polygon points="266,40 307,40 312,35 307,30 266,30 266,40 " style="fill:#d87715; stroke-width:1; stroke:black; " description="&lt;b&gt;PHGFGAAC_00862&lt;/b&gt;&lt;br&gt;Long-chain-fatty-acid--CoA ligase&lt;br&gt;Location: 13308 - 15198" locus_tag="PHGFGAAC_00862" class="clusterblast-orf" id="dummy-1_q8_0_all"  />
<polygon points="313,40 321,40 326,35 321,30 313,30 313,40 " style="fill:#15d815; stroke-width:1; stroke:black; " description="&lt;b&gt;PHGFGAAC_00863&lt;/b&gt;&lt;br&gt;hypothetical protein&lt;br&gt;Location: 15262 - 15802" locus_tag="PHGFGAAC_00863" class="clusterblast-orf" id="dummy-1_q9_0_all"  />
<polygon points="330,35 335,30 352,30 352,40 335,40 330,35 " style="fill:#1577d8; stroke-width:1; stroke:black; " description="&lt;b&gt;PHGFGAAC_00865&lt;/b&gt;&lt;br&gt;Glyoxylate/hydroxypyruvate reductase A&lt;br&gt;Location: 15957 - 16893" locus_tag="PHGFGAAC_00865" class="clusterblast-orf" id="dummy-1_q10_0_all"  />
<polygon points="352,35 357,30 379,30 379,40 357,40 352,35 " style="fill:#d815d8; stroke-width:1; stroke:black; " description="&lt;b&gt;PHGFGAAC_00866&lt;/b&gt;&lt;br&gt;Peptidoglycan glycosyltransferase MrdB&lt;br&gt;Location: 16894 - 18034" locus_tag="PHGFGAAC_00866" class="clusterblast-orf" id="dummy-1_q11_0_all"  />
<polygon points="379,35 384,30 426,30 426,40 384,40 379,35 " style="fill:#d8a715; stroke-width:1; stroke:black; " description="&lt;b&gt;PHGFGAAC_00867&lt;/b&gt;&lt;br&gt;Peptidoglycan D,D-transpeptidase MrdA&lt;br&gt;Location: 18030 - 19983" locus_tag="PHGFGAAC_00867" class="clusterblast-orf" id="dummy-1_q12_0_all"  />
<polygon points="426,35 431,30 439,30 439,40 431,40 426,35 " style="fill:#15d846; stroke-width:1; stroke:black; " description="&lt;b&gt;PHGFGAAC_00868&lt;/b&gt;&lt;br&gt;hypothetical protein&lt;br&gt;Location: 19979 - 20519" locus_tag="PHGFGAAC_00868" class="clusterblast-orf" id="dummy-1_q13_0_all"  />
<polygon points="439,35 444,30 460,30 460,40 444,40 439,35 " style="fill:#1546d8; stroke-width:1; stroke:black; " description="&lt;b&gt;PHGFGAAC_00869&lt;/b&gt;&lt;br&gt;hypothetical protein&lt;br&gt;Location: 20511 - 21420" locus_tag="PHGFGAAC_00869" class="clusterblast-orf" id="dummy-1_q14_0_all"  />
<polygon points="462,35 467,30 486,30 486,40 467,40 462,35 " style="fill:#d815a7; stroke-width:1; stroke:black; " description="&lt;b&gt;PHGFGAAC_00870&lt;/b&gt;&lt;br&gt;Cell shape-determining protein MreB&lt;br&gt;Location: 21468 - 22506" locus_tag="PHGFGAAC_00870" class="clusterblast-orf" id="dummy-1_q15_0_all"  />
<polygon points="490,35 495,30 527,30 527,40 495,40 490,35 " style="fill:#d8d815; stroke-width:1; stroke:black; " description="&lt;b&gt;PHGFGAAC_00871&lt;/b&gt;&lt;br&gt;2-isopropylmalate synthase&lt;br&gt;Location: 22657 - 24223" locus_tag="PHGFGAAC_00871" class="clusterblast-orf" id="dummy-1_q16_0_all"  />
<polygon points="533,40 544,40 549,35 544,30 533,30 533,40 " style="fill:#15d877; stroke-width:1; stroke:black; " description="&lt;b&gt;PHGFGAAC_00872&lt;/b&gt;&lt;br&gt;hypothetical protein&lt;br&gt;Location: 24476 - 25121" locus_tag="PHGFGAAC_00872" class="clusterblast-orf" id="dummy-1_q17_0_all"  />
<polygon points="549,40 580,40 585,35 580,30 549,30 549,40 " style="fill:#1515d8; stroke-width:1; stroke:black; " description="&lt;b&gt;PHGFGAAC_00873&lt;/b&gt;&lt;br&gt;(6-4) photolyase&lt;br&gt;Location: 25117 - 26641" locus_tag="PHGFGAAC_00873" class="clusterblast-orf" id="dummy-1_q18_0_all"  />
<polygon points="585,35 590,30 620,30 620,40 590,40 585,35 " style="fill:#d81577; stroke-width:1; stroke:black; " description="&lt;b&gt;PHGFGAAC_00874&lt;/b&gt;&lt;br&gt;hypothetical protein&lt;br&gt;Location: 26645 - 28085" locus_tag="PHGFGAAC_00874" class="clusterblast-orf" id="dummy-1_q19_0_all"  />
<polygon points="623,40 658,40 663,35 658,30 623,30 623,40 " style="fill:#a7d815; stroke-width:1; stroke:black; " description="&lt;b&gt;PHGFGAAC_00875&lt;/b&gt;&lt;br&gt;Glutamine-dependent NAD(+) synthetase&lt;br&gt;Location: 28226 - 29885" locus_tag="PHGFGAAC_00875" class="clusterblast-orf" id="dummy-1_q20_0_all"  />
<polygon points="675,35 680,30 701,30 701,40 680,40 675,35 " style="fill:#15d8a7; stroke-width:1; stroke:black; " description="&lt;b&gt;PHGFGAAC_00877&lt;/b&gt;&lt;br&gt;hypothetical protein&lt;br&gt;Location: 30378 - 31491" locus_tag="PHGFGAAC_00877" class="clusterblast-orf" id="dummy-1_q21_0_all"  />
<polygon points="704,40 720,40 725,35 720,30 704,30 704,40 " style="fill:#4615d8; stroke-width:1; stroke:black; " description="&lt;b&gt;PHGFGAAC_00878&lt;/b&gt;&lt;br&gt;hypothetical protein&lt;br&gt;Location: 31597 - 32485" locus_tag="PHGFGAAC_00878" class="clusterblast-orf" id="dummy-1_q22_0_all"  />
<polygon points="729,40 743,40 748,35 743,30 729,30 729,40 " style="fill:#d81546; stroke-width:1; stroke:black; " description="&lt;b&gt;PHGFGAAC_00879&lt;/b&gt;&lt;br&gt;hypothetical protein&lt;br&gt;Location: 32661 - 33453" locus_tag="PHGFGAAC_00879" class="clusterblast-orf" id="dummy-1_q23_0_all"  />
</g>
<g label="NZ_CP030099" description="NZ_CP030099 (2492363-2524983): Roseovarius sp. AK1035 chromosome, complete ge... (23% of genes show similarity), betalactone" class="clusterblast-cluster"  >
<text x="5" y="70" class="clusterblast-acc"  >
<a xlink:href="https://antismash-db.secondarymetabolites.org/area.html?record=NZ_CP030099&amp;start=2492363&amp;end=2524983" target="_blank">NZ_CP030099 (2492363-2524983)</a>: Roseovarius sp. AK1035 chromosome, complete ge... (23% of genes show similarity), betalactone</text>
<line x1="10" y1="85" x2="778.0" y2="85" style="stroke-width:1; stroke:grey; "  />
</g>
<g id="a1_000"  >
<polygon points="0,85 5,80 21,80 21,90 5,90 0,85 " style="fill:white; stroke-width:1; stroke:black; " description="&lt;b&gt;RAK1035_RS20225&lt;/b&gt;&lt;br&gt;calcium-binding protein&lt;br&gt;Location: 2492364 - 2493278" locus_tag="RAK1035_RS20225" class="clusterblast-orf" id="dummy-1_h1_8_0"  />
</g>
<g id="a1_001"  >
<polygon points="30,85 35,80 45,80 45,90 35,90 30,85 " style="fill:white; stroke-width:1; stroke:black; " description="&lt;b&gt;RAK1035_RS20230&lt;/b&gt;&lt;br&gt;hypothetical protein&lt;br&gt;Location: 2493633 - 2494271" locus_tag="RAK1035_RS20230" class="clusterblast-orf" id="dummy-1_h1_8_1"  />
</g>
<g id="a1_002"  >
<polygon points="63,85 67,80 67,90 63,85 " style="fill:white; stroke-width:1; stroke:black; " description="&lt;b&gt;RAK1035_RS20235&lt;/b&gt;&lt;br&gt;hypothetical protein&lt;br&gt;Location: 2495016 - 2495174" locus_tag="RAK1035_RS20235" class="clusterblast-orf" id="dummy-1_h1_8_2"  />
</g>
<g id="a1_003"  >
<polygon points="69,85 74,80 112,80 112,90 74,90 69,85 " style="fill:white; stroke-width:1; stroke:black; " description="&lt;b&gt;RAK1035_RS11945&lt;/b&gt;&lt;br&gt;hypothetical protein&lt;br&gt;Location: 2495290 - 2497086" locus_tag="RAK1035_RS11945" class="clusterblast-orf" id="dummy-1_h1_8_3"  />
</g>
<g id="a1_004"  >
<polygon points="116,90 147,90 152,85 147,80 116,80 116,90 " style="fill:white; stroke-width:1; stroke:black; " description="&lt;b&gt;RAK1035_RS11950&lt;/b&gt;&lt;br&gt;Asp-tRNA(Asn)/Glu-tRNA(Gln) amidotransferase subunit GatB&lt;br&gt;Location: 2497232 - 2498746" locus_tag="RAK1035_RS11950" class="clusterblast-orf" id="dummy-1_h1_8_4"  />
</g>
<g id="a1_005"  >
<polygon points="154,85 159,80 185,80 185,90 159,90 154,85 " style="fill:white; stroke-width:1; stroke:black; " description="&lt;b&gt;RAK1035_RS11955&lt;/b&gt;&lt;br&gt;KAP P-loop&lt;br&gt;Location: 2498820 - 2500106" locus_tag="RAK1035_RS11955" class="clusterblast-orf" id="dummy-1_h1_8_5"  />
</g>
<g id="a1_006"  >
<polygon points="190,85 195,80 209,80 209,90 195,90 190,85 " style="fill:white; stroke-width:1; stroke:black; " description="&lt;b&gt;RAK1035_RS11960&lt;/b&gt;&lt;br&gt;hypothetical protein&lt;br&gt;Location: 2500332 - 2501108" locus_tag="RAK1035_RS11960" class="clusterblast-orf" id="dummy-1_h1_8_6"  />
</g>
<g id="a1_007"  >
<polygon points="209,85 214,80 228,80 228,90 214,90 209,85 " style="fill:white; stroke-width:1; stroke:black; " description="&lt;b&gt;RAK1035_RS11965&lt;/b&gt;&lt;br&gt;FkbM family methyltransferase&lt;br&gt;Location: 2501139 - 2501936" locus_tag="RAK1035_RS11965" class="clusterblast-orf" id="dummy-1_h1_8_7"  />
</g>
<g id="a1_008"  >
<polygon points="234,90 268,90 273,85 268,80 234,80 234,90 " style="fill:white; stroke-width:1; stroke:black; " description="&lt;b&gt;RAK1035_RS11970&lt;/b&gt;&lt;br&gt;AMP-binding protein&lt;br&gt;Location: 2502189 - 2503817" locus_tag="RAK1035_RS11970" class="clusterblast-orf" id="dummy-1_h1_8_8"  />
</g>
<g id="a1_009"  >
<polygon points="276,90 304,90 309,85 304,80 276,80 276,90 " style="fill:white; stroke-width:1; stroke:black; " description="&lt;b&gt;RAK1035_RS11975&lt;/b&gt;&lt;br&gt;bifunctional enoyl-CoA hydratase/phosphate acetyltransferase&lt;br&gt;Location: 2503916 - 2505304" locus_tag="RAK1035_RS11975" class="clusterblast-orf" id="dummy-1_h1_8_9"  />
</g>
<g id="a1_0010"  >
<polygon points="309,85 314,80 356,80 356,90 314,90 309,85 " style="fill:white; stroke-width:1; stroke:black; " description="&lt;b&gt;RAK1035_RS11980&lt;/b&gt;&lt;br&gt;HAMP domain-containing protein&lt;br&gt;Location: 2505311 - 2507266" locus_tag="RAK1035_RS11980" class="clusterblast-orf" id="dummy-1_h1_8_10"  />
</g>
<g id="a1_0011"  >
<polygon points="358,85 363,80 382,80 382,90 363,90 358,85 " style="fill:white; stroke-width:1; stroke:black; " description="&lt;b&gt;RAK1035_RS11985&lt;/b&gt;&lt;br&gt;Fe(3+) ABC transporter substrate-binding protein&lt;br&gt;Location: 2507355 - 2508371" locus_tag="RAK1035_RS11985" class="clusterblast-orf" id="dummy-1_h1_8_11"  />
</g>
<g id="a1_0012"  >
<polygon points="384,85 389,80 404,80 404,90 389,90 384,85 " style="fill:white; stroke-width:1; stroke:black; " description="&lt;b&gt;RAK1035_RS11990&lt;/b&gt;&lt;br&gt;membrane protein&lt;br&gt;Location: 2508459 - 2509268" locus_tag="RAK1035_RS11990" class="clusterblast-orf" id="dummy-1_h1_8_12"  />
</g>
<g id="a1_0013"  >
<polygon points="404,85 409,80 422,80 422,90 409,90 404,85 " style="fill:white; stroke-width:1; stroke:black; " description="&lt;b&gt;RAK1035_RS11995&lt;/b&gt;&lt;br&gt;metal ABC transporter ATP-binding protein&lt;br&gt;Location: 2509268 - 2510035" locus_tag="RAK1035_RS11995" class="clusterblast-orf" id="dummy-1_h1_8_13"  />
</g>
<g id="a1_0014"  >
<polygon points="422,85 427,80 434,80 434,90 427,90 422,85 " style="fill:white; stroke-width:1; stroke:black; " description="&lt;b&gt;RAK1035_RS12000&lt;/b&gt;&lt;br&gt;Fur family transcriptional regulator&lt;br&gt;Location: 2510026 - 2510514" locus_tag="RAK1035_RS12000" class="clusterblast-orf" id="dummy-1_h1_8_14"  />
</g>
<g id="a1_0015"  >
<polygon points="436,90 456,90 461,85 456,80 436,80 436,90 " style="fill:white; stroke-width:1; stroke:black; " description="&lt;b&gt;RAK1035_RS12005&lt;/b&gt;&lt;br&gt;zinc ABC transporter solute-binding protein&lt;br&gt;Location: 2510623 - 2511657" locus_tag="RAK1035_RS12005" class="clusterblast-orf" id="dummy-1_h1_8_15"  />
</g>
<g id="a1_0016"  >
<polygon points="464,90 504,90 509,85 504,80 464,80 464,90 " style="fill:#d87715; stroke-width:1; stroke:black; " description="&lt;b&gt;RAK1035_RS12010&lt;/b&gt;&lt;br&gt;acyl-CoA synthetase&lt;br&gt;Location: 2511784 - 2513667&lt;br&gt;&lt;br&gt;&lt;b&gt;BlastP hit with PHGFGAAC_00862&lt;/b&gt;&lt;br&gt;Percentage identity: 68&lt;br&gt;Percentage coverage: 100&lt;br&gt;BLAST bit score: 891&lt;br&gt;E-value: 0.0" locus_tag="RAK1035_RS12010" class="clusterblast-orf" id="dummy-1_h1_8_16"  />
</g>
<g id="a1_0017"  >
<polygon points="512,85 517,80 549,80 549,90 517,90 512,85 " style="fill:#d8d815; stroke-width:1; stroke:black; " description="&lt;b&gt;RAK1035_RS12015&lt;/b&gt;&lt;br&gt;2-isopropylmalate synthase&lt;br&gt;Location: 2513784 - 2515349&lt;br&gt;&lt;br&gt;&lt;b&gt;BlastP hit with PHGFGAAC_00871&lt;/b&gt;&lt;br&gt;Percentage identity: 78&lt;br&gt;Percentage coverage: 99&lt;br&gt;BLAST bit score: 803&lt;br&gt;E-value: 2.39e-291" locus_tag="RAK1035_RS12015" class="clusterblast-orf" id="dummy-1_h1_8_17"  />
</g>
<g id="a1_0018"  >
<polygon points="555,90 566,90 571,85 566,80 555,80 555,90 " style="fill:#15d877; stroke-width:1; stroke:black; " description="&lt;b&gt;RAK1035_RS12020&lt;/b&gt;&lt;br&gt;SDR family oxidoreductase&lt;br&gt;Location: 2515612 - 2516277&lt;br&gt;&lt;br&gt;&lt;b&gt;BlastP hit with PHGFGAAC_00872&lt;/b&gt;&lt;br&gt;Percentage identity: 63&lt;br&gt;Percentage coverage: 102&lt;br&gt;BLAST bit score: 253&lt;br&gt;E-value: 4.1e-84" locus_tag="RAK1035_RS12020" class="clusterblast-orf" id="dummy-1_h1_8_18"  />
</g>
<g id="a1_0019"  >
<polygon points="571,90 603,90 608,85 603,80 571,80 571,90 " style="fill:#1515d8; stroke-width:1; stroke:black; " description="&lt;b&gt;RAK1035_RS12025&lt;/b&gt;&lt;br&gt;deoxyribodipyrimidine photo-lyase&lt;br&gt;Location: 2516271 - 2517800&lt;br&gt;&lt;br&gt;&lt;b&gt;BlastP hit with PHGFGAAC_00873&lt;/b&gt;&lt;br&gt;Percentage identity: 61&lt;br&gt;Percentage coverage: 100&lt;br&gt;BLAST bit score: 637&lt;br&gt;E-value: 4.43e-226" locus_tag="RAK1035_RS12025" class="clusterblast-orf" id="dummy-1_h1_8_19"  />
</g>
<g id="a1_0020"  >
<polygon points="608,85 613,80 642,80 642,90 613,90 608,85 " style="fill:#d81577; stroke-width:1; stroke:black; " description="&lt;b&gt;RAK1035_RS12030&lt;/b&gt;&lt;br&gt;2-isopropylmalate synthase&lt;br&gt;Location: 2517801 - 2519213&lt;br&gt;&lt;br&gt;&lt;b&gt;BlastP hit with PHGFGAAC_00874&lt;/b&gt;&lt;br&gt;Percentage identity: 54&lt;br&gt;Percentage coverage: 11&lt;br&gt;BLAST bit score: 54&lt;br&gt;E-value: 8.79e-06" locus_tag="RAK1035_RS12030" class="clusterblast-orf" id="dummy-1_h1_8_20"  />
</g>
<g id="a1_0021"  >
<polygon points="645,90 680,90 685,85 680,80 645,80 645,90 " style="fill:#a7d815; stroke-width:1; stroke:black; " description="&lt;b&gt;RAK1035_RS12035&lt;/b&gt;&lt;br&gt;NAD+ synthase&lt;br&gt;Location: 2519367 - 2521034&lt;br&gt;&lt;br&gt;&lt;b&gt;BlastP hit with PHGFGAAC_00875&lt;/b&gt;&lt;br&gt;Percentage identity: 69&lt;br&gt;Percentage coverage: 100&lt;br&gt;BLAST bit score: 766&lt;br&gt;E-value: 1.12e-275" locus_tag="RAK1035_RS12035" class="clusterblast-orf" id="dummy-1_h1_8_21"  />
</g>
<g id="a1_0022"  >
<polygon points="688,90 702,90 707,85 702,80 688,80 688,90 " style="fill:white; stroke-width:1; stroke:black; " description="&lt;b&gt;RAK1035_RS12040&lt;/b&gt;&lt;br&gt;prolyl oligopeptidase family serine peptidase&lt;br&gt;Location: 2521152 - 2521955" locus_tag="RAK1035_RS12040" class="clusterblast-orf" id="dummy-1_h1_8_22"  />
</g>
<g id="a1_0023"  >
<polygon points="709,90 722,90 727,85 722,80 709,80 709,90 " style="fill:white; stroke-width:1; stroke:black; " description="&lt;b&gt;RAK1035_RS12045&lt;/b&gt;&lt;br&gt;methyltransferase domain-containing protein&lt;br&gt;Location: 2522025 - 2522804" locus_tag="RAK1035_RS12045" class="clusterblast-orf" id="dummy-1_h1_8_23"  />
</g>
<g id="a1_0024"  >
<polygon points="728,85 733,80 747,80 747,90 733,90 728,85 " style="fill:white; stroke-width:1; stroke:black; " description="&lt;b&gt;RAK1035_RS12050&lt;/b&gt;&lt;br&gt;phytanoyl-CoA dioxygenase&lt;br&gt;Location: 2522814 - 2523611" locus_tag="RAK1035_RS12050" class="clusterblast-orf" id="dummy-1_h1_8_24"  />
</g>
<g id="a1_0025"  >
<polygon points="747,85 752,80 780,80 780,90 752,90 747,85 " style="fill:white; stroke-width:1; stroke:black; " description="&lt;b&gt;RAK1035_RS12055&lt;/b&gt;&lt;br&gt;aminotransferase&lt;br&gt;Location: 2523604 - 2524983" locus_tag="RAK1035_RS12055" class="clusterblast-orf" id="dummy-1_h1_8_25"  />
</g>
</svg>
