<svg xmlns="http://www.w3.org/2000/svg" xmlns:xlink="http://www.w3.org/1999/xlink" version="1.1" x="0" y="0" height="230" width="800" viewBox="0 0 800 230" preserveAspectRatio="none"  >
<g label="Query sequence" class="clusterblast-cluster"  >
<text x="5" y="20" class="clusterblast-acc"  >
Query sequence</text>
<line x1="10" y1="35" x2="778.0" y2="35" style="stroke-width:1; stroke:grey; "  />
<polygon points="21,40 31,40 36,35 31,30 21,30 21,40 " style="fill:#d81515; stroke-width:1; stroke:black; " description="&lt;b&gt;CDDIDNMG_02050&lt;/b&gt;&lt;br&gt;30S ribosomal protein S8&lt;br&gt;Location: 631 - 1030" locus_tag="CDDIDNMG_02050" class="clusterblast-orf" id="dummy-1_q0_0_all"  />
<polygon points="36,40 51,40 56,35 51,30 36,30 36,40 " style="fill:#4dd815; stroke-width:1; stroke:black; " description="&lt;b&gt;CDDIDNMG_02051&lt;/b&gt;&lt;br&gt;50S ribosomal protein L6&lt;br&gt;Location: 1040 - 1574" locus_tag="CDDIDNMG_02051" class="clusterblast-orf" id="dummy-1_q1_0_all"  />
<polygon points="56,40 64,40 69,35 64,30 56,30 56,40 " style="fill:#15bcd8; stroke-width:1; stroke:black; " description="&lt;b&gt;CDDIDNMG_02052&lt;/b&gt;&lt;br&gt;50S ribosomal protein L18&lt;br&gt;Location: 1585 - 1945" locus_tag="CDDIDNMG_02052" class="clusterblast-orf" id="dummy-1_q2_0_all"  />
<polygon points="70,40 86,40 91,35 86,30 70,30 70,40 " style="fill:#8515d8; stroke-width:1; stroke:black; " description="&lt;b&gt;CDDIDNMG_02053&lt;/b&gt;&lt;br&gt;30S ribosomal protein S5&lt;br&gt;Location: 1956 - 2535" locus_tag="CDDIDNMG_02053" class="clusterblast-orf" id="dummy-1_q3_0_all"  />
<polygon points="91,40 94,40 99,35 94,30 91,30 91,40 " style="fill:#d84d15; stroke-width:1; stroke:black; " description="&lt;b&gt;CDDIDNMG_02054&lt;/b&gt;&lt;br&gt;50S ribosomal protein L30&lt;br&gt;Location: 2537 - 2738" locus_tag="CDDIDNMG_02054" class="clusterblast-orf" id="dummy-1_q4_0_all"  />
<polygon points="101,35 106,30 114,30 114,40 106,40 101,35 " style="fill:white; stroke-width:1; stroke:black; " description="&lt;b&gt;CDDIDNMG_02055&lt;/b&gt;&lt;br&gt;hypothetical protein&lt;br&gt;Location: 2795 - 3143" locus_tag="CDDIDNMG_02055" class="clusterblast-orf" id="dummy-1_q5_0_all"  />
<polygon points="115,35 120,30 134,30 134,40 120,40 115,35 " style="fill:white; stroke-width:1; stroke:black; " description="&lt;b&gt;CDDIDNMG_02056&lt;/b&gt;&lt;br&gt;hypothetical protein&lt;br&gt;Location: 3184 - 3688" locus_tag="CDDIDNMG_02056" class="clusterblast-orf" id="dummy-1_q6_0_all"  />
<polygon points="153,40 167,40 172,35 167,30 153,30 153,40 " style="fill:#15d815; stroke-width:1; stroke:black; " description="&lt;b&gt;CDDIDNMG_02057&lt;/b&gt;&lt;br&gt;50S ribosomal protein L15&lt;br&gt;Location: 4217 - 4712" locus_tag="CDDIDNMG_02057" class="clusterblast-orf" id="dummy-1_q7_0_all"  />
<polygon points="177,40 221,40 226,35 221,30 177,30 177,40 " style="fill:#1585d8; stroke-width:1; stroke:black; " description="&lt;b&gt;CDDIDNMG_02058&lt;/b&gt;&lt;br&gt;Protein translocase subunit SecY&lt;br&gt;Location: 4849 - 6190" locus_tag="CDDIDNMG_02058" class="clusterblast-orf" id="dummy-1_q8_0_all"  />
<polygon points="229,40 248,40 253,35 248,30 229,30 229,40 " style="fill:#bc15d8; stroke-width:1; stroke:black; " description="&lt;b&gt;CDDIDNMG_02059&lt;/b&gt;&lt;br&gt;Adenylate kinase&lt;br&gt;Location: 6253 - 6904" locus_tag="CDDIDNMG_02059" class="clusterblast-orf" id="dummy-1_q9_0_all"  />
<polygon points="260,40 269,40 274,35 269,30 260,30 260,40 " style="fill:#d88515; stroke-width:1; stroke:black; " description="&lt;b&gt;CDDIDNMG_02060&lt;/b&gt;&lt;br&gt;30S ribosomal protein S13&lt;br&gt;Location: 7101 - 7470" locus_tag="CDDIDNMG_02060" class="clusterblast-orf" id="dummy-1_q10_0_all"  />
<polygon points="274,40 284,40 289,35 284,30 274,30 274,40 " style="fill:#15d84d; stroke-width:1; stroke:black; " description="&lt;b&gt;CDDIDNMG_02061&lt;/b&gt;&lt;br&gt;30S ribosomal protein S11&lt;br&gt;Location: 7485 - 7881" locus_tag="CDDIDNMG_02061" class="clusterblast-orf" id="dummy-1_q11_0_all"  />
<polygon points="293,40 326,40 331,35 326,30 293,30 293,40 " style="fill:#154dd8; stroke-width:1; stroke:black; " description="&lt;b&gt;CDDIDNMG_02062&lt;/b&gt;&lt;br&gt;DNA-directed RNA polymerase subunit alpha&lt;br&gt;Location: 7995 - 9012" locus_tag="CDDIDNMG_02062" class="clusterblast-orf" id="dummy-1_q12_0_all"  />
<polygon points="336,40 346,40 351,35 346,30 336,30 336,40 " style="fill:#d815bc; stroke-width:1; stroke:black; " description="&lt;b&gt;CDDIDNMG_02063&lt;/b&gt;&lt;br&gt;50S ribosomal protein L17&lt;br&gt;Location: 9149 - 9569" locus_tag="CDDIDNMG_02063" class="clusterblast-orf" id="dummy-1_q13_0_all"  />
<polygon points="360,40 378,40 383,35 378,30 360,30 360,40 " style="fill:#d8bc15; stroke-width:1; stroke:black; " description="&lt;b&gt;CDDIDNMG_02064&lt;/b&gt;&lt;br&gt;hypothetical protein&lt;br&gt;Location: 9813 - 10425" locus_tag="CDDIDNMG_02064" class="clusterblast-orf" id="dummy-1_q14_0_all"  />
<polygon points="385,40 402,40 407,35 402,30 385,30 385,40 " style="fill:#15d885; stroke-width:1; stroke:black; " description="&lt;b&gt;CDDIDNMG_02065&lt;/b&gt;&lt;br&gt;hypothetical protein&lt;br&gt;Location: 10476 - 11067" locus_tag="CDDIDNMG_02065" class="clusterblast-orf" id="dummy-1_q15_0_all"  />
<polygon points="416,40 434,40 439,35 434,30 416,30 416,40 " style="fill:white; stroke-width:1; stroke:black; " description="&lt;b&gt;CDDIDNMG_02066&lt;/b&gt;&lt;br&gt;hypothetical protein&lt;br&gt;Location: 11307 - 11946" locus_tag="CDDIDNMG_02066" class="clusterblast-orf" id="dummy-1_q16_0_all"  />
<polygon points="447,40 490,40 495,35 490,30 447,30 447,40 " style="fill:#1515d8; stroke-width:1; stroke:black; " description="&lt;b&gt;CDDIDNMG_02067&lt;/b&gt;&lt;br&gt;Replication-associated recombination protein A&lt;br&gt;Location: 12139 - 13450" locus_tag="CDDIDNMG_02067" class="clusterblast-orf" id="dummy-1_q17_0_all"  />
<polygon points="501,40 509,40 514,35 509,30 501,30 501,40 " style="fill:#d81585; stroke-width:1; stroke:black; " description="&lt;b&gt;CDDIDNMG_02068&lt;/b&gt;&lt;br&gt;Putative fluoride ion transporter CrcB&lt;br&gt;Location: 13607 - 13958" locus_tag="CDDIDNMG_02068" class="clusterblast-orf" id="dummy-1_q18_0_all"  />
<polygon points="514,40 547,40 552,35 547,30 514,30 514,40 " style="fill:#bcd815; stroke-width:1; stroke:black; " description="&lt;b&gt;CDDIDNMG_02069&lt;/b&gt;&lt;br&gt;Ribosomal large subunit pseudouridine synthase C&lt;br&gt;Location: 13954 - 14995" locus_tag="CDDIDNMG_02069" class="clusterblast-orf" id="dummy-1_q19_0_all"  />
<polygon points="552,40 573,40 578,35 573,30 552,30 552,40 " style="fill:#15d8bc; stroke-width:1; stroke:black; " description="&lt;b&gt;CDDIDNMG_02070&lt;/b&gt;&lt;br&gt;hypothetical protein&lt;br&gt;Location: 14991 - 15699" locus_tag="CDDIDNMG_02070" class="clusterblast-orf" id="dummy-1_q20_0_all"  />
<polygon points="587,40 619,40 624,35 619,30 587,30 587,40 " style="fill:#4d15d8; stroke-width:1; stroke:black; " description="&lt;b&gt;CDDIDNMG_02071&lt;/b&gt;&lt;br&gt;Putative amino-acid ABC transporter-binding protein YhdW&lt;br&gt;Location: 15933 - 16950" locus_tag="CDDIDNMG_02071" class="clusterblast-orf" id="dummy-1_q21_0_all"  />
<polygon points="629,40 671,40 676,35 671,30 629,30 629,40 " style="fill:#d8154d; stroke-width:1; stroke:black; " description="&lt;b&gt;CDDIDNMG_02072&lt;/b&gt;&lt;br&gt;hypothetical protein&lt;br&gt;Location: 17080 - 18343" locus_tag="CDDIDNMG_02072" class="clusterblast-orf" id="dummy-1_q22_0_all"  />
<polygon points="676,40 724,40 729,35 724,30 676,30 676,40 " style="fill:#d8154d; stroke-width:1; stroke:black; " description="&lt;b&gt;CDDIDNMG_02073&lt;/b&gt;&lt;br&gt;hypothetical protein&lt;br&gt;Location: 18344 - 19787" locus_tag="CDDIDNMG_02073" class="clusterblast-orf" id="dummy-1_q23_0_all"  />
<polygon points="730,40 754,40 759,35 754,30 730,30 730,40 " style="fill:#85d815; stroke-width:1; stroke:black; " description="&lt;b&gt;CDDIDNMG_02074&lt;/b&gt;&lt;br&gt;Glutamine transport ATP-binding protein GlnQ&lt;br&gt;Location: 19803 - 20583" locus_tag="CDDIDNMG_02074" class="clusterblast-orf" id="dummy-1_q24_0_all"  />
</g>
<g label="NZ_CP034328" description="NZ_CP034328 (1647435-1669657): Tabrizicola piscis strain K13M18 chromosome, c... (73% of genes show similarity), ectoine,hserlactone" class="clusterblast-cluster"  >
<text x="5" y="70" class="clusterblast-acc"  >
<a xlink:href="https://antismash-db.secondarymetabolites.org/area.html?record=NZ_CP034328&amp;start=1647435&amp;end=1669657" target="_blank">NZ_CP034328 (1647435-1669657)</a>: Tabrizicola piscis strain K13M18 chromosome, c... (73% of genes show similarity), ectoine,hserlactone</text>
<line x1="10" y1="85" x2="778.0" y2="85" style="stroke-width:1; stroke:grey; "  />
</g>
<g id="a1_000"  >
<polygon points="0,90 2,90 7,85 2,80 0,80 0,90 " style="fill:white; stroke-width:1; stroke:black; " description="&lt;b&gt;EI545_RS08025&lt;/b&gt;&lt;br&gt;50S ribosomal protein L29&lt;br&gt;Location: 1669108 - 1668908" locus_tag="EI545_RS08025" class="clusterblast-orf" id="dummy-1_h1_2_0"  />
</g>
<g id="a1_001"  >
<polygon points="7,90 11,90 16,85 11,80 7,80 7,90 " style="fill:white; stroke-width:1; stroke:black; " description="&lt;b&gt;EI545_RS08020&lt;/b&gt;&lt;br&gt;30S ribosomal protein S17&lt;br&gt;Location: 1668896 - 1668657" locus_tag="EI545_RS08020" class="clusterblast-orf" id="dummy-1_h1_2_1"  />
</g>
<g id="a1_002"  >
<polygon points="18,90 27,90 32,85 27,80 18,80 18,90 " style="fill:white; stroke-width:1; stroke:black; " description="&lt;b&gt;EI545_RS08015&lt;/b&gt;&lt;br&gt;50S ribosomal protein L14&lt;br&gt;Location: 1668598 - 1668230" locus_tag="EI545_RS08015" class="clusterblast-orf" id="dummy-1_h1_2_2"  />
</g>
<g id="a1_003"  >
<polygon points="32,90 38,90 43,85 38,80 32,80 32,90 " style="fill:white; stroke-width:1; stroke:black; " description="&lt;b&gt;EI545_RS08010&lt;/b&gt;&lt;br&gt;50S ribosomal protein L24&lt;br&gt;Location: 1668230 - 1667925" locus_tag="EI545_RS08010" class="clusterblast-orf" id="dummy-1_h1_2_3"  />
</g>
<g id="a1_004"  >
<polygon points="43,90 59,90 64,85 59,80 43,80 43,90 " style="fill:white; stroke-width:1; stroke:black; " description="&lt;b&gt;EI545_RS08005&lt;/b&gt;&lt;br&gt;50S ribosomal protein L5&lt;br&gt;Location: 1667925 - 1667365" locus_tag="EI545_RS08005" class="clusterblast-orf" id="dummy-1_h1_2_4"  />
</g>
<g id="a1_005"  >
<polygon points="65,90 71,90 76,85 71,80 65,80 65,90 " style="fill:white; stroke-width:1; stroke:black; " description="&lt;b&gt;EI545_RS08000&lt;/b&gt;&lt;br&gt;30S ribosomal protein S14&lt;br&gt;Location: 1667347 - 1667042" locus_tag="EI545_RS08000" class="clusterblast-orf" id="dummy-1_h1_2_5"  />
</g>
<g id="a1_006"  >
<polygon points="76,90 86,90 91,85 86,80 76,80 76,90 " style="fill:#d81515; stroke-width:1; stroke:black; " description="&lt;b&gt;EI545_RS07995&lt;/b&gt;&lt;br&gt;30S ribosomal protein S8&lt;br&gt;Location: 1667029 - 1666631&lt;br&gt;&lt;br&gt;&lt;b&gt;BlastP hit with CDDIDNMG_02050&lt;/b&gt;&lt;br&gt;Percentage identity: 89&lt;br&gt;Percentage coverage: 100&lt;br&gt;BLAST bit score: 233&lt;br&gt;E-value: 1.38e-78" locus_tag="EI545_RS07995" class="clusterblast-orf" id="dummy-1_h1_2_6"  />
</g>
<g id="a1_007"  >
<polygon points="92,90 106,90 111,85 106,80 92,80 92,90 " style="fill:#4dd815; stroke-width:1; stroke:black; " description="&lt;b&gt;EI545_RS07990&lt;/b&gt;&lt;br&gt;50S ribosomal protein L6&lt;br&gt;Location: 1666619 - 1666086&lt;br&gt;&lt;br&gt;&lt;b&gt;BlastP hit with CDDIDNMG_02051&lt;/b&gt;&lt;br&gt;Percentage identity: 88&lt;br&gt;Percentage coverage: 100&lt;br&gt;BLAST bit score: 315&lt;br&gt;E-value: 1.33e-109" locus_tag="EI545_RS07990" class="clusterblast-orf" id="dummy-1_h1_2_7"  />
</g>
<g id="a1_008"  >
<polygon points="112,90 120,90 125,85 120,80 112,80 112,90 " style="fill:#15bcd8; stroke-width:1; stroke:black; " description="&lt;b&gt;EI545_RS07985&lt;/b&gt;&lt;br&gt;50S ribosomal protein L18&lt;br&gt;Location: 1666074 - 1665715&lt;br&gt;&lt;br&gt;&lt;b&gt;BlastP hit with CDDIDNMG_02052&lt;/b&gt;&lt;br&gt;Percentage identity: 88&lt;br&gt;Percentage coverage: 100&lt;br&gt;BLAST bit score: 205&lt;br&gt;E-value: 3.55e-68" locus_tag="EI545_RS07985" class="clusterblast-orf" id="dummy-1_h1_2_8"  />
</g>
<g id="a1_009"  >
<polygon points="130,90 146,90 151,85 146,80 130,80 130,90 " style="fill:#8515d8; stroke-width:1; stroke:black; " description="&lt;b&gt;EI545_RS07980&lt;/b&gt;&lt;br&gt;30S ribosomal protein S5&lt;br&gt;Location: 1665590 - 1665024&lt;br&gt;&lt;br&gt;&lt;b&gt;BlastP hit with CDDIDNMG_02053&lt;/b&gt;&lt;br&gt;Percentage identity: 90&lt;br&gt;Percentage coverage: 100&lt;br&gt;BLAST bit score: 323&lt;br&gt;E-value: 1.12e-112" locus_tag="EI545_RS07980" class="clusterblast-orf" id="dummy-1_h1_2_9"  />
</g>
<g id="a1_0010"  >
<polygon points="151,90 153,90 158,85 153,80 151,80 151,90 " style="fill:#d84d15; stroke-width:1; stroke:black; " description="&lt;b&gt;EI545_RS07975&lt;/b&gt;&lt;br&gt;50S ribosomal protein L30&lt;br&gt;Location: 1665021 - 1664833&lt;br&gt;&lt;br&gt;&lt;b&gt;BlastP hit with CDDIDNMG_02054&lt;/b&gt;&lt;br&gt;Percentage identity: 97&lt;br&gt;Percentage coverage: 91&lt;br&gt;BLAST bit score: 111&lt;br&gt;E-value: 1.21e-32" locus_tag="EI545_RS07975" class="clusterblast-orf" id="dummy-1_h1_2_10"  />
</g>
<g id="a1_0011"  >
<polygon points="164,90 173,90 178,85 173,80 164,80 164,90 " style="fill:white; stroke-width:1; stroke:black; " description="&lt;b&gt;EI545_RS07970&lt;/b&gt;&lt;br&gt;ectoine synthase&lt;br&gt;Location: 1664657 - 1664274" locus_tag="EI545_RS07970" class="clusterblast-orf" id="dummy-1_h1_2_11"  />
</g>
<g id="a1_0012"  >
<polygon points="183,90 196,90 201,85 196,80 183,80 183,90 " style="fill:#15d815; stroke-width:1; stroke:black; " description="&lt;b&gt;EI545_RS07965&lt;/b&gt;&lt;br&gt;50S ribosomal protein L15&lt;br&gt;Location: 1664136 - 1663657&lt;br&gt;&lt;br&gt;&lt;b&gt;BlastP hit with CDDIDNMG_02057&lt;/b&gt;&lt;br&gt;Percentage identity: 79&lt;br&gt;Percentage coverage: 91&lt;br&gt;BLAST bit score: 225&lt;br&gt;E-value: 9.54e-75" locus_tag="EI545_RS07965" class="clusterblast-orf" id="dummy-1_h1_2_12"  />
</g>
<g id="a1_0013"  >
<polygon points="205,90 250,90 255,85 250,80 205,80 205,90 " style="fill:#1585d8; stroke-width:1; stroke:black; " description="&lt;b&gt;EI545_RS07960&lt;/b&gt;&lt;br&gt;preprotein translocase subunit SecY&lt;br&gt;Location: 1663554 - 1662193&lt;br&gt;&lt;br&gt;&lt;b&gt;BlastP hit with CDDIDNMG_02058&lt;/b&gt;&lt;br&gt;Percentage identity: 78&lt;br&gt;Percentage coverage: 100&lt;br&gt;BLAST bit score: 677&lt;br&gt;E-value: 6.01e-244" locus_tag="EI545_RS07960" class="clusterblast-orf" id="dummy-1_h1_2_13"  />
</g>
<g id="a1_0014"  >
<polygon points="255,90 274,90 279,85 274,80 255,80 255,90 " style="fill:#bc15d8; stroke-width:1; stroke:black; " description="&lt;b&gt;EI545_RS07955&lt;/b&gt;&lt;br&gt;adenylate kinase&lt;br&gt;Location: 1662189 - 1661539&lt;br&gt;&lt;br&gt;&lt;b&gt;BlastP hit with CDDIDNMG_02059&lt;/b&gt;&lt;br&gt;Percentage identity: 73&lt;br&gt;Percentage coverage: 100&lt;br&gt;BLAST bit score: 320&lt;br&gt;E-value: 2.57e-110" locus_tag="EI545_RS07955" class="clusterblast-orf" id="dummy-1_h1_2_14"  />
</g>
<g id="a1_0015"  >
<polygon points="286,90 295,90 300,85 295,80 286,80 286,90 " style="fill:#d88515; stroke-width:1; stroke:black; " description="&lt;b&gt;EI545_RS07950&lt;/b&gt;&lt;br&gt;30S ribosomal protein S13&lt;br&gt;Location: 1661358 - 1660990&lt;br&gt;&lt;br&gt;&lt;b&gt;BlastP hit with CDDIDNMG_02060&lt;/b&gt;&lt;br&gt;Percentage identity: 87&lt;br&gt;Percentage coverage: 100&lt;br&gt;BLAST bit score: 210&lt;br&gt;E-value: 6.54e-70" locus_tag="EI545_RS07950" class="clusterblast-orf" id="dummy-1_h1_2_15"  />
</g>
<g id="a1_0016"  >
<polygon points="300,90 310,90 315,85 310,80 300,80 300,90 " style="fill:#15d84d; stroke-width:1; stroke:black; " description="&lt;b&gt;EI545_RS07945&lt;/b&gt;&lt;br&gt;30S ribosomal protein S11&lt;br&gt;Location: 1660977 - 1660582&lt;br&gt;&lt;br&gt;&lt;b&gt;BlastP hit with CDDIDNMG_02061&lt;/b&gt;&lt;br&gt;Percentage identity: 98&lt;br&gt;Percentage coverage: 100&lt;br&gt;BLAST bit score: 243&lt;br&gt;E-value: 9.75e-83" locus_tag="EI545_RS07945" class="clusterblast-orf" id="dummy-1_h1_2_16"  />
</g>
<g id="a1_0017"  >
<polygon points="319,90 352,90 357,85 352,80 319,80 319,90 " style="fill:#154dd8; stroke-width:1; stroke:black; " description="&lt;b&gt;EI545_RS07940&lt;/b&gt;&lt;br&gt;DNA-directed RNA polymerase subunit alpha&lt;br&gt;Location: 1660461 - 1659445&lt;br&gt;&lt;br&gt;&lt;b&gt;BlastP hit with CDDIDNMG_02062&lt;/b&gt;&lt;br&gt;Percentage identity: 94&lt;br&gt;Percentage coverage: 100&lt;br&gt;BLAST bit score: 630&lt;br&gt;E-value: 6.36e-229" locus_tag="EI545_RS07940" class="clusterblast-orf" id="dummy-1_h1_2_17"  />
</g>
<g id="a1_0018"  >
<polygon points="363,90 374,90 379,85 374,80 363,80 363,90 " style="fill:#d815bc; stroke-width:1; stroke:black; " description="&lt;b&gt;EI545_RS07935&lt;/b&gt;&lt;br&gt;50S ribosomal protein L17&lt;br&gt;Location: 1659269 - 1658859&lt;br&gt;&lt;br&gt;&lt;b&gt;BlastP hit with CDDIDNMG_02063&lt;/b&gt;&lt;br&gt;Percentage identity: 93&lt;br&gt;Percentage coverage: 96&lt;br&gt;BLAST bit score: 248&lt;br&gt;E-value: 1.66e-84" locus_tag="EI545_RS07935" class="clusterblast-orf" id="dummy-1_h1_2_18"  />
</g>
<g id="a1_0019"  >
<polygon points="385,90 403,90 408,85 403,80 385,80 385,90 " style="fill:#d8bc15; stroke-width:1; stroke:black; " description="&lt;b&gt;EI545_RS07930&lt;/b&gt;&lt;br&gt;autoinducer binding domain-containing protein&lt;br&gt;Location: 1658687 - 1658076&lt;br&gt;&lt;br&gt;&lt;b&gt;BlastP hit with CDDIDNMG_02064&lt;/b&gt;&lt;br&gt;Percentage identity: 56&lt;br&gt;Percentage coverage: 100&lt;br&gt;BLAST bit score: 222&lt;br&gt;E-value: 4.26e-72" locus_tag="EI545_RS07930" class="clusterblast-orf" id="dummy-1_h1_2_19"  />
</g>
<g id="a1_0020"  >
<polygon points="410,90 426,90 431,85 426,80 410,80 410,90 " style="fill:#15d885; stroke-width:1; stroke:black; " description="&lt;b&gt;EI545_RS07925&lt;/b&gt;&lt;br&gt;GNAT family N-acetyltransferase&lt;br&gt;Location: 1658023 - 1657436&lt;br&gt;&lt;br&gt;&lt;b&gt;BlastP hit with CDDIDNMG_02065&lt;/b&gt;&lt;br&gt;Percentage identity: 58&lt;br&gt;Percentage coverage: 100&lt;br&gt;BLAST bit score: 222&lt;br&gt;E-value: 2.52e-72" locus_tag="EI545_RS07925" class="clusterblast-orf" id="dummy-1_h1_2_20"  />
</g>
<g id="a1_0021"  >
<polygon points="436,90 480,90 485,85 480,80 436,80 436,90 " style="fill:#1515d8; stroke-width:1; stroke:black; " description="&lt;b&gt;EI545_RS07920&lt;/b&gt;&lt;br&gt;replication-associated recombination protein A&lt;br&gt;Location: 1657304 - 1655994&lt;br&gt;&lt;br&gt;&lt;b&gt;BlastP hit with CDDIDNMG_02067&lt;/b&gt;&lt;br&gt;Percentage identity: 86&lt;br&gt;Percentage coverage: 100&lt;br&gt;BLAST bit score: 747&lt;br&gt;E-value: 5.98e-272" locus_tag="EI545_RS07920" class="clusterblast-orf" id="dummy-1_h1_2_21"  />
</g>
<g id="a1_0022"  >
<polygon points="489,90 497,90 502,85 497,80 489,80 489,90 " style="fill:#d81585; stroke-width:1; stroke:black; " description="&lt;b&gt;EI545_RS07915&lt;/b&gt;&lt;br&gt;fluoride efflux transporter CrcB&lt;br&gt;Location: 1655881 - 1655531&lt;br&gt;&lt;br&gt;&lt;b&gt;BlastP hit with CDDIDNMG_02068&lt;/b&gt;&lt;br&gt;Percentage identity: 60&lt;br&gt;Percentage coverage: 97&lt;br&gt;BLAST bit score: 110&lt;br&gt;E-value: 1.17e-30" locus_tag="EI545_RS07915" class="clusterblast-orf" id="dummy-1_h1_2_22"  />
</g>
<g id="a1_0023"  >
<polygon points="502,90 535,90 540,85 535,80 502,80 502,90 " style="fill:#bcd815; stroke-width:1; stroke:black; " description="&lt;b&gt;EI545_RS07910&lt;/b&gt;&lt;br&gt;RluA family pseudouridine synthase&lt;br&gt;Location: 1655534 - 1654491&lt;br&gt;&lt;br&gt;&lt;b&gt;BlastP hit with CDDIDNMG_02069&lt;/b&gt;&lt;br&gt;Percentage identity: 81&lt;br&gt;Percentage coverage: 99&lt;br&gt;BLAST bit score: 580&lt;br&gt;E-value: 5.51e-209" locus_tag="EI545_RS07910" class="clusterblast-orf" id="dummy-1_h1_2_23"  />
</g>
<g id="a1_0024"  >
<polygon points="540,90 561,90 566,85 561,80 540,80 540,90 " style="fill:#15d8bc; stroke-width:1; stroke:black; " description="&lt;b&gt;EI545_RS07905&lt;/b&gt;&lt;br&gt;ATPase&lt;br&gt;Location: 1654494 - 1653787&lt;br&gt;&lt;br&gt;&lt;b&gt;BlastP hit with CDDIDNMG_02070&lt;/b&gt;&lt;br&gt;Percentage identity: 63&lt;br&gt;Percentage coverage: 100&lt;br&gt;BLAST bit score: 296&lt;br&gt;E-value: 1.98e-100" locus_tag="EI545_RS07905" class="clusterblast-orf" id="dummy-1_h1_2_24"  />
</g>
<g id="a1_0025"  >
<polygon points="575,90 608,90 613,85 608,80 575,80 575,90 " style="fill:#4d15d8; stroke-width:1; stroke:black; " description="&lt;b&gt;EI545_RS07900&lt;/b&gt;&lt;br&gt;amino acid ABC transporter substrate-binding protein&lt;br&gt;Location: 1653549 - 1652533&lt;br&gt;&lt;br&gt;&lt;b&gt;BlastP hit with CDDIDNMG_02071&lt;/b&gt;&lt;br&gt;Percentage identity: 81&lt;br&gt;Percentage coverage: 100&lt;br&gt;BLAST bit score: 543&lt;br&gt;E-value: 1.71e-194" locus_tag="EI545_RS07900" class="clusterblast-orf" id="dummy-1_h1_2_25"  />
</g>
<g id="a1_0026"  >
<polygon points="618,90 660,90 665,85 660,80 618,80 618,90 " style="fill:#d8154d; stroke-width:1; stroke:black; " description="&lt;b&gt;EI545_RS07895&lt;/b&gt;&lt;br&gt;ABC transporter permease subunit&lt;br&gt;Location: 1652396 - 1651119&lt;br&gt;&lt;br&gt;&lt;b&gt;BlastP hit with CDDIDNMG_02072&lt;/b&gt;&lt;br&gt;Percentage identity: 69&lt;br&gt;Percentage coverage: 101&lt;br&gt;BLAST bit score: 559&lt;br&gt;E-value: 3.95e-198&lt;br&gt;&lt;br&gt;&lt;b&gt;BlastP hit with CDDIDNMG_02073&lt;/b&gt;&lt;br&gt;Percentage identity: 47&lt;br&gt;Percentage coverage: 18&lt;br&gt;BLAST bit score: 74&lt;br&gt;E-value: 5.58e-12" locus_tag="EI545_RS07895" class="clusterblast-orf" id="dummy-1_h1_2_26"  />
</g>
<g id="a1_0027"  >
<polygon points="666,90 713,90 718,85 713,80 666,80 666,90 " style="fill:#d8154d; stroke-width:1; stroke:black; " description="&lt;b&gt;EI545_RS07890&lt;/b&gt;&lt;br&gt;ABC transporter permease subunit&lt;br&gt;Location: 1651090 - 1649678&lt;br&gt;&lt;br&gt;&lt;b&gt;BlastP hit with CDDIDNMG_02072&lt;/b&gt;&lt;br&gt;Percentage identity: 38&lt;br&gt;Percentage coverage: 30&lt;br&gt;BLAST bit score: 73&lt;br&gt;E-value: 6.21e-12&lt;br&gt;&lt;br&gt;&lt;b&gt;BlastP hit with CDDIDNMG_02073&lt;/b&gt;&lt;br&gt;Percentage identity: 66&lt;br&gt;Percentage coverage: 98&lt;br&gt;BLAST bit score: 607&lt;br&gt;E-value: 1.38e-215" locus_tag="EI545_RS07890" class="clusterblast-orf" id="dummy-1_h1_2_27"  />
</g>
<g id="a1_0028"  >
<polygon points="719,90 742,90 747,85 742,80 719,80 719,90 " style="fill:#85d815; stroke-width:1; stroke:black; " description="&lt;b&gt;EI545_RS07885&lt;/b&gt;&lt;br&gt;amino acid ABC transporter ATP-binding protein&lt;br&gt;Location: 1649668 - 1648901&lt;br&gt;&lt;br&gt;&lt;b&gt;BlastP hit with CDDIDNMG_02074&lt;/b&gt;&lt;br&gt;Percentage identity: 91&lt;br&gt;Percentage coverage: 98&lt;br&gt;BLAST bit score: 468&lt;br&gt;E-value: 1.81e-167" locus_tag="EI545_RS07885" class="clusterblast-orf" id="dummy-1_h1_2_28"  />
</g>
<g id="a1_0029"  >
<polygon points="751,85 756,80 780,80 780,90 756,90 751,85 " style="fill:white; stroke-width:1; stroke:black; " description="&lt;b&gt;EI545_RS07880&lt;/b&gt;&lt;br&gt;arylesterase&lt;br&gt;Location: 1648800 - 1648021" locus_tag="EI545_RS07880" class="clusterblast-orf" id="dummy-1_h1_2_29"  />
</g>
</svg>
