<svg xmlns="http://www.w3.org/2000/svg" xmlns:xlink="http://www.w3.org/1999/xlink" version="1.1" x="0" y="0" height="230" width="800" viewBox="0 0 800 230" preserveAspectRatio="none"  >
<g label="Query sequence" class="clusterblast-cluster"  >
<text x="5" y="20" class="clusterblast-acc"  >
Query sequence</text>
<line x1="10" y1="35" x2="778.0" y2="35" style="stroke-width:1; stroke:grey; "  />
<polygon points="63,40 65,40 70,35 65,30 63,30 63,40 " style="fill:white; stroke-width:1; stroke:black; " description="&lt;b&gt;CDDIDNMG_04714&lt;/b&gt;&lt;br&gt;hypothetical protein&lt;br&gt;Location: 143 - 512" locus_tag="CDDIDNMG_04714" class="clusterblast-orf" id="dummy-1_q0_0_all"  />
<polygon points="75,35 80,30 81,30 81,40 80,40 75,35 " style="fill:#d81515; stroke-width:1; stroke:black; " description="&lt;b&gt;CDDIDNMG_04715&lt;/b&gt;&lt;br&gt;Trimethylamine-N-oxide reductase&lt;br&gt;Location: 796 - 1096" locus_tag="CDDIDNMG_04715" class="clusterblast-orf" id="dummy-1_q1_0_all"  />
<polygon points="106,40 120,40 125,35 120,30 106,30 106,40 " style="fill:#4dd815; stroke-width:1; stroke:black; " description="&lt;b&gt;CDDIDNMG_04716&lt;/b&gt;&lt;br&gt;HTH-type transcriptional repressor MelR&lt;br&gt;Location: 2483 - 3509" locus_tag="CDDIDNMG_04716" class="clusterblast-orf" id="dummy-1_q2_0_all"  />
<polygon points="126,40 144,40 149,35 144,30 126,30 126,40 " style="fill:#1585d8; stroke-width:1; stroke:black; " description="&lt;b&gt;CDDIDNMG_04717&lt;/b&gt;&lt;br&gt;Lactose-binding protein&lt;br&gt;Location: 3601 - 4873" locus_tag="CDDIDNMG_04717" class="clusterblast-orf" id="dummy-1_q3_0_all"  />
<polygon points="152,40 163,40 168,35 163,30 152,30 152,40 " style="fill:#a115d8; stroke-width:1; stroke:black; " description="&lt;b&gt;CDDIDNMG_04718&lt;/b&gt;&lt;br&gt;Lactose transport system permease protein LacF&lt;br&gt;Location: 5021 - 5906" locus_tag="CDDIDNMG_04718" class="clusterblast-orf" id="dummy-1_q4_0_all"  />
<polygon points="168,40 178,40 183,35 178,30 168,30 168,40 " style="fill:#d86915; stroke-width:1; stroke:black; " description="&lt;b&gt;CDDIDNMG_04719&lt;/b&gt;&lt;br&gt;Lactose transport system permease protein LacG&lt;br&gt;Location: 5902 - 6721" locus_tag="CDDIDNMG_04719" class="clusterblast-orf" id="dummy-1_q5_0_all"  />
<polygon points="183,40 218,40 223,35 218,30 183,30 183,40 " style="fill:#15d831; stroke-width:1; stroke:black; " description="&lt;b&gt;CDDIDNMG_04720&lt;/b&gt;&lt;br&gt;Beta-galactosidase&lt;br&gt;Location: 6732 - 8931" locus_tag="CDDIDNMG_04720" class="clusterblast-orf" id="dummy-1_q6_0_all"  />
<polygon points="223,40 238,40 243,35 238,30 223,30 223,40 " style="fill:#1531d8; stroke-width:1; stroke:black; " description="&lt;b&gt;CDDIDNMG_04721&lt;/b&gt;&lt;br&gt;Maltose/maltodextrin import ATP-binding protein MalK&lt;br&gt;Location: 8941 - 10009" locus_tag="CDDIDNMG_04721" class="clusterblast-orf" id="dummy-1_q7_0_all"  />
<polygon points="244,40 276,40 281,35 276,30 244,30 244,40 " style="fill:white; stroke-width:1; stroke:black; " description="&lt;b&gt;CDDIDNMG_04722&lt;/b&gt;&lt;br&gt;Inositol 2-dehydrogenase/D-chiro-inositol 3-dehydrogenase&lt;br&gt;Location: 10074 - 12093" locus_tag="CDDIDNMG_04722" class="clusterblast-orf" id="dummy-1_q8_0_all"  />
<polygon points="287,35 292,30 292,30 292,40 292,40 287,35 " style="fill:#d815bc; stroke-width:1; stroke:black; " description="&lt;b&gt;CDDIDNMG_04723&lt;/b&gt;&lt;br&gt;Ferrichrome outer membrane transporter/phage receptor&lt;br&gt;Location: 12428 - 12701" locus_tag="CDDIDNMG_04723" class="clusterblast-orf" id="dummy-1_q9_0_all"  />
<polygon points="296,35 301,30 309,30 309,40 301,40 296,35 " style="fill:white; stroke-width:1; stroke:black; " description="&lt;b&gt;CDDIDNMG_04724&lt;/b&gt;&lt;br&gt;Hydantoin racemase&lt;br&gt;Location: 12930 - 13656" locus_tag="CDDIDNMG_04724" class="clusterblast-orf" id="dummy-1_q10_0_all"  />
<polygon points="309,35 314,30 321,30 321,40 314,40 309,35 " style="fill:#d8bc15; stroke-width:1; stroke:black; " description="&lt;b&gt;CDDIDNMG_04725&lt;/b&gt;&lt;br&gt;hypothetical protein&lt;br&gt;Location: 13659 - 14295" locus_tag="CDDIDNMG_04725" class="clusterblast-orf" id="dummy-1_q11_0_all"  />
<polygon points="324,40 332,40 337,35 332,30 324,30 324,40 " style="fill:#15d885; stroke-width:1; stroke:black; " description="&lt;b&gt;CDDIDNMG_04726&lt;/b&gt;&lt;br&gt;HTH-type transcriptional repressor RspR&lt;br&gt;Location: 14482 - 15169" locus_tag="CDDIDNMG_04726" class="clusterblast-orf" id="dummy-1_q12_0_all"  />
<polygon points="342,35 347,30 349,30 349,40 347,40 342,35 " style="fill:white; stroke-width:1; stroke:black; " description="&lt;b&gt;CDDIDNMG_04727&lt;/b&gt;&lt;br&gt;IS5 family transposase ISPaes2&lt;br&gt;Location: 15455 - 15830" locus_tag="CDDIDNMG_04727" class="clusterblast-orf" id="dummy-1_q13_0_all"  />
<polygon points="351,35 356,30 358,30 358,40 356,40 351,35 " style="fill:#4d15d8; stroke-width:1; stroke:black; " description="&lt;b&gt;CDDIDNMG_04728&lt;/b&gt;&lt;br&gt;hypothetical protein&lt;br&gt;Location: 15979 - 16363" locus_tag="CDDIDNMG_04728" class="clusterblast-orf" id="dummy-1_q14_0_all"  />
<polygon points="358,35 363,30 379,30 379,40 363,40 358,35 " style="fill:#4d15d8; stroke-width:1; stroke:black; " description="&lt;b&gt;CDDIDNMG_04729&lt;/b&gt;&lt;br&gt;Dimodular nonribosomal peptide synthase&lt;br&gt;Location: 16338 - 17514" locus_tag="CDDIDNMG_04729" class="clusterblast-orf" id="dummy-1_q15_0_all"  />
<polygon points="380,40 387,40 392,35 387,30 380,30 380,40 " style="fill:white; stroke-width:1; stroke:black; " description="&lt;b&gt;CDDIDNMG_04730&lt;/b&gt;&lt;br&gt;hypothetical protein&lt;br&gt;Location: 17535 - 18225" locus_tag="CDDIDNMG_04730" class="clusterblast-orf" id="dummy-1_q16_0_all"  />
<polygon points="394,40 402,40 407,35 402,30 394,30 394,40 " style="fill:white; stroke-width:1; stroke:black; " description="&lt;b&gt;CDDIDNMG_04731&lt;/b&gt;&lt;br&gt;hypothetical protein&lt;br&gt;Location: 18312 - 19038" locus_tag="CDDIDNMG_04731" class="clusterblast-orf" id="dummy-1_q17_0_all"  />
<polygon points="410,35 415,30 429,30 429,40 415,40 410,35 " style="fill:#1531d8; stroke-width:1; stroke:black; " description="&lt;b&gt;CDDIDNMG_04732&lt;/b&gt;&lt;br&gt;Oligopeptide transport ATP-binding protein OppF&lt;br&gt;Location: 19207 - 20218" locus_tag="CDDIDNMG_04732" class="clusterblast-orf" id="dummy-1_q18_0_all"  />
<polygon points="429,35 434,30 446,30 446,40 434,40 429,35 " style="fill:#1531d8; stroke-width:1; stroke:black; " description="&lt;b&gt;CDDIDNMG_04733&lt;/b&gt;&lt;br&gt;Oligopeptide transport ATP-binding protein OppD&lt;br&gt;Location: 20214 - 21201" locus_tag="CDDIDNMG_04733" class="clusterblast-orf" id="dummy-1_q19_0_all"  />
<polygon points="446,35 451,30 474,30 474,40 451,40 446,35 " style="fill:white; stroke-width:1; stroke:black; " description="&lt;b&gt;CDDIDNMG_04734&lt;/b&gt;&lt;br&gt;8-oxoguanine deaminase&lt;br&gt;Location: 21197 - 22688" locus_tag="CDDIDNMG_04734" class="clusterblast-orf" id="dummy-1_q20_0_all"  />
<polygon points="473,35 478,30 495,30 495,40 478,40 473,35 " style="fill:white; stroke-width:1; stroke:black; " description="&lt;b&gt;CDDIDNMG_04735&lt;/b&gt;&lt;br&gt;N-isopropylammelide isopropyl amidohydrolase&lt;br&gt;Location: 22684 - 23887" locus_tag="CDDIDNMG_04735" class="clusterblast-orf" id="dummy-1_q21_0_all"  />
<polygon points="495,35 500,30 512,30 512,40 500,40 495,35 " style="fill:#1531d8; stroke-width:1; stroke:black; " description="&lt;b&gt;CDDIDNMG_04736&lt;/b&gt;&lt;br&gt;Dipeptide transport system permease protein DppC&lt;br&gt;Location: 23890 - 24823" locus_tag="CDDIDNMG_04736" class="clusterblast-orf" id="dummy-1_q22_0_all"  />
<polygon points="512,35 517,30 530,30 530,40 517,40 512,35 " style="fill:#d81569; stroke-width:1; stroke:black; " description="&lt;b&gt;CDDIDNMG_04737&lt;/b&gt;&lt;br&gt;Dipeptide transport system permease protein DppB&lt;br&gt;Location: 24826 - 25798" locus_tag="CDDIDNMG_04737" class="clusterblast-orf" id="dummy-1_q23_0_all"  />
<polygon points="531,35 536,30 560,30 560,40 536,40 531,35 " style="fill:white; stroke-width:1; stroke:black; " description="&lt;b&gt;CDDIDNMG_04738&lt;/b&gt;&lt;br&gt;Heme-binding protein A&lt;br&gt;Location: 25857 - 27420" locus_tag="CDDIDNMG_04738" class="clusterblast-orf" id="dummy-1_q24_0_all"  />
<polygon points="570,40 580,40 585,35 580,30 570,30 570,40 " style="fill:#a1d815; stroke-width:1; stroke:black; " description="&lt;b&gt;CDDIDNMG_04739&lt;/b&gt;&lt;br&gt;ABC transporter glutamine-binding protein GlnH&lt;br&gt;Location: 28016 - 28817" locus_tag="CDDIDNMG_04739" class="clusterblast-orf" id="dummy-1_q25_0_all"  />
<polygon points="585,40 592,40 597,35 592,30 585,30 585,40 " style="fill:#15d8d8; stroke-width:1; stroke:black; " description="&lt;b&gt;CDDIDNMG_04740&lt;/b&gt;&lt;br&gt;L-cystine transport system permease protein YecS&lt;br&gt;Location: 28824 - 29490" locus_tag="CDDIDNMG_04740" class="clusterblast-orf" id="dummy-1_q26_0_all"  />
<polygon points="597,40 604,40 609,35 604,30 597,30 597,40 " style="fill:#15d8d8; stroke-width:1; stroke:black; " description="&lt;b&gt;CDDIDNMG_04741&lt;/b&gt;&lt;br&gt;L-cystine transport system permease protein YecS&lt;br&gt;Location: 29489 - 30140" locus_tag="CDDIDNMG_04741" class="clusterblast-orf" id="dummy-1_q27_0_all"  />
<polygon points="609,40 618,40 623,35 618,30 609,30 609,40 " style="fill:#1531d8; stroke-width:1; stroke:black; " description="&lt;b&gt;CDDIDNMG_04742&lt;/b&gt;&lt;br&gt;Glutamine transport ATP-binding protein GlnQ&lt;br&gt;Location: 30154 - 30913" locus_tag="CDDIDNMG_04742" class="clusterblast-orf" id="dummy-1_q28_0_all"  />
<polygon points="623,35 628,30 641,30 641,40 628,40 623,35 " style="fill:white; stroke-width:1; stroke:black; " description="&lt;b&gt;CDDIDNMG_04743&lt;/b&gt;&lt;br&gt;HTH-type transcriptional regulator CynR&lt;br&gt;Location: 30923 - 31880" locus_tag="CDDIDNMG_04743" class="clusterblast-orf" id="dummy-1_q29_0_all"  />
<polygon points="645,40 659,40 664,35 659,30 645,30 645,40 " style="fill:white; stroke-width:1; stroke:black; " description="&lt;b&gt;CDDIDNMG_04744&lt;/b&gt;&lt;br&gt;hypothetical protein&lt;br&gt;Location: 32116 - 33184" locus_tag="CDDIDNMG_04744" class="clusterblast-orf" id="dummy-1_q30_0_all"  />
<polygon points="665,40 676,40 681,35 676,30 665,30 665,40 " style="fill:white; stroke-width:1; stroke:black; " description="&lt;b&gt;CDDIDNMG_04745&lt;/b&gt;&lt;br&gt;Spermidine/putrescine transport system permease protein PotB&lt;br&gt;Location: 33230 - 34079" locus_tag="CDDIDNMG_04745" class="clusterblast-orf" id="dummy-1_q31_0_all"  />
<polygon points="681,40 691,40 696,35 691,30 681,30 681,40 " style="fill:white; stroke-width:1; stroke:black; " description="&lt;b&gt;CDDIDNMG_04746&lt;/b&gt;&lt;br&gt;hypothetical protein&lt;br&gt;Location: 34075 - 34897" locus_tag="CDDIDNMG_04746" class="clusterblast-orf" id="dummy-1_q32_0_all"  />
<polygon points="696,40 711,40 716,35 711,30 696,30 696,40 " style="fill:#1531d8; stroke-width:1; stroke:black; " description="&lt;b&gt;CDDIDNMG_04747&lt;/b&gt;&lt;br&gt;Vitamin B12 import ATP-binding protein BtuD&lt;br&gt;Location: 34908 - 36015" locus_tag="CDDIDNMG_04747" class="clusterblast-orf" id="dummy-1_q33_0_all"  />
</g>
<g label="NZ_JACIHI010000002" description="NZ_JACIHI010000002 (35270-79263): Rhizobium esperanzae strain SEMIA 414 Ga039... (15% of genes show similarity), NRPS" class="clusterblast-cluster"  >
<text x="5" y="70" class="clusterblast-acc"  >
<a xlink:href="https://antismash-db.secondarymetabolites.org/area.html?record=NZ_JACIHI010000002&amp;start=35270&amp;end=79263" target="_blank">NZ_JACIHI010000002 (35270-79263)</a>: Rhizobium esperanzae strain SEMIA 414 Ga039... (15% of genes show similarity), NRPS</text>
<line x1="10" y1="85" x2="778.0" y2="85" style="stroke-width:1; stroke:grey; "  />
</g>
<g id="a1_000"  >
<polygon points="0,85 5,80 9,80 9,90 5,90 0,85 " style="fill:white; stroke-width:1; stroke:black; " description="&lt;b&gt;GGE15_RS04145&lt;/b&gt;&lt;br&gt;OmpA family protein&lt;br&gt;Location: 78980 - 78444" locus_tag="GGE15_RS04145" class="clusterblast-orf" id="dummy-1_h1_4_0"  />
</g>
<g id="a1_001"  >
<polygon points="10,85 15,80 22,80 22,90 15,90 10,85 " style="fill:white; stroke-width:1; stroke:black; " description="&lt;b&gt;GGE15_RS04140&lt;/b&gt;&lt;br&gt;L,D-transpeptidase&lt;br&gt;Location: 78430 - 77756" locus_tag="GGE15_RS04140" class="clusterblast-orf" id="dummy-1_h1_4_1"  />
</g>
<g id="a1_002"  >
<polygon points="25,85 30,80 43,80 43,90 30,90 25,85 " style="fill:white; stroke-width:1; stroke:black; " description="&lt;b&gt;GGE15_RS04135&lt;/b&gt;&lt;br&gt;dihydrodipicolinate synthase family protein&lt;br&gt;Location: 77551 - 76616" locus_tag="GGE15_RS04135" class="clusterblast-orf" id="dummy-1_h1_4_2"  />
</g>
<g id="a1_003"  >
<polygon points="43,85 48,80 60,80 60,90 48,90 43,85 " style="fill:#1531d8; stroke-width:1; stroke:black; " description="&lt;b&gt;GGE15_RS04130&lt;/b&gt;&lt;br&gt;ABC transporter ATP-binding protein&lt;br&gt;Location: 76589 - 75636&lt;br&gt;&lt;br&gt;&lt;b&gt;BlastP hit with CDDIDNMG_04732&lt;/b&gt;&lt;br&gt;Percentage identity: 43&lt;br&gt;Percentage coverage: 97&lt;br&gt;BLAST bit score: 245&lt;br&gt;E-value: 1.05e-77&lt;br&gt;&lt;br&gt;&lt;b&gt;BlastP hit with CDDIDNMG_04733&lt;/b&gt;&lt;br&gt;Percentage identity: 40&lt;br&gt;Percentage coverage: 96&lt;br&gt;BLAST bit score: 214&lt;br&gt;E-value: 1.19e-65" locus_tag="GGE15_RS04130" class="clusterblast-orf" id="dummy-1_h1_4_3"  />
</g>
<g id="a1_004"  >
<polygon points="60,85 65,80 79,80 79,90 65,90 60,85 " style="fill:#1531d8; stroke-width:1; stroke:black; " description="&lt;b&gt;GGE15_RS04125&lt;/b&gt;&lt;br&gt;ABC transporter ATP-binding protein&lt;br&gt;Location: 75635 - 74619&lt;br&gt;&lt;br&gt;&lt;b&gt;BlastP hit with CDDIDNMG_04732&lt;/b&gt;&lt;br&gt;Percentage identity: 40&lt;br&gt;Percentage coverage: 96&lt;br&gt;BLAST bit score: 197&lt;br&gt;E-value: 1.48e-58&lt;br&gt;&lt;br&gt;&lt;b&gt;BlastP hit with CDDIDNMG_04733&lt;/b&gt;&lt;br&gt;Percentage identity: 50&lt;br&gt;Percentage coverage: 97&lt;br&gt;BLAST bit score: 288&lt;br&gt;E-value: 2.8e-94" locus_tag="GGE15_RS04125" class="clusterblast-orf" id="dummy-1_h1_4_4"  />
</g>
<g id="a1_005"  >
<polygon points="79,85 84,80 96,80 96,90 84,90 79,85 " style="fill:white; stroke-width:1; stroke:black; " description="&lt;b&gt;GGE15_RS04120&lt;/b&gt;&lt;br&gt;dihydrodipicolinate synthase family protein&lt;br&gt;Location: 74610 - 73693" locus_tag="GGE15_RS04120" class="clusterblast-orf" id="dummy-1_h1_4_5"  />
</g>
<g id="a1_006"  >
<polygon points="96,85 101,80 112,80 112,90 101,90 96,85 " style="fill:white; stroke-width:1; stroke:black; " description="&lt;b&gt;GGE15_RS04115&lt;/b&gt;&lt;br&gt;ABC transporter permease&lt;br&gt;Location: 73674 - 72796" locus_tag="GGE15_RS04115" class="clusterblast-orf" id="dummy-1_h1_4_6"  />
</g>
<g id="a1_007"  >
<polygon points="112,85 117,80 130,80 130,90 117,90 112,85 " style="fill:#d81569; stroke-width:1; stroke:black; " description="&lt;b&gt;GGE15_RS04110&lt;/b&gt;&lt;br&gt;ABC transporter permease&lt;br&gt;Location: 72793 - 71834&lt;br&gt;&lt;br&gt;&lt;b&gt;BlastP hit with CDDIDNMG_04737&lt;/b&gt;&lt;br&gt;Percentage identity: 35&lt;br&gt;Percentage coverage: 99&lt;br&gt;BLAST bit score: 168&lt;br&gt;E-value: 8.45e-48" locus_tag="GGE15_RS04110" class="clusterblast-orf" id="dummy-1_h1_4_7"  />
</g>
<g id="a1_008"  >
<polygon points="131,85 136,80 160,80 160,90 136,90 131,85 " style="fill:white; stroke-width:1; stroke:black; " description="&lt;b&gt;GGE15_RS04105&lt;/b&gt;&lt;br&gt;ABC transporter substrate-binding protein&lt;br&gt;Location: 71750 - 70152" locus_tag="GGE15_RS04105" class="clusterblast-orf" id="dummy-1_h1_4_8"  />
</g>
<g id="a1_009"  >
<polygon points="160,85 165,80 173,80 173,90 165,90 160,85 " style="fill:white; stroke-width:1; stroke:black; " description="&lt;b&gt;GGE15_RS04100&lt;/b&gt;&lt;br&gt;FadR family transcriptional regulator&lt;br&gt;Location: 70168 - 69425" locus_tag="GGE15_RS04100" class="clusterblast-orf" id="dummy-1_h1_4_9"  />
</g>
<g id="a1_0010"  >
<polygon points="176,85 181,80 198,80 198,90 181,90 176,85 " style="fill:white; stroke-width:1; stroke:black; " description="&lt;b&gt;GGE15_RS04095&lt;/b&gt;&lt;br&gt;GGDEF domain-containing protein&lt;br&gt;Location: 69270 - 68047" locus_tag="GGE15_RS04095" class="clusterblast-orf" id="dummy-1_h1_4_10"  />
</g>
<g id="a1_0011"  >
<polygon points="207,90 242,90 247,85 242,80 207,80 207,90 " style="fill:white; stroke-width:1; stroke:black; " description="&lt;b&gt;GGE15_RS04090&lt;/b&gt;&lt;br&gt;TonB-dependent siderophore receptor&lt;br&gt;Location: 67567 - 65387" locus_tag="GGE15_RS04090" class="clusterblast-orf" id="dummy-1_h1_4_11"  />
</g>
<g id="a1_0012"  >
<polygon points="247,90 256,90 261,85 256,80 247,80 247,90 " style="fill:white; stroke-width:1; stroke:black; " description="&lt;b&gt;GGE15_RS04085&lt;/b&gt;&lt;br&gt;siderophore-iron reductase FhuF&lt;br&gt;Location: 65377 - 64595" locus_tag="GGE15_RS04085" class="clusterblast-orf" id="dummy-1_h1_4_12"  />
</g>
<g id="a1_0013"  >
<polygon points="263,85 268,80 272,80 272,90 268,90 263,85 " style="fill:white; stroke-width:1; stroke:black; " description="&lt;b&gt;GGE15_RS04080&lt;/b&gt;&lt;br&gt;GNAT family N-acetyltransferase&lt;br&gt;Location: 64511 - 64020" locus_tag="GGE15_RS04080" class="clusterblast-orf" id="dummy-1_h1_4_13"  />
</g>
<g id="a1_0014"  >
<polygon points="275,90 282,90 287,85 282,80 275,80 275,90 " style="fill:white; stroke-width:1; stroke:black; " description="&lt;b&gt;GGE15_RS04075&lt;/b&gt;&lt;br&gt;sigma-70 family RNA polymerase sigma factor&lt;br&gt;Location: 63857 - 63201" locus_tag="GGE15_RS04075" class="clusterblast-orf" id="dummy-1_h1_4_14"  />
</g>
<g id="a1_0015"  >
<polygon points="285,85 290,80 306,80 306,90 290,90 285,85 " style="fill:white; stroke-width:1; stroke:black; " description="&lt;b&gt;GGE15_RS04070&lt;/b&gt;&lt;br&gt;PLP-dependent transferase&lt;br&gt;Location: 63310 - 62123" locus_tag="GGE15_RS04070" class="clusterblast-orf" id="dummy-1_h1_4_15"  />
</g>
<g id="a1_0016"  >
<polygon points="306,85 311,80 332,80 332,90 311,90 306,85 " style="fill:white; stroke-width:1; stroke:black; " description="&lt;b&gt;GGE15_RS04065&lt;/b&gt;&lt;br&gt;MATE family efflux transporter&lt;br&gt;Location: 62112 - 60691" locus_tag="GGE15_RS04065" class="clusterblast-orf" id="dummy-1_h1_4_16"  />
</g>
<g id="a1_0017"  >
<polygon points="332,85 337,80 350,80 350,90 337,90 332,85 " style="fill:white; stroke-width:1; stroke:black; " description="&lt;b&gt;GGE15_RS04060&lt;/b&gt;&lt;br&gt;acetyltransferase&lt;br&gt;Location: 60694 - 59705" locus_tag="GGE15_RS04060" class="clusterblast-orf" id="dummy-1_h1_4_17"  />
</g>
<g id="a1_0018"  >
<polygon points="354,90 358,85 354,80 354,90 " style="fill:white; stroke-width:1; stroke:black; " description="&lt;b&gt;GGE15_RS04055&lt;/b&gt;&lt;br&gt;MbtH family NRPS accessory protein&lt;br&gt;Location: 59501 - 59283" locus_tag="GGE15_RS04055" class="clusterblast-orf" id="dummy-1_h1_4_18"  />
</g>
<g id="a1_0019"  >
<polygon points="358,90 426,90 431,85 426,80 358,80 358,90 " style="fill:#4d15d8; stroke-width:1; stroke:black; " description="&lt;b&gt;GGE15_RS04050&lt;/b&gt;&lt;br&gt;amino acid adenylation domain-containing protein&lt;br&gt;Location: 59263 - 55271&lt;br&gt;&lt;br&gt;&lt;b&gt;BlastP hit with CDDIDNMG_04728&lt;/b&gt;&lt;br&gt;Percentage identity: 58&lt;br&gt;Percentage coverage: 100&lt;br&gt;BLAST bit score: 166&lt;br&gt;E-value: 9.52e-47&lt;br&gt;&lt;br&gt;&lt;b&gt;BlastP hit with CDDIDNMG_04729&lt;/b&gt;&lt;br&gt;Percentage identity: 54&lt;br&gt;Percentage coverage: 85&lt;br&gt;BLAST bit score: 316&lt;br&gt;E-value: 1.86e-95" locus_tag="GGE15_RS04050" class="clusterblast-orf" id="dummy-1_h1_4_19"  />
</g>
<g id="a1_0020"  >
<polygon points="431,90 450,90 455,85 450,80 431,80 431,90 " style="fill:white; stroke-width:1; stroke:black; " description="&lt;b&gt;GGE15_RS04045&lt;/b&gt;&lt;br&gt;lysine N(6)-hydroxylase/L-ornithine N(5)-oxygenase family protein&lt;br&gt;Location: 55274 - 53922" locus_tag="GGE15_RS04045" class="clusterblast-orf" id="dummy-1_h1_4_20"  />
</g>
<g id="a1_0021"  >
<polygon points="455,85 460,80 468,80 468,90 460,90 455,85 " style="fill:white; stroke-width:1; stroke:black; " description="&lt;b&gt;GGE15_RS04040&lt;/b&gt;&lt;br&gt;4'-phosphopantetheinyl transferase superfamily protein&lt;br&gt;Location: 53949 - 53230" locus_tag="GGE15_RS04040" class="clusterblast-orf" id="dummy-1_h1_4_21"  />
</g>
<g id="a1_0022"  >
<polygon points="472,90 501,90 506,85 501,80 472,80 472,90 " style="fill:white; stroke-width:1; stroke:black; " description="&lt;b&gt;GGE15_RS04035&lt;/b&gt;&lt;br&gt;methyl-accepting chemotaxis protein&lt;br&gt;Location: 53020 - 51143" locus_tag="GGE15_RS04035" class="clusterblast-orf" id="dummy-1_h1_4_22"  />
</g>
<g id="a1_0023"  >
<polygon points="508,85 513,80 518,80 518,90 513,90 508,85 " style="fill:white; stroke-width:1; stroke:black; " description="&lt;b&gt;GGE15_RS04030&lt;/b&gt;&lt;br&gt;nuclear transport factor 2 family protein&lt;br&gt;Location: 51054 - 50506" locus_tag="GGE15_RS04030" class="clusterblast-orf" id="dummy-1_h1_4_23"  />
</g>
<g id="a1_0024"  >
<polygon points="519,85 524,80 534,80 534,90 524,90 519,85 " style="fill:white; stroke-width:1; stroke:black; " description="&lt;b&gt;GGE15_RS04025&lt;/b&gt;&lt;br&gt;SDR family oxidoreductase&lt;br&gt;Location: 50424 - 49621" locus_tag="GGE15_RS04025" class="clusterblast-orf" id="dummy-1_h1_4_24"  />
</g>
<g id="a1_0025"  >
<polygon points="535,85 540,80 542,80 542,90 540,90 535,85 " style="fill:white; stroke-width:1; stroke:black; " description="&lt;b&gt;GGE15_RS04020&lt;/b&gt;&lt;br&gt;heme-binding protein&lt;br&gt;Location: 49565 - 49167" locus_tag="GGE15_RS04020" class="clusterblast-orf" id="dummy-1_h1_4_25"  />
</g>
<g id="a1_0026"  >
<polygon points="545,85 550,80 561,80 561,90 550,90 545,85 " style="fill:white; stroke-width:1; stroke:black; " description="&lt;b&gt;GGE15_RS04015&lt;/b&gt;&lt;br&gt;helix-turn-helix transcriptional regulator&lt;br&gt;Location: 48996 - 48109" locus_tag="GGE15_RS04015" class="clusterblast-orf" id="dummy-1_h1_4_26"  />
</g>
<g id="a1_0027"  >
<polygon points="566,85 571,80 583,80 583,90 571,90 566,85 " style="fill:white; stroke-width:1; stroke:black; " description="&lt;b&gt;GGE15_RS04010&lt;/b&gt;&lt;br&gt;MurR/RpiR family transcriptional regulator&lt;br&gt;Location: 47835 - 46912" locus_tag="GGE15_RS04010" class="clusterblast-orf" id="dummy-1_h1_4_27"  />
</g>
<g id="a1_0028"  >
<polygon points="583,85 588,80 602,80 602,90 588,90 583,85 " style="fill:white; stroke-width:1; stroke:black; " description="&lt;b&gt;GGE15_RS04005&lt;/b&gt;&lt;br&gt;peptidase C45&lt;br&gt;Location: 46896 - 45850" locus_tag="GGE15_RS04005" class="clusterblast-orf" id="dummy-1_h1_4_28"  />
</g>
<g id="a1_0029"  >
<polygon points="602,85 607,80 615,80 615,90 607,90 602,85 " style="fill:#1531d8; stroke-width:1; stroke:black; " description="&lt;b&gt;GGE15_RS04000&lt;/b&gt;&lt;br&gt;glutamine ABC transporter ATP-binding protein GlnQ&lt;br&gt;Location: 45860 - 45132&lt;br&gt;&lt;br&gt;&lt;b&gt;BlastP hit with CDDIDNMG_04721&lt;/b&gt;&lt;br&gt;Percentage identity: 41&lt;br&gt;Percentage coverage: 66&lt;br&gt;BLAST bit score: 151&lt;br&gt;E-value: 8.24e-42&lt;br&gt;&lt;br&gt;&lt;b&gt;BlastP hit with CDDIDNMG_04732&lt;/b&gt;&lt;br&gt;Percentage identity: 32&lt;br&gt;Percentage coverage: 69&lt;br&gt;BLAST bit score: 111&lt;br&gt;E-value: 8.42e-27&lt;br&gt;&lt;br&gt;&lt;b&gt;BlastP hit with CDDIDNMG_04742&lt;/b&gt;&lt;br&gt;Percentage identity: 50&lt;br&gt;Percentage coverage: 95&lt;br&gt;BLAST bit score: 241&lt;br&gt;E-value: 2.41e-78&lt;br&gt;&lt;br&gt;&lt;b&gt;BlastP hit with CDDIDNMG_04747&lt;/b&gt;&lt;br&gt;Percentage identity: 39&lt;br&gt;Percentage coverage: 65&lt;br&gt;BLAST bit score: 154&lt;br&gt;E-value: 5.33e-43" locus_tag="GGE15_RS04000" class="clusterblast-orf" id="dummy-1_h1_4_29"  />
</g>
<g id="a1_0030"  >
<polygon points="615,85 620,80 627,80 627,90 620,90 615,85 " style="fill:#15d8d8; stroke-width:1; stroke:black; " description="&lt;b&gt;GGE15_RS03995&lt;/b&gt;&lt;br&gt;glutamine ABC transporter permease GlnP&lt;br&gt;Location: 45135 - 44479&lt;br&gt;&lt;br&gt;&lt;b&gt;BlastP hit with CDDIDNMG_04740&lt;/b&gt;&lt;br&gt;Percentage identity: 35&lt;br&gt;Percentage coverage: 91&lt;br&gt;BLAST bit score: 97&lt;br&gt;E-value: 1.2e-22&lt;br&gt;&lt;br&gt;&lt;b&gt;BlastP hit with CDDIDNMG_04741&lt;/b&gt;&lt;br&gt;Percentage identity: 34&lt;br&gt;Percentage coverage: 96&lt;br&gt;BLAST bit score: 103&lt;br&gt;E-value: 2.36e-25" locus_tag="GGE15_RS03995" class="clusterblast-orf" id="dummy-1_h1_4_30"  />
</g>
<g id="a1_0031"  >
<polygon points="628,85 633,80 642,80 642,90 633,90 628,85 " style="fill:white; stroke-width:1; stroke:black; " description="&lt;b&gt;GGE15_RS03990&lt;/b&gt;&lt;br&gt;glutamine ABC transporter substrate-binding protein GlnH&lt;br&gt;Location: 44413 - 43664" locus_tag="GGE15_RS03990" class="clusterblast-orf" id="dummy-1_h1_4_31"  />
</g>
<g id="a1_0032"  >
<polygon points="652,85 657,80 676,80 676,90 657,90 652,85 " style="fill:white; stroke-width:1; stroke:black; " description="&lt;b&gt;GGE15_RS03985&lt;/b&gt;&lt;br&gt;aspartate aminotransferase family protein&lt;br&gt;Location: 43140 - 41809" locus_tag="GGE15_RS03985" class="clusterblast-orf" id="dummy-1_h1_4_32"  />
</g>
<g id="a1_0033"  >
<polygon points="676,85 681,80 692,80 692,90 681,90 676,85 " style="fill:white; stroke-width:1; stroke:black; " description="&lt;b&gt;GGE15_RS03980&lt;/b&gt;&lt;br&gt;MurR/RpiR family transcriptional regulator&lt;br&gt;Location: 41812 - 40922" locus_tag="GGE15_RS03980" class="clusterblast-orf" id="dummy-1_h1_4_33"  />
</g>
<g id="a1_0034"  >
<polygon points="694,90 704,90 709,85 704,80 694,80 694,90 " style="fill:white; stroke-width:1; stroke:black; " description="&lt;b&gt;GGE15_RS03975&lt;/b&gt;&lt;br&gt;3-keto-5-aminohexanoate cleavage protein&lt;br&gt;Location: 40812 - 39988" locus_tag="GGE15_RS03975" class="clusterblast-orf" id="dummy-1_h1_4_34"  />
</g>
<g id="a1_0035"  >
<polygon points="715,85 720,80 730,80 730,90 720,90 715,85 " style="fill:white; stroke-width:1; stroke:black; " description="&lt;b&gt;GGE15_RS03970&lt;/b&gt;&lt;br&gt;MBL fold metallo-hydrolase&lt;br&gt;Location: 39664 - 38831" locus_tag="GGE15_RS03970" class="clusterblast-orf" id="dummy-1_h1_4_35"  />
</g>
<g id="a1_0036"  >
<polygon points="736,90 738,90 743,85 738,80 736,80 736,90 " style="fill:white; stroke-width:1; stroke:black; " description="&lt;b&gt;GGE15_RS03965&lt;/b&gt;&lt;br&gt;RidA family protein&lt;br&gt;Location: 38481 - 38092" locus_tag="GGE15_RS03965" class="clusterblast-orf" id="dummy-1_h1_4_36"  />
</g>
<g id="a1_0037"  >
<polygon points="743,85 748,80 754,80 754,90 748,90 743,85 " style="fill:white; stroke-width:1; stroke:black; " description="&lt;b&gt;GGE15_RS03960&lt;/b&gt;&lt;br&gt;NAD(P)H-dependent oxidoreductase&lt;br&gt;Location: 38095 - 37514" locus_tag="GGE15_RS03960" class="clusterblast-orf" id="dummy-1_h1_4_37"  />
</g>
<g id="a1_0038"  >
<polygon points="754,85 759,80 780,80 780,90 759,90 754,85 " style="fill:white; stroke-width:1; stroke:black; " description="&lt;b&gt;GGE15_RS03955&lt;/b&gt;&lt;br&gt;FAD-binding oxidoreductase&lt;br&gt;Location: 37517 - 36108" locus_tag="GGE15_RS03955" class="clusterblast-orf" id="dummy-1_h1_4_38"  />
</g>
</svg>
