<svg xmlns="http://www.w3.org/2000/svg" xmlns:xlink="http://www.w3.org/1999/xlink" version="1.1" x="0" y="0" height="230" width="800" viewBox="0 0 800 230" preserveAspectRatio="none"  >
<g label="Query sequence" class="clusterblast-cluster"  >
<text x="5" y="20" class="clusterblast-acc"  >
Query sequence</text>
<line x1="10" y1="35" x2="778.0" y2="35" style="stroke-width:1; stroke:grey; "  />
<polygon points="0,40 2,35 0,30 0,40 " style="fill:white; stroke-width:1; stroke:black; " description="&lt;b&gt;CDDIDNMG_01057&lt;/b&gt;&lt;br&gt;hypothetical protein&lt;br&gt;Location: 21389 - 21524" locus_tag="CDDIDNMG_01057" class="clusterblast-orf" id="dummy-1_q0_0_all"  />
<polygon points="3,40 17,40 22,35 17,30 3,30 3,40 " style="fill:white; stroke-width:1; stroke:black; " description="&lt;b&gt;CDDIDNMG_01058&lt;/b&gt;&lt;br&gt;Diaminopimelate decarboxylase&lt;br&gt;Location: 21609 - 22875" locus_tag="CDDIDNMG_01058" class="clusterblast-orf" id="dummy-1_q1_0_all"  />
<polygon points="23,40 55,40 60,35 55,30 23,30 23,40 " style="fill:white; stroke-width:1; stroke:black; " description="&lt;b&gt;CDDIDNMG_01059&lt;/b&gt;&lt;br&gt;hypothetical protein&lt;br&gt;Location: 22889 - 25337" locus_tag="CDDIDNMG_01059" class="clusterblast-orf" id="dummy-1_q2_0_all"  />
<polygon points="63,40 66,35 63,30 63,40 " style="fill:white; stroke-width:1; stroke:black; " description="&lt;b&gt;CDDIDNMG_01060&lt;/b&gt;&lt;br&gt;Cold shock protein CspA&lt;br&gt;Location: 25521 - 25728" locus_tag="CDDIDNMG_01060" class="clusterblast-orf" id="dummy-1_q3_0_all"  />
<polygon points="70,35 75,30 79,30 79,40 75,40 70,35 " style="fill:white; stroke-width:1; stroke:black; " description="&lt;b&gt;CDDIDNMG_01061&lt;/b&gt;&lt;br&gt;FMN-dependent NADH-azoreductase&lt;br&gt;Location: 25966 - 26557" locus_tag="CDDIDNMG_01061" class="clusterblast-orf" id="dummy-1_q4_0_all"  />
<polygon points="83,35 88,30 100,30 100,40 88,40 83,35 " style="fill:white; stroke-width:1; stroke:black; " description="&lt;b&gt;CDDIDNMG_01062&lt;/b&gt;&lt;br&gt;N-ethylmaleimide reductase&lt;br&gt;Location: 26843 - 27926" locus_tag="CDDIDNMG_01062" class="clusterblast-orf" id="dummy-1_q5_0_all"  />
<polygon points="103,35 108,30 131,30 131,40 108,40 103,35 " style="fill:#d81515; stroke-width:1; stroke:black; " description="&lt;b&gt;CDDIDNMG_01063&lt;/b&gt;&lt;br&gt;UvrABC system protein C&lt;br&gt;Location: 28152 - 30009" locus_tag="CDDIDNMG_01063" class="clusterblast-orf" id="dummy-1_q6_0_all"  />
<polygon points="136,35 141,30 148,30 148,40 141,40 136,35 " style="fill:#77d815; stroke-width:1; stroke:black; " description="&lt;b&gt;CDDIDNMG_01064&lt;/b&gt;&lt;br&gt;3-oxoacyl-[acyl-carrier-protein] reductase FabG&lt;br&gt;Location: 30319 - 31096" locus_tag="CDDIDNMG_01064" class="clusterblast-orf" id="dummy-1_q7_0_all"  />
<polygon points="148,35 152,30 152,40 148,35 " style="fill:white; stroke-width:1; stroke:black; " description="&lt;b&gt;CDDIDNMG_01065&lt;/b&gt;&lt;br&gt;hypothetical protein&lt;br&gt;Location: 31092 - 31338" locus_tag="CDDIDNMG_01065" class="clusterblast-orf" id="dummy-1_q8_0_all"  />
<polygon points="151,35 156,30 163,30 163,40 156,40 151,35 " style="fill:#15d8d8; stroke-width:1; stroke:black; " description="&lt;b&gt;CDDIDNMG_01066&lt;/b&gt;&lt;br&gt;hypothetical protein&lt;br&gt;Location: 31285 - 32074" locus_tag="CDDIDNMG_01066" class="clusterblast-orf" id="dummy-1_q9_0_all"  />
<polygon points="165,40 173,40 178,35 173,30 165,30 165,40 " style="fill:#7715d8; stroke-width:1; stroke:black; " description="&lt;b&gt;CDDIDNMG_01067&lt;/b&gt;&lt;br&gt;HTH-type transcriptional regulator CynR&lt;br&gt;Location: 32204 - 33095" locus_tag="CDDIDNMG_01067" class="clusterblast-orf" id="dummy-1_q10_0_all"  />
<polygon points="180,40 182,40 187,35 182,30 180,30 180,40 " style="fill:#d83f15; stroke-width:1; stroke:black; " description="&lt;b&gt;CDDIDNMG_01068&lt;/b&gt;&lt;br&gt;NADP-reducing hydrogenase subunit HndA&lt;br&gt;Location: 33190 - 33658" locus_tag="CDDIDNMG_01068" class="clusterblast-orf" id="dummy-1_q11_0_all"  />
<polygon points="187,40 205,40 210,35 205,30 187,30 187,40 " style="fill:#4dd815; stroke-width:1; stroke:black; " description="&lt;b&gt;CDDIDNMG_01069&lt;/b&gt;&lt;br&gt;NADP-reducing hydrogenase subunit HndC&lt;br&gt;Location: 33654 - 35181" locus_tag="CDDIDNMG_01069" class="clusterblast-orf" id="dummy-1_q12_0_all"  />
<polygon points="210,40 249,40 254,35 249,30 210,30 210,40 " style="fill:#15aed8; stroke-width:1; stroke:black; " description="&lt;b&gt;CDDIDNMG_01070&lt;/b&gt;&lt;br&gt;Putative formate dehydrogenase&lt;br&gt;Location: 35177 - 38069" locus_tag="CDDIDNMG_01070" class="clusterblast-orf" id="dummy-1_q13_0_all"  />
<polygon points="254,40 262,40 267,35 262,30 254,30 254,40 " style="fill:#a115d8; stroke-width:1; stroke:black; " description="&lt;b&gt;CDDIDNMG_01071&lt;/b&gt;&lt;br&gt;Sulfur carrier protein FdhD&lt;br&gt;Location: 38068 - 38875" locus_tag="CDDIDNMG_01071" class="clusterblast-orf" id="dummy-1_q14_0_all"  />
<polygon points="267,40 270,35 267,30 267,40 " style="fill:#d86915; stroke-width:1; stroke:black; " description="&lt;b&gt;CDDIDNMG_01072&lt;/b&gt;&lt;br&gt;hypothetical protein&lt;br&gt;Location: 38864 - 39113" locus_tag="CDDIDNMG_01072" class="clusterblast-orf" id="dummy-1_q15_0_all"  />
<polygon points="273,40 279,40 284,35 279,30 273,30 273,40 " style="fill:white; stroke-width:1; stroke:black; " description="&lt;b&gt;CDDIDNMG_01073&lt;/b&gt;&lt;br&gt;hypothetical protein&lt;br&gt;Location: 39271 - 40003" locus_tag="CDDIDNMG_01073" class="clusterblast-orf" id="dummy-1_q16_0_all"  />
<polygon points="284,35 289,30 294,30 294,40 289,40 284,35 " style="fill:#23d815; stroke-width:1; stroke:black; " description="&lt;b&gt;CDDIDNMG_01074&lt;/b&gt;&lt;br&gt;4'-phosphopantetheinyl transferase Npt&lt;br&gt;Location: 39992 - 40640" locus_tag="CDDIDNMG_01074" class="clusterblast-orf" id="dummy-1_q17_0_all"  />
<polygon points="294,35 299,30 362,30 362,40 299,40 294,35 " style="fill:#1585d8; stroke-width:1; stroke:black; " description="&lt;b&gt;CDDIDNMG_01075&lt;/b&gt;&lt;br&gt;D-alanine--D-alanyl carrier protein ligase&lt;br&gt;Location: 40632 - 45123" locus_tag="CDDIDNMG_01075" class="clusterblast-orf" id="dummy-1_q18_0_all"  />
<polygon points="362,35 367,30 378,30 378,40 367,40 362,35 " style="fill:#ca15d8; stroke-width:1; stroke:black; " description="&lt;b&gt;CDDIDNMG_01076&lt;/b&gt;&lt;br&gt;hypothetical protein&lt;br&gt;Location: 45133 - 46141" locus_tag="CDDIDNMG_01076" class="clusterblast-orf" id="dummy-1_q19_0_all"  />
<polygon points="378,35 383,30 475,30 475,40 383,40 378,35 " style="fill:#d89315; stroke-width:1; stroke:black; " description="&lt;b&gt;CDDIDNMG_01077&lt;/b&gt;&lt;br&gt;hypothetical protein&lt;br&gt;Location: 46143 - 52527" locus_tag="CDDIDNMG_01077" class="clusterblast-orf" id="dummy-1_q20_0_all"  />
<polygon points="478,35 483,30 493,30 493,40 483,40 478,35 " style="fill:#15d831; stroke-width:1; stroke:black; " description="&lt;b&gt;CDDIDNMG_01078&lt;/b&gt;&lt;br&gt;hypothetical protein&lt;br&gt;Location: 52707 - 53700" locus_tag="CDDIDNMG_01078" class="clusterblast-orf" id="dummy-1_q21_0_all"  />
<polygon points="493,35 498,30 515,30 515,40 498,40 493,35 " style="fill:#155bd8; stroke-width:1; stroke:black; " description="&lt;b&gt;CDDIDNMG_01079&lt;/b&gt;&lt;br&gt;hypothetical protein&lt;br&gt;Location: 53699 - 55118" locus_tag="CDDIDNMG_01079" class="clusterblast-orf" id="dummy-1_q22_0_all"  />
<polygon points="516,35 521,30 530,30 530,40 521,40 516,35 " style="fill:#d815bc; stroke-width:1; stroke:black; " description="&lt;b&gt;CDDIDNMG_01080&lt;/b&gt;&lt;br&gt;hypothetical protein&lt;br&gt;Location: 55199 - 56111" locus_tag="CDDIDNMG_01080" class="clusterblast-orf" id="dummy-1_q23_0_all"  />
<polygon points="532,40 538,40 543,35 538,30 532,30 532,40 " style="fill:#d8bc15; stroke-width:1; stroke:black; " description="&lt;b&gt;CDDIDNMG_01081&lt;/b&gt;&lt;br&gt;N-acetylglucosaminyldiphosphoundecaprenol N-acetyl-beta-D-mannosaminyltransferase&lt;br&gt;Location: 56238 - 56985" locus_tag="CDDIDNMG_01081" class="clusterblast-orf" id="dummy-1_q24_0_all"  />
<polygon points="543,35 548,30 558,30 558,40 548,40 543,35 " style="fill:#15d85b; stroke-width:1; stroke:black; " description="&lt;b&gt;CDDIDNMG_01082&lt;/b&gt;&lt;br&gt;hypothetical protein&lt;br&gt;Location: 56985 - 57969" locus_tag="CDDIDNMG_01082" class="clusterblast-orf" id="dummy-1_q25_0_all"  />
<polygon points="563,40 571,40 576,35 571,30 563,30 563,40 " style="fill:#1531d8; stroke-width:1; stroke:black; " description="&lt;b&gt;CDDIDNMG_01083&lt;/b&gt;&lt;br&gt;hypothetical protein&lt;br&gt;Location: 58273 - 59143" locus_tag="CDDIDNMG_01083" class="clusterblast-orf" id="dummy-1_q26_0_all"  />
<polygon points="576,40 592,40 597,35 592,30 576,30 576,40 " style="fill:#d81593; stroke-width:1; stroke:black; " description="&lt;b&gt;CDDIDNMG_01084&lt;/b&gt;&lt;br&gt;hypothetical protein&lt;br&gt;Location: 59146 - 60505" locus_tag="CDDIDNMG_01084" class="clusterblast-orf" id="dummy-1_q27_0_all"  />
<polygon points="600,35 605,30 611,30 611,40 605,40 600,35 " style="fill:#cad815; stroke-width:1; stroke:black; " description="&lt;b&gt;CDDIDNMG_01085&lt;/b&gt;&lt;br&gt;Undecaprenyl phosphate N,N'-diacetylbacillosamine 1-phosphate transferase&lt;br&gt;Location: 60672 - 61392" locus_tag="CDDIDNMG_01085" class="clusterblast-orf" id="dummy-1_q28_0_all"  />
<polygon points="617,35 620,30 620,40 617,35 " style="fill:white; stroke-width:1; stroke:black; " description="&lt;b&gt;CDDIDNMG_01086&lt;/b&gt;&lt;br&gt;hypothetical protein&lt;br&gt;Location: 61822 - 62017" locus_tag="CDDIDNMG_01086" class="clusterblast-orf" id="dummy-1_q29_0_all"  />
<polygon points="622,35 627,30 635,30 635,40 627,40 622,35 " style="fill:#15d885; stroke-width:1; stroke:black; " description="&lt;b&gt;CDDIDNMG_01087&lt;/b&gt;&lt;br&gt;Glucose-1-phosphate thymidylyltransferase&lt;br&gt;Location: 62130 - 63003" locus_tag="CDDIDNMG_01087" class="clusterblast-orf" id="dummy-1_q30_0_all"  />
<polygon points="635,35 640,30 648,30 648,40 640,40 635,35 " style="fill:#2315d8; stroke-width:1; stroke:black; " description="&lt;b&gt;CDDIDNMG_01088&lt;/b&gt;&lt;br&gt;dTDP-4-dehydrorhamnose reductase&lt;br&gt;Location: 62999 - 63851" locus_tag="CDDIDNMG_01088" class="clusterblast-orf" id="dummy-1_q31_0_all"  />
<polygon points="649,35 654,30 665,30 665,40 654,40 649,35 " style="fill:#d81569; stroke-width:1; stroke:black; " description="&lt;b&gt;CDDIDNMG_01089&lt;/b&gt;&lt;br&gt;dTDP-glucose 4,6-dehydratase 2&lt;br&gt;Location: 63906 - 64947" locus_tag="CDDIDNMG_01089" class="clusterblast-orf" id="dummy-1_q32_0_all"  />
<polygon points="665,35 670,30 674,30 674,40 670,40 665,35 " style="fill:#a1d815; stroke-width:1; stroke:black; " description="&lt;b&gt;CDDIDNMG_01090&lt;/b&gt;&lt;br&gt;dTDP-4-dehydrorhamnose 3,5-epimerase&lt;br&gt;Location: 64943 - 65507" locus_tag="CDDIDNMG_01090" class="clusterblast-orf" id="dummy-1_q33_0_all"  />
<polygon points="675,35 680,30 695,30 695,40 680,40 675,35 " style="fill:#15d8ae; stroke-width:1; stroke:black; " description="&lt;b&gt;CDDIDNMG_01091&lt;/b&gt;&lt;br&gt;hypothetical protein&lt;br&gt;Location: 65582 - 66935" locus_tag="CDDIDNMG_01091" class="clusterblast-orf" id="dummy-1_q34_0_all"  />
<polygon points="698,40 712,40 717,35 712,30 698,30 698,40 " style="fill:#4d15d8; stroke-width:1; stroke:black; " description="&lt;b&gt;CDDIDNMG_01092&lt;/b&gt;&lt;br&gt;D-inositol-3-phosphate glycosyltransferase&lt;br&gt;Location: 67098 - 68370" locus_tag="CDDIDNMG_01092" class="clusterblast-orf" id="dummy-1_q35_0_all"  />
<polygon points="717,40 724,40 729,35 724,30 717,30 717,40 " style="fill:#d8153f; stroke-width:1; stroke:black; " description="&lt;b&gt;CDDIDNMG_01093&lt;/b&gt;&lt;br&gt;hypothetical protein&lt;br&gt;Location: 68366 - 69152" locus_tag="CDDIDNMG_01093" class="clusterblast-orf" id="dummy-1_q36_0_all"  />
<polygon points="732,35 737,30 742,30 742,40 737,40 732,35 " style="fill:white; stroke-width:1; stroke:black; " description="&lt;b&gt;CDDIDNMG_01094&lt;/b&gt;&lt;br&gt;hypothetical protein&lt;br&gt;Location: 69322 - 69955" locus_tag="CDDIDNMG_01094" class="clusterblast-orf" id="dummy-1_q37_0_all"  />
<polygon points="743,40 752,40 757,35 752,30 743,30 743,40 " style="fill:white; stroke-width:1; stroke:black; " description="&lt;b&gt;CDDIDNMG_01095&lt;/b&gt;&lt;br&gt;Chaperedoxin&lt;br&gt;Location: 70069 - 70984" locus_tag="CDDIDNMG_01095" class="clusterblast-orf" id="dummy-1_q38_0_all"  />
<polygon points="758,40 763,40 768,35 763,30 758,30 758,40 " style="fill:white; stroke-width:1; stroke:black; " description="&lt;b&gt;CDDIDNMG_01096&lt;/b&gt;&lt;br&gt;hypothetical protein&lt;br&gt;Location: 71013 - 71652" locus_tag="CDDIDNMG_01096" class="clusterblast-orf" id="dummy-1_q39_0_all"  />
<polygon points="767,40 770,35 767,30 767,40 " style="fill:white; stroke-width:1; stroke:black; " description="&lt;b&gt;CDDIDNMG_01097&lt;/b&gt;&lt;br&gt;hypothetical protein&lt;br&gt;Location: 71648 - 71843" locus_tag="CDDIDNMG_01097" class="clusterblast-orf" id="dummy-1_q40_0_all"  />
<polygon points="771,35 776,30 780,30 780,40 776,40 771,35 " style="fill:white; stroke-width:1; stroke:black; " description="&lt;b&gt;CDDIDNMG_01098&lt;/b&gt;&lt;br&gt;hypothetical protein&lt;br&gt;Location: 71864 - 72446" locus_tag="CDDIDNMG_01098" class="clusterblast-orf" id="dummy-1_q41_0_all"  />
</g>
<g label="NZ_QXXQ01000003" description="NZ_QXXQ01000003 (278073-330025): Gemmobacter lutimaris strain YJ-T1-11 scaffo... (36% of genes show similarity), NRPS-like,T1PKS" class="clusterblast-cluster"  >
<text x="5" y="70" class="clusterblast-acc"  >
<a xlink:href="https://antismash-db.secondarymetabolites.org/area.html?record=NZ_QXXQ01000003&amp;start=278073&amp;end=330025" target="_blank">NZ_QXXQ01000003 (278073-330025)</a>: Gemmobacter lutimaris strain YJ-T1-11 scaffo... (36% of genes show similarity), NRPS-like,T1PKS</text>
<line x1="10" y1="85" x2="778.0" y2="85" style="stroke-width:1; stroke:grey; "  />
</g>
<g id="a1_000"  >
<polygon points="4,90 9,90 14,85 9,80 4,80 4,90 " style="fill:white; stroke-width:1; stroke:black; " description="&lt;b&gt;D2N39_RS08110&lt;/b&gt;&lt;br&gt;ATP-binding cassette domain-containing protein&lt;br&gt;Location: 329329 - 328646" locus_tag="D2N39_RS08110" class="clusterblast-orf" id="dummy-1_h1_4_0"  />
</g>
<g id="a1_001"  >
<polygon points="15,85 20,80 27,80 27,90 20,90 15,85 " style="fill:white; stroke-width:1; stroke:black; " description="&lt;b&gt;D2N39_RS08105&lt;/b&gt;&lt;br&gt;cytochrome c1&lt;br&gt;Location: 328597 - 327809" locus_tag="D2N39_RS08105" class="clusterblast-orf" id="dummy-1_h1_4_1"  />
</g>
<g id="a1_002"  >
<polygon points="28,85 33,80 48,80 48,90 33,90 28,85 " style="fill:white; stroke-width:1; stroke:black; " description="&lt;b&gt;D2N39_RS08100&lt;/b&gt;&lt;br&gt;cytochrome b&lt;br&gt;Location: 327789 - 326476" locus_tag="D2N39_RS08100" class="clusterblast-orf" id="dummy-1_h1_4_2"  />
</g>
<g id="a1_003"  >
<polygon points="48,85 53,80 56,80 56,90 53,90 48,85 " style="fill:white; stroke-width:1; stroke:black; " description="&lt;b&gt;D2N39_RS08095&lt;/b&gt;&lt;br&gt;ubiquinol-cytochrome c reductase iron-sulfur subunit&lt;br&gt;Location: 326464 - 325904" locus_tag="D2N39_RS08095" class="clusterblast-orf" id="dummy-1_h1_4_3"  />
</g>
<g id="a1_004"  >
<polygon points="60,90 74,90 79,85 74,80 60,80 60,90 " style="fill:white; stroke-width:1; stroke:black; " description="&lt;b&gt;D2N39_RS08090&lt;/b&gt;&lt;br&gt;phosphatase PAP2 family protein&lt;br&gt;Location: 325648 - 324434" locus_tag="D2N39_RS08090" class="clusterblast-orf" id="dummy-1_h1_4_4"  />
</g>
<g id="a1_005"  >
<polygon points="79,85 84,80 88,80 88,90 84,90 79,85 " style="fill:white; stroke-width:1; stroke:black; " description="&lt;b&gt;D2N39_RS08085&lt;/b&gt;&lt;br&gt;glutathione S-transferase&lt;br&gt;Location: 324431 - 323820" locus_tag="D2N39_RS08085" class="clusterblast-orf" id="dummy-1_h1_4_5"  />
</g>
<g id="a1_006"  >
<polygon points="90,90 94,90 99,85 94,80 90,80 90,90 " style="fill:white; stroke-width:1; stroke:black; " description="&lt;b&gt;D2N39_RS08080&lt;/b&gt;&lt;br&gt;peroxidase-related enzyme&lt;br&gt;Location: 323711 - 323145" locus_tag="D2N39_RS08080" class="clusterblast-orf" id="dummy-1_h1_4_6"  />
</g>
<g id="a1_007"  >
<polygon points="99,85 101,80 101,90 99,85 " style="fill:white; stroke-width:1; stroke:black; " description="&lt;b&gt;D2N39_RS08075&lt;/b&gt;&lt;br&gt;50S ribosomal protein L36&lt;br&gt;Location: 323083 - 322958" locus_tag="D2N39_RS08075" class="clusterblast-orf" id="dummy-1_h1_4_7"  />
</g>
<g id="a1_008"  >
<polygon points="106,90 114,90 119,85 114,80 106,80 106,90 " style="fill:white; stroke-width:1; stroke:black; " description="&lt;b&gt;D2N39_RS08065&lt;/b&gt;&lt;br&gt;N-formylglutamate amidohydrolase&lt;br&gt;Location: 322684 - 321800" locus_tag="D2N39_RS08065" class="clusterblast-orf" id="dummy-1_h1_4_8"  />
</g>
<g id="a1_009"  >
<polygon points="119,85 124,80 138,80 138,90 124,90 119,85 " style="fill:white; stroke-width:1; stroke:black; " description="&lt;b&gt;D2N39_RS08060&lt;/b&gt;&lt;br&gt;winged helix-turn-helix domain-containing protein&lt;br&gt;Location: 321798 - 320575" locus_tag="D2N39_RS08060" class="clusterblast-orf" id="dummy-1_h1_4_9"  />
</g>
<g id="a1_0010"  >
<polygon points="140,90 158,90 163,85 158,80 140,80 140,90 " style="fill:white; stroke-width:1; stroke:black; " description="&lt;b&gt;D2N39_RS08055&lt;/b&gt;&lt;br&gt;hypothetical protein&lt;br&gt;Location: 320398 - 318902" locus_tag="D2N39_RS08055" class="clusterblast-orf" id="dummy-1_h1_4_10"  />
</g>
<g id="a1_0011"  >
<polygon points="164,85 169,80 182,80 182,90 169,90 164,85 " style="fill:white; stroke-width:1; stroke:black; " description="&lt;b&gt;D2N39_RS08050&lt;/b&gt;&lt;br&gt;23S rRNA (adenine(2503)-C(2))-methyltransferase RlmN&lt;br&gt;Location: 318889 - 317699" locus_tag="D2N39_RS08050" class="clusterblast-orf" id="dummy-1_h1_4_11"  />
</g>
<g id="a1_0012"  >
<polygon points="184,85 189,80 192,80 192,90 189,90 184,85 " style="fill:white; stroke-width:1; stroke:black; " description="&lt;b&gt;D2N39_RS08045&lt;/b&gt;&lt;br&gt;hypothetical protein&lt;br&gt;Location: 317557 - 317024" locus_tag="D2N39_RS08045" class="clusterblast-orf" id="dummy-1_h1_4_12"  />
</g>
<g id="a1_0013"  >
<polygon points="195,90 205,90 210,85 205,80 195,80 195,90 " style="fill:white; stroke-width:1; stroke:black; " description="&lt;b&gt;D2N39_RS08040&lt;/b&gt;&lt;br&gt;asparaginase&lt;br&gt;Location: 316855 - 315854" locus_tag="D2N39_RS08040" class="clusterblast-orf" id="dummy-1_h1_4_13"  />
</g>
<g id="a1_0014"  >
<polygon points="214,90 214,90 219,85 214,80 214,80 214,90 " style="fill:white; stroke-width:1; stroke:black; " description="&lt;b&gt;D2N39_RS08035&lt;/b&gt;&lt;br&gt;DUF2794 domain-containing protein&lt;br&gt;Location: 315601 - 315245" locus_tag="D2N39_RS08035" class="clusterblast-orf" id="dummy-1_h1_4_14"  />
</g>
<g id="a1_0015"  >
<polygon points="219,85 224,80 232,80 232,90 224,90 219,85 " style="fill:white; stroke-width:1; stroke:black; " description="&lt;b&gt;D2N39_RS08030&lt;/b&gt;&lt;br&gt;NlpC/P60 family protein&lt;br&gt;Location: 315234 - 314413" locus_tag="D2N39_RS08030" class="clusterblast-orf" id="dummy-1_h1_4_15"  />
</g>
<g id="a1_0016"  >
<polygon points="232,85 237,80 253,80 253,90 237,90 232,85 " style="fill:white; stroke-width:1; stroke:black; " description="&lt;b&gt;D2N39_RS08025&lt;/b&gt;&lt;br&gt;leucyl aminopeptidase family protein&lt;br&gt;Location: 314410 - 313034" locus_tag="D2N39_RS08025" class="clusterblast-orf" id="dummy-1_h1_4_16"  />
</g>
<g id="a1_0017"  >
<polygon points="254,85 259,80 260,80 260,90 259,90 254,85 " style="fill:white; stroke-width:1; stroke:black; " description="&lt;b&gt;D2N39_RS08020&lt;/b&gt;&lt;br&gt;hypothetical protein&lt;br&gt;Location: 312974 - 312591" locus_tag="D2N39_RS08020" class="clusterblast-orf" id="dummy-1_h1_4_17"  />
</g>
<g id="a1_0018"  >
<polygon points="262,90 267,90 272,85 267,80 262,80 262,90 " style="fill:white; stroke-width:1; stroke:black; " description="&lt;b&gt;D2N39_RS08015&lt;/b&gt;&lt;br&gt;carbonic anhydrase&lt;br&gt;Location: 312440 - 311793" locus_tag="D2N39_RS08015" class="clusterblast-orf" id="dummy-1_h1_4_18"  />
</g>
<g id="a1_0019"  >
<polygon points="272,85 277,80 289,80 289,90 277,90 272,85 " style="fill:white; stroke-width:1; stroke:black; " description="&lt;b&gt;D2N39_RS08010&lt;/b&gt;&lt;br&gt;cell division protein ZapE&lt;br&gt;Location: 311776 - 310682" locus_tag="D2N39_RS08010" class="clusterblast-orf" id="dummy-1_h1_4_19"  />
</g>
<g id="a1_0020"  >
<polygon points="289,85 294,80 299,80 299,90 294,90 289,85 " style="fill:#23d815; stroke-width:1; stroke:black; " description="&lt;b&gt;D2N39_RS08005&lt;/b&gt;&lt;br&gt;4'-phosphopantetheinyl transferase superfamily protein&lt;br&gt;Location: 310644 - 310018&lt;br&gt;&lt;br&gt;&lt;b&gt;BlastP hit with CDDIDNMG_01074&lt;/b&gt;&lt;br&gt;Percentage identity: 45&lt;br&gt;Percentage coverage: 96&lt;br&gt;BLAST bit score: 150&lt;br&gt;E-value: 1.06e-43" locus_tag="D2N39_RS08005" class="clusterblast-orf" id="dummy-1_h1_4_20"  />
</g>
<g id="a1_0021"  >
<polygon points="299,85 304,80 368,80 368,90 304,90 299,85 " style="fill:#1585d8; stroke-width:1; stroke:black; " description="&lt;b&gt;D2N39_RS08000&lt;/b&gt;&lt;br&gt;LLM class flavin-dependent oxidoreductase&lt;br&gt;Location: 310025 - 305511&lt;br&gt;&lt;br&gt;&lt;b&gt;BlastP hit with CDDIDNMG_01075&lt;/b&gt;&lt;br&gt;Percentage identity: 67&lt;br&gt;Percentage coverage: 101&lt;br&gt;BLAST bit score: 1897&lt;br&gt;E-value: 0.0" locus_tag="D2N39_RS08000" class="clusterblast-orf" id="dummy-1_h1_4_21"  />
</g>
<g id="a1_0022"  >
<polygon points="369,85 374,80 384,80 384,90 374,90 369,85 " style="fill:#ca15d8; stroke-width:1; stroke:black; " description="&lt;b&gt;D2N39_RS07995&lt;/b&gt;&lt;br&gt;glycosyltransferase family 2 protein&lt;br&gt;Location: 305472 - 304471&lt;br&gt;&lt;br&gt;&lt;b&gt;BlastP hit with CDDIDNMG_01076&lt;/b&gt;&lt;br&gt;Percentage identity: 73&lt;br&gt;Percentage coverage: 93&lt;br&gt;BLAST bit score: 472&lt;br&gt;E-value: 1.29e-166" locus_tag="D2N39_RS07995" class="clusterblast-orf" id="dummy-1_h1_4_22"  />
</g>
<g id="a1_0023"  >
<polygon points="384,85 389,80 482,80 482,90 389,90 384,85 " style="fill:#d89315; stroke-width:1; stroke:black; " description="&lt;b&gt;D2N39_RS07990&lt;/b&gt;&lt;br&gt;SDR family NAD(P)-dependent oxidoreductase&lt;br&gt;Location: 304466 - 298074&lt;br&gt;&lt;br&gt;&lt;b&gt;BlastP hit with CDDIDNMG_01077&lt;/b&gt;&lt;br&gt;Percentage identity: 71&lt;br&gt;Percentage coverage: 100&lt;br&gt;BLAST bit score: 2988&lt;br&gt;E-value: 0.0" locus_tag="D2N39_RS07990" class="clusterblast-orf" id="dummy-1_h1_4_23"  />
</g>
<g id="a1_0024"  >
<polygon points="484,85 489,80 500,80 500,90 489,90 484,85 " style="fill:#15d831; stroke-width:1; stroke:black; " description="&lt;b&gt;D2N39_RS07985&lt;/b&gt;&lt;br&gt;glycosyltransferase&lt;br&gt;Location: 297885 - 296896&lt;br&gt;&lt;br&gt;&lt;b&gt;BlastP hit with CDDIDNMG_01078&lt;/b&gt;&lt;br&gt;Percentage identity: 64&lt;br&gt;Percentage coverage: 101&lt;br&gt;BLAST bit score: 385&lt;br&gt;E-value: 1.04e-132" locus_tag="D2N39_RS07985" class="clusterblast-orf" id="dummy-1_h1_4_24"  />
</g>
<g id="a1_0025"  >
<polygon points="500,85 505,80 521,80 521,90 505,90 500,85 " style="fill:#155bd8; stroke-width:1; stroke:black; " description="&lt;b&gt;D2N39_RS07980&lt;/b&gt;&lt;br&gt;hypothetical protein&lt;br&gt;Location: 296896 - 295511&lt;br&gt;&lt;br&gt;&lt;b&gt;BlastP hit with CDDIDNMG_01079&lt;/b&gt;&lt;br&gt;Percentage identity: 57&lt;br&gt;Percentage coverage: 95&lt;br&gt;BLAST bit score: 506&lt;br&gt;E-value: 4.43e-176" locus_tag="D2N39_RS07980" class="clusterblast-orf" id="dummy-1_h1_4_25"  />
</g>
<g id="a1_0026"  >
<polygon points="522,85 527,80 536,80 536,90 527,90 522,85 " style="fill:#d815bc; stroke-width:1; stroke:black; " description="&lt;b&gt;D2N39_RS07975&lt;/b&gt;&lt;br&gt;acyltransferase&lt;br&gt;Location: 295431 - 294523&lt;br&gt;&lt;br&gt;&lt;b&gt;BlastP hit with CDDIDNMG_01080&lt;/b&gt;&lt;br&gt;Percentage identity: 53&lt;br&gt;Percentage coverage: 96&lt;br&gt;BLAST bit score: 308&lt;br&gt;E-value: 6.75e-103" locus_tag="D2N39_RS07975" class="clusterblast-orf" id="dummy-1_h1_4_26"  />
</g>
<g id="a1_0027"  >
<polygon points="538,90 545,90 550,85 545,80 538,80 538,90 " style="fill:#d8bc15; stroke-width:1; stroke:black; " description="&lt;b&gt;D2N39_RS07970&lt;/b&gt;&lt;br&gt;WecB/TagA/CpsF family glycosyltransferase&lt;br&gt;Location: 294350 - 293568&lt;br&gt;&lt;br&gt;&lt;b&gt;BlastP hit with CDDIDNMG_01081&lt;/b&gt;&lt;br&gt;Percentage identity: 61&lt;br&gt;Percentage coverage: 100&lt;br&gt;BLAST bit score: 300&lt;br&gt;E-value: 2.29e-101" locus_tag="D2N39_RS07970" class="clusterblast-orf" id="dummy-1_h1_4_27"  />
</g>
<g id="a1_0028"  >
<polygon points="550,85 555,80 565,80 565,90 555,90 550,85 " style="fill:#15d85b; stroke-width:1; stroke:black; " description="&lt;b&gt;D2N39_RS07965&lt;/b&gt;&lt;br&gt;glycosyltransferase&lt;br&gt;Location: 293564 - 292611&lt;br&gt;&lt;br&gt;&lt;b&gt;BlastP hit with CDDIDNMG_01082&lt;/b&gt;&lt;br&gt;Percentage identity: 69&lt;br&gt;Percentage coverage: 97&lt;br&gt;BLAST bit score: 431&lt;br&gt;E-value: 7.1e-151" locus_tag="D2N39_RS07965" class="clusterblast-orf" id="dummy-1_h1_4_28"  />
</g>
<g id="a1_0029"  >
<polygon points="570,90 578,90 583,85 578,80 570,80 570,90 " style="fill:#1531d8; stroke-width:1; stroke:black; " description="&lt;b&gt;D2N39_RS07960&lt;/b&gt;&lt;br&gt;P-loop NTPase&lt;br&gt;Location: 292283 - 291402&lt;br&gt;&lt;br&gt;&lt;b&gt;BlastP hit with CDDIDNMG_01083&lt;/b&gt;&lt;br&gt;Percentage identity: 53&lt;br&gt;Percentage coverage: 82&lt;br&gt;BLAST bit score: 256&lt;br&gt;E-value: 5.88e-83" locus_tag="D2N39_RS07960" class="clusterblast-orf" id="dummy-1_h1_4_29"  />
</g>
<g id="a1_0030"  >
<polygon points="584,90 598,90 603,85 598,80 584,80 584,90 " style="fill:#d81593; stroke-width:1; stroke:black; " description="&lt;b&gt;D2N39_RS07955&lt;/b&gt;&lt;br&gt;hypothetical protein&lt;br&gt;Location: 291395 - 290121&lt;br&gt;&lt;br&gt;&lt;b&gt;BlastP hit with CDDIDNMG_01084&lt;/b&gt;&lt;br&gt;Percentage identity: 44&lt;br&gt;Percentage coverage: 90&lt;br&gt;BLAST bit score: 291&lt;br&gt;E-value: 1.56e-92" locus_tag="D2N39_RS07955" class="clusterblast-orf" id="dummy-1_h1_4_30"  />
</g>
<g id="a1_0031"  >
<polygon points="604,85 609,80 615,80 615,90 609,90 604,85 " style="fill:#cad815; stroke-width:1; stroke:black; " description="&lt;b&gt;D2N39_RS07950&lt;/b&gt;&lt;br&gt;sugar transferase&lt;br&gt;Location: 290051 - 289350&lt;br&gt;&lt;br&gt;&lt;b&gt;BlastP hit with CDDIDNMG_01085&lt;/b&gt;&lt;br&gt;Percentage identity: 66&lt;br&gt;Percentage coverage: 91&lt;br&gt;BLAST bit score: 289&lt;br&gt;E-value: 1.66e-97" locus_tag="D2N39_RS07950" class="clusterblast-orf" id="dummy-1_h1_4_31"  />
</g>
<g id="a1_0032"  >
<polygon points="621,85 625,80 625,90 621,85 " style="fill:white; stroke-width:1; stroke:black; " description="&lt;b&gt;D2N39_RS07945&lt;/b&gt;&lt;br&gt;hypothetical protein&lt;br&gt;Location: 288928 - 288683" locus_tag="D2N39_RS07945" class="clusterblast-orf" id="dummy-1_h1_4_32"  />
</g>
<g id="a1_0033"  >
<polygon points="627,85 632,80 647,80 647,90 632,90 627,85 " style="fill:#15d8ae; stroke-width:1; stroke:black; " description="&lt;b&gt;D2N39_RS07940&lt;/b&gt;&lt;br&gt;oligosaccharide flippase family protein&lt;br&gt;Location: 288575 - 287238&lt;br&gt;&lt;br&gt;&lt;b&gt;BlastP hit with CDDIDNMG_01091&lt;/b&gt;&lt;br&gt;Percentage identity: 64&lt;br&gt;Percentage coverage: 97&lt;br&gt;BLAST bit score: 555&lt;br&gt;E-value: 5.89e-196" locus_tag="D2N39_RS07940" class="clusterblast-orf" id="dummy-1_h1_4_33"  />
</g>
<g id="a1_0034"  >
<polygon points="649,90 662,90 667,85 662,80 649,80 649,90 " style="fill:#4d15d8; stroke-width:1; stroke:black; " description="&lt;b&gt;D2N39_RS07935&lt;/b&gt;&lt;br&gt;glycosyltransferase&lt;br&gt;Location: 287122 - 285923&lt;br&gt;&lt;br&gt;&lt;b&gt;BlastP hit with CDDIDNMG_01092&lt;/b&gt;&lt;br&gt;Percentage identity: 57&lt;br&gt;Percentage coverage: 94&lt;br&gt;BLAST bit score: 432&lt;br&gt;E-value: 1.11e-148" locus_tag="D2N39_RS07935" class="clusterblast-orf" id="dummy-1_h1_4_34"  />
</g>
<g id="a1_0035"  >
<polygon points="667,90 674,90 679,85 674,80 667,80 667,90 " style="fill:#d8153f; stroke-width:1; stroke:black; " description="&lt;b&gt;D2N39_RS07930&lt;/b&gt;&lt;br&gt;hypothetical protein&lt;br&gt;Location: 285930 - 285142&lt;br&gt;&lt;br&gt;&lt;b&gt;BlastP hit with CDDIDNMG_01093&lt;/b&gt;&lt;br&gt;Percentage identity: 63&lt;br&gt;Percentage coverage: 97&lt;br&gt;BLAST bit score: 322&lt;br&gt;E-value: 1.25e-109" locus_tag="D2N39_RS07930" class="clusterblast-orf" id="dummy-1_h1_4_35"  />
</g>
<g id="a1_0036"  >
<polygon points="680,85 685,80 691,80 691,90 685,90 680,85 " style="fill:white; stroke-width:1; stroke:black; " description="&lt;b&gt;D2N39_RS07925&lt;/b&gt;&lt;br&gt;peroxiredoxin&lt;br&gt;Location: 285050 - 284394" locus_tag="D2N39_RS07925" class="clusterblast-orf" id="dummy-1_h1_4_36"  />
</g>
<g id="a1_0037"  >
<polygon points="694,85 699,80 707,80 707,90 699,90 694,85 " style="fill:white; stroke-width:1; stroke:black; " description="&lt;b&gt;D2N39_RS07920&lt;/b&gt;&lt;br&gt;glycosyltransferase family 92 protein&lt;br&gt;Location: 284198 - 283299" locus_tag="D2N39_RS07920" class="clusterblast-orf" id="dummy-1_h1_4_37"  />
</g>
<g id="a1_0038"  >
<polygon points="710,90 727,90 732,85 727,80 710,80 710,90 " style="fill:white; stroke-width:1; stroke:black; " description="&lt;b&gt;D2N39_RS07915&lt;/b&gt;&lt;br&gt;aldehyde dehydrogenase family protein&lt;br&gt;Location: 283112 - 281667" locus_tag="D2N39_RS07915" class="clusterblast-orf" id="dummy-1_h1_4_38"  />
</g>
<g id="a1_0039"  >
<polygon points="733,90 738,90 743,85 738,80 733,80 733,90 " style="fill:white; stroke-width:1; stroke:black; " description="&lt;b&gt;D2N39_RS07910&lt;/b&gt;&lt;br&gt;5'-methylthioadenosine/S-adenosylhomocysteine nucleosidase&lt;br&gt;Location: 281609 - 280932" locus_tag="D2N39_RS07910" class="clusterblast-orf" id="dummy-1_h1_4_39"  />
</g>
<g id="a1_0040"  >
<polygon points="745,90 770,90 775,85 770,80 745,80 745,90 " style="fill:white; stroke-width:1; stroke:black; " description="&lt;b&gt;D2N39_RS07905&lt;/b&gt;&lt;br&gt;FAD-dependent oxidoreductase&lt;br&gt;Location: 280842 - 278866" locus_tag="D2N39_RS07905" class="clusterblast-orf" id="dummy-1_h1_4_40"  />
</g>
</svg>
