<svg xmlns="http://www.w3.org/2000/svg" xmlns:xlink="http://www.w3.org/1999/xlink" version="1.1" x="0" y="0" height="230" width="800" viewBox="0 0 800 230" preserveAspectRatio="none"  >
<g label="Query sequence" class="clusterblast-cluster"  >
<text x="5" y="20" class="clusterblast-acc"  >
Query sequence</text>
<line x1="10" y1="35" x2="778.0" y2="35" style="stroke-width:1; stroke:grey; "  />
<polygon points="185,40 191,40 196,35 191,30 185,30 185,40 " style="fill:#d81515; stroke-width:1; stroke:black; " description="&lt;b&gt;CDDIDNMG_03165&lt;/b&gt;&lt;br&gt;IS3 family transposase ISSst1&lt;br&gt;Location: 8498 - 8765" locus_tag="CDDIDNMG_03165" class="clusterblast-orf" id="dummy-1_q0_0_all"  />
<polygon points="196,40 210,40 215,35 210,30 196,30 196,40 " style="fill:#15d815; stroke-width:1; stroke:black; " description="&lt;b&gt;CDDIDNMG_03166&lt;/b&gt;&lt;br&gt;hypothetical protein&lt;br&gt;Location: 8776 - 9217" locus_tag="CDDIDNMG_03166" class="clusterblast-orf" id="dummy-1_q1_0_all"  />
<polygon points="219,40 224,40 229,35 224,30 219,30 219,40 " style="fill:white; stroke-width:1; stroke:black; " description="&lt;b&gt;CDDIDNMG_03167&lt;/b&gt;&lt;br&gt;hypothetical protein&lt;br&gt;Location: 9302 - 9539" locus_tag="CDDIDNMG_03167" class="clusterblast-orf" id="dummy-1_q2_0_all"  />
<polygon points="243,35 248,30 349,30 349,40 248,40 243,35 " style="fill:#1515d8; stroke-width:1; stroke:black; " description="&lt;b&gt;CDDIDNMG_03168&lt;/b&gt;&lt;br&gt;hypothetical protein&lt;br&gt;Location: 9874 - 12394" locus_tag="CDDIDNMG_03168" class="clusterblast-orf" id="dummy-1_q3_0_all"  />
<polygon points="350,40 398,40 403,35 398,30 350,30 350,40 " style="fill:#d815d8; stroke-width:1; stroke:black; " description="&lt;b&gt;CDDIDNMG_03169&lt;/b&gt;&lt;br&gt;hypothetical protein&lt;br&gt;Location: 12416 - 13676" locus_tag="CDDIDNMG_03169" class="clusterblast-orf" id="dummy-1_q4_0_all"  />
<polygon points="410,40 480,40 485,35 480,30 410,30 410,40 " style="fill:#d8d815; stroke-width:1; stroke:black; " description="&lt;b&gt;CDDIDNMG_03170&lt;/b&gt;&lt;br&gt;hypothetical protein&lt;br&gt;Location: 13847 - 15614" locus_tag="CDDIDNMG_03170" class="clusterblast-orf" id="dummy-1_q5_0_all"  />
<polygon points="486,40 501,40 506,35 501,30 486,30 486,40 " style="fill:white; stroke-width:1; stroke:black; " description="&lt;b&gt;CDDIDNMG_03171&lt;/b&gt;&lt;br&gt;hypothetical protein&lt;br&gt;Location: 15644 - 16106" locus_tag="CDDIDNMG_03171" class="clusterblast-orf" id="dummy-1_q6_0_all"  />
<polygon points="537,40 590,40 595,35 590,30 537,30 537,40 " style="fill:#15d8d8; stroke-width:1; stroke:black; " description="&lt;b&gt;CDDIDNMG_03172&lt;/b&gt;&lt;br&gt;6-hydroxy-D-nicotine oxidase&lt;br&gt;Location: 16852 - 18223" locus_tag="CDDIDNMG_03172" class="clusterblast-orf" id="dummy-1_q7_0_all"  />
</g>
<g label="NZ_CP022774" description="NZ_CP022774 (1578506-1600750): Ralstonia solanacearum strain T12 chromosome, ... (10% of genes show similarity), LAP" class="clusterblast-cluster"  >
<text x="5" y="70" class="clusterblast-acc"  >
<a xlink:href="https://antismash-db.secondarymetabolites.org/area.html?record=NZ_CP022774&amp;start=1578506&amp;end=1600750" target="_blank">NZ_CP022774 (1578506-1600750)</a>: Ralstonia solanacearum strain T12 chromosome, ... (10% of genes show similarity), LAP</text>
<line x1="10" y1="85" x2="778.0" y2="85" style="stroke-width:1; stroke:grey; "  />
</g>
<g id="a1_000"  >
<polygon points="0,90 10,90 15,85 10,80 0,80 0,90 " style="fill:white; stroke-width:1; stroke:black; " description="&lt;b&gt;CJO85_RS07485&lt;/b&gt;&lt;br&gt;hypothetical protein&lt;br&gt;Location: 1580499 - 1580870" locus_tag="CJO85_RS07485" class="clusterblast-orf" id="dummy-1_h1_8_0"  />
</g>
<g id="a1_001"  >
<polygon points="26,90 34,90 39,85 34,80 26,80 26,90 " style="fill:#d81515; stroke-width:1; stroke:black; " description="&lt;b&gt;CJO85_RS24705&lt;/b&gt;&lt;br&gt;transposase&lt;br&gt;Location: 1581123 - 1581442&lt;br&gt;&lt;br&gt;&lt;b&gt;BlastP hit with CDDIDNMG_03165&lt;/b&gt;&lt;br&gt;Percentage identity: 61&lt;br&gt;Percentage coverage: 100&lt;br&gt;BLAST bit score: 114&lt;br&gt;E-value: 3.69e-33" locus_tag="CJO85_RS24705" class="clusterblast-orf" id="dummy-1_h1_8_1"  />
</g>
<g id="a1_002"  >
<polygon points="43,90 60,90 65,85 60,80 43,80 43,90 " style="fill:#15d815; stroke-width:1; stroke:black; " description="&lt;b&gt;CJO85_RS24710&lt;/b&gt;&lt;br&gt;IS3 family transposase&lt;br&gt;Location: 1581520 - 1582050&lt;br&gt;&lt;br&gt;&lt;b&gt;BlastP hit with CDDIDNMG_03166&lt;/b&gt;&lt;br&gt;Percentage identity: 52&lt;br&gt;Percentage coverage: 47&lt;br&gt;BLAST bit score: 67&lt;br&gt;E-value: 1.79e-12" locus_tag="CJO85_RS24710" class="clusterblast-orf" id="dummy-1_h1_8_2"  />
</g>
<g id="a1_003"  >
<polygon points="64,90 201,90 206,85 201,80 64,80 64,90 " style="fill:white; stroke-width:1; stroke:black; " description="&lt;b&gt;CJO85_RS07495&lt;/b&gt;&lt;br&gt;LysM peptidoglycan-binding domain-containing protein&lt;br&gt;Location: 1582038 - 1585391" locus_tag="CJO85_RS07495" class="clusterblast-orf" id="dummy-1_h1_8_3"  />
</g>
<g id="a1_004"  >
<polygon points="240,90 248,90 253,85 248,80 240,80 240,90 " style="fill:white; stroke-width:1; stroke:black; " description="&lt;b&gt;CJO85_RS07505&lt;/b&gt;&lt;br&gt;hypothetical protein&lt;br&gt;Location: 1586196 - 1586495" locus_tag="CJO85_RS07505" class="clusterblast-orf" id="dummy-1_h1_8_4"  />
</g>
<g id="a1_005"  >
<polygon points="254,85 259,80 295,80 295,90 259,90 254,85 " style="fill:white; stroke-width:1; stroke:black; " description="&lt;b&gt;CJO85_RS07510&lt;/b&gt;&lt;br&gt;hypothetical protein&lt;br&gt;Location: 1586528 - 1587493" locus_tag="CJO85_RS07510" class="clusterblast-orf" id="dummy-1_h1_8_5"  />
</g>
<g id="a1_006"  >
<polygon points="301,90 321,90 326,85 321,80 301,80 301,90 " style="fill:white; stroke-width:1; stroke:black; " description="&lt;b&gt;CJO85_RS07515&lt;/b&gt;&lt;br&gt;2OG-Fe(II) oxygenase&lt;br&gt;Location: 1587635 - 1588228" locus_tag="CJO85_RS07515" class="clusterblast-orf" id="dummy-1_h1_8_6"  />
</g>
<g id="a1_007"  >
<polygon points="329,85 334,80 337,80 337,90 334,90 329,85 " style="fill:white; stroke-width:1; stroke:black; " description="&lt;b&gt;CJO85_RS07520&lt;/b&gt;&lt;br&gt;hypothetical protein&lt;br&gt;Location: 1588302 - 1588493" locus_tag="CJO85_RS07520" class="clusterblast-orf" id="dummy-1_h1_8_7"  />
</g>
<g id="a1_008"  >
<polygon points="337,85 342,80 432,80 432,90 342,90 337,85 " style="fill:white; stroke-width:1; stroke:black; " description="&lt;b&gt;CJO85_RS07525&lt;/b&gt;&lt;br&gt;hypothetical protein&lt;br&gt;Location: 1588507 - 1590750" locus_tag="CJO85_RS07525" class="clusterblast-orf" id="dummy-1_h1_8_8"  />
</g>
<g id="a1_009"  >
<polygon points="451,85 456,80 460,80 460,90 456,90 451,85 " style="fill:white; stroke-width:1; stroke:black; " description="&lt;b&gt;CJO85_RS07535&lt;/b&gt;&lt;br&gt;hypothetical protein&lt;br&gt;Location: 1591210 - 1591416" locus_tag="CJO85_RS07535" class="clusterblast-orf" id="dummy-1_h1_8_9"  />
</g>
<g id="a1_0010"  >
<polygon points="475,90 479,90 484,85 479,80 475,80 475,90 " style="fill:white; stroke-width:1; stroke:black; " description="&lt;b&gt;CJO85_RS07540&lt;/b&gt;&lt;br&gt;hypothetical protein&lt;br&gt;Location: 1591769 - 1591978" locus_tag="CJO85_RS07540" class="clusterblast-orf" id="dummy-1_h1_8_10"  />
</g>
<g id="a1_0011"  >
<polygon points="484,85 489,80 544,80 544,90 489,90 484,85 " style="fill:white; stroke-width:1; stroke:black; " description="&lt;b&gt;CJO85_RS07545&lt;/b&gt;&lt;br&gt;FAD-binding oxidoreductase&lt;br&gt;Location: 1591987 - 1593399" locus_tag="CJO85_RS07545" class="clusterblast-orf" id="dummy-1_h1_8_11"  />
</g>
<g id="a1_0012"  >
<polygon points="544,85 549,80 561,80 561,90 549,90 544,85 " style="fill:white; stroke-width:1; stroke:black; " description="&lt;b&gt;CJO85_RS07550&lt;/b&gt;&lt;br&gt;DUF2069 domain-containing protein&lt;br&gt;Location: 1593412 - 1593804" locus_tag="CJO85_RS07550" class="clusterblast-orf" id="dummy-1_h1_8_12"  />
</g>
<g id="a1_0013"  >
<polygon points="561,85 566,80 586,80 586,90 566,90 561,85 " style="fill:white; stroke-width:1; stroke:black; " description="&lt;b&gt;CJO85_RS07555&lt;/b&gt;&lt;br&gt;NAD(P)H:quinone oxidoreductase&lt;br&gt;Location: 1593801 - 1594394" locus_tag="CJO85_RS07555" class="clusterblast-orf" id="dummy-1_h1_8_13"  />
</g>
<g id="a1_0014"  >
<polygon points="589,90 640,90 645,85 640,80 589,80 589,90 " style="fill:white; stroke-width:1; stroke:black; " description="&lt;b&gt;CJO85_RS07560&lt;/b&gt;&lt;br&gt;YihY family inner membrane protein&lt;br&gt;Location: 1594471 - 1595793" locus_tag="CJO85_RS07560" class="clusterblast-orf" id="dummy-1_h1_8_14"  />
</g>
<g id="a1_0015"  >
<polygon points="645,85 650,80 659,80 659,90 650,90 645,85 " style="fill:white; stroke-width:1; stroke:black; " description="&lt;b&gt;CJO85_RS07565&lt;/b&gt;&lt;br&gt;DUF962 domain-containing protein&lt;br&gt;Location: 1595801 - 1596118" locus_tag="CJO85_RS07565" class="clusterblast-orf" id="dummy-1_h1_8_15"  />
</g>
<g id="a1_0016"  >
<polygon points="660,85 665,80 694,80 694,90 665,90 660,85 " style="fill:white; stroke-width:1; stroke:black; " description="&lt;b&gt;CJO85_RS07570&lt;/b&gt;&lt;br&gt;alpha/beta hydrolase&lt;br&gt;Location: 1596144 - 1596968" locus_tag="CJO85_RS07570" class="clusterblast-orf" id="dummy-1_h1_8_16"  />
</g>
<g id="a1_0017"  >
<polygon points="694,85 699,80 751,80 751,90 699,90 694,85 " style="fill:white; stroke-width:1; stroke:black; " description="&lt;b&gt;CJO85_RS07575&lt;/b&gt;&lt;br&gt;O-acetylhomoserine aminocarboxypropyltransferase&lt;br&gt;Location: 1596968 - 1598302" locus_tag="CJO85_RS07575" class="clusterblast-orf" id="dummy-1_h1_8_17"  />
</g>
<g id="a1_0018"  >
<polygon points="760,90 775,90 780,85 775,80 760,80 760,90 " style="fill:white; stroke-width:1; stroke:black; " description="&lt;b&gt;CJO85_RS07580&lt;/b&gt;&lt;br&gt;CBS domain-containing protein&lt;br&gt;Location: 1598529 - 1598984" locus_tag="CJO85_RS07580" class="clusterblast-orf" id="dummy-1_h1_8_18"  />
</g>
</svg>
