<svg xmlns="http://www.w3.org/2000/svg" xmlns:xlink="http://www.w3.org/1999/xlink" version="1.1" x="0" y="0" height="230" width="800" viewBox="0 0 800 230" preserveAspectRatio="none"  >
<g label="Query sequence" class="clusterblast-cluster"  >
<text x="5" y="20" class="clusterblast-acc"  >
Query sequence</text>
<line x1="10" y1="35" x2="778.0" y2="35" style="stroke-width:1; stroke:grey; "  />
<polygon points="27,35 32,30 39,30 39,40 32,40 27,35 " style="fill:white; stroke-width:1; stroke:black; " description="&lt;b&gt;CDDIDNMG_02132&lt;/b&gt;&lt;br&gt;hypothetical protein&lt;br&gt;Location: 388 - 667" locus_tag="CDDIDNMG_02132" class="clusterblast-orf" id="dummy-1_q0_0_all"  />
<polygon points="92,35 97,30 107,30 107,40 97,40 92,35 " style="fill:white; stroke-width:1; stroke:black; " description="&lt;b&gt;CDDIDNMG_02133&lt;/b&gt;&lt;br&gt;hypothetical protein&lt;br&gt;Location: 1879 - 2206" locus_tag="CDDIDNMG_02133" class="clusterblast-orf" id="dummy-1_q1_0_all"  />
<polygon points="108,35 113,30 173,30 173,40 113,40 108,35 " style="fill:white; stroke-width:1; stroke:black; " description="&lt;b&gt;CDDIDNMG_02134&lt;/b&gt;&lt;br&gt;Tyrosine recombinase XerC&lt;br&gt;Location: 2231 - 3725" locus_tag="CDDIDNMG_02134" class="clusterblast-orf" id="dummy-1_q2_0_all"  />
<polygon points="176,35 181,30 185,30 185,40 181,40 176,35 " style="fill:white; stroke-width:1; stroke:black; " description="&lt;b&gt;CDDIDNMG_02135&lt;/b&gt;&lt;br&gt;hypothetical protein&lt;br&gt;Location: 3783 - 3993" locus_tag="CDDIDNMG_02135" class="clusterblast-orf" id="dummy-1_q3_0_all"  />
<polygon points="195,40 208,40 213,35 208,30 195,30 195,40 " style="fill:#d81515; stroke-width:1; stroke:black; " description="&lt;b&gt;CDDIDNMG_02136&lt;/b&gt;&lt;br&gt;Alkaline phosphatase synthesis transcriptional regulatory protein PhoP&lt;br&gt;Location: 4231 - 4633" locus_tag="CDDIDNMG_02136" class="clusterblast-orf" id="dummy-1_q4_0_all"  />
<polygon points="215,35 220,30 278,30 278,40 220,40 215,35 " style="fill:#77d815; stroke-width:1; stroke:black; " description="&lt;b&gt;CDDIDNMG_02137&lt;/b&gt;&lt;br&gt;Sensor histidine kinase RcsC&lt;br&gt;Location: 4688 - 6116" locus_tag="CDDIDNMG_02137" class="clusterblast-orf" id="dummy-1_q5_0_all"  />
<polygon points="287,40 313,40 318,35 313,30 287,30 287,40 " style="fill:#15d8d8; stroke-width:1; stroke:black; " description="&lt;b&gt;CDDIDNMG_02138&lt;/b&gt;&lt;br&gt;hypothetical protein&lt;br&gt;Location: 6310 - 7033" locus_tag="CDDIDNMG_02138" class="clusterblast-orf" id="dummy-1_q6_0_all"  />
<polygon points="344,35 349,30 351,30 351,40 349,40 344,35 " style="fill:#7715d8; stroke-width:1; stroke:black; " description="&lt;b&gt;CDDIDNMG_02139&lt;/b&gt;&lt;br&gt;hypothetical protein&lt;br&gt;Location: 7619 - 7784" locus_tag="CDDIDNMG_02139" class="clusterblast-orf" id="dummy-1_q7_0_all"  />
<polygon points="351,35 356,30 382,30 382,40 356,40 351,35 " style="fill:#d87715; stroke-width:1; stroke:black; " description="&lt;b&gt;CDDIDNMG_02140&lt;/b&gt;&lt;br&gt;hypothetical protein&lt;br&gt;Location: 7787 - 8489" locus_tag="CDDIDNMG_02140" class="clusterblast-orf" id="dummy-1_q8_0_all"  />
<polygon points="387,40 393,40 398,35 393,30 387,30 387,40 " style="fill:white; stroke-width:1; stroke:black; " description="&lt;b&gt;CDDIDNMG_02141&lt;/b&gt;&lt;br&gt;hypothetical protein&lt;br&gt;Location: 8608 - 8866" locus_tag="CDDIDNMG_02141" class="clusterblast-orf" id="dummy-1_q9_0_all"  />
<polygon points="398,40 401,40 406,35 401,30 398,30 398,40 " style="fill:white; stroke-width:1; stroke:black; " description="&lt;b&gt;CDDIDNMG_02142&lt;/b&gt;&lt;br&gt;hypothetical protein&lt;br&gt;Location: 8862 - 9039" locus_tag="CDDIDNMG_02142" class="clusterblast-orf" id="dummy-1_q10_0_all"  />
<polygon points="407,40 416,40 421,35 416,30 407,30 407,40 " style="fill:white; stroke-width:1; stroke:black; " description="&lt;b&gt;CDDIDNMG_02143&lt;/b&gt;&lt;br&gt;hypothetical protein&lt;br&gt;Location: 9056 - 9389" locus_tag="CDDIDNMG_02143" class="clusterblast-orf" id="dummy-1_q11_0_all"  />
<polygon points="422,40 455,40 460,35 455,30 422,30 422,40 " style="fill:#15d815; stroke-width:1; stroke:black; " description="&lt;b&gt;CDDIDNMG_02144&lt;/b&gt;&lt;br&gt;hypothetical protein&lt;br&gt;Location: 9414 - 10278" locus_tag="CDDIDNMG_02144" class="clusterblast-orf" id="dummy-1_q12_0_all"  />
<polygon points="460,40 550,40 555,35 550,30 460,30 460,40 " style="fill:#1577d8; stroke-width:1; stroke:black; " description="&lt;b&gt;CDDIDNMG_02145&lt;/b&gt;&lt;br&gt;hypothetical protein&lt;br&gt;Location: 10274 - 12440" locus_tag="CDDIDNMG_02145" class="clusterblast-orf" id="dummy-1_q13_0_all"  />
<polygon points="558,40 587,40 592,35 587,30 558,30 558,40 " style="fill:#d815d8; stroke-width:1; stroke:black; " description="&lt;b&gt;CDDIDNMG_02146&lt;/b&gt;&lt;br&gt;hypothetical protein&lt;br&gt;Location: 12498 - 13284" locus_tag="CDDIDNMG_02146" class="clusterblast-orf" id="dummy-1_q14_0_all"  />
<polygon points="592,40 612,40 617,35 612,30 592,30 592,40 " style="fill:#d8d815; stroke-width:1; stroke:black; " description="&lt;b&gt;CDDIDNMG_02147&lt;/b&gt;&lt;br&gt;hypothetical protein&lt;br&gt;Location: 13280 - 13847" locus_tag="CDDIDNMG_02147" class="clusterblast-orf" id="dummy-1_q15_0_all"  />
<polygon points="616,40 628,40 633,35 628,30 616,30 616,40 " style="fill:#15d877; stroke-width:1; stroke:black; " description="&lt;b&gt;CDDIDNMG_02148&lt;/b&gt;&lt;br&gt;hypothetical protein&lt;br&gt;Location: 13843 - 14215" locus_tag="CDDIDNMG_02148" class="clusterblast-orf" id="dummy-1_q16_0_all"  />
<polygon points="633,40 637,40 642,35 637,30 633,30 633,40 " style="fill:white; stroke-width:1; stroke:black; " description="&lt;b&gt;CDDIDNMG_02149&lt;/b&gt;&lt;br&gt;hypothetical protein&lt;br&gt;Location: 14211 - 14430" locus_tag="CDDIDNMG_02149" class="clusterblast-orf" id="dummy-1_q17_0_all"  />
<polygon points="642,40 666,40 671,35 666,30 642,30 642,40 " style="fill:#1515d8; stroke-width:1; stroke:black; " description="&lt;b&gt;CDDIDNMG_02150&lt;/b&gt;&lt;br&gt;hypothetical protein&lt;br&gt;Location: 14431 - 15082" locus_tag="CDDIDNMG_02150" class="clusterblast-orf" id="dummy-1_q18_0_all"  />
<polygon points="672,40 686,40 691,35 686,30 672,30 672,40 " style="fill:#d81577; stroke-width:1; stroke:black; " description="&lt;b&gt;CDDIDNMG_02151&lt;/b&gt;&lt;br&gt;hypothetical protein&lt;br&gt;Location: 15110 - 15554" locus_tag="CDDIDNMG_02151" class="clusterblast-orf" id="dummy-1_q19_0_all"  />
<polygon points="691,40 703,40 708,35 703,30 691,30 691,40 " style="fill:white; stroke-width:1; stroke:black; " description="&lt;b&gt;CDDIDNMG_02152&lt;/b&gt;&lt;br&gt;hypothetical protein&lt;br&gt;Location: 15550 - 15922" locus_tag="CDDIDNMG_02152" class="clusterblast-orf" id="dummy-1_q20_0_all"  />
<polygon points="712,40 748,40 753,35 748,30 712,30 712,40 " style="fill:white; stroke-width:1; stroke:black; " description="&lt;b&gt;CDDIDNMG_02153&lt;/b&gt;&lt;br&gt;hypothetical protein&lt;br&gt;Location: 16023 - 16953" locus_tag="CDDIDNMG_02153" class="clusterblast-orf" id="dummy-1_q21_0_all"  />
</g>
<g label="NZ_SWKQ01000009" description="NZ_SWKQ01000009 (3753-21562): Maritimibacter sp. LZ-17 NODE 1, whole genome s... (17% of genes show similarity), hserlactone" class="clusterblast-cluster"  >
<text x="5" y="70" class="clusterblast-acc"  >
<a xlink:href="https://antismash-db.secondarymetabolites.org/area.html?record=NZ_SWKQ01000009&amp;start=3753&amp;end=21562" target="_blank">NZ_SWKQ01000009 (3753-21562)</a>: Maritimibacter sp. LZ-17 NODE 1, whole genome s... (17% of genes show similarity), hserlactone</text>
<line x1="10" y1="85" x2="778.0" y2="85" style="stroke-width:1; stroke:grey; "  />
</g>
<g id="a1_000"  >
<polygon points="0,85 5,80 30,80 30,90 5,90 0,85 " style="fill:white; stroke-width:1; stroke:black; " description="&lt;b&gt;FCT00_RS00800&lt;/b&gt;&lt;br&gt;hypothetical protein&lt;br&gt;Location: 3754 - 4452" locus_tag="FCT00_RS00800" class="clusterblast-orf" id="dummy-1_h1_8_0"  />
</g>
<g id="a1_001"  >
<polygon points="40,85 45,80 63,80 63,90 45,90 40,85 " style="fill:white; stroke-width:1; stroke:black; " description="&lt;b&gt;FCT00_RS00805&lt;/b&gt;&lt;br&gt;hypothetical protein&lt;br&gt;Location: 4690 - 5193" locus_tag="FCT00_RS00805" class="clusterblast-orf" id="dummy-1_h1_8_1"  />
</g>
<g id="a1_002"  >
<polygon points="68,85 73,80 111,80 111,90 73,90 68,85 " style="fill:white; stroke-width:1; stroke:black; " description="&lt;b&gt;FCT00_RS00810&lt;/b&gt;&lt;br&gt;hypothetical protein&lt;br&gt;Location: 5328 - 6305" locus_tag="FCT00_RS00810" class="clusterblast-orf" id="dummy-1_h1_8_2"  />
</g>
<g id="a1_003"  >
<polygon points="129,90 135,90 140,85 135,80 129,80 129,90 " style="fill:white; stroke-width:1; stroke:black; " description="&lt;b&gt;FCT00_RS00815&lt;/b&gt;&lt;br&gt;PAS domain-containing protein&lt;br&gt;Location: 6702 - 6962" locus_tag="FCT00_RS00815" class="clusterblast-orf" id="dummy-1_h1_8_3"  />
</g>
<g id="a1_004"  >
<polygon points="154,90 192,90 197,85 192,80 154,80 154,90 " style="fill:white; stroke-width:1; stroke:black; " description="&lt;b&gt;FCT00_RS00820&lt;/b&gt;&lt;br&gt;tyrosine-type recombinase/integrase&lt;br&gt;Location: 7292 - 8269" locus_tag="FCT00_RS00820" class="clusterblast-orf" id="dummy-1_h1_8_4"  />
</g>
<g id="a1_005"  >
<polygon points="198,85 203,80 213,80 213,90 203,90 198,85 " style="fill:white; stroke-width:1; stroke:black; " description="&lt;b&gt;FCT00_RS00825&lt;/b&gt;&lt;br&gt;helix-turn-helix domain-containing protein&lt;br&gt;Location: 8290 - 8637" locus_tag="FCT00_RS00825" class="clusterblast-orf" id="dummy-1_h1_8_5"  />
</g>
<g id="a1_006"  >
<polygon points="254,85 259,80 315,80 315,90 259,90 254,85 " style="fill:#77d815; stroke-width:1; stroke:black; " description="&lt;b&gt;FCT00_RS00830&lt;/b&gt;&lt;br&gt;HAMP domain-containing histidine kinase&lt;br&gt;Location: 9559 - 10947&lt;br&gt;&lt;br&gt;&lt;b&gt;BlastP hit with CDDIDNMG_02137&lt;/b&gt;&lt;br&gt;Percentage identity: 48&lt;br&gt;Percentage coverage: 91&lt;br&gt;BLAST bit score: 397&lt;br&gt;E-value: 6.78e-133" locus_tag="FCT00_RS00830" class="clusterblast-orf" id="dummy-1_h1_8_6"  />
</g>
<g id="a1_007"  >
<polygon points="327,90 354,90 359,85 354,80 327,80 327,90 " style="fill:#15d8d8; stroke-width:1; stroke:black; " description="&lt;b&gt;FCT00_RS00835&lt;/b&gt;&lt;br&gt;N-acyl-L-homoserine lactone synthetase&lt;br&gt;Location: 11242 - 11961&lt;br&gt;&lt;br&gt;&lt;b&gt;BlastP hit with CDDIDNMG_02138&lt;/b&gt;&lt;br&gt;Percentage identity: 60&lt;br&gt;Percentage coverage: 79&lt;br&gt;BLAST bit score: 234&lt;br&gt;E-value: 1.07e-75" locus_tag="FCT00_RS00835" class="clusterblast-orf" id="dummy-1_h1_8_7"  />
</g>
<g id="a1_008"  >
<polygon points="360,85 365,80 378,80 378,90 365,90 360,85 " style="fill:#d81515; stroke-width:1; stroke:black; " description="&lt;b&gt;FCT00_RS00840&lt;/b&gt;&lt;br&gt;response regulator&lt;br&gt;Location: 11989 - 12399&lt;br&gt;&lt;br&gt;&lt;b&gt;BlastP hit with CDDIDNMG_02136&lt;/b&gt;&lt;br&gt;Percentage identity: 56&lt;br&gt;Percentage coverage: 94&lt;br&gt;BLAST bit score: 139&lt;br&gt;E-value: 1.64e-41" locus_tag="FCT00_RS00840" class="clusterblast-orf" id="dummy-1_h1_8_8"  />
</g>
<g id="a1_009"  >
<polygon points="396,85 401,80 410,80 410,90 401,90 396,85 " style="fill:white; stroke-width:1; stroke:black; " description="&lt;b&gt;FCT00_RS00845&lt;/b&gt;&lt;br&gt;Hpt domain-containing protein&lt;br&gt;Location: 12809 - 13135" locus_tag="FCT00_RS00845" class="clusterblast-orf" id="dummy-1_h1_8_9"  />
</g>
<g id="a1_0010"  >
<polygon points="410,85 415,80 453,80 453,90 415,90 410,85 " style="fill:white; stroke-width:1; stroke:black; " description="&lt;b&gt;FCT00_RS00850&lt;/b&gt;&lt;br&gt;response regulator&lt;br&gt;Location: 13132 - 14115" locus_tag="FCT00_RS00850" class="clusterblast-orf" id="dummy-1_h1_8_10"  />
</g>
<g id="a1_0011"  >
<polygon points="468,90 512,90 517,85 512,80 468,80 468,90 " style="fill:white; stroke-width:1; stroke:black; " description="&lt;b&gt;FCT00_RS00855&lt;/b&gt;&lt;br&gt;cache and HAMP domain-containing protein&lt;br&gt;Location: 14446 - 15558" locus_tag="FCT00_RS00855" class="clusterblast-orf" id="dummy-1_h1_8_11"  />
</g>
<g id="a1_0012"  >
<polygon points="522,85 527,80 549,80 549,90 527,90 522,85 " style="fill:white; stroke-width:1; stroke:black; " description="&lt;b&gt;FCT00_RS00860&lt;/b&gt;&lt;br&gt;methyltransferase domain-containing protein&lt;br&gt;Location: 15689 - 16306" locus_tag="FCT00_RS00860" class="clusterblast-orf" id="dummy-1_h1_8_12"  />
</g>
<g id="a1_0013"  >
<polygon points="550,85 555,80 582,80 582,90 555,90 550,85 " style="fill:white; stroke-width:1; stroke:black; " description="&lt;b&gt;FCT00_RS00865&lt;/b&gt;&lt;br&gt;CDP-diacylglycerol--serine O-phosphatidyltransferase&lt;br&gt;Location: 16327 - 17064" locus_tag="FCT00_RS00865" class="clusterblast-orf" id="dummy-1_h1_8_13"  />
</g>
<g id="a1_0014"  >
<polygon points="583,85 588,80 612,80 612,90 588,90 583,85 " style="fill:white; stroke-width:1; stroke:black; " description="&lt;b&gt;FCT00_RS00870&lt;/b&gt;&lt;br&gt;phosphatidylserine decarboxylase&lt;br&gt;Location: 17075 - 17749" locus_tag="FCT00_RS00870" class="clusterblast-orf" id="dummy-1_h1_8_14"  />
</g>
<g id="a1_0015"  >
<polygon points="665,85 670,80 695,80 695,90 670,90 665,85 " style="fill:white; stroke-width:1; stroke:black; " description="&lt;b&gt;FCT00_RS00875&lt;/b&gt;&lt;br&gt;hypothetical protein&lt;br&gt;Location: 18937 - 19632" locus_tag="FCT00_RS00875" class="clusterblast-orf" id="dummy-1_h1_8_15"  />
</g>
<g id="a1_0016"  >
<polygon points="713,85 718,80 780,80 780,90 718,90 713,85 " style="fill:white; stroke-width:1; stroke:black; " description="&lt;b&gt;FCT00_RS00880&lt;/b&gt;&lt;br&gt;hypothetical protein&lt;br&gt;Location: 20048 - 21562" locus_tag="FCT00_RS00880" class="clusterblast-orf" id="dummy-1_h1_8_16"  />
</g>
</svg>
