<svg xmlns="http://www.w3.org/2000/svg" xmlns:xlink="http://www.w3.org/1999/xlink" version="1.1" x="0" y="0" height="230" width="800" viewBox="0 0 800 230" preserveAspectRatio="none"  >
<g label="Query sequence" class="clusterblast-cluster"  >
<text x="5" y="20" class="clusterblast-acc"  >
Query sequence</text>
<line x1="10" y1="35" x2="778.0" y2="35" style="stroke-width:1; stroke:grey; "  />
<polygon points="26,40 36,40 41,35 36,30 26,30 26,40 " style="fill:#d81515; stroke-width:1; stroke:black; " description="&lt;b&gt;CDDIDNMG_02050&lt;/b&gt;&lt;br&gt;30S ribosomal protein S8&lt;br&gt;Location: 631 - 1030" locus_tag="CDDIDNMG_02050" class="clusterblast-orf" id="dummy-1_q0_0_all"  />
<polygon points="41,40 55,40 60,35 55,30 41,30 41,40 " style="fill:#4dd815; stroke-width:1; stroke:black; " description="&lt;b&gt;CDDIDNMG_02051&lt;/b&gt;&lt;br&gt;50S ribosomal protein L6&lt;br&gt;Location: 1040 - 1574" locus_tag="CDDIDNMG_02051" class="clusterblast-orf" id="dummy-1_q1_0_all"  />
<polygon points="61,40 69,40 74,35 69,30 61,30 61,40 " style="fill:#15bcd8; stroke-width:1; stroke:black; " description="&lt;b&gt;CDDIDNMG_02052&lt;/b&gt;&lt;br&gt;50S ribosomal protein L18&lt;br&gt;Location: 1585 - 1945" locus_tag="CDDIDNMG_02052" class="clusterblast-orf" id="dummy-1_q2_0_all"  />
<polygon points="74,40 90,40 95,35 90,30 74,30 74,40 " style="fill:#8515d8; stroke-width:1; stroke:black; " description="&lt;b&gt;CDDIDNMG_02053&lt;/b&gt;&lt;br&gt;30S ribosomal protein S5&lt;br&gt;Location: 1956 - 2535" locus_tag="CDDIDNMG_02053" class="clusterblast-orf" id="dummy-1_q3_0_all"  />
<polygon points="96,40 98,40 103,35 98,30 96,30 96,40 " style="fill:#d84d15; stroke-width:1; stroke:black; " description="&lt;b&gt;CDDIDNMG_02054&lt;/b&gt;&lt;br&gt;50S ribosomal protein L30&lt;br&gt;Location: 2537 - 2738" locus_tag="CDDIDNMG_02054" class="clusterblast-orf" id="dummy-1_q4_0_all"  />
<polygon points="105,35 110,30 118,30 118,40 110,40 105,35 " style="fill:white; stroke-width:1; stroke:black; " description="&lt;b&gt;CDDIDNMG_02055&lt;/b&gt;&lt;br&gt;hypothetical protein&lt;br&gt;Location: 2795 - 3143" locus_tag="CDDIDNMG_02055" class="clusterblast-orf" id="dummy-1_q5_0_all"  />
<polygon points="119,35 124,30 138,30 138,40 124,40 119,35 " style="fill:white; stroke-width:1; stroke:black; " description="&lt;b&gt;CDDIDNMG_02056&lt;/b&gt;&lt;br&gt;hypothetical protein&lt;br&gt;Location: 3184 - 3688" locus_tag="CDDIDNMG_02056" class="clusterblast-orf" id="dummy-1_q6_0_all"  />
<polygon points="157,40 170,40 175,35 170,30 157,30 157,40 " style="fill:#15d815; stroke-width:1; stroke:black; " description="&lt;b&gt;CDDIDNMG_02057&lt;/b&gt;&lt;br&gt;50S ribosomal protein L15&lt;br&gt;Location: 4217 - 4712" locus_tag="CDDIDNMG_02057" class="clusterblast-orf" id="dummy-1_q7_0_all"  />
<polygon points="180,40 224,40 229,35 224,30 180,30 180,40 " style="fill:#1585d8; stroke-width:1; stroke:black; " description="&lt;b&gt;CDDIDNMG_02058&lt;/b&gt;&lt;br&gt;Protein translocase subunit SecY&lt;br&gt;Location: 4849 - 6190" locus_tag="CDDIDNMG_02058" class="clusterblast-orf" id="dummy-1_q8_0_all"  />
<polygon points="231,40 250,40 255,35 250,30 231,30 231,40 " style="fill:#bc15d8; stroke-width:1; stroke:black; " description="&lt;b&gt;CDDIDNMG_02059&lt;/b&gt;&lt;br&gt;Adenylate kinase&lt;br&gt;Location: 6253 - 6904" locus_tag="CDDIDNMG_02059" class="clusterblast-orf" id="dummy-1_q9_0_all"  />
<polygon points="262,40 270,40 275,35 270,30 262,30 262,40 " style="fill:#d88515; stroke-width:1; stroke:black; " description="&lt;b&gt;CDDIDNMG_02060&lt;/b&gt;&lt;br&gt;30S ribosomal protein S13&lt;br&gt;Location: 7101 - 7470" locus_tag="CDDIDNMG_02060" class="clusterblast-orf" id="dummy-1_q10_0_all"  />
<polygon points="276,40 285,40 290,35 285,30 276,30 276,40 " style="fill:#15d84d; stroke-width:1; stroke:black; " description="&lt;b&gt;CDDIDNMG_02061&lt;/b&gt;&lt;br&gt;30S ribosomal protein S11&lt;br&gt;Location: 7485 - 7881" locus_tag="CDDIDNMG_02061" class="clusterblast-orf" id="dummy-1_q11_0_all"  />
<polygon points="295,40 327,40 332,35 327,30 295,30 295,40 " style="fill:#154dd8; stroke-width:1; stroke:black; " description="&lt;b&gt;CDDIDNMG_02062&lt;/b&gt;&lt;br&gt;DNA-directed RNA polymerase subunit alpha&lt;br&gt;Location: 7995 - 9012" locus_tag="CDDIDNMG_02062" class="clusterblast-orf" id="dummy-1_q12_0_all"  />
<polygon points="337,40 347,40 352,35 347,30 337,30 337,40 " style="fill:#d815bc; stroke-width:1; stroke:black; " description="&lt;b&gt;CDDIDNMG_02063&lt;/b&gt;&lt;br&gt;50S ribosomal protein L17&lt;br&gt;Location: 9149 - 9569" locus_tag="CDDIDNMG_02063" class="clusterblast-orf" id="dummy-1_q13_0_all"  />
<polygon points="361,40 378,40 383,35 378,30 361,30 361,40 " style="fill:#d8bc15; stroke-width:1; stroke:black; " description="&lt;b&gt;CDDIDNMG_02064&lt;/b&gt;&lt;br&gt;hypothetical protein&lt;br&gt;Location: 9813 - 10425" locus_tag="CDDIDNMG_02064" class="clusterblast-orf" id="dummy-1_q14_0_all"  />
<polygon points="385,40 402,40 407,35 402,30 385,30 385,40 " style="fill:#15d885; stroke-width:1; stroke:black; " description="&lt;b&gt;CDDIDNMG_02065&lt;/b&gt;&lt;br&gt;hypothetical protein&lt;br&gt;Location: 10476 - 11067" locus_tag="CDDIDNMG_02065" class="clusterblast-orf" id="dummy-1_q15_0_all"  />
<polygon points="415,40 434,40 439,35 434,30 415,30 415,40 " style="fill:white; stroke-width:1; stroke:black; " description="&lt;b&gt;CDDIDNMG_02066&lt;/b&gt;&lt;br&gt;hypothetical protein&lt;br&gt;Location: 11307 - 11946" locus_tag="CDDIDNMG_02066" class="clusterblast-orf" id="dummy-1_q16_0_all"  />
<polygon points="446,40 489,40 494,35 489,30 446,30 446,40 " style="fill:#1515d8; stroke-width:1; stroke:black; " description="&lt;b&gt;CDDIDNMG_02067&lt;/b&gt;&lt;br&gt;Replication-associated recombination protein A&lt;br&gt;Location: 12139 - 13450" locus_tag="CDDIDNMG_02067" class="clusterblast-orf" id="dummy-1_q17_0_all"  />
<polygon points="499,40 507,40 512,35 507,30 499,30 499,40 " style="fill:#d81585; stroke-width:1; stroke:black; " description="&lt;b&gt;CDDIDNMG_02068&lt;/b&gt;&lt;br&gt;Putative fluoride ion transporter CrcB&lt;br&gt;Location: 13607 - 13958" locus_tag="CDDIDNMG_02068" class="clusterblast-orf" id="dummy-1_q18_0_all"  />
<polygon points="512,40 545,40 550,35 545,30 512,30 512,40 " style="fill:#bcd815; stroke-width:1; stroke:black; " description="&lt;b&gt;CDDIDNMG_02069&lt;/b&gt;&lt;br&gt;Ribosomal large subunit pseudouridine synthase C&lt;br&gt;Location: 13954 - 14995" locus_tag="CDDIDNMG_02069" class="clusterblast-orf" id="dummy-1_q19_0_all"  />
<polygon points="550,40 571,40 576,35 571,30 550,30 550,40 " style="fill:#15d8bc; stroke-width:1; stroke:black; " description="&lt;b&gt;CDDIDNMG_02070&lt;/b&gt;&lt;br&gt;hypothetical protein&lt;br&gt;Location: 14991 - 15699" locus_tag="CDDIDNMG_02070" class="clusterblast-orf" id="dummy-1_q20_0_all"  />
<polygon points="584,40 616,40 621,35 616,30 584,30 584,40 " style="fill:#4d15d8; stroke-width:1; stroke:black; " description="&lt;b&gt;CDDIDNMG_02071&lt;/b&gt;&lt;br&gt;Putative amino-acid ABC transporter-binding protein YhdW&lt;br&gt;Location: 15933 - 16950" locus_tag="CDDIDNMG_02071" class="clusterblast-orf" id="dummy-1_q21_0_all"  />
<polygon points="626,40 667,40 672,35 667,30 626,30 626,40 " style="fill:#d8154d; stroke-width:1; stroke:black; " description="&lt;b&gt;CDDIDNMG_02072&lt;/b&gt;&lt;br&gt;hypothetical protein&lt;br&gt;Location: 17080 - 18343" locus_tag="CDDIDNMG_02072" class="clusterblast-orf" id="dummy-1_q22_0_all"  />
<polygon points="672,40 720,40 725,35 720,30 672,30 672,40 " style="fill:#d8154d; stroke-width:1; stroke:black; " description="&lt;b&gt;CDDIDNMG_02073&lt;/b&gt;&lt;br&gt;hypothetical protein&lt;br&gt;Location: 18344 - 19787" locus_tag="CDDIDNMG_02073" class="clusterblast-orf" id="dummy-1_q23_0_all"  />
<polygon points="725,40 749,40 754,35 749,30 725,30 725,40 " style="fill:#85d815; stroke-width:1; stroke:black; " description="&lt;b&gt;CDDIDNMG_02074&lt;/b&gt;&lt;br&gt;Glutamine transport ATP-binding protein GlnQ&lt;br&gt;Location: 19803 - 20583" locus_tag="CDDIDNMG_02074" class="clusterblast-orf" id="dummy-1_q24_0_all"  />
</g>
<g label="NZ_SNYP01000002" description="NZ_SNYP01000002 (59722-81693): Rhodobacter veldkampii DSM 11550 Ga0310482 102... (80% of genes show similarity), hserlactone" class="clusterblast-cluster"  >
<text x="5" y="70" class="clusterblast-acc"  >
<a xlink:href="https://antismash-db.secondarymetabolites.org/area.html?record=NZ_SNYP01000002&amp;start=59722&amp;end=81693" target="_blank">NZ_SNYP01000002 (59722-81693)</a>: Rhodobacter veldkampii DSM 11550 Ga0310482 102... (80% of genes show similarity), hserlactone</text>
<line x1="10" y1="85" x2="778.0" y2="85" style="stroke-width:1; stroke:grey; "  />
</g>
<g id="a1_000"  >
<polygon points="0,90 8,90 13,85 8,80 0,80 0,90 " style="fill:white; stroke-width:1; stroke:black; " description="&lt;b&gt;EV658_RS01630&lt;/b&gt;&lt;br&gt;50S ribosomal protein L14&lt;br&gt;Location: 81565 - 81197" locus_tag="EV658_RS01630" class="clusterblast-orf" id="dummy-1_h1_6_0"  />
</g>
<g id="a1_001"  >
<polygon points="13,90 19,90 24,85 19,80 13,80 13,90 " style="fill:white; stroke-width:1; stroke:black; " description="&lt;b&gt;EV658_RS01625&lt;/b&gt;&lt;br&gt;50S ribosomal protein L24&lt;br&gt;Location: 81197 - 80892" locus_tag="EV658_RS01625" class="clusterblast-orf" id="dummy-1_h1_6_1"  />
</g>
<g id="a1_002"  >
<polygon points="24,90 39,90 44,85 39,80 24,80 24,90 " style="fill:white; stroke-width:1; stroke:black; " description="&lt;b&gt;EV658_RS01620&lt;/b&gt;&lt;br&gt;50S ribosomal protein L5&lt;br&gt;Location: 80892 - 80332" locus_tag="EV658_RS01620" class="clusterblast-orf" id="dummy-1_h1_6_2"  />
</g>
<g id="a1_003"  >
<polygon points="45,90 51,90 56,85 51,80 45,80 45,90 " style="fill:white; stroke-width:1; stroke:black; " description="&lt;b&gt;EV658_RS01615&lt;/b&gt;&lt;br&gt;30S ribosomal protein S14&lt;br&gt;Location: 80314 - 80009" locus_tag="EV658_RS01615" class="clusterblast-orf" id="dummy-1_h1_6_3"  />
</g>
<g id="a1_004"  >
<polygon points="57,90 66,90 71,85 66,80 57,80 57,90 " style="fill:#d81515; stroke-width:1; stroke:black; " description="&lt;b&gt;EV658_RS01610&lt;/b&gt;&lt;br&gt;30S ribosomal protein S8&lt;br&gt;Location: 79992 - 79600&lt;br&gt;&lt;br&gt;&lt;b&gt;BlastP hit with CDDIDNMG_02050&lt;/b&gt;&lt;br&gt;Percentage identity: 82&lt;br&gt;Percentage coverage: 98&lt;br&gt;BLAST bit score: 218&lt;br&gt;E-value: 1.14e-72" locus_tag="EV658_RS01610" class="clusterblast-orf" id="dummy-1_h1_6_4"  />
</g>
<g id="a1_005"  >
<polygon points="72,90 86,90 91,85 86,80 72,80 72,90 " style="fill:#4dd815; stroke-width:1; stroke:black; " description="&lt;b&gt;EV658_RS01605&lt;/b&gt;&lt;br&gt;50S ribosomal protein L6&lt;br&gt;Location: 79589 - 79056&lt;br&gt;&lt;br&gt;&lt;b&gt;BlastP hit with CDDIDNMG_02051&lt;/b&gt;&lt;br&gt;Percentage identity: 87&lt;br&gt;Percentage coverage: 100&lt;br&gt;BLAST bit score: 312&lt;br&gt;E-value: 1.55e-108" locus_tag="EV658_RS01605" class="clusterblast-orf" id="dummy-1_h1_6_5"  />
</g>
<g id="a1_006"  >
<polygon points="91,90 100,90 105,85 100,80 91,80 91,90 " style="fill:#15bcd8; stroke-width:1; stroke:black; " description="&lt;b&gt;EV658_RS01600&lt;/b&gt;&lt;br&gt;50S ribosomal protein L18&lt;br&gt;Location: 79044 - 78685&lt;br&gt;&lt;br&gt;&lt;b&gt;BlastP hit with CDDIDNMG_02052&lt;/b&gt;&lt;br&gt;Percentage identity: 83&lt;br&gt;Percentage coverage: 100&lt;br&gt;BLAST bit score: 195&lt;br&gt;E-value: 4.64e-64" locus_tag="EV658_RS01600" class="clusterblast-orf" id="dummy-1_h1_6_6"  />
</g>
<g id="a1_007"  >
<polygon points="105,90 121,90 126,85 121,80 105,80 105,90 " style="fill:#8515d8; stroke-width:1; stroke:black; " description="&lt;b&gt;EV658_RS01595&lt;/b&gt;&lt;br&gt;30S ribosomal protein S5&lt;br&gt;Location: 78674 - 78108&lt;br&gt;&lt;br&gt;&lt;b&gt;BlastP hit with CDDIDNMG_02053&lt;/b&gt;&lt;br&gt;Percentage identity: 92&lt;br&gt;Percentage coverage: 89&lt;br&gt;BLAST bit score: 303&lt;br&gt;E-value: 1.89e-104" locus_tag="EV658_RS01595" class="clusterblast-orf" id="dummy-1_h1_6_7"  />
</g>
<g id="a1_008"  >
<polygon points="126,90 128,90 133,85 128,80 126,80 126,90 " style="fill:#d84d15; stroke-width:1; stroke:black; " description="&lt;b&gt;EV658_RS01590&lt;/b&gt;&lt;br&gt;50S ribosomal protein L30&lt;br&gt;Location: 78096 - 77905&lt;br&gt;&lt;br&gt;&lt;b&gt;BlastP hit with CDDIDNMG_02054&lt;/b&gt;&lt;br&gt;Percentage identity: 82&lt;br&gt;Percentage coverage: 92&lt;br&gt;BLAST bit score: 92&lt;br&gt;E-value: 7.51e-25" locus_tag="EV658_RS01590" class="clusterblast-orf" id="dummy-1_h1_6_8"  />
</g>
<g id="a1_009"  >
<polygon points="137,90 149,90 154,85 149,80 137,80 137,90 " style="fill:#15d815; stroke-width:1; stroke:black; " description="&lt;b&gt;EV658_RS01585&lt;/b&gt;&lt;br&gt;50S ribosomal protein L15&lt;br&gt;Location: 77799 - 77329&lt;br&gt;&lt;br&gt;&lt;b&gt;BlastP hit with CDDIDNMG_02057&lt;/b&gt;&lt;br&gt;Percentage identity: 69&lt;br&gt;Percentage coverage: 92&lt;br&gt;BLAST bit score: 189&lt;br&gt;E-value: 2.47e-60" locus_tag="EV658_RS01585" class="clusterblast-orf" id="dummy-1_h1_6_9"  />
</g>
<g id="a1_0010"  >
<polygon points="158,90 202,90 207,85 202,80 158,80 158,90 " style="fill:#1585d8; stroke-width:1; stroke:black; " description="&lt;b&gt;EV658_RS01580&lt;/b&gt;&lt;br&gt;preprotein translocase subunit SecY&lt;br&gt;Location: 77227 - 75866&lt;br&gt;&lt;br&gt;&lt;b&gt;BlastP hit with CDDIDNMG_02058&lt;/b&gt;&lt;br&gt;Percentage identity: 80&lt;br&gt;Percentage coverage: 100&lt;br&gt;BLAST bit score: 707&lt;br&gt;E-value: 8.07e-256" locus_tag="EV658_RS01580" class="clusterblast-orf" id="dummy-1_h1_6_10"  />
</g>
<g id="a1_0011"  >
<polygon points="208,90 227,90 232,85 227,80 208,80 208,90 " style="fill:#bc15d8; stroke-width:1; stroke:black; " description="&lt;b&gt;EV658_RS01575&lt;/b&gt;&lt;br&gt;adenylate kinase&lt;br&gt;Location: 75851 - 75195&lt;br&gt;&lt;br&gt;&lt;b&gt;BlastP hit with CDDIDNMG_02059&lt;/b&gt;&lt;br&gt;Percentage identity: 70&lt;br&gt;Percentage coverage: 99&lt;br&gt;BLAST bit score: 303&lt;br&gt;E-value: 6.8e-104" locus_tag="EV658_RS01575" class="clusterblast-orf" id="dummy-1_h1_6_11"  />
</g>
<g id="a1_0012"  >
<polygon points="239,90 247,90 252,85 247,80 239,80 239,90 " style="fill:#d88515; stroke-width:1; stroke:black; " description="&lt;b&gt;EV658_RS01570&lt;/b&gt;&lt;br&gt;30S ribosomal protein S13&lt;br&gt;Location: 75011 - 74643&lt;br&gt;&lt;br&gt;&lt;b&gt;BlastP hit with CDDIDNMG_02060&lt;/b&gt;&lt;br&gt;Percentage identity: 86&lt;br&gt;Percentage coverage: 100&lt;br&gt;BLAST bit score: 207&lt;br&gt;E-value: 1.08e-68" locus_tag="EV658_RS01570" class="clusterblast-orf" id="dummy-1_h1_6_12"  />
</g>
<g id="a1_0013"  >
<polygon points="253,90 262,90 267,85 262,80 253,80 253,90 " style="fill:#15d84d; stroke-width:1; stroke:black; " description="&lt;b&gt;EV658_RS01565&lt;/b&gt;&lt;br&gt;30S ribosomal protein S11&lt;br&gt;Location: 74627 - 74238&lt;br&gt;&lt;br&gt;&lt;b&gt;BlastP hit with CDDIDNMG_02061&lt;/b&gt;&lt;br&gt;Percentage identity: 89&lt;br&gt;Percentage coverage: 100&lt;br&gt;BLAST bit score: 221&lt;br&gt;E-value: 4.49e-74" locus_tag="EV658_RS01565" class="clusterblast-orf" id="dummy-1_h1_6_13"  />
</g>
<g id="a1_0014"  >
<polygon points="271,90 303,90 308,85 303,80 271,80 271,90 " style="fill:#154dd8; stroke-width:1; stroke:black; " description="&lt;b&gt;EV658_RS01560&lt;/b&gt;&lt;br&gt;DNA-directed RNA polymerase subunit alpha&lt;br&gt;Location: 74120 - 73104&lt;br&gt;&lt;br&gt;&lt;b&gt;BlastP hit with CDDIDNMG_02062&lt;/b&gt;&lt;br&gt;Percentage identity: 91&lt;br&gt;Percentage coverage: 100&lt;br&gt;BLAST bit score: 613&lt;br&gt;E-value: 3.22e-222" locus_tag="EV658_RS01560" class="clusterblast-orf" id="dummy-1_h1_6_14"  />
</g>
<g id="a1_0015"  >
<polygon points="314,90 324,90 329,85 324,80 314,80 314,90 " style="fill:#d815bc; stroke-width:1; stroke:black; " description="&lt;b&gt;EV658_RS01555&lt;/b&gt;&lt;br&gt;50S ribosomal protein L17&lt;br&gt;Location: 72946 - 72530&lt;br&gt;&lt;br&gt;&lt;b&gt;BlastP hit with CDDIDNMG_02063&lt;/b&gt;&lt;br&gt;Percentage identity: 88&lt;br&gt;Percentage coverage: 98&lt;br&gt;BLAST bit score: 235&lt;br&gt;E-value: 2.72e-79" locus_tag="EV658_RS01555" class="clusterblast-orf" id="dummy-1_h1_6_15"  />
</g>
<g id="a1_0016"  >
<polygon points="335,90 352,90 357,85 352,80 335,80 335,90 " style="fill:#d8bc15; stroke-width:1; stroke:black; " description="&lt;b&gt;EV658_RS01550&lt;/b&gt;&lt;br&gt;LuxR family transcriptional regulator&lt;br&gt;Location: 72361 - 71750&lt;br&gt;&lt;br&gt;&lt;b&gt;BlastP hit with CDDIDNMG_02064&lt;/b&gt;&lt;br&gt;Percentage identity: 74&lt;br&gt;Percentage coverage: 100&lt;br&gt;BLAST bit score: 302&lt;br&gt;E-value: 9.88e-104" locus_tag="EV658_RS01550" class="clusterblast-orf" id="dummy-1_h1_6_16"  />
</g>
<g id="a1_0017"  >
<polygon points="360,90 376,90 381,85 376,80 360,80 360,90 " style="fill:#15d885; stroke-width:1; stroke:black; " description="&lt;b&gt;EV658_RS01545&lt;/b&gt;&lt;br&gt;N-acyl-L-homoserine lactone synthetase&lt;br&gt;Location: 71693 - 71103&lt;br&gt;&lt;br&gt;&lt;b&gt;BlastP hit with CDDIDNMG_02065&lt;/b&gt;&lt;br&gt;Percentage identity: 78&lt;br&gt;Percentage coverage: 100&lt;br&gt;BLAST bit score: 321&lt;br&gt;E-value: 1.42e-111" locus_tag="EV658_RS01545" class="clusterblast-orf" id="dummy-1_h1_6_17"  />
</g>
<g id="a1_0018"  >
<polygon points="386,90 403,90 408,85 403,80 386,80 386,90 " style="fill:#d8bc15; stroke-width:1; stroke:black; " description="&lt;b&gt;EV658_RS01540&lt;/b&gt;&lt;br&gt;LuxR family transcriptional regulator&lt;br&gt;Location: 70977 - 70366&lt;br&gt;&lt;br&gt;&lt;b&gt;BlastP hit with CDDIDNMG_02064&lt;/b&gt;&lt;br&gt;Percentage identity: 52&lt;br&gt;Percentage coverage: 100&lt;br&gt;BLAST bit score: 214&lt;br&gt;E-value: 6.57e-69" locus_tag="EV658_RS01540" class="clusterblast-orf" id="dummy-1_h1_6_18"  />
</g>
<g id="a1_0019"  >
<polygon points="410,90 426,90 431,85 426,80 410,80 410,90 " style="fill:#15d885; stroke-width:1; stroke:black; " description="&lt;b&gt;EV658_RS01535&lt;/b&gt;&lt;br&gt;N-acyl-L-homoserine lactone synthetase&lt;br&gt;Location: 70310 - 69723&lt;br&gt;&lt;br&gt;&lt;b&gt;BlastP hit with CDDIDNMG_02065&lt;/b&gt;&lt;br&gt;Percentage identity: 62&lt;br&gt;Percentage coverage: 100&lt;br&gt;BLAST bit score: 233&lt;br&gt;E-value: 1.4e-76" locus_tag="EV658_RS01535" class="clusterblast-orf" id="dummy-1_h1_6_19"  />
</g>
<g id="a1_0020"  >
<polygon points="433,90 476,90 481,85 476,80 433,80 433,90 " style="fill:#1515d8; stroke-width:1; stroke:black; " description="&lt;b&gt;EV658_RS01530&lt;/b&gt;&lt;br&gt;replication-associated recombination protein A&lt;br&gt;Location: 69670 - 68360&lt;br&gt;&lt;br&gt;&lt;b&gt;BlastP hit with CDDIDNMG_02067&lt;/b&gt;&lt;br&gt;Percentage identity: 81&lt;br&gt;Percentage coverage: 100&lt;br&gt;BLAST bit score: 695&lt;br&gt;E-value: 1.52e-251" locus_tag="EV658_RS01530" class="clusterblast-orf" id="dummy-1_h1_6_20"  />
</g>
<g id="a1_0021"  >
<polygon points="484,90 493,90 498,85 493,80 484,80 484,90 " style="fill:#d81585; stroke-width:1; stroke:black; " description="&lt;b&gt;EV658_RS01525&lt;/b&gt;&lt;br&gt;fluoride efflux transporter CrcB&lt;br&gt;Location: 68281 - 67904&lt;br&gt;&lt;br&gt;&lt;b&gt;BlastP hit with CDDIDNMG_02068&lt;/b&gt;&lt;br&gt;Percentage identity: 51&lt;br&gt;Percentage coverage: 108&lt;br&gt;BLAST bit score: 105&lt;br&gt;E-value: 2.01e-28" locus_tag="EV658_RS01525" class="clusterblast-orf" id="dummy-1_h1_6_21"  />
</g>
<g id="a1_0022"  >
<polygon points="498,90 531,90 536,85 531,80 498,80 498,90 " style="fill:#bcd815; stroke-width:1; stroke:black; " description="&lt;b&gt;EV658_RS01520&lt;/b&gt;&lt;br&gt;RluA family pseudouridine synthase&lt;br&gt;Location: 67907 - 66858&lt;br&gt;&lt;br&gt;&lt;b&gt;BlastP hit with CDDIDNMG_02069&lt;/b&gt;&lt;br&gt;Percentage identity: 72&lt;br&gt;Percentage coverage: 100&lt;br&gt;BLAST bit score: 507&lt;br&gt;E-value: 3.53e-180" locus_tag="EV658_RS01520" class="clusterblast-orf" id="dummy-1_h1_6_22"  />
</g>
<g id="a1_0023"  >
<polygon points="536,90 555,90 560,85 555,80 536,80 536,90 " style="fill:white; stroke-width:1; stroke:black; " description="&lt;b&gt;EV658_RS01515&lt;/b&gt;&lt;br&gt;HAD-IA family hydrolase&lt;br&gt;Location: 66858 - 66190" locus_tag="EV658_RS01515" class="clusterblast-orf" id="dummy-1_h1_6_23"  />
</g>
<g id="a1_0024"  >
<polygon points="560,90 581,90 586,85 581,80 560,80 560,90 " style="fill:#15d8bc; stroke-width:1; stroke:black; " description="&lt;b&gt;EV658_RS01510&lt;/b&gt;&lt;br&gt;ATPase&lt;br&gt;Location: 66193 - 65474&lt;br&gt;&lt;br&gt;&lt;b&gt;BlastP hit with CDDIDNMG_02070&lt;/b&gt;&lt;br&gt;Percentage identity: 51&lt;br&gt;Percentage coverage: 98&lt;br&gt;BLAST bit score: 228&lt;br&gt;E-value: 2.37e-73" locus_tag="EV658_RS01510" class="clusterblast-orf" id="dummy-1_h1_6_24"  />
</g>
<g id="a1_0025"  >
<polygon points="594,90 626,90 631,85 626,80 594,80 594,90 " style="fill:#4d15d8; stroke-width:1; stroke:black; " description="&lt;b&gt;EV658_RS01505&lt;/b&gt;&lt;br&gt;amino acid ABC transporter substrate-binding protein&lt;br&gt;Location: 65262 - 64246&lt;br&gt;&lt;br&gt;&lt;b&gt;BlastP hit with CDDIDNMG_02071&lt;/b&gt;&lt;br&gt;Percentage identity: 75&lt;br&gt;Percentage coverage: 100&lt;br&gt;BLAST bit score: 512&lt;br&gt;E-value: 2.59e-182" locus_tag="EV658_RS01505" class="clusterblast-orf" id="dummy-1_h1_6_25"  />
</g>
<g id="a1_0026"  >
<polygon points="636,90 677,90 682,85 677,80 636,80 636,90 " style="fill:#d8154d; stroke-width:1; stroke:black; " description="&lt;b&gt;EV658_RS01500&lt;/b&gt;&lt;br&gt;ABC transporter permease subunit&lt;br&gt;Location: 64105 - 62840&lt;br&gt;&lt;br&gt;&lt;b&gt;BlastP hit with CDDIDNMG_02072&lt;/b&gt;&lt;br&gt;Percentage identity: 61&lt;br&gt;Percentage coverage: 100&lt;br&gt;BLAST bit score: 490&lt;br&gt;E-value: 5.34e-171&lt;br&gt;&lt;br&gt;&lt;b&gt;BlastP hit with CDDIDNMG_02073&lt;/b&gt;&lt;br&gt;Percentage identity: 34&lt;br&gt;Percentage coverage: 27&lt;br&gt;BLAST bit score: 70&lt;br&gt;E-value: 9.6e-11" locus_tag="EV658_RS01500" class="clusterblast-orf" id="dummy-1_h1_6_26"  />
</g>
<g id="a1_0027"  >
<polygon points="682,90 725,90 730,85 725,80 682,80 682,90 " style="fill:#d8154d; stroke-width:1; stroke:black; " description="&lt;b&gt;EV658_RS01495&lt;/b&gt;&lt;br&gt;amino acid ABC transporter permease&lt;br&gt;Location: 62838 - 61531&lt;br&gt;&lt;br&gt;&lt;b&gt;BlastP hit with CDDIDNMG_02072&lt;/b&gt;&lt;br&gt;Percentage identity: 38&lt;br&gt;Percentage coverage: 28&lt;br&gt;BLAST bit score: 70&lt;br&gt;E-value: 5.58e-11&lt;br&gt;&lt;br&gt;&lt;b&gt;BlastP hit with CDDIDNMG_02073&lt;/b&gt;&lt;br&gt;Percentage identity: 56&lt;br&gt;Percentage coverage: 100&lt;br&gt;BLAST bit score: 497&lt;br&gt;E-value: 1.48e-172" locus_tag="EV658_RS01495" class="clusterblast-orf" id="dummy-1_h1_6_27"  />
</g>
<g id="a1_0028"  >
<polygon points="730,90 754,90 759,85 754,80 730,80 730,90 " style="fill:#85d815; stroke-width:1; stroke:black; " description="&lt;b&gt;EV658_RS01490&lt;/b&gt;&lt;br&gt;amino acid ABC transporter ATP-binding protein&lt;br&gt;Location: 61521 - 60730&lt;br&gt;&lt;br&gt;&lt;b&gt;BlastP hit with CDDIDNMG_02074&lt;/b&gt;&lt;br&gt;Percentage identity: 91&lt;br&gt;Percentage coverage: 99&lt;br&gt;BLAST bit score: 473&lt;br&gt;E-value: 1.25e-169" locus_tag="EV658_RS01490" class="clusterblast-orf" id="dummy-1_h1_6_28"  />
</g>
<g id="a1_0029"  >
<polygon points="766,90 775,90 780,85 775,80 766,80 766,90 " style="fill:white; stroke-width:1; stroke:black; " description="&lt;b&gt;EV658_RS01485&lt;/b&gt;&lt;br&gt;2Fe-2S iron-sulfur cluster binding domain-containing protein&lt;br&gt;Location: 60544 - 60176" locus_tag="EV658_RS01485" class="clusterblast-orf" id="dummy-1_h1_6_29"  />
</g>
</svg>
