<svg xmlns="http://www.w3.org/2000/svg" xmlns:xlink="http://www.w3.org/1999/xlink" version="1.1" x="0" y="0" height="230" width="800" viewBox="0 0 800 230" preserveAspectRatio="none"  >
<g label="Query sequence" class="clusterblast-cluster"  >
<text x="5" y="20" class="clusterblast-acc"  >
Query sequence</text>
<line x1="10" y1="35" x2="778.0" y2="35" style="stroke-width:1; stroke:grey; "  />
<polygon points="0,40 2,35 0,30 0,40 " style="fill:white; stroke-width:1; stroke:black; " description="&lt;b&gt;CDDIDNMG_01057&lt;/b&gt;&lt;br&gt;hypothetical protein&lt;br&gt;Location: 21389 - 21524" locus_tag="CDDIDNMG_01057" class="clusterblast-orf" id="dummy-1_q0_0_all"  />
<polygon points="3,40 17,40 22,35 17,30 3,30 3,40 " style="fill:white; stroke-width:1; stroke:black; " description="&lt;b&gt;CDDIDNMG_01058&lt;/b&gt;&lt;br&gt;Diaminopimelate decarboxylase&lt;br&gt;Location: 21609 - 22875" locus_tag="CDDIDNMG_01058" class="clusterblast-orf" id="dummy-1_q1_0_all"  />
<polygon points="23,40 55,40 60,35 55,30 23,30 23,40 " style="fill:white; stroke-width:1; stroke:black; " description="&lt;b&gt;CDDIDNMG_01059&lt;/b&gt;&lt;br&gt;hypothetical protein&lt;br&gt;Location: 22889 - 25337" locus_tag="CDDIDNMG_01059" class="clusterblast-orf" id="dummy-1_q2_0_all"  />
<polygon points="63,40 66,35 63,30 63,40 " style="fill:white; stroke-width:1; stroke:black; " description="&lt;b&gt;CDDIDNMG_01060&lt;/b&gt;&lt;br&gt;Cold shock protein CspA&lt;br&gt;Location: 25521 - 25728" locus_tag="CDDIDNMG_01060" class="clusterblast-orf" id="dummy-1_q3_0_all"  />
<polygon points="70,35 75,30 79,30 79,40 75,40 70,35 " style="fill:white; stroke-width:1; stroke:black; " description="&lt;b&gt;CDDIDNMG_01061&lt;/b&gt;&lt;br&gt;FMN-dependent NADH-azoreductase&lt;br&gt;Location: 25966 - 26557" locus_tag="CDDIDNMG_01061" class="clusterblast-orf" id="dummy-1_q4_0_all"  />
<polygon points="83,35 88,30 100,30 100,40 88,40 83,35 " style="fill:white; stroke-width:1; stroke:black; " description="&lt;b&gt;CDDIDNMG_01062&lt;/b&gt;&lt;br&gt;N-ethylmaleimide reductase&lt;br&gt;Location: 26843 - 27926" locus_tag="CDDIDNMG_01062" class="clusterblast-orf" id="dummy-1_q5_0_all"  />
<polygon points="103,35 108,30 131,30 131,40 108,40 103,35 " style="fill:#d81515; stroke-width:1; stroke:black; " description="&lt;b&gt;CDDIDNMG_01063&lt;/b&gt;&lt;br&gt;UvrABC system protein C&lt;br&gt;Location: 28152 - 30009" locus_tag="CDDIDNMG_01063" class="clusterblast-orf" id="dummy-1_q6_0_all"  />
<polygon points="136,35 141,30 148,30 148,40 141,40 136,35 " style="fill:#77d815; stroke-width:1; stroke:black; " description="&lt;b&gt;CDDIDNMG_01064&lt;/b&gt;&lt;br&gt;3-oxoacyl-[acyl-carrier-protein] reductase FabG&lt;br&gt;Location: 30319 - 31096" locus_tag="CDDIDNMG_01064" class="clusterblast-orf" id="dummy-1_q7_0_all"  />
<polygon points="148,35 152,30 152,40 148,35 " style="fill:white; stroke-width:1; stroke:black; " description="&lt;b&gt;CDDIDNMG_01065&lt;/b&gt;&lt;br&gt;hypothetical protein&lt;br&gt;Location: 31092 - 31338" locus_tag="CDDIDNMG_01065" class="clusterblast-orf" id="dummy-1_q8_0_all"  />
<polygon points="151,35 156,30 163,30 163,40 156,40 151,35 " style="fill:#15d8d8; stroke-width:1; stroke:black; " description="&lt;b&gt;CDDIDNMG_01066&lt;/b&gt;&lt;br&gt;hypothetical protein&lt;br&gt;Location: 31285 - 32074" locus_tag="CDDIDNMG_01066" class="clusterblast-orf" id="dummy-1_q9_0_all"  />
<polygon points="165,40 173,40 178,35 173,30 165,30 165,40 " style="fill:#7715d8; stroke-width:1; stroke:black; " description="&lt;b&gt;CDDIDNMG_01067&lt;/b&gt;&lt;br&gt;HTH-type transcriptional regulator CynR&lt;br&gt;Location: 32204 - 33095" locus_tag="CDDIDNMG_01067" class="clusterblast-orf" id="dummy-1_q10_0_all"  />
<polygon points="180,40 182,40 187,35 182,30 180,30 180,40 " style="fill:#d83f15; stroke-width:1; stroke:black; " description="&lt;b&gt;CDDIDNMG_01068&lt;/b&gt;&lt;br&gt;NADP-reducing hydrogenase subunit HndA&lt;br&gt;Location: 33190 - 33658" locus_tag="CDDIDNMG_01068" class="clusterblast-orf" id="dummy-1_q11_0_all"  />
<polygon points="187,40 205,40 210,35 205,30 187,30 187,40 " style="fill:#4dd815; stroke-width:1; stroke:black; " description="&lt;b&gt;CDDIDNMG_01069&lt;/b&gt;&lt;br&gt;NADP-reducing hydrogenase subunit HndC&lt;br&gt;Location: 33654 - 35181" locus_tag="CDDIDNMG_01069" class="clusterblast-orf" id="dummy-1_q12_0_all"  />
<polygon points="210,40 249,40 254,35 249,30 210,30 210,40 " style="fill:#15aed8; stroke-width:1; stroke:black; " description="&lt;b&gt;CDDIDNMG_01070&lt;/b&gt;&lt;br&gt;Putative formate dehydrogenase&lt;br&gt;Location: 35177 - 38069" locus_tag="CDDIDNMG_01070" class="clusterblast-orf" id="dummy-1_q13_0_all"  />
<polygon points="254,40 262,40 267,35 262,30 254,30 254,40 " style="fill:#a115d8; stroke-width:1; stroke:black; " description="&lt;b&gt;CDDIDNMG_01071&lt;/b&gt;&lt;br&gt;Sulfur carrier protein FdhD&lt;br&gt;Location: 38068 - 38875" locus_tag="CDDIDNMG_01071" class="clusterblast-orf" id="dummy-1_q14_0_all"  />
<polygon points="267,40 270,35 267,30 267,40 " style="fill:#d86915; stroke-width:1; stroke:black; " description="&lt;b&gt;CDDIDNMG_01072&lt;/b&gt;&lt;br&gt;hypothetical protein&lt;br&gt;Location: 38864 - 39113" locus_tag="CDDIDNMG_01072" class="clusterblast-orf" id="dummy-1_q15_0_all"  />
<polygon points="273,40 279,40 284,35 279,30 273,30 273,40 " style="fill:white; stroke-width:1; stroke:black; " description="&lt;b&gt;CDDIDNMG_01073&lt;/b&gt;&lt;br&gt;hypothetical protein&lt;br&gt;Location: 39271 - 40003" locus_tag="CDDIDNMG_01073" class="clusterblast-orf" id="dummy-1_q16_0_all"  />
<polygon points="284,35 289,30 294,30 294,40 289,40 284,35 " style="fill:#23d815; stroke-width:1; stroke:black; " description="&lt;b&gt;CDDIDNMG_01074&lt;/b&gt;&lt;br&gt;4'-phosphopantetheinyl transferase Npt&lt;br&gt;Location: 39992 - 40640" locus_tag="CDDIDNMG_01074" class="clusterblast-orf" id="dummy-1_q17_0_all"  />
<polygon points="294,35 299,30 362,30 362,40 299,40 294,35 " style="fill:#1585d8; stroke-width:1; stroke:black; " description="&lt;b&gt;CDDIDNMG_01075&lt;/b&gt;&lt;br&gt;D-alanine--D-alanyl carrier protein ligase&lt;br&gt;Location: 40632 - 45123" locus_tag="CDDIDNMG_01075" class="clusterblast-orf" id="dummy-1_q18_0_all"  />
<polygon points="362,35 367,30 378,30 378,40 367,40 362,35 " style="fill:#ca15d8; stroke-width:1; stroke:black; " description="&lt;b&gt;CDDIDNMG_01076&lt;/b&gt;&lt;br&gt;hypothetical protein&lt;br&gt;Location: 45133 - 46141" locus_tag="CDDIDNMG_01076" class="clusterblast-orf" id="dummy-1_q19_0_all"  />
<polygon points="378,35 383,30 475,30 475,40 383,40 378,35 " style="fill:#d89315; stroke-width:1; stroke:black; " description="&lt;b&gt;CDDIDNMG_01077&lt;/b&gt;&lt;br&gt;hypothetical protein&lt;br&gt;Location: 46143 - 52527" locus_tag="CDDIDNMG_01077" class="clusterblast-orf" id="dummy-1_q20_0_all"  />
<polygon points="478,35 483,30 493,30 493,40 483,40 478,35 " style="fill:#15d831; stroke-width:1; stroke:black; " description="&lt;b&gt;CDDIDNMG_01078&lt;/b&gt;&lt;br&gt;hypothetical protein&lt;br&gt;Location: 52707 - 53700" locus_tag="CDDIDNMG_01078" class="clusterblast-orf" id="dummy-1_q21_0_all"  />
<polygon points="493,35 498,30 515,30 515,40 498,40 493,35 " style="fill:#155bd8; stroke-width:1; stroke:black; " description="&lt;b&gt;CDDIDNMG_01079&lt;/b&gt;&lt;br&gt;hypothetical protein&lt;br&gt;Location: 53699 - 55118" locus_tag="CDDIDNMG_01079" class="clusterblast-orf" id="dummy-1_q22_0_all"  />
<polygon points="516,35 521,30 530,30 530,40 521,40 516,35 " style="fill:#d815bc; stroke-width:1; stroke:black; " description="&lt;b&gt;CDDIDNMG_01080&lt;/b&gt;&lt;br&gt;hypothetical protein&lt;br&gt;Location: 55199 - 56111" locus_tag="CDDIDNMG_01080" class="clusterblast-orf" id="dummy-1_q23_0_all"  />
<polygon points="532,40 538,40 543,35 538,30 532,30 532,40 " style="fill:#d8bc15; stroke-width:1; stroke:black; " description="&lt;b&gt;CDDIDNMG_01081&lt;/b&gt;&lt;br&gt;N-acetylglucosaminyldiphosphoundecaprenol N-acetyl-beta-D-mannosaminyltransferase&lt;br&gt;Location: 56238 - 56985" locus_tag="CDDIDNMG_01081" class="clusterblast-orf" id="dummy-1_q24_0_all"  />
<polygon points="543,35 548,30 558,30 558,40 548,40 543,35 " style="fill:#15d85b; stroke-width:1; stroke:black; " description="&lt;b&gt;CDDIDNMG_01082&lt;/b&gt;&lt;br&gt;hypothetical protein&lt;br&gt;Location: 56985 - 57969" locus_tag="CDDIDNMG_01082" class="clusterblast-orf" id="dummy-1_q25_0_all"  />
<polygon points="563,40 571,40 576,35 571,30 563,30 563,40 " style="fill:#1531d8; stroke-width:1; stroke:black; " description="&lt;b&gt;CDDIDNMG_01083&lt;/b&gt;&lt;br&gt;hypothetical protein&lt;br&gt;Location: 58273 - 59143" locus_tag="CDDIDNMG_01083" class="clusterblast-orf" id="dummy-1_q26_0_all"  />
<polygon points="576,40 592,40 597,35 592,30 576,30 576,40 " style="fill:#d81593; stroke-width:1; stroke:black; " description="&lt;b&gt;CDDIDNMG_01084&lt;/b&gt;&lt;br&gt;hypothetical protein&lt;br&gt;Location: 59146 - 60505" locus_tag="CDDIDNMG_01084" class="clusterblast-orf" id="dummy-1_q27_0_all"  />
<polygon points="600,35 605,30 611,30 611,40 605,40 600,35 " style="fill:#cad815; stroke-width:1; stroke:black; " description="&lt;b&gt;CDDIDNMG_01085&lt;/b&gt;&lt;br&gt;Undecaprenyl phosphate N,N'-diacetylbacillosamine 1-phosphate transferase&lt;br&gt;Location: 60672 - 61392" locus_tag="CDDIDNMG_01085" class="clusterblast-orf" id="dummy-1_q28_0_all"  />
<polygon points="617,35 620,30 620,40 617,35 " style="fill:white; stroke-width:1; stroke:black; " description="&lt;b&gt;CDDIDNMG_01086&lt;/b&gt;&lt;br&gt;hypothetical protein&lt;br&gt;Location: 61822 - 62017" locus_tag="CDDIDNMG_01086" class="clusterblast-orf" id="dummy-1_q29_0_all"  />
<polygon points="622,35 627,30 635,30 635,40 627,40 622,35 " style="fill:#15d885; stroke-width:1; stroke:black; " description="&lt;b&gt;CDDIDNMG_01087&lt;/b&gt;&lt;br&gt;Glucose-1-phosphate thymidylyltransferase&lt;br&gt;Location: 62130 - 63003" locus_tag="CDDIDNMG_01087" class="clusterblast-orf" id="dummy-1_q30_0_all"  />
<polygon points="635,35 640,30 648,30 648,40 640,40 635,35 " style="fill:#2315d8; stroke-width:1; stroke:black; " description="&lt;b&gt;CDDIDNMG_01088&lt;/b&gt;&lt;br&gt;dTDP-4-dehydrorhamnose reductase&lt;br&gt;Location: 62999 - 63851" locus_tag="CDDIDNMG_01088" class="clusterblast-orf" id="dummy-1_q31_0_all"  />
<polygon points="649,35 654,30 665,30 665,40 654,40 649,35 " style="fill:#d81569; stroke-width:1; stroke:black; " description="&lt;b&gt;CDDIDNMG_01089&lt;/b&gt;&lt;br&gt;dTDP-glucose 4,6-dehydratase 2&lt;br&gt;Location: 63906 - 64947" locus_tag="CDDIDNMG_01089" class="clusterblast-orf" id="dummy-1_q32_0_all"  />
<polygon points="665,35 670,30 674,30 674,40 670,40 665,35 " style="fill:#a1d815; stroke-width:1; stroke:black; " description="&lt;b&gt;CDDIDNMG_01090&lt;/b&gt;&lt;br&gt;dTDP-4-dehydrorhamnose 3,5-epimerase&lt;br&gt;Location: 64943 - 65507" locus_tag="CDDIDNMG_01090" class="clusterblast-orf" id="dummy-1_q33_0_all"  />
<polygon points="675,35 680,30 695,30 695,40 680,40 675,35 " style="fill:#15d8ae; stroke-width:1; stroke:black; " description="&lt;b&gt;CDDIDNMG_01091&lt;/b&gt;&lt;br&gt;hypothetical protein&lt;br&gt;Location: 65582 - 66935" locus_tag="CDDIDNMG_01091" class="clusterblast-orf" id="dummy-1_q34_0_all"  />
<polygon points="698,40 712,40 717,35 712,30 698,30 698,40 " style="fill:#4d15d8; stroke-width:1; stroke:black; " description="&lt;b&gt;CDDIDNMG_01092&lt;/b&gt;&lt;br&gt;D-inositol-3-phosphate glycosyltransferase&lt;br&gt;Location: 67098 - 68370" locus_tag="CDDIDNMG_01092" class="clusterblast-orf" id="dummy-1_q35_0_all"  />
<polygon points="717,40 724,40 729,35 724,30 717,30 717,40 " style="fill:#d8153f; stroke-width:1; stroke:black; " description="&lt;b&gt;CDDIDNMG_01093&lt;/b&gt;&lt;br&gt;hypothetical protein&lt;br&gt;Location: 68366 - 69152" locus_tag="CDDIDNMG_01093" class="clusterblast-orf" id="dummy-1_q36_0_all"  />
<polygon points="732,35 737,30 742,30 742,40 737,40 732,35 " style="fill:white; stroke-width:1; stroke:black; " description="&lt;b&gt;CDDIDNMG_01094&lt;/b&gt;&lt;br&gt;hypothetical protein&lt;br&gt;Location: 69322 - 69955" locus_tag="CDDIDNMG_01094" class="clusterblast-orf" id="dummy-1_q37_0_all"  />
<polygon points="743,40 752,40 757,35 752,30 743,30 743,40 " style="fill:white; stroke-width:1; stroke:black; " description="&lt;b&gt;CDDIDNMG_01095&lt;/b&gt;&lt;br&gt;Chaperedoxin&lt;br&gt;Location: 70069 - 70984" locus_tag="CDDIDNMG_01095" class="clusterblast-orf" id="dummy-1_q38_0_all"  />
<polygon points="758,40 763,40 768,35 763,30 758,30 758,40 " style="fill:white; stroke-width:1; stroke:black; " description="&lt;b&gt;CDDIDNMG_01096&lt;/b&gt;&lt;br&gt;hypothetical protein&lt;br&gt;Location: 71013 - 71652" locus_tag="CDDIDNMG_01096" class="clusterblast-orf" id="dummy-1_q39_0_all"  />
<polygon points="767,40 770,35 767,30 767,40 " style="fill:white; stroke-width:1; stroke:black; " description="&lt;b&gt;CDDIDNMG_01097&lt;/b&gt;&lt;br&gt;hypothetical protein&lt;br&gt;Location: 71648 - 71843" locus_tag="CDDIDNMG_01097" class="clusterblast-orf" id="dummy-1_q40_0_all"  />
<polygon points="771,35 776,30 780,30 780,40 776,40 771,35 " style="fill:white; stroke-width:1; stroke:black; " description="&lt;b&gt;CDDIDNMG_01098&lt;/b&gt;&lt;br&gt;hypothetical protein&lt;br&gt;Location: 71864 - 72446" locus_tag="CDDIDNMG_01098" class="clusterblast-orf" id="dummy-1_q41_0_all"  />
</g>
<g label="NZ_VLLH01000011" description="NZ_VLLH01000011 (68560-120514): Gemmobacter caeni strain CGMCC 1.7745 IQ03DRA... (36% of genes show similarity), NRPS-like,T1PKS" class="clusterblast-cluster"  >
<text x="5" y="70" class="clusterblast-acc"  >
<a xlink:href="https://antismash-db.secondarymetabolites.org/area.html?record=NZ_VLLH01000011&amp;start=68560&amp;end=120514" target="_blank">NZ_VLLH01000011 (68560-120514)</a>: Gemmobacter caeni strain CGMCC 1.7745 IQ03DRA... (36% of genes show similarity), NRPS-like,T1PKS</text>
<line x1="10" y1="85" x2="778.0" y2="85" style="stroke-width:1; stroke:grey; "  />
</g>
<g id="a1_000"  >
<polygon points="8,90 13,90 18,85 13,80 8,80 8,90 " style="fill:white; stroke-width:1; stroke:black; " description="&lt;b&gt;IQ03_RS15070&lt;/b&gt;&lt;br&gt;ATP-binding cassette domain-containing protein&lt;br&gt;Location: 69748 - 70431" locus_tag="IQ03_RS15070" class="clusterblast-orf" id="dummy-1_h1_3_0"  />
</g>
<g id="a1_001"  >
<polygon points="19,85 24,80 31,80 31,90 24,90 19,85 " style="fill:white; stroke-width:1; stroke:black; " description="&lt;b&gt;IQ03_RS15075&lt;/b&gt;&lt;br&gt;cytochrome c1&lt;br&gt;Location: 70480 - 71268" locus_tag="IQ03_RS15075" class="clusterblast-orf" id="dummy-1_h1_3_1"  />
</g>
<g id="a1_002"  >
<polygon points="31,85 36,80 52,80 52,90 36,90 31,85 " style="fill:white; stroke-width:1; stroke:black; " description="&lt;b&gt;IQ03_RS15080&lt;/b&gt;&lt;br&gt;hypothetical protein&lt;br&gt;Location: 71288 - 72601" locus_tag="IQ03_RS15080" class="clusterblast-orf" id="dummy-1_h1_3_2"  />
</g>
<g id="a1_003"  >
<polygon points="52,85 57,80 60,80 60,90 57,90 52,85 " style="fill:white; stroke-width:1; stroke:black; " description="&lt;b&gt;IQ03_RS15085&lt;/b&gt;&lt;br&gt;ubiquinol-cytochrome c reductase iron-sulfur subunit&lt;br&gt;Location: 72613 - 73173" locus_tag="IQ03_RS15085" class="clusterblast-orf" id="dummy-1_h1_3_3"  />
</g>
<g id="a1_004"  >
<polygon points="64,90 68,90 73,85 68,80 64,80 64,90 " style="fill:white; stroke-width:1; stroke:black; " description="&lt;b&gt;IQ03_RS15090&lt;/b&gt;&lt;br&gt;phosphatase PAP2 family protein&lt;br&gt;Location: 73428 - 74003" locus_tag="IQ03_RS15090" class="clusterblast-orf" id="dummy-1_h1_3_4"  />
</g>
<g id="a1_005"  >
<polygon points="73,85 78,80 82,80 82,90 78,90 73,85 " style="fill:white; stroke-width:1; stroke:black; " description="&lt;b&gt;IQ03_RS15095&lt;/b&gt;&lt;br&gt;glutathione S-transferase&lt;br&gt;Location: 74017 - 74628" locus_tag="IQ03_RS15095" class="clusterblast-orf" id="dummy-1_h1_3_5"  />
</g>
<g id="a1_006"  >
<polygon points="84,90 88,90 93,85 88,80 84,80 84,90 " style="fill:white; stroke-width:1; stroke:black; " description="&lt;b&gt;IQ03_RS15100&lt;/b&gt;&lt;br&gt;peroxidase-related enzyme&lt;br&gt;Location: 74737 - 75303" locus_tag="IQ03_RS15100" class="clusterblast-orf" id="dummy-1_h1_3_6"  />
</g>
<g id="a1_007"  >
<polygon points="94,85 96,80 96,90 94,85 " style="fill:white; stroke-width:1; stroke:black; " description="&lt;b&gt;IQ03_RS15105&lt;/b&gt;&lt;br&gt;50S ribosomal protein L36&lt;br&gt;Location: 75364 - 75489" locus_tag="IQ03_RS15105" class="clusterblast-orf" id="dummy-1_h1_3_7"  />
</g>
<g id="a1_008"  >
<polygon points="100,90 108,90 113,85 108,80 100,80 100,90 " style="fill:white; stroke-width:1; stroke:black; " description="&lt;b&gt;IQ03_RS15115&lt;/b&gt;&lt;br&gt;N-formylglutamate amidohydrolase&lt;br&gt;Location: 75763 - 76644" locus_tag="IQ03_RS15115" class="clusterblast-orf" id="dummy-1_h1_3_8"  />
</g>
<g id="a1_009"  >
<polygon points="113,85 118,80 132,80 132,90 118,90 113,85 " style="fill:white; stroke-width:1; stroke:black; " description="&lt;b&gt;IQ03_RS15120&lt;/b&gt;&lt;br&gt;winged helix-turn-helix domain-containing protein&lt;br&gt;Location: 76657 - 77877" locus_tag="IQ03_RS15120" class="clusterblast-orf" id="dummy-1_h1_3_9"  />
</g>
<g id="a1_0010"  >
<polygon points="137,90 154,90 159,85 154,80 137,80 137,90 " style="fill:white; stroke-width:1; stroke:black; " description="&lt;b&gt;IQ03_RS15125&lt;/b&gt;&lt;br&gt;hypothetical protein&lt;br&gt;Location: 78177 - 79664" locus_tag="IQ03_RS15125" class="clusterblast-orf" id="dummy-1_h1_3_10"  />
</g>
<g id="a1_0011"  >
<polygon points="160,85 165,80 178,80 178,90 165,90 160,85 " style="fill:white; stroke-width:1; stroke:black; " description="&lt;b&gt;IQ03_RS15130&lt;/b&gt;&lt;br&gt;23S rRNA (adenine(2503)-C(2))-methyltransferase RlmN&lt;br&gt;Location: 79677 - 80867" locus_tag="IQ03_RS15130" class="clusterblast-orf" id="dummy-1_h1_3_11"  />
</g>
<g id="a1_0012"  >
<polygon points="180,85 185,80 188,80 188,90 185,90 180,85 " style="fill:white; stroke-width:1; stroke:black; " description="&lt;b&gt;IQ03_RS15135&lt;/b&gt;&lt;br&gt;hypothetical protein&lt;br&gt;Location: 81009 - 81542" locus_tag="IQ03_RS15135" class="clusterblast-orf" id="dummy-1_h1_3_12"  />
</g>
<g id="a1_0013"  >
<polygon points="191,90 201,90 206,85 201,80 191,80 191,90 " style="fill:white; stroke-width:1; stroke:black; " description="&lt;b&gt;IQ03_RS15140&lt;/b&gt;&lt;br&gt;asparaginase&lt;br&gt;Location: 81709 - 82710" locus_tag="IQ03_RS15140" class="clusterblast-orf" id="dummy-1_h1_3_13"  />
</g>
<g id="a1_0014"  >
<polygon points="210,90 211,90 216,85 211,80 210,80 210,90 " style="fill:white; stroke-width:1; stroke:black; " description="&lt;b&gt;IQ03_RS15145&lt;/b&gt;&lt;br&gt;DUF2794 domain-containing protein&lt;br&gt;Location: 82988 - 83344" locus_tag="IQ03_RS15145" class="clusterblast-orf" id="dummy-1_h1_3_14"  />
</g>
<g id="a1_0015"  >
<polygon points="216,85 221,80 228,80 228,90 221,90 216,85 " style="fill:white; stroke-width:1; stroke:black; " description="&lt;b&gt;IQ03_RS15150&lt;/b&gt;&lt;br&gt;NlpC/P60 family protein&lt;br&gt;Location: 83354 - 84175" locus_tag="IQ03_RS15150" class="clusterblast-orf" id="dummy-1_h1_3_15"  />
</g>
<g id="a1_0016"  >
<polygon points="228,85 233,80 249,80 249,90 233,90 228,85 " style="fill:white; stroke-width:1; stroke:black; " description="&lt;b&gt;IQ03_RS15155&lt;/b&gt;&lt;br&gt;leucyl aminopeptidase family protein&lt;br&gt;Location: 84177 - 85553" locus_tag="IQ03_RS15155" class="clusterblast-orf" id="dummy-1_h1_3_16"  />
</g>
<g id="a1_0017"  >
<polygon points="250,85 255,80 256,80 256,90 255,90 250,85 " style="fill:white; stroke-width:1; stroke:black; " description="&lt;b&gt;IQ03_RS15160&lt;/b&gt;&lt;br&gt;hypothetical protein&lt;br&gt;Location: 85612 - 85995" locus_tag="IQ03_RS15160" class="clusterblast-orf" id="dummy-1_h1_3_17"  />
</g>
<g id="a1_0018"  >
<polygon points="258,90 263,90 268,85 263,80 258,80 258,90 " style="fill:white; stroke-width:1; stroke:black; " description="&lt;b&gt;IQ03_RS15165&lt;/b&gt;&lt;br&gt;carbonic anhydrase&lt;br&gt;Location: 86146 - 86793" locus_tag="IQ03_RS15165" class="clusterblast-orf" id="dummy-1_h1_3_18"  />
</g>
<g id="a1_0019"  >
<polygon points="269,85 274,80 285,80 285,90 274,90 269,85 " style="fill:white; stroke-width:1; stroke:black; " description="&lt;b&gt;IQ03_RS15170&lt;/b&gt;&lt;br&gt;cell division protein ZapE&lt;br&gt;Location: 86810 - 87904" locus_tag="IQ03_RS15170" class="clusterblast-orf" id="dummy-1_h1_3_19"  />
</g>
<g id="a1_0020"  >
<polygon points="286,85 291,80 295,80 295,90 291,90 286,85 " style="fill:#23d815; stroke-width:1; stroke:black; " description="&lt;b&gt;IQ03_RS15175&lt;/b&gt;&lt;br&gt;4'-phosphopantetheinyl transferase superfamily protein&lt;br&gt;Location: 87942 - 88568&lt;br&gt;&lt;br&gt;&lt;b&gt;BlastP hit with CDDIDNMG_01074&lt;/b&gt;&lt;br&gt;Percentage identity: 42&lt;br&gt;Percentage coverage: 93&lt;br&gt;BLAST bit score: 144&lt;br&gt;E-value: 3.84e-41" locus_tag="IQ03_RS15175" class="clusterblast-orf" id="dummy-1_h1_3_20"  />
</g>
<g id="a1_0021"  >
<polygon points="295,85 300,80 364,80 364,90 300,90 295,85 " style="fill:#1585d8; stroke-width:1; stroke:black; " description="&lt;b&gt;IQ03_RS15180&lt;/b&gt;&lt;br&gt;LLM class flavin-dependent oxidoreductase&lt;br&gt;Location: 88561 - 93075&lt;br&gt;&lt;br&gt;&lt;b&gt;BlastP hit with CDDIDNMG_01075&lt;/b&gt;&lt;br&gt;Percentage identity: 68&lt;br&gt;Percentage coverage: 101&lt;br&gt;BLAST bit score: 1913&lt;br&gt;E-value: 0.0" locus_tag="IQ03_RS15180" class="clusterblast-orf" id="dummy-1_h1_3_21"  />
</g>
<g id="a1_0022"  >
<polygon points="365,85 370,80 380,80 380,90 370,90 365,85 " style="fill:#ca15d8; stroke-width:1; stroke:black; " description="&lt;b&gt;IQ03_RS15185&lt;/b&gt;&lt;br&gt;glycosyltransferase family 2 protein&lt;br&gt;Location: 93149 - 94114&lt;br&gt;&lt;br&gt;&lt;b&gt;BlastP hit with CDDIDNMG_01076&lt;/b&gt;&lt;br&gt;Percentage identity: 73&lt;br&gt;Percentage coverage: 93&lt;br&gt;BLAST bit score: 467&lt;br&gt;E-value: 5.61e-165" locus_tag="IQ03_RS15185" class="clusterblast-orf" id="dummy-1_h1_3_22"  />
</g>
<g id="a1_0023"  >
<polygon points="380,85 385,80 478,80 478,90 385,90 380,85 " style="fill:#d89315; stroke-width:1; stroke:black; " description="&lt;b&gt;IQ03_RS15190&lt;/b&gt;&lt;br&gt;type I polyketide synthase&lt;br&gt;Location: 94119 - 100514&lt;br&gt;&lt;br&gt;&lt;b&gt;BlastP hit with CDDIDNMG_01077&lt;/b&gt;&lt;br&gt;Percentage identity: 72&lt;br&gt;Percentage coverage: 100&lt;br&gt;BLAST bit score: 2996&lt;br&gt;E-value: 0.0" locus_tag="IQ03_RS15190" class="clusterblast-orf" id="dummy-1_h1_3_23"  />
</g>
<g id="a1_0024"  >
<polygon points="481,85 486,80 496,80 496,90 486,90 481,85 " style="fill:#15d831; stroke-width:1; stroke:black; " description="&lt;b&gt;IQ03_RS15195&lt;/b&gt;&lt;br&gt;glycosyltransferase&lt;br&gt;Location: 100704 - 101693&lt;br&gt;&lt;br&gt;&lt;b&gt;BlastP hit with CDDIDNMG_01078&lt;/b&gt;&lt;br&gt;Percentage identity: 65&lt;br&gt;Percentage coverage: 101&lt;br&gt;BLAST bit score: 398&lt;br&gt;E-value: 1.01e-137" locus_tag="IQ03_RS15195" class="clusterblast-orf" id="dummy-1_h1_3_24"  />
</g>
<g id="a1_0025"  >
<polygon points="496,85 501,80 517,80 517,90 501,90 496,85 " style="fill:#155bd8; stroke-width:1; stroke:black; " description="&lt;b&gt;IQ03_RS15200&lt;/b&gt;&lt;br&gt;hypothetical protein&lt;br&gt;Location: 101693 - 103078&lt;br&gt;&lt;br&gt;&lt;b&gt;BlastP hit with CDDIDNMG_01079&lt;/b&gt;&lt;br&gt;Percentage identity: 59&lt;br&gt;Percentage coverage: 95&lt;br&gt;BLAST bit score: 523&lt;br&gt;E-value: 1.33e-182" locus_tag="IQ03_RS15200" class="clusterblast-orf" id="dummy-1_h1_3_25"  />
</g>
<g id="a1_0026"  >
<polygon points="518,85 523,80 532,80 532,90 523,90 518,85 " style="fill:#d815bc; stroke-width:1; stroke:black; " description="&lt;b&gt;IQ03_RS15205&lt;/b&gt;&lt;br&gt;acyltransferase family protein&lt;br&gt;Location: 103158 - 104054&lt;br&gt;&lt;br&gt;&lt;b&gt;BlastP hit with CDDIDNMG_01080&lt;/b&gt;&lt;br&gt;Percentage identity: 53&lt;br&gt;Percentage coverage: 96&lt;br&gt;BLAST bit score: 301&lt;br&gt;E-value: 2.23e-100" locus_tag="IQ03_RS15205" class="clusterblast-orf" id="dummy-1_h1_3_26"  />
</g>
<g id="a1_0027"  >
<polygon points="535,90 542,90 547,85 542,80 535,80 535,90 " style="fill:#d8bc15; stroke-width:1; stroke:black; " description="&lt;b&gt;IQ03_RS15210&lt;/b&gt;&lt;br&gt;WecB/TagA/CpsF family glycosyltransferase&lt;br&gt;Location: 104238 - 105008&lt;br&gt;&lt;br&gt;&lt;b&gt;BlastP hit with CDDIDNMG_01081&lt;/b&gt;&lt;br&gt;Percentage identity: 65&lt;br&gt;Percentage coverage: 100&lt;br&gt;BLAST bit score: 313&lt;br&gt;E-value: 1.94e-106" locus_tag="IQ03_RS15210" class="clusterblast-orf" id="dummy-1_h1_3_27"  />
</g>
<g id="a1_0028"  >
<polygon points="547,85 552,80 561,80 561,90 552,90 547,85 " style="fill:#15d85b; stroke-width:1; stroke:black; " description="&lt;b&gt;IQ03_RS15215&lt;/b&gt;&lt;br&gt;glycosyltransferase&lt;br&gt;Location: 105024 - 105977&lt;br&gt;&lt;br&gt;&lt;b&gt;BlastP hit with CDDIDNMG_01082&lt;/b&gt;&lt;br&gt;Percentage identity: 69&lt;br&gt;Percentage coverage: 97&lt;br&gt;BLAST bit score: 431&lt;br&gt;E-value: 5e-151" locus_tag="IQ03_RS15215" class="clusterblast-orf" id="dummy-1_h1_3_28"  />
</g>
<g id="a1_0029"  >
<polygon points="566,90 575,90 580,85 575,80 566,80 566,90 " style="fill:#1531d8; stroke-width:1; stroke:black; " description="&lt;b&gt;IQ03_RS15220&lt;/b&gt;&lt;br&gt;P-loop NTPase&lt;br&gt;Location: 106303 - 107184&lt;br&gt;&lt;br&gt;&lt;b&gt;BlastP hit with CDDIDNMG_01083&lt;/b&gt;&lt;br&gt;Percentage identity: 53&lt;br&gt;Percentage coverage: 82&lt;br&gt;BLAST bit score: 252&lt;br&gt;E-value: 1.91e-81" locus_tag="IQ03_RS15220" class="clusterblast-orf" id="dummy-1_h1_3_29"  />
</g>
<g id="a1_0030"  >
<polygon points="580,90 594,90 599,85 594,80 580,80 580,90 " style="fill:#d81593; stroke-width:1; stroke:black; " description="&lt;b&gt;IQ03_RS15225&lt;/b&gt;&lt;br&gt;hypothetical protein&lt;br&gt;Location: 107191 - 108465&lt;br&gt;&lt;br&gt;&lt;b&gt;BlastP hit with CDDIDNMG_01084&lt;/b&gt;&lt;br&gt;Percentage identity: 47&lt;br&gt;Percentage coverage: 89&lt;br&gt;BLAST bit score: 313&lt;br&gt;E-value: 4.43e-101" locus_tag="IQ03_RS15225" class="clusterblast-orf" id="dummy-1_h1_3_30"  />
</g>
<g id="a1_0031"  >
<polygon points="601,85 606,80 610,80 610,90 606,90 601,85 " style="fill:#cad815; stroke-width:1; stroke:black; " description="&lt;b&gt;IQ03_RS15230&lt;/b&gt;&lt;br&gt;sugar transferase&lt;br&gt;Location: 108540 - 109187&lt;br&gt;&lt;br&gt;&lt;b&gt;BlastP hit with CDDIDNMG_01085&lt;/b&gt;&lt;br&gt;Percentage identity: 69&lt;br&gt;Percentage coverage: 89&lt;br&gt;BLAST bit score: 295&lt;br&gt;E-value: 2.34e-100" locus_tag="IQ03_RS15230" class="clusterblast-orf" id="dummy-1_h1_3_31"  />
</g>
<g id="a1_0032"  >
<polygon points="618,85 621,80 621,90 618,85 " style="fill:white; stroke-width:1; stroke:black; " description="&lt;b&gt;IQ03_RS15235&lt;/b&gt;&lt;br&gt;hypothetical protein&lt;br&gt;Location: 109666 - 109881" locus_tag="IQ03_RS15235" class="clusterblast-orf" id="dummy-1_h1_3_32"  />
</g>
<g id="a1_0033"  >
<polygon points="623,85 628,80 643,80 643,90 628,90 623,85 " style="fill:#15d8ae; stroke-width:1; stroke:black; " description="&lt;b&gt;IQ03_RS15240&lt;/b&gt;&lt;br&gt;oligosaccharide flippase family protein&lt;br&gt;Location: 109990 - 111327&lt;br&gt;&lt;br&gt;&lt;b&gt;BlastP hit with CDDIDNMG_01091&lt;/b&gt;&lt;br&gt;Percentage identity: 64&lt;br&gt;Percentage coverage: 97&lt;br&gt;BLAST bit score: 541&lt;br&gt;E-value: 2.45e-190" locus_tag="IQ03_RS15240" class="clusterblast-orf" id="dummy-1_h1_3_33"  />
</g>
<g id="a1_0034"  >
<polygon points="645,90 658,90 663,85 658,80 645,80 645,90 " style="fill:#4d15d8; stroke-width:1; stroke:black; " description="&lt;b&gt;IQ03_RS15245&lt;/b&gt;&lt;br&gt;glycosyltransferase&lt;br&gt;Location: 111443 - 112642&lt;br&gt;&lt;br&gt;&lt;b&gt;BlastP hit with CDDIDNMG_01092&lt;/b&gt;&lt;br&gt;Percentage identity: 57&lt;br&gt;Percentage coverage: 94&lt;br&gt;BLAST bit score: 421&lt;br&gt;E-value: 2.77e-144" locus_tag="IQ03_RS15245" class="clusterblast-orf" id="dummy-1_h1_3_34"  />
</g>
<g id="a1_0035"  >
<polygon points="663,90 670,90 675,85 670,80 663,80 663,90 " style="fill:#d8153f; stroke-width:1; stroke:black; " description="&lt;b&gt;IQ03_RS15250&lt;/b&gt;&lt;br&gt;hypothetical protein&lt;br&gt;Location: 112635 - 113423&lt;br&gt;&lt;br&gt;&lt;b&gt;BlastP hit with CDDIDNMG_01093&lt;/b&gt;&lt;br&gt;Percentage identity: 59&lt;br&gt;Percentage coverage: 99&lt;br&gt;BLAST bit score: 309&lt;br&gt;E-value: 9.09e-105" locus_tag="IQ03_RS15250" class="clusterblast-orf" id="dummy-1_h1_3_35"  />
</g>
<g id="a1_0036"  >
<polygon points="677,85 682,80 687,80 687,90 682,90 677,85 " style="fill:white; stroke-width:1; stroke:black; " description="&lt;b&gt;IQ03_RS15255&lt;/b&gt;&lt;br&gt;peroxiredoxin&lt;br&gt;Location: 113516 - 114172" locus_tag="IQ03_RS15255" class="clusterblast-orf" id="dummy-1_h1_3_36"  />
</g>
<g id="a1_0037"  >
<polygon points="690,85 695,80 703,80 703,90 695,90 690,85 " style="fill:white; stroke-width:1; stroke:black; " description="&lt;b&gt;IQ03_RS15260&lt;/b&gt;&lt;br&gt;glycosyltransferase family 92 protein&lt;br&gt;Location: 114368 - 115267" locus_tag="IQ03_RS15260" class="clusterblast-orf" id="dummy-1_h1_3_37"  />
</g>
<g id="a1_0038"  >
<polygon points="706,90 723,90 728,85 723,80 706,80 706,90 " style="fill:white; stroke-width:1; stroke:black; " description="&lt;b&gt;IQ03_RS15265&lt;/b&gt;&lt;br&gt;aldehyde dehydrogenase family protein&lt;br&gt;Location: 115454 - 116899" locus_tag="IQ03_RS15265" class="clusterblast-orf" id="dummy-1_h1_3_38"  />
</g>
<g id="a1_0039"  >
<polygon points="729,90 734,90 739,85 734,80 729,80 729,90 " style="fill:white; stroke-width:1; stroke:black; " description="&lt;b&gt;IQ03_RS15270&lt;/b&gt;&lt;br&gt;5'-methylthioadenosine/S-adenosylhomocysteine nucleosidase&lt;br&gt;Location: 116957 - 117634" locus_tag="IQ03_RS15270" class="clusterblast-orf" id="dummy-1_h1_3_39"  />
</g>
<g id="a1_0040"  >
<polygon points="741,90 766,90 771,85 766,80 741,80 741,90 " style="fill:white; stroke-width:1; stroke:black; " description="&lt;b&gt;IQ03_RS15275&lt;/b&gt;&lt;br&gt;FAD-dependent oxidoreductase&lt;br&gt;Location: 117724 - 119700" locus_tag="IQ03_RS15275" class="clusterblast-orf" id="dummy-1_h1_3_40"  />
</g>
</svg>
