<svg xmlns="http://www.w3.org/2000/svg" xmlns:xlink="http://www.w3.org/1999/xlink" version="1.1" x="0" y="0" height="230" width="800" viewBox="0 0 800 230" preserveAspectRatio="none"  >
<g label="Query sequence" class="clusterblast-cluster"  >
<text x="5" y="20" class="clusterblast-acc"  >
Query sequence</text>
<line x1="10" y1="35" x2="778.0" y2="35" style="stroke-width:1; stroke:grey; "  />
<polygon points="65,35 70,30 76,30 76,40 70,40 65,35 " style="fill:white; stroke-width:1; stroke:black; " description="&lt;b&gt;CDDIDNMG_02132&lt;/b&gt;&lt;br&gt;hypothetical protein&lt;br&gt;Location: 388 - 667" locus_tag="CDDIDNMG_02132" class="clusterblast-orf" id="dummy-1_q0_0_all"  />
<polygon points="123,35 128,30 136,30 136,40 128,40 123,35 " style="fill:white; stroke-width:1; stroke:black; " description="&lt;b&gt;CDDIDNMG_02133&lt;/b&gt;&lt;br&gt;hypothetical protein&lt;br&gt;Location: 1879 - 2206" locus_tag="CDDIDNMG_02133" class="clusterblast-orf" id="dummy-1_q1_0_all"  />
<polygon points="137,35 142,30 196,30 196,40 142,40 137,35 " style="fill:white; stroke-width:1; stroke:black; " description="&lt;b&gt;CDDIDNMG_02134&lt;/b&gt;&lt;br&gt;Tyrosine recombinase XerC&lt;br&gt;Location: 2231 - 3725" locus_tag="CDDIDNMG_02134" class="clusterblast-orf" id="dummy-1_q2_0_all"  />
<polygon points="198,35 203,30 206,30 206,40 203,40 198,35 " style="fill:white; stroke-width:1; stroke:black; " description="&lt;b&gt;CDDIDNMG_02135&lt;/b&gt;&lt;br&gt;hypothetical protein&lt;br&gt;Location: 3783 - 3993" locus_tag="CDDIDNMG_02135" class="clusterblast-orf" id="dummy-1_q3_0_all"  />
<polygon points="216,40 226,40 231,35 226,30 216,30 216,40 " style="fill:#d81515; stroke-width:1; stroke:black; " description="&lt;b&gt;CDDIDNMG_02136&lt;/b&gt;&lt;br&gt;Alkaline phosphatase synthesis transcriptional regulatory protein PhoP&lt;br&gt;Location: 4231 - 4633" locus_tag="CDDIDNMG_02136" class="clusterblast-orf" id="dummy-1_q4_0_all"  />
<polygon points="234,35 239,30 290,30 290,40 239,40 234,35 " style="fill:#77d815; stroke-width:1; stroke:black; " description="&lt;b&gt;CDDIDNMG_02137&lt;/b&gt;&lt;br&gt;Sensor histidine kinase RcsC&lt;br&gt;Location: 4688 - 6116" locus_tag="CDDIDNMG_02137" class="clusterblast-orf" id="dummy-1_q5_0_all"  />
<polygon points="297,40 321,40 326,35 321,30 297,30 297,40 " style="fill:#15d8d8; stroke-width:1; stroke:black; " description="&lt;b&gt;CDDIDNMG_02138&lt;/b&gt;&lt;br&gt;hypothetical protein&lt;br&gt;Location: 6310 - 7033" locus_tag="CDDIDNMG_02138" class="clusterblast-orf" id="dummy-1_q6_0_all"  />
<polygon points="349,35 354,30 355,30 355,40 354,40 349,35 " style="fill:#7715d8; stroke-width:1; stroke:black; " description="&lt;b&gt;CDDIDNMG_02139&lt;/b&gt;&lt;br&gt;hypothetical protein&lt;br&gt;Location: 7619 - 7784" locus_tag="CDDIDNMG_02139" class="clusterblast-orf" id="dummy-1_q7_0_all"  />
<polygon points="355,35 360,30 383,30 383,40 360,40 355,35 " style="fill:#d87715; stroke-width:1; stroke:black; " description="&lt;b&gt;CDDIDNMG_02140&lt;/b&gt;&lt;br&gt;hypothetical protein&lt;br&gt;Location: 7787 - 8489" locus_tag="CDDIDNMG_02140" class="clusterblast-orf" id="dummy-1_q8_0_all"  />
<polygon points="387,40 393,40 398,35 393,30 387,30 387,40 " style="fill:white; stroke-width:1; stroke:black; " description="&lt;b&gt;CDDIDNMG_02141&lt;/b&gt;&lt;br&gt;hypothetical protein&lt;br&gt;Location: 8608 - 8866" locus_tag="CDDIDNMG_02141" class="clusterblast-orf" id="dummy-1_q9_0_all"  />
<polygon points="397,40 399,40 404,35 399,30 397,30 397,40 " style="fill:white; stroke-width:1; stroke:black; " description="&lt;b&gt;CDDIDNMG_02142&lt;/b&gt;&lt;br&gt;hypothetical protein&lt;br&gt;Location: 8862 - 9039" locus_tag="CDDIDNMG_02142" class="clusterblast-orf" id="dummy-1_q10_0_all"  />
<polygon points="405,40 413,40 418,35 413,30 405,30 405,40 " style="fill:white; stroke-width:1; stroke:black; " description="&lt;b&gt;CDDIDNMG_02143&lt;/b&gt;&lt;br&gt;hypothetical protein&lt;br&gt;Location: 9056 - 9389" locus_tag="CDDIDNMG_02143" class="clusterblast-orf" id="dummy-1_q11_0_all"  />
<polygon points="419,40 448,40 453,35 448,30 419,30 419,40 " style="fill:#15d815; stroke-width:1; stroke:black; " description="&lt;b&gt;CDDIDNMG_02144&lt;/b&gt;&lt;br&gt;hypothetical protein&lt;br&gt;Location: 9414 - 10278" locus_tag="CDDIDNMG_02144" class="clusterblast-orf" id="dummy-1_q12_0_all"  />
<polygon points="453,40 533,40 538,35 533,30 453,30 453,40 " style="fill:#1577d8; stroke-width:1; stroke:black; " description="&lt;b&gt;CDDIDNMG_02145&lt;/b&gt;&lt;br&gt;hypothetical protein&lt;br&gt;Location: 10274 - 12440" locus_tag="CDDIDNMG_02145" class="clusterblast-orf" id="dummy-1_q13_0_all"  />
<polygon points="540,40 566,40 571,35 566,30 540,30 540,40 " style="fill:#d815d8; stroke-width:1; stroke:black; " description="&lt;b&gt;CDDIDNMG_02146&lt;/b&gt;&lt;br&gt;hypothetical protein&lt;br&gt;Location: 12498 - 13284" locus_tag="CDDIDNMG_02146" class="clusterblast-orf" id="dummy-1_q14_0_all"  />
<polygon points="571,40 588,40 593,35 588,30 571,30 571,40 " style="fill:#d8d815; stroke-width:1; stroke:black; " description="&lt;b&gt;CDDIDNMG_02147&lt;/b&gt;&lt;br&gt;hypothetical protein&lt;br&gt;Location: 13280 - 13847" locus_tag="CDDIDNMG_02147" class="clusterblast-orf" id="dummy-1_q15_0_all"  />
<polygon points="593,40 603,40 608,35 603,30 593,30 593,40 " style="fill:#15d877; stroke-width:1; stroke:black; " description="&lt;b&gt;CDDIDNMG_02148&lt;/b&gt;&lt;br&gt;hypothetical protein&lt;br&gt;Location: 13843 - 14215" locus_tag="CDDIDNMG_02148" class="clusterblast-orf" id="dummy-1_q16_0_all"  />
<polygon points="607,40 611,40 616,35 611,30 607,30 607,40 " style="fill:white; stroke-width:1; stroke:black; " description="&lt;b&gt;CDDIDNMG_02149&lt;/b&gt;&lt;br&gt;hypothetical protein&lt;br&gt;Location: 14211 - 14430" locus_tag="CDDIDNMG_02149" class="clusterblast-orf" id="dummy-1_q17_0_all"  />
<polygon points="616,40 637,40 642,35 637,30 616,30 616,40 " style="fill:#1515d8; stroke-width:1; stroke:black; " description="&lt;b&gt;CDDIDNMG_02150&lt;/b&gt;&lt;br&gt;hypothetical protein&lt;br&gt;Location: 14431 - 15082" locus_tag="CDDIDNMG_02150" class="clusterblast-orf" id="dummy-1_q18_0_all"  />
<polygon points="643,40 655,40 660,35 655,30 643,30 643,40 " style="fill:#d81577; stroke-width:1; stroke:black; " description="&lt;b&gt;CDDIDNMG_02151&lt;/b&gt;&lt;br&gt;hypothetical protein&lt;br&gt;Location: 15110 - 15554" locus_tag="CDDIDNMG_02151" class="clusterblast-orf" id="dummy-1_q19_0_all"  />
<polygon points="660,40 670,40 675,35 670,30 660,30 660,40 " style="fill:white; stroke-width:1; stroke:black; " description="&lt;b&gt;CDDIDNMG_02152&lt;/b&gt;&lt;br&gt;hypothetical protein&lt;br&gt;Location: 15550 - 15922" locus_tag="CDDIDNMG_02152" class="clusterblast-orf" id="dummy-1_q20_0_all"  />
<polygon points="679,40 710,40 715,35 710,30 679,30 679,40 " style="fill:white; stroke-width:1; stroke:black; " description="&lt;b&gt;CDDIDNMG_02153&lt;/b&gt;&lt;br&gt;hypothetical protein&lt;br&gt;Location: 16023 - 16953" locus_tag="CDDIDNMG_02153" class="clusterblast-orf" id="dummy-1_q21_0_all"  />
</g>
<g label="NZ_LJSC01000026" description="NZ_LJSC01000026 (10205-30955): Gemmobacter sp. LW-1 contig330, whole genome s... (16% of genes show similarity), hserlactone" class="clusterblast-cluster"  >
<text x="5" y="70" class="clusterblast-acc"  >
<a xlink:href="https://antismash-db.secondarymetabolites.org/area.html?record=NZ_LJSC01000026&amp;start=10205&amp;end=30955" target="_blank">NZ_LJSC01000026 (10205-30955)</a>: Gemmobacter sp. LW-1 contig330, whole genome s... (16% of genes show similarity), hserlactone</text>
<line x1="10" y1="85" x2="778.0" y2="85" style="stroke-width:1; stroke:grey; "  />
</g>
<g id="a1_000"  >
<polygon points="0,90 32,90 37,85 32,80 0,80 0,90 " style="fill:white; stroke-width:1; stroke:black; " description="&lt;b&gt;AO684_RS04030&lt;/b&gt;&lt;br&gt;ABC transporter permease&lt;br&gt;Location: 10284 - 11249" locus_tag="AO684_RS04030" class="clusterblast-orf" id="dummy-1_h1_9_0"  />
</g>
<g id="a1_001"  >
<polygon points="43,90 75,90 80,85 75,80 43,80 43,90 " style="fill:white; stroke-width:1; stroke:black; " description="&lt;b&gt;AO684_RS04035&lt;/b&gt;&lt;br&gt;sulfite exporter TauE/SafE family protein&lt;br&gt;Location: 11399 - 12322" locus_tag="AO684_RS04035" class="clusterblast-orf" id="dummy-1_h1_9_1"  />
</g>
<g id="a1_002"  >
<polygon points="79,90 105,90 110,85 105,80 79,80 79,90 " style="fill:white; stroke-width:1; stroke:black; " description="&lt;b&gt;AO684_RS04040&lt;/b&gt;&lt;br&gt;hypothetical protein&lt;br&gt;Location: 12319 - 13086" locus_tag="AO684_RS04040" class="clusterblast-orf" id="dummy-1_h1_9_2"  />
</g>
<g id="a1_003"  >
<polygon points="110,85 115,80 162,80 162,90 115,90 110,85 " style="fill:white; stroke-width:1; stroke:black; " description="&lt;b&gt;AO684_RS04045&lt;/b&gt;&lt;br&gt;MATE family efflux transporter&lt;br&gt;Location: 13105 - 14430" locus_tag="AO684_RS04045" class="clusterblast-orf" id="dummy-1_h1_9_3"  />
</g>
<g id="a1_004"  >
<polygon points="162,85 167,80 182,80 182,90 167,90 162,85 " style="fill:white; stroke-width:1; stroke:black; " description="&lt;b&gt;AO684_RS04050&lt;/b&gt;&lt;br&gt;PaaI family thioesterase&lt;br&gt;Location: 14420 - 14932" locus_tag="AO684_RS04050" class="clusterblast-orf" id="dummy-1_h1_9_4"  />
</g>
<g id="a1_005"  >
<polygon points="182,85 187,80 200,80 200,90 187,90 182,85 " style="fill:white; stroke-width:1; stroke:black; " description="&lt;b&gt;AO684_RS04055&lt;/b&gt;&lt;br&gt;PaaI family thioesterase&lt;br&gt;Location: 14929 - 15378" locus_tag="AO684_RS04055" class="clusterblast-orf" id="dummy-1_h1_9_5"  />
</g>
<g id="a1_006"  >
<polygon points="205,90 215,90 220,85 215,80 205,80 205,90 " style="fill:white; stroke-width:1; stroke:black; " description="&lt;b&gt;AO684_RS04060&lt;/b&gt;&lt;br&gt;MerR family DNA-binding transcriptional regulator&lt;br&gt;Location: 15522 - 15896" locus_tag="AO684_RS04060" class="clusterblast-orf" id="dummy-1_h1_9_6"  />
</g>
<g id="a1_007"  >
<polygon points="227,90 238,90 243,85 238,80 227,80 227,90 " style="fill:white; stroke-width:1; stroke:black; " description="&lt;b&gt;AO684_RS04065&lt;/b&gt;&lt;br&gt;MerR family DNA-binding transcriptional regulator&lt;br&gt;Location: 16068 - 16487" locus_tag="AO684_RS04065" class="clusterblast-orf" id="dummy-1_h1_9_7"  />
</g>
<g id="a1_008"  >
<polygon points="245,90 309,90 314,85 309,80 245,80 245,90 " style="fill:white; stroke-width:1; stroke:black; " description="&lt;b&gt;AO684_RS04070&lt;/b&gt;&lt;br&gt;acyl-CoA dehydrogenase&lt;br&gt;Location: 16527 - 18302" locus_tag="AO684_RS04070" class="clusterblast-orf" id="dummy-1_h1_9_8"  />
</g>
<g id="a1_009"  >
<polygon points="317,90 320,90 325,85 320,80 317,80 317,90 " style="fill:white; stroke-width:1; stroke:black; " description="&lt;b&gt;AO684_RS04075&lt;/b&gt;&lt;br&gt;hypothetical protein&lt;br&gt;Location: 18369 - 18581" locus_tag="AO684_RS04075" class="clusterblast-orf" id="dummy-1_h1_9_9"  />
</g>
<g id="a1_0010"  >
<polygon points="328,85 333,80 384,80 384,90 333,90 328,85 " style="fill:#77d815; stroke-width:1; stroke:black; " description="&lt;b&gt;AO684_RS04080&lt;/b&gt;&lt;br&gt;sensor histidine kinase&lt;br&gt;Location: 18645 - 20078&lt;br&gt;&lt;br&gt;&lt;b&gt;BlastP hit with CDDIDNMG_02137&lt;/b&gt;&lt;br&gt;Percentage identity: 50&lt;br&gt;Percentage coverage: 91&lt;br&gt;BLAST bit score: 392&lt;br&gt;E-value: 1.01e-130" locus_tag="AO684_RS04080" class="clusterblast-orf" id="dummy-1_h1_9_10"  />
</g>
<g id="a1_0011"  >
<polygon points="389,90 413,90 418,85 413,80 389,80 389,90 " style="fill:#15d8d8; stroke-width:1; stroke:black; " description="&lt;b&gt;AO684_RS04085&lt;/b&gt;&lt;br&gt;N-acyl-L-homoserine lactone synthetase&lt;br&gt;Location: 20206 - 20955&lt;br&gt;&lt;br&gt;&lt;b&gt;BlastP hit with CDDIDNMG_02138&lt;/b&gt;&lt;br&gt;Percentage identity: 52&lt;br&gt;Percentage coverage: 102&lt;br&gt;BLAST bit score: 253&lt;br&gt;E-value: 3.9e-83" locus_tag="AO684_RS04085" class="clusterblast-orf" id="dummy-1_h1_9_11"  />
</g>
<g id="a1_0012"  >
<polygon points="421,85 426,80 436,80 436,90 426,90 421,85 " style="fill:#d81515; stroke-width:1; stroke:black; " description="&lt;b&gt;AO684_RS21760&lt;/b&gt;&lt;br&gt;response regulator&lt;br&gt;Location: 21016 - 21411&lt;br&gt;&lt;br&gt;&lt;b&gt;BlastP hit with CDDIDNMG_02136&lt;/b&gt;&lt;br&gt;Percentage identity: 50&lt;br&gt;Percentage coverage: 92&lt;br&gt;BLAST bit score: 123&lt;br&gt;E-value: 3.35e-35" locus_tag="AO684_RS21760" class="clusterblast-orf" id="dummy-1_h1_9_12"  />
</g>
<g id="a1_0013"  >
<polygon points="457,85 462,80 513,80 513,90 462,90 457,85 " style="fill:white; stroke-width:1; stroke:black; " description="&lt;b&gt;AO684_RS04095&lt;/b&gt;&lt;br&gt;cardiolipin synthase&lt;br&gt;Location: 21947 - 23353" locus_tag="AO684_RS04095" class="clusterblast-orf" id="dummy-1_h1_9_13"  />
</g>
<g id="a1_0014"  >
<polygon points="524,90 529,90 534,85 529,80 524,80 524,90 " style="fill:white; stroke-width:1; stroke:black; " description="&lt;b&gt;AO684_RS04100&lt;/b&gt;&lt;br&gt;transposase&lt;br&gt;Location: 23640 - 23909" locus_tag="AO684_RS04100" class="clusterblast-orf" id="dummy-1_h1_9_14"  />
</g>
<g id="a1_0015"  >
<polygon points="555,90 631,90 636,85 631,80 555,80 555,90 " style="fill:white; stroke-width:1; stroke:black; " description="&lt;b&gt;AO684_RS04105&lt;/b&gt;&lt;br&gt;phosphatase PAP2 family protein&lt;br&gt;Location: 24436 - 26505" locus_tag="AO684_RS04105" class="clusterblast-orf" id="dummy-1_h1_9_15"  />
</g>
<g id="a1_0016"  >
<polygon points="648,90 707,90 712,85 707,80 648,80 648,90 " style="fill:white; stroke-width:1; stroke:black; " description="&lt;b&gt;AO684_RS04110&lt;/b&gt;&lt;br&gt;FMN-binding glutamate synthase family protein&lt;br&gt;Location: 26791 - 28425" locus_tag="AO684_RS04110" class="clusterblast-orf" id="dummy-1_h1_9_16"  />
</g>
<g id="a1_0017"  >
<polygon points="712,90 775,90 780,85 775,80 712,80 712,90 " style="fill:white; stroke-width:1; stroke:black; " description="&lt;b&gt;AO684_RS04115&lt;/b&gt;&lt;br&gt;pyruvate dehydrogenase&lt;br&gt;Location: 28434 - 30149" locus_tag="AO684_RS04115" class="clusterblast-orf" id="dummy-1_h1_9_17"  />
</g>
</svg>
