<svg xmlns="http://www.w3.org/2000/svg" xmlns:xlink="http://www.w3.org/1999/xlink" version="1.1" x="0" y="0" height="230" width="800" viewBox="0 0 800 230" preserveAspectRatio="none"  >
<g label="Query sequence" class="clusterblast-cluster"  >
<text x="5" y="20" class="clusterblast-acc"  >
Query sequence</text>
<line x1="10" y1="35" x2="778.0" y2="35" style="stroke-width:1; stroke:grey; "  />
<polygon points="3,40 13,40 18,35 13,30 3,30 3,40 " style="fill:#d81515; stroke-width:1; stroke:black; " description="&lt;b&gt;CDDIDNMG_02050&lt;/b&gt;&lt;br&gt;30S ribosomal protein S8&lt;br&gt;Location: 631 - 1030" locus_tag="CDDIDNMG_02050" class="clusterblast-orf" id="dummy-1_q0_0_all"  />
<polygon points="18,40 34,40 39,35 34,30 18,30 18,40 " style="fill:#4dd815; stroke-width:1; stroke:black; " description="&lt;b&gt;CDDIDNMG_02051&lt;/b&gt;&lt;br&gt;50S ribosomal protein L6&lt;br&gt;Location: 1040 - 1574" locus_tag="CDDIDNMG_02051" class="clusterblast-orf" id="dummy-1_q1_0_all"  />
<polygon points="40,40 49,40 54,35 49,30 40,30 40,40 " style="fill:#15bcd8; stroke-width:1; stroke:black; " description="&lt;b&gt;CDDIDNMG_02052&lt;/b&gt;&lt;br&gt;50S ribosomal protein L18&lt;br&gt;Location: 1585 - 1945" locus_tag="CDDIDNMG_02052" class="clusterblast-orf" id="dummy-1_q2_0_all"  />
<polygon points="54,40 71,40 76,35 71,30 54,30 54,40 " style="fill:#8515d8; stroke-width:1; stroke:black; " description="&lt;b&gt;CDDIDNMG_02053&lt;/b&gt;&lt;br&gt;30S ribosomal protein S5&lt;br&gt;Location: 1956 - 2535" locus_tag="CDDIDNMG_02053" class="clusterblast-orf" id="dummy-1_q3_0_all"  />
<polygon points="77,40 79,40 84,35 79,30 77,30 77,40 " style="fill:#d84d15; stroke-width:1; stroke:black; " description="&lt;b&gt;CDDIDNMG_02054&lt;/b&gt;&lt;br&gt;50S ribosomal protein L30&lt;br&gt;Location: 2537 - 2738" locus_tag="CDDIDNMG_02054" class="clusterblast-orf" id="dummy-1_q4_0_all"  />
<polygon points="87,35 92,30 100,30 100,40 92,40 87,35 " style="fill:white; stroke-width:1; stroke:black; " description="&lt;b&gt;CDDIDNMG_02055&lt;/b&gt;&lt;br&gt;hypothetical protein&lt;br&gt;Location: 2795 - 3143" locus_tag="CDDIDNMG_02055" class="clusterblast-orf" id="dummy-1_q5_0_all"  />
<polygon points="102,35 107,30 121,30 121,40 107,40 102,35 " style="fill:white; stroke-width:1; stroke:black; " description="&lt;b&gt;CDDIDNMG_02056&lt;/b&gt;&lt;br&gt;hypothetical protein&lt;br&gt;Location: 3184 - 3688" locus_tag="CDDIDNMG_02056" class="clusterblast-orf" id="dummy-1_q6_0_all"  />
<polygon points="142,40 156,40 161,35 156,30 142,30 142,40 " style="fill:#15d815; stroke-width:1; stroke:black; " description="&lt;b&gt;CDDIDNMG_02057&lt;/b&gt;&lt;br&gt;50S ribosomal protein L15&lt;br&gt;Location: 4217 - 4712" locus_tag="CDDIDNMG_02057" class="clusterblast-orf" id="dummy-1_q7_0_all"  />
<polygon points="166,40 213,40 218,35 213,30 166,30 166,40 " style="fill:#1585d8; stroke-width:1; stroke:black; " description="&lt;b&gt;CDDIDNMG_02058&lt;/b&gt;&lt;br&gt;Protein translocase subunit SecY&lt;br&gt;Location: 4849 - 6190" locus_tag="CDDIDNMG_02058" class="clusterblast-orf" id="dummy-1_q8_0_all"  />
<polygon points="221,40 241,40 246,35 241,30 221,30 221,40 " style="fill:#bc15d8; stroke-width:1; stroke:black; " description="&lt;b&gt;CDDIDNMG_02059&lt;/b&gt;&lt;br&gt;Adenylate kinase&lt;br&gt;Location: 6253 - 6904" locus_tag="CDDIDNMG_02059" class="clusterblast-orf" id="dummy-1_q9_0_all"  />
<polygon points="254,40 263,40 268,35 263,30 254,30 254,40 " style="fill:#d88515; stroke-width:1; stroke:black; " description="&lt;b&gt;CDDIDNMG_02060&lt;/b&gt;&lt;br&gt;30S ribosomal protein S13&lt;br&gt;Location: 7101 - 7470" locus_tag="CDDIDNMG_02060" class="clusterblast-orf" id="dummy-1_q10_0_all"  />
<polygon points="269,40 279,40 284,35 279,30 269,30 269,40 " style="fill:#15d84d; stroke-width:1; stroke:black; " description="&lt;b&gt;CDDIDNMG_02061&lt;/b&gt;&lt;br&gt;30S ribosomal protein S11&lt;br&gt;Location: 7485 - 7881" locus_tag="CDDIDNMG_02061" class="clusterblast-orf" id="dummy-1_q11_0_all"  />
<polygon points="288,40 323,40 328,35 323,30 288,30 288,40 " style="fill:#154dd8; stroke-width:1; stroke:black; " description="&lt;b&gt;CDDIDNMG_02062&lt;/b&gt;&lt;br&gt;DNA-directed RNA polymerase subunit alpha&lt;br&gt;Location: 7995 - 9012" locus_tag="CDDIDNMG_02062" class="clusterblast-orf" id="dummy-1_q12_0_all"  />
<polygon points="333,40 345,40 350,35 345,30 333,30 333,40 " style="fill:#d815bc; stroke-width:1; stroke:black; " description="&lt;b&gt;CDDIDNMG_02063&lt;/b&gt;&lt;br&gt;50S ribosomal protein L17&lt;br&gt;Location: 9149 - 9569" locus_tag="CDDIDNMG_02063" class="clusterblast-orf" id="dummy-1_q13_0_all"  />
<polygon points="359,40 378,40 383,35 378,30 359,30 359,40 " style="fill:#d8bc15; stroke-width:1; stroke:black; " description="&lt;b&gt;CDDIDNMG_02064&lt;/b&gt;&lt;br&gt;hypothetical protein&lt;br&gt;Location: 9813 - 10425" locus_tag="CDDIDNMG_02064" class="clusterblast-orf" id="dummy-1_q14_0_all"  />
<polygon points="385,40 403,40 408,35 403,30 385,30 385,40 " style="fill:#15d885; stroke-width:1; stroke:black; " description="&lt;b&gt;CDDIDNMG_02065&lt;/b&gt;&lt;br&gt;hypothetical protein&lt;br&gt;Location: 10476 - 11067" locus_tag="CDDIDNMG_02065" class="clusterblast-orf" id="dummy-1_q15_0_all"  />
<polygon points="417,40 437,40 442,35 437,30 417,30 417,40 " style="fill:white; stroke-width:1; stroke:black; " description="&lt;b&gt;CDDIDNMG_02066&lt;/b&gt;&lt;br&gt;hypothetical protein&lt;br&gt;Location: 11307 - 11946" locus_tag="CDDIDNMG_02066" class="clusterblast-orf" id="dummy-1_q16_0_all"  />
<polygon points="449,40 495,40 500,35 495,30 449,30 449,40 " style="fill:#1515d8; stroke-width:1; stroke:black; " description="&lt;b&gt;CDDIDNMG_02067&lt;/b&gt;&lt;br&gt;Replication-associated recombination protein A&lt;br&gt;Location: 12139 - 13450" locus_tag="CDDIDNMG_02067" class="clusterblast-orf" id="dummy-1_q17_0_all"  />
<polygon points="506,40 515,40 520,35 515,30 506,30 506,40 " style="fill:#d81585; stroke-width:1; stroke:black; " description="&lt;b&gt;CDDIDNMG_02068&lt;/b&gt;&lt;br&gt;Putative fluoride ion transporter CrcB&lt;br&gt;Location: 13607 - 13958" locus_tag="CDDIDNMG_02068" class="clusterblast-orf" id="dummy-1_q18_0_all"  />
<polygon points="520,40 555,40 560,35 555,30 520,30 520,40 " style="fill:#bcd815; stroke-width:1; stroke:black; " description="&lt;b&gt;CDDIDNMG_02069&lt;/b&gt;&lt;br&gt;Ribosomal large subunit pseudouridine synthase C&lt;br&gt;Location: 13954 - 14995" locus_tag="CDDIDNMG_02069" class="clusterblast-orf" id="dummy-1_q19_0_all"  />
<polygon points="560,40 583,40 588,35 583,30 560,30 560,40 " style="fill:#15d8bc; stroke-width:1; stroke:black; " description="&lt;b&gt;CDDIDNMG_02070&lt;/b&gt;&lt;br&gt;hypothetical protein&lt;br&gt;Location: 14991 - 15699" locus_tag="CDDIDNMG_02070" class="clusterblast-orf" id="dummy-1_q20_0_all"  />
<polygon points="597,40 631,40 636,35 631,30 597,30 597,40 " style="fill:#4d15d8; stroke-width:1; stroke:black; " description="&lt;b&gt;CDDIDNMG_02071&lt;/b&gt;&lt;br&gt;Putative amino-acid ABC transporter-binding protein YhdW&lt;br&gt;Location: 15933 - 16950" locus_tag="CDDIDNMG_02071" class="clusterblast-orf" id="dummy-1_q21_0_all"  />
<polygon points="641,40 685,40 690,35 685,30 641,30 641,40 " style="fill:#d8154d; stroke-width:1; stroke:black; " description="&lt;b&gt;CDDIDNMG_02072&lt;/b&gt;&lt;br&gt;hypothetical protein&lt;br&gt;Location: 17080 - 18343" locus_tag="CDDIDNMG_02072" class="clusterblast-orf" id="dummy-1_q22_0_all"  />
<polygon points="690,40 741,40 746,35 741,30 690,30 690,40 " style="fill:#d8154d; stroke-width:1; stroke:black; " description="&lt;b&gt;CDDIDNMG_02073&lt;/b&gt;&lt;br&gt;hypothetical protein&lt;br&gt;Location: 18344 - 19787" locus_tag="CDDIDNMG_02073" class="clusterblast-orf" id="dummy-1_q23_0_all"  />
<polygon points="747,40 772,40 777,35 772,30 747,30 747,40 " style="fill:#85d815; stroke-width:1; stroke:black; " description="&lt;b&gt;CDDIDNMG_02074&lt;/b&gt;&lt;br&gt;Glutamine transport ATP-binding protein GlnQ&lt;br&gt;Location: 19803 - 20583" locus_tag="CDDIDNMG_02074" class="clusterblast-orf" id="dummy-1_q24_0_all"  />
</g>
<g label="NZ_CP039964" description="NZ_CP039964 (1135446-1156034): Pseudorhodobacter sp. S12M18 chromosome, compl... (81% of genes show similarity), hserlactone" class="clusterblast-cluster"  >
<text x="5" y="70" class="clusterblast-acc"  >
<a xlink:href="https://antismash-db.secondarymetabolites.org/area.html?record=NZ_CP039964&amp;start=1135446&amp;end=1156034" target="_blank">NZ_CP039964 (1135446-1156034)</a>: Pseudorhodobacter sp. S12M18 chromosome, compl... (81% of genes show similarity), hserlactone</text>
<line x1="10" y1="85" x2="778.0" y2="85" style="stroke-width:1; stroke:grey; "  />
</g>
<g id="a1_000"  >
<polygon points="0,90 6,90 11,85 6,80 0,80 0,90 " style="fill:white; stroke-width:1; stroke:black; " description="&lt;b&gt;EOK75_RS05480&lt;/b&gt;&lt;br&gt;50S ribosomal protein L24&lt;br&gt;Location: 1155697 - 1155392" locus_tag="EOK75_RS05480" class="clusterblast-orf" id="dummy-1_h1_4_0"  />
</g>
<g id="a1_001"  >
<polygon points="11,90 28,90 33,85 28,80 11,80 11,90 " style="fill:white; stroke-width:1; stroke:black; " description="&lt;b&gt;EOK75_RS05475&lt;/b&gt;&lt;br&gt;50S ribosomal protein L5&lt;br&gt;Location: 1155392 - 1154832" locus_tag="EOK75_RS05475" class="clusterblast-orf" id="dummy-1_h1_4_1"  />
</g>
<g id="a1_002"  >
<polygon points="34,90 41,90 46,85 41,80 34,80 34,90 " style="fill:white; stroke-width:1; stroke:black; " description="&lt;b&gt;EOK75_RS05470&lt;/b&gt;&lt;br&gt;30S ribosomal protein S14&lt;br&gt;Location: 1154814 - 1154509" locus_tag="EOK75_RS05470" class="clusterblast-orf" id="dummy-1_h1_4_2"  />
</g>
<g id="a1_003"  >
<polygon points="46,90 57,90 62,85 57,80 46,80 46,90 " style="fill:#d81515; stroke-width:1; stroke:black; " description="&lt;b&gt;EOK75_RS05465&lt;/b&gt;&lt;br&gt;30S ribosomal protein S8&lt;br&gt;Location: 1154490 - 1154098&lt;br&gt;&lt;br&gt;&lt;b&gt;BlastP hit with CDDIDNMG_02050&lt;/b&gt;&lt;br&gt;Percentage identity: 84&lt;br&gt;Percentage coverage: 98&lt;br&gt;BLAST bit score: 223&lt;br&gt;E-value: 8.35e-75" locus_tag="EOK75_RS05465" class="clusterblast-orf" id="dummy-1_h1_4_3"  />
</g>
<g id="a1_004"  >
<polygon points="62,90 78,90 83,85 78,80 62,80 62,90 " style="fill:#4dd815; stroke-width:1; stroke:black; " description="&lt;b&gt;EOK75_RS05460&lt;/b&gt;&lt;br&gt;50S ribosomal protein L6&lt;br&gt;Location: 1154087 - 1153554&lt;br&gt;&lt;br&gt;&lt;b&gt;BlastP hit with CDDIDNMG_02051&lt;/b&gt;&lt;br&gt;Percentage identity: 84&lt;br&gt;Percentage coverage: 100&lt;br&gt;BLAST bit score: 303&lt;br&gt;E-value: 7.06e-105" locus_tag="EOK75_RS05460" class="clusterblast-orf" id="dummy-1_h1_4_4"  />
</g>
<g id="a1_005"  >
<polygon points="83,90 92,90 97,85 92,80 83,80 83,90 " style="fill:#15bcd8; stroke-width:1; stroke:black; " description="&lt;b&gt;EOK75_RS05455&lt;/b&gt;&lt;br&gt;50S ribosomal protein L18&lt;br&gt;Location: 1153542 - 1153183&lt;br&gt;&lt;br&gt;&lt;b&gt;BlastP hit with CDDIDNMG_02052&lt;/b&gt;&lt;br&gt;Percentage identity: 85&lt;br&gt;Percentage coverage: 100&lt;br&gt;BLAST bit score: 194&lt;br&gt;E-value: 9.36e-64" locus_tag="EOK75_RS05455" class="clusterblast-orf" id="dummy-1_h1_4_5"  />
</g>
<g id="a1_006"  >
<polygon points="98,90 114,90 119,85 114,80 98,80 98,90 " style="fill:#8515d8; stroke-width:1; stroke:black; " description="&lt;b&gt;EOK75_RS05450&lt;/b&gt;&lt;br&gt;30S ribosomal protein S5&lt;br&gt;Location: 1153171 - 1152608&lt;br&gt;&lt;br&gt;&lt;b&gt;BlastP hit with CDDIDNMG_02053&lt;/b&gt;&lt;br&gt;Percentage identity: 87&lt;br&gt;Percentage coverage: 101&lt;br&gt;BLAST bit score: 304&lt;br&gt;E-value: 4.48e-105" locus_tag="EOK75_RS05450" class="clusterblast-orf" id="dummy-1_h1_4_6"  />
</g>
<g id="a1_007"  >
<polygon points="120,90 123,90 128,85 123,80 120,80 120,90 " style="fill:#d84d15; stroke-width:1; stroke:black; " description="&lt;b&gt;EOK75_RS05445&lt;/b&gt;&lt;br&gt;50S ribosomal protein L30&lt;br&gt;Location: 1152605 - 1152399&lt;br&gt;&lt;br&gt;&lt;b&gt;BlastP hit with CDDIDNMG_02054&lt;/b&gt;&lt;br&gt;Percentage identity: 92&lt;br&gt;Percentage coverage: 91&lt;br&gt;BLAST bit score: 104&lt;br&gt;E-value: 7.9e-30" locus_tag="EOK75_RS05445" class="clusterblast-orf" id="dummy-1_h1_4_7"  />
</g>
<g id="a1_008"  >
<polygon points="137,90 151,90 156,85 151,80 137,80 137,90 " style="fill:#15d815; stroke-width:1; stroke:black; " description="&lt;b&gt;EOK75_RS05440&lt;/b&gt;&lt;br&gt;50S ribosomal protein L15&lt;br&gt;Location: 1152151 - 1151672&lt;br&gt;&lt;br&gt;&lt;b&gt;BlastP hit with CDDIDNMG_02057&lt;/b&gt;&lt;br&gt;Percentage identity: 73&lt;br&gt;Percentage coverage: 91&lt;br&gt;BLAST bit score: 208&lt;br&gt;E-value: 6.75e-68" locus_tag="EOK75_RS05440" class="clusterblast-orf" id="dummy-1_h1_4_8"  />
</g>
<g id="a1_009"  >
<polygon points="160,90 208,90 213,85 208,80 160,80 160,90 " style="fill:#1585d8; stroke-width:1; stroke:black; " description="&lt;b&gt;EOK75_RS05435&lt;/b&gt;&lt;br&gt;preprotein translocase subunit SecY&lt;br&gt;Location: 1151559 - 1150204&lt;br&gt;&lt;br&gt;&lt;b&gt;BlastP hit with CDDIDNMG_02058&lt;/b&gt;&lt;br&gt;Percentage identity: 81&lt;br&gt;Percentage coverage: 100&lt;br&gt;BLAST bit score: 700&lt;br&gt;E-value: 4.12e-253" locus_tag="EOK75_RS05435" class="clusterblast-orf" id="dummy-1_h1_4_9"  />
</g>
<g id="a1_0010"  >
<polygon points="213,90 234,90 239,85 234,80 213,80 213,90 " style="fill:#bc15d8; stroke-width:1; stroke:black; " description="&lt;b&gt;EOK75_RS05430&lt;/b&gt;&lt;br&gt;adenylate kinase&lt;br&gt;Location: 1150194 - 1149541&lt;br&gt;&lt;br&gt;&lt;b&gt;BlastP hit with CDDIDNMG_02059&lt;/b&gt;&lt;br&gt;Percentage identity: 73&lt;br&gt;Percentage coverage: 99&lt;br&gt;BLAST bit score: 315&lt;br&gt;E-value: 1.78e-108" locus_tag="EOK75_RS05430" class="clusterblast-orf" id="dummy-1_h1_4_10"  />
</g>
<g id="a1_0011"  >
<polygon points="245,90 255,90 260,85 255,80 245,80 245,90 " style="fill:#d88515; stroke-width:1; stroke:black; " description="&lt;b&gt;EOK75_RS05425&lt;/b&gt;&lt;br&gt;30S ribosomal protein S13&lt;br&gt;Location: 1149361 - 1148993&lt;br&gt;&lt;br&gt;&lt;b&gt;BlastP hit with CDDIDNMG_02060&lt;/b&gt;&lt;br&gt;Percentage identity: 88&lt;br&gt;Percentage coverage: 100&lt;br&gt;BLAST bit score: 209&lt;br&gt;E-value: 9.28e-70" locus_tag="EOK75_RS05425" class="clusterblast-orf" id="dummy-1_h1_4_11"  />
</g>
<g id="a1_0012"  >
<polygon points="260,90 270,90 275,85 270,80 260,80 260,90 " style="fill:#15d84d; stroke-width:1; stroke:black; " description="&lt;b&gt;EOK75_RS05420&lt;/b&gt;&lt;br&gt;30S ribosomal protein S11&lt;br&gt;Location: 1148979 - 1148590&lt;br&gt;&lt;br&gt;&lt;b&gt;BlastP hit with CDDIDNMG_02061&lt;/b&gt;&lt;br&gt;Percentage identity: 90&lt;br&gt;Percentage coverage: 100&lt;br&gt;BLAST bit score: 222&lt;br&gt;E-value: 1.57e-74" locus_tag="EOK75_RS05420" class="clusterblast-orf" id="dummy-1_h1_4_12"  />
</g>
<g id="a1_0013"  >
<polygon points="280,90 315,90 320,85 315,80 280,80 280,90 " style="fill:#154dd8; stroke-width:1; stroke:black; " description="&lt;b&gt;EOK75_RS05415&lt;/b&gt;&lt;br&gt;DNA-directed RNA polymerase subunit alpha&lt;br&gt;Location: 1148470 - 1147454&lt;br&gt;&lt;br&gt;&lt;b&gt;BlastP hit with CDDIDNMG_02062&lt;/b&gt;&lt;br&gt;Percentage identity: 92&lt;br&gt;Percentage coverage: 100&lt;br&gt;BLAST bit score: 621&lt;br&gt;E-value: 2.03e-225" locus_tag="EOK75_RS05415" class="clusterblast-orf" id="dummy-1_h1_4_13"  />
</g>
<g id="a1_0014"  >
<polygon points="326,90 337,90 342,85 337,80 326,80 326,90 " style="fill:#d815bc; stroke-width:1; stroke:black; " description="&lt;b&gt;EOK75_RS05410&lt;/b&gt;&lt;br&gt;50S ribosomal protein L17&lt;br&gt;Location: 1147299 - 1146880&lt;br&gt;&lt;br&gt;&lt;b&gt;BlastP hit with CDDIDNMG_02063&lt;/b&gt;&lt;br&gt;Percentage identity: 88&lt;br&gt;Percentage coverage: 99&lt;br&gt;BLAST bit score: 239&lt;br&gt;E-value: 5.91e-81" locus_tag="EOK75_RS05410" class="clusterblast-orf" id="dummy-1_h1_4_14"  />
</g>
<g id="a1_0015"  >
<polygon points="349,90 368,90 373,85 368,80 349,80 349,90 " style="fill:#d8bc15; stroke-width:1; stroke:black; " description="&lt;b&gt;EOK75_RS05405&lt;/b&gt;&lt;br&gt;LuxR family transcriptional regulator&lt;br&gt;Location: 1146696 - 1146085&lt;br&gt;&lt;br&gt;&lt;b&gt;BlastP hit with CDDIDNMG_02064&lt;/b&gt;&lt;br&gt;Percentage identity: 57&lt;br&gt;Percentage coverage: 100&lt;br&gt;BLAST bit score: 231&lt;br&gt;E-value: 6.8e-76" locus_tag="EOK75_RS05405" class="clusterblast-orf" id="dummy-1_h1_4_15"  />
</g>
<g id="a1_0016"  >
<polygon points="375,90 392,90 397,85 392,80 375,80 375,90 " style="fill:#15d885; stroke-width:1; stroke:black; " description="&lt;b&gt;EOK75_RS05400&lt;/b&gt;&lt;br&gt;N-acyl-L-homoserine lactone synthetase&lt;br&gt;Location: 1146034 - 1145447&lt;br&gt;&lt;br&gt;&lt;b&gt;BlastP hit with CDDIDNMG_02065&lt;/b&gt;&lt;br&gt;Percentage identity: 59&lt;br&gt;Percentage coverage: 100&lt;br&gt;BLAST bit score: 228&lt;br&gt;E-value: 6.58e-75" locus_tag="EOK75_RS05400" class="clusterblast-orf" id="dummy-1_h1_4_16"  />
</g>
<g id="a1_0017"  >
<polygon points="401,90 447,90 452,85 447,80 401,80 401,90 " style="fill:#1515d8; stroke-width:1; stroke:black; " description="&lt;b&gt;EOK75_RS05395&lt;/b&gt;&lt;br&gt;replication-associated recombination protein A&lt;br&gt;Location: 1145354 - 1144047&lt;br&gt;&lt;br&gt;&lt;b&gt;BlastP hit with CDDIDNMG_02067&lt;/b&gt;&lt;br&gt;Percentage identity: 86&lt;br&gt;Percentage coverage: 99&lt;br&gt;BLAST bit score: 748&lt;br&gt;E-value: 2.01e-272" locus_tag="EOK75_RS05395" class="clusterblast-orf" id="dummy-1_h1_4_17"  />
</g>
<g id="a1_0018"  >
<polygon points="454,90 463,90 468,85 463,80 454,80 454,90 " style="fill:#d81585; stroke-width:1; stroke:black; " description="&lt;b&gt;EOK75_RS05390&lt;/b&gt;&lt;br&gt;fluoride efflux transporter CrcB&lt;br&gt;Location: 1143995 - 1143618&lt;br&gt;&lt;br&gt;&lt;b&gt;BlastP hit with CDDIDNMG_02068&lt;/b&gt;&lt;br&gt;Percentage identity: 50&lt;br&gt;Percentage coverage: 108&lt;br&gt;BLAST bit score: 98&lt;br&gt;E-value: 1.52e-25" locus_tag="EOK75_RS05390" class="clusterblast-orf" id="dummy-1_h1_4_18"  />
</g>
<g id="a1_0019"  >
<polygon points="468,90 504,90 509,85 504,80 468,80 468,90 " style="fill:#bcd815; stroke-width:1; stroke:black; " description="&lt;b&gt;EOK75_RS05385&lt;/b&gt;&lt;br&gt;RluA family pseudouridine synthase&lt;br&gt;Location: 1143621 - 1142575&lt;br&gt;&lt;br&gt;&lt;b&gt;BlastP hit with CDDIDNMG_02069&lt;/b&gt;&lt;br&gt;Percentage identity: 82&lt;br&gt;Percentage coverage: 100&lt;br&gt;BLAST bit score: 583&lt;br&gt;E-value: 4.91e-210" locus_tag="EOK75_RS05385" class="clusterblast-orf" id="dummy-1_h1_4_19"  />
</g>
<g id="a1_0020"  >
<polygon points="509,90 531,90 536,85 531,80 509,80 509,90 " style="fill:#15d8bc; stroke-width:1; stroke:black; " description="&lt;b&gt;EOK75_RS05380&lt;/b&gt;&lt;br&gt;ATPase&lt;br&gt;Location: 1142578 - 1141871&lt;br&gt;&lt;br&gt;&lt;b&gt;BlastP hit with CDDIDNMG_02070&lt;/b&gt;&lt;br&gt;Percentage identity: 60&lt;br&gt;Percentage coverage: 100&lt;br&gt;BLAST bit score: 280&lt;br&gt;E-value: 3.37e-94" locus_tag="EOK75_RS05380" class="clusterblast-orf" id="dummy-1_h1_4_20"  />
</g>
<g id="a1_0021"  >
<polygon points="545,90 580,90 585,85 580,80 545,80 545,90 " style="fill:#4d15d8; stroke-width:1; stroke:black; " description="&lt;b&gt;EOK75_RS05375&lt;/b&gt;&lt;br&gt;amino acid ABC transporter substrate-binding protein&lt;br&gt;Location: 1141637 - 1140615&lt;br&gt;&lt;br&gt;&lt;b&gt;BlastP hit with CDDIDNMG_02071&lt;/b&gt;&lt;br&gt;Percentage identity: 70&lt;br&gt;Percentage coverage: 101&lt;br&gt;BLAST bit score: 477&lt;br&gt;E-value: 1.38e-168" locus_tag="EOK75_RS05375" class="clusterblast-orf" id="dummy-1_h1_4_21"  />
</g>
<g id="a1_0022"  >
<polygon points="590,90 634,90 639,85 634,80 590,80 590,90 " style="fill:#d8154d; stroke-width:1; stroke:black; " description="&lt;b&gt;EOK75_RS05370&lt;/b&gt;&lt;br&gt;ABC transporter permease subunit&lt;br&gt;Location: 1140480 - 1139227&lt;br&gt;&lt;br&gt;&lt;b&gt;BlastP hit with CDDIDNMG_02072&lt;/b&gt;&lt;br&gt;Percentage identity: 61&lt;br&gt;Percentage coverage: 100&lt;br&gt;BLAST bit score: 477&lt;br&gt;E-value: 4.74e-166&lt;br&gt;&lt;br&gt;&lt;b&gt;BlastP hit with CDDIDNMG_02073&lt;/b&gt;&lt;br&gt;Percentage identity: 43&lt;br&gt;Percentage coverage: 18&lt;br&gt;BLAST bit score: 67&lt;br&gt;E-value: 9.26e-10" locus_tag="EOK75_RS05370" class="clusterblast-orf" id="dummy-1_h1_4_22"  />
</g>
<g id="a1_0023"  >
<polygon points="639,90 684,90 689,85 684,80 639,80 639,90 " style="fill:#d8154d; stroke-width:1; stroke:black; " description="&lt;b&gt;EOK75_RS05365&lt;/b&gt;&lt;br&gt;amino acid ABC transporter permease&lt;br&gt;Location: 1139225 - 1137936&lt;br&gt;&lt;br&gt;&lt;b&gt;BlastP hit with CDDIDNMG_02072&lt;/b&gt;&lt;br&gt;Percentage identity: 37&lt;br&gt;Percentage coverage: 28&lt;br&gt;BLAST bit score: 69&lt;br&gt;E-value: 9.72e-11&lt;br&gt;&lt;br&gt;&lt;b&gt;BlastP hit with CDDIDNMG_02073&lt;/b&gt;&lt;br&gt;Percentage identity: 55&lt;br&gt;Percentage coverage: 100&lt;br&gt;BLAST bit score: 489&lt;br&gt;E-value: 1.3e-169" locus_tag="EOK75_RS05365" class="clusterblast-orf" id="dummy-1_h1_4_23"  />
</g>
<g id="a1_0024"  >
<polygon points="690,90 715,90 720,85 715,80 690,80 690,90 " style="fill:#85d815; stroke-width:1; stroke:black; " description="&lt;b&gt;EOK75_RS05360&lt;/b&gt;&lt;br&gt;amino acid ABC transporter ATP-binding protein&lt;br&gt;Location: 1137912 - 1137133&lt;br&gt;&lt;br&gt;&lt;b&gt;BlastP hit with CDDIDNMG_02074&lt;/b&gt;&lt;br&gt;Percentage identity: 90&lt;br&gt;Percentage coverage: 100&lt;br&gt;BLAST bit score: 472&lt;br&gt;E-value: 4.4e-169" locus_tag="EOK75_RS05360" class="clusterblast-orf" id="dummy-1_h1_4_24"  />
</g>
<g id="a1_0025"  >
<polygon points="722,85 727,80 741,80 741,90 727,90 722,85 " style="fill:white; stroke-width:1; stroke:black; " description="&lt;b&gt;EOK75_RS05355&lt;/b&gt;&lt;br&gt;histidine phosphatase family protein&lt;br&gt;Location: 1137092 - 1136586" locus_tag="EOK75_RS05355" class="clusterblast-orf" id="dummy-1_h1_4_25"  />
</g>
<g id="a1_0026"  >
<polygon points="745,85 750,80 780,80 780,90 750,90 745,85 " style="fill:white; stroke-width:1; stroke:black; " description="&lt;b&gt;EOK75_RS05350&lt;/b&gt;&lt;br&gt;acetylglutamate kinase&lt;br&gt;Location: 1136506 - 1135607" locus_tag="EOK75_RS05350" class="clusterblast-orf" id="dummy-1_h1_4_26"  />
</g>
</svg>
