<svg xmlns="http://www.w3.org/2000/svg" xmlns:xlink="http://www.w3.org/1999/xlink" version="1.1" x="0" y="0" height="230" width="800" viewBox="0 0 800 230" preserveAspectRatio="none"  >
<g label="Query sequence" class="clusterblast-cluster"  >
<text x="5" y="20" class="clusterblast-acc"  >
Query sequence</text>
<line x1="10" y1="35" x2="778.0" y2="35" style="stroke-width:1; stroke:grey; "  />
<polygon points="236,35 241,30 241,30 241,40 241,40 236,35 " style="fill:white; stroke-width:1; stroke:black; " description="&lt;b&gt;CDDIDNMG_02132&lt;/b&gt;&lt;br&gt;hypothetical protein&lt;br&gt;Location: 388 - 667" locus_tag="CDDIDNMG_02132" class="clusterblast-orf" id="dummy-1_q0_0_all"  />
<polygon points="264,35 269,30 270,30 270,40 269,40 264,35 " style="fill:white; stroke-width:1; stroke:black; " description="&lt;b&gt;CDDIDNMG_02133&lt;/b&gt;&lt;br&gt;hypothetical protein&lt;br&gt;Location: 1879 - 2206" locus_tag="CDDIDNMG_02133" class="clusterblast-orf" id="dummy-1_q1_0_all"  />
<polygon points="270,35 275,30 298,30 298,40 275,40 270,35 " style="fill:white; stroke-width:1; stroke:black; " description="&lt;b&gt;CDDIDNMG_02134&lt;/b&gt;&lt;br&gt;Tyrosine recombinase XerC&lt;br&gt;Location: 2231 - 3725" locus_tag="CDDIDNMG_02134" class="clusterblast-orf" id="dummy-1_q2_0_all"  />
<polygon points="299,35 303,30 303,40 299,35 " style="fill:white; stroke-width:1; stroke:black; " description="&lt;b&gt;CDDIDNMG_02135&lt;/b&gt;&lt;br&gt;hypothetical protein&lt;br&gt;Location: 3783 - 3993" locus_tag="CDDIDNMG_02135" class="clusterblast-orf" id="dummy-1_q3_0_all"  />
<polygon points="307,40 310,40 315,35 310,30 307,30 307,40 " style="fill:#d81515; stroke-width:1; stroke:black; " description="&lt;b&gt;CDDIDNMG_02136&lt;/b&gt;&lt;br&gt;Alkaline phosphatase synthesis transcriptional regulatory protein PhoP&lt;br&gt;Location: 4231 - 4633" locus_tag="CDDIDNMG_02136" class="clusterblast-orf" id="dummy-1_q4_0_all"  />
<polygon points="316,35 321,30 342,30 342,40 321,40 316,35 " style="fill:#77d815; stroke-width:1; stroke:black; " description="&lt;b&gt;CDDIDNMG_02137&lt;/b&gt;&lt;br&gt;Sensor histidine kinase RcsC&lt;br&gt;Location: 4688 - 6116" locus_tag="CDDIDNMG_02137" class="clusterblast-orf" id="dummy-1_q5_0_all"  />
<polygon points="346,40 354,40 359,35 354,30 346,30 346,40 " style="fill:#15d8d8; stroke-width:1; stroke:black; " description="&lt;b&gt;CDDIDNMG_02138&lt;/b&gt;&lt;br&gt;hypothetical protein&lt;br&gt;Location: 6310 - 7033" locus_tag="CDDIDNMG_02138" class="clusterblast-orf" id="dummy-1_q6_0_all"  />
<polygon points="370,35 373,30 373,40 370,35 " style="fill:#7715d8; stroke-width:1; stroke:black; " description="&lt;b&gt;CDDIDNMG_02139&lt;/b&gt;&lt;br&gt;hypothetical protein&lt;br&gt;Location: 7619 - 7784" locus_tag="CDDIDNMG_02139" class="clusterblast-orf" id="dummy-1_q7_0_all"  />
<polygon points="373,35 378,30 386,30 386,40 378,40 373,35 " style="fill:#d87715; stroke-width:1; stroke:black; " description="&lt;b&gt;CDDIDNMG_02140&lt;/b&gt;&lt;br&gt;hypothetical protein&lt;br&gt;Location: 7787 - 8489" locus_tag="CDDIDNMG_02140" class="clusterblast-orf" id="dummy-1_q8_0_all"  />
<polygon points="389,40 393,35 389,30 389,40 " style="fill:white; stroke-width:1; stroke:black; " description="&lt;b&gt;CDDIDNMG_02141&lt;/b&gt;&lt;br&gt;hypothetical protein&lt;br&gt;Location: 8608 - 8866" locus_tag="CDDIDNMG_02141" class="clusterblast-orf" id="dummy-1_q9_0_all"  />
<polygon points="393,40 397,35 393,30 393,40 " style="fill:white; stroke-width:1; stroke:black; " description="&lt;b&gt;CDDIDNMG_02142&lt;/b&gt;&lt;br&gt;hypothetical protein&lt;br&gt;Location: 8862 - 9039" locus_tag="CDDIDNMG_02142" class="clusterblast-orf" id="dummy-1_q10_0_all"  />
<polygon points="397,40 398,40 403,35 398,30 397,30 397,40 " style="fill:white; stroke-width:1; stroke:black; " description="&lt;b&gt;CDDIDNMG_02143&lt;/b&gt;&lt;br&gt;hypothetical protein&lt;br&gt;Location: 9056 - 9389" locus_tag="CDDIDNMG_02143" class="clusterblast-orf" id="dummy-1_q11_0_all"  />
<polygon points="403,40 414,40 419,35 414,30 403,30 403,40 " style="fill:#15d815; stroke-width:1; stroke:black; " description="&lt;b&gt;CDDIDNMG_02144&lt;/b&gt;&lt;br&gt;hypothetical protein&lt;br&gt;Location: 9414 - 10278" locus_tag="CDDIDNMG_02144" class="clusterblast-orf" id="dummy-1_q12_0_all"  />
<polygon points="419,40 455,40 460,35 455,30 419,30 419,40 " style="fill:#1577d8; stroke-width:1; stroke:black; " description="&lt;b&gt;CDDIDNMG_02145&lt;/b&gt;&lt;br&gt;hypothetical protein&lt;br&gt;Location: 10274 - 12440" locus_tag="CDDIDNMG_02145" class="clusterblast-orf" id="dummy-1_q13_0_all"  />
<polygon points="461,40 470,40 475,35 470,30 461,30 461,40 " style="fill:#d815d8; stroke-width:1; stroke:black; " description="&lt;b&gt;CDDIDNMG_02146&lt;/b&gt;&lt;br&gt;hypothetical protein&lt;br&gt;Location: 12498 - 13284" locus_tag="CDDIDNMG_02146" class="clusterblast-orf" id="dummy-1_q14_0_all"  />
<polygon points="475,40 481,40 486,35 481,30 475,30 475,40 " style="fill:#d8d815; stroke-width:1; stroke:black; " description="&lt;b&gt;CDDIDNMG_02147&lt;/b&gt;&lt;br&gt;hypothetical protein&lt;br&gt;Location: 13280 - 13847" locus_tag="CDDIDNMG_02147" class="clusterblast-orf" id="dummy-1_q15_0_all"  />
<polygon points="486,40 487,40 492,35 487,30 486,30 486,40 " style="fill:#15d877; stroke-width:1; stroke:black; " description="&lt;b&gt;CDDIDNMG_02148&lt;/b&gt;&lt;br&gt;hypothetical protein&lt;br&gt;Location: 13843 - 14215" locus_tag="CDDIDNMG_02148" class="clusterblast-orf" id="dummy-1_q16_0_all"  />
<polygon points="492,40 496,35 492,30 492,40 " style="fill:white; stroke-width:1; stroke:black; " description="&lt;b&gt;CDDIDNMG_02149&lt;/b&gt;&lt;br&gt;hypothetical protein&lt;br&gt;Location: 14211 - 14430" locus_tag="CDDIDNMG_02149" class="clusterblast-orf" id="dummy-1_q17_0_all"  />
<polygon points="496,40 504,40 509,35 504,30 496,30 496,40 " style="fill:#1515d8; stroke-width:1; stroke:black; " description="&lt;b&gt;CDDIDNMG_02150&lt;/b&gt;&lt;br&gt;hypothetical protein&lt;br&gt;Location: 14431 - 15082" locus_tag="CDDIDNMG_02150" class="clusterblast-orf" id="dummy-1_q18_0_all"  />
<polygon points="509,40 512,40 517,35 512,30 509,30 509,40 " style="fill:#d81577; stroke-width:1; stroke:black; " description="&lt;b&gt;CDDIDNMG_02151&lt;/b&gt;&lt;br&gt;hypothetical protein&lt;br&gt;Location: 15110 - 15554" locus_tag="CDDIDNMG_02151" class="clusterblast-orf" id="dummy-1_q19_0_all"  />
<polygon points="517,40 519,40 524,35 519,30 517,30 517,40 " style="fill:white; stroke-width:1; stroke:black; " description="&lt;b&gt;CDDIDNMG_02152&lt;/b&gt;&lt;br&gt;hypothetical protein&lt;br&gt;Location: 15550 - 15922" locus_tag="CDDIDNMG_02152" class="clusterblast-orf" id="dummy-1_q20_0_all"  />
<polygon points="526,40 538,40 543,35 538,30 526,30 526,40 " style="fill:white; stroke-width:1; stroke:black; " description="&lt;b&gt;CDDIDNMG_02153&lt;/b&gt;&lt;br&gt;hypothetical protein&lt;br&gt;Location: 16023 - 16953" locus_tag="CDDIDNMG_02153" class="clusterblast-orf" id="dummy-1_q21_0_all"  />
</g>
<g label="NZ_KI421507" description="NZ_KI421507 (2216501-2259285): Pseudophaeobacter arcticus DSM 23566 Phaar neu... (15% of genes show similarity), NRPS-like" class="clusterblast-cluster"  >
<text x="5" y="70" class="clusterblast-acc"  >
<a xlink:href="https://antismash-db.secondarymetabolites.org/area.html?record=NZ_KI421507&amp;start=2216501&amp;end=2259285" target="_blank">NZ_KI421507 (2216501-2259285)</a>: Pseudophaeobacter arcticus DSM 23566 Phaar neu... (15% of genes show similarity), NRPS-like</text>
<line x1="10" y1="85" x2="778.0" y2="85" style="stroke-width:1; stroke:grey; "  />
</g>
<g id="a1_000"  >
<polygon points="0,90 13,90 18,85 13,80 0,80 0,90 " style="fill:white; stroke-width:1; stroke:black; " description="&lt;b&gt;ARCT_RS27585&lt;/b&gt;&lt;br&gt;hypothetical protein&lt;br&gt;Location: 2216705 - 2217691" locus_tag="ARCT_RS27585" class="clusterblast-orf" id="dummy-1_h1_6_0"  />
</g>
<g id="a1_001"  >
<polygon points="18,85 23,80 28,80 28,90 23,90 18,85 " style="fill:white; stroke-width:1; stroke:black; " description="&lt;b&gt;ARCT_RS28040&lt;/b&gt;&lt;br&gt;hypothetical protein&lt;br&gt;Location: 2217697 - 2218254" locus_tag="ARCT_RS28040" class="clusterblast-orf" id="dummy-1_h1_6_1"  />
</g>
<g id="a1_002"  >
<polygon points="31,90 35,85 31,80 31,90 " style="fill:white; stroke-width:1; stroke:black; " description="&lt;b&gt;ARCT_RS27590&lt;/b&gt;&lt;br&gt;Com family DNA-binding transcriptional regulator&lt;br&gt;Location: 2218424 - 2218633" locus_tag="ARCT_RS27590" class="clusterblast-orf" id="dummy-1_h1_6_2"  />
</g>
<g id="a1_003"  >
<polygon points="35,90 44,90 49,85 44,80 35,80 35,90 " style="fill:white; stroke-width:1; stroke:black; " description="&lt;b&gt;ARCT_RS0114800&lt;/b&gt;&lt;br&gt;site-specific DNA-methyltransferase&lt;br&gt;Location: 2218605 - 2219354" locus_tag="ARCT_RS0114800" class="clusterblast-orf" id="dummy-1_h1_6_3"  />
</g>
<g id="a1_004"  >
<polygon points="56,90 65,90 70,85 65,80 56,80 56,90 " style="fill:white; stroke-width:1; stroke:black; " description="&lt;b&gt;ARCT_RS0114805&lt;/b&gt;&lt;br&gt;class I SAM-dependent methyltransferase&lt;br&gt;Location: 2219767 - 2220525" locus_tag="ARCT_RS0114805" class="clusterblast-orf" id="dummy-1_h1_6_4"  />
</g>
<g id="a1_005"  >
<polygon points="74,90 81,90 86,85 81,80 74,80 74,90 " style="fill:white; stroke-width:1; stroke:black; " description="&lt;b&gt;ARCT_RS0114810&lt;/b&gt;&lt;br&gt;RNA ligase family protein&lt;br&gt;Location: 2220736 - 2221365" locus_tag="ARCT_RS0114810" class="clusterblast-orf" id="dummy-1_h1_6_5"  />
</g>
<g id="a1_006"  >
<polygon points="94,85 99,80 102,80 102,90 99,90 94,85 " style="fill:white; stroke-width:1; stroke:black; " description="&lt;b&gt;ARCT_RS0114815&lt;/b&gt;&lt;br&gt;hypothetical protein&lt;br&gt;Location: 2221791 - 2222216" locus_tag="ARCT_RS0114815" class="clusterblast-orf" id="dummy-1_h1_6_6"  />
</g>
<g id="a1_007"  >
<polygon points="106,85 111,80 121,80 121,90 111,90 106,85 " style="fill:white; stroke-width:1; stroke:black; " description="&lt;b&gt;ARCT_RS0114820&lt;/b&gt;&lt;br&gt;SDR family oxidoreductase&lt;br&gt;Location: 2222468 - 2223235" locus_tag="ARCT_RS0114820" class="clusterblast-orf" id="dummy-1_h1_6_7"  />
</g>
<g id="a1_008"  >
<polygon points="121,85 126,80 131,80 131,90 126,90 121,85 " style="fill:white; stroke-width:1; stroke:black; " description="&lt;b&gt;ARCT_RS0114825&lt;/b&gt;&lt;br&gt;YceI family protein&lt;br&gt;Location: 2223248 - 2223802" locus_tag="ARCT_RS0114825" class="clusterblast-orf" id="dummy-1_h1_6_8"  />
</g>
<g id="a1_009"  >
<polygon points="131,85 136,80 143,80 143,90 136,90 131,85 " style="fill:white; stroke-width:1; stroke:black; " description="&lt;b&gt;ARCT_RS26190&lt;/b&gt;&lt;br&gt;cytochrome b&lt;br&gt;Location: 2223792 - 2224418" locus_tag="ARCT_RS26190" class="clusterblast-orf" id="dummy-1_h1_6_9"  />
</g>
<g id="a1_0010"  >
<polygon points="143,85 148,80 155,80 155,90 148,90 143,85 " style="fill:white; stroke-width:1; stroke:black; " description="&lt;b&gt;ARCT_RS27150&lt;/b&gt;&lt;br&gt;polyisoprenoid-binding protein&lt;br&gt;Location: 2224423 - 2225091" locus_tag="ARCT_RS27150" class="clusterblast-orf" id="dummy-1_h1_6_10"  />
</g>
<g id="a1_0011"  >
<polygon points="156,85 161,80 168,80 168,90 161,90 156,85 " style="fill:white; stroke-width:1; stroke:black; " description="&lt;b&gt;ARCT_RS26200&lt;/b&gt;&lt;br&gt;NAD(P)H-dependent oxidoreductase&lt;br&gt;Location: 2225131 - 2225781" locus_tag="ARCT_RS26200" class="clusterblast-orf" id="dummy-1_h1_6_11"  />
</g>
<g id="a1_0012"  >
<polygon points="170,90 181,90 186,85 181,80 170,80 170,90 " style="fill:white; stroke-width:1; stroke:black; " description="&lt;b&gt;ARCT_RS0114845&lt;/b&gt;&lt;br&gt;LysR family transcriptional regulator&lt;br&gt;Location: 2225888 - 2226787" locus_tag="ARCT_RS0114845" class="clusterblast-orf" id="dummy-1_h1_6_12"  />
</g>
<g id="a1_0013"  >
<polygon points="192,85 197,80 215,80 215,90 197,90 192,85 " style="fill:white; stroke-width:1; stroke:black; " description="&lt;b&gt;ARCT_RS0114850&lt;/b&gt;&lt;br&gt;IS3 family transposase&lt;br&gt;Location: 2227066 - 2228322" locus_tag="ARCT_RS0114850" class="clusterblast-orf" id="dummy-1_h1_6_13"  />
</g>
<g id="a1_0014"  >
<polygon points="222,90 239,90 244,85 239,80 222,80 222,90 " style="fill:white; stroke-width:1; stroke:black; " description="&lt;b&gt;ARCT_RS0114865&lt;/b&gt;&lt;br&gt;site-specific integrase&lt;br&gt;Location: 2228720 - 2229871" locus_tag="ARCT_RS0114865" class="clusterblast-orf" id="dummy-1_h1_6_14"  />
</g>
<g id="a1_0015"  >
<polygon points="251,90 266,90 271,85 266,80 251,80 251,90 " style="fill:white; stroke-width:1; stroke:black; " description="&lt;b&gt;ARCT_RS26210&lt;/b&gt;&lt;br&gt;IS630 family transposase&lt;br&gt;Location: 2230279 - 2231370" locus_tag="ARCT_RS26210" class="clusterblast-orf" id="dummy-1_h1_6_15"  />
</g>
<g id="a1_0016"  >
<polygon points="273,90 282,90 287,85 282,80 273,80 273,90 " style="fill:white; stroke-width:1; stroke:black; " description="&lt;b&gt;ARCT_RS0114875&lt;/b&gt;&lt;br&gt;transglutaminase family protein&lt;br&gt;Location: 2231433 - 2232188" locus_tag="ARCT_RS0114875" class="clusterblast-orf" id="dummy-1_h1_6_16"  />
</g>
<g id="a1_0017"  >
<polygon points="286,90 298,90 303,85 298,80 286,80 286,90 " style="fill:white; stroke-width:1; stroke:black; " description="&lt;b&gt;ARCT_RS0114880&lt;/b&gt;&lt;br&gt;cation transporter&lt;br&gt;Location: 2232178 - 2233095" locus_tag="ARCT_RS0114880" class="clusterblast-orf" id="dummy-1_h1_6_17"  />
</g>
<g id="a1_0018"  >
<polygon points="305,90 320,90 325,85 320,80 305,80 305,90 " style="fill:white; stroke-width:1; stroke:black; " description="&lt;b&gt;ARCT_RS26215&lt;/b&gt;&lt;br&gt;IS630 family transposase&lt;br&gt;Location: 2233173 - 2234264" locus_tag="ARCT_RS26215" class="clusterblast-orf" id="dummy-1_h1_6_18"  />
</g>
<g id="a1_0019"  >
<polygon points="326,90 336,90 341,85 336,80 326,80 326,90 " style="fill:white; stroke-width:1; stroke:black; " description="&lt;b&gt;ARCT_RS0114890&lt;/b&gt;&lt;br&gt;hypothetical protein&lt;br&gt;Location: 2234307 - 2235140" locus_tag="ARCT_RS0114890" class="clusterblast-orf" id="dummy-1_h1_6_19"  />
</g>
<g id="a1_0020"  >
<polygon points="353,90 362,90 367,85 362,80 353,80 353,90 " style="fill:white; stroke-width:1; stroke:black; " description="&lt;b&gt;ARCT_RS0114895&lt;/b&gt;&lt;br&gt;SDR family NAD(P)-dependent oxidoreductase&lt;br&gt;Location: 2235756 - 2236529" locus_tag="ARCT_RS0114895" class="clusterblast-orf" id="dummy-1_h1_6_20"  />
</g>
<g id="a1_0021"  >
<polygon points="367,85 372,80 418,80 418,90 372,90 367,85 " style="fill:white; stroke-width:1; stroke:black; " description="&lt;b&gt;ARCT_RS0114900&lt;/b&gt;&lt;br&gt;AMP-binding protein&lt;br&gt;Location: 2236502 - 2239285" locus_tag="ARCT_RS0114900" class="clusterblast-orf" id="dummy-1_h1_6_21"  />
</g>
<g id="a1_0022"  >
<polygon points="426,85 431,80 439,80 439,90 431,90 426,85 " style="fill:white; stroke-width:1; stroke:black; " description="&lt;b&gt;ARCT_RS0114905&lt;/b&gt;&lt;br&gt;hypothetical protein&lt;br&gt;Location: 2239693 - 2240412" locus_tag="ARCT_RS0114905" class="clusterblast-orf" id="dummy-1_h1_6_22"  />
</g>
<g id="a1_0023"  >
<polygon points="449,90 453,85 449,80 449,90 " style="fill:#7715d8; stroke-width:1; stroke:black; " description="&lt;b&gt;ARCT_RS28270&lt;/b&gt;&lt;br&gt;hypothetical protein&lt;br&gt;Location: 2240940 - 2241167&lt;br&gt;&lt;br&gt;&lt;b&gt;BlastP hit with CDDIDNMG_02139&lt;/b&gt;&lt;br&gt;Percentage identity: 53&lt;br&gt;Percentage coverage: 87&lt;br&gt;BLAST bit score: 49&lt;br&gt;E-value: 7.18e-08" locus_tag="ARCT_RS28270" class="clusterblast-orf" id="dummy-1_h1_6_23"  />
</g>
<g id="a1_0024"  >
<polygon points="466,85 471,80 476,80 476,90 471,90 466,85 " style="fill:white; stroke-width:1; stroke:black; " description="&lt;b&gt;ARCT_RS28045&lt;/b&gt;&lt;br&gt;hypothetical protein&lt;br&gt;Location: 2241849 - 2242409" locus_tag="ARCT_RS28045" class="clusterblast-orf" id="dummy-1_h1_6_24"  />
</g>
<g id="a1_0025"  >
<polygon points="479,90 487,90 492,85 487,80 479,80 479,90 " style="fill:white; stroke-width:1; stroke:black; " description="&lt;b&gt;ARCT_RS0114925&lt;/b&gt;&lt;br&gt;hypothetical protein&lt;br&gt;Location: 2242572 - 2243258" locus_tag="ARCT_RS0114925" class="clusterblast-orf" id="dummy-1_h1_6_25"  />
</g>
<g id="a1_0026"  >
<polygon points="508,85 513,80 528,80 528,90 513,90 508,85 " style="fill:white; stroke-width:1; stroke:black; " description="&lt;b&gt;ARCT_RS27155&lt;/b&gt;&lt;br&gt;zinc-ribbon domain-containing protein&lt;br&gt;Location: 2244134 - 2245231" locus_tag="ARCT_RS27155" class="clusterblast-orf" id="dummy-1_h1_6_26"  />
</g>
<g id="a1_0027"  >
<polygon points="536,85 541,80 553,80 553,90 541,90 536,85 " style="fill:white; stroke-width:1; stroke:black; " description="&lt;b&gt;ARCT_RS26230&lt;/b&gt;&lt;br&gt;hypothetical protein&lt;br&gt;Location: 2245643 - 2246575" locus_tag="ARCT_RS26230" class="clusterblast-orf" id="dummy-1_h1_6_27"  />
</g>
<g id="a1_0028"  >
<polygon points="566,85 571,80 581,80 581,90 571,90 566,85 " style="fill:#d87715; stroke-width:1; stroke:black; " description="&lt;b&gt;ARCT_RS27160&lt;/b&gt;&lt;br&gt;hypothetical protein&lt;br&gt;Location: 2247246 - 2248064&lt;br&gt;&lt;br&gt;&lt;b&gt;BlastP hit with CDDIDNMG_02140&lt;/b&gt;&lt;br&gt;Percentage identity: 35&lt;br&gt;Percentage coverage: 74&lt;br&gt;BLAST bit score: 96&lt;br&gt;E-value: 9.36e-22" locus_tag="ARCT_RS27160" class="clusterblast-orf" id="dummy-1_h1_6_28"  />
</g>
<g id="a1_0029"  >
<polygon points="582,90 582,90 587,85 582,80 582,80 582,90 " style="fill:white; stroke-width:1; stroke:black; " description="&lt;b&gt;ARCT_RS0114950&lt;/b&gt;&lt;br&gt;hypothetical protein&lt;br&gt;Location: 2248102 - 2248386" locus_tag="ARCT_RS0114950" class="clusterblast-orf" id="dummy-1_h1_6_29"  />
</g>
<g id="a1_0030"  >
<polygon points="591,90 596,90 601,85 596,80 591,80 591,90 " style="fill:white; stroke-width:1; stroke:black; " description="&lt;b&gt;ARCT_RS28055&lt;/b&gt;&lt;br&gt;hypothetical protein&lt;br&gt;Location: 2248626 - 2249123" locus_tag="ARCT_RS28055" class="clusterblast-orf" id="dummy-1_h1_6_30"  />
</g>
<g id="a1_0031"  >
<polygon points="601,90 602,90 607,85 602,80 601,80 601,90 " style="fill:white; stroke-width:1; stroke:black; " description="&lt;b&gt;ARCT_RS0114960&lt;/b&gt;&lt;br&gt;hypothetical protein&lt;br&gt;Location: 2249144 - 2249476" locus_tag="ARCT_RS0114960" class="clusterblast-orf" id="dummy-1_h1_6_31"  />
</g>
<g id="a1_0032"  >
<polygon points="607,90 608,90 613,85 608,80 607,80 607,90 " style="fill:white; stroke-width:1; stroke:black; " description="&lt;b&gt;ARCT_RS0114965&lt;/b&gt;&lt;br&gt;hypothetical protein&lt;br&gt;Location: 2249473 - 2249775" locus_tag="ARCT_RS0114965" class="clusterblast-orf" id="dummy-1_h1_6_32"  />
</g>
<g id="a1_0033"  >
<polygon points="613,90 627,90 632,85 627,80 613,80 613,90 " style="fill:#15d815; stroke-width:1; stroke:black; " description="&lt;b&gt;ARCT_RS26240&lt;/b&gt;&lt;br&gt;ParB N-terminal domain-containing protein&lt;br&gt;Location: 2249775 - 2250791&lt;br&gt;&lt;br&gt;&lt;b&gt;BlastP hit with CDDIDNMG_02144&lt;/b&gt;&lt;br&gt;Percentage identity: 38&lt;br&gt;Percentage coverage: 98&lt;br&gt;BLAST bit score: 160&lt;br&gt;E-value: 6.06e-45" locus_tag="ARCT_RS26240" class="clusterblast-orf" id="dummy-1_h1_6_33"  />
</g>
<g id="a1_0034"  >
<polygon points="631,90 666,90 671,85 666,80 631,80 631,90 " style="fill:#1577d8; stroke-width:1; stroke:black; " description="&lt;b&gt;ARCT_RS26245&lt;/b&gt;&lt;br&gt;Mu transposase C-terminal domain-containing protein&lt;br&gt;Location: 2250788 - 2252920&lt;br&gt;&lt;br&gt;&lt;b&gt;BlastP hit with CDDIDNMG_02145&lt;/b&gt;&lt;br&gt;Percentage identity: 46&lt;br&gt;Percentage coverage: 98&lt;br&gt;BLAST bit score: 596&lt;br&gt;E-value: 7.82e-204" locus_tag="ARCT_RS26245" class="clusterblast-orf" id="dummy-1_h1_6_34"  />
</g>
<g id="a1_0035"  >
<polygon points="672,90 681,90 686,85 681,80 672,80 672,90 " style="fill:#d815d8; stroke-width:1; stroke:black; " description="&lt;b&gt;ARCT_RS26250&lt;/b&gt;&lt;br&gt;ATP-binding protein&lt;br&gt;Location: 2252987 - 2253733&lt;br&gt;&lt;br&gt;&lt;b&gt;BlastP hit with CDDIDNMG_02146&lt;/b&gt;&lt;br&gt;Percentage identity: 34&lt;br&gt;Percentage coverage: 92&lt;br&gt;BLAST bit score: 135&lt;br&gt;E-value: 9.13e-37" locus_tag="ARCT_RS26250" class="clusterblast-orf" id="dummy-1_h1_6_35"  />
</g>
<g id="a1_0036"  >
<polygon points="686,90 697,90 702,85 697,80 686,80 686,90 " style="fill:white; stroke-width:1; stroke:black; " description="&lt;b&gt;ARCT_RS0114985&lt;/b&gt;&lt;br&gt;hypothetical protein&lt;br&gt;Location: 2253733 - 2254608" locus_tag="ARCT_RS0114985" class="clusterblast-orf" id="dummy-1_h1_6_36"  />
</g>
<g id="a1_0037"  >
<polygon points="702,90 704,90 709,85 704,80 702,80 702,90 " style="fill:white; stroke-width:1; stroke:black; " description="&lt;b&gt;ARCT_RS0114990&lt;/b&gt;&lt;br&gt;hypothetical protein&lt;br&gt;Location: 2254605 - 2254979" locus_tag="ARCT_RS0114990" class="clusterblast-orf" id="dummy-1_h1_6_37"  />
</g>
<g id="a1_0038"  >
<polygon points="711,90 719,90 724,85 719,80 711,80 711,90 " style="fill:#1515d8; stroke-width:1; stroke:black; " description="&lt;b&gt;ARCT_RS0114995&lt;/b&gt;&lt;br&gt;DUF3164 family protein&lt;br&gt;Location: 2255082 - 2255759&lt;br&gt;&lt;br&gt;&lt;b&gt;BlastP hit with CDDIDNMG_02150&lt;/b&gt;&lt;br&gt;Percentage identity: 68&lt;br&gt;Percentage coverage: 97&lt;br&gt;BLAST bit score: 282&lt;br&gt;E-value: 2.86e-95" locus_tag="ARCT_RS0114995" class="clusterblast-orf" id="dummy-1_h1_6_38"  />
</g>
<g id="a1_0039"  >
<polygon points="724,90 724,90 729,85 724,80 724,80 724,90 " style="fill:white; stroke-width:1; stroke:black; " description="&lt;b&gt;ARCT_RS0115000&lt;/b&gt;&lt;br&gt;hypothetical protein&lt;br&gt;Location: 2255772 - 2256026" locus_tag="ARCT_RS0115000" class="clusterblast-orf" id="dummy-1_h1_6_39"  />
</g>
<g id="a1_0040"  >
<polygon points="729,90 732,90 737,85 732,80 729,80 729,90 " style="fill:#d81577; stroke-width:1; stroke:black; " description="&lt;b&gt;ARCT_RS0115005&lt;/b&gt;&lt;br&gt;regulatory protein GemA&lt;br&gt;Location: 2256026 - 2256478&lt;br&gt;&lt;br&gt;&lt;b&gt;BlastP hit with CDDIDNMG_02151&lt;/b&gt;&lt;br&gt;Percentage identity: 49&lt;br&gt;Percentage coverage: 95&lt;br&gt;BLAST bit score: 122&lt;br&gt;E-value: 2.77e-34" locus_tag="ARCT_RS0115005" class="clusterblast-orf" id="dummy-1_h1_6_40"  />
</g>
<g id="a1_0041"  >
<polygon points="737,90 739,90 744,85 739,80 737,80 737,90 " style="fill:white; stroke-width:1; stroke:black; " description="&lt;b&gt;ARCT_RS0115010&lt;/b&gt;&lt;br&gt;helix-turn-helix domain-containing protein&lt;br&gt;Location: 2256475 - 2256870" locus_tag="ARCT_RS0115010" class="clusterblast-orf" id="dummy-1_h1_6_41"  />
</g>
<g id="a1_0042"  >
<polygon points="746,90 752,90 757,85 752,80 746,80 746,90 " style="fill:white; stroke-width:1; stroke:black; " description="&lt;b&gt;ARCT_RS0115015&lt;/b&gt;&lt;br&gt;N-acetylmuramidase&lt;br&gt;Location: 2256953 - 2257564" locus_tag="ARCT_RS0115015" class="clusterblast-orf" id="dummy-1_h1_6_42"  />
</g>
<g id="a1_0043"  >
<polygon points="757,90 763,90 768,85 763,80 757,80 757,90 " style="fill:white; stroke-width:1; stroke:black; " description="&lt;b&gt;ARCT_RS0115020&lt;/b&gt;&lt;br&gt;carboxylesterase&lt;br&gt;Location: 2257555 - 2258136" locus_tag="ARCT_RS0115020" class="clusterblast-orf" id="dummy-1_h1_6_43"  />
</g>
<g id="a1_0044"  >
<polygon points="768,90 769,90 774,85 769,80 768,80 768,90 " style="fill:white; stroke-width:1; stroke:black; " description="&lt;b&gt;ARCT_RS0115025&lt;/b&gt;&lt;br&gt;DUF2730 family protein&lt;br&gt;Location: 2258127 - 2258465" locus_tag="ARCT_RS0115025" class="clusterblast-orf" id="dummy-1_h1_6_44"  />
</g>
<g id="a1_0045"  >
<polygon points="774,90 775,90 780,85 775,80 774,80 774,90 " style="fill:white; stroke-width:1; stroke:black; " description="&lt;b&gt;ARCT_RS0115030&lt;/b&gt;&lt;br&gt;hypothetical protein&lt;br&gt;Location: 2258472 - 2258771" locus_tag="ARCT_RS0115030" class="clusterblast-orf" id="dummy-1_h1_6_45"  />
</g>
</svg>
