<svg xmlns="http://www.w3.org/2000/svg" xmlns:xlink="http://www.w3.org/1999/xlink" version="1.1" x="0" y="0" height="230" width="800" viewBox="0 0 800 230" preserveAspectRatio="none"  >
<g label="Query sequence" class="clusterblast-cluster"  >
<text x="5" y="20" class="clusterblast-acc"  >
Query sequence</text>
<line x1="10" y1="35" x2="778.0" y2="35" style="stroke-width:1; stroke:grey; "  />
<polygon points="7,40 24,40 29,35 24,30 7,30 7,40 " style="fill:#d81515; stroke-width:1; stroke:black; " description="&lt;b&gt;CDDIDNMG_02845&lt;/b&gt;&lt;br&gt;hypothetical protein&lt;br&gt;Location: 193131 - 193689" locus_tag="CDDIDNMG_02845" class="clusterblast-orf" id="dummy-1_q0_0_all"  />
<polygon points="28,40 31,40 36,35 31,30 28,30 28,40 " style="fill:#63d815; stroke-width:1; stroke:black; " description="&lt;b&gt;CDDIDNMG_02846&lt;/b&gt;&lt;br&gt;hypothetical protein&lt;br&gt;Location: 193688 - 193892" locus_tag="CDDIDNMG_02846" class="clusterblast-orf" id="dummy-1_q1_0_all"  />
<polygon points="38,40 73,40 78,35 73,30 38,30 38,40 " style="fill:#15b1d8; stroke-width:1; stroke:black; " description="&lt;b&gt;CDDIDNMG_02847&lt;/b&gt;&lt;br&gt;Mesaconyl-CoA hydratase&lt;br&gt;Location: 193927 - 194962" locus_tag="CDDIDNMG_02847" class="clusterblast-orf" id="dummy-1_q2_0_all"  />
<polygon points="81,40 106,40 111,35 106,30 81,30 81,40 " style="fill:white; stroke-width:1; stroke:black; " description="&lt;b&gt;CDDIDNMG_02848&lt;/b&gt;&lt;br&gt;hypothetical protein&lt;br&gt;Location: 195028 - 195790" locus_tag="CDDIDNMG_02848" class="clusterblast-orf" id="dummy-1_q3_0_all"  />
<polygon points="120,40 130,40 135,35 130,30 120,30 120,40 " style="fill:#b115d8; stroke-width:1; stroke:black; " description="&lt;b&gt;CDDIDNMG_02849&lt;/b&gt;&lt;br&gt;Succinate dehydrogenase cytochrome b556 subunit&lt;br&gt;Location: 196010 - 196394" locus_tag="CDDIDNMG_02849" class="clusterblast-orf" id="dummy-1_q4_0_all"  />
<polygon points="135,40 145,40 150,35 145,30 135,30 135,40 " style="fill:#d86315; stroke-width:1; stroke:black; " description="&lt;b&gt;CDDIDNMG_02850&lt;/b&gt;&lt;br&gt;hypothetical protein&lt;br&gt;Location: 196404 - 196776" locus_tag="CDDIDNMG_02850" class="clusterblast-orf" id="dummy-1_q5_0_all"  />
<polygon points="150,40 216,40 221,35 216,30 150,30 150,40 " style="fill:#15d815; stroke-width:1; stroke:black; " description="&lt;b&gt;CDDIDNMG_02851&lt;/b&gt;&lt;br&gt;Succinate dehydrogenase flavoprotein subunit&lt;br&gt;Location: 196785 - 198588" locus_tag="CDDIDNMG_02851" class="clusterblast-orf" id="dummy-1_q6_0_all"  />
<polygon points="221,40 232,40 237,35 232,30 221,30 221,40 " style="fill:white; stroke-width:1; stroke:black; " description="&lt;b&gt;CDDIDNMG_02852&lt;/b&gt;&lt;br&gt;hypothetical protein&lt;br&gt;Location: 198587 - 198992" locus_tag="CDDIDNMG_02852" class="clusterblast-orf" id="dummy-1_q7_0_all"  />
<polygon points="236,40 244,40 249,35 244,30 236,30 236,40 " style="fill:#1563d8; stroke-width:1; stroke:black; " description="&lt;b&gt;CDDIDNMG_02853&lt;/b&gt;&lt;br&gt;hypothetical protein&lt;br&gt;Location: 198972 - 199305" locus_tag="CDDIDNMG_02853" class="clusterblast-orf" id="dummy-1_q8_0_all"  />
<polygon points="249,40 256,40 261,35 256,30 249,30 249,40 " style="fill:white; stroke-width:1; stroke:black; " description="&lt;b&gt;CDDIDNMG_02854&lt;/b&gt;&lt;br&gt;hypothetical protein&lt;br&gt;Location: 199308 - 199605" locus_tag="CDDIDNMG_02854" class="clusterblast-orf" id="dummy-1_q9_0_all"  />
<polygon points="262,40 287,40 292,35 287,30 262,30 262,40 " style="fill:#d815b1; stroke-width:1; stroke:black; " description="&lt;b&gt;CDDIDNMG_02855&lt;/b&gt;&lt;br&gt;Succinate dehydrogenase iron-sulfur subunit&lt;br&gt;Location: 199632 - 200409" locus_tag="CDDIDNMG_02855" class="clusterblast-orf" id="dummy-1_q10_0_all"  />
<polygon points="294,40 311,40 316,35 311,30 294,30 294,40 " style="fill:white; stroke-width:1; stroke:black; " description="&lt;b&gt;CDDIDNMG_02856&lt;/b&gt;&lt;br&gt;hypothetical protein&lt;br&gt;Location: 200450 - 201002" locus_tag="CDDIDNMG_02856" class="clusterblast-orf" id="dummy-1_q11_0_all"  />
<polygon points="316,35 321,30 334,30 334,40 321,40 316,35 " style="fill:#d8b115; stroke-width:1; stroke:black; " description="&lt;b&gt;CDDIDNMG_02857&lt;/b&gt;&lt;br&gt;hypothetical protein&lt;br&gt;Location: 201008 - 201482" locus_tag="CDDIDNMG_02857" class="clusterblast-orf" id="dummy-1_q12_0_all"  />
<polygon points="343,40 358,40 363,35 358,30 343,30 343,40 " style="fill:#d8b115; stroke-width:1; stroke:black; " description="&lt;b&gt;CDDIDNMG_02858&lt;/b&gt;&lt;br&gt;hypothetical protein&lt;br&gt;Location: 201698 - 202211" locus_tag="CDDIDNMG_02858" class="clusterblast-orf" id="dummy-1_q13_0_all"  />
<polygon points="368,40 390,40 395,35 390,30 368,30 368,40 " style="fill:#15d863; stroke-width:1; stroke:black; " description="&lt;b&gt;CDDIDNMG_02859&lt;/b&gt;&lt;br&gt;hypothetical protein&lt;br&gt;Location: 202340 - 203015" locus_tag="CDDIDNMG_02859" class="clusterblast-orf" id="dummy-1_q14_0_all"  />
<polygon points="396,40 399,40 404,35 399,30 396,30 396,40 " style="fill:#1515d8; stroke-width:1; stroke:black; " description="&lt;b&gt;CDDIDNMG_02860&lt;/b&gt;&lt;br&gt;hypothetical protein&lt;br&gt;Location: 203046 - 203247" locus_tag="CDDIDNMG_02860" class="clusterblast-orf" id="dummy-1_q15_0_all"  />
<polygon points="405,40 434,40 439,35 434,30 405,30 405,40 " style="fill:#d81563; stroke-width:1; stroke:black; " description="&lt;b&gt;CDDIDNMG_02861&lt;/b&gt;&lt;br&gt;hypothetical protein&lt;br&gt;Location: 203289 - 204150" locus_tag="CDDIDNMG_02861" class="clusterblast-orf" id="dummy-1_q16_0_all"  />
<polygon points="441,35 446,30 479,30 479,40 446,40 441,35 " style="fill:white; stroke-width:1; stroke:black; " description="&lt;b&gt;CDDIDNMG_02862&lt;/b&gt;&lt;br&gt;Aldo-keto reductase IolS&lt;br&gt;Location: 204185 - 205160" locus_tag="CDDIDNMG_02862" class="clusterblast-orf" id="dummy-1_q17_0_all"  />
<polygon points="481,35 486,30 533,30 533,40 486,40 481,35 " style="fill:white; stroke-width:1; stroke:black; " description="&lt;b&gt;CDDIDNMG_02863&lt;/b&gt;&lt;br&gt;Serine hydroxymethyltransferase&lt;br&gt;Location: 205210 - 206530" locus_tag="CDDIDNMG_02863" class="clusterblast-orf" id="dummy-1_q18_0_all"  />
<polygon points="537,40 567,40 572,35 567,30 537,30 537,40 " style="fill:white; stroke-width:1; stroke:black; " description="&lt;b&gt;CDDIDNMG_02864&lt;/b&gt;&lt;br&gt;Glycine cleavage system transcriptional activator&lt;br&gt;Location: 206650 - 207529" locus_tag="CDDIDNMG_02864" class="clusterblast-orf" id="dummy-1_q19_0_all"  />
<polygon points="572,35 577,30 599,30 599,40 577,40 572,35 " style="fill:#b1d815; stroke-width:1; stroke:black; " description="&lt;b&gt;CDDIDNMG_02865&lt;/b&gt;&lt;br&gt;Purine nucleoside phosphorylase DeoD-type&lt;br&gt;Location: 207525 - 208230" locus_tag="CDDIDNMG_02865" class="clusterblast-orf" id="dummy-1_q20_0_all"  />
<polygon points="601,35 606,30 615,30 615,40 606,40 601,35 " style="fill:white; stroke-width:1; stroke:black; " description="&lt;b&gt;CDDIDNMG_02866&lt;/b&gt;&lt;br&gt;hypothetical protein&lt;br&gt;Location: 208282 - 208633" locus_tag="CDDIDNMG_02866" class="clusterblast-orf" id="dummy-1_q21_0_all"  />
<polygon points="619,35 624,30 696,30 696,40 624,40 619,35 " style="fill:#15d8b1; stroke-width:1; stroke:black; " description="&lt;b&gt;CDDIDNMG_02867&lt;/b&gt;&lt;br&gt;Ethylmalonyl-CoA mutase&lt;br&gt;Location: 208723 - 210685" locus_tag="CDDIDNMG_02867" class="clusterblast-orf" id="dummy-1_q22_0_all"  />
<polygon points="704,40 712,40 717,35 712,30 704,30 704,40 " style="fill:white; stroke-width:1; stroke:black; " description="&lt;b&gt;CDDIDNMG_02868&lt;/b&gt;&lt;br&gt;hypothetical protein&lt;br&gt;Location: 210884 - 211217" locus_tag="CDDIDNMG_02868" class="clusterblast-orf" id="dummy-1_q23_0_all"  />
<polygon points="720,40 768,40 773,35 768,30 720,30 720,40 " style="fill:#6315d8; stroke-width:1; stroke:black; " description="&lt;b&gt;CDDIDNMG_02869&lt;/b&gt;&lt;br&gt;Glycerol-3-phosphate acyltransferase&lt;br&gt;Location: 211304 - 212654" locus_tag="CDDIDNMG_02869" class="clusterblast-orf" id="dummy-1_q24_0_all"  />
</g>
<g label="NZ_CP042261" description="NZ_CP042261 (250001-270637): Litoreibacter sp. LN3S51 chromosome, complete ge... (30% of genes show similarity), hserlactone" class="clusterblast-cluster"  >
<text x="5" y="70" class="clusterblast-acc"  >
<a xlink:href="https://antismash-db.secondarymetabolites.org/area.html?record=NZ_CP042261&amp;start=250001&amp;end=270637" target="_blank">NZ_CP042261 (250001-270637)</a>: Litoreibacter sp. LN3S51 chromosome, complete ge... (30% of genes show similarity), hserlactone</text>
<line x1="10" y1="85" x2="778.0" y2="85" style="stroke-width:1; stroke:grey; "  />
</g>
<g id="a1_000"  >
<polygon points="0,90 28,90 33,85 28,80 0,80 0,90 " style="fill:white; stroke-width:1; stroke:black; " description="&lt;b&gt;FPZ52_RS01350&lt;/b&gt;&lt;br&gt;CoA ester lyase&lt;br&gt;Location: 250533 - 251378" locus_tag="FPZ52_RS01350" class="clusterblast-orf" id="dummy-1_h1_1_0"  />
</g>
<g id="a1_001"  >
<polygon points="33,90 49,90 54,85 49,80 33,80 33,90 " style="fill:#d81515; stroke-width:1; stroke:black; " description="&lt;b&gt;FPZ52_RS01355&lt;/b&gt;&lt;br&gt;hypothetical protein&lt;br&gt;Location: 251378 - 251923&lt;br&gt;&lt;br&gt;&lt;b&gt;BlastP hit with CDDIDNMG_02845&lt;/b&gt;&lt;br&gt;Percentage identity: 47&lt;br&gt;Percentage coverage: 98&lt;br&gt;BLAST bit score: 159&lt;br&gt;E-value: 5.7e-48" locus_tag="FPZ52_RS01355" class="clusterblast-orf" id="dummy-1_h1_1_1"  />
</g>
<g id="a1_002"  >
<polygon points="54,90 57,90 62,85 57,80 54,80 54,90 " style="fill:#63d815; stroke-width:1; stroke:black; " description="&lt;b&gt;FPZ52_RS01360&lt;/b&gt;&lt;br&gt;DUF1737 domain-containing protein&lt;br&gt;Location: 251931 - 252134&lt;br&gt;&lt;br&gt;&lt;b&gt;BlastP hit with CDDIDNMG_02846&lt;/b&gt;&lt;br&gt;Percentage identity: 71&lt;br&gt;Percentage coverage: 97&lt;br&gt;BLAST bit score: 105&lt;br&gt;E-value: 5.64e-30" locus_tag="FPZ52_RS01360" class="clusterblast-orf" id="dummy-1_h1_1_2"  />
</g>
<g id="a1_003"  >
<polygon points="69,90 79,90 84,85 79,80 69,80 69,90 " style="fill:#b115d8; stroke-width:1; stroke:black; " description="&lt;b&gt;FPZ52_RS01365&lt;/b&gt;&lt;br&gt;succinate dehydrogenase, cytochrome b556 subunit&lt;br&gt;Location: 252308 - 252697&lt;br&gt;&lt;br&gt;&lt;b&gt;BlastP hit with CDDIDNMG_02849&lt;/b&gt;&lt;br&gt;Percentage identity: 54&lt;br&gt;Percentage coverage: 100&lt;br&gt;BLAST bit score: 140&lt;br&gt;E-value: 5.22e-42" locus_tag="FPZ52_RS01365" class="clusterblast-orf" id="dummy-1_h1_1_3"  />
</g>
<g id="a1_004"  >
<polygon points="85,90 94,90 99,85 94,80 85,80 85,90 " style="fill:#d86315; stroke-width:1; stroke:black; " description="&lt;b&gt;FPZ52_RS01370&lt;/b&gt;&lt;br&gt;succinate dehydrogenase, hydrophobic membrane anchor protein&lt;br&gt;Location: 252708 - 253079&lt;br&gt;&lt;br&gt;&lt;b&gt;BlastP hit with CDDIDNMG_02850&lt;/b&gt;&lt;br&gt;Percentage identity: 52&lt;br&gt;Percentage coverage: 100&lt;br&gt;BLAST bit score: 123&lt;br&gt;E-value: 1.28e-35" locus_tag="FPZ52_RS01370" class="clusterblast-orf" id="dummy-1_h1_1_4"  />
</g>
<g id="a1_005"  >
<polygon points="100,90 166,90 171,85 166,80 100,80 100,90 " style="fill:#15d815; stroke-width:1; stroke:black; " description="&lt;b&gt;FPZ52_RS01375&lt;/b&gt;&lt;br&gt;succinate dehydrogenase flavoprotein subunit&lt;br&gt;Location: 253100 - 254905&lt;br&gt;&lt;br&gt;&lt;b&gt;BlastP hit with CDDIDNMG_02851&lt;/b&gt;&lt;br&gt;Percentage identity: 85&lt;br&gt;Percentage coverage: 100&lt;br&gt;BLAST bit score: 1034&lt;br&gt;E-value: 0.0" locus_tag="FPZ52_RS01375" class="clusterblast-orf" id="dummy-1_h1_1_5"  />
</g>
<g id="a1_006"  >
<polygon points="172,90 197,90 202,85 197,80 172,80 172,90 " style="fill:#d815b1; stroke-width:1; stroke:black; " description="&lt;b&gt;FPZ52_RS01380&lt;/b&gt;&lt;br&gt;succinate dehydrogenase iron-sulfur subunit&lt;br&gt;Location: 254918 - 255697&lt;br&gt;&lt;br&gt;&lt;b&gt;BlastP hit with CDDIDNMG_02855&lt;/b&gt;&lt;br&gt;Percentage identity: 93&lt;br&gt;Percentage coverage: 100&lt;br&gt;BLAST bit score: 521&lt;br&gt;E-value: 1.3e-188" locus_tag="FPZ52_RS01380" class="clusterblast-orf" id="dummy-1_h1_1_6"  />
</g>
<g id="a1_007"  >
<polygon points="202,90 226,90 231,85 226,80 202,80 202,90 " style="fill:white; stroke-width:1; stroke:black; " description="&lt;b&gt;FPZ52_RS01385&lt;/b&gt;&lt;br&gt;divalent cation transporter&lt;br&gt;Location: 255701 - 256423" locus_tag="FPZ52_RS01385" class="clusterblast-orf" id="dummy-1_h1_1_7"  />
</g>
<g id="a1_008"  >
<polygon points="249,90 293,90 298,85 293,80 249,80 249,90 " style="fill:white; stroke-width:1; stroke:black; " description="&lt;b&gt;FPZ52_RS01390&lt;/b&gt;&lt;br&gt;DEAD/DEAH box helicase&lt;br&gt;Location: 256883 - 258142" locus_tag="FPZ52_RS01390" class="clusterblast-orf" id="dummy-1_h1_1_8"  />
</g>
<g id="a1_009"  >
<polygon points="299,85 304,80 326,80 326,90 304,90 299,85 " style="fill:#b1d815; stroke-width:1; stroke:black; " description="&lt;b&gt;FPZ52_RS01395&lt;/b&gt;&lt;br&gt;purine-nucleoside phosphorylase&lt;br&gt;Location: 258149 - 258853&lt;br&gt;&lt;br&gt;&lt;b&gt;BlastP hit with CDDIDNMG_02865&lt;/b&gt;&lt;br&gt;Percentage identity: 70&lt;br&gt;Percentage coverage: 100&lt;br&gt;BLAST bit score: 335&lt;br&gt;E-value: 1.13e-115" locus_tag="FPZ52_RS01395" class="clusterblast-orf" id="dummy-1_h1_1_9"  />
</g>
<g id="a1_0010"  >
<polygon points="333,90 337,90 342,85 337,80 333,80 333,90 " style="fill:white; stroke-width:1; stroke:black; " description="&lt;b&gt;FPZ52_RS01400&lt;/b&gt;&lt;br&gt;hypothetical protein&lt;br&gt;Location: 259039 - 259251" locus_tag="FPZ52_RS01400" class="clusterblast-orf" id="dummy-1_h1_1_10"  />
</g>
<g id="a1_0011"  >
<polygon points="340,90 363,90 368,85 363,80 340,80 340,90 " style="fill:white; stroke-width:1; stroke:black; " description="&lt;b&gt;FPZ52_RS01405&lt;/b&gt;&lt;br&gt;LuxR family transcriptional regulator&lt;br&gt;Location: 259196 - 259909" locus_tag="FPZ52_RS01405" class="clusterblast-orf" id="dummy-1_h1_1_11"  />
</g>
<g id="a1_0012"  >
<polygon points="371,90 391,90 396,85 391,80 371,80 371,90 " style="fill:white; stroke-width:1; stroke:black; " description="&lt;b&gt;FPZ52_RS01410&lt;/b&gt;&lt;br&gt;autoinducer synthase&lt;br&gt;Location: 260002 - 260637" locus_tag="FPZ52_RS01410" class="clusterblast-orf" id="dummy-1_h1_1_12"  />
</g>
<g id="a1_0013"  >
<polygon points="398,90 453,90 458,85 453,80 398,80 398,90 " style="fill:white; stroke-width:1; stroke:black; " description="&lt;b&gt;FPZ52_RS01415&lt;/b&gt;&lt;br&gt;AAA family ATPase&lt;br&gt;Location: 260678 - 262207" locus_tag="FPZ52_RS01415" class="clusterblast-orf" id="dummy-1_h1_1_13"  />
</g>
<g id="a1_0014"  >
<polygon points="457,85 462,80 486,80 486,90 462,90 457,85 " style="fill:white; stroke-width:1; stroke:black; " description="&lt;b&gt;FPZ52_RS01420&lt;/b&gt;&lt;br&gt;hypothetical protein&lt;br&gt;Location: 262178 - 262933" locus_tag="FPZ52_RS01420" class="clusterblast-orf" id="dummy-1_h1_1_14"  />
</g>
<g id="a1_0015"  >
<polygon points="486,85 491,80 523,80 523,90 491,90 486,85 " style="fill:white; stroke-width:1; stroke:black; " description="&lt;b&gt;FPZ52_RS01425&lt;/b&gt;&lt;br&gt;TSUP family transporter&lt;br&gt;Location: 262930 - 263856" locus_tag="FPZ52_RS01425" class="clusterblast-orf" id="dummy-1_h1_1_15"  />
</g>
<g id="a1_0016"  >
<polygon points="528,85 533,80 566,80 566,90 533,90 528,85 " style="fill:white; stroke-width:1; stroke:black; " description="&lt;b&gt;FPZ52_RS01430&lt;/b&gt;&lt;br&gt;ABC transporter permease&lt;br&gt;Location: 264004 - 264969" locus_tag="FPZ52_RS01430" class="clusterblast-orf" id="dummy-1_h1_1_16"  />
</g>
<g id="a1_0017"  >
<polygon points="566,85 571,80 609,80 609,90 571,90 566,85 " style="fill:white; stroke-width:1; stroke:black; " description="&lt;b&gt;FPZ52_RS01435&lt;/b&gt;&lt;br&gt;ABC transporter permease&lt;br&gt;Location: 264969 - 266063" locus_tag="FPZ52_RS01435" class="clusterblast-orf" id="dummy-1_h1_1_17"  />
</g>
<g id="a1_0018"  >
<polygon points="609,85 614,80 671,80 671,90 614,90 609,85 " style="fill:white; stroke-width:1; stroke:black; " description="&lt;b&gt;FPZ52_RS01440&lt;/b&gt;&lt;br&gt;ATP-binding cassette domain-containing protein&lt;br&gt;Location: 266065 - 267630" locus_tag="FPZ52_RS01440" class="clusterblast-orf" id="dummy-1_h1_1_18"  />
</g>
<g id="a1_0019"  >
<polygon points="671,85 676,80 710,80 710,90 676,90 671,85 " style="fill:white; stroke-width:1; stroke:black; " description="&lt;b&gt;FPZ52_RS01445&lt;/b&gt;&lt;br&gt;BMP family ABC transporter substrate-binding protein&lt;br&gt;Location: 267636 - 268631" locus_tag="FPZ52_RS01445" class="clusterblast-orf" id="dummy-1_h1_1_19"  />
</g>
<g id="a1_0020"  >
<polygon points="716,85 721,80 733,80 733,90 721,90 716,85 " style="fill:white; stroke-width:1; stroke:black; " description="&lt;b&gt;FPZ52_RS01450&lt;/b&gt;&lt;br&gt;GNAT family N-acetyltransferase&lt;br&gt;Location: 268783 - 269205" locus_tag="FPZ52_RS01450" class="clusterblast-orf" id="dummy-1_h1_1_20"  />
</g>
<g id="a1_0021"  >
<polygon points="733,85 738,80 758,80 758,90 738,90 733,85 " style="fill:white; stroke-width:1; stroke:black; " description="&lt;b&gt;FPZ52_RS01455&lt;/b&gt;&lt;br&gt;tRNA (adenosine(37)-N6)-threonylcarbamoyltransferase complex dimerization subunit type 1 TsaB&lt;br&gt;Location: 269202 - 269849" locus_tag="FPZ52_RS01455" class="clusterblast-orf" id="dummy-1_h1_1_21"  />
</g>
<g id="a1_0022"  >
<polygon points="758,85 763,80 780,80 780,90 763,90 758,85 " style="fill:white; stroke-width:1; stroke:black; " description="&lt;b&gt;FPZ52_RS01460&lt;/b&gt;&lt;br&gt;NifU family protein&lt;br&gt;Location: 269839 - 270399" locus_tag="FPZ52_RS01460" class="clusterblast-orf" id="dummy-1_h1_1_22"  />
</g>
</svg>
