<svg xmlns="http://www.w3.org/2000/svg" xmlns:xlink="http://www.w3.org/1999/xlink" version="1.1" x="0" y="0" height="230" width="800" viewBox="0 0 800 230" preserveAspectRatio="none"  >
<g label="Query sequence" class="clusterblast-cluster"  >
<text x="5" y="20" class="clusterblast-acc"  >
Query sequence</text>
<line x1="10" y1="35" x2="778.0" y2="35" style="stroke-width:1; stroke:grey; "  />
<polygon points="0,40 2,35 0,30 0,40 " style="fill:white; stroke-width:1; stroke:black; " description="&lt;b&gt;CDDIDNMG_01057&lt;/b&gt;&lt;br&gt;hypothetical protein&lt;br&gt;Location: 21389 - 21524" locus_tag="CDDIDNMG_01057" class="clusterblast-orf" id="dummy-1_q0_0_all"  />
<polygon points="3,40 17,40 22,35 17,30 3,30 3,40 " style="fill:white; stroke-width:1; stroke:black; " description="&lt;b&gt;CDDIDNMG_01058&lt;/b&gt;&lt;br&gt;Diaminopimelate decarboxylase&lt;br&gt;Location: 21609 - 22875" locus_tag="CDDIDNMG_01058" class="clusterblast-orf" id="dummy-1_q1_0_all"  />
<polygon points="23,40 55,40 60,35 55,30 23,30 23,40 " style="fill:white; stroke-width:1; stroke:black; " description="&lt;b&gt;CDDIDNMG_01059&lt;/b&gt;&lt;br&gt;hypothetical protein&lt;br&gt;Location: 22889 - 25337" locus_tag="CDDIDNMG_01059" class="clusterblast-orf" id="dummy-1_q2_0_all"  />
<polygon points="63,40 66,35 63,30 63,40 " style="fill:white; stroke-width:1; stroke:black; " description="&lt;b&gt;CDDIDNMG_01060&lt;/b&gt;&lt;br&gt;Cold shock protein CspA&lt;br&gt;Location: 25521 - 25728" locus_tag="CDDIDNMG_01060" class="clusterblast-orf" id="dummy-1_q3_0_all"  />
<polygon points="70,35 75,30 79,30 79,40 75,40 70,35 " style="fill:white; stroke-width:1; stroke:black; " description="&lt;b&gt;CDDIDNMG_01061&lt;/b&gt;&lt;br&gt;FMN-dependent NADH-azoreductase&lt;br&gt;Location: 25966 - 26557" locus_tag="CDDIDNMG_01061" class="clusterblast-orf" id="dummy-1_q4_0_all"  />
<polygon points="83,35 88,30 100,30 100,40 88,40 83,35 " style="fill:white; stroke-width:1; stroke:black; " description="&lt;b&gt;CDDIDNMG_01062&lt;/b&gt;&lt;br&gt;N-ethylmaleimide reductase&lt;br&gt;Location: 26843 - 27926" locus_tag="CDDIDNMG_01062" class="clusterblast-orf" id="dummy-1_q5_0_all"  />
<polygon points="103,35 108,30 131,30 131,40 108,40 103,35 " style="fill:white; stroke-width:1; stroke:black; " description="&lt;b&gt;CDDIDNMG_01063&lt;/b&gt;&lt;br&gt;UvrABC system protein C&lt;br&gt;Location: 28152 - 30009" locus_tag="CDDIDNMG_01063" class="clusterblast-orf" id="dummy-1_q6_0_all"  />
<polygon points="136,35 141,30 148,30 148,40 141,40 136,35 " style="fill:white; stroke-width:1; stroke:black; " description="&lt;b&gt;CDDIDNMG_01064&lt;/b&gt;&lt;br&gt;3-oxoacyl-[acyl-carrier-protein] reductase FabG&lt;br&gt;Location: 30319 - 31096" locus_tag="CDDIDNMG_01064" class="clusterblast-orf" id="dummy-1_q7_0_all"  />
<polygon points="148,35 152,30 152,40 148,35 " style="fill:white; stroke-width:1; stroke:black; " description="&lt;b&gt;CDDIDNMG_01065&lt;/b&gt;&lt;br&gt;hypothetical protein&lt;br&gt;Location: 31092 - 31338" locus_tag="CDDIDNMG_01065" class="clusterblast-orf" id="dummy-1_q8_0_all"  />
<polygon points="151,35 156,30 163,30 163,40 156,40 151,35 " style="fill:white; stroke-width:1; stroke:black; " description="&lt;b&gt;CDDIDNMG_01066&lt;/b&gt;&lt;br&gt;hypothetical protein&lt;br&gt;Location: 31285 - 32074" locus_tag="CDDIDNMG_01066" class="clusterblast-orf" id="dummy-1_q9_0_all"  />
<polygon points="165,40 173,40 178,35 173,30 165,30 165,40 " style="fill:white; stroke-width:1; stroke:black; " description="&lt;b&gt;CDDIDNMG_01067&lt;/b&gt;&lt;br&gt;HTH-type transcriptional regulator CynR&lt;br&gt;Location: 32204 - 33095" locus_tag="CDDIDNMG_01067" class="clusterblast-orf" id="dummy-1_q10_0_all"  />
<polygon points="180,40 182,40 187,35 182,30 180,30 180,40 " style="fill:white; stroke-width:1; stroke:black; " description="&lt;b&gt;CDDIDNMG_01068&lt;/b&gt;&lt;br&gt;NADP-reducing hydrogenase subunit HndA&lt;br&gt;Location: 33190 - 33658" locus_tag="CDDIDNMG_01068" class="clusterblast-orf" id="dummy-1_q11_0_all"  />
<polygon points="187,40 205,40 210,35 205,30 187,30 187,40 " style="fill:white; stroke-width:1; stroke:black; " description="&lt;b&gt;CDDIDNMG_01069&lt;/b&gt;&lt;br&gt;NADP-reducing hydrogenase subunit HndC&lt;br&gt;Location: 33654 - 35181" locus_tag="CDDIDNMG_01069" class="clusterblast-orf" id="dummy-1_q12_0_all"  />
<polygon points="210,40 249,40 254,35 249,30 210,30 210,40 " style="fill:white; stroke-width:1; stroke:black; " description="&lt;b&gt;CDDIDNMG_01070&lt;/b&gt;&lt;br&gt;Putative formate dehydrogenase&lt;br&gt;Location: 35177 - 38069" locus_tag="CDDIDNMG_01070" class="clusterblast-orf" id="dummy-1_q13_0_all"  />
<polygon points="254,40 262,40 267,35 262,30 254,30 254,40 " style="fill:white; stroke-width:1; stroke:black; " description="&lt;b&gt;CDDIDNMG_01071&lt;/b&gt;&lt;br&gt;Sulfur carrier protein FdhD&lt;br&gt;Location: 38068 - 38875" locus_tag="CDDIDNMG_01071" class="clusterblast-orf" id="dummy-1_q14_0_all"  />
<polygon points="267,40 270,35 267,30 267,40 " style="fill:white; stroke-width:1; stroke:black; " description="&lt;b&gt;CDDIDNMG_01072&lt;/b&gt;&lt;br&gt;hypothetical protein&lt;br&gt;Location: 38864 - 39113" locus_tag="CDDIDNMG_01072" class="clusterblast-orf" id="dummy-1_q15_0_all"  />
<polygon points="273,40 279,40 284,35 279,30 273,30 273,40 " style="fill:white; stroke-width:1; stroke:black; " description="&lt;b&gt;CDDIDNMG_01073&lt;/b&gt;&lt;br&gt;hypothetical protein&lt;br&gt;Location: 39271 - 40003" locus_tag="CDDIDNMG_01073" class="clusterblast-orf" id="dummy-1_q16_0_all"  />
<polygon points="284,35 289,30 294,30 294,40 289,40 284,35 " style="fill:white; stroke-width:1; stroke:black; " description="&lt;b&gt;CDDIDNMG_01074&lt;/b&gt;&lt;br&gt;4'-phosphopantetheinyl transferase Npt&lt;br&gt;Location: 39992 - 40640" locus_tag="CDDIDNMG_01074" class="clusterblast-orf" id="dummy-1_q17_0_all"  />
<polygon points="294,35 299,30 362,30 362,40 299,40 294,35 " style="fill:white; stroke-width:1; stroke:black; " description="&lt;b&gt;CDDIDNMG_01075&lt;/b&gt;&lt;br&gt;D-alanine--D-alanyl carrier protein ligase&lt;br&gt;Location: 40632 - 45123" locus_tag="CDDIDNMG_01075" class="clusterblast-orf" id="dummy-1_q18_0_all"  />
<polygon points="362,35 367,30 378,30 378,40 367,40 362,35 " style="fill:white; stroke-width:1; stroke:black; " description="&lt;b&gt;CDDIDNMG_01076&lt;/b&gt;&lt;br&gt;hypothetical protein&lt;br&gt;Location: 45133 - 46141" locus_tag="CDDIDNMG_01076" class="clusterblast-orf" id="dummy-1_q19_0_all"  />
<polygon points="378,35 383,30 475,30 475,40 383,40 378,35 " style="fill:white; stroke-width:1; stroke:black; " description="&lt;b&gt;CDDIDNMG_01077&lt;/b&gt;&lt;br&gt;hypothetical protein&lt;br&gt;Location: 46143 - 52527" locus_tag="CDDIDNMG_01077" class="clusterblast-orf" id="dummy-1_q20_0_all"  />
<polygon points="478,35 483,30 493,30 493,40 483,40 478,35 " style="fill:white; stroke-width:1; stroke:black; " description="&lt;b&gt;CDDIDNMG_01078&lt;/b&gt;&lt;br&gt;hypothetical protein&lt;br&gt;Location: 52707 - 53700" locus_tag="CDDIDNMG_01078" class="clusterblast-orf" id="dummy-1_q21_0_all"  />
<polygon points="493,35 498,30 515,30 515,40 498,40 493,35 " style="fill:white; stroke-width:1; stroke:black; " description="&lt;b&gt;CDDIDNMG_01079&lt;/b&gt;&lt;br&gt;hypothetical protein&lt;br&gt;Location: 53699 - 55118" locus_tag="CDDIDNMG_01079" class="clusterblast-orf" id="dummy-1_q22_0_all"  />
<polygon points="516,35 521,30 530,30 530,40 521,40 516,35 " style="fill:white; stroke-width:1; stroke:black; " description="&lt;b&gt;CDDIDNMG_01080&lt;/b&gt;&lt;br&gt;hypothetical protein&lt;br&gt;Location: 55199 - 56111" locus_tag="CDDIDNMG_01080" class="clusterblast-orf" id="dummy-1_q23_0_all"  />
<polygon points="532,40 538,40 543,35 538,30 532,30 532,40 " style="fill:white; stroke-width:1; stroke:black; " description="&lt;b&gt;CDDIDNMG_01081&lt;/b&gt;&lt;br&gt;N-acetylglucosaminyldiphosphoundecaprenol N-acetyl-beta-D-mannosaminyltransferase&lt;br&gt;Location: 56238 - 56985" locus_tag="CDDIDNMG_01081" class="clusterblast-orf" id="dummy-1_q24_0_all"  />
<polygon points="543,35 548,30 558,30 558,40 548,40 543,35 " style="fill:white; stroke-width:1; stroke:black; " description="&lt;b&gt;CDDIDNMG_01082&lt;/b&gt;&lt;br&gt;hypothetical protein&lt;br&gt;Location: 56985 - 57969" locus_tag="CDDIDNMG_01082" class="clusterblast-orf" id="dummy-1_q25_0_all"  />
<polygon points="563,40 571,40 576,35 571,30 563,30 563,40 " style="fill:white; stroke-width:1; stroke:black; " description="&lt;b&gt;CDDIDNMG_01083&lt;/b&gt;&lt;br&gt;hypothetical protein&lt;br&gt;Location: 58273 - 59143" locus_tag="CDDIDNMG_01083" class="clusterblast-orf" id="dummy-1_q26_0_all"  />
<polygon points="576,40 592,40 597,35 592,30 576,30 576,40 " style="fill:white; stroke-width:1; stroke:black; " description="&lt;b&gt;CDDIDNMG_01084&lt;/b&gt;&lt;br&gt;hypothetical protein&lt;br&gt;Location: 59146 - 60505" locus_tag="CDDIDNMG_01084" class="clusterblast-orf" id="dummy-1_q27_0_all"  />
<polygon points="600,35 605,30 611,30 611,40 605,40 600,35 " style="fill:white; stroke-width:1; stroke:black; " description="&lt;b&gt;CDDIDNMG_01085&lt;/b&gt;&lt;br&gt;Undecaprenyl phosphate N,N'-diacetylbacillosamine 1-phosphate transferase&lt;br&gt;Location: 60672 - 61392" locus_tag="CDDIDNMG_01085" class="clusterblast-orf" id="dummy-1_q28_0_all"  />
<polygon points="617,35 620,30 620,40 617,35 " style="fill:white; stroke-width:1; stroke:black; " description="&lt;b&gt;CDDIDNMG_01086&lt;/b&gt;&lt;br&gt;hypothetical protein&lt;br&gt;Location: 61822 - 62017" locus_tag="CDDIDNMG_01086" class="clusterblast-orf" id="dummy-1_q29_0_all"  />
<polygon points="622,35 627,30 635,30 635,40 627,40 622,35 " style="fill:#d81515; stroke-width:1; stroke:black; " description="&lt;b&gt;CDDIDNMG_01087&lt;/b&gt;&lt;br&gt;Glucose-1-phosphate thymidylyltransferase&lt;br&gt;Location: 62130 - 63003" locus_tag="CDDIDNMG_01087" class="clusterblast-orf" id="dummy-1_q30_0_all"  />
<polygon points="635,35 640,30 648,30 648,40 640,40 635,35 " style="fill:#77d815; stroke-width:1; stroke:black; " description="&lt;b&gt;CDDIDNMG_01088&lt;/b&gt;&lt;br&gt;dTDP-4-dehydrorhamnose reductase&lt;br&gt;Location: 62999 - 63851" locus_tag="CDDIDNMG_01088" class="clusterblast-orf" id="dummy-1_q31_0_all"  />
<polygon points="649,35 654,30 665,30 665,40 654,40 649,35 " style="fill:#15d8d8; stroke-width:1; stroke:black; " description="&lt;b&gt;CDDIDNMG_01089&lt;/b&gt;&lt;br&gt;dTDP-glucose 4,6-dehydratase 2&lt;br&gt;Location: 63906 - 64947" locus_tag="CDDIDNMG_01089" class="clusterblast-orf" id="dummy-1_q32_0_all"  />
<polygon points="665,35 670,30 674,30 674,40 670,40 665,35 " style="fill:#7715d8; stroke-width:1; stroke:black; " description="&lt;b&gt;CDDIDNMG_01090&lt;/b&gt;&lt;br&gt;dTDP-4-dehydrorhamnose 3,5-epimerase&lt;br&gt;Location: 64943 - 65507" locus_tag="CDDIDNMG_01090" class="clusterblast-orf" id="dummy-1_q33_0_all"  />
<polygon points="675,35 680,30 695,30 695,40 680,40 675,35 " style="fill:white; stroke-width:1; stroke:black; " description="&lt;b&gt;CDDIDNMG_01091&lt;/b&gt;&lt;br&gt;hypothetical protein&lt;br&gt;Location: 65582 - 66935" locus_tag="CDDIDNMG_01091" class="clusterblast-orf" id="dummy-1_q34_0_all"  />
<polygon points="698,40 712,40 717,35 712,30 698,30 698,40 " style="fill:white; stroke-width:1; stroke:black; " description="&lt;b&gt;CDDIDNMG_01092&lt;/b&gt;&lt;br&gt;D-inositol-3-phosphate glycosyltransferase&lt;br&gt;Location: 67098 - 68370" locus_tag="CDDIDNMG_01092" class="clusterblast-orf" id="dummy-1_q35_0_all"  />
<polygon points="717,40 724,40 729,35 724,30 717,30 717,40 " style="fill:white; stroke-width:1; stroke:black; " description="&lt;b&gt;CDDIDNMG_01093&lt;/b&gt;&lt;br&gt;hypothetical protein&lt;br&gt;Location: 68366 - 69152" locus_tag="CDDIDNMG_01093" class="clusterblast-orf" id="dummy-1_q36_0_all"  />
<polygon points="732,35 737,30 742,30 742,40 737,40 732,35 " style="fill:white; stroke-width:1; stroke:black; " description="&lt;b&gt;CDDIDNMG_01094&lt;/b&gt;&lt;br&gt;hypothetical protein&lt;br&gt;Location: 69322 - 69955" locus_tag="CDDIDNMG_01094" class="clusterblast-orf" id="dummy-1_q37_0_all"  />
<polygon points="743,40 752,40 757,35 752,30 743,30 743,40 " style="fill:white; stroke-width:1; stroke:black; " description="&lt;b&gt;CDDIDNMG_01095&lt;/b&gt;&lt;br&gt;Chaperedoxin&lt;br&gt;Location: 70069 - 70984" locus_tag="CDDIDNMG_01095" class="clusterblast-orf" id="dummy-1_q38_0_all"  />
<polygon points="758,40 763,40 768,35 763,30 758,30 758,40 " style="fill:white; stroke-width:1; stroke:black; " description="&lt;b&gt;CDDIDNMG_01096&lt;/b&gt;&lt;br&gt;hypothetical protein&lt;br&gt;Location: 71013 - 71652" locus_tag="CDDIDNMG_01096" class="clusterblast-orf" id="dummy-1_q39_0_all"  />
<polygon points="767,40 770,35 767,30 767,40 " style="fill:white; stroke-width:1; stroke:black; " description="&lt;b&gt;CDDIDNMG_01097&lt;/b&gt;&lt;br&gt;hypothetical protein&lt;br&gt;Location: 71648 - 71843" locus_tag="CDDIDNMG_01097" class="clusterblast-orf" id="dummy-1_q40_0_all"  />
<polygon points="771,35 776,30 780,30 780,40 776,40 771,35 " style="fill:white; stroke-width:1; stroke:black; " description="&lt;b&gt;CDDIDNMG_01098&lt;/b&gt;&lt;br&gt;hypothetical protein&lt;br&gt;Location: 71864 - 72446" locus_tag="CDDIDNMG_01098" class="clusterblast-orf" id="dummy-1_q41_0_all"  />
</g>
<g label="BGC0000768" description="BGC0000768_c1: gellan polysaccharide (15% of genes show similarity), Saccharide" class="clusterblast-cluster"  >
<text x="5" y="70" class="clusterblast-acc"  >
<a xlink:href="https://mibig.secondarymetabolites.org/go/BGC0000768/1" target="_blank">BGC0000768</a>: gellan polysaccharide                                                            (15% of genes show similarity), Saccharide</text>
<line x1="10" y1="85" x2="778.0" y2="85" style="stroke-width:1; stroke:grey; "  />
</g>
<g id="a1_000"  >
<polygon points="159,90 164,90 169,85 164,80 159,80 159,90 " style="fill:white; stroke-width:1; stroke:black; " description="&lt;b&gt;AAP57703.1&lt;/b&gt;&lt;br&gt;conserved hypothetical protein&lt;br&gt;Location: 30166 - 29537" locus_tag="AAP57703.1" class="clusterblast-orf" id="dummy-1_h1_3_0"  />
</g>
<g id="a1_001"  >
<polygon points="168,85 173,80 182,80 182,90 173,90 168,85 " style="fill:white; stroke-width:1; stroke:black; " description="&lt;b&gt;AAP57702.1&lt;/b&gt;&lt;br&gt;conserved hypothetical protein&lt;br&gt;Location: 29562 - 28654" locus_tag="AAP57702.1" class="clusterblast-orf" id="dummy-1_h1_3_1"  />
</g>
<g id="a1_002"  >
<polygon points="183,85 188,80 196,80 196,90 188,90 183,85 " style="fill:#77d815; stroke-width:1; stroke:black; " description="&lt;b&gt;AAP57701.1&lt;/b&gt;&lt;br&gt;dTDP-6-deoxy-L-mannose-dehydrogenase&lt;br&gt;Location: 28606 - 27740&lt;br&gt;&lt;br&gt;&lt;b&gt;BlastP hit with CDDIDNMG_01088&lt;/b&gt;&lt;br&gt;Percentage identity: 50&lt;br&gt;Percentage coverage: 101&lt;br&gt;BLAST bit score: 245&lt;br&gt;E-value: 1.35e-80" locus_tag="AAP57701.1" class="clusterblast-orf" id="dummy-1_h1_3_2"  />
</g>
<g id="a1_003"  >
<polygon points="196,85 201,80 212,80 212,90 201,90 196,85 " style="fill:#15d8d8; stroke-width:1; stroke:black; " description="&lt;b&gt;AAP57700.1&lt;/b&gt;&lt;br&gt;dTDP-D-glucose-4,6-dehydratase&lt;br&gt;Location: 27740 - 26679&lt;br&gt;&lt;br&gt;&lt;b&gt;BlastP hit with CDDIDNMG_01089&lt;/b&gt;&lt;br&gt;Percentage identity: 59&lt;br&gt;Percentage coverage: 101&lt;br&gt;BLAST bit score: 418&lt;br&gt;E-value: 1.49e-146" locus_tag="AAP57700.1" class="clusterblast-orf" id="dummy-1_h1_3_3"  />
</g>
<g id="a1_004"  >
<polygon points="212,85 217,80 221,80 221,90 217,90 212,85 " style="fill:#7715d8; stroke-width:1; stroke:black; " description="&lt;b&gt;AAP57699.1&lt;/b&gt;&lt;br&gt;dTDP-6-deoxy-D-glucose-3,5-epimerase&lt;br&gt;Location: 26675 - 26109&lt;br&gt;&lt;br&gt;&lt;b&gt;BlastP hit with CDDIDNMG_01090&lt;/b&gt;&lt;br&gt;Percentage identity: 52&lt;br&gt;Percentage coverage: 97&lt;br&gt;BLAST bit score: 189&lt;br&gt;E-value: 3.2e-61" locus_tag="AAP57699.1" class="clusterblast-orf" id="dummy-1_h1_3_4"  />
</g>
<g id="a1_005"  >
<polygon points="221,85 226,80 234,80 234,90 226,90 221,85 " style="fill:#d81515; stroke-width:1; stroke:black; " description="&lt;b&gt;AAP57698.1&lt;/b&gt;&lt;br&gt;glucose-1-phosphate thymidylyltransferase&lt;br&gt;Location: 26112 - 25234&lt;br&gt;&lt;br&gt;&lt;b&gt;BlastP hit with CDDIDNMG_01087&lt;/b&gt;&lt;br&gt;Percentage identity: 55&lt;br&gt;Percentage coverage: 100&lt;br&gt;BLAST bit score: 318&lt;br&gt;E-value: 4.7e-109" locus_tag="AAP57698.1" class="clusterblast-orf" id="dummy-1_h1_3_5"  />
</g>
<g id="a1_006"  >
<polygon points="236,85 241,80 258,80 258,90 241,90 236,85 " style="fill:white; stroke-width:1; stroke:black; " description="&lt;b&gt;AAP57697.1&lt;/b&gt;&lt;br&gt;glucosyl-isoprenylphosphate transferase&lt;br&gt;Location: 25115 - 23703" locus_tag="AAP57697.1" class="clusterblast-orf" id="dummy-1_h1_3_6"  />
</g>
<g id="a1_007"  >
<polygon points="268,90 296,90 301,85 296,80 268,80 268,90 " style="fill:white; stroke-width:1; stroke:black; " description="&lt;b&gt;AAP57696.1&lt;/b&gt;&lt;br&gt;putative secretion protein&lt;br&gt;Location: 23066 - 20880" locus_tag="AAP57696.1" class="clusterblast-orf" id="dummy-1_h1_3_7"  />
</g>
<g id="a1_008"  >
<polygon points="301,90 317,90 322,85 317,80 301,80 301,90 " style="fill:white; stroke-width:1; stroke:black; " description="&lt;b&gt;AAP57695.1&lt;/b&gt;&lt;br&gt;putative secretion protein&lt;br&gt;Location: 20883 - 19489" locus_tag="AAP57695.1" class="clusterblast-orf" id="dummy-1_h1_3_8"  />
</g>
<g id="a1_009"  >
<polygon points="323,85 328,80 334,80 334,90 328,90 323,85 " style="fill:white; stroke-width:1; stroke:black; " description="&lt;b&gt;AAP57694.1&lt;/b&gt;&lt;br&gt;GelN&lt;br&gt;Location: 19427 - 18729" locus_tag="AAP57694.1" class="clusterblast-orf" id="dummy-1_h1_3_9"  />
</g>
<g id="a1_0010"  >
<polygon points="334,85 339,80 347,80 347,90 339,90 334,85 " style="fill:white; stroke-width:1; stroke:black; " description="&lt;b&gt;AAP57693.1&lt;/b&gt;&lt;br&gt;GelM&lt;br&gt;Location: 18745 - 17864" locus_tag="AAP57693.1" class="clusterblast-orf" id="dummy-1_h1_3_10"  />
</g>
<g id="a1_0011"  >
<polygon points="347,85 352,80 358,80 358,90 352,90 347,85 " style="fill:white; stroke-width:1; stroke:black; " description="&lt;b&gt;AAP57692.1&lt;/b&gt;&lt;br&gt;GelE&lt;br&gt;Location: 17853 - 17146" locus_tag="AAP57692.1" class="clusterblast-orf" id="dummy-1_h1_3_11"  />
</g>
<g id="a1_0012"  >
<polygon points="358,85 363,80 379,80 379,90 363,90 358,85 " style="fill:white; stroke-width:1; stroke:black; " description="&lt;b&gt;AAP57691.1&lt;/b&gt;&lt;br&gt;GelC&lt;br&gt;Location: 17146 - 15800" locus_tag="AAP57691.1" class="clusterblast-orf" id="dummy-1_h1_3_12"  />
</g>
<g id="a1_0013"  >
<polygon points="379,85 384,80 393,80 393,90 384,90 379,85 " style="fill:white; stroke-width:1; stroke:black; " description="&lt;b&gt;AAP57690.1&lt;/b&gt;&lt;br&gt;putative polysaccharide export protein&lt;br&gt;Location: 15764 - 14862" locus_tag="AAP57690.1" class="clusterblast-orf" id="dummy-1_h1_3_13"  />
</g>
<g id="a1_0014"  >
<polygon points="393,85 398,80 413,80 413,90 398,90 393,85 " style="fill:white; stroke-width:1; stroke:black; " description="&lt;b&gt;AAP57689.1&lt;/b&gt;&lt;br&gt;GelF&lt;br&gt;Location: 14847 - 13546" locus_tag="AAP57689.1" class="clusterblast-orf" id="dummy-1_h1_3_14"  />
</g>
<g id="a1_0015"  >
<polygon points="422,90 439,90 444,85 439,80 422,80 422,90 " style="fill:white; stroke-width:1; stroke:black; " description="&lt;b&gt;AAP57688.1&lt;/b&gt;&lt;br&gt;GelJ&lt;br&gt;Location: 12931 - 11543" locus_tag="AAP57688.1" class="clusterblast-orf" id="dummy-1_h1_3_15"  />
</g>
<g id="a1_0016"  >
<polygon points="444,85 449,80 458,80 458,90 449,90 444,85 " style="fill:white; stroke-width:1; stroke:black; " description="&lt;b&gt;AAP57687.1&lt;/b&gt;&lt;br&gt;glucosyl transferase&lt;br&gt;Location: 11492 - 10626" locus_tag="AAP57687.1" class="clusterblast-orf" id="dummy-1_h1_3_16"  />
</g>
<g id="a1_0017"  >
<polygon points="458,85 463,80 474,80 474,90 463,90 458,85 " style="fill:white; stroke-width:1; stroke:black; " description="&lt;b&gt;AAP57686.1&lt;/b&gt;&lt;br&gt;beta-1,4-glucuronosyltransferase&lt;br&gt;Location: 10629 - 9583" locus_tag="AAP57686.1" class="clusterblast-orf" id="dummy-1_h1_3_17"  />
</g>
<g id="a1_0018"  >
<polygon points="476,90 484,90 489,85 484,80 476,80 476,90 " style="fill:white; stroke-width:1; stroke:black; " description="&lt;b&gt;AAP57685.1&lt;/b&gt;&lt;br&gt;GelI&lt;br&gt;Location: 9441 - 8539" locus_tag="AAP57685.1" class="clusterblast-orf" id="dummy-1_h1_3_18"  />
</g>
<g id="a1_0019"  >
<polygon points="490,85 495,80 505,80 505,90 495,90 490,85 " style="fill:white; stroke-width:1; stroke:black; " description="&lt;b&gt;AAP57684.1&lt;/b&gt;&lt;br&gt;putative rhamnosyl transferase&lt;br&gt;Location: 8479 - 7538" locus_tag="AAP57684.1" class="clusterblast-orf" id="dummy-1_h1_3_19"  />
</g>
<g id="a1_0020"  >
<polygon points="507,90 514,90 519,85 514,80 507,80 507,90 " style="fill:white; stroke-width:1; stroke:black; " description="&lt;b&gt;AAP57683.1&lt;/b&gt;&lt;br&gt;conserved hypothetical protein&lt;br&gt;Location: 7419 - 6589" locus_tag="AAP57683.1" class="clusterblast-orf" id="dummy-1_h1_3_20"  />
</g>
<g id="a1_0021"  >
<polygon points="519,90 523,90 528,85 523,80 519,80 519,90 " style="fill:white; stroke-width:1; stroke:black; " description="&lt;b&gt;AAP57682.1&lt;/b&gt;&lt;br&gt;putative acetyltransferase&lt;br&gt;Location: 6602 - 6033" locus_tag="AAP57682.1" class="clusterblast-orf" id="dummy-1_h1_3_21"  />
</g>
<g id="a1_0022"  >
<polygon points="531,85 536,80 549,80 549,90 536,90 531,85 " style="fill:white; stroke-width:1; stroke:black; " description="&lt;b&gt;AAP57681.1&lt;/b&gt;&lt;br&gt;conserved hypothetical protein&lt;br&gt;Location: 5799 - 4642" locus_tag="AAP57681.1" class="clusterblast-orf" id="dummy-1_h1_3_22"  />
</g>
<g id="a1_0023"  >
<polygon points="550,90 576,90 581,85 576,80 550,80 550,90 " style="fill:white; stroke-width:1; stroke:black; " description="&lt;b&gt;AAP57680.1&lt;/b&gt;&lt;br&gt;putative ferrichrome-iron receptor&lt;br&gt;Location: 4592 - 2535" locus_tag="AAP57680.1" class="clusterblast-orf" id="dummy-1_h1_3_23"  />
</g>
<g id="a1_0024"  >
<polygon points="584,85 589,80 600,80 600,90 589,90 584,85 " style="fill:white; stroke-width:1; stroke:black; " description="&lt;b&gt;AAP57679.1&lt;/b&gt;&lt;br&gt;hypothetical protein&lt;br&gt;Location: 2363 - 1329" locus_tag="AAP57679.1" class="clusterblast-orf" id="dummy-1_h1_3_24"  />
</g>
<g id="a1_0025"  >
<polygon points="602,85 607,80 620,80 620,90 607,90 602,85 " style="fill:white; stroke-width:1; stroke:black; " description="&lt;b&gt;AAP57678.1&lt;/b&gt;&lt;br&gt;putative DNA gyrase subunit B&lt;br&gt;Location: 1191 - 1" locus_tag="AAP57678.1" class="clusterblast-orf" id="dummy-1_h1_3_25"  />
</g>
</svg>
