<svg xmlns="http://www.w3.org/2000/svg" xmlns:xlink="http://www.w3.org/1999/xlink" version="1.1" x="0" y="0" height="230" width="800" viewBox="0 0 800 230" preserveAspectRatio="none"  >
<g label="Query sequence" class="clusterblast-cluster"  >
<text x="5" y="20" class="clusterblast-acc"  >
Query sequence</text>
<line x1="10" y1="35" x2="778.0" y2="35" style="stroke-width:1; stroke:grey; "  />
<polygon points="0,40 2,35 0,30 0,40 " style="fill:white; stroke-width:1; stroke:black; " description="&lt;b&gt;CDDIDNMG_01057&lt;/b&gt;&lt;br&gt;hypothetical protein&lt;br&gt;Location: 21389 - 21524" locus_tag="CDDIDNMG_01057" class="clusterblast-orf" id="dummy-1_q0_0_all"  />
<polygon points="3,40 17,40 22,35 17,30 3,30 3,40 " style="fill:white; stroke-width:1; stroke:black; " description="&lt;b&gt;CDDIDNMG_01058&lt;/b&gt;&lt;br&gt;Diaminopimelate decarboxylase&lt;br&gt;Location: 21609 - 22875" locus_tag="CDDIDNMG_01058" class="clusterblast-orf" id="dummy-1_q1_0_all"  />
<polygon points="23,40 55,40 60,35 55,30 23,30 23,40 " style="fill:white; stroke-width:1; stroke:black; " description="&lt;b&gt;CDDIDNMG_01059&lt;/b&gt;&lt;br&gt;hypothetical protein&lt;br&gt;Location: 22889 - 25337" locus_tag="CDDIDNMG_01059" class="clusterblast-orf" id="dummy-1_q2_0_all"  />
<polygon points="63,40 66,35 63,30 63,40 " style="fill:white; stroke-width:1; stroke:black; " description="&lt;b&gt;CDDIDNMG_01060&lt;/b&gt;&lt;br&gt;Cold shock protein CspA&lt;br&gt;Location: 25521 - 25728" locus_tag="CDDIDNMG_01060" class="clusterblast-orf" id="dummy-1_q3_0_all"  />
<polygon points="70,35 75,30 79,30 79,40 75,40 70,35 " style="fill:white; stroke-width:1; stroke:black; " description="&lt;b&gt;CDDIDNMG_01061&lt;/b&gt;&lt;br&gt;FMN-dependent NADH-azoreductase&lt;br&gt;Location: 25966 - 26557" locus_tag="CDDIDNMG_01061" class="clusterblast-orf" id="dummy-1_q4_0_all"  />
<polygon points="83,35 88,30 100,30 100,40 88,40 83,35 " style="fill:white; stroke-width:1; stroke:black; " description="&lt;b&gt;CDDIDNMG_01062&lt;/b&gt;&lt;br&gt;N-ethylmaleimide reductase&lt;br&gt;Location: 26843 - 27926" locus_tag="CDDIDNMG_01062" class="clusterblast-orf" id="dummy-1_q5_0_all"  />
<polygon points="103,35 108,30 131,30 131,40 108,40 103,35 " style="fill:white; stroke-width:1; stroke:black; " description="&lt;b&gt;CDDIDNMG_01063&lt;/b&gt;&lt;br&gt;UvrABC system protein C&lt;br&gt;Location: 28152 - 30009" locus_tag="CDDIDNMG_01063" class="clusterblast-orf" id="dummy-1_q6_0_all"  />
<polygon points="136,35 141,30 148,30 148,40 141,40 136,35 " style="fill:white; stroke-width:1; stroke:black; " description="&lt;b&gt;CDDIDNMG_01064&lt;/b&gt;&lt;br&gt;3-oxoacyl-[acyl-carrier-protein] reductase FabG&lt;br&gt;Location: 30319 - 31096" locus_tag="CDDIDNMG_01064" class="clusterblast-orf" id="dummy-1_q7_0_all"  />
<polygon points="148,35 152,30 152,40 148,35 " style="fill:white; stroke-width:1; stroke:black; " description="&lt;b&gt;CDDIDNMG_01065&lt;/b&gt;&lt;br&gt;hypothetical protein&lt;br&gt;Location: 31092 - 31338" locus_tag="CDDIDNMG_01065" class="clusterblast-orf" id="dummy-1_q8_0_all"  />
<polygon points="151,35 156,30 163,30 163,40 156,40 151,35 " style="fill:white; stroke-width:1; stroke:black; " description="&lt;b&gt;CDDIDNMG_01066&lt;/b&gt;&lt;br&gt;hypothetical protein&lt;br&gt;Location: 31285 - 32074" locus_tag="CDDIDNMG_01066" class="clusterblast-orf" id="dummy-1_q9_0_all"  />
<polygon points="165,40 173,40 178,35 173,30 165,30 165,40 " style="fill:white; stroke-width:1; stroke:black; " description="&lt;b&gt;CDDIDNMG_01067&lt;/b&gt;&lt;br&gt;HTH-type transcriptional regulator CynR&lt;br&gt;Location: 32204 - 33095" locus_tag="CDDIDNMG_01067" class="clusterblast-orf" id="dummy-1_q10_0_all"  />
<polygon points="180,40 182,40 187,35 182,30 180,30 180,40 " style="fill:white; stroke-width:1; stroke:black; " description="&lt;b&gt;CDDIDNMG_01068&lt;/b&gt;&lt;br&gt;NADP-reducing hydrogenase subunit HndA&lt;br&gt;Location: 33190 - 33658" locus_tag="CDDIDNMG_01068" class="clusterblast-orf" id="dummy-1_q11_0_all"  />
<polygon points="187,40 205,40 210,35 205,30 187,30 187,40 " style="fill:white; stroke-width:1; stroke:black; " description="&lt;b&gt;CDDIDNMG_01069&lt;/b&gt;&lt;br&gt;NADP-reducing hydrogenase subunit HndC&lt;br&gt;Location: 33654 - 35181" locus_tag="CDDIDNMG_01069" class="clusterblast-orf" id="dummy-1_q12_0_all"  />
<polygon points="210,40 249,40 254,35 249,30 210,30 210,40 " style="fill:white; stroke-width:1; stroke:black; " description="&lt;b&gt;CDDIDNMG_01070&lt;/b&gt;&lt;br&gt;Putative formate dehydrogenase&lt;br&gt;Location: 35177 - 38069" locus_tag="CDDIDNMG_01070" class="clusterblast-orf" id="dummy-1_q13_0_all"  />
<polygon points="254,40 262,40 267,35 262,30 254,30 254,40 " style="fill:white; stroke-width:1; stroke:black; " description="&lt;b&gt;CDDIDNMG_01071&lt;/b&gt;&lt;br&gt;Sulfur carrier protein FdhD&lt;br&gt;Location: 38068 - 38875" locus_tag="CDDIDNMG_01071" class="clusterblast-orf" id="dummy-1_q14_0_all"  />
<polygon points="267,40 270,35 267,30 267,40 " style="fill:white; stroke-width:1; stroke:black; " description="&lt;b&gt;CDDIDNMG_01072&lt;/b&gt;&lt;br&gt;hypothetical protein&lt;br&gt;Location: 38864 - 39113" locus_tag="CDDIDNMG_01072" class="clusterblast-orf" id="dummy-1_q15_0_all"  />
<polygon points="273,40 279,40 284,35 279,30 273,30 273,40 " style="fill:white; stroke-width:1; stroke:black; " description="&lt;b&gt;CDDIDNMG_01073&lt;/b&gt;&lt;br&gt;hypothetical protein&lt;br&gt;Location: 39271 - 40003" locus_tag="CDDIDNMG_01073" class="clusterblast-orf" id="dummy-1_q16_0_all"  />
<polygon points="284,35 289,30 294,30 294,40 289,40 284,35 " style="fill:white; stroke-width:1; stroke:black; " description="&lt;b&gt;CDDIDNMG_01074&lt;/b&gt;&lt;br&gt;4'-phosphopantetheinyl transferase Npt&lt;br&gt;Location: 39992 - 40640" locus_tag="CDDIDNMG_01074" class="clusterblast-orf" id="dummy-1_q17_0_all"  />
<polygon points="294,35 299,30 362,30 362,40 299,40 294,35 " style="fill:white; stroke-width:1; stroke:black; " description="&lt;b&gt;CDDIDNMG_01075&lt;/b&gt;&lt;br&gt;D-alanine--D-alanyl carrier protein ligase&lt;br&gt;Location: 40632 - 45123" locus_tag="CDDIDNMG_01075" class="clusterblast-orf" id="dummy-1_q18_0_all"  />
<polygon points="362,35 367,30 378,30 378,40 367,40 362,35 " style="fill:white; stroke-width:1; stroke:black; " description="&lt;b&gt;CDDIDNMG_01076&lt;/b&gt;&lt;br&gt;hypothetical protein&lt;br&gt;Location: 45133 - 46141" locus_tag="CDDIDNMG_01076" class="clusterblast-orf" id="dummy-1_q19_0_all"  />
<polygon points="378,35 383,30 475,30 475,40 383,40 378,35 " style="fill:white; stroke-width:1; stroke:black; " description="&lt;b&gt;CDDIDNMG_01077&lt;/b&gt;&lt;br&gt;hypothetical protein&lt;br&gt;Location: 46143 - 52527" locus_tag="CDDIDNMG_01077" class="clusterblast-orf" id="dummy-1_q20_0_all"  />
<polygon points="478,35 483,30 493,30 493,40 483,40 478,35 " style="fill:white; stroke-width:1; stroke:black; " description="&lt;b&gt;CDDIDNMG_01078&lt;/b&gt;&lt;br&gt;hypothetical protein&lt;br&gt;Location: 52707 - 53700" locus_tag="CDDIDNMG_01078" class="clusterblast-orf" id="dummy-1_q21_0_all"  />
<polygon points="493,35 498,30 515,30 515,40 498,40 493,35 " style="fill:white; stroke-width:1; stroke:black; " description="&lt;b&gt;CDDIDNMG_01079&lt;/b&gt;&lt;br&gt;hypothetical protein&lt;br&gt;Location: 53699 - 55118" locus_tag="CDDIDNMG_01079" class="clusterblast-orf" id="dummy-1_q22_0_all"  />
<polygon points="516,35 521,30 530,30 530,40 521,40 516,35 " style="fill:white; stroke-width:1; stroke:black; " description="&lt;b&gt;CDDIDNMG_01080&lt;/b&gt;&lt;br&gt;hypothetical protein&lt;br&gt;Location: 55199 - 56111" locus_tag="CDDIDNMG_01080" class="clusterblast-orf" id="dummy-1_q23_0_all"  />
<polygon points="532,40 538,40 543,35 538,30 532,30 532,40 " style="fill:white; stroke-width:1; stroke:black; " description="&lt;b&gt;CDDIDNMG_01081&lt;/b&gt;&lt;br&gt;N-acetylglucosaminyldiphosphoundecaprenol N-acetyl-beta-D-mannosaminyltransferase&lt;br&gt;Location: 56238 - 56985" locus_tag="CDDIDNMG_01081" class="clusterblast-orf" id="dummy-1_q24_0_all"  />
<polygon points="543,35 548,30 558,30 558,40 548,40 543,35 " style="fill:white; stroke-width:1; stroke:black; " description="&lt;b&gt;CDDIDNMG_01082&lt;/b&gt;&lt;br&gt;hypothetical protein&lt;br&gt;Location: 56985 - 57969" locus_tag="CDDIDNMG_01082" class="clusterblast-orf" id="dummy-1_q25_0_all"  />
<polygon points="563,40 571,40 576,35 571,30 563,30 563,40 " style="fill:white; stroke-width:1; stroke:black; " description="&lt;b&gt;CDDIDNMG_01083&lt;/b&gt;&lt;br&gt;hypothetical protein&lt;br&gt;Location: 58273 - 59143" locus_tag="CDDIDNMG_01083" class="clusterblast-orf" id="dummy-1_q26_0_all"  />
<polygon points="576,40 592,40 597,35 592,30 576,30 576,40 " style="fill:white; stroke-width:1; stroke:black; " description="&lt;b&gt;CDDIDNMG_01084&lt;/b&gt;&lt;br&gt;hypothetical protein&lt;br&gt;Location: 59146 - 60505" locus_tag="CDDIDNMG_01084" class="clusterblast-orf" id="dummy-1_q27_0_all"  />
<polygon points="600,35 605,30 611,30 611,40 605,40 600,35 " style="fill:white; stroke-width:1; stroke:black; " description="&lt;b&gt;CDDIDNMG_01085&lt;/b&gt;&lt;br&gt;Undecaprenyl phosphate N,N'-diacetylbacillosamine 1-phosphate transferase&lt;br&gt;Location: 60672 - 61392" locus_tag="CDDIDNMG_01085" class="clusterblast-orf" id="dummy-1_q28_0_all"  />
<polygon points="617,35 620,30 620,40 617,35 " style="fill:white; stroke-width:1; stroke:black; " description="&lt;b&gt;CDDIDNMG_01086&lt;/b&gt;&lt;br&gt;hypothetical protein&lt;br&gt;Location: 61822 - 62017" locus_tag="CDDIDNMG_01086" class="clusterblast-orf" id="dummy-1_q29_0_all"  />
<polygon points="622,35 627,30 635,30 635,40 627,40 622,35 " style="fill:#d81515; stroke-width:1; stroke:black; " description="&lt;b&gt;CDDIDNMG_01087&lt;/b&gt;&lt;br&gt;Glucose-1-phosphate thymidylyltransferase&lt;br&gt;Location: 62130 - 63003" locus_tag="CDDIDNMG_01087" class="clusterblast-orf" id="dummy-1_q30_0_all"  />
<polygon points="635,35 640,30 648,30 648,40 640,40 635,35 " style="fill:white; stroke-width:1; stroke:black; " description="&lt;b&gt;CDDIDNMG_01088&lt;/b&gt;&lt;br&gt;dTDP-4-dehydrorhamnose reductase&lt;br&gt;Location: 62999 - 63851" locus_tag="CDDIDNMG_01088" class="clusterblast-orf" id="dummy-1_q31_0_all"  />
<polygon points="649,35 654,30 665,30 665,40 654,40 649,35 " style="fill:#15d8d8; stroke-width:1; stroke:black; " description="&lt;b&gt;CDDIDNMG_01089&lt;/b&gt;&lt;br&gt;dTDP-glucose 4,6-dehydratase 2&lt;br&gt;Location: 63906 - 64947" locus_tag="CDDIDNMG_01089" class="clusterblast-orf" id="dummy-1_q32_0_all"  />
<polygon points="665,35 670,30 674,30 674,40 670,40 665,35 " style="fill:white; stroke-width:1; stroke:black; " description="&lt;b&gt;CDDIDNMG_01090&lt;/b&gt;&lt;br&gt;dTDP-4-dehydrorhamnose 3,5-epimerase&lt;br&gt;Location: 64943 - 65507" locus_tag="CDDIDNMG_01090" class="clusterblast-orf" id="dummy-1_q33_0_all"  />
<polygon points="675,35 680,30 695,30 695,40 680,40 675,35 " style="fill:white; stroke-width:1; stroke:black; " description="&lt;b&gt;CDDIDNMG_01091&lt;/b&gt;&lt;br&gt;hypothetical protein&lt;br&gt;Location: 65582 - 66935" locus_tag="CDDIDNMG_01091" class="clusterblast-orf" id="dummy-1_q34_0_all"  />
<polygon points="698,40 712,40 717,35 712,30 698,30 698,40 " style="fill:white; stroke-width:1; stroke:black; " description="&lt;b&gt;CDDIDNMG_01092&lt;/b&gt;&lt;br&gt;D-inositol-3-phosphate glycosyltransferase&lt;br&gt;Location: 67098 - 68370" locus_tag="CDDIDNMG_01092" class="clusterblast-orf" id="dummy-1_q35_0_all"  />
<polygon points="717,40 724,40 729,35 724,30 717,30 717,40 " style="fill:white; stroke-width:1; stroke:black; " description="&lt;b&gt;CDDIDNMG_01093&lt;/b&gt;&lt;br&gt;hypothetical protein&lt;br&gt;Location: 68366 - 69152" locus_tag="CDDIDNMG_01093" class="clusterblast-orf" id="dummy-1_q36_0_all"  />
<polygon points="732,35 737,30 742,30 742,40 737,40 732,35 " style="fill:white; stroke-width:1; stroke:black; " description="&lt;b&gt;CDDIDNMG_01094&lt;/b&gt;&lt;br&gt;hypothetical protein&lt;br&gt;Location: 69322 - 69955" locus_tag="CDDIDNMG_01094" class="clusterblast-orf" id="dummy-1_q37_0_all"  />
<polygon points="743,40 752,40 757,35 752,30 743,30 743,40 " style="fill:white; stroke-width:1; stroke:black; " description="&lt;b&gt;CDDIDNMG_01095&lt;/b&gt;&lt;br&gt;Chaperedoxin&lt;br&gt;Location: 70069 - 70984" locus_tag="CDDIDNMG_01095" class="clusterblast-orf" id="dummy-1_q38_0_all"  />
<polygon points="758,40 763,40 768,35 763,30 758,30 758,40 " style="fill:white; stroke-width:1; stroke:black; " description="&lt;b&gt;CDDIDNMG_01096&lt;/b&gt;&lt;br&gt;hypothetical protein&lt;br&gt;Location: 71013 - 71652" locus_tag="CDDIDNMG_01096" class="clusterblast-orf" id="dummy-1_q39_0_all"  />
<polygon points="767,40 770,35 767,30 767,40 " style="fill:white; stroke-width:1; stroke:black; " description="&lt;b&gt;CDDIDNMG_01097&lt;/b&gt;&lt;br&gt;hypothetical protein&lt;br&gt;Location: 71648 - 71843" locus_tag="CDDIDNMG_01097" class="clusterblast-orf" id="dummy-1_q40_0_all"  />
<polygon points="771,35 776,30 780,30 780,40 776,40 771,35 " style="fill:white; stroke-width:1; stroke:black; " description="&lt;b&gt;CDDIDNMG_01098&lt;/b&gt;&lt;br&gt;hypothetical protein&lt;br&gt;Location: 71864 - 72446" locus_tag="CDDIDNMG_01098" class="clusterblast-orf" id="dummy-1_q41_0_all"  />
</g>
<g label="AF235050" description="AF235050_c2: coumermycin noviose deoxysugar (33% of genes show similarity), sugar" class="clusterblast-cluster"  >
<text x="5" y="70" class="clusterblast-acc"  >
AF235050_c2: coumermycin noviose deoxysugar (33% of genes show similarity), sugar</text>
<line x1="10" y1="85" x2="778.0" y2="85" style="stroke-width:1; stroke:grey; "  />
</g>
<g id="a1_000"  >
<polygon points="287,85 292,80 296,80 296,90 292,90 287,85 " style="fill:white; stroke-width:1; stroke:black; " description="&lt;b&gt;AF235050_2_couW&lt;/b&gt;&lt;br&gt;dTDP-4-keto-6-deoxyglucose 3,5-epimerase&lt;br&gt;Location: 35365 - 34769" locus_tag="AF235050_2_couW" class="clusterblast-orf" id="dummy-1_h1_7_0"  />
</g>
<g id="a1_001"  >
<polygon points="296,85 301,80 310,80 310,90 301,90 296,85 " style="fill:#d81515; stroke-width:1; stroke:black; " description="&lt;b&gt;AF235050_2_couV&lt;/b&gt;&lt;br&gt;dTDP-glucose synthase&lt;br&gt;Location: 34772 - 33882&lt;br&gt;&lt;br&gt;&lt;b&gt;BlastP hit with CDDIDNMG_01087&lt;/b&gt;&lt;br&gt;Percentage identity: 53&lt;br&gt;Percentage coverage: 99&lt;br&gt;BLAST bit score: 298&lt;br&gt;E-value: 3.2e-103" locus_tag="AF235050_2_couV" class="clusterblast-orf" id="dummy-1_h1_7_1"  />
</g>
<g id="a1_002"  >
<polygon points="311,85 316,80 330,80 330,90 316,90 311,85 " style="fill:white; stroke-width:1; stroke:black; " description="&lt;b&gt;AF235050_2_couU&lt;/b&gt;&lt;br&gt;C-methyltransferase&lt;br&gt;Location: 33823 - 32561" locus_tag="AF235050_2_couU" class="clusterblast-orf" id="dummy-1_h1_7_2"  />
</g>
<g id="a1_003"  >
<polygon points="334,85 339,80 349,80 349,90 339,90 334,85 " style="fill:#15d8d8; stroke-width:1; stroke:black; " description="&lt;b&gt;AF235050_2_couT&lt;/b&gt;&lt;br&gt;dTDP-glucose 4,6-dehydratase&lt;br&gt;Location: 32335 - 31325&lt;br&gt;&lt;br&gt;&lt;b&gt;BlastP hit with CDDIDNMG_01089&lt;/b&gt;&lt;br&gt;Percentage identity: 46&lt;br&gt;Percentage coverage: 98&lt;br&gt;BLAST bit score: 266&lt;br&gt;E-value: 3.88e-89" locus_tag="AF235050_2_couT" class="clusterblast-orf" id="dummy-1_h1_7_3"  />
</g>
<g id="a1_004"  >
<polygon points="350,85 355,80 363,80 363,90 355,90 350,85 " style="fill:white; stroke-width:1; stroke:black; " description="&lt;b&gt;AF235050_2_couS&lt;/b&gt;&lt;br&gt;dTDP-4-keto-6-deoxyhexose reductase&lt;br&gt;Location: 31291 - 30425" locus_tag="AF235050_2_couS" class="clusterblast-orf" id="dummy-1_h1_7_4"  />
</g>
<g id="a1_005"  >
<polygon points="479,85 484,80 492,80 492,90 484,90 479,85 " style="fill:white; stroke-width:1; stroke:black; " description="&lt;b&gt;AF235050_2_couP&lt;/b&gt;&lt;br&gt;O-methyltransferase&lt;br&gt;Location: 22814 - 21984" locus_tag="AF235050_2_couP" class="clusterblast-orf" id="dummy-1_h1_7_5"  />
</g>
</svg>
