<svg xmlns="http://www.w3.org/2000/svg" xmlns:xlink="http://www.w3.org/1999/xlink" version="1.1" x="0" y="0" height="230" width="800" viewBox="0 0 800 230" preserveAspectRatio="none"  >
<g label="Query sequence" class="clusterblast-cluster"  >
<text x="5" y="20" class="clusterblast-acc"  >
Query sequence</text>
<line x1="10" y1="35" x2="778.0" y2="35" style="stroke-width:1; stroke:grey; "  />
<polygon points="9,35 14,30 15,30 15,40 14,40 9,35 " style="fill:white; stroke-width:1; stroke:black; " description="&lt;b&gt;JDHOFBHF_03696&lt;/b&gt;&lt;br&gt;hypothetical protein&lt;br&gt;Location: 6018 - 6414" locus_tag="JDHOFBHF_03696" class="clusterblast-orf" id="dummy-1_q0_0_all"  />
<polygon points="16,35 21,30 21,30 21,40 21,40 16,35 " style="fill:white; stroke-width:1; stroke:black; " description="&lt;b&gt;JDHOFBHF_03697&lt;/b&gt;&lt;br&gt;hypothetical protein&lt;br&gt;Location: 6463 - 6844" locus_tag="JDHOFBHF_03697" class="clusterblast-orf" id="dummy-1_q1_0_all"  />
<polygon points="22,40 22,40 27,35 22,30 22,30 22,40 " style="fill:white; stroke-width:1; stroke:black; " description="&lt;b&gt;JDHOFBHF_03698&lt;/b&gt;&lt;br&gt;hypothetical protein&lt;br&gt;Location: 6865 - 7249" locus_tag="JDHOFBHF_03698" class="clusterblast-orf" id="dummy-1_q2_0_all"  />
<polygon points="27,35 32,30 52,30 52,40 32,40 27,35 " style="fill:white; stroke-width:1; stroke:black; " description="&lt;b&gt;JDHOFBHF_03699&lt;/b&gt;&lt;br&gt;C4-dicarboxylic acid transporter DauA&lt;br&gt;Location: 7239 - 8889" locus_tag="JDHOFBHF_03699" class="clusterblast-orf" id="dummy-1_q3_0_all"  />
<polygon points="56,40 56,40 61,35 56,30 56,30 56,40 " style="fill:white; stroke-width:1; stroke:black; " description="&lt;b&gt;JDHOFBHF_03700&lt;/b&gt;&lt;br&gt;hypothetical protein&lt;br&gt;Location: 9128 - 9509" locus_tag="JDHOFBHF_03700" class="clusterblast-orf" id="dummy-1_q4_0_all"  />
<polygon points="62,40 78,40 83,35 78,30 62,30 62,40 " style="fill:white; stroke-width:1; stroke:black; " description="&lt;b&gt;JDHOFBHF_03701&lt;/b&gt;&lt;br&gt;cytosol aminopeptidase&lt;br&gt;Location: 9586 - 10987" locus_tag="JDHOFBHF_03701" class="clusterblast-orf" id="dummy-1_q5_0_all"  />
<polygon points="83,40 91,40 96,35 91,30 83,30 83,40 " style="fill:white; stroke-width:1; stroke:black; " description="&lt;b&gt;JDHOFBHF_03702&lt;/b&gt;&lt;br&gt;hypothetical protein&lt;br&gt;Location: 10983 - 11805" locus_tag="JDHOFBHF_03702" class="clusterblast-orf" id="dummy-1_q6_0_all"  />
<polygon points="96,35 101,30 133,30 133,40 101,40 96,35 " style="fill:white; stroke-width:1; stroke:black; " description="&lt;b&gt;JDHOFBHF_03703&lt;/b&gt;&lt;br&gt;ATP-dependent RNA helicase HrpB&lt;br&gt;Location: 11862 - 14295" locus_tag="JDHOFBHF_03703" class="clusterblast-orf" id="dummy-1_q7_0_all"  />
<polygon points="133,35 138,30 140,30 140,40 138,40 133,35 " style="fill:white; stroke-width:1; stroke:black; " description="&lt;b&gt;JDHOFBHF_03704&lt;/b&gt;&lt;br&gt;hypothetical protein&lt;br&gt;Location: 14327 - 14795" locus_tag="JDHOFBHF_03704" class="clusterblast-orf" id="dummy-1_q8_0_all"  />
<polygon points="142,40 157,40 162,35 157,30 142,30 142,40 " style="fill:white; stroke-width:1; stroke:black; " description="&lt;b&gt;JDHOFBHF_03705&lt;/b&gt;&lt;br&gt;Homogentisate 1,2-dioxygenase&lt;br&gt;Location: 14889 - 16245" locus_tag="JDHOFBHF_03705" class="clusterblast-orf" id="dummy-1_q9_0_all"  />
<polygon points="162,40 170,40 175,35 170,30 162,30 162,40 " style="fill:white; stroke-width:1; stroke:black; " description="&lt;b&gt;JDHOFBHF_03706&lt;/b&gt;&lt;br&gt;Ribonuclease BN&lt;br&gt;Location: 16247 - 17093" locus_tag="JDHOFBHF_03706" class="clusterblast-orf" id="dummy-1_q10_0_all"  />
<polygon points="175,40 189,40 194,35 189,30 175,30 175,40 " style="fill:white; stroke-width:1; stroke:black; " description="&lt;b&gt;JDHOFBHF_03707&lt;/b&gt;&lt;br&gt;hypothetical protein&lt;br&gt;Location: 17103 - 18351" locus_tag="JDHOFBHF_03707" class="clusterblast-orf" id="dummy-1_q11_0_all"  />
<polygon points="195,40 204,40 209,35 204,30 195,30 195,40 " style="fill:white; stroke-width:1; stroke:black; " description="&lt;b&gt;JDHOFBHF_03708&lt;/b&gt;&lt;br&gt;hypothetical protein&lt;br&gt;Location: 18425 - 19376" locus_tag="JDHOFBHF_03708" class="clusterblast-orf" id="dummy-1_q12_0_all"  />
<polygon points="209,40 212,35 209,30 209,40 " style="fill:white; stroke-width:1; stroke:black; " description="&lt;b&gt;JDHOFBHF_03709&lt;/b&gt;&lt;br&gt;hypothetical protein&lt;br&gt;Location: 19372 - 19576" locus_tag="JDHOFBHF_03709" class="clusterblast-orf" id="dummy-1_q13_0_all"  />
<polygon points="212,40 231,40 236,35 231,30 212,30 212,40 " style="fill:white; stroke-width:1; stroke:black; " description="&lt;b&gt;JDHOFBHF_03710&lt;/b&gt;&lt;br&gt;3-(3-hydroxy-phenyl)propionate/3-hydroxycinnamic acid hydroxylase&lt;br&gt;Location: 19572 - 21195" locus_tag="JDHOFBHF_03710" class="clusterblast-orf" id="dummy-1_q14_0_all"  />
<polygon points="236,40 239,35 236,30 236,40 " style="fill:white; stroke-width:1; stroke:black; " description="&lt;b&gt;JDHOFBHF_03711&lt;/b&gt;&lt;br&gt;hypothetical protein&lt;br&gt;Location: 21187 - 21394" locus_tag="JDHOFBHF_03711" class="clusterblast-orf" id="dummy-1_q15_0_all"  />
<polygon points="242,40 250,40 255,35 250,30 242,30 242,40 " style="fill:#d81515; stroke-width:1; stroke:black; " description="&lt;b&gt;JDHOFBHF_03712&lt;/b&gt;&lt;br&gt;hypothetical protein&lt;br&gt;Location: 21542 - 22433" locus_tag="JDHOFBHF_03712" class="clusterblast-orf" id="dummy-1_q16_0_all"  />
<polygon points="255,40 271,40 276,35 271,30 255,30 255,40 " style="fill:#3cd815; stroke-width:1; stroke:black; " description="&lt;b&gt;JDHOFBHF_03713&lt;/b&gt;&lt;br&gt;hypothetical protein&lt;br&gt;Location: 22448 - 23813" locus_tag="JDHOFBHF_03713" class="clusterblast-orf" id="dummy-1_q17_0_all"  />
<polygon points="276,40 293,40 298,35 293,30 276,30 276,40 " style="fill:#1563d8; stroke-width:1; stroke:black; " description="&lt;b&gt;JDHOFBHF_03714&lt;/b&gt;&lt;br&gt;hypothetical protein&lt;br&gt;Location: 23823 - 25332" locus_tag="JDHOFBHF_03714" class="clusterblast-orf" id="dummy-1_q18_0_all"  />
<polygon points="298,40 388,40 393,35 388,30 298,30 298,40 " style="fill:#b115d8; stroke-width:1; stroke:black; " description="&lt;b&gt;JDHOFBHF_03715&lt;/b&gt;&lt;br&gt;hypothetical protein&lt;br&gt;Location: 25328 - 31661" locus_tag="JDHOFBHF_03715" class="clusterblast-orf" id="dummy-1_q19_0_all"  />
<polygon points="393,40 403,40 408,35 403,30 393,30 393,40 " style="fill:#d88a15; stroke-width:1; stroke:black; " description="&lt;b&gt;JDHOFBHF_03716&lt;/b&gt;&lt;br&gt;hypothetical protein&lt;br&gt;Location: 31657 - 32644" locus_tag="JDHOFBHF_03716" class="clusterblast-orf" id="dummy-1_q20_0_all"  />
<polygon points="408,40 471,40 476,35 471,30 408,30 408,40 " style="fill:#15d863; stroke-width:1; stroke:black; " description="&lt;b&gt;JDHOFBHF_03717&lt;/b&gt;&lt;br&gt;D-alanine--D-alanyl carrier protein ligase&lt;br&gt;Location: 32653 - 37183" locus_tag="JDHOFBHF_03717" class="clusterblast-orf" id="dummy-1_q21_0_all"  />
<polygon points="476,40 481,40 486,35 481,30 476,30 476,40 " style="fill:#3c15d8; stroke-width:1; stroke:black; " description="&lt;b&gt;JDHOFBHF_03718&lt;/b&gt;&lt;br&gt;hypothetical protein&lt;br&gt;Location: 37179 - 37881" locus_tag="JDHOFBHF_03718" class="clusterblast-orf" id="dummy-1_q22_0_all"  />
<polygon points="490,40 494,35 490,30 490,40 " style="fill:white; stroke-width:1; stroke:black; " description="&lt;b&gt;JDHOFBHF_03719&lt;/b&gt;&lt;br&gt;hypothetical protein&lt;br&gt;Location: 38093 - 38405" locus_tag="JDHOFBHF_03719" class="clusterblast-orf" id="dummy-1_q23_0_all"  />
<polygon points="495,35 500,30 503,30 503,40 500,40 495,35 " style="fill:white; stroke-width:1; stroke:black; " description="&lt;b&gt;JDHOFBHF_03720&lt;/b&gt;&lt;br&gt;hypothetical protein&lt;br&gt;Location: 38477 - 38975" locus_tag="JDHOFBHF_03720" class="clusterblast-orf" id="dummy-1_q24_0_all"  />
<polygon points="503,35 508,30 509,30 509,40 508,40 503,35 " style="fill:white; stroke-width:1; stroke:black; " description="&lt;b&gt;JDHOFBHF_03721&lt;/b&gt;&lt;br&gt;hypothetical protein&lt;br&gt;Location: 39009 - 39369" locus_tag="JDHOFBHF_03721" class="clusterblast-orf" id="dummy-1_q25_0_all"  />
<polygon points="509,35 514,30 518,30 518,40 514,40 509,35 " style="fill:white; stroke-width:1; stroke:black; " description="&lt;b&gt;JDHOFBHF_03722&lt;/b&gt;&lt;br&gt;Short-chain-enoyl-CoA hydratase&lt;br&gt;Location: 39407 - 40022" locus_tag="JDHOFBHF_03722" class="clusterblast-orf" id="dummy-1_q26_0_all"  />
<polygon points="518,35 523,30 530,30 530,40 523,40 518,35 " style="fill:white; stroke-width:1; stroke:black; " description="&lt;b&gt;JDHOFBHF_03723&lt;/b&gt;&lt;br&gt;3-phenylpropionate-dihydrodiol/cinnamic acid-dihydrodiol dehydrogenase&lt;br&gt;Location: 40018 - 40768" locus_tag="JDHOFBHF_03723" class="clusterblast-orf" id="dummy-1_q27_0_all"  />
<polygon points="530,35 535,30 587,30 587,40 535,40 530,35 " style="fill:#d8158a; stroke-width:1; stroke:black; " description="&lt;b&gt;JDHOFBHF_03724&lt;/b&gt;&lt;br&gt;hypothetical protein&lt;br&gt;Location: 40778 - 44609" locus_tag="JDHOFBHF_03724" class="clusterblast-orf" id="dummy-1_q28_0_all"  />
<polygon points="587,35 592,30 615,30 615,40 592,40 587,35 " style="fill:#b1d815; stroke-width:1; stroke:black; " description="&lt;b&gt;JDHOFBHF_03725&lt;/b&gt;&lt;br&gt;Outer membrane protein assembly factor BamA&lt;br&gt;Location: 44608 - 46435" locus_tag="JDHOFBHF_03725" class="clusterblast-orf" id="dummy-1_q29_0_all"  />
<polygon points="618,40 633,40 638,35 633,30 618,30 618,40 " style="fill:white; stroke-width:1; stroke:black; " description="&lt;b&gt;JDHOFBHF_03726&lt;/b&gt;&lt;br&gt;Adenosylhomocysteinase&lt;br&gt;Location: 46637 - 48026" locus_tag="JDHOFBHF_03726" class="clusterblast-orf" id="dummy-1_q30_0_all"  />
<polygon points="640,40 667,40 672,35 667,30 640,30 640,40 " style="fill:white; stroke-width:1; stroke:black; " description="&lt;b&gt;JDHOFBHF_03727&lt;/b&gt;&lt;br&gt;hypothetical protein&lt;br&gt;Location: 48099 - 50247" locus_tag="JDHOFBHF_03727" class="clusterblast-orf" id="dummy-1_q31_0_all"  />
<polygon points="681,40 685,35 681,30 681,40 " style="fill:white; stroke-width:1; stroke:black; " description="&lt;b&gt;JDHOFBHF_03728&lt;/b&gt;&lt;br&gt;hypothetical protein&lt;br&gt;Location: 50868 - 51120" locus_tag="JDHOFBHF_03728" class="clusterblast-orf" id="dummy-1_q32_0_all"  />
<polygon points="688,40 696,40 701,35 696,30 688,30 688,40 " style="fill:white; stroke-width:1; stroke:black; " description="&lt;b&gt;JDHOFBHF_03730&lt;/b&gt;&lt;br&gt;Polyphosphate:NDP phosphotransferase 3&lt;br&gt;Location: 51310 - 52204" locus_tag="JDHOFBHF_03730" class="clusterblast-orf" id="dummy-1_q33_0_all"  />
<polygon points="702,40 710,40 715,35 710,30 702,30 702,40 " style="fill:white; stroke-width:1; stroke:black; " description="&lt;b&gt;JDHOFBHF_03731&lt;/b&gt;&lt;br&gt;Arsenate reductase&lt;br&gt;Location: 52273 - 53125" locus_tag="JDHOFBHF_03731" class="clusterblast-orf" id="dummy-1_q34_0_all"  />
<polygon points="715,40 725,40 730,35 725,30 715,30 715,40 " style="fill:#15d8d8; stroke-width:1; stroke:black; " description="&lt;b&gt;JDHOFBHF_03732&lt;/b&gt;&lt;br&gt;Glyceraldehyde-3-phosphate dehydrogenase 3&lt;br&gt;Location: 53121 - 54132" locus_tag="JDHOFBHF_03732" class="clusterblast-orf" id="dummy-1_q35_0_all"  />
<polygon points="731,40 745,40 750,35 745,30 731,30 731,40 " style="fill:white; stroke-width:1; stroke:black; " description="&lt;b&gt;JDHOFBHF_03733&lt;/b&gt;&lt;br&gt;hypothetical protein&lt;br&gt;Location: 54224 - 55472" locus_tag="JDHOFBHF_03733" class="clusterblast-orf" id="dummy-1_q36_0_all"  />
<polygon points="750,35 755,30 770,30 770,40 755,40 750,35 " style="fill:white; stroke-width:1; stroke:black; " description="&lt;b&gt;JDHOFBHF_03734&lt;/b&gt;&lt;br&gt;protein kinase UbiB&lt;br&gt;Location: 55468 - 56830" locus_tag="JDHOFBHF_03734" class="clusterblast-orf" id="dummy-1_q37_0_all"  />
</g>
<g label="NZ_CP010741" description="NZ_CP010741 (562259-614446): Phaeobacter inhibens strain P59 chromosome, comp... (26% of genes show similarity), NRPS-like,T1PKS" class="clusterblast-cluster"  >
<text x="5" y="70" class="clusterblast-acc"  >
<a xlink:href="https://antismash-db.secondarymetabolites.org/area.html?record=NZ_CP010741&amp;start=562259&amp;end=614446" target="_blank">NZ_CP010741 (562259-614446)</a>: Phaeobacter inhibens strain P59 chromosome, comp... (26% of genes show similarity), NRPS-like,T1PKS</text>
<line x1="10" y1="85" x2="778.0" y2="85" style="stroke-width:1; stroke:grey; "  />
</g>
<g id="a1_000"  >
<polygon points="0,90 2,90 7,85 2,80 0,80 0,90 " style="fill:white; stroke-width:1; stroke:black; " description="&lt;b&gt;PhaeoP59_RS02790&lt;/b&gt;&lt;br&gt;hypothetical protein&lt;br&gt;Location: 614327 - 613827" locus_tag="PhaeoP59_RS02790" class="clusterblast-orf" id="dummy-1_h1_9_0"  />
</g>
<g id="a1_001"  >
<polygon points="8,90 19,90 24,85 19,80 8,80 8,90 " style="fill:#15d8d8; stroke-width:1; stroke:black; " description="&lt;b&gt;PhaeoP59_RS02785&lt;/b&gt;&lt;br&gt;hypothetical protein&lt;br&gt;Location: 613778 - 612717&lt;br&gt;&lt;br&gt;&lt;b&gt;BlastP hit with JDHOFBHF_03732&lt;/b&gt;&lt;br&gt;Percentage identity: 39&lt;br&gt;Percentage coverage: 99&lt;br&gt;BLAST bit score: 234&lt;br&gt;E-value: 9.97e-73" locus_tag="PhaeoP59_RS02785" class="clusterblast-orf" id="dummy-1_h1_9_1"  />
</g>
<g id="a1_002"  >
<polygon points="25,85 30,80 47,80 47,90 30,90 25,85 " style="fill:white; stroke-width:1; stroke:black; " description="&lt;b&gt;PhaeoP59_RS02780&lt;/b&gt;&lt;br&gt;purine permease&lt;br&gt;Location: 612611 - 611184" locus_tag="PhaeoP59_RS02780" class="clusterblast-orf" id="dummy-1_h1_9_2"  />
</g>
<g id="a1_003"  >
<polygon points="49,85 54,80 56,80 56,90 54,90 49,85 " style="fill:white; stroke-width:1; stroke:black; " description="&lt;b&gt;PhaeoP59_RS02775&lt;/b&gt;&lt;br&gt;ureidoglycolate lyase&lt;br&gt;Location: 611048 - 610563" locus_tag="PhaeoP59_RS02775" class="clusterblast-orf" id="dummy-1_h1_9_3"  />
</g>
<g id="a1_004"  >
<polygon points="56,85 61,80 78,80 78,90 61,90 56,85 " style="fill:white; stroke-width:1; stroke:black; " description="&lt;b&gt;PhaeoP59_RS02770&lt;/b&gt;&lt;br&gt;allantoinase PuuE&lt;br&gt;Location: 610534 - 609119" locus_tag="PhaeoP59_RS02770" class="clusterblast-orf" id="dummy-1_h1_9_4"  />
</g>
<g id="a1_005"  >
<polygon points="80,90 80,90 85,85 80,80 80,80 80,90 " style="fill:white; stroke-width:1; stroke:black; " description="&lt;b&gt;PhaeoP59_RS02765&lt;/b&gt;&lt;br&gt;hydroxyisourate hydrolase&lt;br&gt;Location: 608964 - 608593" locus_tag="PhaeoP59_RS02765" class="clusterblast-orf" id="dummy-1_h1_9_5"  />
</g>
<g id="a1_006"  >
<polygon points="87,85 92,80 101,80 101,90 92,90 87,85 " style="fill:white; stroke-width:1; stroke:black; " description="&lt;b&gt;PhaeoP59_RS02760&lt;/b&gt;&lt;br&gt;LysR family transcriptional regulator&lt;br&gt;Location: 608508 - 607534" locus_tag="PhaeoP59_RS02760" class="clusterblast-orf" id="dummy-1_h1_9_6"  />
</g>
<g id="a1_007"  >
<polygon points="104,90 118,90 123,85 118,80 104,80 104,90 " style="fill:white; stroke-width:1; stroke:black; " description="&lt;b&gt;PhaeoP59_RS02755&lt;/b&gt;&lt;br&gt;urate hydroxylase PuuD&lt;br&gt;Location: 607336 - 606104" locus_tag="PhaeoP59_RS02755" class="clusterblast-orf" id="dummy-1_h1_9_7"  />
</g>
<g id="a1_008"  >
<polygon points="125,90 149,90 154,85 149,80 125,80 125,90 " style="fill:#b1d815; stroke-width:1; stroke:black; " description="&lt;b&gt;PhaeoP59_RS02750&lt;/b&gt;&lt;br&gt;BamA/TamA family outer membrane protein&lt;br&gt;Location: 605956 - 604013&lt;br&gt;&lt;br&gt;&lt;b&gt;BlastP hit with JDHOFBHF_03725&lt;/b&gt;&lt;br&gt;Percentage identity: 43&lt;br&gt;Percentage coverage: 96&lt;br&gt;BLAST bit score: 413&lt;br&gt;E-value: 8.48e-135" locus_tag="PhaeoP59_RS02750" class="clusterblast-orf" id="dummy-1_h1_9_8"  />
</g>
<g id="a1_009"  >
<polygon points="154,90 204,90 209,85 204,80 154,80 154,90 " style="fill:#d8158a; stroke-width:1; stroke:black; " description="&lt;b&gt;PhaeoP59_RS02745&lt;/b&gt;&lt;br&gt;translocation/assembly module TamB&lt;br&gt;Location: 604016 - 600351&lt;br&gt;&lt;br&gt;&lt;b&gt;BlastP hit with JDHOFBHF_03724&lt;/b&gt;&lt;br&gt;Percentage identity: 33&lt;br&gt;Percentage coverage: 100&lt;br&gt;BLAST bit score: 584&lt;br&gt;E-value: 1.9e-185" locus_tag="PhaeoP59_RS02745" class="clusterblast-orf" id="dummy-1_h1_9_9"  />
</g>
<g id="a1_0010"  >
<polygon points="209,85 214,80 224,80 224,90 214,90 209,85 " style="fill:white; stroke-width:1; stroke:black; " description="&lt;b&gt;PhaeoP59_RS02740&lt;/b&gt;&lt;br&gt;glucokinase&lt;br&gt;Location: 600324 - 599374" locus_tag="PhaeoP59_RS02740" class="clusterblast-orf" id="dummy-1_h1_9_10"  />
</g>
<g id="a1_0011"  >
<polygon points="226,90 238,90 243,85 238,80 226,80 226,90 " style="fill:white; stroke-width:1; stroke:black; " description="&lt;b&gt;PhaeoP59_RS02735&lt;/b&gt;&lt;br&gt;glycosyltransferase family 2 protein&lt;br&gt;Location: 599201 - 598092" locus_tag="PhaeoP59_RS02735" class="clusterblast-orf" id="dummy-1_h1_9_11"  />
</g>
<g id="a1_0012"  >
<polygon points="243,90 253,90 258,85 253,80 243,80 243,90 " style="fill:white; stroke-width:1; stroke:black; " description="&lt;b&gt;PhaeoP59_RS02730&lt;/b&gt;&lt;br&gt;glycosyltransferase family 2 protein&lt;br&gt;Location: 598092 - 597109" locus_tag="PhaeoP59_RS02730" class="clusterblast-orf" id="dummy-1_h1_9_12"  />
</g>
<g id="a1_0013"  >
<polygon points="258,85 263,80 269,80 269,90 263,90 258,85 " style="fill:white; stroke-width:1; stroke:black; " description="&lt;b&gt;PhaeoP59_RS02725&lt;/b&gt;&lt;br&gt;WecB/TagA/CpsF family glycosyltransferase&lt;br&gt;Location: 597089 - 596337" locus_tag="PhaeoP59_RS02725" class="clusterblast-orf" id="dummy-1_h1_9_13"  />
</g>
<g id="a1_0014"  >
<polygon points="272,90 288,90 293,85 288,80 272,80 272,90 " style="fill:#1563d8; stroke-width:1; stroke:black; " description="&lt;b&gt;PhaeoP59_RS02720&lt;/b&gt;&lt;br&gt;hypothetical protein&lt;br&gt;Location: 596175 - 594712&lt;br&gt;&lt;br&gt;&lt;b&gt;BlastP hit with JDHOFBHF_03714&lt;/b&gt;&lt;br&gt;Percentage identity: 44&lt;br&gt;Percentage coverage: 91&lt;br&gt;BLAST bit score: 380&lt;br&gt;E-value: 1.61e-125" locus_tag="PhaeoP59_RS02720" class="clusterblast-orf" id="dummy-1_h1_9_14"  />
</g>
<g id="a1_0015"  >
<polygon points="297,90 390,90 395,85 390,80 297,80 297,90 " style="fill:#b115d8; stroke-width:1; stroke:black; " description="&lt;b&gt;PhaeoP59_RS02715&lt;/b&gt;&lt;br&gt;type I polyketide synthase&lt;br&gt;Location: 594446 - 587958&lt;br&gt;&lt;br&gt;&lt;b&gt;BlastP hit with JDHOFBHF_03715&lt;/b&gt;&lt;br&gt;Percentage identity: 58&lt;br&gt;Percentage coverage: 102&lt;br&gt;BLAST bit score: 2384&lt;br&gt;E-value: 0.0" locus_tag="PhaeoP59_RS02715" class="clusterblast-orf" id="dummy-1_h1_9_15"  />
</g>
<g id="a1_0016"  >
<polygon points="395,90 406,90 411,85 406,80 395,80 395,90 " style="fill:#d88a15; stroke-width:1; stroke:black; " description="&lt;b&gt;PhaeoP59_RS02710&lt;/b&gt;&lt;br&gt;glycosyltransferase family 2 protein&lt;br&gt;Location: 587961 - 586891&lt;br&gt;&lt;br&gt;&lt;b&gt;BlastP hit with JDHOFBHF_03716&lt;/b&gt;&lt;br&gt;Percentage identity: 53&lt;br&gt;Percentage coverage: 94&lt;br&gt;BLAST bit score: 314&lt;br&gt;E-value: 2.63e-104" locus_tag="PhaeoP59_RS02710" class="clusterblast-orf" id="dummy-1_h1_9_16"  />
</g>
<g id="a1_0017"  >
<polygon points="411,90 475,90 480,85 475,80 411,80 411,90 " style="fill:#15d863; stroke-width:1; stroke:black; " description="&lt;b&gt;PhaeoP59_RS02705&lt;/b&gt;&lt;br&gt;LLM class flavin-dependent oxidoreductase&lt;br&gt;Location: 586894 - 582260&lt;br&gt;&lt;br&gt;&lt;b&gt;BlastP hit with JDHOFBHF_03717&lt;/b&gt;&lt;br&gt;Percentage identity: 52&lt;br&gt;Percentage coverage: 103&lt;br&gt;BLAST bit score: 1429&lt;br&gt;E-value: 0.0" locus_tag="PhaeoP59_RS02705" class="clusterblast-orf" id="dummy-1_h1_9_17"  />
</g>
<g id="a1_0018"  >
<polygon points="480,90 486,90 491,85 486,80 480,80 480,90 " style="fill:#3c15d8; stroke-width:1; stroke:black; " description="&lt;b&gt;PhaeoP59_RS02700&lt;/b&gt;&lt;br&gt;4'-phosphopantetheinyl transferase superfamily protein&lt;br&gt;Location: 582263 - 581550&lt;br&gt;&lt;br&gt;&lt;b&gt;BlastP hit with JDHOFBHF_03718&lt;/b&gt;&lt;br&gt;Percentage identity: 40&lt;br&gt;Percentage coverage: 94&lt;br&gt;BLAST bit score: 136&lt;br&gt;E-value: 1.49e-37" locus_tag="PhaeoP59_RS02700" class="clusterblast-orf" id="dummy-1_h1_9_18"  />
</g>
<g id="a1_0019"  >
<polygon points="491,90 499,90 504,85 499,80 491,80 491,90 " style="fill:white; stroke-width:1; stroke:black; " description="&lt;b&gt;PhaeoP59_RS02695&lt;/b&gt;&lt;br&gt;hypothetical protein&lt;br&gt;Location: 581553 - 580651" locus_tag="PhaeoP59_RS02695" class="clusterblast-orf" id="dummy-1_h1_9_19"  />
</g>
<g id="a1_0020"  >
<polygon points="504,90 538,90 543,85 538,80 504,80 504,90 " style="fill:white; stroke-width:1; stroke:black; " description="&lt;b&gt;PhaeoP59_RS02690&lt;/b&gt;&lt;br&gt;hypothetical protein&lt;br&gt;Location: 580654 - 578084" locus_tag="PhaeoP59_RS02690" class="clusterblast-orf" id="dummy-1_h1_9_20"  />
</g>
<g id="a1_0021"  >
<polygon points="543,90 550,90 555,85 550,80 543,80 543,90 " style="fill:white; stroke-width:1; stroke:black; " description="&lt;b&gt;PhaeoP59_RS02685&lt;/b&gt;&lt;br&gt;glycosyltransferase family 2 protein&lt;br&gt;Location: 578087 - 577245" locus_tag="PhaeoP59_RS02685" class="clusterblast-orf" id="dummy-1_h1_9_21"  />
</g>
<g id="a1_0022"  >
<polygon points="555,85 560,80 574,80 574,90 560,90 555,85 " style="fill:white; stroke-width:1; stroke:black; " description="&lt;b&gt;PhaeoP59_RS02680&lt;/b&gt;&lt;br&gt;glycosyltransferase&lt;br&gt;Location: 577226 - 576009" locus_tag="PhaeoP59_RS02680" class="clusterblast-orf" id="dummy-1_h1_9_22"  />
</g>
<g id="a1_0023"  >
<polygon points="576,90 591,90 596,85 591,80 576,80 576,90 " style="fill:white; stroke-width:1; stroke:black; " description="&lt;b&gt;PhaeoP59_RS02675&lt;/b&gt;&lt;br&gt;oligosaccharide flippase family protein&lt;br&gt;Location: 575864 - 574500" locus_tag="PhaeoP59_RS02675" class="clusterblast-orf" id="dummy-1_h1_9_23"  />
</g>
<g id="a1_0024"  >
<polygon points="597,85 602,80 616,80 616,90 602,90 597,85 " style="fill:#3cd815; stroke-width:1; stroke:black; " description="&lt;b&gt;PhaeoP59_RS02670&lt;/b&gt;&lt;br&gt;DUF874 family protein&lt;br&gt;Location: 574466 - 573180&lt;br&gt;&lt;br&gt;&lt;b&gt;BlastP hit with JDHOFBHF_03713&lt;/b&gt;&lt;br&gt;Percentage identity: 31&lt;br&gt;Percentage coverage: 95&lt;br&gt;BLAST bit score: 163&lt;br&gt;E-value: 2.08e-43" locus_tag="PhaeoP59_RS02670" class="clusterblast-orf" id="dummy-1_h1_9_24"  />
</g>
<g id="a1_0025"  >
<polygon points="617,85 622,80 633,80 633,90 622,90 617,85 " style="fill:white; stroke-width:1; stroke:black; " description="&lt;b&gt;PhaeoP59_RS02665&lt;/b&gt;&lt;br&gt;CpsD/CapB family tyrosine-protein kinase&lt;br&gt;Location: 573107 - 572034" locus_tag="PhaeoP59_RS02665" class="clusterblast-orf" id="dummy-1_h1_9_25"  />
</g>
<g id="a1_0026"  >
<polygon points="634,85 639,80 645,80 645,90 639,90 634,85 " style="fill:white; stroke-width:1; stroke:black; " description="&lt;b&gt;PhaeoP59_RS02660&lt;/b&gt;&lt;br&gt;sugar transferase&lt;br&gt;Location: 571959 - 571234" locus_tag="PhaeoP59_RS02660" class="clusterblast-orf" id="dummy-1_h1_9_26"  />
</g>
<g id="a1_0027"  >
<polygon points="656,90 666,90 671,85 666,80 656,80 656,90 " style="fill:white; stroke-width:1; stroke:black; " description="&lt;b&gt;PhaeoP59_RS02655&lt;/b&gt;&lt;br&gt;hypothetical protein&lt;br&gt;Location: 570505 - 569516" locus_tag="PhaeoP59_RS02655" class="clusterblast-orf" id="dummy-1_h1_9_27"  />
</g>
<g id="a1_0028"  >
<polygon points="671,85 676,80 688,80 688,90 676,90 671,85 " style="fill:white; stroke-width:1; stroke:black; " description="&lt;b&gt;PhaeoP59_RS02650&lt;/b&gt;&lt;br&gt;RNA methyltransferase&lt;br&gt;Location: 569484 - 568354" locus_tag="PhaeoP59_RS02650" class="clusterblast-orf" id="dummy-1_h1_9_28"  />
</g>
<g id="a1_0029"  >
<polygon points="693,90 714,90 719,85 714,80 693,80 693,90 " style="fill:white; stroke-width:1; stroke:black; " description="&lt;b&gt;PhaeoP59_RS02645&lt;/b&gt;&lt;br&gt;carbohydrate ABC transporter substrate-binding protein&lt;br&gt;Location: 568026 - 566293" locus_tag="PhaeoP59_RS02645" class="clusterblast-orf" id="dummy-1_h1_9_29"  />
</g>
<g id="a1_0030"  >
<polygon points="722,90 733,90 738,85 733,80 722,80 722,90 " style="fill:white; stroke-width:1; stroke:black; " description="&lt;b&gt;PhaeoP59_RS02640&lt;/b&gt;&lt;br&gt;ABC transporter ATP-binding protein&lt;br&gt;Location: 566138 - 565062" locus_tag="PhaeoP59_RS02640" class="clusterblast-orf" id="dummy-1_h1_9_30"  />
</g>
<g id="a1_0031"  >
<polygon points="738,90 749,90 754,85 749,80 738,80 738,90 " style="fill:white; stroke-width:1; stroke:black; " description="&lt;b&gt;PhaeoP59_RS02635&lt;/b&gt;&lt;br&gt;ABC transporter ATP-binding protein&lt;br&gt;Location: 565054 - 563951" locus_tag="PhaeoP59_RS02635" class="clusterblast-orf" id="dummy-1_h1_9_31"  />
</g>
<g id="a1_0032"  >
<polygon points="754,90 762,90 767,85 762,80 754,80 754,90 " style="fill:white; stroke-width:1; stroke:black; " description="&lt;b&gt;PhaeoP59_RS02630&lt;/b&gt;&lt;br&gt;sugar ABC transporter permease&lt;br&gt;Location: 563951 - 563088" locus_tag="PhaeoP59_RS02630" class="clusterblast-orf" id="dummy-1_h1_9_32"  />
</g>
<g id="a1_0033"  >
<polygon points="768,90 775,90 780,85 775,80 768,80 768,90 " style="fill:white; stroke-width:1; stroke:black; " description="&lt;b&gt;PhaeoP59_RS02625&lt;/b&gt;&lt;br&gt;carbohydrate ABC transporter permease&lt;br&gt;Location: 563073 - 562276" locus_tag="PhaeoP59_RS02625" class="clusterblast-orf" id="dummy-1_h1_9_33"  />
</g>
</svg>
