<svg xmlns="http://www.w3.org/2000/svg" xmlns:xlink="http://www.w3.org/1999/xlink" version="1.1" x="0" y="0" height="230" width="800" viewBox="0 0 800 230" preserveAspectRatio="none"  >
<g label="Query sequence" class="clusterblast-cluster"  >
<text x="5" y="20" class="clusterblast-acc"  >
Query sequence</text>
<line x1="10" y1="35" x2="778.0" y2="35" style="stroke-width:1; stroke:grey; "  />
<polygon points="1,40 2,40 7,35 2,30 1,30 1,40 " style="fill:white; stroke-width:1; stroke:black; " description="&lt;b&gt;JDHOFBHF_01537&lt;/b&gt;&lt;br&gt;hypothetical protein&lt;br&gt;Location: 62598 - 62913" locus_tag="JDHOFBHF_01537" class="clusterblast-orf" id="dummy-1_q0_0_all"  />
<polygon points="8,40 16,40 21,35 16,30 8,30 8,40 " style="fill:white; stroke-width:1; stroke:black; " description="&lt;b&gt;JDHOFBHF_01538&lt;/b&gt;&lt;br&gt;Cytochrome c551 peroxidase&lt;br&gt;Location: 62937 - 63606" locus_tag="JDHOFBHF_01538" class="clusterblast-orf" id="dummy-1_q1_0_all"  />
<polygon points="22,35 27,30 49,30 49,40 27,40 22,35 " style="fill:white; stroke-width:1; stroke:black; " description="&lt;b&gt;JDHOFBHF_01539&lt;/b&gt;&lt;br&gt;Cardiolipin synthase A&lt;br&gt;Location: 63667 - 65095" locus_tag="JDHOFBHF_01539" class="clusterblast-orf" id="dummy-1_q2_0_all"  />
<polygon points="51,40 63,40 68,35 63,30 51,30 51,40 " style="fill:white; stroke-width:1; stroke:black; " description="&lt;b&gt;JDHOFBHF_01540&lt;/b&gt;&lt;br&gt;hypothetical protein&lt;br&gt;Location: 65205 - 66096" locus_tag="JDHOFBHF_01540" class="clusterblast-orf" id="dummy-1_q3_0_all"  />
<polygon points="69,40 82,40 87,35 82,30 69,30 69,40 " style="fill:white; stroke-width:1; stroke:black; " description="&lt;b&gt;JDHOFBHF_01541&lt;/b&gt;&lt;br&gt;Acetyl-coenzyme A carboxylase carboxyl transferase subunit beta&lt;br&gt;Location: 66152 - 67061" locus_tag="JDHOFBHF_01541" class="clusterblast-orf" id="dummy-1_q4_0_all"  />
<polygon points="87,40 106,40 111,35 106,30 87,30 87,40 " style="fill:white; stroke-width:1; stroke:black; " description="&lt;b&gt;JDHOFBHF_01542&lt;/b&gt;&lt;br&gt;Dihydrofolate synthase/folylpolyglutamate synthase&lt;br&gt;Location: 67062 - 68331" locus_tag="JDHOFBHF_01542" class="clusterblast-orf" id="dummy-1_q5_0_all"  />
<polygon points="112,35 117,30 120,30 120,40 117,40 112,35 " style="fill:white; stroke-width:1; stroke:black; " description="&lt;b&gt;JDHOFBHF_01543&lt;/b&gt;&lt;br&gt;Cytochrome c2&lt;br&gt;Location: 68388 - 68814" locus_tag="JDHOFBHF_01543" class="clusterblast-orf" id="dummy-1_q6_0_all"  />
<polygon points="125,40 136,40 141,35 136,30 125,30 125,40 " style="fill:white; stroke-width:1; stroke:black; " description="&lt;b&gt;JDHOFBHF_01544&lt;/b&gt;&lt;br&gt;hypothetical protein&lt;br&gt;Location: 69036 - 69915" locus_tag="JDHOFBHF_01544" class="clusterblast-orf" id="dummy-1_q7_0_all"  />
<polygon points="141,35 146,30 178,30 178,40 146,40 141,35 " style="fill:white; stroke-width:1; stroke:black; " description="&lt;b&gt;JDHOFBHF_01545&lt;/b&gt;&lt;br&gt;hypothetical protein&lt;br&gt;Location: 69911 - 71846" locus_tag="JDHOFBHF_01545" class="clusterblast-orf" id="dummy-1_q8_0_all"  />
<polygon points="182,35 187,30 195,30 195,40 187,40 182,35 " style="fill:white; stroke-width:1; stroke:black; " description="&lt;b&gt;JDHOFBHF_01546&lt;/b&gt;&lt;br&gt;hypothetical protein&lt;br&gt;Location: 72019 - 72724" locus_tag="JDHOFBHF_01546" class="clusterblast-orf" id="dummy-1_q9_0_all"  />
<polygon points="197,40 198,40 203,35 198,30 197,30 197,40 " style="fill:white; stroke-width:1; stroke:black; " description="&lt;b&gt;JDHOFBHF_01547&lt;/b&gt;&lt;br&gt;ATP-dependent Clp protease adapter protein ClpS&lt;br&gt;Location: 72814 - 73150" locus_tag="JDHOFBHF_01547" class="clusterblast-orf" id="dummy-1_q10_0_all"  />
<polygon points="203,40 218,40 223,35 218,30 203,30 203,40 " style="fill:white; stroke-width:1; stroke:black; " description="&lt;b&gt;JDHOFBHF_01548&lt;/b&gt;&lt;br&gt;Ribosomal RNA small subunit methyltransferase C&lt;br&gt;Location: 73159 - 74182" locus_tag="JDHOFBHF_01548" class="clusterblast-orf" id="dummy-1_q11_0_all"  />
<polygon points="223,40 233,40 238,35 233,30 223,30 223,40 " style="fill:white; stroke-width:1; stroke:black; " description="&lt;b&gt;JDHOFBHF_01549&lt;/b&gt;&lt;br&gt;Dihydroanticapsin 7-dehydrogenase&lt;br&gt;Location: 74178 - 74988" locus_tag="JDHOFBHF_01549" class="clusterblast-orf" id="dummy-1_q12_0_all"  />
<polygon points="240,35 245,30 246,30 246,40 245,40 240,35 " style="fill:white; stroke-width:1; stroke:black; " description="&lt;b&gt;JDHOFBHF_01550&lt;/b&gt;&lt;br&gt;hypothetical protein&lt;br&gt;Location: 75083 - 75398" locus_tag="JDHOFBHF_01550" class="clusterblast-orf" id="dummy-1_q13_0_all"  />
<polygon points="246,35 251,30 262,30 262,40 251,40 246,35 " style="fill:white; stroke-width:1; stroke:black; " description="&lt;b&gt;JDHOFBHF_01551&lt;/b&gt;&lt;br&gt;3-methyl-2-oxobutanoate hydroxymethyltransferase&lt;br&gt;Location: 75401 - 76211" locus_tag="JDHOFBHF_01551" class="clusterblast-orf" id="dummy-1_q14_0_all"  />
<polygon points="262,35 267,30 278,30 278,40 267,40 262,35 " style="fill:white; stroke-width:1; stroke:black; " description="&lt;b&gt;JDHOFBHF_01552&lt;/b&gt;&lt;br&gt;Pantothenate synthetase&lt;br&gt;Location: 76213 - 77053" locus_tag="JDHOFBHF_01552" class="clusterblast-orf" id="dummy-1_q15_0_all"  />
<polygon points="280,40 284,40 289,35 284,30 280,30 280,40 " style="fill:white; stroke-width:1; stroke:black; " description="&lt;b&gt;JDHOFBHF_01553&lt;/b&gt;&lt;br&gt;hypothetical protein&lt;br&gt;Location: 77181 - 77631" locus_tag="JDHOFBHF_01553" class="clusterblast-orf" id="dummy-1_q16_0_all"  />
<polygon points="291,40 334,40 339,35 334,30 291,30 291,40 " style="fill:white; stroke-width:1; stroke:black; " description="&lt;b&gt;JDHOFBHF_01554&lt;/b&gt;&lt;br&gt;4-methylaminobutanoate oxidase (formaldehyde-forming)&lt;br&gt;Location: 77760 - 80259" locus_tag="JDHOFBHF_01554" class="clusterblast-orf" id="dummy-1_q17_0_all"  />
<polygon points="339,35 344,30 356,30 356,40 344,40 339,35 " style="fill:white; stroke-width:1; stroke:black; " description="&lt;b&gt;JDHOFBHF_01555&lt;/b&gt;&lt;br&gt;UDP-glucose 4-epimerase&lt;br&gt;Location: 80262 - 81156" locus_tag="JDHOFBHF_01555" class="clusterblast-orf" id="dummy-1_q18_0_all"  />
<polygon points="358,35 363,30 367,30 367,40 363,40 358,35 " style="fill:white; stroke-width:1; stroke:black; " description="&lt;b&gt;JDHOFBHF_01556&lt;/b&gt;&lt;br&gt;hypothetical protein&lt;br&gt;Location: 81228 - 81708" locus_tag="JDHOFBHF_01556" class="clusterblast-orf" id="dummy-1_q19_0_all"  />
<polygon points="369,35 374,30 379,30 379,40 374,40 369,35 " style="fill:#d81515; stroke-width:1; stroke:black; " description="&lt;b&gt;JDHOFBHF_01557&lt;/b&gt;&lt;br&gt;hypothetical protein&lt;br&gt;Location: 81844 - 82333" locus_tag="JDHOFBHF_01557" class="clusterblast-orf" id="dummy-1_q20_0_all"  />
<polygon points="379,35 384,30 399,30 399,40 384,40 379,35 " style="fill:#77d815; stroke-width:1; stroke:black; " description="&lt;b&gt;JDHOFBHF_01558&lt;/b&gt;&lt;br&gt;1,3,6,8-tetrahydroxynaphthalene synthase&lt;br&gt;Location: 82329 - 83370" locus_tag="JDHOFBHF_01558" class="clusterblast-orf" id="dummy-1_q21_0_all"  />
<polygon points="403,40 422,40 427,35 422,30 403,30 403,40 " style="fill:white; stroke-width:1; stroke:black; " description="&lt;b&gt;JDHOFBHF_01559&lt;/b&gt;&lt;br&gt;putative MFS-type transporter YcaD&lt;br&gt;Location: 83575 - 84874" locus_tag="JDHOFBHF_01559" class="clusterblast-orf" id="dummy-1_q22_0_all"  />
<polygon points="429,40 462,40 467,35 462,30 429,30 429,40 " style="fill:white; stroke-width:1; stroke:black; " description="&lt;b&gt;JDHOFBHF_01560&lt;/b&gt;&lt;br&gt;Dipeptidyl carboxypeptidase&lt;br&gt;Location: 84952 - 86959" locus_tag="JDHOFBHF_01560" class="clusterblast-orf" id="dummy-1_q23_0_all"  />
<polygon points="470,40 502,40 507,35 502,30 470,30 470,40 " style="fill:#15d8d8; stroke-width:1; stroke:black; " description="&lt;b&gt;JDHOFBHF_01561&lt;/b&gt;&lt;br&gt;Chaperone protein DnaK&lt;br&gt;Location: 87126 - 89043" locus_tag="JDHOFBHF_01561" class="clusterblast-orf" id="dummy-1_q24_0_all"  />
<polygon points="508,40 526,40 531,35 526,30 508,30 508,40 " style="fill:#7715d8; stroke-width:1; stroke:black; " description="&lt;b&gt;JDHOFBHF_01562&lt;/b&gt;&lt;br&gt;Chaperone protein DnaJ&lt;br&gt;Location: 89115 - 90273" locus_tag="JDHOFBHF_01562" class="clusterblast-orf" id="dummy-1_q25_0_all"  />
<polygon points="530,35 535,30 542,30 542,40 535,40 530,35 " style="fill:white; stroke-width:1; stroke:black; " description="&lt;b&gt;JDHOFBHF_01563&lt;/b&gt;&lt;br&gt;hypothetical protein&lt;br&gt;Location: 90269 - 90866" locus_tag="JDHOFBHF_01563" class="clusterblast-orf" id="dummy-1_q26_0_all"  />
<polygon points="544,35 549,30 564,30 564,40 549,40 544,35 " style="fill:#d8a715; stroke-width:1; stroke:black; " description="&lt;b&gt;JDHOFBHF_01564&lt;/b&gt;&lt;br&gt;Purine-binding protein&lt;br&gt;Location: 90963 - 92040" locus_tag="JDHOFBHF_01564" class="clusterblast-orf" id="dummy-1_q27_0_all"  />
<polygon points="565,35 570,30 583,30 583,40 570,40 565,35 " style="fill:#15d846; stroke-width:1; stroke:black; " description="&lt;b&gt;JDHOFBHF_01565&lt;/b&gt;&lt;br&gt;putative riboflavin import permease protein RfuD&lt;br&gt;Location: 92075 - 93008" locus_tag="JDHOFBHF_01565" class="clusterblast-orf" id="dummy-1_q28_0_all"  />
<polygon points="583,35 588,30 604,30 604,40 588,40 583,35 " style="fill:#1546d8; stroke-width:1; stroke:black; " description="&lt;b&gt;JDHOFBHF_01566&lt;/b&gt;&lt;br&gt;hypothetical protein&lt;br&gt;Location: 93004 - 94090" locus_tag="JDHOFBHF_01566" class="clusterblast-orf" id="dummy-1_q29_0_all"  />
<polygon points="603,35 608,30 633,30 633,40 608,40 603,35 " style="fill:#d815a7; stroke-width:1; stroke:black; " description="&lt;b&gt;JDHOFBHF_01567&lt;/b&gt;&lt;br&gt;Galactose/methyl galactoside import ATP-binding protein MglA&lt;br&gt;Location: 94086 - 95619" locus_tag="JDHOFBHF_01567" class="clusterblast-orf" id="dummy-1_q30_0_all"  />
<polygon points="636,40 697,40 702,35 697,30 636,30 636,40 " style="fill:white; stroke-width:1; stroke:black; " description="&lt;b&gt;JDHOFBHF_01568&lt;/b&gt;&lt;br&gt;DNA polymerase III subunit alpha&lt;br&gt;Location: 95781 - 99219" locus_tag="JDHOFBHF_01568" class="clusterblast-orf" id="dummy-1_q31_0_all"  />
<polygon points="718,40 721,40 726,35 721,30 718,30 718,40 " style="fill:white; stroke-width:1; stroke:black; " description="&lt;b&gt;JDHOFBHF_01569&lt;/b&gt;&lt;br&gt;hypothetical protein&lt;br&gt;Location: 100081 - 100489" locus_tag="JDHOFBHF_01569" class="clusterblast-orf" id="dummy-1_q32_0_all"  />
<polygon points="728,40 743,40 748,35 743,30 728,30 728,40 " style="fill:white; stroke-width:1; stroke:black; " description="&lt;b&gt;JDHOFBHF_01570&lt;/b&gt;&lt;br&gt;hypothetical protein&lt;br&gt;Location: 100624 - 101671" locus_tag="JDHOFBHF_01570" class="clusterblast-orf" id="dummy-1_q33_0_all"  />
<polygon points="749,40 755,40 760,35 755,30 749,30 749,40 " style="fill:white; stroke-width:1; stroke:black; " description="&lt;b&gt;JDHOFBHF_01571&lt;/b&gt;&lt;br&gt;hypothetical protein&lt;br&gt;Location: 101692 - 102301" locus_tag="JDHOFBHF_01571" class="clusterblast-orf" id="dummy-1_q34_0_all"  />
<polygon points="762,40 773,40 778,35 773,30 762,30 762,40 " style="fill:white; stroke-width:1; stroke:black; " description="&lt;b&gt;JDHOFBHF_01572&lt;/b&gt;&lt;br&gt;2-dehydro-3-deoxyphosphooctonate aldolase&lt;br&gt;Location: 102375 - 103212" locus_tag="JDHOFBHF_01572" class="clusterblast-orf" id="dummy-1_q35_0_all"  />
</g>
<g label="NZ_KB900701" description="NZ_KB900701 (1497164-1538217): Bradyrhizobium elkanii USDA 76 BraelDRAFT scaf... (10% of genes show similarity), T3PKS" class="clusterblast-cluster"  >
<text x="5" y="70" class="clusterblast-acc"  >
<a xlink:href="https://antismash-db.secondarymetabolites.org/area.html?record=NZ_KB900701&amp;start=1497164&amp;end=1538217" target="_blank">NZ_KB900701 (1497164-1538217)</a>: Bradyrhizobium elkanii USDA 76 BraelDRAFT scaf... (10% of genes show similarity), T3PKS</text>
<line x1="10" y1="85" x2="778.0" y2="85" style="stroke-width:1; stroke:grey; "  />
</g>
<g id="a1_000"  >
<polygon points="0,85 5,80 12,80 12,90 5,90 0,85 " style="fill:white; stroke-width:1; stroke:black; " description="&lt;b&gt;BRAEL_RS0107480&lt;/b&gt;&lt;br&gt;RdgB/HAM1 family non-canonical purine NTP pyrophosphatase&lt;br&gt;Location: 1537972 - 1537337" locus_tag="BRAEL_RS0107480" class="clusterblast-orf" id="dummy-1_h1_9_0"  />
</g>
<g id="a1_001"  >
<polygon points="12,85 17,80 26,80 26,90 17,90 12,85 " style="fill:white; stroke-width:1; stroke:black; " description="&lt;b&gt;BRAEL_RS0107475&lt;/b&gt;&lt;br&gt;ribonuclease PH&lt;br&gt;Location: 1537325 - 1536612" locus_tag="BRAEL_RS0107475" class="clusterblast-orf" id="dummy-1_h1_9_1"  />
</g>
<g id="a1_002"  >
<polygon points="29,90 45,90 50,85 45,80 29,80 29,90 " style="fill:white; stroke-width:1; stroke:black; " description="&lt;b&gt;BRAEL_RS0107470&lt;/b&gt;&lt;br&gt;heat-inducible transcriptional repressor HrcA&lt;br&gt;Location: 1536441 - 1535353" locus_tag="BRAEL_RS0107470" class="clusterblast-orf" id="dummy-1_h1_9_2"  />
</g>
<g id="a1_003"  >
<polygon points="53,90 59,90 64,85 59,80 53,80 53,90 " style="fill:white; stroke-width:1; stroke:black; " description="&lt;b&gt;BRAEL_RS0107465&lt;/b&gt;&lt;br&gt;nucleotide exchange factor GrpE&lt;br&gt;Location: 1535187 - 1534582" locus_tag="BRAEL_RS0107465" class="clusterblast-orf" id="dummy-1_h1_9_3"  />
</g>
<g id="a1_004"  >
<polygon points="65,85 70,80 73,80 73,90 70,90 65,85 " style="fill:white; stroke-width:1; stroke:black; " description="&lt;b&gt;BRAEL_RS0107460&lt;/b&gt;&lt;br&gt;hypothetical protein&lt;br&gt;Location: 1534533 - 1534108" locus_tag="BRAEL_RS0107460" class="clusterblast-orf" id="dummy-1_h1_9_4"  />
</g>
<g id="a1_005"  >
<polygon points="75,85 80,80 91,80 91,90 80,90 75,85 " style="fill:white; stroke-width:1; stroke:black; " description="&lt;b&gt;BRAEL_RS0107455&lt;/b&gt;&lt;br&gt;AraC family transcriptional regulator&lt;br&gt;Location: 1534039 - 1533185" locus_tag="BRAEL_RS0107455" class="clusterblast-orf" id="dummy-1_h1_9_5"  />
</g>
<g id="a1_006"  >
<polygon points="91,85 96,80 105,80 105,90 96,90 91,85 " style="fill:white; stroke-width:1; stroke:black; " description="&lt;b&gt;BRAEL_RS0107450&lt;/b&gt;&lt;br&gt;bifunctional nicotinamidase/pyrazinamidase&lt;br&gt;Location: 1533162 - 1532452" locus_tag="BRAEL_RS0107450" class="clusterblast-orf" id="dummy-1_h1_9_6"  />
</g>
<g id="a1_007"  >
<polygon points="107,85 112,80 125,80 125,90 112,90 107,85 " style="fill:white; stroke-width:1; stroke:black; " description="&lt;b&gt;BRAEL_RS0107445&lt;/b&gt;&lt;br&gt;hypothetical protein&lt;br&gt;Location: 1532367 - 1531432" locus_tag="BRAEL_RS0107445" class="clusterblast-orf" id="dummy-1_h1_9_7"  />
</g>
<g id="a1_008"  >
<polygon points="135,90 167,90 172,85 167,80 135,80 135,90 " style="fill:#15d8d8; stroke-width:1; stroke:black; " description="&lt;b&gt;BRAEL_RS0107435&lt;/b&gt;&lt;br&gt;molecular chaperone DnaK&lt;br&gt;Location: 1530865 - 1528964&lt;br&gt;&lt;br&gt;&lt;b&gt;BlastP hit with JDHOFBHF_01561&lt;/b&gt;&lt;br&gt;Percentage identity: 75&lt;br&gt;Percentage coverage: 100&lt;br&gt;BLAST bit score: 902&lt;br&gt;E-value: 0.0" locus_tag="BRAEL_RS0107435" class="clusterblast-orf" id="dummy-1_h1_9_8"  />
</g>
<g id="a1_009"  >
<polygon points="175,90 192,90 197,85 192,80 175,80 175,90 " style="fill:#7715d8; stroke-width:1; stroke:black; " description="&lt;b&gt;BRAEL_RS0107430&lt;/b&gt;&lt;br&gt;molecular chaperone DnaJ&lt;br&gt;Location: 1528793 - 1527666&lt;br&gt;&lt;br&gt;&lt;b&gt;BlastP hit with JDHOFBHF_01562&lt;/b&gt;&lt;br&gt;Percentage identity: 56&lt;br&gt;Percentage coverage: 98&lt;br&gt;BLAST bit score: 354&lt;br&gt;E-value: 9.88e-119" locus_tag="BRAEL_RS0107430" class="clusterblast-orf" id="dummy-1_h1_9_9"  />
</g>
<g id="a1_0010"  >
<polygon points="198,90 205,90 210,85 205,80 198,80 198,90 " style="fill:white; stroke-width:1; stroke:black; " description="&lt;b&gt;BRAEL_RS0107425&lt;/b&gt;&lt;br&gt;methyltransferase&lt;br&gt;Location: 1527566 - 1526964" locus_tag="BRAEL_RS0107425" class="clusterblast-orf" id="dummy-1_h1_9_10"  />
</g>
<g id="a1_0011"  >
<polygon points="211,90 217,90 222,85 217,80 211,80 211,90 " style="fill:white; stroke-width:1; stroke:black; " description="&lt;b&gt;BRAEL_RS0107420&lt;/b&gt;&lt;br&gt;NAD(P)H-dependent oxidoreductase&lt;br&gt;Location: 1526912 - 1526334" locus_tag="BRAEL_RS0107420" class="clusterblast-orf" id="dummy-1_h1_9_11"  />
</g>
<g id="a1_0012"  >
<polygon points="222,90 231,90 236,85 231,80 222,80 222,90 " style="fill:white; stroke-width:1; stroke:black; " description="&lt;b&gt;BRAEL_RS0107415&lt;/b&gt;&lt;br&gt;orotidine-5'-phosphate decarboxylase&lt;br&gt;Location: 1526327 - 1525617" locus_tag="BRAEL_RS0107415" class="clusterblast-orf" id="dummy-1_h1_9_12"  />
</g>
<g id="a1_0013"  >
<polygon points="236,90 237,90 242,85 237,80 236,80 236,90 " style="fill:white; stroke-width:1; stroke:black; " description="&lt;b&gt;BRAEL_RS0107410&lt;/b&gt;&lt;br&gt;DUF1330 domain-containing protein&lt;br&gt;Location: 1525595 - 1525299" locus_tag="BRAEL_RS0107410" class="clusterblast-orf" id="dummy-1_h1_9_13"  />
</g>
<g id="a1_0014"  >
<polygon points="243,90 254,90 259,85 254,80 243,80 243,90 " style="fill:white; stroke-width:1; stroke:black; " description="&lt;b&gt;BRAEL_RS0107405&lt;/b&gt;&lt;br&gt;4-hydroxy-tetrahydrodipicolinate reductase&lt;br&gt;Location: 1525227 - 1524415" locus_tag="BRAEL_RS0107405" class="clusterblast-orf" id="dummy-1_h1_9_14"  />
</g>
<g id="a1_0015"  >
<polygon points="260,90 266,90 271,85 266,80 260,80 260,90 " style="fill:white; stroke-width:1; stroke:black; " description="&lt;b&gt;BRAEL_RS0107400&lt;/b&gt;&lt;br&gt;2,3-bisphosphoglycerate-dependent phosphoglycerate mutase&lt;br&gt;Location: 1524371 - 1523748" locus_tag="BRAEL_RS0107400" class="clusterblast-orf" id="dummy-1_h1_9_15"  />
</g>
<g id="a1_0016"  >
<polygon points="274,85 279,80 291,80 291,90 279,90 274,85 " style="fill:white; stroke-width:1; stroke:black; " description="&lt;b&gt;BRAEL_RS0107395&lt;/b&gt;&lt;br&gt;methylated-DNA--[protein]-cysteine S-methyltransferase&lt;br&gt;Location: 1523616 - 1522720" locus_tag="BRAEL_RS0107395" class="clusterblast-orf" id="dummy-1_h1_9_16"  />
</g>
<g id="a1_0017"  >
<polygon points="293,85 298,80 303,80 303,90 298,90 293,85 " style="fill:white; stroke-width:1; stroke:black; " description="&lt;b&gt;BRAEL_RS0107390&lt;/b&gt;&lt;br&gt;DUF2244 domain-containing protein&lt;br&gt;Location: 1522611 - 1522090" locus_tag="BRAEL_RS0107390" class="clusterblast-orf" id="dummy-1_h1_9_17"  />
</g>
<g id="a1_0018"  >
<polygon points="304,90 314,90 319,85 314,80 304,80 304,90 " style="fill:white; stroke-width:1; stroke:black; " description="&lt;b&gt;BRAEL_RS0107385&lt;/b&gt;&lt;br&gt;endonuclease III&lt;br&gt;Location: 1522028 - 1521243" locus_tag="BRAEL_RS0107385" class="clusterblast-orf" id="dummy-1_h1_9_18"  />
</g>
<g id="a1_0019"  >
<polygon points="321,90 338,90 343,85 338,80 321,80 321,90 " style="fill:white; stroke-width:1; stroke:black; " description="&lt;b&gt;BRAEL_RS0107380&lt;/b&gt;&lt;br&gt;HlyD family secretion protein&lt;br&gt;Location: 1521137 - 1519986" locus_tag="BRAEL_RS0107380" class="clusterblast-orf" id="dummy-1_h1_9_19"  />
</g>
<g id="a1_0020"  >
<polygon points="343,90 369,90 374,85 369,80 343,80 343,90 " style="fill:white; stroke-width:1; stroke:black; " description="&lt;b&gt;BRAEL_RS0107375&lt;/b&gt;&lt;br&gt;MFS transporter&lt;br&gt;Location: 1519999 - 1518371" locus_tag="BRAEL_RS0107375" class="clusterblast-orf" id="dummy-1_h1_9_20"  />
</g>
<g id="a1_0021"  >
<polygon points="377,90 392,90 397,85 392,80 377,80 377,90 " style="fill:#77d815; stroke-width:1; stroke:black; " description="&lt;b&gt;BRAEL_RS0107370&lt;/b&gt;&lt;br&gt;type III polyketide synthase&lt;br&gt;Location: 1518217 - 1517165&lt;br&gt;&lt;br&gt;&lt;b&gt;BlastP hit with JDHOFBHF_01558&lt;/b&gt;&lt;br&gt;Percentage identity: 53&lt;br&gt;Percentage coverage: 98&lt;br&gt;BLAST bit score: 338&lt;br&gt;E-value: 1.21e-113" locus_tag="BRAEL_RS0107370" class="clusterblast-orf" id="dummy-1_h1_9_21"  />
</g>
<g id="a1_0022"  >
<polygon points="397,90 402,90 407,85 402,80 397,80 397,90 " style="fill:#d81515; stroke-width:1; stroke:black; " description="&lt;b&gt;BRAEL_RS0107365&lt;/b&gt;&lt;br&gt;hypothetical protein&lt;br&gt;Location: 1517168 - 1516656&lt;br&gt;&lt;br&gt;&lt;b&gt;BlastP hit with JDHOFBHF_01557&lt;/b&gt;&lt;br&gt;Percentage identity: 55&lt;br&gt;Percentage coverage: 99&lt;br&gt;BLAST bit score: 164&lt;br&gt;E-value: 1.88e-50" locus_tag="BRAEL_RS0107365" class="clusterblast-orf" id="dummy-1_h1_9_22"  />
</g>
<g id="a1_0023"  >
<polygon points="408,90 432,90 437,85 432,80 408,80 408,90 " style="fill:white; stroke-width:1; stroke:black; " description="&lt;b&gt;BRAEL_RS0107360&lt;/b&gt;&lt;br&gt;DHA2 family efflux MFS transporter permease subunit&lt;br&gt;Location: 1516593 - 1515091" locus_tag="BRAEL_RS0107360" class="clusterblast-orf" id="dummy-1_h1_9_23"  />
</g>
<g id="a1_0024"  >
<polygon points="437,90 439,85 437,80 437,90 " style="fill:white; stroke-width:1; stroke:black; " description="&lt;b&gt;BRAEL_RS52595&lt;/b&gt;&lt;br&gt;UPF0280 family protein&lt;br&gt;Location: 1515101 - 1514992" locus_tag="BRAEL_RS52595" class="clusterblast-orf" id="dummy-1_h1_9_24"  />
</g>
<g id="a1_0025"  >
<polygon points="439,85 444,80 453,80 453,90 444,90 439,85 " style="fill:white; stroke-width:1; stroke:black; " description="&lt;b&gt;BRAEL_RS0107355&lt;/b&gt;&lt;br&gt;sulfate transporter family protein&lt;br&gt;Location: 1514993 - 1514241" locus_tag="BRAEL_RS0107355" class="clusterblast-orf" id="dummy-1_h1_9_25"  />
</g>
<g id="a1_0026"  >
<polygon points="455,85 460,80 482,80 482,90 460,90 455,85 " style="fill:white; stroke-width:1; stroke:black; " description="&lt;b&gt;BRAEL_RS0107350&lt;/b&gt;&lt;br&gt;MFS transporter&lt;br&gt;Location: 1514136 - 1512724" locus_tag="BRAEL_RS0107350" class="clusterblast-orf" id="dummy-1_h1_9_26"  />
</g>
<g id="a1_0027"  >
<polygon points="486,85 491,80 511,80 511,90 491,90 486,85 " style="fill:white; stroke-width:1; stroke:black; " description="&lt;b&gt;BRAEL_RS0107340&lt;/b&gt;&lt;br&gt;IS4 family transposase&lt;br&gt;Location: 1512531 - 1511242" locus_tag="BRAEL_RS0107340" class="clusterblast-orf" id="dummy-1_h1_9_27"  />
</g>
<g id="a1_0028"  >
<polygon points="517,85 522,80 535,80 535,90 522,90 517,85 " style="fill:white; stroke-width:1; stroke:black; " description="&lt;b&gt;BRAEL_RS0107335&lt;/b&gt;&lt;br&gt;LysR family transcriptional regulator&lt;br&gt;Location: 1510878 - 1509955" locus_tag="BRAEL_RS0107335" class="clusterblast-orf" id="dummy-1_h1_9_28"  />
</g>
<g id="a1_0029"  >
<polygon points="538,90 556,90 561,85 556,80 538,80 538,90 " style="fill:white; stroke-width:1; stroke:black; " description="&lt;b&gt;BRAEL_RS0107330&lt;/b&gt;&lt;br&gt;CoA transferase&lt;br&gt;Location: 1509784 - 1508615" locus_tag="BRAEL_RS0107330" class="clusterblast-orf" id="dummy-1_h1_9_29"  />
</g>
<g id="a1_0030"  >
<polygon points="561,90 574,90 579,85 574,80 561,80 561,90 " style="fill:white; stroke-width:1; stroke:black; " description="&lt;b&gt;BRAEL_RS0107325&lt;/b&gt;&lt;br&gt;hydroxymethylglutaryl-CoA lyase&lt;br&gt;Location: 1508607 - 1507660" locus_tag="BRAEL_RS0107325" class="clusterblast-orf" id="dummy-1_h1_9_30"  />
</g>
<g id="a1_0031"  >
<polygon points="581,85 586,80 590,80 590,90 586,90 581,85 " style="fill:white; stroke-width:1; stroke:black; " description="&lt;b&gt;BRAEL_RS0107320&lt;/b&gt;&lt;br&gt;nickel-responsive transcriptional regulator NikR&lt;br&gt;Location: 1507547 - 1507110" locus_tag="BRAEL_RS0107320" class="clusterblast-orf" id="dummy-1_h1_9_31"  />
</g>
<g id="a1_0032"  >
<polygon points="595,90 629,90 634,85 629,80 595,80 595,90 " style="fill:white; stroke-width:1; stroke:black; " description="&lt;b&gt;BRAEL_RS0107315&lt;/b&gt;&lt;br&gt;TonB-dependent receptor&lt;br&gt;Location: 1506848 - 1504758" locus_tag="BRAEL_RS0107315" class="clusterblast-orf" id="dummy-1_h1_9_32"  />
</g>
<g id="a1_0033"  >
<polygon points="635,85 640,80 651,80 651,90 640,90 635,85 " style="fill:white; stroke-width:1; stroke:black; " description="&lt;b&gt;BRAEL_RS46735&lt;/b&gt;&lt;br&gt;hypothetical protein&lt;br&gt;Location: 1504754 - 1503882" locus_tag="BRAEL_RS46735" class="clusterblast-orf" id="dummy-1_h1_9_33"  />
</g>
<g id="a1_0034"  >
<polygon points="655,90 677,90 682,85 677,80 655,80 655,90 " style="fill:white; stroke-width:1; stroke:black; " description="&lt;b&gt;BRAEL_RS0107305&lt;/b&gt;&lt;br&gt;NAD(P)-binding protein&lt;br&gt;Location: 1503674 - 1502262" locus_tag="BRAEL_RS0107305" class="clusterblast-orf" id="dummy-1_h1_9_34"  />
</g>
<g id="a1_0035"  >
<polygon points="687,85 692,80 705,80 705,90 692,90 687,85 " style="fill:white; stroke-width:1; stroke:black; " description="&lt;b&gt;BRAEL_RS0107300&lt;/b&gt;&lt;br&gt;MBL fold metallo-hydrolase&lt;br&gt;Location: 1502010 - 1501066" locus_tag="BRAEL_RS0107300" class="clusterblast-orf" id="dummy-1_h1_9_35"  />
</g>
<g id="a1_0036"  >
<polygon points="706,85 711,80 721,80 721,90 711,90 706,85 " style="fill:white; stroke-width:1; stroke:black; " description="&lt;b&gt;BRAEL_RS0107295&lt;/b&gt;&lt;br&gt;sulfite exporter TauE/SafE family protein&lt;br&gt;Location: 1501030 - 1500254" locus_tag="BRAEL_RS0107295" class="clusterblast-orf" id="dummy-1_h1_9_36"  />
</g>
<g id="a1_0037"  >
<polygon points="725,85 730,80 771,80 771,90 730,90 725,85 " style="fill:white; stroke-width:1; stroke:black; " description="&lt;b&gt;BRAEL_RS0107290&lt;/b&gt;&lt;br&gt;phenylalanine--tRNA ligase subunit beta&lt;br&gt;Location: 1500011 - 1497603" locus_tag="BRAEL_RS0107290" class="clusterblast-orf" id="dummy-1_h1_9_37"  />
</g>
<g id="a1_0038"  >
<polygon points="771,85 776,80 780,80 780,90 776,90 771,85 " style="fill:white; stroke-width:1; stroke:black; " description="&lt;b&gt;BRAEL_RS0107285&lt;/b&gt;&lt;br&gt;endonuclease domain-containing protein&lt;br&gt;Location: 1497606 - 1497172" locus_tag="BRAEL_RS0107285" class="clusterblast-orf" id="dummy-1_h1_9_38"  />
</g>
</svg>
