<svg xmlns="http://www.w3.org/2000/svg" xmlns:xlink="http://www.w3.org/1999/xlink" version="1.1" x="0" y="0" height="230" width="800" viewBox="0 0 800 230" preserveAspectRatio="none"  >
<g label="Query sequence" class="clusterblast-cluster"  >
<text x="5" y="20" class="clusterblast-acc"  >
Query sequence</text>
<line x1="10" y1="35" x2="778.0" y2="35" style="stroke-width:1; stroke:grey; "  />
<polygon points="0,40 30,40 35,35 30,30 0,30 0,40 " style="fill:white; stroke-width:1; stroke:black; " description="&lt;b&gt;JDHOFBHF_00496&lt;/b&gt;&lt;br&gt;hypothetical protein&lt;br&gt;Location: 31722 - 32631" locus_tag="JDHOFBHF_00496" class="clusterblast-orf" id="dummy-1_q0_0_all"  />
<polygon points="38,40 63,40 68,35 63,30 38,30 38,40 " style="fill:white; stroke-width:1; stroke:black; " description="&lt;b&gt;JDHOFBHF_00497&lt;/b&gt;&lt;br&gt;Gamma-glutamyl-gamma-aminobutyrate hydrolase PuuD&lt;br&gt;Location: 32707 - 33481" locus_tag="JDHOFBHF_00497" class="clusterblast-orf" id="dummy-1_q1_0_all"  />
<polygon points="68,35 73,30 89,30 89,40 73,40 68,35 " style="fill:white; stroke-width:1; stroke:black; " description="&lt;b&gt;JDHOFBHF_00498&lt;/b&gt;&lt;br&gt;hypothetical protein&lt;br&gt;Location: 33486 - 34038" locus_tag="JDHOFBHF_00498" class="clusterblast-orf" id="dummy-1_q2_0_all"  />
<polygon points="96,40 124,40 129,35 124,30 96,30 96,40 " style="fill:white; stroke-width:1; stroke:black; " description="&lt;b&gt;JDHOFBHF_00499&lt;/b&gt;&lt;br&gt;hypothetical protein&lt;br&gt;Location: 34217 - 35066" locus_tag="JDHOFBHF_00499" class="clusterblast-orf" id="dummy-1_q3_0_all"  />
<polygon points="132,35 137,30 166,30 166,40 137,40 132,35 " style="fill:#d81515; stroke-width:1; stroke:black; " description="&lt;b&gt;JDHOFBHF_00500&lt;/b&gt;&lt;br&gt;2-succinyl-6-hydroxy-2, 4-cyclohexadiene-1-carboxylate synthase&lt;br&gt;Location: 35150 - 36023" locus_tag="JDHOFBHF_00500" class="clusterblast-orf" id="dummy-1_q4_0_all"  />
<polygon points="166,35 171,30 232,30 232,40 171,40 166,35 " style="fill:#63d815; stroke-width:1; stroke:black; " description="&lt;b&gt;JDHOFBHF_00501&lt;/b&gt;&lt;br&gt;Magnesium-chelatase 60 kDa subunit&lt;br&gt;Location: 36026 - 37748" locus_tag="JDHOFBHF_00501" class="clusterblast-orf" id="dummy-1_q5_0_all"  />
<polygon points="234,35 239,30 273,30 273,40 239,40 234,35 " style="fill:#15b1d8; stroke-width:1; stroke:black; " description="&lt;b&gt;JDHOFBHF_00502&lt;/b&gt;&lt;br&gt;Magnesium-chelatase 38 kDa subunit&lt;br&gt;Location: 37809 - 38811" locus_tag="JDHOFBHF_00502" class="clusterblast-orf" id="dummy-1_q6_0_all"  />
<polygon points="273,35 278,30 300,30 300,40 278,40 273,35 " style="fill:#b115d8; stroke-width:1; stroke:black; " description="&lt;b&gt;JDHOFBHF_00503&lt;/b&gt;&lt;br&gt;Spheroidene monooxygenase&lt;br&gt;Location: 38807 - 39512" locus_tag="JDHOFBHF_00503" class="clusterblast-orf" id="dummy-1_q7_0_all"  />
<polygon points="305,40 360,40 365,35 360,30 305,30 305,40 " style="fill:#d86315; stroke-width:1; stroke:black; " description="&lt;b&gt;JDHOFBHF_00504&lt;/b&gt;&lt;br&gt;Phytoene desaturase (neurosporene-forming)&lt;br&gt;Location: 39646 - 41188" locus_tag="JDHOFBHF_00504" class="clusterblast-orf" id="dummy-1_q8_0_all"  />
<polygon points="365,40 399,40 404,35 399,30 365,30 365,40 " style="fill:#15d815; stroke-width:1; stroke:black; " description="&lt;b&gt;JDHOFBHF_00505&lt;/b&gt;&lt;br&gt;hypothetical protein&lt;br&gt;Location: 41184 - 42219" locus_tag="JDHOFBHF_00505" class="clusterblast-orf" id="dummy-1_q9_0_all"  />
<polygon points="409,40 422,40 427,35 422,30 409,30 409,40 " style="fill:#1563d8; stroke-width:1; stroke:black; " description="&lt;b&gt;JDHOFBHF_00506&lt;/b&gt;&lt;br&gt;Tryptophan-rich sensory protein&lt;br&gt;Location: 42338 - 42797" locus_tag="JDHOFBHF_00506" class="clusterblast-orf" id="dummy-1_q10_0_all"  />
<polygon points="427,35 432,30 448,30 448,40 432,40 427,35 " style="fill:#d815b1; stroke-width:1; stroke:black; " description="&lt;b&gt;JDHOFBHF_00507&lt;/b&gt;&lt;br&gt;Isopentenyl-diphosphate Delta-isomerase&lt;br&gt;Location: 42803 - 43355" locus_tag="JDHOFBHF_00507" class="clusterblast-orf" id="dummy-1_q11_0_all"  />
<polygon points="448,35 453,30 494,30 494,40 453,40 448,35 " style="fill:#d8b115; stroke-width:1; stroke:black; " description="&lt;b&gt;JDHOFBHF_00508&lt;/b&gt;&lt;br&gt;Menaquinone reductase&lt;br&gt;Location: 43351 - 44533" locus_tag="JDHOFBHF_00508" class="clusterblast-orf" id="dummy-1_q12_0_all"  />
<polygon points="494,35 499,30 543,30 543,40 499,40 494,35 " style="fill:#15d863; stroke-width:1; stroke:black; " description="&lt;b&gt;JDHOFBHF_00509&lt;/b&gt;&lt;br&gt;Protein PucC&lt;br&gt;Location: 44536 - 45808" locus_tag="JDHOFBHF_00509" class="clusterblast-orf" id="dummy-1_q13_0_all"  />
<polygon points="543,35 548,30 577,30 577,40 548,40 543,35 " style="fill:#1515d8; stroke-width:1; stroke:black; " description="&lt;b&gt;JDHOFBHF_00510&lt;/b&gt;&lt;br&gt;1,4-dihydroxy-2-naphthoate octaprenyltransferase&lt;br&gt;Location: 45804 - 46701" locus_tag="JDHOFBHF_00510" class="clusterblast-orf" id="dummy-1_q14_0_all"  />
<polygon points="578,40 594,40 599,35 594,30 578,30 578,40 " style="fill:white; stroke-width:1; stroke:black; " description="&lt;b&gt;JDHOFBHF_00511&lt;/b&gt;&lt;br&gt;hypothetical protein&lt;br&gt;Location: 46710 - 47274" locus_tag="JDHOFBHF_00511" class="clusterblast-orf" id="dummy-1_q15_0_all"  />
<polygon points="599,35 604,30 623,30 623,40 604,40 599,35 " style="fill:#d81563; stroke-width:1; stroke:black; " description="&lt;b&gt;JDHOFBHF_00512&lt;/b&gt;&lt;br&gt;hypothetical protein&lt;br&gt;Location: 47260 - 47881" locus_tag="JDHOFBHF_00512" class="clusterblast-orf" id="dummy-1_q16_0_all"  />
<polygon points="623,35 628,30 688,30 688,40 628,40 623,35 " style="fill:#b1d815; stroke-width:1; stroke:black; " description="&lt;b&gt;JDHOFBHF_00513&lt;/b&gt;&lt;br&gt;Anaerobic magnesium-protoporphyrin IX monomethyl ester cyclase&lt;br&gt;Location: 47887 - 49579" locus_tag="JDHOFBHF_00513" class="clusterblast-orf" id="dummy-1_q17_0_all"  />
<polygon points="692,35 697,30 747,30 747,40 697,40 692,35 " style="fill:#15d8b1; stroke-width:1; stroke:black; " description="&lt;b&gt;JDHOFBHF_00514&lt;/b&gt;&lt;br&gt;hypothetical protein&lt;br&gt;Location: 49678 - 51106" locus_tag="JDHOFBHF_00514" class="clusterblast-orf" id="dummy-1_q18_0_all"  />
<polygon points="749,35 754,30 780,30 780,40 754,40 749,35 " style="fill:#6315d8; stroke-width:1; stroke:black; " description="&lt;b&gt;JDHOFBHF_00515&lt;/b&gt;&lt;br&gt;hypothetical protein&lt;br&gt;Location: 51163 - 51961" locus_tag="JDHOFBHF_00515" class="clusterblast-orf" id="dummy-1_q19_0_all"  />
</g>
<g label="NZ_SNYP01000010" description="NZ_SNYP01000010 (18408-39440): Rhodobacter veldkampii DSM 11550 Ga0310482 110... (61% of genes show similarity), terpene" class="clusterblast-cluster"  >
<text x="5" y="70" class="clusterblast-acc"  >
<a xlink:href="https://antismash-db.secondarymetabolites.org/area.html?record=NZ_SNYP01000010&amp;start=18408&amp;end=39440" target="_blank">NZ_SNYP01000010 (18408-39440)</a>: Rhodobacter veldkampii DSM 11550 Ga0310482 110... (61% of genes show similarity), terpene</text>
<line x1="10" y1="85" x2="778.0" y2="85" style="stroke-width:1; stroke:grey; "  />
</g>
<g id="a1_000"  >
<polygon points="1,90 31,90 36,85 31,80 1,80 1,90 " style="fill:#1515d8; stroke-width:1; stroke:black; " description="&lt;b&gt;EV658_RS07745&lt;/b&gt;&lt;br&gt;chlorophyll synthase ChlG&lt;br&gt;Location: 39411 - 38506&lt;br&gt;&lt;br&gt;&lt;b&gt;BlastP hit with JDHOFBHF_00510&lt;/b&gt;&lt;br&gt;Percentage identity: 70&lt;br&gt;Percentage coverage: 100&lt;br&gt;BLAST bit score: 435&lt;br&gt;E-value: 2.77e-153" locus_tag="EV658_RS07745" class="clusterblast-orf" id="dummy-1_h1_5_0"  />
</g>
<g id="a1_001"  >
<polygon points="36,90 80,90 85,85 80,80 36,80 36,90 " style="fill:#15d863; stroke-width:1; stroke:black; " description="&lt;b&gt;EV658_RS07740&lt;/b&gt;&lt;br&gt;BCD family MFS transporter&lt;br&gt;Location: 38506 - 37223&lt;br&gt;&lt;br&gt;&lt;b&gt;BlastP hit with JDHOFBHF_00509&lt;/b&gt;&lt;br&gt;Percentage identity: 63&lt;br&gt;Percentage coverage: 97&lt;br&gt;BLAST bit score: 449&lt;br&gt;E-value: 6.23e-155" locus_tag="EV658_RS07740" class="clusterblast-orf" id="dummy-1_h1_5_1"  />
</g>
<g id="a1_002"  >
<polygon points="86,90 126,90 131,85 126,80 86,80 86,90 " style="fill:#d8b115; stroke-width:1; stroke:black; " description="&lt;b&gt;EV658_RS07735&lt;/b&gt;&lt;br&gt;geranylgeranyl diphosphate reductase&lt;br&gt;Location: 37220 - 36039&lt;br&gt;&lt;br&gt;&lt;b&gt;BlastP hit with JDHOFBHF_00508&lt;/b&gt;&lt;br&gt;Percentage identity: 73&lt;br&gt;Percentage coverage: 100&lt;br&gt;BLAST bit score: 582&lt;br&gt;E-value: 3.27e-208" locus_tag="EV658_RS07735" class="clusterblast-orf" id="dummy-1_h1_5_2"  />
</g>
<g id="a1_003"  >
<polygon points="131,90 146,90 151,85 146,80 131,80 131,90 " style="fill:#d815b1; stroke-width:1; stroke:black; " description="&lt;b&gt;EV658_RS07730&lt;/b&gt;&lt;br&gt;isopentenyl-diphosphate Delta-isomerase&lt;br&gt;Location: 36042 - 35518&lt;br&gt;&lt;br&gt;&lt;b&gt;BlastP hit with JDHOFBHF_00507&lt;/b&gt;&lt;br&gt;Percentage identity: 63&lt;br&gt;Percentage coverage: 93&lt;br&gt;BLAST bit score: 235&lt;br&gt;E-value: 5.17e-78" locus_tag="EV658_RS07730" class="clusterblast-orf" id="dummy-1_h1_5_3"  />
</g>
<g id="a1_004"  >
<polygon points="152,85 157,80 188,80 188,90 157,90 152,85 " style="fill:#d81515; stroke-width:1; stroke:black; " description="&lt;b&gt;EV658_RS07725&lt;/b&gt;&lt;br&gt;alpha/beta fold hydrolase&lt;br&gt;Location: 35497 - 34568&lt;br&gt;&lt;br&gt;&lt;b&gt;BlastP hit with JDHOFBHF_00500&lt;/b&gt;&lt;br&gt;Percentage identity: 53&lt;br&gt;Percentage coverage: 96&lt;br&gt;BLAST bit score: 289&lt;br&gt;E-value: 9.91e-96" locus_tag="EV658_RS07725" class="clusterblast-orf" id="dummy-1_h1_5_4"  />
</g>
<g id="a1_005"  >
<polygon points="186,85 191,80 252,80 252,90 191,90 186,85 " style="fill:#63d815; stroke-width:1; stroke:black; " description="&lt;b&gt;EV658_RS07720&lt;/b&gt;&lt;br&gt;magnesium chelatase subunit D&lt;br&gt;Location: 34614 - 32914&lt;br&gt;&lt;br&gt;&lt;b&gt;BlastP hit with JDHOFBHF_00501&lt;/b&gt;&lt;br&gt;Percentage identity: 57&lt;br&gt;Percentage coverage: 99&lt;br&gt;BLAST bit score: 531&lt;br&gt;E-value: 1.25e-182" locus_tag="EV658_RS07720" class="clusterblast-orf" id="dummy-1_h1_5_5"  />
</g>
<g id="a1_006"  >
<polygon points="251,85 256,80 290,80 290,90 256,90 251,85 " style="fill:#15b1d8; stroke-width:1; stroke:black; " description="&lt;b&gt;EV658_RS07715&lt;/b&gt;&lt;br&gt;magnesium chelatase ATPase subunit I&lt;br&gt;Location: 32917 - 31913&lt;br&gt;&lt;br&gt;&lt;b&gt;BlastP hit with JDHOFBHF_00502&lt;/b&gt;&lt;br&gt;Percentage identity: 82&lt;br&gt;Percentage coverage: 99&lt;br&gt;BLAST bit score: 538&lt;br&gt;E-value: 1.16e-192" locus_tag="EV658_RS07715" class="clusterblast-orf" id="dummy-1_h1_5_6"  />
</g>
<g id="a1_007"  >
<polygon points="293,85 298,80 319,80 319,90 298,90 293,85 " style="fill:#b115d8; stroke-width:1; stroke:black; " description="&lt;b&gt;EV658_RS07710&lt;/b&gt;&lt;br&gt;spheroidene monooxygenase&lt;br&gt;Location: 31850 - 31155&lt;br&gt;&lt;br&gt;&lt;b&gt;BlastP hit with JDHOFBHF_00503&lt;/b&gt;&lt;br&gt;Percentage identity: 49&lt;br&gt;Percentage coverage: 99&lt;br&gt;BLAST bit score: 231&lt;br&gt;E-value: 1.12e-74" locus_tag="EV658_RS07710" class="clusterblast-orf" id="dummy-1_h1_5_7"  />
</g>
<g id="a1_008"  >
<polygon points="324,90 381,90 386,85 381,80 324,80 324,90 " style="fill:#d86315; stroke-width:1; stroke:black; " description="&lt;b&gt;EV658_RS07705&lt;/b&gt;&lt;br&gt;phytoene desaturase&lt;br&gt;Location: 31023 - 29437&lt;br&gt;&lt;br&gt;&lt;b&gt;BlastP hit with JDHOFBHF_00504&lt;/b&gt;&lt;br&gt;Percentage identity: 70&lt;br&gt;Percentage coverage: 98&lt;br&gt;BLAST bit score: 725&lt;br&gt;E-value: 1.73e-260" locus_tag="EV658_RS07705" class="clusterblast-orf" id="dummy-1_h1_5_8"  />
</g>
<g id="a1_009"  >
<polygon points="385,90 420,90 425,85 420,80 385,80 385,90 " style="fill:#15d815; stroke-width:1; stroke:black; " description="&lt;b&gt;EV658_RS07700&lt;/b&gt;&lt;br&gt;phytoene/squalene synthase family protein&lt;br&gt;Location: 29440 - 28409&lt;br&gt;&lt;br&gt;&lt;b&gt;BlastP hit with JDHOFBHF_00505&lt;/b&gt;&lt;br&gt;Percentage identity: 64&lt;br&gt;Percentage coverage: 98&lt;br&gt;BLAST bit score: 387&lt;br&gt;E-value: 9.92e-133" locus_tag="EV658_RS07700" class="clusterblast-orf" id="dummy-1_h1_5_9"  />
</g>
<g id="a1_0010"  >
<polygon points="429,90 440,90 445,85 440,80 429,80 429,90 " style="fill:#1563d8; stroke-width:1; stroke:black; " description="&lt;b&gt;EV658_RS16260&lt;/b&gt;&lt;br&gt;tryptophan-rich sensory protein&lt;br&gt;Location: 28321 - 27887&lt;br&gt;&lt;br&gt;&lt;b&gt;BlastP hit with JDHOFBHF_00506&lt;/b&gt;&lt;br&gt;Percentage identity: 56&lt;br&gt;Percentage coverage: 95&lt;br&gt;BLAST bit score: 173&lt;br&gt;E-value: 1.33e-54" locus_tag="EV658_RS16260" class="clusterblast-orf" id="dummy-1_h1_5_10"  />
</g>
<g id="a1_0011"  >
<polygon points="458,85 463,80 490,80 490,90 463,90 458,85 " style="fill:white; stroke-width:1; stroke:black; " description="&lt;b&gt;EV658_RS07690&lt;/b&gt;&lt;br&gt;carotenoid 1,2-hydratase&lt;br&gt;Location: 27568 - 26723" locus_tag="EV658_RS07690" class="clusterblast-orf" id="dummy-1_h1_5_11"  />
</g>
<g id="a1_0012"  >
<polygon points="493,85 498,80 551,80 551,90 498,90 493,85 " style="fill:white; stroke-width:1; stroke:black; " description="&lt;b&gt;EV658_RS07685&lt;/b&gt;&lt;br&gt;phytoene desaturase&lt;br&gt;Location: 26651 - 25155" locus_tag="EV658_RS07685" class="clusterblast-orf" id="dummy-1_h1_5_12"  />
</g>
<g id="a1_0013"  >
<polygon points="555,90 584,90 589,85 584,80 555,80 555,90 " style="fill:white; stroke-width:1; stroke:black; " description="&lt;b&gt;EV658_RS07680&lt;/b&gt;&lt;br&gt;polyprenyl synthetase family protein&lt;br&gt;Location: 25045 - 24149" locus_tag="EV658_RS07680" class="clusterblast-orf" id="dummy-1_h1_5_13"  />
</g>
<g id="a1_0014"  >
<polygon points="589,90 628,90 633,85 628,80 589,80 589,90 " style="fill:white; stroke-width:1; stroke:black; " description="&lt;b&gt;EV658_RS07675&lt;/b&gt;&lt;br&gt;methyltransferase domain-containing protein&lt;br&gt;Location: 24147 - 23005" locus_tag="EV658_RS07675" class="clusterblast-orf" id="dummy-1_h1_5_14"  />
</g>
<g id="a1_0015"  >
<polygon points="639,90 671,90 676,85 671,80 639,80 639,90 " style="fill:white; stroke-width:1; stroke:black; " description="&lt;b&gt;EV658_RS07670&lt;/b&gt;&lt;br&gt;chlorophyll synthesis pathway protein BchC&lt;br&gt;Location: 22857 - 21901" locus_tag="EV658_RS07670" class="clusterblast-orf" id="dummy-1_h1_5_15"  />
</g>
<g id="a1_0016"  >
<polygon points="676,90 710,90 715,85 710,80 676,80 676,90 " style="fill:white; stroke-width:1; stroke:black; " description="&lt;b&gt;EV658_RS07665&lt;/b&gt;&lt;br&gt;chlorophyllide a reductase iron protein subunit X&lt;br&gt;Location: 21904 - 20900" locus_tag="EV658_RS07665" class="clusterblast-orf" id="dummy-1_h1_5_16"  />
</g>
<g id="a1_0017"  >
<polygon points="718,90 773,90 778,85 773,80 718,80 718,90 " style="fill:white; stroke-width:1; stroke:black; " description="&lt;b&gt;EV658_RS07660&lt;/b&gt;&lt;br&gt;chlorophyllide a reductase subunit Y&lt;br&gt;Location: 20821 - 19256" locus_tag="EV658_RS07660" class="clusterblast-orf" id="dummy-1_h1_5_17"  />
</g>
</svg>
