<svg xmlns="http://www.w3.org/2000/svg" xmlns:xlink="http://www.w3.org/1999/xlink" version="1.1" x="0" y="0" height="230" width="800" viewBox="0 0 800 230" preserveAspectRatio="none"  >
<g label="Query sequence" class="clusterblast-cluster"  >
<text x="5" y="20" class="clusterblast-acc"  >
Query sequence</text>
<line x1="10" y1="35" x2="778.0" y2="35" style="stroke-width:1; stroke:grey; "  />
<polygon points="0,40 110,40 115,35 110,30 0,30 0,40 " style="fill:white; stroke-width:1; stroke:black; " description="&lt;b&gt;JDHOFBHF_02312&lt;/b&gt;&lt;br&gt;hypothetical protein&lt;br&gt;Location: 176170 - 177415" locus_tag="JDHOFBHF_02312" class="clusterblast-orf" id="dummy-1_q0_0_all"  />
<polygon points="115,40 154,40 159,35 154,30 115,30 115,40 " style="fill:white; stroke-width:1; stroke:black; " description="&lt;b&gt;JDHOFBHF_02313&lt;/b&gt;&lt;br&gt;Putative pre-16S rRNA nuclease&lt;br&gt;Location: 177411 - 177891" locus_tag="JDHOFBHF_02313" class="clusterblast-orf" id="dummy-1_q1_0_all"  />
<polygon points="165,40 181,40 186,35 181,30 165,30 165,40 " style="fill:white; stroke-width:1; stroke:black; " description="&lt;b&gt;JDHOFBHF_02314&lt;/b&gt;&lt;br&gt;hypothetical protein&lt;br&gt;Location: 177957 - 178182" locus_tag="JDHOFBHF_02314" class="clusterblast-orf" id="dummy-1_q2_0_all"  />
<polygon points="192,35 197,30 322,30 322,40 197,40 192,35 " style="fill:#d81515; stroke-width:1; stroke:black; " description="&lt;b&gt;JDHOFBHF_02315&lt;/b&gt;&lt;br&gt;Aspartate kinase Ask Ect&lt;br&gt;Location: 178242 - 179658" locus_tag="JDHOFBHF_02315" class="clusterblast-orf" id="dummy-1_q3_0_all"  />
<polygon points="330,35 335,30 365,30 365,40 335,40 330,35 " style="fill:#15d863; stroke-width:1; stroke:black; " description="&lt;b&gt;JDHOFBHF_02316&lt;/b&gt;&lt;br&gt;L-ectoine synthase&lt;br&gt;Location: 179738 - 180125" locus_tag="JDHOFBHF_02316" class="clusterblast-orf" id="dummy-1_q4_0_all"  />
<polygon points="366,35 371,30 484,30 484,40 371,40 366,35 " style="fill:#1563d8; stroke-width:1; stroke:black; " description="&lt;b&gt;JDHOFBHF_02317&lt;/b&gt;&lt;br&gt;Diaminobutyrate--2-oxoglutarate transaminase&lt;br&gt;Location: 180130 - 181411" locus_tag="JDHOFBHF_02317" class="clusterblast-orf" id="dummy-1_q5_0_all"  />
<polygon points="490,35 495,30 540,30 540,40 495,40 490,35 " style="fill:#b115d8; stroke-width:1; stroke:black; " description="&lt;b&gt;JDHOFBHF_02318&lt;/b&gt;&lt;br&gt;L-2,4-diaminobutyric acid acetyltransferase&lt;br&gt;Location: 181469 - 182012" locus_tag="JDHOFBHF_02318" class="clusterblast-orf" id="dummy-1_q6_0_all"  />
<polygon points="564,40 603,40 608,35 603,30 564,30 564,40 " style="fill:#b1d815; stroke-width:1; stroke:black; " description="&lt;b&gt;JDHOFBHF_02319&lt;/b&gt;&lt;br&gt;Transcriptional regulator SlyA&lt;br&gt;Location: 182272 - 182758" locus_tag="JDHOFBHF_02319" class="clusterblast-orf" id="dummy-1_q7_0_all"  />
<polygon points="611,35 616,30 715,30 715,40 616,40 611,35 " style="fill:white; stroke-width:1; stroke:black; " description="&lt;b&gt;JDHOFBHF_02320&lt;/b&gt;&lt;br&gt;hypothetical protein&lt;br&gt;Location: 182789 - 183917" locus_tag="JDHOFBHF_02320" class="clusterblast-orf" id="dummy-1_q8_0_all"  />
<polygon points="721,35 726,30 780,30 780,40 726,40 721,35 " style="fill:white; stroke-width:1; stroke:black; " description="&lt;b&gt;JDHOFBHF_02321&lt;/b&gt;&lt;br&gt;Protein-L-isoaspartate O-methyltransferase&lt;br&gt;Location: 183976 - 184621" locus_tag="JDHOFBHF_02321" class="clusterblast-orf" id="dummy-1_q9_0_all"  />
</g>
<g label="NZ_CP049056" description="NZ_CP049056 (3924672-3935059): Rhodobacteraceae bacterium RR4-56 chromosome, ... (71% of genes show similarity), ectoine" class="clusterblast-cluster"  >
<text x="5" y="70" class="clusterblast-acc"  >
<a xlink:href="https://antismash-db.secondarymetabolites.org/area.html?record=NZ_CP049056&amp;start=3924672&amp;end=3935059" target="_blank">NZ_CP049056 (3924672-3935059)</a>: Rhodobacteraceae bacterium RR4-56 chromosome, ... (71% of genes show similarity), ectoine</text>
<line x1="10" y1="85" x2="778.0" y2="85" style="stroke-width:1; stroke:grey; "  />
</g>
<g id="a1_000"  >
<polygon points="19,85 24,80 231,80 231,90 24,90 19,85 " style="fill:white; stroke-width:1; stroke:black; " description="&lt;b&gt;G5B40_RS18715&lt;/b&gt;&lt;br&gt;hypothetical protein&lt;br&gt;Location: 3925785 - 3928079" locus_tag="G5B40_RS18715" class="clusterblast-orf" id="dummy-1_h1_4_0"  />
</g>
<g id="a1_001"  >
<polygon points="239,85 244,80 373,80 373,90 244,90 239,85 " style="fill:#d81515; stroke-width:1; stroke:black; " description="&lt;b&gt;G5B40_RS18720&lt;/b&gt;&lt;br&gt;aspartate kinase&lt;br&gt;Location: 3928165 - 3929622&lt;br&gt;&lt;br&gt;&lt;b&gt;BlastP hit with JDHOFBHF_02315&lt;/b&gt;&lt;br&gt;Percentage identity: 68&lt;br&gt;Percentage coverage: 97&lt;br&gt;BLAST bit score: 621&lt;br&gt;E-value: 5.7e-221" locus_tag="G5B40_RS18720" class="clusterblast-orf" id="dummy-1_h1_4_1"  />
</g>
<g id="a1_002"  >
<polygon points="378,85 383,80 413,80 413,90 383,90 378,85 " style="fill:#15d863; stroke-width:1; stroke:black; " description="&lt;b&gt;G5B40_RS18725&lt;/b&gt;&lt;br&gt;ectoine synthase&lt;br&gt;Location: 3929673 - 3930059&lt;br&gt;&lt;br&gt;&lt;b&gt;BlastP hit with JDHOFBHF_02316&lt;/b&gt;&lt;br&gt;Percentage identity: 77&lt;br&gt;Percentage coverage: 99&lt;br&gt;BLAST bit score: 218&lt;br&gt;E-value: 4.49e-73" locus_tag="G5B40_RS18725" class="clusterblast-orf" id="dummy-1_h1_4_2"  />
</g>
<g id="a1_003"  >
<polygon points="414,85 419,80 533,80 533,90 419,90 414,85 " style="fill:#1563d8; stroke-width:1; stroke:black; " description="&lt;b&gt;G5B40_RS18730&lt;/b&gt;&lt;br&gt;diaminobutyrate--2-oxoglutarate transaminase&lt;br&gt;Location: 3930064 - 3931356&lt;br&gt;&lt;br&gt;&lt;b&gt;BlastP hit with JDHOFBHF_02317&lt;/b&gt;&lt;br&gt;Percentage identity: 70&lt;br&gt;Percentage coverage: 98&lt;br&gt;BLAST bit score: 591&lt;br&gt;E-value: 1.01e-210" locus_tag="G5B40_RS18730" class="clusterblast-orf" id="dummy-1_h1_4_3"  />
</g>
<g id="a1_004"  >
<polygon points="537,85 542,80 588,80 588,90 542,90 537,85 " style="fill:#b115d8; stroke-width:1; stroke:black; " description="&lt;b&gt;G5B40_RS18735&lt;/b&gt;&lt;br&gt;diaminobutyrate acetyltransferase&lt;br&gt;Location: 3931404 - 3931946&lt;br&gt;&lt;br&gt;&lt;b&gt;BlastP hit with JDHOFBHF_02318&lt;/b&gt;&lt;br&gt;Percentage identity: 61&lt;br&gt;Percentage coverage: 92&lt;br&gt;BLAST bit score: 220&lt;br&gt;E-value: 3.39e-72" locus_tag="G5B40_RS18735" class="clusterblast-orf" id="dummy-1_h1_4_4"  />
</g>
<g id="a1_005"  >
<polygon points="613,90 652,90 657,85 652,80 613,80 613,90 " style="fill:#b1d815; stroke-width:1; stroke:black; " description="&lt;b&gt;G5B40_RS18740&lt;/b&gt;&lt;br&gt;MarR family transcriptional regulator&lt;br&gt;Location: 3932226 - 3932702&lt;br&gt;&lt;br&gt;&lt;b&gt;BlastP hit with JDHOFBHF_02319&lt;/b&gt;&lt;br&gt;Percentage identity: 48&lt;br&gt;Percentage coverage: 92&lt;br&gt;BLAST bit score: 132&lt;br&gt;E-value: 6.73e-38" locus_tag="G5B40_RS18740" class="clusterblast-orf" id="dummy-1_h1_4_5"  />
</g>
<g id="a1_006"  >
<polygon points="659,85 664,80 760,80 760,90 664,90 659,85 " style="fill:white; stroke-width:1; stroke:black; " description="&lt;b&gt;G5B40_RS18745&lt;/b&gt;&lt;br&gt;CoA transferase&lt;br&gt;Location: 3932724 - 3933815" locus_tag="G5B40_RS18745" class="clusterblast-orf" id="dummy-1_h1_4_6"  />
</g>
</svg>
