<svg xmlns="http://www.w3.org/2000/svg" xmlns:xlink="http://www.w3.org/1999/xlink" version="1.1" x="0" y="0" height="230" width="800" viewBox="0 0 800 230" preserveAspectRatio="none"  >
<g label="Query sequence" class="clusterblast-cluster"  >
<text x="5" y="20" class="clusterblast-acc"  >
Query sequence</text>
<line x1="10" y1="35" x2="778.0" y2="35" style="stroke-width:1; stroke:grey; "  />
<polygon points="40,40 56,40 61,35 56,30 40,30 40,40 " style="fill:white; stroke-width:1; stroke:black; " description="&lt;b&gt;JDHOFBHF_00966&lt;/b&gt;&lt;br&gt;hypothetical protein&lt;br&gt;Location: 3296 - 3863" locus_tag="JDHOFBHF_00966" class="clusterblast-orf" id="dummy-1_q0_0_all"  />
<polygon points="65,40 108,40 113,35 108,30 65,30 65,40 " style="fill:white; stroke-width:1; stroke:black; " description="&lt;b&gt;JDHOFBHF_00967&lt;/b&gt;&lt;br&gt;hypothetical protein&lt;br&gt;Location: 3958 - 5215" locus_tag="JDHOFBHF_00967" class="clusterblast-orf" id="dummy-1_q1_0_all"  />
<polygon points="113,35 118,30 133,30 133,40 118,40 113,35 " style="fill:white; stroke-width:1; stroke:black; " description="&lt;b&gt;JDHOFBHF_00968&lt;/b&gt;&lt;br&gt;hypothetical protein&lt;br&gt;Location: 5237 - 5765" locus_tag="JDHOFBHF_00968" class="clusterblast-orf" id="dummy-1_q2_0_all"  />
<polygon points="140,40 151,40 156,35 151,30 140,30 140,40 " style="fill:white; stroke-width:1; stroke:black; " description="&lt;b&gt;JDHOFBHF_00969&lt;/b&gt;&lt;br&gt;hypothetical protein&lt;br&gt;Location: 5938 - 6361" locus_tag="JDHOFBHF_00969" class="clusterblast-orf" id="dummy-1_q3_0_all"  />
<polygon points="157,40 180,40 185,35 180,30 157,30 157,40 " style="fill:white; stroke-width:1; stroke:black; " description="&lt;b&gt;JDHOFBHF_00970&lt;/b&gt;&lt;br&gt;Tol-Pal system protein TolQ&lt;br&gt;Location: 6393 - 7128" locus_tag="JDHOFBHF_00970" class="clusterblast-orf" id="dummy-1_q4_0_all"  />
<polygon points="185,40 198,40 203,35 198,30 185,30 185,40 " style="fill:white; stroke-width:1; stroke:black; " description="&lt;b&gt;JDHOFBHF_00971&lt;/b&gt;&lt;br&gt;hypothetical protein&lt;br&gt;Location: 7139 - 7592" locus_tag="JDHOFBHF_00971" class="clusterblast-orf" id="dummy-1_q5_0_all"  />
<polygon points="203,40 213,40 218,35 213,30 203,30 203,40 " style="fill:white; stroke-width:1; stroke:black; " description="&lt;b&gt;JDHOFBHF_00972&lt;/b&gt;&lt;br&gt;hypothetical protein&lt;br&gt;Location: 7593 - 8010" locus_tag="JDHOFBHF_00972" class="clusterblast-orf" id="dummy-1_q6_0_all"  />
<polygon points="218,40 277,40 282,35 277,30 218,30 218,40 " style="fill:white; stroke-width:1; stroke:black; " description="&lt;b&gt;JDHOFBHF_00973&lt;/b&gt;&lt;br&gt;hypothetical protein&lt;br&gt;Location: 8006 - 9686" locus_tag="JDHOFBHF_00973" class="clusterblast-orf" id="dummy-1_q7_0_all"  />
<polygon points="289,40 303,40 308,35 303,30 289,30 289,40 " style="fill:white; stroke-width:1; stroke:black; " description="&lt;b&gt;JDHOFBHF_00974&lt;/b&gt;&lt;br&gt;hypothetical protein&lt;br&gt;Location: 9869 - 10376" locus_tag="JDHOFBHF_00974" class="clusterblast-orf" id="dummy-1_q8_0_all"  />
<polygon points="311,35 316,30 343,30 343,40 316,40 311,35 " style="fill:#d81515; stroke-width:1; stroke:black; " description="&lt;b&gt;JDHOFBHF_00975&lt;/b&gt;&lt;br&gt;hypothetical protein&lt;br&gt;Location: 10451 - 11315" locus_tag="JDHOFBHF_00975" class="clusterblast-orf" id="dummy-1_q9_0_all"  />
<polygon points="343,35 348,30 378,30 378,40 348,40 343,35 " style="fill:#15d863; stroke-width:1; stroke:black; " description="&lt;b&gt;JDHOFBHF_00976&lt;/b&gt;&lt;br&gt;hypothetical protein&lt;br&gt;Location: 11311 - 12226" locus_tag="JDHOFBHF_00976" class="clusterblast-orf" id="dummy-1_q10_0_all"  />
<polygon points="384,40 390,40 395,35 390,30 384,30 384,40 " style="fill:#1563d8; stroke-width:1; stroke:black; " description="&lt;b&gt;JDHOFBHF_00977&lt;/b&gt;&lt;br&gt;hypothetical protein&lt;br&gt;Location: 12394 - 12670" locus_tag="JDHOFBHF_00977" class="clusterblast-orf" id="dummy-1_q11_0_all"  />
<polygon points="394,40 408,40 413,35 408,30 394,30 394,40 " style="fill:#b115d8; stroke-width:1; stroke:black; " description="&lt;b&gt;JDHOFBHF_00978&lt;/b&gt;&lt;br&gt;hypothetical protein&lt;br&gt;Location: 12644 - 13151" locus_tag="JDHOFBHF_00978" class="clusterblast-orf" id="dummy-1_q12_0_all"  />
<polygon points="425,35 430,30 432,30 432,40 430,40 425,35 " style="fill:white; stroke-width:1; stroke:black; " description="&lt;b&gt;JDHOFBHF_00979&lt;/b&gt;&lt;br&gt;hypothetical protein&lt;br&gt;Location: 13478 - 13640" locus_tag="JDHOFBHF_00979" class="clusterblast-orf" id="dummy-1_q13_0_all"  />
<polygon points="443,40 484,40 489,35 484,30 443,30 443,40 " style="fill:#b1d815; stroke-width:1; stroke:black; " description="&lt;b&gt;JDHOFBHF_00980&lt;/b&gt;&lt;br&gt;hypothetical protein&lt;br&gt;Location: 13941 - 15147" locus_tag="JDHOFBHF_00980" class="clusterblast-orf" id="dummy-1_q14_0_all"  />
<polygon points="488,40 517,40 522,35 517,30 488,30 488,40 " style="fill:white; stroke-width:1; stroke:black; " description="&lt;b&gt;JDHOFBHF_00981&lt;/b&gt;&lt;br&gt;hypothetical protein&lt;br&gt;Location: 15143 - 16037" locus_tag="JDHOFBHF_00981" class="clusterblast-orf" id="dummy-1_q15_0_all"  />
<polygon points="523,35 528,30 596,30 596,40 528,40 523,35 " style="fill:white; stroke-width:1; stroke:black; " description="&lt;b&gt;JDHOFBHF_00982&lt;/b&gt;&lt;br&gt;hypothetical protein&lt;br&gt;Location: 16044 - 17994" locus_tag="JDHOFBHF_00982" class="clusterblast-orf" id="dummy-1_q16_0_all"  />
<polygon points="597,35 602,30 660,30 660,40 602,40 597,35 " style="fill:white; stroke-width:1; stroke:black; " description="&lt;b&gt;JDHOFBHF_00983&lt;/b&gt;&lt;br&gt;hypothetical protein&lt;br&gt;Location: 18009 - 19668" locus_tag="JDHOFBHF_00983" class="clusterblast-orf" id="dummy-1_q17_0_all"  />
<polygon points="669,40 684,40 689,35 684,30 669,30 669,40 " style="fill:white; stroke-width:1; stroke:black; " description="&lt;b&gt;JDHOFBHF_00984&lt;/b&gt;&lt;br&gt;Peptidoglycan-associated lipoprotein&lt;br&gt;Location: 19911 - 20442" locus_tag="JDHOFBHF_00984" class="clusterblast-orf" id="dummy-1_q18_0_all"  />
<polygon points="693,40 735,40 740,35 735,30 693,30 693,40 " style="fill:white; stroke-width:1; stroke:black; " description="&lt;b&gt;JDHOFBHF_00985&lt;/b&gt;&lt;br&gt;hypothetical protein&lt;br&gt;Location: 20537 - 21785" locus_tag="JDHOFBHF_00985" class="clusterblast-orf" id="dummy-1_q19_0_all"  />
</g>
<g label="NZ_LMXG01000001" description="NZ_LMXG01000001 (785567-809610): Bacillus sp. FJAT-28573 scaffold1, whole gen... (10% of genes show similarity), lassopeptide" class="clusterblast-cluster"  >
<text x="5" y="70" class="clusterblast-acc"  >
<a xlink:href="https://antismash-db.secondarymetabolites.org/area.html?record=NZ_LMXG01000001&amp;start=785567&amp;end=809610" target="_blank">NZ_LMXG01000001 (785567-809610)</a>: Bacillus sp. FJAT-28573 scaffold1, whole gen... (10% of genes show similarity), lassopeptide</text>
<line x1="10" y1="85" x2="778.0" y2="85" style="stroke-width:1; stroke:grey; "  />
</g>
<g id="a1_000"  >
<polygon points="0,85 5,80 13,80 13,90 5,90 0,85 " style="fill:white; stroke-width:1; stroke:black; " description="&lt;b&gt;AR329_RS03680&lt;/b&gt;&lt;br&gt;IS630 family transposase&lt;br&gt;Location: 788238 - 788606" locus_tag="AR329_RS03680" class="clusterblast-orf" id="dummy-1_h1_4_0"  />
</g>
<g id="a1_001"  >
<polygon points="16,85 19,80 19,90 16,85 " style="fill:white; stroke-width:1; stroke:black; " description="&lt;b&gt;AR329_RS26000&lt;/b&gt;&lt;br&gt;winged helix-turn-helix domain-containing protein&lt;br&gt;Location: 788668 - 788757" locus_tag="AR329_RS26000" class="clusterblast-orf" id="dummy-1_h1_4_1"  />
</g>
<g id="a1_002"  >
<polygon points="54,90 113,90 118,85 113,80 54,80 54,90 " style="fill:white; stroke-width:1; stroke:black; " description="&lt;b&gt;AR329_RS03685&lt;/b&gt;&lt;br&gt;hypothetical protein&lt;br&gt;Location: 789667 - 791367" locus_tag="AR329_RS03685" class="clusterblast-orf" id="dummy-1_h1_4_2"  />
</g>
<g id="a1_003"  >
<polygon points="117,85 122,80 136,80 136,90 122,90 117,85 " style="fill:white; stroke-width:1; stroke:black; " description="&lt;b&gt;AR329_RS03690&lt;/b&gt;&lt;br&gt;serine acetyltransferase&lt;br&gt;Location: 791333 - 791836" locus_tag="AR329_RS03690" class="clusterblast-orf" id="dummy-1_h1_4_3"  />
</g>
<g id="a1_004"  >
<polygon points="143,90 153,90 158,85 153,80 143,80 143,90 " style="fill:white; stroke-width:1; stroke:black; " description="&lt;b&gt;AR329_RS03700&lt;/b&gt;&lt;br&gt;hypothetical protein&lt;br&gt;Location: 792041 - 792424" locus_tag="AR329_RS03700" class="clusterblast-orf" id="dummy-1_h1_4_4"  />
</g>
<g id="a1_005"  >
<polygon points="177,90 216,90 221,85 216,80 177,80 177,90 " style="fill:white; stroke-width:1; stroke:black; " description="&lt;b&gt;AR329_RS03705&lt;/b&gt;&lt;br&gt;nucleotidyltransferase family protein&lt;br&gt;Location: 792929 - 794092" locus_tag="AR329_RS03705" class="clusterblast-orf" id="dummy-1_h1_4_5"  />
</g>
<g id="a1_006"  >
<polygon points="229,85 234,80 235,80 235,90 234,90 229,85 " style="fill:white; stroke-width:1; stroke:black; " description="&lt;b&gt;AR329_RS26005&lt;/b&gt;&lt;br&gt;IS110 family transposase&lt;br&gt;Location: 794310 - 794471" locus_tag="AR329_RS26005" class="clusterblast-orf" id="dummy-1_h1_4_6"  />
</g>
<g id="a1_007"  >
<polygon points="277,90 345,90 350,85 345,80 277,80 277,90 " style="fill:white; stroke-width:1; stroke:black; " description="&lt;b&gt;AR329_RS03715&lt;/b&gt;&lt;br&gt;lasso peptide isopeptide bond-forming cyclase&lt;br&gt;Location: 795568 - 797508" locus_tag="AR329_RS03715" class="clusterblast-orf" id="dummy-1_h1_4_7"  />
</g>
<g id="a1_008"  >
<polygon points="351,90 351,90 356,85 351,80 351,80 351,90 " style="fill:white; stroke-width:1; stroke:black; " description="&lt;b&gt;AR329_RS26010&lt;/b&gt;&lt;br&gt;paeninodin family lasso peptide&lt;br&gt;Location: 797523 - 797654" locus_tag="AR329_RS26010" class="clusterblast-orf" id="dummy-1_h1_4_8"  />
</g>
<g id="a1_009"  >
<polygon points="364,90 395,90 400,85 395,80 364,80 364,90 " style="fill:#15d863; stroke-width:1; stroke:black; " description="&lt;b&gt;AR329_RS03720&lt;/b&gt;&lt;br&gt;ATP-binding cassette domain-containing protein&lt;br&gt;Location: 797877 - 798818&lt;br&gt;&lt;br&gt;&lt;b&gt;BlastP hit with JDHOFBHF_00976&lt;/b&gt;&lt;br&gt;Percentage identity: 33&lt;br&gt;Percentage coverage: 100&lt;br&gt;BLAST bit score: 170&lt;br&gt;E-value: 5.34e-49" locus_tag="AR329_RS03720" class="clusterblast-orf" id="dummy-1_h1_4_9"  />
</g>
<g id="a1_0010"  >
<polygon points="400,90 406,90 411,85 406,80 400,80 400,90 " style="fill:#1563d8; stroke-width:1; stroke:black; " description="&lt;b&gt;AR329_RS03725&lt;/b&gt;&lt;br&gt;lasso peptide biosynthesis PqqD family chaperone&lt;br&gt;Location: 798805 - 799098&lt;br&gt;&lt;br&gt;&lt;b&gt;BlastP hit with JDHOFBHF_00977&lt;/b&gt;&lt;br&gt;Percentage identity: 38&lt;br&gt;Percentage coverage: 88&lt;br&gt;BLAST bit score: 66&lt;br&gt;E-value: 1.07e-13" locus_tag="AR329_RS03725" class="clusterblast-orf" id="dummy-1_h1_4_10"  />
</g>
<g id="a1_0011"  >
<polygon points="412,90 425,90 430,85 425,80 412,80 412,90 " style="fill:white; stroke-width:1; stroke:black; " description="&lt;b&gt;AR329_RS03730&lt;/b&gt;&lt;br&gt;lasso peptide biosynthesis B2 protein&lt;br&gt;Location: 799143 - 799610" locus_tag="AR329_RS03730" class="clusterblast-orf" id="dummy-1_h1_4_11"  />
</g>
<g id="a1_0012"  >
<polygon points="434,90 497,90 502,85 497,80 434,80 434,90 " style="fill:white; stroke-width:1; stroke:black; " description="&lt;b&gt;AR329_RS03735&lt;/b&gt;&lt;br&gt;ABC transporter ATP-binding protein&lt;br&gt;Location: 799708 - 801507" locus_tag="AR329_RS03735" class="clusterblast-orf" id="dummy-1_h1_4_12"  />
</g>
<g id="a1_0013"  >
<polygon points="519,90 523,85 519,80 519,90 " style="fill:white; stroke-width:1; stroke:black; " description="&lt;b&gt;AR329_RS25075&lt;/b&gt;&lt;br&gt;DNA-binding anti-repressor SinI&lt;br&gt;Location: 801948 - 802061" locus_tag="AR329_RS25075" class="clusterblast-orf" id="dummy-1_h1_4_13"  />
</g>
<g id="a1_0014"  >
<polygon points="547,90 562,90 567,85 562,80 547,80 547,90 " style="fill:white; stroke-width:1; stroke:black; " description="&lt;b&gt;AR329_RS03740&lt;/b&gt;&lt;br&gt;VanZ family protein&lt;br&gt;Location: 802704 - 803219" locus_tag="AR329_RS03740" class="clusterblast-orf" id="dummy-1_h1_4_14"  />
</g>
<g id="a1_0015"  >
<polygon points="573,85 578,80 583,80 583,90 578,90 573,85 " style="fill:white; stroke-width:1; stroke:black; " description="&lt;b&gt;AR329_RS03745&lt;/b&gt;&lt;br&gt;hypothetical protein&lt;br&gt;Location: 803390 - 803653" locus_tag="AR329_RS03745" class="clusterblast-orf" id="dummy-1_h1_4_15"  />
</g>
<g id="a1_0016"  >
<polygon points="591,85 596,80 605,80 605,90 596,90 591,85 " style="fill:white; stroke-width:1; stroke:black; " description="&lt;b&gt;AR329_RS03750&lt;/b&gt;&lt;br&gt;competence protein ComK&lt;br&gt;Location: 803857 - 804228" locus_tag="AR329_RS03750" class="clusterblast-orf" id="dummy-1_h1_4_16"  />
</g>
<g id="a1_0017"  >
<polygon points="639,90 711,90 716,85 711,80 639,80 639,90 " style="fill:white; stroke-width:1; stroke:black; " description="&lt;b&gt;AR329_RS03755&lt;/b&gt;&lt;br&gt;BglG family transcription antiterminator&lt;br&gt;Location: 805128 - 807158" locus_tag="AR329_RS03755" class="clusterblast-orf" id="dummy-1_h1_4_17"  />
</g>
<g id="a1_0018"  >
<polygon points="716,90 721,90 726,85 721,80 716,80 716,90 " style="fill:white; stroke-width:1; stroke:black; " description="&lt;b&gt;AR329_RS03760&lt;/b&gt;&lt;br&gt;PTS sugar transporter subunit IIB&lt;br&gt;Location: 807155 - 807436" locus_tag="AR329_RS03760" class="clusterblast-orf" id="dummy-1_h1_4_18"  />
</g>
<g id="a1_0019"  >
<polygon points="727,90 775,90 780,85 775,80 727,80 727,90 " style="fill:white; stroke-width:1; stroke:black; " description="&lt;b&gt;AR329_RS03765&lt;/b&gt;&lt;br&gt;PTS ascorbate transporter subunit IIC&lt;br&gt;Location: 807459 - 808841" locus_tag="AR329_RS03765" class="clusterblast-orf" id="dummy-1_h1_4_19"  />
</g>
</svg>
