<svg xmlns="http://www.w3.org/2000/svg" xmlns:xlink="http://www.w3.org/1999/xlink" version="1.1" x="0" y="0" height="230" width="800" viewBox="0 0 800 230" preserveAspectRatio="none"  >
<g label="Query sequence" class="clusterblast-cluster"  >
<text x="5" y="20" class="clusterblast-acc"  >
Query sequence</text>
<line x1="10" y1="35" x2="778.0" y2="35" style="stroke-width:1; stroke:grey; "  />
<polygon points="29,35 34,30 35,30 35,40 34,40 29,35 " style="fill:white; stroke-width:1; stroke:black; " description="&lt;b&gt;JDHOFBHF_03696&lt;/b&gt;&lt;br&gt;hypothetical protein&lt;br&gt;Location: 6018 - 6414" locus_tag="JDHOFBHF_03696" class="clusterblast-orf" id="dummy-1_q0_0_all"  />
<polygon points="35,35 40,30 41,30 41,40 40,40 35,35 " style="fill:white; stroke-width:1; stroke:black; " description="&lt;b&gt;JDHOFBHF_03697&lt;/b&gt;&lt;br&gt;hypothetical protein&lt;br&gt;Location: 6463 - 6844" locus_tag="JDHOFBHF_03697" class="clusterblast-orf" id="dummy-1_q1_0_all"  />
<polygon points="41,40 41,40 46,35 41,30 41,30 41,40 " style="fill:white; stroke-width:1; stroke:black; " description="&lt;b&gt;JDHOFBHF_03698&lt;/b&gt;&lt;br&gt;hypothetical protein&lt;br&gt;Location: 6865 - 7249" locus_tag="JDHOFBHF_03698" class="clusterblast-orf" id="dummy-1_q2_0_all"  />
<polygon points="46,35 51,30 70,30 70,40 51,40 46,35 " style="fill:white; stroke-width:1; stroke:black; " description="&lt;b&gt;JDHOFBHF_03699&lt;/b&gt;&lt;br&gt;C4-dicarboxylic acid transporter DauA&lt;br&gt;Location: 7239 - 8889" locus_tag="JDHOFBHF_03699" class="clusterblast-orf" id="dummy-1_q3_0_all"  />
<polygon points="73,40 73,40 78,35 73,30 73,30 73,40 " style="fill:white; stroke-width:1; stroke:black; " description="&lt;b&gt;JDHOFBHF_03700&lt;/b&gt;&lt;br&gt;hypothetical protein&lt;br&gt;Location: 9128 - 9509" locus_tag="JDHOFBHF_03700" class="clusterblast-orf" id="dummy-1_q4_0_all"  />
<polygon points="80,40 94,40 99,35 94,30 80,30 80,40 " style="fill:white; stroke-width:1; stroke:black; " description="&lt;b&gt;JDHOFBHF_03701&lt;/b&gt;&lt;br&gt;cytosol aminopeptidase&lt;br&gt;Location: 9586 - 10987" locus_tag="JDHOFBHF_03701" class="clusterblast-orf" id="dummy-1_q5_0_all"  />
<polygon points="99,40 106,40 111,35 106,30 99,30 99,40 " style="fill:white; stroke-width:1; stroke:black; " description="&lt;b&gt;JDHOFBHF_03702&lt;/b&gt;&lt;br&gt;hypothetical protein&lt;br&gt;Location: 10983 - 11805" locus_tag="JDHOFBHF_03702" class="clusterblast-orf" id="dummy-1_q6_0_all"  />
<polygon points="112,35 117,30 146,30 146,40 117,40 112,35 " style="fill:white; stroke-width:1; stroke:black; " description="&lt;b&gt;JDHOFBHF_03703&lt;/b&gt;&lt;br&gt;ATP-dependent RNA helicase HrpB&lt;br&gt;Location: 11862 - 14295" locus_tag="JDHOFBHF_03703" class="clusterblast-orf" id="dummy-1_q7_0_all"  />
<polygon points="147,35 152,30 154,30 154,40 152,40 147,35 " style="fill:white; stroke-width:1; stroke:black; " description="&lt;b&gt;JDHOFBHF_03704&lt;/b&gt;&lt;br&gt;hypothetical protein&lt;br&gt;Location: 14327 - 14795" locus_tag="JDHOFBHF_03704" class="clusterblast-orf" id="dummy-1_q8_0_all"  />
<polygon points="155,40 169,40 174,35 169,30 155,30 155,40 " style="fill:white; stroke-width:1; stroke:black; " description="&lt;b&gt;JDHOFBHF_03705&lt;/b&gt;&lt;br&gt;Homogentisate 1,2-dioxygenase&lt;br&gt;Location: 14889 - 16245" locus_tag="JDHOFBHF_03705" class="clusterblast-orf" id="dummy-1_q9_0_all"  />
<polygon points="174,40 181,40 186,35 181,30 174,30 174,40 " style="fill:white; stroke-width:1; stroke:black; " description="&lt;b&gt;JDHOFBHF_03706&lt;/b&gt;&lt;br&gt;Ribonuclease BN&lt;br&gt;Location: 16247 - 17093" locus_tag="JDHOFBHF_03706" class="clusterblast-orf" id="dummy-1_q10_0_all"  />
<polygon points="186,40 199,40 204,35 199,30 186,30 186,40 " style="fill:white; stroke-width:1; stroke:black; " description="&lt;b&gt;JDHOFBHF_03707&lt;/b&gt;&lt;br&gt;hypothetical protein&lt;br&gt;Location: 17103 - 18351" locus_tag="JDHOFBHF_03707" class="clusterblast-orf" id="dummy-1_q11_0_all"  />
<polygon points="205,40 214,40 219,35 214,30 205,30 205,40 " style="fill:white; stroke-width:1; stroke:black; " description="&lt;b&gt;JDHOFBHF_03708&lt;/b&gt;&lt;br&gt;hypothetical protein&lt;br&gt;Location: 18425 - 19376" locus_tag="JDHOFBHF_03708" class="clusterblast-orf" id="dummy-1_q12_0_all"  />
<polygon points="219,40 221,35 219,30 219,40 " style="fill:white; stroke-width:1; stroke:black; " description="&lt;b&gt;JDHOFBHF_03709&lt;/b&gt;&lt;br&gt;hypothetical protein&lt;br&gt;Location: 19372 - 19576" locus_tag="JDHOFBHF_03709" class="clusterblast-orf" id="dummy-1_q13_0_all"  />
<polygon points="221,40 239,40 244,35 239,30 221,30 221,40 " style="fill:white; stroke-width:1; stroke:black; " description="&lt;b&gt;JDHOFBHF_03710&lt;/b&gt;&lt;br&gt;3-(3-hydroxy-phenyl)propionate/3-hydroxycinnamic acid hydroxylase&lt;br&gt;Location: 19572 - 21195" locus_tag="JDHOFBHF_03710" class="clusterblast-orf" id="dummy-1_q14_0_all"  />
<polygon points="244,40 247,35 244,30 244,40 " style="fill:white; stroke-width:1; stroke:black; " description="&lt;b&gt;JDHOFBHF_03711&lt;/b&gt;&lt;br&gt;hypothetical protein&lt;br&gt;Location: 21187 - 21394" locus_tag="JDHOFBHF_03711" class="clusterblast-orf" id="dummy-1_q15_0_all"  />
<polygon points="249,40 257,40 262,35 257,30 249,30 249,40 " style="fill:white; stroke-width:1; stroke:black; " description="&lt;b&gt;JDHOFBHF_03712&lt;/b&gt;&lt;br&gt;hypothetical protein&lt;br&gt;Location: 21542 - 22433" locus_tag="JDHOFBHF_03712" class="clusterblast-orf" id="dummy-1_q16_0_all"  />
<polygon points="262,40 277,40 282,35 277,30 262,30 262,40 " style="fill:white; stroke-width:1; stroke:black; " description="&lt;b&gt;JDHOFBHF_03713&lt;/b&gt;&lt;br&gt;hypothetical protein&lt;br&gt;Location: 22448 - 23813" locus_tag="JDHOFBHF_03713" class="clusterblast-orf" id="dummy-1_q17_0_all"  />
<polygon points="282,40 298,40 303,35 298,30 282,30 282,40 " style="fill:white; stroke-width:1; stroke:black; " description="&lt;b&gt;JDHOFBHF_03714&lt;/b&gt;&lt;br&gt;hypothetical protein&lt;br&gt;Location: 23823 - 25332" locus_tag="JDHOFBHF_03714" class="clusterblast-orf" id="dummy-1_q18_0_all"  />
<polygon points="303,40 388,40 393,35 388,30 303,30 303,40 " style="fill:white; stroke-width:1; stroke:black; " description="&lt;b&gt;JDHOFBHF_03715&lt;/b&gt;&lt;br&gt;hypothetical protein&lt;br&gt;Location: 25328 - 31661" locus_tag="JDHOFBHF_03715" class="clusterblast-orf" id="dummy-1_q19_0_all"  />
<polygon points="393,40 402,40 407,35 402,30 393,30 393,40 " style="fill:white; stroke-width:1; stroke:black; " description="&lt;b&gt;JDHOFBHF_03716&lt;/b&gt;&lt;br&gt;hypothetical protein&lt;br&gt;Location: 31657 - 32644" locus_tag="JDHOFBHF_03716" class="clusterblast-orf" id="dummy-1_q20_0_all"  />
<polygon points="407,40 466,40 471,35 466,30 407,30 407,40 " style="fill:#d81515; stroke-width:1; stroke:black; " description="&lt;b&gt;JDHOFBHF_03717&lt;/b&gt;&lt;br&gt;D-alanine--D-alanyl carrier protein ligase&lt;br&gt;Location: 32653 - 37183" locus_tag="JDHOFBHF_03717" class="clusterblast-orf" id="dummy-1_q21_0_all"  />
<polygon points="471,40 476,40 481,35 476,30 471,30 471,40 " style="fill:white; stroke-width:1; stroke:black; " description="&lt;b&gt;JDHOFBHF_03718&lt;/b&gt;&lt;br&gt;hypothetical protein&lt;br&gt;Location: 37179 - 37881" locus_tag="JDHOFBHF_03718" class="clusterblast-orf" id="dummy-1_q22_0_all"  />
<polygon points="484,40 484,40 489,35 484,30 484,30 484,40 " style="fill:white; stroke-width:1; stroke:black; " description="&lt;b&gt;JDHOFBHF_03719&lt;/b&gt;&lt;br&gt;hypothetical protein&lt;br&gt;Location: 38093 - 38405" locus_tag="JDHOFBHF_03719" class="clusterblast-orf" id="dummy-1_q23_0_all"  />
<polygon points="490,35 495,30 497,30 497,40 495,40 490,35 " style="fill:white; stroke-width:1; stroke:black; " description="&lt;b&gt;JDHOFBHF_03720&lt;/b&gt;&lt;br&gt;hypothetical protein&lt;br&gt;Location: 38477 - 38975" locus_tag="JDHOFBHF_03720" class="clusterblast-orf" id="dummy-1_q24_0_all"  />
<polygon points="497,35 502,30 502,30 502,40 502,40 497,35 " style="fill:white; stroke-width:1; stroke:black; " description="&lt;b&gt;JDHOFBHF_03721&lt;/b&gt;&lt;br&gt;hypothetical protein&lt;br&gt;Location: 39009 - 39369" locus_tag="JDHOFBHF_03721" class="clusterblast-orf" id="dummy-1_q25_0_all"  />
<polygon points="503,35 508,30 512,30 512,40 508,40 503,35 " style="fill:white; stroke-width:1; stroke:black; " description="&lt;b&gt;JDHOFBHF_03722&lt;/b&gt;&lt;br&gt;Short-chain-enoyl-CoA hydratase&lt;br&gt;Location: 39407 - 40022" locus_tag="JDHOFBHF_03722" class="clusterblast-orf" id="dummy-1_q26_0_all"  />
<polygon points="512,35 517,30 522,30 522,40 517,40 512,35 " style="fill:white; stroke-width:1; stroke:black; " description="&lt;b&gt;JDHOFBHF_03723&lt;/b&gt;&lt;br&gt;3-phenylpropionate-dihydrodiol/cinnamic acid-dihydrodiol dehydrogenase&lt;br&gt;Location: 40018 - 40768" locus_tag="JDHOFBHF_03723" class="clusterblast-orf" id="dummy-1_q27_0_all"  />
<polygon points="522,35 527,30 577,30 577,40 527,40 522,35 " style="fill:white; stroke-width:1; stroke:black; " description="&lt;b&gt;JDHOFBHF_03724&lt;/b&gt;&lt;br&gt;hypothetical protein&lt;br&gt;Location: 40778 - 44609" locus_tag="JDHOFBHF_03724" class="clusterblast-orf" id="dummy-1_q28_0_all"  />
<polygon points="577,35 582,30 603,30 603,40 582,40 577,35 " style="fill:white; stroke-width:1; stroke:black; " description="&lt;b&gt;JDHOFBHF_03725&lt;/b&gt;&lt;br&gt;Outer membrane protein assembly factor BamA&lt;br&gt;Location: 44608 - 46435" locus_tag="JDHOFBHF_03725" class="clusterblast-orf" id="dummy-1_q29_0_all"  />
<polygon points="606,40 620,40 625,35 620,30 606,30 606,40 " style="fill:#15d8d8; stroke-width:1; stroke:black; " description="&lt;b&gt;JDHOFBHF_03726&lt;/b&gt;&lt;br&gt;Adenosylhomocysteinase&lt;br&gt;Location: 46637 - 48026" locus_tag="JDHOFBHF_03726" class="clusterblast-orf" id="dummy-1_q30_0_all"  />
<polygon points="626,40 652,40 657,35 652,30 626,30 626,40 " style="fill:white; stroke-width:1; stroke:black; " description="&lt;b&gt;JDHOFBHF_03727&lt;/b&gt;&lt;br&gt;hypothetical protein&lt;br&gt;Location: 48099 - 50247" locus_tag="JDHOFBHF_03727" class="clusterblast-orf" id="dummy-1_q31_0_all"  />
<polygon points="666,40 669,35 666,30 666,40 " style="fill:white; stroke-width:1; stroke:black; " description="&lt;b&gt;JDHOFBHF_03728&lt;/b&gt;&lt;br&gt;hypothetical protein&lt;br&gt;Location: 50868 - 51120" locus_tag="JDHOFBHF_03728" class="clusterblast-orf" id="dummy-1_q32_0_all"  />
<polygon points="672,40 680,40 685,35 680,30 672,30 672,40 " style="fill:white; stroke-width:1; stroke:black; " description="&lt;b&gt;JDHOFBHF_03730&lt;/b&gt;&lt;br&gt;Polyphosphate:NDP phosphotransferase 3&lt;br&gt;Location: 51310 - 52204" locus_tag="JDHOFBHF_03730" class="clusterblast-orf" id="dummy-1_q33_0_all"  />
<polygon points="686,40 693,40 698,35 693,30 686,30 686,40 " style="fill:white; stroke-width:1; stroke:black; " description="&lt;b&gt;JDHOFBHF_03731&lt;/b&gt;&lt;br&gt;Arsenate reductase&lt;br&gt;Location: 52273 - 53125" locus_tag="JDHOFBHF_03731" class="clusterblast-orf" id="dummy-1_q34_0_all"  />
<polygon points="698,40 707,40 712,35 707,30 698,30 698,40 " style="fill:white; stroke-width:1; stroke:black; " description="&lt;b&gt;JDHOFBHF_03732&lt;/b&gt;&lt;br&gt;Glyceraldehyde-3-phosphate dehydrogenase 3&lt;br&gt;Location: 53121 - 54132" locus_tag="JDHOFBHF_03732" class="clusterblast-orf" id="dummy-1_q35_0_all"  />
<polygon points="713,40 726,40 731,35 726,30 713,30 713,40 " style="fill:white; stroke-width:1; stroke:black; " description="&lt;b&gt;JDHOFBHF_03733&lt;/b&gt;&lt;br&gt;hypothetical protein&lt;br&gt;Location: 54224 - 55472" locus_tag="JDHOFBHF_03733" class="clusterblast-orf" id="dummy-1_q36_0_all"  />
<polygon points="731,35 736,30 750,30 750,40 736,40 731,35 " style="fill:white; stroke-width:1; stroke:black; " description="&lt;b&gt;JDHOFBHF_03734&lt;/b&gt;&lt;br&gt;protein kinase UbiB&lt;br&gt;Location: 55468 - 56830" locus_tag="JDHOFBHF_03734" class="clusterblast-orf" id="dummy-1_q37_0_all"  />
</g>
<g label="BGC0001941" description="BGC0001941_c1: fulvuthiacene A/fulvuthiacene B (8% of genes show similarity), NRP+Polyketide" class="clusterblast-cluster"  >
<text x="5" y="70" class="clusterblast-acc"  >
<a xlink:href="https://mibig.secondarymetabolites.org/go/BGC0001941/1" target="_blank">BGC0001941</a>: fulvuthiacene A/fulvuthiacene B                                                  (8% of genes show similarity), NRP+Polyketide</text>
<line x1="10" y1="85" x2="778.0" y2="85" style="stroke-width:1; stroke:grey; "  />
</g>
<g id="a1_000"  >
<polygon points="0,90 2,85 0,80 0,90 " style="fill:white; stroke-width:1; stroke:black; " description="&lt;b&gt;AXM42940.1&lt;/b&gt;&lt;br&gt;lysine biosynthesis protein LysW&lt;br&gt;Location: 18 - 215" locus_tag="AXM42940.1" class="clusterblast-orf" id="dummy-1_h1_1_0"  />
</g>
<g id="a1_001"  >
<polygon points="2,90 10,90 15,85 10,80 2,80 2,90 " style="fill:white; stroke-width:1; stroke:black; " description="&lt;b&gt;AXM42941.1&lt;/b&gt;&lt;br&gt;phage major capsid protein&lt;br&gt;Location: 229 - 1092" locus_tag="AXM42941.1" class="clusterblast-orf" id="dummy-1_h1_1_1"  />
</g>
<g id="a1_002"  >
<polygon points="15,85 20,80 29,80 29,90 20,90 15,85 " style="fill:white; stroke-width:1; stroke:black; " description="&lt;b&gt;AXM42942.1&lt;/b&gt;&lt;br&gt;methyl transferase type 11&lt;br&gt;Location: 1115 - 2083" locus_tag="AXM42942.1" class="clusterblast-orf" id="dummy-1_h1_1_2"  />
</g>
<g id="a1_003"  >
<polygon points="31,85 36,80 62,80 62,90 36,90 31,85 " style="fill:white; stroke-width:1; stroke:black; " description="&lt;b&gt;AXM42943.1&lt;/b&gt;&lt;br&gt;FadJ-like protein&lt;br&gt;Location: 2216 - 4393" locus_tag="AXM42943.1" class="clusterblast-orf" id="dummy-1_h1_1_3"  />
</g>
<g id="a1_004"  >
<polygon points="62,85 67,80 79,80 79,90 67,90 62,85 " style="fill:white; stroke-width:1; stroke:black; " description="&lt;b&gt;AXM42944.1&lt;/b&gt;&lt;br&gt;thioesterase&lt;br&gt;Location: 4434 - 5645" locus_tag="AXM42944.1" class="clusterblast-orf" id="dummy-1_h1_1_4"  />
</g>
<g id="a1_005"  >
<polygon points="82,85 87,80 89,80 89,90 87,90 82,85 " style="fill:white; stroke-width:1; stroke:black; " description="&lt;b&gt;AXM42945.1&lt;/b&gt;&lt;br&gt;hypothetical protein&lt;br&gt;Location: 5819 - 6352" locus_tag="AXM42945.1" class="clusterblast-orf" id="dummy-1_h1_1_5"  />
</g>
<g id="a1_006"  >
<polygon points="91,85 96,80 104,80 104,90 96,90 91,85 " style="fill:white; stroke-width:1; stroke:black; " description="&lt;b&gt;AXM42946.1&lt;/b&gt;&lt;br&gt;bifunctional 5,10-methylene-tetrahydrofolate dehydrogenase/5-10-methylene-tetrahydrofolate cyclohydrolase&lt;br&gt;Location: 6496 - 7392" locus_tag="AXM42946.1" class="clusterblast-orf" id="dummy-1_h1_1_6"  />
</g>
<g id="a1_007"  >
<polygon points="106,85 111,80 126,80 126,90 111,90 106,85 " style="fill:#15d8d8; stroke-width:1; stroke:black; " description="&lt;b&gt;AXM42947.1&lt;/b&gt;&lt;br&gt;S-adenosylhomocysteinase&lt;br&gt;Location: 7488 - 8918&lt;br&gt;&lt;br&gt;&lt;b&gt;BlastP hit with JDHOFBHF_03726&lt;/b&gt;&lt;br&gt;Percentage identity: 63&lt;br&gt;Percentage coverage: 101&lt;br&gt;BLAST bit score: 577&lt;br&gt;E-value: 1.7e-205" locus_tag="AXM42947.1" class="clusterblast-orf" id="dummy-1_h1_1_7"  />
</g>
<g id="a1_008"  >
<polygon points="135,90 263,90 268,85 263,80 135,80 135,90 " style="fill:white; stroke-width:1; stroke:black; " description="&lt;b&gt;AXM42948.1&lt;/b&gt;&lt;br&gt;type 1 polyketide synthase&lt;br&gt;Location: 9530 - 18913" locus_tag="AXM42948.1" class="clusterblast-orf" id="dummy-1_h1_1_8"  />
</g>
<g id="a1_009"  >
<polygon points="268,90 400,90 405,85 400,80 268,80 268,90 " style="fill:white; stroke-width:1; stroke:black; " description="&lt;b&gt;AXM42949.1&lt;/b&gt;&lt;br&gt;hybrid type 1 PKS/NRPS&lt;br&gt;Location: 18910 - 28578" locus_tag="AXM42949.1" class="clusterblast-orf" id="dummy-1_h1_1_9"  />
</g>
<g id="a1_0010"  >
<polygon points="406,90 483,90 488,85 483,80 406,80 406,90 " style="fill:white; stroke-width:1; stroke:black; " description="&lt;b&gt;AXM42950.1&lt;/b&gt;&lt;br&gt;polyketide synthase&lt;br&gt;Location: 28619 - 34417" locus_tag="AXM42950.1" class="clusterblast-orf" id="dummy-1_h1_1_10"  />
</g>
<g id="a1_0011"  >
<polygon points="488,90 541,90 546,85 541,80 488,80 488,90 " style="fill:white; stroke-width:1; stroke:black; " description="&lt;b&gt;AXM42951.1&lt;/b&gt;&lt;br&gt;polyketide synthase&lt;br&gt;Location: 34410 - 38480" locus_tag="AXM42951.1" class="clusterblast-orf" id="dummy-1_h1_1_11"  />
</g>
<g id="a1_0012"  >
<polygon points="546,90 615,90 620,85 615,80 546,80 546,90 " style="fill:#d81515; stroke-width:1; stroke:black; " description="&lt;b&gt;AXM42952.1&lt;/b&gt;&lt;br&gt;non-ribosomal peptide synthetase&lt;br&gt;Location: 38477 - 43714&lt;br&gt;&lt;br&gt;&lt;b&gt;BlastP hit with JDHOFBHF_03717&lt;/b&gt;&lt;br&gt;Percentage identity: 46&lt;br&gt;Percentage coverage: 68&lt;br&gt;BLAST bit score: 843&lt;br&gt;E-value: 2.95e-277" locus_tag="AXM42952.1" class="clusterblast-orf" id="dummy-1_h1_1_12"  />
</g>
<g id="a1_0013"  >
<polygon points="620,90 630,90 635,85 630,80 620,80 620,90 " style="fill:white; stroke-width:1; stroke:black; " description="&lt;b&gt;AXM42953.1&lt;/b&gt;&lt;br&gt;alphahydroxyglycine hydrolase-like protein&lt;br&gt;Location: 43730 - 44755" locus_tag="AXM42953.1" class="clusterblast-orf" id="dummy-1_h1_1_13"  />
</g>
<g id="a1_0014"  >
<polygon points="635,90 643,90 648,85 643,80 635,80 635,90 " style="fill:white; stroke-width:1; stroke:black; " description="&lt;b&gt;AXM42954.1&lt;/b&gt;&lt;br&gt;methyl transferase&lt;br&gt;Location: 44752 - 45660" locus_tag="AXM42954.1" class="clusterblast-orf" id="dummy-1_h1_1_14"  />
</g>
<g id="a1_0015"  >
<polygon points="648,90 658,90 663,85 658,80 648,80 648,90 " style="fill:white; stroke-width:1; stroke:black; " description="&lt;b&gt;AXM42955.1&lt;/b&gt;&lt;br&gt;amide hydrolase&lt;br&gt;Location: 45674 - 46726" locus_tag="AXM42955.1" class="clusterblast-orf" id="dummy-1_h1_1_15"  />
</g>
<g id="a1_0016"  >
<polygon points="663,85 668,80 686,80 686,90 668,90 663,85 " style="fill:white; stroke-width:1; stroke:black; " description="&lt;b&gt;AXM42956.1&lt;/b&gt;&lt;br&gt;lysyl endopeptidase&lt;br&gt;Location: 46749 - 48347" locus_tag="AXM42956.1" class="clusterblast-orf" id="dummy-1_h1_1_16"  />
</g>
<g id="a1_0017"  >
<polygon points="690,90 690,90 695,85 690,80 690,80 690,90 " style="fill:white; stroke-width:1; stroke:black; " description="&lt;b&gt;AXM42957.1&lt;/b&gt;&lt;br&gt;hypothetical protein&lt;br&gt;Location: 48673 - 48993" locus_tag="AXM42957.1" class="clusterblast-orf" id="dummy-1_h1_1_17"  />
</g>
<g id="a1_0018"  >
<polygon points="705,90 706,90 711,85 706,80 705,80 705,90 " style="fill:white; stroke-width:1; stroke:black; " description="&lt;b&gt;AXM42958.1&lt;/b&gt;&lt;br&gt;hypothetical protein&lt;br&gt;Location: 49674 - 50147" locus_tag="AXM42958.1" class="clusterblast-orf" id="dummy-1_h1_1_18"  />
</g>
<g id="a1_0019"  >
<polygon points="712,90 735,90 740,85 735,80 712,80 712,90 " style="fill:white; stroke-width:1; stroke:black; " description="&lt;b&gt;AXM42959.1&lt;/b&gt;&lt;br&gt;thioredoxin&lt;br&gt;Location: 50179 - 52182" locus_tag="AXM42959.1" class="clusterblast-orf" id="dummy-1_h1_1_19"  />
</g>
<g id="a1_0020"  >
<polygon points="741,90 745,90 750,85 745,80 741,80 741,90 " style="fill:white; stroke-width:1; stroke:black; " description="&lt;b&gt;AXM42960.1&lt;/b&gt;&lt;br&gt;hypothetical protein&lt;br&gt;Location: 52206 - 52844" locus_tag="AXM42960.1" class="clusterblast-orf" id="dummy-1_h1_1_20"  />
</g>
<g id="a1_0021"  >
<polygon points="752,85 757,80 762,80 762,90 757,90 752,85 " style="fill:white; stroke-width:1; stroke:black; " description="&lt;b&gt;AXM42961.1&lt;/b&gt;&lt;br&gt;phage tail fiber protein&lt;br&gt;Location: 53045 - 53734" locus_tag="AXM42961.1" class="clusterblast-orf" id="dummy-1_h1_1_21"  />
</g>
<g id="a1_0022"  >
<polygon points="767,85 770,80 770,90 767,85 " style="fill:white; stroke-width:1; stroke:black; " description="&lt;b&gt;AXM42962.1&lt;/b&gt;&lt;br&gt;hypothetical protein&lt;br&gt;Location: 54084 - 54281" locus_tag="AXM42962.1" class="clusterblast-orf" id="dummy-1_h1_1_22"  />
</g>
<g id="a1_0023"  >
<polygon points="771,90 775,90 780,85 775,80 771,80 771,90 " style="fill:white; stroke-width:1; stroke:black; " description="&lt;b&gt;AXM42963.1&lt;/b&gt;&lt;br&gt;hypothetical protein&lt;br&gt;Location: 54386 - 54952" locus_tag="AXM42963.1" class="clusterblast-orf" id="dummy-1_h1_1_23"  />
</g>
</svg>
