<svg xmlns="http://www.w3.org/2000/svg" xmlns:xlink="http://www.w3.org/1999/xlink" version="1.1" x="0" y="0" height="230" width="800" viewBox="0 0 800 230" preserveAspectRatio="none"  >
<g label="Query sequence" class="clusterblast-cluster"  >
<text x="5" y="20" class="clusterblast-acc"  >
Query sequence</text>
<line x1="10" y1="35" x2="778.0" y2="35" style="stroke-width:1; stroke:grey; "  />
<polygon points="21,40 46,40 51,35 46,30 21,30 21,40 " style="fill:white; stroke-width:1; stroke:black; " description="&lt;b&gt;JCPCKFCL_02070&lt;/b&gt;&lt;br&gt;hypothetical protein&lt;br&gt;Location: 61619 - 62393" locus_tag="JCPCKFCL_02070" class="clusterblast-orf" id="dummy-1_q0_0_all"  />
<polygon points="54,35 59,30 69,30 69,40 59,40 54,35 " style="fill:white; stroke-width:1; stroke:black; " description="&lt;b&gt;JCPCKFCL_02071&lt;/b&gt;&lt;br&gt;50S ribosomal protein L20&lt;br&gt;Location: 62477 - 62840" locus_tag="JCPCKFCL_02071" class="clusterblast-orf" id="dummy-1_q1_0_all"  />
<polygon points="69,35 74,30 77,30 77,40 74,40 69,35 " style="fill:white; stroke-width:1; stroke:black; " description="&lt;b&gt;JCPCKFCL_02072&lt;/b&gt;&lt;br&gt;50S ribosomal protein L35&lt;br&gt;Location: 62852 - 63053" locus_tag="JCPCKFCL_02072" class="clusterblast-orf" id="dummy-1_q2_0_all"  />
<polygon points="82,35 87,30 91,30 91,40 87,40 82,35 " style="fill:white; stroke-width:1; stroke:black; " description="&lt;b&gt;JCPCKFCL_02073&lt;/b&gt;&lt;br&gt;hypothetical protein&lt;br&gt;Location: 63187 - 63412" locus_tag="JCPCKFCL_02073" class="clusterblast-orf" id="dummy-1_q3_0_all"  />
<polygon points="93,35 98,30 149,30 149,40 98,40 93,35 " style="fill:#d81515; stroke-width:1; stroke:black; " description="&lt;b&gt;JCPCKFCL_02074&lt;/b&gt;&lt;br&gt;Pyruvate kinase&lt;br&gt;Location: 63452 - 64898" locus_tag="JCPCKFCL_02074" class="clusterblast-orf" id="dummy-1_q4_0_all"  />
<polygon points="156,40 163,40 168,35 163,30 156,30 156,40 " style="fill:white; stroke-width:1; stroke:black; " description="&lt;b&gt;JCPCKFCL_02075&lt;/b&gt;&lt;br&gt;hypothetical protein&lt;br&gt;Location: 65063 - 65378" locus_tag="JCPCKFCL_02075" class="clusterblast-orf" id="dummy-1_q5_0_all"  />
<polygon points="169,35 174,30 202,30 202,40 174,40 169,35 " style="fill:white; stroke-width:1; stroke:black; " description="&lt;b&gt;JCPCKFCL_02076&lt;/b&gt;&lt;br&gt;D-alanine aminotransferase&lt;br&gt;Location: 65403 - 66255" locus_tag="JCPCKFCL_02076" class="clusterblast-orf" id="dummy-1_q6_0_all"  />
<polygon points="205,35 210,30 243,30 243,40 210,40 205,35 " style="fill:white; stroke-width:1; stroke:black; " description="&lt;b&gt;JCPCKFCL_02077&lt;/b&gt;&lt;br&gt;L-Ala-D/L-Glu epimerase&lt;br&gt;Location: 66322 - 67288" locus_tag="JCPCKFCL_02077" class="clusterblast-orf" id="dummy-1_q7_0_all"  />
<polygon points="246,35 251,30 286,30 286,40 251,40 246,35 " style="fill:white; stroke-width:1; stroke:black; " description="&lt;b&gt;JCPCKFCL_02078&lt;/b&gt;&lt;br&gt;hypothetical protein&lt;br&gt;Location: 67389 - 68394" locus_tag="JCPCKFCL_02078" class="clusterblast-orf" id="dummy-1_q8_0_all"  />
<polygon points="297,40 329,40 334,35 329,30 297,30 297,40 " style="fill:white; stroke-width:1; stroke:black; " description="&lt;b&gt;JCPCKFCL_02079&lt;/b&gt;&lt;br&gt;L-malyl-CoA/beta-methylmalyl-CoA lyase&lt;br&gt;Location: 68676 - 69633" locus_tag="JCPCKFCL_02079" class="clusterblast-orf" id="dummy-1_q9_0_all"  />
<polygon points="343,40 365,40 370,35 365,30 343,30 343,40 " style="fill:#15d815; stroke-width:1; stroke:black; " description="&lt;b&gt;JCPCKFCL_02080&lt;/b&gt;&lt;br&gt;Transcriptional activator protein AnoR&lt;br&gt;Location: 69849 - 70551" locus_tag="JCPCKFCL_02080" class="clusterblast-orf" id="dummy-1_q10_0_all"  />
<polygon points="375,40 396,40 401,35 396,30 375,30 375,40 " style="fill:#1515d8; stroke-width:1; stroke:black; " description="&lt;b&gt;JCPCKFCL_02081&lt;/b&gt;&lt;br&gt;hypothetical protein&lt;br&gt;Location: 70684 - 71347" locus_tag="JCPCKFCL_02081" class="clusterblast-orf" id="dummy-1_q11_0_all"  />
<polygon points="401,40 405,40 410,35 405,30 401,30 401,40 " style="fill:white; stroke-width:1; stroke:black; " description="&lt;b&gt;JCPCKFCL_02082&lt;/b&gt;&lt;br&gt;hypothetical protein&lt;br&gt;Location: 71343 - 71580" locus_tag="JCPCKFCL_02082" class="clusterblast-orf" id="dummy-1_q12_0_all"  />
<polygon points="414,35 419,30 429,30 429,40 419,40 414,35 " style="fill:white; stroke-width:1; stroke:black; " description="&lt;b&gt;JCPCKFCL_02083&lt;/b&gt;&lt;br&gt;hypothetical protein&lt;br&gt;Location: 71680 - 72070" locus_tag="JCPCKFCL_02083" class="clusterblast-orf" id="dummy-1_q13_0_all"  />
<polygon points="435,40 456,40 461,35 456,30 435,30 435,40 " style="fill:white; stroke-width:1; stroke:black; " description="&lt;b&gt;JCPCKFCL_02084&lt;/b&gt;&lt;br&gt;Carbonic anhydrase 1&lt;br&gt;Location: 72222 - 72873" locus_tag="JCPCKFCL_02084" class="clusterblast-orf" id="dummy-1_q14_0_all"  />
<polygon points="461,35 466,30 478,30 478,40 466,40 461,35 " style="fill:white; stroke-width:1; stroke:black; " description="&lt;b&gt;JCPCKFCL_02085&lt;/b&gt;&lt;br&gt;hypothetical protein&lt;br&gt;Location: 72881 - 73310" locus_tag="JCPCKFCL_02085" class="clusterblast-orf" id="dummy-1_q15_0_all"  />
<polygon points="481,35 486,30 532,30 532,40 486,40 481,35 " style="fill:white; stroke-width:1; stroke:black; " description="&lt;b&gt;JCPCKFCL_02086&lt;/b&gt;&lt;br&gt;hypothetical protein&lt;br&gt;Location: 73387 - 74701" locus_tag="JCPCKFCL_02086" class="clusterblast-orf" id="dummy-1_q16_0_all"  />
<polygon points="552,40 595,40 600,35 595,30 552,30 552,40 " style="fill:white; stroke-width:1; stroke:black; " description="&lt;b&gt;JCPCKFCL_02087&lt;/b&gt;&lt;br&gt;hypothetical protein&lt;br&gt;Location: 75200 - 76427" locus_tag="JCPCKFCL_02087" class="clusterblast-orf" id="dummy-1_q17_0_all"  />
<polygon points="606,40 678,40 683,35 678,30 606,30 606,40 " style="fill:white; stroke-width:1; stroke:black; " description="&lt;b&gt;JCPCKFCL_02088&lt;/b&gt;&lt;br&gt;hypothetical protein&lt;br&gt;Location: 76579 - 78562" locus_tag="JCPCKFCL_02088" class="clusterblast-orf" id="dummy-1_q18_0_all"  />
<polygon points="686,35 691,30 712,30 712,40 691,40 686,35 " style="fill:white; stroke-width:1; stroke:black; " description="&lt;b&gt;JCPCKFCL_02089&lt;/b&gt;&lt;br&gt;HTH-type transcriptional regulator KipR&lt;br&gt;Location: 78626 - 79301" locus_tag="JCPCKFCL_02089" class="clusterblast-orf" id="dummy-1_q19_0_all"  />
<polygon points="717,40 754,40 759,35 754,30 717,30 717,40 " style="fill:white; stroke-width:1; stroke:black; " description="&lt;b&gt;JCPCKFCL_02090&lt;/b&gt;&lt;br&gt;Homoisocitrate dehydrogenase&lt;br&gt;Location: 79425 - 80496" locus_tag="JCPCKFCL_02090" class="clusterblast-orf" id="dummy-1_q20_0_all"  />
</g>
<g label="NZ_CP021766" description="NZ_CP021766 (226613-247228): Ralstonia solanacearum strain RS 489 chromosome,... (17% of genes show similarity), hserlactone" class="clusterblast-cluster"  >
<text x="5" y="70" class="clusterblast-acc"  >
<a xlink:href="https://antismash-db.secondarymetabolites.org/area.html?record=NZ_CP021766&amp;start=226613&amp;end=247228" target="_blank">NZ_CP021766 (226613-247228)</a>: Ralstonia solanacearum strain RS 489 chromosome,... (17% of genes show similarity), hserlactone</text>
<line x1="10" y1="85" x2="778.0" y2="85" style="stroke-width:1; stroke:grey; "  />
</g>
<g id="a1_000"  >
<polygon points="0,85 5,80 44,80 44,90 5,90 0,85 " style="fill:white; stroke-width:1; stroke:black; " description="&lt;b&gt;CDC59_RS00990&lt;/b&gt;&lt;br&gt;glycine cleavage system aminomethyltransferase GcvT&lt;br&gt;Location: 226775 - 227902" locus_tag="CDC59_RS00990" class="clusterblast-orf" id="dummy-1_h1_9_0"  />
</g>
<g id="a1_001"  >
<polygon points="77,90 112,90 117,85 112,80 77,80 77,90 " style="fill:white; stroke-width:1; stroke:black; " description="&lt;b&gt;CDC59_RS00995&lt;/b&gt;&lt;br&gt;acyltransferase family protein&lt;br&gt;Location: 228759 - 229772" locus_tag="CDC59_RS00995" class="clusterblast-orf" id="dummy-1_h1_9_1"  />
</g>
<g id="a1_002"  >
<polygon points="121,85 126,80 134,80 134,90 126,90 121,85 " style="fill:white; stroke-width:1; stroke:black; " description="&lt;b&gt;CDC59_RS01000&lt;/b&gt;&lt;br&gt;hypothetical protein&lt;br&gt;Location: 229883 - 230209" locus_tag="CDC59_RS01000" class="clusterblast-orf" id="dummy-1_h1_9_2"  />
</g>
<g id="a1_003"  >
<polygon points="140,85 145,80 166,80 166,90 145,90 140,85 " style="fill:white; stroke-width:1; stroke:black; " description="&lt;b&gt;CDC59_RS01005&lt;/b&gt;&lt;br&gt;hypothetical protein&lt;br&gt;Location: 230370 - 231026" locus_tag="CDC59_RS01005" class="clusterblast-orf" id="dummy-1_h1_9_3"  />
</g>
<g id="a1_004"  >
<polygon points="175,90 253,90 258,85 253,80 175,80 175,90 " style="fill:white; stroke-width:1; stroke:black; " description="&lt;b&gt;CDC59_RS01010&lt;/b&gt;&lt;br&gt;UvrD-helicase domain-containing protein&lt;br&gt;Location: 231274 - 233391" locus_tag="CDC59_RS01010" class="clusterblast-orf" id="dummy-1_h1_9_4"  />
</g>
<g id="a1_005"  >
<polygon points="277,90 286,90 291,85 286,80 277,80 277,90 " style="fill:white; stroke-width:1; stroke:black; " description="&lt;b&gt;CDC59_RS01015&lt;/b&gt;&lt;br&gt;fucose/mannose-binding lectin&lt;br&gt;Location: 233881 - 234225" locus_tag="CDC59_RS01015" class="clusterblast-orf" id="dummy-1_h1_9_5"  />
</g>
<g id="a1_006"  >
<polygon points="295,90 310,90 315,85 310,80 295,80 295,90 " style="fill:white; stroke-width:1; stroke:black; " description="&lt;b&gt;CDC59_RS01020&lt;/b&gt;&lt;br&gt;hypothetical protein&lt;br&gt;Location: 234331 - 234834" locus_tag="CDC59_RS01020" class="clusterblast-orf" id="dummy-1_h1_9_6"  />
</g>
<g id="a1_007"  >
<polygon points="319,90 335,90 340,85 335,80 319,80 319,90 " style="fill:white; stroke-width:1; stroke:black; " description="&lt;b&gt;CDC59_RS01025&lt;/b&gt;&lt;br&gt;hypothetical protein&lt;br&gt;Location: 234943 - 235482" locus_tag="CDC59_RS01025" class="clusterblast-orf" id="dummy-1_h1_9_7"  />
</g>
<g id="a1_008"  >
<polygon points="341,85 346,80 369,80 369,90 346,90 341,85 " style="fill:#15d815; stroke-width:1; stroke:black; " description="&lt;b&gt;CDC59_RS01030&lt;/b&gt;&lt;br&gt;LuxR family transcriptional regulator&lt;br&gt;Location: 235507 - 236217&lt;br&gt;&lt;br&gt;&lt;b&gt;BlastP hit with JCPCKFCL_02080&lt;/b&gt;&lt;br&gt;Percentage identity: 31&lt;br&gt;Percentage coverage: 93&lt;br&gt;BLAST bit score: 74&lt;br&gt;E-value: 9.8e-14" locus_tag="CDC59_RS01030" class="clusterblast-orf" id="dummy-1_h1_9_8"  />
</g>
<g id="a1_009"  >
<polygon points="384,90 403,90 408,85 403,80 384,80 384,90 " style="fill:#1515d8; stroke-width:1; stroke:black; " description="&lt;b&gt;CDC59_RS01035&lt;/b&gt;&lt;br&gt;GNAT family N-acetyltransferase&lt;br&gt;Location: 236614 - 237228&lt;br&gt;&lt;br&gt;&lt;b&gt;BlastP hit with JCPCKFCL_02081&lt;/b&gt;&lt;br&gt;Percentage identity: 46&lt;br&gt;Percentage coverage: 41&lt;br&gt;BLAST bit score: 81&lt;br&gt;E-value: 5.92e-17" locus_tag="CDC59_RS01035" class="clusterblast-orf" id="dummy-1_h1_9_9"  />
</g>
<g id="a1_0010"  >
<polygon points="409,85 414,80 452,80 452,90 414,90 409,85 " style="fill:white; stroke-width:1; stroke:black; " description="&lt;b&gt;CDC59_RS01040&lt;/b&gt;&lt;br&gt;ABC transporter substrate-binding protein&lt;br&gt;Location: 237246 - 238343" locus_tag="CDC59_RS01040" class="clusterblast-orf" id="dummy-1_h1_9_10"  />
</g>
<g id="a1_0011"  >
<polygon points="461,90 514,90 519,85 514,80 461,80 461,90 " style="fill:white; stroke-width:1; stroke:black; " description="&lt;b&gt;CDC59_RS01045&lt;/b&gt;&lt;br&gt;oxygen-independent coproporphyrinogen III oxidase&lt;br&gt;Location: 238578 - 240059" locus_tag="CDC59_RS01045" class="clusterblast-orf" id="dummy-1_h1_9_11"  />
</g>
<g id="a1_0012"  >
<polygon points="519,85 524,80 577,80 577,90 524,90 519,85 " style="fill:#d81515; stroke-width:1; stroke:black; " description="&lt;b&gt;CDC59_RS01050&lt;/b&gt;&lt;br&gt;pyruvate kinase&lt;br&gt;Location: 240064 - 241551&lt;br&gt;&lt;br&gt;&lt;b&gt;BlastP hit with JCPCKFCL_02074&lt;/b&gt;&lt;br&gt;Percentage identity: 55&lt;br&gt;Percentage coverage: 97&lt;br&gt;BLAST bit score: 485&lt;br&gt;E-value: 4.26e-167" locus_tag="CDC59_RS01050" class="clusterblast-orf" id="dummy-1_h1_9_12"  />
</g>
<g id="a1_0013"  >
<polygon points="581,85 586,80 633,80 633,90 586,90 581,85 " style="fill:white; stroke-width:1; stroke:black; " description="&lt;b&gt;CDC59_RS01055&lt;/b&gt;&lt;br&gt;glycerate kinase&lt;br&gt;Location: 241658 - 242974" locus_tag="CDC59_RS01055" class="clusterblast-orf" id="dummy-1_h1_9_13"  />
</g>
<g id="a1_0014"  >
<polygon points="636,85 641,80 672,80 672,90 641,90 636,85 " style="fill:white; stroke-width:1; stroke:black; " description="&lt;b&gt;CDC59_RS01060&lt;/b&gt;&lt;br&gt;2-hydroxy-3-oxopropionate reductase&lt;br&gt;Location: 243054 - 243973" locus_tag="CDC59_RS01060" class="clusterblast-orf" id="dummy-1_h1_9_14"  />
</g>
<g id="a1_0015"  >
<polygon points="678,85 683,80 709,80 709,90 683,90 678,85 " style="fill:white; stroke-width:1; stroke:black; " description="&lt;b&gt;CDC59_RS01065&lt;/b&gt;&lt;br&gt;hydroxypyruvate isomerase&lt;br&gt;Location: 244132 - 244914" locus_tag="CDC59_RS01065" class="clusterblast-orf" id="dummy-1_h1_9_15"  />
</g>
<g id="a1_0016"  >
<polygon points="710,85 715,80 780,80 780,90 715,90 710,85 " style="fill:white; stroke-width:1; stroke:black; " description="&lt;b&gt;CDC59_RS01070&lt;/b&gt;&lt;br&gt;glyoxylate carboligase&lt;br&gt;Location: 244949 - 246724" locus_tag="CDC59_RS01070" class="clusterblast-orf" id="dummy-1_h1_9_16"  />
</g>
</svg>
