<svg xmlns="http://www.w3.org/2000/svg" xmlns:xlink="http://www.w3.org/1999/xlink" version="1.1" x="0" y="0" height="230" width="800" viewBox="0 0 800 230" preserveAspectRatio="none"  >
<g label="Query sequence" class="clusterblast-cluster"  >
<text x="5" y="20" class="clusterblast-acc"  >
Query sequence</text>
<line x1="10" y1="35" x2="778.0" y2="35" style="stroke-width:1; stroke:grey; "  />
<polygon points="21,40 46,40 51,35 46,30 21,30 21,40 " style="fill:white; stroke-width:1; stroke:black; " description="&lt;b&gt;JCPCKFCL_02070&lt;/b&gt;&lt;br&gt;hypothetical protein&lt;br&gt;Location: 61619 - 62393" locus_tag="JCPCKFCL_02070" class="clusterblast-orf" id="dummy-1_q0_0_all"  />
<polygon points="54,35 59,30 69,30 69,40 59,40 54,35 " style="fill:white; stroke-width:1; stroke:black; " description="&lt;b&gt;JCPCKFCL_02071&lt;/b&gt;&lt;br&gt;50S ribosomal protein L20&lt;br&gt;Location: 62477 - 62840" locus_tag="JCPCKFCL_02071" class="clusterblast-orf" id="dummy-1_q1_0_all"  />
<polygon points="69,35 74,30 77,30 77,40 74,40 69,35 " style="fill:white; stroke-width:1; stroke:black; " description="&lt;b&gt;JCPCKFCL_02072&lt;/b&gt;&lt;br&gt;50S ribosomal protein L35&lt;br&gt;Location: 62852 - 63053" locus_tag="JCPCKFCL_02072" class="clusterblast-orf" id="dummy-1_q2_0_all"  />
<polygon points="82,35 87,30 91,30 91,40 87,40 82,35 " style="fill:white; stroke-width:1; stroke:black; " description="&lt;b&gt;JCPCKFCL_02073&lt;/b&gt;&lt;br&gt;hypothetical protein&lt;br&gt;Location: 63187 - 63412" locus_tag="JCPCKFCL_02073" class="clusterblast-orf" id="dummy-1_q3_0_all"  />
<polygon points="92,35 97,30 149,30 149,40 97,40 92,35 " style="fill:#d81515; stroke-width:1; stroke:black; " description="&lt;b&gt;JCPCKFCL_02074&lt;/b&gt;&lt;br&gt;Pyruvate kinase&lt;br&gt;Location: 63452 - 64898" locus_tag="JCPCKFCL_02074" class="clusterblast-orf" id="dummy-1_q4_0_all"  />
<polygon points="155,40 163,40 168,35 163,30 155,30 155,40 " style="fill:white; stroke-width:1; stroke:black; " description="&lt;b&gt;JCPCKFCL_02075&lt;/b&gt;&lt;br&gt;hypothetical protein&lt;br&gt;Location: 65063 - 65378" locus_tag="JCPCKFCL_02075" class="clusterblast-orf" id="dummy-1_q5_0_all"  />
<polygon points="169,35 174,30 202,30 202,40 174,40 169,35 " style="fill:white; stroke-width:1; stroke:black; " description="&lt;b&gt;JCPCKFCL_02076&lt;/b&gt;&lt;br&gt;D-alanine aminotransferase&lt;br&gt;Location: 65403 - 66255" locus_tag="JCPCKFCL_02076" class="clusterblast-orf" id="dummy-1_q6_0_all"  />
<polygon points="205,35 210,30 242,30 242,40 210,40 205,35 " style="fill:white; stroke-width:1; stroke:black; " description="&lt;b&gt;JCPCKFCL_02077&lt;/b&gt;&lt;br&gt;L-Ala-D/L-Glu epimerase&lt;br&gt;Location: 66322 - 67288" locus_tag="JCPCKFCL_02077" class="clusterblast-orf" id="dummy-1_q7_0_all"  />
<polygon points="246,35 251,30 286,30 286,40 251,40 246,35 " style="fill:white; stroke-width:1; stroke:black; " description="&lt;b&gt;JCPCKFCL_02078&lt;/b&gt;&lt;br&gt;hypothetical protein&lt;br&gt;Location: 67389 - 68394" locus_tag="JCPCKFCL_02078" class="clusterblast-orf" id="dummy-1_q8_0_all"  />
<polygon points="297,40 329,40 334,35 329,30 297,30 297,40 " style="fill:white; stroke-width:1; stroke:black; " description="&lt;b&gt;JCPCKFCL_02079&lt;/b&gt;&lt;br&gt;L-malyl-CoA/beta-methylmalyl-CoA lyase&lt;br&gt;Location: 68676 - 69633" locus_tag="JCPCKFCL_02079" class="clusterblast-orf" id="dummy-1_q9_0_all"  />
<polygon points="343,40 365,40 370,35 365,30 343,30 343,40 " style="fill:#15d815; stroke-width:1; stroke:black; " description="&lt;b&gt;JCPCKFCL_02080&lt;/b&gt;&lt;br&gt;Transcriptional activator protein AnoR&lt;br&gt;Location: 69849 - 70551" locus_tag="JCPCKFCL_02080" class="clusterblast-orf" id="dummy-1_q10_0_all"  />
<polygon points="375,40 396,40 401,35 396,30 375,30 375,40 " style="fill:#1515d8; stroke-width:1; stroke:black; " description="&lt;b&gt;JCPCKFCL_02081&lt;/b&gt;&lt;br&gt;hypothetical protein&lt;br&gt;Location: 70684 - 71347" locus_tag="JCPCKFCL_02081" class="clusterblast-orf" id="dummy-1_q11_0_all"  />
<polygon points="401,40 405,40 410,35 405,30 401,30 401,40 " style="fill:white; stroke-width:1; stroke:black; " description="&lt;b&gt;JCPCKFCL_02082&lt;/b&gt;&lt;br&gt;hypothetical protein&lt;br&gt;Location: 71343 - 71580" locus_tag="JCPCKFCL_02082" class="clusterblast-orf" id="dummy-1_q12_0_all"  />
<polygon points="414,35 419,30 429,30 429,40 419,40 414,35 " style="fill:white; stroke-width:1; stroke:black; " description="&lt;b&gt;JCPCKFCL_02083&lt;/b&gt;&lt;br&gt;hypothetical protein&lt;br&gt;Location: 71680 - 72070" locus_tag="JCPCKFCL_02083" class="clusterblast-orf" id="dummy-1_q13_0_all"  />
<polygon points="435,40 456,40 461,35 456,30 435,30 435,40 " style="fill:white; stroke-width:1; stroke:black; " description="&lt;b&gt;JCPCKFCL_02084&lt;/b&gt;&lt;br&gt;Carbonic anhydrase 1&lt;br&gt;Location: 72222 - 72873" locus_tag="JCPCKFCL_02084" class="clusterblast-orf" id="dummy-1_q14_0_all"  />
<polygon points="461,35 466,30 478,30 478,40 466,40 461,35 " style="fill:white; stroke-width:1; stroke:black; " description="&lt;b&gt;JCPCKFCL_02085&lt;/b&gt;&lt;br&gt;hypothetical protein&lt;br&gt;Location: 72881 - 73310" locus_tag="JCPCKFCL_02085" class="clusterblast-orf" id="dummy-1_q15_0_all"  />
<polygon points="481,35 486,30 532,30 532,40 486,40 481,35 " style="fill:white; stroke-width:1; stroke:black; " description="&lt;b&gt;JCPCKFCL_02086&lt;/b&gt;&lt;br&gt;hypothetical protein&lt;br&gt;Location: 73387 - 74701" locus_tag="JCPCKFCL_02086" class="clusterblast-orf" id="dummy-1_q16_0_all"  />
<polygon points="552,40 595,40 600,35 595,30 552,30 552,40 " style="fill:white; stroke-width:1; stroke:black; " description="&lt;b&gt;JCPCKFCL_02087&lt;/b&gt;&lt;br&gt;hypothetical protein&lt;br&gt;Location: 75200 - 76427" locus_tag="JCPCKFCL_02087" class="clusterblast-orf" id="dummy-1_q17_0_all"  />
<polygon points="606,40 678,40 683,35 678,30 606,30 606,40 " style="fill:white; stroke-width:1; stroke:black; " description="&lt;b&gt;JCPCKFCL_02088&lt;/b&gt;&lt;br&gt;hypothetical protein&lt;br&gt;Location: 76579 - 78562" locus_tag="JCPCKFCL_02088" class="clusterblast-orf" id="dummy-1_q18_0_all"  />
<polygon points="686,35 691,30 712,30 712,40 691,40 686,35 " style="fill:white; stroke-width:1; stroke:black; " description="&lt;b&gt;JCPCKFCL_02089&lt;/b&gt;&lt;br&gt;HTH-type transcriptional regulator KipR&lt;br&gt;Location: 78626 - 79301" locus_tag="JCPCKFCL_02089" class="clusterblast-orf" id="dummy-1_q19_0_all"  />
<polygon points="717,40 754,40 759,35 754,30 717,30 717,40 " style="fill:white; stroke-width:1; stroke:black; " description="&lt;b&gt;JCPCKFCL_02090&lt;/b&gt;&lt;br&gt;Homoisocitrate dehydrogenase&lt;br&gt;Location: 79425 - 80496" locus_tag="JCPCKFCL_02090" class="clusterblast-orf" id="dummy-1_q20_0_all"  />
</g>
<g label="NZ_CDRX01000001" description="NZ_CDRX01000001 (4190866-4211481): Ralstonia solanacearum strain RS2, whole g... (17% of genes show similarity), hserlactone" class="clusterblast-cluster"  >
<text x="5" y="70" class="clusterblast-acc"  >
<a xlink:href="https://antismash-db.secondarymetabolites.org/area.html?record=NZ_CDRX01000001&amp;start=4190866&amp;end=4211481" target="_blank">NZ_CDRX01000001 (4190866-4211481)</a>: Ralstonia solanacearum strain RS2, whole g... (17% of genes show similarity), hserlactone</text>
<line x1="10" y1="85" x2="778.0" y2="85" style="stroke-width:1; stroke:grey; "  />
</g>
<g id="a1_000"  >
<polygon points="0,85 5,80 44,80 44,90 5,90 0,85 " style="fill:white; stroke-width:1; stroke:black; " description="&lt;b&gt;AQR26_RS18500&lt;/b&gt;&lt;br&gt;glycine cleavage system aminomethyltransferase GcvT&lt;br&gt;Location: 4211343 - 4210216" locus_tag="AQR26_RS18500" class="clusterblast-orf" id="dummy-1_h1_2_0"  />
</g>
<g id="a1_001"  >
<polygon points="77,90 112,90 117,85 112,80 77,80 77,90 " style="fill:white; stroke-width:1; stroke:black; " description="&lt;b&gt;AQR26_RS18495&lt;/b&gt;&lt;br&gt;acyltransferase family protein&lt;br&gt;Location: 4209359 - 4208348" locus_tag="AQR26_RS18495" class="clusterblast-orf" id="dummy-1_h1_2_1"  />
</g>
<g id="a1_002"  >
<polygon points="121,85 126,80 134,80 134,90 126,90 121,85 " style="fill:white; stroke-width:1; stroke:black; " description="&lt;b&gt;AQR26_RS18490&lt;/b&gt;&lt;br&gt;hypothetical protein&lt;br&gt;Location: 4208231 - 4207905" locus_tag="AQR26_RS18490" class="clusterblast-orf" id="dummy-1_h1_2_2"  />
</g>
<g id="a1_003"  >
<polygon points="140,85 145,80 166,80 166,90 145,90 140,85 " style="fill:white; stroke-width:1; stroke:black; " description="&lt;b&gt;AQR26_RS18485&lt;/b&gt;&lt;br&gt;type III effector protein&lt;br&gt;Location: 4207743 - 4207078" locus_tag="AQR26_RS18485" class="clusterblast-orf" id="dummy-1_h1_2_3"  />
</g>
<g id="a1_004"  >
<polygon points="176,90 254,90 259,85 254,80 176,80 176,90 " style="fill:white; stroke-width:1; stroke:black; " description="&lt;b&gt;AQR26_RS18480&lt;/b&gt;&lt;br&gt;UvrD-helicase domain-containing protein&lt;br&gt;Location: 4206830 - 4204713" locus_tag="AQR26_RS18480" class="clusterblast-orf" id="dummy-1_h1_2_4"  />
</g>
<g id="a1_005"  >
<polygon points="278,90 287,90 292,85 287,80 278,80 278,90 " style="fill:white; stroke-width:1; stroke:black; " description="&lt;b&gt;AQR26_RS18475&lt;/b&gt;&lt;br&gt;fucose/mannose-binding lectin&lt;br&gt;Location: 4204218 - 4203874" locus_tag="AQR26_RS18475" class="clusterblast-orf" id="dummy-1_h1_2_5"  />
</g>
<g id="a1_006"  >
<polygon points="296,90 310,90 315,85 310,80 296,80 296,90 " style="fill:white; stroke-width:1; stroke:black; " description="&lt;b&gt;AQR26_RS18470&lt;/b&gt;&lt;br&gt;hypothetical protein&lt;br&gt;Location: 4203768 - 4203265" locus_tag="AQR26_RS18470" class="clusterblast-orf" id="dummy-1_h1_2_6"  />
</g>
<g id="a1_007"  >
<polygon points="320,90 336,90 341,85 336,80 320,80 320,90 " style="fill:white; stroke-width:1; stroke:black; " description="&lt;b&gt;AQR26_RS18465&lt;/b&gt;&lt;br&gt;hypothetical protein&lt;br&gt;Location: 4203156 - 4202617" locus_tag="AQR26_RS18465" class="clusterblast-orf" id="dummy-1_h1_2_7"  />
</g>
<g id="a1_008"  >
<polygon points="342,85 347,80 369,80 369,90 347,90 342,85 " style="fill:#15d815; stroke-width:1; stroke:black; " description="&lt;b&gt;AQR26_RS18460&lt;/b&gt;&lt;br&gt;LuxR family transcriptional regulator&lt;br&gt;Location: 4202592 - 4201882&lt;br&gt;&lt;br&gt;&lt;b&gt;BlastP hit with JCPCKFCL_02080&lt;/b&gt;&lt;br&gt;Percentage identity: 31&lt;br&gt;Percentage coverage: 91&lt;br&gt;BLAST bit score: 75&lt;br&gt;E-value: 3.7e-14" locus_tag="AQR26_RS18460" class="clusterblast-orf" id="dummy-1_h1_2_8"  />
</g>
<g id="a1_009"  >
<polygon points="385,90 404,90 409,85 404,80 385,80 385,90 " style="fill:#1515d8; stroke-width:1; stroke:black; " description="&lt;b&gt;AQR26_RS18455&lt;/b&gt;&lt;br&gt;GNAT family N-acetyltransferase&lt;br&gt;Location: 4201481 - 4200867&lt;br&gt;&lt;br&gt;&lt;b&gt;BlastP hit with JCPCKFCL_02081&lt;/b&gt;&lt;br&gt;Percentage identity: 36&lt;br&gt;Percentage coverage: 67&lt;br&gt;BLAST bit score: 81&lt;br&gt;E-value: 5.92e-17" locus_tag="AQR26_RS18455" class="clusterblast-orf" id="dummy-1_h1_2_9"  />
</g>
<g id="a1_0010"  >
<polygon points="410,85 415,80 453,80 453,90 415,90 410,85 " style="fill:white; stroke-width:1; stroke:black; " description="&lt;b&gt;AQR26_RS18450&lt;/b&gt;&lt;br&gt;ABC transporter substrate-binding protein&lt;br&gt;Location: 4200849 - 4199752" locus_tag="AQR26_RS18450" class="clusterblast-orf" id="dummy-1_h1_2_10"  />
</g>
<g id="a1_0011"  >
<polygon points="462,90 514,90 519,85 514,80 462,80 462,90 " style="fill:white; stroke-width:1; stroke:black; " description="&lt;b&gt;AQR26_RS18445&lt;/b&gt;&lt;br&gt;oxygen-independent coproporphyrinogen III oxidase&lt;br&gt;Location: 4199518 - 4198049" locus_tag="AQR26_RS18445" class="clusterblast-orf" id="dummy-1_h1_2_11"  />
</g>
<g id="a1_0012"  >
<polygon points="520,85 525,80 578,80 578,90 525,90 520,85 " style="fill:#d81515; stroke-width:1; stroke:black; " description="&lt;b&gt;AQR26_RS18440&lt;/b&gt;&lt;br&gt;pyruvate kinase&lt;br&gt;Location: 4198044 - 4196554&lt;br&gt;&lt;br&gt;&lt;b&gt;BlastP hit with JCPCKFCL_02074&lt;/b&gt;&lt;br&gt;Percentage identity: 55&lt;br&gt;Percentage coverage: 97&lt;br&gt;BLAST bit score: 490&lt;br&gt;E-value: 6.72e-169" locus_tag="AQR26_RS18440" class="clusterblast-orf" id="dummy-1_h1_2_12"  />
</g>
<g id="a1_0013"  >
<polygon points="582,85 587,80 633,80 633,90 587,90 582,85 " style="fill:white; stroke-width:1; stroke:black; " description="&lt;b&gt;AQR26_RS18435&lt;/b&gt;&lt;br&gt;glycerate kinase&lt;br&gt;Location: 4196447 - 4195143" locus_tag="AQR26_RS18435" class="clusterblast-orf" id="dummy-1_h1_2_13"  />
</g>
<g id="a1_0014"  >
<polygon points="636,85 641,80 672,80 672,90 641,90 636,85 " style="fill:white; stroke-width:1; stroke:black; " description="&lt;b&gt;AQR26_RS18430&lt;/b&gt;&lt;br&gt;2-hydroxy-3-oxopropionate reductase&lt;br&gt;Location: 4195060 - 4194149" locus_tag="AQR26_RS18430" class="clusterblast-orf" id="dummy-1_h1_2_14"  />
</g>
<g id="a1_0015"  >
<polygon points="678,85 683,80 709,80 709,90 683,90 678,85 " style="fill:white; stroke-width:1; stroke:black; " description="&lt;b&gt;AQR26_RS18425&lt;/b&gt;&lt;br&gt;hydroxypyruvate isomerase&lt;br&gt;Location: 4193990 - 4193208" locus_tag="AQR26_RS18425" class="clusterblast-orf" id="dummy-1_h1_2_15"  />
</g>
<g id="a1_0016"  >
<polygon points="710,85 715,80 779,80 779,90 715,90 710,85 " style="fill:white; stroke-width:1; stroke:black; " description="&lt;b&gt;AQR26_RS18420&lt;/b&gt;&lt;br&gt;glyoxylate carboligase&lt;br&gt;Location: 4193173 - 4191398" locus_tag="AQR26_RS18420" class="clusterblast-orf" id="dummy-1_h1_2_16"  />
</g>
</svg>
