<svg xmlns="http://www.w3.org/2000/svg" xmlns:xlink="http://www.w3.org/1999/xlink" version="1.1" x="0" y="0" height="230" width="800" viewBox="0 0 800 230" preserveAspectRatio="none"  >
<g label="Query sequence" class="clusterblast-cluster"  >
<text x="5" y="20" class="clusterblast-acc"  >
Query sequence</text>
<line x1="10" y1="35" x2="778.0" y2="35" style="stroke-width:1; stroke:grey; "  />
<polygon points="66,40 120,40 125,35 120,30 66,30 66,40 " style="fill:white; stroke-width:1; stroke:black; " description="&lt;b&gt;JCPCKFCL_00899&lt;/b&gt;&lt;br&gt;hypothetical protein&lt;br&gt;Location: 10818 - 13107" locus_tag="JCPCKFCL_00899" class="clusterblast-orf" id="dummy-1_q0_0_all"  />
<polygon points="125,35 130,30 142,30 142,40 130,40 125,35 " style="fill:white; stroke-width:1; stroke:black; " description="&lt;b&gt;JCPCKFCL_00900&lt;/b&gt;&lt;br&gt;Futalosine hydrolase&lt;br&gt;Location: 13122 - 13785" locus_tag="JCPCKFCL_00900" class="clusterblast-orf" id="dummy-1_q1_0_all"  />
<polygon points="146,40 158,40 163,35 158,30 146,30 146,40 " style="fill:white; stroke-width:1; stroke:black; " description="&lt;b&gt;JCPCKFCL_00901&lt;/b&gt;&lt;br&gt;hypothetical protein&lt;br&gt;Location: 13940 - 14588" locus_tag="JCPCKFCL_00901" class="clusterblast-orf" id="dummy-1_q2_0_all"  />
<polygon points="169,35 174,30 182,30 182,40 174,40 169,35 " style="fill:white; stroke-width:1; stroke:black; " description="&lt;b&gt;JCPCKFCL_00902&lt;/b&gt;&lt;br&gt;30S ribosomal protein S9&lt;br&gt;Location: 14833 - 15322" locus_tag="JCPCKFCL_00902" class="clusterblast-orf" id="dummy-1_q3_0_all"  />
<polygon points="182,35 187,30 194,30 194,40 187,40 182,35 " style="fill:white; stroke-width:1; stroke:black; " description="&lt;b&gt;JCPCKFCL_00903&lt;/b&gt;&lt;br&gt;50S ribosomal protein L13&lt;br&gt;Location: 15324 - 15789" locus_tag="JCPCKFCL_00903" class="clusterblast-orf" id="dummy-1_q4_0_all"  />
<polygon points="203,40 229,40 234,35 229,30 203,30 203,40 " style="fill:white; stroke-width:1; stroke:black; " description="&lt;b&gt;JCPCKFCL_00904&lt;/b&gt;&lt;br&gt;Kynureninase&lt;br&gt;Location: 16143 - 17349" locus_tag="JCPCKFCL_00904" class="clusterblast-orf" id="dummy-1_q5_0_all"  />
<polygon points="235,40 254,40 259,35 254,30 235,30 235,40 " style="fill:white; stroke-width:1; stroke:black; " description="&lt;b&gt;JCPCKFCL_00905&lt;/b&gt;&lt;br&gt;hypothetical protein&lt;br&gt;Location: 17388 - 18312" locus_tag="JCPCKFCL_00905" class="clusterblast-orf" id="dummy-1_q6_0_all"  />
<polygon points="262,40 287,40 292,35 287,30 262,30 262,40 " style="fill:white; stroke-width:1; stroke:black; " description="&lt;b&gt;JCPCKFCL_00906&lt;/b&gt;&lt;br&gt;Aldose sugar dehydrogenase YliI&lt;br&gt;Location: 18425 - 19601" locus_tag="JCPCKFCL_00906" class="clusterblast-orf" id="dummy-1_q7_0_all"  />
<polygon points="293,35 298,30 317,30 317,40 298,40 293,35 " style="fill:#d81515; stroke-width:1; stroke:black; " description="&lt;b&gt;JCPCKFCL_00907&lt;/b&gt;&lt;br&gt;3-hydroxy-3-isohexenylglutaryl-CoA/hydroxy- methylglutaryl-CoA lyase&lt;br&gt;Location: 19634 - 20549" locus_tag="JCPCKFCL_00907" class="clusterblast-orf" id="dummy-1_q8_0_all"  />
<polygon points="318,35 323,30 369,30 369,40 323,40 318,35 " style="fill:#77d815; stroke-width:1; stroke:black; " description="&lt;b&gt;JCPCKFCL_00908&lt;/b&gt;&lt;br&gt;Acetyl-/propionyl-coenzyme A carboxylase alpha chain&lt;br&gt;Location: 20582 - 22592" locus_tag="JCPCKFCL_00908" class="clusterblast-orf" id="dummy-1_q9_0_all"  />
<polygon points="369,35 374,30 390,30 390,40 374,40 369,35 " style="fill:#15d8d8; stroke-width:1; stroke:black; " description="&lt;b&gt;JCPCKFCL_00909&lt;/b&gt;&lt;br&gt;Enoyl-CoA-hydratase&lt;br&gt;Location: 22598 - 23384" locus_tag="JCPCKFCL_00909" class="clusterblast-orf" id="dummy-1_q10_0_all"  />
<polygon points="390,35 395,30 432,30 432,40 395,40 390,35 " style="fill:#7715d8; stroke-width:1; stroke:black; " description="&lt;b&gt;JCPCKFCL_00910&lt;/b&gt;&lt;br&gt;Methylmalonyl-CoA carboxyltransferase 12S subunit&lt;br&gt;Location: 23411 - 25022" locus_tag="JCPCKFCL_00910" class="clusterblast-orf" id="dummy-1_q11_0_all"  />
<polygon points="433,35 438,30 467,30 467,40 438,40 433,35 " style="fill:#d87715; stroke-width:1; stroke:black; " description="&lt;b&gt;JCPCKFCL_00911&lt;/b&gt;&lt;br&gt;C4-dicarboxylate TRAP transporter large permease protein DctM&lt;br&gt;Location: 25079 - 26366" locus_tag="JCPCKFCL_00911" class="clusterblast-orf" id="dummy-1_q12_0_all"  />
<polygon points="469,35 474,30 495,30 495,40 474,40 469,35 " style="fill:#15d815; stroke-width:1; stroke:black; " description="&lt;b&gt;JCPCKFCL_00912&lt;/b&gt;&lt;br&gt;Solute-binding protein&lt;br&gt;Location: 26447 - 27455" locus_tag="JCPCKFCL_00912" class="clusterblast-orf" id="dummy-1_q13_0_all"  />
<polygon points="496,35 501,30 508,30 508,40 501,40 496,35 " style="fill:#1577d8; stroke-width:1; stroke:black; " description="&lt;b&gt;JCPCKFCL_00913&lt;/b&gt;&lt;br&gt;hypothetical protein&lt;br&gt;Location: 27499 - 27988" locus_tag="JCPCKFCL_00913" class="clusterblast-orf" id="dummy-1_q14_0_all"  />
<polygon points="509,35 514,30 539,30 539,40 514,40 509,35 " style="fill:#d815d8; stroke-width:1; stroke:black; " description="&lt;b&gt;JCPCKFCL_00914&lt;/b&gt;&lt;br&gt;hypothetical protein&lt;br&gt;Location: 28021 - 29167" locus_tag="JCPCKFCL_00914" class="clusterblast-orf" id="dummy-1_q15_0_all"  />
<polygon points="540,35 545,30 580,30 580,40 545,40 540,35 " style="fill:#d8d815; stroke-width:1; stroke:black; " description="&lt;b&gt;JCPCKFCL_00915&lt;/b&gt;&lt;br&gt;Acetyl-coenzyme A synthetase&lt;br&gt;Location: 29202 - 30762" locus_tag="JCPCKFCL_00915" class="clusterblast-orf" id="dummy-1_q16_0_all"  />
<polygon points="584,40 599,40 604,35 599,30 584,30 584,40 " style="fill:#15d877; stroke-width:1; stroke:black; " description="&lt;b&gt;JCPCKFCL_00916&lt;/b&gt;&lt;br&gt;putative HTH-type transcriptional regulator RhmR&lt;br&gt;Location: 30907 - 31687" locus_tag="JCPCKFCL_00916" class="clusterblast-orf" id="dummy-1_q17_0_all"  />
<polygon points="604,40 610,40 615,35 610,30 604,30 604,40 " style="fill:#1515d8; stroke-width:1; stroke:black; " description="&lt;b&gt;JCPCKFCL_00917&lt;/b&gt;&lt;br&gt;hypothetical protein&lt;br&gt;Location: 31712 - 32132" locus_tag="JCPCKFCL_00917" class="clusterblast-orf" id="dummy-1_q18_0_all"  />
<polygon points="615,40 642,40 647,35 642,30 615,30 615,40 " style="fill:#d81577; stroke-width:1; stroke:black; " description="&lt;b&gt;JCPCKFCL_00918&lt;/b&gt;&lt;br&gt;Formyl-CoA:oxalate CoA-transferase&lt;br&gt;Location: 32124 - 33390" locus_tag="JCPCKFCL_00918" class="clusterblast-orf" id="dummy-1_q19_0_all"  />
<polygon points="650,35 655,30 672,30 672,40 655,40 650,35 " style="fill:white; stroke-width:1; stroke:black; " description="&lt;b&gt;JCPCKFCL_00919&lt;/b&gt;&lt;br&gt;Phosphate import ATP-binding protein PstB 3&lt;br&gt;Location: 33501 - 34347" locus_tag="JCPCKFCL_00919" class="clusterblast-orf" id="dummy-1_q20_0_all"  />
<polygon points="672,35 677,30 714,30 714,40 677,40 672,35 " style="fill:white; stroke-width:1; stroke:black; " description="&lt;b&gt;JCPCKFCL_00920&lt;/b&gt;&lt;br&gt;hypothetical protein&lt;br&gt;Location: 34358 - 35954" locus_tag="JCPCKFCL_00920" class="clusterblast-orf" id="dummy-1_q21_0_all"  />
</g>
<g label="NZ_LT607803" description="NZ_LT607803 (2962398-2992676): Variovorax sp. HW608 chromosome I (33% of genes show similarity), betalactone" class="clusterblast-cluster"  >
<text x="5" y="70" class="clusterblast-acc"  >
<a xlink:href="https://antismash-db.secondarymetabolites.org/area.html?record=NZ_LT607803&amp;start=2962398&amp;end=2992676" target="_blank">NZ_LT607803 (2962398-2992676)</a>: Variovorax sp. HW608 chromosome I (33% of genes show similarity), betalactone</text>
<line x1="10" y1="85" x2="778.0" y2="85" style="stroke-width:1; stroke:grey; "  />
</g>
<g id="a1_000"  >
<polygon points="0,85 5,80 64,80 64,90 5,90 0,85 " style="fill:white; stroke-width:1; stroke:black; " description="&lt;b&gt;VAR608DRAFT_RS13850&lt;/b&gt;&lt;br&gt;MMPL family transporter&lt;br&gt;Location: 2962399 - 2964885" locus_tag="VAR608DRAFT_RS13850" class="clusterblast-orf" id="dummy-1_h1_10_0"  />
</g>
<g id="a1_001"  >
<polygon points="65,85 70,80 92,80 92,90 70,90 65,85 " style="fill:white; stroke-width:1; stroke:black; " description="&lt;b&gt;VAR608DRAFT_RS13855&lt;/b&gt;&lt;br&gt;hypothetical protein&lt;br&gt;Location: 2964928 - 2965998" locus_tag="VAR608DRAFT_RS13855" class="clusterblast-orf" id="dummy-1_h1_10_1"  />
</g>
<g id="a1_002"  >
<polygon points="94,85 99,80 129,80 129,90 99,90 94,85 " style="fill:white; stroke-width:1; stroke:black; " description="&lt;b&gt;VAR608DRAFT_RS13860&lt;/b&gt;&lt;br&gt;DUF1329 domain-containing protein&lt;br&gt;Location: 2966052 - 2967428" locus_tag="VAR608DRAFT_RS13860" class="clusterblast-orf" id="dummy-1_h1_10_2"  />
</g>
<g id="a1_003"  >
<polygon points="130,85 135,80 179,80 179,90 135,90 130,85 " style="fill:white; stroke-width:1; stroke:black; " description="&lt;b&gt;VAR608DRAFT_RS13865&lt;/b&gt;&lt;br&gt;DUF1302 family protein&lt;br&gt;Location: 2967455 - 2969353" locus_tag="VAR608DRAFT_RS13865" class="clusterblast-orf" id="dummy-1_h1_10_3"  />
</g>
<g id="a1_004"  >
<polygon points="181,90 202,90 207,85 202,80 181,80 181,90 " style="fill:white; stroke-width:1; stroke:black; " description="&lt;b&gt;VAR608DRAFT_RS13870&lt;/b&gt;&lt;br&gt;NAD-binding protein&lt;br&gt;Location: 2969452 - 2970438" locus_tag="VAR608DRAFT_RS13870" class="clusterblast-orf" id="dummy-1_h1_10_4"  />
</g>
<g id="a1_005"  >
<polygon points="207,90 215,90 220,85 215,80 207,80 207,90 " style="fill:white; stroke-width:1; stroke:black; " description="&lt;b&gt;VAR608DRAFT_RS13875&lt;/b&gt;&lt;br&gt;nuclear transport factor 2 family protein&lt;br&gt;Location: 2970447 - 2970950" locus_tag="VAR608DRAFT_RS13875" class="clusterblast-orf" id="dummy-1_h1_10_5"  />
</g>
<g id="a1_006"  >
<polygon points="222,90 257,90 262,85 257,80 222,80 222,90 " style="fill:white; stroke-width:1; stroke:black; " description="&lt;b&gt;VAR608DRAFT_RS13880&lt;/b&gt;&lt;br&gt;AMP-binding protein&lt;br&gt;Location: 2971024 - 2972601" locus_tag="VAR608DRAFT_RS13880" class="clusterblast-orf" id="dummy-1_h1_10_6"  />
</g>
<g id="a1_007"  >
<polygon points="271,85 276,80 295,80 295,90 276,90 271,85 " style="fill:#d81515; stroke-width:1; stroke:black; " description="&lt;b&gt;VAR608DRAFT_RS13885&lt;/b&gt;&lt;br&gt;hydroxymethylglutaryl-CoA lyase&lt;br&gt;Location: 2972947 - 2973882&lt;br&gt;&lt;br&gt;&lt;b&gt;BlastP hit with JCPCKFCL_00907&lt;/b&gt;&lt;br&gt;Percentage identity: 53&lt;br&gt;Percentage coverage: 99&lt;br&gt;BLAST bit score: 302&lt;br&gt;E-value: 1.77e-100" locus_tag="VAR608DRAFT_RS13885" class="clusterblast-orf" id="dummy-1_h1_10_7"  />
</g>
<g id="a1_008"  >
<polygon points="296,85 301,80 348,80 348,90 301,90 296,85 " style="fill:#77d815; stroke-width:1; stroke:black; " description="&lt;b&gt;VAR608DRAFT_RS13890&lt;/b&gt;&lt;br&gt;acetyl/propionyl/methylcrotonyl-CoA carboxylase subunit alpha&lt;br&gt;Location: 2973912 - 2975924&lt;br&gt;&lt;br&gt;&lt;b&gt;BlastP hit with JCPCKFCL_00908&lt;/b&gt;&lt;br&gt;Percentage identity: 54&lt;br&gt;Percentage coverage: 98&lt;br&gt;BLAST bit score: 588&lt;br&gt;E-value: 3.62e-202" locus_tag="VAR608DRAFT_RS13890" class="clusterblast-orf" id="dummy-1_h1_10_8"  />
</g>
<g id="a1_009"  >
<polygon points="349,85 354,80 369,80 369,90 354,90 349,85 " style="fill:#15d8d8; stroke-width:1; stroke:black; " description="&lt;b&gt;VAR608DRAFT_RS13895&lt;/b&gt;&lt;br&gt;enoyl-CoA hydratase/isomerase family protein&lt;br&gt;Location: 2975976 - 2976761&lt;br&gt;&lt;br&gt;&lt;b&gt;BlastP hit with JCPCKFCL_00909&lt;/b&gt;&lt;br&gt;Percentage identity: 51&lt;br&gt;Percentage coverage: 98&lt;br&gt;BLAST bit score: 227&lt;br&gt;E-value: 2.44e-72" locus_tag="VAR608DRAFT_RS13895" class="clusterblast-orf" id="dummy-1_h1_10_9"  />
</g>
<g id="a1_0010"  >
<polygon points="370,85 375,80 412,80 412,90 375,90 370,85 " style="fill:#7715d8; stroke-width:1; stroke:black; " description="&lt;b&gt;VAR608DRAFT_RS13900&lt;/b&gt;&lt;br&gt;methylcrotonoyl-CoA carboxylase&lt;br&gt;Location: 2976793 - 2978400&lt;br&gt;&lt;br&gt;&lt;b&gt;BlastP hit with JCPCKFCL_00910&lt;/b&gt;&lt;br&gt;Percentage identity: 75&lt;br&gt;Percentage coverage: 100&lt;br&gt;BLAST bit score: 812&lt;br&gt;E-value: 1.61e-294" locus_tag="VAR608DRAFT_RS13900" class="clusterblast-orf" id="dummy-1_h1_10_10"  />
</g>
<g id="a1_0011"  >
<polygon points="413,85 418,80 438,80 438,90 418,90 413,85 " style="fill:white; stroke-width:1; stroke:black; " description="&lt;b&gt;VAR608DRAFT_RS13905&lt;/b&gt;&lt;br&gt;tripartite tricarboxylate transporter substrate binding protein&lt;br&gt;Location: 2978443 - 2979405" locus_tag="VAR608DRAFT_RS13905" class="clusterblast-orf" id="dummy-1_h1_10_11"  />
</g>
<g id="a1_0012"  >
<polygon points="439,85 444,80 470,80 470,90 444,90 439,85 " style="fill:#d81577; stroke-width:1; stroke:black; " description="&lt;b&gt;VAR608DRAFT_RS13910&lt;/b&gt;&lt;br&gt;CoA transferase&lt;br&gt;Location: 2979450 - 2980670&lt;br&gt;&lt;br&gt;&lt;b&gt;BlastP hit with JCPCKFCL_00918&lt;/b&gt;&lt;br&gt;Percentage identity: 41&lt;br&gt;Percentage coverage: 84&lt;br&gt;BLAST bit score: 247&lt;br&gt;E-value: 3.86e-76" locus_tag="VAR608DRAFT_RS13910" class="clusterblast-orf" id="dummy-1_h1_10_12"  />
</g>
<g id="a1_0013"  >
<polygon points="473,85 478,80 502,80 502,90 478,90 473,85 " style="fill:#d815d8; stroke-width:1; stroke:black; " description="&lt;b&gt;VAR608DRAFT_RS13915&lt;/b&gt;&lt;br&gt;MaoC family dehydratase N-terminal domain-containing protein&lt;br&gt;Location: 2980770 - 2981909&lt;br&gt;&lt;br&gt;&lt;b&gt;BlastP hit with JCPCKFCL_00914&lt;/b&gt;&lt;br&gt;Percentage identity: 74&lt;br&gt;Percentage coverage: 99&lt;br&gt;BLAST bit score: 618&lt;br&gt;E-value: 8.51e-223" locus_tag="VAR608DRAFT_RS13915" class="clusterblast-orf" id="dummy-1_h1_10_13"  />
</g>
<g id="a1_0014"  >
<polygon points="503,85 508,80 543,80 543,90 508,90 503,85 " style="fill:#d8d815; stroke-width:1; stroke:black; " description="&lt;b&gt;VAR608DRAFT_RS13920&lt;/b&gt;&lt;br&gt;AMP-binding protein&lt;br&gt;Location: 2981939 - 2983498&lt;br&gt;&lt;br&gt;&lt;b&gt;BlastP hit with JCPCKFCL_00915&lt;/b&gt;&lt;br&gt;Percentage identity: 64&lt;br&gt;Percentage coverage: 99&lt;br&gt;BLAST bit score: 679&lt;br&gt;E-value: 1.37e-242" locus_tag="VAR608DRAFT_RS13920" class="clusterblast-orf" id="dummy-1_h1_10_14"  />
</g>
<g id="a1_0015"  >
<polygon points="548,90 563,90 568,85 563,80 548,80 548,90 " style="fill:#15d877; stroke-width:1; stroke:black; " description="&lt;b&gt;VAR608DRAFT_RS13925&lt;/b&gt;&lt;br&gt;helix-turn-helix domain-containing protein&lt;br&gt;Location: 2983690 - 2984469&lt;br&gt;&lt;br&gt;&lt;b&gt;BlastP hit with JCPCKFCL_00916&lt;/b&gt;&lt;br&gt;Percentage identity: 45&lt;br&gt;Percentage coverage: 90&lt;br&gt;BLAST bit score: 213&lt;br&gt;E-value: 8.32e-67" locus_tag="VAR608DRAFT_RS13925" class="clusterblast-orf" id="dummy-1_h1_10_15"  />
</g>
<g id="a1_0016"  >
<polygon points="569,90 575,90 580,85 575,80 569,80 569,90 " style="fill:white; stroke-width:1; stroke:black; " description="&lt;b&gt;VAR608DRAFT_RS13930&lt;/b&gt;&lt;br&gt;PaaI family thioesterase&lt;br&gt;Location: 2984504 - 2984929" locus_tag="VAR608DRAFT_RS13930" class="clusterblast-orf" id="dummy-1_h1_10_16"  />
</g>
<g id="a1_0017"  >
<polygon points="610,90 623,90 628,85 623,80 610,80 610,90 " style="fill:white; stroke-width:1; stroke:black; " description="&lt;b&gt;VAR608DRAFT_RS13935&lt;/b&gt;&lt;br&gt;alpha/beta hydrolase&lt;br&gt;Location: 2986107 - 2986778" locus_tag="VAR608DRAFT_RS13935" class="clusterblast-orf" id="dummy-1_h1_10_17"  />
</g>
<g id="a1_0018"  >
<polygon points="628,85 633,80 644,80 644,90 633,90 628,85 " style="fill:white; stroke-width:1; stroke:black; " description="&lt;b&gt;VAR608DRAFT_RS13940&lt;/b&gt;&lt;br&gt;DJ-1/PfpI family protein&lt;br&gt;Location: 2986791 - 2987408" locus_tag="VAR608DRAFT_RS13940" class="clusterblast-orf" id="dummy-1_h1_10_18"  />
</g>
<g id="a1_0019"  >
<polygon points="646,90 675,90 680,85 675,80 646,80 646,90 " style="fill:white; stroke-width:1; stroke:black; " description="&lt;b&gt;VAR608DRAFT_RS13945&lt;/b&gt;&lt;br&gt;PLP-dependent aminotransferase family protein&lt;br&gt;Location: 2987495 - 2988826" locus_tag="VAR608DRAFT_RS13945" class="clusterblast-orf" id="dummy-1_h1_10_19"  />
</g>
<g id="a1_0020"  >
<polygon points="687,85 692,80 722,80 722,90 692,90 687,85 " style="fill:white; stroke-width:1; stroke:black; " description="&lt;b&gt;VAR608DRAFT_RS13950&lt;/b&gt;&lt;br&gt;group II intron reverse transcriptase/maturase&lt;br&gt;Location: 2989070 - 2990446" locus_tag="VAR608DRAFT_RS13950" class="clusterblast-orf" id="dummy-1_h1_10_20"  />
</g>
<g id="a1_0021"  >
<polygon points="733,85 738,80 743,80 743,90 738,90 733,85 " style="fill:white; stroke-width:1; stroke:black; " description="&lt;b&gt;VAR608DRAFT_RS13960&lt;/b&gt;&lt;br&gt;helicase SNF2&lt;br&gt;Location: 2990875 - 2991270" locus_tag="VAR608DRAFT_RS13960" class="clusterblast-orf" id="dummy-1_h1_10_21"  />
</g>
<g id="a1_0022"  >
<polygon points="751,90 754,90 759,85 754,80 751,80 751,90 " style="fill:white; stroke-width:1; stroke:black; " description="&lt;b&gt;VAR608DRAFT_RS13965&lt;/b&gt;&lt;br&gt;hypothetical protein&lt;br&gt;Location: 2991584 - 2991874" locus_tag="VAR608DRAFT_RS13965" class="clusterblast-orf" id="dummy-1_h1_10_22"  />
</g>
<g id="a1_0023"  >
<polygon points="760,90 775,90 780,85 775,80 760,80 760,90 " style="fill:white; stroke-width:1; stroke:black; " description="&lt;b&gt;VAR608DRAFT_RS13970&lt;/b&gt;&lt;br&gt;TolC family protein&lt;br&gt;Location: 2991921 - 2992676" locus_tag="VAR608DRAFT_RS13970" class="clusterblast-orf" id="dummy-1_h1_10_23"  />
</g>
</svg>
