<svg xmlns="http://www.w3.org/2000/svg" xmlns:xlink="http://www.w3.org/1999/xlink" version="1.1" x="0" y="0" height="230" width="800" viewBox="0 0 800 230" preserveAspectRatio="none"  >
<g label="Query sequence" class="clusterblast-cluster"  >
<text x="5" y="20" class="clusterblast-acc"  >
Query sequence</text>
<line x1="10" y1="35" x2="778.0" y2="35" style="stroke-width:1; stroke:grey; "  />
<polygon points="22,40 48,40 53,35 48,30 22,30 22,40 " style="fill:white; stroke-width:1; stroke:black; " description="&lt;b&gt;JCPCKFCL_02070&lt;/b&gt;&lt;br&gt;hypothetical protein&lt;br&gt;Location: 61619 - 62393" locus_tag="JCPCKFCL_02070" class="clusterblast-orf" id="dummy-1_q0_0_all"  />
<polygon points="56,35 61,30 70,30 70,40 61,40 56,35 " style="fill:white; stroke-width:1; stroke:black; " description="&lt;b&gt;JCPCKFCL_02071&lt;/b&gt;&lt;br&gt;50S ribosomal protein L20&lt;br&gt;Location: 62477 - 62840" locus_tag="JCPCKFCL_02071" class="clusterblast-orf" id="dummy-1_q1_0_all"  />
<polygon points="70,35 75,30 78,30 78,40 75,40 70,35 " style="fill:white; stroke-width:1; stroke:black; " description="&lt;b&gt;JCPCKFCL_02072&lt;/b&gt;&lt;br&gt;50S ribosomal protein L35&lt;br&gt;Location: 62852 - 63053" locus_tag="JCPCKFCL_02072" class="clusterblast-orf" id="dummy-1_q2_0_all"  />
<polygon points="84,35 89,30 92,30 92,40 89,40 84,35 " style="fill:white; stroke-width:1; stroke:black; " description="&lt;b&gt;JCPCKFCL_02073&lt;/b&gt;&lt;br&gt;hypothetical protein&lt;br&gt;Location: 63187 - 63412" locus_tag="JCPCKFCL_02073" class="clusterblast-orf" id="dummy-1_q3_0_all"  />
<polygon points="94,35 99,30 150,30 150,40 99,40 94,35 " style="fill:#d81515; stroke-width:1; stroke:black; " description="&lt;b&gt;JCPCKFCL_02074&lt;/b&gt;&lt;br&gt;Pyruvate kinase&lt;br&gt;Location: 63452 - 64898" locus_tag="JCPCKFCL_02074" class="clusterblast-orf" id="dummy-1_q4_0_all"  />
<polygon points="157,40 164,40 169,35 164,30 157,30 157,40 " style="fill:white; stroke-width:1; stroke:black; " description="&lt;b&gt;JCPCKFCL_02075&lt;/b&gt;&lt;br&gt;hypothetical protein&lt;br&gt;Location: 65063 - 65378" locus_tag="JCPCKFCL_02075" class="clusterblast-orf" id="dummy-1_q5_0_all"  />
<polygon points="170,35 175,30 203,30 203,40 175,40 170,35 " style="fill:white; stroke-width:1; stroke:black; " description="&lt;b&gt;JCPCKFCL_02076&lt;/b&gt;&lt;br&gt;D-alanine aminotransferase&lt;br&gt;Location: 65403 - 66255" locus_tag="JCPCKFCL_02076" class="clusterblast-orf" id="dummy-1_q6_0_all"  />
<polygon points="206,35 211,30 243,30 243,40 211,40 206,35 " style="fill:white; stroke-width:1; stroke:black; " description="&lt;b&gt;JCPCKFCL_02077&lt;/b&gt;&lt;br&gt;L-Ala-D/L-Glu epimerase&lt;br&gt;Location: 66322 - 67288" locus_tag="JCPCKFCL_02077" class="clusterblast-orf" id="dummy-1_q7_0_all"  />
<polygon points="247,35 252,30 286,30 286,40 252,40 247,35 " style="fill:white; stroke-width:1; stroke:black; " description="&lt;b&gt;JCPCKFCL_02078&lt;/b&gt;&lt;br&gt;hypothetical protein&lt;br&gt;Location: 67389 - 68394" locus_tag="JCPCKFCL_02078" class="clusterblast-orf" id="dummy-1_q8_0_all"  />
<polygon points="297,40 329,40 334,35 329,30 297,30 297,40 " style="fill:white; stroke-width:1; stroke:black; " description="&lt;b&gt;JCPCKFCL_02079&lt;/b&gt;&lt;br&gt;L-malyl-CoA/beta-methylmalyl-CoA lyase&lt;br&gt;Location: 68676 - 69633" locus_tag="JCPCKFCL_02079" class="clusterblast-orf" id="dummy-1_q9_0_all"  />
<polygon points="343,40 365,40 370,35 365,30 343,30 343,40 " style="fill:#15d815; stroke-width:1; stroke:black; " description="&lt;b&gt;JCPCKFCL_02080&lt;/b&gt;&lt;br&gt;Transcriptional activator protein AnoR&lt;br&gt;Location: 69849 - 70551" locus_tag="JCPCKFCL_02080" class="clusterblast-orf" id="dummy-1_q10_0_all"  />
<polygon points="375,40 396,40 401,35 396,30 375,30 375,40 " style="fill:#1515d8; stroke-width:1; stroke:black; " description="&lt;b&gt;JCPCKFCL_02081&lt;/b&gt;&lt;br&gt;hypothetical protein&lt;br&gt;Location: 70684 - 71347" locus_tag="JCPCKFCL_02081" class="clusterblast-orf" id="dummy-1_q11_0_all"  />
<polygon points="401,40 405,40 410,35 405,30 401,30 401,40 " style="fill:white; stroke-width:1; stroke:black; " description="&lt;b&gt;JCPCKFCL_02082&lt;/b&gt;&lt;br&gt;hypothetical protein&lt;br&gt;Location: 71343 - 71580" locus_tag="JCPCKFCL_02082" class="clusterblast-orf" id="dummy-1_q12_0_all"  />
<polygon points="414,35 419,30 429,30 429,40 419,40 414,35 " style="fill:white; stroke-width:1; stroke:black; " description="&lt;b&gt;JCPCKFCL_02083&lt;/b&gt;&lt;br&gt;hypothetical protein&lt;br&gt;Location: 71680 - 72070" locus_tag="JCPCKFCL_02083" class="clusterblast-orf" id="dummy-1_q13_0_all"  />
<polygon points="435,40 456,40 461,35 456,30 435,30 435,40 " style="fill:white; stroke-width:1; stroke:black; " description="&lt;b&gt;JCPCKFCL_02084&lt;/b&gt;&lt;br&gt;Carbonic anhydrase 1&lt;br&gt;Location: 72222 - 72873" locus_tag="JCPCKFCL_02084" class="clusterblast-orf" id="dummy-1_q14_0_all"  />
<polygon points="461,35 466,30 478,30 478,40 466,40 461,35 " style="fill:white; stroke-width:1; stroke:black; " description="&lt;b&gt;JCPCKFCL_02085&lt;/b&gt;&lt;br&gt;hypothetical protein&lt;br&gt;Location: 72881 - 73310" locus_tag="JCPCKFCL_02085" class="clusterblast-orf" id="dummy-1_q15_0_all"  />
<polygon points="481,35 486,30 532,30 532,40 486,40 481,35 " style="fill:white; stroke-width:1; stroke:black; " description="&lt;b&gt;JCPCKFCL_02086&lt;/b&gt;&lt;br&gt;hypothetical protein&lt;br&gt;Location: 73387 - 74701" locus_tag="JCPCKFCL_02086" class="clusterblast-orf" id="dummy-1_q16_0_all"  />
<polygon points="551,40 594,40 599,35 594,30 551,30 551,40 " style="fill:white; stroke-width:1; stroke:black; " description="&lt;b&gt;JCPCKFCL_02087&lt;/b&gt;&lt;br&gt;hypothetical protein&lt;br&gt;Location: 75200 - 76427" locus_tag="JCPCKFCL_02087" class="clusterblast-orf" id="dummy-1_q17_0_all"  />
<polygon points="605,40 677,40 682,35 677,30 605,30 605,40 " style="fill:white; stroke-width:1; stroke:black; " description="&lt;b&gt;JCPCKFCL_02088&lt;/b&gt;&lt;br&gt;hypothetical protein&lt;br&gt;Location: 76579 - 78562" locus_tag="JCPCKFCL_02088" class="clusterblast-orf" id="dummy-1_q18_0_all"  />
<polygon points="684,35 689,30 711,30 711,40 689,40 684,35 " style="fill:white; stroke-width:1; stroke:black; " description="&lt;b&gt;JCPCKFCL_02089&lt;/b&gt;&lt;br&gt;HTH-type transcriptional regulator KipR&lt;br&gt;Location: 78626 - 79301" locus_tag="JCPCKFCL_02089" class="clusterblast-orf" id="dummy-1_q19_0_all"  />
<polygon points="716,40 752,40 757,35 752,30 716,30 716,40 " style="fill:white; stroke-width:1; stroke:black; " description="&lt;b&gt;JCPCKFCL_02090&lt;/b&gt;&lt;br&gt;Homoisocitrate dehydrogenase&lt;br&gt;Location: 79425 - 80496" locus_tag="JCPCKFCL_02090" class="clusterblast-orf" id="dummy-1_q20_0_all"  />
</g>
<g label="NZ_CP034194" description="NZ_CP034194 (3158327-3178942): Ralstonia solanacearum strain UA-1579 chromosome (15% of genes show similarity), hserlactone" class="clusterblast-cluster"  >
<text x="5" y="70" class="clusterblast-acc"  >
<a xlink:href="https://antismash-db.secondarymetabolites.org/area.html?record=NZ_CP034194&amp;start=3158327&amp;end=3178942" target="_blank">NZ_CP034194 (3158327-3178942)</a>: Ralstonia solanacearum strain UA-1579 chromosome (15% of genes show similarity), hserlactone</text>
<line x1="10" y1="85" x2="778.0" y2="85" style="stroke-width:1; stroke:grey; "  />
</g>
<g id="a1_000"  >
<polygon points="0,85 5,80 12,80 12,90 5,90 0,85 " style="fill:white; stroke-width:1; stroke:black; " description="&lt;b&gt;EIH14_RS14310&lt;/b&gt;&lt;br&gt;50S ribosomal protein L23&lt;br&gt;Location: 3158361 - 3158675" locus_tag="EIH14_RS14310" class="clusterblast-orf" id="dummy-1_h1_6_0"  />
</g>
<g id="a1_001"  >
<polygon points="12,85 17,80 36,80 36,90 17,90 12,85 " style="fill:white; stroke-width:1; stroke:black; " description="&lt;b&gt;EIH14_RS14315&lt;/b&gt;&lt;br&gt;50S ribosomal protein L4&lt;br&gt;Location: 3158672 - 3159292" locus_tag="EIH14_RS14315" class="clusterblast-orf" id="dummy-1_h1_6_1"  />
</g>
<g id="a1_002"  >
<polygon points="36,85 41,80 62,80 62,90 41,90 36,85 " style="fill:white; stroke-width:1; stroke:black; " description="&lt;b&gt;EIH14_RS14320&lt;/b&gt;&lt;br&gt;50S ribosomal protein L3&lt;br&gt;Location: 3159303 - 3159965" locus_tag="EIH14_RS14320" class="clusterblast-orf" id="dummy-1_h1_6_2"  />
</g>
<g id="a1_003"  >
<polygon points="73,85 78,80 85,80 85,90 78,90 73,85 " style="fill:white; stroke-width:1; stroke:black; " description="&lt;b&gt;EIH14_RS14325&lt;/b&gt;&lt;br&gt;30S ribosomal protein S10&lt;br&gt;Location: 3160251 - 3160565" locus_tag="EIH14_RS14325" class="clusterblast-orf" id="dummy-1_h1_6_3"  />
</g>
<g id="a1_004"  >
<polygon points="112,90 146,90 151,85 146,80 112,80 112,90 " style="fill:white; stroke-width:1; stroke:black; " description="&lt;b&gt;EIH14_RS14330&lt;/b&gt;&lt;br&gt;acyltransferase family protein&lt;br&gt;Location: 3161248 - 3162258" locus_tag="EIH14_RS14330" class="clusterblast-orf" id="dummy-1_h1_6_4"  />
</g>
<g id="a1_005"  >
<polygon points="157,85 162,80 170,80 170,90 162,90 157,85 " style="fill:white; stroke-width:1; stroke:black; " description="&lt;b&gt;EIH14_RS14335&lt;/b&gt;&lt;br&gt;hypothetical protein&lt;br&gt;Location: 3162407 - 3162733" locus_tag="EIH14_RS14335" class="clusterblast-orf" id="dummy-1_h1_6_5"  />
</g>
<g id="a1_006"  >
<polygon points="179,90 257,90 262,85 257,80 179,80 179,90 " style="fill:white; stroke-width:1; stroke:black; " description="&lt;b&gt;EIH14_RS14340&lt;/b&gt;&lt;br&gt;UvrD-helicase domain-containing protein&lt;br&gt;Location: 3162978 - 3165095" locus_tag="EIH14_RS14340" class="clusterblast-orf" id="dummy-1_h1_6_6"  />
</g>
<g id="a1_007"  >
<polygon points="281,90 289,90 294,85 289,80 281,80 281,90 " style="fill:white; stroke-width:1; stroke:black; " description="&lt;b&gt;EIH14_RS14345&lt;/b&gt;&lt;br&gt;sugar-binding lectin protein&lt;br&gt;Location: 3165593 - 3165937" locus_tag="EIH14_RS14345" class="clusterblast-orf" id="dummy-1_h1_6_7"  />
</g>
<g id="a1_008"  >
<polygon points="299,90 313,90 318,85 313,80 299,80 299,90 " style="fill:white; stroke-width:1; stroke:black; " description="&lt;b&gt;EIH14_RS14350&lt;/b&gt;&lt;br&gt;hypothetical protein&lt;br&gt;Location: 3166044 - 3166547" locus_tag="EIH14_RS14350" class="clusterblast-orf" id="dummy-1_h1_6_8"  />
</g>
<g id="a1_009"  >
<polygon points="322,90 338,90 343,85 338,80 322,80 322,90 " style="fill:white; stroke-width:1; stroke:black; " description="&lt;b&gt;EIH14_RS14355&lt;/b&gt;&lt;br&gt;hypothetical protein&lt;br&gt;Location: 3166656 - 3167195" locus_tag="EIH14_RS14355" class="clusterblast-orf" id="dummy-1_h1_6_9"  />
</g>
<g id="a1_0010"  >
<polygon points="344,85 349,80 372,80 372,90 349,90 344,85 " style="fill:#15d815; stroke-width:1; stroke:black; " description="&lt;b&gt;EIH14_RS14360&lt;/b&gt;&lt;br&gt;LuxR family transcriptional regulator&lt;br&gt;Location: 3167220 - 3167930&lt;br&gt;&lt;br&gt;&lt;b&gt;BlastP hit with JCPCKFCL_02080&lt;/b&gt;&lt;br&gt;Percentage identity: 32&lt;br&gt;Percentage coverage: 92&lt;br&gt;BLAST bit score: 77&lt;br&gt;E-value: 3.78e-15" locus_tag="EIH14_RS14360" class="clusterblast-orf" id="dummy-1_h1_6_10"  />
</g>
<g id="a1_0011"  >
<polygon points="387,90 406,90 411,85 406,80 387,80 387,90 " style="fill:#1515d8; stroke-width:1; stroke:black; " description="&lt;b&gt;EIH14_RS14365&lt;/b&gt;&lt;br&gt;GNAT family N-acetyltransferase&lt;br&gt;Location: 3168328 - 3168942&lt;br&gt;&lt;br&gt;&lt;b&gt;BlastP hit with JCPCKFCL_02081&lt;/b&gt;&lt;br&gt;Percentage identity: 36&lt;br&gt;Percentage coverage: 66&lt;br&gt;BLAST bit score: 83&lt;br&gt;E-value: 1.12e-17" locus_tag="EIH14_RS14365" class="clusterblast-orf" id="dummy-1_h1_6_11"  />
</g>
<g id="a1_0012"  >
<polygon points="412,85 417,80 455,80 455,90 417,90 412,85 " style="fill:white; stroke-width:1; stroke:black; " description="&lt;b&gt;EIH14_RS14370&lt;/b&gt;&lt;br&gt;ABC transporter substrate-binding protein&lt;br&gt;Location: 3168960 - 3170057" locus_tag="EIH14_RS14370" class="clusterblast-orf" id="dummy-1_h1_6_12"  />
</g>
<g id="a1_0013"  >
<polygon points="464,90 516,90 521,85 516,80 464,80 464,90 " style="fill:white; stroke-width:1; stroke:black; " description="&lt;b&gt;EIH14_RS14375&lt;/b&gt;&lt;br&gt;oxygen-independent coproporphyrinogen III oxidase&lt;br&gt;Location: 3170291 - 3171760" locus_tag="EIH14_RS14375" class="clusterblast-orf" id="dummy-1_h1_6_13"  />
</g>
<g id="a1_0014"  >
<polygon points="520,85 525,80 584,80 584,90 525,90 520,85 " style="fill:#d81515; stroke-width:1; stroke:black; " description="&lt;b&gt;EIH14_RS14380&lt;/b&gt;&lt;br&gt;pyruvate kinase&lt;br&gt;Location: 3171742 - 3173370&lt;br&gt;&lt;br&gt;&lt;b&gt;BlastP hit with JCPCKFCL_02074&lt;/b&gt;&lt;br&gt;Percentage identity: 54&lt;br&gt;Percentage coverage: 97&lt;br&gt;BLAST bit score: 485&lt;br&gt;E-value: 2.92e-166" locus_tag="EIH14_RS14380" class="clusterblast-orf" id="dummy-1_h1_6_14"  />
</g>
<g id="a1_0015"  >
<polygon points="584,85 589,80 634,80 634,90 589,90 584,85 " style="fill:white; stroke-width:1; stroke:black; " description="&lt;b&gt;EIH14_RS14385&lt;/b&gt;&lt;br&gt;glycerate kinase&lt;br&gt;Location: 3173367 - 3174671" locus_tag="EIH14_RS14385" class="clusterblast-orf" id="dummy-1_h1_6_15"  />
</g>
<g id="a1_0016"  >
<polygon points="638,85 643,80 673,80 673,90 643,90 638,85 " style="fill:white; stroke-width:1; stroke:black; " description="&lt;b&gt;EIH14_RS14390&lt;/b&gt;&lt;br&gt;2-hydroxy-3-oxopropionate reductase&lt;br&gt;Location: 3174755 - 3175666" locus_tag="EIH14_RS14390" class="clusterblast-orf" id="dummy-1_h1_6_16"  />
</g>
<g id="a1_0017"  >
<polygon points="679,85 684,80 709,80 709,90 684,90 679,85 " style="fill:white; stroke-width:1; stroke:black; " description="&lt;b&gt;EIH14_RS14395&lt;/b&gt;&lt;br&gt;hydroxypyruvate isomerase&lt;br&gt;Location: 3175807 - 3176589" locus_tag="EIH14_RS14395" class="clusterblast-orf" id="dummy-1_h1_6_17"  />
</g>
<g id="a1_0018"  >
<polygon points="710,85 715,80 780,80 780,90 715,90 710,85 " style="fill:white; stroke-width:1; stroke:black; " description="&lt;b&gt;EIH14_RS14400&lt;/b&gt;&lt;br&gt;glyoxylate carboligase&lt;br&gt;Location: 3176624 - 3178399" locus_tag="EIH14_RS14400" class="clusterblast-orf" id="dummy-1_h1_6_18"  />
</g>
</svg>
