<svg xmlns="http://www.w3.org/2000/svg" xmlns:xlink="http://www.w3.org/1999/xlink" version="1.1" x="0" y="0" height="230" width="800" viewBox="0 0 800 230" preserveAspectRatio="none"  >
<g label="Query sequence" class="clusterblast-cluster"  >
<text x="5" y="20" class="clusterblast-acc"  >
Query sequence</text>
<line x1="10" y1="35" x2="778.0" y2="35" style="stroke-width:1; stroke:grey; "  />
<polygon points="54,40 110,40 115,35 110,30 54,30 54,40 " style="fill:white; stroke-width:1; stroke:black; " description="&lt;b&gt;JCPCKFCL_00899&lt;/b&gt;&lt;br&gt;hypothetical protein&lt;br&gt;Location: 10818 - 13107" locus_tag="JCPCKFCL_00899" class="clusterblast-orf" id="dummy-1_q0_0_all"  />
<polygon points="115,35 120,30 133,30 133,40 120,40 115,35 " style="fill:white; stroke-width:1; stroke:black; " description="&lt;b&gt;JCPCKFCL_00900&lt;/b&gt;&lt;br&gt;Futalosine hydrolase&lt;br&gt;Location: 13122 - 13785" locus_tag="JCPCKFCL_00900" class="clusterblast-orf" id="dummy-1_q1_0_all"  />
<polygon points="137,40 150,40 155,35 150,30 137,30 137,40 " style="fill:white; stroke-width:1; stroke:black; " description="&lt;b&gt;JCPCKFCL_00901&lt;/b&gt;&lt;br&gt;hypothetical protein&lt;br&gt;Location: 13940 - 14588" locus_tag="JCPCKFCL_00901" class="clusterblast-orf" id="dummy-1_q2_0_all"  />
<polygon points="161,35 166,30 174,30 174,40 166,40 161,35 " style="fill:white; stroke-width:1; stroke:black; " description="&lt;b&gt;JCPCKFCL_00902&lt;/b&gt;&lt;br&gt;30S ribosomal protein S9&lt;br&gt;Location: 14833 - 15322" locus_tag="JCPCKFCL_00902" class="clusterblast-orf" id="dummy-1_q3_0_all"  />
<polygon points="174,35 179,30 187,30 187,40 179,40 174,35 " style="fill:white; stroke-width:1; stroke:black; " description="&lt;b&gt;JCPCKFCL_00903&lt;/b&gt;&lt;br&gt;50S ribosomal protein L13&lt;br&gt;Location: 15324 - 15789" locus_tag="JCPCKFCL_00903" class="clusterblast-orf" id="dummy-1_q4_0_all"  />
<polygon points="196,40 223,40 228,35 223,30 196,30 196,40 " style="fill:white; stroke-width:1; stroke:black; " description="&lt;b&gt;JCPCKFCL_00904&lt;/b&gt;&lt;br&gt;Kynureninase&lt;br&gt;Location: 16143 - 17349" locus_tag="JCPCKFCL_00904" class="clusterblast-orf" id="dummy-1_q5_0_all"  />
<polygon points="229,40 249,40 254,35 249,30 229,30 229,40 " style="fill:white; stroke-width:1; stroke:black; " description="&lt;b&gt;JCPCKFCL_00905&lt;/b&gt;&lt;br&gt;hypothetical protein&lt;br&gt;Location: 17388 - 18312" locus_tag="JCPCKFCL_00905" class="clusterblast-orf" id="dummy-1_q6_0_all"  />
<polygon points="257,40 284,40 289,35 284,30 257,30 257,40 " style="fill:white; stroke-width:1; stroke:black; " description="&lt;b&gt;JCPCKFCL_00906&lt;/b&gt;&lt;br&gt;Aldose sugar dehydrogenase YliI&lt;br&gt;Location: 18425 - 19601" locus_tag="JCPCKFCL_00906" class="clusterblast-orf" id="dummy-1_q7_0_all"  />
<polygon points="289,35 294,30 314,30 314,40 294,40 289,35 " style="fill:#d81515; stroke-width:1; stroke:black; " description="&lt;b&gt;JCPCKFCL_00907&lt;/b&gt;&lt;br&gt;3-hydroxy-3-isohexenylglutaryl-CoA/hydroxy- methylglutaryl-CoA lyase&lt;br&gt;Location: 19634 - 20549" locus_tag="JCPCKFCL_00907" class="clusterblast-orf" id="dummy-1_q8_0_all"  />
<polygon points="315,35 320,30 369,30 369,40 320,40 315,35 " style="fill:#77d815; stroke-width:1; stroke:black; " description="&lt;b&gt;JCPCKFCL_00908&lt;/b&gt;&lt;br&gt;Acetyl-/propionyl-coenzyme A carboxylase alpha chain&lt;br&gt;Location: 20582 - 22592" locus_tag="JCPCKFCL_00908" class="clusterblast-orf" id="dummy-1_q9_0_all"  />
<polygon points="369,35 374,30 390,30 390,40 374,40 369,35 " style="fill:#15d8d8; stroke-width:1; stroke:black; " description="&lt;b&gt;JCPCKFCL_00909&lt;/b&gt;&lt;br&gt;Enoyl-CoA-hydratase&lt;br&gt;Location: 22598 - 23384" locus_tag="JCPCKFCL_00909" class="clusterblast-orf" id="dummy-1_q10_0_all"  />
<polygon points="390,35 395,30 433,30 433,40 395,40 390,35 " style="fill:#7715d8; stroke-width:1; stroke:black; " description="&lt;b&gt;JCPCKFCL_00910&lt;/b&gt;&lt;br&gt;Methylmalonyl-CoA carboxyltransferase 12S subunit&lt;br&gt;Location: 23411 - 25022" locus_tag="JCPCKFCL_00910" class="clusterblast-orf" id="dummy-1_q11_0_all"  />
<polygon points="435,35 440,30 469,30 469,40 440,40 435,35 " style="fill:#d87715; stroke-width:1; stroke:black; " description="&lt;b&gt;JCPCKFCL_00911&lt;/b&gt;&lt;br&gt;C4-dicarboxylate TRAP transporter large permease protein DctM&lt;br&gt;Location: 25079 - 26366" locus_tag="JCPCKFCL_00911" class="clusterblast-orf" id="dummy-1_q12_0_all"  />
<polygon points="472,35 477,30 499,30 499,40 477,40 472,35 " style="fill:#15d815; stroke-width:1; stroke:black; " description="&lt;b&gt;JCPCKFCL_00912&lt;/b&gt;&lt;br&gt;Solute-binding protein&lt;br&gt;Location: 26447 - 27455" locus_tag="JCPCKFCL_00912" class="clusterblast-orf" id="dummy-1_q13_0_all"  />
<polygon points="500,35 505,30 513,30 513,40 505,40 500,35 " style="fill:#1577d8; stroke-width:1; stroke:black; " description="&lt;b&gt;JCPCKFCL_00913&lt;/b&gt;&lt;br&gt;hypothetical protein&lt;br&gt;Location: 27499 - 27988" locus_tag="JCPCKFCL_00913" class="clusterblast-orf" id="dummy-1_q14_0_all"  />
<polygon points="514,35 519,30 544,30 544,40 519,40 514,35 " style="fill:#d815d8; stroke-width:1; stroke:black; " description="&lt;b&gt;JCPCKFCL_00914&lt;/b&gt;&lt;br&gt;hypothetical protein&lt;br&gt;Location: 28021 - 29167" locus_tag="JCPCKFCL_00914" class="clusterblast-orf" id="dummy-1_q15_0_all"  />
<polygon points="545,35 550,30 587,30 587,40 550,40 545,35 " style="fill:#d8d815; stroke-width:1; stroke:black; " description="&lt;b&gt;JCPCKFCL_00915&lt;/b&gt;&lt;br&gt;Acetyl-coenzyme A synthetase&lt;br&gt;Location: 29202 - 30762" locus_tag="JCPCKFCL_00915" class="clusterblast-orf" id="dummy-1_q16_0_all"  />
<polygon points="591,40 607,40 612,35 607,30 591,30 591,40 " style="fill:#15d877; stroke-width:1; stroke:black; " description="&lt;b&gt;JCPCKFCL_00916&lt;/b&gt;&lt;br&gt;putative HTH-type transcriptional regulator RhmR&lt;br&gt;Location: 30907 - 31687" locus_tag="JCPCKFCL_00916" class="clusterblast-orf" id="dummy-1_q17_0_all"  />
<polygon points="612,40 619,40 624,35 619,30 612,30 612,40 " style="fill:#1515d8; stroke-width:1; stroke:black; " description="&lt;b&gt;JCPCKFCL_00917&lt;/b&gt;&lt;br&gt;hypothetical protein&lt;br&gt;Location: 31712 - 32132" locus_tag="JCPCKFCL_00917" class="clusterblast-orf" id="dummy-1_q18_0_all"  />
<polygon points="623,40 652,40 657,35 652,30 623,30 623,40 " style="fill:#d81577; stroke-width:1; stroke:black; " description="&lt;b&gt;JCPCKFCL_00918&lt;/b&gt;&lt;br&gt;Formyl-CoA:oxalate CoA-transferase&lt;br&gt;Location: 32124 - 33390" locus_tag="JCPCKFCL_00918" class="clusterblast-orf" id="dummy-1_q19_0_all"  />
<polygon points="660,35 665,30 683,30 683,40 665,40 660,35 " style="fill:white; stroke-width:1; stroke:black; " description="&lt;b&gt;JCPCKFCL_00919&lt;/b&gt;&lt;br&gt;Phosphate import ATP-binding protein PstB 3&lt;br&gt;Location: 33501 - 34347" locus_tag="JCPCKFCL_00919" class="clusterblast-orf" id="dummy-1_q20_0_all"  />
<polygon points="683,35 688,30 726,30 726,40 688,40 683,35 " style="fill:white; stroke-width:1; stroke:black; " description="&lt;b&gt;JCPCKFCL_00920&lt;/b&gt;&lt;br&gt;hypothetical protein&lt;br&gt;Location: 34358 - 35954" locus_tag="JCPCKFCL_00920" class="clusterblast-orf" id="dummy-1_q21_0_all"  />
</g>
<g label="NZ_FORH01000003" description="NZ_FORH01000003 (348122-378356): Celeribacter neptunius strain DSM 26471, who... (48% of genes show similarity), betalactone" class="clusterblast-cluster"  >
<text x="5" y="70" class="clusterblast-acc"  >
<a xlink:href="https://antismash-db.secondarymetabolites.org/area.html?record=NZ_FORH01000003&amp;start=348122&amp;end=378356" target="_blank">NZ_FORH01000003 (348122-378356)</a>: Celeribacter neptunius strain DSM 26471, who... (48% of genes show similarity), betalactone</text>
<line x1="10" y1="85" x2="778.0" y2="85" style="stroke-width:1; stroke:grey; "  />
</g>
<g id="a1_000"  >
<polygon points="0,85 5,80 36,80 36,90 5,90 0,85 " style="fill:white; stroke-width:1; stroke:black; " description="&lt;b&gt;BM151_RS10565&lt;/b&gt;&lt;br&gt;adenylosuccinate lyase&lt;br&gt;Location: 377808 - 376441" locus_tag="BM151_RS10565" class="clusterblast-orf" id="dummy-1_h1_3_0"  />
</g>
<g id="a1_001"  >
<polygon points="37,85 42,80 46,80 46,90 42,90 37,85 " style="fill:white; stroke-width:1; stroke:black; " description="&lt;b&gt;BM151_RS10560&lt;/b&gt;&lt;br&gt;carboxymuconolactone decarboxylase family protein&lt;br&gt;Location: 376399 - 376064" locus_tag="BM151_RS10560" class="clusterblast-orf" id="dummy-1_h1_3_1"  />
</g>
<g id="a1_002"  >
<polygon points="49,90 63,90 68,85 63,80 49,80 49,90 " style="fill:white; stroke-width:1; stroke:black; " description="&lt;b&gt;BM151_RS10555&lt;/b&gt;&lt;br&gt;helix-turn-helix domain-containing protein&lt;br&gt;Location: 375963 - 375259" locus_tag="BM151_RS10555" class="clusterblast-orf" id="dummy-1_h1_3_2"  />
</g>
<g id="a1_003"  >
<polygon points="90,85 95,80 111,80 111,90 95,90 90,85 " style="fill:white; stroke-width:1; stroke:black; " description="&lt;b&gt;BM151_RS10550&lt;/b&gt;&lt;br&gt;SDR family NAD(P)-dependent oxidoreductase&lt;br&gt;Location: 374410 - 373628" locus_tag="BM151_RS10550" class="clusterblast-orf" id="dummy-1_h1_3_3"  />
</g>
<g id="a1_004"  >
<polygon points="111,85 116,80 136,80 136,90 116,90 111,85 " style="fill:white; stroke-width:1; stroke:black; " description="&lt;b&gt;BM151_RS10545&lt;/b&gt;&lt;br&gt;SDR family oxidoreductase&lt;br&gt;Location: 373631 - 372693" locus_tag="BM151_RS10545" class="clusterblast-orf" id="dummy-1_h1_3_4"  />
</g>
<g id="a1_005"  >
<polygon points="136,85 141,80 160,80 160,90 141,90 136,85 " style="fill:white; stroke-width:1; stroke:black; " description="&lt;b&gt;BM151_RS10540&lt;/b&gt;&lt;br&gt;bile acid:sodium symporter&lt;br&gt;Location: 372696 - 371794" locus_tag="BM151_RS10540" class="clusterblast-orf" id="dummy-1_h1_3_5"  />
</g>
<g id="a1_006"  >
<polygon points="160,85 165,80 195,80 195,90 165,90 160,85 " style="fill:white; stroke-width:1; stroke:black; " description="&lt;b&gt;BM151_RS10535&lt;/b&gt;&lt;br&gt;NAD(P)-binding domain-containing protein&lt;br&gt;Location: 371797 - 370478" locus_tag="BM151_RS10535" class="clusterblast-orf" id="dummy-1_h1_3_6"  />
</g>
<g id="a1_007"  >
<polygon points="197,90 210,90 215,85 210,80 197,80 197,90 " style="fill:white; stroke-width:1; stroke:black; " description="&lt;b&gt;BM151_RS10530&lt;/b&gt;&lt;br&gt;TetR family transcriptional regulator&lt;br&gt;Location: 370413 - 369748" locus_tag="BM151_RS10530" class="clusterblast-orf" id="dummy-1_h1_3_7"  />
</g>
<g id="a1_008"  >
<polygon points="231,85 236,80 252,80 252,90 236,90 231,85 " style="fill:#15d8d8; stroke-width:1; stroke:black; " description="&lt;b&gt;BM151_RS10525&lt;/b&gt;&lt;br&gt;crotonase/enoyl-CoA hydratase family protein&lt;br&gt;Location: 369155 - 368367&lt;br&gt;&lt;br&gt;&lt;b&gt;BlastP hit with JCPCKFCL_00909&lt;/b&gt;&lt;br&gt;Percentage identity: 43&lt;br&gt;Percentage coverage: 101&lt;br&gt;BLAST bit score: 166&lt;br&gt;E-value: 1.55e-48" locus_tag="BM151_RS10525" class="clusterblast-orf" id="dummy-1_h1_3_8"  />
</g>
<g id="a1_009"  >
<polygon points="252,85 257,80 275,80 275,90 257,90 252,85 " style="fill:#d81515; stroke-width:1; stroke:black; " description="&lt;b&gt;BM151_RS10520&lt;/b&gt;&lt;br&gt;hydroxymethylglutaryl-CoA lyase&lt;br&gt;Location: 368356 - 367496&lt;br&gt;&lt;br&gt;&lt;b&gt;BlastP hit with JCPCKFCL_00907&lt;/b&gt;&lt;br&gt;Percentage identity: 59&lt;br&gt;Percentage coverage: 88&lt;br&gt;BLAST bit score: 297&lt;br&gt;E-value: 7.2e-99" locus_tag="BM151_RS10520" class="clusterblast-orf" id="dummy-1_h1_3_9"  />
</g>
<g id="a1_0010"  >
<polygon points="275,85 280,80 329,80 329,90 280,90 275,85 " style="fill:#77d815; stroke-width:1; stroke:black; " description="&lt;b&gt;BM151_RS10515&lt;/b&gt;&lt;br&gt;acetyl/propionyl/methylcrotonyl-CoA carboxylase subunit alpha&lt;br&gt;Location: 367487 - 365496&lt;br&gt;&lt;br&gt;&lt;b&gt;BlastP hit with JCPCKFCL_00908&lt;/b&gt;&lt;br&gt;Percentage identity: 49&lt;br&gt;Percentage coverage: 98&lt;br&gt;BLAST bit score: 530&lt;br&gt;E-value: 1.68e-179" locus_tag="BM151_RS10515" class="clusterblast-orf" id="dummy-1_h1_3_10"  />
</g>
<g id="a1_0011"  >
<polygon points="329,85 334,80 372,80 372,90 334,90 329,85 " style="fill:#7715d8; stroke-width:1; stroke:black; " description="&lt;b&gt;BM151_RS10510&lt;/b&gt;&lt;br&gt;methylcrotonoyl-CoA carboxylase&lt;br&gt;Location: 365492 - 363885&lt;br&gt;&lt;br&gt;&lt;b&gt;BlastP hit with JCPCKFCL_00910&lt;/b&gt;&lt;br&gt;Percentage identity: 68&lt;br&gt;Percentage coverage: 100&lt;br&gt;BLAST bit score: 740&lt;br&gt;E-value: 4.49e-266" locus_tag="BM151_RS10510" class="clusterblast-orf" id="dummy-1_h1_3_11"  />
</g>
<g id="a1_0012"  >
<polygon points="374,85 379,80 409,80 409,90 379,90 374,85 " style="fill:#d87715; stroke-width:1; stroke:black; " description="&lt;b&gt;BM151_RS10505&lt;/b&gt;&lt;br&gt;TRAP transporter large permease&lt;br&gt;Location: 363791 - 362502&lt;br&gt;&lt;br&gt;&lt;b&gt;BlastP hit with JCPCKFCL_00911&lt;/b&gt;&lt;br&gt;Percentage identity: 75&lt;br&gt;Percentage coverage: 93&lt;br&gt;BLAST bit score: 538&lt;br&gt;E-value: 7.01e-190" locus_tag="BM151_RS10505" class="clusterblast-orf" id="dummy-1_h1_3_12"  />
</g>
<g id="a1_0013"  >
<polygon points="411,85 416,80 437,80 437,90 416,90 411,85 " style="fill:#15d815; stroke-width:1; stroke:black; " description="&lt;b&gt;BM151_RS10500&lt;/b&gt;&lt;br&gt;TRAP transporter substrate-binding protein DctP&lt;br&gt;Location: 362424 - 361423&lt;br&gt;&lt;br&gt;&lt;b&gt;BlastP hit with JCPCKFCL_00912&lt;/b&gt;&lt;br&gt;Percentage identity: 67&lt;br&gt;Percentage coverage: 96&lt;br&gt;BLAST bit score: 434&lt;br&gt;E-value: 7.27e-152" locus_tag="BM151_RS10500" class="clusterblast-orf" id="dummy-1_h1_3_13"  />
</g>
<g id="a1_0014"  >
<polygon points="438,85 443,80 451,80 451,90 443,90 438,85 " style="fill:#1577d8; stroke-width:1; stroke:black; " description="&lt;b&gt;BM151_RS10495&lt;/b&gt;&lt;br&gt;TRAP transporter small permease&lt;br&gt;Location: 361397 - 360909&lt;br&gt;&lt;br&gt;&lt;b&gt;BlastP hit with JCPCKFCL_00913&lt;/b&gt;&lt;br&gt;Percentage identity: 64&lt;br&gt;Percentage coverage: 94&lt;br&gt;BLAST bit score: 192&lt;br&gt;E-value: 1.69e-61" locus_tag="BM151_RS10495" class="clusterblast-orf" id="dummy-1_h1_3_14"  />
</g>
<g id="a1_0015"  >
<polygon points="453,85 458,80 483,80 483,90 458,90 453,85 " style="fill:#d815d8; stroke-width:1; stroke:black; " description="&lt;b&gt;BM151_RS10490&lt;/b&gt;&lt;br&gt;MaoC family dehydratase N-terminal domain-containing protein&lt;br&gt;Location: 360855 - 359719&lt;br&gt;&lt;br&gt;&lt;b&gt;BlastP hit with JCPCKFCL_00914&lt;/b&gt;&lt;br&gt;Percentage identity: 83&lt;br&gt;Percentage coverage: 98&lt;br&gt;BLAST bit score: 677&lt;br&gt;E-value: 2.86e-246" locus_tag="BM151_RS10490" class="clusterblast-orf" id="dummy-1_h1_3_15"  />
</g>
<g id="a1_0016"  >
<polygon points="484,85 489,80 526,80 526,90 489,90 484,85 " style="fill:#d8d815; stroke-width:1; stroke:black; " description="&lt;b&gt;BM151_RS10485&lt;/b&gt;&lt;br&gt;acyl-CoA synthetase&lt;br&gt;Location: 359682 - 358123&lt;br&gt;&lt;br&gt;&lt;b&gt;BlastP hit with JCPCKFCL_00915&lt;/b&gt;&lt;br&gt;Percentage identity: 73&lt;br&gt;Percentage coverage: 100&lt;br&gt;BLAST bit score: 774&lt;br&gt;E-value: 5.31e-280" locus_tag="BM151_RS10485" class="clusterblast-orf" id="dummy-1_h1_3_16"  />
</g>
<g id="a1_0017"  >
<polygon points="530,90 546,90 551,85 546,80 530,80 530,90 " style="fill:#15d877; stroke-width:1; stroke:black; " description="&lt;b&gt;BM151_RS10480&lt;/b&gt;&lt;br&gt;IclR family transcriptional regulator&lt;br&gt;Location: 357974 - 357189&lt;br&gt;&lt;br&gt;&lt;b&gt;BlastP hit with JCPCKFCL_00916&lt;/b&gt;&lt;br&gt;Percentage identity: 63&lt;br&gt;Percentage coverage: 95&lt;br&gt;BLAST bit score: 317&lt;br&gt;E-value: 7.45e-108" locus_tag="BM151_RS10480" class="clusterblast-orf" id="dummy-1_h1_3_17"  />
</g>
<g id="a1_0018"  >
<polygon points="552,90 557,90 562,85 557,80 552,80 552,90 " style="fill:#1515d8; stroke-width:1; stroke:black; " description="&lt;b&gt;BM151_RS10475&lt;/b&gt;&lt;br&gt;PaaI family thioesterase&lt;br&gt;Location: 357131 - 356769&lt;br&gt;&lt;br&gt;&lt;b&gt;BlastP hit with JCPCKFCL_00917&lt;/b&gt;&lt;br&gt;Percentage identity: 55&lt;br&gt;Percentage coverage: 85&lt;br&gt;BLAST bit score: 127&lt;br&gt;E-value: 4.55e-37" locus_tag="BM151_RS10475" class="clusterblast-orf" id="dummy-1_h1_3_18"  />
</g>
<g id="a1_0019"  >
<polygon points="562,90 590,90 595,85 590,80 562,80 562,90 " style="fill:#d81577; stroke-width:1; stroke:black; " description="&lt;b&gt;BM151_RS10470&lt;/b&gt;&lt;br&gt;CoA transferase&lt;br&gt;Location: 356767 - 355526&lt;br&gt;&lt;br&gt;&lt;b&gt;BlastP hit with JCPCKFCL_00918&lt;/b&gt;&lt;br&gt;Percentage identity: 66&lt;br&gt;Percentage coverage: 95&lt;br&gt;BLAST bit score: 554&lt;br&gt;E-value: 2.52e-196" locus_tag="BM151_RS10470" class="clusterblast-orf" id="dummy-1_h1_3_19"  />
</g>
<g id="a1_0020"  >
<polygon points="604,85 609,80 616,80 616,90 609,90 604,85 " style="fill:white; stroke-width:1; stroke:black; " description="&lt;b&gt;BM151_RS10460&lt;/b&gt;&lt;br&gt;transposase&lt;br&gt;Location: 355177 - 354752" locus_tag="BM151_RS10460" class="clusterblast-orf" id="dummy-1_h1_3_20"  />
</g>
<g id="a1_0021"  >
<polygon points="621,90 627,90 632,85 627,80 621,80 621,90 " style="fill:white; stroke-width:1; stroke:black; " description="&lt;b&gt;BM151_RS10450&lt;/b&gt;&lt;br&gt;hypothetical protein&lt;br&gt;Location: 354565 - 354149" locus_tag="BM151_RS10450" class="clusterblast-orf" id="dummy-1_h1_3_21"  />
</g>
<g id="a1_0022"  >
<polygon points="632,90 687,90 692,85 687,80 632,80 632,90 " style="fill:white; stroke-width:1; stroke:black; " description="&lt;b&gt;BM151_RS10445&lt;/b&gt;&lt;br&gt;regulatory protein NosR&lt;br&gt;Location: 354145 - 351908" locus_tag="BM151_RS10445" class="clusterblast-orf" id="dummy-1_h1_3_22"  />
</g>
<g id="a1_0023"  >
<polygon points="692,90 739,90 744,85 739,80 692,80 692,90 " style="fill:white; stroke-width:1; stroke:black; " description="&lt;b&gt;BM151_RS10440&lt;/b&gt;&lt;br&gt;TAT-dependent nitrous-oxide reductase&lt;br&gt;Location: 351893 - 349956" locus_tag="BM151_RS10440" class="clusterblast-orf" id="dummy-1_h1_3_23"  />
</g>
<g id="a1_0024"  >
<polygon points="744,90 775,90 780,85 775,80 744,80 744,90 " style="fill:white; stroke-width:1; stroke:black; " description="&lt;b&gt;BM151_RS10435&lt;/b&gt;&lt;br&gt;nitrous oxide reductase family maturation protein NosD&lt;br&gt;Location: 349954 - 348626" locus_tag="BM151_RS10435" class="clusterblast-orf" id="dummy-1_h1_3_24"  />
</g>
</svg>
