<svg xmlns="http://www.w3.org/2000/svg" xmlns:xlink="http://www.w3.org/1999/xlink" version="1.1" x="0" y="0" height="230" width="800" viewBox="0 0 800 230" preserveAspectRatio="none"  >
<g label="Query sequence" class="clusterblast-cluster"  >
<text x="5" y="20" class="clusterblast-acc"  >
Query sequence</text>
<line x1="10" y1="35" x2="778.0" y2="35" style="stroke-width:1; stroke:grey; "  />
<polygon points="21,40 46,40 51,35 46,30 21,30 21,40 " style="fill:white; stroke-width:1; stroke:black; " description="&lt;b&gt;JCPCKFCL_02070&lt;/b&gt;&lt;br&gt;hypothetical protein&lt;br&gt;Location: 61619 - 62393" locus_tag="JCPCKFCL_02070" class="clusterblast-orf" id="dummy-1_q0_0_all"  />
<polygon points="54,35 59,30 68,30 68,40 59,40 54,35 " style="fill:white; stroke-width:1; stroke:black; " description="&lt;b&gt;JCPCKFCL_02071&lt;/b&gt;&lt;br&gt;50S ribosomal protein L20&lt;br&gt;Location: 62477 - 62840" locus_tag="JCPCKFCL_02071" class="clusterblast-orf" id="dummy-1_q1_0_all"  />
<polygon points="69,35 74,30 77,30 77,40 74,40 69,35 " style="fill:white; stroke-width:1; stroke:black; " description="&lt;b&gt;JCPCKFCL_02072&lt;/b&gt;&lt;br&gt;50S ribosomal protein L35&lt;br&gt;Location: 62852 - 63053" locus_tag="JCPCKFCL_02072" class="clusterblast-orf" id="dummy-1_q2_0_all"  />
<polygon points="82,35 87,30 91,30 91,40 87,40 82,35 " style="fill:white; stroke-width:1; stroke:black; " description="&lt;b&gt;JCPCKFCL_02073&lt;/b&gt;&lt;br&gt;hypothetical protein&lt;br&gt;Location: 63187 - 63412" locus_tag="JCPCKFCL_02073" class="clusterblast-orf" id="dummy-1_q3_0_all"  />
<polygon points="92,35 97,30 149,30 149,40 97,40 92,35 " style="fill:#d81515; stroke-width:1; stroke:black; " description="&lt;b&gt;JCPCKFCL_02074&lt;/b&gt;&lt;br&gt;Pyruvate kinase&lt;br&gt;Location: 63452 - 64898" locus_tag="JCPCKFCL_02074" class="clusterblast-orf" id="dummy-1_q4_0_all"  />
<polygon points="155,40 163,40 168,35 163,30 155,30 155,40 " style="fill:white; stroke-width:1; stroke:black; " description="&lt;b&gt;JCPCKFCL_02075&lt;/b&gt;&lt;br&gt;hypothetical protein&lt;br&gt;Location: 65063 - 65378" locus_tag="JCPCKFCL_02075" class="clusterblast-orf" id="dummy-1_q5_0_all"  />
<polygon points="169,35 174,30 202,30 202,40 174,40 169,35 " style="fill:white; stroke-width:1; stroke:black; " description="&lt;b&gt;JCPCKFCL_02076&lt;/b&gt;&lt;br&gt;D-alanine aminotransferase&lt;br&gt;Location: 65403 - 66255" locus_tag="JCPCKFCL_02076" class="clusterblast-orf" id="dummy-1_q6_0_all"  />
<polygon points="205,35 210,30 242,30 242,40 210,40 205,35 " style="fill:white; stroke-width:1; stroke:black; " description="&lt;b&gt;JCPCKFCL_02077&lt;/b&gt;&lt;br&gt;L-Ala-D/L-Glu epimerase&lt;br&gt;Location: 66322 - 67288" locus_tag="JCPCKFCL_02077" class="clusterblast-orf" id="dummy-1_q7_0_all"  />
<polygon points="246,35 251,30 286,30 286,40 251,40 246,35 " style="fill:white; stroke-width:1; stroke:black; " description="&lt;b&gt;JCPCKFCL_02078&lt;/b&gt;&lt;br&gt;hypothetical protein&lt;br&gt;Location: 67389 - 68394" locus_tag="JCPCKFCL_02078" class="clusterblast-orf" id="dummy-1_q8_0_all"  />
<polygon points="297,40 329,40 334,35 329,30 297,30 297,40 " style="fill:white; stroke-width:1; stroke:black; " description="&lt;b&gt;JCPCKFCL_02079&lt;/b&gt;&lt;br&gt;L-malyl-CoA/beta-methylmalyl-CoA lyase&lt;br&gt;Location: 68676 - 69633" locus_tag="JCPCKFCL_02079" class="clusterblast-orf" id="dummy-1_q9_0_all"  />
<polygon points="343,40 365,40 370,35 365,30 343,30 343,40 " style="fill:#15d815; stroke-width:1; stroke:black; " description="&lt;b&gt;JCPCKFCL_02080&lt;/b&gt;&lt;br&gt;Transcriptional activator protein AnoR&lt;br&gt;Location: 69849 - 70551" locus_tag="JCPCKFCL_02080" class="clusterblast-orf" id="dummy-1_q10_0_all"  />
<polygon points="375,40 396,40 401,35 396,30 375,30 375,40 " style="fill:#1515d8; stroke-width:1; stroke:black; " description="&lt;b&gt;JCPCKFCL_02081&lt;/b&gt;&lt;br&gt;hypothetical protein&lt;br&gt;Location: 70684 - 71347" locus_tag="JCPCKFCL_02081" class="clusterblast-orf" id="dummy-1_q11_0_all"  />
<polygon points="401,40 405,40 410,35 405,30 401,30 401,40 " style="fill:white; stroke-width:1; stroke:black; " description="&lt;b&gt;JCPCKFCL_02082&lt;/b&gt;&lt;br&gt;hypothetical protein&lt;br&gt;Location: 71343 - 71580" locus_tag="JCPCKFCL_02082" class="clusterblast-orf" id="dummy-1_q12_0_all"  />
<polygon points="414,35 419,30 429,30 429,40 419,40 414,35 " style="fill:white; stroke-width:1; stroke:black; " description="&lt;b&gt;JCPCKFCL_02083&lt;/b&gt;&lt;br&gt;hypothetical protein&lt;br&gt;Location: 71680 - 72070" locus_tag="JCPCKFCL_02083" class="clusterblast-orf" id="dummy-1_q13_0_all"  />
<polygon points="435,40 456,40 461,35 456,30 435,30 435,40 " style="fill:white; stroke-width:1; stroke:black; " description="&lt;b&gt;JCPCKFCL_02084&lt;/b&gt;&lt;br&gt;Carbonic anhydrase 1&lt;br&gt;Location: 72222 - 72873" locus_tag="JCPCKFCL_02084" class="clusterblast-orf" id="dummy-1_q14_0_all"  />
<polygon points="461,35 466,30 478,30 478,40 466,40 461,35 " style="fill:white; stroke-width:1; stroke:black; " description="&lt;b&gt;JCPCKFCL_02085&lt;/b&gt;&lt;br&gt;hypothetical protein&lt;br&gt;Location: 72881 - 73310" locus_tag="JCPCKFCL_02085" class="clusterblast-orf" id="dummy-1_q15_0_all"  />
<polygon points="481,35 486,30 532,30 532,40 486,40 481,35 " style="fill:white; stroke-width:1; stroke:black; " description="&lt;b&gt;JCPCKFCL_02086&lt;/b&gt;&lt;br&gt;hypothetical protein&lt;br&gt;Location: 73387 - 74701" locus_tag="JCPCKFCL_02086" class="clusterblast-orf" id="dummy-1_q16_0_all"  />
<polygon points="552,40 595,40 600,35 595,30 552,30 552,40 " style="fill:white; stroke-width:1; stroke:black; " description="&lt;b&gt;JCPCKFCL_02087&lt;/b&gt;&lt;br&gt;hypothetical protein&lt;br&gt;Location: 75200 - 76427" locus_tag="JCPCKFCL_02087" class="clusterblast-orf" id="dummy-1_q17_0_all"  />
<polygon points="606,40 678,40 683,35 678,30 606,30 606,40 " style="fill:white; stroke-width:1; stroke:black; " description="&lt;b&gt;JCPCKFCL_02088&lt;/b&gt;&lt;br&gt;hypothetical protein&lt;br&gt;Location: 76579 - 78562" locus_tag="JCPCKFCL_02088" class="clusterblast-orf" id="dummy-1_q18_0_all"  />
<polygon points="686,35 691,30 712,30 712,40 691,40 686,35 " style="fill:white; stroke-width:1; stroke:black; " description="&lt;b&gt;JCPCKFCL_02089&lt;/b&gt;&lt;br&gt;HTH-type transcriptional regulator KipR&lt;br&gt;Location: 78626 - 79301" locus_tag="JCPCKFCL_02089" class="clusterblast-orf" id="dummy-1_q19_0_all"  />
<polygon points="717,40 754,40 759,35 754,30 717,30 717,40 " style="fill:white; stroke-width:1; stroke:black; " description="&lt;b&gt;JCPCKFCL_02090&lt;/b&gt;&lt;br&gt;Homoisocitrate dehydrogenase&lt;br&gt;Location: 79425 - 80496" locus_tag="JCPCKFCL_02090" class="clusterblast-orf" id="dummy-1_q20_0_all"  />
</g>
<g label="NZ_CDRJ01000001" description="NZ_CDRJ01000001 (569559-590174): Ralstonia solanacearum strain CFBP7014, whol... (17% of genes show similarity), hserlactone" class="clusterblast-cluster"  >
<text x="5" y="70" class="clusterblast-acc"  >
<a xlink:href="https://antismash-db.secondarymetabolites.org/area.html?record=NZ_CDRJ01000001&amp;start=569559&amp;end=590174" target="_blank">NZ_CDRJ01000001 (569559-590174)</a>: Ralstonia solanacearum strain CFBP7014, whol... (17% of genes show similarity), hserlactone</text>
<line x1="10" y1="85" x2="778.0" y2="85" style="stroke-width:1; stroke:grey; "  />
</g>
<g id="a1_000"  >
<polygon points="0,85 5,80 44,80 44,90 5,90 0,85 " style="fill:white; stroke-width:1; stroke:black; " description="&lt;b&gt;AQR27_RS02575&lt;/b&gt;&lt;br&gt;glycine cleavage system aminomethyltransferase GcvT&lt;br&gt;Location: 569698 - 570825" locus_tag="AQR27_RS02575" class="clusterblast-orf" id="dummy-1_h1_4_0"  />
</g>
<g id="a1_001"  >
<polygon points="76,90 111,90 116,85 111,80 76,80 76,90 " style="fill:white; stroke-width:1; stroke:black; " description="&lt;b&gt;AQR27_RS02580&lt;/b&gt;&lt;br&gt;acyltransferase family protein&lt;br&gt;Location: 571661 - 572671" locus_tag="AQR27_RS02580" class="clusterblast-orf" id="dummy-1_h1_4_1"  />
</g>
<g id="a1_002"  >
<polygon points="122,85 127,80 134,80 134,90 127,90 122,85 " style="fill:white; stroke-width:1; stroke:black; " description="&lt;b&gt;AQR27_RS02585&lt;/b&gt;&lt;br&gt;hypothetical protein&lt;br&gt;Location: 572820 - 573146" locus_tag="AQR27_RS02585" class="clusterblast-orf" id="dummy-1_h1_4_2"  />
</g>
<g id="a1_003"  >
<polygon points="141,85 146,80 166,80 166,90 146,90 141,85 " style="fill:white; stroke-width:1; stroke:black; " description="&lt;b&gt;AQR27_RS02590&lt;/b&gt;&lt;br&gt;hypothetical protein&lt;br&gt;Location: 573307 - 573963" locus_tag="AQR27_RS02590" class="clusterblast-orf" id="dummy-1_h1_4_3"  />
</g>
<g id="a1_004"  >
<polygon points="176,90 254,90 259,85 254,80 176,80 176,90 " style="fill:white; stroke-width:1; stroke:black; " description="&lt;b&gt;AQR27_RS02595&lt;/b&gt;&lt;br&gt;UvrD-helicase domain-containing protein&lt;br&gt;Location: 574210 - 576327" locus_tag="AQR27_RS02595" class="clusterblast-orf" id="dummy-1_h1_4_4"  />
</g>
<g id="a1_005"  >
<polygon points="278,90 287,90 292,85 287,80 278,80 278,90 " style="fill:white; stroke-width:1; stroke:black; " description="&lt;b&gt;AQR27_RS02600&lt;/b&gt;&lt;br&gt;sugar-binding lectin protein&lt;br&gt;Location: 576825 - 577169" locus_tag="AQR27_RS02600" class="clusterblast-orf" id="dummy-1_h1_4_5"  />
</g>
<g id="a1_006"  >
<polygon points="296,90 311,90 316,85 311,80 296,80 296,90 " style="fill:white; stroke-width:1; stroke:black; " description="&lt;b&gt;AQR27_RS02605&lt;/b&gt;&lt;br&gt;hypothetical protein&lt;br&gt;Location: 577276 - 577779" locus_tag="AQR27_RS02605" class="clusterblast-orf" id="dummy-1_h1_4_6"  />
</g>
<g id="a1_007"  >
<polygon points="320,90 336,90 341,85 336,80 320,80 320,90 " style="fill:white; stroke-width:1; stroke:black; " description="&lt;b&gt;AQR27_RS02610&lt;/b&gt;&lt;br&gt;hypothetical protein&lt;br&gt;Location: 577888 - 578427" locus_tag="AQR27_RS02610" class="clusterblast-orf" id="dummy-1_h1_4_7"  />
</g>
<g id="a1_008"  >
<polygon points="342,85 347,80 370,80 370,90 347,90 342,85 " style="fill:#15d815; stroke-width:1; stroke:black; " description="&lt;b&gt;AQR27_RS02615&lt;/b&gt;&lt;br&gt;LuxR family transcriptional regulator&lt;br&gt;Location: 578452 - 579162&lt;br&gt;&lt;br&gt;&lt;b&gt;BlastP hit with JCPCKFCL_02080&lt;/b&gt;&lt;br&gt;Percentage identity: 31&lt;br&gt;Percentage coverage: 92&lt;br&gt;BLAST bit score: 76&lt;br&gt;E-value: 1.93e-14" locus_tag="AQR27_RS02615" class="clusterblast-orf" id="dummy-1_h1_4_8"  />
</g>
<g id="a1_009"  >
<polygon points="385,90 404,90 409,85 404,80 385,80 385,90 " style="fill:#1515d8; stroke-width:1; stroke:black; " description="&lt;b&gt;AQR27_RS02620&lt;/b&gt;&lt;br&gt;GNAT family N-acetyltransferase&lt;br&gt;Location: 579560 - 580174&lt;br&gt;&lt;br&gt;&lt;b&gt;BlastP hit with JCPCKFCL_02081&lt;/b&gt;&lt;br&gt;Percentage identity: 36&lt;br&gt;Percentage coverage: 66&lt;br&gt;BLAST bit score: 83&lt;br&gt;E-value: 1.56e-17" locus_tag="AQR27_RS02620" class="clusterblast-orf" id="dummy-1_h1_4_9"  />
</g>
<g id="a1_0010"  >
<polygon points="410,85 415,80 453,80 453,90 415,90 410,85 " style="fill:white; stroke-width:1; stroke:black; " description="&lt;b&gt;AQR27_RS02625&lt;/b&gt;&lt;br&gt;ABC transporter substrate-binding protein&lt;br&gt;Location: 580192 - 581293" locus_tag="AQR27_RS02625" class="clusterblast-orf" id="dummy-1_h1_4_10"  />
</g>
<g id="a1_0011"  >
<polygon points="462,90 515,90 520,85 515,80 462,80 462,90 " style="fill:white; stroke-width:1; stroke:black; " description="&lt;b&gt;AQR27_RS02630&lt;/b&gt;&lt;br&gt;oxygen-independent coproporphyrinogen III oxidase&lt;br&gt;Location: 581527 - 582996" locus_tag="AQR27_RS02630" class="clusterblast-orf" id="dummy-1_h1_4_11"  />
</g>
<g id="a1_0012"  >
<polygon points="523,85 528,80 578,80 578,90 528,90 523,85 " style="fill:#d81515; stroke-width:1; stroke:black; " description="&lt;b&gt;AQR27_RS02635&lt;/b&gt;&lt;br&gt;pyruvate kinase&lt;br&gt;Location: 583077 - 584498&lt;br&gt;&lt;br&gt;&lt;b&gt;BlastP hit with JCPCKFCL_02074&lt;/b&gt;&lt;br&gt;Percentage identity: 54&lt;br&gt;Percentage coverage: 97&lt;br&gt;BLAST bit score: 486&lt;br&gt;E-value: 7.32e-168" locus_tag="AQR27_RS02635" class="clusterblast-orf" id="dummy-1_h1_4_12"  />
</g>
<g id="a1_0013"  >
<polygon points="583,85 588,80 634,80 634,90 588,90 583,85 " style="fill:white; stroke-width:1; stroke:black; " description="&lt;b&gt;AQR27_RS02640&lt;/b&gt;&lt;br&gt;glycerate kinase&lt;br&gt;Location: 584605 - 585909" locus_tag="AQR27_RS02640" class="clusterblast-orf" id="dummy-1_h1_4_13"  />
</g>
<g id="a1_0014"  >
<polygon points="637,85 642,80 673,80 673,90 642,90 637,85 " style="fill:white; stroke-width:1; stroke:black; " description="&lt;b&gt;AQR27_RS02645&lt;/b&gt;&lt;br&gt;2-hydroxy-3-oxopropionate reductase&lt;br&gt;Location: 585993 - 586904" locus_tag="AQR27_RS02645" class="clusterblast-orf" id="dummy-1_h1_4_14"  />
</g>
<g id="a1_0015"  >
<polygon points="678,85 683,80 709,80 709,90 683,90 678,85 " style="fill:white; stroke-width:1; stroke:black; " description="&lt;b&gt;AQR27_RS02650&lt;/b&gt;&lt;br&gt;hydroxypyruvate isomerase&lt;br&gt;Location: 587045 - 587827" locus_tag="AQR27_RS02650" class="clusterblast-orf" id="dummy-1_h1_4_15"  />
</g>
<g id="a1_0016"  >
<polygon points="710,85 715,80 780,80 780,90 715,90 710,85 " style="fill:white; stroke-width:1; stroke:black; " description="&lt;b&gt;AQR27_RS02655&lt;/b&gt;&lt;br&gt;glyoxylate carboligase&lt;br&gt;Location: 587862 - 589637" locus_tag="AQR27_RS02655" class="clusterblast-orf" id="dummy-1_h1_4_16"  />
</g>
</svg>
