<svg xmlns="http://www.w3.org/2000/svg" xmlns:xlink="http://www.w3.org/1999/xlink" version="1.1" x="0" y="0" height="230" width="800" viewBox="0 0 800 230" preserveAspectRatio="none"  >
<g label="Query sequence" class="clusterblast-cluster"  >
<text x="5" y="20" class="clusterblast-acc"  >
Query sequence</text>
<line x1="10" y1="35" x2="778.0" y2="35" style="stroke-width:1; stroke:grey; "  />
<polygon points="0,40 66,40 71,35 66,30 0,30 0,40 " style="fill:white; stroke-width:1; stroke:black; " description="&lt;b&gt;JCPCKFCL_00899&lt;/b&gt;&lt;br&gt;hypothetical protein&lt;br&gt;Location: 10818 - 13107" locus_tag="JCPCKFCL_00899" class="clusterblast-orf" id="dummy-1_q0_0_all"  />
<polygon points="71,35 76,30 92,30 92,40 76,40 71,35 " style="fill:white; stroke-width:1; stroke:black; " description="&lt;b&gt;JCPCKFCL_00900&lt;/b&gt;&lt;br&gt;Futalosine hydrolase&lt;br&gt;Location: 13122 - 13785" locus_tag="JCPCKFCL_00900" class="clusterblast-orf" id="dummy-1_q1_0_all"  />
<polygon points="97,40 112,40 117,35 112,30 97,30 97,40 " style="fill:white; stroke-width:1; stroke:black; " description="&lt;b&gt;JCPCKFCL_00901&lt;/b&gt;&lt;br&gt;hypothetical protein&lt;br&gt;Location: 13940 - 14588" locus_tag="JCPCKFCL_00901" class="clusterblast-orf" id="dummy-1_q2_0_all"  />
<polygon points="124,35 129,30 140,30 140,40 129,40 124,35 " style="fill:white; stroke-width:1; stroke:black; " description="&lt;b&gt;JCPCKFCL_00902&lt;/b&gt;&lt;br&gt;30S ribosomal protein S9&lt;br&gt;Location: 14833 - 15322" locus_tag="JCPCKFCL_00902" class="clusterblast-orf" id="dummy-1_q3_0_all"  />
<polygon points="140,35 145,30 154,30 154,40 145,40 140,35 " style="fill:white; stroke-width:1; stroke:black; " description="&lt;b&gt;JCPCKFCL_00903&lt;/b&gt;&lt;br&gt;50S ribosomal protein L13&lt;br&gt;Location: 15324 - 15789" locus_tag="JCPCKFCL_00903" class="clusterblast-orf" id="dummy-1_q4_0_all"  />
<polygon points="165,40 197,40 202,35 197,30 165,30 165,40 " style="fill:white; stroke-width:1; stroke:black; " description="&lt;b&gt;JCPCKFCL_00904&lt;/b&gt;&lt;br&gt;Kynureninase&lt;br&gt;Location: 16143 - 17349" locus_tag="JCPCKFCL_00904" class="clusterblast-orf" id="dummy-1_q5_0_all"  />
<polygon points="204,40 227,40 232,35 227,30 204,30 204,40 " style="fill:white; stroke-width:1; stroke:black; " description="&lt;b&gt;JCPCKFCL_00905&lt;/b&gt;&lt;br&gt;hypothetical protein&lt;br&gt;Location: 17388 - 18312" locus_tag="JCPCKFCL_00905" class="clusterblast-orf" id="dummy-1_q6_0_all"  />
<polygon points="236,40 267,40 272,35 267,30 236,30 236,40 " style="fill:white; stroke-width:1; stroke:black; " description="&lt;b&gt;JCPCKFCL_00906&lt;/b&gt;&lt;br&gt;Aldose sugar dehydrogenase YliI&lt;br&gt;Location: 18425 - 19601" locus_tag="JCPCKFCL_00906" class="clusterblast-orf" id="dummy-1_q7_0_all"  />
<polygon points="273,35 278,30 302,30 302,40 278,40 273,35 " style="fill:white; stroke-width:1; stroke:black; " description="&lt;b&gt;JCPCKFCL_00907&lt;/b&gt;&lt;br&gt;3-hydroxy-3-isohexenylglutaryl-CoA/hydroxy- methylglutaryl-CoA lyase&lt;br&gt;Location: 19634 - 20549" locus_tag="JCPCKFCL_00907" class="clusterblast-orf" id="dummy-1_q8_0_all"  />
<polygon points="303,35 308,30 365,30 365,40 308,40 303,35 " style="fill:#d81515; stroke-width:1; stroke:black; " description="&lt;b&gt;JCPCKFCL_00908&lt;/b&gt;&lt;br&gt;Acetyl-/propionyl-coenzyme A carboxylase alpha chain&lt;br&gt;Location: 20582 - 22592" locus_tag="JCPCKFCL_00908" class="clusterblast-orf" id="dummy-1_q9_0_all"  />
<polygon points="365,35 370,30 390,30 390,40 370,40 365,35 " style="fill:white; stroke-width:1; stroke:black; " description="&lt;b&gt;JCPCKFCL_00909&lt;/b&gt;&lt;br&gt;Enoyl-CoA-hydratase&lt;br&gt;Location: 22598 - 23384" locus_tag="JCPCKFCL_00909" class="clusterblast-orf" id="dummy-1_q10_0_all"  />
<polygon points="391,35 396,30 441,30 441,40 396,40 391,35 " style="fill:#15d8d8; stroke-width:1; stroke:black; " description="&lt;b&gt;JCPCKFCL_00910&lt;/b&gt;&lt;br&gt;Methylmalonyl-CoA carboxyltransferase 12S subunit&lt;br&gt;Location: 23411 - 25022" locus_tag="JCPCKFCL_00910" class="clusterblast-orf" id="dummy-1_q11_0_all"  />
<polygon points="442,35 447,30 482,30 482,40 447,40 442,35 " style="fill:white; stroke-width:1; stroke:black; " description="&lt;b&gt;JCPCKFCL_00911&lt;/b&gt;&lt;br&gt;C4-dicarboxylate TRAP transporter large permease protein DctM&lt;br&gt;Location: 25079 - 26366" locus_tag="JCPCKFCL_00911" class="clusterblast-orf" id="dummy-1_q12_0_all"  />
<polygon points="485,35 490,30 516,30 516,40 490,40 485,35 " style="fill:white; stroke-width:1; stroke:black; " description="&lt;b&gt;JCPCKFCL_00912&lt;/b&gt;&lt;br&gt;Solute-binding protein&lt;br&gt;Location: 26447 - 27455" locus_tag="JCPCKFCL_00912" class="clusterblast-orf" id="dummy-1_q13_0_all"  />
<polygon points="517,35 522,30 533,30 533,40 522,40 517,35 " style="fill:white; stroke-width:1; stroke:black; " description="&lt;b&gt;JCPCKFCL_00913&lt;/b&gt;&lt;br&gt;hypothetical protein&lt;br&gt;Location: 27499 - 27988" locus_tag="JCPCKFCL_00913" class="clusterblast-orf" id="dummy-1_q14_0_all"  />
<polygon points="534,35 539,30 569,30 569,40 539,40 534,35 " style="fill:white; stroke-width:1; stroke:black; " description="&lt;b&gt;JCPCKFCL_00914&lt;/b&gt;&lt;br&gt;hypothetical protein&lt;br&gt;Location: 28021 - 29167" locus_tag="JCPCKFCL_00914" class="clusterblast-orf" id="dummy-1_q15_0_all"  />
<polygon points="570,35 575,30 619,30 619,40 575,40 570,35 " style="fill:white; stroke-width:1; stroke:black; " description="&lt;b&gt;JCPCKFCL_00915&lt;/b&gt;&lt;br&gt;Acetyl-coenzyme A synthetase&lt;br&gt;Location: 29202 - 30762" locus_tag="JCPCKFCL_00915" class="clusterblast-orf" id="dummy-1_q16_0_all"  />
<polygon points="623,40 642,40 647,35 642,30 623,30 623,40 " style="fill:white; stroke-width:1; stroke:black; " description="&lt;b&gt;JCPCKFCL_00916&lt;/b&gt;&lt;br&gt;putative HTH-type transcriptional regulator RhmR&lt;br&gt;Location: 30907 - 31687" locus_tag="JCPCKFCL_00916" class="clusterblast-orf" id="dummy-1_q17_0_all"  />
<polygon points="648,40 656,40 661,35 656,30 648,30 648,40 " style="fill:white; stroke-width:1; stroke:black; " description="&lt;b&gt;JCPCKFCL_00917&lt;/b&gt;&lt;br&gt;hypothetical protein&lt;br&gt;Location: 31712 - 32132" locus_tag="JCPCKFCL_00917" class="clusterblast-orf" id="dummy-1_q18_0_all"  />
<polygon points="661,40 695,40 700,35 695,30 661,30 661,40 " style="fill:white; stroke-width:1; stroke:black; " description="&lt;b&gt;JCPCKFCL_00918&lt;/b&gt;&lt;br&gt;Formyl-CoA:oxalate CoA-transferase&lt;br&gt;Location: 32124 - 33390" locus_tag="JCPCKFCL_00918" class="clusterblast-orf" id="dummy-1_q19_0_all"  />
<polygon points="704,35 709,30 730,30 730,40 709,40 704,35 " style="fill:white; stroke-width:1; stroke:black; " description="&lt;b&gt;JCPCKFCL_00919&lt;/b&gt;&lt;br&gt;Phosphate import ATP-binding protein PstB 3&lt;br&gt;Location: 33501 - 34347" locus_tag="JCPCKFCL_00919" class="clusterblast-orf" id="dummy-1_q20_0_all"  />
<polygon points="730,35 735,30 780,30 780,40 735,40 730,35 " style="fill:white; stroke-width:1; stroke:black; " description="&lt;b&gt;JCPCKFCL_00920&lt;/b&gt;&lt;br&gt;hypothetical protein&lt;br&gt;Location: 34358 - 35954" locus_tag="JCPCKFCL_00920" class="clusterblast-orf" id="dummy-1_q21_0_all"  />
</g>
<g label="BGC0002284" description="BGC0002284_c1: corynecin III/corynecin I/corynecin II (13% of genes show similarity), Other" class="clusterblast-cluster"  >
<text x="5" y="70" class="clusterblast-acc"  >
<a xlink:href="https://mibig.secondarymetabolites.org/go/BGC0002284/1" target="_blank">BGC0002284</a>: corynecin III/corynecin I/corynecin II                                           (13% of genes show similarity), Other</text>
<line x1="10" y1="85" x2="778.0" y2="85" style="stroke-width:1; stroke:grey; "  />
</g>
<g id="a1_000"  >
<polygon points="112,85 117,80 131,80 131,90 117,90 112,85 " style="fill:white; stroke-width:1; stroke:black; " description="&lt;b&gt;CPI83_19995&lt;/b&gt;&lt;br&gt;succinyl-CoA--3-ketoacid-CoA transferase&lt;br&gt;Location: 1 - 627" locus_tag="CPI83_19995" class="clusterblast-orf" id="dummy-1_h1_1_0"  />
</g>
<g id="a1_001"  >
<polygon points="132,85 137,80 155,80 155,90 137,90 132,85 " style="fill:white; stroke-width:1; stroke:black; " description="&lt;b&gt;CPI83_20000&lt;/b&gt;&lt;br&gt;CoA transferase subunit A&lt;br&gt;Location: 648 - 1403" locus_tag="CPI83_20000" class="clusterblast-orf" id="dummy-1_h1_1_1"  />
</g>
<g id="a1_002"  >
<polygon points="155,85 160,80 181,80 181,90 160,90 155,85 " style="fill:white; stroke-width:1; stroke:black; " description="&lt;b&gt;CPI83_20005&lt;/b&gt;&lt;br&gt;CoA ester lyase&lt;br&gt;Location: 1407 - 2234" locus_tag="CPI83_20005" class="clusterblast-orf" id="dummy-1_h1_1_2"  />
</g>
<g id="a1_003"  >
<polygon points="181,85 186,80 196,80 196,90 186,90 181,85 " style="fill:white; stroke-width:1; stroke:black; " description="&lt;b&gt;CPI83_20010&lt;/b&gt;&lt;br&gt;dehydratase&lt;br&gt;Location: 2231 - 2719" locus_tag="CPI83_20010" class="clusterblast-orf" id="dummy-1_h1_1_3"  />
</g>
<g id="a1_004"  >
<polygon points="196,85 201,80 232,80 232,90 201,90 196,85 " style="fill:white; stroke-width:1; stroke:black; " description="&lt;b&gt;CPI83_20015&lt;/b&gt;&lt;br&gt;acyl-CoA dehydrogenase&lt;br&gt;Location: 2716 - 3879" locus_tag="CPI83_20015" class="clusterblast-orf" id="dummy-1_h1_1_4"  />
</g>
<g id="a1_005"  >
<polygon points="232,85 237,80 295,80 295,90 237,90 232,85 " style="fill:#d81515; stroke-width:1; stroke:black; " description="&lt;b&gt;CPI83_20020&lt;/b&gt;&lt;br&gt;acetyl/propionyl/methylcrotonyl-CoA carboxylase subunit alpha&lt;br&gt;Location: 3879 - 5918&lt;br&gt;&lt;br&gt;&lt;b&gt;BlastP hit with JCPCKFCL_00908&lt;/b&gt;&lt;br&gt;Percentage identity: 48&lt;br&gt;Percentage coverage: 95&lt;br&gt;BLAST bit score: 521&lt;br&gt;E-value: 3.18e-177" locus_tag="CPI83_20020" class="clusterblast-orf" id="dummy-1_h1_1_5"  />
</g>
<g id="a1_006"  >
<polygon points="296,85 301,80 345,80 345,90 301,90 296,85 " style="fill:#15d8d8; stroke-width:1; stroke:black; " description="&lt;b&gt;CPI83_20025&lt;/b&gt;&lt;br&gt;methylcrotonoyl-CoA carboxylase&lt;br&gt;Location: 5924 - 7513&lt;br&gt;&lt;br&gt;&lt;b&gt;BlastP hit with JCPCKFCL_00910&lt;/b&gt;&lt;br&gt;Percentage identity: 70&lt;br&gt;Percentage coverage: 97&lt;br&gt;BLAST bit score: 751&lt;br&gt;E-value: 3.89e-272" locus_tag="CPI83_20025" class="clusterblast-orf" id="dummy-1_h1_1_6"  />
</g>
<g id="a1_007"  >
<polygon points="348,90 362,90 367,85 362,80 348,80 348,90 " style="fill:white; stroke-width:1; stroke:black; " description="&lt;b&gt;CPI83_20030&lt;/b&gt;&lt;br&gt;TetR/AcrR family transcriptional regulator&lt;br&gt;Location: 7612 - 8211" locus_tag="CPI83_20030" class="clusterblast-orf" id="dummy-1_h1_1_7"  />
</g>
<g id="a1_008"  >
<polygon points="368,90 386,90 391,85 386,80 368,80 368,90 " style="fill:white; stroke-width:1; stroke:black; " description="&lt;b&gt;CPI83_20035&lt;/b&gt;&lt;br&gt;GTP pyrophosphokinase&lt;br&gt;Location: 8260 - 9006" locus_tag="CPI83_20035" class="clusterblast-orf" id="dummy-1_h1_1_8"  />
</g>
<g id="a1_009"  >
<polygon points="396,85 401,80 404,80 404,90 401,90 396,85 " style="fill:white; stroke-width:1; stroke:black; " description="&lt;b&gt;CPI83_20040&lt;/b&gt;&lt;br&gt;GlsB/YeaQ/YmgE family stress response membrane protein&lt;br&gt;Location: 9164 - 9424" locus_tag="CPI83_20040" class="clusterblast-orf" id="dummy-1_h1_1_9"  />
</g>
<g id="a1_0010"  >
<polygon points="410,90 449,90 454,85 449,80 410,80 410,90 " style="fill:white; stroke-width:1; stroke:black; " description="&lt;b&gt;CPI83_20045&lt;/b&gt;&lt;br&gt;C4-dicarboxylate transporter DctA&lt;br&gt;Location: 9613 - 11019" locus_tag="CPI83_20045" class="clusterblast-orf" id="dummy-1_h1_1_10"  />
</g>
<g id="a1_0011"  >
<polygon points="453,85 458,80 495,80 495,90 458,90 453,85 " style="fill:white; stroke-width:1; stroke:black; " description="&lt;b&gt;CPI83_20050&lt;/b&gt;&lt;br&gt;hypothetical protein&lt;br&gt;Location: 10997 - 12361" locus_tag="CPI83_20050" class="clusterblast-orf" id="dummy-1_h1_1_11"  />
</g>
<g id="a1_0012"  >
<polygon points="495,85 500,80 540,80 540,90 500,90 495,85 " style="fill:white; stroke-width:1; stroke:black; " description="&lt;b&gt;CPI83_20055&lt;/b&gt;&lt;br&gt;hypothetical protein&lt;br&gt;Location: 12358 - 13797" locus_tag="CPI83_20055" class="clusterblast-orf" id="dummy-1_h1_1_12"  />
</g>
<g id="a1_0013"  >
<polygon points="546,85 551,80 615,80 615,90 551,90 546,85 " style="fill:white; stroke-width:1; stroke:black; " description="&lt;b&gt;CPI83_20060&lt;/b&gt;&lt;br&gt;MMPL family transporter&lt;br&gt;Location: 13981 - 16227" locus_tag="CPI83_20060" class="clusterblast-orf" id="dummy-1_h1_1_13"  />
</g>
<g id="a1_0014"  >
<polygon points="622,90 662,90 667,85 662,80 622,80 622,90 " style="fill:white; stroke-width:1; stroke:black; " description="&lt;b&gt;CPI83_20065&lt;/b&gt;&lt;br&gt;hypothetical protein&lt;br&gt;Location: 16452 - 17900" locus_tag="CPI83_20065" class="clusterblast-orf" id="dummy-1_h1_1_14"  />
</g>
</svg>
