<svg xmlns="http://www.w3.org/2000/svg" xmlns:xlink="http://www.w3.org/1999/xlink" version="1.1" x="0" y="0" height="230" width="800" viewBox="0 0 800 230" preserveAspectRatio="none"  >
<g label="Query sequence" class="clusterblast-cluster"  >
<text x="5" y="20" class="clusterblast-acc"  >
Query sequence</text>
<line x1="10" y1="35" x2="778.0" y2="35" style="stroke-width:1; stroke:grey; "  />
<polygon points="135,40 157,40 162,35 157,30 135,30 135,40 " style="fill:white; stroke-width:1; stroke:black; " description="&lt;b&gt;MMFACILD_04180&lt;/b&gt;&lt;br&gt;DNA mismatch repair protein MutS&lt;br&gt;Location: 3827 - 6479" locus_tag="MMFACILD_04180" class="clusterblast-orf" id="dummy-1_q0_0_all"  />
<polygon points="163,35 168,30 168,30 168,40 168,40 163,35 " style="fill:white; stroke-width:1; stroke:black; " description="&lt;b&gt;MMFACILD_04181&lt;/b&gt;&lt;br&gt;Protein GrpE&lt;br&gt;Location: 6610 - 7156" locus_tag="MMFACILD_04181" class="clusterblast-orf" id="dummy-1_q1_0_all"  />
<polygon points="169,35 174,30 179,30 179,40 174,40 169,35 " style="fill:white; stroke-width:1; stroke:black; " description="&lt;b&gt;MMFACILD_04182&lt;/b&gt;&lt;br&gt;Heat-inducible transcription repressor HrcA&lt;br&gt;Location: 7168 - 8236" locus_tag="MMFACILD_04182" class="clusterblast-orf" id="dummy-1_q2_0_all"  />
<polygon points="181,40 183,40 188,35 183,30 181,30 181,40 " style="fill:white; stroke-width:1; stroke:black; " description="&lt;b&gt;MMFACILD_04183&lt;/b&gt;&lt;br&gt;Ribonuclease PH&lt;br&gt;Location: 8341 - 9052" locus_tag="MMFACILD_04183" class="clusterblast-orf" id="dummy-1_q3_0_all"  />
<polygon points="188,40 189,40 194,35 189,30 188,30 188,40 " style="fill:white; stroke-width:1; stroke:black; " description="&lt;b&gt;MMFACILD_04184&lt;/b&gt;&lt;br&gt;dITP/XTP pyrophosphatase&lt;br&gt;Location: 9048 - 9651" locus_tag="MMFACILD_04184" class="clusterblast-orf" id="dummy-1_q4_0_all"  />
<polygon points="194,40 201,40 206,35 201,30 194,30 194,40 " style="fill:white; stroke-width:1; stroke:black; " description="&lt;b&gt;MMFACILD_04185&lt;/b&gt;&lt;br&gt;Heme chaperone HemW&lt;br&gt;Location: 9647 - 10811" locus_tag="MMFACILD_04185" class="clusterblast-orf" id="dummy-1_q5_0_all"  />
<polygon points="206,35 211,30 215,30 215,40 211,40 206,35 " style="fill:white; stroke-width:1; stroke:black; " description="&lt;b&gt;MMFACILD_04186&lt;/b&gt;&lt;br&gt;Chromosome-partitioning protein ParB&lt;br&gt;Location: 10814 - 11717" locus_tag="MMFACILD_04186" class="clusterblast-orf" id="dummy-1_q6_0_all"  />
<polygon points="215,35 220,30 223,30 223,40 220,40 215,35 " style="fill:white; stroke-width:1; stroke:black; " description="&lt;b&gt;MMFACILD_04187&lt;/b&gt;&lt;br&gt;Chromosome partitioning protein ParA&lt;br&gt;Location: 11718 - 12507" locus_tag="MMFACILD_04187" class="clusterblast-orf" id="dummy-1_q7_0_all"  />
<polygon points="223,35 228,30 229,30 229,40 228,40 223,35 " style="fill:white; stroke-width:1; stroke:black; " description="&lt;b&gt;MMFACILD_04188&lt;/b&gt;&lt;br&gt;Ribosomal RNA small subunit methyltransferase G&lt;br&gt;Location: 12503 - 13145" locus_tag="MMFACILD_04188" class="clusterblast-orf" id="dummy-1_q8_0_all"  />
<polygon points="229,35 234,30 248,30 248,40 234,40 229,35 " style="fill:white; stroke-width:1; stroke:black; " description="&lt;b&gt;MMFACILD_04189&lt;/b&gt;&lt;br&gt;tRNA uridine 5-carboxymethylaminomethyl modification enzyme MnmG&lt;br&gt;Location: 13128 - 15000" locus_tag="MMFACILD_04189" class="clusterblast-orf" id="dummy-1_q9_0_all"  />
<polygon points="248,35 253,30 261,30 261,40 253,40 248,35 " style="fill:white; stroke-width:1; stroke:black; " description="&lt;b&gt;MMFACILD_04190&lt;/b&gt;&lt;br&gt;tRNA modification GTPase MnmE&lt;br&gt;Location: 15012 - 16290" locus_tag="MMFACILD_04190" class="clusterblast-orf" id="dummy-1_q10_0_all"  />
<polygon points="261,35 266,30 274,30 274,40 266,40 261,35 " style="fill:white; stroke-width:1; stroke:black; " description="&lt;b&gt;MMFACILD_04191&lt;/b&gt;&lt;br&gt;Transcription termination factor Rho&lt;br&gt;Location: 16300 - 17572" locus_tag="MMFACILD_04191" class="clusterblast-orf" id="dummy-1_q11_0_all"  />
<polygon points="279,40 280,40 285,35 280,30 279,30 279,40 " style="fill:white; stroke-width:1; stroke:black; " description="&lt;b&gt;MMFACILD_04192&lt;/b&gt;&lt;br&gt;7-methyl-GTP pyrophosphatase&lt;br&gt;Location: 18076 - 18673" locus_tag="MMFACILD_04192" class="clusterblast-orf" id="dummy-1_q12_0_all"  />
<polygon points="285,40 289,40 294,35 289,30 285,30 285,40 " style="fill:white; stroke-width:1; stroke:black; " description="&lt;b&gt;MMFACILD_04193&lt;/b&gt;&lt;br&gt;Shikimate dehydrogenase (NADP(+))&lt;br&gt;Location: 18669 - 19491" locus_tag="MMFACILD_04193" class="clusterblast-orf" id="dummy-1_q13_0_all"  />
<polygon points="294,40 295,40 300,35 295,30 294,30 294,40 " style="fill:white; stroke-width:1; stroke:black; " description="&lt;b&gt;MMFACILD_04194&lt;/b&gt;&lt;br&gt;Dephospho-CoA kinase&lt;br&gt;Location: 19487 - 20084" locus_tag="MMFACILD_04194" class="clusterblast-orf" id="dummy-1_q14_0_all"  />
<polygon points="300,40 302,40 307,35 302,30 300,30 300,40 " style="fill:white; stroke-width:1; stroke:black; " description="&lt;b&gt;MMFACILD_04195&lt;/b&gt;&lt;br&gt;DNA polymerase III subunit epsilon&lt;br&gt;Location: 20076 - 20769" locus_tag="MMFACILD_04195" class="clusterblast-orf" id="dummy-1_q15_0_all"  />
<polygon points="307,40 313,40 318,35 313,30 307,30 307,40 " style="fill:white; stroke-width:1; stroke:black; " description="&lt;b&gt;MMFACILD_04196&lt;/b&gt;&lt;br&gt;3-dehydro-bile acid delta(4,6)-reductase&lt;br&gt;Location: 20758 - 21916" locus_tag="MMFACILD_04196" class="clusterblast-orf" id="dummy-1_q16_0_all"  />
<polygon points="318,35 323,30 324,30 324,40 323,40 318,35 " style="fill:#d81515; stroke-width:1; stroke:black; " description="&lt;b&gt;MMFACILD_04197&lt;/b&gt;&lt;br&gt;4'-phosphopantetheinyl transferase Npt&lt;br&gt;Location: 21899 - 22520" locus_tag="MMFACILD_04197" class="clusterblast-orf" id="dummy-1_q17_0_all"  />
<polygon points="324,35 329,30 370,30 370,40 329,40 324,35 " style="fill:#33d815; stroke-width:1; stroke:black; " description="&lt;b&gt;MMFACILD_04198&lt;/b&gt;&lt;br&gt;D-alanine--D-alanyl carrier protein ligase&lt;br&gt;Location: 22516 - 27058" locus_tag="MMFACILD_04198" class="clusterblast-orf" id="dummy-1_q18_0_all"  />
<polygon points="370,35 375,30 380,30 380,40 375,40 370,35 " style="fill:#15abd8; stroke-width:1; stroke:black; " description="&lt;b&gt;MMFACILD_04199&lt;/b&gt;&lt;br&gt;hypothetical protein&lt;br&gt;Location: 27059 - 28016" locus_tag="MMFACILD_04199" class="clusterblast-orf" id="dummy-1_q19_0_all"  />
<polygon points="380,35 385,30 444,30 444,40 385,40 380,35 " style="fill:#8d15d8; stroke-width:1; stroke:black; " description="&lt;b&gt;MMFACILD_04200&lt;/b&gt;&lt;br&gt;hypothetical protein&lt;br&gt;Location: 28012 - 34330" locus_tag="MMFACILD_04200" class="clusterblast-orf" id="dummy-1_q20_0_all"  />
<polygon points="445,35 450,30 461,30 461,40 450,40 445,35 " style="fill:#d86f15; stroke-width:1; stroke:black; " description="&lt;b&gt;MMFACILD_04201&lt;/b&gt;&lt;br&gt;hypothetical protein&lt;br&gt;Location: 34420 - 35932" locus_tag="MMFACILD_04201" class="clusterblast-orf" id="dummy-1_q21_0_all"  />
<polygon points="462,40 465,40 470,35 465,30 462,30 462,40 " style="fill:#15d851; stroke-width:1; stroke:black; " description="&lt;b&gt;MMFACILD_04202&lt;/b&gt;&lt;br&gt;N-acetylglucosaminyldiphosphoundecaprenol N-acetyl-beta-D-mannosaminyltransferase&lt;br&gt;Location: 36096 - 36873" locus_tag="MMFACILD_04202" class="clusterblast-orf" id="dummy-1_q22_0_all"  />
<polygon points="471,40 477,40 482,35 477,30 471,30 471,40 " style="fill:white; stroke-width:1; stroke:black; " description="&lt;b&gt;MMFACILD_04203&lt;/b&gt;&lt;br&gt;S-(hydroxymethyl)glutathione dehydrogenase&lt;br&gt;Location: 36956 - 38066" locus_tag="MMFACILD_04203" class="clusterblast-orf" id="dummy-1_q23_0_all"  />
<polygon points="482,40 486,40 491,35 486,30 482,30 482,40 " style="fill:white; stroke-width:1; stroke:black; " description="&lt;b&gt;MMFACILD_04204&lt;/b&gt;&lt;br&gt;S-formylglutathione hydrolase&lt;br&gt;Location: 38065 - 38896" locus_tag="MMFACILD_04204" class="clusterblast-orf" id="dummy-1_q24_0_all"  />
<polygon points="492,35 497,30 502,30 502,40 497,40 492,35 " style="fill:#1551d8; stroke-width:1; stroke:black; " description="&lt;b&gt;MMFACILD_04205&lt;/b&gt;&lt;br&gt;hypothetical protein&lt;br&gt;Location: 39031 - 39997" locus_tag="MMFACILD_04205" class="clusterblast-orf" id="dummy-1_q25_0_all"  />
<polygon points="503,40 510,40 515,35 510,30 503,30 503,40 " style="fill:white; stroke-width:1; stroke:black; " description="&lt;b&gt;MMFACILD_04206&lt;/b&gt;&lt;br&gt;3-ketoacyl-CoA thiolase&lt;br&gt;Location: 40117 - 41287" locus_tag="MMFACILD_04206" class="clusterblast-orf" id="dummy-1_q26_0_all"  />
<polygon points="515,40 526,40 531,35 526,30 515,30 515,40 " style="fill:white; stroke-width:1; stroke:black; " description="&lt;b&gt;MMFACILD_04207&lt;/b&gt;&lt;br&gt;Long-chain-fatty-acid--CoA ligase FadD13&lt;br&gt;Location: 41283 - 42882" locus_tag="MMFACILD_04207" class="clusterblast-orf" id="dummy-1_q27_0_all"  />
<polygon points="531,40 535,40 540,35 535,30 531,30 531,40 " style="fill:white; stroke-width:1; stroke:black; " description="&lt;b&gt;MMFACILD_04208&lt;/b&gt;&lt;br&gt;hypothetical protein&lt;br&gt;Location: 42878 - 43715" locus_tag="MMFACILD_04208" class="clusterblast-orf" id="dummy-1_q28_0_all"  />
<polygon points="541,35 546,30 546,30 546,40 546,40 541,35 " style="fill:white; stroke-width:1; stroke:black; " description="&lt;b&gt;MMFACILD_04209&lt;/b&gt;&lt;br&gt;Isopentenyl-diphosphate Delta-isomerase&lt;br&gt;Location: 43864 - 44386" locus_tag="MMFACILD_04209" class="clusterblast-orf" id="dummy-1_q29_0_all"  />
<polygon points="547,35 552,30 560,30 560,40 552,40 547,35 " style="fill:#d815c9; stroke-width:1; stroke:black; " description="&lt;b&gt;MMFACILD_04210&lt;/b&gt;&lt;br&gt;hypothetical protein&lt;br&gt;Location: 44441 - 45746" locus_tag="MMFACILD_04210" class="clusterblast-orf" id="dummy-1_q30_0_all"  />
<polygon points="560,35 565,30 569,30 569,40 565,40 560,35 " style="fill:#d8c915; stroke-width:1; stroke:black; " description="&lt;b&gt;MMFACILD_04211&lt;/b&gt;&lt;br&gt;hypothetical protein&lt;br&gt;Location: 45758 - 46655" locus_tag="MMFACILD_04211" class="clusterblast-orf" id="dummy-1_q31_0_all"  />
<polygon points="571,35 576,30 584,30 584,40 576,40 571,35 " style="fill:#15d8ab; stroke-width:1; stroke:black; " description="&lt;b&gt;MMFACILD_04212&lt;/b&gt;&lt;br&gt;hypothetical protein&lt;br&gt;Location: 46775 - 48125" locus_tag="MMFACILD_04212" class="clusterblast-orf" id="dummy-1_q32_0_all"  />
<polygon points="587,40 594,40 599,35 594,30 587,30 587,40 " style="fill:#3315d8; stroke-width:1; stroke:black; " description="&lt;b&gt;MMFACILD_04213&lt;/b&gt;&lt;br&gt;D-inositol-3-phosphate glycosyltransferase&lt;br&gt;Location: 48375 - 49596" locus_tag="MMFACILD_04213" class="clusterblast-orf" id="dummy-1_q33_0_all"  />
<polygon points="599,35 604,30 607,30 607,40 604,40 599,35 " style="fill:#d8156f; stroke-width:1; stroke:black; " description="&lt;b&gt;MMFACILD_04214&lt;/b&gt;&lt;br&gt;hypothetical protein&lt;br&gt;Location: 49568 - 50393" locus_tag="MMFACILD_04214" class="clusterblast-orf" id="dummy-1_q34_0_all"  />
<polygon points="607,35 612,30 625,30 625,40 612,40 607,35 " style="fill:#8dd815; stroke-width:1; stroke:black; " description="&lt;b&gt;MMFACILD_04215&lt;/b&gt;&lt;br&gt;hypothetical protein&lt;br&gt;Location: 50389 - 52096" locus_tag="MMFACILD_04215" class="clusterblast-orf" id="dummy-1_q35_0_all"  />
<polygon points="626,40 633,40 638,35 633,30 626,30 626,40 " style="fill:white; stroke-width:1; stroke:black; " description="&lt;b&gt;MMFACILD_04216&lt;/b&gt;&lt;br&gt;hypothetical protein&lt;br&gt;Location: 52198 - 53371" locus_tag="MMFACILD_04216" class="clusterblast-orf" id="dummy-1_q36_0_all"  />
<polygon points="638,35 643,30 644,30 644,40 643,40 638,35 " style="fill:white; stroke-width:1; stroke:black; " description="&lt;b&gt;MMFACILD_04217&lt;/b&gt;&lt;br&gt;Phosphoglycolate phosphatase, plasmid&lt;br&gt;Location: 53407 - 54058" locus_tag="MMFACILD_04217" class="clusterblast-orf" id="dummy-1_q37_0_all"  />
</g>
<g label="NZ_CP018076" description="NZ_CP018076 (1138633-1217190): Sulfitobacter sp. AM1-D1 chromosome, complete ... (19% of genes show similarity), NRPS-like,T1PKS,T3PKS" class="clusterblast-cluster"  >
<text x="5" y="70" class="clusterblast-acc"  >
<a xlink:href="https://antismash-db.secondarymetabolites.org/area.html?record=NZ_CP018076&amp;start=1138633&amp;end=1217190" target="_blank">NZ_CP018076 (1138633-1217190)</a>: Sulfitobacter sp. AM1-D1 chromosome, complete ... (19% of genes show similarity), NRPS-like,T1PKS,T3PKS</text>
<line x1="10" y1="85" x2="778.0" y2="85" style="stroke-width:1; stroke:grey; "  />
</g>
<g id="a1_000"  >
<polygon points="0,85 5,80 5,80 5,90 5,90 0,85 " style="fill:white; stroke-width:1; stroke:black; " description="&lt;b&gt;BOO69_RS05945&lt;/b&gt;&lt;br&gt;MgtC/SapB family protein&lt;br&gt;Location: 1216135 - 1215638" locus_tag="BOO69_RS05945" class="clusterblast-orf" id="dummy-1_h1_5_0"  />
</g>
<g id="a1_001"  >
<polygon points="5,90 9,90 14,85 9,80 5,80 5,90 " style="fill:white; stroke-width:1; stroke:black; " description="&lt;b&gt;BOO69_RS05940&lt;/b&gt;&lt;br&gt;EamA family transporter&lt;br&gt;Location: 1215566 - 1214664" locus_tag="BOO69_RS05940" class="clusterblast-orf" id="dummy-1_h1_5_1"  />
</g>
<g id="a1_002"  >
<polygon points="15,90 16,90 21,85 16,80 15,80 15,90 " style="fill:white; stroke-width:1; stroke:black; " description="&lt;b&gt;BOO69_RS05935&lt;/b&gt;&lt;br&gt;septation protein IspZ&lt;br&gt;Location: 1214649 - 1214044" locus_tag="BOO69_RS05935" class="clusterblast-orf" id="dummy-1_h1_5_2"  />
</g>
<g id="a1_003"  >
<polygon points="21,85 24,80 24,90 21,85 " style="fill:white; stroke-width:1; stroke:black; " description="&lt;b&gt;BOO69_RS05930&lt;/b&gt;&lt;br&gt;SH3 domain-containing protein&lt;br&gt;Location: 1214016 - 1213717" locus_tag="BOO69_RS05930" class="clusterblast-orf" id="dummy-1_h1_5_3"  />
</g>
<g id="a1_004"  >
<polygon points="25,85 30,80 43,80 43,90 30,90 25,85 " style="fill:white; stroke-width:1; stroke:black; " description="&lt;b&gt;BOO69_RS05925&lt;/b&gt;&lt;br&gt;NAD(P)H-dependent oxidoreductase subunit E&lt;br&gt;Location: 1213585 - 1211874" locus_tag="BOO69_RS05925" class="clusterblast-orf" id="dummy-1_h1_5_4"  />
</g>
<g id="a1_005"  >
<polygon points="45,90 50,90 55,85 50,80 45,80 45,90 " style="fill:white; stroke-width:1; stroke:black; " description="&lt;b&gt;BOO69_RS05920&lt;/b&gt;&lt;br&gt;alkane 1-monooxygenase&lt;br&gt;Location: 1211691 - 1210681" locus_tag="BOO69_RS05920" class="clusterblast-orf" id="dummy-1_h1_5_5"  />
</g>
<g id="a1_006"  >
<polygon points="55,90 59,85 55,80 55,90 " style="fill:white; stroke-width:1; stroke:black; " description="&lt;b&gt;BOO69_RS05915&lt;/b&gt;&lt;br&gt;hypothetical protein&lt;br&gt;Location: 1210631 - 1210236" locus_tag="BOO69_RS05915" class="clusterblast-orf" id="dummy-1_h1_5_6"  />
</g>
<g id="a1_007"  >
<polygon points="59,90 63,85 59,80 59,90 " style="fill:white; stroke-width:1; stroke:black; " description="&lt;b&gt;BOO69_RS05910&lt;/b&gt;&lt;br&gt;hypothetical protein&lt;br&gt;Location: 1210239 - 1209841" locus_tag="BOO69_RS05910" class="clusterblast-orf" id="dummy-1_h1_5_7"  />
</g>
<g id="a1_008"  >
<polygon points="63,85 68,80 79,80 79,90 68,90 63,85 " style="fill:white; stroke-width:1; stroke:black; " description="&lt;b&gt;BOO69_RS05905&lt;/b&gt;&lt;br&gt;exodeoxyribonuclease VII large subunit&lt;br&gt;Location: 1209839 - 1208277" locus_tag="BOO69_RS05905" class="clusterblast-orf" id="dummy-1_h1_5_8"  />
</g>
<g id="a1_009"  >
<polygon points="80,90 88,90 93,85 88,80 80,80 80,90 " style="fill:white; stroke-width:1; stroke:black; " description="&lt;b&gt;BOO69_RS05900&lt;/b&gt;&lt;br&gt;phosphoribosylamine--glycine ligase&lt;br&gt;Location: 1208205 - 1206943" locus_tag="BOO69_RS05900" class="clusterblast-orf" id="dummy-1_h1_5_9"  />
</g>
<g id="a1_0010"  >
<polygon points="93,90 96,90 101,85 96,80 93,80 93,90 " style="fill:white; stroke-width:1; stroke:black; " description="&lt;b&gt;BOO69_RS05895&lt;/b&gt;&lt;br&gt;sulfotransferase family 2 domain-containing protein&lt;br&gt;Location: 1206958 - 1206179" locus_tag="BOO69_RS05895" class="clusterblast-orf" id="dummy-1_h1_5_10"  />
</g>
<g id="a1_0011"  >
<polygon points="101,85 105,80 105,90 101,85 " style="fill:white; stroke-width:1; stroke:black; " description="&lt;b&gt;BOO69_RS05890&lt;/b&gt;&lt;br&gt;hypothetical protein&lt;br&gt;Location: 1206166 - 1205789" locus_tag="BOO69_RS05890" class="clusterblast-orf" id="dummy-1_h1_5_11"  />
</g>
<g id="a1_0012"  >
<polygon points="105,85 110,80 112,80 112,90 110,90 105,85 " style="fill:white; stroke-width:1; stroke:black; " description="&lt;b&gt;BOO69_RS05885&lt;/b&gt;&lt;br&gt;hypothetical protein&lt;br&gt;Location: 1205768 - 1205070" locus_tag="BOO69_RS05885" class="clusterblast-orf" id="dummy-1_h1_5_12"  />
</g>
<g id="a1_0013"  >
<polygon points="112,85 116,80 116,90 112,85 " style="fill:white; stroke-width:1; stroke:black; " description="&lt;b&gt;BOO69_RS05880&lt;/b&gt;&lt;br&gt;2Fe-2S iron-sulfur cluster binding domain-containing protein&lt;br&gt;Location: 1205009 - 1204686" locus_tag="BOO69_RS05880" class="clusterblast-orf" id="dummy-1_h1_5_13"  />
</g>
<g id="a1_0014"  >
<polygon points="117,90 118,90 123,85 118,80 117,80 117,90 " style="fill:white; stroke-width:1; stroke:black; " description="&lt;b&gt;BOO69_RS05875&lt;/b&gt;&lt;br&gt;peptidoglycan-binding protein&lt;br&gt;Location: 1204539 - 1203982" locus_tag="BOO69_RS05875" class="clusterblast-orf" id="dummy-1_h1_5_14"  />
</g>
<g id="a1_0015"  >
<polygon points="124,85 129,80 139,80 139,90 129,90 124,85 " style="fill:white; stroke-width:1; stroke:black; " description="&lt;b&gt;BOO69_RS05870&lt;/b&gt;&lt;br&gt;DegQ family serine endoprotease&lt;br&gt;Location: 1203898 - 1202420" locus_tag="BOO69_RS05870" class="clusterblast-orf" id="dummy-1_h1_5_15"  />
</g>
<g id="a1_0016"  >
<polygon points="140,85 142,80 142,90 140,85 " style="fill:white; stroke-width:1; stroke:black; " description="&lt;b&gt;BOO69_RS05865&lt;/b&gt;&lt;br&gt;DUF2065 family protein&lt;br&gt;Location: 1202264 - 1202070" locus_tag="BOO69_RS05865" class="clusterblast-orf" id="dummy-1_h1_5_16"  />
</g>
<g id="a1_0017"  >
<polygon points="142,85 147,80 153,80 153,90 147,90 142,85 " style="fill:white; stroke-width:1; stroke:black; " description="&lt;b&gt;BOO69_RS05860&lt;/b&gt;&lt;br&gt;protease modulator HflC&lt;br&gt;Location: 1202073 - 1200997" locus_tag="BOO69_RS05860" class="clusterblast-orf" id="dummy-1_h1_5_17"  />
</g>
<g id="a1_0018"  >
<polygon points="153,85 158,80 166,80 166,90 158,90 153,85 " style="fill:white; stroke-width:1; stroke:black; " description="&lt;b&gt;BOO69_RS05855&lt;/b&gt;&lt;br&gt;FtsH protease activity modulator HflK&lt;br&gt;Location: 1200997 - 1199762" locus_tag="BOO69_RS05855" class="clusterblast-orf" id="dummy-1_h1_5_18"  />
</g>
<g id="a1_0019"  >
<polygon points="167,85 172,80 182,80 182,90 172,90 167,85 " style="fill:white; stroke-width:1; stroke:black; " description="&lt;b&gt;BOO69_RS05850&lt;/b&gt;&lt;br&gt;FAD-dependent oxidoreductase&lt;br&gt;Location: 1199674 - 1198196" locus_tag="BOO69_RS05850" class="clusterblast-orf" id="dummy-1_h1_5_19"  />
</g>
<g id="a1_0020"  >
<polygon points="182,85 187,80 190,80 190,90 187,90 182,85 " style="fill:white; stroke-width:1; stroke:black; " description="&lt;b&gt;BOO69_RS05845&lt;/b&gt;&lt;br&gt;ribose-5-phosphate isomerase RpiA&lt;br&gt;Location: 1198174 - 1197386" locus_tag="BOO69_RS05845" class="clusterblast-orf" id="dummy-1_h1_5_20"  />
</g>
<g id="a1_0021"  >
<polygon points="192,90 198,90 203,85 198,80 192,80 192,90 " style="fill:white; stroke-width:1; stroke:black; " description="&lt;b&gt;BOO69_RS05840&lt;/b&gt;&lt;br&gt;type III polyketide synthase&lt;br&gt;Location: 1197190 - 1196090" locus_tag="BOO69_RS05840" class="clusterblast-orf" id="dummy-1_h1_5_21"  />
</g>
<g id="a1_0022"  >
<polygon points="203,90 203,90 208,85 203,80 203,80 203,90 " style="fill:white; stroke-width:1; stroke:black; " description="&lt;b&gt;BOO69_RS05835&lt;/b&gt;&lt;br&gt;hypothetical protein&lt;br&gt;Location: 1196093 - 1195602" locus_tag="BOO69_RS05835" class="clusterblast-orf" id="dummy-1_h1_5_22"  />
</g>
<g id="a1_0023"  >
<polygon points="209,90 211,90 216,85 211,80 209,80 209,90 " style="fill:white; stroke-width:1; stroke:black; " description="&lt;b&gt;BOO69_RS05830&lt;/b&gt;&lt;br&gt;glutathione S-transferase family protein&lt;br&gt;Location: 1195525 - 1194821" locus_tag="BOO69_RS05830" class="clusterblast-orf" id="dummy-1_h1_5_23"  />
</g>
<g id="a1_0024"  >
<polygon points="216,90 225,90 230,85 225,80 216,80 216,90 " style="fill:white; stroke-width:1; stroke:black; " description="&lt;b&gt;BOO69_RS05825&lt;/b&gt;&lt;br&gt;L-serine ammonia-lyase&lt;br&gt;Location: 1194821 - 1193448" locus_tag="BOO69_RS05825" class="clusterblast-orf" id="dummy-1_h1_5_24"  />
</g>
<g id="a1_0025"  >
<polygon points="232,90 234,85 232,80 232,90 " style="fill:white; stroke-width:1; stroke:black; " description="&lt;b&gt;BOO69_RS05820&lt;/b&gt;&lt;br&gt;cold-shock protein&lt;br&gt;Location: 1193241 - 1193035" locus_tag="BOO69_RS05820" class="clusterblast-orf" id="dummy-1_h1_5_25"  />
</g>
<g id="a1_0026"  >
<polygon points="235,85 240,80 244,80 244,90 240,90 235,85 " style="fill:white; stroke-width:1; stroke:black; " description="&lt;b&gt;BOO69_RS05815&lt;/b&gt;&lt;br&gt;NAD(P)-dependent oxidoreductase&lt;br&gt;Location: 1192969 - 1192025" locus_tag="BOO69_RS05815" class="clusterblast-orf" id="dummy-1_h1_5_26"  />
</g>
<g id="a1_0027"  >
<polygon points="245,85 250,80 260,80 260,90 250,90 245,85 " style="fill:white; stroke-width:1; stroke:black; " description="&lt;b&gt;BOO69_RS05810&lt;/b&gt;&lt;br&gt;hypothetical protein&lt;br&gt;Location: 1191941 - 1190499" locus_tag="BOO69_RS05810" class="clusterblast-orf" id="dummy-1_h1_5_27"  />
</g>
<g id="a1_0028"  >
<polygon points="262,90 266,90 271,85 266,80 262,80 262,90 " style="fill:white; stroke-width:1; stroke:black; " description="&lt;b&gt;BOO69_RS05805&lt;/b&gt;&lt;br&gt;pirin family protein&lt;br&gt;Location: 1190292 - 1189381" locus_tag="BOO69_RS05805" class="clusterblast-orf" id="dummy-1_h1_5_28"  />
</g>
<g id="a1_0029"  >
<polygon points="271,85 276,80 277,80 277,90 276,90 271,85 " style="fill:white; stroke-width:1; stroke:black; " description="&lt;b&gt;BOO69_RS05800&lt;/b&gt;&lt;br&gt;TetR family transcriptional regulator&lt;br&gt;Location: 1189345 - 1188758" locus_tag="BOO69_RS05800" class="clusterblast-orf" id="dummy-1_h1_5_29"  />
</g>
<g id="a1_0030"  >
<polygon points="278,90 281,85 278,80 278,90 " style="fill:white; stroke-width:1; stroke:black; " description="&lt;b&gt;BOO69_RS05795&lt;/b&gt;&lt;br&gt;hypothetical protein&lt;br&gt;Location: 1188680 - 1188390" locus_tag="BOO69_RS05795" class="clusterblast-orf" id="dummy-1_h1_5_30"  />
</g>
<g id="a1_0031"  >
<polygon points="282,90 290,90 295,85 290,80 282,80 282,90 " style="fill:white; stroke-width:1; stroke:black; " description="&lt;b&gt;BOO69_RS05790&lt;/b&gt;&lt;br&gt;homoserine dehydrogenase&lt;br&gt;Location: 1188308 - 1187022" locus_tag="BOO69_RS05790" class="clusterblast-orf" id="dummy-1_h1_5_31"  />
</g>
<g id="a1_0032"  >
<polygon points="297,90 303,90 308,85 303,80 297,80 297,90 " style="fill:white; stroke-width:1; stroke:black; " description="&lt;b&gt;BOO69_RS05785&lt;/b&gt;&lt;br&gt;hypothetical protein&lt;br&gt;Location: 1186812 - 1185772" locus_tag="BOO69_RS05785" class="clusterblast-orf" id="dummy-1_h1_5_32"  />
</g>
<g id="a1_0033"  >
<polygon points="308,90 309,90 314,85 309,80 308,80 308,90 " style="fill:white; stroke-width:1; stroke:black; " description="&lt;b&gt;BOO69_RS05780&lt;/b&gt;&lt;br&gt;hypothetical protein&lt;br&gt;Location: 1185766 - 1185116" locus_tag="BOO69_RS05780" class="clusterblast-orf" id="dummy-1_h1_5_33"  />
</g>
<g id="a1_0034"  >
<polygon points="316,90 320,90 325,85 320,80 316,80 316,90 " style="fill:white; stroke-width:1; stroke:black; " description="&lt;b&gt;BOO69_RS05775&lt;/b&gt;&lt;br&gt;class II fructose-bisphosphatase&lt;br&gt;Location: 1184997 - 1184029" locus_tag="BOO69_RS05775" class="clusterblast-orf" id="dummy-1_h1_5_34"  />
</g>
<g id="a1_0035"  >
<polygon points="326,90 339,90 344,85 339,80 326,80 326,90 " style="fill:white; stroke-width:1; stroke:black; " description="&lt;b&gt;BOO69_RS05770&lt;/b&gt;&lt;br&gt;single-stranded-DNA-specific exonuclease RecJ&lt;br&gt;Location: 1183969 - 1182230" locus_tag="BOO69_RS05770" class="clusterblast-orf" id="dummy-1_h1_5_35"  />
</g>
<g id="a1_0036"  >
<polygon points="350,90 353,90 358,85 353,80 350,80 350,90 " style="fill:white; stroke-width:1; stroke:black; " description="&lt;b&gt;BOO69_RS05760&lt;/b&gt;&lt;br&gt;sugar transferase&lt;br&gt;Location: 1181598 - 1180849" locus_tag="BOO69_RS05760" class="clusterblast-orf" id="dummy-1_h1_5_36"  />
</g>
<g id="a1_0037"  >
<polygon points="358,90 363,90 368,85 363,80 358,80 358,90 " style="fill:#d8c915; stroke-width:1; stroke:black; " description="&lt;b&gt;BOO69_RS05755&lt;/b&gt;&lt;br&gt;CpsD/CapB family tyrosine-protein kinase&lt;br&gt;Location: 1180771 - 1179785&lt;br&gt;&lt;br&gt;&lt;b&gt;BlastP hit with MMFACILD_04211&lt;/b&gt;&lt;br&gt;Percentage identity: 38&lt;br&gt;Percentage coverage: 75&lt;br&gt;BLAST bit score: 146&lt;br&gt;E-value: 9.52e-40" locus_tag="BOO69_RS05755" class="clusterblast-orf" id="dummy-1_h1_5_37"  />
</g>
<g id="a1_0038"  >
<polygon points="370,90 378,90 383,85 378,80 370,80 370,90 " style="fill:#d815c9; stroke-width:1; stroke:black; " description="&lt;b&gt;BOO69_RS05750&lt;/b&gt;&lt;br&gt;DUF874 domain-containing protein&lt;br&gt;Location: 1179669 - 1178359&lt;br&gt;&lt;br&gt;&lt;b&gt;BlastP hit with MMFACILD_04210&lt;/b&gt;&lt;br&gt;Percentage identity: 36&lt;br&gt;Percentage coverage: 95&lt;br&gt;BLAST bit score: 220&lt;br&gt;E-value: 3.07e-65" locus_tag="BOO69_RS05750" class="clusterblast-orf" id="dummy-1_h1_5_38"  />
</g>
<g id="a1_0039"  >
<polygon points="383,85 388,80 396,80 396,90 388,90 383,85 " style="fill:#15d8ab; stroke-width:1; stroke:black; " description="&lt;b&gt;BOO69_RS05745&lt;/b&gt;&lt;br&gt;oligosaccharide flippase family protein&lt;br&gt;Location: 1178332 - 1177028&lt;br&gt;&lt;br&gt;&lt;b&gt;BlastP hit with MMFACILD_04212&lt;/b&gt;&lt;br&gt;Percentage identity: 50&lt;br&gt;Percentage coverage: 91&lt;br&gt;BLAST bit score: 373&lt;br&gt;E-value: 2.53e-124" locus_tag="BOO69_RS05745" class="clusterblast-orf" id="dummy-1_h1_5_39"  />
</g>
<g id="a1_0040"  >
<polygon points="398,90 405,90 410,85 405,80 398,80 398,90 " style="fill:#3315d8; stroke-width:1; stroke:black; " description="&lt;b&gt;BOO69_RS05740&lt;/b&gt;&lt;br&gt;glycosyltransferase&lt;br&gt;Location: 1176876 - 1175680&lt;br&gt;&lt;br&gt;&lt;b&gt;BlastP hit with MMFACILD_04213&lt;/b&gt;&lt;br&gt;Percentage identity: 56&lt;br&gt;Percentage coverage: 98&lt;br&gt;BLAST bit score: 411&lt;br&gt;E-value: 1.78e-140" locus_tag="BOO69_RS05740" class="clusterblast-orf" id="dummy-1_h1_5_40"  />
</g>
<g id="a1_0041"  >
<polygon points="410,85 415,80 419,80 419,90 415,90 410,85 " style="fill:#d8156f; stroke-width:1; stroke:black; " description="&lt;b&gt;BOO69_RS05735&lt;/b&gt;&lt;br&gt;glycosyltransferase family 2 protein&lt;br&gt;Location: 1175683 - 1174829&lt;br&gt;&lt;br&gt;&lt;b&gt;BlastP hit with MMFACILD_04214&lt;/b&gt;&lt;br&gt;Percentage identity: 51&lt;br&gt;Percentage coverage: 100&lt;br&gt;BLAST bit score: 245&lt;br&gt;E-value: 4.43e-79" locus_tag="BOO69_RS05735" class="clusterblast-orf" id="dummy-1_h1_5_41"  />
</g>
<g id="a1_0042"  >
<polygon points="418,85 423,80 444,80 444,90 423,90 418,85 " style="fill:#8dd815; stroke-width:1; stroke:black; " description="&lt;b&gt;BOO69_RS05730&lt;/b&gt;&lt;br&gt;hypothetical protein&lt;br&gt;Location: 1174856 - 1172319&lt;br&gt;&lt;br&gt;&lt;b&gt;BlastP hit with MMFACILD_04215&lt;/b&gt;&lt;br&gt;Percentage identity: 48&lt;br&gt;Percentage coverage: 94&lt;br&gt;BLAST bit score: 497&lt;br&gt;E-value: 1.59e-165" locus_tag="BOO69_RS05730" class="clusterblast-orf" id="dummy-1_h1_5_42"  />
</g>
<g id="a1_0043"  >
<polygon points="444,85 449,80 453,80 453,90 449,90 444,85 " style="fill:white; stroke-width:1; stroke:black; " description="&lt;b&gt;BOO69_RS05725&lt;/b&gt;&lt;br&gt;hypothetical protein&lt;br&gt;Location: 1172322 - 1171444" locus_tag="BOO69_RS05725" class="clusterblast-orf" id="dummy-1_h1_5_43"  />
</g>
<g id="a1_0044"  >
<polygon points="454,85 459,80 461,80 461,90 459,90 454,85 " style="fill:#d81515; stroke-width:1; stroke:black; " description="&lt;b&gt;BOO69_RS05720&lt;/b&gt;&lt;br&gt;4'-phosphopantetheinyl transferase superfamily protein&lt;br&gt;Location: 1171361 - 1170684&lt;br&gt;&lt;br&gt;&lt;b&gt;BlastP hit with MMFACILD_04197&lt;/b&gt;&lt;br&gt;Percentage identity: 44&lt;br&gt;Percentage coverage: 105&lt;br&gt;BLAST bit score: 133&lt;br&gt;E-value: 5.14e-37" locus_tag="BOO69_RS05720" class="clusterblast-orf" id="dummy-1_h1_5_44"  />
</g>
<g id="a1_0045"  >
<polygon points="461,85 466,80 508,80 508,90 466,90 461,85 " style="fill:#33d815; stroke-width:1; stroke:black; " description="&lt;b&gt;BOO69_RS05715&lt;/b&gt;&lt;br&gt;LLM class flavin-dependent oxidoreductase&lt;br&gt;Location: 1170691 - 1166072&lt;br&gt;&lt;br&gt;&lt;b&gt;BlastP hit with MMFACILD_04198&lt;/b&gt;&lt;br&gt;Percentage identity: 56&lt;br&gt;Percentage coverage: 103&lt;br&gt;BLAST bit score: 1543&lt;br&gt;E-value: 0.0" locus_tag="BOO69_RS05715" class="clusterblast-orf" id="dummy-1_h1_5_45"  />
</g>
<g id="a1_0046"  >
<polygon points="508,85 513,80 518,80 518,90 513,90 508,85 " style="fill:#15abd8; stroke-width:1; stroke:black; " description="&lt;b&gt;BOO69_RS05710&lt;/b&gt;&lt;br&gt;glycosyltransferase family 2 protein&lt;br&gt;Location: 1166075 - 1165083&lt;br&gt;&lt;br&gt;&lt;b&gt;BlastP hit with MMFACILD_04199&lt;/b&gt;&lt;br&gt;Percentage identity: 59&lt;br&gt;Percentage coverage: 98&lt;br&gt;BLAST bit score: 367&lt;br&gt;E-value: 1.88e-125" locus_tag="BOO69_RS05710" class="clusterblast-orf" id="dummy-1_h1_5_46"  />
</g>
<g id="a1_0047"  >
<polygon points="518,85 523,80 583,80 583,90 523,90 518,85 " style="fill:#8d15d8; stroke-width:1; stroke:black; " description="&lt;b&gt;BOO69_RS05705&lt;/b&gt;&lt;br&gt;type I polyketide synthase&lt;br&gt;Location: 1165083 - 1158634&lt;br&gt;&lt;br&gt;&lt;b&gt;BlastP hit with MMFACILD_04200&lt;/b&gt;&lt;br&gt;Percentage identity: 57&lt;br&gt;Percentage coverage: 101&lt;br&gt;BLAST bit score: 2296&lt;br&gt;E-value: 0.0" locus_tag="BOO69_RS05705" class="clusterblast-orf" id="dummy-1_h1_5_47"  />
</g>
<g id="a1_0048"  >
<polygon points="586,85 591,80 600,80 600,90 591,90 586,85 " style="fill:#d86f15; stroke-width:1; stroke:black; " description="&lt;b&gt;BOO69_RS05700&lt;/b&gt;&lt;br&gt;hypothetical protein&lt;br&gt;Location: 1158376 - 1156919&lt;br&gt;&lt;br&gt;&lt;b&gt;BlastP hit with MMFACILD_04201&lt;/b&gt;&lt;br&gt;Percentage identity: 43&lt;br&gt;Percentage coverage: 99&lt;br&gt;BLAST bit score: 371&lt;br&gt;E-value: 3.19e-122" locus_tag="BOO69_RS05700" class="clusterblast-orf" id="dummy-1_h1_5_48"  />
</g>
<g id="a1_0049"  >
<polygon points="603,90 605,90 610,85 605,80 603,80 603,90 " style="fill:#15d851; stroke-width:1; stroke:black; " description="&lt;b&gt;BOO69_RS05695&lt;/b&gt;&lt;br&gt;WecB/TagA/CpsF family glycosyltransferase&lt;br&gt;Location: 1156713 - 1155967&lt;br&gt;&lt;br&gt;&lt;b&gt;BlastP hit with MMFACILD_04202&lt;/b&gt;&lt;br&gt;Percentage identity: 55&lt;br&gt;Percentage coverage: 96&lt;br&gt;BLAST bit score: 269&lt;br&gt;E-value: 4.43e-89" locus_tag="BOO69_RS05695" class="clusterblast-orf" id="dummy-1_h1_5_49"  />
</g>
<g id="a1_0050"  >
<polygon points="610,85 615,80 620,80 620,90 615,90 610,85 " style="fill:#1551d8; stroke-width:1; stroke:black; " description="&lt;b&gt;BOO69_RS05690&lt;/b&gt;&lt;br&gt;glycosyltransferase&lt;br&gt;Location: 1155961 - 1155026&lt;br&gt;&lt;br&gt;&lt;b&gt;BlastP hit with MMFACILD_04205&lt;/b&gt;&lt;br&gt;Percentage identity: 65&lt;br&gt;Percentage coverage: 98&lt;br&gt;BLAST bit score: 402&lt;br&gt;E-value: 1.15e-139" locus_tag="BOO69_RS05690" class="clusterblast-orf" id="dummy-1_h1_5_50"  />
</g>
<g id="a1_0051"  >
<polygon points="620,85 625,80 630,80 630,90 625,90 620,85 " style="fill:white; stroke-width:1; stroke:black; " description="&lt;b&gt;BOO69_RS05685&lt;/b&gt;&lt;br&gt;glycosyltransferase family 2 protein&lt;br&gt;Location: 1155029 - 1153986" locus_tag="BOO69_RS05685" class="clusterblast-orf" id="dummy-1_h1_5_51"  />
</g>
<g id="a1_0052"  >
<polygon points="631,85 636,80 642,80 642,90 636,90 631,85 " style="fill:white; stroke-width:1; stroke:black; " description="&lt;b&gt;BOO69_RS05680&lt;/b&gt;&lt;br&gt;GGDEF domain-containing protein&lt;br&gt;Location: 1153908 - 1152874" locus_tag="BOO69_RS05680" class="clusterblast-orf" id="dummy-1_h1_5_52"  />
</g>
<g id="a1_0053"  >
<polygon points="642,85 647,80 647,80 647,90 647,90 642,85 " style="fill:white; stroke-width:1; stroke:black; " description="&lt;b&gt;BOO69_RS05675&lt;/b&gt;&lt;br&gt;heme NO-binding domain-containing protein&lt;br&gt;Location: 1152877 - 1152290" locus_tag="BOO69_RS05675" class="clusterblast-orf" id="dummy-1_h1_5_53"  />
</g>
<g id="a1_0054"  >
<polygon points="649,85 654,80 664,80 664,90 654,90 649,85 " style="fill:white; stroke-width:1; stroke:black; " description="&lt;b&gt;BOO69_RS05670&lt;/b&gt;&lt;br&gt;trimethylamine methyltransferase family protein&lt;br&gt;Location: 1152187 - 1150625" locus_tag="BOO69_RS05670" class="clusterblast-orf" id="dummy-1_h1_5_54"  />
</g>
<g id="a1_0055"  >
<polygon points="665,85 670,80 672,80 672,90 670,90 665,85 " style="fill:white; stroke-width:1; stroke:black; " description="&lt;b&gt;BOO69_RS05665&lt;/b&gt;&lt;br&gt;HAD-IA family hydrolase&lt;br&gt;Location: 1150533 - 1149823" locus_tag="BOO69_RS05665" class="clusterblast-orf" id="dummy-1_h1_5_55"  />
</g>
<g id="a1_0056"  >
<polygon points="672,85 675,80 675,90 672,85 " style="fill:white; stroke-width:1; stroke:black; " description="&lt;b&gt;BOO69_RS05660&lt;/b&gt;&lt;br&gt;DUF3572 domain-containing protein&lt;br&gt;Location: 1149826 - 1149542" locus_tag="BOO69_RS05660" class="clusterblast-orf" id="dummy-1_h1_5_56"  />
</g>
<g id="a1_0057"  >
<polygon points="676,90 686,90 691,85 686,80 676,80 676,90 " style="fill:white; stroke-width:1; stroke:black; " description="&lt;b&gt;BOO69_RS05655&lt;/b&gt;&lt;br&gt;diguanylate cyclase&lt;br&gt;Location: 1149441 - 1148020" locus_tag="BOO69_RS05655" class="clusterblast-orf" id="dummy-1_h1_5_57"  />
</g>
<g id="a1_0058"  >
<polygon points="691,90 696,90 701,85 696,80 691,80 691,90 " style="fill:white; stroke-width:1; stroke:black; " description="&lt;b&gt;BOO69_RS05650&lt;/b&gt;&lt;br&gt;DMT family transporter&lt;br&gt;Location: 1147978 - 1147055" locus_tag="BOO69_RS05650" class="clusterblast-orf" id="dummy-1_h1_5_58"  />
</g>
<g id="a1_0059"  >
<polygon points="700,85 705,80 707,80 707,90 705,90 700,85 " style="fill:white; stroke-width:1; stroke:black; " description="&lt;b&gt;BOO69_RS05645&lt;/b&gt;&lt;br&gt;thiamine diphosphokinase&lt;br&gt;Location: 1147119 - 1146406" locus_tag="BOO69_RS05645" class="clusterblast-orf" id="dummy-1_h1_5_59"  />
</g>
<g id="a1_0060"  >
<polygon points="709,90 728,90 733,85 728,80 709,80 709,90 " style="fill:white; stroke-width:1; stroke:black; " description="&lt;b&gt;BOO69_RS05640&lt;/b&gt;&lt;br&gt;hypothetical protein&lt;br&gt;Location: 1146267 - 1143904" locus_tag="BOO69_RS05640" class="clusterblast-orf" id="dummy-1_h1_5_60"  />
</g>
<g id="a1_0061"  >
<polygon points="734,85 736,80 736,90 734,85 " style="fill:white; stroke-width:1; stroke:black; " description="&lt;b&gt;BOO69_RS05635&lt;/b&gt;&lt;br&gt;DUF2842 domain-containing protein&lt;br&gt;Location: 1143801 - 1143577" locus_tag="BOO69_RS05635" class="clusterblast-orf" id="dummy-1_h1_5_61"  />
</g>
<g id="a1_0062"  >
<polygon points="736,85 741,80 749,80 749,90 741,90 736,85 " style="fill:white; stroke-width:1; stroke:black; " description="&lt;b&gt;BOO69_RS05630&lt;/b&gt;&lt;br&gt;adenylosuccinate synthase&lt;br&gt;Location: 1143567 - 1142275" locus_tag="BOO69_RS05630" class="clusterblast-orf" id="dummy-1_h1_5_62"  />
</g>
<g id="a1_0063"  >
<polygon points="751,90 755,85 751,80 751,90 " style="fill:white; stroke-width:1; stroke:black; " description="&lt;b&gt;BOO69_RS05625&lt;/b&gt;&lt;br&gt;hypothetical protein&lt;br&gt;Location: 1142105 - 1141710" locus_tag="BOO69_RS05625" class="clusterblast-orf" id="dummy-1_h1_5_63"  />
</g>
<g id="a1_0064"  >
<polygon points="755,85 758,80 758,90 755,85 " style="fill:white; stroke-width:1; stroke:black; " description="&lt;b&gt;BOO69_RS05620&lt;/b&gt;&lt;br&gt;nitrile hydratase accessory protein&lt;br&gt;Location: 1141682 - 1141359" locus_tag="BOO69_RS05620" class="clusterblast-orf" id="dummy-1_h1_5_64"  />
</g>
<g id="a1_0065"  >
<polygon points="758,85 763,80 765,80 765,90 763,90 758,85 " style="fill:white; stroke-width:1; stroke:black; " description="&lt;b&gt;BOO69_RS05615&lt;/b&gt;&lt;br&gt;nitrile hydratase subunit beta&lt;br&gt;Location: 1141362 - 1140685" locus_tag="BOO69_RS05615" class="clusterblast-orf" id="dummy-1_h1_5_65"  />
</g>
<g id="a1_0066"  >
<polygon points="766,85 771,80 772,80 772,90 771,90 766,85 " style="fill:white; stroke-width:1; stroke:black; " description="&lt;b&gt;BOO69_RS05610&lt;/b&gt;&lt;br&gt;nitrile hydratase subunit alpha&lt;br&gt;Location: 1140617 - 1140003" locus_tag="BOO69_RS05610" class="clusterblast-orf" id="dummy-1_h1_5_66"  />
</g>
<g id="a1_0067"  >
<polygon points="776,90 780,85 776,80 776,90 " style="fill:white; stroke-width:1; stroke:black; " description="&lt;b&gt;BOO69_RS05605&lt;/b&gt;&lt;br&gt;preprotein translocase subunit SecG&lt;br&gt;Location: 1139639 - 1139280" locus_tag="BOO69_RS05605" class="clusterblast-orf" id="dummy-1_h1_5_67"  />
</g>
</svg>
