<svg xmlns="http://www.w3.org/2000/svg" xmlns:xlink="http://www.w3.org/1999/xlink" version="1.1" x="0" y="0" height="230" width="800" viewBox="0 0 800 230" preserveAspectRatio="none"  >
<g label="Query sequence" class="clusterblast-cluster"  >
<text x="5" y="20" class="clusterblast-acc"  >
Query sequence</text>
<line x1="10" y1="35" x2="778.0" y2="35" style="stroke-width:1; stroke:grey; "  />
<polygon points="23,40 38,40 43,35 38,30 23,30 23,40 " style="fill:#d81515; stroke-width:1; stroke:black; " description="&lt;b&gt;GLPIOCIE_01724&lt;/b&gt;&lt;br&gt;50S ribosomal protein L5&lt;br&gt;Location: 6785 - 7346" locus_tag="GLPIOCIE_01724" class="clusterblast-orf" id="dummy-1_q0_0_all"  />
<polygon points="44,40 50,40 55,35 50,30 44,30 44,40 " style="fill:#60d815; stroke-width:1; stroke:black; " description="&lt;b&gt;GLPIOCIE_01725&lt;/b&gt;&lt;br&gt;30S ribosomal protein S14&lt;br&gt;Location: 7365 - 7671" locus_tag="GLPIOCIE_01725" class="clusterblast-orf" id="dummy-1_q1_0_all"  />
<polygon points="55,40 65,40 70,35 65,30 55,30 55,40 " style="fill:#15abd8; stroke-width:1; stroke:black; " description="&lt;b&gt;GLPIOCIE_01726&lt;/b&gt;&lt;br&gt;30S ribosomal protein S8&lt;br&gt;Location: 7684 - 8083" locus_tag="GLPIOCIE_01726" class="clusterblast-orf" id="dummy-1_q2_0_all"  />
<polygon points="70,40 85,40 90,35 85,30 70,30 70,40 " style="fill:#8d15d8; stroke-width:1; stroke:black; " description="&lt;b&gt;GLPIOCIE_01727&lt;/b&gt;&lt;br&gt;50S ribosomal protein L6&lt;br&gt;Location: 8093 - 8627" locus_tag="GLPIOCIE_01727" class="clusterblast-orf" id="dummy-1_q3_0_all"  />
<polygon points="90,40 98,40 103,35 98,30 90,30 90,40 " style="fill:#d84215; stroke-width:1; stroke:black; " description="&lt;b&gt;GLPIOCIE_01728&lt;/b&gt;&lt;br&gt;50S ribosomal protein L18&lt;br&gt;Location: 8639 - 8999" locus_tag="GLPIOCIE_01728" class="clusterblast-orf" id="dummy-1_q4_0_all"  />
<polygon points="107,40 123,40 128,35 123,30 107,30 107,40 " style="fill:#33d815; stroke-width:1; stroke:black; " description="&lt;b&gt;GLPIOCIE_01729&lt;/b&gt;&lt;br&gt;30S ribosomal protein S5&lt;br&gt;Location: 9107 - 9674" locus_tag="GLPIOCIE_01729" class="clusterblast-orf" id="dummy-1_q5_0_all"  />
<polygon points="128,40 130,40 135,35 130,30 128,30 128,40 " style="fill:#157ed8; stroke-width:1; stroke:black; " description="&lt;b&gt;GLPIOCIE_01730&lt;/b&gt;&lt;br&gt;50S ribosomal protein L30&lt;br&gt;Location: 9686 - 9878" locus_tag="GLPIOCIE_01730" class="clusterblast-orf" id="dummy-1_q6_0_all"  />
<polygon points="151,40 163,40 168,35 163,30 151,30 151,40 " style="fill:#ba15d8; stroke-width:1; stroke:black; " description="&lt;b&gt;GLPIOCIE_01731&lt;/b&gt;&lt;br&gt;50S ribosomal protein L15&lt;br&gt;Location: 10303 - 10777" locus_tag="GLPIOCIE_01731" class="clusterblast-orf" id="dummy-1_q7_0_all"  />
<polygon points="171,40 217,40 222,35 217,30 171,30 171,40 " style="fill:#d86f15; stroke-width:1; stroke:black; " description="&lt;b&gt;GLPIOCIE_01732&lt;/b&gt;&lt;br&gt;Protein translocase subunit SecY&lt;br&gt;Location: 10866 - 12243" locus_tag="GLPIOCIE_01732" class="clusterblast-orf" id="dummy-1_q8_0_all"  />
<polygon points="222,40 241,40 246,35 241,30 222,30 222,40 " style="fill:#15d824; stroke-width:1; stroke:black; " description="&lt;b&gt;GLPIOCIE_01733&lt;/b&gt;&lt;br&gt;Adenylate kinase&lt;br&gt;Location: 12253 - 12913" locus_tag="GLPIOCIE_01733" class="clusterblast-orf" id="dummy-1_q9_0_all"  />
<polygon points="253,40 261,40 266,35 261,30 253,30 253,40 " style="fill:#1551d8; stroke-width:1; stroke:black; " description="&lt;b&gt;GLPIOCIE_01734&lt;/b&gt;&lt;br&gt;30S ribosomal protein S13&lt;br&gt;Location: 13101 - 13470" locus_tag="GLPIOCIE_01734" class="clusterblast-orf" id="dummy-1_q10_0_all"  />
<polygon points="267,40 276,40 281,35 276,30 267,30 267,40 " style="fill:#d815c9; stroke-width:1; stroke:black; " description="&lt;b&gt;GLPIOCIE_01735&lt;/b&gt;&lt;br&gt;30S ribosomal protein S11&lt;br&gt;Location: 13485 - 13875" locus_tag="GLPIOCIE_01735" class="clusterblast-orf" id="dummy-1_q11_0_all"  />
<polygon points="285,40 317,40 322,35 317,30 285,30 285,40 " style="fill:#d89c15; stroke-width:1; stroke:black; " description="&lt;b&gt;GLPIOCIE_01736&lt;/b&gt;&lt;br&gt;DNA-directed RNA polymerase subunit alpha&lt;br&gt;Location: 13990 - 15007" locus_tag="GLPIOCIE_01736" class="clusterblast-orf" id="dummy-1_q12_0_all"  />
<polygon points="329,40 339,40 344,35 339,30 329,30 329,40 " style="fill:#15d851; stroke-width:1; stroke:black; " description="&lt;b&gt;GLPIOCIE_01737&lt;/b&gt;&lt;br&gt;50S ribosomal protein L17&lt;br&gt;Location: 15177 - 15597" locus_tag="GLPIOCIE_01737" class="clusterblast-orf" id="dummy-1_q13_0_all"  />
<polygon points="348,35 353,30 354,30 354,40 353,40 348,35 " style="fill:#1524d8; stroke-width:1; stroke:black; " description="&lt;b&gt;GLPIOCIE_01738&lt;/b&gt;&lt;br&gt;hypothetical protein&lt;br&gt;Location: 15698 - 15881" locus_tag="GLPIOCIE_01738" class="clusterblast-orf" id="dummy-1_q14_0_all"  />
<polygon points="357,40 374,40 379,35 374,30 357,30 357,40 " style="fill:#d8159c; stroke-width:1; stroke:black; " description="&lt;b&gt;GLPIOCIE_01739&lt;/b&gt;&lt;br&gt;hypothetical protein&lt;br&gt;Location: 15957 - 16569" locus_tag="GLPIOCIE_01739" class="clusterblast-orf" id="dummy-1_q15_0_all"  />
<polygon points="382,40 398,40 403,35 398,30 382,30 382,40 " style="fill:#d8c915; stroke-width:1; stroke:black; " description="&lt;b&gt;GLPIOCIE_01740&lt;/b&gt;&lt;br&gt;Acyl-homoserine-lactone synthase&lt;br&gt;Location: 16631 - 17222" locus_tag="GLPIOCIE_01740" class="clusterblast-orf" id="dummy-1_q16_0_all"  />
<polygon points="406,40 449,40 454,35 449,30 406,30 406,40 " style="fill:#15d87e; stroke-width:1; stroke:black; " description="&lt;b&gt;GLPIOCIE_01741&lt;/b&gt;&lt;br&gt;Replication-associated recombination protein A&lt;br&gt;Location: 17293 - 18613" locus_tag="GLPIOCIE_01741" class="clusterblast-orf" id="dummy-1_q17_0_all"  />
<polygon points="455,40 464,40 469,35 464,30 455,30 455,40 " style="fill:#3315d8; stroke-width:1; stroke:black; " description="&lt;b&gt;GLPIOCIE_01742&lt;/b&gt;&lt;br&gt;Putative fluoride ion transporter CrcB&lt;br&gt;Location: 18645 - 19023" locus_tag="GLPIOCIE_01742" class="clusterblast-orf" id="dummy-1_q18_0_all"  />
<polygon points="469,40 502,40 507,35 502,30 469,30 469,40 " style="fill:#d8156f; stroke-width:1; stroke:black; " description="&lt;b&gt;GLPIOCIE_01743&lt;/b&gt;&lt;br&gt;Ribosomal large subunit pseudouridine synthase C&lt;br&gt;Location: 19019 - 20069" locus_tag="GLPIOCIE_01743" class="clusterblast-orf" id="dummy-1_q19_0_all"  />
<polygon points="507,40 526,40 531,35 526,30 507,30 507,40 " style="fill:#bad815; stroke-width:1; stroke:black; " description="&lt;b&gt;GLPIOCIE_01744&lt;/b&gt;&lt;br&gt;Pyrophosphatase PpaX&lt;br&gt;Location: 20068 - 20731" locus_tag="GLPIOCIE_01744" class="clusterblast-orf" id="dummy-1_q20_0_all"  />
<polygon points="531,40 552,40 557,35 552,30 531,30 531,40 " style="fill:#15d8ab; stroke-width:1; stroke:black; " description="&lt;b&gt;GLPIOCIE_01745&lt;/b&gt;&lt;br&gt;hypothetical protein&lt;br&gt;Location: 20727 - 21438" locus_tag="GLPIOCIE_01745" class="clusterblast-orf" id="dummy-1_q21_0_all"  />
<polygon points="564,40 596,40 601,35 596,30 564,30 564,40 " style="fill:#6015d8; stroke-width:1; stroke:black; " description="&lt;b&gt;GLPIOCIE_01746&lt;/b&gt;&lt;br&gt;Putative amino-acid ABC transporter-binding protein YhdW&lt;br&gt;Location: 21644 - 22661" locus_tag="GLPIOCIE_01746" class="clusterblast-orf" id="dummy-1_q22_0_all"  />
<polygon points="606,40 647,40 652,35 647,30 606,30 606,40 " style="fill:#d81542; stroke-width:1; stroke:black; " description="&lt;b&gt;GLPIOCIE_01747&lt;/b&gt;&lt;br&gt;hypothetical protein&lt;br&gt;Location: 22780 - 24058" locus_tag="GLPIOCIE_01747" class="clusterblast-orf" id="dummy-1_q23_0_all"  />
<polygon points="652,40 701,40 706,35 701,30 652,30 652,40 " style="fill:#d81542; stroke-width:1; stroke:black; " description="&lt;b&gt;GLPIOCIE_01748&lt;/b&gt;&lt;br&gt;hypothetical protein&lt;br&gt;Location: 24059 - 25535" locus_tag="GLPIOCIE_01748" class="clusterblast-orf" id="dummy-1_q24_0_all"  />
<polygon points="707,40 731,40 736,35 731,30 707,30 707,40 " style="fill:#8dd815; stroke-width:1; stroke:black; " description="&lt;b&gt;GLPIOCIE_01749&lt;/b&gt;&lt;br&gt;Glutamine transport ATP-binding protein GlnQ&lt;br&gt;Location: 25545 - 26340" locus_tag="GLPIOCIE_01749" class="clusterblast-orf" id="dummy-1_q25_0_all"  />
<polygon points="738,35 743,30 757,30 757,40 743,40 738,35 " style="fill:#15d8d8; stroke-width:1; stroke:black; " description="&lt;b&gt;GLPIOCIE_01750&lt;/b&gt;&lt;br&gt;hypothetical protein&lt;br&gt;Location: 26412 - 26931" locus_tag="GLPIOCIE_01750" class="clusterblast-orf" id="dummy-1_q26_0_all"  />
</g>
<g label="NZ_SNYP01000002" description="NZ_SNYP01000002 (59722-81693): Rhodobacter veldkampii DSM 11550 Ga0310482 102... (90% of genes show similarity), hserlactone" class="clusterblast-cluster"  >
<text x="5" y="70" class="clusterblast-acc"  >
<a xlink:href="https://antismash-db.secondarymetabolites.org/area.html?record=NZ_SNYP01000002&amp;start=59722&amp;end=81693" target="_blank">NZ_SNYP01000002 (59722-81693)</a>: Rhodobacter veldkampii DSM 11550 Ga0310482 102... (90% of genes show similarity), hserlactone</text>
<line x1="10" y1="85" x2="778.0" y2="85" style="stroke-width:1; stroke:grey; "  />
</g>
<g id="a1_000"  >
<polygon points="0,90 8,90 13,85 8,80 0,80 0,90 " style="fill:white; stroke-width:1; stroke:black; " description="&lt;b&gt;EV658_RS01630&lt;/b&gt;&lt;br&gt;50S ribosomal protein L14&lt;br&gt;Location: 81565 - 81197" locus_tag="EV658_RS01630" class="clusterblast-orf" id="dummy-1_h1_6_0"  />
</g>
<g id="a1_001"  >
<polygon points="13,90 19,90 24,85 19,80 13,80 13,90 " style="fill:white; stroke-width:1; stroke:black; " description="&lt;b&gt;EV658_RS01625&lt;/b&gt;&lt;br&gt;50S ribosomal protein L24&lt;br&gt;Location: 81197 - 80892" locus_tag="EV658_RS01625" class="clusterblast-orf" id="dummy-1_h1_6_1"  />
</g>
<g id="a1_002"  >
<polygon points="24,90 39,90 44,85 39,80 24,80 24,90 " style="fill:#d81515; stroke-width:1; stroke:black; " description="&lt;b&gt;EV658_RS01620&lt;/b&gt;&lt;br&gt;50S ribosomal protein L5&lt;br&gt;Location: 80892 - 80332&lt;br&gt;&lt;br&gt;&lt;b&gt;BlastP hit with GLPIOCIE_01724&lt;/b&gt;&lt;br&gt;Percentage identity: 89&lt;br&gt;Percentage coverage: 100&lt;br&gt;BLAST bit score: 328&lt;br&gt;E-value: 1.21e-114" locus_tag="EV658_RS01620" class="clusterblast-orf" id="dummy-1_h1_6_2"  />
</g>
<g id="a1_003"  >
<polygon points="45,90 51,90 56,85 51,80 45,80 45,90 " style="fill:#60d815; stroke-width:1; stroke:black; " description="&lt;b&gt;EV658_RS01615&lt;/b&gt;&lt;br&gt;30S ribosomal protein S14&lt;br&gt;Location: 80314 - 80009&lt;br&gt;&lt;br&gt;&lt;b&gt;BlastP hit with GLPIOCIE_01725&lt;/b&gt;&lt;br&gt;Percentage identity: 86&lt;br&gt;Percentage coverage: 100&lt;br&gt;BLAST bit score: 173&lt;br&gt;E-value: 4.36e-56" locus_tag="EV658_RS01615" class="clusterblast-orf" id="dummy-1_h1_6_3"  />
</g>
<g id="a1_004"  >
<polygon points="57,90 66,90 71,85 66,80 57,80 57,90 " style="fill:#15abd8; stroke-width:1; stroke:black; " description="&lt;b&gt;EV658_RS01610&lt;/b&gt;&lt;br&gt;30S ribosomal protein S8&lt;br&gt;Location: 79992 - 79600&lt;br&gt;&lt;br&gt;&lt;b&gt;BlastP hit with GLPIOCIE_01726&lt;/b&gt;&lt;br&gt;Percentage identity: 85&lt;br&gt;Percentage coverage: 98&lt;br&gt;BLAST bit score: 219&lt;br&gt;E-value: 1.97e-73" locus_tag="EV658_RS01610" class="clusterblast-orf" id="dummy-1_h1_6_4"  />
</g>
<g id="a1_005"  >
<polygon points="72,90 86,90 91,85 86,80 72,80 72,90 " style="fill:#8d15d8; stroke-width:1; stroke:black; " description="&lt;b&gt;EV658_RS01605&lt;/b&gt;&lt;br&gt;50S ribosomal protein L6&lt;br&gt;Location: 79589 - 79056&lt;br&gt;&lt;br&gt;&lt;b&gt;BlastP hit with GLPIOCIE_01727&lt;/b&gt;&lt;br&gt;Percentage identity: 80&lt;br&gt;Percentage coverage: 100&lt;br&gt;BLAST bit score: 284&lt;br&gt;E-value: 1.46e-97" locus_tag="EV658_RS01605" class="clusterblast-orf" id="dummy-1_h1_6_5"  />
</g>
<g id="a1_006"  >
<polygon points="91,90 100,90 105,85 100,80 91,80 91,90 " style="fill:#d84215; stroke-width:1; stroke:black; " description="&lt;b&gt;EV658_RS01600&lt;/b&gt;&lt;br&gt;50S ribosomal protein L18&lt;br&gt;Location: 79044 - 78685&lt;br&gt;&lt;br&gt;&lt;b&gt;BlastP hit with GLPIOCIE_01728&lt;/b&gt;&lt;br&gt;Percentage identity: 88&lt;br&gt;Percentage coverage: 100&lt;br&gt;BLAST bit score: 205&lt;br&gt;E-value: 3.55e-68" locus_tag="EV658_RS01600" class="clusterblast-orf" id="dummy-1_h1_6_6"  />
</g>
<g id="a1_007"  >
<polygon points="105,90 121,90 126,85 121,80 105,80 105,90 " style="fill:#33d815; stroke-width:1; stroke:black; " description="&lt;b&gt;EV658_RS01595&lt;/b&gt;&lt;br&gt;30S ribosomal protein S5&lt;br&gt;Location: 78674 - 78108&lt;br&gt;&lt;br&gt;&lt;b&gt;BlastP hit with GLPIOCIE_01729&lt;/b&gt;&lt;br&gt;Percentage identity: 85&lt;br&gt;Percentage coverage: 99&lt;br&gt;BLAST bit score: 295&lt;br&gt;E-value: 2.54e-101" locus_tag="EV658_RS01595" class="clusterblast-orf" id="dummy-1_h1_6_7"  />
</g>
<g id="a1_008"  >
<polygon points="126,90 128,90 133,85 128,80 126,80 126,90 " style="fill:#157ed8; stroke-width:1; stroke:black; " description="&lt;b&gt;EV658_RS01590&lt;/b&gt;&lt;br&gt;50S ribosomal protein L30&lt;br&gt;Location: 78096 - 77905&lt;br&gt;&lt;br&gt;&lt;b&gt;BlastP hit with GLPIOCIE_01730&lt;/b&gt;&lt;br&gt;Percentage identity: 75&lt;br&gt;Percentage coverage: 100&lt;br&gt;BLAST bit score: 93&lt;br&gt;E-value: 2.31e-25" locus_tag="EV658_RS01590" class="clusterblast-orf" id="dummy-1_h1_6_8"  />
</g>
<g id="a1_009"  >
<polygon points="137,90 149,90 154,85 149,80 137,80 137,90 " style="fill:#ba15d8; stroke-width:1; stroke:black; " description="&lt;b&gt;EV658_RS01585&lt;/b&gt;&lt;br&gt;50S ribosomal protein L15&lt;br&gt;Location: 77799 - 77329&lt;br&gt;&lt;br&gt;&lt;b&gt;BlastP hit with GLPIOCIE_01731&lt;/b&gt;&lt;br&gt;Percentage identity: 67&lt;br&gt;Percentage coverage: 96&lt;br&gt;BLAST bit score: 183&lt;br&gt;E-value: 3.6e-58" locus_tag="EV658_RS01585" class="clusterblast-orf" id="dummy-1_h1_6_9"  />
</g>
<g id="a1_0010"  >
<polygon points="158,90 202,90 207,85 202,80 158,80 158,90 " style="fill:#d86f15; stroke-width:1; stroke:black; " description="&lt;b&gt;EV658_RS01580&lt;/b&gt;&lt;br&gt;preprotein translocase subunit SecY&lt;br&gt;Location: 77227 - 75866&lt;br&gt;&lt;br&gt;&lt;b&gt;BlastP hit with GLPIOCIE_01732&lt;/b&gt;&lt;br&gt;Percentage identity: 85&lt;br&gt;Percentage coverage: 99&lt;br&gt;BLAST bit score: 765&lt;br&gt;E-value: 1.88e-278" locus_tag="EV658_RS01580" class="clusterblast-orf" id="dummy-1_h1_6_10"  />
</g>
<g id="a1_0011"  >
<polygon points="208,90 227,90 232,85 227,80 208,80 208,90 " style="fill:#15d824; stroke-width:1; stroke:black; " description="&lt;b&gt;EV658_RS01575&lt;/b&gt;&lt;br&gt;adenylate kinase&lt;br&gt;Location: 75851 - 75195&lt;br&gt;&lt;br&gt;&lt;b&gt;BlastP hit with GLPIOCIE_01733&lt;/b&gt;&lt;br&gt;Percentage identity: 79&lt;br&gt;Percentage coverage: 98&lt;br&gt;BLAST bit score: 337&lt;br&gt;E-value: 4.35e-117" locus_tag="EV658_RS01575" class="clusterblast-orf" id="dummy-1_h1_6_11"  />
</g>
<g id="a1_0012"  >
<polygon points="239,90 247,90 252,85 247,80 239,80 239,90 " style="fill:#1551d8; stroke-width:1; stroke:black; " description="&lt;b&gt;EV658_RS01570&lt;/b&gt;&lt;br&gt;30S ribosomal protein S13&lt;br&gt;Location: 75011 - 74643&lt;br&gt;&lt;br&gt;&lt;b&gt;BlastP hit with GLPIOCIE_01734&lt;/b&gt;&lt;br&gt;Percentage identity: 89&lt;br&gt;Percentage coverage: 100&lt;br&gt;BLAST bit score: 213&lt;br&gt;E-value: 3.94e-71" locus_tag="EV658_RS01570" class="clusterblast-orf" id="dummy-1_h1_6_12"  />
</g>
<g id="a1_0013"  >
<polygon points="253,90 262,90 267,85 262,80 253,80 253,90 " style="fill:#d815c9; stroke-width:1; stroke:black; " description="&lt;b&gt;EV658_RS01565&lt;/b&gt;&lt;br&gt;30S ribosomal protein S11&lt;br&gt;Location: 74627 - 74238&lt;br&gt;&lt;br&gt;&lt;b&gt;BlastP hit with GLPIOCIE_01735&lt;/b&gt;&lt;br&gt;Percentage identity: 95&lt;br&gt;Percentage coverage: 100&lt;br&gt;BLAST bit score: 239&lt;br&gt;E-value: 2.82e-81" locus_tag="EV658_RS01565" class="clusterblast-orf" id="dummy-1_h1_6_13"  />
</g>
<g id="a1_0014"  >
<polygon points="271,90 303,90 308,85 303,80 271,80 271,90 " style="fill:#d89c15; stroke-width:1; stroke:black; " description="&lt;b&gt;EV658_RS01560&lt;/b&gt;&lt;br&gt;DNA-directed RNA polymerase subunit alpha&lt;br&gt;Location: 74120 - 73104&lt;br&gt;&lt;br&gt;&lt;b&gt;BlastP hit with GLPIOCIE_01736&lt;/b&gt;&lt;br&gt;Percentage identity: 88&lt;br&gt;Percentage coverage: 100&lt;br&gt;BLAST bit score: 610&lt;br&gt;E-value: 5.34e-221" locus_tag="EV658_RS01560" class="clusterblast-orf" id="dummy-1_h1_6_14"  />
</g>
<g id="a1_0015"  >
<polygon points="314,90 324,90 329,85 324,80 314,80 314,90 " style="fill:#15d851; stroke-width:1; stroke:black; " description="&lt;b&gt;EV658_RS01555&lt;/b&gt;&lt;br&gt;50S ribosomal protein L17&lt;br&gt;Location: 72946 - 72530&lt;br&gt;&lt;br&gt;&lt;b&gt;BlastP hit with GLPIOCIE_01737&lt;/b&gt;&lt;br&gt;Percentage identity: 86&lt;br&gt;Percentage coverage: 99&lt;br&gt;BLAST bit score: 239&lt;br&gt;E-value: 8.12e-81" locus_tag="EV658_RS01555" class="clusterblast-orf" id="dummy-1_h1_6_15"  />
</g>
<g id="a1_0016"  >
<polygon points="335,90 352,90 357,85 352,80 335,80 335,90 " style="fill:#d8159c; stroke-width:1; stroke:black; " description="&lt;b&gt;EV658_RS01550&lt;/b&gt;&lt;br&gt;LuxR family transcriptional regulator&lt;br&gt;Location: 72361 - 71750&lt;br&gt;&lt;br&gt;&lt;b&gt;BlastP hit with GLPIOCIE_01739&lt;/b&gt;&lt;br&gt;Percentage identity: 70&lt;br&gt;Percentage coverage: 97&lt;br&gt;BLAST bit score: 279&lt;br&gt;E-value: 9.47e-95" locus_tag="EV658_RS01550" class="clusterblast-orf" id="dummy-1_h1_6_16"  />
</g>
<g id="a1_0017"  >
<polygon points="360,90 376,90 381,85 376,80 360,80 360,90 " style="fill:#d8c915; stroke-width:1; stroke:black; " description="&lt;b&gt;EV658_RS01545&lt;/b&gt;&lt;br&gt;N-acyl-L-homoserine lactone synthetase&lt;br&gt;Location: 71693 - 71103&lt;br&gt;&lt;br&gt;&lt;b&gt;BlastP hit with GLPIOCIE_01740&lt;/b&gt;&lt;br&gt;Percentage identity: 62&lt;br&gt;Percentage coverage: 100&lt;br&gt;BLAST bit score: 261&lt;br&gt;E-value: 1.15e-87" locus_tag="EV658_RS01545" class="clusterblast-orf" id="dummy-1_h1_6_17"  />
</g>
<g id="a1_0018"  >
<polygon points="386,90 403,90 408,85 403,80 386,80 386,90 " style="fill:#d8159c; stroke-width:1; stroke:black; " description="&lt;b&gt;EV658_RS01540&lt;/b&gt;&lt;br&gt;LuxR family transcriptional regulator&lt;br&gt;Location: 70977 - 70366&lt;br&gt;&lt;br&gt;&lt;b&gt;BlastP hit with GLPIOCIE_01739&lt;/b&gt;&lt;br&gt;Percentage identity: 53&lt;br&gt;Percentage coverage: 97&lt;br&gt;BLAST bit score: 209&lt;br&gt;E-value: 4.35e-67" locus_tag="EV658_RS01540" class="clusterblast-orf" id="dummy-1_h1_6_18"  />
</g>
<g id="a1_0019"  >
<polygon points="410,90 426,90 431,85 426,80 410,80 410,90 " style="fill:#d8c915; stroke-width:1; stroke:black; " description="&lt;b&gt;EV658_RS01535&lt;/b&gt;&lt;br&gt;N-acyl-L-homoserine lactone synthetase&lt;br&gt;Location: 70310 - 69723&lt;br&gt;&lt;br&gt;&lt;b&gt;BlastP hit with GLPIOCIE_01740&lt;/b&gt;&lt;br&gt;Percentage identity: 60&lt;br&gt;Percentage coverage: 100&lt;br&gt;BLAST bit score: 248&lt;br&gt;E-value: 1.65e-82" locus_tag="EV658_RS01535" class="clusterblast-orf" id="dummy-1_h1_6_19"  />
</g>
<g id="a1_0020"  >
<polygon points="433,90 476,90 481,85 476,80 433,80 433,90 " style="fill:#15d87e; stroke-width:1; stroke:black; " description="&lt;b&gt;EV658_RS01530&lt;/b&gt;&lt;br&gt;replication-associated recombination protein A&lt;br&gt;Location: 69670 - 68360&lt;br&gt;&lt;br&gt;&lt;b&gt;BlastP hit with GLPIOCIE_01741&lt;/b&gt;&lt;br&gt;Percentage identity: 81&lt;br&gt;Percentage coverage: 100&lt;br&gt;BLAST bit score: 691&lt;br&gt;E-value: 1.15e-249" locus_tag="EV658_RS01530" class="clusterblast-orf" id="dummy-1_h1_6_20"  />
</g>
<g id="a1_0021"  >
<polygon points="484,90 493,90 498,85 493,80 484,80 484,90 " style="fill:#3315d8; stroke-width:1; stroke:black; " description="&lt;b&gt;EV658_RS01525&lt;/b&gt;&lt;br&gt;fluoride efflux transporter CrcB&lt;br&gt;Location: 68281 - 67904&lt;br&gt;&lt;br&gt;&lt;b&gt;BlastP hit with GLPIOCIE_01742&lt;/b&gt;&lt;br&gt;Percentage identity: 70&lt;br&gt;Percentage coverage: 100&lt;br&gt;BLAST bit score: 162&lt;br&gt;E-value: 4.5e-51" locus_tag="EV658_RS01525" class="clusterblast-orf" id="dummy-1_h1_6_21"  />
</g>
<g id="a1_0022"  >
<polygon points="498,90 531,90 536,85 531,80 498,80 498,90 " style="fill:#d8156f; stroke-width:1; stroke:black; " description="&lt;b&gt;EV658_RS01520&lt;/b&gt;&lt;br&gt;RluA family pseudouridine synthase&lt;br&gt;Location: 67907 - 66858&lt;br&gt;&lt;br&gt;&lt;b&gt;BlastP hit with GLPIOCIE_01743&lt;/b&gt;&lt;br&gt;Percentage identity: 78&lt;br&gt;Percentage coverage: 100&lt;br&gt;BLAST bit score: 557&lt;br&gt;E-value: 6.45e-200" locus_tag="EV658_RS01520" class="clusterblast-orf" id="dummy-1_h1_6_22"  />
</g>
<g id="a1_0023"  >
<polygon points="536,90 555,90 560,85 555,80 536,80 536,90 " style="fill:#bad815; stroke-width:1; stroke:black; " description="&lt;b&gt;EV658_RS01515&lt;/b&gt;&lt;br&gt;HAD-IA family hydrolase&lt;br&gt;Location: 66858 - 66190&lt;br&gt;&lt;br&gt;&lt;b&gt;BlastP hit with GLPIOCIE_01744&lt;/b&gt;&lt;br&gt;Percentage identity: 57&lt;br&gt;Percentage coverage: 100&lt;br&gt;BLAST bit score: 233&lt;br&gt;E-value: 5.93e-76" locus_tag="EV658_RS01515" class="clusterblast-orf" id="dummy-1_h1_6_23"  />
</g>
<g id="a1_0024"  >
<polygon points="560,90 581,90 586,85 581,80 560,80 560,90 " style="fill:#15d8ab; stroke-width:1; stroke:black; " description="&lt;b&gt;EV658_RS01510&lt;/b&gt;&lt;br&gt;ATPase&lt;br&gt;Location: 66193 - 65474&lt;br&gt;&lt;br&gt;&lt;b&gt;BlastP hit with GLPIOCIE_01745&lt;/b&gt;&lt;br&gt;Percentage identity: 55&lt;br&gt;Percentage coverage: 97&lt;br&gt;BLAST bit score: 243&lt;br&gt;E-value: 1.5e-79" locus_tag="EV658_RS01510" class="clusterblast-orf" id="dummy-1_h1_6_24"  />
</g>
<g id="a1_0025"  >
<polygon points="594,90 626,90 631,85 626,80 594,80 594,90 " style="fill:#6015d8; stroke-width:1; stroke:black; " description="&lt;b&gt;EV658_RS01505&lt;/b&gt;&lt;br&gt;amino acid ABC transporter substrate-binding protein&lt;br&gt;Location: 65262 - 64246&lt;br&gt;&lt;br&gt;&lt;b&gt;BlastP hit with GLPIOCIE_01746&lt;/b&gt;&lt;br&gt;Percentage identity: 84&lt;br&gt;Percentage coverage: 100&lt;br&gt;BLAST bit score: 590&lt;br&gt;E-value: 2.22e-213" locus_tag="EV658_RS01505" class="clusterblast-orf" id="dummy-1_h1_6_25"  />
</g>
<g id="a1_0026"  >
<polygon points="636,90 677,90 682,85 677,80 636,80 636,90 " style="fill:#d81542; stroke-width:1; stroke:black; " description="&lt;b&gt;EV658_RS01500&lt;/b&gt;&lt;br&gt;ABC transporter permease subunit&lt;br&gt;Location: 64105 - 62840&lt;br&gt;&lt;br&gt;&lt;b&gt;BlastP hit with GLPIOCIE_01747&lt;/b&gt;&lt;br&gt;Percentage identity: 66&lt;br&gt;Percentage coverage: 100&lt;br&gt;BLAST bit score: 529&lt;br&gt;E-value: 2.08e-186&lt;br&gt;&lt;br&gt;&lt;b&gt;BlastP hit with GLPIOCIE_01748&lt;/b&gt;&lt;br&gt;Percentage identity: 36&lt;br&gt;Percentage coverage: 29&lt;br&gt;BLAST bit score: 80&lt;br&gt;E-value: 5.79e-14" locus_tag="EV658_RS01500" class="clusterblast-orf" id="dummy-1_h1_6_26"  />
</g>
<g id="a1_0027"  >
<polygon points="682,90 725,90 730,85 725,80 682,80 682,90 " style="fill:#d81542; stroke-width:1; stroke:black; " description="&lt;b&gt;EV658_RS01495&lt;/b&gt;&lt;br&gt;amino acid ABC transporter permease&lt;br&gt;Location: 62838 - 61531&lt;br&gt;&lt;br&gt;&lt;b&gt;BlastP hit with GLPIOCIE_01747&lt;/b&gt;&lt;br&gt;Percentage identity: 47&lt;br&gt;Percentage coverage: 18&lt;br&gt;BLAST bit score: 70&lt;br&gt;E-value: 7.65e-11&lt;br&gt;&lt;br&gt;&lt;b&gt;BlastP hit with GLPIOCIE_01748&lt;/b&gt;&lt;br&gt;Percentage identity: 58&lt;br&gt;Percentage coverage: 98&lt;br&gt;BLAST bit score: 508&lt;br&gt;E-value: 6.24e-177" locus_tag="EV658_RS01495" class="clusterblast-orf" id="dummy-1_h1_6_27"  />
</g>
<g id="a1_0028"  >
<polygon points="730,90 754,90 759,85 754,80 730,80 730,90 " style="fill:#8dd815; stroke-width:1; stroke:black; " description="&lt;b&gt;EV658_RS01490&lt;/b&gt;&lt;br&gt;amino acid ABC transporter ATP-binding protein&lt;br&gt;Location: 61521 - 60730&lt;br&gt;&lt;br&gt;&lt;b&gt;BlastP hit with GLPIOCIE_01749&lt;/b&gt;&lt;br&gt;Percentage identity: 89&lt;br&gt;Percentage coverage: 100&lt;br&gt;BLAST bit score: 471&lt;br&gt;E-value: 1.78e-168" locus_tag="EV658_RS01490" class="clusterblast-orf" id="dummy-1_h1_6_28"  />
</g>
<g id="a1_0029"  >
<polygon points="766,90 775,90 780,85 775,80 766,80 766,90 " style="fill:white; stroke-width:1; stroke:black; " description="&lt;b&gt;EV658_RS01485&lt;/b&gt;&lt;br&gt;2Fe-2S iron-sulfur cluster binding domain-containing protein&lt;br&gt;Location: 60544 - 60176" locus_tag="EV658_RS01485" class="clusterblast-orf" id="dummy-1_h1_6_29"  />
</g>
</svg>
