<svg xmlns="http://www.w3.org/2000/svg" xmlns:xlink="http://www.w3.org/1999/xlink" version="1.1" x="0" y="0" height="230" width="800" viewBox="0 0 800 230" preserveAspectRatio="none"  >
<g label="Query sequence" class="clusterblast-cluster"  >
<text x="5" y="20" class="clusterblast-acc"  >
Query sequence</text>
<line x1="10" y1="35" x2="778.0" y2="35" style="stroke-width:1; stroke:grey; "  />
<polygon points="201,40 232,40 237,35 232,30 201,30 201,40 " style="fill:white; stroke-width:1; stroke:black; " description="&lt;b&gt;GLPIOCIE_00748&lt;/b&gt;&lt;br&gt;hypothetical protein&lt;br&gt;Location: 92880 - 94695" locus_tag="GLPIOCIE_00748" class="clusterblast-orf" id="dummy-1_q0_0_all"  />
<polygon points="237,40 239,35 237,30 237,40 " style="fill:white; stroke-width:1; stroke:black; " description="&lt;b&gt;GLPIOCIE_00749&lt;/b&gt;&lt;br&gt;hypothetical protein&lt;br&gt;Location: 94696 - 94813" locus_tag="GLPIOCIE_00749" class="clusterblast-orf" id="dummy-1_q1_0_all"  />
<polygon points="241,40 242,40 247,35 242,30 241,30 241,40 " style="fill:white; stroke-width:1; stroke:black; " description="&lt;b&gt;GLPIOCIE_00750&lt;/b&gt;&lt;br&gt;hypothetical protein&lt;br&gt;Location: 94894 - 95212" locus_tag="GLPIOCIE_00750" class="clusterblast-orf" id="dummy-1_q2_0_all"  />
<polygon points="247,35 252,30 269,30 269,40 252,40 247,35 " style="fill:white; stroke-width:1; stroke:black; " description="&lt;b&gt;GLPIOCIE_00751&lt;/b&gt;&lt;br&gt;GTPase HflX&lt;br&gt;Location: 95221 - 96328" locus_tag="GLPIOCIE_00751" class="clusterblast-orf" id="dummy-1_q3_0_all"  />
<polygon points="272,35 277,30 277,30 277,40 277,40 272,35 " style="fill:white; stroke-width:1; stroke:black; " description="&lt;b&gt;GLPIOCIE_00752&lt;/b&gt;&lt;br&gt;RNA-binding protein Hfq&lt;br&gt;Location: 96519 - 96753" locus_tag="GLPIOCIE_00752" class="clusterblast-orf" id="dummy-1_q4_0_all"  />
<polygon points="280,35 285,30 309,30 309,40 285,40 280,35 " style="fill:white; stroke-width:1; stroke:black; " description="&lt;b&gt;GLPIOCIE_00753&lt;/b&gt;&lt;br&gt;Trk system potassium uptake protein TrkH&lt;br&gt;Location: 96906 - 98394" locus_tag="GLPIOCIE_00753" class="clusterblast-orf" id="dummy-1_q5_0_all"  />
<polygon points="310,35 315,30 337,30 337,40 315,40 310,35 " style="fill:white; stroke-width:1; stroke:black; " description="&lt;b&gt;GLPIOCIE_00754&lt;/b&gt;&lt;br&gt;Trk system potassium uptake protein TrkA&lt;br&gt;Location: 98424 - 99801" locus_tag="GLPIOCIE_00754" class="clusterblast-orf" id="dummy-1_q6_0_all"  />
<polygon points="340,40 352,40 357,35 352,30 340,30 340,40 " style="fill:white; stroke-width:1; stroke:black; " description="&lt;b&gt;GLPIOCIE_00755&lt;/b&gt;&lt;br&gt;Polyphosphate:NDP phosphotransferase 3&lt;br&gt;Location: 99953 - 100850" locus_tag="GLPIOCIE_00755" class="clusterblast-orf" id="dummy-1_q7_0_all"  />
<polygon points="357,40 364,40 369,35 364,30 357,30 357,40 " style="fill:white; stroke-width:1; stroke:black; " description="&lt;b&gt;GLPIOCIE_00756&lt;/b&gt;&lt;br&gt;hypothetical protein&lt;br&gt;Location: 100842 - 101463" locus_tag="GLPIOCIE_00756" class="clusterblast-orf" id="dummy-1_q8_0_all"  />
<polygon points="371,40 389,40 394,35 389,30 371,30 371,40 " style="fill:#d81515; stroke-width:1; stroke:black; " description="&lt;b&gt;GLPIOCIE_00757&lt;/b&gt;&lt;br&gt;Riboflavin transporter RfnT&lt;br&gt;Location: 101536 - 102760" locus_tag="GLPIOCIE_00757" class="clusterblast-orf" id="dummy-1_q9_0_all"  />
<polygon points="394,35 399,30 409,30 409,40 399,40 394,35 " style="fill:#4dd815; stroke-width:1; stroke:black; " description="&lt;b&gt;GLPIOCIE_00758&lt;/b&gt;&lt;br&gt;hypothetical protein&lt;br&gt;Location: 102756 - 103527" locus_tag="GLPIOCIE_00758" class="clusterblast-orf" id="dummy-1_q10_0_all"  />
<polygon points="409,35 414,30 441,30 441,40 414,40 409,35 " style="fill:#1585d8; stroke-width:1; stroke:black; " description="&lt;b&gt;GLPIOCIE_00759&lt;/b&gt;&lt;br&gt;(R)-citramalate synthase&lt;br&gt;Location: 103523 - 105143" locus_tag="GLPIOCIE_00759" class="clusterblast-orf" id="dummy-1_q11_0_all"  />
<polygon points="441,35 446,30 469,30 469,40 446,40 441,35 " style="fill:#d815bc; stroke-width:1; stroke:black; " description="&lt;b&gt;GLPIOCIE_00760&lt;/b&gt;&lt;br&gt;Cysteine--tRNA ligase&lt;br&gt;Location: 105156 - 106551" locus_tag="GLPIOCIE_00760" class="clusterblast-orf" id="dummy-1_q12_0_all"  />
<polygon points="474,35 479,30 487,30 487,40 479,40 474,35 " style="fill:#d8bc15; stroke-width:1; stroke:black; " description="&lt;b&gt;GLPIOCIE_00761&lt;/b&gt;&lt;br&gt;hypothetical protein&lt;br&gt;Location: 106848 - 107469" locus_tag="GLPIOCIE_00761" class="clusterblast-orf" id="dummy-1_q13_0_all"  />
<polygon points="492,40 504,40 509,35 504,30 492,30 492,40 " style="fill:#15d885; stroke-width:1; stroke:black; " description="&lt;b&gt;GLPIOCIE_00762&lt;/b&gt;&lt;br&gt;hypothetical protein&lt;br&gt;Location: 107760 - 108618" locus_tag="GLPIOCIE_00762" class="clusterblast-orf" id="dummy-1_q14_0_all"  />
<polygon points="510,35 515,30 522,30 522,40 515,40 510,35 " style="fill:#4d15d8; stroke-width:1; stroke:black; " description="&lt;b&gt;GLPIOCIE_00763&lt;/b&gt;&lt;br&gt;hypothetical protein&lt;br&gt;Location: 108659 - 109262" locus_tag="GLPIOCIE_00763" class="clusterblast-orf" id="dummy-1_q15_0_all"  />
<polygon points="528,40 542,40 547,35 542,30 528,30 528,40 " style="fill:white; stroke-width:1; stroke:black; " description="&lt;b&gt;GLPIOCIE_00764&lt;/b&gt;&lt;br&gt;Acetyl esterase&lt;br&gt;Location: 109601 - 110534" locus_tag="GLPIOCIE_00764" class="clusterblast-orf" id="dummy-1_q16_0_all"  />
<polygon points="549,40 573,40 578,35 573,30 549,30 549,40 " style="fill:white; stroke-width:1; stroke:black; " description="&lt;b&gt;GLPIOCIE_00765&lt;/b&gt;&lt;br&gt;Choline-sulfatase&lt;br&gt;Location: 110639 - 112151" locus_tag="GLPIOCIE_00765" class="clusterblast-orf" id="dummy-1_q17_0_all"  />
</g>
<g label="NZ_OAOQ01000001" description="NZ_OAOQ01000001 (323718-364255): Rhodobacter ovatus strain JA234, whole genom... (12% of genes show similarity), hserlactone,terpene" class="clusterblast-cluster"  >
<text x="5" y="70" class="clusterblast-acc"  >
<a xlink:href="https://antismash-db.secondarymetabolites.org/area.html?record=NZ_OAOQ01000001&amp;start=323718&amp;end=364255" target="_blank">NZ_OAOQ01000001 (323718-364255)</a>: Rhodobacter ovatus strain JA234, whole genom... (12% of genes show similarity), hserlactone,terpene</text>
<line x1="10" y1="85" x2="778.0" y2="85" style="stroke-width:1; stroke:grey; "  />
</g>
<g id="a1_000"  >
<polygon points="0,85 5,80 51,80 51,90 5,90 0,85 " style="fill:white; stroke-width:1; stroke:black; " description="&lt;b&gt;CRO07_RS01715&lt;/b&gt;&lt;br&gt;hypothetical protein&lt;br&gt;Location: 364199 - 361566" locus_tag="CRO07_RS01715" class="clusterblast-orf" id="dummy-1_h1_8_0"  />
</g>
<g id="a1_001"  >
<polygon points="51,85 56,80 73,80 73,90 56,90 51,85 " style="fill:white; stroke-width:1; stroke:black; " description="&lt;b&gt;CRO07_RS01710&lt;/b&gt;&lt;br&gt;DNA repair exonuclease&lt;br&gt;Location: 361569 - 360448" locus_tag="CRO07_RS01710" class="clusterblast-orf" id="dummy-1_h1_8_1"  />
</g>
<g id="a1_002"  >
<polygon points="75,85 80,80 97,80 97,90 80,90 75,85 " style="fill:white; stroke-width:1; stroke:black; " description="&lt;b&gt;CRO07_RS01705&lt;/b&gt;&lt;br&gt;ABC transporter permease&lt;br&gt;Location: 360357 - 359227" locus_tag="CRO07_RS01705" class="clusterblast-orf" id="dummy-1_h1_8_2"  />
</g>
<g id="a1_003"  >
<polygon points="97,85 102,80 116,80 116,90 102,90 97,85 " style="fill:white; stroke-width:1; stroke:black; " description="&lt;b&gt;CRO07_RS01700&lt;/b&gt;&lt;br&gt;ABC transporter ATP-binding protein&lt;br&gt;Location: 359230 - 358244" locus_tag="CRO07_RS01700" class="clusterblast-orf" id="dummy-1_h1_8_3"  />
</g>
<g id="a1_004"  >
<polygon points="116,85 121,80 135,80 135,90 121,90 116,85 " style="fill:white; stroke-width:1; stroke:black; " description="&lt;b&gt;CRO07_RS01695&lt;/b&gt;&lt;br&gt;HlyD family efflux transporter periplasmic adaptor subunit&lt;br&gt;Location: 358229 - 357294" locus_tag="CRO07_RS01695" class="clusterblast-orf" id="dummy-1_h1_8_4"  />
</g>
<g id="a1_005"  >
<polygon points="134,85 139,80 147,80 147,90 139,90 134,85 " style="fill:white; stroke-width:1; stroke:black; " description="&lt;b&gt;CRO07_RS01690&lt;/b&gt;&lt;br&gt;TetR/AcrR family transcriptional regulator&lt;br&gt;Location: 357297 - 356641" locus_tag="CRO07_RS01690" class="clusterblast-orf" id="dummy-1_h1_8_5"  />
</g>
<g id="a1_006"  >
<polygon points="150,85 155,80 160,80 160,90 155,90 150,85 " style="fill:white; stroke-width:1; stroke:black; " description="&lt;b&gt;CRO07_RS01685&lt;/b&gt;&lt;br&gt;autoinducer binding domain-containing protein&lt;br&gt;Location: 356484 - 355990" locus_tag="CRO07_RS01685" class="clusterblast-orf" id="dummy-1_h1_8_6"  />
</g>
<g id="a1_007"  >
<polygon points="161,90 169,90 174,85 169,80 161,80 161,90 " style="fill:white; stroke-width:1; stroke:black; " description="&lt;b&gt;CRO07_RS01680&lt;/b&gt;&lt;br&gt;autoinducer binding domain-containing protein&lt;br&gt;Location: 355942 - 355283" locus_tag="CRO07_RS01680" class="clusterblast-orf" id="dummy-1_h1_8_7"  />
</g>
<g id="a1_008"  >
<polygon points="176,90 185,90 190,85 185,80 176,80 176,90 " style="fill:white; stroke-width:1; stroke:black; " description="&lt;b&gt;CRO07_RS01675&lt;/b&gt;&lt;br&gt;LuxR family transcriptional regulator&lt;br&gt;Location: 355153 - 354452" locus_tag="CRO07_RS01675" class="clusterblast-orf" id="dummy-1_h1_8_8"  />
</g>
<g id="a1_009"  >
<polygon points="194,90 201,90 206,85 201,80 194,80 194,90 " style="fill:white; stroke-width:1; stroke:black; " description="&lt;b&gt;CRO07_RS01670&lt;/b&gt;&lt;br&gt;GNAT family N-acetyltransferase&lt;br&gt;Location: 354255 - 353623" locus_tag="CRO07_RS01670" class="clusterblast-orf" id="dummy-1_h1_8_9"  />
</g>
<g id="a1_0010"  >
<polygon points="209,90 209,90 214,85 209,80 209,80 209,90 " style="fill:white; stroke-width:1; stroke:black; " description="&lt;b&gt;CRO07_RS01665&lt;/b&gt;&lt;br&gt;hypothetical protein&lt;br&gt;Location: 353507 - 353217" locus_tag="CRO07_RS01665" class="clusterblast-orf" id="dummy-1_h1_8_10"  />
</g>
<g id="a1_0011"  >
<polygon points="220,90 247,90 252,85 247,80 220,80 220,90 " style="fill:white; stroke-width:1; stroke:black; " description="&lt;b&gt;CRO07_RS01660&lt;/b&gt;&lt;br&gt;glucan biosynthesis protein G&lt;br&gt;Location: 352924 - 351302" locus_tag="CRO07_RS01660" class="clusterblast-orf" id="dummy-1_h1_8_11"  />
</g>
<g id="a1_0012"  >
<polygon points="252,90 256,85 252,80 252,90 " style="fill:white; stroke-width:1; stroke:black; " description="&lt;b&gt;CRO07_RS01655&lt;/b&gt;&lt;br&gt;hypothetical protein&lt;br&gt;Location: 351302 - 351102" locus_tag="CRO07_RS01655" class="clusterblast-orf" id="dummy-1_h1_8_12"  />
</g>
<g id="a1_0013"  >
<polygon points="256,90 286,90 291,85 286,80 256,80 256,90 " style="fill:white; stroke-width:1; stroke:black; " description="&lt;b&gt;CRO07_RS01650&lt;/b&gt;&lt;br&gt;glucans biosynthesis glucosyltransferase MdoH&lt;br&gt;Location: 351098 - 349311" locus_tag="CRO07_RS01650" class="clusterblast-orf" id="dummy-1_h1_8_13"  />
</g>
<g id="a1_0014"  >
<polygon points="291,90 309,90 314,85 309,80 291,80 291,90 " style="fill:white; stroke-width:1; stroke:black; " description="&lt;b&gt;CRO07_RS01645&lt;/b&gt;&lt;br&gt;OpgC domain-containing protein&lt;br&gt;Location: 349318 - 348125" locus_tag="CRO07_RS01645" class="clusterblast-orf" id="dummy-1_h1_8_14"  />
</g>
<g id="a1_0015"  >
<polygon points="322,85 327,80 343,80 343,90 327,90 322,85 " style="fill:white; stroke-width:1; stroke:black; " description="&lt;b&gt;CRO07_RS01635&lt;/b&gt;&lt;br&gt;FAD:protein FMN transferase&lt;br&gt;Location: 347732 - 346641" locus_tag="CRO07_RS01635" class="clusterblast-orf" id="dummy-1_h1_8_15"  />
</g>
<g id="a1_0016"  >
<polygon points="343,85 348,80 353,80 353,90 348,90 343,85 " style="fill:white; stroke-width:1; stroke:black; " description="&lt;b&gt;CRO07_RS01630&lt;/b&gt;&lt;br&gt;SoxR reducing system RseC family protein&lt;br&gt;Location: 346644 - 346144" locus_tag="CRO07_RS01630" class="clusterblast-orf" id="dummy-1_h1_8_16"  />
</g>
<g id="a1_0017"  >
<polygon points="353,85 357,80 357,90 353,85 " style="fill:white; stroke-width:1; stroke:black; " description="&lt;b&gt;CRO07_RS01625&lt;/b&gt;&lt;br&gt;4Fe-4S binding protein&lt;br&gt;Location: 346138 - 345941" locus_tag="CRO07_RS01625" class="clusterblast-orf" id="dummy-1_h1_8_17"  />
</g>
<g id="a1_0018"  >
<polygon points="358,85 363,80 363,80 363,90 363,90 358,85 " style="fill:white; stroke-width:1; stroke:black; " description="&lt;b&gt;CRO07_RS01620&lt;/b&gt;&lt;br&gt;ferredoxin FdxC&lt;br&gt;Location: 345884 - 345597" locus_tag="CRO07_RS01620" class="clusterblast-orf" id="dummy-1_h1_8_18"  />
</g>
<g id="a1_0019"  >
<polygon points="364,85 369,80 391,80 391,90 369,90 364,85 " style="fill:white; stroke-width:1; stroke:black; " description="&lt;b&gt;CRO07_RS01615&lt;/b&gt;&lt;br&gt;FprA family A-type flavoprotein&lt;br&gt;Location: 345580 - 344183" locus_tag="CRO07_RS01615" class="clusterblast-orf" id="dummy-1_h1_8_19"  />
</g>
<g id="a1_0020"  >
<polygon points="399,90 406,90 411,85 406,80 399,80 399,90 " style="fill:white; stroke-width:1; stroke:black; " description="&lt;b&gt;CRO07_RS01610&lt;/b&gt;&lt;br&gt;electron transport complex subunit RsxA&lt;br&gt;Location: 343750 - 343169" locus_tag="CRO07_RS01610" class="clusterblast-orf" id="dummy-1_h1_8_20"  />
</g>
<g id="a1_0021"  >
<polygon points="411,90 417,90 422,85 417,80 411,80 411,90 " style="fill:white; stroke-width:1; stroke:black; " description="&lt;b&gt;CRO07_RS01605&lt;/b&gt;&lt;br&gt;RnfABCDGE type electron transport complex subunit B&lt;br&gt;Location: 343146 - 342583" locus_tag="CRO07_RS01605" class="clusterblast-orf" id="dummy-1_h1_8_21"  />
</g>
<g id="a1_0022"  >
<polygon points="422,90 447,90 452,85 447,80 422,80 422,90 " style="fill:white; stroke-width:1; stroke:black; " description="&lt;b&gt;CRO07_RS01600&lt;/b&gt;&lt;br&gt;electron transport complex subunit RsxC&lt;br&gt;Location: 342586 - 341042" locus_tag="CRO07_RS01600" class="clusterblast-orf" id="dummy-1_h1_8_22"  />
</g>
<g id="a1_0023"  >
<polygon points="452,90 468,90 473,85 468,80 452,80 452,90 " style="fill:white; stroke-width:1; stroke:black; " description="&lt;b&gt;CRO07_RS01595&lt;/b&gt;&lt;br&gt;RnfABCDGE type electron transport complex subunit D&lt;br&gt;Location: 341045 - 339963" locus_tag="CRO07_RS01595" class="clusterblast-orf" id="dummy-1_h1_8_23"  />
</g>
<g id="a1_0024"  >
<polygon points="473,90 481,90 486,85 481,80 473,80 473,90 " style="fill:white; stroke-width:1; stroke:black; " description="&lt;b&gt;CRO07_RS01590&lt;/b&gt;&lt;br&gt;electron transport complex subunit RsxG&lt;br&gt;Location: 339966 - 339310" locus_tag="CRO07_RS01590" class="clusterblast-orf" id="dummy-1_h1_8_24"  />
</g>
<g id="a1_0025"  >
<polygon points="487,90 496,90 501,85 496,80 487,80 487,90 " style="fill:white; stroke-width:1; stroke:black; " description="&lt;b&gt;CRO07_RS01585&lt;/b&gt;&lt;br&gt;electron transport complex subunit E&lt;br&gt;Location: 339297 - 338566" locus_tag="CRO07_RS01585" class="clusterblast-orf" id="dummy-1_h1_8_25"  />
</g>
<g id="a1_0026"  >
<polygon points="501,90 501,90 506,85 501,80 501,80 501,90 " style="fill:white; stroke-width:1; stroke:black; " description="&lt;b&gt;CRO07_RS01580&lt;/b&gt;&lt;br&gt;RnfH family protein&lt;br&gt;Location: 338569 - 338312" locus_tag="CRO07_RS01580" class="clusterblast-orf" id="dummy-1_h1_8_26"  />
</g>
<g id="a1_0027"  >
<polygon points="507,90 522,90 527,85 522,80 507,80 507,90 " style="fill:white; stroke-width:1; stroke:black; " description="&lt;b&gt;CRO07_RS01575&lt;/b&gt;&lt;br&gt;FAD-dependent oxidoreductase&lt;br&gt;Location: 338268 - 337249" locus_tag="CRO07_RS01575" class="clusterblast-orf" id="dummy-1_h1_8_27"  />
</g>
<g id="a1_0028"  >
<polygon points="528,85 533,80 541,80 541,90 533,90 528,85 " style="fill:white; stroke-width:1; stroke:black; " description="&lt;b&gt;CRO07_RS01570&lt;/b&gt;&lt;br&gt;alpha/beta fold hydrolase&lt;br&gt;Location: 337193 - 336528" locus_tag="CRO07_RS01570" class="clusterblast-orf" id="dummy-1_h1_8_28"  />
</g>
<g id="a1_0029"  >
<polygon points="541,85 546,80 553,80 553,90 546,90 541,85 " style="fill:white; stroke-width:1; stroke:black; " description="&lt;b&gt;CRO07_RS01565&lt;/b&gt;&lt;br&gt;DNA-3-methyladenine glycosylase 2 family protein&lt;br&gt;Location: 336531 - 335902" locus_tag="CRO07_RS01565" class="clusterblast-orf" id="dummy-1_h1_8_29"  />
</g>
<g id="a1_0030"  >
<polygon points="557,90 576,90 581,85 576,80 557,80 557,90 " style="fill:#d81515; stroke-width:1; stroke:black; " description="&lt;b&gt;CRO07_RS01560&lt;/b&gt;&lt;br&gt;MFS transporter&lt;br&gt;Location: 335694 - 334474&lt;br&gt;&lt;br&gt;&lt;b&gt;BlastP hit with GLPIOCIE_00757&lt;/b&gt;&lt;br&gt;Percentage identity: 72&lt;br&gt;Percentage coverage: 96&lt;br&gt;BLAST bit score: 531&lt;br&gt;E-value: 1.07e-187" locus_tag="CRO07_RS01560" class="clusterblast-orf" id="dummy-1_h1_8_30"  />
</g>
<g id="a1_0031"  >
<polygon points="581,85 586,80 596,80 596,90 586,90 581,85 " style="fill:#4dd815; stroke-width:1; stroke:black; " description="&lt;b&gt;CRO07_RS01555&lt;/b&gt;&lt;br&gt;squalene/phytoene synthase family protein&lt;br&gt;Location: 334477 - 333719&lt;br&gt;&lt;br&gt;&lt;b&gt;BlastP hit with GLPIOCIE_00758&lt;/b&gt;&lt;br&gt;Percentage identity: 51&lt;br&gt;Percentage coverage: 100&lt;br&gt;BLAST bit score: 218&lt;br&gt;E-value: 4.62e-69" locus_tag="CRO07_RS01555" class="clusterblast-orf" id="dummy-1_h1_8_31"  />
</g>
<g id="a1_0032"  >
<polygon points="598,85 603,80 630,80 630,90 603,90 598,85 " style="fill:#1585d8; stroke-width:1; stroke:black; " description="&lt;b&gt;CRO07_RS01550&lt;/b&gt;&lt;br&gt;citramalate synthase&lt;br&gt;Location: 333600 - 331984&lt;br&gt;&lt;br&gt;&lt;b&gt;BlastP hit with GLPIOCIE_00759&lt;/b&gt;&lt;br&gt;Percentage identity: 79&lt;br&gt;Percentage coverage: 99&lt;br&gt;BLAST bit score: 852&lt;br&gt;E-value: 4.26e-310" locus_tag="CRO07_RS01550" class="clusterblast-orf" id="dummy-1_h1_8_32"  />
</g>
<g id="a1_0033"  >
<polygon points="630,85 635,80 659,80 659,90 635,90 630,85 " style="fill:#d815bc; stroke-width:1; stroke:black; " description="&lt;b&gt;CRO07_RS01545&lt;/b&gt;&lt;br&gt;cysteine--tRNA ligase&lt;br&gt;Location: 331972 - 330482&lt;br&gt;&lt;br&gt;&lt;b&gt;BlastP hit with GLPIOCIE_00760&lt;/b&gt;&lt;br&gt;Percentage identity: 67&lt;br&gt;Percentage coverage: 107&lt;br&gt;BLAST bit score: 674&lt;br&gt;E-value: 1.37e-241" locus_tag="CRO07_RS01545" class="clusterblast-orf" id="dummy-1_h1_8_33"  />
</g>
<g id="a1_0034"  >
<polygon points="661,85 666,80 674,80 674,90 666,90 661,85 " style="fill:white; stroke-width:1; stroke:black; " description="&lt;b&gt;CRO07_RS01540&lt;/b&gt;&lt;br&gt;LysE family transporter&lt;br&gt;Location: 330360 - 329722" locus_tag="CRO07_RS01540" class="clusterblast-orf" id="dummy-1_h1_8_34"  />
</g>
<g id="a1_0035"  >
<polygon points="674,85 679,80 683,80 683,90 679,90 674,85 " style="fill:white; stroke-width:1; stroke:black; " description="&lt;b&gt;CRO07_RS01535&lt;/b&gt;&lt;br&gt;Lrp/AsnC family transcriptional regulator&lt;br&gt;Location: 329722 - 329273" locus_tag="CRO07_RS01535" class="clusterblast-orf" id="dummy-1_h1_8_35"  />
</g>
<g id="a1_0036"  >
<polygon points="690,85 695,80 701,80 701,90 695,90 690,85 " style="fill:#4d15d8; stroke-width:1; stroke:black; " description="&lt;b&gt;CRO07_RS01530&lt;/b&gt;&lt;br&gt;porin family protein&lt;br&gt;Location: 328912 - 328319&lt;br&gt;&lt;br&gt;&lt;b&gt;BlastP hit with GLPIOCIE_00763&lt;/b&gt;&lt;br&gt;Percentage identity: 45&lt;br&gt;Percentage coverage: 97&lt;br&gt;BLAST bit score: 142&lt;br&gt;E-value: 4.8e-41" locus_tag="CRO07_RS01530" class="clusterblast-orf" id="dummy-1_h1_8_36"  />
</g>
<g id="a1_0037"  >
<polygon points="705,85 710,80 741,80 741,90 710,90 705,85 " style="fill:white; stroke-width:1; stroke:black; " description="&lt;b&gt;CRO07_RS01525&lt;/b&gt;&lt;br&gt;ATP-binding cassette domain-containing protein&lt;br&gt;Location: 328116 - 326302" locus_tag="CRO07_RS01525" class="clusterblast-orf" id="dummy-1_h1_8_37"  />
</g>
<g id="a1_0038"  >
<polygon points="741,85 746,80 764,80 764,90 746,90 741,85 " style="fill:white; stroke-width:1; stroke:black; " description="&lt;b&gt;CRO07_RS01520&lt;/b&gt;&lt;br&gt;lipid-A-disaccharide synthase&lt;br&gt;Location: 326270 - 325131" locus_tag="CRO07_RS01520" class="clusterblast-orf" id="dummy-1_h1_8_38"  />
</g>
<g id="a1_0039"  >
<polygon points="764,85 769,80 780,80 780,90 769,90 764,85 " style="fill:white; stroke-width:1; stroke:black; " description="&lt;b&gt;CRO07_RS01515&lt;/b&gt;&lt;br&gt;UDP-2,3-diacylglucosamine diphosphatase LpxI&lt;br&gt;Location: 325134 - 324316" locus_tag="CRO07_RS01515" class="clusterblast-orf" id="dummy-1_h1_8_39"  />
</g>
</svg>
