<svg xmlns="http://www.w3.org/2000/svg" xmlns:xlink="http://www.w3.org/1999/xlink" version="1.1" x="0" y="0" height="50" width="800" viewBox="0 0 800 50" preserveAspectRatio="none"  >
<g label="Query sequence" class="clusterblast-cluster"  >
<text x="5" y="20" class="clusterblast-acc"  >
Query sequence</text>
<line x1="10" y1="35" x2="778.0" y2="35" style="stroke-width:1; stroke:grey; "  />
<polygon points="0,40 68,40 73,35 68,30 0,30 0,40 " style="fill:white; stroke-width:1; stroke:black; " description="&lt;b&gt;GLPIOCIE_00748&lt;/b&gt;&lt;br&gt;hypothetical protein&lt;br&gt;Location: 92880 - 94695" locus_tag="GLPIOCIE_00748" class="clusterblast-orf" id="subclusterblast-1_q0_0_all"  />
<polygon points="73,40 73,40 78,35 73,30 73,30 73,40 " style="fill:white; stroke-width:1; stroke:black; " description="&lt;b&gt;GLPIOCIE_00749&lt;/b&gt;&lt;br&gt;hypothetical protein&lt;br&gt;Location: 94696 - 94813" locus_tag="GLPIOCIE_00749" class="clusterblast-orf" id="subclusterblast-1_q1_0_all"  />
<polygon points="81,40 89,40 94,35 89,30 81,30 81,40 " style="fill:white; stroke-width:1; stroke:black; " description="&lt;b&gt;GLPIOCIE_00750&lt;/b&gt;&lt;br&gt;hypothetical protein&lt;br&gt;Location: 94894 - 95212" locus_tag="GLPIOCIE_00750" class="clusterblast-orf" id="subclusterblast-1_q2_0_all"  />
<polygon points="95,35 100,30 139,30 139,40 100,40 95,35 " style="fill:white; stroke-width:1; stroke:black; " description="&lt;b&gt;GLPIOCIE_00751&lt;/b&gt;&lt;br&gt;GTPase HflX&lt;br&gt;Location: 95221 - 96328" locus_tag="GLPIOCIE_00751" class="clusterblast-orf" id="subclusterblast-1_q3_0_all"  />
<polygon points="147,35 152,30 157,30 157,40 152,40 147,35 " style="fill:white; stroke-width:1; stroke:black; " description="&lt;b&gt;GLPIOCIE_00752&lt;/b&gt;&lt;br&gt;RNA-binding protein Hfq&lt;br&gt;Location: 96519 - 96753" locus_tag="GLPIOCIE_00752" class="clusterblast-orf" id="subclusterblast-1_q4_0_all"  />
<polygon points="163,35 168,30 223,30 223,40 168,40 163,35 " style="fill:white; stroke-width:1; stroke:black; " description="&lt;b&gt;GLPIOCIE_00753&lt;/b&gt;&lt;br&gt;Trk system potassium uptake protein TrkH&lt;br&gt;Location: 96906 - 98394" locus_tag="GLPIOCIE_00753" class="clusterblast-orf" id="subclusterblast-1_q5_0_all"  />
<polygon points="224,35 229,30 280,30 280,40 229,40 224,35 " style="fill:white; stroke-width:1; stroke:black; " description="&lt;b&gt;GLPIOCIE_00754&lt;/b&gt;&lt;br&gt;Trk system potassium uptake protein TrkA&lt;br&gt;Location: 98424 - 99801" locus_tag="GLPIOCIE_00754" class="clusterblast-orf" id="subclusterblast-1_q6_0_all"  />
<polygon points="286,40 317,40 322,35 317,30 286,30 286,40 " style="fill:white; stroke-width:1; stroke:black; " description="&lt;b&gt;GLPIOCIE_00755&lt;/b&gt;&lt;br&gt;Polyphosphate:NDP phosphotransferase 3&lt;br&gt;Location: 99953 - 100850" locus_tag="GLPIOCIE_00755" class="clusterblast-orf" id="subclusterblast-1_q7_0_all"  />
<polygon points="322,40 342,40 347,35 342,30 322,30 322,40 " style="fill:white; stroke-width:1; stroke:black; " description="&lt;b&gt;GLPIOCIE_00756&lt;/b&gt;&lt;br&gt;hypothetical protein&lt;br&gt;Location: 100842 - 101463" locus_tag="GLPIOCIE_00756" class="clusterblast-orf" id="subclusterblast-1_q8_0_all"  />
<polygon points="350,40 395,40 400,35 395,30 350,30 350,40 " style="fill:white; stroke-width:1; stroke:black; " description="&lt;b&gt;GLPIOCIE_00757&lt;/b&gt;&lt;br&gt;Riboflavin transporter RfnT&lt;br&gt;Location: 101536 - 102760" locus_tag="GLPIOCIE_00757" class="clusterblast-orf" id="subclusterblast-1_q9_0_all"  />
<polygon points="400,35 405,30 431,30 431,40 405,40 400,35 " style="fill:white; stroke-width:1; stroke:black; " description="&lt;b&gt;GLPIOCIE_00758&lt;/b&gt;&lt;br&gt;hypothetical protein&lt;br&gt;Location: 102756 - 103527" locus_tag="GLPIOCIE_00758" class="clusterblast-orf" id="subclusterblast-1_q10_0_all"  />
<polygon points="431,35 436,30 496,30 496,40 436,40 431,35 " style="fill:white; stroke-width:1; stroke:black; " description="&lt;b&gt;GLPIOCIE_00759&lt;/b&gt;&lt;br&gt;(R)-citramalate synthase&lt;br&gt;Location: 103523 - 105143" locus_tag="GLPIOCIE_00759" class="clusterblast-orf" id="subclusterblast-1_q11_0_all"  />
<polygon points="497,35 502,30 553,30 553,40 502,40 497,35 " style="fill:white; stroke-width:1; stroke:black; " description="&lt;b&gt;GLPIOCIE_00760&lt;/b&gt;&lt;br&gt;Cysteine--tRNA ligase&lt;br&gt;Location: 105156 - 106551" locus_tag="GLPIOCIE_00760" class="clusterblast-orf" id="subclusterblast-1_q12_0_all"  />
<polygon points="565,35 570,30 590,30 590,40 570,40 565,35 " style="fill:white; stroke-width:1; stroke:black; " description="&lt;b&gt;GLPIOCIE_00761&lt;/b&gt;&lt;br&gt;hypothetical protein&lt;br&gt;Location: 106848 - 107469" locus_tag="GLPIOCIE_00761" class="clusterblast-orf" id="subclusterblast-1_q13_0_all"  />
<polygon points="602,40 632,40 637,35 632,30 602,30 602,40 " style="fill:white; stroke-width:1; stroke:black; " description="&lt;b&gt;GLPIOCIE_00762&lt;/b&gt;&lt;br&gt;hypothetical protein&lt;br&gt;Location: 107760 - 108618" locus_tag="GLPIOCIE_00762" class="clusterblast-orf" id="subclusterblast-1_q14_0_all"  />
<polygon points="639,35 644,30 663,30 663,40 644,40 639,35 " style="fill:white; stroke-width:1; stroke:black; " description="&lt;b&gt;GLPIOCIE_00763&lt;/b&gt;&lt;br&gt;hypothetical protein&lt;br&gt;Location: 108659 - 109262" locus_tag="GLPIOCIE_00763" class="clusterblast-orf" id="subclusterblast-1_q15_0_all"  />
<polygon points="677,40 709,40 714,35 709,30 677,30 677,40 " style="fill:white; stroke-width:1; stroke:black; " description="&lt;b&gt;GLPIOCIE_00764&lt;/b&gt;&lt;br&gt;Acetyl esterase&lt;br&gt;Location: 109601 - 110534" locus_tag="GLPIOCIE_00764" class="clusterblast-orf" id="subclusterblast-1_q16_0_all"  />
<polygon points="719,40 775,40 780,35 775,30 719,30 719,40 " style="fill:white; stroke-width:1; stroke:black; " description="&lt;b&gt;GLPIOCIE_00765&lt;/b&gt;&lt;br&gt;Choline-sulfatase&lt;br&gt;Location: 110639 - 112151" locus_tag="GLPIOCIE_00765" class="clusterblast-orf" id="subclusterblast-1_q17_0_all"  />
</g>
</svg>
