<svg xmlns="http://www.w3.org/2000/svg" xmlns:xlink="http://www.w3.org/1999/xlink" version="1.1" x="0" y="0" height="230" width="800" viewBox="0 0 800 230" preserveAspectRatio="none"  >
<g label="Query sequence" class="clusterblast-cluster"  >
<text x="5" y="20" class="clusterblast-acc"  >
Query sequence</text>
<line x1="10" y1="35" x2="778.0" y2="35" style="stroke-width:1; stroke:grey; "  />
<polygon points="3,40 29,40 34,35 29,30 3,30 3,40 " style="fill:#d81515; stroke-width:1; stroke:black; " description="&lt;b&gt;AGLACNEJ_00314&lt;/b&gt;&lt;br&gt;hypothetical protein&lt;br&gt;Location: 368021 - 368819" locus_tag="AGLACNEJ_00314" class="clusterblast-orf" id="dummy-1_q0_0_all"  />
<polygon points="36,40 87,40 92,35 87,30 36,30 36,40 " style="fill:#67d815; stroke-width:1; stroke:black; " description="&lt;b&gt;AGLACNEJ_00315&lt;/b&gt;&lt;br&gt;hypothetical protein&lt;br&gt;Location: 368876 - 370313" locus_tag="AGLACNEJ_00315" class="clusterblast-orf" id="dummy-1_q1_0_all"  />
<polygon points="96,40 157,40 162,35 157,30 96,30 96,40 " style="fill:#15b9d8; stroke-width:1; stroke:black; " description="&lt;b&gt;AGLACNEJ_00316&lt;/b&gt;&lt;br&gt;Anaerobic magnesium-protoporphyrin IX monomethyl ester cyclase&lt;br&gt;Location: 370410 - 372111" locus_tag="AGLACNEJ_00316" class="clusterblast-orf" id="dummy-1_q2_0_all"  />
<polygon points="162,40 180,40 185,35 180,30 162,30 162,40 " style="fill:#a515d8; stroke-width:1; stroke:black; " description="&lt;b&gt;AGLACNEJ_00317&lt;/b&gt;&lt;br&gt;hypothetical protein&lt;br&gt;Location: 372117 - 372708" locus_tag="AGLACNEJ_00317" class="clusterblast-orf" id="dummy-1_q3_0_all"  />
<polygon points="185,35 190,30 194,30 194,40 190,40 185,35 " style="fill:#d85315; stroke-width:1; stroke:black; " description="&lt;b&gt;AGLACNEJ_00318&lt;/b&gt;&lt;br&gt;hypothetical protein&lt;br&gt;Location: 372704 - 372956" locus_tag="AGLACNEJ_00318" class="clusterblast-orf" id="dummy-1_q4_0_all"  />
<polygon points="200,40 230,40 235,35 230,30 200,30 200,40 " style="fill:#2ad815; stroke-width:1; stroke:black; " description="&lt;b&gt;AGLACNEJ_00319&lt;/b&gt;&lt;br&gt;1,4-dihydroxy-2-naphthoate octaprenyltransferase&lt;br&gt;Location: 373101 - 374010" locus_tag="AGLACNEJ_00319" class="clusterblast-orf" id="dummy-1_q5_0_all"  />
<polygon points="235,40 279,40 284,35 279,30 235,30 235,40 " style="fill:#157cd8; stroke-width:1; stroke:black; " description="&lt;b&gt;AGLACNEJ_00320&lt;/b&gt;&lt;br&gt;Protein PucC&lt;br&gt;Location: 374006 - 375278" locus_tag="AGLACNEJ_00320" class="clusterblast-orf" id="dummy-1_q6_0_all"  />
<polygon points="284,40 325,40 330,35 325,30 284,30 284,40 " style="fill:#d815ce; stroke-width:1; stroke:black; " description="&lt;b&gt;AGLACNEJ_00321&lt;/b&gt;&lt;br&gt;hypothetical protein&lt;br&gt;Location: 375281 - 376463" locus_tag="AGLACNEJ_00321" class="clusterblast-orf" id="dummy-1_q7_0_all"  />
<polygon points="330,40 346,40 351,35 346,30 330,30 330,40 " style="fill:#d89015; stroke-width:1; stroke:black; " description="&lt;b&gt;AGLACNEJ_00322&lt;/b&gt;&lt;br&gt;Isopentenyl-diphosphate Delta-isomerase&lt;br&gt;Location: 376459 - 377014" locus_tag="AGLACNEJ_00322" class="clusterblast-orf" id="dummy-1_q8_0_all"  />
<polygon points="352,35 357,30 369,30 369,40 357,40 352,35 " style="fill:#15d83e; stroke-width:1; stroke:black; " description="&lt;b&gt;AGLACNEJ_00323&lt;/b&gt;&lt;br&gt;Tryptophan-rich sensory protein&lt;br&gt;Location: 377018 - 377477" locus_tag="AGLACNEJ_00323" class="clusterblast-orf" id="dummy-1_q9_0_all"  />
<polygon points="375,35 380,30 415,30 415,40 380,40 375,35 " style="fill:#153ed8; stroke-width:1; stroke:black; " description="&lt;b&gt;AGLACNEJ_00324&lt;/b&gt;&lt;br&gt;hypothetical protein&lt;br&gt;Location: 377610 - 378648" locus_tag="AGLACNEJ_00324" class="clusterblast-orf" id="dummy-1_q10_0_all"  />
<polygon points="415,35 420,30 474,30 474,40 420,40 415,35 " style="fill:#d81590; stroke-width:1; stroke:black; " description="&lt;b&gt;AGLACNEJ_00325&lt;/b&gt;&lt;br&gt;Phytoene desaturase (neurosporene-forming)&lt;br&gt;Location: 378644 - 380180" locus_tag="AGLACNEJ_00325" class="clusterblast-orf" id="dummy-1_q11_0_all"  />
<polygon points="479,40 501,40 506,35 501,30 479,30 479,40 " style="fill:#d8ce15; stroke-width:1; stroke:black; " description="&lt;b&gt;AGLACNEJ_00326&lt;/b&gt;&lt;br&gt;Spheroidene monooxygenase&lt;br&gt;Location: 380313 - 381018" locus_tag="AGLACNEJ_00326" class="clusterblast-orf" id="dummy-1_q12_0_all"  />
<polygon points="506,40 540,40 545,35 540,30 506,30 506,40 " style="fill:#15d87c; stroke-width:1; stroke:black; " description="&lt;b&gt;AGLACNEJ_00327&lt;/b&gt;&lt;br&gt;Magnesium-chelatase 38 kDa subunit&lt;br&gt;Location: 381014 - 382016" locus_tag="AGLACNEJ_00327" class="clusterblast-orf" id="dummy-1_q13_0_all"  />
<polygon points="549,40 607,40 612,35 607,30 549,30 549,40 " style="fill:#2a15d8; stroke-width:1; stroke:black; " description="&lt;b&gt;AGLACNEJ_00328&lt;/b&gt;&lt;br&gt;Magnesium-chelatase 60 kDa subunit&lt;br&gt;Location: 382123 - 383737" locus_tag="AGLACNEJ_00328" class="clusterblast-orf" id="dummy-1_q14_0_all"  />
<polygon points="612,40 641,40 646,35 641,30 612,30 612,40 " style="fill:#d81553; stroke-width:1; stroke:black; " description="&lt;b&gt;AGLACNEJ_00329&lt;/b&gt;&lt;br&gt;Putative non-heme bromoperoxidase BpoC&lt;br&gt;Location: 383739 - 384624" locus_tag="AGLACNEJ_00329" class="clusterblast-orf" id="dummy-1_q15_0_all"  />
<polygon points="646,35 651,30 674,30 674,40 651,40 646,35 " style="fill:#a5d815; stroke-width:1; stroke:black; " description="&lt;b&gt;AGLACNEJ_00330&lt;/b&gt;&lt;br&gt;Acyclic carotenoid 1,2-hydratase&lt;br&gt;Location: 384624 - 385344" locus_tag="AGLACNEJ_00330" class="clusterblast-orf" id="dummy-1_q16_0_all"  />
<polygon points="678,35 683,30 739,30 739,40 683,40 678,35 " style="fill:#15d8b9; stroke-width:1; stroke:black; " description="&lt;b&gt;AGLACNEJ_00331&lt;/b&gt;&lt;br&gt;Hydroxyneurosporene desaturase&lt;br&gt;Location: 385457 - 387023" locus_tag="AGLACNEJ_00331" class="clusterblast-orf" id="dummy-1_q17_0_all"  />
<polygon points="742,40 771,40 776,35 771,30 742,30 742,40 " style="fill:#6715d8; stroke-width:1; stroke:black; " description="&lt;b&gt;AGLACNEJ_00332&lt;/b&gt;&lt;br&gt;hypothetical protein&lt;br&gt;Location: 387115 - 387994" locus_tag="AGLACNEJ_00332" class="clusterblast-orf" id="dummy-1_q18_0_all"  />
</g>
<g label="NZ_SNYP01000010" description="NZ_SNYP01000010 (18408-39440): Rhodobacter veldkampii DSM 11550 Ga0310482 110... (77% of genes show similarity), terpene" class="clusterblast-cluster"  >
<text x="5" y="70" class="clusterblast-acc"  >
<a xlink:href="https://antismash-db.secondarymetabolites.org/area.html?record=NZ_SNYP01000010&amp;start=18408&amp;end=39440" target="_blank">NZ_SNYP01000010 (18408-39440)</a>: Rhodobacter veldkampii DSM 11550 Ga0310482 110... (77% of genes show similarity), terpene</text>
<line x1="10" y1="85" x2="778.0" y2="85" style="stroke-width:1; stroke:grey; "  />
</g>
<g id="a1_000"  >
<polygon points="0,85 5,80 60,80 60,90 5,90 0,85 " style="fill:white; stroke-width:1; stroke:black; " description="&lt;b&gt;EV658_RS07660&lt;/b&gt;&lt;br&gt;chlorophyllide a reductase subunit Y&lt;br&gt;Location: 19256 - 20821" locus_tag="EV658_RS07660" class="clusterblast-orf" id="dummy-1_h1_5_0"  />
</g>
<g id="a1_001"  >
<polygon points="63,85 68,80 102,80 102,90 68,90 63,85 " style="fill:white; stroke-width:1; stroke:black; " description="&lt;b&gt;EV658_RS07665&lt;/b&gt;&lt;br&gt;chlorophyllide a reductase iron protein subunit X&lt;br&gt;Location: 20900 - 21904" locus_tag="EV658_RS07665" class="clusterblast-orf" id="dummy-1_h1_5_1"  />
</g>
<g id="a1_002"  >
<polygon points="102,85 107,80 139,80 139,90 107,90 102,85 " style="fill:white; stroke-width:1; stroke:black; " description="&lt;b&gt;EV658_RS07670&lt;/b&gt;&lt;br&gt;chlorophyll synthesis pathway protein BchC&lt;br&gt;Location: 21901 - 22857" locus_tag="EV658_RS07670" class="clusterblast-orf" id="dummy-1_h1_5_2"  />
</g>
<g id="a1_003"  >
<polygon points="145,85 150,80 189,80 189,90 150,90 145,85 " style="fill:white; stroke-width:1; stroke:black; " description="&lt;b&gt;EV658_RS07675&lt;/b&gt;&lt;br&gt;methyltransferase domain-containing protein&lt;br&gt;Location: 23005 - 24147" locus_tag="EV658_RS07675" class="clusterblast-orf" id="dummy-1_h1_5_3"  />
</g>
<g id="a1_004"  >
<polygon points="189,85 194,80 224,80 224,90 194,90 189,85 " style="fill:#6715d8; stroke-width:1; stroke:black; " description="&lt;b&gt;EV658_RS07680&lt;/b&gt;&lt;br&gt;polyprenyl synthetase family protein&lt;br&gt;Location: 24149 - 25045&lt;br&gt;&lt;br&gt;&lt;b&gt;BlastP hit with AGLACNEJ_00332&lt;/b&gt;&lt;br&gt;Percentage identity: 74&lt;br&gt;Percentage coverage: 100&lt;br&gt;BLAST bit score: 416&lt;br&gt;E-value: 1.14e-145" locus_tag="EV658_RS07680" class="clusterblast-orf" id="dummy-1_h1_5_4"  />
</g>
<g id="a1_005"  >
<polygon points="228,90 281,90 286,85 281,80 228,80 228,90 " style="fill:#15d8b9; stroke-width:1; stroke:black; " description="&lt;b&gt;EV658_RS07685&lt;/b&gt;&lt;br&gt;phytoene desaturase&lt;br&gt;Location: 25155 - 26651&lt;br&gt;&lt;br&gt;&lt;b&gt;BlastP hit with AGLACNEJ_00331&lt;/b&gt;&lt;br&gt;Percentage identity: 54&lt;br&gt;Percentage coverage: 94&lt;br&gt;BLAST bit score: 477&lt;br&gt;E-value: 4.2e-163" locus_tag="EV658_RS07685" class="clusterblast-orf" id="dummy-1_h1_5_5"  />
</g>
<g id="a1_006"  >
<polygon points="288,90 316,90 321,85 316,80 288,80 288,90 " style="fill:#a5d815; stroke-width:1; stroke:black; " description="&lt;b&gt;EV658_RS07690&lt;/b&gt;&lt;br&gt;carotenoid 1,2-hydratase&lt;br&gt;Location: 26723 - 27568&lt;br&gt;&lt;br&gt;&lt;b&gt;BlastP hit with AGLACNEJ_00330&lt;/b&gt;&lt;br&gt;Percentage identity: 62&lt;br&gt;Percentage coverage: 100&lt;br&gt;BLAST bit score: 313&lt;br&gt;E-value: 3.2e-106" locus_tag="EV658_RS07690" class="clusterblast-orf" id="dummy-1_h1_5_6"  />
</g>
<g id="a1_007"  >
<polygon points="334,85 339,80 350,80 350,90 339,90 334,85 " style="fill:#15d83e; stroke-width:1; stroke:black; " description="&lt;b&gt;EV658_RS16260&lt;/b&gt;&lt;br&gt;tryptophan-rich sensory protein&lt;br&gt;Location: 27887 - 28321&lt;br&gt;&lt;br&gt;&lt;b&gt;BlastP hit with AGLACNEJ_00323&lt;/b&gt;&lt;br&gt;Percentage identity: 54&lt;br&gt;Percentage coverage: 95&lt;br&gt;BLAST bit score: 164&lt;br&gt;E-value: 4.16e-51" locus_tag="EV658_RS16260" class="clusterblast-orf" id="dummy-1_h1_5_7"  />
</g>
<g id="a1_008"  >
<polygon points="354,85 359,80 394,80 394,90 359,90 354,85 " style="fill:#153ed8; stroke-width:1; stroke:black; " description="&lt;b&gt;EV658_RS07700&lt;/b&gt;&lt;br&gt;phytoene/squalene synthase family protein&lt;br&gt;Location: 28409 - 29440&lt;br&gt;&lt;br&gt;&lt;b&gt;BlastP hit with AGLACNEJ_00324&lt;/b&gt;&lt;br&gt;Percentage identity: 65&lt;br&gt;Percentage coverage: 98&lt;br&gt;BLAST bit score: 426&lt;br&gt;E-value: 2.35e-148" locus_tag="EV658_RS07700" class="clusterblast-orf" id="dummy-1_h1_5_8"  />
</g>
<g id="a1_009"  >
<polygon points="394,85 399,80 455,80 455,90 399,90 394,85 " style="fill:#d81590; stroke-width:1; stroke:black; " description="&lt;b&gt;EV658_RS07705&lt;/b&gt;&lt;br&gt;phytoene desaturase&lt;br&gt;Location: 29437 - 31023&lt;br&gt;&lt;br&gt;&lt;b&gt;BlastP hit with AGLACNEJ_00325&lt;/b&gt;&lt;br&gt;Percentage identity: 72&lt;br&gt;Percentage coverage: 98&lt;br&gt;BLAST bit score: 736&lt;br&gt;E-value: 6.24e-265" locus_tag="EV658_RS07705" class="clusterblast-orf" id="dummy-1_h1_5_9"  />
</g>
<g id="a1_0010"  >
<polygon points="460,90 482,90 487,85 482,80 460,80 460,90 " style="fill:#d8ce15; stroke-width:1; stroke:black; " description="&lt;b&gt;EV658_RS07710&lt;/b&gt;&lt;br&gt;spheroidene monooxygenase&lt;br&gt;Location: 31155 - 31850&lt;br&gt;&lt;br&gt;&lt;b&gt;BlastP hit with AGLACNEJ_00326&lt;/b&gt;&lt;br&gt;Percentage identity: 48&lt;br&gt;Percentage coverage: 99&lt;br&gt;BLAST bit score: 212&lt;br&gt;E-value: 2.09e-67" locus_tag="EV658_RS07710" class="clusterblast-orf" id="dummy-1_h1_5_10"  />
</g>
<g id="a1_0011"  >
<polygon points="489,90 523,90 528,85 523,80 489,80 489,90 " style="fill:#15d87c; stroke-width:1; stroke:black; " description="&lt;b&gt;EV658_RS07715&lt;/b&gt;&lt;br&gt;magnesium chelatase ATPase subunit I&lt;br&gt;Location: 31913 - 32917&lt;br&gt;&lt;br&gt;&lt;b&gt;BlastP hit with AGLACNEJ_00327&lt;/b&gt;&lt;br&gt;Percentage identity: 81&lt;br&gt;Percentage coverage: 99&lt;br&gt;BLAST bit score: 520&lt;br&gt;E-value: 1.66e-185" locus_tag="EV658_RS07715" class="clusterblast-orf" id="dummy-1_h1_5_11"  />
</g>
<g id="a1_0012"  >
<polygon points="528,90 589,90 594,85 589,80 528,80 528,90 " style="fill:#2a15d8; stroke-width:1; stroke:black; " description="&lt;b&gt;EV658_RS07720&lt;/b&gt;&lt;br&gt;magnesium chelatase subunit D&lt;br&gt;Location: 32914 - 34614&lt;br&gt;&lt;br&gt;&lt;b&gt;BlastP hit with AGLACNEJ_00328&lt;/b&gt;&lt;br&gt;Percentage identity: 60&lt;br&gt;Percentage coverage: 101&lt;br&gt;BLAST bit score: 519&lt;br&gt;E-value: 2.39e-178" locus_tag="EV658_RS07720" class="clusterblast-orf" id="dummy-1_h1_5_12"  />
</g>
<g id="a1_0013"  >
<polygon points="592,90 623,90 628,85 623,80 592,80 592,90 " style="fill:#d81553; stroke-width:1; stroke:black; " description="&lt;b&gt;EV658_RS07725&lt;/b&gt;&lt;br&gt;alpha/beta fold hydrolase&lt;br&gt;Location: 34568 - 35497&lt;br&gt;&lt;br&gt;&lt;b&gt;BlastP hit with AGLACNEJ_00329&lt;/b&gt;&lt;br&gt;Percentage identity: 52&lt;br&gt;Percentage coverage: 95&lt;br&gt;BLAST bit score: 296&lt;br&gt;E-value: 2.15e-98" locus_tag="EV658_RS07725" class="clusterblast-orf" id="dummy-1_h1_5_13"  />
</g>
<g id="a1_0014"  >
<polygon points="629,85 634,80 649,80 649,90 634,90 629,85 " style="fill:#d89015; stroke-width:1; stroke:black; " description="&lt;b&gt;EV658_RS07730&lt;/b&gt;&lt;br&gt;isopentenyl-diphosphate Delta-isomerase&lt;br&gt;Location: 35518 - 36042&lt;br&gt;&lt;br&gt;&lt;b&gt;BlastP hit with AGLACNEJ_00322&lt;/b&gt;&lt;br&gt;Percentage identity: 65&lt;br&gt;Percentage coverage: 93&lt;br&gt;BLAST bit score: 241&lt;br&gt;E-value: 1.39e-80" locus_tag="EV658_RS07730" class="clusterblast-orf" id="dummy-1_h1_5_14"  />
</g>
<g id="a1_0015"  >
<polygon points="649,85 654,80 695,80 695,90 654,90 649,85 " style="fill:#d815ce; stroke-width:1; stroke:black; " description="&lt;b&gt;EV658_RS07735&lt;/b&gt;&lt;br&gt;geranylgeranyl diphosphate reductase&lt;br&gt;Location: 36039 - 37220&lt;br&gt;&lt;br&gt;&lt;b&gt;BlastP hit with AGLACNEJ_00321&lt;/b&gt;&lt;br&gt;Percentage identity: 75&lt;br&gt;Percentage coverage: 100&lt;br&gt;BLAST bit score: 588&lt;br&gt;E-value: 1.2e-210" locus_tag="EV658_RS07735" class="clusterblast-orf" id="dummy-1_h1_5_15"  />
</g>
<g id="a1_0016"  >
<polygon points="695,85 700,80 744,80 744,90 700,90 695,85 " style="fill:#157cd8; stroke-width:1; stroke:black; " description="&lt;b&gt;EV658_RS07740&lt;/b&gt;&lt;br&gt;BCD family MFS transporter&lt;br&gt;Location: 37223 - 38506&lt;br&gt;&lt;br&gt;&lt;b&gt;BlastP hit with AGLACNEJ_00320&lt;/b&gt;&lt;br&gt;Percentage identity: 68&lt;br&gt;Percentage coverage: 97&lt;br&gt;BLAST bit score: 492&lt;br&gt;E-value: 1.28e-171" locus_tag="EV658_RS07740" class="clusterblast-orf" id="dummy-1_h1_5_16"  />
</g>
<g id="a1_0017"  >
<polygon points="744,85 749,80 780,80 780,90 749,90 744,85 " style="fill:#2ad815; stroke-width:1; stroke:black; " description="&lt;b&gt;EV658_RS07745&lt;/b&gt;&lt;br&gt;chlorophyll synthase ChlG&lt;br&gt;Location: 38506 - 39411&lt;br&gt;&lt;br&gt;&lt;b&gt;BlastP hit with AGLACNEJ_00319&lt;/b&gt;&lt;br&gt;Percentage identity: 71&lt;br&gt;Percentage coverage: 99&lt;br&gt;BLAST bit score: 444&lt;br&gt;E-value: 7.21e-157" locus_tag="EV658_RS07745" class="clusterblast-orf" id="dummy-1_h1_5_17"  />
</g>
</svg>
