<svg xmlns="http://www.w3.org/2000/svg" xmlns:xlink="http://www.w3.org/1999/xlink" version="1.1" x="0" y="0" height="230" width="800" viewBox="0 0 800 230" preserveAspectRatio="none"  >
<g label="Query sequence" class="clusterblast-cluster"  >
<text x="5" y="20" class="clusterblast-acc"  >
Query sequence</text>
<line x1="10" y1="35" x2="778.0" y2="35" style="stroke-width:1; stroke:grey; "  />
<polygon points="2,40 36,40 41,35 36,30 2,30 2,40 " style="fill:white; stroke-width:1; stroke:black; " description="&lt;b&gt;ctg2_64&lt;/b&gt;&lt;br&gt;ctg2 64&lt;br&gt;Location: 61145 - 63698" locus_tag="ctg2_64" class="clusterblast-orf" id="dummy-1_q0_0_all"  />
<polygon points="41,35 46,30 50,30 50,40 46,40 41,35 " style="fill:white; stroke-width:1; stroke:black; " description="&lt;b&gt;ctg2_65&lt;/b&gt;&lt;br&gt;ctg2 65&lt;br&gt;Location: 63673 - 64294" locus_tag="ctg2_65" class="clusterblast-orf" id="dummy-1_q1_0_all"  />
<polygon points="50,35 55,30 63,30 63,40 55,40 50,35 " style="fill:white; stroke-width:1; stroke:black; " description="&lt;b&gt;ctg2_66&lt;/b&gt;&lt;br&gt;ctg2 66&lt;br&gt;Location: 64301 - 65171" locus_tag="ctg2_66" class="clusterblast-orf" id="dummy-1_q2_0_all"  />
<polygon points="66,40 69,40 74,35 69,30 66,30 66,40 " style="fill:white; stroke-width:1; stroke:black; " description="&lt;b&gt;ctg2_67&lt;/b&gt;&lt;br&gt;ctg2 67&lt;br&gt;Location: 65325 - 65832" locus_tag="ctg2_67" class="clusterblast-orf" id="dummy-1_q3_0_all"  />
<polygon points="73,40 79,40 84,35 79,30 73,30 73,40 " style="fill:white; stroke-width:1; stroke:black; " description="&lt;b&gt;ctg2_68&lt;/b&gt;&lt;br&gt;ctg2 68&lt;br&gt;Location: 65828 - 66548" locus_tag="ctg2_68" class="clusterblast-orf" id="dummy-1_q4_0_all"  />
<polygon points="85,35 90,30 100,30 100,40 90,40 85,35 " style="fill:white; stroke-width:1; stroke:black; " description="&lt;b&gt;ctg2_69&lt;/b&gt;&lt;br&gt;ctg2 69&lt;br&gt;Location: 66611 - 67586" locus_tag="ctg2_69" class="clusterblast-orf" id="dummy-1_q5_0_all"  />
<polygon points="103,35 108,30 135,30 135,40 108,40 103,35 " style="fill:#d81515; stroke-width:1; stroke:black; " description="&lt;b&gt;ctg2_70&lt;/b&gt;&lt;br&gt;ctg2 70&lt;br&gt;Location: 67736 - 69866" locus_tag="ctg2_70" class="clusterblast-orf" id="dummy-1_q6_0_all"  />
<polygon points="138,35 143,30 159,30 159,40 143,40 138,35 " style="fill:white; stroke-width:1; stroke:black; " description="&lt;b&gt;ctg2_71&lt;/b&gt;&lt;br&gt;ctg2 71&lt;br&gt;Location: 70074 - 71463" locus_tag="ctg2_71" class="clusterblast-orf" id="dummy-1_q7_0_all"  />
<polygon points="162,40 185,40 190,35 185,30 162,30 162,40 " style="fill:#4dd815; stroke-width:1; stroke:black; " description="&lt;b&gt;ctg2_72&lt;/b&gt;&lt;br&gt;ctg2 72&lt;br&gt;Location: 71634 - 73467" locus_tag="ctg2_72" class="clusterblast-orf" id="dummy-1_q8_0_all"  />
<polygon points="190,40 244,40 249,35 244,30 190,30 190,40 " style="fill:#1585d8; stroke-width:1; stroke:black; " description="&lt;b&gt;ctg2_73&lt;/b&gt;&lt;br&gt;ctg2 73&lt;br&gt;Location: 73466 - 77318" locus_tag="ctg2_73" class="clusterblast-orf" id="dummy-1_q9_0_all"  />
<polygon points="249,40 253,40 258,35 253,30 249,30 249,40 " style="fill:white; stroke-width:1; stroke:black; " description="&lt;b&gt;ctg2_74&lt;/b&gt;&lt;br&gt;ctg2 74&lt;br&gt;Location: 77330 - 77945" locus_tag="ctg2_74" class="clusterblast-orf" id="dummy-1_q10_0_all"  />
<polygon points="259,40 259,40 264,35 259,30 259,30 259,40 " style="fill:white; stroke-width:1; stroke:black; " description="&lt;b&gt;ctg2_75&lt;/b&gt;&lt;br&gt;ctg2 75&lt;br&gt;Location: 77989 - 78343" locus_tag="ctg2_75" class="clusterblast-orf" id="dummy-1_q11_0_all"  />
<polygon points="265,40 267,40 272,35 267,30 265,30 265,40 " style="fill:white; stroke-width:1; stroke:black; " description="&lt;b&gt;ctg2_76&lt;/b&gt;&lt;br&gt;ctg2 76&lt;br&gt;Location: 78386 - 78890" locus_tag="ctg2_76" class="clusterblast-orf" id="dummy-1_q12_0_all"  />
<polygon points="273,40 275,40 280,35 275,30 273,30 273,40 " style="fill:white; stroke-width:1; stroke:black; " description="&lt;b&gt;ctg2_77&lt;/b&gt;&lt;br&gt;ctg2 77&lt;br&gt;Location: 78910 - 79396" locus_tag="ctg2_77" class="clusterblast-orf" id="dummy-1_q13_0_all"  />
<polygon points="280,35 285,30 285,30 285,40 285,40 280,35 " style="fill:white; stroke-width:1; stroke:black; " description="&lt;b&gt;ctg2_78&lt;/b&gt;&lt;br&gt;ctg2 78&lt;br&gt;Location: 79408 - 79720" locus_tag="ctg2_78" class="clusterblast-orf" id="dummy-1_q14_0_all"  />
<polygon points="289,35 294,30 300,30 300,40 294,40 289,35 " style="fill:#a115d8; stroke-width:1; stroke:black; " description="&lt;b&gt;ctg2_79&lt;/b&gt;&lt;br&gt;ctg2 79&lt;br&gt;Location: 79994 - 80672" locus_tag="ctg2_79" class="clusterblast-orf" id="dummy-1_q15_0_all"  />
<polygon points="300,35 305,30 368,30 368,40 305,40 300,35 " style="fill:#d86915; stroke-width:1; stroke:black; " description="&lt;b&gt;ctg2_80&lt;/b&gt;&lt;br&gt;ctg2 80&lt;br&gt;Location: 80668 - 85156" locus_tag="ctg2_80" class="clusterblast-orf" id="dummy-1_q16_0_all"  />
<polygon points="368,35 373,30 383,30 383,40 373,40 368,35 " style="fill:#15d831; stroke-width:1; stroke:black; " description="&lt;b&gt;ctg2_81&lt;/b&gt;&lt;br&gt;ctg2 81&lt;br&gt;Location: 85161 - 86154" locus_tag="ctg2_81" class="clusterblast-orf" id="dummy-1_q17_0_all"  />
<polygon points="383,35 388,30 479,30 479,40 388,40 383,35 " style="fill:#1531d8; stroke-width:1; stroke:black; " description="&lt;b&gt;ctg2_82&lt;/b&gt;&lt;br&gt;ctg2 82&lt;br&gt;Location: 86150 - 92456" locus_tag="ctg2_82" class="clusterblast-orf" id="dummy-1_q18_0_all"  />
<polygon points="479,35 484,30 502,30 502,40 484,40 479,35 " style="fill:#d815bc; stroke-width:1; stroke:black; " description="&lt;b&gt;ctg2_83&lt;/b&gt;&lt;br&gt;ctg2 83&lt;br&gt;Location: 92452 - 93943" locus_tag="ctg2_83" class="clusterblast-orf" id="dummy-1_q19_0_all"  />
<polygon points="502,35 507,30 522,30 522,40 507,40 502,35 " style="fill:#d8bc15; stroke-width:1; stroke:black; " description="&lt;b&gt;ctg2_84&lt;/b&gt;&lt;br&gt;ctg2 84&lt;br&gt;Location: 93960 - 95244" locus_tag="ctg2_84" class="clusterblast-orf" id="dummy-1_q20_0_all"  />
<polygon points="522,35 527,30 535,30 535,40 527,40 522,35 " style="fill:#15d885; stroke-width:1; stroke:black; " description="&lt;b&gt;ctg2_85&lt;/b&gt;&lt;br&gt;ctg2 85&lt;br&gt;Location: 95277 - 96138" locus_tag="ctg2_85" class="clusterblast-orf" id="dummy-1_q21_0_all"  />
<polygon points="538,35 543,30 547,30 547,40 543,40 538,35 " style="fill:white; stroke-width:1; stroke:black; " description="&lt;b&gt;ctg2_86&lt;/b&gt;&lt;br&gt;ctg2 86&lt;br&gt;Location: 96308 - 96914" locus_tag="ctg2_86" class="clusterblast-orf" id="dummy-1_q22_0_all"  />
<polygon points="549,35 554,30 599,30 599,40 554,40 549,35 " style="fill:#4d15d8; stroke-width:1; stroke:black; " description="&lt;b&gt;ctg2_87&lt;/b&gt;&lt;br&gt;ctg2 87&lt;br&gt;Location: 97028 - 100352" locus_tag="ctg2_87" class="clusterblast-orf" id="dummy-1_q23_0_all"  />
<polygon points="599,35 604,30 617,30 617,40 604,40 599,35 " style="fill:#d81569; stroke-width:1; stroke:black; " description="&lt;b&gt;ctg2_88&lt;/b&gt;&lt;br&gt;ctg2 88&lt;br&gt;Location: 100302 - 101481" locus_tag="ctg2_88" class="clusterblast-orf" id="dummy-1_q24_0_all"  />
<polygon points="619,35 624,30 634,30 634,40 624,40 619,35 " style="fill:white; stroke-width:1; stroke:black; " description="&lt;b&gt;ctg2_89&lt;/b&gt;&lt;br&gt;ctg2 89&lt;br&gt;Location: 101655 - 102648" locus_tag="ctg2_89" class="clusterblast-orf" id="dummy-1_q25_0_all"  />
<polygon points="635,35 640,30 654,30 654,40 640,40 635,35 " style="fill:#a1d815; stroke-width:1; stroke:black; " description="&lt;b&gt;ctg2_90&lt;/b&gt;&lt;br&gt;ctg2 90&lt;br&gt;Location: 102697 - 103918" locus_tag="ctg2_90" class="clusterblast-orf" id="dummy-1_q26_0_all"  />
<polygon points="657,40 671,40 676,35 671,30 657,30 657,40 " style="fill:#15d8d8; stroke-width:1; stroke:black; " description="&lt;b&gt;ctg2_91&lt;/b&gt;&lt;br&gt;ctg2 91&lt;br&gt;Location: 104164 - 105391" locus_tag="ctg2_91" class="clusterblast-orf" id="dummy-1_q27_0_all"  />
<polygon points="676,35 681,30 683,30 683,40 681,40 676,35 " style="fill:white; stroke-width:1; stroke:black; " description="&lt;b&gt;ctg2_92&lt;/b&gt;&lt;br&gt;ctg2 92&lt;br&gt;Location: 105387 - 105864" locus_tag="ctg2_92" class="clusterblast-orf" id="dummy-1_q28_0_all"  />
<polygon points="686,40 691,40 696,35 691,30 686,30 686,40 " style="fill:white; stroke-width:1; stroke:black; " description="&lt;b&gt;ctg2_93&lt;/b&gt;&lt;br&gt;ctg2 93&lt;br&gt;Location: 106032 - 106668" locus_tag="ctg2_93" class="clusterblast-orf" id="dummy-1_q29_0_all"  />
<polygon points="695,35 700,30 709,30 709,40 700,40 695,35 " style="fill:white; stroke-width:1; stroke:black; " description="&lt;b&gt;ctg2_94&lt;/b&gt;&lt;br&gt;ctg2 94&lt;br&gt;Location: 106647 - 107526" locus_tag="ctg2_94" class="clusterblast-orf" id="dummy-1_q30_0_all"  />
<polygon points="712,40 747,40 752,35 747,30 712,30 712,40 " style="fill:white; stroke-width:1; stroke:black; " description="&lt;b&gt;ctg2_95&lt;/b&gt;&lt;br&gt;ctg2 95&lt;br&gt;Location: 107729 - 110342" locus_tag="ctg2_95" class="clusterblast-orf" id="dummy-1_q31_0_all"  />
<polygon points="752,35 757,30 760,30 760,40 757,40 752,35 " style="fill:white; stroke-width:1; stroke:black; " description="&lt;b&gt;ctg2_96&lt;/b&gt;&lt;br&gt;ctg2 96&lt;br&gt;Location: 110363 - 110924" locus_tag="ctg2_96" class="clusterblast-orf" id="dummy-1_q32_0_all"  />
<polygon points="761,35 766,30 777,30 777,40 766,40 761,35 " style="fill:white; stroke-width:1; stroke:black; " description="&lt;b&gt;ctg2_97&lt;/b&gt;&lt;br&gt;ctg2 97&lt;br&gt;Location: 110941 - 112021" locus_tag="ctg2_97" class="clusterblast-orf" id="dummy-1_q33_0_all"  />
</g>
<g label="NZ_FNOM01000001" description="NZ_FNOM01000001 (453882-506024): Roseicitreum antarcticum strain CGMCC 1.8894... (17% of genes show similarity), NRPS-like,T1PKS" class="clusterblast-cluster"  >
<text x="5" y="70" class="clusterblast-acc"  >
<a xlink:href="https://antismash-db.secondarymetabolites.org/area.html?record=NZ_FNOM01000001&amp;start=453882&amp;end=506024" target="_blank">NZ_FNOM01000001 (453882-506024)</a>: Roseicitreum antarcticum strain CGMCC 1.8894... (17% of genes show similarity), NRPS-like,T1PKS</text>
<line x1="10" y1="85" x2="778.0" y2="85" style="stroke-width:1; stroke:grey; "  />
</g>
<g id="a1_000"  >
<polygon points="0,85 5,80 17,80 17,90 5,90 0,85 " style="fill:white; stroke-width:1; stroke:black; " description="&lt;b&gt;BLV13_RS02370&lt;/b&gt;&lt;br&gt;pyridoxal phosphate-dependent aminotransferase&lt;br&gt;Location: 505558 - 504386" locus_tag="BLV13_RS02370" class="clusterblast-orf" id="dummy-1_h1_7_0"  />
</g>
<g id="a1_001"  >
<polygon points="19,90 22,90 27,85 22,80 19,80 19,90 " style="fill:white; stroke-width:1; stroke:black; " description="&lt;b&gt;BLV13_RS02365&lt;/b&gt;&lt;br&gt;peptide deformylase&lt;br&gt;Location: 504252 - 503728" locus_tag="BLV13_RS02365" class="clusterblast-orf" id="dummy-1_h1_7_1"  />
</g>
<g id="a1_002"  >
<polygon points="27,90 30,90 35,85 30,80 27,80 27,90 " style="fill:white; stroke-width:1; stroke:black; " description="&lt;b&gt;BLV13_RS02360&lt;/b&gt;&lt;br&gt;peptide deformylase&lt;br&gt;Location: 503731 - 503231" locus_tag="BLV13_RS02360" class="clusterblast-orf" id="dummy-1_h1_7_2"  />
</g>
<g id="a1_003"  >
<polygon points="35,90 44,90 49,85 44,80 35,80 35,90 " style="fill:white; stroke-width:1; stroke:black; " description="&lt;b&gt;BLV13_RS02355&lt;/b&gt;&lt;br&gt;methionyl-tRNA formyltransferase&lt;br&gt;Location: 503231 - 502314" locus_tag="BLV13_RS02355" class="clusterblast-orf" id="dummy-1_h1_7_3"  />
</g>
<g id="a1_004"  >
<polygon points="56,90 60,90 65,85 60,80 56,80 56,90 " style="fill:white; stroke-width:1; stroke:black; " description="&lt;b&gt;BLV13_RS02350&lt;/b&gt;&lt;br&gt;glutathione S-transferase family protein&lt;br&gt;Location: 501871 - 501236" locus_tag="BLV13_RS02350" class="clusterblast-orf" id="dummy-1_h1_7_4"  />
</g>
<g id="a1_005"  >
<polygon points="69,90 80,90 85,85 80,80 69,80 69,90 " style="fill:white; stroke-width:1; stroke:black; " description="&lt;b&gt;BLV13_RS02345&lt;/b&gt;&lt;br&gt;hypothetical protein&lt;br&gt;Location: 500992 - 499958" locus_tag="BLV13_RS02345" class="clusterblast-orf" id="dummy-1_h1_7_5"  />
</g>
<g id="a1_006"  >
<polygon points="86,85 91,80 103,80 103,90 91,90 86,85 " style="fill:white; stroke-width:1; stroke:black; " description="&lt;b&gt;BLV13_RS02340&lt;/b&gt;&lt;br&gt;iron-containing alcohol dehydrogenase&lt;br&gt;Location: 499894 - 498737" locus_tag="BLV13_RS02340" class="clusterblast-orf" id="dummy-1_h1_7_6"  />
</g>
<g id="a1_007"  >
<polygon points="104,85 109,80 126,80 126,90 109,90 104,85 " style="fill:white; stroke-width:1; stroke:black; " description="&lt;b&gt;BLV13_RS02335&lt;/b&gt;&lt;br&gt;glycerol kinase GlpK&lt;br&gt;Location: 498729 - 497242" locus_tag="BLV13_RS02335" class="clusterblast-orf" id="dummy-1_h1_7_7"  />
</g>
<g id="a1_008"  >
<polygon points="128,85 133,80 154,80 154,90 133,90 128,85 " style="fill:white; stroke-width:1; stroke:black; " description="&lt;b&gt;BLV13_RS02330&lt;/b&gt;&lt;br&gt;carbohydrate ABC transporter substrate-binding protein&lt;br&gt;Location: 497131 - 495422" locus_tag="BLV13_RS02330" class="clusterblast-orf" id="dummy-1_h1_7_8"  />
</g>
<g id="a1_009"  >
<polygon points="155,85 159,80 159,90 155,85 " style="fill:white; stroke-width:1; stroke:black; " description="&lt;b&gt;BLV13_RS02325&lt;/b&gt;&lt;br&gt;DUF2160 domain-containing protein&lt;br&gt;Location: 495331 - 495059" locus_tag="BLV13_RS02325" class="clusterblast-orf" id="dummy-1_h1_7_9"  />
</g>
<g id="a1_0010"  >
<polygon points="160,85 165,80 172,80 172,90 165,90 160,85 " style="fill:white; stroke-width:1; stroke:black; " description="&lt;b&gt;BLV13_RS02320&lt;/b&gt;&lt;br&gt;carbohydrate ABC transporter permease&lt;br&gt;Location: 495034 - 494204" locus_tag="BLV13_RS02320" class="clusterblast-orf" id="dummy-1_h1_7_10"  />
</g>
<g id="a1_0011"  >
<polygon points="173,85 178,80 186,80 186,90 178,90 173,85 " style="fill:white; stroke-width:1; stroke:black; " description="&lt;b&gt;BLV13_RS02315&lt;/b&gt;&lt;br&gt;sugar ABC transporter permease&lt;br&gt;Location: 494168 - 493296" locus_tag="BLV13_RS02315" class="clusterblast-orf" id="dummy-1_h1_7_11"  />
</g>
<g id="a1_0012"  >
<polygon points="186,85 191,80 203,80 203,90 191,90 186,85 " style="fill:white; stroke-width:1; stroke:black; " description="&lt;b&gt;BLV13_RS02310&lt;/b&gt;&lt;br&gt;ABC transporter ATP-binding protein&lt;br&gt;Location: 493296 - 492202" locus_tag="BLV13_RS02310" class="clusterblast-orf" id="dummy-1_h1_7_12"  />
</g>
<g id="a1_0013"  >
<polygon points="203,85 208,80 220,80 220,90 208,90 203,85 " style="fill:white; stroke-width:1; stroke:black; " description="&lt;b&gt;BLV13_RS02305&lt;/b&gt;&lt;br&gt;ABC transporter ATP-binding protein&lt;br&gt;Location: 492191 - 491103" locus_tag="BLV13_RS02305" class="clusterblast-orf" id="dummy-1_h1_7_13"  />
</g>
<g id="a1_0014"  >
<polygon points="221,85 226,80 245,80 245,90 226,90 221,85 " style="fill:white; stroke-width:1; stroke:black; " description="&lt;b&gt;BLV13_RS02300&lt;/b&gt;&lt;br&gt;glycerol-3-phosphate dehydrogenase&lt;br&gt;Location: 491047 - 489446" locus_tag="BLV13_RS02300" class="clusterblast-orf" id="dummy-1_h1_7_14"  />
</g>
<g id="a1_0015"  >
<polygon points="249,90 256,90 261,85 256,80 249,80 249,90 " style="fill:white; stroke-width:1; stroke:black; " description="&lt;b&gt;BLV13_RS02295&lt;/b&gt;&lt;br&gt;DeoR/GlpR transcriptional regulator&lt;br&gt;Location: 489179 - 488409" locus_tag="BLV13_RS02295" class="clusterblast-orf" id="dummy-1_h1_7_15"  />
</g>
<g id="a1_0016"  >
<polygon points="261,85 266,80 271,80 271,90 266,90 261,85 " style="fill:white; stroke-width:1; stroke:black; " description="&lt;b&gt;BLV13_RS02290&lt;/b&gt;&lt;br&gt;class I SAM-dependent methyltransferase&lt;br&gt;Location: 488376 - 487720" locus_tag="BLV13_RS02290" class="clusterblast-orf" id="dummy-1_h1_7_16"  />
</g>
<g id="a1_0017"  >
<polygon points="273,85 278,80 285,80 285,90 278,90 273,85 " style="fill:white; stroke-width:1; stroke:black; " description="&lt;b&gt;BLV13_RS02285&lt;/b&gt;&lt;br&gt;WecB/TagA/CpsF family glycosyltransferase&lt;br&gt;Location: 487580 - 486807" locus_tag="BLV13_RS02285" class="clusterblast-orf" id="dummy-1_h1_7_17"  />
</g>
<g id="a1_0018"  >
<polygon points="286,85 291,80 297,80 297,90 291,90 286,85 " style="fill:#a115d8; stroke-width:1; stroke:black; " description="&lt;b&gt;BLV13_RS02280&lt;/b&gt;&lt;br&gt;4'-phosphopantetheinyl transferase superfamily protein&lt;br&gt;Location: 486734 - 486021&lt;br&gt;&lt;br&gt;&lt;b&gt;BlastP hit with ctg2_79&lt;/b&gt;&lt;br&gt;Percentage identity: 41&lt;br&gt;Percentage coverage: 93&lt;br&gt;BLAST bit score: 158&lt;br&gt;E-value: 2.37e-46" locus_tag="BLV13_RS02280" class="clusterblast-orf" id="dummy-1_h1_7_18"  />
</g>
<g id="a1_0019"  >
<polygon points="297,85 302,80 368,80 368,90 302,90 297,85 " style="fill:#d86915; stroke-width:1; stroke:black; " description="&lt;b&gt;BLV13_RS02275&lt;/b&gt;&lt;br&gt;LLM class flavin-dependent oxidoreductase&lt;br&gt;Location: 486024 - 481369&lt;br&gt;&lt;br&gt;&lt;b&gt;BlastP hit with ctg2_80&lt;/b&gt;&lt;br&gt;Percentage identity: 62&lt;br&gt;Percentage coverage: 104&lt;br&gt;BLAST bit score: 1835&lt;br&gt;E-value: 0.0" locus_tag="BLV13_RS02275" class="clusterblast-orf" id="dummy-1_h1_7_19"  />
</g>
<g id="a1_0020"  >
<polygon points="368,85 373,80 384,80 384,90 373,90 368,85 " style="fill:#15d831; stroke-width:1; stroke:black; " description="&lt;b&gt;BLV13_RS02270&lt;/b&gt;&lt;br&gt;glycosyltransferase family 2 protein&lt;br&gt;Location: 481340 - 480327&lt;br&gt;&lt;br&gt;&lt;b&gt;BlastP hit with ctg2_81&lt;/b&gt;&lt;br&gt;Percentage identity: 57&lt;br&gt;Percentage coverage: 95&lt;br&gt;BLAST bit score: 357&lt;br&gt;E-value: 1.63e-121" locus_tag="BLV13_RS02270" class="clusterblast-orf" id="dummy-1_h1_7_20"  />
</g>
<g id="a1_0021"  >
<polygon points="384,85 389,80 482,80 482,90 389,90 384,85 " style="fill:#1531d8; stroke-width:1; stroke:black; " description="&lt;b&gt;BLV13_RS02265&lt;/b&gt;&lt;br&gt;type I polyketide synthase&lt;br&gt;Location: 480320 - 473883&lt;br&gt;&lt;br&gt;&lt;b&gt;BlastP hit with ctg2_82&lt;/b&gt;&lt;br&gt;Percentage identity: 70&lt;br&gt;Percentage coverage: 101&lt;br&gt;BLAST bit score: 2908&lt;br&gt;E-value: 0.0" locus_tag="BLV13_RS02265" class="clusterblast-orf" id="dummy-1_h1_7_21"  />
</g>
<g id="a1_0022"  >
<polygon points="485,85 490,80 508,80 508,90 490,90 485,85 " style="fill:#d815bc; stroke-width:1; stroke:black; " description="&lt;b&gt;BLV13_RS02260&lt;/b&gt;&lt;br&gt;hypothetical protein&lt;br&gt;Location: 473689 - 472196&lt;br&gt;&lt;br&gt;&lt;b&gt;BlastP hit with ctg2_83&lt;/b&gt;&lt;br&gt;Percentage identity: 54&lt;br&gt;Percentage coverage: 93&lt;br&gt;BLAST bit score: 501&lt;br&gt;E-value: 4.86e-173" locus_tag="BLV13_RS02260" class="clusterblast-orf" id="dummy-1_h1_7_22"  />
</g>
<g id="a1_0023"  >
<polygon points="509,85 514,80 529,80 529,90 514,90 509,85 " style="fill:#d8bc15; stroke-width:1; stroke:black; " description="&lt;b&gt;BLV13_RS02255&lt;/b&gt;&lt;br&gt;hypothetical protein&lt;br&gt;Location: 472104 - 470797&lt;br&gt;&lt;br&gt;&lt;b&gt;BlastP hit with ctg2_84&lt;/b&gt;&lt;br&gt;Percentage identity: 35&lt;br&gt;Percentage coverage: 99&lt;br&gt;BLAST bit score: 207&lt;br&gt;E-value: 3.52e-60" locus_tag="BLV13_RS02255" class="clusterblast-orf" id="dummy-1_h1_7_23"  />
</g>
<g id="a1_0024"  >
<polygon points="530,85 535,80 543,80 543,90 535,90 530,85 " style="fill:#15d885; stroke-width:1; stroke:black; " description="&lt;b&gt;BLV13_RS02250&lt;/b&gt;&lt;br&gt;CpsD/CapB family tyrosine-protein kinase&lt;br&gt;Location: 470769 - 469858&lt;br&gt;&lt;br&gt;&lt;b&gt;BlastP hit with ctg2_85&lt;/b&gt;&lt;br&gt;Percentage identity: 40&lt;br&gt;Percentage coverage: 103&lt;br&gt;BLAST bit score: 167&lt;br&gt;E-value: 5.2e-48" locus_tag="BLV13_RS02250" class="clusterblast-orf" id="dummy-1_h1_7_24"  />
</g>
<g id="a1_0025"  >
<polygon points="547,85 552,80 563,80 563,90 552,90 547,85 " style="fill:white; stroke-width:1; stroke:black; " description="&lt;b&gt;BLV13_RS02245&lt;/b&gt;&lt;br&gt;low specificity L-threonine aldolase&lt;br&gt;Location: 469602 - 468568" locus_tag="BLV13_RS02245" class="clusterblast-orf" id="dummy-1_h1_7_25"  />
</g>
<g id="a1_0026"  >
<polygon points="564,85 569,80 571,80 571,90 569,90 564,85 " style="fill:white; stroke-width:1; stroke:black; " description="&lt;b&gt;BLV13_RS02240&lt;/b&gt;&lt;br&gt;YcgN family cysteine cluster protein&lt;br&gt;Location: 468537 - 468076" locus_tag="BLV13_RS02240" class="clusterblast-orf" id="dummy-1_h1_7_26"  />
</g>
<g id="a1_0027"  >
<polygon points="570,85 575,80 585,80 585,90 575,90 570,85 " style="fill:white; stroke-width:1; stroke:black; " description="&lt;b&gt;BLV13_RS02235&lt;/b&gt;&lt;br&gt;bifunctional riboflavin kinase/FAD synthetase&lt;br&gt;Location: 468083 - 467157" locus_tag="BLV13_RS02235" class="clusterblast-orf" id="dummy-1_h1_7_27"  />
</g>
<g id="a1_0028"  >
<polygon points="585,85 590,80 592,80 592,90 590,90 585,85 " style="fill:white; stroke-width:1; stroke:black; " description="&lt;b&gt;BLV13_RS02230&lt;/b&gt;&lt;br&gt;MaoC family dehydratase&lt;br&gt;Location: 467129 - 466686" locus_tag="BLV13_RS02230" class="clusterblast-orf" id="dummy-1_h1_7_28"  />
</g>
<g id="a1_0029"  >
<polygon points="594,85 599,80 608,80 608,90 599,90 594,85 " style="fill:white; stroke-width:1; stroke:black; " description="&lt;b&gt;BLV13_RS02225&lt;/b&gt;&lt;br&gt;TIGR01459 family HAD-type hydrolase&lt;br&gt;Location: 466515 - 465634" locus_tag="BLV13_RS02225" class="clusterblast-orf" id="dummy-1_h1_7_29"  />
</g>
<g id="a1_0030"  >
<polygon points="610,85 615,80 624,80 624,90 615,90 610,85 " style="fill:white; stroke-width:1; stroke:black; " description="&lt;b&gt;BLV13_RS02220&lt;/b&gt;&lt;br&gt;manganese-dependent inorganic pyrophosphatase&lt;br&gt;Location: 465514 - 464597" locus_tag="BLV13_RS02220" class="clusterblast-orf" id="dummy-1_h1_7_30"  />
</g>
<g id="a1_0031"  >
<polygon points="626,90 635,90 640,85 635,80 626,80 626,90 " style="fill:white; stroke-width:1; stroke:black; " description="&lt;b&gt;BLV13_RS02215&lt;/b&gt;&lt;br&gt;amino acid ABC transporter substrate-binding protein&lt;br&gt;Location: 464426 - 463542" locus_tag="BLV13_RS02215" class="clusterblast-orf" id="dummy-1_h1_7_31"  />
</g>
<g id="a1_0032"  >
<polygon points="640,90 648,90 653,85 648,80 640,80 640,90 " style="fill:white; stroke-width:1; stroke:black; " description="&lt;b&gt;BLV13_RS02210&lt;/b&gt;&lt;br&gt;amino acid ABC transporter permease&lt;br&gt;Location: 463545 - 462640" locus_tag="BLV13_RS02210" class="clusterblast-orf" id="dummy-1_h1_7_32"  />
</g>
<g id="a1_0033"  >
<polygon points="653,90 660,90 665,85 660,80 653,80 653,90 " style="fill:white; stroke-width:1; stroke:black; " description="&lt;b&gt;BLV13_RS02205&lt;/b&gt;&lt;br&gt;amino acid ABC transporter ATP-binding protein&lt;br&gt;Location: 462640 - 461897" locus_tag="BLV13_RS02205" class="clusterblast-orf" id="dummy-1_h1_7_33"  />
</g>
<g id="a1_0034"  >
<polygon points="668,90 672,85 668,80 668,90 " style="fill:white; stroke-width:1; stroke:black; " description="&lt;b&gt;BLV13_RS02200&lt;/b&gt;&lt;br&gt;co-chaperone GroES&lt;br&gt;Location: 461698 - 461411" locus_tag="BLV13_RS02200" class="clusterblast-orf" id="dummy-1_h1_7_34"  />
</g>
<g id="a1_0035"  >
<polygon points="673,90 693,90 698,85 693,80 673,80 673,90 " style="fill:white; stroke-width:1; stroke:black; " description="&lt;b&gt;BLV13_RS02195&lt;/b&gt;&lt;br&gt;chaperonin GroEL&lt;br&gt;Location: 461359 - 459707" locus_tag="BLV13_RS02195" class="clusterblast-orf" id="dummy-1_h1_7_35"  />
</g>
<g id="a1_0036"  >
<polygon points="700,85 705,80 717,80 717,90 705,90 700,85 " style="fill:white; stroke-width:1; stroke:black; " description="&lt;b&gt;BLV13_RS02190&lt;/b&gt;&lt;br&gt;3-isopropylmalate dehydrogenase&lt;br&gt;Location: 459580 - 458480" locus_tag="BLV13_RS02190" class="clusterblast-orf" id="dummy-1_h1_7_36"  />
</g>
<g id="a1_0037"  >
<polygon points="718,85 723,80 736,80 736,90 723,90 718,85 " style="fill:white; stroke-width:1; stroke:black; " description="&lt;b&gt;BLV13_RS02185&lt;/b&gt;&lt;br&gt;geranylgeranyl reductase family protein&lt;br&gt;Location: 458398 - 457232" locus_tag="BLV13_RS02185" class="clusterblast-orf" id="dummy-1_h1_7_37"  />
</g>
<g id="a1_0038"  >
<polygon points="739,90 749,90 754,85 749,80 739,80 739,90 " style="fill:white; stroke-width:1; stroke:black; " description="&lt;b&gt;BLV13_RS02180&lt;/b&gt;&lt;br&gt;glutathione S-transferase family protein&lt;br&gt;Location: 457023 - 456046" locus_tag="BLV13_RS02180" class="clusterblast-orf" id="dummy-1_h1_7_38"  />
</g>
<g id="a1_0039"  >
<polygon points="755,90 768,90 773,85 768,80 755,80 755,90 " style="fill:white; stroke-width:1; stroke:black; " description="&lt;b&gt;BLV13_RS02175&lt;/b&gt;&lt;br&gt;lytic murein transglycosylase&lt;br&gt;Location: 455976 - 454795" locus_tag="BLV13_RS02175" class="clusterblast-orf" id="dummy-1_h1_7_39"  />
</g>
<g id="a1_0040"  >
<polygon points="774,90 775,90 780,85 775,80 774,80 774,90 " style="fill:white; stroke-width:1; stroke:black; " description="&lt;b&gt;BLV13_RS02170&lt;/b&gt;&lt;br&gt;DUF2853 family protein&lt;br&gt;Location: 454701 - 454360" locus_tag="BLV13_RS02170" class="clusterblast-orf" id="dummy-1_h1_7_40"  />
</g>
</svg>
