<svg xmlns="http://www.w3.org/2000/svg" xmlns:xlink="http://www.w3.org/1999/xlink" version="1.1" x="0" y="0" height="230" width="800" viewBox="0 0 800 230" preserveAspectRatio="none"  >
<g label="Query sequence" class="clusterblast-cluster"  >
<text x="5" y="20" class="clusterblast-acc"  >
Query sequence</text>
<line x1="10" y1="35" x2="778.0" y2="35" style="stroke-width:1; stroke:grey; "  />
<polygon points="0,35 5,30 53,30 53,40 5,40 0,35 " style="fill:#d81515; stroke-width:1; stroke:black; " description="&lt;b&gt;BJPBECLI_00377&lt;/b&gt;&lt;br&gt;hypothetical protein&lt;br&gt;Location: 89229 - 90534" locus_tag="BJPBECLI_00377" class="clusterblast-orf" id="dummy-1_q0_0_all"  />
<polygon points="54,35 59,30 71,30 71,40 59,40 54,35 " style="fill:#3cd815; stroke-width:1; stroke:black; " description="&lt;b&gt;BJPBECLI_00378&lt;/b&gt;&lt;br&gt;Biopolymer transport protein ExbD&lt;br&gt;Location: 90567 - 90969" locus_tag="BJPBECLI_00378" class="clusterblast-orf" id="dummy-1_q1_0_all"  />
<polygon points="74,35 79,30 102,30 102,40 79,40 74,35 " style="fill:#1563d8; stroke-width:1; stroke:black; " description="&lt;b&gt;BJPBECLI_00379&lt;/b&gt;&lt;br&gt;Tol-Pal system protein TolQ&lt;br&gt;Location: 91041 - 91740" locus_tag="BJPBECLI_00379" class="clusterblast-orf" id="dummy-1_q2_0_all"  />
<polygon points="107,35 112,30 123,30 123,40 112,40 107,35 " style="fill:#b115d8; stroke-width:1; stroke:black; " description="&lt;b&gt;BJPBECLI_00380&lt;/b&gt;&lt;br&gt;Acyl-CoA thioesterase YbgC&lt;br&gt;Location: 91844 - 92249" locus_tag="BJPBECLI_00380" class="clusterblast-orf" id="dummy-1_q3_0_all"  />
<polygon points="123,35 128,30 149,30 149,40 128,40 123,35 " style="fill:#d88a15; stroke-width:1; stroke:black; " description="&lt;b&gt;BJPBECLI_00381&lt;/b&gt;&lt;br&gt;hypothetical protein&lt;br&gt;Location: 92253 - 92877" locus_tag="BJPBECLI_00381" class="clusterblast-orf" id="dummy-1_q4_0_all"  />
<polygon points="154,40 185,40 190,35 185,30 154,30 154,40 " style="fill:#15d863; stroke-width:1; stroke:black; " description="&lt;b&gt;BJPBECLI_00382&lt;/b&gt;&lt;br&gt;Secretory immunoglobulin A-binding protein EsiB&lt;br&gt;Location: 93015 - 93894" locus_tag="BJPBECLI_00382" class="clusterblast-orf" id="dummy-1_q5_0_all"  />
<polygon points="193,40 199,40 204,35 199,30 193,30 193,40 " style="fill:white; stroke-width:1; stroke:black; " description="&lt;b&gt;BJPBECLI_00383&lt;/b&gt;&lt;br&gt;hypothetical protein&lt;br&gt;Location: 93969 - 94224" locus_tag="BJPBECLI_00383" class="clusterblast-orf" id="dummy-1_q6_0_all"  />
<polygon points="203,40 210,40 215,35 210,30 203,30 203,40 " style="fill:white; stroke-width:1; stroke:black; " description="&lt;b&gt;BJPBECLI_00384&lt;/b&gt;&lt;br&gt;Toxin ParE1&lt;br&gt;Location: 94201 - 94513" locus_tag="BJPBECLI_00384" class="clusterblast-orf" id="dummy-1_q7_0_all"  />
<polygon points="220,35 225,30 307,30 307,40 225,40 220,35 " style="fill:#3c15d8; stroke-width:1; stroke:black; " description="&lt;b&gt;BJPBECLI_00385&lt;/b&gt;&lt;br&gt;Malate synthase G&lt;br&gt;Location: 94623 - 96771" locus_tag="BJPBECLI_00385" class="clusterblast-orf" id="dummy-1_q8_0_all"  />
<polygon points="324,40 349,40 354,35 349,30 324,30 324,40 " style="fill:#d8158a; stroke-width:1; stroke:black; " description="&lt;b&gt;BJPBECLI_00386&lt;/b&gt;&lt;br&gt;Transcriptional activator protein AnoR&lt;br&gt;Location: 97190 - 97904" locus_tag="BJPBECLI_00386" class="clusterblast-orf" id="dummy-1_q9_0_all"  />
<polygon points="357,40 386,40 391,35 386,30 357,30 357,40 " style="fill:#b1d815; stroke-width:1; stroke:black; " description="&lt;b&gt;BJPBECLI_00387&lt;/b&gt;&lt;br&gt;hypothetical protein&lt;br&gt;Location: 97996 - 98824" locus_tag="BJPBECLI_00387" class="clusterblast-orf" id="dummy-1_q10_0_all"  />
<polygon points="394,35 399,30 411,30 411,40 399,40 394,35 " style="fill:white; stroke-width:1; stroke:black; " description="&lt;b&gt;BJPBECLI_00388&lt;/b&gt;&lt;br&gt;hypothetical protein&lt;br&gt;Location: 98901 - 99324" locus_tag="BJPBECLI_00388" class="clusterblast-orf" id="dummy-1_q11_0_all"  />
<polygon points="419,35 424,30 447,30 447,40 424,40 419,35 " style="fill:#15d8d8; stroke-width:1; stroke:black; " description="&lt;b&gt;BJPBECLI_00389&lt;/b&gt;&lt;br&gt;Lipoprotein-releasing system ATP-binding protein LolD&lt;br&gt;Location: 99505 - 100189" locus_tag="BJPBECLI_00389" class="clusterblast-orf" id="dummy-1_q12_0_all"  />
<polygon points="446,35 451,30 499,30 499,40 451,40 446,35 " style="fill:white; stroke-width:1; stroke:black; " description="&lt;b&gt;BJPBECLI_00390&lt;/b&gt;&lt;br&gt;Lipoprotein-releasing system transmembrane protein LolC&lt;br&gt;Location: 100181 - 101468" locus_tag="BJPBECLI_00390" class="clusterblast-orf" id="dummy-1_q13_0_all"  />
<polygon points="505,35 510,30 528,30 528,40 510,40 505,35 " style="fill:white; stroke-width:1; stroke:black; " description="&lt;b&gt;BJPBECLI_00391&lt;/b&gt;&lt;br&gt;hypothetical protein&lt;br&gt;Location: 101619 - 102177" locus_tag="BJPBECLI_00391" class="clusterblast-orf" id="dummy-1_q14_0_all"  />
<polygon points="532,35 537,30 622,30 622,40 537,40 532,35 " style="fill:white; stroke-width:1; stroke:black; " description="&lt;b&gt;BJPBECLI_00392&lt;/b&gt;&lt;br&gt;Carbamoyltransferase HypF&lt;br&gt;Location: 102287 - 104486" locus_tag="BJPBECLI_00392" class="clusterblast-orf" id="dummy-1_q15_0_all"  />
<polygon points="626,35 631,30 684,30 684,40 631,40 626,35 " style="fill:white; stroke-width:1; stroke:black; " description="&lt;b&gt;BJPBECLI_00393&lt;/b&gt;&lt;br&gt;Periplasmic [NiFeSe] hydrogenase large subunit&lt;br&gt;Location: 104589 - 106023" locus_tag="BJPBECLI_00393" class="clusterblast-orf" id="dummy-1_q16_0_all"  />
<polygon points="684,35 689,30 725,30 725,40 689,40 684,35 " style="fill:white; stroke-width:1; stroke:black; " description="&lt;b&gt;BJPBECLI_00394&lt;/b&gt;&lt;br&gt;Periplasmic [NiFeSe] hydrogenase small subunit&lt;br&gt;Location: 106019 - 107012" locus_tag="BJPBECLI_00394" class="clusterblast-orf" id="dummy-1_q17_0_all"  />
<polygon points="725,35 730,30 780,30 780,40 730,40 725,35 " style="fill:white; stroke-width:1; stroke:black; " description="&lt;b&gt;BJPBECLI_00395&lt;/b&gt;&lt;br&gt;Adaptive-response sensory-kinase SasA&lt;br&gt;Location: 107008 - 108364" locus_tag="BJPBECLI_00395" class="clusterblast-orf" id="dummy-1_q18_0_all"  />
</g>
<g label="NZ_CP024899" description="NZ_CP024899 (2485912-2506734): Rhodobaca barguzinensis strain alga05 chromoso... (50% of genes show similarity), hserlactone" class="clusterblast-cluster"  >
<text x="5" y="70" class="clusterblast-acc"  >
<a xlink:href="https://antismash-db.secondarymetabolites.org/area.html?record=NZ_CP024899&amp;start=2485912&amp;end=2506734" target="_blank">NZ_CP024899 (2485912-2506734)</a>: Rhodobaca barguzinensis strain alga05 chromoso... (50% of genes show similarity), hserlactone</text>
<line x1="10" y1="85" x2="778.0" y2="85" style="stroke-width:1; stroke:grey; "  />
</g>
<g id="a1_000"  >
<polygon points="7,85 12,80 55,80 55,90 12,90 7,85 " style="fill:#d81515; stroke-width:1; stroke:black; " description="&lt;b&gt;BG454_RS12050&lt;/b&gt;&lt;br&gt;hypothetical protein&lt;br&gt;Location: 2505506 - 2504328&lt;br&gt;&lt;br&gt;&lt;b&gt;BlastP hit with BJPBECLI_00377&lt;/b&gt;&lt;br&gt;Percentage identity: 70&lt;br&gt;Percentage coverage: 98&lt;br&gt;BLAST bit score: 263&lt;br&gt;E-value: 2.89e-82" locus_tag="BG454_RS12050" class="clusterblast-orf" id="dummy-1_h1_2_0"  />
</g>
<g id="a1_001"  >
<polygon points="58,85 63,80 77,80 77,90 63,90 58,85 " style="fill:#3cd815; stroke-width:1; stroke:black; " description="&lt;b&gt;BG454_RS12045&lt;/b&gt;&lt;br&gt;protein TolR&lt;br&gt;Location: 2504266 - 2503796&lt;br&gt;&lt;br&gt;&lt;b&gt;BlastP hit with BJPBECLI_00378&lt;/b&gt;&lt;br&gt;Percentage identity: 88&lt;br&gt;Percentage coverage: 98&lt;br&gt;BLAST bit score: 223&lt;br&gt;E-value: 2.92e-74" locus_tag="BG454_RS12045" class="clusterblast-orf" id="dummy-1_h1_2_1"  />
</g>
<g id="a1_002"  >
<polygon points="77,85 82,80 106,80 106,90 82,90 77,85 " style="fill:#1563d8; stroke-width:1; stroke:black; " description="&lt;b&gt;BG454_RS12040&lt;/b&gt;&lt;br&gt;protein TolQ&lt;br&gt;Location: 2503793 - 2503095&lt;br&gt;&lt;br&gt;&lt;b&gt;BlastP hit with BJPBECLI_00379&lt;/b&gt;&lt;br&gt;Percentage identity: 93&lt;br&gt;Percentage coverage: 100&lt;br&gt;BLAST bit score: 422&lt;br&gt;E-value: 3.64e-150" locus_tag="BG454_RS12040" class="clusterblast-orf" id="dummy-1_h1_2_2"  />
</g>
<g id="a1_003"  >
<polygon points="109,85 114,80 126,80 126,90 114,90 109,85 " style="fill:#b115d8; stroke-width:1; stroke:black; " description="&lt;b&gt;BG454_RS12035&lt;/b&gt;&lt;br&gt;tol-pal system-associated acyl-CoA thioesterase&lt;br&gt;Location: 2503007 - 2502591&lt;br&gt;&lt;br&gt;&lt;b&gt;BlastP hit with BJPBECLI_00380&lt;/b&gt;&lt;br&gt;Percentage identity: 73&lt;br&gt;Percentage coverage: 99&lt;br&gt;BLAST bit score: 196&lt;br&gt;E-value: 5.48e-64" locus_tag="BG454_RS12035" class="clusterblast-orf" id="dummy-1_h1_2_3"  />
</g>
<g id="a1_004"  >
<polygon points="132,90 154,90 159,85 154,80 132,80 132,90 " style="fill:white; stroke-width:1; stroke:black; " description="&lt;b&gt;BG454_RS12030&lt;/b&gt;&lt;br&gt;SDR family oxidoreductase&lt;br&gt;Location: 2502457 - 2501780" locus_tag="BG454_RS12030" class="clusterblast-orf" id="dummy-1_h1_2_4"  />
</g>
<g id="a1_005"  >
<polygon points="160,85 165,80 185,80 185,90 165,90 160,85 " style="fill:#d88a15; stroke-width:1; stroke:black; " description="&lt;b&gt;BG454_RS12025&lt;/b&gt;&lt;br&gt;hypothetical protein&lt;br&gt;Location: 2501773 - 2501150&lt;br&gt;&lt;br&gt;&lt;b&gt;BlastP hit with BJPBECLI_00381&lt;/b&gt;&lt;br&gt;Percentage identity: 79&lt;br&gt;Percentage coverage: 100&lt;br&gt;BLAST bit score: 315&lt;br&gt;E-value: 6.22e-109" locus_tag="BG454_RS12025" class="clusterblast-orf" id="dummy-1_h1_2_5"  />
</g>
<g id="a1_006"  >
<polygon points="190,90 222,90 227,85 222,80 190,80 190,90 " style="fill:#15d863; stroke-width:1; stroke:black; " description="&lt;b&gt;BG454_RS12020&lt;/b&gt;&lt;br&gt;sel1 repeat family protein&lt;br&gt;Location: 2501015 - 2500125&lt;br&gt;&lt;br&gt;&lt;b&gt;BlastP hit with BJPBECLI_00382&lt;/b&gt;&lt;br&gt;Percentage identity: 51&lt;br&gt;Percentage coverage: 100&lt;br&gt;BLAST bit score: 130&lt;br&gt;E-value: 4.04e-34" locus_tag="BG454_RS12020" class="clusterblast-orf" id="dummy-1_h1_2_6"  />
</g>
<g id="a1_007"  >
<polygon points="228,85 233,80 315,80 315,90 233,90 228,85 " style="fill:#3c15d8; stroke-width:1; stroke:black; " description="&lt;b&gt;BG454_RS12015&lt;/b&gt;&lt;br&gt;malate synthase G&lt;br&gt;Location: 2500099 - 2497952&lt;br&gt;&lt;br&gt;&lt;b&gt;BlastP hit with BJPBECLI_00385&lt;/b&gt;&lt;br&gt;Percentage identity: 85&lt;br&gt;Percentage coverage: 100&lt;br&gt;BLAST bit score: 1240&lt;br&gt;E-value: 0.0" locus_tag="BG454_RS12015" class="clusterblast-orf" id="dummy-1_h1_2_7"  />
</g>
<g id="a1_008"  >
<polygon points="330,90 353,90 358,85 353,80 330,80 330,90 " style="fill:#d8158a; stroke-width:1; stroke:black; " description="&lt;b&gt;BG454_RS12010&lt;/b&gt;&lt;br&gt;LuxR family transcriptional regulator&lt;br&gt;Location: 2497594 - 2496911&lt;br&gt;&lt;br&gt;&lt;b&gt;BlastP hit with BJPBECLI_00386&lt;/b&gt;&lt;br&gt;Percentage identity: 45&lt;br&gt;Percentage coverage: 94&lt;br&gt;BLAST bit score: 199&lt;br&gt;E-value: 2.76e-62" locus_tag="BG454_RS12010" class="clusterblast-orf" id="dummy-1_h1_2_8"  />
</g>
<g id="a1_009"  >
<polygon points="365,90 393,90 398,85 393,80 365,80 365,90 " style="fill:#b1d815; stroke-width:1; stroke:black; " description="&lt;b&gt;BG454_RS12005&lt;/b&gt;&lt;br&gt;GNAT family N-acetyltransferase&lt;br&gt;Location: 2496734 - 2495913&lt;br&gt;&lt;br&gt;&lt;b&gt;BlastP hit with BJPBECLI_00387&lt;/b&gt;&lt;br&gt;Percentage identity: 60&lt;br&gt;Percentage coverage: 95&lt;br&gt;BLAST bit score: 305&lt;br&gt;E-value: 7.37e-103" locus_tag="BG454_RS12005" class="clusterblast-orf" id="dummy-1_h1_2_9"  />
</g>
<g id="a1_0010"  >
<polygon points="408,85 413,80 423,80 423,90 413,90 408,85 " style="fill:white; stroke-width:1; stroke:black; " description="&lt;b&gt;BG454_RS12000&lt;/b&gt;&lt;br&gt;hypothetical protein&lt;br&gt;Location: 2495666 - 2495307" locus_tag="BG454_RS12000" class="clusterblast-orf" id="dummy-1_h1_2_10"  />
</g>
<g id="a1_0011"  >
<polygon points="427,85 432,80 465,80 465,90 432,90 427,85 " style="fill:white; stroke-width:1; stroke:black; " description="&lt;b&gt;BG454_RS11995&lt;/b&gt;&lt;br&gt;glyoxylate/hydroxypyruvate reductase A&lt;br&gt;Location: 2495223 - 2494291" locus_tag="BG454_RS11995" class="clusterblast-orf" id="dummy-1_h1_2_11"  />
</g>
<g id="a1_0012"  >
<polygon points="464,85 469,80 511,80 511,90 469,90 464,85 " style="fill:white; stroke-width:1; stroke:black; " description="&lt;b&gt;BG454_RS11990&lt;/b&gt;&lt;br&gt;rod shape-determining protein RodA&lt;br&gt;Location: 2494294 - 2493146" locus_tag="BG454_RS11990" class="clusterblast-orf" id="dummy-1_h1_2_12"  />
</g>
<g id="a1_0013"  >
<polygon points="511,85 516,80 590,80 590,90 516,90 511,85 " style="fill:white; stroke-width:1; stroke:black; " description="&lt;b&gt;BG454_RS11985&lt;/b&gt;&lt;br&gt;penicillin-binding protein 2&lt;br&gt;Location: 2493149 - 2491212" locus_tag="BG454_RS11985" class="clusterblast-orf" id="dummy-1_h1_2_13"  />
</g>
<g id="a1_0014"  >
<polygon points="590,85 595,80 613,80 613,90 595,90 590,85 " style="fill:white; stroke-width:1; stroke:black; " description="&lt;b&gt;BG454_RS11980&lt;/b&gt;&lt;br&gt;rod shape-determining protein MreD&lt;br&gt;Location: 2491215 - 2490640" locus_tag="BG454_RS11980" class="clusterblast-orf" id="dummy-1_h1_2_14"  />
</g>
<g id="a1_0015"  >
<polygon points="614,85 619,80 652,80 652,90 619,90 614,85 " style="fill:white; stroke-width:1; stroke:black; " description="&lt;b&gt;BG454_RS11975&lt;/b&gt;&lt;br&gt;rod shape-determining protein MreC&lt;br&gt;Location: 2490623 - 2489700" locus_tag="BG454_RS11975" class="clusterblast-orf" id="dummy-1_h1_2_15"  />
</g>
<g id="a1_0016"  >
<polygon points="653,85 658,80 695,80 695,90 658,90 653,85 " style="fill:white; stroke-width:1; stroke:black; " description="&lt;b&gt;BG454_RS11970&lt;/b&gt;&lt;br&gt;rod shape-determining protein&lt;br&gt;Location: 2489674 - 2488637" locus_tag="BG454_RS11970" class="clusterblast-orf" id="dummy-1_h1_2_16"  />
</g>
<g id="a1_0017"  >
<polygon points="708,85 713,80 772,80 772,90 713,90 708,85 " style="fill:white; stroke-width:1; stroke:black; " description="&lt;b&gt;BG454_RS11965&lt;/b&gt;&lt;br&gt;2-isopropylmalate synthase&lt;br&gt;Location: 2488323 - 2486758" locus_tag="BG454_RS11965" class="clusterblast-orf" id="dummy-1_h1_2_17"  />
</g>
</svg>
