<svg xmlns="http://www.w3.org/2000/svg" xmlns:xlink="http://www.w3.org/1999/xlink" version="1.1" x="0" y="0" height="230" width="800" viewBox="0 0 800 230" preserveAspectRatio="none"  >
<g label="Query sequence" class="clusterblast-cluster"  >
<text x="5" y="20" class="clusterblast-acc"  >
Query sequence</text>
<line x1="10" y1="35" x2="778.0" y2="35" style="stroke-width:1; stroke:grey; "  />
<polygon points="0,40 34,40 39,35 34,30 0,30 0,40 " style="fill:white; stroke-width:1; stroke:black; " description="&lt;b&gt;ctg2_64&lt;/b&gt;&lt;br&gt;ctg2 64&lt;br&gt;Location: 61145 - 63698" locus_tag="ctg2_64" class="clusterblast-orf" id="dummy-1_q0_0_all"  />
<polygon points="38,35 43,30 48,30 48,40 43,40 38,35 " style="fill:white; stroke-width:1; stroke:black; " description="&lt;b&gt;ctg2_65&lt;/b&gt;&lt;br&gt;ctg2 65&lt;br&gt;Location: 63673 - 64294" locus_tag="ctg2_65" class="clusterblast-orf" id="dummy-1_q1_0_all"  />
<polygon points="48,35 53,30 61,30 61,40 53,40 48,35 " style="fill:white; stroke-width:1; stroke:black; " description="&lt;b&gt;ctg2_66&lt;/b&gt;&lt;br&gt;ctg2 66&lt;br&gt;Location: 64301 - 65171" locus_tag="ctg2_66" class="clusterblast-orf" id="dummy-1_q2_0_all"  />
<polygon points="64,40 67,40 72,35 67,30 64,30 64,40 " style="fill:white; stroke-width:1; stroke:black; " description="&lt;b&gt;ctg2_67&lt;/b&gt;&lt;br&gt;ctg2 67&lt;br&gt;Location: 65325 - 65832" locus_tag="ctg2_67" class="clusterblast-orf" id="dummy-1_q3_0_all"  />
<polygon points="71,40 77,40 82,35 77,30 71,30 71,40 " style="fill:white; stroke-width:1; stroke:black; " description="&lt;b&gt;ctg2_68&lt;/b&gt;&lt;br&gt;ctg2 68&lt;br&gt;Location: 65828 - 66548" locus_tag="ctg2_68" class="clusterblast-orf" id="dummy-1_q4_0_all"  />
<polygon points="83,35 88,30 98,30 98,40 88,40 83,35 " style="fill:white; stroke-width:1; stroke:black; " description="&lt;b&gt;ctg2_69&lt;/b&gt;&lt;br&gt;ctg2 69&lt;br&gt;Location: 66611 - 67586" locus_tag="ctg2_69" class="clusterblast-orf" id="dummy-1_q5_0_all"  />
<polygon points="101,35 106,30 133,30 133,40 106,40 101,35 " style="fill:#d81515; stroke-width:1; stroke:black; " description="&lt;b&gt;ctg2_70&lt;/b&gt;&lt;br&gt;ctg2 70&lt;br&gt;Location: 67736 - 69866" locus_tag="ctg2_70" class="clusterblast-orf" id="dummy-1_q6_0_all"  />
<polygon points="137,35 142,30 158,30 158,40 142,40 137,35 " style="fill:white; stroke-width:1; stroke:black; " description="&lt;b&gt;ctg2_71&lt;/b&gt;&lt;br&gt;ctg2 71&lt;br&gt;Location: 70074 - 71463" locus_tag="ctg2_71" class="clusterblast-orf" id="dummy-1_q7_0_all"  />
<polygon points="160,40 184,40 189,35 184,30 160,30 160,40 " style="fill:#4dd815; stroke-width:1; stroke:black; " description="&lt;b&gt;ctg2_72&lt;/b&gt;&lt;br&gt;ctg2 72&lt;br&gt;Location: 71634 - 73467" locus_tag="ctg2_72" class="clusterblast-orf" id="dummy-1_q8_0_all"  />
<polygon points="189,40 243,40 248,35 243,30 189,30 189,40 " style="fill:#1585d8; stroke-width:1; stroke:black; " description="&lt;b&gt;ctg2_73&lt;/b&gt;&lt;br&gt;ctg2 73&lt;br&gt;Location: 73466 - 77318" locus_tag="ctg2_73" class="clusterblast-orf" id="dummy-1_q9_0_all"  />
<polygon points="248,40 252,40 257,35 252,30 248,30 248,40 " style="fill:white; stroke-width:1; stroke:black; " description="&lt;b&gt;ctg2_74&lt;/b&gt;&lt;br&gt;ctg2 74&lt;br&gt;Location: 77330 - 77945" locus_tag="ctg2_74" class="clusterblast-orf" id="dummy-1_q10_0_all"  />
<polygon points="258,40 258,40 263,35 258,30 258,30 258,40 " style="fill:white; stroke-width:1; stroke:black; " description="&lt;b&gt;ctg2_75&lt;/b&gt;&lt;br&gt;ctg2 75&lt;br&gt;Location: 77989 - 78343" locus_tag="ctg2_75" class="clusterblast-orf" id="dummy-1_q11_0_all"  />
<polygon points="264,40 267,40 272,35 267,30 264,30 264,40 " style="fill:white; stroke-width:1; stroke:black; " description="&lt;b&gt;ctg2_76&lt;/b&gt;&lt;br&gt;ctg2 76&lt;br&gt;Location: 78386 - 78890" locus_tag="ctg2_76" class="clusterblast-orf" id="dummy-1_q12_0_all"  />
<polygon points="272,40 274,40 279,35 274,30 272,30 272,40 " style="fill:white; stroke-width:1; stroke:black; " description="&lt;b&gt;ctg2_77&lt;/b&gt;&lt;br&gt;ctg2 77&lt;br&gt;Location: 78910 - 79396" locus_tag="ctg2_77" class="clusterblast-orf" id="dummy-1_q13_0_all"  />
<polygon points="280,35 284,30 284,40 280,35 " style="fill:white; stroke-width:1; stroke:black; " description="&lt;b&gt;ctg2_78&lt;/b&gt;&lt;br&gt;ctg2 78&lt;br&gt;Location: 79408 - 79720" locus_tag="ctg2_78" class="clusterblast-orf" id="dummy-1_q14_0_all"  />
<polygon points="289,35 294,30 299,30 299,40 294,40 289,35 " style="fill:#a115d8; stroke-width:1; stroke:black; " description="&lt;b&gt;ctg2_79&lt;/b&gt;&lt;br&gt;ctg2 79&lt;br&gt;Location: 79994 - 80672" locus_tag="ctg2_79" class="clusterblast-orf" id="dummy-1_q15_0_all"  />
<polygon points="299,35 304,30 368,30 368,40 304,40 299,35 " style="fill:#d86915; stroke-width:1; stroke:black; " description="&lt;b&gt;ctg2_80&lt;/b&gt;&lt;br&gt;ctg2 80&lt;br&gt;Location: 80668 - 85156" locus_tag="ctg2_80" class="clusterblast-orf" id="dummy-1_q16_0_all"  />
<polygon points="368,35 373,30 383,30 383,40 373,40 368,35 " style="fill:#15d831; stroke-width:1; stroke:black; " description="&lt;b&gt;ctg2_81&lt;/b&gt;&lt;br&gt;ctg2 81&lt;br&gt;Location: 85161 - 86154" locus_tag="ctg2_81" class="clusterblast-orf" id="dummy-1_q17_0_all"  />
<polygon points="383,35 388,30 480,30 480,40 388,40 383,35 " style="fill:#1531d8; stroke-width:1; stroke:black; " description="&lt;b&gt;ctg2_82&lt;/b&gt;&lt;br&gt;ctg2 82&lt;br&gt;Location: 86150 - 92456" locus_tag="ctg2_82" class="clusterblast-orf" id="dummy-1_q18_0_all"  />
<polygon points="480,35 485,30 502,30 502,40 485,40 480,35 " style="fill:#d815bc; stroke-width:1; stroke:black; " description="&lt;b&gt;ctg2_83&lt;/b&gt;&lt;br&gt;ctg2 83&lt;br&gt;Location: 92452 - 93943" locus_tag="ctg2_83" class="clusterblast-orf" id="dummy-1_q19_0_all"  />
<polygon points="503,35 508,30 522,30 522,40 508,40 503,35 " style="fill:#d8bc15; stroke-width:1; stroke:black; " description="&lt;b&gt;ctg2_84&lt;/b&gt;&lt;br&gt;ctg2 84&lt;br&gt;Location: 93960 - 95244" locus_tag="ctg2_84" class="clusterblast-orf" id="dummy-1_q20_0_all"  />
<polygon points="523,35 528,30 536,30 536,40 528,40 523,35 " style="fill:#15d885; stroke-width:1; stroke:black; " description="&lt;b&gt;ctg2_85&lt;/b&gt;&lt;br&gt;ctg2 85&lt;br&gt;Location: 95277 - 96138" locus_tag="ctg2_85" class="clusterblast-orf" id="dummy-1_q21_0_all"  />
<polygon points="539,35 544,30 548,30 548,40 544,40 539,35 " style="fill:white; stroke-width:1; stroke:black; " description="&lt;b&gt;ctg2_86&lt;/b&gt;&lt;br&gt;ctg2 86&lt;br&gt;Location: 96308 - 96914" locus_tag="ctg2_86" class="clusterblast-orf" id="dummy-1_q22_0_all"  />
<polygon points="550,35 555,30 601,30 601,40 555,40 550,35 " style="fill:#4d15d8; stroke-width:1; stroke:black; " description="&lt;b&gt;ctg2_87&lt;/b&gt;&lt;br&gt;ctg2 87&lt;br&gt;Location: 97028 - 100352" locus_tag="ctg2_87" class="clusterblast-orf" id="dummy-1_q23_0_all"  />
<polygon points="600,35 605,30 618,30 618,40 605,40 600,35 " style="fill:#d81569; stroke-width:1; stroke:black; " description="&lt;b&gt;ctg2_88&lt;/b&gt;&lt;br&gt;ctg2 88&lt;br&gt;Location: 100302 - 101481" locus_tag="ctg2_88" class="clusterblast-orf" id="dummy-1_q24_0_all"  />
<polygon points="621,35 626,30 636,30 636,40 626,40 621,35 " style="fill:white; stroke-width:1; stroke:black; " description="&lt;b&gt;ctg2_89&lt;/b&gt;&lt;br&gt;ctg2 89&lt;br&gt;Location: 101655 - 102648" locus_tag="ctg2_89" class="clusterblast-orf" id="dummy-1_q25_0_all"  />
<polygon points="637,35 642,30 655,30 655,40 642,40 637,35 " style="fill:#a1d815; stroke-width:1; stroke:black; " description="&lt;b&gt;ctg2_90&lt;/b&gt;&lt;br&gt;ctg2 90&lt;br&gt;Location: 102697 - 103918" locus_tag="ctg2_90" class="clusterblast-orf" id="dummy-1_q26_0_all"  />
<polygon points="659,40 673,40 678,35 673,30 659,30 659,40 " style="fill:#15d8d8; stroke-width:1; stroke:black; " description="&lt;b&gt;ctg2_91&lt;/b&gt;&lt;br&gt;ctg2 91&lt;br&gt;Location: 104164 - 105391" locus_tag="ctg2_91" class="clusterblast-orf" id="dummy-1_q27_0_all"  />
<polygon points="678,35 683,30 685,30 685,40 683,40 678,35 " style="fill:white; stroke-width:1; stroke:black; " description="&lt;b&gt;ctg2_92&lt;/b&gt;&lt;br&gt;ctg2 92&lt;br&gt;Location: 105387 - 105864" locus_tag="ctg2_92" class="clusterblast-orf" id="dummy-1_q28_0_all"  />
<polygon points="688,40 693,40 698,35 693,30 688,30 688,40 " style="fill:white; stroke-width:1; stroke:black; " description="&lt;b&gt;ctg2_93&lt;/b&gt;&lt;br&gt;ctg2 93&lt;br&gt;Location: 106032 - 106668" locus_tag="ctg2_93" class="clusterblast-orf" id="dummy-1_q29_0_all"  />
<polygon points="697,35 702,30 711,30 711,40 702,40 697,35 " style="fill:white; stroke-width:1; stroke:black; " description="&lt;b&gt;ctg2_94&lt;/b&gt;&lt;br&gt;ctg2 94&lt;br&gt;Location: 106647 - 107526" locus_tag="ctg2_94" class="clusterblast-orf" id="dummy-1_q30_0_all"  />
<polygon points="714,40 749,40 754,35 749,30 714,30 714,40 " style="fill:white; stroke-width:1; stroke:black; " description="&lt;b&gt;ctg2_95&lt;/b&gt;&lt;br&gt;ctg2 95&lt;br&gt;Location: 107729 - 110342" locus_tag="ctg2_95" class="clusterblast-orf" id="dummy-1_q31_0_all"  />
<polygon points="754,35 759,30 763,30 763,40 759,40 754,35 " style="fill:white; stroke-width:1; stroke:black; " description="&lt;b&gt;ctg2_96&lt;/b&gt;&lt;br&gt;ctg2 96&lt;br&gt;Location: 110363 - 110924" locus_tag="ctg2_96" class="clusterblast-orf" id="dummy-1_q32_0_all"  />
<polygon points="763,35 768,30 780,30 780,40 768,40 763,35 " style="fill:white; stroke-width:1; stroke:black; " description="&lt;b&gt;ctg2_97&lt;/b&gt;&lt;br&gt;ctg2 97&lt;br&gt;Location: 110941 - 112021" locus_tag="ctg2_97" class="clusterblast-orf" id="dummy-1_q33_0_all"  />
</g>
<g label="NZ_FNVD01000002" description="NZ_FNVD01000002 (221290-273384): Jhaorihella thermophila strain DSM 23413, wh... (29% of genes show similarity), NRPS-like,T1PKS" class="clusterblast-cluster"  >
<text x="5" y="70" class="clusterblast-acc"  >
<a xlink:href="https://antismash-db.secondarymetabolites.org/area.html?record=NZ_FNVD01000002&amp;start=221290&amp;end=273384" target="_blank">NZ_FNVD01000002 (221290-273384)</a>: Jhaorihella thermophila strain DSM 23413, wh... (29% of genes show similarity), NRPS-like,T1PKS</text>
<line x1="10" y1="85" x2="778.0" y2="85" style="stroke-width:1; stroke:grey; "  />
</g>
<g id="a1_000"  >
<polygon points="3,85 8,80 9,80 9,90 8,90 3,85 " style="fill:white; stroke-width:1; stroke:black; " description="&lt;b&gt;C4S70_RS04315&lt;/b&gt;&lt;br&gt;glycine cleavage system protein GcvH&lt;br&gt;Location: 222601 - 222960" locus_tag="C4S70_RS04315" class="clusterblast-orf" id="dummy-1_h1_1_0"  />
</g>
<g id="a1_001"  >
<polygon points="9,85 14,80 26,80 26,90 14,90 9,85 " style="fill:white; stroke-width:1; stroke:black; " description="&lt;b&gt;C4S70_RS04320&lt;/b&gt;&lt;br&gt;glycine cleavage system aminomethyltransferase GcvT&lt;br&gt;Location: 222981 - 224102" locus_tag="C4S70_RS04320" class="clusterblast-orf" id="dummy-1_h1_1_1"  />
</g>
<g id="a1_002"  >
<polygon points="32,90 40,90 45,85 40,80 32,80 32,90 " style="fill:white; stroke-width:1; stroke:black; " description="&lt;b&gt;C4S70_RS04325&lt;/b&gt;&lt;br&gt;(S)-ureidoglycine aminohydrolase&lt;br&gt;Location: 224501 - 225334" locus_tag="C4S70_RS04325" class="clusterblast-orf" id="dummy-1_h1_1_2"  />
</g>
<g id="a1_003"  >
<polygon points="46,90 46,90 51,85 46,80 46,80 46,90 " style="fill:white; stroke-width:1; stroke:black; " description="&lt;b&gt;C4S70_RS04330&lt;/b&gt;&lt;br&gt;hypothetical protein&lt;br&gt;Location: 225411 - 225737" locus_tag="C4S70_RS04330" class="clusterblast-orf" id="dummy-1_h1_1_3"  />
</g>
<g id="a1_004"  >
<polygon points="52,90 62,90 67,85 62,80 52,80 52,90 " style="fill:white; stroke-width:1; stroke:black; " description="&lt;b&gt;C4S70_RS04335&lt;/b&gt;&lt;br&gt;glyceraldehyde-3-phosphate dehydrogenase&lt;br&gt;Location: 225791 - 226771" locus_tag="C4S70_RS04335" class="clusterblast-orf" id="dummy-1_h1_1_4"  />
</g>
<g id="a1_005"  >
<polygon points="67,85 72,80 75,80 75,90 72,90 67,85 " style="fill:white; stroke-width:1; stroke:black; " description="&lt;b&gt;C4S70_RS04340&lt;/b&gt;&lt;br&gt;ureidoglycolate lyase&lt;br&gt;Location: 226773 - 227258" locus_tag="C4S70_RS04340" class="clusterblast-orf" id="dummy-1_h1_1_5"  />
</g>
<g id="a1_006"  >
<polygon points="76,85 81,80 98,80 98,90 81,90 76,85 " style="fill:white; stroke-width:1; stroke:black; " description="&lt;b&gt;C4S70_RS04345&lt;/b&gt;&lt;br&gt;allantoinase PuuE&lt;br&gt;Location: 227365 - 228774" locus_tag="C4S70_RS04345" class="clusterblast-orf" id="dummy-1_h1_1_6"  />
</g>
<g id="a1_007"  >
<polygon points="100,90 100,90 105,85 100,80 100,80 100,90 " style="fill:white; stroke-width:1; stroke:black; " description="&lt;b&gt;C4S70_RS04350&lt;/b&gt;&lt;br&gt;hydroxyisourate hydrolase&lt;br&gt;Location: 228918 - 229271" locus_tag="C4S70_RS04350" class="clusterblast-orf" id="dummy-1_h1_1_7"  />
</g>
<g id="a1_008"  >
<polygon points="107,90 114,90 119,85 114,80 107,80 107,90 " style="fill:white; stroke-width:1; stroke:black; " description="&lt;b&gt;C4S70_RS04355&lt;/b&gt;&lt;br&gt;dioxygenase&lt;br&gt;Location: 229364 - 230161" locus_tag="C4S70_RS04355" class="clusterblast-orf" id="dummy-1_h1_1_8"  />
</g>
<g id="a1_009"  >
<polygon points="119,85 124,80 172,80 172,90 124,90 119,85 " style="fill:#1585d8; stroke-width:1; stroke:black; " description="&lt;b&gt;C4S70_RS04360&lt;/b&gt;&lt;br&gt;translocation/assembly module TamB&lt;br&gt;Location: 230165 - 233587&lt;br&gt;&lt;br&gt;&lt;b&gt;BlastP hit with ctg2_73&lt;/b&gt;&lt;br&gt;Percentage identity: 32&lt;br&gt;Percentage coverage: 99&lt;br&gt;BLAST bit score: 565&lt;br&gt;E-value: 4.1e-179" locus_tag="C4S70_RS04360" class="clusterblast-orf" id="dummy-1_h1_1_9"  />
</g>
<g id="a1_0010"  >
<polygon points="172,85 177,80 200,80 200,90 177,90 172,85 " style="fill:#4dd815; stroke-width:1; stroke:black; " description="&lt;b&gt;C4S70_RS04365&lt;/b&gt;&lt;br&gt;BamA/TamA family outer membrane protein&lt;br&gt;Location: 233587 - 235419&lt;br&gt;&lt;br&gt;&lt;b&gt;BlastP hit with ctg2_72&lt;/b&gt;&lt;br&gt;Percentage identity: 42&lt;br&gt;Percentage coverage: 96&lt;br&gt;BLAST bit score: 466&lt;br&gt;E-value: 8.2e-156" locus_tag="C4S70_RS04365" class="clusterblast-orf" id="dummy-1_h1_1_10"  />
</g>
<g id="a1_0011"  >
<polygon points="202,85 207,80 221,80 221,90 207,90 202,85 " style="fill:white; stroke-width:1; stroke:black; " description="&lt;b&gt;C4S70_RS04370&lt;/b&gt;&lt;br&gt;urate hydroxylase PuuD&lt;br&gt;Location: 235547 - 236776" locus_tag="C4S70_RS04370" class="clusterblast-orf" id="dummy-1_h1_1_11"  />
</g>
<g id="a1_0012"  >
<polygon points="222,90 231,90 236,85 231,80 222,80 222,90 " style="fill:white; stroke-width:1; stroke:black; " description="&lt;b&gt;C4S70_RS04375&lt;/b&gt;&lt;br&gt;LysR family transcriptional regulator&lt;br&gt;Location: 236877 - 237803" locus_tag="C4S70_RS04375" class="clusterblast-orf" id="dummy-1_h1_1_12"  />
</g>
<g id="a1_0013"  >
<polygon points="238,85 243,80 277,80 277,90 243,90 238,85 " style="fill:white; stroke-width:1; stroke:black; " description="&lt;b&gt;C4S70_RS04380&lt;/b&gt;&lt;br&gt;hypothetical protein&lt;br&gt;Location: 237916 - 240428" locus_tag="C4S70_RS04380" class="clusterblast-orf" id="dummy-1_h1_1_13"  />
</g>
<g id="a1_0014"  >
<polygon points="279,85 284,80 290,80 290,90 284,90 279,85 " style="fill:#a115d8; stroke-width:1; stroke:black; " description="&lt;b&gt;C4S70_RS04385&lt;/b&gt;&lt;br&gt;4'-phosphopantetheinyl transferase superfamily protein&lt;br&gt;Location: 240587 - 241294&lt;br&gt;&lt;br&gt;&lt;b&gt;BlastP hit with ctg2_79&lt;/b&gt;&lt;br&gt;Percentage identity: 49&lt;br&gt;Percentage coverage: 94&lt;br&gt;BLAST bit score: 180&lt;br&gt;E-value: 5.84e-55" locus_tag="C4S70_RS04385" class="clusterblast-orf" id="dummy-1_h1_1_14"  />
</g>
<g id="a1_0015"  >
<polygon points="290,85 295,80 360,80 360,90 295,90 290,85 " style="fill:#d86915; stroke-width:1; stroke:black; " description="&lt;b&gt;C4S70_RS04390&lt;/b&gt;&lt;br&gt;LLM class flavin-dependent oxidoreductase&lt;br&gt;Location: 241291 - 245895&lt;br&gt;&lt;br&gt;&lt;b&gt;BlastP hit with ctg2_80&lt;/b&gt;&lt;br&gt;Percentage identity: 56&lt;br&gt;Percentage coverage: 104&lt;br&gt;BLAST bit score: 1540&lt;br&gt;E-value: 0.0" locus_tag="C4S70_RS04390" class="clusterblast-orf" id="dummy-1_h1_1_15"  />
</g>
<g id="a1_0016"  >
<polygon points="360,85 365,80 376,80 376,90 365,90 360,85 " style="fill:#15d831; stroke-width:1; stroke:black; " description="&lt;b&gt;C4S70_RS04395&lt;/b&gt;&lt;br&gt;glycosyltransferase family 2 protein&lt;br&gt;Location: 245892 - 246902&lt;br&gt;&lt;br&gt;&lt;b&gt;BlastP hit with ctg2_81&lt;/b&gt;&lt;br&gt;Percentage identity: 56&lt;br&gt;Percentage coverage: 100&lt;br&gt;BLAST bit score: 347&lt;br&gt;E-value: 1.96e-117" locus_tag="C4S70_RS04395" class="clusterblast-orf" id="dummy-1_h1_1_16"  />
</g>
<g id="a1_0017"  >
<polygon points="376,85 381,80 475,80 475,90 381,90 376,85 " style="fill:#1531d8; stroke-width:1; stroke:black; " description="&lt;b&gt;C4S70_RS04400&lt;/b&gt;&lt;br&gt;type I polyketide synthase&lt;br&gt;Location: 246908 - 253384&lt;br&gt;&lt;br&gt;&lt;b&gt;BlastP hit with ctg2_82&lt;/b&gt;&lt;br&gt;Percentage identity: 60&lt;br&gt;Percentage coverage: 102&lt;br&gt;BLAST bit score: 2424&lt;br&gt;E-value: 0.0" locus_tag="C4S70_RS04400" class="clusterblast-orf" id="dummy-1_h1_1_17"  />
</g>
<g id="a1_0018"  >
<polygon points="478,85 483,80 500,80 500,90 483,90 478,85 " style="fill:#d815bc; stroke-width:1; stroke:black; " description="&lt;b&gt;C4S70_RS04405&lt;/b&gt;&lt;br&gt;hypothetical protein&lt;br&gt;Location: 253600 - 255024&lt;br&gt;&lt;br&gt;&lt;b&gt;BlastP hit with ctg2_83&lt;/b&gt;&lt;br&gt;Percentage identity: 46&lt;br&gt;Percentage coverage: 94&lt;br&gt;BLAST bit score: 393&lt;br&gt;E-value: 6.6e-131" locus_tag="C4S70_RS04405" class="clusterblast-orf" id="dummy-1_h1_1_18"  />
</g>
<g id="a1_0019"  >
<polygon points="504,90 510,90 515,85 510,80 504,80 504,90 " style="fill:white; stroke-width:1; stroke:black; " description="&lt;b&gt;C4S70_RS04410&lt;/b&gt;&lt;br&gt;WecB/TagA/CpsF family glycosyltransferase&lt;br&gt;Location: 255266 - 256015" locus_tag="C4S70_RS04410" class="clusterblast-orf" id="dummy-1_h1_1_19"  />
</g>
<g id="a1_0020"  >
<polygon points="518,85 523,80 533,80 533,90 523,90 518,85 " style="fill:white; stroke-width:1; stroke:black; " description="&lt;b&gt;C4S70_RS04415&lt;/b&gt;&lt;br&gt;glycosyltransferase&lt;br&gt;Location: 256170 - 257147" locus_tag="C4S70_RS04415" class="clusterblast-orf" id="dummy-1_h1_1_20"  />
</g>
<g id="a1_0021"  >
<polygon points="534,90 545,90 550,85 545,80 534,80 534,90 " style="fill:white; stroke-width:1; stroke:black; " description="&lt;b&gt;C4S70_RS04420&lt;/b&gt;&lt;br&gt;HlyD family efflux transporter periplasmic adaptor subunit&lt;br&gt;Location: 257236 - 258254" locus_tag="C4S70_RS04420" class="clusterblast-orf" id="dummy-1_h1_1_21"  />
</g>
<g id="a1_0022"  >
<polygon points="550,90 559,90 564,85 559,80 550,80 550,90 " style="fill:white; stroke-width:1; stroke:black; " description="&lt;b&gt;C4S70_RS04425&lt;/b&gt;&lt;br&gt;ABC transporter ATP-binding protein&lt;br&gt;Location: 258251 - 259189" locus_tag="C4S70_RS04425" class="clusterblast-orf" id="dummy-1_h1_1_22"  />
</g>
<g id="a1_0023"  >
<polygon points="564,90 577,90 582,85 577,80 564,80 564,90 " style="fill:white; stroke-width:1; stroke:black; " description="&lt;b&gt;C4S70_RS04430&lt;/b&gt;&lt;br&gt;ABC transporter permease&lt;br&gt;Location: 259186 - 260331" locus_tag="C4S70_RS04430" class="clusterblast-orf" id="dummy-1_h1_1_23"  />
</g>
<g id="a1_0024"  >
<polygon points="582,85 587,80 600,80 600,90 587,90 582,85 " style="fill:white; stroke-width:1; stroke:black; " description="&lt;b&gt;C4S70_RS04435&lt;/b&gt;&lt;br&gt;glycosyltransferase&lt;br&gt;Location: 260335 - 261540" locus_tag="C4S70_RS04435" class="clusterblast-orf" id="dummy-1_h1_1_24"  />
</g>
<g id="a1_0025"  >
<polygon points="603,90 619,90 624,85 619,80 603,80 603,90 " style="fill:white; stroke-width:1; stroke:black; " description="&lt;b&gt;C4S70_RS04440&lt;/b&gt;&lt;br&gt;oligosaccharide flippase family protein&lt;br&gt;Location: 261728 - 263092" locus_tag="C4S70_RS04440" class="clusterblast-orf" id="dummy-1_h1_1_25"  />
</g>
<g id="a1_0026"  >
<polygon points="624,85 629,80 643,80 643,90 629,90 624,85 " style="fill:#d8bc15; stroke-width:1; stroke:black; " description="&lt;b&gt;C4S70_RS04445&lt;/b&gt;&lt;br&gt;DUF874 domain-containing protein&lt;br&gt;Location: 263108 - 264358&lt;br&gt;&lt;br&gt;&lt;b&gt;BlastP hit with ctg2_84&lt;/b&gt;&lt;br&gt;Percentage identity: 34&lt;br&gt;Percentage coverage: 95&lt;br&gt;BLAST bit score: 175&lt;br&gt;E-value: 3.01e-48" locus_tag="C4S70_RS04445" class="clusterblast-orf" id="dummy-1_h1_1_26"  />
</g>
<g id="a1_0027"  >
<polygon points="644,85 649,80 658,80 658,90 649,90 644,85 " style="fill:#15d885; stroke-width:1; stroke:black; " description="&lt;b&gt;C4S70_RS04450&lt;/b&gt;&lt;br&gt;CpsD/CapB family tyrosine-protein kinase&lt;br&gt;Location: 264408 - 265289&lt;br&gt;&lt;br&gt;&lt;b&gt;BlastP hit with ctg2_85&lt;/b&gt;&lt;br&gt;Percentage identity: 33&lt;br&gt;Percentage coverage: 82&lt;br&gt;BLAST bit score: 107&lt;br&gt;E-value: 3.25e-25" locus_tag="C4S70_RS04450" class="clusterblast-orf" id="dummy-1_h1_1_27"  />
</g>
<g id="a1_0028"  >
<polygon points="659,85 664,80 671,80 671,90 664,90 659,85 " style="fill:white; stroke-width:1; stroke:black; " description="&lt;b&gt;C4S70_RS04455&lt;/b&gt;&lt;br&gt;sugar transferase&lt;br&gt;Location: 265393 - 266169" locus_tag="C4S70_RS04455" class="clusterblast-orf" id="dummy-1_h1_1_28"  />
</g>
<g id="a1_0029"  >
<polygon points="679,85 684,80 695,80 695,90 684,90 679,85 " style="fill:white; stroke-width:1; stroke:black; " description="&lt;b&gt;C4S70_RS04460&lt;/b&gt;&lt;br&gt;hypothetical protein&lt;br&gt;Location: 266692 - 267702" locus_tag="C4S70_RS04460" class="clusterblast-orf" id="dummy-1_h1_1_29"  />
</g>
<g id="a1_0030"  >
<polygon points="697,85 702,80 704,80 704,90 702,90 697,85 " style="fill:white; stroke-width:1; stroke:black; " description="&lt;b&gt;C4S70_RS04465&lt;/b&gt;&lt;br&gt;thioesterase&lt;br&gt;Location: 267823 - 268338" locus_tag="C4S70_RS04465" class="clusterblast-orf" id="dummy-1_h1_1_30"  />
</g>
<g id="a1_0031"  >
<polygon points="706,90 724,90 729,85 724,80 706,80 706,90 " style="fill:#a1d815; stroke-width:1; stroke:black; " description="&lt;b&gt;C4S70_RS04470&lt;/b&gt;&lt;br&gt;amidase&lt;br&gt;Location: 268459 - 269916&lt;br&gt;&lt;br&gt;&lt;b&gt;BlastP hit with ctg2_90&lt;/b&gt;&lt;br&gt;Percentage identity: 37&lt;br&gt;Percentage coverage: 47&lt;br&gt;BLAST bit score: 72&lt;br&gt;E-value: 1.84e-11" locus_tag="C4S70_RS04470" class="clusterblast-orf" id="dummy-1_h1_1_31"  />
</g>
<g id="a1_0032"  >
<polygon points="729,90 734,90 739,85 734,80 729,80 729,90 " style="fill:white; stroke-width:1; stroke:black; " description="&lt;b&gt;C4S70_RS04475&lt;/b&gt;&lt;br&gt;ABC transporter ATP-binding protein&lt;br&gt;Location: 269918 - 270622" locus_tag="C4S70_RS04475" class="clusterblast-orf" id="dummy-1_h1_1_32"  />
</g>
<g id="a1_0033"  >
<polygon points="740,90 771,90 776,85 771,80 740,80 740,90 " style="fill:white; stroke-width:1; stroke:black; " description="&lt;b&gt;C4S70_RS04480&lt;/b&gt;&lt;br&gt;FtsX-like permease family protein&lt;br&gt;Location: 270630 - 272993" locus_tag="C4S70_RS04480" class="clusterblast-orf" id="dummy-1_h1_1_33"  />
</g>
</svg>
