<svg xmlns="http://www.w3.org/2000/svg" xmlns:xlink="http://www.w3.org/1999/xlink" version="1.1" x="0" y="0" height="230" width="800" viewBox="0 0 800 230" preserveAspectRatio="none"  >
<g label="Query sequence" class="clusterblast-cluster"  >
<text x="5" y="20" class="clusterblast-acc"  >
Query sequence</text>
<line x1="10" y1="35" x2="778.0" y2="35" style="stroke-width:1; stroke:grey; "  />
<polygon points="0,35 5,30 53,30 53,40 5,40 0,35 " style="fill:#d81515; stroke-width:1; stroke:black; " description="&lt;b&gt;ctg3_100&lt;/b&gt;&lt;br&gt;ctg3 100&lt;br&gt;Location: 89229 - 90534" locus_tag="ctg3_100" class="clusterblast-orf" id="dummy-1_q0_0_all"  />
<polygon points="54,35 59,30 73,30 73,40 59,40 54,35 " style="fill:#3cd815; stroke-width:1; stroke:black; " description="&lt;b&gt;ctg3_101&lt;/b&gt;&lt;br&gt;ctg3 101&lt;br&gt;Location: 90567 - 91038" locus_tag="ctg3_101" class="clusterblast-orf" id="dummy-1_q1_0_all"  />
<polygon points="74,35 79,30 102,30 102,40 79,40 74,35 " style="fill:#1563d8; stroke-width:1; stroke:black; " description="&lt;b&gt;ctg3_102&lt;/b&gt;&lt;br&gt;ctg3 102&lt;br&gt;Location: 91041 - 91740" locus_tag="ctg3_102" class="clusterblast-orf" id="dummy-1_q2_0_all"  />
<polygon points="106,35 111,30 123,30 123,40 111,40 106,35 " style="fill:#b115d8; stroke-width:1; stroke:black; " description="&lt;b&gt;ctg3_103&lt;/b&gt;&lt;br&gt;ctg3 103&lt;br&gt;Location: 91844 - 92249" locus_tag="ctg3_103" class="clusterblast-orf" id="dummy-1_q3_0_all"  />
<polygon points="123,35 128,30 148,30 148,40 128,40 123,35 " style="fill:#d88a15; stroke-width:1; stroke:black; " description="&lt;b&gt;ctg3_104&lt;/b&gt;&lt;br&gt;ctg3 104&lt;br&gt;Location: 92253 - 92877" locus_tag="ctg3_104" class="clusterblast-orf" id="dummy-1_q4_0_all"  />
<polygon points="154,40 184,40 189,35 184,30 154,30 154,40 " style="fill:#15d863; stroke-width:1; stroke:black; " description="&lt;b&gt;ctg3_105&lt;/b&gt;&lt;br&gt;ctg3 105&lt;br&gt;Location: 93015 - 93894" locus_tag="ctg3_105" class="clusterblast-orf" id="dummy-1_q5_0_all"  />
<polygon points="192,40 198,40 203,35 198,30 192,30 192,40 " style="fill:white; stroke-width:1; stroke:black; " description="&lt;b&gt;ctg3_106&lt;/b&gt;&lt;br&gt;ctg3 106&lt;br&gt;Location: 93969 - 94224" locus_tag="ctg3_106" class="clusterblast-orf" id="dummy-1_q6_0_all"  />
<polygon points="202,40 210,40 215,35 210,30 202,30 202,40 " style="fill:white; stroke-width:1; stroke:black; " description="&lt;b&gt;ctg3_107&lt;/b&gt;&lt;br&gt;ctg3 107&lt;br&gt;Location: 94201 - 94513" locus_tag="ctg3_107" class="clusterblast-orf" id="dummy-1_q7_0_all"  />
<polygon points="219,35 224,30 306,30 306,40 224,40 219,35 " style="fill:#3c15d8; stroke-width:1; stroke:black; " description="&lt;b&gt;ctg3_108&lt;/b&gt;&lt;br&gt;ctg3 108&lt;br&gt;Location: 94623 - 96771" locus_tag="ctg3_108" class="clusterblast-orf" id="dummy-1_q8_0_all"  />
<polygon points="323,40 347,40 352,35 347,30 323,30 323,40 " style="fill:#d8158a; stroke-width:1; stroke:black; " description="&lt;b&gt;ctg3_109&lt;/b&gt;&lt;br&gt;ctg3 109&lt;br&gt;Location: 97190 - 97904" locus_tag="ctg3_109" class="clusterblast-orf" id="dummy-1_q9_0_all"  />
<polygon points="356,40 385,40 390,35 385,30 356,30 356,40 " style="fill:#b1d815; stroke-width:1; stroke:black; " description="&lt;b&gt;ctg3_110&lt;/b&gt;&lt;br&gt;ctg3 110&lt;br&gt;Location: 97996 - 98824" locus_tag="ctg3_110" class="clusterblast-orf" id="dummy-1_q10_0_all"  />
<polygon points="393,35 398,30 410,30 410,40 398,40 393,35 " style="fill:white; stroke-width:1; stroke:black; " description="&lt;b&gt;ctg3_111&lt;/b&gt;&lt;br&gt;ctg3 111&lt;br&gt;Location: 98901 - 99324" locus_tag="ctg3_111" class="clusterblast-orf" id="dummy-1_q11_0_all"  />
<polygon points="417,35 422,30 445,30 445,40 422,40 417,35 " style="fill:#15d8d8; stroke-width:1; stroke:black; " description="&lt;b&gt;ctg3_112&lt;/b&gt;&lt;br&gt;ctg3 112&lt;br&gt;Location: 99505 - 100189" locus_tag="ctg3_112" class="clusterblast-orf" id="dummy-1_q12_0_all"  />
<polygon points="445,35 450,30 497,30 497,40 450,40 445,35 " style="fill:white; stroke-width:1; stroke:black; " description="&lt;b&gt;ctg3_113&lt;/b&gt;&lt;br&gt;ctg3 113&lt;br&gt;Location: 100181 - 101468" locus_tag="ctg3_113" class="clusterblast-orf" id="dummy-1_q13_0_all"  />
<polygon points="503,35 508,30 526,30 526,40 508,40 503,35 " style="fill:white; stroke-width:1; stroke:black; " description="&lt;b&gt;ctg3_114&lt;/b&gt;&lt;br&gt;ctg3 114&lt;br&gt;Location: 101619 - 102177" locus_tag="ctg3_114" class="clusterblast-orf" id="dummy-1_q14_0_all"  />
<polygon points="530,35 535,30 620,30 620,40 535,40 530,35 " style="fill:white; stroke-width:1; stroke:black; " description="&lt;b&gt;ctg3_115&lt;/b&gt;&lt;br&gt;ctg3 115&lt;br&gt;Location: 102287 - 104486" locus_tag="ctg3_115" class="clusterblast-orf" id="dummy-1_q15_0_all"  />
<polygon points="624,35 629,30 682,30 682,40 629,40 624,35 " style="fill:white; stroke-width:1; stroke:black; " description="&lt;b&gt;ctg3_116&lt;/b&gt;&lt;br&gt;ctg3 116&lt;br&gt;Location: 104589 - 106023" locus_tag="ctg3_116" class="clusterblast-orf" id="dummy-1_q16_0_all"  />
<polygon points="682,35 687,30 722,30 722,40 687,40 682,35 " style="fill:white; stroke-width:1; stroke:black; " description="&lt;b&gt;ctg3_117&lt;/b&gt;&lt;br&gt;ctg3 117&lt;br&gt;Location: 106019 - 107012" locus_tag="ctg3_117" class="clusterblast-orf" id="dummy-1_q17_0_all"  />
<polygon points="722,35 727,30 780,30 780,40 727,40 722,35 " style="fill:white; stroke-width:1; stroke:black; " description="&lt;b&gt;ctg3_118&lt;/b&gt;&lt;br&gt;ctg3 118&lt;br&gt;Location: 107008 - 108433" locus_tag="ctg3_118" class="clusterblast-orf" id="dummy-1_q18_0_all"  />
</g>
<g label="NZ_CP033446" description="NZ_CP033446 (1400560-1421193): Rhodobacter sphaeroides strain AB27 chromosome 1 (15% of genes show similarity), hserlactone" class="clusterblast-cluster"  >
<text x="5" y="70" class="clusterblast-acc"  >
<a xlink:href="https://antismash-db.secondarymetabolites.org/area.html?record=NZ_CP033446&amp;start=1400560&amp;end=1421193" target="_blank">NZ_CP033446 (1400560-1421193)</a>: Rhodobacter sphaeroides strain AB27 chromosome 1 (15% of genes show similarity), hserlactone</text>
<line x1="10" y1="85" x2="778.0" y2="85" style="stroke-width:1; stroke:grey; "  />
</g>
<g id="a1_000"  >
<polygon points="15,90 24,90 29,85 24,80 15,80 15,90 " style="fill:white; stroke-width:1; stroke:black; " description="&lt;b&gt;EBL88_RS07200&lt;/b&gt;&lt;br&gt;DUF4112 domain-containing protein&lt;br&gt;Location: 1420412 - 1420068" locus_tag="EBL88_RS07200" class="clusterblast-orf" id="dummy-1_h1_6_0"  />
</g>
<g id="a1_001"  >
<polygon points="30,85 35,80 43,80 43,90 35,90 30,85 " style="fill:white; stroke-width:1; stroke:black; " description="&lt;b&gt;EBL88_RS07195&lt;/b&gt;&lt;br&gt;c-type cytochrome&lt;br&gt;Location: 1420046 - 1419744" locus_tag="EBL88_RS07195" class="clusterblast-orf" id="dummy-1_h1_6_1"  />
</g>
<g id="a1_002"  >
<polygon points="47,85 52,80 84,80 84,90 52,90 47,85 " style="fill:white; stroke-width:1; stroke:black; " description="&lt;b&gt;EBL88_RS07190&lt;/b&gt;&lt;br&gt;c-type cytochrome&lt;br&gt;Location: 1419643 - 1418718" locus_tag="EBL88_RS07190" class="clusterblast-orf" id="dummy-1_h1_6_2"  />
</g>
<g id="a1_003"  >
<polygon points="85,85 90,80 102,80 102,90 90,90 85,85 " style="fill:white; stroke-width:1; stroke:black; " description="&lt;b&gt;EBL88_RS07185&lt;/b&gt;&lt;br&gt;hypothetical protein&lt;br&gt;Location: 1418692 - 1418285" locus_tag="EBL88_RS07185" class="clusterblast-orf" id="dummy-1_h1_6_3"  />
</g>
<g id="a1_004"  >
<polygon points="102,85 107,80 207,80 207,90 107,90 102,85 " style="fill:white; stroke-width:1; stroke:black; " description="&lt;b&gt;EBL88_RS07180&lt;/b&gt;&lt;br&gt;cytochrome c oxidase subunit I&lt;br&gt;Location: 1418274 - 1415701" locus_tag="EBL88_RS07180" class="clusterblast-orf" id="dummy-1_h1_6_4"  />
</g>
<g id="a1_005"  >
<polygon points="207,85 212,80 246,80 246,90 212,90 207,85 " style="fill:white; stroke-width:1; stroke:black; " description="&lt;b&gt;EBL88_RS07175&lt;/b&gt;&lt;br&gt;c-type cytochrome&lt;br&gt;Location: 1415704 - 1414730" locus_tag="EBL88_RS07175" class="clusterblast-orf" id="dummy-1_h1_6_5"  />
</g>
<g id="a1_006"  >
<polygon points="260,85 265,80 291,80 291,90 265,90 260,85 " style="fill:white; stroke-width:1; stroke:black; " description="&lt;b&gt;EBL88_RS07170&lt;/b&gt;&lt;br&gt;phosphatase PAP2 family protein&lt;br&gt;Location: 1414394 - 1413624" locus_tag="EBL88_RS07170" class="clusterblast-orf" id="dummy-1_h1_6_6"  />
</g>
<g id="a1_007"  >
<polygon points="301,85 306,80 321,80 321,90 306,90 301,85 " style="fill:white; stroke-width:1; stroke:black; " description="&lt;b&gt;EBL88_RS07165&lt;/b&gt;&lt;br&gt;autoinducer binding domain-containing protein&lt;br&gt;Location: 1413371 - 1412889" locus_tag="EBL88_RS07165" class="clusterblast-orf" id="dummy-1_h1_6_7"  />
</g>
<g id="a1_008"  >
<polygon points="323,90 345,90 350,85 345,80 323,80 323,90 " style="fill:white; stroke-width:1; stroke:black; " description="&lt;b&gt;EBL88_RS07160&lt;/b&gt;&lt;br&gt;LuxR family transcriptional regulator&lt;br&gt;Location: 1412841 - 1412182" locus_tag="EBL88_RS07160" class="clusterblast-orf" id="dummy-1_h1_6_8"  />
</g>
<g id="a1_009"  >
<polygon points="354,90 378,90 383,85 378,80 354,80 354,90 " style="fill:#d8158a; stroke-width:1; stroke:black; " description="&lt;b&gt;EBL88_RS07155&lt;/b&gt;&lt;br&gt;LuxR family transcriptional regulator&lt;br&gt;Location: 1412071 - 1411370&lt;br&gt;&lt;br&gt;&lt;b&gt;BlastP hit with ctg3_109&lt;/b&gt;&lt;br&gt;Percentage identity: 42&lt;br&gt;Percentage coverage: 100&lt;br&gt;BLAST bit score: 202&lt;br&gt;E-value: 1.45e-63" locus_tag="EBL88_RS07155" class="clusterblast-orf" id="dummy-1_h1_6_9"  />
</g>
<g id="a1_0010"  >
<polygon points="390,90 411,90 416,85 411,80 390,80 390,90 " style="fill:#b1d815; stroke-width:1; stroke:black; " description="&lt;b&gt;EBL88_RS07145&lt;/b&gt;&lt;br&gt;GNAT family N-acetyltransferase&lt;br&gt;Location: 1411193 - 1410561&lt;br&gt;&lt;br&gt;&lt;b&gt;BlastP hit with ctg3_110&lt;/b&gt;&lt;br&gt;Percentage identity: 58&lt;br&gt;Percentage coverage: 73&lt;br&gt;BLAST bit score: 251&lt;br&gt;E-value: 2.2e-82" locus_tag="EBL88_RS07145" class="clusterblast-orf" id="dummy-1_h1_6_10"  />
</g>
<g id="a1_0011"  >
<polygon points="420,90 426,90 431,85 426,80 420,80 420,90 " style="fill:white; stroke-width:1; stroke:black; " description="&lt;b&gt;EBL88_RS07140&lt;/b&gt;&lt;br&gt;hypothetical protein&lt;br&gt;Location: 1410446 - 1410174" locus_tag="EBL88_RS07140" class="clusterblast-orf" id="dummy-1_h1_6_11"  />
</g>
<g id="a1_0012"  >
<polygon points="444,90 505,90 510,85 505,80 444,80 444,90 " style="fill:white; stroke-width:1; stroke:black; " description="&lt;b&gt;EBL88_RS07135&lt;/b&gt;&lt;br&gt;glucan biosynthesis protein G&lt;br&gt;Location: 1409853 - 1408231" locus_tag="EBL88_RS07135" class="clusterblast-orf" id="dummy-1_h1_6_12"  />
</g>
<g id="a1_0013"  >
<polygon points="510,90 513,90 518,85 513,80 510,80 510,90 " style="fill:white; stroke-width:1; stroke:black; " description="&lt;b&gt;EBL88_RS07130&lt;/b&gt;&lt;br&gt;hypothetical protein&lt;br&gt;Location: 1408231 - 1408031" locus_tag="EBL88_RS07130" class="clusterblast-orf" id="dummy-1_h1_6_13"  />
</g>
<g id="a1_0014"  >
<polygon points="518,90 586,90 591,85 586,80 518,80 518,90 " style="fill:white; stroke-width:1; stroke:black; " description="&lt;b&gt;EBL88_RS07125&lt;/b&gt;&lt;br&gt;glucans biosynthesis glucosyltransferase MdoH&lt;br&gt;Location: 1408027 - 1406240" locus_tag="EBL88_RS07125" class="clusterblast-orf" id="dummy-1_h1_6_14"  />
</g>
<g id="a1_0015"  >
<polygon points="591,90 634,90 639,85 634,80 591,80 591,90 " style="fill:white; stroke-width:1; stroke:black; " description="&lt;b&gt;EBL88_RS07120&lt;/b&gt;&lt;br&gt;OpgC domain-containing protein&lt;br&gt;Location: 1406247 - 1405048" locus_tag="EBL88_RS07120" class="clusterblast-orf" id="dummy-1_h1_6_15"  />
</g>
<g id="a1_0016"  >
<polygon points="661,90 699,90 704,85 699,80 661,80 661,90 " style="fill:#15d8d8; stroke-width:1; stroke:black; " description="&lt;b&gt;EBL88_RS07110&lt;/b&gt;&lt;br&gt;methionine ABC transporter ATP-binding protein&lt;br&gt;Location: 1404523 - 1403462&lt;br&gt;&lt;br&gt;&lt;b&gt;BlastP hit with ctg3_112&lt;/b&gt;&lt;br&gt;Percentage identity: 38&lt;br&gt;Percentage coverage: 96&lt;br&gt;BLAST bit score: 141&lt;br&gt;E-value: 2.27e-38" locus_tag="EBL88_RS07110" class="clusterblast-orf" id="dummy-1_h1_6_16"  />
</g>
<g id="a1_0017"  >
<polygon points="703,90 726,90 731,85 726,80 703,80 703,90 " style="fill:white; stroke-width:1; stroke:black; " description="&lt;b&gt;EBL88_RS07105&lt;/b&gt;&lt;br&gt;ABC transporter permease&lt;br&gt;Location: 1403472 - 1402798" locus_tag="EBL88_RS07105" class="clusterblast-orf" id="dummy-1_h1_6_17"  />
</g>
<g id="a1_0018"  >
<polygon points="732,90 759,90 764,85 759,80 732,80 732,90 " style="fill:white; stroke-width:1; stroke:black; " description="&lt;b&gt;EBL88_RS07100&lt;/b&gt;&lt;br&gt;MetQ/NlpA family ABC transporter substrate-binding protein&lt;br&gt;Location: 1402769 - 1401993" locus_tag="EBL88_RS07100" class="clusterblast-orf" id="dummy-1_h1_6_18"  />
</g>
</svg>
