<svg xmlns="http://www.w3.org/2000/svg" xmlns:xlink="http://www.w3.org/1999/xlink" version="1.1" x="0" y="0" height="230" width="800" viewBox="0 0 800 230" preserveAspectRatio="none"  >
<g label="Query sequence" class="clusterblast-cluster"  >
<text x="5" y="20" class="clusterblast-acc"  >
Query sequence</text>
<line x1="10" y1="35" x2="778.0" y2="35" style="stroke-width:1; stroke:grey; "  />
<polygon points="2,40 36,40 41,35 36,30 2,30 2,40 " style="fill:white; stroke-width:1; stroke:black; " description="&lt;b&gt;ctg2_64&lt;/b&gt;&lt;br&gt;ctg2 64&lt;br&gt;Location: 61145 - 63698" locus_tag="ctg2_64" class="clusterblast-orf" id="dummy-1_q0_0_all"  />
<polygon points="41,35 46,30 50,30 50,40 46,40 41,35 " style="fill:white; stroke-width:1; stroke:black; " description="&lt;b&gt;ctg2_65&lt;/b&gt;&lt;br&gt;ctg2 65&lt;br&gt;Location: 63673 - 64294" locus_tag="ctg2_65" class="clusterblast-orf" id="dummy-1_q1_0_all"  />
<polygon points="50,35 55,30 63,30 63,40 55,40 50,35 " style="fill:white; stroke-width:1; stroke:black; " description="&lt;b&gt;ctg2_66&lt;/b&gt;&lt;br&gt;ctg2 66&lt;br&gt;Location: 64301 - 65171" locus_tag="ctg2_66" class="clusterblast-orf" id="dummy-1_q2_0_all"  />
<polygon points="66,40 69,40 74,35 69,30 66,30 66,40 " style="fill:white; stroke-width:1; stroke:black; " description="&lt;b&gt;ctg2_67&lt;/b&gt;&lt;br&gt;ctg2 67&lt;br&gt;Location: 65325 - 65832" locus_tag="ctg2_67" class="clusterblast-orf" id="dummy-1_q3_0_all"  />
<polygon points="73,40 79,40 84,35 79,30 73,30 73,40 " style="fill:white; stroke-width:1; stroke:black; " description="&lt;b&gt;ctg2_68&lt;/b&gt;&lt;br&gt;ctg2 68&lt;br&gt;Location: 65828 - 66548" locus_tag="ctg2_68" class="clusterblast-orf" id="dummy-1_q4_0_all"  />
<polygon points="85,35 90,30 100,30 100,40 90,40 85,35 " style="fill:white; stroke-width:1; stroke:black; " description="&lt;b&gt;ctg2_69&lt;/b&gt;&lt;br&gt;ctg2 69&lt;br&gt;Location: 66611 - 67586" locus_tag="ctg2_69" class="clusterblast-orf" id="dummy-1_q5_0_all"  />
<polygon points="103,35 108,30 135,30 135,40 108,40 103,35 " style="fill:#d81515; stroke-width:1; stroke:black; " description="&lt;b&gt;ctg2_70&lt;/b&gt;&lt;br&gt;ctg2 70&lt;br&gt;Location: 67736 - 69866" locus_tag="ctg2_70" class="clusterblast-orf" id="dummy-1_q6_0_all"  />
<polygon points="138,35 143,30 159,30 159,40 143,40 138,35 " style="fill:white; stroke-width:1; stroke:black; " description="&lt;b&gt;ctg2_71&lt;/b&gt;&lt;br&gt;ctg2 71&lt;br&gt;Location: 70074 - 71463" locus_tag="ctg2_71" class="clusterblast-orf" id="dummy-1_q7_0_all"  />
<polygon points="162,40 185,40 190,35 185,30 162,30 162,40 " style="fill:#4dd815; stroke-width:1; stroke:black; " description="&lt;b&gt;ctg2_72&lt;/b&gt;&lt;br&gt;ctg2 72&lt;br&gt;Location: 71634 - 73467" locus_tag="ctg2_72" class="clusterblast-orf" id="dummy-1_q8_0_all"  />
<polygon points="190,40 244,40 249,35 244,30 190,30 190,40 " style="fill:#1585d8; stroke-width:1; stroke:black; " description="&lt;b&gt;ctg2_73&lt;/b&gt;&lt;br&gt;ctg2 73&lt;br&gt;Location: 73466 - 77318" locus_tag="ctg2_73" class="clusterblast-orf" id="dummy-1_q9_0_all"  />
<polygon points="249,40 253,40 258,35 253,30 249,30 249,40 " style="fill:white; stroke-width:1; stroke:black; " description="&lt;b&gt;ctg2_74&lt;/b&gt;&lt;br&gt;ctg2 74&lt;br&gt;Location: 77330 - 77945" locus_tag="ctg2_74" class="clusterblast-orf" id="dummy-1_q10_0_all"  />
<polygon points="259,40 259,40 264,35 259,30 259,30 259,40 " style="fill:white; stroke-width:1; stroke:black; " description="&lt;b&gt;ctg2_75&lt;/b&gt;&lt;br&gt;ctg2 75&lt;br&gt;Location: 77989 - 78343" locus_tag="ctg2_75" class="clusterblast-orf" id="dummy-1_q11_0_all"  />
<polygon points="265,40 267,40 272,35 267,30 265,30 265,40 " style="fill:white; stroke-width:1; stroke:black; " description="&lt;b&gt;ctg2_76&lt;/b&gt;&lt;br&gt;ctg2 76&lt;br&gt;Location: 78386 - 78890" locus_tag="ctg2_76" class="clusterblast-orf" id="dummy-1_q12_0_all"  />
<polygon points="273,40 275,40 280,35 275,30 273,30 273,40 " style="fill:white; stroke-width:1; stroke:black; " description="&lt;b&gt;ctg2_77&lt;/b&gt;&lt;br&gt;ctg2 77&lt;br&gt;Location: 78910 - 79396" locus_tag="ctg2_77" class="clusterblast-orf" id="dummy-1_q13_0_all"  />
<polygon points="280,35 285,30 285,30 285,40 285,40 280,35 " style="fill:white; stroke-width:1; stroke:black; " description="&lt;b&gt;ctg2_78&lt;/b&gt;&lt;br&gt;ctg2 78&lt;br&gt;Location: 79408 - 79720" locus_tag="ctg2_78" class="clusterblast-orf" id="dummy-1_q14_0_all"  />
<polygon points="289,35 294,30 300,30 300,40 294,40 289,35 " style="fill:#a115d8; stroke-width:1; stroke:black; " description="&lt;b&gt;ctg2_79&lt;/b&gt;&lt;br&gt;ctg2 79&lt;br&gt;Location: 79994 - 80672" locus_tag="ctg2_79" class="clusterblast-orf" id="dummy-1_q15_0_all"  />
<polygon points="300,35 305,30 368,30 368,40 305,40 300,35 " style="fill:#d86915; stroke-width:1; stroke:black; " description="&lt;b&gt;ctg2_80&lt;/b&gt;&lt;br&gt;ctg2 80&lt;br&gt;Location: 80668 - 85156" locus_tag="ctg2_80" class="clusterblast-orf" id="dummy-1_q16_0_all"  />
<polygon points="368,35 373,30 383,30 383,40 373,40 368,35 " style="fill:#15d831; stroke-width:1; stroke:black; " description="&lt;b&gt;ctg2_81&lt;/b&gt;&lt;br&gt;ctg2 81&lt;br&gt;Location: 85161 - 86154" locus_tag="ctg2_81" class="clusterblast-orf" id="dummy-1_q17_0_all"  />
<polygon points="383,35 388,30 479,30 479,40 388,40 383,35 " style="fill:#1531d8; stroke-width:1; stroke:black; " description="&lt;b&gt;ctg2_82&lt;/b&gt;&lt;br&gt;ctg2 82&lt;br&gt;Location: 86150 - 92456" locus_tag="ctg2_82" class="clusterblast-orf" id="dummy-1_q18_0_all"  />
<polygon points="479,35 484,30 502,30 502,40 484,40 479,35 " style="fill:#d815bc; stroke-width:1; stroke:black; " description="&lt;b&gt;ctg2_83&lt;/b&gt;&lt;br&gt;ctg2 83&lt;br&gt;Location: 92452 - 93943" locus_tag="ctg2_83" class="clusterblast-orf" id="dummy-1_q19_0_all"  />
<polygon points="502,35 507,30 522,30 522,40 507,40 502,35 " style="fill:#d8bc15; stroke-width:1; stroke:black; " description="&lt;b&gt;ctg2_84&lt;/b&gt;&lt;br&gt;ctg2 84&lt;br&gt;Location: 93960 - 95244" locus_tag="ctg2_84" class="clusterblast-orf" id="dummy-1_q20_0_all"  />
<polygon points="522,35 527,30 535,30 535,40 527,40 522,35 " style="fill:#15d885; stroke-width:1; stroke:black; " description="&lt;b&gt;ctg2_85&lt;/b&gt;&lt;br&gt;ctg2 85&lt;br&gt;Location: 95277 - 96138" locus_tag="ctg2_85" class="clusterblast-orf" id="dummy-1_q21_0_all"  />
<polygon points="538,35 543,30 547,30 547,40 543,40 538,35 " style="fill:white; stroke-width:1; stroke:black; " description="&lt;b&gt;ctg2_86&lt;/b&gt;&lt;br&gt;ctg2 86&lt;br&gt;Location: 96308 - 96914" locus_tag="ctg2_86" class="clusterblast-orf" id="dummy-1_q22_0_all"  />
<polygon points="549,35 554,30 599,30 599,40 554,40 549,35 " style="fill:#4d15d8; stroke-width:1; stroke:black; " description="&lt;b&gt;ctg2_87&lt;/b&gt;&lt;br&gt;ctg2 87&lt;br&gt;Location: 97028 - 100352" locus_tag="ctg2_87" class="clusterblast-orf" id="dummy-1_q23_0_all"  />
<polygon points="599,35 604,30 617,30 617,40 604,40 599,35 " style="fill:#d81569; stroke-width:1; stroke:black; " description="&lt;b&gt;ctg2_88&lt;/b&gt;&lt;br&gt;ctg2 88&lt;br&gt;Location: 100302 - 101481" locus_tag="ctg2_88" class="clusterblast-orf" id="dummy-1_q24_0_all"  />
<polygon points="619,35 624,30 634,30 634,40 624,40 619,35 " style="fill:white; stroke-width:1; stroke:black; " description="&lt;b&gt;ctg2_89&lt;/b&gt;&lt;br&gt;ctg2 89&lt;br&gt;Location: 101655 - 102648" locus_tag="ctg2_89" class="clusterblast-orf" id="dummy-1_q25_0_all"  />
<polygon points="635,35 640,30 654,30 654,40 640,40 635,35 " style="fill:#a1d815; stroke-width:1; stroke:black; " description="&lt;b&gt;ctg2_90&lt;/b&gt;&lt;br&gt;ctg2 90&lt;br&gt;Location: 102697 - 103918" locus_tag="ctg2_90" class="clusterblast-orf" id="dummy-1_q26_0_all"  />
<polygon points="657,40 671,40 676,35 671,30 657,30 657,40 " style="fill:#15d8d8; stroke-width:1; stroke:black; " description="&lt;b&gt;ctg2_91&lt;/b&gt;&lt;br&gt;ctg2 91&lt;br&gt;Location: 104164 - 105391" locus_tag="ctg2_91" class="clusterblast-orf" id="dummy-1_q27_0_all"  />
<polygon points="676,35 681,30 683,30 683,40 681,40 676,35 " style="fill:white; stroke-width:1; stroke:black; " description="&lt;b&gt;ctg2_92&lt;/b&gt;&lt;br&gt;ctg2 92&lt;br&gt;Location: 105387 - 105864" locus_tag="ctg2_92" class="clusterblast-orf" id="dummy-1_q28_0_all"  />
<polygon points="686,40 691,40 696,35 691,30 686,30 686,40 " style="fill:white; stroke-width:1; stroke:black; " description="&lt;b&gt;ctg2_93&lt;/b&gt;&lt;br&gt;ctg2 93&lt;br&gt;Location: 106032 - 106668" locus_tag="ctg2_93" class="clusterblast-orf" id="dummy-1_q29_0_all"  />
<polygon points="695,35 700,30 709,30 709,40 700,40 695,35 " style="fill:white; stroke-width:1; stroke:black; " description="&lt;b&gt;ctg2_94&lt;/b&gt;&lt;br&gt;ctg2 94&lt;br&gt;Location: 106647 - 107526" locus_tag="ctg2_94" class="clusterblast-orf" id="dummy-1_q30_0_all"  />
<polygon points="712,40 747,40 752,35 747,30 712,30 712,40 " style="fill:white; stroke-width:1; stroke:black; " description="&lt;b&gt;ctg2_95&lt;/b&gt;&lt;br&gt;ctg2 95&lt;br&gt;Location: 107729 - 110342" locus_tag="ctg2_95" class="clusterblast-orf" id="dummy-1_q31_0_all"  />
<polygon points="752,35 757,30 760,30 760,40 757,40 752,35 " style="fill:white; stroke-width:1; stroke:black; " description="&lt;b&gt;ctg2_96&lt;/b&gt;&lt;br&gt;ctg2 96&lt;br&gt;Location: 110363 - 110924" locus_tag="ctg2_96" class="clusterblast-orf" id="dummy-1_q32_0_all"  />
<polygon points="761,35 766,30 777,30 777,40 766,40 761,35 " style="fill:white; stroke-width:1; stroke:black; " description="&lt;b&gt;ctg2_97&lt;/b&gt;&lt;br&gt;ctg2 97&lt;br&gt;Location: 110941 - 112021" locus_tag="ctg2_97" class="clusterblast-orf" id="dummy-1_q33_0_all"  />
</g>
<g label="NZ_JWLC01000011" description="NZ_JWLC01000011 (38003-90033): Leisingera sp. ANG-M1 contig 11, whole genome ... (22% of genes show similarity), NRPS-like,T1PKS" class="clusterblast-cluster"  >
<text x="5" y="70" class="clusterblast-acc"  >
<a xlink:href="https://antismash-db.secondarymetabolites.org/area.html?record=NZ_JWLC01000011&amp;start=38003&amp;end=90033" target="_blank">NZ_JWLC01000011 (38003-90033)</a>: Leisingera sp. ANG-M1 contig 11, whole genome ... (22% of genes show similarity), NRPS-like,T1PKS</text>
<line x1="10" y1="85" x2="778.0" y2="85" style="stroke-width:1; stroke:grey; "  />
</g>
<g id="a1_000"  >
<polygon points="0,90 14,90 19,85 14,80 0,80 0,90 " style="fill:white; stroke-width:1; stroke:black; " description="&lt;b&gt;RA19_RS10115&lt;/b&gt;&lt;br&gt;LysR family transcriptional regulator&lt;br&gt;Location: 89769 - 88513" locus_tag="RA19_RS10115" class="clusterblast-orf" id="dummy-1_h1_8_0"  />
</g>
<g id="a1_001"  >
<polygon points="19,85 24,80 28,80 28,90 24,90 19,85 " style="fill:white; stroke-width:1; stroke:black; " description="&lt;b&gt;RA19_RS26545&lt;/b&gt;&lt;br&gt;hypothetical protein&lt;br&gt;Location: 88459 - 87920" locus_tag="RA19_RS26545" class="clusterblast-orf" id="dummy-1_h1_8_1"  />
</g>
<g id="a1_002"  >
<polygon points="29,90 29,90 34,85 29,80 29,80 29,90 " style="fill:white; stroke-width:1; stroke:black; " description="&lt;b&gt;RA19_RS26540&lt;/b&gt;&lt;br&gt;hypothetical protein&lt;br&gt;Location: 87831 - 87493" locus_tag="RA19_RS26540" class="clusterblast-orf" id="dummy-1_h1_8_2"  />
</g>
<g id="a1_003"  >
<polygon points="56,90 67,90 72,85 67,80 56,80 56,90 " style="fill:white; stroke-width:1; stroke:black; " description="&lt;b&gt;RA19_RS10095&lt;/b&gt;&lt;br&gt;hypothetical protein&lt;br&gt;Location: 86047 - 85034" locus_tag="RA19_RS10095" class="clusterblast-orf" id="dummy-1_h1_8_3"  />
</g>
<g id="a1_004"  >
<polygon points="73,90 80,90 85,85 80,80 73,80 73,90 " style="fill:white; stroke-width:1; stroke:black; " description="&lt;b&gt;RA19_RS10090&lt;/b&gt;&lt;br&gt;TIGR03084 family protein&lt;br&gt;Location: 84933 - 84133" locus_tag="RA19_RS10090" class="clusterblast-orf" id="dummy-1_h1_8_4"  />
</g>
<g id="a1_005"  >
<polygon points="89,85 94,80 102,80 102,90 94,90 89,85 " style="fill:white; stroke-width:1; stroke:black; " description="&lt;b&gt;RA19_RS10085&lt;/b&gt;&lt;br&gt;2-keto-3-deoxy-galactonokinase&lt;br&gt;Location: 83912 - 83070" locus_tag="RA19_RS10085" class="clusterblast-orf" id="dummy-1_h1_8_5"  />
</g>
<g id="a1_006"  >
<polygon points="108,90 119,90 124,85 119,80 108,80 108,90 " style="fill:white; stroke-width:1; stroke:black; " description="&lt;b&gt;RA19_RS10080&lt;/b&gt;&lt;br&gt;AraC family transcriptional regulator&lt;br&gt;Location: 82629 - 81619" locus_tag="RA19_RS10080" class="clusterblast-orf" id="dummy-1_h1_8_6"  />
</g>
<g id="a1_007"  >
<polygon points="129,90 136,90 141,85 136,80 129,80 129,90 " style="fill:white; stroke-width:1; stroke:black; " description="&lt;b&gt;RA19_RS10075&lt;/b&gt;&lt;br&gt;sugar transferase&lt;br&gt;Location: 81237 - 80452" locus_tag="RA19_RS10075" class="clusterblast-orf" id="dummy-1_h1_8_7"  />
</g>
<g id="a1_008"  >
<polygon points="143,90 151,90 156,85 151,80 143,80 143,90 " style="fill:#15d885; stroke-width:1; stroke:black; " description="&lt;b&gt;RA19_RS10070&lt;/b&gt;&lt;br&gt;CpsD/CapB family tyrosine-protein kinase&lt;br&gt;Location: 80376 - 79468&lt;br&gt;&lt;br&gt;&lt;b&gt;BlastP hit with ctg2_85&lt;/b&gt;&lt;br&gt;Percentage identity: 35&lt;br&gt;Percentage coverage: 67&lt;br&gt;BLAST bit score: 99&lt;br&gt;E-value: 2.73e-22" locus_tag="RA19_RS10070" class="clusterblast-orf" id="dummy-1_h1_8_8"  />
</g>
<g id="a1_009"  >
<polygon points="158,90 172,90 177,85 172,80 158,80 158,90 " style="fill:white; stroke-width:1; stroke:black; " description="&lt;b&gt;RA19_RS10065&lt;/b&gt;&lt;br&gt;chain-length determining protein&lt;br&gt;Location: 79361 - 78123" locus_tag="RA19_RS10065" class="clusterblast-orf" id="dummy-1_h1_8_9"  />
</g>
<g id="a1_0010"  >
<polygon points="179,85 184,80 200,80 200,90 184,90 179,85 " style="fill:white; stroke-width:1; stroke:black; " description="&lt;b&gt;RA19_RS10060&lt;/b&gt;&lt;br&gt;oligosaccharide flippase family protein&lt;br&gt;Location: 77988 - 76618" locus_tag="RA19_RS10060" class="clusterblast-orf" id="dummy-1_h1_8_10"  />
</g>
<g id="a1_0011"  >
<polygon points="203,90 217,90 222,85 217,80 203,80 203,90 " style="fill:white; stroke-width:1; stroke:black; " description="&lt;b&gt;RA19_RS10055&lt;/b&gt;&lt;br&gt;glycosyltransferase&lt;br&gt;Location: 76383 - 75175" locus_tag="RA19_RS10055" class="clusterblast-orf" id="dummy-1_h1_8_11"  />
</g>
<g id="a1_0012"  >
<polygon points="225,85 230,80 237,80 237,90 230,90 225,85 " style="fill:white; stroke-width:1; stroke:black; " description="&lt;b&gt;RA19_RS10050&lt;/b&gt;&lt;br&gt;glycosyltransferase family 2 protein&lt;br&gt;Location: 74994 - 74158" locus_tag="RA19_RS10050" class="clusterblast-orf" id="dummy-1_h1_8_12"  />
</g>
<g id="a1_0013"  >
<polygon points="237,85 242,80 276,80 276,90 242,90 237,85 " style="fill:white; stroke-width:1; stroke:black; " description="&lt;b&gt;RA19_RS10045&lt;/b&gt;&lt;br&gt;hypothetical protein&lt;br&gt;Location: 74161 - 71648" locus_tag="RA19_RS10045" class="clusterblast-orf" id="dummy-1_h1_8_13"  />
</g>
<g id="a1_0014"  >
<polygon points="276,85 281,80 290,80 290,90 281,90 276,85 " style="fill:white; stroke-width:1; stroke:black; " description="&lt;b&gt;RA19_RS10040&lt;/b&gt;&lt;br&gt;hypothetical protein&lt;br&gt;Location: 71651 - 70719" locus_tag="RA19_RS10040" class="clusterblast-orf" id="dummy-1_h1_8_14"  />
</g>
<g id="a1_0015"  >
<polygon points="290,85 295,80 300,80 300,90 295,90 290,85 " style="fill:#a115d8; stroke-width:1; stroke:black; " description="&lt;b&gt;RA19_RS10035&lt;/b&gt;&lt;br&gt;4'-phosphopantetheinyl transferase superfamily protein&lt;br&gt;Location: 70719 - 70030&lt;br&gt;&lt;br&gt;&lt;b&gt;BlastP hit with ctg2_79&lt;/b&gt;&lt;br&gt;Percentage identity: 43&lt;br&gt;Percentage coverage: 89&lt;br&gt;BLAST bit score: 156&lt;br&gt;E-value: 1.07e-45" locus_tag="RA19_RS10035" class="clusterblast-orf" id="dummy-1_h1_8_15"  />
</g>
<g id="a1_0016"  >
<polygon points="300,85 305,80 370,80 370,90 305,90 300,85 " style="fill:#d86915; stroke-width:1; stroke:black; " description="&lt;b&gt;RA19_RS10030&lt;/b&gt;&lt;br&gt;LLM class flavin-dependent oxidoreductase&lt;br&gt;Location: 70033 - 65468&lt;br&gt;&lt;br&gt;&lt;b&gt;BlastP hit with ctg2_80&lt;/b&gt;&lt;br&gt;Percentage identity: 54&lt;br&gt;Percentage coverage: 103&lt;br&gt;BLAST bit score: 1493&lt;br&gt;E-value: 0.0" locus_tag="RA19_RS10030" class="clusterblast-orf" id="dummy-1_h1_8_16"  />
</g>
<g id="a1_0017"  >
<polygon points="370,85 375,80 385,80 385,90 375,90 370,85 " style="fill:#15d831; stroke-width:1; stroke:black; " description="&lt;b&gt;RA19_RS10025&lt;/b&gt;&lt;br&gt;glycosyltransferase family 2 protein&lt;br&gt;Location: 65471 - 64455&lt;br&gt;&lt;br&gt;&lt;b&gt;BlastP hit with ctg2_81&lt;/b&gt;&lt;br&gt;Percentage identity: 54&lt;br&gt;Percentage coverage: 95&lt;br&gt;BLAST bit score: 318&lt;br&gt;E-value: 3.4e-106" locus_tag="RA19_RS10025" class="clusterblast-orf" id="dummy-1_h1_8_17"  />
</g>
<g id="a1_0018"  >
<polygon points="385,85 390,80 483,80 483,90 390,90 385,85 " style="fill:#1531d8; stroke-width:1; stroke:black; " description="&lt;b&gt;RA19_RS10020&lt;/b&gt;&lt;br&gt;type I polyketide synthase&lt;br&gt;Location: 64450 - 58004&lt;br&gt;&lt;br&gt;&lt;b&gt;BlastP hit with ctg2_82&lt;/b&gt;&lt;br&gt;Percentage identity: 60&lt;br&gt;Percentage coverage: 102&lt;br&gt;BLAST bit score: 2426&lt;br&gt;E-value: 0.0" locus_tag="RA19_RS10020" class="clusterblast-orf" id="dummy-1_h1_8_18"  />
</g>
<g id="a1_0019"  >
<polygon points="487,85 492,80 510,80 510,90 492,90 487,85 " style="fill:#d815bc; stroke-width:1; stroke:black; " description="&lt;b&gt;RA19_RS10015&lt;/b&gt;&lt;br&gt;membrane protein&lt;br&gt;Location: 57743 - 56280&lt;br&gt;&lt;br&gt;&lt;b&gt;BlastP hit with ctg2_83&lt;/b&gt;&lt;br&gt;Percentage identity: 46&lt;br&gt;Percentage coverage: 92&lt;br&gt;BLAST bit score: 402&lt;br&gt;E-value: 3.43e-134" locus_tag="RA19_RS10015" class="clusterblast-orf" id="dummy-1_h1_8_19"  />
</g>
<g id="a1_0020"  >
<polygon points="513,90 519,90 524,85 519,80 513,80 513,90 " style="fill:white; stroke-width:1; stroke:black; " description="&lt;b&gt;RA19_RS10010&lt;/b&gt;&lt;br&gt;WecB/TagA/CpsF family glycosyltransferase&lt;br&gt;Location: 56089 - 55337" locus_tag="RA19_RS10010" class="clusterblast-orf" id="dummy-1_h1_8_20"  />
</g>
<g id="a1_0021"  >
<polygon points="527,85 532,80 542,80 542,90 532,90 527,85 " style="fill:white; stroke-width:1; stroke:black; " description="&lt;b&gt;RA19_RS10005&lt;/b&gt;&lt;br&gt;glycosyltransferase&lt;br&gt;Location: 55133 - 54183" locus_tag="RA19_RS10005" class="clusterblast-orf" id="dummy-1_h1_8_21"  />
</g>
<g id="a1_0022"  >
<polygon points="542,85 547,80 557,80 557,90 547,90 542,85 " style="fill:white; stroke-width:1; stroke:black; " description="&lt;b&gt;RA19_RS10000&lt;/b&gt;&lt;br&gt;glycosyltransferase family 2 protein&lt;br&gt;Location: 54186 - 53194" locus_tag="RA19_RS10000" class="clusterblast-orf" id="dummy-1_h1_8_22"  />
</g>
<g id="a1_0023"  >
<polygon points="560,90 570,90 575,85 570,80 560,80 560,90 " style="fill:white; stroke-width:1; stroke:black; " description="&lt;b&gt;RA19_RS09995&lt;/b&gt;&lt;br&gt;glucokinase&lt;br&gt;Location: 52997 - 52017" locus_tag="RA19_RS09995" class="clusterblast-orf" id="dummy-1_h1_8_23"  />
</g>
<g id="a1_0024"  >
<polygon points="575,85 580,80 631,80 631,90 580,90 575,85 " style="fill:#1585d8; stroke-width:1; stroke:black; " description="&lt;b&gt;RA19_RS09990&lt;/b&gt;&lt;br&gt;translocation/assembly module TamB&lt;br&gt;Location: 51965 - 48342&lt;br&gt;&lt;br&gt;&lt;b&gt;BlastP hit with ctg2_73&lt;/b&gt;&lt;br&gt;Percentage identity: 33&lt;br&gt;Percentage coverage: 101&lt;br&gt;BLAST bit score: 581&lt;br&gt;E-value: 1.67e-184" locus_tag="RA19_RS09990" class="clusterblast-orf" id="dummy-1_h1_8_24"  />
</g>
<g id="a1_0025"  >
<polygon points="631,85 636,80 658,80 658,90 636,90 631,85 " style="fill:#4dd815; stroke-width:1; stroke:black; " description="&lt;b&gt;RA19_RS09985&lt;/b&gt;&lt;br&gt;BamA/TamA family outer membrane protein&lt;br&gt;Location: 48345 - 46543&lt;br&gt;&lt;br&gt;&lt;b&gt;BlastP hit with ctg2_72&lt;/b&gt;&lt;br&gt;Percentage identity: 44&lt;br&gt;Percentage coverage: 98&lt;br&gt;BLAST bit score: 452&lt;br&gt;E-value: 1.09e-150" locus_tag="RA19_RS09985" class="clusterblast-orf" id="dummy-1_h1_8_25"  />
</g>
<g id="a1_0026"  >
<polygon points="666,90 670,85 666,80 666,90 " style="fill:white; stroke-width:1; stroke:black; " description="&lt;b&gt;RA19_RS09980&lt;/b&gt;&lt;br&gt;hypothetical protein&lt;br&gt;Location: 46042 - 45740" locus_tag="RA19_RS09980" class="clusterblast-orf" id="dummy-1_h1_8_26"  />
</g>
<g id="a1_0027"  >
<polygon points="671,90 675,90 680,85 675,80 671,80 671,90 " style="fill:white; stroke-width:1; stroke:black; " description="&lt;b&gt;RA19_RS09975&lt;/b&gt;&lt;br&gt;hypothetical protein&lt;br&gt;Location: 45687 - 45079" locus_tag="RA19_RS09975" class="clusterblast-orf" id="dummy-1_h1_8_27"  />
</g>
<g id="a1_0028"  >
<polygon points="681,85 686,80 697,80 697,90 686,90 681,85 " style="fill:white; stroke-width:1; stroke:black; " description="&lt;b&gt;RA19_RS09970&lt;/b&gt;&lt;br&gt;glyceraldehyde-3-phosphate dehydrogenase&lt;br&gt;Location: 45024 - 44005" locus_tag="RA19_RS09970" class="clusterblast-orf" id="dummy-1_h1_8_28"  />
</g>
<g id="a1_0029"  >
<polygon points="698,85 703,80 703,80 703,90 703,90 698,85 " style="fill:white; stroke-width:1; stroke:black; " description="&lt;b&gt;RA19_RS09965&lt;/b&gt;&lt;br&gt;hypothetical protein&lt;br&gt;Location: 43919 - 43605" locus_tag="RA19_RS09965" class="clusterblast-orf" id="dummy-1_h1_8_29"  />
</g>
<g id="a1_0030"  >
<polygon points="704,85 709,80 716,80 716,90 709,90 704,85 " style="fill:white; stroke-width:1; stroke:black; " description="&lt;b&gt;RA19_RS09960&lt;/b&gt;&lt;br&gt;helix-turn-helix domain-containing protein&lt;br&gt;Location: 43523 - 42747" locus_tag="RA19_RS09960" class="clusterblast-orf" id="dummy-1_h1_8_30"  />
</g>
<g id="a1_0031"  >
<polygon points="719,90 736,90 741,85 736,80 719,80 719,90 " style="fill:white; stroke-width:1; stroke:black; " description="&lt;b&gt;RA19_RS09955&lt;/b&gt;&lt;br&gt;glutamine synthetase&lt;br&gt;Location: 42533 - 41085" locus_tag="RA19_RS09955" class="clusterblast-orf" id="dummy-1_h1_8_31"  />
</g>
<g id="a1_0032"  >
<polygon points="744,90 745,90 750,85 745,80 744,80 744,90 " style="fill:white; stroke-width:1; stroke:black; " description="&lt;b&gt;RA19_RS09950&lt;/b&gt;&lt;br&gt;glycine cleavage system protein GcvH&lt;br&gt;Location: 40886 - 40527" locus_tag="RA19_RS09950" class="clusterblast-orf" id="dummy-1_h1_8_32"  />
</g>
<g id="a1_0033"  >
<polygon points="751,85 756,80 766,80 766,90 756,90 751,85 " style="fill:white; stroke-width:1; stroke:black; " description="&lt;b&gt;RA19_RS09945&lt;/b&gt;&lt;br&gt;glyoxylate/hydroxypyruvate reductase A&lt;br&gt;Location: 40413 - 39478" locus_tag="RA19_RS09945" class="clusterblast-orf" id="dummy-1_h1_8_33"  />
</g>
<g id="a1_0034"  >
<polygon points="768,85 773,80 780,80 780,90 773,90 768,85 " style="fill:white; stroke-width:1; stroke:black; " description="&lt;b&gt;RA19_RS09940&lt;/b&gt;&lt;br&gt;tRNA pseudouridine(38-40) synthase TruA&lt;br&gt;Location: 39338 - 38571" locus_tag="RA19_RS09940" class="clusterblast-orf" id="dummy-1_h1_8_34"  />
</g>
</svg>
