<svg xmlns="http://www.w3.org/2000/svg" xmlns:xlink="http://www.w3.org/1999/xlink" version="1.1" x="0" y="0" height="230" width="800" viewBox="0 0 800 230" preserveAspectRatio="none"  >
<g label="Query sequence" class="clusterblast-cluster"  >
<text x="5" y="20" class="clusterblast-acc"  >
Query sequence</text>
<line x1="10" y1="35" x2="778.0" y2="35" style="stroke-width:1; stroke:grey; "  />
<polygon points="0,40 82,40 87,35 82,30 0,30 0,40 " style="fill:white; stroke-width:1; stroke:black; " description="&lt;b&gt;BJPBECLI_01555&lt;/b&gt;&lt;br&gt;Fructose import binding protein FrcB&lt;br&gt;Location: 245021 - 246050" locus_tag="BJPBECLI_01555" class="clusterblast-orf" id="dummy-1_q0_0_all"  />
<polygon points="96,40 182,40 187,35 182,30 96,30 96,40 " style="fill:white; stroke-width:1; stroke:black; " description="&lt;b&gt;BJPBECLI_01556&lt;/b&gt;&lt;br&gt;Fructose import permease protein FrcC&lt;br&gt;Location: 246147 - 247221" locus_tag="BJPBECLI_01556" class="clusterblast-orf" id="dummy-1_q1_0_all"  />
<polygon points="186,40 246,40 251,35 246,30 186,30 186,40 " style="fill:white; stroke-width:1; stroke:black; " description="&lt;b&gt;BJPBECLI_01557&lt;/b&gt;&lt;br&gt;Fructose import ATP-binding protein FrcA&lt;br&gt;Location: 247217 - 247988" locus_tag="BJPBECLI_01557" class="clusterblast-orf" id="dummy-1_q2_0_all"  />
<polygon points="259,35 264,30 380,30 380,40 264,40 259,35 " style="fill:#d81515; stroke-width:1; stroke:black; " description="&lt;b&gt;BJPBECLI_01558&lt;/b&gt;&lt;br&gt;Aspartate kinase Ask Ect&lt;br&gt;Location: 248076 - 249501" locus_tag="BJPBECLI_01558" class="clusterblast-orf" id="dummy-1_q3_0_all"  />
<polygon points="383,35 388,30 416,30 416,40 388,40 383,35 " style="fill:#77d815; stroke-width:1; stroke:black; " description="&lt;b&gt;BJPBECLI_01559&lt;/b&gt;&lt;br&gt;L-ectoine synthase&lt;br&gt;Location: 249543 - 249930" locus_tag="BJPBECLI_01559" class="clusterblast-orf" id="dummy-1_q4_0_all"  />
<polygon points="416,35 421,30 523,30 523,40 421,40 416,35 " style="fill:#15d8d8; stroke-width:1; stroke:black; " description="&lt;b&gt;BJPBECLI_01560&lt;/b&gt;&lt;br&gt;Diaminobutyrate--2-oxoglutarate transaminase&lt;br&gt;Location: 249934 - 251200" locus_tag="BJPBECLI_01560" class="clusterblast-orf" id="dummy-1_q5_0_all"  />
<polygon points="526,35 531,30 572,30 572,40 531,40 526,35 " style="fill:#7715d8; stroke-width:1; stroke:black; " description="&lt;b&gt;BJPBECLI_01561&lt;/b&gt;&lt;br&gt;L-2,4-diaminobutyric acid acetyltransferase&lt;br&gt;Location: 251228 - 251771" locus_tag="BJPBECLI_01561" class="clusterblast-orf" id="dummy-1_q6_0_all"  />
<polygon points="595,40 630,40 635,35 630,30 595,30 595,40 " style="fill:white; stroke-width:1; stroke:black; " description="&lt;b&gt;BJPBECLI_01562&lt;/b&gt;&lt;br&gt;Transcriptional regulator SlyA&lt;br&gt;Location: 252050 - 252524" locus_tag="BJPBECLI_01562" class="clusterblast-orf" id="dummy-1_q7_0_all"  />
<polygon points="645,35 650,30 713,30 713,40 650,40 645,35 " style="fill:white; stroke-width:1; stroke:black; " description="&lt;b&gt;BJPBECLI_01563&lt;/b&gt;&lt;br&gt;5-deoxy-glucuronate isomerase&lt;br&gt;Location: 252635 - 253445" locus_tag="BJPBECLI_01563" class="clusterblast-orf" id="dummy-1_q8_0_all"  />
<polygon points="713,35 718,30 780,30 780,40 718,40 713,35 " style="fill:white; stroke-width:1; stroke:black; " description="&lt;b&gt;BJPBECLI_01564&lt;/b&gt;&lt;br&gt;Fructose import ATP-binding protein FrcA&lt;br&gt;Location: 253444 - 254236" locus_tag="BJPBECLI_01564" class="clusterblast-orf" id="dummy-1_q9_0_all"  />
</g>
<g label="BGC0000859" description="BGC0000859_c1: ectoine (75% of genes show similarity), Other" class="clusterblast-cluster"  >
<text x="5" y="70" class="clusterblast-acc"  >
<a xlink:href="https://mibig.secondarymetabolites.org/go/BGC0000859/1" target="_blank">BGC0000859</a>: ectoine                                                                          (75% of genes show similarity), Other</text>
<line x1="10" y1="85" x2="778.0" y2="85" style="stroke-width:1; stroke:grey; "  />
</g>
<g id="a1_000"  >
<polygon points="261,85 266,80 315,80 315,90 266,90 261,85 " style="fill:#d81515; stroke-width:1; stroke:black; " description="&lt;b&gt;ACB30333.1&lt;/b&gt;&lt;br&gt;aspartokinase&lt;br&gt;Location: 3305 - 2667&lt;br&gt;&lt;br&gt;&lt;b&gt;BlastP hit with BJPBECLI_01558&lt;/b&gt;&lt;br&gt;Percentage identity: 47&lt;br&gt;Percentage coverage: 44&lt;br&gt;BLAST bit score: 193&lt;br&gt;E-value: 6.59e-59" locus_tag="ACB30333.1" class="clusterblast-orf" id="dummy-1_h1_5_0"  />
</g>
<g id="a1_001"  >
<polygon points="320,85 325,80 354,80 354,90 325,90 320,85 " style="fill:#77d815; stroke-width:1; stroke:black; " description="&lt;b&gt;ACB30332.1&lt;/b&gt;&lt;br&gt;ectoine synthase&lt;br&gt;Location: 2607 - 2203&lt;br&gt;&lt;br&gt;&lt;b&gt;BlastP hit with BJPBECLI_01559&lt;/b&gt;&lt;br&gt;Percentage identity: 56&lt;br&gt;Percentage coverage: 100&lt;br&gt;BLAST bit score: 154&lt;br&gt;E-value: 4.15e-49" locus_tag="ACB30332.1" class="clusterblast-orf" id="dummy-1_h1_5_1"  />
</g>
<g id="a1_002"  >
<polygon points="358,85 363,80 471,80 471,90 363,90 358,85 " style="fill:#15d8d8; stroke-width:1; stroke:black; " description="&lt;b&gt;ACB30331.1&lt;/b&gt;&lt;br&gt;L-2,4-diaminobutyric acid aminotransferase&lt;br&gt;Location: 2151 - 820&lt;br&gt;&lt;br&gt;&lt;b&gt;BlastP hit with BJPBECLI_01560&lt;/b&gt;&lt;br&gt;Percentage identity: 53&lt;br&gt;Percentage coverage: 97&lt;br&gt;BLAST bit score: 441&lt;br&gt;E-value: 2.97e-153" locus_tag="ACB30331.1" class="clusterblast-orf" id="dummy-1_h1_5_2"  />
</g>
<g id="a1_003"  >
<polygon points="475,85 480,80 518,80 518,90 480,90 475,85 " style="fill:white; stroke-width:1; stroke:black; " description="&lt;b&gt;ACB30330.1&lt;/b&gt;&lt;br&gt;L-2,4-diaminobutyric acid acetyltransferase&lt;br&gt;Location: 777 - 259" locus_tag="ACB30330.1" class="clusterblast-orf" id="dummy-1_h1_5_3"  />
</g>
</svg>
