<svg xmlns="http://www.w3.org/2000/svg" xmlns:xlink="http://www.w3.org/1999/xlink" version="1.1" x="0" y="0" height="230" width="800" viewBox="0 0 800 230" preserveAspectRatio="none"  >
<g label="Query sequence" class="clusterblast-cluster"  >
<text x="5" y="20" class="clusterblast-acc"  >
Query sequence</text>
<line x1="10" y1="35" x2="778.0" y2="35" style="stroke-width:1; stroke:grey; "  />
<polygon points="168,35 173,30 174,30 174,40 173,40 168,35 " style="fill:white; stroke-width:1; stroke:black; " description="&lt;b&gt;OCPFFIJE_00717&lt;/b&gt;&lt;br&gt;hypothetical protein&lt;br&gt;Location: 695509 - 695752" locus_tag="OCPFFIJE_00717" class="clusterblast-orf" id="dummy-1_q0_0_all"  />
<polygon points="177,35 182,30 198,30 198,40 182,40 177,35 " style="fill:#d81515; stroke-width:1; stroke:black; " description="&lt;b&gt;OCPFFIJE_00718&lt;/b&gt;&lt;br&gt;HTH-type transcriptional regulator CysL&lt;br&gt;Location: 695880 - 696831" locus_tag="OCPFFIJE_00718" class="clusterblast-orf" id="dummy-1_q1_0_all"  />
<polygon points="201,40 221,40 226,35 221,30 201,30 201,40 " style="fill:#5cd815; stroke-width:1; stroke:black; " description="&lt;b&gt;OCPFFIJE_00719&lt;/b&gt;&lt;br&gt;Maltose/maltodextrin import ATP-binding protein MalK&lt;br&gt;Location: 696934 - 698053" locus_tag="OCPFFIJE_00719" class="clusterblast-orf" id="dummy-1_q2_0_all"  />
<polygon points="226,40 242,40 247,35 242,30 226,30 226,40 " style="fill:#15a3d8; stroke-width:1; stroke:black; " description="&lt;b&gt;OCPFFIJE_00720&lt;/b&gt;&lt;br&gt;Lactose transport system permease protein LacF&lt;br&gt;Location: 698049 - 698946" locus_tag="OCPFFIJE_00720" class="clusterblast-orf" id="dummy-1_q3_0_all"  />
<polygon points="247,40 264,40 269,35 264,30 247,30 247,40 " style="fill:#c715d8; stroke-width:1; stroke:black; " description="&lt;b&gt;OCPFFIJE_00721&lt;/b&gt;&lt;br&gt;hypothetical protein&lt;br&gt;Location: 698942 - 699908" locus_tag="OCPFFIJE_00721" class="clusterblast-orf" id="dummy-1_q4_0_all"  />
<polygon points="269,40 293,40 298,35 293,30 269,30 269,40 " style="fill:#d88015; stroke-width:1; stroke:black; " description="&lt;b&gt;OCPFFIJE_00722&lt;/b&gt;&lt;br&gt;hypothetical protein&lt;br&gt;Location: 699925 - 701170" locus_tag="OCPFFIJE_00722" class="clusterblast-orf" id="dummy-1_q5_0_all"  />
<polygon points="299,40 314,40 319,35 314,30 299,30 299,40 " style="fill:#15d839; stroke-width:1; stroke:black; " description="&lt;b&gt;OCPFFIJE_00723&lt;/b&gt;&lt;br&gt;3',5'-cyclic adenosine monophosphate phosphodiesterase CpdA&lt;br&gt;Location: 701220 - 702072" locus_tag="OCPFFIJE_00723" class="clusterblast-orf" id="dummy-1_q6_0_all"  />
<polygon points="319,40 332,40 337,35 332,30 319,30 319,40 " style="fill:white; stroke-width:1; stroke:black; " description="&lt;b&gt;OCPFFIJE_00724&lt;/b&gt;&lt;br&gt;Dihydroxyacetone phosphatase&lt;br&gt;Location: 702068 - 702854" locus_tag="OCPFFIJE_00724" class="clusterblast-orf" id="dummy-1_q7_0_all"  />
<polygon points="345,35 350,30 361,30 361,40 350,40 345,35 " style="fill:#1539d8; stroke-width:1; stroke:black; " description="&lt;b&gt;OCPFFIJE_00725&lt;/b&gt;&lt;br&gt;IS3 family transposase ISPye6&lt;br&gt;Location: 703234 - 703933" locus_tag="OCPFFIJE_00725" class="clusterblast-orf" id="dummy-1_q8_0_all"  />
<polygon points="365,35 370,30 371,30 371,40 370,40 365,35 " style="fill:white; stroke-width:1; stroke:black; " description="&lt;b&gt;OCPFFIJE_00726&lt;/b&gt;&lt;br&gt;IS3 family transposase ISPye6&lt;br&gt;Location: 704082 - 704361" locus_tag="OCPFFIJE_00726" class="clusterblast-orf" id="dummy-1_q9_0_all"  />
<polygon points="375,35 380,30 385,30 385,40 380,40 375,35 " style="fill:#d81580; stroke-width:1; stroke:black; " description="&lt;b&gt;OCPFFIJE_00727&lt;/b&gt;&lt;br&gt;Acetyltransferase&lt;br&gt;Location: 704524 - 704959" locus_tag="OCPFFIJE_00727" class="clusterblast-orf" id="dummy-1_q10_0_all"  />
<polygon points="388,40 395,40 400,35 395,30 388,30 388,40 " style="fill:white; stroke-width:1; stroke:black; " description="&lt;b&gt;OCPFFIJE_00728&lt;/b&gt;&lt;br&gt;Shikimate kinase&lt;br&gt;Location: 705092 - 705623" locus_tag="OCPFFIJE_00728" class="clusterblast-orf" id="dummy-1_q11_0_all"  />
<polygon points="407,35 412,30 431,30 431,40 412,40 407,35 " style="fill:#c7d815; stroke-width:1; stroke:black; " description="&lt;b&gt;OCPFFIJE_00729&lt;/b&gt;&lt;br&gt;IS110 family transposase ISSpo1&lt;br&gt;Location: 705919 - 706993" locus_tag="OCPFFIJE_00729" class="clusterblast-orf" id="dummy-1_q12_0_all"  />
<polygon points="434,35 439,30 445,30 445,40 439,40 434,35 " style="fill:white; stroke-width:1; stroke:black; " description="&lt;b&gt;OCPFFIJE_00730&lt;/b&gt;&lt;br&gt;hypothetical protein&lt;br&gt;Location: 707083 - 707581" locus_tag="OCPFFIJE_00730" class="clusterblast-orf" id="dummy-1_q13_0_all"  />
<polygon points="448,35 453,30 469,30 469,40 453,40 448,35 " style="fill:#15d8a3; stroke-width:1; stroke:black; " description="&lt;b&gt;OCPFFIJE_00731&lt;/b&gt;&lt;br&gt;HTH-type transcriptional regulator PgrR&lt;br&gt;Location: 707735 - 708620" locus_tag="OCPFFIJE_00731" class="clusterblast-orf" id="dummy-1_q14_0_all"  />
<polygon points="471,40 493,40 498,35 493,30 471,30 471,40 " style="fill:white; stroke-width:1; stroke:black; " description="&lt;b&gt;OCPFFIJE_00732&lt;/b&gt;&lt;br&gt;Purine ribonucleoside efflux pump NepI&lt;br&gt;Location: 708728 - 709883" locus_tag="OCPFFIJE_00732" class="clusterblast-orf" id="dummy-1_q15_0_all"  />
<polygon points="500,35 505,30 510,30 510,40 505,40 500,35 " style="fill:white; stroke-width:1; stroke:black; " description="&lt;b&gt;OCPFFIJE_00733&lt;/b&gt;&lt;br&gt;hypothetical protein&lt;br&gt;Location: 709983 - 710412" locus_tag="OCPFFIJE_00733" class="clusterblast-orf" id="dummy-1_q16_0_all"  />
<polygon points="510,35 515,30 519,30 519,40 515,40 510,35 " style="fill:white; stroke-width:1; stroke:black; " description="&lt;b&gt;OCPFFIJE_00734&lt;/b&gt;&lt;br&gt;hypothetical protein&lt;br&gt;Location: 710408 - 710804" locus_tag="OCPFFIJE_00734" class="clusterblast-orf" id="dummy-1_q17_0_all"  />
<polygon points="520,40 538,40 543,35 538,30 520,30 520,40 " style="fill:#5c15d8; stroke-width:1; stroke:black; " description="&lt;b&gt;OCPFFIJE_00735&lt;/b&gt;&lt;br&gt;hypothetical protein&lt;br&gt;Location: 710834 - 711875" locus_tag="OCPFFIJE_00735" class="clusterblast-orf" id="dummy-1_q18_0_all"  />
<polygon points="546,40 550,40 555,35 550,30 546,30 546,40 " style="fill:white; stroke-width:1; stroke:black; " description="&lt;b&gt;OCPFFIJE_00736&lt;/b&gt;&lt;br&gt;hypothetical protein&lt;br&gt;Location: 711997 - 712387" locus_tag="OCPFFIJE_00736" class="clusterblast-orf" id="dummy-1_q19_0_all"  />
<polygon points="557,35 562,30 577,30 577,40 562,40 557,35 " style="fill:white; stroke-width:1; stroke:black; " description="&lt;b&gt;OCPFFIJE_00737&lt;/b&gt;&lt;br&gt;hypothetical protein&lt;br&gt;Location: 712479 - 713340" locus_tag="OCPFFIJE_00737" class="clusterblast-orf" id="dummy-1_q20_0_all"  />
<polygon points="580,40 606,40 611,35 606,30 580,30 580,40 " style="fill:white; stroke-width:1; stroke:black; " description="&lt;b&gt;OCPFFIJE_00738&lt;/b&gt;&lt;br&gt;Histidinol-phosphate aminotransferase&lt;br&gt;Location: 713454 - 714834" locus_tag="OCPFFIJE_00738" class="clusterblast-orf" id="dummy-1_q21_0_all"  />
</g>
<g label="NZ_CP022222" description="NZ_CP022222 (6174420-6215371): Bradyrhizobium sp. CCBAU 051011 chromosome, co... (29% of genes show similarity), phosphonate" class="clusterblast-cluster"  >
<text x="5" y="70" class="clusterblast-acc"  >
<a xlink:href="https://antismash-db.secondarymetabolites.org/area.html?record=NZ_CP022222&amp;start=6174420&amp;end=6215371" target="_blank">NZ_CP022222 (6174420-6215371)</a>: Bradyrhizobium sp. CCBAU 051011 chromosome, co... (29% of genes show similarity), phosphonate</text>
<line x1="10" y1="85" x2="778.0" y2="85" style="stroke-width:1; stroke:grey; "  />
</g>
<g id="a1_000"  >
<polygon points="0,85 5,80 29,80 29,90 5,90 0,85 " style="fill:#d88015; stroke-width:1; stroke:black; " description="&lt;b&gt;ACH79_RS29035&lt;/b&gt;&lt;br&gt;ABC transporter substrate-binding protein&lt;br&gt;Location: 6208531 - 6207242&lt;br&gt;&lt;br&gt;&lt;b&gt;BlastP hit with OCPFFIJE_00722&lt;/b&gt;&lt;br&gt;Percentage identity: 37&lt;br&gt;Percentage coverage: 102&lt;br&gt;BLAST bit score: 251&lt;br&gt;E-value: 1.36e-77" locus_tag="ACH79_RS29035" class="clusterblast-orf" id="dummy-1_h1_2_0"  />
</g>
<g id="a1_001"  >
<polygon points="29,85 34,80 49,80 49,90 34,90 29,85 " style="fill:#c715d8; stroke-width:1; stroke:black; " description="&lt;b&gt;ACH79_RS29030&lt;/b&gt;&lt;br&gt;carbohydrate ABC transporter permease&lt;br&gt;Location: 6207223 - 6206381&lt;br&gt;&lt;br&gt;&lt;b&gt;BlastP hit with OCPFFIJE_00721&lt;/b&gt;&lt;br&gt;Percentage identity: 55&lt;br&gt;Percentage coverage: 69&lt;br&gt;BLAST bit score: 243&lt;br&gt;E-value: 1.13e-77" locus_tag="ACH79_RS29030" class="clusterblast-orf" id="dummy-1_h1_2_1"  />
</g>
<g id="a1_002"  >
<polygon points="49,85 54,80 70,80 70,90 54,90 49,85 " style="fill:#15a3d8; stroke-width:1; stroke:black; " description="&lt;b&gt;ACH79_RS29025&lt;/b&gt;&lt;br&gt;sugar ABC transporter permease&lt;br&gt;Location: 6206384 - 6205452&lt;br&gt;&lt;br&gt;&lt;b&gt;BlastP hit with OCPFFIJE_00720&lt;/b&gt;&lt;br&gt;Percentage identity: 42&lt;br&gt;Percentage coverage: 95&lt;br&gt;BLAST bit score: 206&lt;br&gt;E-value: 5.2e-63" locus_tag="ACH79_RS29025" class="clusterblast-orf" id="dummy-1_h1_2_2"  />
</g>
<g id="a1_003"  >
<polygon points="70,85 75,80 96,80 96,90 75,90 70,85 " style="fill:#5cd815; stroke-width:1; stroke:black; " description="&lt;b&gt;ACH79_RS29020&lt;/b&gt;&lt;br&gt;ABC transporter ATP-binding protein&lt;br&gt;Location: 6205455 - 6204334&lt;br&gt;&lt;br&gt;&lt;b&gt;BlastP hit with OCPFFIJE_00719&lt;/b&gt;&lt;br&gt;Percentage identity: 53&lt;br&gt;Percentage coverage: 102&lt;br&gt;BLAST bit score: 366&lt;br&gt;E-value: 1.18e-123" locus_tag="ACH79_RS29020" class="clusterblast-orf" id="dummy-1_h1_2_3"  />
</g>
<g id="a1_004"  >
<polygon points="96,85 101,80 125,80 125,90 101,90 96,85 " style="fill:white; stroke-width:1; stroke:black; " description="&lt;b&gt;ACH79_RS29015&lt;/b&gt;&lt;br&gt;alkaline phosphatase family protein&lt;br&gt;Location: 6204341 - 6203055" locus_tag="ACH79_RS29015" class="clusterblast-orf" id="dummy-1_h1_2_4"  />
</g>
<g id="a1_005"  >
<polygon points="125,85 130,80 155,80 155,90 130,90 125,85 " style="fill:white; stroke-width:1; stroke:black; " description="&lt;b&gt;ACH79_RS29010&lt;/b&gt;&lt;br&gt;phosphonoacetate hydrolase&lt;br&gt;Location: 6203052 - 6201766" locus_tag="ACH79_RS29010" class="clusterblast-orf" id="dummy-1_h1_2_5"  />
</g>
<g id="a1_006"  >
<polygon points="161,85 164,80 164,90 161,85 " style="fill:white; stroke-width:1; stroke:black; " description="&lt;b&gt;ACH79_RS29005&lt;/b&gt;&lt;br&gt;ABC transporter permease&lt;br&gt;Location: 6201501 - 6201349" locus_tag="ACH79_RS29005" class="clusterblast-orf" id="dummy-1_h1_2_6"  />
</g>
<g id="a1_007"  >
<polygon points="168,90 185,90 190,85 185,80 168,80 168,90 " style="fill:white; stroke-width:1; stroke:black; " description="&lt;b&gt;ACH79_RS29000&lt;/b&gt;&lt;br&gt;sugar-binding transcriptional regulator&lt;br&gt;Location: 6201185 - 6200205" locus_tag="ACH79_RS29000" class="clusterblast-orf" id="dummy-1_h1_2_7"  />
</g>
<g id="a1_008"  >
<polygon points="191,85 196,80 224,80 224,90 196,90 191,85 " style="fill:white; stroke-width:1; stroke:black; " description="&lt;b&gt;ACH79_RS28995&lt;/b&gt;&lt;br&gt;phosphonoacetaldehyde dehydrogenase&lt;br&gt;Location: 6200196 - 6198760" locus_tag="ACH79_RS28995" class="clusterblast-orf" id="dummy-1_h1_2_8"  />
</g>
<g id="a1_009"  >
<polygon points="225,85 230,80 246,80 246,90 230,90 225,85 " style="fill:white; stroke-width:1; stroke:black; " description="&lt;b&gt;ACH79_RS28990&lt;/b&gt;&lt;br&gt;EamA family transporter&lt;br&gt;Location: 6198689 - 6197796" locus_tag="ACH79_RS28990" class="clusterblast-orf" id="dummy-1_h1_2_9"  />
</g>
<g id="a1_0010"  >
<polygon points="246,85 251,80 272,80 272,90 251,90 246,85 " style="fill:white; stroke-width:1; stroke:black; " description="&lt;b&gt;ACH79_RS28985&lt;/b&gt;&lt;br&gt;phosphonopyruvate decarboxylase&lt;br&gt;Location: 6197799 - 6196633" locus_tag="ACH79_RS28985" class="clusterblast-orf" id="dummy-1_h1_2_10"  />
</g>
<g id="a1_0011"  >
<polygon points="275,85 280,80 300,80 300,90 280,90 275,85 " style="fill:white; stroke-width:1; stroke:black; " description="&lt;b&gt;ACH79_RS28980&lt;/b&gt;&lt;br&gt;methyltransferase&lt;br&gt;Location: 6196504 - 6195428" locus_tag="ACH79_RS28980" class="clusterblast-orf" id="dummy-1_h1_2_11"  />
</g>
<g id="a1_0012"  >
<polygon points="301,85 306,80 323,80 323,90 306,90 301,85 " style="fill:white; stroke-width:1; stroke:black; " description="&lt;b&gt;ACH79_RS28975&lt;/b&gt;&lt;br&gt;phosphoenolpyruvate mutase&lt;br&gt;Location: 6195371 - 6194421" locus_tag="ACH79_RS28975" class="clusterblast-orf" id="dummy-1_h1_2_12"  />
</g>
<g id="a1_0013"  >
<polygon points="332,90 347,90 352,85 347,80 332,80 332,90 " style="fill:white; stroke-width:1; stroke:black; " description="&lt;b&gt;ACH79_RS28970&lt;/b&gt;&lt;br&gt;hypothetical protein&lt;br&gt;Location: 6194039 - 6193158" locus_tag="ACH79_RS28970" class="clusterblast-orf" id="dummy-1_h1_2_13"  />
</g>
<g id="a1_0014"  >
<polygon points="351,85 356,80 360,80 360,90 356,90 351,85 " style="fill:white; stroke-width:1; stroke:black; " description="&lt;b&gt;ACH79_RS28965&lt;/b&gt;&lt;br&gt;hypothetical protein&lt;br&gt;Location: 6193193 - 6192798" locus_tag="ACH79_RS28965" class="clusterblast-orf" id="dummy-1_h1_2_14"  />
</g>
<g id="a1_0015"  >
<polygon points="360,85 365,80 378,80 378,90 365,90 360,85 " style="fill:white; stroke-width:1; stroke:black; " description="&lt;b&gt;ACH79_RS28960&lt;/b&gt;&lt;br&gt;hypothetical protein&lt;br&gt;Location: 6192798 - 6192016" locus_tag="ACH79_RS28960" class="clusterblast-orf" id="dummy-1_h1_2_15"  />
</g>
<g id="a1_0016"  >
<polygon points="383,90 388,90 393,85 388,80 383,80 383,90 " style="fill:white; stroke-width:1; stroke:black; " description="&lt;b&gt;ACH79_RS28955&lt;/b&gt;&lt;br&gt;helix-turn-helix transcriptional regulator&lt;br&gt;Location: 6191788 - 6191375" locus_tag="ACH79_RS28955" class="clusterblast-orf" id="dummy-1_h1_2_16"  />
</g>
<g id="a1_0017"  >
<polygon points="396,85 401,80 417,80 417,90 401,90 396,85 " style="fill:#d81515; stroke-width:1; stroke:black; " description="&lt;b&gt;ACH79_RS28950&lt;/b&gt;&lt;br&gt;LysR family transcriptional regulator&lt;br&gt;Location: 6191252 - 6190326&lt;br&gt;&lt;br&gt;&lt;b&gt;BlastP hit with OCPFFIJE_00718&lt;/b&gt;&lt;br&gt;Percentage identity: 39&lt;br&gt;Percentage coverage: 89&lt;br&gt;BLAST bit score: 188&lt;br&gt;E-value: 6.68e-56" locus_tag="ACH79_RS28950" class="clusterblast-orf" id="dummy-1_h1_2_17"  />
</g>
<g id="a1_0018"  >
<polygon points="421,90 442,90 447,85 442,80 421,80 421,90 " style="fill:#5cd815; stroke-width:1; stroke:black; " description="&lt;b&gt;ACH79_RS28945&lt;/b&gt;&lt;br&gt;ABC transporter ATP-binding protein&lt;br&gt;Location: 6190161 - 6189010&lt;br&gt;&lt;br&gt;&lt;b&gt;BlastP hit with OCPFFIJE_00719&lt;/b&gt;&lt;br&gt;Percentage identity: 55&lt;br&gt;Percentage coverage: 101&lt;br&gt;BLAST bit score: 364&lt;br&gt;E-value: 6.64e-123" locus_tag="ACH79_RS28945" class="clusterblast-orf" id="dummy-1_h1_2_18"  />
</g>
<g id="a1_0019"  >
<polygon points="447,90 464,90 469,85 464,80 447,80 447,90 " style="fill:#15a3d8; stroke-width:1; stroke:black; " description="&lt;b&gt;ACH79_RS28940&lt;/b&gt;&lt;br&gt;sugar ABC transporter permease&lt;br&gt;Location: 6189017 - 6188076&lt;br&gt;&lt;br&gt;&lt;b&gt;BlastP hit with OCPFFIJE_00720&lt;/b&gt;&lt;br&gt;Percentage identity: 50&lt;br&gt;Percentage coverage: 96&lt;br&gt;BLAST bit score: 250&lt;br&gt;E-value: 2.79e-80" locus_tag="ACH79_RS28940" class="clusterblast-orf" id="dummy-1_h1_2_19"  />
</g>
<g id="a1_0020"  >
<polygon points="468,90 483,90 488,85 483,80 468,80 468,90 " style="fill:#c715d8; stroke-width:1; stroke:black; " description="&lt;b&gt;ACH79_RS28935&lt;/b&gt;&lt;br&gt;carbohydrate ABC transporter permease&lt;br&gt;Location: 6188079 - 6187243&lt;br&gt;&lt;br&gt;&lt;b&gt;BlastP hit with OCPFFIJE_00721&lt;/b&gt;&lt;br&gt;Percentage identity: 66&lt;br&gt;Percentage coverage: 69&lt;br&gt;BLAST bit score: 280&lt;br&gt;E-value: 4.68e-92" locus_tag="ACH79_RS28935" class="clusterblast-orf" id="dummy-1_h1_2_20"  />
</g>
<g id="a1_0021"  >
<polygon points="488,90 513,90 518,85 513,80 488,80 488,90 " style="fill:#d88015; stroke-width:1; stroke:black; " description="&lt;b&gt;ACH79_RS28930&lt;/b&gt;&lt;br&gt;ABC transporter substrate-binding protein&lt;br&gt;Location: 6187211 - 6185931&lt;br&gt;&lt;br&gt;&lt;b&gt;BlastP hit with OCPFFIJE_00722&lt;/b&gt;&lt;br&gt;Percentage identity: 41&lt;br&gt;Percentage coverage: 100&lt;br&gt;BLAST bit score: 294&lt;br&gt;E-value: 4.38e-94" locus_tag="ACH79_RS28930" class="clusterblast-orf" id="dummy-1_h1_2_21"  />
</g>
<g id="a1_0022"  >
<polygon points="518,90 532,90 537,85 532,80 518,80 518,90 " style="fill:#15d839; stroke-width:1; stroke:black; " description="&lt;b&gt;ACH79_RS28925&lt;/b&gt;&lt;br&gt;phosphodiesterase&lt;br&gt;Location: 6185921 - 6185094&lt;br&gt;&lt;br&gt;&lt;b&gt;BlastP hit with OCPFFIJE_00723&lt;/b&gt;&lt;br&gt;Percentage identity: 45&lt;br&gt;Percentage coverage: 93&lt;br&gt;BLAST bit score: 219&lt;br&gt;E-value: 6e-69" locus_tag="ACH79_RS28925" class="clusterblast-orf" id="dummy-1_h1_2_22"  />
</g>
<g id="a1_0023"  >
<polygon points="540,85 545,80 568,80 568,90 545,90 540,85 " style="fill:white; stroke-width:1; stroke:black; " description="&lt;b&gt;ACH79_RS28920&lt;/b&gt;&lt;br&gt;cytochrome P450&lt;br&gt;Location: 6184965 - 6183757" locus_tag="ACH79_RS28920" class="clusterblast-orf" id="dummy-1_h1_2_23"  />
</g>
<g id="a1_0024"  >
<polygon points="569,85 574,80 591,80 591,90 574,90 569,85 " style="fill:white; stroke-width:1; stroke:black; " description="&lt;b&gt;ACH79_RS28915&lt;/b&gt;&lt;br&gt;catechol 2,3-dioxygenase&lt;br&gt;Location: 6183674 - 6182724" locus_tag="ACH79_RS28915" class="clusterblast-orf" id="dummy-1_h1_2_24"  />
</g>
<g id="a1_0025"  >
<polygon points="592,85 597,80 611,80 611,90 597,90 592,85 " style="fill:white; stroke-width:1; stroke:black; " description="&lt;b&gt;ACH79_RS28910&lt;/b&gt;&lt;br&gt;hypothetical protein&lt;br&gt;Location: 6182710 - 6181865" locus_tag="ACH79_RS28910" class="clusterblast-orf" id="dummy-1_h1_2_25"  />
</g>
<g id="a1_0026"  >
<polygon points="611,85 616,80 627,80 627,90 616,90 611,85 " style="fill:white; stroke-width:1; stroke:black; " description="&lt;b&gt;ACH79_RS28905&lt;/b&gt;&lt;br&gt;4-carboxy-4-hydroxy-2-oxoadipate aldolase/oxaloacetate decarboxylase&lt;br&gt;Location: 6181857 - 6181165" locus_tag="ACH79_RS28905" class="clusterblast-orf" id="dummy-1_h1_2_26"  />
</g>
<g id="a1_0027"  >
<polygon points="627,85 632,80 644,80 644,90 632,90 627,85 " style="fill:white; stroke-width:1; stroke:black; " description="&lt;b&gt;ACH79_RS28900&lt;/b&gt;&lt;br&gt;PIG-L family deacetylase&lt;br&gt;Location: 6181168 - 6180443" locus_tag="ACH79_RS28900" class="clusterblast-orf" id="dummy-1_h1_2_27"  />
</g>
<g id="a1_0028"  >
<polygon points="645,85 650,80 668,80 668,90 650,90 645,85 " style="fill:white; stroke-width:1; stroke:black; " description="&lt;b&gt;ACH79_RS28895&lt;/b&gt;&lt;br&gt;tripartite tricarboxylate transporter substrate binding protein&lt;br&gt;Location: 6180387 - 6179383" locus_tag="ACH79_RS28895" class="clusterblast-orf" id="dummy-1_h1_2_28"  />
</g>
<g id="a1_0029"  >
<polygon points="668,85 673,80 688,80 688,90 673,90 668,85 " style="fill:white; stroke-width:1; stroke:black; " description="&lt;b&gt;ACH79_RS28890&lt;/b&gt;&lt;br&gt;amidohydrolase family protein&lt;br&gt;Location: 6179369 - 6178500" locus_tag="ACH79_RS28890" class="clusterblast-orf" id="dummy-1_h1_2_29"  />
</g>
<g id="a1_0030"  >
<polygon points="689,85 694,80 706,80 706,90 694,90 689,85 " style="fill:white; stroke-width:1; stroke:black; " description="&lt;b&gt;ACH79_RS28885&lt;/b&gt;&lt;br&gt;TetR/AcrR family transcriptional regulator&lt;br&gt;Location: 6178463 - 6177732" locus_tag="ACH79_RS28885" class="clusterblast-orf" id="dummy-1_h1_2_30"  />
</g>
<g id="a1_0031"  >
<polygon points="708,90 721,90 726,85 721,80 708,80 708,90 " style="fill:white; stroke-width:1; stroke:black; " description="&lt;b&gt;ACH79_RS28880&lt;/b&gt;&lt;br&gt;transporter substrate-binding domain-containing protein&lt;br&gt;Location: 6177639 - 6176839" locus_tag="ACH79_RS28880" class="clusterblast-orf" id="dummy-1_h1_2_31"  />
</g>
<g id="a1_0032"  >
<polygon points="728,90 745,90 750,85 745,80 728,80 728,90 " style="fill:white; stroke-width:1; stroke:black; " description="&lt;b&gt;ACH79_RS28875&lt;/b&gt;&lt;br&gt;tripartite tricarboxylate transporter substrate binding protein&lt;br&gt;Location: 6176782 - 6175805" locus_tag="ACH79_RS28875" class="clusterblast-orf" id="dummy-1_h1_2_32"  />
</g>
<g id="a1_0033"  >
<polygon points="751,85 756,80 780,80 780,90 756,90 751,85 " style="fill:white; stroke-width:1; stroke:black; " description="&lt;b&gt;ACH79_RS28870&lt;/b&gt;&lt;br&gt;MFS transporter&lt;br&gt;Location: 6175777 - 6174515" locus_tag="ACH79_RS28870" class="clusterblast-orf" id="dummy-1_h1_2_33"  />
</g>
</svg>
