<svg xmlns="http://www.w3.org/2000/svg" xmlns:xlink="http://www.w3.org/1999/xlink" version="1.1" x="0" y="0" height="230" width="800" viewBox="0 0 800 230" preserveAspectRatio="none"  >
<g label="Query sequence" class="clusterblast-cluster"  >
<text x="5" y="20" class="clusterblast-acc"  >
Query sequence</text>
<line x1="10" y1="35" x2="778.0" y2="35" style="stroke-width:1; stroke:grey; "  />
<polygon points="209,35 214,30 216,30 216,40 214,40 209,35 " style="fill:white; stroke-width:1; stroke:black; " description="&lt;b&gt;OCPFFIJE_01976&lt;/b&gt;&lt;br&gt;hypothetical protein&lt;br&gt;Location: 1911886 - 1912237" locus_tag="OCPFFIJE_01976" class="clusterblast-orf" id="dummy-4_q0_0_all"  />
<polygon points="215,35 220,30 223,30 223,40 220,40 215,35 " style="fill:white; stroke-width:1; stroke:black; " description="&lt;b&gt;OCPFFIJE_01977&lt;/b&gt;&lt;br&gt;hypothetical protein&lt;br&gt;Location: 1912233 - 1912641" locus_tag="OCPFFIJE_01977" class="clusterblast-orf" id="dummy-4_q1_0_all"  />
<polygon points="233,40 237,40 242,35 237,30 233,30 233,40 " style="fill:white; stroke-width:1; stroke:black; " description="&lt;b&gt;OCPFFIJE_01978&lt;/b&gt;&lt;br&gt;hypothetical protein&lt;br&gt;Location: 1913214 - 1913679" locus_tag="OCPFFIJE_01978" class="clusterblast-orf" id="dummy-4_q2_0_all"  />
<polygon points="241,40 253,40 258,35 253,30 241,30 241,40 " style="fill:white; stroke-width:1; stroke:black; " description="&lt;b&gt;OCPFFIJE_01979&lt;/b&gt;&lt;br&gt;ECF RNA polymerase sigma factor SigJ&lt;br&gt;Location: 1913665 - 1914550" locus_tag="OCPFFIJE_01979" class="clusterblast-orf" id="dummy-4_q3_0_all"  />
<polygon points="266,35 270,30 270,40 266,35 " style="fill:white; stroke-width:1; stroke:black; " description="&lt;b&gt;OCPFFIJE_01980&lt;/b&gt;&lt;br&gt;hypothetical protein&lt;br&gt;Location: 1915026 - 1915257" locus_tag="OCPFFIJE_01980" class="clusterblast-orf" id="dummy-4_q4_0_all"  />
<polygon points="272,40 281,40 286,35 281,30 272,30 272,40 " style="fill:white; stroke-width:1; stroke:black; " description="&lt;b&gt;OCPFFIJE_01981&lt;/b&gt;&lt;br&gt;hypothetical protein&lt;br&gt;Location: 1915343 - 1916093" locus_tag="OCPFFIJE_01981" class="clusterblast-orf" id="dummy-4_q5_0_all"  />
<polygon points="289,40 299,40 304,35 299,30 289,30 289,40 " style="fill:white; stroke-width:1; stroke:black; " description="&lt;b&gt;OCPFFIJE_01982&lt;/b&gt;&lt;br&gt;Phthiocerol synthesis polyketide synthase type I PpsC&lt;br&gt;Location: 1916280 - 1917099" locus_tag="OCPFFIJE_01982" class="clusterblast-orf" id="dummy-4_q6_0_all"  />
<polygon points="305,40 310,40 315,35 310,30 305,30 305,40 " style="fill:white; stroke-width:1; stroke:black; " description="&lt;b&gt;OCPFFIJE_01983&lt;/b&gt;&lt;br&gt;2-succinylbenzoate--CoA ligase&lt;br&gt;Location: 1917145 - 1917718" locus_tag="OCPFFIJE_01983" class="clusterblast-orf" id="dummy-4_q7_0_all"  />
<polygon points="317,40 321,40 326,35 321,30 317,30 317,40 " style="fill:white; stroke-width:1; stroke:black; " description="&lt;b&gt;OCPFFIJE_01984&lt;/b&gt;&lt;br&gt;hypothetical protein&lt;br&gt;Location: 1917805 - 1918333" locus_tag="OCPFFIJE_01984" class="clusterblast-orf" id="dummy-4_q8_0_all"  />
<polygon points="328,40 334,40 339,35 334,30 328,30 328,40 " style="fill:white; stroke-width:1; stroke:black; " description="&lt;b&gt;OCPFFIJE_01985&lt;/b&gt;&lt;br&gt;hypothetical protein&lt;br&gt;Location: 1918418 - 1919015" locus_tag="OCPFFIJE_01985" class="clusterblast-orf" id="dummy-4_q9_0_all"  />
<polygon points="339,40 347,40 352,35 347,30 339,30 339,40 " style="fill:white; stroke-width:1; stroke:black; " description="&lt;b&gt;OCPFFIJE_01986&lt;/b&gt;&lt;br&gt;Protein DipZ&lt;br&gt;Location: 1919068 - 1919755" locus_tag="OCPFFIJE_01986" class="clusterblast-orf" id="dummy-4_q10_0_all"  />
<polygon points="352,40 357,40 362,35 357,30 352,30 352,40 " style="fill:#d81515; stroke-width:1; stroke:black; " description="&lt;b&gt;OCPFFIJE_01987&lt;/b&gt;&lt;br&gt;Thiol-disulfide oxidoreductase ResA&lt;br&gt;Location: 1919769 - 1920288" locus_tag="OCPFFIJE_01987" class="clusterblast-orf" id="dummy-4_q11_0_all"  />
<polygon points="366,35 369,30 369,40 366,35 " style="fill:white; stroke-width:1; stroke:black; " description="&lt;b&gt;OCPFFIJE_01988&lt;/b&gt;&lt;br&gt;hypothetical protein&lt;br&gt;Location: 1920511 - 1920712" locus_tag="OCPFFIJE_01988" class="clusterblast-orf" id="dummy-4_q12_0_all"  />
<polygon points="373,40 374,40 379,35 374,30 373,30 373,40 " style="fill:white; stroke-width:1; stroke:black; " description="&lt;b&gt;OCPFFIJE_01989&lt;/b&gt;&lt;br&gt;hypothetical protein&lt;br&gt;Location: 1920912 - 1921260" locus_tag="OCPFFIJE_01989" class="clusterblast-orf" id="dummy-4_q13_0_all"  />
<polygon points="380,35 385,30 400,30 400,40 385,40 380,35 " style="fill:#4dd815; stroke-width:1; stroke:black; " description="&lt;b&gt;OCPFFIJE_01990&lt;/b&gt;&lt;br&gt;PqqA peptide cyclase&lt;br&gt;Location: 1921286 - 1922393" locus_tag="OCPFFIJE_01990" class="clusterblast-orf" id="dummy-4_q14_0_all"  />
<polygon points="400,35 405,30 405,30 405,40 405,40 400,35 " style="fill:#4dd815; stroke-width:1; stroke:black; " description="&lt;b&gt;OCPFFIJE_01991&lt;/b&gt;&lt;br&gt;Bifunctional coenzyme PQQ synthesis protein C/D&lt;br&gt;Location: 1922389 - 1922665" locus_tag="OCPFFIJE_01991" class="clusterblast-orf" id="dummy-4_q15_0_all"  />
<polygon points="405,35 410,30 418,30 418,40 410,40 405,35 " style="fill:#1585d8; stroke-width:1; stroke:black; " description="&lt;b&gt;OCPFFIJE_01992&lt;/b&gt;&lt;br&gt;Bifunctional coenzyme PQQ synthesis protein C/D&lt;br&gt;Location: 1922661 - 1923405" locus_tag="OCPFFIJE_01992" class="clusterblast-orf" id="dummy-4_q16_0_all"  />
<polygon points="418,35 423,30 435,30 435,40 423,40 418,35 " style="fill:#d815bc; stroke-width:1; stroke:black; " description="&lt;b&gt;OCPFFIJE_01993&lt;/b&gt;&lt;br&gt;Coenzyme PQQ synthesis protein B&lt;br&gt;Location: 1923401 - 1924352" locus_tag="OCPFFIJE_01993" class="clusterblast-orf" id="dummy-4_q17_0_all"  />
<polygon points="434,35 436,30 436,40 434,35 " style="fill:#d8bc15; stroke-width:1; stroke:black; " description="&lt;b&gt;OCPFFIJE_01994&lt;/b&gt;&lt;br&gt;Coenzyme PQQ synthesis protein A&lt;br&gt;Location: 1924296 - 1924410" locus_tag="OCPFFIJE_01994" class="clusterblast-orf" id="dummy-4_q18_0_all"  />
<polygon points="438,35 443,30 449,30 449,40 443,40 438,35 " style="fill:white; stroke-width:1; stroke:black; " description="&lt;b&gt;OCPFFIJE_01995&lt;/b&gt;&lt;br&gt;Protein YceI&lt;br&gt;Location: 1924496 - 1925081" locus_tag="OCPFFIJE_01995" class="clusterblast-orf" id="dummy-4_q19_0_all"  />
<polygon points="450,35 455,30 487,30 487,40 455,40 450,35 " style="fill:white; stroke-width:1; stroke:black; " description="&lt;b&gt;OCPFFIJE_01996&lt;/b&gt;&lt;br&gt;Glycerol dehydrogenase large subunit&lt;br&gt;Location: 1925135 - 1927187" locus_tag="OCPFFIJE_01996" class="clusterblast-orf" id="dummy-4_q20_0_all"  />
<polygon points="487,35 492,30 496,30 496,40 492,40 487,35 " style="fill:white; stroke-width:1; stroke:black; " description="&lt;b&gt;OCPFFIJE_01997&lt;/b&gt;&lt;br&gt;hypothetical protein&lt;br&gt;Location: 1927189 - 1927678" locus_tag="OCPFFIJE_01997" class="clusterblast-orf" id="dummy-4_q21_0_all"  />
<polygon points="496,35 499,30 499,40 496,35 " style="fill:white; stroke-width:1; stroke:black; " description="&lt;b&gt;OCPFFIJE_01998&lt;/b&gt;&lt;br&gt;hypothetical protein&lt;br&gt;Location: 1927702 - 1927846" locus_tag="OCPFFIJE_01998" class="clusterblast-orf" id="dummy-4_q22_0_all"  />
<polygon points="502,35 507,30 523,30 523,40 507,40 502,35 " style="fill:#15d885; stroke-width:1; stroke:black; " description="&lt;b&gt;OCPFFIJE_01999&lt;/b&gt;&lt;br&gt;hypothetical protein&lt;br&gt;Location: 1928021 - 1929194" locus_tag="OCPFFIJE_01999" class="clusterblast-orf" id="dummy-4_q23_0_all"  />
<polygon points="528,35 533,30 550,30 550,40 533,40 528,35 " style="fill:#4d15d8; stroke-width:1; stroke:black; " description="&lt;b&gt;OCPFFIJE_02000&lt;/b&gt;&lt;br&gt;IS256 family transposase ISPye43&lt;br&gt;Location: 1929429 - 1930644" locus_tag="OCPFFIJE_02000" class="clusterblast-orf" id="dummy-4_q24_0_all"  />
<polygon points="566,35 570,30 570,40 566,35 " style="fill:white; stroke-width:1; stroke:black; " description="&lt;b&gt;OCPFFIJE_02001&lt;/b&gt;&lt;br&gt;hypothetical protein&lt;br&gt;Location: 1931542 - 1931782" locus_tag="OCPFFIJE_02001" class="clusterblast-orf" id="dummy-4_q25_0_all"  />
</g>
<g label="NZ_CP035417" description="NZ_CP035417 (528244-571229): Leisingera sp. NJS204 chromosome, complete genome (12% of genes show similarity), NRPS-like" class="clusterblast-cluster"  >
<text x="5" y="70" class="clusterblast-acc"  >
<a xlink:href="https://antismash-db.secondarymetabolites.org/area.html?record=NZ_CP035417&amp;start=528244&amp;end=571229" target="_blank">NZ_CP035417 (528244-571229)</a>: Leisingera sp. NJS204 chromosome, complete genome (12% of genes show similarity), NRPS-like</text>
<line x1="10" y1="85" x2="778.0" y2="85" style="stroke-width:1; stroke:grey; "  />
</g>
<g id="a4_000"  >
<polygon points="0,85 5,80 12,80 12,90 5,90 0,85 " style="fill:white; stroke-width:1; stroke:black; " description="&lt;b&gt;ETW24_RS02850&lt;/b&gt;&lt;br&gt;IS3 family transposase&lt;br&gt;Location: 571229 - 570561" locus_tag="ETW24_RS02850" class="clusterblast-orf" id="dummy-4_h4_1_0"  />
</g>
<g id="a4_001"  >
<polygon points="12,85 17,80 17,80 17,90 17,90 12,85 " style="fill:white; stroke-width:1; stroke:black; " description="&lt;b&gt;ETW24_RS02845&lt;/b&gt;&lt;br&gt;transposase&lt;br&gt;Location: 570552 - 570259" locus_tag="ETW24_RS02845" class="clusterblast-orf" id="dummy-4_h4_1_1"  />
</g>
<g id="a4_002"  >
<polygon points="19,90 23,90 28,85 23,80 19,80 19,90 " style="fill:white; stroke-width:1; stroke:black; " description="&lt;b&gt;ETW24_RS02840&lt;/b&gt;&lt;br&gt;transporter substrate-binding domain-containing protein&lt;br&gt;Location: 570158 - 569658" locus_tag="ETW24_RS02840" class="clusterblast-orf" id="dummy-4_h4_1_2"  />
</g>
<g id="a4_003"  >
<polygon points="29,90 38,90 43,85 38,80 29,80 29,90 " style="fill:white; stroke-width:1; stroke:black; " description="&lt;b&gt;ETW24_RS02835&lt;/b&gt;&lt;br&gt;ABC transporter substrate-binding protein&lt;br&gt;Location: 569593 - 568814" locus_tag="ETW24_RS02835" class="clusterblast-orf" id="dummy-4_h4_1_3"  />
</g>
<g id="a4_004"  >
<polygon points="44,90 58,90 63,85 58,80 44,80 44,90 " style="fill:white; stroke-width:1; stroke:black; " description="&lt;b&gt;ETW24_RS02830&lt;/b&gt;&lt;br&gt;taurine ABC transporter substrate-binding protein&lt;br&gt;Location: 568770 - 567754" locus_tag="ETW24_RS02830" class="clusterblast-orf" id="dummy-4_h4_1_4"  />
</g>
<g id="a4_005"  >
<polygon points="63,90 107,90 112,85 107,80 63,80 63,90 " style="fill:white; stroke-width:1; stroke:black; " description="&lt;b&gt;ETW24_RS02825&lt;/b&gt;&lt;br&gt;response regulator&lt;br&gt;Location: 567710 - 565011" locus_tag="ETW24_RS02825" class="clusterblast-orf" id="dummy-4_h4_1_5"  />
</g>
<g id="a4_006"  >
<polygon points="112,90 114,90 119,85 114,80 112,80 112,90 " style="fill:white; stroke-width:1; stroke:black; " description="&lt;b&gt;ETW24_RS02820&lt;/b&gt;&lt;br&gt;response regulator&lt;br&gt;Location: 565014 - 564619" locus_tag="ETW24_RS02820" class="clusterblast-orf" id="dummy-4_h4_1_6"  />
</g>
<g id="a4_007"  >
<polygon points="120,90 122,90 127,85 122,80 120,80 120,90 " style="fill:white; stroke-width:1; stroke:black; " description="&lt;b&gt;ETW24_RS02815&lt;/b&gt;&lt;br&gt;response regulator&lt;br&gt;Location: 564593 - 564216" locus_tag="ETW24_RS02815" class="clusterblast-orf" id="dummy-4_h4_1_7"  />
</g>
<g id="a4_008"  >
<polygon points="125,90 141,90 146,85 141,80 125,80 125,90 " style="fill:white; stroke-width:1; stroke:black; " description="&lt;b&gt;ETW24_RS02810&lt;/b&gt;&lt;br&gt;adenylate/guanylate cyclase domain-containing response regulator&lt;br&gt;Location: 564303 - 563173" locus_tag="ETW24_RS02810" class="clusterblast-orf" id="dummy-4_h4_1_8"  />
</g>
<g id="a4_009"  >
<polygon points="152,90 166,90 171,85 166,80 152,80 152,90 " style="fill:white; stroke-width:1; stroke:black; " description="&lt;b&gt;ETW24_RS02805&lt;/b&gt;&lt;br&gt;IS110 family transposase&lt;br&gt;Location: 562823 - 561784" locus_tag="ETW24_RS02805" class="clusterblast-orf" id="dummy-4_h4_1_9"  />
</g>
<g id="a4_0010"  >
<polygon points="178,90 192,90 197,85 192,80 178,80 178,90 " style="fill:white; stroke-width:1; stroke:black; " description="&lt;b&gt;ETW24_RS02800&lt;/b&gt;&lt;br&gt;IS481 family transposase&lt;br&gt;Location: 561382 - 560343" locus_tag="ETW24_RS02800" class="clusterblast-orf" id="dummy-4_h4_1_10"  />
</g>
<g id="a4_0011"  >
<polygon points="200,85 205,80 215,80 215,90 205,90 200,85 " style="fill:white; stroke-width:1; stroke:black; " description="&lt;b&gt;ETW24_RS02795&lt;/b&gt;&lt;br&gt;transposase&lt;br&gt;Location: 560181 - 559351" locus_tag="ETW24_RS02795" class="clusterblast-orf" id="dummy-4_h4_1_11"  />
</g>
<g id="a4_0012"  >
<polygon points="224,90 237,90 242,85 237,80 224,80 224,90 " style="fill:white; stroke-width:1; stroke:black; " description="&lt;b&gt;ETW24_RS02790&lt;/b&gt;&lt;br&gt;ABC transporter substrate-binding protein&lt;br&gt;Location: 558861 - 557878" locus_tag="ETW24_RS02790" class="clusterblast-orf" id="dummy-4_h4_1_12"  />
</g>
<g id="a4_0013"  >
<polygon points="242,90 256,90 261,85 256,80 242,80 242,90 " style="fill:white; stroke-width:1; stroke:black; " description="&lt;b&gt;ETW24_RS02785&lt;/b&gt;&lt;br&gt;iron ABC transporter permease&lt;br&gt;Location: 557876 - 556839" locus_tag="ETW24_RS02785" class="clusterblast-orf" id="dummy-4_h4_1_13"  />
</g>
<g id="a4_0014"  >
<polygon points="261,90 274,90 279,85 274,80 261,80 261,90 " style="fill:white; stroke-width:1; stroke:black; " description="&lt;b&gt;ETW24_RS02780&lt;/b&gt;&lt;br&gt;iron chelate uptake ABC transporter family permease subunit&lt;br&gt;Location: 556842 - 555826" locus_tag="ETW24_RS02780" class="clusterblast-orf" id="dummy-4_h4_1_14"  />
</g>
<g id="a4_0015"  >
<polygon points="279,90 288,90 293,85 288,80 279,80 279,90 " style="fill:white; stroke-width:1; stroke:black; " description="&lt;b&gt;ETW24_RS02775&lt;/b&gt;&lt;br&gt;ABC transporter ATP-binding protein&lt;br&gt;Location: 555826 - 555029" locus_tag="ETW24_RS02775" class="clusterblast-orf" id="dummy-4_h4_1_15"  />
</g>
<g id="a4_0016"  >
<polygon points="294,90 308,90 313,85 308,80 294,80 294,90 " style="fill:white; stroke-width:1; stroke:black; " description="&lt;b&gt;ETW24_RS02770&lt;/b&gt;&lt;br&gt;siderophore-interacting protein&lt;br&gt;Location: 555017 - 553965" locus_tag="ETW24_RS02770" class="clusterblast-orf" id="dummy-4_h4_1_16"  />
</g>
<g id="a4_0017"  >
<polygon points="320,90 352,90 357,85 352,80 320,80 320,90 " style="fill:white; stroke-width:1; stroke:black; " description="&lt;b&gt;ETW24_RS02765&lt;/b&gt;&lt;br&gt;TonB-dependent siderophore receptor&lt;br&gt;Location: 553579 - 551549" locus_tag="ETW24_RS02765" class="clusterblast-orf" id="dummy-4_h4_1_17"  />
</g>
<g id="a4_0018"  >
<polygon points="358,85 363,80 428,80 428,90 363,90 358,85 " style="fill:white; stroke-width:1; stroke:black; " description="&lt;b&gt;ETW24_RS02760&lt;/b&gt;&lt;br&gt;amino acid adenylation domain-containing protein&lt;br&gt;Location: 551462 - 547596" locus_tag="ETW24_RS02760" class="clusterblast-orf" id="dummy-4_h4_1_18"  />
</g>
<g id="a4_0019"  >
<polygon points="428,85 432,80 432,90 428,85 " style="fill:white; stroke-width:1; stroke:black; " description="&lt;b&gt;ETW24_RS02755&lt;/b&gt;&lt;br&gt;MbtH family NRPS accessory protein&lt;br&gt;Location: 547599 - 547402" locus_tag="ETW24_RS02755" class="clusterblast-orf" id="dummy-4_h4_1_19"  />
</g>
<g id="a4_0020"  >
<polygon points="435,90 454,90 459,85 454,80 435,80 435,90 " style="fill:white; stroke-width:1; stroke:black; " description="&lt;b&gt;ETW24_RS02750&lt;/b&gt;&lt;br&gt;MATE family efflux transporter&lt;br&gt;Location: 547244 - 545904" locus_tag="ETW24_RS02750" class="clusterblast-orf" id="dummy-4_h4_1_20"  />
</g>
<g id="a4_0021"  >
<polygon points="459,90 476,90 481,85 476,80 459,80 459,90 " style="fill:white; stroke-width:1; stroke:black; " description="&lt;b&gt;ETW24_RS02745&lt;/b&gt;&lt;br&gt;hypothetical protein&lt;br&gt;Location: 545907 - 544720" locus_tag="ETW24_RS02745" class="clusterblast-orf" id="dummy-4_h4_1_21"  />
</g>
<g id="a4_0022"  >
<polygon points="480,90 491,90 496,85 491,80 480,80 480,90 " style="fill:white; stroke-width:1; stroke:black; " description="&lt;b&gt;ETW24_RS02740&lt;/b&gt;&lt;br&gt;alpha/beta hydrolase&lt;br&gt;Location: 544723 - 543851" locus_tag="ETW24_RS02740" class="clusterblast-orf" id="dummy-4_h4_1_22"  />
</g>
<g id="a4_0023"  >
<polygon points="506,90 514,90 519,85 514,80 506,80 506,90 " style="fill:white; stroke-width:1; stroke:black; " description="&lt;b&gt;ETW24_RS02735&lt;/b&gt;&lt;br&gt;acetyltransferase&lt;br&gt;Location: 543334 - 542582" locus_tag="ETW24_RS02735" class="clusterblast-orf" id="dummy-4_h4_1_23"  />
</g>
<g id="a4_0024"  >
<polygon points="519,90 538,90 543,85 538,80 519,80 519,90 " style="fill:white; stroke-width:1; stroke:black; " description="&lt;b&gt;ETW24_RS02730&lt;/b&gt;&lt;br&gt;lysine N(6)-hydroxylase/L-ornithine N(5)-oxygenase family protein&lt;br&gt;Location: 542585 - 541281" locus_tag="ETW24_RS02730" class="clusterblast-orf" id="dummy-4_h4_1_24"  />
</g>
<g id="a4_0025"  >
<polygon points="547,90 551,90 556,85 551,80 547,80 547,90 " style="fill:white; stroke-width:1; stroke:black; " description="&lt;b&gt;ETW24_RS02725&lt;/b&gt;&lt;br&gt;sigma-70 family RNA polymerase sigma factor&lt;br&gt;Location: 541079 - 540552" locus_tag="ETW24_RS02725" class="clusterblast-orf" id="dummy-4_h4_1_25"  />
</g>
<g id="a4_0026"  >
<polygon points="560,85 565,80 567,80 567,90 565,90 560,85 " style="fill:white; stroke-width:1; stroke:black; " description="&lt;b&gt;ETW24_RS02720&lt;/b&gt;&lt;br&gt;IS200/IS605 family transposase&lt;br&gt;Location: 540346 - 539930" locus_tag="ETW24_RS02720" class="clusterblast-orf" id="dummy-4_h4_1_26"  />
</g>
<g id="a4_0027"  >
<polygon points="567,90 569,90 574,85 569,80 567,80 567,90 " style="fill:white; stroke-width:1; stroke:black; " description="&lt;b&gt;ETW24_RS02715&lt;/b&gt;&lt;br&gt;transposase&lt;br&gt;Location: 539977 - 539548" locus_tag="ETW24_RS02715" class="clusterblast-orf" id="dummy-4_h4_1_27"  />
</g>
<g id="a4_0028"  >
<polygon points="586,85 591,80 601,80 601,90 591,90 586,85 " style="fill:white; stroke-width:1; stroke:black; " description="&lt;b&gt;ETW24_RS02705&lt;/b&gt;&lt;br&gt;IS110 family transposase&lt;br&gt;Location: 538930 - 538106" locus_tag="ETW24_RS02705" class="clusterblast-orf" id="dummy-4_h4_1_28"  />
</g>
<g id="a4_0029"  >
<polygon points="603,90 604,90 609,85 604,80 603,80 603,90 " style="fill:white; stroke-width:1; stroke:black; " description="&lt;b&gt;ETW24_RS24125&lt;/b&gt;&lt;br&gt;hypothetical protein&lt;br&gt;Location: 537944 - 537657" locus_tag="ETW24_RS24125" class="clusterblast-orf" id="dummy-4_h4_1_29"  />
</g>
<g id="a4_0030"  >
<polygon points="609,85 614,80 630,80 630,90 614,90 609,85 " style="fill:white; stroke-width:1; stroke:black; " description="&lt;b&gt;ETW24_RS02695&lt;/b&gt;&lt;br&gt;IS3 family transposase&lt;br&gt;Location: 537660 - 536470" locus_tag="ETW24_RS02695" class="clusterblast-orf" id="dummy-4_h4_1_30"  />
</g>
<g id="a4_0031"  >
<polygon points="637,85 642,80 657,80 657,90 642,90 637,85 " style="fill:#4dd815; stroke-width:1; stroke:black; " description="&lt;b&gt;ETW24_RS02690&lt;/b&gt;&lt;br&gt;pyrroloquinoline quinone biosynthesis protein PqqE&lt;br&gt;Location: 536092 - 535007&lt;br&gt;&lt;br&gt;&lt;b&gt;BlastP hit with OCPFFIJE_01990&lt;/b&gt;&lt;br&gt;Percentage identity: 69&lt;br&gt;Percentage coverage: 96&lt;br&gt;BLAST bit score: 502&lt;br&gt;E-value: 1.21e-177" locus_tag="ETW24_RS02690" class="clusterblast-orf" id="dummy-4_h4_1_31"  />
</g>
<g id="a4_0032"  >
<polygon points="657,85 662,80 662,80 662,90 662,90 657,85 " style="fill:#4dd815; stroke-width:1; stroke:black; " description="&lt;b&gt;ETW24_RS02685&lt;/b&gt;&lt;br&gt;pyrroloquinoline quinone biosynthesis peptide chaperone PqqD&lt;br&gt;Location: 535010 - 534723&lt;br&gt;&lt;br&gt;&lt;b&gt;BlastP hit with OCPFFIJE_01991&lt;/b&gt;&lt;br&gt;Percentage identity: 52&lt;br&gt;Percentage coverage: 91&lt;br&gt;BLAST bit score: 78&lt;br&gt;E-value: 2.04e-18" locus_tag="ETW24_RS02685" class="clusterblast-orf" id="dummy-4_h4_1_32"  />
</g>
<g id="a4_0033"  >
<polygon points="662,85 667,80 676,80 676,90 667,90 662,85 " style="fill:#1585d8; stroke-width:1; stroke:black; " description="&lt;b&gt;ETW24_RS02680&lt;/b&gt;&lt;br&gt;pyrroloquinoline-quinone synthase PqqC&lt;br&gt;Location: 534726 - 533974&lt;br&gt;&lt;br&gt;&lt;b&gt;BlastP hit with OCPFFIJE_01992&lt;/b&gt;&lt;br&gt;Percentage identity: 74&lt;br&gt;Percentage coverage: 97&lt;br&gt;BLAST bit score: 368&lt;br&gt;E-value: 1.88e-128" locus_tag="ETW24_RS02680" class="clusterblast-orf" id="dummy-4_h4_1_33"  />
</g>
<g id="a4_0034"  >
<polygon points="675,85 680,80 692,80 692,90 680,90 675,85 " style="fill:#d815bc; stroke-width:1; stroke:black; " description="&lt;b&gt;ETW24_RS02675&lt;/b&gt;&lt;br&gt;pyrroloquinoline quinone biosynthesis protein PqqB&lt;br&gt;Location: 533977 - 533093&lt;br&gt;&lt;br&gt;&lt;b&gt;BlastP hit with OCPFFIJE_01993&lt;/b&gt;&lt;br&gt;Percentage identity: 57&lt;br&gt;Percentage coverage: 93&lt;br&gt;BLAST bit score: 326&lt;br&gt;E-value: 6.21e-110" locus_tag="ETW24_RS02675" class="clusterblast-orf" id="dummy-4_h4_1_34"  />
</g>
<g id="a4_0035"  >
<polygon points="692,85 694,80 694,90 692,85 " style="fill:#d8bc15; stroke-width:1; stroke:black; " description="&lt;b&gt;ETW24_RS02670&lt;/b&gt;&lt;br&gt;pyrroloquinoline quinone precursor peptide PqqA&lt;br&gt;Location: 533071 - 532964&lt;br&gt;&lt;br&gt;&lt;b&gt;BlastP hit with OCPFFIJE_01994&lt;/b&gt;&lt;br&gt;Percentage identity: 65&lt;br&gt;Percentage coverage: 70&lt;br&gt;BLAST bit score: 45&lt;br&gt;E-value: 7.1e-07" locus_tag="ETW24_RS02670" class="clusterblast-orf" id="dummy-4_h4_1_35"  />
</g>
<g id="a4_0036"  >
<polygon points="696,90 729,90 734,85 729,80 696,80 696,90 " style="fill:white; stroke-width:1; stroke:black; " description="&lt;b&gt;ETW24_RS02665&lt;/b&gt;&lt;br&gt;4Fe-4S binding protein&lt;br&gt;Location: 532826 - 530742" locus_tag="ETW24_RS02665" class="clusterblast-orf" id="dummy-4_h4_1_36"  />
</g>
<g id="a4_0037"  >
<polygon points="734,90 746,90 751,85 746,80 734,80 734,90 " style="fill:white; stroke-width:1; stroke:black; " description="&lt;b&gt;ETW24_RS02660&lt;/b&gt;&lt;br&gt;FAD:protein FMN transferase&lt;br&gt;Location: 530745 - 529843" locus_tag="ETW24_RS02660" class="clusterblast-orf" id="dummy-4_h4_1_37"  />
</g>
<g id="a4_0038"  >
<polygon points="751,85 756,80 766,80 766,90 756,90 751,85 " style="fill:white; stroke-width:1; stroke:black; " description="&lt;b&gt;ETW24_RS02655&lt;/b&gt;&lt;br&gt;transporter substrate-binding domain-containing protein&lt;br&gt;Location: 529840 - 528965" locus_tag="ETW24_RS02655" class="clusterblast-orf" id="dummy-4_h4_1_38"  />
</g>
<g id="a4_0039"  >
<polygon points="767,85 772,80 780,80 780,90 772,90 767,85 " style="fill:white; stroke-width:1; stroke:black; " description="&lt;b&gt;ETW24_RS02650&lt;/b&gt;&lt;br&gt;cytochrome c-550 PedF&lt;br&gt;Location: 528922 - 528245" locus_tag="ETW24_RS02650" class="clusterblast-orf" id="dummy-4_h4_1_39"  />
</g>
</svg>
