<svg xmlns="http://www.w3.org/2000/svg" xmlns:xlink="http://www.w3.org/1999/xlink" version="1.1" x="0" y="0" height="230" width="800" viewBox="0 0 800 230" preserveAspectRatio="none"  >
<g label="Query sequence" class="clusterblast-cluster"  >
<text x="5" y="20" class="clusterblast-acc"  >
Query sequence</text>
<line x1="10" y1="35" x2="778.0" y2="35" style="stroke-width:1; stroke:grey; "  />
<polygon points="191,35 196,30 198,30 198,40 196,40 191,35 " style="fill:white; stroke-width:1; stroke:black; " description="&lt;b&gt;OCPFFIJE_01976&lt;/b&gt;&lt;br&gt;hypothetical protein&lt;br&gt;Location: 1911886 - 1912237" locus_tag="OCPFFIJE_01976" class="clusterblast-orf" id="dummy-4_q0_0_all"  />
<polygon points="198,35 203,30 206,30 206,40 203,40 198,35 " style="fill:white; stroke-width:1; stroke:black; " description="&lt;b&gt;OCPFFIJE_01977&lt;/b&gt;&lt;br&gt;hypothetical protein&lt;br&gt;Location: 1912233 - 1912641" locus_tag="OCPFFIJE_01977" class="clusterblast-orf" id="dummy-4_q1_0_all"  />
<polygon points="218,40 222,40 227,35 222,30 218,30 218,40 " style="fill:white; stroke-width:1; stroke:black; " description="&lt;b&gt;OCPFFIJE_01978&lt;/b&gt;&lt;br&gt;hypothetical protein&lt;br&gt;Location: 1913214 - 1913679" locus_tag="OCPFFIJE_01978" class="clusterblast-orf" id="dummy-4_q2_0_all"  />
<polygon points="227,40 239,40 244,35 239,30 227,30 227,40 " style="fill:white; stroke-width:1; stroke:black; " description="&lt;b&gt;OCPFFIJE_01979&lt;/b&gt;&lt;br&gt;ECF RNA polymerase sigma factor SigJ&lt;br&gt;Location: 1913665 - 1914550" locus_tag="OCPFFIJE_01979" class="clusterblast-orf" id="dummy-4_q3_0_all"  />
<polygon points="254,35 259,30 259,30 259,40 259,40 254,35 " style="fill:white; stroke-width:1; stroke:black; " description="&lt;b&gt;OCPFFIJE_01980&lt;/b&gt;&lt;br&gt;hypothetical protein&lt;br&gt;Location: 1915026 - 1915257" locus_tag="OCPFFIJE_01980" class="clusterblast-orf" id="dummy-4_q4_0_all"  />
<polygon points="260,40 270,40 275,35 270,30 260,30 260,40 " style="fill:white; stroke-width:1; stroke:black; " description="&lt;b&gt;OCPFFIJE_01981&lt;/b&gt;&lt;br&gt;hypothetical protein&lt;br&gt;Location: 1915343 - 1916093" locus_tag="OCPFFIJE_01981" class="clusterblast-orf" id="dummy-4_q5_0_all"  />
<polygon points="279,40 290,40 295,35 290,30 279,30 279,40 " style="fill:white; stroke-width:1; stroke:black; " description="&lt;b&gt;OCPFFIJE_01982&lt;/b&gt;&lt;br&gt;Phthiocerol synthesis polyketide synthase type I PpsC&lt;br&gt;Location: 1916280 - 1917099" locus_tag="OCPFFIJE_01982" class="clusterblast-orf" id="dummy-4_q6_0_all"  />
<polygon points="296,40 303,40 308,35 303,30 296,30 296,40 " style="fill:white; stroke-width:1; stroke:black; " description="&lt;b&gt;OCPFFIJE_01983&lt;/b&gt;&lt;br&gt;2-succinylbenzoate--CoA ligase&lt;br&gt;Location: 1917145 - 1917718" locus_tag="OCPFFIJE_01983" class="clusterblast-orf" id="dummy-4_q7_0_all"  />
<polygon points="309,40 315,40 320,35 315,30 309,30 309,40 " style="fill:white; stroke-width:1; stroke:black; " description="&lt;b&gt;OCPFFIJE_01984&lt;/b&gt;&lt;br&gt;hypothetical protein&lt;br&gt;Location: 1917805 - 1918333" locus_tag="OCPFFIJE_01984" class="clusterblast-orf" id="dummy-4_q8_0_all"  />
<polygon points="322,40 328,40 333,35 328,30 322,30 322,40 " style="fill:white; stroke-width:1; stroke:black; " description="&lt;b&gt;OCPFFIJE_01985&lt;/b&gt;&lt;br&gt;hypothetical protein&lt;br&gt;Location: 1918418 - 1919015" locus_tag="OCPFFIJE_01985" class="clusterblast-orf" id="dummy-4_q9_0_all"  />
<polygon points="335,40 343,40 348,35 343,30 335,30 335,40 " style="fill:white; stroke-width:1; stroke:black; " description="&lt;b&gt;OCPFFIJE_01986&lt;/b&gt;&lt;br&gt;Protein DipZ&lt;br&gt;Location: 1919068 - 1919755" locus_tag="OCPFFIJE_01986" class="clusterblast-orf" id="dummy-4_q10_0_all"  />
<polygon points="349,40 354,40 359,35 354,30 349,30 349,40 " style="fill:#d81515; stroke-width:1; stroke:black; " description="&lt;b&gt;OCPFFIJE_01987&lt;/b&gt;&lt;br&gt;Thiol-disulfide oxidoreductase ResA&lt;br&gt;Location: 1919769 - 1920288" locus_tag="OCPFFIJE_01987" class="clusterblast-orf" id="dummy-4_q11_0_all"  />
<polygon points="363,35 367,30 367,40 363,35 " style="fill:white; stroke-width:1; stroke:black; " description="&lt;b&gt;OCPFFIJE_01988&lt;/b&gt;&lt;br&gt;hypothetical protein&lt;br&gt;Location: 1920511 - 1920712" locus_tag="OCPFFIJE_01988" class="clusterblast-orf" id="dummy-4_q12_0_all"  />
<polygon points="371,40 373,40 378,35 373,30 371,30 371,40 " style="fill:white; stroke-width:1; stroke:black; " description="&lt;b&gt;OCPFFIJE_01989&lt;/b&gt;&lt;br&gt;hypothetical protein&lt;br&gt;Location: 1920912 - 1921260" locus_tag="OCPFFIJE_01989" class="clusterblast-orf" id="dummy-4_q13_0_all"  />
<polygon points="379,35 384,30 401,30 401,40 384,40 379,35 " style="fill:#4dd815; stroke-width:1; stroke:black; " description="&lt;b&gt;OCPFFIJE_01990&lt;/b&gt;&lt;br&gt;PqqA peptide cyclase&lt;br&gt;Location: 1921286 - 1922393" locus_tag="OCPFFIJE_01990" class="clusterblast-orf" id="dummy-4_q14_0_all"  />
<polygon points="401,35 406,30 406,30 406,40 406,40 401,35 " style="fill:#4dd815; stroke-width:1; stroke:black; " description="&lt;b&gt;OCPFFIJE_01991&lt;/b&gt;&lt;br&gt;Bifunctional coenzyme PQQ synthesis protein C/D&lt;br&gt;Location: 1922389 - 1922665" locus_tag="OCPFFIJE_01991" class="clusterblast-orf" id="dummy-4_q15_0_all"  />
<polygon points="406,35 411,30 421,30 421,40 411,40 406,35 " style="fill:#1585d8; stroke-width:1; stroke:black; " description="&lt;b&gt;OCPFFIJE_01992&lt;/b&gt;&lt;br&gt;Bifunctional coenzyme PQQ synthesis protein C/D&lt;br&gt;Location: 1922661 - 1923405" locus_tag="OCPFFIJE_01992" class="clusterblast-orf" id="dummy-4_q16_0_all"  />
<polygon points="421,35 426,30 440,30 440,40 426,40 421,35 " style="fill:#d815bc; stroke-width:1; stroke:black; " description="&lt;b&gt;OCPFFIJE_01993&lt;/b&gt;&lt;br&gt;Coenzyme PQQ synthesis protein B&lt;br&gt;Location: 1923401 - 1924352" locus_tag="OCPFFIJE_01993" class="clusterblast-orf" id="dummy-4_q17_0_all"  />
<polygon points="439,35 441,30 441,40 439,35 " style="fill:#d8bc15; stroke-width:1; stroke:black; " description="&lt;b&gt;OCPFFIJE_01994&lt;/b&gt;&lt;br&gt;Coenzyme PQQ synthesis protein A&lt;br&gt;Location: 1924296 - 1924410" locus_tag="OCPFFIJE_01994" class="clusterblast-orf" id="dummy-4_q18_0_all"  />
<polygon points="443,35 448,30 454,30 454,40 448,40 443,35 " style="fill:white; stroke-width:1; stroke:black; " description="&lt;b&gt;OCPFFIJE_01995&lt;/b&gt;&lt;br&gt;Protein YceI&lt;br&gt;Location: 1924496 - 1925081" locus_tag="OCPFFIJE_01995" class="clusterblast-orf" id="dummy-4_q19_0_all"  />
<polygon points="456,35 461,30 496,30 496,40 461,40 456,35 " style="fill:white; stroke-width:1; stroke:black; " description="&lt;b&gt;OCPFFIJE_01996&lt;/b&gt;&lt;br&gt;Glycerol dehydrogenase large subunit&lt;br&gt;Location: 1925135 - 1927187" locus_tag="OCPFFIJE_01996" class="clusterblast-orf" id="dummy-4_q20_0_all"  />
<polygon points="496,35 501,30 506,30 506,40 501,40 496,35 " style="fill:white; stroke-width:1; stroke:black; " description="&lt;b&gt;OCPFFIJE_01997&lt;/b&gt;&lt;br&gt;hypothetical protein&lt;br&gt;Location: 1927189 - 1927678" locus_tag="OCPFFIJE_01997" class="clusterblast-orf" id="dummy-4_q21_0_all"  />
<polygon points="507,35 510,30 510,40 507,35 " style="fill:white; stroke-width:1; stroke:black; " description="&lt;b&gt;OCPFFIJE_01998&lt;/b&gt;&lt;br&gt;hypothetical protein&lt;br&gt;Location: 1927702 - 1927846" locus_tag="OCPFFIJE_01998" class="clusterblast-orf" id="dummy-4_q22_0_all"  />
<polygon points="513,35 518,30 536,30 536,40 518,40 513,35 " style="fill:#15d885; stroke-width:1; stroke:black; " description="&lt;b&gt;OCPFFIJE_01999&lt;/b&gt;&lt;br&gt;hypothetical protein&lt;br&gt;Location: 1928021 - 1929194" locus_tag="OCPFFIJE_01999" class="clusterblast-orf" id="dummy-4_q23_0_all"  />
<polygon points="541,35 546,30 565,30 565,40 546,40 541,35 " style="fill:#4d15d8; stroke-width:1; stroke:black; " description="&lt;b&gt;OCPFFIJE_02000&lt;/b&gt;&lt;br&gt;IS256 family transposase ISPye43&lt;br&gt;Location: 1929429 - 1930644" locus_tag="OCPFFIJE_02000" class="clusterblast-orf" id="dummy-4_q24_0_all"  />
<polygon points="583,35 588,30 588,30 588,40 588,40 583,35 " style="fill:white; stroke-width:1; stroke:black; " description="&lt;b&gt;OCPFFIJE_02001&lt;/b&gt;&lt;br&gt;hypothetical protein&lt;br&gt;Location: 1931542 - 1931782" locus_tag="OCPFFIJE_02001" class="clusterblast-orf" id="dummy-4_q25_0_all"  />
</g>
<g label="NC_010682" description="NC_010682 (299562-340780): Ralstonia pickettii 12J chromosome 1, complete seq... (12% of genes show similarity), arylpolyene" class="clusterblast-cluster"  >
<text x="5" y="70" class="clusterblast-acc"  >
<a xlink:href="https://antismash-db.secondarymetabolites.org/area.html?record=NC_010682&amp;start=299562&amp;end=340780" target="_blank">NC_010682 (299562-340780)</a>: Ralstonia pickettii 12J chromosome 1, complete seq... (12% of genes show similarity), arylpolyene</text>
<line x1="10" y1="85" x2="778.0" y2="85" style="stroke-width:1; stroke:grey; "  />
</g>
<g id="a4_000"  >
<polygon points="0,85 5,80 10,80 10,90 5,90 0,85 " style="fill:white; stroke-width:1; stroke:black; " description="&lt;b&gt;RPIC_RS01575&lt;/b&gt;&lt;br&gt;hypothetical protein&lt;br&gt;Location: 339481 - 338945" locus_tag="RPIC_RS01575" class="clusterblast-orf" id="dummy-4_h4_10_0"  />
</g>
<g id="a4_001"  >
<polygon points="11,85 16,80 25,80 25,90 16,90 11,85 " style="fill:white; stroke-width:1; stroke:black; " description="&lt;b&gt;RPIC_RS01570&lt;/b&gt;&lt;br&gt;C39 family peptidase&lt;br&gt;Location: 338899 - 338216" locus_tag="RPIC_RS01570" class="clusterblast-orf" id="dummy-4_h4_10_1"  />
</g>
<g id="a4_002"  >
<polygon points="25,85 30,80 34,80 34,90 30,90 25,85 " style="fill:white; stroke-width:1; stroke:black; " description="&lt;b&gt;RPIC_RS01565&lt;/b&gt;&lt;br&gt;hypothetical protein&lt;br&gt;Location: 338199 - 337765" locus_tag="RPIC_RS01565" class="clusterblast-orf" id="dummy-4_h4_10_2"  />
</g>
<g id="a4_003"  >
<polygon points="36,85 41,80 62,80 62,90 41,90 36,85 " style="fill:white; stroke-width:1; stroke:black; " description="&lt;b&gt;RPIC_RS01560&lt;/b&gt;&lt;br&gt;hypothetical protein&lt;br&gt;Location: 337640 - 336366" locus_tag="RPIC_RS01560" class="clusterblast-orf" id="dummy-4_h4_10_3"  />
</g>
<g id="a4_004"  >
<polygon points="76,85 81,80 110,80 110,90 81,90 76,85 " style="fill:white; stroke-width:1; stroke:black; " description="&lt;b&gt;RPIC_RS01555&lt;/b&gt;&lt;br&gt;AMP-binding protein&lt;br&gt;Location: 335664 - 333949" locus_tag="RPIC_RS01555" class="clusterblast-orf" id="dummy-4_h4_10_4"  />
</g>
<g id="a4_005"  >
<polygon points="114,90 120,90 125,85 120,80 114,80 114,90 " style="fill:white; stroke-width:1; stroke:black; " description="&lt;b&gt;RPIC_RS01550&lt;/b&gt;&lt;br&gt;gluconokinase&lt;br&gt;Location: 333716 - 333207" locus_tag="RPIC_RS01550" class="clusterblast-orf" id="dummy-4_h4_10_5"  />
</g>
<g id="a4_006"  >
<polygon points="125,85 130,80 141,80 141,90 130,90 125,85 " style="fill:white; stroke-width:1; stroke:black; " description="&lt;b&gt;RPIC_RS01545&lt;/b&gt;&lt;br&gt;hypothetical protein&lt;br&gt;Location: 333187 - 332393" locus_tag="RPIC_RS01545" class="clusterblast-orf" id="dummy-4_h4_10_6"  />
</g>
<g id="a4_007"  >
<polygon points="142,85 147,80 161,80 161,90 147,90 142,85 " style="fill:white; stroke-width:1; stroke:black; " description="&lt;b&gt;RPIC_RS01540&lt;/b&gt;&lt;br&gt;alpha/beta hydrolase&lt;br&gt;Location: 332335 - 331364" locus_tag="RPIC_RS01540" class="clusterblast-orf" id="dummy-4_h4_10_7"  />
</g>
<g id="a4_008"  >
<polygon points="168,90 172,90 177,85 172,80 168,80 168,90 " style="fill:white; stroke-width:1; stroke:black; " description="&lt;b&gt;RPIC_RS01535&lt;/b&gt;&lt;br&gt;YeeE/YedE family protein&lt;br&gt;Location: 331031 - 330597" locus_tag="RPIC_RS01535" class="clusterblast-orf" id="dummy-4_h4_10_8"  />
</g>
<g id="a4_009"  >
<polygon points="177,90 180,90 185,85 180,80 177,80 177,90 " style="fill:white; stroke-width:1; stroke:black; " description="&lt;b&gt;RPIC_RS01530&lt;/b&gt;&lt;br&gt;YeeE/YedE family protein&lt;br&gt;Location: 330595 - 330182" locus_tag="RPIC_RS01530" class="clusterblast-orf" id="dummy-4_h4_10_9"  />
</g>
<g id="a4_0010"  >
<polygon points="186,90 188,85 186,80 186,90 " style="fill:white; stroke-width:1; stroke:black; " description="&lt;b&gt;RPIC_RS01525&lt;/b&gt;&lt;br&gt;helix-turn-helix transcriptional regulator&lt;br&gt;Location: 330131 - 330024" locus_tag="RPIC_RS01525" class="clusterblast-orf" id="dummy-4_h4_10_10"  />
</g>
<g id="a4_0011"  >
<polygon points="188,90 191,90 196,85 191,80 188,80 188,90 " style="fill:white; stroke-width:1; stroke:black; " description="&lt;b&gt;RPIC_RS01520&lt;/b&gt;&lt;br&gt;hypothetical protein&lt;br&gt;Location: 330014 - 329625" locus_tag="RPIC_RS01520" class="clusterblast-orf" id="dummy-4_h4_10_11"  />
</g>
<g id="a4_0012"  >
<polygon points="196,85 201,80 212,80 212,90 201,90 196,85 " style="fill:white; stroke-width:1; stroke:black; " description="&lt;b&gt;RPIC_RS01515&lt;/b&gt;&lt;br&gt;glycosyltransferase family 2 protein&lt;br&gt;Location: 329608 - 328838" locus_tag="RPIC_RS01515" class="clusterblast-orf" id="dummy-4_h4_10_12"  />
</g>
<g id="a4_0013"  >
<polygon points="213,85 218,80 218,80 218,90 218,90 213,85 " style="fill:white; stroke-width:1; stroke:black; " description="&lt;b&gt;RPIC_RS01510&lt;/b&gt;&lt;br&gt;acyl carrier protein&lt;br&gt;Location: 328783 - 328523" locus_tag="RPIC_RS01510" class="clusterblast-orf" id="dummy-4_h4_10_13"  />
</g>
<g id="a4_0014"  >
<polygon points="226,90 235,90 240,85 235,80 226,80 226,90 " style="fill:white; stroke-width:1; stroke:black; " description="&lt;b&gt;RPIC_RS01505&lt;/b&gt;&lt;br&gt;membrane protein&lt;br&gt;Location: 328111 - 327437" locus_tag="RPIC_RS01505" class="clusterblast-orf" id="dummy-4_h4_10_14"  />
</g>
<g id="a4_0015"  >
<polygon points="240,90 269,90 274,85 269,80 240,80 240,90 " style="fill:white; stroke-width:1; stroke:black; " description="&lt;b&gt;RPIC_RS01500&lt;/b&gt;&lt;br&gt;AMP-binding protein&lt;br&gt;Location: 327410 - 325713" locus_tag="RPIC_RS01500" class="clusterblast-orf" id="dummy-4_h4_10_15"  />
</g>
<g id="a4_0016"  >
<polygon points="274,90 288,90 293,85 288,80 274,80 274,90 " style="fill:white; stroke-width:1; stroke:black; " description="&lt;b&gt;RPIC_RS01495&lt;/b&gt;&lt;br&gt;acyl-CoA synthetase&lt;br&gt;Location: 325716 - 324754" locus_tag="RPIC_RS01495" class="clusterblast-orf" id="dummy-4_h4_10_16"  />
</g>
<g id="a4_0017"  >
<polygon points="293,90 300,90 305,85 300,80 293,80 293,90 " style="fill:white; stroke-width:1; stroke:black; " description="&lt;b&gt;RPIC_RS01490&lt;/b&gt;&lt;br&gt;outer membrane lipoprotein carrier protein LolA&lt;br&gt;Location: 324757 - 324161" locus_tag="RPIC_RS01490" class="clusterblast-orf" id="dummy-4_h4_10_17"  />
</g>
<g id="a4_0018"  >
<polygon points="305,90 349,90 354,85 349,80 305,80 305,90 " style="fill:white; stroke-width:1; stroke:black; " description="&lt;b&gt;RPIC_RS01485&lt;/b&gt;&lt;br&gt;MMPL family transporter&lt;br&gt;Location: 324147 - 321715" locus_tag="RPIC_RS01485" class="clusterblast-orf" id="dummy-4_h4_10_18"  />
</g>
<g id="a4_0019"  >
<polygon points="354,90 366,90 371,85 366,80 354,80 354,90 " style="fill:white; stroke-width:1; stroke:black; " description="&lt;b&gt;RPIC_RS01480&lt;/b&gt;&lt;br&gt;polysaccharide deacetylase family protein&lt;br&gt;Location: 321718 - 320855" locus_tag="RPIC_RS01480" class="clusterblast-orf" id="dummy-4_h4_10_19"  />
</g>
<g id="a4_0020"  >
<polygon points="372,90 392,90 397,85 392,80 372,80 372,90 " style="fill:white; stroke-width:1; stroke:black; " description="&lt;b&gt;RPIC_RS01475&lt;/b&gt;&lt;br&gt;beta-ketoacyl-[acyl-carrier-protein] synthase family protein&lt;br&gt;Location: 320780 - 319563" locus_tag="RPIC_RS01475" class="clusterblast-orf" id="dummy-4_h4_10_20"  />
</g>
<g id="a4_0021"  >
<polygon points="397,90 408,90 413,85 408,80 397,80 397,90 " style="fill:white; stroke-width:1; stroke:black; " description="&lt;b&gt;RPIC_RS01470&lt;/b&gt;&lt;br&gt;beta-ketoacyl synthase chain length factor&lt;br&gt;Location: 319566 - 318763" locus_tag="RPIC_RS01470" class="clusterblast-orf" id="dummy-4_h4_10_21"  />
</g>
<g id="a4_0022"  >
<polygon points="413,90 417,90 422,85 417,80 413,80 413,90 " style="fill:white; stroke-width:1; stroke:black; " description="&lt;b&gt;RPIC_RS01465&lt;/b&gt;&lt;br&gt;hotdog family protein&lt;br&gt;Location: 318766 - 318305" locus_tag="RPIC_RS01465" class="clusterblast-orf" id="dummy-4_h4_10_22"  />
</g>
<g id="a4_0023"  >
<polygon points="422,90 422,90 427,85 422,80 422,80 422,90 " style="fill:white; stroke-width:1; stroke:black; " description="&lt;b&gt;RPIC_RS01460&lt;/b&gt;&lt;br&gt;hypothetical protein&lt;br&gt;Location: 318280 - 318020" locus_tag="RPIC_RS01460" class="clusterblast-orf" id="dummy-4_h4_10_23"  />
</g>
<g id="a4_0024"  >
<polygon points="435,85 440,80 463,80 463,90 440,90 435,85 " style="fill:#d81515; stroke-width:1; stroke:black; " description="&lt;b&gt;RPIC_RS01455&lt;/b&gt;&lt;br&gt;cytochrome c biogenesis protein DipZ&lt;br&gt;Location: 317614 - 316214&lt;br&gt;&lt;br&gt;&lt;b&gt;BlastP hit with OCPFFIJE_01987&lt;/b&gt;&lt;br&gt;Percentage identity: 41&lt;br&gt;Percentage coverage: 78&lt;br&gt;BLAST bit score: 139&lt;br&gt;E-value: 1.39e-37" locus_tag="RPIC_RS01455" class="clusterblast-orf" id="dummy-4_h4_10_24"  />
</g>
<g id="a4_0025"  >
<polygon points="464,85 469,80 471,80 471,90 469,90 464,85 " style="fill:white; stroke-width:1; stroke:black; " description="&lt;b&gt;RPIC_RS01450&lt;/b&gt;&lt;br&gt;pentapeptide MXKDX repeat protein&lt;br&gt;Location: 316168 - 315839" locus_tag="RPIC_RS01450" class="clusterblast-orf" id="dummy-4_h4_10_25"  />
</g>
<g id="a4_0026"  >
<polygon points="473,85 478,80 489,80 489,90 478,90 473,85 " style="fill:white; stroke-width:1; stroke:black; " description="&lt;b&gt;RPIC_RS01445&lt;/b&gt;&lt;br&gt;molybdopterin-dependent oxidoreductase&lt;br&gt;Location: 315718 - 314927" locus_tag="RPIC_RS01445" class="clusterblast-orf" id="dummy-4_h4_10_26"  />
</g>
<g id="a4_0027"  >
<polygon points="489,85 494,80 503,80 503,90 494,90 489,85 " style="fill:white; stroke-width:1; stroke:black; " description="&lt;b&gt;RPIC_RS01440&lt;/b&gt;&lt;br&gt;cytochrome b/b6 domain-containing protein&lt;br&gt;Location: 314918 - 314244" locus_tag="RPIC_RS01440" class="clusterblast-orf" id="dummy-4_h4_10_27"  />
</g>
<g id="a4_0028"  >
<polygon points="505,90 515,90 520,85 515,80 505,80 505,90 " style="fill:white; stroke-width:1; stroke:black; " description="&lt;b&gt;RPIC_RS01435&lt;/b&gt;&lt;br&gt;response regulator transcription factor&lt;br&gt;Location: 314111 - 313383" locus_tag="RPIC_RS01435" class="clusterblast-orf" id="dummy-4_h4_10_28"  />
</g>
<g id="a4_0029"  >
<polygon points="520,90 545,90 550,85 545,80 520,80 520,90 " style="fill:white; stroke-width:1; stroke:black; " description="&lt;b&gt;RPIC_RS01430&lt;/b&gt;&lt;br&gt;HAMP domain-containing histidine kinase&lt;br&gt;Location: 313386 - 311890" locus_tag="RPIC_RS01430" class="clusterblast-orf" id="dummy-4_h4_10_29"  />
</g>
<g id="a4_0030"  >
<polygon points="555,85 560,80 578,80 578,90 560,90 555,85 " style="fill:#4dd815; stroke-width:1; stroke:black; " description="&lt;b&gt;RPIC_RS01425&lt;/b&gt;&lt;br&gt;pyrroloquinoline quinone biosynthesis protein PqqE&lt;br&gt;Location: 311626 - 310466&lt;br&gt;&lt;br&gt;&lt;b&gt;BlastP hit with OCPFFIJE_01990&lt;/b&gt;&lt;br&gt;Percentage identity: 51&lt;br&gt;Percentage coverage: 93&lt;br&gt;BLAST bit score: 345&lt;br&gt;E-value: 1.65e-115" locus_tag="RPIC_RS01425" class="clusterblast-orf" id="dummy-4_h4_10_30"  />
</g>
<g id="a4_0031"  >
<polygon points="578,85 583,80 583,80 583,90 583,90 578,85 " style="fill:white; stroke-width:1; stroke:black; " description="&lt;b&gt;RPIC_RS01420&lt;/b&gt;&lt;br&gt;pyrroloquinoline quinone biosynthesis peptide chaperone PqqD&lt;br&gt;Location: 310469 - 310209" locus_tag="RPIC_RS01420" class="clusterblast-orf" id="dummy-4_h4_10_31"  />
</g>
<g id="a4_0032"  >
<polygon points="583,85 588,80 598,80 598,90 588,90 583,85 " style="fill:#1585d8; stroke-width:1; stroke:black; " description="&lt;b&gt;RPIC_RS01415&lt;/b&gt;&lt;br&gt;pyrroloquinoline-quinone synthase PqqC&lt;br&gt;Location: 310198 - 309485&lt;br&gt;&lt;br&gt;&lt;b&gt;BlastP hit with OCPFFIJE_01992&lt;/b&gt;&lt;br&gt;Percentage identity: 47&lt;br&gt;Percentage coverage: 89&lt;br&gt;BLAST bit score: 204&lt;br&gt;E-value: 4.11e-64" locus_tag="RPIC_RS01415" class="clusterblast-orf" id="dummy-4_h4_10_32"  />
</g>
<g id="a4_0033"  >
<polygon points="598,85 603,80 616,80 616,90 603,90 598,85 " style="fill:#d815bc; stroke-width:1; stroke:black; " description="&lt;b&gt;RPIC_RS01410&lt;/b&gt;&lt;br&gt;pyrroloquinoline quinone biosynthesis protein PqqB&lt;br&gt;Location: 309488 - 308553&lt;br&gt;&lt;br&gt;&lt;b&gt;BlastP hit with OCPFFIJE_01993&lt;/b&gt;&lt;br&gt;Percentage identity: 38&lt;br&gt;Percentage coverage: 98&lt;br&gt;BLAST bit score: 184&lt;br&gt;E-value: 3.18e-54" locus_tag="RPIC_RS01410" class="clusterblast-orf" id="dummy-4_h4_10_33"  />
</g>
<g id="a4_0034"  >
<polygon points="618,85 623,80 624,80 624,90 623,90 618,85 " style="fill:white; stroke-width:1; stroke:black; " description="&lt;b&gt;RPIC_RS01405&lt;/b&gt;&lt;br&gt;cytochrome c&lt;br&gt;Location: 308462 - 308139" locus_tag="RPIC_RS01405" class="clusterblast-orf" id="dummy-4_h4_10_34"  />
</g>
<g id="a4_0035"  >
<polygon points="624,85 629,80 649,80 649,90 629,90 624,85 " style="fill:white; stroke-width:1; stroke:black; " description="&lt;b&gt;RPIC_RS01400&lt;/b&gt;&lt;br&gt;PQQ-dependent sugar dehydrogenase&lt;br&gt;Location: 308152 - 306893" locus_tag="RPIC_RS01400" class="clusterblast-orf" id="dummy-4_h4_10_35"  />
</g>
<g id="a4_0036"  >
<polygon points="653,85 655,80 655,90 653,85 " style="fill:white; stroke-width:1; stroke:black; " description="&lt;b&gt;RPIC_RS25025&lt;/b&gt;&lt;br&gt;pyrroloquinoline quinone precursor peptide PqqA&lt;br&gt;Location: 306697 - 306623" locus_tag="RPIC_RS25025" class="clusterblast-orf" id="dummy-4_h4_10_36"  />
</g>
<g id="a4_0037"  >
<polygon points="664,90 700,90 705,85 700,80 664,80 664,90 " style="fill:white; stroke-width:1; stroke:black; " description="&lt;b&gt;RPIC_RS01395&lt;/b&gt;&lt;br&gt;sigma-54-dependent Fis family transcriptional regulator&lt;br&gt;Location: 306174 - 304111" locus_tag="RPIC_RS01395" class="clusterblast-orf" id="dummy-4_h4_10_37"  />
</g>
<g id="a4_0038"  >
<polygon points="716,85 721,80 780,80 780,90 721,90 716,85 " style="fill:#15d885; stroke-width:1; stroke:black; " description="&lt;b&gt;RPIC_RS01390&lt;/b&gt;&lt;br&gt;EAL domain-containing protein&lt;br&gt;Location: 303531 - 300361&lt;br&gt;&lt;br&gt;&lt;b&gt;BlastP hit with OCPFFIJE_01999&lt;/b&gt;&lt;br&gt;Percentage identity: 37&lt;br&gt;Percentage coverage: 42&lt;br&gt;BLAST bit score: 82&lt;br&gt;E-value: 8.16e-15" locus_tag="RPIC_RS01390" class="clusterblast-orf" id="dummy-4_h4_10_38"  />
</g>
</svg>
