<svg xmlns="http://www.w3.org/2000/svg" xmlns:xlink="http://www.w3.org/1999/xlink" version="1.1" x="0" y="0" height="50" width="800" viewBox="0 0 800 50" preserveAspectRatio="none"  >
<g label="Query sequence" class="clusterblast-cluster"  >
<text x="5" y="20" class="clusterblast-acc"  >
Query sequence</text>
<line x1="10" y1="35" x2="778.0" y2="35" style="stroke-width:1; stroke:grey; "  />
<polygon points="0,35 5,30 14,30 14,40 5,40 0,35 " style="fill:white; stroke-width:1; stroke:black; " description="&lt;b&gt;OCPFFIJE_01976&lt;/b&gt;&lt;br&gt;hypothetical protein&lt;br&gt;Location: 1911886 - 1912237" locus_tag="OCPFFIJE_01976" class="clusterblast-orf" id="subclusterblast-4_q0_0_all"  />
<polygon points="13,35 18,30 29,30 29,40 18,40 13,35 " style="fill:white; stroke-width:1; stroke:black; " description="&lt;b&gt;OCPFFIJE_01977&lt;/b&gt;&lt;br&gt;hypothetical protein&lt;br&gt;Location: 1912233 - 1912641" locus_tag="OCPFFIJE_01977" class="clusterblast-orf" id="subclusterblast-4_q1_0_all"  />
<polygon points="52,40 65,40 70,35 65,30 52,30 52,40 " style="fill:white; stroke-width:1; stroke:black; " description="&lt;b&gt;OCPFFIJE_01978&lt;/b&gt;&lt;br&gt;hypothetical protein&lt;br&gt;Location: 1913214 - 1913679" locus_tag="OCPFFIJE_01978" class="clusterblast-orf" id="subclusterblast-4_q2_0_all"  />
<polygon points="70,40 99,40 104,35 99,30 70,30 70,40 " style="fill:white; stroke-width:1; stroke:black; " description="&lt;b&gt;OCPFFIJE_01979&lt;/b&gt;&lt;br&gt;ECF RNA polymerase sigma factor SigJ&lt;br&gt;Location: 1913665 - 1914550" locus_tag="OCPFFIJE_01979" class="clusterblast-orf" id="subclusterblast-4_q3_0_all"  />
<polygon points="123,35 128,30 132,30 132,40 128,40 123,35 " style="fill:white; stroke-width:1; stroke:black; " description="&lt;b&gt;OCPFFIJE_01980&lt;/b&gt;&lt;br&gt;hypothetical protein&lt;br&gt;Location: 1915026 - 1915257" locus_tag="OCPFFIJE_01980" class="clusterblast-orf" id="subclusterblast-4_q4_0_all"  />
<polygon points="135,40 160,40 165,35 160,30 135,30 135,40 " style="fill:white; stroke-width:1; stroke:black; " description="&lt;b&gt;OCPFFIJE_01981&lt;/b&gt;&lt;br&gt;hypothetical protein&lt;br&gt;Location: 1915343 - 1916093" locus_tag="OCPFFIJE_01981" class="clusterblast-orf" id="subclusterblast-4_q5_0_all"  />
<polygon points="172,40 199,40 204,35 199,30 172,30 172,40 " style="fill:white; stroke-width:1; stroke:black; " description="&lt;b&gt;OCPFFIJE_01982&lt;/b&gt;&lt;br&gt;Phthiocerol synthesis polyketide synthase type I PpsC&lt;br&gt;Location: 1916280 - 1917099" locus_tag="OCPFFIJE_01982" class="clusterblast-orf" id="subclusterblast-4_q6_0_all"  />
<polygon points="206,40 224,40 229,35 224,30 206,30 206,40 " style="fill:white; stroke-width:1; stroke:black; " description="&lt;b&gt;OCPFFIJE_01983&lt;/b&gt;&lt;br&gt;2-succinylbenzoate--CoA ligase&lt;br&gt;Location: 1917145 - 1917718" locus_tag="OCPFFIJE_01983" class="clusterblast-orf" id="subclusterblast-4_q7_0_all"  />
<polygon points="232,40 248,40 253,35 248,30 232,30 232,40 " style="fill:white; stroke-width:1; stroke:black; " description="&lt;b&gt;OCPFFIJE_01984&lt;/b&gt;&lt;br&gt;hypothetical protein&lt;br&gt;Location: 1917805 - 1918333" locus_tag="OCPFFIJE_01984" class="clusterblast-orf" id="subclusterblast-4_q8_0_all"  />
<polygon points="256,40 274,40 279,35 274,30 256,30 256,40 " style="fill:white; stroke-width:1; stroke:black; " description="&lt;b&gt;OCPFFIJE_01985&lt;/b&gt;&lt;br&gt;hypothetical protein&lt;br&gt;Location: 1918418 - 1919015" locus_tag="OCPFFIJE_01985" class="clusterblast-orf" id="subclusterblast-4_q9_0_all"  />
<polygon points="281,40 303,40 308,35 303,30 281,30 281,40 " style="fill:white; stroke-width:1; stroke:black; " description="&lt;b&gt;OCPFFIJE_01986&lt;/b&gt;&lt;br&gt;Protein DipZ&lt;br&gt;Location: 1919068 - 1919755" locus_tag="OCPFFIJE_01986" class="clusterblast-orf" id="subclusterblast-4_q10_0_all"  />
<polygon points="309,40 324,40 329,35 324,30 309,30 309,40 " style="fill:white; stroke-width:1; stroke:black; " description="&lt;b&gt;OCPFFIJE_01987&lt;/b&gt;&lt;br&gt;Thiol-disulfide oxidoreductase ResA&lt;br&gt;Location: 1919769 - 1920288" locus_tag="OCPFFIJE_01987" class="clusterblast-orf" id="subclusterblast-4_q11_0_all"  />
<polygon points="338,35 343,30 346,30 346,40 343,40 338,35 " style="fill:white; stroke-width:1; stroke:black; " description="&lt;b&gt;OCPFFIJE_01988&lt;/b&gt;&lt;br&gt;hypothetical protein&lt;br&gt;Location: 1920511 - 1920712" locus_tag="OCPFFIJE_01988" class="clusterblast-orf" id="subclusterblast-4_q12_0_all"  />
<polygon points="354,40 362,40 367,35 362,30 354,30 354,40 " style="fill:white; stroke-width:1; stroke:black; " description="&lt;b&gt;OCPFFIJE_01989&lt;/b&gt;&lt;br&gt;hypothetical protein&lt;br&gt;Location: 1920912 - 1921260" locus_tag="OCPFFIJE_01989" class="clusterblast-orf" id="subclusterblast-4_q13_0_all"  />
<polygon points="368,35 373,30 412,30 412,40 373,40 368,35 " style="fill:white; stroke-width:1; stroke:black; " description="&lt;b&gt;OCPFFIJE_01990&lt;/b&gt;&lt;br&gt;PqqA peptide cyclase&lt;br&gt;Location: 1921286 - 1922393" locus_tag="OCPFFIJE_01990" class="clusterblast-orf" id="subclusterblast-4_q14_0_all"  />
<polygon points="412,35 417,30 422,30 422,40 417,40 412,35 " style="fill:white; stroke-width:1; stroke:black; " description="&lt;b&gt;OCPFFIJE_01991&lt;/b&gt;&lt;br&gt;Bifunctional coenzyme PQQ synthesis protein C/D&lt;br&gt;Location: 1922389 - 1922665" locus_tag="OCPFFIJE_01991" class="clusterblast-orf" id="subclusterblast-4_q15_0_all"  />
<polygon points="422,35 427,30 451,30 451,40 427,40 422,35 " style="fill:white; stroke-width:1; stroke:black; " description="&lt;b&gt;OCPFFIJE_01992&lt;/b&gt;&lt;br&gt;Bifunctional coenzyme PQQ synthesis protein C/D&lt;br&gt;Location: 1922661 - 1923405" locus_tag="OCPFFIJE_01992" class="clusterblast-orf" id="subclusterblast-4_q16_0_all"  />
<polygon points="451,35 456,30 489,30 489,40 456,40 451,35 " style="fill:white; stroke-width:1; stroke:black; " description="&lt;b&gt;OCPFFIJE_01993&lt;/b&gt;&lt;br&gt;Coenzyme PQQ synthesis protein B&lt;br&gt;Location: 1923401 - 1924352" locus_tag="OCPFFIJE_01993" class="clusterblast-orf" id="subclusterblast-4_q17_0_all"  />
<polygon points="486,35 491,30 491,30 491,40 491,40 486,35 " style="fill:white; stroke-width:1; stroke:black; " description="&lt;b&gt;OCPFFIJE_01994&lt;/b&gt;&lt;br&gt;Coenzyme PQQ synthesis protein A&lt;br&gt;Location: 1924296 - 1924410" locus_tag="OCPFFIJE_01994" class="clusterblast-orf" id="subclusterblast-4_q18_0_all"  />
<polygon points="494,35 499,30 517,30 517,40 499,40 494,35 " style="fill:white; stroke-width:1; stroke:black; " description="&lt;b&gt;OCPFFIJE_01995&lt;/b&gt;&lt;br&gt;Protein YceI&lt;br&gt;Location: 1924496 - 1925081" locus_tag="OCPFFIJE_01995" class="clusterblast-orf" id="subclusterblast-4_q19_0_all"  />
<polygon points="519,35 524,30 600,30 600,40 524,40 519,35 " style="fill:white; stroke-width:1; stroke:black; " description="&lt;b&gt;OCPFFIJE_01996&lt;/b&gt;&lt;br&gt;Glycerol dehydrogenase large subunit&lt;br&gt;Location: 1925135 - 1927187" locus_tag="OCPFFIJE_01996" class="clusterblast-orf" id="subclusterblast-4_q20_0_all"  />
<polygon points="600,35 605,30 619,30 619,40 605,40 600,35 " style="fill:white; stroke-width:1; stroke:black; " description="&lt;b&gt;OCPFFIJE_01997&lt;/b&gt;&lt;br&gt;hypothetical protein&lt;br&gt;Location: 1927189 - 1927678" locus_tag="OCPFFIJE_01997" class="clusterblast-orf" id="subclusterblast-4_q21_0_all"  />
<polygon points="620,35 625,30 626,30 626,40 625,40 620,35 " style="fill:white; stroke-width:1; stroke:black; " description="&lt;b&gt;OCPFFIJE_01998&lt;/b&gt;&lt;br&gt;hypothetical protein&lt;br&gt;Location: 1927702 - 1927846" locus_tag="OCPFFIJE_01998" class="clusterblast-orf" id="subclusterblast-4_q22_0_all"  />
<polygon points="632,35 637,30 678,30 678,40 637,40 632,35 " style="fill:white; stroke-width:1; stroke:black; " description="&lt;b&gt;OCPFFIJE_01999&lt;/b&gt;&lt;br&gt;hypothetical protein&lt;br&gt;Location: 1928021 - 1929194" locus_tag="OCPFFIJE_01999" class="clusterblast-orf" id="subclusterblast-4_q23_0_all"  />
<polygon points="688,35 693,30 735,30 735,40 693,40 688,35 " style="fill:white; stroke-width:1; stroke:black; " description="&lt;b&gt;OCPFFIJE_02000&lt;/b&gt;&lt;br&gt;IS256 family transposase ISPye43&lt;br&gt;Location: 1929429 - 1930644" locus_tag="OCPFFIJE_02000" class="clusterblast-orf" id="subclusterblast-4_q24_0_all"  />
<polygon points="770,35 775,30 780,30 780,40 775,40 770,35 " style="fill:white; stroke-width:1; stroke:black; " description="&lt;b&gt;OCPFFIJE_02001&lt;/b&gt;&lt;br&gt;hypothetical protein&lt;br&gt;Location: 1931542 - 1931782" locus_tag="OCPFFIJE_02001" class="clusterblast-orf" id="subclusterblast-4_q25_0_all"  />
</g>
</svg>
