<svg version="1.1" baseProfile="full" xmlns="http://www.w3.org/2000/svg" width="1748.1" height="80">
	<g>
		<line x1="10" y1="40.0" x2="1738.1" y2="40.0" style="stroke:rgb(70,70,70); stroke-width:3 "/>
		<g>
			<title>tgt (OJOGLHAG_03247)
Queuine tRNA-ribosyltransferase</title>
			<polygon class="tgt (OJOGLHAG_03247)
Queuine tRNA-ribosyltransferase" points="17,25 24,25 24,10 54,40 24,70 24,55 17,55" fill="rgb(255,255,255)" fill-opacity="1.0" stroke="rgb(0,0,0)" stroke-width="2"  />
			<g>
				<title>TGT (PF01702)
"Queuine tRNA-ribosyltransferase"</title>
				<polygon class="PF01702" points="18,28 38,28 50,40 38,52 18,52" stroke-linejoin="round" width="35" height="24" fill="rgb(61,158,187)" stroke="rgb(48,126,149)" stroke-width="1" opacity="0.75" />
			</g>
		</g>
		<g>
			<title>psd (OJOGLHAG_03248)
Phosphatidylserine decarboxylase proenzyme</title>
			<polygon class="psd (OJOGLHAG_03248)
Phosphatidylserine decarboxylase proenzyme" points="55,10 78,40 55,70" fill="rgb(255,255,255)" fill-opacity="1.0" stroke="rgb(0,0,0)" stroke-width="2"  />
			<g>
				<title>PS_Dcarbxylase (PF02666)
"Phosphatidylserine decarboxylase"</title>
				<polygon class="PF02666" points="59,28 65,28 74,40 65,52 59,52" stroke-linejoin="round" width="17" height="24" fill="rgb(101,220,65)" stroke="rgb(80,176,52)" stroke-width="1" opacity="0.75" />
			</g>
		</g>
		<g>
			<title> (OJOGLHAG_03249)
hypothetical protein</title>
			<polygon class=" (OJOGLHAG_03249)
hypothetical protein" points="78,10 102,40 78,70" fill="rgb(255,255,255)" fill-opacity="1.0" stroke="rgb(0,0,0)" stroke-width="2"  />
			<g>
				<title>CDP-OH_P_transf (PF01066)
"CDP-alcohol phosphatidyltransferase"</title>
				<rect class="PF01066" x="79" y="28" stroke-linejoin="round" width="6" height="24" fill="rgb(100,201,161)" stroke="rgb(80,160,128)" stroke-width="1" opacity="0.75" />
			</g>
		</g>
		<g>
			<title>ubiB_2 (OJOGLHAG_03251)
protein kinase UbiB</title>
			<polygon class="ubiB_2 (OJOGLHAG_03251)
protein kinase UbiB" points="113,25 129,25 129,10 159,40 129,70 129,55 113,55" fill="rgb(255,255,255)" fill-opacity="1.0" stroke="rgb(0,0,0)" stroke-width="2"  />
			<g>
				<title>ABC1 (PF03109)
"ABC1 family"</title>
				<rect class="PF03109" x="124" y="28" stroke-linejoin="round" width="12" height="24" fill="rgb(197,149,67)" stroke="rgb(157,119,53)" stroke-width="1" opacity="0.75" />
			</g>
		</g>
		<g>
			<title> (OJOGLHAG_03252)
hypothetical protein</title>
			<polygon class=" (OJOGLHAG_03252)
hypothetical protein" points="197,25 186,25 186,10 156,40 186,70 186,55 197,55" fill="rgb(255,255,255)" fill-opacity="1.0" stroke="rgb(0,0,0)" stroke-width="2"  />
			<g>
				<title>MFS_1 (PF07690)
"Major Facilitator Superfamily"</title>
				<polygon class="PF07690" points="160,40 172,28 196,28 196,52 172,52" stroke-linejoin="round" width="37" height="24" fill="rgb(193,224,74)" stroke="rgb(154,179,59)" stroke-width="1" opacity="0.75" />
			</g>
		</g>
		<g>
			<title>gap3 (OJOGLHAG_03253)
Glyceraldehyde-3-phosphate dehydrogenase 3</title>
			<polygon class="gap3 (OJOGLHAG_03253)
Glyceraldehyde-3-phosphate dehydrogenase 3" points="234,25 231,25 231,10 201,40 231,70 231,55 234,55" fill="rgb(255,255,255)" fill-opacity="1.0" stroke="rgb(0,0,0)" stroke-width="2"  />
			<g>
				<title>Gp_dh_C (PF02800)
"Glyceraldehyde 3-phosphate dehydrogenase, C-terminal domain"</title>
				<polygon class="PF02800" points="205,40 217,28 218,28 218,52 217,52" stroke-linejoin="round" width="15" height="24" fill="rgb(160,186,82)" stroke="rgb(128,148,65)" stroke-width="1" opacity="0.75" />
			</g>
			<g>
				<title>Gp_dh_N (PF00044)
"Glyceraldehyde 3-phosphate dehydrogenase, NAD binding domain"</title>
				<rect class="PF00044" x="224" y="28" stroke-linejoin="round" width="10" height="24" fill="rgb(212,98,148)" stroke="rgb(169,78,118)" stroke-width="1" opacity="0.75" />
			</g>
		</g>
		<g>
			<title>arsC_3 (OJOGLHAG_03254)
Arsenate reductase</title>
			<polygon class="arsC_3 (OJOGLHAG_03254)
Arsenate reductase" points="234,40 261,10 261,70" fill="rgb(255,255,255)" fill-opacity="1.0" stroke="rgb(0,0,0)" stroke-width="2"  />
			<g>
				<title>LMWPc (PF01451)
"Low molecular weight phosphotyrosine protein phosphatase"</title>
				<polygon class="PF01451" points="238,40 249,28 250,28 250,52 249,52" stroke-linejoin="round" width="13" height="24" fill="rgb(199,53,196)" stroke="rgb(159,42,156)" stroke-width="1" opacity="0.75" />
			</g>
		</g>
		<g>
			<title> (OJOGLHAG_03255)
Polyphosphate:NDP phosphotransferase 3</title>
			<polygon class=" (OJOGLHAG_03255)
Polyphosphate:NDP phosphotransferase 3" points="264,40 293,10 293,70" fill="rgb(255,255,255)" fill-opacity="1.0" stroke="rgb(0,0,0)" stroke-width="2"  />
			<g>
				<title>PPK2 (PF03976)
"Polyphosphate kinase 2 (PPK2)"</title>
				<polygon class="PF03976" points="268,40 280,28 288,28 288,52 280,52" stroke-linejoin="round" width="22" height="24" fill="rgb(57,123,215)" stroke="rgb(45,98,172)" stroke-width="1" opacity="0.75" />
			</g>
		</g>
		<g>
			<title>ahcY (OJOGLHAG_03257)
Adenosylhomocysteinase</title>
			<polygon class="ahcY (OJOGLHAG_03257)
Adenosylhomocysteinase" points="348,25 332,25 332,10 302,40 332,70 332,55 348,55" fill="rgb(255,255,255)" fill-opacity="1.0" stroke="rgb(0,0,0)" stroke-width="2"  />
			<g>
				<title>AdoHcyase (PF05221)
"S-adenosyl-L-homocysteine hydrolase"</title>
				<polygon class="PF05221" points="306,40 318,28 347,28 347,52 318,52" stroke-linejoin="round" width="45" height="24" fill="rgb(55,203,152)" stroke="rgb(44,162,121)" stroke-width="1" opacity="0.75" />
			</g>
		</g>
		<g>
			<title>bamA_3 (OJOGLHAG_03258)
Outer membrane protein assembly factor BamA</title>
			<polygon class="bamA_3 (OJOGLHAG_03258)
Outer membrane protein assembly factor BamA" points="355,25 384,25 384,10 414,40 384,70 384,55 355,55" fill="rgb(255,255,255)" fill-opacity="1.0" stroke="rgb(0,0,0)" stroke-width="2"  />
			<g>
				<title>Bac_surface_Ag (PF01103)
"Surface antigen"</title>
				<polygon class="PF01103" points="385,28 398,28 410,40 398,52 385,52" stroke-linejoin="round" width="29" height="24" fill="rgb(148,194,51)" stroke="rgb(118,155,40)" stroke-width="1" opacity="0.75" />
			</g>
		</g>
		<g>
			<title> (OJOGLHAG_03259)
hypothetical protein</title>
			<polygon class=" (OJOGLHAG_03259)
hypothetical protein" points="415,25 512,25 512,10 542,40 512,70 512,55 415,55" fill="rgb(255,255,255)" fill-opacity="1.0" stroke="rgb(0,0,0)" stroke-width="2"  />
			<g>
				<title>TamB (PF04357)
"TamB, inner membrane protein subunit of TAM complex"</title>
				<polygon class="PF04357" points="507,28 526,28 538,40 526,52 507,52" stroke-linejoin="round" width="35" height="24" fill="rgb(66,216,187)" stroke="rgb(52,172,149)" stroke-width="1" opacity="0.75" />
			</g>
		</g>
		<g>
			<title>yueD (OJOGLHAG_03260)
Benzil reductase ((S)-benzoin forming)</title>
			<polygon class="yueD (OJOGLHAG_03260)
Benzil reductase ((S)-benzoin forming)" points="543,10 568,40 543,70" fill="rgb(255,255,255)" fill-opacity="1.0" stroke="rgb(0,0,0)" stroke-width="2"  />
			<g>
				<title>adh_short (PF00106)
"short chain dehydrogenase"</title>
				<polygon class="PF00106" points="544,28 554,28 562,38 562,42 554,52 544,52" stroke-linejoin="round" width="18" height="24" fill="rgb(182,219,73)" stroke="rgb(145,175,58)" stroke-width="1" opacity="0.75" />
			</g>
		</g>
		<g>
			<title>crt (OJOGLHAG_03261)
Short-chain-enoyl-CoA hydratase</title>
			<polygon class="crt (OJOGLHAG_03261)
Short-chain-enoyl-CoA hydratase" points="568,10 588,40 568,70" fill="rgb(255,255,255)" fill-opacity="1.0" stroke="rgb(0,0,0)" stroke-width="2"  />
			<g>
				<title>ECH_1 (PF00378)
"Enoyl-CoA hydratase/isomerase"</title>
				<polygon class="PF00378" points="568,28 576,28 584,40 576,52 568,52" stroke-linejoin="round" width="19" height="24" fill="rgb(218,72,181)" stroke="rgb(174,57,144)" stroke-width="1" opacity="0.75" />
			</g>
		</g>
		<g>
			<title> (OJOGLHAG_03262)
hypothetical protein</title>
			<polygon class=" (OJOGLHAG_03262)
hypothetical protein" points="590,10 602,40 590,70" fill="rgb(255,255,255)" fill-opacity="1.0" stroke="rgb(0,0,0)" stroke-width="2"  />
		</g>
		<g>
			<title> (OJOGLHAG_03263)
hypothetical protein</title>
			<polygon class=" (OJOGLHAG_03263)
hypothetical protein" points="603,10 619,40 603,70" fill="rgb(255,255,255)" fill-opacity="1.0" stroke="rgb(0,0,0)" stroke-width="2"  />
			<g>
				<title>PCuAC (PF04314)
"Copper chaperone PCu(A)C"</title>
				<polygon class="PF04314" points="605,28 609,28 615,38 615,42 609,52 605,52" stroke-linejoin="round" width="10" height="24" fill="rgb(55,206,196)" stroke="rgb(44,164,156)" stroke-width="1" opacity="0.75" />
			</g>
		</g>
		<g>
			<title>yfkJ (OJOGLHAG_03264)
Low molecular weight protein-tyrosine-phosphatase YfkJ</title>
			<polygon class="yfkJ (OJOGLHAG_03264)
Low molecular weight protein-tyrosine-phosphatase YfkJ" points="621,10 635,40 621,70" fill="rgb(255,255,255)" fill-opacity="1.0" stroke="rgb(0,0,0)" stroke-width="2"  />
			<g>
				<title>LMWPc (PF01451)
"Low molecular weight phosphotyrosine protein phosphatase"</title>
				<polygon class="PF01451" points="621,28 626,28 632,40 626,52 621,52" stroke-linejoin="round" width="13" height="24" fill="rgb(199,53,196)" stroke="rgb(159,42,156)" stroke-width="1" opacity="0.75" />
			</g>
		</g>
		<g>
			<title> (OJOGLHAG_03265)
hypothetical protein</title>
			<polygon class=" (OJOGLHAG_03265)
hypothetical protein" points="636,40 646,10 646,70" fill="rgb(255,255,255)" fill-opacity="1.0" stroke="rgb(0,0,0)" stroke-width="2"  />
		</g>
		<g>
			<title> (OJOGLHAG_03266)
hypothetical protein</title>
			<polygon class=" (OJOGLHAG_03266)
hypothetical protein" points="653,40 676,10 676,70" fill="rgb(255,255,255)" fill-opacity="1.0" stroke="rgb(0,0,0)" stroke-width="2"  />
			<g>
				<title>ACPS (PF01648)
"4'-phosphopantetheinyl transferase superfamily"</title>
				<polygon class="PF01648" points="657,40 665,30 665,50" stroke-linejoin="round" width="9" height="24" fill="rgb(85,184,135)" stroke="rgb(68,147,108)" stroke-width="1" opacity="0.75" />
			</g>
			<g>
				<title>4PPT_N (PF17837)
"4'-phosphopantetheinyl transferase N-terminal domain"</title>
				<polygon class="PF17837" points="666,29 666,28 672,28 672,52 666,52 666,51" stroke-linejoin="round" width="6" height="24" fill="rgb(198,68,92)" stroke="rgb(158,54,73)" stroke-width="1" opacity="0.75" />
			</g>
		</g>
		<g>
			<title>dltA (OJOGLHAG_03267)
D-alanine--D-alanyl carrier protein ligase</title>
			<polygon class="dltA (OJOGLHAG_03267)
D-alanine--D-alanyl carrier protein ligase" points="826,25 706,25 706,10 676,40 706,70 706,55 826,55" fill="rgb(255,255,255)" fill-opacity="1.0" stroke="rgb(0,0,0)" stroke-width="2"  />
			<g>
				<title>PP-binding (PF00550)
"Phosphopantetheine attachment site"</title>
				<polygon class="PF00550" points="680,40 686,34 686,46 680,40" stroke-linejoin="round" width="6" height="24" fill="rgb(103,191,88)" stroke="rgb(82,152,70)" stroke-width="1" opacity="0.75" />
			</g>
			<g>
				<title>AMP-binding_C (PF13193)
"AMP-binding enzyme C-terminal domain"</title>
				<polygon class="PF13193" points="690,30 692,28 697,28 697,52 692,52 690,50" stroke-linejoin="round" width="7" height="24" fill="rgb(182,50,118)" stroke="rgb(145,39,94)" stroke-width="1" opacity="0.75" />
			</g>
			<g>
				<title>AMP-binding (PF00501)
"AMP-binding enzyme"</title>
				<rect class="PF00501" x="697" y="28" stroke-linejoin="round" width="22" height="24" fill="rgb(60,217,223)" stroke="rgb(48,173,178)" stroke-width="1" opacity="0.75" />
			</g>
			<g>
				<title>Bac_luciferase (PF00296)
"Luciferase-like monooxygenase"</title>
				<rect class="PF00296" x="719" y="28" stroke-linejoin="round" width="32" height="24" fill="rgb(180,112,78)" stroke="rgb(144,89,62)" stroke-width="1" opacity="0.75" />
			</g>
			<g>
				<title>AMP-binding (PF00501)
"AMP-binding enzyme"</title>
				<rect class="PF00501" x="752" y="28" stroke-linejoin="round" width="22" height="24" fill="rgb(60,217,223)" stroke="rgb(48,173,178)" stroke-width="1" opacity="0.75" />
			</g>
			<g>
				<title>Formyl_trans_C (PF02911)
"Formyl transferase, C-terminal domain"</title>
				<rect class="PF02911" x="797" y="28" stroke-linejoin="round" width="9" height="24" fill="rgb(74,115,225)" stroke="rgb(59,92,180)" stroke-width="1" opacity="0.75" />
			</g>
			<g>
				<title>Formyl_trans_N (PF00551)
"Formyl transferase"</title>
				<rect class="PF00551" x="810" y="28" stroke-linejoin="round" width="11" height="24" fill="rgb(111,183,66)" stroke="rgb(88,146,52)" stroke-width="1" opacity="0.75" />
			</g>
		</g>
		<g>
			<title> (OJOGLHAG_03268)
hypothetical protein</title>
			<polygon class=" (OJOGLHAG_03268)
hypothetical protein" points="859,25 857,25 857,10 827,40 857,70 857,55 859,55" fill="rgb(255,255,255)" fill-opacity="1.0" stroke="rgb(0,0,0)" stroke-width="2"  />
			<g>
				<title>Glyco_tranf_2_3 (PF13641)
"Glycosyltransferase like family 2"</title>
				<polygon class="PF13641" points="834,37 843,28 859,28 859,52 843,52 834,43" stroke-linejoin="round" width="25" height="24" fill="rgb(140,74,190)" stroke="rgb(111,59,152)" stroke-width="1" opacity="0.75" />
			</g>
		</g>
		<g>
			<title> (OJOGLHAG_03269)
hypothetical protein</title>
			<polygon class=" (OJOGLHAG_03269)
hypothetical protein" points="1071,25 890,25 890,10 860,40 890,70 890,55 1071,55" fill="rgb(255,255,255)" fill-opacity="1.0" stroke="rgb(0,0,0)" stroke-width="2"  />
			<g>
				<title>Thioesterase (PF00975)
"Thioesterase domain"</title>
				<polygon class="PF00975" points="871,33 876,28 885,28 885,52 876,52 871,47" stroke-linejoin="round" width="14" height="24" fill="rgb(207,80,138)" stroke="rgb(165,63,110)" stroke-width="1" opacity="0.75" />
			</g>
			<g>
				<title>PP-binding (PF00550)
"Phosphopantetheine attachment site"</title>
				<rect class="PF00550" x="890" y="28" stroke-linejoin="round" width="6" height="24" fill="rgb(103,191,88)" stroke="rgb(82,152,70)" stroke-width="1" opacity="0.75" />
			</g>
			<g>
				<title>PS-DH (PF14765)
"Polyketide synthase dehydratase"</title>
				<rect class="PF14765" x="906" y="28" stroke-linejoin="round" width="27" height="24" fill="rgb(173,56,182)" stroke="rgb(138,44,145)" stroke-width="1" opacity="0.75" />
			</g>
			<g>
				<title>KR (PF08659)
"KR domain"</title>
				<rect class="PF08659" x="937" y="28" stroke-linejoin="round" width="19" height="24" fill="rgb(66,209,188)" stroke="rgb(52,167,150)" stroke-width="1" opacity="0.75" />
			</g>
			<g>
				<title>Acyl_transf_1 (PF00698)
"Acyl transferase domain"</title>
				<rect class="PF00698" x="990" y="28" stroke-linejoin="round" width="27" height="24" fill="rgb(59,176,209)" stroke="rgb(47,140,167)" stroke-width="1" opacity="0.75" />
			</g>
			<g>
				<title>KAsynt_C_assoc (PF16197)
"Ketoacyl-synthetase C-terminal extension"</title>
				<rect class="PF16197" x="1021" y="28" stroke-linejoin="round" width="11" height="24" fill="rgb(240,150,172)" stroke="rgb(192,120,137)" stroke-width="1" opacity="0.75" />
			</g>
			<g>
				<title>Ketoacyl-synt_C (PF02801)
"Beta-ketoacyl synthase, C-terminal domain"</title>
				<rect class="PF02801" x="1032" y="28" stroke-linejoin="round" width="11" height="24" fill="rgb(215,78,102)" stroke="rgb(172,62,81)" stroke-width="1" opacity="0.75" />
			</g>
			<g>
				<title>ketoacyl-synt (PF00109)
"Beta-ketoacyl synthase, N-terminal domain"</title>
				<rect class="PF00109" x="1045" y="28" stroke-linejoin="round" width="25" height="24" fill="rgb(112,116,228)" stroke="rgb(89,92,182)" stroke-width="1" opacity="0.75" />
			</g>
		</g>
		<g>
			<title> (OJOGLHAG_03270)
hypothetical protein</title>
			<polygon class=" (OJOGLHAG_03270)
hypothetical protein" points="1121,25 1101,25 1101,10 1071,40 1101,70 1101,55 1121,55" fill="rgb(255,255,255)" fill-opacity="1.0" stroke="rgb(0,0,0)" stroke-width="2"  />
		</g>
		<g>
			<title> (OJOGLHAG_03271)
hypothetical protein</title>
			<polygon class=" (OJOGLHAG_03271)
hypothetical protein" points="1166,25 1151,25 1151,10 1121,40 1151,70 1151,55 1166,55" fill="rgb(255,255,255)" fill-opacity="1.0" stroke="rgb(0,0,0)" stroke-width="2"  />
			<g>
				<title>Wzz (PF02706)
"Chain length determinant protein"</title>
				<rect class="PF02706" x="1157" y="28" stroke-linejoin="round" width="8" height="24" fill="rgb(184,132,90)" stroke="rgb(147,105,72)" stroke-width="1" opacity="0.75" />
			</g>
		</g>
		<g>
			<title> (OJOGLHAG_03272)
hypothetical protein</title>
			<polygon class=" (OJOGLHAG_03272)
hypothetical protein" points="1167,40 1196,10 1196,70" fill="rgb(255,255,255)" fill-opacity="1.0" stroke="rgb(0,0,0)" stroke-width="2"  />
			<g>
				<title>CbiA (PF01656)
"CobQ/CobB/MinD/ParA nucleotide binding domain"</title>
				<polygon class="PF01656" points="1171,40 1183,28 1185,28 1185,52 1183,52" stroke-linejoin="round" width="18" height="24" fill="rgb(143,82,224)" stroke="rgb(114,65,179)" stroke-width="1" opacity="0.75" />
			</g>
		</g>
		<g>
			<title> (OJOGLHAG_03273)
hypothetical protein</title>
			<polygon class=" (OJOGLHAG_03273)
hypothetical protein" points="1202,40 1209,10 1209,70" fill="rgb(255,255,255)" fill-opacity="1.0" stroke="rgb(0,0,0)" stroke-width="2"  />
			<g>
				<title>DUF2783 (PF10932)
"Protein of unknown function (DUF2783)"</title>
				<polygon class="PF10932" points="1205,40 1208,28 1208,28 1208,52 1208,52" stroke-linejoin="round" width="5" height="24" fill="rgb(194,71,148)" stroke="rgb(155,56,118)" stroke-width="1" opacity="0.75" />
			</g>
		</g>
		<g>
			<title>mhpA (OJOGLHAG_03274)
3-(3-hydroxy-phenyl)propionate/3-hydroxycinnamic acid hydroxylase</title>
			<polygon class="mhpA (OJOGLHAG_03274)
3-(3-hydroxy-phenyl)propionate/3-hydroxycinnamic acid hydroxylase" points="1263,25 1239,25 1239,10 1209,40 1239,70 1239,55 1263,55" fill="rgb(255,255,255)" fill-opacity="1.0" stroke="rgb(0,0,0)" stroke-width="2"  />
			<g>
				<title>FAD_binding_3 (PF01494)
"FAD binding domain"</title>
				<rect class="PF01494" x="1226" y="28" stroke-linejoin="round" width="34" height="24" fill="rgb(182,175,59)" stroke="rgb(145,140,47)" stroke-width="1" opacity="0.75" />
			</g>
		</g>
		<g>
			<title> (OJOGLHAG_03275)
hypothetical protein</title>
			<polygon class=" (OJOGLHAG_03275)
hypothetical protein" points="1263,40 1269,10 1269,70" fill="rgb(255,255,255)" fill-opacity="1.0" stroke="rgb(0,0,0)" stroke-width="2"  />
		</g>
		<g>
			<title> (OJOGLHAG_03276)
hypothetical protein</title>
			<polygon class=" (OJOGLHAG_03276)
hypothetical protein" points="1300,25 1299,25 1299,10 1269,40 1299,70 1299,55 1300,55" fill="rgb(255,255,255)" fill-opacity="1.0" stroke="rgb(0,0,0)" stroke-width="2"  />
			<g>
				<title>Lactamase_B (PF00753)
"Metallo-beta-lactamase superfamily"</title>
				<polygon class="PF00753" points="1278,35 1285,28 1297,28 1297,52 1285,52 1278,45" stroke-linejoin="round" width="19" height="24" fill="rgb(206,198,96)" stroke="rgb(164,158,76)" stroke-width="1" opacity="0.75" />
			</g>
		</g>
		<g>
			<title> (OJOGLHAG_03277)
hypothetical protein</title>
			<polygon class=" (OJOGLHAG_03277)
hypothetical protein" points="1344,25 1333,25 1333,10 1303,40 1333,70 1333,55 1344,55" fill="rgb(255,255,255)" fill-opacity="1.0" stroke="rgb(0,0,0)" stroke-width="2"  />
			<g>
				<title>FAA_hydrolase (PF01557)
"Fumarylacetoacetate (FAA) hydrolase family"</title>
				<polygon class="PF01557" points="1307,40 1319,28 1332,28 1332,52 1319,52" stroke-linejoin="round" width="28" height="24" fill="rgb(71,203,125)" stroke="rgb(56,162,100)" stroke-width="1" opacity="0.75" />
			</g>
			<g>
				<title>FAA_hydrolase_N (PF09298)
"Fumarylacetoacetase N-terminal"</title>
				<rect class="PF09298" x="1333" y="28" stroke-linejoin="round" width="9" height="24" fill="rgb(136,220,99)" stroke="rgb(108,176,79)" stroke-width="1" opacity="0.75" />
			</g>
		</g>
		<g>
			<title>rbn (OJOGLHAG_03278)
Ribonuclease BN</title>
			<polygon class="rbn (OJOGLHAG_03278)
Ribonuclease BN" points="1345,40 1371,10 1371,70" fill="rgb(255,255,255)" fill-opacity="1.0" stroke="rgb(0,0,0)" stroke-width="2"  />
			<g>
				<title>Lactamase_B_2 (PF12706)
"Beta-lactamase superfamily domain"</title>
				<polygon class="PF12706" points="1349,40 1359,28 1369,28 1369,52 1359,52" stroke-linejoin="round" width="21" height="24" fill="rgb(62,169,197)" stroke="rgb(49,135,157)" stroke-width="1" opacity="0.75" />
			</g>
		</g>
		<g>
			<title>hmgA (OJOGLHAG_03279)
Homogentisate 1,2-dioxygenase</title>
			<polygon class="hmgA (OJOGLHAG_03279)
Homogentisate 1,2-dioxygenase" points="1419,25 1404,25 1404,10 1374,40 1404,70 1404,55 1419,55" fill="rgb(255,255,255)" fill-opacity="1.0" stroke="rgb(0,0,0)" stroke-width="2"  />
			<g>
				<title>HgmA (PF04209)
"homogentisate 1,2-dioxygenase"</title>
				<polygon class="PF04209" points="1378,40 1390,28 1416,28 1416,52 1390,52" stroke-linejoin="round" width="42" height="24" fill="rgb(180,135,87)" stroke="rgb(144,108,69)" stroke-width="1" opacity="0.75" />
			</g>
		</g>
		<g>
			<title> (OJOGLHAG_03280)
hypothetical protein</title>
			<polygon class=" (OJOGLHAG_03280)
hypothetical protein" points="1422,10 1437,40 1422,70" fill="rgb(255,255,255)" fill-opacity="1.0" stroke="rgb(0,0,0)" stroke-width="2"  />
			<g>
				<title>MarR_2 (PF12802)
"MarR family"</title>
				<polygon class="PF12802" points="1425,28 1427,28 1430,33 1430,47 1427,52 1425,52" stroke-linejoin="round" width="5" height="24" fill="rgb(46,89,185)" stroke="rgb(36,71,148)" stroke-width="1" opacity="0.75" />
			</g>
		</g>
		<g>
			<title>hrpB (OJOGLHAG_03281)
ATP-dependent RNA helicase HrpB</title>
			<polygon class="hrpB (OJOGLHAG_03281)
ATP-dependent RNA helicase HrpB" points="1438,25 1489,25 1489,10 1519,40 1489,70 1489,55 1438,55" fill="rgb(255,255,255)" fill-opacity="1.0" stroke="rgb(0,0,0)" stroke-width="2"  />
			<g>
				<title>DEAD (PF00270)
"DEAD/DEAH box helicase"</title>
				<rect class="PF00270" x="1438" y="28" stroke-linejoin="round" width="15" height="24" fill="rgb(195,100,62)" stroke="rgb(156,80,49)" stroke-width="1" opacity="0.75" />
			</g>
			<g>
				<title>Helicase_C (PF00271)
"Helicase conserved C-terminal domain"</title>
				<rect class="PF00271" x="1457" y="28" stroke-linejoin="round" width="13" height="24" fill="rgb(104,224,158)" stroke="rgb(83,179,126)" stroke-width="1" opacity="0.75" />
			</g>
			<g>
				<title>HA2 (PF04408)
"Helicase associated domain (HA2)"</title>
				<rect class="PF04408" x="1476" y="28" stroke-linejoin="round" width="8" height="24" fill="rgb(142,68,179)" stroke="rgb(113,54,143)" stroke-width="1" opacity="0.75" />
			</g>
			<g>
				<title>HrpB_C (PF08482)
"ATP-dependent helicase C-terminal"</title>
				<polygon class="PF08482" points="1504,30 1514,40 1504,50" stroke-linejoin="round" width="13" height="24" fill="rgb(214,71,97)" stroke="rgb(171,56,77)" stroke-width="1" opacity="0.75" />
			</g>
		</g>
		<g>
			<title> (OJOGLHAG_03282)
hypothetical protein</title>
			<polygon class=" (OJOGLHAG_03282)
hypothetical protein" points="1520,40 1547,10 1547,70" fill="rgb(255,255,255)" fill-opacity="1.0" stroke="rgb(0,0,0)" stroke-width="2"  />
			<g>
				<title>NLPC_P60 (PF00877)
"NlpC/P60 family"</title>
				<polygon class="PF00877" points="1524,40 1530,33 1530,47" stroke-linejoin="round" width="9" height="24" fill="rgb(187,86,137)" stroke="rgb(149,68,109)" stroke-width="1" opacity="0.75" />
			</g>
			<g>
				<title>SH3_16 (PF18348)
"Bacterial dipeptidyl-peptidase Sh3 domain"</title>
				<rect class="PF18348" x="1539" y="28" stroke-linejoin="round" width="4" height="24" fill="rgb(62,218,207)" stroke="rgb(49,174,165)" stroke-width="1" opacity="0.75" />
			</g>
		</g>
		<g>
			<title>pepA_2 (OJOGLHAG_03283)
cytosol aminopeptidase</title>
			<polygon class="pepA_2 (OJOGLHAG_03283)
cytosol aminopeptidase" points="1594,25 1578,25 1578,10 1548,40 1578,70 1578,55 1594,55" fill="rgb(255,255,255)" fill-opacity="1.0" stroke="rgb(0,0,0)" stroke-width="2"  />
			<g>
				<title>Peptidase_M17 (PF00883)
"Cytosol aminopeptidase family, catalytic domain"</title>
				<polygon class="PF00883" points="1552,40 1564,28 1579,28 1579,52 1564,52" stroke-linejoin="round" width="30" height="24" fill="rgb(81,178,163)" stroke="rgb(64,142,130)" stroke-width="1" opacity="0.75" />
			</g>
		</g>
		<g>
			<title> (OJOGLHAG_03284)
hypothetical protein</title>
			<polygon class=" (OJOGLHAG_03284)
hypothetical protein" points="1597,40 1609,10 1609,70" fill="rgb(255,255,255)" fill-opacity="1.0" stroke="rgb(0,0,0)" stroke-width="2"  />
		</g>
		<g>
			<title>dauA_2 (OJOGLHAG_03285)
C4-dicarboxylic acid transporter DauA</title>
			<polygon class="dauA_2 (OJOGLHAG_03285)
C4-dicarboxylic acid transporter DauA" points="1618,25 1643,25 1643,10 1673,40 1643,70 1643,55 1618,55" fill="rgb(255,255,255)" fill-opacity="1.0" stroke="rgb(0,0,0)" stroke-width="2"  />
			<g>
				<title>Sulfate_transp (PF00916)
"Sulfate permease family"</title>
				<polygon class="PF00916" points="1621,28 1656,28 1657,29 1657,51 1656,52 1621,52" stroke-linejoin="round" width="36" height="24" fill="rgb(189,61,212)" stroke="rgb(151,48,169)" stroke-width="1" opacity="0.75" />
			</g>
			<g>
				<title>STAS (PF01740)
"STAS domain"</title>
				<polygon class="PF01740" points="1661,33 1668,40 1661,47" stroke-linejoin="round" width="10" height="24" fill="rgb(219,58,116)" stroke="rgb(175,46,92)" stroke-width="1" opacity="0.75" />
			</g>
		</g>
		<g>
			<title> (OJOGLHAG_03286)
hypothetical protein</title>
			<polygon class=" (OJOGLHAG_03286)
hypothetical protein" points="1673,40 1685,10 1685,70" fill="rgb(255,255,255)" fill-opacity="1.0" stroke="rgb(0,0,0)" stroke-width="2"  />
			<g>
				<title>CaMKII_AD (PF08332)
"Calcium/calmodulin dependent protein kinase II association domain"</title>
				<polygon class="PF08332" points="1676,40 1681,28 1685,28 1685,52 1681,52" stroke-linejoin="round" width="12" height="24" fill="rgb(212,215,66)" stroke="rgb(169,172,52)" stroke-width="1" opacity="0.75" />
			</g>
		</g>
		<g>
			<title> (OJOGLHAG_03287)
hypothetical protein</title>
			<polygon class=" (OJOGLHAG_03287)
hypothetical protein" points="1688,10 1698,40 1688,70" fill="rgb(255,255,255)" fill-opacity="1.0" stroke="rgb(0,0,0)" stroke-width="2"  />
		</g>
		<g>
			<title> (OJOGLHAG_03288)
hypothetical protein</title>
			<polygon class=" (OJOGLHAG_03288)
hypothetical protein" points="1701,10 1718,40 1701,70" fill="rgb(255,255,255)" fill-opacity="1.0" stroke="rgb(0,0,0)" stroke-width="2"  />
		</g>
	</g>
</svg>
