<svg version="1.1" baseProfile="full" xmlns="http://www.w3.org/2000/svg" width="706.2666666666667" height="80">
	<g>
		<line x1="10" y1="40.0" x2="696.2666666666667" y2="40.0" style="stroke:rgb(70,70,70); stroke-width:3 "/>
		<g>
			<title>engB (OCIILLLM_02553)
putative GTP-binding protein EngB</title>
			<polygon class="engB (OCIILLLM_02553)
putative GTP-binding protein EngB" points="46,40 67,10 67,70" fill="rgb(255,255,255)" fill-opacity="1.0" stroke="rgb(0,0,0)" stroke-width="2"  />
			<g>
				<title>MMR_HSR1 (PF01926)
"50S ribosome-binding GTPase"</title>
				<polygon class="PF01926" points="51,39 59,28 62,28 62,52 59,52 51,41" stroke-linejoin="round" width="11" height="24" fill="rgb(105,180,226)" stroke="rgb(83,143,180)" stroke-width="1" opacity="0.75" />
			</g>
		</g>
		<g>
			<title> (OCIILLLM_02554)
hypothetical protein</title>
			<polygon class=" (OCIILLLM_02554)
hypothetical protein" points="67,40 92,10 92,70" fill="rgb(255,255,255)" fill-opacity="1.0" stroke="rgb(0,0,0)" stroke-width="2"  />
			<g>
				<title>MOSC (PF03473)
"MOSC domain"</title>
				<polygon class="PF03473" points="71,40 79,30 79,50" stroke-linejoin="round" width="12" height="24" fill="rgb(96,194,162)" stroke="rgb(76,155,129)" stroke-width="1" opacity="0.75" />
			</g>
			<g>
				<title>MOSC_N (PF03476)
"MOSC N-terminal beta barrel domain"</title>
				<polygon class="PF03476" points="81,28 81,28 91,28 91,52 81,52 81,52" stroke-linejoin="round" width="10" height="24" fill="rgb(209,103,209)" stroke="rgb(167,82,167)" stroke-width="1" opacity="0.75" />
			</g>
		</g>
		<g>
			<title>yidC (OCIILLLM_02555)
Membrane protein insertase YidC</title>
			<polygon class="yidC (OCIILLLM_02555)
Membrane protein insertase YidC" points="156,25 122,25 122,10 92,40 122,70 122,55 156,55" fill="rgb(255,255,255)" fill-opacity="1.0" stroke="rgb(0,0,0)" stroke-width="2"  />
			<g>
				<title>60KD_IMP (PF02096)
"60Kd inner membrane protein"</title>
				<polygon class="PF02096" points="98,38 108,28 118,28 118,52 108,52 98,42" stroke-linejoin="round" width="20" height="24" fill="rgb(68,199,166)" stroke="rgb(54,159,132)" stroke-width="1" opacity="0.75" />
			</g>
			<g>
				<title>YidC_periplas (PF14849)
"YidC periplasmic domain"</title>
				<rect class="PF14849" x="119" y="28" stroke-linejoin="round" width="28" height="24" fill="rgb(194,100,78)" stroke="rgb(155,80,62)" stroke-width="1" opacity="0.75" />
			</g>
		</g>
		<g>
			<title> (OCIILLLM_02556)
putative signaling protein</title>
			<polygon class=" (OCIILLLM_02556)
putative signaling protein" points="212,25 191,25 191,10 161,40 191,70 191,55 212,55" fill="rgb(255,255,255)" fill-opacity="1.0" stroke="rgb(0,0,0)" stroke-width="2"  />
			<g>
				<title>EAL (PF00563)
"EAL domain"</title>
				<polygon class="PF00563" points="165,40 177,28 187,28 187,52 177,52" stroke-linejoin="round" width="23" height="24" fill="rgb(204,100,120)" stroke="rgb(163,80,96)" stroke-width="1" opacity="0.75" />
			</g>
			<g>
				<title>GGDEF (PF00990)
"Diguanylate cyclase, GGDEF domain"</title>
				<rect class="PF00990" x="190" y="28" stroke-linejoin="round" width="15" height="24" fill="rgb(62,170,199)" stroke="rgb(49,135,159)" stroke-width="1" opacity="0.75" />
			</g>
		</g>
		<g>
			<title>ttcA (OCIILLLM_02557)
tRNA-cytidine(32) 2-sulfurtransferase</title>
			<polygon class="ttcA (OCIILLLM_02557)
tRNA-cytidine(32) 2-sulfurtransferase" points="216,40 245,10 245,70" fill="rgb(255,255,255)" fill-opacity="1.0" stroke="rgb(0,0,0)" stroke-width="2"  />
			<g>
				<title>ATP_bind_3 (PF01171)
"PP-loop family"</title>
				<polygon class="PF01171" points="222,38 232,28 240,28 240,52 232,52 222,42" stroke-linejoin="round" width="18" height="24" fill="rgb(97,189,207)" stroke="rgb(77,151,165)" stroke-width="1" opacity="0.75" />
			</g>
		</g>
		<g>
			<title>rarA (OCIILLLM_02558)
Replication-associated recombination protein A</title>
			<polygon class="rarA (OCIILLLM_02558)
Replication-associated recombination protein A" points="290,25 277,25 277,10 247,40 277,70 277,55 290,55" fill="rgb(255,255,255)" fill-opacity="1.0" stroke="rgb(0,0,0)" stroke-width="2"  />
			<g>
				<title>MgsA_C (PF12002)
"MgsA AAA+ ATPase C terminal"</title>
				<polygon class="PF12002" points="251,40 263,28 264,28 264,52 263,52" stroke-linejoin="round" width="16" height="24" fill="rgb(224,154,71)" stroke="rgb(179,123,56)" stroke-width="1" opacity="0.75" />
			</g>
			<g>
				<title>AAA_assoc_2 (PF16193)
"AAA C-terminal domain"</title>
				<rect class="PF16193" x="264" y="28" stroke-linejoin="round" width="7" height="24" fill="rgb(186,178,53)" stroke="rgb(148,142,42)" stroke-width="1" opacity="0.75" />
			</g>
			<g>
				<title>RuvB_N (PF05496)
"Holliday junction DNA helicase RuvB P-loop domain"</title>
				<rect class="PF05496" x="274" y="28" stroke-linejoin="round" width="13" height="24" fill="rgb(227,103,204)" stroke="rgb(181,82,163)" stroke-width="1" opacity="0.75" />
			</g>
		</g>
		<g>
			<title>degP_2 (OCIILLLM_02559)
Periplasmic serine endoprotease DegP</title>
			<polygon class="degP_2 (OCIILLLM_02559)
Periplasmic serine endoprotease DegP" points="337,25 321,25 321,10 291,40 321,70 321,55 337,55" fill="rgb(255,255,255)" fill-opacity="1.0" stroke="rgb(0,0,0)" stroke-width="2"  />
			<g>
				<title>PDZ_6 (PF17820)
"PDZ domain"</title>
				<polygon class="PF17820" points="295,40 296,39 296,41" stroke-linejoin="round" width="4" height="24" fill="rgb(65,63,208)" stroke="rgb(51,50,166)" stroke-width="1" opacity="0.75" />
			</g>
			<g>
				<title>PDZ_2 (PF13180)
"PDZ domain"</title>
				<polygon class="PF13180" points="301,34 307,28 309,28 309,52 307,52 301,46" stroke-linejoin="round" width="8" height="24" fill="rgb(128,192,48)" stroke="rgb(102,153,38)" stroke-width="1" opacity="0.75" />
			</g>
			<g>
				<title>Trypsin_2 (PF13365)
"Trypsin-like peptidase domain"</title>
				<rect class="PF13365" x="314" y="28" stroke-linejoin="round" width="13" height="24" fill="rgb(126,86,188)" stroke="rgb(100,68,150)" stroke-width="1" opacity="0.75" />
			</g>
		</g>
		<g>
			<title>anoI (OCIILLLM_02560)
Acyl-homoserine-lactone synthase</title>
			<polygon class="anoI (OCIILLLM_02560)
Acyl-homoserine-lactone synthase" points="343,40 362,10 362,70" fill="rgb(255,255,255)" fill-opacity="1.0" stroke="rgb(0,0,0)" stroke-width="2"  />
			<g>
				<title>Autoind_synth (PF00765)
"Autoinducer synthase"</title>
				<polygon class="PF00765" points="347,40 355,28 361,28 361,52 355,52" stroke-linejoin="round" width="18" height="24" fill="rgb(197,72,80)" stroke="rgb(157,57,64)" stroke-width="1" opacity="0.75" />
			</g>
		</g>
		<g>
			<title> (OCIILLLM_02561)
hypothetical protein</title>
			<polygon class=" (OCIILLLM_02561)
hypothetical protein" points="364,40 384,10 384,70" fill="rgb(255,255,255)" fill-opacity="1.0" stroke="rgb(0,0,0)" stroke-width="2"  />
			<g>
				<title>Autoind_bind (PF03472)
"Autoinducer binding domain"</title>
				<polygon class="PF03472" points="370,37 376,28 383,28 383,52 376,52 370,43" stroke-linejoin="round" width="13" height="24" fill="rgb(99,181,52)" stroke="rgb(79,144,41)" stroke-width="1" opacity="0.75" />
			</g>
		</g>
		<g>
			<title>rplQ (OCIILLLM_02562)
50S ribosomal protein L17</title>
			<polygon class="rplQ (OCIILLLM_02562)
50S ribosomal protein L17" points="390,40 403,10 403,70" fill="rgb(255,255,255)" fill-opacity="1.0" stroke="rgb(0,0,0)" stroke-width="2"  />
			<g>
				<title>Ribosomal_L17 (PF01196)
"Ribosomal protein L17"</title>
				<polygon class="PF01196" points="393,40 399,28 401,28 401,52 399,52" stroke-linejoin="round" width="9" height="24" fill="rgb(93,225,129)" stroke="rgb(74,180,103)" stroke-width="1" opacity="0.75" />
			</g>
		</g>
		<g>
			<title>rpoA (OCIILLLM_02563)
DNA-directed RNA polymerase subunit alpha</title>
			<polygon class="rpoA (OCIILLLM_02563)
DNA-directed RNA polymerase subunit alpha" points="442,25 439,25 439,10 409,40 439,70 439,55 442,55" fill="rgb(255,255,255)" fill-opacity="1.0" stroke="rgb(0,0,0)" stroke-width="2"  />
			<g>
				<title>RNA_pol_A_CTD (PF03118)
"Bacterial RNA polymerase, alpha chain C terminal domain"</title>
				<polygon class="PF03118" points="413,40 417,36 417,44" stroke-linejoin="round" width="6" height="24" fill="rgb(87,91,186)" stroke="rgb(69,72,148)" stroke-width="1" opacity="0.75" />
			</g>
			<g>
				<title>RNA_pol_L (PF01193)
"RNA polymerase Rpb3/Rpb11 dimerisation domain"</title>
				<polygon class="PF01193" points="420,33 425,28 439,28 439,52 425,52 420,47" stroke-linejoin="round" width="19" height="24" fill="rgb(187,56,169)" stroke="rgb(149,44,135)" stroke-width="1" opacity="0.75" />
			</g>
		</g>
		<g>
			<title>rpsK (OCIILLLM_02564)
30S ribosomal protein S11</title>
			<polygon class="rpsK (OCIILLLM_02564)
30S ribosomal protein S11" points="447,40 460,10 460,70" fill="rgb(255,255,255)" fill-opacity="1.0" stroke="rgb(0,0,0)" stroke-width="2"  />
			<g>
				<title>Ribosomal_S11 (PF00411)
"Ribosomal protein S11"</title>
				<polygon class="PF00411" points="450,40 455,28 457,28 457,52 455,52" stroke-linejoin="round" width="10" height="24" fill="rgb(58,119,193)" stroke="rgb(46,95,154)" stroke-width="1" opacity="0.75" />
			</g>
		</g>
		<g>
			<title>rpsM (OCIILLLM_02565)
30S ribosomal protein S13</title>
			<polygon class="rpsM (OCIILLLM_02565)
30S ribosomal protein S13" points="461,40 473,10 473,70" fill="rgb(255,255,255)" fill-opacity="1.0" stroke="rgb(0,0,0)" stroke-width="2"  />
			<g>
				<title>Ribosomal_S13 (PF00416)
"Ribosomal protein S13/S18"</title>
				<polygon class="PF00416" points="464,40 469,28 472,28 472,52 469,52" stroke-linejoin="round" width="10" height="24" fill="rgb(219,97,136)" stroke="rgb(175,77,108)" stroke-width="1" opacity="0.75" />
			</g>
		</g>
		<g>
			<title>adk_2 (OCIILLLM_02566)
Adenylate kinase</title>
			<polygon class="adk_2 (OCIILLLM_02566)
Adenylate kinase" points="479,40 500,10 500,70" fill="rgb(255,255,255)" fill-opacity="1.0" stroke="rgb(0,0,0)" stroke-width="2"  />
			<g>
				<title>ADK (PF00406)
"Adenylate kinase"</title>
				<polygon class="PF00406" points="483,40 492,28 499,28 499,52 492,52" stroke-linejoin="round" width="18" height="24" fill="rgb(200,63,145)" stroke="rgb(160,50,116)" stroke-width="1" opacity="0.75" />
			</g>
		</g>
		<g>
			<title>secY (OCIILLLM_02567)
Protein translocase subunit SecY</title>
			<polygon class="secY (OCIILLLM_02567)
Protein translocase subunit SecY" points="546,25 531,25 531,10 501,40 531,70 531,55 546,55" fill="rgb(255,255,255)" fill-opacity="1.0" stroke="rgb(0,0,0)" stroke-width="2"  />
			<g>
				<title>SecY (PF00344)
"SecY translocase"</title>
				<polygon class="PF00344" points="505,40 517,28 537,28 537,52 517,52" stroke-linejoin="round" width="33" height="24" fill="rgb(92,194,212)" stroke="rgb(73,155,169)" stroke-width="1" opacity="0.75" />
			</g>
		</g>
		<g>
			<title>rplO (OCIILLLM_02568)
50S ribosomal protein L15</title>
			<polygon class="rplO (OCIILLLM_02568)
50S ribosomal protein L15" points="550,40 565,10 565,70" fill="rgb(255,255,255)" fill-opacity="1.0" stroke="rgb(0,0,0)" stroke-width="2"  />
			<g>
				<title>Ribosomal_L27A (PF00828)
"Ribosomal proteins 50S-L15, 50S-L18e, 60S-L27A"</title>
				<polygon class="PF00828" points="553,40 559,28 562,28 562,52 559,52" stroke-linejoin="round" width="12" height="24" fill="rgb(203,58,220)" stroke="rgb(162,46,176)" stroke-width="1" opacity="0.75" />
			</g>
		</g>
		<g>
			<title> (OCIILLLM_02569)
hypothetical protein</title>
			<polygon class=" (OCIILLLM_02569)
hypothetical protein" points="580,25 616,25 616,10 646,40 616,70 616,55 580,55" fill="rgb(255,255,255)" fill-opacity="1.0" stroke="rgb(0,0,0)" stroke-width="2"  />
			<g>
				<title>Peptidase_S11 (PF00768)
"D-alanyl-D-alanine carboxypeptidase"</title>
				<rect class="PF00768" x="582" y="28" stroke-linejoin="round" width="23" height="24" fill="rgb(227,157,83)" stroke="rgb(181,125,66)" stroke-width="1" opacity="0.75" />
			</g>
			<g>
				<title>SPOR (PF05036)
"Sporulation related domain"</title>
				<polygon class="PF05036" points="638,36 642,40 638,44" stroke-linejoin="round" width="7" height="24" fill="rgb(173,203,80)" stroke="rgb(138,162,64)" stroke-width="1" opacity="0.75" />
			</g>
		</g>
		<g>
			<title>nagK_2 (OCIILLLM_02570)
Fumarylpyruvate hydrolase</title>
			<polygon class="nagK_2 (OCIILLLM_02570)
Fumarylpyruvate hydrolase" points="647,10 669,40 647,70" fill="rgb(255,255,255)" fill-opacity="1.0" stroke="rgb(0,0,0)" stroke-width="2"  />
			<g>
				<title>FAA_hydrolase (PF01557)
"Fumarylacetoacetate (FAA) hydrolase family"</title>
				<polygon class="PF01557" points="649,28 657,28 665,40 657,52 649,52" stroke-linejoin="round" width="19" height="24" fill="rgb(71,203,125)" stroke="rgb(56,162,100)" stroke-width="1" opacity="0.75" />
			</g>
		</g>
		<g>
			<title> (OCIILLLM_02571)
hypothetical protein</title>
			<polygon class=" (OCIILLLM_02571)
hypothetical protein" points="669,40 674,10 674,70" fill="rgb(255,255,255)" fill-opacity="1.0" stroke="rgb(0,0,0)" stroke-width="2"  />
			<g>
				<title>FixS (PF03597)
"Cytochrome oxidase maturation protein cbb3-type"</title>
				<polygon class="PF03597" points="672,40 673,34 673,46" stroke-linejoin="round" width="4" height="24" fill="rgb(94,205,181)" stroke="rgb(75,164,144)" stroke-width="1" opacity="0.75" />
			</g>
		</g>
	</g>
</svg>
