<svg version="1.1" baseProfile="full" xmlns="http://www.w3.org/2000/svg" width="381.93333333333334" height="80">
	<g>
		<line x1="10" y1="40.0" x2="371.93333333333334" y2="40.0" style="stroke:rgb(70,70,70); stroke-width:3 "/>
		<g>
			<title>dmlR_2 (DPKFPEHH_01602)
HTH-type transcriptional regulator DmlR</title>
			<polygon class="dmlR_2 (DPKFPEHH_01602)
HTH-type transcriptional regulator DmlR" points="86,25 85,25 85,10 55,40 85,70 85,55 86,55" fill="rgb(255,255,255)" fill-opacity="1.0" stroke="rgb(0,0,0)" stroke-width="2"  />
			<g>
				<title>LysR_substrate (PF03466)
"LysR substrate binding domain"</title>
				<polygon class="PF03466" points="59,40 71,28 75,28 75,52 71,52" stroke-linejoin="round" width="20" height="24" fill="rgb(55,136,195)" stroke="rgb(44,108,156)" stroke-width="1" opacity="0.75" />
			</g>
			<g>
				<title>HTH_1 (PF00126)
"Bacterial regulatory helix-turn-helix protein, lysR family"</title>
				<rect class="PF00126" x="78" y="28" stroke-linejoin="round" width="5" height="24" fill="rgb(125,227,79)" stroke="rgb(99,181,63)" stroke-width="1" opacity="0.75" />
			</g>
		</g>
		<g>
			<title>hipO_6 (DPKFPEHH_01603)
Hippurate hydrolase</title>
			<polygon class="hipO_6 (DPKFPEHH_01603)
Hippurate hydrolase" points="96,25 104,25 104,10 134,40 104,70 104,55 96,55" fill="rgb(255,255,255)" fill-opacity="1.0" stroke="rgb(0,0,0)" stroke-width="2"  />
			<g>
				<title>Peptidase_M20 (PF01546)
"Peptidase family M20/M25/M40"</title>
				<polygon class="PF01546" points="103,28 118,28 130,40 118,52 103,52" stroke-linejoin="round" width="30" height="24" fill="rgb(88,213,108)" stroke="rgb(70,170,86)" stroke-width="1" opacity="0.75" />
			</g>
		</g>
		<g>
			<title> (DPKFPEHH_01604)
hypothetical protein</title>
			<polygon class=" (DPKFPEHH_01604)
hypothetical protein" points="136,40 151,10 151,70" fill="rgb(255,255,255)" fill-opacity="1.0" stroke="rgb(0,0,0)" stroke-width="2"  />
			<g>
				<title>DoxX (PF07681)
"DoxX"</title>
				<polygon class="PF07681" points="139,40 145,28 147,28 147,52 145,52 139,40" stroke-linejoin="round" width="8" height="24" fill="rgb(93,188,216)" stroke="rgb(74,150,172)" stroke-width="1" opacity="0.75" />
			</g>
		</g>
		<g>
			<title> (DPKFPEHH_01605)
hypothetical protein</title>
			<polygon class=" (DPKFPEHH_01605)
hypothetical protein" points="152,40 176,10 176,70" fill="rgb(255,255,255)" fill-opacity="1.0" stroke="rgb(0,0,0)" stroke-width="2"  />
			<g>
				<title>DUF2063 (PF09836)
"Putative DNA-binding domain"</title>
				<rect class="PF09836" x="167" y="28" stroke-linejoin="round" width="8" height="24" fill="rgb(88,194,190)" stroke="rgb(70,155,152)" stroke-width="1" opacity="0.75" />
			</g>
		</g>
		<g>
			<title> (DPKFPEHH_01606)
hypothetical protein</title>
			<polygon class=" (DPKFPEHH_01606)
hypothetical protein" points="176,40 204,10 204,70" fill="rgb(255,255,255)" fill-opacity="1.0" stroke="rgb(0,0,0)" stroke-width="2"  />
			<g>
				<title>DUF692 (PF05114)
"Protein of unknown function (DUF692)"</title>
				<polygon class="PF05114" points="180,40 191,28 202,28 202,52 191,52" stroke-linejoin="round" width="26" height="24" fill="rgb(63,196,127)" stroke="rgb(50,156,101)" stroke-width="1" opacity="0.75" />
			</g>
		</g>
		<g>
			<title> (DPKFPEHH_01607)
hypothetical protein</title>
			<polygon class=" (DPKFPEHH_01607)
hypothetical protein" points="208,40 218,10 218,70" fill="rgb(255,255,255)" fill-opacity="1.0" stroke="rgb(0,0,0)" stroke-width="2"  />
			<g>
				<title>DUF2282 (PF10048)
"Predicted integral membrane protein (DUF2282)"</title>
				<polygon class="PF10048" points="211,40 215,28 215,28 215,52 215,52" stroke-linejoin="round" width="6" height="24" fill="rgb(58,205,168)" stroke="rgb(46,164,134)" stroke-width="1" opacity="0.75" />
			</g>
		</g>
		<g>
			<title>sigF (DPKFPEHH_01608)
ECF RNA polymerase sigma factor SigF</title>
			<polygon class="sigF (DPKFPEHH_01608)
ECF RNA polymerase sigma factor SigF" points="223,10 241,40 223,70" fill="rgb(255,255,255)" fill-opacity="1.0" stroke="rgb(0,0,0)" stroke-width="2"  />
			<g>
				<title>Sigma70_r2 (PF04542)
"Sigma-70 region 2"</title>
				<polygon class="PF04542" points="225,28 230,28 232,31 232,49 230,52 225,52" stroke-linejoin="round" width="7" height="24" fill="rgb(184,59,197)" stroke="rgb(147,47,157)" stroke-width="1" opacity="0.75" />
			</g>
			<g>
				<title>Sigma70_r4_2 (PF08281)
"Sigma-70, region 4"</title>
				<polygon class="PF08281" points="235,36 237,40 235,44" stroke-linejoin="round" width="5" height="24" fill="rgb(222,103,144)" stroke="rgb(177,82,115)" stroke-width="1" opacity="0.75" />
			</g>
		</g>
		<g>
			<title>nrsF (DPKFPEHH_01609)
Anti-sigma-F factor NrsF</title>
			<polygon class="nrsF (DPKFPEHH_01609)
Anti-sigma-F factor NrsF" points="242,10 263,40 242,70" fill="rgb(255,255,255)" fill-opacity="1.0" stroke="rgb(0,0,0)" stroke-width="2"  />
			<g>
				<title>NrsF (PF06532)
"Negative regulator of sigma F"</title>
				<polygon class="PF06532" points="243,28 251,28 259,40 251,52 243,52" stroke-linejoin="round" width="20" height="24" fill="rgb(100,222,119)" stroke="rgb(80,177,95)" stroke-width="1" opacity="0.75" />
			</g>
		</g>
		<g>
			<title> (DPKFPEHH_01610)
hypothetical protein</title>
			<polygon class=" (DPKFPEHH_01610)
hypothetical protein" points="263,40 288,10 288,70" fill="rgb(255,255,255)" fill-opacity="1.0" stroke="rgb(0,0,0)" stroke-width="2"  />
			<g>
				<title>Rhomboid (PF01694)
"Rhomboid family"</title>
				<polygon class="PF01694" points="267,40 277,28 283,28 283,52 277,52 267,40" stroke-linejoin="round" width="16" height="24" fill="rgb(210,72,145)" stroke="rgb(168,57,116)" stroke-width="1" opacity="0.75" />
			</g>
		</g>
	</g>
</svg>
