<svg version="1.1" baseProfile="full" xmlns="http://www.w3.org/2000/svg" width="121.2" height="80">
	<g>
		<line x1="10" y1="40.0" x2="111.2" y2="40.0" style="stroke:rgb(70,70,70); stroke-width:3 "/>
		<g>
			<title> (EOMLKCNM_04436)
hypothetical protein</title>
			<polygon class=" (EOMLKCNM_04436)
hypothetical protein" points="14,40 24,10 24,70" fill="rgb(255,255,255)" fill-opacity="1.0" stroke="rgb(0,0,0)" stroke-width="2"  />
		</g>
		<g>
			<title> (EOMLKCNM_04437)
hypothetical protein</title>
			<polygon class=" (EOMLKCNM_04437)
hypothetical protein" points="38,40 60,10 60,70" fill="rgb(255,255,255)" fill-opacity="1.0" stroke="rgb(0,0,0)" stroke-width="2"  />
			<g>
				<title>Autoind_synth (PF00765)
"Autoinducer synthase"</title>
				<polygon class="PF00765" points="49,31 51,28 57,28 57,52 51,52 49,49" stroke-linejoin="round" width="8" height="24" fill="rgb(197,72,80)" stroke="rgb(157,57,64)" stroke-width="1" opacity="0.75" />
			</g>
		</g>
		<g>
			<title> (EOMLKCNM_04438)
hypothetical protein</title>
			<polygon class=" (EOMLKCNM_04438)
hypothetical protein" points="63,10 84,40 63,70" fill="rgb(255,255,255)" fill-opacity="1.0" stroke="rgb(0,0,0)" stroke-width="2"  />
			<g>
				<title>Autoind_bind (PF03472)
"Autoinducer binding domain"</title>
				<polygon class="PF03472" points="65,28 72,28 77,35 77,45 72,52 65,52" stroke-linejoin="round" width="12" height="24" fill="rgb(99,181,52)" stroke="rgb(79,144,41)" stroke-width="1" opacity="0.75" />
			</g>
			<g>
				<title>GerE (PF00196)
"Bacterial regulatory proteins, luxR family"</title>
				<polygon class="PF00196" points="78,36 81,40 78,44" stroke-linejoin="round" width="5" height="24" fill="rgb(219,94,82)" stroke="rgb(175,75,65)" stroke-width="1" opacity="0.75" />
			</g>
		</g>
		<g>
			<title> (EOMLKCNM_04439)
hypothetical protein</title>
			<polygon class=" (EOMLKCNM_04439)
hypothetical protein" points="97,10 108,40 97,70" fill="rgb(255,255,255)" fill-opacity="1.0" stroke="rgb(0,0,0)" stroke-width="2"  />
		</g>
	</g>
</svg>
