<svg version="1.1" baseProfile="full" xmlns="http://www.w3.org/2000/svg" width="1748.5" height="80">
	<g>
		<line x1="10" y1="40.0" x2="1738.5" y2="40.0" style="stroke:rgb(70,70,70); stroke-width:3 "/>
		<g>
			<title> (JDHOFBHF_03696)
hypothetical protein</title>
			<polygon class=" (JDHOFBHF_03696)
hypothetical protein" points="33,40 46,10 46,70" fill="rgb(255,255,255)" fill-opacity="1.0" stroke="rgb(0,0,0)" stroke-width="2"  />
		</g>
		<g>
			<title> (JDHOFBHF_03697)
hypothetical protein</title>
			<polygon class=" (JDHOFBHF_03697)
hypothetical protein" points="47,40 59,10 59,70" fill="rgb(255,255,255)" fill-opacity="1.0" stroke="rgb(0,0,0)" stroke-width="2"  />
		</g>
		<g>
			<title> (JDHOFBHF_03698)
hypothetical protein</title>
			<polygon class=" (JDHOFBHF_03698)
hypothetical protein" points="61,10 73,40 61,70" fill="rgb(255,255,255)" fill-opacity="1.0" stroke="rgb(0,0,0)" stroke-width="2"  />
			<g>
				<title>CaMKII_AD (PF08332)
"Calcium/calmodulin dependent protein kinase II association domain"</title>
				<polygon class="PF08332" points="61,28 65,28 70,40 65,52 61,52" stroke-linejoin="round" width="12" height="24" fill="rgb(212,215,66)" stroke="rgb(169,172,52)" stroke-width="1" opacity="0.75" />
			</g>
		</g>
		<g>
			<title>dauA_2 (JDHOFBHF_03699)
C4-dicarboxylic acid transporter DauA</title>
			<polygon class="dauA_2 (JDHOFBHF_03699)
C4-dicarboxylic acid transporter DauA" points="128,25 103,25 103,10 73,40 103,70 103,55 128,55" fill="rgb(255,255,255)" fill-opacity="1.0" stroke="rgb(0,0,0)" stroke-width="2"  />
			<g>
				<title>STAS (PF01740)
"STAS domain"</title>
				<polygon class="PF01740" points="77,40 84,33 84,47" stroke-linejoin="round" width="10" height="24" fill="rgb(219,58,116)" stroke="rgb(175,46,92)" stroke-width="1" opacity="0.75" />
			</g>
			<g>
				<title>Sulfate_transp (PF00916)
"Sulfate permease family"</title>
				<polygon class="PF00916" points="88,29 89,28 124,28 124,52 89,52 88,51" stroke-linejoin="round" width="36" height="24" fill="rgb(189,61,212)" stroke="rgb(151,48,169)" stroke-width="1" opacity="0.75" />
			</g>
		</g>
		<g>
			<title> (JDHOFBHF_03700)
hypothetical protein</title>
			<polygon class=" (JDHOFBHF_03700)
hypothetical protein" points="136,10 148,40 136,70" fill="rgb(255,255,255)" fill-opacity="1.0" stroke="rgb(0,0,0)" stroke-width="2"  />
		</g>
		<g>
			<title>pepA_2 (JDHOFBHF_03701)
cytosol aminopeptidase</title>
			<polygon class="pepA_2 (JDHOFBHF_03701)
cytosol aminopeptidase" points="151,25 167,25 167,10 197,40 167,70 167,55 151,55" fill="rgb(255,255,255)" fill-opacity="1.0" stroke="rgb(0,0,0)" stroke-width="2"  />
			<g>
				<title>Peptidase_M17 (PF00883)
"Cytosol aminopeptidase family, catalytic domain"</title>
				<polygon class="PF00883" points="166,28 181,28 193,40 181,52 166,52" stroke-linejoin="round" width="30" height="24" fill="rgb(81,178,163)" stroke="rgb(64,142,130)" stroke-width="1" opacity="0.75" />
			</g>
		</g>
		<g>
			<title> (JDHOFBHF_03702)
hypothetical protein</title>
			<polygon class=" (JDHOFBHF_03702)
hypothetical protein" points="198,10 225,40 198,70" fill="rgb(255,255,255)" fill-opacity="1.0" stroke="rgb(0,0,0)" stroke-width="2"  />
			<g>
				<title>SH3_16 (PF18348)
"Bacterial dipeptidyl-peptidase Sh3 domain"</title>
				<rect class="PF18348" x="202" y="28" stroke-linejoin="round" width="4" height="24" fill="rgb(62,218,207)" stroke="rgb(49,174,165)" stroke-width="1" opacity="0.75" />
			</g>
			<g>
				<title>NLPC_P60 (PF00877)
"NlpC/P60 family"</title>
				<polygon class="PF00877" points="214,32 221,40 214,48" stroke-linejoin="round" width="9" height="24" fill="rgb(187,86,137)" stroke="rgb(149,68,109)" stroke-width="1" opacity="0.75" />
			</g>
		</g>
		<g>
			<title>hrpB (JDHOFBHF_03703)
ATP-dependent RNA helicase HrpB</title>
			<polygon class="hrpB (JDHOFBHF_03703)
ATP-dependent RNA helicase HrpB" points="308,25 257,25 257,10 227,40 257,70 257,55 308,55" fill="rgb(255,255,255)" fill-opacity="1.0" stroke="rgb(0,0,0)" stroke-width="2"  />
			<g>
				<title>HrpB_C (PF08482)
"ATP-dependent helicase C-terminal"</title>
				<polygon class="PF08482" points="231,40 241,30 241,50" stroke-linejoin="round" width="13" height="24" fill="rgb(214,71,97)" stroke="rgb(171,56,77)" stroke-width="1" opacity="0.75" />
			</g>
			<g>
				<title>HA2 (PF04408)
"Helicase associated domain (HA2)"</title>
				<rect class="PF04408" x="261" y="28" stroke-linejoin="round" width="8" height="24" fill="rgb(142,68,179)" stroke="rgb(113,54,143)" stroke-width="1" opacity="0.75" />
			</g>
			<g>
				<title>Helicase_C (PF00271)
"Helicase conserved C-terminal domain"</title>
				<rect class="PF00271" x="275" y="28" stroke-linejoin="round" width="13" height="24" fill="rgb(104,224,158)" stroke="rgb(83,179,126)" stroke-width="1" opacity="0.75" />
			</g>
			<g>
				<title>DEAD (PF00270)
"DEAD/DEAH box helicase"</title>
				<rect class="PF00270" x="291" y="28" stroke-linejoin="round" width="15" height="24" fill="rgb(195,100,62)" stroke="rgb(156,80,49)" stroke-width="1" opacity="0.75" />
			</g>
		</g>
		<g>
			<title> (JDHOFBHF_03704)
hypothetical protein</title>
			<polygon class=" (JDHOFBHF_03704)
hypothetical protein" points="309,40 324,10 324,70" fill="rgb(255,255,255)" fill-opacity="1.0" stroke="rgb(0,0,0)" stroke-width="2"  />
			<g>
				<title>MarR_2 (PF12802)
"MarR family"</title>
				<polygon class="PF12802" points="314,36 318,28 319,28 319,52 318,52 314,44" stroke-linejoin="round" width="5" height="24" fill="rgb(46,89,185)" stroke="rgb(36,71,148)" stroke-width="1" opacity="0.75" />
			</g>
		</g>
		<g>
			<title>hmgA (JDHOFBHF_03705)
Homogentisate 1,2-dioxygenase</title>
			<polygon class="hmgA (JDHOFBHF_03705)
Homogentisate 1,2-dioxygenase" points="328,25 343,25 343,10 373,40 343,70 343,55 328,55" fill="rgb(255,255,255)" fill-opacity="1.0" stroke="rgb(0,0,0)" stroke-width="2"  />
			<g>
				<title>HgmA (PF04209)
"homogentisate 1,2-dioxygenase"</title>
				<polygon class="PF04209" points="330,28 356,28 368,40 356,52 330,52" stroke-linejoin="round" width="42" height="24" fill="rgb(180,135,87)" stroke="rgb(144,108,69)" stroke-width="1" opacity="0.75" />
			</g>
		</g>
		<g>
			<title>rbn (JDHOFBHF_03706)
Ribonuclease BN</title>
			<polygon class="rbn (JDHOFBHF_03706)
Ribonuclease BN" points="373,10 401,40 373,70" fill="rgb(255,255,255)" fill-opacity="1.0" stroke="rgb(0,0,0)" stroke-width="2"  />
			<g>
				<title>Lactamase_B_2 (PF12706)
"Beta-lactamase superfamily domain"</title>
				<polygon class="PF12706" points="376,28 385,28 397,40 397,40 385,52 376,52" stroke-linejoin="round" width="21" height="24" fill="rgb(62,169,197)" stroke="rgb(49,135,157)" stroke-width="1" opacity="0.75" />
			</g>
		</g>
		<g>
			<title> (JDHOFBHF_03707)
hypothetical protein</title>
			<polygon class=" (JDHOFBHF_03707)
hypothetical protein" points="402,25 413,25 413,10 443,40 413,70 413,55 402,55" fill="rgb(255,255,255)" fill-opacity="1.0" stroke="rgb(0,0,0)" stroke-width="2"  />
			<g>
				<title>FAA_hydrolase_N (PF09298)
"Fumarylacetoacetase N-terminal"</title>
				<rect class="PF09298" x="404" y="28" stroke-linejoin="round" width="9" height="24" fill="rgb(136,220,99)" stroke="rgb(108,176,79)" stroke-width="1" opacity="0.75" />
			</g>
			<g>
				<title>FAA_hydrolase (PF01557)
"Fumarylacetoacetate (FAA) hydrolase family"</title>
				<polygon class="PF01557" points="413,28 427,28 439,40 427,52 413,52" stroke-linejoin="round" width="28" height="24" fill="rgb(71,203,125)" stroke="rgb(56,162,100)" stroke-width="1" opacity="0.75" />
			</g>
		</g>
		<g>
			<title> (JDHOFBHF_03708)
hypothetical protein</title>
			<polygon class=" (JDHOFBHF_03708)
hypothetical protein" points="446,25 447,25 447,10 477,40 447,70 447,55 446,55" fill="rgb(255,255,255)" fill-opacity="1.0" stroke="rgb(0,0,0)" stroke-width="2"  />
			<g>
				<title>Lactamase_B (PF00753)
"Metallo-beta-lactamase superfamily"</title>
				<polygon class="PF00753" points="448,28 461,28 467,34 467,46 461,52 448,52" stroke-linejoin="round" width="19" height="24" fill="rgb(206,198,96)" stroke="rgb(164,158,76)" stroke-width="1" opacity="0.75" />
			</g>
		</g>
		<g>
			<title> (JDHOFBHF_03709)
hypothetical protein</title>
			<polygon class=" (JDHOFBHF_03709)
hypothetical protein" points="478,10 484,40 478,70" fill="rgb(255,255,255)" fill-opacity="1.0" stroke="rgb(0,0,0)" stroke-width="2"  />
		</g>
		<g>
			<title>mhpA (JDHOFBHF_03710)
3-(3-hydroxy-phenyl)propionate/3-hydroxycinnamic acid hydroxylase</title>
			<polygon class="mhpA (JDHOFBHF_03710)
3-(3-hydroxy-phenyl)propionate/3-hydroxycinnamic acid hydroxylase" points="484,25 508,25 508,10 538,40 508,70 508,55 484,55" fill="rgb(255,255,255)" fill-opacity="1.0" stroke="rgb(0,0,0)" stroke-width="2"  />
			<g>
				<title>FAD_binding_3 (PF01494)
"FAD binding domain"</title>
				<rect class="PF01494" x="486" y="28" stroke-linejoin="round" width="34" height="24" fill="rgb(182,175,59)" stroke="rgb(145,140,47)" stroke-width="1" opacity="0.75" />
			</g>
		</g>
		<g>
			<title> (JDHOFBHF_03711)
hypothetical protein</title>
			<polygon class=" (JDHOFBHF_03711)
hypothetical protein" points="538,10 544,40 538,70" fill="rgb(255,255,255)" fill-opacity="1.0" stroke="rgb(0,0,0)" stroke-width="2"  />
			<g>
				<title>DUF2783 (PF10932)
"Protein of unknown function (DUF2783)"</title>
				<polygon class="PF10932" points="538,28 538,28 541,40 538,52 538,52" stroke-linejoin="round" width="5" height="24" fill="rgb(194,71,148)" stroke="rgb(155,56,118)" stroke-width="1" opacity="0.75" />
			</g>
		</g>
		<g>
			<title> (JDHOFBHF_03712)
hypothetical protein</title>
			<polygon class=" (JDHOFBHF_03712)
hypothetical protein" points="550,10 579,40 550,70" fill="rgb(255,255,255)" fill-opacity="1.0" stroke="rgb(0,0,0)" stroke-width="2"  />
			<g>
				<title>CbiA (PF01656)
"CobQ/CobB/MinD/ParA nucleotide binding domain"</title>
				<polygon class="PF01656" points="561,28 563,28 575,40 563,52 561,52" stroke-linejoin="round" width="18" height="24" fill="rgb(143,82,224)" stroke="rgb(114,65,179)" stroke-width="1" opacity="0.75" />
			</g>
		</g>
		<g>
			<title> (JDHOFBHF_03713)
hypothetical protein</title>
			<polygon class=" (JDHOFBHF_03713)
hypothetical protein" points="580,25 595,25 595,10 625,40 595,70 595,55 580,55" fill="rgb(255,255,255)" fill-opacity="1.0" stroke="rgb(0,0,0)" stroke-width="2"  />
			<g>
				<title>Wzz (PF02706)
"Chain length determinant protein"</title>
				<rect class="PF02706" x="580" y="28" stroke-linejoin="round" width="8" height="24" fill="rgb(184,132,90)" stroke="rgb(147,105,72)" stroke-width="1" opacity="0.75" />
			</g>
		</g>
		<g>
			<title> (JDHOFBHF_03714)
hypothetical protein</title>
			<polygon class=" (JDHOFBHF_03714)
hypothetical protein" points="626,25 646,25 646,10 676,40 646,70 646,55 626,55" fill="rgb(255,255,255)" fill-opacity="1.0" stroke="rgb(0,0,0)" stroke-width="2"  />
		</g>
		<g>
			<title> (JDHOFBHF_03715)
hypothetical protein</title>
			<polygon class=" (JDHOFBHF_03715)
hypothetical protein" points="676,25 857,25 857,10 887,40 857,70 857,55 676,55" fill="rgb(255,255,255)" fill-opacity="1.0" stroke="rgb(0,0,0)" stroke-width="2"  />
			<g>
				<title>ketoacyl-synt (PF00109)
"Beta-ketoacyl synthase, N-terminal domain"</title>
				<rect class="PF00109" x="676" y="28" stroke-linejoin="round" width="25" height="24" fill="rgb(112,116,228)" stroke="rgb(89,92,182)" stroke-width="1" opacity="0.75" />
			</g>
			<g>
				<title>Ketoacyl-synt_C (PF02801)
"Beta-ketoacyl synthase, C-terminal domain"</title>
				<rect class="PF02801" x="702" y="28" stroke-linejoin="round" width="11" height="24" fill="rgb(215,78,102)" stroke="rgb(172,62,81)" stroke-width="1" opacity="0.75" />
			</g>
			<g>
				<title>KAsynt_C_assoc (PF16197)
"Ketoacyl-synthetase C-terminal extension"</title>
				<rect class="PF16197" x="714" y="28" stroke-linejoin="round" width="11" height="24" fill="rgb(240,150,172)" stroke="rgb(192,120,137)" stroke-width="1" opacity="0.75" />
			</g>
			<g>
				<title>Acyl_transf_1 (PF00698)
"Acyl transferase domain"</title>
				<rect class="PF00698" x="729" y="28" stroke-linejoin="round" width="27" height="24" fill="rgb(59,176,209)" stroke="rgb(47,140,167)" stroke-width="1" opacity="0.75" />
			</g>
			<g>
				<title>KR (PF08659)
"KR domain"</title>
				<rect class="PF08659" x="790" y="28" stroke-linejoin="round" width="19" height="24" fill="rgb(66,209,188)" stroke="rgb(52,167,150)" stroke-width="1" opacity="0.75" />
			</g>
			<g>
				<title>PS-DH (PF14765)
"Polyketide synthase dehydratase"</title>
				<rect class="PF14765" x="813" y="28" stroke-linejoin="round" width="27" height="24" fill="rgb(173,56,182)" stroke="rgb(138,44,145)" stroke-width="1" opacity="0.75" />
			</g>
			<g>
				<title>PP-binding (PF00550)
"Phosphopantetheine attachment site"</title>
				<rect class="PF00550" x="850" y="28" stroke-linejoin="round" width="6" height="24" fill="rgb(103,191,88)" stroke="rgb(82,152,70)" stroke-width="1" opacity="0.75" />
			</g>
			<g>
				<title>Thioesterase (PF00975)
"Thioesterase domain"</title>
				<polygon class="PF00975" points="861,28 870,28 874,32 874,48 870,52 861,52" stroke-linejoin="round" width="13" height="24" fill="rgb(207,80,138)" stroke="rgb(165,63,110)" stroke-width="1" opacity="0.75" />
			</g>
		</g>
		<g>
			<title> (JDHOFBHF_03716)
hypothetical protein</title>
			<polygon class=" (JDHOFBHF_03716)
hypothetical protein" points="887,25 889,25 889,10 919,40 889,70 889,55 887,55" fill="rgb(255,255,255)" fill-opacity="1.0" stroke="rgb(0,0,0)" stroke-width="2"  />
			<g>
				<title>Glycos_transf_2 (PF00535)
"Glycosyl transferase family 2"</title>
				<rect class="PF00535" x="887" y="28" stroke-linejoin="round" width="16" height="24" fill="rgb(224,122,96)" stroke="rgb(179,97,76)" stroke-width="1" opacity="0.75" />
			</g>
		</g>
		<g>
			<title>dltA (JDHOFBHF_03717)
D-alanine--D-alanyl carrier protein ligase</title>
			<polygon class="dltA (JDHOFBHF_03717)
D-alanine--D-alanyl carrier protein ligase" points="920,25 1041,25 1041,10 1071,40 1041,70 1041,55 920,55" fill="rgb(255,255,255)" fill-opacity="1.0" stroke="rgb(0,0,0)" stroke-width="2"  />
			<g>
				<title>Formyl_trans_N (PF00551)
"Formyl transferase"</title>
				<rect class="PF00551" x="925" y="28" stroke-linejoin="round" width="11" height="24" fill="rgb(111,183,66)" stroke="rgb(88,146,52)" stroke-width="1" opacity="0.75" />
			</g>
			<g>
				<title>Formyl_trans_C (PF02911)
"Formyl transferase, C-terminal domain"</title>
				<rect class="PF02911" x="939" y="28" stroke-linejoin="round" width="9" height="24" fill="rgb(74,115,225)" stroke="rgb(59,92,180)" stroke-width="1" opacity="0.75" />
			</g>
			<g>
				<title>AMP-binding (PF00501)
"AMP-binding enzyme"</title>
				<rect class="PF00501" x="971" y="28" stroke-linejoin="round" width="22" height="24" fill="rgb(60,217,223)" stroke="rgb(48,173,178)" stroke-width="1" opacity="0.75" />
			</g>
			<g>
				<title>Bac_luciferase (PF00296)
"Luciferase-like monooxygenase"</title>
				<rect class="PF00296" x="994" y="28" stroke-linejoin="round" width="32" height="24" fill="rgb(180,112,78)" stroke="rgb(144,89,62)" stroke-width="1" opacity="0.75" />
			</g>
			<g>
				<title>AMP-binding (PF00501)
"AMP-binding enzyme"</title>
				<rect class="PF00501" x="1026" y="28" stroke-linejoin="round" width="22" height="24" fill="rgb(60,217,223)" stroke="rgb(48,173,178)" stroke-width="1" opacity="0.75" />
			</g>
			<g>
				<title>AMP-binding_C (PF13193)
"AMP-binding enzyme C-terminal domain"</title>
				<polygon class="PF13193" points="1049,28 1054,28 1056,30 1056,50 1054,52 1049,52" stroke-linejoin="round" width="7" height="24" fill="rgb(182,50,118)" stroke="rgb(145,39,94)" stroke-width="1" opacity="0.75" />
			</g>
			<g>
				<title>PP-binding (PF00550)
"Phosphopantetheine attachment site"</title>
				<polygon class="PF00550" points="1059,33 1065,39 1065,41 1059,47" stroke-linejoin="round" width="6" height="24" fill="rgb(103,191,88)" stroke="rgb(82,152,70)" stroke-width="1" opacity="0.75" />
			</g>
		</g>
		<g>
			<title> (JDHOFBHF_03718)
hypothetical protein</title>
			<polygon class=" (JDHOFBHF_03718)
hypothetical protein" points="1071,10 1094,40 1071,70" fill="rgb(255,255,255)" fill-opacity="1.0" stroke="rgb(0,0,0)" stroke-width="2"  />
			<g>
				<title>4PPT_N (PF17837)
"4'-phosphopantetheinyl transferase N-terminal domain"</title>
				<rect class="PF17837" x="1074" y="28" stroke-linejoin="round" width="6" height="24" fill="rgb(198,68,92)" stroke="rgb(158,54,73)" stroke-width="1" opacity="0.75" />
			</g>
			<g>
				<title>ACPS (PF01648)
"4'-phosphopantetheinyl transferase superfamily"</title>
				<polygon class="PF01648" points="1082,29 1090,40 1090,40 1082,51" stroke-linejoin="round" width="8" height="24" fill="rgb(85,184,135)" stroke="rgb(68,147,108)" stroke-width="1" opacity="0.75" />
			</g>
		</g>
		<g>
			<title> (JDHOFBHF_03719)
hypothetical protein</title>
			<polygon class=" (JDHOFBHF_03719)
hypothetical protein" points="1102,10 1112,40 1102,70" fill="rgb(255,255,255)" fill-opacity="1.0" stroke="rgb(0,0,0)" stroke-width="2"  />
		</g>
		<g>
			<title> (JDHOFBHF_03720)
hypothetical protein</title>
			<polygon class=" (JDHOFBHF_03720)
hypothetical protein" points="1114,40 1130,10 1130,70" fill="rgb(255,255,255)" fill-opacity="1.0" stroke="rgb(0,0,0)" stroke-width="2"  />
			<g>
				<title>PCuAC (PF04314)
"Copper chaperone PCu(A)C"</title>
				<polygon class="PF04314" points="1117,40 1124,28 1127,28 1127,52 1124,52 1117,40" stroke-linejoin="round" width="10" height="24" fill="rgb(55,206,196)" stroke="rgb(44,164,156)" stroke-width="1" opacity="0.75" />
			</g>
		</g>
		<g>
			<title> (JDHOFBHF_03721)
hypothetical protein</title>
			<polygon class=" (JDHOFBHF_03721)
hypothetical protein" points="1132,40 1144,10 1144,70" fill="rgb(255,255,255)" fill-opacity="1.0" stroke="rgb(0,0,0)" stroke-width="2"  />
		</g>
		<g>
			<title>crt (JDHOFBHF_03722)
Short-chain-enoyl-CoA hydratase</title>
			<polygon class="crt (JDHOFBHF_03722)
Short-chain-enoyl-CoA hydratase" points="1145,40 1165,10 1165,70" fill="rgb(255,255,255)" fill-opacity="1.0" stroke="rgb(0,0,0)" stroke-width="2"  />
			<g>
				<title>ECH_1 (PF00378)
"Enoyl-CoA hydratase/isomerase"</title>
				<polygon class="PF00378" points="1149,40 1157,28 1164,28 1164,52 1157,52" stroke-linejoin="round" width="19" height="24" fill="rgb(218,72,181)" stroke="rgb(174,57,144)" stroke-width="1" opacity="0.75" />
			</g>
		</g>
		<g>
			<title>hcaB_2 (JDHOFBHF_03723)
3-phenylpropionate-dihydrodiol/cinnamic acid-dihydrodiol dehydrogenase</title>
			<polygon class="hcaB_2 (JDHOFBHF_03723)
3-phenylpropionate-dihydrodiol/cinnamic acid-dihydrodiol dehydrogenase" points="1166,40 1191,10 1191,70" fill="rgb(255,255,255)" fill-opacity="1.0" stroke="rgb(0,0,0)" stroke-width="2"  />
			<g>
				<title>adh_short (PF00106)
"short chain dehydrogenase"</title>
				<polygon class="PF00106" points="1171,39 1180,28 1189,28 1189,52 1180,52 1171,41" stroke-linejoin="round" width="18" height="24" fill="rgb(182,219,73)" stroke="rgb(145,175,58)" stroke-width="1" opacity="0.75" />
			</g>
		</g>
		<g>
			<title> (JDHOFBHF_03724)
hypothetical protein</title>
			<polygon class=" (JDHOFBHF_03724)
hypothetical protein" points="1318,25 1221,25 1221,10 1191,40 1221,70 1221,55 1318,55" fill="rgb(255,255,255)" fill-opacity="1.0" stroke="rgb(0,0,0)" stroke-width="2"  />
			<g>
				<title>TamB (PF04357)
"TamB, inner membrane protein subunit of TAM complex"</title>
				<polygon class="PF04357" points="1195,40 1207,28 1225,28 1225,52 1207,52" stroke-linejoin="round" width="34" height="24" fill="rgb(66,216,187)" stroke="rgb(52,172,149)" stroke-width="1" opacity="0.75" />
			</g>
		</g>
		<g>
			<title>bamA_2 (JDHOFBHF_03725)
Outer membrane protein assembly factor BamA</title>
			<polygon class="bamA_2 (JDHOFBHF_03725)
Outer membrane protein assembly factor BamA" points="1379,25 1349,25 1349,10 1319,40 1349,70 1349,55 1379,55" fill="rgb(255,255,255)" fill-opacity="1.0" stroke="rgb(0,0,0)" stroke-width="2"  />
			<g>
				<title>Bac_surface_Ag (PF01103)
"Surface antigen"</title>
				<polygon class="PF01103" points="1323,40 1335,28 1348,28 1348,52 1335,52" stroke-linejoin="round" width="29" height="24" fill="rgb(148,194,51)" stroke="rgb(118,155,40)" stroke-width="1" opacity="0.75" />
			</g>
		</g>
		<g>
			<title>ahcY (JDHOFBHF_03726)
Adenosylhomocysteinase</title>
			<polygon class="ahcY (JDHOFBHF_03726)
Adenosylhomocysteinase" points="1386,25 1402,25 1402,10 1432,40 1402,70 1402,55 1386,55" fill="rgb(255,255,255)" fill-opacity="1.0" stroke="rgb(0,0,0)" stroke-width="2"  />
			<g>
				<title>AdoHcyase (PF05221)
"S-adenosyl-L-homocysteine hydrolase"</title>
				<polygon class="PF05221" points="1386,28 1416,28 1428,40 1416,52 1386,52" stroke-linejoin="round" width="45" height="24" fill="rgb(55,203,152)" stroke="rgb(44,162,121)" stroke-width="1" opacity="0.75" />
			</g>
		</g>
		<g>
			<title> (JDHOFBHF_03727)
hypothetical protein</title>
			<polygon class=" (JDHOFBHF_03727)
hypothetical protein" points="1435,25 1476,25 1476,10 1506,40 1476,70 1476,55 1435,55" fill="rgb(255,255,255)" fill-opacity="1.0" stroke="rgb(0,0,0)" stroke-width="2"  />
			<g>
				<title>Phytase-like (PF13449)
"Esterase-like activity of phytase"</title>
				<polygon class="PF13449" points="1478,28 1490,28 1502,40 1490,52 1478,52" stroke-linejoin="round" width="26" height="24" fill="rgb(76,126,200)" stroke="rgb(60,100,160)" stroke-width="1" opacity="0.75" />
			</g>
		</g>
		<g>
			<title> (JDHOFBHF_03728)
hypothetical protein</title>
			<polygon class=" (JDHOFBHF_03728)
hypothetical protein" points="1528,10 1536,40 1528,70" fill="rgb(255,255,255)" fill-opacity="1.0" stroke="rgb(0,0,0)" stroke-width="2"  />
		</g>
		<g>
			<title> (JDHOFBHF_03730)
Polyphosphate:NDP phosphotransferase 3</title>
			<polygon class=" (JDHOFBHF_03730)
Polyphosphate:NDP phosphotransferase 3" points="1542,10 1571,40 1542,70" fill="rgb(255,255,255)" fill-opacity="1.0" stroke="rgb(0,0,0)" stroke-width="2"  />
			<g>
				<title>PPK2 (PF03976)
"Polyphosphate kinase 2 (PPK2)"</title>
				<polygon class="PF03976" points="1546,28 1555,28 1567,40 1555,52 1546,52" stroke-linejoin="round" width="22" height="24" fill="rgb(57,123,215)" stroke="rgb(45,98,172)" stroke-width="1" opacity="0.75" />
			</g>
		</g>
		<g>
			<title>arsC_2 (JDHOFBHF_03731)
Arsenate reductase</title>
			<polygon class="arsC_2 (JDHOFBHF_03731)
Arsenate reductase" points="1574,10 1602,40 1574,70" fill="rgb(255,255,255)" fill-opacity="1.0" stroke="rgb(0,0,0)" stroke-width="2"  />
			<g>
				<title>HTH_IclR (PF09339)
"IclR helix-turn-helix domain"</title>
				<rect class="PF09339" x="1575" y="28" stroke-linejoin="round" width="4" height="24" fill="rgb(135,102,222)" stroke="rgb(108,81,177)" stroke-width="1" opacity="0.75" />
			</g>
			<g>
				<title>LMWPc (PF01451)
"Low molecular weight phosphotyrosine protein phosphatase"</title>
				<polygon class="PF01451" points="1585,28 1586,28 1598,40 1598,40 1586,52 1585,52" stroke-linejoin="round" width="13" height="24" fill="rgb(199,53,196)" stroke="rgb(159,42,156)" stroke-width="1" opacity="0.75" />
			</g>
		</g>
		<g>
			<title>gap3 (JDHOFBHF_03732)
Glyceraldehyde-3-phosphate dehydrogenase 3</title>
			<polygon class="gap3 (JDHOFBHF_03732)
Glyceraldehyde-3-phosphate dehydrogenase 3" points="1603,25 1606,25 1606,10 1636,40 1606,70 1606,55 1603,55" fill="rgb(255,255,255)" fill-opacity="1.0" stroke="rgb(0,0,0)" stroke-width="2"  />
			<g>
				<title>Gp_dh_N (PF00044)
"Glyceraldehyde 3-phosphate dehydrogenase, NAD binding domain"</title>
				<rect class="PF00044" x="1603" y="28" stroke-linejoin="round" width="10" height="24" fill="rgb(212,98,148)" stroke="rgb(169,78,118)" stroke-width="1" opacity="0.75" />
			</g>
			<g>
				<title>Gp_dh_C (PF02800)
"Glyceraldehyde 3-phosphate dehydrogenase, C-terminal domain"</title>
				<polygon class="PF02800" points="1618,28 1620,28 1632,40 1620,52 1618,52" stroke-linejoin="round" width="15" height="24" fill="rgb(160,186,82)" stroke="rgb(128,148,65)" stroke-width="1" opacity="0.75" />
			</g>
		</g>
		<g>
			<title> (JDHOFBHF_03733)
hypothetical protein</title>
			<polygon class=" (JDHOFBHF_03733)
hypothetical protein" points="1639,25 1650,25 1650,10 1680,40 1650,70 1650,55 1639,55" fill="rgb(255,255,255)" fill-opacity="1.0" stroke="rgb(0,0,0)" stroke-width="2"  />
			<g>
				<title>MFS_1 (PF07690)
"Major Facilitator Superfamily"</title>
				<polygon class="PF07690" points="1639,28 1664,28 1676,40 1676,40 1664,52 1639,52" stroke-linejoin="round" width="37" height="24" fill="rgb(193,224,74)" stroke="rgb(154,179,59)" stroke-width="1" opacity="0.75" />
			</g>
		</g>
		<g>
			<title>ubiB_2 (JDHOFBHF_03734)
protein kinase UbiB</title>
			<polygon class="ubiB_2 (JDHOFBHF_03734)
protein kinase UbiB" points="1726,25 1711,25 1711,10 1681,40 1711,70 1711,55 1726,55" fill="rgb(255,255,255)" fill-opacity="1.0" stroke="rgb(0,0,0)" stroke-width="2"  />
			<g>
				<title>ABC1 (PF03109)
"ABC1 family"</title>
				<rect class="PF03109" x="1700" y="28" stroke-linejoin="round" width="12" height="24" fill="rgb(197,149,67)" stroke="rgb(157,119,53)" stroke-width="1" opacity="0.75" />
			</g>
		</g>
	</g>
</svg>
