<svg version="1.1" baseProfile="full" xmlns="http://www.w3.org/2000/svg" width="366.23333333333335" height="80">
	<g>
		<line x1="10" y1="40.0" x2="356.23333333333335" y2="40.0" style="stroke:rgb(70,70,70); stroke-width:3 "/>
		<g>
			<title> (JDHOFBHF_02312)
hypothetical protein</title>
			<polygon class=" (JDHOFBHF_02312)
hypothetical protein" points="57,25 68,25 68,10 98,40 68,70 68,55 57,55" fill="rgb(255,255,255)" fill-opacity="1.0" stroke="rgb(0,0,0)" stroke-width="2"  />
		</g>
		<g>
			<title>yrrK (JDHOFBHF_02313)
Putative pre-16S rRNA nuclease</title>
			<polygon class="yrrK (JDHOFBHF_02313)
Putative pre-16S rRNA nuclease" points="99,10 115,40 99,70" fill="rgb(255,255,255)" fill-opacity="1.0" stroke="rgb(0,0,0)" stroke-width="2"  />
			<g>
				<title>RuvX (PF03652)
"Holliday junction resolvase"</title>
				<polygon class="PF03652" points="100,28 105,28 111,40 105,52 100,52" stroke-linejoin="round" width="13" height="24" fill="rgb(212,72,143)" stroke="rgb(169,57,114)" stroke-width="1" opacity="0.75" />
			</g>
		</g>
		<g>
			<title> (JDHOFBHF_02314)
hypothetical protein</title>
			<polygon class=" (JDHOFBHF_02314)
hypothetical protein" points="117,10 124,40 117,70" fill="rgb(255,255,255)" fill-opacity="1.0" stroke="rgb(0,0,0)" stroke-width="2"  />
			<g>
				<title>DUF1289 (PF06945)
"Protein of unknown function (DUF1289)"</title>
				<polygon class="PF06945" points="118,27 121,40 118,53" stroke-linejoin="round" width="4" height="24" fill="rgb(84,199,130)" stroke="rgb(67,159,104)" stroke-width="1" opacity="0.75" />
			</g>
		</g>
		<g>
			<title>ask (JDHOFBHF_02315)
Aspartate kinase Ask_Ect</title>
			<polygon class="ask (JDHOFBHF_02315)
Aspartate kinase Ask_Ect" points="173,25 156,25 156,10 126,40 156,70 156,55 173,55" fill="rgb(255,255,255)" fill-opacity="1.0" stroke="rgb(0,0,0)" stroke-width="2"  />
			<g>
				<title>AA_kinase (PF00696)
"Amino acid kinase family"</title>
				<rect class="PF00696" x="144" y="28" stroke-linejoin="round" width="28" height="24" fill="rgb(148,78,224)" stroke="rgb(118,62,179)" stroke-width="1" opacity="0.75" />
			</g>
		</g>
		<g>
			<title>ectC (JDHOFBHF_02316)
L-ectoine synthase</title>
			<polygon class="ectC (JDHOFBHF_02316)
L-ectoine synthase" points="176,40 188,10 188,70" fill="rgb(255,255,255)" fill-opacity="1.0" stroke="rgb(0,0,0)" stroke-width="2"  />
			<g>
				<title>Ectoine_synth (PF06339)
"Ectoine synthase"</title>
				<polygon class="PF06339" points="179,40 184,28 188,28 188,52 184,52" stroke-linejoin="round" width="12" height="24" fill="rgb(225,176,81)" stroke="rgb(180,140,64)" stroke-width="1" opacity="0.75" />
			</g>
		</g>
		<g>
			<title>ectB (JDHOFBHF_02317)
Diaminobutyrate--2-oxoglutarate transaminase</title>
			<polygon class="ectB (JDHOFBHF_02317)
Diaminobutyrate--2-oxoglutarate transaminase" points="231,25 219,25 219,10 189,40 219,70 219,55 231,55" fill="rgb(255,255,255)" fill-opacity="1.0" stroke="rgb(0,0,0)" stroke-width="2"  />
			<g>
				<title>Aminotran_3 (PF00202)
"Aminotransferase class-III"</title>
				<polygon class="PF00202" points="193,40 205,28 229,28 229,52 205,52" stroke-linejoin="round" width="39" height="24" fill="rgb(49,163,189)" stroke="rgb(39,130,151)" stroke-width="1" opacity="0.75" />
			</g>
		</g>
		<g>
			<title>ectA (JDHOFBHF_02318)
L-2,4-diaminobutyric acid acetyltransferase</title>
			<polygon class="ectA (JDHOFBHF_02318)
L-2,4-diaminobutyric acid acetyltransferase" points="234,40 252,10 252,70" fill="rgb(255,255,255)" fill-opacity="1.0" stroke="rgb(0,0,0)" stroke-width="2"  />
			<g>
				<title>Acetyltransf_1 (PF00583)
"Acetyltransferase (GNAT) family"</title>
				<polygon class="PF00583" points="238,40 245,28 249,28 249,52 245,52 238,40" stroke-linejoin="round" width="11" height="24" fill="rgb(121,183,50)" stroke="rgb(96,146,39)" stroke-width="1" opacity="0.75" />
			</g>
		</g>
		<g>
			<title>slyA (JDHOFBHF_02319)
Transcriptional regulator SlyA</title>
			<polygon class="slyA (JDHOFBHF_02319)
Transcriptional regulator SlyA" points="261,10 277,40 261,70" fill="rgb(255,255,255)" fill-opacity="1.0" stroke="rgb(0,0,0)" stroke-width="2"  />
			<g>
				<title>MarR (PF01047)
"MarR family"</title>
				<polygon class="PF01047" points="264,28 267,28 269,32 269,48 267,52 264,52" stroke-linejoin="round" width="5" height="24" fill="rgb(60,185,86)" stroke="rgb(48,148,68)" stroke-width="1" opacity="0.75" />
			</g>
		</g>
		<g>
			<title> (JDHOFBHF_02320)
hypothetical protein</title>
			<polygon class=" (JDHOFBHF_02320)
hypothetical protein" points="315,25 308,25 308,10 278,40 308,70 308,55 315,55" fill="rgb(255,255,255)" fill-opacity="1.0" stroke="rgb(0,0,0)" stroke-width="2"  />
			<g>
				<title>Peptidase_M23 (PF01551)
"Peptidase family M23"</title>
				<polygon class="PF01551" points="282,40 287,35 287,45" stroke-linejoin="round" width="9" height="24" fill="rgb(65,169,193)" stroke="rgb(51,135,154)" stroke-width="1" opacity="0.75" />
			</g>
			<g>
				<title>LysM (PF01476)
"LysM domain"</title>
				<rect class="PF01476" x="296" y="28" stroke-linejoin="round" width="4" height="24" fill="rgb(200,86,203)" stroke="rgb(160,68,162)" stroke-width="1" opacity="0.75" />
			</g>
			<g>
				<title>LysM (PF01476)
"LysM domain"</title>
				<rect class="PF01476" x="304" y="28" stroke-linejoin="round" width="4" height="24" fill="rgb(200,86,203)" stroke="rgb(160,68,162)" stroke-width="1" opacity="0.75" />
			</g>
		</g>
		<g>
			<title>pcm_2 (JDHOFBHF_02321)
Protein-L-isoaspartate O-methyltransferase</title>
			<polygon class="pcm_2 (JDHOFBHF_02321)
Protein-L-isoaspartate O-methyltransferase" points="317,40 338,10 338,70" fill="rgb(255,255,255)" fill-opacity="1.0" stroke="rgb(0,0,0)" stroke-width="2"  />
			<g>
				<title>PCMT (PF01135)
"Protein-L-isoaspartate(D-aspartate) O-methyltransferase (PCMT)"</title>
				<polygon class="PF01135" points="321,40 330,28 337,28 337,52 330,52" stroke-linejoin="round" width="20" height="24" fill="rgb(204,80,91)" stroke="rgb(163,64,72)" stroke-width="1" opacity="0.75" />
			</g>
		</g>
	</g>
</svg>
