<svg version="1.1" baseProfile="full" xmlns="http://www.w3.org/2000/svg" width="381.8333333333333" height="80">
	<g>
		<line x1="10" y1="40.0" x2="371.8333333333333" y2="40.0" style="stroke:rgb(70,70,70); stroke-width:3 "/>
		<g>
			<title>chrR (NKHAFMMO_00924)
Anti-sigma-E factor ChrR</title>
			<polygon class="chrR (NKHAFMMO_00924)
Anti-sigma-E factor ChrR" points="22,10 43,40 22,70" fill="rgb(255,255,255)" fill-opacity="1.0" stroke="rgb(0,0,0)" stroke-width="2"  />
			<g>
				<title>Cupin_7 (PF12973)
"ChrR Cupin-like domain"</title>
				<polygon class="PF12973" points="32,30 39,40 32,50" stroke-linejoin="round" width="8" height="24" fill="rgb(121,57,179)" stroke="rgb(96,45,143)" stroke-width="1" opacity="0.75" />
			</g>
		</g>
		<g>
			<title>mutY (NKHAFMMO_00925)
Adenine DNA glycosylase</title>
			<polygon class="mutY (NKHAFMMO_00925)
Adenine DNA glycosylase" points="47,25 51,25 51,10 81,40 51,70 51,55 47,55" fill="rgb(255,255,255)" fill-opacity="1.0" stroke="rgb(0,0,0)" stroke-width="2"  />
			<g>
				<title>HhH-GPD (PF00730)
"HhH-GPD superfamily base excision DNA repair protein"</title>
				<rect class="PF00730" x="51" y="28" stroke-linejoin="round" width="13" height="24" fill="rgb(190,78,115)" stroke="rgb(152,62,92)" stroke-width="1" opacity="0.75" />
			</g>
			<g>
				<title>EndIII_4Fe-2S (PF10576)
"Iron-sulfur binding domain of endonuclease III"</title>
				<polygon class="PF10576" points="66,29 67,30 67,50 66,51" stroke-linejoin="round" width="1" height="24" fill="rgb(203,113,64)" stroke="rgb(162,90,51)" stroke-width="1" opacity="0.75" />
			</g>
			<g>
				<title>NUDIX_4 (PF14815)
"NUDIX domain"</title>
				<polygon class="PF14815" points="70,33 77,40 70,47" stroke-linejoin="round" width="10" height="24" fill="rgb(69,227,190)" stroke="rgb(55,181,152)" stroke-width="1" opacity="0.75" />
			</g>
		</g>
		<g>
			<title>alkB2 (NKHAFMMO_00926)
Alkane 1-monooxygenase 2</title>
			<polygon class="alkB2 (NKHAFMMO_00926)
Alkane 1-monooxygenase 2" points="83,25 89,25 89,10 119,40 89,70 89,55 83,55" fill="rgb(255,255,255)" fill-opacity="1.0" stroke="rgb(0,0,0)" stroke-width="2"  />
			<g>
				<title>FA_desaturase (PF00487)
"Fatty acid desaturase"</title>
				<polygon class="PF00487" points="92,28 103,28 115,40 115,40 103,52 92,52" stroke-linejoin="round" width="23" height="24" fill="rgb(104,51,205)" stroke="rgb(83,40,164)" stroke-width="1" opacity="0.75" />
			</g>
		</g>
		<g>
			<title>nrsF (NKHAFMMO_00927)
Anti-sigma-F factor NrsF</title>
			<polygon class="nrsF (NKHAFMMO_00927)
Anti-sigma-F factor NrsF" points="120,40 141,10 141,70" fill="rgb(255,255,255)" fill-opacity="1.0" stroke="rgb(0,0,0)" stroke-width="2"  />
			<g>
				<title>NrsF (PF06532)
"Negative regulator of sigma F"</title>
				<polygon class="PF06532" points="124,40 132,28 140,28 140,52 132,52" stroke-linejoin="round" width="20" height="24" fill="rgb(100,222,119)" stroke="rgb(80,177,95)" stroke-width="1" opacity="0.75" />
			</g>
		</g>
		<g>
			<title>sigF (NKHAFMMO_00928)
ECF RNA polymerase sigma factor SigF</title>
			<polygon class="sigF (NKHAFMMO_00928)
ECF RNA polymerase sigma factor SigF" points="141,40 159,10 159,70" fill="rgb(255,255,255)" fill-opacity="1.0" stroke="rgb(0,0,0)" stroke-width="2"  />
			<g>
				<title>Sigma70_r2 (PF04542)
"Sigma-70 region 2"</title>
				<polygon class="PF04542" points="149,33 152,28 156,28 156,52 152,52 149,47" stroke-linejoin="round" width="7" height="24" fill="rgb(184,59,197)" stroke="rgb(147,47,157)" stroke-width="1" opacity="0.75" />
			</g>
		</g>
		<g>
			<title> (NKHAFMMO_00929)
hypothetical protein</title>
			<polygon class=" (NKHAFMMO_00929)
hypothetical protein" points="165,10 174,40 165,70" fill="rgb(255,255,255)" fill-opacity="1.0" stroke="rgb(0,0,0)" stroke-width="2"  />
			<g>
				<title>DUF2282 (PF10048)
"Predicted integral membrane protein (DUF2282)"</title>
				<polygon class="PF10048" points="168,31 171,40 168,49" stroke-linejoin="round" width="5" height="24" fill="rgb(58,205,168)" stroke="rgb(46,164,134)" stroke-width="1" opacity="0.75" />
			</g>
		</g>
		<g>
			<title> (NKHAFMMO_00930)
hypothetical protein</title>
			<polygon class=" (NKHAFMMO_00930)
hypothetical protein" points="176,10 204,40 176,70" fill="rgb(255,255,255)" fill-opacity="1.0" stroke="rgb(0,0,0)" stroke-width="2"  />
			<g>
				<title>DUF692 (PF05114)
"Protein of unknown function (DUF692)"</title>
				<polygon class="PF05114" points="176,28 188,28 200,40 188,52 176,52" stroke-linejoin="round" width="26" height="24" fill="rgb(63,196,127)" stroke="rgb(50,156,101)" stroke-width="1" opacity="0.75" />
			</g>
		</g>
		<g>
			<title> (NKHAFMMO_00931)
hypothetical protein</title>
			<polygon class=" (NKHAFMMO_00931)
hypothetical protein" points="204,10 229,40 204,70" fill="rgb(255,255,255)" fill-opacity="1.0" stroke="rgb(0,0,0)" stroke-width="2"  />
			<g>
				<title>DUF2063 (PF09836)
"Putative DNA-binding domain"</title>
				<rect class="PF09836" x="204" y="28" stroke-linejoin="round" width="9" height="24" fill="rgb(88,194,190)" stroke="rgb(70,155,152)" stroke-width="1" opacity="0.75" />
			</g>
		</g>
		<g>
			<title> (NKHAFMMO_00932)
hypothetical protein</title>
			<polygon class=" (NKHAFMMO_00932)
hypothetical protein" points="230,10 244,40 230,70" fill="rgb(255,255,255)" fill-opacity="1.0" stroke="rgb(0,0,0)" stroke-width="2"  />
			<g>
				<title>DoxX (PF07681)
"DoxX"</title>
				<polygon class="PF07681" points="232,28 235,28 240,38 240,42 235,52 232,52" stroke-linejoin="round" width="8" height="24" fill="rgb(93,188,216)" stroke="rgb(74,150,172)" stroke-width="1" opacity="0.75" />
			</g>
		</g>
		<g>
			<title>purU (NKHAFMMO_00933)
Formyltetrahydrofolate deformylase</title>
			<polygon class="purU (NKHAFMMO_00933)
Formyltetrahydrofolate deformylase" points="246,40 275,10 275,70" fill="rgb(255,255,255)" fill-opacity="1.0" stroke="rgb(0,0,0)" stroke-width="2"  />
			<g>
				<title>Formyl_trans_N (PF00551)
"Formyl transferase"</title>
				<polygon class="PF00551" points="250,40 262,28 266,28 266,52 262,52" stroke-linejoin="round" width="17" height="24" fill="rgb(111,183,66)" stroke="rgb(88,146,52)" stroke-width="1" opacity="0.75" />
			</g>
			<g>
				<title>ACT (PF01842)
"ACT domain"</title>
				<rect class="PF01842" x="269" y="28" stroke-linejoin="round" width="6" height="24" fill="rgb(67,209,69)" stroke="rgb(53,167,55)" stroke-width="1" opacity="0.75" />
			</g>
		</g>
		<g>
			<title> (NKHAFMMO_00934)
hypothetical protein</title>
			<polygon class=" (NKHAFMMO_00934)
hypothetical protein" points="345,25 315,25 315,10 285,40 315,70 315,55 345,55" fill="rgb(255,255,255)" fill-opacity="1.0" stroke="rgb(0,0,0)" stroke-width="2"  />
			<g>
				<title>Pyr_redox_3 (PF13738)
"Pyridine nucleotide-disulphide oxidoreductase"</title>
				<rect class="PF13738" x="307" y="28" stroke-linejoin="round" width="20" height="24" fill="rgb(213,91,84)" stroke="rgb(170,72,67)" stroke-width="1" opacity="0.75" />
			</g>
			<g>
				<title>SnoaL_2 (PF12680)
"SnoaL-like domain"</title>
				<rect class="PF12680" x="333" y="28" stroke-linejoin="round" width="10" height="24" fill="rgb(184,69,155)" stroke="rgb(147,55,124)" stroke-width="1" opacity="0.75" />
			</g>
		</g>
	</g>
</svg>
