<svg version="1.1" baseProfile="full" xmlns="http://www.w3.org/2000/svg" width="708.8666666666667" height="80">
	<g>
		<line x1="10" y1="40.0" x2="698.8666666666667" y2="40.0" style="stroke:rgb(70,70,70); stroke-width:3 "/>
		<g>
			<title>secA_1 (PEOEJGFP_00119)
Protein translocase subunit SecA</title>
			<polygon class="secA_1 (PEOEJGFP_00119)
Protein translocase subunit SecA" points="50,25 86,25 86,10 116,40 86,70 86,55 50,55" fill="rgb(255,255,255)" fill-opacity="1.0" stroke="rgb(0,0,0)" stroke-width="2"  />
			<g>
				<title>SecA_DEAD (PF07517)
"SecA DEAD-like domain"</title>
				<rect class="PF07517" x="54" y="28" stroke-linejoin="round" width="38" height="24" fill="rgb(132,192,80)" stroke="rgb(105,153,64)" stroke-width="1" opacity="0.75" />
			</g>
		</g>
		<g>
			<title>czcB (PEOEJGFP_00120)
Cobalt-zinc-cadmium resistance protein CzcB</title>
			<polygon class="czcB (PEOEJGFP_00120)
Cobalt-zinc-cadmium resistance protein CzcB" points="116,10 142,40 116,70" fill="rgb(255,255,255)" fill-opacity="1.0" stroke="rgb(0,0,0)" stroke-width="2"  />
			<g>
				<title>HlyD_D23 (PF16576)
"Barrel-sandwich domain of CusB or HlyD membrane-fusion"</title>
				<polygon class="PF16576" points="118,28 127,28 138,40 127,52 118,52" stroke-linejoin="round" width="23" height="24" fill="rgb(70,190,92)" stroke="rgb(56,152,73)" stroke-width="1" opacity="0.75" />
			</g>
		</g>
		<g>
			<title> (PEOEJGFP_00121)
hypothetical protein</title>
			<polygon class=" (PEOEJGFP_00121)
hypothetical protein" points="145,40 154,10 154,70" fill="rgb(255,255,255)" fill-opacity="1.0" stroke="rgb(0,0,0)" stroke-width="2"  />
		</g>
		<g>
			<title> (PEOEJGFP_00122)
hypothetical protein</title>
			<polygon class=" (PEOEJGFP_00122)
hypothetical protein" points="194,25 194,25 194,10 164,40 194,70 194,55 194,55" fill="rgb(255,255,255)" fill-opacity="1.0" stroke="rgb(0,0,0)" stroke-width="2"  />
			<g>
				<title>Glyco_hydro_26 (PF02156)
"Glycosyl hydrolase family 26"</title>
				<polygon class="PF02156" points="168,40 180,28 182,28 182,52 180,52 168,40" stroke-linejoin="round" width="14" height="24" fill="rgb(179,136,76)" stroke="rgb(143,108,60)" stroke-width="1" opacity="0.75" />
			</g>
		</g>
		<g>
			<title> (PEOEJGFP_00123)
hypothetical protein</title>
			<polygon class=" (PEOEJGFP_00123)
hypothetical protein" points="255,25 225,25 225,10 195,40 225,70 225,55 255,55" fill="rgb(255,255,255)" fill-opacity="1.0" stroke="rgb(0,0,0)" stroke-width="2"  />
			<g>
				<title>Glyco_transf_21 (PF13506)
"Glycosyl transferase family 21"</title>
				<rect class="PF13506" x="222" y="28" stroke-linejoin="round" width="17" height="24" fill="rgb(174,185,57)" stroke="rgb(139,148,45)" stroke-width="1" opacity="0.75" />
			</g>
		</g>
		<g>
			<title> (PEOEJGFP_00125)
hypothetical protein</title>
			<polygon class=" (PEOEJGFP_00125)
hypothetical protein" points="303,40 317,10 317,70" fill="rgb(255,255,255)" fill-opacity="1.0" stroke="rgb(0,0,0)" stroke-width="2"  />
			<g>
				<title>Autoind_bind (PF03472)
"Autoinducer binding domain"</title>
				<polygon class="PF03472" points="306,40 312,28 316,28 316,52 312,52" stroke-linejoin="round" width="13" height="24" fill="rgb(99,181,52)" stroke="rgb(79,144,41)" stroke-width="1" opacity="0.75" />
			</g>
		</g>
		<g>
			<title> (PEOEJGFP_00126)
hypothetical protein</title>
			<polygon class=" (PEOEJGFP_00126)
hypothetical protein" points="319,10 340,40 319,70" fill="rgb(255,255,255)" fill-opacity="1.0" stroke="rgb(0,0,0)" stroke-width="2"  />
			<g>
				<title>Autoind_bind (PF03472)
"Autoinducer binding domain"</title>
				<polygon class="PF03472" points="322,28 328,28 332,34 332,46 328,52 322,52" stroke-linejoin="round" width="10" height="24" fill="rgb(99,181,52)" stroke="rgb(79,144,41)" stroke-width="1" opacity="0.75" />
			</g>
			<g>
				<title>GerE (PF00196)
"Bacterial regulatory proteins, luxR family"</title>
				<polygon class="PF00196" points="334,37 336,40 334,43" stroke-linejoin="round" width="5" height="24" fill="rgb(219,94,82)" stroke="rgb(175,75,65)" stroke-width="1" opacity="0.75" />
			</g>
		</g>
		<g>
			<title> (PEOEJGFP_00127)
hypothetical protein</title>
			<polygon class=" (PEOEJGFP_00127)
hypothetical protein" points="343,10 365,40 343,70" fill="rgb(255,255,255)" fill-opacity="1.0" stroke="rgb(0,0,0)" stroke-width="2"  />
			<g>
				<title>Autoind_synth (PF00765)
"Autoinducer synthase"</title>
				<polygon class="PF00765" points="344,28 352,28 361,40 352,52 344,52" stroke-linejoin="round" width="18" height="24" fill="rgb(197,72,80)" stroke="rgb(157,57,64)" stroke-width="1" opacity="0.75" />
			</g>
		</g>
		<g>
			<title>uspF_1 (PEOEJGFP_00128)
Universal stress protein F</title>
			<polygon class="uspF_1 (PEOEJGFP_00128)
Universal stress protein F" points="368,40 382,10 382,70" fill="rgb(255,255,255)" fill-opacity="1.0" stroke="rgb(0,0,0)" stroke-width="2"  />
			<g>
				<title>Usp (PF00582)
"Universal stress protein family"</title>
				<polygon class="PF00582" points="371,40 377,28 382,28 382,52 377,52" stroke-linejoin="round" width="14" height="24" fill="rgb(129,199,88)" stroke="rgb(103,159,70)" stroke-width="1" opacity="0.75" />
			</g>
		</g>
		<g>
			<title> (PEOEJGFP_00129)
hypothetical protein</title>
			<polygon class=" (PEOEJGFP_00129)
hypothetical protein" points="469,25 412,25 412,10 382,40 412,70 412,55 469,55" fill="rgb(255,255,255)" fill-opacity="1.0" stroke="rgb(0,0,0)" stroke-width="2"  />
			<g>
				<title>DUF3394 (PF11874)
"Domain of unknown function (DUF3394)"</title>
				<polygon class="PF11874" points="386,40 398,28 401,28 401,52 398,52" stroke-linejoin="round" width="18" height="24" fill="rgb(59,197,181)" stroke="rgb(47,157,144)" stroke-width="1" opacity="0.75" />
			</g>
			<g>
				<title>DctM (PF06808)
"Tripartite ATP-independent periplasmic transporter, DctM component"</title>
				<rect class="PF06808" x="402" y="28" stroke-linejoin="round" width="53" height="24" fill="rgb(223,62,92)" stroke="rgb(178,49,73)" stroke-width="1" opacity="0.75" />
			</g>
		</g>
		<g>
			<title> (PEOEJGFP_00130)
hypothetical protein</title>
			<polygon class=" (PEOEJGFP_00130)
hypothetical protein" points="505,25 503,25 503,10 473,40 503,70 503,55 505,55" fill="rgb(255,255,255)" fill-opacity="1.0" stroke="rgb(0,0,0)" stroke-width="2"  />
			<g>
				<title>NMT1_3 (PF16868)
"NMT1-like family"</title>
				<polygon class="PF16868" points="477,40 489,28 501,28 501,52 489,52" stroke-linejoin="round" width="28" height="24" fill="rgb(216,93,128)" stroke="rgb(172,74,102)" stroke-width="1" opacity="0.75" />
			</g>
		</g>
		<g>
			<title> (PEOEJGFP_00131)
hypothetical protein</title>
			<polygon class=" (PEOEJGFP_00131)
hypothetical protein" points="507,40 535,10 535,70" fill="rgb(255,255,255)" fill-opacity="1.0" stroke="rgb(0,0,0)" stroke-width="2"  />
			<g>
				<title>SIS (PF01380)
"SIS domain"</title>
				<polygon class="PF01380" points="511,40 522,29 522,51" stroke-linejoin="round" width="12" height="24" fill="rgb(212,106,227)" stroke="rgb(169,84,181)" stroke-width="1" opacity="0.75" />
			</g>
		</g>
		<g>
			<title> (PEOEJGFP_00132)
putative aminotransferase</title>
			<polygon class=" (PEOEJGFP_00132)
putative aminotransferase" points="541,25 555,25 555,10 585,40 555,70 555,55 541,55" fill="rgb(255,255,255)" fill-opacity="1.0" stroke="rgb(0,0,0)" stroke-width="2"  />
			<g>
				<title>Aminotran_3 (PF00202)
"Aminotransferase class-III"</title>
				<polygon class="PF00202" points="541,28 568,28 580,40 568,52 541,52" stroke-linejoin="round" width="43" height="24" fill="rgb(49,163,189)" stroke="rgb(39,130,151)" stroke-width="1" opacity="0.75" />
			</g>
		</g>
		<g>
			<title>kce (PEOEJGFP_00133)
3-keto-5-aminohexanoate cleavage enzyme</title>
			<polygon class="kce (PEOEJGFP_00133)
3-keto-5-aminohexanoate cleavage enzyme" points="585,10 610,40 585,70" fill="rgb(255,255,255)" fill-opacity="1.0" stroke="rgb(0,0,0)" stroke-width="2"  />
			<g>
				<title>BKACE (PF05853)
"beta-keto acid cleavage enzyme"</title>
				<polygon class="PF05853" points="585,28 596,28 606,40 596,52 585,52" stroke-linejoin="round" width="24" height="24" fill="rgb(176,96,196)" stroke="rgb(140,76,156)" stroke-width="1" opacity="0.75" />
			</g>
		</g>
		<g>
			<title>pdhD (PEOEJGFP_00134)
Dihydrolipoyl dehydrogenase</title>
			<polygon class="pdhD (PEOEJGFP_00134)
Dihydrolipoyl dehydrogenase" points="656,25 639,25 639,10 609,40 639,70 639,55 656,55" fill="rgb(255,255,255)" fill-opacity="1.0" stroke="rgb(0,0,0)" stroke-width="2"  />
			<g>
				<title>Pyr_redox_dim (PF02852)
"Pyridine nucleotide-disulphide oxidoreductase, dimerisation domain"</title>
				<polygon class="PF02852" points="613,40 621,32 621,48" stroke-linejoin="round" width="10" height="24" fill="rgb(191,148,67)" stroke="rgb(152,118,53)" stroke-width="1" opacity="0.75" />
			</g>
			<g>
				<title>Pyr_redox_2 (PF07992)
"Pyridine nucleotide-disulphide oxidoreductase"</title>
				<polygon class="PF07992" points="624,29 625,28 655,28 655,52 625,52 624,51" stroke-linejoin="round" width="31" height="24" fill="rgb(83,223,167)" stroke="rgb(66,178,133)" stroke-width="1" opacity="0.75" />
			</g>
		</g>
		<g>
			<title> (PEOEJGFP_00135)
hypothetical protein</title>
			<polygon class=" (PEOEJGFP_00135)
hypothetical protein" points="658,40 682,10 682,70" fill="rgb(255,255,255)" fill-opacity="1.0" stroke="rgb(0,0,0)" stroke-width="2"  />
			<g>
				<title>Glycos_transf_2 (PF00535)
"Glycosyl transferase family 2"</title>
				<polygon class="PF00535" points="665,36 672,28 681,28 681,52 672,52 665,44" stroke-linejoin="round" width="16" height="24" fill="rgb(224,122,96)" stroke="rgb(179,97,76)" stroke-width="1" opacity="0.75" />
			</g>
		</g>
	</g>
</svg>
