<svg version="1.1" baseProfile="full" xmlns="http://www.w3.org/2000/svg" width="707.7666666666667" height="80">
	<g>
		<line x1="10" y1="40.0" x2="697.7666666666667" y2="40.0" style="stroke:rgb(70,70,70); stroke-width:3 "/>
		<g>
			<title> (GLPIOCIE_01908)
hypothetical protein</title>
			<polygon class=" (GLPIOCIE_01908)
hypothetical protein" points="59,25 60,25 60,10 90,40 60,70 60,55 59,55" fill="rgb(255,255,255)" fill-opacity="1.0" stroke="rgb(0,0,0)" stroke-width="2"  />
			<g>
				<title>Dynamin_N (PF00350)
"Dynamin family"</title>
				<rect class="PF00350" x="60" y="28" stroke-linejoin="round" width="14" height="24" fill="rgb(114,185,61)" stroke="rgb(91,148,48)" stroke-width="1" opacity="0.75" />
			</g>
		</g>
		<g>
			<title> (GLPIOCIE_01909)
hypothetical protein</title>
			<polygon class=" (GLPIOCIE_01909)
hypothetical protein" points="94,10 106,40 94,70" fill="rgb(255,255,255)" fill-opacity="1.0" stroke="rgb(0,0,0)" stroke-width="2"  />
		</g>
		<g>
			<title> (GLPIOCIE_01910)
hypothetical protein</title>
			<polygon class=" (GLPIOCIE_01910)
hypothetical protein" points="107,10 133,40 107,70" fill="rgb(255,255,255)" fill-opacity="1.0" stroke="rgb(0,0,0)" stroke-width="2"  />
		</g>
		<g>
			<title>deoD (GLPIOCIE_01911)
Purine nucleoside phosphorylase DeoD-type</title>
			<polygon class="deoD (GLPIOCIE_01911)
Purine nucleoside phosphorylase DeoD-type" points="134,40 157,10 157,70" fill="rgb(255,255,255)" fill-opacity="1.0" stroke="rgb(0,0,0)" stroke-width="2"  />
			<g>
				<title>PNP_UDP_1 (PF01048)
"Phosphorylase superfamily"</title>
				<polygon class="PF01048" points="138,40 147,28 155,28 155,52 147,52" stroke-linejoin="round" width="21" height="24" fill="rgb(75,186,148)" stroke="rgb(60,148,118)" stroke-width="1" opacity="0.75" />
			</g>
		</g>
		<g>
			<title>ecm (GLPIOCIE_01912)
Ethylmalonyl-CoA mutase</title>
			<polygon class="ecm (GLPIOCIE_01912)
Ethylmalonyl-CoA mutase" points="225,25 190,25 190,10 160,40 190,70 190,55 225,55" fill="rgb(255,255,255)" fill-opacity="1.0" stroke="rgb(0,0,0)" stroke-width="2"  />
			<g>
				<title>B12-binding (PF02310)
"B12 binding domain"</title>
				<polygon class="PF02310" points="164,40 172,32 172,48" stroke-linejoin="round" width="11" height="24" fill="rgb(145,190,60)" stroke="rgb(115,152,48)" stroke-width="1" opacity="0.75" />
			</g>
			<g>
				<title>MM_CoA_mutase (PF01642)
"Methylmalonyl-CoA mutase"</title>
				<rect class="PF01642" x="177" y="28" stroke-linejoin="round" width="48" height="24" fill="rgb(67,86,223)" stroke="rgb(53,68,178)" stroke-width="1" opacity="0.75" />
			</g>
		</g>
		<g>
			<title>plsB (GLPIOCIE_01913)
Glycerol-3-phosphate acyltransferase</title>
			<polygon class="plsB (GLPIOCIE_01913)
Glycerol-3-phosphate acyltransferase" points="231,25 247,25 247,10 277,40 247,70 247,55 231,55" fill="rgb(255,255,255)" fill-opacity="1.0" stroke="rgb(0,0,0)" stroke-width="2"  />
			<g>
				<title>Acyltransferase (PF01553)
"Acyltransferase"</title>
				<rect class="PF01553" x="244" y="28" stroke-linejoin="round" width="13" height="24" fill="rgb(87,176,216)" stroke="rgb(69,140,172)" stroke-width="1" opacity="0.75" />
			</g>
		</g>
		<g>
			<title>ccr_1 (GLPIOCIE_01914)
Crotonyl-CoA carboxylase/reductase</title>
			<polygon class="ccr_1 (GLPIOCIE_01914)
Crotonyl-CoA carboxylase/reductase" points="280,25 294,25 294,10 324,40 294,70 294,55 280,55" fill="rgb(255,255,255)" fill-opacity="1.0" stroke="rgb(0,0,0)" stroke-width="2"  />
			<g>
				<title>ADH_N (PF08240)
"Alcohol dehydrogenase GroES-like domain"</title>
				<rect class="PF08240" x="287" y="28" stroke-linejoin="round" width="11" height="24" fill="rgb(211,65,138)" stroke="rgb(168,51,110)" stroke-width="1" opacity="0.75" />
			</g>
			<g>
				<title>ADH_zinc_N (PF00107)
"Zinc-binding dehydrogenase"</title>
				<polygon class="PF00107" points="303,28 307,28 318,39 318,41 307,52 303,52" stroke-linejoin="round" width="15" height="24" fill="rgb(81,108,215)" stroke="rgb(64,86,172)" stroke-width="1" opacity="0.75" />
			</g>
		</g>
		<g>
			<title> (GLPIOCIE_01915)
hypothetical protein</title>
			<polygon class=" (GLPIOCIE_01915)
hypothetical protein" points="330,10 336,40 330,70" fill="rgb(255,255,255)" fill-opacity="1.0" stroke="rgb(0,0,0)" stroke-width="2"  />
		</g>
		<g>
			<title> (GLPIOCIE_01916)
hypothetical protein</title>
			<polygon class=" (GLPIOCIE_01916)
hypothetical protein" points="343,10 364,40 343,70" fill="rgb(255,255,255)" fill-opacity="1.0" stroke="rgb(0,0,0)" stroke-width="2"  />
			<g>
				<title>Autoind_synth (PF00765)
"Autoinducer synthase"</title>
				<polygon class="PF00765" points="343,28 352,28 360,40 360,40 352,52 343,52" stroke-linejoin="round" width="17" height="24" fill="rgb(197,72,80)" stroke="rgb(157,57,64)" stroke-width="1" opacity="0.75" />
			</g>
		</g>
		<g>
			<title>recD2_2 (GLPIOCIE_01917)
ATP-dependent RecD-like DNA helicase</title>
			<polygon class="recD2_2 (GLPIOCIE_01917)
ATP-dependent RecD-like DNA helicase" points="365,25 385,25 385,10 415,40 385,70 385,55 365,55" fill="rgb(255,255,255)" fill-opacity="1.0" stroke="rgb(0,0,0)" stroke-width="2"  />
			<g>
				<title>AAA_30 (PF13604)
"AAA domain"</title>
				<rect class="PF13604" x="368" y="28" stroke-linejoin="round" width="25" height="24" fill="rgb(127,205,82)" stroke="rgb(101,164,65)" stroke-width="1" opacity="0.75" />
			</g>
			<g>
				<title>UvrD_C_2 (PF13538)
"UvrD-like helicase C-terminal domain"</title>
				<polygon class="PF13538" points="406,35 411,40 411,40 406,45" stroke-linejoin="round" width="5" height="24" fill="rgb(62,140,196)" stroke="rgb(49,111,156)" stroke-width="1" opacity="0.75" />
			</g>
		</g>
		<g>
			<title> (GLPIOCIE_01918)
hypothetical protein</title>
			<polygon class=" (GLPIOCIE_01918)
hypothetical protein" points="419,10 426,40 419,70" fill="rgb(255,255,255)" fill-opacity="1.0" stroke="rgb(0,0,0)" stroke-width="2"  />
			<g>
				<title>AsnC_trans_reg (PF01037)
"Lrp/AsnC ligand binding domain"</title>
				<polygon class="PF01037" points="419,28 420,28 423,40 420,52 419,52" stroke-linejoin="round" width="7" height="24" fill="rgb(134,72,182)" stroke="rgb(107,57,145)" stroke-width="1" opacity="0.75" />
			</g>
		</g>
		<g>
			<title> (GLPIOCIE_01919)
hypothetical protein</title>
			<polygon class=" (GLPIOCIE_01919)
hypothetical protein" points="427,40 455,10 455,70" fill="rgb(255,255,255)" fill-opacity="1.0" stroke="rgb(0,0,0)" stroke-width="2"  />
			<g>
				<title>Alph_Pro_TM (PF09608)
"Putative transmembrane protein (Alph_Pro_TM)"</title>
				<polygon class="PF09608" points="431,40 442,28 449,28 449,52 442,52" stroke-linejoin="round" width="22" height="24" fill="rgb(219,219,64)" stroke="rgb(175,175,51)" stroke-width="1" opacity="0.75" />
			</g>
		</g>
		<g>
			<title>rfuD (GLPIOCIE_01920)
putative riboflavin import permease protein RfuD</title>
			<polygon class="rfuD (GLPIOCIE_01920)
putative riboflavin import permease protein RfuD" points="490,25 488,25 488,10 458,40 488,70 488,55 490,55" fill="rgb(255,255,255)" fill-opacity="1.0" stroke="rgb(0,0,0)" stroke-width="2"  />
			<g>
				<title>BPD_transp_2 (PF02653)
"Branched-chain amino acid transport system / permease component"</title>
				<polygon class="PF02653" points="462,40 474,28 488,28 488,52 474,52" stroke-linejoin="round" width="29" height="24" fill="rgb(69,130,196)" stroke="rgb(55,104,156)" stroke-width="1" opacity="0.75" />
			</g>
		</g>
		<g>
			<title> (GLPIOCIE_01921)
hypothetical protein</title>
			<polygon class=" (GLPIOCIE_01921)
hypothetical protein" points="526,25 520,25 520,10 490,40 520,70 520,55 526,55" fill="rgb(255,255,255)" fill-opacity="1.0" stroke="rgb(0,0,0)" stroke-width="2"  />
			<g>
				<title>BPD_transp_2 (PF02653)
"Branched-chain amino acid transport system / permease component"</title>
				<polygon class="PF02653" points="494,40 506,28 520,28 520,52 506,52" stroke-linejoin="round" width="28" height="24" fill="rgb(69,130,196)" stroke="rgb(55,104,156)" stroke-width="1" opacity="0.75" />
			</g>
		</g>
		<g>
			<title>xylG_2 (GLPIOCIE_01922)
Xylose import ATP-binding protein XylG</title>
			<polygon class="xylG_2 (GLPIOCIE_01922)
Xylose import ATP-binding protein XylG" points="578,25 556,25 556,10 526,40 556,70 556,55 578,55" fill="rgb(255,255,255)" fill-opacity="1.0" stroke="rgb(0,0,0)" stroke-width="2"  />
			<g>
				<title>ABC_tran (PF00005)
"ABC transporter"</title>
				<polygon class="PF00005" points="533,37 542,28 549,28 549,52 542,52 533,43" stroke-linejoin="round" width="16" height="24" fill="rgb(129,201,63)" stroke="rgb(103,160,50)" stroke-width="1" opacity="0.75" />
			</g>
			<g>
				<title>ABC_tran (PF00005)
"ABC transporter"</title>
				<rect class="PF00005" x="560" y="28" stroke-linejoin="round" width="14" height="24" fill="rgb(129,201,63)" stroke="rgb(103,160,50)" stroke-width="1" opacity="0.75" />
			</g>
		</g>
		<g>
			<title>tmpC (GLPIOCIE_01923)
Membrane lipoprotein TmpC</title>
			<polygon class="tmpC (GLPIOCIE_01923)
Membrane lipoprotein TmpC" points="613,25 610,25 610,10 580,40 610,70 610,55 613,55" fill="rgb(255,255,255)" fill-opacity="1.0" stroke="rgb(0,0,0)" stroke-width="2"  />
			<g>
				<title>Bmp (PF02608)
"ABC transporter substrate-binding protein PnrA-like"</title>
				<polygon class="PF02608" points="584,40 596,28 610,28 610,52 596,52" stroke-linejoin="round" width="29" height="24" fill="rgb(59,187,146)" stroke="rgb(47,149,116)" stroke-width="1" opacity="0.75" />
			</g>
		</g>
		<g>
			<title>rimI (GLPIOCIE_01924)
[Ribosomal protein S18]-alanine N-acetyltransferase</title>
			<polygon class="rimI (GLPIOCIE_01924)
[Ribosomal protein S18]-alanine N-acetyltransferase" points="618,40 632,10 632,70" fill="rgb(255,255,255)" fill-opacity="1.0" stroke="rgb(0,0,0)" stroke-width="2"  />
			<g>
				<title>Acetyltransf_1 (PF00583)
"Acetyltransferase (GNAT) family"</title>
				<polygon class="PF00583" points="621,40 627,28 631,28 631,52 627,52 621,40" stroke-linejoin="round" width="10" height="24" fill="rgb(121,183,50)" stroke="rgb(96,146,39)" stroke-width="1" opacity="0.75" />
			</g>
		</g>
		<g>
			<title> (GLPIOCIE_01925)
hypothetical protein</title>
			<polygon class=" (GLPIOCIE_01925)
hypothetical protein" points="633,40 653,10 653,70" fill="rgb(255,255,255)" fill-opacity="1.0" stroke="rgb(0,0,0)" stroke-width="2"  />
			<g>
				<title>Peptidase_M22 (PF00814)
"Glycoprotease family"</title>
				<polygon class="PF00814" points="641,34 645,28 649,28 649,52 645,52 641,46" stroke-linejoin="round" width="8" height="24" fill="rgb(178,70,94)" stroke="rgb(142,56,75)" stroke-width="1" opacity="0.75" />
			</g>
		</g>
		<g>
			<title>nfuA_1 (GLPIOCIE_01926)
Fe/S biogenesis protein NfuA</title>
			<polygon class="nfuA_1 (GLPIOCIE_01926)
Fe/S biogenesis protein NfuA" points="652,40 670,10 670,70" fill="rgb(255,255,255)" fill-opacity="1.0" stroke="rgb(0,0,0)" stroke-width="2"  />
			<g>
				<title>NifU (PF01106)
"NifU-like domain"</title>
				<polygon class="PF01106" points="656,40 658,37 658,43" stroke-linejoin="round" width="6" height="24" fill="rgb(183,133,85)" stroke="rgb(146,106,67)" stroke-width="1" opacity="0.75" />
			</g>
			<g>
				<title>Nfu_N (PF08712)
"Scaffold protein Nfu/NifU N terminal"</title>
				<polygon class="PF08712" points="662,30 664,28 670,28 670,52 664,52 662,50" stroke-linejoin="round" width="8" height="24" fill="rgb(138,223,98)" stroke="rgb(110,178,78)" stroke-width="1" opacity="0.75" />
			</g>
		</g>
		<g>
			<title>pcs (GLPIOCIE_01927)
Phosphatidylcholine synthase</title>
			<polygon class="pcs (GLPIOCIE_01927)
Phosphatidylcholine synthase" points="673,40 696,10 696,70" fill="rgb(255,255,255)" fill-opacity="1.0" stroke="rgb(0,0,0)" stroke-width="2"  />
			<g>
				<title>CDP-OH_P_transf (PF01066)
"CDP-alcohol phosphatidyltransferase"</title>
				<rect class="PF01066" x="690" y="28" stroke-linejoin="round" width="5" height="24" fill="rgb(100,201,161)" stroke="rgb(80,160,128)" stroke-width="1" opacity="0.75" />
			</g>
		</g>
	</g>
</svg>
