<svg version="1.1" baseProfile="full" xmlns="http://www.w3.org/2000/svg" width="392.5" height="80">
	<g>
		<line x1="10" y1="40.0" x2="382.5" y2="40.0" style="stroke:rgb(70,70,70); stroke-width:3 "/>
		<g>
			<title> (EOMLKCNM_02754)
hypothetical protein</title>
			<polygon class=" (EOMLKCNM_02754)
hypothetical protein" points="23,40 38,10 38,70" fill="rgb(255,255,255)" fill-opacity="1.0" stroke="rgb(0,0,0)" stroke-width="2"  />
			<g>
				<title>Transglut_core3 (PF13471)
"Transglutaminase-like superfamily"</title>
				<polygon class="PF13471" points="26,40 32,28 36,28 36,52 32,52" stroke-linejoin="round" width="11" height="24" fill="rgb(63,111,179)" stroke="rgb(50,88,143)" stroke-width="1" opacity="0.75" />
			</g>
		</g>
		<g>
			<title> (EOMLKCNM_02755)
hypothetical protein</title>
			<polygon class=" (EOMLKCNM_02755)
hypothetical protein" points="39,40 48,10 48,70" fill="rgb(255,255,255)" fill-opacity="1.0" stroke="rgb(0,0,0)" stroke-width="2"  />
			<g>
				<title>PqqD (PF05402)
"Coenzyme PQQ synthesis protein D (PqqD)"</title>
				<polygon class="PF05402" points="42,40 45,30 45,50" stroke-linejoin="round" width="6" height="24" fill="rgb(124,62,188)" stroke="rgb(99,49,150)" stroke-width="1" opacity="0.75" />
			</g>
		</g>
		<g>
			<title> (EOMLKCNM_02756)
hypothetical protein</title>
			<polygon class=" (EOMLKCNM_02756)
hypothetical protein" points="52,40 57,10 57,70" fill="rgb(255,255,255)" fill-opacity="1.0" stroke="rgb(0,0,0)" stroke-width="2"  />
		</g>
		<g>
			<title> (EOMLKCNM_02757)
hypothetical protein</title>
			<polygon class=" (EOMLKCNM_02757)
hypothetical protein" points="69,25 76,25 76,10 106,40 76,70 76,55 69,55" fill="rgb(255,255,255)" fill-opacity="1.0" stroke="rgb(0,0,0)" stroke-width="2"  />
			<g>
				<title>NTP_transf_5 (PF14907)
"Uncharacterised nucleotidyltransferase"</title>
				<polygon class="PF14907" points="73,28 90,28 98,36 98,44 90,52 73,52" stroke-linejoin="round" width="25" height="24" fill="rgb(191,137,74)" stroke="rgb(152,109,59)" stroke-width="1" opacity="0.75" />
			</g>
		</g>
		<g>
			<title> (EOMLKCNM_02758)
hypothetical protein</title>
			<polygon class=" (EOMLKCNM_02758)
hypothetical protein" points="107,25 109,25 109,10 139,40 109,70 109,55 107,55" fill="rgb(255,255,255)" fill-opacity="1.0" stroke="rgb(0,0,0)" stroke-width="2"  />
			<g>
				<title>Glycos_transf_2 (PF00535)
"Glycosyl transferase family 2"</title>
				<rect class="PF00535" x="107" y="28" stroke-linejoin="round" width="14" height="24" fill="rgb(224,122,96)" stroke="rgb(179,97,76)" stroke-width="1" opacity="0.75" />
			</g>
		</g>
		<g>
			<title> (EOMLKCNM_02759)
hypothetical protein</title>
			<polygon class=" (EOMLKCNM_02759)
hypothetical protein" points="179,25 170,25 170,10 140,40 170,70 170,55 179,55" fill="rgb(255,255,255)" fill-opacity="1.0" stroke="rgb(0,0,0)" stroke-width="2"  />
			<g>
				<title>Glycos_transf_2 (PF00535)
"Glycosyl transferase family 2"</title>
				<rect class="PF00535" x="165" y="28" stroke-linejoin="round" width="13" height="24" fill="rgb(224,122,96)" stroke="rgb(179,97,76)" stroke-width="1" opacity="0.75" />
			</g>
		</g>
		<g>
			<title>exoK (EOMLKCNM_02760)
Endo-1,3-1,4-beta-glycanase ExoK</title>
			<polygon class="exoK (EOMLKCNM_02760)
Endo-1,3-1,4-beta-glycanase ExoK" points="186,10 211,40 186,70" fill="rgb(255,255,255)" fill-opacity="1.0" stroke="rgb(0,0,0)" stroke-width="2"  />
			<g>
				<title>Glyco_hydro_16 (PF00722)
"Glycosyl hydrolases family 16"</title>
				<polygon class="PF00722" points="191,28 197,28 207,40 197,52 191,52" stroke-linejoin="round" width="18" height="24" fill="rgb(213,60,152)" stroke="rgb(170,48,121)" stroke-width="1" opacity="0.75" />
			</g>
		</g>
		<g>
			<title> (EOMLKCNM_02761)
hypothetical protein</title>
			<polygon class=" (EOMLKCNM_02761)
hypothetical protein" points="213,25 227,25 227,10 257,40 227,70 227,55 213,55" fill="rgb(255,255,255)" fill-opacity="1.0" stroke="rgb(0,0,0)" stroke-width="2"  />
			<g>
				<title>Wzy_C (PF04932)
"O-Antigen ligase"</title>
				<polygon class="PF04932" points="231,28 241,28 246,33 246,47 241,52 231,52" stroke-linejoin="round" width="15" height="24" fill="rgb(106,219,107)" stroke="rgb(84,175,85)" stroke-width="1" opacity="0.75" />
			</g>
		</g>
		<g>
			<title> (EOMLKCNM_02762)
hypothetical protein</title>
			<polygon class=" (EOMLKCNM_02762)
hypothetical protein" points="300,25 289,25 289,10 259,40 289,70 289,55 300,55" fill="rgb(255,255,255)" fill-opacity="1.0" stroke="rgb(0,0,0)" stroke-width="2"  />
			<g>
				<title>SLBB (PF10531)
"SLBB domain"</title>
				<rect class="PF10531" x="284" y="28" stroke-linejoin="round" width="4" height="24" fill="rgb(92,145,209)" stroke="rgb(73,116,167)" stroke-width="1" opacity="0.75" />
			</g>
			<g>
				<title>Poly_export (PF02563)
"Polysaccharide biosynthesis/export protein"</title>
				<rect class="PF02563" x="289" y="28" stroke-linejoin="round" width="8" height="24" fill="rgb(125,185,59)" stroke="rgb(100,148,47)" stroke-width="1" opacity="0.75" />
			</g>
		</g>
		<g>
			<title>gumD (EOMLKCNM_02763)
UDP-glucose:undecaprenyl-phosphate glucose-1-phosphate transferase</title>
			<polygon class="gumD (EOMLKCNM_02763)
UDP-glucose:undecaprenyl-phosphate glucose-1-phosphate transferase" points="302,40 325,10 325,70" fill="rgb(255,255,255)" fill-opacity="1.0" stroke="rgb(0,0,0)" stroke-width="2"  />
			<g>
				<title>Bac_transf (PF02397)
"Bacterial sugar transferase"</title>
				<polygon class="PF02397" points="306,40 316,28 321,28 321,52 316,52" stroke-linejoin="round" width="19" height="24" fill="rgb(57,165,209)" stroke="rgb(45,131,167)" stroke-width="1" opacity="0.75" />
			</g>
		</g>
		<g>
			<title>surE (EOMLKCNM_02764)
5'-nucleotidase SurE</title>
			<polygon class="surE (EOMLKCNM_02764)
5'-nucleotidase SurE" points="352,10 378,40 352,70" fill="rgb(255,255,255)" fill-opacity="1.0" stroke="rgb(0,0,0)" stroke-width="2"  />
			<g>
				<title>SurE (PF01975)
"Survival protein SurE"</title>
				<polygon class="PF01975" points="352,28 364,28 371,37 371,43 364,52 352,52" stroke-linejoin="round" width="19" height="24" fill="rgb(55,201,204)" stroke="rgb(44,160,163)" stroke-width="1" opacity="0.75" />
			</g>
		</g>
	</g>
</svg>
