<svg version="1.1" baseProfile="full" xmlns="http://www.w3.org/2000/svg" width="921.8333333333334" height="80">
	<g>
		<line x1="10" y1="40.0" x2="911.8333333333334" y2="40.0" style="stroke:rgb(70,70,70); stroke-width:3 "/>
		<g>
			<title>kynB_2 (DPKFPEHH_03227)
Kynurenine formamidase</title>
			<polygon class="kynB_2 (DPKFPEHH_03227)
Kynurenine formamidase" points="15,40 42,10 42,70" fill="rgb(255,255,255)" fill-opacity="1.0" stroke="rgb(0,0,0)" stroke-width="2"  />
			<g>
				<title>Cyclase (PF04199)
"Putative cyclase"</title>
				<polygon class="PF04199" points="25,34 30,28 40,28 40,52 30,52 25,46" stroke-linejoin="round" width="15" height="24" fill="rgb(140,47,181)" stroke="rgb(112,37,144)" stroke-width="1" opacity="0.75" />
			</g>
		</g>
		<g>
			<title>srpS (DPKFPEHH_03228)
HTH-type transcriptional regulator SrpS</title>
			<polygon class="srpS (DPKFPEHH_03228)
HTH-type transcriptional regulator SrpS" points="48,10 73,40 48,70" fill="rgb(255,255,255)" fill-opacity="1.0" stroke="rgb(0,0,0)" stroke-width="2"  />
			<g>
				<title>HTH_IclR (PF09339)
"IclR helix-turn-helix domain"</title>
				<rect class="PF09339" x="49" y="28" stroke-linejoin="round" width="4" height="24" fill="rgb(135,102,222)" stroke="rgb(108,81,177)" stroke-width="1" opacity="0.75" />
			</g>
			<g>
				<title>IclR (PF01614)
"Bacterial transcriptional regulator"</title>
				<polygon class="PF01614" points="60,30 69,40 60,50" stroke-linejoin="round" width="11" height="24" fill="rgb(58,93,180)" stroke="rgb(46,74,144)" stroke-width="1" opacity="0.75" />
			</g>
		</g>
		<g>
			<title> (DPKFPEHH_03229)
hypothetical protein</title>
			<polygon class=" (DPKFPEHH_03229)
hypothetical protein" points="76,40 88,10 88,70" fill="rgb(255,255,255)" fill-opacity="1.0" stroke="rgb(0,0,0)" stroke-width="2"  />
			<g>
				<title>YCII (PF03795)
"YCII-related domain"</title>
				<polygon class="PF03795" points="79,40 84,28 86,28 86,52 84,52" stroke-linejoin="round" width="8" height="24" fill="rgb(54,71,186)" stroke="rgb(43,56,148)" stroke-width="1" opacity="0.75" />
			</g>
		</g>
		<g>
			<title>lcfB_4 (DPKFPEHH_03230)
Long-chain-fatty-acid--CoA ligase</title>
			<polygon class="lcfB_4 (DPKFPEHH_03230)
Long-chain-fatty-acid--CoA ligase" points="137,25 118,25 118,10 88,40 118,70 118,55 137,55" fill="rgb(255,255,255)" fill-opacity="1.0" stroke="rgb(0,0,0)" stroke-width="2"  />
			<g>
				<title>AMP-binding_C (PF13193)
"AMP-binding enzyme C-terminal domain"</title>
				<polygon class="PF13193" points="92,40 96,36 96,44" stroke-linejoin="round" width="7" height="24" fill="rgb(182,50,118)" stroke="rgb(145,39,94)" stroke-width="1" opacity="0.75" />
			</g>
			<g>
				<title>AMP-binding (PF00501)
"AMP-binding enzyme"</title>
				<polygon class="PF00501" points="97,35 104,28 135,28 135,52 104,52 97,45" stroke-linejoin="round" width="38" height="24" fill="rgb(60,217,223)" stroke="rgb(48,173,178)" stroke-width="1" opacity="0.75" />
			</g>
		</g>
		<g>
			<title> (DPKFPEHH_03231)
hypothetical protein</title>
			<polygon class=" (DPKFPEHH_03231)
hypothetical protein" points="181,25 167,25 167,10 137,40 167,70 167,55 181,55" fill="rgb(255,255,255)" fill-opacity="1.0" stroke="rgb(0,0,0)" stroke-width="2"  />
			<g>
				<title>MCD (PF05292)
"Malonyl-CoA decarboxylase C-terminal domain"</title>
				<polygon class="PF05292" points="148,33 153,28 164,28 164,52 153,52 148,47" stroke-linejoin="round" width="16" height="24" fill="rgb(217,77,189)" stroke="rgb(173,61,151)" stroke-width="1" opacity="0.75" />
			</g>
			<g>
				<title>MCD_N (PF17408)
"Malonyl-CoA decarboxylase N-terminal domain"</title>
				<rect class="PF17408" x="164" y="28" stroke-linejoin="round" width="8" height="24" fill="rgb(106,65,223)" stroke="rgb(84,52,178)" stroke-width="1" opacity="0.75" />
			</g>
		</g>
		<g>
			<title>yisK (DPKFPEHH_03232)
putative protein YisK</title>
			<polygon class="yisK (DPKFPEHH_03232)
putative protein YisK" points="184,10 213,40 184,70" fill="rgb(255,255,255)" fill-opacity="1.0" stroke="rgb(0,0,0)" stroke-width="2"  />
			<g>
				<title>FAA_hydrolase (PF01557)
"Fumarylacetoacetate (FAA) hydrolase family"</title>
				<polygon class="PF01557" points="191,28 197,28 209,40 197,52 191,52" stroke-linejoin="round" width="20" height="24" fill="rgb(71,203,125)" stroke="rgb(56,162,100)" stroke-width="1" opacity="0.75" />
			</g>
		</g>
		<g>
			<title>rutE (DPKFPEHH_03233)
putative malonic semialdehyde reductase RutE</title>
			<polygon class="rutE (DPKFPEHH_03233)
putative malonic semialdehyde reductase RutE" points="213,10 235,40 213,70" fill="rgb(255,255,255)" fill-opacity="1.0" stroke="rgb(0,0,0)" stroke-width="2"  />
			<g>
				<title>Nitroreductase (PF00881)
"Nitroreductase family"</title>
				<polygon class="PF00881" points="217,28 222,28 231,40 222,52 217,52" stroke-linejoin="round" width="16" height="24" fill="rgb(79,118,187)" stroke="rgb(63,94,149)" stroke-width="1" opacity="0.75" />
			</g>
		</g>
		<g>
			<title> (DPKFPEHH_03234)
hypothetical protein</title>
			<polygon class=" (DPKFPEHH_03234)
hypothetical protein" points="238,25 244,25 244,10 274,40 244,70 244,55 238,55" fill="rgb(255,255,255)" fill-opacity="1.0" stroke="rgb(0,0,0)" stroke-width="2"  />
			<g>
				<title>DctP (PF03480)
"Bacterial extracellular solute-binding protein, family 7"</title>
				<polygon class="PF03480" points="242,28 258,28 270,40 270,40 258,52 242,52" stroke-linejoin="round" width="28" height="24" fill="rgb(209,103,193)" stroke="rgb(167,82,154)" stroke-width="1" opacity="0.75" />
			</g>
		</g>
		<g>
			<title> (DPKFPEHH_03235)
hypothetical protein</title>
			<polygon class=" (DPKFPEHH_03235)
hypothetical protein" points="275,10 293,40 275,70" fill="rgb(255,255,255)" fill-opacity="1.0" stroke="rgb(0,0,0)" stroke-width="2"  />
			<g>
				<title>DctQ (PF04290)
"Tripartite ATP-independent periplasmic transporters, DctQ component"</title>
				<polygon class="PF04290" points="278,28 282,28 290,40 282,52 278,52" stroke-linejoin="round" width="14" height="24" fill="rgb(77,57,182)" stroke="rgb(61,45,145)" stroke-width="1" opacity="0.75" />
			</g>
		</g>
		<g>
			<title>dctM_14 (DPKFPEHH_03236)
C4-dicarboxylate TRAP transporter large permease protein DctM</title>
			<polygon class="dctM_14 (DPKFPEHH_03236)
C4-dicarboxylate TRAP transporter large permease protein DctM" points="293,25 306,25 306,10 336,40 306,70 306,55 293,55" fill="rgb(255,255,255)" fill-opacity="1.0" stroke="rgb(0,0,0)" stroke-width="2"  />
			<g>
				<title>DctM (PF06808)
"Tripartite ATP-independent periplasmic transporter, DctM component"</title>
				<polygon class="PF06808" points="294,28 320,28 332,40 320,52 294,52" stroke-linejoin="round" width="42" height="24" fill="rgb(223,62,92)" stroke="rgb(178,49,73)" stroke-width="1" opacity="0.75" />
			</g>
		</g>
		<g>
			<title>npcC_1 (DPKFPEHH_03237)
Hydroxyquinol 1,2-dioxygenase</title>
			<polygon class="npcC_1 (DPKFPEHH_03237)
Hydroxyquinol 1,2-dioxygenase" points="338,10 366,40 338,70" fill="rgb(255,255,255)" fill-opacity="1.0" stroke="rgb(0,0,0)" stroke-width="2"  />
			<g>
				<title>Dioxygenase_N (PF04444)
"Catechol dioxygenase N terminus"</title>
				<rect class="PF04444" x="340" y="28" stroke-linejoin="round" width="7" height="24" fill="rgb(227,109,177)" stroke="rgb(181,87,141)" stroke-width="1" opacity="0.75" />
			</g>
			<g>
				<title>Dioxygenase_C (PF00775)
"Dioxygenase"</title>
				<polygon class="PF00775" points="347,28 350,28 362,40 350,52 347,52" stroke-linejoin="round" width="18" height="24" fill="rgb(96,217,213)" stroke="rgb(76,173,170)" stroke-width="1" opacity="0.75" />
			</g>
		</g>
		<g>
			<title>glaR_2 (DPKFPEHH_03238)
HTH-type transcriptional repressor GlaR</title>
			<polygon class="glaR_2 (DPKFPEHH_03238)
HTH-type transcriptional repressor GlaR" points="369,40 391,10 391,70" fill="rgb(255,255,255)" fill-opacity="1.0" stroke="rgb(0,0,0)" stroke-width="2"  />
			<g>
				<title>FCD (PF07729)
"FCD domain"</title>
				<polygon class="PF07729" points="373,40 382,28 382,28 382,52 382,52" stroke-linejoin="round" width="12" height="24" fill="rgb(74,75,215)" stroke="rgb(59,60,172)" stroke-width="1" opacity="0.75" />
			</g>
			<g>
				<title>GntR (PF00392)
"Bacterial regulatory proteins, gntR family"</title>
				<rect class="PF00392" x="384" y="28" stroke-linejoin="round" width="6" height="24" fill="rgb(160,85,194)" stroke="rgb(127,68,155)" stroke-width="1" opacity="0.75" />
			</g>
		</g>
		<g>
			<title> (DPKFPEHH_03239)
hypothetical protein</title>
			<polygon class=" (DPKFPEHH_03239)
hypothetical protein" points="402,10 424,40 402,70" fill="rgb(255,255,255)" fill-opacity="1.0" stroke="rgb(0,0,0)" stroke-width="2"  />
			<g>
				<title>GST_N_3 (PF13417)
"Glutathione S-transferase, N-terminal domain"</title>
				<rect class="PF13417" x="402" y="28" stroke-linejoin="round" width="8" height="24" fill="rgb(220,154,91)" stroke="rgb(176,123,72)" stroke-width="1" opacity="0.75" />
			</g>
			<g>
				<title>GST_C_2 (PF13410)
"Glutathione S-transferase, C-terminal domain"</title>
				<polygon class="PF13410" points="412,29 420,40 420,40 412,51" stroke-linejoin="round" width="8" height="24" fill="rgb(228,199,74)" stroke="rgb(182,159,59)" stroke-width="1" opacity="0.75" />
			</g>
		</g>
		<g>
			<title> (DPKFPEHH_03241)
hypothetical protein</title>
			<polygon class=" (DPKFPEHH_03241)
hypothetical protein" points="442,10 459,40 442,70" fill="rgb(255,255,255)" fill-opacity="1.0" stroke="rgb(0,0,0)" stroke-width="2"  />
			<g>
				<title>PhnA (PF03831)
"PhnA domain"</title>
				<polygon class="PF03831" points="452,34 456,40 452,46" stroke-linejoin="round" width="6" height="24" fill="rgb(182,146,64)" stroke="rgb(145,116,51)" stroke-width="1" opacity="0.75" />
			</g>
		</g>
		<g>
			<title>pycA_2 (DPKFPEHH_03242)
Pyruvate carboxylase</title>
			<polygon class="pycA_2 (DPKFPEHH_03242)
Pyruvate carboxylase" points="577,25 493,25 493,10 463,40 493,70 493,55 577,55" fill="rgb(255,255,255)" fill-opacity="1.0" stroke="rgb(0,0,0)" stroke-width="2"  />
			<g>
				<title>Biotin_lipoyl (PF00364)
"Biotin-requiring enzyme"</title>
				<polygon class="PF00364" points="467,40 469,38 469,42" stroke-linejoin="round" width="6" height="24" fill="rgb(67,214,213)" stroke="rgb(53,171,170)" stroke-width="1" opacity="0.75" />
			</g>
			<g>
				<title>PYC_OADA (PF02436)
"Conserved carboxylase domain"</title>
				<polygon class="PF02436" points="474,33 479,28 494,28 494,52 479,52 474,47" stroke-linejoin="round" width="20" height="24" fill="rgb(181,121,72)" stroke="rgb(144,96,57)" stroke-width="1" opacity="0.75" />
			</g>
			<g>
				<title>HMGL-like (PF00682)
"HMGL-like"</title>
				<rect class="PF00682" x="497" y="28" stroke-linejoin="round" width="27" height="24" fill="rgb(84,228,141)" stroke="rgb(67,182,112)" stroke-width="1" opacity="0.75" />
			</g>
			<g>
				<title>Biotin_carb_C (PF02785)
"Biotin carboxylase C-terminal domain"</title>
				<rect class="PF02785" x="532" y="28" stroke-linejoin="round" width="10" height="24" fill="rgb(82,186,211)" stroke="rgb(65,148,168)" stroke-width="1" opacity="0.75" />
			</g>
			<g>
				<title>CPSase_L_D2 (PF02786)
"Carbamoyl-phosphate synthase L chain, ATP binding domain"</title>
				<rect class="PF02786" x="545" y="28" stroke-linejoin="round" width="21" height="24" fill="rgb(190,97,205)" stroke="rgb(151,77,164)" stroke-width="1" opacity="0.75" />
			</g>
			<g>
				<title>Biotin_carb_N (PF00289)
"Biotin carboxylase, N-terminal domain"</title>
				<rect class="PF00289" x="566" y="28" stroke-linejoin="round" width="11" height="24" fill="rgb(59,114,187)" stroke="rgb(47,91,149)" stroke-width="1" opacity="0.75" />
			</g>
		</g>
		<g>
			<title> (DPKFPEHH_03243)
hypothetical protein</title>
			<polygon class=" (DPKFPEHH_03243)
hypothetical protein" points="581,40 594,10 594,70" fill="rgb(255,255,255)" fill-opacity="1.0" stroke="rgb(0,0,0)" stroke-width="2"  />
		</g>
		<g>
			<title>typA (DPKFPEHH_03244)
GTP-binding protein TypA/BipA</title>
			<polygon class="typA (DPKFPEHH_03244)
GTP-binding protein TypA/BipA" points="667,25 637,25 637,10 607,40 637,70 637,55 667,55" fill="rgb(255,255,255)" fill-opacity="1.0" stroke="rgb(0,0,0)" stroke-width="2"  />
			<g>
				<title>EFG_C (PF00679)
"Elongation factor G C-terminus"</title>
				<polygon class="PF00679" points="619,32 623,28 627,28 627,52 623,52 619,48" stroke-linejoin="round" width="8" height="24" fill="rgb(136,208,97)" stroke="rgb(108,166,77)" stroke-width="1" opacity="0.75" />
			</g>
			<g>
				<title>GTP_EFTU_D2 (PF03144)
"Elongation factor Tu domain 2"</title>
				<rect class="PF03144" x="638" y="28" stroke-linejoin="round" width="7" height="24" fill="rgb(69,184,189)" stroke="rgb(55,147,151)" stroke-width="1" opacity="0.75" />
			</g>
			<g>
				<title>GTP_EFTU (PF00009)
"Elongation factor Tu GTP binding domain"</title>
				<rect class="PF00009" x="648" y="28" stroke-linejoin="round" width="19" height="24" fill="rgb(196,118,83)" stroke="rgb(156,94,66)" stroke-width="1" opacity="0.75" />
			</g>
		</g>
		<g>
			<title>emrE (DPKFPEHH_03245)
Multidrug transporter EmrE</title>
			<polygon class="emrE (DPKFPEHH_03245)
Multidrug transporter EmrE" points="675,40 686,10 686,70" fill="rgb(255,255,255)" fill-opacity="1.0" stroke="rgb(0,0,0)" stroke-width="2"  />
			<g>
				<title>Multi_Drug_Res (PF00893)
"Small Multidrug Resistance protein"</title>
				<polygon class="PF00893" points="678,40 682,28 685,28 685,52 682,52" stroke-linejoin="round" width="9" height="24" fill="rgb(199,75,202)" stroke="rgb(159,60,161)" stroke-width="1" opacity="0.75" />
			</g>
		</g>
		<g>
			<title>icd (DPKFPEHH_03246)
Isocitrate dehydrogenase [NADP]</title>
			<polygon class="icd (DPKFPEHH_03246)
Isocitrate dehydrogenase [NADP]" points="703,25 746,25 746,10 776,40 746,70 746,55 703,55" fill="rgb(255,255,255)" fill-opacity="1.0" stroke="rgb(0,0,0)" stroke-width="2"  />
			<g>
				<title>IDH (PF03971)
"Monomeric isocitrate dehydrogenase"</title>
				<polygon class="PF03971" points="703,28 759,28 771,40 759,52 703,52" stroke-linejoin="round" width="72" height="24" fill="rgb(188,70,62)" stroke="rgb(150,55,49)" stroke-width="1" opacity="0.75" />
			</g>
		</g>
		<g>
			<title> (DPKFPEHH_03247)
hypothetical protein</title>
			<polygon class=" (DPKFPEHH_03247)
hypothetical protein" points="797,10 806,40 797,70" fill="rgb(255,255,255)" fill-opacity="1.0" stroke="rgb(0,0,0)" stroke-width="2"  />
		</g>
		<g>
			<title>rsgA_1 (DPKFPEHH_03248)
Small ribosomal subunit biogenesis GTPase RsgA</title>
			<polygon class="rsgA_1 (DPKFPEHH_03248)
Small ribosomal subunit biogenesis GTPase RsgA" points="810,25 816,25 816,10 846,40 816,70 816,55 810,55" fill="rgb(255,255,255)" fill-opacity="1.0" stroke="rgb(0,0,0)" stroke-width="2"  />
			<g>
				<title>RsgA_GTPase (PF03193)
"RsgA GTPase"</title>
				<polygon class="PF03193" points="819,28 829,28 836,35 836,45 829,52 819,52" stroke-linejoin="round" width="17" height="24" fill="rgb(89,182,98)" stroke="rgb(71,145,78)" stroke-width="1" opacity="0.75" />
			</g>
		</g>
		<g>
			<title>guaB (DPKFPEHH_03249)
Inosine-5'-monophosphate dehydrogenase</title>
			<polygon class="guaB (DPKFPEHH_03249)
Inosine-5'-monophosphate dehydrogenase" points="851,25 869,25 869,10 899,40 869,70 869,55 851,55" fill="rgb(255,255,255)" fill-opacity="1.0" stroke="rgb(0,0,0)" stroke-width="2"  />
			<g>
				<title>IMPDH (PF00478)
"IMP dehydrogenase / GMP reductase domain"</title>
				<polygon class="PF00478" points="851,28 883,28 895,40 883,52 851,52" stroke-linejoin="round" width="46" height="24" fill="rgb(225,99,218)" stroke="rgb(180,79,174)" stroke-width="1" opacity="0.75" />
			</g>
		</g>
	</g>
</svg>
