<svg version="1.1" baseProfile="full" xmlns="http://www.w3.org/2000/svg" width="382.73333333333335" height="80">
	<g>
		<line x1="10" y1="40.0" x2="372.73333333333335" y2="40.0" style="stroke:rgb(70,70,70); stroke-width:3 "/>
		<g>
			<title> (COIJCJLD_02860)
hypothetical protein</title>
			<polygon class=" (COIJCJLD_02860)
hypothetical protein" points="78,40 97,10 97,70" fill="rgb(255,255,255)" fill-opacity="1.0" stroke="rgb(0,0,0)" stroke-width="2"  />
		</g>
		<g>
			<title> (COIJCJLD_02861)
hypothetical protein</title>
			<polygon class=" (COIJCJLD_02861)
hypothetical protein" points="103,10 116,40 103,70" fill="rgb(255,255,255)" fill-opacity="1.0" stroke="rgb(0,0,0)" stroke-width="2"  />
			<g>
				<title>DUF2282 (PF10048)
"Predicted integral membrane protein (DUF2282)"</title>
				<polygon class="PF10048" points="109,32 112,40 109,48" stroke-linejoin="round" width="5" height="24" fill="rgb(58,205,168)" stroke="rgb(46,164,134)" stroke-width="1" opacity="0.75" />
			</g>
		</g>
		<g>
			<title> (COIJCJLD_02862)
hypothetical protein</title>
			<polygon class=" (COIJCJLD_02862)
hypothetical protein" points="119,10 137,40 119,70" fill="rgb(255,255,255)" fill-opacity="1.0" stroke="rgb(0,0,0)" stroke-width="2"  />
			<g>
				<title>DoxX (PF07681)
"DoxX"</title>
				<polygon class="PF07681" points="121,28 126,28 130,34 130,46 126,52 121,52" stroke-linejoin="round" width="9" height="24" fill="rgb(93,188,216)" stroke="rgb(74,150,172)" stroke-width="1" opacity="0.75" />
			</g>
		</g>
		<g>
			<title>algU (COIJCJLD_02863)
RNA polymerase sigma-H factor</title>
			<polygon class="algU (COIJCJLD_02863)
RNA polymerase sigma-H factor" points="141,10 161,40 141,70" fill="rgb(255,255,255)" fill-opacity="1.0" stroke="rgb(0,0,0)" stroke-width="2"  />
			<g>
				<title>Sigma70_r2 (PF04542)
"Sigma-70 region 2"</title>
				<rect class="PF04542" x="143" y="28" stroke-linejoin="round" width="6" height="24" fill="rgb(184,59,197)" stroke="rgb(147,47,157)" stroke-width="1" opacity="0.75" />
			</g>
			<g>
				<title>Sigma70_r4_2 (PF08281)
"Sigma-70, region 4"</title>
				<polygon class="PF08281" points="155,37 157,40 155,43" stroke-linejoin="round" width="5" height="24" fill="rgb(222,103,144)" stroke="rgb(177,82,115)" stroke-width="1" opacity="0.75" />
			</g>
		</g>
		<g>
			<title> (COIJCJLD_02864)
hypothetical protein</title>
			<polygon class=" (COIJCJLD_02864)
hypothetical protein" points="164,10 173,40 164,70" fill="rgb(255,255,255)" fill-opacity="1.0" stroke="rgb(0,0,0)" stroke-width="2"  />
			<g>
				<title>zf-HC2 (PF13490)
"Putative zinc-finger"</title>
				<polygon class="PF13490" points="164,28 165,28 167,31 167,49 165,52 164,52" stroke-linejoin="round" width="3" height="24" fill="rgb(179,173,84)" stroke="rgb(143,138,67)" stroke-width="1" opacity="0.75" />
			</g>
		</g>
		<g>
			<title> (COIJCJLD_02865)
hypothetical protein</title>
			<polygon class=" (COIJCJLD_02865)
hypothetical protein" points="176,10 205,40 176,70" fill="rgb(255,255,255)" fill-opacity="1.0" stroke="rgb(0,0,0)" stroke-width="2"  />
			<g>
				<title>DUF692 (PF05114)
"Protein of unknown function (DUF692)"</title>
				<polygon class="PF05114" points="177,28 189,28 201,40 189,52 177,52" stroke-linejoin="round" width="26" height="24" fill="rgb(63,196,127)" stroke="rgb(50,156,101)" stroke-width="1" opacity="0.75" />
			</g>
		</g>
		<g>
			<title> (COIJCJLD_02866)
hypothetical protein</title>
			<polygon class=" (COIJCJLD_02866)
hypothetical protein" points="205,10 230,40 205,70" fill="rgb(255,255,255)" fill-opacity="1.0" stroke="rgb(0,0,0)" stroke-width="2"  />
			<g>
				<title>DUF2063 (PF09836)
"Putative DNA-binding domain"</title>
				<rect class="PF09836" x="205" y="28" stroke-linejoin="round" width="9" height="24" fill="rgb(88,194,190)" stroke="rgb(70,155,152)" stroke-width="1" opacity="0.75" />
			</g>
		</g>
		<g>
			<title>arsB (COIJCJLD_02867)
Arsenical pump membrane protein</title>
			<polygon class="arsB (COIJCJLD_02867)
Arsenical pump membrane protein" points="272,25 261,25 261,10 231,40 261,70 261,55 272,55" fill="rgb(255,255,255)" fill-opacity="1.0" stroke="rgb(0,0,0)" stroke-width="2"  />
			<g>
				<title>CitMHS (PF03600)
"Citrate transporter"</title>
				<polygon class="PF03600" points="236,39 247,28 271,28 271,52 247,52 236,41" stroke-linejoin="round" width="35" height="24" fill="rgb(75,203,220)" stroke="rgb(60,162,176)" stroke-width="1" opacity="0.75" />
			</g>
		</g>
		<g>
			<title> (COIJCJLD_02868)
hypothetical protein</title>
			<polygon class=" (COIJCJLD_02868)
hypothetical protein" points="275,40 284,10 284,70" fill="rgb(255,255,255)" fill-opacity="1.0" stroke="rgb(0,0,0)" stroke-width="2"  />
		</g>
		<g>
			<title>baiN (COIJCJLD_02869)
3-dehydro-bile acid delta(4,6)-reductase</title>
			<polygon class="baiN (COIJCJLD_02869)
3-dehydro-bile acid delta(4,6)-reductase" points="287,25 295,25 295,10 325,40 295,70 295,55 287,55" fill="rgb(255,255,255)" fill-opacity="1.0" stroke="rgb(0,0,0)" stroke-width="2"  />
			<g>
				<title>HI0933_like (PF03486)
"HI0933-like protein"</title>
				<polygon class="PF03486" points="287,28 309,28 321,40 309,52 287,52" stroke-linejoin="round" width="38" height="24" fill="rgb(168,217,93)" stroke="rgb(134,173,74)" stroke-width="1" opacity="0.75" />
			</g>
		</g>
		<g>
			<title> (COIJCJLD_02870)
hypothetical protein</title>
			<polygon class=" (COIJCJLD_02870)
hypothetical protein" points="334,40 354,10 354,70" fill="rgb(255,255,255)" fill-opacity="1.0" stroke="rgb(0,0,0)" stroke-width="2"  />
			<g>
				<title>GST_N_3 (PF13417)
"Glutathione S-transferase, N-terminal domain"</title>
				<polygon class="PF13417" points="345,30 346,28 352,28 352,52 346,52 345,50" stroke-linejoin="round" width="7" height="24" fill="rgb(220,154,91)" stroke="rgb(176,123,72)" stroke-width="1" opacity="0.75" />
			</g>
		</g>
	</g>
</svg>
