<svg version="1.1" baseProfile="full" xmlns="http://www.w3.org/2000/svg" width="721.2666666666667" height="80">
	<g>
		<line x1="10" y1="40.0" x2="711.2666666666667" y2="40.0" style="stroke:rgb(70,70,70); stroke-width:3 "/>
		<g>
			<title> (EDELDHIG_00997)
Farnesyl diphosphate synthase</title>
			<polygon class=" (EDELDHIG_00997)
Farnesyl diphosphate synthase" points="31,40 60,10 60,70" fill="rgb(255,255,255)" fill-opacity="1.0" stroke="rgb(0,0,0)" stroke-width="2"  />
			<g>
				<title>polyprenyl_synt (PF00348)
"Polyprenyl synthetase"</title>
				<polygon class="PF00348" points="35,40 47,28 57,28 57,52 47,52" stroke-linejoin="round" width="24" height="24" fill="rgb(61,206,65)" stroke="rgb(48,164,52)" stroke-width="1" opacity="0.75" />
			</g>
		</g>
		<g>
			<title>crtD (EDELDHIG_00998)
Hydroxyneurosporene desaturase</title>
			<polygon class="crtD (EDELDHIG_00998)
Hydroxyneurosporene desaturase" points="64,25 86,25 86,10 116,40 86,70 86,55 64,55" fill="rgb(255,255,255)" fill-opacity="1.0" stroke="rgb(0,0,0)" stroke-width="2"  />
			<g>
				<title>Amino_oxidase (PF01593)
"Flavin containing amine oxidoreductase"</title>
				<rect class="PF01593" x="65" y="28" stroke-linejoin="round" width="29" height="24" fill="rgb(184,74,52)" stroke="rgb(147,59,41)" stroke-width="1" opacity="0.75" />
			</g>
		</g>
		<g>
			<title>crtC (EDELDHIG_00999)
Acyclic carotenoid 1,2-hydratase</title>
			<polygon class="crtC (EDELDHIG_00999)
Acyclic carotenoid 1,2-hydratase" points="116,10 144,40 116,70" fill="rgb(255,255,255)" fill-opacity="1.0" stroke="rgb(0,0,0)" stroke-width="2"  />
		</g>
		<g>
			<title>menH_2 (EDELDHIG_01000)
2-succinyl-6-hydroxy-2, 4-cyclohexadiene-1-carboxylate synthase</title>
			<polygon class="menH_2 (EDELDHIG_01000)
2-succinyl-6-hydroxy-2, 4-cyclohexadiene-1-carboxylate synthase" points="144,40 173,10 173,70" fill="rgb(255,255,255)" fill-opacity="1.0" stroke="rgb(0,0,0)" stroke-width="2"  />
			<g>
				<title>Abhydrolase_6 (PF12697)
"Alpha/beta hydrolase family"</title>
				<polygon class="PF12697" points="148,40 160,28 170,28 170,52 160,52" stroke-linejoin="round" width="24" height="24" fill="rgb(113,71,219)" stroke="rgb(90,56,175)" stroke-width="1" opacity="0.75" />
			</g>
		</g>
		<g>
			<title>bchD (EDELDHIG_01001)
Magnesium-chelatase 60 kDa subunit</title>
			<polygon class="bchD (EDELDHIG_01001)
Magnesium-chelatase 60 kDa subunit" points="226,25 203,25 203,10 173,40 203,70 203,55 226,55" fill="rgb(255,255,255)" fill-opacity="1.0" stroke="rgb(0,0,0)" stroke-width="2"  />
			<g>
				<title>VWA_2 (PF13519)
"von Willebrand factor type A domain"</title>
				<polygon class="PF13519" points="180,37 189,28 190,28 190,52 189,52 180,43" stroke-linejoin="round" width="10" height="24" fill="rgb(58,213,93)" stroke="rgb(46,170,74)" stroke-width="1" opacity="0.75" />
			</g>
			<g>
				<title>AAA_lid_2 (PF17863)
"AAA lid domain"</title>
				<rect class="PF17863" x="204" y="28" stroke-linejoin="round" width="7" height="24" fill="rgb(58,87,190)" stroke="rgb(46,69,152)" stroke-width="1" opacity="0.75" />
			</g>
		</g>
		<g>
			<title>bchI (EDELDHIG_01002)
Magnesium-chelatase 38 kDa subunit</title>
			<polygon class="bchI (EDELDHIG_01002)
Magnesium-chelatase 38 kDa subunit" points="264,25 261,25 261,10 231,40 261,70 261,55 264,55" fill="rgb(255,255,255)" fill-opacity="1.0" stroke="rgb(0,0,0)" stroke-width="2"  />
			<g>
				<title>AAA_lid_2 (PF17863)
"AAA lid domain"</title>
				<polygon class="PF17863" points="235,40 238,37 238,43" stroke-linejoin="round" width="7" height="24" fill="rgb(58,87,190)" stroke="rgb(46,69,152)" stroke-width="1" opacity="0.75" />
			</g>
			<g>
				<title>Mg_chelatase (PF01078)
"Magnesium chelatase, subunit ChlI"</title>
				<polygon class="PF01078" points="245,30 247,28 253,28 253,52 247,52 245,50" stroke-linejoin="round" width="8" height="24" fill="rgb(199,220,103)" stroke="rgb(159,176,82)" stroke-width="1" opacity="0.75" />
			</g>
		</g>
		<g>
			<title>crtA (EDELDHIG_01003)
Spheroidene monooxygenase</title>
			<polygon class="crtA (EDELDHIG_01003)
Spheroidene monooxygenase" points="264,40 287,10 287,70" fill="rgb(255,255,255)" fill-opacity="1.0" stroke="rgb(0,0,0)" stroke-width="2"  />
		</g>
		<g>
			<title>crtI (EDELDHIG_01004)
Phytoene desaturase (neurosporene-forming)</title>
			<polygon class="crtI (EDELDHIG_01004)
Phytoene desaturase (neurosporene-forming)" points="292,25 313,25 313,10 343,40 313,70 313,55 292,55" fill="rgb(255,255,255)" fill-opacity="1.0" stroke="rgb(0,0,0)" stroke-width="2"  />
			<g>
				<title>Amino_oxidase (PF01593)
"Flavin containing amine oxidoreductase"</title>
				<polygon class="PF01593" points="293,28 326,28 338,40 326,52 293,52" stroke-linejoin="round" width="47" height="24" fill="rgb(184,74,52)" stroke="rgb(147,59,41)" stroke-width="1" opacity="0.75" />
			</g>
		</g>
		<g>
			<title> (EDELDHIG_01005)
hypothetical protein</title>
			<polygon class=" (EDELDHIG_01005)
hypothetical protein" points="343,25 347,25 347,10 377,40 347,70 347,55 343,55" fill="rgb(255,255,255)" fill-opacity="1.0" stroke="rgb(0,0,0)" stroke-width="2"  />
			<g>
				<title>SQS_PSY (PF00494)
"Squalene/phytoene synthase"</title>
				<polygon class="PF00494" points="344,28 361,28 369,36 369,44 361,52 344,52" stroke-linejoin="round" width="25" height="24" fill="rgb(178,91,49)" stroke="rgb(142,72,39)" stroke-width="1" opacity="0.75" />
			</g>
		</g>
		<g>
			<title>tspO (EDELDHIG_01006)
Tryptophan-rich sensory protein</title>
			<polygon class="tspO (EDELDHIG_01006)
Tryptophan-rich sensory protein" points="382,10 397,40 382,70" fill="rgb(255,255,255)" fill-opacity="1.0" stroke="rgb(0,0,0)" stroke-width="2"  />
			<g>
				<title>TspO_MBR (PF03073)
"TspO/MBR family"</title>
				<polygon class="PF03073" points="382,28 387,28 393,40 387,52 382,52" stroke-linejoin="round" width="14" height="24" fill="rgb(191,88,103)" stroke="rgb(152,70,82)" stroke-width="1" opacity="0.75" />
			</g>
		</g>
		<g>
			<title>idi (EDELDHIG_01007)
Isopentenyl-diphosphate Delta-isomerase</title>
			<polygon class="idi (EDELDHIG_01007)
Isopentenyl-diphosphate Delta-isomerase" points="398,40 416,10 416,70" fill="rgb(255,255,255)" fill-opacity="1.0" stroke="rgb(0,0,0)" stroke-width="2"  />
			<g>
				<title>NUDIX (PF00293)
"NUDIX domain"</title>
				<polygon class="PF00293" points="402,40 409,28 413,28 413,52 409,52" stroke-linejoin="round" width="13" height="24" fill="rgb(92,56,187)" stroke="rgb(73,44,149)" stroke-width="1" opacity="0.75" />
			</g>
		</g>
		<g>
			<title> (EDELDHIG_01008)
hypothetical protein</title>
			<polygon class=" (EDELDHIG_01008)
hypothetical protein" points="455,25 446,25 446,10 416,40 446,70 446,55 455,55" fill="rgb(255,255,255)" fill-opacity="1.0" stroke="rgb(0,0,0)" stroke-width="2"  />
			<g>
				<title>FAD_binding_3 (PF01494)
"FAD binding domain"</title>
				<polygon class="PF01494" points="424,36 432,28 449,28 449,52 432,52 424,44" stroke-linejoin="round" width="25" height="24" fill="rgb(182,175,59)" stroke="rgb(145,140,47)" stroke-width="1" opacity="0.75" />
			</g>
		</g>
		<g>
			<title>pucC_1 (EDELDHIG_01009)
Protein PucC</title>
			<polygon class="pucC_1 (EDELDHIG_01009)
Protein PucC" points="497,25 485,25 485,10 455,40 485,70 485,55 497,55" fill="rgb(255,255,255)" fill-opacity="1.0" stroke="rgb(0,0,0)" stroke-width="2"  />
			<g>
				<title>PUCC (PF03209)
"PUCC protein"</title>
				<polygon class="PF03209" points="459,40 471,28 494,28 494,52 471,52" stroke-linejoin="round" width="38" height="24" fill="rgb(154,92,186)" stroke="rgb(123,73,148)" stroke-width="1" opacity="0.75" />
			</g>
		</g>
		<g>
			<title>menA (EDELDHIG_01010)
1,4-dihydroxy-2-naphthoate octaprenyltransferase</title>
			<polygon class="menA (EDELDHIG_01010)
1,4-dihydroxy-2-naphthoate octaprenyltransferase" points="528,25 528,25 528,10 498,40 528,70 528,55 528,55" fill="rgb(255,255,255)" fill-opacity="1.0" stroke="rgb(0,0,0)" stroke-width="2"  />
			<g>
				<title>UbiA (PF01040)
"UbiA prenyltransferase family"</title>
				<polygon class="PF01040" points="502,40 514,28 524,28 524,52 514,52" stroke-linejoin="round" width="26" height="24" fill="rgb(189,57,100)" stroke="rgb(151,45,80)" stroke-width="1" opacity="0.75" />
			</g>
		</g>
		<g>
			<title> (EDELDHIG_01011)
hypothetical protein</title>
			<polygon class=" (EDELDHIG_01011)
hypothetical protein" points="533,10 541,40 533,70" fill="rgb(255,255,255)" fill-opacity="1.0" stroke="rgb(0,0,0)" stroke-width="2"  />
		</g>
		<g>
			<title> (EDELDHIG_01012)
hypothetical protein</title>
			<polygon class=" (EDELDHIG_01012)
hypothetical protein" points="540,40 560,10 560,70" fill="rgb(255,255,255)" fill-opacity="1.0" stroke="rgb(0,0,0)" stroke-width="2"  />
			<g>
				<title>V4R (PF02830)
"V4R domain"</title>
				<polygon class="PF02830" points="544,40 546,37 546,43" stroke-linejoin="round" width="5" height="24" fill="rgb(99,206,89)" stroke="rgb(79,164,71)" stroke-width="1" opacity="0.75" />
			</g>
		</g>
		<g>
			<title>bchE (EDELDHIG_01013)
Anaerobic magnesium-protoporphyrin IX monomethyl ester cyclase</title>
			<polygon class="bchE (EDELDHIG_01013)
Anaerobic magnesium-protoporphyrin IX monomethyl ester cyclase" points="617,25 591,25 591,10 561,40 591,70 591,55 617,55" fill="rgb(255,255,255)" fill-opacity="1.0" stroke="rgb(0,0,0)" stroke-width="2"  />
			<g>
				<title>Radical_SAM (PF04055)
"Radical SAM superfamily"</title>
				<rect class="PF04055" x="581" y="28" stroke-linejoin="round" width="16" height="24" fill="rgb(149,56,222)" stroke="rgb(119,44,177)" stroke-width="1" opacity="0.75" />
			</g>
			<g>
				<title>B12-binding (PF02310)
"B12 binding domain"</title>
				<rect class="PF02310" x="604" y="28" stroke-linejoin="round" width="12" height="24" fill="rgb(145,190,60)" stroke="rgb(115,152,48)" stroke-width="1" opacity="0.75" />
			</g>
		</g>
		<g>
			<title> (EDELDHIG_01014)
hypothetical protein</title>
			<polygon class=" (EDELDHIG_01014)
hypothetical protein" points="668,25 651,25 651,10 621,40 651,70 651,55 668,55" fill="rgb(255,255,255)" fill-opacity="1.0" stroke="rgb(0,0,0)" stroke-width="2"  />
			<g>
				<title>HTH_8 (PF02954)
"Bacterial regulatory protein, Fis family"</title>
				<polygon class="PF02954" points="625,40 625,40 625,40" stroke-linejoin="round" width="4" height="24" fill="rgb(168,63,200)" stroke="rgb(134,50,160)" stroke-width="1" opacity="0.75" />
			</g>
			<g>
				<title>PAS_9 (PF13426)
"PAS domain"</title>
				<polygon class="PF13426" points="629,36 637,28 639,28 639,52 637,52 629,44" stroke-linejoin="round" width="10" height="24" fill="rgb(182,140,74)" stroke="rgb(145,112,59)" stroke-width="1" opacity="0.75" />
			</g>
			<g>
				<title>PAS (PF00989)
"PAS fold"</title>
				<rect class="PF00989" x="641" y="28" stroke-linejoin="round" width="10" height="24" fill="rgb(205,221,64)" stroke="rgb(164,176,51)" stroke-width="1" opacity="0.75" />
			</g>
		</g>
		<g>
			<title> (EDELDHIG_01015)
hypothetical protein</title>
			<polygon class=" (EDELDHIG_01015)
hypothetical protein" points="671,40 700,10 700,70" fill="rgb(255,255,255)" fill-opacity="1.0" stroke="rgb(0,0,0)" stroke-width="2"  />
		</g>
	</g>
</svg>
