<svg version="1.1" baseProfile="full" xmlns="http://www.w3.org/2000/svg" width="1481.0333333333333" height="80">
	<g>
		<line x1="10" y1="40.0" x2="1471.0333333333333" y2="40.0" style="stroke:rgb(70,70,70); stroke-width:3 "/>
		<g>
			<title> (LBIMNCPI_01161)
hypothetical protein</title>
			<polygon class=" (LBIMNCPI_01161)
hypothetical protein" points="55,25 112,25 112,10 142,40 112,70 112,55 55,55" fill="rgb(255,255,255)" fill-opacity="1.0" stroke="rgb(0,0,0)" stroke-width="2"  />
			<g>
				<title>Z1 (PF10593)
"Z1 domain"</title>
				<rect class="PF10593" x="93" y="28" stroke-linejoin="round" width="22" height="24" fill="rgb(53,205,66)" stroke="rgb(42,164,52)" stroke-width="1" opacity="0.75" />
			</g>
		</g>
		<g>
			<title> (LBIMNCPI_01162)
hypothetical protein</title>
			<polygon class=" (LBIMNCPI_01162)
hypothetical protein" points="142,25 145,25 145,10 175,40 145,70 145,55 142,55" fill="rgb(255,255,255)" fill-opacity="1.0" stroke="rgb(0,0,0)" stroke-width="2"  />
			<g>
				<title>DUF4420 (PF14390)
"Putative  PD-(D/E)XK family member, (DUF4420)"</title>
				<polygon class="PF14390" points="142,28 159,28 171,40 159,52 142,52" stroke-linejoin="round" width="30" height="24" fill="rgb(93,141,203)" stroke="rgb(74,112,162)" stroke-width="1" opacity="0.75" />
			</g>
		</g>
		<g>
			<title> (LBIMNCPI_01163)
hypothetical protein</title>
			<polygon class=" (LBIMNCPI_01163)
hypothetical protein" points="175,25 206,25 206,10 236,40 206,70 206,55 175,55" fill="rgb(255,255,255)" fill-opacity="1.0" stroke="rgb(0,0,0)" stroke-width="2"  />
		</g>
		<g>
			<title> (LBIMNCPI_01164)
hypothetical protein</title>
			<polygon class=" (LBIMNCPI_01164)
hypothetical protein" points="237,25 237,25 237,10 267,40 237,70 237,55 237,55" fill="rgb(255,255,255)" fill-opacity="1.0" stroke="rgb(0,0,0)" stroke-width="2"  />
		</g>
		<g>
			<title> (LBIMNCPI_01165)
hypothetical protein</title>
			<polygon class=" (LBIMNCPI_01165)
hypothetical protein" points="267,10 294,40 267,70" fill="rgb(255,255,255)" fill-opacity="1.0" stroke="rgb(0,0,0)" stroke-width="2"  />
		</g>
		<g>
			<title> (LBIMNCPI_01166)
hypothetical protein</title>
			<polygon class=" (LBIMNCPI_01166)
hypothetical protein" points="343,25 323,25 323,10 293,40 323,70 323,55 343,55" fill="rgb(255,255,255)" fill-opacity="1.0" stroke="rgb(0,0,0)" stroke-width="2"  />
			<g>
				<title>DNA_methylase (PF00145)
"C-5 cytosine-specific DNA methylase"</title>
				<polygon class="PF00145" points="297,40 309,28 331,28 331,52 309,52" stroke-linejoin="round" width="38" height="24" fill="rgb(154,197,70)" stroke="rgb(123,157,56)" stroke-width="1" opacity="0.75" />
			</g>
		</g>
		<g>
			<title> (LBIMNCPI_01167)
hypothetical protein</title>
			<polygon class=" (LBIMNCPI_01167)
hypothetical protein" points="389,10 416,40 389,70" fill="rgb(255,255,255)" fill-opacity="1.0" stroke="rgb(0,0,0)" stroke-width="2"  />
		</g>
		<g>
			<title> (LBIMNCPI_01168)
hypothetical protein</title>
			<polygon class=" (LBIMNCPI_01168)
hypothetical protein" points="515,25 442,25 442,10 412,40 442,70 442,55 515,55" fill="rgb(255,255,255)" fill-opacity="1.0" stroke="rgb(0,0,0)" stroke-width="2"  />
			<g>
				<title>SWI2_SNF2 (PF18766)
"SWI2/SNF2 ATPase"</title>
				<rect class="PF18766" x="459" y="28" stroke-linejoin="round" width="27" height="24" fill="rgb(64,57,212)" stroke="rgb(51,45,169)" stroke-width="1" opacity="0.75" />
			</g>
			<g>
				<title>HSDR_N (PF04313)
"Type I restriction enzyme R protein N terminus (HSDR_N)"</title>
				<rect class="PF04313" x="494" y="28" stroke-linejoin="round" width="10" height="24" fill="rgb(67,217,209)" stroke="rgb(53,173,167)" stroke-width="1" opacity="0.75" />
			</g>
		</g>
		<g>
			<title> (LBIMNCPI_01169)
hypothetical protein</title>
			<polygon class=" (LBIMNCPI_01169)
hypothetical protein" points="560,25 546,25 546,10 516,40 546,70 546,55 560,55" fill="rgb(255,255,255)" fill-opacity="1.0" stroke="rgb(0,0,0)" stroke-width="2"  />
			<g>
				<title>Methylase_S (PF01420)
"Type I restriction modification DNA specificity domain"</title>
				<rect class="PF01420" x="541" y="28" stroke-linejoin="round" width="17" height="24" fill="rgb(94,156,220)" stroke="rgb(75,124,176)" stroke-width="1" opacity="0.75" />
			</g>
		</g>
		<g>
			<title> (LBIMNCPI_01170)
hypothetical protein</title>
			<polygon class=" (LBIMNCPI_01170)
hypothetical protein" points="622,25 591,25 591,10 561,40 591,70 591,55 622,55" fill="rgb(255,255,255)" fill-opacity="1.0" stroke="rgb(0,0,0)" stroke-width="2"  />
			<g>
				<title>N6_Mtase (PF02384)
"N-6 DNA Methylase"</title>
				<polygon class="PF02384" points="576,29 577,28 607,28 607,52 577,52 576,51" stroke-linejoin="round" width="31" height="24" fill="rgb(46,179,90)" stroke="rgb(36,143,72)" stroke-width="1" opacity="0.75" />
			</g>
			<g>
				<title>HsdM_N (PF12161)
"HsdM N-terminal domain"</title>
				<rect class="PF12161" x="608" y="28" stroke-linejoin="round" width="13" height="24" fill="rgb(68,127,210)" stroke="rgb(54,101,168)" stroke-width="1" opacity="0.75" />
			</g>
		</g>
		<g>
			<title>nagZ_2 (LBIMNCPI_01171)
Beta-hexosaminidase</title>
			<polygon class="nagZ_2 (LBIMNCPI_01171)
Beta-hexosaminidase" points="677,25 665,25 665,10 635,40 665,70 665,55 677,55" fill="rgb(255,255,255)" fill-opacity="1.0" stroke="rgb(0,0,0)" stroke-width="2"  />
			<g>
				<title>Glyco_hydro_3 (PF00933)
"Glycosyl hydrolase family 3 N terminal domain"</title>
				<polygon class="PF00933" points="639,40 651,28 668,28 668,52 651,52" stroke-linejoin="round" width="32" height="24" fill="rgb(179,79,172)" stroke="rgb(143,63,137)" stroke-width="1" opacity="0.75" />
			</g>
		</g>
		<g>
			<title>murC_2 (LBIMNCPI_01172)
UDP-N-acetylmuramate--L-alanine ligase</title>
			<polygon class="murC_2 (LBIMNCPI_01172)
UDP-N-acetylmuramate--L-alanine ligase" points="803,25 706,25 706,10 676,40 706,70 706,55 803,55" fill="rgb(255,255,255)" fill-opacity="1.0" stroke="rgb(0,0,0)" stroke-width="2"  />
			<g>
				<title>PP-binding (PF00550)
"Phosphopantetheine attachment site"</title>
				<rect class="PF00550" x="698" y="28" stroke-linejoin="round" width="6" height="24" fill="rgb(103,191,88)" stroke="rgb(82,152,70)" stroke-width="1" opacity="0.75" />
			</g>
			<g>
				<title>AMP-binding_C (PF13193)
"AMP-binding enzyme C-terminal domain"</title>
				<rect class="PF13193" x="708" y="28" stroke-linejoin="round" width="7" height="24" fill="rgb(182,50,118)" stroke="rgb(145,39,94)" stroke-width="1" opacity="0.75" />
			</g>
			<g>
				<title>AMP-binding (PF00501)
"AMP-binding enzyme"</title>
				<rect class="PF00501" x="716" y="28" stroke-linejoin="round" width="38" height="24" fill="rgb(60,217,223)" stroke="rgb(48,173,178)" stroke-width="1" opacity="0.75" />
			</g>
			<g>
				<title>Mur_ligase_C (PF02875)
"Mur ligase family, glutamate ligase domain"</title>
				<rect class="PF02875" x="764" y="28" stroke-linejoin="round" width="8" height="24" fill="rgb(197,75,168)" stroke="rgb(157,60,134)" stroke-width="1" opacity="0.75" />
			</g>
			<g>
				<title>Mur_ligase_M (PF08245)
"Mur ligase middle domain"</title>
				<rect class="PF08245" x="774" y="28" stroke-linejoin="round" width="17" height="24" fill="rgb(57,133,195)" stroke="rgb(45,106,156)" stroke-width="1" opacity="0.75" />
			</g>
			<g>
				<title>Mur_ligase (PF01225)
"Mur ligase family, catalytic domain"</title>
				<rect class="PF01225" x="793" y="28" stroke-linejoin="round" width="10" height="24" fill="rgb(64,188,155)" stroke="rgb(51,150,124)" stroke-width="1" opacity="0.75" />
			</g>
		</g>
		<g>
			<title> (LBIMNCPI_01173)
hypothetical protein</title>
			<polygon class=" (LBIMNCPI_01173)
hypothetical protein" points="804,40 822,10 822,70" fill="rgb(255,255,255)" fill-opacity="1.0" stroke="rgb(0,0,0)" stroke-width="2"  />
			<g>
				<title>DUF218 (PF02698)
"DUF218 domain"</title>
				<polygon class="PF02698" points="808,40 816,28 820,28 820,52 816,52" stroke-linejoin="round" width="15" height="24" fill="rgb(60,150,205)" stroke="rgb(48,120,164)" stroke-width="1" opacity="0.75" />
			</g>
		</g>
		<g>
			<title>murA (LBIMNCPI_01175)
UDP-N-acetylglucosamine 1-carboxyvinyltransferase</title>
			<polygon class="murA (LBIMNCPI_01175)
UDP-N-acetylglucosamine 1-carboxyvinyltransferase" points="863,25 875,25 875,10 905,40 875,70 875,55 863,55" fill="rgb(255,255,255)" fill-opacity="1.0" stroke="rgb(0,0,0)" stroke-width="2"  />
			<g>
				<title>EPSP_synthase (PF00275)
"EPSP synthase (3-phosphoshikimate 1-carboxyvinyltransferase)"</title>
				<polygon class="PF00275" points="863,28 889,28 901,40 889,52 863,52" stroke-linejoin="round" width="40" height="24" fill="rgb(217,213,85)" stroke="rgb(173,170,68)" stroke-width="1" opacity="0.75" />
			</g>
		</g>
		<g>
			<title> (LBIMNCPI_01176)
hypothetical protein</title>
			<polygon class=" (LBIMNCPI_01176)
hypothetical protein" points="905,10 920,40 905,70" fill="rgb(255,255,255)" fill-opacity="1.0" stroke="rgb(0,0,0)" stroke-width="2"  />
			<g>
				<title>DUF2948 (PF11164)
"Protein of unknown function (DUF2948)"</title>
				<polygon class="PF11164" points="906,28 911,28 917,40 911,52 906,52" stroke-linejoin="round" width="14" height="24" fill="rgb(66,173,211)" stroke="rgb(52,138,168)" stroke-width="1" opacity="0.75" />
			</g>
		</g>
		<g>
			<title> (LBIMNCPI_01177)
hypothetical protein</title>
			<polygon class=" (LBIMNCPI_01177)
hypothetical protein" points="924,10 935,40 924,70" fill="rgb(255,255,255)" fill-opacity="1.0" stroke="rgb(0,0,0)" stroke-width="2"  />
		</g>
		<g>
			<title>gloB_2 (LBIMNCPI_01178)
Hydroxyacylglutathione hydrolase</title>
			<polygon class="gloB_2 (LBIMNCPI_01178)
Hydroxyacylglutathione hydrolase" points="936,40 965,10 965,70" fill="rgb(255,255,255)" fill-opacity="1.0" stroke="rgb(0,0,0)" stroke-width="2"  />
			<g>
				<title>BLACT_WH (PF17778)
"Beta-lactamase associated winged helix domain"</title>
				<polygon class="PF17778" points="940,40 941,39 941,41" stroke-linejoin="round" width="4" height="24" fill="rgb(187,64,137)" stroke="rgb(149,51,109)" stroke-width="1" opacity="0.75" />
			</g>
			<g>
				<title>Lactamase_B (PF00753)
"Metallo-beta-lactamase superfamily"</title>
				<polygon class="PF00753" points="944,36 952,28 962,28 962,52 952,52 944,44" stroke-linejoin="round" width="18" height="24" fill="rgb(206,198,96)" stroke="rgb(164,158,76)" stroke-width="1" opacity="0.75" />
			</g>
		</g>
		<g>
			<title>sasA_2 (LBIMNCPI_01179)
Adaptive-response sensory-kinase SasA</title>
			<polygon class="sasA_2 (LBIMNCPI_01179)
Adaptive-response sensory-kinase SasA" points="966,25 980,25 980,10 1010,40 980,70 980,55 966,55" fill="rgb(255,255,255)" fill-opacity="1.0" stroke="rgb(0,0,0)" stroke-width="2"  />
			<g>
				<title>HAMP (PF00672)
"HAMP domain"</title>
				<rect class="PF00672" x="984" y="28" stroke-linejoin="round" width="5" height="24" fill="rgb(124,89,195)" stroke="rgb(99,71,156)" stroke-width="1" opacity="0.75" />
			</g>
			<g>
				<title>HisKA (PF00512)
"His Kinase A (phospho-acceptor) domain"</title>
				<polygon class="PF00512" points="989,28 994,28 995,29 995,51 994,52 989,52" stroke-linejoin="round" width="6" height="24" fill="rgb(193,125,62)" stroke="rgb(154,100,49)" stroke-width="1" opacity="0.75" />
			</g>
			<g>
				<title>HATPase_c (PF02518)
"Histidine kinase-, DNA gyrase B-, and HSP90-like ATPase"</title>
				<polygon class="PF02518" points="999,33 1006,40 999,47" stroke-linejoin="round" width="10" height="24" fill="rgb(80,94,225)" stroke="rgb(64,75,180)" stroke-width="1" opacity="0.75" />
			</g>
		</g>
		<g>
			<title>lon (LBIMNCPI_01180)
Lon protease</title>
			<polygon class="lon (LBIMNCPI_01180)
Lon protease" points="1018,25 1068,25 1068,10 1098,40 1068,70 1068,55 1018,55" fill="rgb(255,255,255)" fill-opacity="1.0" stroke="rgb(0,0,0)" stroke-width="2"  />
			<g>
				<title>LON_substr_bdg (PF02190)
"ATP-dependent protease La (LON) substrate-binding domain"</title>
				<rect class="PF02190" x="1018" y="28" stroke-linejoin="round" width="19" height="24" fill="rgb(177,104,226)" stroke="rgb(141,83,180)" stroke-width="1" opacity="0.75" />
			</g>
			<g>
				<title>AAA (PF00004)
"ATPase family associated with various cellular activities (AAA)"</title>
				<rect class="PF00004" x="1053" y="28" stroke-linejoin="round" width="14" height="24" fill="rgb(57,194,204)" stroke="rgb(45,155,163)" stroke-width="1" opacity="0.75" />
			</g>
			<g>
				<title>Lon_C (PF05362)
"Lon protease (S16) C-terminal proteolytic domain"</title>
				<polygon class="PF05362" points="1074,28 1082,28 1094,40 1094,40 1082,52 1074,52" stroke-linejoin="round" width="20" height="24" fill="rgb(172,181,60)" stroke="rgb(137,144,47)" stroke-width="1" opacity="0.75" />
			</g>
		</g>
		<g>
			<title> (LBIMNCPI_01181)
hypothetical protein</title>
			<polygon class=" (LBIMNCPI_01181)
hypothetical protein" points="1104,10 1120,40 1104,70" fill="rgb(255,255,255)" fill-opacity="1.0" stroke="rgb(0,0,0)" stroke-width="2"  />
			<g>
				<title>Bac_DNA_binding (PF00216)
"Bacterial DNA-binding protein"</title>
				<polygon class="PF00216" points="1110,28 1110,28 1116,40 1110,52 1110,52" stroke-linejoin="round" width="9" height="24" fill="rgb(73,205,204)" stroke="rgb(58,164,163)" stroke-width="1" opacity="0.75" />
			</g>
		</g>
		<g>
			<title>hvrA (LBIMNCPI_01183)
Trans-acting regulatory protein HvrA</title>
			<polygon class="hvrA (LBIMNCPI_01183)
Trans-acting regulatory protein HvrA" points="1134,10 1145,40 1134,70" fill="rgb(255,255,255)" fill-opacity="1.0" stroke="rgb(0,0,0)" stroke-width="2"  />
			<g>
				<title>Histone_HNS (PF00816)
"H-NS histone family"</title>
				<polygon class="PF00816" points="1135,28 1137,28 1142,40 1137,52 1135,52" stroke-linejoin="round" width="9" height="24" fill="rgb(192,206,65)" stroke="rgb(153,164,52)" stroke-width="1" opacity="0.75" />
			</g>
		</g>
		<g>
			<title>ndvA (LBIMNCPI_01184)
Beta-(1-->2)glucan export ATP-binding/permease protein NdvA</title>
			<polygon class="ndvA (LBIMNCPI_01184)
Beta-(1-->2)glucan export ATP-binding/permease protein NdvA" points="1154,25 1182,25 1182,10 1212,40 1182,70 1182,55 1154,55" fill="rgb(255,255,255)" fill-opacity="1.0" stroke="rgb(0,0,0)" stroke-width="2"  />
			<g>
				<title>ABC_membrane (PF00664)
"ABC transporter transmembrane region"</title>
				<rect class="PF00664" x="1156" y="28" stroke-linejoin="round" width="26" height="24" fill="rgb(149,226,73)" stroke="rgb(119,180,58)" stroke-width="1" opacity="0.75" />
			</g>
			<g>
				<title>ABC_tran (PF00005)
"ABC transporter"</title>
				<polygon class="PF00005" points="1189,28 1196,28 1203,35 1203,45 1196,52 1189,52" stroke-linejoin="round" width="14" height="24" fill="rgb(129,201,63)" stroke="rgb(103,160,50)" stroke-width="1" opacity="0.75" />
			</g>
		</g>
		<g>
			<title> (LBIMNCPI_01185)
hypothetical protein</title>
			<polygon class=" (LBIMNCPI_01185)
hypothetical protein" points="1216,40 1234,10 1234,70" fill="rgb(255,255,255)" fill-opacity="1.0" stroke="rgb(0,0,0)" stroke-width="2"  />
			<g>
				<title>Nuc_deoxyrib_tr (PF05014)
"Nucleoside 2-deoxyribosyltransferase"</title>
				<polygon class="PF05014" points="1220,40 1227,28 1234,28 1234,52 1227,52 1220,40" stroke-linejoin="round" width="14" height="24" fill="rgb(142,182,49)" stroke="rgb(113,145,39)" stroke-width="1" opacity="0.75" />
			</g>
		</g>
		<g>
			<title>thyX (LBIMNCPI_01186)
Flavin-dependent thymidylate synthase</title>
			<polygon class="thyX (LBIMNCPI_01186)
Flavin-dependent thymidylate synthase" points="1265,25 1265,25 1265,10 1235,40 1265,70 1265,55 1265,55" fill="rgb(255,255,255)" fill-opacity="1.0" stroke="rgb(0,0,0)" stroke-width="2"  />
			<g>
				<title>Thy1 (PF02511)
"Thymidylate synthase complementing protein"</title>
				<polygon class="PF02511" points="1240,39 1251,28 1260,28 1260,52 1251,52 1240,41" stroke-linejoin="round" width="20" height="24" fill="rgb(50,175,182)" stroke="rgb(39,140,145)" stroke-width="1" opacity="0.75" />
			</g>
		</g>
		<g>
			<title>gloA_1 (LBIMNCPI_01187)
Lactoylglutathione lyase</title>
			<polygon class="gloA_1 (LBIMNCPI_01187)
Lactoylglutathione lyase" points="1270,10 1284,40 1270,70" fill="rgb(255,255,255)" fill-opacity="1.0" stroke="rgb(0,0,0)" stroke-width="2"  />
			<g>
				<title>Glyoxalase (PF00903)
"Glyoxalase/Bleomycin resistance protein/Dioxygenase superfamily"</title>
				<polygon class="PF00903" points="1270,28 1275,28 1280,40 1275,52 1270,52" stroke-linejoin="round" width="11" height="24" fill="rgb(50,162,189)" stroke="rgb(40,129,151)" stroke-width="1" opacity="0.75" />
			</g>
		</g>
		<g>
			<title>pth (LBIMNCPI_01188)
Peptidyl-tRNA hydrolase</title>
			<polygon class="pth (LBIMNCPI_01188)
Peptidyl-tRNA hydrolase" points="1288,40 1311,10 1311,70" fill="rgb(255,255,255)" fill-opacity="1.0" stroke="rgb(0,0,0)" stroke-width="2"  />
			<g>
				<title>Pept_tRNA_hydro (PF01195)
"Peptidyl-tRNA hydrolase"</title>
				<polygon class="PF01195" points="1293,39 1302,28 1311,28 1311,52 1302,52 1293,41" stroke-linejoin="round" width="18" height="24" fill="rgb(51,192,198)" stroke="rgb(40,153,158)" stroke-width="1" opacity="0.75" />
			</g>
		</g>
		<g>
			<title>tauR (LBIMNCPI_01189)
HTH-type transcriptional regulator TauR</title>
			<polygon class="tauR (LBIMNCPI_01189)
HTH-type transcriptional regulator TauR" points="1362,25 1344,25 1344,10 1314,40 1344,70 1344,55 1362,55" fill="rgb(255,255,255)" fill-opacity="1.0" stroke="rgb(0,0,0)" stroke-width="2"  />
			<g>
				<title>Aminotran_1_2 (PF00155)
"Aminotransferase class I and II"</title>
				<polygon class="PF00155" points="1318,40 1330,28 1345,28 1345,52 1330,52" stroke-linejoin="round" width="31" height="24" fill="rgb(89,113,198)" stroke="rgb(71,90,158)" stroke-width="1" opacity="0.75" />
			</g>
			<g>
				<title>GntR (PF00392)
"Bacterial regulatory proteins, gntR family"</title>
				<rect class="PF00392" x="1354" y="28" stroke-linejoin="round" width="6" height="24" fill="rgb(160,85,194)" stroke="rgb(127,68,155)" stroke-width="1" opacity="0.75" />
			</g>
		</g>
		<g>
			<title>hpa_tpa (LBIMNCPI_01190)
Hypotaurine/taurine--pyruvate aminotransferase</title>
			<polygon class="hpa_tpa (LBIMNCPI_01190)
Hypotaurine/taurine--pyruvate aminotransferase" points="1416,25 1400,25 1400,10 1370,40 1400,70 1400,55 1416,55" fill="rgb(255,255,255)" fill-opacity="1.0" stroke="rgb(0,0,0)" stroke-width="2"  />
			<g>
				<title>Aminotran_3 (PF00202)
"Aminotransferase class-III"</title>
				<polygon class="PF00202" points="1374,40 1386,28 1412,28 1412,52 1386,52" stroke-linejoin="round" width="42" height="24" fill="rgb(49,163,189)" stroke="rgb(39,130,151)" stroke-width="1" opacity="0.75" />
			</g>
		</g>
		<g>
			<title> (LBIMNCPI_01191)
hypothetical protein</title>
			<polygon class=" (LBIMNCPI_01191)
hypothetical protein" points="1425,10 1443,40 1425,70" fill="rgb(255,255,255)" fill-opacity="1.0" stroke="rgb(0,0,0)" stroke-width="2"  />
			<g>
				<title>FMN_red (PF03358)
"NADPH-dependent FMN reductase"</title>
				<polygon class="PF03358" points="1425,28 1432,28 1440,40 1440,40 1432,52 1425,52" stroke-linejoin="round" width="15" height="24" fill="rgb(90,228,61)" stroke="rgb(72,182,48)" stroke-width="1" opacity="0.75" />
			</g>
		</g>
	</g>
</svg>
