<svg version="1.1" baseProfile="full" xmlns="http://www.w3.org/2000/svg" width="381.93333333333334" height="80">
	<g>
		<line x1="10" y1="40.0" x2="371.93333333333334" y2="40.0" style="stroke:rgb(70,70,70); stroke-width:3 "/>
		<g>
			<title>mntB_2 (OLGNLAKD_02639)
Manganese transport system membrane protein MntB</title>
			<polygon class="mntB_2 (OLGNLAKD_02639)
Manganese transport system membrane protein MntB" points="33,10 61,40 33,70" fill="rgb(255,255,255)" fill-opacity="1.0" stroke="rgb(0,0,0)" stroke-width="2"  />
			<g>
				<title>ABC-3 (PF00950)
"ABC 3 transport family"</title>
				<polygon class="PF00950" points="33,28 45,28 57,40 45,52 33,52" stroke-linejoin="round" width="25" height="24" fill="rgb(190,102,215)" stroke="rgb(152,81,172)" stroke-width="1" opacity="0.75" />
			</g>
		</g>
		<g>
			<title>mntB_3 (OLGNLAKD_02640)
Manganese transport system membrane protein MntB</title>
			<polygon class="mntB_3 (OLGNLAKD_02640)
Manganese transport system membrane protein MntB" points="61,10 88,40 61,70" fill="rgb(255,255,255)" fill-opacity="1.0" stroke="rgb(0,0,0)" stroke-width="2"  />
			<g>
				<title>ABC-3 (PF00950)
"ABC 3 transport family"</title>
				<polygon class="PF00950" points="61,28 73,28 84,40 73,52 61,52" stroke-linejoin="round" width="25" height="24" fill="rgb(190,102,215)" stroke="rgb(152,81,172)" stroke-width="1" opacity="0.75" />
			</g>
		</g>
		<g>
			<title>nrsF (OLGNLAKD_02641)
Anti-sigma-F factor NrsF</title>
			<polygon class="nrsF (OLGNLAKD_02641)
Anti-sigma-F factor NrsF" points="95,40 116,10 116,70" fill="rgb(255,255,255)" fill-opacity="1.0" stroke="rgb(0,0,0)" stroke-width="2"  />
			<g>
				<title>NrsF (PF06532)
"Negative regulator of sigma F"</title>
				<polygon class="PF06532" points="99,40 108,28 114,28 114,52 108,52" stroke-linejoin="round" width="19" height="24" fill="rgb(100,222,119)" stroke="rgb(80,177,95)" stroke-width="1" opacity="0.75" />
			</g>
		</g>
		<g>
			<title> (OLGNLAKD_02642)
hypothetical protein</title>
			<polygon class=" (OLGNLAKD_02642)
hypothetical protein" points="116,40 134,10 134,70" fill="rgb(255,255,255)" fill-opacity="1.0" stroke="rgb(0,0,0)" stroke-width="2"  />
			<g>
				<title>Sigma70_r2 (PF04542)
"Sigma-70 region 2"</title>
				<polygon class="PF04542" points="124,33 127,28 130,28 130,52 127,52 124,47" stroke-linejoin="round" width="6" height="24" fill="rgb(184,59,197)" stroke="rgb(147,47,157)" stroke-width="1" opacity="0.75" />
			</g>
		</g>
		<g>
			<title> (OLGNLAKD_02643)
hypothetical protein</title>
			<polygon class=" (OLGNLAKD_02643)
hypothetical protein" points="138,40 152,10 152,70" fill="rgb(255,255,255)" fill-opacity="1.0" stroke="rgb(0,0,0)" stroke-width="2"  />
			<g>
				<title>DoxX (PF07681)
"DoxX"</title>
				<polygon class="PF07681" points="141,40 147,28 149,28 149,52 147,52 141,40" stroke-linejoin="round" width="8" height="24" fill="rgb(93,188,216)" stroke="rgb(74,150,172)" stroke-width="1" opacity="0.75" />
			</g>
		</g>
		<g>
			<title> (OLGNLAKD_02644)
hypothetical protein</title>
			<polygon class=" (OLGNLAKD_02644)
hypothetical protein" points="152,40 176,10 176,70" fill="rgb(255,255,255)" fill-opacity="1.0" stroke="rgb(0,0,0)" stroke-width="2"  />
			<g>
				<title>DUF2063 (PF09836)
"Putative DNA-binding domain"</title>
				<rect class="PF09836" x="167" y="28" stroke-linejoin="round" width="8" height="24" fill="rgb(88,194,190)" stroke="rgb(70,155,152)" stroke-width="1" opacity="0.75" />
			</g>
		</g>
		<g>
			<title> (OLGNLAKD_02645)
hypothetical protein</title>
			<polygon class=" (OLGNLAKD_02645)
hypothetical protein" points="176,40 204,10 204,70" fill="rgb(255,255,255)" fill-opacity="1.0" stroke="rgb(0,0,0)" stroke-width="2"  />
			<g>
				<title>DUF692 (PF05114)
"Protein of unknown function (DUF692)"</title>
				<polygon class="PF05114" points="180,40 191,28 202,28 202,52 191,52" stroke-linejoin="round" width="26" height="24" fill="rgb(63,196,127)" stroke="rgb(50,156,101)" stroke-width="1" opacity="0.75" />
			</g>
		</g>
		<g>
			<title> (OLGNLAKD_02646)
hypothetical protein</title>
			<polygon class=" (OLGNLAKD_02646)
hypothetical protein" points="207,40 217,10 217,70" fill="rgb(255,255,255)" fill-opacity="1.0" stroke="rgb(0,0,0)" stroke-width="2"  />
			<g>
				<title>DUF2282 (PF10048)
"Predicted integral membrane protein (DUF2282)"</title>
				<polygon class="PF10048" points="210,40 213,32 213,48" stroke-linejoin="round" width="5" height="24" fill="rgb(58,205,168)" stroke="rgb(46,164,134)" stroke-width="1" opacity="0.75" />
			</g>
		</g>
		<g>
			<title> (OLGNLAKD_02647)
hypothetical protein</title>
			<polygon class=" (OLGNLAKD_02647)
hypothetical protein" points="231,40 258,10 258,70" fill="rgb(255,255,255)" fill-opacity="1.0" stroke="rgb(0,0,0)" stroke-width="2"  />
		</g>
		<g>
			<title> (OLGNLAKD_02648)
hypothetical protein</title>
			<polygon class=" (OLGNLAKD_02648)
hypothetical protein" points="289,25 289,25 289,10 259,40 289,70 289,55 289,55" fill="rgb(255,255,255)" fill-opacity="1.0" stroke="rgb(0,0,0)" stroke-width="2"  />
		</g>
		<g>
			<title> (OLGNLAKD_02649)
hypothetical protein</title>
			<polygon class=" (OLGNLAKD_02649)
hypothetical protein" points="362,25 330,25 330,10 300,40 330,70 330,55 362,55" fill="rgb(255,255,255)" fill-opacity="1.0" stroke="rgb(0,0,0)" stroke-width="2"  />
			<g>
				<title>CitMHS (PF03600)
"Citrate transporter"</title>
				<polygon class="PF03600" points="304,40 316,28 318,28 318,52 316,52" stroke-linejoin="round" width="18" height="24" fill="rgb(75,203,220)" stroke="rgb(60,162,176)" stroke-width="1" opacity="0.75" />
			</g>
			<g>
				<title>CitMHS (PF03600)
"Citrate transporter"</title>
				<rect class="PF03600" x="318" y="28" stroke-linejoin="round" width="42" height="24" fill="rgb(75,203,220)" stroke="rgb(60,162,176)" stroke-width="1" opacity="0.75" />
			</g>
		</g>
	</g>
</svg>
