<svg version="1.1" baseProfile="full" xmlns="http://www.w3.org/2000/svg" width="366.23333333333335" height="80">
	<g>
		<line x1="10" y1="40.0" x2="356.23333333333335" y2="40.0" style="stroke:rgb(70,70,70); stroke-width:3 "/>
		<g>
			<title>mrcA (MPBPDOGJ_00273)
Penicillin-binding protein 1A</title>
			<polygon class="mrcA (MPBPDOGJ_00273)
Penicillin-binding protein 1A" points="19,25 73,25 73,10 103,40 73,70 73,55 19,55" fill="rgb(255,255,255)" fill-opacity="1.0" stroke="rgb(0,0,0)" stroke-width="2"  />
			<g>
				<title>Transgly (PF00912)
"Transglycosylase"</title>
				<rect class="PF00912" x="24" y="28" stroke-linejoin="round" width="17" height="24" fill="rgb(172,107,216)" stroke="rgb(137,85,172)" stroke-width="1" opacity="0.75" />
			</g>
			<g>
				<title>PCB_OB (PF17092)
"Penicillin-binding protein OB-like domain"</title>
				<rect class="PF17092" x="51" y="28" stroke-linejoin="round" width="11" height="24" fill="rgb(67,200,223)" stroke="rgb(53,159,178)" stroke-width="1" opacity="0.75" />
			</g>
			<g>
				<title>Transpeptidase (PF00905)
"Penicillin binding protein transpeptidase domain"</title>
				<polygon class="PF00905" points="63,28 86,28 92,34 92,46 86,52 63,52" stroke-linejoin="round" width="29" height="24" fill="rgb(161,226,87)" stroke="rgb(128,180,69)" stroke-width="1" opacity="0.75" />
			</g>
		</g>
		<g>
			<title>prfB (MPBPDOGJ_00274)
Peptide chain release factor RF2</title>
			<polygon class="prfB (MPBPDOGJ_00274)
Peptide chain release factor RF2" points="105,25 112,25 112,10 142,40 112,70 112,55 105,55" fill="rgb(255,255,255)" fill-opacity="1.0" stroke="rgb(0,0,0)" stroke-width="2"  />
			<g>
				<title>PCRF (PF03462)
"PCRF domain"</title>
				<rect class="PF03462" x="107" y="28" stroke-linejoin="round" width="19" height="24" fill="rgb(189,168,84)" stroke="rgb(151,134,67)" stroke-width="1" opacity="0.75" />
			</g>
			<g>
				<title>RF-1 (PF00472)
"RF-1 domain"</title>
				<polygon class="PF00472" points="127,29 137,39 137,41 127,51" stroke-linejoin="round" width="10" height="24" fill="rgb(78,76,196)" stroke="rgb(62,60,156)" stroke-width="1" opacity="0.75" />
			</g>
		</g>
		<g>
			<title>yabJ (MPBPDOGJ_00275)
2-iminobutanoate/2-iminopropanoate deaminase</title>
			<polygon class="yabJ (MPBPDOGJ_00275)
2-iminobutanoate/2-iminopropanoate deaminase" points="146,40 157,10 157,70" fill="rgb(255,255,255)" fill-opacity="1.0" stroke="rgb(0,0,0)" stroke-width="2"  />
			<g>
				<title>Ribonuc_L-PSP (PF01042)
"Endoribonuclease L-PSP"</title>
				<polygon class="PF01042" points="149,40 154,28 157,28 157,52 154,52" stroke-linejoin="round" width="11" height="24" fill="rgb(93,120,208)" stroke="rgb(74,96,166)" stroke-width="1" opacity="0.75" />
			</g>
		</g>
		<g>
			<title>ectC (MPBPDOGJ_00276)
L-ectoine synthase</title>
			<polygon class="ectC (MPBPDOGJ_00276)
L-ectoine synthase" points="176,40 188,10 188,70" fill="rgb(255,255,255)" fill-opacity="1.0" stroke="rgb(0,0,0)" stroke-width="2"  />
			<g>
				<title>Ectoine_synth (PF06339)
"Ectoine synthase"</title>
				<polygon class="PF06339" points="179,40 184,28 188,28 188,52 184,52" stroke-linejoin="round" width="12" height="24" fill="rgb(225,176,81)" stroke="rgb(180,140,64)" stroke-width="1" opacity="0.75" />
			</g>
		</g>
		<g>
			<title>trpS (MPBPDOGJ_00277)
Tryptophan--tRNA ligase</title>
			<polygon class="trpS (MPBPDOGJ_00277)
Tryptophan--tRNA ligase" points="223,25 219,25 219,10 189,40 219,70 219,55 223,55" fill="rgb(255,255,255)" fill-opacity="1.0" stroke="rgb(0,0,0)" stroke-width="2"  />
			<g>
				<title>tRNA-synt_1b (PF00579)
"tRNA synthetases class I (W and Y)"</title>
				<polygon class="PF00579" points="194,39 205,28 222,28 222,52 205,52 194,41" stroke-linejoin="round" width="28" height="24" fill="rgb(82,63,204)" stroke="rgb(65,50,163)" stroke-width="1" opacity="0.75" />
			</g>
		</g>
		<g>
			<title> (MPBPDOGJ_00278)
hypothetical protein</title>
			<polygon class=" (MPBPDOGJ_00278)
hypothetical protein" points="226,10 248,40 226,70" fill="rgb(255,255,255)" fill-opacity="1.0" stroke="rgb(0,0,0)" stroke-width="2"  />
			<g>
				<title>Rhomboid (PF01694)
"Rhomboid family"</title>
				<polygon class="PF01694" points="232,28 236,28 245,40 236,52 232,52" stroke-linejoin="round" width="14" height="24" fill="rgb(210,72,145)" stroke="rgb(168,57,116)" stroke-width="1" opacity="0.75" />
			</g>
		</g>
		<g>
			<title>murJ (MPBPDOGJ_00279)
putative lipid II flippase MurJ</title>
			<polygon class="murJ (MPBPDOGJ_00279)
putative lipid II flippase MurJ" points="300,25 279,25 279,10 249,40 279,70 279,55 300,55" fill="rgb(255,255,255)" fill-opacity="1.0" stroke="rgb(0,0,0)" stroke-width="2"  />
			<g>
				<title>MurJ (PF03023)
"Lipid II flippase MurJ"</title>
				<polygon class="PF03023" points="253,40 265,28 297,28 297,52 265,52" stroke-linejoin="round" width="45" height="24" fill="rgb(58,92,194)" stroke="rgb(46,73,155)" stroke-width="1" opacity="0.75" />
			</g>
		</g>
	</g>
</svg>
