<svg xmlns="http://www.w3.org/2000/svg" xmlns:xlink="http://www.w3.org/1999/xlink" version="1.1" x="0" y="0" height="230" width="800" viewBox="0 0 800 230" preserveAspectRatio="none"  >
<g label="Query sequence" class="clusterblast-cluster"  >
<text x="5" y="20" class="clusterblast-acc"  >
Query sequence</text>
<line x1="10" y1="35" x2="778.0" y2="35" style="stroke-width:1; stroke:grey; "  />
<polygon points="261,35 266,30 275,30 275,40 266,40 261,35 " style="fill:white; stroke-width:1; stroke:black; " description="&lt;b&gt;MPBPDOGJ_02968&lt;/b&gt;&lt;br&gt;Inner membrane transport protein YnfM&lt;br&gt;Location: 253 - 1333" locus_tag="MPBPDOGJ_02968" class="clusterblast-orf" id="dummy-1_q0_0_all"  />
<polygon points="276,40 282,40 287,35 282,30 276,30 276,40 " style="fill:white; stroke-width:1; stroke:black; " description="&lt;b&gt;MPBPDOGJ_02969&lt;/b&gt;&lt;br&gt;HTH-type transcriptional regulator BenM&lt;br&gt;Location: 1424 - 2309" locus_tag="MPBPDOGJ_02969" class="clusterblast-orf" id="dummy-1_q1_0_all"  />
<polygon points="295,35 300,30 316,30 316,40 300,40 295,35 " style="fill:white; stroke-width:1; stroke:black; " description="&lt;b&gt;MPBPDOGJ_02970&lt;/b&gt;&lt;br&gt;D-erythritol 1-phosphate dehydrogenase&lt;br&gt;Location: 2874 - 4509" locus_tag="MPBPDOGJ_02970" class="clusterblast-orf" id="dummy-1_q2_0_all"  />
<polygon points="322,40 327,40 332,35 327,30 322,30 322,40 " style="fill:white; stroke-width:1; stroke:black; " description="&lt;b&gt;MPBPDOGJ_02971&lt;/b&gt;&lt;br&gt;Glycerol-3-phosphate regulon repressor&lt;br&gt;Location: 4922 - 5699" locus_tag="MPBPDOGJ_02971" class="clusterblast-orf" id="dummy-1_q3_0_all"  />
<polygon points="362,35 367,30 376,30 376,40 367,40 362,35 " style="fill:#d81515; stroke-width:1; stroke:black; " description="&lt;b&gt;MPBPDOGJ_02972&lt;/b&gt;&lt;br&gt;PqqA peptide cyclase&lt;br&gt;Location: 8019 - 9105" locus_tag="MPBPDOGJ_02972" class="clusterblast-orf" id="dummy-1_q4_0_all"  />
<polygon points="376,35 380,30 380,40 376,35 " style="fill:#d81515; stroke-width:1; stroke:black; " description="&lt;b&gt;MPBPDOGJ_02973&lt;/b&gt;&lt;br&gt;Bifunctional coenzyme PQQ synthesis protein C/D&lt;br&gt;Location: 9101 - 9374" locus_tag="MPBPDOGJ_02973" class="clusterblast-orf" id="dummy-1_q5_0_all"  />
<polygon points="380,35 385,30 389,30 389,40 385,40 380,35 " style="fill:#77d815; stroke-width:1; stroke:black; " description="&lt;b&gt;MPBPDOGJ_02974&lt;/b&gt;&lt;br&gt;Bifunctional coenzyme PQQ synthesis protein C/D&lt;br&gt;Location: 9370 - 10111" locus_tag="MPBPDOGJ_02974" class="clusterblast-orf" id="dummy-1_q6_0_all"  />
<polygon points="389,35 394,30 401,30 401,40 394,40 389,35 " style="fill:#15d8d8; stroke-width:1; stroke:black; " description="&lt;b&gt;MPBPDOGJ_02975&lt;/b&gt;&lt;br&gt;Coenzyme PQQ synthesis protein B&lt;br&gt;Location: 10107 - 10992" locus_tag="MPBPDOGJ_02975" class="clusterblast-orf" id="dummy-1_q7_0_all"  />
<polygon points="401,35 402,30 402,40 401,35 " style="fill:#7715d8; stroke-width:1; stroke:black; " description="&lt;b&gt;MPBPDOGJ_02976&lt;/b&gt;&lt;br&gt;Coenzyme PQQ synthesis protein A&lt;br&gt;Location: 11003 - 11105" locus_tag="MPBPDOGJ_02976" class="clusterblast-orf" id="dummy-1_q8_0_all"  />
<polygon points="407,40 409,35 407,30 407,40 " style="fill:white; stroke-width:1; stroke:black; " description="&lt;b&gt;MPBPDOGJ_02977&lt;/b&gt;&lt;br&gt;hypothetical protein&lt;br&gt;Location: 11428 - 11608" locus_tag="MPBPDOGJ_02977" class="clusterblast-orf" id="dummy-1_q9_0_all"  />
<polygon points="416,40 444,40 449,35 444,30 416,30 416,40 " style="fill:white; stroke-width:1; stroke:black; " description="&lt;b&gt;MPBPDOGJ_02978&lt;/b&gt;&lt;br&gt;hypothetical protein&lt;br&gt;Location: 12179 - 14657" locus_tag="MPBPDOGJ_02978" class="clusterblast-orf" id="dummy-1_q10_0_all"  />
<polygon points="450,40 458,40 463,35 458,30 450,30 450,40 " style="fill:white; stroke-width:1; stroke:black; " description="&lt;b&gt;MPBPDOGJ_02979&lt;/b&gt;&lt;br&gt;hypothetical protein&lt;br&gt;Location: 14778 - 15738" locus_tag="MPBPDOGJ_02979" class="clusterblast-orf" id="dummy-1_q11_0_all"  />
<polygon points="463,35 468,30 488,30 488,40 468,40 463,35 " style="fill:white; stroke-width:1; stroke:black; " description="&lt;b&gt;MPBPDOGJ_02980&lt;/b&gt;&lt;br&gt;hypothetical protein&lt;br&gt;Location: 15753 - 17637" locus_tag="MPBPDOGJ_02980" class="clusterblast-orf" id="dummy-1_q12_0_all"  />
<polygon points="488,35 493,30 502,30 502,40 493,40 488,35 " style="fill:white; stroke-width:1; stroke:black; " description="&lt;b&gt;MPBPDOGJ_02981&lt;/b&gt;&lt;br&gt;UDP-N-acetylenolpyruvoylglucosamine reductase&lt;br&gt;Location: 17673 - 18747" locus_tag="MPBPDOGJ_02981" class="clusterblast-orf" id="dummy-1_q13_0_all"  />
<polygon points="502,35 507,30 519,30 519,40 507,40 502,35 " style="fill:white; stroke-width:1; stroke:black; " description="&lt;b&gt;MPBPDOGJ_02982&lt;/b&gt;&lt;br&gt;UDP-N-acetylglucosamine 1-carboxyvinyltransferase 1&lt;br&gt;Location: 18730 - 20005" locus_tag="MPBPDOGJ_02982" class="clusterblast-orf" id="dummy-1_q14_0_all"  />
</g>
<g label="NZ_CP020442" description="NZ_CP020442 (1258595-1318385): Paracoccus yeei strain FDAARGOS 252 chromosome... (8% of genes show similarity), NRPS,TfuA-related,thiopeptide" class="clusterblast-cluster"  >
<text x="5" y="70" class="clusterblast-acc"  >
<a xlink:href="https://antismash-db.secondarymetabolites.org/area.html?record=NZ_CP020442&amp;start=1258595&amp;end=1318385" target="_blank">NZ_CP020442 (1258595-1318385)</a>: Paracoccus yeei strain FDAARGOS 252 chromosome... (8% of genes show similarity), NRPS,TfuA-related,thiopeptide</text>
<line x1="10" y1="85" x2="778.0" y2="85" style="stroke-width:1; stroke:grey; "  />
</g>
<g id="a1_000"  >
<polygon points="0,90 14,90 19,85 14,80 0,80 0,90 " style="fill:white; stroke-width:1; stroke:black; " description="&lt;b&gt;A6J80_RS08625&lt;/b&gt;&lt;br&gt;HAMP domain-containing histidine kinase&lt;br&gt;Location: 1258596 - 1260104" locus_tag="A6J80_RS08625" class="clusterblast-orf" id="dummy-1_h1_3_0"  />
</g>
<g id="a1_001"  >
<polygon points="19,90 23,90 28,85 23,80 19,80 19,90 " style="fill:white; stroke-width:1; stroke:black; " description="&lt;b&gt;A6J80_RS08630&lt;/b&gt;&lt;br&gt;response regulator transcription factor&lt;br&gt;Location: 1260104 - 1260796" locus_tag="A6J80_RS08630" class="clusterblast-orf" id="dummy-1_h1_3_1"  />
</g>
<g id="a1_002"  >
<polygon points="28,90 32,90 37,85 32,80 28,80 28,90 " style="fill:white; stroke-width:1; stroke:black; " description="&lt;b&gt;A6J80_RS08635&lt;/b&gt;&lt;br&gt;hypothetical protein&lt;br&gt;Location: 1260793 - 1261452" locus_tag="A6J80_RS08635" class="clusterblast-orf" id="dummy-1_h1_3_2"  />
</g>
<g id="a1_003"  >
<polygon points="37,90 41,85 37,80 37,90 " style="fill:white; stroke-width:1; stroke:black; " description="&lt;b&gt;A6J80_RS08640&lt;/b&gt;&lt;br&gt;hypothetical protein&lt;br&gt;Location: 1261449 - 1261802" locus_tag="A6J80_RS08640" class="clusterblast-orf" id="dummy-1_h1_3_3"  />
</g>
<g id="a1_004"  >
<polygon points="42,85 47,80 66,80 66,90 47,90 42,85 " style="fill:white; stroke-width:1; stroke:black; " description="&lt;b&gt;A6J80_RS08645&lt;/b&gt;&lt;br&gt;methanol/ethanol family PQQ-dependent dehydrogenase&lt;br&gt;Location: 1261876 - 1263681" locus_tag="A6J80_RS08645" class="clusterblast-orf" id="dummy-1_h1_3_4"  />
</g>
<g id="a1_005"  >
<polygon points="68,85 73,80 84,80 84,90 73,90 68,85 " style="fill:white; stroke-width:1; stroke:black; " description="&lt;b&gt;A6J80_RS08650&lt;/b&gt;&lt;br&gt;BatD family protein&lt;br&gt;Location: 1263851 - 1265074" locus_tag="A6J80_RS08650" class="clusterblast-orf" id="dummy-1_h1_3_5"  />
</g>
<g id="a1_006"  >
<polygon points="83,85 88,80 90,80 90,90 88,90 83,85 " style="fill:white; stroke-width:1; stroke:black; " description="&lt;b&gt;A6J80_RS08655&lt;/b&gt;&lt;br&gt;hypothetical protein&lt;br&gt;Location: 1264957 - 1265556" locus_tag="A6J80_RS08655" class="clusterblast-orf" id="dummy-1_h1_3_6"  />
</g>
<g id="a1_007"  >
<polygon points="90,85 95,80 103,80 103,90 95,90 90,85 " style="fill:white; stroke-width:1; stroke:black; " description="&lt;b&gt;A6J80_RS08660&lt;/b&gt;&lt;br&gt;VWA domain-containing protein&lt;br&gt;Location: 1265553 - 1266482" locus_tag="A6J80_RS08660" class="clusterblast-orf" id="dummy-1_h1_3_7"  />
</g>
<g id="a1_008"  >
<polygon points="103,85 108,80 115,80 115,90 108,90 103,85 " style="fill:white; stroke-width:1; stroke:black; " description="&lt;b&gt;A6J80_RS08665&lt;/b&gt;&lt;br&gt;VWA domain-containing protein&lt;br&gt;Location: 1266479 - 1267420" locus_tag="A6J80_RS08665" class="clusterblast-orf" id="dummy-1_h1_3_8"  />
</g>
<g id="a1_009"  >
<polygon points="115,85 120,80 120,80 120,90 120,90 115,85 " style="fill:white; stroke-width:1; stroke:black; " description="&lt;b&gt;A6J80_RS23925&lt;/b&gt;&lt;br&gt;hypothetical protein&lt;br&gt;Location: 1267417 - 1267791" locus_tag="A6J80_RS23925" class="clusterblast-orf" id="dummy-1_h1_3_9"  />
</g>
<g id="a1_0010"  >
<polygon points="120,85 125,80 131,80 131,90 125,90 120,85 " style="fill:white; stroke-width:1; stroke:black; " description="&lt;b&gt;A6J80_RS08670&lt;/b&gt;&lt;br&gt;DUF58 domain-containing protein&lt;br&gt;Location: 1267788 - 1268624" locus_tag="A6J80_RS08670" class="clusterblast-orf" id="dummy-1_h1_3_10"  />
</g>
<g id="a1_0011"  >
<polygon points="131,85 136,80 148,80 148,90 136,90 131,85 " style="fill:white; stroke-width:1; stroke:black; " description="&lt;b&gt;A6J80_RS08675&lt;/b&gt;&lt;br&gt;MoxR family ATPase&lt;br&gt;Location: 1268669 - 1269970" locus_tag="A6J80_RS08675" class="clusterblast-orf" id="dummy-1_h1_3_11"  />
</g>
<g id="a1_0012"  >
<polygon points="153,90 156,85 153,80 153,90 " style="fill:white; stroke-width:1; stroke:black; " description="&lt;b&gt;A6J80_RS08685&lt;/b&gt;&lt;br&gt;hypothetical protein&lt;br&gt;Location: 1270325 - 1270594" locus_tag="A6J80_RS08685" class="clusterblast-orf" id="dummy-1_h1_3_12"  />
</g>
<g id="a1_0013"  >
<polygon points="157,90 159,85 157,80 157,90 " style="fill:white; stroke-width:1; stroke:black; " description="&lt;b&gt;A6J80_RS08690&lt;/b&gt;&lt;br&gt;IS110 family transposase&lt;br&gt;Location: 1270682 - 1270807" locus_tag="A6J80_RS08690" class="clusterblast-orf" id="dummy-1_h1_3_13"  />
</g>
<g id="a1_0014"  >
<polygon points="161,85 166,80 177,80 177,90 166,90 161,85 " style="fill:white; stroke-width:1; stroke:black; " description="&lt;b&gt;A6J80_RS08695&lt;/b&gt;&lt;br&gt;RNA methyltransferase&lt;br&gt;Location: 1270974 - 1272161" locus_tag="A6J80_RS08695" class="clusterblast-orf" id="dummy-1_h1_3_14"  />
</g>
<g id="a1_0015"  >
<polygon points="179,90 184,90 189,85 184,80 179,80 179,90 " style="fill:white; stroke-width:1; stroke:black; " description="&lt;b&gt;A6J80_RS08700&lt;/b&gt;&lt;br&gt;VOC family protein&lt;br&gt;Location: 1272326 - 1273111" locus_tag="A6J80_RS08700" class="clusterblast-orf" id="dummy-1_h1_3_15"  />
</g>
<g id="a1_0016"  >
<polygon points="190,85 195,80 200,80 200,90 195,90 190,85 " style="fill:white; stroke-width:1; stroke:black; " description="&lt;b&gt;A6J80_RS08705&lt;/b&gt;&lt;br&gt;metallophosphoesterase&lt;br&gt;Location: 1273182 - 1273970" locus_tag="A6J80_RS08705" class="clusterblast-orf" id="dummy-1_h1_3_16"  />
</g>
<g id="a1_0017"  >
<polygon points="200,85 205,80 213,80 213,90 205,90 200,85 " style="fill:white; stroke-width:1; stroke:black; " description="&lt;b&gt;A6J80_RS08710&lt;/b&gt;&lt;br&gt;NAD(+)/NADH kinase&lt;br&gt;Location: 1273967 - 1274914" locus_tag="A6J80_RS08710" class="clusterblast-orf" id="dummy-1_h1_3_17"  />
</g>
<g id="a1_0018"  >
<polygon points="217,90 228,90 233,85 228,80 217,80 217,90 " style="fill:white; stroke-width:1; stroke:black; " description="&lt;b&gt;A6J80_RS08715&lt;/b&gt;&lt;br&gt;isochorismate synthase&lt;br&gt;Location: 1275239 - 1276450" locus_tag="A6J80_RS08715" class="clusterblast-orf" id="dummy-1_h1_3_18"  />
</g>
<g id="a1_0019"  >
<polygon points="233,90 236,90 241,85 236,80 233,80 233,90 " style="fill:white; stroke-width:1; stroke:black; " description="&lt;b&gt;A6J80_RS08720&lt;/b&gt;&lt;br&gt;isochorismatase family protein&lt;br&gt;Location: 1276450 - 1277097" locus_tag="A6J80_RS08720" class="clusterblast-orf" id="dummy-1_h1_3_19"  />
</g>
<g id="a1_0020"  >
<polygon points="241,90 246,90 251,85 246,80 241,80 241,90 " style="fill:white; stroke-width:1; stroke:black; " description="&lt;b&gt;A6J80_RS08725&lt;/b&gt;&lt;br&gt;SDR family oxidoreductase&lt;br&gt;Location: 1277088 - 1277858" locus_tag="A6J80_RS08725" class="clusterblast-orf" id="dummy-1_h1_3_20"  />
</g>
<g id="a1_0021"  >
<polygon points="251,85 254,80 254,90 251,85 " style="fill:white; stroke-width:1; stroke:black; " description="&lt;b&gt;A6J80_RS08730&lt;/b&gt;&lt;br&gt;isochorismatase&lt;br&gt;Location: 1277863 - 1278099" locus_tag="A6J80_RS08730" class="clusterblast-orf" id="dummy-1_h1_3_21"  />
</g>
<g id="a1_0022"  >
<polygon points="255,85 260,80 276,80 276,90 260,90 255,85 " style="fill:white; stroke-width:1; stroke:black; " description="&lt;b&gt;A6J80_RS08735&lt;/b&gt;&lt;br&gt;(2,3-dihydroxybenzoyl)adenylate synthase&lt;br&gt;Location: 1278124 - 1279743" locus_tag="A6J80_RS08735" class="clusterblast-orf" id="dummy-1_h1_3_22"  />
</g>
<g id="a1_0023"  >
<polygon points="278,90 291,90 296,85 291,80 278,80 278,90 " style="fill:white; stroke-width:1; stroke:black; " description="&lt;b&gt;A6J80_RS08740&lt;/b&gt;&lt;br&gt;condensation protein&lt;br&gt;Location: 1279934 - 1281301" locus_tag="A6J80_RS08740" class="clusterblast-orf" id="dummy-1_h1_3_23"  />
</g>
<g id="a1_0024"  >
<polygon points="296,85 301,80 302,80 302,90 301,90 296,85 " style="fill:white; stroke-width:1; stroke:black; " description="&lt;b&gt;A6J80_RS08745&lt;/b&gt;&lt;br&gt;hypothetical protein&lt;br&gt;Location: 1281298 - 1281717" locus_tag="A6J80_RS08745" class="clusterblast-orf" id="dummy-1_h1_3_24"  />
</g>
<g id="a1_0025"  >
<polygon points="302,85 307,80 310,80 310,90 307,90 302,85 " style="fill:white; stroke-width:1; stroke:black; " description="&lt;b&gt;A6J80_RS08750&lt;/b&gt;&lt;br&gt;hypothetical protein&lt;br&gt;Location: 1281725 - 1282342" locus_tag="A6J80_RS08750" class="clusterblast-orf" id="dummy-1_h1_3_25"  />
</g>
<g id="a1_0026"  >
<polygon points="314,85 319,80 326,80 326,90 319,90 314,85 " style="fill:white; stroke-width:1; stroke:black; " description="&lt;b&gt;A6J80_RS08760&lt;/b&gt;&lt;br&gt;LysR family transcriptional regulator&lt;br&gt;Location: 1282684 - 1283595" locus_tag="A6J80_RS08760" class="clusterblast-orf" id="dummy-1_h1_3_26"  />
</g>
<g id="a1_0027"  >
<polygon points="328,90 334,90 339,85 334,80 328,80 328,90 " style="fill:white; stroke-width:1; stroke:black; " description="&lt;b&gt;A6J80_RS08765&lt;/b&gt;&lt;br&gt;SDR family oxidoreductase&lt;br&gt;Location: 1283759 - 1284532" locus_tag="A6J80_RS08765" class="clusterblast-orf" id="dummy-1_h1_3_27"  />
</g>
<g id="a1_0028"  >
<polygon points="340,90 345,90 350,85 345,80 340,80 340,90 " style="fill:white; stroke-width:1; stroke:black; " description="&lt;b&gt;A6J80_RS08770&lt;/b&gt;&lt;br&gt;SDR family oxidoreductase&lt;br&gt;Location: 1284617 - 1285381" locus_tag="A6J80_RS08770" class="clusterblast-orf" id="dummy-1_h1_3_28"  />
</g>
<g id="a1_0029"  >
<polygon points="352,85 357,80 361,80 361,90 357,90 352,85 " style="fill:white; stroke-width:1; stroke:black; " description="&lt;b&gt;A6J80_RS08775&lt;/b&gt;&lt;br&gt;Crp/Fnr family transcriptional regulator&lt;br&gt;Location: 1285597 - 1286271" locus_tag="A6J80_RS08775" class="clusterblast-orf" id="dummy-1_h1_3_29"  />
</g>
<g id="a1_0030"  >
<polygon points="369,85 374,80 376,80 376,90 374,90 369,85 " style="fill:white; stroke-width:1; stroke:black; " description="&lt;b&gt;A6J80_RS08780&lt;/b&gt;&lt;br&gt;hypothetical protein&lt;br&gt;Location: 1286863 - 1287387" locus_tag="A6J80_RS08780" class="clusterblast-orf" id="dummy-1_h1_3_30"  />
</g>
<g id="a1_0031"  >
<polygon points="377,85 382,80 394,80 394,90 382,90 377,85 " style="fill:white; stroke-width:1; stroke:black; " description="&lt;b&gt;A6J80_RS08785&lt;/b&gt;&lt;br&gt;hypothetical protein&lt;br&gt;Location: 1287497 - 1288798" locus_tag="A6J80_RS08785" class="clusterblast-orf" id="dummy-1_h1_3_31"  />
</g>
<g id="a1_0032"  >
<polygon points="394,85 399,80 409,80 409,90 399,90 394,85 " style="fill:white; stroke-width:1; stroke:black; " description="&lt;b&gt;A6J80_RS08790&lt;/b&gt;&lt;br&gt;YcaO-like family protein&lt;br&gt;Location: 1288795 - 1289955" locus_tag="A6J80_RS08790" class="clusterblast-orf" id="dummy-1_h1_3_32"  />
</g>
<g id="a1_0033"  >
<polygon points="410,85 415,80 417,80 417,90 415,90 410,85 " style="fill:white; stroke-width:1; stroke:black; " description="&lt;b&gt;A6J80_RS08795&lt;/b&gt;&lt;br&gt;GNAT family N-acetyltransferase&lt;br&gt;Location: 1290033 - 1290527" locus_tag="A6J80_RS08795" class="clusterblast-orf" id="dummy-1_h1_3_33"  />
</g>
<g id="a1_0034"  >
<polygon points="419,90 437,90 442,85 437,80 419,80 419,90 " style="fill:white; stroke-width:1; stroke:black; " description="&lt;b&gt;A6J80_RS08800&lt;/b&gt;&lt;br&gt;tetratricopeptide repeat protein&lt;br&gt;Location: 1290692 - 1292458" locus_tag="A6J80_RS08800" class="clusterblast-orf" id="dummy-1_h1_3_34"  />
</g>
<g id="a1_0035"  >
<polygon points="445,90 461,90 466,85 461,80 445,80 445,90 " style="fill:white; stroke-width:1; stroke:black; " description="&lt;b&gt;A6J80_RS08805&lt;/b&gt;&lt;br&gt;amidohydrolase&lt;br&gt;Location: 1292708 - 1294252" locus_tag="A6J80_RS08805" class="clusterblast-orf" id="dummy-1_h1_3_35"  />
</g>
<g id="a1_0036"  >
<polygon points="467,85 469,80 469,90 467,85 " style="fill:white; stroke-width:1; stroke:black; " description="&lt;b&gt;A6J80_RS23575&lt;/b&gt;&lt;br&gt;aldehyde dehydrogenase family protein&lt;br&gt;Location: 1294338 - 1294484" locus_tag="A6J80_RS23575" class="clusterblast-orf" id="dummy-1_h1_3_36"  />
</g>
<g id="a1_0037"  >
<polygon points="469,90 469,90 474,85 469,80 469,80 469,90 " style="fill:white; stroke-width:1; stroke:black; " description="&lt;b&gt;A6J80_RS08810&lt;/b&gt;&lt;br&gt;recombinase family protein&lt;br&gt;Location: 1294522 - 1294905" locus_tag="A6J80_RS08810" class="clusterblast-orf" id="dummy-1_h1_3_37"  />
</g>
<g id="a1_0038"  >
<polygon points="475,90 478,85 475,80 475,90 " style="fill:white; stroke-width:1; stroke:black; " description="&lt;b&gt;A6J80_RS08815&lt;/b&gt;&lt;br&gt;hypothetical protein&lt;br&gt;Location: 1294933 - 1295208" locus_tag="A6J80_RS08815" class="clusterblast-orf" id="dummy-1_h1_3_38"  />
</g>
<g id="a1_0039"  >
<polygon points="479,90 488,90 493,85 488,80 479,80 479,90 " style="fill:white; stroke-width:1; stroke:black; " description="&lt;b&gt;A6J80_RS08820&lt;/b&gt;&lt;br&gt;IS3 family transposase&lt;br&gt;Location: 1295274 - 1296361" locus_tag="A6J80_RS08820" class="clusterblast-orf" id="dummy-1_h1_3_39"  />
</g>
<g id="a1_0040"  >
<polygon points="496,90 511,90 516,85 511,80 496,80 496,90 " style="fill:white; stroke-width:1; stroke:black; " description="&lt;b&gt;A6J80_RS08825&lt;/b&gt;&lt;br&gt;recombinase family protein&lt;br&gt;Location: 1296596 - 1298107" locus_tag="A6J80_RS08825" class="clusterblast-orf" id="dummy-1_h1_3_40"  />
</g>
<g id="a1_0041"  >
<polygon points="519,85 524,80 556,80 556,90 524,90 519,85 " style="fill:white; stroke-width:1; stroke:black; " description="&lt;b&gt;A6J80_RS08835&lt;/b&gt;&lt;br&gt;aminomethyl-transferring glycine dehydrogenase&lt;br&gt;Location: 1298322 - 1301153" locus_tag="A6J80_RS08835" class="clusterblast-orf" id="dummy-1_h1_3_41"  />
</g>
<g id="a1_0042"  >
<polygon points="558,85 562,80 562,90 558,85 " style="fill:white; stroke-width:1; stroke:black; " description="&lt;b&gt;A6J80_RS08840&lt;/b&gt;&lt;br&gt;glycine cleavage system protein GcvH&lt;br&gt;Location: 1301297 - 1301653" locus_tag="A6J80_RS08840" class="clusterblast-orf" id="dummy-1_h1_3_42"  />
</g>
<g id="a1_0043"  >
<polygon points="563,85 568,80 577,80 577,90 568,90 563,85 " style="fill:white; stroke-width:1; stroke:black; " description="&lt;b&gt;A6J80_RS08845&lt;/b&gt;&lt;br&gt;glycine cleavage system aminomethyltransferase GcvT&lt;br&gt;Location: 1301664 - 1302776" locus_tag="A6J80_RS08845" class="clusterblast-orf" id="dummy-1_h1_3_43"  />
</g>
<g id="a1_0044"  >
<polygon points="580,85 585,80 591,80 591,90 585,90 580,85 " style="fill:white; stroke-width:1; stroke:black; " description="&lt;b&gt;A6J80_RS08850&lt;/b&gt;&lt;br&gt;SDR family oxidoreductase&lt;br&gt;Location: 1303035 - 1303817" locus_tag="A6J80_RS08850" class="clusterblast-orf" id="dummy-1_h1_3_44"  />
</g>
<g id="a1_0045"  >
<polygon points="592,85 597,80 609,80 609,90 597,90 592,85 " style="fill:white; stroke-width:1; stroke:black; " description="&lt;b&gt;A6J80_RS08855&lt;/b&gt;&lt;br&gt;hybrid sensor histidine kinase/response regulator&lt;br&gt;Location: 1303903 - 1305243" locus_tag="A6J80_RS08855" class="clusterblast-orf" id="dummy-1_h1_3_45"  />
</g>
<g id="a1_0046"  >
<polygon points="609,85 614,80 625,80 625,90 614,90 609,85 " style="fill:white; stroke-width:1; stroke:black; " description="&lt;b&gt;A6J80_RS08860&lt;/b&gt;&lt;br&gt;FIST C-terminal domain-containing protein&lt;br&gt;Location: 1305247 - 1306419" locus_tag="A6J80_RS08860" class="clusterblast-orf" id="dummy-1_h1_3_46"  />
</g>
<g id="a1_0047"  >
<polygon points="625,85 630,80 634,80 634,90 630,90 625,85 " style="fill:white; stroke-width:1; stroke:black; " description="&lt;b&gt;A6J80_RS08865&lt;/b&gt;&lt;br&gt;response regulator transcription factor&lt;br&gt;Location: 1306416 - 1307126" locus_tag="A6J80_RS08865" class="clusterblast-orf" id="dummy-1_h1_3_47"  />
</g>
<g id="a1_0048"  >
<polygon points="636,85 641,80 650,80 650,90 641,90 636,85 " style="fill:#d81515; stroke-width:1; stroke:black; " description="&lt;b&gt;A6J80_RS08870&lt;/b&gt;&lt;br&gt;pyrroloquinoline quinone biosynthesis protein PqqE&lt;br&gt;Location: 1307249 - 1308385&lt;br&gt;&lt;br&gt;&lt;b&gt;BlastP hit with MPBPDOGJ_02972&lt;/b&gt;&lt;br&gt;Percentage identity: 64&lt;br&gt;Percentage coverage: 99&lt;br&gt;BLAST bit score: 459&lt;br&gt;E-value: 1.27e-160" locus_tag="A6J80_RS08870" class="clusterblast-orf" id="dummy-1_h1_3_48"  />
</g>
<g id="a1_0049"  >
<polygon points="650,85 655,80 655,80 655,90 655,90 650,85 " style="fill:#d81515; stroke-width:1; stroke:black; " description="&lt;b&gt;A6J80_RS08875&lt;/b&gt;&lt;br&gt;pyrroloquinoline quinone biosynthesis peptide chaperone PqqD&lt;br&gt;Location: 1308378 - 1308707&lt;br&gt;&lt;br&gt;&lt;b&gt;BlastP hit with MPBPDOGJ_02973&lt;/b&gt;&lt;br&gt;Percentage identity: 53&lt;br&gt;Percentage coverage: 90&lt;br&gt;BLAST bit score: 81&lt;br&gt;E-value: 1.74e-19" locus_tag="A6J80_RS08875" class="clusterblast-orf" id="dummy-1_h1_3_49"  />
</g>
<g id="a1_0050"  >
<polygon points="655,85 660,80 665,80 665,90 660,90 655,85 " style="fill:#77d815; stroke-width:1; stroke:black; " description="&lt;b&gt;A6J80_RS08880&lt;/b&gt;&lt;br&gt;pyrroloquinoline-quinone synthase PqqC&lt;br&gt;Location: 1308708 - 1309487&lt;br&gt;&lt;br&gt;&lt;b&gt;BlastP hit with MPBPDOGJ_02974&lt;/b&gt;&lt;br&gt;Percentage identity: 73&lt;br&gt;Percentage coverage: 97&lt;br&gt;BLAST bit score: 355&lt;br&gt;E-value: 2.61e-123" locus_tag="A6J80_RS08880" class="clusterblast-orf" id="dummy-1_h1_3_50"  />
</g>
<g id="a1_0051"  >
<polygon points="665,85 670,80 676,80 676,90 670,90 665,85 " style="fill:#15d8d8; stroke-width:1; stroke:black; " description="&lt;b&gt;A6J80_RS08885&lt;/b&gt;&lt;br&gt;pyrroloquinoline quinone biosynthesis protein PqqB&lt;br&gt;Location: 1309484 - 1310374&lt;br&gt;&lt;br&gt;&lt;b&gt;BlastP hit with MPBPDOGJ_02975&lt;/b&gt;&lt;br&gt;Percentage identity: 58&lt;br&gt;Percentage coverage: 100&lt;br&gt;BLAST bit score: 335&lt;br&gt;E-value: 9.51e-114" locus_tag="A6J80_RS08885" class="clusterblast-orf" id="dummy-1_h1_3_51"  />
</g>
<g id="a1_0052"  >
<polygon points="677,85 678,80 678,90 677,85 " style="fill:#7715d8; stroke-width:1; stroke:black; " description="&lt;b&gt;A6J80_RS08890&lt;/b&gt;&lt;br&gt;pyrroloquinoline quinone precursor peptide PqqA&lt;br&gt;Location: 1310442 - 1310534&lt;br&gt;&lt;br&gt;&lt;b&gt;BlastP hit with MPBPDOGJ_02976&lt;/b&gt;&lt;br&gt;Percentage identity: 77&lt;br&gt;Percentage coverage: 79&lt;br&gt;BLAST bit score: 51&lt;br&gt;E-value: 1.99e-09" locus_tag="A6J80_RS08890" class="clusterblast-orf" id="dummy-1_h1_3_52"  />
</g>
<g id="a1_0053"  >
<polygon points="680,85 685,80 691,80 691,90 685,90 680,85 " style="fill:white; stroke-width:1; stroke:black; " description="&lt;b&gt;A6J80_RS08895&lt;/b&gt;&lt;br&gt;IS5 family transposase&lt;br&gt;Location: 1310654 - 1311487" locus_tag="A6J80_RS08895" class="clusterblast-orf" id="dummy-1_h1_3_53"  />
</g>
<g id="a1_0054"  >
<polygon points="693,90 761,90 766,85 761,80 693,80 693,90 " style="fill:white; stroke-width:1; stroke:black; " description="&lt;b&gt;A6J80_RS08900&lt;/b&gt;&lt;br&gt;alpha-2-macroglobulin&lt;br&gt;Location: 1311684 - 1317203" locus_tag="A6J80_RS08900" class="clusterblast-orf" id="dummy-1_h1_3_54"  />
</g>
<g id="a1_0055"  >
<polygon points="767,90 775,90 780,85 775,80 767,80 767,90 " style="fill:white; stroke-width:1; stroke:black; " description="&lt;b&gt;A6J80_RS08905&lt;/b&gt;&lt;br&gt;sigma-54-dependent Fis family transcriptional regulator&lt;br&gt;Location: 1317292 - 1318263" locus_tag="A6J80_RS08905" class="clusterblast-orf" id="dummy-1_h1_3_55"  />
</g>
</svg>
