<svg xmlns="http://www.w3.org/2000/svg" xmlns:xlink="http://www.w3.org/1999/xlink" version="1.1" x="0" y="0" height="230" width="800" viewBox="0 0 800 230" preserveAspectRatio="none"  >
<g label="Query sequence" class="clusterblast-cluster"  >
<text x="5" y="20" class="clusterblast-acc"  >
Query sequence</text>
<line x1="10" y1="35" x2="778.0" y2="35" style="stroke-width:1; stroke:grey; "  />
<polygon points="103,40 116,40 121,35 116,30 103,30 103,40 " style="fill:white; stroke-width:1; stroke:black; " description="&lt;b&gt;MPBPDOGJ_03235&lt;/b&gt;&lt;br&gt;C4-dicarboxylate-binding periplasmic protein DctP&lt;br&gt;Location: 861 - 1872" locus_tag="MPBPDOGJ_03235" class="clusterblast-orf" id="dummy-1_q0_0_all"  />
<polygon points="121,40 127,40 132,35 127,30 121,30 121,40 " style="fill:white; stroke-width:1; stroke:black; " description="&lt;b&gt;MPBPDOGJ_03236&lt;/b&gt;&lt;br&gt;C4-dicarboxylate TRAP transporter small permease protein DctQ&lt;br&gt;Location: 1927 - 2557" locus_tag="MPBPDOGJ_03236" class="clusterblast-orf" id="dummy-1_q1_0_all"  />
<polygon points="132,40 150,40 155,35 150,30 132,30 132,40 " style="fill:#d81515; stroke-width:1; stroke:black; " description="&lt;b&gt;MPBPDOGJ_03237&lt;/b&gt;&lt;br&gt;C4-dicarboxylate TRAP transporter large permease protein DctM&lt;br&gt;Location: 2553 - 3876" locus_tag="MPBPDOGJ_03237" class="clusterblast-orf" id="dummy-1_q2_0_all"  />
<polygon points="156,35 161,30 183,30 183,40 161,40 156,35 " style="fill:white; stroke-width:1; stroke:black; " description="&lt;b&gt;MPBPDOGJ_03238&lt;/b&gt;&lt;br&gt;Fumarate hydratase class I, anaerobic&lt;br&gt;Location: 3934 - 5431" locus_tag="MPBPDOGJ_03238" class="clusterblast-orf" id="dummy-1_q3_0_all"  />
<polygon points="183,35 188,30 200,30 200,40 188,40 183,35 " style="fill:#63d815; stroke-width:1; stroke:black; " description="&lt;b&gt;MPBPDOGJ_03239&lt;/b&gt;&lt;br&gt;HTH-type transcriptional regulator GltC&lt;br&gt;Location: 5464 - 6415" locus_tag="MPBPDOGJ_03239" class="clusterblast-orf" id="dummy-1_q4_0_all"  />
<polygon points="200,35 205,30 213,30 213,40 205,40 200,35 " style="fill:white; stroke-width:1; stroke:black; " description="&lt;b&gt;MPBPDOGJ_03240&lt;/b&gt;&lt;br&gt;Ubiquinone biosynthesis O-methyltransferase, mitochondrial&lt;br&gt;Location: 6411 - 7161" locus_tag="MPBPDOGJ_03240" class="clusterblast-orf" id="dummy-1_q5_0_all"  />
<polygon points="227,35 232,30 233,30 233,40 232,40 227,35 " style="fill:white; stroke-width:1; stroke:black; " description="&lt;b&gt;MPBPDOGJ_03241&lt;/b&gt;&lt;br&gt;hypothetical protein&lt;br&gt;Location: 7961 - 8333" locus_tag="MPBPDOGJ_03241" class="clusterblast-orf" id="dummy-1_q6_0_all"  />
<polygon points="245,35 250,30 266,30 266,40 250,40 245,35 " style="fill:#15b1d8; stroke-width:1; stroke:black; " description="&lt;b&gt;MPBPDOGJ_03242&lt;/b&gt;&lt;br&gt;hypothetical protein&lt;br&gt;Location: 8988 - 10203" locus_tag="MPBPDOGJ_03242" class="clusterblast-orf" id="dummy-1_q7_0_all"  />
<polygon points="266,35 271,30 294,30 294,40 271,40 266,35 " style="fill:#b115d8; stroke-width:1; stroke:black; " description="&lt;b&gt;MPBPDOGJ_03243&lt;/b&gt;&lt;br&gt;Long-chain-fatty-acid--CoA ligase&lt;br&gt;Location: 10242 - 11808" locus_tag="MPBPDOGJ_03243" class="clusterblast-orf" id="dummy-1_q8_0_all"  />
<polygon points="302,35 307,30 314,30 314,40 307,40 302,35 " style="fill:white; stroke-width:1; stroke:black; " description="&lt;b&gt;MPBPDOGJ_03244&lt;/b&gt;&lt;br&gt;HTH-type quorum sensing-dependent transcriptional regulator RpaR&lt;br&gt;Location: 12262 - 12982" locus_tag="MPBPDOGJ_03244" class="clusterblast-orf" id="dummy-1_q9_0_all"  />
<polygon points="314,35 319,30 329,30 329,40 319,40 314,35 " style="fill:white; stroke-width:1; stroke:black; " description="&lt;b&gt;MPBPDOGJ_03245&lt;/b&gt;&lt;br&gt;Protein/nucleic acid deglycase 1&lt;br&gt;Location: 12984 - 13854" locus_tag="MPBPDOGJ_03245" class="clusterblast-orf" id="dummy-1_q10_0_all"  />
<polygon points="342,35 347,30 355,30 355,40 347,40 342,35 " style="fill:#d86315; stroke-width:1; stroke:black; " description="&lt;b&gt;MPBPDOGJ_03246&lt;/b&gt;&lt;br&gt;putative ABC transporter ATP-binding protein&lt;br&gt;Location: 14580 - 15348" locus_tag="MPBPDOGJ_03246" class="clusterblast-orf" id="dummy-1_q11_0_all"  />
<polygon points="355,35 360,30 373,30 373,40 360,40 355,35 " style="fill:#15d815; stroke-width:1; stroke:black; " description="&lt;b&gt;MPBPDOGJ_03247&lt;/b&gt;&lt;br&gt;putative ABC transporter permease protein&lt;br&gt;Location: 15344 - 16334" locus_tag="MPBPDOGJ_03247" class="clusterblast-orf" id="dummy-1_q12_0_all"  />
<polygon points="372,35 377,30 390,30 390,40 377,40 372,35 " style="fill:white; stroke-width:1; stroke:black; " description="&lt;b&gt;MPBPDOGJ_03248&lt;/b&gt;&lt;br&gt;hypothetical protein&lt;br&gt;Location: 16326 - 17358" locus_tag="MPBPDOGJ_03248" class="clusterblast-orf" id="dummy-1_q13_0_all"  />
<polygon points="390,35 395,30 398,30 398,40 395,40 390,35 " style="fill:white; stroke-width:1; stroke:black; " description="&lt;b&gt;MPBPDOGJ_03249&lt;/b&gt;&lt;br&gt;S-adenosyl-L-methionine-binding protein&lt;br&gt;Location: 17330 - 17816" locus_tag="MPBPDOGJ_03249" class="clusterblast-orf" id="dummy-1_q14_0_all"  />
<polygon points="398,35 403,30 414,30 414,40 403,40 398,35 " style="fill:white; stroke-width:1; stroke:black; " description="&lt;b&gt;MPBPDOGJ_03250&lt;/b&gt;&lt;br&gt;hypothetical protein&lt;br&gt;Location: 17815 - 18709" locus_tag="MPBPDOGJ_03250" class="clusterblast-orf" id="dummy-1_q15_0_all"  />
<polygon points="417,35 422,30 484,30 484,40 422,40 417,35 " style="fill:#1563d8; stroke-width:1; stroke:black; " description="&lt;b&gt;MPBPDOGJ_03251&lt;/b&gt;&lt;br&gt;Dimodular nonribosomal peptide synthase&lt;br&gt;Location: 18869 - 22754" locus_tag="MPBPDOGJ_03251" class="clusterblast-orf" id="dummy-1_q16_0_all"  />
<polygon points="484,35 489,30 489,30 489,40 489,40 484,35 " style="fill:#d815b1; stroke-width:1; stroke:black; " description="&lt;b&gt;MPBPDOGJ_03252&lt;/b&gt;&lt;br&gt;Isochorismatase&lt;br&gt;Location: 22755 - 22992" locus_tag="MPBPDOGJ_03252" class="clusterblast-orf" id="dummy-1_q17_0_all"  />
<polygon points="489,35 494,30 517,30 517,40 494,40 489,35 " style="fill:#b115d8; stroke-width:1; stroke:black; " description="&lt;b&gt;MPBPDOGJ_03253&lt;/b&gt;&lt;br&gt;2,3-dihydroxybenzoate-AMP ligase&lt;br&gt;Location: 22988 - 24629" locus_tag="MPBPDOGJ_03253" class="clusterblast-orf" id="dummy-1_q18_0_all"  />
<polygon points="520,40 525,40 530,35 525,30 520,30 520,40 " style="fill:#d8b115; stroke-width:1; stroke:black; " description="&lt;b&gt;MPBPDOGJ_03254&lt;/b&gt;&lt;br&gt;Cytochrome b561&lt;br&gt;Location: 24793 - 25372" locus_tag="MPBPDOGJ_03254" class="clusterblast-orf" id="dummy-1_q19_0_all"  />
<polygon points="532,35 537,30 550,30 550,40 537,40 532,35 " style="fill:#15d863; stroke-width:1; stroke:black; " description="&lt;b&gt;MPBPDOGJ_03255&lt;/b&gt;&lt;br&gt;Solute-binding protein&lt;br&gt;Location: 25509 - 26496" locus_tag="MPBPDOGJ_03255" class="clusterblast-orf" id="dummy-1_q20_0_all"  />
<polygon points="550,35 555,30 572,30 572,40 555,40 550,35 " style="fill:#1515d8; stroke-width:1; stroke:black; " description="&lt;b&gt;MPBPDOGJ_03256&lt;/b&gt;&lt;br&gt;C4-dicarboxylate TRAP transporter large permease protein DctM&lt;br&gt;Location: 26507 - 27764" locus_tag="MPBPDOGJ_03256" class="clusterblast-orf" id="dummy-1_q21_0_all"  />
<polygon points="572,35 577,30 582,30 582,40 577,40 572,35 " style="fill:#d81563; stroke-width:1; stroke:black; " description="&lt;b&gt;MPBPDOGJ_03257&lt;/b&gt;&lt;br&gt;hypothetical protein&lt;br&gt;Location: 27760 - 28345" locus_tag="MPBPDOGJ_03257" class="clusterblast-orf" id="dummy-1_q22_0_all"  />
<polygon points="582,35 587,30 596,30 596,40 587,40 582,35 " style="fill:#d86315; stroke-width:1; stroke:black; " description="&lt;b&gt;MPBPDOGJ_03258&lt;/b&gt;&lt;br&gt;Fe(3+) dicitrate transport ATP-binding protein FecE&lt;br&gt;Location: 28341 - 29136" locus_tag="MPBPDOGJ_03258" class="clusterblast-orf" id="dummy-1_q23_0_all"  />
<polygon points="596,35 601,30 614,30 614,40 601,40 596,35 " style="fill:#15d815; stroke-width:1; stroke:black; " description="&lt;b&gt;MPBPDOGJ_03259&lt;/b&gt;&lt;br&gt;Hemin transport system permease protein HmuU&lt;br&gt;Location: 29132 - 30173" locus_tag="MPBPDOGJ_03259" class="clusterblast-orf" id="dummy-1_q24_0_all"  />
<polygon points="614,35 619,30 633,30 633,40 619,40 614,35 " style="fill:#b1d815; stroke-width:1; stroke:black; " description="&lt;b&gt;MPBPDOGJ_03260&lt;/b&gt;&lt;br&gt;hypothetical protein&lt;br&gt;Location: 30169 - 31276" locus_tag="MPBPDOGJ_03260" class="clusterblast-orf" id="dummy-1_q25_0_all"  />
<polygon points="635,35 640,30 659,30 659,40 640,40 635,35 " style="fill:#15d8b1; stroke-width:1; stroke:black; " description="&lt;b&gt;MPBPDOGJ_03261&lt;/b&gt;&lt;br&gt;hypothetical protein&lt;br&gt;Location: 31364 - 32777" locus_tag="MPBPDOGJ_03261" class="clusterblast-orf" id="dummy-1_q26_0_all"  />
<polygon points="662,40 671,40 676,35 671,30 662,30 662,40 " style="fill:#6315d8; stroke-width:1; stroke:black; " description="&lt;b&gt;MPBPDOGJ_03262&lt;/b&gt;&lt;br&gt;hypothetical protein&lt;br&gt;Location: 32927 - 33767" locus_tag="MPBPDOGJ_03262" class="clusterblast-orf" id="dummy-1_q27_0_all"  />
</g>
<g label="NZ_SMYN01000011" description="NZ_SMYN01000011 (53203-98619): Rhodobacter xinxiangensis strain TJ48 Scaffold... (27% of genes show similarity), NRPS" class="clusterblast-cluster"  >
<text x="5" y="70" class="clusterblast-acc"  >
<a xlink:href="https://antismash-db.secondarymetabolites.org/area.html?record=NZ_SMYN01000011&amp;start=53203&amp;end=98619" target="_blank">NZ_SMYN01000011 (53203-98619)</a>: Rhodobacter xinxiangensis strain TJ48 Scaffold... (27% of genes show similarity), NRPS</text>
<line x1="10" y1="85" x2="778.0" y2="85" style="stroke-width:1; stroke:grey; "  />
</g>
<g id="a1_000"  >
<polygon points="0,85 5,80 14,80 14,90 5,90 0,85 " style="fill:white; stroke-width:1; stroke:black; " description="&lt;b&gt;E2K76_RS13610&lt;/b&gt;&lt;br&gt;glycosyl transferase&lt;br&gt;Location: 53637 - 54443" locus_tag="E2K76_RS13610" class="clusterblast-orf" id="dummy-1_h1_2_0"  />
</g>
<g id="a1_001"  >
<polygon points="14,85 19,80 43,80 43,90 19,90 14,85 " style="fill:white; stroke-width:1; stroke:black; " description="&lt;b&gt;E2K76_RS13615&lt;/b&gt;&lt;br&gt;CTP synthase&lt;br&gt;Location: 54491 - 56134" locus_tag="E2K76_RS13615" class="clusterblast-orf" id="dummy-1_h1_2_1"  />
</g>
<g id="a1_002"  >
<polygon points="46,85 51,80 53,80 53,90 51,90 46,85 " style="fill:white; stroke-width:1; stroke:black; " description="&lt;b&gt;E2K76_RS13620&lt;/b&gt;&lt;br&gt;preprotein translocase subunit SecG&lt;br&gt;Location: 56295 - 56690" locus_tag="E2K76_RS13620" class="clusterblast-orf" id="dummy-1_h1_2_2"  />
</g>
<g id="a1_003"  >
<polygon points="54,85 58,80 58,90 54,85 " style="fill:white; stroke-width:1; stroke:black; " description="&lt;b&gt;E2K76_RS13625&lt;/b&gt;&lt;br&gt;hypothetical protein&lt;br&gt;Location: 56762 - 56971" locus_tag="E2K76_RS13625" class="clusterblast-orf" id="dummy-1_h1_2_3"  />
</g>
<g id="a1_004"  >
<polygon points="63,85 68,80 75,80 75,90 68,90 63,85 " style="fill:white; stroke-width:1; stroke:black; " description="&lt;b&gt;E2K76_RS13630&lt;/b&gt;&lt;br&gt;FadR family transcriptional regulator&lt;br&gt;Location: 57257 - 57955" locus_tag="E2K76_RS13630" class="clusterblast-orf" id="dummy-1_h1_2_4"  />
</g>
<g id="a1_005"  >
<polygon points="75,85 80,80 91,80 91,90 80,90 75,85 " style="fill:white; stroke-width:1; stroke:black; " description="&lt;b&gt;E2K76_RS13635&lt;/b&gt;&lt;br&gt;four-carbon acid sugar kinase family protein&lt;br&gt;Location: 57952 - 58914" locus_tag="E2K76_RS13635" class="clusterblast-orf" id="dummy-1_h1_2_5"  />
</g>
<g id="a1_006"  >
<polygon points="91,85 96,80 109,80 109,90 96,90 91,85 " style="fill:white; stroke-width:1; stroke:black; " description="&lt;b&gt;E2K76_RS13640&lt;/b&gt;&lt;br&gt;Ldh family oxidoreductase&lt;br&gt;Location: 58911 - 59918" locus_tag="E2K76_RS13640" class="clusterblast-orf" id="dummy-1_h1_2_6"  />
</g>
<g id="a1_007"  >
<polygon points="109,85 114,80 125,80 125,90 114,90 109,85 " style="fill:white; stroke-width:1; stroke:black; " description="&lt;b&gt;E2K76_RS13645&lt;/b&gt;&lt;br&gt;hydroxyacid dehydrogenase&lt;br&gt;Location: 59915 - 60865" locus_tag="E2K76_RS13645" class="clusterblast-orf" id="dummy-1_h1_2_7"  />
</g>
<g id="a1_008"  >
<polygon points="125,85 130,80 141,80 141,90 130,90 125,85 " style="fill:white; stroke-width:1; stroke:black; " description="&lt;b&gt;E2K76_RS13650&lt;/b&gt;&lt;br&gt;dihydrodipicolinate synthase family protein&lt;br&gt;Location: 60865 - 61740" locus_tag="E2K76_RS13650" class="clusterblast-orf" id="dummy-1_h1_2_8"  />
</g>
<g id="a1_009"  >
<polygon points="142,85 147,80 168,80 168,90 147,90 142,85 " style="fill:white; stroke-width:1; stroke:black; " description="&lt;b&gt;E2K76_RS13655&lt;/b&gt;&lt;br&gt;peptide ABC transporter substrate-binding protein&lt;br&gt;Location: 61795 - 63291" locus_tag="E2K76_RS13655" class="clusterblast-orf" id="dummy-1_h1_2_9"  />
</g>
<g id="a1_0010"  >
<polygon points="172,90 187,90 192,85 187,80 172,80 172,90 " style="fill:white; stroke-width:1; stroke:black; " description="&lt;b&gt;E2K76_RS13660&lt;/b&gt;&lt;br&gt;exo-alpha-sialidase&lt;br&gt;Location: 63532 - 64680" locus_tag="E2K76_RS13660" class="clusterblast-orf" id="dummy-1_h1_2_10"  />
</g>
<g id="a1_0011"  >
<polygon points="192,90 203,90 208,85 203,80 192,80 192,90 " style="fill:white; stroke-width:1; stroke:black; " description="&lt;b&gt;E2K76_RS13665&lt;/b&gt;&lt;br&gt;4-hydroxythreonine-4-phosphate dehydrogenase PdxA&lt;br&gt;Location: 64677 - 65624" locus_tag="E2K76_RS13665" class="clusterblast-orf" id="dummy-1_h1_2_11"  />
</g>
<g id="a1_0012"  >
<polygon points="208,90 222,90 227,85 222,80 208,80 208,90 " style="fill:white; stroke-width:1; stroke:black; " description="&lt;b&gt;E2K76_RS13670&lt;/b&gt;&lt;br&gt;iron-containing alcohol dehydrogenase&lt;br&gt;Location: 65621 - 66706" locus_tag="E2K76_RS13670" class="clusterblast-orf" id="dummy-1_h1_2_12"  />
</g>
<g id="a1_0013"  >
<polygon points="229,90 230,90 235,85 230,80 229,80 229,90 " style="fill:white; stroke-width:1; stroke:black; " description="&lt;b&gt;E2K76_RS13675&lt;/b&gt;&lt;br&gt;hypothetical protein&lt;br&gt;Location: 66779 - 67174" locus_tag="E2K76_RS13675" class="clusterblast-orf" id="dummy-1_h1_2_13"  />
</g>
<g id="a1_0014"  >
<polygon points="237,85 242,80 249,80 249,90 242,90 237,85 " style="fill:white; stroke-width:1; stroke:black; " description="&lt;b&gt;E2K76_RS13680&lt;/b&gt;&lt;br&gt;hypothetical protein&lt;br&gt;Location: 67266 - 67973" locus_tag="E2K76_RS13680" class="clusterblast-orf" id="dummy-1_h1_2_14"  />
</g>
<g id="a1_0015"  >
<polygon points="250,85 255,80 263,80 263,90 255,90 250,85 " style="fill:#d86315; stroke-width:1; stroke:black; " description="&lt;b&gt;E2K76_RS13685&lt;/b&gt;&lt;br&gt;ABC transporter ATP-binding protein&lt;br&gt;Location: 68012 - 68776&lt;br&gt;&lt;br&gt;&lt;b&gt;BlastP hit with MPBPDOGJ_03246&lt;/b&gt;&lt;br&gt;Percentage identity: 36&lt;br&gt;Percentage coverage: 96&lt;br&gt;BLAST bit score: 120&lt;br&gt;E-value: 3.74e-31&lt;br&gt;&lt;br&gt;&lt;b&gt;BlastP hit with MPBPDOGJ_03258&lt;/b&gt;&lt;br&gt;Percentage identity: 67&lt;br&gt;Percentage coverage: 95&lt;br&gt;BLAST bit score: 296&lt;br&gt;E-value: 7.98e-100" locus_tag="E2K76_RS13685" class="clusterblast-orf" id="dummy-1_h1_2_15"  />
</g>
<g id="a1_0016"  >
<polygon points="263,85 268,80 281,80 281,90 268,90 263,85 " style="fill:#15d815; stroke-width:1; stroke:black; " description="&lt;b&gt;E2K76_RS13690&lt;/b&gt;&lt;br&gt;iron ABC transporter permease&lt;br&gt;Location: 68773 - 69801&lt;br&gt;&lt;br&gt;&lt;b&gt;BlastP hit with MPBPDOGJ_03259&lt;/b&gt;&lt;br&gt;Percentage identity: 80&lt;br&gt;Percentage coverage: 99&lt;br&gt;BLAST bit score: 492&lt;br&gt;E-value: 2.36e-174" locus_tag="E2K76_RS13690" class="clusterblast-orf" id="dummy-1_h1_2_16"  />
</g>
<g id="a1_0017"  >
<polygon points="281,85 286,80 301,80 301,90 286,90 281,85 " style="fill:#b1d815; stroke-width:1; stroke:black; " description="&lt;b&gt;E2K76_RS13695&lt;/b&gt;&lt;br&gt;ABC transporter substrate-binding protein&lt;br&gt;Location: 69798 - 70961&lt;br&gt;&lt;br&gt;&lt;b&gt;BlastP hit with MPBPDOGJ_03260&lt;/b&gt;&lt;br&gt;Percentage identity: 78&lt;br&gt;Percentage coverage: 95&lt;br&gt;BLAST bit score: 546&lt;br&gt;E-value: 1.99e-194" locus_tag="E2K76_RS13695" class="clusterblast-orf" id="dummy-1_h1_2_17"  />
</g>
<g id="a1_0018"  >
<polygon points="301,85 306,80 325,80 325,90 306,90 301,85 " style="fill:#15d8b1; stroke-width:1; stroke:black; " description="&lt;b&gt;E2K76_RS13700&lt;/b&gt;&lt;br&gt;YncE family protein&lt;br&gt;Location: 70921 - 72306&lt;br&gt;&lt;br&gt;&lt;b&gt;BlastP hit with MPBPDOGJ_03261&lt;/b&gt;&lt;br&gt;Percentage identity: 69&lt;br&gt;Percentage coverage: 97&lt;br&gt;BLAST bit score: 585&lt;br&gt;E-value: 6.32e-207" locus_tag="E2K76_RS13700" class="clusterblast-orf" id="dummy-1_h1_2_18"  />
</g>
<g id="a1_0019"  >
<polygon points="327,90 336,90 341,85 336,80 327,80 327,90 " style="fill:#6315d8; stroke-width:1; stroke:black; " description="&lt;b&gt;E2K76_RS13705&lt;/b&gt;&lt;br&gt;alpha/beta hydrolase&lt;br&gt;Location: 72430 - 73224&lt;br&gt;&lt;br&gt;&lt;b&gt;BlastP hit with MPBPDOGJ_03262&lt;/b&gt;&lt;br&gt;Percentage identity: 60&lt;br&gt;Percentage coverage: 98&lt;br&gt;BLAST bit score: 320&lt;br&gt;E-value: 1.52e-108" locus_tag="E2K76_RS13705" class="clusterblast-orf" id="dummy-1_h1_2_19"  />
</g>
<g id="a1_0020"  >
<polygon points="341,85 346,80 405,80 405,90 346,90 341,85 " style="fill:#1563d8; stroke-width:1; stroke:black; " description="&lt;b&gt;E2K76_RS13710&lt;/b&gt;&lt;br&gt;amino acid adenylation domain-containing protein&lt;br&gt;Location: 73204 - 76899&lt;br&gt;&lt;br&gt;&lt;b&gt;BlastP hit with MPBPDOGJ_03251&lt;/b&gt;&lt;br&gt;Percentage identity: 68&lt;br&gt;Percentage coverage: 99&lt;br&gt;BLAST bit score: 1657&lt;br&gt;E-value: 0.0" locus_tag="E2K76_RS13710" class="clusterblast-orf" id="dummy-1_h1_2_20"  />
</g>
<g id="a1_0021"  >
<polygon points="405,85 409,80 409,90 405,85 " style="fill:#d815b1; stroke-width:1; stroke:black; " description="&lt;b&gt;E2K76_RS13715&lt;/b&gt;&lt;br&gt;phosphopantetheine-binding protein&lt;br&gt;Location: 76899 - 77132&lt;br&gt;&lt;br&gt;&lt;b&gt;BlastP hit with MPBPDOGJ_03252&lt;/b&gt;&lt;br&gt;Percentage identity: 70&lt;br&gt;Percentage coverage: 99&lt;br&gt;BLAST bit score: 110&lt;br&gt;E-value: 8.56e-32" locus_tag="E2K76_RS13715" class="clusterblast-orf" id="dummy-1_h1_2_21"  />
</g>
<g id="a1_0022"  >
<polygon points="409,85 414,80 435,80 435,90 414,90 409,85 " style="fill:#b115d8; stroke-width:1; stroke:black; " description="&lt;b&gt;E2K76_RS13720&lt;/b&gt;&lt;br&gt;AMP-binding protein&lt;br&gt;Location: 77129 - 78619&lt;br&gt;&lt;br&gt;&lt;b&gt;BlastP hit with MPBPDOGJ_03243&lt;/b&gt;&lt;br&gt;Percentage identity: 31&lt;br&gt;Percentage coverage: 94&lt;br&gt;BLAST bit score: 167&lt;br&gt;E-value: 1.05e-43&lt;br&gt;&lt;br&gt;&lt;b&gt;BlastP hit with MPBPDOGJ_03253&lt;/b&gt;&lt;br&gt;Percentage identity: 77&lt;br&gt;Percentage coverage: 93&lt;br&gt;BLAST bit score: 762&lt;br&gt;E-value: 4.76e-275" locus_tag="E2K76_RS13720" class="clusterblast-orf" id="dummy-1_h1_2_22"  />
</g>
<g id="a1_0023"  >
<polygon points="438,90 443,90 448,85 443,80 438,80 438,90 " style="fill:#d8b115; stroke-width:1; stroke:black; " description="&lt;b&gt;E2K76_RS13725&lt;/b&gt;&lt;br&gt;cytochrome b&lt;br&gt;Location: 78783 - 79355&lt;br&gt;&lt;br&gt;&lt;b&gt;BlastP hit with MPBPDOGJ_03254&lt;/b&gt;&lt;br&gt;Percentage identity: 65&lt;br&gt;Percentage coverage: 94&lt;br&gt;BLAST bit score: 250&lt;br&gt;E-value: 1.46e-83" locus_tag="E2K76_RS13725" class="clusterblast-orf" id="dummy-1_h1_2_23"  />
</g>
<g id="a1_0024"  >
<polygon points="448,85 453,80 464,80 464,90 453,90 448,85 " style="fill:#15d863; stroke-width:1; stroke:black; " description="&lt;b&gt;E2K76_RS13730&lt;/b&gt;&lt;br&gt;TRAP transporter substrate-binding protein&lt;br&gt;Location: 79352 - 80296&lt;br&gt;&lt;br&gt;&lt;b&gt;BlastP hit with MPBPDOGJ_03255&lt;/b&gt;&lt;br&gt;Percentage identity: 78&lt;br&gt;Percentage coverage: 96&lt;br&gt;BLAST bit score: 486&lt;br&gt;E-value: 8.16e-173" locus_tag="E2K76_RS13730" class="clusterblast-orf" id="dummy-1_h1_2_24"  />
</g>
<g id="a1_0025"  >
<polygon points="464,85 469,80 486,80 486,90 469,90 464,85 " style="fill:#1515d8; stroke-width:1; stroke:black; " description="&lt;b&gt;E2K76_RS13735&lt;/b&gt;&lt;br&gt;TRAP transporter large permease&lt;br&gt;Location: 80306 - 81562&lt;br&gt;&lt;br&gt;&lt;b&gt;BlastP hit with MPBPDOGJ_03256&lt;/b&gt;&lt;br&gt;Percentage identity: 78&lt;br&gt;Percentage coverage: 100&lt;br&gt;BLAST bit score: 571&lt;br&gt;E-value: 3.88e-203" locus_tag="E2K76_RS13735" class="clusterblast-orf" id="dummy-1_h1_2_25"  />
</g>
<g id="a1_0026"  >
<polygon points="486,85 491,80 496,80 496,90 491,90 486,85 " style="fill:#d81563; stroke-width:1; stroke:black; " description="&lt;b&gt;E2K76_RS13740&lt;/b&gt;&lt;br&gt;TRAP transporter small permease subunit&lt;br&gt;Location: 81559 - 82110&lt;br&gt;&lt;br&gt;&lt;b&gt;BlastP hit with MPBPDOGJ_03257&lt;/b&gt;&lt;br&gt;Percentage identity: 65&lt;br&gt;Percentage coverage: 89&lt;br&gt;BLAST bit score: 222&lt;br&gt;E-value: 1.11e-72" locus_tag="E2K76_RS13740" class="clusterblast-orf" id="dummy-1_h1_2_26"  />
</g>
<g id="a1_0027"  >
<polygon points="499,90 531,90 536,85 531,80 499,80 499,90 " style="fill:white; stroke-width:1; stroke:black; " description="&lt;b&gt;E2K76_RS13745&lt;/b&gt;&lt;br&gt;FepA family TonB-dependent siderophore receptor&lt;br&gt;Location: 82278 - 84431" locus_tag="E2K76_RS13745" class="clusterblast-orf" id="dummy-1_h1_2_27"  />
</g>
<g id="a1_0028"  >
<polygon points="539,85 542,80 542,90 539,85 " style="fill:white; stroke-width:1; stroke:black; " description="&lt;b&gt;E2K76_RS13750&lt;/b&gt;&lt;br&gt;50S ribosomal protein L33&lt;br&gt;Location: 84582 - 84749" locus_tag="E2K76_RS13750" class="clusterblast-orf" id="dummy-1_h1_2_28"  />
</g>
<g id="a1_0029"  >
<polygon points="545,90 553,90 558,85 553,80 545,80 545,90 " style="fill:white; stroke-width:1; stroke:black; " description="&lt;b&gt;E2K76_RS13755&lt;/b&gt;&lt;br&gt;glutaredoxin&lt;br&gt;Location: 84927 - 85688" locus_tag="E2K76_RS13755" class="clusterblast-orf" id="dummy-1_h1_2_29"  />
</g>
<g id="a1_0030"  >
<polygon points="565,85 570,80 576,80 576,90 570,90 565,85 " style="fill:white; stroke-width:1; stroke:black; " description="&lt;b&gt;E2K76_RS13765&lt;/b&gt;&lt;br&gt;N-acetylmuramoyl-L-alanine amidase&lt;br&gt;Location: 86095 - 86724" locus_tag="E2K76_RS13765" class="clusterblast-orf" id="dummy-1_h1_2_30"  />
</g>
<g id="a1_0031"  >
<polygon points="576,85 581,80 589,80 589,90 581,90 576,85 " style="fill:white; stroke-width:1; stroke:black; " description="&lt;b&gt;E2K76_RS13770&lt;/b&gt;&lt;br&gt;hypothetical protein&lt;br&gt;Location: 86721 - 87446" locus_tag="E2K76_RS13770" class="clusterblast-orf" id="dummy-1_h1_2_31"  />
</g>
<g id="a1_0032"  >
<polygon points="589,85 594,80 615,80 615,90 594,90 589,85 " style="fill:white; stroke-width:1; stroke:black; " description="&lt;b&gt;E2K76_RS13775&lt;/b&gt;&lt;br&gt;Asp-tRNA(Asn)/Glu-tRNA(Gln) amidotransferase subunit GatA&lt;br&gt;Location: 87480 - 88946" locus_tag="E2K76_RS13775" class="clusterblast-orf" id="dummy-1_h1_2_32"  />
</g>
<g id="a1_0033"  >
<polygon points="615,85 620,80 620,80 620,90 620,90 615,85 " style="fill:white; stroke-width:1; stroke:black; " description="&lt;b&gt;E2K76_RS13780&lt;/b&gt;&lt;br&gt;Asp-tRNA(Asn)/Glu-tRNA(Gln) amidotransferase subunit GatC&lt;br&gt;Location: 88943 - 89230" locus_tag="E2K76_RS13780" class="clusterblast-orf" id="dummy-1_h1_2_33"  />
</g>
<g id="a1_0034"  >
<polygon points="620,85 625,80 625,80 625,90 625,90 620,85 " style="fill:white; stroke-width:1; stroke:black; " description="&lt;b&gt;E2K76_RS20365&lt;/b&gt;&lt;br&gt;hypothetical protein&lt;br&gt;Location: 89264 - 89530" locus_tag="E2K76_RS20365" class="clusterblast-orf" id="dummy-1_h1_2_34"  />
</g>
<g id="a1_0035"  >
<polygon points="626,90 650,90 655,85 650,80 626,80 626,90 " style="fill:white; stroke-width:1; stroke:black; " description="&lt;b&gt;E2K76_RS13785&lt;/b&gt;&lt;br&gt;DUF4153 domain-containing protein&lt;br&gt;Location: 89600 - 91258" locus_tag="E2K76_RS13785" class="clusterblast-orf" id="dummy-1_h1_2_35"  />
</g>
<g id="a1_0036"  >
<polygon points="656,90 661,90 666,85 661,80 656,80 656,90 " style="fill:white; stroke-width:1; stroke:black; " description="&lt;b&gt;E2K76_RS13790&lt;/b&gt;&lt;br&gt;heme NO-binding domain-containing protein&lt;br&gt;Location: 91317 - 91898" locus_tag="E2K76_RS13790" class="clusterblast-orf" id="dummy-1_h1_2_36"  />
</g>
<g id="a1_0037"  >
<polygon points="666,90 678,90 683,85 678,80 666,80 666,90 " style="fill:white; stroke-width:1; stroke:black; " description="&lt;b&gt;E2K76_RS13795&lt;/b&gt;&lt;br&gt;GGDEF domain-containing protein&lt;br&gt;Location: 91898 - 92848" locus_tag="E2K76_RS13795" class="clusterblast-orf" id="dummy-1_h1_2_37"  />
</g>
<g id="a1_0038"  >
<polygon points="684,90 692,90 697,85 692,80 684,80 684,90 " style="fill:white; stroke-width:1; stroke:black; " description="&lt;b&gt;E2K76_RS13800&lt;/b&gt;&lt;br&gt;EcsC family protein&lt;br&gt;Location: 92901 - 93668" locus_tag="E2K76_RS13800" class="clusterblast-orf" id="dummy-1_h1_2_38"  />
</g>
<g id="a1_0039"  >
<polygon points="697,85 702,80 723,80 723,90 702,90 697,85 " style="fill:white; stroke-width:1; stroke:black; " description="&lt;b&gt;E2K76_RS13805&lt;/b&gt;&lt;br&gt;replicative DNA helicase&lt;br&gt;Location: 93665 - 95155" locus_tag="E2K76_RS13805" class="clusterblast-orf" id="dummy-1_h1_2_39"  />
</g>
<g id="a1_0040"  >
<polygon points="727,85 732,80 739,80 739,90 732,90 727,85 " style="fill:white; stroke-width:1; stroke:black; " description="&lt;b&gt;E2K76_RS13810&lt;/b&gt;&lt;br&gt;orotate phosphoribosyltransferase&lt;br&gt;Location: 95385 - 96062" locus_tag="E2K76_RS13810" class="clusterblast-orf" id="dummy-1_h1_2_40"  />
</g>
<g id="a1_0041"  >
<polygon points="739,85 744,80 757,80 757,90 744,90 739,85 " style="fill:white; stroke-width:1; stroke:black; " description="&lt;b&gt;E2K76_RS13815&lt;/b&gt;&lt;br&gt;dihydroorotase&lt;br&gt;Location: 96059 - 97093" locus_tag="E2K76_RS13815" class="clusterblast-orf" id="dummy-1_h1_2_41"  />
</g>
<g id="a1_0042"  >
<polygon points="758,90 759,90 764,85 759,80 758,80 758,90 " style="fill:white; stroke-width:1; stroke:black; " description="&lt;b&gt;E2K76_RS13820&lt;/b&gt;&lt;br&gt;DUF1311 domain-containing protein&lt;br&gt;Location: 97148 - 97528" locus_tag="E2K76_RS13820" class="clusterblast-orf" id="dummy-1_h1_2_42"  />
</g>
<g id="a1_0043"  >
<polygon points="764,85 769,80 780,80 780,90 769,90 764,85 " style="fill:white; stroke-width:1; stroke:black; " description="&lt;b&gt;E2K76_RS13825&lt;/b&gt;&lt;br&gt;phosphoadenosine phosphosulfate reductase&lt;br&gt;Location: 97523 - 98392" locus_tag="E2K76_RS13825" class="clusterblast-orf" id="dummy-1_h1_2_43"  />
</g>
</svg>
