<svg xmlns="http://www.w3.org/2000/svg" xmlns:xlink="http://www.w3.org/1999/xlink" version="1.1" x="0" y="0" height="230" width="800" viewBox="0 0 800 230" preserveAspectRatio="none"  >
<g label="Query sequence" class="clusterblast-cluster"  >
<text x="5" y="20" class="clusterblast-acc"  >
Query sequence</text>
<line x1="10" y1="35" x2="778.0" y2="35" style="stroke-width:1; stroke:grey; "  />
<polygon points="0,40 80,40 85,35 80,30 0,30 0,40 " style="fill:#d81515; stroke-width:1; stroke:black; " description="&lt;b&gt;MPBPDOGJ_02435&lt;/b&gt;&lt;br&gt;Acryloyl-CoA reductase (NADH)&lt;br&gt;Location: 58826 - 59981" locus_tag="MPBPDOGJ_02435" class="clusterblast-orf" id="dummy-1_q0_0_all"  />
<polygon points="85,40 138,40 143,35 138,30 85,30 85,40 " style="fill:#15d815; stroke-width:1; stroke:black; " description="&lt;b&gt;MPBPDOGJ_02436&lt;/b&gt;&lt;br&gt;2,3-dehydroadipyl-CoA hydratase&lt;br&gt;Location: 59983 - 60769" locus_tag="MPBPDOGJ_02436" class="clusterblast-orf" id="dummy-1_q1_0_all"  />
<polygon points="144,35 149,30 178,30 178,40 149,40 144,35 " style="fill:#1515d8; stroke-width:1; stroke:black; " description="&lt;b&gt;MPBPDOGJ_02437&lt;/b&gt;&lt;br&gt;HTH-type transcriptional regulator ZntR&lt;br&gt;Location: 60790 - 61252" locus_tag="MPBPDOGJ_02437" class="clusterblast-orf" id="dummy-1_q2_0_all"  />
<polygon points="185,40 344,40 349,35 344,30 185,30 185,40 " style="fill:#d815d8; stroke-width:1; stroke:black; " description="&lt;b&gt;MPBPDOGJ_02438&lt;/b&gt;&lt;br&gt;Zinc/cadmium/lead-transporting P-type ATPase&lt;br&gt;Location: 61348 - 63586" locus_tag="MPBPDOGJ_02438" class="clusterblast-orf" id="dummy-1_q3_0_all"  />
<polygon points="361,35 366,30 420,30 420,40 366,40 361,35 " style="fill:#d8d815; stroke-width:1; stroke:black; " description="&lt;b&gt;MPBPDOGJ_02439&lt;/b&gt;&lt;br&gt;Linocin-M18&lt;br&gt;Location: 63744 - 64545" locus_tag="MPBPDOGJ_02439" class="clusterblast-orf" id="dummy-1_q4_0_all"  />
<polygon points="420,35 425,30 497,30 497,40 425,40 420,35 " style="fill:#15d8d8; stroke-width:1; stroke:black; " description="&lt;b&gt;MPBPDOGJ_02440&lt;/b&gt;&lt;br&gt;Dye-decolorizing peroxidase YfeX&lt;br&gt;Location: 64546 - 65593" locus_tag="MPBPDOGJ_02440" class="clusterblast-orf" id="dummy-1_q5_0_all"  />
<polygon points="572,40 583,40 588,35 583,30 572,30 572,40 " style="fill:white; stroke-width:1; stroke:black; " description="&lt;b&gt;MPBPDOGJ_02441&lt;/b&gt;&lt;br&gt;hypothetical protein&lt;br&gt;Location: 66621 - 66843" locus_tag="MPBPDOGJ_02441" class="clusterblast-orf" id="dummy-1_q6_0_all"  />
<polygon points="617,35 622,30 707,30 707,40 622,40 617,35 " style="fill:white; stroke-width:1; stroke:black; " description="&lt;b&gt;MPBPDOGJ_02442&lt;/b&gt;&lt;br&gt;Creatinase&lt;br&gt;Location: 67236 - 68463" locus_tag="MPBPDOGJ_02442" class="clusterblast-orf" id="dummy-1_q7_0_all"  />
<polygon points="714,40 775,40 780,35 775,30 714,30 714,40 " style="fill:white; stroke-width:1; stroke:black; " description="&lt;b&gt;MPBPDOGJ_02443&lt;/b&gt;&lt;br&gt;Glycine cleavage system transcriptional activator&lt;br&gt;Location: 68561 - 69461" locus_tag="MPBPDOGJ_02443" class="clusterblast-orf" id="dummy-1_q8_0_all"  />
</g>
<g label="NZ_VLKU01000006" description="NZ_VLKU01000006 (256705-267503): Paracoccus sulfuroxidans strain CGMCC 1.5364... (40% of genes show similarity), bacteriocin" class="clusterblast-cluster"  >
<text x="5" y="70" class="clusterblast-acc"  >
<a xlink:href="https://antismash-db.secondarymetabolites.org/area.html?record=NZ_VLKU01000006&amp;start=256705&amp;end=267503" target="_blank">NZ_VLKU01000006 (256705-267503)</a>: Paracoccus sulfuroxidans strain CGMCC 1.5364... (40% of genes show similarity), bacteriocin</text>
<line x1="10" y1="85" x2="778.0" y2="85" style="stroke-width:1; stroke:grey; "  />
</g>
<g id="a1_000"  >
<polygon points="20,85 25,80 82,80 82,90 25,90 20,85 " style="fill:white; stroke-width:1; stroke:black; " description="&lt;b&gt;IQ24_RS11535&lt;/b&gt;&lt;br&gt;hypothetical protein&lt;br&gt;Location: 256835 - 257689" locus_tag="IQ24_RS11535" class="clusterblast-orf" id="dummy-1_h1_1_0"  />
</g>
<g id="a1_001"  >
<polygon points="92,90 198,90 203,85 198,80 92,80 92,90 " style="fill:white; stroke-width:1; stroke:black; " description="&lt;b&gt;IQ24_RS11540&lt;/b&gt;&lt;br&gt;phospholipase&lt;br&gt;Location: 257818 - 259341" locus_tag="IQ24_RS11540" class="clusterblast-orf" id="dummy-1_h1_1_1"  />
</g>
<g id="a1_002"  >
<polygon points="220,90 230,90 235,85 230,80 220,80 220,90 " style="fill:white; stroke-width:1; stroke:black; " description="&lt;b&gt;IQ24_RS11545&lt;/b&gt;&lt;br&gt;CsbD family protein&lt;br&gt;Location: 259567 - 259767" locus_tag="IQ24_RS11545" class="clusterblast-orf" id="dummy-1_h1_1_2"  />
</g>
<g id="a1_003"  >
<polygon points="238,90 272,90 277,85 272,80 238,80 238,90 " style="fill:white; stroke-width:1; stroke:black; " description="&lt;b&gt;IQ24_RS20105&lt;/b&gt;&lt;br&gt;hypothetical protein&lt;br&gt;Location: 259810 - 260349" locus_tag="IQ24_RS20105" class="clusterblast-orf" id="dummy-1_h1_1_3"  />
</g>
<g id="a1_004"  >
<polygon points="302,90 372,90 377,85 372,80 302,80 302,90 " style="fill:#15d8d8; stroke-width:1; stroke:black; " description="&lt;b&gt;IQ24_RS11560&lt;/b&gt;&lt;br&gt;Dyp-type peroxidase&lt;br&gt;Location: 260679 - 261704&lt;br&gt;&lt;br&gt;&lt;b&gt;BlastP hit with MPBPDOGJ_02440&lt;/b&gt;&lt;br&gt;Percentage identity: 74&lt;br&gt;Percentage coverage: 99&lt;br&gt;BLAST bit score: 512&lt;br&gt;E-value: 4.26e-182" locus_tag="IQ24_RS11560" class="clusterblast-orf" id="dummy-1_h1_1_4"  />
</g>
<g id="a1_005"  >
<polygon points="377,90 430,90 435,85 430,80 377,80 377,90 " style="fill:#d8d815; stroke-width:1; stroke:black; " description="&lt;b&gt;IQ24_RS11565&lt;/b&gt;&lt;br&gt;bacteriocin&lt;br&gt;Location: 261706 - 262503&lt;br&gt;&lt;br&gt;&lt;b&gt;BlastP hit with MPBPDOGJ_02439&lt;/b&gt;&lt;br&gt;Percentage identity: 83&lt;br&gt;Percentage coverage: 100&lt;br&gt;BLAST bit score: 446&lt;br&gt;E-value: 8.26e-159" locus_tag="IQ24_RS11565" class="clusterblast-orf" id="dummy-1_h1_1_5"  />
</g>
<g id="a1_006"  >
<polygon points="452,90 525,90 530,85 525,80 452,80 452,90 " style="fill:white; stroke-width:1; stroke:black; " description="&lt;b&gt;IQ24_RS11570&lt;/b&gt;&lt;br&gt;extracellular solute-binding protein&lt;br&gt;Location: 262730 - 263797" locus_tag="IQ24_RS11570" class="clusterblast-orf" id="dummy-1_h1_1_6"  />
</g>
<g id="a1_007"  >
<polygon points="533,85 538,80 565,80 565,90 538,90 533,85 " style="fill:#1515d8; stroke-width:1; stroke:black; " description="&lt;b&gt;IQ24_RS11575&lt;/b&gt;&lt;br&gt;MerR family DNA-binding protein&lt;br&gt;Location: 263841 - 264275&lt;br&gt;&lt;br&gt;&lt;b&gt;BlastP hit with MPBPDOGJ_02437&lt;/b&gt;&lt;br&gt;Percentage identity: 72&lt;br&gt;Percentage coverage: 92&lt;br&gt;BLAST bit score: 199&lt;br&gt;E-value: 8.53e-65" locus_tag="IQ24_RS11575" class="clusterblast-orf" id="dummy-1_h1_1_7"  />
</g>
<g id="a1_008"  >
<polygon points="571,90 727,90 732,85 727,80 571,80 571,90 " style="fill:#d815d8; stroke-width:1; stroke:black; " description="&lt;b&gt;IQ24_RS11580&lt;/b&gt;&lt;br&gt;cadmium-translocating P-type ATPase&lt;br&gt;Location: 264347 - 266542&lt;br&gt;&lt;br&gt;&lt;b&gt;BlastP hit with MPBPDOGJ_02438&lt;/b&gt;&lt;br&gt;Percentage identity: 68&lt;br&gt;Percentage coverage: 100&lt;br&gt;BLAST bit score: 905&lt;br&gt;E-value: 0.0" locus_tag="IQ24_RS11580" class="clusterblast-orf" id="dummy-1_h1_1_8"  />
</g>
<g id="a1_009"  >
<polygon points="734,85 739,80 759,80 759,90 739,90 734,85 " style="fill:white; stroke-width:1; stroke:black; " description="&lt;b&gt;IQ24_RS11585&lt;/b&gt;&lt;br&gt;DUF861 domain-containing protein&lt;br&gt;Location: 266575 - 266922" locus_tag="IQ24_RS11585" class="clusterblast-orf" id="dummy-1_h1_1_9"  />
</g>
</svg>
