<svg xmlns="http://www.w3.org/2000/svg" xmlns:xlink="http://www.w3.org/1999/xlink" version="1.1" x="0" y="0" height="230" width="800" viewBox="0 0 800 230" preserveAspectRatio="none"  >
<g label="Query sequence" class="clusterblast-cluster"  >
<text x="5" y="20" class="clusterblast-acc"  >
Query sequence</text>
<line x1="10" y1="35" x2="778.0" y2="35" style="stroke-width:1; stroke:grey; "  />
<polygon points="0,40 80,40 85,35 80,30 0,30 0,40 " style="fill:#d81515; stroke-width:1; stroke:black; " description="&lt;b&gt;MPBPDOGJ_02435&lt;/b&gt;&lt;br&gt;Acryloyl-CoA reductase (NADH)&lt;br&gt;Location: 58826 - 59981" locus_tag="MPBPDOGJ_02435" class="clusterblast-orf" id="dummy-1_q0_0_all"  />
<polygon points="85,40 138,40 143,35 138,30 85,30 85,40 " style="fill:#15d815; stroke-width:1; stroke:black; " description="&lt;b&gt;MPBPDOGJ_02436&lt;/b&gt;&lt;br&gt;2,3-dehydroadipyl-CoA hydratase&lt;br&gt;Location: 59983 - 60769" locus_tag="MPBPDOGJ_02436" class="clusterblast-orf" id="dummy-1_q1_0_all"  />
<polygon points="144,35 149,30 178,30 178,40 149,40 144,35 " style="fill:#1515d8; stroke-width:1; stroke:black; " description="&lt;b&gt;MPBPDOGJ_02437&lt;/b&gt;&lt;br&gt;HTH-type transcriptional regulator ZntR&lt;br&gt;Location: 60790 - 61252" locus_tag="MPBPDOGJ_02437" class="clusterblast-orf" id="dummy-1_q2_0_all"  />
<polygon points="185,40 344,40 349,35 344,30 185,30 185,40 " style="fill:#d815d8; stroke-width:1; stroke:black; " description="&lt;b&gt;MPBPDOGJ_02438&lt;/b&gt;&lt;br&gt;Zinc/cadmium/lead-transporting P-type ATPase&lt;br&gt;Location: 61348 - 63586" locus_tag="MPBPDOGJ_02438" class="clusterblast-orf" id="dummy-1_q3_0_all"  />
<polygon points="361,35 366,30 420,30 420,40 366,40 361,35 " style="fill:#d8d815; stroke-width:1; stroke:black; " description="&lt;b&gt;MPBPDOGJ_02439&lt;/b&gt;&lt;br&gt;Linocin-M18&lt;br&gt;Location: 63744 - 64545" locus_tag="MPBPDOGJ_02439" class="clusterblast-orf" id="dummy-1_q4_0_all"  />
<polygon points="420,35 425,30 497,30 497,40 425,40 420,35 " style="fill:#15d8d8; stroke-width:1; stroke:black; " description="&lt;b&gt;MPBPDOGJ_02440&lt;/b&gt;&lt;br&gt;Dye-decolorizing peroxidase YfeX&lt;br&gt;Location: 64546 - 65593" locus_tag="MPBPDOGJ_02440" class="clusterblast-orf" id="dummy-1_q5_0_all"  />
<polygon points="572,40 583,40 588,35 583,30 572,30 572,40 " style="fill:white; stroke-width:1; stroke:black; " description="&lt;b&gt;MPBPDOGJ_02441&lt;/b&gt;&lt;br&gt;hypothetical protein&lt;br&gt;Location: 66621 - 66843" locus_tag="MPBPDOGJ_02441" class="clusterblast-orf" id="dummy-1_q6_0_all"  />
<polygon points="617,35 622,30 707,30 707,40 622,40 617,35 " style="fill:white; stroke-width:1; stroke:black; " description="&lt;b&gt;MPBPDOGJ_02442&lt;/b&gt;&lt;br&gt;Creatinase&lt;br&gt;Location: 67236 - 68463" locus_tag="MPBPDOGJ_02442" class="clusterblast-orf" id="dummy-1_q7_0_all"  />
<polygon points="714,40 775,40 780,35 775,30 714,30 714,40 " style="fill:white; stroke-width:1; stroke:black; " description="&lt;b&gt;MPBPDOGJ_02443&lt;/b&gt;&lt;br&gt;Glycine cleavage system transcriptional activator&lt;br&gt;Location: 68561 - 69461" locus_tag="MPBPDOGJ_02443" class="clusterblast-orf" id="dummy-1_q8_0_all"  />
</g>
<g label="NZ_QJSQ01000002" description="NZ_QJSQ01000002 (287580-298381): Paraburkholderia silvatlantica strain SRCL-3... (37% of genes show similarity), bacteriocin" class="clusterblast-cluster"  >
<text x="5" y="70" class="clusterblast-acc"  >
<a xlink:href="https://antismash-db.secondarymetabolites.org/area.html?record=NZ_QJSQ01000002&amp;start=287580&amp;end=298381" target="_blank">NZ_QJSQ01000002 (287580-298381)</a>: Paraburkholderia silvatlantica strain SRCL-3... (37% of genes show similarity), bacteriocin</text>
<line x1="10" y1="85" x2="778.0" y2="85" style="stroke-width:1; stroke:grey; "  />
</g>
<g id="a1_000"  >
<polygon points="87,90 139,90 144,85 139,80 87,80 87,90 " style="fill:#15d815; stroke-width:1; stroke:black; " description="&lt;b&gt;C7410_RS03795&lt;/b&gt;&lt;br&gt;enoyl-CoA hydratase&lt;br&gt;Location: 288737 - 289522&lt;br&gt;&lt;br&gt;&lt;b&gt;BlastP hit with MPBPDOGJ_02436&lt;/b&gt;&lt;br&gt;Percentage identity: 33&lt;br&gt;Percentage coverage: 99&lt;br&gt;BLAST bit score: 99&lt;br&gt;E-value: 1.05e-22" locus_tag="C7410_RS03795" class="clusterblast-orf" id="dummy-1_h1_10_0"  />
</g>
<g id="a1_001"  >
<polygon points="145,90 224,90 229,85 224,80 145,80 145,90 " style="fill:white; stroke-width:1; stroke:black; " description="&lt;b&gt;C7410_RS03800&lt;/b&gt;&lt;br&gt;enoyl-CoA hydratase/isomerase family protein&lt;br&gt;Location: 289526 - 290674" locus_tag="C7410_RS03800" class="clusterblast-orf" id="dummy-1_h1_10_1"  />
</g>
<g id="a1_002"  >
<polygon points="229,85 234,80 322,80 322,90 234,90 229,85 " style="fill:white; stroke-width:1; stroke:black; " description="&lt;b&gt;C7410_RS03805&lt;/b&gt;&lt;br&gt;chloride channel protein&lt;br&gt;Location: 290679 - 291938" locus_tag="C7410_RS03805" class="clusterblast-orf" id="dummy-1_h1_10_2"  />
</g>
<g id="a1_003"  >
<polygon points="334,85 339,80 357,80 357,90 339,90 334,85 " style="fill:white; stroke-width:1; stroke:black; " description="&lt;b&gt;C7410_RS03810&lt;/b&gt;&lt;br&gt;pyrimidine/purine nucleoside phosphorylase&lt;br&gt;Location: 292102 - 292422" locus_tag="C7410_RS03810" class="clusterblast-orf" id="dummy-1_h1_10_3"  />
</g>
<g id="a1_004"  >
<polygon points="369,85 374,80 428,80 428,90 374,90 369,85 " style="fill:#d8d815; stroke-width:1; stroke:black; " description="&lt;b&gt;C7410_RS03815&lt;/b&gt;&lt;br&gt;bacteriocin family protein&lt;br&gt;Location: 292581 - 293381&lt;br&gt;&lt;br&gt;&lt;b&gt;BlastP hit with MPBPDOGJ_02439&lt;/b&gt;&lt;br&gt;Percentage identity: 59&lt;br&gt;Percentage coverage: 98&lt;br&gt;BLAST bit score: 313&lt;br&gt;E-value: 2.68e-106" locus_tag="C7410_RS03815" class="clusterblast-orf" id="dummy-1_h1_10_4"  />
</g>
<g id="a1_005"  >
<polygon points="427,85 432,80 507,80 507,90 432,90 427,85 " style="fill:#15d8d8; stroke-width:1; stroke:black; " description="&lt;b&gt;C7410_RS03820&lt;/b&gt;&lt;br&gt;Dyp-type peroxidase&lt;br&gt;Location: 293374 - 294459&lt;br&gt;&lt;br&gt;&lt;b&gt;BlastP hit with MPBPDOGJ_02440&lt;/b&gt;&lt;br&gt;Percentage identity: 54&lt;br&gt;Percentage coverage: 99&lt;br&gt;BLAST bit score: 357&lt;br&gt;E-value: 1.01e-120" locus_tag="C7410_RS03820" class="clusterblast-orf" id="dummy-1_h1_10_5"  />
</g>
<g id="a1_006"  >
<polygon points="518,90 532,90 537,85 532,80 518,80 518,90 " style="fill:white; stroke-width:1; stroke:black; " description="&lt;b&gt;C7410_RS03825&lt;/b&gt;&lt;br&gt;hypothetical protein&lt;br&gt;Location: 294608 - 294880" locus_tag="C7410_RS03825" class="clusterblast-orf" id="dummy-1_h1_10_6"  />
</g>
<g id="a1_007"  >
<polygon points="539,85 544,80 692,80 692,90 544,90 539,85 " style="fill:white; stroke-width:1; stroke:black; " description="&lt;b&gt;C7410_RS03830&lt;/b&gt;&lt;br&gt;VTT domain-containing protein&lt;br&gt;Location: 294897 - 296987" locus_tag="C7410_RS03830" class="clusterblast-orf" id="dummy-1_h1_10_7"  />
</g>
</svg>
