<svg xmlns="http://www.w3.org/2000/svg" xmlns:xlink="http://www.w3.org/1999/xlink" version="1.1" x="0" y="0" height="230" width="800" viewBox="0 0 800 230" preserveAspectRatio="none"  >
<g label="Query sequence" class="clusterblast-cluster"  >
<text x="5" y="20" class="clusterblast-acc"  >
Query sequence</text>
<line x1="10" y1="35" x2="778.0" y2="35" style="stroke-width:1; stroke:grey; "  />
<polygon points="97,40 110,40 115,35 110,30 97,30 97,40 " style="fill:white; stroke-width:1; stroke:black; " description="&lt;b&gt;MPBPDOGJ_03235&lt;/b&gt;&lt;br&gt;C4-dicarboxylate-binding periplasmic protein DctP&lt;br&gt;Location: 861 - 1872" locus_tag="MPBPDOGJ_03235" class="clusterblast-orf" id="dummy-1_q0_0_all"  />
<polygon points="116,40 122,40 127,35 122,30 116,30 116,40 " style="fill:white; stroke-width:1; stroke:black; " description="&lt;b&gt;MPBPDOGJ_03236&lt;/b&gt;&lt;br&gt;C4-dicarboxylate TRAP transporter small permease protein DctQ&lt;br&gt;Location: 1927 - 2557" locus_tag="MPBPDOGJ_03236" class="clusterblast-orf" id="dummy-1_q1_0_all"  />
<polygon points="127,40 146,40 151,35 146,30 127,30 127,40 " style="fill:#d81515; stroke-width:1; stroke:black; " description="&lt;b&gt;MPBPDOGJ_03237&lt;/b&gt;&lt;br&gt;C4-dicarboxylate TRAP transporter large permease protein DctM&lt;br&gt;Location: 2553 - 3876" locus_tag="MPBPDOGJ_03237" class="clusterblast-orf" id="dummy-1_q2_0_all"  />
<polygon points="152,35 157,30 178,30 178,40 157,40 152,35 " style="fill:white; stroke-width:1; stroke:black; " description="&lt;b&gt;MPBPDOGJ_03238&lt;/b&gt;&lt;br&gt;Fumarate hydratase class I, anaerobic&lt;br&gt;Location: 3934 - 5431" locus_tag="MPBPDOGJ_03238" class="clusterblast-orf" id="dummy-1_q3_0_all"  />
<polygon points="179,35 184,30 196,30 196,40 184,40 179,35 " style="fill:#63d815; stroke-width:1; stroke:black; " description="&lt;b&gt;MPBPDOGJ_03239&lt;/b&gt;&lt;br&gt;HTH-type transcriptional regulator GltC&lt;br&gt;Location: 5464 - 6415" locus_tag="MPBPDOGJ_03239" class="clusterblast-orf" id="dummy-1_q4_0_all"  />
<polygon points="196,35 201,30 209,30 209,40 201,40 196,35 " style="fill:white; stroke-width:1; stroke:black; " description="&lt;b&gt;MPBPDOGJ_03240&lt;/b&gt;&lt;br&gt;Ubiquinone biosynthesis O-methyltransferase, mitochondrial&lt;br&gt;Location: 6411 - 7161" locus_tag="MPBPDOGJ_03240" class="clusterblast-orf" id="dummy-1_q5_0_all"  />
<polygon points="223,35 228,30 230,30 230,40 228,40 223,35 " style="fill:white; stroke-width:1; stroke:black; " description="&lt;b&gt;MPBPDOGJ_03241&lt;/b&gt;&lt;br&gt;hypothetical protein&lt;br&gt;Location: 7961 - 8333" locus_tag="MPBPDOGJ_03241" class="clusterblast-orf" id="dummy-1_q6_0_all"  />
<polygon points="242,35 247,30 263,30 263,40 247,40 242,35 " style="fill:#15b1d8; stroke-width:1; stroke:black; " description="&lt;b&gt;MPBPDOGJ_03242&lt;/b&gt;&lt;br&gt;hypothetical protein&lt;br&gt;Location: 8988 - 10203" locus_tag="MPBPDOGJ_03242" class="clusterblast-orf" id="dummy-1_q7_0_all"  />
<polygon points="264,35 269,30 292,30 292,40 269,40 264,35 " style="fill:#b115d8; stroke-width:1; stroke:black; " description="&lt;b&gt;MPBPDOGJ_03243&lt;/b&gt;&lt;br&gt;Long-chain-fatty-acid--CoA ligase&lt;br&gt;Location: 10242 - 11808" locus_tag="MPBPDOGJ_03243" class="clusterblast-orf" id="dummy-1_q8_0_all"  />
<polygon points="300,35 305,30 313,30 313,40 305,40 300,35 " style="fill:white; stroke-width:1; stroke:black; " description="&lt;b&gt;MPBPDOGJ_03244&lt;/b&gt;&lt;br&gt;HTH-type quorum sensing-dependent transcriptional regulator RpaR&lt;br&gt;Location: 12262 - 12982" locus_tag="MPBPDOGJ_03244" class="clusterblast-orf" id="dummy-1_q9_0_all"  />
<polygon points="313,35 318,30 328,30 328,40 318,40 313,35 " style="fill:white; stroke-width:1; stroke:black; " description="&lt;b&gt;MPBPDOGJ_03245&lt;/b&gt;&lt;br&gt;Protein/nucleic acid deglycase 1&lt;br&gt;Location: 12984 - 13854" locus_tag="MPBPDOGJ_03245" class="clusterblast-orf" id="dummy-1_q10_0_all"  />
<polygon points="341,35 346,30 355,30 355,40 346,40 341,35 " style="fill:#d86315; stroke-width:1; stroke:black; " description="&lt;b&gt;MPBPDOGJ_03246&lt;/b&gt;&lt;br&gt;putative ABC transporter ATP-binding protein&lt;br&gt;Location: 14580 - 15348" locus_tag="MPBPDOGJ_03246" class="clusterblast-orf" id="dummy-1_q11_0_all"  />
<polygon points="355,35 360,30 372,30 372,40 360,40 355,35 " style="fill:#15d815; stroke-width:1; stroke:black; " description="&lt;b&gt;MPBPDOGJ_03247&lt;/b&gt;&lt;br&gt;putative ABC transporter permease protein&lt;br&gt;Location: 15344 - 16334" locus_tag="MPBPDOGJ_03247" class="clusterblast-orf" id="dummy-1_q12_0_all"  />
<polygon points="372,35 377,30 390,30 390,40 377,40 372,35 " style="fill:white; stroke-width:1; stroke:black; " description="&lt;b&gt;MPBPDOGJ_03248&lt;/b&gt;&lt;br&gt;hypothetical protein&lt;br&gt;Location: 16326 - 17358" locus_tag="MPBPDOGJ_03248" class="clusterblast-orf" id="dummy-1_q13_0_all"  />
<polygon points="390,35 395,30 399,30 399,40 395,40 390,35 " style="fill:white; stroke-width:1; stroke:black; " description="&lt;b&gt;MPBPDOGJ_03249&lt;/b&gt;&lt;br&gt;S-adenosyl-L-methionine-binding protein&lt;br&gt;Location: 17330 - 17816" locus_tag="MPBPDOGJ_03249" class="clusterblast-orf" id="dummy-1_q14_0_all"  />
<polygon points="399,35 404,30 414,30 414,40 404,40 399,35 " style="fill:white; stroke-width:1; stroke:black; " description="&lt;b&gt;MPBPDOGJ_03250&lt;/b&gt;&lt;br&gt;hypothetical protein&lt;br&gt;Location: 17815 - 18709" locus_tag="MPBPDOGJ_03250" class="clusterblast-orf" id="dummy-1_q15_0_all"  />
<polygon points="417,35 422,30 486,30 486,40 422,40 417,35 " style="fill:#1563d8; stroke-width:1; stroke:black; " description="&lt;b&gt;MPBPDOGJ_03251&lt;/b&gt;&lt;br&gt;Dimodular nonribosomal peptide synthase&lt;br&gt;Location: 18869 - 22754" locus_tag="MPBPDOGJ_03251" class="clusterblast-orf" id="dummy-1_q16_0_all"  />
<polygon points="486,35 491,30 491,30 491,40 491,40 486,35 " style="fill:#d815b1; stroke-width:1; stroke:black; " description="&lt;b&gt;MPBPDOGJ_03252&lt;/b&gt;&lt;br&gt;Isochorismatase&lt;br&gt;Location: 22755 - 22992" locus_tag="MPBPDOGJ_03252" class="clusterblast-orf" id="dummy-1_q17_0_all"  />
<polygon points="491,35 496,30 520,30 520,40 496,40 491,35 " style="fill:#b115d8; stroke-width:1; stroke:black; " description="&lt;b&gt;MPBPDOGJ_03253&lt;/b&gt;&lt;br&gt;2,3-dihydroxybenzoate-AMP ligase&lt;br&gt;Location: 22988 - 24629" locus_tag="MPBPDOGJ_03253" class="clusterblast-orf" id="dummy-1_q18_0_all"  />
<polygon points="523,40 528,40 533,35 528,30 523,30 523,40 " style="fill:#d8b115; stroke-width:1; stroke:black; " description="&lt;b&gt;MPBPDOGJ_03254&lt;/b&gt;&lt;br&gt;Cytochrome b561&lt;br&gt;Location: 24793 - 25372" locus_tag="MPBPDOGJ_03254" class="clusterblast-orf" id="dummy-1_q19_0_all"  />
<polygon points="535,35 540,30 553,30 553,40 540,40 535,35 " style="fill:#15d863; stroke-width:1; stroke:black; " description="&lt;b&gt;MPBPDOGJ_03255&lt;/b&gt;&lt;br&gt;Solute-binding protein&lt;br&gt;Location: 25509 - 26496" locus_tag="MPBPDOGJ_03255" class="clusterblast-orf" id="dummy-1_q20_0_all"  />
<polygon points="553,35 558,30 576,30 576,40 558,40 553,35 " style="fill:#1515d8; stroke-width:1; stroke:black; " description="&lt;b&gt;MPBPDOGJ_03256&lt;/b&gt;&lt;br&gt;C4-dicarboxylate TRAP transporter large permease protein DctM&lt;br&gt;Location: 26507 - 27764" locus_tag="MPBPDOGJ_03256" class="clusterblast-orf" id="dummy-1_q21_0_all"  />
<polygon points="576,35 581,30 586,30 586,40 581,40 576,35 " style="fill:#d81563; stroke-width:1; stroke:black; " description="&lt;b&gt;MPBPDOGJ_03257&lt;/b&gt;&lt;br&gt;hypothetical protein&lt;br&gt;Location: 27760 - 28345" locus_tag="MPBPDOGJ_03257" class="clusterblast-orf" id="dummy-1_q22_0_all"  />
<polygon points="586,35 591,30 600,30 600,40 591,40 586,35 " style="fill:#d86315; stroke-width:1; stroke:black; " description="&lt;b&gt;MPBPDOGJ_03258&lt;/b&gt;&lt;br&gt;Fe(3+) dicitrate transport ATP-binding protein FecE&lt;br&gt;Location: 28341 - 29136" locus_tag="MPBPDOGJ_03258" class="clusterblast-orf" id="dummy-1_q23_0_all"  />
<polygon points="600,35 605,30 618,30 618,40 605,40 600,35 " style="fill:#15d815; stroke-width:1; stroke:black; " description="&lt;b&gt;MPBPDOGJ_03259&lt;/b&gt;&lt;br&gt;Hemin transport system permease protein HmuU&lt;br&gt;Location: 29132 - 30173" locus_tag="MPBPDOGJ_03259" class="clusterblast-orf" id="dummy-1_q24_0_all"  />
<polygon points="618,35 623,30 638,30 638,40 623,40 618,35 " style="fill:#b1d815; stroke-width:1; stroke:black; " description="&lt;b&gt;MPBPDOGJ_03260&lt;/b&gt;&lt;br&gt;hypothetical protein&lt;br&gt;Location: 30169 - 31276" locus_tag="MPBPDOGJ_03260" class="clusterblast-orf" id="dummy-1_q25_0_all"  />
<polygon points="640,35 645,30 665,30 665,40 645,40 640,35 " style="fill:#15d8b1; stroke-width:1; stroke:black; " description="&lt;b&gt;MPBPDOGJ_03261&lt;/b&gt;&lt;br&gt;hypothetical protein&lt;br&gt;Location: 31364 - 32777" locus_tag="MPBPDOGJ_03261" class="clusterblast-orf" id="dummy-1_q26_0_all"  />
<polygon points="667,40 677,40 682,35 677,30 667,30 667,40 " style="fill:#6315d8; stroke-width:1; stroke:black; " description="&lt;b&gt;MPBPDOGJ_03262&lt;/b&gt;&lt;br&gt;hypothetical protein&lt;br&gt;Location: 32927 - 33767" locus_tag="MPBPDOGJ_03262" class="clusterblast-orf" id="dummy-1_q27_0_all"  />
</g>
<g label="NZ_QNHG01000004" description="NZ_QNHG01000004 (282925-328847): Pseudogemmobacter bohemicus strain Cd-10 sca... (35% of genes show similarity), NRPS" class="clusterblast-cluster"  >
<text x="5" y="70" class="clusterblast-acc"  >
<a xlink:href="https://antismash-db.secondarymetabolites.org/area.html?record=NZ_QNHG01000004&amp;start=282925&amp;end=328847" target="_blank">NZ_QNHG01000004 (282925-328847)</a>: Pseudogemmobacter bohemicus strain Cd-10 sca... (35% of genes show similarity), NRPS</text>
<line x1="10" y1="85" x2="778.0" y2="85" style="stroke-width:1; stroke:grey; "  />
</g>
<g id="a1_000"  >
<polygon points="0,85 4,80 4,90 0,85 " style="fill:white; stroke-width:1; stroke:black; " description="&lt;b&gt;DRF71_RS20635&lt;/b&gt;&lt;br&gt;hypothetical protein&lt;br&gt;Location: 328485 - 328249" locus_tag="DRF71_RS20635" class="clusterblast-orf" id="dummy-1_h1_3_0"  />
</g>
<g id="a1_001"  >
<polygon points="9,85 14,80 44,80 44,90 14,90 9,85 " style="fill:white; stroke-width:1; stroke:black; " description="&lt;b&gt;DRF71_RS20630&lt;/b&gt;&lt;br&gt;selenocysteine-specific translation elongation factor&lt;br&gt;Location: 327926 - 326001" locus_tag="DRF71_RS20630" class="clusterblast-orf" id="dummy-1_h1_3_1"  />
</g>
<g id="a1_002"  >
<polygon points="44,85 49,80 68,80 68,90 49,90 44,85 " style="fill:white; stroke-width:1; stroke:black; " description="&lt;b&gt;DRF71_RS20625&lt;/b&gt;&lt;br&gt;L-seryl-tRNA(Sec) selenium transferase&lt;br&gt;Location: 326004 - 324616" locus_tag="DRF71_RS20625" class="clusterblast-orf" id="dummy-1_h1_3_2"  />
</g>
<g id="a1_003"  >
<polygon points="68,85 73,80 84,80 84,90 73,90 68,85 " style="fill:white; stroke-width:1; stroke:black; " description="&lt;b&gt;DRF71_RS20620&lt;/b&gt;&lt;br&gt;formate dehydrogenase accessory protein FdhE&lt;br&gt;Location: 324616 - 323708" locus_tag="DRF71_RS20620" class="clusterblast-orf" id="dummy-1_h1_3_3"  />
</g>
<g id="a1_004"  >
<polygon points="86,85 91,80 98,80 98,90 91,90 86,85 " style="fill:white; stroke-width:1; stroke:black; " description="&lt;b&gt;DRF71_RS20615&lt;/b&gt;&lt;br&gt;formate dehydrogenase subunit gamma&lt;br&gt;Location: 323651 - 322932" locus_tag="DRF71_RS20615" class="clusterblast-orf" id="dummy-1_h1_3_4"  />
</g>
<g id="a1_005"  >
<polygon points="98,85 103,80 116,80 116,90 103,90 98,85 " style="fill:white; stroke-width:1; stroke:black; " description="&lt;b&gt;DRF71_RS20610&lt;/b&gt;&lt;br&gt;formate dehydrogenase subunit beta&lt;br&gt;Location: 322932 - 321943" locus_tag="DRF71_RS20610" class="clusterblast-orf" id="dummy-1_h1_3_5"  />
</g>
<g id="a1_006"  >
<polygon points="116,85 121,80 171,80 171,90 121,90 116,85 " style="fill:white; stroke-width:1; stroke:black; " description="&lt;b&gt;DRF71_RS20605&lt;/b&gt;&lt;br&gt;formate dehydrogenase-N subunit alpha&lt;br&gt;Location: 321946 - 318866" locus_tag="DRF71_RS20605" class="clusterblast-orf" id="dummy-1_h1_3_6"  />
</g>
<g id="a1_007"  >
<polygon points="178,90 192,90 197,85 192,80 178,80 178,90 " style="fill:white; stroke-width:1; stroke:black; " description="&lt;b&gt;DRF71_RS20595&lt;/b&gt;&lt;br&gt;selenide, water dikinase SelD&lt;br&gt;Location: 318467 - 317409" locus_tag="DRF71_RS20595" class="clusterblast-orf" id="dummy-1_h1_3_7"  />
</g>
<g id="a1_008"  >
<polygon points="198,85 203,80 215,80 215,90 203,90 198,85 " style="fill:#15d863; stroke-width:1; stroke:black; " description="&lt;b&gt;DRF71_RS20590&lt;/b&gt;&lt;br&gt;TRAP transporter substrate-binding protein&lt;br&gt;Location: 317353 - 316349&lt;br&gt;&lt;br&gt;&lt;b&gt;BlastP hit with MPBPDOGJ_03255&lt;/b&gt;&lt;br&gt;Percentage identity: 77&lt;br&gt;Percentage coverage: 91&lt;br&gt;BLAST bit score: 465&lt;br&gt;E-value: 3.92e-164" locus_tag="DRF71_RS20590" class="clusterblast-orf" id="dummy-1_h1_3_8"  />
</g>
<g id="a1_009"  >
<polygon points="215,85 220,80 238,80 238,90 220,90 215,85 " style="fill:#1515d8; stroke-width:1; stroke:black; " description="&lt;b&gt;DRF71_RS20585&lt;/b&gt;&lt;br&gt;TRAP transporter large permease&lt;br&gt;Location: 316347 - 315079&lt;br&gt;&lt;br&gt;&lt;b&gt;BlastP hit with MPBPDOGJ_03256&lt;/b&gt;&lt;br&gt;Percentage identity: 72&lt;br&gt;Percentage coverage: 100&lt;br&gt;BLAST bit score: 526&lt;br&gt;E-value: 2.72e-185" locus_tag="DRF71_RS20585" class="clusterblast-orf" id="dummy-1_h1_3_9"  />
</g>
<g id="a1_0010"  >
<polygon points="238,85 243,80 248,80 248,90 243,90 238,85 " style="fill:#d81563; stroke-width:1; stroke:black; " description="&lt;b&gt;DRF71_RS20580&lt;/b&gt;&lt;br&gt;TRAP transporter small permease&lt;br&gt;Location: 315082 - 314507&lt;br&gt;&lt;br&gt;&lt;b&gt;BlastP hit with MPBPDOGJ_03257&lt;/b&gt;&lt;br&gt;Percentage identity: 59&lt;br&gt;Percentage coverage: 89&lt;br&gt;BLAST bit score: 199&lt;br&gt;E-value: 2.65e-63" locus_tag="DRF71_RS20580" class="clusterblast-orf" id="dummy-1_h1_3_10"  />
</g>
<g id="a1_0011"  >
<polygon points="248,85 253,80 262,80 262,90 253,90 248,85 " style="fill:#d86315; stroke-width:1; stroke:black; " description="&lt;b&gt;DRF71_RS20575&lt;/b&gt;&lt;br&gt;ABC transporter ATP-binding protein&lt;br&gt;Location: 314510 - 313722&lt;br&gt;&lt;br&gt;&lt;b&gt;BlastP hit with MPBPDOGJ_03246&lt;/b&gt;&lt;br&gt;Percentage identity: 38&lt;br&gt;Percentage coverage: 94&lt;br&gt;BLAST bit score: 140&lt;br&gt;E-value: 9.13e-39&lt;br&gt;&lt;br&gt;&lt;b&gt;BlastP hit with MPBPDOGJ_03258&lt;/b&gt;&lt;br&gt;Percentage identity: 67&lt;br&gt;Percentage coverage: 96&lt;br&gt;BLAST bit score: 305&lt;br&gt;E-value: 4.77e-103" locus_tag="DRF71_RS20575" class="clusterblast-orf" id="dummy-1_h1_3_11"  />
</g>
<g id="a1_0012"  >
<polygon points="262,85 267,80 281,80 281,90 267,90 262,85 " style="fill:#15d815; stroke-width:1; stroke:black; " description="&lt;b&gt;DRF71_RS20570&lt;/b&gt;&lt;br&gt;iron ABC transporter permease&lt;br&gt;Location: 313725 - 312685&lt;br&gt;&lt;br&gt;&lt;b&gt;BlastP hit with MPBPDOGJ_03259&lt;/b&gt;&lt;br&gt;Percentage identity: 74&lt;br&gt;Percentage coverage: 99&lt;br&gt;BLAST bit score: 470&lt;br&gt;E-value: 1.27e-165" locus_tag="DRF71_RS20570" class="clusterblast-orf" id="dummy-1_h1_3_12"  />
</g>
<g id="a1_0013"  >
<polygon points="281,85 286,80 300,80 300,90 286,90 281,85 " style="fill:#b1d815; stroke-width:1; stroke:black; " description="&lt;b&gt;DRF71_RS20565&lt;/b&gt;&lt;br&gt;ABC transporter substrate-binding protein&lt;br&gt;Location: 312677 - 311577&lt;br&gt;&lt;br&gt;&lt;b&gt;BlastP hit with MPBPDOGJ_03260&lt;/b&gt;&lt;br&gt;Percentage identity: 75&lt;br&gt;Percentage coverage: 94&lt;br&gt;BLAST bit score: 524&lt;br&gt;E-value: 3.09e-186" locus_tag="DRF71_RS20565" class="clusterblast-orf" id="dummy-1_h1_3_13"  />
</g>
<g id="a1_0014"  >
<polygon points="302,85 307,80 328,80 328,90 307,90 302,85 " style="fill:#15d8b1; stroke-width:1; stroke:black; " description="&lt;b&gt;DRF71_RS20560&lt;/b&gt;&lt;br&gt;ATP-binding protein&lt;br&gt;Location: 311462 - 310035&lt;br&gt;&lt;br&gt;&lt;b&gt;BlastP hit with MPBPDOGJ_03261&lt;/b&gt;&lt;br&gt;Percentage identity: 53&lt;br&gt;Percentage coverage: 101&lt;br&gt;BLAST bit score: 453&lt;br&gt;E-value: 7.56e-155" locus_tag="DRF71_RS20560" class="clusterblast-orf" id="dummy-1_h1_3_14"  />
</g>
<g id="a1_0015"  >
<polygon points="334,90 344,90 349,85 344,80 334,80 334,90 " style="fill:#6315d8; stroke-width:1; stroke:black; " description="&lt;b&gt;DRF71_RS20555&lt;/b&gt;&lt;br&gt;alpha/beta hydrolase&lt;br&gt;Location: 309706 - 308855&lt;br&gt;&lt;br&gt;&lt;b&gt;BlastP hit with MPBPDOGJ_03262&lt;/b&gt;&lt;br&gt;Percentage identity: 65&lt;br&gt;Percentage coverage: 99&lt;br&gt;BLAST bit score: 374&lt;br&gt;E-value: 7.65e-130" locus_tag="DRF71_RS20555" class="clusterblast-orf" id="dummy-1_h1_3_15"  />
</g>
<g id="a1_0016"  >
<polygon points="349,85 354,80 386,80 386,90 354,90 349,85 " style="fill:#1563d8; stroke-width:1; stroke:black; " description="&lt;b&gt;DRF71_RS20550&lt;/b&gt;&lt;br&gt;amino acid adenylation domain-containing protein&lt;br&gt;Location: 308847 - 306763&lt;br&gt;&lt;br&gt;&lt;b&gt;BlastP hit with MPBPDOGJ_03251&lt;/b&gt;&lt;br&gt;Percentage identity: 72&lt;br&gt;Percentage coverage: 54&lt;br&gt;BLAST bit score: 1006&lt;br&gt;E-value: 0.0" locus_tag="DRF71_RS20550" class="clusterblast-orf" id="dummy-1_h1_3_16"  />
</g>
<g id="a1_0017"  >
<polygon points="387,85 392,80 420,80 420,90 392,90 387,85 " style="fill:#1563d8; stroke-width:1; stroke:black; " description="&lt;b&gt;DRF71_RS20545&lt;/b&gt;&lt;br&gt;AMP-binding protein&lt;br&gt;Location: 306713 - 304839&lt;br&gt;&lt;br&gt;&lt;b&gt;BlastP hit with MPBPDOGJ_03251&lt;/b&gt;&lt;br&gt;Percentage identity: 63&lt;br&gt;Percentage coverage: 44&lt;br&gt;BLAST bit score: 690&lt;br&gt;E-value: 6.3e-234" locus_tag="DRF71_RS20545" class="clusterblast-orf" id="dummy-1_h1_3_17"  />
</g>
<g id="a1_0018"  >
<polygon points="420,85 425,80 425,80 425,90 425,90 420,85 " style="fill:#d815b1; stroke-width:1; stroke:black; " description="&lt;b&gt;DRF71_RS20540&lt;/b&gt;&lt;br&gt;phosphopantetheine-binding protein&lt;br&gt;Location: 304826 - 304590&lt;br&gt;&lt;br&gt;&lt;b&gt;BlastP hit with MPBPDOGJ_03252&lt;/b&gt;&lt;br&gt;Percentage identity: 56&lt;br&gt;Percentage coverage: 99&lt;br&gt;BLAST bit score: 94&lt;br&gt;E-value: 2.23e-25" locus_tag="DRF71_RS20540" class="clusterblast-orf" id="dummy-1_h1_3_18"  />
</g>
<g id="a1_0019"  >
<polygon points="425,85 430,80 454,80 454,90 430,90 425,85 " style="fill:#b115d8; stroke-width:1; stroke:black; " description="&lt;b&gt;DRF71_RS20535&lt;/b&gt;&lt;br&gt;AMP-binding protein&lt;br&gt;Location: 304593 - 302926&lt;br&gt;&lt;br&gt;&lt;b&gt;BlastP hit with MPBPDOGJ_03243&lt;/b&gt;&lt;br&gt;Percentage identity: 33&lt;br&gt;Percentage coverage: 96&lt;br&gt;BLAST bit score: 191&lt;br&gt;E-value: 2.72e-52&lt;br&gt;&lt;br&gt;&lt;b&gt;BlastP hit with MPBPDOGJ_03253&lt;/b&gt;&lt;br&gt;Percentage identity: 75&lt;br&gt;Percentage coverage: 99&lt;br&gt;BLAST bit score: 800&lt;br&gt;E-value: 2.59e-289" locus_tag="DRF71_RS20535" class="clusterblast-orf" id="dummy-1_h1_3_19"  />
</g>
<g id="a1_0020"  >
<polygon points="458,90 463,90 468,85 463,80 458,80 458,90 " style="fill:#d8b115; stroke-width:1; stroke:black; " description="&lt;b&gt;DRF71_RS20530&lt;/b&gt;&lt;br&gt;cytochrome b&lt;br&gt;Location: 302743 - 302171&lt;br&gt;&lt;br&gt;&lt;b&gt;BlastP hit with MPBPDOGJ_03254&lt;/b&gt;&lt;br&gt;Percentage identity: 57&lt;br&gt;Percentage coverage: 98&lt;br&gt;BLAST bit score: 231&lt;br&gt;E-value: 2.91e-76" locus_tag="DRF71_RS20530" class="clusterblast-orf" id="dummy-1_h1_3_20"  />
</g>
<g id="a1_0021"  >
<polygon points="468,90 482,90 487,85 482,80 468,80 468,90 " style="fill:white; stroke-width:1; stroke:black; " description="&lt;b&gt;DRF71_RS20525&lt;/b&gt;&lt;br&gt;glycosyltransferase family 2 protein&lt;br&gt;Location: 302128 - 301070" locus_tag="DRF71_RS20525" class="clusterblast-orf" id="dummy-1_h1_3_21"  />
</g>
<g id="a1_0022"  >
<polygon points="490,90 506,90 511,85 506,80 490,80 490,90 " style="fill:white; stroke-width:1; stroke:black; " description="&lt;b&gt;DRF71_RS20520&lt;/b&gt;&lt;br&gt;putative lipid II flippase FtsW&lt;br&gt;Location: 300925 - 299762" locus_tag="DRF71_RS20520" class="clusterblast-orf" id="dummy-1_h1_3_22"  />
</g>
<g id="a1_0023"  >
<polygon points="511,90 525,90 530,85 525,80 511,80 511,90 " style="fill:white; stroke-width:1; stroke:black; " description="&lt;b&gt;DRF71_RS20515&lt;/b&gt;&lt;br&gt;UDP-N-acetylglucosamine--N-acetylmuramyl- (pentapeptide) pyrophosphoryl-undecaprenol N-acetylglucosamine transferase&lt;br&gt;Location: 299756 - 298662" locus_tag="DRF71_RS20515" class="clusterblast-orf" id="dummy-1_h1_3_23"  />
</g>
<g id="a1_0024"  >
<polygon points="530,90 550,90 555,85 550,80 530,80 530,90 " style="fill:white; stroke-width:1; stroke:black; " description="&lt;b&gt;DRF71_RS20510&lt;/b&gt;&lt;br&gt;UDP-N-acetylmuramate--L-alanine ligase&lt;br&gt;Location: 298665 - 297238" locus_tag="DRF71_RS20510" class="clusterblast-orf" id="dummy-1_h1_3_24"  />
</g>
<g id="a1_0025"  >
<polygon points="556,90 557,90 562,85 557,80 556,80 556,90 " style="fill:white; stroke-width:1; stroke:black; " description="&lt;b&gt;DRF71_RS20505&lt;/b&gt;&lt;br&gt;hypothetical protein&lt;br&gt;Location: 297231 - 296848" locus_tag="DRF71_RS20505" class="clusterblast-orf" id="dummy-1_h1_3_25"  />
</g>
<g id="a1_0026"  >
<polygon points="564,90 568,85 564,80 564,90 " style="fill:white; stroke-width:1; stroke:black; " description="&lt;b&gt;DRF71_RS20500&lt;/b&gt;&lt;br&gt;DUF2484 family protein&lt;br&gt;Location: 296768 - 296526" locus_tag="DRF71_RS20500" class="clusterblast-orf" id="dummy-1_h1_3_26"  />
</g>
<g id="a1_0027"  >
<polygon points="569,90 571,90 576,85 571,80 569,80 569,90 " style="fill:white; stroke-width:1; stroke:black; " description="&lt;b&gt;DRF71_RS20495&lt;/b&gt;&lt;br&gt;hypothetical protein&lt;br&gt;Location: 296454 - 296071" locus_tag="DRF71_RS20495" class="clusterblast-orf" id="dummy-1_h1_3_27"  />
</g>
<g id="a1_0028"  >
<polygon points="577,90 589,90 594,85 589,80 577,80 577,90 " style="fill:white; stroke-width:1; stroke:black; " description="&lt;b&gt;DRF71_RS20490&lt;/b&gt;&lt;br&gt;UDP-N-acetylmuramate dehydrogenase&lt;br&gt;Location: 296010 - 295078" locus_tag="DRF71_RS20490" class="clusterblast-orf" id="dummy-1_h1_3_28"  />
</g>
<g id="a1_0029"  >
<polygon points="596,90 607,90 612,85 607,80 596,80 596,90 " style="fill:white; stroke-width:1; stroke:black; " description="&lt;b&gt;DRF71_RS20485&lt;/b&gt;&lt;br&gt;D-alanine--D-alanine ligase&lt;br&gt;Location: 294952 - 294035" locus_tag="DRF71_RS20485" class="clusterblast-orf" id="dummy-1_h1_3_29"  />
</g>
<g id="a1_0030"  >
<polygon points="612,90 624,90 629,85 624,80 612,80 612,90 " style="fill:white; stroke-width:1; stroke:black; " description="&lt;b&gt;DRF71_RS20480&lt;/b&gt;&lt;br&gt;FtsQ-type POTRA domain-containing protein&lt;br&gt;Location: 294047 - 293082" locus_tag="DRF71_RS20480" class="clusterblast-orf" id="dummy-1_h1_3_30"  />
</g>
<g id="a1_0031"  >
<polygon points="629,90 648,90 653,85 648,80 629,80 629,90 " style="fill:white; stroke-width:1; stroke:black; " description="&lt;b&gt;DRF71_RS20475&lt;/b&gt;&lt;br&gt;cell division protein FtsA&lt;br&gt;Location: 293085 - 291751" locus_tag="DRF71_RS20475" class="clusterblast-orf" id="dummy-1_h1_3_31"  />
</g>
<g id="a1_0032"  >
<polygon points="658,90 685,90 690,85 685,80 658,80 658,90 " style="fill:white; stroke-width:1; stroke:black; " description="&lt;b&gt;DRF71_RS20470&lt;/b&gt;&lt;br&gt;cell division protein FtsZ&lt;br&gt;Location: 291490 - 289682" locus_tag="DRF71_RS20470" class="clusterblast-orf" id="dummy-1_h1_3_32"  />
</g>
<g id="a1_0033"  >
<polygon points="694,90 707,90 712,85 707,80 694,80 694,90 " style="fill:white; stroke-width:1; stroke:black; " description="&lt;b&gt;DRF71_RS20465&lt;/b&gt;&lt;br&gt;UDP-3-O-acyl-N-acetylglucosamine deacetylase&lt;br&gt;Location: 289440 - 288466" locus_tag="DRF71_RS20465" class="clusterblast-orf" id="dummy-1_h1_3_33"  />
</g>
<g id="a1_0034"  >
<polygon points="716,90 726,90 731,85 726,80 716,80 716,90 " style="fill:white; stroke-width:1; stroke:black; " description="&lt;b&gt;DRF71_RS20460&lt;/b&gt;&lt;br&gt;outer membrane protein assembly factor BamD&lt;br&gt;Location: 288219 - 287359" locus_tag="DRF71_RS20460" class="clusterblast-orf" id="dummy-1_h1_3_34"  />
</g>
<g id="a1_0035"  >
<polygon points="732,90 757,90 762,85 757,80 732,80 732,90 " style="fill:white; stroke-width:1; stroke:black; " description="&lt;b&gt;DRF71_RS20455&lt;/b&gt;&lt;br&gt;DNA repair protein RecN&lt;br&gt;Location: 287295 - 285652" locus_tag="DRF71_RS20455" class="clusterblast-orf" id="dummy-1_h1_3_35"  />
</g>
<g id="a1_0036"  >
<polygon points="768,90 774,90 779,85 774,80 768,80 768,90 " style="fill:white; stroke-width:1; stroke:black; " description="&lt;b&gt;DRF71_RS20450&lt;/b&gt;&lt;br&gt;phosphoribosylformylglycinamidine synthase subunit PurQ&lt;br&gt;Location: 285314 - 284646" locus_tag="DRF71_RS20450" class="clusterblast-orf" id="dummy-1_h1_3_36"  />
</g>
</svg>
