<svg xmlns="http://www.w3.org/2000/svg" xmlns:xlink="http://www.w3.org/1999/xlink" version="1.1" x="0" y="0" height="230" width="800" viewBox="0 0 800 230" preserveAspectRatio="none"  >
<g label="Query sequence" class="clusterblast-cluster"  >
<text x="5" y="20" class="clusterblast-acc"  >
Query sequence</text>
<line x1="10" y1="35" x2="778.0" y2="35" style="stroke-width:1; stroke:grey; "  />
<polygon points="197,40 307,40 312,35 307,30 197,30 197,40 " style="fill:#d81515; stroke-width:1; stroke:black; " description="&lt;b&gt;MPBPDOGJ_00273&lt;/b&gt;&lt;br&gt;Penicillin-binding protein 1A&lt;br&gt;Location: 277095 - 279615" locus_tag="MPBPDOGJ_00273" class="clusterblast-orf" id="dummy-1_q0_0_all"  />
<polygon points="315,40 362,40 367,35 362,30 315,30 315,40 " style="fill:#4dd815; stroke-width:1; stroke:black; " description="&lt;b&gt;MPBPDOGJ_00274&lt;/b&gt;&lt;br&gt;Peptide chain release factor RF2&lt;br&gt;Location: 279689 - 280817" locus_tag="MPBPDOGJ_00274" class="clusterblast-orf" id="dummy-1_q1_0_all"  />
<polygon points="371,35 376,30 387,30 387,40 376,40 371,35 " style="fill:#1585d8; stroke-width:1; stroke:black; " description="&lt;b&gt;MPBPDOGJ_00275&lt;/b&gt;&lt;br&gt;2-iminobutanoate/2-iminopropanoate deaminase&lt;br&gt;Location: 280905 - 281256" locus_tag="MPBPDOGJ_00275" class="clusterblast-orf" id="dummy-1_q2_0_all"  />
<polygon points="413,35 418,30 431,30 431,40 418,40 413,35 " style="fill:#d815bc; stroke-width:1; stroke:black; " description="&lt;b&gt;MPBPDOGJ_00276&lt;/b&gt;&lt;br&gt;L-ectoine synthase&lt;br&gt;Location: 281820 - 282207" locus_tag="MPBPDOGJ_00276" class="clusterblast-orf" id="dummy-1_q3_0_all"  />
<polygon points="431,35 436,30 478,30 478,40 436,40 431,35 " style="fill:#d8bc15; stroke-width:1; stroke:black; " description="&lt;b&gt;MPBPDOGJ_00277&lt;/b&gt;&lt;br&gt;Tryptophan--tRNA ligase&lt;br&gt;Location: 282203 - 283244" locus_tag="MPBPDOGJ_00277" class="clusterblast-orf" id="dummy-1_q4_0_all"  />
<polygon points="482,40 508,40 513,35 508,30 482,30 482,40 " style="fill:#15d885; stroke-width:1; stroke:black; " description="&lt;b&gt;MPBPDOGJ_00278&lt;/b&gt;&lt;br&gt;hypothetical protein&lt;br&gt;Location: 283319 - 284003" locus_tag="MPBPDOGJ_00278" class="clusterblast-orf" id="dummy-1_q5_0_all"  />
<polygon points="512,35 517,30 583,30 583,40 517,40 512,35 " style="fill:#4d15d8; stroke-width:1; stroke:black; " description="&lt;b&gt;MPBPDOGJ_00279&lt;/b&gt;&lt;br&gt;putative lipid II flippase MurJ&lt;br&gt;Location: 283993 - 285538" locus_tag="MPBPDOGJ_00279" class="clusterblast-orf" id="dummy-1_q6_0_all"  />
</g>
<g label="NC_017958" description="NC_017958 (821220-841901): Tistrella mobilis KA081020-065 plasmid pTM3, compl... (12% of genes show similarity), hserlactone" class="clusterblast-cluster"  >
<text x="5" y="70" class="clusterblast-acc"  >
<a xlink:href="https://antismash-db.secondarymetabolites.org/area.html?record=NC_017958&amp;start=821220&amp;end=841901" target="_blank">NC_017958 (821220-841901)</a>: Tistrella mobilis KA081020-065 plasmid pTM3, compl... (12% of genes show similarity), hserlactone</text>
<line x1="10" y1="85" x2="778.0" y2="85" style="stroke-width:1; stroke:grey; "  />
</g>
<g id="a1_000"  >
<polygon points="0,90 53,90 58,85 53,80 0,80 0,90 " style="fill:white; stroke-width:1; stroke:black; " description="&lt;b&gt;TMO_RS27320&lt;/b&gt;&lt;br&gt;N-acetylmuramoyl-L-alanine amidase&lt;br&gt;Location: 838730 - 837453" locus_tag="TMO_RS27320" class="clusterblast-orf" id="dummy-1_h1_10_0"  />
</g>
<g id="a1_001"  >
<polygon points="73,90 180,90 185,85 180,80 73,80 73,90 " style="fill:#d81515; stroke-width:1; stroke:black; " description="&lt;b&gt;TMO_RS27315&lt;/b&gt;&lt;br&gt;penicillin-binding protein 1A&lt;br&gt;Location: 837121 - 834671&lt;br&gt;&lt;br&gt;&lt;b&gt;BlastP hit with MPBPDOGJ_00273&lt;/b&gt;&lt;br&gt;Percentage identity: 45&lt;br&gt;Percentage coverage: 93&lt;br&gt;BLAST bit score: 641&lt;br&gt;E-value: 3.14e-218" locus_tag="TMO_RS27315" class="clusterblast-orf" id="dummy-1_h1_10_1"  />
</g>
<g id="a1_002"  >
<polygon points="189,90 235,90 240,85 235,80 189,80 189,90 " style="fill:#4dd815; stroke-width:1; stroke:black; " description="&lt;b&gt;TMO_RS27310&lt;/b&gt;&lt;br&gt;peptide chain release factor 2&lt;br&gt;Location: 834601 - 833473&lt;br&gt;&lt;br&gt;&lt;b&gt;BlastP hit with MPBPDOGJ_00274&lt;/b&gt;&lt;br&gt;Percentage identity: 60&lt;br&gt;Percentage coverage: 98&lt;br&gt;BLAST bit score: 422&lt;br&gt;E-value: 7.31e-146" locus_tag="TMO_RS27310" class="clusterblast-orf" id="dummy-1_h1_10_2"  />
</g>
<g id="a1_003"  >
<polygon points="240,90 284,90 289,85 284,80 240,80 240,90 " style="fill:white; stroke-width:1; stroke:black; " description="&lt;b&gt;TMO_RS27305&lt;/b&gt;&lt;br&gt;alpha/beta fold hydrolase&lt;br&gt;Location: 833473 - 832415" locus_tag="TMO_RS27305" class="clusterblast-orf" id="dummy-1_h1_10_3"  />
</g>
<g id="a1_004"  >
<polygon points="290,85 295,80 312,80 312,90 295,90 290,85 " style="fill:white; stroke-width:1; stroke:black; " description="&lt;b&gt;TMO_RS27300&lt;/b&gt;&lt;br&gt;MaoC family dehydratase&lt;br&gt;Location: 832386 - 831898" locus_tag="TMO_RS27300" class="clusterblast-orf" id="dummy-1_h1_10_4"  />
</g>
<g id="a1_005"  >
<polygon points="312,85 317,80 343,80 343,90 317,90 312,85 " style="fill:white; stroke-width:1; stroke:black; " description="&lt;b&gt;TMO_RS27295&lt;/b&gt;&lt;br&gt;GNAT family N-acetyltransferase&lt;br&gt;Location: 831901 - 831221" locus_tag="TMO_RS27295" class="clusterblast-orf" id="dummy-1_h1_10_5"  />
</g>
<g id="a1_006"  >
<polygon points="345,85 350,80 379,80 379,90 350,90 345,85 " style="fill:white; stroke-width:1; stroke:black; " description="&lt;b&gt;TMO_RS27290&lt;/b&gt;&lt;br&gt;autoinducer binding domain-containing protein&lt;br&gt;Location: 831188 - 830445" locus_tag="TMO_RS27290" class="clusterblast-orf" id="dummy-1_h1_10_6"  />
</g>
<g id="a1_007"  >
<polygon points="397,90 496,90 501,85 496,80 397,80 397,90 " style="fill:white; stroke-width:1; stroke:black; " description="&lt;b&gt;TMO_RS27285&lt;/b&gt;&lt;br&gt;B12-binding domain-containing radical SAM protein&lt;br&gt;Location: 830039 - 827772" locus_tag="TMO_RS27285" class="clusterblast-orf" id="dummy-1_h1_10_7"  />
</g>
<g id="a1_008"  >
<polygon points="503,90 536,90 541,85 536,80 503,80 503,90 " style="fill:white; stroke-width:1; stroke:black; " description="&lt;b&gt;TMO_RS27280&lt;/b&gt;&lt;br&gt;class I SAM-dependent methyltransferase&lt;br&gt;Location: 827735 - 826902" locus_tag="TMO_RS27280" class="clusterblast-orf" id="dummy-1_h1_10_8"  />
</g>
<g id="a1_009"  >
<polygon points="541,90 558,90 563,85 558,80 541,80 541,90 " style="fill:white; stroke-width:1; stroke:black; " description="&lt;b&gt;TMO_RS27275&lt;/b&gt;&lt;br&gt;MaoC family dehydratase&lt;br&gt;Location: 826905 - 826429" locus_tag="TMO_RS27275" class="clusterblast-orf" id="dummy-1_h1_10_9"  />
</g>
<g id="a1_0010"  >
<polygon points="564,90 616,90 621,85 616,80 564,80 564,90 " style="fill:white; stroke-width:1; stroke:black; " description="&lt;b&gt;TMO_RS27270&lt;/b&gt;&lt;br&gt;YbfB/YjiJ family MFS transporter&lt;br&gt;Location: 826398 - 825151" locus_tag="TMO_RS27270" class="clusterblast-orf" id="dummy-1_h1_10_10"  />
</g>
<g id="a1_0011"  >
<polygon points="620,85 625,80 653,80 653,90 625,90 620,85 " style="fill:white; stroke-width:1; stroke:black; " description="&lt;b&gt;TMO_RS27265&lt;/b&gt;&lt;br&gt;hypothetical protein&lt;br&gt;Location: 825173 - 824451" locus_tag="TMO_RS27265" class="clusterblast-orf" id="dummy-1_h1_10_11"  />
</g>
<g id="a1_0012"  >
<polygon points="663,90 680,90 685,85 680,80 663,80 663,90 " style="fill:white; stroke-width:1; stroke:black; " description="&lt;b&gt;TMO_RS27260&lt;/b&gt;&lt;br&gt;hypothetical protein&lt;br&gt;Location: 824238 - 823750" locus_tag="TMO_RS27260" class="clusterblast-orf" id="dummy-1_h1_10_12"  />
</g>
<g id="a1_0013"  >
<polygon points="687,90 742,90 747,85 742,80 687,80 687,90 " style="fill:white; stroke-width:1; stroke:black; " description="&lt;b&gt;TMO_RS27255&lt;/b&gt;&lt;br&gt;GAF domain-containing protein&lt;br&gt;Location: 823726 - 822395" locus_tag="TMO_RS27255" class="clusterblast-orf" id="dummy-1_h1_10_13"  />
</g>
<g id="a1_0014"  >
<polygon points="748,85 753,80 768,80 768,90 753,90 748,85 " style="fill:white; stroke-width:1; stroke:black; " description="&lt;b&gt;TMO_RS27250&lt;/b&gt;&lt;br&gt;type II toxin-antitoxin system VapC family toxin&lt;br&gt;Location: 822381 - 821947" locus_tag="TMO_RS27250" class="clusterblast-orf" id="dummy-1_h1_10_14"  />
</g>
<g id="a1_0015"  >
<polygon points="768,85 773,80 780,80 780,90 773,90 768,85 " style="fill:white; stroke-width:1; stroke:black; " description="&lt;b&gt;TMO_RS27245&lt;/b&gt;&lt;br&gt;hypothetical protein&lt;br&gt;Location: 821950 - 821696" locus_tag="TMO_RS27245" class="clusterblast-orf" id="dummy-1_h1_10_15"  />
</g>
</svg>
