<svg xmlns="http://www.w3.org/2000/svg" xmlns:xlink="http://www.w3.org/1999/xlink" version="1.1" x="0" y="0" height="50" width="800" viewBox="0 0 800 50" preserveAspectRatio="none"  >
<g label="Query sequence" class="clusterblast-cluster"  >
<text x="5" y="20" class="clusterblast-acc"  >
Query sequence</text>
<line x1="10" y1="35" x2="778.0" y2="35" style="stroke-width:1; stroke:grey; "  />
<polygon points="0,40 228,40 233,35 228,30 0,30 0,40 " style="fill:white; stroke-width:1; stroke:black; " description="&lt;b&gt;MPBPDOGJ_00273&lt;/b&gt;&lt;br&gt;Penicillin-binding protein 1A&lt;br&gt;Location: 277095 - 279615" locus_tag="MPBPDOGJ_00273" class="clusterblast-orf" id="subclusterblast-1_q0_0_all"  />
<polygon points="240,40 339,40 344,35 339,30 240,30 240,40 " style="fill:white; stroke-width:1; stroke:black; " description="&lt;b&gt;MPBPDOGJ_00274&lt;/b&gt;&lt;br&gt;Peptide chain release factor RF2&lt;br&gt;Location: 279689 - 280817" locus_tag="MPBPDOGJ_00274" class="clusterblast-orf" id="subclusterblast-1_q1_0_all"  />
<polygon points="352,35 357,30 385,30 385,40 357,40 352,35 " style="fill:white; stroke-width:1; stroke:black; " description="&lt;b&gt;MPBPDOGJ_00275&lt;/b&gt;&lt;br&gt;2-iminobutanoate/2-iminopropanoate deaminase&lt;br&gt;Location: 280905 - 281256" locus_tag="MPBPDOGJ_00275" class="clusterblast-orf" id="subclusterblast-1_q2_0_all"  />
<polygon points="437,35 442,30 473,30 473,40 442,40 437,35 " style="fill:white; stroke-width:1; stroke:black; " description="&lt;b&gt;MPBPDOGJ_00276&lt;/b&gt;&lt;br&gt;L-ectoine synthase&lt;br&gt;Location: 281820 - 282207" locus_tag="MPBPDOGJ_00276" class="clusterblast-orf" id="subclusterblast-1_q3_0_all"  />
<polygon points="472,35 477,30 568,30 568,40 477,40 472,35 " style="fill:white; stroke-width:1; stroke:black; " description="&lt;b&gt;MPBPDOGJ_00277&lt;/b&gt;&lt;br&gt;Tryptophan--tRNA ligase&lt;br&gt;Location: 282203 - 283244" locus_tag="MPBPDOGJ_00277" class="clusterblast-orf" id="subclusterblast-1_q4_0_all"  />
<polygon points="575,40 634,40 639,35 634,30 575,30 575,40 " style="fill:white; stroke-width:1; stroke:black; " description="&lt;b&gt;MPBPDOGJ_00278&lt;/b&gt;&lt;br&gt;hypothetical protein&lt;br&gt;Location: 283319 - 284003" locus_tag="MPBPDOGJ_00278" class="clusterblast-orf" id="subclusterblast-1_q5_0_all"  />
<polygon points="638,35 643,30 780,30 780,40 643,40 638,35 " style="fill:white; stroke-width:1; stroke:black; " description="&lt;b&gt;MPBPDOGJ_00279&lt;/b&gt;&lt;br&gt;putative lipid II flippase MurJ&lt;br&gt;Location: 283993 - 285538" locus_tag="MPBPDOGJ_00279" class="clusterblast-orf" id="subclusterblast-1_q6_0_all"  />
</g>
</svg>
