<svg xmlns="http://www.w3.org/2000/svg" xmlns:xlink="http://www.w3.org/1999/xlink" version="1.1" x="0" y="0" height="230" width="800" viewBox="0 0 800 230" preserveAspectRatio="none"  >
<g label="Query sequence" class="clusterblast-cluster"  >
<text x="5" y="20" class="clusterblast-acc"  >
Query sequence</text>
<line x1="10" y1="35" x2="778.0" y2="35" style="stroke-width:1; stroke:grey; "  />
<polygon points="27,35 32,30 41,30 41,40 32,40 27,35 " style="fill:white; stroke-width:1; stroke:black; " description="&lt;b&gt;FDFPEOFN_00234&lt;/b&gt;&lt;br&gt;Cyclohexadienyl dehydrogenase&lt;br&gt;Location: 862 - 1777" locus_tag="FDFPEOFN_00234" class="clusterblast-orf" id="dummy-1_q0_0_all"  />
<polygon points="41,35 46,30 57,30 57,40 46,40 41,35 " style="fill:white; stroke-width:1; stroke:black; " description="&lt;b&gt;FDFPEOFN_00235&lt;/b&gt;&lt;br&gt;Histidinol-phosphate aminotransferase&lt;br&gt;Location: 1773 - 2862" locus_tag="FDFPEOFN_00235" class="clusterblast-orf" id="dummy-1_q1_0_all"  />
<polygon points="59,35 64,30 74,30 74,40 64,40 59,35 " style="fill:white; stroke-width:1; stroke:black; " description="&lt;b&gt;FDFPEOFN_00236&lt;/b&gt;&lt;br&gt;Pseudopaline exporter CntI&lt;br&gt;Location: 2983 - 3952" locus_tag="FDFPEOFN_00236" class="clusterblast-orf" id="dummy-1_q2_0_all"  />
<polygon points="75,35 80,30 86,30 86,40 80,40 75,35 " style="fill:white; stroke-width:1; stroke:black; " description="&lt;b&gt;FDFPEOFN_00237&lt;/b&gt;&lt;br&gt;tRNA-modifying protein YgfZ&lt;br&gt;Location: 4007 - 4760" locus_tag="FDFPEOFN_00237" class="clusterblast-orf" id="dummy-1_q3_0_all"  />
<polygon points="88,35 93,30 102,30 102,40 93,40 88,35 " style="fill:white; stroke-width:1; stroke:black; " description="&lt;b&gt;FDFPEOFN_00238&lt;/b&gt;&lt;br&gt;hypothetical protein&lt;br&gt;Location: 4877 - 5789" locus_tag="FDFPEOFN_00238" class="clusterblast-orf" id="dummy-1_q4_0_all"  />
<polygon points="106,35 111,30 112,30 112,40 111,40 106,35 " style="fill:white; stroke-width:1; stroke:black; " description="&lt;b&gt;FDFPEOFN_00239&lt;/b&gt;&lt;br&gt;hypothetical protein&lt;br&gt;Location: 6072 - 6462" locus_tag="FDFPEOFN_00239" class="clusterblast-orf" id="dummy-1_q5_0_all"  />
<polygon points="113,35 118,30 118,30 118,40 118,40 113,35 " style="fill:white; stroke-width:1; stroke:black; " description="&lt;b&gt;FDFPEOFN_00240&lt;/b&gt;&lt;br&gt;hypothetical protein&lt;br&gt;Location: 6511 - 6826" locus_tag="FDFPEOFN_00240" class="clusterblast-orf" id="dummy-1_q6_0_all"  />
<polygon points="119,40 120,40 125,35 120,30 119,30 119,40 " style="fill:white; stroke-width:1; stroke:black; " description="&lt;b&gt;FDFPEOFN_00241&lt;/b&gt;&lt;br&gt;hypothetical protein&lt;br&gt;Location: 6905 - 7289" locus_tag="FDFPEOFN_00241" class="clusterblast-orf" id="dummy-1_q7_0_all"  />
<polygon points="125,35 130,30 150,30 150,40 130,40 125,35 " style="fill:white; stroke-width:1; stroke:black; " description="&lt;b&gt;FDFPEOFN_00242&lt;/b&gt;&lt;br&gt;C4-dicarboxylic acid transporter DauA&lt;br&gt;Location: 7279 - 8929" locus_tag="FDFPEOFN_00242" class="clusterblast-orf" id="dummy-1_q8_0_all"  />
<polygon points="154,40 155,40 160,35 155,30 154,30 154,40 " style="fill:white; stroke-width:1; stroke:black; " description="&lt;b&gt;FDFPEOFN_00243&lt;/b&gt;&lt;br&gt;hypothetical protein&lt;br&gt;Location: 9169 - 9568" locus_tag="FDFPEOFN_00243" class="clusterblast-orf" id="dummy-1_q9_0_all"  />
<polygon points="161,40 178,40 183,35 178,30 161,30 161,40 " style="fill:#d81515; stroke-width:1; stroke:black; " description="&lt;b&gt;FDFPEOFN_00244&lt;/b&gt;&lt;br&gt;cytosol aminopeptidase&lt;br&gt;Location: 9658 - 11059" locus_tag="FDFPEOFN_00244" class="clusterblast-orf" id="dummy-1_q10_0_all"  />
<polygon points="183,40 190,40 195,35 190,30 183,30 183,40 " style="fill:#3cd815; stroke-width:1; stroke:black; " description="&lt;b&gt;FDFPEOFN_00245&lt;/b&gt;&lt;br&gt;hypothetical protein&lt;br&gt;Location: 11055 - 11883" locus_tag="FDFPEOFN_00245" class="clusterblast-orf" id="dummy-1_q11_0_all"  />
<polygon points="196,35 201,30 233,30 233,40 201,40 196,35 " style="fill:white; stroke-width:1; stroke:black; " description="&lt;b&gt;FDFPEOFN_00246&lt;/b&gt;&lt;br&gt;ATP-dependent RNA helicase HrpB&lt;br&gt;Location: 11922 - 14355" locus_tag="FDFPEOFN_00246" class="clusterblast-orf" id="dummy-1_q12_0_all"  />
<polygon points="235,40 255,40 260,35 255,30 235,30 235,40 " style="fill:white; stroke-width:1; stroke:black; " description="&lt;b&gt;FDFPEOFN_00247&lt;/b&gt;&lt;br&gt;3-(3-hydroxy-phenyl)propionate/3-hydroxycinnamic acid hydroxylase&lt;br&gt;Location: 14501 - 16124" locus_tag="FDFPEOFN_00247" class="clusterblast-orf" id="dummy-1_q13_0_all"  />
<polygon points="260,40 263,35 260,30 260,40 " style="fill:white; stroke-width:1; stroke:black; " description="&lt;b&gt;FDFPEOFN_00248&lt;/b&gt;&lt;br&gt;hypothetical protein&lt;br&gt;Location: 16116 - 16320" locus_tag="FDFPEOFN_00248" class="clusterblast-orf" id="dummy-1_q14_0_all"  />
<polygon points="265,40 274,40 279,35 274,30 265,30 265,40 " style="fill:#1563d8; stroke-width:1; stroke:black; " description="&lt;b&gt;FDFPEOFN_00249&lt;/b&gt;&lt;br&gt;hypothetical protein&lt;br&gt;Location: 16473 - 17364" locus_tag="FDFPEOFN_00249" class="clusterblast-orf" id="dummy-1_q15_0_all"  />
<polygon points="279,40 295,40 300,35 295,30 279,30 279,40 " style="fill:#b115d8; stroke-width:1; stroke:black; " description="&lt;b&gt;FDFPEOFN_00250&lt;/b&gt;&lt;br&gt;hypothetical protein&lt;br&gt;Location: 17379 - 18744" locus_tag="FDFPEOFN_00250" class="clusterblast-orf" id="dummy-1_q16_0_all"  />
<polygon points="300,40 318,40 323,35 318,30 300,30 300,40 " style="fill:#d88a15; stroke-width:1; stroke:black; " description="&lt;b&gt;FDFPEOFN_00251&lt;/b&gt;&lt;br&gt;hypothetical protein&lt;br&gt;Location: 18754 - 20263" locus_tag="FDFPEOFN_00251" class="clusterblast-orf" id="dummy-1_q17_0_all"  />
<polygon points="323,40 415,40 420,35 415,30 323,30 323,40 " style="fill:#15d863; stroke-width:1; stroke:black; " description="&lt;b&gt;FDFPEOFN_00252&lt;/b&gt;&lt;br&gt;hypothetical protein&lt;br&gt;Location: 20259 - 26601" locus_tag="FDFPEOFN_00252" class="clusterblast-orf" id="dummy-1_q18_0_all"  />
<polygon points="420,40 429,40 434,35 429,30 420,30 420,40 " style="fill:white; stroke-width:1; stroke:black; " description="&lt;b&gt;FDFPEOFN_00253&lt;/b&gt;&lt;br&gt;hypothetical protein&lt;br&gt;Location: 26597 - 27521" locus_tag="FDFPEOFN_00253" class="clusterblast-orf" id="dummy-1_q19_0_all"  />
<polygon points="434,40 444,40 449,35 444,30 434,30 434,40 " style="fill:#3c15d8; stroke-width:1; stroke:black; " description="&lt;b&gt;FDFPEOFN_00254&lt;/b&gt;&lt;br&gt;hypothetical protein&lt;br&gt;Location: 27517 - 28504" locus_tag="FDFPEOFN_00254" class="clusterblast-orf" id="dummy-1_q20_0_all"  />
<polygon points="449,40 513,40 518,35 513,30 449,30 449,40 " style="fill:#d8158a; stroke-width:1; stroke:black; " description="&lt;b&gt;FDFPEOFN_00255&lt;/b&gt;&lt;br&gt;D-alanine--D-alanyl carrier protein ligase&lt;br&gt;Location: 28513 - 33043" locus_tag="FDFPEOFN_00255" class="clusterblast-orf" id="dummy-1_q21_0_all"  />
<polygon points="518,40 524,40 529,35 524,30 518,30 518,40 " style="fill:#b1d815; stroke-width:1; stroke:black; " description="&lt;b&gt;FDFPEOFN_00256&lt;/b&gt;&lt;br&gt;hypothetical protein&lt;br&gt;Location: 33039 - 33741" locus_tag="FDFPEOFN_00256" class="clusterblast-orf" id="dummy-1_q22_0_all"  />
<polygon points="532,40 532,40 537,35 532,30 532,30 532,40 " style="fill:white; stroke-width:1; stroke:black; " description="&lt;b&gt;FDFPEOFN_00257&lt;/b&gt;&lt;br&gt;hypothetical protein&lt;br&gt;Location: 33951 - 34263" locus_tag="FDFPEOFN_00257" class="clusterblast-orf" id="dummy-1_q23_0_all"  />
<polygon points="538,35 543,30 561,30 561,40 543,40 538,35 " style="fill:white; stroke-width:1; stroke:black; " description="&lt;b&gt;FDFPEOFN_00258&lt;/b&gt;&lt;br&gt;hypothetical protein&lt;br&gt;Location: 34329 - 35823" locus_tag="FDFPEOFN_00258" class="clusterblast-orf" id="dummy-1_q24_0_all"  />
<polygon points="563,40 579,40 584,35 579,30 563,30 563,40 " style="fill:white; stroke-width:1; stroke:black; " description="&lt;b&gt;FDFPEOFN_00259&lt;/b&gt;&lt;br&gt;Trigger factor&lt;br&gt;Location: 36011 - 37352" locus_tag="FDFPEOFN_00259" class="clusterblast-orf" id="dummy-1_q25_0_all"  />
<polygon points="586,35 591,30 600,30 600,40 591,40 586,35 " style="fill:white; stroke-width:1; stroke:black; " description="&lt;b&gt;FDFPEOFN_00260&lt;/b&gt;&lt;br&gt;hypothetical protein&lt;br&gt;Location: 37471 - 38425" locus_tag="FDFPEOFN_00260" class="clusterblast-orf" id="dummy-1_q26_0_all"  />
<polygon points="604,40 608,35 604,30 604,40 " style="fill:#15d8d8; stroke-width:1; stroke:black; " description="&lt;b&gt;FDFPEOFN_00261&lt;/b&gt;&lt;br&gt;30S ribosomal protein S15&lt;br&gt;Location: 38675 - 38945" locus_tag="FDFPEOFN_00261" class="clusterblast-orf" id="dummy-1_q27_0_all"  />
<polygon points="611,40 621,40 626,35 621,30 611,30 611,40 " style="fill:white; stroke-width:1; stroke:black; " description="&lt;b&gt;FDFPEOFN_00262&lt;/b&gt;&lt;br&gt;putative GTPase&lt;br&gt;Location: 39110 - 40133" locus_tag="FDFPEOFN_00262" class="clusterblast-orf" id="dummy-1_q28_0_all"  />
<polygon points="628,40 632,35 628,30 628,40 " style="fill:white; stroke-width:1; stroke:black; " description="&lt;b&gt;FDFPEOFN_00263&lt;/b&gt;&lt;br&gt;50S ribosomal protein L28&lt;br&gt;Location: 40228 - 40516" locus_tag="FDFPEOFN_00263" class="clusterblast-orf" id="dummy-1_q29_0_all"  />
<polygon points="637,40 654,40 659,35 654,30 637,30 637,40 " style="fill:white; stroke-width:1; stroke:black; " description="&lt;b&gt;FDFPEOFN_00265&lt;/b&gt;&lt;br&gt;Cobyric acid synthase&lt;br&gt;Location: 40836 - 42303" locus_tag="FDFPEOFN_00265" class="clusterblast-orf" id="dummy-1_q30_0_all"  />
<polygon points="659,35 664,30 674,30 674,40 664,40 659,35 " style="fill:white; stroke-width:1; stroke:black; " description="&lt;b&gt;FDFPEOFN_00266&lt;/b&gt;&lt;br&gt;Histidinol-phosphate aminotransferase&lt;br&gt;Location: 42299 - 43268" locus_tag="FDFPEOFN_00266" class="clusterblast-orf" id="dummy-1_q31_0_all"  />
<polygon points="674,35 679,30 688,30 688,40 679,40 674,35 " style="fill:white; stroke-width:1; stroke:black; " description="&lt;b&gt;FDFPEOFN_00267&lt;/b&gt;&lt;br&gt;Cobalamin biosynthesis protein CobD&lt;br&gt;Location: 43271 - 44198" locus_tag="FDFPEOFN_00267" class="clusterblast-orf" id="dummy-1_q32_0_all"  />
<polygon points="688,35 693,30 701,30 701,40 693,40 688,35 " style="fill:white; stroke-width:1; stroke:black; " description="&lt;b&gt;FDFPEOFN_00268&lt;/b&gt;&lt;br&gt;hypothetical protein&lt;br&gt;Location: 44209 - 45004" locus_tag="FDFPEOFN_00268" class="clusterblast-orf" id="dummy-1_q33_0_all"  />
<polygon points="701,35 706,30 710,30 710,40 706,40 701,35 " style="fill:white; stroke-width:1; stroke:black; " description="&lt;b&gt;FDFPEOFN_00269&lt;/b&gt;&lt;br&gt;hypothetical protein&lt;br&gt;Location: 45000 - 45609" locus_tag="FDFPEOFN_00269" class="clusterblast-orf" id="dummy-1_q34_0_all"  />
<polygon points="710,40 713,40 718,35 713,30 710,30 710,40 " style="fill:white; stroke-width:1; stroke:black; " description="&lt;b&gt;FDFPEOFN_00270&lt;/b&gt;&lt;br&gt;Bifunctional adenosylcobalamin biosynthesis protein CobP&lt;br&gt;Location: 45629 - 46136" locus_tag="FDFPEOFN_00270" class="clusterblast-orf" id="dummy-1_q35_0_all"  />
<polygon points="718,40 728,40 733,35 728,30 718,30 718,40 " style="fill:white; stroke-width:1; stroke:black; " description="&lt;b&gt;FDFPEOFN_00271&lt;/b&gt;&lt;br&gt;Nicotinate-nucleotide--dimethylbenzimidazole phosphoribosyltransferase&lt;br&gt;Location: 46132 - 47155" locus_tag="FDFPEOFN_00271" class="clusterblast-orf" id="dummy-1_q36_0_all"  />
<polygon points="734,40 740,40 745,35 740,30 734,30 734,40 " style="fill:white; stroke-width:1; stroke:black; " description="&lt;b&gt;FDFPEOFN_00272&lt;/b&gt;&lt;br&gt;Adenosylcobinamide-GDP ribazoletransferase&lt;br&gt;Location: 47160 - 47904" locus_tag="FDFPEOFN_00272" class="clusterblast-orf" id="dummy-1_q37_0_all"  />
<polygon points="746,35 751,30 752,30 752,40 751,40 746,35 " style="fill:white; stroke-width:1; stroke:black; " description="&lt;b&gt;FDFPEOFN_00273&lt;/b&gt;&lt;br&gt;hypothetical protein&lt;br&gt;Location: 47988 - 48393" locus_tag="FDFPEOFN_00273" class="clusterblast-orf" id="dummy-1_q38_0_all"  />
</g>
<g label="NZ_VKKX01000033" description="NZ_VKKX01000033 (377101-428527): Gemmobacter caeruleus strain N8 NODE 3, whol... (23% of genes show similarity), NRPS-like,T1PKS" class="clusterblast-cluster"  >
<text x="5" y="70" class="clusterblast-acc"  >
<a xlink:href="https://antismash-db.secondarymetabolites.org/area.html?record=NZ_VKKX01000033&amp;start=377101&amp;end=428527" target="_blank">NZ_VKKX01000033 (377101-428527)</a>: Gemmobacter caeruleus strain N8 NODE 3, whol... (23% of genes show similarity), NRPS-like,T1PKS</text>
<line x1="10" y1="85" x2="778.0" y2="85" style="stroke-width:1; stroke:grey; "  />
</g>
<g id="a1_000"  >
<polygon points="0,85 5,80 15,80 15,90 5,90 0,85 " style="fill:white; stroke-width:1; stroke:black; " description="&lt;b&gt;FOA17_RS12515&lt;/b&gt;&lt;br&gt;hypothetical protein&lt;br&gt;Location: 377418 - 378452" locus_tag="FOA17_RS12515" class="clusterblast-orf" id="dummy-1_h1_3_0"  />
</g>
<g id="a1_001"  >
<polygon points="17,90 25,90 30,85 25,80 17,80 17,90 " style="fill:white; stroke-width:1; stroke:black; " description="&lt;b&gt;FOA17_RS12520&lt;/b&gt;&lt;br&gt;phosphoserine phosphatase SerB&lt;br&gt;Location: 378568 - 379443" locus_tag="FOA17_RS12520" class="clusterblast-orf" id="dummy-1_h1_3_1"  />
</g>
<g id="a1_002"  >
<polygon points="30,90 33,90 38,85 33,80 30,80 30,90 " style="fill:white; stroke-width:1; stroke:black; " description="&lt;b&gt;FOA17_RS12525&lt;/b&gt;&lt;br&gt;GNAT family N-acetyltransferase&lt;br&gt;Location: 379440 - 379919" locus_tag="FOA17_RS12525" class="clusterblast-orf" id="dummy-1_h1_3_2"  />
</g>
<g id="a1_003"  >
<polygon points="38,90 44,90 49,85 44,80 38,80 38,90 " style="fill:white; stroke-width:1; stroke:black; " description="&lt;b&gt;FOA17_RS12530&lt;/b&gt;&lt;br&gt;TSUP family transporter&lt;br&gt;Location: 379919 - 380677" locus_tag="FOA17_RS12530" class="clusterblast-orf" id="dummy-1_h1_3_3"  />
</g>
<g id="a1_004"  >
<polygon points="50,90 59,90 64,85 59,80 50,80 50,90 " style="fill:white; stroke-width:1; stroke:black; " description="&lt;b&gt;FOA17_RS12535&lt;/b&gt;&lt;br&gt;hypothetical protein&lt;br&gt;Location: 380749 - 381666" locus_tag="FOA17_RS12535" class="clusterblast-orf" id="dummy-1_h1_3_4"  />
</g>
<g id="a1_005"  >
<polygon points="65,90 97,90 102,85 97,80 65,80 65,90 " style="fill:white; stroke-width:1; stroke:black; " description="&lt;b&gt;FOA17_RS12540&lt;/b&gt;&lt;br&gt;hypothetical protein&lt;br&gt;Location: 381679 - 384114" locus_tag="FOA17_RS12540" class="clusterblast-orf" id="dummy-1_h1_3_5"  />
</g>
<g id="a1_006"  >
<polygon points="102,90 109,90 114,85 109,80 102,80 102,90 " style="fill:white; stroke-width:1; stroke:black; " description="&lt;b&gt;FOA17_RS12545&lt;/b&gt;&lt;br&gt;glycosyltransferase&lt;br&gt;Location: 384108 - 384932" locus_tag="FOA17_RS12545" class="clusterblast-orf" id="dummy-1_h1_3_6"  />
</g>
<g id="a1_007"  >
<polygon points="116,85 121,80 127,80 127,90 121,90 116,85 " style="fill:white; stroke-width:1; stroke:black; " description="&lt;b&gt;FOA17_RS12550&lt;/b&gt;&lt;br&gt;hypothetical protein&lt;br&gt;Location: 385027 - 385803" locus_tag="FOA17_RS12550" class="clusterblast-orf" id="dummy-1_h1_3_7"  />
</g>
<g id="a1_008"  >
<polygon points="127,85 132,80 146,80 146,90 132,90 127,85 " style="fill:white; stroke-width:1; stroke:black; " description="&lt;b&gt;FOA17_RS12555&lt;/b&gt;&lt;br&gt;glycosyltransferase&lt;br&gt;Location: 385803 - 386993" locus_tag="FOA17_RS12555" class="clusterblast-orf" id="dummy-1_h1_3_8"  />
</g>
<g id="a1_009"  >
<polygon points="147,90 163,90 168,85 163,80 147,80 147,90 " style="fill:white; stroke-width:1; stroke:black; " description="&lt;b&gt;FOA17_RS12560&lt;/b&gt;&lt;br&gt;oligosaccharide flippase family protein&lt;br&gt;Location: 387108 - 388442" locus_tag="FOA17_RS12560" class="clusterblast-orf" id="dummy-1_h1_3_9"  />
</g>
<g id="a1_0010"  >
<polygon points="170,90 173,85 170,80 170,90 " style="fill:white; stroke-width:1; stroke:black; " description="&lt;b&gt;FOA17_RS12565&lt;/b&gt;&lt;br&gt;hypothetical protein&lt;br&gt;Location: 388580 - 388783" locus_tag="FOA17_RS12565" class="clusterblast-orf" id="dummy-1_h1_3_10"  />
</g>
<g id="a1_0011"  >
<polygon points="181,90 186,90 191,85 186,80 181,80 181,90 " style="fill:white; stroke-width:1; stroke:black; " description="&lt;b&gt;FOA17_RS12570&lt;/b&gt;&lt;br&gt;sugar transferase&lt;br&gt;Location: 389298 - 389948" locus_tag="FOA17_RS12570" class="clusterblast-orf" id="dummy-1_h1_3_11"  />
</g>
<g id="a1_0012"  >
<polygon points="192,85 197,80 211,80 211,90 197,90 192,85 " style="fill:#b115d8; stroke-width:1; stroke:black; " description="&lt;b&gt;FOA17_RS12575&lt;/b&gt;&lt;br&gt;DUF874 domain-containing protein&lt;br&gt;Location: 390018 - 391289&lt;br&gt;&lt;br&gt;&lt;b&gt;BlastP hit with FDFPEOFN_00250&lt;/b&gt;&lt;br&gt;Percentage identity: 31&lt;br&gt;Percentage coverage: 99&lt;br&gt;BLAST bit score: 163&lt;br&gt;E-value: 1.88e-43" locus_tag="FOA17_RS12575" class="clusterblast-orf" id="dummy-1_h1_3_12"  />
</g>
<g id="a1_0013"  >
<polygon points="211,85 216,80 225,80 225,90 216,90 211,85 " style="fill:#1563d8; stroke-width:1; stroke:black; " description="&lt;b&gt;FOA17_RS12580&lt;/b&gt;&lt;br&gt;P-loop NTPase&lt;br&gt;Location: 391296 - 392177&lt;br&gt;&lt;br&gt;&lt;b&gt;BlastP hit with FDFPEOFN_00249&lt;/b&gt;&lt;br&gt;Percentage identity: 34&lt;br&gt;Percentage coverage: 76&lt;br&gt;BLAST bit score: 120&lt;br&gt;E-value: 3.62e-30" locus_tag="FOA17_RS12580" class="clusterblast-orf" id="dummy-1_h1_3_13"  />
</g>
<g id="a1_0014"  >
<polygon points="230,90 240,90 245,85 240,80 230,80 230,90 " style="fill:white; stroke-width:1; stroke:black; " description="&lt;b&gt;FOA17_RS12585&lt;/b&gt;&lt;br&gt;glycosyltransferase&lt;br&gt;Location: 392527 - 393483" locus_tag="FOA17_RS12585" class="clusterblast-orf" id="dummy-1_h1_3_14"  />
</g>
<g id="a1_0015"  >
<polygon points="245,85 250,80 256,80 256,90 250,90 245,85 " style="fill:white; stroke-width:1; stroke:black; " description="&lt;b&gt;FOA17_RS12590&lt;/b&gt;&lt;br&gt;WecB/TagA/CpsF family glycosyltransferase&lt;br&gt;Location: 393497 - 394246" locus_tag="FOA17_RS12590" class="clusterblast-orf" id="dummy-1_h1_3_15"  />
</g>
<g id="a1_0016"  >
<polygon points="261,90 277,90 282,85 277,80 261,80 261,90 " style="fill:#d88a15; stroke-width:1; stroke:black; " description="&lt;b&gt;FOA17_RS12595&lt;/b&gt;&lt;br&gt;hypothetical protein&lt;br&gt;Location: 394527 - 395909&lt;br&gt;&lt;br&gt;&lt;b&gt;BlastP hit with FDFPEOFN_00251&lt;/b&gt;&lt;br&gt;Percentage identity: 46&lt;br&gt;Percentage coverage: 90&lt;br&gt;BLAST bit score: 391&lt;br&gt;E-value: 2.91e-130" locus_tag="FOA17_RS12595" class="clusterblast-orf" id="dummy-1_h1_3_16"  />
</g>
<g id="a1_0017"  >
<polygon points="282,90 292,90 297,85 292,80 282,80 282,90 " style="fill:white; stroke-width:1; stroke:black; " description="&lt;b&gt;FOA17_RS12600&lt;/b&gt;&lt;br&gt;glycosyltransferase&lt;br&gt;Location: 395919 - 396908" locus_tag="FOA17_RS12600" class="clusterblast-orf" id="dummy-1_h1_3_17"  />
</g>
<g id="a1_0018"  >
<polygon points="300,90 392,90 397,85 392,80 300,80 300,90 " style="fill:#15d863; stroke-width:1; stroke:black; " description="&lt;b&gt;FOA17_RS12605&lt;/b&gt;&lt;br&gt;KR domain-containing protein&lt;br&gt;Location: 397102 - 403491&lt;br&gt;&lt;br&gt;&lt;b&gt;BlastP hit with FDFPEOFN_00252&lt;/b&gt;&lt;br&gt;Percentage identity: 64&lt;br&gt;Percentage coverage: 101&lt;br&gt;BLAST bit score: 2571&lt;br&gt;E-value: 0.0" locus_tag="FOA17_RS12605" class="clusterblast-orf" id="dummy-1_h1_3_18"  />
</g>
<g id="a1_0019"  >
<polygon points="397,90 408,90 413,85 408,80 397,80 397,90 " style="fill:#3c15d8; stroke-width:1; stroke:black; " description="&lt;b&gt;FOA17_RS12610&lt;/b&gt;&lt;br&gt;glycosyltransferase&lt;br&gt;Location: 403488 - 404492&lt;br&gt;&lt;br&gt;&lt;b&gt;BlastP hit with FDFPEOFN_00254&lt;/b&gt;&lt;br&gt;Percentage identity: 60&lt;br&gt;Percentage coverage: 96&lt;br&gt;BLAST bit score: 356&lt;br&gt;E-value: 3.9e-121" locus_tag="FOA17_RS12610" class="clusterblast-orf" id="dummy-1_h1_3_19"  />
</g>
<g id="a1_0020"  >
<polygon points="413,90 477,90 482,85 477,80 413,80 413,90 " style="fill:#d8158a; stroke-width:1; stroke:black; " description="&lt;b&gt;FOA17_RS12615&lt;/b&gt;&lt;br&gt;LLM class flavin-dependent oxidoreductase&lt;br&gt;Location: 404529 - 409043&lt;br&gt;&lt;br&gt;&lt;b&gt;BlastP hit with FDFPEOFN_00255&lt;/b&gt;&lt;br&gt;Percentage identity: 56&lt;br&gt;Percentage coverage: 101&lt;br&gt;BLAST bit score: 1575&lt;br&gt;E-value: 0.0" locus_tag="FOA17_RS12615" class="clusterblast-orf" id="dummy-1_h1_3_20"  />
</g>
<g id="a1_0021"  >
<polygon points="482,90 487,90 492,85 487,80 482,80 482,90 " style="fill:#b1d815; stroke-width:1; stroke:black; " description="&lt;b&gt;FOA17_RS12620&lt;/b&gt;&lt;br&gt;4'-phosphopantetheinyl transferase superfamily protein&lt;br&gt;Location: 409036 - 409662&lt;br&gt;&lt;br&gt;&lt;b&gt;BlastP hit with FDFPEOFN_00256&lt;/b&gt;&lt;br&gt;Percentage identity: 42&lt;br&gt;Percentage coverage: 92&lt;br&gt;BLAST bit score: 152&lt;br&gt;E-value: 4.81e-44" locus_tag="FOA17_RS12620" class="clusterblast-orf" id="dummy-1_h1_3_21"  />
</g>
<g id="a1_0022"  >
<polygon points="492,90 504,90 509,85 504,80 492,80 492,90 " style="fill:white; stroke-width:1; stroke:black; " description="&lt;b&gt;FOA17_RS12625&lt;/b&gt;&lt;br&gt;cell division protein ZapE&lt;br&gt;Location: 409699 - 410778" locus_tag="FOA17_RS12625" class="clusterblast-orf" id="dummy-1_h1_3_22"  />
</g>
<g id="a1_0023"  >
<polygon points="510,90 529,90 534,85 529,80 510,80 510,90 " style="fill:white; stroke-width:1; stroke:black; " description="&lt;b&gt;FOA17_RS12630&lt;/b&gt;&lt;br&gt;mucoidy inhibitor MuiA family protein&lt;br&gt;Location: 410838 - 412448" locus_tag="FOA17_RS12630" class="clusterblast-orf" id="dummy-1_h1_3_23"  />
</g>
<g id="a1_0024"  >
<polygon points="534,85 539,80 544,80 544,90 539,90 534,85 " style="fill:white; stroke-width:1; stroke:black; " description="&lt;b&gt;FOA17_RS12635&lt;/b&gt;&lt;br&gt;carbonic anhydrase&lt;br&gt;Location: 412458 - 413105" locus_tag="FOA17_RS12635" class="clusterblast-orf" id="dummy-1_h1_3_24"  />
</g>
<g id="a1_0025"  >
<polygon points="546,90 547,90 552,85 547,80 546,80 546,90 " style="fill:white; stroke-width:1; stroke:black; " description="&lt;b&gt;FOA17_RS12640&lt;/b&gt;&lt;br&gt;hypothetical protein&lt;br&gt;Location: 413245 - 413625" locus_tag="FOA17_RS12640" class="clusterblast-orf" id="dummy-1_h1_3_25"  />
</g>
<g id="a1_0026"  >
<polygon points="553,90 569,90 574,85 569,80 553,80 553,90 " style="fill:#d81515; stroke-width:1; stroke:black; " description="&lt;b&gt;FOA17_RS12645&lt;/b&gt;&lt;br&gt;leucyl aminopeptidase family protein&lt;br&gt;Location: 413682 - 415058&lt;br&gt;&lt;br&gt;&lt;b&gt;BlastP hit with FDFPEOFN_00244&lt;/b&gt;&lt;br&gt;Percentage identity: 59&lt;br&gt;Percentage coverage: 98&lt;br&gt;BLAST bit score: 491&lt;br&gt;E-value: 3.72e-170" locus_tag="FOA17_RS12645" class="clusterblast-orf" id="dummy-1_h1_3_26"  />
</g>
<g id="a1_0027"  >
<polygon points="574,90 582,90 587,85 582,80 574,80 574,90 " style="fill:#3cd815; stroke-width:1; stroke:black; " description="&lt;b&gt;FOA17_RS12650&lt;/b&gt;&lt;br&gt;NlpC/P60 family protein&lt;br&gt;Location: 415061 - 415885&lt;br&gt;&lt;br&gt;&lt;b&gt;BlastP hit with FDFPEOFN_00245&lt;/b&gt;&lt;br&gt;Percentage identity: 50&lt;br&gt;Percentage coverage: 100&lt;br&gt;BLAST bit score: 248&lt;br&gt;E-value: 4.14e-80" locus_tag="FOA17_RS12650" class="clusterblast-orf" id="dummy-1_h1_3_27"  />
</g>
<g id="a1_0028"  >
<polygon points="588,90 594,90 599,85 594,80 588,80 588,90 " style="fill:white; stroke-width:1; stroke:black; " description="&lt;b&gt;FOA17_RS12655&lt;/b&gt;&lt;br&gt;NAD(P)-binding domain-containing protein&lt;br&gt;Location: 415960 - 416721" locus_tag="FOA17_RS12655" class="clusterblast-orf" id="dummy-1_h1_3_28"  />
</g>
<g id="a1_0029"  >
<polygon points="600,85 605,80 652,80 652,90 605,90 600,85 " style="fill:white; stroke-width:1; stroke:black; " description="&lt;b&gt;FOA17_RS12660&lt;/b&gt;&lt;br&gt;bifunctional proline dehydrogenase/L-glutamate gamma-semialdehyde dehydrogenase PutA&lt;br&gt;Location: 416740 - 420144" locus_tag="FOA17_RS12660" class="clusterblast-orf" id="dummy-1_h1_3_29"  />
</g>
<g id="a1_0030"  >
<polygon points="653,90 655,90 660,85 655,80 653,80 653,90 " style="fill:white; stroke-width:1; stroke:black; " description="&lt;b&gt;FOA17_RS12665&lt;/b&gt;&lt;br&gt;winged helix-turn-helix transcriptional regulator&lt;br&gt;Location: 420255 - 420719" locus_tag="FOA17_RS12665" class="clusterblast-orf" id="dummy-1_h1_3_30"  />
</g>
<g id="a1_0031"  >
<polygon points="662,90 669,90 674,85 669,80 662,80 662,90 " style="fill:white; stroke-width:1; stroke:black; " description="&lt;b&gt;FOA17_RS12670&lt;/b&gt;&lt;br&gt;trehalose utilization protein ThuA&lt;br&gt;Location: 420839 - 421624" locus_tag="FOA17_RS12670" class="clusterblast-orf" id="dummy-1_h1_3_31"  />
</g>
<g id="a1_0032"  >
<polygon points="674,90 685,90 690,85 685,80 674,80 674,90 " style="fill:white; stroke-width:1; stroke:black; " description="&lt;b&gt;FOA17_RS12675&lt;/b&gt;&lt;br&gt;Gfo/Idh/MocA family oxidoreductase&lt;br&gt;Location: 421627 - 422673" locus_tag="FOA17_RS12675" class="clusterblast-orf" id="dummy-1_h1_3_32"  />
</g>
<g id="a1_0033"  >
<polygon points="690,90 703,90 708,85 703,80 690,80 690,90 " style="fill:white; stroke-width:1; stroke:black; " description="&lt;b&gt;FOA17_RS12680&lt;/b&gt;&lt;br&gt;Gfo/Idh/MocA family oxidoreductase&lt;br&gt;Location: 422687 - 423835" locus_tag="FOA17_RS12680" class="clusterblast-orf" id="dummy-1_h1_3_33"  />
</g>
<g id="a1_0034"  >
<polygon points="708,85 713,80 719,80 719,90 713,90 708,85 " style="fill:white; stroke-width:1; stroke:black; " description="&lt;b&gt;FOA17_RS12685&lt;/b&gt;&lt;br&gt;RES domain-containing protein&lt;br&gt;Location: 423844 - 424536" locus_tag="FOA17_RS12685" class="clusterblast-orf" id="dummy-1_h1_3_34"  />
</g>
<g id="a1_0035"  >
<polygon points="719,85 724,80 724,80 724,90 724,90 719,85 " style="fill:white; stroke-width:1; stroke:black; " description="&lt;b&gt;FOA17_RS12690&lt;/b&gt;&lt;br&gt;DUF2384 domain-containing protein&lt;br&gt;Location: 424533 - 424922" locus_tag="FOA17_RS12690" class="clusterblast-orf" id="dummy-1_h1_3_35"  />
</g>
<g id="a1_0036"  >
<polygon points="725,85 730,80 766,80 766,90 730,90 725,85 " style="fill:white; stroke-width:1; stroke:black; " description="&lt;b&gt;FOA17_RS12695&lt;/b&gt;&lt;br&gt;calcium-binding protein&lt;br&gt;Location: 424984 - 427650" locus_tag="FOA17_RS12695" class="clusterblast-orf" id="dummy-1_h1_3_36"  />
</g>
<g id="a1_0037"  >
<polygon points="768,85 773,80 780,80 780,90 773,90 768,85 " style="fill:white; stroke-width:1; stroke:black; " description="&lt;b&gt;FOA17_RS12700&lt;/b&gt;&lt;br&gt;helix-turn-helix domain-containing protein&lt;br&gt;Location: 427742 - 428527" locus_tag="FOA17_RS12700" class="clusterblast-orf" id="dummy-1_h1_3_37"  />
</g>
</svg>
