<svg xmlns="http://www.w3.org/2000/svg" xmlns:xlink="http://www.w3.org/1999/xlink" version="1.1" x="0" y="0" height="230" width="800" viewBox="0 0 800 230" preserveAspectRatio="none"  >
<g label="Query sequence" class="clusterblast-cluster"  >
<text x="5" y="20" class="clusterblast-acc"  >
Query sequence</text>
<line x1="10" y1="35" x2="778.0" y2="35" style="stroke-width:1; stroke:grey; "  />
<polygon points="0,40 53,40 58,35 53,30 0,30 0,40 " style="fill:white; stroke-width:1; stroke:black; " description="&lt;b&gt;FDFPEOFN_00773&lt;/b&gt;&lt;br&gt;Protein-L-isoaspartate O-methyltransferase&lt;br&gt;Location: 323700 - 324357" locus_tag="FDFPEOFN_00773" class="clusterblast-orf" id="dummy-1_q0_0_all"  />
<polygon points="62,40 156,40 161,35 156,30 62,30 62,40 " style="fill:white; stroke-width:1; stroke:black; " description="&lt;b&gt;FDFPEOFN_00774&lt;/b&gt;&lt;br&gt;hypothetical protein&lt;br&gt;Location: 324410 - 325550" locus_tag="FDFPEOFN_00774" class="clusterblast-orf" id="dummy-1_q1_0_all"  />
<polygon points="162,35 167,30 204,30 204,40 167,40 162,35 " style="fill:white; stroke-width:1; stroke:black; " description="&lt;b&gt;FDFPEOFN_00775&lt;/b&gt;&lt;br&gt;Transcriptional regulator SlyA&lt;br&gt;Location: 325560 - 326046" locus_tag="FDFPEOFN_00775" class="clusterblast-orf" id="dummy-1_q2_0_all"  />
<polygon points="227,40 269,40 274,35 269,30 227,30 227,40 " style="fill:#d81515; stroke-width:1; stroke:black; " description="&lt;b&gt;FDFPEOFN_00776&lt;/b&gt;&lt;br&gt;L-2,4-diaminobutyric acid acetyltransferase&lt;br&gt;Location: 326307 - 326850" locus_tag="FDFPEOFN_00776" class="clusterblast-orf" id="dummy-1_q3_0_all"  />
<polygon points="280,40 387,40 392,35 387,30 280,30 280,40 " style="fill:#77d815; stroke-width:1; stroke:black; " description="&lt;b&gt;FDFPEOFN_00777&lt;/b&gt;&lt;br&gt;Diaminobutyrate--2-oxoglutarate transaminase&lt;br&gt;Location: 326918 - 328199" locus_tag="FDFPEOFN_00777" class="clusterblast-orf" id="dummy-1_q4_0_all"  />
<polygon points="392,40 421,40 426,35 421,30 392,30 392,40 " style="fill:#15d8d8; stroke-width:1; stroke:black; " description="&lt;b&gt;FDFPEOFN_00778&lt;/b&gt;&lt;br&gt;L-ectoine synthase&lt;br&gt;Location: 328204 - 328591" locus_tag="FDFPEOFN_00778" class="clusterblast-orf" id="dummy-1_q5_0_all"  />
<polygon points="429,40 549,40 554,35 549,30 429,30 429,40 " style="fill:#7715d8; stroke-width:1; stroke:black; " description="&lt;b&gt;FDFPEOFN_00779&lt;/b&gt;&lt;br&gt;Aspartate kinase Ask Ect&lt;br&gt;Location: 328633 - 330064" locus_tag="FDFPEOFN_00779" class="clusterblast-orf" id="dummy-1_q6_0_all"  />
<polygon points="556,40 600,40 605,35 600,30 556,30 556,40 " style="fill:white; stroke-width:1; stroke:black; " description="&lt;b&gt;FDFPEOFN_00780&lt;/b&gt;&lt;br&gt;hypothetical protein&lt;br&gt;Location: 330094 - 330652" locus_tag="FDFPEOFN_00780" class="clusterblast-orf" id="dummy-1_q7_0_all"  />
<polygon points="605,35 610,30 625,30 625,40 610,40 605,35 " style="fill:white; stroke-width:1; stroke:black; " description="&lt;b&gt;FDFPEOFN_00781&lt;/b&gt;&lt;br&gt;hypothetical protein&lt;br&gt;Location: 330648 - 330882" locus_tag="FDFPEOFN_00781" class="clusterblast-orf" id="dummy-1_q8_0_all"  />
<polygon points="631,35 636,30 672,30 672,40 636,40 631,35 " style="fill:white; stroke-width:1; stroke:black; " description="&lt;b&gt;FDFPEOFN_00782&lt;/b&gt;&lt;br&gt;Putative pre-16S rRNA nuclease&lt;br&gt;Location: 330947 - 331427" locus_tag="FDFPEOFN_00782" class="clusterblast-orf" id="dummy-1_q9_0_all"  />
<polygon points="672,35 677,30 780,30 780,40 677,40 672,35 " style="fill:white; stroke-width:1; stroke:black; " description="&lt;b&gt;FDFPEOFN_00783&lt;/b&gt;&lt;br&gt;hypothetical protein&lt;br&gt;Location: 331423 - 332668" locus_tag="FDFPEOFN_00783" class="clusterblast-orf" id="dummy-1_q10_0_all"  />
</g>
<g label="BGC0000857" description="BGC0000857_c1: ectoine (80% of genes show similarity), Other" class="clusterblast-cluster"  >
<text x="5" y="70" class="clusterblast-acc"  >
<a xlink:href="https://mibig.secondarymetabolites.org/go/BGC0000857/1" target="_blank">BGC0000857</a>: ectoine                                                                          (80% of genes show similarity), Other</text>
<line x1="10" y1="85" x2="778.0" y2="85" style="stroke-width:1; stroke:grey; "  />
</g>
<g id="a1_000"  >
<polygon points="191,85 196,80 240,80 240,90 196,90 191,85 " style="fill:white; stroke-width:1; stroke:black; " description="&lt;b&gt;ABY40743.1&lt;/b&gt;&lt;br&gt;putative transcriptional regulator&lt;br&gt;Location: 301 - 867" locus_tag="ABY40743.1" class="clusterblast-orf" id="dummy-1_h1_3_0"  />
</g>
<g id="a1_001"  >
<polygon points="263,90 303,90 308,85 303,80 263,80 263,90 " style="fill:#d81515; stroke-width:1; stroke:black; " description="&lt;b&gt;ABY40744.1&lt;/b&gt;&lt;br&gt;L-2,4-diaminobutyric acid acetyltransferase&lt;br&gt;Location: 1136 - 1654&lt;br&gt;&lt;br&gt;&lt;b&gt;BlastP hit with FDFPEOFN_00776&lt;/b&gt;&lt;br&gt;Percentage identity: 47&lt;br&gt;Percentage coverage: 86&lt;br&gt;BLAST bit score: 148&lt;br&gt;E-value: 1.23e-45" locus_tag="ABY40744.1" class="clusterblast-orf" id="dummy-1_h1_3_1"  />
</g>
<g id="a1_002"  >
<polygon points="313,90 424,90 429,85 424,80 313,80 313,90 " style="fill:#77d815; stroke-width:1; stroke:black; " description="&lt;b&gt;ABY40745.1&lt;/b&gt;&lt;br&gt;L-2,4-diaminobutyrate aminotransferase&lt;br&gt;Location: 1709 - 3037&lt;br&gt;&lt;br&gt;&lt;b&gt;BlastP hit with FDFPEOFN_00777&lt;/b&gt;&lt;br&gt;Percentage identity: 55&lt;br&gt;Percentage coverage: 96&lt;br&gt;BLAST bit score: 456&lt;br&gt;E-value: 6.02e-159" locus_tag="ABY40745.1" class="clusterblast-orf" id="dummy-1_h1_3_2"  />
</g>
<g id="a1_003"  >
<polygon points="433,90 463,90 468,85 463,80 433,80 433,90 " style="fill:#15d8d8; stroke-width:1; stroke:black; " description="&lt;b&gt;ABY40746.1&lt;/b&gt;&lt;br&gt;ectoine synthase&lt;br&gt;Location: 3083 - 3487&lt;br&gt;&lt;br&gt;&lt;b&gt;BlastP hit with FDFPEOFN_00778&lt;/b&gt;&lt;br&gt;Percentage identity: 54&lt;br&gt;Percentage coverage: 100&lt;br&gt;BLAST bit score: 155&lt;br&gt;E-value: 7.2e-50" locus_tag="ABY40746.1" class="clusterblast-orf" id="dummy-1_h1_3_3"  />
</g>
<g id="a1_004"  >
<polygon points="474,90 583,90 588,85 583,80 474,80 474,90 " style="fill:#7715d8; stroke-width:1; stroke:black; " description="&lt;b&gt;ABY40747.1&lt;/b&gt;&lt;br&gt;aspartokinase&lt;br&gt;Location: 3558 - 4871&lt;br&gt;&lt;br&gt;&lt;b&gt;BlastP hit with FDFPEOFN_00779&lt;/b&gt;&lt;br&gt;Percentage identity: 49&lt;br&gt;Percentage coverage: 91&lt;br&gt;BLAST bit score: 396&lt;br&gt;E-value: 8.85e-135" locus_tag="ABY40747.1" class="clusterblast-orf" id="dummy-1_h1_3_4"  />
</g>
</svg>
