<svg xmlns="http://www.w3.org/2000/svg" xmlns:xlink="http://www.w3.org/1999/xlink" version="1.1" x="0" y="0" height="230" width="800" viewBox="0 0 800 230" preserveAspectRatio="none"  >
<g label="Query sequence" class="clusterblast-cluster"  >
<text x="5" y="20" class="clusterblast-acc"  >
Query sequence</text>
<line x1="10" y1="35" x2="778.0" y2="35" style="stroke-width:1; stroke:grey; "  />
<polygon points="0,40 6,40 11,35 6,30 0,30 0,40 " style="fill:white; stroke-width:1; stroke:black; " description="&lt;b&gt;NGLDBBKK_03652&lt;/b&gt;&lt;br&gt;putative ribonucleotide transport ATP-binding protein mkl&lt;br&gt;Location: 107086 - 107833" locus_tag="NGLDBBKK_03652" class="clusterblast-orf" id="dummy-1_q0_0_all"  />
<polygon points="13,40 19,40 24,35 19,30 13,30 13,40 " style="fill:white; stroke-width:1; stroke:black; " description="&lt;b&gt;NGLDBBKK_03653&lt;/b&gt;&lt;br&gt;hypothetical protein&lt;br&gt;Location: 107964 - 108726" locus_tag="NGLDBBKK_03653" class="clusterblast-orf" id="dummy-1_q1_0_all"  />
<polygon points="24,40 26,40 31,35 26,30 24,30 24,40 " style="fill:white; stroke-width:1; stroke:black; " description="&lt;b&gt;NGLDBBKK_03654&lt;/b&gt;&lt;br&gt;hypothetical protein&lt;br&gt;Location: 108732 - 109173" locus_tag="NGLDBBKK_03654" class="clusterblast-orf" id="dummy-1_q2_0_all"  />
<polygon points="34,40 76,40 81,35 76,30 34,30 34,40 " style="fill:#d81515; stroke-width:1; stroke:black; " description="&lt;b&gt;NGLDBBKK_03655&lt;/b&gt;&lt;br&gt;hypothetical protein&lt;br&gt;Location: 109363 - 112573" locus_tag="NGLDBBKK_03655" class="clusterblast-orf" id="dummy-1_q3_0_all"  />
<polygon points="83,35 88,30 99,30 99,40 88,40 83,35 " style="fill:white; stroke-width:1; stroke:black; " description="&lt;b&gt;NGLDBBKK_03656&lt;/b&gt;&lt;br&gt;hypothetical protein&lt;br&gt;Location: 112681 - 113749" locus_tag="NGLDBBKK_03656" class="clusterblast-orf" id="dummy-1_q4_0_all"  />
<polygon points="100,35 104,30 104,40 100,35 " style="fill:#33d815; stroke-width:1; stroke:black; " description="&lt;b&gt;NGLDBBKK_03657&lt;/b&gt;&lt;br&gt;hypothetical protein&lt;br&gt;Location: 113843 - 114131" locus_tag="NGLDBBKK_03657" class="clusterblast-orf" id="dummy-1_q5_0_all"  />
<polygon points="105,35 110,30 118,30 118,40 110,40 105,35 " style="fill:#15abd8; stroke-width:1; stroke:black; " description="&lt;b&gt;NGLDBBKK_03658&lt;/b&gt;&lt;br&gt;2-methoxy-6-polyprenyl-1,4-benzoquinol methylase, mitochondrial&lt;br&gt;Location: 114174 - 115062" locus_tag="NGLDBBKK_03658" class="clusterblast-orf" id="dummy-1_q6_0_all"  />
<polygon points="118,35 123,30 132,30 132,40 123,40 118,35 " style="fill:#8d15d8; stroke-width:1; stroke:black; " description="&lt;b&gt;NGLDBBKK_03659&lt;/b&gt;&lt;br&gt;hypothetical protein&lt;br&gt;Location: 115051 - 116005" locus_tag="NGLDBBKK_03659" class="clusterblast-orf" id="dummy-1_q7_0_all"  />
<polygon points="132,35 137,30 155,30 155,40 137,40 132,35 " style="fill:#d86f15; stroke-width:1; stroke:black; " description="&lt;b&gt;NGLDBBKK_03660&lt;/b&gt;&lt;br&gt;hypothetical protein&lt;br&gt;Location: 116009 - 117536" locus_tag="NGLDBBKK_03660" class="clusterblast-orf" id="dummy-1_q8_0_all"  />
<polygon points="155,35 160,30 166,30 166,40 160,40 155,35 " style="fill:#15d851; stroke-width:1; stroke:black; " description="&lt;b&gt;NGLDBBKK_03661&lt;/b&gt;&lt;br&gt;Ribitol 2-dehydrogenase&lt;br&gt;Location: 117540 - 118275" locus_tag="NGLDBBKK_03661" class="clusterblast-orf" id="dummy-1_q9_0_all"  />
<polygon points="166,35 171,30 178,30 178,40 171,40 166,35 " style="fill:#15d851; stroke-width:1; stroke:black; " description="&lt;b&gt;NGLDBBKK_03662&lt;/b&gt;&lt;br&gt;hypothetical protein&lt;br&gt;Location: 118303 - 119062" locus_tag="NGLDBBKK_03662" class="clusterblast-orf" id="dummy-1_q10_0_all"  />
<polygon points="178,35 183,30 194,30 194,40 183,40 178,35 " style="fill:#d86f15; stroke-width:1; stroke:black; " description="&lt;b&gt;NGLDBBKK_03663&lt;/b&gt;&lt;br&gt;Putative aminoacrylate hydrolase RutD&lt;br&gt;Location: 119058 - 120180" locus_tag="NGLDBBKK_03663" class="clusterblast-orf" id="dummy-1_q11_0_all"  />
<polygon points="195,35 200,30 219,30 219,40 200,40 195,35 " style="fill:#1551d8; stroke-width:1; stroke:black; " description="&lt;b&gt;NGLDBBKK_03664&lt;/b&gt;&lt;br&gt;hypothetical protein&lt;br&gt;Location: 120219 - 121857" locus_tag="NGLDBBKK_03664" class="clusterblast-orf" id="dummy-1_q12_0_all"  />
<polygon points="222,40 223,40 228,35 223,30 222,30 222,40 " style="fill:#d815c9; stroke-width:1; stroke:black; " description="&lt;b&gt;NGLDBBKK_03665&lt;/b&gt;&lt;br&gt;hypothetical protein&lt;br&gt;Location: 122046 - 122409" locus_tag="NGLDBBKK_03665" class="clusterblast-orf" id="dummy-1_q13_0_all"  />
<polygon points="228,35 233,30 242,30 242,40 233,40 228,35 " style="fill:#d8c915; stroke-width:1; stroke:black; " description="&lt;b&gt;NGLDBBKK_03666&lt;/b&gt;&lt;br&gt;hypothetical protein&lt;br&gt;Location: 122436 - 123351" locus_tag="NGLDBBKK_03666" class="clusterblast-orf" id="dummy-1_q14_0_all"  />
<polygon points="242,35 247,30 257,30 257,40 247,40 242,35 " style="fill:#8d15d8; stroke-width:1; stroke:black; " description="&lt;b&gt;NGLDBBKK_03667&lt;/b&gt;&lt;br&gt;hypothetical protein&lt;br&gt;Location: 123369 - 124371" locus_tag="NGLDBBKK_03667" class="clusterblast-orf" id="dummy-1_q15_0_all"  />
<polygon points="262,40 270,40 275,35 270,30 262,30 262,40 " style="fill:#d8c915; stroke-width:1; stroke:black; " description="&lt;b&gt;NGLDBBKK_03668&lt;/b&gt;&lt;br&gt;hypothetical protein&lt;br&gt;Location: 124739 - 125624" locus_tag="NGLDBBKK_03668" class="clusterblast-orf" id="dummy-1_q16_0_all"  />
<polygon points="275,40 291,40 296,35 291,30 275,30 275,40 " style="fill:#d86f15; stroke-width:1; stroke:black; " description="&lt;b&gt;NGLDBBKK_03669&lt;/b&gt;&lt;br&gt;hypothetical protein&lt;br&gt;Location: 125628 - 126999" locus_tag="NGLDBBKK_03669" class="clusterblast-orf" id="dummy-1_q17_0_all"  />
<polygon points="296,35 301,30 367,30 367,40 301,40 296,35 " style="fill:#15d8ab; stroke-width:1; stroke:black; " description="&lt;b&gt;NGLDBBKK_03670&lt;/b&gt;&lt;br&gt;hypothetical protein&lt;br&gt;Location: 127002 - 131766" locus_tag="NGLDBBKK_03670" class="clusterblast-orf" id="dummy-1_q18_0_all"  />
<polygon points="367,35 372,30 488,30 488,40 372,40 367,35 " style="fill:#15d8ab; stroke-width:1; stroke:black; " description="&lt;b&gt;NGLDBBKK_03671&lt;/b&gt;&lt;br&gt;hypothetical protein&lt;br&gt;Location: 131762 - 139934" locus_tag="NGLDBBKK_03671" class="clusterblast-orf" id="dummy-1_q19_0_all"  />
<polygon points="489,35 494,30 502,30 502,40 494,40 489,35 " style="fill:white; stroke-width:1; stroke:black; " description="&lt;b&gt;NGLDBBKK_03672&lt;/b&gt;&lt;br&gt;hypothetical protein&lt;br&gt;Location: 140002 - 140842" locus_tag="NGLDBBKK_03672" class="clusterblast-orf" id="dummy-1_q20_0_all"  />
<polygon points="502,35 507,30 515,30 515,40 507,40 502,35 " style="fill:#3315d8; stroke-width:1; stroke:black; " description="&lt;b&gt;NGLDBBKK_03673&lt;/b&gt;&lt;br&gt;hypothetical protein&lt;br&gt;Location: 140863 - 141724" locus_tag="NGLDBBKK_03673" class="clusterblast-orf" id="dummy-1_q21_0_all"  />
<polygon points="515,35 520,30 532,30 532,40 520,40 515,35 " style="fill:#d8156f; stroke-width:1; stroke:black; " description="&lt;b&gt;NGLDBBKK_03674&lt;/b&gt;&lt;br&gt;Beta-barrel assembly-enhancing protease&lt;br&gt;Location: 141752 - 142904" locus_tag="NGLDBBKK_03674" class="clusterblast-orf" id="dummy-1_q22_0_all"  />
<polygon points="537,40 552,40 557,35 552,30 537,30 537,40 " style="fill:white; stroke-width:1; stroke:black; " description="&lt;b&gt;NGLDBBKK_03675&lt;/b&gt;&lt;br&gt;DNA repair protein RadA&lt;br&gt;Location: 143225 - 144590" locus_tag="NGLDBBKK_03675" class="clusterblast-orf" id="dummy-1_q23_0_all"  />
<polygon points="558,40 562,40 567,35 562,30 558,30 558,40 " style="fill:white; stroke-width:1; stroke:black; " description="&lt;b&gt;NGLDBBKK_03676&lt;/b&gt;&lt;br&gt;hypothetical protein&lt;br&gt;Location: 144650 - 145268" locus_tag="NGLDBBKK_03676" class="clusterblast-orf" id="dummy-1_q24_0_all"  />
<polygon points="571,40 588,40 593,35 588,30 571,30 571,40 " style="fill:white; stroke-width:1; stroke:black; " description="&lt;b&gt;NGLDBBKK_03677&lt;/b&gt;&lt;br&gt;Amidophosphoribosyltransferase&lt;br&gt;Location: 145532 - 146993" locus_tag="NGLDBBKK_03677" class="clusterblast-orf" id="dummy-1_q25_0_all"  />
<polygon points="594,40 608,40 613,35 608,30 594,30 594,40 " style="fill:white; stroke-width:1; stroke:black; " description="&lt;b&gt;NGLDBBKK_03678&lt;/b&gt;&lt;br&gt;hypothetical protein&lt;br&gt;Location: 147065 - 148343" locus_tag="NGLDBBKK_03678" class="clusterblast-orf" id="dummy-1_q26_0_all"  />
<polygon points="614,40 620,40 625,35 620,30 614,30 614,40 " style="fill:#15d851; stroke-width:1; stroke:black; " description="&lt;b&gt;NGLDBBKK_03679&lt;/b&gt;&lt;br&gt;hypothetical protein&lt;br&gt;Location: 148432 - 149119" locus_tag="NGLDBBKK_03679" class="clusterblast-orf" id="dummy-1_q27_0_all"  />
<polygon points="626,40 633,40 638,35 633,30 626,30 626,40 " style="fill:white; stroke-width:1; stroke:black; " description="&lt;b&gt;NGLDBBKK_03680&lt;/b&gt;&lt;br&gt;5'-nucleotidase SurE&lt;br&gt;Location: 149232 - 150018" locus_tag="NGLDBBKK_03680" class="clusterblast-orf" id="dummy-1_q28_0_all"  />
<polygon points="638,40 643,40 648,35 643,30 638,30 638,40 " style="fill:white; stroke-width:1; stroke:black; " description="&lt;b&gt;NGLDBBKK_03681&lt;/b&gt;&lt;br&gt;Protein-L-isoaspartate O-methyltransferase&lt;br&gt;Location: 150014 - 150674" locus_tag="NGLDBBKK_03681" class="clusterblast-orf" id="dummy-1_q29_0_all"  />
<polygon points="649,40 662,40 667,35 662,30 649,30 649,40 " style="fill:white; stroke-width:1; stroke:black; " description="&lt;b&gt;NGLDBBKK_03682&lt;/b&gt;&lt;br&gt;hypothetical protein&lt;br&gt;Location: 150739 - 151951" locus_tag="NGLDBBKK_03682" class="clusterblast-orf" id="dummy-1_q30_0_all"  />
<polygon points="670,35 675,30 683,30 683,40 675,40 670,35 " style="fill:white; stroke-width:1; stroke:black; " description="&lt;b&gt;NGLDBBKK_03683&lt;/b&gt;&lt;br&gt;hypothetical protein&lt;br&gt;Location: 152190 - 153033" locus_tag="NGLDBBKK_03683" class="clusterblast-orf" id="dummy-1_q31_0_all"  />
<polygon points="683,35 688,30 696,30 696,40 688,40 683,35 " style="fill:white; stroke-width:1; stroke:black; " description="&lt;b&gt;NGLDBBKK_03684&lt;/b&gt;&lt;br&gt;Sec-independent protein translocase protein TatC&lt;br&gt;Location: 153029 - 153911" locus_tag="NGLDBBKK_03684" class="clusterblast-orf" id="dummy-1_q32_0_all"  />
<polygon points="696,35 701,30 705,30 705,40 701,40 696,35 " style="fill:white; stroke-width:1; stroke:black; " description="&lt;b&gt;NGLDBBKK_03685&lt;/b&gt;&lt;br&gt;Sec-independent protein translocase protein TatB&lt;br&gt;Location: 153907 - 154549" locus_tag="NGLDBBKK_03685" class="clusterblast-orf" id="dummy-1_q33_0_all"  />
<polygon points="706,35 710,30 710,40 706,35 " style="fill:white; stroke-width:1; stroke:black; " description="&lt;b&gt;NGLDBBKK_03686&lt;/b&gt;&lt;br&gt;Sec-independent protein translocase protein TatA&lt;br&gt;Location: 154617 - 154878" locus_tag="NGLDBBKK_03686" class="clusterblast-orf" id="dummy-1_q34_0_all"  />
<polygon points="717,35 722,30 733,30 733,40 722,40 717,35 " style="fill:#8dd815; stroke-width:1; stroke:black; " description="&lt;b&gt;NGLDBBKK_03687&lt;/b&gt;&lt;br&gt;Vitamin B12 import ATP-binding protein BtuD&lt;br&gt;Location: 155300 - 156419" locus_tag="NGLDBBKK_03687" class="clusterblast-orf" id="dummy-1_q35_0_all"  />
<polygon points="740,35 745,30 750,30 750,40 745,40 740,35 " style="fill:white; stroke-width:1; stroke:black; " description="&lt;b&gt;NGLDBBKK_03688&lt;/b&gt;&lt;br&gt;hypothetical protein&lt;br&gt;Location: 156901 - 157513" locus_tag="NGLDBBKK_03688" class="clusterblast-orf" id="dummy-1_q36_0_all"  />
<polygon points="750,35 755,30 761,30 761,40 755,40 750,35 " style="fill:white; stroke-width:1; stroke:black; " description="&lt;b&gt;NGLDBBKK_03689&lt;/b&gt;&lt;br&gt;3-oxoacyl-[acyl-carrier-protein] reductase FabG&lt;br&gt;Location: 157524 - 158301" locus_tag="NGLDBBKK_03689" class="clusterblast-orf" id="dummy-1_q37_0_all"  />
<polygon points="764,40 775,40 780,35 775,30 764,30 764,40 " style="fill:white; stroke-width:1; stroke:black; " description="&lt;b&gt;NGLDBBKK_03690&lt;/b&gt;&lt;br&gt;hypothetical protein&lt;br&gt;Location: 158497 - 159538" locus_tag="NGLDBBKK_03690" class="clusterblast-orf" id="dummy-1_q38_0_all"  />
</g>
<g label="NZ_CP046122" description="NZ_CP046122 (1253566-1306362): Microlunatus sp. Gsoil 973 chromosome, complet... (18% of genes show similarity), T1PKS,hglE-KS" class="clusterblast-cluster"  >
<text x="5" y="70" class="clusterblast-acc"  >
<a xlink:href="https://antismash-db.secondarymetabolites.org/area.html?record=NZ_CP046122&amp;start=1253566&amp;end=1306362" target="_blank">NZ_CP046122 (1253566-1306362)</a>: Microlunatus sp. Gsoil 973 chromosome, complet... (18% of genes show similarity), T1PKS,hglE-KS</text>
<line x1="10" y1="85" x2="778.0" y2="85" style="stroke-width:1; stroke:grey; "  />
</g>
<g id="a1_000"  >
<polygon points="3,85 8,80 20,80 20,90 8,90 3,85 " style="fill:white; stroke-width:1; stroke:black; " description="&lt;b&gt;GJV80_RS06100&lt;/b&gt;&lt;br&gt;serpin family protein&lt;br&gt;Location: 1306154 - 1304982" locus_tag="GJV80_RS06100" class="clusterblast-orf" id="dummy-1_h1_8_0"  />
</g>
<g id="a1_001"  >
<polygon points="20,85 25,80 28,80 28,90 25,90 20,85 " style="fill:white; stroke-width:1; stroke:black; " description="&lt;b&gt;GJV80_RS06095&lt;/b&gt;&lt;br&gt;MarR family transcriptional regulator&lt;br&gt;Location: 1304961 - 1304452" locus_tag="GJV80_RS06095" class="clusterblast-orf" id="dummy-1_h1_8_1"  />
</g>
<g id="a1_002"  >
<polygon points="28,85 33,80 37,80 37,90 33,90 28,85 " style="fill:white; stroke-width:1; stroke:black; " description="&lt;b&gt;GJV80_RS06090&lt;/b&gt;&lt;br&gt;glutamine amidotransferase&lt;br&gt;Location: 1304443 - 1303823" locus_tag="GJV80_RS06090" class="clusterblast-orf" id="dummy-1_h1_8_2"  />
</g>
<g id="a1_003"  >
<polygon points="38,85 43,80 56,80 56,90 43,90 38,85 " style="fill:white; stroke-width:1; stroke:black; " description="&lt;b&gt;GJV80_RS06085&lt;/b&gt;&lt;br&gt;DUF1343 domain-containing protein&lt;br&gt;Location: 1303741 - 1302542" locus_tag="GJV80_RS06085" class="clusterblast-orf" id="dummy-1_h1_8_3"  />
</g>
<g id="a1_004"  >
<polygon points="56,85 61,80 70,80 70,90 61,90 56,85 " style="fill:white; stroke-width:1; stroke:black; " description="&lt;b&gt;GJV80_RS06080&lt;/b&gt;&lt;br&gt;SIS domain-containing protein&lt;br&gt;Location: 1302545 - 1301619" locus_tag="GJV80_RS06080" class="clusterblast-orf" id="dummy-1_h1_8_4"  />
</g>
<g id="a1_005"  >
<polygon points="76,85 81,80 97,80 97,90 81,90 76,85 " style="fill:white; stroke-width:1; stroke:black; " description="&lt;b&gt;GJV80_RS06070&lt;/b&gt;&lt;br&gt;ribosome biogenesis GTPase Der&lt;br&gt;Location: 1301216 - 1299825" locus_tag="GJV80_RS06070" class="clusterblast-orf" id="dummy-1_h1_8_5"  />
</g>
<g id="a1_006"  >
<polygon points="97,85 102,80 108,80 108,90 102,90 97,85 " style="fill:white; stroke-width:1; stroke:black; " description="&lt;b&gt;GJV80_RS06065&lt;/b&gt;&lt;br&gt;1-acyl-sn-glycerol-3-phosphate acyltransferase&lt;br&gt;Location: 1299828 - 1299031" locus_tag="GJV80_RS06065" class="clusterblast-orf" id="dummy-1_h1_8_6"  />
</g>
<g id="a1_007"  >
<polygon points="109,85 114,80 119,80 119,90 114,90 109,85 " style="fill:white; stroke-width:1; stroke:black; " description="&lt;b&gt;GJV80_RS06060&lt;/b&gt;&lt;br&gt;(d)CMP kinase&lt;br&gt;Location: 1299025 - 1298294" locus_tag="GJV80_RS06060" class="clusterblast-orf" id="dummy-1_h1_8_7"  />
</g>
<g id="a1_008"  >
<polygon points="120,90 126,90 131,85 126,80 120,80 120,90 " style="fill:white; stroke-width:1; stroke:black; " description="&lt;b&gt;GJV80_RS06055&lt;/b&gt;&lt;br&gt;D-threitol dehydrogenase&lt;br&gt;Location: 1298276 - 1297527" locus_tag="GJV80_RS06055" class="clusterblast-orf" id="dummy-1_h1_8_8"  />
</g>
<g id="a1_009"  >
<polygon points="131,85 133,80 133,90 131,85 " style="fill:white; stroke-width:1; stroke:black; " description="&lt;b&gt;GJV80_RS06050&lt;/b&gt;&lt;br&gt;hypothetical protein&lt;br&gt;Location: 1297526 - 1297386" locus_tag="GJV80_RS06050" class="clusterblast-orf" id="dummy-1_h1_8_9"  />
</g>
<g id="a1_0010"  >
<polygon points="133,90 136,85 133,80 133,90 " style="fill:white; stroke-width:1; stroke:black; " description="&lt;b&gt;GJV80_RS06045&lt;/b&gt;&lt;br&gt;DUF2188 domain-containing protein&lt;br&gt;Location: 1297387 - 1297166" locus_tag="GJV80_RS06045" class="clusterblast-orf" id="dummy-1_h1_8_10"  />
</g>
<g id="a1_0011"  >
<polygon points="137,85 142,80 157,80 157,90 142,90 137,85 " style="fill:white; stroke-width:1; stroke:black; " description="&lt;b&gt;GJV80_RS06040&lt;/b&gt;&lt;br&gt;phosphodiesterase&lt;br&gt;Location: 1297131 - 1295746" locus_tag="GJV80_RS06040" class="clusterblast-orf" id="dummy-1_h1_8_11"  />
</g>
<g id="a1_0012"  >
<polygon points="157,85 162,80 180,80 180,90 162,90 157,85 " style="fill:white; stroke-width:1; stroke:black; " description="&lt;b&gt;GJV80_RS06035&lt;/b&gt;&lt;br&gt;hypothetical protein&lt;br&gt;Location: 1295741 - 1294209" locus_tag="GJV80_RS06035" class="clusterblast-orf" id="dummy-1_h1_8_12"  />
</g>
<g id="a1_0013"  >
<polygon points="180,85 185,80 194,80 194,90 185,90 180,85 " style="fill:#d8c915; stroke-width:1; stroke:black; " description="&lt;b&gt;GJV80_RS06030&lt;/b&gt;&lt;br&gt;sulfotransferase&lt;br&gt;Location: 1294212 - 1293301&lt;br&gt;&lt;br&gt;&lt;b&gt;BlastP hit with NGLDBBKK_03666&lt;/b&gt;&lt;br&gt;Percentage identity: 34&lt;br&gt;Percentage coverage: 100&lt;br&gt;BLAST bit score: 136&lt;br&gt;E-value: 5.77e-36&lt;br&gt;&lt;br&gt;&lt;b&gt;BlastP hit with NGLDBBKK_03668&lt;/b&gt;&lt;br&gt;Percentage identity: 38&lt;br&gt;Percentage coverage: 102&lt;br&gt;BLAST bit score: 195&lt;br&gt;E-value: 8.32e-59" locus_tag="GJV80_RS06030" class="clusterblast-orf" id="dummy-1_h1_8_13"  />
</g>
<g id="a1_0014"  >
<polygon points="194,85 199,80 207,80 207,90 199,90 194,85 " style="fill:#15d851; stroke-width:1; stroke:black; " description="&lt;b&gt;GJV80_RS06025&lt;/b&gt;&lt;br&gt;SDR family NAD(P)-dependent oxidoreductase&lt;br&gt;Location: 1293308 - 1292376&lt;br&gt;&lt;br&gt;&lt;b&gt;BlastP hit with NGLDBBKK_03661&lt;/b&gt;&lt;br&gt;Percentage identity: 36&lt;br&gt;Percentage coverage: 82&lt;br&gt;BLAST bit score: 90&lt;br&gt;E-value: 3.04e-19&lt;br&gt;&lt;br&gt;&lt;b&gt;BlastP hit with NGLDBBKK_03679&lt;/b&gt;&lt;br&gt;Percentage identity: 33&lt;br&gt;Percentage coverage: 86&lt;br&gt;BLAST bit score: 60&lt;br&gt;E-value: 1.48e-08" locus_tag="GJV80_RS06025" class="clusterblast-orf" id="dummy-1_h1_8_14"  />
</g>
<g id="a1_0015"  >
<polygon points="207,85 212,80 219,80 219,90 212,90 207,85 " style="fill:white; stroke-width:1; stroke:black; " description="&lt;b&gt;GJV80_RS06020&lt;/b&gt;&lt;br&gt;NAD-dependent epimerase/dehydratase family protein&lt;br&gt;Location: 1292439 - 1291612" locus_tag="GJV80_RS06020" class="clusterblast-orf" id="dummy-1_h1_8_15"  />
</g>
<g id="a1_0016"  >
<polygon points="219,85 224,80 257,80 257,90 224,90 219,85 " style="fill:#d86f15; stroke-width:1; stroke:black; " description="&lt;b&gt;GJV80_RS06015&lt;/b&gt;&lt;br&gt;NAD-dependent epimerase/dehydratase family protein&lt;br&gt;Location: 1291627 - 1289054&lt;br&gt;&lt;br&gt;&lt;b&gt;BlastP hit with NGLDBBKK_03660&lt;/b&gt;&lt;br&gt;Percentage identity: 43&lt;br&gt;Percentage coverage: 100&lt;br&gt;BLAST bit score: 379&lt;br&gt;E-value: 7.86e-121&lt;br&gt;&lt;br&gt;&lt;b&gt;BlastP hit with NGLDBBKK_03669&lt;/b&gt;&lt;br&gt;Percentage identity: 36&lt;br&gt;Percentage coverage: 107&lt;br&gt;BLAST bit score: 270&lt;br&gt;E-value: 4.92e-80" locus_tag="GJV80_RS06015" class="clusterblast-orf" id="dummy-1_h1_8_16"  />
</g>
<g id="a1_0017"  >
<polygon points="257,85 262,80 270,80 270,90 262,90 257,85 " style="fill:#d86f15; stroke-width:1; stroke:black; " description="&lt;b&gt;GJV80_RS06010&lt;/b&gt;&lt;br&gt;alpha/beta fold hydrolase&lt;br&gt;Location: 1289061 - 1288180&lt;br&gt;&lt;br&gt;&lt;b&gt;BlastP hit with NGLDBBKK_03663&lt;/b&gt;&lt;br&gt;Percentage identity: 38&lt;br&gt;Percentage coverage: 46&lt;br&gt;BLAST bit score: 99&lt;br&gt;E-value: 1.07e-21" locus_tag="GJV80_RS06010" class="clusterblast-orf" id="dummy-1_h1_8_17"  />
</g>
<g id="a1_0018"  >
<polygon points="270,85 275,80 293,80 293,90 275,90 270,85 " style="fill:#1551d8; stroke-width:1; stroke:black; " description="&lt;b&gt;GJV80_RS06005&lt;/b&gt;&lt;br&gt;phosphodiesterase&lt;br&gt;Location: 1288166 - 1286649&lt;br&gt;&lt;br&gt;&lt;b&gt;BlastP hit with NGLDBBKK_03664&lt;/b&gt;&lt;br&gt;Percentage identity: 34&lt;br&gt;Percentage coverage: 98&lt;br&gt;BLAST bit score: 270&lt;br&gt;E-value: 3.61e-82" locus_tag="GJV80_RS06005" class="clusterblast-orf" id="dummy-1_h1_8_18"  />
</g>
<g id="a1_0019"  >
<polygon points="293,85 298,80 298,80 298,90 298,90 293,85 " style="fill:white; stroke-width:1; stroke:black; " description="&lt;b&gt;GJV80_RS06000&lt;/b&gt;&lt;br&gt;hypothetical protein&lt;br&gt;Location: 1286652 - 1286293" locus_tag="GJV80_RS06000" class="clusterblast-orf" id="dummy-1_h1_8_19"  />
</g>
<g id="a1_0020"  >
<polygon points="297,85 302,80 367,80 367,90 302,90 297,85 " style="fill:#15d8ab; stroke-width:1; stroke:black; " description="&lt;b&gt;GJV80_RS05995&lt;/b&gt;&lt;br&gt;acyltransferase domain-containing protein&lt;br&gt;Location: 1286362 - 1281620&lt;br&gt;&lt;br&gt;&lt;b&gt;BlastP hit with NGLDBBKK_03670&lt;/b&gt;&lt;br&gt;Percentage identity: 43&lt;br&gt;Percentage coverage: 52&lt;br&gt;BLAST bit score: 523&lt;br&gt;E-value: 1.91e-156&lt;br&gt;&lt;br&gt;&lt;b&gt;BlastP hit with NGLDBBKK_03671&lt;/b&gt;&lt;br&gt;Percentage identity: 34&lt;br&gt;Percentage coverage: 36&lt;br&gt;BLAST bit score: 352&lt;br&gt;E-value: 2.34e-96" locus_tag="GJV80_RS05995" class="clusterblast-orf" id="dummy-1_h1_8_20"  />
</g>
<g id="a1_0021"  >
<polygon points="365,85 370,80 378,80 378,90 370,90 365,85 " style="fill:#15d8ab; stroke-width:1; stroke:black; " description="&lt;b&gt;GJV80_RS05990&lt;/b&gt;&lt;br&gt;hypothetical protein&lt;br&gt;Location: 1281758 - 1280919&lt;br&gt;&lt;br&gt;&lt;b&gt;BlastP hit with NGLDBBKK_03670&lt;/b&gt;&lt;br&gt;Percentage identity: 56&lt;br&gt;Percentage coverage: 14&lt;br&gt;BLAST bit score: 247&lt;br&gt;E-value: 7.34e-72" locus_tag="GJV80_RS05990" class="clusterblast-orf" id="dummy-1_h1_8_21"  />
</g>
<g id="a1_0022"  >
<polygon points="378,85 383,80 487,80 487,90 383,90 378,85 " style="fill:#15d8ab; stroke-width:1; stroke:black; " description="&lt;b&gt;GJV80_RS05985&lt;/b&gt;&lt;br&gt;SDR family NAD(P)-dependent oxidoreductase&lt;br&gt;Location: 1280922 - 1273567&lt;br&gt;&lt;br&gt;&lt;b&gt;BlastP hit with NGLDBBKK_03670&lt;/b&gt;&lt;br&gt;Percentage identity: 36&lt;br&gt;Percentage coverage: 61&lt;br&gt;BLAST bit score: 418&lt;br&gt;E-value: 1.1e-117&lt;br&gt;&lt;br&gt;&lt;b&gt;BlastP hit with NGLDBBKK_03671&lt;/b&gt;&lt;br&gt;Percentage identity: 40&lt;br&gt;Percentage coverage: 90&lt;br&gt;BLAST bit score: 1296&lt;br&gt;E-value: 0.0" locus_tag="GJV80_RS05985" class="clusterblast-orf" id="dummy-1_h1_8_22"  />
</g>
<g id="a1_0023"  >
<polygon points="491,90 506,90 511,85 506,80 491,80 491,90 " style="fill:white; stroke-width:1; stroke:black; " description="&lt;b&gt;GJV80_RS05980&lt;/b&gt;&lt;br&gt;acyl-CoA carboxylase subunit beta&lt;br&gt;Location: 1273330 - 1271974" locus_tag="GJV80_RS05980" class="clusterblast-orf" id="dummy-1_h1_8_23"  />
</g>
<g id="a1_0024"  >
<polygon points="510,85 515,80 526,80 526,90 515,90 510,85 " style="fill:white; stroke-width:1; stroke:black; " description="&lt;b&gt;GJV80_RS05975&lt;/b&gt;&lt;br&gt;hypothetical protein&lt;br&gt;Location: 1272023 - 1270974" locus_tag="GJV80_RS05975" class="clusterblast-orf" id="dummy-1_h1_8_24"  />
</g>
<g id="a1_0025"  >
<polygon points="526,85 531,80 541,80 541,90 531,90 526,85 " style="fill:white; stroke-width:1; stroke:black; " description="&lt;b&gt;GJV80_RS05970&lt;/b&gt;&lt;br&gt;hypothetical protein&lt;br&gt;Location: 1270956 - 1269952" locus_tag="GJV80_RS05970" class="clusterblast-orf" id="dummy-1_h1_8_25"  />
</g>
<g id="a1_0026"  >
<polygon points="541,85 546,80 557,80 557,90 546,90 541,85 " style="fill:white; stroke-width:1; stroke:black; " description="&lt;b&gt;GJV80_RS05965&lt;/b&gt;&lt;br&gt;peptidase M4 family protein&lt;br&gt;Location: 1269918 - 1268857" locus_tag="GJV80_RS05965" class="clusterblast-orf" id="dummy-1_h1_8_26"  />
</g>
<g id="a1_0027"  >
<polygon points="559,85 564,80 565,80 565,90 564,90 559,85 " style="fill:white; stroke-width:1; stroke:black; " description="&lt;b&gt;GJV80_RS05960&lt;/b&gt;&lt;br&gt;hypothetical protein&lt;br&gt;Location: 1268748 - 1268335" locus_tag="GJV80_RS05960" class="clusterblast-orf" id="dummy-1_h1_8_27"  />
</g>
<g id="a1_0028"  >
<polygon points="567,85 572,80 579,80 579,90 572,90 567,85 " style="fill:white; stroke-width:1; stroke:black; " description="&lt;b&gt;GJV80_RS05955&lt;/b&gt;&lt;br&gt;SARP family transcriptional regulator&lt;br&gt;Location: 1268174 - 1267413" locus_tag="GJV80_RS05955" class="clusterblast-orf" id="dummy-1_h1_8_28"  />
</g>
<g id="a1_0029"  >
<polygon points="581,90 584,85 581,80 581,90 " style="fill:white; stroke-width:1; stroke:black; " description="&lt;b&gt;GJV80_RS05950&lt;/b&gt;&lt;br&gt;hypothetical protein&lt;br&gt;Location: 1267275 - 1267081" locus_tag="GJV80_RS05950" class="clusterblast-orf" id="dummy-1_h1_8_29"  />
</g>
<g id="a1_0030"  >
<polygon points="584,85 589,80 600,80 600,90 589,90 584,85 " style="fill:white; stroke-width:1; stroke:black; " description="&lt;b&gt;GJV80_RS05945&lt;/b&gt;&lt;br&gt;prephenate dehydrogenase&lt;br&gt;Location: 1267047 - 1265956" locus_tag="GJV80_RS05945" class="clusterblast-orf" id="dummy-1_h1_8_30"  />
</g>
<g id="a1_0031"  >
<polygon points="600,85 605,80 612,80 612,90 605,90 600,85 " style="fill:white; stroke-width:1; stroke:black; " description="&lt;b&gt;GJV80_RS05940&lt;/b&gt;&lt;br&gt;proteasome subunit alpha&lt;br&gt;Location: 1265959 - 1265171" locus_tag="GJV80_RS05940" class="clusterblast-orf" id="dummy-1_h1_8_31"  />
</g>
<g id="a1_0032"  >
<polygon points="614,85 619,80 627,80 627,90 619,90 614,85 " style="fill:white; stroke-width:1; stroke:black; " description="&lt;b&gt;GJV80_RS05935&lt;/b&gt;&lt;br&gt;proteasome subunit beta&lt;br&gt;Location: 1265050 - 1264184" locus_tag="GJV80_RS05935" class="clusterblast-orf" id="dummy-1_h1_8_32"  />
</g>
<g id="a1_0033"  >
<polygon points="627,85 630,80 630,90 627,85 " style="fill:white; stroke-width:1; stroke:black; " description="&lt;b&gt;GJV80_RS05930&lt;/b&gt;&lt;br&gt;ubiquitin-like protein Pup&lt;br&gt;Location: 1264176 - 1263970" locus_tag="GJV80_RS05930" class="clusterblast-orf" id="dummy-1_h1_8_33"  />
</g>
<g id="a1_0034"  >
<polygon points="632,85 637,80 645,80 645,90 637,90 632,85 " style="fill:white; stroke-width:1; stroke:black; " description="&lt;b&gt;GJV80_RS05925&lt;/b&gt;&lt;br&gt;alpha/beta fold hydrolase&lt;br&gt;Location: 1263797 - 1262955" locus_tag="GJV80_RS05925" class="clusterblast-orf" id="dummy-1_h1_8_34"  />
</g>
<g id="a1_0035"  >
<polygon points="647,85 652,80 670,80 670,90 652,90 647,85 " style="fill:white; stroke-width:1; stroke:black; " description="&lt;b&gt;GJV80_RS05920&lt;/b&gt;&lt;br&gt;proteasome accessory factor PafA2&lt;br&gt;Location: 1262844 - 1261294" locus_tag="GJV80_RS05920" class="clusterblast-orf" id="dummy-1_h1_8_35"  />
</g>
<g id="a1_0036"  >
<polygon points="668,90 673,90 678,85 673,80 668,80 668,90 " style="fill:white; stroke-width:1; stroke:black; " description="&lt;b&gt;GJV80_RS05915&lt;/b&gt;&lt;br&gt;DUF3054 family protein&lt;br&gt;Location: 1261404 - 1260763" locus_tag="GJV80_RS05915" class="clusterblast-orf" id="dummy-1_h1_8_36"  />
</g>
<g id="a1_0037"  >
<polygon points="677,85 682,80 689,80 689,90 682,90 677,85 " style="fill:white; stroke-width:1; stroke:black; " description="&lt;b&gt;GJV80_RS05910&lt;/b&gt;&lt;br&gt;YebC/PmpR family DNA-binding transcriptional regulator&lt;br&gt;Location: 1260811 - 1260026" locus_tag="GJV80_RS05910" class="clusterblast-orf" id="dummy-1_h1_8_37"  />
</g>
<g id="a1_0038"  >
<polygon points="689,85 693,80 693,90 689,85 " style="fill:white; stroke-width:1; stroke:black; " description="&lt;b&gt;GJV80_RS05905&lt;/b&gt;&lt;br&gt;hypothetical protein&lt;br&gt;Location: 1259970 - 1259722" locus_tag="GJV80_RS05905" class="clusterblast-orf" id="dummy-1_h1_8_38"  />
</g>
<g id="a1_0039"  >
<polygon points="693,85 698,80 706,80 706,90 698,90 693,85 " style="fill:white; stroke-width:1; stroke:black; " description="&lt;b&gt;GJV80_RS05900&lt;/b&gt;&lt;br&gt;1-acyl-sn-glycerol-3-phosphate acyltransferase&lt;br&gt;Location: 1259725 - 1258841" locus_tag="GJV80_RS05900" class="clusterblast-orf" id="dummy-1_h1_8_39"  />
</g>
<g id="a1_0040"  >
<polygon points="705,85 710,80 728,80 728,90 710,90 705,85 " style="fill:white; stroke-width:1; stroke:black; " description="&lt;b&gt;GJV80_RS05895&lt;/b&gt;&lt;br&gt;DUF2088 domain-containing protein&lt;br&gt;Location: 1258935 - 1257382" locus_tag="GJV80_RS05895" class="clusterblast-orf" id="dummy-1_h1_8_40"  />
</g>
<g id="a1_0041"  >
<polygon points="728,85 733,80 765,80 765,90 733,90 728,85 " style="fill:white; stroke-width:1; stroke:black; " description="&lt;b&gt;GJV80_RS05890&lt;/b&gt;&lt;br&gt;HAD-IB family hydrolase&lt;br&gt;Location: 1257381 - 1254898" locus_tag="GJV80_RS05890" class="clusterblast-orf" id="dummy-1_h1_8_41"  />
</g>
<g id="a1_0042"  >
<polygon points="765,85 770,80 776,80 776,90 770,90 765,85 " style="fill:white; stroke-width:1; stroke:black; " description="&lt;b&gt;GJV80_RS05885&lt;/b&gt;&lt;br&gt;bifunctional 1-(5-phosphoribosyl)-5-((5- phosphoribosylamino)methylideneamino)imidazole-4- carboxamide isomerase/phosphoribosylanthranilate isomerase PriA&lt;br&gt;Location: 1254859 - 1254113" locus_tag="GJV80_RS05885" class="clusterblast-orf" id="dummy-1_h1_8_42"  />
</g>
</svg>
