<svg xmlns="http://www.w3.org/2000/svg" xmlns:xlink="http://www.w3.org/1999/xlink" version="1.1" x="0" y="0" height="230" width="800" viewBox="0 0 800 230" preserveAspectRatio="none"  >
<g label="Query sequence" class="clusterblast-cluster"  >
<text x="5" y="20" class="clusterblast-acc"  >
Query sequence</text>
<line x1="10" y1="35" x2="778.0" y2="35" style="stroke-width:1; stroke:grey; "  />
<polygon points="0,40 6,40 11,35 6,30 0,30 0,40 " style="fill:white; stroke-width:1; stroke:black; " description="&lt;b&gt;NGLDBBKK_03652&lt;/b&gt;&lt;br&gt;putative ribonucleotide transport ATP-binding protein mkl&lt;br&gt;Location: 107086 - 107833" locus_tag="NGLDBBKK_03652" class="clusterblast-orf" id="dummy-1_q0_0_all"  />
<polygon points="13,40 19,40 24,35 19,30 13,30 13,40 " style="fill:white; stroke-width:1; stroke:black; " description="&lt;b&gt;NGLDBBKK_03653&lt;/b&gt;&lt;br&gt;hypothetical protein&lt;br&gt;Location: 107964 - 108726" locus_tag="NGLDBBKK_03653" class="clusterblast-orf" id="dummy-1_q1_0_all"  />
<polygon points="24,40 26,40 31,35 26,30 24,30 24,40 " style="fill:white; stroke-width:1; stroke:black; " description="&lt;b&gt;NGLDBBKK_03654&lt;/b&gt;&lt;br&gt;hypothetical protein&lt;br&gt;Location: 108732 - 109173" locus_tag="NGLDBBKK_03654" class="clusterblast-orf" id="dummy-1_q2_0_all"  />
<polygon points="34,40 76,40 81,35 76,30 34,30 34,40 " style="fill:#d81515; stroke-width:1; stroke:black; " description="&lt;b&gt;NGLDBBKK_03655&lt;/b&gt;&lt;br&gt;hypothetical protein&lt;br&gt;Location: 109363 - 112573" locus_tag="NGLDBBKK_03655" class="clusterblast-orf" id="dummy-1_q3_0_all"  />
<polygon points="83,35 88,30 99,30 99,40 88,40 83,35 " style="fill:white; stroke-width:1; stroke:black; " description="&lt;b&gt;NGLDBBKK_03656&lt;/b&gt;&lt;br&gt;hypothetical protein&lt;br&gt;Location: 112681 - 113749" locus_tag="NGLDBBKK_03656" class="clusterblast-orf" id="dummy-1_q4_0_all"  />
<polygon points="100,35 105,30 105,30 105,40 105,40 100,35 " style="fill:#33d815; stroke-width:1; stroke:black; " description="&lt;b&gt;NGLDBBKK_03657&lt;/b&gt;&lt;br&gt;hypothetical protein&lt;br&gt;Location: 113843 - 114131" locus_tag="NGLDBBKK_03657" class="clusterblast-orf" id="dummy-1_q5_0_all"  />
<polygon points="105,35 110,30 118,30 118,40 110,40 105,35 " style="fill:#15abd8; stroke-width:1; stroke:black; " description="&lt;b&gt;NGLDBBKK_03658&lt;/b&gt;&lt;br&gt;2-methoxy-6-polyprenyl-1,4-benzoquinol methylase, mitochondrial&lt;br&gt;Location: 114174 - 115062" locus_tag="NGLDBBKK_03658" class="clusterblast-orf" id="dummy-1_q6_0_all"  />
<polygon points="118,35 123,30 132,30 132,40 123,40 118,35 " style="fill:#8d15d8; stroke-width:1; stroke:black; " description="&lt;b&gt;NGLDBBKK_03659&lt;/b&gt;&lt;br&gt;hypothetical protein&lt;br&gt;Location: 115051 - 116005" locus_tag="NGLDBBKK_03659" class="clusterblast-orf" id="dummy-1_q7_0_all"  />
<polygon points="132,35 137,30 155,30 155,40 137,40 132,35 " style="fill:#d86f15; stroke-width:1; stroke:black; " description="&lt;b&gt;NGLDBBKK_03660&lt;/b&gt;&lt;br&gt;hypothetical protein&lt;br&gt;Location: 116009 - 117536" locus_tag="NGLDBBKK_03660" class="clusterblast-orf" id="dummy-1_q8_0_all"  />
<polygon points="155,35 160,30 166,30 166,40 160,40 155,35 " style="fill:#15d851; stroke-width:1; stroke:black; " description="&lt;b&gt;NGLDBBKK_03661&lt;/b&gt;&lt;br&gt;Ribitol 2-dehydrogenase&lt;br&gt;Location: 117540 - 118275" locus_tag="NGLDBBKK_03661" class="clusterblast-orf" id="dummy-1_q9_0_all"  />
<polygon points="167,35 172,30 178,30 178,40 172,40 167,35 " style="fill:#15d851; stroke-width:1; stroke:black; " description="&lt;b&gt;NGLDBBKK_03662&lt;/b&gt;&lt;br&gt;hypothetical protein&lt;br&gt;Location: 118303 - 119062" locus_tag="NGLDBBKK_03662" class="clusterblast-orf" id="dummy-1_q10_0_all"  />
<polygon points="178,35 183,30 194,30 194,40 183,40 178,35 " style="fill:#d86f15; stroke-width:1; stroke:black; " description="&lt;b&gt;NGLDBBKK_03663&lt;/b&gt;&lt;br&gt;Putative aminoacrylate hydrolase RutD&lt;br&gt;Location: 119058 - 120180" locus_tag="NGLDBBKK_03663" class="clusterblast-orf" id="dummy-1_q11_0_all"  />
<polygon points="195,35 200,30 219,30 219,40 200,40 195,35 " style="fill:#1551d8; stroke-width:1; stroke:black; " description="&lt;b&gt;NGLDBBKK_03664&lt;/b&gt;&lt;br&gt;hypothetical protein&lt;br&gt;Location: 120219 - 121857" locus_tag="NGLDBBKK_03664" class="clusterblast-orf" id="dummy-1_q12_0_all"  />
<polygon points="222,40 223,40 228,35 223,30 222,30 222,40 " style="fill:#d815c9; stroke-width:1; stroke:black; " description="&lt;b&gt;NGLDBBKK_03665&lt;/b&gt;&lt;br&gt;hypothetical protein&lt;br&gt;Location: 122046 - 122409" locus_tag="NGLDBBKK_03665" class="clusterblast-orf" id="dummy-1_q13_0_all"  />
<polygon points="228,35 233,30 242,30 242,40 233,40 228,35 " style="fill:#d8c915; stroke-width:1; stroke:black; " description="&lt;b&gt;NGLDBBKK_03666&lt;/b&gt;&lt;br&gt;hypothetical protein&lt;br&gt;Location: 122436 - 123351" locus_tag="NGLDBBKK_03666" class="clusterblast-orf" id="dummy-1_q14_0_all"  />
<polygon points="242,35 247,30 257,30 257,40 247,40 242,35 " style="fill:#8d15d8; stroke-width:1; stroke:black; " description="&lt;b&gt;NGLDBBKK_03667&lt;/b&gt;&lt;br&gt;hypothetical protein&lt;br&gt;Location: 123369 - 124371" locus_tag="NGLDBBKK_03667" class="clusterblast-orf" id="dummy-1_q15_0_all"  />
<polygon points="262,40 270,40 275,35 270,30 262,30 262,40 " style="fill:#d8c915; stroke-width:1; stroke:black; " description="&lt;b&gt;NGLDBBKK_03668&lt;/b&gt;&lt;br&gt;hypothetical protein&lt;br&gt;Location: 124739 - 125624" locus_tag="NGLDBBKK_03668" class="clusterblast-orf" id="dummy-1_q16_0_all"  />
<polygon points="275,40 291,40 296,35 291,30 275,30 275,40 " style="fill:#d86f15; stroke-width:1; stroke:black; " description="&lt;b&gt;NGLDBBKK_03669&lt;/b&gt;&lt;br&gt;hypothetical protein&lt;br&gt;Location: 125628 - 126999" locus_tag="NGLDBBKK_03669" class="clusterblast-orf" id="dummy-1_q17_0_all"  />
<polygon points="296,35 301,30 367,30 367,40 301,40 296,35 " style="fill:#15d8ab; stroke-width:1; stroke:black; " description="&lt;b&gt;NGLDBBKK_03670&lt;/b&gt;&lt;br&gt;hypothetical protein&lt;br&gt;Location: 127002 - 131766" locus_tag="NGLDBBKK_03670" class="clusterblast-orf" id="dummy-1_q18_0_all"  />
<polygon points="367,35 372,30 488,30 488,40 372,40 367,35 " style="fill:#15d8ab; stroke-width:1; stroke:black; " description="&lt;b&gt;NGLDBBKK_03671&lt;/b&gt;&lt;br&gt;hypothetical protein&lt;br&gt;Location: 131762 - 139934" locus_tag="NGLDBBKK_03671" class="clusterblast-orf" id="dummy-1_q19_0_all"  />
<polygon points="489,35 494,30 502,30 502,40 494,40 489,35 " style="fill:white; stroke-width:1; stroke:black; " description="&lt;b&gt;NGLDBBKK_03672&lt;/b&gt;&lt;br&gt;hypothetical protein&lt;br&gt;Location: 140002 - 140842" locus_tag="NGLDBBKK_03672" class="clusterblast-orf" id="dummy-1_q20_0_all"  />
<polygon points="502,35 507,30 515,30 515,40 507,40 502,35 " style="fill:#3315d8; stroke-width:1; stroke:black; " description="&lt;b&gt;NGLDBBKK_03673&lt;/b&gt;&lt;br&gt;hypothetical protein&lt;br&gt;Location: 140863 - 141724" locus_tag="NGLDBBKK_03673" class="clusterblast-orf" id="dummy-1_q21_0_all"  />
<polygon points="515,35 520,30 532,30 532,40 520,40 515,35 " style="fill:#d8156f; stroke-width:1; stroke:black; " description="&lt;b&gt;NGLDBBKK_03674&lt;/b&gt;&lt;br&gt;Beta-barrel assembly-enhancing protease&lt;br&gt;Location: 141752 - 142904" locus_tag="NGLDBBKK_03674" class="clusterblast-orf" id="dummy-1_q22_0_all"  />
<polygon points="537,40 552,40 557,35 552,30 537,30 537,40 " style="fill:white; stroke-width:1; stroke:black; " description="&lt;b&gt;NGLDBBKK_03675&lt;/b&gt;&lt;br&gt;DNA repair protein RadA&lt;br&gt;Location: 143225 - 144590" locus_tag="NGLDBBKK_03675" class="clusterblast-orf" id="dummy-1_q23_0_all"  />
<polygon points="558,40 562,40 567,35 562,30 558,30 558,40 " style="fill:white; stroke-width:1; stroke:black; " description="&lt;b&gt;NGLDBBKK_03676&lt;/b&gt;&lt;br&gt;hypothetical protein&lt;br&gt;Location: 144650 - 145268" locus_tag="NGLDBBKK_03676" class="clusterblast-orf" id="dummy-1_q24_0_all"  />
<polygon points="571,40 588,40 593,35 588,30 571,30 571,40 " style="fill:white; stroke-width:1; stroke:black; " description="&lt;b&gt;NGLDBBKK_03677&lt;/b&gt;&lt;br&gt;Amidophosphoribosyltransferase&lt;br&gt;Location: 145532 - 146993" locus_tag="NGLDBBKK_03677" class="clusterblast-orf" id="dummy-1_q25_0_all"  />
<polygon points="594,40 608,40 613,35 608,30 594,30 594,40 " style="fill:white; stroke-width:1; stroke:black; " description="&lt;b&gt;NGLDBBKK_03678&lt;/b&gt;&lt;br&gt;hypothetical protein&lt;br&gt;Location: 147065 - 148343" locus_tag="NGLDBBKK_03678" class="clusterblast-orf" id="dummy-1_q26_0_all"  />
<polygon points="614,40 620,40 625,35 620,30 614,30 614,40 " style="fill:#15d851; stroke-width:1; stroke:black; " description="&lt;b&gt;NGLDBBKK_03679&lt;/b&gt;&lt;br&gt;hypothetical protein&lt;br&gt;Location: 148432 - 149119" locus_tag="NGLDBBKK_03679" class="clusterblast-orf" id="dummy-1_q27_0_all"  />
<polygon points="626,40 633,40 638,35 633,30 626,30 626,40 " style="fill:white; stroke-width:1; stroke:black; " description="&lt;b&gt;NGLDBBKK_03680&lt;/b&gt;&lt;br&gt;5'-nucleotidase SurE&lt;br&gt;Location: 149232 - 150018" locus_tag="NGLDBBKK_03680" class="clusterblast-orf" id="dummy-1_q28_0_all"  />
<polygon points="638,40 643,40 648,35 643,30 638,30 638,40 " style="fill:white; stroke-width:1; stroke:black; " description="&lt;b&gt;NGLDBBKK_03681&lt;/b&gt;&lt;br&gt;Protein-L-isoaspartate O-methyltransferase&lt;br&gt;Location: 150014 - 150674" locus_tag="NGLDBBKK_03681" class="clusterblast-orf" id="dummy-1_q29_0_all"  />
<polygon points="649,40 662,40 667,35 662,30 649,30 649,40 " style="fill:white; stroke-width:1; stroke:black; " description="&lt;b&gt;NGLDBBKK_03682&lt;/b&gt;&lt;br&gt;hypothetical protein&lt;br&gt;Location: 150739 - 151951" locus_tag="NGLDBBKK_03682" class="clusterblast-orf" id="dummy-1_q30_0_all"  />
<polygon points="670,35 675,30 683,30 683,40 675,40 670,35 " style="fill:white; stroke-width:1; stroke:black; " description="&lt;b&gt;NGLDBBKK_03683&lt;/b&gt;&lt;br&gt;hypothetical protein&lt;br&gt;Location: 152190 - 153033" locus_tag="NGLDBBKK_03683" class="clusterblast-orf" id="dummy-1_q31_0_all"  />
<polygon points="683,35 688,30 696,30 696,40 688,40 683,35 " style="fill:white; stroke-width:1; stroke:black; " description="&lt;b&gt;NGLDBBKK_03684&lt;/b&gt;&lt;br&gt;Sec-independent protein translocase protein TatC&lt;br&gt;Location: 153029 - 153911" locus_tag="NGLDBBKK_03684" class="clusterblast-orf" id="dummy-1_q32_0_all"  />
<polygon points="696,35 701,30 705,30 705,40 701,40 696,35 " style="fill:white; stroke-width:1; stroke:black; " description="&lt;b&gt;NGLDBBKK_03685&lt;/b&gt;&lt;br&gt;Sec-independent protein translocase protein TatB&lt;br&gt;Location: 153907 - 154549" locus_tag="NGLDBBKK_03685" class="clusterblast-orf" id="dummy-1_q33_0_all"  />
<polygon points="706,35 710,30 710,40 706,35 " style="fill:white; stroke-width:1; stroke:black; " description="&lt;b&gt;NGLDBBKK_03686&lt;/b&gt;&lt;br&gt;Sec-independent protein translocase protein TatA&lt;br&gt;Location: 154617 - 154878" locus_tag="NGLDBBKK_03686" class="clusterblast-orf" id="dummy-1_q34_0_all"  />
<polygon points="716,35 721,30 733,30 733,40 721,40 716,35 " style="fill:#8dd815; stroke-width:1; stroke:black; " description="&lt;b&gt;NGLDBBKK_03687&lt;/b&gt;&lt;br&gt;Vitamin B12 import ATP-binding protein BtuD&lt;br&gt;Location: 155300 - 156419" locus_tag="NGLDBBKK_03687" class="clusterblast-orf" id="dummy-1_q35_0_all"  />
<polygon points="740,35 745,30 749,30 749,40 745,40 740,35 " style="fill:white; stroke-width:1; stroke:black; " description="&lt;b&gt;NGLDBBKK_03688&lt;/b&gt;&lt;br&gt;hypothetical protein&lt;br&gt;Location: 156901 - 157513" locus_tag="NGLDBBKK_03688" class="clusterblast-orf" id="dummy-1_q36_0_all"  />
<polygon points="750,35 755,30 761,30 761,40 755,40 750,35 " style="fill:white; stroke-width:1; stroke:black; " description="&lt;b&gt;NGLDBBKK_03689&lt;/b&gt;&lt;br&gt;3-oxoacyl-[acyl-carrier-protein] reductase FabG&lt;br&gt;Location: 157524 - 158301" locus_tag="NGLDBBKK_03689" class="clusterblast-orf" id="dummy-1_q37_0_all"  />
<polygon points="764,40 774,40 779,35 774,30 764,30 764,40 " style="fill:white; stroke-width:1; stroke:black; " description="&lt;b&gt;NGLDBBKK_03690&lt;/b&gt;&lt;br&gt;hypothetical protein&lt;br&gt;Location: 158497 - 159538" locus_tag="NGLDBBKK_03690" class="clusterblast-orf" id="dummy-1_q38_0_all"  />
</g>
<g label="NZ_CP048630" description="NZ_CP048630 (3552803-3605933): Ancylobacter pratisalsi strain DSM 102029 chro... (52% of genes show similarity), T1PKS,hglE-KS" class="clusterblast-cluster"  >
<text x="5" y="70" class="clusterblast-acc"  >
<a xlink:href="https://antismash-db.secondarymetabolites.org/area.html?record=NZ_CP048630&amp;start=3552803&amp;end=3605933" target="_blank">NZ_CP048630 (3552803-3605933)</a>: Ancylobacter pratisalsi strain DSM 102029 chro... (52% of genes show similarity), T1PKS,hglE-KS</text>
<line x1="10" y1="85" x2="778.0" y2="85" style="stroke-width:1; stroke:grey; "  />
</g>
<g id="a1_000"  >
<polygon points="0,85 3,80 3,90 0,85 " style="fill:white; stroke-width:1; stroke:black; " description="&lt;b&gt;G3A50_RS16690&lt;/b&gt;&lt;br&gt;hypothetical protein&lt;br&gt;Location: 3553427 - 3553654" locus_tag="G3A50_RS16690" class="clusterblast-orf" id="dummy-1_h1_2_0"  />
</g>
<g id="a1_001"  >
<polygon points="5,90 21,90 26,85 21,80 5,80 5,90 " style="fill:white; stroke-width:1; stroke:black; " description="&lt;b&gt;G3A50_RS16695&lt;/b&gt;&lt;br&gt;DUF2083 domain-containing protein&lt;br&gt;Location: 3553798 - 3555213" locus_tag="G3A50_RS16695" class="clusterblast-orf" id="dummy-1_h1_2_1"  />
</g>
<g id="a1_002"  >
<polygon points="29,85 33,80 33,90 29,85 " style="fill:white; stroke-width:1; stroke:black; " description="&lt;b&gt;G3A50_RS16700&lt;/b&gt;&lt;br&gt;hypothetical protein&lt;br&gt;Location: 3555407 - 3555664" locus_tag="G3A50_RS16700" class="clusterblast-orf" id="dummy-1_h1_2_2"  />
</g>
<g id="a1_003"  >
<polygon points="36,85 40,80 40,90 36,85 " style="fill:#33d815; stroke-width:1; stroke:black; " description="&lt;b&gt;G3A50_RS16705&lt;/b&gt;&lt;br&gt;acyl carrier protein&lt;br&gt;Location: 3555865 - 3556158&lt;br&gt;&lt;br&gt;&lt;b&gt;BlastP hit with NGLDBBKK_03657&lt;/b&gt;&lt;br&gt;Percentage identity: 61&lt;br&gt;Percentage coverage: 91&lt;br&gt;BLAST bit score: 104&lt;br&gt;E-value: 8.17e-29" locus_tag="G3A50_RS16705" class="clusterblast-orf" id="dummy-1_h1_2_3"  />
</g>
<g id="a1_004"  >
<polygon points="45,85 50,80 59,80 59,90 50,90 45,85 " style="fill:#15abd8; stroke-width:1; stroke:black; " description="&lt;b&gt;G3A50_RS16710&lt;/b&gt;&lt;br&gt;methyltransferase domain-containing protein&lt;br&gt;Location: 3556519 - 3557400&lt;br&gt;&lt;br&gt;&lt;b&gt;BlastP hit with NGLDBBKK_03658&lt;/b&gt;&lt;br&gt;Percentage identity: 59&lt;br&gt;Percentage coverage: 100&lt;br&gt;BLAST bit score: 351&lt;br&gt;E-value: 2.63e-120" locus_tag="G3A50_RS16710" class="clusterblast-orf" id="dummy-1_h1_2_4"  />
</g>
<g id="a1_005"  >
<polygon points="59,85 64,80 73,80 73,90 64,90 59,85 " style="fill:#8d15d8; stroke-width:1; stroke:black; " description="&lt;b&gt;G3A50_RS16715&lt;/b&gt;&lt;br&gt;hypothetical protein&lt;br&gt;Location: 3557419 - 3558387&lt;br&gt;&lt;br&gt;&lt;b&gt;BlastP hit with NGLDBBKK_03659&lt;/b&gt;&lt;br&gt;Percentage identity: 32&lt;br&gt;Percentage coverage: 80&lt;br&gt;BLAST bit score: 88&lt;br&gt;E-value: 9.77e-18" locus_tag="G3A50_RS16715" class="clusterblast-orf" id="dummy-1_h1_2_5"  />
</g>
<g id="a1_006"  >
<polygon points="73,85 78,80 96,80 96,90 78,90 73,85 " style="fill:#d86f15; stroke-width:1; stroke:black; " description="&lt;b&gt;G3A50_RS16720&lt;/b&gt;&lt;br&gt;hypothetical protein&lt;br&gt;Location: 3558387 - 3559889&lt;br&gt;&lt;br&gt;&lt;b&gt;BlastP hit with NGLDBBKK_03660&lt;/b&gt;&lt;br&gt;Percentage identity: 66&lt;br&gt;Percentage coverage: 97&lt;br&gt;BLAST bit score: 697&lt;br&gt;E-value: 6.48e-250" locus_tag="G3A50_RS16720" class="clusterblast-orf" id="dummy-1_h1_2_6"  />
</g>
<g id="a1_007"  >
<polygon points="96,85 101,80 107,80 107,90 101,90 96,85 " style="fill:#15d851; stroke-width:1; stroke:black; " description="&lt;b&gt;G3A50_RS16725&lt;/b&gt;&lt;br&gt;SDR family NAD(P)-dependent oxidoreductase&lt;br&gt;Location: 3559889 - 3560665&lt;br&gt;&lt;br&gt;&lt;b&gt;BlastP hit with NGLDBBKK_03661&lt;/b&gt;&lt;br&gt;Percentage identity: 64&lt;br&gt;Percentage coverage: 99&lt;br&gt;BLAST bit score: 290&lt;br&gt;E-value: 1.16e-97&lt;br&gt;&lt;br&gt;&lt;b&gt;BlastP hit with NGLDBBKK_03662&lt;/b&gt;&lt;br&gt;Percentage identity: 40&lt;br&gt;Percentage coverage: 100&lt;br&gt;BLAST bit score: 136&lt;br&gt;E-value: 3.25e-37" locus_tag="G3A50_RS16725" class="clusterblast-orf" id="dummy-1_h1_2_7"  />
</g>
<g id="a1_008"  >
<polygon points="107,85 112,80 119,80 119,90 112,90 107,85 " style="fill:#15d851; stroke-width:1; stroke:black; " description="&lt;b&gt;G3A50_RS16730&lt;/b&gt;&lt;br&gt;SDR family NAD(P)-dependent oxidoreductase&lt;br&gt;Location: 3560685 - 3561452&lt;br&gt;&lt;br&gt;&lt;b&gt;BlastP hit with NGLDBBKK_03662&lt;/b&gt;&lt;br&gt;Percentage identity: 59&lt;br&gt;Percentage coverage: 96&lt;br&gt;BLAST bit score: 260&lt;br&gt;E-value: 1.38e-85" locus_tag="G3A50_RS16730" class="clusterblast-orf" id="dummy-1_h1_2_8"  />
</g>
<g id="a1_009"  >
<polygon points="119,85 124,80 133,80 133,90 124,90 119,85 " style="fill:#d86f15; stroke-width:1; stroke:black; " description="&lt;b&gt;G3A50_RS16735&lt;/b&gt;&lt;br&gt;alpha/beta fold hydrolase&lt;br&gt;Location: 3561454 - 3562413&lt;br&gt;&lt;br&gt;&lt;b&gt;BlastP hit with NGLDBBKK_03663&lt;/b&gt;&lt;br&gt;Percentage identity: 46&lt;br&gt;Percentage coverage: 94&lt;br&gt;BLAST bit score: 288&lt;br&gt;E-value: 5.08e-94" locus_tag="G3A50_RS16735" class="clusterblast-orf" id="dummy-1_h1_2_9"  />
</g>
<g id="a1_0010"  >
<polygon points="134,85 139,80 157,80 157,90 139,90 134,85 " style="fill:#1551d8; stroke-width:1; stroke:black; " description="&lt;b&gt;G3A50_RS16740&lt;/b&gt;&lt;br&gt;alkaline phosphatase family protein&lt;br&gt;Location: 3562473 - 3564050&lt;br&gt;&lt;br&gt;&lt;b&gt;BlastP hit with NGLDBBKK_03664&lt;/b&gt;&lt;br&gt;Percentage identity: 65&lt;br&gt;Percentage coverage: 96&lt;br&gt;BLAST bit score: 724&lt;br&gt;E-value: 1.52e-259" locus_tag="G3A50_RS16740" class="clusterblast-orf" id="dummy-1_h1_2_10"  />
</g>
<g id="a1_0011"  >
<polygon points="162,90 164,90 169,85 164,80 162,80 162,90 " style="fill:white; stroke-width:1; stroke:black; " description="&lt;b&gt;G3A50_RS16745&lt;/b&gt;&lt;br&gt;hypothetical protein&lt;br&gt;Location: 3564326 - 3564799" locus_tag="G3A50_RS16745" class="clusterblast-orf" id="dummy-1_h1_2_11"  />
</g>
<g id="a1_0012"  >
<polygon points="170,85 175,80 180,80 180,90 175,90 170,85 " style="fill:#d8c915; stroke-width:1; stroke:black; " description="&lt;b&gt;G3A50_RS16750&lt;/b&gt;&lt;br&gt;sulfotransferase&lt;br&gt;Location: 3564867 - 3565592&lt;br&gt;&lt;br&gt;&lt;b&gt;BlastP hit with NGLDBBKK_03666&lt;/b&gt;&lt;br&gt;Percentage identity: 31&lt;br&gt;Percentage coverage: 87&lt;br&gt;BLAST bit score: 108&lt;br&gt;E-value: 6.12e-26&lt;br&gt;&lt;br&gt;&lt;b&gt;BlastP hit with NGLDBBKK_03668&lt;/b&gt;&lt;br&gt;Percentage identity: 32&lt;br&gt;Percentage coverage: 89&lt;br&gt;BLAST bit score: 122&lt;br&gt;E-value: 1.95e-31" locus_tag="G3A50_RS16750" class="clusterblast-orf" id="dummy-1_h1_2_12"  />
</g>
<g id="a1_0013"  >
<polygon points="182,85 187,80 233,80 233,90 187,90 182,85 " style="fill:#d81515; stroke-width:1; stroke:black; " description="&lt;b&gt;G3A50_RS16755&lt;/b&gt;&lt;br&gt;HlyD family efflux transporter periplasmic adaptor subunit&lt;br&gt;Location: 3565698 - 3569162&lt;br&gt;&lt;br&gt;&lt;b&gt;BlastP hit with NGLDBBKK_03655&lt;/b&gt;&lt;br&gt;Percentage identity: 49&lt;br&gt;Percentage coverage: 62&lt;br&gt;BLAST bit score: 557&lt;br&gt;E-value: 2.65e-178" locus_tag="G3A50_RS16755" class="clusterblast-orf" id="dummy-1_h1_2_13"  />
</g>
<g id="a1_0014"  >
<polygon points="246,90 257,90 262,85 257,80 246,80 246,90 " style="fill:#d8156f; stroke-width:1; stroke:black; " description="&lt;b&gt;G3A50_RS16760&lt;/b&gt;&lt;br&gt;tetratricopeptide repeat protein&lt;br&gt;Location: 3570024 - 3571067&lt;br&gt;&lt;br&gt;&lt;b&gt;BlastP hit with NGLDBBKK_03674&lt;/b&gt;&lt;br&gt;Percentage identity: 47&lt;br&gt;Percentage coverage: 15&lt;br&gt;BLAST bit score: 56&lt;br&gt;E-value: 1.04e-06" locus_tag="G3A50_RS16760" class="clusterblast-orf" id="dummy-1_h1_2_14"  />
</g>
<g id="a1_0015"  >
<polygon points="262,90 269,90 274,85 269,80 262,80 262,90 " style="fill:#3315d8; stroke-width:1; stroke:black; " description="&lt;b&gt;G3A50_RS16765&lt;/b&gt;&lt;br&gt;sulfatase-like hydrolase/transferase&lt;br&gt;Location: 3571087 - 3571920&lt;br&gt;&lt;br&gt;&lt;b&gt;BlastP hit with NGLDBBKK_03673&lt;/b&gt;&lt;br&gt;Percentage identity: 64&lt;br&gt;Percentage coverage: 98&lt;br&gt;BLAST bit score: 381&lt;br&gt;E-value: 1.48e-132" locus_tag="G3A50_RS16765" class="clusterblast-orf" id="dummy-1_h1_2_15"  />
</g>
<g id="a1_0016"  >
<polygon points="276,90 281,90 286,85 281,80 276,80 276,90 " style="fill:white; stroke-width:1; stroke:black; " description="&lt;b&gt;G3A50_RS16770&lt;/b&gt;&lt;br&gt;hypothetical protein&lt;br&gt;Location: 3572005 - 3572682" locus_tag="G3A50_RS16770" class="clusterblast-orf" id="dummy-1_h1_2_16"  />
</g>
<g id="a1_0017"  >
<polygon points="288,90 406,90 411,85 406,80 288,80 288,90 " style="fill:#15d8ab; stroke-width:1; stroke:black; " description="&lt;b&gt;G3A50_RS16775&lt;/b&gt;&lt;br&gt;SDR family NAD(P)-dependent oxidoreductase&lt;br&gt;Location: 3572804 - 3581116&lt;br&gt;&lt;br&gt;&lt;b&gt;BlastP hit with NGLDBBKK_03670&lt;/b&gt;&lt;br&gt;Percentage identity: 35&lt;br&gt;Percentage coverage: 60&lt;br&gt;BLAST bit score: 425&lt;br&gt;E-value: 7.17e-120&lt;br&gt;&lt;br&gt;&lt;b&gt;BlastP hit with NGLDBBKK_03671&lt;/b&gt;&lt;br&gt;Percentage identity: 57&lt;br&gt;Percentage coverage: 103&lt;br&gt;BLAST bit score: 2590&lt;br&gt;E-value: 0.0" locus_tag="G3A50_RS16775" class="clusterblast-orf" id="dummy-1_h1_2_17"  />
</g>
<g id="a1_0018"  >
<polygon points="412,90 478,90 483,85 478,80 412,80 412,90 " style="fill:#15d8ab; stroke-width:1; stroke:black; " description="&lt;b&gt;G3A50_RS16780&lt;/b&gt;&lt;br&gt;acyltransferase domain-containing protein&lt;br&gt;Location: 3581149 - 3585933&lt;br&gt;&lt;br&gt;&lt;b&gt;BlastP hit with NGLDBBKK_03670&lt;/b&gt;&lt;br&gt;Percentage identity: 56&lt;br&gt;Percentage coverage: 102&lt;br&gt;BLAST bit score: 1552&lt;br&gt;E-value: 0.0&lt;br&gt;&lt;br&gt;&lt;b&gt;BlastP hit with NGLDBBKK_03671&lt;/b&gt;&lt;br&gt;Percentage identity: 36&lt;br&gt;Percentage coverage: 40&lt;br&gt;BLAST bit score: 442&lt;br&gt;E-value: 2.89e-125" locus_tag="G3A50_RS16780" class="clusterblast-orf" id="dummy-1_h1_2_18"  />
</g>
<g id="a1_0019"  >
<polygon points="483,85 488,80 503,80 503,90 488,90 483,85 " style="fill:#d86f15; stroke-width:1; stroke:black; " description="&lt;b&gt;G3A50_RS16785&lt;/b&gt;&lt;br&gt;hypothetical protein&lt;br&gt;Location: 3585934 - 3587304&lt;br&gt;&lt;br&gt;&lt;b&gt;BlastP hit with NGLDBBKK_03660&lt;/b&gt;&lt;br&gt;Percentage identity: 36&lt;br&gt;Percentage coverage: 90&lt;br&gt;BLAST bit score: 201&lt;br&gt;E-value: 4.89e-57&lt;br&gt;&lt;br&gt;&lt;b&gt;BlastP hit with NGLDBBKK_03669&lt;/b&gt;&lt;br&gt;Percentage identity: 42&lt;br&gt;Percentage coverage: 101&lt;br&gt;BLAST bit score: 330&lt;br&gt;E-value: 3.33e-107" locus_tag="G3A50_RS16785" class="clusterblast-orf" id="dummy-1_h1_2_19"  />
</g>
<g id="a1_0020"  >
<polygon points="503,85 508,80 516,80 516,90 508,90 503,85 " style="fill:#d8c915; stroke-width:1; stroke:black; " description="&lt;b&gt;G3A50_RS16790&lt;/b&gt;&lt;br&gt;sulfotransferase&lt;br&gt;Location: 3587304 - 3588206&lt;br&gt;&lt;br&gt;&lt;b&gt;BlastP hit with NGLDBBKK_03668&lt;/b&gt;&lt;br&gt;Percentage identity: 51&lt;br&gt;Percentage coverage: 102&lt;br&gt;BLAST bit score: 323&lt;br&gt;E-value: 5.52e-109" locus_tag="G3A50_RS16790" class="clusterblast-orf" id="dummy-1_h1_2_20"  />
</g>
<g id="a1_0021"  >
<polygon points="518,85 523,80 539,80 539,90 523,90 518,85 " style="fill:#d86f15; stroke-width:1; stroke:black; " description="&lt;b&gt;G3A50_RS16795&lt;/b&gt;&lt;br&gt;hypothetical protein&lt;br&gt;Location: 3588330 - 3589721&lt;br&gt;&lt;br&gt;&lt;b&gt;BlastP hit with NGLDBBKK_03660&lt;/b&gt;&lt;br&gt;Percentage identity: 37&lt;br&gt;Percentage coverage: 99&lt;br&gt;BLAST bit score: 278&lt;br&gt;E-value: 3.13e-86&lt;br&gt;&lt;br&gt;&lt;b&gt;BlastP hit with NGLDBBKK_03669&lt;/b&gt;&lt;br&gt;Percentage identity: 48&lt;br&gt;Percentage coverage: 101&lt;br&gt;BLAST bit score: 412&lt;br&gt;E-value: 4.67e-139" locus_tag="G3A50_RS16795" class="clusterblast-orf" id="dummy-1_h1_2_21"  />
</g>
<g id="a1_0022"  >
<polygon points="539,85 544,80 553,80 553,90 544,90 539,85 " style="fill:#d8c915; stroke-width:1; stroke:black; " description="&lt;b&gt;G3A50_RS16800&lt;/b&gt;&lt;br&gt;sulfotransferase&lt;br&gt;Location: 3589721 - 3590665&lt;br&gt;&lt;br&gt;&lt;b&gt;BlastP hit with NGLDBBKK_03668&lt;/b&gt;&lt;br&gt;Percentage identity: 53&lt;br&gt;Percentage coverage: 100&lt;br&gt;BLAST bit score: 324&lt;br&gt;E-value: 2.18e-109" locus_tag="G3A50_RS16800" class="clusterblast-orf" id="dummy-1_h1_2_22"  />
</g>
<g id="a1_0023"  >
<polygon points="554,85 559,80 567,80 567,90 559,90 554,85 " style="fill:#d8c915; stroke-width:1; stroke:black; " description="&lt;b&gt;G3A50_RS16805&lt;/b&gt;&lt;br&gt;sulfotransferase&lt;br&gt;Location: 3590723 - 3591625&lt;br&gt;&lt;br&gt;&lt;b&gt;BlastP hit with NGLDBBKK_03668&lt;/b&gt;&lt;br&gt;Percentage identity: 43&lt;br&gt;Percentage coverage: 90&lt;br&gt;BLAST bit score: 192&lt;br&gt;E-value: 1.21e-57" locus_tag="G3A50_RS16805" class="clusterblast-orf" id="dummy-1_h1_2_23"  />
</g>
<g id="a1_0024"  >
<polygon points="569,85 574,80 577,80 577,90 574,90 569,85 " style="fill:white; stroke-width:1; stroke:black; " description="&lt;b&gt;G3A50_RS16810&lt;/b&gt;&lt;br&gt;hypothetical protein&lt;br&gt;Location: 3591738 - 3592274" locus_tag="G3A50_RS16810" class="clusterblast-orf" id="dummy-1_h1_2_24"  />
</g>
<g id="a1_0025"  >
<polygon points="577,90 585,90 590,85 585,80 577,80 577,90 " style="fill:#8d15d8; stroke-width:1; stroke:black; " description="&lt;b&gt;G3A50_RS16815&lt;/b&gt;&lt;br&gt;alpha/beta hydrolase fold domain-containing protein&lt;br&gt;Location: 3592266 - 3593183&lt;br&gt;&lt;br&gt;&lt;b&gt;BlastP hit with NGLDBBKK_03659&lt;/b&gt;&lt;br&gt;Percentage identity: 33&lt;br&gt;Percentage coverage: 70&lt;br&gt;BLAST bit score: 89&lt;br&gt;E-value: 2.22e-18&lt;br&gt;&lt;br&gt;&lt;b&gt;BlastP hit with NGLDBBKK_03667&lt;/b&gt;&lt;br&gt;Percentage identity: 47&lt;br&gt;Percentage coverage: 83&lt;br&gt;BLAST bit score: 234&lt;br&gt;E-value: 2.15e-73" locus_tag="G3A50_RS16815" class="clusterblast-orf" id="dummy-1_h1_2_25"  />
</g>
<g id="a1_0026"  >
<polygon points="592,90 600,90 605,85 600,80 592,80 592,90 " style="fill:white; stroke-width:1; stroke:black; " description="&lt;b&gt;G3A50_RS16820&lt;/b&gt;&lt;br&gt;3'(2'),5'-bisphosphate nucleotidase CysQ&lt;br&gt;Location: 3593307 - 3594152" locus_tag="G3A50_RS16820" class="clusterblast-orf" id="dummy-1_h1_2_26"  />
</g>
<g id="a1_0027"  >
<polygon points="606,90 614,90 619,85 614,80 606,80 606,90 " style="fill:white; stroke-width:1; stroke:black; " description="&lt;b&gt;G3A50_RS16825&lt;/b&gt;&lt;br&gt;sulfate adenylyltransferase subunit CysD&lt;br&gt;Location: 3594209 - 3595102" locus_tag="G3A50_RS16825" class="clusterblast-orf" id="dummy-1_h1_2_27"  />
</g>
<g id="a1_0028"  >
<polygon points="619,90 642,90 647,85 642,80 619,80 619,90 " style="fill:white; stroke-width:1; stroke:black; " description="&lt;b&gt;G3A50_RS16830&lt;/b&gt;&lt;br&gt;sulfate adenylyltransferase subunit CysN&lt;br&gt;Location: 3595102 - 3596997" locus_tag="G3A50_RS16830" class="clusterblast-orf" id="dummy-1_h1_2_28"  />
</g>
<g id="a1_0029"  >
<polygon points="649,90 654,90 659,85 654,80 649,80 649,90 " style="fill:white; stroke-width:1; stroke:black; " description="&lt;b&gt;G3A50_RS16835&lt;/b&gt;&lt;br&gt;flavin reductase&lt;br&gt;Location: 3597118 - 3597792" locus_tag="G3A50_RS16835" class="clusterblast-orf" id="dummy-1_h1_2_29"  />
</g>
<g id="a1_0030"  >
<polygon points="661,90 664,85 661,80 661,90 " style="fill:white; stroke-width:1; stroke:black; " description="&lt;b&gt;G3A50_RS16840&lt;/b&gt;&lt;br&gt;hypothetical protein&lt;br&gt;Location: 3597899 - 3598147" locus_tag="G3A50_RS16840" class="clusterblast-orf" id="dummy-1_h1_2_30"  />
</g>
<g id="a1_0031"  >
<polygon points="666,90 679,90 684,85 679,80 666,80 666,90 " style="fill:white; stroke-width:1; stroke:black; " description="&lt;b&gt;G3A50_RS16845&lt;/b&gt;&lt;br&gt;transporter substrate-binding protein&lt;br&gt;Location: 3598295 - 3599452" locus_tag="G3A50_RS16845" class="clusterblast-orf" id="dummy-1_h1_2_31"  />
</g>
<g id="a1_0032"  >
<polygon points="684,90 688,90 693,85 688,80 684,80 684,90 " style="fill:white; stroke-width:1; stroke:black; " description="&lt;b&gt;G3A50_RS16850&lt;/b&gt;&lt;br&gt;ANTAR domain-containing protein&lt;br&gt;Location: 3599480 - 3600088" locus_tag="G3A50_RS16850" class="clusterblast-orf" id="dummy-1_h1_2_32"  />
</g>
<g id="a1_0033"  >
<polygon points="697,90 704,90 709,85 704,80 697,80 697,90 " style="fill:white; stroke-width:1; stroke:black; " description="&lt;b&gt;G3A50_RS16855&lt;/b&gt;&lt;br&gt;hydratase&lt;br&gt;Location: 3600320 - 3601189" locus_tag="G3A50_RS16855" class="clusterblast-orf" id="dummy-1_h1_2_33"  />
</g>
<g id="a1_0034"  >
<polygon points="710,90 723,90 728,85 723,80 710,80 710,90 " style="fill:white; stroke-width:1; stroke:black; " description="&lt;b&gt;G3A50_RS16860&lt;/b&gt;&lt;br&gt;ABC transporter substrate-binding protein&lt;br&gt;Location: 3601258 - 3602412" locus_tag="G3A50_RS16860" class="clusterblast-orf" id="dummy-1_h1_2_34"  />
</g>
<g id="a1_0035"  >
<polygon points="730,90 737,90 742,85 737,80 730,80 730,90 " style="fill:white; stroke-width:1; stroke:black; " description="&lt;b&gt;G3A50_RS16865&lt;/b&gt;&lt;br&gt;branched-chain amino acid ABC transporter permease&lt;br&gt;Location: 3602552 - 3603388" locus_tag="G3A50_RS16865" class="clusterblast-orf" id="dummy-1_h1_2_35"  />
</g>
<g id="a1_0036"  >
<polygon points="742,90 764,90 769,85 764,80 742,80 742,90 " style="fill:white; stroke-width:1; stroke:black; " description="&lt;b&gt;G3A50_RS16870&lt;/b&gt;&lt;br&gt;ATP-binding cassette domain-containing protein&lt;br&gt;Location: 3603381 - 3605195" locus_tag="G3A50_RS16870" class="clusterblast-orf" id="dummy-1_h1_2_36"  />
</g>
<g id="a1_0037"  >
<polygon points="769,90 775,90 780,85 775,80 769,80 769,90 " style="fill:white; stroke-width:1; stroke:black; " description="&lt;b&gt;G3A50_RS16875&lt;/b&gt;&lt;br&gt;ATP-binding cassette domain-containing protein&lt;br&gt;Location: 3605207 - 3605902" locus_tag="G3A50_RS16875" class="clusterblast-orf" id="dummy-1_h1_2_37"  />
</g>
</svg>
