<svg xmlns="http://www.w3.org/2000/svg" xmlns:xlink="http://www.w3.org/1999/xlink" version="1.1" x="0" y="0" height="230" width="800" viewBox="0 0 800 230" preserveAspectRatio="none"  >
<g label="Query sequence" class="clusterblast-cluster"  >
<text x="5" y="20" class="clusterblast-acc"  >
Query sequence</text>
<line x1="10" y1="35" x2="778.0" y2="35" style="stroke-width:1; stroke:grey; "  />
<polygon points="0,40 16,40 21,35 16,30 0,30 0,40 " style="fill:#d81515; stroke-width:1; stroke:black; " description="&lt;b&gt;NGLDBBKK_03777&lt;/b&gt;&lt;br&gt;50S ribosomal protein L5&lt;br&gt;Location: 6709 - 7270" locus_tag="NGLDBBKK_03777" class="clusterblast-orf" id="dummy-1_q0_0_all"  />
<polygon points="22,40 29,40 34,35 29,30 22,30 22,40 " style="fill:#6cd815; stroke-width:1; stroke:black; " description="&lt;b&gt;NGLDBBKK_03778&lt;/b&gt;&lt;br&gt;30S ribosomal protein S14&lt;br&gt;Location: 7290 - 7596" locus_tag="NGLDBBKK_03778" class="clusterblast-orf" id="dummy-1_q1_0_all"  />
<polygon points="34,40 45,40 50,35 45,30 34,30 34,40 " style="fill:#15c3d8; stroke-width:1; stroke:black; " description="&lt;b&gt;NGLDBBKK_03779&lt;/b&gt;&lt;br&gt;30S ribosomal protein S8&lt;br&gt;Location: 7608 - 8007" locus_tag="NGLDBBKK_03779" class="clusterblast-orf" id="dummy-1_q2_0_all"  />
<polygon points="50,40 66,40 71,35 66,30 50,30 50,40 " style="fill:#9715d8; stroke-width:1; stroke:black; " description="&lt;b&gt;NGLDBBKK_03780&lt;/b&gt;&lt;br&gt;50S ribosomal protein L6&lt;br&gt;Location: 8017 - 8551" locus_tag="NGLDBBKK_03780" class="clusterblast-orf" id="dummy-1_q3_0_all"  />
<polygon points="71,40 80,40 85,35 80,30 71,30 71,40 " style="fill:#d84115; stroke-width:1; stroke:black; " description="&lt;b&gt;NGLDBBKK_03781&lt;/b&gt;&lt;br&gt;50S ribosomal protein L18&lt;br&gt;Location: 8563 - 8923" locus_tag="NGLDBBKK_03781" class="clusterblast-orf" id="dummy-1_q4_0_all"  />
<polygon points="85,40 102,40 107,35 102,30 85,30 85,40 " style="fill:#41d815; stroke-width:1; stroke:black; " description="&lt;b&gt;NGLDBBKK_03782&lt;/b&gt;&lt;br&gt;30S ribosomal protein S5&lt;br&gt;Location: 8932 - 9499" locus_tag="NGLDBBKK_03782" class="clusterblast-orf" id="dummy-1_q5_0_all"  />
<polygon points="107,40 110,40 115,35 110,30 107,30 107,40 " style="fill:#1597d8; stroke-width:1; stroke:black; " description="&lt;b&gt;NGLDBBKK_03783&lt;/b&gt;&lt;br&gt;50S ribosomal protein L30&lt;br&gt;Location: 9511 - 9700" locus_tag="NGLDBBKK_03783" class="clusterblast-orf" id="dummy-1_q6_0_all"  />
<polygon points="120,40 122,40 127,35 122,30 120,30 120,40 " style="fill:#c315d8; stroke-width:1; stroke:black; " description="&lt;b&gt;NGLDBBKK_03784&lt;/b&gt;&lt;br&gt;hypothetical protein&lt;br&gt;Location: 9832 - 10021" locus_tag="NGLDBBKK_03784" class="clusterblast-orf" id="dummy-1_q7_0_all"  />
<polygon points="132,40 145,40 150,35 145,30 132,30 132,40 " style="fill:#d86c15; stroke-width:1; stroke:black; " description="&lt;b&gt;NGLDBBKK_03785&lt;/b&gt;&lt;br&gt;50S ribosomal protein L15&lt;br&gt;Location: 10146 - 10626" locus_tag="NGLDBBKK_03785" class="clusterblast-orf" id="dummy-1_q8_0_all"  />
<polygon points="154,40 202,40 207,35 202,30 154,30 154,40 " style="fill:#15d815; stroke-width:1; stroke:black; " description="&lt;b&gt;NGLDBBKK_03786&lt;/b&gt;&lt;br&gt;Protein translocase subunit SecY&lt;br&gt;Location: 10731 - 12093" locus_tag="NGLDBBKK_03786" class="clusterblast-orf" id="dummy-1_q9_0_all"  />
<polygon points="208,40 229,40 234,35 229,30 208,30 208,40 " style="fill:#156cd8; stroke-width:1; stroke:black; " description="&lt;b&gt;NGLDBBKK_03787&lt;/b&gt;&lt;br&gt;Adenylate kinase&lt;br&gt;Location: 12132 - 12801" locus_tag="NGLDBBKK_03787" class="clusterblast-orf" id="dummy-1_q10_0_all"  />
<polygon points="242,40 251,40 256,35 251,30 242,30 242,40 " style="fill:#d815c3; stroke-width:1; stroke:black; " description="&lt;b&gt;NGLDBBKK_03788&lt;/b&gt;&lt;br&gt;30S ribosomal protein S13&lt;br&gt;Location: 13017 - 13386" locus_tag="NGLDBBKK_03788" class="clusterblast-orf" id="dummy-1_q11_0_all"  />
<polygon points="257,40 267,40 272,35 267,30 257,30 257,40 " style="fill:#d89715; stroke-width:1; stroke:black; " description="&lt;b&gt;NGLDBBKK_03789&lt;/b&gt;&lt;br&gt;30S ribosomal protein S11&lt;br&gt;Location: 13401 - 13791" locus_tag="NGLDBBKK_03789" class="clusterblast-orf" id="dummy-1_q12_0_all"  />
<polygon points="276,40 310,40 315,35 310,30 276,30 276,40 " style="fill:#15d841; stroke-width:1; stroke:black; " description="&lt;b&gt;NGLDBBKK_03790&lt;/b&gt;&lt;br&gt;DNA-directed RNA polymerase subunit alpha&lt;br&gt;Location: 13908 - 14925" locus_tag="NGLDBBKK_03790" class="clusterblast-orf" id="dummy-1_q13_0_all"  />
<polygon points="321,40 332,40 337,35 332,30 321,30 321,40 " style="fill:#1541d8; stroke-width:1; stroke:black; " description="&lt;b&gt;NGLDBBKK_03791&lt;/b&gt;&lt;br&gt;50S ribosomal protein L17&lt;br&gt;Location: 15075 - 15495" locus_tag="NGLDBBKK_03791" class="clusterblast-orf" id="dummy-1_q14_0_all"  />
<polygon points="341,35 346,30 348,30 348,40 346,40 341,35 " style="fill:#d81597; stroke-width:1; stroke:black; " description="&lt;b&gt;NGLDBBKK_03792&lt;/b&gt;&lt;br&gt;hypothetical protein&lt;br&gt;Location: 15597 - 15774" locus_tag="NGLDBBKK_03792" class="clusterblast-orf" id="dummy-1_q15_0_all"  />
<polygon points="351,40 370,40 375,35 370,30 351,30 351,40 " style="fill:#d8c315; stroke-width:1; stroke:black; " description="&lt;b&gt;NGLDBBKK_03793&lt;/b&gt;&lt;br&gt;hypothetical protein&lt;br&gt;Location: 15860 - 16472" locus_tag="NGLDBBKK_03793" class="clusterblast-orf" id="dummy-1_q16_0_all"  />
<polygon points="377,40 394,40 399,35 394,30 377,30 377,40 " style="fill:#15d86c; stroke-width:1; stroke:black; " description="&lt;b&gt;NGLDBBKK_03794&lt;/b&gt;&lt;br&gt;hypothetical protein&lt;br&gt;Location: 16521 - 17112" locus_tag="NGLDBBKK_03794" class="clusterblast-orf" id="dummy-1_q17_0_all"  />
<polygon points="404,40 450,40 455,35 450,30 404,30 404,40 " style="fill:#1515d8; stroke-width:1; stroke:black; " description="&lt;b&gt;NGLDBBKK_03795&lt;/b&gt;&lt;br&gt;Replication-associated recombination protein A&lt;br&gt;Location: 17237 - 18551" locus_tag="NGLDBBKK_03795" class="clusterblast-orf" id="dummy-1_q18_0_all"  />
<polygon points="465,40 475,40 480,35 475,30 465,30 465,40 " style="fill:#d8156c; stroke-width:1; stroke:black; " description="&lt;b&gt;NGLDBBKK_03796&lt;/b&gt;&lt;br&gt;Putative fluoride ion transporter CrcB&lt;br&gt;Location: 18826 - 19204" locus_tag="NGLDBBKK_03796" class="clusterblast-orf" id="dummy-1_q19_0_all"  />
<polygon points="480,40 515,40 520,35 515,30 480,30 480,40 " style="fill:#c3d815; stroke-width:1; stroke:black; " description="&lt;b&gt;NGLDBBKK_03797&lt;/b&gt;&lt;br&gt;Ribosomal large subunit pseudouridine synthase C&lt;br&gt;Location: 19200 - 20262" locus_tag="NGLDBBKK_03797" class="clusterblast-orf" id="dummy-1_q20_0_all"  />
<polygon points="520,40 541,40 546,35 541,30 520,30 520,40 " style="fill:#15d897; stroke-width:1; stroke:black; " description="&lt;b&gt;NGLDBBKK_03798&lt;/b&gt;&lt;br&gt;Pyrophosphatase PpaX&lt;br&gt;Location: 20258 - 20930" locus_tag="NGLDBBKK_03798" class="clusterblast-orf" id="dummy-1_q21_0_all"  />
<polygon points="546,40 569,40 574,35 569,30 546,30 546,40 " style="fill:#4115d8; stroke-width:1; stroke:black; " description="&lt;b&gt;NGLDBBKK_03799&lt;/b&gt;&lt;br&gt;hypothetical protein&lt;br&gt;Location: 20929 - 21649" locus_tag="NGLDBBKK_03799" class="clusterblast-orf" id="dummy-1_q22_0_all"  />
<polygon points="582,40 616,40 621,35 616,30 582,30 582,40 " style="fill:#d81541; stroke-width:1; stroke:black; " description="&lt;b&gt;NGLDBBKK_03800&lt;/b&gt;&lt;br&gt;Putative amino-acid ABC transporter-binding protein YhdW&lt;br&gt;Location: 21859 - 22882" locus_tag="NGLDBBKK_03800" class="clusterblast-orf" id="dummy-1_q23_0_all"  />
<polygon points="626,40 669,40 674,35 669,30 626,30 626,40 " style="fill:#97d815; stroke-width:1; stroke:black; " description="&lt;b&gt;NGLDBBKK_03801&lt;/b&gt;&lt;br&gt;hypothetical protein&lt;br&gt;Location: 23012 - 24266" locus_tag="NGLDBBKK_03801" class="clusterblast-orf" id="dummy-1_q24_0_all"  />
<polygon points="674,40 720,40 725,35 720,30 674,30 674,40 " style="fill:#97d815; stroke-width:1; stroke:black; " description="&lt;b&gt;NGLDBBKK_03802&lt;/b&gt;&lt;br&gt;Inner membrane amino-acid ABC transporter permease protein YhdY&lt;br&gt;Location: 24267 - 25587" locus_tag="NGLDBBKK_03802" class="clusterblast-orf" id="dummy-1_q25_0_all"  />
<polygon points="725,40 751,40 756,35 751,30 725,30 725,40 " style="fill:#15d8c3; stroke-width:1; stroke:black; " description="&lt;b&gt;NGLDBBKK_03803&lt;/b&gt;&lt;br&gt;Glutamine transport ATP-binding protein GlnQ&lt;br&gt;Location: 25598 - 26390" locus_tag="NGLDBBKK_03803" class="clusterblast-orf" id="dummy-1_q26_0_all"  />
<polygon points="760,35 765,30 780,30 780,40 765,40 760,35 " style="fill:#6c15d8; stroke-width:1; stroke:black; " description="&lt;b&gt;NGLDBBKK_03804&lt;/b&gt;&lt;br&gt;hypothetical protein&lt;br&gt;Location: 26512 - 27022" locus_tag="NGLDBBKK_03804" class="clusterblast-orf" id="dummy-1_q27_0_all"  />
</g>
<g label="NZ_CP038492" description="NZ_CP038492 (3625933-3646521): Boseongicola sp. CCM32 chromosome, complete ge... (96% of genes show similarity), hserlactone" class="clusterblast-cluster"  >
<text x="5" y="70" class="clusterblast-acc"  >
<a xlink:href="https://antismash-db.secondarymetabolites.org/area.html?record=NZ_CP038492&amp;start=3625933&amp;end=3646521" target="_blank">NZ_CP038492 (3625933-3646521)</a>: Boseongicola sp. CCM32 chromosome, complete ge... (96% of genes show similarity), hserlactone</text>
<line x1="10" y1="85" x2="778.0" y2="85" style="stroke-width:1; stroke:grey; "  />
</g>
<g id="a1_000"  >
<polygon points="3,90 10,90 15,85 10,80 3,80 3,90 " style="fill:#6cd815; stroke-width:1; stroke:black; " description="&lt;b&gt;E2K80_RS17770&lt;/b&gt;&lt;br&gt;30S ribosomal protein S14&lt;br&gt;Location: 3626273 - 3626578&lt;br&gt;&lt;br&gt;&lt;b&gt;BlastP hit with NGLDBBKK_03778&lt;/b&gt;&lt;br&gt;Percentage identity: 78&lt;br&gt;Percentage coverage: 100&lt;br&gt;BLAST bit score: 152&lt;br&gt;E-value: 1.51e-47" locus_tag="E2K80_RS17770" class="clusterblast-orf" id="dummy-1_h1_6_0"  />
</g>
<g id="a1_001"  >
<polygon points="15,90 25,90 30,85 25,80 15,80 15,90 " style="fill:#15c3d8; stroke-width:1; stroke:black; " description="&lt;b&gt;E2K80_RS17775&lt;/b&gt;&lt;br&gt;30S ribosomal protein S8&lt;br&gt;Location: 3626592 - 3626984&lt;br&gt;&lt;br&gt;&lt;b&gt;BlastP hit with NGLDBBKK_03779&lt;/b&gt;&lt;br&gt;Percentage identity: 83&lt;br&gt;Percentage coverage: 98&lt;br&gt;BLAST bit score: 214&lt;br&gt;E-value: 1.89e-71" locus_tag="E2K80_RS17775" class="clusterblast-orf" id="dummy-1_h1_6_1"  />
</g>
<g id="a1_002"  >
<polygon points="31,90 46,90 51,85 46,80 31,80 31,90 " style="fill:#9715d8; stroke-width:1; stroke:black; " description="&lt;b&gt;E2K80_RS17780&lt;/b&gt;&lt;br&gt;50S ribosomal protein L6&lt;br&gt;Location: 3626995 - 3627528&lt;br&gt;&lt;br&gt;&lt;b&gt;BlastP hit with NGLDBBKK_03780&lt;/b&gt;&lt;br&gt;Percentage identity: 79&lt;br&gt;Percentage coverage: 100&lt;br&gt;BLAST bit score: 286&lt;br&gt;E-value: 1.78e-98" locus_tag="E2K80_RS17780" class="clusterblast-orf" id="dummy-1_h1_6_2"  />
</g>
<g id="a1_003"  >
<polygon points="51,90 60,90 65,85 60,80 51,80 51,90 " style="fill:#d84115; stroke-width:1; stroke:black; " description="&lt;b&gt;E2K80_RS17785&lt;/b&gt;&lt;br&gt;50S ribosomal protein L18&lt;br&gt;Location: 3627540 - 3627899&lt;br&gt;&lt;br&gt;&lt;b&gt;BlastP hit with NGLDBBKK_03781&lt;/b&gt;&lt;br&gt;Percentage identity: 84&lt;br&gt;Percentage coverage: 100&lt;br&gt;BLAST bit score: 195&lt;br&gt;E-value: 4.64e-64" locus_tag="E2K80_RS17785" class="clusterblast-orf" id="dummy-1_h1_6_3"  />
</g>
<g id="a1_004"  >
<polygon points="72,90 89,90 94,85 89,80 72,80 72,90 " style="fill:#41d815; stroke-width:1; stroke:black; " description="&lt;b&gt;E2K80_RS17790&lt;/b&gt;&lt;br&gt;30S ribosomal protein S5&lt;br&gt;Location: 3628074 - 3628661&lt;br&gt;&lt;br&gt;&lt;b&gt;BlastP hit with NGLDBBKK_03782&lt;/b&gt;&lt;br&gt;Percentage identity: 87&lt;br&gt;Percentage coverage: 100&lt;br&gt;BLAST bit score: 293&lt;br&gt;E-value: 1.32e-100" locus_tag="E2K80_RS17790" class="clusterblast-orf" id="dummy-1_h1_6_4"  />
</g>
<g id="a1_005"  >
<polygon points="95,90 97,90 102,85 97,80 95,80 95,90 " style="fill:#1597d8; stroke-width:1; stroke:black; " description="&lt;b&gt;E2K80_RS17795&lt;/b&gt;&lt;br&gt;50S ribosomal protein L30&lt;br&gt;Location: 3628667 - 3628855&lt;br&gt;&lt;br&gt;&lt;b&gt;BlastP hit with NGLDBBKK_03783&lt;/b&gt;&lt;br&gt;Percentage identity: 86&lt;br&gt;Percentage coverage: 100&lt;br&gt;BLAST bit score: 110&lt;br&gt;E-value: 2.06e-32" locus_tag="E2K80_RS17795" class="clusterblast-orf" id="dummy-1_h1_6_5"  />
</g>
<g id="a1_006"  >
<polygon points="110,90 123,90 128,85 123,80 110,80 110,90 " style="fill:#d86c15; stroke-width:1; stroke:black; " description="&lt;b&gt;E2K80_RS17800&lt;/b&gt;&lt;br&gt;50S ribosomal protein L15&lt;br&gt;Location: 3629072 - 3629545&lt;br&gt;&lt;br&gt;&lt;b&gt;BlastP hit with NGLDBBKK_03785&lt;/b&gt;&lt;br&gt;Percentage identity: 76&lt;br&gt;Percentage coverage: 98&lt;br&gt;BLAST bit score: 228&lt;br&gt;E-value: 8.95e-76" locus_tag="E2K80_RS17800" class="clusterblast-orf" id="dummy-1_h1_6_6"  />
</g>
<g id="a1_007"  >
<polygon points="134,90 181,90 186,85 181,80 134,80 134,90 " style="fill:#15d815; stroke-width:1; stroke:black; " description="&lt;b&gt;E2K80_RS17805&lt;/b&gt;&lt;br&gt;preprotein translocase subunit SecY&lt;br&gt;Location: 3629678 - 3631048&lt;br&gt;&lt;br&gt;&lt;b&gt;BlastP hit with NGLDBBKK_03786&lt;/b&gt;&lt;br&gt;Percentage identity: 79&lt;br&gt;Percentage coverage: 101&lt;br&gt;BLAST bit score: 701&lt;br&gt;E-value: 2.28e-253" locus_tag="E2K80_RS17805" class="clusterblast-orf" id="dummy-1_h1_6_7"  />
</g>
<g id="a1_008"  >
<polygon points="186,90 206,90 211,85 206,80 186,80 186,90 " style="fill:#156cd8; stroke-width:1; stroke:black; " description="&lt;b&gt;E2K80_RS17810&lt;/b&gt;&lt;br&gt;adenylate kinase&lt;br&gt;Location: 3631045 - 3631701&lt;br&gt;&lt;br&gt;&lt;b&gt;BlastP hit with NGLDBBKK_03787&lt;/b&gt;&lt;br&gt;Percentage identity: 71&lt;br&gt;Percentage coverage: 97&lt;br&gt;BLAST bit score: 301&lt;br&gt;E-value: 7.04e-103" locus_tag="E2K80_RS17810" class="clusterblast-orf" id="dummy-1_h1_6_8"  />
</g>
<g id="a1_009"  >
<polygon points="218,90 226,90 231,85 226,80 218,80 218,90 " style="fill:white; stroke-width:1; stroke:black; " description="&lt;b&gt;E2K80_RS17815&lt;/b&gt;&lt;br&gt;hypothetical protein&lt;br&gt;Location: 3631872 - 3632207" locus_tag="E2K80_RS17815" class="clusterblast-orf" id="dummy-1_h1_6_9"  />
</g>
<g id="a1_0010"  >
<polygon points="240,90 249,90 254,85 249,80 240,80 240,90 " style="fill:#d815c3; stroke-width:1; stroke:black; " description="&lt;b&gt;E2K80_RS17820&lt;/b&gt;&lt;br&gt;30S ribosomal protein S13&lt;br&gt;Location: 3632459 - 3632827&lt;br&gt;&lt;br&gt;&lt;b&gt;BlastP hit with NGLDBBKK_03788&lt;/b&gt;&lt;br&gt;Percentage identity: 90&lt;br&gt;Percentage coverage: 100&lt;br&gt;BLAST bit score: 213&lt;br&gt;E-value: 5.6e-71" locus_tag="E2K80_RS17820" class="clusterblast-orf" id="dummy-1_h1_6_10"  />
</g>
<g id="a1_0011"  >
<polygon points="255,90 265,90 270,85 265,80 255,80 255,90 " style="fill:#d89715; stroke-width:1; stroke:black; " description="&lt;b&gt;E2K80_RS17825&lt;/b&gt;&lt;br&gt;30S ribosomal protein S11&lt;br&gt;Location: 3632839 - 3633228&lt;br&gt;&lt;br&gt;&lt;b&gt;BlastP hit with NGLDBBKK_03789&lt;/b&gt;&lt;br&gt;Percentage identity: 95&lt;br&gt;Percentage coverage: 100&lt;br&gt;BLAST bit score: 238&lt;br&gt;E-value: 5.68e-81" locus_tag="E2K80_RS17825" class="clusterblast-orf" id="dummy-1_h1_6_11"  />
</g>
<g id="a1_0012"  >
<polygon points="274,90 308,90 313,85 308,80 274,80 274,90 " style="fill:#15d841; stroke-width:1; stroke:black; " description="&lt;b&gt;E2K80_RS17830&lt;/b&gt;&lt;br&gt;DNA-directed RNA polymerase subunit alpha&lt;br&gt;Location: 3633346 - 3634362&lt;br&gt;&lt;br&gt;&lt;b&gt;BlastP hit with NGLDBBKK_03790&lt;/b&gt;&lt;br&gt;Percentage identity: 87&lt;br&gt;Percentage coverage: 100&lt;br&gt;BLAST bit score: 598&lt;br&gt;E-value: 1.4e-216" locus_tag="E2K80_RS17830" class="clusterblast-orf" id="dummy-1_h1_6_12"  />
</g>
<g id="a1_0013"  >
<polygon points="318,90 330,90 335,85 330,80 318,80 318,90 " style="fill:#1541d8; stroke-width:1; stroke:black; " description="&lt;b&gt;E2K80_RS17835&lt;/b&gt;&lt;br&gt;50S ribosomal protein L17&lt;br&gt;Location: 3634492 - 3634917&lt;br&gt;&lt;br&gt;&lt;b&gt;BlastP hit with NGLDBBKK_03791&lt;/b&gt;&lt;br&gt;Percentage identity: 80&lt;br&gt;Percentage coverage: 98&lt;br&gt;BLAST bit score: 217&lt;br&gt;E-value: 4.37e-72" locus_tag="E2K80_RS17835" class="clusterblast-orf" id="dummy-1_h1_6_13"  />
</g>
<g id="a1_0014"  >
<polygon points="337,85 342,80 344,80 344,90 342,90 337,85 " style="fill:#d81597; stroke-width:1; stroke:black; " description="&lt;b&gt;E2K80_RS19220&lt;/b&gt;&lt;br&gt;hypothetical protein&lt;br&gt;Location: 3634988 - 3635155&lt;br&gt;&lt;br&gt;&lt;b&gt;BlastP hit with NGLDBBKK_03792&lt;/b&gt;&lt;br&gt;Percentage identity: 59&lt;br&gt;Percentage coverage: 67&lt;br&gt;BLAST bit score: 52&lt;br&gt;E-value: 4.6e-09" locus_tag="E2K80_RS19220" class="clusterblast-orf" id="dummy-1_h1_6_14"  />
</g>
<g id="a1_0015"  >
<polygon points="347,90 366,90 371,85 366,80 347,80 347,90 " style="fill:#d8c315; stroke-width:1; stroke:black; " description="&lt;b&gt;E2K80_RS17840&lt;/b&gt;&lt;br&gt;LuxR family transcriptional regulator&lt;br&gt;Location: 3635246 - 3635857&lt;br&gt;&lt;br&gt;&lt;b&gt;BlastP hit with NGLDBBKK_03793&lt;/b&gt;&lt;br&gt;Percentage identity: 60&lt;br&gt;Percentage coverage: 100&lt;br&gt;BLAST bit score: 241&lt;br&gt;E-value: 1.08e-79" locus_tag="E2K80_RS17840" class="clusterblast-orf" id="dummy-1_h1_6_15"  />
</g>
<g id="a1_0016"  >
<polygon points="374,90 391,90 396,85 391,80 374,80 374,90 " style="fill:#15d86c; stroke-width:1; stroke:black; " description="&lt;b&gt;E2K80_RS17845&lt;/b&gt;&lt;br&gt;N-acyl-L-homoserine lactone synthetase&lt;br&gt;Location: 3635934 - 3636521&lt;br&gt;&lt;br&gt;&lt;b&gt;BlastP hit with NGLDBBKK_03794&lt;/b&gt;&lt;br&gt;Percentage identity: 57&lt;br&gt;Percentage coverage: 100&lt;br&gt;BLAST bit score: 224&lt;br&gt;E-value: 4.38e-73" locus_tag="E2K80_RS17845" class="clusterblast-orf" id="dummy-1_h1_6_16"  />
</g>
<g id="a1_0017"  >
<polygon points="403,90 449,90 454,85 449,80 403,80 403,90 " style="fill:#1515d8; stroke-width:1; stroke:black; " description="&lt;b&gt;E2K80_RS17850&lt;/b&gt;&lt;br&gt;replication-associated recombination protein A&lt;br&gt;Location: 3636703 - 3638022&lt;br&gt;&lt;br&gt;&lt;b&gt;BlastP hit with NGLDBBKK_03795&lt;/b&gt;&lt;br&gt;Percentage identity: 77&lt;br&gt;Percentage coverage: 99&lt;br&gt;BLAST bit score: 660&lt;br&gt;E-value: 8.85e-238" locus_tag="E2K80_RS17850" class="clusterblast-orf" id="dummy-1_h1_6_17"  />
</g>
<g id="a1_0018"  >
<polygon points="455,90 465,90 470,85 465,80 455,80 455,90 " style="fill:#d8156c; stroke-width:1; stroke:black; " description="&lt;b&gt;E2K80_RS17855&lt;/b&gt;&lt;br&gt;fluoride efflux transporter CrcB&lt;br&gt;Location: 3638054 - 3638434&lt;br&gt;&lt;br&gt;&lt;b&gt;BlastP hit with NGLDBBKK_03796&lt;/b&gt;&lt;br&gt;Percentage identity: 56&lt;br&gt;Percentage coverage: 101&lt;br&gt;BLAST bit score: 126&lt;br&gt;E-value: 1.31e-36" locus_tag="E2K80_RS17855" class="clusterblast-orf" id="dummy-1_h1_6_18"  />
</g>
<g id="a1_0019"  >
<polygon points="470,90 505,90 510,85 505,80 470,80 470,90 " style="fill:#c3d815; stroke-width:1; stroke:black; " description="&lt;b&gt;E2K80_RS17860&lt;/b&gt;&lt;br&gt;RluA family pseudouridine synthase&lt;br&gt;Location: 3638431 - 3639480&lt;br&gt;&lt;br&gt;&lt;b&gt;BlastP hit with NGLDBBKK_03797&lt;/b&gt;&lt;br&gt;Percentage identity: 67&lt;br&gt;Percentage coverage: 100&lt;br&gt;BLAST bit score: 484&lt;br&gt;E-value: 6.21e-171" locus_tag="E2K80_RS17860" class="clusterblast-orf" id="dummy-1_h1_6_19"  />
</g>
<g id="a1_0020"  >
<polygon points="510,90 531,90 536,85 531,80 510,80 510,90 " style="fill:#15d897; stroke-width:1; stroke:black; " description="&lt;b&gt;E2K80_RS17865&lt;/b&gt;&lt;br&gt;HAD-IA family hydrolase&lt;br&gt;Location: 3639477 - 3640166&lt;br&gt;&lt;br&gt;&lt;b&gt;BlastP hit with NGLDBBKK_03798&lt;/b&gt;&lt;br&gt;Percentage identity: 58&lt;br&gt;Percentage coverage: 100&lt;br&gt;BLAST bit score: 241&lt;br&gt;E-value: 5.43e-79" locus_tag="E2K80_RS17865" class="clusterblast-orf" id="dummy-1_h1_6_20"  />
</g>
<g id="a1_0021"  >
<polygon points="536,90 559,90 564,85 559,80 536,80 536,90 " style="fill:#4115d8; stroke-width:1; stroke:black; " description="&lt;b&gt;E2K80_RS17870&lt;/b&gt;&lt;br&gt;ATPase&lt;br&gt;Location: 3640163 - 3640876&lt;br&gt;&lt;br&gt;&lt;b&gt;BlastP hit with NGLDBBKK_03799&lt;/b&gt;&lt;br&gt;Percentage identity: 48&lt;br&gt;Percentage coverage: 98&lt;br&gt;BLAST bit score: 219&lt;br&gt;E-value: 7.83e-70" locus_tag="E2K80_RS17870" class="clusterblast-orf" id="dummy-1_h1_6_21"  />
</g>
<g id="a1_0022"  >
<polygon points="573,90 607,90 612,85 607,80 573,80 573,90 " style="fill:#d81541; stroke-width:1; stroke:black; " description="&lt;b&gt;E2K80_RS17875&lt;/b&gt;&lt;br&gt;amino acid ABC transporter substrate-binding protein&lt;br&gt;Location: 3641112 - 3642128&lt;br&gt;&lt;br&gt;&lt;b&gt;BlastP hit with NGLDBBKK_03800&lt;/b&gt;&lt;br&gt;Percentage identity: 74&lt;br&gt;Percentage coverage: 100&lt;br&gt;BLAST bit score: 507&lt;br&gt;E-value: 1.87e-180" locus_tag="E2K80_RS17875" class="clusterblast-orf" id="dummy-1_h1_6_22"  />
</g>
<g id="a1_0023"  >
<polygon points="617,90 658,90 663,85 658,80 617,80 617,90 " style="fill:#97d815; stroke-width:1; stroke:black; " description="&lt;b&gt;E2K80_RS17880&lt;/b&gt;&lt;br&gt;ABC transporter permease subunit&lt;br&gt;Location: 3642260 - 3643477&lt;br&gt;&lt;br&gt;&lt;b&gt;BlastP hit with NGLDBBKK_03801&lt;/b&gt;&lt;br&gt;Percentage identity: 62&lt;br&gt;Percentage coverage: 100&lt;br&gt;BLAST bit score: 473&lt;br&gt;E-value: 1.3e-164&lt;br&gt;&lt;br&gt;&lt;b&gt;BlastP hit with NGLDBBKK_03802&lt;/b&gt;&lt;br&gt;Percentage identity: 43&lt;br&gt;Percentage coverage: 20&lt;br&gt;BLAST bit score: 74&lt;br&gt;E-value: 3.11e-12" locus_tag="E2K80_RS17880" class="clusterblast-orf" id="dummy-1_h1_6_23"  />
</g>
<g id="a1_0024"  >
<polygon points="663,90 709,90 714,85 709,80 663,80 663,90 " style="fill:#97d815; stroke-width:1; stroke:black; " description="&lt;b&gt;E2K80_RS17885&lt;/b&gt;&lt;br&gt;ABC transporter permease subunit&lt;br&gt;Location: 3643479 - 3644795&lt;br&gt;&lt;br&gt;&lt;b&gt;BlastP hit with NGLDBBKK_03801&lt;/b&gt;&lt;br&gt;Percentage identity: 35&lt;br&gt;Percentage coverage: 28&lt;br&gt;BLAST bit score: 69&lt;br&gt;E-value: 9.81e-11&lt;br&gt;&lt;br&gt;&lt;b&gt;BlastP hit with NGLDBBKK_03802&lt;/b&gt;&lt;br&gt;Percentage identity: 62&lt;br&gt;Percentage coverage: 100&lt;br&gt;BLAST bit score: 551&lt;br&gt;E-value: 1.42e-194" locus_tag="E2K80_RS17885" class="clusterblast-orf" id="dummy-1_h1_6_24"  />
</g>
<g id="a1_0025"  >
<polygon points="715,90 740,90 745,85 740,80 715,80 715,90 " style="fill:#15d8c3; stroke-width:1; stroke:black; " description="&lt;b&gt;E2K80_RS17890&lt;/b&gt;&lt;br&gt;amino acid ABC transporter ATP-binding protein&lt;br&gt;Location: 3644808 - 3645611&lt;br&gt;&lt;br&gt;&lt;b&gt;BlastP hit with NGLDBBKK_03803&lt;/b&gt;&lt;br&gt;Percentage identity: 85&lt;br&gt;Percentage coverage: 102&lt;br&gt;BLAST bit score: 452&lt;br&gt;E-value: 2.88e-161" locus_tag="E2K80_RS17890" class="clusterblast-orf" id="dummy-1_h1_6_25"  />
</g>
<g id="a1_0026"  >
<polygon points="757,85 762,80 776,80 776,90 762,90 757,85 " style="fill:#6c15d8; stroke-width:1; stroke:black; " description="&lt;b&gt;E2K80_RS17895&lt;/b&gt;&lt;br&gt;histidine phosphatase family protein&lt;br&gt;Location: 3645913 - 3646413&lt;br&gt;&lt;br&gt;&lt;b&gt;BlastP hit with NGLDBBKK_03804&lt;/b&gt;&lt;br&gt;Percentage identity: 45&lt;br&gt;Percentage coverage: 94&lt;br&gt;BLAST bit score: 149&lt;br&gt;E-value: 1.76e-44" locus_tag="E2K80_RS17895" class="clusterblast-orf" id="dummy-1_h1_6_26"  />
</g>
</svg>
