<svg xmlns="http://www.w3.org/2000/svg" xmlns:xlink="http://www.w3.org/1999/xlink" version="1.1" x="0" y="0" height="230" width="800" viewBox="0 0 800 230" preserveAspectRatio="none"  >
<g label="Query sequence" class="clusterblast-cluster"  >
<text x="5" y="20" class="clusterblast-acc"  >
Query sequence</text>
<line x1="10" y1="35" x2="778.0" y2="35" style="stroke-width:1; stroke:grey; "  />
<polygon points="6,40 21,40 26,35 21,30 6,30 6,40 " style="fill:#d81515; stroke-width:1; stroke:black; " description="&lt;b&gt;NGLDBBKK_01833&lt;/b&gt;&lt;br&gt;Protein YrdA&lt;br&gt;Location: 404405 - 404924" locus_tag="NGLDBBKK_01833" class="clusterblast-orf" id="dummy-1_q0_0_all"  />
<polygon points="30,40 65,40 70,35 65,30 30,30 30,40 " style="fill:#67d815; stroke-width:1; stroke:black; " description="&lt;b&gt;NGLDBBKK_01834&lt;/b&gt;&lt;br&gt;Phosphate regulon sensor protein PhoR&lt;br&gt;Location: 405027 - 406065" locus_tag="NGLDBBKK_01834" class="clusterblast-orf" id="dummy-1_q1_0_all"  />
<polygon points="74,40 114,40 119,35 114,30 74,30 74,40 " style="fill:#15b9d8; stroke-width:1; stroke:black; " description="&lt;b&gt;NGLDBBKK_01835&lt;/b&gt;&lt;br&gt;Methylamine utilization protein MauG&lt;br&gt;Location: 406153 - 407341" locus_tag="NGLDBBKK_01835" class="clusterblast-orf" id="dummy-1_q2_0_all"  />
<polygon points="122,35 127,30 160,30 160,40 127,40 122,35 " style="fill:#a515d8; stroke-width:1; stroke:black; " description="&lt;b&gt;NGLDBBKK_01836&lt;/b&gt;&lt;br&gt;IS30 family transposase ISRle2&lt;br&gt;Location: 407396 - 408389" locus_tag="NGLDBBKK_01836" class="clusterblast-orf" id="dummy-1_q3_0_all"  />
<polygon points="172,40 176,40 181,35 176,30 172,30 172,40 " style="fill:#d85315; stroke-width:1; stroke:black; " description="&lt;b&gt;NGLDBBKK_01837&lt;/b&gt;&lt;br&gt;hypothetical protein&lt;br&gt;Location: 408712 - 408940" locus_tag="NGLDBBKK_01837" class="clusterblast-orf" id="dummy-1_q4_0_all"  />
<polygon points="183,40 205,40 210,35 205,30 183,30 183,40 " style="fill:#2ad815; stroke-width:1; stroke:black; " description="&lt;b&gt;NGLDBBKK_01838&lt;/b&gt;&lt;br&gt;hypothetical protein&lt;br&gt;Location: 408987 - 409683" locus_tag="NGLDBBKK_01838" class="clusterblast-orf" id="dummy-1_q5_0_all"  />
<polygon points="213,40 235,40 240,35 235,30 213,30 213,40 " style="fill:#157cd8; stroke-width:1; stroke:black; " description="&lt;b&gt;NGLDBBKK_01839&lt;/b&gt;&lt;br&gt;Ribulose-phosphate 3-epimerase&lt;br&gt;Location: 409770 - 410457" locus_tag="NGLDBBKK_01839" class="clusterblast-orf" id="dummy-1_q6_0_all"  />
<polygon points="243,40 271,40 276,35 271,30 243,30 243,40 " style="fill:#d815ce; stroke-width:1; stroke:black; " description="&lt;b&gt;NGLDBBKK_01840&lt;/b&gt;&lt;br&gt;putative metallo-hydrolase&lt;br&gt;Location: 410545 - 411409" locus_tag="NGLDBBKK_01840" class="clusterblast-orf" id="dummy-1_q7_0_all"  />
<polygon points="283,40 294,40 299,35 294,30 283,30 283,40 " style="fill:#d89015; stroke-width:1; stroke:black; " description="&lt;b&gt;NGLDBBKK_01841&lt;/b&gt;&lt;br&gt;Beta-lactamase hydrolase-like protein&lt;br&gt;Location: 411589 - 412009" locus_tag="NGLDBBKK_01841" class="clusterblast-orf" id="dummy-1_q8_0_all"  />
<polygon points="301,40 364,40 369,35 364,30 301,30 301,40 " style="fill:#15d83e; stroke-width:1; stroke:black; " description="&lt;b&gt;NGLDBBKK_01842&lt;/b&gt;&lt;br&gt;putative sulfate transporter&lt;br&gt;Location: 412052 - 413804" locus_tag="NGLDBBKK_01842" class="clusterblast-orf" id="dummy-1_q9_0_all"  />
<polygon points="372,35 377,30 402,30 402,40 377,40 372,35 " style="fill:#153ed8; stroke-width:1; stroke:black; " description="&lt;b&gt;NGLDBBKK_01843&lt;/b&gt;&lt;br&gt;hypothetical protein&lt;br&gt;Location: 413892 - 414669" locus_tag="NGLDBBKK_01843" class="clusterblast-orf" id="dummy-1_q10_0_all"  />
<polygon points="402,35 407,30 465,30 465,40 407,40 402,35 " style="fill:#d81590; stroke-width:1; stroke:black; " description="&lt;b&gt;NGLDBBKK_01844&lt;/b&gt;&lt;br&gt;(R)-citramalate synthase&lt;br&gt;Location: 414665 - 416309" locus_tag="NGLDBBKK_01844" class="clusterblast-orf" id="dummy-1_q11_0_all"  />
<polygon points="465,35 470,30 521,30 521,40 470,40 465,35 " style="fill:#d8ce15; stroke-width:1; stroke:black; " description="&lt;b&gt;NGLDBBKK_01845&lt;/b&gt;&lt;br&gt;L-cysteine:1D-myo-inositol 2-amino-2-deoxy-alpha-D-glucopyranoside ligase&lt;br&gt;Location: 416305 - 417772" locus_tag="NGLDBBKK_01845" class="clusterblast-orf" id="dummy-1_q12_0_all"  />
<polygon points="539,40 579,40 584,35 579,30 539,30 539,40 " style="fill:#15d87c; stroke-width:1; stroke:black; " description="&lt;b&gt;NGLDBBKK_01846&lt;/b&gt;&lt;br&gt;Arginine--pyruvate transaminase AruH&lt;br&gt;Location: 418220 - 419393" locus_tag="NGLDBBKK_01846" class="clusterblast-orf" id="dummy-1_q13_0_all"  />
<polygon points="592,40 619,40 624,35 619,30 592,30 592,40 " style="fill:white; stroke-width:1; stroke:black; " description="&lt;b&gt;NGLDBBKK_01847&lt;/b&gt;&lt;br&gt;hypothetical protein&lt;br&gt;Location: 419599 - 420421" locus_tag="NGLDBBKK_01847" class="clusterblast-orf" id="dummy-1_q14_0_all"  />
<polygon points="630,35 635,30 646,30 646,40 635,40 630,35 " style="fill:#2a15d8; stroke-width:1; stroke:black; " description="&lt;b&gt;NGLDBBKK_01848&lt;/b&gt;&lt;br&gt;L-alanine exporter AlaE&lt;br&gt;Location: 420578 - 421013" locus_tag="NGLDBBKK_01848" class="clusterblast-orf" id="dummy-1_q15_0_all"  />
<polygon points="646,35 651,30 691,30 691,40 651,40 646,35 " style="fill:#d81553; stroke-width:1; stroke:black; " description="&lt;b&gt;NGLDBBKK_01849&lt;/b&gt;&lt;br&gt;Lipid-A-disaccharide synthase&lt;br&gt;Location: 421009 - 422176" locus_tag="NGLDBBKK_01849" class="clusterblast-orf" id="dummy-1_q16_0_all"  />
<polygon points="691,35 696,30 724,30 724,40 696,40 691,35 " style="fill:#a5d815; stroke-width:1; stroke:black; " description="&lt;b&gt;NGLDBBKK_01850&lt;/b&gt;&lt;br&gt;UDP-2,3-diacylglucosamine pyrophosphatase LpxI&lt;br&gt;Location: 422172 - 423024" locus_tag="NGLDBBKK_01850" class="clusterblast-orf" id="dummy-1_q17_0_all"  />
<polygon points="724,35 729,30 754,30 754,40 729,40 724,35 " style="fill:#15d8b9; stroke-width:1; stroke:black; " description="&lt;b&gt;NGLDBBKK_01851&lt;/b&gt;&lt;br&gt;Acyl-[acyl-carrier-protein]--UDP-N- acetylglucosamine O-acyltransferase&lt;br&gt;Location: 423020 - 423815" locus_tag="NGLDBBKK_01851" class="clusterblast-orf" id="dummy-1_q18_0_all"  />
<polygon points="755,35 760,30 774,30 774,40 760,40 755,35 " style="fill:#6715d8; stroke-width:1; stroke:black; " description="&lt;b&gt;NGLDBBKK_01852&lt;/b&gt;&lt;br&gt;3-hydroxyacyl-[acyl-carrier-protein] dehydratase FabZ&lt;br&gt;Location: 423819 - 424311" locus_tag="NGLDBBKK_01852" class="clusterblast-orf" id="dummy-1_q19_0_all"  />
</g>
<g label="NZ_CP012661" description="NZ_CP012661 (1890757-1911534): Defluviimonas alba strain cai42 chromosome, co... (66% of genes show similarity), terpene" class="clusterblast-cluster"  >
<text x="5" y="70" class="clusterblast-acc"  >
<a xlink:href="https://antismash-db.secondarymetabolites.org/area.html?record=NZ_CP012661&amp;start=1890757&amp;end=1911534" target="_blank">NZ_CP012661 (1890757-1911534)</a>: Defluviimonas alba strain cai42 chromosome, co... (66% of genes show similarity), terpene</text>
<line x1="10" y1="85" x2="778.0" y2="85" style="stroke-width:1; stroke:grey; "  />
</g>
<g id="a1_000"  >
<polygon points="0,90 32,90 37,85 32,80 0,80 0,90 " style="fill:white; stroke-width:1; stroke:black; " description="&lt;b&gt;AKL17_RS08945&lt;/b&gt;&lt;br&gt;efflux RND transporter periplasmic adaptor subunit&lt;br&gt;Location: 1891281 - 1892264" locus_tag="AKL17_RS08945" class="clusterblast-orf" id="dummy-1_h1_2_0"  />
</g>
<g id="a1_001"  >
<polygon points="37,90 72,90 77,85 72,80 37,80 37,90 " style="fill:white; stroke-width:1; stroke:black; " description="&lt;b&gt;AKL17_RS08950&lt;/b&gt;&lt;br&gt;efflux RND transporter periplasmic adaptor subunit&lt;br&gt;Location: 1892264 - 1893292" locus_tag="AKL17_RS08950" class="clusterblast-orf" id="dummy-1_h1_2_1"  />
</g>
<g id="a1_002"  >
<polygon points="77,90 189,90 194,85 189,80 77,80 77,90 " style="fill:white; stroke-width:1; stroke:black; " description="&lt;b&gt;AKL17_RS08955&lt;/b&gt;&lt;br&gt;efflux RND transporter permease subunit&lt;br&gt;Location: 1893292 - 1896330" locus_tag="AKL17_RS08955" class="clusterblast-orf" id="dummy-1_h1_2_2"  />
</g>
<g id="a1_003"  >
<polygon points="207,90 229,90 234,85 229,80 207,80 207,90 " style="fill:#157cd8; stroke-width:1; stroke:black; " description="&lt;b&gt;AKL17_RS08965&lt;/b&gt;&lt;br&gt;ribulose-phosphate 3-epimerase&lt;br&gt;Location: 1896675 - 1897376&lt;br&gt;&lt;br&gt;&lt;b&gt;BlastP hit with NGLDBBKK_01839&lt;/b&gt;&lt;br&gt;Percentage identity: 97&lt;br&gt;Percentage coverage: 100&lt;br&gt;BLAST bit score: 436&lt;br&gt;E-value: 7.34e-156" locus_tag="AKL17_RS08965" class="clusterblast-orf" id="dummy-1_h1_2_3"  />
</g>
<g id="a1_004"  >
<polygon points="238,90 267,90 272,85 267,80 238,80 238,90 " style="fill:#d815ce; stroke-width:1; stroke:black; " description="&lt;b&gt;AKL17_RS08970&lt;/b&gt;&lt;br&gt;MBL fold metallo-hydrolase&lt;br&gt;Location: 1897481 - 1898353&lt;br&gt;&lt;br&gt;&lt;b&gt;BlastP hit with NGLDBBKK_01840&lt;/b&gt;&lt;br&gt;Percentage identity: 94&lt;br&gt;Percentage coverage: 100&lt;br&gt;BLAST bit score: 552&lt;br&gt;E-value: 8.41e-200" locus_tag="AKL17_RS08970" class="clusterblast-orf" id="dummy-1_h1_2_4"  />
</g>
<g id="a1_005"  >
<polygon points="277,90 288,90 293,85 288,80 277,80 277,90 " style="fill:#d89015; stroke-width:1; stroke:black; " description="&lt;b&gt;AKL17_RS08975&lt;/b&gt;&lt;br&gt;TIGR01244 family phosphatase&lt;br&gt;Location: 1898476 - 1898895&lt;br&gt;&lt;br&gt;&lt;b&gt;BlastP hit with NGLDBBKK_01841&lt;/b&gt;&lt;br&gt;Percentage identity: 94&lt;br&gt;Percentage coverage: 100&lt;br&gt;BLAST bit score: 264&lt;br&gt;E-value: 7.24e-91" locus_tag="AKL17_RS08975" class="clusterblast-orf" id="dummy-1_h1_2_5"  />
</g>
<g id="a1_006"  >
<polygon points="294,90 357,90 362,85 357,80 294,80 294,90 " style="fill:#15d83e; stroke-width:1; stroke:black; " description="&lt;b&gt;AKL17_RS08980&lt;/b&gt;&lt;br&gt;sulfate permease&lt;br&gt;Location: 1898930 - 1900687&lt;br&gt;&lt;br&gt;&lt;b&gt;BlastP hit with NGLDBBKK_01842&lt;/b&gt;&lt;br&gt;Percentage identity: 94&lt;br&gt;Percentage coverage: 100&lt;br&gt;BLAST bit score: 971&lt;br&gt;E-value: 0.0" locus_tag="AKL17_RS08980" class="clusterblast-orf" id="dummy-1_h1_2_6"  />
</g>
<g id="a1_007"  >
<polygon points="365,85 370,80 395,80 395,90 370,90 365,85 " style="fill:#153ed8; stroke-width:1; stroke:black; " description="&lt;b&gt;AKL17_RS08985&lt;/b&gt;&lt;br&gt;squalene/phytoene synthase family protein&lt;br&gt;Location: 1900758 - 1901534&lt;br&gt;&lt;br&gt;&lt;b&gt;BlastP hit with NGLDBBKK_01843&lt;/b&gt;&lt;br&gt;Percentage identity: 89&lt;br&gt;Percentage coverage: 100&lt;br&gt;BLAST bit score: 441&lt;br&gt;E-value: 4.46e-157" locus_tag="AKL17_RS08985" class="clusterblast-orf" id="dummy-1_h1_2_7"  />
</g>
<g id="a1_008"  >
<polygon points="395,85 400,80 458,80 458,90 400,90 395,85 " style="fill:#d81590; stroke-width:1; stroke:black; " description="&lt;b&gt;AKL17_RS08990&lt;/b&gt;&lt;br&gt;citramalate synthase&lt;br&gt;Location: 1901531 - 1903183&lt;br&gt;&lt;br&gt;&lt;b&gt;BlastP hit with NGLDBBKK_01844&lt;/b&gt;&lt;br&gt;Percentage identity: 94&lt;br&gt;Percentage coverage: 100&lt;br&gt;BLAST bit score: 1024&lt;br&gt;E-value: 0.0" locus_tag="AKL17_RS08990" class="clusterblast-orf" id="dummy-1_h1_2_8"  />
</g>
<g id="a1_009"  >
<polygon points="458,85 463,80 515,80 515,90 463,90 458,85 " style="fill:#d8ce15; stroke-width:1; stroke:black; " description="&lt;b&gt;AKL17_RS08995&lt;/b&gt;&lt;br&gt;cysteine--tRNA ligase&lt;br&gt;Location: 1903180 - 1904652&lt;br&gt;&lt;br&gt;&lt;b&gt;BlastP hit with NGLDBBKK_01845&lt;/b&gt;&lt;br&gt;Percentage identity: 64&lt;br&gt;Percentage coverage: 106&lt;br&gt;BLAST bit score: 608&lt;br&gt;E-value: 2.71e-215" locus_tag="AKL17_RS08995" class="clusterblast-orf" id="dummy-1_h1_2_9"  />
</g>
<g id="a1_0010"  >
<polygon points="533,90 573,90 578,85 573,80 533,80 533,90 " style="fill:#15d87c; stroke-width:1; stroke:black; " description="&lt;b&gt;AKL17_RS09000&lt;/b&gt;&lt;br&gt;aminotransferase class I/II-fold pyridoxal phosphate-dependent enzyme&lt;br&gt;Location: 1905109 - 1906287&lt;br&gt;&lt;br&gt;&lt;b&gt;BlastP hit with NGLDBBKK_01846&lt;/b&gt;&lt;br&gt;Percentage identity: 93&lt;br&gt;Percentage coverage: 101&lt;br&gt;BLAST bit score: 688&lt;br&gt;E-value: 2.64e-250" locus_tag="AKL17_RS09000" class="clusterblast-orf" id="dummy-1_h1_2_10"  />
</g>
<g id="a1_0011"  >
<polygon points="578,85 583,80 601,80 601,90 583,90 578,85 " style="fill:white; stroke-width:1; stroke:black; " description="&lt;b&gt;AKL17_RS09005&lt;/b&gt;&lt;br&gt;LysE family transporter&lt;br&gt;Location: 1906284 - 1906889" locus_tag="AKL17_RS09005" class="clusterblast-orf" id="dummy-1_h1_2_11"  />
</g>
<g id="a1_0012"  >
<polygon points="601,85 606,80 619,80 619,90 606,90 601,85 " style="fill:white; stroke-width:1; stroke:black; " description="&lt;b&gt;AKL17_RS09010&lt;/b&gt;&lt;br&gt;Lrp/AsnC family transcriptional regulator&lt;br&gt;Location: 1906895 - 1907344" locus_tag="AKL17_RS09010" class="clusterblast-orf" id="dummy-1_h1_2_12"  />
</g>
<g id="a1_0013"  >
<polygon points="621,85 626,80 665,80 665,90 626,90 621,85 " style="fill:#d81553; stroke-width:1; stroke:black; " description="&lt;b&gt;AKL17_RS09015&lt;/b&gt;&lt;br&gt;lipid-A-disaccharide synthase&lt;br&gt;Location: 1907410 - 1908556&lt;br&gt;&lt;br&gt;&lt;b&gt;BlastP hit with NGLDBBKK_01849&lt;/b&gt;&lt;br&gt;Percentage identity: 95&lt;br&gt;Percentage coverage: 84&lt;br&gt;BLAST bit score: 594&lt;br&gt;E-value: 5.99e-214" locus_tag="AKL17_RS09015" class="clusterblast-orf" id="dummy-1_h1_2_13"  />
</g>
<g id="a1_0014"  >
<polygon points="665,85 670,80 698,80 698,90 670,90 665,85 " style="fill:#a5d815; stroke-width:1; stroke:black; " description="&lt;b&gt;AKL17_RS09020&lt;/b&gt;&lt;br&gt;UDP-2,3-diacylglucosamine diphosphatase LpxI&lt;br&gt;Location: 1908553 - 1909392&lt;br&gt;&lt;br&gt;&lt;b&gt;BlastP hit with NGLDBBKK_01850&lt;/b&gt;&lt;br&gt;Percentage identity: 91&lt;br&gt;Percentage coverage: 98&lt;br&gt;BLAST bit score: 477&lt;br&gt;E-value: 2.49e-170" locus_tag="AKL17_RS09020" class="clusterblast-orf" id="dummy-1_h1_2_14"  />
</g>
<g id="a1_0015"  >
<polygon points="697,85 702,80 728,80 728,90 702,90 697,85 " style="fill:#15d8b9; stroke-width:1; stroke:black; " description="&lt;b&gt;AKL17_RS09025&lt;/b&gt;&lt;br&gt;acyl-ACP--UDP-N-acetylglucosamine O-acyltransferase&lt;br&gt;Location: 1909389 - 1910183&lt;br&gt;&lt;br&gt;&lt;b&gt;BlastP hit with NGLDBBKK_01851&lt;/b&gt;&lt;br&gt;Percentage identity: 89&lt;br&gt;Percentage coverage: 100&lt;br&gt;BLAST bit score: 364&lt;br&gt;E-value: 1.98e-126" locus_tag="AKL17_RS09025" class="clusterblast-orf" id="dummy-1_h1_2_15"  />
</g>
<g id="a1_0016"  >
<polygon points="728,85 733,80 747,80 747,90 733,90 728,85 " style="fill:#6715d8; stroke-width:1; stroke:black; " description="&lt;b&gt;AKL17_RS09030&lt;/b&gt;&lt;br&gt;3-hydroxyacyl-ACP dehydratase FabZ&lt;br&gt;Location: 1910188 - 1910679&lt;br&gt;&lt;br&gt;&lt;b&gt;BlastP hit with NGLDBBKK_01852&lt;/b&gt;&lt;br&gt;Percentage identity: 97&lt;br&gt;Percentage coverage: 100&lt;br&gt;BLAST bit score: 318&lt;br&gt;E-value: 1.96e-111" locus_tag="AKL17_RS09030" class="clusterblast-orf" id="dummy-1_h1_2_16"  />
</g>
<g id="a1_0017"  >
<polygon points="753,85 758,80 779,80 779,90 758,90 753,85 " style="fill:white; stroke-width:1; stroke:black; " description="&lt;b&gt;AKL17_RS09035&lt;/b&gt;&lt;br&gt;OmpH family outer membrane protein&lt;br&gt;Location: 1910834 - 1911517" locus_tag="AKL17_RS09035" class="clusterblast-orf" id="dummy-1_h1_2_17"  />
</g>
</svg>
