<svg xmlns="http://www.w3.org/2000/svg" xmlns:xlink="http://www.w3.org/1999/xlink" version="1.1" x="0" y="0" height="230" width="800" viewBox="0 0 800 230" preserveAspectRatio="none"  >
<g label="Query sequence" class="clusterblast-cluster"  >
<text x="5" y="20" class="clusterblast-acc"  >
Query sequence</text>
<line x1="10" y1="35" x2="778.0" y2="35" style="stroke-width:1; stroke:grey; "  />
<polygon points="0,35 5,30 39,30 39,40 5,40 0,35 " style="fill:white; stroke-width:1; stroke:black; " description="&lt;b&gt;OJOGLHAG_01992&lt;/b&gt;&lt;br&gt;GTP 3',8-cyclase&lt;br&gt;Location: 1286099 - 1287104" locus_tag="OJOGLHAG_01992" class="clusterblast-orf" id="dummy-1_q0_0_all"  />
<polygon points="44,40 55,40 60,35 55,30 44,30 44,40 " style="fill:white; stroke-width:1; stroke:black; " description="&lt;b&gt;OJOGLHAG_01993&lt;/b&gt;&lt;br&gt;hypothetical protein&lt;br&gt;Location: 1287227 - 1287638" locus_tag="OJOGLHAG_01993" class="clusterblast-orf" id="dummy-1_q1_0_all"  />
<polygon points="64,40 93,40 98,35 93,30 64,30 64,40 " style="fill:white; stroke-width:1; stroke:black; " description="&lt;b&gt;OJOGLHAG_01994&lt;/b&gt;&lt;br&gt;2',3'-cyclic-nucleotide 2'-phosphodiesterase&lt;br&gt;Location: 1287743 - 1288598" locus_tag="OJOGLHAG_01994" class="clusterblast-orf" id="dummy-1_q2_0_all"  />
<polygon points="106,40 131,40 136,35 131,30 106,30 106,40 " style="fill:white; stroke-width:1; stroke:black; " description="&lt;b&gt;OJOGLHAG_01995&lt;/b&gt;&lt;br&gt;Gamma-glutamyl-gamma-aminobutyrate hydrolase PuuD&lt;br&gt;Location: 1288796 - 1289570" locus_tag="OJOGLHAG_01995" class="clusterblast-orf" id="dummy-1_q3_0_all"  />
<polygon points="137,35 142,30 172,30 172,40 142,40 137,35 " style="fill:#d81515; stroke-width:1; stroke:black; " description="&lt;b&gt;OJOGLHAG_01996&lt;/b&gt;&lt;br&gt;2-succinyl-6-hydroxy-2, 4-cyclohexadiene-1-carboxylate synthase&lt;br&gt;Location: 1289602 - 1290475" locus_tag="OJOGLHAG_01996" class="clusterblast-orf" id="dummy-1_q4_0_all"  />
<polygon points="172,35 177,30 239,30 239,40 177,40 172,35 " style="fill:#63d815; stroke-width:1; stroke:black; " description="&lt;b&gt;OJOGLHAG_01997&lt;/b&gt;&lt;br&gt;Magnesium-chelatase 60 kDa subunit&lt;br&gt;Location: 1290478 - 1292203" locus_tag="OJOGLHAG_01997" class="clusterblast-orf" id="dummy-1_q5_0_all"  />
<polygon points="242,35 247,30 281,30 281,40 247,40 242,35 " style="fill:#15b1d8; stroke-width:1; stroke:black; " description="&lt;b&gt;OJOGLHAG_01998&lt;/b&gt;&lt;br&gt;Magnesium-chelatase 38 kDa subunit&lt;br&gt;Location: 1292261 - 1293263" locus_tag="OJOGLHAG_01998" class="clusterblast-orf" id="dummy-1_q6_0_all"  />
<polygon points="281,35 286,30 308,30 308,40 286,40 281,35 " style="fill:#b115d8; stroke-width:1; stroke:black; " description="&lt;b&gt;OJOGLHAG_01999&lt;/b&gt;&lt;br&gt;Spheroidene monooxygenase&lt;br&gt;Location: 1293259 - 1293964" locus_tag="OJOGLHAG_01999" class="clusterblast-orf" id="dummy-1_q7_0_all"  />
<polygon points="314,40 369,40 374,35 369,30 314,30 314,40 " style="fill:#d86315; stroke-width:1; stroke:black; " description="&lt;b&gt;OJOGLHAG_02000&lt;/b&gt;&lt;br&gt;Phytoene desaturase (neurosporene-forming)&lt;br&gt;Location: 1294097 - 1295639" locus_tag="OJOGLHAG_02000" class="clusterblast-orf" id="dummy-1_q8_0_all"  />
<polygon points="374,40 410,40 415,35 410,30 374,30 374,40 " style="fill:#15d815; stroke-width:1; stroke:black; " description="&lt;b&gt;OJOGLHAG_02001&lt;/b&gt;&lt;br&gt;hypothetical protein&lt;br&gt;Location: 1295635 - 1296670" locus_tag="OJOGLHAG_02001" class="clusterblast-orf" id="dummy-1_q9_0_all"  />
<polygon points="419,40 432,40 437,35 432,30 419,30 419,40 " style="fill:#1563d8; stroke-width:1; stroke:black; " description="&lt;b&gt;OJOGLHAG_02002&lt;/b&gt;&lt;br&gt;Tryptophan-rich sensory protein&lt;br&gt;Location: 1296790 - 1297249" locus_tag="OJOGLHAG_02002" class="clusterblast-orf" id="dummy-1_q10_0_all"  />
<polygon points="440,35 445,30 461,30 461,40 445,40 440,35 " style="fill:#d815b1; stroke-width:1; stroke:black; " description="&lt;b&gt;OJOGLHAG_02003&lt;/b&gt;&lt;br&gt;Isopentenyl-diphosphate Delta-isomerase&lt;br&gt;Location: 1297305 - 1297863" locus_tag="OJOGLHAG_02003" class="clusterblast-orf" id="dummy-1_q11_0_all"  />
<polygon points="461,35 466,30 508,30 508,40 466,40 461,35 " style="fill:#d8b115; stroke-width:1; stroke:black; " description="&lt;b&gt;OJOGLHAG_02004&lt;/b&gt;&lt;br&gt;Menaquinone reductase&lt;br&gt;Location: 1297859 - 1299041" locus_tag="OJOGLHAG_02004" class="clusterblast-orf" id="dummy-1_q12_0_all"  />
<polygon points="508,35 513,30 558,30 558,40 513,40 508,35 " style="fill:#15d863; stroke-width:1; stroke:black; " description="&lt;b&gt;OJOGLHAG_02005&lt;/b&gt;&lt;br&gt;Protein PucC&lt;br&gt;Location: 1299044 - 1300316" locus_tag="OJOGLHAG_02005" class="clusterblast-orf" id="dummy-1_q13_0_all"  />
<polygon points="558,35 563,30 593,30 593,40 563,40 558,35 " style="fill:#1515d8; stroke-width:1; stroke:black; " description="&lt;b&gt;OJOGLHAG_02006&lt;/b&gt;&lt;br&gt;1,4-dihydroxy-2-naphthoate octaprenyltransferase&lt;br&gt;Location: 1300312 - 1301209" locus_tag="OJOGLHAG_02006" class="clusterblast-orf" id="dummy-1_q14_0_all"  />
<polygon points="595,35 600,30 618,30 618,40 600,40 595,35 " style="fill:#d81563; stroke-width:1; stroke:black; " description="&lt;b&gt;OJOGLHAG_02007&lt;/b&gt;&lt;br&gt;hypothetical protein&lt;br&gt;Location: 1301270 - 1301861" locus_tag="OJOGLHAG_02007" class="clusterblast-orf" id="dummy-1_q15_0_all"  />
<polygon points="619,35 624,30 685,30 685,40 624,40 619,35 " style="fill:#b1d815; stroke-width:1; stroke:black; " description="&lt;b&gt;OJOGLHAG_02008&lt;/b&gt;&lt;br&gt;Anaerobic magnesium-protoporphyrin IX monomethyl ester cyclase&lt;br&gt;Location: 1301867 - 1303559" locus_tag="OJOGLHAG_02008" class="clusterblast-orf" id="dummy-1_q16_0_all"  />
<polygon points="689,35 694,30 745,30 745,40 694,40 689,35 " style="fill:#15d8b1; stroke-width:1; stroke:black; " description="&lt;b&gt;OJOGLHAG_02009&lt;/b&gt;&lt;br&gt;hypothetical protein&lt;br&gt;Location: 1303657 - 1305085" locus_tag="OJOGLHAG_02009" class="clusterblast-orf" id="dummy-1_q17_0_all"  />
<polygon points="747,35 752,30 780,30 780,40 752,40 747,35 " style="fill:#6315d8; stroke-width:1; stroke:black; " description="&lt;b&gt;OJOGLHAG_02010&lt;/b&gt;&lt;br&gt;hypothetical protein&lt;br&gt;Location: 1305142 - 1305979" locus_tag="OJOGLHAG_02010" class="clusterblast-orf" id="dummy-1_q18_0_all"  />
</g>
<g label="NZ_CP028918" description="NZ_CP028918 (1124240-1143571): Gemmobacter sp. HYN0069 chromosome, complete g... (58% of genes show similarity), terpene" class="clusterblast-cluster"  >
<text x="5" y="70" class="clusterblast-acc"  >
<a xlink:href="https://antismash-db.secondarymetabolites.org/area.html?record=NZ_CP028918&amp;start=1124240&amp;end=1143571" target="_blank">NZ_CP028918 (1124240-1143571)</a>: Gemmobacter sp. HYN0069 chromosome, complete g... (58% of genes show similarity), terpene</text>
<line x1="10" y1="85" x2="778.0" y2="85" style="stroke-width:1; stroke:grey; "  />
</g>
<g id="a1_000"  >
<polygon points="10,90 56,90 61,85 56,80 10,80 10,90 " style="fill:#15d863; stroke-width:1; stroke:black; " description="&lt;b&gt;HYN69_RS05450&lt;/b&gt;&lt;br&gt;BCD family MFS transporter&lt;br&gt;Location: 1124241 - 1125524&lt;br&gt;&lt;br&gt;&lt;b&gt;BlastP hit with OJOGLHAG_02005&lt;/b&gt;&lt;br&gt;Percentage identity: 64&lt;br&gt;Percentage coverage: 101&lt;br&gt;BLAST bit score: 434&lt;br&gt;E-value: 7.18e-149" locus_tag="HYN69_RS05450" class="clusterblast-orf" id="dummy-1_h1_7_0"  />
</g>
<g id="a1_001"  >
<polygon points="61,90 102,90 107,85 102,80 61,80 61,90 " style="fill:#d8b115; stroke-width:1; stroke:black; " description="&lt;b&gt;HYN69_RS05455&lt;/b&gt;&lt;br&gt;geranylgeranyl diphosphate reductase&lt;br&gt;Location: 1125528 - 1126709&lt;br&gt;&lt;br&gt;&lt;b&gt;BlastP hit with OJOGLHAG_02004&lt;/b&gt;&lt;br&gt;Percentage identity: 81&lt;br&gt;Percentage coverage: 100&lt;br&gt;BLAST bit score: 640&lt;br&gt;E-value: 2.38e-231" locus_tag="HYN69_RS05455" class="clusterblast-orf" id="dummy-1_h1_7_1"  />
</g>
<g id="a1_002"  >
<polygon points="108,90 124,90 129,85 124,80 108,80 108,90 " style="fill:#d815b1; stroke-width:1; stroke:black; " description="&lt;b&gt;HYN69_RS05460&lt;/b&gt;&lt;br&gt;isopentenyl-diphosphate Delta-isomerase&lt;br&gt;Location: 1126736 - 1127257&lt;br&gt;&lt;br&gt;&lt;b&gt;BlastP hit with OJOGLHAG_02003&lt;/b&gt;&lt;br&gt;Percentage identity: 62&lt;br&gt;Percentage coverage: 93&lt;br&gt;BLAST bit score: 231&lt;br&gt;E-value: 2.55e-76" locus_tag="HYN69_RS05460" class="clusterblast-orf" id="dummy-1_h1_7_2"  />
</g>
<g id="a1_003"  >
<polygon points="137,85 142,80 171,80 171,90 142,90 137,85 " style="fill:#d81515; stroke-width:1; stroke:black; " description="&lt;b&gt;HYN69_RS05465&lt;/b&gt;&lt;br&gt;alpha/beta fold hydrolase&lt;br&gt;Location: 1127471 - 1128349&lt;br&gt;&lt;br&gt;&lt;b&gt;BlastP hit with OJOGLHAG_01996&lt;/b&gt;&lt;br&gt;Percentage identity: 54&lt;br&gt;Percentage coverage: 98&lt;br&gt;BLAST bit score: 284&lt;br&gt;E-value: 5.29e-94" locus_tag="HYN69_RS05465" class="clusterblast-orf" id="dummy-1_h1_7_3"  />
</g>
<g id="a1_004"  >
<polygon points="172,85 177,80 236,80 236,90 177,90 172,85 " style="fill:#63d815; stroke-width:1; stroke:black; " description="&lt;b&gt;HYN69_RS05470&lt;/b&gt;&lt;br&gt;magnesium chelatase subunit D&lt;br&gt;Location: 1128351 - 1129991&lt;br&gt;&lt;br&gt;&lt;b&gt;BlastP hit with OJOGLHAG_01997&lt;/b&gt;&lt;br&gt;Percentage identity: 56&lt;br&gt;Percentage coverage: 97&lt;br&gt;BLAST bit score: 520&lt;br&gt;E-value: 1.59e-178" locus_tag="HYN69_RS05470" class="clusterblast-orf" id="dummy-1_h1_7_4"  />
</g>
<g id="a1_005"  >
<polygon points="237,85 242,80 277,80 277,90 242,90 237,85 " style="fill:#15b1d8; stroke-width:1; stroke:black; " description="&lt;b&gt;HYN69_RS05475&lt;/b&gt;&lt;br&gt;magnesium chelatase ATPase subunit I&lt;br&gt;Location: 1130027 - 1131031&lt;br&gt;&lt;br&gt;&lt;b&gt;BlastP hit with OJOGLHAG_01998&lt;/b&gt;&lt;br&gt;Percentage identity: 80&lt;br&gt;Percentage coverage: 99&lt;br&gt;BLAST bit score: 522&lt;br&gt;E-value: 1.42e-186" locus_tag="HYN69_RS05475" class="clusterblast-orf" id="dummy-1_h1_7_5"  />
</g>
<g id="a1_006"  >
<polygon points="282,85 287,80 310,80 310,90 287,90 282,85 " style="fill:#b115d8; stroke-width:1; stroke:black; " description="&lt;b&gt;HYN69_RS05480&lt;/b&gt;&lt;br&gt;spheroidene monooxygenase&lt;br&gt;Location: 1131165 - 1131884&lt;br&gt;&lt;br&gt;&lt;b&gt;BlastP hit with OJOGLHAG_01999&lt;/b&gt;&lt;br&gt;Percentage identity: 65&lt;br&gt;Percentage coverage: 102&lt;br&gt;BLAST bit score: 315&lt;br&gt;E-value: 1.09e-107" locus_tag="HYN69_RS05480" class="clusterblast-orf" id="dummy-1_h1_7_6"  />
</g>
<g id="a1_007"  >
<polygon points="316,90 372,90 377,85 372,80 316,80 316,90 " style="fill:#d86315; stroke-width:1; stroke:black; " description="&lt;b&gt;HYN69_RS05485&lt;/b&gt;&lt;br&gt;phytoene desaturase&lt;br&gt;Location: 1132027 - 1133592&lt;br&gt;&lt;br&gt;&lt;b&gt;BlastP hit with OJOGLHAG_02000&lt;/b&gt;&lt;br&gt;Percentage identity: 78&lt;br&gt;Percentage coverage: 99&lt;br&gt;BLAST bit score: 801&lt;br&gt;E-value: 7.1e-291" locus_tag="HYN69_RS05485" class="clusterblast-orf" id="dummy-1_h1_7_7"  />
</g>
<g id="a1_008"  >
<polygon points="377,90 413,90 418,85 413,80 377,80 377,90 " style="fill:#15d815; stroke-width:1; stroke:black; " description="&lt;b&gt;HYN69_RS05490&lt;/b&gt;&lt;br&gt;phytoene/squalene synthase family protein&lt;br&gt;Location: 1133589 - 1134635&lt;br&gt;&lt;br&gt;&lt;b&gt;BlastP hit with OJOGLHAG_02001&lt;/b&gt;&lt;br&gt;Percentage identity: 65&lt;br&gt;Percentage coverage: 94&lt;br&gt;BLAST bit score: 394&lt;br&gt;E-value: 2.18e-135" locus_tag="HYN69_RS05490" class="clusterblast-orf" id="dummy-1_h1_7_8"  />
</g>
<g id="a1_009"  >
<polygon points="421,90 435,90 440,85 435,80 421,80 421,90 " style="fill:#1563d8; stroke-width:1; stroke:black; " description="&lt;b&gt;HYN69_RS05495&lt;/b&gt;&lt;br&gt;tryptophan-rich sensory protein&lt;br&gt;Location: 1134719 - 1135195&lt;br&gt;&lt;br&gt;&lt;b&gt;BlastP hit with OJOGLHAG_02002&lt;/b&gt;&lt;br&gt;Percentage identity: 59&lt;br&gt;Percentage coverage: 99&lt;br&gt;BLAST bit score: 199&lt;br&gt;E-value: 1.84e-64" locus_tag="HYN69_RS05495" class="clusterblast-orf" id="dummy-1_h1_7_9"  />
</g>
<g id="a1_0010"  >
<polygon points="443,85 448,80 476,80 476,90 448,90 443,85 " style="fill:white; stroke-width:1; stroke:black; " description="&lt;b&gt;HYN69_RS05500&lt;/b&gt;&lt;br&gt;carotenoid 1,2-hydratase&lt;br&gt;Location: 1135263 - 1136102" locus_tag="HYN69_RS05500" class="clusterblast-orf" id="dummy-1_h1_7_10"  />
</g>
<g id="a1_0011"  >
<polygon points="476,85 481,80 539,80 539,90 481,90 476,85 " style="fill:white; stroke-width:1; stroke:black; " description="&lt;b&gt;HYN69_RS05505&lt;/b&gt;&lt;br&gt;FAD-dependent oxidoreductase&lt;br&gt;Location: 1136099 - 1137718" locus_tag="HYN69_RS05505" class="clusterblast-orf" id="dummy-1_h1_7_11"  />
</g>
<g id="a1_0012"  >
<polygon points="544,90 574,90 579,85 574,80 544,80 544,90 " style="fill:white; stroke-width:1; stroke:black; " description="&lt;b&gt;HYN69_RS05510&lt;/b&gt;&lt;br&gt;polyprenyl synthetase family protein&lt;br&gt;Location: 1137841 - 1138725" locus_tag="HYN69_RS05510" class="clusterblast-orf" id="dummy-1_h1_7_12"  />
</g>
<g id="a1_0013"  >
<polygon points="579,90 617,90 622,85 617,80 579,80 579,90 " style="fill:white; stroke-width:1; stroke:black; " description="&lt;b&gt;HYN69_RS05515&lt;/b&gt;&lt;br&gt;methyltransferase domain-containing protein&lt;br&gt;Location: 1138746 - 1139843" locus_tag="HYN69_RS05515" class="clusterblast-orf" id="dummy-1_h1_7_13"  />
</g>
<g id="a1_0014"  >
<polygon points="628,90 660,90 665,85 660,80 628,80 628,90 " style="fill:white; stroke-width:1; stroke:black; " description="&lt;b&gt;HYN69_RS05520&lt;/b&gt;&lt;br&gt;chlorophyll synthesis pathway protein BchC&lt;br&gt;Location: 1139982 - 1140926" locus_tag="HYN69_RS05520" class="clusterblast-orf" id="dummy-1_h1_7_14"  />
</g>
<g id="a1_0015"  >
<polygon points="665,90 699,90 704,85 699,80 665,80 665,90 " style="fill:white; stroke-width:1; stroke:black; " description="&lt;b&gt;HYN69_RS05525&lt;/b&gt;&lt;br&gt;chlorophyllide a reductase iron protein subunit X&lt;br&gt;Location: 1140923 - 1141927" locus_tag="HYN69_RS05525" class="clusterblast-orf" id="dummy-1_h1_7_15"  />
</g>
<g id="a1_0016"  >
<polygon points="707,90 764,90 769,85 764,80 707,80 707,90 " style="fill:white; stroke-width:1; stroke:black; " description="&lt;b&gt;HYN69_RS05530&lt;/b&gt;&lt;br&gt;chlorophyllide a reductase subunit Y&lt;br&gt;Location: 1141991 - 1143571" locus_tag="HYN69_RS05530" class="clusterblast-orf" id="dummy-1_h1_7_16"  />
</g>
</svg>
