<svg xmlns="http://www.w3.org/2000/svg" xmlns:xlink="http://www.w3.org/1999/xlink" version="1.1" x="0" y="0" height="230" width="800" viewBox="0 0 800 230" preserveAspectRatio="none"  >
<g label="Query sequence" class="clusterblast-cluster"  >
<text x="5" y="20" class="clusterblast-acc"  >
Query sequence</text>
<line x1="10" y1="35" x2="778.0" y2="35" style="stroke-width:1; stroke:grey; "  />
<polygon points="21,40 73,40 78,35 73,30 21,30 21,40 " style="fill:white; stroke-width:1; stroke:black; " description="&lt;b&gt;OJOGLHAG_02494&lt;/b&gt;&lt;br&gt;Protein-L-isoaspartate O-methyltransferase&lt;br&gt;Location: 1807299 - 1807956" locus_tag="OJOGLHAG_02494" class="clusterblast-orf" id="dummy-2_q0_0_all"  />
<polygon points="83,40 177,40 182,35 177,30 83,30 83,40 " style="fill:white; stroke-width:1; stroke:black; " description="&lt;b&gt;OJOGLHAG_02495&lt;/b&gt;&lt;br&gt;hypothetical protein&lt;br&gt;Location: 1808008 - 1809139" locus_tag="OJOGLHAG_02495" class="clusterblast-orf" id="dummy-2_q1_0_all"  />
<polygon points="183,35 188,30 225,30 225,40 188,40 183,35 " style="fill:#d81515; stroke-width:1; stroke:black; " description="&lt;b&gt;OJOGLHAG_02496&lt;/b&gt;&lt;br&gt;hypothetical protein&lt;br&gt;Location: 1809144 - 1809630" locus_tag="OJOGLHAG_02496" class="clusterblast-orf" id="dummy-2_q2_0_all"  />
<polygon points="248,40 291,40 296,35 291,30 248,30 248,40 " style="fill:#15d863; stroke-width:1; stroke:black; " description="&lt;b&gt;OJOGLHAG_02497&lt;/b&gt;&lt;br&gt;L-2,4-diaminobutyric acid acetyltransferase&lt;br&gt;Location: 1809891 - 1810434" locus_tag="OJOGLHAG_02497" class="clusterblast-orf" id="dummy-2_q3_0_all"  />
<polygon points="301,40 408,40 413,35 408,30 301,30 301,40 " style="fill:#1563d8; stroke-width:1; stroke:black; " description="&lt;b&gt;OJOGLHAG_02498&lt;/b&gt;&lt;br&gt;Diaminobutyrate--2-oxoglutarate transaminase&lt;br&gt;Location: 1810487 - 1811768" locus_tag="OJOGLHAG_02498" class="clusterblast-orf" id="dummy-2_q4_0_all"  />
<polygon points="413,40 442,40 447,35 442,30 413,30 413,40 " style="fill:#b115d8; stroke-width:1; stroke:black; " description="&lt;b&gt;OJOGLHAG_02499&lt;/b&gt;&lt;br&gt;L-ectoine synthase&lt;br&gt;Location: 1811773 - 1812160" locus_tag="OJOGLHAG_02499" class="clusterblast-orf" id="dummy-2_q5_0_all"  />
<polygon points="454,40 574,40 579,35 574,30 454,30 454,40 " style="fill:#b1d815; stroke-width:1; stroke:black; " description="&lt;b&gt;OJOGLHAG_02500&lt;/b&gt;&lt;br&gt;Aspartate kinase Ask Ect&lt;br&gt;Location: 1812237 - 1813653" locus_tag="OJOGLHAG_02500" class="clusterblast-orf" id="dummy-2_q6_0_all"  />
<polygon points="609,35 614,30 651,30 651,40 614,40 609,35 " style="fill:white; stroke-width:1; stroke:black; " description="&lt;b&gt;OJOGLHAG_02501&lt;/b&gt;&lt;br&gt;Putative pre-16S rRNA nuclease&lt;br&gt;Location: 1814001 - 1814481" locus_tag="OJOGLHAG_02501" class="clusterblast-orf" id="dummy-2_q7_0_all"  />
<polygon points="651,35 656,30 760,30 760,40 656,40 651,35 " style="fill:white; stroke-width:1; stroke:black; " description="&lt;b&gt;OJOGLHAG_02502&lt;/b&gt;&lt;br&gt;hypothetical protein&lt;br&gt;Location: 1814477 - 1815722" locus_tag="OJOGLHAG_02502" class="clusterblast-orf" id="dummy-2_q8_0_all"  />
</g>
<g label="NZ_LXYH01000056" description="NZ_LXYH01000056 (3698-14082): Rhodobacteraceae bacterium EhC02 A5 Contig6, wh... (50% of genes show similarity), ectoine" class="clusterblast-cluster"  >
<text x="5" y="70" class="clusterblast-acc"  >
<a xlink:href="https://antismash-db.secondarymetabolites.org/area.html?record=NZ_LXYH01000056&amp;start=3698&amp;end=14082" target="_blank">NZ_LXYH01000056 (3698-14082)</a>: Rhodobacteraceae bacterium EhC02 A5 Contig6, wh... (50% of genes show similarity), ectoine</text>
<line x1="10" y1="85" x2="778.0" y2="85" style="stroke-width:1; stroke:grey; "  />
</g>
<g id="a2_000"  >
<polygon points="0,85 5,80 19,80 19,90 5,90 0,85 " style="fill:white; stroke-width:1; stroke:black; " description="&lt;b&gt;A8B83_RS17790&lt;/b&gt;&lt;br&gt;RND transporter&lt;br&gt;Location: 4432 - 4650" locus_tag="A8B83_RS17790" class="clusterblast-orf" id="dummy-2_h2_3_0"  />
</g>
<g id="a2_001"  >
<polygon points="46,85 51,80 129,80 129,90 51,90 46,85 " style="fill:white; stroke-width:1; stroke:black; " description="&lt;b&gt;A8B83_RS17805&lt;/b&gt;&lt;br&gt;pirin family protein&lt;br&gt;Location: 4967 - 5905" locus_tag="A8B83_RS17805" class="clusterblast-orf" id="dummy-2_h2_3_1"  />
</g>
<g id="a2_002"  >
<polygon points="137,85 142,80 179,80 179,90 142,90 137,85 " style="fill:#d81515; stroke-width:1; stroke:black; " description="&lt;b&gt;A8B83_RS17810&lt;/b&gt;&lt;br&gt;MarR family transcriptional regulator&lt;br&gt;Location: 6003 - 6479&lt;br&gt;&lt;br&gt;&lt;b&gt;BlastP hit with OJOGLHAG_02496&lt;/b&gt;&lt;br&gt;Percentage identity: 49&lt;br&gt;Percentage coverage: 94&lt;br&gt;BLAST bit score: 134&lt;br&gt;E-value: 5.87e-39" locus_tag="A8B83_RS17810" class="clusterblast-orf" id="dummy-2_h2_3_2"  />
</g>
<g id="a2_003"  >
<polygon points="203,90 251,90 256,85 251,80 203,80 203,90 " style="fill:#15d863; stroke-width:1; stroke:black; " description="&lt;b&gt;A8B83_RS17815&lt;/b&gt;&lt;br&gt;diaminobutyrate acetyltransferase&lt;br&gt;Location: 6755 - 7357&lt;br&gt;&lt;br&gt;&lt;b&gt;BlastP hit with OJOGLHAG_02497&lt;/b&gt;&lt;br&gt;Percentage identity: 65&lt;br&gt;Percentage coverage: 90&lt;br&gt;BLAST bit score: 230&lt;br&gt;E-value: 7.29e-76" locus_tag="A8B83_RS17815" class="clusterblast-orf" id="dummy-2_h2_3_3"  />
</g>
<g id="a2_004"  >
<polygon points="259,90 369,90 374,85 369,80 259,80 259,90 " style="fill:#1563d8; stroke-width:1; stroke:black; " description="&lt;b&gt;A8B83_RS17820&lt;/b&gt;&lt;br&gt;diaminobutyrate--2-oxoglutarate transaminase&lt;br&gt;Location: 7388 - 8692&lt;br&gt;&lt;br&gt;&lt;b&gt;BlastP hit with OJOGLHAG_02498&lt;/b&gt;&lt;br&gt;Percentage identity: 75&lt;br&gt;Percentage coverage: 101&lt;br&gt;BLAST bit score: 633&lt;br&gt;E-value: 4.34e-227" locus_tag="A8B83_RS17820" class="clusterblast-orf" id="dummy-2_h2_3_4"  />
</g>
<g id="a2_005"  >
<polygon points="374,90 403,90 408,85 403,80 374,80 374,90 " style="fill:#b115d8; stroke-width:1; stroke:black; " description="&lt;b&gt;A8B83_RS17825&lt;/b&gt;&lt;br&gt;ectoine synthase&lt;br&gt;Location: 8699 - 9082&lt;br&gt;&lt;br&gt;&lt;b&gt;BlastP hit with OJOGLHAG_02499&lt;/b&gt;&lt;br&gt;Percentage identity: 79&lt;br&gt;Percentage coverage: 97&lt;br&gt;BLAST bit score: 215&lt;br&gt;E-value: 7.2e-72" locus_tag="A8B83_RS17825" class="clusterblast-orf" id="dummy-2_h2_3_5"  />
</g>
<g id="a2_006"  >
<polygon points="414,90 535,90 540,85 535,80 414,80 414,90 " style="fill:#b1d815; stroke-width:1; stroke:black; " description="&lt;b&gt;A8B83_RS17830&lt;/b&gt;&lt;br&gt;aspartate kinase&lt;br&gt;Location: 9158 - 10591&lt;br&gt;&lt;br&gt;&lt;b&gt;BlastP hit with OJOGLHAG_02500&lt;/b&gt;&lt;br&gt;Percentage identity: 71&lt;br&gt;Percentage coverage: 96&lt;br&gt;BLAST bit score: 647&lt;br&gt;E-value: 2.79e-231" locus_tag="A8B83_RS17830" class="clusterblast-orf" id="dummy-2_h2_3_6"  />
</g>
<g id="a2_007"  >
<polygon points="545,85 550,80 597,80 597,90 550,90 545,85 " style="fill:white; stroke-width:1; stroke:black; " description="&lt;b&gt;A8B83_RS17835&lt;/b&gt;&lt;br&gt;methyltransferase domain-containing protein&lt;br&gt;Location: 10643 - 11236" locus_tag="A8B83_RS17835" class="clusterblast-orf" id="dummy-2_h2_3_7"  />
</g>
<g id="a2_008"  >
<polygon points="608,90 685,90 690,85 685,80 608,80 608,90 " style="fill:white; stroke-width:1; stroke:black; " description="&lt;b&gt;A8B83_RS17840&lt;/b&gt;&lt;br&gt;MBL fold metallo-hydrolase&lt;br&gt;Location: 11361 - 12296" locus_tag="A8B83_RS17840" class="clusterblast-orf" id="dummy-2_h2_3_8"  />
</g>
<g id="a2_009"  >
<polygon points="709,90 775,90 780,85 775,80 709,80 709,90 " style="fill:white; stroke-width:1; stroke:black; " description="&lt;b&gt;A8B83_RS17845&lt;/b&gt;&lt;br&gt;bifunctional hydroxymethylpyrimidine kinase/phosphomethylpyrimidine kinase&lt;br&gt;Location: 12512 - 13315" locus_tag="A8B83_RS17845" class="clusterblast-orf" id="dummy-2_h2_3_9"  />
</g>
</svg>
