<svg xmlns="http://www.w3.org/2000/svg" xmlns:xlink="http://www.w3.org/1999/xlink" version="1.1" x="0" y="0" height="230" width="800" viewBox="0 0 800 230" preserveAspectRatio="none"  >
<g label="Query sequence" class="clusterblast-cluster"  >
<text x="5" y="20" class="clusterblast-acc"  >
Query sequence</text>
<line x1="10" y1="35" x2="778.0" y2="35" style="stroke-width:1; stroke:grey; "  />
<polygon points="0,40 56,40 61,35 56,30 0,30 0,40 " style="fill:white; stroke-width:1; stroke:black; " description="&lt;b&gt;OJOGLHAG_02494&lt;/b&gt;&lt;br&gt;Protein-L-isoaspartate O-methyltransferase&lt;br&gt;Location: 1807299 - 1807956" locus_tag="OJOGLHAG_02494" class="clusterblast-orf" id="dummy-2_q0_0_all"  />
<polygon points="66,40 166,40 171,35 166,30 66,30 66,40 " style="fill:white; stroke-width:1; stroke:black; " description="&lt;b&gt;OJOGLHAG_02495&lt;/b&gt;&lt;br&gt;hypothetical protein&lt;br&gt;Location: 1808008 - 1809139" locus_tag="OJOGLHAG_02495" class="clusterblast-orf" id="dummy-2_q1_0_all"  />
<polygon points="171,35 176,30 216,30 216,40 176,40 171,35 " style="fill:white; stroke-width:1; stroke:black; " description="&lt;b&gt;OJOGLHAG_02496&lt;/b&gt;&lt;br&gt;hypothetical protein&lt;br&gt;Location: 1809144 - 1809630" locus_tag="OJOGLHAG_02496" class="clusterblast-orf" id="dummy-2_q2_0_all"  />
<polygon points="240,40 286,40 291,35 286,30 240,30 240,40 " style="fill:#d81515; stroke-width:1; stroke:black; " description="&lt;b&gt;OJOGLHAG_02497&lt;/b&gt;&lt;br&gt;L-2,4-diaminobutyric acid acetyltransferase&lt;br&gt;Location: 1809891 - 1810434" locus_tag="OJOGLHAG_02497" class="clusterblast-orf" id="dummy-2_q3_0_all"  />
<polygon points="296,40 409,40 414,35 409,30 296,30 296,40 " style="fill:#77d815; stroke-width:1; stroke:black; " description="&lt;b&gt;OJOGLHAG_02498&lt;/b&gt;&lt;br&gt;Diaminobutyrate--2-oxoglutarate transaminase&lt;br&gt;Location: 1810487 - 1811768" locus_tag="OJOGLHAG_02498" class="clusterblast-orf" id="dummy-2_q4_0_all"  />
<polygon points="415,40 446,40 451,35 446,30 415,30 415,40 " style="fill:#15d8d8; stroke-width:1; stroke:black; " description="&lt;b&gt;OJOGLHAG_02499&lt;/b&gt;&lt;br&gt;L-ectoine synthase&lt;br&gt;Location: 1811773 - 1812160" locus_tag="OJOGLHAG_02499" class="clusterblast-orf" id="dummy-2_q5_0_all"  />
<polygon points="458,40 584,40 589,35 584,30 458,30 458,40 " style="fill:#7715d8; stroke-width:1; stroke:black; " description="&lt;b&gt;OJOGLHAG_02500&lt;/b&gt;&lt;br&gt;Aspartate kinase Ask Ect&lt;br&gt;Location: 1812237 - 1813653" locus_tag="OJOGLHAG_02500" class="clusterblast-orf" id="dummy-2_q6_0_all"  />
<polygon points="621,35 626,30 666,30 666,40 626,40 621,35 " style="fill:white; stroke-width:1; stroke:black; " description="&lt;b&gt;OJOGLHAG_02501&lt;/b&gt;&lt;br&gt;Putative pre-16S rRNA nuclease&lt;br&gt;Location: 1814001 - 1814481" locus_tag="OJOGLHAG_02501" class="clusterblast-orf" id="dummy-2_q7_0_all"  />
<polygon points="665,35 670,30 780,30 780,40 670,40 665,35 " style="fill:white; stroke-width:1; stroke:black; " description="&lt;b&gt;OJOGLHAG_02502&lt;/b&gt;&lt;br&gt;hypothetical protein&lt;br&gt;Location: 1814477 - 1815722" locus_tag="OJOGLHAG_02502" class="clusterblast-orf" id="dummy-2_q8_0_all"  />
</g>
<g label="BGC0000856" description="BGC0000856_c1: ectoine (75% of genes show similarity), Other" class="clusterblast-cluster"  >
<text x="5" y="70" class="clusterblast-acc"  >
<a xlink:href="https://mibig.secondarymetabolites.org/go/BGC0000856/1" target="_blank">BGC0000856</a>: ectoine                                                                          (75% of genes show similarity), Other</text>
<line x1="10" y1="85" x2="778.0" y2="85" style="stroke-width:1; stroke:grey; "  />
</g>
<g id="a2_000"  >
<polygon points="212,90 254,90 259,85 254,80 212,80 212,90 " style="fill:white; stroke-width:1; stroke:black; " description="&lt;b&gt;ABY40739.1&lt;/b&gt;&lt;br&gt;L-2,4-diaminobutyric acid acetyltransferase&lt;br&gt;Location: 518 - 1027" locus_tag="ABY40739.1" class="clusterblast-orf" id="dummy-2_h2_4_0"  />
</g>
<g id="a2_001"  >
<polygon points="265,90 384,90 389,85 384,80 265,80 265,90 " style="fill:#77d815; stroke-width:1; stroke:black; " description="&lt;b&gt;ABY40740.1&lt;/b&gt;&lt;br&gt;L-2,4-diaminobutyrate aminotransferase&lt;br&gt;Location: 1088 - 2425&lt;br&gt;&lt;br&gt;&lt;b&gt;BlastP hit with OJOGLHAG_02498&lt;/b&gt;&lt;br&gt;Percentage identity: 53&lt;br&gt;Percentage coverage: 99&lt;br&gt;BLAST bit score: 435&lt;br&gt;E-value: 1.43e-150" locus_tag="ABY40740.1" class="clusterblast-orf" id="dummy-2_h2_4_1"  />
</g>
<g id="a2_002"  >
<polygon points="395,90 428,90 433,85 428,80 395,80 395,90 " style="fill:#15d8d8; stroke-width:1; stroke:black; " description="&lt;b&gt;ABY40741.1&lt;/b&gt;&lt;br&gt;ectoine synthase&lt;br&gt;Location: 2497 - 2901&lt;br&gt;&lt;br&gt;&lt;b&gt;BlastP hit with OJOGLHAG_02499&lt;/b&gt;&lt;br&gt;Percentage identity: 53&lt;br&gt;Percentage coverage: 100&lt;br&gt;BLAST bit score: 148&lt;br&gt;E-value: 5.59e-47" locus_tag="ABY40741.1" class="clusterblast-orf" id="dummy-2_h2_4_2"  />
</g>
<g id="a2_003"  >
<polygon points="445,90 562,90 567,85 562,80 445,80 445,90 " style="fill:#7715d8; stroke-width:1; stroke:black; " description="&lt;b&gt;ABY40742.1&lt;/b&gt;&lt;br&gt;aspartokinase&lt;br&gt;Location: 3034 - 4347&lt;br&gt;&lt;br&gt;&lt;b&gt;BlastP hit with OJOGLHAG_02500&lt;/b&gt;&lt;br&gt;Percentage identity: 47&lt;br&gt;Percentage coverage: 87&lt;br&gt;BLAST bit score: 359&lt;br&gt;E-value: 3.18e-120" locus_tag="ABY40742.1" class="clusterblast-orf" id="dummy-2_h2_4_3"  />
</g>
</svg>
