<svg version="1.1" baseProfile="full" xmlns="http://www.w3.org/2000/svg" width="1050.5" height="80">
	<g>
		<line x1="10" y1="40.0" x2="1040.5" y2="40.0" style="stroke:rgb(70,70,70); stroke-width:3 "/>
		<g>
			<title> (PHGFGAAC_00853)
putative ABC transporter ATP-binding protein</title>
			<polygon class=" (PHGFGAAC_00853)
putative ABC transporter ATP-binding protein" points="15,40 39,10 39,70" fill="rgb(255,255,255)" fill-opacity="1.0" stroke="rgb(0,0,0)" stroke-width="2"  />
			<g>
				<title>ABC_tran (PF00005)
"ABC transporter"</title>
				<polygon class="PF00005" points="21,38 29,28 35,28 35,52 29,52 21,42" stroke-linejoin="round" width="14" height="24" fill="rgb(129,201,63)" stroke="rgb(103,160,50)" stroke-width="1" opacity="0.75" />
			</g>
		</g>
		<g>
			<title>actP_2 (PHGFGAAC_00854)
Copper-transporting P-type ATPase</title>
			<polygon class="actP_2 (PHGFGAAC_00854)
Copper-transporting P-type ATPase" points="121,25 71,25 71,10 41,40 71,70 71,55 121,55" fill="rgb(255,255,255)" fill-opacity="1.0" stroke="rgb(0,0,0)" stroke-width="2"  />
			<g>
				<title>Hydrolase (PF00702)
"haloacid dehalogenase-like hydrolase"</title>
				<polygon class="PF00702" points="51,34 57,28 72,28 72,52 57,52 51,46" stroke-linejoin="round" width="21" height="24" fill="rgb(68,220,102)" stroke="rgb(54,176,81)" stroke-width="1" opacity="0.75" />
			</g>
			<g>
				<title>E1-E2_ATPase (PF00122)
"E1-E2 ATPase"</title>
				<rect class="PF00122" x="74" y="28" stroke-linejoin="round" width="18" height="24" fill="rgb(149,204,70)" stroke="rgb(119,163,56)" stroke-width="1" opacity="0.75" />
			</g>
			<g>
				<title>HMA (PF00403)
"Heavy-metal-associated domain"</title>
				<rect class="PF00403" x="108" y="28" stroke-linejoin="round" width="6" height="24" fill="rgb(91,198,182)" stroke="rgb(72,158,145)" stroke-width="1" opacity="0.75" />
			</g>
			<g>
				<title>HMA (PF00403)
"Heavy-metal-associated domain"</title>
				<rect class="PF00403" x="115" y="28" stroke-linejoin="round" width="6" height="24" fill="rgb(91,198,182)" stroke="rgb(72,158,145)" stroke-width="1" opacity="0.75" />
			</g>
		</g>
		<g>
			<title> (PHGFGAAC_00855)
hypothetical protein</title>
			<polygon class=" (PHGFGAAC_00855)
hypothetical protein" points="127,10 133,40 127,70" fill="rgb(255,255,255)" fill-opacity="1.0" stroke="rgb(0,0,0)" stroke-width="2"  />
			<g>
				<title>DUF2892 (PF11127)
"Protein of unknown function (DUF2892)"</title>
				<polygon class="PF11127" points="127,28 127,28 130,40 127,52 127,52" stroke-linejoin="round" width="6" height="24" fill="rgb(93,174,209)" stroke="rgb(74,139,167)" stroke-width="1" opacity="0.75" />
			</g>
		</g>
		<g>
			<title> (PHGFGAAC_00856)
hypothetical protein</title>
			<polygon class=" (PHGFGAAC_00856)
hypothetical protein" points="136,10 155,40 136,70" fill="rgb(255,255,255)" fill-opacity="1.0" stroke="rgb(0,0,0)" stroke-width="2"  />
			<g>
				<title>YkuD (PF03734)
"L,D-transpeptidase catalytic domain"</title>
				<polygon class="PF03734" points="142,28 144,28 152,40 144,52 142,52" stroke-linejoin="round" width="13" height="24" fill="rgb(112,183,75)" stroke="rgb(89,146,60)" stroke-width="1" opacity="0.75" />
			</g>
		</g>
		<g>
			<title>selU (PHGFGAAC_00857)
tRNA 2-selenouridine synthase</title>
			<polygon class="selU (PHGFGAAC_00857)
tRNA 2-selenouridine synthase" points="156,25 162,25 162,10 192,40 162,70 162,55 156,55" fill="rgb(255,255,255)" fill-opacity="1.0" stroke="rgb(0,0,0)" stroke-width="2"  />
			<g>
				<title>Rhodanese (PF00581)
"Rhodanese-like domain"</title>
				<rect class="PF00581" x="156" y="28" stroke-linejoin="round" width="12" height="24" fill="rgb(145,191,76)" stroke="rgb(116,152,60)" stroke-width="1" opacity="0.75" />
			</g>
		</g>
		<g>
			<title>metG (PHGFGAAC_00858)
Methionine--tRNA ligase</title>
			<polygon class="metG (PHGFGAAC_00858)
Methionine--tRNA ligase" points="250,25 223,25 223,10 193,40 223,70 223,55 250,55" fill="rgb(255,255,255)" fill-opacity="1.0" stroke="rgb(0,0,0)" stroke-width="2"  />
			<g>
				<title>Anticodon_3 (PF19303)
"Anticodon binding domain of methionyl tRNA ligase"</title>
				<polygon class="PF19303" points="197,40 208,29 208,51" stroke-linejoin="round" width="15" height="24" fill="rgb(73,192,68)" stroke="rgb(58,153,54)" stroke-width="1" opacity="0.75" />
			</g>
			<g>
				<title>tRNA-synt_1g (PF09334)
"tRNA synthetases class I (M)"</title>
				<polygon class="PF09334" points="209,28 209,28 250,28 250,52 209,52 209,52" stroke-linejoin="round" width="41" height="24" fill="rgb(105,223,202)" stroke="rgb(84,178,161)" stroke-width="1" opacity="0.75" />
			</g>
		</g>
		<g>
			<title> (PHGFGAAC_00860)
Putative multidrug export ATP-binding/permease protein</title>
			<polygon class=" (PHGFGAAC_00860)
Putative multidrug export ATP-binding/permease protein" points="261,25 290,25 290,10 320,40 290,70 290,55 261,55" fill="rgb(255,255,255)" fill-opacity="1.0" stroke="rgb(0,0,0)" stroke-width="2"  />
			<g>
				<title>ABC_membrane (PF00664)
"ABC transporter transmembrane region"</title>
				<rect class="PF00664" x="264" y="28" stroke-linejoin="round" width="26" height="24" fill="rgb(149,226,73)" stroke="rgb(119,180,58)" stroke-width="1" opacity="0.75" />
			</g>
			<g>
				<title>ABC_tran (PF00005)
"ABC transporter"</title>
				<polygon class="PF00005" points="297,28 304,28 311,35 311,45 304,52 297,52" stroke-linejoin="round" width="14" height="24" fill="rgb(129,201,63)" stroke="rgb(103,160,50)" stroke-width="1" opacity="0.75" />
			</g>
		</g>
		<g>
			<title>kbp (PHGFGAAC_00861)
Potassium binding protein Kbp</title>
			<polygon class="kbp (PHGFGAAC_00861)
Potassium binding protein Kbp" points="324,10 338,40 324,70" fill="rgb(255,255,255)" fill-opacity="1.0" stroke="rgb(0,0,0)" stroke-width="2"  />
			<g>
				<title>BON (PF04972)
"BON domain"</title>
				<polygon class="PF04972" points="326,28 329,28 332,33 332,47 329,52 326,52" stroke-linejoin="round" width="6" height="24" fill="rgb(62,222,71)" stroke="rgb(49,177,56)" stroke-width="1" opacity="0.75" />
			</g>
			<g>
				<title>LysM (PF01476)
"LysM domain"</title>
				<polygon class="PF01476" points="333,35 335,40 333,45" stroke-linejoin="round" width="4" height="24" fill="rgb(200,86,203)" stroke="rgb(160,68,162)" stroke-width="1" opacity="0.75" />
			</g>
		</g>
		<g>
			<title>lcfB (PHGFGAAC_00862)
Long-chain-fatty-acid--CoA ligase</title>
			<polygon class="lcfB (PHGFGAAC_00862)
Long-chain-fatty-acid--CoA ligase" points="343,25 376,25 376,10 406,40 376,70 376,55 343,55" fill="rgb(255,255,255)" fill-opacity="1.0" stroke="rgb(0,0,0)" stroke-width="2"  />
			<g>
				<title>AMP-binding (PF00501)
"AMP-binding enzyme"</title>
				<polygon class="PF00501" points="346,28 389,28 390,29 390,51 389,52 346,52" stroke-linejoin="round" width="44" height="24" fill="rgb(60,217,223)" stroke="rgb(48,173,178)" stroke-width="1" opacity="0.75" />
			</g>
			<g>
				<title>AMP-binding_C (PF13193)
"AMP-binding enzyme C-terminal domain"</title>
				<polygon class="PF13193" points="391,30 398,37 398,43 391,50" stroke-linejoin="round" width="7" height="24" fill="rgb(182,50,118)" stroke="rgb(145,39,94)" stroke-width="1" opacity="0.75" />
			</g>
		</g>
		<g>
			<title> (PHGFGAAC_00863)
hypothetical protein</title>
			<polygon class=" (PHGFGAAC_00863)
hypothetical protein" points="408,10 426,40 408,70" fill="rgb(255,255,255)" fill-opacity="1.0" stroke="rgb(0,0,0)" stroke-width="2"  />
			<g>
				<title>YjdM (PF03831)
"PhnA domain"</title>
				<polygon class="PF03831" points="419,35 422,40 419,45" stroke-linejoin="round" width="6" height="24" fill="rgb(182,146,64)" stroke="rgb(145,116,51)" stroke-width="1" opacity="0.75" />
			</g>
		</g>
		<g>
			<title>ghrA (PHGFGAAC_00865)
Glyoxylate/hydroxypyruvate reductase A</title>
			<polygon class="ghrA (PHGFGAAC_00865)
Glyoxylate/hydroxypyruvate reductase A" points="462,25 461,25 461,10 431,40 461,70 461,55 462,55" fill="rgb(255,255,255)" fill-opacity="1.0" stroke="rgb(0,0,0)" stroke-width="2"  />
			<g>
				<title>2-Hacid_dh_C (PF02826)
"D-isomer specific 2-hydroxyacid dehydrogenase, NAD binding domain"</title>
				<polygon class="PF02826" points="435,40 447,28 451,28 451,52 447,52" stroke-linejoin="round" width="17" height="24" fill="rgb(192,197,93)" stroke="rgb(153,157,74)" stroke-width="1" opacity="0.75" />
			</g>
		</g>
		<g>
			<title>mrdB (PHGFGAAC_00866)
Peptidoglycan glycosyltransferase MrdB</title>
			<polygon class="mrdB (PHGFGAAC_00866)
Peptidoglycan glycosyltransferase MrdB" points="500,25 492,25 492,10 462,40 492,70 492,55 500,55" fill="rgb(255,255,255)" fill-opacity="1.0" stroke="rgb(0,0,0)" stroke-width="2"  />
			<g>
				<title>FTSW_RODA_SPOVE (PF01098)
"Cell cycle protein"</title>
				<polygon class="PF01098" points="466,40 478,28 497,28 497,52 478,52" stroke-linejoin="round" width="35" height="24" fill="rgb(57,114,205)" stroke="rgb(45,91,164)" stroke-width="1" opacity="0.75" />
			</g>
		</g>
		<g>
			<title>mrdA (PHGFGAAC_00867)
Peptidoglycan D,D-transpeptidase MrdA</title>
			<polygon class="mrdA (PHGFGAAC_00867)
Peptidoglycan D,D-transpeptidase MrdA" points="565,25 530,25 530,10 500,40 530,70 530,55 565,55" fill="rgb(255,255,255)" fill-opacity="1.0" stroke="rgb(0,0,0)" stroke-width="2"  />
			<g>
				<title>Transpeptidase (PF00905)
"Penicillin binding protein transpeptidase domain"</title>
				<polygon class="PF00905" points="504,40 516,28 537,28 537,52 516,52 504,40" stroke-linejoin="round" width="33" height="24" fill="rgb(161,226,87)" stroke="rgb(128,180,69)" stroke-width="1" opacity="0.75" />
			</g>
			<g>
				<title>PBP_dimer (PF03717)
"Penicillin-binding Protein dimerisation domain"</title>
				<rect class="PF03717" x="541" y="28" stroke-linejoin="round" width="17" height="24" fill="rgb(90,211,197)" stroke="rgb(72,168,157)" stroke-width="1" opacity="0.75" />
			</g>
		</g>
		<g>
			<title> (PHGFGAAC_00868)
hypothetical protein</title>
			<polygon class=" (PHGFGAAC_00868)
hypothetical protein" points="565,40 583,10 583,70" fill="rgb(255,255,255)" fill-opacity="1.0" stroke="rgb(0,0,0)" stroke-width="2"  />
		</g>
		<g>
			<title> (PHGFGAAC_00869)
hypothetical protein</title>
			<polygon class=" (PHGFGAAC_00869)
hypothetical protein" points="613,25 613,25 613,10 583,40 613,70 613,55 613,55" fill="rgb(255,255,255)" fill-opacity="1.0" stroke="rgb(0,0,0)" stroke-width="2"  />
			<g>
				<title>MreC (PF04085)
"rod shape-determining protein MreC"</title>
				<polygon class="PF04085" points="587,40 599,28 600,28 600,52 599,52" stroke-linejoin="round" width="14" height="24" fill="rgb(107,78,201)" stroke="rgb(85,62,160)" stroke-width="1" opacity="0.75" />
			</g>
		</g>
		<g>
			<title>mreB (PHGFGAAC_00870)
Cell shape-determining protein MreB</title>
			<polygon class="mreB (PHGFGAAC_00870)
Cell shape-determining protein MreB" points="649,25 645,25 645,10 615,40 645,70 645,55 649,55" fill="rgb(255,255,255)" fill-opacity="1.0" stroke="rgb(0,0,0)" stroke-width="2"  />
			<g>
				<title>MreB_Mbl (PF06723)
"MreB/Mbl protein"</title>
				<polygon class="PF06723" points="619,40 631,28 648,28 648,52 631,52" stroke-linejoin="round" width="33" height="24" fill="rgb(55,204,164)" stroke="rgb(44,163,131)" stroke-width="1" opacity="0.75" />
			</g>
		</g>
		<g>
			<title>leuA (PHGFGAAC_00871)
2-isopropylmalate synthase</title>
			<polygon class="leuA (PHGFGAAC_00871)
2-isopropylmalate synthase" points="706,25 684,25 684,10 654,40 684,70 684,55 706,55" fill="rgb(255,255,255)" fill-opacity="1.0" stroke="rgb(0,0,0)" stroke-width="2"  />
			<g>
				<title>LeuA_dimer (PF08502)
"LeuA allosteric (dimerisation) domain"</title>
				<polygon class="PF08502" points="658,40 669,29 669,51" stroke-linejoin="round" width="13" height="24" fill="rgb(182,95,71)" stroke="rgb(145,76,56)" stroke-width="1" opacity="0.75" />
			</g>
			<g>
				<title>HMGL-like (PF00682)
"HMGL-like"</title>
				<rect class="PF00682" x="678" y="28" stroke-linejoin="round" width="26" height="24" fill="rgb(84,228,141)" stroke="rgb(67,182,112)" stroke-width="1" opacity="0.75" />
			</g>
		</g>
		<g>
			<title> (PHGFGAAC_00872)
hypothetical protein</title>
			<polygon class=" (PHGFGAAC_00872)
hypothetical protein" points="715,10 736,40 715,70" fill="rgb(255,255,255)" fill-opacity="1.0" stroke="rgb(0,0,0)" stroke-width="2"  />
			<g>
				<title>adh_short (PF00106)
"short chain dehydrogenase"</title>
				<polygon class="PF00106" points="715,28 724,28 732,39 732,41 724,52 715,52" stroke-linejoin="round" width="17" height="24" fill="rgb(182,219,73)" stroke="rgb(145,175,58)" stroke-width="1" opacity="0.75" />
			</g>
		</g>
		<g>
			<title>phrB (PHGFGAAC_00873)
(6-4) photolyase</title>
			<polygon class="phrB (PHGFGAAC_00873)
(6-4) photolyase" points="736,25 756,25 756,10 786,40 756,70 756,55 736,55" fill="rgb(255,255,255)" fill-opacity="1.0" stroke="rgb(0,0,0)" stroke-width="2"  />
			<g>
				<title>DPRP (PF04244)
"Deoxyribodipyrimidine photo-lyase-related protein"</title>
				<rect class="PF04244" x="736" y="28" stroke-linejoin="round" width="21" height="24" fill="rgb(217,117,84)" stroke="rgb(173,93,67)" stroke-width="1" opacity="0.75" />
			</g>
		</g>
		<g>
			<title> (PHGFGAAC_00874)
hypothetical protein</title>
			<polygon class=" (PHGFGAAC_00874)
hypothetical protein" points="835,25 817,25 817,10 787,40 817,70 817,55 835,55" fill="rgb(255,255,255)" fill-opacity="1.0" stroke="rgb(0,0,0)" stroke-width="2"  />
			<g>
				<title>MORN (PF02493)
"MORN repeat"</title>
				<polygon class="PF02493" points="791,40 790,41 790,39" stroke-linejoin="round" width="1" height="24" fill="rgb(178,81,84)" stroke="rgb(142,64,67)" stroke-width="1" opacity="0.75" />
			</g>
			<g>
				<title>MORN (PF02493)
"MORN repeat"</title>
				<polygon class="PF02493" points="791,40 793,38 793,42 791,40" stroke-linejoin="round" width="2" height="24" fill="rgb(178,81,84)" stroke="rgb(142,64,67)" stroke-width="1" opacity="0.75" />
			</g>
			<g>
				<title>MORN (PF02493)
"MORN repeat"</title>
				<polygon class="PF02493" points="794,37 796,35 796,45 794,43" stroke-linejoin="round" width="2" height="24" fill="rgb(178,81,84)" stroke="rgb(142,64,67)" stroke-width="1" opacity="0.75" />
			</g>
			<g>
				<title>MORN (PF02493)
"MORN repeat"</title>
				<polygon class="PF02493" points="796,35 798,33 798,47 796,45" stroke-linejoin="round" width="2" height="24" fill="rgb(178,81,84)" stroke="rgb(142,64,67)" stroke-width="1" opacity="0.75" />
			</g>
			<g>
				<title>MORN (PF02493)
"MORN repeat"</title>
				<polygon class="PF02493" points="798,33 800,31 800,49 798,47" stroke-linejoin="round" width="2" height="24" fill="rgb(178,81,84)" stroke="rgb(142,64,67)" stroke-width="1" opacity="0.75" />
			</g>
			<g>
				<title>MORN (PF02493)
"MORN repeat"</title>
				<polygon class="PF02493" points="801,30 803,28 803,28 803,52 803,52 801,50" stroke-linejoin="round" width="2" height="24" fill="rgb(178,81,84)" stroke="rgb(142,64,67)" stroke-width="1" opacity="0.75" />
			</g>
			<g>
				<title>MORN (PF02493)
"MORN repeat"</title>
				<polygon class="PF02493" points="803,28 803,28 805,28 805,52 803,52 803,52" stroke-linejoin="round" width="2" height="24" fill="rgb(178,81,84)" stroke="rgb(142,64,67)" stroke-width="1" opacity="0.75" />
			</g>
			<g>
				<title>MORN (PF02493)
"MORN repeat"</title>
				<rect class="PF02493" x="805" y="28" stroke-linejoin="round" width="2" height="24" fill="rgb(178,81,84)" stroke="rgb(142,64,67)" stroke-width="1" opacity="0.75" />
			</g>
			<g>
				<title>MORN (PF02493)
"MORN repeat"</title>
				<rect class="PF02493" x="808" y="28" stroke-linejoin="round" width="2" height="24" fill="rgb(178,81,84)" stroke="rgb(142,64,67)" stroke-width="1" opacity="0.75" />
			</g>
			<g>
				<title>MORN (PF02493)
"MORN repeat"</title>
				<rect class="PF02493" x="810" y="28" stroke-linejoin="round" width="2" height="24" fill="rgb(178,81,84)" stroke="rgb(142,64,67)" stroke-width="1" opacity="0.75" />
			</g>
			<g>
				<title>MORN (PF02493)
"MORN repeat"</title>
				<rect class="PF02493" x="812" y="28" stroke-linejoin="round" width="2" height="24" fill="rgb(178,81,84)" stroke="rgb(142,64,67)" stroke-width="1" opacity="0.75" />
			</g>
			<g>
				<title>MORN (PF02493)
"MORN repeat"</title>
				<rect class="PF02493" x="814" y="28" stroke-linejoin="round" width="2" height="24" fill="rgb(178,81,84)" stroke="rgb(142,64,67)" stroke-width="1" opacity="0.75" />
			</g>
			<g>
				<title>MORN (PF02493)
"MORN repeat"</title>
				<rect class="PF02493" x="817" y="28" stroke-linejoin="round" width="2" height="24" fill="rgb(178,81,84)" stroke="rgb(142,64,67)" stroke-width="1" opacity="0.75" />
			</g>
			<g>
				<title>MORN (PF02493)
"MORN repeat"</title>
				<rect class="PF02493" x="819" y="28" stroke-linejoin="round" width="1" height="24" fill="rgb(178,81,84)" stroke="rgb(142,64,67)" stroke-width="1" opacity="0.75" />
			</g>
			<g>
				<title>MORN (PF02493)
"MORN repeat"</title>
				<rect class="PF02493" x="821" y="28" stroke-linejoin="round" width="2" height="24" fill="rgb(178,81,84)" stroke="rgb(142,64,67)" stroke-width="1" opacity="0.75" />
			</g>
			<g>
				<title>MORN (PF02493)
"MORN repeat"</title>
				<rect class="PF02493" x="824" y="28" stroke-linejoin="round" width="2" height="24" fill="rgb(178,81,84)" stroke="rgb(142,64,67)" stroke-width="1" opacity="0.75" />
			</g>
			<g>
				<title>MORN (PF02493)
"MORN repeat"</title>
				<rect class="PF02493" x="826" y="28" stroke-linejoin="round" width="2" height="24" fill="rgb(178,81,84)" stroke="rgb(142,64,67)" stroke-width="1" opacity="0.75" />
			</g>
			<g>
				<title>MORN (PF02493)
"MORN repeat"</title>
				<rect class="PF02493" x="828" y="28" stroke-linejoin="round" width="2" height="24" fill="rgb(178,81,84)" stroke="rgb(142,64,67)" stroke-width="1" opacity="0.75" />
			</g>
		</g>
		<g>
			<title>nadE (PHGFGAAC_00875)
Glutamine-dependent NAD(+) synthetase</title>
			<polygon class="nadE (PHGFGAAC_00875)
Glutamine-dependent NAD(+) synthetase" points="840,25 865,25 865,10 895,40 865,70 865,55 840,55" fill="rgb(255,255,255)" fill-opacity="1.0" stroke="rgb(0,0,0)" stroke-width="2"  />
			<g>
				<title>CN_hydrolase (PF00795)
"Carbon-nitrogen hydrolase"</title>
				<rect class="PF00795" x="840" y="28" stroke-linejoin="round" width="24" height="24" fill="rgb(213,76,196)" stroke="rgb(170,60,156)" stroke-width="1" opacity="0.75" />
			</g>
			<g>
				<title>NAD_synthase (PF02540)
"NAD synthase"</title>
				<polygon class="PF02540" points="866,28 879,28 891,40 891,40 879,52 866,52" stroke-linejoin="round" width="25" height="24" fill="rgb(204,109,227)" stroke="rgb(163,87,181)" stroke-width="1" opacity="0.75" />
			</g>
		</g>
		<g>
			<title> (PHGFGAAC_00877)
hypothetical protein</title>
			<polygon class=" (PHGFGAAC_00877)
hypothetical protein" points="949,25 942,25 942,10 912,40 942,70 942,55 949,55" fill="rgb(255,255,255)" fill-opacity="1.0" stroke="rgb(0,0,0)" stroke-width="2"  />
			<g>
				<title>Glyco_transf_8 (PF01501)
"Glycosyl transferase family 8"</title>
				<polygon class="PF01501" points="923,33 928,28 943,28 943,52 928,52 923,47" stroke-linejoin="round" width="20" height="24" fill="rgb(208,74,95)" stroke="rgb(166,59,76)" stroke-width="1" opacity="0.75" />
			</g>
		</g>
		<g>
			<title> (PHGFGAAC_00878)
hypothetical protein</title>
			<polygon class=" (PHGFGAAC_00878)
hypothetical protein" points="952,10 981,40 952,70" fill="rgb(255,255,255)" fill-opacity="1.0" stroke="rgb(0,0,0)" stroke-width="2"  />
			<g>
				<title>Glycos_transf_2 (PF00535)
"Glycosyl transferase family 2"</title>
				<rect class="PF00535" x="952" y="28" stroke-linejoin="round" width="12" height="24" fill="rgb(224,122,96)" stroke="rgb(179,97,76)" stroke-width="1" opacity="0.75" />
			</g>
		</g>
		<g>
			<title> (PHGFGAAC_00879)
hypothetical protein</title>
			<polygon class=" (PHGFGAAC_00879)
hypothetical protein" points="988,10 1014,40 988,70" fill="rgb(255,255,255)" fill-opacity="1.0" stroke="rgb(0,0,0)" stroke-width="2"  />
			<g>
				<title>Glyco_transf_25 (PF01755)
"Glycosyltransferase family 25 (LPS biosynthesis protein)"</title>
				<polygon class="PF01755" points="988,28 1000,28 1005,34 1005,46 1000,52 988,52" stroke-linejoin="round" width="17" height="24" fill="rgb(71,196,156)" stroke="rgb(56,156,124)" stroke-width="1" opacity="0.75" />
			</g>
		</g>
	</g>
</svg>
