<svg version="1.1" baseProfile="full" xmlns="http://www.w3.org/2000/svg" width="1749.8333333333333" height="80">
	<g>
		<line x1="10" y1="40.0" x2="1739.8333333333333" y2="40.0" style="stroke:rgb(70,70,70); stroke-width:3 "/>
		<g>
			<title> (CDDIDNMG_01057)
hypothetical protein</title>
			<polygon class=" (CDDIDNMG_01057)
hypothetical protein" points="35,10 39,40 35,70" fill="rgb(255,255,255)" fill-opacity="1.0" stroke="rgb(0,0,0)" stroke-width="2"  />
		</g>
		<g>
			<title>lysA (CDDIDNMG_01058)
Diaminopimelate decarboxylase</title>
			<polygon class="lysA (CDDIDNMG_01058)
Diaminopimelate decarboxylase" points="42,25 54,25 54,10 84,40 54,70 54,55 42,55" fill="rgb(255,255,255)" fill-opacity="1.0" stroke="rgb(0,0,0)" stroke-width="2"  />
			<g>
				<title>Orn_Arg_deC_N (PF02784)
"Pyridoxal-dependent decarboxylase, pyridoxal binding domain"</title>
				<polygon class="PF02784" points="45,28 67,28 69,30 69,50 67,52 45,52" stroke-linejoin="round" width="24" height="24" fill="rgb(106,204,212)" stroke="rgb(84,163,169)" stroke-width="1" opacity="0.75" />
			</g>
		</g>
		<g>
			<title> (CDDIDNMG_01059)
hypothetical protein</title>
			<polygon class=" (CDDIDNMG_01059)
hypothetical protein" points="85,25 136,25 136,10 166,40 136,70 136,55 85,55" fill="rgb(255,255,255)" fill-opacity="1.0" stroke="rgb(0,0,0)" stroke-width="2"  />
			<g>
				<title>DUF4175 (PF13779)
"Domain of unknown function (DUF4175)"</title>
				<polygon class="PF13779" points="86,28 150,28 162,40 150,52 86,52" stroke-linejoin="round" width="80" height="24" fill="rgb(153,206,74)" stroke="rgb(122,164,59)" stroke-width="1" opacity="0.75" />
			</g>
		</g>
		<g>
			<title>cspA_2 (CDDIDNMG_01060)
Cold shock protein CspA</title>
			<polygon class="cspA_2 (CDDIDNMG_01060)
Cold shock protein CspA" points="172,10 178,40 172,70" fill="rgb(255,255,255)" fill-opacity="1.0" stroke="rgb(0,0,0)" stroke-width="2"  />
			<g>
				<title>CSD (PF00313)
"'Cold-shock' DNA-binding domain"</title>
				<polygon class="PF00313" points="172,28 172,28 175,40 172,52 172,52" stroke-linejoin="round" width="6" height="24" fill="rgb(87,72,181)" stroke="rgb(69,57,144)" stroke-width="1" opacity="0.75" />
			</g>
		</g>
		<g>
			<title>azoR (CDDIDNMG_01061)
FMN-dependent NADH-azoreductase</title>
			<polygon class="azoR (CDDIDNMG_01061)
FMN-dependent NADH-azoreductase" points="187,40 206,10 206,70" fill="rgb(255,255,255)" fill-opacity="1.0" stroke="rgb(0,0,0)" stroke-width="2"  />
			<g>
				<title>Flavodoxin_2 (PF02525)
"Flavodoxin-like fold"</title>
				<polygon class="PF02525" points="191,40 199,28 206,28 206,52 199,52" stroke-linejoin="round" width="19" height="24" fill="rgb(159,188,70)" stroke="rgb(127,150,56)" stroke-width="1" opacity="0.75" />
			</g>
		</g>
		<g>
			<title>nemA (CDDIDNMG_01062)
N-ethylmaleimide reductase</title>
			<polygon class="nemA (CDDIDNMG_01062)
N-ethylmaleimide reductase" points="253,25 247,25 247,10 217,40 247,70 247,55 253,55" fill="rgb(255,255,255)" fill-opacity="1.0" stroke="rgb(0,0,0)" stroke-width="2"  />
			<g>
				<title>Oxidored_FMN (PF00724)
"NADH:flavin oxidoreductase / NADH oxidase family"</title>
				<polygon class="PF00724" points="221,40 233,28 252,28 252,52 233,52" stroke-linejoin="round" width="33" height="24" fill="rgb(157,188,65)" stroke="rgb(125,150,52)" stroke-width="1" opacity="0.75" />
			</g>
		</g>
		<g>
			<title>uvrC (CDDIDNMG_01063)
UvrABC system protein C</title>
			<polygon class="uvrC (CDDIDNMG_01063)
UvrABC system protein C" points="321,25 290,25 290,10 260,40 290,70 290,55 321,55" fill="rgb(255,255,255)" fill-opacity="1.0" stroke="rgb(0,0,0)" stroke-width="2"  />
			<g>
				<title>HHH_2 (PF12826)
"Helix-hairpin-helix motif"</title>
				<polygon class="PF12826" points="264,40 265,39 265,41" stroke-linejoin="round" width="5" height="24" fill="rgb(223,81,103)" stroke="rgb(178,64,82)" stroke-width="1" opacity="0.75" />
			</g>
			<g>
				<title>UvrC_RNaseH_dom (PF08459)
"UvrC RNAse H endonuclease domain"</title>
				<polygon class="PF08459" points="267,37 276,28 283,28 283,52 276,52 267,43" stroke-linejoin="round" width="16" height="24" fill="rgb(207,95,75)" stroke="rgb(165,75,60)" stroke-width="1" opacity="0.75" />
			</g>
			<g>
				<title>UVR (PF02151)
"UvrB/uvrC motif"</title>
				<rect class="PF02151" x="297" y="28" stroke-linejoin="round" width="3" height="24" fill="rgb(179,74,81)" stroke="rgb(143,59,64)" stroke-width="1" opacity="0.75" />
			</g>
			<g>
				<title>GIY-YIG (PF01541)
"GIY-YIG catalytic domain"</title>
				<rect class="PF01541" x="312" y="28" stroke-linejoin="round" width="7" height="24" fill="rgb(77,220,57)" stroke="rgb(61,176,45)" stroke-width="1" opacity="0.75" />
			</g>
		</g>
		<g>
			<title>fabG_5 (CDDIDNMG_01064)
3-oxoacyl-[acyl-carrier-protein] reductase FabG</title>
			<polygon class="fabG_5 (CDDIDNMG_01064)
3-oxoacyl-[acyl-carrier-protein] reductase FabG" points="332,40 357,10 357,70" fill="rgb(255,255,255)" fill-opacity="1.0" stroke="rgb(0,0,0)" stroke-width="2"  />
			<g>
				<title>adh_short_C2 (PF13561)
"Enoyl-(Acyl carrier protein) reductase"</title>
				<polygon class="PF13561" points="336,40 346,28 356,28 356,52 346,52" stroke-linejoin="round" width="23" height="24" fill="rgb(73,205,127)" stroke="rgb(58,164,101)" stroke-width="1" opacity="0.75" />
			</g>
		</g>
		<g>
			<title> (CDDIDNMG_01065)
hypothetical protein</title>
			<polygon class=" (CDDIDNMG_01065)
hypothetical protein" points="358,40 366,10 366,70" fill="rgb(255,255,255)" fill-opacity="1.0" stroke="rgb(0,0,0)" stroke-width="2"  />
		</g>
		<g>
			<title> (CDDIDNMG_01066)
hypothetical protein</title>
			<polygon class=" (CDDIDNMG_01066)
hypothetical protein" points="365,40 391,10 391,70" fill="rgb(255,255,255)" fill-opacity="1.0" stroke="rgb(0,0,0)" stroke-width="2"  />
			<g>
				<title>Peptidase_S49 (PF01343)
"Peptidase family S49"</title>
				<polygon class="PF01343" points="369,40 380,28 383,28 383,52 380,52 369,40" stroke-linejoin="round" width="14" height="24" fill="rgb(66,189,168)" stroke="rgb(52,151,134)" stroke-width="1" opacity="0.75" />
			</g>
		</g>
		<g>
			<title>cynR_2 (CDDIDNMG_01067)
HTH-type transcriptional regulator CynR</title>
			<polygon class="cynR_2 (CDDIDNMG_01067)
HTH-type transcriptional regulator CynR" points="395,10 424,40 395,70" fill="rgb(255,255,255)" fill-opacity="1.0" stroke="rgb(0,0,0)" stroke-width="2"  />
			<g>
				<title>HTH_1 (PF00126)
"Bacterial regulatory helix-turn-helix protein, lysR family"</title>
				<rect class="PF00126" x="395" y="28" stroke-linejoin="round" width="5" height="24" fill="rgb(125,227,79)" stroke="rgb(99,181,63)" stroke-width="1" opacity="0.75" />
			</g>
			<g>
				<title>LysR_substrate (PF03466)
"LysR substrate binding domain"</title>
				<polygon class="PF03466" points="403,28 408,28 420,40 408,52 403,52" stroke-linejoin="round" width="20" height="24" fill="rgb(55,136,195)" stroke="rgb(44,108,156)" stroke-width="1" opacity="0.75" />
			</g>
		</g>
		<g>
			<title>hndA (CDDIDNMG_01068)
NADP-reducing hydrogenase subunit HndA</title>
			<polygon class="hndA (CDDIDNMG_01068)
NADP-reducing hydrogenase subunit HndA" points="428,10 443,40 428,70" fill="rgb(255,255,255)" fill-opacity="1.0" stroke="rgb(0,0,0)" stroke-width="2"  />
			<g>
				<title>2Fe-2S_thioredx (PF01257)
"Thioredoxin-like [2Fe-2S] ferredoxin"</title>
				<polygon class="PF01257" points="429,28 433,28 440,40 433,52 429,52" stroke-linejoin="round" width="14" height="24" fill="rgb(162,204,87)" stroke="rgb(129,163,69)" stroke-width="1" opacity="0.75" />
			</g>
		</g>
		<g>
			<title>hndC (CDDIDNMG_01069)
NADP-reducing hydrogenase subunit HndC</title>
			<polygon class="hndC (CDDIDNMG_01069)
NADP-reducing hydrogenase subunit HndC" points="444,25 464,25 464,10 494,40 464,70 464,55 444,55" fill="rgb(255,255,255)" fill-opacity="1.0" stroke="rgb(0,0,0)" stroke-width="2"  />
			<g>
				<title>Complex1_51K (PF01512)
"Respiratory-chain NADH dehydrogenase 51 Kd subunit"</title>
				<rect class="PF01512" x="457" y="28" stroke-linejoin="round" width="17" height="24" fill="rgb(84,180,118)" stroke="rgb(67,144,94)" stroke-width="1" opacity="0.75" />
			</g>
			<g>
				<title>NADH_4Fe-4S (PF10589)
"NADH-ubiquinone oxidoreductase-F iron-sulfur binding region"</title>
				<polygon class="PF10589" points="486,36 490,40 486,44" stroke-linejoin="round" width="8" height="24" fill="rgb(95,196,140)" stroke="rgb(76,156,112)" stroke-width="1" opacity="0.75" />
			</g>
		</g>
		<g>
			<title> (CDDIDNMG_01070)
Putative formate dehydrogenase</title>
			<polygon class=" (CDDIDNMG_01070)
Putative formate dehydrogenase" points="494,25 560,25 560,10 590,40 560,70 560,55 494,55" fill="rgb(255,255,255)" fill-opacity="1.0" stroke="rgb(0,0,0)" stroke-width="2"  />
			<g>
				<title>Fer2_4 (PF13510)
"2Fe-2S iron-sulfur cluster binding domain"</title>
				<rect class="PF13510" x="495" y="28" stroke-linejoin="round" width="7" height="24" fill="rgb(73,181,142)" stroke="rgb(58,144,113)" stroke-width="1" opacity="0.75" />
			</g>
			<g>
				<title>NADH-G_4Fe-4S_3 (PF10588)
"NADH-ubiquinone oxidoreductase-G iron-sulfur binding region"</title>
				<rect class="PF10588" x="504" y="28" stroke-linejoin="round" width="3" height="24" fill="rgb(70,129,200)" stroke="rgb(56,103,160)" stroke-width="1" opacity="0.75" />
			</g>
			<g>
				<title>Fer4_7 (PF12838)
"4Fe-4S dicluster domain"</title>
				<rect class="PF12838" x="511" y="28" stroke-linejoin="round" width="5" height="24" fill="rgb(138,229,96)" stroke="rgb(110,183,76)" stroke-width="1" opacity="0.75" />
			</g>
			<g>
				<title>Molybdop_Fe4S4 (PF04879)
"Molybdopterin oxidoreductase Fe4S4 domain"</title>
				<rect class="PF04879" x="519" y="28" stroke-linejoin="round" width="5" height="24" fill="rgb(186,68,186)" stroke="rgb(148,54,148)" stroke-width="1" opacity="0.75" />
			</g>
			<g>
				<title>Molybdopterin (PF00384)
"Molybdopterin oxidoreductase"</title>
				<rect class="PF00384" x="524" y="28" stroke-linejoin="round" width="43" height="24" fill="rgb(65,194,78)" stroke="rgb(52,155,62)" stroke-width="1" opacity="0.75" />
			</g>
			<g>
				<title>Molydop_binding (PF01568)
"Molydopterin dinucleotide binding domain"</title>
				<polygon class="PF01568" points="576,30 586,40 586,40 576,50" stroke-linejoin="round" width="10" height="24" fill="rgb(184,132,64)" stroke="rgb(147,105,51)" stroke-width="1" opacity="0.75" />
			</g>
		</g>
		<g>
			<title>fdhD (CDDIDNMG_01071)
Sulfur carrier protein FdhD</title>
			<polygon class="fdhD (CDDIDNMG_01071)
Sulfur carrier protein FdhD" points="591,10 617,40 591,70" fill="rgb(255,255,255)" fill-opacity="1.0" stroke="rgb(0,0,0)" stroke-width="2"  />
			<g>
				<title>FdhD-NarQ (PF02634)
"FdhD/NarQ family"</title>
				<polygon class="PF02634" points="593,28 602,28 613,40 602,52 593,52" stroke-linejoin="round" width="23" height="24" fill="rgb(94,203,116)" stroke="rgb(75,162,92)" stroke-width="1" opacity="0.75" />
			</g>
		</g>
		<g>
			<title> (CDDIDNMG_01072)
hypothetical protein</title>
			<polygon class=" (CDDIDNMG_01072)
hypothetical protein" points="617,10 625,40 617,70" fill="rgb(255,255,255)" fill-opacity="1.0" stroke="rgb(0,0,0)" stroke-width="2"  />
			<g>
				<title>FdsD (PF11390)
"NADH-dependant formate dehydrogenase delta subunit FdsD"</title>
				<polygon class="PF11390" points="618,28 618,28 622,40 618,52 618,52" stroke-linejoin="round" width="5" height="24" fill="rgb(223,200,75)" stroke="rgb(178,160,60)" stroke-width="1" opacity="0.75" />
			</g>
		</g>
		<g>
			<title> (CDDIDNMG_01073)
hypothetical protein</title>
			<polygon class=" (CDDIDNMG_01073)
hypothetical protein" points="631,10 655,40 631,70" fill="rgb(255,255,255)" fill-opacity="1.0" stroke="rgb(0,0,0)" stroke-width="2"  />
			<g>
				<title>PG_binding_1 (PF01471)
"Putative peptidoglycan binding domain"</title>
				<rect class="PF01471" x="632" y="28" stroke-linejoin="round" width="5" height="24" fill="rgb(186,74,131)" stroke="rgb(148,59,104)" stroke-width="1" opacity="0.75" />
			</g>
			<g>
				<title>Peptidase_C70 (PF12385)
"Papain-like cysteine protease AvrRpt2"</title>
				<polygon class="PF12385" points="638,28 642,28 651,40 642,52 638,52" stroke-linejoin="round" width="14" height="24" fill="rgb(73,204,212)" stroke="rgb(58,163,169)" stroke-width="1" opacity="0.75" />
			</g>
		</g>
		<g>
			<title>npt (CDDIDNMG_01074)
4'-phosphopantetheinyl transferase Npt</title>
			<polygon class="npt (CDDIDNMG_01074)
4'-phosphopantetheinyl transferase Npt" points="655,40 676,10 676,70" fill="rgb(255,255,255)" fill-opacity="1.0" stroke="rgb(0,0,0)" stroke-width="2"  />
			<g>
				<title>ACPS (PF01648)
"4'-phosphopantetheinyl transferase superfamily"</title>
				<polygon class="PF01648" points="659,40 665,32 665,48" stroke-linejoin="round" width="10" height="24" fill="rgb(85,184,135)" stroke="rgb(68,147,108)" stroke-width="1" opacity="0.75" />
			</g>
			<g>
				<title>4PPT_N (PF17837)
"4'-phosphopantetheinyl transferase N-terminal domain"</title>
				<polygon class="PF17837" points="667,29 668,28 673,28 673,52 668,52 667,51" stroke-linejoin="round" width="6" height="24" fill="rgb(198,68,92)" stroke="rgb(158,54,73)" stroke-width="1" opacity="0.75" />
			</g>
		</g>
		<g>
			<title>dltA (CDDIDNMG_01075)
D-alanine--D-alanyl carrier protein ligase</title>
			<polygon class="dltA (CDDIDNMG_01075)
D-alanine--D-alanyl carrier protein ligase" points="825,25 706,25 706,10 676,40 706,70 706,55 825,55" fill="rgb(255,255,255)" fill-opacity="1.0" stroke="rgb(0,0,0)" stroke-width="2"  />
			<g>
				<title>PP-binding (PF00550)
"Phosphopantetheine attachment site"</title>
				<polygon class="PF00550" points="680,40 685,35 685,45" stroke-linejoin="round" width="6" height="24" fill="rgb(103,191,88)" stroke="rgb(82,152,70)" stroke-width="1" opacity="0.75" />
			</g>
			<g>
				<title>AMP-binding_C (PF13193)
"AMP-binding enzyme C-terminal domain"</title>
				<polygon class="PF13193" points="688,32 692,28 695,28 695,52 692,52 688,48" stroke-linejoin="round" width="7" height="24" fill="rgb(182,50,118)" stroke="rgb(145,39,94)" stroke-width="1" opacity="0.75" />
			</g>
			<g>
				<title>AMP-binding (PF00501)
"AMP-binding enzyme"</title>
				<rect class="PF00501" x="696" y="28" stroke-linejoin="round" width="19" height="24" fill="rgb(60,217,223)" stroke="rgb(48,173,178)" stroke-width="1" opacity="0.75" />
			</g>
			<g>
				<title>Bac_luciferase (PF00296)
"Luciferase-like monooxygenase"</title>
				<rect class="PF00296" x="719" y="28" stroke-linejoin="round" width="32" height="24" fill="rgb(180,112,78)" stroke="rgb(144,89,62)" stroke-width="1" opacity="0.75" />
			</g>
			<g>
				<title>AMP-binding (PF00501)
"AMP-binding enzyme"</title>
				<rect class="PF00501" x="751" y="28" stroke-linejoin="round" width="22" height="24" fill="rgb(60,217,223)" stroke="rgb(48,173,178)" stroke-width="1" opacity="0.75" />
			</g>
			<g>
				<title>Formyl_trans_C (PF02911)
"Formyl transferase, C-terminal domain"</title>
				<rect class="PF02911" x="797" y="28" stroke-linejoin="round" width="9" height="24" fill="rgb(74,115,225)" stroke="rgb(59,92,180)" stroke-width="1" opacity="0.75" />
			</g>
			<g>
				<title>Formyl_trans_N (PF00551)
"Formyl transferase"</title>
				<rect class="PF00551" x="809" y="28" stroke-linejoin="round" width="13" height="24" fill="rgb(111,183,66)" stroke="rgb(88,146,52)" stroke-width="1" opacity="0.75" />
			</g>
		</g>
		<g>
			<title> (CDDIDNMG_01076)
hypothetical protein</title>
			<polygon class=" (CDDIDNMG_01076)
hypothetical protein" points="859,25 856,25 856,10 826,40 856,70 856,55 859,55" fill="rgb(255,255,255)" fill-opacity="1.0" stroke="rgb(0,0,0)" stroke-width="2"  />
			<g>
				<title>Glyco_tranf_2_3 (PF13641)
"Glycosyltransferase like family 2"</title>
				<polygon class="PF13641" points="834,36 842,28 858,28 858,52 842,52 834,44" stroke-linejoin="round" width="24" height="24" fill="rgb(140,74,190)" stroke="rgb(111,59,152)" stroke-width="1" opacity="0.75" />
			</g>
		</g>
		<g>
			<title> (CDDIDNMG_01077)
hypothetical protein</title>
			<polygon class=" (CDDIDNMG_01077)
hypothetical protein" points="1072,25 890,25 890,10 860,40 890,70 890,55 1072,55" fill="rgb(255,255,255)" fill-opacity="1.0" stroke="rgb(0,0,0)" stroke-width="2"  />
			<g>
				<title>Thioesterase (PF00975)
"Thioesterase domain"</title>
				<polygon class="PF00975" points="870,34 876,28 885,28 885,52 876,52 870,46" stroke-linejoin="round" width="15" height="24" fill="rgb(207,80,138)" stroke="rgb(165,63,110)" stroke-width="1" opacity="0.75" />
			</g>
			<g>
				<title>PP-binding (PF00550)
"Phosphopantetheine attachment site"</title>
				<rect class="PF00550" x="890" y="28" stroke-linejoin="round" width="6" height="24" fill="rgb(103,191,88)" stroke="rgb(82,152,70)" stroke-width="1" opacity="0.75" />
			</g>
			<g>
				<title>PS-DH (PF14765)
"Polyketide synthase dehydratase"</title>
				<rect class="PF14765" x="906" y="28" stroke-linejoin="round" width="28" height="24" fill="rgb(173,56,182)" stroke="rgb(138,44,145)" stroke-width="1" opacity="0.75" />
			</g>
			<g>
				<title>KR (PF08659)
"KR domain"</title>
				<rect class="PF08659" x="937" y="28" stroke-linejoin="round" width="19" height="24" fill="rgb(66,209,188)" stroke="rgb(52,167,150)" stroke-width="1" opacity="0.75" />
			</g>
			<g>
				<title>Acyl_transf_1 (PF00698)
"Acyl transferase domain"</title>
				<rect class="PF00698" x="990" y="28" stroke-linejoin="round" width="28" height="24" fill="rgb(59,176,209)" stroke="rgb(47,140,167)" stroke-width="1" opacity="0.75" />
			</g>
			<g>
				<title>KAsynt_C_assoc (PF16197)
"Ketoacyl-synthetase C-terminal extension"</title>
				<rect class="PF16197" x="1022" y="28" stroke-linejoin="round" width="11" height="24" fill="rgb(240,150,172)" stroke="rgb(192,120,137)" stroke-width="1" opacity="0.75" />
			</g>
			<g>
				<title>Ketoacyl-synt_C (PF02801)
"Beta-ketoacyl synthase, C-terminal domain"</title>
				<rect class="PF02801" x="1033" y="28" stroke-linejoin="round" width="11" height="24" fill="rgb(215,78,102)" stroke="rgb(172,62,81)" stroke-width="1" opacity="0.75" />
			</g>
			<g>
				<title>ketoacyl-synt (PF00109)
"Beta-ketoacyl synthase, N-terminal domain"</title>
				<rect class="PF00109" x="1046" y="28" stroke-linejoin="round" width="25" height="24" fill="rgb(112,116,228)" stroke="rgb(89,92,182)" stroke-width="1" opacity="0.75" />
			</g>
		</g>
		<g>
			<title> (CDDIDNMG_01078)
hypothetical protein</title>
			<polygon class=" (CDDIDNMG_01078)
hypothetical protein" points="1112,25 1109,25 1109,10 1079,40 1109,70 1109,55 1112,55" fill="rgb(255,255,255)" fill-opacity="1.0" stroke="rgb(0,0,0)" stroke-width="2"  />
			<g>
				<title>Glycos_transf_2 (PF00535)
"Glycosyl transferase family 2"</title>
				<rect class="PF00535" x="1098" y="28" stroke-linejoin="round" width="13" height="24" fill="rgb(224,122,96)" stroke="rgb(179,97,76)" stroke-width="1" opacity="0.75" />
			</g>
		</g>
		<g>
			<title> (CDDIDNMG_01079)
hypothetical protein</title>
			<polygon class=" (CDDIDNMG_01079)
hypothetical protein" points="1159,25 1142,25 1142,10 1112,40 1142,70 1142,55 1159,55" fill="rgb(255,255,255)" fill-opacity="1.0" stroke="rgb(0,0,0)" stroke-width="2"  />
		</g>
		<g>
			<title> (CDDIDNMG_01080)
hypothetical protein</title>
			<polygon class=" (CDDIDNMG_01080)
hypothetical protein" points="1192,25 1192,25 1192,10 1162,40 1192,70 1192,55 1192,55" fill="rgb(255,255,255)" fill-opacity="1.0" stroke="rgb(0,0,0)" stroke-width="2"  />
			<g>
				<title>Acyl_transf_3 (PF01757)
"Acyltransferase family"</title>
				<polygon class="PF01757" points="1166,40 1178,28 1191,28 1191,52 1178,52" stroke-linejoin="round" width="28" height="24" fill="rgb(50,152,200)" stroke="rgb(40,121,160)" stroke-width="1" opacity="0.75" />
			</g>
		</g>
		<g>
			<title> (CDDIDNMG_01081)
N-acetylglucosaminyldiphosphoundecaprenol N-acetyl-beta-D-mannosaminyltransferase</title>
			<polygon class=" (CDDIDNMG_01081)
N-acetylglucosaminyldiphosphoundecaprenol N-acetyl-beta-D-mannosaminyltransferase" points="1196,10 1220,40 1196,70" fill="rgb(255,255,255)" fill-opacity="1.0" stroke="rgb(0,0,0)" stroke-width="2"  />
			<g>
				<title>Glyco_tran_WecG (PF03808)
"Glycosyl transferase WecG/TagA/CpsF family"</title>
				<polygon class="PF03808" points="1202,28 1207,28 1217,40 1207,52 1202,52" stroke-linejoin="round" width="17" height="24" fill="rgb(83,144,229)" stroke="rgb(66,115,183)" stroke-width="1" opacity="0.75" />
			</g>
		</g>
		<g>
			<title> (CDDIDNMG_01082)
hypothetical protein</title>
			<polygon class=" (CDDIDNMG_01082)
hypothetical protein" points="1253,25 1251,25 1251,10 1221,40 1251,70 1251,55 1253,55" fill="rgb(255,255,255)" fill-opacity="1.0" stroke="rgb(0,0,0)" stroke-width="2"  />
			<g>
				<title>Glycos_transf_2 (PF00535)
"Glycosyl transferase family 2"</title>
				<polygon class="PF00535" points="1236,29 1237,28 1251,28 1251,52 1237,52 1236,51" stroke-linejoin="round" width="15" height="24" fill="rgb(224,122,96)" stroke="rgb(179,97,76)" stroke-width="1" opacity="0.75" />
			</g>
		</g>
		<g>
			<title> (CDDIDNMG_01083)
hypothetical protein</title>
			<polygon class=" (CDDIDNMG_01083)
hypothetical protein" points="1264,10 1293,40 1264,70" fill="rgb(255,255,255)" fill-opacity="1.0" stroke="rgb(0,0,0)" stroke-width="2"  />
			<g>
				<title>ParA (PF10609)
"NUBPL iron-transfer P-loop NTPase"</title>
				<polygon class="PF10609" points="1274,28 1276,28 1288,40 1276,52 1274,52" stroke-linejoin="round" width="17" height="24" fill="rgb(107,194,90)" stroke="rgb(85,155,72)" stroke-width="1" opacity="0.75" />
			</g>
		</g>
		<g>
			<title> (CDDIDNMG_01084)
hypothetical protein</title>
			<polygon class=" (CDDIDNMG_01084)
hypothetical protein" points="1293,25 1308,25 1308,10 1338,40 1308,70 1308,55 1293,55" fill="rgb(255,255,255)" fill-opacity="1.0" stroke="rgb(0,0,0)" stroke-width="2"  />
			<g>
				<title>Wzz (PF02706)
"Chain length determinant protein"</title>
				<rect class="PF02706" x="1293" y="28" stroke-linejoin="round" width="9" height="24" fill="rgb(184,132,90)" stroke="rgb(147,105,72)" stroke-width="1" opacity="0.75" />
			</g>
		</g>
		<g>
			<title>pglC (CDDIDNMG_01085)
Undecaprenyl phosphate N,N'-diacetylbacillosamine 1-phosphate transferase</title>
			<polygon class="pglC (CDDIDNMG_01085)
Undecaprenyl phosphate N,N'-diacetylbacillosamine 1-phosphate transferase" points="1344,40 1368,10 1368,70" fill="rgb(255,255,255)" fill-opacity="1.0" stroke="rgb(0,0,0)" stroke-width="2"  />
			<g>
				<title>Bac_transf (PF02397)
"Bacterial sugar transferase"</title>
				<polygon class="PF02397" points="1348,40 1358,28 1362,28 1362,52 1358,52" stroke-linejoin="round" width="18" height="24" fill="rgb(57,165,209)" stroke="rgb(45,131,167)" stroke-width="1" opacity="0.75" />
			</g>
		</g>
		<g>
			<title> (CDDIDNMG_01086)
hypothetical protein</title>
			<polygon class=" (CDDIDNMG_01086)
hypothetical protein" points="1383,40 1389,10 1389,70" fill="rgb(255,255,255)" fill-opacity="1.0" stroke="rgb(0,0,0)" stroke-width="2"  />
		</g>
		<g>
			<title>rmlA (CDDIDNMG_01087)
Glucose-1-phosphate thymidylyltransferase</title>
			<polygon class="rmlA (CDDIDNMG_01087)
Glucose-1-phosphate thymidylyltransferase" points="1393,40 1422,10 1422,70" fill="rgb(255,255,255)" fill-opacity="1.0" stroke="rgb(0,0,0)" stroke-width="2"  />
			<g>
				<title>NTP_transferase (PF00483)
"Nucleotidyl transferase"</title>
				<polygon class="PF00483" points="1398,39 1409,28 1421,28 1421,52 1409,52 1398,41" stroke-linejoin="round" width="23" height="24" fill="rgb(198,101,87)" stroke="rgb(158,80,69)" stroke-width="1" opacity="0.75" />
			</g>
		</g>
		<g>
			<title>rfbD (CDDIDNMG_01088)
dTDP-4-dehydrorhamnose reductase</title>
			<polygon class="rfbD (CDDIDNMG_01088)
dTDP-4-dehydrorhamnose reductase" points="1422,40 1450,10 1450,70" fill="rgb(255,255,255)" fill-opacity="1.0" stroke="rgb(0,0,0)" stroke-width="2"  />
			<g>
				<title>RmlD_sub_bind (PF04321)
"RmlD substrate binding domain"</title>
				<polygon class="PF04321" points="1426,40 1437,28 1450,28 1450,52 1437,52" stroke-linejoin="round" width="28" height="24" fill="rgb(196,203,60)" stroke="rgb(156,162,47)" stroke-width="1" opacity="0.75" />
			</g>
		</g>
		<g>
			<title>rffG (CDDIDNMG_01089)
dTDP-glucose 4,6-dehydratase 2</title>
			<polygon class="rffG (CDDIDNMG_01089)
dTDP-glucose 4,6-dehydratase 2" points="1486,25 1482,25 1482,10 1452,40 1482,70 1482,55 1486,55" fill="rgb(255,255,255)" fill-opacity="1.0" stroke="rgb(0,0,0)" stroke-width="2"  />
			<g>
				<title>GDP_Man_Dehyd (PF16363)
"GDP-mannose 4,6 dehydratase"</title>
				<polygon class="PF16363" points="1456,40 1468,28 1485,28 1485,52 1468,52" stroke-linejoin="round" width="31" height="24" fill="rgb(162,221,65)" stroke="rgb(129,176,51)" stroke-width="1" opacity="0.75" />
			</g>
		</g>
		<g>
			<title>rfbC (CDDIDNMG_01090)
dTDP-4-dehydrorhamnose 3,5-epimerase</title>
			<polygon class="rfbC (CDDIDNMG_01090)
dTDP-4-dehydrorhamnose 3,5-epimerase" points="1487,40 1505,10 1505,70" fill="rgb(255,255,255)" fill-opacity="1.0" stroke="rgb(0,0,0)" stroke-width="2"  />
			<g>
				<title>dTDP_sugar_isom (PF00908)
"dTDP-4-dehydrorhamnose 3,5-epimerase"</title>
				<polygon class="PF00908" points="1491,40 1499,28 1505,28 1505,52 1499,52" stroke-linejoin="round" width="17" height="24" fill="rgb(184,89,121)" stroke="rgb(147,71,96)" stroke-width="1" opacity="0.75" />
			</g>
		</g>
		<g>
			<title> (CDDIDNMG_01091)
hypothetical protein</title>
			<polygon class=" (CDDIDNMG_01091)
hypothetical protein" points="1553,25 1538,25 1538,10 1508,40 1538,70 1538,55 1553,55" fill="rgb(255,255,255)" fill-opacity="1.0" stroke="rgb(0,0,0)" stroke-width="2"  />
			<g>
				<title>Polysacc_synt_3 (PF13440)
"Polysaccharide biosynthesis protein"</title>
				<polygon class="PF13440" points="1519,33 1524,28 1548,28 1548,52 1524,52 1519,47" stroke-linejoin="round" width="29" height="24" fill="rgb(90,196,165)" stroke="rgb(72,156,132)" stroke-width="1" opacity="0.75" />
			</g>
		</g>
		<g>
			<title>mshA_2 (CDDIDNMG_01092)
D-inositol-3-phosphate glycosyltransferase</title>
			<polygon class="mshA_2 (CDDIDNMG_01092)
D-inositol-3-phosphate glycosyltransferase" points="1558,25 1570,25 1570,10 1600,40 1570,70 1570,55 1558,55" fill="rgb(255,255,255)" fill-opacity="1.0" stroke="rgb(0,0,0)" stroke-width="2"  />
			<g>
				<title>Glyco_transf_4 (PF13439)
"Glycosyltransferase Family 4"</title>
				<rect class="PF13439" x="1559" y="28" stroke-linejoin="round" width="20" height="24" fill="rgb(162,57,186)" stroke="rgb(129,45,148)" stroke-width="1" opacity="0.75" />
			</g>
			<g>
				<title>Glyco_trans_1_4 (PF13692)
"Glycosyl transferases group 1"</title>
				<polygon class="PF13692" points="1580,28 1584,28 1594,38 1594,42 1584,52 1580,52" stroke-linejoin="round" width="14" height="24" fill="rgb(85,182,142)" stroke="rgb(68,145,113)" stroke-width="1" opacity="0.75" />
			</g>
		</g>
		<g>
			<title> (CDDIDNMG_01093)
hypothetical protein</title>
			<polygon class=" (CDDIDNMG_01093)
hypothetical protein" points="1601,10 1627,40 1601,70" fill="rgb(255,255,255)" fill-opacity="1.0" stroke="rgb(0,0,0)" stroke-width="2"  />
		</g>
		<g>
			<title> (CDDIDNMG_01094)
hypothetical protein</title>
			<polygon class=" (CDDIDNMG_01094)
hypothetical protein" points="1633,40 1654,10 1654,70" fill="rgb(255,255,255)" fill-opacity="1.0" stroke="rgb(0,0,0)" stroke-width="2"  />
			<g>
				<title>Lipase_GDSL_2 (PF13472)
"GDSL-like Lipase/Acylhydrolase family"</title>
				<polygon class="PF13472" points="1637,40 1645,28 1653,28 1653,52 1645,52" stroke-linejoin="round" width="19" height="24" fill="rgb(116,68,184)" stroke="rgb(92,54,147)" stroke-width="1" opacity="0.75" />
			</g>
		</g>
		<g>
			<title>cnoX (CDDIDNMG_01095)
Chaperedoxin</title>
			<polygon class="cnoX (CDDIDNMG_01095)
Chaperedoxin" points="1657,25 1657,25 1657,10 1687,40 1657,70 1657,55 1657,55" fill="rgb(255,255,255)" fill-opacity="1.0" stroke="rgb(0,0,0)" stroke-width="2"  />
			<g>
				<title>Thioredoxin (PF00085)
"Thioredoxin"</title>
				<rect class="PF00085" x="1658" y="28" stroke-linejoin="round" width="10" height="24" fill="rgb(220,109,180)" stroke="rgb(176,87,144)" stroke-width="1" opacity="0.75" />
			</g>
			<g>
				<title>TPR_19 (PF14559)
"Tetratricopeptide repeat"</title>
				<polygon class="PF14559" points="1671,28 1671,28 1677,34 1677,46 1671,52 1671,52" stroke-linejoin="round" width="6" height="24" fill="rgb(182,60,145)" stroke="rgb(145,48,115)" stroke-width="1" opacity="0.75" />
			</g>
			<g>
				<title>TPR_20 (PF14561)
"Tetratricopeptide repeat"</title>
				<polygon class="PF14561" points="1678,35 1683,40 1678,45" stroke-linejoin="round" width="8" height="24" fill="rgb(70,228,211)" stroke="rgb(56,182,168)" stroke-width="1" opacity="0.75" />
			</g>
		</g>
		<g>
			<title> (CDDIDNMG_01096)
hypothetical protein</title>
			<polygon class=" (CDDIDNMG_01096)
hypothetical protein" points="1689,10 1710,40 1689,70" fill="rgb(255,255,255)" fill-opacity="1.0" stroke="rgb(0,0,0)" stroke-width="2"  />
			<g>
				<title>LON_substr_bdg (PF02190)
"ATP-dependent protease La (LON) substrate-binding domain"</title>
				<polygon class="PF02190" points="1689,28 1698,28 1706,40 1698,52 1689,52" stroke-linejoin="round" width="19" height="24" fill="rgb(177,104,226)" stroke="rgb(141,83,180)" stroke-width="1" opacity="0.75" />
			</g>
		</g>
		<g>
			<title> (CDDIDNMG_01097)
hypothetical protein</title>
			<polygon class=" (CDDIDNMG_01097)
hypothetical protein" points="1710,10 1716,40 1710,70" fill="rgb(255,255,255)" fill-opacity="1.0" stroke="rgb(0,0,0)" stroke-width="2"  />
			<g>
				<title>Trm112p (PF03966)
"Trm112p-like protein"</title>
				<polygon class="PF03966" points="1711,29 1713,40 1711,51" stroke-linejoin="round" width="3" height="24" fill="rgb(223,142,75)" stroke="rgb(178,113,60)" stroke-width="1" opacity="0.75" />
			</g>
		</g>
		<g>
			<title> (CDDIDNMG_01098)
hypothetical protein</title>
			<polygon class=" (CDDIDNMG_01098)
hypothetical protein" points="1717,40 1736,10 1736,70" fill="rgb(255,255,255)" fill-opacity="1.0" stroke="rgb(0,0,0)" stroke-width="2"  />
		</g>
	</g>
</svg>
