<svg xmlns="http://www.w3.org/2000/svg" xmlns:xlink="http://www.w3.org/1999/xlink" version="1.1" x="0" y="0" height="230" width="800" viewBox="0 0 800 230" preserveAspectRatio="none"  >
<g label="Query sequence" class="clusterblast-cluster"  >
<text x="5" y="20" class="clusterblast-acc"  >
Query sequence</text>
<line x1="10" y1="35" x2="778.0" y2="35" style="stroke-width:1; stroke:grey; "  />
<polygon points="289,40 332,40 337,35 332,30 289,30 289,40 " style="fill:#d81515; stroke-width:1; stroke:black; " description="&lt;b&gt;EOMLKCNM_04155&lt;/b&gt;&lt;br&gt;hypothetical protein&lt;br&gt;Location: 780 - 1818" locus_tag="EOMLKCNM_04155" class="clusterblast-orf" id="dummy-1_q0_0_all"  />
<polygon points="347,40 383,40 388,35 383,30 347,30 347,40 " style="fill:#15d863; stroke-width:1; stroke:black; " description="&lt;b&gt;EOMLKCNM_04156&lt;/b&gt;&lt;br&gt;Coenzyme PQQ synthesis protein B&lt;br&gt;Location: 2039 - 2939" locus_tag="EOMLKCNM_04156" class="clusterblast-orf" id="dummy-1_q1_0_all"  />
<polygon points="388,40 418,40 423,35 418,30 388,30 388,40 " style="fill:#1563d8; stroke-width:1; stroke:black; " description="&lt;b&gt;EOMLKCNM_04157&lt;/b&gt;&lt;br&gt;Bifunctional coenzyme PQQ synthesis protein C/D&lt;br&gt;Location: 2935 - 3700" locus_tag="EOMLKCNM_04157" class="clusterblast-orf" id="dummy-1_q2_0_all"  />
<polygon points="423,40 433,40 438,35 433,30 423,30 423,40 " style="fill:#b115d8; stroke-width:1; stroke:black; " description="&lt;b&gt;EOMLKCNM_04158&lt;/b&gt;&lt;br&gt;PqqA binding protein&lt;br&gt;Location: 3699 - 4014" locus_tag="EOMLKCNM_04158" class="clusterblast-orf" id="dummy-1_q3_0_all"  />
<polygon points="438,40 486,40 491,35 486,30 438,30 438,40 " style="fill:#b1d815; stroke-width:1; stroke:black; " description="&lt;b&gt;EOMLKCNM_04159&lt;/b&gt;&lt;br&gt;PqqA peptide cyclase&lt;br&gt;Location: 4010 - 5168" locus_tag="EOMLKCNM_04159" class="clusterblast-orf" id="dummy-1_q4_0_all"  />
</g>
<g label="NC_014664" description="NC_014664 (759687-776610): Rhodomicrobium vannielii ATCC 17100, complete sequ... (14% of genes show similarity), terpene" class="clusterblast-cluster"  >
<text x="5" y="70" class="clusterblast-acc"  >
<a xlink:href="https://antismash-db.secondarymetabolites.org/area.html?record=NC_014664&amp;start=759687&amp;end=776610" target="_blank">NC_014664 (759687-776610)</a>: Rhodomicrobium vannielii ATCC 17100, complete sequ... (14% of genes show similarity), terpene</text>
<line x1="10" y1="85" x2="778.0" y2="85" style="stroke-width:1; stroke:grey; "  />
</g>
<g id="a1_000"  >
<polygon points="0,90 17,90 22,85 17,80 0,80 0,90 " style="fill:white; stroke-width:1; stroke:black; " description="&lt;b&gt;RVAN_RS03465&lt;/b&gt;&lt;br&gt;Lrp/AsnC family transcriptional regulator&lt;br&gt;Location: 776610 - 776125" locus_tag="RVAN_RS03465" class="clusterblast-orf" id="dummy-1_h1_3_0"  />
</g>
<g id="a1_001"  >
<polygon points="23,85 28,80 41,80 41,90 28,90 23,85 " style="fill:white; stroke-width:1; stroke:black; " description="&lt;b&gt;RVAN_RS03460&lt;/b&gt;&lt;br&gt;hypothetical protein&lt;br&gt;Location: 776102 - 775707" locus_tag="RVAN_RS03460" class="clusterblast-orf" id="dummy-1_h1_3_1"  />
</g>
<g id="a1_002"  >
<polygon points="49,85 54,80 91,80 91,90 54,90 49,85 " style="fill:white; stroke-width:1; stroke:black; " description="&lt;b&gt;RVAN_RS03455&lt;/b&gt;&lt;br&gt;NAD(P)/FAD-dependent oxidoreductase&lt;br&gt;Location: 775538 - 774627" locus_tag="RVAN_RS03455" class="clusterblast-orf" id="dummy-1_h1_3_2"  />
</g>
<g id="a1_003"  >
<polygon points="93,85 98,80 133,80 133,90 98,90 93,85 " style="fill:white; stroke-width:1; stroke:black; " description="&lt;b&gt;RVAN_RS03450&lt;/b&gt;&lt;br&gt;ATP-binding protein&lt;br&gt;Location: 774584 - 773706" locus_tag="RVAN_RS03450" class="clusterblast-orf" id="dummy-1_h1_3_3"  />
</g>
<g id="a1_004"  >
<polygon points="142,90 155,90 160,85 155,80 142,80 142,90 " style="fill:white; stroke-width:1; stroke:black; " description="&lt;b&gt;RVAN_RS03445&lt;/b&gt;&lt;br&gt;preprotein translocase subunit YajC&lt;br&gt;Location: 773508 - 773119" locus_tag="RVAN_RS03445" class="clusterblast-orf" id="dummy-1_h1_3_4"  />
</g>
<g id="a1_005"  >
<polygon points="162,90 233,90 238,85 233,80 162,80 162,90 " style="fill:white; stroke-width:1; stroke:black; " description="&lt;b&gt;RVAN_RS03440&lt;/b&gt;&lt;br&gt;protein translocase subunit SecD&lt;br&gt;Location: 773075 - 771429" locus_tag="RVAN_RS03440" class="clusterblast-orf" id="dummy-1_h1_3_5"  />
</g>
<g id="a1_006"  >
<polygon points="242,90 289,90 294,85 289,80 242,80 242,90 " style="fill:white; stroke-width:1; stroke:black; " description="&lt;b&gt;RVAN_RS03435&lt;/b&gt;&lt;br&gt;protein translocase subunit SecF&lt;br&gt;Location: 771343 - 770213" locus_tag="RVAN_RS03435" class="clusterblast-orf" id="dummy-1_h1_3_6"  />
</g>
<g id="a1_007"  >
<polygon points="295,90 308,90 313,85 308,80 295,80 295,90 " style="fill:white; stroke-width:1; stroke:black; " description="&lt;b&gt;RVAN_RS18665&lt;/b&gt;&lt;br&gt;Mth938-like domain-containing protein&lt;br&gt;Location: 770198 - 769818" locus_tag="RVAN_RS18665" class="clusterblast-orf" id="dummy-1_h1_3_7"  />
</g>
<g id="a1_008"  >
<polygon points="313,90 347,90 352,85 347,80 313,80 313,90 " style="fill:white; stroke-width:1; stroke:black; " description="&lt;b&gt;RVAN_RS03425&lt;/b&gt;&lt;br&gt;squalene/phytoene synthase family protein&lt;br&gt;Location: 769812 - 768952" locus_tag="RVAN_RS03425" class="clusterblast-orf" id="dummy-1_h1_3_8"  />
</g>
<g id="a1_009"  >
<polygon points="353,90 381,90 386,85 381,80 353,80 353,90 " style="fill:white; stroke-width:1; stroke:black; " description="&lt;b&gt;RVAN_RS03420&lt;/b&gt;&lt;br&gt;ATPase&lt;br&gt;Location: 768941 - 768228" locus_tag="RVAN_RS03420" class="clusterblast-orf" id="dummy-1_h1_3_9"  />
</g>
<g id="a1_0010"  >
<polygon points="393,90 425,90 430,85 425,80 393,80 393,90 " style="fill:#1563d8; stroke-width:1; stroke:black; " description="&lt;b&gt;RVAN_RS03415&lt;/b&gt;&lt;br&gt;pyrroloquinoline-quinone synthase PqqC&lt;br&gt;Location: 768066 - 767281&lt;br&gt;&lt;br&gt;&lt;b&gt;BlastP hit with EOMLKCNM_04157&lt;/b&gt;&lt;br&gt;Percentage identity: 66&lt;br&gt;Percentage coverage: 95&lt;br&gt;BLAST bit score: 317&lt;br&gt;E-value: 6.15e-108" locus_tag="RVAN_RS03415" class="clusterblast-orf" id="dummy-1_h1_3_10"  />
</g>
<g id="a1_0011"  >
<polygon points="430,90 438,90 443,85 438,80 430,80 430,90 " style="fill:#b115d8; stroke-width:1; stroke:black; " description="&lt;b&gt;RVAN_RS03410&lt;/b&gt;&lt;br&gt;pyrroloquinoline quinone biosynthesis peptide chaperone PqqD&lt;br&gt;Location: 767275 - 766985&lt;br&gt;&lt;br&gt;&lt;b&gt;BlastP hit with EOMLKCNM_04158&lt;/b&gt;&lt;br&gt;Percentage identity: 45&lt;br&gt;Percentage coverage: 83&lt;br&gt;BLAST bit score: 74&lt;br&gt;E-value: 1.1e-16" locus_tag="RVAN_RS03410" class="clusterblast-orf" id="dummy-1_h1_3_11"  />
</g>
<g id="a1_0012"  >
<polygon points="442,90 489,90 494,85 489,80 442,80 442,90 " style="fill:#b1d815; stroke-width:1; stroke:black; " description="&lt;b&gt;RVAN_RS03405&lt;/b&gt;&lt;br&gt;pyrroloquinoline quinone biosynthesis protein PqqE&lt;br&gt;Location: 767015 - 765888&lt;br&gt;&lt;br&gt;&lt;b&gt;BlastP hit with EOMLKCNM_04159&lt;/b&gt;&lt;br&gt;Percentage identity: 54&lt;br&gt;Percentage coverage: 96&lt;br&gt;BLAST bit score: 398&lt;br&gt;E-value: 5.38e-136" locus_tag="RVAN_RS03405" class="clusterblast-orf" id="dummy-1_h1_3_12"  />
</g>
<g id="a1_0013"  >
<polygon points="494,85 499,80 518,80 518,90 499,90 494,85 " style="fill:white; stroke-width:1; stroke:black; " description="&lt;b&gt;RVAN_RS03400&lt;/b&gt;&lt;br&gt;DUF2380 domain-containing protein&lt;br&gt;Location: 765878 - 765372" locus_tag="RVAN_RS03400" class="clusterblast-orf" id="dummy-1_h1_3_13"  />
</g>
<g id="a1_0014"  >
<polygon points="525,85 530,80 576,80 576,90 530,90 525,85 " style="fill:white; stroke-width:1; stroke:black; " description="&lt;b&gt;RVAN_RS03395&lt;/b&gt;&lt;br&gt;S-(hydroxymethyl)glutathione dehydrogenase/class III alcohol dehydrogenase&lt;br&gt;Location: 765204 - 764098" locus_tag="RVAN_RS03395" class="clusterblast-orf" id="dummy-1_h1_3_14"  />
</g>
<g id="a1_0015"  >
<polygon points="585,85 590,80 618,80 618,90 590,90 585,85 " style="fill:white; stroke-width:1; stroke:black; " description="&lt;b&gt;RVAN_RS03390&lt;/b&gt;&lt;br&gt;phosphate signaling complex protein PhoU&lt;br&gt;Location: 763903 - 763199" locus_tag="RVAN_RS03390" class="clusterblast-orf" id="dummy-1_h1_3_15"  />
</g>
<g id="a1_0016"  >
<polygon points="626,85 631,80 638,80 638,90 631,90 626,85 " style="fill:white; stroke-width:1; stroke:black; " description="&lt;b&gt;RVAN_RS03385&lt;/b&gt;&lt;br&gt;metal-sensitive transcriptional regulator&lt;br&gt;Location: 763023 - 762751" locus_tag="RVAN_RS03385" class="clusterblast-orf" id="dummy-1_h1_3_16"  />
</g>
<g id="a1_0017"  >
<polygon points="651,90 680,90 685,85 680,80 651,80 651,90 " style="fill:white; stroke-width:1; stroke:black; " description="&lt;b&gt;RVAN_RS03380&lt;/b&gt;&lt;br&gt;YebC/PmpR family DNA-binding transcriptional regulator&lt;br&gt;Location: 762485 - 761739" locus_tag="RVAN_RS03380" class="clusterblast-orf" id="dummy-1_h1_3_17"  />
</g>
<g id="a1_0018"  >
<polygon points="690,85 695,80 712,80 712,90 695,90 690,85 " style="fill:white; stroke-width:1; stroke:black; " description="&lt;b&gt;RVAN_RS03375&lt;/b&gt;&lt;br&gt;hypothetical protein&lt;br&gt;Location: 761627 - 761145" locus_tag="RVAN_RS03375" class="clusterblast-orf" id="dummy-1_h1_3_18"  />
</g>
<g id="a1_0019"  >
<polygon points="720,90 740,90 745,85 740,80 720,80 720,90 " style="fill:white; stroke-width:1; stroke:black; " description="&lt;b&gt;RVAN_RS03370&lt;/b&gt;&lt;br&gt;inorganic diphosphatase&lt;br&gt;Location: 760977 - 760444" locus_tag="RVAN_RS03370" class="clusterblast-orf" id="dummy-1_h1_3_19"  />
</g>
<g id="a1_0020"  >
<polygon points="758,90 775,90 780,85 775,80 758,80 758,90 " style="fill:white; stroke-width:1; stroke:black; " description="&lt;b&gt;RVAN_RS03365&lt;/b&gt;&lt;br&gt;hypothetical protein&lt;br&gt;Location: 760146 - 759688" locus_tag="RVAN_RS03365" class="clusterblast-orf" id="dummy-1_h1_3_20"  />
</g>
</svg>
