<svg xmlns="http://www.w3.org/2000/svg" xmlns:xlink="http://www.w3.org/1999/xlink" version="1.1" x="0" y="0" height="230" width="800" viewBox="0 0 800 230" preserveAspectRatio="none"  >
<g label="Query sequence" class="clusterblast-cluster"  >
<text x="5" y="20" class="clusterblast-acc"  >
Query sequence</text>
<line x1="10" y1="35" x2="778.0" y2="35" style="stroke-width:1; stroke:grey; "  />
<polygon points="361,40 370,40 375,35 370,30 361,30 361,40 " style="fill:#d81515; stroke-width:1; stroke:black; " description="&lt;b&gt;EOMLKCNM_04155&lt;/b&gt;&lt;br&gt;hypothetical protein&lt;br&gt;Location: 780 - 1818" locus_tag="EOMLKCNM_04155" class="clusterblast-orf" id="dummy-1_q0_0_all"  />
<polygon points="378,40 384,40 389,35 384,30 378,30 378,40 " style="fill:#15d863; stroke-width:1; stroke:black; " description="&lt;b&gt;EOMLKCNM_04156&lt;/b&gt;&lt;br&gt;Coenzyme PQQ synthesis protein B&lt;br&gt;Location: 2039 - 2939" locus_tag="EOMLKCNM_04156" class="clusterblast-orf" id="dummy-1_q1_0_all"  />
<polygon points="389,40 394,40 399,35 394,30 389,30 389,40 " style="fill:#1563d8; stroke-width:1; stroke:black; " description="&lt;b&gt;EOMLKCNM_04157&lt;/b&gt;&lt;br&gt;Bifunctional coenzyme PQQ synthesis protein C/D&lt;br&gt;Location: 2935 - 3700" locus_tag="EOMLKCNM_04157" class="clusterblast-orf" id="dummy-1_q2_0_all"  />
<polygon points="399,40 403,35 399,30 399,40 " style="fill:#b115d8; stroke-width:1; stroke:black; " description="&lt;b&gt;EOMLKCNM_04158&lt;/b&gt;&lt;br&gt;PqqA binding protein&lt;br&gt;Location: 3699 - 4014" locus_tag="EOMLKCNM_04158" class="clusterblast-orf" id="dummy-1_q3_0_all"  />
<polygon points="403,40 413,40 418,35 413,30 403,30 403,40 " style="fill:#b1d815; stroke-width:1; stroke:black; " description="&lt;b&gt;EOMLKCNM_04159&lt;/b&gt;&lt;br&gt;PqqA peptide cyclase&lt;br&gt;Location: 4010 - 5168" locus_tag="EOMLKCNM_04159" class="clusterblast-orf" id="dummy-1_q4_0_all"  />
</g>
<g label="NZ_CP007155" description="NZ_CP007155 (3951723-4011898): Kutzneria albida DSM 43870 chromosome, complet... (6% of genes show similarity), LAP,T1PKS,lassopeptide,thiopeptide" class="clusterblast-cluster"  >
<text x="5" y="70" class="clusterblast-acc"  >
<a xlink:href="https://antismash-db.secondarymetabolites.org/area.html?record=NZ_CP007155&amp;start=3951723&amp;end=4011898" target="_blank">NZ_CP007155 (3951723-4011898)</a>: Kutzneria albida DSM 43870 chromosome, complet... (6% of genes show similarity), LAP,T1PKS,lassopeptide,thiopeptide</text>
<line x1="10" y1="85" x2="778.0" y2="85" style="stroke-width:1; stroke:grey; "  />
</g>
<g id="a1_000"  >
<polygon points="0,90 0,90 5,85 0,80 0,80 0,90 " style="fill:white; stroke-width:1; stroke:black; " description="&lt;b&gt;KALB_RS47610&lt;/b&gt;&lt;br&gt;sigma-70 family RNA polymerase sigma factor&lt;br&gt;Location: 4011898 - 4011446" locus_tag="KALB_RS47610" class="clusterblast-orf" id="dummy-1_h1_5_0"  />
</g>
<g id="a1_001"  >
<polygon points="9,85 14,80 43,80 43,90 14,90 9,85 " style="fill:white; stroke-width:1; stroke:black; " description="&lt;b&gt;KALB_RS17930&lt;/b&gt;&lt;br&gt;protein kinase/lanthionine synthetase C family protein&lt;br&gt;Location: 4011130 - 4008518" locus_tag="KALB_RS17930" class="clusterblast-orf" id="dummy-1_h1_5_1"  />
</g>
<g id="a1_002"  >
<polygon points="52,90 57,90 62,85 57,80 52,80 52,90 " style="fill:white; stroke-width:1; stroke:black; " description="&lt;b&gt;KALB_RS43990&lt;/b&gt;&lt;br&gt;SDR family NAD(P)-dependent oxidoreductase&lt;br&gt;Location: 4007881 - 4007045" locus_tag="KALB_RS43990" class="clusterblast-orf" id="dummy-1_h1_5_2"  />
</g>
<g id="a1_003"  >
<polygon points="65,90 74,90 79,85 74,80 65,80 65,90 " style="fill:white; stroke-width:1; stroke:black; " description="&lt;b&gt;KALB_RS17920&lt;/b&gt;&lt;br&gt;hypothetical protein&lt;br&gt;Location: 4006814 - 4005756" locus_tag="KALB_RS17920" class="clusterblast-orf" id="dummy-1_h1_5_3"  />
</g>
<g id="a1_004"  >
<polygon points="81,90 87,90 92,85 87,80 81,80 81,90 " style="fill:white; stroke-width:1; stroke:black; " description="&lt;b&gt;KALB_RS17915&lt;/b&gt;&lt;br&gt;NAD(P)-dependent oxidoreductase&lt;br&gt;Location: 4005648 - 4004758" locus_tag="KALB_RS17915" class="clusterblast-orf" id="dummy-1_h1_5_4"  />
</g>
<g id="a1_005"  >
<polygon points="94,85 99,80 108,80 108,90 99,90 94,85 " style="fill:white; stroke-width:1; stroke:black; " description="&lt;b&gt;KALB_RS17910&lt;/b&gt;&lt;br&gt;PQQ-dependent sugar dehydrogenase&lt;br&gt;Location: 4004585 - 4003542" locus_tag="KALB_RS17910" class="clusterblast-orf" id="dummy-1_h1_5_5"  />
</g>
<g id="a1_006"  >
<polygon points="111,90 113,85 111,80 111,90 " style="fill:white; stroke-width:1; stroke:black; " description="&lt;b&gt;KALB_RS44830&lt;/b&gt;&lt;br&gt;pyrroloquinoline quinone precursor peptide PqqA&lt;br&gt;Location: 4003270 - 4003148" locus_tag="KALB_RS44830" class="clusterblast-orf" id="dummy-1_h1_5_6"  />
</g>
<g id="a1_007"  >
<polygon points="114,90 118,90 123,85 118,80 114,80 114,90 " style="fill:#1563d8; stroke-width:1; stroke:black; " description="&lt;b&gt;KALB_RS17905&lt;/b&gt;&lt;br&gt;pyrroloquinoline-quinone synthase PqqC&lt;br&gt;Location: 4003067 - 4002378&lt;br&gt;&lt;br&gt;&lt;b&gt;BlastP hit with EOMLKCNM_04157&lt;/b&gt;&lt;br&gt;Percentage identity: 41&lt;br&gt;Percentage coverage: 85&lt;br&gt;BLAST bit score: 164&lt;br&gt;E-value: 2.72e-48" locus_tag="KALB_RS17905" class="clusterblast-orf" id="dummy-1_h1_5_7"  />
</g>
<g id="a1_008"  >
<polygon points="123,90 126,85 123,80 123,90 " style="fill:#b115d8; stroke-width:1; stroke:black; " description="&lt;b&gt;KALB_RS17900&lt;/b&gt;&lt;br&gt;pyrroloquinoline quinone biosynthesis peptide chaperone PqqD&lt;br&gt;Location: 4002381 - 4002103&lt;br&gt;&lt;br&gt;&lt;b&gt;BlastP hit with EOMLKCNM_04158&lt;/b&gt;&lt;br&gt;Percentage identity: 40&lt;br&gt;Percentage coverage: 86&lt;br&gt;BLAST bit score: 55&lt;br&gt;E-value: 3.47e-09" locus_tag="KALB_RS17900" class="clusterblast-orf" id="dummy-1_h1_5_8"  />
</g>
<g id="a1_009"  >
<polygon points="126,90 135,90 140,85 135,80 126,80 126,90 " style="fill:#b1d815; stroke-width:1; stroke:black; " description="&lt;b&gt;KALB_RS17895&lt;/b&gt;&lt;br&gt;pyrroloquinoline quinone biosynthesis protein PqqE&lt;br&gt;Location: 4002110 - 4001052&lt;br&gt;&lt;br&gt;&lt;b&gt;BlastP hit with EOMLKCNM_04159&lt;/b&gt;&lt;br&gt;Percentage identity: 49&lt;br&gt;Percentage coverage: 90&lt;br&gt;BLAST bit score: 342&lt;br&gt;E-value: 2.25e-114" locus_tag="KALB_RS17895" class="clusterblast-orf" id="dummy-1_h1_5_9"  />
</g>
<g id="a1_0010"  >
<polygon points="141,85 146,80 165,80 165,90 146,90 141,85 " style="fill:white; stroke-width:1; stroke:black; " description="&lt;b&gt;KALB_RS17890&lt;/b&gt;&lt;br&gt;ABC transporter ATP-binding protein&lt;br&gt;Location: 4000984 - 3999110" locus_tag="KALB_RS17890" class="clusterblast-orf" id="dummy-1_h1_5_10"  />
</g>
<g id="a1_0011"  >
<polygon points="167,85 169,80 169,90 167,85 " style="fill:white; stroke-width:1; stroke:black; " description="&lt;b&gt;KALB_RS17885&lt;/b&gt;&lt;br&gt;PqqD family protein&lt;br&gt;Location: 3999001 - 3998834" locus_tag="KALB_RS17885" class="clusterblast-orf" id="dummy-1_h1_5_11"  />
</g>
<g id="a1_0012"  >
<polygon points="178,85 183,80 186,80 186,90 183,90 178,85 " style="fill:white; stroke-width:1; stroke:black; " description="&lt;b&gt;KALB_RS17880&lt;/b&gt;&lt;br&gt;response regulator transcription factor&lt;br&gt;Location: 3998152 - 3997505" locus_tag="KALB_RS17880" class="clusterblast-orf" id="dummy-1_h1_5_12"  />
</g>
<g id="a1_0013"  >
<polygon points="187,85 192,80 194,80 194,90 192,90 187,85 " style="fill:white; stroke-width:1; stroke:black; " description="&lt;b&gt;KALB_RS17875&lt;/b&gt;&lt;br&gt;lasso peptide biosynthesis B2 protein&lt;br&gt;Location: 3997407 - 3996931" locus_tag="KALB_RS17875" class="clusterblast-orf" id="dummy-1_h1_5_13"  />
</g>
<g id="a1_0014"  >
<polygon points="194,85 197,80 197,90 194,85 " style="fill:white; stroke-width:1; stroke:black; " description="&lt;b&gt;KALB_RS17870&lt;/b&gt;&lt;br&gt;lasso peptide biosynthesis PqqD family chaperone&lt;br&gt;Location: 3996896 - 3996633" locus_tag="KALB_RS17870" class="clusterblast-orf" id="dummy-1_h1_5_14"  />
</g>
<g id="a1_0015"  >
<polygon points="198,85 203,80 221,80 221,90 203,90 198,85 " style="fill:white; stroke-width:1; stroke:black; " description="&lt;b&gt;KALB_RS17865&lt;/b&gt;&lt;br&gt;asparagine synthase&lt;br&gt;Location: 3996603 - 3994780" locus_tag="KALB_RS17865" class="clusterblast-orf" id="dummy-1_h1_5_15"  />
</g>
<g id="a1_0016"  >
<polygon points="225,85 227,80 227,90 225,85 " style="fill:white; stroke-width:1; stroke:black; " description="&lt;b&gt;KALB_RS47605&lt;/b&gt;&lt;br&gt;lasso RiPP family leader peptide-containing protein&lt;br&gt;Location: 3994499 - 3994344" locus_tag="KALB_RS47605" class="clusterblast-orf" id="dummy-1_h1_5_16"  />
</g>
<g id="a1_0017"  >
<polygon points="229,85 234,80 239,80 239,90 234,90 229,85 " style="fill:white; stroke-width:1; stroke:black; " description="&lt;b&gt;KALB_RS17860&lt;/b&gt;&lt;br&gt;AfsR/SARP family transcriptional regulator&lt;br&gt;Location: 3994214 - 3993441" locus_tag="KALB_RS17860" class="clusterblast-orf" id="dummy-1_h1_5_17"  />
</g>
<g id="a1_0018"  >
<polygon points="242,90 250,90 255,85 250,80 242,80 242,90 " style="fill:white; stroke-width:1; stroke:black; " description="&lt;b&gt;KALB_RS17855&lt;/b&gt;&lt;br&gt;hypothetical protein&lt;br&gt;Location: 3993177 - 3992155" locus_tag="KALB_RS17855" class="clusterblast-orf" id="dummy-1_h1_5_18"  />
</g>
<g id="a1_0019"  >
<polygon points="256,85 261,80 282,80 282,90 261,90 256,85 " style="fill:white; stroke-width:1; stroke:black; " description="&lt;b&gt;KALB_RS17850&lt;/b&gt;&lt;br&gt;TOMM precursor leader peptide-binding protein&lt;br&gt;Location: 3992108 - 3990129" locus_tag="KALB_RS17850" class="clusterblast-orf" id="dummy-1_h1_5_19"  />
</g>
<g id="a1_0020"  >
<polygon points="282,85 287,80 308,80 308,90 287,90 282,85 " style="fill:white; stroke-width:1; stroke:black; " description="&lt;b&gt;KALB_RS17845&lt;/b&gt;&lt;br&gt;YcaO-like family protein&lt;br&gt;Location: 3990136 - 3988103" locus_tag="KALB_RS17845" class="clusterblast-orf" id="dummy-1_h1_5_20"  />
</g>
<g id="a1_0021"  >
<polygon points="308,85 313,80 326,80 326,90 313,90 308,85 " style="fill:white; stroke-width:1; stroke:black; " description="&lt;b&gt;KALB_RS17840&lt;/b&gt;&lt;br&gt;SagB/ThcOx family dehydrogenase&lt;br&gt;Location: 3988106 - 3986703" locus_tag="KALB_RS17840" class="clusterblast-orf" id="dummy-1_h1_5_21"  />
</g>
<g id="a1_0022"  >
<polygon points="326,85 331,80 340,80 340,90 331,90 326,85 " style="fill:white; stroke-width:1; stroke:black; " description="&lt;b&gt;KALB_RS17835&lt;/b&gt;&lt;br&gt;hypothetical protein&lt;br&gt;Location: 3986706 - 3985600" locus_tag="KALB_RS17835" class="clusterblast-orf" id="dummy-1_h1_5_22"  />
</g>
<g id="a1_0023"  >
<polygon points="340,85 345,80 353,80 353,90 345,90 340,85 " style="fill:white; stroke-width:1; stroke:black; " description="&lt;b&gt;KALB_RS17830&lt;/b&gt;&lt;br&gt;hypothetical protein&lt;br&gt;Location: 3985596 - 3984631" locus_tag="KALB_RS17830" class="clusterblast-orf" id="dummy-1_h1_5_23"  />
</g>
<g id="a1_0024"  >
<polygon points="353,85 358,80 387,80 387,90 358,90 353,85 " style="fill:white; stroke-width:1; stroke:black; " description="&lt;b&gt;KALB_RS17825&lt;/b&gt;&lt;br&gt;lantibiotic dehydratase&lt;br&gt;Location: 3984630 - 3982015" locus_tag="KALB_RS17825" class="clusterblast-orf" id="dummy-1_h1_5_24"  />
</g>
<g id="a1_0025"  >
<polygon points="389,85 392,80 392,90 389,85 " style="fill:white; stroke-width:1; stroke:black; " description="&lt;b&gt;KALB_RS17820&lt;/b&gt;&lt;br&gt;GE37468 family thiazolyl peptide&lt;br&gt;Location: 3981847 - 3981593" locus_tag="KALB_RS17820" class="clusterblast-orf" id="dummy-1_h1_5_25"  />
</g>
<g id="a1_0026"  >
<polygon points="395,85 400,80 404,80 404,90 400,90 395,85 " style="fill:white; stroke-width:1; stroke:black; " description="&lt;b&gt;KALB_RS43985&lt;/b&gt;&lt;br&gt;phosphatase PAP2 family protein&lt;br&gt;Location: 3981355 - 3980693" locus_tag="KALB_RS43985" class="clusterblast-orf" id="dummy-1_h1_5_26"  />
</g>
<g id="a1_0027"  >
<polygon points="412,90 414,90 419,85 414,80 412,80 412,90 " style="fill:white; stroke-width:1; stroke:black; " description="&lt;b&gt;KALB_RS17810&lt;/b&gt;&lt;br&gt;hypothetical protein&lt;br&gt;Location: 3980045 - 3979557" locus_tag="KALB_RS17810" class="clusterblast-orf" id="dummy-1_h1_5_27"  />
</g>
<g id="a1_0028"  >
<polygon points="422,90 434,90 439,85 434,80 422,80 422,90 " style="fill:white; stroke-width:1; stroke:black; " description="&lt;b&gt;KALB_RS17805&lt;/b&gt;&lt;br&gt;UDP-N-acetylglucosamine 2-epimerase (non-hydrolyzing)&lt;br&gt;Location: 3979275 - 3977998" locus_tag="KALB_RS17805" class="clusterblast-orf" id="dummy-1_h1_5_28"  />
</g>
<g id="a1_0029"  >
<polygon points="444,90 444,90 449,85 444,80 444,80 444,90 " style="fill:white; stroke-width:1; stroke:black; " description="&lt;b&gt;KALB_RS17800&lt;/b&gt;&lt;br&gt;helix-turn-helix transcriptional regulator&lt;br&gt;Location: 3977598 - 3977221" locus_tag="KALB_RS17800" class="clusterblast-orf" id="dummy-1_h1_5_29"  />
</g>
<g id="a1_0030"  >
<polygon points="451,90 454,90 459,85 454,80 451,80 451,90 " style="fill:white; stroke-width:1; stroke:black; " description="&lt;b&gt;KALB_RS17795&lt;/b&gt;&lt;br&gt;lamin tail domain-containing protein&lt;br&gt;Location: 3977078 - 3976485" locus_tag="KALB_RS17795" class="clusterblast-orf" id="dummy-1_h1_5_30"  />
</g>
<g id="a1_0031"  >
<polygon points="460,85 465,80 489,80 489,90 465,90 460,85 " style="fill:white; stroke-width:1; stroke:black; " description="&lt;b&gt;KALB_RS17790&lt;/b&gt;&lt;br&gt;MMPL family transporter&lt;br&gt;Location: 3976405 - 3974165" locus_tag="KALB_RS17790" class="clusterblast-orf" id="dummy-1_h1_5_31"  />
</g>
<g id="a1_0032"  >
<polygon points="489,85 494,80 548,80 548,90 494,90 489,85 " style="fill:white; stroke-width:1; stroke:black; " description="&lt;b&gt;KALB_RS17785&lt;/b&gt;&lt;br&gt;type I polyketide synthase&lt;br&gt;Location: 3974121 - 3969568" locus_tag="KALB_RS17785" class="clusterblast-orf" id="dummy-1_h1_5_32"  />
</g>
<g id="a1_0033"  >
<polygon points="554,90 580,90 585,85 580,80 554,80 554,90 " style="fill:white; stroke-width:1; stroke:black; " description="&lt;b&gt;KALB_RS17780&lt;/b&gt;&lt;br&gt;LuxR family transcriptional regulator&lt;br&gt;Location: 3969133 - 3966719" locus_tag="KALB_RS17780" class="clusterblast-orf" id="dummy-1_h1_5_33"  />
</g>
<g id="a1_0034"  >
<polygon points="588,90 594,90 599,85 594,80 588,80 588,90 " style="fill:white; stroke-width:1; stroke:black; " description="&lt;b&gt;KALB_RS17775&lt;/b&gt;&lt;br&gt;universal stress protein&lt;br&gt;Location: 3966462 - 3965620" locus_tag="KALB_RS17775" class="clusterblast-orf" id="dummy-1_h1_5_34"  />
</g>
<g id="a1_0035"  >
<polygon points="600,90 601,90 606,85 601,80 600,80 600,90 " style="fill:white; stroke-width:1; stroke:black; " description="&lt;b&gt;KALB_RS17770&lt;/b&gt;&lt;br&gt;hypothetical protein&lt;br&gt;Location: 3965572 - 3965102" locus_tag="KALB_RS17770" class="clusterblast-orf" id="dummy-1_h1_5_35"  />
</g>
<g id="a1_0036"  >
<polygon points="608,90 615,90 620,85 615,80 608,80 608,90 " style="fill:white; stroke-width:1; stroke:black; " description="&lt;b&gt;KALB_RS17765&lt;/b&gt;&lt;br&gt;aminoglycoside phosphotransferase family protein&lt;br&gt;Location: 3964946 - 3964002" locus_tag="KALB_RS17765" class="clusterblast-orf" id="dummy-1_h1_5_36"  />
</g>
<g id="a1_0037"  >
<polygon points="621,85 626,80 630,80 630,90 626,90 621,85 " style="fill:white; stroke-width:1; stroke:black; " description="&lt;b&gt;KALB_RS17760&lt;/b&gt;&lt;br&gt;GAF and ANTAR domain-containing protein&lt;br&gt;Location: 3963988 - 3963260" locus_tag="KALB_RS17760" class="clusterblast-orf" id="dummy-1_h1_5_37"  />
</g>
<g id="a1_0038"  >
<polygon points="632,85 637,80 637,80 637,90 637,90 632,85 " style="fill:white; stroke-width:1; stroke:black; " description="&lt;b&gt;KALB_RS17755&lt;/b&gt;&lt;br&gt;hypothetical protein&lt;br&gt;Location: 3963106 - 3962711" locus_tag="KALB_RS17755" class="clusterblast-orf" id="dummy-1_h1_5_38"  />
</g>
<g id="a1_0039"  >
<polygon points="638,85 643,80 650,80 650,90 643,90 638,85 " style="fill:white; stroke-width:1; stroke:black; " description="&lt;b&gt;KALB_RS17750&lt;/b&gt;&lt;br&gt;universal stress protein&lt;br&gt;Location: 3962602 - 3961730" locus_tag="KALB_RS17750" class="clusterblast-orf" id="dummy-1_h1_5_39"  />
</g>
<g id="a1_0040"  >
<polygon points="650,85 655,80 660,80 660,90 655,90 650,85 " style="fill:white; stroke-width:1; stroke:black; " description="&lt;b&gt;KALB_RS17745&lt;/b&gt;&lt;br&gt;hypothetical protein&lt;br&gt;Location: 3961718 - 3960933" locus_tag="KALB_RS17745" class="clusterblast-orf" id="dummy-1_h1_5_40"  />
</g>
<g id="a1_0041"  >
<polygon points="661,85 666,80 669,80 669,90 666,90 661,85 " style="fill:white; stroke-width:1; stroke:black; " description="&lt;b&gt;KALB_RS17740&lt;/b&gt;&lt;br&gt;hypothetical protein&lt;br&gt;Location: 3960849 - 3960268" locus_tag="KALB_RS17740" class="clusterblast-orf" id="dummy-1_h1_5_41"  />
</g>
<g id="a1_0042"  >
<polygon points="669,85 674,80 674,80 674,90 674,90 669,85 " style="fill:white; stroke-width:1; stroke:black; " description="&lt;b&gt;KALB_RS17735&lt;/b&gt;&lt;br&gt;universal stress protein&lt;br&gt;Location: 3960262 - 3959852" locus_tag="KALB_RS17735" class="clusterblast-orf" id="dummy-1_h1_5_42"  />
</g>
<g id="a1_0043"  >
<polygon points="674,85 679,80 707,80 707,90 679,90 674,85 " style="fill:white; stroke-width:1; stroke:black; " description="&lt;b&gt;KALB_RS17730&lt;/b&gt;&lt;br&gt;cation-transporting P-type ATPase&lt;br&gt;Location: 3959855 - 3957306" locus_tag="KALB_RS17730" class="clusterblast-orf" id="dummy-1_h1_5_43"  />
</g>
<g id="a1_0044"  >
<polygon points="708,90 712,90 717,85 712,80 708,80 708,90 " style="fill:white; stroke-width:1; stroke:black; " description="&lt;b&gt;KALB_RS17725&lt;/b&gt;&lt;br&gt;response regulator transcription factor&lt;br&gt;Location: 3957206 - 3956547" locus_tag="KALB_RS17725" class="clusterblast-orf" id="dummy-1_h1_5_44"  />
</g>
<g id="a1_0045"  >
<polygon points="717,85 722,80 723,80 723,90 722,90 717,85 " style="fill:white; stroke-width:1; stroke:black; " description="&lt;b&gt;KALB_RS17720&lt;/b&gt;&lt;br&gt;hypothetical protein&lt;br&gt;Location: 3956525 - 3956109" locus_tag="KALB_RS17720" class="clusterblast-orf" id="dummy-1_h1_5_45"  />
</g>
<g id="a1_0046"  >
<polygon points="724,85 729,80 746,80 746,90 729,90 724,85 " style="fill:white; stroke-width:1; stroke:black; " description="&lt;b&gt;KALB_RS17715&lt;/b&gt;&lt;br&gt;GAF domain-containing protein&lt;br&gt;Location: 3955990 - 3954323" locus_tag="KALB_RS17715" class="clusterblast-orf" id="dummy-1_h1_5_46"  />
</g>
<g id="a1_0047"  >
<polygon points="748,90 756,90 761,85 756,80 748,80 748,90 " style="fill:white; stroke-width:1; stroke:black; " description="&lt;b&gt;KALB_RS17710&lt;/b&gt;&lt;br&gt;nitroreductase family protein&lt;br&gt;Location: 3954145 - 3953138" locus_tag="KALB_RS17710" class="clusterblast-orf" id="dummy-1_h1_5_47"  />
</g>
<g id="a1_0048"  >
<polygon points="761,90 766,90 771,85 766,80 761,80 761,90 " style="fill:white; stroke-width:1; stroke:black; " description="&lt;b&gt;KALB_RS17705&lt;/b&gt;&lt;br&gt;universal stress protein&lt;br&gt;Location: 3953138 - 3952344" locus_tag="KALB_RS17705" class="clusterblast-orf" id="dummy-1_h1_5_48"  />
</g>
<g id="a1_0049"  >
<polygon points="772,90 775,90 780,85 775,80 772,80 772,90 " style="fill:white; stroke-width:1; stroke:black; " description="&lt;b&gt;KALB_RS17700&lt;/b&gt;&lt;br&gt;CBS domain-containing protein&lt;br&gt;Location: 3952341 - 3951724" locus_tag="KALB_RS17700" class="clusterblast-orf" id="dummy-1_h1_5_49"  />
</g>
</svg>
