<svg xmlns="http://www.w3.org/2000/svg" xmlns:xlink="http://www.w3.org/1999/xlink" version="1.1" x="0" y="0" height="230" width="800" viewBox="0 0 800 230" preserveAspectRatio="none"  >
<g label="Query sequence" class="clusterblast-cluster"  >
<text x="5" y="20" class="clusterblast-acc"  >
Query sequence</text>
<line x1="10" y1="35" x2="778.0" y2="35" style="stroke-width:1; stroke:grey; "  />
<polygon points="0,35 5,30 25,30 25,40 5,40 0,35 " style="fill:white; stroke-width:1; stroke:black; " description="&lt;b&gt;EOMLKCNM_00174&lt;/b&gt;&lt;br&gt;hypothetical protein&lt;br&gt;Location: 23277 - 23919" locus_tag="EOMLKCNM_00174" class="clusterblast-orf" id="dummy-1_q0_0_all"  />
<polygon points="33,40 63,40 68,35 63,30 33,30 33,40 " style="fill:white; stroke-width:1; stroke:black; " description="&lt;b&gt;EOMLKCNM_00175&lt;/b&gt;&lt;br&gt;hypothetical protein&lt;br&gt;Location: 24132 - 25023" locus_tag="EOMLKCNM_00175" class="clusterblast-orf" id="dummy-1_q1_0_all"  />
<polygon points="69,40 89,40 94,35 89,30 69,30 69,40 " style="fill:white; stroke-width:1; stroke:black; " description="&lt;b&gt;EOMLKCNM_00176&lt;/b&gt;&lt;br&gt;Guanylate kinase&lt;br&gt;Location: 25025 - 25673" locus_tag="EOMLKCNM_00176" class="clusterblast-orf" id="dummy-1_q2_0_all"  />
<polygon points="94,40 109,40 114,35 109,30 94,30 94,40 " style="fill:white; stroke-width:1; stroke:black; " description="&lt;b&gt;EOMLKCNM_00177&lt;/b&gt;&lt;br&gt;Protein YrdA&lt;br&gt;Location: 25669 - 26188" locus_tag="EOMLKCNM_00177" class="clusterblast-orf" id="dummy-1_q3_0_all"  />
<polygon points="121,40 188,40 193,35 188,30 121,30 121,40 " style="fill:#d81515; stroke-width:1; stroke:black; " description="&lt;b&gt;EOMLKCNM_00178&lt;/b&gt;&lt;br&gt;ABC transporter ATP-binding protein uup&lt;br&gt;Location: 26361 - 28191" locus_tag="EOMLKCNM_00178" class="clusterblast-orf" id="dummy-1_q4_0_all"  />
<polygon points="200,40 219,40 224,35 219,30 200,30 200,40 " style="fill:#3cd815; stroke-width:1; stroke:black; " description="&lt;b&gt;EOMLKCNM_00179&lt;/b&gt;&lt;br&gt;hypothetical protein&lt;br&gt;Location: 28380 - 28977" locus_tag="EOMLKCNM_00179" class="clusterblast-orf" id="dummy-1_q5_0_all"  />
<polygon points="233,40 283,40 288,35 283,30 233,30 233,40 " style="fill:#1563d8; stroke-width:1; stroke:black; " description="&lt;b&gt;EOMLKCNM_00180&lt;/b&gt;&lt;br&gt;Cysteine--tRNA ligase&lt;br&gt;Location: 29217 - 30606" locus_tag="EOMLKCNM_00180" class="clusterblast-orf" id="dummy-1_q6_0_all"  />
<polygon points="288,40 348,40 353,35 348,30 288,30 288,40 " style="fill:#b115d8; stroke-width:1; stroke:black; " description="&lt;b&gt;EOMLKCNM_00181&lt;/b&gt;&lt;br&gt;(R)-citramalate synthase&lt;br&gt;Location: 30602 - 32267" locus_tag="EOMLKCNM_00181" class="clusterblast-orf" id="dummy-1_q7_0_all"  />
<polygon points="353,40 376,40 381,35 376,30 353,30 353,40 " style="fill:#d88a15; stroke-width:1; stroke:black; " description="&lt;b&gt;EOMLKCNM_00182&lt;/b&gt;&lt;br&gt;hypothetical protein&lt;br&gt;Location: 32263 - 32980" locus_tag="EOMLKCNM_00182" class="clusterblast-orf" id="dummy-1_q8_0_all"  />
<polygon points="381,40 406,40 411,35 406,30 381,30 381,40 " style="fill:#15d863; stroke-width:1; stroke:black; " description="&lt;b&gt;EOMLKCNM_00183&lt;/b&gt;&lt;br&gt;hypothetical protein&lt;br&gt;Location: 32976 - 33744" locus_tag="EOMLKCNM_00183" class="clusterblast-orf" id="dummy-1_q9_0_all"  />
<polygon points="414,35 419,30 462,30 462,40 419,40 414,35 " style="fill:#3c15d8; stroke-width:1; stroke:black; " description="&lt;b&gt;EOMLKCNM_00184&lt;/b&gt;&lt;br&gt;Riboflavin transporter RfnT&lt;br&gt;Location: 33820 - 35041" locus_tag="EOMLKCNM_00184" class="clusterblast-orf" id="dummy-1_q10_0_all"  />
<polygon points="466,40 486,40 491,35 486,30 466,30 466,40 " style="fill:#d8158a; stroke-width:1; stroke:black; " description="&lt;b&gt;EOMLKCNM_00185&lt;/b&gt;&lt;br&gt;hypothetical protein&lt;br&gt;Location: 35140 - 35770" locus_tag="EOMLKCNM_00185" class="clusterblast-orf" id="dummy-1_q11_0_all"  />
<polygon points="491,40 512,40 517,35 512,30 491,30 491,40 " style="fill:#b1d815; stroke-width:1; stroke:black; " description="&lt;b&gt;EOMLKCNM_00186&lt;/b&gt;&lt;br&gt;hypothetical protein&lt;br&gt;Location: 35766 - 36426" locus_tag="EOMLKCNM_00186" class="clusterblast-orf" id="dummy-1_q12_0_all"  />
<polygon points="530,40 548,40 553,35 548,30 530,30 530,40 " style="fill:#15d8d8; stroke-width:1; stroke:black; " description="&lt;b&gt;EOMLKCNM_00187&lt;/b&gt;&lt;br&gt;hypothetical protein&lt;br&gt;Location: 36757 - 37342" locus_tag="EOMLKCNM_00187" class="clusterblast-orf" id="dummy-1_q13_0_all"  />
<polygon points="558,40 590,40 595,35 590,30 558,30 558,40 " style="fill:white; stroke-width:1; stroke:black; " description="&lt;b&gt;EOMLKCNM_00188&lt;/b&gt;&lt;br&gt;tRNA-dihydrouridine(20/20a) synthase&lt;br&gt;Location: 37483 - 38425" locus_tag="EOMLKCNM_00188" class="clusterblast-orf" id="dummy-1_q14_0_all"  />
<polygon points="594,35 599,30 641,30 641,40 599,40 594,35 " style="fill:white; stroke-width:1; stroke:black; " description="&lt;b&gt;EOMLKCNM_00189&lt;/b&gt;&lt;br&gt;Bicyclomycin resistance protein&lt;br&gt;Location: 38406 - 39597" locus_tag="EOMLKCNM_00189" class="clusterblast-orf" id="dummy-1_q15_0_all"  />
<polygon points="648,35 653,30 663,30 663,40 653,40 648,35 " style="fill:white; stroke-width:1; stroke:black; " description="&lt;b&gt;EOMLKCNM_00190&lt;/b&gt;&lt;br&gt;Glutaredoxin 4&lt;br&gt;Location: 39784 - 40153" locus_tag="EOMLKCNM_00190" class="clusterblast-orf" id="dummy-1_q16_0_all"  />
<polygon points="665,35 670,30 674,30 674,40 670,40 665,35 " style="fill:white; stroke-width:1; stroke:black; " description="&lt;b&gt;EOMLKCNM_00191&lt;/b&gt;&lt;br&gt;putative protein RP812&lt;br&gt;Location: 40193 - 40436" locus_tag="EOMLKCNM_00191" class="clusterblast-orf" id="dummy-1_q17_0_all"  />
<polygon points="676,35 681,30 695,30 695,40 681,40 676,35 " style="fill:white; stroke-width:1; stroke:black; " description="&lt;b&gt;EOMLKCNM_00192&lt;/b&gt;&lt;br&gt;hypothetical protein&lt;br&gt;Location: 40484 - 40970" locus_tag="EOMLKCNM_00192" class="clusterblast-orf" id="dummy-1_q18_0_all"  />
<polygon points="695,35 700,30 780,30 780,40 700,40 695,35 " style="fill:white; stroke-width:1; stroke:black; " description="&lt;b&gt;EOMLKCNM_00193&lt;/b&gt;&lt;br&gt;Phosphoribosylformylglycinamidine synthase subunit PurL&lt;br&gt;Location: 40969 - 43129" locus_tag="EOMLKCNM_00193" class="clusterblast-orf" id="dummy-1_q19_0_all"  />
</g>
<g label="NZ_CP030271" description="NZ_CP030271 (1366785-1385319): Rhodobacter sphaeroides 2.4.1 chromosome 1, co... (52% of genes show similarity), terpene" class="clusterblast-cluster"  >
<text x="5" y="70" class="clusterblast-acc"  >
<a xlink:href="https://antismash-db.secondarymetabolites.org/area.html?record=NZ_CP030271&amp;start=1366785&amp;end=1385319" target="_blank">NZ_CP030271 (1366785-1385319)</a>: Rhodobacter sphaeroides 2.4.1 chromosome 1, co... (52% of genes show similarity), terpene</text>
<line x1="10" y1="85" x2="778.0" y2="85" style="stroke-width:1; stroke:grey; "  />
</g>
<g id="a1_000"  >
<polygon points="25,90 92,90 97,85 92,80 25,80 25,90 " style="fill:#d81515; stroke-width:1; stroke:black; " description="&lt;b&gt;DQL45_RS06790&lt;/b&gt;&lt;br&gt;ATP-binding cassette domain-containing protein&lt;br&gt;Location: 1366786 - 1368609&lt;br&gt;&lt;br&gt;&lt;b&gt;BlastP hit with EOMLKCNM_00178&lt;/b&gt;&lt;br&gt;Percentage identity: 80&lt;br&gt;Percentage coverage: 100&lt;br&gt;BLAST bit score: 941&lt;br&gt;E-value: 0.0" locus_tag="DQL45_RS06790" class="clusterblast-orf" id="dummy-1_h1_7_0"  />
</g>
<g id="a1_001"  >
<polygon points="105,90 124,90 129,85 124,80 105,80 105,90 " style="fill:#3cd815; stroke-width:1; stroke:black; " description="&lt;b&gt;DQL45_RS06795&lt;/b&gt;&lt;br&gt;porin family protein&lt;br&gt;Location: 1368822 - 1369424&lt;br&gt;&lt;br&gt;&lt;b&gt;BlastP hit with EOMLKCNM_00179&lt;/b&gt;&lt;br&gt;Percentage identity: 64&lt;br&gt;Percentage coverage: 102&lt;br&gt;BLAST bit score: 247&lt;br&gt;E-value: 2.98e-82" locus_tag="DQL45_RS06795" class="clusterblast-orf" id="dummy-1_h1_7_1"  />
</g>
<g id="a1_002"  >
<polygon points="138,90 151,90 156,85 151,80 138,80 138,90 " style="fill:white; stroke-width:1; stroke:black; " description="&lt;b&gt;DQL45_RS06800&lt;/b&gt;&lt;br&gt;Lrp/AsnC family transcriptional regulator&lt;br&gt;Location: 1369658 - 1370107" locus_tag="DQL45_RS06800" class="clusterblast-orf" id="dummy-1_h1_7_2"  />
</g>
<g id="a1_003"  >
<polygon points="171,90 189,90 194,85 189,80 171,80 171,90 " style="fill:white; stroke-width:1; stroke:black; " description="&lt;b&gt;DQL45_RS06805&lt;/b&gt;&lt;br&gt;LysE family transporter&lt;br&gt;Location: 1370481 - 1371089" locus_tag="DQL45_RS06805" class="clusterblast-orf" id="dummy-1_h1_7_3"  />
</g>
<g id="a1_004"  >
<polygon points="194,85 199,80 212,80 212,90 199,90 194,85 " style="fill:white; stroke-width:1; stroke:black; " description="&lt;b&gt;DQL45_RS06810&lt;/b&gt;&lt;br&gt;MmcQ/YjbR family DNA-binding protein&lt;br&gt;Location: 1371086 - 1371547" locus_tag="DQL45_RS06810" class="clusterblast-orf" id="dummy-1_h1_7_4"  />
</g>
<g id="a1_005"  >
<polygon points="216,90 270,90 275,85 270,80 216,80 216,90 " style="fill:#1563d8; stroke-width:1; stroke:black; " description="&lt;b&gt;DQL45_RS06815&lt;/b&gt;&lt;br&gt;cysteine--tRNA ligase&lt;br&gt;Location: 1371641 - 1373140&lt;br&gt;&lt;br&gt;&lt;b&gt;BlastP hit with EOMLKCNM_00180&lt;/b&gt;&lt;br&gt;Percentage identity: 70&lt;br&gt;Percentage coverage: 107&lt;br&gt;BLAST bit score: 674&lt;br&gt;E-value: 9.93e-242" locus_tag="DQL45_RS06815" class="clusterblast-orf" id="dummy-1_h1_7_5"  />
</g>
<g id="a1_006"  >
<polygon points="280,90 340,90 345,85 340,80 280,80 280,90 " style="fill:#b115d8; stroke-width:1; stroke:black; " description="&lt;b&gt;DQL45_RS06820&lt;/b&gt;&lt;br&gt;citramalate synthase&lt;br&gt;Location: 1373266 - 1374918&lt;br&gt;&lt;br&gt;&lt;b&gt;BlastP hit with EOMLKCNM_00181&lt;/b&gt;&lt;br&gt;Percentage identity: 85&lt;br&gt;Percentage coverage: 98&lt;br&gt;BLAST bit score: 919&lt;br&gt;E-value: 0.0" locus_tag="DQL45_RS06820" class="clusterblast-orf" id="dummy-1_h1_7_6"  />
</g>
<g id="a1_007"  >
<polygon points="345,90 368,90 373,85 368,80 345,80 345,90 " style="fill:#d88a15; stroke-width:1; stroke:black; " description="&lt;b&gt;DQL45_RS06825&lt;/b&gt;&lt;br&gt;class I SAM-dependent methyltransferase&lt;br&gt;Location: 1374915 - 1375634&lt;br&gt;&lt;br&gt;&lt;b&gt;BlastP hit with EOMLKCNM_00182&lt;/b&gt;&lt;br&gt;Percentage identity: 63&lt;br&gt;Percentage coverage: 100&lt;br&gt;BLAST bit score: 316&lt;br&gt;E-value: 3.15e-108" locus_tag="DQL45_RS06825" class="clusterblast-orf" id="dummy-1_h1_7_7"  />
</g>
<g id="a1_008"  >
<polygon points="373,90 398,90 403,85 398,80 373,80 373,90 " style="fill:#15d863; stroke-width:1; stroke:black; " description="&lt;b&gt;DQL45_RS06830&lt;/b&gt;&lt;br&gt;squalene/phytoene synthase family protein&lt;br&gt;Location: 1375631 - 1376398&lt;br&gt;&lt;br&gt;&lt;b&gt;BlastP hit with EOMLKCNM_00183&lt;/b&gt;&lt;br&gt;Percentage identity: 75&lt;br&gt;Percentage coverage: 100&lt;br&gt;BLAST bit score: 365&lt;br&gt;E-value: 3.56e-127" locus_tag="DQL45_RS06830" class="clusterblast-orf" id="dummy-1_h1_7_8"  />
</g>
<g id="a1_009"  >
<polygon points="403,85 408,80 451,80 451,90 408,90 403,85 " style="fill:#3c15d8; stroke-width:1; stroke:black; " description="&lt;b&gt;DQL45_RS06835&lt;/b&gt;&lt;br&gt;MFS transporter&lt;br&gt;Location: 1376402 - 1377622&lt;br&gt;&lt;br&gt;&lt;b&gt;BlastP hit with EOMLKCNM_00184&lt;/b&gt;&lt;br&gt;Percentage identity: 80&lt;br&gt;Percentage coverage: 100&lt;br&gt;BLAST bit score: 613&lt;br&gt;E-value: 2.9e-220" locus_tag="DQL45_RS06835" class="clusterblast-orf" id="dummy-1_h1_7_9"  />
</g>
<g id="a1_0010"  >
<polygon points="457,90 476,90 481,85 476,80 457,80 457,90 " style="fill:#d8158a; stroke-width:1; stroke:black; " description="&lt;b&gt;DQL45_RS06840&lt;/b&gt;&lt;br&gt;DNA-3-methyladenine glycosylase 2 family protein&lt;br&gt;Location: 1377761 - 1378390&lt;br&gt;&lt;br&gt;&lt;b&gt;BlastP hit with EOMLKCNM_00185&lt;/b&gt;&lt;br&gt;Percentage identity: 67&lt;br&gt;Percentage coverage: 99&lt;br&gt;BLAST bit score: 266&lt;br&gt;E-value: 1.54e-89" locus_tag="DQL45_RS06840" class="clusterblast-orf" id="dummy-1_h1_7_10"  />
</g>
<g id="a1_0011"  >
<polygon points="481,90 502,90 507,85 502,80 481,80 481,90 " style="fill:#b1d815; stroke-width:1; stroke:black; " description="&lt;b&gt;DQL45_RS06845&lt;/b&gt;&lt;br&gt;alpha/beta fold hydrolase&lt;br&gt;Location: 1378387 - 1379049&lt;br&gt;&lt;br&gt;&lt;b&gt;BlastP hit with EOMLKCNM_00186&lt;/b&gt;&lt;br&gt;Percentage identity: 84&lt;br&gt;Percentage coverage: 100&lt;br&gt;BLAST bit score: 355&lt;br&gt;E-value: 4.6e-124" locus_tag="DQL45_RS06845" class="clusterblast-orf" id="dummy-1_h1_7_11"  />
</g>
<g id="a1_0012"  >
<polygon points="528,90 546,90 551,85 546,80 528,80 528,90 " style="fill:#15d8d8; stroke-width:1; stroke:black; " description="&lt;b&gt;DQL45_RS06850&lt;/b&gt;&lt;br&gt;HNH endonuclease&lt;br&gt;Location: 1379580 - 1380164&lt;br&gt;&lt;br&gt;&lt;b&gt;BlastP hit with EOMLKCNM_00187&lt;/b&gt;&lt;br&gt;Percentage identity: 86&lt;br&gt;Percentage coverage: 100&lt;br&gt;BLAST bit score: 357&lt;br&gt;E-value: 1.16e-125" locus_tag="DQL45_RS06850" class="clusterblast-orf" id="dummy-1_h1_7_12"  />
</g>
<g id="a1_0013"  >
<polygon points="563,90 570,90 575,85 570,80 563,80 563,90 " style="fill:white; stroke-width:1; stroke:black; " description="&lt;b&gt;DQL45_RS06855&lt;/b&gt;&lt;br&gt;helix-turn-helix transcriptional regulator&lt;br&gt;Location: 1380459 - 1380785" locus_tag="DQL45_RS06855" class="clusterblast-orf" id="dummy-1_h1_7_13"  />
</g>
<g id="a1_0014"  >
<polygon points="577,90 582,90 587,85 582,80 577,80 577,90 " style="fill:white; stroke-width:1; stroke:black; " description="&lt;b&gt;DQL45_RS06860&lt;/b&gt;&lt;br&gt;hypothetical protein&lt;br&gt;Location: 1380826 - 1381071" locus_tag="DQL45_RS06860" class="clusterblast-orf" id="dummy-1_h1_7_14"  />
</g>
<g id="a1_0015"  >
<polygon points="587,90 610,90 615,85 610,80 587,80 587,90 " style="fill:white; stroke-width:1; stroke:black; " description="&lt;b&gt;DQL45_RS06865&lt;/b&gt;&lt;br&gt;arsenical resistance protein ArsH&lt;br&gt;Location: 1381068 - 1381781" locus_tag="DQL45_RS06865" class="clusterblast-orf" id="dummy-1_h1_7_15"  />
</g>
<g id="a1_0016"  >
<polygon points="614,90 655,90 660,85 655,80 614,80 614,90 " style="fill:white; stroke-width:1; stroke:black; " description="&lt;b&gt;DQL45_RS06870&lt;/b&gt;&lt;br&gt;MFS transporter&lt;br&gt;Location: 1381778 - 1382941" locus_tag="DQL45_RS06870" class="clusterblast-orf" id="dummy-1_h1_7_16"  />
</g>
<g id="a1_0017"  >
<polygon points="669,90 721,90 726,85 721,80 669,80 669,90 " style="fill:white; stroke-width:1; stroke:black; " description="&lt;b&gt;DQL45_RS06875&lt;/b&gt;&lt;br&gt;glucose-6-phosphate dehydrogenase&lt;br&gt;Location: 1383158 - 1384609" locus_tag="DQL45_RS06875" class="clusterblast-orf" id="dummy-1_h1_7_17"  />
</g>
<g id="a1_0018"  >
<polygon points="727,90 749,90 754,85 749,80 727,80 727,90 " style="fill:white; stroke-width:1; stroke:black; " description="&lt;b&gt;DQL45_RS06880&lt;/b&gt;&lt;br&gt;6-phosphogluconolactonase&lt;br&gt;Location: 1384648 - 1385319" locus_tag="DQL45_RS06880" class="clusterblast-orf" id="dummy-1_h1_7_18"  />
</g>
</svg>
