<svg xmlns="http://www.w3.org/2000/svg" xmlns:xlink="http://www.w3.org/1999/xlink" version="1.1" x="0" y="0" height="230" width="800" viewBox="0 0 800 230" preserveAspectRatio="none"  >
<g label="Query sequence" class="clusterblast-cluster"  >
<text x="5" y="20" class="clusterblast-acc"  >
Query sequence</text>
<line x1="10" y1="35" x2="778.0" y2="35" style="stroke-width:1; stroke:grey; "  />
<polygon points="313,40 317,35 313,30 313,40 " style="fill:#d81515; stroke-width:1; stroke:black; " description="&lt;b&gt;EOMLKCNM_03262&lt;/b&gt;&lt;br&gt;Petrobactin import system permease protein YclN&lt;br&gt;Location: 22 - 475" locus_tag="EOMLKCNM_03262" class="clusterblast-orf" id="dummy-1_q0_0_all"  />
<polygon points="317,40 322,40 327,35 322,30 317,30 317,40 " style="fill:#15d815; stroke-width:1; stroke:black; " description="&lt;b&gt;EOMLKCNM_03263&lt;/b&gt;&lt;br&gt;Petrobactin import system permease protein YclO&lt;br&gt;Location: 488 - 1433" locus_tag="EOMLKCNM_03263" class="clusterblast-orf" id="dummy-1_q1_0_all"  />
<polygon points="326,40 329,40 334,35 329,30 326,30 326,40 " style="fill:#1597d8; stroke-width:1; stroke:black; " description="&lt;b&gt;EOMLKCNM_03264&lt;/b&gt;&lt;br&gt;Petrobactin import ATP-binding protein YclP&lt;br&gt;Location: 1429 - 2182" locus_tag="EOMLKCNM_03264" class="clusterblast-orf" id="dummy-1_q2_0_all"  />
<polygon points="334,40 342,40 347,35 342,30 334,30 334,40 " style="fill:white; stroke-width:1; stroke:black; " description="&lt;b&gt;EOMLKCNM_03265&lt;/b&gt;&lt;br&gt;Demethylphylloquinone reductase NdbB&lt;br&gt;Location: 2237 - 3566" locus_tag="EOMLKCNM_03265" class="clusterblast-orf" id="dummy-1_q3_0_all"  />
<polygon points="347,35 352,30 353,30 353,40 352,40 347,35 " style="fill:white; stroke-width:1; stroke:black; " description="&lt;b&gt;EOMLKCNM_03266&lt;/b&gt;&lt;br&gt;hypothetical protein&lt;br&gt;Location: 3570 - 4113" locus_tag="EOMLKCNM_03266" class="clusterblast-orf" id="dummy-1_q4_0_all"  />
<polygon points="357,40 364,40 369,35 364,30 357,30 357,40 " style="fill:#9715d8; stroke-width:1; stroke:black; " description="&lt;b&gt;EOMLKCNM_03267&lt;/b&gt;&lt;br&gt;hypothetical protein&lt;br&gt;Location: 4565 - 5762" locus_tag="EOMLKCNM_03267" class="clusterblast-orf" id="dummy-1_q5_0_all"  />
<polygon points="369,40 384,40 389,35 384,30 369,30 369,40 " style="fill:#d89715; stroke-width:1; stroke:black; " description="&lt;b&gt;EOMLKCNM_03268&lt;/b&gt;&lt;br&gt;Putative tyrosine-protein kinase in cps region&lt;br&gt;Location: 5758 - 7876" locus_tag="EOMLKCNM_03268" class="clusterblast-orf" id="dummy-1_q6_0_all"  />
<polygon points="389,40 396,40 401,35 396,30 389,30 389,40 " style="fill:#15d897; stroke-width:1; stroke:black; " description="&lt;b&gt;EOMLKCNM_03269&lt;/b&gt;&lt;br&gt;D-inositol-3-phosphate glycosyltransferase&lt;br&gt;Location: 7865 - 9035" locus_tag="EOMLKCNM_03269" class="clusterblast-orf" id="dummy-1_q7_0_all"  />
<polygon points="400,35 405,30 418,30 418,40 405,40 400,35 " style="fill:#1515d8; stroke-width:1; stroke:black; " description="&lt;b&gt;EOMLKCNM_03270&lt;/b&gt;&lt;br&gt;Cocaine esterase&lt;br&gt;Location: 8980 - 10786" locus_tag="EOMLKCNM_03270" class="clusterblast-orf" id="dummy-1_q8_0_all"  />
<polygon points="418,35 423,30 445,30 445,40 423,40 418,35 " style="fill:#d81597; stroke-width:1; stroke:black; " description="&lt;b&gt;EOMLKCNM_03271&lt;/b&gt;&lt;br&gt;hypothetical protein&lt;br&gt;Location: 10820 - 13583" locus_tag="EOMLKCNM_03271" class="clusterblast-orf" id="dummy-1_q9_0_all"  />
<polygon points="445,35 450,30 466,30 466,40 450,40 445,35 " style="fill:#97d815; stroke-width:1; stroke:black; " description="&lt;b&gt;EOMLKCNM_03272&lt;/b&gt;&lt;br&gt;Polyketide synthase PksJ&lt;br&gt;Location: 13579 - 15754" locus_tag="EOMLKCNM_03272" class="clusterblast-orf" id="dummy-1_q10_0_all"  />
</g>
<g label="NZ_CP010431" description="NZ_CP010431 (1902365-1983361): Pandoraea sputorum strain DSM 21091 chromosome... (9% of genes show similarity), NRPS" class="clusterblast-cluster"  >
<text x="5" y="70" class="clusterblast-acc"  >
<a xlink:href="https://antismash-db.secondarymetabolites.org/area.html?record=NZ_CP010431&amp;start=1902365&amp;end=1983361" target="_blank">NZ_CP010431 (1902365-1983361)</a>: Pandoraea sputorum strain DSM 21091 chromosome... (9% of genes show similarity), NRPS</text>
<line x1="10" y1="85" x2="778.0" y2="85" style="stroke-width:1; stroke:grey; "  />
</g>
<g id="a1_000"  >
<polygon points="0,90 5,90 10,85 5,80 0,80 0,90 " style="fill:white; stroke-width:1; stroke:black; " description="&lt;b&gt;NA29_RS08475&lt;/b&gt;&lt;br&gt;ABC transporter substrate-binding protein&lt;br&gt;Location: 1902877 - 1903941" locus_tag="NA29_RS08475" class="clusterblast-orf" id="dummy-1_h1_8_0"  />
</g>
<g id="a1_001"  >
<polygon points="10,90 16,90 21,85 16,80 10,80 10,90 " style="fill:#1597d8; stroke-width:1; stroke:black; " description="&lt;b&gt;NA29_RS08480&lt;/b&gt;&lt;br&gt;ABC transporter ATP-binding protein&lt;br&gt;Location: 1903990 - 1905075&lt;br&gt;&lt;br&gt;&lt;b&gt;BlastP hit with EOMLKCNM_03264&lt;/b&gt;&lt;br&gt;Percentage identity: 35&lt;br&gt;Percentage coverage: 93&lt;br&gt;BLAST bit score: 117&lt;br&gt;E-value: 4.05e-29" locus_tag="NA29_RS08480" class="clusterblast-orf" id="dummy-1_h1_8_1"  />
</g>
<g id="a1_002"  >
<polygon points="21,90 25,90 30,85 25,80 21,80 21,90 " style="fill:white; stroke-width:1; stroke:black; " description="&lt;b&gt;NA29_RS08485&lt;/b&gt;&lt;br&gt;ABC transporter permease&lt;br&gt;Location: 1905072 - 1906010" locus_tag="NA29_RS08485" class="clusterblast-orf" id="dummy-1_h1_8_2"  />
</g>
<g id="a1_003"  >
<polygon points="30,90 33,90 38,85 33,80 30,80 30,90 " style="fill:white; stroke-width:1; stroke:black; " description="&lt;b&gt;NA29_RS08490&lt;/b&gt;&lt;br&gt;ABC transporter permease&lt;br&gt;Location: 1906025 - 1906840" locus_tag="NA29_RS08490" class="clusterblast-orf" id="dummy-1_h1_8_3"  />
</g>
<g id="a1_004"  >
<polygon points="38,90 44,90 49,85 44,80 38,80 38,90 " style="fill:white; stroke-width:1; stroke:black; " description="&lt;b&gt;NA29_RS08495&lt;/b&gt;&lt;br&gt;FAD-binding oxidoreductase&lt;br&gt;Location: 1906844 - 1907947" locus_tag="NA29_RS08495" class="clusterblast-orf" id="dummy-1_h1_8_4"  />
</g>
<g id="a1_005"  >
<polygon points="49,90 52,85 49,80 49,90 " style="fill:white; stroke-width:1; stroke:black; " description="&lt;b&gt;NA29_RS08500&lt;/b&gt;&lt;br&gt;(2Fe-2S)-binding protein&lt;br&gt;Location: 1907925 - 1908233" locus_tag="NA29_RS08500" class="clusterblast-orf" id="dummy-1_h1_8_5"  />
</g>
<g id="a1_006"  >
<polygon points="52,90 61,90 66,85 61,80 52,80 52,90 " style="fill:white; stroke-width:1; stroke:black; " description="&lt;b&gt;NA29_RS08505&lt;/b&gt;&lt;br&gt;FAD-dependent oxidoreductase&lt;br&gt;Location: 1908230 - 1909663" locus_tag="NA29_RS08505" class="clusterblast-orf" id="dummy-1_h1_8_6"  />
</g>
<g id="a1_007"  >
<polygon points="66,90 70,85 66,80 66,90 " style="fill:white; stroke-width:1; stroke:black; " description="&lt;b&gt;NA29_RS08510&lt;/b&gt;&lt;br&gt;RidA family protein&lt;br&gt;Location: 1909733 - 1910089" locus_tag="NA29_RS08510" class="clusterblast-orf" id="dummy-1_h1_8_7"  />
</g>
<g id="a1_008"  >
<polygon points="73,90 77,90 82,85 77,80 73,80 73,90 " style="fill:white; stroke-width:1; stroke:black; " description="&lt;b&gt;NA29_RS08515&lt;/b&gt;&lt;br&gt;two-component sensor histidine kinase&lt;br&gt;Location: 1910355 - 1911305" locus_tag="NA29_RS08515" class="clusterblast-orf" id="dummy-1_h1_8_8"  />
</g>
<g id="a1_009"  >
<polygon points="82,90 83,90 88,85 83,80 82,80 82,90 " style="fill:white; stroke-width:1; stroke:black; " description="&lt;b&gt;NA29_RS08520&lt;/b&gt;&lt;br&gt;response regulator transcription factor&lt;br&gt;Location: 1911287 - 1911949" locus_tag="NA29_RS08520" class="clusterblast-orf" id="dummy-1_h1_8_9"  />
</g>
<g id="a1_0010"  >
<polygon points="89,90 91,90 96,85 91,80 89,80 89,90 " style="fill:white; stroke-width:1; stroke:black; " description="&lt;b&gt;NA29_RS08525&lt;/b&gt;&lt;br&gt;porin family protein&lt;br&gt;Location: 1912043 - 1912744" locus_tag="NA29_RS08525" class="clusterblast-orf" id="dummy-1_h1_8_10"  />
</g>
<g id="a1_0011"  >
<polygon points="98,90 104,90 109,85 104,80 98,80 98,90 " style="fill:white; stroke-width:1; stroke:black; " description="&lt;b&gt;NA29_RS08530&lt;/b&gt;&lt;br&gt;diguanylate cyclase&lt;br&gt;Location: 1912950 - 1914050" locus_tag="NA29_RS08530" class="clusterblast-orf" id="dummy-1_h1_8_11"  />
</g>
<g id="a1_0012"  >
<polygon points="109,85 114,80 114,80 114,90 114,90 109,85 " style="fill:white; stroke-width:1; stroke:black; " description="&lt;b&gt;NA29_RS08535&lt;/b&gt;&lt;br&gt;sigma-70 family RNA polymerase sigma factor&lt;br&gt;Location: 1914088 - 1914615" locus_tag="NA29_RS08535" class="clusterblast-orf" id="dummy-1_h1_8_12"  />
</g>
<g id="a1_0013"  >
<polygon points="118,90 120,90 125,85 120,80 118,80 118,90 " style="fill:white; stroke-width:1; stroke:black; " description="&lt;b&gt;NA29_RS08540&lt;/b&gt;&lt;br&gt;4'-phosphopantetheinyl transferase superfamily protein&lt;br&gt;Location: 1915017 - 1915754" locus_tag="NA29_RS08540" class="clusterblast-orf" id="dummy-1_h1_8_13"  />
</g>
<g id="a1_0014"  >
<polygon points="126,90 129,85 126,80 126,90 " style="fill:white; stroke-width:1; stroke:black; " description="&lt;b&gt;NA29_RS08545&lt;/b&gt;&lt;br&gt;MbtH family NRPS accessory protein&lt;br&gt;Location: 1915854 - 1916081" locus_tag="NA29_RS08545" class="clusterblast-orf" id="dummy-1_h1_8_14"  />
</g>
<g id="a1_0015"  >
<polygon points="129,90 131,90 136,85 131,80 129,80 129,90 " style="fill:white; stroke-width:1; stroke:black; " description="&lt;b&gt;NA29_RS08550&lt;/b&gt;&lt;br&gt;thioesterase&lt;br&gt;Location: 1916127 - 1916831" locus_tag="NA29_RS08550" class="clusterblast-orf" id="dummy-1_h1_8_15"  />
</g>
<g id="a1_0016"  >
<polygon points="136,90 140,90 145,85 140,80 136,80 136,90 " style="fill:white; stroke-width:1; stroke:black; " description="&lt;b&gt;NA29_RS08555&lt;/b&gt;&lt;br&gt;siderophore-iron reductase FhuF&lt;br&gt;Location: 1916828 - 1917733" locus_tag="NA29_RS08555" class="clusterblast-orf" id="dummy-1_h1_8_16"  />
</g>
<g id="a1_0017"  >
<polygon points="145,85 150,80 159,80 159,90 150,90 145,85 " style="fill:white; stroke-width:1; stroke:black; " description="&lt;b&gt;NA29_RS08560&lt;/b&gt;&lt;br&gt;SidA/IucD/PvdA family monooxygenase&lt;br&gt;Location: 1917816 - 1919192" locus_tag="NA29_RS08560" class="clusterblast-orf" id="dummy-1_h1_8_17"  />
</g>
<g id="a1_0018"  >
<polygon points="162,90 174,90 179,85 174,80 162,80 162,90 " style="fill:white; stroke-width:1; stroke:black; " description="&lt;b&gt;NA29_RS08565&lt;/b&gt;&lt;br&gt;cyclic peptide export ABC transporter&lt;br&gt;Location: 1919497 - 1921197" locus_tag="NA29_RS08565" class="clusterblast-orf" id="dummy-1_h1_8_18"  />
</g>
<g id="a1_0019"  >
<polygon points="179,90 184,90 189,85 184,80 179,80 179,90 " style="fill:white; stroke-width:1; stroke:black; " description="&lt;b&gt;NA29_RS08570&lt;/b&gt;&lt;br&gt;TauD/TfdA family dioxygenase&lt;br&gt;Location: 1921277 - 1922251" locus_tag="NA29_RS08570" class="clusterblast-orf" id="dummy-1_h1_8_19"  />
</g>
<g id="a1_0020"  >
<polygon points="190,90 315,90 320,85 315,80 190,80 190,90 " style="fill:white; stroke-width:1; stroke:black; " description="&lt;b&gt;NA29_RS08575&lt;/b&gt;&lt;br&gt;non-ribosomal peptide synthetase&lt;br&gt;Location: 1922366 - 1935643" locus_tag="NA29_RS08575" class="clusterblast-orf" id="dummy-1_h1_8_20"  />
</g>
<g id="a1_0021"  >
<polygon points="320,90 392,90 397,85 392,80 320,80 320,90 " style="fill:#97d815; stroke-width:1; stroke:black; " description="&lt;b&gt;NA29_RS08580&lt;/b&gt;&lt;br&gt;non-ribosomal peptide synthetase&lt;br&gt;Location: 1935636 - 1943588&lt;br&gt;&lt;br&gt;&lt;b&gt;BlastP hit with EOMLKCNM_03272&lt;/b&gt;&lt;br&gt;Percentage identity: 37&lt;br&gt;Percentage coverage: 99&lt;br&gt;BLAST bit score: 336&lt;br&gt;E-value: 3.16e-97" locus_tag="NA29_RS08580" class="clusterblast-orf" id="dummy-1_h1_8_21"  />
</g>
<g id="a1_0022"  >
<polygon points="398,90 435,90 440,85 435,80 398,80 398,90 " style="fill:#d81597; stroke-width:1; stroke:black; " description="&lt;b&gt;NA29_RS08585&lt;/b&gt;&lt;br&gt;non-ribosomal peptide synthetase&lt;br&gt;Location: 1943689 - 1947924&lt;br&gt;&lt;br&gt;&lt;b&gt;BlastP hit with EOMLKCNM_03271&lt;/b&gt;&lt;br&gt;Percentage identity: 33&lt;br&gt;Percentage coverage: 53&lt;br&gt;BLAST bit score: 219&lt;br&gt;E-value: 1.27e-56" locus_tag="NA29_RS08585" class="clusterblast-orf" id="dummy-1_h1_8_22"  />
</g>
<g id="a1_0023"  >
<polygon points="441,85 446,80 463,80 463,90 446,90 441,85 " style="fill:white; stroke-width:1; stroke:black; " description="&lt;b&gt;NA29_RS08590&lt;/b&gt;&lt;br&gt;TonB-dependent siderophore receptor&lt;br&gt;Location: 1948025 - 1950265" locus_tag="NA29_RS08590" class="clusterblast-orf" id="dummy-1_h1_8_23"  />
</g>
<g id="a1_0024"  >
<polygon points="464,85 469,80 488,80 488,90 469,90 464,85 " style="fill:white; stroke-width:1; stroke:black; " description="&lt;b&gt;NA29_RS08595&lt;/b&gt;&lt;br&gt;penicillin acylase family protein&lt;br&gt;Location: 1950406 - 1952820" locus_tag="NA29_RS08595" class="clusterblast-orf" id="dummy-1_h1_8_24"  />
</g>
<g id="a1_0025"  >
<polygon points="491,90 495,90 500,85 495,80 491,80 491,90 " style="fill:#1597d8; stroke-width:1; stroke:black; " description="&lt;b&gt;NA29_RS08600&lt;/b&gt;&lt;br&gt;ABC transporter ATP-binding protein&lt;br&gt;Location: 1953206 - 1954072&lt;br&gt;&lt;br&gt;&lt;b&gt;BlastP hit with EOMLKCNM_03264&lt;/b&gt;&lt;br&gt;Percentage identity: 42&lt;br&gt;Percentage coverage: 92&lt;br&gt;BLAST bit score: 169&lt;br&gt;E-value: 2e-49" locus_tag="NA29_RS08600" class="clusterblast-orf" id="dummy-1_h1_8_25"  />
</g>
<g id="a1_0026"  >
<polygon points="500,90 515,90 520,85 515,80 500,80 500,90 " style="fill:#d81515; stroke-width:1; stroke:black; " description="&lt;b&gt;NA29_RS08605&lt;/b&gt;&lt;br&gt;iron ABC transporter permease&lt;br&gt;Location: 1954085 - 1956190&lt;br&gt;&lt;br&gt;&lt;b&gt;BlastP hit with EOMLKCNM_03262&lt;/b&gt;&lt;br&gt;Percentage identity: 32&lt;br&gt;Percentage coverage: 90&lt;br&gt;BLAST bit score: 53&lt;br&gt;E-value: 9.75e-07" locus_tag="NA29_RS08605" class="clusterblast-orf" id="dummy-1_h1_8_26"  />
</g>
<g id="a1_0027"  >
<polygon points="520,90 525,90 530,85 525,80 520,80 520,90 " style="fill:white; stroke-width:1; stroke:black; " description="&lt;b&gt;NA29_RS08610&lt;/b&gt;&lt;br&gt;iron-siderophore ABC transporter substrate-binding protein&lt;br&gt;Location: 1956180 - 1957181" locus_tag="NA29_RS08610" class="clusterblast-orf" id="dummy-1_h1_8_27"  />
</g>
<g id="a1_0028"  >
<polygon points="536,90 537,90 542,85 537,80 536,80 536,90 " style="fill:white; stroke-width:1; stroke:black; " description="&lt;b&gt;NA29_RS25720&lt;/b&gt;&lt;br&gt;acetyltransferase&lt;br&gt;Location: 1957754 - 1958383" locus_tag="NA29_RS25720" class="clusterblast-orf" id="dummy-1_h1_8_28"  />
</g>
<g id="a1_0029"  >
<polygon points="543,90 546,85 543,80 543,90 " style="fill:white; stroke-width:1; stroke:black; " description="&lt;b&gt;NA29_RS08620&lt;/b&gt;&lt;br&gt;BrnT family toxin&lt;br&gt;Location: 1958507 - 1958773" locus_tag="NA29_RS08620" class="clusterblast-orf" id="dummy-1_h1_8_29"  />
</g>
<g id="a1_0030"  >
<polygon points="546,90 549,85 546,80 546,90 " style="fill:white; stroke-width:1; stroke:black; " description="&lt;b&gt;NA29_RS08625&lt;/b&gt;&lt;br&gt;BrnA antitoxin family protein&lt;br&gt;Location: 1958760 - 1959101" locus_tag="NA29_RS08625" class="clusterblast-orf" id="dummy-1_h1_8_30"  />
</g>
<g id="a1_0031"  >
<polygon points="551,90 554,85 551,80 551,90 " style="fill:white; stroke-width:1; stroke:black; " description="&lt;b&gt;NA29_RS08630&lt;/b&gt;&lt;br&gt;hypothetical protein&lt;br&gt;Location: 1959307 - 1959627" locus_tag="NA29_RS08630" class="clusterblast-orf" id="dummy-1_h1_8_31"  />
</g>
<g id="a1_0032"  >
<polygon points="555,85 560,80 560,80 560,90 560,90 555,85 " style="fill:white; stroke-width:1; stroke:black; " description="&lt;b&gt;NA29_RS08635&lt;/b&gt;&lt;br&gt;GNAT family N-acetyltransferase&lt;br&gt;Location: 1959671 - 1960258" locus_tag="NA29_RS08635" class="clusterblast-orf" id="dummy-1_h1_8_32"  />
</g>
<g id="a1_0033"  >
<polygon points="561,85 566,80 568,80 568,90 566,90 561,85 " style="fill:white; stroke-width:1; stroke:black; " description="&lt;b&gt;NA29_RS08640&lt;/b&gt;&lt;br&gt;Crp/Fnr family transcriptional regulator&lt;br&gt;Location: 1960379 - 1961050" locus_tag="NA29_RS08640" class="clusterblast-orf" id="dummy-1_h1_8_33"  />
</g>
<g id="a1_0034"  >
<polygon points="571,90 586,90 591,85 586,80 571,80 571,90 " style="fill:white; stroke-width:1; stroke:black; " description="&lt;b&gt;NA29_RS08645&lt;/b&gt;&lt;br&gt;AMP-binding protein&lt;br&gt;Location: 1961388 - 1963361" locus_tag="NA29_RS08645" class="clusterblast-orf" id="dummy-1_h1_8_34"  />
</g>
<g id="a1_0035"  >
<polygon points="591,90 594,90 599,85 594,80 591,80 591,90 " style="fill:white; stroke-width:1; stroke:black; " description="&lt;b&gt;NA29_RS08650&lt;/b&gt;&lt;br&gt;ABC transporter ATP-binding protein&lt;br&gt;Location: 1963452 - 1964258" locus_tag="NA29_RS08650" class="clusterblast-orf" id="dummy-1_h1_8_35"  />
</g>
<g id="a1_0036"  >
<polygon points="600,90 604,90 609,85 604,80 600,80 600,90 " style="fill:white; stroke-width:1; stroke:black; " description="&lt;b&gt;NA29_RS08655&lt;/b&gt;&lt;br&gt;branched-chain amino acid ABC transporter permease&lt;br&gt;Location: 1964339 - 1965253" locus_tag="NA29_RS08655" class="clusterblast-orf" id="dummy-1_h1_8_36"  />
</g>
<g id="a1_0037"  >
<polygon points="610,90 615,90 620,85 615,80 610,80 610,90 " style="fill:white; stroke-width:1; stroke:black; " description="&lt;b&gt;NA29_RS08660&lt;/b&gt;&lt;br&gt;branched-chain amino acid ABC transporter permease&lt;br&gt;Location: 1965330 - 1966406" locus_tag="NA29_RS08660" class="clusterblast-orf" id="dummy-1_h1_8_37"  />
</g>
<g id="a1_0038"  >
<polygon points="621,90 629,90 634,85 629,80 621,80 621,90 " style="fill:white; stroke-width:1; stroke:black; " description="&lt;b&gt;NA29_RS08665&lt;/b&gt;&lt;br&gt;ABC transporter substrate-binding protein&lt;br&gt;Location: 1966477 - 1967811" locus_tag="NA29_RS08665" class="clusterblast-orf" id="dummy-1_h1_8_38"  />
</g>
<g id="a1_0039"  >
<polygon points="635,90 638,90 643,85 638,80 635,80 635,90 " style="fill:white; stroke-width:1; stroke:black; " description="&lt;b&gt;NA29_RS08670&lt;/b&gt;&lt;br&gt;ABC transporter ATP-binding protein&lt;br&gt;Location: 1967884 - 1968696" locus_tag="NA29_RS08670" class="clusterblast-orf" id="dummy-1_h1_8_39"  />
</g>
<g id="a1_0040"  >
<polygon points="644,90 651,90 656,85 651,80 644,80 644,90 " style="fill:white; stroke-width:1; stroke:black; " description="&lt;b&gt;NA29_RS08675&lt;/b&gt;&lt;br&gt;AMP-binding protein&lt;br&gt;Location: 1968791 - 1970029" locus_tag="NA29_RS08675" class="clusterblast-orf" id="dummy-1_h1_8_40"  />
</g>
<g id="a1_0041"  >
<polygon points="657,85 662,80 664,80 664,90 662,90 657,85 " style="fill:white; stroke-width:1; stroke:black; " description="&lt;b&gt;NA29_RS08680&lt;/b&gt;&lt;br&gt;MFS transporter&lt;br&gt;Location: 1970109 - 1970906" locus_tag="NA29_RS08680" class="clusterblast-orf" id="dummy-1_h1_8_41"  />
</g>
<g id="a1_0042"  >
<polygon points="664,90 666,90 671,85 666,80 664,80 664,90 " style="fill:white; stroke-width:1; stroke:black; " description="&lt;b&gt;NA29_RS08685&lt;/b&gt;&lt;br&gt;TetR family transcriptional regulator&lt;br&gt;Location: 1970881 - 1971564" locus_tag="NA29_RS08685" class="clusterblast-orf" id="dummy-1_h1_8_42"  />
</g>
<g id="a1_0043"  >
<polygon points="672,85 677,80 678,80 678,90 677,90 672,85 " style="fill:white; stroke-width:1; stroke:black; " description="&lt;b&gt;NA29_RS08690&lt;/b&gt;&lt;br&gt;3'-5' exonuclease&lt;br&gt;Location: 1971729 - 1972349" locus_tag="NA29_RS08690" class="clusterblast-orf" id="dummy-1_h1_8_43"  />
</g>
<g id="a1_0044"  >
<polygon points="680,85 685,80 706,80 706,90 685,90 680,85 " style="fill:white; stroke-width:1; stroke:black; " description="&lt;b&gt;NA29_RS08695&lt;/b&gt;&lt;br&gt;bifunctional aconitate hydratase 2/2-methylisocitrate dehydratase&lt;br&gt;Location: 1972562 - 1975147" locus_tag="NA29_RS08695" class="clusterblast-orf" id="dummy-1_h1_8_44"  />
</g>
<g id="a1_0045"  >
<polygon points="708,85 713,80 716,80 716,90 713,90 708,85 " style="fill:white; stroke-width:1; stroke:black; " description="&lt;b&gt;NA29_RS08700&lt;/b&gt;&lt;br&gt;helix-turn-helix transcriptional regulator&lt;br&gt;Location: 1975393 - 1976178" locus_tag="NA29_RS08700" class="clusterblast-orf" id="dummy-1_h1_8_45"  />
</g>
<g id="a1_0046"  >
<polygon points="718,85 723,80 730,80 730,90 723,90 718,85 " style="fill:white; stroke-width:1; stroke:black; " description="&lt;b&gt;NA29_RS08705&lt;/b&gt;&lt;br&gt;MFS transporter&lt;br&gt;Location: 1976358 - 1977655" locus_tag="NA29_RS08705" class="clusterblast-orf" id="dummy-1_h1_8_46"  />
</g>
<g id="a1_0047"  >
<polygon points="733,90 746,90 751,85 746,80 733,80 733,90 " style="fill:white; stroke-width:1; stroke:black; " description="&lt;b&gt;NA29_RS08710&lt;/b&gt;&lt;br&gt;FAD-binding protein&lt;br&gt;Location: 1977934 - 1979751" locus_tag="NA29_RS08710" class="clusterblast-orf" id="dummy-1_h1_8_47"  />
</g>
<g id="a1_0048"  >
<polygon points="751,90 756,90 761,85 756,80 751,80 751,90 " style="fill:white; stroke-width:1; stroke:black; " description="&lt;b&gt;NA29_RS08715&lt;/b&gt;&lt;br&gt;4Fe-4S dicluster domain-containing protein&lt;br&gt;Location: 1979828 - 1980793" locus_tag="NA29_RS08715" class="clusterblast-orf" id="dummy-1_h1_8_48"  />
</g>
<g id="a1_0049"  >
<polygon points="761,90 765,90 770,85 765,80 761,80 761,90 " style="fill:white; stroke-width:1; stroke:black; " description="&lt;b&gt;NA29_RS08720&lt;/b&gt;&lt;br&gt;CoB--CoM heterodisulfide reductase iron-sulfur subunit B family protein&lt;br&gt;Location: 1980818 - 1981696" locus_tag="NA29_RS08720" class="clusterblast-orf" id="dummy-1_h1_8_49"  />
</g>
<g id="a1_0050"  >
<polygon points="770,85 775,80 780,80 780,90 775,90 770,85 " style="fill:white; stroke-width:1; stroke:black; " description="&lt;b&gt;NA29_RS08725&lt;/b&gt;&lt;br&gt;response regulator transcription factor&lt;br&gt;Location: 1981732 - 1982694" locus_tag="NA29_RS08725" class="clusterblast-orf" id="dummy-1_h1_8_50"  />
</g>
</svg>
