<svg xmlns="http://www.w3.org/2000/svg" xmlns:xlink="http://www.w3.org/1999/xlink" version="1.1" x="0" y="0" height="230" width="800" viewBox="0 0 800 230" preserveAspectRatio="none"  >
<g label="Query sequence" class="clusterblast-cluster"  >
<text x="5" y="20" class="clusterblast-acc"  >
Query sequence</text>
<line x1="10" y1="35" x2="778.0" y2="35" style="stroke-width:1; stroke:grey; "  />
<polygon points="272,40 274,40 279,35 274,30 272,30 272,40 " style="fill:#d81515; stroke-width:1; stroke:black; " description="&lt;b&gt;EOMLKCNM_03262&lt;/b&gt;&lt;br&gt;Petrobactin import system permease protein YclN&lt;br&gt;Location: 22 - 475" locus_tag="EOMLKCNM_03262" class="clusterblast-orf" id="dummy-1_q0_0_all"  />
<polygon points="279,40 288,40 293,35 288,30 279,30 279,40 " style="fill:#15d815; stroke-width:1; stroke:black; " description="&lt;b&gt;EOMLKCNM_03263&lt;/b&gt;&lt;br&gt;Petrobactin import system permease protein YclO&lt;br&gt;Location: 488 - 1433" locus_tag="EOMLKCNM_03263" class="clusterblast-orf" id="dummy-1_q1_0_all"  />
<polygon points="293,40 299,40 304,35 299,30 293,30 293,40 " style="fill:#1597d8; stroke-width:1; stroke:black; " description="&lt;b&gt;EOMLKCNM_03264&lt;/b&gt;&lt;br&gt;Petrobactin import ATP-binding protein YclP&lt;br&gt;Location: 1429 - 2182" locus_tag="EOMLKCNM_03264" class="clusterblast-orf" id="dummy-1_q2_0_all"  />
<polygon points="305,40 320,40 325,35 320,30 305,30 305,40 " style="fill:white; stroke-width:1; stroke:black; " description="&lt;b&gt;EOMLKCNM_03265&lt;/b&gt;&lt;br&gt;Demethylphylloquinone reductase NdbB&lt;br&gt;Location: 2237 - 3566" locus_tag="EOMLKCNM_03265" class="clusterblast-orf" id="dummy-1_q3_0_all"  />
<polygon points="325,35 330,30 333,30 333,40 330,40 325,35 " style="fill:white; stroke-width:1; stroke:black; " description="&lt;b&gt;EOMLKCNM_03266&lt;/b&gt;&lt;br&gt;hypothetical protein&lt;br&gt;Location: 3570 - 4113" locus_tag="EOMLKCNM_03266" class="clusterblast-orf" id="dummy-1_q4_0_all"  />
<polygon points="340,40 353,40 358,35 353,30 340,30 340,40 " style="fill:#9715d8; stroke-width:1; stroke:black; " description="&lt;b&gt;EOMLKCNM_03267&lt;/b&gt;&lt;br&gt;hypothetical protein&lt;br&gt;Location: 4565 - 5762" locus_tag="EOMLKCNM_03267" class="clusterblast-orf" id="dummy-1_q5_0_all"  />
<polygon points="358,40 384,40 389,35 384,30 358,30 358,40 " style="fill:#d89715; stroke-width:1; stroke:black; " description="&lt;b&gt;EOMLKCNM_03268&lt;/b&gt;&lt;br&gt;Putative tyrosine-protein kinase in cps region&lt;br&gt;Location: 5758 - 7876" locus_tag="EOMLKCNM_03268" class="clusterblast-orf" id="dummy-1_q6_0_all"  />
<polygon points="389,40 402,40 407,35 402,30 389,30 389,40 " style="fill:#15d897; stroke-width:1; stroke:black; " description="&lt;b&gt;EOMLKCNM_03269&lt;/b&gt;&lt;br&gt;D-inositol-3-phosphate glycosyltransferase&lt;br&gt;Location: 7865 - 9035" locus_tag="EOMLKCNM_03269" class="clusterblast-orf" id="dummy-1_q7_0_all"  />
<polygon points="406,35 411,30 433,30 433,40 411,40 406,35 " style="fill:#1515d8; stroke-width:1; stroke:black; " description="&lt;b&gt;EOMLKCNM_03270&lt;/b&gt;&lt;br&gt;Cocaine esterase&lt;br&gt;Location: 8980 - 10786" locus_tag="EOMLKCNM_03270" class="clusterblast-orf" id="dummy-1_q8_0_all"  />
<polygon points="433,35 438,30 475,30 475,40 438,40 433,35 " style="fill:#d81597; stroke-width:1; stroke:black; " description="&lt;b&gt;EOMLKCNM_03271&lt;/b&gt;&lt;br&gt;hypothetical protein&lt;br&gt;Location: 10820 - 13583" locus_tag="EOMLKCNM_03271" class="clusterblast-orf" id="dummy-1_q9_0_all"  />
<polygon points="475,35 480,30 507,30 507,40 480,40 475,35 " style="fill:#97d815; stroke-width:1; stroke:black; " description="&lt;b&gt;EOMLKCNM_03272&lt;/b&gt;&lt;br&gt;Polyketide synthase PksJ&lt;br&gt;Location: 13579 - 15754" locus_tag="EOMLKCNM_03272" class="clusterblast-orf" id="dummy-1_q10_0_all"  />
</g>
<g label="NZ_VNKR01000088" description="NZ_VNKR01000088 (260711-313238): Pseudoruegeria sp. M32A2M Ps Sc 9, whole gen... (11% of genes show similarity), NRPS,T1PKS" class="clusterblast-cluster"  >
<text x="5" y="70" class="clusterblast-acc"  >
<a xlink:href="https://antismash-db.secondarymetabolites.org/area.html?record=NZ_VNKR01000088&amp;start=260711&amp;end=313238" target="_blank">NZ_VNKR01000088 (260711-313238)</a>: Pseudoruegeria sp. M32A2M Ps Sc 9, whole gen... (11% of genes show similarity), NRPS,T1PKS</text>
<line x1="10" y1="85" x2="778.0" y2="85" style="stroke-width:1; stroke:grey; "  />
</g>
<g id="a1_000"  >
<polygon points="0,85 5,80 8,80 8,90 5,90 0,85 " style="fill:white; stroke-width:1; stroke:black; " description="&lt;b&gt;FPS10_RS21990&lt;/b&gt;&lt;br&gt;biotin transporter BioY&lt;br&gt;Location: 260916 - 261467" locus_tag="FPS10_RS21990" class="clusterblast-orf" id="dummy-1_h1_5_0"  />
</g>
<g id="a1_001"  >
<polygon points="8,85 13,80 17,80 17,90 13,90 8,85 " style="fill:white; stroke-width:1; stroke:black; " description="&lt;b&gt;FPS10_RS21995&lt;/b&gt;&lt;br&gt;energy-coupling factor transporter transmembrane protein EcfT&lt;br&gt;Location: 261468 - 262097" locus_tag="FPS10_RS21995" class="clusterblast-orf" id="dummy-1_h1_5_1"  />
</g>
<g id="a1_002"  >
<polygon points="17,85 22,80 28,80 28,90 22,90 17,85 " style="fill:white; stroke-width:1; stroke:black; " description="&lt;b&gt;FPS10_RS22000&lt;/b&gt;&lt;br&gt;ABC transporter ATP-binding protein&lt;br&gt;Location: 262072 - 262818" locus_tag="FPS10_RS22000" class="clusterblast-orf" id="dummy-1_h1_5_2"  />
</g>
<g id="a1_003"  >
<polygon points="34,85 39,80 54,80 54,90 39,90 34,85 " style="fill:white; stroke-width:1; stroke:black; " description="&lt;b&gt;FPS10_RS22005&lt;/b&gt;&lt;br&gt;L,D-transpeptidase family protein&lt;br&gt;Location: 263253 - 264563" locus_tag="FPS10_RS22005" class="clusterblast-orf" id="dummy-1_h1_5_3"  />
</g>
<g id="a1_004"  >
<polygon points="59,85 64,80 77,80 77,90 64,90 59,85 " style="fill:white; stroke-width:1; stroke:black; " description="&lt;b&gt;FPS10_RS22010&lt;/b&gt;&lt;br&gt;acetate/propionate family kinase&lt;br&gt;Location: 264923 - 266074" locus_tag="FPS10_RS22010" class="clusterblast-orf" id="dummy-1_h1_5_4"  />
</g>
<g id="a1_005"  >
<polygon points="82,85 87,80 99,80 99,90 87,90 82,85 " style="fill:white; stroke-width:1; stroke:black; " description="&lt;b&gt;FPS10_RS22015&lt;/b&gt;&lt;br&gt;NAD(P)-dependent glycerol-3-phosphate dehydrogenase&lt;br&gt;Location: 266453 - 267565" locus_tag="FPS10_RS22015" class="clusterblast-orf" id="dummy-1_h1_5_5"  />
</g>
<g id="a1_006"  >
<polygon points="102,90 112,90 117,85 112,80 102,80 102,90 " style="fill:white; stroke-width:1; stroke:black; " description="&lt;b&gt;FPS10_RS22020&lt;/b&gt;&lt;br&gt;YihY/virulence factor BrkB family protein&lt;br&gt;Location: 267765 - 268742" locus_tag="FPS10_RS22020" class="clusterblast-orf" id="dummy-1_h1_5_6"  />
</g>
<g id="a1_007"  >
<polygon points="118,90 132,90 137,85 132,80 118,80 118,90 " style="fill:white; stroke-width:1; stroke:black; " description="&lt;b&gt;FPS10_RS22025&lt;/b&gt;&lt;br&gt;hypothetical protein&lt;br&gt;Location: 268820 - 270124" locus_tag="FPS10_RS22025" class="clusterblast-orf" id="dummy-1_h1_5_7"  />
</g>
<g id="a1_008"  >
<polygon points="137,85 142,80 143,80 143,90 142,90 137,85 " style="fill:white; stroke-width:1; stroke:black; " description="&lt;b&gt;FPS10_RS22030&lt;/b&gt;&lt;br&gt;VOC family protein&lt;br&gt;Location: 270100 - 270513" locus_tag="FPS10_RS22030" class="clusterblast-orf" id="dummy-1_h1_5_8"  />
</g>
<g id="a1_009"  >
<polygon points="145,90 156,90 161,85 156,80 145,80 145,90 " style="fill:white; stroke-width:1; stroke:black; " description="&lt;b&gt;FPS10_RS22035&lt;/b&gt;&lt;br&gt;redox-regulated ATPase YchF&lt;br&gt;Location: 270654 - 271751" locus_tag="FPS10_RS22035" class="clusterblast-orf" id="dummy-1_h1_5_9"  />
</g>
<g id="a1_0010"  >
<polygon points="162,85 167,80 180,80 180,90 167,90 162,85 " style="fill:white; stroke-width:1; stroke:black; " description="&lt;b&gt;FPS10_RS22040&lt;/b&gt;&lt;br&gt;glycosyltransferase&lt;br&gt;Location: 271758 - 272984" locus_tag="FPS10_RS22040" class="clusterblast-orf" id="dummy-1_h1_5_10"  />
</g>
<g id="a1_0011"  >
<polygon points="181,85 186,80 205,80 205,90 186,90 181,85 " style="fill:white; stroke-width:1; stroke:black; " description="&lt;b&gt;FPS10_RS22045&lt;/b&gt;&lt;br&gt;hypothetical protein&lt;br&gt;Location: 273073 - 274692" locus_tag="FPS10_RS22045" class="clusterblast-orf" id="dummy-1_h1_5_11"  />
</g>
<g id="a1_0012"  >
<polygon points="209,90 225,90 230,85 225,80 209,80 209,90 " style="fill:white; stroke-width:1; stroke:black; " description="&lt;b&gt;FPS10_RS22050&lt;/b&gt;&lt;br&gt;hypothetical protein&lt;br&gt;Location: 274898 - 276301" locus_tag="FPS10_RS22050" class="clusterblast-orf" id="dummy-1_h1_5_12"  />
</g>
<g id="a1_0013"  >
<polygon points="234,90 262,90 267,85 262,80 234,80 234,90 " style="fill:#d89715; stroke-width:1; stroke:black; " description="&lt;b&gt;FPS10_RS22055&lt;/b&gt;&lt;br&gt;AAA family ATPase&lt;br&gt;Location: 276630 - 278792&lt;br&gt;&lt;br&gt;&lt;b&gt;BlastP hit with EOMLKCNM_03268&lt;/b&gt;&lt;br&gt;Percentage identity: 31&lt;br&gt;Percentage coverage: 99&lt;br&gt;BLAST bit score: 314&lt;br&gt;E-value: 9.68e-95" locus_tag="FPS10_RS22055" class="clusterblast-orf" id="dummy-1_h1_5_13"  />
</g>
<g id="a1_0014"  >
<polygon points="268,90 279,90 284,85 279,80 268,80 268,90 " style="fill:#15d897; stroke-width:1; stroke:black; " description="&lt;b&gt;FPS10_RS22060&lt;/b&gt;&lt;br&gt;glycosyltransferase&lt;br&gt;Location: 278848 - 279966&lt;br&gt;&lt;br&gt;&lt;b&gt;BlastP hit with EOMLKCNM_03269&lt;/b&gt;&lt;br&gt;Percentage identity: 52&lt;br&gt;Percentage coverage: 91&lt;br&gt;BLAST bit score: 359&lt;br&gt;E-value: 7.86e-121" locus_tag="FPS10_RS22060" class="clusterblast-orf" id="dummy-1_h1_5_14"  />
</g>
<g id="a1_0015"  >
<polygon points="285,90 290,90 295,85 290,80 285,80 285,90 " style="fill:white; stroke-width:1; stroke:black; " description="&lt;b&gt;FPS10_RS22065&lt;/b&gt;&lt;br&gt;4'-phosphopantetheinyl transferase superfamily protein&lt;br&gt;Location: 280011 - 280688" locus_tag="FPS10_RS22065" class="clusterblast-orf" id="dummy-1_h1_5_15"  />
</g>
<g id="a1_0016"  >
<polygon points="295,85 300,80 337,80 337,90 300,90 295,85 " style="fill:#d81597; stroke-width:1; stroke:black; " description="&lt;b&gt;FPS10_RS22070&lt;/b&gt;&lt;br&gt;hypothetical protein&lt;br&gt;Location: 280712 - 283489&lt;br&gt;&lt;br&gt;&lt;b&gt;BlastP hit with EOMLKCNM_03271&lt;/b&gt;&lt;br&gt;Percentage identity: 49&lt;br&gt;Percentage coverage: 100&lt;br&gt;BLAST bit score: 831&lt;br&gt;E-value: 8.87e-290" locus_tag="FPS10_RS22070" class="clusterblast-orf" id="dummy-1_h1_5_16"  />
</g>
<g id="a1_0017"  >
<polygon points="337,85 342,80 483,80 483,90 342,90 337,85 " style="fill:#97d815; stroke-width:1; stroke:black; " description="&lt;b&gt;FPS10_RS22075&lt;/b&gt;&lt;br&gt;hybrid non-ribosomal peptide synthetase/type I polyketide synthase&lt;br&gt;Location: 283495 - 293238&lt;br&gt;&lt;br&gt;&lt;b&gt;BlastP hit with EOMLKCNM_03272&lt;/b&gt;&lt;br&gt;Percentage identity: 56&lt;br&gt;Percentage coverage: 100&lt;br&gt;BLAST bit score: 709&lt;br&gt;E-value: 6.65e-227" locus_tag="FPS10_RS22075" class="clusterblast-orf" id="dummy-1_h1_5_17"  />
</g>
<g id="a1_0018"  >
<polygon points="489,85 494,80 501,80 501,90 494,90 489,85 " style="fill:white; stroke-width:1; stroke:black; " description="&lt;b&gt;FPS10_RS22080&lt;/b&gt;&lt;br&gt;methyltransferase, TIGR04325 family&lt;br&gt;Location: 293641 - 294444" locus_tag="FPS10_RS22080" class="clusterblast-orf" id="dummy-1_h1_5_18"  />
</g>
<g id="a1_0019"  >
<polygon points="501,85 506,80 523,80 523,90 506,90 501,85 " style="fill:white; stroke-width:1; stroke:black; " description="&lt;b&gt;FPS10_RS22085&lt;/b&gt;&lt;br&gt;oligosaccharide flippase family protein&lt;br&gt;Location: 294450 - 295955" locus_tag="FPS10_RS22085" class="clusterblast-orf" id="dummy-1_h1_5_19"  />
</g>
<g id="a1_0020"  >
<polygon points="527,90 533,90 538,85 533,80 527,80 527,90 " style="fill:white; stroke-width:1; stroke:black; " description="&lt;b&gt;FPS10_RS22090&lt;/b&gt;&lt;br&gt;sugar transferase&lt;br&gt;Location: 296195 - 296908" locus_tag="FPS10_RS22090" class="clusterblast-orf" id="dummy-1_h1_5_20"  />
</g>
<g id="a1_0021"  >
<polygon points="541,90 550,90 555,85 550,80 541,80 541,90 " style="fill:white; stroke-width:1; stroke:black; " description="&lt;b&gt;FPS10_RS22095&lt;/b&gt;&lt;br&gt;glycosyltransferase family 2 protein&lt;br&gt;Location: 297145 - 298089" locus_tag="FPS10_RS22095" class="clusterblast-orf" id="dummy-1_h1_5_21"  />
</g>
<g id="a1_0022"  >
<polygon points="556,85 561,80 567,80 567,90 561,90 556,85 " style="fill:white; stroke-width:1; stroke:black; " description="&lt;b&gt;FPS10_RS22100&lt;/b&gt;&lt;br&gt;crotonobetainyl-CoA hydratase&lt;br&gt;Location: 298114 - 298899" locus_tag="FPS10_RS22100" class="clusterblast-orf" id="dummy-1_h1_5_22"  />
</g>
<g id="a1_0023"  >
<polygon points="567,85 572,80 597,80 597,90 572,90 567,85 " style="fill:white; stroke-width:1; stroke:black; " description="&lt;b&gt;FPS10_RS22105&lt;/b&gt;&lt;br&gt;acetate--CoA ligase family protein&lt;br&gt;Location: 298896 - 300875" locus_tag="FPS10_RS22105" class="clusterblast-orf" id="dummy-1_h1_5_23"  />
</g>
<g id="a1_0024"  >
<polygon points="598,85 603,80 615,80 615,90 603,90 598,85 " style="fill:white; stroke-width:1; stroke:black; " description="&lt;b&gt;FPS10_RS22110&lt;/b&gt;&lt;br&gt;acyl-CoA dehydrogenase family protein&lt;br&gt;Location: 300940 - 302100" locus_tag="FPS10_RS22110" class="clusterblast-orf" id="dummy-1_h1_5_24"  />
</g>
<g id="a1_0025"  >
<polygon points="617,85 622,80 631,80 631,90 622,90 617,85 " style="fill:white; stroke-width:1; stroke:black; " description="&lt;b&gt;FPS10_RS22115&lt;/b&gt;&lt;br&gt;NAD(P)-dependent oxidoreductase&lt;br&gt;Location: 302236 - 303120" locus_tag="FPS10_RS22115" class="clusterblast-orf" id="dummy-1_h1_5_25"  />
</g>
<g id="a1_0026"  >
<polygon points="630,85 635,80 643,80 643,90 635,90 630,85 " style="fill:white; stroke-width:1; stroke:black; " description="&lt;b&gt;FPS10_RS22120&lt;/b&gt;&lt;br&gt;glycosyl transferase&lt;br&gt;Location: 303117 - 303959" locus_tag="FPS10_RS22120" class="clusterblast-orf" id="dummy-1_h1_5_26"  />
</g>
<g id="a1_0027"  >
<polygon points="643,85 648,80 661,80 661,90 648,90 643,85 " style="fill:white; stroke-width:1; stroke:black; " description="&lt;b&gt;FPS10_RS22125&lt;/b&gt;&lt;br&gt;NAD-dependent epimerase/dehydratase family protein&lt;br&gt;Location: 303961 - 305178" locus_tag="FPS10_RS22125" class="clusterblast-orf" id="dummy-1_h1_5_27"  />
</g>
<g id="a1_0028"  >
<polygon points="666,90 668,90 673,85 668,80 666,80 666,90 " style="fill:white; stroke-width:1; stroke:black; " description="&lt;b&gt;FPS10_RS22130&lt;/b&gt;&lt;br&gt;hypothetical protein&lt;br&gt;Location: 305463 - 305984" locus_tag="FPS10_RS22130" class="clusterblast-orf" id="dummy-1_h1_5_28"  />
</g>
<g id="a1_0029"  >
<polygon points="674,85 679,80 682,80 682,90 679,90 674,85 " style="fill:white; stroke-width:1; stroke:black; " description="&lt;b&gt;FPS10_RS22135&lt;/b&gt;&lt;br&gt;hypothetical protein&lt;br&gt;Location: 305997 - 306560" locus_tag="FPS10_RS22135" class="clusterblast-orf" id="dummy-1_h1_5_29"  />
</g>
<g id="a1_0030"  >
<polygon points="685,85 690,80 697,80 697,90 690,90 685,85 " style="fill:white; stroke-width:1; stroke:black; " description="&lt;b&gt;FPS10_RS22140&lt;/b&gt;&lt;br&gt;hypothetical protein&lt;br&gt;Location: 306775 - 307572" locus_tag="FPS10_RS22140" class="clusterblast-orf" id="dummy-1_h1_5_30"  />
</g>
<g id="a1_0031"  >
<polygon points="699,85 704,80 721,80 721,90 704,90 699,85 " style="fill:white; stroke-width:1; stroke:black; " description="&lt;b&gt;FPS10_RS22145&lt;/b&gt;&lt;br&gt;caspase family protein&lt;br&gt;Location: 307692 - 309191" locus_tag="FPS10_RS22145" class="clusterblast-orf" id="dummy-1_h1_5_31"  />
</g>
<g id="a1_0032"  >
<polygon points="722,85 727,80 735,80 735,90 727,90 722,85 " style="fill:white; stroke-width:1; stroke:black; " description="&lt;b&gt;FPS10_RS22150&lt;/b&gt;&lt;br&gt;M15 family metallopeptidase&lt;br&gt;Location: 309225 - 310112" locus_tag="FPS10_RS22150" class="clusterblast-orf" id="dummy-1_h1_5_32"  />
</g>
<g id="a1_0033"  >
<polygon points="738,90 741,90 746,85 741,80 738,80 738,90 " style="fill:white; stroke-width:1; stroke:black; " description="&lt;b&gt;FPS10_RS22155&lt;/b&gt;&lt;br&gt;OmpA family protein&lt;br&gt;Location: 310277 - 310846" locus_tag="FPS10_RS22155" class="clusterblast-orf" id="dummy-1_h1_5_33"  />
</g>
<g id="a1_0034"  >
<polygon points="747,90 775,90 780,85 775,80 747,80 747,90 " style="fill:white; stroke-width:1; stroke:black; " description="&lt;b&gt;FPS10_RS22160&lt;/b&gt;&lt;br&gt;protein kinase&lt;br&gt;Location: 310896 - 313085" locus_tag="FPS10_RS22160" class="clusterblast-orf" id="dummy-1_h1_5_34"  />
</g>
</svg>
