<svg xmlns="http://www.w3.org/2000/svg" xmlns:xlink="http://www.w3.org/1999/xlink" version="1.1" x="0" y="0" height="230" width="800" viewBox="0 0 800 230" preserveAspectRatio="none"  >
<g label="Query sequence" class="clusterblast-cluster"  >
<text x="5" y="20" class="clusterblast-acc"  >
Query sequence</text>
<line x1="10" y1="35" x2="778.0" y2="35" style="stroke-width:1; stroke:grey; "  />
<polygon points="197,35 202,30 214,30 214,40 202,40 197,35 " style="fill:#d81515; stroke-width:1; stroke:black; " description="&lt;b&gt;EOMLKCNM_02754&lt;/b&gt;&lt;br&gt;hypothetical protein&lt;br&gt;Location: 409 - 883" locus_tag="EOMLKCNM_02754" class="clusterblast-orf" id="dummy-1_q0_0_all"  />
<polygon points="214,35 219,30 224,30 224,40 219,40 214,35 " style="fill:#15d815; stroke-width:1; stroke:black; " description="&lt;b&gt;EOMLKCNM_02755&lt;/b&gt;&lt;br&gt;hypothetical protein&lt;br&gt;Location: 896 - 1175" locus_tag="EOMLKCNM_02755" class="clusterblast-orf" id="dummy-1_q1_0_all"  />
<polygon points="228,35 233,30 234,30 234,40 233,40 228,35 " style="fill:#1597d8; stroke-width:1; stroke:black; " description="&lt;b&gt;EOMLKCNM_02756&lt;/b&gt;&lt;br&gt;hypothetical protein&lt;br&gt;Location: 1286 - 1439" locus_tag="EOMLKCNM_02756" class="clusterblast-orf" id="dummy-1_q2_0_all"  />
<polygon points="247,40 283,40 288,35 283,30 247,30 247,40 " style="fill:#9715d8; stroke-width:1; stroke:black; " description="&lt;b&gt;EOMLKCNM_02757&lt;/b&gt;&lt;br&gt;hypothetical protein&lt;br&gt;Location: 1799 - 2933" locus_tag="EOMLKCNM_02757" class="clusterblast-orf" id="dummy-1_q3_0_all"  />
<polygon points="288,40 318,40 323,35 318,30 288,30 288,40 " style="fill:#d89715; stroke-width:1; stroke:black; " description="&lt;b&gt;EOMLKCNM_02758&lt;/b&gt;&lt;br&gt;hypothetical protein&lt;br&gt;Location: 2929 - 3901" locus_tag="EOMLKCNM_02758" class="clusterblast-orf" id="dummy-1_q4_0_all"  />
<polygon points="323,35 328,30 366,30 366,40 328,40 323,35 " style="fill:#d89715; stroke-width:1; stroke:black; " description="&lt;b&gt;EOMLKCNM_02759&lt;/b&gt;&lt;br&gt;hypothetical protein&lt;br&gt;Location: 3901 - 5083" locus_tag="EOMLKCNM_02759" class="clusterblast-orf" id="dummy-1_q5_0_all"  />
<polygon points="374,40 397,40 402,35 397,30 374,30 374,40 " style="fill:#15d897; stroke-width:1; stroke:black; " description="&lt;b&gt;EOMLKCNM_02760&lt;/b&gt;&lt;br&gt;Endo-1,3-1,4-beta-glycanase ExoK&lt;br&gt;Location: 5307 - 6081" locus_tag="EOMLKCNM_02760" class="clusterblast-orf" id="dummy-1_q6_0_all"  />
<polygon points="403,40 446,40 451,35 446,30 403,30 403,40 " style="fill:#1515d8; stroke-width:1; stroke:black; " description="&lt;b&gt;EOMLKCNM_02761&lt;/b&gt;&lt;br&gt;hypothetical protein&lt;br&gt;Location: 6095 - 7427" locus_tag="EOMLKCNM_02761" class="clusterblast-orf" id="dummy-1_q7_0_all"  />
<polygon points="453,35 458,30 498,30 498,40 458,40 453,35 " style="fill:#d81597; stroke-width:1; stroke:black; " description="&lt;b&gt;EOMLKCNM_02762&lt;/b&gt;&lt;br&gt;hypothetical protein&lt;br&gt;Location: 7481 - 8717" locus_tag="EOMLKCNM_02762" class="clusterblast-orf" id="dummy-1_q8_0_all"  />
<polygon points="500,35 505,30 526,30 526,40 505,40 500,35 " style="fill:#97d815; stroke-width:1; stroke:black; " description="&lt;b&gt;EOMLKCNM_02763&lt;/b&gt;&lt;br&gt;UDP-glucose:undecaprenyl-phosphate glucose-1-phosphate transferase&lt;br&gt;Location: 8771 - 9485" locus_tag="EOMLKCNM_02763" class="clusterblast-orf" id="dummy-1_q9_0_all"  />
<polygon points="555,40 578,40 583,35 578,30 555,30 555,40 " style="fill:white; stroke-width:1; stroke:black; " description="&lt;b&gt;EOMLKCNM_02764&lt;/b&gt;&lt;br&gt;5'-nucleotidase SurE&lt;br&gt;Location: 10279 - 11065" locus_tag="EOMLKCNM_02764" class="clusterblast-orf" id="dummy-1_q10_0_all"  />
</g>
<g label="NZ_CP030271" description="NZ_CP030271 (1189092-1211442): Rhodobacter sphaeroides 2.4.1 chromosome 1, co... (50% of genes show similarity), lassopeptide" class="clusterblast-cluster"  >
<text x="5" y="70" class="clusterblast-acc"  >
<a xlink:href="https://antismash-db.secondarymetabolites.org/area.html?record=NZ_CP030271&amp;start=1189092&amp;end=1211442" target="_blank">NZ_CP030271 (1189092-1211442)</a>: Rhodobacter sphaeroides 2.4.1 chromosome 1, co... (50% of genes show similarity), lassopeptide</text>
<line x1="10" y1="85" x2="778.0" y2="85" style="stroke-width:1; stroke:grey; "  />
</g>
<g id="a1_000"  >
<polygon points="0,90 29,90 34,85 29,80 0,80 0,90 " style="fill:white; stroke-width:1; stroke:black; " description="&lt;b&gt;DQL45_RS06025&lt;/b&gt;&lt;br&gt;UTP--glucose-1-phosphate uridylyltransferase GalU&lt;br&gt;Location: 1211434 - 1210496" locus_tag="DQL45_RS06025" class="clusterblast-orf" id="dummy-1_h1_3_0"  />
</g>
<g id="a1_001"  >
<polygon points="34,90 72,90 77,85 72,80 34,80 34,90 " style="fill:white; stroke-width:1; stroke:black; " description="&lt;b&gt;DQL45_RS06020&lt;/b&gt;&lt;br&gt;glycosyl transferase&lt;br&gt;Location: 1210474 - 1209305" locus_tag="DQL45_RS06020" class="clusterblast-orf" id="dummy-1_h1_3_1"  />
</g>
<g id="a1_002"  >
<polygon points="77,90 107,90 112,85 107,80 77,80 77,90 " style="fill:white; stroke-width:1; stroke:black; " description="&lt;b&gt;DQL45_RS06015&lt;/b&gt;&lt;br&gt;glycosyltransferase family 2 protein&lt;br&gt;Location: 1209308 - 1208319" locus_tag="DQL45_RS06015" class="clusterblast-orf" id="dummy-1_h1_3_2"  />
</g>
<g id="a1_003"  >
<polygon points="112,90 143,90 148,85 143,80 112,80 112,90 " style="fill:white; stroke-width:1; stroke:black; " description="&lt;b&gt;DQL45_RS06010&lt;/b&gt;&lt;br&gt;glycosyltransferase&lt;br&gt;Location: 1208322 - 1207342" locus_tag="DQL45_RS06010" class="clusterblast-orf" id="dummy-1_h1_3_3"  />
</g>
<g id="a1_004"  >
<polygon points="148,90 229,90 234,85 229,80 148,80 148,90 " style="fill:white; stroke-width:1; stroke:black; " description="&lt;b&gt;DQL45_RS06005&lt;/b&gt;&lt;br&gt;chromosome partitioning protein ParA&lt;br&gt;Location: 1207345 - 1204976" locus_tag="DQL45_RS06005" class="clusterblast-orf" id="dummy-1_h1_3_4"  />
</g>
<g id="a1_005"  >
<polygon points="247,90 252,90 257,85 252,80 247,80 247,90 " style="fill:white; stroke-width:1; stroke:black; " description="&lt;b&gt;DQL45_RS06000&lt;/b&gt;&lt;br&gt;hypothetical protein&lt;br&gt;Location: 1204603 - 1204346" locus_tag="DQL45_RS06000" class="clusterblast-orf" id="dummy-1_h1_3_5"  />
</g>
<g id="a1_006"  >
<polygon points="261,85 266,80 329,80 329,90 266,90 261,85 " style="fill:white; stroke-width:1; stroke:black; " description="&lt;b&gt;DQL45_RS05995&lt;/b&gt;&lt;br&gt;ABC transporter ATP-binding protein&lt;br&gt;Location: 1204212 - 1202356" locus_tag="DQL45_RS05995" class="clusterblast-orf" id="dummy-1_h1_3_6"  />
</g>
<g id="a1_007"  >
<polygon points="329,85 334,80 362,80 362,90 334,90 329,85 " style="fill:white; stroke-width:1; stroke:black; " description="&lt;b&gt;DQL45_RS05990&lt;/b&gt;&lt;br&gt;HPr kinase/phosphatase C-terminal domain-containing protein&lt;br&gt;Location: 1202359 - 1201439" locus_tag="DQL45_RS05990" class="clusterblast-orf" id="dummy-1_h1_3_7"  />
</g>
<g id="a1_008"  >
<polygon points="362,85 367,80 430,80 430,90 367,90 362,85 " style="fill:white; stroke-width:1; stroke:black; " description="&lt;b&gt;DQL45_RS05985&lt;/b&gt;&lt;br&gt;asparagine synthetase B&lt;br&gt;Location: 1201442 - 1199563" locus_tag="DQL45_RS05985" class="clusterblast-orf" id="dummy-1_h1_3_8"  />
</g>
<g id="a1_009"  >
<polygon points="430,85 435,80 447,80 447,90 435,90 430,85 " style="fill:#d81515; stroke-width:1; stroke:black; " description="&lt;b&gt;DQL45_RS05980&lt;/b&gt;&lt;br&gt;lasso peptide biosynthesis B2 protein&lt;br&gt;Location: 1199566 - 1199093&lt;br&gt;&lt;br&gt;&lt;b&gt;BlastP hit with EOMLKCNM_02754&lt;/b&gt;&lt;br&gt;Percentage identity: 56&lt;br&gt;Percentage coverage: 89&lt;br&gt;BLAST bit score: 144&lt;br&gt;E-value: 1.14e-42" locus_tag="DQL45_RS05980" class="clusterblast-orf" id="dummy-1_h1_3_9"  />
</g>
<g id="a1_0010"  >
<polygon points="447,85 452,80 457,80 457,90 452,90 447,85 " style="fill:#15d815; stroke-width:1; stroke:black; " description="&lt;b&gt;DQL45_RS05975&lt;/b&gt;&lt;br&gt;PqqD family protein&lt;br&gt;Location: 1199082 - 1198816&lt;br&gt;&lt;br&gt;&lt;b&gt;BlastP hit with EOMLKCNM_02755&lt;/b&gt;&lt;br&gt;Percentage identity: 56&lt;br&gt;Percentage coverage: 91&lt;br&gt;BLAST bit score: 102&lt;br&gt;E-value: 2.28e-28" locus_tag="DQL45_RS05975" class="clusterblast-orf" id="dummy-1_h1_3_10"  />
</g>
<g id="a1_0011"  >
<polygon points="460,85 465,80 469,80 469,90 465,90 460,85 " style="fill:#1597d8; stroke-width:1; stroke:black; " description="&lt;b&gt;NZ_CP030271_allorf_1198478_1198735&lt;/b&gt;&lt;br&gt;&lt;br&gt;Location: 1198735 - 1198478&lt;br&gt;&lt;br&gt;&lt;b&gt;BlastP hit with EOMLKCNM_02756&lt;/b&gt;&lt;br&gt;Percentage identity: 65&lt;br&gt;Percentage coverage: 96&lt;br&gt;BLAST bit score: 64&lt;br&gt;E-value: 6.41e-14" locus_tag="NZ_CP030271_allorf_1198478_1198735" class="clusterblast-orf" id="dummy-1_h1_3_11"  />
</g>
<g id="a1_0012"  >
<polygon points="478,90 514,90 519,85 514,80 478,80 478,90 " style="fill:#9715d8; stroke-width:1; stroke:black; " description="&lt;b&gt;DQL45_RS05965&lt;/b&gt;&lt;br&gt;nucleotidyltransferase family protein&lt;br&gt;Location: 1198237 - 1197101&lt;br&gt;&lt;br&gt;&lt;b&gt;BlastP hit with EOMLKCNM_02757&lt;/b&gt;&lt;br&gt;Percentage identity: 57&lt;br&gt;Percentage coverage: 95&lt;br&gt;BLAST bit score: 370&lt;br&gt;E-value: 3.61e-125" locus_tag="DQL45_RS05965" class="clusterblast-orf" id="dummy-1_h1_3_12"  />
</g>
<g id="a1_0013"  >
<polygon points="519,90 549,90 554,85 549,80 519,80 519,90 " style="fill:#d89715; stroke-width:1; stroke:black; " description="&lt;b&gt;DQL45_RS05960&lt;/b&gt;&lt;br&gt;glycosyltransferase family 2 protein&lt;br&gt;Location: 1197104 - 1196148&lt;br&gt;&lt;br&gt;&lt;b&gt;BlastP hit with EOMLKCNM_02758&lt;/b&gt;&lt;br&gt;Percentage identity: 67&lt;br&gt;Percentage coverage: 98&lt;br&gt;BLAST bit score: 382&lt;br&gt;E-value: 1.26e-131&lt;br&gt;&lt;br&gt;&lt;b&gt;BlastP hit with EOMLKCNM_02759&lt;/b&gt;&lt;br&gt;Percentage identity: 34&lt;br&gt;Percentage coverage: 78&lt;br&gt;BLAST bit score: 107&lt;br&gt;E-value: 2.66e-24" locus_tag="DQL45_RS05960" class="clusterblast-orf" id="dummy-1_h1_3_13"  />
</g>
<g id="a1_0014"  >
<polygon points="554,85 559,80 606,80 606,90 559,90 554,85 " style="fill:#d89715; stroke-width:1; stroke:black; " description="&lt;b&gt;DQL45_RS05955&lt;/b&gt;&lt;br&gt;glycosyltransferase family 2 protein&lt;br&gt;Location: 1196132 - 1194702&lt;br&gt;&lt;br&gt;&lt;b&gt;BlastP hit with EOMLKCNM_02758&lt;/b&gt;&lt;br&gt;Percentage identity: 39&lt;br&gt;Percentage coverage: 76&lt;br&gt;BLAST bit score: 121&lt;br&gt;E-value: 4.4e-29&lt;br&gt;&lt;br&gt;&lt;b&gt;BlastP hit with EOMLKCNM_02759&lt;/b&gt;&lt;br&gt;Percentage identity: 69&lt;br&gt;Percentage coverage: 102&lt;br&gt;BLAST bit score: 482&lt;br&gt;E-value: 1.4e-167" locus_tag="DQL45_RS05955" class="clusterblast-orf" id="dummy-1_h1_3_14"  />
</g>
<g id="a1_0015"  >
<polygon points="614,90 637,90 642,85 637,80 614,80 614,90 " style="fill:#15d897; stroke-width:1; stroke:black; " description="&lt;b&gt;DQL45_RS05950&lt;/b&gt;&lt;br&gt;family 16 glycosylhydrolase&lt;br&gt;Location: 1194496 - 1193714&lt;br&gt;&lt;br&gt;&lt;b&gt;BlastP hit with EOMLKCNM_02760&lt;/b&gt;&lt;br&gt;Percentage identity: 68&lt;br&gt;Percentage coverage: 95&lt;br&gt;BLAST bit score: 365&lt;br&gt;E-value: 4.59e-127" locus_tag="DQL45_RS05950" class="clusterblast-orf" id="dummy-1_h1_3_15"  />
</g>
<g id="a1_0016"  >
<polygon points="643,90 684,90 689,85 684,80 643,80 643,90 " style="fill:#1515d8; stroke-width:1; stroke:black; " description="&lt;b&gt;DQL45_RS05945&lt;/b&gt;&lt;br&gt;O-antigen ligase family protein&lt;br&gt;Location: 1193697 - 1192408&lt;br&gt;&lt;br&gt;&lt;b&gt;BlastP hit with EOMLKCNM_02761&lt;/b&gt;&lt;br&gt;Percentage identity: 58&lt;br&gt;Percentage coverage: 87&lt;br&gt;BLAST bit score: 423&lt;br&gt;E-value: 2.75e-144" locus_tag="DQL45_RS05945" class="clusterblast-orf" id="dummy-1_h1_3_16"  />
</g>
<g id="a1_0017"  >
<polygon points="696,85 701,80 740,80 740,90 701,90 696,85 " style="fill:#d81597; stroke-width:1; stroke:black; " description="&lt;b&gt;DQL45_RS05940&lt;/b&gt;&lt;br&gt;polysaccharide biosynthesis/export family protein&lt;br&gt;Location: 1192232 - 1191000&lt;br&gt;&lt;br&gt;&lt;b&gt;BlastP hit with EOMLKCNM_02762&lt;/b&gt;&lt;br&gt;Percentage identity: 63&lt;br&gt;Percentage coverage: 100&lt;br&gt;BLAST bit score: 499&lt;br&gt;E-value: 8.32e-175" locus_tag="DQL45_RS05940" class="clusterblast-orf" id="dummy-1_h1_3_17"  />
</g>
<g id="a1_0018"  >
<polygon points="743,85 748,80 765,80 765,90 748,90 743,85 " style="fill:#97d815; stroke-width:1; stroke:black; " description="&lt;b&gt;DQL45_RS05935&lt;/b&gt;&lt;br&gt;sugar transferase&lt;br&gt;Location: 1190928 - 1190317&lt;br&gt;&lt;br&gt;&lt;b&gt;BlastP hit with EOMLKCNM_02763&lt;/b&gt;&lt;br&gt;Percentage identity: 84&lt;br&gt;Percentage coverage: 85&lt;br&gt;BLAST bit score: 347&lt;br&gt;E-value: 4.03e-121" locus_tag="DQL45_RS05935" class="clusterblast-orf" id="dummy-1_h1_3_18"  />
</g>
<g id="a1_0019"  >
<polygon points="769,90 775,90 780,85 775,80 769,80 769,90 " style="fill:white; stroke-width:1; stroke:black; " description="&lt;b&gt;DQL45_RS22925&lt;/b&gt;&lt;br&gt;hypothetical protein&lt;br&gt;Location: 1190216 - 1189923" locus_tag="DQL45_RS22925" class="clusterblast-orf" id="dummy-1_h1_3_19"  />
</g>
</svg>
