<svg xmlns="http://www.w3.org/2000/svg" xmlns:xlink="http://www.w3.org/1999/xlink" version="1.1" x="0" y="0" height="230" width="800" viewBox="0 0 800 230" preserveAspectRatio="none"  >
<g label="Query sequence" class="clusterblast-cluster"  >
<text x="5" y="20" class="clusterblast-acc"  >
Query sequence</text>
<line x1="10" y1="35" x2="778.0" y2="35" style="stroke-width:1; stroke:grey; "  />
<polygon points="335,35 340,30 348,30 348,40 340,40 335,35 " style="fill:white; stroke-width:1; stroke:black; " description="&lt;b&gt;EOMLKCNM_04436&lt;/b&gt;&lt;br&gt;hypothetical protein&lt;br&gt;Location: 127 - 451" locus_tag="EOMLKCNM_04436" class="clusterblast-orf" id="dummy-1_q0_0_all"  />
<polygon points="363,35 368,30 389,30 389,40 368,40 363,35 " style="fill:#d81515; stroke-width:1; stroke:black; " description="&lt;b&gt;EOMLKCNM_04437&lt;/b&gt;&lt;br&gt;hypothetical protein&lt;br&gt;Location: 847 - 1525" locus_tag="EOMLKCNM_04437" class="clusterblast-orf" id="dummy-1_q1_0_all"  />
<polygon points="392,40 412,40 417,35 412,30 392,30 392,40 " style="fill:#15d8d8; stroke-width:1; stroke:black; " description="&lt;b&gt;EOMLKCNM_04438&lt;/b&gt;&lt;br&gt;hypothetical protein&lt;br&gt;Location: 1602 - 2259" locus_tag="EOMLKCNM_04438" class="clusterblast-orf" id="dummy-1_q2_0_all"  />
<polygon points="431,40 440,40 445,35 440,30 431,30 431,40 " style="fill:white; stroke-width:1; stroke:black; " description="&lt;b&gt;EOMLKCNM_04439&lt;/b&gt;&lt;br&gt;hypothetical protein&lt;br&gt;Location: 2618 - 2969" locus_tag="EOMLKCNM_04439" class="clusterblast-orf" id="dummy-1_q3_0_all"  />
</g>
<g label="NZ_LR701542" description="NZ_LR701542 (238215-258881): Roseovarius sp. EC-HK134 isolate RV134, whole ge... (9% of genes show similarity), hserlactone" class="clusterblast-cluster"  >
<text x="5" y="70" class="clusterblast-acc"  >
<a xlink:href="https://antismash-db.secondarymetabolites.org/area.html?record=NZ_LR701542&amp;start=238215&amp;end=258881" target="_blank">NZ_LR701542 (238215-258881)</a>: Roseovarius sp. EC-HK134 isolate RV134, whole ge... (9% of genes show similarity), hserlactone</text>
<line x1="10" y1="85" x2="778.0" y2="85" style="stroke-width:1; stroke:grey; "  />
</g>
<g id="a1_000"  >
<polygon points="0,85 5,80 26,80 26,90 5,90 0,85 " style="fill:white; stroke-width:1; stroke:black; " description="&lt;b&gt;GC127_RS02470&lt;/b&gt;&lt;br&gt;type IV secretion system protein&lt;br&gt;Location: 238424 - 239104" locus_tag="GC127_RS02470" class="clusterblast-orf" id="dummy-1_h1_1_0"  />
</g>
<g id="a1_001"  >
<polygon points="26,85 31,80 65,80 65,90 31,90 26,85 " style="fill:white; stroke-width:1; stroke:black; " description="&lt;b&gt;GC127_RS02475&lt;/b&gt;&lt;br&gt;conjugal transfer protein TrbL&lt;br&gt;Location: 239122 - 240135" locus_tag="GC127_RS02475" class="clusterblast-orf" id="dummy-1_h1_1_1"  />
</g>
<g id="a1_002"  >
<polygon points="82,85 87,80 111,80 111,90 87,90 82,85 " style="fill:white; stroke-width:1; stroke:black; " description="&lt;b&gt;GC127_RS02480&lt;/b&gt;&lt;br&gt;hypothetical protein&lt;br&gt;Location: 240569 - 241336" locus_tag="GC127_RS02480" class="clusterblast-orf" id="dummy-1_h1_1_2"  />
</g>
<g id="a1_003"  >
<polygon points="111,85 116,80 154,80 154,90 116,90 111,85 " style="fill:white; stroke-width:1; stroke:black; " description="&lt;b&gt;GC127_RS02485&lt;/b&gt;&lt;br&gt;transglycosylase SLT domain-containing protein&lt;br&gt;Location: 241333 - 242445" locus_tag="GC127_RS02485" class="clusterblast-orf" id="dummy-1_h1_1_3"  />
</g>
<g id="a1_004"  >
<polygon points="154,85 159,80 162,80 162,90 159,90 154,85 " style="fill:white; stroke-width:1; stroke:black; " description="&lt;b&gt;GC127_RS02490&lt;/b&gt;&lt;br&gt;hypothetical protein&lt;br&gt;Location: 242442 - 242651" locus_tag="GC127_RS02490" class="clusterblast-orf" id="dummy-1_h1_1_4"  />
</g>
<g id="a1_005"  >
<polygon points="162,85 167,80 253,80 253,90 167,90 162,85 " style="fill:white; stroke-width:1; stroke:black; " description="&lt;b&gt;GC127_RS02495&lt;/b&gt;&lt;br&gt;type IV secretion system protein B4&lt;br&gt;Location: 242648 - 245026" locus_tag="GC127_RS02495" class="clusterblast-orf" id="dummy-1_h1_1_5"  />
</g>
<g id="a1_006"  >
<polygon points="253,85 258,80 264,80 264,90 258,90 253,85 " style="fill:white; stroke-width:1; stroke:black; " description="&lt;b&gt;GC127_RS02500&lt;/b&gt;&lt;br&gt;type IV secretion system protein VirB3&lt;br&gt;Location: 245016 - 245294" locus_tag="GC127_RS02500" class="clusterblast-orf" id="dummy-1_h1_1_6"  />
</g>
<g id="a1_007"  >
<polygon points="264,85 269,80 275,80 275,90 269,90 264,85 " style="fill:white; stroke-width:1; stroke:black; " description="&lt;b&gt;GC127_RS02505&lt;/b&gt;&lt;br&gt;hypothetical protein&lt;br&gt;Location: 245299 - 245580" locus_tag="GC127_RS02505" class="clusterblast-orf" id="dummy-1_h1_1_7"  />
</g>
<g id="a1_008"  >
<polygon points="275,85 280,80 294,80 294,90 280,90 275,85 " style="fill:white; stroke-width:1; stroke:black; " description="&lt;b&gt;GC127_RS02510&lt;/b&gt;&lt;br&gt;transglycosylase SLT domain-containing protein&lt;br&gt;Location: 245595 - 246086" locus_tag="GC127_RS02510" class="clusterblast-orf" id="dummy-1_h1_1_8"  />
</g>
<g id="a1_009"  >
<polygon points="301,85 306,80 313,80 313,90 306,90 301,85 " style="fill:white; stroke-width:1; stroke:black; " description="&lt;b&gt;GC127_RS02515&lt;/b&gt;&lt;br&gt;hypothetical protein&lt;br&gt;Location: 246253 - 246567" locus_tag="GC127_RS02515" class="clusterblast-orf" id="dummy-1_h1_1_9"  />
</g>
<g id="a1_0010"  >
<polygon points="318,90 335,90 340,85 335,80 318,80 318,90 " style="fill:white; stroke-width:1; stroke:black; " description="&lt;b&gt;GC127_RS02520&lt;/b&gt;&lt;br&gt;hypothetical protein&lt;br&gt;Location: 246697 - 247275" locus_tag="GC127_RS02520" class="clusterblast-orf" id="dummy-1_h1_1_10"  />
</g>
<g id="a1_0011"  >
<polygon points="356,85 361,80 376,80 376,90 361,90 356,85 " style="fill:white; stroke-width:1; stroke:black; " description="&lt;b&gt;GC127_RS02525&lt;/b&gt;&lt;br&gt;hypothetical protein&lt;br&gt;Location: 247689 - 248216" locus_tag="GC127_RS02525" class="clusterblast-orf" id="dummy-1_h1_1_11"  />
</g>
<g id="a1_0012"  >
<polygon points="376,85 381,80 402,80 402,90 381,90 376,85 " style="fill:#d81515; stroke-width:1; stroke:black; " description="&lt;b&gt;GC127_RS02530&lt;/b&gt;&lt;br&gt;hypothetical protein&lt;br&gt;Location: 248216 - 248881&lt;br&gt;&lt;br&gt;&lt;b&gt;BlastP hit with EOMLKCNM_04437&lt;/b&gt;&lt;br&gt;Percentage identity: 45&lt;br&gt;Percentage coverage: 84&lt;br&gt;BLAST bit score: 155&lt;br&gt;E-value: 3.38e-45" locus_tag="GC127_RS02530" class="clusterblast-orf" id="dummy-1_h1_1_12"  />
</g>
<g id="a1_0013"  >
<polygon points="412,90 431,90 436,85 431,80 412,80 412,90 " style="fill:#15d8d8; stroke-width:1; stroke:black; " description="&lt;b&gt;GC127_RS02535&lt;/b&gt;&lt;br&gt;hypothetical protein&lt;br&gt;Location: 249140 - 249781&lt;br&gt;&lt;br&gt;&lt;b&gt;BlastP hit with EOMLKCNM_04438&lt;/b&gt;&lt;br&gt;Percentage identity: 33&lt;br&gt;Percentage coverage: 94&lt;br&gt;BLAST bit score: 90&lt;br&gt;E-value: 3.07e-20" locus_tag="GC127_RS02535" class="clusterblast-orf" id="dummy-1_h1_1_13"  />
</g>
<g id="a1_0014"  >
<polygon points="443,90 464,90 469,85 464,80 443,80 443,90 " style="fill:white; stroke-width:1; stroke:black; " description="&lt;b&gt;GC127_RS02540&lt;/b&gt;&lt;br&gt;hypothetical protein&lt;br&gt;Location: 249964 - 250623" locus_tag="GC127_RS02540" class="clusterblast-orf" id="dummy-1_h1_1_14"  />
</g>
<g id="a1_0015"  >
<polygon points="477,90 517,90 522,85 517,80 477,80 477,90 " style="fill:white; stroke-width:1; stroke:black; " description="&lt;b&gt;GC127_RS02545&lt;/b&gt;&lt;br&gt;transposase&lt;br&gt;Location: 250848 - 252014" locus_tag="GC127_RS02545" class="clusterblast-orf" id="dummy-1_h1_1_15"  />
</g>
<g id="a1_0016"  >
<polygon points="526,85 531,80 556,80 556,90 531,90 526,85 " style="fill:white; stroke-width:1; stroke:black; " description="&lt;b&gt;GC127_RS02550&lt;/b&gt;&lt;br&gt;SDR family oxidoreductase&lt;br&gt;Location: 252123 - 252902" locus_tag="GC127_RS02550" class="clusterblast-orf" id="dummy-1_h1_1_16"  />
</g>
<g id="a1_0017"  >
<polygon points="558,85 563,80 608,80 608,90 563,90 558,85 " style="fill:white; stroke-width:1; stroke:black; " description="&lt;b&gt;GC127_RS02555&lt;/b&gt;&lt;br&gt;TRAP transporter large permease subunit&lt;br&gt;Location: 252940 - 254259" locus_tag="GC127_RS02555" class="clusterblast-orf" id="dummy-1_h1_1_17"  />
</g>
<g id="a1_0018"  >
<polygon points="610,85 615,80 630,80 630,90 615,90 610,85 " style="fill:white; stroke-width:1; stroke:black; " description="&lt;b&gt;GC127_RS02560&lt;/b&gt;&lt;br&gt;TRAP transporter small permease subunit&lt;br&gt;Location: 254305 - 254820" locus_tag="GC127_RS02560" class="clusterblast-orf" id="dummy-1_h1_1_18"  />
</g>
<g id="a1_0019"  >
<polygon points="632,85 637,80 673,80 673,90 637,90 632,85 " style="fill:white; stroke-width:1; stroke:black; " description="&lt;b&gt;GC127_RS02565&lt;/b&gt;&lt;br&gt;ABC transporter substrate-binding protein&lt;br&gt;Location: 254862 - 255947" locus_tag="GC127_RS02565" class="clusterblast-orf" id="dummy-1_h1_1_19"  />
</g>
<g id="a1_0020"  >
<polygon points="675,85 680,80 734,80 734,90 680,90 675,85 " style="fill:white; stroke-width:1; stroke:black; " description="&lt;b&gt;GC127_RS02570&lt;/b&gt;&lt;br&gt;AMP-binding protein&lt;br&gt;Location: 255989 - 257533" locus_tag="GC127_RS02570" class="clusterblast-orf" id="dummy-1_h1_1_20"  />
</g>
<g id="a1_0021"  >
<polygon points="734,85 739,80 780,80 780,90 739,90 734,85 " style="fill:white; stroke-width:1; stroke:black; " description="&lt;b&gt;GC127_RS02575&lt;/b&gt;&lt;br&gt;thiolase domain-containing protein&lt;br&gt;Location: 257538 - 258710" locus_tag="GC127_RS02575" class="clusterblast-orf" id="dummy-1_h1_1_21"  />
</g>
</svg>
