<svg xmlns="http://www.w3.org/2000/svg" xmlns:xlink="http://www.w3.org/1999/xlink" version="1.1" x="0" y="0" height="230" width="800" viewBox="0 0 800 230" preserveAspectRatio="none"  >
<g label="Query sequence" class="clusterblast-cluster"  >
<text x="5" y="20" class="clusterblast-acc"  >
Query sequence</text>
<line x1="10" y1="35" x2="778.0" y2="35" style="stroke-width:1; stroke:grey; "  />
<polygon points="0,40 34,40 39,35 34,30 0,30 0,40 " style="fill:#d81515; stroke-width:1; stroke:black; " description="&lt;b&gt;EOMLKCNM_00203&lt;/b&gt;&lt;br&gt;Beta-hexosaminidase&lt;br&gt;Location: 54564 - 55578" locus_tag="EOMLKCNM_00203" class="clusterblast-orf" id="dummy-2_q0_0_all"  />
<polygon points="39,40 64,40 69,35 64,30 39,30 39,40 " style="fill:#4dd815; stroke-width:1; stroke:black; " description="&lt;b&gt;EOMLKCNM_00204&lt;/b&gt;&lt;br&gt;Segregation and condensation protein A&lt;br&gt;Location: 55570 - 56359" locus_tag="EOMLKCNM_00204" class="clusterblast-orf" id="dummy-2_q1_0_all"  />
<polygon points="69,40 89,40 94,35 89,30 69,30 69,40 " style="fill:#1585d8; stroke-width:1; stroke:black; " description="&lt;b&gt;EOMLKCNM_00205&lt;/b&gt;&lt;br&gt;Segregation and condensation protein B&lt;br&gt;Location: 56355 - 56991" locus_tag="EOMLKCNM_00205" class="clusterblast-orf" id="dummy-2_q2_0_all"  />
<polygon points="95,40 97,40 102,35 97,30 95,30 95,40 " style="fill:white; stroke-width:1; stroke:black; " description="&lt;b&gt;EOMLKCNM_00206&lt;/b&gt;&lt;br&gt;hypothetical protein&lt;br&gt;Location: 57017 - 57203" locus_tag="EOMLKCNM_00206" class="clusterblast-orf" id="dummy-2_q3_0_all"  />
<polygon points="103,35 108,30 144,30 144,40 108,40 103,35 " style="fill:#a115d8; stroke-width:1; stroke:black; " description="&lt;b&gt;EOMLKCNM_00207&lt;/b&gt;&lt;br&gt;dCTP deaminase, dUMP-forming&lt;br&gt;Location: 57222 - 58308" locus_tag="EOMLKCNM_00207" class="clusterblast-orf" id="dummy-2_q4_0_all"  />
<polygon points="152,35 157,30 184,30 184,40 157,40 152,35 " style="fill:#d86915; stroke-width:1; stroke:black; " description="&lt;b&gt;EOMLKCNM_00209&lt;/b&gt;&lt;br&gt;hypothetical protein&lt;br&gt;Location: 58511 - 59330" locus_tag="EOMLKCNM_00209" class="clusterblast-orf" id="dummy-2_q5_0_all"  />
<polygon points="184,35 189,30 196,30 196,40 189,40 184,35 " style="fill:#15d831; stroke-width:1; stroke:black; " description="&lt;b&gt;EOMLKCNM_00210&lt;/b&gt;&lt;br&gt;Integration host factor subunit alpha&lt;br&gt;Location: 59341 - 59644" locus_tag="EOMLKCNM_00210" class="clusterblast-orf" id="dummy-2_q6_0_all"  />
<polygon points="200,35 205,30 238,30 238,40 205,40 200,35 " style="fill:#1531d8; stroke-width:1; stroke:black; " description="&lt;b&gt;EOMLKCNM_00211&lt;/b&gt;&lt;br&gt;3-oxoacyl-[acyl-carrier-protein] synthase 3&lt;br&gt;Location: 59752 - 60724" locus_tag="EOMLKCNM_00211" class="clusterblast-orf" id="dummy-2_q7_0_all"  />
<polygon points="238,35 243,30 281,30 281,40 243,40 238,35 " style="fill:#d815bc; stroke-width:1; stroke:black; " description="&lt;b&gt;EOMLKCNM_00212&lt;/b&gt;&lt;br&gt;Phosphate acyltransferase&lt;br&gt;Location: 60723 - 61842" locus_tag="EOMLKCNM_00212" class="clusterblast-orf" id="dummy-2_q8_0_all"  />
<polygon points="282,35 287,30 290,30 290,40 287,40 282,35 " style="fill:#d8bc15; stroke-width:1; stroke:black; " description="&lt;b&gt;EOMLKCNM_00213&lt;/b&gt;&lt;br&gt;50S ribosomal protein L32&lt;br&gt;Location: 61868 - 62075" locus_tag="EOMLKCNM_00213" class="clusterblast-orf" id="dummy-2_q9_0_all"  />
<polygon points="297,35 302,30 319,30 319,40 302,40 297,35 " style="fill:#15d885; stroke-width:1; stroke:black; " description="&lt;b&gt;EOMLKCNM_00214&lt;/b&gt;&lt;br&gt;hypothetical protein&lt;br&gt;Location: 62247 - 62832" locus_tag="EOMLKCNM_00214" class="clusterblast-orf" id="dummy-2_q10_0_all"  />
<polygon points="329,40 344,40 349,35 344,30 329,30 329,40 " style="fill:#4d15d8; stroke-width:1; stroke:black; " description="&lt;b&gt;EOMLKCNM_00215&lt;/b&gt;&lt;br&gt;hypothetical protein&lt;br&gt;Location: 63076 - 63598" locus_tag="EOMLKCNM_00215" class="clusterblast-orf" id="dummy-2_q11_0_all"  />
<polygon points="350,35 355,30 366,30 366,40 355,40 350,35 " style="fill:#d81569; stroke-width:1; stroke:black; " description="&lt;b&gt;EOMLKCNM_00216&lt;/b&gt;&lt;br&gt;Peptide methionine sulfoxide reductase MsrB&lt;br&gt;Location: 63641 - 64037" locus_tag="EOMLKCNM_00216" class="clusterblast-orf" id="dummy-2_q12_0_all"  />
<polygon points="370,40 394,40 399,35 394,30 370,30 370,40 " style="fill:#a1d815; stroke-width:1; stroke:black; " description="&lt;b&gt;EOMLKCNM_00217&lt;/b&gt;&lt;br&gt;hypothetical protein&lt;br&gt;Location: 64154 - 64892" locus_tag="EOMLKCNM_00217" class="clusterblast-orf" id="dummy-2_q13_0_all"  />
<polygon points="399,35 404,30 442,30 442,40 404,40 399,35 " style="fill:white; stroke-width:1; stroke:black; " description="&lt;b&gt;EOMLKCNM_00218&lt;/b&gt;&lt;br&gt;Inositol 2-dehydrogenase/D-chiro-inositol 3-dehydrogenase&lt;br&gt;Location: 64888 - 66004" locus_tag="EOMLKCNM_00218" class="clusterblast-orf" id="dummy-2_q14_0_all"  />
<polygon points="445,40 472,40 477,35 472,30 445,30 445,40 " style="fill:white; stroke-width:1; stroke:black; " description="&lt;b&gt;EOMLKCNM_00219&lt;/b&gt;&lt;br&gt;HTH-type transcriptional regulator MurR&lt;br&gt;Location: 66084 - 66924" locus_tag="EOMLKCNM_00219" class="clusterblast-orf" id="dummy-2_q15_0_all"  />
<polygon points="482,40 551,40 556,35 551,30 482,30 482,40 " style="fill:white; stroke-width:1; stroke:black; " description="&lt;b&gt;EOMLKCNM_00220&lt;/b&gt;&lt;br&gt;5-dehydro-2-deoxygluconokinase&lt;br&gt;Location: 67043 - 68951" locus_tag="EOMLKCNM_00220" class="clusterblast-orf" id="dummy-2_q16_0_all"  />
<polygon points="555,40 621,40 626,35 621,30 555,30 555,40 " style="fill:white; stroke-width:1; stroke:black; " description="&lt;b&gt;EOMLKCNM_00221&lt;/b&gt;&lt;br&gt;3D-(3,5/4)-trihydroxycyclohexane-1,2-dione hydrolase&lt;br&gt;Location: 68947 - 70777" locus_tag="EOMLKCNM_00221" class="clusterblast-orf" id="dummy-2_q17_0_all"  />
<polygon points="627,40 657,40 662,35 657,30 627,30 627,40 " style="fill:white; stroke-width:1; stroke:black; " description="&lt;b&gt;EOMLKCNM_00222&lt;/b&gt;&lt;br&gt;Inosose dehydratase&lt;br&gt;Location: 70791 - 71697" locus_tag="EOMLKCNM_00222" class="clusterblast-orf" id="dummy-2_q18_0_all"  />
<polygon points="664,40 690,40 695,35 690,30 664,30 664,40 " style="fill:white; stroke-width:1; stroke:black; " description="&lt;b&gt;EOMLKCNM_00223&lt;/b&gt;&lt;br&gt;5-deoxy-glucuronate isomerase&lt;br&gt;Location: 71765 - 72572" locus_tag="EOMLKCNM_00223" class="clusterblast-orf" id="dummy-2_q19_0_all"  />
<polygon points="699,40 734,40 739,35 734,30 699,30 699,40 " style="fill:#15d8d8; stroke-width:1; stroke:black; " description="&lt;b&gt;EOMLKCNM_00224&lt;/b&gt;&lt;br&gt;Adaptive-response sensory-kinase SasA&lt;br&gt;Location: 72665 - 73706" locus_tag="EOMLKCNM_00224" class="clusterblast-orf" id="dummy-2_q20_0_all"  />
<polygon points="743,35 748,30 762,30 762,40 748,40 743,35 " style="fill:white; stroke-width:1; stroke:black; " description="&lt;b&gt;EOMLKCNM_00225&lt;/b&gt;&lt;br&gt;Pyrimidine-specific ribonucleoside hydrolase RihA&lt;br&gt;Location: 73813 - 74299" locus_tag="EOMLKCNM_00225" class="clusterblast-orf" id="dummy-2_q21_0_all"  />
<polygon points="763,35 768,30 780,30 780,40 768,40 763,35 " style="fill:white; stroke-width:1; stroke:black; " description="&lt;b&gt;EOMLKCNM_00226&lt;/b&gt;&lt;br&gt;Pyrimidine-specific ribonucleoside hydrolase RihA&lt;br&gt;Location: 74314 - 74758" locus_tag="EOMLKCNM_00226" class="clusterblast-orf" id="dummy-2_q22_0_all"  />
</g>
<g label="NZ_NSBU01000007" description="NZ_NSBU01000007 (1036290-1055384): Actibacterium pelagium strain JN33 JN33 S7... (54% of genes show similarity), hserlactone" class="clusterblast-cluster"  >
<text x="5" y="70" class="clusterblast-acc"  >
<a xlink:href="https://antismash-db.secondarymetabolites.org/area.html?record=NZ_NSBU01000007&amp;start=1036290&amp;end=1055384" target="_blank">NZ_NSBU01000007 (1036290-1055384)</a>: Actibacterium pelagium strain JN33 JN33 S7... (54% of genes show similarity), hserlactone</text>
<line x1="10" y1="85" x2="778.0" y2="85" style="stroke-width:1; stroke:grey; "  />
</g>
<g id="a2_000"  >
<polygon points="21,90 55,90 60,85 55,80 21,80 21,90 " style="fill:#d81515; stroke-width:1; stroke:black; " description="&lt;b&gt;CLM58_RS14080&lt;/b&gt;&lt;br&gt;beta-N-acetylhexosaminidase&lt;br&gt;Location: 1055384 - 1054380&lt;br&gt;&lt;br&gt;&lt;b&gt;BlastP hit with EOMLKCNM_00203&lt;/b&gt;&lt;br&gt;Percentage identity: 57&lt;br&gt;Percentage coverage: 96&lt;br&gt;BLAST bit score: 344&lt;br&gt;E-value: 3.86e-116" locus_tag="CLM58_RS14080" class="clusterblast-orf" id="dummy-2_h2_2_0"  />
</g>
<g id="a2_001"  >
<polygon points="59,90 84,90 89,85 84,80 59,80 59,90 " style="fill:#4dd815; stroke-width:1; stroke:black; " description="&lt;b&gt;CLM58_RS14075&lt;/b&gt;&lt;br&gt;segregation/condensation protein A&lt;br&gt;Location: 1054387 - 1053605&lt;br&gt;&lt;br&gt;&lt;b&gt;BlastP hit with EOMLKCNM_00204&lt;/b&gt;&lt;br&gt;Percentage identity: 77&lt;br&gt;Percentage coverage: 95&lt;br&gt;BLAST bit score: 380&lt;br&gt;E-value: 6.47e-133" locus_tag="CLM58_RS14075" class="clusterblast-orf" id="dummy-2_h2_2_1"  />
</g>
<g id="a2_002"  >
<polygon points="89,90 109,90 114,85 109,80 89,80 89,90 " style="fill:#1585d8; stroke-width:1; stroke:black; " description="&lt;b&gt;CLM58_RS14070&lt;/b&gt;&lt;br&gt;SMC-Scp complex subunit ScpB&lt;br&gt;Location: 1053612 - 1052974&lt;br&gt;&lt;br&gt;&lt;b&gt;BlastP hit with EOMLKCNM_00205&lt;/b&gt;&lt;br&gt;Percentage identity: 78&lt;br&gt;Percentage coverage: 100&lt;br&gt;BLAST bit score: 320&lt;br&gt;E-value: 1.83e-110" locus_tag="CLM58_RS14070" class="clusterblast-orf" id="dummy-2_h2_2_2"  />
</g>
<g id="a2_003"  >
<polygon points="114,90 118,90 123,85 118,80 114,80 114,90 " style="fill:white; stroke-width:1; stroke:black; " description="&lt;b&gt;CLM58_RS14065&lt;/b&gt;&lt;br&gt;hypothetical protein&lt;br&gt;Location: 1052959 - 1052726" locus_tag="CLM58_RS14065" class="clusterblast-orf" id="dummy-2_h2_2_3"  />
</g>
<g id="a2_004"  >
<polygon points="124,90 141,90 146,85 141,80 124,80 124,90 " style="fill:white; stroke-width:1; stroke:black; " description="&lt;b&gt;CLM58_RS14060&lt;/b&gt;&lt;br&gt;GNAT family N-acetyltransferase&lt;br&gt;Location: 1052721 - 1052131" locus_tag="CLM58_RS14060" class="clusterblast-orf" id="dummy-2_h2_2_4"  />
</g>
<g id="a2_005"  >
<polygon points="146,85 151,80 188,80 188,90 151,90 146,85 " style="fill:#a115d8; stroke-width:1; stroke:black; " description="&lt;b&gt;CLM58_RS14055&lt;/b&gt;&lt;br&gt;2'-deoxycytidine 5'-triphosphate deaminase&lt;br&gt;Location: 1052134 - 1051052&lt;br&gt;&lt;br&gt;&lt;b&gt;BlastP hit with EOMLKCNM_00207&lt;/b&gt;&lt;br&gt;Percentage identity: 72&lt;br&gt;Percentage coverage: 99&lt;br&gt;BLAST bit score: 532&lt;br&gt;E-value: 1.21e-189" locus_tag="CLM58_RS14055" class="clusterblast-orf" id="dummy-2_h2_2_5"  />
</g>
<g id="a2_006"  >
<polygon points="212,85 217,80 223,80 223,90 217,90 212,85 " style="fill:#d86915; stroke-width:1; stroke:black; " description="&lt;b&gt;CLM58_RS14045&lt;/b&gt;&lt;br&gt;MerR family transcriptional regulator&lt;br&gt;Location: 1050422 - 1050153&lt;br&gt;&lt;br&gt;&lt;b&gt;BlastP hit with EOMLKCNM_00209&lt;/b&gt;&lt;br&gt;Percentage identity: 64&lt;br&gt;Percentage coverage: 32&lt;br&gt;BLAST bit score: 118&lt;br&gt;E-value: 5.06e-32" locus_tag="CLM58_RS14045" class="clusterblast-orf" id="dummy-2_h2_2_6"  />
</g>
<g id="a2_007"  >
<polygon points="223,85 228,80 235,80 235,90 228,90 223,85 " style="fill:#15d831; stroke-width:1; stroke:black; " description="&lt;b&gt;CLM58_RS14040&lt;/b&gt;&lt;br&gt;integration host factor subunit alpha&lt;br&gt;Location: 1050149 - 1049847&lt;br&gt;&lt;br&gt;&lt;b&gt;BlastP hit with EOMLKCNM_00210&lt;/b&gt;&lt;br&gt;Percentage identity: 89&lt;br&gt;Percentage coverage: 99&lt;br&gt;BLAST bit score: 174&lt;br&gt;E-value: 2.85e-56" locus_tag="CLM58_RS14040" class="clusterblast-orf" id="dummy-2_h2_2_7"  />
</g>
<g id="a2_008"  >
<polygon points="238,85 243,80 276,80 276,90 243,90 238,85 " style="fill:#1531d8; stroke-width:1; stroke:black; " description="&lt;b&gt;CLM58_RS14035&lt;/b&gt;&lt;br&gt;ketoacyl-ACP synthase III&lt;br&gt;Location: 1049752 - 1048781&lt;br&gt;&lt;br&gt;&lt;b&gt;BlastP hit with EOMLKCNM_00211&lt;/b&gt;&lt;br&gt;Percentage identity: 78&lt;br&gt;Percentage coverage: 100&lt;br&gt;BLAST bit score: 512&lt;br&gt;E-value: 8.31e-183" locus_tag="CLM58_RS14035" class="clusterblast-orf" id="dummy-2_h2_2_8"  />
</g>
<g id="a2_009"  >
<polygon points="276,85 281,80 318,80 318,90 281,90 276,85 " style="fill:#d815bc; stroke-width:1; stroke:black; " description="&lt;b&gt;CLM58_RS14030&lt;/b&gt;&lt;br&gt;phosphate acyltransferase PlsX&lt;br&gt;Location: 1048784 - 1047678&lt;br&gt;&lt;br&gt;&lt;b&gt;BlastP hit with EOMLKCNM_00212&lt;/b&gt;&lt;br&gt;Percentage identity: 76&lt;br&gt;Percentage coverage: 90&lt;br&gt;BLAST bit score: 500&lt;br&gt;E-value: 1.05e-176" locus_tag="CLM58_RS14030" class="clusterblast-orf" id="dummy-2_h2_2_9"  />
</g>
<g id="a2_0010"  >
<polygon points="320,85 325,80 328,80 328,90 325,90 320,85 " style="fill:#d8bc15; stroke-width:1; stroke:black; " description="&lt;b&gt;CLM58_RS14025&lt;/b&gt;&lt;br&gt;50S ribosomal protein L32&lt;br&gt;Location: 1047648 - 1047439&lt;br&gt;&lt;br&gt;&lt;b&gt;BlastP hit with EOMLKCNM_00213&lt;/b&gt;&lt;br&gt;Percentage identity: 74&lt;br&gt;Percentage coverage: 100&lt;br&gt;BLAST bit score: 113&lt;br&gt;E-value: 3.88e-33" locus_tag="CLM58_RS14025" class="clusterblast-orf" id="dummy-2_h2_2_10"  />
</g>
<g id="a2_0011"  >
<polygon points="333,85 338,80 354,80 354,90 338,90 333,85 " style="fill:#15d885; stroke-width:1; stroke:black; " description="&lt;b&gt;CLM58_RS14020&lt;/b&gt;&lt;br&gt;DUF177 domain-containing protein&lt;br&gt;Location: 1047296 - 1046745&lt;br&gt;&lt;br&gt;&lt;b&gt;BlastP hit with EOMLKCNM_00214&lt;/b&gt;&lt;br&gt;Percentage identity: 52&lt;br&gt;Percentage coverage: 85&lt;br&gt;BLAST bit score: 155&lt;br&gt;E-value: 2.71e-46" locus_tag="CLM58_RS14020" class="clusterblast-orf" id="dummy-2_h2_2_11"  />
</g>
<g id="a2_0012"  >
<polygon points="358,90 371,90 376,85 371,80 358,80 358,90 " style="fill:#4d15d8; stroke-width:1; stroke:black; " description="&lt;b&gt;CLM58_RS14015&lt;/b&gt;&lt;br&gt;outer membrane protein assembly factor BamE&lt;br&gt;Location: 1046663 - 1046199&lt;br&gt;&lt;br&gt;&lt;b&gt;BlastP hit with EOMLKCNM_00215&lt;/b&gt;&lt;br&gt;Percentage identity: 51&lt;br&gt;Percentage coverage: 80&lt;br&gt;BLAST bit score: 138&lt;br&gt;E-value: 3.47e-40" locus_tag="CLM58_RS14015" class="clusterblast-orf" id="dummy-2_h2_2_12"  />
</g>
<g id="a2_0013"  >
<polygon points="375,85 380,80 391,80 391,90 380,90 375,85 " style="fill:#d81569; stroke-width:1; stroke:black; " description="&lt;b&gt;CLM58_RS14010&lt;/b&gt;&lt;br&gt;peptide-methionine (R)-S-oxide reductase MsrB&lt;br&gt;Location: 1046202 - 1045807&lt;br&gt;&lt;br&gt;&lt;b&gt;BlastP hit with EOMLKCNM_00216&lt;/b&gt;&lt;br&gt;Percentage identity: 67&lt;br&gt;Percentage coverage: 98&lt;br&gt;BLAST bit score: 203&lt;br&gt;E-value: 4.93e-67" locus_tag="CLM58_RS14010" class="clusterblast-orf" id="dummy-2_h2_2_13"  />
</g>
<g id="a2_0014"  >
<polygon points="395,90 418,90 423,85 418,80 395,80 395,90 " style="fill:#a1d815; stroke-width:1; stroke:black; " description="&lt;b&gt;CLM58_RS14005&lt;/b&gt;&lt;br&gt;GNAT family N-acetyltransferase&lt;br&gt;Location: 1045701 - 1044964&lt;br&gt;&lt;br&gt;&lt;b&gt;BlastP hit with EOMLKCNM_00217&lt;/b&gt;&lt;br&gt;Percentage identity: 74&lt;br&gt;Percentage coverage: 100&lt;br&gt;BLAST bit score: 367&lt;br&gt;E-value: 2.93e-128" locus_tag="CLM58_RS14005" class="clusterblast-orf" id="dummy-2_h2_2_14"  />
</g>
<g id="a2_0015"  >
<polygon points="427,90 492,90 497,85 492,80 427,80 427,90 " style="fill:white; stroke-width:1; stroke:black; " description="&lt;b&gt;CLM58_RS14000&lt;/b&gt;&lt;br&gt;ATP-binding cassette domain-containing protein&lt;br&gt;Location: 1044859 - 1043051" locus_tag="CLM58_RS14000" class="clusterblast-orf" id="dummy-2_h2_2_15"  />
</g>
<g id="a2_0016"  >
<polygon points="497,85 502,80 520,80 520,90 502,90 497,85 " style="fill:white; stroke-width:1; stroke:black; " description="&lt;b&gt;CLM58_RS13995&lt;/b&gt;&lt;br&gt;hypothetical protein&lt;br&gt;Location: 1043054 - 1042461" locus_tag="CLM58_RS13995" class="clusterblast-orf" id="dummy-2_h2_2_16"  />
</g>
<g id="a2_0017"  >
<polygon points="522,85 527,80 538,80 538,90 527,90 522,85 " style="fill:white; stroke-width:1; stroke:black; " description="&lt;b&gt;CLM58_RS13990&lt;/b&gt;&lt;br&gt;redox-sensitive transcriptional activator SoxR&lt;br&gt;Location: 1042418 - 1041999" locus_tag="CLM58_RS13990" class="clusterblast-orf" id="dummy-2_h2_2_17"  />
</g>
<g id="a2_0018"  >
<polygon points="543,90 552,90 557,85 552,80 543,80 543,90 " style="fill:white; stroke-width:1; stroke:black; " description="&lt;b&gt;CLM58_RS13985&lt;/b&gt;&lt;br&gt;glyoxalase&lt;br&gt;Location: 1041873 - 1041499" locus_tag="CLM58_RS13985" class="clusterblast-orf" id="dummy-2_h2_2_18"  />
</g>
<g id="a2_0019"  >
<polygon points="557,90 587,90 592,85 587,80 557,80 557,90 " style="fill:white; stroke-width:1; stroke:black; " description="&lt;b&gt;CLM58_RS13980&lt;/b&gt;&lt;br&gt;DMT family transporter&lt;br&gt;Location: 1041506 - 1040592" locus_tag="CLM58_RS13980" class="clusterblast-orf" id="dummy-2_h2_2_19"  />
</g>
<g id="a2_0020"  >
<polygon points="598,90 646,90 651,85 646,80 598,80 598,90 " style="fill:white; stroke-width:1; stroke:black; " description="&lt;b&gt;CLM58_RS13975&lt;/b&gt;&lt;br&gt;cysteine--tRNA ligase&lt;br&gt;Location: 1040437 - 1039067" locus_tag="CLM58_RS13975" class="clusterblast-orf" id="dummy-2_h2_2_20"  />
</g>
<g id="a2_0021"  >
<polygon points="651,90 708,90 713,85 708,80 651,80 651,90 " style="fill:white; stroke-width:1; stroke:black; " description="&lt;b&gt;CLM58_RS13970&lt;/b&gt;&lt;br&gt;citramalate synthase&lt;br&gt;Location: 1039070 - 1037451" locus_tag="CLM58_RS13970" class="clusterblast-orf" id="dummy-2_h2_2_21"  />
</g>
<g id="a2_0022"  >
<polygon points="716,90 737,90 742,85 737,80 716,80 716,90 " style="fill:white; stroke-width:1; stroke:black; " description="&lt;b&gt;CLM58_RS13965&lt;/b&gt;&lt;br&gt;squalene/phytoene synthase family protein&lt;br&gt;Location: 1037391 - 1036714" locus_tag="CLM58_RS13965" class="clusterblast-orf" id="dummy-2_h2_2_22"  />
</g>
<g id="a2_0023"  >
<polygon points="742,85 747,80 758,80 758,90 747,90 742,85 " style="fill:white; stroke-width:1; stroke:black; " description="&lt;b&gt;CLM58_RS13960&lt;/b&gt;&lt;br&gt;universal stress protein&lt;br&gt;Location: 1036701 - 1036291" locus_tag="CLM58_RS13960" class="clusterblast-orf" id="dummy-2_h2_2_23"  />
</g>
</svg>
