<svg xmlns="http://www.w3.org/2000/svg" xmlns:xlink="http://www.w3.org/1999/xlink" version="1.1" x="0" y="0" height="230" width="800" viewBox="0 0 800 230" preserveAspectRatio="none"  >
<g label="Query sequence" class="clusterblast-cluster"  >
<text x="5" y="20" class="clusterblast-acc"  >
Query sequence</text>
<line x1="10" y1="35" x2="778.0" y2="35" style="stroke-width:1; stroke:grey; "  />
<polygon points="329,35 334,30 353,30 353,40 334,40 329,35 " style="fill:#d81515; stroke-width:1; stroke:black; " description="&lt;b&gt;EOMLKCNM_03919&lt;/b&gt;&lt;br&gt;hypothetical protein&lt;br&gt;Location: 345 - 1944" locus_tag="EOMLKCNM_03919" class="clusterblast-orf" id="dummy-1_q0_0_all"  />
<polygon points="353,40 371,40 376,35 371,30 353,30 353,40 " style="fill:#77d815; stroke-width:1; stroke:black; " description="&lt;b&gt;EOMLKCNM_03920&lt;/b&gt;&lt;br&gt;hypothetical protein&lt;br&gt;Location: 1971 - 3468" locus_tag="EOMLKCNM_03920" class="clusterblast-orf" id="dummy-1_q1_0_all"  />
<polygon points="376,40 383,40 388,35 383,30 376,30 376,40 " style="fill:#15d8d8; stroke-width:1; stroke:black; " description="&lt;b&gt;EOMLKCNM_03921&lt;/b&gt;&lt;br&gt;hypothetical protein&lt;br&gt;Location: 3464 - 4265" locus_tag="EOMLKCNM_03921" class="clusterblast-orf" id="dummy-1_q2_0_all"  />
<polygon points="393,40 445,40 450,35 445,30 393,30 393,40 " style="fill:#7715d8; stroke-width:1; stroke:black; " description="&lt;b&gt;EOMLKCNM_03922&lt;/b&gt;&lt;br&gt;Polyketide synthase PksJ&lt;br&gt;Location: 4609 - 8416" locus_tag="EOMLKCNM_03922" class="clusterblast-orf" id="dummy-1_q3_0_all"  />
</g>
<g label="NZ_UBRI01000008" description="NZ_UBRI01000008 (236851-289326): Rhizobiales bacterium isolate AFS027653, who... (9% of genes show similarity), NRPS,T1PKS" class="clusterblast-cluster"  >
<text x="5" y="70" class="clusterblast-acc"  >
<a xlink:href="https://antismash-db.secondarymetabolites.org/area.html?record=NZ_UBRI01000008&amp;start=236851&amp;end=289326" target="_blank">NZ_UBRI01000008 (236851-289326)</a>: Rhizobiales bacterium isolate AFS027653, who... (9% of genes show similarity), NRPS,T1PKS</text>
<line x1="10" y1="85" x2="778.0" y2="85" style="stroke-width:1; stroke:grey; "  />
</g>
<g id="a1_000"  >
<polygon points="0,85 5,80 6,80 6,90 5,90 0,85 " style="fill:white; stroke-width:1; stroke:black; " description="&lt;b&gt;DUK33_RS14775&lt;/b&gt;&lt;br&gt;YbhB/YbcL family Raf kinase inhibitor-like protein&lt;br&gt;Location: 236856 - 237317" locus_tag="DUK33_RS14775" class="clusterblast-orf" id="dummy-1_h1_9_0"  />
</g>
<g id="a1_001"  >
<polygon points="9,90 12,85 9,80 9,90 " style="fill:white; stroke-width:1; stroke:black; " description="&lt;b&gt;DUK33_RS14780&lt;/b&gt;&lt;br&gt;DUF2934 domain-containing protein&lt;br&gt;Location: 237460 - 237717" locus_tag="DUK33_RS14780" class="clusterblast-orf" id="dummy-1_h1_9_1"  />
</g>
<g id="a1_002"  >
<polygon points="14,85 19,80 19,80 19,90 19,90 14,85 " style="fill:white; stroke-width:1; stroke:black; " description="&lt;b&gt;DUK33_RS14785&lt;/b&gt;&lt;br&gt;hypothetical protein&lt;br&gt;Location: 237824 - 238180" locus_tag="DUK33_RS14785" class="clusterblast-orf" id="dummy-1_h1_9_2"  />
</g>
<g id="a1_003"  >
<polygon points="25,90 26,90 31,85 26,80 25,80 25,90 " style="fill:white; stroke-width:1; stroke:black; " description="&lt;b&gt;DUK33_RS14795&lt;/b&gt;&lt;br&gt;hypothetical protein&lt;br&gt;Location: 238530 - 238967" locus_tag="DUK33_RS14795" class="clusterblast-orf" id="dummy-1_h1_9_3"  />
</g>
<g id="a1_004"  >
<polygon points="34,85 39,80 42,80 42,90 39,90 34,85 " style="fill:white; stroke-width:1; stroke:black; " description="&lt;b&gt;DUK33_RS14800&lt;/b&gt;&lt;br&gt;BON domain-containing protein&lt;br&gt;Location: 239142 - 239693" locus_tag="DUK33_RS14800" class="clusterblast-orf" id="dummy-1_h1_9_4"  />
</g>
<g id="a1_005"  >
<polygon points="43,85 48,80 54,80 54,90 48,90 43,85 " style="fill:white; stroke-width:1; stroke:black; " description="&lt;b&gt;DUK33_RS14805&lt;/b&gt;&lt;br&gt;MgtC/SapB family protein&lt;br&gt;Location: 239761 - 240468" locus_tag="DUK33_RS14805" class="clusterblast-orf" id="dummy-1_h1_9_5"  />
</g>
<g id="a1_006"  >
<polygon points="58,90 67,90 72,85 67,80 58,80 58,90 " style="fill:white; stroke-width:1; stroke:black; " description="&lt;b&gt;DUK33_RS14810&lt;/b&gt;&lt;br&gt;DMT family transporter&lt;br&gt;Location: 240734 - 241645" locus_tag="DUK33_RS14810" class="clusterblast-orf" id="dummy-1_h1_9_6"  />
</g>
<g id="a1_007"  >
<polygon points="74,85 79,80 83,80 83,90 79,90 74,85 " style="fill:white; stroke-width:1; stroke:black; " description="&lt;b&gt;DUK33_RS14815&lt;/b&gt;&lt;br&gt;hypothetical protein&lt;br&gt;Location: 241811 - 242431" locus_tag="DUK33_RS14815" class="clusterblast-orf" id="dummy-1_h1_9_7"  />
</g>
<g id="a1_008"  >
<polygon points="89,90 97,90 102,85 97,80 89,80 89,90 " style="fill:white; stroke-width:1; stroke:black; " description="&lt;b&gt;DUK33_RS14820&lt;/b&gt;&lt;br&gt;hypothetical protein&lt;br&gt;Location: 242803 - 243660" locus_tag="DUK33_RS14820" class="clusterblast-orf" id="dummy-1_h1_9_8"  />
</g>
<g id="a1_009"  >
<polygon points="105,85 110,80 111,80 111,90 110,90 105,85 " style="fill:white; stroke-width:1; stroke:black; " description="&lt;b&gt;DUK33_RS31140&lt;/b&gt;&lt;br&gt;hypothetical protein&lt;br&gt;Location: 243876 - 244253" locus_tag="DUK33_RS31140" class="clusterblast-orf" id="dummy-1_h1_9_9"  />
</g>
<g id="a1_0010"  >
<polygon points="117,90 117,90 122,85 117,80 117,80 117,90 " style="fill:white; stroke-width:1; stroke:black; " description="&lt;b&gt;DUK33_RS14830&lt;/b&gt;&lt;br&gt;hypothetical protein&lt;br&gt;Location: 244683 - 245024" locus_tag="DUK33_RS14830" class="clusterblast-orf" id="dummy-1_h1_9_10"  />
</g>
<g id="a1_0011"  >
<polygon points="125,90 125,90 130,85 125,80 125,80 125,90 " style="fill:white; stroke-width:1; stroke:black; " description="&lt;b&gt;DUK33_RS31145&lt;/b&gt;&lt;br&gt;hypothetical protein&lt;br&gt;Location: 245220 - 245510" locus_tag="DUK33_RS31145" class="clusterblast-orf" id="dummy-1_h1_9_11"  />
</g>
<g id="a1_0012"  >
<polygon points="130,85 135,80 145,80 145,90 135,90 130,85 " style="fill:white; stroke-width:1; stroke:black; " description="&lt;b&gt;DUK33_RS14835&lt;/b&gt;&lt;br&gt;curli production assembly protein CsgG&lt;br&gt;Location: 245528 - 246508" locus_tag="DUK33_RS14835" class="clusterblast-orf" id="dummy-1_h1_9_12"  />
</g>
<g id="a1_0013"  >
<polygon points="146,85 150,80 150,90 146,85 " style="fill:white; stroke-width:1; stroke:black; " description="&lt;b&gt;DUK33_RS14840&lt;/b&gt;&lt;br&gt;curli assembly protein CsgF&lt;br&gt;Location: 246565 - 246855" locus_tag="DUK33_RS14840" class="clusterblast-orf" id="dummy-1_h1_9_13"  />
</g>
<g id="a1_0014"  >
<polygon points="151,85 156,80 158,80 158,90 156,90 151,85 " style="fill:white; stroke-width:1; stroke:black; " description="&lt;b&gt;DUK33_RS14845&lt;/b&gt;&lt;br&gt;hypothetical protein&lt;br&gt;Location: 246915 - 247424" locus_tag="DUK33_RS14845" class="clusterblast-orf" id="dummy-1_h1_9_14"  />
</g>
<g id="a1_0015"  >
<polygon points="158,85 163,80 165,80 165,90 163,90 158,85 " style="fill:white; stroke-width:1; stroke:black; " description="&lt;b&gt;DUK33_RS14850&lt;/b&gt;&lt;br&gt;hypothetical protein&lt;br&gt;Location: 247421 - 247849" locus_tag="DUK33_RS14850" class="clusterblast-orf" id="dummy-1_h1_9_15"  />
</g>
<g id="a1_0016"  >
<polygon points="165,85 170,80 181,80 181,90 170,90 165,85 " style="fill:white; stroke-width:1; stroke:black; " description="&lt;b&gt;DUK33_RS14855&lt;/b&gt;&lt;br&gt;hypothetical protein&lt;br&gt;Location: 247877 - 248950" locus_tag="DUK33_RS14855" class="clusterblast-orf" id="dummy-1_h1_9_16"  />
</g>
<g id="a1_0017"  >
<polygon points="186,90 189,90 194,85 189,80 186,80 186,90 " style="fill:white; stroke-width:1; stroke:black; " description="&lt;b&gt;DUK33_RS14860&lt;/b&gt;&lt;br&gt;hypothetical protein&lt;br&gt;Location: 249277 - 249762" locus_tag="DUK33_RS14860" class="clusterblast-orf" id="dummy-1_h1_9_17"  />
</g>
<g id="a1_0018"  >
<polygon points="193,90 195,90 200,85 195,80 193,80 193,90 " style="fill:white; stroke-width:1; stroke:black; " description="&lt;b&gt;DUK33_RS14865&lt;/b&gt;&lt;br&gt;helix-turn-helix transcriptional regulator&lt;br&gt;Location: 249746 - 250156" locus_tag="DUK33_RS14865" class="clusterblast-orf" id="dummy-1_h1_9_18"  />
</g>
<g id="a1_0019"  >
<polygon points="200,90 201,90 206,85 201,80 200,80 200,90 " style="fill:white; stroke-width:1; stroke:black; " description="&lt;b&gt;DUK33_RS14870&lt;/b&gt;&lt;br&gt;hypothetical protein&lt;br&gt;Location: 250162 - 250587" locus_tag="DUK33_RS14870" class="clusterblast-orf" id="dummy-1_h1_9_19"  />
</g>
<g id="a1_0020"  >
<polygon points="212,85 217,80 223,80 223,90 217,90 212,85 " style="fill:white; stroke-width:1; stroke:black; " description="&lt;b&gt;DUK33_RS14880&lt;/b&gt;&lt;br&gt;response regulator transcription factor&lt;br&gt;Location: 250976 - 251743" locus_tag="DUK33_RS14880" class="clusterblast-orf" id="dummy-1_h1_9_20"  />
</g>
<g id="a1_0021"  >
<polygon points="227,85 232,80 237,80 237,90 232,90 227,85 " style="fill:white; stroke-width:1; stroke:black; " description="&lt;b&gt;DUK33_RS14885&lt;/b&gt;&lt;br&gt;Crp/Fnr family transcriptional regulator&lt;br&gt;Location: 252002 - 252673" locus_tag="DUK33_RS14885" class="clusterblast-orf" id="dummy-1_h1_9_21"  />
</g>
<g id="a1_0022"  >
<polygon points="241,85 246,80 260,80 260,90 246,90 241,85 " style="fill:white; stroke-width:1; stroke:black; " description="&lt;b&gt;DUK33_RS14890&lt;/b&gt;&lt;br&gt;polysaccharide pyruvyl transferase family protein&lt;br&gt;Location: 252927 - 254147" locus_tag="DUK33_RS14890" class="clusterblast-orf" id="dummy-1_h1_9_22"  />
</g>
<g id="a1_0023"  >
<polygon points="261,85 266,80 281,80 281,90 266,90 261,85 " style="fill:white; stroke-width:1; stroke:black; " description="&lt;b&gt;DUK33_RS14895&lt;/b&gt;&lt;br&gt;hypothetical protein&lt;br&gt;Location: 254213 - 255559" locus_tag="DUK33_RS14895" class="clusterblast-orf" id="dummy-1_h1_9_23"  />
</g>
<g id="a1_0024"  >
<polygon points="283,90 291,90 296,85 291,80 283,80 283,90 " style="fill:white; stroke-width:1; stroke:black; " description="&lt;b&gt;DUK33_RS14900&lt;/b&gt;&lt;br&gt;glycoside hydrolase family 16 protein&lt;br&gt;Location: 255719 - 256561" locus_tag="DUK33_RS14900" class="clusterblast-orf" id="dummy-1_h1_9_24"  />
</g>
<g id="a1_0025"  >
<polygon points="300,90 324,90 329,85 324,80 300,80 300,90 " style="fill:#7715d8; stroke-width:1; stroke:black; " description="&lt;b&gt;DUK33_RS14905&lt;/b&gt;&lt;br&gt;non-ribosomal peptide synthetase&lt;br&gt;Location: 256852 - 258765&lt;br&gt;&lt;br&gt;&lt;b&gt;BlastP hit with EOMLKCNM_03922&lt;/b&gt;&lt;br&gt;Percentage identity: 39&lt;br&gt;Percentage coverage: 49&lt;br&gt;BLAST bit score: 385&lt;br&gt;E-value: 2.3e-117" locus_tag="DUK33_RS14905" class="clusterblast-orf" id="dummy-1_h1_9_25"  />
</g>
<g id="a1_0026"  >
<polygon points="329,90 446,90 451,85 446,80 329,80 329,90 " style="fill:#7715d8; stroke-width:1; stroke:black; " description="&lt;b&gt;DUK33_RS14910&lt;/b&gt;&lt;br&gt;amino acid adenylation domain-containing protein&lt;br&gt;Location: 258762 - 266846&lt;br&gt;&lt;br&gt;&lt;b&gt;BlastP hit with EOMLKCNM_03922&lt;/b&gt;&lt;br&gt;Percentage identity: 56&lt;br&gt;Percentage coverage: 51&lt;br&gt;BLAST bit score: 689&lt;br&gt;E-value: 1.13e-213" locus_tag="DUK33_RS14910" class="clusterblast-orf" id="dummy-1_h1_9_26"  />
</g>
<g id="a1_0027"  >
<polygon points="450,90 483,90 488,85 483,80 450,80 450,90 " style="fill:white; stroke-width:1; stroke:black; " description="&lt;b&gt;DUK33_RS14915&lt;/b&gt;&lt;br&gt;condensation protein&lt;br&gt;Location: 266843 - 269326" locus_tag="DUK33_RS14915" class="clusterblast-orf" id="dummy-1_h1_9_27"  />
</g>
<g id="a1_0028"  >
<polygon points="490,90 509,90 514,85 509,80 490,80 490,90 " style="fill:white; stroke-width:1; stroke:black; " description="&lt;b&gt;DUK33_RS14920&lt;/b&gt;&lt;br&gt;hypothetical protein&lt;br&gt;Location: 269486 - 271087" locus_tag="DUK33_RS14920" class="clusterblast-orf" id="dummy-1_h1_9_28"  />
</g>
<g id="a1_0029"  >
<polygon points="514,85 519,80 525,80 525,90 519,90 514,85 " style="fill:white; stroke-width:1; stroke:black; " description="&lt;b&gt;DUK33_RS14925&lt;/b&gt;&lt;br&gt;4'-phosphopantetheinyl transferase superfamily protein&lt;br&gt;Location: 271057 - 271794" locus_tag="DUK33_RS14925" class="clusterblast-orf" id="dummy-1_h1_9_29"  />
</g>
<g id="a1_0030"  >
<polygon points="525,85 530,80 543,80 543,90 530,90 525,85 " style="fill:white; stroke-width:1; stroke:black; " description="&lt;b&gt;DUK33_RS14930&lt;/b&gt;&lt;br&gt;DegT/DnrJ/EryC1/StrS family aminotransferase&lt;br&gt;Location: 271796 - 272980" locus_tag="DUK33_RS14930" class="clusterblast-orf" id="dummy-1_h1_9_30"  />
</g>
<g id="a1_0031"  >
<polygon points="545,90 567,90 572,85 567,80 545,80 545,90 " style="fill:white; stroke-width:1; stroke:black; " description="&lt;b&gt;DUK33_RS14935&lt;/b&gt;&lt;br&gt;GMC family oxidoreductase&lt;br&gt;Location: 273154 - 274911" locus_tag="DUK33_RS14935" class="clusterblast-orf" id="dummy-1_h1_9_31"  />
</g>
<g id="a1_0032"  >
<polygon points="573,85 578,80 586,80 586,90 578,90 573,85 " style="fill:#15d8d8; stroke-width:1; stroke:black; " description="&lt;b&gt;DUK33_RS14940&lt;/b&gt;&lt;br&gt;methyltransferase, TIGR04325 family&lt;br&gt;Location: 274998 - 275834&lt;br&gt;&lt;br&gt;&lt;b&gt;BlastP hit with EOMLKCNM_03921&lt;/b&gt;&lt;br&gt;Percentage identity: 46&lt;br&gt;Percentage coverage: 95&lt;br&gt;BLAST bit score: 219&lt;br&gt;E-value: 3.66e-69" locus_tag="DUK33_RS14940" class="clusterblast-orf" id="dummy-1_h1_9_32"  />
</g>
<g id="a1_0033"  >
<polygon points="586,85 591,80 610,80 610,90 591,90 586,85 " style="fill:#77d815; stroke-width:1; stroke:black; " description="&lt;b&gt;DUK33_RS14945&lt;/b&gt;&lt;br&gt;oligosaccharide flippase family protein&lt;br&gt;Location: 275873 - 277459&lt;br&gt;&lt;br&gt;&lt;b&gt;BlastP hit with EOMLKCNM_03920&lt;/b&gt;&lt;br&gt;Percentage identity: 39&lt;br&gt;Percentage coverage: 84&lt;br&gt;BLAST bit score: 271&lt;br&gt;E-value: 8.97e-83" locus_tag="DUK33_RS14945" class="clusterblast-orf" id="dummy-1_h1_9_33"  />
</g>
<g id="a1_0034"  >
<polygon points="613,90 616,85 613,80 613,90 " style="fill:white; stroke-width:1; stroke:black; " description="&lt;b&gt;DUK33_RS31150&lt;/b&gt;&lt;br&gt;hypothetical protein&lt;br&gt;Location: 277660 - 277833" locus_tag="DUK33_RS31150" class="clusterblast-orf" id="dummy-1_h1_9_34"  />
</g>
<g id="a1_0035"  >
<polygon points="616,85 621,80 626,80 626,90 621,90 616,85 " style="fill:white; stroke-width:1; stroke:black; " description="&lt;b&gt;DUK33_RS14950&lt;/b&gt;&lt;br&gt;sugar transferase&lt;br&gt;Location: 277823 - 278515" locus_tag="DUK33_RS14950" class="clusterblast-orf" id="dummy-1_h1_9_35"  />
</g>
<g id="a1_0036"  >
<polygon points="628,85 633,80 648,80 648,90 633,90 628,85 " style="fill:white; stroke-width:1; stroke:black; " description="&lt;b&gt;DUK33_RS14955&lt;/b&gt;&lt;br&gt;glycosyltransferase family 4 protein&lt;br&gt;Location: 278647 - 279954" locus_tag="DUK33_RS14955" class="clusterblast-orf" id="dummy-1_h1_9_36"  />
</g>
<g id="a1_0037"  >
<polygon points="663,85 668,80 697,80 697,90 668,90 663,85 " style="fill:white; stroke-width:1; stroke:black; " description="&lt;b&gt;DUK33_RS14960&lt;/b&gt;&lt;br&gt;polysaccharide biosynthesis tyrosine autokinase&lt;br&gt;Location: 280955 - 283216" locus_tag="DUK33_RS14960" class="clusterblast-orf" id="dummy-1_h1_9_37"  />
</g>
<g id="a1_0038"  >
<polygon points="697,85 702,80 717,80 717,90 702,90 697,85 " style="fill:white; stroke-width:1; stroke:black; " description="&lt;b&gt;DUK33_RS14965&lt;/b&gt;&lt;br&gt;sugar transporter&lt;br&gt;Location: 283246 - 284583" locus_tag="DUK33_RS14965" class="clusterblast-orf" id="dummy-1_h1_9_38"  />
</g>
<g id="a1_0039"  >
<polygon points="722,90 735,90 740,85 735,80 722,80 722,90 " style="fill:white; stroke-width:1; stroke:black; " description="&lt;b&gt;DUK33_RS14970&lt;/b&gt;&lt;br&gt;glycosyltransferase&lt;br&gt;Location: 284896 - 286083" locus_tag="DUK33_RS14970" class="clusterblast-orf" id="dummy-1_h1_9_39"  />
</g>
<g id="a1_0040"  >
<polygon points="746,90 766,90 771,85 766,80 746,80 746,90 " style="fill:white; stroke-width:1; stroke:black; " description="&lt;b&gt;DUK33_RS14975&lt;/b&gt;&lt;br&gt;bifunctional diguanylate cyclase/phosphodiesterase&lt;br&gt;Location: 286471 - 288174" locus_tag="DUK33_RS14975" class="clusterblast-orf" id="dummy-1_h1_9_40"  />
</g>
<g id="a1_0041"  >
<polygon points="772,90 775,90 780,85 775,80 772,80 772,90 " style="fill:white; stroke-width:1; stroke:black; " description="&lt;b&gt;DUK33_RS14980&lt;/b&gt;&lt;br&gt;ubiquinone biosynthesis methyltransferase UbiE&lt;br&gt;Location: 288213 - 288722" locus_tag="DUK33_RS14980" class="clusterblast-orf" id="dummy-1_h1_9_41"  />
</g>
</svg>
