<svg xmlns="http://www.w3.org/2000/svg" xmlns:xlink="http://www.w3.org/1999/xlink" version="1.1" x="0" y="0" height="230" width="800" viewBox="0 0 800 230" preserveAspectRatio="none"  >
<g label="Query sequence" class="clusterblast-cluster"  >
<text x="5" y="20" class="clusterblast-acc"  >
Query sequence</text>
<line x1="10" y1="35" x2="778.0" y2="35" style="stroke-width:1; stroke:grey; "  />
<polygon points="305,40 305,40 310,35 305,30 305,30 305,40 " style="fill:#d81515; stroke-width:1; stroke:black; " description="&lt;b&gt;EOMLKCNM_03262&lt;/b&gt;&lt;br&gt;Petrobactin import system permease protein YclN&lt;br&gt;Location: 22 - 475" locus_tag="EOMLKCNM_03262" class="clusterblast-orf" id="dummy-1_q0_0_all"  />
<polygon points="310,40 315,40 320,35 315,30 310,30 310,40 " style="fill:#15d815; stroke-width:1; stroke:black; " description="&lt;b&gt;EOMLKCNM_03263&lt;/b&gt;&lt;br&gt;Petrobactin import system permease protein YclO&lt;br&gt;Location: 488 - 1433" locus_tag="EOMLKCNM_03263" class="clusterblast-orf" id="dummy-1_q1_0_all"  />
<polygon points="320,40 323,40 328,35 323,30 320,30 320,40 " style="fill:#1597d8; stroke-width:1; stroke:black; " description="&lt;b&gt;EOMLKCNM_03264&lt;/b&gt;&lt;br&gt;Petrobactin import ATP-binding protein YclP&lt;br&gt;Location: 1429 - 2182" locus_tag="EOMLKCNM_03264" class="clusterblast-orf" id="dummy-1_q2_0_all"  />
<polygon points="329,40 338,40 343,35 338,30 329,30 329,40 " style="fill:white; stroke-width:1; stroke:black; " description="&lt;b&gt;EOMLKCNM_03265&lt;/b&gt;&lt;br&gt;Demethylphylloquinone reductase NdbB&lt;br&gt;Location: 2237 - 3566" locus_tag="EOMLKCNM_03265" class="clusterblast-orf" id="dummy-1_q3_0_all"  />
<polygon points="343,35 348,30 349,30 349,40 348,40 343,35 " style="fill:white; stroke-width:1; stroke:black; " description="&lt;b&gt;EOMLKCNM_03266&lt;/b&gt;&lt;br&gt;hypothetical protein&lt;br&gt;Location: 3570 - 4113" locus_tag="EOMLKCNM_03266" class="clusterblast-orf" id="dummy-1_q4_0_all"  />
<polygon points="354,40 362,40 367,35 362,30 354,30 354,40 " style="fill:#9715d8; stroke-width:1; stroke:black; " description="&lt;b&gt;EOMLKCNM_03267&lt;/b&gt;&lt;br&gt;hypothetical protein&lt;br&gt;Location: 4565 - 5762" locus_tag="EOMLKCNM_03267" class="clusterblast-orf" id="dummy-1_q5_0_all"  />
<polygon points="367,40 384,40 389,35 384,30 367,30 367,40 " style="fill:#d89715; stroke-width:1; stroke:black; " description="&lt;b&gt;EOMLKCNM_03268&lt;/b&gt;&lt;br&gt;Putative tyrosine-protein kinase in cps region&lt;br&gt;Location: 5758 - 7876" locus_tag="EOMLKCNM_03268" class="clusterblast-orf" id="dummy-1_q6_0_all"  />
<polygon points="389,40 397,40 402,35 397,30 389,30 389,40 " style="fill:#15d897; stroke-width:1; stroke:black; " description="&lt;b&gt;EOMLKCNM_03269&lt;/b&gt;&lt;br&gt;D-inositol-3-phosphate glycosyltransferase&lt;br&gt;Location: 7865 - 9035" locus_tag="EOMLKCNM_03269" class="clusterblast-orf" id="dummy-1_q7_0_all"  />
<polygon points="401,35 406,30 421,30 421,40 406,40 401,35 " style="fill:#1515d8; stroke-width:1; stroke:black; " description="&lt;b&gt;EOMLKCNM_03270&lt;/b&gt;&lt;br&gt;Cocaine esterase&lt;br&gt;Location: 8980 - 10786" locus_tag="EOMLKCNM_03270" class="clusterblast-orf" id="dummy-1_q8_0_all"  />
<polygon points="421,35 426,30 451,30 451,40 426,40 421,35 " style="fill:#d81597; stroke-width:1; stroke:black; " description="&lt;b&gt;EOMLKCNM_03271&lt;/b&gt;&lt;br&gt;hypothetical protein&lt;br&gt;Location: 10820 - 13583" locus_tag="EOMLKCNM_03271" class="clusterblast-orf" id="dummy-1_q9_0_all"  />
<polygon points="451,35 456,30 474,30 474,40 456,40 451,35 " style="fill:#97d815; stroke-width:1; stroke:black; " description="&lt;b&gt;EOMLKCNM_03272&lt;/b&gt;&lt;br&gt;Polyketide synthase PksJ&lt;br&gt;Location: 13579 - 15754" locus_tag="EOMLKCNM_03272" class="clusterblast-orf" id="dummy-1_q10_0_all"  />
</g>
<g label="NC_009654" description="NC_009654 (1791384-1863995): Marinomonas sp. MWYL1, complete genome (7% of genes show similarity), NRPS" class="clusterblast-cluster"  >
<text x="5" y="70" class="clusterblast-acc"  >
<a xlink:href="https://antismash-db.secondarymetabolites.org/area.html?record=NC_009654&amp;start=1791384&amp;end=1863995" target="_blank">NC_009654 (1791384-1863995)</a>: Marinomonas sp. MWYL1, complete genome (7% of genes show similarity), NRPS</text>
<line x1="10" y1="85" x2="778.0" y2="85" style="stroke-width:1; stroke:grey; "  />
</g>
<g id="a1_000"  >
<polygon points="0,85 5,80 6,80 6,90 5,90 0,85 " style="fill:white; stroke-width:1; stroke:black; " description="&lt;b&gt;MMWYL1_RS08410&lt;/b&gt;&lt;br&gt;fasciclin domain-containing protein&lt;br&gt;Location: 1863995 - 1863426" locus_tag="MMWYL1_RS08410" class="clusterblast-orf" id="dummy-1_h1_6_0"  />
</g>
<g id="a1_001"  >
<polygon points="9,85 11,80 11,90 9,85 " style="fill:white; stroke-width:1; stroke:black; " description="&lt;b&gt;MMWYL1_RS08405&lt;/b&gt;&lt;br&gt;cold-shock protein&lt;br&gt;Location: 1863137 - 1862928" locus_tag="MMWYL1_RS08405" class="clusterblast-orf" id="dummy-1_h1_6_1"  />
</g>
<g id="a1_002"  >
<polygon points="13,85 18,80 26,80 26,90 18,90 13,85 " style="fill:white; stroke-width:1; stroke:black; " description="&lt;b&gt;MMWYL1_RS08400&lt;/b&gt;&lt;br&gt;N-acetylglucosamine-6-phosphate deacetylase&lt;br&gt;Location: 1862720 - 1861569" locus_tag="MMWYL1_RS08400" class="clusterblast-orf" id="dummy-1_h1_6_2"  />
</g>
<g id="a1_003"  >
<polygon points="26,85 31,80 35,80 35,90 31,90 26,85 " style="fill:white; stroke-width:1; stroke:black; " description="&lt;b&gt;MMWYL1_RS08395&lt;/b&gt;&lt;br&gt;N-acetylglucosamine kinase&lt;br&gt;Location: 1861557 - 1860676" locus_tag="MMWYL1_RS08395" class="clusterblast-orf" id="dummy-1_h1_6_3"  />
</g>
<g id="a1_004"  >
<polygon points="35,85 40,80 44,80 44,90 40,90 35,85 " style="fill:white; stroke-width:1; stroke:black; " description="&lt;b&gt;MMWYL1_RS08390&lt;/b&gt;&lt;br&gt;glucosamine-6-phosphate deaminase&lt;br&gt;Location: 1860679 - 1859879" locus_tag="MMWYL1_RS08390" class="clusterblast-orf" id="dummy-1_h1_6_4"  />
</g>
<g id="a1_005"  >
<polygon points="46,90 55,90 60,85 55,80 46,80 46,90 " style="fill:white; stroke-width:1; stroke:black; " description="&lt;b&gt;MMWYL1_RS08385&lt;/b&gt;&lt;br&gt;carbohydrate ABC transporter substrate-binding protein&lt;br&gt;Location: 1859655 - 1858372" locus_tag="MMWYL1_RS08385" class="clusterblast-orf" id="dummy-1_h1_6_5"  />
</g>
<g id="a1_006"  >
<polygon points="61,90 66,90 71,85 66,80 61,80 61,90 " style="fill:white; stroke-width:1; stroke:black; " description="&lt;b&gt;MMWYL1_RS08380&lt;/b&gt;&lt;br&gt;sugar ABC transporter permease&lt;br&gt;Location: 1858286 - 1857351" locus_tag="MMWYL1_RS08380" class="clusterblast-orf" id="dummy-1_h1_6_6"  />
</g>
<g id="a1_007"  >
<polygon points="71,90 75,90 80,85 75,80 71,80 71,90 " style="fill:white; stroke-width:1; stroke:black; " description="&lt;b&gt;MMWYL1_RS08375&lt;/b&gt;&lt;br&gt;carbohydrate ABC transporter permease&lt;br&gt;Location: 1857340 - 1856477" locus_tag="MMWYL1_RS08375" class="clusterblast-orf" id="dummy-1_h1_6_7"  />
</g>
<g id="a1_008"  >
<polygon points="81,90 88,90 93,85 88,80 81,80 81,90 " style="fill:white; stroke-width:1; stroke:black; " description="&lt;b&gt;MMWYL1_RS08370&lt;/b&gt;&lt;br&gt;sn-glycerol-3-phosphate ABC transporter ATP-binding protein UgpC&lt;br&gt;Location: 1856442 - 1855327" locus_tag="MMWYL1_RS08370" class="clusterblast-orf" id="dummy-1_h1_6_8"  />
</g>
<g id="a1_009"  >
<polygon points="93,90 96,90 101,85 96,80 93,80 93,90 " style="fill:white; stroke-width:1; stroke:black; " description="&lt;b&gt;MMWYL1_RS08365&lt;/b&gt;&lt;br&gt;GntR family transcriptional regulator&lt;br&gt;Location: 1855256 - 1854501" locus_tag="MMWYL1_RS08365" class="clusterblast-orf" id="dummy-1_h1_6_9"  />
</g>
<g id="a1_0010"  >
<polygon points="103,85 108,80 117,80 117,90 108,90 103,85 " style="fill:white; stroke-width:1; stroke:black; " description="&lt;b&gt;MMWYL1_RS08360&lt;/b&gt;&lt;br&gt;DUF3422 domain-containing protein&lt;br&gt;Location: 1854403 - 1853075" locus_tag="MMWYL1_RS08360" class="clusterblast-orf" id="dummy-1_h1_6_10"  />
</g>
<g id="a1_0011"  >
<polygon points="117,85 122,80 127,80 127,90 122,90 117,85 " style="fill:white; stroke-width:1; stroke:black; " description="&lt;b&gt;MMWYL1_RS08355&lt;/b&gt;&lt;br&gt;diguanylate cyclase&lt;br&gt;Location: 1853034 - 1852108" locus_tag="MMWYL1_RS08355" class="clusterblast-orf" id="dummy-1_h1_6_11"  />
</g>
<g id="a1_0012"  >
<polygon points="127,85 132,80 153,80 153,90 132,90 127,85 " style="fill:white; stroke-width:1; stroke:black; " description="&lt;b&gt;MMWYL1_RS08350&lt;/b&gt;&lt;br&gt;response regulator&lt;br&gt;Location: 1852102 - 1849733" locus_tag="MMWYL1_RS08350" class="clusterblast-orf" id="dummy-1_h1_6_12"  />
</g>
<g id="a1_0013"  >
<polygon points="153,85 158,80 161,80 161,90 158,90 153,85 " style="fill:white; stroke-width:1; stroke:black; " description="&lt;b&gt;MMWYL1_RS08345&lt;/b&gt;&lt;br&gt;hypothetical protein&lt;br&gt;Location: 1849700 - 1848924" locus_tag="MMWYL1_RS08345" class="clusterblast-orf" id="dummy-1_h1_6_13"  />
</g>
<g id="a1_0014"  >
<polygon points="162,85 167,80 175,80 175,90 167,90 162,85 " style="fill:white; stroke-width:1; stroke:black; " description="&lt;b&gt;MMWYL1_RS08340&lt;/b&gt;&lt;br&gt;A1 family peptidase&lt;br&gt;Location: 1848868 - 1847648" locus_tag="MMWYL1_RS08340" class="clusterblast-orf" id="dummy-1_h1_6_14"  />
</g>
<g id="a1_0015"  >
<polygon points="176,90 177,90 182,85 177,80 176,80 176,90 " style="fill:white; stroke-width:1; stroke:black; " description="&lt;b&gt;MMWYL1_RS08335&lt;/b&gt;&lt;br&gt;hypothetical protein&lt;br&gt;Location: 1847554 - 1847006" locus_tag="MMWYL1_RS08335" class="clusterblast-orf" id="dummy-1_h1_6_15"  />
</g>
<g id="a1_0016"  >
<polygon points="182,85 187,80 188,80 188,90 187,90 182,85 " style="fill:white; stroke-width:1; stroke:black; " description="&lt;b&gt;MMWYL1_RS08330&lt;/b&gt;&lt;br&gt;lipocalin&lt;br&gt;Location: 1846986 - 1846457" locus_tag="MMWYL1_RS08330" class="clusterblast-orf" id="dummy-1_h1_6_16"  />
</g>
<g id="a1_0017"  >
<polygon points="189,90 200,90 205,85 200,80 189,80 189,90 " style="fill:white; stroke-width:1; stroke:black; " description="&lt;b&gt;MMWYL1_RS08325&lt;/b&gt;&lt;br&gt;glycoside hydrolase&lt;br&gt;Location: 1846339 - 1844873" locus_tag="MMWYL1_RS08325" class="clusterblast-orf" id="dummy-1_h1_6_17"  />
</g>
<g id="a1_0018"  >
<polygon points="206,85 211,80 229,80 229,90 211,90 206,85 " style="fill:white; stroke-width:1; stroke:black; " description="&lt;b&gt;MMWYL1_RS08320&lt;/b&gt;&lt;br&gt;condensation protein&lt;br&gt;Location: 1844760 - 1842676" locus_tag="MMWYL1_RS08320" class="clusterblast-orf" id="dummy-1_h1_6_18"  />
</g>
<g id="a1_0019"  >
<polygon points="234,90 241,90 246,85 241,80 234,80 234,90 " style="fill:white; stroke-width:1; stroke:black; " description="&lt;b&gt;MMWYL1_RS08315&lt;/b&gt;&lt;br&gt;histidine decarboxylase&lt;br&gt;Location: 1842196 - 1841045" locus_tag="MMWYL1_RS08315" class="clusterblast-orf" id="dummy-1_h1_6_19"  />
</g>
<g id="a1_0020"  >
<polygon points="247,90 259,90 264,85 259,80 247,80 247,90 " style="fill:white; stroke-width:1; stroke:black; " description="&lt;b&gt;MMWYL1_RS08310&lt;/b&gt;&lt;br&gt;ABC transporter ATP-binding protein&lt;br&gt;Location: 1840980 - 1839370" locus_tag="MMWYL1_RS08310" class="clusterblast-orf" id="dummy-1_h1_6_20"  />
</g>
<g id="a1_0021"  >
<polygon points="264,90 276,90 281,85 276,80 264,80 264,90 " style="fill:white; stroke-width:1; stroke:black; " description="&lt;b&gt;MMWYL1_RS08305&lt;/b&gt;&lt;br&gt;ABC transporter ATP-binding protein&lt;br&gt;Location: 1839373 - 1837781" locus_tag="MMWYL1_RS08305" class="clusterblast-orf" id="dummy-1_h1_6_21"  />
</g>
<g id="a1_0022"  >
<polygon points="282,85 287,80 302,80 302,90 287,90 282,85 " style="fill:white; stroke-width:1; stroke:black; " description="&lt;b&gt;MMWYL1_RS08300&lt;/b&gt;&lt;br&gt;AMP-binding protein&lt;br&gt;Location: 1837709 - 1835844" locus_tag="MMWYL1_RS08300" class="clusterblast-orf" id="dummy-1_h1_6_22"  />
</g>
<g id="a1_0023"  >
<polygon points="303,85 308,80 312,80 312,90 308,90 303,85 " style="fill:white; stroke-width:1; stroke:black; " description="&lt;b&gt;MMWYL1_RS08295&lt;/b&gt;&lt;br&gt;isochorismatase family protein&lt;br&gt;Location: 1835780 - 1834881" locus_tag="MMWYL1_RS08295" class="clusterblast-orf" id="dummy-1_h1_6_23"  />
</g>
<g id="a1_0024"  >
<polygon points="313,85 318,80 330,80 330,90 318,90 313,85 " style="fill:white; stroke-width:1; stroke:black; " description="&lt;b&gt;MMWYL1_RS08290&lt;/b&gt;&lt;br&gt;(2,3-dihydroxybenzoyl)adenylate synthase&lt;br&gt;Location: 1834843 - 1833236" locus_tag="MMWYL1_RS08290" class="clusterblast-orf" id="dummy-1_h1_6_24"  />
</g>
<g id="a1_0025"  >
<polygon points="332,90 358,90 363,85 358,80 332,80 332,90 " style="fill:white; stroke-width:1; stroke:black; " description="&lt;b&gt;MMWYL1_RS08285&lt;/b&gt;&lt;br&gt;peptide synthetase&lt;br&gt;Location: 1833051 - 1830115" locus_tag="MMWYL1_RS08285" class="clusterblast-orf" id="dummy-1_h1_6_25"  />
</g>
<g id="a1_0026"  >
<polygon points="364,90 373,90 378,85 373,80 364,80 364,90 " style="fill:white; stroke-width:1; stroke:black; " description="&lt;b&gt;MMWYL1_RS08280&lt;/b&gt;&lt;br&gt;putative histamine N-monooxygenase&lt;br&gt;Location: 1830081 - 1828744" locus_tag="MMWYL1_RS08280" class="clusterblast-orf" id="dummy-1_h1_6_26"  />
</g>
<g id="a1_0027"  >
<polygon points="379,90 385,90 390,85 385,80 379,80 379,90 " style="fill:#d81515; stroke-width:1; stroke:black; " description="&lt;b&gt;MMWYL1_RS08275&lt;/b&gt;&lt;br&gt;iron chelate uptake ABC transporter family permease subunit&lt;br&gt;Location: 1828626 - 1827685&lt;br&gt;&lt;br&gt;&lt;b&gt;BlastP hit with EOMLKCNM_03262&lt;/b&gt;&lt;br&gt;Percentage identity: 50&lt;br&gt;Percentage coverage: 97&lt;br&gt;BLAST bit score: 144&lt;br&gt;E-value: 3.05e-41" locus_tag="MMWYL1_RS08275" class="clusterblast-orf" id="dummy-1_h1_6_27"  />
</g>
<g id="a1_0028"  >
<polygon points="390,90 395,90 400,85 395,80 390,80 390,90 " style="fill:#15d815; stroke-width:1; stroke:black; " description="&lt;b&gt;MMWYL1_RS08270&lt;/b&gt;&lt;br&gt;iron chelate uptake ABC transporter family permease subunit&lt;br&gt;Location: 1827688 - 1826738&lt;br&gt;&lt;br&gt;&lt;b&gt;BlastP hit with EOMLKCNM_03263&lt;/b&gt;&lt;br&gt;Percentage identity: 35&lt;br&gt;Percentage coverage: 97&lt;br&gt;BLAST bit score: 194&lt;br&gt;E-value: 3.2e-58" locus_tag="MMWYL1_RS08270" class="clusterblast-orf" id="dummy-1_h1_6_28"  />
</g>
<g id="a1_0029"  >
<polygon points="400,90 403,90 408,85 403,80 400,80 400,90 " style="fill:#1597d8; stroke-width:1; stroke:black; " description="&lt;b&gt;MMWYL1_RS08265&lt;/b&gt;&lt;br&gt;ATP-binding cassette domain-containing protein&lt;br&gt;Location: 1826741 - 1825980&lt;br&gt;&lt;br&gt;&lt;b&gt;BlastP hit with EOMLKCNM_03264&lt;/b&gt;&lt;br&gt;Percentage identity: 47&lt;br&gt;Percentage coverage: 96&lt;br&gt;BLAST bit score: 215&lt;br&gt;E-value: 6.25e-68" locus_tag="MMWYL1_RS08265" class="clusterblast-orf" id="dummy-1_h1_6_29"  />
</g>
<g id="a1_0030"  >
<polygon points="408,90 413,90 418,85 413,80 408,80 408,90 " style="fill:white; stroke-width:1; stroke:black; " description="&lt;b&gt;MMWYL1_RS08260&lt;/b&gt;&lt;br&gt;siderophore ABC transporter substrate-binding protein&lt;br&gt;Location: 1825963 - 1825001" locus_tag="MMWYL1_RS08260" class="clusterblast-orf" id="dummy-1_h1_6_30"  />
</g>
<g id="a1_0031"  >
<polygon points="419,90 438,90 443,85 438,80 419,80 419,90 " style="fill:white; stroke-width:1; stroke:black; " description="&lt;b&gt;MMWYL1_RS08255&lt;/b&gt;&lt;br&gt;TonB-dependent siderophore receptor&lt;br&gt;Location: 1824915 - 1822666" locus_tag="MMWYL1_RS08255" class="clusterblast-orf" id="dummy-1_h1_6_31"  />
</g>
<g id="a1_0032"  >
<polygon points="450,85 455,80 458,80 458,90 455,90 450,85 " style="fill:white; stroke-width:1; stroke:black; " description="&lt;b&gt;MMWYL1_RS08250&lt;/b&gt;&lt;br&gt;2,3-dihydro-2,3-dihydroxybenzoate dehydrogenase&lt;br&gt;Location: 1822045 - 1821287" locus_tag="MMWYL1_RS08250" class="clusterblast-orf" id="dummy-1_h1_6_32"  />
</g>
<g id="a1_0033"  >
<polygon points="458,85 463,80 468,80 468,90 463,90 458,85 " style="fill:white; stroke-width:1; stroke:black; " description="&lt;b&gt;MMWYL1_RS08245&lt;/b&gt;&lt;br&gt;isochorismatase family protein&lt;br&gt;Location: 1821290 - 1820406" locus_tag="MMWYL1_RS08245" class="clusterblast-orf" id="dummy-1_h1_6_33"  />
</g>
<g id="a1_0034"  >
<polygon points="470,85 473,80 473,90 470,85 " style="fill:white; stroke-width:1; stroke:black; " description="&lt;b&gt;MMWYL1_RS08240&lt;/b&gt;&lt;br&gt;hypothetical protein&lt;br&gt;Location: 1820197 - 1819958" locus_tag="MMWYL1_RS08240" class="clusterblast-orf" id="dummy-1_h1_6_34"  />
</g>
<g id="a1_0035"  >
<polygon points="473,85 478,80 485,80 485,90 478,90 473,85 " style="fill:white; stroke-width:1; stroke:black; " description="&lt;b&gt;MMWYL1_RS08235&lt;/b&gt;&lt;br&gt;isochorismate synthase&lt;br&gt;Location: 1819961 - 1818786" locus_tag="MMWYL1_RS08235" class="clusterblast-orf" id="dummy-1_h1_6_35"  />
</g>
<g id="a1_0036"  >
<polygon points="491,90 497,90 502,85 497,80 491,80 491,90 " style="fill:white; stroke-width:1; stroke:black; " description="&lt;b&gt;MMWYL1_RS08225&lt;/b&gt;&lt;br&gt;iron ABC transporter permease&lt;br&gt;Location: 1818257 - 1817205" locus_tag="MMWYL1_RS08225" class="clusterblast-orf" id="dummy-1_h1_6_36"  />
</g>
<g id="a1_0037"  >
<polygon points="502,90 506,90 511,85 506,80 502,80 502,90 " style="fill:white; stroke-width:1; stroke:black; " description="&lt;b&gt;MMWYL1_RS08220&lt;/b&gt;&lt;br&gt;ABC transporter ATP-binding protein&lt;br&gt;Location: 1817201 - 1816362" locus_tag="MMWYL1_RS08220" class="clusterblast-orf" id="dummy-1_h1_6_37"  />
</g>
<g id="a1_0038"  >
<polygon points="512,90 520,90 525,85 520,80 512,80 512,90 " style="fill:white; stroke-width:1; stroke:black; " description="&lt;b&gt;MMWYL1_RS08215&lt;/b&gt;&lt;br&gt;MFS transporter&lt;br&gt;Location: 1816282 - 1815044" locus_tag="MMWYL1_RS08215" class="clusterblast-orf" id="dummy-1_h1_6_38"  />
</g>
<g id="a1_0039"  >
<polygon points="527,90 565,90 570,85 565,80 527,80 527,90 " style="fill:#97d815; stroke-width:1; stroke:black; " description="&lt;b&gt;MMWYL1_RS08210&lt;/b&gt;&lt;br&gt;non-ribosomal peptide synthetase&lt;br&gt;Location: 1814901 - 1810861&lt;br&gt;&lt;br&gt;&lt;b&gt;BlastP hit with EOMLKCNM_03272&lt;/b&gt;&lt;br&gt;Percentage identity: 39&lt;br&gt;Percentage coverage: 86&lt;br&gt;BLAST bit score: 360&lt;br&gt;E-value: 3.29e-107" locus_tag="MMWYL1_RS08210" class="clusterblast-orf" id="dummy-1_h1_6_39"  />
</g>
<g id="a1_0040"  >
<polygon points="571,85 576,80 576,80 576,90 576,90 571,85 " style="fill:white; stroke-width:1; stroke:black; " description="&lt;b&gt;MMWYL1_RS08205&lt;/b&gt;&lt;br&gt;nucleoside diphosphate kinase regulator&lt;br&gt;Location: 1810767 - 1810354" locus_tag="MMWYL1_RS08205" class="clusterblast-orf" id="dummy-1_h1_6_40"  />
</g>
<g id="a1_0041"  >
<polygon points="579,85 584,80 596,80 596,90 584,90 579,85 " style="fill:white; stroke-width:1; stroke:black; " description="&lt;b&gt;MMWYL1_RS08200&lt;/b&gt;&lt;br&gt;glycoside hydrolase family 3 protein&lt;br&gt;Location: 1810052 - 1808428" locus_tag="MMWYL1_RS08200" class="clusterblast-orf" id="dummy-1_h1_6_41"  />
</g>
<g id="a1_0042"  >
<polygon points="597,85 602,80 611,80 611,90 602,90 597,85 " style="fill:white; stroke-width:1; stroke:black; " description="&lt;b&gt;MMWYL1_RS08195&lt;/b&gt;&lt;br&gt;MFS transporter&lt;br&gt;Location: 1808408 - 1807062" locus_tag="MMWYL1_RS08195" class="clusterblast-orf" id="dummy-1_h1_6_42"  />
</g>
<g id="a1_0043"  >
<polygon points="612,85 617,80 622,80 622,90 617,90 612,85 " style="fill:white; stroke-width:1; stroke:black; " description="&lt;b&gt;MMWYL1_RS08190&lt;/b&gt;&lt;br&gt;AraC family transcriptional regulator&lt;br&gt;Location: 1806942 - 1806043" locus_tag="MMWYL1_RS08190" class="clusterblast-orf" id="dummy-1_h1_6_43"  />
</g>
<g id="a1_0044"  >
<polygon points="624,85 629,80 638,80 638,90 629,90 624,85 " style="fill:white; stroke-width:1; stroke:black; " description="&lt;b&gt;MMWYL1_RS08185&lt;/b&gt;&lt;br&gt;L-fucose:H+ symporter permease&lt;br&gt;Location: 1805884 - 1804580" locus_tag="MMWYL1_RS08185" class="clusterblast-orf" id="dummy-1_h1_6_44"  />
</g>
<g id="a1_0045"  >
<polygon points="642,85 647,80 668,80 668,90 647,90 642,85 " style="fill:white; stroke-width:1; stroke:black; " description="&lt;b&gt;MMWYL1_RS08180&lt;/b&gt;&lt;br&gt;zinc/cadmium/mercury/lead-transporting ATPase&lt;br&gt;Location: 1804215 - 1801804" locus_tag="MMWYL1_RS08180" class="clusterblast-orf" id="dummy-1_h1_6_45"  />
</g>
<g id="a1_0046"  >
<polygon points="669,85 672,80 672,90 669,85 " style="fill:white; stroke-width:1; stroke:black; " description="&lt;b&gt;MMWYL1_RS08175&lt;/b&gt;&lt;br&gt;hypothetical protein&lt;br&gt;Location: 1801704 - 1801420" locus_tag="MMWYL1_RS08175" class="clusterblast-orf" id="dummy-1_h1_6_46"  />
</g>
<g id="a1_0047"  >
<polygon points="673,85 678,80 679,80 679,90 678,90 673,85 " style="fill:white; stroke-width:1; stroke:black; " description="&lt;b&gt;MMWYL1_RS08170&lt;/b&gt;&lt;br&gt;hydrolase&lt;br&gt;Location: 1801309 - 1800770" locus_tag="MMWYL1_RS08170" class="clusterblast-orf" id="dummy-1_h1_6_47"  />
</g>
<g id="a1_0048"  >
<polygon points="679,85 684,80 685,80 685,90 684,90 679,85 " style="fill:white; stroke-width:1; stroke:black; " description="&lt;b&gt;MMWYL1_RS08165&lt;/b&gt;&lt;br&gt;pentapeptide repeat-containing protein&lt;br&gt;Location: 1800736 - 1800137" locus_tag="MMWYL1_RS08165" class="clusterblast-orf" id="dummy-1_h1_6_48"  />
</g>
<g id="a1_0049"  >
<polygon points="687,90 702,90 707,85 702,80 687,80 687,90 " style="fill:white; stroke-width:1; stroke:black; " description="&lt;b&gt;MMWYL1_RS08160&lt;/b&gt;&lt;br&gt;iron ABC transporter permease&lt;br&gt;Location: 1799952 - 1798123" locus_tag="MMWYL1_RS08160" class="clusterblast-orf" id="dummy-1_h1_6_49"  />
</g>
<g id="a1_0050"  >
<polygon points="707,90 715,90 720,85 715,80 707,80 707,90 " style="fill:white; stroke-width:1; stroke:black; " description="&lt;b&gt;MMWYL1_RS08155&lt;/b&gt;&lt;br&gt;ABC transporter ATP-binding protein&lt;br&gt;Location: 1798121 - 1796937" locus_tag="MMWYL1_RS08155" class="clusterblast-orf" id="dummy-1_h1_6_50"  />
</g>
<g id="a1_0051"  >
<polygon points="720,90 727,90 732,85 727,80 720,80 720,90 " style="fill:white; stroke-width:1; stroke:black; " description="&lt;b&gt;MMWYL1_RS08150&lt;/b&gt;&lt;br&gt;ABC transporter substrate-binding protein&lt;br&gt;Location: 1796900 - 1795794" locus_tag="MMWYL1_RS08150" class="clusterblast-orf" id="dummy-1_h1_6_51"  />
</g>
<g id="a1_0052"  >
<polygon points="733,90 738,90 743,85 738,80 733,80 733,90 " style="fill:white; stroke-width:1; stroke:black; " description="&lt;b&gt;MMWYL1_RS08145&lt;/b&gt;&lt;br&gt;inositol monophosphatase&lt;br&gt;Location: 1795683 - 1794826" locus_tag="MMWYL1_RS08145" class="clusterblast-orf" id="dummy-1_h1_6_52"  />
</g>
<g id="a1_0053"  >
<polygon points="743,90 745,90 750,85 745,80 743,80 743,90 " style="fill:white; stroke-width:1; stroke:black; " description="&lt;b&gt;MMWYL1_RS08140&lt;/b&gt;&lt;br&gt;dual specificity protein phosphatase family protein&lt;br&gt;Location: 1794767 - 1794132" locus_tag="MMWYL1_RS08140" class="clusterblast-orf" id="dummy-1_h1_6_53"  />
</g>
<g id="a1_0054"  >
<polygon points="750,90 756,90 761,85 756,80 750,80 750,90 " style="fill:white; stroke-width:1; stroke:black; " description="&lt;b&gt;MMWYL1_RS08135&lt;/b&gt;&lt;br&gt;LacI family DNA-binding transcriptional regulator&lt;br&gt;Location: 1794135 - 1793113" locus_tag="MMWYL1_RS08135" class="clusterblast-orf" id="dummy-1_h1_6_54"  />
</g>
<g id="a1_0055"  >
<polygon points="762,90 766,85 762,80 762,90 " style="fill:white; stroke-width:1; stroke:black; " description="&lt;b&gt;MMWYL1_RS08130&lt;/b&gt;&lt;br&gt;acyl-CoA thioesterase&lt;br&gt;Location: 1793011 - 1792598" locus_tag="MMWYL1_RS08130" class="clusterblast-orf" id="dummy-1_h1_6_55"  />
</g>
<g id="a1_0056"  >
<polygon points="768,90 775,90 780,85 775,80 768,80 768,90 " style="fill:white; stroke-width:1; stroke:black; " description="&lt;b&gt;MMWYL1_RS08125&lt;/b&gt;&lt;br&gt;DUF748 domain-containing protein&lt;br&gt;Location: 1792458 - 1791385" locus_tag="MMWYL1_RS08125" class="clusterblast-orf" id="dummy-1_h1_6_56"  />
</g>
</svg>
