<svg xmlns="http://www.w3.org/2000/svg" xmlns:xlink="http://www.w3.org/1999/xlink" version="1.1" x="0" y="0" height="230" width="800" viewBox="0 0 800 230" preserveAspectRatio="none"  >
<g label="Query sequence" class="clusterblast-cluster"  >
<text x="5" y="20" class="clusterblast-acc"  >
Query sequence</text>
<line x1="10" y1="35" x2="778.0" y2="35" style="stroke-width:1; stroke:grey; "  />
<polygon points="327,35 332,30 352,30 352,40 332,40 327,35 " style="fill:#d81515; stroke-width:1; stroke:black; " description="&lt;b&gt;EOMLKCNM_03919&lt;/b&gt;&lt;br&gt;hypothetical protein&lt;br&gt;Location: 345 - 1944" locus_tag="EOMLKCNM_03919" class="clusterblast-orf" id="dummy-1_q0_0_all"  />
<polygon points="352,40 371,40 376,35 371,30 352,30 352,40 " style="fill:#77d815; stroke-width:1; stroke:black; " description="&lt;b&gt;EOMLKCNM_03920&lt;/b&gt;&lt;br&gt;hypothetical protein&lt;br&gt;Location: 1971 - 3468" locus_tag="EOMLKCNM_03920" class="clusterblast-orf" id="dummy-1_q1_0_all"  />
<polygon points="375,40 383,40 388,35 383,30 375,30 375,40 " style="fill:#15d8d8; stroke-width:1; stroke:black; " description="&lt;b&gt;EOMLKCNM_03921&lt;/b&gt;&lt;br&gt;hypothetical protein&lt;br&gt;Location: 3464 - 4265" locus_tag="EOMLKCNM_03921" class="clusterblast-orf" id="dummy-1_q2_0_all"  />
<polygon points="393,40 447,40 452,35 447,30 393,30 393,40 " style="fill:#7715d8; stroke-width:1; stroke:black; " description="&lt;b&gt;EOMLKCNM_03922&lt;/b&gt;&lt;br&gt;Polyketide synthase PksJ&lt;br&gt;Location: 4609 - 8416" locus_tag="EOMLKCNM_03922" class="clusterblast-orf" id="dummy-1_q3_0_all"  />
</g>
<g label="NZ_CP023064" description="NZ_CP023064 (810848-863602): Sinorhizobium sp. CCBAU 05631 plasmid pSS05631b,... (16% of genes show similarity), NRPS,T1PKS" class="clusterblast-cluster"  >
<text x="5" y="70" class="clusterblast-acc"  >
<a xlink:href="https://antismash-db.secondarymetabolites.org/area.html?record=NZ_CP023064&amp;start=810848&amp;end=863602" target="_blank">NZ_CP023064 (810848-863602)</a>: Sinorhizobium sp. CCBAU 05631 plasmid pSS05631b,... (16% of genes show similarity), NRPS,T1PKS</text>
<line x1="10" y1="85" x2="778.0" y2="85" style="stroke-width:1; stroke:grey; "  />
</g>
<g id="a1_000"  >
<polygon points="0,90 7,90 12,85 7,80 0,80 0,90 " style="fill:white; stroke-width:1; stroke:black; " description="&lt;b&gt;SS05631_RS23545&lt;/b&gt;&lt;br&gt;MerR family transcriptional regulator&lt;br&gt;Location: 862593 - 861766" locus_tag="SS05631_RS23545" class="clusterblast-orf" id="dummy-1_h1_5_0"  />
</g>
<g id="a1_001"  >
<polygon points="18,90 30,90 35,85 30,80 18,80 18,90 " style="fill:white; stroke-width:1; stroke:black; " description="&lt;b&gt;SS05631_RS23540&lt;/b&gt;&lt;br&gt;acyltransferase&lt;br&gt;Location: 861418 - 860282" locus_tag="SS05631_RS23540" class="clusterblast-orf" id="dummy-1_h1_5_1"  />
</g>
<g id="a1_002"  >
<polygon points="36,90 48,90 53,85 48,80 36,80 36,90 " style="fill:white; stroke-width:1; stroke:black; " description="&lt;b&gt;SS05631_RS23535&lt;/b&gt;&lt;br&gt;glycosyltransferase&lt;br&gt;Location: 860267 - 859164" locus_tag="SS05631_RS23535" class="clusterblast-orf" id="dummy-1_h1_5_2"  />
</g>
<g id="a1_003"  >
<polygon points="53,90 63,90 68,85 63,80 53,80 53,90 " style="fill:white; stroke-width:1; stroke:black; " description="&lt;b&gt;SS05631_RS23530&lt;/b&gt;&lt;br&gt;glycosyltransferase&lt;br&gt;Location: 859162 - 858146" locus_tag="SS05631_RS23530" class="clusterblast-orf" id="dummy-1_h1_5_3"  />
</g>
<g id="a1_004"  >
<polygon points="68,90 91,90 96,85 91,80 68,80 68,90 " style="fill:white; stroke-width:1; stroke:black; " description="&lt;b&gt;SS05631_RS23525&lt;/b&gt;&lt;br&gt;ABC transporter ATP-binding protein&lt;br&gt;Location: 858146 - 856353" locus_tag="SS05631_RS23525" class="clusterblast-orf" id="dummy-1_h1_5_4"  />
</g>
<g id="a1_005"  >
<polygon points="97,85 102,80 114,80 114,90 102,90 97,85 " style="fill:white; stroke-width:1; stroke:black; " description="&lt;b&gt;SS05631_RS23520&lt;/b&gt;&lt;br&gt;fructose-bisphosphate aldolase class II&lt;br&gt;Location: 856289 - 855243" locus_tag="SS05631_RS23520" class="clusterblast-orf" id="dummy-1_h1_5_5"  />
</g>
<g id="a1_006"  >
<polygon points="125,90 145,90 150,85 145,80 125,80 125,90 " style="fill:white; stroke-width:1; stroke:black; " description="&lt;b&gt;SS05631_RS23515&lt;/b&gt;&lt;br&gt;peptide ABC transporter substrate-binding protein&lt;br&gt;Location: 854489 - 852891" locus_tag="SS05631_RS23515" class="clusterblast-orf" id="dummy-1_h1_5_6"  />
</g>
<g id="a1_007"  >
<polygon points="151,90 160,90 165,85 160,80 151,80 151,90 " style="fill:white; stroke-width:1; stroke:black; " description="&lt;b&gt;SS05631_RS23510&lt;/b&gt;&lt;br&gt;oligopeptide ABC transporter permease OppB&lt;br&gt;Location: 852839 - 851916" locus_tag="SS05631_RS23510" class="clusterblast-orf" id="dummy-1_h1_5_7"  />
</g>
<g id="a1_008"  >
<polygon points="165,90 178,90 183,85 178,80 165,80 165,90 " style="fill:white; stroke-width:1; stroke:black; " description="&lt;b&gt;SS05631_RS23505&lt;/b&gt;&lt;br&gt;ABC transporter permease subunit&lt;br&gt;Location: 851923 - 850793" locus_tag="SS05631_RS23505" class="clusterblast-orf" id="dummy-1_h1_5_8"  />
</g>
<g id="a1_009"  >
<polygon points="183,90 202,90 207,85 202,80 183,80 183,90 " style="fill:white; stroke-width:1; stroke:black; " description="&lt;b&gt;SS05631_RS23500&lt;/b&gt;&lt;br&gt;ABC transporter ATP-binding protein&lt;br&gt;Location: 850791 - 849190" locus_tag="SS05631_RS23500" class="clusterblast-orf" id="dummy-1_h1_5_9"  />
</g>
<g id="a1_0010"  >
<polygon points="214,85 219,80 225,80 225,90 219,90 214,85 " style="fill:white; stroke-width:1; stroke:black; " description="&lt;b&gt;SS05631_RS23490&lt;/b&gt;&lt;br&gt;response regulator transcription factor&lt;br&gt;Location: 848791 - 848024" locus_tag="SS05631_RS23490" class="clusterblast-orf" id="dummy-1_h1_5_10"  />
</g>
<g id="a1_0011"  >
<polygon points="232,85 237,80 251,80 251,90 237,90 232,85 " style="fill:white; stroke-width:1; stroke:black; " description="&lt;b&gt;SS05631_RS23485&lt;/b&gt;&lt;br&gt;polysaccharide pyruvyl transferase family protein&lt;br&gt;Location: 847624 - 846350" locus_tag="SS05631_RS23485" class="clusterblast-orf" id="dummy-1_h1_5_11"  />
</g>
<g id="a1_0012"  >
<polygon points="253,85 258,80 274,80 274,90 258,90 253,85 " style="fill:#d81515; stroke-width:1; stroke:black; " description="&lt;b&gt;SS05631_RS23480&lt;/b&gt;&lt;br&gt;hypothetical protein&lt;br&gt;Location: 846272 - 844905&lt;br&gt;&lt;br&gt;&lt;b&gt;BlastP hit with EOMLKCNM_03919&lt;/b&gt;&lt;br&gt;Percentage identity: 34&lt;br&gt;Percentage coverage: 80&lt;br&gt;BLAST bit score: 124&lt;br&gt;E-value: 1.51e-28" locus_tag="SS05631_RS23480" class="clusterblast-orf" id="dummy-1_h1_5_12"  />
</g>
<g id="a1_0013"  >
<polygon points="276,90 284,90 289,85 284,80 276,80 276,90 " style="fill:white; stroke-width:1; stroke:black; " description="&lt;b&gt;SS05631_RS23475&lt;/b&gt;&lt;br&gt;glycoside hydrolase family 16 protein&lt;br&gt;Location: 844767 - 843910" locus_tag="SS05631_RS23475" class="clusterblast-orf" id="dummy-1_h1_5_13"  />
</g>
<g id="a1_0014"  >
<polygon points="294,90 319,90 324,85 319,80 294,80 294,90 " style="fill:#7715d8; stroke-width:1; stroke:black; " description="&lt;b&gt;SS05631_RS23470&lt;/b&gt;&lt;br&gt;non-ribosomal peptide synthetase&lt;br&gt;Location: 843602 - 841659&lt;br&gt;&lt;br&gt;&lt;b&gt;BlastP hit with EOMLKCNM_03922&lt;/b&gt;&lt;br&gt;Percentage identity: 40&lt;br&gt;Percentage coverage: 49&lt;br&gt;BLAST bit score: 410&lt;br&gt;E-value: 1.42e-126" locus_tag="SS05631_RS23470" class="clusterblast-orf" id="dummy-1_h1_5_14"  />
</g>
<g id="a1_0015"  >
<polygon points="324,90 444,90 449,85 444,80 324,80 324,90 " style="fill:#7715d8; stroke-width:1; stroke:black; " description="&lt;b&gt;SS05631_RS23465&lt;/b&gt;&lt;br&gt;hybrid non-ribosomal peptide synthetase/type I polyketide synthase&lt;br&gt;Location: 841662 - 833623&lt;br&gt;&lt;br&gt;&lt;b&gt;BlastP hit with EOMLKCNM_03922&lt;/b&gt;&lt;br&gt;Percentage identity: 55&lt;br&gt;Percentage coverage: 51&lt;br&gt;BLAST bit score: 664&lt;br&gt;E-value: 7.6e-205" locus_tag="SS05631_RS23465" class="clusterblast-orf" id="dummy-1_h1_5_15"  />
</g>
<g id="a1_0016"  >
<polygon points="449,90 487,90 492,85 487,80 449,80 449,90 " style="fill:white; stroke-width:1; stroke:black; " description="&lt;b&gt;SS05631_RS23460&lt;/b&gt;&lt;br&gt;condensation protein&lt;br&gt;Location: 833626 - 830849" locus_tag="SS05631_RS23460" class="clusterblast-orf" id="dummy-1_h1_5_16"  />
</g>
<g id="a1_0017"  >
<polygon points="492,90 512,90 517,85 512,80 492,80 492,90 " style="fill:white; stroke-width:1; stroke:black; " description="&lt;b&gt;SS05631_RS23455&lt;/b&gt;&lt;br&gt;hypothetical protein&lt;br&gt;Location: 830825 - 829251" locus_tag="SS05631_RS23455" class="clusterblast-orf" id="dummy-1_h1_5_17"  />
</g>
<g id="a1_0018"  >
<polygon points="515,85 520,80 528,80 528,90 520,90 515,85 " style="fill:white; stroke-width:1; stroke:black; " description="&lt;b&gt;SS05631_RS23450&lt;/b&gt;&lt;br&gt;4'-phosphopantetheinyl transferase superfamily protein&lt;br&gt;Location: 829330 - 828527" locus_tag="SS05631_RS23450" class="clusterblast-orf" id="dummy-1_h1_5_18"  />
</g>
<g id="a1_0019"  >
<polygon points="528,85 533,80 546,80 546,90 533,90 528,85 " style="fill:white; stroke-width:1; stroke:black; " description="&lt;b&gt;SS05631_RS23445&lt;/b&gt;&lt;br&gt;aminotransferase class I/II-fold pyridoxal phosphate-dependent enzyme&lt;br&gt;Location: 828537 - 827359" locus_tag="SS05631_RS23445" class="clusterblast-orf" id="dummy-1_h1_5_19"  />
</g>
<g id="a1_0020"  >
<polygon points="550,90 572,90 577,85 572,80 550,80 550,90 " style="fill:white; stroke-width:1; stroke:black; " description="&lt;b&gt;SS05631_RS23440&lt;/b&gt;&lt;br&gt;GMC family oxidoreductase&lt;br&gt;Location: 827094 - 825388" locus_tag="SS05631_RS23440" class="clusterblast-orf" id="dummy-1_h1_5_20"  />
</g>
<g id="a1_0021"  >
<polygon points="577,85 582,80 590,80 590,90 582,90 577,85 " style="fill:#15d8d8; stroke-width:1; stroke:black; " description="&lt;b&gt;SS05631_RS23435&lt;/b&gt;&lt;br&gt;methyltransferase, TIGR04325 family&lt;br&gt;Location: 825350 - 824529&lt;br&gt;&lt;br&gt;&lt;b&gt;BlastP hit with EOMLKCNM_03921&lt;/b&gt;&lt;br&gt;Percentage identity: 45&lt;br&gt;Percentage coverage: 95&lt;br&gt;BLAST bit score: 214&lt;br&gt;E-value: 4.07e-67" locus_tag="SS05631_RS23435" class="clusterblast-orf" id="dummy-1_h1_5_21"  />
</g>
<g id="a1_0022"  >
<polygon points="591,85 596,80 613,80 613,90 596,90 591,85 " style="fill:#77d815; stroke-width:1; stroke:black; " description="&lt;b&gt;SS05631_RS23430&lt;/b&gt;&lt;br&gt;oligosaccharide flippase family protein&lt;br&gt;Location: 824490 - 823069&lt;br&gt;&lt;br&gt;&lt;b&gt;BlastP hit with EOMLKCNM_03920&lt;/b&gt;&lt;br&gt;Percentage identity: 39&lt;br&gt;Percentage coverage: 81&lt;br&gt;BLAST bit score: 249&lt;br&gt;E-value: 5.63e-75" locus_tag="SS05631_RS23430" class="clusterblast-orf" id="dummy-1_h1_5_22"  />
</g>
<g id="a1_0023"  >
<polygon points="621,85 626,80 631,80 631,90 626,90 621,85 " style="fill:white; stroke-width:1; stroke:black; " description="&lt;b&gt;SS05631_RS23420&lt;/b&gt;&lt;br&gt;sugar transferase&lt;br&gt;Location: 822534 - 821857" locus_tag="SS05631_RS23420" class="clusterblast-orf" id="dummy-1_h1_5_23"  />
</g>
<g id="a1_0024"  >
<polygon points="634,85 639,80 654,80 654,90 639,90 634,85 " style="fill:white; stroke-width:1; stroke:black; " description="&lt;b&gt;SS05631_RS23415&lt;/b&gt;&lt;br&gt;glycosyltransferase family 4 protein&lt;br&gt;Location: 821675 - 820380" locus_tag="SS05631_RS23415" class="clusterblast-orf" id="dummy-1_h1_5_24"  />
</g>
<g id="a1_0025"  >
<polygon points="654,85 659,80 669,80 669,90 659,90 654,85 " style="fill:white; stroke-width:1; stroke:black; " description="&lt;b&gt;SS05631_RS23410&lt;/b&gt;&lt;br&gt;glycosyltransferase family 2 protein&lt;br&gt;Location: 820365 - 819403" locus_tag="SS05631_RS23410" class="clusterblast-orf" id="dummy-1_h1_5_25"  />
</g>
<g id="a1_0026"  >
<polygon points="669,85 674,80 704,80 704,90 674,90 669,85 " style="fill:white; stroke-width:1; stroke:black; " description="&lt;b&gt;SS05631_RS23405&lt;/b&gt;&lt;br&gt;lipopolysaccharide biosynthesis protein&lt;br&gt;Location: 819424 - 817145" locus_tag="SS05631_RS23405" class="clusterblast-orf" id="dummy-1_h1_5_26"  />
</g>
<g id="a1_0027"  >
<polygon points="705,85 710,80 726,80 726,90 710,90 705,85 " style="fill:white; stroke-width:1; stroke:black; " description="&lt;b&gt;SS05631_RS23400&lt;/b&gt;&lt;br&gt;polysaccharide biosynthesis/export family protein&lt;br&gt;Location: 817103 - 815781" locus_tag="SS05631_RS23400" class="clusterblast-orf" id="dummy-1_h1_5_27"  />
</g>
<g id="a1_0028"  >
<polygon points="731,90 744,90 749,85 744,80 731,80 731,90 " style="fill:white; stroke-width:1; stroke:black; " description="&lt;b&gt;SS05631_RS23395&lt;/b&gt;&lt;br&gt;glycosyltransferase&lt;br&gt;Location: 815451 - 814273" locus_tag="SS05631_RS23395" class="clusterblast-orf" id="dummy-1_h1_5_28"  />
</g>
<g id="a1_0029"  >
<polygon points="756,90 775,90 780,85 775,80 756,80 756,90 " style="fill:white; stroke-width:1; stroke:black; " description="&lt;b&gt;SS05631_RS23390&lt;/b&gt;&lt;br&gt;phosphomannomutase/phosphoglucomutase&lt;br&gt;Location: 813841 - 812306" locus_tag="SS05631_RS23390" class="clusterblast-orf" id="dummy-1_h1_5_29"  />
</g>
</svg>
