<svg xmlns="http://www.w3.org/2000/svg" xmlns:xlink="http://www.w3.org/1999/xlink" version="1.1" x="0" y="0" height="230" width="800" viewBox="0 0 800 230" preserveAspectRatio="none"  >
<g label="Query sequence" class="clusterblast-cluster"  >
<text x="5" y="20" class="clusterblast-acc"  >
Query sequence</text>
<line x1="10" y1="35" x2="778.0" y2="35" style="stroke-width:1; stroke:grey; "  />
<polygon points="197,35 202,30 214,30 214,40 202,40 197,35 " style="fill:#d81515; stroke-width:1; stroke:black; " description="&lt;b&gt;EOMLKCNM_02754&lt;/b&gt;&lt;br&gt;hypothetical protein&lt;br&gt;Location: 409 - 883" locus_tag="EOMLKCNM_02754" class="clusterblast-orf" id="dummy-1_q0_0_all"  />
<polygon points="215,35 220,30 225,30 225,40 220,40 215,35 " style="fill:#15d815; stroke-width:1; stroke:black; " description="&lt;b&gt;EOMLKCNM_02755&lt;/b&gt;&lt;br&gt;hypothetical protein&lt;br&gt;Location: 896 - 1175" locus_tag="EOMLKCNM_02755" class="clusterblast-orf" id="dummy-1_q1_0_all"  />
<polygon points="229,35 234,30 234,30 234,40 234,40 229,35 " style="fill:#1597d8; stroke-width:1; stroke:black; " description="&lt;b&gt;EOMLKCNM_02756&lt;/b&gt;&lt;br&gt;hypothetical protein&lt;br&gt;Location: 1286 - 1439" locus_tag="EOMLKCNM_02756" class="clusterblast-orf" id="dummy-1_q2_0_all"  />
<polygon points="247,40 283,40 288,35 283,30 247,30 247,40 " style="fill:#9715d8; stroke-width:1; stroke:black; " description="&lt;b&gt;EOMLKCNM_02757&lt;/b&gt;&lt;br&gt;hypothetical protein&lt;br&gt;Location: 1799 - 2933" locus_tag="EOMLKCNM_02757" class="clusterblast-orf" id="dummy-1_q3_0_all"  />
<polygon points="288,40 318,40 323,35 318,30 288,30 288,40 " style="fill:#d89715; stroke-width:1; stroke:black; " description="&lt;b&gt;EOMLKCNM_02758&lt;/b&gt;&lt;br&gt;hypothetical protein&lt;br&gt;Location: 2929 - 3901" locus_tag="EOMLKCNM_02758" class="clusterblast-orf" id="dummy-1_q4_0_all"  />
<polygon points="323,35 328,30 366,30 366,40 328,40 323,35 " style="fill:#d89715; stroke-width:1; stroke:black; " description="&lt;b&gt;EOMLKCNM_02759&lt;/b&gt;&lt;br&gt;hypothetical protein&lt;br&gt;Location: 3901 - 5083" locus_tag="EOMLKCNM_02759" class="clusterblast-orf" id="dummy-1_q5_0_all"  />
<polygon points="374,40 397,40 402,35 397,30 374,30 374,40 " style="fill:#15d897; stroke-width:1; stroke:black; " description="&lt;b&gt;EOMLKCNM_02760&lt;/b&gt;&lt;br&gt;Endo-1,3-1,4-beta-glycanase ExoK&lt;br&gt;Location: 5307 - 6081" locus_tag="EOMLKCNM_02760" class="clusterblast-orf" id="dummy-1_q6_0_all"  />
<polygon points="403,40 446,40 451,35 446,30 403,30 403,40 " style="fill:#1515d8; stroke-width:1; stroke:black; " description="&lt;b&gt;EOMLKCNM_02761&lt;/b&gt;&lt;br&gt;hypothetical protein&lt;br&gt;Location: 6095 - 7427" locus_tag="EOMLKCNM_02761" class="clusterblast-orf" id="dummy-1_q7_0_all"  />
<polygon points="453,35 458,30 498,30 498,40 458,40 453,35 " style="fill:#d81597; stroke-width:1; stroke:black; " description="&lt;b&gt;EOMLKCNM_02762&lt;/b&gt;&lt;br&gt;hypothetical protein&lt;br&gt;Location: 7481 - 8717" locus_tag="EOMLKCNM_02762" class="clusterblast-orf" id="dummy-1_q8_0_all"  />
<polygon points="500,35 505,30 526,30 526,40 505,40 500,35 " style="fill:#97d815; stroke-width:1; stroke:black; " description="&lt;b&gt;EOMLKCNM_02763&lt;/b&gt;&lt;br&gt;UDP-glucose:undecaprenyl-phosphate glucose-1-phosphate transferase&lt;br&gt;Location: 8771 - 9485" locus_tag="EOMLKCNM_02763" class="clusterblast-orf" id="dummy-1_q9_0_all"  />
<polygon points="554,40 578,40 583,35 578,30 554,30 554,40 " style="fill:white; stroke-width:1; stroke:black; " description="&lt;b&gt;EOMLKCNM_02764&lt;/b&gt;&lt;br&gt;5'-nucleotidase SurE&lt;br&gt;Location: 10279 - 11065" locus_tag="EOMLKCNM_02764" class="clusterblast-orf" id="dummy-1_q10_0_all"  />
</g>
<g label="NZ_CP033446" description="NZ_CP033446 (2017187-2039553): Rhodobacter sphaeroides strain AB27 chromosome 1 (50% of genes show similarity), lassopeptide" class="clusterblast-cluster"  >
<text x="5" y="70" class="clusterblast-acc"  >
<a xlink:href="https://antismash-db.secondarymetabolites.org/area.html?record=NZ_CP033446&amp;start=2017187&amp;end=2039553" target="_blank">NZ_CP033446 (2017187-2039553)</a>: Rhodobacter sphaeroides strain AB27 chromosome 1 (50% of genes show similarity), lassopeptide</text>
<line x1="10" y1="85" x2="778.0" y2="85" style="stroke-width:1; stroke:grey; "  />
</g>
<g id="a1_000"  >
<polygon points="0,90 28,90 33,85 28,80 0,80 0,90 " style="fill:white; stroke-width:1; stroke:black; " description="&lt;b&gt;EBL88_RS10035&lt;/b&gt;&lt;br&gt;UTP--glucose-1-phosphate uridylyltransferase&lt;br&gt;Location: 2017195 - 2018133" locus_tag="EBL88_RS10035" class="clusterblast-orf" id="dummy-1_h1_5_0"  />
</g>
<g id="a1_001"  >
<polygon points="34,90 72,90 77,85 72,80 34,80 34,90 " style="fill:white; stroke-width:1; stroke:black; " description="&lt;b&gt;EBL88_RS10040&lt;/b&gt;&lt;br&gt;glycosyl transferase&lt;br&gt;Location: 2018155 - 2019324" locus_tag="EBL88_RS10040" class="clusterblast-orf" id="dummy-1_h1_5_1"  />
</g>
<g id="a1_002"  >
<polygon points="77,90 107,90 112,85 107,80 77,80 77,90 " style="fill:white; stroke-width:1; stroke:black; " description="&lt;b&gt;EBL88_RS10045&lt;/b&gt;&lt;br&gt;glycosyltransferase family 2 protein&lt;br&gt;Location: 2019321 - 2020310" locus_tag="EBL88_RS10045" class="clusterblast-orf" id="dummy-1_h1_5_2"  />
</g>
<g id="a1_003"  >
<polygon points="112,90 143,90 148,85 143,80 112,80 112,90 " style="fill:white; stroke-width:1; stroke:black; " description="&lt;b&gt;EBL88_RS10050&lt;/b&gt;&lt;br&gt;glycosyltransferase&lt;br&gt;Location: 2020307 - 2021287" locus_tag="EBL88_RS10050" class="clusterblast-orf" id="dummy-1_h1_5_3"  />
</g>
<g id="a1_004"  >
<polygon points="148,90 228,90 233,85 228,80 148,80 148,90 " style="fill:white; stroke-width:1; stroke:black; " description="&lt;b&gt;EBL88_RS10055&lt;/b&gt;&lt;br&gt;chromosome partitioning protein ParA&lt;br&gt;Location: 2021284 - 2023653" locus_tag="EBL88_RS10055" class="clusterblast-orf" id="dummy-1_h1_5_4"  />
</g>
<g id="a1_005"  >
<polygon points="247,90 251,90 256,85 251,80 247,80 247,90 " style="fill:white; stroke-width:1; stroke:black; " description="&lt;b&gt;EBL88_RS10060&lt;/b&gt;&lt;br&gt;hypothetical protein&lt;br&gt;Location: 2024027 - 2024284" locus_tag="EBL88_RS10060" class="clusterblast-orf" id="dummy-1_h1_5_5"  />
</g>
<g id="a1_006"  >
<polygon points="261,85 266,80 328,80 328,90 266,90 261,85 " style="fill:white; stroke-width:1; stroke:black; " description="&lt;b&gt;EBL88_RS10065&lt;/b&gt;&lt;br&gt;ABC transporter ATP-binding protein&lt;br&gt;Location: 2024418 - 2026274" locus_tag="EBL88_RS10065" class="clusterblast-orf" id="dummy-1_h1_5_6"  />
</g>
<g id="a1_007"  >
<polygon points="328,85 333,80 362,80 362,90 333,90 328,85 " style="fill:white; stroke-width:1; stroke:black; " description="&lt;b&gt;EBL88_RS10070&lt;/b&gt;&lt;br&gt;serine kinase&lt;br&gt;Location: 2026271 - 2027191" locus_tag="EBL88_RS10070" class="clusterblast-orf" id="dummy-1_h1_5_7"  />
</g>
<g id="a1_008"  >
<polygon points="361,85 366,80 430,80 430,90 366,90 361,85 " style="fill:white; stroke-width:1; stroke:black; " description="&lt;b&gt;EBL88_RS10075&lt;/b&gt;&lt;br&gt;asparagine synthetase B&lt;br&gt;Location: 2027188 - 2029083" locus_tag="EBL88_RS10075" class="clusterblast-orf" id="dummy-1_h1_5_8"  />
</g>
<g id="a1_009"  >
<polygon points="430,85 435,80 447,80 447,90 435,90 430,85 " style="fill:#d81515; stroke-width:1; stroke:black; " description="&lt;b&gt;EBL88_RS10080&lt;/b&gt;&lt;br&gt;lasso peptide biosynthesis B2 protein&lt;br&gt;Location: 2029080 - 2029553&lt;br&gt;&lt;br&gt;&lt;b&gt;BlastP hit with EOMLKCNM_02754&lt;/b&gt;&lt;br&gt;Percentage identity: 60&lt;br&gt;Percentage coverage: 89&lt;br&gt;BLAST bit score: 145&lt;br&gt;E-value: 2.83e-43" locus_tag="EBL88_RS10080" class="clusterblast-orf" id="dummy-1_h1_5_9"  />
</g>
<g id="a1_0010"  >
<polygon points="448,85 453,80 457,80 457,90 453,90 448,85 " style="fill:#15d815; stroke-width:1; stroke:black; " description="&lt;b&gt;EBL88_RS10085&lt;/b&gt;&lt;br&gt;PqqD family protein&lt;br&gt;Location: 2029564 - 2029830&lt;br&gt;&lt;br&gt;&lt;b&gt;BlastP hit with EOMLKCNM_02755&lt;/b&gt;&lt;br&gt;Percentage identity: 56&lt;br&gt;Percentage coverage: 91&lt;br&gt;BLAST bit score: 102&lt;br&gt;E-value: 2.28e-28" locus_tag="EBL88_RS10085" class="clusterblast-orf" id="dummy-1_h1_5_10"  />
</g>
<g id="a1_0011"  >
<polygon points="460,85 465,80 469,80 469,90 465,90 460,85 " style="fill:#1597d8; stroke-width:1; stroke:black; " description="&lt;b&gt;NZ_CP033446_allorf_2029911_2030168&lt;/b&gt;&lt;br&gt;&lt;br&gt;Location: 2029911 - 2030168&lt;br&gt;&lt;br&gt;&lt;b&gt;BlastP hit with EOMLKCNM_02756&lt;/b&gt;&lt;br&gt;Percentage identity: 65&lt;br&gt;Percentage coverage: 96&lt;br&gt;BLAST bit score: 64&lt;br&gt;E-value: 6.41e-14" locus_tag="NZ_CP033446_allorf_2029911_2030168" class="clusterblast-orf" id="dummy-1_h1_5_11"  />
</g>
<g id="a1_0012"  >
<polygon points="478,90 514,90 519,85 514,80 478,80 478,90 " style="fill:#9715d8; stroke-width:1; stroke:black; " description="&lt;b&gt;EBL88_RS10095&lt;/b&gt;&lt;br&gt;nucleotidyltransferase family protein&lt;br&gt;Location: 2030409 - 2031545&lt;br&gt;&lt;br&gt;&lt;b&gt;BlastP hit with EOMLKCNM_02757&lt;/b&gt;&lt;br&gt;Percentage identity: 57&lt;br&gt;Percentage coverage: 95&lt;br&gt;BLAST bit score: 372&lt;br&gt;E-value: 8.94e-126" locus_tag="EBL88_RS10095" class="clusterblast-orf" id="dummy-1_h1_5_12"  />
</g>
<g id="a1_0013"  >
<polygon points="519,90 549,90 554,85 549,80 519,80 519,90 " style="fill:#d89715; stroke-width:1; stroke:black; " description="&lt;b&gt;EBL88_RS10100&lt;/b&gt;&lt;br&gt;glycosyltransferase family 2 protein&lt;br&gt;Location: 2031542 - 2032498&lt;br&gt;&lt;br&gt;&lt;b&gt;BlastP hit with EOMLKCNM_02758&lt;/b&gt;&lt;br&gt;Percentage identity: 67&lt;br&gt;Percentage coverage: 98&lt;br&gt;BLAST bit score: 381&lt;br&gt;E-value: 3.61e-131&lt;br&gt;&lt;br&gt;&lt;b&gt;BlastP hit with EOMLKCNM_02759&lt;/b&gt;&lt;br&gt;Percentage identity: 34&lt;br&gt;Percentage coverage: 78&lt;br&gt;BLAST bit score: 105&lt;br&gt;E-value: 1.31e-23" locus_tag="EBL88_RS10100" class="clusterblast-orf" id="dummy-1_h1_5_13"  />
</g>
<g id="a1_0014"  >
<polygon points="554,85 559,80 606,80 606,90 559,90 554,85 " style="fill:#d89715; stroke-width:1; stroke:black; " description="&lt;b&gt;EBL88_RS10105&lt;/b&gt;&lt;br&gt;glycosyltransferase family 2 protein&lt;br&gt;Location: 2032514 - 2033941&lt;br&gt;&lt;br&gt;&lt;b&gt;BlastP hit with EOMLKCNM_02758&lt;/b&gt;&lt;br&gt;Percentage identity: 39&lt;br&gt;Percentage coverage: 76&lt;br&gt;BLAST bit score: 118&lt;br&gt;E-value: 7.65e-28&lt;br&gt;&lt;br&gt;&lt;b&gt;BlastP hit with EOMLKCNM_02759&lt;/b&gt;&lt;br&gt;Percentage identity: 69&lt;br&gt;Percentage coverage: 102&lt;br&gt;BLAST bit score: 481&lt;br&gt;E-value: 3.87e-167" locus_tag="EBL88_RS10105" class="clusterblast-orf" id="dummy-1_h1_5_14"  />
</g>
<g id="a1_0015"  >
<polygon points="614,90 637,90 642,85 637,80 614,80 614,90 " style="fill:#15d897; stroke-width:1; stroke:black; " description="&lt;b&gt;EBL88_RS10110&lt;/b&gt;&lt;br&gt;family 16 glycosylhydrolase&lt;br&gt;Location: 2034147 - 2034929&lt;br&gt;&lt;br&gt;&lt;b&gt;BlastP hit with EOMLKCNM_02760&lt;/b&gt;&lt;br&gt;Percentage identity: 68&lt;br&gt;Percentage coverage: 95&lt;br&gt;BLAST bit score: 364&lt;br&gt;E-value: 1.31e-126" locus_tag="EBL88_RS10110" class="clusterblast-orf" id="dummy-1_h1_5_15"  />
</g>
<g id="a1_0016"  >
<polygon points="642,90 684,90 689,85 684,80 642,80 642,90 " style="fill:#1515d8; stroke-width:1; stroke:black; " description="&lt;b&gt;EBL88_RS10115&lt;/b&gt;&lt;br&gt;O-antigen ligase family protein&lt;br&gt;Location: 2034946 - 2036235&lt;br&gt;&lt;br&gt;&lt;b&gt;BlastP hit with EOMLKCNM_02761&lt;/b&gt;&lt;br&gt;Percentage identity: 59&lt;br&gt;Percentage coverage: 87&lt;br&gt;BLAST bit score: 425&lt;br&gt;E-value: 6.82e-145" locus_tag="EBL88_RS10115" class="clusterblast-orf" id="dummy-1_h1_5_16"  />
</g>
<g id="a1_0017"  >
<polygon points="696,85 701,80 740,80 740,90 701,90 696,85 " style="fill:#d81597; stroke-width:1; stroke:black; " description="&lt;b&gt;EBL88_RS10120&lt;/b&gt;&lt;br&gt;polysaccharide biosynthesis/export family protein&lt;br&gt;Location: 2036420 - 2037652&lt;br&gt;&lt;br&gt;&lt;b&gt;BlastP hit with EOMLKCNM_02762&lt;/b&gt;&lt;br&gt;Percentage identity: 63&lt;br&gt;Percentage coverage: 100&lt;br&gt;BLAST bit score: 499&lt;br&gt;E-value: 8.32e-175" locus_tag="EBL88_RS10120" class="clusterblast-orf" id="dummy-1_h1_5_17"  />
</g>
<g id="a1_0018"  >
<polygon points="743,85 748,80 765,80 765,90 748,90 743,85 " style="fill:#97d815; stroke-width:1; stroke:black; " description="&lt;b&gt;EBL88_RS10125&lt;/b&gt;&lt;br&gt;sugar transferase&lt;br&gt;Location: 2037724 - 2038335&lt;br&gt;&lt;br&gt;&lt;b&gt;BlastP hit with EOMLKCNM_02763&lt;/b&gt;&lt;br&gt;Percentage identity: 84&lt;br&gt;Percentage coverage: 85&lt;br&gt;BLAST bit score: 347&lt;br&gt;E-value: 4.03e-121" locus_tag="EBL88_RS10125" class="clusterblast-orf" id="dummy-1_h1_5_18"  />
</g>
<g id="a1_0019"  >
<polygon points="769,90 775,90 780,85 775,80 769,80 769,90 " style="fill:white; stroke-width:1; stroke:black; " description="&lt;b&gt;EBL88_RS21965&lt;/b&gt;&lt;br&gt;hypothetical protein&lt;br&gt;Location: 2038436 - 2038729" locus_tag="EBL88_RS21965" class="clusterblast-orf" id="dummy-1_h1_5_19"  />
</g>
</svg>
