<svg xmlns="http://www.w3.org/2000/svg" xmlns:xlink="http://www.w3.org/1999/xlink" version="1.1" x="0" y="0" height="230" width="800" viewBox="0 0 800 230" preserveAspectRatio="none"  >
<g label="Query sequence" class="clusterblast-cluster"  >
<text x="5" y="20" class="clusterblast-acc"  >
Query sequence</text>
<line x1="10" y1="35" x2="778.0" y2="35" style="stroke-width:1; stroke:grey; "  />
<polygon points="335,35 340,30 347,30 347,40 340,40 335,35 " style="fill:white; stroke-width:1; stroke:black; " description="&lt;b&gt;EOMLKCNM_04436&lt;/b&gt;&lt;br&gt;hypothetical protein&lt;br&gt;Location: 127 - 451" locus_tag="EOMLKCNM_04436" class="clusterblast-orf" id="dummy-1_q0_0_all"  />
<polygon points="363,35 368,30 389,30 389,40 368,40 363,35 " style="fill:#d81515; stroke-width:1; stroke:black; " description="&lt;b&gt;EOMLKCNM_04437&lt;/b&gt;&lt;br&gt;hypothetical protein&lt;br&gt;Location: 847 - 1525" locus_tag="EOMLKCNM_04437" class="clusterblast-orf" id="dummy-1_q1_0_all"  />
<polygon points="392,40 412,40 417,35 412,30 392,30 392,40 " style="fill:#15d8d8; stroke-width:1; stroke:black; " description="&lt;b&gt;EOMLKCNM_04438&lt;/b&gt;&lt;br&gt;hypothetical protein&lt;br&gt;Location: 1602 - 2259" locus_tag="EOMLKCNM_04438" class="clusterblast-orf" id="dummy-1_q2_0_all"  />
<polygon points="431,40 440,40 445,35 440,30 431,30 431,40 " style="fill:white; stroke-width:1; stroke:black; " description="&lt;b&gt;EOMLKCNM_04439&lt;/b&gt;&lt;br&gt;hypothetical protein&lt;br&gt;Location: 2618 - 2969" locus_tag="EOMLKCNM_04439" class="clusterblast-orf" id="dummy-1_q3_0_all"  />
</g>
<g label="NZ_FNAT01000014" description="NZ_FNAT01000014 (24516-45107): Limimaricola pyoseonensis strain DSM 21424, wh... (7% of genes show similarity), hserlactone" class="clusterblast-cluster"  >
<text x="5" y="70" class="clusterblast-acc"  >
<a xlink:href="https://antismash-db.secondarymetabolites.org/area.html?record=NZ_FNAT01000014&amp;start=24516&amp;end=45107" target="_blank">NZ_FNAT01000014 (24516-45107)</a>: Limimaricola pyoseonensis strain DSM 21424, wh... (7% of genes show similarity), hserlactone</text>
<line x1="10" y1="85" x2="778.0" y2="85" style="stroke-width:1; stroke:grey; "  />
</g>
<g id="a1_000"  >
<polygon points="0,90 10,90 15,85 10,80 0,80 0,90 " style="fill:white; stroke-width:1; stroke:black; " description="&lt;b&gt;BLT43_RS18085&lt;/b&gt;&lt;br&gt;30S ribosomal protein S8&lt;br&gt;Location: 45012 - 44620" locus_tag="BLT43_RS18085" class="clusterblast-orf" id="dummy-1_h1_6_0"  />
</g>
<g id="a1_001"  >
<polygon points="15,90 31,90 36,85 31,80 15,80 15,90 " style="fill:white; stroke-width:1; stroke:black; " description="&lt;b&gt;BLT43_RS18080&lt;/b&gt;&lt;br&gt;50S ribosomal protein L6&lt;br&gt;Location: 44605 - 44072" locus_tag="BLT43_RS18080" class="clusterblast-orf" id="dummy-1_h1_6_1"  />
</g>
<g id="a1_002"  >
<polygon points="36,90 45,90 50,85 45,80 36,80 36,90 " style="fill:white; stroke-width:1; stroke:black; " description="&lt;b&gt;BLT43_RS18075&lt;/b&gt;&lt;br&gt;50S ribosomal protein L18&lt;br&gt;Location: 44060 - 43701" locus_tag="BLT43_RS18075" class="clusterblast-orf" id="dummy-1_h1_6_2"  />
</g>
<g id="a1_003"  >
<polygon points="51,90 67,90 72,85 67,80 51,80 51,90 " style="fill:white; stroke-width:1; stroke:black; " description="&lt;b&gt;BLT43_RS18070&lt;/b&gt;&lt;br&gt;30S ribosomal protein S5&lt;br&gt;Location: 43689 - 43132" locus_tag="BLT43_RS18070" class="clusterblast-orf" id="dummy-1_h1_6_3"  />
</g>
<g id="a1_004"  >
<polygon points="73,90 75,90 80,85 75,80 73,80 73,90 " style="fill:white; stroke-width:1; stroke:black; " description="&lt;b&gt;BLT43_RS18065&lt;/b&gt;&lt;br&gt;50S ribosomal protein L30&lt;br&gt;Location: 43120 - 42935" locus_tag="BLT43_RS18065" class="clusterblast-orf" id="dummy-1_h1_6_4"  />
</g>
<g id="a1_005"  >
<polygon points="87,90 106,90 111,85 106,80 87,80 87,90 " style="fill:white; stroke-width:1; stroke:black; " description="&lt;b&gt;BLT43_RS18060&lt;/b&gt;&lt;br&gt;DUF1326 domain-containing protein&lt;br&gt;Location: 42759 - 42121" locus_tag="BLT43_RS18060" class="clusterblast-orf" id="dummy-1_h1_6_5"  />
</g>
<g id="a1_006"  >
<polygon points="111,90 138,90 143,85 138,80 111,80 111,90 " style="fill:white; stroke-width:1; stroke:black; " description="&lt;b&gt;BLT43_RS18055&lt;/b&gt;&lt;br&gt;DUF2182 domain-containing protein&lt;br&gt;Location: 42128 - 41310" locus_tag="BLT43_RS18055" class="clusterblast-orf" id="dummy-1_h1_6_6"  />
</g>
<g id="a1_007"  >
<polygon points="147,90 161,90 166,85 161,80 147,80 147,90 " style="fill:white; stroke-width:1; stroke:black; " description="&lt;b&gt;BLT43_RS18050&lt;/b&gt;&lt;br&gt;50S ribosomal protein L15&lt;br&gt;Location: 41190 - 40714" locus_tag="BLT43_RS18050" class="clusterblast-orf" id="dummy-1_h1_6_7"  />
</g>
<g id="a1_008"  >
<polygon points="170,90 218,90 223,85 218,80 170,80 170,90 " style="fill:white; stroke-width:1; stroke:black; " description="&lt;b&gt;BLT43_RS18045&lt;/b&gt;&lt;br&gt;preprotein translocase subunit SecY&lt;br&gt;Location: 40608 - 39235" locus_tag="BLT43_RS18045" class="clusterblast-orf" id="dummy-1_h1_6_8"  />
</g>
<g id="a1_009"  >
<polygon points="223,90 243,90 248,85 243,80 223,80 223,90 " style="fill:white; stroke-width:1; stroke:black; " description="&lt;b&gt;BLT43_RS18040&lt;/b&gt;&lt;br&gt;adenylate kinase&lt;br&gt;Location: 39238 - 38573" locus_tag="BLT43_RS18040" class="clusterblast-orf" id="dummy-1_h1_6_9"  />
</g>
<g id="a1_0010"  >
<polygon points="256,90 266,90 271,85 266,80 256,80 256,90 " style="fill:white; stroke-width:1; stroke:black; " description="&lt;b&gt;BLT43_RS18035&lt;/b&gt;&lt;br&gt;30S ribosomal protein S13&lt;br&gt;Location: 38365 - 37997" locus_tag="BLT43_RS18035" class="clusterblast-orf" id="dummy-1_h1_6_10"  />
</g>
<g id="a1_0011"  >
<polygon points="271,90 281,90 286,85 281,80 271,80 271,90 " style="fill:white; stroke-width:1; stroke:black; " description="&lt;b&gt;BLT43_RS18030&lt;/b&gt;&lt;br&gt;30S ribosomal protein S11&lt;br&gt;Location: 37984 - 37592" locus_tag="BLT43_RS18030" class="clusterblast-orf" id="dummy-1_h1_6_11"  />
</g>
<g id="a1_0012"  >
<polygon points="291,90 325,90 330,85 325,80 291,80 291,90 " style="fill:white; stroke-width:1; stroke:black; " description="&lt;b&gt;BLT43_RS18025&lt;/b&gt;&lt;br&gt;DNA-directed RNA polymerase subunit alpha&lt;br&gt;Location: 37478 - 36462" locus_tag="BLT43_RS18025" class="clusterblast-orf" id="dummy-1_h1_6_12"  />
</g>
<g id="a1_0013"  >
<polygon points="334,90 345,90 350,85 345,80 334,80 334,90 " style="fill:white; stroke-width:1; stroke:black; " description="&lt;b&gt;BLT43_RS18020&lt;/b&gt;&lt;br&gt;50S ribosomal protein L17&lt;br&gt;Location: 36353 - 35934" locus_tag="BLT43_RS18020" class="clusterblast-orf" id="dummy-1_h1_6_13"  />
</g>
<g id="a1_0014"  >
<polygon points="356,90 375,90 380,85 375,80 356,80 356,90 " style="fill:#15d8d8; stroke-width:1; stroke:black; " description="&lt;b&gt;BLT43_RS18015&lt;/b&gt;&lt;br&gt;LuxR family transcriptional regulator&lt;br&gt;Location: 35776 - 35165&lt;br&gt;&lt;br&gt;&lt;b&gt;BlastP hit with EOMLKCNM_04438&lt;/b&gt;&lt;br&gt;Percentage identity: 31&lt;br&gt;Percentage coverage: 88&lt;br&gt;BLAST bit score: 98&lt;br&gt;E-value: 2.04e-23" locus_tag="BLT43_RS18015" class="clusterblast-orf" id="dummy-1_h1_6_14"  />
</g>
<g id="a1_0015"  >
<polygon points="382,90 400,90 405,85 400,80 382,80 382,90 " style="fill:#d81515; stroke-width:1; stroke:black; " description="&lt;b&gt;BLT43_RS18010&lt;/b&gt;&lt;br&gt;N-acyl-L-homoserine lactone synthetase&lt;br&gt;Location: 35107 - 34517&lt;br&gt;&lt;br&gt;&lt;b&gt;BlastP hit with EOMLKCNM_04437&lt;/b&gt;&lt;br&gt;Percentage identity: 33&lt;br&gt;Percentage coverage: 59&lt;br&gt;BLAST bit score: 72&lt;br&gt;E-value: 1.6e-13" locus_tag="BLT43_RS18010" class="clusterblast-orf" id="dummy-1_h1_6_15"  />
</g>
<g id="a1_0016"  >
<polygon points="408,90 456,90 461,85 456,80 408,80 408,90 " style="fill:white; stroke-width:1; stroke:black; " description="&lt;b&gt;BLT43_RS18005&lt;/b&gt;&lt;br&gt;replication-associated recombination protein A&lt;br&gt;Location: 34446 - 33070" locus_tag="BLT43_RS18005" class="clusterblast-orf" id="dummy-1_h1_6_16"  />
</g>
<g id="a1_0017"  >
<polygon points="461,85 466,80 473,80 473,90 466,90 461,85 " style="fill:white; stroke-width:1; stroke:black; " description="&lt;b&gt;BLT43_RS18000&lt;/b&gt;&lt;br&gt;hypothetical protein&lt;br&gt;Location: 33059 - 32763" locus_tag="BLT43_RS18000" class="clusterblast-orf" id="dummy-1_h1_6_17"  />
</g>
<g id="a1_0018"  >
<polygon points="478,90 487,90 492,85 487,80 478,80 478,90 " style="fill:white; stroke-width:1; stroke:black; " description="&lt;b&gt;BLT43_RS17995&lt;/b&gt;&lt;br&gt;CrcB family protein&lt;br&gt;Location: 32628 - 32275" locus_tag="BLT43_RS17995" class="clusterblast-orf" id="dummy-1_h1_6_18"  />
</g>
<g id="a1_0019"  >
<polygon points="492,90 528,90 533,85 528,80 492,80 492,90 " style="fill:white; stroke-width:1; stroke:black; " description="&lt;b&gt;BLT43_RS17990&lt;/b&gt;&lt;br&gt;RluA family pseudouridine synthase&lt;br&gt;Location: 32278 - 31220" locus_tag="BLT43_RS17990" class="clusterblast-orf" id="dummy-1_h1_6_19"  />
</g>
<g id="a1_0020"  >
<polygon points="532,90 553,90 558,85 553,80 532,80 532,90 " style="fill:white; stroke-width:1; stroke:black; " description="&lt;b&gt;BLT43_RS17985&lt;/b&gt;&lt;br&gt;HAD-IA family hydrolase&lt;br&gt;Location: 31223 - 30549" locus_tag="BLT43_RS17985" class="clusterblast-orf" id="dummy-1_h1_6_20"  />
</g>
<g id="a1_0021"  >
<polygon points="558,90 581,90 586,85 581,80 558,80 558,90 " style="fill:white; stroke-width:1; stroke:black; " description="&lt;b&gt;BLT43_RS17980&lt;/b&gt;&lt;br&gt;ATPase&lt;br&gt;Location: 30552 - 29839" locus_tag="BLT43_RS17980" class="clusterblast-orf" id="dummy-1_h1_6_21"  />
</g>
<g id="a1_0022"  >
<polygon points="593,90 628,90 633,85 628,80 593,80 593,90 " style="fill:white; stroke-width:1; stroke:black; " description="&lt;b&gt;BLT43_RS17975&lt;/b&gt;&lt;br&gt;amino acid ABC transporter substrate-binding protein&lt;br&gt;Location: 29644 - 28625" locus_tag="BLT43_RS17975" class="clusterblast-orf" id="dummy-1_h1_6_22"  />
</g>
<g id="a1_0023"  >
<polygon points="638,90 692,90 697,85 692,80 638,80 638,90 " style="fill:white; stroke-width:1; stroke:black; " description="&lt;b&gt;BLT43_RS17970&lt;/b&gt;&lt;br&gt;ABC transporter permease subunit&lt;br&gt;Location: 28489 - 26963" locus_tag="BLT43_RS17970" class="clusterblast-orf" id="dummy-1_h1_6_23"  />
</g>
<g id="a1_0024"  >
<polygon points="697,90 743,90 748,85 743,80 697,80 697,90 " style="fill:white; stroke-width:1; stroke:black; " description="&lt;b&gt;BLT43_RS17965&lt;/b&gt;&lt;br&gt;amino acid ABC transporter permease&lt;br&gt;Location: 26961 - 25645" locus_tag="BLT43_RS17965" class="clusterblast-orf" id="dummy-1_h1_6_24"  />
</g>
<g id="a1_0025"  >
<polygon points="748,90 775,90 780,85 775,80 748,80 748,90 " style="fill:white; stroke-width:1; stroke:black; " description="&lt;b&gt;BLT43_RS17960&lt;/b&gt;&lt;br&gt;amino acid ABC transporter ATP-binding protein&lt;br&gt;Location: 25634 - 24831" locus_tag="BLT43_RS17960" class="clusterblast-orf" id="dummy-1_h1_6_25"  />
</g>
</svg>
