<svg xmlns="http://www.w3.org/2000/svg" xmlns:xlink="http://www.w3.org/1999/xlink" version="1.1" x="0" y="0" height="230" width="800" viewBox="0 0 800 230" preserveAspectRatio="none"  >
<g label="Query sequence" class="clusterblast-cluster"  >
<text x="5" y="20" class="clusterblast-acc"  >
Query sequence</text>
<line x1="10" y1="35" x2="778.0" y2="35" style="stroke-width:1; stroke:grey; "  />
<polygon points="311,40 343,40 348,35 343,30 311,30 311,40 " style="fill:#d81515; stroke-width:1; stroke:black; " description="&lt;b&gt;EOMLKCNM_04155&lt;/b&gt;&lt;br&gt;hypothetical protein&lt;br&gt;Location: 780 - 1818" locus_tag="EOMLKCNM_04155" class="clusterblast-orf" id="dummy-1_q0_0_all"  />
<polygon points="356,40 384,40 389,35 384,30 356,30 356,40 " style="fill:#15d863; stroke-width:1; stroke:black; " description="&lt;b&gt;EOMLKCNM_04156&lt;/b&gt;&lt;br&gt;Coenzyme PQQ synthesis protein B&lt;br&gt;Location: 2039 - 2939" locus_tag="EOMLKCNM_04156" class="clusterblast-orf" id="dummy-1_q1_0_all"  />
<polygon points="388,40 411,40 416,35 411,30 388,30 388,40 " style="fill:#1563d8; stroke-width:1; stroke:black; " description="&lt;b&gt;EOMLKCNM_04157&lt;/b&gt;&lt;br&gt;Bifunctional coenzyme PQQ synthesis protein C/D&lt;br&gt;Location: 2935 - 3700" locus_tag="EOMLKCNM_04157" class="clusterblast-orf" id="dummy-1_q2_0_all"  />
<polygon points="416,40 422,40 427,35 422,30 416,30 416,40 " style="fill:#b115d8; stroke-width:1; stroke:black; " description="&lt;b&gt;EOMLKCNM_04158&lt;/b&gt;&lt;br&gt;PqqA binding protein&lt;br&gt;Location: 3699 - 4014" locus_tag="EOMLKCNM_04158" class="clusterblast-orf" id="dummy-1_q3_0_all"  />
<polygon points="427,40 464,40 469,35 464,30 427,30 427,40 " style="fill:#b1d815; stroke-width:1; stroke:black; " description="&lt;b&gt;EOMLKCNM_04159&lt;/b&gt;&lt;br&gt;PqqA peptide cyclase&lt;br&gt;Location: 4010 - 5168" locus_tag="EOMLKCNM_04159" class="clusterblast-orf" id="dummy-1_q4_0_all"  />
</g>
<g label="NZ_LR723668" description="NZ_LR723668 (88411-110073): Rhizobium sp. Khangiran2 chromosome 1 (13% of genes show similarity), terpene" class="clusterblast-cluster"  >
<text x="5" y="70" class="clusterblast-acc"  >
<a xlink:href="https://antismash-db.secondarymetabolites.org/area.html?record=NZ_LR723668&amp;start=88411&amp;end=110073" target="_blank">NZ_LR723668 (88411-110073)</a>: Rhizobium sp. Khangiran2 chromosome 1 (13% of genes show similarity), terpene</text>
<line x1="10" y1="85" x2="778.0" y2="85" style="stroke-width:1; stroke:grey; "  />
</g>
<g id="a1_000"  >
<polygon points="0,90 22,90 27,85 22,80 0,80 0,90 " style="fill:#1563d8; stroke-width:1; stroke:black; " description="&lt;b&gt;GFD23_RS00545&lt;/b&gt;&lt;br&gt;pyrroloquinoline-quinone synthase PqqC&lt;br&gt;Location: 110073 - 109315&lt;br&gt;&lt;br&gt;&lt;b&gt;BlastP hit with EOMLKCNM_04157&lt;/b&gt;&lt;br&gt;Percentage identity: 55&lt;br&gt;Percentage coverage: 93&lt;br&gt;BLAST bit score: 267&lt;br&gt;E-value: 1.77e-88" locus_tag="GFD23_RS00545" class="clusterblast-orf" id="dummy-1_h1_4_0"  />
</g>
<g id="a1_001"  >
<polygon points="27,90 32,90 37,85 32,80 27,80 27,90 " style="fill:#b115d8; stroke-width:1; stroke:black; " description="&lt;b&gt;GFD23_RS00540&lt;/b&gt;&lt;br&gt;pyrroloquinoline quinone biosynthesis peptide chaperone PqqD&lt;br&gt;Location: 109318 - 109022&lt;br&gt;&lt;br&gt;&lt;b&gt;BlastP hit with EOMLKCNM_04158&lt;/b&gt;&lt;br&gt;Percentage identity: 48&lt;br&gt;Percentage coverage: 78&lt;br&gt;BLAST bit score: 77&lt;br&gt;E-value: 7.14e-18" locus_tag="GFD23_RS00540" class="clusterblast-orf" id="dummy-1_h1_4_1"  />
</g>
<g id="a1_002"  >
<polygon points="37,90 72,90 77,85 72,80 37,80 37,90 " style="fill:#b1d815; stroke-width:1; stroke:black; " description="&lt;b&gt;GFD23_RS00535&lt;/b&gt;&lt;br&gt;pyrroloquinoline quinone biosynthesis protein PqqE&lt;br&gt;Location: 109025 - 107916&lt;br&gt;&lt;br&gt;&lt;b&gt;BlastP hit with EOMLKCNM_04159&lt;/b&gt;&lt;br&gt;Percentage identity: 52&lt;br&gt;Percentage coverage: 94&lt;br&gt;BLAST bit score: 391&lt;br&gt;E-value: 1.66e-133" locus_tag="GFD23_RS00535" class="clusterblast-orf" id="dummy-1_h1_4_2"  />
</g>
<g id="a1_003"  >
<polygon points="85,90 117,90 122,85 117,80 85,80 85,90 " style="fill:white; stroke-width:1; stroke:black; " description="&lt;b&gt;GFD23_RS00530&lt;/b&gt;&lt;br&gt;IS3 family transposase&lt;br&gt;Location: 107706 - 106684" locus_tag="GFD23_RS00530" class="clusterblast-orf" id="dummy-1_h1_4_3"  />
</g>
<g id="a1_004"  >
<polygon points="122,90 130,90 135,85 130,80 122,80 122,90 " style="fill:white; stroke-width:1; stroke:black; " description="&lt;b&gt;GFD23_RS20515&lt;/b&gt;&lt;br&gt;hypothetical protein&lt;br&gt;Location: 106669 - 106319" locus_tag="GFD23_RS20515" class="clusterblast-orf" id="dummy-1_h1_4_4"  />
</g>
<g id="a1_005"  >
<polygon points="138,90 158,90 163,85 158,80 138,80 138,90 " style="fill:white; stroke-width:1; stroke:black; " description="&lt;b&gt;GFD23_RS00525&lt;/b&gt;&lt;br&gt;GntR family transcriptional regulator&lt;br&gt;Location: 106220 - 105543" locus_tag="GFD23_RS00525" class="clusterblast-orf" id="dummy-1_h1_4_5"  />
</g>
<g id="a1_006"  >
<polygon points="173,90 189,90 194,85 189,80 173,80 173,90 " style="fill:white; stroke-width:1; stroke:black; " description="&lt;b&gt;GFD23_RS00520&lt;/b&gt;&lt;br&gt;EamA family transporter&lt;br&gt;Location: 105244 - 104679" locus_tag="GFD23_RS00520" class="clusterblast-orf" id="dummy-1_h1_4_6"  />
</g>
<g id="a1_007"  >
<polygon points="205,90 231,90 236,85 231,80 205,80 205,90 " style="fill:white; stroke-width:1; stroke:black; " description="&lt;b&gt;GFD23_RS00515&lt;/b&gt;&lt;br&gt;ABC transporter ATP-binding protein&lt;br&gt;Location: 104375 - 103494" locus_tag="GFD23_RS00515" class="clusterblast-orf" id="dummy-1_h1_4_7"  />
</g>
<g id="a1_008"  >
<polygon points="236,90 275,90 280,85 275,80 236,80 236,90 " style="fill:white; stroke-width:1; stroke:black; " description="&lt;b&gt;GFD23_RS00510&lt;/b&gt;&lt;br&gt;ABC transporter permease&lt;br&gt;Location: 103497 - 102292" locus_tag="GFD23_RS00510" class="clusterblast-orf" id="dummy-1_h1_4_8"  />
</g>
<g id="a1_009"  >
<polygon points="280,90 303,90 308,85 303,80 280,80 280,90 " style="fill:white; stroke-width:1; stroke:black; " description="&lt;b&gt;GFD23_RS00505&lt;/b&gt;&lt;br&gt;fatty acid desaturase&lt;br&gt;Location: 102279 - 101518" locus_tag="GFD23_RS00505" class="clusterblast-orf" id="dummy-1_h1_4_9"  />
</g>
<g id="a1_0010"  >
<polygon points="308,90 322,90 327,85 322,80 308,80 308,90 " style="fill:white; stroke-width:1; stroke:black; " description="&lt;b&gt;GFD23_RS00500&lt;/b&gt;&lt;br&gt;sterol desaturase family protein&lt;br&gt;Location: 101497 - 100979" locus_tag="GFD23_RS00500" class="clusterblast-orf" id="dummy-1_h1_4_10"  />
</g>
<g id="a1_0011"  >
<polygon points="327,85 332,80 360,80 360,90 332,90 327,85 " style="fill:white; stroke-width:1; stroke:black; " description="&lt;b&gt;GFD23_RS00495&lt;/b&gt;&lt;br&gt;squalene/phytoene synthase family protein&lt;br&gt;Location: 100978 - 100055" locus_tag="GFD23_RS00495" class="clusterblast-orf" id="dummy-1_h1_4_11"  />
</g>
<g id="a1_0012"  >
<polygon points="360,85 365,80 414,80 414,90 365,90 360,85 " style="fill:white; stroke-width:1; stroke:black; " description="&lt;b&gt;GFD23_RS00490&lt;/b&gt;&lt;br&gt;phytoene desaturase&lt;br&gt;Location: 100058 - 98568" locus_tag="GFD23_RS00490" class="clusterblast-orf" id="dummy-1_h1_4_12"  />
</g>
<g id="a1_0013"  >
<polygon points="414,85 419,80 456,80 456,90 419,90 414,85 " style="fill:white; stroke-width:1; stroke:black; " description="&lt;b&gt;GFD23_RS00485&lt;/b&gt;&lt;br&gt;lycopene beta-cyclase CrtY&lt;br&gt;Location: 98571 - 97396" locus_tag="GFD23_RS00485" class="clusterblast-orf" id="dummy-1_h1_4_13"  />
</g>
<g id="a1_0014"  >
<polygon points="460,85 465,80 497,80 497,90 465,90 460,85 " style="fill:white; stroke-width:1; stroke:black; " description="&lt;b&gt;GFD23_RS00480&lt;/b&gt;&lt;br&gt;type 2 isopentenyl-diphosphate Delta-isomerase&lt;br&gt;Location: 97284 - 96253" locus_tag="GFD23_RS00480" class="clusterblast-orf" id="dummy-1_h1_4_14"  />
</g>
<g id="a1_0015"  >
<polygon points="503,90 531,90 536,85 531,80 503,80 503,90 " style="fill:white; stroke-width:1; stroke:black; " description="&lt;b&gt;GFD23_RS00475&lt;/b&gt;&lt;br&gt;polyprenyl synthetase family protein&lt;br&gt;Location: 96088 - 95183" locus_tag="GFD23_RS00475" class="clusterblast-orf" id="dummy-1_h1_4_15"  />
</g>
<g id="a1_0016"  >
<polygon points="537,85 542,80 572,80 572,90 542,90 537,85 " style="fill:white; stroke-width:1; stroke:black; " description="&lt;b&gt;GFD23_RS00470&lt;/b&gt;&lt;br&gt;glycosyltransferase&lt;br&gt;Location: 95146 - 94166" locus_tag="GFD23_RS00470" class="clusterblast-orf" id="dummy-1_h1_4_16"  />
</g>
<g id="a1_0017"  >
<polygon points="586,85 591,80 607,80 607,90 591,90 586,85 " style="fill:white; stroke-width:1; stroke:black; " description="&lt;b&gt;GFD23_RS00465&lt;/b&gt;&lt;br&gt;DUF2585 family protein&lt;br&gt;Location: 93787 - 93212" locus_tag="GFD23_RS00465" class="clusterblast-orf" id="dummy-1_h1_4_17"  />
</g>
<g id="a1_0018"  >
<polygon points="623,85 628,80 655,80 655,90 628,90 623,85 " style="fill:white; stroke-width:1; stroke:black; " description="&lt;b&gt;GFD23_RS00460&lt;/b&gt;&lt;br&gt;DUF296 domain-containing protein&lt;br&gt;Location: 92761 - 91880" locus_tag="GFD23_RS00460" class="clusterblast-orf" id="dummy-1_h1_4_18"  />
</g>
<g id="a1_0019"  >
<polygon points="655,85 660,80 682,80 682,90 660,90 655,85 " style="fill:white; stroke-width:1; stroke:black; " description="&lt;b&gt;GFD23_RS00455&lt;/b&gt;&lt;br&gt;SDR family oxidoreductase&lt;br&gt;Location: 91883 - 91128" locus_tag="GFD23_RS00455" class="clusterblast-orf" id="dummy-1_h1_4_19"  />
</g>
<g id="a1_0020"  >
<polygon points="682,85 687,80 741,80 741,90 687,90 682,85 " style="fill:white; stroke-width:1; stroke:black; " description="&lt;b&gt;GFD23_RS00450&lt;/b&gt;&lt;br&gt;AMP-binding protein&lt;br&gt;Location: 91118 - 89487" locus_tag="GFD23_RS00450" class="clusterblast-orf" id="dummy-1_h1_4_20"  />
</g>
<g id="a1_0021"  >
<polygon points="743,85 748,80 751,80 751,90 748,90 743,85 " style="fill:white; stroke-width:1; stroke:black; " description="&lt;b&gt;GFD23_RS00445&lt;/b&gt;&lt;br&gt;thiolase domain-containing protein&lt;br&gt;Location: 89436 - 89191" locus_tag="GFD23_RS00445" class="clusterblast-orf" id="dummy-1_h1_4_21"  />
</g>
<g id="a1_0022"  >
<polygon points="751,85 756,80 780,80 780,90 756,90 751,85 " style="fill:white; stroke-width:1; stroke:black; " description="&lt;b&gt;GFD23_RS00440&lt;/b&gt;&lt;br&gt;helix-turn-helix domain-containing protein&lt;br&gt;Location: 89194 - 88412" locus_tag="GFD23_RS00440" class="clusterblast-orf" id="dummy-1_h1_4_22"  />
</g>
</svg>
