<svg xmlns="http://www.w3.org/2000/svg" xmlns:xlink="http://www.w3.org/1999/xlink" version="1.1" x="0" y="0" height="50" width="800" viewBox="0 0 800 50" preserveAspectRatio="none"  >
<g label="Query sequence" class="clusterblast-cluster"  >
<text x="5" y="20" class="clusterblast-acc"  >
Query sequence</text>
<line x1="10" y1="35" x2="778.0" y2="35" style="stroke-width:1; stroke:grey; "  />
<polygon points="0,35 5,30 25,30 25,40 5,40 0,35 " style="fill:white; stroke-width:1; stroke:black; " description="&lt;b&gt;EOMLKCNM_00174&lt;/b&gt;&lt;br&gt;hypothetical protein&lt;br&gt;Location: 23277 - 23919" locus_tag="EOMLKCNM_00174" class="clusterblast-orf" id="knownclusterblast-1_q0_0_all"  />
<polygon points="33,40 63,40 68,35 63,30 33,30 33,40 " style="fill:white; stroke-width:1; stroke:black; " description="&lt;b&gt;EOMLKCNM_00175&lt;/b&gt;&lt;br&gt;hypothetical protein&lt;br&gt;Location: 24132 - 25023" locus_tag="EOMLKCNM_00175" class="clusterblast-orf" id="knownclusterblast-1_q1_0_all"  />
<polygon points="69,40 89,40 94,35 89,30 69,30 69,40 " style="fill:white; stroke-width:1; stroke:black; " description="&lt;b&gt;EOMLKCNM_00176&lt;/b&gt;&lt;br&gt;Guanylate kinase&lt;br&gt;Location: 25025 - 25673" locus_tag="EOMLKCNM_00176" class="clusterblast-orf" id="knownclusterblast-1_q2_0_all"  />
<polygon points="94,40 109,40 114,35 109,30 94,30 94,40 " style="fill:white; stroke-width:1; stroke:black; " description="&lt;b&gt;EOMLKCNM_00177&lt;/b&gt;&lt;br&gt;Protein YrdA&lt;br&gt;Location: 25669 - 26188" locus_tag="EOMLKCNM_00177" class="clusterblast-orf" id="knownclusterblast-1_q3_0_all"  />
<polygon points="121,40 188,40 193,35 188,30 121,30 121,40 " style="fill:white; stroke-width:1; stroke:black; " description="&lt;b&gt;EOMLKCNM_00178&lt;/b&gt;&lt;br&gt;ABC transporter ATP-binding protein uup&lt;br&gt;Location: 26361 - 28191" locus_tag="EOMLKCNM_00178" class="clusterblast-orf" id="knownclusterblast-1_q4_0_all"  />
<polygon points="200,40 219,40 224,35 219,30 200,30 200,40 " style="fill:white; stroke-width:1; stroke:black; " description="&lt;b&gt;EOMLKCNM_00179&lt;/b&gt;&lt;br&gt;hypothetical protein&lt;br&gt;Location: 28380 - 28977" locus_tag="EOMLKCNM_00179" class="clusterblast-orf" id="knownclusterblast-1_q5_0_all"  />
<polygon points="233,40 283,40 288,35 283,30 233,30 233,40 " style="fill:white; stroke-width:1; stroke:black; " description="&lt;b&gt;EOMLKCNM_00180&lt;/b&gt;&lt;br&gt;Cysteine--tRNA ligase&lt;br&gt;Location: 29217 - 30606" locus_tag="EOMLKCNM_00180" class="clusterblast-orf" id="knownclusterblast-1_q6_0_all"  />
<polygon points="288,40 348,40 353,35 348,30 288,30 288,40 " style="fill:white; stroke-width:1; stroke:black; " description="&lt;b&gt;EOMLKCNM_00181&lt;/b&gt;&lt;br&gt;(R)-citramalate synthase&lt;br&gt;Location: 30602 - 32267" locus_tag="EOMLKCNM_00181" class="clusterblast-orf" id="knownclusterblast-1_q7_0_all"  />
<polygon points="353,40 376,40 381,35 376,30 353,30 353,40 " style="fill:white; stroke-width:1; stroke:black; " description="&lt;b&gt;EOMLKCNM_00182&lt;/b&gt;&lt;br&gt;hypothetical protein&lt;br&gt;Location: 32263 - 32980" locus_tag="EOMLKCNM_00182" class="clusterblast-orf" id="knownclusterblast-1_q8_0_all"  />
<polygon points="381,40 406,40 411,35 406,30 381,30 381,40 " style="fill:white; stroke-width:1; stroke:black; " description="&lt;b&gt;EOMLKCNM_00183&lt;/b&gt;&lt;br&gt;hypothetical protein&lt;br&gt;Location: 32976 - 33744" locus_tag="EOMLKCNM_00183" class="clusterblast-orf" id="knownclusterblast-1_q9_0_all"  />
<polygon points="414,35 419,30 462,30 462,40 419,40 414,35 " style="fill:white; stroke-width:1; stroke:black; " description="&lt;b&gt;EOMLKCNM_00184&lt;/b&gt;&lt;br&gt;Riboflavin transporter RfnT&lt;br&gt;Location: 33820 - 35041" locus_tag="EOMLKCNM_00184" class="clusterblast-orf" id="knownclusterblast-1_q10_0_all"  />
<polygon points="466,40 486,40 491,35 486,30 466,30 466,40 " style="fill:white; stroke-width:1; stroke:black; " description="&lt;b&gt;EOMLKCNM_00185&lt;/b&gt;&lt;br&gt;hypothetical protein&lt;br&gt;Location: 35140 - 35770" locus_tag="EOMLKCNM_00185" class="clusterblast-orf" id="knownclusterblast-1_q11_0_all"  />
<polygon points="491,40 512,40 517,35 512,30 491,30 491,40 " style="fill:white; stroke-width:1; stroke:black; " description="&lt;b&gt;EOMLKCNM_00186&lt;/b&gt;&lt;br&gt;hypothetical protein&lt;br&gt;Location: 35766 - 36426" locus_tag="EOMLKCNM_00186" class="clusterblast-orf" id="knownclusterblast-1_q12_0_all"  />
<polygon points="530,40 548,40 553,35 548,30 530,30 530,40 " style="fill:white; stroke-width:1; stroke:black; " description="&lt;b&gt;EOMLKCNM_00187&lt;/b&gt;&lt;br&gt;hypothetical protein&lt;br&gt;Location: 36757 - 37342" locus_tag="EOMLKCNM_00187" class="clusterblast-orf" id="knownclusterblast-1_q13_0_all"  />
<polygon points="558,40 590,40 595,35 590,30 558,30 558,40 " style="fill:white; stroke-width:1; stroke:black; " description="&lt;b&gt;EOMLKCNM_00188&lt;/b&gt;&lt;br&gt;tRNA-dihydrouridine(20/20a) synthase&lt;br&gt;Location: 37483 - 38425" locus_tag="EOMLKCNM_00188" class="clusterblast-orf" id="knownclusterblast-1_q14_0_all"  />
<polygon points="594,35 599,30 641,30 641,40 599,40 594,35 " style="fill:white; stroke-width:1; stroke:black; " description="&lt;b&gt;EOMLKCNM_00189&lt;/b&gt;&lt;br&gt;Bicyclomycin resistance protein&lt;br&gt;Location: 38406 - 39597" locus_tag="EOMLKCNM_00189" class="clusterblast-orf" id="knownclusterblast-1_q15_0_all"  />
<polygon points="648,35 653,30 663,30 663,40 653,40 648,35 " style="fill:white; stroke-width:1; stroke:black; " description="&lt;b&gt;EOMLKCNM_00190&lt;/b&gt;&lt;br&gt;Glutaredoxin 4&lt;br&gt;Location: 39784 - 40153" locus_tag="EOMLKCNM_00190" class="clusterblast-orf" id="knownclusterblast-1_q16_0_all"  />
<polygon points="665,35 670,30 674,30 674,40 670,40 665,35 " style="fill:white; stroke-width:1; stroke:black; " description="&lt;b&gt;EOMLKCNM_00191&lt;/b&gt;&lt;br&gt;putative protein RP812&lt;br&gt;Location: 40193 - 40436" locus_tag="EOMLKCNM_00191" class="clusterblast-orf" id="knownclusterblast-1_q17_0_all"  />
<polygon points="676,35 681,30 695,30 695,40 681,40 676,35 " style="fill:white; stroke-width:1; stroke:black; " description="&lt;b&gt;EOMLKCNM_00192&lt;/b&gt;&lt;br&gt;hypothetical protein&lt;br&gt;Location: 40484 - 40970" locus_tag="EOMLKCNM_00192" class="clusterblast-orf" id="knownclusterblast-1_q18_0_all"  />
<polygon points="695,35 700,30 780,30 780,40 700,40 695,35 " style="fill:white; stroke-width:1; stroke:black; " description="&lt;b&gt;EOMLKCNM_00193&lt;/b&gt;&lt;br&gt;Phosphoribosylformylglycinamidine synthase subunit PurL&lt;br&gt;Location: 40969 - 43129" locus_tag="EOMLKCNM_00193" class="clusterblast-orf" id="knownclusterblast-1_q19_0_all"  />
</g>
</svg>
