<svg xmlns="http://www.w3.org/2000/svg" xmlns:xlink="http://www.w3.org/1999/xlink" version="1.1" x="0" y="0" height="230" width="800" viewBox="0 0 800 230" preserveAspectRatio="none"  >
<g label="Query sequence" class="clusterblast-cluster"  >
<text x="5" y="20" class="clusterblast-acc"  >
Query sequence</text>
<line x1="10" y1="35" x2="778.0" y2="35" style="stroke-width:1; stroke:grey; "  />
<polygon points="0,40 48,40 53,35 48,30 0,30 0,40 " style="fill:#d81515; stroke-width:1; stroke:black; " description="&lt;b&gt;MNEFEBPL_00740&lt;/b&gt;&lt;br&gt;Beta-glucosidase A&lt;br&gt;Location: 759703 - 761044" locus_tag="MNEFEBPL_00740" class="clusterblast-orf" id="dummy-2_q0_0_all"  />
<polygon points="53,40 86,40 91,35 86,30 53,30 53,40 " style="fill:#63d815; stroke-width:1; stroke:black; " description="&lt;b&gt;MNEFEBPL_00741&lt;/b&gt;&lt;br&gt;Glucokinase&lt;br&gt;Location: 761040 - 762012" locus_tag="MNEFEBPL_00741" class="clusterblast-orf" id="dummy-2_q1_0_all"  />
<polygon points="91,35 96,30 109,30 109,40 96,40 91,35 " style="fill:#15b1d8; stroke-width:1; stroke:black; " description="&lt;b&gt;MNEFEBPL_00742&lt;/b&gt;&lt;br&gt;hypothetical protein&lt;br&gt;Location: 762008 - 762455" locus_tag="MNEFEBPL_00742" class="clusterblast-orf" id="dummy-2_q2_0_all"  />
<polygon points="110,35 115,30 145,30 145,40 115,40 110,35 " style="fill:#b115d8; stroke-width:1; stroke:black; " description="&lt;b&gt;MNEFEBPL_00743&lt;/b&gt;&lt;br&gt;hypothetical protein&lt;br&gt;Location: 762472 - 763354" locus_tag="MNEFEBPL_00743" class="clusterblast-orf" id="dummy-2_q3_0_all"  />
<polygon points="144,35 149,30 199,30 199,40 149,40 144,35 " style="fill:#d86315; stroke-width:1; stroke:black; " description="&lt;b&gt;MNEFEBPL_00744&lt;/b&gt;&lt;br&gt;Tryptophan decarboxylase&lt;br&gt;Location: 763350 - 764736" locus_tag="MNEFEBPL_00744" class="clusterblast-orf" id="dummy-2_q4_0_all"  />
<polygon points="206,40 225,40 230,35 225,30 206,30 206,40 " style="fill:#15d815; stroke-width:1; stroke:black; " description="&lt;b&gt;MNEFEBPL_00745&lt;/b&gt;&lt;br&gt;hypothetical protein&lt;br&gt;Location: 764894 - 765512" locus_tag="MNEFEBPL_00745" class="clusterblast-orf" id="dummy-2_q5_0_all"  />
<polygon points="239,40 294,40 299,35 294,30 239,30 239,40 " style="fill:#1563d8; stroke-width:1; stroke:black; " description="&lt;b&gt;MNEFEBPL_00746&lt;/b&gt;&lt;br&gt;L-cysteine:1D-myo-inositol 2-amino-2-deoxy-alpha-D-glucopyranoside ligase&lt;br&gt;Location: 765749 - 767246" locus_tag="MNEFEBPL_00746" class="clusterblast-orf" id="dummy-2_q6_0_all"  />
<polygon points="299,40 301,40 306,35 301,30 299,30 299,40 " style="fill:white; stroke-width:1; stroke:black; " description="&lt;b&gt;MNEFEBPL_00747&lt;/b&gt;&lt;br&gt;hypothetical protein&lt;br&gt;Location: 767242 - 767416" locus_tag="MNEFEBPL_00747" class="clusterblast-orf" id="dummy-2_q7_0_all"  />
<polygon points="305,40 365,40 370,35 365,30 305,30 305,40 " style="fill:#d815b1; stroke-width:1; stroke:black; " description="&lt;b&gt;MNEFEBPL_00748&lt;/b&gt;&lt;br&gt;(R)-citramalate synthase&lt;br&gt;Location: 767412 - 769035" locus_tag="MNEFEBPL_00748" class="clusterblast-orf" id="dummy-2_q8_0_all"  />
<polygon points="370,40 394,40 399,35 394,30 370,30 370,40 " style="fill:#d8b115; stroke-width:1; stroke:black; " description="&lt;b&gt;MNEFEBPL_00749&lt;/b&gt;&lt;br&gt;hypothetical protein&lt;br&gt;Location: 769037 - 769784" locus_tag="MNEFEBPL_00749" class="clusterblast-orf" id="dummy-2_q9_0_all"  />
<polygon points="403,35 408,30 451,30 451,40 408,40 403,35 " style="fill:#15d863; stroke-width:1; stroke:black; " description="&lt;b&gt;MNEFEBPL_00750&lt;/b&gt;&lt;br&gt;Riboflavin transporter RfnT&lt;br&gt;Location: 769872 - 771078" locus_tag="MNEFEBPL_00750" class="clusterblast-orf" id="dummy-2_q10_0_all"  />
<polygon points="455,40 474,40 479,35 474,30 455,30 455,40 " style="fill:#1515d8; stroke-width:1; stroke:black; " description="&lt;b&gt;MNEFEBPL_00751&lt;/b&gt;&lt;br&gt;hypothetical protein&lt;br&gt;Location: 771180 - 771792" locus_tag="MNEFEBPL_00751" class="clusterblast-orf" id="dummy-2_q11_0_all"  />
<polygon points="479,40 500,40 505,35 500,30 479,30 479,40 " style="fill:#d81563; stroke-width:1; stroke:black; " description="&lt;b&gt;MNEFEBPL_00752&lt;/b&gt;&lt;br&gt;Carboxylesterase 2&lt;br&gt;Location: 771791 - 772445" locus_tag="MNEFEBPL_00752" class="clusterblast-orf" id="dummy-2_q12_0_all"  />
<polygon points="506,35 511,30 530,30 530,40 511,40 506,35 " style="fill:#b1d815; stroke-width:1; stroke:black; " description="&lt;b&gt;MNEFEBPL_00753&lt;/b&gt;&lt;br&gt;hypothetical protein&lt;br&gt;Location: 772481 - 773081" locus_tag="MNEFEBPL_00753" class="clusterblast-orf" id="dummy-2_q13_0_all"  />
<polygon points="537,35 542,30 609,30 609,40 542,40 537,35 " style="fill:#15d8b1; stroke-width:1; stroke:black; " description="&lt;b&gt;MNEFEBPL_00754&lt;/b&gt;&lt;br&gt;ABC transporter ATP-binding protein uup&lt;br&gt;Location: 773262 - 775065" locus_tag="MNEFEBPL_00754" class="clusterblast-orf" id="dummy-2_q14_0_all"  />
<polygon points="611,35 616,30 628,30 628,40 616,40 611,35 " style="fill:white; stroke-width:1; stroke:black; " description="&lt;b&gt;MNEFEBPL_00755&lt;/b&gt;&lt;br&gt;hypothetical protein&lt;br&gt;Location: 775134 - 775557" locus_tag="MNEFEBPL_00755" class="clusterblast-orf" id="dummy-2_q15_0_all"  />
<polygon points="633,40 658,40 663,35 658,30 633,30 633,40 " style="fill:white; stroke-width:1; stroke:black; " description="&lt;b&gt;MNEFEBPL_00756&lt;/b&gt;&lt;br&gt;hypothetical protein&lt;br&gt;Location: 775674 - 776439" locus_tag="MNEFEBPL_00756" class="clusterblast-orf" id="dummy-2_q16_0_all"  />
<polygon points="672,40 749,40 754,35 749,30 672,30 672,40 " style="fill:#6315d8; stroke-width:1; stroke:black; " description="&lt;b&gt;MNEFEBPL_00757&lt;/b&gt;&lt;br&gt;hypothetical protein&lt;br&gt;Location: 776672 - 778721" locus_tag="MNEFEBPL_00757" class="clusterblast-orf" id="dummy-2_q17_0_all"  />
<polygon points="759,40 775,40 780,35 775,30 759,30 759,40 " style="fill:white; stroke-width:1; stroke:black; " description="&lt;b&gt;MNEFEBPL_00758&lt;/b&gt;&lt;br&gt;ECF RNA polymerase sigma factor SigK&lt;br&gt;Location: 778852 - 779386" locus_tag="MNEFEBPL_00758" class="clusterblast-orf" id="dummy-2_q18_0_all"  />
</g>
<g label="NZ_PZZW01000002" description="NZ_PZZW01000002 (59846-79139): Rhodobacter johrii strain JA192 Ga0191650 102,... (42% of genes show similarity), terpene" class="clusterblast-cluster"  >
<text x="5" y="70" class="clusterblast-acc"  >
<a xlink:href="https://antismash-db.secondarymetabolites.org/area.html?record=NZ_PZZW01000002&amp;start=59846&amp;end=79139" target="_blank">NZ_PZZW01000002 (59846-79139)</a>: Rhodobacter johrii strain JA192 Ga0191650 102,... (42% of genes show similarity), terpene</text>
<line x1="10" y1="85" x2="778.0" y2="85" style="stroke-width:1; stroke:grey; "  />
</g>
<g id="a2_000"  >
<polygon points="7,90 74,90 79,85 74,80 7,80 7,90 " style="fill:#15d8b1; stroke-width:1; stroke:black; " description="&lt;b&gt;C8J29_RS05255&lt;/b&gt;&lt;br&gt;ATP-binding cassette domain-containing protein&lt;br&gt;Location: 59847 - 61670&lt;br&gt;&lt;br&gt;&lt;b&gt;BlastP hit with MNEFEBPL_00754&lt;/b&gt;&lt;br&gt;Percentage identity: 76&lt;br&gt;Percentage coverage: 102&lt;br&gt;BLAST bit score: 881&lt;br&gt;E-value: 0.0" locus_tag="C8J29_RS05255" class="clusterblast-orf" id="dummy-2_h2_8_0"  />
</g>
<g id="a2_001"  >
<polygon points="88,90 107,90 112,85 107,80 88,80 88,90 " style="fill:#b1d815; stroke-width:1; stroke:black; " description="&lt;b&gt;C8J29_RS05260&lt;/b&gt;&lt;br&gt;porin family protein&lt;br&gt;Location: 61883 - 62485&lt;br&gt;&lt;br&gt;&lt;b&gt;BlastP hit with MNEFEBPL_00753&lt;/b&gt;&lt;br&gt;Percentage identity: 56&lt;br&gt;Percentage coverage: 101&lt;br&gt;BLAST bit score: 219&lt;br&gt;E-value: 5.45e-71" locus_tag="C8J29_RS05260" class="clusterblast-orf" id="dummy-2_h2_8_1"  />
</g>
<g id="a2_002"  >
<polygon points="121,90 134,90 139,85 134,80 121,80 121,90 " style="fill:white; stroke-width:1; stroke:black; " description="&lt;b&gt;C8J29_RS05265&lt;/b&gt;&lt;br&gt;Lrp/AsnC family transcriptional regulator&lt;br&gt;Location: 62718 - 63167" locus_tag="C8J29_RS05265" class="clusterblast-orf" id="dummy-2_h2_8_2"  />
</g>
<g id="a2_003"  >
<polygon points="153,90 172,90 177,85 172,80 153,80 153,90 " style="fill:white; stroke-width:1; stroke:black; " description="&lt;b&gt;C8J29_RS05270&lt;/b&gt;&lt;br&gt;LysE family transporter&lt;br&gt;Location: 63520 - 64128" locus_tag="C8J29_RS05270" class="clusterblast-orf" id="dummy-2_h2_8_3"  />
</g>
<g id="a2_004"  >
<polygon points="177,85 182,80 195,80 195,90 182,90 177,85 " style="fill:white; stroke-width:1; stroke:black; " description="&lt;b&gt;C8J29_RS05275&lt;/b&gt;&lt;br&gt;MmcQ/YjbR family DNA-binding protein&lt;br&gt;Location: 64125 - 64586" locus_tag="C8J29_RS05275" class="clusterblast-orf" id="dummy-2_h2_8_4"  />
</g>
<g id="a2_005"  >
<polygon points="199,90 253,90 258,85 253,80 199,80 199,90 " style="fill:#1563d8; stroke-width:1; stroke:black; " description="&lt;b&gt;C8J29_RS05280&lt;/b&gt;&lt;br&gt;cysteine--tRNA ligase&lt;br&gt;Location: 64680 - 66179&lt;br&gt;&lt;br&gt;&lt;b&gt;BlastP hit with MNEFEBPL_00746&lt;/b&gt;&lt;br&gt;Percentage identity: 61&lt;br&gt;Percentage coverage: 103&lt;br&gt;BLAST bit score: 588&lt;br&gt;E-value: 3.01e-207" locus_tag="C8J29_RS05280" class="clusterblast-orf" id="dummy-2_h2_8_5"  />
</g>
<g id="a2_006"  >
<polygon points="263,90 324,90 329,85 324,80 263,80 263,90 " style="fill:#d815b1; stroke-width:1; stroke:black; " description="&lt;b&gt;C8J29_RS05285&lt;/b&gt;&lt;br&gt;citramalate synthase&lt;br&gt;Location: 66305 - 67957&lt;br&gt;&lt;br&gt;&lt;b&gt;BlastP hit with MNEFEBPL_00748&lt;/b&gt;&lt;br&gt;Percentage identity: 80&lt;br&gt;Percentage coverage: 99&lt;br&gt;BLAST bit score: 853&lt;br&gt;E-value: 3.44e-310" locus_tag="C8J29_RS05285" class="clusterblast-orf" id="dummy-2_h2_8_6"  />
</g>
<g id="a2_007"  >
<polygon points="328,90 352,90 357,85 352,80 328,80 328,90 " style="fill:white; stroke-width:1; stroke:black; " description="&lt;b&gt;C8J29_RS05290&lt;/b&gt;&lt;br&gt;class I SAM-dependent methyltransferase&lt;br&gt;Location: 67954 - 68673" locus_tag="C8J29_RS05290" class="clusterblast-orf" id="dummy-2_h2_8_7"  />
</g>
<g id="a2_008"  >
<polygon points="357,90 382,90 387,85 382,80 357,80 357,90 " style="fill:#d8b115; stroke-width:1; stroke:black; " description="&lt;b&gt;C8J29_RS05295&lt;/b&gt;&lt;br&gt;squalene/phytoene synthase family protein&lt;br&gt;Location: 68670 - 69437&lt;br&gt;&lt;br&gt;&lt;b&gt;BlastP hit with MNEFEBPL_00749&lt;/b&gt;&lt;br&gt;Percentage identity: 58&lt;br&gt;Percentage coverage: 102&lt;br&gt;BLAST bit score: 254&lt;br&gt;E-value: 3.17e-83" locus_tag="C8J29_RS05295" class="clusterblast-orf" id="dummy-2_h2_8_8"  />
</g>
<g id="a2_009"  >
<polygon points="387,85 392,80 436,80 436,90 392,90 387,85 " style="fill:#15d863; stroke-width:1; stroke:black; " description="&lt;b&gt;C8J29_RS05300&lt;/b&gt;&lt;br&gt;MFS transporter&lt;br&gt;Location: 69441 - 70661&lt;br&gt;&lt;br&gt;&lt;b&gt;BlastP hit with MNEFEBPL_00750&lt;/b&gt;&lt;br&gt;Percentage identity: 72&lt;br&gt;Percentage coverage: 99&lt;br&gt;BLAST bit score: 529&lt;br&gt;E-value: 4.9e-187" locus_tag="C8J29_RS05300" class="clusterblast-orf" id="dummy-2_h2_8_9"  />
</g>
<g id="a2_0010"  >
<polygon points="441,90 461,90 466,85 461,80 441,80 441,90 " style="fill:#1515d8; stroke-width:1; stroke:black; " description="&lt;b&gt;C8J29_RS05305&lt;/b&gt;&lt;br&gt;DNA-3-methyladenine glycosylase 2 family protein&lt;br&gt;Location: 70803 - 71432&lt;br&gt;&lt;br&gt;&lt;b&gt;BlastP hit with MNEFEBPL_00751&lt;/b&gt;&lt;br&gt;Percentage identity: 62&lt;br&gt;Percentage coverage: 98&lt;br&gt;BLAST bit score: 220&lt;br&gt;E-value: 2.1e-71" locus_tag="C8J29_RS05305" class="clusterblast-orf" id="dummy-2_h2_8_10"  />
</g>
<g id="a2_0011"  >
<polygon points="466,90 487,90 492,85 487,80 466,80 466,90 " style="fill:#d81563; stroke-width:1; stroke:black; " description="&lt;b&gt;C8J29_RS05310&lt;/b&gt;&lt;br&gt;alpha/beta fold hydrolase&lt;br&gt;Location: 71429 - 72091&lt;br&gt;&lt;br&gt;&lt;b&gt;BlastP hit with MNEFEBPL_00752&lt;/b&gt;&lt;br&gt;Percentage identity: 69&lt;br&gt;Percentage coverage: 100&lt;br&gt;BLAST bit score: 301&lt;br&gt;E-value: 6.2e-103" locus_tag="C8J29_RS05310" class="clusterblast-orf" id="dummy-2_h2_8_11"  />
</g>
<g id="a2_0012"  >
<polygon points="514,90 532,90 537,85 532,80 514,80 514,90 " style="fill:white; stroke-width:1; stroke:black; " description="&lt;b&gt;C8J29_RS05315&lt;/b&gt;&lt;br&gt;HNH endonuclease&lt;br&gt;Location: 72623 - 73207" locus_tag="C8J29_RS05315" class="clusterblast-orf" id="dummy-2_h2_8_12"  />
</g>
<g id="a2_0013"  >
<polygon points="558,90 566,90 571,85 566,80 558,80 558,90 " style="fill:white; stroke-width:1; stroke:black; " description="&lt;b&gt;C8J29_RS05325&lt;/b&gt;&lt;br&gt;helix-turn-helix transcriptional regulator&lt;br&gt;Location: 73751 - 74077" locus_tag="C8J29_RS05325" class="clusterblast-orf" id="dummy-2_h2_8_13"  />
</g>
<g id="a2_0014"  >
<polygon points="571,90 571,90 576,85 571,80 571,80 571,90 " style="fill:white; stroke-width:1; stroke:black; " description="&lt;b&gt;C8J29_RS05330&lt;/b&gt;&lt;br&gt;GNAT family N-acetyltransferase&lt;br&gt;Location: 74070 - 74192" locus_tag="C8J29_RS05330" class="clusterblast-orf" id="dummy-2_h2_8_14"  />
</g>
<g id="a2_0015"  >
<polygon points="583,90 619,90 624,85 619,80 583,80 583,90 " style="fill:white; stroke-width:1; stroke:black; " description="&lt;b&gt;C8J29_RS05335&lt;/b&gt;&lt;br&gt;ACR3 family arsenite efflux transporter&lt;br&gt;Location: 74386 - 75423" locus_tag="C8J29_RS05335" class="clusterblast-orf" id="dummy-2_h2_8_15"  />
</g>
<g id="a2_0016"  >
<polygon points="624,90 648,90 653,85 648,80 624,80 624,90 " style="fill:white; stroke-width:1; stroke:black; " description="&lt;b&gt;C8J29_RS05340&lt;/b&gt;&lt;br&gt;arsenical resistance protein ArsH&lt;br&gt;Location: 75420 - 76133" locus_tag="C8J29_RS05340" class="clusterblast-orf" id="dummy-2_h2_8_16"  />
</g>
<g id="a2_0017"  >
<polygon points="652,90 694,90 699,85 694,80 652,80 652,90 " style="fill:white; stroke-width:1; stroke:black; " description="&lt;b&gt;C8J29_RS05345&lt;/b&gt;&lt;br&gt;MFS transporter&lt;br&gt;Location: 76130 - 77293" locus_tag="C8J29_RS05345" class="clusterblast-orf" id="dummy-2_h2_8_17"  />
</g>
<g id="a2_0018"  >
<polygon points="714,90 767,90 772,85 767,80 714,80 714,90 " style="fill:white; stroke-width:1; stroke:black; " description="&lt;b&gt;C8J29_RS05350&lt;/b&gt;&lt;br&gt;glucose-6-phosphate dehydrogenase&lt;br&gt;Location: 77688 - 79139" locus_tag="C8J29_RS05350" class="clusterblast-orf" id="dummy-2_h2_8_18"  />
</g>
</svg>
