<svg xmlns="http://www.w3.org/2000/svg" xmlns:xlink="http://www.w3.org/1999/xlink" version="1.1" x="0" y="0" height="230" width="800" viewBox="0 0 800 230" preserveAspectRatio="none"  >
<g label="Query sequence" class="clusterblast-cluster"  >
<text x="5" y="20" class="clusterblast-acc"  >
Query sequence</text>
<line x1="10" y1="35" x2="778.0" y2="35" style="stroke-width:1; stroke:grey; "  />
<polygon points="0,40 29,40 34,35 29,30 0,30 0,40 " style="fill:#d81515; stroke-width:1; stroke:black; " description="&lt;b&gt;MNEFEBPL_03794&lt;/b&gt;&lt;br&gt;Acetylglutamate kinase&lt;br&gt;Location: 30637 - 31537" locus_tag="MNEFEBPL_03794" class="clusterblast-orf" id="dummy-1_q0_0_all"  />
<polygon points="51,35 56,30 80,30 80,40 56,40 51,35 " style="fill:#77d815; stroke-width:1; stroke:black; " description="&lt;b&gt;MNEFEBPL_03795&lt;/b&gt;&lt;br&gt;Glutamine transport ATP-binding protein GlnQ&lt;br&gt;Location: 31967 - 32735" locus_tag="MNEFEBPL_03795" class="clusterblast-orf" id="dummy-1_q1_0_all"  />
<polygon points="80,35 85,30 136,30 136,40 85,40 80,35 " style="fill:#15d8d8; stroke-width:1; stroke:black; " description="&lt;b&gt;MNEFEBPL_03796&lt;/b&gt;&lt;br&gt;hypothetical protein&lt;br&gt;Location: 32744 - 34202" locus_tag="MNEFEBPL_03796" class="clusterblast-orf" id="dummy-1_q2_0_all"  />
<polygon points="136,35 141,30 185,30 185,40 141,40 136,35 " style="fill:#15d8d8; stroke-width:1; stroke:black; " description="&lt;b&gt;MNEFEBPL_03797&lt;/b&gt;&lt;br&gt;hypothetical protein&lt;br&gt;Location: 34203 - 35481" locus_tag="MNEFEBPL_03797" class="clusterblast-orf" id="dummy-1_q3_0_all"  />
<polygon points="190,35 195,30 228,30 228,40 195,40 190,35 " style="fill:#7715d8; stroke-width:1; stroke:black; " description="&lt;b&gt;MNEFEBPL_03798&lt;/b&gt;&lt;br&gt;Putative amino-acid ABC transporter-binding protein YhdW&lt;br&gt;Location: 35608 - 36625" locus_tag="MNEFEBPL_03798" class="clusterblast-orf" id="dummy-1_q4_0_all"  />
<polygon points="237,35 242,30 264,30 264,40 242,40 237,35 " style="fill:#d84615; stroke-width:1; stroke:black; " description="&lt;b&gt;MNEFEBPL_03799&lt;/b&gt;&lt;br&gt;hypothetical protein&lt;br&gt;Location: 36862 - 37570" locus_tag="MNEFEBPL_03799" class="clusterblast-orf" id="dummy-1_q5_0_all"  />
<polygon points="264,35 269,30 304,30 304,40 269,40 264,35 " style="fill:#46d815; stroke-width:1; stroke:black; " description="&lt;b&gt;MNEFEBPL_03800&lt;/b&gt;&lt;br&gt;Ribosomal large subunit pseudouridine synthase C&lt;br&gt;Location: 37566 - 38610" locus_tag="MNEFEBPL_03800" class="clusterblast-orf" id="dummy-1_q6_0_all"  />
<polygon points="304,35 309,30 317,30 317,40 309,40 304,35 " style="fill:#15a7d8; stroke-width:1; stroke:black; " description="&lt;b&gt;MNEFEBPL_03801&lt;/b&gt;&lt;br&gt;Putative fluoride ion transporter CrcB&lt;br&gt;Location: 38606 - 38957" locus_tag="MNEFEBPL_03801" class="clusterblast-orf" id="dummy-1_q7_0_all"  />
<polygon points="322,35 327,30 372,30 372,40 327,40 322,35 " style="fill:#a715d8; stroke-width:1; stroke:black; " description="&lt;b&gt;MNEFEBPL_03802&lt;/b&gt;&lt;br&gt;Replication-associated recombination protein A&lt;br&gt;Location: 39069 - 40377" locus_tag="MNEFEBPL_03802" class="clusterblast-orf" id="dummy-1_q8_0_all"  />
<polygon points="379,35 384,30 401,30 401,40 384,40 379,35 " style="fill:#d87715; stroke-width:1; stroke:black; " description="&lt;b&gt;MNEFEBPL_03803&lt;/b&gt;&lt;br&gt;Acyl-homoserine-lactone synthase&lt;br&gt;Location: 40571 - 41159" locus_tag="MNEFEBPL_03803" class="clusterblast-orf" id="dummy-1_q9_0_all"  />
<polygon points="403,35 408,30 426,30 426,40 408,40 403,35 " style="fill:#15d815; stroke-width:1; stroke:black; " description="&lt;b&gt;MNEFEBPL_03804&lt;/b&gt;&lt;br&gt;hypothetical protein&lt;br&gt;Location: 41204 - 41816" locus_tag="MNEFEBPL_03804" class="clusterblast-orf" id="dummy-1_q10_0_all"  />
<polygon points="433,35 438,30 448,30 448,40 438,40 433,35 " style="fill:#1577d8; stroke-width:1; stroke:black; " description="&lt;b&gt;MNEFEBPL_03805&lt;/b&gt;&lt;br&gt;50S ribosomal protein L17&lt;br&gt;Location: 41980 - 42391" locus_tag="MNEFEBPL_03805" class="clusterblast-orf" id="dummy-1_q11_0_all"  />
<polygon points="454,35 459,30 492,30 492,40 459,40 454,35 " style="fill:#d815d8; stroke-width:1; stroke:black; " description="&lt;b&gt;MNEFEBPL_03806&lt;/b&gt;&lt;br&gt;DNA-directed RNA polymerase subunit alpha&lt;br&gt;Location: 42529 - 43546" locus_tag="MNEFEBPL_03806" class="clusterblast-orf" id="dummy-1_q12_0_all"  />
<polygon points="497,35 502,30 512,30 512,40 502,40 497,35 " style="fill:#d8a715; stroke-width:1; stroke:black; " description="&lt;b&gt;MNEFEBPL_03807&lt;/b&gt;&lt;br&gt;30S ribosomal protein S11&lt;br&gt;Location: 43668 - 44064" locus_tag="MNEFEBPL_03807" class="clusterblast-orf" id="dummy-1_q13_0_all"  />
<polygon points="513,35 518,30 527,30 527,40 518,40 513,35 " style="fill:#15d846; stroke-width:1; stroke:black; " description="&lt;b&gt;MNEFEBPL_03808&lt;/b&gt;&lt;br&gt;30S ribosomal protein S13&lt;br&gt;Location: 44077 - 44446" locus_tag="MNEFEBPL_03808" class="clusterblast-orf" id="dummy-1_q14_0_all"  />
<polygon points="534,35 539,30 559,30 559,40 539,40 534,35 " style="fill:#1546d8; stroke-width:1; stroke:black; " description="&lt;b&gt;MNEFEBPL_03809&lt;/b&gt;&lt;br&gt;Adenylate kinase&lt;br&gt;Location: 44628 - 45279" locus_tag="MNEFEBPL_03809" class="clusterblast-orf" id="dummy-1_q15_0_all"  />
<polygon points="559,35 564,30 611,30 611,40 564,40 559,35 " style="fill:#d815a7; stroke-width:1; stroke:black; " description="&lt;b&gt;MNEFEBPL_03810&lt;/b&gt;&lt;br&gt;Protein translocase subunit SecY&lt;br&gt;Location: 45283 - 46645" locus_tag="MNEFEBPL_03810" class="clusterblast-orf" id="dummy-1_q16_0_all"  />
<polygon points="615,35 620,30 633,30 633,40 620,40 615,35 " style="fill:#d8d815; stroke-width:1; stroke:black; " description="&lt;b&gt;MNEFEBPL_03811&lt;/b&gt;&lt;br&gt;50S ribosomal protein L15&lt;br&gt;Location: 46747 - 47227" locus_tag="MNEFEBPL_03811" class="clusterblast-orf" id="dummy-1_q17_0_all"  />
<polygon points="648,40 650,40 655,35 650,30 648,30 648,40 " style="fill:white; stroke-width:1; stroke:black; " description="&lt;b&gt;MNEFEBPL_03812&lt;/b&gt;&lt;br&gt;hypothetical protein&lt;br&gt;Location: 47622 - 47817" locus_tag="MNEFEBPL_03812" class="clusterblast-orf" id="dummy-1_q18_0_all"  />
<polygon points="661,35 666,30 669,30 669,40 666,40 661,35 " style="fill:#15d877; stroke-width:1; stroke:black; " description="&lt;b&gt;MNEFEBPL_03813&lt;/b&gt;&lt;br&gt;50S ribosomal protein L30&lt;br&gt;Location: 47976 - 48174" locus_tag="MNEFEBPL_03813" class="clusterblast-orf" id="dummy-1_q19_0_all"  />
<polygon points="669,35 674,30 691,30 691,40 674,40 669,35 " style="fill:#1515d8; stroke-width:1; stroke:black; " description="&lt;b&gt;MNEFEBPL_03814&lt;/b&gt;&lt;br&gt;30S ribosomal protein S5&lt;br&gt;Location: 48179 - 48755" locus_tag="MNEFEBPL_03814" class="clusterblast-orf" id="dummy-1_q20_0_all"  />
<polygon points="696,35 701,30 709,30 709,40 701,40 696,35 " style="fill:#d81577; stroke-width:1; stroke:black; " description="&lt;b&gt;MNEFEBPL_03815&lt;/b&gt;&lt;br&gt;50S ribosomal protein L18&lt;br&gt;Location: 48868 - 49228" locus_tag="MNEFEBPL_03815" class="clusterblast-orf" id="dummy-1_q21_0_all"  />
<polygon points="710,35 715,30 730,30 730,40 715,40 710,35 " style="fill:#a7d815; stroke-width:1; stroke:black; " description="&lt;b&gt;MNEFEBPL_03816&lt;/b&gt;&lt;br&gt;50S ribosomal protein L6&lt;br&gt;Location: 49239 - 49773" locus_tag="MNEFEBPL_03816" class="clusterblast-orf" id="dummy-1_q22_0_all"  />
<polygon points="730,35 735,30 746,30 746,40 735,40 730,35 " style="fill:#15d8a7; stroke-width:1; stroke:black; " description="&lt;b&gt;MNEFEBPL_03817&lt;/b&gt;&lt;br&gt;30S ribosomal protein S8&lt;br&gt;Location: 49783 - 50182" locus_tag="MNEFEBPL_03817" class="clusterblast-orf" id="dummy-1_q23_0_all"  />
<polygon points="746,35 751,30 758,30 758,40 751,40 746,35 " style="fill:#4615d8; stroke-width:1; stroke:black; " description="&lt;b&gt;MNEFEBPL_03818&lt;/b&gt;&lt;br&gt;30S ribosomal protein S14&lt;br&gt;Location: 50194 - 50500" locus_tag="MNEFEBPL_03818" class="clusterblast-orf" id="dummy-1_q24_0_all"  />
<polygon points="758,35 763,30 780,30 780,40 763,40 758,35 " style="fill:#d81546; stroke-width:1; stroke:black; " description="&lt;b&gt;MNEFEBPL_03819&lt;/b&gt;&lt;br&gt;50S ribosomal protein L5&lt;br&gt;Location: 50518 - 51079" locus_tag="MNEFEBPL_03819" class="clusterblast-orf" id="dummy-1_q25_0_all"  />
</g>
<g label="NC_009952" description="NC_009952 (291164-311300): Dinoroseobacter shibae DFL 12 = DSM 16493, complet... (85% of genes show similarity), hserlactone" class="clusterblast-cluster"  >
<text x="5" y="70" class="clusterblast-acc"  >
<a xlink:href="https://antismash-db.secondarymetabolites.org/area.html?record=NC_009952&amp;start=291164&amp;end=311300" target="_blank">NC_009952 (291164-311300)</a>: Dinoroseobacter shibae DFL 12 = DSM 16493, complet... (85% of genes show similarity), hserlactone</text>
<line x1="10" y1="85" x2="778.0" y2="85" style="stroke-width:1; stroke:grey; "  />
</g>
<g id="a1_000"  >
<polygon points="5,90 19,90 24,85 19,80 5,80 5,90 " style="fill:white; stroke-width:1; stroke:black; " description="&lt;b&gt;DSHI_RS01605&lt;/b&gt;&lt;br&gt;histidine phosphatase family protein&lt;br&gt;Location: 311300 - 310800" locus_tag="DSHI_RS01605" class="clusterblast-orf" id="dummy-1_h1_10_0"  />
</g>
<g id="a1_001"  >
<polygon points="26,85 31,80 55,80 55,90 31,90 26,85 " style="fill:#77d815; stroke-width:1; stroke:black; " description="&lt;b&gt;DSHI_RS01600&lt;/b&gt;&lt;br&gt;amino acid ABC transporter ATP-binding protein&lt;br&gt;Location: 310756 - 309986&lt;br&gt;&lt;br&gt;&lt;b&gt;BlastP hit with MNEFEBPL_03795&lt;/b&gt;&lt;br&gt;Percentage identity: 86&lt;br&gt;Percentage coverage: 99&lt;br&gt;BLAST bit score: 442&lt;br&gt;E-value: 2.59e-157" locus_tag="DSHI_RS01600" class="clusterblast-orf" id="dummy-1_h1_10_1"  />
</g>
<g id="a1_002"  >
<polygon points="56,85 61,80 106,80 106,90 61,90 56,85 " style="fill:#15d8d8; stroke-width:1; stroke:black; " description="&lt;b&gt;DSHI_RS01595&lt;/b&gt;&lt;br&gt;ABC transporter permease subunit&lt;br&gt;Location: 309964 - 308666&lt;br&gt;&lt;br&gt;&lt;b&gt;BlastP hit with MNEFEBPL_03796&lt;/b&gt;&lt;br&gt;Percentage identity: 47&lt;br&gt;Percentage coverage: 100&lt;br&gt;BLAST bit score: 417&lt;br&gt;E-value: 2.48e-141&lt;br&gt;&lt;br&gt;&lt;b&gt;BlastP hit with MNEFEBPL_03797&lt;/b&gt;&lt;br&gt;Percentage identity: 42&lt;br&gt;Percentage coverage: 21&lt;br&gt;BLAST bit score: 66&lt;br&gt;E-value: 9.97e-10" locus_tag="DSHI_RS01595" class="clusterblast-orf" id="dummy-1_h1_10_2"  />
</g>
<g id="a1_003"  >
<polygon points="106,85 111,80 153,80 153,90 111,90 106,85 " style="fill:#15d8d8; stroke-width:1; stroke:black; " description="&lt;b&gt;DSHI_RS01590&lt;/b&gt;&lt;br&gt;ABC transporter permease subunit&lt;br&gt;Location: 308664 - 307429&lt;br&gt;&lt;br&gt;&lt;b&gt;BlastP hit with MNEFEBPL_03796&lt;/b&gt;&lt;br&gt;Percentage identity: 46&lt;br&gt;Percentage coverage: 17&lt;br&gt;BLAST bit score: 69&lt;br&gt;E-value: 2.22e-10&lt;br&gt;&lt;br&gt;&lt;b&gt;BlastP hit with MNEFEBPL_03797&lt;/b&gt;&lt;br&gt;Percentage identity: 52&lt;br&gt;Percentage coverage: 100&lt;br&gt;BLAST bit score: 392&lt;br&gt;E-value: 1.01e-132" locus_tag="DSHI_RS01590" class="clusterblast-orf" id="dummy-1_h1_10_3"  />
</g>
<g id="a1_004"  >
<polygon points="158,85 163,80 196,80 196,90 163,90 158,85 " style="fill:#7715d8; stroke-width:1; stroke:black; " description="&lt;b&gt;DSHI_RS01585&lt;/b&gt;&lt;br&gt;amino acid ABC transporter substrate-binding protein&lt;br&gt;Location: 307308 - 306292&lt;br&gt;&lt;br&gt;&lt;b&gt;BlastP hit with MNEFEBPL_03798&lt;/b&gt;&lt;br&gt;Percentage identity: 64&lt;br&gt;Percentage coverage: 100&lt;br&gt;BLAST bit score: 438&lt;br&gt;E-value: 4.17e-153" locus_tag="DSHI_RS01585" class="clusterblast-orf" id="dummy-1_h1_10_4"  />
</g>
<g id="a1_005"  >
<polygon points="210,85 215,80 237,80 237,90 215,90 210,85 " style="fill:#d84615; stroke-width:1; stroke:black; " description="&lt;b&gt;DSHI_RS01580&lt;/b&gt;&lt;br&gt;ATPase&lt;br&gt;Location: 305942 - 305238&lt;br&gt;&lt;br&gt;&lt;b&gt;BlastP hit with MNEFEBPL_03799&lt;/b&gt;&lt;br&gt;Percentage identity: 60&lt;br&gt;Percentage coverage: 99&lt;br&gt;BLAST bit score: 271&lt;br&gt;E-value: 2.05e-90" locus_tag="DSHI_RS01580" class="clusterblast-orf" id="dummy-1_h1_10_5"  />
</g>
<g id="a1_006"  >
<polygon points="237,85 242,80 262,80 262,90 242,90 237,85 " style="fill:white; stroke-width:1; stroke:black; " description="&lt;b&gt;DSHI_RS01575&lt;/b&gt;&lt;br&gt;HAD-IA family hydrolase&lt;br&gt;Location: 305241 - 304561" locus_tag="DSHI_RS01575" class="clusterblast-orf" id="dummy-1_h1_10_6"  />
</g>
<g id="a1_007"  >
<polygon points="262,85 267,80 302,80 302,90 267,90 262,85 " style="fill:#46d815; stroke-width:1; stroke:black; " description="&lt;b&gt;DSHI_RS01570&lt;/b&gt;&lt;br&gt;RluA family pseudouridine synthase&lt;br&gt;Location: 304564 - 303518&lt;br&gt;&lt;br&gt;&lt;b&gt;BlastP hit with MNEFEBPL_03800&lt;/b&gt;&lt;br&gt;Percentage identity: 62&lt;br&gt;Percentage coverage: 101&lt;br&gt;BLAST bit score: 433&lt;br&gt;E-value: 7.9e-151" locus_tag="DSHI_RS01570" class="clusterblast-orf" id="dummy-1_h1_10_7"  />
</g>
<g id="a1_008"  >
<polygon points="302,85 307,80 317,80 317,90 307,90 302,85 " style="fill:#15a7d8; stroke-width:1; stroke:black; " description="&lt;b&gt;DSHI_RS01565&lt;/b&gt;&lt;br&gt;fluoride efflux transporter CrcB&lt;br&gt;Location: 303521 - 303141&lt;br&gt;&lt;br&gt;&lt;b&gt;BlastP hit with MNEFEBPL_03801&lt;/b&gt;&lt;br&gt;Percentage identity: 45&lt;br&gt;Percentage coverage: 105&lt;br&gt;BLAST bit score: 68&lt;br&gt;E-value: 8.99e-14" locus_tag="DSHI_RS01565" class="clusterblast-orf" id="dummy-1_h1_10_8"  />
</g>
<g id="a1_009"  >
<polygon points="318,85 323,80 368,80 368,90 323,90 318,85 " style="fill:#a715d8; stroke-width:1; stroke:black; " description="&lt;b&gt;DSHI_RS01560&lt;/b&gt;&lt;br&gt;replication-associated recombination protein A&lt;br&gt;Location: 303109 - 301799&lt;br&gt;&lt;br&gt;&lt;b&gt;BlastP hit with MNEFEBPL_03802&lt;/b&gt;&lt;br&gt;Percentage identity: 78&lt;br&gt;Percentage coverage: 100&lt;br&gt;BLAST bit score: 662&lt;br&gt;E-value: 1.27e-238" locus_tag="DSHI_RS01560" class="clusterblast-orf" id="dummy-1_h1_10_9"  />
</g>
<g id="a1_0010"  >
<polygon points="375,85 380,80 397,80 397,90 380,90 375,85 " style="fill:#d87715; stroke-width:1; stroke:black; " description="&lt;b&gt;DSHI_RS01555&lt;/b&gt;&lt;br&gt;N-acyl-L-homoserine lactone synthetase&lt;br&gt;Location: 301619 - 301032&lt;br&gt;&lt;br&gt;&lt;b&gt;BlastP hit with MNEFEBPL_03803&lt;/b&gt;&lt;br&gt;Percentage identity: 59&lt;br&gt;Percentage coverage: 100&lt;br&gt;BLAST bit score: 247&lt;br&gt;E-value: 3.19e-82" locus_tag="DSHI_RS01555" class="clusterblast-orf" id="dummy-1_h1_10_10"  />
</g>
<g id="a1_0011"  >
<polygon points="399,85 404,80 423,80 423,90 404,90 399,85 " style="fill:#15d815; stroke-width:1; stroke:black; " description="&lt;b&gt;DSHI_RS01550&lt;/b&gt;&lt;br&gt;LuxR family transcriptional regulator&lt;br&gt;Location: 300975 - 300364&lt;br&gt;&lt;br&gt;&lt;b&gt;BlastP hit with MNEFEBPL_03804&lt;/b&gt;&lt;br&gt;Percentage identity: 53&lt;br&gt;Percentage coverage: 98&lt;br&gt;BLAST bit score: 210&lt;br&gt;E-value: 2.16e-67" locus_tag="DSHI_RS01550" class="clusterblast-orf" id="dummy-1_h1_10_11"  />
</g>
<g id="a1_0012"  >
<polygon points="427,90 428,90 433,85 428,80 427,80 427,90 " style="fill:white; stroke-width:1; stroke:black; " description="&lt;b&gt;DSHI_RS22190&lt;/b&gt;&lt;br&gt;hypothetical protein&lt;br&gt;Location: 300249 - 300094" locus_tag="DSHI_RS22190" class="clusterblast-orf" id="dummy-1_h1_10_12"  />
</g>
<g id="a1_0013"  >
<polygon points="436,85 441,80 452,80 452,90 441,90 436,85 " style="fill:#1577d8; stroke-width:1; stroke:black; " description="&lt;b&gt;DSHI_RS01545&lt;/b&gt;&lt;br&gt;50S ribosomal protein L17&lt;br&gt;Location: 300021 - 299605&lt;br&gt;&lt;br&gt;&lt;b&gt;BlastP hit with MNEFEBPL_03805&lt;/b&gt;&lt;br&gt;Percentage identity: 84&lt;br&gt;Percentage coverage: 99&lt;br&gt;BLAST bit score: 223&lt;br&gt;E-value: 9e-75" locus_tag="DSHI_RS01545" class="clusterblast-orf" id="dummy-1_h1_10_13"  />
</g>
<g id="a1_0014"  >
<polygon points="456,85 461,80 495,80 495,90 461,90 456,85 " style="fill:#d815d8; stroke-width:1; stroke:black; " description="&lt;b&gt;DSHI_RS01540&lt;/b&gt;&lt;br&gt;DNA-directed RNA polymerase subunit alpha&lt;br&gt;Location: 299486 - 298470&lt;br&gt;&lt;br&gt;&lt;b&gt;BlastP hit with MNEFEBPL_03806&lt;/b&gt;&lt;br&gt;Percentage identity: 89&lt;br&gt;Percentage coverage: 100&lt;br&gt;BLAST bit score: 603&lt;br&gt;E-value: 2.95e-218" locus_tag="DSHI_RS01540" class="clusterblast-orf" id="dummy-1_h1_10_14"  />
</g>
<g id="a1_0015"  >
<polygon points="499,85 504,80 514,80 514,90 504,90 499,85 " style="fill:#d8a715; stroke-width:1; stroke:black; " description="&lt;b&gt;DSHI_RS01535&lt;/b&gt;&lt;br&gt;30S ribosomal protein S11&lt;br&gt;Location: 298352 - 297963&lt;br&gt;&lt;br&gt;&lt;b&gt;BlastP hit with MNEFEBPL_03807&lt;/b&gt;&lt;br&gt;Percentage identity: 92&lt;br&gt;Percentage coverage: 100&lt;br&gt;BLAST bit score: 228&lt;br&gt;E-value: 8.08e-77" locus_tag="DSHI_RS01535" class="clusterblast-orf" id="dummy-1_h1_10_15"  />
</g>
<g id="a1_0016"  >
<polygon points="515,85 520,80 529,80 529,90 520,90 515,85 " style="fill:#15d846; stroke-width:1; stroke:black; " description="&lt;b&gt;DSHI_RS01530&lt;/b&gt;&lt;br&gt;30S ribosomal protein S13&lt;br&gt;Location: 297947 - 297579&lt;br&gt;&lt;br&gt;&lt;b&gt;BlastP hit with MNEFEBPL_03808&lt;/b&gt;&lt;br&gt;Percentage identity: 82&lt;br&gt;Percentage coverage: 100&lt;br&gt;BLAST bit score: 201&lt;br&gt;E-value: 1.48e-66" locus_tag="DSHI_RS01530" class="clusterblast-orf" id="dummy-1_h1_10_16"  />
</g>
<g id="a1_0017"  >
<polygon points="538,85 543,80 562,80 562,90 543,90 538,85 " style="fill:#1546d8; stroke-width:1; stroke:black; " description="&lt;b&gt;DSHI_RS01525&lt;/b&gt;&lt;br&gt;adenylate kinase&lt;br&gt;Location: 297342 - 296701&lt;br&gt;&lt;br&gt;&lt;b&gt;BlastP hit with MNEFEBPL_03809&lt;/b&gt;&lt;br&gt;Percentage identity: 68&lt;br&gt;Percentage coverage: 98&lt;br&gt;BLAST bit score: 288&lt;br&gt;E-value: 4.93e-98" locus_tag="DSHI_RS01525" class="clusterblast-orf" id="dummy-1_h1_10_17"  />
</g>
<g id="a1_0018"  >
<polygon points="562,85 567,80 614,80 614,90 567,90 562,85 " style="fill:#d815a7; stroke-width:1; stroke:black; " description="&lt;b&gt;DSHI_RS01520&lt;/b&gt;&lt;br&gt;preprotein translocase subunit SecY&lt;br&gt;Location: 296704 - 295343&lt;br&gt;&lt;br&gt;&lt;b&gt;BlastP hit with MNEFEBPL_03810&lt;/b&gt;&lt;br&gt;Percentage identity: 76&lt;br&gt;Percentage coverage: 100&lt;br&gt;BLAST bit score: 675&lt;br&gt;E-value: 6.47e-243" locus_tag="DSHI_RS01520" class="clusterblast-orf" id="dummy-1_h1_10_18"  />
</g>
<g id="a1_0019"  >
<polygon points="618,85 623,80 637,80 637,90 623,90 618,85 " style="fill:#d8d815; stroke-width:1; stroke:black; " description="&lt;b&gt;DSHI_RS01515&lt;/b&gt;&lt;br&gt;50S ribosomal protein L15&lt;br&gt;Location: 295231 - 294758&lt;br&gt;&lt;br&gt;&lt;b&gt;BlastP hit with MNEFEBPL_03811&lt;/b&gt;&lt;br&gt;Percentage identity: 71&lt;br&gt;Percentage coverage: 99&lt;br&gt;BLAST bit score: 209&lt;br&gt;E-value: 2.58e-68" locus_tag="DSHI_RS01515" class="clusterblast-orf" id="dummy-1_h1_10_19"  />
</g>
<g id="a1_0020"  >
<polygon points="642,85 647,80 649,80 649,90 647,90 642,85 " style="fill:#15d877; stroke-width:1; stroke:black; " description="&lt;b&gt;DSHI_RS01510&lt;/b&gt;&lt;br&gt;50S ribosomal protein L30&lt;br&gt;Location: 294615 - 294427&lt;br&gt;&lt;br&gt;&lt;b&gt;BlastP hit with MNEFEBPL_03813&lt;/b&gt;&lt;br&gt;Percentage identity: 70&lt;br&gt;Percentage coverage: 92&lt;br&gt;BLAST bit score: 84&lt;br&gt;E-value: 1.6e-21" locus_tag="DSHI_RS01510" class="clusterblast-orf" id="dummy-1_h1_10_20"  />
</g>
<g id="a1_0021"  >
<polygon points="650,85 655,80 672,80 672,90 655,90 650,85 " style="fill:#1515d8; stroke-width:1; stroke:black; " description="&lt;b&gt;DSHI_RS01505&lt;/b&gt;&lt;br&gt;30S ribosomal protein S5&lt;br&gt;Location: 294414 - 293839&lt;br&gt;&lt;br&gt;&lt;b&gt;BlastP hit with MNEFEBPL_03814&lt;/b&gt;&lt;br&gt;Percentage identity: 84&lt;br&gt;Percentage coverage: 96&lt;br&gt;BLAST bit score: 288&lt;br&gt;E-value: 1.75e-98" locus_tag="DSHI_RS01505" class="clusterblast-orf" id="dummy-1_h1_10_21"  />
</g>
<g id="a1_0022"  >
<polygon points="678,85 683,80 691,80 691,90 683,90 678,85 " style="fill:#d81577; stroke-width:1; stroke:black; " description="&lt;b&gt;DSHI_RS01500&lt;/b&gt;&lt;br&gt;50S ribosomal protein L18&lt;br&gt;Location: 293680 - 293321&lt;br&gt;&lt;br&gt;&lt;b&gt;BlastP hit with MNEFEBPL_03815&lt;/b&gt;&lt;br&gt;Percentage identity: 87&lt;br&gt;Percentage coverage: 100&lt;br&gt;BLAST bit score: 201&lt;br&gt;E-value: 2.4e-66" locus_tag="DSHI_RS01500" class="clusterblast-orf" id="dummy-1_h1_10_22"  />
</g>
<g id="a1_0023"  >
<polygon points="692,85 697,80 712,80 712,90 697,90 692,85 " style="fill:#a7d815; stroke-width:1; stroke:black; " description="&lt;b&gt;DSHI_RS01495&lt;/b&gt;&lt;br&gt;50S ribosomal protein L6&lt;br&gt;Location: 293309 - 292776&lt;br&gt;&lt;br&gt;&lt;b&gt;BlastP hit with MNEFEBPL_03816&lt;/b&gt;&lt;br&gt;Percentage identity: 77&lt;br&gt;Percentage coverage: 100&lt;br&gt;BLAST bit score: 275&lt;br&gt;E-value: 6.61e-94" locus_tag="DSHI_RS01495" class="clusterblast-orf" id="dummy-1_h1_10_23"  />
</g>
<g id="a1_0024"  >
<polygon points="713,85 718,80 727,80 727,90 718,90 713,85 " style="fill:#15d8a7; stroke-width:1; stroke:black; " description="&lt;b&gt;DSHI_RS01490&lt;/b&gt;&lt;br&gt;30S ribosomal protein S8&lt;br&gt;Location: 292763 - 292374&lt;br&gt;&lt;br&gt;&lt;b&gt;BlastP hit with MNEFEBPL_03817&lt;/b&gt;&lt;br&gt;Percentage identity: 79&lt;br&gt;Percentage coverage: 98&lt;br&gt;BLAST bit score: 200&lt;br&gt;E-value: 7.96e-66" locus_tag="DSHI_RS01490" class="clusterblast-orf" id="dummy-1_h1_10_24"  />
</g>
<g id="a1_0025"  >
<polygon points="728,85 733,80 740,80 740,90 733,90 728,85 " style="fill:#4615d8; stroke-width:1; stroke:black; " description="&lt;b&gt;DSHI_RS01485&lt;/b&gt;&lt;br&gt;30S ribosomal protein S14&lt;br&gt;Location: 292357 - 292052&lt;br&gt;&lt;br&gt;&lt;b&gt;BlastP hit with MNEFEBPL_03818&lt;/b&gt;&lt;br&gt;Percentage identity: 78&lt;br&gt;Percentage coverage: 100&lt;br&gt;BLAST bit score: 159&lt;br&gt;E-value: 2.72e-50" locus_tag="DSHI_RS01485" class="clusterblast-orf" id="dummy-1_h1_10_25"  />
</g>
<g id="a1_0026"  >
<polygon points="741,85 746,80 762,80 762,90 746,90 741,85 " style="fill:#d81546; stroke-width:1; stroke:black; " description="&lt;b&gt;DSHI_RS01480&lt;/b&gt;&lt;br&gt;50S ribosomal protein L5&lt;br&gt;Location: 292033 - 291470&lt;br&gt;&lt;br&gt;&lt;b&gt;BlastP hit with MNEFEBPL_03819&lt;/b&gt;&lt;br&gt;Percentage identity: 81&lt;br&gt;Percentage coverage: 101&lt;br&gt;BLAST bit score: 303&lt;br&gt;E-value: 1.43e-104" locus_tag="DSHI_RS01480" class="clusterblast-orf" id="dummy-1_h1_10_26"  />
</g>
<g id="a1_0027"  >
<polygon points="762,85 767,80 774,80 774,90 767,90 762,85 " style="fill:white; stroke-width:1; stroke:black; " description="&lt;b&gt;DSHI_RS01475&lt;/b&gt;&lt;br&gt;50S ribosomal protein L24&lt;br&gt;Location: 291470 - 291165" locus_tag="DSHI_RS01475" class="clusterblast-orf" id="dummy-1_h1_10_27"  />
</g>
</svg>
